<svg width="21" height="18" viewBox="0 0 21 18" xmlns="http://www.w3.org/2000/svg"><title>Shape</title><path d="M1.012.008C.453.008 0 .455 0 1.008v5.497a3.994 3.994 0 0 0 2.531 3.718v6.278c0 .828.68 1.499 1.519 1.499a1.51 1.51 0 0 0 1.519-1.5v-6.277A3.994 3.994 0 0 0 8.1 6.505V1.007c0-.552-.453-1-1.012-1-.56 0-1.013.448-1.013 1v3.999c0 .276-.227.5-.506.5a.503.503 0 0 1-.506-.5V1.007c0-.552-.454-1-1.013-1-.56 0-1.013.448-1.013 1v3.999c0 .276-.226.5-.506.5a.503.503 0 0 1-.506-.5V1.007c0-.552-.453-1-1.013-1zm17.091 0c-.131 0-.263.09-.384.16l-3.544 2.089v3.748h-4.05v2h1.012L12.15 18h6.075l1.013-9.996h1.012V6.005H16.2V3.346l2.531-1.499c.507-.28.638-.84.345-1.34-.213-.36-.588-.55-.973-.5z" fill="#8BD84B"/></svg>