<svg width="20" height="18" viewBox="0 0 20 18" xmlns="http://www.w3.org/2000/svg"><title>Shape</title><path d="M6.289.015C7.515-.153 8.813 1.122 9.187 2.88c.374 1.75-.301 3.312-1.527 3.49-1.215.177-2.525-1.098-2.909-2.857-.384-1.75.312-3.311 1.538-3.5zm6.574 0c1.234.188 1.92 1.75 1.556 3.499-.394 1.76-1.691 3.034-2.915 2.857-1.235-.178-1.91-1.74-1.525-3.49.373-1.76 1.67-3.034 2.884-2.866zM1.093 4.777c1.198-.478 2.827.39 3.678 1.903.799 1.541.525 3.161-.662 3.64-1.187.477-2.805-.381-3.635-1.913-.83-1.532-.536-3.162.62-3.63zm17.555 0c1.156.468 1.45 2.098.62 3.63s-2.448 2.39-3.635 1.912c-1.187-.478-1.46-2.098-.662-3.64.85-1.512 2.48-2.38 3.677-1.902zm-1.23 10.63c.039.93-.662 1.96-1.5 2.345-1.743.812-3.807-.87-5.745-.87-1.938 0-4.022 1.751-5.735.87-.974-.485-1.646-1.771-1.52-2.84.176-1.475 1.919-2.267 2.951-3.345 1.373-1.396 2.347-4.019 4.304-4.019 1.948 0 2.98 2.584 4.294 4.019 1.081 1.207 2.883 2.226 2.95 3.84z" fill="#3FAFFF" opacity=".753"/></svg>