<svg width="68" height="42" viewBox="0 0 68 42" xmlns="http://www.w3.org/2000/svg"><title>Group 3</title><g fill="none" fill-rule="evenodd"><path fill="#FF5F00" d="M24 37h19V5H24z"/><path d="M25.974 21c0-6.699 3.138-12.665 8.026-16.51A20.93 20.93 0 0 0 21.013 0C9.408 0 0 9.402 0 21s9.408 21 21.013 21A20.93 20.93 0 0 0 34 37.51c-4.888-3.845-8.026-9.81-8.026-16.51" fill="#EB001B"/><path d="M67 34v-1h-.233l-.267.687-.267-.687H66v1h.164v-.754l.25.65h.171l.251-.652V34H67zm-1.392 0v-.83H66V33h-1v.17h.392V34h.216zM68 21c0 11.598-9.408 21-21.013 21A20.932 20.932 0 0 1 34 37.51c4.888-3.845 8.026-9.811 8.026-16.51 0-6.699-3.138-12.665-8.026-16.51A20.932 20.932 0 0 1 46.987 0C58.592 0 68 9.402 68 21z" fill="#F79E1B"/></g></svg>