<svg width="123" height="30" viewBox="0 0 123 30" xmlns="http://www.w3.org/2000/svg"><title>PayPal/PayPal-FullColor-Horizontal</title><g fill="none" fill-rule="evenodd"><path d="M118.125 7.36l-2.761 17.565a.56.56 0 0 0 .554.648h2.777c.46 0 .851-.334.923-.788l2.722-17.25a.56.56 0 0 0-.554-.649h-3.107a.56.56 0 0 0-.554.474m-8.286 12.02c-.311 1.84-1.772 3.076-3.636 3.076-.935 0-1.682-.301-2.163-.87-.477-.564-.656-1.368-.505-2.263.29-1.824 1.774-3.1 3.61-3.1.915 0 1.657.304 2.148.878.493.579.687 1.388.546 2.278zm4.489-6.27h-3.221a.56.56 0 0 0-.554.473l-.142.9-.225-.326c-.698-1.013-2.252-1.351-3.805-1.351-3.559 0-6.6 2.697-7.19 6.48-.309 1.887.129 3.69 1.198 4.949.984 1.156 2.386 1.637 4.058 1.637 2.868 0 4.46-1.842 4.46-1.842l-.144.895a.56.56 0 0 0 .553.648h2.901c.46 0 .852-.334.924-.788l1.74-11.028a.56.56 0 0 0-.553-.648zm-19.331.076c-.367 2.415-2.212 2.415-3.996 2.415h-1.015l.712-4.508a.56.56 0 0 1 .554-.474h.466c1.214 0 2.36 0 2.952.692.354.414.46 1.028.327 1.875zm-.776-6.3h-6.728a.935.935 0 0 0-.923.79l-2.72 17.25a.56.56 0 0 0 .554.647h3.451a.654.654 0 0 0 .646-.552l.772-4.89a.935.935 0 0 1 .923-.79h2.129c4.431 0 6.989-2.144 7.657-6.394.3-1.859.012-3.32-.858-4.342-.957-1.124-2.653-1.719-4.903-1.719z" fill="#009CDE"/><path d="M83.503 13.11h-3.238c-.31 0-.6.153-.773.409l-4.466 6.578-1.893-6.321a.934.934 0 0 0-.896-.667h-3.182a.56.56 0 0 0-.531.742l3.565 10.465-3.353 4.732a.56.56 0 0 0 .457.885h3.235c.307 0 .593-.15.768-.403l10.768-15.54a.561.561 0 0 0-.461-.88m-21.646 6.27c-.311 1.84-1.772 3.076-3.636 3.076-.934 0-1.682-.301-2.163-.87-.477-.564-.656-1.368-.505-2.263.29-1.824 1.775-3.1 3.61-3.1.915 0 1.657.304 2.148.878.493.579.687 1.388.546 2.278zm4.49-6.27h-3.222a.56.56 0 0 0-.554.473l-.142.9-.225-.326c-.698-1.013-2.252-1.351-3.805-1.351-3.559 0-6.599 2.697-7.19 6.48-.309 1.887.129 3.69 1.199 4.949.982 1.156 2.385 1.637 4.057 1.637 2.868 0 4.46-1.842 4.46-1.842l-.144.895a.56.56 0 0 0 .553.648h2.901c.46 0 .852-.334.924-.788L66.9 13.757a.56.56 0 0 0-.554-.648zm-19.332.076c-.368 2.415-2.212 2.415-3.995 2.415h-1.015l.711-4.508a.561.561 0 0 1 .554-.474h.466c1.214 0 2.36 0 2.952.692.354.414.461 1.028.327 1.875zm-.776-6.3h-6.728a.935.935 0 0 0-.923.79l-2.72 17.25a.56.56 0 0 0 .554.647h3.212c.46 0 .852-.334.923-.788l.734-4.654a.934.934 0 0 1 .923-.79h2.13c4.43 0 6.988-2.144 7.656-6.394.301-1.859.012-3.32-.858-4.342-.957-1.124-2.653-1.719-4.903-1.719z" fill="#003087"/><path d="M122.347 29.933V.248H.018v29.685z"/><path d="M22.67 7.79c.363-2.31-.002-3.88-1.25-5.304C20.043.92 17.56.248 14.381.248H5.155a1.32 1.32 0 0 0-1.303 1.114L.01 25.724a.792.792 0 0 0 .782.915h5.696l-.393 2.493c-.066.42.258.8.684.8h4.8c.57 0 1.053-.413 1.141-.974l.048-.244.904-5.735.058-.317a1.155 1.155 0 0 1 1.14-.975h.719c4.65 0 8.293-1.89 9.357-7.354.444-2.283.215-4.19-.961-5.53A4.577 4.577 0 0 0 22.67 7.79" fill="#009CDE"/><path d="M22.67 7.79c.363-2.31-.002-3.88-1.25-5.304C20.043.92 17.56.248 14.381.248H5.155a1.32 1.32 0 0 0-1.303 1.114L.01 25.724a.792.792 0 0 0 .782.915h5.696l1.43-9.072-.044.284a1.316 1.316 0 0 1 1.3-1.114h2.707c5.316 0 9.479-2.16 10.695-8.407.036-.185.067-.364.095-.54" fill="#012169"/><path d="M9.455 7.82a1.155 1.155 0 0 1 1.141-.974h7.232c.857 0 1.656.056 2.386.173.209.034.412.073.61.116a8.695 8.695 0 0 1 .847.233c.359.118.692.26 1 .422.362-2.31-.003-3.88-1.252-5.304C20.044.92 17.56.248 14.382.248H5.155a1.32 1.32 0 0 0-1.303 1.114L.01 25.724a.792.792 0 0 0 .782.915h5.696L9.455 7.82" fill="#003087"/></g></svg>