<svg width="50" height="60" viewBox="0 0 50 60" xmlns="http://www.w3.org/2000/svg"><title>PDF</title><g fill="none" fill-rule="evenodd"><path d="M30 0l20 20v33a7 7 0 0 1-7 7H7a7 7 0 0 1-7-7V7a7 7 0 0 1 7-7h23z" fill="#E94848"/><path d="M23.317 22a2.4 2.4 0 0 0-2.39 2.389c0 1.63.906 3.653 1.86 5.554-.746 2.333-1.591 4.833-2.673 6.943-2.214.868-4.188 1.514-5.375 2.47a.717.717 0 0 0-.052.06 2.4 2.4 0 0 0 1.702 4.084 2.37 2.37 0 0 0 1.702-.694.717.717 0 0 0 .045-.038c.873-1.043 1.904-2.935 2.822-4.665 2.115-.833 4.332-1.68 6.472-2.188 1.562 1.259 3.822 2.09 5.681 2.09a2.4 2.4 0 0 0 2.389-2.388 2.4 2.4 0 0 0-2.389-2.39c-1.491 0-3.658.533-5.315 1.09a17.69 17.69 0 0 1-3.464-4.508c.634-1.952 1.374-3.906 1.374-5.42A2.4 2.4 0 0 0 23.316 22zm0 1.433c.536 0 .955.42.955.956 0 .717-.384 2.037-.828 3.456-.595-1.38-1.083-2.705-1.083-3.456 0-.536.42-.956.956-.956zm.41 8.175a19.17 19.17 0 0 0 2.479 3.15c-1.417.388-2.8.884-4.166 1.404.66-1.489 1.187-3.033 1.687-4.554zm9.384 3.053c.536 0 .956.42.956.956s-.42.955-.956.955c-1.076 0-2.606-.486-3.83-1.164 1.404-.397 2.936-.747 3.83-.747zM18.852 38.94c-.671 1.199-1.34 2.318-1.806 2.881a.909.909 0 0 1-.657.247.945.945 0 0 1-.956-.956c0-.252.108-.503.254-.664.56-.434 1.78-.954 3.165-1.508z" fill="#FFF" fill-rule="nonzero"/><path d="M50 20H37.354C33.488 20 30 16.512 30 12.646V0l20 20z" fill="#C53C3C"/></g></svg>