<svg width="36" height="36" viewBox="0 0 36 36" xmlns="http://www.w3.org/2000/svg"><title>icon/action/zoom_in_24px</title><path d="M25.729 22.642h-1.626l-.576-.556a13.32 13.32 0 0 0 3.231-8.707C26.758 5.99 20.768 0 13.38 0 5.99 0 0 5.99 0 13.38c0 7.388 5.99 13.378 13.38 13.378a13.32 13.32 0 0 0 8.706-3.231l.556.576v1.626L32.933 36 36 32.933 25.729 22.642zm-12.35 0a9.25 9.25 0 0 1-9.262-9.263 9.25 9.25 0 0 1 9.262-9.262 9.25 9.25 0 0 1 9.263 9.262 9.25 9.25 0 0 1-9.263 9.263z" fill="#00508F" opacity=".253"/></svg>