<svg width="87" height="14" viewBox="0 0 87 14" xmlns="http://www.w3.org/2000/svg"><title>Group 4</title><path d="M7.368 11.252L11.922 14l-1.208-5.18 4.023-3.485-5.298-.45L7.369 0 5.297 4.885 0 5.335 4.023 8.82 2.815 14zm18 0L29.922 14l-1.208-5.18 4.023-3.485-5.298-.45L25.369 0l-2.071 4.885-5.298.45 4.023 3.485L20.815 14zm18 0L47.922 14l-1.208-5.18 4.023-3.485-5.298-.45L43.369 0l-2.071 4.885-5.298.45 4.023 3.485L38.815 14zm18 0L65.922 14l-1.208-5.18 4.023-3.485-5.298-.45L61.369 0l-2.071 4.885-5.298.45 4.023 3.485L56.815 14zm18 0L83.922 14l-1.208-5.18 4.023-3.485-5.298-.45L79.369 0l-2.071 4.885-5.298.45 4.023 3.485L74.815 14z" fill="#FFF"/></svg>