<svg width="140" height="24" viewBox="0 0 140 24" xmlns="http://www.w3.org/2000/svg"><title>Group 2</title><g fill="none" fill-rule="evenodd"><rect fill="#F25C4F" width="24" height="24" rx="5"/><path fill="#FFF" fill-rule="nonzero" d="M12 17.27L18.18 21l-1.64-7.03L22 9.24l-7.19-.61L12 2 9.19 8.63 2 9.24l5.46 4.73L5.82 21z"/><rect fill="#F25C4F" x="29" width="24" height="24" rx="5"/><path fill="#FFF" fill-rule="nonzero" d="M41 17.27L47.18 21l-1.64-7.03L51 9.24l-7.19-.61L41 2l-2.81 6.63-7.19.61 5.46 4.73L34.82 21z"/><rect fill="#F25C4F" x="58" width="24" height="24" rx="5"/><path fill="#FFF" fill-rule="nonzero" d="M70 17.27L76.18 21l-1.64-7.03L80 9.24l-7.19-.61L70 2l-2.81 6.63-7.19.61 5.46 4.73L63.82 21z"/><rect fill="#F25C4F" x="87" width="24" height="24" rx="5"/><path fill="#FFF" fill-rule="nonzero" d="M99 17.27l6.18 3.73-1.64-7.03L109 9.24l-7.19-.61L99 2l-2.81 6.63-7.19.61 5.46 4.73L92.82 21z"/><rect fill="#CCC" x="116" width="24" height="24" rx="5"/><path fill="#FFF" fill-rule="nonzero" d="M128 17.27l6.18 3.73-1.64-7.03L138 9.24l-7.19-.61L128 2l-2.81 6.63-7.19.61 5.46 4.73-1.64 7.03z"/></g></svg>