<svg width="228" height="36" viewBox="0 0 228 36" xmlns="http://www.w3.org/2000/svg"><title>Group 3</title><g fill="none"><path fill="#FF3E54" d="M19 28.933L30.742 36l-3.116-13.32L38 13.718l-13.661-1.156L19 0l-5.339 12.562L0 13.718l10.374 8.962L7.258 36zm48 0L78.742 36l-3.116-13.32L86 13.718l-13.661-1.156L67 0l-5.339 12.562L48 13.718l10.374 8.962L55.258 36zm46.5 0L124.933 36l-3.034-13.32L132 13.718l-13.302-1.156L113.5 0l-5.198 12.562L95 13.718l10.101 8.962L102.067 36zm47.5 0L172.742 36l-3.116-13.32L180 13.718l-13.661-1.156L161 0l-5.339 12.562L142 13.718l10.374 8.962L149.258 36z"/><path fill="#FFECEE" d="M209 28.933L220.742 36l-3.116-13.32L228 13.718l-13.661-1.156L209 0l-5.339 12.562L190 13.718l10.374 8.962L197.258 36z"/></g></svg>