<svg width="70" height="20" viewBox="0 0 70 20" xmlns="http://www.w3.org/2000/svg"><title>Card networks/Visa</title><path d="M51.09.965l-.763 4.166-.508-.222a11.083 11.083 0 0 0-4.218-.736c-2.206 0-3.23.855-3.23 1.653-.013.9 1.196 1.494 3.168 2.383 3.253 1.374 4.753 3.038 4.732 5.222-.044 3.994-3.89 6.569-9.818 6.569-2.53-.023-4.966-.488-6.28-1.024l.791-4.304.726.304c1.853.717 3.05 1.008 5.305 1.008 1.623 0 3.361-.586 3.378-1.875.008-.842-.731-1.442-2.925-2.384-2.14-.92-4.972-2.463-4.941-5.224.034-3.738 3.96-6.345 9.53-6.345 2.185 0 3.938.42 5.054.81zm14.422-.81L70 20h-5.145s-.508-2.28-.674-2.975c-.808 0-6.461-.009-7.096-.009-.218.538-1.167 2.984-1.167 2.984h-5.822l8.231-18.197C58.911.51 59.903.156 61.231.156h4.28zm-59.2 2.486C4.483 1.684 2.374.919 0 .398L.069 0h9.255c1.245.043 2.253.402 2.6 1.612l2.009 8.783c-.116-.27-.241-.536-.376-.8.228.455.417.91.563 1.36l.59 2.754L20.236.156h5.976l-8.884 19.836-5.97.008L6.313 2.64zM58.68 12.956c.46-1.145 2.206-5.552 2.206-5.552-.03.054.456-1.15.734-1.895l.376 1.712 1.284 5.735h-4.6zM25.215 20L28.658.156h5.514L30.72 20h-5.505z" fill="#16216A" fill-rule="evenodd"/></svg>