<svg width="130" height="19" viewBox="0 0 130 19" fill="none" xmlns="http://www.w3.org/2000/svg"><g clip-path="url(#a)" fill="#231F20"><path d="M22.861 0l-4.153 5.644h22.636c1.144 0 1.13.434.57 1.192-.568.77-1.518 2.107-2.096 2.888-.294.396-.825 1.119.934 1.119h9.257l2.742-3.728C54.453 4.805 52.9 0 46.816 0H22.861z"/><path d="M17.027 18.385L25.37 7.05h10.352c1.144 0 1.13.434.57 1.192-.568.77-1.534 2.092-2.113 2.874-.293.396-.824 1.12.935 1.12h13.869c-1.154 1.58-4.895 6.149-11.613 6.149H17.027zm47.778-6.151l-4.524 6.15H48.348s4.521-6.148 4.525-6.148l11.932-.002zm18.282-1.391H53.898L61.88 0h11.93l-4.575 6.217h5.325L79.137 0h11.929l-7.98 10.842zm-1.025 1.393l-4.526 6.149h-11.93s4.522-6.15 4.526-6.15h11.93zM0 14.66h17.58l-.96 1.307H0V14.66zm0-2.425h19.366l-.962 1.305H0v-1.305zm0 4.85h15.795l-.956 1.299H0v-1.299zm130-1.118h-17.513l.961-1.307H130v1.307zm-.001 2.417l-19.293.002.956-1.3h18.337v1.298zm-14.767-6.148H130v1.305l-15.728.001.96-1.306zM107.588 0l-7.98 10.843H86.965S94.948 0 94.953 0h12.635zM85.942 12.236s-.871 1.191-1.295 1.764c-1.499 2.025-.174 4.385 4.716 4.385h19.159l4.526-6.15H85.942z"/></g><defs><clipPath id="a"><path fill="#fff" d="M0 0h130v18.386H0z"/></clipPath></defs></svg>