<svg width="1860" height="600" viewBox="0 0 1860 600" fill="none" xmlns="http://www.w3.org/2000/svg"><rect width="1860" height="600" rx="5" fill="url(#a)"/><mask id="c" maskUnits="userSpaceOnUse" x="0" y="0" width="1860" height="600"><rect width="1860" height="600" rx="5" fill="url(#b)"/></mask><g mask="url(#c)"><path d="M1750.15 513.699c-71.19-21.77-95.4 64.342-103.15 97.239L1878 624V460c-15.98 18.383-56.66 75.469-127.85 53.699z" fill="#3352A1"/><path d="M1787.73 610c-21.92-30.154-57.43-103.708-24.06-156.692 41.71-66.231 105.89-79.154 101.07-200.308" stroke="url(#d)"/><path d="M1787.73 610c-21.92-30.154-57.43-103.708-24.06-156.692 41.71-66.231 105.89-79.154 101.07-200.308" stroke="url(#e)"/><path d="M1882 446c-30-12-89.2-50.4-86-108 4-72 120-128 86-248" stroke="#3352A1"/><path d="M1882 446c-30-12-89.2-50.4-86-108 4-72 120-128 86-248" stroke="url(#f)"/><path d="M-2 300c24.465-23.822 93.782-68.718 59.803-123.692C23.823 121.333 110.81 55.364-2 32" stroke="#3352A1"/><path d="M-2 300c24.465-23.822 93.782-68.718 59.803-123.692C23.823 121.333 110.81 55.364-2 32" stroke="url(#g)"/><path d="M-22 132c13.05-22.453 59.16-91.26 139.2-82.568C217.25 60.296 249.875 95.062 326-44" stroke="url(#h)"/><path d="M-22 132c13.05-22.453 59.16-91.26 139.2-82.568C217.25 60.296 249.875 95.062 326-44" stroke="url(#i)"/><path d="M141.064 521.677c-16.935 48.677 41.292 68.594 63.936 77.351V618H5.201c-12.654-41.35-44.839-124.564 19.98-151.781C90 439.001 158 473 141.064 521.677z" fill="#3352A1"/><path d="M131.064 531.677c-16.935 48.677 41.292 68.594 63.936 77.351V628H-4.799c-12.654-41.35-44.839-124.564 19.98-151.781C80 449.001 148 483 131.064 531.677z" fill="#3352A1" stroke="url(#j)"/></g><defs><linearGradient id="a" x1="930" x2="930" y2="600" gradientUnits="userSpaceOnUse"><stop stop-color="#3352A1"/><stop offset="1" stop-color="#132450"/></linearGradient><linearGradient id="b" x1="930" x2="930" y2="600" gradientUnits="userSpaceOnUse"><stop stop-color="#3352A1"/><stop offset="1" stop-color="#132450"/></linearGradient><linearGradient id="d" x1="1807.5" y1="253" x2="1807.5" y2="610" gradientUnits="userSpaceOnUse"><stop stop-color="#3352A1"/><stop offset="1" stop-color="#132450"/></linearGradient><linearGradient id="e" x1="1807.5" y1="253" x2="1807.5" y2="610" gradientUnits="userSpaceOnUse"><stop stop-color="#BFD2FD"/><stop offset="1" stop-color="#B4CAFD"/></linearGradient><linearGradient id="f" x1="1842.05" y1="90" x2="1842.05" y2="446" gradientUnits="userSpaceOnUse"><stop stop-color="#FD676C"/><stop offset="1" stop-color="#FD5C62"/></linearGradient><linearGradient id="g" x1="34.009" y1="51.852" x2="34.009" y2="260.296" gradientUnits="userSpaceOnUse"><stop stop-color="#FD676C"/><stop offset="1" stop-color="#FD5C62"/></linearGradient><linearGradient id="h" x1="152" y1="-44" x2="152" y2="132" gradientUnits="userSpaceOnUse"><stop stop-color="#3352A1"/><stop offset="1" stop-color="#132450"/></linearGradient><linearGradient id="i" x1="152" y1="-44" x2="152" y2="132" gradientUnits="userSpaceOnUse"><stop stop-color="#BFD2FD"/><stop offset="1" stop-color="#B4CAFD"/></linearGradient><linearGradient id="j" x1="85.483" y1="466.553" x2="85.483" y2="628" gradientUnits="userSpaceOnUse"><stop stop-color="#BFD2FD"/><stop offset="1" stop-color="#B4CAFD"/></linearGradient></defs></svg>