<svg width="32" height="32" viewBox="0 0 32 32" fill="none" xmlns="http://www.w3.org/2000/svg"><path fill-rule="evenodd" clip-rule="evenodd" d="M4 24H1.333A1.334 1.334 0 0 1 0 22.667V20h20V8h6.223c1.489 0 2.133.768 2.581 1.476a335.786 335.786 0 0 1 2.812 4.504c.25.416.384.893.384 1.38v5.973C32 22.828 31.03 24 29.333 24H28c0 2.208-1.792 4-4 4s-4-1.792-4-4h-8c0 2.208-1.792 4-4 4s-4-1.792-4-4zm4-1.6a1.601 1.601 0 0 1 0 3.2 1.601 1.601 0 0 1 0-3.2zm16 0a1.601 1.601 0 0 1 0 3.2 1.601 1.601 0 0 1 0-3.2zm-5.333-3.733H0V5.333C0 4.597.597 4 1.333 4h16c.736 0 1.334.597 1.334 1.333v13.334zm4-8v4h6.286l-1.902-3.328a1.332 1.332 0 0 0-1.158-.672h-3.226z" fill="#001130"/><path fill-rule="evenodd" clip-rule="evenodd" d="M4 24H1.333A1.334 1.334 0 0 1 0 22.667V20h20V8h6.223c1.489 0 2.133.768 2.581 1.476a335.786 335.786 0 0 1 2.812 4.504c.25.416.384.893.384 1.38v5.973C32 22.828 31.03 24 29.333 24H28c0 2.208-1.792 4-4 4s-4-1.792-4-4h-8c0 2.208-1.792 4-4 4s-4-1.792-4-4zm4-1.6a1.601 1.601 0 0 1 0 3.2 1.601 1.601 0 0 1 0-3.2zm16 0a1.601 1.601 0 0 1 0 3.2 1.601 1.601 0 0 1 0-3.2zm-5.333-3.733H0V5.333C0 4.597.597 4 1.333 4h16c.736 0 1.334.597 1.334 1.333v13.334zm4-8v4h6.286l-1.902-3.328a1.332 1.332 0 0 0-1.158-.672h-3.226z" fill="url(#a)"/><defs><linearGradient id="a" x1="16" y1="4" x2="16" y2="28" gradientUnits="userSpaceOnUse"><stop stop-color="#3352A1"/><stop offset="1" stop-color="#132450"/></linearGradient></defs></svg>