<svg width="32" height="32" viewBox="0 0 32 32" fill="none" xmlns="http://www.w3.org/2000/svg"><path d="M30.76 6.41l-6.457-1.869v24.934c0 .124-.007.247-.02.368a1.683 1.683 0 0 0 1.78-1.206l5.846-20.14A1.683 1.683 0 0 0 30.76 6.41z" fill="#3352A1"/><path d="M30.76 6.41l-6.457-1.869v24.934c0 .124-.007.247-.02.368a1.683 1.683 0 0 0 1.78-1.206l5.846-20.14A1.683 1.683 0 0 0 30.76 6.41z" fill="url(#a)"/><path d="M9.518 7.313a5.606 5.606 0 0 0-1.82 1.276h1.248a6.9 6.9 0 0 1 .572-1.276z" fill="#3352A1"/><path d="M9.518 7.313a5.606 5.606 0 0 0-1.82 1.276h1.248a6.9 6.9 0 0 1 .572-1.276z" fill="url(#b)"/><path d="M8.64 9.713H6.87a5.54 5.54 0 0 0-.681 2.158h2.195c.03-.77.118-1.494.258-2.158z" fill="#3352A1"/><path d="M8.64 9.713H6.87a5.54 5.54 0 0 0-.681 2.158h2.195c.03-.77.118-1.494.258-2.158z" fill="url(#c)"/><path d="M15.786 8.59a5.607 5.607 0 0 0-1.819-1.277c.218.372.411.8.572 1.276h1.247z" fill="#3352A1"/><path d="M15.786 8.59a5.607 5.607 0 0 0-1.819-1.277c.218.372.411.8.572 1.276h1.247z" fill="url(#d)"/><path d="M7.699 16.277a5.607 5.607 0 0 0 1.819 1.276 6.92 6.92 0 0 1-.572-1.276H7.699z" fill="#3352A1"/><path d="M7.699 16.277a5.607 5.607 0 0 0 1.819 1.276 6.92 6.92 0 0 1-.572-1.276H7.699z" fill="url(#e)"/><path d="M13.977 11.871a11.318 11.318 0 0 0-.297-2.158H9.805a11.304 11.304 0 0 0-.297 2.158h4.47z" fill="#3352A1"/><path d="M13.977 11.871a11.318 11.318 0 0 0-.297-2.158H9.805a11.304 11.304 0 0 0-.297 2.158h4.47z" fill="url(#f)"/><path d="M11.742 6.85c-.555 0-1.145.656-1.581 1.74h3.163c-.436-1.084-1.026-1.74-1.582-1.74z" fill="#3352A1"/><path d="M11.742 6.85c-.555 0-1.145.656-1.581 1.74h3.163c-.436-1.084-1.026-1.74-1.582-1.74z" fill="url(#g)"/><path d="M8.383 12.995H6.188a5.54 5.54 0 0 0 .681 2.158h1.772a12.868 12.868 0 0 1-.258-2.158z" fill="#3352A1"/><path d="M8.383 12.995H6.188a5.54 5.54 0 0 0 .681 2.158h1.772a12.868 12.868 0 0 1-.258-2.158z" fill="url(#h)"/><path d="M15.102 11.871h2.195a5.54 5.54 0 0 0-.68-2.158h-1.772c.14.664.228 1.389.257 2.158z" fill="#3352A1"/><path d="M15.102 11.871h2.195a5.54 5.54 0 0 0-.68-2.158h-1.772c.14.664.228 1.389.257 2.158z" fill="url(#i)"/><path d="M11.742 18.017c.556 0 1.146-.656 1.582-1.74h-3.163c.436 1.084 1.026 1.74 1.582 1.74z" fill="#3352A1"/><path d="M11.742 18.017c.556 0 1.146-.656 1.582-1.74h-3.163c.436 1.084 1.026 1.74 1.582 1.74z" fill="url(#j)"/><path d="M14.845 15.153h1.771a5.54 5.54 0 0 0 .681-2.158h-2.195c-.029.77-.117 1.494-.257 2.158z" fill="#3352A1"/><path d="M14.845 15.153h1.771a5.54 5.54 0 0 0 .681-2.158h-2.195c-.029.77-.117 1.494-.257 2.158z" fill="url(#k)"/><path d="M5.91 22.857h-.963v1.835h.964c.762 0 1.15-.314 1.15-.933 0-.599-.387-.902-1.15-.902z" fill="#3352A1"/><path d="M5.91 22.857h-.963v1.835h.964c.762 0 1.15-.314 1.15-.933 0-.599-.387-.902-1.15-.902z" fill="url(#l)"/><path d="M9.017 24.859h1.331l-.672-1.453-.66 1.453z" fill="#3352A1"/><path d="M9.017 24.859h1.331l-.672-1.453-.66 1.453z" fill="url(#m)"/><path d="M20.936 0H2.549A2.528 2.528 0 0 0 .024 2.526v26.948A2.528 2.528 0 0 0 2.549 32h18.387a2.528 2.528 0 0 0 2.525-2.526V2.526A2.528 2.528 0 0 0 20.936 0zm-9.194 5.726a6.715 6.715 0 0 1 6.708 6.707 6.715 6.715 0 0 1-6.708 6.708 6.715 6.715 0 0 1-6.707-6.708 6.715 6.715 0 0 1 6.707-6.707zM4.947 25.573v1.064a.42.42 0 0 1-.421.42h-.04a.42.42 0 0 1-.42-.42v-4.241a.42.42 0 0 1 .42-.421h1.425c1.252 0 2.03.683 2.03 1.784 0 1.119-.778 1.814-2.03 1.814h-.964zm7.087 1.29a.42.42 0 0 1-.355.195h-.049a.421.421 0 0 1-.382-.245l-.494-1.073H8.617l-.488 1.071a.42.42 0 0 1-.383.247H7.69a.421.421 0 0 1-.383-.596L9.25 22.22a.42.42 0 0 1 .383-.246h.082a.42.42 0 0 1 .382.244l1.966 4.241a.42.42 0 0 1-.028.403zm1.871.195a2.55 2.55 0 0 1-1.711-.683.42.42 0 0 1-.005-.6l.026-.027a.42.42 0 0 1 .595 0c.257.256.698.429 1.095.429.445 0 .964-.144.964-.55.004-.39-.232-.523-.992-.754-.673-.203-1.594-.482-1.594-1.56 0-.8.707-1.338 1.758-1.338.453 0 .955.133 1.31.348a.421.421 0 0 1 .14.582l-.017.028a.421.421 0 0 1-.573.139c-.215-.129-.56-.215-.86-.215-.404 0-.877.12-.877.456 0 .365.232.493.976.718.684.207 1.62.49 1.61 1.6 0 .852-.741 1.427-1.845 1.427zm3.67 0a2.55 2.55 0 0 1-1.712-.683.42.42 0 0 1-.006-.6l.027-.026a.42.42 0 0 1 .595-.001c.258.256.698.429 1.096.429.444 0 .963-.144.963-.55.003-.39-.233-.523-.992-.754-.673-.203-1.594-.482-1.594-1.56 0-.8.707-1.338 1.759-1.338.452 0 .954.133 1.31.348a.421.421 0 0 1 .139.584l-.018.028a.421.421 0 0 1-.572.137c-.215-.129-.56-.215-.86-.215-.404 0-.877.12-.877.456 0 .365.232.493.976.718.684.207 1.62.49 1.61 1.6 0 .852-.74 1.427-1.845 1.427z" fill="#3352A1"/><path d="M20.936 0H2.549A2.528 2.528 0 0 0 .024 2.526v26.948A2.528 2.528 0 0 0 2.549 32h18.387a2.528 2.528 0 0 0 2.525-2.526V2.526A2.528 2.528 0 0 0 20.936 0zm-9.194 5.726a6.715 6.715 0 0 1 6.708 6.707 6.715 6.715 0 0 1-6.708 6.708 6.715 6.715 0 0 1-6.707-6.708 6.715 6.715 0 0 1 6.707-6.707zM4.947 25.573v1.064a.42.42 0 0 1-.421.42h-.04a.42.42 0 0 1-.42-.42v-4.241a.42.42 0 0 1 .42-.421h1.425c1.252 0 2.03.683 2.03 1.784 0 1.119-.778 1.814-2.03 1.814h-.964zm7.087 1.29a.42.42 0 0 1-.355.195h-.049a.421.421 0 0 1-.382-.245l-.494-1.073H8.617l-.488 1.071a.42.42 0 0 1-.383.247H7.69a.421.421 0 0 1-.383-.596L9.25 22.22a.42.42 0 0 1 .383-.246h.082a.42.42 0 0 1 .382.244l1.966 4.241a.42.42 0 0 1-.028.403zm1.871.195a2.55 2.55 0 0 1-1.711-.683.42.42 0 0 1-.005-.6l.026-.027a.42.42 0 0 1 .595 0c.257.256.698.429 1.095.429.445 0 .964-.144.964-.55.004-.39-.232-.523-.992-.754-.673-.203-1.594-.482-1.594-1.56 0-.8.707-1.338 1.758-1.338.453 0 .955.133 1.31.348a.421.421 0 0 1 .14.582l-.017.028a.421.421 0 0 1-.573.139c-.215-.129-.56-.215-.86-.215-.404 0-.877.12-.877.456 0 .365.232.493.976.718.684.207 1.62.49 1.61 1.6 0 .852-.741 1.427-1.845 1.427zm3.67 0a2.55 2.55 0 0 1-1.712-.683.42.42 0 0 1-.006-.6l.027-.026a.42.42 0 0 1 .595-.001c.258.256.698.429 1.096.429.444 0 .963-.144.963-.55.003-.39-.233-.523-.992-.754-.673-.203-1.594-.482-1.594-1.56 0-.8.707-1.338 1.759-1.338.452 0 .954.133 1.31.348a.421.421 0 0 1 .139.584l-.018.028a.421.421 0 0 1-.572.137c-.215-.129-.56-.215-.86-.215-.404 0-.877.12-.877.456 0 .365.232.493.976.718.684.207 1.62.49 1.61 1.6 0 .852-.74 1.427-1.845 1.427z" fill="url(#n)"/><path d="M9.508 12.995c.035.786.14 1.514.297 2.158h3.875c.156-.644.262-1.372.297-2.158h-4.47z" fill="#3352A1"/><path d="M9.508 12.995c.035.786.14 1.514.297 2.158h3.875c.156-.644.262-1.372.297-2.158h-4.47z" fill="url(#o)"/><path d="M13.967 17.553a5.607 5.607 0 0 0 1.82-1.276h-1.248a6.913 6.913 0 0 1-.572 1.276z" fill="#3352A1"/><path d="M13.967 17.553a5.607 5.607 0 0 0 1.82-1.276h-1.248a6.913 6.913 0 0 1-.572 1.276z" fill="url(#p)"/><defs><linearGradient id="a" x1="28.129" y1="4.541" x2="28.129" y2="29.851" gradientUnits="userSpaceOnUse"><stop stop-color="#3352A1"/><stop offset="1" stop-color="#132450"/></linearGradient><linearGradient id="b" x1="8.608" y1="7.313" x2="8.608" y2="8.589" gradientUnits="userSpaceOnUse"><stop stop-color="#3352A1"/><stop offset="1" stop-color="#132450"/></linearGradient><linearGradient id="c" x1="7.414" y1="9.713" x2="7.414" y2="11.871" gradientUnits="userSpaceOnUse"><stop stop-color="#3352A1"/><stop offset="1" stop-color="#132450"/></linearGradient><linearGradient id="d" x1="14.877" y1="7.313" x2="14.877" y2="8.589" gradientUnits="userSpaceOnUse"><stop stop-color="#3352A1"/><stop offset="1" stop-color="#132450"/></linearGradient><linearGradient id="e" x1="8.608" y1="16.277" x2="8.608" y2="17.553" gradientUnits="userSpaceOnUse"><stop stop-color="#3352A1"/><stop offset="1" stop-color="#132450"/></linearGradient><linearGradient id="f" x1="11.742" y1="9.713" x2="11.742" y2="11.871" gradientUnits="userSpaceOnUse"><stop stop-color="#3352A1"/><stop offset="1" stop-color="#132450"/></linearGradient><linearGradient id="g" x1="11.742" y1="6.85" x2="11.742" y2="8.589" gradientUnits="userSpaceOnUse"><stop stop-color="#3352A1"/><stop offset="1" stop-color="#132450"/></linearGradient><linearGradient id="h" x1="7.414" y1="12.995" x2="7.414" y2="15.153" gradientUnits="userSpaceOnUse"><stop stop-color="#3352A1"/><stop offset="1" stop-color="#132450"/></linearGradient><linearGradient id="i" x1="16.071" y1="9.713" x2="16.071" y2="11.871" gradientUnits="userSpaceOnUse"><stop stop-color="#3352A1"/><stop offset="1" stop-color="#132450"/></linearGradient><linearGradient id="j" x1="11.743" y1="16.277" x2="11.743" y2="18.017" gradientUnits="userSpaceOnUse"><stop stop-color="#3352A1"/><stop offset="1" stop-color="#132450"/></linearGradient><linearGradient id="k" x1="16.071" y1="12.995" x2="16.071" y2="15.153" gradientUnits="userSpaceOnUse"><stop stop-color="#3352A1"/><stop offset="1" stop-color="#132450"/></linearGradient><linearGradient id="l" x1="6.003" y1="22.857" x2="6.003" y2="24.692" gradientUnits="userSpaceOnUse"><stop stop-color="#3352A1"/><stop offset="1" stop-color="#132450"/></linearGradient><linearGradient id="m" x1="9.682" y1="23.406" x2="9.682" y2="24.859" gradientUnits="userSpaceOnUse"><stop stop-color="#3352A1"/><stop offset="1" stop-color="#132450"/></linearGradient><linearGradient id="n" x1="11.742" x2="11.742" y2="32" gradientUnits="userSpaceOnUse"><stop stop-color="#3352A1"/><stop offset="1" stop-color="#132450"/></linearGradient><linearGradient id="o" x1="11.742" y1="12.995" x2="11.742" y2="15.153" gradientUnits="userSpaceOnUse"><stop stop-color="#3352A1"/><stop offset="1" stop-color="#132450"/></linearGradient><linearGradient id="p" x1="14.877" y1="16.277" x2="14.877" y2="17.553" gradientUnits="userSpaceOnUse"><stop stop-color="#3352A1"/><stop offset="1" stop-color="#132450"/></linearGradient></defs></svg>