<svg width="32" height="32" viewBox="0 0 32 32" fill="none" xmlns="http://www.w3.org/2000/svg"><path d="M23.497 24.005a2.784 2.784 0 0 1-2.781-2.78v-4.62a2.784 2.784 0 0 1 2.78-2.78h7.247c.044 0 .087.001.13.003v-4.6c0-1.184-.96-2.144-2.143-2.144H2.144A2.143 2.143 0 0 0 0 9.227v19.374c0 1.184.96 2.145 2.144 2.145H28.73c1.184 0 2.144-.96 2.144-2.145v-4.6a2.706 2.706 0 0 1-.131.003h-7.246z" fill="#001130"/><path d="M23.497 24.005a2.784 2.784 0 0 1-2.781-2.78v-4.62a2.784 2.784 0 0 1 2.78-2.78h7.247c.044 0 .087.001.13.003v-4.6c0-1.184-.96-2.144-2.143-2.144H2.144A2.143 2.143 0 0 0 0 9.227v19.374c0 1.184.96 2.145 2.144 2.145H28.73c1.184 0 2.144-.96 2.144-2.145v-4.6a2.706 2.706 0 0 1-.131.003h-7.246z" fill="url(#a)"/><path d="M30.743 15.349h-7.246c-.695 0-1.257.563-1.257 1.257v4.618c0 .694.563 1.257 1.257 1.257h7.246c.694 0 1.257-.563 1.257-1.257v-4.618c0-.695-.563-1.257-1.257-1.257zm-4.75 5.38a1.814 1.814 0 1 1 0-3.629 1.814 1.814 0 0 1 0 3.63z" fill="#001130"/><path d="M30.743 15.349h-7.246c-.695 0-1.257.563-1.257 1.257v4.618c0 .694.563 1.257 1.257 1.257h7.246c.694 0 1.257-.563 1.257-1.257v-4.618c0-.695-.563-1.257-1.257-1.257zm-4.75 5.38a1.814 1.814 0 1 1 0-3.629 1.814 1.814 0 0 1 0 3.63z" fill="url(#b)"/><path d="M24.996 3.155a2.769 2.769 0 0 0-3.498-1.76L10.605 4.994h14.998l-.607-1.839z" fill="#001130"/><path d="M24.996 3.155a2.769 2.769 0 0 0-3.498-1.76L10.605 4.994h14.998l-.607-1.839z" fill="url(#c)"/><defs><linearGradient id="a" x1="15.437" y1="7.083" x2="15.437" y2="30.747" gradientUnits="userSpaceOnUse"><stop stop-color="#3352A1"/><stop offset="1" stop-color="#132450"/></linearGradient><linearGradient id="b" x1="27.12" y1="15.349" x2="27.12" y2="22.481" gradientUnits="userSpaceOnUse"><stop stop-color="#3352A1"/><stop offset="1" stop-color="#132450"/></linearGradient><linearGradient id="c" x1="18.104" y1="1.254" x2="18.104" y2="4.994" gradientUnits="userSpaceOnUse"><stop stop-color="#3352A1"/><stop offset="1" stop-color="#132450"/></linearGradient></defs></svg>