<svg width="32" height="32" viewBox="0 0 32 32" fill="none" xmlns="http://www.w3.org/2000/svg"><path fill-rule="evenodd" clip-rule="evenodd" d="M32 32H0V8h6.667v12L16 12v4.939l-2.437 2.038.856 1.023 4.489-3.756L24 12v4.95l-2.421 2.027.854 1.023 6.136-5.133-.004-.006L32 12v20zM8 24H5.333v4H8v-4zm13.333 0h-2.666v4h2.666v-4zm-6.666 0H12v4h2.667v-4zM28 24h-2.667v4H28v-4zM4 6.667H2.667c.264-2.91 2.38-5.334 4.666-5.334.328 0 .638.079.911.219a2.666 2.666 0 0 1 4.845 0 2 2 0 1 1 0 3.563 2.666 2.666 0 0 1-2.422 1.552c-3.127 0-4.963-3.935-6.667 0z" fill="#001130"/><path fill-rule="evenodd" clip-rule="evenodd" d="M32 32H0V8h6.667v12L16 12v4.939l-2.437 2.038.856 1.023 4.489-3.756L24 12v4.95l-2.421 2.027.854 1.023 6.136-5.133-.004-.006L32 12v20zM8 24H5.333v4H8v-4zm13.333 0h-2.666v4h2.666v-4zm-6.666 0H12v4h2.667v-4zM28 24h-2.667v4H28v-4zM4 6.667H2.667c.264-2.91 2.38-5.334 4.666-5.334.328 0 .638.079.911.219a2.666 2.666 0 0 1 4.845 0 2 2 0 1 1 0 3.563 2.666 2.666 0 0 1-2.422 1.552c-3.127 0-4.963-3.935-6.667 0z" fill="url(#a)"/><defs><linearGradient id="a" x1="16" x2="16" y2="32" gradientUnits="userSpaceOnUse"><stop stop-color="#3352A1"/><stop offset="1" stop-color="#132450"/></linearGradient></defs></svg>