<svg width="122" height="32" viewBox="0 0 122 32" fill="none" xmlns="http://www.w3.org/2000/svg"><path d="M46.523 25V7.937h5.25c1.5 0 2.84.34 4.02 1.02 1.188.672 2.113 1.633 2.777 2.883.664 1.242.996 2.656.996 4.242v.785c0 1.586-.328 2.996-.984 4.23a6.97 6.97 0 0 1-2.754 2.872c-1.187.68-2.527 1.023-4.02 1.031h-5.285zm3.516-14.215v11.39h1.7c1.374 0 2.425-.448 3.152-1.347.726-.898 1.097-2.183 1.113-3.855v-.903c0-1.734-.36-3.047-1.078-3.937-.719-.899-1.77-1.348-3.153-1.348H50.04zm31.13 0h-5.227V25h-3.515V10.785H67.27V7.937h13.9v2.848zm18.426 7.23h-12.14V15.25h12.14v2.766zm10.107-1.406l.984-8.672h9.562v2.825h-6.785l-.422 3.668a5.373 5.373 0 0 1 2.567-.645c1.625 0 2.898.504 3.82 1.512.922 1.008 1.383 2.418 1.383 4.23 0 1.102-.234 2.09-.703 2.965a4.93 4.93 0 0 1-1.992 2.027c-.868.477-1.891.715-3.071.715a6.678 6.678 0 0 1-2.871-.62c-.883-.423-1.582-1.012-2.097-1.77-.508-.758-.778-1.621-.809-2.59h3.352c.07.71.316 1.265.738 1.664.429.39.988.586 1.676.586.765 0 1.355-.274 1.769-.82.414-.555.621-1.336.621-2.344 0-.969-.238-1.711-.715-2.227-.476-.515-1.152-.773-2.027-.773-.805 0-1.457.21-1.957.633l-.328.304-2.695-.668z" fill="#001130"/><path d="M28 28.571H4A1.714 1.714 0 0 0 4 32h24a1.714 1.714 0 0 0 0-3.429z" fill="#3352A1"/><path d="M28 28.571H4A1.714 1.714 0 0 0 4 32h24a1.714 1.714 0 0 0 0-3.429z" fill="url(#a)"/><path d="M4 3.429h24A1.714 1.714 0 0 0 28 0H4a1.714 1.714 0 0 0 0 3.429z" fill="#3352A1"/><path d="M4 3.429h24A1.714 1.714 0 0 0 28 0H4a1.714 1.714 0 0 0 0 3.429z" fill="url(#b)"/><path d="M20.754 22.386a6.051 6.051 0 0 1-.643.644c-.067.057-.134.114-.204.171a5.9 5.9 0 0 1-.259.194 5.583 5.583 0 0 1-.218.152c-.091.057-.185.114-.279.171-.076.045-.151.09-.229.131a6.316 6.316 0 0 1-.3.145c-.078.036-.157.074-.237.107-.106.044-.215.08-.323.118-.08.028-.16.057-.242.084-.114.035-.233.062-.35.09-.08.02-.157.042-.237.058a6.254 6.254 0 0 1-.403.062c-.068.009-.135.022-.204.03a6.505 6.505 0 0 1-1.25 0c-.068-.008-.135-.021-.204-.03a6.226 6.226 0 0 1-.403-.062c-.08-.016-.157-.038-.236-.057a7.482 7.482 0 0 1-.35-.091c-.083-.025-.162-.057-.242-.084a5.185 5.185 0 0 1-.323-.118 5.594 5.594 0 0 1-.238-.107 6.316 6.316 0 0 1-.3-.145 5.006 5.006 0 0 1-.228-.13c-.095-.058-.188-.111-.28-.172a5.509 5.509 0 0 1-.218-.152 5.964 5.964 0 0 1-.26-.194l-.202-.171a5.68 5.68 0 0 1-.427-.406 6.051 6.051 0 0 1-.388-.443 6.968 6.968 0 0 1-.516-.756c-.044-.077-.088-.153-.13-.232a5.586 5.586 0 0 1-.143-.298c-.037-.08-.074-.158-.108-.24a4.894 4.894 0 0 1-.114-.318 8.942 8.942 0 0 1-.084-.247c-.034-.114-.06-.228-.088-.343-.02-.082-.042-.164-.057-.247-.024-.122-.04-.246-.058-.37-.01-.08-.025-.157-.033-.238 0-.012-.004-.024-.005-.037h-5.17v8.574H27.43v-8.572h-5.17c0 .013-.004.025-.005.037-.008.08-.022.159-.033.238-.017.125-.033.249-.057.37-.017.084-.04.165-.057.248-.028.114-.055.228-.088.343-.026.083-.058.164-.084.247a8.55 8.55 0 0 1-.115.317c-.034.082-.07.16-.108.24a5.839 5.839 0 0 1-.143.298c-.041.08-.086.155-.13.232-.057.094-.11.187-.171.278-.05.075-.1.148-.151.22-.063.088-.127.171-.194.258a6.884 6.884 0 0 1-.17.203z" fill="#3352A1"/><path d="M20.754 22.386a6.051 6.051 0 0 1-.643.644c-.067.057-.134.114-.204.171a5.9 5.9 0 0 1-.259.194 5.583 5.583 0 0 1-.218.152c-.091.057-.185.114-.279.171-.076.045-.151.09-.229.131a6.316 6.316 0 0 1-.3.145c-.078.036-.157.074-.237.107-.106.044-.215.08-.323.118-.08.028-.16.057-.242.084-.114.035-.233.062-.35.09-.08.02-.157.042-.237.058a6.254 6.254 0 0 1-.403.062c-.068.009-.135.022-.204.03a6.505 6.505 0 0 1-1.25 0c-.068-.008-.135-.021-.204-.03a6.226 6.226 0 0 1-.403-.062c-.08-.016-.157-.038-.236-.057a7.482 7.482 0 0 1-.35-.091c-.083-.025-.162-.057-.242-.084a5.185 5.185 0 0 1-.323-.118 5.594 5.594 0 0 1-.238-.107 6.316 6.316 0 0 1-.3-.145 5.006 5.006 0 0 1-.228-.13c-.095-.058-.188-.111-.28-.172a5.509 5.509 0 0 1-.218-.152 5.964 5.964 0 0 1-.26-.194l-.202-.171a5.68 5.68 0 0 1-.427-.406 6.051 6.051 0 0 1-.388-.443 6.968 6.968 0 0 1-.516-.756c-.044-.077-.088-.153-.13-.232a5.586 5.586 0 0 1-.143-.298c-.037-.08-.074-.158-.108-.24a4.894 4.894 0 0 1-.114-.318 8.942 8.942 0 0 1-.084-.247c-.034-.114-.06-.228-.088-.343-.02-.082-.042-.164-.057-.247-.024-.122-.04-.246-.058-.37-.01-.08-.025-.157-.033-.238 0-.012-.004-.024-.005-.037h-5.17v8.574H27.43v-8.572h-5.17c0 .013-.004.025-.005.037-.008.08-.022.159-.033.238-.017.125-.033.249-.057.37-.017.084-.04.165-.057.248-.028.114-.055.228-.088.343-.026.083-.058.164-.084.247a8.55 8.55 0 0 1-.115.317c-.034.082-.07.16-.108.24a5.839 5.839 0 0 1-.143.298c-.041.08-.086.155-.13.232-.057.094-.11.187-.171.278-.05.075-.1.148-.151.22-.063.088-.127.171-.194.258a6.884 6.884 0 0 1-.17.203z" fill="url(#c)"/><path d="M4 17.714h5.76c.005-.032.017-.071.022-.104.028-.163.066-.334.115-.511l.046-.175a9.44 9.44 0 0 1 .242-.723c.01-.027.025-.057.036-.086a13.814 13.814 0 0 1 .42-.96c.114-.24.24-.49.379-.75.021-.041.037-.077.06-.12H4a1.714 1.714 0 0 0 0 3.43z" fill="#3352A1"/><path d="M4 17.714h5.76c.005-.032.017-.071.022-.104.028-.163.066-.334.115-.511l.046-.175a9.44 9.44 0 0 1 .242-.723c.01-.027.025-.057.036-.086a13.814 13.814 0 0 1 .42-.96c.114-.24.24-.49.379-.75.021-.041.037-.077.06-.12H4a1.714 1.714 0 0 0 0 3.43z" fill="url(#d)"/><path d="M28 14.286h-7.077c.02.037.035.07.057.108a20.488 20.488 0 0 1 .493.996c.114.252.22.495.312.727.01.027.024.057.035.084.097.254.175.493.242.723.017.057.03.114.046.171.047.178.084.349.114.515.006.033.018.072.023.104H28a1.714 1.714 0 0 0 0-3.428z" fill="#3352A1"/><path d="M28 14.286h-7.077c.02.037.035.07.057.108a20.488 20.488 0 0 1 .493.996c.114.252.22.495.312.727.01.027.024.057.035.084.097.254.175.493.242.723.017.057.03.114.046.171.047.178.084.349.114.515.006.033.018.072.023.104H28a1.714 1.714 0 0 0 0-3.428z" fill="url(#e)"/><path d="M27.429 4.571H4.572v8.572h7.153l.085-.14.147-.242.177-.286.147-.233.185-.289.144-.223.187-.283.144-.217.183-.272.143-.209.182-.263c.047-.066.091-.132.137-.196.057-.085.117-.167.175-.248l.136-.191.16-.223.134-.185.146-.2.13-.176.13-.172.123-.165.102-.135.128-.171.072-.094.122-.16.061-.078.101-.13.028-.037c.124-.159.204-.26.22-.279a.59.59 0 0 1 .892 0c.016.02.096.12.22.279l.028.036.095.122.068.088.132.172.057.077.14.186.09.119.134.18.12.16.14.191.133.183.15.206.143.199.154.218.155.22c.052.073.105.149.158.228l.16.231.163.238.163.242.168.252.16.242.17.265.157.245.172.276.149.241c.057.097.114.193.175.29l.07.114h7.159V4.571z" fill="#3352A1"/><path d="M27.429 4.571H4.572v8.572h7.153l.085-.14.147-.242.177-.286.147-.233.185-.289.144-.223.187-.283.144-.217.183-.272.143-.209.182-.263c.047-.066.091-.132.137-.196.057-.085.117-.167.175-.248l.136-.191.16-.223.134-.185.146-.2.13-.176.13-.172.123-.165.102-.135.128-.171.072-.094.122-.16.061-.078.101-.13.028-.037c.124-.159.204-.26.22-.279a.59.59 0 0 1 .892 0c.016.02.096.12.22.279l.028.036.095.122.068.088.132.172.057.077.14.186.09.119.134.18.12.16.14.191.133.183.15.206.143.199.154.218.155.22c.052.073.105.149.158.228l.16.231.163.238.163.242.168.252.16.242.17.265.157.245.172.276.149.241c.057.097.114.193.175.29l.07.114h7.159V4.571z" fill="url(#f)"/><path d="M13.822 17.504l.41-3.613h3.985v1.176H15.39l-.176 1.529a2.238 2.238 0 0 1 1.07-.269c.676 0 1.207.21 1.591.63.384.42.576 1.008.576 1.763 0 .459-.098.87-.293 1.235a2.054 2.054 0 0 1-.83.845c-.361.198-.788.298-1.28.298a2.77 2.77 0 0 1-1.195-.26 2.158 2.158 0 0 1-.874-.736 2.014 2.014 0 0 1-.337-1.08h1.396c.03.297.132.528.308.694.179.163.412.244.698.244.319 0 .565-.114.737-.342.173-.231.259-.556.259-.976 0-.404-.1-.713-.298-.928-.198-.215-.48-.322-.845-.322-.335 0-.607.088-.815.263l-.137.127-1.123-.278z" fill="#3352A1"/><path d="M13.822 17.504l.41-3.613h3.985v1.176H15.39l-.176 1.529a2.238 2.238 0 0 1 1.07-.269c.676 0 1.207.21 1.591.63.384.42.576 1.008.576 1.763 0 .459-.098.87-.293 1.235a2.054 2.054 0 0 1-.83.845c-.361.198-.788.298-1.28.298a2.77 2.77 0 0 1-1.195-.26 2.158 2.158 0 0 1-.874-.736 2.014 2.014 0 0 1-.337-1.08h1.396c.03.297.132.528.308.694.179.163.412.244.698.244.319 0 .565-.114.737-.342.173-.231.259-.556.259-.976 0-.404-.1-.713-.298-.928-.198-.215-.48-.322-.845-.322-.335 0-.607.088-.815.263l-.137.127-1.123-.278z" fill="url(#g)"/><defs><linearGradient id="a" x1="16" y1="28.571" x2="16" y2="32" gradientUnits="userSpaceOnUse"><stop stop-color="#3352A1"/><stop offset="1" stop-color="#132450"/></linearGradient><linearGradient id="b" x1="16" x2="16" y2="3.429" gradientUnits="userSpaceOnUse"><stop stop-color="#3352A1"/><stop offset="1" stop-color="#132450"/></linearGradient><linearGradient id="c" x1="16" y1="18.855" x2="16" y2="27.429" gradientUnits="userSpaceOnUse"><stop stop-color="#3352A1"/><stop offset="1" stop-color="#132450"/></linearGradient><linearGradient id="d" x1="6.683" y1="14.286" x2="6.683" y2="17.714" gradientUnits="userSpaceOnUse"><stop stop-color="#3352A1"/><stop offset="1" stop-color="#132450"/></linearGradient><linearGradient id="e" x1="25.319" y1="14.286" x2="25.319" y2="17.714" gradientUnits="userSpaceOnUse"><stop stop-color="#3352A1"/><stop offset="1" stop-color="#132450"/></linearGradient><linearGradient id="f" x1="16" y1="4.571" x2="16" y2="13.146" gradientUnits="userSpaceOnUse"><stop stop-color="#3352A1"/><stop offset="1" stop-color="#132450"/></linearGradient><linearGradient id="g" x1="16" y1="12" x2="16" y2="24" gradientUnits="userSpaceOnUse"><stop stop-color="#3352A1"/><stop offset="1" stop-color="#132450"/></linearGradient></defs></svg>