<svg width="24" height="24" viewBox="0 0 24 24" fill="none" xmlns="http://www.w3.org/2000/svg"><path d="M16 2c1.103 0 2 .897 2 2v12c0 3.309-2.691 6-6 6s-6-2.691-6-6V4c0-1.103.897-2 2-2h8zm4 2a4 4 0 0 0-4-4H8a4 4 0 0 0-4 4v12a8 8 0 0 0 16 0V4zm-7 1a1 1 0 1 0-2 0v4a1 1 0 1 0 2 0V5z" fill="#001130"/><path d="M16 2c1.103 0 2 .897 2 2v12c0 3.309-2.691 6-6 6s-6-2.691-6-6V4c0-1.103.897-2 2-2h8zm4 2a4 4 0 0 0-4-4H8a4 4 0 0 0-4 4v12a8 8 0 0 0 16 0V4zm-7 1a1 1 0 1 0-2 0v4a1 1 0 1 0 2 0V5z" fill="url(#a)"/><defs><linearGradient id="a" x1="12" x2="12" y2="24" gradientUnits="userSpaceOnUse"><stop stop-color="#3352A1"/><stop offset="1" stop-color="#132450"/></linearGradient></defs></svg>