<svg width="600" height="600" viewBox="0 0 600 600" fill="none" xmlns="http://www.w3.org/2000/svg"><rect width="600" height="600" rx="5" fill="url(#a)"/><mask id="c" maskUnits="userSpaceOnUse" x="0" y="0" width="600" height="600"><rect width="600" height="600" rx="5" fill="url(#b)"/></mask><g mask="url(#c)"><path d="M482 474c50-12 110.667 8.667 138 38v102c-46 16-132.8 38.4-112 0 20.8-38.4-6-56-42-74s-34-54 16-66z" fill="#3352A1"/><path d="M600 567.306c-38.747-12.939-133.878-33.442-204.424-11.944-70.547 21.498-68.759 57.192-44.041 68.638" stroke="url(#d)"/><path d="M600 567.306c-38.747-12.939-133.878-33.442-204.424-11.944-70.547 21.498-68.759 57.192-44.041 68.638" stroke="url(#e)"/><path d="M-6.89 132.186C7.008 99.538 51.696 35.893 119.256 42.504c84.449 8.264 121.969-3.411 149.633-56.69" stroke="url(#f)"/><path d="M-6.89 132.186C7.008 99.538 51.696 35.893 119.256 42.504c84.449 8.264 121.969-3.411 149.633-56.69" stroke="url(#g)"/><path d="M-8 286c26.031-35.037 72.087-83.111 64.077-158.889C48.067 51.333 8.687 53.778-8 44" stroke="#3352A1"/><path d="M-8 286c26.031-35.037 72.087-83.111 64.077-158.889C48.067 51.333 8.687 53.778-8 44" stroke="url(#h)"/></g><defs><linearGradient id="a" x1="300" x2="300" y2="600" gradientUnits="userSpaceOnUse"><stop stop-color="#3352A1"/><stop offset="1" stop-color="#132450"/></linearGradient><linearGradient id="b" x1="300" x2="300" y2="600" gradientUnits="userSpaceOnUse"><stop stop-color="#3352A1"/><stop offset="1" stop-color="#132450"/></linearGradient><linearGradient id="d" x1="452.936" y1="538.205" x2="452.936" y2="616.571" gradientUnits="userSpaceOnUse"><stop stop-color="#3352A1"/><stop offset="1" stop-color="#132450"/></linearGradient><linearGradient id="e" x1="452.936" y1="538.205" x2="452.936" y2="616.571" gradientUnits="userSpaceOnUse"><stop stop-color="#BFD2FD"/><stop offset="1" stop-color="#B4CAFD"/></linearGradient><linearGradient id="f" x1="128.029" y1="-7.934" x2="133.971" y2="125.934" gradientUnits="userSpaceOnUse"><stop stop-color="#3352A1"/><stop offset="1" stop-color="#132450"/></linearGradient><linearGradient id="g" x1="128.029" y1="-7.934" x2="133.971" y2="125.934" gradientUnits="userSpaceOnUse"><stop stop-color="#BFD2FD"/><stop offset="1" stop-color="#B4CAFD"/></linearGradient><linearGradient id="h" x1="24.5" y1="44" x2="24.5" y2="286" gradientUnits="userSpaceOnUse"><stop stop-color="#FD676C"/><stop offset="1" stop-color="#FD5C62"/></linearGradient></defs></svg>