<svg width="600" height="600" viewBox="0 0 600 600" fill="none" xmlns="http://www.w3.org/2000/svg"><rect width="600" height="600" rx="5" fill="url(#a)"/><mask id="c" maskUnits="userSpaceOnUse" x="0" y="0" width="600" height="600"><rect width="600" height="600" rx="5" fill="url(#b)"/></mask><g mask="url(#c)"><path d="M496.342 506.775C568.684 539.55 596.178 474.951 618 444l-12 181.54c-45.282 7.198-151.669 11.01-170-23.54-22.914-43.187-12-128 60.342-95.225z" fill="#3352A1"/><path d="M506.342 516.775C578.684 549.55 606.177 484.951 628 454l-12 181.54c-45.282 7.198-151.669 11.01-170-23.54-22.914-43.187-12-128 60.342-95.225z" fill="#3352A1" stroke="url(#d)"/><path d="M514 605.901c-20.665-23.497-79.193-67.046-147.987-53.261-68.794 13.785-84.66 50.651-83.993 67.36" stroke="#3352A1"/><path d="M514 605.901c-20.665-23.497-79.193-67.046-147.987-53.261-68.794 13.785-84.66 50.651-83.993 67.36" stroke="url(#e)"/><path d="M256-27c11.333 28.667 13.6 90.4-68 108C86 103 10 91-4 197" stroke="url(#f)"/><path d="M256-27c11.333 28.667 13.6 90.4-68 108C86 103 10 91-4 197" stroke="url(#g)"/><path d="M60-16C79.333 9.333 190.4 58.4 256 44c82-18 138-76 208-50" stroke="#3352A1"/><path d="M60-16C79.333 9.333 190.4 58.4 256 44c82-18 138-76 208-50" stroke="url(#h)"/></g><defs><linearGradient id="a" x1="300" x2="300" y2="600" gradientUnits="userSpaceOnUse"><stop stop-color="#3352A1"/><stop offset="1" stop-color="#132450"/></linearGradient><linearGradient id="b" x1="300" x2="300" y2="600" gradientUnits="userSpaceOnUse"><stop stop-color="#3352A1"/><stop offset="1" stop-color="#132450"/></linearGradient><linearGradient id="d" x1="531.628" y1="454" x2="531.628" y2="640.368" gradientUnits="userSpaceOnUse"><stop stop-color="#BFD2FD"/><stop offset="1" stop-color="#B4CAFD"/></linearGradient><linearGradient id="e" x1="398" y1="550" x2="398" y2="620" gradientUnits="userSpaceOnUse"><stop stop-color="#FD676C"/><stop offset="1" stop-color="#FD5C62"/></linearGradient><linearGradient id="f" x1="128.875" y1="-27" x2="128.875" y2="197" gradientUnits="userSpaceOnUse"><stop stop-color="#3352A1"/><stop offset="1" stop-color="#132450"/></linearGradient><linearGradient id="g" x1="128.875" y1="-27" x2="128.875" y2="197" gradientUnits="userSpaceOnUse"><stop stop-color="#BFD2FD"/><stop offset="1" stop-color="#B4CAFD"/></linearGradient><linearGradient id="h" x1="262" y1="-16" x2="262" y2="46.596" gradientUnits="userSpaceOnUse"><stop stop-color="#FD676C"/><stop offset="1" stop-color="#FD5C62"/></linearGradient></defs></svg>