<svg width="600" height="600" viewBox="0 0 600 600" fill="none" xmlns="http://www.w3.org/2000/svg"><rect width="600" height="600" rx="5" fill="#E9FAF6"/><rect width="600" height="600" rx="5" fill="url(#a)"/><mask id="c" maskUnits="userSpaceOnUse" x="0" y="0" width="600" height="600"><rect width="600" height="600" rx="5" fill="#E9FAF6"/><rect width="600" height="600" rx="5" fill="url(#b)"/></mask><g mask="url(#c)"><path d="M520.5 112.5C599.951 133.142 619 71 623 41s-10.993-58.094-10.993-58.094c-58.63-5.27-187.385-28.11-111.931 14.054C575.53 39.122 441.049 91.858 520.5 112.5z" fill="#BFD2FD"/><path d="M520.5 112.5C599.951 133.142 619 71 623 41s-10.993-58.094-10.993-58.094c-58.63-5.27-187.385-28.11-111.931 14.054C575.53 39.122 441.049 91.858 520.5 112.5z" fill="url(#d)"/><path d="M632.504 30.934c-1.995 14.963-7.738 37.877-22.83 54.47-7.538 8.289-17.41 15.003-30.328 18.367-12.922 3.366-28.921 3.389-48.72-1.755-9.902-2.572-16.405-5.63-20.394-9.057-3.965-3.407-5.454-7.182-5.331-11.276.124-4.132 1.892-8.635 4.554-13.453 2.374-4.297 5.431-8.795 8.599-13.458l1.149-1.691c7.111-10.492 14.456-21.795 15.222-33.15.385-5.703-.888-11.413-4.651-17.027-3.757-5.603-9.979-11.086-19.454-16.38-9.424-5.267-15.62-9.497-19.159-12.852-1.771-1.68-2.843-3.11-3.336-4.308-.484-1.176-.404-2.098.084-2.859.51-.794 1.515-1.497 3.061-2.082 1.535-.58 3.542-1.021 5.968-1.332 4.85-.623 11.291-.72 18.804-.446 18.953.691 44.534 3.735 68.215 6.553 13.782 1.64 26.92 3.203 37.733 4.18l.04.078c.107.21.265.524.464.934.399.82.966 2.029 1.635 3.573a119.848 119.848 0 0 1 4.696 12.884c3.237 10.736 5.967 25.183 3.979 40.087z" fill="#BFD2FD"/><path d="M632.504 30.934c-1.995 14.963-7.738 37.877-22.83 54.47-7.538 8.289-17.41 15.003-30.328 18.367-12.922 3.366-28.921 3.389-48.72-1.755-9.902-2.572-16.405-5.63-20.394-9.057-3.965-3.407-5.454-7.182-5.331-11.276.124-4.132 1.892-8.635 4.554-13.453 2.374-4.297 5.431-8.795 8.599-13.458l1.149-1.691c7.111-10.492 14.456-21.795 15.222-33.15.385-5.703-.888-11.413-4.651-17.027-3.757-5.603-9.979-11.086-19.454-16.38-9.424-5.267-15.62-9.497-19.159-12.852-1.771-1.68-2.843-3.11-3.336-4.308-.484-1.176-.404-2.098.084-2.859.51-.794 1.515-1.497 3.061-2.082 1.535-.58 3.542-1.021 5.968-1.332 4.85-.623 11.291-.72 18.804-.446 18.953.691 44.534 3.735 68.215 6.553 13.782 1.64 26.92 3.203 37.733 4.18l.04.078c.107.21.265.524.464.934.399.82.966 2.029 1.635 3.573a119.848 119.848 0 0 1 4.696 12.884c3.237 10.736 5.967 25.183 3.979 40.087z" fill="url(#e)"/><path d="M632.504 30.934c-1.995 14.963-7.738 37.877-22.83 54.47-7.538 8.289-17.41 15.003-30.328 18.367-12.922 3.366-28.921 3.389-48.72-1.755-9.902-2.572-16.405-5.63-20.394-9.057-3.965-3.407-5.454-7.182-5.331-11.276.124-4.132 1.892-8.635 4.554-13.453 2.374-4.297 5.431-8.795 8.599-13.458l1.149-1.691c7.111-10.492 14.456-21.795 15.222-33.15.385-5.703-.888-11.413-4.651-17.027-3.757-5.603-9.979-11.086-19.454-16.38-9.424-5.267-15.62-9.497-19.159-12.852-1.771-1.68-2.843-3.11-3.336-4.308-.484-1.176-.404-2.098.084-2.859.51-.794 1.515-1.497 3.061-2.082 1.535-.58 3.542-1.021 5.968-1.332 4.85-.623 11.291-.72 18.804-.446 18.953.691 44.534 3.735 68.215 6.553 13.782 1.64 26.92 3.203 37.733 4.18l.04.078c.107.21.265.524.464.934.399.82.966 2.029 1.635 3.573a119.848 119.848 0 0 1 4.696 12.884c3.237 10.736 5.967 25.183 3.979 40.087z" stroke="url(#f)"/><path d="M48-6C66 37.333 81.6 140.4 0 206" stroke="url(#g)"/><path d="M-8.874 76.19C5.507 55.455 51.04 24.945 118.12 68.774c83.848 54.785 183.163-12.308 185.276-86.629" stroke="#3352A1"/><path d="M-8.874 76.19C5.507 55.455 51.04 24.945 118.12 68.774c83.848 54.785 183.163-12.308 185.276-86.629" stroke="url(#h)"/></g><defs><linearGradient id="a" x1="300" x2="300" y2="600" gradientUnits="userSpaceOnUse"><stop stop-color="#E9FAF6"/><stop offset="1" stop-color="#E9F7FA"/></linearGradient><linearGradient id="b" x1="300" x2="300" y2="600" gradientUnits="userSpaceOnUse"><stop stop-color="#E9FAF6"/><stop offset="1" stop-color="#E9F7FA"/></linearGradient><linearGradient id="d" x1="549.194" y1="-21.31" x2="549.194" y2="108.851" gradientUnits="userSpaceOnUse"><stop stop-color="#BFD2FD"/><stop offset="1" stop-color="#B4CAFD"/></linearGradient><linearGradient id="e" x1="559.194" y1="-31.31" x2="559.194" y2="98.851" gradientUnits="userSpaceOnUse"><stop stop-color="#BFD2FD"/><stop offset="1" stop-color="#B4CAFD"/></linearGradient><linearGradient id="f" x1="560.339" y1="-38" x2="560.339" y2="106.618" gradientUnits="userSpaceOnUse"><stop stop-color="#3352A1"/><stop offset="1" stop-color="#132450"/></linearGradient><linearGradient id="g" x1="31.198" y1="-6" x2="31.198" y2="206" gradientUnits="userSpaceOnUse"><stop stop-color="#3352A1"/><stop offset="1" stop-color="#132450"/></linearGradient><linearGradient id="h" x1="145.055" y1="-8.609" x2="150.866" y2="90.915" gradientUnits="userSpaceOnUse"><stop stop-color="#FD676C"/><stop offset="1" stop-color="#FD5C62"/></linearGradient></defs></svg>