<svg width="32" height="33" viewBox="0 0 32 33" fill="none" xmlns="http://www.w3.org/2000/svg"><g clip-path="url(#a)"><path d="M.352 10.87c-.014.178.068.307.163.443.068.103.15.218.164.334.02.191.122.239.279.273.177.04.32.136.368.327.048.177.143.225.32.156.347-.129.695-.272 1.042-.408-.006.04-.02.102-.027.163-.027.245-.068.49-.061.73.007.251.163.408.395.408.45 0 .892-.007 1.342-.02a.747.747 0 0 0 .559-.26c.02-.02.047-.054.068-.047.265.048.409-.136.572-.293.184-.177.395-.3.668-.293.17.007.347-.048.545-.075 0 0 .027.034.047.075.096.15.137.286.02.456-.054.089-.026.232-.033.355-.007.088.013.19-.014.272a.509.509 0 0 0 .007.375c.15.327.381.586.654.81.15.123.313.164.504.13.061-.007.136.027.198.061.081.048.143.143.224.164a.522.522 0 0 1 .28.177c.102.123.231.204.395.177.123-.02.177.014.211.136.075.26.232.334.497.273a.41.41 0 0 1 .253.034c.17.075.326.177.49.252.109.048.164.116.177.225.02.156.034.306.034.463-.007.211.02.43-.163.6-.027.02-.041.075-.041.109.02.177.054.347.197.47.239.204.518.327.832.354.136.014.279 0 .422.007.184.007.245.095.197.265-.013.041-.027.089-.047.13-.177.36-.068.6.306.715.075.027.184.11.184.164.014.286.137.592-.088.858a.197.197 0 0 0-.062.102c-.013.075-.04.17-.013.232.034.075.034.116-.014.177a.826.826 0 0 0-.184.45c-.02.36-.068.722-.095 1.083-.014.177-.02.361-.014.538.007.15.089.28.239.314.204.04.415.068.62.068.552 0 .96.49.865 1.035-.027.143-.02.3-.014.45.007.19.068.231.26.197.088-.013.176-.04.265-.047.218-.014.374.122.347.34a3.303 3.303 0 0 1-.156.73c-.089.258-.11.251.115.408a.632.632 0 0 1 .28.64c-.02.177-.068.348-.075.525-.007.272-.191.415-.395.483-.552.17-.975.518-1.383.893-.252.232-.47.49-.702.743-.13.136-.136.224-.034.388a.931.931 0 0 0 .088.136c.164.211.375.389.307.709-.027.129.068.19.198.15a.44.44 0 0 0 .15-.075c.108-.075.197-.035.265.047.266.334.566.62.9.872.15.11.265.252.292.436.02.157.116.17.239.157.116-.014.225-.048.347-.075.075.157.191.177.3.04a.506.506 0 0 0 .116-.203c.075-.307.218-.56.45-.777.224-.211.422-.45.64-.688.013.013.04.027.061.047.17.178.368.164.497-.04.075-.123.15-.246.212-.382.109-.232.265-.402.47-.552.143-.109.265-.245.367-.388.164-.239.218-.531.253-.81.034-.246.047-.498.075-.743.006-.096.027-.191.04-.28.048-.306.307-.545.266-.885.068.034.116.068.17.095.096.04.17.027.218-.082.103-.245.32-.36.552-.429.184-.061.34-.143.49-.266.171-.143.348-.279.6-.265.368.013.709-.075.968-.361.224-.246.463-.287.75-.123.183.102.387.116.599.088.408-.06.763-.238 1.096-.47.26-.183.491-.395.627-.694a.784.784 0 0 1 .436-.436.533.533 0 0 0 .184-.103c.266-.32.532-.647.79-.98.13-.17.069-.375.082-.566.007-.177.027-.368.184-.47.273-.184.409-.45.518-.736.048-.116.048-.252.068-.375-.007-.02.04-.034.048-.054.027-.082.047-.17.061-.259.048-.245.095-.484.136-.729.048-.293.089-.586.13-.879.04-.272.054-.545.109-.817.034-.19.143-.361.34-.423.64-.218 1.084-.633 1.274-1.28.096-.314.28-.464.586-.518.348-.061.668-.184.872-.497.055-.089.089-.191.157-.266.177-.19.368-.368.552-.552.436-.43.6-.933.45-1.533-.055-.204-.082-.409-.116-.62-.028-.17-.014-.354-.062-.518-.109-.36-.313-.647-.729-.715-.115-.02-.224-.054-.34-.068a.974.974 0 0 1-.62-.34 24.096 24.096 0 0 1-.79-1.07c-.164-.232-.287-.484-.62-.511-.041 0-.09-.061-.116-.11a.744.744 0 0 0-.607-.387c-.143-.014-.3-.028-.429.013-.374.123-.715.014-1.049-.116a.955.955 0 0 1-.368-.238.696.696 0 0 0-.436-.211c-.313-.048-.606.04-.892.15-.143.054-.293.109-.457.163.075-.293.143-.558.218-.824.034-.13.02-.198-.116-.252a4.888 4.888 0 0 1-.585-.32c-.096-.062-.17-.15-.273-.212-.361-.218-.756-.34-1.172-.422-.463-.089-.899-.02-1.28.28-.191.15-.382.292-.566.429a1 1 0 0 0-.259-.362.805.805 0 0 0 .211-.054c.137-.055.273-.116.389-.198.204-.156.409-.32.592-.504.11-.109.082-.197-.06-.265a2.842 2.842 0 0 0-1.254-.266c-.205 0-.375.082-.532.177-.163.102-.306.225-.477.32-.136.075-.279.15-.483.102.06-.13.095-.258.17-.36a3.46 3.46 0 0 1 1.145-1.009c.129-.068.238-.157.21-.327-.02-.123.028-.204.123-.272.075-.055.143-.116.239-.198-.089-.048-.143-.089-.211-.109-.13-.048-.28-.068-.402-.13-.082-.04-.164-.122-.184-.204-.041-.157-.028-.327-.068-.49-.082-.375-.184-.75-.273-1.09-.17-.116-.28-.048-.375.06-.095.103-.204.192-.293.3-.04.055-.075.137-.06.205.026.204.026.239-.164.286a.456.456 0 0 0-.327.3c-.041.109-.123.163-.232.19-.306.076-.606.055-.913.014-.231-.034-.443-.088-.579-.3-.027-.047-.095-.081-.143-.088-.197-.034-.395-.054-.593-.089-.143-.027-.225.02-.306.143-.143.232-.484.491-.859.341-.238-.095-.49-.061-.735.02-.232.076-.47.13-.709.17a.516.516 0 0 1-.477-.122 1.604 1.604 0 0 1-.51-1.015c-.042-.334.088-.62.258-.885.184-.28.177-.314-.075-.511-.122-.096-.17-.205-.136-.355.014-.061.054-.122.04-.17-.013-.075-.047-.17-.101-.198-.157-.081-.28-.034-.402.137-.17.225-.32.477-.627.524-.218.034-.443.055-.668.075-.054.007-.109-.013-.163-.007-.17.007-.26.123-.34.252-.144.239-.205.246-.41.055-.02-.014-.034-.04-.054-.048-.184-.095-.361-.19-.545-.265-.048-.02-.15.027-.184.075-.123.17-.123.367-.075.565.068.259.19.456.456.58.232.108.218.387 0 .51-.068.04-.15.061-.218.102-.463.266-.926.532-1.39.804a.276.276 0 0 1-.279.02c-.177-.081-.347-.088-.51.035-.021.02-.082.02-.11 0-.21-.143-.381-.314-.429-.586-.04-.239-.156-.416-.415-.477-.177-.041-.334 0-.498.054a1.524 1.524 0 0 1-.701.048 1.883 1.883 0 0 0-.518 0c-.116.014-.19.109-.205.232-.013.13.069.204.178.252.075.034.156.054.21.109.055.047.103.13.103.19 0 .048-.075.116-.13.137a.863.863 0 0 1-.265.034c-.32.013-.47.211-.34.504.081.184.197.361.326.518.239.306.266.592.048.906-.123.177-.239.36-.17.6.013.047-.007.108-.034.156a1.425 1.425 0 0 0-.157.654c0 .054-.02.116-.041.17-.034.123-.095.246-.102.368-.02.3-.15.409-.43.32-.265-.088-.497-.047-.735.082-.082.041-.184.048-.28.055-.109 0-.218-.02-.333-.034-.028.15-.13.21-.266.231a.227.227 0 0 0-.089.048c-.436.3-.592.763-.708 1.247-.034.129-.041.252-.198.327-.102.047-.19.156-.259.258-.17.252-.163.436.028.675.122.061.19.184.177.34z" fill="url(#b)"/><path d="M.352 10.87c-.014.178.068.307.163.443.068.103.15.218.164.334.02.191.122.239.279.273.177.04.32.136.368.327.048.177.143.225.32.156.347-.129.695-.272 1.042-.408-.006.04-.02.102-.027.163-.027.245-.068.49-.061.73.007.251.163.408.395.408.45 0 .892-.007 1.342-.02a.747.747 0 0 0 .559-.26c.02-.02.047-.054.068-.047.265.048.409-.136.572-.293.184-.177.395-.3.668-.293.17.007.347-.048.545-.075 0 0 .027.034.047.075.096.15.137.286.02.456-.054.089-.026.232-.033.355-.007.088.013.19-.014.272a.509.509 0 0 0 .007.375c.15.327.381.586.654.81.15.123.313.164.504.13.061-.007.136.027.198.061.081.048.143.143.224.164a.522.522 0 0 1 .28.177c.102.123.231.204.395.177.123-.02.177.014.211.136.075.26.232.334.497.273a.41.41 0 0 1 .253.034c.17.075.326.177.49.252.109.048.164.116.177.225.02.156.034.306.034.463-.007.211.02.43-.163.6-.027.02-.041.075-.041.109.02.177.054.347.197.47.239.204.518.327.832.354.136.014.279 0 .422.007.184.007.245.095.197.265-.013.041-.027.089-.047.13-.177.36-.068.6.306.715.075.027.184.11.184.164.014.286.137.592-.088.858a.197.197 0 0 0-.062.102c-.013.075-.04.17-.013.232.034.075.034.116-.014.177a.826.826 0 0 0-.184.45c-.02.36-.068.722-.095 1.083-.014.177-.02.361-.014.538.007.15.089.28.239.314.204.04.415.068.62.068.552 0 .96.49.865 1.035-.027.143-.02.3-.014.45.007.19.068.231.26.197.088-.013.176-.04.265-.047.218-.014.374.122.347.34a3.303 3.303 0 0 1-.156.73c-.089.258-.11.251.115.408a.632.632 0 0 1 .28.64c-.02.177-.068.348-.075.525-.007.272-.191.415-.395.483-.552.17-.975.518-1.383.893-.252.232-.47.49-.702.743-.13.136-.136.224-.034.388a.931.931 0 0 0 .088.136c.164.211.375.389.307.709-.027.129.068.19.198.15a.44.44 0 0 0 .15-.075c.108-.075.197-.035.265.047.266.334.566.62.9.872.15.11.265.252.292.436.02.157.116.17.239.157.116-.014.225-.048.347-.075.075.157.191.177.3.04a.506.506 0 0 0 .116-.203c.075-.307.218-.56.45-.777.224-.211.422-.45.64-.688.013.013.04.027.061.047.17.178.368.164.497-.04.075-.123.15-.246.212-.382.109-.232.265-.402.47-.552.143-.109.265-.245.367-.388.164-.239.218-.531.253-.81.034-.246.047-.498.075-.743.006-.096.027-.191.04-.28.048-.306.307-.545.266-.885.068.034.116.068.17.095.096.04.17.027.218-.082.103-.245.32-.36.552-.429.184-.061.34-.143.49-.266.171-.143.348-.279.6-.265.368.013.709-.075.968-.361.224-.246.463-.287.75-.123.183.102.387.116.599.088.408-.06.763-.238 1.096-.47.26-.183.491-.395.627-.694a.784.784 0 0 1 .436-.436.533.533 0 0 0 .184-.103c.266-.32.532-.647.79-.98.13-.17.069-.375.082-.566.007-.177.027-.368.184-.47.273-.184.409-.45.518-.736.048-.116.048-.252.068-.375-.007-.02.04-.034.048-.054.027-.082.047-.17.061-.259.048-.245.095-.484.136-.729.048-.293.089-.586.13-.879.04-.272.054-.545.109-.817.034-.19.143-.361.34-.423.64-.218 1.084-.633 1.274-1.28.096-.314.28-.464.586-.518.348-.061.668-.184.872-.497.055-.089.089-.191.157-.266.177-.19.368-.368.552-.552.436-.43.6-.933.45-1.533-.055-.204-.082-.409-.116-.62-.028-.17-.014-.354-.062-.518-.109-.36-.313-.647-.729-.715-.115-.02-.224-.054-.34-.068a.974.974 0 0 1-.62-.34 24.096 24.096 0 0 1-.79-1.07c-.164-.232-.287-.484-.62-.511-.041 0-.09-.061-.116-.11a.744.744 0 0 0-.607-.387c-.143-.014-.3-.028-.429.013-.374.123-.715.014-1.049-.116a.955.955 0 0 1-.368-.238.696.696 0 0 0-.436-.211c-.313-.048-.606.04-.892.15-.143.054-.293.109-.457.163.075-.293.143-.558.218-.824.034-.13.02-.198-.116-.252a4.888 4.888 0 0 1-.585-.32c-.096-.062-.17-.15-.273-.212-.361-.218-.756-.34-1.172-.422-.463-.089-.899-.02-1.28.28-.191.15-.382.292-.566.429a1 1 0 0 0-.259-.362.805.805 0 0 0 .211-.054c.137-.055.273-.116.389-.198.204-.156.409-.32.592-.504.11-.109.082-.197-.06-.265a2.842 2.842 0 0 0-1.254-.266c-.205 0-.375.082-.532.177-.163.102-.306.225-.477.32-.136.075-.279.15-.483.102.06-.13.095-.258.17-.36a3.46 3.46 0 0 1 1.145-1.009c.129-.068.238-.157.21-.327-.02-.123.028-.204.123-.272.075-.055.143-.116.239-.198-.089-.048-.143-.089-.211-.109-.13-.048-.28-.068-.402-.13-.082-.04-.164-.122-.184-.204-.041-.157-.028-.327-.068-.49-.082-.375-.184-.75-.273-1.09-.17-.116-.28-.048-.375.06-.095.103-.204.192-.293.3-.04.055-.075.137-.06.205.026.204.026.239-.164.286a.456.456 0 0 0-.327.3c-.041.109-.123.163-.232.19-.306.076-.606.055-.913.014-.231-.034-.443-.088-.579-.3-.027-.047-.095-.081-.143-.088-.197-.034-.395-.054-.593-.089-.143-.027-.225.02-.306.143-.143.232-.484.491-.859.341-.238-.095-.49-.061-.735.02-.232.076-.47.13-.709.17a.516.516 0 0 1-.477-.122 1.604 1.604 0 0 1-.51-1.015c-.042-.334.088-.62.258-.885.184-.28.177-.314-.075-.511-.122-.096-.17-.205-.136-.355.014-.061.054-.122.04-.17-.013-.075-.047-.17-.101-.198-.157-.081-.28-.034-.402.137-.17.225-.32.477-.627.524-.218.034-.443.055-.668.075-.054.007-.109-.013-.163-.007-.17.007-.26.123-.34.252-.144.239-.205.246-.41.055-.02-.014-.034-.04-.054-.048-.184-.095-.361-.19-.545-.265-.048-.02-.15.027-.184.075-.123.17-.123.367-.075.565.068.259.19.456.456.58.232.108.218.387 0 .51-.068.04-.15.061-.218.102-.463.266-.926.532-1.39.804a.276.276 0 0 1-.279.02c-.177-.081-.347-.088-.51.035-.021.02-.082.02-.11 0-.21-.143-.381-.314-.429-.586-.04-.239-.156-.416-.415-.477-.177-.041-.334 0-.498.054a1.524 1.524 0 0 1-.701.048 1.883 1.883 0 0 0-.518 0c-.116.014-.19.109-.205.232-.013.13.069.204.178.252.075.034.156.054.21.109.055.047.103.13.103.19 0 .048-.075.116-.13.137a.863.863 0 0 1-.265.034c-.32.013-.47.211-.34.504.081.184.197.361.326.518.239.306.266.592.048.906-.123.177-.239.36-.17.6.013.047-.007.108-.034.156a1.425 1.425 0 0 0-.157.654c0 .054-.02.116-.041.17-.034.123-.095.246-.102.368-.02.3-.15.409-.43.32-.265-.088-.497-.047-.735.082-.082.041-.184.048-.28.055-.109 0-.218-.02-.333-.034-.028.15-.13.21-.266.231a.227.227 0 0 0-.089.048c-.436.3-.592.763-.708 1.247-.034.129-.041.252-.198.327-.102.047-.19.156-.259.258-.17.252-.163.436.028.675.122.061.19.184.177.34z" fill="url(#c)"/></g><defs><linearGradient id="b" x1="16.001" x2="16.001" y2="32.653" gradientUnits="userSpaceOnUse"><stop stop-color="#3352A1"/><stop offset="1" stop-color="#132450"/></linearGradient><linearGradient id="c" x1="16.001" x2="16.001" y2="32.653" gradientUnits="userSpaceOnUse"><stop stop-color="#FD676C"/><stop offset="1" stop-color="#FD5C62"/></linearGradient><clipPath id="a"><path fill="#fff" d="M0 0h32v32.653H0z"/></clipPath></defs></svg>