<svg width="64" height="64" viewBox="0 0 64 64" fill="none" xmlns="http://www.w3.org/2000/svg"><g clip-path="url(#a)"><path d="M33.875 37.5h7.5v19h-7.5v-19z" fill="url(#b)"/><path d="M22.625 37.5h7.5v19h-7.5v-19z" fill="url(#c)"/><path d="M32 22.5a1.876 1.876 0 0 0 0 3.75 1.876 1.876 0 0 0 0-3.75z" fill="url(#d)"/><path d="M62.125 52.75H56.5V32.625L32 13.669 7.625 32.529V52.75h-5.75a1.874 1.874 0 1 0 0 3.75h17V35.625c0-1.036.839-1.875 1.875-1.875h22.5c1.036 0 1.875.839 1.875 1.875V56.5h17a1.874 1.874 0 1 0 0-3.75zM32 30a5.632 5.632 0 0 1-5.625-5.625A5.632 5.632 0 0 1 32 18.75a5.632 5.632 0 0 1 5.625 5.625A5.632 5.632 0 0 1 32 30z" fill="url(#e)"/><path d="M63.23 23.608L33.108.359a1.885 1.885 0 0 0-2.216 0L.769 23.609a1.876 1.876 0 0 0-.394 2.64l2.252 3.001c.62.823 1.777.99 2.604.39L32 8.926 58.77 29.64a1.874 1.874 0 0 0 2.602-.39l2.252-3c.62-.828.46-2.015-.394-2.641z" fill="url(#f)"/><path d="M9.5 3.75c-1.036 0-1.875.84-1.875 1.875v8.054c2.384-1.854 4.97-3.868 7.449-5.8l.051-.04V5.625c0-1.036-.84-1.875-1.875-1.875H9.5z" fill="url(#g)"/><path d="M15.323 61.286A1.875 1.875 0 0 0 17 64h30a1.875 1.875 0 0 0 1.677-2.714l-.518-1.036H15.841l-.518 1.036z" fill="url(#h)"/></g><defs><linearGradient id="b" x1="37.625" y1="37.5" x2="37.625" y2="56.5" gradientUnits="userSpaceOnUse"><stop stop-color="#3352A1"/><stop offset="1" stop-color="#132450"/></linearGradient><linearGradient id="c" x1="26.375" y1="37.5" x2="26.375" y2="56.5" gradientUnits="userSpaceOnUse"><stop stop-color="#3352A1"/><stop offset="1" stop-color="#132450"/></linearGradient><linearGradient id="d" x1="32" y1="22.5" x2="32" y2="26.25" gradientUnits="userSpaceOnUse"><stop stop-color="#3352A1"/><stop offset="1" stop-color="#132450"/></linearGradient><linearGradient id="e" x1="32" y1="13.668" x2="32" y2="56.5" gradientUnits="userSpaceOnUse"><stop stop-color="#3352A1"/><stop offset="1" stop-color="#132450"/></linearGradient><linearGradient id="f" x1="32" y1="-.001" x2="32" y2="29.999" gradientUnits="userSpaceOnUse"><stop stop-color="#3352A1"/><stop offset="1" stop-color="#132450"/></linearGradient><linearGradient id="g" x1="11.375" y1="3.75" x2="11.375" y2="13.679" gradientUnits="userSpaceOnUse"><stop stop-color="#3352A1"/><stop offset="1" stop-color="#132450"/></linearGradient><linearGradient id="h" x1="32" y1="60.25" x2="32" y2="64" gradientUnits="userSpaceOnUse"><stop stop-color="#3352A1"/><stop offset="1" stop-color="#132450"/></linearGradient><clipPath id="a"><path fill="#fff" d="M0 0h64v64H0z"/></clipPath></defs></svg>