<svg width="64" height="64" viewBox="0 0 64 64" fill="none" xmlns="http://www.w3.org/2000/svg"><g clip-path="url(#a)"><path d="M.267 58.193a2.32 2.32 0 1 0 4.107 2.16c.022-.042 4.346-4.198 25.889-4.198 23.33 0 29.714 5.86 29.742 5.884a2.316 2.316 0 0 0 1.674.713 2.322 2.322 0 0 0 1.676-3.927c-.37-.384-2.405-2.294-7.71-4.068a2.654 2.654 0 0 0 .775-1.878v-12.52h2.11c1.166 0 1.364-.93.441-2.078L47.96 24.571c-.92-1.148-2.404-1.14-3.312.018l-.492.628a3.104 3.104 0 0 1-1.88 5.531l-.223.005 6.685 7.32a3.11 3.11 0 0 1 .548 3.351 3.115 3.115 0 0 1-2.845 1.855h-8.057v8.486c-.439-.028-.878-.056-1.333-.08v-9.728h9.39a1.777 1.777 0 0 0 1.311-2.975l-8.667-9.495 3.166-.059a1.777 1.777 0 0 0 1.028-3.2l-3.827-2.848h.408c.947.012 1.785-.793 1.785-1.776 0-.467-.179-.891-.473-1.208l-4.459-6.25h.447c.975-.033 1.785-.793 1.785-1.776 0-.484-.193-.922-.506-1.244l-6.957-9.173c-.34-.451-.842-.736-1.444-.703a1.776 1.776 0 0 0-1.422.75L22.2 11.073a1.775 1.775 0 0 0 1.202 2.784l-4.757 6.6a1.763 1.763 0 0 0-.24 1.564 3.956 3.956 0 0 1 2.176 1.251l.466.56 4.895 6.094.907-1.21a1.776 1.776 0 0 0-1.42-2.842H23.98l2.79-3.216a1.777 1.777 0 0 0-1.343-2.94h-1.87l4.742-6.58a1.774 1.774 0 0 0-1.226-2.802l3.043-4.301 3.457 4.56h-.31a1.775 1.775 0 1 0-1.446 2.808l4.583 6.426h-2.312a1.779 1.779 0 0 0-1.06 3.203l3.958 2.945-1.894.036a1.775 1.775 0 0 0-1.6 1.074 1.781 1.781 0 0 0 .32 1.9l8.6 9.421h-7.14c-.98 0-1.776.796-1.776 1.776v11.377c-.87-.021-1.76-.034-2.68-.038v-9.485a3.424 3.424 0 0 1-.873.114h-.334v9.371c-.445.002-.89.004-1.32.008V40.365h2.11c1.165 0 1.362-.93.44-2.077l-11.01-13.716c-.922-1.15-2.405-1.14-3.313.018L5.785 38.264c-.906 1.157-.7 2.096.466 2.096h2.11v12.52c0 .263.05.512.12.752C2.464 55.228.74 57.293.267 58.192zm18.868-17.685h3.21v4.716h-3.21v-4.716zm0 6.814h3.21v4.395c-1.128.063-2.194.137-3.21.222v-4.617zm-5.307-6.814h3.21v4.716h-3.21v-4.716zm0 6.814h3.21v4.716h-3.21v-4.716z" fill="url(#b)"/></g><defs><linearGradient id="b" x1="32" y1="1.247" x2="32" y2="62.752" gradientUnits="userSpaceOnUse"><stop stop-color="#3352A1"/><stop offset="1" stop-color="#132450"/></linearGradient><clipPath id="a"><path fill="#fff" d="M0 0h64v64H0z"/></clipPath></defs></svg>