<svg width="32" height="32" viewBox="0 0 32 32" fill="none" xmlns="http://www.w3.org/2000/svg"><g clip-path="url(#a)"><path d="M31.283 25.29l-4.942-4.943c-.985-.98-2.615-.95-3.633.068l-2.49 2.49-.491-.274c-1.573-.87-3.724-2.065-5.989-4.331-2.271-2.27-3.466-4.426-4.34-6-.092-.166-.18-.327-.268-.48l1.671-1.668.822-.822c1.02-1.02 1.048-2.65.066-3.634L6.747.753c-.982-.982-2.613-.952-3.633.069l-1.393 1.4.038.038A8.054 8.054 0 0 0 .612 4.285 8.393 8.393 0 0 0 .1 6.338c-.653 5.41 1.82 10.354 8.528 17.063 9.274 9.273 16.748 8.573 17.07 8.538a8.348 8.348 0 0 0 2.06-.517 8.026 8.026 0 0 0 2.016-1.143l.03.027 1.412-1.381c1.018-1.02 1.047-2.65.066-3.636z" fill="url(#b)"/><path d="M31.283 25.29l-4.942-4.943c-.985-.98-2.615-.95-3.633.068l-2.49 2.49-.491-.274c-1.573-.87-3.724-2.065-5.989-4.331-2.271-2.27-3.466-4.426-4.34-6-.092-.166-.18-.327-.268-.48l1.671-1.668.822-.822c1.02-1.02 1.048-2.65.066-3.634L6.747.753c-.982-.982-2.613-.952-3.633.069l-1.393 1.4.038.038A8.054 8.054 0 0 0 .612 4.285 8.393 8.393 0 0 0 .1 6.338c-.653 5.41 1.82 10.354 8.528 17.063 9.274 9.273 16.748 8.573 17.07 8.538a8.348 8.348 0 0 0 2.06-.517 8.026 8.026 0 0 0 2.016-1.143l.03.027 1.412-1.381c1.018-1.02 1.047-2.65.066-3.636z" fill="url(#c)"/></g><defs><linearGradient id="b" x1="16" y1=".036" x2="16" y2="31.964" gradientUnits="userSpaceOnUse"><stop stop-color="#3352A1"/><stop offset="1" stop-color="#132450"/></linearGradient><linearGradient id="c" x1="16" y1=".036" x2="16" y2="31.964" gradientUnits="userSpaceOnUse"><stop stop-color="#FD676C"/><stop offset="1" stop-color="#FD5C62"/></linearGradient><clipPath id="a"><path fill="#fff" d="M0 0h32v32H0z"/></clipPath></defs></svg>