<svg width="64" height="64" viewBox="0 0 64 64" fill="none" xmlns="http://www.w3.org/2000/svg"><g clip-path="url(#a)"><path d="M46.994 48.01a5.568 5.568 0 0 1-5.562-5.562V33.21a5.568 5.568 0 0 1 5.562-5.562h14.492c.088 0 .175.003.262.007v-9.201a4.289 4.289 0 0 0-4.289-4.289H4.29A4.288 4.288 0 0 0 0 18.455v38.749a4.289 4.289 0 0 0 4.289 4.288h53.17a4.289 4.289 0 0 0 4.289-4.288v-9.201a5.552 5.552 0 0 1-.262.006H46.994z" fill="#001130"/><path d="M46.994 48.01a5.568 5.568 0 0 1-5.562-5.562V33.21a5.568 5.568 0 0 1 5.562-5.562h14.492c.088 0 .175.003.262.007v-9.201a4.289 4.289 0 0 0-4.289-4.289H4.29A4.288 4.288 0 0 0 0 18.455v38.749a4.289 4.289 0 0 0 4.289 4.288h53.17a4.289 4.289 0 0 0 4.289-4.288v-9.201a5.552 5.552 0 0 1-.262.006H46.994z" fill="url(#b)"/><path d="M61.487 30.697H46.995a2.514 2.514 0 0 0-2.514 2.514v9.236a2.514 2.514 0 0 0 2.514 2.515h14.492A2.514 2.514 0 0 0 64 42.447v-9.236a2.514 2.514 0 0 0-2.514-2.514zm-9.499 10.76a3.629 3.629 0 1 1 0-7.257 3.629 3.629 0 0 1 0 7.258z" fill="#001130"/><path d="M61.487 30.697H46.995a2.514 2.514 0 0 0-2.514 2.514v9.236a2.514 2.514 0 0 0 2.514 2.515h14.492A2.514 2.514 0 0 0 64 42.447v-9.236a2.514 2.514 0 0 0-2.514-2.514zm-9.499 10.76a3.629 3.629 0 1 1 0-7.257 3.629 3.629 0 0 1 0 7.258z" fill="url(#c)"/><path d="M49.993 6.31a5.538 5.538 0 0 0-6.995-3.52L21.21 9.986h29.997L49.993 6.31z" fill="#001130"/><path d="M49.993 6.31a5.538 5.538 0 0 0-6.995-3.52L21.21 9.986h29.997L49.993 6.31z" fill="url(#d)"/></g><defs><linearGradient id="b" x1="30.874" y1="14.166" x2="30.874" y2="61.492" gradientUnits="userSpaceOnUse"><stop stop-color="#3352A1"/><stop offset="1" stop-color="#132450"/></linearGradient><linearGradient id="c" x1="54.241" y1="30.697" x2="54.241" y2="44.962" gradientUnits="userSpaceOnUse"><stop stop-color="#3352A1"/><stop offset="1" stop-color="#132450"/></linearGradient><linearGradient id="d" x1="36.209" y1="2.508" x2="36.209" y2="9.987" gradientUnits="userSpaceOnUse"><stop stop-color="#3352A1"/><stop offset="1" stop-color="#132450"/></linearGradient><clipPath id="a"><path fill="#fff" d="M0 0h64v64H0z"/></clipPath></defs></svg>