<svg width="64" height="64" viewBox="0 0 64 64" fill="none" xmlns="http://www.w3.org/2000/svg"><g clip-path="url(#a)"><path d="M62.57 33.861L48.038 37.92 37.461 32l10.576-5.917 14.531 4.056L64 25l-9.395-2.619 8.334-4.698-2.622-4.646-8.333 4.696 2.621-9.394-5.136-1.432-4.053 14.53-10.75 6.016V17.104L45.334 6.437l-3.77-3.77-6.896 6.896V0h-5.334v9.563l-6.896-6.896-3.77 3.77 10.666 10.667v10.35l-10.749-6.017-4.053-14.53-5.136 1.432 2.618 9.394-8.33-4.696-2.619 4.646 8.33 4.698L0 25l1.432 5.139 14.53-4.056L26.54 32l-10.576 5.92L1.43 33.861 0 39l9.395 2.619L1.06 46.32l2.622 4.643 8.333-4.696-2.624 9.394 5.139 1.43 4.056-14.528 10.746-6.014v10.347L18.667 57.563l3.77 3.77 6.896-6.896V64h5.334v-9.563l6.896 6.896 3.77-3.77-10.666-10.667V36.549l10.746 6.014L49.47 57.09l5.139-1.43-2.624-9.394 8.333 4.696 2.622-4.643-8.334-4.701L64 39l-1.43-5.139z" fill="url(#b)"/></g><defs><linearGradient id="b" x1="32" x2="32" y2="64" gradientUnits="userSpaceOnUse"><stop stop-color="#3352A1"/><stop offset="1" stop-color="#132450"/></linearGradient><clipPath id="a"><path fill="#fff" d="M0 0h64v64H0z"/></clipPath></defs></svg>