<svg width="64" height="64" viewBox="0 0 64 64" fill="none" xmlns="http://www.w3.org/2000/svg"><path d="M39.853 14.532H7.863V43.68h31.99V14.532z" fill="url(#a)"/><path d="M0 53.819h3.802v5.788h13.233V53.82h29.93v5.788h13.233V53.82H64V4.393H0v49.426zM53.323 12.63a2.951 2.951 0 1 1 0 5.902 2.951 2.951 0 0 1 0-5.902zm0 8.436a2.951 2.951 0 1 1 0 5.903 2.951 2.951 0 0 1 0-5.902zm-4.715 9.939h9.43v3.802h-9.43v-3.802zm0 6.337h9.43v3.802h-9.43v-3.802zm0 6.337h9.43v3.802h-9.43V43.68zM4.06 10.73h39.594v36.752H4.06V10.73z" fill="url(#b)"/><defs><linearGradient id="a" x1="23.858" y1="14.532" x2="23.858" y2="43.68" gradientUnits="userSpaceOnUse"><stop stop-color="#3352A1"/><stop offset="1" stop-color="#132450"/></linearGradient><linearGradient id="b" x1="32" y1="4.393" x2="32" y2="59.607" gradientUnits="userSpaceOnUse"><stop stop-color="#3352A1"/><stop offset="1" stop-color="#132450"/></linearGradient></defs></svg>