<svg width="32" height="32" viewBox="0 0 32 32" fill="none" xmlns="http://www.w3.org/2000/svg"><g clip-path="url(#a)"><path d="M3.071 11.179c.405.285 1.625 1.134 3.661 2.544a891.55 891.55 0 0 1 4.679 3.259c.119.084.372.265.758.545.387.28.709.506.965.678.256.173.565.367.928.58.364.215.706.376 1.027.482.322.108.62.161.893.161h.036c.274 0 .572-.053.893-.16a5.384 5.384 0 0 0 1.027-.482c.363-.215.672-.408.928-.58.256-.173.578-.4.965-.68.386-.28.64-.46.759-.544 1.095-.762 3.88-2.696 8.357-5.804a8.483 8.483 0 0 0 2.178-2.196c.584-.857.875-1.756.875-2.696 0-.786-.283-1.459-.848-2.018-.566-.56-1.236-.84-2.01-.84H2.858c-.917 0-1.622.31-2.116.93C.247 4.975 0 5.75 0 6.677c0 .75.327 1.563.982 2.438.655.875 1.351 1.563 2.09 2.063z" fill="url(#b)"/><path d="M3.071 11.179c.405.285 1.625 1.134 3.661 2.544a891.55 891.55 0 0 1 4.679 3.259c.119.084.372.265.758.545.387.28.709.506.965.678.256.173.565.367.928.58.364.215.706.376 1.027.482.322.108.62.161.893.161h.036c.274 0 .572-.053.893-.16a5.384 5.384 0 0 0 1.027-.482c.363-.215.672-.408.928-.58.256-.173.578-.4.965-.68.386-.28.64-.46.759-.544 1.095-.762 3.88-2.696 8.357-5.804a8.483 8.483 0 0 0 2.178-2.196c.584-.857.875-1.756.875-2.696 0-.786-.283-1.459-.848-2.018-.566-.56-1.236-.84-2.01-.84H2.858c-.917 0-1.622.31-2.116.93C.247 4.975 0 5.75 0 6.677c0 .75.327 1.563.982 2.438.655.875 1.351 1.563 2.09 2.063z" fill="url(#c)"/><path d="M30.214 13.09c-3.904 2.642-6.869 4.696-8.892 6.16-.68.5-1.23.89-1.652 1.17-.423.28-.985.565-1.688.857-.702.292-1.357.437-1.964.437h-.036c-.607 0-1.262-.145-1.964-.437-.702-.292-1.265-.578-1.688-.857-.422-.28-.973-.67-1.651-1.17-1.608-1.178-4.566-3.232-8.875-6.16A9.46 9.46 0 0 1 0 11.535v14.178c0 .786.28 1.458.84 2.018.559.56 1.231.84 2.017.84h26.286a2.75 2.75 0 0 0 2.018-.84A2.75 2.75 0 0 0 32 25.713V11.536a9.85 9.85 0 0 1-1.786 1.553z" fill="url(#d)"/><path d="M30.214 13.09c-3.904 2.642-6.869 4.696-8.892 6.16-.68.5-1.23.89-1.652 1.17-.423.28-.985.565-1.688.857-.702.292-1.357.437-1.964.437h-.036c-.607 0-1.262-.145-1.964-.437-.702-.292-1.265-.578-1.688-.857-.422-.28-.973-.67-1.651-1.17-1.608-1.178-4.566-3.232-8.875-6.16A9.46 9.46 0 0 1 0 11.535v14.178c0 .786.28 1.458.84 2.018.559.56 1.231.84 2.017.84h26.286a2.75 2.75 0 0 0 2.018-.84A2.75 2.75 0 0 0 32 25.713V11.536a9.85 9.85 0 0 1-1.786 1.553z" fill="url(#e)"/></g><defs><linearGradient id="b" x1="16" y1="3.429" x2="16" y2="19.428" gradientUnits="userSpaceOnUse"><stop stop-color="#3352A1"/><stop offset="1" stop-color="#132450"/></linearGradient><linearGradient id="c" x1="16" y1="3.429" x2="16" y2="19.428" gradientUnits="userSpaceOnUse"><stop stop-color="#FD676C"/><stop offset="1" stop-color="#FD5C62"/></linearGradient><linearGradient id="d" x1="16" y1="11.536" x2="16" y2="28.572" gradientUnits="userSpaceOnUse"><stop stop-color="#3352A1"/><stop offset="1" stop-color="#132450"/></linearGradient><linearGradient id="e" x1="16" y1="11.536" x2="16" y2="28.572" gradientUnits="userSpaceOnUse"><stop stop-color="#FD676C"/><stop offset="1" stop-color="#FD5C62"/></linearGradient><clipPath id="a"><path fill="#fff" d="M0 0h32v32H0z"/></clipPath></defs></svg>