<svg width="64" height="64" viewBox="0 0 64 64" fill="none" xmlns="http://www.w3.org/2000/svg"><g clip-path="url(#a)"><path d="M48.689 10.928A5.59 5.59 0 0 0 47.04 6.95l-5.303-5.303C40.691.601 39.204 0 37.725 0h-.323v11.25H48.69v-.322z" fill="url(#b)"/><path d="M34.242 38.692a7.526 7.526 0 0 1 1.802-2.926l12.695-12.644V15H35.564c-1.036 0-1.814-.839-1.814-1.875V0H5.625A5.631 5.631 0 0 0 0 5.625v52.75A5.631 5.631 0 0 0 5.625 64h37.44c3.1 0 5.674-2.523 5.674-5.625V44.381l-2.06 2.01a7.457 7.457 0 0 1-2.915 1.799l-5.962 1.99-.908.05a4.706 4.706 0 0 1-3.805-1.954 4.702 4.702 0 0 1-.638-4.223l1.791-5.36zM9.375 33.75h18.69a1.874 1.874 0 1 1 0 3.75H9.374a1.874 1.874 0 1 1 0-3.75zM7.5 28.125c0-1.036.839-1.875 1.875-1.875h18.69a1.874 1.874 0 1 1 0 3.75H9.374A1.874 1.874 0 0 1 7.5 28.125zm0 15c0-1.036.839-1.875 1.875-1.875h18.69a1.874 1.874 0 1 1 0 3.75H9.374A1.874 1.874 0 0 1 7.5 43.125zM35.564 52.5a1.874 1.874 0 1 1 0 3.75h-11.25a1.874 1.874 0 1 1 0-3.75h11.25zm-26.189-30a1.874 1.874 0 1 1 0-3.75h26.19a1.874 1.874 0 1 1 0 3.75H9.374z" fill="url(#c)"/><path d="M37.64 40.351l-1.631 4.894a.937.937 0 0 0 1.186 1.186l4.891-1.634-4.446-4.446z" fill="url(#d)"/><path d="M52.2 24.913L39.852 37.262l5.325 5.326 12.348-12.35-5.325-5.325z" fill="url(#e)"/><path d="M62.9 19.535c-.66-.662-1.63-1.041-2.66-1.041-1.029 0-1.999.379-2.662 1.043l-2.725 2.725 5.325 5.325 2.725-2.725a3.774 3.774 0 0 0-.004-5.326z" fill="url(#f)"/><path d="M62.902 24.862l.011-.011-.01.011z" fill="url(#g)"/><path d="M62.914 24.851l.017-.017-.017.017z" fill="url(#h)"/><path d="M62.93 24.834c.012-.012.012-.012 0 0z" fill="url(#i)"/></g><defs><linearGradient id="b" x1="43.046" x2="43.046" y2="11.25" gradientUnits="userSpaceOnUse"><stop stop-color="#3352A1"/><stop offset="1" stop-color="#132450"/></linearGradient><linearGradient id="c" x1="24.37" x2="24.37" y2="64" gradientUnits="userSpaceOnUse"><stop stop-color="#3352A1"/><stop offset="1" stop-color="#132450"/></linearGradient><linearGradient id="d" x1="39.023" y1="40.351" x2="39.023" y2="46.48" gradientUnits="userSpaceOnUse"><stop stop-color="#3352A1"/><stop offset="1" stop-color="#132450"/></linearGradient><linearGradient id="e" x1="48.688" y1="24.913" x2="48.688" y2="42.588" gradientUnits="userSpaceOnUse"><stop stop-color="#3352A1"/><stop offset="1" stop-color="#132450"/></linearGradient><linearGradient id="f" x1="59.427" y1="18.494" x2="59.427" y2="27.587" gradientUnits="userSpaceOnUse"><stop stop-color="#3352A1"/><stop offset="1" stop-color="#132450"/></linearGradient><linearGradient id="g" x1="62.908" y1="24.851" x2="62.908" y2="24.862" gradientUnits="userSpaceOnUse"><stop stop-color="#3352A1"/><stop offset="1" stop-color="#132450"/></linearGradient><linearGradient id="h" x1="62.922" y1="24.834" x2="62.922" y2="24.851" gradientUnits="userSpaceOnUse"><stop stop-color="#3352A1"/><stop offset="1" stop-color="#132450"/></linearGradient><linearGradient id="i" x1="62.934" y1="24.825" x2="62.934" y2="24.834" gradientUnits="userSpaceOnUse"><stop stop-color="#3352A1"/><stop offset="1" stop-color="#132450"/></linearGradient><clipPath id="a"><path fill="#fff" d="M0 0h64v64H0z"/></clipPath></defs></svg>