<svg width="32" height="32" viewBox="0 0 32 32" fill="none" xmlns="http://www.w3.org/2000/svg"><path d="M16 16h4v2.667h-6.667v-8H16V16zm12-1.333h-1.427a11.026 11.026 0 0 0-3.529-6.791C21.334 6.321 21.407 4.88 20.569 0H10.097c-.837 4.88-.764 6.321-2.474 7.876a11.01 11.01 0 0 0 .004 16.333c1.706 1.552 1.642 3.023 2.47 7.791H20.57c.83-4.768.764-6.239 2.472-7.79a11.027 11.027 0 0 0 3.547-6.877H28v-2.666zm-12.667 10A8.668 8.668 0 0 1 6.667 16a8.668 8.668 0 0 1 8.666-8.667A8.668 8.668 0 0 1 24 16a8.668 8.668 0 0 1-8.667 8.667z" fill="#3352A1"/><path d="M16 16h4v2.667h-6.667v-8H16V16zm12-1.333h-1.427a11.026 11.026 0 0 0-3.529-6.791C21.334 6.321 21.407 4.88 20.569 0H10.097c-.837 4.88-.764 6.321-2.474 7.876a11.01 11.01 0 0 0 .004 16.333c1.706 1.552 1.642 3.023 2.47 7.791H20.57c.83-4.768.764-6.239 2.472-7.79a11.027 11.027 0 0 0 3.547-6.877H28v-2.666zm-12.667 10A8.668 8.668 0 0 1 6.667 16a8.668 8.668 0 0 1 8.666-8.667A8.668 8.668 0 0 1 24 16a8.668 8.668 0 0 1-8.667 8.667z" fill="url(#a)"/><defs><linearGradient id="a" x1="16" x2="16" y2="32" gradientUnits="userSpaceOnUse"><stop stop-color="#3352A1"/><stop offset="1" stop-color="#132450"/></linearGradient></defs></svg>