<svg width="176" height="228" viewBox="0 0 176 228" fill="none" xmlns="http://www.w3.org/2000/svg"><path d="M50.933 141.586c32.07-41.296 98.094-17.52 118.845 22.525 20.75 40.045 0 123.889 0 123.889L0 277.989c13.205.417-11.319-5.452 50.933-46.302s-32.069-48.805 0-90.101z" fill="#BFD2FD"/><path d="M50.933 141.586c32.07-41.296 98.094-17.52 118.845 22.525 20.75 40.045 0 123.889 0 123.889L0 277.989c13.205.417-11.319-5.452 50.933-46.302s-32.069-48.805 0-90.101z" fill="url(#a)"/><path d="M146.418 231c-17.706-21.445-46.357-75.273-19.316-119.021C160.904 57.294 127.102 9.042 177 1" stroke="#000"/><defs><linearGradient id="a" x1="91.419" y1="133.264" x2="91.419" y2="280.98" gradientUnits="userSpaceOnUse"><stop stop-color="#BFD2FD"/><stop offset="1" stop-color="#B4CAFD"/></linearGradient></defs></svg>