<svg width="188" height="250" viewBox="0 0 188 250" fill="none" xmlns="http://www.w3.org/2000/svg"><path d="M58.38 194.826C73.842 232.815 20.675 248.359 0 255.193V270h182.436c11.554-32.272 40.942-97.215-18.244-118.456-59.186-21.242-121.276 5.292-105.813 43.282z" fill="#BFD2FD"/><path d="M58.38 194.826C73.842 232.815 20.675 248.359 0 255.193V270h182.436c11.554-32.272 40.942-97.215-18.244-118.456-59.186-21.242-121.276 5.292-105.813 43.282z" fill="url(#a)"/><path d="M68.843 204.637c3.913 9.614 3.496 17.851.301 24.893-3.185 7.022-9.109 12.804-16.12 17.576-12.87 8.758-29.554 14.209-40.18 17.681-.82.267-1.602.523-2.344.767V279.5h181.584c.817-2.276 1.719-4.707 2.669-7.269 5.804-15.646 13.405-36.138 14.589-55.626.693-11.403-.817-22.416-6.141-31.884-5.32-9.459-14.476-17.43-29.178-22.707-29.488-10.583-59.678-9.254-80.539-.579-10.431 4.337-18.492 10.494-22.991 17.874-4.488 7.361-5.458 15.975-1.65 25.328z" stroke="url(#b)"/><path d="M190 212c-24.163-12.667-62.133-40-47.894-86C156.345 80 190 88 190 0" stroke="#3352A1"/><path d="M190 212c-24.163-12.667-62.133-40-47.894-86C156.345 80 190 88 190 0" stroke="url(#c)"/><defs><linearGradient id="a" x1="97.856" y1="153.948" x2="97.856" y2="264.735" gradientUnits="userSpaceOnUse"><stop stop-color="#BFD2FD"/><stop offset="1" stop-color="#B4CAFD"/></linearGradient><linearGradient id="b" x1="110" y1="154" x2="110" y2="280" gradientUnits="userSpaceOnUse"><stop stop-color="#3352A1"/><stop offset="1" stop-color="#132450"/></linearGradient><linearGradient id="c" x1="142.846" y1="87.404" x2="142.846" y2="212" gradientUnits="userSpaceOnUse"><stop stop-color="#FD676C"/><stop offset="1" stop-color="#FD5C62"/></linearGradient></defs></svg>