<svg width="354" height="800" viewBox="0 0 354 800" fill="none" xmlns="http://www.w3.org/2000/svg"><path fill-rule="evenodd" clip-rule="evenodd" d="M57.739 42.991l-1.517-3.997-1.858-4.152-1.692-5.081-2.366-5.637-1.558-4.894-.908-3.834-.374-3.4V8.39l.618-2.523 1.022-2.05 1.684-1.974L52.837.576 54.897 0h3.02l3.427.54h2.6l3.851.125 3.399.22 3.145.498 2.461.706 3.167 1.292 1.355 1.23.825 1.527.83 1.687 1.334 2.856-1.474 3.298-2.207.94-2.373 1.018-2.144.498-2.632 1.07-2.264.913-1.77.373.842 2.342 1.475-.047 1.672-.368 1.386-.576 1.86-1.034 1.656-.705 2.024-.94 1.433-.732 1.729-.623 1.282-.125 1.401.125 1.258.717 1.712 1.245 1.188.862 1.527 1.277 1.028 1.942.784 1.973.207 3.171-.249 2.747-1.812 1.516-1.433.244-1.184.24-1.023.898-.82 3.089.603 3.354.239 2.871-1.626 1.594-1.308.498h-1.983l-2.207 1.065 1.833 2.83 2.07.124 2.482-.498 2.355-1.125 1.682-1.174 1.06-3.65-.982-2.318-.556-3.992 1.07-1.526 1.396-.909 1.729-1.313 1.526-1.526 1.258-1.621 1.252-1.013 1.47-.815 1.475-.322 1.682.363 1.381.576 1.973 1.158 1.927 1.807 2.397 1.338 2.242 1.754 1.625 1.797 1.137 1.562 1.382 1.849 1.355 1.355 1.599 1.584 2.015 1.22 3.006.904 4.06 1.643 2.73 1.563 2.466 1.36 2.009 1.137 2.144 1.06 1.926.607 1.729.452 1.522.857 1.728 1.303 1.277 1.522.945 1.506 1.225 5.882.79 2.31 1.207 3.185.674 3.519.909 3.404.207 2.486.374 2.425.083 2.647-.166 2.403-.576 5.787.368 4.366 1.9 3.318 1.636 1.158 2.346 1.401 2.4 1.937 1.309 1.443 1.079 2.103.742 1.723-.94 4.471-1.428 1.162-1.138 1.89-1.354 1.646-1.411 2.109-.856 2.659-.244 4.268 1.074 4.091.784 1.687.576 2.144.327 2.606-.368 7.469-.125 2.859.394 2.619 1.335 1.064.82-2.248.415-2.461.779-2.652.789-2.564 1.237-2.031 1.287-1.936 1.968-1.341 1.853-.607 2.009-.083 1.765.124 1.439.581-1.502 3.557-.742 2.119-.373 2.466-.208 2.378-1.355 3.665-1.111.623-1.169 1.584-.608 2.176 1.096 1.755 1.859 1.684.156 2.668-1.028 1.174-1.179.774-.691 2.295.761 3.761 1.174 2.19c1.34-1.189 1.34-1.769 1.34-2.143 0-.374-.13-2.911-.13-2.911.364-1.849.733-2.887.733-2.887l1.593-.488 1.065.332 2.949 2.727.996 1.795.961 1.75.452 4.91-1.641 2.706-1.47 1.853.655 2.712 2.912-2.668.742-1.89.836-2.757.327-2.782-.472-2.366-1.531-3.956-1.202-1.335-1.304-2.585 1.277-3.33 1.609-.737 2.237-.659 1.521-.743 1.282-.541 1.304-.447 1.407-.622 1.298-.894 2.004-1.418 1.465-1.267 1.079-1.228 1.028-1.142 1.225-1.568 1.829-1.843 1.147-.457 1.553-.203h1.484l1.517.327 1.894.567 1.952 1.194 2.278 1.333 1.754 1.646 1.277 1.766.649 1.999-.53 4.511-1.069 1.844-1.055 2.414-.203 4.834 1.719 3.101.821 1.728.856 1.765.12 4.913-1.848 1.174-1.189.649 1.853 3.578 1.584.369 1.636.483 1.091.816 1.413 3.884 1.249 1.945 1.28 1.659 1.707 1.117 2.175 1.966 2.465 1.99 1.984 2.458 1.328 2.507.751 2.012.108 4.964.005 3.033 1.72-.949 1.328-1.449h1.544l2.246.753 1.436.759 1.809.792 1.34.542 2.621 1.022 1.714.854 2.126 1.213 1.077 2.241-1.321 1.796-.711 2.892 1.111 1.837 1.707.528 1.707-.589 1.328-1.226 1.328-2.175 1.206-.435 1.213.264.996 1.322.962 1.388 1.009 1.505.858 2.111.318 2.33-.27 4.274-1.761 1.714-.488 2.215 2.121.096 1.321-1.389 1.496-.968 1.185-1.647.536-2.296-.718-4.23-1.07-2.471-1.056-2.357-1.051-1.93-1.185-1.401-1.111-.746-1.904-.894-1.503-.271 2.038-2.433 1.347-.534 1.727-.325 1.809.907 1.598 1.268 1.497.846h2.133l2.012-.636 2.29-.596 2.363-1.43 2.147-2.439 3.561-2.044 2.466-.669 2.831-.481 2.796-.583 2.79-2.079 2.233-3.182 3.081-4.59 3.704-3.928 2.085-2.951 1.714-4.043-1.162-2.092-1.232-2.392.799-2.302 1.131-.806 1.605-.318 2.127.535 1.063 2.302.265 2.478 1.849 1.315 1.396-.162 1.958-1.348 1.171-.271 1.111-.162 1.226.318 1.72.488 2.019 3.719 1.12 1.236 1.158.718 1.67.992 1.745.804 1.99.639 1.899.986 1.265 1.563.212 7.064-.952 1.215-1.904.496-2.076.93-1.449.839-1.186 1.448-.912 4.886-.131 4.896v5.854l.41 3.044 1.222 3.444.724 1.779 1.871 1.158 1.311.137 1.893-.906 1.255-.542 1.254-.718 1.711-.132h1.949l1.534.85 1.072 1.301.536 5.969-.991 3.461-1.614 1.174-1.306.137-1.574-.268-1.255-.359-2.088-1.563-1.431-.137-1.933.354-1.523.678-1.837 3.113-1.362 2.628-1.756 2.944-2.952 5.103-1.717 3.494-.992 2.811-.764 2.862-.131 2.395.223 3.014.592 2.502 1.254 3.502 1.089 1.522.981 1.826-1.391 3.485-.394 2.732 1.061 1.283-.523 4.022-2.196-.36-1.437-.678-1.675-1.078-1.653-1.043-2.052-2.121-1.072-.992-2.354-1.124-2.765-1.27-3.215-1.859-2.65-.941-1.807-1.67-1.311-1.99-2.003-2.982-.501-2.684-.228-2.771-1.791-2.822-1.072 2.15-.086 2.788.668 4.083-1.432.086-2.23-.952-1.837.622 1.494 2.286 1.432.622 1.482.359 1.579.405 1.529.451 1.203.633 1.951 2.013.918 1.55.085 2.657-1.043 1.574-1.158.718-1.391.719-.952 1.3.45 3.274-.313 4.219-3.097 1.856-.314 2.817.708 1.872-1.059 2.408-1.478 1.802-1.386.45.845 2.852-.97 2.538-1.888-.678-1.123.411-.976 2.252-.04 5.278-.268 4.258.137 2.856.987 4.242.045 5.628-1.174 1.944-1.124 1.067-1.225.804-1.112 1.198-1.124 3.319 1.592 1.193 1.266.268 1.351.45.981 2.048 1.03 2.408.405 2.539 2.692 2.305 1.955 1.38 1.289 2.116.394 3.279.804 2.509 1.419 2.373 1.255.941 1.163.946 1.22 1.089 1.18.633 1.226.632.93 1.443.991 2.19 2.771 3.655 1.796.901 1.609.667 2.257.137 1.129-.314 1.169-.314 1.182-.06-.217 2.914-.805 1.796-1.391 1.215-1.887.496-2.361.411-2.463-.223-2.309-.644-1.767-2.069-2.354-2.355-2.218-2.303-3.261-1.813-4.696-1.266-4.007-.267-3.824.957-2.673 1.043-2.383 1.214-4.491 2.41-1.999 1.067-1.786.668-1.194-.804-.98-2.429-.577 2.396 1.118 2.651 1.075 2.472-.931 3.455-1.719.398-2.067-1.533-1.245-1.448h-1.389l-1.931.541-1.93.585-2.015.736-1.886-.178-1.584-.585-1.143-1.313-.991-1.269-1.87-.788-1.736-.339-2.413-.406-1.879.195 1.202 1.473 1.652.389 1.787.924 1.058.796 1.27 1.143 1.532 2.404 1.127.923 1.795.195h1.735l3.014-.948 1.541-.592h1.998l.728 2.336-2.193 2.396-2.201.796-2.591 1.075-3.149.398-1.517.601-2.09 1.295.388 6.76 2.456 1.931 2.437.076 2.675-.991 1.321-1.644 1.15-2.404 2.524-3.108 1.05 1.414.585 2.057-.729 3.758v2.938l1.517 2.937.136 4.473-1.855 1.246-1.549.736-2.25 3.163-.195 3.089.195 2.676.999 3.665 1.405 2.616 1.135 2.066 1.727 2.523v3.208l.593 2.922 1.194 1.051 1.703 1.448-1.262 3.551 1.086 2.205 1.067 1.406-.983 2.862-1.398 1.584-1.524.939-.796 2.074 2.269 1.261 1.855-.999 1.779-1.185 1.304.269 1.178 3.183.558 2.548 1.17 1.651 2.642 1.601 2.608 1.406h3.157l3.639.397 1.93 1.313.702 2.277 1.083 3.005 1.914 2.662 2.489 2.835 1.887 4.107 1.135 3.089.533 2.549.414 2.37v2.886l-1.185 3.395-2.592 1.194-1.515 1.051 1.266 2.312 1.532.135 1.449.39 1.11 1.127-1.194 2.921-1.194 1.254-1.6 1.835-1.099 1.697-1.337 2.471-.964 2.589 1.667 1.126 1.33-2.371 1.118-2.234 1.457-1.322 1.93-.194 1.99-.39 1.524 1.194.94 1.66 1.132 1.86 1.6 1.186 2.226 1.329 2.201 1.752 1.643 2.246.796 2.336-.211 4.573-.931 2.567-1.126 2.523-.813 2.404-1.864 2.269-.525 2.532.61 7.11-.398 5.06-.729 3.244-1.185 1.329-2.261 1.457-1.246 2.142.593 2.853.399 3.311.616 3.082 1.723.869 2.344.398-1.178-2.761-.804-2.632-.804-2.15 1.075-3.065 1.652-.195 1.794-1.541.77-2.845.542-3.504-.737-2.989-.33-4.069.27-2.7.924-2.226 1.735-.864 2.031-.44 2.683.202 1.508.924.983 3.343 2.786 1.533 2.261-.322 1.946-1.652.737-2.759-.262-2.429-.729-1.803-.263-2.802 1.024-3.157 1.608-2.321.864-2.726 1.381-1.787 1.727-.645.736-2.073-.763-6.043 1.116-2.067 1.625-1.448 1.886-.279 2.541-1.186 2.464-1.99 1.794-1.21 2.066-2.209 3.133-.865 2.751-.194 1.464 1.254-.922 4.155-.916 1.864-.991 2.005-.592 4.343-.195 2.608-.585 2.591-1.728 3.506-1.143 3.049-1.142 4.722-.474 6.813.076 8.217.806 4.837 1.541 2.819 2.396.593 2.277-.991 2.006-.203 1.871.991 1.254 2.981.211 2.512-.78 2.294-1.397 1.421-.593 2.608-1.973 2.77h-1.601l-2.117-.712-1.812-4.768-1.599-.509-2.28.414-1.719 1.82-1.838 2.726-1.194 1.134-1.947.475-1.796.473h-2.583l-1.818 1.051-1.78 1.346.894 3.73.999 1.269 1.375 2.121 1.701 3.419 1.033 1.143 1.553.495 2.717.496 2.222.402 1.833.567 1.541 1.426 1.007 1.485.939 4.6-4.853.406-3.685-.639-1.913-.778-1.638-2.146-1.921-1.963-1.075-1.059-1.308-.71-1.913-.991-2.086-.474-1.045-1.244-1.139-1.778-1.507-1.955-.947-1.853-1.292-1.803-1.406-.478-1.101.03-1.236.427-1.536 1.3-1.312.203-1.376.199-1.397.102-1.379.638-2.1 2.122-1.278 1.134-1.435.559-1.139-.338.198-2.415 1.282-3.715-.104-2.439-1.329-.466-1.93 2.04-1.838.729-1.062-.538-1.549-.969-1.545-.368-1.647-.031-1.303-.266-1.57-.864-2.168-.559-1.757.703-1.545.575-2.43 4.377-2.006.267-1.211-.542-1.681-2.633-1.025.969-.634 4.435-1.841.77-1.3.101-1.206-.203-1.372.097h-1.379l-.14 3.194.47 2.548-.169 2.594-.939 5.32-.572 4.13-1.558.665-1.278.432-1.371.63-1.322 3.344-2.349 1.502-2.225.368 1.37 2.048 1.198 1.16 1.278 1.451.542 2.217-3.471.96-1.583-.939-1.435-.937-1.235-1.566-.896-2.014-1.461-3.851-1.16-.624-.035 4.121 1.354 4.032 1.202 2.358.47 2.337-1.406.849-1.278-.452-1.859-1.359-1.389-.416-1.143-.097-.931 1.588 2.861 1.058 3.583 1.278 5.877 1.282 2.851 1.215 1.702 2.194.977 4.696 1.045 4.688 1.524 3.952 1.532 2.044 3.026 1.16 1.789.662 2.495 1.031 1.741-.279 2.126-.736 2.388-.458 2.369-.195 3.598.45 2.751 1.489 1.089 1.141-.423 2.598-1.973.94-2.962-.136-2.473-.202-1.946-.28-2.193.501-1.516 1.533-1.465 1.727-.796 2.042 1.982 4.47 2.15 1.524-.25 4.464-1.608.82-1.778 1.058 1.194 2.854 2.336.88 1.49 2.193.744 2.337-.563 2.098-.932 1.616-2.312 5.681-.948 1.175-1.178 2.499.136 3.717 1.194 1.939 2.337 1.321 1.922.534 3.26-.474 1.82-.593 1.735-.195 2.082.466 1.456 1.253 1.609 1.422.931 2.946.195 2.464 1.278 2.276 1.346 2.345 1.416 5.074-1.245 1.711-1.245 1.126-2.583.983-2.938-.585-2.345-1.651-.923-1.525-.33-2.447-1.533-2.794-1.829-1.847-2.24-1.846-2.48-.204-2.26-.389-2.524-.728-1.803-1.796-1.134-1.981-.813-1.811-1.134-1.812-.788-1.811-1.633-2.397-1.067-1.887-1.795-1.135-2.217-.947-2.692.195-2.252 1.304-1.465 1.482-1.17 1.378-.948 2.794-.067 3.471.507 3.886-1.481 2.133-2.015-.795-2.066-1.33-1.676-1.887-1.438-2.05-.55-2.962.797-2.835.533-3.834-1.151-4.511-2.31-5.396-2.717-5.534-3.47-7.365-3.64-8.914-1.354-6.871-.479-4.73-1.413-3.794-1.134-4.08-1.465-2.997-3.36-1.557-2.616-1.88-1.643-1.921-1.625-1.609-1.76-.593-2.937.195-1.465.737 3.387 2.929 2.413 1.684 3.251 1.982 3.217 1.143 1.126 1.269.33 4.563-2.77.788-2.344-.136-3.489-.238-4.774 1.134-3.945.932-3.75 1.346-2.599.593-1.811.27-2.575 1.516-2.87 2.751-2.162 2.581-3.675 3.631-2.837 1.93-3.005 1.871-3.834 3.292-2.159 3.377-1.879 1.194-3.157 5.248-1.871 4.104-1.305 4.005-.939 3.503-1.186 5.224-1.803 3.706-2.835 4.046-1.127 3.065-1.819 4.85-1.338 4.679-1.218 3.655-1.278 3.165-.923 3.818-.991 1.752.66 8.185.068 4.925.474 5.02 1.625 1.96 1.472 2.667.788 2.21v2.742l-.728 3.066-2.134 2.869-2.572 2.337-2.862 1.075-2.929-.136-2.074-.533-1.915-.931-1.54-.203-2.015.389-2.006 1.33-3.68 2.976-6.753 4.79-7.058 4.554.922 2.87 1.135 1.922-.534 5.461-3.148 1.067-1.33.728-1.449 1.49-2.276 1.389-2.659.907-2.412.678-2.194.465-2.48-.135-2.456-.991-1.559-1.161-1.636-.39-1.404.338-1.102 1.381-1.923 2.176-1.886.458-1.99-.525-.827-2.382 1.955-5.334 1.015-3.734 1.457-3.141 1.253-1.794v-4.845l-.203-3.124.534-2.54 1.524-2.209.677-2.041-1.33-2.819-2.117-1.329-1.253-.534-1.33-.406-1.99-.796-1.337.525-1.923.804-1.922.729-2.26.195-1.71.026-2.29-.114h-2.417l-2.479.264-1.936.752-2.92.69-2.309-.041-2.255-.576-2.716-2.025-1.499-2.576-.792-2.98-.054-2.736.65-1.929 1.373-1.761 1.822-1.341 2.194-1.449.955-1.437-1.003-2.365-1.557.109-1.003.9-1.321.65-1.593.338-1.923.251-1.706-1.267-.618-4.49 1.72-3.576 1.653-1.85 2.031-.799 2.411-.433 2.086-.156 2.006.475 1.984-.152 1.856-.901 1.714-1.991.981-2.809 1.124-2.478 1.239-2.418 1.497-2.308 1.51-2.243.12-13.642-1.442-.468-1.11-1.063-.156-3.204 1.767-3.245 1.802-1.347 1-1.819.32-2.459-4.206-8.064-1.07-1.07-1.273-.535-2.032-.318-5.443-.217-2.465-.643-1.767-1.341-.745-1.857.346-4.14 1.213-1.355 1.821-1.898 2.398-1.761 1.233-.901 3.162-2.736.968-1.665 1.118-1.911-1.835-6.886-5.415-13.608-9.865-24.374-1.786-.859-1.66-1.334-1.442-1.802-.427-2.844.858-3.333-1.43-2.459-1.958-.264h-2.025l-1.43.264-1.286.427-1.287.312-1.49.155-1.917-.264-1.43-.752-1.124-1.55-2.019-2.385-1.143-1.418-1.49-1.016-.968-1.267-.427-3.137.738-2.235 3.048-1.273 2.188-.915 1.226-.697 1.375-2.121-.968-2.242-1.761-.907-2.1-1.131-1.713-.901-1.028-1.612-.698-2.308-.487-3.529-2.133-1.49-1.064.162-1.064.739-1.28.643-1.503.962-1.822.433H15.55l-1.179-.541-1.057-1.023-.9-1.28-1.125-1.185-1.302-1.858-1.43-1.315-1.26-1.057-.704-3.42 1.321-3.292L9.52 557.9v-2.879l2.194-1.334 1.51.162 2.478.596 2.249 1.118 1.55.806 1.653.378 1.348.739 1.083 1.618 2.044 2.201 1.599 1.592 1.165.921 2.067.962 1.984.48 2.31.319 1.448-.163 1.267-.752 1.7-2.038 1.023-.962 1.72-.589h1.232l1.179.455 1.118.685 1.936.907 1.213.739 1.984.745 2.207.162h1.564l1.652-.955 1.653-.643 1.443-1.294 1.977-2.139 1.742-2.422 2.093-2.594 1.185-3.08.65-4.089.438-3.904.378-5.132.156-4.434-.13-3.988-.27-4.083-.394-4.72-.427-3.427-2.59-3.764-2.02-1.009-2.235-.631-2.73-.203-2.135-.064-2.878-.39-3.2-1.127-2.66-1.965-4.705-3.842-5.467-4.256-4.332-3.919-1.227-1.245-1.372-.601-1.262.33-1.119.728-1.253 1.319-2.337 1.99-1.413.331-1.194-.407-1.413-3.549-1.27-.585-1.608.255-1.525.999-2.125 1.651-2.058.991-1.185.203-1.203-.728-.211-3.742-1.321-2.607-1.38-1.211-.475-2.853 2.074-3.168.398-3.124-1.194-2.058-1.067-.677-2.547-.474-1.446-.777L0 474.966l1.855-3.319 1.075-2.321 1.947-3.351 1.397-3.201.75-3.01.21-2.819.009-3.081 1.667-2.515 2.126.135 1.66.729 1.473.855 3.02 1.186 2.473.254 2.083-.203 2.26-1.397 2.193-1.269 1.21-1.084 1.262-1.202 1.524-.398 2.827-.195 2.464.376 2.66.271 2.47.103 1.609-6.813 1.811-9.377.517-3.013-1.83-2.61-1.388-1.305-1.641-1.871-1.346-2.853 1.134-3.041.388-3.047-1.6-.637-1.752-.265-1.032-1.286 1.008-3.083 1.185-5.301-.21-4.352-.935-3.154-.257-4.597-1.465-2.456-2.133.338-1.728.864-2.057-.135-1.72-1.711-1.727-2.556-1.262-.72-.406-2.269.923-1.541 1.143-1.127 2.074-1.464 2.007-.271 1.472.609 2.7 1.397 1.21.271 1.684.398 1.127.33 1.532 2.464 2.361.601 4.03-.254 3.579-.533 1.938-1.143 1.016-3.726.931-5.458 1.533-8.134.752-7.354 1.016-10.823.287-12.455V324.42l-.066-10.523-1.684-4.267-1.48-3.173-1.668-2.676-1.787-4.072-3.785-2.066-2.05.398-1.87.796-1.796.797-1.457.389-1.946.593-2.54-.203-2.894-.939-2.193-2.118-2.489-2.142-1.99-2.894.117-3.414.94-1.253 1.201-.737 1.406-.669 1.549-.593 1.786-.33 1.533-1.261-.406-4.057 1.38-3.717.39-4.029-1.312-1.254-1.804-1.922-1.126-1.322.203-3.192 1.058-.863 1.33-.466-1.972-5.586-1.465-4.173-.744-1.803-.338-5.139-3.615-3.798-2.098-3.098-1.347-3.014-.405-3.504-.204-3.435 1.143-4.105 1.877-2.694 1.337-1.803 2.11-1.616 2.336-1.279 4.3-1.871 3.63-1.727 4.392-3.013 3.886-2.811 3.36-2.902 4.03-2.15 2.157-2.962 3.022-4.707 2.496-2.818 4.517-7.354 4.189-5.849 4.95-7.625 2.942-4.324 2.548-5.231.301-11.823-.339-8.453-.745-7.82-1.082-6.932-2.26-7.21-2.432-10.065-1.896-8.649-1.998-11.846-.999-8.25L67.34 71.24l-1.579-7.183-1.668-6.035-2.696-7.057-1.319-2.77-1.044-1.894-1.294-3.31z" fill="#E9FAF6"/><path fill-rule="evenodd" clip-rule="evenodd" d="M57.739 42.991l-1.517-3.997-1.858-4.152-1.692-5.081-2.366-5.637-1.558-4.894-.908-3.834-.374-3.4V8.39l.618-2.523 1.022-2.05 1.684-1.974L52.837.576 54.897 0h3.02l3.427.54h2.6l3.851.125 3.399.22 3.145.498 2.461.706 3.167 1.292 1.355 1.23.825 1.527.83 1.687 1.334 2.856-1.474 3.298-2.207.94-2.373 1.018-2.144.498-2.632 1.07-2.264.913-1.77.373.842 2.342 1.475-.047 1.672-.368 1.386-.576 1.86-1.034 1.656-.705 2.024-.94 1.433-.732 1.729-.623 1.282-.125 1.401.125 1.258.717 1.712 1.245 1.188.862 1.527 1.277 1.028 1.942.784 1.973.207 3.171-.249 2.747-1.812 1.516-1.433.244-1.184.24-1.023.898-.82 3.089.603 3.354.239 2.871-1.626 1.594-1.308.498h-1.983l-2.207 1.065 1.833 2.83 2.07.124 2.482-.498 2.355-1.125 1.682-1.174 1.06-3.65-.982-2.318-.556-3.992 1.07-1.526 1.396-.909 1.729-1.313 1.526-1.526 1.258-1.621 1.252-1.013 1.47-.815 1.475-.322 1.682.363 1.381.576 1.973 1.158 1.927 1.807 2.397 1.338 2.242 1.754 1.625 1.797 1.137 1.562 1.382 1.849 1.355 1.355 1.599 1.584 2.015 1.22 3.006.904 4.06 1.643 2.73 1.563 2.466 1.36 2.009 1.137 2.144 1.06 1.926.607 1.729.452 1.522.857 1.728 1.303 1.277 1.522.945 1.506 1.225 5.882.79 2.31 1.207 3.185.674 3.519.909 3.404.207 2.486.374 2.425.083 2.647-.166 2.403-.576 5.787.368 4.366 1.9 3.318 1.636 1.158 2.346 1.401 2.4 1.937 1.309 1.443 1.079 2.103.742 1.723-.94 4.471-1.428 1.162-1.138 1.89-1.354 1.646-1.411 2.109-.856 2.659-.244 4.268 1.074 4.091.784 1.687.576 2.144.327 2.606-.368 7.469-.125 2.859.394 2.619 1.335 1.064.82-2.248.415-2.461.779-2.652.789-2.564 1.237-2.031 1.287-1.936 1.968-1.341 1.853-.607 2.009-.083 1.765.124 1.439.581-1.502 3.557-.742 2.119-.373 2.466-.208 2.378-1.355 3.665-1.111.623-1.169 1.584-.608 2.176 1.096 1.755 1.859 1.684.156 2.668-1.028 1.174-1.179.774-.691 2.295.761 3.761 1.174 2.19c1.34-1.189 1.34-1.769 1.34-2.143 0-.374-.13-2.911-.13-2.911.364-1.849.733-2.887.733-2.887l1.593-.488 1.065.332 2.949 2.727.996 1.795.961 1.75.452 4.91-1.641 2.706-1.47 1.853.655 2.712 2.912-2.668.742-1.89.836-2.757.327-2.782-.472-2.366-1.531-3.956-1.202-1.335-1.304-2.585 1.277-3.33 1.609-.737 2.237-.659 1.521-.743 1.282-.541 1.304-.447 1.407-.622 1.298-.894 2.004-1.418 1.465-1.267 1.079-1.228 1.028-1.142 1.225-1.568 1.829-1.843 1.147-.457 1.553-.203h1.484l1.517.327 1.894.567 1.952 1.194 2.278 1.333 1.754 1.646 1.277 1.766.649 1.999-.53 4.511-1.069 1.844-1.055 2.414-.203 4.834 1.719 3.101.821 1.728.856 1.765.12 4.913-1.848 1.174-1.189.649 1.853 3.578 1.584.369 1.636.483 1.091.816 1.413 3.884 1.249 1.945 1.28 1.659 1.707 1.117 2.175 1.966 2.465 1.99 1.984 2.458 1.328 2.507.751 2.012.108 4.964.005 3.033 1.72-.949 1.328-1.449h1.544l2.246.753 1.436.759 1.809.792 1.34.542 2.621 1.022 1.714.854 2.126 1.213 1.077 2.241-1.321 1.796-.711 2.892 1.111 1.837 1.707.528 1.707-.589 1.328-1.226 1.328-2.175 1.206-.435 1.213.264.996 1.322.962 1.388 1.009 1.505.858 2.111.318 2.33-.27 4.274-1.761 1.714-.488 2.215 2.121.096 1.321-1.389 1.496-.968 1.185-1.647.536-2.296-.718-4.23-1.07-2.471-1.056-2.357-1.051-1.93-1.185-1.401-1.111-.746-1.904-.894-1.503-.271 2.038-2.433 1.347-.534 1.727-.325 1.809.907 1.598 1.268 1.497.846h2.133l2.012-.636 2.29-.596 2.363-1.43 2.147-2.439 3.561-2.044 2.466-.669 2.831-.481 2.796-.583 2.79-2.079 2.233-3.182 3.081-4.59 3.704-3.928 2.085-2.951 1.714-4.043-1.162-2.092-1.232-2.392.799-2.302 1.131-.806 1.605-.318 2.127.535 1.063 2.302.265 2.478 1.849 1.315 1.396-.162 1.958-1.348 1.171-.271 1.111-.162 1.226.318 1.72.488 2.019 3.719 1.12 1.236 1.158.718 1.67.992 1.745.804 1.99.639 1.899.986 1.265 1.563.212 7.064-.952 1.215-1.904.496-2.076.93-1.449.839-1.186 1.448-.912 4.886-.131 4.896v5.854l.41 3.044 1.222 3.444.724 1.779 1.871 1.158 1.311.137 1.893-.906 1.255-.542 1.254-.718 1.711-.132h1.949l1.534.85 1.072 1.301.536 5.969-.991 3.461-1.614 1.174-1.306.137-1.574-.268-1.255-.359-2.088-1.563-1.431-.137-1.933.354-1.523.678-1.837 3.113-1.362 2.628-1.756 2.944-2.952 5.103-1.717 3.494-.992 2.811-.764 2.862-.131 2.395.223 3.014.592 2.502 1.254 3.502 1.089 1.522.981 1.826-1.391 3.485-.394 2.732 1.061 1.283-.523 4.022-2.196-.36-1.437-.678-1.675-1.078-1.653-1.043-2.052-2.121-1.072-.992-2.354-1.124-2.765-1.27-3.215-1.859-2.65-.941-1.807-1.67-1.311-1.99-2.003-2.982-.501-2.684-.228-2.771-1.791-2.822-1.072 2.15-.086 2.788.668 4.083-1.432.086-2.23-.952-1.837.622 1.494 2.286 1.432.622 1.482.359 1.579.405 1.529.451 1.203.633 1.951 2.013.918 1.55.085 2.657-1.043 1.574-1.158.718-1.391.719-.952 1.3.45 3.274-.313 4.219-3.097 1.856-.314 2.817.708 1.872-1.059 2.408-1.478 1.802-1.386.45.845 2.852-.97 2.538-1.888-.678-1.123.411-.976 2.252-.04 5.278-.268 4.258.137 2.856.987 4.242.045 5.628-1.174 1.944-1.124 1.067-1.225.804-1.112 1.198-1.124 3.319 1.592 1.193 1.266.268 1.351.45.981 2.048 1.03 2.408.405 2.539 2.692 2.305 1.955 1.38 1.289 2.116.394 3.279.804 2.509 1.419 2.373 1.255.941 1.163.946 1.22 1.089 1.18.633 1.226.632.93 1.443.991 2.19 2.771 3.655 1.796.901 1.609.667 2.257.137 1.129-.314 1.169-.314 1.182-.06-.217 2.914-.805 1.796-1.391 1.215-1.887.496-2.361.411-2.463-.223-2.309-.644-1.767-2.069-2.354-2.355-2.218-2.303-3.261-1.813-4.696-1.266-4.007-.267-3.824.957-2.673 1.043-2.383 1.214-4.491 2.41-1.999 1.067-1.786.668-1.194-.804-.98-2.429-.577 2.396 1.118 2.651 1.075 2.472-.931 3.455-1.719.398-2.067-1.533-1.245-1.448h-1.389l-1.931.541-1.93.585-2.015.736-1.886-.178-1.584-.585-1.143-1.313-.991-1.269-1.87-.788-1.736-.339-2.413-.406-1.879.195 1.202 1.473 1.652.389 1.787.924 1.058.796 1.27 1.143 1.532 2.404 1.127.923 1.795.195h1.735l3.014-.948 1.541-.592h1.998l.728 2.336-2.193 2.396-2.201.796-2.591 1.075-3.149.398-1.517.601-2.09 1.295.388 6.76 2.456 1.931 2.437.076 2.675-.991 1.321-1.644 1.15-2.404 2.524-3.108 1.05 1.414.585 2.057-.729 3.758v2.938l1.517 2.937.136 4.473-1.855 1.246-1.549.736-2.25 3.163-.195 3.089.195 2.676.999 3.665 1.405 2.616 1.135 2.066 1.727 2.523v3.208l.593 2.922 1.194 1.051 1.703 1.448-1.262 3.551 1.086 2.205 1.067 1.406-.983 2.862-1.398 1.584-1.524.939-.796 2.074 2.269 1.261 1.855-.999 1.779-1.185 1.304.269 1.178 3.183.558 2.548 1.17 1.651 2.642 1.601 2.608 1.406h3.157l3.639.397 1.93 1.313.702 2.277 1.083 3.005 1.914 2.662 2.489 2.835 1.887 4.107 1.135 3.089.533 2.549.414 2.37v2.886l-1.185 3.395-2.592 1.194-1.515 1.051 1.266 2.312 1.532.135 1.449.39 1.11 1.127-1.194 2.921-1.194 1.254-1.6 1.835-1.099 1.697-1.337 2.471-.964 2.589 1.667 1.126 1.33-2.371 1.118-2.234 1.457-1.322 1.93-.194 1.99-.39 1.524 1.194.94 1.66 1.132 1.86 1.6 1.186 2.226 1.329 2.201 1.752 1.643 2.246.796 2.336-.211 4.573-.931 2.567-1.126 2.523-.813 2.404-1.864 2.269-.525 2.532.61 7.11-.398 5.06-.729 3.244-1.185 1.329-2.261 1.457-1.246 2.142.593 2.853.399 3.311.616 3.082 1.723.869 2.344.398-1.178-2.761-.804-2.632-.804-2.15 1.075-3.065 1.652-.195 1.794-1.541.77-2.845.542-3.504-.737-2.989-.33-4.069.27-2.7.924-2.226 1.735-.864 2.031-.44 2.683.202 1.508.924.983 3.343 2.786 1.533 2.261-.322 1.946-1.652.737-2.759-.262-2.429-.729-1.803-.263-2.802 1.024-3.157 1.608-2.321.864-2.726 1.381-1.787 1.727-.645.736-2.073-.763-6.043 1.116-2.067 1.625-1.448 1.886-.279 2.541-1.186 2.464-1.99 1.794-1.21 2.066-2.209 3.133-.865 2.751-.194 1.464 1.254-.922 4.155-.916 1.864-.991 2.005-.592 4.343-.195 2.608-.585 2.591-1.728 3.506-1.143 3.049-1.142 4.722-.474 6.813.076 8.217.806 4.837 1.541 2.819 2.396.593 2.277-.991 2.006-.203 1.871.991 1.254 2.981.211 2.512-.78 2.294-1.397 1.421-.593 2.608-1.973 2.77h-1.601l-2.117-.712-1.812-4.768-1.599-.509-2.28.414-1.719 1.82-1.838 2.726-1.194 1.134-1.947.475-1.796.473h-2.583l-1.818 1.051-1.78 1.346.894 3.73.999 1.269 1.375 2.121 1.701 3.419 1.033 1.143 1.553.495 2.717.496 2.222.402 1.833.567 1.541 1.426 1.007 1.485.939 4.6-4.853.406-3.685-.639-1.913-.778-1.638-2.146-1.921-1.963-1.075-1.059-1.308-.71-1.913-.991-2.086-.474-1.045-1.244-1.139-1.778-1.507-1.955-.947-1.853-1.292-1.803-1.406-.478-1.101.03-1.236.427-1.536 1.3-1.312.203-1.376.199-1.397.102-1.379.638-2.1 2.122-1.278 1.134-1.435.559-1.139-.338.198-2.415 1.282-3.715-.104-2.439-1.329-.466-1.93 2.04-1.838.729-1.062-.538-1.549-.969-1.545-.368-1.647-.031-1.303-.266-1.57-.864-2.168-.559-1.757.703-1.545.575-2.43 4.377-2.006.267-1.211-.542-1.681-2.633-1.025.969-.634 4.435-1.841.77-1.3.101-1.206-.203-1.372.097h-1.379l-.14 3.194.47 2.548-.169 2.594-.939 5.32-.572 4.13-1.558.665-1.278.432-1.371.63-1.322 3.344-2.349 1.502-2.225.368 1.37 2.048 1.198 1.16 1.278 1.451.542 2.217-3.471.96-1.583-.939-1.435-.937-1.235-1.566-.896-2.014-1.461-3.851-1.16-.624-.035 4.121 1.354 4.032 1.202 2.358.47 2.337-1.406.849-1.278-.452-1.859-1.359-1.389-.416-1.143-.097-.931 1.588 2.861 1.058 3.583 1.278 5.877 1.282 2.851 1.215 1.702 2.194.977 4.696 1.045 4.688 1.524 3.952 1.532 2.044 3.026 1.16 1.789.662 2.495 1.031 1.741-.279 2.126-.736 2.388-.458 2.369-.195 3.598.45 2.751 1.489 1.089 1.141-.423 2.598-1.973.94-2.962-.136-2.473-.202-1.946-.28-2.193.501-1.516 1.533-1.465 1.727-.796 2.042 1.982 4.47 2.15 1.524-.25 4.464-1.608.82-1.778 1.058 1.194 2.854 2.336.88 1.49 2.193.744 2.337-.563 2.098-.932 1.616-2.312 5.681-.948 1.175-1.178 2.499.136 3.717 1.194 1.939 2.337 1.321 1.922.534 3.26-.474 1.82-.593 1.735-.195 2.082.466 1.456 1.253 1.609 1.422.931 2.946.195 2.464 1.278 2.276 1.346 2.345 1.416 5.074-1.245 1.711-1.245 1.126-2.583.983-2.938-.585-2.345-1.651-.923-1.525-.33-2.447-1.533-2.794-1.829-1.847-2.24-1.846-2.48-.204-2.26-.389-2.524-.728-1.803-1.796-1.134-1.981-.813-1.811-1.134-1.812-.788-1.811-1.633-2.397-1.067-1.887-1.795-1.135-2.217-.947-2.692.195-2.252 1.304-1.465 1.482-1.17 1.378-.948 2.794-.067 3.471.507 3.886-1.481 2.133-2.015-.795-2.066-1.33-1.676-1.887-1.438-2.05-.55-2.962.797-2.835.533-3.834-1.151-4.511-2.31-5.396-2.717-5.534-3.47-7.365-3.64-8.914-1.354-6.871-.479-4.73-1.413-3.794-1.134-4.08-1.465-2.997-3.36-1.557-2.616-1.88-1.643-1.921-1.625-1.609-1.76-.593-2.937.195-1.465.737 3.387 2.929 2.413 1.684 3.251 1.982 3.217 1.143 1.126 1.269.33 4.563-2.77.788-2.344-.136-3.489-.238-4.774 1.134-3.945.932-3.75 1.346-2.599.593-1.811.27-2.575 1.516-2.87 2.751-2.162 2.581-3.675 3.631-2.837 1.93-3.005 1.871-3.834 3.292-2.159 3.377-1.879 1.194-3.157 5.248-1.871 4.104-1.305 4.005-.939 3.503-1.186 5.224-1.803 3.706-2.835 4.046-1.127 3.065-1.819 4.85-1.338 4.679-1.218 3.655-1.278 3.165-.923 3.818-.991 1.752.66 8.185.068 4.925.474 5.02 1.625 1.96 1.472 2.667.788 2.21v2.742l-.728 3.066-2.134 2.869-2.572 2.337-2.862 1.075-2.929-.136-2.074-.533-1.915-.931-1.54-.203-2.015.389-2.006 1.33-3.68 2.976-6.753 4.79-7.058 4.554.922 2.87 1.135 1.922-.534 5.461-3.148 1.067-1.33.728-1.449 1.49-2.276 1.389-2.659.907-2.412.678-2.194.465-2.48-.135-2.456-.991-1.559-1.161-1.636-.39-1.404.338-1.102 1.381-1.923 2.176-1.886.458-1.99-.525-.827-2.382 1.955-5.334 1.015-3.734 1.457-3.141 1.253-1.794v-4.845l-.203-3.124.534-2.54 1.524-2.209.677-2.041-1.33-2.819-2.117-1.329-1.253-.534-1.33-.406-1.99-.796-1.337.525-1.923.804-1.922.729-2.26.195-1.71.026-2.29-.114h-2.417l-2.479.264-1.936.752-2.92.69-2.309-.041-2.255-.576-2.716-2.025-1.499-2.576-.792-2.98-.054-2.736.65-1.929 1.373-1.761 1.822-1.341 2.194-1.449.955-1.437-1.003-2.365-1.557.109-1.003.9-1.321.65-1.593.338-1.923.251-1.706-1.267-.618-4.49 1.72-3.576 1.653-1.85 2.031-.799 2.411-.433 2.086-.156 2.006.475 1.984-.152 1.856-.901 1.714-1.991.981-2.809 1.124-2.478 1.239-2.418 1.497-2.308 1.51-2.243.12-13.642-1.442-.468-1.11-1.063-.156-3.204 1.767-3.245 1.802-1.347 1-1.819.32-2.459-4.206-8.064-1.07-1.07-1.273-.535-2.032-.318-5.443-.217-2.465-.643-1.767-1.341-.745-1.857.346-4.14 1.213-1.355 1.821-1.898 2.398-1.761 1.233-.901 3.162-2.736.968-1.665 1.118-1.911-1.835-6.886-5.415-13.608-9.865-24.374-1.786-.859-1.66-1.334-1.442-1.802-.427-2.844.858-3.333-1.43-2.459-1.958-.264h-2.025l-1.43.264-1.286.427-1.287.312-1.49.155-1.917-.264-1.43-.752-1.124-1.55-2.019-2.385-1.143-1.418-1.49-1.016-.968-1.267-.427-3.137.738-2.235 3.048-1.273 2.188-.915 1.226-.697 1.375-2.121-.968-2.242-1.761-.907-2.1-1.131-1.713-.901-1.028-1.612-.698-2.308-.487-3.529-2.133-1.49-1.064.162-1.064.739-1.28.643-1.503.962-1.822.433H15.55l-1.179-.541-1.057-1.023-.9-1.28-1.125-1.185-1.302-1.858-1.43-1.315-1.26-1.057-.704-3.42 1.321-3.292L9.52 557.9v-2.879l2.194-1.334 1.51.162 2.478.596 2.249 1.118 1.55.806 1.653.378 1.348.739 1.083 1.618 2.044 2.201 1.599 1.592 1.165.921 2.067.962 1.984.48 2.31.319 1.448-.163 1.267-.752 1.7-2.038 1.023-.962 1.72-.589h1.232l1.179.455 1.118.685 1.936.907 1.213.739 1.984.745 2.207.162h1.564l1.652-.955 1.653-.643 1.443-1.294 1.977-2.139 1.742-2.422 2.093-2.594 1.185-3.08.65-4.089.438-3.904.378-5.132.156-4.434-.13-3.988-.27-4.083-.394-4.72-.427-3.427-2.59-3.764-2.02-1.009-2.235-.631-2.73-.203-2.135-.064-2.878-.39-3.2-1.127-2.66-1.965-4.705-3.842-5.467-4.256-4.332-3.919-1.227-1.245-1.372-.601-1.262.33-1.119.728-1.253 1.319-2.337 1.99-1.413.331-1.194-.407-1.413-3.549-1.27-.585-1.608.255-1.525.999-2.125 1.651-2.058.991-1.185.203-1.203-.728-.211-3.742-1.321-2.607-1.38-1.211-.475-2.853 2.074-3.168.398-3.124-1.194-2.058-1.067-.677-2.547-.474-1.446-.777L0 474.966l1.855-3.319 1.075-2.321 1.947-3.351 1.397-3.201.75-3.01.21-2.819.009-3.081 1.667-2.515 2.126.135 1.66.729 1.473.855 3.02 1.186 2.473.254 2.083-.203 2.26-1.397 2.193-1.269 1.21-1.084 1.262-1.202 1.524-.398 2.827-.195 2.464.376 2.66.271 2.47.103 1.609-6.813 1.811-9.377.517-3.013-1.83-2.61-1.388-1.305-1.641-1.871-1.346-2.853 1.134-3.041.388-3.047-1.6-.637-1.752-.265-1.032-1.286 1.008-3.083 1.185-5.301-.21-4.352-.935-3.154-.257-4.597-1.465-2.456-2.133.338-1.728.864-2.057-.135-1.72-1.711-1.727-2.556-1.262-.72-.406-2.269.923-1.541 1.143-1.127 2.074-1.464 2.007-.271 1.472.609 2.7 1.397 1.21.271 1.684.398 1.127.33 1.532 2.464 2.361.601 4.03-.254 3.579-.533 1.938-1.143 1.016-3.726.931-5.458 1.533-8.134.752-7.354 1.016-10.823.287-12.455V324.42l-.066-10.523-1.684-4.267-1.48-3.173-1.668-2.676-1.787-4.072-3.785-2.066-2.05.398-1.87.796-1.796.797-1.457.389-1.946.593-2.54-.203-2.894-.939-2.193-2.118-2.489-2.142-1.99-2.894.117-3.414.94-1.253 1.201-.737 1.406-.669 1.549-.593 1.786-.33 1.533-1.261-.406-4.057 1.38-3.717.39-4.029-1.312-1.254-1.804-1.922-1.126-1.322.203-3.192 1.058-.863 1.33-.466-1.972-5.586-1.465-4.173-.744-1.803-.338-5.139-3.615-3.798-2.098-3.098-1.347-3.014-.405-3.504-.204-3.435 1.143-4.105 1.877-2.694 1.337-1.803 2.11-1.616 2.336-1.279 4.3-1.871 3.63-1.727 4.392-3.013 3.886-2.811 3.36-2.902 4.03-2.15 2.157-2.962 3.022-4.707 2.496-2.818 4.517-7.354 4.189-5.849 4.95-7.625 2.942-4.324 2.548-5.231.301-11.823-.339-8.453-.745-7.82-1.082-6.932-2.26-7.21-2.432-10.065-1.896-8.649-1.998-11.846-.999-8.25L67.34 71.24l-1.579-7.183-1.668-6.035-2.696-7.057-1.319-2.77-1.044-1.894-1.294-3.31z" fill="url(#a)"/><defs><linearGradient id="a" x1="176.534" x2="176.534" y2="800" gradientUnits="userSpaceOnUse"><stop stop-color="#E9FAF6"/><stop offset="1" stop-color="#E9F7FA"/></linearGradient></defs></svg>