<svg width="148" height="136" viewBox="0 0 148 136" fill="none" xmlns="http://www.w3.org/2000/svg"><path d="M70.717 9.176C42 44.25 17.444 22.558 0 9.176V145.68c29.23 14.052 77 43.569 130.119-28.104S99.434-25.898 70.717 9.176z" fill="#BFD2FD"/><path d="M70.717 9.176C42 44.25 17.444 22.558 0 9.176V145.68c29.23 14.052 77 43.569 130.119-28.104S99.434-25.898 70.717 9.176z" fill="url(#a)"/><path d="M-9.5 155.367V20.191c.519.4 1.045.808 1.577 1.22C.29 27.774 10.058 35.34 21.02 37.834c6.043 1.377 12.456 1.216 19.174-1.516 6.71-2.73 13.694-8.012 20.91-16.826 7.024-8.579 17.424-10.654 28.351-7.771 10.941 2.886 22.362 10.74 31.26 21.936 17.778 22.372 25.41 57.99-.998 93.622-26.49 35.744-51.576 46.172-73.612 45.997-19.561-.155-36.798-8.654-50.666-15.491a634.936 634.936 0 0 0-4.94-2.418z" stroke="url(#b)"/><defs><linearGradient id="a" x1="72.109" y1="150.848" x2="72.109" y2="6.843" gradientUnits="userSpaceOnUse"><stop stop-color="#BFD2FD"/><stop offset="1" stop-color="#B4CAFD"/></linearGradient><linearGradient id="b" x1="63.689" y1="173.778" x2="63.689" y2="10" gradientUnits="userSpaceOnUse"><stop stop-color="#3352A1"/><stop offset="1" stop-color="#132450"/></linearGradient></defs></svg>