<svg width="164" height="164" viewBox="0 0 164 164" fill="none" xmlns="http://www.w3.org/2000/svg"><path d="M141.423 84.127a9.544 9.544 0 0 0-6.932-2.947 9.55 9.55 0 0 0-6.932 2.947c-18.659 19.368-22.577 30.805-22.577 36.99 0 16.227 13.238 29.43 29.509 29.43S164 137.344 164 121.117c0-6.185-3.916-17.622-22.577-36.99z" fill="#BFD2FD"/><path d="M141.423 84.127a9.544 9.544 0 0 0-6.932-2.947 9.55 9.55 0 0 0-6.932 2.947c-18.659 19.368-22.577 30.805-22.577 36.99 0 16.227 13.238 29.43 29.509 29.43S164 137.344 164 121.117c0-6.185-3.916-17.622-22.577-36.99z" fill="url(#a)"/><path d="M40.343 58.468c0-6.082-4.896-14.247-14.552-24.268a7.84 7.84 0 0 0-5.619-2.39c-2.108 0-4.158.87-5.62 2.39C4.896 44.22 0 52.386 0 58.468c0 11.096 9.049 20.124 20.172 20.124 11.122 0 20.171-9.028 20.171-20.124z" fill="url(#b)"/><path d="M36.697 118.014c-12.681 0-23 10.292-23 22.946 0 12.653 10.317 22.947 23 22.947s23-10.294 23-22.947c0-12.654-10.317-22.946-23-22.946z" fill="url(#c)"/><path d="M72.5 77.014c-10.367 0-18.803 8.414-18.803 18.76 0 10.343 8.435 18.759 18.804 18.759 10.368 0 18.803-8.416 18.803-18.76 0-10.345-8.435-18.76-18.803-18.76z" fill="#BFD2FD"/><path d="M72.5 77.014c-10.367 0-18.803 8.414-18.803 18.76 0 10.343 8.435 18.759 18.804 18.759 10.368 0 18.803-8.416 18.803-18.76 0-10.345-8.435-18.76-18.803-18.76z" fill="url(#d)"/><path d="M122.478 72.516a4.805 4.805 0 0 0 9.61 0c0-10.344 8.485-18.759 18.918-18.759a4.805 4.805 0 0 0 0-9.609c-10.431 0-18.918-8.388-18.918-18.698a4.806 4.806 0 0 0-9.61 0c0 10.344-8.487 18.758-18.918 18.758a4.805 4.805 0 0 0 0 9.61c10.431 0 18.918 8.388 18.918 18.698z" fill="url(#e)"/><path d="M91.846 23.502c-10.432 0-18.919-8.387-18.919-18.697a4.804 4.804 0 1 0-9.609 0c0 10.342-8.487 18.758-18.918 18.758a4.804 4.804 0 1 0 0 9.61c10.431 0 18.918 8.386 18.918 18.696a4.804 4.804 0 1 0 9.61 0c0-10.342 8.486-18.758 18.918-18.758a4.804 4.804 0 1 0 0-9.61z" fill="url(#f)"/><defs><linearGradient id="a" x1="134.491" y1="81.18" x2="134.491" y2="150.547" gradientUnits="userSpaceOnUse"><stop stop-color="#BFD2FD"/><stop offset="1" stop-color="#B4CAFD"/></linearGradient><linearGradient id="b" x1="20.172" y1="31.81" x2="20.172" y2="78.592" gradientUnits="userSpaceOnUse"><stop stop-color="#3352A1"/><stop offset="1" stop-color="#132450"/></linearGradient><linearGradient id="c" x1="36.697" y1="118.014" x2="36.697" y2="163.907" gradientUnits="userSpaceOnUse"><stop stop-color="#FD676C"/><stop offset="1" stop-color="#FD5C62"/></linearGradient><linearGradient id="d" x1="72.501" y1="77.014" x2="72.501" y2="114.533" gradientUnits="userSpaceOnUse"><stop stop-color="#BFD2FD"/><stop offset="1" stop-color="#B4CAFD"/></linearGradient><linearGradient id="e" x1="127.283" y1="20.645" x2="127.283" y2="77.32" gradientUnits="userSpaceOnUse"><stop stop-color="#3352A1"/><stop offset="1" stop-color="#132450"/></linearGradient><linearGradient id="f" x1="68.123" x2="68.123" y2="56.674" gradientUnits="userSpaceOnUse"><stop stop-color="#FD676C"/><stop offset="1" stop-color="#FD5C62"/></linearGradient></defs></svg>