<!DOCTYPE svg PUBLIC "-//W3C//DTD SVG 20010904//EN" "http://www.w3.org/TR/2001/REC-SVG-20010904/DTD/svg10.dtd">
<svg version="1.0" xmlns="http://www.w3.org/2000/svg" width="127px" height="24px" viewBox="0 0 1270 240" preserveAspectRatio="xMidYMid meet">
<g id="layer1" fill="#b27cf5" stroke="none">
 <path d="M10 225 c-9 -10 -10 -27 -5 -53 4 -20 10 -61 14 -91 8 -69 32 -89 62 -51 13 17 18 35 15 56 -4 28 -2 30 20 26 20 -4 24 -10 24 -39 0 -71 37 -96 65 -43 18 35 18 67 1 140 -11 51 -15 55 -43 58 -23 2 -35 -3 -46 -18 l-15 -22 -23 26 c-25 29 -51 33 -69 11z"/>
 </g>
<g id="layer2" fill="#616161" stroke="none">
 <path d="M446 223 c-4 -9 -2 -31 5 -50 8 -26 8 -37 -2 -49 -10 -12 -15 -9 -29 24 -26 58 -64 84 -119 80 -41 -3 -46 -6 -54 -35 -13 -43 0 -122 20 -130 26 -10 55 34 47 71 -6 30 -6 30 16 15 13 -9 30 -33 37 -54 18 -51 28 -61 48 -45 11 9 22 10 42 2 16 -6 45 -13 65 -15 61 -9 112 45 76 81 -9 9 -7 16 6 31 10 11 16 28 14 38 -8 43 -157 75 -172 36z"/>
 <path d="M642 228 c-18 -18 -15 -30 19 -102 38 -79 86 -121 128 -111 25 5 30 12 35 50 5 31 13 46 27 50 19 6 26 39 10 49 -4 3 -11 19 -14 35 -7 32 -34 47 -67 36 -11 -3 -20 -12 -20 -20 0 -7 -11 -15 -25 -17 -17 -4 -25 -1 -25 8 0 13 -30 34 -47 34 -5 0 -14 -5 -21 -12z"/>
 <path d="M891 231 c-12 -8 -13 -20 -3 -72 9 -50 18 -67 44 -90 43 -37 71 -37 97 0 26 37 27 77 2 93 -19 11 -18 13 10 30 17 10 29 24 26 31 -5 16 -61 21 -98 8 -18 -6 -31 -6 -34 0 -8 11 -26 11 -44 0z"/>
 <path d="M1107 233 c-11 -10 -8 -72 3 -94 9 -16 7 -19 -10 -19 -25 0 -49 -45 -33 -61 5 -5 52 -11 104 -12 l94 -2 3 28 c3 21 -1 27 -17 27 -35 0 -51 12 -72 51 -12 25 -17 48 -13 64 6 22 3 25 -23 25 -16 0 -33 -3 -36 -7z"/>
 </g>

</svg>