<svg xmlns="http://www.w3.org/2000/svg" viewBox="0 0 512 512" width="512" height="512"><g fill="#73ae20"><path d="M119.467 153.6c23.893 0 42.667-18.773 42.667-42.667 0-1.273-.064-2.529-.169-3.771l79.271-50.445c5.698 16.804 21.416 28.617 40.365 28.617 20.421 0 37.09-13.718 41.508-32.62l86.52 14.42c-.009.378-.028.753-.028 1.133 0 23.893 18.773 42.667 42.667 42.667 23.893 0 42.667-18.773 42.667-42.667 0-23.893-18.773-42.667-42.667-42.667-17.379 0-32.04 9.937-38.748 24.547l-89.898-14.983C320.161 14.96 302.926 0 281.6 0c-22.142 0-39.876 16.126-42.358 37.505l-82.46 52.474c-7.226-13.045-21.086-21.713-37.316-21.713-23.893 0-42.667 18.773-42.667 42.667.001 23.894 18.774 42.667 42.668 42.667zm332.8-110.933c14.507 0 25.6 11.093 25.6 25.6s-11.093 25.6-25.6 25.6c-14.507 0-25.6-11.093-25.6-25.6s11.093-25.6 25.6-25.6zM281.6 17.067c14.036 0 24.876 10.386 25.564 24.201a9.317 9.317 0 0 0 .007 2.596c-.592 13.915-11.467 24.404-25.571 24.404-13.636 0-24.254-9.803-25.48-23.028.599-1.701.61-3.595.031-5.447 1.36-13.073 11.917-22.726 25.449-22.726zM119.467 85.333c14.507 0 25.6 11.093 25.6 25.6s-11.093 25.6-25.6 25.6-25.6-11.093-25.6-25.6 11.093-25.6 25.6-25.6z"/><path d="M503.467 477.867h-8.533v-8.533c0-5.12-3.413-8.533-8.533-8.533s-8.533 3.413-8.533 8.533v8.533h-25.6v-8.533c0-5.12-3.413-8.533-8.533-8.533s-8.533 3.413-8.533 8.533v8.533h-25.6v-8.533c0-5.12-3.413-8.533-8.533-8.533-5.12 0-8.533 3.413-8.533 8.533v8.533h-25.6v-8.533c0-5.12-3.413-8.533-8.533-8.533s-8.533 3.413-8.533 8.533v8.533h-25.6v-8.533c0-5.12-3.413-8.533-8.533-8.533s-8.533 3.413-8.533 8.533v8.533h-25.6v-8.533c0-5.12-3.413-8.533-8.533-8.533-5.12 0-8.533 3.413-8.533 8.533v8.533h-25.6v-8.533c0-5.12-3.413-8.533-8.533-8.533s-8.533 3.413-8.533 8.533v8.533h-25.6v-8.533c0-5.12-3.413-8.533-8.533-8.533s-8.533 3.413-8.533 8.533v8.533h-25.6v-8.533c0-5.12-3.413-8.533-8.533-8.533-5.12 0-8.533 3.413-8.533 8.533v8.533h-25.6v-8.533c0-5.12-3.413-8.533-8.533-8.533s-8.533 3.413-8.533 8.533v8.533h-25.6v-8.533c0-5.12-3.413-8.533-8.533-8.533s-8.533 3.413-8.533 8.533v8.533H34.133v-51.2h8.533c5.12 0 8.533-3.413 8.533-8.533s-3.413-8.533-8.533-8.533h-8.533V384h8.533c5.12 0 8.533-3.413 8.533-8.533s-3.413-8.533-8.533-8.533h-8.533v-25.6h8.533c5.12 0 8.533-3.413 8.533-8.533 0-5.12-3.413-8.533-8.533-8.533h-8.533v-25.6h8.533c5.12 0 8.533-3.413 8.533-8.533s-3.413-8.533-8.533-8.533h-8.533V256h8.533c5.12 0 8.533-3.413 8.533-8.533s-3.413-8.533-8.533-8.533h-8.533v-25.6h8.533c5.12 0 8.533-3.413 8.533-8.533 0-5.12-3.413-8.533-8.533-8.533h-8.533v-25.6h8.533c5.12 0 8.533-3.413 8.533-8.533s-3.413-8.533-8.533-8.533h-8.533V128h8.533c5.12 0 8.533-3.413 8.533-8.533s-3.413-8.533-8.533-8.533h-8.533v-25.6h8.533c5.12 0 8.533-3.413 8.533-8.533s-3.413-8.533-8.533-8.533h-8.533v-25.6h8.533c5.12 0 8.533-3.413 8.533-8.533 0-5.12-3.413-8.533-8.533-8.533h-8.533V8.533C34.133 3.413 30.72 0 25.6 0s-8.533 3.413-8.533 8.533V25.6H8.533C3.413 25.6 0 29.013 0 34.133c0 5.12 3.413 8.533 8.533 8.533h8.533v25.6H8.533C3.413 68.267 0 71.68 0 76.8s3.413 8.533 8.533 8.533h8.533v25.6H8.533c-5.12 0-8.533 3.413-8.533 8.533S3.413 128 8.533 128h8.533v25.6H8.533c-5.12 0-8.533 3.413-8.533 8.533s3.413 8.533 8.533 8.533h8.533v25.6H8.533C3.413 196.267 0 199.68 0 204.8c0 5.12 3.413 8.533 8.533 8.533h8.533v25.6H8.533c-5.12 0-8.533 3.413-8.533 8.533S3.413 256 8.533 256h8.533v25.6H8.533c-5.12 0-8.533 3.413-8.533 8.533s3.413 8.533 8.533 8.533h8.533v25.6H8.533C3.413 324.267 0 327.68 0 332.8c0 5.12 3.413 8.533 8.533 8.533h8.533v25.6H8.533c-5.12 0-8.533 3.413-8.533 8.533S3.413 384 8.533 384h8.533v25.6H8.533c-5.12 0-8.533 3.413-8.533 8.533s3.413 8.533 8.533 8.533h8.533v25.6H8.533C3.413 452.267 0 455.68 0 460.8c0 5.12 3.413 8.533 8.533 8.533h8.533V486.4c0 5.12 3.413 8.533 8.533 8.533h25.6v8.533c0 5.12 3.413 8.533 8.533 8.533s8.533-3.413 8.533-8.533v-8.533h25.6v8.533c0 5.12 3.413 8.533 8.533 8.533s8.533-3.413 8.533-8.533v-8.533h25.6v8.533c0 5.12 3.413 8.533 8.533 8.533 5.12 0 8.533-3.413 8.533-8.533v-8.533h25.6v8.533c0 5.12 3.413 8.533 8.533 8.533s8.533-3.413 8.533-8.533v-8.533h25.6v8.533c0 5.12 3.413 8.533 8.533 8.533s8.533-3.413 8.533-8.533v-8.533h25.6v8.533c0 5.12 3.413 8.533 8.533 8.533 5.12 0 8.533-3.413 8.533-8.533v-8.533h25.6v8.533c0 5.12 3.413 8.533 8.533 8.533s8.533-3.413 8.533-8.533v-8.533h25.6v8.533c0 5.12 3.413 8.533 8.533 8.533s8.533-3.413 8.533-8.533v-8.533h25.6v8.533c0 5.12 3.413 8.533 8.533 8.533 5.12 0 8.533-3.413 8.533-8.533v-8.533h25.6v8.533c0 5.12 3.413 8.533 8.533 8.533s8.533-3.413 8.533-8.533v-8.533h25.6v8.533c0 5.12 3.413 8.533 8.533 8.533s8.533-3.413 8.533-8.533v-8.533h8.533c5.12 0 8.533-3.413 8.533-8.533s-3.404-8.533-8.524-8.533z"/><path d="M153.6 331.093c0-8.533-6.827-15.36-15.36-15.36H83.627a15.297 15.297 0 0 0-15.36 15.36V435.2H153.6V331.093zm-17.067 87.04h-51.2V332.8h51.2v85.333zm58.027-256a15.297 15.297 0 0 0-15.36 15.36V435.2h85.333V177.493c0-8.533-6.827-15.36-15.36-15.36H194.56zm52.907 256h-51.2V179.2h51.2v238.933zm58.026-170.666a15.297 15.297 0 0 0-15.36 15.36V435.2h85.333V262.827c0-8.533-6.827-15.36-15.36-15.36h-54.613zM358.4 418.133h-51.2v-153.6h51.2v153.6zm112.64-273.066h-54.613a15.297 15.297 0 0 0-15.36 15.36V435.2H486.4V160.427c0-8.534-6.827-15.36-15.36-15.36zm-1.707 273.066h-51.2v-256h51.2v256z"/></g></svg>