<svg id="Layer_1" xmlns="http://www.w3.org/2000/svg" viewBox="0 0 512 512"><style>.st0{fill:#1b2a4b}</style><path class="st0" d="M157.9 358.4c0 4.7 3.8 8.5 8.5 8.5h119.5c4.7 0 8.5-3.8 8.5-8.5s-3.8-8.5-8.5-8.5H166.4c-4.7 0-8.5 3.8-8.5 8.5zm0-34.1c0 4.7 3.8 8.5 8.5 8.5h76.8c4.7 0 8.5-3.8 8.5-8.5s-3.8-8.5-8.5-8.5h-76.8c-4.7-.1-8.5 3.8-8.5 8.5zm8.5 85.3c-4.7 0-8.5 3.8-8.5 8.5s3.8 8.5 8.5 8.5h93.9c4.7 0 8.5-3.8 8.5-8.5s-3.8-8.5-8.5-8.5h-93.9zm-45.9-100.5c-3.7-2.9-9.1-2.3-12 1.3l-28.2 35.2L70 335.3c-3.3-3.3-8.7-3.3-12.1 0s-3.3 8.7 0 12.1l17.1 17c3.6 3.6 9.5 3.3 12.7-.7l34.1-42.7c3-3.6 2.4-9-1.3-11.9zm182.4 134.6H166.4c-4.7 0-8.5 3.8-8.5 8.5s3.8 8.5 8.5 8.5h136.5c4.7 0 8.5-3.8 8.5-8.5.1-4.6-3.8-8.5-8.5-8.5zm-182.4-40.8c-3.7-2.9-9.1-2.3-12 1.3l-28.2 35.2L70 429.2c-3.3-3.3-8.7-3.3-12.1 0-3.3 3.3-3.3 8.7 0 12.1l17.1 17c3.6 3.6 9.5 3.3 12.7-.7l34.1-42.7c3-3.6 2.4-9-1.3-12zM89.6 264.5c4.7 0 8.5-3.8 8.5-8.5v-93.9c0-4.7-3.8-8.5-8.5-8.5H55.5c-4.7 0-8.5 3.8-8.5 8.5V256c0 4.7 3.8 8.5 8.5 8.5h34.1zM64 170.7h17.1v76.8H64v-76.8zM166.4 256V102.4c0-4.7-3.8-8.5-8.5-8.5h-34.1c-4.7 0-8.5 3.8-8.5 8.5V256c0 4.7 3.8 8.5 8.5 8.5h34.1c4.7 0 8.5-3.8 8.5-8.5zm-17.1-8.5h-17.1V110.9h17.1v136.6zm42.7 17h34.1c4.7 0 8.5-3.8 8.5-8.5V136.5c0-4.7-3.8-8.5-8.5-8.5H192c-4.7 0-8.5 3.8-8.5 8.5V256c0 4.7 3.8 8.5 8.5 8.5zm8.5-119.4h17.1v102.4h-17.1V145.1z"/><path class="st0" d="M500.2 365.9L464.3 330c-7.9-7.9-19.6-9.5-29.1-5l-23.5-23.5c27.5-33.5 25.6-83.1-5.7-114.3l-.6-.6V128c0-2.1-.7-3.9-1.9-5.4l-.6-.6L283.4 2.5l-.6-.6-.1-.1c-.2-.1-.3-.3-.5-.4-.1 0-.1-.1-.2-.1-.2-.1-.4-.2-.5-.3-.1 0-.1-.1-.2-.1l-.6-.3c-.1 0-.1 0-.2-.1-.2-.1-.4-.2-.6-.2-.1 0-.2 0-.3-.1-.2 0-.3-.1-.5-.1s-.4-.1-.6-.1H12.8C8.1 0 4.3 3.8 4.3 8.5v494.9c0 4.7 3.8 8.5 8.5 8.5h384c4.7 0 8.5-3.8 8.5-8.5V319.3l17.8 17.8c-4.5 9.5-2.9 21.3 5 29.1l35.9 35.9c10 10 26.2 10 36.2 0s10-26.2 0-36.2zm-106.3-70.2c-.6.6-1.3 1.2-1.9 1.8-.3.2-.6.4-.9.7-22.7 20.4-55.6 22.9-80.7 7.7 0 0-.1 0-.1-.1-.9-.5-1.8-1.1-2.6-1.7-.1 0-.1-.1-.2-.1-.8-.6-1.7-1.2-2.5-1.8-.1 0-.1-.1-.2-.2-2.6-1.9-5.1-4.1-7.4-6.4-7-7-12.1-15.1-15.4-23.8-9.3-24.1-4.3-52.5 14.8-72.1.2-.2.4-.4.6-.7.8-.8 1.6-1.6 2.5-2.4.4-.4.8-.7 1.2-1.1.4-.4.9-.8 1.3-1.2.5-.4 1.1-.8 1.6-1.3.3-.3.7-.5 1-.8.6-.5 1.2-.9 1.9-1.3.3-.2.5-.4.8-.6.7-.5 1.4-.9 2.1-1.3.2-.1.4-.3.6-.4.8-.5 1.6-.9 2.4-1.3.2-.1.3-.2.5-.3.9-.5 1.7-.9 2.6-1.3.1 0 .2-.1.3-.1.9-.4 1.9-.9 2.8-1.3h.1c23.7-10 51.9-6 72.1 12.1.3.2.5.4.8.6.7.6 1.3 1.2 2 1.9 26.5 27 26.5 70.2-.1 96.8zm-108-266.6l90.3 90.3h-90.3V29.1zM21.3 494.9V17.1h247.5V128c0 4.7 3.8 8.5 8.5 8.5h110.9v37c-22.4-12.9-49.3-14.9-73-5.8-.2.1-.3.1-.5.2-.9.3-1.8.7-2.6 1.1-.3.1-.6.3-.9.4-.8.4-1.6.7-2.4 1.1-.3.2-.7.3-1 .5-.8.4-1.6.8-2.3 1.2-.3.1-.5.3-.8.4-1.3.7-2.6 1.5-3.9 2.3-.5.3-1.1.7-1.6 1-.5.3-1 .7-1.6 1.1-.6.4-1.2.8-1.7 1.2-.5.3-1 .7-1.4 1.1-.6.5-1.2.9-1.8 1.4-.4.3-.9.7-1.3 1-.7.6-1.3 1.1-2 1.7-.3.3-.7.6-1 .9-1 .9-2 1.8-2.9 2.8-.3.3-.5.6-.8.8-24.3 25-30.3 61.1-17.9 91.6 4.2 10.3 10.4 19.9 18.7 28.2.3.3.6.5.8.8.7.6 1.3 1.3 2 1.9.5.4.9.8 1.4 1.2.5.5 1.1.9 1.6 1.4.5.4 1 .8 1.6 1.3l1.5 1.2c.6.4 1.1.8 1.7 1.3.5.3.9.7 1.4 1 .6.4 1.2.9 1.9 1.3l.9.6c2.6 1.6 5.3 3.1 8 4.5l.6.3c.9.4 1.8.9 2.7 1.3.2.1.3.1.5.2l3 1.2h.1c23.8 9.1 50.9 7.2 73.3-5.7v173.6l-367.2-.2zM488.2 390c-3.3 3.3-8.7 3.3-12.1 0l-35.9-35.9c-3.3-3.3-3.3-8.7 0-12.1s8.7-3.3 12.1 0l35.9 35.9c3.3 3.4 3.3 8.8 0 12.1z"/></svg>