<svg id="Layer_1" xmlns="http://www.w3.org/2000/svg" viewBox="0 0 512 512"><style>.st0{fill:#1b2a4b}</style><path class="st0" d="M110.9 384c-4.7 0-8.5 3.8-8.5 8.5s3.8 8.5 8.5 8.5 8.5-3.8 8.5-8.5-3.7-8.5-8.5-8.5zM59.7 93.9h187.7c4.7 0 8.5-3.8 8.5-8.5s-3.8-8.5-8.5-8.5H59.7c-4.7 0-8.5 3.8-8.5 8.5s3.8 8.5 8.5 8.5zm0 68.2h221.9c4.7 0 8.5-3.8 8.5-8.5s-3.8-8.5-8.5-8.5H59.7c-4.7 0-8.5 3.8-8.5 8.5s3.8 8.5 8.5 8.5zm0 68.3h290.1c4.7 0 8.5-3.8 8.5-8.5s-3.8-8.5-8.5-8.5H59.7c-4.7 0-8.5 3.8-8.5 8.5s3.8 8.5 8.5 8.5zm0 68.3h290.1c4.7 0 8.5-3.8 8.5-8.5s-3.8-8.5-8.5-8.5H59.7c-4.7 0-8.5 3.8-8.5 8.5s3.8 8.5 8.5 8.5zM76.8 384H59.7c-4.7 0-8.5 3.8-8.5 8.5s3.8 8.5 8.5 8.5h17.1c4.7 0 8.5-3.8 8.5-8.5s-3.8-8.5-8.5-8.5zm85.3-17.1c4.7 0 8.5 3.8 8.5 8.5s3.8 8.5 8.5 8.5 8.5-3.8 8.5-8.5c0-11.1-7.1-20.6-17.1-24.1v-1.5c0-4.7-3.8-8.5-8.5-8.5s-8.5 3.8-8.5 8.5v1.5c-9.9 3.5-17.1 13-17.1 24.1 0 14.1 11.5 25.6 25.6 25.6 4.7 0 8.5 3.8 8.5 8.5s-3.8 8.5-8.5 8.5-8.5-3.8-8.5-8.5-3.8-8.5-8.5-8.5-8.5 3.8-8.5 8.5c0 11.1 7.1 20.6 17.1 24.1v1.5c0 4.7 3.8 8.5 8.5 8.5s8.5-3.8 8.5-8.5v-1.5c9.9-3.5 17.1-13 17.1-24.1 0-14.1-11.5-25.6-25.6-25.6-4.7 0-8.5-3.8-8.5-8.5s3.8-8.5 8.5-8.5z"/><path class="st0" d="M504.5 262.2l-24.3-24.3c-9.9-9.9-26.1-9.9-36 0l-34.6 34.6V110.3c0-.4-.1-.7-.1-1-.1-.4-.2-.8-.3-1.1 0 0 0-.1-.1-.1-.3-.7-.6-1.4-1.1-2.1 0 0 0-.1-.1-.1-.3-.4-.6-.7-.9-1L304.8 2.6c-.3-.3-.6-.6-1-.8l-.1-.1c-.6-.5-1.3-.8-2-1.1-.1 0-.1 0-.2-.1-.4-.1-.7-.2-1.1-.3h-.1c-.3-.1-.7-.1-1-.1H8.5C3.8 0 0 3.8 0 8.5v494.9c0 4.7 3.8 8.5 8.5 8.5H401c4.7 0 8.5-3.8 8.5-8.5V393.1l95-94.9c10-9.9 10-26.1 0-36zM395.1 383.5l-.1.1-26.2 26.2-36.2-36.2 74.5-74.5 12.9-12.9 36.2 36.2-61.1 61.1zm-70.2 6.6l27.5 27.5-37.8 10.3 10.3-37.8zm-17.7-361l73.3 73.3h-73.3V29.1zm85.3 465.8H17.1V17.1h273.1V111c0 4.7 3.8 8.5 8.5 8.5h93.9v170.1l-79.7 79.7-18.1 66.4-4.4 4.4c-3.3 3.3-3.3 8.7 0 12v.1h.1c1.7 1.6 3.8 2.4 6 2.4s4.4-.8 6-2.5l4.4-4.4 66.4-18.1 19.3-19.3-.1 84.6zm100-208.8l-24.2 24.2-36.3-36.1 24.2-24.2c3.3-3.3 8.6-3.3 11.9 0l24.3 24.3c3.4 3.2 3.4 8.6.1 11.8z"/></svg>