<svg id="Layer_1" xmlns="http://www.w3.org/2000/svg" viewBox="0 0 506.3 389.9"><style>.st0{fill:#1b2a4b}</style><path class="st0" d="M393.6 389.9c-18.3 0-32.1-13.8-32.1-32.1 0-13.9 8.4-25.6 21.4-30l1.9-.6V178.6l-138.6-55.7h-.4c-11.4-1.1-18.4-5.5-18.4-8.8 0-3.6 8.6-8.8 20.5-8.8 10.8 0 17.5 3.8 19.9 7l.5.6 125.4 50.9 82.6-31.9c8.2-2.8 13.5-9.8 13.5-17.8 0-8.5-4.6-14.1-12.6-15.6L274.5 23.9c-8.3-3.3-17.2-5-26.4-5-9.3 0-18.7 1.7-28 5L30 96.3c-12.2 4.6-12.3 17.3-12.3 17.8 0 4.5 2.6 13 12.3 16.6l202.9 73.5c9.1 3 18.1 4.5 26.9 4.5 8.9 0 17.3-1.5 25.2-4.6l46.6-17.5c.9-.4 1.9-.6 2.8-.6 3.7 0 7.3 2.5 8.7 5.9 1.7 4.2-.9 9.7-5.4 11.5L291 220.9l-.1.1c-8.6 4.3-19.8 6.7-31.4 6.7-10.4 0-21.8-2-32.9-5.7L23.8 147.6C9.4 142 0 128.8 0 114.1c0-15.9 9.3-29.5 23.8-34.6L213.9 5.9C224.6 2 235.8 0 247.3 0s22.7 2 33.4 5.9l202.9 74.6c14.8 5.7 23.7 19.2 22.6 34.5v.2c0 15.4-10 29.3-24.9 34.6l-80 29.9v127.8l4.1-2.1c5.3-2.6 8.9-5.2 12.4-8.7l.8-.8v-88.6c0-5.4 3.4-8.8 8.8-8.8s8.8 3.4 8.8 8.8v93.3c0 1.7-.9 4.3-2.6 6.1-7.9 6.6-17.1 13.2-25.2 18.3l-4.3 2.7 4.5 2.3c10.5 5.3 17.1 15.9 17.1 27.8.1 18.3-13.7 32.1-32.1 32.1zm0-45.5c-8.5 0-14.5 6-14.5 14.5s6 14.5 14.5 14.5 14.5-6 14.5-14.5c0-4.2-1.4-7.8-4-10.5-2.6-2.6-6.3-4-10.5-4z"/><path class="st0" d="M253.7 367.8c-56.2 0-136.5-21-181.2-61.1l-.3-.3-.3-.2c-.9-.5-1.9-2.7-1.9-5.6v-93.3c0-5.4 3.4-8.8 8.8-8.8s8.8 3.4 8.8 8.8v88.8l1 .8c36.7 30.8 106.1 53.1 165.1 53.1 23.1 0 46.7-2.9 68.3-8.2h.2l.2-.1c.7-.3 1.4-.4 2.1-.4 3.2 0 6.2 2.9 6.9 6.5l.1.3.1.2c1 2.4.1 4.7-.6 5.8-1.2 2.3-3.3 3.9-5.5 4.4h-.1c-25.1 6-50.6 9.3-71.7 9.3z"/></svg>