<svg id="Capa_1" xmlns="http://www.w3.org/2000/svg" viewBox="0 0 512 512"><style>.st0{fill:#1b2a4b}</style><path class="st0" d="M494.3 313.9l-25-25c-9.9-9.9-27.2-9.9-37.1 0L297 424.1l-18.6 68.4-4.6 4.6c-3.4 3.4-3.4 8.9-.1 12.3v.2h.2c1.7 1.7 3.9 2.5 6.1 2.5 2.2 0 4.5-.9 6.2-2.6l4.6-4.6 68.3-18.6L494.3 351c10.3-10.2 10.3-26.9 0-37.1zm-177 114.7l90-90 37.3 37.3-90 90-37.3-37.3zm-8 17l28.3 28.3-38.9 10.6 10.6-38.9zm172.6-107L457 363.5l-37.3-37.3 24.9-24.9c3.3-3.3 9-3.3 12.2 0l25 25c3.5 3.4 3.5 8.9.1 12.3zM71.5 316.3H300c4.9 0 8.8-3.9 8.8-8.8s-3.9-8.8-8.8-8.8H71.5c-4.9 0-8.8 3.9-8.8 8.8s3.9 8.8 8.8 8.8zm193.3 35.2H71.5c-4.9 0-8.8 3.9-8.8 8.8s3.9 8.8 8.8 8.8h193.3c4.9 0 8.8-3.9 8.8-8.8s-4-8.8-8.8-8.8zM71.5 158.2h114.2c4.9 0 8.8-3.9 8.8-8.8s-3.9-8.8-8.8-8.8H71.5c-4.9 0-8.8 3.9-8.8 8.8 0 4.8 3.9 8.8 8.8 8.8zm114.2 263.6c4.9 0 8.8-3.9 8.8-8.8s-3.9-8.8-8.8-8.8H71.5c-4.9 0-8.8 3.9-8.8 8.8s3.9 8.8 8.8 8.8h114.2zm140.6-228.5H71.5c-4.9 0-8.8 3.9-8.8 8.8s3.9 8.8 8.8 8.8h254.8c4.9 0 8.8-3.9 8.8-8.8s-3.9-8.8-8.8-8.8zM71.5 263.6h123c4.9 0 8.8-3.9 8.8-8.8s-3.9-8.8-8.8-8.8h-123c-4.9 0-8.8 3.9-8.8 8.8s3.9 8.8 8.8 8.8zm263.6-8.8c0-4.9-3.9-8.8-8.8-8.8h-61.5c-4.9 0-8.8 3.9-8.8 8.8s3.9 8.8 8.8 8.8h61.5c4.9 0 8.8-3.9 8.8-8.8zm-99.2 6.2c1.6-1.7 2.5-4 2.5-6.2 0-2.3-1-4.6-2.5-6.2-3.3-3.3-9.2-3.3-12.5 0-1.6 1.7-2.5 4-2.5 6.2 0 2.4 1 4.6 2.5 6.2 1.7 1.6 4 2.5 6.2 2.5 2.3.1 4.6-.9 6.3-2.5z"/><path class="st0" d="M229.6 492.1H27.5V70.3H89v17.6c0 4.9 3.9 8.8 8.8 8.8h202.1c4.9 0 8.8-3.9 8.8-8.8V70.3h61.5v193.3c0 4.9 3.9 8.8 8.8 8.8s8.8-3.9 8.8-8.8V61.5c0-4.9-3.9-8.8-8.8-8.8h-70.3V35.1c0-4.9-3.9-8.8-8.8-8.8h-52.7V8.8c0-4.9-3.9-8.8-8.8-8.8h-79.1c-4.9 0-8.8 3.9-8.8 8.8v17.6H97.8c-4.9 0-8.8 3.9-8.8 8.8v17.6H18.8c-4.9 0-8.8 3.9-8.8 8.8v439.3c0 4.9 3.9 8.8 8.8 8.8h210.9c4.9 0 8.8-3.9 8.8-8.8-.1-4.9-4-8.8-8.9-8.8zM168.1 17.6h61.5v35.2h-61.5V17.6zm-61.5 26.3h43.9v17.6c0 4.9 3.9 8.8 8.8 8.8h79.1c4.9 0 8.8-3.9 8.8-8.8V43.9h43.9v35.2H106.6V43.9z"/></svg>