<svg id="Capa_1" xmlns="http://www.w3.org/2000/svg" viewBox="0 0 512 512"><style>.st0{fill:#1b2a4b}</style><path class="st0" d="M404.6 317.2c-10.5-10.9-23.1-16.7-36.5-16.7-13.3 0-26 5.7-37 16.6l-34.1 34c-2.8-1.5-5.6-2.9-8.3-4.3-3.9-1.9-7.6-3.8-10.7-5.7-32-20.3-61.1-46.8-88.9-81-13.5-17.1-22.6-31.4-29.2-46 8.9-8.1 17.1-16.5 25.1-24.6 3-3 6.1-6.2 9.1-9.2 22.7-22.7 22.7-52.1 0-74.8L164.6 76c-3.3-3.3-6.8-6.8-10-10.3-6.5-6.7-13.3-13.6-20.3-20.1-10.5-10.4-23-15.9-36.2-15.9S72 35.1 61.2 45.5l-.2.2-36.7 37.1C10.4 96.6 2.5 113.5.8 133c-2.6 31.6 6.7 60.9 13.8 80.2 17.5 47.2 43.7 91 82.7 137.9 47.3 56.5 104.3 101.1 169.3 132.6 24.9 11.8 58 25.7 95.1 28.1 2.3.1 4.6.2 6.8.2 25 0 45.9-9 62.4-26.8.1-.2.3-.3.4-.5 5.6-6.8 12.1-13 18.9-19.6 4.6-4.4 9.4-9.1 14-13.9 10.7-11.1 16.3-24.1 16.3-37.4 0-13.4-5.7-26.3-16.6-37.1l-59.3-59.5zM443.3 431c-.1 0-.1.1 0 0-4.2 4.5-8.5 8.6-13.2 13.2-7 6.7-14.2 13.7-20.9 21.6-10.9 11.7-23.8 17.2-40.6 17.2-1.6 0-3.3 0-5-.1-32.1-2.1-61.9-14.6-84.3-25.3C218.1 428 164.4 386 119.8 332.7 83 288.3 58.3 247.2 42 203.1c-10-26.9-13.7-47.9-12.1-67.6 1.1-12.6 5.9-23.1 14.9-32.1l36.8-36.8c5.3-5 10.9-7.7 16.4-7.7 6.8 0 12.3 4.1 15.8 7.6l.3.3c6.6 6.2 12.9 12.5 19.5 19.3 3.3 3.5 6.8 6.9 10.3 10.5l29.5 29.5c11.5 11.5 11.5 22 0 33.5-3.1 3.1-6.2 6.3-9.3 9.3-9.1 9.3-17.7 17.9-27.1 26.4-.2.2-.4.3-.5.5-9.3 9.3-7.6 18.4-5.6 24.5.1.3.2.6.3 1 7.7 18.6 18.5 36.1 34.9 56.9l.1.1c29.8 36.7 61.3 65.4 96 87.3 4.4 2.8 9 5.1 13.3 7.2 3.9 1.9 7.6 3.8 10.7 5.7.4.2.9.5 1.3.8 3.7 1.8 7.1 2.7 10.7 2.7 9 0 14.6-5.6 16.4-7.5l37-37c3.7-3.7 9.5-8.1 16.3-8.1 6.7 0 12.2 4.2 15.6 7.9l.2.2 59.5 59.5c11.1 11.2 11.1 22.5.1 34zM276.7 121.8c28.3 4.8 54 18.2 74.6 38.7s33.8 46.3 38.7 74.6c1.2 7.1 7.3 12.1 14.4 12.1.9 0 1.6-.1 2.5-.2 8-1.3 13.3-8.9 12-16.9-5.8-34.3-22-65.5-46.8-90.2-24.7-24.7-56-41-90.2-46.8-8-1.3-15.5 4-16.9 11.9-1.5 7.8 3.7 15.5 11.7 16.8zm234.7 104.1c-9.6-56.4-36.2-107.7-77-148.6S342.2 9.9 285.8.3c-7.9-1.4-15.3 4-16.7 11.9-1.3 8 4 15.5 12 16.9 50.4 8.5 96.3 32.4 132.8 68.8 36.5 36.5 60.3 82.5 68.8 132.8 1.2 7.1 7.3 12.1 14.4 12.1.9 0 1.6-.1 2.5-.2 7.8-1.3 13.2-8.9 11.8-16.7z"/></svg>