<svg id="Layer_1" xmlns="http://www.w3.org/2000/svg" viewBox="0 0 512 512"><style>.st0{fill:#1b2a4b}</style><path class="st0" d="M258.4 125.8c-23 0-41.7 18.7-41.7 41.7 0 23 18.7 41.7 41.7 41.7s41.7-18.7 41.7-41.7c0-23-18.7-41.7-41.7-41.7zm0 67.2c-14.1 0-25.5-11.4-25.5-25.5s11.4-25.5 25.5-25.5 25.5 11.4 25.5 25.5-11.4 25.5-25.5 25.5z"/><path class="st0" d="M424.2 361.9V242.2c0-2.2-.9-4.2-2.4-5.8L344 159v-17.1c0-27.9-7.9-55-22.8-78.4-14.5-22.8-35-41.1-59.2-52.9-2.2-1.1-4.9-1.1-7.1 0-24.2 11.8-44.7 30.1-59.2 52.9-14.9 23.4-22.8 50.5-22.8 78.4V159L95 236.4c-1.5 1.5-2.4 3.6-2.4 5.8v119.7c0 4.5 3.6 8.1 8.1 8.1h72.2v.3c0 15.8 12.8 28.6 28.6 28.6h12c-4.8 10-7.3 20.9-7.3 32.2 0 31.5 19.9 59.8 49.4 70.6.9.3 1.8.5 2.8.5.9 0 1.9-.2 2.8-.5 29.6-10.7 49.4-39.1 49.4-70.6 0-11.3-2.5-22.2-7.3-32.2h12c15.8 0 28.6-12.8 28.6-28.6v-.3h72.2c4.5 0 8.1-3.7 8.1-8.1zm-251.4-22.8v14.7h-64.1V245.6l64.1-63.7v157.2zm28.6 43.6c-6.8 0-12.4-5.6-12.4-12.4v-23.1h61.2v35.5h-48.8zm57 102.7c-21.6-9.1-36-30.6-36-54.2 0-11.4 3.2-22.3 9.4-31.8h18.5v15c0 4.5 3.6 8.1 8.1 8.1s8.1-3.6 8.1-8.1v-15H285c6.1 9.5 9.4 20.4 9.4 31.8 0 23.6-14.4 45-36 54.2zm69.3-115.1c0 6.8-5.6 12.4-12.4 12.4h-48.8v-35.5h61.3v23.1zm80.3-16.6h-64V289c0-4.5-3.6-8.1-8.1-8.1s-8.1 3.6-8.1 8.1v42h-61.3v-21.5c0-4.5-3.6-8.1-8.1-8.1s-8.1 3.6-8.1 8.1V331H189V141.9c0-48.7 26.5-92.3 69.4-114.9 42.9 22.6 69.4 66.2 69.4 114.9v119.6c0 4.5 3.6 8.1 8.1 8.1s8.1-3.6 8.1-8.1v-79.6l64.1 63.7-.1 108.1z"/><path class="st0" d="M443.5 412.1c-9.1 0-18.1 1.8-26.4 5.3-4.5-14.4-18-24.9-33.9-24.9-19.6 0-35.6 16-35.6 35.6 0 4.5 3.6 8.1 8.1 8.1s8.1-3.6 8.1-8.1c0-10.7 8.7-19.4 19.4-19.4s19.4 8.7 19.4 19.4c0 4.6-1.6 9-4.6 12.5-2.9 3.4-2.5 8.5 1 11.4 1.5 1.3 3.4 1.9 5.2 1.9 2.3 0 4.6-1 6.2-2.9 3.9-4.6 6.6-10.2 7.7-16.1 7.7-4.3 16.5-6.6 25.5-6.6 28.8 0 52.2 23.4 52.2 52.2 0 4.5 3.6 8.1 8.1 8.1s8.1-3.6 8.1-8.1c0-37.7-30.7-68.4-68.5-68.4zm-288.3 34.3c-3.2 0-6.4.4-9.4 1.1 1.2-2 1.5-4.4.7-6.8-6.3-17.9-23.3-30-42.3-30-14 0-27.3 6.6-35.7 17.8-4.5-1.2-9.2-1.8-14-1.8-30 0-54.4 24.4-54.4 54.4 0 4.5 3.6 8.1 8.1 8.1s8.1-3.6 8.1-8.1c0-21 17.1-38.2 38.2-38.2 13.2 0 25.3 6.7 32.3 17.9 2.4 3.8 7.4 4.9 11.2 2.5 3.8-2.4 4.9-7.4 2.5-11.2-4.3-6.9-10-12.6-16.6-16.8 5.3-5.3 12.6-8.4 20.3-8.4 12.2 0 23 7.7 27 19.2.9 2.5 2.8 4.2 5.1 5-13 6.9-22 20.5-22 36.3 0 4.5 3.6 8.1 8.1 8.1s8.1-3.6 8.1-8.1c0-13.6 11.1-24.7 24.7-24.7s24.7 11.1 24.7 24.7c0 4.5 3.6 8.1 8.1 8.1s8.1-3.6 8.1-8.1c.1-22.6-18.3-41-40.9-41z"/></svg>