<svg id="Capa_1" xmlns="http://www.w3.org/2000/svg" viewBox="0 0 455.8 455.8"><style>.st0{fill:#1b2a4b}</style><path class="st0" d="M227.9 0C102.2 0 0 102.2 0 227.9s102.2 227.9 227.9 227.9 227.9-102.2 227.9-227.9S353.5 0 227.9 0zm107.6 398.9l-11-19c-1.3-2.2-3.6-3.6-6.2-3.6-1.3 0-2.5.3-3.6 1-1.6 1-2.8 2.5-3.3 4.3s-.2 3.8.7 5.4l11 19c-24.7 13.3-52.4 21.5-81.9 23.5v-26.8c0-7.4-6-13.5-13.5-13.5-7.4 0-13.5 6-13.5 13.5v26.8c-29-1.9-56.4-10-80.8-22.9l10.9-19.1c.9-1.7 1.2-3.6.7-5.4s-1.7-3.4-3.3-4.3c-1.1-.6-2.3-.9-3.5-.9-2.6 0-4.9 1.4-6.2 3.6l-10.9 19C96.9 384.3 76 364.1 60 340.4L83.2 327c6.4-3.7 8.7-12 4.9-18.4-3.7-6.4-12-8.7-18.4-4.9L46.5 317c-12.2-24.7-19.5-52.3-20.6-81.4l22-.1c1.9 0 3.7-.8 5-2.1 1.3-1.4 2.1-3.1 2.1-5 0-3.9-3.2-7.1-7.1-7.1l-22 .1c.9-29.6 8.3-57.6 20.6-82.6l23.2 13.4c2.1 1.2 4.4 1.8 6.7 1.8 4.7 0 9.2-2.4 11.7-6.7 3.7-6.4 1.5-14.7-4.9-18.4L60 115.4C75.8 92 96.3 72 120.2 56.9l11 19c.6 1.1 1.5 2 2.6 2.6 2.2 1.2 4.9 1.3 7.1 0 1.6-1 2.8-2.5 3.3-4.3s.2-3.8-.7-5.4l-11-19c24.7-13.3 52.4-21.5 81.9-23.5V53c0 7.4 6 13.5 13.5 13.5 7.4 0 13.5-6 13.5-13.5V26.3c29 1.9 56.4 10 80.8 22.9l-10.9 19.1c-2 3.4-.8 7.8 2.6 9.7 1.1.6 2.3.9 3.5.9 2.6 0 4.9-1.4 6.2-3.6l10.9-19c24.3 15.2 45.3 35.4 61.2 59.2l-23.2 13.4c-6.4 3.7-8.7 12-4.9 18.4 2.5 4.3 7 6.7 11.7 6.7 2.3 0 4.6-.6 6.7-1.8l23.2-13.4c12.2 24.7 19.5 52.3 20.6 81.4l-22 .1c-1.9 0-3.7.8-5 2.1-1.3 1.4-2.1 3.1-2.1 5 0 2.5 1.4 4.9 3.6 6.2 1.1.6 2.3.9 3.5.9l22-.1c-.9 29.6-8.3 57.6-20.6 82.6L386 303.6c-6.4-3.7-14.7-1.5-18.4 4.9-3.7 6.4-1.5 14.7 4.9 18.4l23.2 13.4c-15.7 23.5-36.3 43.5-60.2 58.6z"/><path class="st0" d="M227.9 247.7c-9.5 0-17.7-6.7-19.5-16l-.8-3.9L116 177c-4.1-2.3-5.5-7.4-3.3-11.4 1.5-2.7 4.3-4.3 7.4-4.3 1.4 0 2.8.4 4.1 1.1l90.4 50.2 4.1-2.1c2.9-1.5 6-2.3 9.2-2.3s6.3.8 9.2 2.3l4.1 2.1 90.4-50.2c1.3-.7 2.6-1.1 4.1-1.1 3.1 0 5.9 1.7 7.4 4.3 2.3 4.1.8 9.2-3.3 11.5l-91.6 50.8-.8 3.9c-1.9 9.2-10 15.9-19.5 15.9z"/></svg>