<svg width="21" height="21" viewBox="0 0 21 21" fill="none" xmlns="http://www.w3.org/2000/svg"><path fill-rule="evenodd" clip-rule="evenodd" d="M10.33.287c1.826 0 3.518.45 5.072 1.35a10.18 10.18 0 0 1 3.703 3.65 9.588 9.588 0 0 1 1.37 5 9.588 9.588 0 0 1-1.37 5 10.18 10.18 0 0 1-3.703 3.65 9.945 9.945 0 0 1-5.073 1.35 9.945 9.945 0 0 1-5.073-1.35 10.179 10.179 0 0 1-3.702-3.65 9.587 9.587 0 0 1-1.37-5c0-1.801.456-3.468 1.37-5a10.18 10.18 0 0 1 3.702-3.65A9.945 9.945 0 0 1 10.33.288zm0 1.936A8.028 8.028 0 0 0 6.237 3.31a8.193 8.193 0 0 0-2.986 2.944 7.74 7.74 0 0 0-1.105 4.032 7.74 7.74 0 0 0 1.105 4.032 8.192 8.192 0 0 0 2.986 2.944 8.028 8.028 0 0 0 4.091 1.089 8.028 8.028 0 0 0 4.091-1.089 8.193 8.193 0 0 0 2.987-2.944 7.74 7.74 0 0 0 1.104-4.032 7.74 7.74 0 0 0-1.104-4.032A8.193 8.193 0 0 0 14.42 3.31a8.028 8.028 0 0 0-4.09-1.088zm5.727 5.242a.496.496 0 0 1 .163.363.381.381 0 0 1-.163.322L9.02 15.045a.512.512 0 0 1-.368.162.39.39 0 0 1-.327-.162l-3.723-3.67a.498.498 0 0 1-.164-.362c0-.134.055-.242.164-.323l.94-.927a.446.446 0 0 1 .328-.121c.136 0 .259.04.368.121l2.414 2.46 5.81-5.686a.446.446 0 0 1 .326-.12c.137 0 .26.053.369.16l.9.888z" fill="#688FA3"/></svg>