<svg width="21" height="21" viewBox="0 0 21 21" fill="none" xmlns="http://www.w3.org/2000/svg"><path fill-rule="evenodd" clip-rule="evenodd" d="M.575 10.287c0 5.523 4.542 10 10.146 10 5.603 0 10.146-4.477 10.146-10s-4.543-10-10.146-10C5.117.287.575 4.764.575 10.287zm10.146 9c5.043 0 9.131-4.03 9.131-9s-4.088-9-9.131-9-9.131 4.03-9.131 9 4.088 9 9.13 9zm-.923-12.73c0-.445.373-.815.931-.815.542 0 .914.355.914.814 0 .445-.355.8-.948.8-.541 0-.897-.355-.897-.8zm1.676 2.014v7.17h-1.49v-7.17h1.49z" fill="#F3819C"/></svg>