<svg width="159" height="81" viewBox="0 0 159 81" fill="none" xmlns="http://www.w3.org/2000/svg"><path d="M65.8 2.345S66.694.388 68.93.388c3.299 0 2.125 5.758 5.311 7.659-1.677 0-3.522-.67-5.087-3.466C67.477 1.506 65.8 2.345 65.8 2.345zm33.71 24.99c-2.46 2.57-6.26 5.813-11.18 7.882a86.742 86.742 0 0 0 13.864-2.125s-9.56 5.982-23.033 5.982-23.033-5.982-23.033-5.982a86.743 86.743 0 0 0 13.865 2.125c-4.864-2.013-8.665-5.255-11.181-7.883C23.927 30.018 0 40.528 0 53.218c0 18.84 34.437 27.114 79.217 27.17 44.836-.056 79.217-8.33 79.217-27.17 0-12.69-23.927-23.2-58.923-25.884zM59.987 16.488c0-.392-.056-6.318 6.317-6.318 2.74 0 3.522.895 7.38.895 7.211 0 8.944-6.541 8.944-6.541s-2.404 3.578-6.54 3.578c0 0 1.23-5.255 5.087-6.653 1.51-.559 5.031-.503 7.491 1.174.391.336 1.342.895 2.069 2.404.559 1.174.67 2.404.67 3.298v.112s-.055 5.367-5.534 10.846c6.988-2.46 7.603-8.833 7.603-8.833s1.733 5.031 1.733 9.95c0 12.244-6.485 11.853-8.106 12.412-.895.335-1.118.615-1.957 1.789-1.23 1.733-3.354 2.236-5.2 2.236-10.174-.056-19.957-11.74-19.957-20.35zm7.156 9.168c4.528 4.92 11.18 6.205 15.262 6.54-4.473-1.061-8.61-3.465-12.3-7.546-5.758-6.262-4.695-11.74-4.695-11.74s-5.2 5.255 1.733 12.746z" fill="#000"/><path d="M59.427 68.313c-.335-.336-.839-.504-1.51-.504h-2.012c-.112 0-.224.056-.224.224v.447c0 .112.056.224.224.224h.168v4.305h-.168c-.112 0-.224.055-.224.223v.447c0 .112.056.224.224.224h1.398c.111 0 .223-.056.223-.224v-.447c0-.112-.056-.224-.224-.224h-.223V71.5h.838c.615 0 1.119-.168 1.51-.447.335-.336.559-.783.559-1.342 0-.615-.168-1.062-.56-1.397zm-.783 2.012c-.167.168-.391.224-.67.224h-.895v-1.845h.894c.28 0 .504.056.671.223.168.168.224.392.224.671 0 .28-.056.615-.224.727zm8.05 3.578c-.111 0-.223-.056-.223-.224v-.447c0-.112.056-.224.224-.224h.111v-4.304h-.111c-.112 0-.224-.056-.224-.224v-.447c0-.112.056-.224.224-.224h1.341c.056 0 .112 0 .112.056s.056.112.056.168v.447c0 .056 0 .112-.056.168-.056.056-.112.056-.112.056h-.168v4.249h2.069c.056 0 .112 0 .112.055.056.056.056.112.056.168v.503c0 .056 0 .112-.056.168-.056.056-.112.056-.112.056h-3.242zm4.752 0c-.111 0-.223-.056-.223-.224v-.447c0-.112.056-.224.224-.224h.111v-4.304h-.112c-.111 0-.223-.056-.223-.224v-.447c0-.112.056-.224.224-.224h3.522c.111 0 .223.056.223.224v.503c0 .112-.056.224-.223.224H72.62v1.51h2.124c.056 0 .112 0 .168.055a.173.173 0 0 1 .056.112v.503c0 .056 0 .112-.056.112-.056.056-.112.056-.168.056H72.62v1.789h2.627c.056 0 .112 0 .112.056 0 .055.056.111.056.167v.503c0 .056 0 .112-.056.168-.056.056-.112.056-.112.056h-3.802v.056zm12.244-5.535l-.168.448c0 .111-.112.111-.224.111h-.112c-.223-.056-.39-.167-.614-.167-.168-.056-.392-.056-.615-.056-.28 0-.504.056-.727.168-.224.111-.392.279-.56.447a1.737 1.737 0 0 0-.335.727 4.335 4.335 0 0 0-.111.894c0 .335.055.615.111.895.112.279.224.503.392.726.167.224.335.336.559.447.223.112.447.168.727.168.279 0 .558-.056.726-.112.224-.055.447-.167.615-.28h-.056s.056-.055.112-.055.112 0 .112.056c.056.056.056.112.056.168v.614c0 .056-.056.168-.112.168-.224.112-.447.224-.727.28a4.92 4.92 0 0 1-.95.112c-.447 0-.839-.056-1.174-.224-.336-.168-.671-.391-.895-.615-.223-.28-.447-.615-.559-1.006-.112-.392-.223-.839-.223-1.286 0-.447.056-.895.223-1.286a2.34 2.34 0 0 1 .615-1.006c.28-.28.56-.503.895-.671.335-.168.726-.224 1.174-.224.335 0 .615.056.894.112.28.056.503.168.783.224.112 0 .112.112.112.223.112-.111.056-.055.056 0zm1.565 5.535c-.112 0-.224-.056-.224-.224v-.447c0-.112.056-.224.224-.224h.112v-4.304h-.112c-.112 0-.224-.056-.224-.224v-.447c0-.112.056-.224.224-.224h1.23c.056 0 .112 0 .112.056.056.056.056.112.056.168v.447c0 .056 0 .112-.056.168-.056.056-.112.056-.112.056h-.112v4.305h.112c.056 0 .112 0 .112.055.056.056.056.112.056.168v.447c0 .056 0 .112-.056.168-.056.056-.112.056-.112.056h-1.23zm7.994-4.249c-.111-.391-.335-.67-.615-.95a2.34 2.34 0 0 0-1.006-.615c-.391-.168-.838-.224-1.397-.224h-1.622c-.111 0-.223.056-.223.224v.447c0 .112.056.224.223.224h.112v4.304h-.112c-.111 0-.223.056-.223.224v.447c0 .112.056.224.223.224h1.622c.503 0 .95-.056 1.397-.224.391-.168.727-.335 1.006-.615.28-.28.448-.615.615-.95.112-.391.224-.783.224-1.23-.056-.503-.112-.894-.224-1.286zm-1.062 2.069c-.112.28-.223.503-.391.67a2.483 2.483 0 0 1-.615.448 1.548 1.548 0 0 1-.727.168h-.615v-4.25h.503c.28 0 .56.057.783.168.224.112.447.224.615.448.168.167.28.391.391.67.112.28.168.56.168.84.056.279 0 .558-.112.838zm2.572 2.18c-.112 0-.224-.056-.224-.224v-.447c0-.112.056-.224.224-.224h.112v-4.304h-.112c-.112 0-.224-.056-.224-.224v-.447c0-.112.056-.224.224-.224h3.466c.112 0 .224.056.224.224v.503c0 .112-.056.224-.224.224h-2.348v1.51H98c.056 0 .112 0 .168.055a.173.173 0 0 1 .056.112v.503c0 .056 0 .112-.056.112s-.112.056-.168.056h-2.124v1.789h2.627c.056 0 .112 0 .112.056 0 .055.056.111.056.167v.503c0 .056 0 .112-.056.168-.056.056-.112.056-.112.056H94.76v.056zm9.951-.839c-.056-.055-.112-.055-.112-.055h-.335c-.112 0-.168-.056-.224-.168-.056-.056-.056-.168-.112-.392 0-.055 0-.111-.056-.167-.056-.224-.111-.447-.223-.671a1.32 1.32 0 0 0-.336-.503c.224-.056.392-.224.503-.336.28-.28.448-.727.448-1.174 0-.559-.168-.95-.559-1.285-.336-.336-.839-.448-1.51-.448h-2.012c-.112 0-.224.056-.224.224v.447c0 .112.056.224.224.224h.111v4.304h-.111c-.112 0-.224.056-.224.224v.447c0 .112.056.224.224.224h1.341c.112 0 .224-.056.224-.224v-.447c0-.112-.056-.224-.224-.224h-.167v-1.677h.726c.224.112.336.28.448.503.111.224.167.504.279.839.056.224.112.391.112.503l.168.335c.056.112.167.168.223.28a.81.81 0 0 0 .392.112h.782c.056 0 .112 0 .112-.056.056-.056.056-.112.056-.168v-.447c.112-.112.056-.168.056-.224zm-2.404-2.627h-.894V68.76h.894c.28 0 .503.056.615.223.168.168.224.336.224.615 0 .56-.28.839-.839.839zm6.597 3.13c-.392.336-.895.448-1.566.448a4.88 4.88 0 0 1-.894-.112c-.28-.056-.503-.168-.727-.224-.056 0-.056-.056-.112-.056 0-.056-.056-.056-.056-.111v-.615c0-.112.056-.224.168-.224h.112c.224.112.447.168.671.224.223.056.447.111.727.111.335 0 .615-.055.838-.223.168-.112.28-.336.28-.615a.688.688 0 0 0-.28-.56 3.37 3.37 0 0 0-.782-.39c-.28-.112-.504-.168-.727-.28a4.82 4.82 0 0 1-.559-.335c-.168-.112-.28-.28-.392-.504a1.557 1.557 0 0 1-.167-.726c0-.56.167-.95.559-1.286.391-.28.894-.447 1.509-.447.28 0 .559.056.839.111.279.056.559.112.727.224.111 0 .111.112.111.168 0 .056 0 .112-.056.112l-.167.447c0 .056-.112.112-.168.112-.056 0-.112 0-.112-.056-.168-.056-.335-.112-.559-.168-.168-.056-.391-.056-.615-.056-.279 0-.559.056-.727.224a.69.69 0 0 0-.279.559c0 .223.056.391.223.503.168.112.448.28.839.391.28.112.559.224.783.28.223.112.391.223.559.391.168.168.279.335.391.503.112.224.112.448.112.727.112.67-.112 1.118-.503 1.453zm-54.508-.503c-.056-.055-.111-.055-.111-.055h-.168l-1.845-5.032c0-.056-.056-.056-.056-.112-.056-.056-.056-.056-.112-.056h-.615c-.056 0-.056 0-.111.056-.056.056-.056.056-.056.112l-1.845 5.031h-.168c-.056 0-.112 0-.112.056-.056.056-.056.112-.056.168v.447c0 .056 0 .112.056.168a.173.173 0 0 0 .112.056h.727c.056 0 .056 0 .112-.056s.056-.056.056-.112l.447-1.341h2.124l.447 1.341c0 .056.056.056.056.112.056.056.056.056.112.056h.727c.056 0 .112 0 .112-.056.056-.056.056-.112.056-.168v-.447c.167-.056.111-.112.111-.168zM51.768 71.5h-.727l.727-2.068.727 2.068h-.727zm12.914-3.186c-.335-.336-.839-.504-1.51-.504H61.16c-.112 0-.224.056-.224.224v.447c0 .112.056.224.224.224h.168v4.305h-.168c-.112 0-.224.055-.224.223v.447c0 .112.056.224.224.224h1.398c.111 0 .223-.056.223-.224v-.447c0-.112-.056-.224-.223-.224h-.168V71.5h.838c.615 0 1.119-.168 1.51-.447.335-.336.559-.783.559-1.342-.056-.615-.224-1.062-.615-1.397zm-.727 2.012c-.167.168-.391.224-.67.224h-.895v-1.845h.894c.28 0 .504.056.671.223.168.168.224.392.224.671 0 .28-.056.615-.224.727zM25.213 46.845h3.745v15.15c.616.168 1.342.224 2.069.224.727 0 1.398-.056 2.069-.224v-15.15h3.13v-2.516H26.163l-.95 2.516zm66.415 7.827v4.696c-.783.503-1.677.503-1.677.503-1.621 0-3.243-.503-3.243-6.653 0-5.087 1.454-6.876 4.25-6.876 1.956 0 3.186.95 3.633 2.236l1.174-2.236c-1.23-2.516-5.255-2.404-5.255-2.404-4.193 0-7.939 2.572-7.939 9.28 0 6.485 3.131 9.113 7.492 9.113 1.9 0 3.969-.56 5.702-1.79V52.94h-5.2c-.055.111 1.063.503 1.063 1.733zm-66.415 2.236c0 3.466-2.684 5.535-7.1 5.535-1.677 0-3.857-.615-5.2-1.566l1.287-3.354c1.062 1.286 2.963 2.18 4.137 2.18 1.956 0 2.683-1.342 2.683-2.236 0-1.677-1.51-2.236-3.298-3.13-2.069-1.063-4.473-2.349-4.473-5.256 0-3.019 2.628-5.143 6.318-5.143 1.677 0 3.186.559 4.472 1.342l-1.174 3.074c-.503-.782-1.677-1.788-3.522-1.788-1.174 0-2.516.447-2.516 1.788 0 1.007 1.398 1.678 2.963 2.46 2.46 1.174 5.423 2.851 5.423 6.094zm40.699-3.69c0 6.932-3.02 9.169-7.324 9.169-4.305 0-7.323-2.46-7.323-9.169 0-6.932 3.018-9.168 7.323-9.168 4.305 0 7.324 2.236 7.324 9.168zm-4.081 0c0-6.15-1.063-6.988-3.243-6.988-2.236 0-3.242.839-3.242 6.988 0 6.15 1.062 6.988 3.242 6.988 2.236 0 3.243-.838 3.243-6.988zm-9.951 8.833h-3.522c-.95 0-1.398-.28-1.79-1.118l-1.62-3.69c-.895-2.124-1.454-3.242-2.293-3.298v8.05c-.615.168-1.342.224-2.068.224-.727 0-1.398-.056-2.069-.224V45.951c0-1.23-1.062-1.678-1.062-1.678h6.709c3.298 0 5.367 1.957 5.367 5.088 0 1.956-.839 3.578-2.796 4.304 0 0 .839.168 1.398 1.286.783 1.454 2.572 5.814 2.627 5.982.112.447.448.895 1.119 1.118zm-5.815-12.634c0-2.516-1.62-2.852-3.41-2.852V52.1c2.013-.056 3.41-.503 3.41-2.683zm98.281-5.088l-3.019 10.399-2.907-10.399h-5.087s1.006.112 1.454 1.677l.67 2.348s.056.28.056.504c0 .223-.056.447-.056.447l-1.621 5.478-2.907-10.398h-5.367s.951.112 1.454 1.621l4.808 16.045h1.956l2.963-9.392 2.572 9.392h1.957l5.534-17.722h-2.46zm-17.889 8.89c0 6.931-3.019 9.168-7.324 9.168-4.304 0-7.323-2.46-7.323-9.169 0-6.932 3.019-9.168 7.323-9.168 4.305 0 7.324 2.236 7.324 9.168zm-4.081 0c0-6.15-1.062-6.989-3.243-6.989-2.236 0-3.242.839-3.242 6.988 0 6.15 1.062 6.988 3.242 6.988 2.181 0 3.243-.838 3.243-6.988zm-44.612-8.89v10.12l-5.535-9.225a2.07 2.07 0 0 0-1.733-.895h-3.634s1.062.447 1.062 1.677v16.045c.447.056.95.112 1.454.112.503 0 1.006-.056 1.453-.112V49.92l6.877 11.293c.391.614.726.894 1.733.894h1.23V44.385c-.448-.056-.95-.112-1.454-.112-.503-.056-.95-.056-1.453.056zm32.648 12.355c.056 1.677-.447 3.02-1.342 3.914-.95.95-2.348 1.453-4.137 1.453h-7.044V46.006c0-1.23-1.062-1.677-1.062-1.677h7.771c2.907 0 4.808 1.79 4.808 4.529 0 1.509-.783 2.627-1.957 3.354 1.677.67 2.963 2.292 2.963 4.472zm-8.497-5.199h1.788c.839 0 1.957-.28 1.957-2.572 0-2.012-1.118-2.236-1.901-2.236h-1.844v4.808zm4.584 5.2c0-2.125-.783-2.908-2.684-2.908h-2.012v5.814h2.012c1.901 0 2.684-.726 2.684-2.907zm38.742 4.08h.447l.503.671h.447l-.559-.782c.28-.056.448-.28.448-.615 0-.392-.336-.615-.783-.615h-.894v2.012h.391v-.67zm0-.95h.503c.28 0 .391.112.391.335 0 .168-.167.336-.391.336h-.503v-.671zm.391 2.628a1.945 1.945 0 0 0 1.957-1.957 1.981 1.981 0 0 0-1.957-1.957 1.944 1.944 0 0 0-1.956 1.957c-.056 1.062.838 1.957 1.956 1.957zm-1.733-1.957c0-.95.727-1.733 1.733-1.733a1.74 1.74 0 0 1 1.733 1.733c0 .95-.727 1.733-1.733 1.733-1.006-.056-1.733-.783-1.733-1.733z" fill="#fff"/></svg>