<svg width="21" height="21" viewBox="0 0 21 21" fill="none" xmlns="http://www.w3.org/2000/svg"><path fill-rule="evenodd" clip-rule="evenodd" d="M20.145 12.37a.221.221 0 0 1-.013.092c-.564 2.326-1.744 4.212-3.54 5.657-1.798 1.445-3.902 2.168-6.316 2.168-1.285 0-2.53-.239-3.732-.716a10.103 10.103 0 0 1-3.216-2.044l-1.705 1.68a.819.819 0 0 1-.594.247.819.819 0 0 1-.595-.248.795.795 0 0 1-.25-.585v-5.834c0-.226.083-.42.25-.586a.818.818 0 0 1 .595-.247h5.918c.23 0 .427.082.595.247.167.165.25.36.25.586a.795.795 0 0 1-.25.586l-1.81 1.784a6.828 6.828 0 0 0 4.597 1.797c1.18 0 2.281-.282 3.303-.846a6.62 6.62 0 0 0 2.457-2.331c.097-.148.33-.656.7-1.524.07-.2.203-.3.397-.3h2.536a.41.41 0 0 1 .297.125c.084.082.126.18.126.293zm.33-10.416v5.833a.795.795 0 0 1-.251.586.819.819 0 0 1-.595.247h-5.918a.819.819 0 0 1-.594-.247.795.795 0 0 1-.251-.586c0-.226.083-.421.25-.586l1.824-1.797C13.636 4.215 12.1 3.62 10.33 3.62a6.73 6.73 0 0 0-3.304.847 6.619 6.619 0 0 0-2.457 2.33c-.097.148-.33.656-.7 1.524-.07.2-.202.3-.396.3H.843a.41.41 0 0 1-.296-.124.398.398 0 0 1-.126-.293v-.091C.994 5.786 2.183 3.9 3.988 2.455 5.793 1.01 7.908.287 10.329.287c1.286 0 2.537.241 3.752.723a10.254 10.254 0 0 1 3.237 2.037l1.717-1.68a.818.818 0 0 1 .595-.247c.229 0 .427.083.594.248.167.165.251.36.251.586z" fill="#688FA3"/></svg>