<svg width="596" height="244" viewBox="0 0 596 244" xmlns="http://www.w3.org/2000/svg"><title>Group 11</title><g stroke="#C9A969" stroke-width="3" fill="none" fill-rule="evenodd"><path d="M181.834 158.275h-27.97v36.064h-51.907v-36.064H2.446v-34.72L86.896 5.943h55.133L65.38 116.021h38.191V83.993h50.293v32.028h27.971zm411.72 0h-27.972v36.064h-51.905v-36.064h-99.511v-34.72L498.618 5.943h55.131l-76.648 110.078h38.19V83.993h50.291v32.028h27.972zm-298.376 19.189c-42.674 0-77.269-34.619-77.269-77.323 0-42.704 34.595-77.323 77.269-77.323 42.674 0 77.268 34.62 77.268 77.323 0 42.704-34.594 77.323-77.268 77.323zm0-175.018c-53.918 0-97.627 43.739-97.627 97.695 0 53.955 43.71 97.695 97.627 97.695 53.917 0 97.626-43.74 97.626-97.695 0-53.956-43.709-97.695-97.626-97.695z"/><path d="M384.296 167.241l-9.94-9.946a98.226 98.226 0 0 1-22.065 22.08l9.94 9.947"/><path d="M378.234 173.308l10.58-10.587 47.698 47.732-31.1 31.123-47.7-47.732 8.493-8.499"/></g></svg>