<svg width="233" height="279" viewBox="0 0 233 279" xmlns="http://www.w3.org/2000/svg" xmlns:xlink="http://www.w3.org/1999/xlink"><title>logo</title><defs><path id="a" d="M0 0h287v394H0z"/></defs><g transform="translate(-54 -56)" fill="none" fill-rule="evenodd"><mask id="b" fill="#fff"><use xlink:href="#a"/></mask><path d="M54 335V56h279v279H54zm15-15h249V71H69v249zM258.72 96H293v29.9h-18.475v-9.813H258.72c-2.992 0-5.976.128-8.95.394-6.25.51-12.444 1.583-18.471 3.184-10.095 2.647-19.763 6.766-28.51 12.176a95.324 95.324 0 0 0-4.283 2.802l-4.84 3.357-.166-.106-.16.106-4.842-3.357a95.324 95.324 0 0 0-4.283-2.802c-8.751-5.41-18.415-9.529-28.51-12.176a105.458 105.458 0 0 0-18.47-3.184 100.427 100.427 0 0 0-8.95-.394H112.48v9.812H94V96h34.284c23.368 0 45.775 6.359 65.203 18.46.004-.005.009-.005.013-.01.004.005.009.005.013.01C212.945 102.358 235.348 96 258.72 96zm-65.207 63.152C212.941 147.252 235.348 141 258.72 141H293v19.752h-34.28c-2.997 0-5.976.126-8.95.388v95.333c1.187.078 2.365.179 3.54.318l7.585.868c4.022.453 8.05-.82 10.75-3.419 1.305-1.264 2.88-3.383 2.88-6.318v-71.678H293v71.678c0 7.97-3.197 15.423-9.007 21.004a30.216 30.216 0 0 1-9.468 6.191c-4.832 2.019-10.182 2.782-15.592 2.176l-7.576-.863c-10.708-1.217-23.96 1.303-34.085 5.847v-21.004a95.6 95.6 0 0 1 14.027-3.67v-93.337c-10.1 2.608-19.763 6.658-28.514 11.978 0 0 0 .004-.004.004l.004 113.712L193.5 295l-9.285-5.04.004-113.712c-.004 0-.004-.004-.004-.004-8.751-5.32-18.415-9.37-28.51-11.978v93.336a95.544 95.544 0 0 1 14.023 3.671v21.004c-10.121-4.544-23.377-7.064-34.085-5.847l-7.576.863c-5.41.606-10.76-.157-15.592-2.176a30.266 30.266 0 0 1-9.468-6.191C97.201 263.345 94 255.893 94 247.922v-71.678h18.475v71.678c0 2.935 1.575 5.054 2.88 6.318 2.7 2.599 6.728 3.872 10.755 3.419l7.585-.868a67.55 67.55 0 0 1 3.54-.318V161.14a102.117 102.117 0 0 0-8.95-.388H94V141h34.284c23.368 0 45.775 6.253 65.203 18.152.004-.005.009-.005.013-.009.004.004.009.004.013.009z" fill="#101820" opacity=".095" mask="url(#b)"/></g></svg>