<svg width="30" height="30" viewBox="0 0 30 30" xmlns="http://www.w3.org/2000/svg"><title>Combined Shape Copy</title><path d="M28.242 7.531V5.115c0-.813-.661-1.475-1.475-1.475h-1.474v1.004a.878.878 0 1 1-1.758 0V3.64h-2.008v1.004a.878.878 0 1 1-1.758 0V3.64h-2.007v1.004a.879.879 0 1 1-1.758 0V3.64h-2.008v1.004a.878.878 0 1 1-1.758 0V3.64H10.23v1.004a.878.878 0 1 1-1.758 0V3.64H6.465v1.004a.879.879 0 1 1-1.758 0V3.64H3.232c-.813 0-1.474.662-1.474 1.475v2.416h26.484zm0 11.49V9.289H1.758v17.478c0 .813.661 1.475 1.474 1.475h15.789a6.512 6.512 0 0 1-2.076-4.77 6.534 6.534 0 0 1 6.527-6.527c1.881 0 3.578.8 4.77 2.076zm-4.77 9.221c2.63 0 4.77-2.14 4.77-4.77a4.775 4.775 0 0 0-4.77-4.769 4.775 4.775 0 0 0-4.769 4.769c0 2.63 2.14 4.77 4.769 4.77zm3.295-26.359A3.236 3.236 0 0 1 30 5.115v18.357c0 3.6-2.928 6.528-6.528 6.528H3.232A3.236 3.236 0 0 1 0 26.767V5.115a3.236 3.236 0 0 1 3.232-3.232h1.475V.879a.878.878 0 1 1 1.758 0v1.004h2.007V.879a.879.879 0 1 1 1.758 0v1.004h2.008V.879a.879.879 0 1 1 1.758 0v1.004h2.008V.879a.878.878 0 1 1 1.758 0v1.004h2.007V.879a.879.879 0 1 1 1.758 0v1.004h2.008V.879a.879.879 0 1 1 1.758 0v1.004h1.474zM9.351 13.996a.886.886 0 0 1-.622-.258.886.886 0 0 1-.257-.621c0-.231.094-.458.257-.621a.886.886 0 0 1 .622-.258c.231 0 .458.094.622.258.163.163.257.39.257.62a.886.886 0 0 1-.257.622.886.886 0 0 1-.622.258zm3.767 0a.886.886 0 0 1-.623-.258.886.886 0 0 1-.257-.621c0-.231.094-.458.257-.621a.886.886 0 0 1 .623-.258.882.882 0 0 1 .879.879.882.882 0 0 1-.88.879zm3.765 0a.882.882 0 0 1-.878-.88.881.881 0 0 1 .878-.878c.23 0 .458.094.622.258.163.163.257.39.257.62a.886.886 0 0 1-.257.622.886.886 0 0 1-.622.258zm3.765 0a.886.886 0 0 1-.622-.258.886.886 0 0 1-.257-.621c0-.231.094-.458.257-.621a.886.886 0 0 1 .622-.258c.231 0 .458.094.622.258.163.163.257.39.257.62a.886.886 0 0 1-.257.622.886.886 0 0 1-.622.258zm3.766 0a.886.886 0 0 1-.622-.258.886.886 0 0 1-.257-.621c0-.231.094-.458.257-.621a.886.886 0 0 1 .622-.258.882.882 0 0 1 .88.879.882.882 0 0 1-.88.879zM5.586 17.762a.882.882 0 0 1-.88-.88c0-.23.095-.457.259-.622a.886.886 0 0 1 .62-.257.89.89 0 0 1 .623.257.884.884 0 0 1 0 1.243.886.886 0 0 1-.622.259zm3.765 0a.886.886 0 0 1-.622-.259.884.884 0 0 1 0-1.243.89.89 0 0 1 .622-.257.89.89 0 0 1 .622.257.884.884 0 0 1 0 1.243.886.886 0 0 1-.622.259zm3.767 0a.886.886 0 0 1-.623-.259.884.884 0 0 1 0-1.243.89.89 0 0 1 .623-.257c.23 0 .457.094.62.257a.88.88 0 0 1-.621 1.501zm3.765 0a.882.882 0 0 1-.88-.88c0-.23.095-.457.259-.622a.886.886 0 0 1 .62-.257.89.89 0 0 1 .623.257.884.884 0 0 1 0 1.243.886.886 0 0 1-.622.259zM5.586 21.527a.882.882 0 0 1-.88-.879.89.89 0 0 1 .259-.622.886.886 0 0 1 .62-.257.89.89 0 0 1 .623.257.89.89 0 0 1 .257.622.886.886 0 0 1-.257.621.886.886 0 0 1-.622.258zm3.765 0a.886.886 0 0 1-.622-.258.886.886 0 0 1-.257-.62.89.89 0 0 1 .257-.623.89.89 0 0 1 .622-.257.89.89 0 0 1 .622.257.89.89 0 0 1 .257.622.886.886 0 0 1-.257.621.886.886 0 0 1-.622.258zm3.767 0a.886.886 0 0 1-.623-.258.886.886 0 0 1-.257-.62.89.89 0 0 1 .257-.623.89.89 0 0 1 .623-.257c.23 0 .457.094.62.257a.886.886 0 0 1 .259.622.882.882 0 0 1-.88.88zm-7.532 3.766a.882.882 0 0 1-.88-.88.882.882 0 0 1 .88-.878c.23 0 .458.094.622.258.163.163.257.39.257.62a.886.886 0 0 1-.257.622.886.886 0 0 1-.622.258zm3.765 0a.886.886 0 0 1-.622-.258.886.886 0 0 1-.257-.621c0-.231.094-.458.257-.621a.886.886 0 0 1 .622-.258c.231 0 .458.094.622.258.163.163.257.39.257.62a.886.886 0 0 1-.257.622.886.886 0 0 1-.622.258zm3.767 0a.886.886 0 0 1-.623-.258.886.886 0 0 1-.257-.621c0-.231.094-.458.257-.621a.886.886 0 0 1 .623-.258.882.882 0 0 1 .879.879.882.882 0 0 1-.88.879zm12.237-2.7a.879.879 0 1 1 0 1.759h-1.883a.88.88 0 0 1-.879-.88V21.59a.88.88 0 0 1 1.758 0v1.003h1.004z" fill="#101820" fill-rule="evenodd"/></svg>