<svg xmlns="http://www.w3.org/2000/svg" width="30" height="30" viewBox="0 0 30 30"><path fill="#c9a969" d="M25.355 22.593h-1.004V21.59a.879.879 0 1 0-1.758 0v1.883a.88.88 0 0 0 .88.88h1.882a.879.879 0 1 0 0-1.759m-12.238 2.7a.882.882 0 0 0 .88-.88.882.882 0 0 0-.88-.878.886.886 0 0 0-.621.258.886.886 0 0 0-.257.62c0 .232.094.459.257.622a.886.886 0 0 0 .622.258m-3.767 0a.886.886 0 0 0 .622-.258.886.886 0 0 0 .257-.621.886.886 0 0 0-.257-.621.886.886 0 0 0-.622-.258.886.886 0 0 0-.622.258.886.886 0 0 0-.257.62c0 .232.094.459.257.622a.886.886 0 0 0 .622.258m-3.765 0a.886.886 0 0 0 .622-.258.886.886 0 0 0 .257-.621.886.886 0 0 0-.257-.621.886.886 0 0 0-.622-.258.882.882 0 0 0-.88.879.882.882 0 0 0 .88.879m7.531-3.766a.882.882 0 0 0 .88-.879.886.886 0 0 0-.258-.622.886.886 0 0 0-.621-.257.89.89 0 0 0-.622.257.89.89 0 0 0-.257.622c0 .232.094.457.257.621a.886.886 0 0 0 .622.258m-3.767 0a.886.886 0 0 0 .622-.258.886.886 0 0 0 .257-.62.89.89 0 0 0-.257-.623.89.89 0 0 0-.622-.257.89.89 0 0 0-.622.257.89.89 0 0 0-.257.622c0 .232.094.457.257.621a.886.886 0 0 0 .622.258m-3.765 0a.886.886 0 0 0 .622-.258.886.886 0 0 0 .257-.62.89.89 0 0 0-.257-.623.89.89 0 0 0-.622-.257.886.886 0 0 0-.621.257.886.886 0 0 0-.258.622.882.882 0 0 0 .879.88m11.297-3.766a.886.886 0 0 0 .622-.258.884.884 0 0 0 0-1.243.89.89 0 0 0-.622-.257.886.886 0 0 0-.621.257.88.88 0 0 0 .621 1.501m-3.766 0a.882.882 0 0 0 .88-.88.886.886 0 0 0-.258-.621.886.886 0 0 0-.621-.257.89.89 0 0 0-.622.257.884.884 0 0 0 0 1.243.886.886 0 0 0 .622.258m-3.767 0a.886.886 0 0 0 .622-.258.884.884 0 0 0 0-1.243.89.89 0 0 0-.622-.257.89.89 0 0 0-.622.257.884.884 0 0 0 0 1.243.886.886 0 0 0 .622.258m-3.765 0a.886.886 0 0 0 .622-.258.884.884 0 0 0 0-1.243.89.89 0 0 0-.622-.257.886.886 0 0 0-.621.257.88.88 0 0 0 .621 1.501m18.828-3.766a.882.882 0 0 0 .88-.88.882.882 0 0 0-.88-.878.886.886 0 0 0-.622.258.886.886 0 0 0-.257.62c0 .232.094.459.257.622a.886.886 0 0 0 .622.258m-3.766 0a.886.886 0 0 0 .622-.258.886.886 0 0 0 .257-.621.886.886 0 0 0-.257-.621.886.886 0 0 0-.622-.258.886.886 0 0 0-.622.258.886.886 0 0 0-.257.62c0 .232.094.459.257.622a.886.886 0 0 0 .622.258m-3.765 0a.886.886 0 0 0 .622-.258.886.886 0 0 0 .257-.621.886.886 0 0 0-.257-.621.886.886 0 0 0-.622-.258.882.882 0 0 0-.878.879.88.88 0 0 0 .878.879m-3.765 0a.882.882 0 0 0 .879-.88.882.882 0 0 0-.88-.878.886.886 0 0 0-.621.258.886.886 0 0 0-.257.62c0 .232.094.459.257.622a.886.886 0 0 0 .622.258m-3.767 0a.886.886 0 0 0 .622-.258.886.886 0 0 0 .257-.621.886.886 0 0 0-.257-.621.886.886 0 0 0-.622-.258.886.886 0 0 0-.622.258.886.886 0 0 0-.257.62c0 .232.094.459.257.622a.886.886 0 0 0 .622.258M28.242 7.53H1.758V5.115c0-.813.661-1.475 1.474-1.475h1.475v1.004a.878.878 0 1 0 1.758 0V3.64h2.007v1.004a.879.879 0 1 0 1.758 0V3.64h2.008v1.004a.879.879 0 1 0 1.758 0V3.64h2.008v1.004a.879.879 0 1 0 1.758 0V3.64h2.007v1.004a.879.879 0 1 0 1.758 0V3.64h2.008v1.004a.879.879 0 1 0 1.758 0V3.64h1.474c.814 0 1.475.662 1.475 1.475zm0 11.49a6.512 6.512 0 0 0-4.77-2.076 6.534 6.534 0 0 0-6.527 6.527c0 1.881.8 3.578 2.076 4.77H3.232a1.476 1.476 0 0 1-1.474-1.475V9.289h26.484zm-9.539 4.451a4.775 4.775 0 0 1 4.769-4.769c2.63 0 4.77 2.14 4.77 4.769 0 2.63-2.14 4.77-4.77 4.77a4.775 4.775 0 0 1-4.769-4.77zm6.59-21.589V.879a.878.878 0 1 0-1.758 0v1.004h-2.008V.879a.878.878 0 1 0-1.758 0v1.004h-2.007V.879a.879.879 0 1 0-1.758 0v1.004h-2.008V.879a.879.879 0 1 0-1.758 0v1.004H10.23V.879a.878.878 0 1 0-1.758 0v1.004H6.465V.879a.879.879 0 1 0-1.758 0v1.004H3.232A3.236 3.236 0 0 0 0 5.115v21.652A3.236 3.236 0 0 0 3.232 30h20.24c3.6 0 6.528-2.928 6.528-6.528V5.115a3.236 3.236 0 0 0-3.233-3.232z"/></svg>