<svg width="7" height="12" viewBox="0 0 7 12" xmlns="http://www.w3.org/2000/svg" xmlns:xlink="http://www.w3.org/1999/xlink"><title>fb</title><defs><path id="a" d="M0 0h6.812v12H0z"/></defs><g fill="none" fill-rule="evenodd"><mask id="b" fill="#fff"><use xlink:href="#a"/></mask><path d="M6.555.003L4.922 0C3.086 0 1.9 1.16 1.9 2.953v1.362H.257A.251.251 0 0 0 0 4.559v1.974a.25.25 0 0 0 .257.244H1.9v4.978a.25.25 0 0 0 .257.245H4.3c.142 0 .258-.11.258-.245V6.777h1.92a.25.25 0 0 0 .257-.244l.001-1.974a.239.239 0 0 0-.076-.172.264.264 0 0 0-.18-.072H4.557V3.16c0-.555.138-.837.897-.837h1.1c.142 0 .257-.11.257-.245V.247a.251.251 0 0 0-.257-.244" fill="#C9A969" mask="url(#b)"/></g></svg>