<svg xmlns="http://www.w3.org/2000/svg" width="43" height="40" viewBox="0 0 43 40"><g clip-path="url(#clip-109F80FA-FFF7-46CA-8F89-4E6FF841950E)"><path fill="#b4b4b4" d="M42.164 20.35a.899.899 0 0 1 .071.332 7.464 7.464 0 1 1-14.928 0 .916.916 0 0 1 .072-.332l6.023-15.08H21.94v27.755c4.283.323 7.63 2.926 7.63 6.077a.898.898 0 0 1-.897.898h-15.26a.897.897 0 0 1-.898-.898c0-3.15 3.348-5.754 7.63-6.077V5.27H8.798l6.059 15.08a.9.9 0 0 1 .072.332 7.464 7.464 0 1 1-14.929 0 .916.916 0 0 1 .072-.332L6.141 5.278H3.259a.897.897 0 1 1 0-1.796h16.885V.898a.898.898 0 0 1 1.795 0v2.594h16.895a.897.897 0 1 1 0 1.795h-2.765l6.059 15.081zm-34.7 6.004a5.672 5.672 0 0 0 5.56-4.756H1.867a5.672 5.672 0 0 0 5.596 4.756zm.018-19.576L2.244 19.802h10.457zm20.134 31.427c-.665-1.93-3.413-3.421-6.583-3.421-3.17 0-5.91 1.491-6.574 3.42zm1.875-18.413h10.456L34.728 6.786zm5.237 6.562a5.672 5.672 0 0 0 5.596-4.756H29.167a5.673 5.673 0 0 0 5.561 4.766z"/></g></svg>