<svg width="115" height="60" viewBox="0 0 115 60" xmlns="http://www.w3.org/2000/svg"><title>Group 22</title><path d="M17.793 9.574l.196-6.688h9.464c0 1.945-.064 4.174-.152 6.688h-9.508zM0 47.716C1.137 24.24 1.684 9.29 1.64 2.885h9.377C9.66 27.015 9.006 41.967 9.006 47.76L0 47.716zM17.683 14.6h9.159c-.547 19.17-.787 30.208-.721 33.16l-9.662-.045c.547-7.323.962-18.36 1.224-33.115zm33.902-.262l-1.355 6.84h-6.121l-.24 26.58-9.311-.043.83-26.623-4.7.044 1.137-6.733h3.956v-.983c.176-4.634 1.094-7.76 2.777-9.355 1.749-1.662 4.262-2.558 7.519-2.776 1.704-.175 4.415-.175 8.13 0l-1.245 6.273c-4.481-.066-7.148.196-7.978.83-.677.459-1.027 2.12-1.027 4.919v1.027h7.628zM74.36 27.257c.197-1.902-.175-3.606-1.136-5.137-1.268-1.858-3.126-2.798-5.55-2.776-2.45-.022-4.352.744-5.773 2.252-1.595 1.726-2.47 3.869-2.622 6.426l14.973.066.108-.831zm-6.49-13.158c5.376 0 9.507 1.814 12.392 5.442 2.361 3.017 3.388 6.994 3.082 11.935l-.088.764H58.82l-.197 1.902c0 1.553.328 3.016.983 4.416 1.093 2.47 3.76 3.716 8.067 3.716 4.655 0 8.524-.678 11.562-2.011l-1.333 6.84c-3.782.876-7.935 1.268-12.504 1.137-5.136-.174-9.114-1.705-11.912-4.59-3.038-3.147-4.35-7.322-3.978-12.48.415-5.771 2.732-10.252 6.951-13.487 3.235-2.47 7.016-3.672 11.41-3.584zm31.43.655l-.218 8.809H88.656l.197-8.809H99.3zm12.285-5.246c2.383 6.142 3.497 13.005 3.345 20.634-.11 5.224-1.27 10.864-3.454 16.917a62.002 62.002 0 0 1-1.815 4.328A65.022 65.022 0 0 1 104.853 60h-6.754a73.935 73.935 0 0 0 4.153-8.613c2.95-7.234 4.48-14.425 4.59-21.55.153-5.64.02-9.969-.35-12.963-.765-6.142-2.536-11.76-5.355-16.874h6.076c.875 1.29 2.339 4.46 4.372 9.508zM87.629 39.191h10.535l-.22 8.743H87.41l.219-8.742z" fill="#101820" fill-rule="evenodd"/></svg>