<svg width="60" height="60" viewBox="0 0 60 60" xmlns="http://www.w3.org/2000/svg" xmlns:xlink="http://www.w3.org/1999/xlink"><title>Group 3</title><defs><path id="a" d="M0 0h60v60H0z"/></defs><g fill="none" fill-rule="evenodd"><mask id="b" fill="#fff"><use xlink:href="#a"/></mask><path d="M29.808 51.879c-8.416-.175-15.872-3.544-17.2-12.81h11.96c.31 2.956 2.297 4.616 5.297 4.696 4.295 0 5.997-3.115 5.997-6.288 0-3.645-2-6.29-6.173-6.29-3.287 0-4.23 1.52-4.936 2.58H14.68V17.543l6.86-6.88h23.52v8.418l-20.133-.004-.002 5.699c2.367-1.35 5.126-1.72 7.82-1.764 8.762 0 15.406 5.468 15.406 13.583-.608 11.689-8.451 15.6-18.344 15.285zM19.078-.001L0 19.08V60h60V0H19.079z" fill="#101820" mask="url(#b)"/></g></svg>