<svg width="170" height="45" viewBox="0 0 170 45" xmlns="http://www.w3.org/2000/svg"><title>terem_logo_ru_RGB</title><path d="M22.485 44.953C10.068 44.953.002 34.89 0 22.478V0h22.485a22.472 22.472 0 0 1 20.05 12.3 22.458 22.458 0 0 1-1.911 23.439l9.289 9.214h-9.309l-6.749-6.695-2.315-2.297 2.29-2.325a15.907 15.907 0 0 0 3.328-17.302 15.916 15.916 0 0 0-14.673-9.762H6.575v15.906c.005 7.514 5.268 14 12.623 15.555V22.894h-5.474v-6.572h17.522v6.572h-5.477v22.059h-3.284zM75.24 25.206a6.692 6.692 0 0 1-2.045.802 11.34 11.34 0 0 1-2.57.278c-2.471 0-4.37-.605-5.696-1.817-1.327-1.21-1.99-3.015-1.993-5.413v-6.362h-2.762v-4.96h2.762V2.805h6.641v4.927h4.335v4.961H69.58v6.292c-.03.582.17 1.153.556 1.589.378.392.906.603 1.45.578a3.524 3.524 0 0 0 2.029-.595l1.625 4.648zm21.254-7.023H82.723a3.842 3.842 0 0 0 1.626 2.253 5.42 5.42 0 0 0 3.023.786 6.551 6.551 0 0 0 2.359-.389 6.947 6.947 0 0 0 2.011-1.258l3.496 3.633c-1.84 2.05-4.531 3.075-8.075 3.075a12.902 12.902 0 0 1-5.835-1.258 9.264 9.264 0 0 1-5.28-8.561 9.478 9.478 0 0 1 1.346-5.014 9.363 9.363 0 0 1 3.723-3.478 11.93 11.93 0 0 1 10.487-.086 8.918 8.918 0 0 1 3.65 3.389c.897 1.481 1.346 3.234 1.346 5.258 0 .052-.036.602-.106 1.65zm-12.565-5.872a3.939 3.939 0 0 0-1.312 2.375h7.761a3.952 3.952 0 0 0-1.311-2.375 4.213 4.213 0 0 0-5.138 0zm24.716-4.944c1.189-.45 2.452-.67 3.723-.648v5.975c-.498-.062-1-.098-1.503-.105-1.423 0-2.534.384-3.334 1.153-.8.768-1.202 1.945-1.206 3.53v8.703h-6.641V7.036h6.327v2.27a6.188 6.188 0 0 1 2.634-1.94zm25.533 10.816h-13.774c.244.927.825 1.73 1.628 2.253.91.553 1.96.826 3.024.786a6.551 6.551 0 0 0 2.359-.389 6.947 6.947 0 0 0 2.006-1.258l3.498 3.633c-1.843 2.05-4.535 3.075-8.075 3.075a12.894 12.894 0 0 1-5.835-1.258 9.26 9.26 0 0 1-5.28-8.561 9.347 9.347 0 0 1 5.07-8.492 11.93 11.93 0 0 1 10.486-.086 8.91 8.91 0 0 1 3.654 3.389c.896 1.481 1.345 3.234 1.345 5.258 0 .053-.037.6-.106 1.65zm-12.568-5.872a3.952 3.952 0 0 0-1.311 2.375h7.76a3.936 3.936 0 0 0-1.308-2.375 4.216 4.216 0 0 0-5.14 0zm46-3.494c1.386 1.398 2.08 3.506 2.082 6.325v10.833h-6.641v-9.75c0-1.328-.251-2.306-.753-2.936a2.551 2.551 0 0 0-2.115-.945 3.03 3.03 0 0 0-2.412 1.048c-.607.698-.91 1.758-.908 3.18v9.403h-6.641v-9.75c0-2.593-.956-3.889-2.868-3.889a3.057 3.057 0 0 0-2.445 1.047c-.608.698-.91 1.759-.909 3.18v9.412h-6.64V7.036h6.324v1.992a6.65 6.65 0 0 1 2.5-1.73 8.502 8.502 0 0 1 3.163-.576 8.338 8.338 0 0 1 3.567.734 6.043 6.043 0 0 1 2.551 2.236 7.355 7.355 0 0 1 2.832-2.192 9.039 9.039 0 0 1 3.74-.77c2.328-.007 4.186.689 5.574 2.087zm-98.56 31.15v2.627h-1.368v-1.388H62.87v1.388h-1.354v-2.627h.278c.398-.017.67-.278.814-.767.17-.687.263-1.39.278-2.097l.084-2.136h5.14v5h.94zm-5.002-1.006a1.836 1.836 0 0 1-.467 1.006h3.073v-3.761h-2.392l-.036 1.005a12.616 12.616 0 0 1-.164 1.753l-.014-.003zm11.987.483c.023.512-.214 1-.63 1.298-.423.303-1.047.455-1.871.455h-3.176V34.97h3.057a3.246 3.246 0 0 1 1.789.42c.413.253.658.708.642 1.192.008.297-.08.59-.25.833-.18.246-.424.438-.706.555.763.226 1.145.718 1.145 1.475zm-4.285-1.88h1.528c.756 0 1.134-.261 1.134-.783 0-.523-.378-.775-1.134-.759H71.75v1.542zm2.873 1.786a.711.711 0 0 0-.278-.614 1.504 1.504 0 0 0-.878-.205h-1.714v1.6h1.667c.798.01 1.203-.248 1.203-.77v-.011zm8.784-.794H78.51c.071.438.313.83.672 1.091a2.2 2.2 0 0 0 1.348.403 2.282 2.282 0 0 0 1.697-.678l.784.9a2.648 2.648 0 0 1-1.064.759 4.214 4.214 0 0 1-3.26-.153 2.945 2.945 0 0 1-1.211-1.14 3.213 3.213 0 0 1-.428-1.652 3.277 3.277 0 0 1 .417-1.642c.27-.48.67-.874 1.153-1.138.51-.28 1.085-.42 1.667-.409.569-.01 1.13.13 1.628.403.47.265.856.658 1.112 1.133.277.52.415 1.101.403 1.69 0 .1-.006.244-.022.433zm-4.318-2.073a1.76 1.76 0 0 0-.59 1.111h3.54a1.708 1.708 0 0 0-.572-1.11 1.737 1.737 0 0 0-1.192-.42 1.765 1.765 0 0 0-1.186.417v.002zm11.028-1.186a2.85 2.85 0 0 1 1.128 1.111 3.61 3.61 0 0 1 0 3.334c-.26.476-.652.867-1.128 1.127-.5.27-1.06.407-1.628.398a2.501 2.501 0 0 1-1.995-.834v3.04h-1.468v-8.504h1.39v.817c.237-.293.543-.522.892-.667a3.03 3.03 0 0 1 1.172-.222 3.315 3.315 0 0 1 1.637.4zM89.65 39.5a2.18 2.18 0 0 0 0-2.825 1.762 1.762 0 0 0-1.322-.539 1.882 1.882 0 0 0-.948.239 1.736 1.736 0 0 0-.667.683 2.283 2.283 0 0 0 0 2.056c.154.285.385.522.667.683.29.162.616.244.948.24.496.015.977-.18 1.322-.537zm3.454-4.53h1.462v4.11l3.445-4.11h1.334v6.236h-1.462v-4.112l-3.437 4.112h-1.342v-6.237zm18.083 4.997v2.627h-1.367v-1.388h-4.812v1.388h-1.365v-2.627h.278c.398-.017.67-.278.814-.767.17-.687.263-1.39.278-2.097l.084-2.136h5.14v5h.95zm-5.001-1.006a1.836 1.836 0 0 1-.467 1.006h3.073v-3.761h-2.37l-.036 1.005a12.616 12.616 0 0 1-.186 1.753l-.014-.003zm11.965-3.992v6.237h-1.448v-5h-2.34l-.058 1.238a13.693 13.693 0 0 1-.225 2.073c-.08.48-.277.933-.572 1.32a1.365 1.365 0 0 1-1.112.485 3.2 3.2 0 0 1-.803-.128l.07-1.225c.09.021.184.032.277.034a.73.73 0 0 0 .667-.356 2.06 2.06 0 0 0 .278-.853c.043-.331.08-.804.111-1.419l.109-2.406h5.046zm7.23 0v6.237h-1.309v-1.881h-1.645l-1.278 1.88h-1.565l1.47-2.077a2.092 2.092 0 0 1-1.033-.72 2.194 2.194 0 0 1 .408-2.852 3.357 3.357 0 0 1 2.09-.584l2.862-.003zm-4.232 2.29c0 .7.456 1.05 1.367 1.05h1.553v-2.115h-1.503c-.945 0-1.417.355-1.417 1.064zm15.344 1.447h-1.05v2.5h-1.448v-2.5h-1.05l-1.52 2.5h-1.729l2.042-3.223-1.892-3.014h1.556l1.517 2.523h1.076v-2.523h1.447V37.5h1.064l1.529-2.522h1.556l-1.893 3.014 2.054 3.222h-1.74l-1.52-2.508zm4.343-3.737h1.461v4.112l3.446-4.112h1.333v6.237h-1.475v-4.112l-3.432 4.112h-1.345l.012-6.237zm12.754 3.52a1.3 1.3 0 0 1 .322.88 1.49 1.49 0 0 1-.386 1.012 2.532 2.532 0 0 1-1.065.683 4.503 4.503 0 0 1-1.539.244 5.92 5.92 0 0 1-1.414-.17 4.975 4.975 0 0 1-1.25-.485l.422-1.086c.323.178.669.312 1.028.397.375.092.76.139 1.147.139.397.02.792-.058 1.15-.228a.692.692 0 0 0 .418-.625.625.625 0 0 0-.323-.556 1.729 1.729 0 0 0-.906-.2h-1.217v-.98h1.112c.297.015.592-.049.856-.186a.583.583 0 0 0 .31-.525.6.6 0 0 0-.374-.54 2.204 2.204 0 0 0-1.028-.196 4.92 4.92 0 0 0-1.976.455l-.372-1.075a5.8 5.8 0 0 1 2.475-.572 4.37 4.37 0 0 1 1.426.217 2.3 2.3 0 0 1 .986.608c.447.47.48 1.197.078 1.706a1.82 1.82 0 0 1-.77.555c.342.086.65.27.89.528zm1.839-3.52h1.462V37.5h3.142v-2.533h1.459v6.236h-1.459v-2.464h-3.142v2.464h-1.462v-6.234zm8.025 0h1.461v4.112l3.446-4.112h1.334v6.237h-1.462v-4.112l-3.432 4.112h-1.345l-.002-6.237z" fill="#101820"/></svg>