<svg width="210" height="44" viewBox="0 0 210 44" xmlns="http://www.w3.org/2000/svg"><title>Group 19</title><path d="M202.831 8.963h6.487l-8.707 9.695L210 29.332v.001h-6.666l-7.634-8.577v8.577h-5.16V8.963h5.16v8.068l7.131-8.068zm-21.62 7.598V8.963h5.275v20.37h-5.274V21.3h-7.289v8.033h-5.274V8.963h5.274v7.598h7.289zM30.798 20.21l.36-11.027h14.84v20.353h-5.189V13.92H35.84l-.217 6.76c-.195 6.11-1.47 8.857-6.77 8.857h-.793v-4.77c2.124 0 2.613-.76 2.738-4.556zm27.694 4.846c1.837 0 2.883-.833 2.883-2.677 0-1.698-1.082-2.494-2.883-2.494h-3.35v5.17h3.35zm.396-9.69c4.936 0 7.745 2.53 7.745 7.013 0 3.471-2.016 7.158-7.672 7.158h-9.005V9.184h5.186v6.182h3.746zm24.638 9.725c2.882-.398 4.683-2.567 4.683-5.748 0-3.182-1.8-5.352-4.683-5.748V25.09zm-5.186 0V13.595c-2.882.396-4.684 2.566-4.684 5.748 0 3.181 1.802 5.35 4.684 5.748zm5.186-16.38c5.944.472 9.942 4.702 9.942 10.632 0 5.929-3.998 10.194-9.942 10.665v7.665H78.34v-7.665c-5.944-.507-9.943-4.736-9.943-10.665 0-5.894 3.999-10.124 9.943-10.631V1.156h5.186v7.556zm24.205 13.235v-1.339h-4.143c-1.404 0-3.026.326-3.026 2.315 0 2.024 1.478 2.712 3.35 2.712 2.162 0 3.82-1.339 3.82-3.688zm5.186 1.337c0 1.122.36 1.555 1.298 1.555v4.699h-1.801c-1.982 0-3.495-.76-4.18-2.132-.768 1.137-2.525 2.64-5.69 2.64-4.318 0-7.312-2.894-7.312-7.123 0-4.05 2.738-6.472 7.348-6.472h5.151c0-2.459-1.296-3.399-3.315-3.399-2.45 0-3.241 1.303-3.42 2.062h-5.26c.253-3.47 3.17-6.8 8.68-6.8 5.332 0 8.501 3.148 8.501 8.137v6.833zm21.973 1.122c2.88 0 4.501-1.267 4.501-3.69 0-2.349-1.62-3.686-4.501-3.686h-5.548v7.376h5.548zm.252-12.33c6.231 0 9.796 3.254 9.796 8.64 0 5.714-3.565 8.822-9.796 8.822h-11.239V1.157h18.874v5.169h-13.435v5.75h5.8zM0 44v-5.785h27.734V44H0zM13.795 7.194L9.905 18.8h7.708L13.94 7.194h-.145zM8.248 23.718l-1.98 5.818H.576L9.159 5.052c.831-2.375 1.8-4.238 4.924-4.238 3.124 0 4.036 1.87 4.825 4.238l8.18 24.484h-6.052l-1.837-5.818H8.248zm151.35-1.772v-1.339h-4.144c-1.404 0-3.024.326-3.024 2.315 0 2.024 1.475 2.712 3.35 2.712 2.16 0 3.817-1.339 3.817-3.688zm5.185 1.337c0 1.122.361 1.555 1.298 1.555v4.699h-1.802c-1.98 0-3.493-.76-4.177-2.132-.769 1.137-2.526 2.64-5.692 2.64-4.317 0-7.312-2.894-7.312-7.123 0-4.05 2.737-6.472 7.348-6.472h5.151c0-2.459-1.296-3.399-3.314-3.399-2.45 0-3.241 1.303-3.422 2.062h-5.257c.25-3.47 3.17-6.8 8.679-6.8 5.33 0 8.5 3.148 8.5 8.137v6.833z" fill="#101820" fill-rule="evenodd"/></svg>