<svg width="139" height="80" viewBox="0 0 139 80" xmlns="http://www.w3.org/2000/svg"><title>Combined Shape</title><path d="M57.54 57.824l-.86-.373a50.473 50.473 0 0 0-3.281 4.907 4.095 4.095 0 0 0 .933 4.868c.892.946 1.812 1.213 2.062-.47.45-3.018.719-5.948 1.146-8.932zm.572-13.67c-5.658 7.467-10.574 5.637-14.526-1.76A42.906 42.906 0 0 1 38.176 47c-4.172 2.585-8.642.162-8.916-4.743-.096-1.814 0-3.659-.087-5.504a5.69 5.69 0 0 0-.833-1.814c-.629.314-1.531.472-1.836.976a29.087 29.087 0 0 0-1.847 4.123c-.739 1.75-1.393 3.55-2.173 5.25-.798 1.748-2.75 2.677-4.635 2.212-1.873-.182-3.3-1.741-3.281-3.603-.14-2.352.129-4.733 0-7.094a8.34 8.34 0 0 0-.78-2.243c-.64.524-1.56.91-1.89 1.579-1.252 2.68-2.368 5.581-3.619 8.33a9.308 9.308 0 0 1-1.56 2.585 3.72 3.72 0 0 1-5.203.344A3.647 3.647 0 0 1 .32 45.324a5.049 5.049 0 0 1-.208-1.193c0-5.504-.182-11.108-.085-16.666a7.617 7.617 0 0 1 1.391-4.123 6.725 6.725 0 0 1 3.55-2.337c2.14-.567 3.2.44 3.3 2.748.085 1.773 0 3.562 0 5.346l.933.26a16.65 16.65 0 0 0 1.866-2.135c1.17-1.897 2.183-3.904 3.355-5.815.846-1.73 2.848-2.58 4.702-2.008 1.823.417 3.03 2.14 2.78 3.973v5.966l.793.246a15.49 15.49 0 0 0 1.573-1.62c1.67-1.965 3.226-4.044 4.952-5.954a7.146 7.146 0 0 1 2.628-1.869c2.02-.978 4.447-.151 5.435 1.843.379.76.5 1.617.353 2.447-.28 3.99-.53 7.975-.751 11.965a19.16 19.16 0 0 0 .111 2.17c3.006-.958 5.208-3.514 5.69-6.6.208-3.291.61-6.565 1.208-9.807.317-1.964 1.958-3.464 3.963-3.616a4.701 4.701 0 0 1 4.735 1.813 5.143 5.143 0 0 1 .11 5.788c-1.672 2.747-1.563 5.731-1.184 8.673a4.579 4.579 0 0 0 2.007 3.164c1.517.73 2.779-.59 3.377-1.91a83.221 83.221 0 0 0 2.782-8.252c.585-1.942.824-3.99 1.39-5.913.86-2.681 2.782-3.863 5.093-3.328 2.445.598 4.019 2.949 3.617 5.409-.166 1.373-.709 2.607-.922 3.945-.672 4.045-1.25 8.103-1.908 12.375 3.146-.975 5.646-1.814 8.21-2.49 1.2-.247 2.432-.331 3.657-.234 2.313 0 3.398 1.139 4.171 3.726 2.544 8.153 8.057 13.036 16.584 14.452 12.27 2.049 23.955-8.83 22.736-21.076-.085-.814-.196-1.623-.251-2.437-.494-2.222.933-4.422 3.185-4.911 2.249-.488 4.475.922 4.97 3.146.054.26.091.518.096.784 1.683 11.138-1.865 20.39-10.88 27.25-12.417 9.354-30.158 6.984-39.623-5.287a28.333 28.333 0 0 1-2.115-3.17c-1.91-3.274-2.521-3.467-5.983-1.828a5.465 5.465 0 0 1-.557.277c-3.462 1.28-4.756 3.685-5.079 7.384a109.64 109.64 0 0 1-2.782 17.396c-1.865 7.297-6.385 8.594-12.52 4.123-7.579-5.461-8.972-13.9-3.17-21.066a48.903 48.903 0 0 1 8.446-7.644 4.26 4.26 0 0 0 2.06-4.55zm57.499-30.697a8.338 8.338 0 0 1 3.194-7.606c1.73-1.542 3.28-3.32 4.997-4.894A7.433 7.433 0 0 1 125.895 0a7.72 7.72 0 0 1 .644 2.017c.086 2.463.068 4.926 0 7.399 0 1.727.763 2.487 2.497 2.474h7.624a6.54 6.54 0 0 1 1.829.61 6.15 6.15 0 0 1-.825 1.932c-2.026 2.141-4.185 4.17-6.243 6.273a6.205 6.205 0 0 1-5.47 1.822 7.688 7.688 0 0 0-7.33 3.017c-2.168 2.475-4.707 4.614-6.982 7.02a3.963 3.963 0 0 0-.99 2.628c.359 4.798-3.257 8.973-8.067 9.326-4.815.36-9.007-3.241-9.361-8.034a7.148 7.148 0 0 1-.018-.902c.163-4.717 4.142-8.41 8.879-8.246.238.006.483.024.721.055a3.556 3.556 0 0 0 3.256-1.17c2.33-2.42 4.674-4.84 7.189-7.077 1.83-1.554 2.95-3.225 2.363-5.687zM76.749 24.092c.239-.744.54-1.461.895-2.156 6.06-10.447 18.013-15.975 29.888-13.812 2.895.558 4.532 2.524 4.115 4.962-.416 2.438-2.62 3.893-5.6 3.347a20.202 20.202 0 0 0-20.803 9.206 12.479 12.479 0 0 1-1.258 1.89 3.956 3.956 0 0 1-4.716 1.027c-1.67-.706-2.553-2.063-2.52-4.464z" fill="#101820" fill-rule="evenodd"/></svg>