<svg width="222" height="55" viewBox="0 0 222 55" xmlns="http://www.w3.org/2000/svg"><title>logo copy</title><g fill="none" fill-rule="evenodd"><path d="M54.95 27.5c0 15.188-12.3 27.5-27.475 27.5C12.301 55 0 42.688 0 27.5S12.301 0 27.475 0C42.65 0 54.951 12.312 54.951 27.5" fill="#101820"/><path d="M11.946 14.348v35.83a27.31 27.31 0 0 0 9.557 4.15V21.522h11.945v19.13h9.557V14.348h-31.06z" fill="#EBD3A9"/><path d="M74.104 18.094v12.994h-4.819v-16.74h14.878v16.74h-4.796V18.094h-5.263zm21.93 6.954v-.189c0-2.152-.914-3.183-2.41-3.183-1.52 0-2.433 1.1-2.433 3.161v.187c0 2.084.912 3.138 2.433 3.138 1.59 0 2.41-1.077 2.41-3.114zm-4.726-6.206v1.828c.725-1.195 1.94-2.154 3.812-2.154 1.428 0 2.715.538 3.65 1.591.935 1.054 1.52 2.67 1.52 4.752v.189c0 2.13-.585 3.699-1.52 4.728-.935 1.054-2.245 1.593-3.672 1.593-1.873 0-3.159-.867-3.79-2.083v5.9H87.12V18.841h4.187zm19.33 6.206v-.189c0-2.059-.819-3.207-2.409-3.207-1.591 0-2.434 1.1-2.434 3.161v.188c0 2.13.818 3.254 2.434 3.254 1.59 0 2.409-1.147 2.409-3.207zm-7.183 4.682c-1.215-1.054-1.94-2.645-1.94-4.612v-.187c0-1.968.725-3.559 1.94-4.683 1.194-1.124 2.878-1.732 4.774-1.732 1.87 0 3.554.585 4.748 1.685 1.192 1.1 1.919 2.67 1.919 4.612v.188c0 1.99-.727 3.582-1.92 4.682-1.216 1.101-2.9 1.686-4.772 1.686-1.87 0-3.555-.585-4.75-1.639zm26.043-4.66v-.186c0-1.967-.771-3.208-2.455-3.372v6.837c1.59-.164 2.455-1.405 2.455-3.278zm-9.028-.257v.188c0 1.966.771 3.208 2.456 3.37v-6.836c-1.591.164-2.456 1.405-2.456 3.278zm13.287-.047v.188c0 3.91-2.901 6.274-6.714 6.392v3.84h-4.117v-3.84c-3.838-.187-6.713-2.271-6.713-6.228v-.187c0-3.91 2.9-6.276 6.713-6.392v-4.191h4.117v4.19c3.837.188 6.714 2.271 6.714 6.228zm2.092-5.923h4.163v7.446l3.836-7.446h4.163v12.245h-4.163v-7.446l-3.836 7.446h-4.163V18.843zm21.27 2.856v9.39h-4.165v-9.39h-3.437v-2.856h11.041V21.7h-3.44zm18.513-1.639v-.093c0-1.429-.843-2.014-2.34-2.014h-1.402v4.215h1.378c1.59 0 2.364-.703 2.364-2.108zm-2.153-5.712c4.585 0 6.714 2.037 6.714 5.595v.093c0 3.536-2.316 5.409-6.504 5.409h-1.8v5.643h-4.773v-16.74h6.363zm16.524 10.7v-.189c0-2.059-.819-3.207-2.41-3.207-1.59 0-2.433 1.1-2.433 3.161v.188c0 2.13.818 3.254 2.434 3.254 1.59 0 2.409-1.147 2.409-3.207zm-7.183 4.682c-1.216-1.054-1.941-2.645-1.941-4.612v-.187c0-1.968.725-3.559 1.94-4.683 1.195-1.124 2.88-1.732 4.775-1.732 1.87 0 3.553.585 4.748 1.685 1.192 1.1 1.917 2.67 1.917 4.612v.188c0 1.99-.725 3.582-1.917 4.682-1.217 1.101-2.902 1.686-4.773 1.686-1.87 0-3.555-.585-4.75-1.639zm13.67 1.662c-.96 0-1.38-.233-1.404-.233v-3.16c.023.021.07.021.117.046.047.023.163.023.327.023.842 0 1.31-.96 1.497-3.185 0-.421.093-1.92.093-3.348l.048-2.692h10.223v12.245h-4.163v-9.39h-2.436c-.022 1.57-.045 2.95-.209 4.17-.374 3.487-1.38 5.524-4.093 5.524zm14.136 0c-.959 0-1.38-.233-1.403-.233v-3.16c.023.021.07.021.115.046.049.023.165.023.329.023.842 0 1.31-.96 1.497-3.185 0-.421.093-1.92.093-3.348l.048-2.692h10.223v12.245h-4.165v-9.39h-2.434c-.022 1.57-.045 2.95-.209 4.17-.376 3.487-1.381 5.524-4.094 5.524zM70.07 40.79l2.467 6.017 2.476-6.017h.764v7.007h-.538v-6.32l-2.633 6.32h-.177l-2.634-6.32v6.32h-.508V40.79h.783zm9.426 2.244c-1 0-1.685.697-1.793 1.823h3.496c-.05-1.253-.695-1.823-1.703-1.823zm-2.352 2.255v-.079c0-1.539.981-2.617 2.352-2.617 1.232 0 2.242.804 2.242 2.5v.186h-4.053c.027 1.382.666 2.155 1.889 2.155.86 0 1.419-.352 1.604-1.068h.52c-.226.98-1.018 1.51-2.124 1.51-1.48 0-2.43-1.049-2.43-2.587zm9.932-.05v-.048c0-1.373-.744-2.157-1.84-2.157-1.126 0-2.038.794-2.038 2.166v.02c0 1.372.834 2.214 1.94 2.214 1.097 0 1.938-.813 1.938-2.194zm-4.405-.245v-.607c0-2.302.587-4.037 2.82-4.116l.343-.009c.782-.03 1.164-.088 1.409-.178v.452c-.225.088-.578.156-1.39.195l-.333.01c-1.763.078-2.359 1.195-2.438 3.323h.03c.323-.902 1.145-1.47 2.173-1.47 1.361 0 2.32 1.048 2.32 2.578v.058c0 1.617-1.097 2.645-2.477 2.645-1.39 0-2.457-.998-2.457-2.88zm8.142-1.96c-1 0-1.685.697-1.793 1.823h3.496c-.05-1.253-.695-1.823-1.703-1.823zM88.46 45.29v-.079c0-1.539.981-2.617 2.352-2.617 1.233 0 2.242.804 2.242 2.5v.186H89c.027 1.382.666 2.155 1.889 2.155.86 0 1.419-.352 1.604-1.068h.52c-.226.98-1.019 1.51-2.124 1.51-1.48 0-2.43-1.049-2.43-2.587zm5.508 2.547a.965.965 0 0 1-.275-.029l-.098-.04v-.5l.098.041c.06.019.136.029.235.029.528 0 .666-.774.774-1.871.05-.51.088-1.206.117-1.784.02-.334.03-.667.039-1.01h3.202v5.126h-.518v-4.684h-2.214c-.03.548-.069 1.665-.147 2.4-.126 1.49-.401 2.322-1.213 2.322zm8.727-1.646v-.028c0-.785-.45-1.196-1.352-1.196h-1.136v2.42h1.234c.863 0 1.254-.451 1.254-1.196zm-2.488-3.517v1.88h1.108c1.105 0 1.899.53 1.899 1.609v.028c0 1.097-.763 1.607-1.8 1.607h-1.725v-5.124h.518zm4.684 2.695v2.43h-.519v-5.125h.519v2.253h2.947v-2.253h.519v5.124h-.519v-2.43h-2.947zm8.18.773v-.872h-1.047c-1.067 0-1.9.225-1.9 1.147 0 .665.403 1.038 1.255 1.038.938 0 1.692-.558 1.692-1.313zm-3.464.275c0-1.186 1.133-1.549 2.398-1.549h1.066v-.46c0-.971-.39-1.372-1.291-1.372-.784 0-1.321.333-1.441 1.087h-.507c.106-1.068 1.007-1.53 1.966-1.53 1.059 0 1.794.51 1.794 1.814v3.392h-.52v-.785c-.323.5-.872.863-1.733.863-1.019 0-1.732-.49-1.732-1.46zm5.915-2.215v.028c0 .707.441 1.08 1.351 1.08h1.138v-2.216h-1.235c-.832 0-1.254.373-1.254 1.108zm-.83 3.597l1.577-2.176c-.734-.128-1.265-.539-1.265-1.393v-.028c0-1.07.765-1.53 1.802-1.53h1.732v5.127h-.527V45.71h-1.225l-1.487 2.088h-.607zm12.87-2.519v-.069c0-1.381-.9-2.155-2.144-2.204v4.468c1.244-.029 2.144-.823 2.144-2.195zm-4.806-.088v.077c0 1.372.9 2.166 2.143 2.195v-4.457c-1.244.028-2.143.823-2.143 2.185zm5.334 0v.077c0 1.598-1.146 2.558-2.672 2.607v1.707h-.519v-1.707c-1.527-.05-2.673-1.018-2.673-2.596v-.08c0-1.606 1.146-2.547 2.673-2.597v-2.381h.519v2.381c1.526.05 2.672 1.009 2.672 2.588zm4.322.95v-.872h-1.046c-1.068 0-1.9.225-1.9 1.147 0 .665.403 1.038 1.255 1.038.937 0 1.691-.558 1.691-1.313zm-3.463.275c0-1.186 1.135-1.549 2.397-1.549h1.066v-.46c0-.971-.389-1.372-1.291-1.372-.784 0-1.321.333-1.44 1.087h-.508c.106-1.068 1.008-1.53 1.968-1.53 1.058 0 1.793.51 1.793 1.814v3.392h-.522v-.785c-.32.5-.87.863-1.732.863-1.018 0-1.73-.49-1.73-1.46zm9.675-1.176v-.049c0-1.373-.744-2.157-1.84-2.157-1.126 0-2.037.794-2.037 2.166v.02c0 1.372.832 2.214 1.939 2.214 1.097 0 1.938-.813 1.938-2.194zm-4.406-.246v-.607c0-2.302.587-4.037 2.821-4.116l.343-.009c.782-.03 1.164-.088 1.408-.178v.452c-.225.088-.577.156-1.389.195l-.333.01c-1.763.078-2.36 1.195-2.439 3.323h.031c.323-.902 1.145-1.47 2.173-1.47 1.36 0 2.32 1.048 2.32 2.578v.058c0 1.617-1.097 2.645-2.476 2.645-1.39 0-2.459-.998-2.459-2.88zm10.403.285v-.08c0-1.411-.831-2.166-1.81-2.166-1 0-1.91.755-1.91 2.166v.08c0 1.4.86 2.154 1.92 2.154 1.087 0 1.8-.773 1.8-2.155zm-3.71-2.607v1.196c.284-.658 1.049-1.275 1.948-1.275 1.292 0 2.301.99 2.301 2.587v.079c0 1.607-.97 2.616-2.301 2.616-1.008 0-1.684-.617-1.948-1.244v2.95h-.52v-6.909h.52zm5.486 0h.52v4.36l3.045-4.36h.519v5.125h-.52v-4.37l-3.045 4.37h-.52v-5.125zm6.164 5.125h-.52v-5.125h.52v2.449l2.496-2.449h.618l-2.496 2.42 2.662 2.705h-.646l-2.634-2.676v2.676zm7.297-1.656v-.872h-1.046c-1.068 0-1.899.225-1.899 1.147 0 .665.402 1.038 1.253 1.038.939 0 1.692-.558 1.692-1.313zm-3.464.275c0-1.186 1.137-1.549 2.398-1.549h1.066v-.46c0-.971-.389-1.372-1.29-1.372-.784 0-1.322.333-1.44 1.087h-.508c.105-1.068 1.007-1.53 1.967-1.53 1.058 0 1.792.51 1.792 1.814v3.392h-.52v-.785c-.323.5-.871.863-1.733.863-1.018 0-1.732-.49-1.732-1.46z" fill="#101820"/></g></svg>