<svg width="147" height="40" viewBox="0 0 147 40" xmlns="http://www.w3.org/2000/svg"><title>Group 12</title><path d="M0 .002h36.673L0 36.647V.002zM3.272 40L39.936 3.36V40H3.273zm85.85-18.268v11.955h6.17c4.568 0 6.884-1.984 6.884-5.897v-.22c0-3.929-2.34-5.838-7.158-5.838h-5.896zm6.554-5.987c9.182 0 14.24 4.22 14.24 11.883v.221c0 7.723-5.25 12.152-14.404 12.152H81.163V.053h25.351v6.48H89.122v9.211h6.554zm34.026 3.381L147.058 40h-9.546l-14.56-17.682V40h-8.014V.053h8.014v17.154L137.46 0h8.796l-16.554 19.125zm-61.41-6.367v-.22c0-4.17-2.24-6.112-7.049-6.112H56.28v12.669h4.963c4.611 0 7.048-2.191 7.048-6.337zM61.242.054c9.467 0 14.898 4.55 14.898 12.484v.22c0 7.829-5.37 12.318-14.733 12.318H56.28V40h-8.014V.054h12.977z" fill="#101820" fill-rule="evenodd"/></svg>