<svg width="174" height="80" viewBox="0 0 174 80" xmlns="http://www.w3.org/2000/svg"><title>logo</title><g fill="none" fill-rule="evenodd"><path d="M0 71.977V8.052h63.925v63.925H0zm3.396-3.395H60.53V11.448H3.396v57.134zM71.149 80V0h2.054v80h-2.054zM46.958 17.295h7.882v6.743h-4.248v-2.213h-3.634c-.688 0-1.374.03-2.058.09a24.68 24.68 0 0 0-4.247.717 24.375 24.375 0 0 0-6.555 2.746c-.335.202-.662.413-.985.632L32 26.767l-.038-.024-.037.024-1.113-.757c-.323-.219-.65-.43-.985-.632a24.389 24.389 0 0 0-6.555-2.746 24.68 24.68 0 0 0-4.247-.718 23.54 23.54 0 0 0-2.058-.089h-3.634v2.213H9.084v-6.743h7.883c5.373 0 10.525 1.434 14.992 4.163.001 0 .002 0 .003-.002l.003.002c4.468-2.729 9.619-4.163 14.993-4.163zm-14.993 14.46c4.467-2.73 9.62-4.164 14.993-4.164h7.882v4.53h-7.882c-.689 0-1.374.03-2.058.09v21.863c.273.018.544.041.814.073l1.744.2c.925.103 1.851-.189 2.472-.785.3-.29.662-.776.662-1.449V35.674h4.248v16.44a6.618 6.618 0 0 1-2.07 4.816 6.95 6.95 0 0 1-2.178 1.42 7.22 7.22 0 0 1-3.585.5l-1.742-.199c-2.462-.279-5.509.3-7.837 1.341v-4.817a22.026 22.026 0 0 1 3.225-.842V32.927a24.416 24.416 0 0 0-6.556 2.747v26.081l-2.135 1.155-2.135-1.156.001-26.079a24.423 24.423 0 0 0-6.556-2.748v21.406c1.086.196 2.184.484 3.224.842v4.817c-2.327-1.042-5.375-1.62-7.837-1.34l-1.742.197a7.22 7.22 0 0 1-3.585-.499 6.96 6.96 0 0 1-2.177-1.42 6.622 6.622 0 0 1-2.07-4.817V35.674h4.247v16.44c0 .672.362 1.158.662 1.448.621.596 1.547.888 2.473.784l1.744-.199c.27-.032.541-.055.814-.073V32.21a23.54 23.54 0 0 0-2.058-.089H9.084v-4.53h7.883c5.373 0 10.525 1.434 14.992 4.163.001 0 .002 0 .003-.002l.003.002z" fill="#C9A969"/><path d="M80.408 8.052h2.523v10.22h4.904V8.052h2.532v10.22h1.674v3.756h-2.524V20.3h-9.11V8.052zm20.549 6.94h-4.845v3.28h5.686V20.3h-8.21V8.053h8.193v2.043h-5.669v2.919h4.845v1.977zm12.29 5.307h-2.524V15.05h-4.92v5.25h-2.525V8.051h2.524v4.963h4.921V8.052h2.523V20.3zm11.178-10.203h-3.751V20.3h-2.524V10.096h-3.701V8.052h9.976v2.044zm3.961 3.844h2.254c.668 0 1.177-.157 1.527-.47.351-.315.526-.764.526-1.347 0-.6-.177-1.085-.53-1.455-.353-.37-.84-.56-1.464-.572h-2.313v3.844zm0 2.044V20.3h-2.523V8.052h4.777c.92 0 1.73.168 2.427.505.698.336 1.236.814 1.611 1.434s.563 1.324.563 2.116c0 1.2-.41 2.145-1.232 2.838-.82.693-1.958 1.04-3.41 1.04h-2.213zM83.04 32.194v3.305h2.162c.594 0 1.058-.142 1.392-.425.334-.283.5-.674.5-1.173 0-1.122-.58-1.69-1.74-1.708H83.04zm0-1.784h1.867c1.273-.023 1.91-.53 1.91-1.523 0-.555-.161-.954-.483-1.198-.323-.245-.833-.366-1.528-.366H83.04v3.087zm-2.523 7.116V25.28h4.29c1.486 0 2.612.284 3.382.853.768.57 1.152 1.404 1.152 2.503 0 .6-.154 1.128-.463 1.585a2.675 2.675 0 0 1-1.287 1.006c.629.156 1.123.473 1.485.95.362.477.543 1.06.543 1.75 0 1.177-.376 2.07-1.127 2.675-.752.605-1.824.913-3.215.925h-4.76zM98.855 25.28h2.532v12.247h-2.532v-8.134l-4.904 8.134h-2.523V25.28h2.523v8.15l4.904-8.15zm10.758 3.373c0-.465-.183-.831-.547-1.098-.365-.266-.847-.4-1.447-.4-.538 0-.985.134-1.34.4-.357.267-.536.613-.536 1.039h-2.523c0-.661.186-1.257.56-1.787.373-.53.902-.944 1.59-1.241a5.61 5.61 0 0 1 2.25-.446c1.412 0 2.52.303 3.322.909.802.605 1.203 1.463 1.203 2.574 0 .544-.164 1.049-.492 1.514-.329.465-.795.838-1.4 1.119.672.235 1.188.592 1.547 1.072.36.479.538 1.075.538 1.787 0 1.1-.43 1.973-1.29 2.62-.862.648-2.004.972-3.429.972-.89 0-1.693-.153-2.405-.458-.712-.306-1.252-.724-1.62-1.254-.367-.53-.55-1.145-.55-1.846h2.54c0 .438.191.803.572 1.098.381.294.87.44 1.463.44.673 0 1.204-.15 1.594-.453.39-.303.585-.687.585-1.152 0-.64-.174-1.098-.52-1.375-.349-.278-.857-.417-1.524-.417h-1.506v-1.976h1.556c1.206-.017 1.81-.564 1.81-1.641zm20.985 3.541V35.5h2.162c.594 0 1.058-.142 1.392-.425.334-.283.5-.674.5-1.173 0-1.122-.58-1.69-1.74-1.708h-2.314zm0-1.783h1.867c1.273-.023 1.91-.53 1.91-1.523 0-.555-.16-.954-.484-1.198-.322-.245-.83-.366-1.526-.366h-1.767v3.087zm-2.523 7.116V25.28h4.29c1.485 0 2.612.284 3.381.853.768.57 1.152 1.404 1.152 2.503 0 .6-.154 1.128-.463 1.585a2.677 2.677 0 0 1-1.286 1.006c.628.156 1.122.473 1.484.95.362.477.543 1.06.543 1.75 0 1.177-.376 2.07-1.127 2.675-.752.605-1.823.913-3.214.925h-4.76zm32.234-12.247h2.532v12.247h-2.532v-8.134l-4.904 8.134h-2.523V25.28h2.523v8.15l4.904-8.15zM89.736 44.55h-3.751v10.204H83.46V44.55h-3.7v-2.044h9.976v2.044zm3.962 3.845h2.254c.667 0 1.177-.157 1.527-.471.35-.314.526-.762.526-1.346 0-.6-.177-1.085-.53-1.455-.354-.37-.841-.561-1.464-.572h-2.313v3.844zm0 2.044v4.315h-2.523V42.506h4.777c.92 0 1.729.168 2.427.505.698.336 1.235.814 1.61 1.434.376.619.564 1.325.564 2.116 0 1.199-.411 2.145-1.232 2.838-.822.693-1.958 1.039-3.411 1.039h-2.212zm13.18-2.145l2.23-5.787h2.725l-4.282 10.102-.345.664c-.634 1.105-1.604 1.657-2.91 1.657l-.883-.033-.026-2.027c.135.022.354.033.657.033.353 0 .637-.062.853-.185.216-.123.397-.35.543-.681l.311-.799-4.298-8.731h2.717l2.708 5.787zm13.198 4.434V44.55h-3.103l-.212 3.22c-.166 2.16-.62 3.814-1.354 4.958h4.67zm2.524 0h1.428v3.932h-2.53v-1.905h-7.387v1.905h-2.524v-3.932h.927c.498-.416.883-1.025 1.157-1.831.271-.805.454-1.8.552-2.99l.352-5.4h8.025v10.22zm18.422-3.307v3.306h2.162c.594 0 1.058-.142 1.392-.425.333-.283.5-.674.5-1.173 0-1.122-.58-1.691-1.74-1.708h-2.314zm0-1.783h1.867c1.273-.023 1.91-.53 1.91-1.523 0-.555-.162-.954-.484-1.198-.323-.245-.832-.366-1.527-.366h-1.766v3.087zm-2.523 7.116V42.506h4.29c1.485 0 2.612.284 3.38.853.77.57 1.153 1.404 1.153 2.503 0 .6-.154 1.128-.463 1.585a2.675 2.675 0 0 1-1.287 1.006c.628.156 1.123.473 1.485.95.361.477.543 1.06.543 1.75 0 1.177-.376 2.069-1.128 2.675-.75.605-1.822.914-3.213.925h-4.76zm31.313-12.247h2.531v12.247h-2.531V46.62l-4.905 8.134h-2.523V42.506h2.524v8.15l4.904-8.15zM83.813 59.732l3.146 8.882 3.13-8.882h3.313V71.98H90.87v-8.43l-3.053 8.43h-1.733l-3.06-8.462.015 8.462h-2.523V59.732h3.297zm19.136 0h2.532V71.98h-2.532v-8.134l-4.904 8.134h-2.523V59.732h2.523v8.15l4.904-8.15zm12.752 2.044h-5.493V71.98h-2.523V59.732h8.016v2.044zm4.088 3.844h2.254c.667 0 1.176-.157 1.527-.47.35-.315.526-.763.526-1.347 0-.6-.177-1.085-.53-1.455-.354-.37-.841-.56-1.464-.572h-2.313v3.844zm0 2.044v4.315h-2.523V59.732h4.777c.92 0 1.729.168 2.427.505.698.336 1.235.814 1.611 1.434.375.62.563 1.325.563 2.116 0 1.2-.411 2.146-1.232 2.838-.822.693-1.958 1.04-3.411 1.04h-2.212zm10.262-.252h3.062l-1.54-4.584-1.522 4.584zm3.743 2.044h-4.424l-.841 2.523h-2.684l4.56-12.247h2.338l4.584 12.247h-2.683l-.85-2.523zm4.567-9.724h2.523v10.22h4.904v-10.22h2.532v10.22h1.674v3.756h-2.523V71.98h-9.11V59.732zm20.524 0h2.532V71.98h-2.532v-8.134l-4.904 8.134h-2.523V59.732h2.523v8.15l4.904-8.15zm12.062 0h2.532V71.98h-2.532v-8.134l-4.904 8.134h-2.523V59.732h2.523v8.15l4.904-8.15zm-15.536-35.795v-1.708h4.896v1.708h-4.896zm9.504 17.117v-1.708h4.896v1.708h-4.896zm-44.842-5.735a3.918 3.918 0 1 0 0-7.836 3.918 3.918 0 0 0 0 7.836zm0-10.249a6.333 6.333 0 1 1 .002 12.666 6.333 6.333 0 0 1-.002-12.666zm10.767 27.475a3.918 3.918 0 1 0 0-7.835 3.918 3.918 0 0 0 0 7.835zm0-10.248a6.332 6.332 0 1 1 .002 12.664 6.332 6.332 0 0 1-.002-12.664zm24.15 10.248a3.918 3.918 0 1 0 0-7.835 3.918 3.918 0 0 0 0 7.835zm0-10.248a6.332 6.332 0 1 1 0 12.664 6.33 6.33 0 0 1-6.331-6.334 6.33 6.33 0 0 1 6.33-6.33zm-10.162-6.978a3.918 3.918 0 1 0 0-7.836 3.918 3.918 0 0 0 0 7.836zm0-10.249a6.333 6.333 0 1 1 .002 12.666 6.333 6.333 0 0 1-.002-12.666z" fill="#101820"/></g></svg>