<svg xmlns="http://www.w3.org/2000/svg" width="42" height="42" viewBox="0 0 42 42"><path fill="#c9a969" d="M19.72 28.934c.348.336.807.503 1.378.503.57 0 1.029-.167 1.377-.503.347-.336.521-.762.521-1.278 0-.523-.178-.955-.533-1.295-.356-.34-.81-.51-1.365-.51-.555 0-1.01.17-1.366.51-.355.34-.533.772-.533 1.295 0 .516.174.942.522 1.278zm2.82-4.875l.046-.715c.086-.766.426-1.434 1.02-2.004l.949-.903c.742-.718 1.261-1.373 1.558-1.962.297-.59.446-1.217.446-1.881 0-1.461-.457-2.592-1.372-3.393-.914-.8-2.199-1.201-3.855-1.201-1.64 0-2.936.422-3.885 1.266-.949.843-1.431 2.011-1.447 3.504h3.398c.016-.625.198-1.116.545-1.471.348-.356.81-.533 1.389-.533 1.219 0 1.828.66 1.828 1.98 0 .438-.117.854-.351 1.248-.235.395-.705.906-1.413 1.535-.707.63-1.193 1.268-1.458 1.916-.266.649-.399 1.52-.399 2.614z"/><path fill="none" stroke="#c9a969" stroke-miterlimit="50" d="M21 41c11.046 0 20-8.954 20-20S32.046 1 21 1 1 9.954 1 21s8.954 20 20 20z"/></svg>