<svg width="30" height="30" viewBox="0 0 30 30" xmlns="http://www.w3.org/2000/svg"><title>Combined Shape Copy 2</title><path d="M16.883 15.062a2.89 2.89 0 0 0 2.887-2.887 2.884 2.884 0 0 0-2.887-2.886h-3.828v5.773h3.828zm0-7.53c2.507 0 4.645 2.02 4.645 4.643a4.65 4.65 0 0 1-4.645 4.645h-3.828v2.008h3.828a.879.879 0 1 1 0 1.757h-3.828v1.946a.88.88 0 0 1-1.758 0v-1.946h-1.004a.879.879 0 1 1 0-1.757h1.004V16.82h-1.004a.88.88 0 0 1 0-1.758h1.004V8.41c0-.486.394-.879.879-.879h4.707zM15 28.241c7.302 0 13.242-5.94 13.242-13.242 0-7.302-5.94-13.242-13.242-13.242C7.698 1.758 1.758 7.698 1.758 15c0 7.302 5.94 13.242 13.242 13.242zM15 0c8.271 0 15 6.728 15 15 0 8.271-6.729 15-15 15S0 23.271 0 15C0 6.728 6.729 0 15 0z" fill="#101820" fill-rule="evenodd"/></svg>