<svg width="42" height="42" viewBox="0 0 42 42" xmlns="http://www.w3.org/2000/svg"><title>Group</title><g transform="translate(1 1)" fill="none" fill-rule="evenodd"><circle stroke="#C9A969" cx="20" cy="20" r="20"/><path d="M18.429 25.18c-3.727 0-6.756-3.029-6.756-6.751a6.763 6.763 0 0 1 6.756-6.756c3.722 0 6.755 3.033 6.755 6.756 0 3.722-3.033 6.75-6.755 6.75m11.326 3.4l-4.808-4.808A8.431 8.431 0 0 0 18.429 10 8.428 8.428 0 0 0 10 18.429a8.428 8.428 0 0 0 8.429 8.428 8.384 8.384 0 0 0 5.338-1.906l4.809 4.804a.833.833 0 0 0 1.18-1.175" fill="#C9A969"/></g></svg>