<svg width="13" height="10" viewBox="0 0 13 10" xmlns="http://www.w3.org/2000/svg" xmlns:xlink="http://www.w3.org/1999/xlink"><title>tw</title><defs><path id="a" d="M0 0h12.8v10H0z"/></defs><g fill="none" fill-rule="evenodd"><mask id="b" fill="#fff"><use xlink:href="#a"/></mask><path d="M12.8 1.184c-.475.2-.983.334-1.512.399.544-.313.96-.804 1.154-1.395a5.35 5.35 0 0 1-1.663.61A2.683 2.683 0 0 0 8.86 0C7.41 0 6.24 1.134 6.24 2.524c0 .2.018.392.06.575A7.531 7.531 0 0 1 .892.46c-.226.378-.36.81-.36 1.276 0 .873.47 1.648 1.167 2.096a2.673 2.673 0 0 1-1.186-.31v.027c0 1.227.91 2.245 2.102 2.48a2.712 2.712 0 0 1-.687.082 2.42 2.42 0 0 1-.498-.042c.34 1 1.305 1.733 2.453 1.757A5.404 5.404 0 0 1 .628 8.903 5.18 5.18 0 0 1 0 8.867 7.601 7.601 0 0 0 4.025 10c4.83 0 7.47-3.846 7.47-7.18 0-.112-.005-.22-.01-.326.52-.356.958-.8 1.315-1.31" fill="#C9A969" mask="url(#b)"/></g></svg>