<svg width="18" height="10" viewBox="0 0 18 10" xmlns="http://www.w3.org/2000/svg" xmlns:xlink="http://www.w3.org/1999/xlink"><title>vk</title><defs><path id="a" d="M0 0h17.67v10H0z"/></defs><g fill="none" fill-rule="evenodd"><mask id="b" fill="#fff"><use xlink:href="#a"/></mask><path d="M15.208 6.359c.586.572 1.205 1.11 1.73 1.74a5.1 5.1 0 0 1 .62.894c.24.462.024.97-.391.998l-2.574-.002c-.664.056-1.193-.212-1.64-.666-.355-.363-.685-.75-1.028-1.124a2.408 2.408 0 0 0-.463-.412c-.352-.228-.656-.158-.858.208-.204.373-.25.786-.27 1.2-.028.608-.212.766-.82.794-1.302.062-2.537-.135-3.684-.792-1.012-.578-1.796-1.395-2.48-2.32C2.023 5.076 1.005 3.097.09 1.063-.116.603.034.358.539.349A70.623 70.623 0 0 1 3.06.348c.343.005.568.2.7.523a15.632 15.632 0 0 0 1.709 3.166c.185.262.375.524.644.709.299.204.526.137.666-.196.09-.21.129-.438.149-.664.067-.777.075-1.553-.041-2.327-.072-.483-.344-.796-.826-.887-.246-.047-.21-.139-.09-.279.206-.242.4-.393.789-.393h2.909c.458.09.56.296.622.757l.003 3.232c-.005.178.09.708.41.826.258.084.427-.122.581-.285.697-.74 1.194-1.613 1.638-2.518.198-.397.367-.81.53-1.223.123-.307.314-.458.659-.451l2.8.003c.083 0 .167 0 .248.015.471.08.6.283.455.744-.23.723-.676 1.325-1.114 1.93-.466.647-.966 1.27-1.428 1.92-.426.594-.392.893.136 1.409" fill="#C9A969" mask="url(#b)"/></g></svg>