<svg xmlns="http://www.w3.org/2000/svg" width="22" height="30" viewBox="0 0 22 30"><path fill="#c9a969" d="M20.544 28.044a.978.978 0 0 1 0 1.956H.979a.978.978 0 1 1 0-1.956h.978v-5.217A8.814 8.814 0 0 1 6.731 15a8.81 8.81 0 0 1-4.774-7.826V1.957H.979A.978.978 0 1 1 .979 0h19.565a.978.978 0 0 1 0 1.956h-.978v5.218A8.813 8.813 0 0 1 14.792 15a8.814 8.814 0 0 1 4.774 7.827v5.217zM3.913 7.174c0 .199.009.396.026.591h13.644c.017-.195.026-.392.026-.591V1.956H3.913zm.492 2.547a6.858 6.858 0 0 0 6.356 4.301 6.86 6.86 0 0 0 6.357-4.301zm11.48 18.313c-4.888-4.064-4.585-3.86-4.882-3.935a.948.948 0 0 1-.484 0c-.297.076.006-.129-4.882 3.935zm1.724-5.207c0-3.444-2.555-6.302-5.87-6.778v1.234a.978.978 0 1 1-1.956 0v-1.234c-3.314.476-5.87 3.334-5.87 6.778v4.107c5.396-4.496 5.202-4.418 5.87-4.654v-1.084a.978.978 0 0 1 1.956 0v1.084c.662.234.459.144 5.87 4.653z"/></svg>