<svg width="22" height="30" viewBox="0 0 22 30" xmlns="http://www.w3.org/2000/svg"><title>Fill 1 Copy 2</title><path d="M18 26.933c-5.531-4.509-5.324-4.419-6-4.653v-1.084a.99.99 0 0 0-1-.978.99.99 0 0 0-1 .978v1.084c-.683.236-.484.158-6 4.654v-4.107c0-3.444 2.613-6.302 6-6.778v1.234c0 .541.448.978 1 .978s1-.437 1-.978v-1.234c3.388.476 6 3.334 6 6.778v4.106zM5.762 28.044c4.997-4.074 4.687-3.869 4.99-3.945a.987.987 0 0 0 .495 0c.304.076-.006-.129 4.99 3.945H5.763zM4.502 9.721h12.996C16.463 12.24 13.94 14.022 11 14.022c-2.94 0-5.462-1.782-6.497-4.301zM4 7.174V1.956h14v5.218c0 .199-.01.396-.026.591H4.026A6.654 6.654 0 0 1 4 7.174zm17 20.87h-1v-5.217c0-3.404-1.984-6.362-4.88-7.827C18.046 13.521 20 10.546 20 7.174V1.956h1c.552 0 1-.437 1-.977A.99.99 0 0 0 21 0H1a.99.99 0 0 0-1 .979.99.99 0 0 0 1 .978h1v5.217C2 10.507 3.917 13.501 6.88 15 3.985 16.465 2 19.423 2 22.827v5.217H1a.99.99 0 0 0-1 .978C0 29.563.448 30 1 30h20a.99.99 0 0 0 1-.978.99.99 0 0 0-1-.978z" fill="#101820" fill-rule="evenodd"/></svg>