<svg width="86" height="96" viewBox="0 0 86 96" xmlns="http://www.w3.org/2000/svg"><title>Group 11 Copy</title><g stroke="#C9A969" stroke-width="3" fill="none" fill-rule="evenodd"><path d="M45.627 11.363C67.12 12.866 84 30.967 84 52.512c0 22.629-18.622 41.25-41.25 41.25-22.629 0-41.25-18.621-41.25-41.25 0-17.3 10.884-32.845 27.141-38.762"/><path d="M55.175 27.154l-10.12-15.77 15.77-10.122m-18.325 62c-13.807 0-25-4.478-25-10v10c0 5.522 11.193 10 25 10s25-4.478 25-10v-10c0 5.522-11.193 10-25 10zm25-20c0 5.523-11.193 10-25 10s-25-4.477-25-10 11.193-10 25-10 25 4.477 25 10z"/><path d="M42.5 53.262c-13.807 0-25-4.477-25-10v10c0 5.522 11.193 10 25 10s25-4.478 25-10v-10c0 5.523-11.193 10-25 10z"/></g></svg>