<svg width="77" height="90" viewBox="0 0 77 90" xmlns="http://www.w3.org/2000/svg"><title>Group 5</title><path d="M59.424 74.002h12.264L59.513 52.585l-5.333.977-4 7.2c-.621 1.154-1.865 1.776-3.11 1.776a3.49 3.49 0 0 1-1.6-.354l-7.287-3.556-.622.267 1.955 3.465c.178.178.267.357.356.623l12.53 21.685 5.51-9.777c.268-.534.89-.889 1.512-.889zM29.207 58.896l7.377-3.468a3.4 3.4 0 0 1 3.199 0l7.287 3.556 4-7.2c.533-.977 1.51-1.599 2.488-1.776l7.999-1.334-.978-8.175c-.177-1.068.178-2.134.978-2.934l5.688-5.865-5.6-6.043c-.71-.712-1.066-1.866-.888-2.933l1.155-8.177-8.087-1.6c-.978-.088-1.866-.8-2.4-1.688l-3.91-7.377h-.09L40.05 7.26a3.394 3.394 0 0 1-3.2 0l-7.286-3.555-4 7.2c-.533.976-1.511 1.598-2.488 1.777l-8.088 1.423c-.088.088-.088.177-.088.177l.978 8.088c.177 1.066-.18 2.133-.978 2.931l-5.6 5.866 5.51 6.043c.712.711 1.068 1.867.889 2.933l-1.155 8.176 8.176 1.512c1.067.089 1.956.8 2.489 1.689l3.91 7.377h.089zM24.053 84.4L36.05 63.516l-1.777-3.11-3.644 1.688h-.09c-1.776.712-3.731 0-4.531-1.688l-3.911-7.2-5.065-.889L4.767 74.002h12.265c.622 0 1.155.356 1.51.89l5.51 9.508zm52.168-9.509a1.473 1.473 0 0 1-.09 1.778c-.266.534-.888.89-1.51.89H60.4L53.915 89.11c-.267.533-.89.888-1.511.888-.622 0-1.155-.355-1.511-.888l-12.71-21.952-12.707 21.685c-.267.534-.89.889-1.511.889-.623 0-1.156-.356-1.511-.889L15.966 77.56H1.746c-.622 0-1.156-.356-1.511-.89-.267-.532-.355-1.243 0-1.778L13.477 51.43c-1.511-.622-2.49-2.133-2.311-3.733l1.155-8.264-5.6-6.044c-1.243-1.51-1.154-3.643.09-4.887l5.599-5.867-.977-8.175c-.178-1.957 1.066-3.644 2.932-4l8.088-1.421 3.999-7.2c.445-.8 1.156-1.421 2.044-1.689.889-.265 1.866-.176 2.666.267l7.288 3.555L45.915.505h.089c1.777-.71 3.733 0 4.533 1.688l3.91 7.2 8.087 1.6c1.778.354 3.022 2.133 2.845 3.91l-1.156 8.266 5.599 6.041c1.244 1.512 1.155 3.645-.09 4.89l-5.598 5.864.977 8.178c.089 1.598-.71 3.02-2.043 3.642L76.22 74.892zM38.183 45.564c7.82 0 14.22-6.398 14.22-14.22 0-7.82-6.4-14.22-14.22-14.22-7.821 0-14.22 6.4-14.22 14.22 0 7.822 6.399 14.22 14.22 14.22zm17.774-14.22c0 9.777-7.998 17.775-17.774 17.775S20.409 41.12 20.409 31.345c0-9.777 7.998-17.775 17.774-17.775s17.774 7.998 17.774 17.775z" fill="#C9A969" fill-rule="evenodd"/></svg>