<svg width="93" height="93" viewBox="0 0 93 93" xmlns="http://www.w3.org/2000/svg"><title>Group 19 Copy 2</title><g stroke="#C9A969" stroke-width="3" fill="none" fill-rule="evenodd"><path d="M91.5 46.5c0 24.853-20.147 45-45 45s-45-20.147-45-45 20.147-45 45-45 45 20.147 45 45z"/><path d="M64.5 65.5a7 7 0 1 1-14 0 7 7 0 0 1 14 0z"/><path d="M74 82.107V38.5L57.5 22H23v62.878"/><path stroke-linecap="round" stroke-linejoin="round" d="M74 38.5H57.5V22z"/><path d="M57.5 72.5a6.962 6.962 0 0 1-4-1.26v9.26h8v-9.26a6.962 6.962 0 0 1-4 1.26zM32 43.5h15m-15 16h9m-9 8h9m-9-16h29"/></g></svg>