<svg width="83" height="96" viewBox="0 0 83 96" xmlns="http://www.w3.org/2000/svg"><title>Group 9 Copy 2</title><g fill="none" fill-rule="evenodd"><path d="M81.5 54c0 22.092-17.909 40-40 40s-40-17.908-40-40c0-22.091 17.909-40 40-40s40 17.909 40 40z" stroke="#C9A969" stroke-width="3"/><path d="M74 54c0 17.949-14.551 32.5-32.5 32.5C23.551 86.5 9 71.949 9 54c0-17.949 14.551-32.5 32.5-32.5C59.449 21.5 74 36.051 74 54z" stroke="#C9A969" stroke-width="3"/><path d="M41.5 54V21.5a32.503 32.503 0 0 1 28.146 16.25L41.5 54z" fill="#C9A969"/><path d="M46.5 7.5h-10a3 3 0 1 1 0-6h10a3 3 0 1 1 0 6z" stroke="#C9A969" stroke-width="3"/></g></svg>