<svg width="90" height="90" viewBox="0 0 90 90" xmlns="http://www.w3.org/2000/svg"><title>Fill 1</title><path d="M79.499 63h-15a7.513 7.513 0 0 1-7.35-6h29.7a7.512 7.512 0 0 1-7.35 6zm-7.887-39.057c.248.087.52.077.759-.03L86.162 54H57.836l13.776-30.057zM50.378 81H39.621l3-3h4.757l3 3zm9.621 3a4.508 4.508 0 0 1 4.244 3H25.756a4.508 4.508 0 0 1 4.243-3h30zm-16.5-9h3V21h-3v54zm0-57h3v-3h-3v3zM42.49 4.225a3.282 3.282 0 0 1 5.019 0c.607.771.821 1.781.58 2.733L46.828 12h-3.657L41.91 6.958a3.163 3.163 0 0 1 .58-2.733zM32.163 54H3.837l13.779-30.062c.251.068.516.068.768 0L32.163 54zm-6.664 9H10.5a7.512 7.512 0 0 1-7.35-6h29.7a7.513 7.513 0 0 1-7.351 6zm64.35-8.12l.014-.006-14.777-32.24 3.584-1.783-1.341-2.686-3.494 1.74-.472-1.03a1.5 1.5 0 0 0-2.727 0l-.422.921A19.292 19.292 0 0 0 62.099 18h-12.6v-3h3v-3h-2.578l1.078-4.315a6.185 6.185 0 1 0-12 0L40.078 12h-2.579v3h3v3H27.907a19.281 19.281 0 0 0-8.122 1.8l-.422-.92a1.5 1.5 0 0 0-2.727 0l-.472 1.03-3.494-1.748-1.34 2.69 3.583 1.79L.136 54.874A1.47 1.47 0 0 0 0 55.5C.006 61.296 4.704 65.993 10.5 66h14.999c5.797-.007 10.494-4.704 10.5-10.5a1.451 1.451 0 0 0-.149-.62L21.033 22.516c2.153-1 4.5-1.517 6.874-1.517h12.592v54.88L35.378 81h-5.379a7.51 7.51 0 0 0-7.5 7.5 1.5 1.5 0 0 0 1.5 1.5h42a1.5 1.5 0 0 0 1.5-1.5 7.508 7.508 0 0 0-7.5-7.5h-5.378l-5.122-5.12V21h12.6c2.375 0 4.721.517 6.875 1.517L54.136 54.874c-.091.196-.137.41-.137.626.007 5.796 4.704 10.493 10.5 10.5h15c5.796-.007 10.494-4.704 10.5-10.5a1.452 1.452 0 0 0-.15-.62z" fill="#C9A969" fill-rule="evenodd"/></svg>