<svg width="93" height="93" viewBox="0 0 93 93" xmlns="http://www.w3.org/2000/svg" xmlns:xlink="http://www.w3.org/1999/xlink"><title>Group 10 Copy</title><defs><path id="a" d="M0 93h93V0H0z"/></defs><g fill="none" fill-rule="evenodd"><path d="M91.5 46.5c0 24.853-20.147 45-45 45s-45-20.147-45-45 20.147-45 45-45 45 20.147 45 45z" stroke="#C9A969" stroke-width="3"/><path d="M23.5 26.737v39.526a6.236 6.236 0 0 0 6.237 6.237h53.48a44.777 44.777 0 0 0 8.283-26 44.78 44.78 0 0 0-8.283-26h-53.48a6.237 6.237 0 0 0-6.237 6.237z" stroke="#C9A969" stroke-width="3"/><mask id="b" fill="#fff"><use xlink:href="#a"/></mask><path stroke="#C9A969" stroke-width="3" mask="url(#b)" d="M31.5 65.5h26v-34h-26zm35-30h15m-15 9.527h15m-15 9.527h18.447"/></g></svg>