<svg width="67" height="65" viewBox="0 0 67 65" xmlns="http://www.w3.org/2000/svg"><title>Group 12</title><g fill="none" fill-rule="evenodd"><path d="M31.319 44.356H2.342v-5.749l13.675-14.576c1.878-2.052 3.267-3.842 4.167-5.372.9-1.529 1.35-2.98 1.35-4.355 0-1.877-.474-3.354-1.422-4.428-.95-1.074-2.305-1.61-4.065-1.61-1.898 0-3.393.652-4.487 1.96-1.094 1.305-1.64 3.023-1.64 5.152H1.5c0-2.574.614-4.926 1.843-7.055 1.23-2.129 2.967-3.799 5.212-5.009C10.8 2.105 13.345 1.5 16.192 1.5c4.355 0 7.737 1.045 10.148 3.135 2.41 2.091 3.615 5.043 3.615 8.856 0 2.091-.542 4.22-1.626 6.387-1.085 2.17-2.943 4.695-5.575 7.58L13.143 37.59h18.176v6.766zm25.203-26.035c0-3.507-.479-6.06-1.437-7.659-.959-1.598-2.454-2.397-4.487-2.397-1.973 0-3.43.761-4.369 2.281-.939 1.522-1.437 3.9-1.496 7.135V27.97c0 3.45.47 6.012 1.408 7.688.94 1.676 2.444 2.514 4.516 2.514 2.052 0 3.532-.804 4.442-2.413.909-1.607 1.384-4.068 1.423-7.38V18.32zm8.391 8.556c0 5.845-1.21 10.317-3.629 13.414-2.42 3.096-5.962 4.645-10.627 4.645-4.608 0-8.13-1.519-10.57-4.558-2.438-3.039-3.687-7.395-3.745-13.066V19.53c0-5.903 1.224-10.384 3.673-13.443C42.463 3.03 45.992 1.5 50.598 1.5c4.607 0 8.13 1.514 10.57 4.544 2.438 3.03 3.687 7.38 3.745 13.051v7.782z" stroke="#C9A969" stroke-width="3"/><path d="M20.709 60.796h2.165V56.99H21.47l-.013.811c-.036 1.24-.287 2.239-.748 2.995zm-2.129 0c.408-.432.685-.86.83-1.285.146-.425.227-1.026.244-1.803l.05-2.21h4.968v5.298h.973v3.484h-1.803v-2.03H19.84v2.03H18v-3.484h.58zm13.718 1.455h-1.81v-2.59h-2.24v2.59h-1.804v-6.753h1.803v2.709h2.24v-2.71h1.81v6.754zm13.437-9.486c0 .551-.199.997-.596 1.337-.398.34-.918.51-1.564.51-.644 0-1.166-.168-1.563-.504-.397-.336-.596-.784-.596-1.343h1.28c0 .262.077.465.233.608.156.143.371.215.646.215.27 0 .483-.072.637-.215.154-.143.231-.346.231-.608h1.292zm-1.062 2.733h1.804v6.753h-1.804v-4.17l-2.259 4.17h-1.81v-6.753h1.81v4.163l2.26-4.163zm-8.075 1.33c-.358 0-.649.12-.871.363-.223.243-.365.589-.427 1.04h2.508v-.144c-.008-.401-.116-.71-.325-.93-.207-.22-.502-.33-.885-.33zm.206 5.548c-.99 0-1.797-.305-2.418-.912-.623-.607-.933-1.416-.933-2.427v-.175c0-.678.13-1.285.392-1.82a2.894 2.894 0 0 1 1.114-1.235c.481-.289 1.03-.434 1.645-.434.924 0 1.651.291 2.18.874.532.582.797 1.408.797 2.477v.737h-4.3c.058.441.234.794.528 1.061.293.266.664.4 1.113.4.695 0 1.238-.253 1.63-.756l.885.992c-.27.384-.636.682-1.099.896a3.6 3.6 0 0 1-1.534.322z" fill="#C9A969"/></g></svg>