<svg width="93" height="70" viewBox="0 0 93 70" xmlns="http://www.w3.org/2000/svg"><title>Group 11 Copy 2</title><g stroke="#C9A969" stroke-width="3" fill="none" fill-rule="evenodd"><path d="M74.436 30.598C73.453 14.364 59.981 1.5 43.5 1.5c-17.12 0-31 13.879-31 31 0 3.507.591 6.874 1.665 10.017C7.142 42.697 1.5 48.434 1.5 55.5c0 7.18 5.822 13 13 13h58c10.495 0 19-8.506 19-19 0-9.84-7.478-17.931-17.063-18.902z"/><path d="M63.5 68.5h-34v-46h23l11 11z"/><path stroke-linecap="round" stroke-linejoin="round" d="M63.5 33.5h-11v-11z"/><path d="M35.5 46.5h22M36 56.5h22"/></g></svg>