<svg width="43" height="30" viewBox="0 0 43 30" xmlns="http://www.w3.org/2000/svg" xmlns:xlink="http://www.w3.org/1999/xlink"><title>Group 6</title><defs><path id="a" d="M0 0h42.857v30H0z"/></defs><g fill="none" fill-rule="evenodd"><mask id="b" fill="#fff"><use xlink:href="#a"/></mask><path d="M41.962 4.684a5.367 5.367 0 0 0-3.79-3.788C34.83 0 21.43 0 21.43 0S8.027 0 4.684.896A5.368 5.368 0 0 0 .895 4.684C0 8.027 0 15 0 15s0 6.973.895 10.316a5.37 5.37 0 0 0 3.79 3.788C8.026 30 21.428 30 21.428 30s13.401 0 16.744-.896a5.369 5.369 0 0 0 3.789-3.788c.895-3.343.895-10.316.895-10.316s0-6.973-.895-10.316" fill="#C9A969" mask="url(#b)"/><path fill="#FFF" d="M17.143 21.428L28.277 15 17.143 8.571z"/></g></svg>