<svg width="17" height="11" viewBox="0 0 17 11" xmlns="http://www.w3.org/2000/svg" xmlns:xlink="http://www.w3.org/1999/xlink"><title>yu</title><defs><path id="a" d="M0 0h16.485v11H0z"/></defs><g fill="none" fill-rule="evenodd"><mask id="b" fill="#fff"><use xlink:href="#a"/></mask><path d="M6.182 8.5v-6l5.15 3-5.15 3zm9.603-7.44c-.448-.772-.933-.914-1.921-.968C12.877.027 10.394 0 8.244 0 6.09 0 3.607.027 2.621.091c-.986.055-1.472.196-1.924.97C.237 1.83 0 3.158 0 5.496v.008C0 7.832.237 9.17.697 9.933c.452.772.937.912 1.923.977.987.056 3.47.09 5.624.09 2.15 0 4.633-.034 5.621-.089.987-.065 1.473-.205 1.92-.977.465-.763.7-2.101.7-4.429v-.008c0-2.34-.235-3.667-.7-4.438z" fill="#C9A969" mask="url(#b)"/></g></svg>