<svg id="Слой_1" xmlns="http://www.w3.org/2000/svg" viewBox="0 0 504 504"><style>.st0{fill:#ca4637}.st1{fill:#346da6}</style><path class="st0" d="M391.9 280.2c-35.2 0-70.3.1-105.5-.1-5.1 0-6.4 1.4-6.4 6.5.1 70.2-.1 140.3.1 210.5 0 5.4-1.3 7.4-6.7 7.3-14.6-.2-29.3-.2-43.9-.1-4.7 0-5.7-1.9-5.7-6.3.1-50.3 0-100.6 0-151 0-20.3-.2-40.7 0-61 0-4.6-1.4-5.9-5.9-5.8-70.2.1-140.3 0-210.5-.1-7.2 0-7.6 0-7.8-7.1-.3-14.5.1-28.9 0-43.4 0-4.6 1.9-5.8 6.3-5.7 51.2.1 102.3 0 153.5 0 19.5 0 39-.2 58.5.1 4.6.1 5.9-1.3 5.9-5.9-.1-70.2 0-140.3.1-210.5 0-7.2 0-7.7 7.2-7.8 14.5-.3 28.9.1 43.4 0 4.6 0 5.8 1.8 5.8 6.3-.1 49.7 0 99.3 0 149 0 20.8.2 41.7-.1 62.5-.1 5 1.3 6.5 6.4 6.4 70-.1 140 0 210 .1 7.1 0 7.6 0 7.7 7.1.3 15.1-.2 30.3-.2 45.4 0 4.4-3.1 3.5-5.6 3.5H392c-.1-.1-.1 0-.1.1z"/><path class="st1" d="M209.3 147.5c-34.2-34-68.2-67.9-103-102.5 9.3-5.5 18.5-11.4 28.1-16.6C156.5 16.5 180 8.5 204.6 3.7c3.3-.7 5-.2 5 3.7-.1 46.1 0 92.3 0 138.4 0 .7-.2 1.3-.3 1.7zM147 209.6H10.2c-7.2 0-7.2 0-5.9-7 6.6-34.3 20.1-65.6 39.8-94.3.4-.5.9-1 .9-1l102 102.3zM44.5 396.9c-5-8.4-10.9-17.4-15.9-26.8-11.9-22.2-20-45.9-24.8-70.7-.6-3.2-.4-5 3.6-5 46.3.1 92.6.1 138.9.1.5 0 .9.2.5.1L44.5 396.9zm249.9-249.6V10.1c0-7.1 0-7.2 7.1-5.8 34.4 6.7 65.9 20.3 94.7 40.2.4.3.6.7.7.8-34.2 34-68.3 68-102.5 102zM107.1 458.7c34.4-34.2 68.4-68.1 102.5-102.1v137.2c0 7 0 7.1-7.2 5.7-34.2-6.7-65.6-20.2-94.2-40-.6-.1-1-.7-1.1-.8zm249.7-249.3c33.8-34 67.7-68 102-102.5 2.9 4.5 6.3 9.3 9.3 14.3 15.8 26.1 26.5 54.2 32.2 84.1.8 4.4-1.6 4.2-4.5 4.2H360.9c-1.5.1-3.1-.1-4.1-.1zm40.9 250.1c-12.5 7-24.8 14.5-37.7 20.9-19.3 9.5-39.7 15.8-60.8 19.9-3.1.6-4.8.3-4.7-3.4 0-46.5 0-92.9.1-139.4 0-.4.3-.9.4-1 33.8 34 67.7 67.9 102.7 103zm61-62.5c-34.1-34-68.1-68-102.9-102.6h138.7c6.5 0 6.5 0 5.3 6.3-6.5 34.4-19.9 66-39.8 94.8-.5.6-1.1 1.2-1.3 1.5z"/><path class="st0" d="M73.6 431.9c45.8-45.7 91-90.6 136.2-135.7 0 9.2-.4 19 .1 28.7.3 6.4-1.8 10.7-6.3 15.2-35.4 35-70.6 70.3-105.8 105.6-3.1 3.1-5 3.8-8.4.4-5.1-5.2-10.8-9.8-15.8-14.2zm357-359.7c-45.6 45.6-90.8 90.7-136.3 136 0-7.3.8-14.8-.2-22.1-1.5-11.7 3.1-19.6 11.4-27.6 33.9-32.8 67.1-66.5 100.5-100 3.2-3.2 5.2-4.1 8.8-.5 5 5.1 10.7 9.7 15.8 14.2zM207.5 209.7c-11.2 0-23 .1-34.8-.1-1.6 0-3.5-1.1-4.6-2.2-37-36.9-74-73.9-110.8-111-1-1-1.6-3.9-.9-4.8 5.1-6.3 10.7-12.3 15.7-17.9 45.2 45.6 90.4 90.8 135.4 136zm242.1 200.8c-6.2 7-12.2 13.6-18 20.1-45.4-45.7-90.4-91-135.5-136.4 9.5 0 19.4.4 29.3-.1 6-.3 10.1 1.6 14.3 5.8 35 35.4 70.3 70.6 105.5 105.9 1.4 1.5 2.7 2.9 4.4 4.7z"/></svg>