<svg id="Слой_1" xmlns="http://www.w3.org/2000/svg" viewBox="0 0 508 505"><style>.st0{fill:#cd574e}.st1{fill:#eeec60}</style><path class="st0" d="M257 505h-4c-2.1-.4-4.2-.9-6.3-1.1-13.5-1.5-27.3-1.8-40.5-4.6-62.2-13-113-44.7-151.5-95.4C28 368.8 11.8 329.2 6.1 285.3 2.6 257.7 3 230.2 8.6 203 20.2 146.5 47.7 99.1 91.4 61.4 135 23.7 185.9 3.9 243.1.4c22.8-1.4 45.5.7 67.9 5.8C366.7 19 413.1 47.2 449.7 91c31.3 37.5 50.1 80.7 56.2 129.4 3.3 27 2.9 53.9-2.6 80.4-14 67.7-49.5 121.4-106.6 160.3-39.5 26.9-83.4 41.2-131.4 42.7-2.7.1-5.5.8-8.3 1.2zM119.5 219.7c2.9-1.1 4.7-1.7 6.4-2.6 14.1-7.1 28.2-14.3 42.5-21.2 1.9-.9 4.9-.9 6.7-.1 8.9 4.1 17.5 8.7 26.3 13.1 6.9 3.5 13.8 6.9 21.6 10.8 0-3 .3-4.8 0-6.5-2.6-14.9-5-29.8-8-44.6-.7-3.3 0-5.2 2.3-7.4 11.4-10.5 22.6-21.2 33.9-31.8 1.3-1.3 2.4-2.8 3.9-4.6-1.6-.6-2.3-1.1-3.1-1.2-16.8-2.4-33.5-4.6-50.3-7.2-2-.3-4.5-2.1-5.4-3.9-7.2-13.5-14.1-27.2-21.1-40.8-.9-1.7-2.1-3.2-3.6-5.6-1.4 2.4-2.4 3.8-3.2 5.4-6.9 13.3-13.8 26.6-20.5 40-1.5 3-3.2 4.8-7 5.2-11.5 1.2-23 3.1-34.5 4.7-5.8.8-11.6 1.8-18.7 2.9 2.1 2.4 3.3 3.9 4.6 5.2 11 10.4 22.2 20.6 33.1 31.2 1.7 1.7 3.3 4.9 3 7.2-1.3 9.9-3.4 19.6-5.2 29.4-1.2 7.3-2.3 14.3-3.7 22.4zM322 99.7c-8.7.3-13.9-4-17.5-11.6-2.5 8.7-8.4 11.4-16.8 11.8 7.2 5.2 8.9 11.5 6.4 19.7 7.1-5.3 13.8-4.8 21.3-.9-3.3-8.4.7-13.6 6.6-19zm-53-18.2c-3.8-8.5-.2-14 6-19.4-8.7.3-13.8-3.8-16.6-12.4-2.8 4.4-4 8.2-6.6 9.9-2.7 1.8-6.7 1.7-12.1 2.9 8.3 4.9 10.3 11 7.6 19.3 7.4-5.2 14.2-4.6 21.7-.3zm15 123.4c-9.4.5-14.4-3.6-17.5-11.3-2.7 8.4-8.2 11.7-17.5 11.3 3.3 3.8 6.4 6 7.4 9s-.1 6.7-.4 11.5c7.1-5 13.8-5.5 21.1.3-.3-5-1.4-8.7-.4-11.7.9-3 4-5.3 7.3-9.1zm16.1-29.2c7.3-6.6 14.1-2.8 21.3-.4-4.2-8.4.1-13.6 5.7-19-8.7.2-13.8-3.7-16.9-11.6-2.8 8.3-8.5 11.5-17 12.1 7.1 4.6 8.8 10.7 6.9 18.9z"/><path class="st1" d="M119.5 219.7c1.4-8.1 2.5-15.1 3.7-22 1.7-9.8 3.8-19.6 5.2-29.4.3-2.2-1.3-5.5-3-7.2-10.9-10.6-22-20.8-33.1-31.2-1.4-1.3-2.5-2.8-4.6-5.2 7-1.1 12.8-2.1 18.7-2.9 11.5-1.7 23-3.5 34.5-4.7 3.8-.4 5.4-2.2 7-5.2 6.7-13.4 13.6-26.7 20.5-40 .8-1.6 1.8-3 3.2-5.4 1.6 2.4 2.7 3.9 3.6 5.6 7 13.6 13.9 27.3 21.1 40.8 1 1.8 3.4 3.6 5.4 3.9 16.7 2.6 33.5 4.8 50.3 7.2.8.1 1.5.6 3.1 1.2-1.5 1.8-2.5 3.4-3.9 4.6-11.2 10.6-22.5 21.3-33.9 31.8-2.3 2.1-2.9 4-2.3 7.4 2.9 14.8 5.4 29.7 8 44.6.3 1.7 0 3.5 0 6.5-7.8-3.9-14.7-7.3-21.6-10.8-8.8-4.4-17.4-9-26.3-13.1-1.9-.9-4.9-.8-6.7.1-14.2 6.9-28.3 14.1-42.5 21.2-1.7.5-3.5 1.1-6.4 2.2zM322 99.7c-5.9 5.3-9.9 10.5-6.6 19-7.5-3.9-14.3-4.4-21.3.9 2.5-8.3.7-14.5-6.4-19.7 8.4-.3 14.3-3.1 16.8-11.8 3.6 7.7 8.8 12 17.5 11.6zm-53-18.2c-7.5-4.3-14.3-4.9-21.7.3 2.7-8.3.7-14.4-7.6-19.3 5.4-1.2 9.4-1.1 12.1-2.9 2.6-1.7 3.8-5.5 6.6-9.9 2.7 8.7 7.9 12.7 16.6 12.4-6.2 5.4-9.8 10.9-6 19.4zm15 123.4c-3.3 3.9-6.4 6.1-7.3 9.1-1 3 .1 6.7.4 11.7-7.3-5.7-14-5.3-21.1-.3.3-4.8 1.4-8.5.4-11.5-1-2.9-4.1-5.2-7.4-9 9.3.3 14.8-3 17.5-11.3 3.1 7.6 8.1 11.8 17.5 11.3zm16.1-29.2c1.9-8.2.2-14.3-6.9-19 8.5-.6 14.2-3.8 17-12.1 3.1 8 8.2 11.8 16.9 11.6-5.5 5.4-9.9 10.7-5.7 19-7.2-2.3-14-6.1-21.3.5z"/></svg>