<svg version="1" xmlns="http://www.w3.org/2000/svg" width="533.333" height="533.333" viewBox="0 0 400.000000 400.000000"><path d="M0 200v200h400V0H0v200zM342.3 32.8c2.7 2.4 1.9 9.1-2.2 17.7-1.7 3.7-3 7-2.8 7.1.2.2 3.9 1.3 8.3 2.4 8.9 2.3 12.4 4.4 13.9 8.4 1.2 3.4-.9 7.5-4.8 9.4-2.4 1.2-3.5 1.1-8.5-.6-6.8-2.3-12.2-3.4-12.2-2.5 0 .4 2.1 4.9 4.6 10.1 5.2 10.7 10.3 25.7 13 38.2 2.9 13 2.7 47.7-.4 61.3-7.5 33.9-24.6 63.4-49.7 85.8-7.2 6.4-23.3 17.8-31.3 22.1l-3.1 1.7 1.5 5.3c3.3 11.3 15.4 29.2 21.8 32.1 1.7.8 7 1.8 11.7 2.1 16 1.2 49.9 9.6 54 13.3 3.9 3.4 2.2 11.3-2.8 13-2.2.8-4.7.4-12.3-1.8-47.9-14.5-94.8-12.3-142.3 6.7-6 2.4-11.7 4.4-12.7 4.4-.9 0-2.9-.9-4.4-2.1-3.5-2.7-3.6-8.6-.3-11.7 2.9-2.7 25-11.2 38.7-14.8 5.8-1.5 10.6-2.8 10.8-2.9.1-.1-1.5-3.2-3.7-6.9-2.1-3.7-5-10.1-6.3-14.2l-2.3-7.5-4.5.6c-8.1 1.2-32.3.7-42-.9-12.7-2-25.2-5.7-38.1-11.2l-10.6-4.6-5.9 3c-14.8 7.4-35.1 11.2-49.9 9.3-9.6-1.3-16.2-3.2-22.4-6.4-8.4-4.3-7.9-2.1-9.6-48.9-.9-26.7-1.1-42.6-.5-44.2 1.7-4.6 8-6.1 11.9-2.9 1.2 1 3.7 5.5 5.6 10.1 9 22.1 28.5 42.6 51.7 54.3 4.3 2.1 8.1 3.9 8.6 3.9s1.4-6.2 2-13.8c2.1-23.9 6.9-40.9 17.4-61.3 17.5-34.2 49.1-62.3 84.8-75.4 4.1-1.5 7.9-3.1 8.3-3.5.4-.3.1-3.5-.8-7.1-7.2-30.6 12.1-62 42.4-68.9 7.6-1.8 20.7-1.5 27.7.5 7.5 2.2 16.4 6.7 20.8 10.6l3.5 3.1 3-4.6c1.6-2.6 3.9-7.3 5.1-10.6 3.6-9.6 9.6-12.4 15.3-7.2z"/><path d="M268.5 57.3c-14.5 4.8-24.3 15.1-28 29.2-3.1 12.3-1.7 19.1 8 38.4 3.5 6.9 7.3 15.5 8.4 19 13.7 42.4 3.1 86.1-28.5 117.7-12 12-32.7 24.2-47.6 28.1-3.8 1-6.8 2-6.8 2.4 0 1.1 9.8 1.9 22.7 1.9 60.1 0 114.8-39.3 133.7-96 5.9-17.9 7.1-25.3 7.1-45.5 0-24.6-3.1-38.1-13.4-60-9.2-19.4-16-27.7-27.1-32.9-5.5-2.6-7.9-3.1-15.5-3.3-5.5-.2-10.5.2-13 1zm26.8 18.1c10.1 9.4-3.2 23.9-13.5 14.7-2.7-2.4-3.3-3.6-3.3-7.1 0-8.5 10.6-13.3 16.8-7.6z"/><path d="M226 134.4c-20.2 7.1-36.1 17-51.9 32.1-27.5 26.3-43.9 64.4-42.9 99.5l.3 10.4 4.5.9c7.2 1.3 27.5.1 36.4-2.2 35.3-9.3 62-36.1 71.2-71.6 3.6-14.3 3.6-32.7 0-47-2.6-9.9-8.8-24.6-10.3-24.4-.4 0-3.7 1.1-7.3 2.3zm-173.6 130c.4 14.3 1 20.2 1.9 20.8 7.1 4.6 34.5 4.9 45.2.4l3-1.2-6.5-3.3C82.1 274 69 263.9 58.5 252c-3.2-3.6-6-6.7-6.3-7-.3-.3-.2 8.5.2 19.4zm190.1 39c-6.7 2.2-7 2.4-6.9 5.2.2 3.7 5.2 14 10 20.6l3.6 4.9 7.2-.6c12.5-1.1 12.1-.8 8.2-6.3-4-5.6-8.2-13.8-10.7-20.7-.9-2.8-2.3-5.1-3.1-5.2-.7 0-4.4.9-8.3 2.1z"/></svg>