<svg xmlns="http://www.w3.org/2000/svg" width="19" height="20" viewBox="0 0 19 20"><path fill="#9197a3" d="M10.001 18.994a1 1 0 0 1-1 1h-6a3 3 0 0 1-3-3v-14a3 3 0 0 1 3-3h6.06c.109.02.213.058.31.11a.305.305 0 0 1 .1 0c.103.048.198.112.28.19l6 6c.078.082.142.177.19.28v.09c.03.087.05.178.06.27v6.06a1 1 0 0 1-2 0v-5h-3a3 3 0 0 1-3-3v-3h-5a1 1 0 0 0-1 1v14a1 1 0 0 0 1 1h6a1 1 0 0 1 1 1zm0-14a1 1 0 0 0 1 1h1.59l-2.59-2.59zm-6 6a1 1 0 0 1 1-1h6a1 1 0 1 1 0 2h-6a1 1 0 0 1-1-1zm6 4a1 1 0 0 1-1 1h-4a1 1 0 1 1 0-2h4a1 1 0 0 1 1 1zm-6-8a1 1 0 0 1 1-1h1a1 1 0 0 1 0 2h-1a1 1 0 0 1-1-1zm14.716 7.295a1 1 0 0 1-.006 1.415l-4 4-.006.005a1 1 0 0 1-1.414-.005l-2-2a1.004 1.004 0 0 1 1.42-1.42l1.29 1.3 3.29-3.3.006-.006a1 1 0 0 1 1.414.005l.006.006z"/></svg>