<svg width="24" height="24" viewBox="0 0 24 24" fill="none" xmlns="http://www.w3.org/2000/svg"><g clip-path="url(#a)"><path d="M20.49 3.51c-4.682-4.68-12.298-4.68-16.98 0-4.68 4.682-4.68 12.298 0 16.98 4.681 4.68 12.298 4.68 16.98 0 4.68-4.682 4.68-12.299 0-16.98zm-3.756 13.224a.923.923 0 0 1-1.306 0L12 13.306l-3.592 3.591a.923.923 0 1 1-1.306-1.306L10.694 12 7.265 8.57a.923.923 0 1 1 1.306-1.306L12 10.694l3.265-3.265a.923.923 0 1 1 1.306 1.306L13.306 12l3.428 3.428c.36.36.36.945 0 1.306z" fill="#C90000"/></g><defs><clipPath id="a"><path fill="#fff" d="M0 0h24v24H0z"/></clipPath></defs></svg>