<svg width="40" height="40" viewBox="0 0 40 40" fill="none" xmlns="http://www.w3.org/2000/svg"><g clip-path="url(#a)" fill="#fff"><path d="M36.889 11.093c.036-1.834-.367-3.688-.694-5.515-.112-.628-.34-1.236-.565-1.832-.17-.448-.67-.734-1.13-.636a7.88 7.88 0 0 0-.826.211c-2.72.895-5.239 2.204-7.659 3.724-.325.204-.797.278-1.19.25-.939-.07-1.867-.303-2.806-.348-2.323-.11-4.64-.039-6.942.364-.32.056-.741 0-1.007-.171-2.64-1.708-5.384-3.17-8.472-3.99-.463-.122-.94-.057-1.058.127-.071.113-.136.23-.171.355-.334 1.172-.73 2.338-.923 3.535-.231 1.429-.454 2.9-.344 4.328.069.897-.179 1.448-.669 2.077C.79 15.684.05 18.112.003 20.775c-.039 2.277.263 4.496.956 6.672 1.062 3.335 3.113 5.838 6.201 7.467 2.54 1.339 5.306 1.855 8.137 1.954 2.552.09 5.108.014 7.663.028 2.56.015 5.086-.214 7.536-1.012 2.451-.799 4.573-2.088 6.22-4.114 2.377-2.928 3.117-6.377 3.27-10.027.116-2.792-.453-5.418-2.088-7.702-.663-.926-1.035-1.722-1.01-2.948zm-4.93 21.391c-1.098.95-2.441 1.4-3.816 1.728-2.696.644-5.442.804-8.197.684-2.723.118-5.415-.052-8.065-.675-1.954-.46-3.738-1.233-4.982-2.91-1.979-2.67-2.485-7.751.785-10.524.834-.707 1.764-1.156 2.863-1.225 1.213-.078 2.426-.229 3.638-.215 3.057.037 6.113.189 9.17.212 1.396.01 2.802-.316 4.187-.232 1.26.076 2.584.308 3.727.815 1.905.845 2.93 2.558 3.24 4.564.462 2.984-.147 5.7-2.55 7.778z"/><path d="M26.977 30.562c1.61 0 2.914-1.744 2.914-3.894 0-2.15-1.305-3.894-2.914-3.894-1.61 0-2.913 1.743-2.913 3.894 0 2.15 1.304 3.894 2.913 3.894zm-13.903 0c1.61 0 2.914-1.744 2.914-3.894 0-2.15-1.304-3.894-2.914-3.894s-2.914 1.743-2.914 3.894c0 2.15 1.305 3.894 2.914 3.894z"/></g><defs><clipPath id="a"><path fill="#fff" d="M0 0h40v40H0z"/></clipPath></defs></svg>