<svg width="34" height="34" viewBox="0 0 34 34" fill="none" xmlns="http://www.w3.org/2000/svg"><path d="M17.324 8.096c1.545 0 3.03.406 4.297 1.175l1.447.966a1.299 1.299 0 0 0 1.617-.143l4.221-4.079a1.226 1.226 0 0 0-.176-1.91l-2.453-1.64a1.283 1.283 0 0 0-.157-.09L23.743 1.23a1.264 1.264 0 0 0-.096-.042A17.766 17.766 0 0 0 17.237 0c-4.549 0-8.84 1.703-12.082 4.796C1.863 7.936.032 12.206 0 16.82c-.031 4.615 1.741 8.91 4.99 12.093 3.225 3.16 7.8 4.972 12.552 4.972 4.702 0 9.114-1.781 12.104-4.887 2.368-2.46 3.821-5.745 4.203-9.501a.973.973 0 0 0 .006-.107l.045-3.375c0-.07-.005-.139-.016-.208l-.185-1.153a1.266 1.266 0 0 0-1.26-1.052H17.706c-.704 0-1.275.557-1.275 1.244v4.973c0 .687.57 1.244 1.275 1.244h7.512c-.344.736-.887 1.513-1.573 2.236-1.496 1.579-3.727 2.484-6.121 2.484-2.446 0-4.787-.935-6.425-2.565-3.409-3.39-3.37-9.3.083-12.645a8.902 8.902 0 0 1 6.143-2.477z" fill="#fff"/></svg>