<svg width="128" height="128" viewBox="0 0 128 128" fill="none" xmlns="http://www.w3.org/2000/svg"><path d="M64 128c35.346 0 64-28.654 64-64 0-35.346-28.654-64-64-64C28.654 0 0 28.654 0 64c0 35.346 28.654 64 64 64z" fill="#FDB813"/><path d="M71.903 84.21H49.88l1.814-18.526H70.09l1.814 18.526zm2.591 0H47.158v1.555h27.336V84.21z" fill="#023F61"/><path d="M90.688 72.94c0 1.424-1.166 2.72-2.72 2.72H33.814c-1.425 0-2.72-1.166-2.72-2.72V41.586c0-1.425 1.165-2.72 2.72-2.72h54.154c1.425 0 2.72 1.165 2.72 2.72v31.352z" fill="#343049"/><path d="M90.688 75.79c0 1.424-1.166 2.72-2.72 2.72H33.814c-1.425 0-2.72-1.166-2.72-2.72V44.436c0-1.425 1.165-2.72 2.72-2.72h54.154c1.425 0 2.72 1.166 2.72 2.72V75.79z" fill="#023F61"/><path d="M90.688 72.94c0 1.424-1.166 2.72-2.72 2.72H33.814c-1.425 0-2.72-1.166-2.72-2.72V41.586c0-1.425 1.165-2.72 2.72-2.72h54.154c1.425 0 2.72 1.165 2.72 2.72v31.352z" fill="#023F61"/><path d="M90.559 72.94H31.093v2.979H90.56v-2.98z" fill="#023F61"/><path d="M88.486 73.457c0 .907-.777 1.555-1.555 1.555h-52.08c-.907 0-1.555-.777-1.555-1.555V42.883c0-.907.777-1.555 1.555-1.555h51.951c.907 0 1.555.777 1.555 1.554v30.575h.13z" fill="#55D6D2"/><path d="M66.462 43.53H50.656v29.15h21.895V49.62l-6.09-6.09z" fill="#fff"/><path d="M66.462 49.62h6.089l-6.09-6.09v6.09zm4.664 15.805H52.081v1.684h19.045v-1.684zm0-3.368H52.081v1.684h19.045v-1.684zm0-3.498H52.081v1.684h19.045v-1.684zm0-3.628H52.081v1.684h19.045v-1.684zm-6.089-3.498H52.081v1.684h12.956v-1.684z" fill="#025A82"/><path d="M98.332 65.166c1.166 0 2.203 1.036 2.203 2.202v23.709c0 1.166-1.037 1.425-2.203 1.425H79.158c-1.166 0-2.202-1.036-2.202-2.203V67.37c0-1.167 1.036-2.203 2.202-2.203h19.174z" fill="#fff"/><path d="M90.43 91.077a.886.886 0 0 1-.908.907H87.71a.886.886 0 0 1-.907-.907c0-.518.388-.907.907-.907h1.813c.519 0 .907.389.907.907z" fill="#023F61"/><path d="M99.368 89.004c0 .259-.259.518-.518.518H78.64c-.26 0-.518-.259-.518-.518V66.98c0-.26.259-.519.518-.519h20.21c.26 0 .519.26.519.519v22.024z" fill="#00D9D0"/><path d="M91.984 68.146H81.36v19.692H96V72.29l-4.016-4.145z" fill="#fff"/><path d="M91.984 72.291H96l-4.016-4.145v4.145zm3.109 10.624H82.267v1.166h12.826v-1.166zm0-2.332H82.267v1.166h12.826v-1.166zm0-2.333H82.267v1.167h12.826V78.25zm0-2.46H82.267v1.165h12.826V75.79zm-4.146-2.333h-8.68v1.166h8.68v-1.166zm-15.805 17.62c0 .777-.648 1.295-1.296 1.295h-8.68c-.777 0-1.295-.647-1.295-1.295V73.198c0-.777.647-1.295 1.295-1.295h8.68c.778 0 1.296.647 1.296 1.295v17.879z" fill="#025A82"/><path d="M74.494 89.133c0 .26-.26.519-.518.519h-8.68c-.26 0-.519-.26-.519-.519V74.235c0-.26.26-.519.519-.519h8.55c.26 0 .518.26.518.519v14.898h.13z" fill="#55D6D2"/><path d="M70.867 72.68h-2.721v.26h2.72v-.26zm-.519 18.915c0 .13-.13.26-.259.26h-1.036a.28.28 0 0 1-.26-.26v-1.036c0-.13.13-.26.26-.26h1.036c.13 0 .26.13.26.26v1.036z" fill="#023F61"/><path d="M71.255 77.085h-5.57V87.19h7.643v-8.032l-2.073-2.073z" fill="#fff"/><path d="M71.255 79.158h2.073l-2.073-2.073v2.073zm1.555 5.571h-6.607v.647h6.607v-.647zm0-1.296h-6.607v.648h6.607v-.648zm0-1.166h-6.607v.648h6.607v-.648zm0-1.295h-6.607v.647h6.607v-.647zm-2.073-1.166h-4.534v.647h4.534v-.647z" fill="#025A82"/><path d="M111.288 88.227l-1.166-.648 1.554-3.498 1.166.518c-.388 1.166-1.036 2.462-1.554 3.628zm2.85-7.385l-1.296-.389c.389-1.166.648-2.461.907-3.757l1.296.26c-.13 1.295-.518 2.59-.907 3.886zm1.684-7.644l-1.295-.13c.129-1.295.259-2.59.388-3.756l1.296.13c-.13 1.036-.259 2.46-.389 3.756zm-.907-7.902c0-1.296-.129-2.592-.259-3.887l1.296-.13c.129 1.296.259 2.591.259 3.887l-1.296.13zm-.648-7.644c-.259-1.296-.518-2.462-.777-3.757l1.296-.389c.388 1.296.647 2.591.777 3.887l-1.296.259zm-1.943-7.385c-.389-1.166-.907-2.332-1.425-3.627l1.166-.519a42.188 42.188 0 0 1 1.425 3.628l-1.166.518zm-3.109-6.996c-.259-.518-.648-1.166-.907-1.684-.389-.518-.648-1.166-1.036-1.684l1.036-.648c.389.518.648 1.166 1.036 1.684.259.518.648 1.166.907 1.684l-1.036.648zm-4.016-6.477c-.778-1.037-1.555-2.073-2.462-2.98l1.037-.907c.906 1.036 1.684 1.943 2.461 3.11l-1.036.776zm-5.053-5.83c-.907-.907-1.814-1.814-2.85-2.592l.777-1.036c1.037.907 1.943 1.684 2.98 2.591l-.907 1.037zm-5.96-4.924a27.464 27.464 0 0 0-3.238-2.072l.647-1.166c1.166.647 2.203 1.425 3.24 2.202l-.648 1.036zm-6.477-3.886c-1.166-.518-2.332-1.166-3.498-1.555l.518-1.166c1.166.518 2.462 1.037 3.627 1.684l-.647 1.037zm-7.126-2.98c-1.166-.389-2.461-.777-3.757-1.036l.26-1.296c1.295.26 2.59.648 3.756 1.037l-.259 1.295zm-3.239-8.162l-11.79 5.182 10.365 7.644 1.425-12.826zM65.555 116.988H64.13v-1.296h3.886v1.296h-2.461zm-5.442-.259c-1.295-.13-2.59-.389-3.886-.519l.259-1.295c1.295.259 2.59.389 3.757.518l-.13 1.296zm11.79-.13l-.13-1.295c1.296-.13 2.591-.389 3.757-.648l.26 1.295c-1.296.259-2.592.519-3.887.648zm-19.433-1.295a138.39 138.39 0 0 1-3.758-1.166l.39-1.166c1.165.388 2.46.777 3.627 1.166l-.26 1.166zm27.206-.26l-.389-1.295c1.166-.389 2.462-.777 3.628-1.166l.518 1.166c-1.295.518-2.59.907-3.757 1.295zm-34.72-2.332c-1.167-.518-2.333-1.166-3.498-1.684l.647-1.166c1.166.648 2.332 1.166 3.498 1.684l-.648 1.166zm42.105-.388l-.519-1.166a27.766 27.766 0 0 0 3.369-1.814l.648 1.166c-1.166.648-2.332 1.166-3.498 1.814zm-48.972-3.369a47.546 47.546 0 0 1-3.239-2.202l.777-1.036c1.037.777 2.073 1.554 3.11 2.202l-.648 1.036zm55.709-.518l-.778-1.036c1.037-.648 2.073-1.425 3.11-2.203l.777 1.037c-.907.648-1.943 1.425-3.11 2.202zm-61.928-4.275c-1.036-.907-1.943-1.814-2.85-2.721l.907-.907 2.72 2.721-.777.907zm68.146-.648l-.907-.907 2.721-2.72.907.906c-.777.907-1.814 1.814-2.721 2.721zm-73.587-5.052c-.777-1.037-1.684-2.073-2.332-3.11l1.037-.777 2.332 3.11-1.037.776z" fill="#fff"/><path d="M107.531 104.162l1.425-12.826-11.92 5.182 10.495 7.644zM16.842 80.713c-.388-1.296-.647-2.592-.907-3.757l1.296-.26c.259 1.296.518 2.462.907 3.757l-1.296.26zm-1.554-7.774l-.39-3.886 1.297-.13c.129 1.296.129 2.591.388 3.757l-1.295.26zm.907-7.773h-1.296c0-1.296.13-2.591.259-3.887l1.296.13c-.26 1.166-.26 2.461-.26 3.757zm.777-7.644l-1.296-.259c.26-1.295.519-2.59.907-3.886l1.296.388a13.248 13.248 0 0 0-.907 3.757zm1.943-7.384l-1.166-.389c.389-1.296.907-2.462 1.425-3.628l1.166.519c-.648 1.036-1.036 2.332-1.425 3.498zm2.98-6.996l-1.166-.648c.259-.518.518-1.036.907-1.555.388-.648.777-1.295 1.166-1.813l1.036.647c-.389.648-.777 1.166-1.166 1.814l-.777 1.555zm4.146-6.478l-1.037-.777c.777-1.037 1.555-2.073 2.462-3.11l1.036.907c-.907.907-1.684 1.944-2.461 2.98zm5.052-5.83l-.907-.907a28.483 28.483 0 0 1 2.98-2.591l.778 1.037c-.907.777-1.944 1.554-2.85 2.461zm5.96-4.923l-.778-1.037c1.037-.777 2.203-1.425 3.24-2.202l.647 1.166c-1.036.648-2.073 1.425-3.11 2.073zm6.478-3.887l-.519-1.166a18.01 18.01 0 0 1 3.628-1.554l.518 1.166a101.916 101.916 0 0 0-3.627 1.554zm7.125-2.85l-.389-1.296c1.296-.388 2.462-.777 3.757-1.036l.26 1.296c-1.166.259-2.332.647-3.628 1.036zm7.514-1.684l-.13-1.296c1.296-.13 2.592-.388 3.887-.388l.13 1.295c-1.425 0-2.591.13-3.887.389zM11.79 83.692l10.364 7.644 1.425-12.826-11.79 5.182z" fill="#fff"/></svg>