<svg width="128" height="128" viewBox="0 0 128 128" fill="none" xmlns="http://www.w3.org/2000/svg"><g clip-path="url(#a)"><path d="M74.413 127.152c34.876-5.751 58.487-38.686 52.736-73.562C121.399 18.714 88.464-4.897 53.588.854 18.712 6.604-4.9 39.539.852 74.416c5.75 34.876 38.685 58.486 73.561 52.736z" fill="#025A82"/><path d="M63.353 37.96H29.669v33.166h33.684V37.96z" fill="#fff"/><path d="M63.353 37.96H29.669v7.643h33.684V37.96z" fill="#FA7564"/><path d="M62.057 70.219H30.834V46.38h31.223v23.838zM31.353 69.7h30.186V46.9H31.353v22.8z" fill="#025A82"/><path d="M61.798 51.951H31.094v.519h30.704v-.519zm0 6.089H31.094v.519h30.704v-.518zm0 6.09H31.094v.518h30.704v-.519z" fill="#025A82"/><path d="M41.069 46.64h-.518v23.19h.518V46.64zm11.271 0h-.518v23.19h.518V46.64z" fill="#025A82"/><path d="M111.029 37.96H77.345v44.696h33.684V37.96z" fill="#fff"/><path d="M111.029 37.96H77.345v7.643h33.684V37.96z" fill="#FA7564"/><path d="M109.863 81.36H78.64V46.38h31.223v34.98zm-30.705-.518h30.187V46.9H79.158v33.943z" fill="#025A82"/><path d="M109.604 51.433H78.899v.518h30.705v-.518zm0 5.96H78.899v.518h30.705v-.518zm0 5.959H78.899v.519h30.705v-.519zm0 5.96H78.899v.518h30.705v-.518zm0 5.83H78.899v.518h30.705v-.518z" fill="#025A82"/><path d="M88.875 46.64h-.518V81.1h.518V46.64zm11.272 0h-.519V81.1h.519V46.64z" fill="#025A82"/><path d="M73.717 81.23H40.033v27.725h33.684V81.231z" fill="#fff"/><path d="M73.717 81.23H40.033v7.644h33.684v-7.643z" fill="#FA7564"/><path d="M72.55 107.401H41.329v-17.62h31.223v17.62zm-30.704-.518h30.187V90.3H41.846v16.583z" fill="#025A82"/><path d="M72.292 95.352H41.587v.518h30.705v-.518zm0 6.089H41.587v.518h30.705v-.518z" fill="#025A82"/><path d="M51.434 90.04h-.39v17.102h.39V90.04z" fill="#025A82"/><path d="M69.571 56.486h-.906v1.296h.906v-1.296zm4.405 0h-2.202v1.296h2.202v-1.296zm2.98 0h-.907v1.296h.907v-1.296z" fill="#fff"/><path d="M69.571 60.373l-5.57-3.24 5.57-3.238v6.478zM45.992 35.498h-1.295v1.943h1.295v-1.943zm0-8.292h-1.295v4.146h1.295v-4.146zm0-4.016h-1.295V20.6h2.59v1.295h-1.295v1.295zm42.235-1.295h-4.145v-1.296h4.145v1.296zm-8.291 0H75.79v-1.296h4.146v1.296zm-8.162 0h-4.146v-1.296h4.146v1.296zm-8.162 0h-4.146v-1.296h4.146v1.296zm-8.162 0h-4.146v-1.296h4.146v1.296zm39.384 1.295H93.54v-1.295h-1.296v-1.296h2.591v2.591zm.001 2.462h-1.296v2.59h1.296v-2.59zm0 5.182h-1.296v1.943h1.296v-1.943z" fill="#fff"/><path d="M90.948 31.87l3.239 5.571 3.239-5.57h-6.478zM37.96 97.166h-1.943v1.296h1.943v-1.296zm-5.7 1.296h-3.758v-1.296h3.758v1.296zm-7.515 0h-3.757v-1.296h3.757v1.296zm-7.514 0h-2.59V95.87h1.295v1.295h1.295v1.296zm-1.295-6.737H14.64v-4.146h1.296v4.146zm0-8.421H14.64v-4.146h1.296v4.146zm0-8.292H14.64v-4.145h1.296v4.145zm0-8.42H14.64v-4.147h1.296v4.146zm0-8.292H14.64v-2.591h2.591v1.295h-1.295V58.3zm7.254-2.591h-1.942v1.295h1.943v-1.295z" fill="#fff"/><path d="M22.284 59.595l5.57-3.239-5.57-3.239v6.478zM95.87 83.951h-1.295v1.944h1.296V83.95zm0 5.83h-1.295v3.887h1.296v-3.887zm0 10.235h-2.59v-1.295h1.295v-1.296h1.296v2.591zm-6.477-1.296h-3.757v1.296h3.757v-1.295zm-7.514 0h-1.944v1.296h1.944v-1.295z" fill="#fff"/><path d="M80.842 96.13l-5.57 3.238 5.57 3.239v-6.478z" fill="#fff"/></g><defs><clipPath id="a"><path fill="#fff" d="M0 0h128v128H0z"/></clipPath></defs></svg>