<svg width="128" height="128" viewBox="0 0 128 128" fill="none" xmlns="http://www.w3.org/2000/svg"><path d="M64 128c35.346 0 64-28.654 64-64 0-35.346-28.654-64-64-64C28.654 0 0 28.654 0 64c0 35.346 28.654 64 64 64z" fill="#025A82"/><path d="M50.526 111.158v1.554c0 3.11 6.09 5.571 13.474 5.571 7.514 0 13.474-2.461 13.474-5.571v-1.554H50.526z" fill="#D19810"/><path d="M77.603 111.158c0 3.109-6.089 5.571-13.474 5.571-7.514 0-13.473-2.462-13.473-5.571 0-3.109 6.089-5.571 13.473-5.571 7.385 0 13.474 2.462 13.474 5.571zM50.526 94.834H25.133v-5.182h20.21v-23.32h5.183v28.502z" fill="#FDB813"/><path d="M27.336 84.47l-13.344 7.773 13.344 7.773V84.469z" fill="#FDB813"/><path d="M102.866 97.425H77.474V68.923h5.182v23.32h20.21v5.182z" fill="#FA7564"/><path d="M100.664 102.607l13.344-7.773-13.344-7.773v15.546z" fill="#FA7564"/><path d="M66.59 71.255h-5.18v28.761h5.182V71.255z" fill="#55D6D2"/><path d="M56.227 97.814L64 111.158l7.773-13.344H56.227z" fill="#55D6D2"/><path d="M94.963 31.87c-2.202 0-4.275.389-6.348.907C86.802 20.73 76.437 11.53 63.87 11.53c-12.566 0-22.93 9.199-24.745 21.247-1.943-.648-4.145-.907-6.348-.907-11.919 0-21.635 9.717-21.635 21.636 0 11.919 9.975 21.636 21.894 21.636h62.057c11.789 0 21.506-9.717 21.506-21.636 0-11.919-9.717-21.636-21.636-21.636z" fill="#fff"/></svg>