<svg width="128" height="128" viewBox="0 0 128 128" fill="none" xmlns="http://www.w3.org/2000/svg"><path d="M64 128c35.346 0 64-28.654 64-64 0-35.346-28.654-64-64-64C28.654 0 0 28.654 0 64c0 35.346 28.654 64 64 64z" fill="#FDB813"/><path d="M80.972 103.385H47.028l2.85-28.373h28.243l2.85 28.373zm4.146 0H43.012v2.461h42.106v-2.461z" fill="#025A82"/><path d="M105.716 33.684H22.413c-2.203 0-4.146 1.814-4.146 4.146v52.729c0 2.202 1.814 4.145 4.146 4.145h83.303c2.332 0 4.146-1.813 4.146-4.145V37.7c-.129-2.202-1.943-4.016-4.146-4.016z" fill="#025A82"/><path d="M45.862 72.162l19.433-15.028 17.231 4.016s19.304-14.77 23.968-18.397v-2.332c0-1.425-1.166-2.462-2.462-2.462H23.967c-1.295 0-2.461 1.166-2.461 2.462v34.85l10.105-8.42 14.251 5.31z" fill="#FA7564"/><path d="M82.526 61.15l-17.23-4.016-19.434 15.028L31.74 66.85l-10.105 8.421V84.6c0 1.296 1.166 2.462 2.462 2.462h79.935c1.296 0 2.462-1.166 2.462-2.462V42.753c-4.535 3.628-23.58 18.526-23.968 18.397z" fill="#E55D4C"/><path d="M22.024 57.652l1.684-3.24c0-.129.13-.258.13-.258.907 0 1.684 0 2.591-.13.26 0 .518.26.648.518l2.202 2.85c.26.39.648.519 1.037.26l3.238-1.684c.39-.26.519-.648.26-1.037l-1.037-3.498c0-.13-.13-.259-.13-.389a8.719 8.719 0 0 0 1.814-1.943c.26-.13.519-.259.778-.13l3.627.39c.389.129.778-.13.907-.519l1.037-3.498c.13-.389-.13-.777-.519-.907l-3.238-1.684c-.13 0-.26-.13-.26-.13 0-.906 0-1.684-.13-2.59 0-.26.26-.519.519-.648l2.85-2.203c.389-.259.519-.648.26-1.036l-1.685-3.24c-.259-.388-.648-.517-1.036-.258l-3.498 1.036c-.13 0-.26.13-.389.13A8.719 8.719 0 0 0 31.741 32c-.13-.26-.26-.518-.13-.777L32 27.595c.13-.389-.13-.777-.518-.907l-3.498-1.036c-.389-.13-.778.13-.907.518l-1.684 3.239c0 .13-.13.259-.13.259-.907 0-1.684 0-2.591.13-.26 0-.518-.26-.648-.519l-2.202-2.85c-.26-.389-.648-.518-1.037-.259l-3.239 1.684c-.388.26-.518.648-.259 1.037l1.037 3.498c0 .13.13.259.13.388a8.719 8.719 0 0 0-1.815 1.944c-.259.13-.518.259-.777.13l-3.498-.39c-.388-.13-.777.13-.907.519l-1.036 3.498c-.13.388.13.777.518.907l3.239 1.684c.13 0 .26.13.26.13 0 .906 0 1.684.129 2.59 0 .26-.26.519-.519.648l-2.85 2.203c-.388.259-.518.647-.259 1.036l1.684 3.239c.26.389.648.518 1.037.259l3.498-1.036c.13 0 .259-.13.388-.13a8.718 8.718 0 0 0 1.944 1.814c.13.259.259.518.13.777l-.39 3.628c-.129.388.13.777.519.907l3.498 1.036c.259.13.648-.13.777-.518zM19.563 40.42c.907-2.72 3.757-4.275 6.477-3.498 2.721.907 4.276 3.757 3.498 6.478-.907 2.72-3.757 4.275-6.477 3.498-2.721-.778-4.276-3.757-3.498-6.478zm81.101 38.35l2.591-.13h.259c.259.518.648 1.036 1.037 1.554.129.13.129.389 0 .648l-.907 2.462c-.13.259-.13.647.129.777l2.203 1.295c.259.13.648.13.777-.13l1.684-1.942c0-.13.13-.13.13-.13.648.13 1.166.26 1.814.389.129.13.388.259.388.388l1.037 2.332c.129.26.388.519.647.389l2.462-.648c.259-.13.518-.389.389-.648l-.13-2.59v-.26c.518-.259 1.037-.647 1.555-1.036.129-.13.388-.13.648 0l2.461.907c.259.13.648.13.777-.13l1.296-2.202c.13-.26.13-.648-.13-.778l-1.943-1.684c-.129 0-.129-.13-.129-.13.129-.647.259-1.165.388-1.813.13-.13.259-.389.389-.389l2.332-1.036c.259-.13.518-.389.389-.648l-.648-2.462c-.13-.259-.389-.518-.648-.388l-2.591.13h-.259c-.259-.519-.648-1.037-1.037-1.555-.129-.13-.129-.389 0-.648l.907-2.462c.13-.259.13-.647-.129-.777l-2.203-1.296c-.259-.13-.648-.13-.777.13l-1.684 1.814c0 .13-.13.13-.13.13-.648-.13-1.166-.26-1.814-.39-.129-.129-.388-.258-.388-.388l-1.037-2.332c-.129-.26-.388-.518-.648-.389l-2.591.648c-.259.13-.518.389-.388.648l.129 2.591v.26c-.518.258-1.036.647-1.554 1.036-.13.13-.389.13-.648 0l-2.462-.907c-.259-.13-.647-.13-.777.13l-1.296 2.202c-.129.259-.129.647.13.777l1.943 1.684c.13 0 .13.13.13.13-.13.647-.259 1.166-.389 1.813-.129.13-.259.39-.388.39l-2.203 1.036c-.259.13-.518.388-.389.647l.648 2.462c.13.389.389.518.648.518zm9.717-7.774c1.943-.518 4.016.777 4.534 2.72.518 1.944-.777 4.017-2.721 4.535-1.943.518-4.016-.777-4.534-2.72-.518-2.074.777-4.017 2.721-4.535z" fill="#fff"/></svg>