<svg width="128" height="128" viewBox="0 0 128 128" fill="none" xmlns="http://www.w3.org/2000/svg"><g clip-path="url(#a)"><path d="M74.335 127.167c34.883-5.708 58.534-38.614 52.825-73.497C121.452 18.787 88.546-4.864 53.663.844 18.779 6.553-4.871 39.46.837 74.342c5.708 34.883 38.614 58.534 73.498 52.825z" fill="#FDB813"/><path d="M24.097 85.765v7.644c0 6.348 10.494 11.401 23.45 11.401 12.955 0 23.449-5.053 23.449-11.401v-7.644H24.097z" fill="#025A82"/><path d="M70.996 85.765c0 6.348-10.494 11.401-23.45 11.401-12.955 0-23.449-5.053-23.449-11.4 0-6.349 10.494-11.402 23.45-11.402 12.955 0 23.449 5.053 23.449 11.401z" fill="#023F61"/><path d="M24.097 76.437v7.644c0 6.348 10.494 11.4 23.45 11.4 12.955 0 23.449-5.052 23.449-11.4v-7.644H24.097z" fill="#025A82"/><path d="M70.996 76.437c0 6.348-10.494 11.401-23.45 11.401-12.955 0-23.449-5.053-23.449-11.4 0-6.349 10.494-11.402 23.45-11.402 12.955 0 23.449 5.183 23.449 11.401z" fill="#023F61"/><path d="M24.097 67.239v7.644c0 6.348 10.494 11.4 23.45 11.4 12.955 0 23.449-5.052 23.449-11.4v-7.644H24.097z" fill="#025A82"/><path d="M70.996 67.239c0 6.348-10.494 11.4-23.45 11.4-12.955 0-23.449-5.052-23.449-11.4 0-6.348 10.494-11.4 23.45-11.4 12.955-.13 23.449 5.052 23.449 11.4z" fill="#023F61"/><path d="M24.097 57.91v7.645c0 6.348 10.494 11.4 23.45 11.4 12.955 0 23.449-5.052 23.449-11.4V57.91H24.097z" fill="#025A82"/><path d="M70.996 57.91c0 6.35-10.494 11.402-23.45 11.402-12.955 0-23.449-5.053-23.449-11.401s10.494-11.4 23.45-11.4c12.955 0 23.449 5.052 23.449 11.4z" fill="#023F61"/><path d="M24.097 48.583v7.644c0 6.348 10.494 11.4 23.45 11.4 12.955 0 23.449-5.052 23.449-11.4v-7.644H24.097z" fill="#025A82"/><path d="M70.996 48.583c0 6.348-10.494 11.4-23.45 11.4-12.955 0-23.449-5.052-23.449-11.4 0-6.348 10.494-11.4 23.45-11.4 12.955 0 23.449 5.181 23.449 11.4z" fill="#023F61"/><path d="M24.097 39.385v7.643c0 6.349 10.494 11.401 23.45 11.401 12.955 0 23.449-5.053 23.449-11.4v-7.644H24.097z" fill="#025A82"/><path d="M70.996 39.385c0 6.348-10.494 11.4-23.45 11.4-12.955 0-23.449-5.052-23.449-11.4 0-6.349 10.494-11.401 23.45-11.401 12.955-.13 23.449 5.052 23.449 11.4z" fill="#023F61"/><path d="M24.097 30.057V37.7c0 6.348 10.494 11.401 23.45 11.401 12.955 0 23.449-5.053 23.449-11.4v-7.644H24.097z" fill="#025A82"/><path d="M70.996 30.057c0 6.348-10.494 11.4-23.45 11.4-12.955 0-23.449-5.052-23.449-11.4 0-6.348 10.494-11.401 23.45-11.401 12.955 0 23.449 5.053 23.449 11.4z" fill="#023F61"/><path d="M113.879 67.368c0-20.47-16.584-37.182-37.183-37.182-20.47 0-37.182 16.583-37.182 37.182 0 20.47 16.583 37.183 37.182 37.183 20.6 0 37.183-16.713 37.183-37.183z" fill="#55D6D2"/><path d="M80.194 81.879c-.259-.39-.647 0-.907-.26h-.259v-.13l-.13-.129c-.647-.259-1.036-.906-1.554-1.166-.388-.13-.648 0-1.036 0-.26-.13-.389-.13-.519-.13-.388 0-.647-.388-1.036-.129l-.13-.13c-.129 0-.129 0-.259.26v-.389h-.13v-.13l-.129-.129h-.13c-.129-.13-.129-.13-.129-.26l-.259.26v-.13c-.259-.13-1.036-.518-1.425-.647-.389 0-.389 0-1.036.907 0 .13-.13.13-.13.259 0-.26 0-.26.26-.389.129-.13.129-.13.258-.389 0-.13.13-.259.13-.259v-.259c-.13 0-.13 0-.648-.13v-.129c-.13-.13-.13-.13-.26-.13h-.129v-.259c0-.259.26-.388.13-.647-.13-.389-.518-.648-.777-1.166-.13-.519-.13-.519-.13-.648-.13-.26-.13-.26-.389-.26l-.13-.129-.777-.777c-.13-.13-.259-.26-.518-.26-.388-.129-.518-.129-.777 0h-.26c-.129 0-.129 0-.258.13-.648-.13-.648-.13-.778-.388h-.13v-.13c-.129-.259-.129-.259-.258-.259h-.26s-.129.13-.129.26c.13-.52.13-.649-.259-1.037-.13-.26-.13-.26-.389-.26-.13-.129-.13-.259-.259-.259h-.648v-.13c0-.129 0-.129.13-.258v-.13s-.13-.13-.26-.13h-.129l-.13-.129s-.129 0-.129.13v-.13l-.13.13v-.26h-.129.519s0-.129-.13-.129h-1.555v.13h-.13s-.129.13-.259.13h-.518l-.13-.13h-.258c-.39 0-.39 0-.39.13h-.388l-.13-.13.13-.13v-.13h-.13l-.129-.13-.13-.129h-.389v-.518l-.129-.13h-.13c0 .13-.129.26 0 .39v.129H58.3l-.13.13v-.13l-.13-.13c0 .13-.129.26-.129.389v-.648h.26c.129 0 .129-.13.258-.259v-.13c0-.259 0-.259-.259-.388 0 0-.13 0-.259.13l-.26.258h-.129c-.259.13-.259.13-.388.39h-.389v.258l-1.036-.648c-.26.39-.39.39-.39 1.037v.13h-.259v.129c0 .13-.129.26-.258.389l-.13.13c0 .129 0 .258.13.258v.26-.26c0-.13-.13-.259-.26-.388-.129-.13-.259-.26-.259-.389 0 0-.13-.13-.259-.13h-.259v-.13c-.259 0-.259 0-.388.26h-.13c-.13 0-.13.13-.26.13-.129.13-.129.13-.258.13l-.13-.13h-.13v-.26l-.129-.13c-.648-1.295-.648-1.295-.648-1.424l.13-.26c0-.129 0-.388.13-.518l.129-.259v-1.166l.13-.13v-.388c0-.13.13-.388 0-.518l-.13-.13h-.26c0-.259 0-.259-.129-.388h-.777c-.13.13-.26.13-.389.13-.13 0-.259 0-.259-.13-.13 0-.259 0-.259.13l-.13-.13h-.129s.13-.13.13-.26c.13-.258.13-.647.259-.906 0-.13.13-.13.13-.26.129-.129.129-.259.129-.388 0 0 0-.13.13-.26 0-.129 0-.129.129-.647l.13-.26c0-.129 0-.129.388-.647 0-.13.13-.13.13-.259v-.259l-.13-.13-.13.13c-.129 0-.258-.13-.388-.13-.648.519-.648.519-1.166 1.296l-.13.13v.259c-.259.259-.259.259-.388.518l-.13.13-.259-.26c-.13 0-.13.13-.259.26h-.13c-.13 0-.259 0-.259.129l-.13.13h-.129v-.26l-.518-.13c-.13 0-.26-.129-.26-.258v-.518c0-.26 0-.26-.129-.39v-1.036c-.13-.518.13-.907.26-1.295v-.13c0-.259.258-.648.518-1.295.259-.518.388-1.425.388-1.425l.13-.13.13-.13.129-.129h.13v-.13h.13c.129 0 .129-.13.258-.259v-.13h.13l.388-.388h-.13.13c0-.13.13-.259.13-.259v.13c.13 0 .13 0 .26-.13l.129-.13s.13.13.13 0c0 0 .129.13.258.13h.26l.129-.13v.13l.13.13v.259l.13-.13v.13l.129-.13v-.13l.13.13v.26c.129 0 .129-.13.258-.13 0-.13-.13-.13-.13-.26h.13l.13-.129.13-.13h.129s.13 0 .13-.13c0 0 .129-.129.129-.258 0 .13 0 .13-.13.259h.39c.129 0 .129 0 .258.13l.13.129v.389c.13 0 .13 0 .518-.26h.26v.13c0 .26 0 .26.129.389 0 .13 0 .13.13.259 0 .389-.39.518-.39.907h.13v-.26l-.13.13c-.258.26-.129.648-.129.648h.13l-.13.13c-.13 0-.13.13-.13.13 0 .129-.13.258-.13.388s0 .13.13.13c.13.129-.259.647.13.647.13 0 .13 0 .26-.13l.129-.129c0-.13 0-.13.13-.26a1.77 1.77 0 0 1 .388-.517c.13-.519 0-.907.13-1.425v-.519h-.13.13c.129-2.073 2.331-3.239 3.757-3.757v-.259h.13c.258 0 .517-.259.388-.389l.13-.13c.129-.129.129-.129.129-.388h-.26v-.13h.13l.13-.129h.13v-.259c0-.13 0-.13.259-.389l.259-.259c-.389.389-.389.389-.519.648 0 .13 0 .26-.13.26v.129c-.129.13-.129.13-.258.388v.13h.13l.258-.26h.13l.389-.388c.13-.13 0-.259.13-.518v-.13.519c.129 0 .129 0 .258-.13.13 0 .13 0 .26-.26.129 0 .129 0 .259-.258l.13-.13c0-.13 0-.13.129-.259l.13-.13s.129 0 .129.13h.778s.129 0 .129-.13v-.129h-.519.26c.259-.13.647.13.777-.26v.13c.13 0 .13 0 .259-.13-.13.13-.13.13-.26.13.13.13.13 0 .26-.13 0 0 .26-.129.13-.388 0 0-.13 0-.13.13l-.13.13v-.13h-.13l.13-.13.13-.259.26-.259.258-.26h.389c.13 0 .13 0 .518-.258l2.073-1.684h-.13v.13c.13 0 .13 0 .39-.13.129-.13.388-.13.388-.13.388-.13.388-.13.518-.13 0 0 0-.13.13-.13h.129l.26-.129v.26h.259c.258-.13.517-.13.647-.39l-.389.13h.13c.13 0 .13 0 .259-.13v.13h-.26c-.129 0-.129 0-.388.13l-.13.13h-.129l-.13.13c-.129.129-.129.258-.258.258v.13h.129c.13 0 .13 0 .26-.13.129-.13.129-.13.388-.259l.259-.26h.259l.13-.129h.388c.26-.13.519-.13.778-.259.13-.13.13-.13.259-.13h.388s.26 0 .26-.258h-.13l.13-.13v-.13h-.13l-.389.39-.13.129s0 .13-.129.259v-.13h-.13c-.129.13-.129.13-.258.13h-.39v-.13c-.129-.13-.129-.13-.258-.13v-.129c0-.13 0-.13.13-.259v-.13l.129-.129.13-.13h.129-.777c.13 0 .13 0 .259-.13v.13h.13c.129 0 .129 0 .258-.13h.389c.13 0 .13 0 .13-.258v-.13s0-.13-.13-.13c-.13-.129-.13-.129-.389-.129-1.036.26-1.036.26-2.85 1.296h-.13l.13-.13c.26-.13.389-.259.648-.389l.13-.13c0-.517 0-.517.129-.647.13-.13.13-.13.389-.259h.518l.259-.26.13-.129c.259-.13.259-.13 1.166-.13.777 0 .777 0 .907.13v.13l.129-.13h.389c.259 0 .259 0 .388-.13h.26c.129 0 .129 0 .259-.129 0 0 .13 0 .13-.13h.777s.129 0 .129-.129l.26-.13.129-.129v-.26l.13-.129v-.13c0-.129 0-.129-.13-.129l-.13-.13v-.129c-.259 0-.389.13-.648.13h.13c.259-.13.259-.13.389-.13s.13 0 .259-.13l-.13-.129v-.13.13h-.259v-.13h-.13s0-.13-.13-.13h-.129v-.129h-.13c0-.13 0-.13-.129-.13l.389-.388h-.13v-.13c0-.129 0-.129-.13-.129v-.26l-.129-.258.13-.13v-.13s0-.129.13-.129v-.13h-.13c-.13.13-.13.13-.26.13-.258.13-.388.518-.777.518h-.13c-.129.13-.388.13-.517.26v-.13h-.13v-.13h-.13v-.13c.13 0 .13 0 .13-.129l.13-.259c.13 0 .13 0 .13-.13v-.129c-.13 0-.13 0-.13.13-.13 0-.26 0-.39-.13l.13-.13h-.13s0-.13-.129-.13v-.129c-.13 0-.518.13-.518.13h-.519l-.129.13h-.13v.129c-.129 0-.388.13-.517.26v.129c-.13.13-.13.13-.13.259-.13 0-.389.259-.518.259h-.13c-.259.13-.259.13-.13.389.26.518-1.165 1.425-2.072 1.554-.13 0-.13 0-.26.13-.129.13-.129.13-.129.259 0 0 0 .13-.13.13h-.129v.129c0 .13-.13.13-.13.13-.129.13-.129.13-.129.259 0 .13 0 .13-.13.259-.13.13-.259.13-.388.259-.13.13-.13.13-.13.259v-.13l-.259.13h-.13v-.13c0-.13 0-.13-.129-.13v-.388h.13v-.13l.13-.258h.129s.13-.13.259-.13c.13-.13.13-.13.13-.26 0 0-.13-.129-.519-.129h-.259c-.13-.13-.26-.13-.389-.13v-.258c-.13 0-.13-.13-.259-.13h-.518l.26-.259.129-.13.13-.13h.129v-.129h-.26.26s.13-.13.259-.13c.13-.129.259-.129.389-.258.13-.13.13-.13.388-.26.13-.129.13-.129.518-.259h.26c.259-.13.259-.13.388-.13l.13-.129h.389v-.13h-.26l-.13-.129.13.13h.26l.129-.13.13-.13h.259c.13 0 .13 0 .259-.129.13 0 .388-.259.388-.259h.13c.26 0 .259 0 .259-.13l-.13.13-.13.13-.129.13c-.13 0-.13.129-.259.129h-.13c-.129 0-.129 0-.129.13l-.13.129h.39l-.13.13c-.13 0-.13 0-.13.129.13 0 .13 0 .26-.13l.388-.13c.13 0 .13 0 .13-.129h.129v.13h.778v-.13h-.13.13v-.13l.129-.129-.13.13s0 .13-.13.13l.13-.13h.13v.13-.13h.13l.129-.13c.13 0 .13 0 .26-.13h.258s.13 0 .13-.129c.13 0 .13 0 0-.26.13 0 .13 0 .259-.129.13 0 .259-.259.259-.259h-.13.13l.13.13h.389c0-.13 0-.13.129-.13 0 .13 0 .13.13.13h-.13.259-.13s-.13 0-.13.13h.39v.129c-.13 0-.13 0-.13.13h.389v.259h-.13c-.13 0-.13 0-.13.13h-.13c-.129.129-.258.129-.517.129v.259h-.13c-.13 0-.13.13-.259.13h-.519c-.258.129-.258.129-.258.258.259.13.259 0 .388 0h.13v-.13.26l-.13.13v.13s.13.258.26 0v.129h.518c.13 0 .13 0 .259.13v-.39c0-.129-.26-.259-.26-.259-.129-.13-.129-.13 0-.13.13 0 .13 0 .13.13l.13.13c.13 0 .13 0 .13.13.129 0 .129 0 .129-.13v-.389l.13-.13c.129-.129 0-.258 0-.258s.129 0 0-.13c0-.13-.13-.13-.13-.13v-.259h.13l.129-.13h.13v.13c0 .13 0 .13.13.26.129 0 .258-.13.258-.13s0-.13.13-.13v-.13h.13l.129-.129-.389-.259c0-.13-.259-.13-.259-.259l-.259-.13.13-.129.13-.13h.258v-.13h-.13l.13-.129h.13s-.26-.13-.389-.13l-.259-.129-.13.13v-.13c0-.13 0-.13-.13-.259h-.258v-.13c0-.129 0-.129-.13-.129h-.388s-.13 0-.13.13v.259h.389-.13s-.13 0-.259.13h-.13l-.259.129h.13l.13-.13h-.648c-.13 0-.13 0-.26.13-.129 0-.129.13-.259.13l-.13.129v-.13s.13 0 .13-.13h.13c0-.129 0-.129.13-.129s.13-.13.259-.13h.389c-.13 0-.778 0-1.167.26-.13 0-.259.13-.388.259-.13 0-.13 0-.13.13h.26-.39s-.129 0-.129.129l.13.13h.13v.13h.518c-.13 0-.13 0-.13.129h-.389s-.13 0-.13.13c0 0-.129.129-.129.258h-.13c-.259 0-.388.13-.647.26l.13-.13c-.13 0-.13 0-.26.13-.13 0-.13 0-.13.129h-.129v-.13l.13-.13.13-.129v-.13h-.13c-.13 0-.13 0-.26.13l-.259.13v-.13c4.017-3.627 4.017-3.627 4.146-3.627h.13l-.13-.13h-.13l.13-.13h.13c.13-.129.259-.129.259-.258h.259c.259 0 .259 0 .777-.13h.259-.777s-.13 0-.13.13h-.13c-.129 0-.129 0-.129.13l-.13.129c-.129.13-.258.13-.388.259h-.259c-.13 0-.13 0-.13.13-.13 0-.13 0-.259.129v.13h.13-.26.13c-.388.129-.388.129-.518.129h-.13l-.129.13h-.13l-.13.13.26-.26.13-.13c0 .13-.13.13-.13.26.13 0 .13-.13.26-.13l.129-.13h.259-.26.39c.129 0 .129 0 .129-.13h.13s-.26 0-.26.13v-.13s-.13 0-.13.13h-.129s-.13.13-.13.26c0-.13.13-.13.13-.26l-.13.13h-.259.13-.13l-.129.13h-.778.13-.388s-.26 0-.519.13v.129h-.389l-.129.13h.389c-.26 0-.518.129-.778.129h-.389v-.13h.26l.13-.13v-.129h-.13c-.13 0-.13 0-.26-.13v-.129h-.388.13c.13 0 .13-.13.259-.13-.518.26-.518.26-.648.26.13-.13.26-.26.518-.26-.13 0-.13.13-.518.13h.26-.649c-.13 0-.13 0-.259.13h-.777v-.13h.26-.13l-.13-.13h-.907.26-.13l-.389.13h-.26c-.258 0-.388.13-.647.13 0 0-.13 0-.13.13-.129 0-.129.129-.259.129h-.259c-.13.13-.13.13-.388.13-.13.129-.26.129-.389.258h-.519s-.129.13-.258.13h-.13l-1.036-.907.259-.13c-.13 0-.13.13-.26 0l-.129.13s-.13 0-.13.13h-.129l-.13.13s-.13 0-.13.129h-.129l-.13.13h.13s.13 0 .13-.13c0 0 .13 0 .13-.13h.129l-.26.13c-.129 0-.129.13-.258.13-.13.129-.389.258-.389.258h-.13s-.129.13-.259.13l-.13.13c-.129.129-.129.129-.258.129h-.13c-.388.26-.648.518-1.036.777 0 0 .13 0 .13-.13 0 0-.13 0-.13.13-.389.26-.778.519-1.037.778l-.13.13h-.129c.13-.13.13-.13.26-.13h.129l-.13.13h.13c-.13.129-.13.129-.518.388-.519.13-.648.13-.778.259.13 0 .13-.13.26-.13.129 0 .129-.13.259-.259h.13-.13l-.13.13-.13.13-.13.129-.129.13.13-.13.13-.13h.129l.13-.13.13-.129h.129l.13-.13h-.13s-.13 0-.13.13c0 0-.13.13-.259.13l.13-.13c.259-.13.259-.13.388-.259h.389s.13 0 .13-.13c.129 0 .129-.129.259-.129 0 0 0-.13.13-.13l.129-.129s.13-.13.259-.13l-.13.13c-.13 0-.13.13-.259.13-.13.13-.13.13-.259.13 0 0-.13 0-.13.129 0 0 .13 0 .26-.13s.13-.13.259-.13h.13s.129 0 .129-.129l-.13.13c.13 0 .26-.13.519-.26h.129c.13 0 .13 0 .26-.13h-.13c-.13 0-.13 0-.26.13 0 0-.13 0-.13.13.13 0 .13-.13.26-.13l-.13.13h-.13l-.129.13c.13 0 .13-.13.26-.13h.129l-.13.13.13-.13h-.13v.13h-.13c-.129.13-.129.13-.129.259-.13.13-.13.13-.388.259 0 0-.13.13-.26.13l-.129.647-.13.13h.13l-.13.13-.259.258h-.13l-.129.13-.13.13-.129.129c.13 0 .13-.13.26-.13.258-.13.388-.388.647-.518l.13-.13-.39.39-.129.129-.388.259-.13.13-.13.13-.129.129v.13l-.26.258-.129.13s0 .13-.13.13l-.129.129-.13.13s-.129.13-.129.259h-.13l-.129.13-.26.258h-.129.13v.13h.13s0 .13-.13.13v-.13l-.13.13-.13.129v.13l-.129.13v.129c-.13.13-.13.13-.13.259 0 .13-.129.13-.129.259v.259c-.13.13-.259.389-.518.518l-.13.13c-.13.259-.13.259-.259.259l-.13.13c-.647.647-1.424 1.165-1.943 1.943 0 0 0 .13-.13.13 0 0-1.036 1.165-1.165 1.554l-.13.13-.13.129c-.129.13-.258.389-.388.518 0 .13-.13.26-.13.389l-.129.13c0 .259-.26.518-.389.777l-.13.13-.388 1.036c0 .13-.13.259-.13.259v.13h.13v.777c-.13.259-.13.389-.259.648 0 .13 0 .13-.13.259v.13c0 .129 0 .129-.13.258v.13c0 .13 0 .13-.129.259v.389c-.13.259-.13.259-.13.388v.518c0 .13 0 .26-.129.39l-.13.258v-.13c.13-.129 0-.129 0-.129l-.129.13v.778h.13v.518c.13.129 0 .258-.13.647s-.13.389-.13.518v.389c0 .13 0 .389.13.518 0 .13-.13.389-.13.518l.13-.13c0-.129.13-.129.13-.258v-.648c0-.13 0-.13.13-.389 0-.13.129-.648.129-.907l.13-.518c.129-.389 0-.648.129-1.036-.518-.26-.518-.518-.518-.518v-.13h-.13.13c0-.389 0-.518.13-.648 0-.13.129-.13.129-.259 0-.13 0-.13.13-.259 0-.13.129-.13.129-.26 0 0 0-.129.13-.129v.13h.129v.259c0 .13-.13.389-.26.518-.129.26-.129.389-.129.518l-.13.26s-.129.259-.129.388h.13v.648c.13 0 .13 0 0 .26-.13.258-.13.258 0 .388v.259c-.13.259-.389.389-.26.777v.13c.13.259.13 1.295.13 1.295v1.815c-.13.258-.13.258-.13.388-.129.13-.129.13-.129.907 0 .13 0 .13.13.259v.13c0-.13 0-.26.13-.39v.519c.129.13.129.259.258.389v.259c.389.259.519.777.907 1.166v.13h.13v.129c0 .13.13.13.259.13v.129c.13 0 .13 0 .259.13l.13.129c.388 0 .388 0 .518-.26l.13-.129h.129c.259.26.259.26.518.648.13.26.13.26.26.648 0 .13.129.13.129.259v.259h.13c.388.26.388.26.517.389h.13c.13.13.13.13.26.13h.129l.13-.13v.389c0 .258.258.518.388.777.13.388.26.518.389.518v.778c.13.388.13.388.259.517h.13v.26c0-.13 0-.26.129-.39.13.26.389.52.518.778v.13c0 .13 0 .13.26.518l.129.26h.13v-.26c.258.13.258.13.388.13h.13v.518s0 .13.129.13l.13-.26h.13v.13c.129.13.129.13.388.13l.13-.13v-.26c0-.129-.13-.258-.26-.388h.13c.13-.13.13-.26.13-.389l.129-.13c.13 0 .13.13.259.26l.13.13c.13.258.13.518.13.647 0 .13.129.26.129.26l.13.129c.129.13.129.388.129.518s0 .26.13.389v.259c.129.518.129.648.129.907v.13h-.13v.129c0 .13 0 .13.13.259l.13.13h.129v.13l-.13.258c0 .13-.13.13-.13.26-.129.129-.258.129-.388.258v.39c0 .258 0 .258.13.388-.13 0-.13 0-.26.13-.129 0-.129.129-.258.129 0 .13 0 .13.13.518v.518c-.13.13 0 .518.129.778l-.13.259s.13.13.26.13l.129.129v-.26.26c0 .13 0 .259-.13.259v.259c-.13.389-.13.389-.13.648 0 .13.13.259.13.259v.13c0 .129.13.259.13.388v.389c.259.388.777.518 1.036 1.036.26.389.519.648.778 1.037 0 0 .518.907.906 1.295l.13.26.13.258c.259.39.777.907.777.907.13.13.13.13.13.26 0 .388.906 1.036.906 1.036.26.13.519.259.648.388.13.13.13.13.26.13.129.13.258.13.388.26 1.036.517 1.036.517 1.036.647l.518.389.26.259c.13.13.13.259.259.388.13.26.13.26.259.39 0 0 0 .258.259.647v.13s0 .129.13.129c.13.26.13.389.259.648v.259c0 .13.13.13.13.13 0 .129 0 .129.129.258l.388.519v.13c0 .129 0 .129.26.258l.259.519.388.777.13.13.259.259v.13c0 .129 0 .129.13.258l.13.13.258.259c.26.259.389.518.518.777v.13c0 .13 0 .13.13.259.13.13.13.389.389.648l.13.259.129.13c.259.258.259.258.388.258l.13.13.13.13h.259l.13.13.129.129.13.129s0 .13.129.13l.13.129h.518l.13.13.258.259.13.13h.13v-.13l-.39-.389.13.13.13.129.13.13s.129.13.129.259v.13c-.13 0-.26-.13-.389-.13l.13.13.259.259.13.129.129.13h.13l.13.129.129.13h-.26.13c0 .13 0 .13.26.259h.647l.26.13.129.129h1.037-.26c-.389 0-.648-.129-.907-.259l-.13-.129c-.518-.26-.518-.26-.647-.389-.13-.13-.26-.13-.26-.259 0-.13.13-.13 0-.259-.258-.259-.906-.13-1.036-.648h.26l-.39-.389s0-.13.13-.13c-.13 0-.259 0-.259-.129h.13c.13 0 .13.13.259.13v-.13s0-.13-.13-.13c-.13-.129-.13-.129-.259-.129l-.389-.389c.13 0 .26.13.519.13h.259v-.13c0-.13 0-.13-.13-.13l-.13-.129c2.333 1.166 2.203 1.037 2.203.907.26.13.26.13.389.13.518-.13.518-.13.907-.26v-.129c.259-.777-.907-.777-1.166-1.296 0 0 .13 0 .13.13.388 0 .647.13 1.036.13.259.13.259.13.647-.648 0-.26.13-.389.13-.648h-.13c0-.26.26-.518.26-.518h.13v.259l-.13.13v.129l.13-.13s0-.13.129-.259v-.389c.388-1.036.388-1.036.13-1.813 0-.13.129-.26.129-.389 0-.13 0-.13.13-.259l.388-.389c.13-.13.13-.13.389 0h.13v-.13s0-.129-.13-.129l.13-.13c.129 0 .258-.258.388-.258h1.295v-.13c.39-.259.39-.259.39-.777v-.13c.258-.13.258-.13.388-.388 0-.13 0-.13.13-.26l.129-.129c0-.13-.13-.26-.13-.518 0-.26.389-.389.389-.778 0-.13 0-.13.13-.907 0-.388-.13-.777-.13-1.165v-.519l.518-.388c1.944-2.85 1.944-2.85 1.944-3.11.13-.647 0-1.425-.26-1.813zm-7.255-40.68h.26s-.13.129-.26 0c-.13 0-.13 0-.13.129 0 0 0-.13.13-.13zm-4.534-5.183h.259v.13c-.13 0-.13 0-.26-.13 0 .13 0 .13 0 0zM51.692 55.19l.13.13-.13-.13zm-.777 14.251s-.13 0-.26-.13h-.259s.13-.129 0-.388l.13.13c.13.13.13.13.26.388h.13zm6.867 1.555s-.13.26-.26.26l-.13-.13c0-.13 0-.13-.129-.26-.13-.13-.13-.13 0-.259l.13-.13v-.129.13c0 .13.13.13.13.259 0 .13 0 .13.129.13.259.129.259.129.13.129z" fill="#44ABA8"/><path d="M63.74 70.089l-.129-.13c-.13 0-.13 0-.13.13-.129.13-.129.13-.129.26v.129l-.13.13c.13 0 .26.129.39.129.129 0 .129 0 .129-.13s.13-.13.13-.13v-.129l-.13-.259zm-1.813-.389l-.13.13-.129.13-.13.129s0 .13.13.13h.26c.129-.13.129-.13.129-.26s0-.13-.13-.259zm7.255-24.874h-.13l-.13.13v.129c0 .13 0 .13.13.13h.26v.13l.13-.13v-.13h.259v-.13h-.649l.13-.13zm1.425-1.166c.13 0 .26 0 .26-.13s-.13-.259-.26-.259-.13 0-.13-.13h-.389v.13h.13c0 .13 0 .13.13.13l.13.13c-.13.129-.13.129.13.129zm1.555-5.442s-.13 0 0 0c-.13 0-.13.13-.13.13s0 .13.13 0c.13 0 .13-.13.13-.13v-.129l-.13.13c0-.13 0-.13 0 0zm-1.425-1.165h.13v-.13l-.13.13c0-.13-.13-.13 0 0zm-.259-.13h-.13v.13h.13c.13 0 .13 0 0-.13.13.13.13.13 0 0zm.777.259h-.13c0 .13 0 .13.13 0-.13.13-.13.13 0 0l-.13.13.13-.13zm-1.944.518c.13-.13.39-.259.39-.259h-.13c-.13 0-.13.13-.26.13-.129 0-.129 0 0 .13-.129 0-.129 0 0 0-.129.129-.129.129 0 0zm.001-.518c-.13-.13-.13-.13 0 0h-.389l-.259.13v.13h.13c.13 0 .388-.13.518-.26zm-4.794 4.275l.13.13.13.13c.129 0 .129 0 .129-.13v-.13c0-.13 0-.13-.13-.13 0 .13 0 .13-.259.13zm8.032-6.089c-.258.13-.258.13-.258.26h.259c.13 0 .388-.13.388-.13l.13-.13v-.13h-.13c-.259.13-.259.13-.388.13zm-.388-.129l-.13.13c.13 0 .13 0 .13-.13h.13-.13zm.518-.389l-.13.13h-.259.26c0 .13.13 0 .13-.13 0 .13.129.13 0 0h-.001zm.13.26h.13c0-.13 0-.13-.13 0 0-.13 0-.13 0 0zm-20.082 4.145c0-.13.13-.13 0 0 .13-.13.13-.13 0 0 0-.13 0-.13 0 0-.129 0-.129 0 0 0zm.001 1.555c.13-.13.259-.13.388-.26h-.13l-.129-.129-.13.13c-.258.13-.518.518-.518.518l-.259.259-.13.26s.13 0 .26-.26c.518-.389.518-.389.648-.518zm3.368 22.154c.13 0 .389-.13.518-.13h.389v-.13l-.13-.13c-.13-.129-.259-.258-.388-.258h-.26l.13-.13v-.13c-.13-.129-.259 0-.259 0-.13 0-.13-.129-.259-.258h-.13c-.13 0-.13-.13-.13-.26-.129-.259-.388-.518-.517-.518 0 0-.389 0-.389-.13 0-.129-.13-.518-1.036-.518-.26 0-.26 0-.26.13h-.259c-.13 0-.647.13-.777.518-.13 0-.13 0-.13.13v.13h.26v.129l.259-.26c0-.129 0-.129.13-.129.258 0 .258 0 .388-.13l.13-.129c.129 0 .259-.13.388 0h-.13v.13h.13c.26 0 .26 0 .26.13h.259v.129c.129.13.129.13.258.13h.39s.129 0 .129.258c0 .39 0 .39.13.519h.388v.13l-.13.129c-.13.13-.259.13-.259.259h.648c0 .259.13.389.26.389z" fill="#44ABA8"/><path d="M52.858 61.15c-.13 0-.259.259-.259.389h.13s.13 0 .13-.13c.129.13.129-.13 0-.26zm3.11-1.944v-.13c0-.129 0-.129-.13-.129s-.13.13-.13.13c-.129.13-.129.13-.129.26h.13v.518c.13 0 .259-.26.259-.26 0-.13-.13-.13-.13-.13h.13v-.259zm1.684 2.851v-.13s-.13 0-.13.13v.13h.13c-.13 0-.13-.13 0-.13zM55.32 64c0-.13-.13-.13-.26-.13h-.129c-.13 0-.13 0-.26.13v.259l.13.13c0 .13 0 .13.13.13s.13 0 .26-.13h.129c.259 0 .259 0 .388-.13-.13-.13-.13-.13-.388-.26.13 0 .13 0 0 0zm1.166.13l.259.129c.13 0 .26-.13.389-.13h.648c0 .13 0 .26.129.26v.259l.26-.389h.517c.13 0 .13-.13.13-.13 0 .13.13 0 .259 0h.13l.129.13h.13l.13-.13v-.259s0-.13-.13-.388c0-.13-.13-.26-.26-.13l-.13-.13v-.388c-.129-.13-.388 0-.517 0h-.389l-.13-.13-.13.13h-.388l-.13-.13-.129-.13c-.13 0-.259.13-.259.13 0 .13.13.13.13.13h.13v.13l.129.518h-.13v.13c0 .258 0 .258.13.258s.13-.13.259-.13c.13 0 .13.13.13.13V64c-.13 0-.26 0-.26.13l-.13-.13h-.647c-.13 0-.13 0-.13.13v.129l-.13-.13zm4.016.388h.389c.13.13.259.13.259 0l.13-.13s0-.129.129-.129v-.13h-.389c-.13 0-.13-.129-.259-.129h-.13c-.129 0-.129 0-.258.13.13.13.13.13.13.388zm2.203-.129v.259h.13l.129-.13c0-.13 0-.13-.13-.13.13-.129 0-.129-.13 0zm.647.518v.259h.13v-.13l-.13-.13zm.518.777c0-.13 0-.13 0 0-.129-.13-.258 0-.258 0s0 .26-.13.26c0 .129 0 .129.13.129v-.26l.129-.129c.13.13.13.13.13 0zm-.388 1.166c.259-.13.259-.13.259-.259v-.259h-.26v.13c.13.13.13.13 0 .388z" fill="#44ABA8"/><path d="M64 67.11s0-.26-.13-.39h-.259v.13s0 .13.13.26H64c-.13.129 0 .129 0 0 0 .129 0 .129 0 0zm-.13.647c0-.13.13-.13.13-.259v-.13c-.26.13-.26.26-.13.39-.13 0-.13.129-.13.258-.129 0-.129.13-.129.13 0 .13 0 .13.13.13 0 0 .13 0 .13-.26v-.259zm-.518 1.166l-.13.13.13.13.13-.13-.13-.13zm1.166-14.899l.13-.13v-.259s-.13 0-.39.13l-.258.26-.13.129-.13.13v.129h.13c.13 0 .26-.13.26-.13.388-.13.388-.13.388-.259zm5.83-9.716c-.13 0-.13 0-.259.13l-.13.129h.13s.13 0 .13-.13l.13-.13c.129 0 .129 0 .129-.129l-.13.13zm4.016-.518h-.13s-.129 0-.129.13h-.13c.13-.13.13-.13.26-.13 0-.13.259-.13.259-.26v-.259c-.13 0-.13.13-.13.26-.13 0-.13 0-.13.129 0 .13 0 .13-.129.13v-.13h-.26l.13-.13h-.13l-.129.13h-.13c.13-.13.13-.13.26-.13l.13-.13c.129-.129.259-.129.388-.258.13 0 .13 0 .26-.13h-.13c-.13 0-.13 0-.13.13l-.389.259-.13.13h-.129c-.13.129-.13.129-.388.258l-.13.13c0 .13 0 .13-.13.13-.129 0-.129.13 0 .13l-.129.129v.13l-.13.129s-.13 0-.13.13c0 0-.129.129 0 .129-.129.13-.258.13-.258.26-.26.129 0 .258 0 .258h1.425v.13l-.13.13-.13.129h-.259l.13.13h.26l.129-.13h.259l.13-.13v.26l-.13.129c.13 0 .13 0 .13-.13l-.13.13v.13h.389s.13 0 .13-.13v-.648c.129-.13.129-.13.129-.259h-.26.39c-.519-1.036-.519-1.166-.519-1.296 0 .13 0 .13 0 0z" fill="#44ABA8"/><path d="M72.42 44.956h.13v-.26h-.13v.26zm1.167-7.386l-.13.13v.13h.13c.13 0 .13 0 .13-.13-.13 0-.13 0-.13-.13zm-.13-4.922c.26.13.26.13.389.13.26-.13.26 0 .389 0h.13c-.13 0-.13-.13-.26-.13l-.259.13h-1.555l-.13.129h.26c-.389.13-.389.259-.389.259h.389c.13 0 .13 0 .259-.13l-.13.13h.778l.13-.13v.13h.259c.129 0 .259-.13.388-.13v-.13c-.13-.129-.13-.129-.259-.129H72.68l.13-.13h.259c.13 0 .13 0 .259-.129l.13.13h.129c.13 0 .13 0 .259-.13h.26l-.13.13h.518c.13 0 .13-.13.259-.13h-.13c.13 0 .26 0 .389-.13h.519l.129-.129h.13v-.13h1.036l.13-.129h.129l.259-.13h.26c.129 0 .129 0 .258-.13h.519-3.11s-.13 0-.648.13h.13l.13.13h.258-.129l-.13.13h-.389V32h-.388c-.13 0-.259 0-.259.13v.259h-.26l-.129.259zm1.944-.26v.13-.13h-.26.26z" fill="#44ABA8"/><path d="M73.198 33.036s.13 0 0 0c.13 0 .26 0 .389-.13h-.26c.13 0 0 0-.129.13.13-.13 0 0 0 0z" fill="#44ABA8"/><path d="M72.68 32.907l.13.13h.259l.13-.13h-.13.259l-.13-.13h-.259c-.13 0-.259 0-.259.13zm.518-.389l.13-.13h-.13v.13c-.13-.13 0-.13 0 0zm-1.166.259s.13 0 0 0l.13.13h.259s.13 0 .13-.13v-.13h-.519v.13c0-.13.13-.13 0 0 .13-.13.13-.13 0 0zm-.777.259h.259v-.13c0-.129-.13 0-.26.13z" fill="#44ABA8"/><path d="M71.514 33.166c0-.13-.13-.13-.26 0v-.26s-.129 0-.258.13h-.13v.13h.26s-.13 0-.13.13h.259c.13 0 .13-.13.259-.13l.26-.13v-.13h-.39c.26.26.13.26.13.26zm.13.259c-.13 0-.13 0 0 0-.13.13-.13.13 0 0 0 .13 0 .13 0 0l.13.13h.259l.258-.13h-.259c-.259-.13-.259-.13-.388 0zm-.907.389l.13-.13v-.13h-.39s-.129 0-.129.13h-.388v.13h.129v.13h.13s.13 0 .13-.13h.259l.129-.13h.13c-.13.26-.13.26-.13.13 0 .13 0 .13 0 0-.13.13-.13.13-.26.13v-.13c0 .13 0 .13.26 0zm-5.312.648c.13 0 .13 0 .26-.13h.129c.259 0 .518-.26.777-.26.13 0 .26 0 .26-.129h.129-.519c-.13 0-.13 0-.13.13h-.259l-.129.13h.648-.907l-.13.129h-.129l-.13.13h.39c-.13 0-.13 0-.13.129h-.13.518s.389 0 .518-.13h.26c.13-.13.13-.13.259-.13v.13h.518l.13-.13h.129c.13 0 .13 0 .389-.129v-.13h.259l.13-.129c.129-.13.129-.13.258-.13.13-.129.13-.129.26-.129.129 0 .129 0 .259-.13h.13-.52c-.129 0-.129 0-.258.13-.13 0-.13.13-.26.13l-.258.13.13-.13c.258-.13.258-.13.258-.26h-.13.13s.13-.129 0-.129h-.389.13-.777c-.13 0-.13 0-.26.13h-.258c-.26 0-.26 0-.389.13l-.26.129c-.129 0-.258 0-.388.13h-.13.13l-.13.129-.388.389zm2.203.648h-.13c0 .129 0 .129.13 0zm.259 0c-.13 0-.13 0 0 0 0 0 .13 0 0 0h.259c-.13-.13-.13 0-.26 0zm2.72-1.685c.13-.13.13-.13 0 0 .13-.13.13-.13 0 0 0-.13 0-.13 0 0h-.259.26z" fill="#44ABA8"/><path d="M68.405 33.166c.13 0 .13 0 0 0h.519c-.13 0-.26 0-.26.13h.519-.13.259c-.13 0-.13 0-.13.129h-.389.39-.13l-.13.13h-.389 1.426-.13l.26-.13h-.908c.13 0 .13 0 .13-.13h-.26c.13 0 .13 0 .26-.13h.13s.129 0 .129-.129h-1.685c.648.13.648.13.519.13zm1.036-.13h-.13c.13.13.13 0 .13 0zm1.037-.129h.518c-.13 0-.13 0-.26.13h-.259.13-.13c.26-.26.13-.26 0-.13zm13.603 1.555c.13 0 .13 0 .13.13h.13c.129.129.129.129.259.129h.259l-.13-.26c-.13-.129-.26-.129-.26-.259-.129-.13-.388 0-.517-.259 0 0 0-.13-.13-.13h.13c.13.13.259.13.388.13h.13l-.13-.259c-.259 0-.259 0-.259-.13h.389l-.13-.129-.13.26c.13 0 .13 0 .13-.13h-.259c0-.13-.13-.13-.13-.13-.129 0-.129 0-.129-.13h.13s.13 0 .13.13c.129 0 .129 0 .129.13l-.13-.13-.13-.13c-.129 0-.129 0-.129-.129h.13-.13c0-.13 0-.13-.13-.13h-.647c-.13 0-.13-.13-.13-.13h-.13l.13.13h-2.721l.13.13h.26-1.296c-.13 0-.389.13-.389.13h-.13l.13.13c-.26 0-.518.129-.518.129h.259c0 .13-.13.13-.26.13h-.906c-.13 0-.13 0-.26.129h.13s.13 0 .13.13h-.26H78.9v.129h.259c-.13 0 0 .13 0 .13h.129l-.13.129-.13.13v.13h.13v.129h.26v.13h-.131.13v.259s0 .129.13.129h-.13v.259s.13.13.26.13c.129 0 .129 0 .258-.13h.26v.26c0 .129 0 .129-.13.258v.13h-.26l-.129.13c-.13 0-.13 0-.13.129l-.129.259h.26v.519l-.13.258v.13s0 .13.13.13c0 0 0 .129.129.129v.259h.13v.26h.129l.26.129.129.13v.129c0 .13 0 .13.13.13.129-.13.258-.13.258-.26s0-.13.13-.13l.13-.129v-.13s0-.129.129-.129v-.26s.26-.388.648-.776l-.13-.26h.13c.13 0 .13-.259.13-.259h.259v-.13c.129 0 .129 0 .129-.129.13-.13.13-.13.26 0 .129 0 .129-.13.129-.13s.13 0 .13-.129l.129-.13c0-.129.13-.129.13-.259v-.129l-.26-.26c.13 0 .13 0 .13.13h.259l.648-.13.13-.129.388-.388h-.778l.13-.13c.26 0 .26 0 .26-.13z" fill="#44ABA8"/><path d="M84.21 33.425l.13.13h.13l-.26-.13c0-.13 0-.13 0 0 0-.13-.13-.13 0 0zm-.777-.777l.13.13-.13-.13zm4.017 3.498l-.13-.13h-.26l-.129-.13h-.13v.26h-.129l-.13.13h-.259l.13.129v.13l-.259-.13h-.13v.13h.519v.129h-.13v.13h.26v.13h-.26s0 .129.13.129h.13l.129.13h.518v-.13s.13 0 .13-.13c.13 0 .13 0 .13-.13 0-.388 0-.388-.13-.647zm2.59 1.424l-.13-.129v-.13h-.129v.13c.13.13.13.13.26.13zm-4.145-5.181c.13 0 .13 0 .259.13.13 0 .13 0 .259.129h.13-.26l.26.13h-.002l.26.129h.259l.259.13h-.13c-.13 0-.13-.13-.259-.13 0 0-.13 0-.13-.13h-.129.389l.13.13h-.519.13-.13s-.13 0-.13-.13h-.518s.13 0 .13.13h-.389.13-.389s.13.13.26.13h-.39l.519-.648c.13-.13.13-.13 0 0 0-.13 0-.13 0 0zm.777 0c.13 0 .13 0 0 0 .13 0 .13 0 0 0 .13 0 .13 0 0 0zm.648 0c.13.13.13.13 0 0zm.259 0s-.13 0 0 0c-.13 0-.13 0 0 0h-.13.13c-.13 0 0 .13 0 0 0 .13 0 .13 0 0zm-.777-.129s0-.13 0 0zm2.073 1.165c-.13-.13-.13-.13 0 0l-.13-.13.13.13zm-2.203.907l.13.13-.13-.13.13.13-.13-.13c.13 0 .13 0 0 0 .13 0 .13 0 0 0 .13 0 .13 0 0 0 .13 0 .13 0 0 0zm4.794 3.628c.13-.13.13-.13 0 0zm-.389 1.554c.13.13.13 0 0 0 .13 0 .13 0 0 0v-.259c0-.13 0-.13-.13-.13l.13.13c.13 0 0 .13 0 .13-.13-.13-.13-.13 0 .13 0-.13 0-.13 0 0z" fill="#44ABA8"/><path d="M91.207 39.385l.13.13v.388l.129.13v-.26.26h.13v-.13s0 .13.129.13c0 0 0 .129.13.129v-.13.26l.129.13h.13v.259c.13.129.13.129.259.129 0 .13 0 .13.13.259v.13c-.13 0-.26.129-.26 0h-.13c0 .129.13.129.13.129h.13l.13.13v.518s.129.259.258.13c.13.129.13.129.26.129h.129v.13h-.26v.259l.13.13v-.13h.26v-.13l.13.13.129.13s.13 0 .13-.13h.259v-.13h.259v-.13s0-.13-.13-.13h-.13v-.647l-.13-.13c-.129 0-.388-.129-.388-.129v-.13l-.13-.13c-.258-.129-.258-.129-.388-.258-.13 0-.13 0-.26-.26l-.129-.129-.13-.13c-.129 0-.258-.129-.388-.258v-.39c0-.129 0-.129-.13-.129-.13-.13-.13-.13-.647 0-.13 0-.13-.13 0-.13v-.129c0-.13-.13-.13-.13-.13 0 .13 0 .13.13.13h-.13v.13l.13.13v-.13l.13-.13-.13.13z" fill="#44ABA8"/><path d="M91.984 42.235c.13 0 .13 0 0 0l.259-.13c.13 0 .13-.13.13-.13h.259v-.129c0-.13 0-.13-.13-.259v-.13l-.13-.259v-.13s0-.129-.13-.129l-.129-.13h-.259l-.13-.129h-.259v.26h.13v.129h-.26s0 .13.13.13v.129h.13v.26s0 .129.13.129l.13.13h.129v.388zm.776-1.555c-.129 0-.129 0 0 0l-.129.13h.13c.13 0 .13 0 0-.13 0 .13 0 .13 0 0zm7.774 6.478l-.129-.26s0 .13-.13.39c0 .129 0 .129.13.259l.129.13.13.129.13.13h.129v.258c0 .13 0 .26.13.389.259.389.388.518.388.648v.259c.13.259.259.259.259.13v-.13h.13s.13 0 0-.26c-.13-.129-.13-.388-.259-.517-.518-.778-.518-.778-.777-.907.129-.13-.26-.648-.26-.648zm-1.295 1.555c-.13-.13-.13 0-.13 0v.13c0 .129.13.129.13.129v-.26zm.129 0c.13 0 .13 0 0 0 .13.13.13.13.26.13 0-.13-.13-.26-.26-.13zm-.518.517h-.13v.26c.13 0 .13 0 .13-.26zm6.219.26c-.13-.13-.13-.13 0 0-.13-.13-.13-.13 0 0-.13 0-.13 0 0 0 0 .13 0 .13.129.13l-.129-.13z" fill="#44ABA8"/><path d="M105.069 49.62v.129s.129 0 .129.13v.13c0 .129 0 .129.13.258v-.13.26h.129v-.26l.13.13-.13-.13v-.129c-.129-.13-.259-.259-.259-.389h.13c0-.13-.13-.13-.13-.259l-.129-.13-.13-.129h-.129v.26c.388.258.388.258.259.258zm-11.272 6.477c-.259 0-.259 0-.388.26v.129c-.13.259-.13.259 0 .389l.13-.13c.129-.13.129-.13.129-.389.13-.13.13-.13.13-.259zm-1.036.777c-.13 0-.259.13-.259.13v.13h.26v-.26zm-.518.13v-.13s.13 0 .13-.129v-.13l-.13.13c0 .13-.13.13-.13.13h-.13v.13h.26zm-.778-.259l.13-.26c-.13-.129-.13-.129-.13-.258-.13.13-.13.13 0 .13-.13.388-.13.388 0 .388zm.389 0c-.13 0-.13 0-.259.13v.129h.13c.13 0 .13-.13.13-.26zm-.388.259c-.13 0-.13.13-.13.13h-.13c0 .13.13.13.13.13h.26c0-.26 0-.26-.13-.26zm.259-3.239v-.13h-.26c0 .13 0 .13.13.13h.13zm-.519-.907l-.13-.13-.129.13v.389h.13c.13 0 .13 0 .13-.13v-.259c0 .13 0 .13 0 0zm-4.016-2.461c0-.13-.13-.13 0 0l-.13-.13h-.259v.26h.26l.13-.13zm-1.036-.648s0-.13 0 0c-.13-.13-.13-.13 0 0-.13-.13-.13-.13 0 0-.13-.13-.26 0-.26 0l.13.13.13-.13z" fill="#44ABA8"/><path d="M85.765 49.879l-.259-.13-.13-.13c0 .13 0 .13.13.26h.648c-.389.13-.389.13-.389 0 .13 0 .13 0 0 0zm1.685 15.158h-.13c0 .259 0 .259.13.388h.129s.13 0 .13-.13c-.13-.258-.26-.258-.26-.258zm.518.388h-.26v.26c.13 0 .13 0 .26-.13s.13-.13 0-.13zm.907.389h-.13v.259l.13-.26zm-.13-.259c.13-.13.13-.26 0-.26l-.13.13s0 .13.13.13zm-.259 1.036c0-.13-.13-.13-.26-.13v.519l.13.13c.13 0 .13-.13.13-.13v-.389z" fill="#44ABA8"/><path d="M88.615 66.332v-.13s-.13.13-.13.26c0 .259 0 .259.13.259h.13v-.26l-.13-.13zm-.777.388l-.259-.129c0 .26.13.389.13.389l.13-.13v-.13zm3.757-33.424c-.13 0-.13 0-.13-.13-.129 0 0 .13.13.13-.13 0 0 0 0 0l.13.13h.13s.129 0 .129.129c-.26-.13-.389-.26-.389-.26zm1.036.518s-.13 0 0 0c-.13 0-.13-.13-.13-.13-.129 0-.258-.13-.258-.13l.388.26z" fill="#44ABA8"/><path d="M91.725 33.425l.259.13h-.13c-.13-.13-.13-.26-.13-.13 0-.13 0-.13 0 0zm19.822 21.117c0-.13-.13-.13-.13-.259v.13c.13 0 .13.13.13.13zm-17.62-20.08c.13 0 .13.13.26.13 0 0-.13 0-.26-.13.13 0 0 0 0 0zm0 0c-.13-.13-.13-.13-.26-.13h.13l.13.13-.26-.13s-.129 0-.129-.13h-.648s-.129-.129-.258-.129h-.13s-.13 0-.13-.13c0 0-.13-.13-.259-.13 0 0 .13 0 .13.13.13 0 .13.13.259.13 0 0 .13 0 .13.13 0 0 .13 0 .13.13.129 0 .258.129.388.129s.259.13.388.13c.13-.26.13-.26.389-.13z" fill="#44ABA8"/><path d="M113.878 68.405v.259c0 .13 0 .259-.129.388v-2.461c-.13-1.425-.259-3.368-.518-4.923-.259-1.425-.778-3.498-1.166-4.923 0-.13-.13-.26-.13-.389 0-.13 0-.13-.129-.259-.13-.26-.13-.26-.13-.389-.13-.13-.13-.388-.259-.647 0 0 0-.13-.13-.26 0-.13-.129-.259-.129-.388-.518-1.296-1.166-2.85-1.814-4.016l-.648-1.296c-.648-1.036-1.554-2.591-2.332-3.627-2.202-2.721-2.591-3.24-3.757-4.405-2.591-2.462-4.793-4.405-9.457-6.867h-.13.13s-.13 0-.13-.13h-.259c.13 0 .13.13.26.13 0 0 .129 0 .129.13h.13s.129 0 .129.13l.259.129h.13-.13c-.13-.13-.13-.13-.26-.13l.13.13s.13 0 .13.13l.13.13s.129 0 .129.129l-.13-.13h-.259.13c.13 0 .13.13.259.13.13 0 .13.13.26.13l.129.129h.13l.129.13.13.129h-.13l-.26-.518h-.129l-.13-.13-.129-.13h-.26.13c.39.13.39.13.648.39l.389.129c.13.13.13.13.259.13-.26-.13-.26-.13-.389-.13h.13l.13.13.129.129.13.13c.259.129.259.129.388.258h-.518.13c.13.13.259.13.388.13h.26c-.13 0-.13-.13-.26-.13h-.13c-.129 0-.129 0-.258-.129h-.26c-.13-.13-.259-.13-.388-.26h-.389s-.13 0-.13-.129h.39c.129 0 .129 0 .258.13h.13l-.13-.13c-.13-.13-.13-.13-.388-.259-.26-.13-.389-.13-.389-.13h-.26c-.258-.129-.388-.129-.647-.258h-.13.13s-.13 0-.13-.13c-.129-.13-.129-.13-.258-.13h-.13l-.13-.13h-.389c-.129 0-.129 0-.258-.129l.13.13-.13-.13h-.26l.13.13s.13 0 .13.13c0 0-.13 0-.13-.13l.26.259c-.13-.13-.26-.13-.39-.26l.13.13h-.13s.13 0 .26.13h-.13l.13.13-.13-.13s-.13 0-.13-.13h-.13.13l.13.13h.13l.13.13-.13-.13h-.13c.13.13.13.13.26.13 0 0-.13 0-.13-.13l.13.13h-.13v.13h-.13l.26.258v.13l.129.13v-.26l.13.13.129.13h.13l.129.129s0 .13.13.13l.129.129h.26l.129.13h-.13c0 .13 0 .13.13.259 0 0 0 .13.13.13h-.13s0 .129.13.129c.129.13.129.13.258.13h-.13l.13.129h-.13v.259h-.129l.26.26.129.129.13.13c.129.129.129.129.259.129 0 0 0 .13.13.13h.129l.13.129.129.13h.259c0 .129.13.258.259.258.13.13.13.13.26.13.129 0 .129 0 .258.13h.13s0-.13.13-.13v-.26l-.13-.129h.13l.258.26.26.259h.13l.129.13s.13.129.259.129c.13.13.259.259.518.388l.13.13v.26c0 .129.13.129.259.258v.13l.13.13s.129 0 .129.129v-.26h-.13c0-.129 0-.129-.13-.258h.39v-.13l-.13-.13h.259l-.13-.13-.13-.129v-.13l-.129-.129v.13l-.388-.389-.26-.259v-.13c0-.13-.13-.13-.259-.259 0 0-.13 0-.13-.13-.129-.129-.129-.129-.258-.129 0 0-.13 0-.13-.13h-.13l-.259-.258-.13-.13-.129-.13-.13-.129-.129-.13v-.389l-.13-.129h-1.554s-.13-.13-.26-.13l-.129-.129v-.13h.26c.129 0 .129.13.259.13h.13s-.13 0-.13-.13h.13c.129.13.129.13.129.26l.13.13v.129l.129.13.13.129s.129.13.258.13h.13c.13 0 .13.129.26.129l.129.13c.13.13.13.13.259.13h.13c.129 0 .258 0 .388.129v-.13h.13l.13.13h.129v.13c-.13-.13-.13-.13-.26-.13v.13l.13.129h-.13v.259c0 .13 0 .13.13.13l.648.906v-.13l-.13-.129c.13 0 .13.13.26.13l.129.13.13.129.259.259s-.13 0-.26-.13c-.129-.13-.129-.13-.259-.13v.26l.13.13v.13l.389.388c.13 0 .13.13.259.259l.13.13-.13.129c0 .13.13.13.13.259h-.13l-.13-.13h-.259l-.259.39-.13.129h-.13l-.129-.13-.13-.13v.13l-.129.13v.13h-.13v-.13l-.129-.13c-.13 0-.13 0-.389-.13L96 40.68c0-.13-.129-.26-.129-.389 0-.13 0-.13-.259-.259l-.13-.13c0-.129-.129-.129-.129-.258l-.13-.13v.389c0 .13 0 .13.39.518l.129.13.388.388.13.13h.13v.13h.13l.129.129v.13l-.13-.13h-.13v.13H96v.259c0 .129.13.259.13.518v.13l-.13.129-.129.13-.13.129h-.129c0 .259 0 .259-.13.777 0 0 0 .13.13.13h-.518c0 .13.13.13.26.259l.129.13v.129h-1.037v.13l.26.259v.13h.259l.259.129h.13c0 .13 0 .13.258.13v.129c0 .13 0 .13.13.259 0 0 .13 0 .13.13.129 0 .129 0 .388.388.13.13.13.389.13.518.13.13.13.26.13.519v.13H96l-.129-.39h-1.555c-.129 0-.129.13-.129.26h-.13l-.129.13c0 .129.13.129.13.258 0 .13 0 .13.259.907.13.26.13.389 0 1.037 0 .13 0 .13.13.518.129.13.129.13.258.13v.259c0 .259.13.388.13.647v.13s.13 0 .13-.13h.259c.13 0 .13 0 .13-.13v-.129h.129c.13 0 .259.13.259.26v.129s.259.518.518.389l.13-.13v-.13l.13-.13h.647c.13 0 .13 0 .389-.129.13-.13 0-.259.13-.388 0-.13.129 0 .258 0v-.649l.13-.129v-.259l-.13-.13s-.13-.129-.13-.258c-.258-.39.13-.648 0-1.037l.13-.13c.13 0 .13 0 .26-.129 0-.13 0-.13.258-.389 0-.13-.13-.259-.259-.388-.13-.26-.13-.26-.13-.389 0-.13 0-.13.13-.26l.778.13s0-.13.13-.13h.129v-.388c0-.13 0-.13.13-.259l.129.13c.13.13.13.13.259.13l.13.129c.129.13.129.13.129.259v.259s.13 0 .13.13v-.13h.129l.13.13v.389l.129.129.13.13h.259s.13 0 .13.129l.129.13h.13v.259h.129l.13.13.129.129h.13l.129.13c0 .129.13.129.13.258v.26l.13.129v.13s0 .13-.13.13h-.13l-.129.129h-.389v.13c0 .129 0 .129.13.258h.129l.259.13.13.13c.13.129.13.129.13 0l1.425.647.129.13h.13v-.26c0-.129 0-.129-.13-.258-.129-.13-.129-.13-.129-.39v-.388c-.13-.389-.13-.389-.259-.389l-.13-.129c0-.13 0-.26-.13-.26l.13.13c.13.26.13.26.259.26 0-.13-.129-.26-.389-.519l-.129-.13-.13-.129s-.129 0-.129-.13l-.389-.258v-.13c-.129-.13-.129-.13-.259-.13h-.259c-.259-.259-.259-.259-.389-.259l-.259-.259-.259-.259-.648-.518h-.129v-.13l-.13-.13c0-.129 0-.129-.13-.258v-.26c.13.13.26.13.26.26l.129.13v-.13s.13.13.259.13l.259.258v.26h.13l.13.129.129.13c.13 0 .13.13.13.13l.129.129.518.13.26.258c.129.13.259.26.388.26v.389c0 .129.13.129.13.258.129.26.129.26.388.389 0 .13.13.259.389.389l.13.13c.129.129.129.129.259.388 0 .13.129.13.129.13h.389l.13.129h.259v-.13l-.13-.13.13.13c0-.13 0-.13-.259-.259l1.166-.13-.13-.129s-.13-.13-.13-.259l-.259-.26-.129-.129c-.13-.13-.13-.259-.259-.259l.129.13v-.389h.259l.259.26v.129c0 .13 0 .13.26.388v.13l.129.13h.13v-.13c-.13-.13-.13-.13-.13-.26.13.13.13.13.259.39v.13h-.129c0 .258.129.258.129.388v-.13h.389-.13v.13s0 .13.13.13h.129s.13.129.13.258v.649c0 .129 0 .129.129.388v-.519l.13.13v-.13l.518.13.13.13h.129v-.13c0-.13 0-.13-.129-.259v-.13c.129 0 .129.13.259.26v.13l.129.129h.13v-.13c-.13-.259-.13-.259-.13-.389l.13.13v-.13l.13.13v.648l.129.13.13.129c.129.26.129.26.129.389 0 .13 0 .13.13.518v.259c0 .13.129.26.129.389v.13c.13.258.13.258.13.388.129.389.129.518.129.648 0 0-.129-.13-.129-.26h-.259v.39c-.13 0-.259-.13-.259-.13h-.13c-.129 0-.259-.13-.259-.13h-.13c-.129-.13-.129-.259-.259-.259h-.129l-.13-.13h-.129c0-.13-.259-.259-.389-.388 0 0-.13 0-.13-.13h-.129v.13s-.13.13-.13.259v.259c0 .13 0 .13.259.648v.647h-.129c-.13-.13-.259-.259-.389-.259-.259-.13-.647-.13-.907-.388-.259-.26-.259-.648-.647-.778h-.13c-.129 0-.259-.13-.259-.13-.13 0-.13 0-.777-.258h-.13s0-.13-.129-.13l-.26-.13h-.129c-.13-.129-.13-.129-.13-.518v-.259c0-.13 0-.259-.129-.259 0 0 0-.13-.13-.13-.129-.258-.129-.258-.259-.258-.129-.13-.129-.13 0-.26v-.259s0-.13-.129-.13l-.13.13-.13-.13s-.129 0-.129-.129c-.259 0-.389.26-.518.389v-.13s-.13 0-.13-.13l-.129.13h-.26v.13h-.129v.389l-.13-.13-.129-.13h-.519c-.129.13-.259.13-.388.13-.389.13-.389.13-.518.13-.13 0-.13.13-.26.259v.13h-.129c0 .129-.13.129-.13.258v.13l-.13.13c-.129 0-.258 0-.258.129l-.13-.13-.259-.388h-.519c-.129-.13-.129-.13-.388-.26 0 0-.13-.129-.259-.129 0 0 0 .13-.13.13v.906c0 .13 0 .13-.259.519-.388.388-.518.388-.647.648-.13.259 0 .388-.13.647-.13.13-.13.13 0 .518 0 .26.13.26.13.39v.129c-.13.259-.13.388-.26.648v.129l-.129.13c-.13.13-.26.259-.389.518-.13.13-.13.13-.647.259-.13.13-.13.13-.39 1.036-.258.13-.258.13-.388.26l-.13.777v.259c0 .13 0 .259-.258.648l-.13.13-.13.388s0 .13-.13.13c-.129.259-.129.259-.129.388v.13c-.259.13-.259.259-.259.388 0 .13 0 .26-.13.389v.389c0 .13 0 .13.13.259l.13-.13.13.13v.13l.129.129c0 .259-.13.389-.13.389v.389c.13.129.13.258.13.388.13.259 0 .648 0 .907 0 .388-.26.648-.26 1.036 0 .26 0 .389-.258.778-.26.259-.26.259 0 .647.13.13.13.26 0 .389v.26l.13.129c.129.259-.13.518 0 .777h.129l.13.13.129.13h.389v.259c0 .129.13.258.259.388.13.13.13.13.13.259 0 .13.129.26.129.26s.13.129.259.129h.13v.259c0 .13.129.259.129.388v.519c0 .13.13.13.13.13h.13v.129l.129.13v.259l.13.129.129.13c.259 0 .259 0 .388.388l.26.389.13.13.776.777c.13.259.13.388.39.518 0 0 .129.13.258.13.389-.13.389-.26.648-.39.26-.258.389-.258.518-.258.13 0 .778-.13.907-.13.13 0 .26.13.389.13.259.13.259.13.388.13l.26-.26c.129 0 .129-.13.259 0l.129-.13c0-.129.13-.129.259-.258.13-.13.259-.13.389-.26h.13l.259-.259c.259-.13.388-.13.388-.13h.778c.518.39.259 1.037.518 1.426 0 0 .129.13.259.13h.259s0-.13.13-.13l.129.13c.259-.13.259-.13.389-.13h.259v.259c0 .13 0 .13.13.259l.129.13v.518c0 .13-.129.777-.259 1.166 0 .13-.13.13-.13.259h.13-.13v.259l.13.13v.518c-.13.13-.13.13-.13.388 0 .13-.129.26-.129.39v.517c0 .648 0 .648.129.907.26.778.26.778.26 1.296v.518s0 .13-.13.13v.518c-.13.388 0 .907-.13 1.295 0 .13 0 .13-.129.26l-.13.129-.129.518c0 .13 0 .389-.13.518v.26c0-.13-.129-.13-.388.259l-.389.388c-.13.13-.13.13-.13.26l-1.295 1.943c-.13.259-.259.388-.389.647 0 .13-.129.13-.129.26s0 .13-.13.518c0 0 0 .13-.13.259-.129.259-.129.259-.129.518 0 .13-.13.13-.13.26-.129.258-.129.258-.129.388s0 .259-.259.777v.13s-.13.13-.13.259c-.13.259-.389.518-.518.777 0 .13-.13.13-.13.26l-.518.647-.13.13-.259.259s-.259.388-.259.518c-.259.389-.388.518-.518.777-.13.13-.259.389-.518.648l-.648.648h-.13v.259l-.129.13-.13.13v.129c.13 0 .13 0 .26-.13s.259-.13.388-.13h.13l.13-.129s.129 0 .129-.13h.13l.259-.13c.388-.129.906-.517 1.165-.647.26-.13.39-.259.648-.389.26-.13.389-.259 1.037-.777 1.554-1.295 1.554-1.295 2.073-1.814l.129-.13c.259-.258.518-.388.518-.388.13 0 .26-.13.389-.259.13 0 .13-.13.259-.13l.389-.388.129-.13c.26-.259.26-.388.648-.777 0-.13.13-.13.13-.26.129-.129.259-.258.259-.388.129-.13.129-.13.129-.259.13-.13.13-.13.389-.518h.13c.129-.13.259-.26.259-.389l.129-.13c.13-.129.259-.258.259-.388l.259-.26.26-.258.129-.13.13-.13.259-.258c0-.13 0-.13.129-.26.389-.388.389-.388.648-1.036.13-.13.13-.13.13-.26l.388-.777c.259-.388.259-.388.648-1.166.13-.129.13-.129.13-.259l.259-.518c0-.13 0-.13.259-.648.129-.13.129-.13.129-.259 0-.13.13-.259.26-.518v-.259c0-.13 0-.13.129-.26 0 0 .13-.258.13-.517v-.13c0-.13 0-.13.129-.389.13-.259.13-.388.259-.647 0-.13.13-.26.13-.26.129-.259.389-.906.389-.906l.129-.26c0-.129.13-.259.13-.388 0-.13 0-.13.259-.648 0-.13.129-.259.129-.259.13-.389.259-.648.389-1.425h-.13.13c.13-.648.259-1.037.389-1.555.129-.648.388-2.073.388-2.073.13-1.295.259-2.72.259-3.886z" fill="#44ABA8"/><path d="M105.846 49.749l.13.13v-.13h-.13c0-.13 0-.13 0 0zm-1.296 42.235l-.388.388-.13.13-.129.13-.13.129c0 .13-.129.13-.129.26l.129-.13c.259-.39.648-.778 1.037-1.166l-.13.13s-.13 0-.13.129zm3.369-4.405c.129-.13.129-.13.129-.26v-.129s0-.13.13-.13l-.259.519zm-2.98 3.887c.259-.39.259-.39.389-.519.259-.259.259-.259.518-.648.259-.259.259-.259.389-.518l.259-.259v-.13l.129-.129.13-.13c-.648.778-1.296 1.685-1.943 2.462l.129-.13zm2.98-3.757c0-.13 0-.13 0 0-.129 0-.129 0 0 0l-.129.13v.129c-.259.259-.259.388-.259.388-.13.13-.13.26-.26.389-.129.13-.259.259-.388.518.259-.259.388-.648.648-.907l.388-.647c0-.13 0-.13 0 0zM91.336 33.166h.13c0 .13-.26 0-.13 0-.13 0-.13 0 0 0z" fill="#44ABA8"/><path d="M91.466 33.296s-.13 0-.13-.13l.13.13zm.129 0s.13 0 0 0c.13.13.13.13 0 0 .13.13 0 0 0 0zm-3.239-1.166c-.13-.13-.13-.13 0 0-.13-.13.13 0 0 0 .13 0 0 0 0 0z" fill="#44ABA8"/><path d="M90.818 33.166c.13 0 .13.13.13.13h.518s.129 0 .129.129h.13c.13 0 .13 0 .259.13l.13.13h.129-.13l.13.129h.259l-.13-.13s-.13 0-.13-.13c-.129 0-.129-.129-.258-.129 0 0-.13 0-.13-.13h-1.037v-.13c.13 0 .13 0 0 0 .13 0 .13-.129 0 0l-.129-.129h-.907.26c.129.13.129.13.258.13h.13c.13 0 .13 0 .26.13l.129-.13zm2.591 1.296l.13.13h.129l-.13-.13h-.259.13zm-5.312-2.332c-.13-.13-.26-.13-.26-.13h-.388.519-.13.259-.13c0 .13 0 .13.13.13h-.26.26zm-.777-.26s.13 0 0 0-.13-.13 0 0c-.13 0 0 0 0 0z" fill="#44ABA8"/><path d="M87.709 32.13c-.13-.13-.26-.13-.26-.13h-.13.26-.13.26c-.13.13-.13.13 0 .13-.13 0-.13 0 0 0h-.13.13c.129 0 .129 0 0 0l.129.13-.13-.13c.13 0 .13.13.26.13l-.26-.13zm-.519-.26h.13c.13.13 0 0-.13 0 .13 0 0 0 0 0zm9.588 7.126c0-.13-.13-.13 0 0l-.13-.13.13.13c-.13.13-.13.13 0 .13h.13v-.13h-.13zm.259 1.166l.13.13-.13-.13c0-.13 0-.13 0 0z" fill="#44ABA8"/><path d="M102.219 79.287l-19.304-2.461 3.239 5.053c-30.057 21.894-46.77-4.017-46.77-4.017 10.754 35.628 44.05 19.304 52.989 13.863l3.757 5.96 6.089-18.398z" fill="#fff"/></g><defs><clipPath id="a"><path fill="#fff" d="M0 0h128v128H0z"/></clipPath></defs></svg>