<svg width="128" height="128" viewBox="0 0 128 128" fill="none" xmlns="http://www.w3.org/2000/svg"><path d="M64 128c35.346 0 64-28.654 64-64 0-35.346-28.654-64-64-64C28.654 0 0 28.654 0 64c0 35.346 28.654 64 64 64z" fill="#025A82"/><path opacity=".3" d="M35.627 85.765l.26-4.793v-.519a17.411 17.411 0 0 0 3.109-1.554c.388-.13.777 0 1.036.13l4.276 2.202c.388.388 1.036.259 1.425-.13l2.98-3.886c.388-.39.258-1.037-.13-1.425l-3.239-3.499c-.13-.129-.26-.259-.26-.388.52-1.037.778-2.203 1.037-3.239.13-.389.518-.518.907-.648l4.535-1.425c.518-.13.906-.648.906-1.166l-.647-4.923c-.13-.518-.648-.907-1.166-.907l-4.794-.259h-.518a17.418 17.418 0 0 0-1.555-3.11c-.13-.388 0-.777.13-1.036l2.202-4.275c.389-.389.26-1.036-.13-1.425l-3.886-2.98c-.389-.389-1.036-.259-1.425.13l-3.627 3.239c-.13.13-.26.259-.39.259-1.036-.519-2.202-.778-3.238-1.037-.389-.13-.518-.518-.648-.907l-1.425-4.534c-.13-.518-.648-.907-1.166-.907l-4.794.648c-.518.13-.906.648-.906 1.166l-.26 4.793v.519a17.408 17.408 0 0 0-3.109 1.554c-.388.13-.777 0-1.036-.13l-4.275-2.202c-.39-.388-1.037-.259-1.426.13l-2.98 3.886c-.388.39-.258 1.037.13 1.425l3.24 3.628c.129.13.258.26.258.389-.518 1.036-.777 2.202-1.036 3.239-.13.388-.519.518-.907.647L8.55 63.87c-.518.13-.906.648-.906 1.167l.777 4.922c.13.519.648.907 1.166.907l4.793.26h.519a17.412 17.412 0 0 0 1.554 3.109c.13.389 0 .777-.13 1.036l-2.202 4.276c-.388.388-.259 1.036.13 1.425l3.886 2.98c.39.388 1.037.258 1.426-.13l3.627-3.239c.13-.13.26-.26.389-.26 1.036.52 2.202.778 3.239 1.037.388.13.518.519.647.907l1.425 4.535c.13.518.648.906 1.166.906l4.794-.647c.518-.26.907-.778.777-1.296zM23.19 66.073c-.518-3.887 2.202-7.385 5.96-7.903 3.886-.518 7.384 2.203 7.903 5.96.518 3.886-2.203 7.384-5.96 7.902-3.887.648-7.385-2.072-7.903-5.96zm79.676 6.089l.13-4.016v-.389c.907-.389 1.814-.777 2.591-1.296.259-.129.648 0 .907.13l3.498 1.814c.389.259.907.259 1.166-.13l2.461-3.239c.26-.388.26-.907-.129-1.166l-2.721-2.98c-.129-.129-.259-.129-.259-.258.389-.907.648-1.814.907-2.721.13-.26.389-.518.777-.518l3.757-1.166c.519 0 .778-.518.778-.907l-.518-4.016c0-.519-.519-.778-.907-.778l-4.017-.13h-.388c-.389-.906-.778-1.813-1.296-2.59-.129-.26 0-.648.13-.907l1.814-3.498c.259-.389.259-.907-.13-1.166l-3.239-2.462c-.389-.259-.907-.259-1.166.13l-2.98 2.72c-.129.13-.129.26-.259.26-.907-.39-1.813-.648-2.72-.907-.259-.13-.519-.389-.519-.778l-1.166-3.757c0-.518-.518-.777-.906-.777l-4.017.518c-.518 0-.777.518-.777.907l-.13 4.016v.389c-.906.389-1.813.777-2.59 1.295-.26.13-.648 0-.907-.13l-3.498-1.813c-.39-.259-.907-.259-1.167.13l-2.461 3.239c-.26.388-.26.906.13 1.165l2.72 2.98c.13.13.26.13.26.26-.39.906-.649 1.813-.908 2.72-.13.26-.388.518-.777.518l-3.757 1.166c-.518 0-.777.518-.777.907l.518 4.016c0 .519.518.778.907.778l4.016.13h.389c.388.906.777 1.813 1.295 2.59.13.26 0 .648-.13.907l-1.813 3.498c-.26.389-.26.907.13 1.166l3.238 2.462c.389.259.907.259 1.166-.13l2.98-2.72c.13-.13.13-.26.26-.26.906.39 1.813.648 2.72.907.259.13.518.389.518.778l1.166 3.757c0 .518.518.777.907.777l4.016-.518c.518 0 .907-.518.777-.907zM92.502 55.968c-.389-3.11 1.814-6.09 4.923-6.478 3.109-.389 6.089 1.814 6.478 4.923.388 3.11-1.814 6.089-4.923 6.478-3.11.388-5.96-1.814-6.478-4.923z" fill="#025A82"/><path d="M78.121 106.364h-43.66V25.911h60.373v63.87L78.12 106.364z" fill="#fff"/><path d="M78.122 89.652h16.712l-16.712 16.712V89.652z" fill="#fff"/><path d="M78.77 32.259H50.785v5.312h27.983v-5.312zm0 20.341H50.785v4.404h27.983v-4.405zm0-9.977H50.785v4.405h27.983v-4.405zM51.951 79.935H40.81v5.182h11.14v-5.182zm0 12.697H40.81v5.182h11.14v-5.182zm35.758-12.697H76.567v5.182h11.142v-5.182zM64.644 61.983l-7.878 7.878 7.878 7.879 7.878-7.879-7.878-7.878z" fill="#FA7564"/><path d="M64.648 67.368c-.26 0-.519-.259-.519-.518V34.98c0-.26.26-.518.519-.518s.518.259.518.518v31.87c0 .26-.26.518-.518.518zm18.137 2.979H46.381c-.26 0-.519-.258-.519-.517 0-.26.26-.518.518-.518h36.405c.26 0 .519.259.519.517 0 .26-.26.518-.519.518z" fill="#FA7564"/><path d="M46.38 95.611c-.259 0-.518-.259-.518-.518V69.83c0-.26.26-.518.518-.518.26 0 .519.259.519.518v25.263c0 .389-.13.518-.519.518zm36.405-12.178c-.259 0-.518-.259-.518-.518V69.83c0-.26.26-.518.518-.518.26 0 .519.259.519.518v13.085c0 .388-.26.518-.519.518z" fill="#FA7564"/></svg>