<svg width="1141" height="276" viewBox="0 0 1141 276" fill="none" xmlns="http://www.w3.org/2000/svg"><path d="M1068 232.99h-95v-60h95v60zm-92.277-2.4h89.857v-55.2h-89.857v55.2z" fill="#7A97D0"/><path d="M1020.5 209.256l-46.897-34.133 1.513-1.867 45.384 33.067 45.38-33.067 1.82 1.867-47.2 34.133z" fill="#7A97D0"/><path d="M1033.67 199.229l-1.97 1.651 34.14 31.733 1.98-1.651-34.15-31.733zm-26.21-.169l-34.127 31.746 1.977 1.651 34.13-31.746-1.98-1.651zM45.623 108.123c3.117-19.6 19.634-33.6 39.267-33.6 4.052 0 7.791.622 11.531 1.867 10.284-14 26.802-22.4 43.942-22.4 20.569 0 38.956 11.2 48.305 29.244 2.181-.311 4.363-.622 6.544-.622 15.271 0 28.36 10.889 31.476 25.822l.312 1.556H45l.623-1.867zM195.524 84.79c-2.493 0-4.675.31-6.856.933l-.935.311-.623-.933c-8.726-17.734-26.49-28.623-46.435-28.623-16.829 0-32.723 8.09-42.384 22.09l-.623.933-.935-.311c-3.74-1.245-7.791-1.867-11.843-1.867-17.763 0-33.034 12.756-36.462 29.867h175.456c-3.117-13.067-14.959-22.4-28.36-22.4zM897 81.99c-13.804 0-25-11.197-25-25h1.38c0 13.036 10.583 23.62 23.62 23.62s23.62-10.584 23.62-23.62c0-13.037-10.583-23.62-23.62-23.62v-1.38c13.804 0 25 11.196 25 25 0 13.803-11.196 25-25 25zm0-3.528c-11.81 0-21.472-9.663-21.472-21.472 0-11.81 9.662-21.473 21.472-21.473s21.472 9.663 21.472 21.473h-1.38c0-11.043-9.049-20.092-20.092-20.092s-20.092 9.049-20.092 20.092S885.957 77.082 897 77.082v1.38z" fill="#7A97D0"/><path d="M893.933 65.272l-8.896-9.049.92-.92 7.976 8.129 14.264-14.264.92.92-15.184 15.184zm-645.07 183.379v-2.131c.697-.237 1.162-.71 1.627-1.183l2.093.946 3.255-4.497-1.395-1.658c.232-.71.465-1.42.465-2.13l2.092-.71-.93-5.445h-2.092c-.233-.711-.698-1.184-1.163-1.657l.93-1.894-4.417-3.315-1.628 1.421c-.697-.237-1.395-.474-2.092-.474l-.698-2.13-5.347.947v2.13c-.697.237-1.162.71-1.627 1.184l-1.86-.947-3.255 4.498 1.395 1.657c-.233.71-.465 1.42-.465 2.131l-2.093.71.93 5.445h2.093c.232.71.697 1.183 1.162 1.657l-.93 1.894 4.418 3.314 1.627-1.42c.697.236 1.395.473 2.092.473l.698 2.131 5.115-.947zm-9.765-2.131l-2.557-1.894.697-1.657-.232-.473-1.395-2.131-.233-.473h-1.86l-.465-3.078 1.628-.71v-.474c0-.947.232-1.657.465-2.604l.232-.473-1.162-1.421 1.86-2.604 1.627.711.465-.237 2.093-1.421.464-.236v-1.894l3.023-.474.697 1.657h.465c.93 0 1.628.237 2.558.474l.465.237 1.395-1.184 2.557 1.894-.697 1.657.232.474 1.395 2.13.233.474h1.86l.465 3.077-1.628.71v.474c0 .947-.232 1.657-.465 2.604l-.232.473 1.162 1.421-1.86 2.604-1.627-.71-.465.236-2.093 1.421-.465.237v1.893l-3.022.474-.698-1.657h-.465c-.93 0-1.627-.237-2.557-.474l-.465-.236-1.395 1.183zm9.997-6.392c1.86-2.84 1.395-6.628-1.395-8.522-2.79-1.894-6.51-1.42-8.369 1.42-.93 1.421-1.395 2.841-.93 4.498.232 1.657 1.162 3.078 2.324 4.025 1.163.71 2.325 1.183 3.488 1.183 1.86 0 3.72-.946 4.882-2.604zm-2.325-7.338c2.093 1.42 2.558 4.261 1.163 6.391-1.395 2.131-4.185 2.605-6.278 1.184-.93-.71-1.627-1.657-1.859-3.077-.233-1.184-.001-2.368.697-3.315.93-1.183 2.325-1.894 3.72-1.894.93 0 1.627.237 2.557.711zm-34.176 21.306l.233-4.735c1.627-.71 3.254-1.894 4.649-2.841l4.418 1.894 6.742-9.469-3.255-3.551c.698-1.657.93-3.551 1.163-5.445l4.417-1.657-1.86-11.6-4.65-.237c-.697-1.657-1.86-3.314-2.79-4.735l1.86-4.498-9.299-6.865-3.488 3.314c-1.627-.71-3.487-.947-5.347-1.183l-1.628-4.498-11.392 1.894-.232 4.734c-1.628.71-3.255 1.894-4.65 2.841l-4.418-1.894-6.742 9.47 3.255 3.551c-.698 1.657-.93 3.551-1.163 5.444L174 225.688l1.86 11.6 4.65.236c.697 1.657 1.86 3.315 2.79 4.735l-1.86 4.498 9.3 6.865 3.487-3.314c1.627.71 3.487.947 5.347 1.184l1.628 4.498 11.392-1.894zm-22.087-3.078l-6.742-4.734 1.86-4.025-.465-.71c-1.395-1.657-2.325-3.314-3.255-5.445l-.233-.71-4.417-.237-1.395-8.286 3.952-1.657v-.71c.233-2.131.698-4.261 1.395-6.155l.233-.71-3.023-3.315 4.65-6.865 3.953 1.894.465-.474c1.627-1.42 3.255-2.367 5.115-3.314l.697-.237.233-4.498 8.137-1.42 1.627 4.025h.698c2.092.236 4.185.71 6.045 1.42l.697 1.184 3.255-3.078 6.742 4.735-1.86 4.024.465.474c1.395 1.657 2.325 3.314 3.255 5.208l.233.71 4.417.237 1.395 8.286-3.952 1.657v.71c-.233 2.13-.698 4.261-1.395 6.155l-.233.71 3.023 3.314-4.65 6.866-3.953-1.894-.464.473c-1.628 1.421-3.255 2.368-5.348 3.315l-.697.236-.233 4.498-8.137 1.421-1.628-4.025h-.697c-2.093-.236-4.185-.71-6.045-1.42l-.697-.237-3.023 2.604zm22.552-16.334c4.185-5.919 2.79-14.441-3.022-18.703-2.79-2.13-6.278-2.84-9.765-2.367-3.488.71-6.51 2.604-8.602 5.445-4.185 5.918-2.79 14.441 3.022 18.702 2.325 1.657 4.882 2.367 7.672 2.367 3.953.237 8.138-1.657 10.695-5.444zm-4.417-16.809c2.325 1.657 3.952 4.262 4.417 7.339.465 3.078-.232 5.918-1.86 8.523-3.487 4.971-10.462 6.155-15.577 2.604-4.882-3.551-6.045-10.653-2.557-15.862 1.627-2.367 4.184-4.024 7.207-4.498.697 0 1.162-.236 1.86-.236 2.557 0 4.65.71 6.51 2.13z" fill="#7A97D0"/></svg>