<svg width="34" height="34" viewBox="0 0 34 34" fill="none" xmlns="http://www.w3.org/2000/svg"><g clip-path="url(#a)" fill="#fff"><path d="M7.914 10.938H1.09a.548.548 0 0 0-.548.548v21.928c0 .303.245.548.548.548h6.825a.548.548 0 0 0 .549-.548V11.486a.548.548 0 0 0-.549-.548zM4.504.038A4.507 4.507 0 0 0 0 4.537c0 2.482 2.02 4.5 4.504 4.5 2.482 0 4.5-2.019 4.5-4.5s-2.018-4.5-4.5-4.5zm20.772 10.355c-2.741 0-4.768 1.179-5.997 2.518v-1.424a.548.548 0 0 0-.548-.549h-6.537a.548.548 0 0 0-.549.549v21.927a.55.55 0 0 0 .549.549h6.81a.548.548 0 0 0 .549-.549V22.565c0-3.656.993-5.08 3.541-5.08 2.776 0 2.996 2.283 2.996 5.268v10.661a.55.55 0 0 0 .549.549h6.813a.548.548 0 0 0 .548-.549V21.387c0-5.436-1.036-10.994-8.724-10.994z"/></g><defs><clipPath id="a"><path fill="#fff" d="M0 0h34v34H0z"/></clipPath></defs></svg>