<svg width="50" height="50" viewBox="0 0 50 50" fill="none" xmlns="http://www.w3.org/2000/svg"><path d="M25 0l21.65 12.5v25L25 50 3.35 37.5v-25L25 0z" fill="#F7F9FF"/><path d="M35.468 26.717L15.95 30.16a2.591 2.591 0 0 0 .9 5.103l19.517-3.442a2.59 2.59 0 1 0-.9-5.103z" fill="url(#a)"/><path d="M34.269 19.913l-19.517 3.441a2.591 2.591 0 0 0 .9 5.104l19.517-3.442a2.591 2.591 0 0 0-.9-5.103z" fill="url(#b)"/><path d="M26.55 14.258L13.553 16.55a2.592 2.592 0 1 0 .9 5.104l12.999-2.291a2.592 2.592 0 1 0-.9-5.105z" fill="url(#c)"/><path d="M35.81 15.172a2.507 2.507 0 0 0-4.94.87l.03.165a2.507 2.507 0 1 0 4.939-.87l-.03-.165z" fill="url(#d)"/><defs><linearGradient id="a" x1="26.609" y1="33.541" x2="24.26" y2="20.216" gradientUnits="userSpaceOnUse"><stop stop-color="#304FA5"/><stop offset=".781" stop-color="#446CDB"/></linearGradient><linearGradient id="b" x1="24.51" y1="21.634" x2="25.41" y2="26.737" gradientUnits="userSpaceOnUse"><stop stop-color="#6A8EF4"/><stop offset="1" stop-color="#446CDB"/></linearGradient><linearGradient id="c" x1="20.052" y1="15.404" x2="20.952" y2="20.509" gradientUnits="userSpaceOnUse"><stop stop-color="#ABC1FF"/><stop offset="1" stop-color="#6A8EF4"/></linearGradient><linearGradient id="d" x1="32.905" y1="13.138" x2="33.805" y2="18.241" gradientUnits="userSpaceOnUse"><stop stop-color="#ABC1FF"/><stop offset="1" stop-color="#6A8EF4"/></linearGradient></defs></svg>