<svg width="182" height="50" viewBox="0 0 182 50" fill="none" xmlns="http://www.w3.org/2000/svg"><path d="M63.89 37V12.7h5.28c1.8 0 3.22.28 4.26.84 1.06.54 1.81 1.36 2.25 2.46.46 1.1.69 2.47.69 4.11v8.94c0 1.72-.23 3.17-.69 4.35-.44 1.18-1.17 2.08-2.19 2.7-1 .6-2.35.9-4.05.9h-5.55zm3.39-2.43h1.92c1.24 0 2.12-.24 2.64-.72s.83-1.18.93-2.1c.12-.92.18-2.03.18-3.33v-7.89c0-1.26-.08-2.28-.24-3.06-.16-.78-.51-1.35-1.05-1.71-.54-.36-1.39-.54-2.55-.54h-1.83v19.35zM79.71 37V12.7h5.58c1.1 0 2.05.12 2.85.36.82.24 1.5.61 2.04 1.11.54.5.94 1.14 1.2 1.92.26.76.39 1.66.39 2.7 0 1-.13 1.87-.39 2.61-.24.72-.62 1.29-1.14 1.71-.5.42-1.15.69-1.95.81.98.22 1.77.6 2.37 1.14.6.52 1.04 1.2 1.32 2.04.3.82.45 1.81.45 2.97 0 1.04-.12 1.99-.36 2.85-.24.86-.62 1.59-1.14 2.19-.5.6-1.15 1.07-1.95 1.41-.78.32-1.71.48-2.79.48h-6.48zm3.39-2.43h2.28c1.52 0 2.53-.35 3.03-1.05.52-.72.78-1.87.78-3.45 0-1.02-.14-1.87-.42-2.55-.26-.7-.69-1.22-1.29-1.56-.58-.36-1.37-.54-2.37-.54H83.1v9.15zm0-11.73h2.01c.96 0 1.71-.13 2.25-.39.54-.28.92-.72 1.14-1.32.22-.6.33-1.38.33-2.34 0-1.12-.17-1.93-.51-2.43-.34-.5-.87-.81-1.59-.93-.72-.14-1.66-.21-2.82-.21h-.81v7.62zM102.298 37V12.7h5.28c1.8 0 3.22.28 4.26.84 1.06.54 1.81 1.36 2.25 2.46.46 1.1.69 2.47.69 4.11v8.94c0 1.72-.23 3.17-.69 4.35-.44 1.18-1.17 2.08-2.19 2.7-1 .6-2.35.9-4.05.9h-5.55zm3.39-2.43h1.92c1.24 0 2.12-.24 2.64-.72s.83-1.18.93-2.1c.12-.92.18-2.03.18-3.33v-7.89c0-1.26-.08-2.28-.24-3.06-.16-.78-.51-1.35-1.05-1.71-.54-.36-1.39-.54-2.55-.54h-1.83v19.35zM118.119 37V12.7h9.42v2.52h-6.03v8.04h4.89v2.4h-4.89v8.91h6.09V37h-9.48zm17.946.27c-1.4 0-2.57-.3-3.51-.9-.92-.6-1.62-1.43-2.1-2.49-.48-1.06-.76-2.29-.84-3.69l3-.81c.06.86.19 1.69.39 2.49.22.8.57 1.46 1.05 1.98.48.5 1.15.75 2.01.75.88 0 1.54-.24 1.98-.72.46-.5.69-1.21.69-2.13 0-1.1-.25-1.98-.75-2.64-.5-.68-1.13-1.36-1.89-2.04l-4.08-3.6c-.8-.7-1.39-1.46-1.77-2.28-.38-.84-.57-1.87-.57-3.09 0-1.78.51-3.16 1.53-4.14 1.02-.98 2.41-1.47 4.17-1.47.96 0 1.8.13 2.52.39.74.24 1.35.62 1.83 1.14.5.52.89 1.18 1.17 1.98.3.78.5 1.7.6 2.76l-2.88.78c-.06-.8-.18-1.53-.36-2.19-.18-.68-.5-1.22-.96-1.62-.44-.42-1.08-.63-1.92-.63-.84 0-1.5.23-1.98.69-.46.44-.69 1.1-.69 1.98 0 .74.12 1.35.36 1.83.26.48.67.97 1.23 1.47l4.11 3.6c.92.8 1.73 1.76 2.43 2.88.7 1.1 1.05 2.41 1.05 3.93 0 1.2-.25 2.24-.75 3.12a5.06 5.06 0 0 1-2.07 1.98c-.86.46-1.86.69-3 .69zm8.63-.27V12.7h3.33V37h-3.33zm13.051.3c-1.52 0-2.74-.32-3.66-.96-.9-.66-1.56-1.61-1.98-2.85-.4-1.24-.6-2.73-.6-4.47v-8.13c0-1.78.18-3.29.54-4.53.38-1.26 1.04-2.22 1.98-2.88.96-.66 2.29-.99 3.99-.99 1.52 0 2.74.26 3.66.78.94.5 1.62 1.28 2.04 2.34.42 1.04.63 2.36.63 3.96v.9h-3.18v-.75c0-1.06-.07-1.92-.21-2.58-.14-.68-.43-1.18-.87-1.5-.42-.34-1.09-.51-2.01-.51-1 0-1.73.23-2.19.69-.44.46-.72 1.09-.84 1.89-.1.78-.15 1.67-.15 2.67v9c0 1.16.08 2.13.24 2.91.18.78.51 1.36.99 1.74.48.38 1.16.57 2.04.57.88 0 1.56-.21 2.04-.63.48-.42.81-1.04.99-1.86.18-.82.27-1.84.27-3.06v-1.68h-3.09v-2.4h6.15V37h-2.13l-.33-2.79c-.32.9-.82 1.64-1.5 2.22-.68.58-1.62.87-2.82.87zm10.265-.3V12.7h2.31l6.9 16.14V12.7h2.82V37h-2.16l-6.99-16.59V37h-2.88z" fill="#304FA5"/><path d="M25 0l21.65 12.5v25L25 50 3.35 37.5v-25L25 0z" fill="#F7F9FF"/><path d="M35.468 26.717L15.95 30.16a2.591 2.591 0 0 0 .9 5.103l19.517-3.442a2.59 2.59 0 1 0-.9-5.103z" fill="url(#a)"/><path d="M34.269 19.913l-19.517 3.441a2.591 2.591 0 0 0 .9 5.104l19.517-3.442a2.591 2.591 0 0 0-.9-5.103z" fill="url(#b)"/><path d="M26.55 14.258L13.553 16.55a2.592 2.592 0 1 0 .9 5.104l12.999-2.291a2.592 2.592 0 1 0-.9-5.105z" fill="url(#c)"/><path d="M35.81 15.172a2.507 2.507 0 0 0-4.94.87l.03.165a2.507 2.507 0 1 0 4.939-.87l-.03-.165z" fill="url(#d)"/><defs><linearGradient id="a" x1="26.609" y1="33.541" x2="24.26" y2="20.216" gradientUnits="userSpaceOnUse"><stop stop-color="#304FA5"/><stop offset=".781" stop-color="#446CDB"/></linearGradient><linearGradient id="b" x1="24.51" y1="21.634" x2="25.41" y2="26.737" gradientUnits="userSpaceOnUse"><stop stop-color="#6A8EF4"/><stop offset="1" stop-color="#446CDB"/></linearGradient><linearGradient id="c" x1="20.052" y1="15.404" x2="20.952" y2="20.509" gradientUnits="userSpaceOnUse"><stop stop-color="#ABC1FF"/><stop offset="1" stop-color="#6A8EF4"/></linearGradient><linearGradient id="d" x1="32.905" y1="13.138" x2="33.805" y2="18.241" gradientUnits="userSpaceOnUse"><stop stop-color="#ABC1FF"/><stop offset="1" stop-color="#6A8EF4"/></linearGradient></defs></svg>