<svg width="646" height="618" viewBox="0 0 646 618" fill="none" xmlns="http://www.w3.org/2000/svg"><g clip-path="url(#a)"><path d="M130.605 44.707h55.29v48.284l-8.368-8.346h-46.922V44.707z" fill="#78C2FF"/><path d="M367.157 541.7H96.534l-19.427 72.127h309.477L367.157 541.7z" fill="url(#b)"/><path d="M98.626 560.775h17.782c.747 0 1.345.596 1.196 1.192l-1.644 7.749c-.15.447-.598.745-1.196.745H96.683c-.747 0-1.345-.596-1.196-1.192l2.093-7.749c0-.447.597-.745 1.046-.745zm25.852 0h13.449l-1.793 9.686h-13.748l2.092-9.686zm20.173 0h13.3l-1.345 9.686h-13.748l1.793-9.686zm20.024 0h13.449l-1.046 9.686h-13.747l1.344-9.686zm20.024 0h13.449l-.597 9.686h-13.748l.896-9.686zm20.174 0h13.299l-.149 9.686h-13.748l.598-9.686zm160.64 0h-20.024l2.092 9.686h20.473l-2.541-9.686zm-26.748 0h-13.449l1.793 9.686h13.748l-2.092-9.686zm-20.024 0h-13.449l1.345 9.686h13.748l-1.644-9.686zm-20.174 0h-13.299l.896 9.686h13.748l-1.345-9.686zm-20.024 0h-13.449l.598 9.686h13.748l-.897-9.686zm-20.173 0h-13.299l.299 9.686h13.598l-.598-9.686zm-33.473 0h13.449l.149 9.686h-13.598v-9.686zM92.798 577.764h27.944l-1.644 9.984H90.706l2.092-9.984zm277.049 0h-34.519l1.943 9.984h35.266l-2.69-9.984zm-41.393 0h-13.897l1.644 9.984h14.047l-1.794-9.984zm-20.771 0h-13.897l1.195 9.984h14.196l-1.494-9.984zm-20.772 0h-13.897l.897 9.984h14.046l-1.046-9.984zm-20.771 0h-13.747l.298 9.984h14.197l-.748-9.984zM88.614 595.497h28.542l-2.092 9.985h-29.14l2.69-9.985zm35.714 0h14.346l-1.793 9.985h-14.495l1.942-9.985zm21.519 0h107.144l.448 9.985H144.203l1.644-9.985zm114.316 0h14.346l.747 9.985h-14.495l-.598-9.985zm21.519 0h14.345l1.046 9.985h-14.495l-.896-9.985zm21.369 0h14.345l1.644 9.985h-14.644l-1.345-9.985zm21.518 0h14.345l1.943 9.985h-14.644l-1.644-9.985zm21.518 0h28.542l2.54 9.985h-28.99l-2.092-9.985zm-100.718-17.733h-13.598v9.984h13.897l-.299-9.984zm-20.622 0H210.85l-.448 9.984h14.196l.149-9.984zm-20.771 0h-13.897l-.747 9.984h14.046l.598-9.984zm-20.771 0h-13.897l-1.196 9.984h14.196l.897-9.984zm-20.771 0h-13.898l-1.494 9.984h14.047l1.345-9.984zm-20.772 0h-13.748l-2.092 9.984h14.196l1.644-9.984zm-42.289-23.099l2.242-8.643h6.425l-2.092 8.643h-6.575zm15.242-8.643h13.001l-1.793 8.643h-13.3l2.092-8.643zm19.427 0h13l-1.494 8.643h-13.15l1.644-8.643zm19.575 0h13.001l-1.195 8.643h-13.151l1.345-8.643zm19.427 0h13l-.747 8.643h-13.15l.897-8.643zm19.575 0h13.001l-.448 8.643h-13.3l.747-8.643zm19.426 0h13.001v8.643h-13.299l.298-8.643zm19.577 0h13l.15 8.643h-13.15v-8.643zm19.426 0h13.001l.597 8.643h-13.15l-.448-8.643zm19.576 0h13l.897 8.643h-13.15l-.747-8.643zm19.426 0h13l1.345 8.643h-13.299l-1.046-8.643zm19.575 0h13.001l1.644 8.643h-13.3l-1.345-8.643zm19.577 0h13l1.794 8.643h-13.151l-1.643-8.643zm19.426 0h13.001l2.241 8.643h-13.15l-2.092-8.643z" fill="#fff"/><path d="M386.584 613.827H77.107v4.322h309.477v-4.322z" fill="url(#c)"/><path d="M211.563 517.788h42.589V388.734h-42.589v129.054z" fill="#518AFA"/><path d="M61.865 450.945H403.62c7.173 0 13.001-5.812 13.001-12.965V205.205c0-7.153-5.828-12.965-13.001-12.965H61.865c-7.172 0-13 5.812-13 12.965v232.924c.15 7.004 5.828 12.816 13 12.816z" fill="url(#d)"/><path d="M62.015 403.853H403.02V204.907H62.015v198.946z" fill="url(#e)"/><path d="M221.012 428.889c0 6.557 5.38 11.773 11.805 11.773 6.576 0 11.806-5.365 11.806-11.773 0-6.557-5.38-11.773-11.806-11.773-6.575 0-11.805 5.365-11.805 11.773z" fill="#696969"/><path d="M328.604 512.939H137.03v9.686h191.574v-9.686z" fill="url(#f)"/><path d="M119.845 220.108H81.59v3.874h38.255v-3.874zm38.255 29.357h-27.645v3.875H158.1v-3.875z" fill="#E0E0E0"/><path d="M180.515 249.465h-18.231v3.875h18.231v-3.875zm37.358 118.027h-18.23v3.874h18.23v-3.874zM100.27 323.381H82.04v3.874h18.23v-3.874z" fill="#1487E3"/><path d="M228.483 249.465h-44.232v3.875h44.232v-3.875zm-118.052 59.162H82.039v3.875h28.392v-3.875zm76.211 29.507H158.25v3.875h28.392v-3.875zm106.098 29.358h-28.392v3.874h28.392v-3.874zm-153.916-29.358h-17.335v3.875h17.335v-3.875z" fill="#E0E0E0"/><path d="M116.409 338.134h-34.37v3.875h34.37v-3.875z" fill="#1487E3"/><path d="M101.017 352.738H82.039v3.875h18.978v-3.875z" fill="#E0E0E0"/><path d="M154.215 220.108h-27.048v3.874h27.048v-3.874z" fill="#78C2FF"/><path d="M154.215 264.218h-27.048v3.875h27.048v-3.875z" fill="#1487E3"/><path d="M125.225 278.972h-11.656v3.875h11.656v-3.875z" fill="#E0E0E0"/><path d="M128.064 293.874h-26.001v3.875h26.001v-3.875z" fill="#78C2FF"/><path d="M167.814 293.874H131.95v3.875h35.864v-3.875zm113.868 58.864h-35.864v3.875h35.864v-3.875zm-172.596-73.766H82.039v3.875h27.047v-3.875zm-10.908 14.902H82.039v3.875h16.139v-3.875z" fill="#1487E3"/><path d="M145.847 278.972h-15.242v3.875h15.242v-3.875zm-48.117 88.52H82.487v3.874H97.73v-3.874z" fill="#FF8761"/><path d="M108.937 249.465H81.889v3.875h27.048v-3.875zm23.909 73.916h-27.047v3.874h27.047v-3.874zm.448 29.357h-27.047v3.875h27.047v-3.875zm48.118 0h-27.048v3.875h27.048v-3.875zm-60.82-88.52H81.889v3.875h38.703v-3.875zm169.458-44.11h-27.048v3.874h27.048v-3.874zm-96.534 147.384h-27.047v3.874h27.047v-3.874zm123.133-147.384h-18.082v3.874h18.082v-3.874zm61.417 14.753h-18.081v3.874h18.081v-3.874z" fill="#78C2FF"/><path d="M196.056 220.108h-34.519v3.874h34.519v-3.874zm137.03 147.384h-34.519v3.874h34.519v-3.874zm-195.159 0h-34.519v3.874h34.519v-3.874zm192.769-132.631h-34.519v3.874h34.519v-3.874zm-42.29 14.604h-34.519v3.875h34.519v-3.875zM258.37 367.492h-34.519v3.874h34.519v-3.874zm-5.379-29.358h-34.519v3.875h34.519v-3.875zm-9.564-73.916h-34.519v3.875h34.519v-3.875z" fill="#1487E3"/><path d="M151.824 338.134h-7.471v3.875h7.471v-3.875z" fill="#FF8761"/><path d="M317.247 249.465H292.74v3.875h24.507v-3.875z" fill="#78C2FF"/><path d="M256.278 220.108h-34.519v3.874h34.519v-3.874zm-53.646 44.11h-20.323v3.875h20.323v-3.875zm-15.84 59.312h-20.323v3.874h20.323v-3.874z" fill="#FF8761"/><path d="M215.184 220.108h-12.702v3.874h12.702v-3.874zm-40.945 44.11h-12.702v3.875h12.702v-3.875zm177.527-29.357h-12.702v3.874h12.702v-3.874z" fill="#E0E0E0"/><path d="M101.316 234.861H81.59v3.874h19.726v-3.874zm48.715 73.766h-15.69v3.875h15.69v-3.875zm-37.358-73.766h-6.426v3.874h6.426v-3.874z" fill="#1487E3"/><path d="M290.05 234.861H237.3v3.874h52.75v-3.874zm-50.658 117.877h-52.75v3.875h52.75v-3.875z" fill="#E0E0E0"/><path d="M123.88 234.861h-6.575v3.874h6.575v-3.874z" fill="#FF8761"/><path d="M232.518 234.861h-17.334v3.874h17.334v-3.874z" fill="#1487E3"/><path d="M249.852 249.465h-17.334v3.875h17.334v-3.875zm-38.553 88.669h-17.335v3.875h17.335v-3.875zm-50.36 29.358h-17.334v3.874h17.334v-3.874z" fill="#FF8761"/><path d="M210.552 234.861h-36.761v3.874h36.761v-3.874zm85.625 103.273h-36.761v3.875h36.761v-3.875zM161.089 323.53h-21.518v3.874h21.518v-3.874zm-12.104 29.208h-10.759v3.875h10.759v-3.875z" fill="#1487E3"/><path d="M168.71 234.861h-12.702v3.874h12.702v-3.874z" fill="#78C2FF"/><path d="M299.166 352.738h-12.702v3.875h12.702v-3.875zM126.122 249.465H113.42v3.875h12.702v-3.875zm2.54 59.162H115.96v3.875h12.702v-3.875z" fill="#FF8761"/><path d="M151.077 234.861H129.11v3.874h21.967v-3.874z" fill="#1487E3"/><path d="M455.472 237.394c1.495-9.388 9.414-16.094 18.829-16.094 1.942 0 3.736.298 5.529.894 4.931-6.706 12.851-10.73 21.07-10.73 9.863 0 18.679 5.365 23.162 14.008 1.046-.149 2.092-.298 3.138-.298 7.322 0 13.599 5.216 15.093 12.369l.149.745h-87.269l.299-.894zm71.878-11.177a11.65 11.65 0 0 0-3.288.448l-.448.149-.299-.448c-4.184-8.494-12.702-13.71-22.266-13.71-8.069 0-15.69 3.875-20.323 10.581l-.298.447-.449-.149c-1.793-.596-3.736-.894-5.678-.894-8.518 0-15.84 6.11-17.484 14.306h84.131c-1.494-6.259-7.173-10.73-13.598-10.73z" fill="#6AAFE8"/><path d="M397.193 302.517h95.937v-70.339h-1.345v68.998h-94.592v1.341z" fill="#78C2FF"/><path d="M487.601 228.006c0-2.683 2.092-4.769 4.781-4.769 2.69 0 4.782 2.086 4.782 4.769 0 2.682-2.092 4.768-4.782 4.768-2.689 0-4.781-2.086-4.781-4.768zm1.345 0c0 1.937 1.494 3.427 3.436 3.427 1.943 0 3.437-1.49 3.437-3.427 0-1.938-1.494-3.428-3.437-3.428-1.793 0-3.436 1.49-3.436 3.428zm-156.158-12.22h-1.345v-93.14h70.084v-60.95h1.345v62.291h-70.084v91.799z" fill="#78C2FF"/><path d="M445.46 86.135h-11.207v-1.192h9.863V74.96h1.344v11.176zm-75.313 0h-11.208V74.96h1.345v9.984h9.863v1.192zm-9.863-74.958h-1.345V0h11.208v1.341h-9.863v9.836zm85.176 0h-1.344V1.34h-9.863V0h11.207v11.177zm.001 16.69h-1.345v30.55h1.345v-30.55zm-85.177 0h-1.345v30.55h1.345v-30.55zm41.99 42.173l-.299-.148c-30.933-15.797-26.749-46.346-26.749-46.644l.15-.597h.597c19.726 0 25.852-6.259 25.852-6.407l.449-.448.448.448s6.276 6.407 25.852 6.407h.598l.149.597c0 .298 4.184 30.847-26.748 46.644l-.299.149zm-25.852-45.898c-.449 4.172-1.644 30.4 25.852 44.558 27.495-14.158 26.15-40.386 25.852-44.558-17.036-.15-24.059-4.918-25.852-6.408-1.793 1.49-8.817 6.259-25.852 6.408z" fill="#6AAFE8"/><path d="M402.275 62.292c-2.69 0-4.782-2.086-4.782-4.769 0-2.682 2.092-4.769 4.782-4.769 2.689 0 4.781 2.087 4.781 4.77 0 2.682-2.092 4.768-4.781 4.768zm0-8.196c-1.943 0-3.437 1.49-3.437 3.427s1.494 3.428 3.437 3.428c1.942 0 3.436-1.49 3.436-3.428 0-1.937-1.494-3.427-3.436-3.427z" fill="#78C2FF"/><path d="M644.999 295.925h-32.875V263.14h32.875v32.785zm-31.53-1.192h30.185V264.63h-30.185v30.103z" fill="#A1D4FF"/><path d="M629.159 272.082h-1.345v15.349h1.345v-15.349z" fill="#A1D4FF"/><path d="M636.332 279.086h-15.391v1.341h15.391v-1.341zM56.36 142.914H9.438v-33.531H56.36v33.531zm-45.578-1.342h44.382v-30.847H10.782v30.847z" fill="#A1D4FF"/><path d="M32.898 129.65L9.736 110.576l.747-1.044 22.415 18.479 22.415-18.479.897 1.044-23.312 19.074z" fill="#A1D4FF"/><path d="M39.404 124.047l-.976.923 16.864 17.733.975-.923-16.863-17.733zm-12.945-.095L9.602 141.693l.976.923 16.856-17.741-.976-.923zm505.925-2.831v-1.341c-.448-.149-.747-.447-1.046-.745l-1.345.596-2.092-2.832.897-1.043c-.149-.447-.299-.894-.299-1.341l-1.345-.447.598-3.428h1.345c.149-.447.448-.745.747-1.043l-.598-1.192 2.84-2.086 1.046.894c.448-.149.896-.298 1.344-.298l.449-1.341 3.437.596v1.341c.448.149.747.447 1.046.745l1.195-.596 2.092 2.831-.896 1.043c.149.448.299.895.299 1.342l1.344.447-.597 3.427H541.5c-.15.447-.449.745-.747 1.043l.597 1.193-2.839 2.086-1.046-.894c-.448.149-.896.298-1.345.298l-.448 1.341-3.288-.596zm6.277-1.341l1.643-1.192-.448-1.044.149-.298.897-1.341.149-.298h1.196l.299-1.937-1.046-.447v-.298c0-.596-.15-1.043-.299-1.64l-.15-.298.748-.894-1.196-1.639-1.046.447-.299-.149-1.345-.894-.298-.149v-1.192l-1.943-.298-.448 1.043h-.299c-.598 0-1.046.149-1.644.298l-.299.149-.896-.745-1.644 1.192.448 1.043-.149.298-.897 1.341-.149.298h-1.196l-.299 1.938 1.046.447v.298c0 .596.15 1.043.299 1.639l.15.298-.748.894 1.196 1.64 1.046-.448.299.149 1.345.895.299.149v1.192l1.942.298.449-1.043h.298c.598 0 1.046-.149 1.644-.298l.299-.149.897.745zm-6.426-4.024c-1.195-1.788-.897-4.173.897-5.365 1.793-1.192 4.184-.894 5.379.894.598.895.897 1.789.598 2.832-.15 1.043-.747 1.937-1.494 2.533-.748.447-1.495.745-2.242.745-1.195 0-2.391-.596-3.138-1.639zm1.494-4.62c-1.345.895-1.643 2.683-.747 4.024.897 1.341 2.69 1.639 4.035.745.598-.447 1.046-1.043 1.195-1.937.15-.745 0-1.49-.448-2.086-.598-.746-1.494-1.193-2.391-1.193-.598 0-1.046.149-1.644.447zm21.967 13.413l-.149-2.981c-1.046-.447-2.092-1.192-2.989-1.788l-2.839 1.192-4.334-5.961 2.093-2.235c-.449-1.043-.598-2.236-.748-3.428l-2.839-1.043 1.196-7.302 2.988-.149c.449-1.043 1.196-2.087 1.793-2.98l-1.195-2.832 5.977-4.322 2.242 2.087c1.046-.448 2.241-.597 3.437-.746l1.046-2.831 7.322 1.192.149 2.98c1.046.448 2.093 1.193 2.989 1.789l2.839-1.192 4.334 5.96-2.092 2.236c.448 1.043.598 2.235.747 3.428l2.839 1.043-1.195 7.302-2.989.149c-.448 1.043-1.195 2.086-1.793 2.98l1.195 2.832-5.977 4.321-2.241-2.086c-1.046.447-2.242.596-3.437.745l-1.046 2.832-7.323-1.192zm14.196-1.938l4.334-2.98-1.195-2.534.298-.447c.897-1.043 1.495-2.086 2.092-3.427l.15-.447 2.839-.149.897-5.216-2.541-1.043v-.447c-.149-1.342-.448-2.683-.896-3.875l-.15-.447 1.943-2.086-2.989-4.322-2.54 1.192-.299-.298c-1.046-.894-2.092-1.49-3.287-2.086l-.449-.15-.149-2.83-5.23-.895-1.046 2.534h-.449c-1.345.148-2.689.447-3.885.894l-.448.745-2.092-1.938-4.334 2.98 1.196 2.534-.299.298c-.897 1.043-1.495 2.087-2.092 3.279l-.15.447-2.839.149-.897 5.216 2.541 1.043v.447c.149 1.341.448 2.682.896 3.875l.15.447-1.943 2.086 2.989 4.322 2.54-1.192.299.298c1.046.894 2.092 1.49 3.437 2.086l.448.149.15 2.831 5.23.895 1.046-2.534h.448c1.345-.149 2.69-.447 3.886-.894l.448-.149 1.942 1.639zm-14.495-10.282c-2.689-3.726-1.793-9.091 1.943-11.773 1.793-1.341 4.035-1.788 6.276-1.49 2.242.447 4.184 1.639 5.529 3.427 2.69 3.726 1.793 9.09-1.942 11.773-1.495 1.043-3.138 1.49-4.932 1.49-2.54.149-5.23-1.043-6.874-3.427zm2.84-10.581c-1.495 1.043-2.541 2.682-2.84 4.62-.298 1.937.15 3.725 1.196 5.365 2.241 3.129 6.724 3.874 10.012 1.639 3.138-2.236 3.885-6.706 1.644-9.985-1.046-1.49-2.69-2.533-4.633-2.831-.448 0-.747-.149-1.195-.149-1.644 0-2.989.447-4.184 1.341z" fill="#A1D4FF"/><path d="M592.41 484.209c-13.449 0-24.357-10.879-24.357-24.291h1.345c0 12.667 10.311 22.949 23.012 22.949 12.702 0 23.013-10.282 23.013-22.949 0-12.667-10.311-22.95-23.013-22.95v-1.341c13.449 0 24.358 10.879 24.358 24.291s-10.909 24.291-24.358 24.291zm0-3.428c-11.506 0-20.92-9.388-20.92-20.863s9.414-20.863 20.92-20.863c11.507 0 20.921 9.388 20.921 20.863h-1.345c0-10.73-8.816-19.522-19.576-19.522-10.759 0-19.575 8.792-19.575 19.522 0 10.729 8.816 19.522 19.575 19.522v1.341z" fill="#78C2FF"/><path d="M589.422 467.965l-8.668-8.792.897-.894 7.771 7.898 13.897-13.859.896.894-14.793 14.753z" fill="#78C2FF"/><path d="M435.747 388.355s-.896-3.13 0-4.62c.897-1.341 1.495-3.576 1.495-4.321.149-.895 1.793-3.875.597-3.875-1.195 0-2.839 4.62-3.437 5.514-.597.894-2.092-3.13-2.988-3.577-.897-.447-8.219 3.279-6.725 5.961 1.345 2.683 4.782 4.322 4.931 4.918.15.596.897 1.937.897 1.937l5.23-1.937z" fill="#EEA886"/><path d="M432.161 378.073s-4.782-7.75-5.679-8.048c-.747-.149-1.195.149-.896.894.448.745 4.483 7.75 4.483 7.75s-7.472-8.048-8.07-8.346c-.298-.149-1.344.447-1.046.894.15.447 7.024 8.942 7.024 8.942s-7.024-7.451-7.621-7.6c-.598-.149-1.196.596-.747 1.192.448.596 6.425 8.047 6.425 8.047s-5.529-5.067-6.127-4.918c-.298.149-1.195.596.299 1.938 1.495 1.341 4.483 4.619 4.483 4.619l7.472-5.364z" fill="#EEA886"/><path opacity=".68" d="M555.294 384.629H351.168c-4.334 0-7.771-3.427-7.771-7.749v-32.04c0-4.321 3.437-7.749 7.771-7.749h204.126c4.333 0 7.77 3.428 7.77 7.749v32.04c-.149 4.322-3.586 7.749-7.77 7.749z" fill="url(#g)"/><path d="M390.768 351.695h-35.565v3.577h35.565v-3.577zm32.129 0h-25.254v3.577h25.254v-3.577zm-1.644 13.71h-23.61v3.577h23.61v-3.577z" fill="#E0E0E0"/><path d="M549.317 351.695h-25.255v3.577h25.255v-3.577z" fill="#78C2FF"/><path d="M461.749 351.695h-32.128v3.577h32.128v-3.577z" fill="#1487E3"/><path d="M517.637 351.695h-32.128v3.577h32.128v-3.577z" fill="#FFC055"/><path d="M479.531 351.695h-11.805v3.577h11.805v-3.577z" fill="#E0E0E0"/><path d="M373.583 365.405h-18.38v3.577h18.38v-3.577z" fill="#78C2FF"/><path d="M384.044 365.405h-5.978v3.577h5.978v-3.577z" fill="#1487E3"/><path d="M549.317 365.405h-49.164v3.577h49.164v-3.577z" fill="#E0E0E0"/><path d="M394.504 365.405h-6.127v3.577h6.127v-3.577z" fill="#FFC455"/><path d="M495.671 365.405h-16.139v3.577h16.139v-3.577z" fill="#1487E3"/><path d="M475.348 365.405h-34.221v3.577h34.221v-3.577z" fill="#78C2FF"/><path d="M436.196 365.405h-11.805v3.577h11.805v-3.577z" fill="#E0E0E0"/><path d="M430.069 549.598s-4.633 4.62-8.668 5.216c-4.034.447-8.667 1.938-9.115 5.067-.598 2.98 11.805 6.259 16.737 3.875 7.322-3.428 9.414-2.087 10.46-4.322 1.046-2.086.896-9.538 1.046-10.283.299-1.043-10.46.447-10.46.447zm82.039-13.263s-1.345 6.408-4.334 8.792c-2.989 2.385-5.977 6.11-4.782 8.942 1.046 2.831 11.656 2.533 15.392-5.067 2.391-4.769 5.08-5.663 4.931-8.047-.149-2.385-3.885-7.6-4.184-8.345-.15-.746-7.023 3.725-7.023 3.725z" fill="#202338"/><path d="M461.45 445.282s-15.99 33.083-19.576 41.429c-3.287 7.749-6.725 21.757-7.322 27.122-.598 6.855-7.173 34.722-7.621 36.809-.449 1.937 13.897.745 13.897.745s12.552-47.539 15.84-54.245c2.241-4.47 18.829-34.424 20.323-32.636 1.494 1.788 10.46 24.291 11.506 29.656 1.046 5.365 21.519 45.303 21.519 45.303s9.563-.745 11.357-4.322c0 0-15.243-40.385-16.886-47.836-.897-3.726-4.035-27.272-8.07-45.452-1.942-9.24-34.967 3.427-34.967 3.427z" fill="#1C4054"/><path d="M501.946 395.061s-5.529 16.542-5.379 20.416c.149 3.875-2.989-19.224 5.379-20.416zm-39.002 6.11s-.747 2.235-1.942 5.067c-.449 1.043-1.046 2.086-1.644 3.129-.15.149-.15.298-.299.597a9.583 9.583 0 0 1-1.494 1.937c-1.644 1.937-3.587 3.427-5.978 3.725-4.632.298-21.518-25.334-21.518-25.334l8.069-3.725s10.759 15.349 12.403 14.604c1.644-.894 3.437-7.153 3.437-7.153 1.943-1.043 4.932 1.937 7.024 4.322l.448.447a27.799 27.799 0 0 0 1.494 2.384z" fill="#518AFA"/><path d="M497.613 444.537c-9.116 8.196-38.405 5.514-38.405 5.514.449-1.044 3.437-31.295 2.391-38.299-1.046-6.856-.448-12.667-1.345-12.965l-7.172-2.385s3.287-10.581 4.781-12.816c1.345-2.235 11.357-5.663 11.357-5.663s7.771-2.831 15.99-1.788c13.748 1.639 15.391 5.663 15.391 5.663l-3.138 20.416v.149c0 .447 0 1.639-.149 3.13-.299 6.557-.747 20.565-.747 23.992-.299 5.365 1.046 15.052 1.046 15.052z" fill="#518AFA"/><path d="M487.451 376.433c-.597 1.043-1.195 1.937-1.793 2.683-4.333 5.513-9.265 5.364-9.265 5.364-2.988-.298-4.632-2.235-5.529-4.023-.747-1.49-.896-2.981-.896-2.981l1.793-.596a5.554 5.554 0 0 0 .299-1.788v-2.683c0-1.49-.15-2.831-.15-2.831s13.001-7.004 11.955-2.086c-.448 2.235-.448 4.023-.149 5.365.448 1.49 1.195 2.533 1.643 2.682 1.345.596 2.092.894 2.092.894z" fill="#EEA987"/><path d="M449.943 386.418s-.747-.596-.747-1.342c-.149-1.341 1.195-2.98-.299-4.172-1.494-1.192-7.023 2.533-7.621 3.576-.598 1.193.897 3.428 4.483 5.514 3.437 2.087 4.184-3.576 4.184-3.576z" fill="#EEA886"/><path d="M449.196 381.351s-1.345-2.533-2.989-5.216c-1.494-2.384-3.735-4.769-4.333-4.321-.897.596 1.046 2.384 2.54 4.768 1.345 2.236.598 1.938.598 1.938s.149 0-1.644-2.087c-2.092-2.384-4.483-4.769-5.081-4.321-.298.298-.448.298.15 1.341-.448-.447-.747-.447-.897-.298-1.195.894 1.196 4.768 2.242 6.259-.747-1.192-1.495-1.938-1.793-.894-.449 1.192 3.287 6.408 4.333 8.494 1.046 2.235 6.874-5.663 6.874-5.663z" fill="#EEA886"/><path d="M501.647 397.446c5.977-7.154-1.345-16.095-1.345-16.095-4.333-3.726-13.748 11.773-14.943 13.263-1.196 1.49-10.311 9.538-12.702 12.22-1.345 1.341-6.724-4.471-9.115-6.855-1.495-1.49-13.15-15.051-13.15-15.051s-8.07 5.811-7.323 5.215c.748-.447 23.76 29.656 27.944 29.805-.149.149 16.438-5.216 30.634-22.502z" fill="#518AFA"/><path d="M459.357 409.218c-.149.149-.149.298-.298.596-.449.745-.897 1.342-1.495 1.938-1.046-1.342-5.379-10.73-5.379-10.879l7.172 8.345zm35.865-4.768s-7.472 6.557-11.357 9.09c-4.035 2.384-10.759 5.812-11.507 6.11 0-.149 17.783-3.577 22.864-15.2z" fill="#3D66BA"/><path d="M464.886 351.397s-2.839 5.216-1.494 6.11c1.196.745-1.345 5.812-1.644 6.706-.298.894 2.092 1.49 2.69 1.938.448.596 2.092 7.153 4.035 7.451 1.943.149 11.058-2.981 13.449-5.514 2.391-2.534 4.483-14.008 2.839-18.926-1.644-4.918-14.794-6.855-19.875 2.235z" fill="#EEA886"/><path d="M464.438 352.589s-2.839-5.662 2.391-9.835c5.23-4.173 14.944 3.129 15.99 3.427 1.046.298 7.322.746 4.184 11.475-2.69 9.24-2.989 9.687-2.989 9.687s-1.943-5.365-3.138-6.259c-1.793-1.341-5.678-1.043-5.678-1.043s1.793-4.918-1.047-5.663c-2.988-.447-6.873-2.981-9.713-1.789z" fill="#252E3B"/><path d="M478.186 357.358c.299-.745 1.046-3.576 3.586-1.937 2.541 1.639-1.494 7.153-1.942 7.153-.598.298-3.886.447-1.644-5.216z" fill="#EEA886"/><path d="M481.772 368.237s-2.092 4.172-9.713 6.855v-2.235s5.828-1.64 9.713-4.62z" fill="#A77860"/><path d="M205.62 266.752s.598 4.619 1.345 6.706c.747 2.086 4.931 6.855 3.138 11.475-1.942 4.917-10.161.149-13.598-1.342-3.437-1.49-2.541-4.321-2.989-7.6-.299-3.427-1.942-3.427-1.345-5.812.598-2.384 4.334-6.855 4.334-6.855l9.115 3.428z" fill="#999"/><path d="M197.999 260.791l-2.092 2.98c0 .149 9.116 5.514 9.713 3.726.449-1.341.748-3.428.748-3.428l-8.369-3.278z" fill="#EEA886"/><path d="M167.515 270.03s-2.69 2.385-5.23 6.11c-2.541 3.726-9.116 3.875-9.265 8.942-.299 5.066 8.966 5.215 13.748 3.576 4.781-1.639 5.529-6.557 8.517-7.749 2.989-1.192 4.483-2.235 4.184-4.62-.298-2.384-1.793-6.259-1.793-6.259s-1.793.596-2.839.745c-1.345 0-4.931 0-7.322-.745z" fill="#999"/><path d="M200.54 133.227s-1.794 11.028-3.288 18.181c-.598 2.98-1.195 5.216-1.494 5.961-.449.894-3.886 4.619-8.219 9.09-7.472 7.6-17.334 17.287-17.334 17.287l-3.886-7.302s8.817-10.283 14.645-17.138c2.69-3.129 4.931-5.663 5.23-5.961 1.195-1.043 2.69-12.071 4.782-21.012 2.092-8.942 6.127-14.008 6.127-14.008l3.437 14.902z" fill="#1487E3"/><path d="M187.539 166.459c-7.472 7.6-17.334 17.287-17.334 17.287l-3.886-7.302s8.817-10.283 14.645-17.138c1.942 1.043 5.23 3.129 6.575 7.153zm-19.725 100.293l-.449 3.427s4.782 1.64 10.012-.149l.15-2.98-9.713-.298z" fill="#EEA886"/><path d="M235.955 182.255c.299 1.044-50.807 0-50.807 0s14.196-10.282 15.093-12.965c.896-2.682-3.587-19.224-4.184-24.588-.449-4.322-1.644-23.397 1.195-26.378 2.989-3.129 13.598-6.259 13.598-6.259l15.542.597s2.54.596 4.333 1.341c1.793.894 12.254 4.619 14.047 9.835 1.644 5.216-10.46 22.056-10.46 22.056v1.937c0 1.639-.15 4.173-.15 6.855-.149 3.577-.149 7.451-.149 10.283-.15 6.706 1.643 16.392 1.942 17.286z" fill="#1487E3"/><path d="M235.955 182.256s6.874 10.133 7.024 17.137c.149 7.004-12.254 30.252-14.196 33.531-5.679 9.984-21.22 31.593-21.22 31.593s-2.69 0-11.058-3.279c0 0 10.311-28.463 11.656-31.444 5.529-12.518 8.667-21.459 6.724-23.546-1.793-2.086-6.874-4.321-8.368-5.514-1.494-1.341-27.047 4.769-29.737 5.514-7.024 1.789-3.736 13.86-2.242 19.224 2.541 9.091 4.782 41.727 4.782 41.727s-4.931 2.086-13.299.298c0 0-16.289-59.013-16.886-64.825-.449-5.812-.748-15.499 39.45-22.95l47.37 2.534z" fill="#E8E8E8"/><path d="M215.034 78.535s-13.449-2.98-10.46 13.86c3.138 16.839 6.276 18.18 14.495 14.753 8.069-3.428 7.472-14.307 7.771-19.671.448-5.216-7.472-8.793-11.806-8.942z" fill="#EEA886"/><path d="M211.448 116.536s5.977 6.259 15.391.596c0 0-2.092-13.71-1.046-20.267 1.046-6.706-12.253 10.283-12.253 10.283.149.149.299.745.299 1.639 0 .745 0 1.788-.15 2.682-.149 2.087-.896 4.471-2.241 5.067z" fill="#EEA886"/><path d="M226.242 96.12s-.299-5.365-2.242-5.514c-1.942-.149-2.241 1.938-2.241 1.938l-1.943.447s.598-4.62-1.345-5.514c-1.942-.745-12.552 2.533-14.196 1.192-1.494-1.341-.896-10.879 1.943-12.071 2.839-1.341 10.61-4.173 16.438-.298 0 0 4.483-.447 5.08 3.13.598 3.576-.299 14.157-1.494 16.69z" fill="#3A3F47"/><path d="M213.689 111.469c9.714-2.98 10.461-8.792 10.461-8.941-3.138 5.514-10.311 6.259-10.311 6.259.149.745 0 1.639-.15 2.682z" fill="#A77860"/><path d="M230.874 114.152s-7.173 14.157-18.679 13.263c-11.506-.894-1.943-15.2-1.494-15.2.597-.149 11.954-2.981 20.173 1.937z" fill="#EEA886"/><path d="M179.32 181.51s35.266 4.322 56.635.746l-40.795-5.067s-.299 1.043-15.84 4.321z" fill="#1487E3"/><path d="M205.62 175.549l-2.689 1.342s.597 4.172 2.092 5.364l2.988-.745c0 .149-.597-4.47-2.391-5.961z" fill="#EEA886"/><path d="M246.565 167.055c-.597.596-7.471 3.428-15.242 6.408-10.759 4.173-22.714 8.047-22.714 8.047l-2.69-5.811s12.702-6.856 21.22-11.624c4.035-2.236 7.173-4.024 7.621-4.471 1.345-1.341 1.793-3.427.747-7.004-1.046-3.577-3.287-20.416-3.586-22.354-.299-1.937.598-7.153 5.529-7.451 4.931-.298 7.471 1.192 7.471 1.192s1.196.448 2.093 12.369c.896 11.922.747 29.358-.449 30.699z" fill="#1487E3"/><path d="M234.162 147.831c0 1.64-.149 4.173-.149 6.855-4.782-11.772-2.092-21.012-1.943-21.161-.598 3.279 2.092 14.157 2.092 14.306zm-36.91 3.577c-.598 2.98-1.195 5.216-1.494 5.961-1.644-7.899-.15-18.032-.15-18.032.15 4.918 1.644 12.071 1.644 12.071z" fill="#0C5087"/><path d="M231.173 173.463c-10.759 4.173-23.162 8.196-23.162 8.196l-2.391-5.96s12.702-6.856 21.22-11.624c0-.149 3.138 1.341 4.333 9.388z" fill="#EEA886"/><path d="M204.873 181.958l-50.06-.746 25.254 12.816 24.806-12.07z" fill="#444C94"/><path d="M180.067 194.028l24.806-9.537v-2.533l-26.748 9.686 1.942 2.384z" fill="#303669"/><path d="M203.677 177.04s-3.138-.447-5.23-1.044c-1.644-.447-5.828.15-6.874 1.193-1.046 1.043-4.483 8.494-5.08 8.941-.598.447.298 1.49 1.494 1.043 0 0 1.046 3.279 3.586 2.087 2.541-1.193 4.334-3.875 5.529-4.322 1.345-.447 9.116-2.832 9.116-2.832s-.598-5.811-2.541-5.066z" fill="#EEA886"/><path d="M192.171 176.742s-1.943.894-2.54 1.341c-.598.447-2.69 2.086-3.138 2.384-.449.447.747 1.491 4.632-.149 3.736-1.639 1.046-3.576 1.046-3.576z" fill="#EEA886"/><path d="M180.067 194.029l-14.794-40.535-48.117.745 14.196 37.405 48.715 2.385z" fill="#303669"/><path d="M149.882 171.377c1.494 2.98 1.046 6.11-1.046 7.153-1.943 1.043-4.782-.596-6.276-3.428-1.495-2.98-1.046-6.11 1.046-7.153 1.942-1.043 4.782.596 6.276 3.428z" fill="#518AFA"/><path d="M221.759 90.457c.149-1.49 3.138-2.086 3.437.15.299 2.235-1.345 6.11-2.541 5.811-1.195-.447-1.195-3.875-.896-5.96z" fill="#EEA886"/><path d="M171.848 58.864h-27.197c-.597 0-.896-.447-.896-.894v-1.043c0-.596.448-.894.896-.894h27.197c.598 0 .897.447.897.894v1.043c.149.447-.299.894-.897.894zm-2.839 5.961h-24.358c-.597 0-.896-.447-.896-.894v-1.043c0-.596.448-.894.896-.894h24.508c.597 0 .896.447.896.894v1.043c0 .447-.448.894-1.046.894zm-5.977 6.11h-18.381c-.597 0-.896-.447-.896-.894v-1.043c0-.596.448-.894.896-.894h18.381c.598 0 .896.447.896.894v1.043c0 .447-.448.894-.896.894z" fill="#fff"/><path d="M99.224 460.929s2.69 1.193 3.885.596c1.196-.596 3.288-.596 3.885-.596.748 0 3.437-.894 3.288.149 0 1.043-4.184 1.64-5.081 2.087-.896.298 2.541 2.235 2.839 2.98.299.894-3.436 6.259-5.678 4.769-2.092-1.49-3.287-4.62-3.736-4.769-.448-.149-1.644-1.043-1.644-1.043l2.242-4.173z" fill="#EEA886"/><path d="M107.741 465.549s6.277 5.216 6.277 5.812c.149.745-.299 1.043-.897.596-.598-.447-6.127-4.769-6.127-4.769s6.276 7.302 6.426 7.898c.149.299-.448 1.044-.897.746-.299-.149-7.023-7.154-7.023-7.154s5.828 6.856 5.828 7.452c0 .447-.747.894-1.196.447-.448-.447-6.276-6.557-6.276-6.557s3.885 5.215 3.587 5.812c-.15.298-.598.894-1.644-.447-.897-1.342-3.587-4.471-3.587-4.471l5.529-5.365z" fill="#EEA886"/><path d="M56.187 572.846s-.299 8.494.897 8.941c1.195.447 5.827-2.384 7.77-5.365 2.092-2.98-2.54-9.686-3.288-13.412-.298-1.49-3.885-4.321-5.678-3.576-1.793.745-2.989 2.831-2.989 2.831s4.633 3.13 3.288 10.581z" fill="#3D6091"/><path d="M53.049 562.414s1.494 2.832 2.241 5.067c.748 2.235.897 8.494 1.345 8.941.449.447 4.334-1.49 4.782-3.874.448-2.385-1.046-7.004-2.54-9.389-1.495-2.384-2.989-3.725-2.989-3.725s-2.39.596-2.84 2.98z" fill="#DE9673"/><path d="M61.716 563.159l4.035 5.961-.748.596-3.138-4.619-.15-1.938z" fill="#3D6091"/><path d="M38.255 508.17s2.39 12.518 2.39 15.349c0 2.981.748 7.898 2.69 11.475 1.943 3.576 10.162 28.314 10.91 31.146.746 2.831 1.344 5.514 1.344 5.514s4.184-1.938 4.184-4.62c0-2.682-3.586-25.036-4.184-29.507-.598-4.47-5.828-27.122-5.828-27.122l-11.506-2.235z" fill="#DE9673"/><path d="M51.555 507.276s-.747 10.431-.747 13.114c.15 2.682 1.345 8.792 1.345 10.431 0 1.64 0 35.319-1.345 39.343-1.345 4.023 3.736 1.341 3.736 1.341s8.966-22.056 8.966-31.295c0-9.24-1.046-13.859-.449-19.671.598-5.812 4.633-13.561 4.633-13.561l-16.14.298zm-1.495-135.91s-8.369 8.346-5.53 19.075c2.84 10.73 7.323 10.879 12.404 6.259 5.08-4.619 7.92-9.537 8.667-14.902.597-5.365-7.92-17.883-15.541-10.432z" fill="#EEA886"/><path d="M48.416 407.281s1.196-2.831 2.093-5.961c.149-.596.298-1.192.448-1.639.448-1.938.598-4.024.15-5.365-1.346-3.875 8.368-1.192 8.368-1.192s-1.943 10.282 0 13.859c1.942 3.577-11.059.298-11.059.298z" fill="#EEA886"/><path d="M65.003 457.353s5.978 8.792 7.323 16.69c1.195 7.899-1.046 19.522-2.092 23.844-.897 3.726-2.093 15.498-2.242 16.691 0 0-18.829 4.917-31.082 1.043 0 0-1.943-19.224-2.69-26.377-.747-7.153 4.334-31.146 4.334-31.146l26.45-.745z" fill="#316EBF"/><path d="M100.867 461.526L97.43 465.4s-20.173-16.392-21.07-18.479c-.896-2.235-7.77-14.306-8.07-15.647 0 0-1.344 3.427-2.39 6.706-.448 1.341-1.046 3.874-1.345 4.918-.897 3.725-1.046 9.686.448 14.604 0 0-16.288 6.11-26.599.596 0 0 1.046-8.792-.598-14.604-1.643-5.663-10.161-25.632-10.161-25.632s4.483-8.346 9.265-9.985c4.632-1.639 10.012-2.831 10.012-2.831h11.357s7.322 1.937 8.966 2.384c2.989.894 5.678 4.62 6.276 8.047.598 3.279 8.219 26.079 9.115 26.824.897.448 18.231 19.225 18.231 19.225z" fill="#EDDAD3"/><path d="M34.818 450.647s7.173.298 8.368 0c1.196-.298 8.667-3.577 9.116-6.706.448-3.279-17.484 2.831-17.484 2.831v3.875z" fill="#EEA886"/><path d="M46.623 580.446s-5.529 6.557-4.93 7.6c.597 1.192 6.126 1.789 9.563.745 3.437-1.043 4.184-9.239 5.977-12.667.747-1.49-.299-5.961-2.092-6.408-1.942-.447-4.184.298-4.184.298s1.345 5.365-4.334 10.432z" fill="#5D89C4"/><path d="M50.807 570.163s-.598 3.279-1.494 5.514c-.747 2.236-4.633 7.302-4.483 7.899.15.596 4.334 1.49 6.276 0 1.943-1.491 3.587-6.11 4.035-8.942.448-2.831.15-4.769.15-4.769s-2.69-1.341-4.484.298z" fill="#EEA886"/><path d="M57.084 576.124l-.598 7.452-.897-.149.449-5.663 1.046-1.64z" fill="#5D89C4"/><path d="M57.233 440.662l-29.439-3.427 13.3 10.729 16.139-7.302z" fill="#4C5285"/><path d="M35.715 446.474s-.3 3.726 0 4.471c0 0-18.082-1.788-19.726-4.322-1.793-2.533-1.793-5.514-1.793-5.514l21.519 5.365z" fill="#EDDAD3"/><path d="M52.75 377.476s4.035 7.153 6.425 9.836c2.54 2.533 2.242 4.619 2.242 4.619s9.564-11.921 2.69-19.075c-6.874-7.153-15.69-4.321-18.38 1.938-2.54 6.259-1.644 13.859-1.644 13.859s.15-7.302 8.667-11.177z" fill="#E8734D"/><path d="M55.44 369.876s-.897-5.216 7.322-7.451c8.368-2.086 12.104 7.451 11.058 13.263-1.046 5.812-8.07 20.565-4.333 22.503 3.885 1.937 5.38-2.236 5.38-2.236s-1.196 7.302-6.576 5.514c-5.38-1.639-4.632-13.412-3.885-18.181.896-4.47-8.966-13.412-8.966-13.412z" fill="#E8734D"/><path d="M47.22 404.897s.748-2.236.748-2.683c0 0 10.46-.596 13.15-.298 0 0 .15 2.981.15 3.577-.15.745-12.254 2.831-14.047-.596z" fill="#EDDAD3"/><path d="M41.094 447.964l16.14-5.514v-1.788l-16.588 5.216.448 2.086zm0 0l-8.517-31.742L0 412.795l8.966 29.208 32.128 5.961z" fill="#323657"/><path d="M58.13 395.657c0 .149-2.092 4.918-7.472 5.663.15-.596.3-1.192.448-1.639-.149 0 2.84.596 7.024-4.024z" fill="#A77860"/><path d="M68.44 431.125s-1.345 3.427-2.39 6.706c-1.047-9.24.448-16.542.448-16.542 0 4.918 1.942 9.836 1.942 9.836z" fill="#CFBEB8"/><path d="M56.635 368.833s5.828 1.192 8.817 5.961c0 0-.598-4.322-3.587-5.663-2.839-1.192-5.23-.298-5.23-.298z" fill="#EDDAD3"/></g><defs><linearGradient id="b" x1="77.169" y1="577.711" x2="386.579" y2="577.711" gradientUnits="userSpaceOnUse"><stop stop-color="#FF9F55"/><stop offset="1" stop-color="#FFD255"/></linearGradient><linearGradient id="c" x1="-66.238" y1="615.92" x2="243.172" y2="615.92" gradientUnits="userSpaceOnUse"><stop stop-color="#E37E30"/><stop offset="1" stop-color="#E8A12E"/></linearGradient><linearGradient id="d" x1="37.858" y1="321.595" x2="446.352" y2="321.595" gradientUnits="userSpaceOnUse"><stop stop-color="#FF9F55"/><stop offset="1" stop-color="#FFD255"/></linearGradient><linearGradient id="e" x1="61.947" y1="304.42" x2="403.002" y2="304.42" gradientUnits="userSpaceOnUse"><stop stop-color="#404B61"/><stop offset=".486" stop-color="#3C4860"/><stop offset="1" stop-color="#2F3E5C"/></linearGradient><linearGradient id="f" x1="137.014" y1="517.787" x2="328.588" y2="517.787" gradientUnits="userSpaceOnUse"><stop stop-color="#FF9F55"/><stop offset="1" stop-color="#FFD255"/></linearGradient><linearGradient id="g" x1="343.417" y1="360.876" x2="562.95" y2="360.876" gradientUnits="userSpaceOnUse"><stop stop-color="#343D4F"/><stop offset=".458" stop-color="#30394C"/><stop offset=".951" stop-color="#232D41"/><stop offset="1" stop-color="#212B40"/></linearGradient><clipPath id="a"><path fill="#fff" d="M0 0h646v618H0z"/></clipPath></defs></svg>