<svg width="524" height="520" viewBox="0 0 524 520" fill="none" xmlns="http://www.w3.org/2000/svg"><path d="M426.718 102.303C426.507 45.47 372.01-.418 304.888.003c-66.911.42-120.987 46.73-120.777 103.563 0 14.945 3.998 29.259 10.731 41.889 0 0 37.454 72.199 42.924 140.82.211 31.996 30.931 57.886 68.806 57.676 37.874-.211 68.384-26.312 68.174-58.518 4.839-68.621 41.662-141.241 41.662-141.241 6.733-12.63 10.31-26.944 10.31-41.889z" fill="#FFCA55"/><path d="M257.403 133.829l-4.383.555 19.635 155.162 4.384-.555-19.636-155.162zm78.323 154.596l4.389.512 18.089-155.35-4.389-.511-18.089 155.349z" fill="#fff"/><path d="M338.764 157.663l-17.044-16.839-16.412 16.839-16.412-16.208-15.992 15.998-17.674-17.682 2.104-2.105 15.57 15.366 15.992-15.997 16.412 16.208 16.412-16.629 17.044 16.629 15.571-15.577 2.104 2.105-17.675 17.892z" fill="#fff"/><path d="M345.496 380.576l-77.643.421c-8.627 0-15.57-6.946-15.781-15.576l-.21-30.522 108.784-.631.21 30.521c.21 8.631-6.733 15.787-15.36 15.787z" fill="#D46946"/><path d="M355.179 361.422l-97.001.421c-12.835 0-23.566-10.314-23.566-23.365l-.211-50.94 143.713-.631.21 50.94c.21 13.05-10.31 23.575-23.145 23.575z" fill="#7784F2"/><path d="M394.946 151.138s-2.104-118.93-85.849-135.77c0 0 58.075-2.104 82.903 39.784 25.04 42.1 2.946 95.986 2.946 95.986z" fill="#FFD578"/><path d="M420.826 241.651l58.916-32.837-20.2-1.263-38.716 34.1z" fill="#D6D6D6"/><path d="M420.826 241.652l18.096-29.048 15.36-.421-33.456 29.469z" fill="#E8E8E8"/><path d="M466.275 216.392l1.053 7.367-46.502 17.892 45.449-25.259z" fill="#C2C2C2"/><path d="M1.262 233.23H0c.21-2.105.21-4.21.42-6.315h1.263c-.21 1.895-.42 4-.42 6.315zm.842-12.84l-1.262-.211.63-6.314 1.263.21-.63 6.315zm1.473-12.63l-1.262-.21c.21-2.105.63-4.21.841-6.315l1.263.21c-.21 1.895-.632 4.21-.842 6.315zm481.426-10.104l-.42-1.052s2.314-1.052 5.47-3.157l.632 1.052c-3.157 2.105-5.471 3.157-5.682 3.157zM5.681 195.131l-1.262-.211 1.262-6.315 1.263.211a33.575 33.575 0 0 0-1.263 6.315zm490.474-4.21l-.631-.842a46.353 46.353 0 0 0 4.84-4.21l.841.842c-1.683 1.263-3.366 2.736-5.05 4.21zm-487.949-8.42l-1.052-.211c.42-2.105 1.052-4.21 1.473-6.314l1.052.21c-.42 2.105-1.052 4.21-1.473 6.315zm497.208-.632l-.842-.842c1.262-1.684 2.525-3.368 3.577-5.262l1.052.632c-1.263 1.894-2.525 3.788-3.787 5.472zm6.312-11.366l-1.052-.421c.631-1.895 1.262-4 1.473-6.105l1.262.211c-.421 2.105-.841 4.42-1.683 6.315zm-500.153-.421l-1.052-.421c.63-2.105 1.262-4.21 1.893-6.105l1.053.421a40.099 40.099 0 0 0-1.894 6.105zm3.787-11.999l-1.052-.42c.631-2.105 1.473-4 2.315-6.105l1.052.421c-.842 2.105-1.473 4-2.315 6.104zm496.997-.21c0-2.105-.421-4.21-.841-6.315l1.052-.21c.42 2.105.841 4.42.841 6.525h-1.052zM19.989 146.085l-1.052-.421c.842-1.894 1.683-3.999 2.525-5.894l1.052.421c-.841 1.895-1.683 4-2.525 5.894zm489.633-.421c-.842-1.894-1.683-3.789-2.736-5.683l1.053-.632c1.052 1.895 1.893 4 2.735 5.894l-1.052.421zM25.25 134.508l-1.052-.631c1.052-1.895 1.893-3.789 2.945-5.684l1.052.632c-1.052 1.894-1.893 3.789-2.945 5.683zm478.48-.21l-.21-.211c-1.052-1.684-2.315-3.157-3.788-4.631l.842-.842c1.473 1.474 2.735 3.158 3.787 4.842l.211.21-.842.632zm-8.627-9.052c-1.683-1.263-3.366-2.315-5.26-3.368l.631-1.052c1.894 1.052 3.788 2.315 5.471 3.578l-.842.842zm-463.751-2.105l-1.052-.631c1.052-1.895 2.104-3.789 3.366-5.473l1.052.632c-1.262 1.894-2.314 3.788-3.366 5.472zm452.81-4.209c-1.894-.842-3.788-1.474-5.892-2.316l.421-1.052c2.104.631 4.208 1.473 6.102 2.315l-.631 1.053zm-11.994-4c-1.894-.421-3.998-1.052-6.312-1.473l.21-1.263c2.104.421 4.208.842 6.313 1.473l-.211 1.263zm-434.083-2.526l-1.052-.631c1.262-1.684 2.525-3.579 3.577-5.263l1.052.632c-1.263 1.684-2.315 3.578-3.577 5.262zm421.669 0c-1.894-.421-4.209-.631-6.313-1.052l.211-1.263c2.314.21 4.418.631 6.312 1.052l-.21 1.263zm-12.835-1.894a319.174 319.174 0 0 0-6.313-.632l.21-1.263c2.315.211 4.419.421 6.313.632l-.21 1.263zm-12.625-1.263l-6.313-.632v-1.263l6.313.632v1.263zm-12.836-1.053l-6.312-.631.21-1.263 6.313.631-.211 1.263zm-12.835-1.263c-2.314-.21-4.418-.421-6.312-.631l.21-1.263 6.313.631-.211 1.263zm-12.625-1.473c-2.104-.211-4.418-.632-6.312-.842l.21-1.263c2.105.21 4.209.631 6.313.842l-.211 1.263zm-12.624-1.895l-6.313-1.263.211-1.263c2.104.421 4.208.842 6.312 1.053l-.21 1.473zM45.66 102.092l-1.052-.842c1.262-1.684 2.735-3.368 3.998-5.052l.841.842a94921.89 94921.89 0 0 0-3.787 5.052zm325.089-1.053c-2.104-.421-4.208-1.052-6.313-1.473l.211-1.053c2.104.632 3.998 1.053 6.312 1.474l-.21 1.052zm-12.625-3.157c-2.104-.631-4.208-1.263-6.102-2.105l.421-1.052c1.894.631 3.998 1.263 6.102 1.894l-.421 1.263zm-11.994-4.42c-2.104-.842-3.997-1.684-5.891-2.526l.421-1.053c1.893.842 3.787 1.684 5.891 2.526l-.421 1.053zM53.656 92.199l-.842-.842c1.473-1.684 2.946-3.158 4.419-4.631l.841.842c-1.473 1.473-2.946 3.157-4.418 4.63zm280.691-4l-5.681-3.157.631-1.053c1.684 1.053 3.577 2.105 5.471 3.158l-.421 1.052zM62.493 82.937l-.842-.842c1.473-1.474 3.156-2.947 4.63-4.42l.84.842c-1.472 1.473-2.945 2.947-4.628 4.42zm260.913-1.474c-1.684-1.262-3.577-2.525-5.261-3.788l.842-.842 5.05 3.788-.631.843zM71.961 74.517l-.841-.842c1.683-1.473 3.366-2.736 5.05-4l.631.843c-1.473 1.263-3.156 2.526-4.84 4zm241.345-1.052c-1.473-1.474-3.156-2.737-4.84-4.21l.842-.842a46.305 46.305 0 0 1 4.84 4.21l-.842.842zM82.061 66.518l-.63-1.052c1.682-1.263 3.576-2.526 5.26-3.578l.63 1.052c-1.683 1.263-3.576 2.315-5.26 3.578zm221.355-1.052c-1.683-1.263-3.366-2.526-5.26-3.789l.631-1.053c1.684 1.264 3.577 2.526 5.261 3.79l-.632 1.052zM92.792 59.572l-.63-1.052c1.893-1.053 3.576-2.316 5.47-3.368l.631 1.052c-1.894 1.053-3.787 2.105-5.47 3.368zM292.896 58.1c-1.684-1.053-3.577-2.316-5.471-3.368l.631-1.053c1.894 1.053 3.788 2.105 5.471 3.368l-.631 1.053zm-189.162-5.052l-.631-1.053c1.893-1.052 3.787-1.894 5.681-2.947l.421 1.053c-1.684 1.052-3.577 2.105-5.471 2.947zm178.22-1.263c-1.893-1.053-3.787-1.895-5.681-2.947l.421-1.053c1.894.842 3.787 1.895 5.681 2.947l-.421 1.053zm-166.647-4.21l-.421-1.053c1.894-.842 3.998-1.684 5.891-2.526l.421 1.053c-2.104.842-3.998 1.684-5.891 2.526zm155.075-1.263c-1.894-.842-3.998-1.684-5.892-2.316l.421-1.052c1.893.842 3.998 1.684 5.891 2.526l-.42.842zM127.09 42.733l-.421-1.053c1.894-.632 3.998-1.473 6.102-2.105l.421 1.053c-2.104.841-4.208 1.473-6.102 2.105zm131.508-1.053c-1.893-.632-3.998-1.263-6.102-1.894l.421-1.053c2.104.632 3.998 1.263 6.102 2.105l-.421.842zm-119.304-2.736l-.421-1.053c2.104-.631 4.208-1.263 6.102-1.684l.21 1.053c-1.893.42-3.997 1.052-5.891 1.684zm107.1-1.053c-2.104-.631-4.208-1.052-6.102-1.473l.211-1.053c2.104.421 4.208 1.053 6.312 1.684l-.421.842zm-94.896-2.105l-.211-1.263c2.105-.42 4.209-.842 6.313-1.263l.21 1.263c-2.104.21-4.208.632-6.312 1.263zm82.482-.842l-6.312-1.263.21-1.263 6.312 1.263-.21 1.263zm-69.857-1.684l-.211-1.263c2.104-.42 4.208-.631 6.313-.842l.21 1.263c-2.104.421-4.208.632-6.312.842zm57.232-.42c-2.104-.211-4.208-.632-6.312-.843l.21-1.263c2.104.21 4.208.421 6.313.842l-.211 1.263zm-44.608-1.053v-1.263c2.105-.21 4.209-.421 6.313-.421v1.263c-2.104.21-4.208.21-6.313.42zm31.773-.21c-2.104-.211-4.208-.211-6.313-.422v-1.263c2.105 0 4.209.21 6.313.421v1.263zm-19.148-.422v-1.263h6.313v1.263c-1.894-.21-3.998 0-6.313 0z" fill="#E8E8E8"/><path d="M154.865 185.448s11.152 1.895 9.258 19.576c-1.894 17.682-11.783 15.998-12.414 15.998-.632 0-9.89.21-10.521-21.26 0 0-.21-15.998 13.677-14.314z" fill="#EEA987"/><path d="M159.705 216.181s-.421 7.367.21 8.84c.632 1.684-9.047 6.526-14.939.842 0 0 1.263-7.999.842-10.735-.421-2.736 13.887 1.053 13.887 1.053zm4.63-16.208s1.263-1.263 1.684 0c.421 1.263-1.684 7.157-1.895 7.577 0 0-.21.421-.631.211 0-.211.842-7.788.842-7.788zm-23.145-.422s-1.263-1.263-1.684 0c-.421 1.263 1.263 7.157 1.474 7.578 0 0 .421.631.631.421.421-.421-.421-7.999-.421-7.999z" fill="#EEA987"/><path d="M146.658 218.706s1.894 2.526 5.892 2.316c4.208 0 5.891-2.316 5.891-2.316s-1.894 4.21-6.102 4c-3.787.21-5.681-4-5.681-4z" fill="#C78D71"/><path d="M117.831 445.409s-1.473 3.368-2.735 4.842c-1.263 1.473-6.313 3.789-6.313 7.999 0 4.42 8.417 3.157 11.573 2.947 3.367-.211 3.577-2.526 4.839-5.052 1.473-2.526 2.736-2.105 2.946-4 .211-2.105-1.052-6.525-1.052-6.525l-9.258-.211z" fill="#1D2033"/><path d="M117.623 444.147l-.211 2.105s5.26 1.684 10.1.21l-.21-2.947-9.679.632z" fill="#50558A"/><path d="M324.878 453.407h-1.052l5.891-149.451H226.825l-5.891 149.451h-1.263l6.102-150.714H330.98l-6.102 150.714z" fill="#1A598C"/><path d="M334.558 453.407l-5.892-149.451H225.774l5.892 149.451h-1.263l-5.891-150.714h105.207l6.102 150.714h-1.263z" fill="#1A598C"/><path d="M231.033 404.784h104.155l-5.892-150.083H225.141l5.892 150.083z" fill="#BFB9B7"/><path d="M321.512 404.784H217.358l5.891-150.083h104.155l-5.892 150.083z" fill="#F2EBE9"/><path d="M250.605 359.527l-1.052-.421 9.889-27.574 21.463-5.684 7.574-30.521 16.623-7.157 3.577-23.786 1.263.21-3.788 24.418-16.622 7.157-7.786 30.521-21.462 5.684-9.679 27.153z" fill="#3D8ED1"/><path d="M283.849 324.164c1.052 1.474.841 3.368-.421 4.421-1.473 1.052-3.367.841-4.419-.421-1.052-1.474-.841-3.368.421-4.421 1.263-1.052 3.367-.842 4.419.421z" fill="#F5EEEC"/><path d="M283.638 329.216c-1.683 1.263-3.998 1.053-5.26-.631-1.263-1.684-1.053-3.999.631-5.262 1.683-1.263 3.998-1.053 5.26.631 1.263 1.474 1.052 3.999-.631 5.262zm-3.998-5.051c-1.052.842-1.262 2.525-.421 3.578.842 1.052 2.525 1.263 3.577.421 1.052-.842 1.263-2.526.421-3.578-.842-1.053-2.525-1.263-3.577-.421z" fill="#3D8ED1"/><path d="M291.635 294.064c1.052 1.473.841 3.368-.421 4.42-1.473 1.052-3.367.842-4.419-.421-1.052-1.473-.841-3.368.421-4.42 1.263-1.263 3.367-1.053 4.419.421z" fill="#F5EEEC"/><path d="M291.634 298.905c-1.683 1.263-3.998 1.052-5.471-.632-1.262-1.684-1.052-3.999.632-5.472 1.683-1.263 3.998-1.053 5.26.631 1.262 1.684 1.052 4.21-.421 5.473zm-4.208-4.841c-1.052.841-1.263 2.525-.421 3.578.842 1.052 2.525 1.263 3.577.421 1.052-.842 1.263-2.526.421-3.579-.842-1.262-2.315-1.473-3.577-.42z" fill="#3D8ED1"/><path d="M307.836 286.485c1.052 1.473.842 3.368-.421 4.42-1.473 1.053-3.367.842-4.419-.421-1.052-1.473-.841-3.368.421-4.42 1.263-1.263 3.367-1.052 4.419.421zm-45.24 43.784c1.052 1.473.842 3.368-.421 4.42-1.473 1.052-3.367.842-4.419-.421-1.052-1.473-.841-3.368.421-4.42 1.263-1.263 3.156-1.053 4.419.421z" fill="#F5EEEC"/><path d="M262.388 335.11c-1.683 1.263-3.998 1.052-5.471-.632-1.262-1.684-1.052-3.999.632-5.262 1.683-1.263 3.997-1.053 5.26.631 1.473 1.474 1.262 4-.421 5.263zm-3.998-4.842c-1.052.842-1.262 2.526-.421 3.579.842 1.052 2.525 1.263 3.577.421 1.052-.842 1.263-2.526.421-3.579-.841-1.263-2.525-1.473-3.577-.421z" fill="#3D8ED1"/><path d="M265.964 293.853H238.4a2.336 2.336 0 0 1-2.314-2.316v-2.105a2.335 2.335 0 0 1 2.314-2.315h27.564a2.335 2.335 0 0 1 2.315 2.315v2.105a2.336 2.336 0 0 1-2.315 2.316zm0-11.577H238.4a2.336 2.336 0 0 1-2.314-2.316v-2.104a2.336 2.336 0 0 1 2.314-2.316h27.564a2.336 2.336 0 0 1 2.315 2.316v2.104a2.336 2.336 0 0 1-2.315 2.316z" fill="#DED7D5"/><path d="M307.834 291.538c-1.683 1.263-3.998 1.052-5.26-.632-1.263-1.684-1.052-3.999.631-5.262 1.683-1.263 3.998-1.053 5.26.631 1.263 1.474 1.052 3.789-.631 5.263zm-4.208-5.052c-1.052.842-1.263 2.526-.421 3.578.842 1.053 2.525 1.263 3.577.421 1.052-.842 1.263-2.526.421-3.578-.631-1.263-2.315-1.263-3.577-.421zm-61.65 99.774l-.631-.421 12.625-17.681 16.412.21 11.573-19.997 13.256-1.684 7.574-16.208.632.421-7.575 16.419-13.256 1.894-11.783 20.208L254.39 369l-12.414 17.26z" fill="#3D8ED1"/><path d="M272.695 367.947c.421 1.263 0 2.526-1.262 3.158-1.263.421-2.525 0-3.157-1.263-.42-1.263 0-2.526 1.263-3.158 1.262-.421 2.735 0 3.156 1.263z" fill="#F5EEEC"/><path d="M271.644 371.526c-1.473.631-3.156 0-3.787-1.474-.632-1.473 0-3.157 1.472-3.789 1.473-.631 3.157 0 3.788 1.474.631 1.473 0 3.157-1.473 3.789zm-1.894-4.421c-1.052.421-1.473 1.474-1.052 2.526.421 1.053 1.473 1.474 2.525 1.053 1.052-.421 1.473-1.474 1.052-2.526-.421-1.053-1.473-1.474-2.525-1.053z" fill="#3D8ED1"/><path d="M284.48 347.95c.421 1.263 0 2.526-1.262 3.157-1.263.421-2.525 0-3.156-1.263-.421-1.263 0-2.526 1.262-3.157 1.263-.421 2.735.21 3.156 1.263z" fill="#F5EEEC"/><path d="M283.427 351.529c-1.473.632-3.156 0-3.787-1.473-.632-1.474 0-3.158 1.473-3.789 1.473-.632 3.156 0 3.787 1.473.631 1.474 0 3.158-1.473 3.789zm-1.894-4.42c-1.052.421-1.472 1.473-1.052 2.526.421 1.052 1.473 1.473 2.525 1.052 1.052-.421 1.473-1.473 1.052-2.526-.42-.842-1.472-1.473-2.525-1.052z" fill="#3D8ED1"/><path d="M297.527 346.055c.421 1.263 0 2.526-1.262 3.158-1.263.421-2.525 0-3.157-1.263-.42-1.263 0-2.526 1.263-3.158 1.262-.631 2.735 0 3.156 1.263zm-41.242 21.682c.42 1.263 0 2.526-1.263 3.158-1.262.421-2.525 0-3.156-1.263-.421-1.263 0-2.526 1.262-3.158 1.263-.421 2.736.211 3.157 1.263z" fill="#F5EEEC"/><path d="M255.234 371.315c-1.473.632-3.157 0-3.788-1.473-.631-1.474 0-3.158 1.473-3.789 1.473-.632 3.156 0 3.787 1.473.632 1.474 0 3.158-1.472 3.789zm-1.894-4.42c-1.052.421-1.473 1.473-1.052 2.526.421 1.052 1.473 1.473 2.525 1.052 1.052-.421 1.473-1.473 1.052-2.526-.421-.842-1.473-1.473-2.525-1.052zm43.136-17.261c-1.473.632-3.156 0-3.787-1.473-.632-1.473 0-3.157 1.472-3.789 1.473-.631 3.157 0 3.788 1.474.631 1.473 0 3.157-1.473 3.788zm-1.894-4.42c-1.052.421-1.473 1.474-1.052 2.526.421 1.052 1.473 1.473 2.525 1.052 1.052-.42 1.473-1.473 1.052-2.525-.421-1.053-1.473-1.474-2.525-1.053z" fill="#3D8ED1"/><path d="M220.094 260.385s3.366-1.053 3.577-3.158c.21-1.684 1.683-3.789 2.314-4.42.632-.842 1.684-4.21 2.736-3.368 1.052.842-1.263 5.473-1.684 6.525-.21 1.053 4.419-1.052 5.471-.631 1.052.21 4.208 8.209.842 9.262-3.367 1.052-7.575 0-8.206.21-.632.211-2.315.842-2.315.842l-2.735-5.262z" fill="#EEA886"/><path d="M231.666 255.543s10.52-2.526 11.362-2.105c.842.421 1.052 1.052 0 1.263-1.052.21-10.1 2.736-10.1 2.736s12.835-1.052 13.677-.842c.421.211.631 1.263.211 1.474-.421.21-13.256 1.894-13.256 1.894s11.993-.842 12.624-.632c.421.211.421 1.474-.42 1.474-.842.21-11.994 1.473-11.994 1.473s8.837 0 9.048.421c.21.421.421 1.263-1.894 1.263s-7.575.421-7.575.421l-1.683-8.84z" fill="#EEA886"/><path d="M170.435 249.018s2.736 4.841 6.313 10.104c.421.42.631 1.052 1.052 1.473.421.631 1.052 1.263 1.473 2.105.631.842 1.262 1.684 1.894 2.315 3.366 4.421 6.943 7.999 9.679 8.841 5.891 1.474 35.139-5.052 35.139-5.052l-2.315-11.577s-10.31 3.578-17.043 3.999c-4.209.421-9.469 1.684-10.1 1.263-.632-.421-12.625-17.681-13.467-19.576-.841-1.894-4.629-9.261-7.995-12.629-3.367-3.579-6.734-2.105-6.734-2.105-10.1 6.525 2.104 20.839 2.104 20.839z" fill="#DBDFF0"/><path d="M183.692 444.357s4.629 4.842 9.048 5.684c4.629 1.052 7.785 2.315 7.785 5.052 0 2.736-13.256 4.631-18.516 1.684-7.785-4.21-8.627-2.947-9.469-4.842-.841-2.105 1.052-7.578 1.052-8.209-.21-.842 10.1.631 10.1.631z" fill="#202338"/><path d="M183.059 442.041s.631 2.316.421 2.316c0 0-10.31 1.263-10.1-.632.211-1.473.631-2.947.631-2.947l9.048 1.263z" fill="#2F6B8C"/><path d="M172.749 308.167s4.84 34.521 6.733 46.309c2.315 13.682 2.946 25.049 3.577 31.995.842 8.841 1.894 54.518 2.315 57.044.631 2.526-13.887 1.263-13.887 1.263s-7.575-59.359-9.89-68.832c-2.314-8.841-8.627-46.94-10.731-44.625-2.104 2.316-10.731 45.888-12.204 52.835-1.473 6.946-9.889 62.727-9.889 62.727s-9.048 1.684-14.308-1.053c0 0 4.208-48.834 5.26-61.885.421-5.052 1.262-59.57 9.679-81.672 4.629-11.577 43.345 5.894 43.345 5.894z" fill="#292C47"/><path d="M158.863 225.021s12.624 2.526 14.097 3.999c1.684 1.474 4.419 15.156 4.629 19.155.211 3.789-1.473 19.997-3.156 25.891-1.683 5.894-1.052 35.363 0 43.783 0 0-18.727 8.42-50.078.842 0 0 5.47-27.364 4.418-35.574-1.262-10.524-3.787-36.205-3.787-36.205s0-15.787 2.104-17.681c2.315-1.895 18.517-4 18.517-4h13.256v-.21z" fill="#DBDFF0"/><path d="M134.242 228.389s7.996 2.105 3.578 16.629c-3.367 11.367-3.788 13.682-3.788 13.682l-18.306-4.631s4.629-23.996 13.467-26.101c-.211.211 3.156-.421 5.049.421z" fill="#DBDFF0"/><path d="M176.749 259.332c.421.421.631 1.053 1.052 1.474.421.631 1.053 1.263 1.474 2.104.421-6.735-1.474-16.208-1.474-16.208.421 3.158-1.052 12.63-1.052 12.63z" fill="#A3A9C4"/><path d="M172.751 248.807h-7.785v11.788h7.785v-11.788zm-13.046-25.47s-7.785 2.315-14.308-.421l-.421 3.157s8.837 3.368 15.571 1.895l-.842-4.631z" fill="#DBDFF0"/><path d="M115.098 317.218s.631 4 1.262 4.842c.631.842 1.894 4.631 2.104 5.052.211.631 1.052 4.42 1.052 4.841.211.421-1.052 1.263-1.683.21-.421-.631-1.262-3.157-1.473-3.999-.21-.842-1.262-3.368-1.473-2.947-.21.421-.21 3.789-.421 4.631 0 .842.421 3.578.632 4.631.21 1.052 1.473 5.683 1.052 6.104-.632.211-1.052.211-1.894-1.052 0 0-1.263.631-1.894-.842 0 0-1.052.421-1.683-1.684 0 0-.842-.421-1.052-1.263-.211-.632-1.894-6.946-1.683-9.262 0-2.526.631-4.21.631-5.894 0-1.684-.842-5.473-.842-5.473l7.365 2.105z" fill="#EEA886"/><path d="M117.202 321.428s-4.419.632-10.521.211c0 0 3.577-40.205 3.367-42.52-.211-2.105 8.206-39.363 12.624-45.046l6.944 21.892c-.631-.211-7.575 22.312-7.575 24.627-.21 3.158-4.839 40.836-4.839 40.836z" fill="#DBDFF0"/><path d="M165.176 196.815c.421-4.631 0-8.63-.631-10.946-.842-2.946-5.471-2.104-5.471-2.104-7.365-2.105-11.573-1.263-14.308 0-4.209 3.367-4.419 9.051-4.209 12.208 0 .842.211 1.474.211 2.316.421 3.157.841 5.894.841 5.894l1.263 1.473s-.421-5.262.421-5.473c.421-.21.631-1.263.631-2.105v-1.473c8.417-3.789 17.885-1.053 18.096-.632.21.421.42 1.263.42 2.316.211.631.211 1.052.421 1.263.211.842.211 5.472.211 5.472l1.683-2.104s.21-1.053.421-2.526c0-.421.21-1.053.21-1.684-.21-.211-.21-.842-.21-1.895z" fill="#434343"/><path d="M523.513 367.947c0 82.935-2.315 99.143-23.146 117.877-8.206 7.367-23.145 22.313-66.491 29.89-13.045 2.316-28.616 3.789-47.132 4.21-7.575.211-14.519 0-21.042-.842-5.26-.631-10.31-1.473-14.939-2.526-47.553-11.998-51.131-52.623-30.3-86.934 5.471-9.051 11.784-17.471 18.306-25.259 10.1-11.998 21.042-22.734 30.931-32.627 9.048-9.262 17.465-17.681 23.356-26.312 2.525-3.578 4.629-7.157 6.313-10.735 5.049-10.946 11.151-21.47 18.306-31.153 6.102-8.42 10.52-13.051 10.52-13.051 5.261-2.526 19.358-7.367 33.877-7.999 27.564-.842 61.441 12.63 61.441 85.461z" fill="#4373CF"/><path d="M412.836 492.981s.631 5.473 1.683 7.999c.842 2.526 5.892 8.209 3.788 13.472-2.315 5.893-11.994.21-15.992-1.684-3.998-1.895-3.156-5.052-3.577-9.052-.421-3.999-2.314-4.21-1.683-6.946.631-2.736 5.05-8.209 5.05-8.209l10.731 4.42z" fill="#213A70"/><path d="M403.996 485.824l-2.525 3.578s10.731 6.525 11.573 4.42c.631-1.684.841-4.209.841-4.209l-9.889-3.789z" fill="#EEA886"/><path d="M367.806 496.769s-3.156 2.947-6.102 7.157c-2.946 4.421-10.731 4.631-10.941 10.525-.421 5.894 10.52 6.104 16.201 4.21 5.682-1.895 6.523-7.788 10.1-9.262 3.367-1.473 5.261-2.736 5.05-5.473-.21-2.947-2.104-7.577-2.104-7.577s-2.104.631-3.367.841c-1.683.421-5.891.421-8.837-.421z" fill="#213A70"/><path d="M406.942 334.478s-2.104 13.051-3.997 21.681c-.632 3.579-1.263 6.315-1.684 7.157-.421 1.053-4.629 5.473-9.679 10.735-8.837 9.052-20.62 20.629-20.62 20.629l-4.629-8.63s10.31-12.209 17.464-20.208c3.156-3.789 5.891-6.736 6.312-7.157 1.473-1.263 3.156-14.313 5.471-25.048 2.315-10.736 7.154-16.63 7.154-16.63l4.208 17.471z" fill="#FFCA55"/><path d="M391.582 373.841c-8.837 9.052-20.62 20.629-20.62 20.629l-4.629-8.63s10.31-12.209 17.464-20.208c2.314 1.052 6.312 3.578 7.785 8.209zm-23.356 118.93l-.421 3.999s5.681 2.105 11.994-.211l.21-3.578-11.783-.21z" fill="#EEA886"/><path d="M448.814 392.786c.421 1.263-60.179 0-60.179 0s16.623-12.209 17.886-15.366c1.052-3.158-4.209-22.734-5.05-29.048-.632-5.052-1.894-27.786 1.473-31.364 3.577-3.578 15.991-7.367 15.991-7.367l18.306.631s2.946.632 5.26 1.684c2.105 1.053 14.519 5.473 16.623 11.577 2.104 6.105-12.414 26.102-12.414 26.102v2.315c0 1.894-.211 4.841-.211 8.209 0 4.21-.21 8.841-.21 12.209 0 7.788 2.314 19.155 2.525 20.418z" fill="#FFCA55"/><path d="M448.813 392.786s8.206 11.998 8.416 20.418c.211 8.209-14.518 35.784-16.833 39.783-6.733 11.788-25.039 37.468-25.039 37.468s-3.156 0-13.046-3.999c0 0 12.204-33.89 13.677-37.258 6.523-14.945 10.311-25.469 7.996-27.995-2.104-2.526-8.206-5.052-9.889-6.526-1.684-1.473-31.983 5.684-35.14 6.526-8.206 2.105-4.418 16.418-2.735 22.944 2.946 10.735 5.681 49.466 5.681 49.466s-5.891 2.526-15.57.421c0 0-19.358-70.095-19.99-77.041-.631-6.947-.841-18.524 46.502-27.154l55.97 2.947z" fill="#E8E8E8"/><path d="M424.196 269.646s-15.991-3.578-12.204 16.419c3.577 19.997 7.575 21.681 17.044 17.471 9.679-4.21 8.837-17.05 9.258-23.365.421-6.315-9.048-10.314-14.098-10.525z" fill="#EEA886"/><path d="M419.986 314.692s7.154 7.578 18.306.631c0 0-2.525-16.208-1.263-24.207 1.263-7.998-14.518 12.209-14.518 12.209.21.211.421.842.421 1.895 0 .842 0 2.104-.211 3.157-.421 2.947-1.262 5.683-2.735 6.315z" fill="#EEA886"/><path d="M437.451 290.485s-.42-6.315-2.735-6.525c-2.315-.211-2.735 2.315-2.735 2.315l-2.315.421s.631-5.473-1.473-6.525c-2.314-1.052-14.939 2.947-16.833 1.473-1.894-1.684-1.052-12.84 2.315-14.313 3.366-1.474 12.624-5.052 19.358-.421 0 0 5.26-.632 6.102 3.578.631 4.421-.421 16.84-1.684 19.997z" fill="#3A3F47"/><path d="M422.513 308.588c11.572-3.579 12.414-10.525 12.414-10.525-3.787 6.525-12.204 7.367-12.204 7.367 0 .842 0 2.105-.21 3.158z" fill="#A77860"/><path d="M442.923 311.955s-8.417 16.84-22.094 15.787c-13.677-1.052-2.314-17.892-1.683-18.102.631-.211 13.887-3.578 23.777 2.315z" fill="#EEA886"/><path d="M381.902 391.944s41.662 5.052 66.912.842l-48.395-6.104c.21 0-.211 1.263-18.517 5.262z" fill="#FFCA55"/><path d="M413.043 384.786l-3.157 1.474s.632 4.841 2.315 6.525l3.577-.842s-.631-5.473-2.735-7.157z" fill="#EEA886"/><path d="M461.23 374.683c-.631.632-8.838 4-18.096 7.578-12.625 4.842-26.933 9.472-26.933 9.472l-3.156-6.946s14.94-8.209 25.039-13.893c4.84-2.736 8.417-4.841 9.048-5.262 1.683-1.473 2.104-3.999.842-8.42-1.263-4.42-3.998-24.207-4.208-26.522-.211-2.315.841-8.42 6.522-8.841 5.892-.21 8.838 1.263 8.838 1.263s1.473.632 2.525 14.735c1.052 14.103 1.052 35.152-.421 36.836z" fill="#FFCA55"/><path d="M446.71 351.95c0 1.894-.21 4.841-.21 8.209-5.681-13.893-2.315-25.049-2.315-25.259-.631 3.789 2.525 16.839 2.525 17.05zm-43.764 4.209c-.631 3.579-1.263 6.315-1.684 7.157-1.894-9.261-.21-21.26-.21-21.26.21 5.473 1.894 14.103 1.894 14.103z" fill="#C9A043"/><path d="M443.134 382.262c-12.625 4.841-27.353 9.682-27.353 9.682l-2.736-7.156s14.94-8.21 25.039-13.893c0 0 3.788 1.894 5.05 11.367z" fill="#EEA886"/><path d="M412.202 392.365l-59.337-.842 29.879 15.155 29.458-14.313z" fill="#444C94"/><path d="M382.746 406.678l29.458-11.367v-2.947l-31.773 11.367 2.315 2.947z" fill="#303669"/><path d="M410.52 386.471s-3.787-.631-6.312-1.263c-1.894-.421-6.944.211-8.207 1.474-1.262 1.262-5.26 10.103-6.102 10.735-.841.631.421 1.894 1.684 1.263 0 0 1.262 3.789 4.208 2.526 2.946-1.474 5.05-4.631 6.523-5.263 1.473-.631 10.731-3.368 10.731-3.368s0-6.946-2.525-6.104z" fill="#EEA886"/><path d="M397.053 386.26s-2.314 1.052-2.945 1.684c-.632.421-3.157 2.315-3.788 2.736-.631.421.842 1.684 5.471-.21 4.418-1.895 1.262-4.21 1.262-4.21z" fill="#EEA886"/><path d="M382.745 406.678l-17.674-48.204-56.812.842 16.833 44.415 57.653 2.947z" fill="#303669"/><path d="M346.973 379.735c1.684 3.367 1.263 7.156-1.262 8.419-2.315 1.263-5.681-.631-7.365-4.21-1.683-3.367-1.262-7.156 1.263-8.419 2.314-1.053 5.681.842 7.364 4.21z" fill="#518AFA"/><path d="M431.981 283.749c.211-1.684 3.788-2.315 3.998.211.211 2.736-1.683 7.367-2.946 6.946-1.262-.631-1.262-4.841-1.052-7.157z" fill="#EEA886"/></svg>