<svg width="200" height="44" viewBox="0 0 200 44" fill="none" xmlns="http://www.w3.org/2000/svg"><path d="M25.677 33.96a12.78 12.78 0 0 1-4.216.708c-7.154 0-12.956-5.854-12.956-13.075 0-7.223 5.802-13.076 12.956-13.076 3.66 0 6.97 1.534 9.327 4.002l.143.147c.979 1.033 1.907 2.199 2.524 3.508.19-.14.384-.273.581-.402-.632-1.31-1.53-2.512-2.51-3.556-2.48-2.585-6.218-4.407-10.069-4.407-7.54 0-13.653 6.17-13.653 13.784 0 7.613 6.112 13.783 13.653 13.783 5.458 0 10.168-3.234 12.352-7.908a16.49 16.49 0 0 1-8.132 6.492z" fill="#111B2D"/><path d="M39.03 29.408c-2.546 7.908-10.014 13.75-18.695 13.743-.412 0-.822-.01-1.227-.036 1.06.15 2.24.232 3.343.21 2.93-.056 5.747-.764 8.25-1.922a21.846 21.846 0 0 0 11.333-12.998c1.165-3.633 3.2-7.027 5.907-9.642a20.027 20.027 0 0 0-8.91 10.645z" fill="#E72C3F"/><path d="M34.372 28.032c-2.327 4.844-7.23 8.182-12.904 8.182-7.925 0-14.347-6.51-14.347-14.544 0-8.03 6.422-14.544 14.347-14.544 2.51 0 4.87.653 6.923 1.8 2.682 1.464 4.878 3.722 6.2 6.507a10.865 10.865 0 0 1 7.132-1.265c-1.078-2.855-2.802-5.563-4.888-7.691C32.936 2.46 27.493 0 21.468 0 9.612 0 0 9.7 0 21.67c0 4.607 1.337 8.915 3.716 12.438 3.481 4.975 9.192 8.262 15.688 8.354 8.724.125 16.185-5.54 18.8-13.474 1.67-4.714 4.852-8.539 9.16-10.885-5.747 1.073-10.39 4.895-12.992 9.93z" fill="#111B2D"/><path d="M38.146 21.61a18.003 18.003 0 0 1 8.41-4.278 10.085 10.085 0 0 0-6.693-2.43c-3.584.037-6.338 1.966-8.498 4.795-2.06 2.7-4.88 5.001-8.494 5.403-.31.037-.617.052-.92.06l.029.01c-.066.004-.132.008-.198.008-5.22 0-7.018-1.804-6.587-2.438.431-.635 1.15-.782 1.15-.782l.578-.056-.215-.092.215-.136-.376.01.19-.206-.574.218-.592.018.307-.34.38-.19h-.208l.157-.174-.285.088.102-.199-.394.288-1.51.476s-.251-.056-.562.047a6.95 6.95 0 0 0-1.374.657c-.486.306-1.216.752-1.267.797-.051.044-.146.18-.136.254.008.078.14.447.406.664.267.218.42.35.658.417.233.07.749.18 1.048.38.3.2.588.34.431.7-.16.362-.77.148-1.07.078a89.165 89.165 0 0 1-1.933-.586l-.906-.59s-.2-.144-.3.033c-.098.177.121.243.121.243s-.135.13.073.262c.212.133.475.177.475.177s-.194.085-.168.17c.026.081.055.147.164.166.106.018.318.03.534.192.215.162.548.394.917.6.369.207 1.012.517 1.012.517l-1.246.048s-.555-.147-.76-.184c-.204-.033-.256-.115-.358.051-.099.163.139.2.139.2s-.066.173.212.236c.197.044.296.007.336-.019-.048.037-.135.126-.03.222.14.121.242-.067.556.018.314.081.256.063.497.21.237.148.752.542 1.735.635.983.092 1.297.084 1.809-.03.515-.114 1.461-.328 1.461-.328l2.495.022s2.96 1.306 4.882 1.472c1.925.17 2.846.037 3.397.062.548.026 1.338.104 1.878.354.541.255.844.495 1.009.742.164.247.266.398.361.332.092-.063.314-.273-.106-.841s-.855-.756-1.432-.97c-.577-.214-1.79-.716-1.79-.716s.833-.063 1.337-.015.98.21 1.275.465c.3.255.395.42.442.476.048.059.216.384.347.317.136-.063.358-.199-.084-.863-.442-.664-1.622-1.044-2.13-1.173a77.252 77.252 0 0 1-1.757-.509l-1.143-.457c.043-.004.084-.004.127-.008 4.775-.203 9.083-2.061 12.444-4.98z" fill="#E72C3F"/><path d="M47.112 42.845c-1.308 0-2.086-.807-2.086-2.183 0-1.612.983-2.995 2.678-2.995 1.176 0 1.947.682 1.947 1.722v.104H48.61c-.03-.646-.325-.945-.98-.945-1.059 0-1.534 1.188-1.534 2.106 0 .827.399 1.313 1.082 1.313.606 0 1.04-.36 1.198-1.014h1.074c-.208 1.184-1.125 1.892-2.338 1.892zm10.778-4.186h-2.664L55 39.75h2.473l-.179.848h-2.473l-.263 1.225h2.718l-.194.903h-3.777l1.04-4.95h3.727l-.182.882zm7.953.015H64.35l-.855 4.053H62.42l.855-4.053H61.74l.187-.897h4.103l-.187.897zm6.716 3.769c-.406.259-.95.284-1.418.284h-2.119l1.041-4.95h1.067l-.373 1.778h.833c.388 0 .64.033.863.096.53.159.873.675.873 1.306-.004.616-.3 1.188-.767 1.486zm-1.199-2.025h-.793l-.295 1.431h1.096c.515 0 .917-.22.917-.807-.004-.576-.45-.624-.925-.624zm12.14-2.641h1.042l-.848 4.047h1.666l.848-4.047h1.041l-.847 4.047h1.666l.847-4.047h1.038l-1.038 4.95H82.46l1.042-4.95zm13.98 4.95h-1.075l.723-3.434h-.022l-2.491 3.434h-1.279l1.041-4.95h1.074l-.716 3.427h.022l2.492-3.427h1.275l-1.045 4.95zm8.574 0h-1.074l.445-2.135h-1.994l-.446 2.135h-1.074l1.041-4.95h1.074l-.398 1.896h1.998l.399-1.896h1.074l-1.045 4.95zm8.571 0h-1.074l.446-2.135h-1.995l-.45 2.135h-1.074l1.041-4.95h1.075l-.399 1.896h1.999l.398-1.896h1.074l-1.041 4.95zm7.734-.284c-.405.259-.95.284-1.417.284h-1.882l1.042-4.95h1.066l-.372 1.778h.592c.383 0 .639.033.858.096.53.159.873.675.873 1.306.004.616-.292 1.188-.76 1.486zm-1.198-2.025h-.552l-.296 1.431h.855c.516 0 .917-.22.917-.807 0-.576-.449-.624-.924-.624zm4.227-2.64l-1.041 4.95h-1.074l1.041-4.95h1.074zm6.387 2.389l1.22 2.56h-1.191l-.771-1.752-1.403 1.752h-1.308l2.236-2.607-1.158-2.343h1.169l.709 1.605 1.253-1.605h1.275l-2.031 2.39zM145.607 44l.27-1.273h-3.657l1.041-4.95h1.074l-.855 4.047h2.006l.855-4.047h1.074l-.855 4.047h.545L146.648 44h-1.041zm9.915-5.341h-2.663l-.227 1.092h2.474l-.179.848h-2.474l-.263 1.225h2.718l-.193.903h-3.782l1.042-4.95h3.726l-.179.882zm7.589 4.068h-1.075l.446-2.135h-1.995l-.449 2.135h-1.074l1.041-4.95h1.074l-.398 1.896h1.995l.398-1.896h1.074l-1.037 4.95zm8.94-4.053h-1.495l-.854 4.053h-1.075l.855-4.053h-1.538l.187-.897h4.102l-.182.897zm6.046-.897c.384 0 .64.034.859.096.53.159.873.675.873 1.306 0 .612-.296 1.18-.764 1.48-.405.257-.949.283-1.417.283h-1.052l-.38 1.782h-1.067l1.041-4.95h1.907v.003zm-1.322 2.317h1.096c.515 0 .917-.222.917-.808 0-.575-.45-.627-.925-.627h-.792l-.296 1.435zm11.658-.306c0 1.667-.99 3.065-2.733 3.065-1.33 0-2.13-.827-2.13-2.199 0-1.711 1.129-2.98 2.656-2.98 1.381 0 2.207.786 2.207 2.114zm-3.796.881c0 .819.428 1.306 1.136 1.306 1.082 0 1.571-1.243 1.571-2.169 0-.8-.413-1.25-1.143-1.25-1.074 0-1.564 1.187-1.564 2.113zm10.38-2.892c.8 0 1.797.04 1.797 1.148 0 .604-.358 1.062-.917 1.172.457.155.702.51.702 1.007 0 .69-.439 1.343-1.111 1.524-.281.077-.515.096-1.1.096h-2.272l1.041-4.95h1.86v.003zm-1.681 4.102h1.019c.53 0 1.191-.033 1.191-.764 0-.62-.577-.59-1.012-.59h-.909l-.289 1.354zm.442-2.084h.983c.482 0 .975-.078.975-.69 0-.501-.497-.487-.847-.487h-.87l-.241 1.177z" fill="#111B2D"/><path d="M70.067 18.748l-2.97 16.436H45.662l2.973-16.435h5.4l-2.115 11.74h2.616l2.115-11.74h5.4l-2.115 11.74h2.616l2.115-11.74h5.4zm18.041 0l-2.974 16.436h-5.608l1.673-9.206h-.084l-5.378 9.206h-6.55l2.97-16.435h5.608l-1.695 9.394h.084l5.4-9.395h6.554zm17.062 0l-2.971 16.436h-5.608l1.089-6.056h-3.749l-1.088 6.056H87.23l2.974-16.435h5.612l-1.027 5.684h3.745l1.027-5.684h5.608zm29.136 0l-.69 3.877h-7.179l-.439 2.372h6.865l-.668 3.758h-6.865l-.461 2.56h7.326l-.713 3.873h-12.809l2.974-16.436h12.659v-.003zm51.16 0l-2.974 16.436h-5.608l1.674-9.206h-.084l-5.378 9.206h-6.551l2.974-16.435h5.608l-1.695 9.394h.084l5.403-9.395h6.547zm-79.251 16.436a.716.716 0 0 1-.556-.265c-.774-.93-1.11-2.235-.895-3.46l1.432-7.927c.081-.457.252-.888.501-1.254a13.678 13.678 0 0 1 2.773-3.072 2.036 2.036 0 0 1 1.308-.461h8.728l-.698 3.88h-6.839l-1.567 8.68h6.85l-.698 3.88h-10.339zm44.291-15.274c-.084-.645-.606-1.154-1.268-1.154h-12.78l-2.97 16.425h5.604l.848-4.692h7.183a1.84 1.84 0 0 0 1.582-.926c1.637-2.825 2.243-6.197 1.801-9.653zm-6.335 6.418a.636.636 0 0 1-.541.317h-2.992l.727-4.009h2.985c.226 0 .405.174.435.395.153 1.18-.055 2.33-.614 3.297zm42.534 8.856a.707.707 0 0 1-.555-.265c-.779-.93-1.115-2.235-.895-3.46l1.432-7.927c.076-.457.255-.888.5-1.254a13.678 13.678 0 0 1 2.773-3.072 2.036 2.036 0 0 1 1.308-.461h8.728l-.697 3.88h-6.84l-1.567 8.68h6.85l-.698 3.88h-10.339zm-21.497-8.31v-.088a9.779 9.779 0 0 0 1.235-6.407c-.022-.148-.041-.295-.07-.443a1.417 1.417 0 0 0-1.392-1.184h-11.779l-2.952 16.425h10.504c.771 0 1.476-.32 1.984-.826a8.713 8.713 0 0 0 2.506-7.207c-.007-.089-.022-.181-.036-.27zm-5.696 4.633a.517.517 0 0 1-.449.262h-2.982l.603-3.327h2.978c.186 0 .336.144.358.328.128.978-.044 1.933-.508 2.737zm1.078-6.58a.484.484 0 0 1-.417.243h-2.868l.559-3.095h2.864c.176 0 .315.133.333.307.121.907-.04 1.796-.471 2.545z" fill="#E72C3F"/></svg>