<svg xmlns="http://www.w3.org/2000/svg" viewBox="0 0 29.0001 22.317"><defs><style>.cls-1{fill:#3559b5}</style></defs><title>Галочка</title><g id="Слой_2" data-name="Слой 2"><path class="cls-1" d="M11.338 22.317h-.478c-.014-.034-.029-.098-.042-.097a1.328 1.328 0 0 1-.986-.507q-4.585-4.6-9.183-9.19a1.524 1.524 0 0 1-.535-1.091c0-.032-.074-.063-.114-.095v-.357c.04-.052.114-.103.114-.155a1.224 1.224 0 0 1 .374-.857c.869-.9 1.75-1.791 2.656-2.655a1.55 1.55 0 0 1 1.213-.491 2.166 2.166 0 0 1 1.396.653c.901.992 1.919 1.869 2.791 2.894.693.815 1.504 1.53 2.264 2.287.093.093.196.176.279.25a.424.424 0 0 0 .092-.038c1.574-1.574 3.163-3.134 4.718-4.725 1.562-1.598 3.212-3.107 4.694-4.786.84-.951 1.777-1.82 2.694-2.7a1.59 1.59 0 0 1 1.138-.56c.013 0 .028-.063.042-.097h.478c.03.04.057.108.094.115a1.7 1.7 0 0 1 .927.487c.81.814 1.625 1.622 2.432 2.436a1.447 1.447 0 0 1 .49 1.045c0 .031.074.063.114.094v.358c-.034.014-.097.027-.097.042a1.848 1.848 0 0 1-.635 1.232q-7.935 7.925-15.863 15.858l-.21.21a.904.904 0 0 1-.703.326c-.05-.001-.103.074-.155.114z" id="Слой_1-2" data-name="Слой 1"/></g></svg>