<svg xmlns="http://www.w3.org/2000/svg" viewBox="0 0 41.9352 41.9335"><defs><style>.cls-1{fill:#3b5998}</style></defs><title>Фейсбук</title><g id="Слой_2" data-name="Слой 2"><path class="cls-1" d="M21.68 41.934h-1.452c-.18-.027-.359-.058-.54-.08-.867-.1-1.744-.145-2.6-.308a20.288 20.288 0 0 1-11.487-6.349A20.488 20.488 0 0 1 .37 17.057a19.712 19.712 0 0 1 5.86-11A20.446 20.446 0 0 1 24.84.373a20.096 20.096 0 0 1 12.17 7.122 20.402 20.402 0 0 1 4.78 11.331c.046.467.097.934.145 1.4v1.452a2.579 2.579 0 0 0-.06.265c-.132 1.082-.18 2.182-.407 3.244a20.616 20.616 0 0 1-8.516 12.937 20.189 20.189 0 0 1-9.873 3.662c-.467.045-.933.098-1.399.148zm.633-20.993h.432c.83 0 1.659-.005 2.488.003.218.003.325-.04.357-.29.09-.705.218-1.406.33-2.11.082-.515.162-1.03.25-1.591h-3.853c0-.426-.009-.815.002-1.203a1.247 1.247 0 0 1 1.338-1.306c.737-.004 1.475 0 2.212-.002.122 0 .243-.013.368-.02v-3.984c-.044-.02-.064-.039-.084-.038a28.201 28.201 0 0 0-4.412.128 3.71 3.71 0 0 0-3.322 3.287 24.296 24.296 0 0 0-.144 2.682c-.007.144-.001.29-.001.462-.801 0-1.548.009-2.295-.005-.256-.005-.34.074-.337.333.012 1.13.005 2.259.007 3.388a2.415 2.415 0 0 0 .033.267h2.592v.445c0 3.215.005 6.43-.008 9.643 0 .336.097.428.427.422 1.048-.02 2.097-.007 3.145-.007.474 0 .475-.001.475-.47v-9.539z" id="Слой_1-2" data-name="Слой 1"/></g></svg>