<svg xmlns="http://www.w3.org/2000/svg" viewBox="0 0 42 42"><defs><style>.cls-1{fill:url(#Безымянный_градиент_12)}.cls-2{fill:#fff}</style><linearGradient id="Безымянный_градиент_12" x1="21" y1="42" x2="21" gradientUnits="userSpaceOnUse"><stop offset="0" stop-color="#de9445"/><stop offset=".084" stop-color="#dc8b49"/><stop offset=".224" stop-color="#d67153"/><stop offset=".401" stop-color="#cc4863"/><stop offset=".567" stop-color="#c11b74"/><stop offset=".994" stop-color="#7825bc"/></linearGradient></defs><title>Инста</title><g id="Слой_2" data-name="Слой 2"><g id="Слой_1-2" data-name="Слой 1"><circle class="cls-1" cx="21" cy="21" r="21"/><path class="cls-2" d="M26.92 33.805H15.763a2.75 2.75 0 0 0-.27-.055 7.437 7.437 0 0 1-6.447-5.798c-.061-.287-.112-.576-.167-.865V15.596c.021-.108.047-.215.063-.323a7.447 7.447 0 0 1 5.842-6.24c.27-.057.542-.103.813-.155h11.491a2.454 2.454 0 0 0 .24.056 7.437 7.437 0 0 1 6.268 5.607c.085.348.14.703.21 1.055v11.491c-.021.098-.048.194-.062.292a7.426 7.426 0 0 1-5.652 6.212c-.385.092-.78.144-1.17.214zm4.375-12.463h-.003c0-1.712.024-3.424-.005-5.135a4.86 4.86 0 0 0-4.78-4.808q-5.162-.061-10.326 0a4.838 4.838 0 0 0-4.78 4.776q-.063 5.175-.002 10.353a4.861 4.861 0 0 0 4.847 4.77q5.093.034 10.187-.005a5.048 5.048 0 0 0 1.47-.245 4.855 4.855 0 0 0 3.387-4.572c.023-1.711.005-3.423.005-5.134z"/><path class="cls-2" d="M21.342 27.794a6.454 6.454 0 1 1 6.456-6.449 6.471 6.471 0 0 1-6.456 6.449zm-3.929-6.469a3.928 3.928 0 1 0 3.953-3.911 3.917 3.917 0 0 0-3.953 3.911z"/><circle class="cls-2" cx="27.802" cy="14.942" r="1.55" transform="rotate(-89.767 27.802 14.942)"/></g></g></svg>