<svg xmlns="http://www.w3.org/2000/svg" viewBox="0 0 42 42"><defs><style>.cls-1{fill:url(#Безымянный_градиент_17)}</style><linearGradient id="Безымянный_градиент_17" x1="21" y1="42" x2="21" gradientUnits="userSpaceOnUse"><stop offset="0" stop-color="#ff9500"/><stop offset=".325" stop-color="#ff9e00"/><stop offset=".862" stop-color="#ffb800"/><stop offset=".994" stop-color="#ffbf00"/></linearGradient></defs><title>Телефон</title><g id="Слой_2" data-name="Слой 2"><g id="Слой_1-2" data-name="Слой 1"><circle class="cls-1" cx="21" cy="21" r="21"/><path d="M11.117 16.775a5.133 5.133 0 0 1 1.727-4.137 1.52 1.52 0 0 1 2.325.026q1.347 1.326 2.669 2.676a1.5 1.5 0 0 1 .013 2.282c-.365.39-.777.74-1.112 1.153a.73.73 0 0 0-.092.643 13.75 13.75 0 0 0 6.022 6.081.567.567 0 0 0 .76-.134c.36-.37.722-.737 1.098-1.089a1.494 1.494 0 0 1 2.24.014q1.37 1.342 2.71 2.715a1.518 1.518 0 0 1 .007 2.287 4.814 4.814 0 0 1-5.195 1.503 15.563 15.563 0 0 1-3.502-1.365 23.355 23.355 0 0 1-8.488-8.407 7.763 7.763 0 0 1-1.181-4.248z"/></g></g></svg>