<svg xmlns="http://www.w3.org/2000/svg" viewBox="0 0 79 80.3601"><defs><style>.cls-1{fill:#3559b5}</style></defs><title>Встреча</title><g id="Слой_2" data-name="Слой 2"><g id="Слой_1-2" data-name="Слой 1"><path class="cls-1" d="M40.433 0c.736.16 1.472.317 2.207.479a15.226 15.226 0 0 1 4.501 28.118c-.378.224-.742.47-1.32.84a25.206 25.206 0 0 1 9.887 5.608l2.664-3.163L79 52.513l-6.586 6.526-2.516-3.345-2.535 3.202-2.687-3.282-5.935 5.929 1.856 1.962-13.868 13.868-1.206-1-3.067 3.597-3.46-3.785-3.52 4.175-2.835-3.468-.934.693L18.42 64.318l2.67-2.16-6.539-6.63-2.522 3.143-.557-.013-1.995-2.764-.533.084-2.433 3.06L0 52.536 20.535 32l2.615 3.202a25.407 25.407 0 0 1 10.052-5.775c-.474-.307-.739-.49-1.015-.655-5.426-3.233-8.109-8.015-7.909-14.32A15.211 15.211 0 0 1 37.63.275 5.886 5.886 0 0 0 38.602 0zm7.347 61.867l1.74-1.662 5.607 6.036 2.7-2.495a2.201 2.201 0 0 0-.22-.344q-6.467-6.478-12.928-12.96c-.562-.568-.885-.294-1.301.126-2.123 2.138-4.274 4.249-6.38 6.402a23.295 23.295 0 0 0-1.535 1.898l-8.014-8.042 6.976-6.964 1.308 1.233-5.625 5.665 5.072 5.052 8.867-8.964L56.87 59.683l5.756-5.705a2.659 2.659 0 0 0-.282-.382c-3.69-3.699-7.37-7.409-11.1-11.067a2.392 2.392 0 0 0-1.54-.475c-6.79-.031-13.578-.01-20.367-.035a2.432 2.432 0 0 0-1.911.766c-3.43 3.475-6.895 6.914-10.344 10.368-.263.263-.5.552-.58.642l6.447 6.399 3.336-3.608c2.307 2.309 4.486 4.484 6.658 6.665 2.204 2.213 4.402 4.432 6.623 6.668l1.579-1.217 5.656 5.915 2.918-2.804-6.029-5.855 1.66-1.579 5.598 5.977 2.824-2.588zm4.71-43.963a3.269 3.269 0 0 0-.573-.209 36.035 36.035 0 0 0-1.48-.13 29.823 29.823 0 0 1-14.537-4.54 1.138 1.138 0 0 0-1.487.022c-2.217 1.384-4.468 2.732-6.806 3.894-.928.462-1.137.847-.89 1.784a13.22 13.22 0 0 0 17.987 8.799 13.03 13.03 0 0 0 7.786-9.62zm-15.893-6.87c4.91 3.25 10.261 4.412 16.077 4.625A12.803 12.803 0 0 0 46.822 4.41a12.969 12.969 0 0 0-14.52-.06 12.83 12.83 0 0 0-5.946 10.89 18.934 18.934 0 0 0 9.84-7.176l1.778.894zM20.261 35.087L2.975 52.373l3.543 3.662 12.376-12.4 1.688 1.185a12.995 12.995 0 0 0-1.062.836q-4.055 4.033-8.092 8.084c-.89.892-.867.993.06 1.57L25.96 40.816zm39.89 8.223l12.48 12.554 3.506-3.406L58.83 35.144l-5.907 5.78 14.617 14.65 1.13-.954-9.959-9.913zM33.058 31.688l6.462 7.415 6.45-7.41a20.58 20.58 0 0 0-12.912-.006zm8.757 7.918l.143.301c2.808 0 5.616.003 8.424-.007a.811.811 0 0 0 .525-.168c1.071-1.06 2.123-2.14 3.34-3.378-1.34-.954-2.53-1.89-3.806-2.688-2.228-1.39-2.256-1.36-4 .628-1.548 1.764-3.084 3.54-4.626 5.312zm-4.72.308l.115-.325c-1.974-2.265-3.943-4.534-5.937-6.782a.76.76 0 0 0-.683-.167 17.69 17.69 0 0 0-5.65 3.808 11.124 11.124 0 0 1 .944 1.008 5.812 5.812 0 0 0 5.892 2.498 45.524 45.524 0 0 1 5.319-.04zM21.219 64.885c.706.614 1.33 1.232 2.039 1.732a1.05 1.05 0 0 0 1-.014 99.689 99.689 0 0 0 4.028-4.018.971.971 0 0 0 .107-.92c-.535-.773-1.172-1.474-1.773-2.205zm6.167 5.867l4.92-4.77-1.819-2.197-5.014 5.008zm9.13-1.299a19.432 19.432 0 0 1-1.602-1.339c-.475-.487-.82-.529-1.305-.012-.857.915-1.77 1.778-2.657 2.665-1.978 1.976-1.978 1.977.227 3.762a.793.793 0 0 0 .205.09zm5.771 7.386l1.982-1.968c-1.493-1.452-2.894-2.84-4.334-4.187-.217-.203-.615-.213-.93-.312.1.341.101.78.32 1.006.733.759 1.545 1.442 2.329 2.157l-1.18 1.446zm-5.072-4.578l-3.25 3.272a9.04 9.04 0 0 0 .978 1.018c.18.142.631.226.751.114 1.011-.946 1.974-1.944 3.01-2.986z"/><path class="cls-1" d="M20.707 41.616l.948-1.11 1.479 1.587-1.026.932zm37.65.322l-1.402 1.349-1.035-1.253 1.524-1.22z"/></g></g></svg>