<svg xmlns="http://www.w3.org/2000/svg" viewBox="0 0 58.2858 80.0001"><defs><style>.cls-1{fill:#3559b5}</style></defs><title>Суд</title><g id="Слой_2" data-name="Слой 2"><g id="Слой_1-2" data-name="Слой 1"><path class="cls-1" d="M0 53.714V40.457c2.89.024 5.782.032 8.672.083.738.013.857-.438.99-.986a19.704 19.704 0 0 1 12.51-14.339c.318-.128.628-.278 1.129-.501-.599-.387-.982-.623-1.353-.877a12.709 12.709 0 0 1-5.838-10.899 12.971 12.971 0 0 1 9.806-12.4c.805-.196 1.618-.36 2.427-.538h1.6l1.763.373a13.111 13.111 0 0 1 10.25 10.3 12.934 12.934 0 0 1-5.904 13.353c-.302.194-.589.412-.859.602.069.156.074.202.099.218a1.607 1.607 0 0 0 .292.165c6.945 2.634 11.402 7.467 13.12 14.76a1.233 1.233 0 0 0 .91.725c2.89.033 5.781-.015 8.672-.038v13.256c-2.24-.018-4.48-.016-6.718-.066-.812-.017-.915.403-.914 1.067q.02 12.362.014 24.725a4.124 4.124 0 0 0 .075.56h-43.2c.027-.453.077-.905.078-1.358q.009-6.608.003-13.217c0-3.57-.01-7.14.008-10.71.004-.664-.102-1.084-.914-1.067-2.239.05-4.479.048-6.718.066zm48.463 24.02c.036-.294.07-.443.07-.593.005-7.427-.01-14.853.026-22.28.005-.981-.495-.995-1.21-.995q-18.167.014-36.334-.014c-.991-.002-1.3.25-1.293 1.274.044 7.16.022 14.32.026 21.48 0 .366.045.731.07 1.127zM2.206 42.638v7.386c0 1.668.002 1.67 1.687 1.67h50.493a3.217 3.217 0 0 0 1.019-.04c.259-.09.632-.385.635-.595.043-2.772.029-5.545.029-8.421zm37.57-27.363a14.202 14.202 0 0 0-1.41-.227 25.28 25.28 0 0 1-12.263-3.762 1.026 1.026 0 0 0-1.3.074c-1.774 1.087-3.555 2.177-5.418 3.093-.83.407-1.042.727-.782 1.609a11.045 11.045 0 0 0 12.58 7.73c4.3-.812 8.017-4.45 8.593-8.517zm-12.81-5.87a24.783 24.783 0 0 0 13.15 3.694c-.221-4.247-1.952-7.404-5.447-9.397a10.498 10.498 0 0 0-11.916.557 10.512 10.512 0 0 0-4.55 8.423 15.617 15.617 0 0 0 8.003-5.807l1.712.93zm7.19 20.7a33.71 33.71 0 0 1-2.268 2.51 5.527 5.527 0 0 0-1.798 4.75c.152 3.163.041 3.19 3.19 3.146a3.235 3.235 0 0 0 1.771-.445 16.683 16.683 0 0 0 2.209-2.128c.734-.78.628-1.264-.344-1.709a4.477 4.477 0 0 1-2.73-3.277 16.195 16.195 0 0 1-.03-2.846zm-9.68.367a5.71 5.71 0 0 0-.087.796 4.612 4.612 0 0 1-3.04 5.053c-.859.369-.658 1.022-.148 1.565.729.775 1.483 1.53 2.277 2.238a1.76 1.76 0 0 0 1.007.387c.91.053 1.826-.01 2.738.026.705.028.943-.29.934-.953-.02-1.446.002-2.892-.015-4.337a1.275 1.275 0 0 0-.187-.755c-1.087-1.294-2.208-2.56-3.478-4.02zm-12.88 9.97h9.11a10.536 10.536 0 0 1-1.103-1.237 3.971 3.971 0 0 1-.758-1.648 1.64 1.64 0 0 0-.98-1.45 12.295 12.295 0 0 1-2.2-2.062 5.205 5.205 0 0 1-.594-1.24 17.52 17.52 0 0 0-3.475 7.638zm35.108.024a16.519 16.519 0 0 0-3.374-7.417 5.393 5.393 0 0 1-3.161 3.324.85.85 0 0 0-.428.696c.21 1.209-.525 1.9-1.284 2.612a4.929 4.929 0 0 0-.54.785zM24.01 26.813l5.131 5.846 5.153-5.858a17.05 17.05 0 0 0-10.284.012zm17.237 5.202a2.498 2.498 0 0 0-2.553-2.607 2.618 2.618 0 0 0-2.6 2.507 2.728 2.728 0 0 0 2.616 2.646 2.577 2.577 0 0 0 2.536-2.546zm-24.005-.01a2.602 2.602 0 0 0 2.538 2.555 2.715 2.715 0 0 0 2.623-2.635A2.617 2.617 0 0 0 19.7 29.41a2.517 2.517 0 0 0-2.459 2.596z"/><path class="cls-1" d="M44.63 65.81c0-2.343-.053-4.468.021-6.588.038-1.095-.313-1.496-1.42-1.437-1.442.077-2.893-.013-4.338.028-.799.023-.947-.367-.946-1.05 0-.67.213-.953.923-.943 2.283.031 4.568.025 6.852.003.63-.006.886.217.881.86-.018 2.74.01 5.481-.015 8.222-.013 1.477-1.115.63-1.959.905zm-32.943 7.075c0-.57.027-1.143-.006-1.712-.044-.747.07-1.189 1.022-1.192 1.022-.004.976.569.955 1.243-.01.304-.002.61-.002.913.002 1.593 0 1.631 1.608 1.743.729.051.759.466.763.994.003.541-.065 1.01-.779.98-.19-.008-.38.005-.57.006-2.991.028-2.991.028-2.991-2.975zm21.32-17.202a12.678 12.678 0 0 1 2.235.601c.137.061.043 1.251-.144 1.312a2.93 2.93 0 0 1-1.964.08c-.341-.162-.337-1.058-.487-1.624zm18.165-11.24c3 0 2.995 0 2.962 2.998-.008.625.079 1.194-.893 1.192-.857 0-1.194-.26-1.092-1.108.087-.73-.249-1.042-.994-.985-.567.043-1.143-.023-1.711.015-.742.049-1.204-.039-1.206-1.002-.001-.956.37-1.198 1.223-1.12.566.052 1.14.01 1.712.01zM9.652 49.74a26.176 26.176 0 0 1-4.91-.074c-1.237-.242-.392-1.594-.56-2.43-.088-.444-.256-1.15.612-1.186.683-.028 1.42-.166 1.385.948-.007.206.424.526.708.615a3.933 3.933 0 0 0 1.131.03c1.89 0 1.89 0 1.634 2.097zm32.794-3.453c.173-.603.17-1.467.569-1.736a2.013 2.013 0 0 1 1.8.144 1.74 1.74 0 0 1 .063 1.532 6.99 6.99 0 0 1-2.1.397z"/></g></g></svg>