<svg xmlns="http://www.w3.org/2000/svg" viewBox="0 0 57.1429 80.0001"><defs><style>.cls-1{fill:#3559b5}</style></defs><title>Докум</title><g id="Слой_2" data-name="Слой 2"><g id="Слой_1-2" data-name="Слой 1"><path class="cls-1" d="M57.143 12.343V80H8.457c-1.092-.666-.845-1.749-.848-2.748-.006-2.286-.002-2.307-2.227-2.353-.984-.02-1.495-.419-1.48-1.432.013-.799-.048-1.6.01-2.395.067-.959-.327-1.28-1.26-1.219-.967.062-2.004.2-2.652-.824V4.8a1.941 1.941 0 0 1 1.923-.89c1.397.056 2.8.045 4.196-.009.347-.013.936-.24.986-.463C7.52 1.545 8.855.626 10.514 0h.914c1.36.528 2.795 1.078 3.174 2.652.286 1.191.94 1.294 1.955 1.29 9.203-.03 18.407-.017 27.61-.017 2.722 0 2.745-.001 2.855 2.727.03.743.294 1.02 1.024.977.72-.042 1.444-.01 2.167-.007 1.518.006 1.815.296 1.823 1.774.003.6 0 1.198 0 2.015 1.164 0 2.184.03 3.2-.01a1.83 1.83 0 0 1 1.906.942zM2.402 36.909c0 9.825.013 19.65-.02 29.475-.004.994.274 1.317 1.28 1.315q19.936-.04 39.872 0c1.046.003 1.357-.322 1.356-1.373q-.043-29.418.001-58.837c.002-1.102-.314-1.419-1.413-1.411-6.778.046-13.557.023-20.336.023-4.189 0-8.378.03-12.566-.021-1.02-.013-1.312.319-1.288 1.31.06 2.512.008 5.026.026 7.54.01 1.233.695 2.034 1.68 2.047 1.014.015 1.653-.747 1.66-2.015.01-1.638.004-3.275.004-4.913 0-.771.292-1.425 1.11-1.466.88-.044 1.111.644 1.112 1.405.002 1.79.048 3.581-.016 5.369a3.712 3.712 0 0 1-3.947 3.81 3.754 3.754 0 0 1-3.767-3.999c-.018-2.665-.024-5.331.003-7.997.008-.766-.225-1.132-1.044-1.079a12.25 12.25 0 0 1-2.282-.008c-1.188-.147-1.455.327-1.45 1.464.043 9.787.025 19.574.025 29.36zm47.467 4.418c0-10.018-.013-20.036.02-30.053.002-1.062-.27-1.53-1.404-1.469-1.375.074-1.448.079-1.449 1.511q-.002 28.111 0 56.222c0 2.325-.007 2.33-2.384 2.33H7.742a6.95 6.95 0 0 0-1.026.024.818.818 0 0 0-.546.295 1.612 1.612 0 0 0 1.474 2.478q20.284.003 40.567 0c1.653 0 1.657-.008 1.657-1.628q.003-14.855.001-29.71zm4.795 36.201V13.792c-2.554-.5-2.626-.445-2.626 1.936V72.85c0 1.793-.246 2.04-2.031 2.04H11.393a6.119 6.119 0 0 0-1.026.028.787.787 0 0 0-.518.335 1.502 1.502 0 0 0 1.37 2.332q21.078.001 42.156-.002c.408 0 .816-.034 1.29-.055zM9.481 3.781h3.153c-.31-1.007-.863-1.411-1.74-1.345A1.39 1.39 0 0 0 9.482 3.78z"/><path class="cls-1" d="M23.543 27.684l8.336-.002c.741-.001 1.426.09 1.444 1.038.018.992-.658 1.152-1.465 1.15q-8.28-.008-16.56.003c-.777.001-1.43-.226-1.47-1.068-.044-.971.691-1.127 1.492-1.125 2.741.01 5.482.004 8.223.004zm-.002 7.206h-7.766c-.228 0-.458.01-.685-.004-.74-.046-1.277-.394-1.268-1.172.008-.745.553-1.033 1.246-1.034q8.509-.005 17.017 0c.744 0 1.277.286 1.24 1.136-.038.84-.612 1.07-1.332 1.071q-4.226.008-8.452.003zm.085 5.023c-1.102 0-2.205.01-3.307-.002-.79-.009-1.487-.224-1.492-1.174-.005-.897.678-1.132 1.409-1.14 2.243-.025 4.486-.016 6.73-.005.758.003 1.444.305 1.458 1.12.015.876-.67 1.2-1.49 1.2q-1.654.004-3.308.002z"/></g></g></svg>