<svg xmlns="http://www.w3.org/2000/svg" viewBox="0 0 75.4287 80.0001"><defs><style>.cls-1{fill:#3559b5}</style></defs><title>Заявка</title><g id="Слой_2" data-name="Слой 2"><g id="Слой_1-2" data-name="Слой 1"><path class="cls-1" d="M0 66.057c.731-.962.793-.915 2.13-1.165 1.086-.204 2.149-.547 3.255-.676.363-.494.969-.06 1.442-.407.363-.265.987-.146 1.474-.275a21.769 21.769 0 0 1 3.254-.689c.246-.363.62-.206.938-.21a211.22 211.22 0 0 1 4.683.002c.36.004.461-.116.43-.451-.026-.264-.006-.533-.006-.8L17.602 2A5.296 5.296 0 0 1 17.65.99c.094-.478.515-.712.865-.99h34.514c.582.468 1.194.905 1.741 1.412.96.891 1.847 1.856 2.886 2.67.909.712 1.646 1.619 2.56 2.351 1.075.864 1.973 1.941 3.064 2.81.845.672 1.547 1.503 2.395 2.193 1.366 1.112 2.583 2.406 3.885 3.6a2.553 2.553 0 0 1 .856 2.052q-.034 20.94-.016 41.882c0 .19-.002.38 0 .57.006.564.007.57.52.573 1.027.005 2.055.025 3.08-.007a1.063 1.063 0 0 1 1.207.74c.027.077.146.123.222.183V76.57c-.077.099-.192.186-.222.297-.113.411-.07.94-.317 1.226a3.615 3.615 0 0 1-2.71 1.687c-.06 0-.12.143-.18.22H21.029c-.06-.077-.133-.226-.179-.218a1.819 1.819 0 0 1-1.394-.488 4.14 4.14 0 0 1-1.358-1.403 5.75 5.75 0 0 1-.511-2.528c.047-1.595.015-3.192.012-4.787-.001-.629-.007-.632-.686-.633-1.33-.003-2.66.021-3.99-.011a13.83 13.83 0 0 1-1.728-.224c-.098-.015-.177-.134-.276-.155-1.187-.257-2.377-.5-3.564-.756q-1.257-.271-2.51-.552c-.904-.204-1.815-.38-2.715-.595-.651-.156-1.4-.095-1.855-.747L0 66.514zm20.114-33.606v19.882l.001 9.712c0 .572.007.582.51.582 4.685.003 9.37-.007 14.054.018a.54.54 0 0 0 .609-.441 1.205 1.205 0 0 1 .87-.872 3.948 3.948 0 0 1 .77-.072q10.17-.005 20.34-.003a4.468 4.468 0 0 1 .456.002 1.346 1.346 0 0 1 1.245 1.277q.007 5.599.006 11.198a.94.94 0 0 1-.248.704 1.533 1.533 0 0 1-1.272.548c-4.304-.026-8.607-.014-12.911-.014a2.617 2.617 0 0 1-.57-.007 1.322 1.322 0 0 1-1.167-.97c-.084-.408.195-.712.436-1.03.262-.344.59-.278.92-.278q5.599-.003 11.198-.001a3.495 3.495 0 0 0 .796-.015c.193-.046.476-.203.504-.352a2.248 2.248 0 0 0-.03-1.118c-.041-.12-.54-.097-.832-.111-.342-.017-.685-.004-1.028-.004q-9.027 0-18.053.006c-.474.001-.988.001-1.16-.475-.25-.7-.747-.68-1.318-.679-3.809.01-7.618.003-11.426.006-.872.001-1.744.019-2.616.029-.028.902-.071 1.805-.081 2.707-.014 1.295-.01 2.59 0 3.885a.923.923 0 0 0 .896.92c.228.01.457 0 .686 0h45.248c.228 0 .457.004.685 0 .484-.009.652-.146.461-.604a5.151 5.151 0 0 1-.202-2.085q-.01-28.165-.007-56.331c0-.338.105-.855-.062-.973a2.065 2.065 0 0 0-1.08-.117q-6.97-.008-13.94-.005a.981.981 0 0 1-1.14-.904 3.5 3.5 0 0 1-.005-.57V3.213c-.001-.693-.005-.693-.74-.699H21.095c-.228 0-.458.011-.685-.003-.266-.016-.312.12-.3.346.016.266.004.533.004.8zm27.206 31.32l-8.907.001c-.69 0-.696.005-.698.624q-.005 1.941 0 3.882c.002.515.01.52.572.521q8.164.002 16.33.001c.532 0 1.065-.01 1.598.004.295.009.487.004.48-.4q-.038-2.112 0-4.225c.006-.384-.155-.414-.469-.413-2.968.01-5.937.006-8.906.006zm12.566-48.685c1.865 0 3.73.003 5.596-.008a.539.539 0 0 0 .336-.18c.028-.03-.047-.213-.119-.275-.444-.387-.91-.749-1.353-1.138-.756-.664-1.437-1.402-2.225-2.045-1.189-.97-2.216-2.13-3.387-3.138-1.483-1.276-2.86-2.675-4.281-4.02-.055-.053-.12-.162-.16-.152-.122.029-.318.084-.334.16a3.402 3.402 0 0 0-.016.683v7.994c0 .571.025 1.144-.009 1.713-.023.39.16.413.47.411 1.827-.011 3.655-.005 5.482-.005zM23.828 67.657l7.993-.001c.719-.001 1.437-.021 2.156-.032.027-.789.049-1.577.083-2.365.01-.223-.03-.363-.296-.347-.228.013-.457.002-.685.002l-17.243.002c-.68 0-1.36.02-2.041.032-.027.712-.065 1.424-.077 2.136-.01.565.004.572.632.572q4.739.004 9.478.001zM70.4 69.6q0 3.37.004 6.742a1.275 1.275 0 0 0 .092.642c.131.207.377.468.581.476.47.018.975.18 1.42-.129a1.044 1.044 0 0 0 .427-.97c-.016-3.961-.007-7.923-.013-11.884 0-.677-.042-1.353-.064-2.03-.679-.015-1.36-.011-2.037-.054-.384-.025-.418.148-.416.465.012 2.247.006 4.494.006 6.742zm-58.971-3.372c0-.303.006-.606-.009-.908-.002-.034-.13-.101-.187-.09-1.322.277-2.624.653-3.968.83-.063.009-.12.073-.179.111a.925.925 0 0 0 .162.158c.12.07.253.18.377.176.955-.036 1.794.596 2.761.466a.671.671 0 0 0 .894.191c.182-.162.11-.61.149-.934z"/><path class="cls-1" d="M62.857 66.403c0 .684.012 1.368-.007 2.052a1.7 1.7 0 0 1-.157.616 1.356 1.356 0 0 1-1.21.872 1.527 1.527 0 0 1-1.135-1.267c-.025-.378-.005-.76-.005-1.14 0-1.102.018-2.204-.008-3.306a1.757 1.757 0 0 1 .57-1.362 1.054 1.054 0 0 1 1.396.003 1.635 1.635 0 0 1 .56 1.252c-.013.76-.004 1.52-.004 2.28z"/></g></g></svg>