<svg xmlns="http://www.w3.org/2000/svg" viewBox="0 0 78.6398 80.0001"><defs><style>.cls-1{fill:#3559b5}</style></defs><title>Деньги</title><g id="Слой_2" data-name="Слой 2"><g id="Слой_1-2" data-name="Слой 1"><path class="cls-1" d="M61.313 0v3.764c1.136 0 2.305.039 3.47-.014.78-.036 1.088.195 1.069 1.024-.022.933-.203 2.18.299 2.71.447.473 1.737.228 2.644.162.962-.07 1.158.344 1.156 1.202q-.034 11.833.003 23.667c.003.915-.224 1.27-1.214 1.268q-25.275-.04-50.55-.006c-.85.001-1.212-.175-1.198-1.14.038-2.715-.01-2.77-2.661-2.724-1.112.02-1.347-.413-1.332-1.411.037-2.494.258-2.27-2.266-2.296-2.784-.03-2.416.388-2.422-2.443-.015-7.468-.003-14.935-.01-22.403 0-.453-.071-.906-.108-1.36zM19.217 9.788c-.028.53-.066.904-.066 1.278-.003 6.438.022 12.876-.026 19.313-.008 1.102.3 1.43 1.413 1.427q22.934-.05 45.869.004c1.216.004 1.453-.409 1.445-1.524-.048-6.322-.023-12.645-.024-18.968 0-1.528-.002-1.53-1.572-1.53H20.732zm39.81-7.572h-3.01q-22.128 0-44.257-.014c-.886 0-1.417.061-1.371 1.199.09 2.257.026 4.52.026 6.781 0 4.292-.008 8.583.017 12.875.002.368.119.935.366 1.068 1.192.639 2.216-.042 2.217-1.406q.005-8.737.003-17.473c0-1.481.005-1.482 1.528-1.482h44.48zm4.606 3.74c-.352-.026-.577-.058-.803-.058q-23.381-.004-46.763-.02c-.926-.002-1.06.384-1.057 1.167q.033 9.824.004 19.648c-.002.75.089 1.212 1.036 1.222 1.014.012.973-.557.972-1.25-.009-5.86.032-11.72-.036-17.579-.014-1.196.333-1.447 1.474-1.444q21.83.058 43.661.025h1.512zM28.087 68.697l1.468 1.579L19.875 80 0 60.001l9.873-9.913c.203.334.46.809.767 1.25.475.683.915.548 1.463-.005 3.316-3.35 6.679-6.653 9.983-10.015a3.05 3.05 0 0 1 2.395-1.017c8.775.04 17.55.02 26.326.025 1.896 0 1.677-.173 1.689 1.632.001.227.03.453.063.916.393-.334.675-.546.925-.79.958-.94 1.897-1.898 2.859-2.832 2.406-2.336 6.448-2.695 8.918-.574.51.438 1.383.428 1.978.8a20.507 20.507 0 0 0 5.593 2.074c1.359.378 2.527 1.438 3.89 2.26l-1.464 1.64 3.382 2.591c-.412.445-.66.732-.928 1q-8.46 8.448-16.909 16.907a2.954 2.954 0 0 1-2.319.936c-9.005-.031-18.01.02-27.015-.055a3.489 3.489 0 0 0-3.382 1.866zm-1.48-1.667a7.389 7.389 0 0 0 .915-.887 3.369 3.369 0 0 1 3.095-1.273c9.04.052 18.082.018 27.123.043a2.6 2.6 0 0 0 2.02-.83q7.414-7.459 14.871-14.873c.288-.288.547-.604.926-1.027a8.472 8.472 0 0 0-1.22-.616 5.74 5.74 0 0 0-6.134 1.408c-2.876 2.868-5.728 5.76-8.646 8.582a2.864 2.864 0 0 1-1.774.74c-3.792.067-7.585.018-11.378.039A10.966 10.966 0 0 1 38.251 55c-1.974-1.982-3.96-3.95-5.935-5.93-.228-.228-.421-.489-.78-.909h1.342c3.792-.005 7.585.015 11.377-.025 3.015-.03 5.947-2.81 5.938-5.63-.332-.02-.669-.062-1.005-.062-8.122-.003-16.244-.015-24.365.027a2.52 2.52 0 0 0-1.573.684c-2.965 2.885-5.869 5.833-8.817 8.735a15.225 15.225 0 0 1-1.62 1.245zm-6.595 10.072l6.448-6.498L9.454 53.516 2.99 59.981zm16.85-26.823c1.353 1.462 2.508 2.895 3.856 4.113a7.244 7.244 0 0 0 4.954 1.816c3.714.015 7.43.035 11.143.09a2.57 2.57 0 0 0 2.01-.867c2.578-2.621 5.2-5.2 7.794-7.805a8.515 8.515 0 0 1 5.276-2.506 5.24 5.24 0 0 0 1.554-.755l-.099-.379a8.567 8.567 0 0 0-1.21-.567 5.777 5.777 0 0 0-6.098 1.569c-2.847 2.84-5.684 5.69-8.551 8.51a2.185 2.185 0 0 1-1.234.672c-1.489.082-2.986.01-4.479.041-.72.016-.802-.385-.801-.947 0-.587.038-1.079.828-1.057.919.026 1.842-.05 2.757.014a2.776 2.776 0 0 0 2.319-.963c3.228-3.252 6.507-6.453 9.825-9.73a5.47 5.47 0 0 0-6.447 1.279c-2.237 2.258-4.471 4.521-6.772 6.713a2.88 2.88 0 0 1-1.784.724c-4.48.061-8.962.035-13.443.035zm12.906-2.595l.189.36a3.049 3.049 0 0 0 3.155-.951c2.597-2.574 5.32-5.02 7.988-7.522.028-.025-.018-.128-.04-.253a5.158 5.158 0 0 0-3.518 1.645c-1.68 1.674-3.354 3.352-5.044 5.014a4.936 4.936 0 0 1-.91.655c-.599.364-1.212.703-1.82 1.052z"/><path class="cls-1" d="M43.53 31.064A10.328 10.328 0 1 1 53.875 20.69 10.318 10.318 0 0 1 43.53 31.064zm-8.321-10.32a8.247 8.247 0 0 0 8.19 8.304 8.315 8.315 0 1 0 .107-16.63 8.259 8.259 0 0 0-8.297 8.327zM12.064 59.906a2.897 2.897 0 0 1-2.968 3.064 2.98 2.98 0 0 1-3.127-3.046 3.074 3.074 0 0 1 3.06-3.047 2.99 2.99 0 0 1 3.035 3.03zM9.125 61.37c.42-.694.875-1.117.854-1.515-.016-.304-.69-.855-.966-.796a1.397 1.397 0 0 0-.863 1.005c-.031.318.489.69.975 1.306zm39.243-7.086c-.48-.12-1.194-.097-1.38-.398a1.87 1.87 0 0 1 .099-1.493c.081-.181 1.033-.248 1.118-.1a7.029 7.029 0 0 1 .503 1.687z"/></g></g></svg>