<svg xmlns="http://www.w3.org/2000/svg" viewBox="0 0 42.0001 42.0001"><defs><style>.cls-1{fill:#4d76a1}</style></defs><title>Вконтакте</title><g id="Слой_2" data-name="Слой 2"><path class="cls-1" d="M42 20.221v1.558a.91.91 0 0 0-.042.157c-.047.555-.082 1.111-.14 1.665a17.746 17.746 0 0 1-.592 3.011 20.707 20.707 0 0 1-7.35 10.953 20.522 20.522 0 0 1-11.923 4.393.92.92 0 0 0-.174.042h-1.558a1.083 1.083 0 0 0-.173-.043c-.449-.036-.898-.062-1.346-.104a18.34 18.34 0 0 1-3.068-.563 20.643 20.643 0 0 1-10.65-6.747A20.556 20.556 0 0 1 .04 21.783.898.898 0 0 0 0 21.61v-1.185a.95.95 0 0 0 .041-.16c.06-.694.097-1.391.177-2.083a18.38 18.38 0 0 1 .863-3.778A20.722 20.722 0 0 1 8.343 4.276 20.53 20.53 0 0 1 20.248.041.92.92 0 0 0 20.424 0h1.186a.682.682 0 0 0 .156.041 19.3 19.3 0 0 1 2.736.274 20.49 20.49 0 0 1 5.904 1.926 20.99 20.99 0 0 1 11.552 17.807.905.905 0 0 0 .042.173zm-22.516-5.722v.016c-.27 0-.542-.004-.813.001-.275.007-.552.013-.826.037a3.915 3.915 0 0 0-1.265.275 1.465 1.465 0 0 0-.717.62c-.088.158-.053.217.125.252a1.513 1.513 0 0 1 1.436 1.499 19.224 19.224 0 0 1 .133 2.002 10.9 10.9 0 0 1-.068 1.45 5.24 5.24 0 0 1-.23 1.07.576.576 0 0 1-1.011.301 4.337 4.337 0 0 1-.74-.76 23.82 23.82 0 0 1-2.915-5.234 1.215 1.215 0 0 0-1.24-.833c-.289 0-.576-.003-.864 0-.982.01-1.963.014-2.944.038a1.876 1.876 0 0 0-.586.138.372.372 0 0 0-.264.425 2.718 2.718 0 0 0 .153.648 53.883 53.883 0 0 0 2.15 4.351 35.957 35.957 0 0 0 3.394 5.233 11.395 11.395 0 0 0 3.935 3.272 8.95 8.95 0 0 0 3.35.916c.726.044 1.457.024 2.184.006a.954.954 0 0 0 .979-.852c.021-.218.005-.442.041-.657a11.506 11.506 0 0 1 .258-1.268 1.579 1.579 0 0 1 .341-.575.661.661 0 0 1 .912-.147 3.264 3.264 0 0 1 .679.526c.514.538 1.001 1.103 1.506 1.65a4.406 4.406 0 0 0 1.728 1.241 3.58 3.58 0 0 0 1.366.13c1.105-.035 2.21-.027 3.316-.044a1.848 1.848 0 0 0 .932-.266.714.714 0 0 0 .37-.83 3.058 3.058 0 0 0-.325-.754 13.305 13.305 0 0 0-2.223-2.607c-.512-.501-1.044-.983-1.538-1.502a1.088 1.088 0 0 1-.146-1.582c.28-.443.595-.864.912-1.281.858-1.127 1.744-2.233 2.487-3.442a6.138 6.138 0 0 0 .81-1.722c.146-.591-.063-.907-.661-1.006a.527.527 0 0 0-.085-.006h-.858l-3.674.006a2.149 2.149 0 0 1-.286.02.873.873 0 0 0-1.024.65 22.268 22.268 0 0 1-1.69 3.463 13.153 13.153 0 0 1-1.624 2.265 3.04 3.04 0 0 1-.546.45.432.432 0 0 1-.652-.118 1.192 1.192 0 0 1-.22-.432 4.03 4.03 0 0 1-.128-.864c-.009-.716.016-1.432.026-2.148.013-.878.042-1.756.027-2.634a1.068 1.068 0 0 0-.712-1.103 4.855 4.855 0 0 0-1.069-.224c-.533-.049-1.07-.043-1.606-.06z" id="Слой_1-2" data-name="Слой 1"/></g></svg>