<svg xmlns="http://www.w3.org/2000/svg" viewBox="0 0 18.0001 18.0001"><defs><style>.cls-1{fill:#ff6b6b}</style></defs><title>Ошибка</title><g id="Слой_2" data-name="Слой 2"><path class="cls-1" d="M0 9.583V8.417c.017-.098.042-.196.051-.295A8.995 8.995 0 0 1 7.144.204C7.564.119 7.992.067 8.417 0h1.166c.083.016.164.038.248.048a8.806 8.806 0 0 1 7.646 6.007A16.47 16.47 0 0 1 18 8.417v1.166c-.021.15-.046.298-.063.448a8.995 8.995 0 0 1-7.13 7.774c-.405.082-.816.131-1.224.195H8.417c-.208-.031-.416-.066-.624-.094a8.965 8.965 0 0 1-7.544-6.854C.138 10.569.082 10.073 0 9.583zM9.013 4.5c-.38 0-.76-.009-1.14.003a.552.552 0 0 0-.559.638c.173 1.4.355 2.798.525 4.197.022.184.098.243.274.24.575-.006 1.15-.01 1.724.003.22.005.307-.066.334-.293.164-1.383.345-2.764.515-4.147a.553.553 0 0 0-.558-.638c-.372-.012-.744-.003-1.115-.003zM9 13.5a1.126 1.126 0 1 0-1.134-1.119A1.132 1.132 0 0 0 9 13.5z" id="Слой_1-2" data-name="Слой 1"/></g></svg>