<svg xmlns="http://www.w3.org/2000/svg" width="60" height="51"><path fill="#96A1B3" fill-rule="evenodd" d="M47.972 40H44a1 1 0 1 1 0-2h3.972C53.501 38 58 33.501 58 27.972c0-4.811-3.51-9.1-8.166-9.985-.141-.019-2.46-.334-4.684.002a1 1 0 0 1-.301-1.977c1.53-.234 3.061-.197 4.083-.125C48.262 8.135 41.828 2 34.084 2 29.388 2 24.666 4.379 21.8 8.129A8.98 8.98 0 0 1 25 15a1 1 0 1 1-2 0 6.995 6.995 0 0 0-4.119-6.372 6.86 6.86 0 0 0-.838-.322c-.033-.01-.068-.016-.102-.026a6.867 6.867 0 0 0-.792-.177c-.077-.013-.154-.026-.232-.036A6.995 6.995 0 0 0 16 8c-3.86 0-7 3.141-7 7 0 .088.007.175.012.262l.012.188-.009.175C9.008 15.751 9 15.877 9 16v.63l-.568.271C4.705 18.688 2 23 2 27.154 2 33.135 6.865 38 12.845 38H18a1 1 0 1 1 0 2h-5.155C5.762 40 0 34.237 0 27.154c0-4.755 2.857-9.506 7.016-11.773A5.318 5.318 0 0 1 7 15c0-4.963 4.038-9 9-9 .341 0 .677.023 1.007.059.103.012.203.032.305.047.231.034.459.073.683.124.118.027.233.059.349.09a8.946 8.946 0 0 1 1.566.586c.075.037.154.063.228.102C23.396 2.663 28.654 0 34.084 0c8.945 0 16.364 7.194 16.891 16.194C56.173 17.56 60 22.483 60 27.972 60 34.604 54.604 40 47.972 40zm-17.68-13.706a1 1 0 0 1 1.416 0l7.999 7.999a.999.999 0 1 1-1.414 1.414L32 29.414V50a1 1 0 1 1-2 0V29.414l-6.293 6.293a.997.997 0 0 1-1.414 0 .999.999 0 0 1 0-1.414l7.999-7.999z" opacity=".749"/></svg>