<svg xmlns="http://www.w3.org/2000/svg" width="21" height="21"><path fill="#94A0B5" fill-rule="evenodd" d="M7 3.078v9.775a4.403 4.403 0 0 0-2.625-.905C1.925 11.948 0 13.939 0 16.474c0 2.534 1.925 4.525 4.375 4.525s4.375-1.991 4.375-4.525V9.052l8.75-1.901v-1.81l-8.75 1.9V4.526l10.5-2.353v9.775a4.403 4.403 0 0 0-2.625-.905c-2.45 0-4.375 1.991-4.375 4.526 0 2.534 1.925 4.525 4.375 4.525S21 18.103 21 15.569V0L7 3.078zM4.375 19.189c-1.488 0-2.625-1.177-2.625-2.715 0-1.539 1.137-2.716 2.625-2.716C5.862 13.758 7 14.935 7 16.474c0 1.538-1.138 2.715-2.625 2.715zm12.25-.905c-1.488 0-2.625-1.177-2.625-2.715 0-1.539 1.137-2.716 2.625-2.716 1.487 0 2.625 1.177 2.625 2.716 0 1.538-1.138 2.715-2.625 2.715z"/></svg>