<svg xmlns="http://www.w3.org/2000/svg" width="16" height="15"><path fill="#3B7CFA" fill-rule="evenodd" d="M8.35 15a7.694 7.694 0 0 1-4.487-1.426.343.343 0 0 1-.094-.464l1.232-1.959a.358.358 0 0 1 .51-.099 4.502 4.502 0 0 0 2.623.833c2.467 0 4.474-1.967 4.474-4.385 0-2.418-2.007-4.385-4.474-4.385-.949 0-1.856.288-2.623.833a.363.363 0 0 1-.277.06.355.355 0 0 1-.233-.159L3.769 1.89a.343.343 0 0 1 .094-.464A7.694 7.694 0 0 1 8.35 0C12.568 0 16 3.364 16 7.5c0 4.135-3.432 7.5-7.65 7.5zM4.87 4.687a.34.34 0 0 1-.018.357l-.833 1.225H9.06c.692 0 1.255.552 1.255 1.231S9.752 8.731 9.06 8.731H4.019l.833 1.225a.34.34 0 0 1 .018.357.357.357 0 0 1-.313.184H2.155a.36.36 0 0 1-.295-.155L.059 7.693a.344.344 0 0 1 0-.386L1.86 4.658a.36.36 0 0 1 .295-.155h2.402c.131 0 .251.071.313.184z"/></svg>