<svg xmlns="http://www.w3.org/2000/svg" width="17" height="19"><path fill="#AAB4C7" fill-rule="evenodd" d="M16.899 14.217a7.52 7.52 0 0 1-.581.862c-.302.409-.646.775-.991 1.12a9.48 9.48 0 0 1-.99.862 9.755 9.755 0 0 1-5.857 1.938 9.75 9.75 0 0 1-5.857-1.938c-.345-.28-.689-.56-.991-.862a8.194 8.194 0 0 1-.99-1.12 8.531 8.531 0 0 1-.582-.862c-.064-.129-.086-.28-.021-.409a5.26 5.26 0 0 1 .495-.905 6.083 6.083 0 0 1 4.242-2.671.804.804 0 0 1 .624.151 5.186 5.186 0 0 0 3.101 1.012c1.12 0 2.196-.344 3.101-1.012.172-.13.409-.173.624-.151 1.723.237 3.252 1.206 4.242 2.671.194.28.366.582.496.905.064.129.043.28-.065.409zM8.501 9.866c-2.713 0-4.931-2.219-4.931-4.933A4.945 4.945 0 0 1 8.501 0a4.945 4.945 0 0 1 4.931 4.933c0 2.714-2.218 4.933-4.931 4.933z"/></svg>