<svg xmlns="http://www.w3.org/2000/svg" width="14" height="14"><path fill="#FFF" fill-rule="evenodd" d="M13.971 5.272a.597.597 0 0 0-.475-.419l-4.126-.63L7.524.314c-.199-.42-.856-.42-1.055 0L4.622 4.223l-4.119.63a.596.596 0 0 0-.474.419.635.635 0 0 0 .149.631l2.979 3.043-.701 4.298a.628.628 0 0 0 .235.602.566.566 0 0 0 .62.046l3.686-2.029 3.693 2.029a.563.563 0 0 0 .619-.047.632.632 0 0 0 .234-.603l-.706-4.297 2.985-3.042a.636.636 0 0 0 .149-.631zM9.519 8.29a.637.637 0 0 0-.169.546l.557 3.101-2.597-1.474a.57.57 0 0 0-.548.001L4.09 11.936l.552-3.102a.631.631 0 0 0-.169-.544L2.124 5.891l3.06-.239a.591.591 0 0 0 .442-.336l1.37-3.053 1.456 3.081a.591.591 0 0 0 .442.336l3.033.211L9.519 8.29z"/></svg>