<svg xmlns="http://www.w3.org/2000/svg" width="10" height="12"><path fill="#AAB4C7" fill-rule="evenodd" d="M9.941 8.979a4.974 4.974 0 0 1-.342.545c-.178.258-.38.489-.583.707-.177.19-.38.381-.583.544A5.479 5.479 0 0 1 4.988 12a5.479 5.479 0 0 1-3.445-1.225 7.784 7.784 0 0 1-.583-.544 5.194 5.194 0 0 1-.583-.707 5.631 5.631 0 0 1-.342-.545.307.307 0 0 1-.012-.258c.076-.191.177-.395.291-.572.57-.925 1.482-1.537 2.495-1.687a.452.452 0 0 1 .368.096 2.918 2.918 0 0 0 3.648 0 .506.506 0 0 1 .367-.096c1.013.15 1.913.762 2.495 1.687.114.177.216.368.292.572a.245.245 0 0 1-.038.258zm-4.94-2.748C3.405 6.231 2.1 4.83 2.1 3.115 2.1 1.401 3.405 0 5.001 0c1.596 0 2.9 1.401 2.9 3.115 0 1.715-1.304 3.116-2.9 3.116z"/></svg>