<svg xmlns="http://www.w3.org/2000/svg" width="20" height="20"><path fill="#3B7CFA" fill-rule="evenodd" d="M18.746 8.733c-.471.846-.471 1.69 0 2.533.474.846.294 1.514-.538 2.011-.83.494-1.251 1.224-1.264 2.19-.016.97-.505 1.464-1.473 1.475-.969.011-1.699.436-2.196 1.267-.495.833-1.163 1.012-2.007.536-.844-.467-1.69-.467-2.534 0-.843.476-1.511.297-2.007-.536-.497-.831-1.227-1.256-2.196-1.267-.965-.011-1.457-.505-1.47-1.475-.015-.966-.437-1.696-1.267-2.19-.833-.496-1.014-1.165-.538-2.011.474-.843.474-1.687 0-2.533-.476-.844-.294-1.51.538-2.006.83-.499 1.251-1.227 1.267-2.198.013-.966.505-1.459 1.47-1.471.968-.012 1.699-.435 2.195-1.266C7.222.959 7.889.78 8.734 1.253c.844.472 1.69.472 2.534 0 .844-.474 1.511-.294 2.007.539.497.83 1.227 1.253 2.196 1.266.968.012 1.457.505 1.473 1.471.012.971.434 1.7 1.264 2.198.833.496 1.012 1.163.538 2.006zm-8.743-4.032a5.3 5.3 0 1 0 0 10.597 5.3 5.3 0 0 0 0-10.597zm2.219 8.715l-2.221-1.167-2.221 1.167.423-2.474-1.794-1.75 2.482-.362 1.11-2.245 1.108 2.245 2.484.362-1.794 1.75.423 2.474z"/></svg>