<svg xmlns="http://www.w3.org/2000/svg" width="21" height="20"><path fill="#3B7CFA" fill-rule="evenodd" d="M1.411 13.229c.335.277.61.626.583.863a3.855 3.855 0 0 0-.025.432c0 2.156 1.703 3.903 3.802 3.903.259 0 .512-.027.757-.077.412-.086.899.08 1.19.403a3.74 3.74 0 0 0 2.782 1.248 3.753 3.753 0 0 0 2.899-1.379 1.115 1.115 0 0 1 1.163-.35 3.68 3.68 0 0 0 1.061.155c2.099 0 3.801-1.747 3.801-3.903 0-.241-.022-.477-.064-.705-.07-.386.118-.866.432-1.167a3.932 3.932 0 0 0 1.209-2.849 3.928 3.928 0 0 0-1.412-3.032c-.335-.278-.61-.627-.583-.864.015-.142.024-.286.024-.432 0-2.156-1.702-3.903-3.801-3.903-.26 0-.512.027-.757.077-.412.086-.899-.079-1.191-.402A3.737 3.737 0 0 0 10.5-.002c-1.1 0-2.088.482-2.782 1.249-.291.322-.778.488-1.19.402a3.782 3.782 0 0 0-.757-.077c-2.099 0-3.802 1.748-3.802 3.903 0 .208.017.412.048.61.052.335-.183.747-.526 1.016a3.925 3.925 0 0 0-1.492 3.095 3.93 3.93 0 0 0 1.412 3.033z"/></svg>