<svg xmlns="http://www.w3.org/2000/svg" width="17" height="12"><path fill="#9AA6BC" fill-rule="evenodd" d="M16.764 6.62C15.842 7.882 12.55 12 8.485 12 4.421 12 1.129 7.882.207 6.62c-.264-.372-.264-.889 0-1.241C1.129 4.117 4.421 0 8.485 0c4.065 0 7.357 4.117 8.279 5.379.264.373.264.89 0 1.241zM8.485 1.655C6.303 1.655 4.534 3.6 4.534 6c0 2.4 1.769 4.344 3.951 4.344 2.183 0 3.952-1.944 3.952-4.344 0-2.4-1.769-4.345-3.952-4.345zm0 7.345C6.98 9 5.757 7.655 5.757 6c0-1.656 1.223-3 2.728-3 1.506 0 2.729 1.344 2.729 3 0 1.655-1.223 3-2.729 3zm-.207-4.883c-.827 0-1.505.745-1.524 1.676h.903c0-.373.283-.683.621-.683v-.993z"/></svg>