<svg xmlns="http://www.w3.org/2000/svg" width="15" height="12"><path fill="#3B7CFA" fill-rule="evenodd" d="M11.256 6.64c.798-.567 1.767-1.244 2.907-2.029.318-.222.597-.469.837-.742v6.583L11.256 6.64zm2.313-2.941l-3.07 2.17-.847.599-.126.091-.23.169a8.905 8.905 0 0 1-.888.601c-.17.102-.33.179-.481.23-.151.051-.29.077-.419.077h-.016c-.129 0-.268-.026-.419-.077a2.534 2.534 0 0 1-.481-.23 7.754 7.754 0 0 1-.435-.277c-.12-.082-.271-.19-.452-.324l-.231-.169-.125-.091c-.234-.167-.517-.369-.845-.601a368.97 368.97 0 0 0-1.348-.954A326.255 326.255 0 0 1 1.44 3.699a4.212 4.212 0 0 1-.98-.984C.154 2.297 0 1.909 0 1.551 0 1.108.116.739.347.443.579.148.909 0 1.339 0h12.322c.362 0 .676.134.941.401.265.267.398.588.398.963 0 .449-.137.878-.41 1.287a4.035 4.035 0 0 1-1.021 1.048zm-9.823 2.94L0 10.452V3.869c.245.279.527.526.845.742 1.186.82 2.151 1.495 2.901 2.028zm1.259.912c.318.238.576.424.775.558.198.133.461.269.791.409.329.139.636.209.921.209h.016c.285 0 .592-.07.921-.209a4.86 4.86 0 0 0 .791-.409c.198-.134.456-.32.774-.558l.295-.216 4.249 4.327c-.248.224-.54.337-.877.337H1.339a1.27 1.27 0 0 1-.878-.337l4.251-4.328c.106.078.205.15.293.217z"/></svg>