<svg xmlns="http://www.w3.org/2000/svg" width="13" height="13"><path fill="#FFF" fill-rule="evenodd" d="M12.973 4.905a.555.555 0 0 0-.441-.39l-3.831-.586L6.986.292c-.184-.39-.795-.39-.979 0L4.292 3.929l-3.824.586a.555.555 0 0 0-.441.39.592.592 0 0 0 .138.587l2.767 2.831-.651 4a.585.585 0 0 0 .217.559.527.527 0 0 0 .577.043l3.422-1.887 3.429 1.887a.522.522 0 0 0 .575-.044.584.584 0 0 0 .217-.56l-.655-3.999 2.771-2.831a.588.588 0 0 0 .139-.586zM8.839 7.713a.595.595 0 0 0-.157.508l.517 2.885-2.411-1.372a.536.536 0 0 0-.509.001l-2.481 1.37.513-2.885a.594.594 0 0 0-.157-.507L1.972 5.481l2.842-.223a.546.546 0 0 0 .41-.312l1.272-2.84 1.352 2.866a.55.55 0 0 0 .411.313l2.816.196-2.236 2.232z"/></svg>