<svg xmlns="http://www.w3.org/2000/svg" width="15" height="15"><path fill="#516081" fill-rule="evenodd" d="M14.969 5.649a.639.639 0 0 0-.509-.449l-4.42-.676L8.061.336c-.213-.45-.917-.45-1.13 0L4.953 4.525.539 5.2a.637.637 0 0 0-.508.449.68.68 0 0 0 .159.676l3.193 3.26-.751 4.605a.671.671 0 0 0 .251.645.61.61 0 0 0 .665.049l3.949-2.173 3.956 2.173c.212.117.47.099.664-.05a.674.674 0 0 0 .25-.646l-.756-4.604 3.198-3.26a.679.679 0 0 0 .16-.675zm-4.77 3.233a.682.682 0 0 0-.181.585l.596 3.323-2.782-1.58a.614.614 0 0 0-.587.001l-2.863 1.578.592-3.323a.68.68 0 0 0-.181-.584l-2.518-2.57 3.279-.257a.63.63 0 0 0 .474-.359l1.468-3.271 1.559 3.301c.092.194.27.329.475.36l3.249.226-2.58 2.57z"/></svg>