<svg xmlns="http://www.w3.org/2000/svg" width="18" height="16"><path fill="#3B7CFA" fill-rule="evenodd" d="M16.801 6.631l-.048-.002-1.598 5.911H2.845L1.246 6.629c-.016.002-.031.002-.047.002C.537 6.631 0 6.082 0 5.406c0-.677.537-1.225 1.201-1.225.661 0 1.199.548 1.199 1.225 0 .131-.022.258-.059.376l2.891 1.727 3.107-5.263a1.228 1.228 0 0 1-.537-1.021C7.802.549 8.339 0 9.001 0S10.2.549 10.2 1.225c0 .425-.215.802-.537 1.021l3.107 5.263 2.891-1.727a1.198 1.198 0 0 1-.059-.376c0-.677.537-1.225 1.199-1.225S18 4.729 18 5.406c0 .676-.537 1.225-1.199 1.225zM3.225 13.94h11.55c.558 0 1.009.46 1.009 1.03A1.02 1.02 0 0 1 14.775 16H3.225a1.02 1.02 0 0 1-1.009-1.03c0-.57.451-1.03 1.009-1.03z"/></svg>