<svg xmlns="http://www.w3.org/2000/svg" width="15" height="15"><path fill="#3B7CFA" fill-rule="evenodd" d="M15.014 6.865c-.14-2.072-1.191-4.007-2.855-5.291C10.495.289 8.323-.242 6.221.101 2.473.734-.277 4.125-.014 7.859a7.26 7.26 0 0 0 2.189 4.726c-.333.48-.631.788-1.419 1.404a.462.462 0 0 0-.175.497.511.511 0 0 0 .35.394c.263.085.648.12 1.086.12.929 0 2.102-.206 3.013-.668a7.65 7.65 0 0 0 3.784.291c3.748-.651 6.463-4.059 6.2-7.758zM3.997 8.698c-.683 0-1.226-.531-1.226-1.199S3.314 6.3 3.997 6.3c.683 0 1.226.531 1.226 1.199S4.68 8.698 3.997 8.698zm3.503 0c-.683 0-1.226-.531-1.226-1.199S6.817 6.3 7.5 6.3c.683 0 1.226.531 1.226 1.199S8.183 8.698 7.5 8.698zm3.503 0c-.683 0-1.226-.531-1.226-1.199S10.32 6.3 11.003 6.3c.683 0 1.226.531 1.226 1.199s-.543 1.199-1.226 1.199z"/></svg>