<svg xmlns="http://www.w3.org/2000/svg" width="15" height="15"><path fill="#3B7CFA" fill-rule="evenodd" d="M7.4 0a7.5 7.5 0 1 0 .201 14.999A7.5 7.5 0 0 0 7.4 0zm-.022 12.065l-.042-.001c-.638-.019-1.087-.488-1.069-1.117a1.066 1.066 0 0 1 1.095-1.066l.037.001c.655.019 1.1.484 1.082 1.131-.019.619-.472 1.052-1.103 1.052zM10.06 6.74c-.149.213-.479.478-.895.802l-.458.316c-.251.195-.403.378-.459.559-.045.143-.067.18-.071.47l-.001.074H6.429l.005-.148c.021-.608.036-.966.288-1.261.395-.464 1.267-1.025 1.304-1.049.125-.094.23-.201.309-.316.183-.253.264-.452.264-.648 0-.271-.08-.522-.24-.746-.153-.215-.444-.324-.864-.324-.417 0-.703.132-.874.403-.176.28-.265.573-.265.873v.074H4.555l.003-.078c.046-1.103.44-1.898 1.17-2.362.459-.295 1.029-.444 1.695-.444.872 0 1.608.211 2.187.629.587.423.885 1.057.885 1.884 0 .463-.146.897-.435 1.292z"/></svg>