<svg xmlns="http://www.w3.org/2000/svg" width="16" height="16"><path fill="#3B7CFA" fill-rule="evenodd" d="M16.009 7.059c-.027.195-.134.39-.267.557h.026l-2.97 3.008.696 4.233c.08.53-.241 1.031-.75 1.115-.214.027-.401 0-.588-.084l-3.64-2.005-3.639 2.005c-.455.251-1.017.056-1.258-.39a.827.827 0 0 1-.08-.613l.696-4.233-2.971-3.036C.89 7.254.89 6.641 1.237 6.252a.918.918 0 0 1 .536-.279l4.067-.612 1.82-3.844a.915.915 0 0 1 1.231-.446c.187.084.321.251.428.446l1.82 3.844 4.094.612a.943.943 0 0 1 .776 1.086z"/></svg>