<svg xmlns="http://www.w3.org/2000/svg" width="18" height="18"><path fill="#3B7CFA" fill-rule="evenodd" d="M17.413 7.024H.587A.587.587 0 0 1 0 6.436V4.672c0-.649.526-1.176 1.174-1.176H2.48a2.105 2.105 0 0 1-.319-.906C2.057 1.55 2.603.618 3.534.205a2.297 2.297 0 0 1 2.508.404l1.657 1.504a1.755 1.755 0 0 1 2.6-.002L11.954.609a2.296 2.296 0 0 1 2.508-.404c.931.413 1.477 1.345 1.373 2.384a2.083 2.083 0 0 1-.319.907h1.31c.648 0 1.174.527 1.174 1.176v1.764a.587.587 0 0 1-.587.588zM5.254 1.48a1.13 1.13 0 0 0-1.264-.192 1.158 1.158 0 0 0 .488 2.208h2.761V3.3l.001-.017L5.254 1.48zm8.571-.26c-.389-.116-.809.012-1.11.285L10.76 3.279l.001.021v.196h2.703c.612 0 1.163-.452 1.206-1.063.041-.57-.287-1.046-.845-1.213zM7.826 18H2.348a1.175 1.175 0 0 1-1.174-1.176V8.2h6.652V18zm9-1.176c0 .649-.526 1.176-1.174 1.176h-5.478V8.2h6.652v8.624z"/></svg>