<svg xmlns="http://www.w3.org/2000/svg" width="14" height="16"><path fill="#3B7CFA" fill-rule="evenodd" d="M13.917 11.972c-.142.255-.302.49-.479.726a8.211 8.211 0 0 1-.816.943 7.926 7.926 0 0 1-.815.726A7.919 7.919 0 0 1 6.983 16a7.916 7.916 0 0 1-4.823-1.633 10.645 10.645 0 0 1-.816-.726 6.897 6.897 0 0 1-.816-.943 7.294 7.294 0 0 1-.478-.726.39.39 0 0 1-.018-.344 4.45 4.45 0 0 1 .408-.762 5 5 0 0 1 3.493-2.249.652.652 0 0 1 .514.126 4.206 4.206 0 0 0 2.554.853c.922 0 1.809-.29 2.554-.853a.732.732 0 0 1 .514-.126c1.418.199 2.677 1.016 3.493 2.249.16.236.302.49.408.762.053.109.036.236-.053.344zM7.001 8.308c-2.234 0-4.061-1.868-4.061-4.154C2.94 1.868 4.767 0 7.001 0s4.061 1.868 4.061 4.154c0 2.286-1.827 4.154-4.061 4.154z"/></svg>