<svg xmlns="http://www.w3.org/2000/svg" width="17" height="17"><path fill="#3B7CFA" fill-rule="evenodd" d="M16.623 7.021l-1.95-.48a6.525 6.525 0 0 0-.45-1.071l.908-1.513a.499.499 0 0 0-.075-.608L13.647 1.94a.496.496 0 0 0-.608-.075l-1.516.908a6.523 6.523 0 0 0-1.064-.446l-.48-1.95A.498.498 0 0 0 9.496 0H7.504a.498.498 0 0 0-.483.377s-.332 1.361-.479 1.95c-.392.124-.77.285-1.131.481L3.84 1.865a.5.5 0 0 0-.608.075L1.823 3.349a.498.498 0 0 0-.075.608L2.72 5.58a6.45 6.45 0 0 0-.393.96l-1.95.481A.498.498 0 0 0 0 7.504v1.992c0 .229.156.428.377.483l1.951.48c.118.375.272.739.458 1.089l-.87 1.449a.499.499 0 0 0 .075.608L3.4 15.014a.499.499 0 0 0 .608.075l1.453-.871c.346.185.708.337 1.081.455l.479 1.95a.498.498 0 0 0 .483.377h1.992a.498.498 0 0 0 .483-.377l.479-1.95a6.41 6.41 0 0 0 1.105-.469l1.476.885a.498.498 0 0 0 .608-.075l1.409-1.409a.499.499 0 0 0 .075-.608l-.896-1.492c.177-.335.323-.686.438-1.046l1.949-.48A.497.497 0 0 0 17 9.496V7.504a.498.498 0 0 0-.377-.483zM8.5 11.986A3.49 3.49 0 0 1 5.014 8.5 3.49 3.49 0 0 1 8.5 5.014 3.49 3.49 0 0 1 11.986 8.5 3.49 3.49 0 0 1 8.5 11.986z"/></svg>