<svg xmlns="http://www.w3.org/2000/svg" width="61" height="61"><path fill="#C5CCD7" fill-rule="evenodd" d="M59.984 60.999H1.016A1.016 1.016 0 0 1 0 59.983c0-6.777 2.643-13.159 7.442-17.971a25.643 25.643 0 0 1 9.159-5.867c.328-.121.692-.065.968.145a21.093 21.093 0 0 0 12.921 4.376c4.711 0 9.178-1.513 12.921-4.376.276-.21.644-.266.969-.146 9.864 3.645 16.513 13.124 16.599 23.631a1.02 1.02 0 0 1-.995 1.224zM44.187 38.248A23.098 23.098 0 0 1 30.49 42.7c-4.97 0-9.693-1.538-13.697-4.452a23.644 23.644 0 0 0-7.914 5.202c-4.174 4.184-6.575 9.662-6.825 15.516h56.872c-.402-9.152-6.203-17.332-14.739-20.718zm-13.697.385c-10.648 0-19.31-8.665-19.31-19.317C11.18 8.665 19.842 0 30.49 0 41.138 0 49.8 8.665 49.8 19.316c0 10.652-8.662 19.317-19.31 19.317zm0-36.6c-9.527 0-17.278 7.753-17.278 17.283 0 9.531 7.751 17.284 17.278 17.284 9.527 0 17.278-7.753 17.278-17.284 0-9.53-7.751-17.283-17.278-17.283z"/></svg>