<svg xmlns="http://www.w3.org/2000/svg" width="17" height="18"><path fill="#3B7CFA" fill-rule="evenodd" d="M8.558 5.661c-1.77 0-3.212 1.493-3.212 3.326 0 1.835 1.442 3.328 3.212 3.328 1.772 0 3.213-1.493 3.213-3.328 0-1.833-1.441-3.326-3.213-3.326zm0 0c-1.77 0-3.212 1.493-3.212 3.326 0 1.835 1.442 3.328 3.212 3.328 1.772 0 3.213-1.493 3.213-3.328 0-1.833-1.441-3.326-3.213-3.326zM13.911.237H3.207C1.499.237.108 1.677.108 3.446V14.53c0 1.768 1.391 3.208 3.099 3.208h10.704c1.708 0 3.098-1.44 3.098-3.208V3.446c0-1.769-1.39-3.209-3.098-3.209zM8.558 14.749c-3.067 0-5.563-2.585-5.563-5.762 0-3.176 2.496-5.761 5.563-5.761 3.068 0 5.565 2.585 5.565 5.761 0 3.177-2.497 5.762-5.565 5.762zm5.743-10.331c-.726 0-1.316-.612-1.316-1.363 0-.752.59-1.363 1.316-1.363.726 0 1.316.611 1.316 1.363 0 .751-.59 1.363-1.316 1.363zM8.558 5.661c-1.77 0-3.212 1.493-3.212 3.326 0 1.835 1.442 3.328 3.212 3.328 1.772 0 3.213-1.493 3.213-3.328 0-1.833-1.441-3.326-3.213-3.326zM13.911.237H3.207C1.499.237.108 1.677.108 3.446V14.53c0 1.768 1.391 3.208 3.099 3.208h10.704c1.708 0 3.098-1.44 3.098-3.208V3.446c0-1.769-1.39-3.209-3.098-3.209zM8.558 14.749c-3.067 0-5.563-2.585-5.563-5.762 0-3.176 2.496-5.761 5.563-5.761 3.068 0 5.565 2.585 5.565 5.761 0 3.177-2.497 5.762-5.565 5.762zm5.743-10.331c-.726 0-1.316-.612-1.316-1.363 0-.752.59-1.363 1.316-1.363.726 0 1.316.611 1.316 1.363 0 .751-.59 1.363-1.316 1.363zM8.558 5.661c-1.77 0-3.212 1.493-3.212 3.326 0 1.835 1.442 3.328 3.212 3.328 1.772 0 3.213-1.493 3.213-3.328 0-1.833-1.441-3.326-3.213-3.326zM13.911.237H3.207C1.499.237.108 1.677.108 3.446V14.53c0 1.768 1.391 3.208 3.099 3.208h10.704c1.708 0 3.098-1.44 3.098-3.208V3.446c0-1.769-1.39-3.209-3.098-3.209zM8.558 14.749c-3.067 0-5.563-2.585-5.563-5.762 0-3.176 2.496-5.761 5.563-5.761 3.068 0 5.565 2.585 5.565 5.761 0 3.177-2.497 5.762-5.565 5.762zm5.743-10.331c-.726 0-1.316-.612-1.316-1.363 0-.752.59-1.363 1.316-1.363.726 0 1.316.611 1.316 1.363 0 .751-.59 1.363-1.316 1.363zM8.558 5.661c-1.77 0-3.212 1.493-3.212 3.326 0 1.835 1.442 3.328 3.212 3.328 1.772 0 3.213-1.493 3.213-3.328 0-1.833-1.441-3.326-3.213-3.326zm0 0c-1.77 0-3.212 1.493-3.212 3.326 0 1.835 1.442 3.328 3.212 3.328 1.772 0 3.213-1.493 3.213-3.328 0-1.833-1.441-3.326-3.213-3.326zm0 0c-1.77 0-3.212 1.493-3.212 3.326 0 1.835 1.442 3.328 3.212 3.328 1.772 0 3.213-1.493 3.213-3.328 0-1.833-1.441-3.326-3.213-3.326zM13.911.237H3.207C1.499.237.108 1.677.108 3.446V14.53c0 1.768 1.391 3.208 3.099 3.208h10.704c1.708 0 3.098-1.44 3.098-3.208V3.446c0-1.769-1.39-3.209-3.098-3.209zM8.558 14.749c-3.067 0-5.563-2.585-5.563-5.762 0-3.176 2.496-5.761 5.563-5.761 3.068 0 5.565 2.585 5.565 5.761 0 3.177-2.497 5.762-5.565 5.762zm5.743-10.331c-.726 0-1.316-.612-1.316-1.363 0-.752.59-1.363 1.316-1.363.726 0 1.316.611 1.316 1.363 0 .751-.59 1.363-1.316 1.363zM8.558 5.661c-1.77 0-3.212 1.493-3.212 3.326 0 1.835 1.442 3.328 3.212 3.328 1.772 0 3.213-1.493 3.213-3.328 0-1.833-1.441-3.326-3.213-3.326zm0 0c-1.77 0-3.212 1.493-3.212 3.326 0 1.835 1.442 3.328 3.212 3.328 1.772 0 3.213-1.493 3.213-3.328 0-1.833-1.441-3.326-3.213-3.326zm0 0c-1.77 0-3.212 1.493-3.212 3.326 0 1.835 1.442 3.328 3.212 3.328 1.772 0 3.213-1.493 3.213-3.328 0-1.833-1.441-3.326-3.213-3.326zM13.911.237H3.207C1.499.237.108 1.677.108 3.446V14.53c0 1.768 1.391 3.208 3.099 3.208h10.704c1.708 0 3.098-1.44 3.098-3.208V3.446c0-1.769-1.39-3.209-3.098-3.209zM8.558 14.749c-3.067 0-5.563-2.585-5.563-5.762 0-3.176 2.496-5.761 5.563-5.761 3.068 0 5.565 2.585 5.565 5.761 0 3.177-2.497 5.762-5.565 5.762zm5.743-10.331c-.726 0-1.316-.612-1.316-1.363 0-.752.59-1.363 1.316-1.363.726 0 1.316.611 1.316 1.363 0 .751-.59 1.363-1.316 1.363zM8.558 5.661c-1.77 0-3.212 1.493-3.212 3.326 0 1.835 1.442 3.328 3.212 3.328 1.772 0 3.213-1.493 3.213-3.328 0-1.833-1.441-3.326-3.213-3.326z"/></svg>