<svg xmlns="http://www.w3.org/2000/svg" width="116" height="28"><path fill="#FFF" fill-rule="evenodd" d="M109.031 8.384H91.906L87.938-.008h9.806l3.105 6.443 5.324-6.443h9.828l-6.97 8.392zm-45.147 0L59.875-.008h9.807l3.104 6.443 5.325-6.443h9.827l-7.011 8.392H63.884zm-32.4 0l1.48-8.392h25.739l-1.5 8.392H31.484zm-28.063 0l.329-1.867C4.051 4.711 4.956 3.173 6.464 1.9 7.985.629 9.65-.008 11.459-.008h19.182L29.14 8.384H3.421zm22.738 3.877c1.028 1.026 1.542 2.319 1.542 3.878 0 .192-.01.379-.031.564-.021.185-.045.373-.072.564l-.74 4.186c-.315 1.819-1.234 3.364-2.755 4.636-1.508 1.273-3.166 1.909-4.975 1.909H.008l1.439-8.392h17.311l.432-2.339H8.417c-1.618 0-2.94-.513-3.968-1.539-1.028-1.039-1.542-2.331-1.542-3.877a8.083 8.083 0 0 1 .082-1.128h19.182c1.63 0 2.96.512 3.988 1.538zm21.977-1.538l-3.042 17.275h-8.43l3.043-17.275h8.429zm16.879 0h13.939l-3.516 4.206-2.282 13.069h-8.429l2.303-13.069-2.015-4.206zm28.021 0h14.021l-2.652 3.262 6.641 14.013h-9.827l-3.084-6.443-5.345 6.443h-9.766l11.554-14.013-1.542-3.262z"/></svg>