<svg height="512" viewBox="0 0 512 512" width="512" xmlns="http://www.w3.org/2000/svg"><path d="M510.689 478.854c0 17.561-14.275 31.836-31.836 31.836H33.146c-17.56 0-31.836-14.275-31.836-31.836V33.146c0-17.56 14.276-31.836 31.836-31.836h445.707c17.561 0 31.836 14.276 31.836 31.836v445.708z" fill="#3688C8"/><path clip-rule="evenodd" d="M251.208 178.51c21.112 0 40.958 9.326 55.53 23.936v.055c0-7.012 4.721-12.297 11.277-12.297l1.658-.016c10.25 0 12.352 9.703 12.352 12.777l.055 109.057c-.727 7.137 7.363 10.816 11.852 6.246 17.514-17.994 38.461-92.518-10.885-135.693-45.99-40.254-107.702-33.619-140.52-11-34.887 24.062-57.211 77.309-35.525 127.324 23.637 54.566 91.281 70.828 131.485 54.607 20.361-8.217 29.766 19.303 8.619 28.295-31.947 13.617-120.864 12.246-162.401-59.711-28.064-48.586-26.57-134.076 47.859-178.371 56.941-33.875 132.008-24.494 177.276 22.781 47.316 49.422 44.561 141.965-1.594 177.961-20.912 16.34-51.971.426-51.773-23.395l-.215-7.789c-14.561 14.453-33.938 22.883-55.049 22.883-41.709 0-78.41-36.707-78.41-78.398-.002-42.129 36.7-79.252 78.409-79.252zm52.494 76.228c-1.572-30.539-24.24-48.906-51.618-48.906h-1.031c-31.592 0-49.113 24.844-49.113 53.062 0 31.6 21.199 51.562 48.992 51.562 30.989 0 51.368-22.703 52.84-49.553l-.07-6.165z" fill="#FAA832" fill-rule="evenodd"/></svg>