<svg xmlns="http://www.w3.org/2000/svg" width="16" height="16"><path fill="#AAB4C7" fill-rule="evenodd" d="M7.655 4.995c-1.561 0-2.832 1.343-2.832 2.993 0 1.652 1.271 2.996 2.832 2.996s2.832-1.344 2.832-2.996c0-1.65-1.271-2.993-2.832-2.993zm0 0c-1.561 0-2.832 1.343-2.832 2.993 0 1.652 1.271 2.996 2.832 2.996s2.832-1.344 2.832-2.996c0-1.65-1.271-2.993-2.832-2.993zM12.372.113H2.937C1.431.113.206 1.409.206 3.001v9.976c0 1.592 1.225 2.888 2.731 2.888h9.435c1.506 0 2.732-1.296 2.732-2.888V3.001c0-1.592-1.226-2.888-2.732-2.888zM7.655 13.174c-2.704 0-4.905-2.326-4.905-5.186 0-2.858 2.201-5.184 4.905-5.184s4.904 2.326 4.904 5.184c0 2.86-2.2 5.186-4.904 5.186zm5.062-9.298c-.64 0-1.161-.55-1.161-1.227 0-.676.521-1.226 1.161-1.226s1.16.55 1.16 1.226c0 .677-.52 1.227-1.16 1.227zM7.655 4.995c-1.561 0-2.832 1.343-2.832 2.993 0 1.652 1.271 2.996 2.832 2.996s2.832-1.344 2.832-2.996c0-1.65-1.271-2.993-2.832-2.993zM12.372.113H2.937C1.431.113.206 1.409.206 3.001v9.976c0 1.592 1.225 2.888 2.731 2.888h9.435c1.506 0 2.732-1.296 2.732-2.888V3.001c0-1.592-1.226-2.888-2.732-2.888zM7.655 13.174c-2.704 0-4.905-2.326-4.905-5.186 0-2.858 2.201-5.184 4.905-5.184s4.904 2.326 4.904 5.184c0 2.86-2.2 5.186-4.904 5.186zm5.062-9.298c-.64 0-1.161-.55-1.161-1.227 0-.676.521-1.226 1.161-1.226s1.16.55 1.16 1.226c0 .677-.52 1.227-1.16 1.227zM7.655 4.995c-1.561 0-2.832 1.343-2.832 2.993 0 1.652 1.271 2.996 2.832 2.996s2.832-1.344 2.832-2.996c0-1.65-1.271-2.993-2.832-2.993zM12.372.113H2.937C1.431.113.206 1.409.206 3.001v9.976c0 1.592 1.225 2.888 2.731 2.888h9.435c1.506 0 2.732-1.296 2.732-2.888V3.001c0-1.592-1.226-2.888-2.732-2.888zM7.655 13.174c-2.704 0-4.905-2.326-4.905-5.186 0-2.858 2.201-5.184 4.905-5.184s4.904 2.326 4.904 5.184c0 2.86-2.2 5.186-4.904 5.186zm5.062-9.298c-.64 0-1.161-.55-1.161-1.227 0-.676.521-1.226 1.161-1.226s1.16.55 1.16 1.226c0 .677-.52 1.227-1.16 1.227zM7.655 4.995c-1.561 0-2.832 1.343-2.832 2.993 0 1.652 1.271 2.996 2.832 2.996s2.832-1.344 2.832-2.996c0-1.65-1.271-2.993-2.832-2.993zm0 0c-1.561 0-2.832 1.343-2.832 2.993 0 1.652 1.271 2.996 2.832 2.996s2.832-1.344 2.832-2.996c0-1.65-1.271-2.993-2.832-2.993zm0 0c-1.561 0-2.832 1.343-2.832 2.993 0 1.652 1.271 2.996 2.832 2.996s2.832-1.344 2.832-2.996c0-1.65-1.271-2.993-2.832-2.993zM12.372.113H2.937C1.431.113.206 1.409.206 3.001v9.976c0 1.592 1.225 2.888 2.731 2.888h9.435c1.506 0 2.732-1.296 2.732-2.888V3.001c0-1.592-1.226-2.888-2.732-2.888zM7.655 13.174c-2.704 0-4.905-2.326-4.905-5.186 0-2.858 2.201-5.184 4.905-5.184s4.904 2.326 4.904 5.184c0 2.86-2.2 5.186-4.904 5.186zm5.062-9.298c-.64 0-1.161-.55-1.161-1.227 0-.676.521-1.226 1.161-1.226s1.16.55 1.16 1.226c0 .677-.52 1.227-1.16 1.227zM7.655 4.995c-1.561 0-2.832 1.343-2.832 2.993 0 1.652 1.271 2.996 2.832 2.996s2.832-1.344 2.832-2.996c0-1.65-1.271-2.993-2.832-2.993zm0 0c-1.561 0-2.832 1.343-2.832 2.993 0 1.652 1.271 2.996 2.832 2.996s2.832-1.344 2.832-2.996c0-1.65-1.271-2.993-2.832-2.993zm0 0c-1.561 0-2.832 1.343-2.832 2.993 0 1.652 1.271 2.996 2.832 2.996s2.832-1.344 2.832-2.996c0-1.65-1.271-2.993-2.832-2.993zM12.372.113H2.937C1.431.113.206 1.409.206 3.001v9.976c0 1.592 1.225 2.888 2.731 2.888h9.435c1.506 0 2.732-1.296 2.732-2.888V3.001c0-1.592-1.226-2.888-2.732-2.888zM7.655 13.174c-2.704 0-4.905-2.326-4.905-5.186 0-2.858 2.201-5.184 4.905-5.184s4.904 2.326 4.904 5.184c0 2.86-2.2 5.186-4.904 5.186zm5.062-9.298c-.64 0-1.161-.55-1.161-1.227 0-.676.521-1.226 1.161-1.226s1.16.55 1.16 1.226c0 .677-.52 1.227-1.16 1.227zM7.655 4.995c-1.561 0-2.832 1.343-2.832 2.993 0 1.652 1.271 2.996 2.832 2.996s2.832-1.344 2.832-2.996c0-1.65-1.271-2.993-2.832-2.993z"/></svg>