<svg xmlns="http://www.w3.org/2000/svg" width="18" height="15"><path fill="#AAB4C7" fill-rule="evenodd" d="M16.555.509a6.784 6.784 0 0 1-2.219.896A3.398 3.398 0 0 0 11.787.238c-1.929 0-3.493 1.655-3.493 3.693 0 .289.031.572.09.841C5.481 4.619 2.908 3.148 1.185.914A3.827 3.827 0 0 0 .713 2.77c0 1.281.617 2.412 1.553 3.074A3.345 3.345 0 0 1 .684 5.38v.046c0 1.789 1.204 3.281 2.801 3.622a3.247 3.247 0 0 1-1.577.062c.444 1.467 1.734 2.535 3.262 2.566a6.773 6.773 0 0 1-5.171 1.529 9.5 9.5 0 0 0 5.354 1.66c6.425 0 9.938-5.628 9.938-10.509l-.012-.478a7.271 7.271 0 0 0 1.746-1.909 6.705 6.705 0 0 1-2.006.582A3.682 3.682 0 0 0 16.555.509z"/></svg>