<svg xmlns="http://www.w3.org/2000/svg" width="20" height="17"><path fill="#3B7CFA" fill-rule="evenodd" d="M18.875.788a7.808 7.808 0 0 1-2.518.996A3.89 3.89 0 0 0 13.465.487c-2.188 0-3.963 1.838-3.963 4.103 0 .322.036.635.103.935-3.293-.171-6.213-1.805-8.167-4.288A4.194 4.194 0 0 0 .902 3.3c0 1.424.701 2.68 1.763 3.415A3.845 3.845 0 0 1 .87 6.2v.051c0 1.988 1.366 3.646 3.178 4.024a3.826 3.826 0 0 1-1.79.07c.504 1.63 1.967 2.816 3.7 2.851a7.782 7.782 0 0 1-5.866 1.699 10.943 10.943 0 0 0 6.075 1.843c7.288 0 11.273-6.253 11.273-11.675l-.013-.532a8.14 8.14 0 0 0 1.981-2.121 7.72 7.72 0 0 1-2.275.647A4.104 4.104 0 0 0 18.875.788z"/></svg>