<svg xmlns="http://www.w3.org/2000/svg" width="22" height="13"><path fill="#3B7CFA" fill-rule="evenodd" d="M18.458 7.896c.711.712 1.462 1.381 2.099 2.165.282.348.549.707.753 1.111.289.575.027 1.207-.475 1.241l-3.123-.001c-.805.068-1.448-.264-1.988-.829-.432-.451-.833-.932-1.248-1.399a2.96 2.96 0 0 0-.562-.511c-.427-.285-.797-.198-1.04.259-.248.463-.305.976-.329 1.493-.034.754-.256.952-.994.987-1.579.076-3.077-.168-4.469-.985-1.227-.72-2.178-1.736-3.006-2.887C2.464 6.3 1.229 3.839.119 1.309-.131.738.052.433.665.421A84.253 84.253 0 0 1 3.723.42c.414.006.688.25.847.651.552 1.39 1.226 2.711 2.073 3.937.225.326.455.653.782.882.362.254.638.17.808-.243a2.79 2.79 0 0 0 .18-.826c.081-.966.092-1.931-.05-2.894-.087-.602-.417-.99-1.002-1.104-.298-.058-.254-.172-.109-.347.25-.301.487-.489.957-.489h3.529c.556.113.679.369.755.942l.003 4.019c-.006.222.108.881.498 1.028.312.104.518-.152.705-.354.845-.92 1.448-2.006 1.987-3.132.239-.495.444-1.009.644-1.522.147-.381.379-.569.797-.56l3.397.003c.101 0 .202.002.3.019.572.1.729.352.552.925-.278.899-.82 1.649-1.35 2.401-.566.804-1.172 1.58-1.734 2.388-.516.739-.475 1.11.166 1.752z"/></svg>