<?xml version="1.0" encoding="UTF-8"?>
<svg width="60px" height="60px" viewBox="0 0 60 60" version="1.1" xmlns="http://www.w3.org/2000/svg" xmlns:xlink="http://www.w3.org/1999/xlink">
    <!-- Generator: Sketch 45.1 (43504) - http://www.bohemiancoding.com/sketch -->
    <title>1</title>
    <desc>Created with Sketch.</desc>
    <defs></defs>
    <g id="Page-1" stroke="none" stroke-width="1" fill="none" fill-rule="evenodd">
        <g id="152" transform="translate(-690.000000, -769.000000)" fill="#7DB75A">
            <g id="1" transform="translate(690.000000, 769.000000)">
                <path d="M1.20081836,0.244206742 C0.545335213,0.316334831 -0.0039681573,0.933121348 9.37078652e-06,1.59252135 L9.37078652e-06,58.2217079 C9.37078652e-06,58.9276854 0.642346449,59.5700225 1.34832398,59.5700225 L13.3988885,59.5700225 L57.9775402,59.5700225 C58.6835178,59.5700225 59.3258548,58.9276854 59.3258548,58.2217079 L59.3258548,1.59252135 C59.3258548,0.88654382 58.6835178,0.244206742 57.9775402,0.244206742 C38.191293,0.244017978 18.1409784,0.2442 1.20081836,0.244206742 Z M2.69663865,2.94083596 L12.0505739,2.94083596 L12.0505739,56.8733933 L2.69663865,56.8733933 L2.69663865,2.94083596 Z M14.7472031,2.94083596 L17.528102,2.94083596 L17.528102,21.3326899 C17.5213604,21.849 17.8418548,22.3548472 18.3105964,22.5715079 C18.7792706,22.7881753 19.3715852,22.7038449 19.7611807,22.3649933 L25.0912706,17.688027 L30.4213604,22.3649933 C30.810956,22.7038449 31.4032706,22.7881753 31.8719447,22.5715079 C32.3406863,22.3548472 32.6601694,21.849 32.6544391,21.3326899 L32.6544391,2.94083596 L56.6292256,2.94083596 L56.6292256,56.8733933 L14.7472031,56.8733933 L14.7472031,2.94083596 Z M20.2247312,2.94083596 L29.9578099,2.94083596 L29.9578099,18.3621843 L25.976102,14.8649933 C25.4905739,14.4427281 24.6919672,14.4427281 24.2064391,14.8649933 L20.2247312,18.3621843 L20.2247312,2.94083596 Z" id="Shape"></path>
                <path d="M36.8214054,20.5742629 C36.3356722,20.5681185 35.8841837,20.8237336 35.639526,21.2433967 C35.3948683,21.6630598 35.3948683,22.1818863 35.639526,22.6015494 C35.8841837,23.0212125 36.3356722,23.2768276 36.8214054,23.2706831 L50.185293,23.2706831 C50.6710262,23.2768276 51.1225148,23.0212125 51.3671724,22.6015494 C51.6118301,22.1818863 51.6118301,21.6630598 51.3671724,21.2433967 C51.1225148,20.8237336 50.6710262,20.5681185 50.185293,20.5742629 L36.8214054,20.5742629 L36.8214054,20.5742629 Z" id="Shape"></path>
                <path d="M36.8214054,14.0913978 C36.3356722,14.0852533 35.8841837,14.3408684 35.639526,14.7605315 C35.3948683,15.1801946 35.3948683,15.6990211 35.639526,16.1186842 C35.8841837,16.5383473 36.3356722,16.7939624 36.8214054,16.787818 L50.185293,16.787818 C50.6710262,16.7939624 51.1225148,16.5383473 51.3671724,16.1186842 C51.6118301,15.6990211 51.6118301,15.1801946 51.3671724,14.7605315 C51.1225148,14.3408684 50.6710262,14.0852533 50.185293,14.0913978 L36.8214054,14.0913978 L36.8214054,14.0913978 Z" id="Shape"></path>
                <path d="M20.6414279,27.138027 C20.155512,27.1315985 19.7037308,27.3871487 19.4588982,27.8069255 C19.2140656,28.2267024 19.2140656,28.7457516 19.4588982,29.1655284 C19.7037308,29.5853052 20.155512,29.8408554 20.6414279,29.834427 L50.185293,29.834427 C50.6712089,29.8408554 51.1229901,29.5853052 51.3678227,29.1655284 C51.6126553,28.7457516 51.6126553,28.2267024 51.3678227,27.8069255 C51.1229901,27.3871487 50.6712089,27.1315985 50.185293,27.138027 L20.6414279,27.138027 L20.6414279,27.138027 Z" id="Shape"></path>
                <path d="M20.6414279,33.8300899 C20.1557575,33.824043 19.7043695,34.0796803 19.459772,34.4993044 C19.2151744,34.9189284 19.2151744,35.4376784 19.459772,35.8573024 C19.7043695,36.2769264 20.1557575,36.5325637 20.6414279,36.5265169 L50.185293,36.5265169 C50.6709634,36.5325637 51.1223514,36.2769264 51.3669489,35.8573024 C51.6115465,35.4376784 51.6115465,34.9189284 51.3669489,34.4993044 C51.1223514,34.0796803 50.6709634,33.824043 50.185293,33.8300899 L20.6414279,33.8300899 L20.6414279,33.8300899 Z" id="Shape"></path>
                <path d="M19.4541482,41.6485829 C19.2080352,42.0691893 19.2080352,42.5898669 19.4541482,43.0104732 C19.7002611,43.4310796 20.1541817,43.6861508 20.6414279,43.6776404 L50.185293,43.6776404 C50.6725392,43.6861508 51.1264598,43.4310796 51.3725727,43.0104732 C51.6186857,42.5898669 51.6186857,42.0691893 51.3725727,41.6485829 C51.1264598,41.2279766 50.6725392,40.9729054 50.185293,40.9814157 L20.6414279,40.9814157 C20.0139834,41.1457896 19.6182235,41.3681787 19.4541482,41.6485829 Z" id="Shape"></path>
            </g>
        </g>
    </g>
</svg>