<?xml version="1.0" encoding="UTF-8"?>
<svg width="61px" height="60px" viewBox="0 0 61 60" version="1.1" xmlns="http://www.w3.org/2000/svg" xmlns:xlink="http://www.w3.org/1999/xlink">
    <!-- Generator: Sketch 45.1 (43504) - http://www.bohemiancoding.com/sketch -->
    <title>4</title>
    <desc>Created with Sketch.</desc>
    <defs></defs>
    <g id="Page-1" stroke="none" stroke-width="1" fill="none" fill-rule="evenodd">
        <g id="152" transform="translate(-689.000000, -3409.000000)">
            <g id="4" transform="translate(691.000000, 3411.000000)">
                <path d="M50.0245902,48.1639344 L50.0245902,48.1639344 C50.0245902,48.1639344 50.0245902,48.102459 50.0245902,48.1639344 L47.1967213,44.7827869 C47.0737705,44.6598361 47.0122951,44.4754098 47.0122951,44.2909836 L46.5819672,38.0819672 L46.5819672,38.0819672 C46.5204918,37.5286885 46.0286885,37.0368852 45.4754098,37.0368852 C44.9221311,37.0368852 44.4303279,37.4672131 44.3688525,38.0204918 L44.3688525,38.0204918 L44.3688525,38.0204918 C44.3688525,38.0204918 44.3688525,38.0819672 44.3688525,38.0819672 L43.9385246,44.9057377 C43.9385246,44.9672131 43.9385246,44.9672131 43.9385246,45.0286885 L43.9385246,45.0286885 L43.9385246,45.0286885 C43.9385246,45.0286885 43.9385246,45.0286885 43.9385246,45.0286885 C43.9385246,45.0286885 43.9385246,45.0286885 43.9385246,45.0901639 C43.9385246,45.5204918 44.0614754,45.8893443 44.4303279,46.2581967 C44.4918033,46.3196721 44.5532787,46.3811475 44.6147541,46.442623 L48.4262295,49.6393443 L48.4262295,49.6393443 C48.8565574,50.0081967 49.5327869,50.0081967 49.9631148,49.5778689 C50.3319672,49.2704918 50.3934426,48.5942623 50.0245902,48.1639344 L50.0245902,48.1639344 Z M58.692623,44.9057377 C58.692623,52.0983607 52.7909836,58 45.5983607,58 C38.4057377,58 32.5040984,52.0983607 32.5040984,44.9057377 C32.5040984,37.7131148 38.4057377,31.8114754 45.5983607,31.8114754 C52.7909836,31.8114754 58.692623,37.6516393 58.692623,44.9057377 Z M55.3114754,44.9057377 C55.3114754,39.557377 50.9467213,35.192623 45.5983607,35.192623 C40.25,35.192623 35.8852459,39.557377 35.8852459,44.9057377 C35.8852459,50.2540984 40.25,54.6188525 45.5983607,54.6188525 C50.9467213,54.6188525 55.3114754,50.2540984 55.3114754,44.9057377 Z" id="Shape" fill="#7DB75A" fill-rule="nonzero"></path>
                <path d="M28.6702128,44.1926714 C28.6702128,45.8723404 28.9598109,47.4940898 29.4231678,49 L25.7163121,49 L19.6926714,49 L0,49 L0,42.6288416 C0,41.2966903 0.579196217,40.0224586 1.62174941,39.1536643 C7.41371158,34.4042553 13.6111111,31.2765957 14.8853428,30.6394799 C15.001182,30.5815603 15.1170213,30.4078014 15.1170213,30.2919622 L15.1170213,21.1985816 C13.9586288,20.4456265 13.2635934,19.1713948 13.2635934,17.7234043 L13.2635934,8.39834515 C13.2635934,3.76477541 17.0283688,0 21.6619385,0 L22.6465721,0 L23.6312057,0 C28.2647754,0 32.0295508,3.76477541 32.0295508,8.39834515 L32.0295508,17.7234043 C32.0295508,19.1713948 31.2765957,20.4456265 30.1761229,21.1985816 L30.1761229,30.1761229 C30.1761229,30.3498818 30.2919622,30.465721 30.4078014,30.5236407 C30.929078,30.7553191 32.2612293,31.4503546 33.998818,32.4349882 C30.8132388,35.3309693 28.6702128,39.501182 28.6702128,44.1926714 Z" id="Path" stroke="#7DB75A" stroke-width="3"></path>
            </g>
        </g>
    </g>
</svg>