<?xml version="1.0" encoding="UTF-8"?>
<svg width="12px" height="17px" viewBox="0 0 12 17" version="1.1" xmlns="http://www.w3.org/2000/svg" xmlns:xlink="http://www.w3.org/1999/xlink">
    <!-- Generator: Sketch 45.1 (43504) - http://www.bohemiancoding.com/sketch -->
    <title>phone white</title>
    <desc>Created with Sketch.</desc>
    <defs></defs>
    <g id="Page-1" stroke="none" stroke-width="1" fill="none" fill-rule="evenodd">
        <g id="152" transform="translate(-195.000000, -34.000000)" fill="#EEF1EC">
            <g id="Group-26" transform="translate(-30.000000, 0.000000)">
                <path d="M236.906108,48.9806543 C237.005947,49.1684249 237.027158,49.3881922 236.964969,49.5916003 C236.90282,49.7949683 236.762403,49.9653372 236.574592,50.0652168 C236.246325,50.2397957 235.851778,50.4496192 235.499893,50.6367483 C234.896646,50.9575982 234.205588,51.0741178 233.530448,50.9688251 C233.289469,50.9312149 233.027761,50.8903969 232.769622,50.8501403 C231.780408,50.6958501 230.921507,50.0848239 230.451419,49.2008627 C229.185742,46.8209519 226.633939,42.0227181 225.370667,39.6473783 C224.902825,38.7676272 224.876442,37.7189509 225.299537,36.8168261 C225.411485,36.5780933 225.525158,36.3357116 225.629729,36.1127767 C225.919825,35.4941322 226.402784,34.9862735 227.006072,34.6654637 C227.357916,34.4783347 227.752463,34.2685112 228.080731,34.0938922 C228.268541,33.9940526 228.488309,33.9728417 228.691677,34.035031 C228.895085,34.0971801 229.065453,34.237597 229.165333,34.4253676 C229.486263,35.0288958 229.952061,35.9047174 230.315974,36.5889994 C230.463488,36.866385 230.494763,37.191004 230.402943,37.4914449 C230.311123,37.7918859 230.103705,38.0435297 229.826359,38.1910437 C229.652783,38.2833452 229.470185,38.3804582 229.28907,38.4768094 C228.90972,38.6785335 228.626039,39.0227194 228.500458,39.4335853 C228.374876,39.8444913 228.417659,40.2884366 228.619383,40.6677868 C229.413849,42.1616114 230.65194,44.4896377 231.440553,45.972516 C231.85214,46.7464131 232.813166,47.0401579 233.587063,46.6285703 C233.78145,46.5252022 233.978202,46.4205511 234.164289,46.3215937 C234.73586,46.0176243 235.445643,46.2345448 235.749653,46.8061163 C236.114408,47.4920022 236.583413,48.3739184 236.906108,48.9806543 L236.906108,48.9806543 Z" id="phone-white"></path>
            </g>
        </g>
    </g>
</svg>