<?xml version="1.0" encoding="UTF-8"?>
<svg width="17px" height="17px" viewBox="0 0 17 17" version="1.1" xmlns="http://www.w3.org/2000/svg" xmlns:xlink="http://www.w3.org/1999/xlink">
    <!-- Generator: Sketch 45.1 (43504) - http://www.bohemiancoding.com/sketch -->
    <title>site</title>
    <desc>Created with Sketch.</desc>
    <defs></defs>
    <g id="Page-1" stroke="none" stroke-width="1" fill="none" fill-rule="evenodd">
        <g id="152" transform="translate(-530.000000, -6934.000000)" fill-rule="nonzero" fill="#6FB048">
            <path d="M538.5,6934 C533.80558,6934 530,6937.80558 530,6942.5 C530,6947.19442 533.80558,6951 538.5,6951 C543.19442,6951 547,6947.19442 547,6942.5 C547,6940.24566 546.104467,6938.08365 544.510408,6936.48959 C542.916348,6934.89553 540.75434,6934 538.5,6934 Z M532.220625,6943.5625 L534.427083,6943.5625 C534.582668,6945.24992 535.10807,6946.88236 535.965937,6948.34375 C533.991377,6947.4832 532.583317,6945.68568 532.220625,6943.5625 L532.220625,6943.5625 Z M534.427083,6941.4375 L532.220625,6941.4375 C532.583317,6939.31432 533.991377,6937.5168 535.965937,6936.65625 C535.10807,6938.11764 534.582668,6939.75008 534.427083,6941.4375 L534.427083,6941.4375 Z M538.5,6948.32781 C537.419966,6946.95155 536.745366,6945.30124 536.552083,6943.5625 L540.447917,6943.5625 C540.254634,6945.30124 539.580034,6946.95155 538.5,6948.32781 Z M536.552083,6941.4375 C536.745366,6939.69876 537.419966,6938.04845 538.5,6936.67219 C539.580034,6938.04845 540.254634,6939.69876 540.447917,6941.4375 L536.552083,6941.4375 Z M541.034063,6948.34375 C541.89193,6946.88236 542.417332,6945.24992 542.572917,6943.5625 L544.779375,6943.5625 C544.416683,6945.68568 543.008623,6947.4832 541.034063,6948.34375 L541.034063,6948.34375 Z M542.572917,6941.4375 C542.417332,6939.75008 541.89193,6938.11764 541.034063,6936.65625 C543.008623,6937.5168 544.416683,6939.31432 544.779375,6941.4375 L542.572917,6941.4375 Z" id="site"></path>
        </g>
    </g>
</svg>