<svg xmlns="http://www.w3.org/2000/svg" width="340.064" height="340.064" viewBox="0 0 340.064 340.064" fill="#c97220"><path d="M218.616 189.418c-16.741 0-20.05-3.038-20.506-3.591-.858-8.004-15.787-139.407-71.136-139.407H37.452v126.077h-19.35c-3.438 0-6.413 1.42-8.854 4.204-13.336 15.348-8.59 71.085-7.71 77.401l.336 2.42h29.823c1.162 19.618 17.45 35.242 37.362 35.242 19.896 0 36.173-15.624 37.329-35.242h43.183c1.847 20.776 19.333 37.122 40.565 37.122 18.85 0 34.702-12.893 39.326-30.318h16.183l-25.01-73.907h-2.019zM69.059 286.156c-17.555 0-31.859-14.31-31.859-31.861 0-17.564 14.304-31.85 31.859-31.85 17.549 0 31.831 14.279 31.831 31.85 0 17.551-14.283 31.861-31.831 31.861zm54.772-92.684l-20.455-35.786H57.904V66.867h65.417c15.889 0 28.478 16.939 36.404 48.987 3.252 13.256 13.706 63.225 14.712 74.567l.273 3.051h-50.879zm66.305 94.545c-19.368 0-35.128-15.756-35.128-35.128 0-19.347 15.76-35.098 35.128-35.098 19.359 0 35.104 15.751 35.104 35.098 0 19.36-15.745 35.128-35.104 35.128zm149.706-64.684c-.763-2.306-3.363-3.65-5.705-2.882l-73.54 24.224-62.199-186.731c-.606-1.858-2.336-3.081-4.293-3.081-.48 0-.967.075-1.43.228-2.348.774-3.62 3.333-2.846 5.699l63.62 191.006c.769 2.306 3.423 3.604 5.711 2.858l77.792-25.628c2.373-.769 3.658-3.338 2.89-5.693z"/></svg>