<svg xmlns="http://www.w3.org/2000/svg" viewBox="0 0 201.544 201.544" fill="#c97220"><path d="M196.301 10.93a17.79 17.79 0 0 0-12.663-5.245 17.795 17.795 0 0 0-12.664 5.245l-79.99 79.99 25.327 25.327 79.991-79.991c6.983-6.982 6.983-18.344-.001-25.326zm-7.231 14.302L120.322 93.98c-.976.976-2.256 1.464-3.535 1.464s-2.56-.488-3.535-1.464a5 5 0 0 1 0-7.071L182 18.161a5 5 0 0 1 7.07 7.071zm4.742 134.278l-53.311-53.311-17.119 17.119 2.636 2.636a5 5 0 1 1-7.07 7.071l-6.17-6.17-.002-.002-12.664-12.664-7.071-7.071-12.664-12.662-6.172-6.172a5 5 0 1 1 7.07-7.071l2.637 2.637 17.119-17.119L85.7 51.399c2.669-13.993-1.75-28.605-11.881-38.736C65.655 4.497 54.796 0 43.246 0c-4.118 0-8.206.583-12.15 1.734a5 5 0 0 0-2.134 8.335l16.488 16.49c3.492 3.493 3.492 9.176 0 12.67l-6.22 6.22a8.9 8.9 0 0 1-6.335 2.624 8.9 8.9 0 0 1-6.335-2.624l-16.489-16.49a5.001 5.001 0 0 0-8.335 2.135c-4.813 16.492.609 34.298 13.811 45.364 7.791 6.529 17.621 10.126 27.68 10.126 2.771 0 5.537-.27 8.255-.803l31.449 31.449-51.341 51.34-2.765-2.766a5.002 5.002 0 0 0-7.675.731L6.547 188.091a5 5 0 0 0 .604 6.34l5.649 5.648a4.993 4.993 0 0 0 3.537 1.464c.972 0 1.949-.283 2.803-.86l21.555-14.602a5.001 5.001 0 0 0 .731-7.675l-2.765-2.765 51.341-51.34 69.51 69.51a24.095 24.095 0 0 0 17.149 7.104 24.094 24.094 0 0 0 17.15-7.104c9.457-9.457 9.457-24.844.001-34.301zm-10.018 24.283a12.58 12.58 0 0 1-8.954 3.709 12.573 12.573 0 0 1-8.954-3.71c-4.937-4.937-4.937-12.97.001-17.907a12.574 12.574 0 0 1 8.953-3.709c3.382 0 6.563 1.317 8.954 3.709 4.938 4.937 4.938 12.971 0 17.908z"/></svg>