<svg xmlns="http://www.w3.org/2000/svg" viewBox="0 0 512.038 512.038" fill="#c97220"><path d="M324.265 153.593c-18.825 0-34.133 15.309-34.133 34.133s15.309 34.133 34.133 34.133c18.825 0 34.133-15.309 34.133-34.133s-15.308-34.133-34.133-34.133z"/><path d="M439.46 194.566l12.066-12.066L330.822 61.787l-12.075 12.075-12.049-12.058a8.497 8.497 0 0 0-6.033-2.5c-2.27 0-4.437.896-6.033 2.5L149.813 206.615c-3.328 3.337-3.328 8.738 0 12.066l8.738 8.747c11.802 11.81 31.036 11.819 42.863 0l18.091-18.091c6.844.572 13.5 2.065 19.925 4.207L104.237 348.738c-12.826-4.403-24.201-4.779-35.678-1.152l-17.792-17.784c-3.336-3.337-8.738-3.337-12.066 0L2.502 366.001c-3.337 3.337-3.337 8.738 0 12.066l17.741 17.741c-9.327 27.597-2.381 57.976 18.458 78.805 20.881 20.89 51.388 27.827 78.984 18.398l17.826 16.708a8.487 8.487 0 0 0 5.837 2.304 8.484 8.484 0 0 0 5.931-2.398l36.139-34.918a8.518 8.518 0 0 0 2.594-6.059 8.512 8.512 0 0 0-2.5-6.101l-17.783-17.784c3.618-11.469 3.243-22.827-1.152-35.686l134.955-134.963c2.142 6.366 3.686 12.962 4.378 19.763l-18.014 18.022c-11.819 11.819-11.819 31.044 0 42.863l8.738 8.738a8.497 8.497 0 0 0 6.033 2.5c2.27 0 4.437-.896 6.033-2.5l144.811-144.819c3.328-3.328 3.328-8.73 0-12.066l-12.051-12.049zM123.172 450.472c-8.047 8.064-18.765 12.501-30.165 12.501-11.401 0-22.11-4.437-30.165-12.501-16.631-16.64-16.631-43.708 0-60.339s43.699-16.631 60.331 0 16.631 43.708-.001 60.339zm135.254-183.509l-80.939 80.93a8.51 8.51 0 0 1-6.033 2.5 8.538 8.538 0 0 1-6.033-2.5 8.54 8.54 0 0 1 0-12.066l80.939-80.93c3.328-3.337 8.73-3.337 12.066 0 3.328 3.328 3.328 8.729 0 12.066zm42.24 78.438l-2.705-2.705c-5.163-5.171-5.163-13.559 0-18.731l20.804-20.804a8.515 8.515 0 0 0 2.483-6.545c-.862-14.464-4.745-28.314-10.906-40.977-.051-.119-.051-.247-.111-.367-.751-1.527-1.613-2.995-2.432-4.497-.546-.998-1.05-2.022-1.63-3.012a115.125 115.125 0 0 0-25.421-30.123c-.213-.179-.435-.333-.649-.512a117.412 117.412 0 0 0-6.878-5.282c-.879-.614-1.792-1.178-2.679-1.766-1.715-1.135-3.422-2.27-5.188-3.302-1.399-.828-2.825-1.562-4.258-2.33-.947-.503-1.86-1.067-2.833-1.545-.137-.068-.282-.077-.418-.136-12.791-6.272-26.769-10.129-41.31-10.709-.119-.009-.23-.009-.341-.009a8.55 8.55 0 0 0-6.033 2.5l-20.813 20.813c-5.163 5.146-13.568 5.146-18.731 0l-2.705-2.714L300.666 79.904l12.049 12.058L421.361 200.6l12.049 12.049-132.744 132.752zM506.561 116.96a9.982 9.982 0 0 0-.742-.853L397.207 7.503c-9.984-9.984-26.249-9.984-36.233 0l-12.049 12.049a8.523 8.523 0 0 0 0 12.066l6.033 6.033-12.075 12.075 120.704 120.713 12.075-12.075 6.033 6.033c3.337 3.328 8.738 3.328 12.066 0l12.058-12.049c.299-.307.58-.631.828-.973 7.219-9.78 7.185-24.901-.086-34.415zm-13.346 23.85l-5.487 5.487-6.033-6.033L373.057 31.618l-6.033-6.033 6.016-6.016c3.337-3.336 8.764-3.336 12.1 0l108.134 108.134c2.339 3.482 2.305 9.438-.059 13.107z"/><path d="M93.007 394.71c-6.844 0-13.269 2.662-18.099 7.492-9.984 9.984-9.984 26.223 0 36.207 9.668 9.668 26.53 9.668 36.198 0 9.984-9.984 9.984-26.223 0-36.207-4.83-4.829-11.255-7.492-18.099-7.492z"/></svg>