<svg xmlns="http://www.w3.org/2000/svg" width="595.28" height="841.89" viewBox="0 0 595.28 841.89"><g fill="#404041"><path d="M223.439 504.061c.264.434.625 1.028 1.96 1.693 8.077 3.801 10.396 4.861 18.844 8.486-3.095 2.482-6.934 4.016-9.367 7.343-.09.124-.794 1.238 2.256 2.38l.145.05c1.95.665 4.55 1.558 6.506 2.207 26.534 8.571 27.702 7.996 29.319 7.2 3.809-2.27 4.394-2.617.62-3.84-8.536-2.659-10.981-3.453-19.847-6.581 2.95-2.192 3.329-2.475 5.959-4.511 4.202-3.297 4.848-3.803 1.257-5.447-1.92-.847-4.481-1.972-6.396-2.834-7.691-3.533-14.958-7.947-22.859-11.048-.119-.047-2.928-1.126-4.698.233-4.182 3.685-4.182 3.685-3.699 4.669m-14.335-47.17c.209.969.585 1.543 1.49 2.277 7.031 5.14 9.057 6.59 16.5 11.686-13.303 12.471-13.303 12.471-10.08 14.559l.129.078c1.752 1.032 4.085 2.414 5.844 3.434 24.389 13.928 24.644 13.734 27.074 11.879 4.696-4.172 5.3-4.707 1.941-6.699-7.716-4.313-9.919-5.573-17.854-10.352 2.457-2.281 4.912-4.566 7.362-6.855 5.222-4.875 6.024-5.623 2.866-7.873-1.685-1.176-3.933-2.74-5.609-3.928-6.701-4.814-12.693-10.58-19.854-14.777-.026-.015-2.602-1.488-4.787.334-5.233 4.904-5.233 4.904-5.022 6.237m-1.587-56.262c-.041.996.187 1.588.905 2.35 5.758 5.43 7.553 7.111 13.475 12.584-17.021 14.383-17.021 14.383-14.09 17.228l.109.097c1.478 1.289 3.445 3.011 4.932 4.29 20.883 17.741 20.883 17.741 23.922 15.207 5.995-5.623 6.622-6.21 3.809-8.744-6.984-5.83-8.546-7.186-15.1-12.977 4.412-3.972 5.208-4.688 9.268-8.23 6.691-5.75 7.552-6.488 5.007-8.94-1.377-1.281-3.214-2.989-4.589-4.273-17.995-16.89-17.995-16.89-21.003-14.858-6.51 4.879-6.51 4.879-6.645 6.266m11.505-50.382c-.285.911-.067 1.395.405 1.925a3828.55 3828.55 0 0 1 10.777 10.561c-20.42 12.316-20.42 12.316-18.054 14.938l.088.085c1.183 1.158 2.76 2.702 3.944 3.858 17.075 16.649 17.075 16.649 20.281 14.466 7.417-5.509 8.192-6.085 6.009-8.454-5.912-5.753-5.912-5.753-12.086-11.801 5.342-3.478 6.305-4.105 11.18-7.162 7.996-4.933 9.023-5.567 7.021-7.636a6290.06 6290.06 0 0 0-3.669-3.603c-14.224-13.933-14.224-13.933-17.894-12.218-7.564 3.898-7.564 3.898-8.002 5.041m21.851-37.093c-.467.578-.344.891.025 1.235 3.643 2.892 4.706 3.753 8.717 7.144-23.132 8.574-22.981 8.736-21.137 10.717l.069.064c.951.88 2.219 2.053 3.167 2.936 2.74 2.57 5.848 5.483 10.343 9.818.526.507 1.157 1.276 1.768 1.678 1.301.856 3.302.822 5.224-.087 8.777-4.46 9.494-4.824 7.807-6.667-4.333-4.093-5.544-5.227-9.699-9.04 6.069-2.542 7.163-3.001 12.671-5.177 7.276-2.799 7.276-2.799 7.786-3.115.431-.267 1.761-1.216.79-2.204-.888-.74-2.071-1.728-2.965-2.461-11.145-9.022-11.145-9.022-15.541-7.916-8.343 2.333-8.343 2.333-9.025 3.075m49.007-16.976c2.49.619 2.538.631 3.96 1.078.744.25 1.738.58 2.477.847l.212.129c-.228.474-.228.474-9.885 1.867-6.597 1.014-7.784 1.197-13.741 2.269 3.331 1.9 4.302 2.481 7.953 4.874 1.075 1.046 1.075 1.046-9.145 3.875-3.28.782-4.776.235-5.043.118-3.774-1.664-6.662-4.646-10.107-6.798-.779-.468-1.814-1.096-2.6-1.553l-.058-.033-.219-.188c-.026-.733-.054-1.492 23.556-4.377-3.196-1.205-4.1-1.513-7.287-2.334a11.528 11.528 0 0 0-.223-.105l.007-.02 20.143.351m-42.666 238.784c.478.315.895.547 2.283.892 8.794 1.973 11.313 2.504 20.434 4.164-2.628 1.002-5.523 1.217-7.981 2.717.269.194.521.379 2.796.615l.154.015c2.075.187 4.842.44 6.919.606 6.476.457 10.384.732 18.634.974l14.311.251.307-.004c-.348-.072-.479-.099-2.747-.217-9.037-.523-11.631-.71-21.084-1.678 2.464-.621 2.843-.717 5.059-1.422 2.59-.893 2.59-.893 2.879-1.098-.115-.261-.29-.654-2.688-1.112-2.078-.403-4.851-.937-6.926-1.358-8.362-1.779-16.55-4.284-24.94-5.943-1.998-.395-3.559-.363-4.637.096-3.435 1.991-3.435 1.991-2.773 2.502"/><path d="M293.023 541.904c9.938.506 19.729 2.381 29.639 3.142 1.651.294 3.319.479 5.002.553l-9.729-.171c-6.099-.207-15.313-.52-27.871-1.813-1.193-.133-1.793-.234-2.378-.405l-.27-.11-.08-.207c.882-.375 1.823-.556 2.73-.844.323-.072 1.073-.24 2.957-.145m-10.699-9.398c1.188.098 1.188.098 7.665 1.817.896.238 8.536 2.181 15.958 3.778 2.92 1.953 5.932 3.548 9.019 4.76-12.251-1.753-21.193-3.266-36.072-6.666-1.153-.289-1.726-.514-2.268-.895-.545-.547-.545-.547 2.695-2.47.337-.142 1.124-.478 3.003-.324m-15.577-13.936c1.188.131 1.188.131 7.408 2.519 7.65 2.938 15.967 5.661 20.435 7.124 2.637 2.878 5.39 5.434 8.241 7.641-13.345-3.34-23.687-6.23-40.1-11.938-1.107-.42-1.646-.749-2.131-1.305-.524-.775-.524-.775 3.087-3.561.39-.222 1.202-.683 3.06-.48m-6.976-19.284c1.186.16 1.186.16 7.073 3.166a520.92 520.92 0 0 0 14.637 7.05c2.158 3.964 4.464 7.652 6.899 11.039-11.435-4.462-19.739-7.91-33.395-14.377-1.05-.541-1.541-.966-1.948-1.682-.421-1.018-.421-1.018 3.601-4.576.386-.26 1.293-.869 3.133-.62m-11.257-22.032c1.172.186 1.172.186 6.693 3.686 6.801 4.312 14.303 8.619 18.333 10.932a138.781 138.781 0 0 0 5.669 13.246c-12.23-6.057-21.646-10.998-36.351-19.752-.982-.641-1.422-1.143-1.74-1.989-.298-1.214-.298-1.214 4.177-5.389.422-.305 1.409-1.019 3.219-.734m-1.524-26.588c.481.086 1.234.316 2.087.928 5.716 4.096 11.158 8.557 16.872 12.656a184.02 184.02 0 0 0 3.723 15.742c-10.185-6.523-17.529-11.428-29.406-20.13-.901-.728-1.276-1.298-1.485-2.263-.142-1.395-.142-1.395 4.891-6.102.46-.343 1.539-1.147 3.318-.831m-5.304-27.488a4.445 4.445 0 0 1 1.974.965c6.519 5.49 12.713 11.352 19.202 16.875a213.357 213.357 0 0 0 2.04 17.275c-10.606-8.035-18.704-14.451-31.097-25.32-.813-.79-1.119-1.407-1.209-2.446.031-1.544.031-1.544 5.658-6.479.506-.36 1.69-1.2 3.432-.87m5.439-28.47c.897.166.897.166 15.549 13.91a226.668 226.668 0 0 0-.47 17.722c-8.218-7.423-13.933-12.657-24.185-22.33-.717-.755-.945-1.345-.907-2.335.226-1.48.226-1.48 6.469-6.148.55-.34 1.837-1.135 3.544-.819m1.164-25.09c1.01.177 1.01.177 17.145 15.907a214.008 214.008 0 0 0-2.26 16.852c-7.718-7.345-13.707-13.101-25.026-24.183-.627-.694-.797-1.262-.65-2.17.392-1.386.392-1.386 7.151-5.66.589-.31 1.97-1.039 3.64-.746m11.639-23.757c1.188.188 1.188.188 12.642 11.422a182.026 182.026 0 0 0-4.393 15.132c-15.124-14.882-15.124-14.882-19.362-19.027-.551-.617-.658-1.12-.411-1.921.554-1.237.554-1.237 7.795-4.962.623-.271 2.085-.905 3.729-.644m6.729-19.795c1.394.189 1.421.193 13.921 11.9a146.497 146.497 0 0 0-5.856 13.345c-7.69-7.47-12.895-12.462-20.001-19.021-.487-.519-.542-.94-.208-1.612.702-1.056.702-1.056 8.341-4.097.654-.219 2.189-.734 3.803-.515m16.451-15.673c1.146.122 1.62.172 10.407 7.3-2.623 3.199-5.118 6.706-7.472 10.488-5.661-5.029-9.626-8.447-15.587-13.175-.43-.401-.438-.723-.028-1.231.849-.825.849-.825 8.81-3.021.681-.159 2.274-.531 3.87-.361m10.151-10.01c.677.048 2.26.162 11.628 6.047-2.942 2.302-5.777 4.956-8.49 7.929-5.767-4.396-10.079-7.474-16.345-11.145-.331-.23-.419-.435.11-.806.922-.516 1.018-.569 9.175-1.836.7-.09 2.34-.302 3.922-.189m25.312-3.701c1 .249 2.33.596 3.32.88-3.284.918-6.487 2.247-9.596 3.954-4.596-2.249-7.867-3.636-12.995-4.983a.918.918 0 0 1-.223-.108l.09-.084 19.404.341m-80.475 245.025a39.638 39.638 0 0 0 9.49 2.318c10.046-.939 16.033-3.834 16.063-3.86.024-.409-.872-.794-2.665-1.146-10.104-1.989-10.498-2.066-12.123-1.43-2.663 1.207-5.976 2.708-10.765 4.118m-16.026-10.012c2.77 2.48 5.646 4.623 8.609 6.402 18.368-8.422 16.094-9.244 13.215-10.286-.111-.04-.263-.091-.376-.128-9.335-3.025-10.098-3.272-11.892-2.209-3.358 2.313-5.679 3.885-9.556 6.221m-10.673-11.929c2.451 3.352 5.031 6.401 7.724 9.121 11.159-7.349 18.646-13.641 18.688-13.682.556-.551.301-1.794-2.004-2.834-8.92-3.947-9.648-4.27-11.612-2.853-3.23 2.686-7.25 6.028-12.796 10.248m-11.966-21.094c1.924 4.363 4.008 8.472 6.235 12.299 10.999-9.17 18.281-15.879 18.301-15.902.706-.821.379-2.325-1.619-3.495-8.214-4.687-9.072-5.176-11.253-3.441-4.215 3.853-7.103 6.486-11.664 10.539m-6.915-19.168a158.857 158.857 0 0 0 4.898 14.352 1572.086 1572.086 0 0 0 22.904-21.15c1.051-1.219.602-2.92-1.094-4.135-7.656-5.342-8.457-5.9-10.854-3.908a4451.266 4451.266 0 0 1-15.854 14.841m-5.99-29.318a201.807 201.807 0 0 0 2.81 16.631c3.146-2.956 6.291-5.914 9.438-8.869 4.466-4.195 9.395-7.896 13.4-12.58.944-1.104 1.018-2.996-.67-4.477-6.97-5.904-7.698-6.521-10.367-4.31-5.34 4.948-7.551 6.997-14.611 13.605m-1.713-24.166c.038 2.252.11 4.515.217 6.784.177 3.771.444 7.483.799 11.134 12.694-11.814 17.444-16.234 28.616-25.811.084-.071.192-.171.267-.251 1.036-1.1 1.439-2.978-.122-4.5-6.251-5.811-6.904-6.418-9.868-4.247-4.879 3.985-10.951 8.946-19.909 16.891m1.702-31.797a220.9 220.9 0 0 0-1.487 17.282c10.559-8.604 17.136-13.675 28.148-21.708a3.98 3.98 0 0 0 .297-.235c1.438-1.303 1.605-3.001.418-4.226-5.572-5.419-6.154-5.986-9.385-3.967-6.209 4.296-10.519 7.305-17.991 12.854m4.034-22.258a203.366 203.366 0 0 0-3.186 16.212c12.935-9.188 21.367-14.771 34.707-22.98.214-.131.352-.235.474-.327.023-.018 2.396-1.841.72-3.722-4.891-4.805-5.52-5.422-8.979-3.604-16.154 9.356-23.728 14.41-23.736 14.421m8.648-26.709a163.206 163.206 0 0 0-5.198 14.225c12.481-7.204 20.164-11.327 32.884-17.649a6.99 6.99 0 0 0 .511-.282c.965-.591 2.289-1.93 1.13-3.201-4.366-4.106-4.927-4.634-8.602-3.097-15.031 6.927-20.718 9.996-20.725 10.004m9.032-17.776c-2.336 3.814-4.529 7.901-6.565 12.23 14.915-7.078 24.532-11.186 39.579-16.908 1.682-.64 3.03-1.787 2.017-2.794-3.923-3.266-4.427-3.685-8.286-2.486-18.162 6.236-26.73 9.945-26.745 9.958m14.057-17.877c-2.808 2.714-5.499 5.76-8.06 9.106 13.968-4.766 22.502-7.318 36.521-10.927.363-.093 3.512-.942 2.339-1.953-3.532-2.24-3.986-2.528-8.017-1.741-16.654 3.641-22.768 5.506-22.783 5.515m12.064-9.147c-3.098 1.75-6.098 3.877-8.987 6.348 16.34-3.885 26.799-5.84 43.042-8.045 1.986-.27 2.434-.523 2.729-.692l.055-.227-.2-.115c-3.193-1.121-3.604-1.266-7.815-.929-19.377 1.84-28.789 3.647-28.824 3.66m24.795-4.819c-4.714.285-10.057.608-17.034 1.304a41.734 41.734 0 0 1 5.603-1.505l11.431.201"/><path d="M406.789 407.696c-3.211-68.513-36.479-118.092-74.312-110.738-37.828 7.353-65.891 68.854-62.68 137.366 3.212 68.521 36.479 118.102 74.308 110.748 37.833-7.353 65.896-68.854 62.684-137.376zm-65.75 71.939c-17.876 3.475-33.594-19.957-35.111-52.333-1.518-32.375 11.741-61.431 29.616-64.906s33.598 19.949 35.115 52.323c1.518 32.376-11.745 61.441-29.62 64.916z"/><path d="M364.286 415.399c-.804-19.043-6.57-34.609-14.521-42.118-4.104-3.877-8.792-5.609-13.68-4.553-5.479 1.183-10.414 5.696-14.358 12.421 4.765 8.409 7.981 20.4 8.565 34.25.754 17.864-3.038 34.585-9.437 45.48 5.169 9.135 12.169 14.036 19.642 12.423 2.876-.621 5.6-2.172 8.112-4.465 10.032-9.153 16.651-30.345 15.677-53.438z"/></g></svg>