<svg xmlns="http://www.w3.org/2000/svg" width="595.281" height="841.891" viewBox="0 0 595.281 841.891" fill="#c97220"><path d="M533.46 252.323v-36.752h-54.912v36.752H430.16v-35.96h-57.256v35.96h-46.94v-35.96h-56.648v35.96h-46.94v-35.96H165.12v35.96h-48.388v-36.752H61.82v36.752H17.807v-51.544H0v95.886h595.281v-95.886h-18.474v51.544zM0 320.355v296.423s2.117 12.658 7 17.541 15.808 7 15.808 7h551s9.411-1.938 14.474-7 7-14.207 7-14.207V320.355H0zm280.146 281.969c-5.709-2.795-10.504-9.962-7.709-15.551l47.258-97.59-65.79 11.298c-8.747 1.458-20.036-9.561-17.85-18.064l34.072-124.28c1.458-6.195 11.018-9.961 17.214-8.504 6.196 1.458 12.962 8.019 11.503 14.214L269.39 469.633l69.555-11.784c10.326-1.7 22.223 9.869 17.85 19.345l-56.49 119.542c-5.104 9.84-19.794 5.709-20.159 5.588z"/></svg>