<svg xmlns="http://www.w3.org/2000/svg" width="43" height="37" viewBox="0 0 43 37"><path fill="#424242" d="M12.22 12.232h-8.7l8.7-8.71zM25.474 2.055c.651 0 1.275.26 1.735.72a2.47 2.47 0 0 1 .722 1.747v27.956a2.47 2.47 0 0 1-.722 1.747 2.45 2.45 0 0 1-1.735.72H4.526a2.45 2.45 0 0 1-1.735-.72 2.47 2.47 0 0 1-.722-1.747V14.286h11.185a1.03 1.03 0 0 0 1.034-1.028V2.055h11.185zm3.203-.728A4.53 4.53 0 0 0 25.474 0h-12.22c-.275 0-.54.11-.734.304L.3 12.534c-.192.193-.3.453-.3.724v19.22A4.52 4.52 0 0 0 4.526 37h20.948A4.52 4.52 0 0 0 30 32.478V4.522a4.52 4.52 0 0 0-1.323-3.195z"/><path fill="#eb5757" d="M17 29.5a1.5 1.5 0 0 1-1.5-1.5V16a1.5 1.5 0 0 1 1.5-1.5h24a1.5 1.5 0 0 1 1.5 1.5v12a1.5 1.5 0 0 1-1.5 1.5z"/><path fill="none" stroke="#fff" stroke-miterlimit="20" d="M17 29.5a1.5 1.5 0 0 1-1.5-1.5V16a1.5 1.5 0 0 1 1.5-1.5h24a1.5 1.5 0 0 1 1.5 1.5v12a1.5 1.5 0 0 1-1.5 1.5z"/><path fill="#fff" d="M36.877 22.386h-2.53V25h-1.318v-6.398h4.166v1.068h-2.848v1.652h2.53zm-8.565-2.716v4.272h.637c.516 0 .9-.168 1.182-.505.282-.337.412-.82.418-1.446v-.338c0-.65-.135-1.143-.404-1.477-.269-.334-.664-.505-1.182-.505h-.65zm-1.318-1.068h1.97a2.96 2.96 0 0 1 1.507.382 2.63 2.63 0 0 1 1.042 1.081c.25.466.373.996.373 1.59v.294c0 .595-.123 1.124-.37 1.586a2.641 2.641 0 0 1-1.033 1.077 3.014 3.014 0 0 1-1.507.387h-1.982zm-4.671 3.076H23.5c.35 0 .614-.082.795-.246.181-.164.277-.398.277-.703 0-.314-.092-.567-.277-.76-.185-.193-.44-.293-.765-.3h-1.21v2.008zm0 1.068V25h-1.318v-6.398H23.5c.48 0 .902.088 1.266.264.364.176.647.426.844.752.197.326.294.7.294 1.103 0 .627-.215 1.122-.646 1.485-.431.363-1.02.54-1.78.54z"/></svg>