<svg xmlns="http://www.w3.org/2000/svg" width="31" height="37" viewBox="0 0 31 37"><path fill="#424242" d="M12.413 12.232h-8.7l8.7-8.71zM25.667 2.055c.652 0 1.276.26 1.736.72a2.47 2.47 0 0 1 .721 1.747v27.956a2.47 2.47 0 0 1-.722 1.747 2.45 2.45 0 0 1-1.735.72H4.72a2.45 2.45 0 0 1-1.735-.72 2.47 2.47 0 0 1-.722-1.747V14.286h11.185a1.03 1.03 0 0 0 1.034-1.028V2.055h11.185zm3.203-.728A4.53 4.53 0 0 0 25.667 0h-12.22c-.275 0-.539.11-.734.304L.493 12.534c-.192.193-.3.453-.3.724v19.22A4.52 4.52 0 0 0 4.72 37h20.948a4.52 4.52 0 0 0 4.526-4.522V4.522a4.52 4.52 0 0 0-1.322-3.195z"/></svg>