<svg xmlns="http://www.w3.org/2000/svg" width="153" height="23" viewBox="0 0 153 23"><path fill="#282829" d="M17.721 10.213H7.29V6.009h10.396c1.052 0 2.768.227 2.768 2.096 0 1.868-1.85 2.108-2.732 2.108zM17.588.476H0v22.06h7.29v-6.958h10.298c.423 0 10.214 0 10.214-7.557S18.266.476 17.589.476zm22.617 16.06L33.93.476h-7.918l8.341 22.06h18.459v-6zm25.095-2.67l3.94-7.582h.35l3.93 7.582zm12.704 8.67h8.05L74.185.477h-9.223l-11.967 22.06h7.809l1.789-3.449h13.623zm72.444-12.05c-1.499-1.14-3.748-1.608-7.966-1.74-3.965-.131-7.966-.24-9.236-.36-1.184-.107-1.885-.407-1.885-1.283 0-.936.894-1.848 7.156-1.848 5.077 0 6.358.588 6.672 1.32h7.35a5.333 5.333 0 0 0-1.571-3.54C149.336 1.392 145.963 0 138.541 0c-4.618 0-7.942.48-10.069 1.392-4.666 2.027-4.352 5.507-4.352 5.95 0 .649-.048 6.516 9.223 6.804 4.557.132 8.462.24 8.764.252 1.704.095 3.626-.012 3.626 1.38 0 1.595-3.372 1.967-7.373 1.967-3.735 0-6.298-.336-6.903-1.464h-7.373c.036 1.08.411 3.264 3.227 4.847C129.366 22.28 132.666 23 138.36 23c6.213 0 10.009-1.02 12.052-2.508a6.155 6.155 0 0 0 1.935-2.249 6.1 6.1 0 0 0 .651-2.886c0-.516-.012-2.94-2.55-4.87zM112.83.476l-8.196 13.69h-.23L96.39.475H86.212v22.06h7.06V8.285h.229l8.172 13.99h5.572l8.51-13.99h.23v14.253h7.156V.476z"/></svg>