<svg xmlns="http://www.w3.org/2000/svg" width="32" height="26" viewBox="0 0 32 26"><path fill="#282422" fill-opacity=".87" d="M28.144 6.5c.02.275.02.55.02.826 0 8.402-6.395 18.082-18.083 18.082a17.96 17.96 0 0 1-9.759-2.853c.512.06 1.004.079 1.535.079 2.97 0 5.706-1.004 7.89-2.715a6.366 6.366 0 0 1-5.942-4.408c.393.06.787.099 1.2.099.57 0 1.141-.08 1.672-.217a6.356 6.356 0 0 1-5.096-6.237v-.079a6.4 6.4 0 0 0 2.873.807A6.35 6.35 0 0 1 1.62 4.59c0-1.18.314-2.263.865-3.207a18.065 18.065 0 0 0 13.104 6.65 7.174 7.174 0 0 1-.157-1.456A6.352 6.352 0 0 1 21.788.223a6.34 6.34 0 0 1 4.644 2.007A12.512 12.512 0 0 0 30.465.695a6.338 6.338 0 0 1-2.794 3.503 12.74 12.74 0 0 0 3.66-.984A13.661 13.661 0 0 1 28.144 6.5z"/></svg>