<svg xmlns="http://www.w3.org/2000/svg" width="39" height="23" viewBox="0 0 39 23"><path fill="#282422" fill-opacity=".87" d="M37.513 1.997c.26-.879 0-1.526-1.252-1.526H32.12c-1.055 0-1.54.556-1.8 1.174 0 0-2.11 5.14-5.091 8.473-.963.963-1.406 1.273-1.934 1.273-.26 0-.66-.31-.66-1.188V1.997c0-1.055-.296-1.526-1.168-1.526h-6.51c-.662 0-1.055.492-1.055.95 0 .998 1.49 1.23 1.645 4.042v6.104c0 1.336-.24 1.582-.767 1.582-1.406 0-4.823-5.161-6.848-11.068C7.524.935 7.123.471 6.062.471H1.92C.74.471.5 1.027.5 1.645c0 1.097 1.406 6.547 6.546 13.747 3.424 4.914 8.248 7.58 12.635 7.58 2.637 0 2.96-.591 2.96-1.61 0-4.698-.239-5.14 1.083-5.14.612 0 1.667.309 4.128 2.678 2.812 2.813 3.276 4.071 4.851 4.071h4.142c1.18 0 1.778-.59 1.434-1.758-.788-2.453-6.11-7.502-6.35-7.84-.611-.787-.435-1.138 0-1.842.008-.007 5.063-7.122 5.583-9.534z"/></svg>