<svg width="18" height="20" viewBox="0 0 18 20" fill="none" xmlns="http://www.w3.org/2000/svg"><path d="M17.037 10.564H13.1c-.646 0-1.157-.27-1.513-.798a208.15 208.15 0 0 0-1.346-1.963.284.284 0 0 0-.1-.097c-.211-.14-.434-.28-.656-.42-.145.194-.29.388-.423.571-.545.734-1.079 1.467-1.624 2.211-.189.248-.155.518.067.733l3.059 2.966c.255.248.433.54.511.895.09.41.023.798-.167 1.165-.556 1.078-1.123 2.156-1.68 3.235-.144.29-.3.571-.444.862-.011.022-.011.044-.022.076H6.76c.178-.356.356-.701.534-1.057.678-1.305 1.345-2.62 2.035-3.947-.022-.021-.056-.032-.078-.054L6.226 12.01a2.214 2.214 0 0 1-.69-1.348c-.066-.593.09-1.121.456-1.607.623-.83 1.246-1.671 1.869-2.501.056-.076.1-.14.167-.216l-.5-.324c-.279-.183-.568-.366-.857-.55-.1-.064-.111-.064-.19.022-.389.41-.778.83-1.178 1.25-.367.39-.723.777-1.09 1.155-.223.226-.434.463-.668.7-.444-.398-.878-.787-1.323-1.175.167-.172.322-.345.478-.507.69-.722 1.368-1.445 2.058-2.156.2-.216.4-.432.623-.626.278-.248.622-.366 1-.41a1.86 1.86 0 0 1 1.28.324c1.212.787 2.424 1.564 3.626 2.34.189.119.322.291.444.474.445.658.89 1.305 1.324 1.963a.124.124 0 0 0 .111.054h3.87v1.693z" fill="#fff"/><path fill-rule="evenodd" clip-rule="evenodd" d="M12.975.028L12.825 0c-.169 0-.338 0-.507.024a1.852 1.852 0 0 0-.15.027c-.04.008-.078.016-.116.022a2.916 2.916 0 0 0-1.8 1.102c-.593.776-.762 1.648-.508 2.594a2.79 2.79 0 0 0 .954 1.466c.677.557 1.45.787 2.32.654a2.88 2.88 0 0 0 1.801-1.006c.629-.727.87-1.575.665-2.508-.266-1.151-.99-1.902-2.103-2.254a2.84 2.84 0 0 0-.406-.093zm-.403 1.899c.592 0 1.051.46 1.051 1.03 0 .569-.459 1.017-1.051 1.005a.993.993 0 0 1-1.015-1.018c0-.57.447-1.017 1.015-1.017z" fill="#fff"/><path d="M.011 13.526h4.03c.044 0 .1-.016.123-.04l1.178-.845c.023-.016.034-.04.056-.049l1.269.91-.056.04-1.235.886c-.36.258-.797.394-1.313.386H0c.011-.434.011-.861.011-1.288z" fill="#fff"/></svg>