<svg width="33" height="38" viewBox="0 0 33 38" fill="none" xmlns="http://www.w3.org/2000/svg"><path d="M32.37 20.072h-7.48c-1.226 0-2.198-.512-2.875-1.516-.845-1.25-1.69-2.48-2.556-3.73a.539.539 0 0 0-.19-.184 64.204 64.204 0 0 0-1.247-.799c-.275.37-.55.738-.803 1.086-1.036 1.394-2.05 2.787-3.086 4.2-.36.472-.296.984.127 1.394l5.811 5.634c.486.471.824 1.025.972 1.7.17.78.043 1.517-.317 2.214-1.056 2.049-2.134 4.098-3.19 6.146-.275.554-.571 1.086-.846 1.64-.021.04-.021.081-.042.143h-3.804c.338-.676.676-1.332 1.014-2.008 1.29-2.48 2.557-4.979 3.868-7.499-.043-.041-.106-.061-.148-.102l-5.748-5.573c-.74-.718-1.184-1.558-1.31-2.562-.127-1.127.169-2.13.866-3.053 1.183-1.577 2.367-3.175 3.55-4.753.106-.143.19-.266.317-.41l-.95-.614c-.53-.349-1.079-.697-1.628-1.045-.19-.123-.211-.123-.36.04-.739.78-1.479 1.578-2.24 2.377-.697.738-1.373 1.476-2.07 2.193-.423.43-.824.88-1.268 1.332-.845-.759-1.67-1.496-2.515-2.234.317-.328.613-.655.909-.963 1.31-1.373 2.6-2.745 3.91-4.098.38-.41.76-.82 1.183-1.188.528-.471 1.183-.697 1.902-.779.887-.102 1.69.123 2.43.615 2.303 1.496 4.607 2.971 6.889 4.446.36.226.613.553.845.902.846 1.25 1.69 2.479 2.515 3.729a.237.237 0 0 0 .211.102h7.354v3.217z" fill="#232323"/><path fill-rule="evenodd" clip-rule="evenodd" d="M24.651.053c-.095-.017-.19-.034-.283-.053-.322 0-.643 0-.964.046a3.561 3.561 0 0 0-.285.051c-.075.016-.148.03-.22.041-1.401.276-2.55.967-3.422 2.095-1.125 1.474-1.446 3.131-.964 4.927.298 1.128.918 2.05 1.814 2.786 1.286 1.059 2.755 1.496 4.408 1.243a5.472 5.472 0 0 0 3.421-1.91c1.194-1.382 1.654-2.994 1.263-4.766C28.914 2.325 27.536.897 25.424.23c-.251-.084-.515-.131-.773-.177zm-.765 3.607c1.125 0 1.998.875 1.998 1.957 0 1.083-.873 1.934-1.998 1.911-1.102 0-1.928-.828-1.928-1.934 0-1.082.849-1.934 1.928-1.934z" fill="#232323"/><path d="M.021 25.7h7.656c.085 0 .192-.03.234-.076l2.24-1.606c.042-.031.063-.077.106-.092l2.41 1.728-.107.077-2.346 1.682c-.682.49-1.514.75-2.495.734H0c.021-.825.021-1.636.021-2.447z" fill="#232323"/></svg>