<svg width="24" height="39" viewBox="0 0 24 39" fill="none" xmlns="http://www.w3.org/2000/svg"><path d="M8.374 19.032s-2.266 1.335-2.393 1.427c-3.674 3.674-3.678 9.627-.009 13.296a9.365 9.365 0 0 0 7.063 2.74 9.38 9.38 0 0 0 6.233-2.749 9.382 9.382 0 0 0 2.754-6.397c.068-2.49-.847-5-2.745-6.898" stroke="#5464EB" stroke-width="3" stroke-linecap="round" stroke-linejoin="round"/><path fill-rule="evenodd" clip-rule="evenodd" d="M6.652 14.478c3.016-3.875 10.113-.546 13.13-4.42L15.128 2C12.113 5.874 5.016 2.546 2 6.42l4.652 8.058z" fill="#5464EB" stroke="#5464EB" stroke-width="3" stroke-linecap="round" stroke-linejoin="round"/><path d="M2 6.605l10.438 19.05" stroke="#5464EB" stroke-width="3" stroke-linecap="round" stroke-linejoin="round"/></svg>