<svg width="27" height="38" viewBox="0 0 27 38" fill="none" xmlns="http://www.w3.org/2000/svg"><path fill-rule="evenodd" clip-rule="evenodd" d="M21.414 9.516a1.752 1.752 0 0 0 2.254-2.685 8.055 8.055 0 0 0-5.156-1.874 1.752 1.752 0 1 0 0 3.502 4.48 4.48 0 0 1 2.902 1.057zm1.127 10.005a1.752 1.752 0 0 1-1.127-3.094 4.536 4.536 0 0 0 1.552-2.669 1.746 1.746 0 0 1 3.443.602 7.998 7.998 0 0 1-2.74 4.744 1.73 1.73 0 0 1-1.128.417zM11.95 20.979h4.377a1.753 1.753 0 0 0 1.614-2.656 1.753 1.753 0 0 0-1.614-.839H11.95a1.753 1.753 0 0 0-1.614 2.656c.339.559.961.882 1.614.839zm-9.92 2.924a1.75 1.75 0 0 1-1.482-2.684 8.059 8.059 0 0 1 4.339-3.356 1.75 1.75 0 1 1 1.065 3.332 4.516 4.516 0 0 0-2.44 1.898 1.76 1.76 0 0 1-1.482.81zm2.934 9.14a1.814 1.814 0 0 1-.664-.13 8.065 8.065 0 0 1-4.06-3.68A1.75 1.75 0 0 1 1.841 26.6a1.752 1.752 0 0 1 1.493.997 4.523 4.523 0 0 0 2.293 2.075 1.75 1.75 0 0 1-.664 3.37z" fill="#5464EB"/><path d="M14.796 8.261H2.553c-.954 0-1.727-.74-1.727-1.652 0-.913.773-1.652 1.727-1.652h12.243c.953 0 1.726.74 1.726 1.652 0 .912-.773 1.652-1.726 1.652z" fill="#5464EB"/><path d="M2.604 8.26a1.748 1.748 0 0 1-1.254-.524 1.763 1.763 0 0 1 0-2.507L6.06.519a1.774 1.774 0 0 1 2.508 2.508l-4.71 4.709a1.75 1.75 0 0 1-1.254.525z" fill="#5464EB"/><path d="M7.315 13.218c-.47 0-.922-.185-1.255-.518L1.346 7.984a1.772 1.772 0 0 1 0-2.507 1.776 1.776 0 0 1 2.51 0l4.714 4.71a1.777 1.777 0 0 1-1.255 3.032zm17.387 19.825H11.646c-.957 0-1.733-.74-1.733-1.652 0-.912.776-1.652 1.733-1.652h13.056c.957 0 1.733.74 1.733 1.652 0 .913-.776 1.652-1.733 1.652z" fill="#5464EB"/><path d="M19.123 38c-.471 0-.923-.186-1.256-.518a1.79 1.79 0 0 1 0-2.52l4.717-4.717a1.782 1.782 0 0 1 2.52 2.52l-4.718 4.717a1.79 1.79 0 0 1-1.263.518z" fill="#5464EB"/><path d="M23.828 33.044c-.471 0-.923-.186-1.256-.518l-4.718-4.718a1.782 1.782 0 0 1 2.52-2.52l4.717 4.718a1.782 1.782 0 0 1-1.263 3.038z" fill="#5464EB"/></svg>