<svg width="49" height="38" viewBox="0 0 49 38" fill="none" xmlns="http://www.w3.org/2000/svg"><path fill-rule="evenodd" clip-rule="evenodd" d="M46.384 16.13c-1.897 0-3.794 0-5.699.002-.4-.61-.803-1.22-1.205-1.83l-1.175-1.785c-.223-.339-.496-.724-.923-1.006-2.043-1.352-4.081-2.71-6.12-4.068l-.539-.36c-.83-.552-1.71-.776-2.615-.668-.822.098-1.512.393-2.053.876-.345.308-.657.648-.959.977l-.206.223c-.969 1.043-1.935 2.088-2.902 3.134l-.872.944c-.193.207-.384.415-.578.626l-.584.634 3.039 2.78 4.144-4.524c.475-.52.95-1.038 1.426-1.556l2.038 1.356-1.03 1.427c-.812 1.125-1.624 2.25-2.44 3.372-.74 1.015-1.046 2.133-.91 3.322.122 1.068.585 2.008 1.377 2.796 1.15 1.145 2.299 2.29 3.447 3.437l2.024 2.02-.867 1.728-2.721 5.431c-.231.462-.46.924-.688 1.386L28.201 38h4.62l.092-.28.018-.059a.098.098 0 0 0 .005-.02c.27-.541.543-1.082.816-1.623l.642-1.272 2.44-4.832c.405-.797.52-1.629.344-2.473a3.703 3.703 0 0 0-1.044-1.887 9748.795 9748.795 0 0 1-4.987-4.976l-.624-.623c-.276-.275-.3-.549-.078-.86.922-1.293 1.847-2.585 2.77-3.877l.21-.292.505-.703.046-.064c.292.19.58.378.866.57.03.02.062.05.08.077.822 1.23 1.64 2.463 2.459 3.696.736 1.111 1.784 1.676 3.114 1.68 1.706.004 3.411.003 5.116.003l2.514-.001V16.13h-1.741zM36.302 8.009c.834.705 1.774 1.06 2.801 1.06.231 0 .466-.018.706-.054 1.086-.163 2.002-.68 2.724-1.539.968-1.15 1.303-2.446.996-3.85-.38-1.731-1.44-2.89-3.153-3.443a4.27 4.27 0 0 0-.577-.13 8.627 8.627 0 0 1-.24-.046L38.767 0l-.174.026c-.085.015-.171.03-.256.047-1.124.228-2.035.8-2.707 1.699-.892 1.191-1.15 2.53-.766 3.98.236.89.72 1.65 1.438 2.257z" fill="#5464EB"/><path fill-rule="evenodd" clip-rule="evenodd" d="M27.889 26.179l.281-.324-2.88-3.076-.278.41-.034.053-.019.032c-.703.753-1.406 1.506-2.1 2.24-2.073.005-4.146.005-6.22.005h-1.38v4.284h2.52c1.726-.002 3.451-.003 5.176.001h.009c1.017 0 1.902-.393 2.629-1.168l1.621-1.731.59-.63.085-.096zM16.433 4.046c-1.893.003-3.784.004-5.677.004H9.39v3.508h7.043V4.047zm0 14.05c-2.838.003-5.676.003-8.515.003h-2.05v3.509l3.744-.001 6.82.001v-3.512zm0-7.025c-4.415.003-8.829.004-13.246.004H0v3.508h16.432v-3.512z" fill="#5464EB"/></svg>