<svg width="20" height="9" viewBox="0 0 20 9" fill="none" xmlns="http://www.w3.org/2000/svg"><path fill-rule="evenodd" clip-rule="evenodd" d="M15.714 0C13.482 0 11.071 2.162 10 3.245 8.929 2.162 6.518 0 4.286 0 1.602 0 0 1.602 0 4.286 0 6.969 1.602 8.57 4.286 8.57c2.232 0 4.643-2.162 5.714-3.245 1.071 1.083 3.482 3.245 5.714 3.245C18.398 8.571 20 6.97 20 4.286 20 1.602 18.398 0 15.714 0zM4.286 7.143c-1.896 0-2.858-.962-2.858-2.857 0-1.896.962-2.857 2.858-2.857 1.571 0 3.657 1.77 4.734 2.857-1.075 1.088-3.157 2.857-4.734 2.857zm6.694-2.857c1.077 1.086 3.163 2.857 4.734 2.857 1.896 0 2.857-.962 2.857-2.857 0-1.896-.961-2.857-2.857-2.857-1.578 0-3.663 1.77-4.734 2.857z" fill="#fff"/></svg>