<svg width="50" height="39" viewBox="0 0 50 39" fill="none" xmlns="http://www.w3.org/2000/svg"><path fill="#232323" d="M2.361 11.804h6.296v2.361H2.361zm0 11.804h6.296v2.361H2.361zM0 17.313h8.656v2.361H0z"/><path fill-rule="evenodd" clip-rule="evenodd" d="M11.017 19.28C11.017 8.649 19.666 0 30.297 0c10.63 0 19.28 8.649 19.28 19.28 0 10.631-8.65 19.28-19.28 19.28-10.631 0-19.28-8.649-19.28-19.28zm2.926 0c0 9.018 7.336 16.355 16.355 16.355 9.018 0 16.355-7.337 16.355-16.355S39.316 2.925 30.298 2.925 13.943 10.262 13.943 19.28z" fill="#232323"/><path d="M31.086 19.448V10.23h-2.757v10.727l7.104 5.012 1.552-2.358-5.9-4.163z" fill="#232323"/></svg>