<svg width="26" height="20" viewBox="0 0 26 20" fill="none" xmlns="http://www.w3.org/2000/svg"><path fill="#fff" d="M1.225 6.123H4.49v1.224H1.225zm0 6.122H4.49v1.224H1.225zM0 8.979h4.49v1.224H0z"/><path fill-rule="evenodd" clip-rule="evenodd" d="M5.714 10c0-5.514 4.486-10 10-10s10 4.486 10 10-4.486 10-10 10-10-4.486-10-10zm1.517 0c0 4.678 3.806 8.483 8.483 8.483 4.678 0 8.483-3.806 8.483-8.483 0-4.678-3.805-8.483-8.483-8.483-4.677 0-8.483 3.805-8.483 8.483z" fill="#fff"/><path d="M16.124 10.087v-4.78h-1.43v5.563l3.685 2.6.805-1.224-3.06-2.159z" fill="#fff"/></svg>