<svg width="49" height="21" viewBox="0 0 49 21" fill="none" xmlns="http://www.w3.org/2000/svg"><path fill-rule="evenodd" clip-rule="evenodd" d="M38.5 0c-5.469 0-11.375 5.297-14 7.95C21.875 5.297 15.969 0 10.5 0 3.925 0 0 3.925 0 10.5S3.925 21 10.5 21c5.469 0 11.375-5.297 14-7.95 2.625 2.653 8.531 7.95 14 7.95C45.075 21 49 17.075 49 10.5S45.075 0 38.5 0zm-28 17.5c-4.644 0-7-2.355-7-7 0-4.644 2.356-7 7-7 3.85 0 8.96 4.338 11.6 7-2.635 2.665-7.734 7-11.6 7zm16.401-7c2.64 2.662 7.75 7 11.6 7 4.644 0 7-2.355 7-7 0-4.644-2.356-7-7-7-3.867 0-8.975 4.337-11.6 7z" fill="#232323"/></svg>