<svg width="31" height="31" viewBox="0 0 31 31" fill="none" xmlns="http://www.w3.org/2000/svg"><path fill-rule="evenodd" clip-rule="evenodd" d="M23.656 6.192a1.749 1.749 0 1 0 0 3.497 1.749 1.749 0 0 0 0-3.497zm-7.773 14.293a4.71 4.71 0 0 1-4.705-4.705 4.71 4.71 0 0 1 4.705-4.705 4.71 4.71 0 0 1 4.705 4.705 4.71 4.71 0 0 1-4.705 4.705zm0-12.05c-4.05 0-7.345 3.295-7.345 7.345s3.295 7.344 7.345 7.344 7.345-3.294 7.345-7.344c0-4.05-3.295-7.345-7.345-7.345z" fill="#fff"/><path fill-rule="evenodd" clip-rule="evenodd" d="M9.807 3.673a6.16 6.16 0 0 0-6.153 6.153v11.908a6.16 6.16 0 0 0 6.153 6.152h11.907a6.16 6.16 0 0 0 6.153-6.152V9.826a6.16 6.16 0 0 0-6.153-6.153H9.807zm11.907 27.018H9.807c-4.94 0-8.959-4.018-8.959-8.957V9.826c0-4.94 4.019-8.959 8.959-8.959h11.907c4.94 0 8.96 4.019 8.96 8.959v11.908c0 4.939-4.02 8.957-8.96 8.957z" fill="#fff"/></svg>