<svg width="24" height="10" viewBox="0 0 24 10" fill="none" xmlns="http://www.w3.org/2000/svg"><path fill-rule="evenodd" clip-rule="evenodd" d="M18.333 0c-2.604 0-5.416 2.523-6.666 3.786C10.417 2.523 7.604 0 5 0 1.87 0 0 1.87 0 5s1.87 5 5 5c2.604 0 5.417-2.523 6.667-3.786C12.917 7.477 15.729 10 18.333 10c3.131 0 5-1.87 5-5s-1.869-5-5-5zM5 8.333C2.788 8.333 1.667 7.212 1.667 5S2.788 1.667 5 1.667c1.833 0 4.267 2.065 5.523 3.333C9.27 6.27 6.841 8.333 5 8.333zM12.81 5c1.257 1.268 3.69 3.333 5.523 3.333 2.212 0 3.334-1.121 3.334-3.333s-1.122-3.333-3.334-3.333c-1.84 0-4.273 2.065-5.523 3.333z" fill="#5464EB"/></svg>