<svg width="27" height="16" viewBox="0 0 27 16" fill="none" xmlns="http://www.w3.org/2000/svg"><path fill-rule="evenodd" clip-rule="evenodd" d="M26.18 14.413a1.966 1.966 0 0 0-.089-.182c-.453-.871-1.32-1.94-2.6-3.208l-.026-.03-.014-.014-.014-.014h-.013c-.58-.59-.948-.988-1.102-1.19-.282-.388-.345-.78-.191-1.177.109-.3.517-.933 1.225-1.902.372-.512.667-.924.884-1.233 1.57-2.227 2.25-3.65 2.041-4.269l-.08-.144c-.055-.087-.195-.167-.422-.24-.227-.073-.517-.085-.871-.036l-3.92.029a.478.478 0 0 0-.271.008l-.178.043-.068.037-.054.043a.61.61 0 0 0-.15.152 1.02 1.02 0 0 0-.135.254 24.46 24.46 0 0 1-1.457 3.267c-.336.6-.644 1.12-.925 1.56-.282.44-.517.765-.707.973a4.946 4.946 0 0 1-.518.5c-.154.127-.272.18-.353.16l-.232-.058a.933.933 0 0 1-.306-.356 1.661 1.661 0 0 1-.157-.566 6.893 6.893 0 0 1-.048-.587c-.004-.165-.001-.398.008-.697.009-.3.014-.504.014-.61 0-.368.006-.768.02-1.198.013-.43.024-.772.034-1.023.008-.252.013-.518.013-.8 0-.28-.016-.5-.048-.66a2.342 2.342 0 0 0-.143-.464.767.767 0 0 0-.278-.348 1.51 1.51 0 0 0-.456-.197C14.113.12 13.5.058 12.756.047c-1.687-.019-2.771.098-3.253.35-.19.105-.362.25-.517.434-.163.214-.186.33-.068.35.545.086.93.294 1.157.623l.082.175c.063.125.127.348.19.667.063.32.104.673.122 1.06a11.87 11.87 0 0 1 0 1.815 22.33 22.33 0 0 1-.129 1.175A2.474 2.474 0 0 1 9.993 7.7a.241.241 0 0 1-.068.072.954.954 0 0 1-.368.073c-.126 0-.28-.068-.462-.204a3.355 3.355 0 0 1-.565-.56 7.477 7.477 0 0 1-.66-.993 17.799 17.799 0 0 1-.762-1.51l-.218-.421a35.21 35.21 0 0 1-.557-1.183 23.336 23.336 0 0 1-.626-1.503.96.96 0 0 0-.327-.465L5.312.962a.96.96 0 0 0-.217-.124A1.381 1.381 0 0 0 4.78.744l-3.728.03c-.381 0-.64.091-.776.275l-.055.087a.502.502 0 0 0-.04.232c0 .107.027.238.081.393A49.344 49.344 0 0 0 2.04 5.709c.64 1.268 1.195 2.289 1.667 3.063.472.775.952 1.505 1.442 2.192.49.687.815 1.128.973 1.322.16.194.284.338.375.435l.34.348c.218.233.537.511.96.835.421.324.889.644 1.4.959a7.4 7.4 0 0 0 1.791.769c.68.198 1.342.278 1.987.239h1.565c.317-.029.558-.136.72-.32l.055-.072a.993.993 0 0 0 .101-.268 1.56 1.56 0 0 0 .049-.4c-.01-.416.02-.79.088-1.125.067-.333.145-.584.231-.754.087-.17.184-.312.293-.428a1.18 1.18 0 0 1 .232-.21.89.89 0 0 1 .108-.052c.218-.077.474-.002.77.225.294.228.57.508.83.842.258.335.569.71.93 1.126.365.415.682.725.953.929l.273.174c.182.116.417.222.708.32.29.096.544.12.761.072l3.485-.058c.344 0 .612-.061.802-.182.19-.12.303-.254.34-.398a1.2 1.2 0 0 0 .007-.495 1.988 1.988 0 0 0-.095-.384z" fill="#fff"/></svg>