<svg xmlns="http://www.w3.org/2000/svg" fill="#3550db" viewBox="0 0 100 125"><path d="M49.78 60.563H19.803v-8.255h35.871a23.967 23.967 0 0 0-5.894 8.255zM19.803 78.727h29.669a23.86 23.86 0 0 1-1.629-8.254h-28.04v8.254zm49.775 15.121v1.604H13.611V16.454h55.967v29.734a24.374 24.374 0 0 1 2.19-.101c.991 0 1.97.062 2.93.179V11.718H54.243V6.153h-5.771a6.815 6.815 0 0 0-13.563 0h-5.772v5.565H8.683V100h66.016v-6.23c-.96.117-1.938.18-2.93.18-.74-.001-1.47-.037-2.191-.102zm-7.714-54.177c-.321 0-2.834 0-6.46-.003-.359 2.176-2.251 3.837-4.529 3.837s-4.169-1.662-4.528-3.841l-10.535-.005a4.597 4.597 0 0 1-4.532 3.846 4.591 4.591 0 0 1-4.528-3.85l-5.178-.001c-2.052 0-1.494-3.23-1.494-3.23h.477c0-2.197.434-4.011.499-4.207.096-.322.892-2.549 4.374-2.549h2.607l3.797-4.562c.264-.33 1.528-2.044 3.5-2.011h8.074c1.404 0 3.009.174 4.291 1.452l5.927 5.626c1.028.144 4.354.736 5.735 1.442 1.328.684 2.681 1.817 3.155 4.874l.759-.002c0 .001.641 3.184-1.411 3.184zm-27.843-.764a2.778 2.778 0 1 0-5.556 0 2.778 2.778 0 0 0 5.556 0zm5.079-13.75h-2.933c-1.796 0-2.155.872-2.155.872l-3.59 4.82H39.1v-5.692zm11.584 5.693l-4.413-4.41c-1.127-1.436-2.513-1.282-2.513-1.282H40.64v5.692h10.044zm2.942 8.057a2.778 2.778 0 1 0-5.555 0 2.778 2.778 0 0 0 5.555 0zm37.691 31.111c0 10.797-8.753 19.549-19.549 19.549-10.797 0-19.549-8.752-19.549-19.549 0-10.796 8.752-19.549 19.549-19.549 10.796 0 19.549 8.753 19.549 19.549zm-5.059-6.134l-4.941-4.839-13.52 13.734-5.68-5.561-4.838 4.941 10.62 10.398 18.359-18.673z"/></svg>