<svg xmlns="http://www.w3.org/2000/svg" fill="#3550db" data-name="Layer 1" viewBox="0 0 100 125"><title>Artboard 13</title><path d="M91.68 48.18a1.6 1.6 0 0 1-.91.13l.82.9c.16.18.4.45.62.72a9.18 9.18 0 0 1 .59.85 8.18 8.18 0 0 1 .81 1.87 7.74 7.74 0 0 1 .14 3.88 7.3 7.3 0 0 1-4.38 5.26 6.27 6.27 0 0 1-1.84.43l.1.1a9.18 9.18 0 0 1 2.22 4.06 8.75 8.75 0 0 1-.12 4.49 8.07 8.07 0 0 1-2.29 3.63 8.82 8.82 0 0 1-8.38 3.31 8.72 8.72 0 0 1-1.11 4.34A8.54 8.54 0 0 1 73.37 86a7.27 7.27 0 0 1-3.34.35 7.36 7.36 0 0 1-2.43 4.87 8.71 8.71 0 0 1-5.17 3.69 8.58 8.58 0 0 1-6.49-1 7.78 7.78 0 0 1-1.64-1.32c-.34-.38-.67-.77-1-1.16-.65-.79-1.27-1.61-1.89-2.42a2.34 2.34 0 0 1 .27-3.01 2.07 2.07 0 0 1 3-.24q1.19.86 2.29 1.8.55.47 1.09 1a4.72 4.72 0 0 0 .39.33 3.41 3.41 0 0 0 .31.22 4.23 4.23 0 0 0 3 .65 4.81 4.81 0 0 0 1-.28 5 5 0 0 0 1.7-3.68 4.28 4.28 0 0 0-.58-2.12 13.44 13.44 0 0 0-1-1.27L61.69 81a9.2 9.2 0 0 1-2.29-5.8 1.72 1.72 0 0 1 .91-1.72c.36-.17 1-.26 1.2-.06 1 1.11 2 2.16 3.09 3.2l1.6 1.55.8.78c.27.27.49.47.9.93a8.46 8.46 0 0 1 .75 1 4.89 4.89 0 0 0 5.06-1.76 4.73 4.73 0 0 0 .48-.83 5.46 5.46 0 0 0-1-3.59c-.57-.65-1.13-1.31-1.69-2-1.91-1.9-3.66-4-5.41-6-1.09-1.27-1.28-2.7-.47-3.7a1.79 1.79 0 0 1 2.07-.5l7 5.53.24.25.71.65 1.52 1.48.75.75.37.38.23.22a3.77 3.77 0 0 0 2.06 1 4.11 4.11 0 0 0 1.53 0 4.25 4.25 0 0 0 2.24-5.13 4.14 4.14 0 0 0-.81-1.41l-1.79-2-3.57-4A17 17 0 0 1 74 52.54c-.18-.85-.08-1.65.71-1.91a1.77 1.77 0 0 1 1.47.19c2.55 2.75 5.29 5.33 8 8a5.65 5.65 0 0 1 1 .08 3.52 3.52 0 0 0 4.11-2.37 3.61 3.61 0 0 0-.15-2.57 3.73 3.73 0 0 0-.76-1.09l-1.71-1.71L72.91 37.5l-6.79-6.86-.84-.86c-.29-.3-.49-.47-.73-.72A9.17 9.17 0 0 0 63.12 28a4.5 4.5 0 0 0-2.79-.74 6.62 6.62 0 0 0-3.07 1.29 17.48 17.48 0 0 0-1.58 1.29l-1.76 1.62q-3.53 3.24-7.13 6.37a27 27 0 0 1-2.08 2 8.58 8.58 0 0 1-3.08 1.56 8.74 8.74 0 0 1-10.79-6.49A8.85 8.85 0 0 1 32 28.07a10.23 10.23 0 0 1 1.11-1.38l.93-1 1.85-1.91L39.65 20l6.49-6.6a8.35 8.35 0 0 0-4.14-2 14 14 0 0 0-5.08.23 6.45 6.45 0 0 0-.72.74c-.23.25-.54.64-.81 1l-1.68 2a2.2 2.2 0 0 1-3.11.26l-.29-.25c-.69-.6-1.37-1.21-2-1.84A27.24 27.24 0 0 1 25.2 9.7a2.25 2.25 0 0 1 .53-2.79 2 2 0 0 1 2.71-.51 26.14 26.14 0 0 1 3.83 3.17l.07-.05a11.91 11.91 0 0 1 1.2-1.31A10.4 10.4 0 0 1 35.09 7a9.54 9.54 0 0 1 3.71-1.28 11.39 11.39 0 0 1 7.2 1.6A5.12 5.12 0 0 1 48.61 11c.34-.32.69-.65 1.05-.95a23.58 23.58 0 0 1 3-2.13 22.73 22.73 0 0 1 6.89-2.62 21.89 21.89 0 0 1 3.65-.44h3.45l6.6.2c4.89.15 8.27 1.08 8.59 2.35s-3.57 2.11-8.33 2.29l-6.29.2h-1.57c-.53 0-1.07 0-1.49.05a17.57 17.57 0 0 0-2.68.35 18.38 18.38 0 0 0-9.35 5l-8.94 8.9-4.51 4.42-1.13 1.1-.57.55-.2.21-.15.16a3.75 3.75 0 0 0-.8 1.54 3.81 3.81 0 0 0 1.51 4 3.88 3.88 0 0 0 4.33-.18 4.61 4.61 0 0 0 .44-.39l.7-.72 1.41-1.43 2.83-2.85 2.84-2.83 1.43-1.41.73-.72.85-.79a14.66 14.66 0 0 1 4.23-2.62 9.69 9.69 0 0 1 5.48-.5A11.33 11.33 0 0 1 67.34 24l.92.78.84.82 1.4 1.4 5.5 5.82 11.1 11.56.56.59c1-1 1.68-2.21 3.63-2.17a19 19 0 0 1 1.59-2.39 3.9 3.9 0 0 1 1.61-.87c.33-.12 1.15.38 2.06 1.26s1.31 1.65 1.21 2a4.41 4.41 0 0 1-2.15 2.57c-.15.1-.33.17-.49.26-.65 1.37-2.12 1.86-3.44 2.55zM9.33 67.62a8.67 8.67 0 0 1 .2-1.72A9.2 9.2 0 0 1 6 64.26a9.4 9.4 0 0 1-3.45-5.15 9.21 9.21 0 0 1-.12-3.88 8.87 8.87 0 0 1 1.19-3.74 9 9 0 0 1 1.19-1.59l.28-.3.24-.25.49-.49.18-.19a2.73 2.73 0 0 1-.9-2.42 14.66 14.66 0 0 1-2.13-1.33 3.07 3.07 0 0 1-.71-1.44c-.09-.3.43-1.1 1.31-2s1.63-1.33 1.95-1.27A3.38 3.38 0 0 1 7.75 42c.08.14.14.29.21.44A4.14 4.14 0 0 1 9.88 45 9.11 9.11 0 0 1 17 42.75a8.88 8.88 0 0 1 6.2 3.7A6.8 6.8 0 0 1 24.31 52c0 .08 0 .16-.07.24a8.91 8.91 0 0 1 7.26 2.48 7.09 7.09 0 0 1 2.13 5.87 5.73 5.73 0 0 1-.18.88 8.76 8.76 0 0 1 2.22 0 8.88 8.88 0 0 1 6.2 3.7A6.8 6.8 0 0 1 43 70.62c0 .15-.09.3-.14.45a9 9 0 0 1 8.69 5.19 6.49 6.49 0 0 1 .23 5 4.58 4.58 0 0 1-3 2.88 1.47 1.47 0 0 1-1.78-.79c-.18-.36-.39-.93-.28-1.06a3.22 3.22 0 0 0 .57-3 3.69 3.69 0 0 0-2-2.27 4.35 4.35 0 0 0-3.23-.02 5.58 5.58 0 0 0-.78.35 4.47 4.47 0 0 0-.42.27l-.58.44-.35.25a6.33 6.33 0 0 1-.51.74q-.68.85-1.39 1.68l-.71.82-.19.21a4.38 4.38 0 0 0 3 4.71 5.38 5.38 0 0 0 2.47.21 5.32 5.32 0 0 0 1.25-.38 5.75 5.75 0 0 0 1.29-.88 2.65 2.65 0 0 1 3.5-.18c1.06.91.71 2.25-.18 3.4l-.3.38-.15.19-.23.25a8.05 8.05 0 0 1-1 .92 8.7 8.7 0 0 1-2.38 1.34 9.11 9.11 0 0 1-5.46.28 9.23 9.23 0 0 1-6.78-7.35 8.66 8.66 0 0 1-1.62.2 9.39 9.39 0 0 1-9.42-7c0-.1 0-.2-.06-.31a9.4 9.4 0 0 1-11.12-5.61 9.1 9.1 0 0 1-.61-4.31zm20.52 2.3q-1.55 1.88-3.19 3.68l-.75.82a4.34 4.34 0 0 0 4.21 4.75 4.87 4.87 0 0 0 2.71-.69 1.77 1.77 0 0 0 .27-.18 8.67 8.67 0 0 1 .49-.92A9.67 9.67 0 0 1 34.65 76c.35-.38.58-.6.89-.91l.87-.85.44-.42.22-.21.31-.28c.18-.16.37-.3.56-.45-.06-.22-.09-.4 0-.48a3.32 3.32 0 0 0 .29-3.4 3.44 3.44 0 0 0-1.15-1.37 3.52 3.52 0 0 0-1.64-.65 4 4 0 0 0-1.78.16 4 4 0 0 0-.83.38 5.09 5.09 0 0 0-.94.72c-.64.56-1.3 1.09-2 1.62zm-9.11-9.23c-.29.25-.59.49-.88.74l-.49.59-.71.82c-.13.15-.21.25-.39.43l-.56.55a9.34 9.34 0 0 1-2.88 1.72 4.47 4.47 0 0 0 .17 4.85 4.29 4.29 0 0 0 4.57 1.68 4.85 4.85 0 0 0 1.43-.62 2.65 2.65 0 0 0 .33-.23c.11-.1.18-.13.36-.3l.3-.27c.08-.17.16-.34.26-.5a9 9 0 0 1 1.19-1.59l.28-.3L24 68l.49-.49q1-1 2-1.93l1-.95.51-.47.25-.23.31-.28.12-.1a1 1 0 0 1 0-.59 3.36 3.36 0 0 0 0-3.8 3.63 3.63 0 0 0-3.5-1.56 3.82 3.82 0 0 0-1.84.76l-.2.16c-.06 0-.21.19-.31.28l-.68.63zm-9.29-.19a5.23 5.23 0 0 0 1.55-.19q2.14-2.14 4.37-4.18l1.14-1 .57-.52.23-.19v-.18c-.06-.22-.09-.4 0-.48a3.32 3.32 0 0 0 .33-3.41 3.6 3.6 0 0 0-2.79-2 4 4 0 0 0-1.78.16 4 4 0 0 0-.83.38 5.06 5.06 0 0 0-.94.72q-1.3 1.02-2.64 2.04-.66.51-1.33 1c-.45.32-1 .68-1.23.85a4.46 4.46 0 0 0-.38 4.69 4.34 4.34 0 0 0 3.73 2.31z"/></svg>