<svg xmlns="http://www.w3.org/2000/svg" fill="#3550db" viewBox="0 0 100 125"><path d="M69.474 70.209l3.635 14.353 2.528-.9-6.163-13.453zM41.388 45.13l-13.95-.73.013 2.491 13.937-1.761zm.458-3.537l-13.668-6.297-.805 2.497 14.473 3.8zm-8.178-13.808l-2.085 1.851 12.131 9.215-10.046-11.065zM65.852 71.24l-2.083 16.009 2.762-.067-.68-15.942zM54.45 84.671l2.48 1.442 5.464-15.456-7.944 14.014zM25.674 53.124l.93 2.191-5.528.994-4.436-1.428 9.034-1.757zm12.817-2.494l-3.32 3.12-7.886 1.44-.674-2.249 11.88-2.31zm7.092 19.325l-6.424-1.628a1.002 1.002 0 0 0-.008-.361c.342-4.074-2.631-13.474-2.631-13.474a1.004 1.004 0 0 0-.115-.314l5.355-4.004c.495.149.848.518.956.754 3.685 8.042 3.713 15.372 3.567 18.06-.02.374-.374.723-.7.967zM30.52 73.186l-.21-2.359 7.84-1.652 4.35 1.632-11.98 2.38zm-10.047 1.996l3.662-3.038 5.495-1.173-.053 2.403-9.104 1.808zm-6.962-19.23l5.677 1.471.098-.072a1.167 1.167 0 0 0-.015.508s.644 6.883 2.59 13.53c.036.188.115.356.224.498l-.135-.033-4.677 3.437c-.156-.068-.274-.14-.298-.21-2.96-8.566-3.486-16.27-3.58-18.739a.694.694 0 0 1 .116-.39zm52.24-.53l1.434-1.904 3.63 4.311.985 4.574-6.048-6.98zm-8.58-9.902l4.367 1.326 5.198 6.14-1.611 1.712-7.954-9.178zm13.194-15.84l1.807 6.404a1 1 0 0 0-.309.188c-3.702 1.74-10.358 9.03-10.358 9.03a1 1 0 0 0-.215.257l-6.151-2.655c-.12-.505.024-.998.174-1.21 5.123-7.23 11.461-10.92 13.864-12.139.334-.17.813-.036 1.188.125zM80.71 41.169l-1.939 1.363-5.359-5.994-.764-4.6 8.062 9.23zm6.762 7.742l-4.467-1.666-3.769-4.194 2.109-1.156 6.127 7.016zM74.295 64.59l-1.568-5.675-.112-.049c.16-.045.313-.125.448-.242 0 0 5.641-4.004 10.427-9.022a1.18 1.18 0 0 0 .319-.445l.04.135 5.32 2.348c.02.17.016.31-.033.365-5.94 6.86-12.352 11.174-14.445 12.491a.692.692 0 0 1-.397.094zm4.668 6.84c.723.834 1.584.483 2.408-.225 0 0 6.6-3.826 13.481-11.592.83-.714 1.31-1.517.58-2.351l-5.26-6.925-17.37-19.879-10.962-11.65c-.715-.818-2.471-1.492-3.285-.776l-7.534 5.064-5.672 6.56c-.808.71-.375 2.54.333 3.357l9.935 12.364 1.756 2.026c-.673-.437-1.68-.62-2.371-.486l-15.614 2.44-25.763 5.006-8.341 2.221c-1.08.21-1.205 1.13-1.005 2.198 0 0 .014 7.623 3.285 17.455.202 1.076.656 1.89 1.74 1.675l8.593-1.103 25.8-5.13 15.51-3.685c1.062-.211 2.519-1.396 2.306-2.458l-.615-9.05-2.834-8.184a1.06 1.06 0 0 0-.04-.148L72.86 65.285l6.102 6.145z" fill="#000"/></svg>