<svg xmlns="http://www.w3.org/2000/svg" fill="#3550db" data-name="Layer 1" viewBox="0 0 100 125"><title>08</title><path d="M78.27 45.88l-1 .9V28.39a3 3 0 0 0-.88-2.12L53.4 3.35a3 3 0 0 0-2.14-.9H16.8a11 11 0 0 0-11 11v73.13a11 11 0 0 0 11 11h49.45a11 11 0 0 0 11-11V72.3l13.68-12a9.6 9.6 0 0 0-12.66-14.42zm-24-33.23L67 25.44H54.23zm17 73.93a5 5 0 0 1-5 5H16.8a5 5 0 0 1-5-5V13.42a5 5 0 0 1 5-5h31.43v20a3 3 0 0 0 3 3h20V52L55.39 65.91a3 3 0 0 0-1 1.64L52.2 78.11a3 3 0 0 0 2.94 3.62h.17l10.93-.62a3 3 0 0 0 1.76-.75l3.2-2.8zM87 55.82L64.87 75.17l-6 .34 1.21-5.74L82.23 50.4A3.6 3.6 0 0 1 87 55.82z"/></svg>