<svg xmlns="http://www.w3.org/2000/svg" viewBox="0 0 90 112.5"><path d="M64.6 63.4H59c-.9 0-1.6-.7-1.6-1.6 0-.9.7-1.6 1.6-1.6h3.2l-1.9-4.7c-.2-.6-.1-1.2.3-1.7l4.2-4.9-4.8-4.1c-.6-.5-.7-1.3-.4-2l2.3-4.3-5-1.1c-.7-.1-1.2-.7-1.3-1.4l-.8-5.6-4.6 3c-.7.5-1.6.3-2.1-.3L44 28.6l-3 4.5c-.4.6-1.2.9-2 .6l-4.9-1.9-1 2.4c-.3.8-1.2 1.2-2.1.8-.8-.3-1.2-1.3-.9-2.1l1.6-3.9c.3-.8 1.3-1.2 2.1-.9l5.2 2 3.5-5.1c.3-.4.7-.7 1.2-.7s1 .2 1.3.5l4.5 5 5.5-3.7c.5-.3 1.1-.4 1.6-.1.5.2.9.7 1 1.3l1 7.1 6 1.3c.5.1.9.4 1.1.9.2.5.2 1 0 1.5L63 43.2l4.9 4.4c.7.6.7 1.6.1 2.3l-4.6 5.3 2.5 6c.2.5.2 1.1-.2 1.5-.1.4-.6.7-1.1.7z"/><path d="M26.9 50.7c1-2.2 2.3-2.3 3.2-3.6h-.7c-3.8-.1-5.6-.9-5.8-1-.6-.3-.8-1.1-.5-1.7l1.5-2.8c.2-.4.6-.7 1.1-.7h9.5c.9 0 1.6-.8 1.6-1.7 0-.9-.7-1.6-1.6-1.6H23.8c-.4 0-.9.2-1.1.6L20 42.9c-1.2.5-2.8 1.7-2.8 3.9v4.8c0 2.6 1.6 2.1 1.6 4 0 .7.6 1.3 1.3 1.3h4.4c2.7-.1 1.3-3.5 2.4-6.2zm-5 .9c-1.1 0-2-.9-2-2s.9-2 2-2 2 .9 2 2-.9 2-2 2zm10-2l2.7-4.6c.2-.4.6-.6 1.1-.6h12.5c.4 0 .9.2 1.1.6l2.7 4.6c1.3.5 3 1.8 3 4.4v4.7c0 1.3-.7 2.2-1.6 2.6v1c0 .7-.6 1.3-1.3 1.3H50c-.4 0-.8-.2-1.1-.5-.3-.3-.4-.8-.4-1.2v.2c0-.5-.2-.9-.5-1.3-.4-.4-.8-.5-1.3-.5h-9.5c-.4 0-.8.2-1.1.5-.3.3-.5.7-.5 1.1v.3c0 .4-.1.7-.4 1-.3.3-.6.4-1 .4H32c-.7 0-1.3-.6-1.3-1.3V61c0-1-1.6-.9-1.6-2.7v-4.8c0-2.2 1.6-3.4 2.8-3.9zm3.6 3.1c.2.1 2.2 1.2 6.6 1.2 4.4 0 6.2-1.1 6.4-1.2.6-.3.7-1.1.4-1.6l-1.3-2.6c-.2-.4-.6-.7-1.1-.7h-9c-.5 0-.9.3-1.1.7L35 51c-.3.6-.1 1.3.5 1.7z"/><text y="105" font-size="5" font-weight="bold" font-family="'Helvetica Neue', Helvetica, Arial-Unicode, Arial, Sans-serif">Created by Anuar Zhumaev</text><text y="110" font-size="5" font-weight="bold" font-family="'Helvetica Neue', Helvetica, Arial-Unicode, Arial, Sans-serif">from the Noun Project</text></svg>