<svg xmlns="http://www.w3.org/2000/svg" fill="#3550db" viewBox="0 0 100 125"><path fill-rule="evenodd" clip-rule="evenodd" d="M76.492 26.982c.003.194-.008.388-.036.583-.007.053-.018.104-.028.156a3.682 3.682 0 0 1-.136.517c-.019.055-.042.108-.063.162-.043.108-.073.217-.126.323L52.39 74.498a3.652 3.652 0 0 1-2.347 1.881c-.352.114-.72.192-1.112.192-2.02 0-3.621-1.638-3.621-3.659V54.768H27.166c-2.02 0-3.659-1.6-3.659-3.621 0-.636.177-1.221.462-1.737.047-.089.09-.178.144-.263.026-.039.056-.074.083-.111.359-.518.845-.96 1.459-1.248l45.44-23.878c.031-.018.062-.032.093-.049l.112-.059c.034-.016.07-.022.104-.037a3.57 3.57 0 0 1 3.132.053c1.213.618 1.902 1.813 1.953 3.077l.003.087zM47.786 47.526a3.582 3.582 0 0 1 1.145-.202c1.058 0 1.993.455 2.651 1.173a3.582 3.582 0 0 1 1.173 2.65c0 .404-.081.785-.203 1.146v6.364l11.872-23.069-22.716 11.938h6.078z"/></svg>