<svg xmlns="http://www.w3.org/2000/svg" viewBox="0 0 64 80"><path d="M49.122 51.451V38.049c0-9.471-7.705-17.176-17.175-17.176s-17.176 7.705-17.176 17.176v13.403a3.272 3.272 0 0 0 .525 6.5h33.3a3.273 3.273 0 0 0 3.273-3.273 3.27 3.27 0 0 0-2.747-3.228zM31.947 25.48c6.93 0 12.568 5.638 12.568 12.568v13.357H19.378V38.049c0-6.931 5.638-12.569 12.569-12.569z"/><path d="M24.202 38.832a1.282 1.282 0 0 1-1.282-1.282c0-4.919 4.001-8.92 8.92-8.92a8.84 8.84 0 0 1 3.471.703 1.281 1.281 0 1 1-1.001 2.36 6.292 6.292 0 0 0-2.47-.5 6.363 6.363 0 0 0-6.356 6.356c0 .709-.574 1.283-1.282 1.283zM6.769 40.038c-1.13.001-2.261.037-3.388-.008-1.57-.063-2.503-.979-2.509-2.384-.006-1.43.895-2.343 2.489-2.375a172.03 172.03 0 0 1 6.777-.001c1.648.032 2.539.877 2.572 2.293.034 1.468-.898 2.398-2.552 2.465-1.128.046-2.259.009-3.389.01zm50.443-4.772c1.171 0 2.345-.046 3.514.012 1.532.076 2.393.954 2.402 2.336.009 1.367-.862 2.35-2.355 2.396-2.382.074-4.77.072-7.153.004-1.466-.041-2.346-1.043-2.335-2.418.011-1.378.883-2.252 2.413-2.32 1.17-.052 2.343-.011 3.514-.01zm-2.201-18.477l-.007-.008a2.326 2.326 0 0 0-.762-1.573c-.515-.477-1.123-.689-1.737-.634-.624-.067-1.25.237-1.752.73a209.947 209.947 0 0 0-5.099 5.153c-.532.56-.768 1.225-.734 1.864l-.006.011.007.008c.035.581.293 1.138.762 1.573.515.477 1.123.689 1.737.634.624.067 1.25-.237 1.752-.73a209.947 209.947 0 0 0 5.099-5.153c.532-.56.768-1.225.735-1.864l.005-.011zm-47.024.731l.006-.009a2.322 2.322 0 0 1 .585-1.647c.46-.531 1.04-.808 1.656-.821.613-.135 1.268.098 1.822.533 1.9 1.493 3.788 3.003 5.635 4.561.59.498.898 1.133.935 1.772a.067.067 0 0 0 .007.011l-.006.009a2.322 2.322 0 0 1-.585 1.647c-.46.531-1.04.808-1.656.821-.613.135-1.268-.098-1.822-.533a208.898 208.898 0 0 1-5.635-4.561c-.59-.498-.898-1.133-.935-1.772l-.007-.011zm26.324-5.387c0 1.21.039 2.423-.01 3.631-.059 1.482-.997 2.374-2.366 2.342-1.319-.03-2.207-.893-2.235-2.341a185.673 185.673 0 0 1-.002-7.388c.027-1.348 1.075-2.335 2.3-2.33 1.236.004 2.244.974 2.306 2.329.057 1.25.012 2.504.012 3.756l-.005.001z"/><text y="79" font-size="5" font-weight="bold" font-family="'Helvetica Neue', Helvetica, Arial-Unicode, Arial, Sans-serif">Created by Delwar Hossain</text><text y="84" font-size="5" font-weight="bold" font-family="'Helvetica Neue', Helvetica, Arial-Unicode, Arial, Sans-serif">from the Noun Project</text></svg>