<svg xmlns="http://www.w3.org/2000/svg" fill="#3550db" viewBox="-5 -5 100 125"><path d="M34.5 45.9c0 5.8 4.7 10.5 10.5 10.5s10.5-4.7 10.5-10.5S50.8 35.4 45 35.4s-10.5 4.7-10.5 10.5zm47 7.7c-.1-1.9-3.1-4.5-8.3-3.3-3.8.9-9 4.1-14.3 9.4-3.9 3.9-7.4 9.8-7.4 19.1.1 11.1 30.5-10 30-25.2zm-73.1-16c-.2 1.8 3.5 1.6 5.8 1.3 7.2-1.3 19.3-7.5 31.4-7.5 8.5 0 17.6 4 23.7 5.8 2.1.6 5.1 1.7 9.4 1.9 1.6.1 3.2-.3 3.1-1.7C81.2 27.5 68.4 7.8 45 7.8 27.2 7.8 9.8 22.7 8.4 37.6zm.3 16c-.5 15.2 30 36.3 30 25.2 0-9.3-3.5-15.2-7.4-19.1-5.3-5.2-10.4-8.5-14.3-9.3-5.2-1.2-8.2 1.3-8.3 3.2zM0 45C0 20.1 20.1 0 45 0s45 20.1 45 45-20.1 45-45 45S0 69.9 0 45zm37.7.9c0-4 3.3-7.3 7.3-7.3s7.3 3.3 7.3 7.3-3.3 7.3-7.3 7.3-7.3-3.2-7.3-7.3z"/><path d="M34.5 45.9c0 5.8 4.7 10.5 10.5 10.5s10.5-4.7 10.5-10.5S50.8 35.4 45 35.4s-10.5 4.7-10.5 10.5zm47 7.7c-.1-1.9-3.1-4.5-8.3-3.3-3.8.9-9 4.1-14.3 9.4-3.9 3.9-7.4 9.8-7.4 19.1.1 11.1 30.5-10 30-25.2zm-73.1-16c-.2 1.8 3.5 1.6 5.8 1.3 7.2-1.3 19.3-7.5 31.4-7.5 8.5 0 17.6 4 23.7 5.8 2.1.6 5.1 1.7 9.4 1.9 1.6.1 3.2-.3 3.1-1.7C81.2 27.5 68.4 7.8 45 7.8 27.2 7.8 9.8 22.7 8.4 37.6zm.3 16c-.5 15.2 30 36.3 30 25.2 0-9.3-3.5-15.2-7.4-19.1-5.3-5.2-10.4-8.5-14.3-9.3-5.2-1.2-8.2 1.3-8.3 3.2zM0 45C0 20.1 20.1 0 45 0s45 20.1 45 45-20.1 45-45 45S0 69.9 0 45zm37.7.9c0-4 3.3-7.3 7.3-7.3s7.3 3.3 7.3 7.3-3.3 7.3-7.3 7.3-7.3-3.2-7.3-7.3z"/></svg>