<svg xmlns="http://www.w3.org/2000/svg" viewBox="0 0 32 40"><path d="M15.886 17.413h.229c1.222 0 2.221-1 2.221-2.221V9.009c0-1.222-1-2.221-2.221-2.221h-.229c-1.222 0-2.221 1-2.221 2.221v6.182a2.227 2.227 0 0 0 2.221 2.222z"/><path d="M19.71 15.035a3.714 3.714 0 0 1-3.71 3.71 3.714 3.714 0 0 1-3.71-3.71v-.257h-1.668v.257c0 2.681 1.974 4.904 4.544 5.307v3.202h-2.69v1.668h7.049v-1.668h-2.69v-3.202c2.57-.403 4.544-2.626 4.544-5.307v-.257H19.71v.257z"/><path d="M16 0C7.177 0 0 7.178 0 16s7.178 16 16 16 16-7.178 16-16S24.822 0 16 0zm0 30C8.28 30 2 23.72 2 16S8.28 2 16 2s14 6.28 14 14-6.281 14-14 14z"/><text y="47" font-size="3" font-weight="bold" font-family="'Helvetica Neue', Helvetica, Arial-Unicode, Arial, Sans-serif">AlfredoCreates.com/icons &amp; Flaticondesign.com</text><text y="50" font-size="3" font-weight="bold" font-family="'Helvetica Neue', Helvetica, Arial-Unicode, Arial, Sans-serif">from the Noun Project</text></svg>