<svg xmlns="http://www.w3.org/2000/svg" viewBox="0 0 100 125"><path d="M83.521 99H8.019a4 4 0 0 1-4-4V22.045c0-1.071.43-2.097 1.192-2.849L22.508 2.151A4.004 4.004 0 0 1 25.316 1h58.206a4 4 0 0 1 4 4v34.145a4 4 0 0 1-8 0V9H26.956L12.019 23.719V91h71.502a4 4 0 0 1 0 8z"/><path d="M95.516 70.246c.037-.071.078-.141.111-.214.028-.064.053-.131.078-.197.037-.099.067-.196.098-.297.025-.085.054-.168.073-.254.015-.064.023-.13.035-.195.018-.101.027-.2.038-.302.009-.098.02-.193.021-.291.001-.031.01-.062.01-.094s-.009-.062-.01-.094c-.002-.098-.013-.194-.022-.293a4.281 4.281 0 0 0-.037-.299c-.012-.066-.021-.132-.035-.195-.02-.088-.049-.172-.074-.259a3.969 3.969 0 0 0-.097-.291c-.025-.066-.049-.133-.078-.198-.033-.075-.075-.147-.114-.221a3.852 3.852 0 0 0-.154-.274c-.041-.064-.081-.128-.126-.19-.02-.027-.03-.058-.051-.085l-10.22-13.635a4.001 4.001 0 0 0-6.403 4.799l5.423 7.235h-35.31a4 4 0 0 0 0 8h35.312l-5.425 7.238a4 4 0 0 0 6.403 4.797L95.182 70.8c.02-.025.03-.055.049-.081a3.514 3.514 0 0 0 .285-.473z"/><text y="115" font-size="5" font-weight="bold" font-family="'Helvetica Neue', Helvetica, Arial-Unicode, Arial, Sans-serif">Created by José Campos</text><text y="120" font-size="5" font-weight="bold" font-family="'Helvetica Neue', Helvetica, Arial-Unicode, Arial, Sans-serif">from the Noun Project</text></svg>