<svg fill="#3550db" xmlns="http://www.w3.org/2000/svg" viewBox="-205 -100 100 125"><switch><g><path d="M-173.3-40.2c6.3 7.5 13.8 13.4 22.6 17.7 4 1.9 8.1 3.4 12.5 3.7 3.1.2 5.8-.6 7.9-3 1.5-1.6 3.1-3.1 4.7-4.7 2.3-2.3 2.3-5.1 0-7.4l-8.2-8.2c-2.2-2.2-5.1-2.2-7.3 0l-5.1 5.1c-.5.5-.8.6-1.4.3-1.1-.6-2.3-1.1-3.3-1.8-5-3.1-9.1-7.1-12.8-11.6-1.8-2.2-3.5-4.6-4.6-7.3-.2-.5-.2-.9.3-1.3 1.7-1.7 3.4-3.3 5.1-5 2.3-2.4 2.3-5.1 0-7.5l-4-4c-1.4-1.4-2.7-2.8-4.1-4.1-2.3-2.2-5.1-2.2-7.3 0l-5.1 5.1c-1.6 1.5-2.5 3.4-2.6 5.6-.3 3.6.6 6.9 1.8 10.2 2.4 6.6 6.3 12.7 10.9 18.2z"/></g></switch></svg>