<svg xmlns="http://www.w3.org/2000/svg" viewBox="0 0 96 120"><switch><g><path d="M48 4C23.7 4 4 23.699 4 48s19.7 44 44 44 44-19.699 44-44S72.3 4 48 4zm0 80c-19.882 0-36-16.118-36-36s16.118-36 36-36 36 16.118 36 36-16.118 36-36 36zm16-40H52V32a4 4 0 0 0-8 0v12H32a4 4 0 0 0 0 8h12v12a4 4 0 0 0 8 0V52h12a4 4 0 0 0 0-8z"/></g></switch><text y="111" font-size="5" font-weight="bold" font-family="'Helvetica Neue', Helvetica, Arial-Unicode, Arial, Sans-serif">Created by Max Josino</text><text y="116" font-size="5" font-weight="bold" font-family="'Helvetica Neue', Helvetica, Arial-Unicode, Arial, Sans-serif">from the Noun Project</text></svg>