<svg xmlns="http://www.w3.org/2000/svg" viewBox="0 0 100 125"><g fill="#6b6b6b" fill-rule="evenodd" color="#000"><path style="text-indent:0;text-transform:none;block-progression:tb" d="M50 6C25.717 6 6 25.75 6 50.02 6 74.289 25.72 94 50 94s44-19.711 44-43.98C94 25.75 74.283 6 50 6zm0 4.415c21.892 0 39.583 17.72 39.583 39.605 0 21.884-17.689 39.565-39.583 39.565S10.417 71.904 10.417 50.02c0-21.885 17.691-39.605 39.583-39.605z" overflow="visible"/><path style="text-indent:0;text-transform:none;block-progression:tb" d="M49.757 27.83a2.209 2.208 0 0 0-1.967 2.243v17.73H30.086a2.209 2.208 0 1 0 0 4.416H47.79v17.696a2.209 2.208 0 1 0 4.417 0V52.22h17.74a2.209 2.208 0 1 0 0-4.416h-17.74v-17.73a2.209 2.208 0 0 0-2.243-2.243 2.209 2.208 0 0 0-.207 0z" overflow="visible"/></g></svg>