<svg xmlns="http://www.w3.org/2000/svg" fill="#3550db" data-name="Layer 1" viewBox="0 0 100 125"><title>Artboard 29</title><path d="M44.48 58.81A26.52 26.52 0 0 1 81.29 34.4c-2.22-5.4-4.86-11.25-6.55-13.69-3.23-4.64-7.92-5.93-11.18-6.5a93.46 93.46 0 0 0-16.22-1.05 93.47 93.47 0 0 0-16.22 1.05c-3.25.57-8 1.86-11.18 6.5-1.82 2.61-4.71 9.12-7 14.85a8.15 8.15 0 0 0-5.4-2.41H5.75A4.78 4.78 0 0 0 1 37.9v3.43a5 5 0 0 0 4.9 4.86h2.36q-.37.49-.7 1a20.27 20.27 0 0 0-3.34 11.7V82A4.83 4.83 0 0 0 9 86.84h6.25A4.83 4.83 0 0 0 20.12 82v-3.62h33c-.29-.27-.58-.54-.87-.83a26.32 26.32 0 0 1-7.77-18.74zM29.2 61.35h-8.85a3.76 3.76 0 0 1-3.76-3.76v-2.32a3.76 3.76 0 0 1 4.71-3.64l8.85 2.32a3.76 3.76 0 0 1-1 7.4zm59 7.45a19.93 19.93 0 0 0-3.12-24.05A19.95 19.95 0 1 0 81 76l9.33 9.33a5.11 5.11 0 0 0 7.22-7.22zm-9.1-1.85a11.49 11.49 0 1 1 0-16.27 11.47 11.47 0 0 1 0 16.27z"/></svg>