<svg xmlns="http://www.w3.org/2000/svg" fill="#3550db" viewBox="0 0 144.083 180"><path d="M86.706 24.036H46.262c-6.943 0-12.592 5.648-12.592 12.592v70.744c0 6.943 5.648 12.592 12.592 12.592h51.559c6.943 0 12.592-5.648 12.592-12.592V50.533L86.706 24.036zm1.658 10.853l12.339 13.79H88.364v-13.79zm9.457 79.075H46.262a6.6 6.6 0 0 1-6.592-6.592V36.628a6.6 6.6 0 0 1 6.592-6.592h36.102v24.643h22.049v52.693a6.6 6.6 0 0 1-6.592 6.592z"/><path d="M83.622 84.367a18.006 18.006 0 0 0 1.209-6.459c0-10.013-8.146-18.158-18.157-18.158-10.012 0-18.157 8.146-18.157 18.158s8.146 18.157 18.157 18.157c2.539 0 4.956-.528 7.152-1.474l9.156 9.159c1.337 1.335 3.114 2.07 5.005 2.07s3.668-.735 5.008-2.073c2.757-2.761 2.756-7.25-.002-10.01l-9.371-9.37zm-29.105-6.459c0-6.704 5.454-12.158 12.157-12.158s12.157 5.454 12.157 12.158c0 6.703-5.453 12.157-12.157 12.157s-12.157-5.454-12.157-12.157zm34.234 21.597c-.275.275-.598.316-.765.316s-.489-.041-.763-.314l-8.266-8.268a18.457 18.457 0 0 0 1.503-1.548l8.288 8.289a1.08 1.08 0 0 1 .003 1.525z"/></svg>