<svg xmlns="http://www.w3.org/2000/svg" fill="#3550db" data-name="Layer 1" viewBox="0 0 100 125"><path d="M50 5a45 45 0 1 0 45 45A45.05 45.05 0 0 0 50 5zm18.18 9.39a40.26 40.26 0 0 1 17.43 17.43l-9.79 2.94a30.22 30.22 0 0 0-10.57-10.58zm-36.37 0l2.94 9.79a30.22 30.22 0 0 0-10.57 10.57l-9.79-2.94a40.26 40.26 0 0 1 17.43-17.42zm0 71.22a40.26 40.26 0 0 1-17.42-17.43l9.79-2.94a30.22 30.22 0 0 0 10.57 10.58zM25 50a25 25 0 1 1 25 25 25 25 0 0 1-25-25zm43.18 35.61l-2.94-9.79a30.22 30.22 0 0 0 10.58-10.57l9.79 2.94a40.26 40.26 0 0 1-17.43 17.42z"/></svg>