<svg xmlns="http://www.w3.org/2000/svg" viewBox="0 0 100 125"><path fill-rule="evenodd" clip-rule="evenodd" d="M18.89 5h62.22c1.953 0 3.728.797 5.01 2.079a7.073 7.073 0 0 1 2.078 5.01v62.218c0 1.94-.787 3.66-2.052 4.93l-.011.01a7.423 7.423 0 0 1-4.903 2.136l-28.82-.047L37.356 92.27 33.029 95l.007-5.117.013-8.488H18.89a7.072 7.072 0 0 1-5.01-2.079 7.072 7.072 0 0 1-2.078-5.01V12.089c0-1.953.797-3.728 2.078-5.01S16.938 5 18.891 5zm62.219 5.658H18.89a1.431 1.431 0 0 0-1.43 1.43v62.219a1.438 1.438 0 0 0 1.43 1.43h19.802l-.005 2.829-.009 6.2 11.356-8.598.627-.396.753-.035 29.573.012c.451-.02.864-.204 1.158-.49l.012-.012a1.34 1.34 0 0 0 .383-.94V12.088c0-.39-.163-.75-.421-1.01a1.431 1.431 0 0 0-1.01-.42z"/><path fill-rule="evenodd" clip-rule="evenodd" d="M35.976 59.528l-1.172-6.287 7.2-1.343c2.217-.413 1.445-4.553-.772-4.14l-7.2 1.343-.358-1.919 7.073-1.319c11.591-2.161 8.487-18.965-3.133-16.798L27.456 30.96a1.647 1.647 0 0 0-1.315 1.917l2.06 11.043-.82.152c-2.217.414-1.445 4.553.773 4.14l.818-.153.358 1.92-.819.152c-2.217.413-1.445 4.553.772 4.14l.82-.153 1.172 6.286c.42 2.254 5.121 1.378 4.701-.876zm3.355-17.684l-6.43 1.199-1.588-8.52 6.43-1.199c6.06-1.13 7.65 7.39 1.588 8.52zm13.61 24.324l2.817-4.108 4.705 3.226c1.448.993 3.303-1.711 1.854-2.705l-4.705-3.226.86-1.254 4.622 3.17c7.574 5.192 15.118-5.77 7.526-10.977l-6.638-4.551a1.283 1.283 0 0 0-1.78.332l-4.947 7.215-.535-.367c-1.45-.993-3.304 1.712-1.855 2.705l.535.367-.86 1.254-.535-.367c-1.449-.993-3.303 1.712-1.854 2.705l.535.367-2.817 4.108c-1.01 1.472 2.062 3.579 3.072 2.106zm11.587-7.89l-4.201-2.881 3.817-5.567 4.201 2.88c3.96 2.716.144 8.283-3.817 5.567zm-5.816-19.747l1.3-4.249 4.866 1.49c1.498.458 2.354-2.34.856-2.798l-4.866-1.49.397-1.296 4.78 1.463c7.833 2.397 11.326-8.95 3.473-11.352l-6.865-2.101a1.144 1.144 0 0 0-1.426.758l-2.284 7.462-.553-.169c-1.499-.459-2.355 2.339-.856 2.797l.553.17-.396 1.297-.554-.17c-1.498-.458-2.354 2.34-.856 2.798l.554.17-1.3 4.248c-.467 1.523 2.71 2.495 3.177.972zm7.754-9.81l-4.345-1.33 1.762-5.758 4.345 1.33c4.096 1.253 2.334 7.01-1.762 5.757z"/><text y="115" font-size="5" font-weight="bold" font-family="'Helvetica Neue', Helvetica, Arial-Unicode, Arial, Sans-serif">Created by Mourad Mokrane</text><text y="120" font-size="5" font-weight="bold" font-family="'Helvetica Neue', Helvetica, Arial-Unicode, Arial, Sans-serif">from the Noun Project</text></svg>