<svg xmlns="http://www.w3.org/2000/svg" viewBox="0 0 46 57.50000125"><path style="line-height:normal;text-indent:0;text-align:start;text-decoration-line:none;text-decoration-style:solid;text-decoration-color:#000;text-transform:none;block-progression:tb;isolation:auto;mix-blend-mode:normal" d="M23 0c12.708 0 23 10.291 23 23S35.708 46 23 46 0 35.709 0 23 10.292 0 23 0zm-9.795 15a.502.502 0 0 0-.408.25l-4.73 8.225a.502.502 0 0 0 .183.685l3.072 1.781c.24.139.545.056.682-.183l1.135-1.975.845.49.926.536a4.45 4.45 0 0 0 1.295 3.13 1.54 1.54 0 0 0 .02 1.483c.3.524.869.687 1.437.648-.017.29-.044.587.11.854.398.693 1.266.915 1.976.58.02.213-.033.429.08.625.42.73 1.37.987 2.098.564l1.078-.625 1.068.62a1.541 1.541 0 0 0 2.098-.565c.113-.196.06-.412.08-.625.71.335 1.578.113 1.977-.58.153-.267.126-.564.109-.853.568.039 1.137-.125 1.437-.649.302-.524.16-1.1-.16-1.574.259-.13.528-.255.682-.522h.002c.021-.037.033-.077.05-.115a.5.5 0 0 0 .16-.166c.396-.68.6-1.455.6-2.242l.395-.229.512-.296.511-.295.336-.196 1.133 1.973a.5.5 0 0 0 .686.184l3.07-1.778a.5.5 0 0 0 .184-.681l-4.729-8.227a.5.5 0 0 0-.459-.25.466.466 0 0 0-.226.064l-3.07 1.781a.5.5 0 0 0-.182.682l.138.242-.338.195-.511.295-.512.297-.408.237a4.446 4.446 0 0 0-2.746-.567 4.382 4.382 0 0 0-1.674.563h-.002l-.21.12-.234-.126a4.621 4.621 0 0 0-1.68-.535 4.5 4.5 0 0 0-2.724.552l-.926-.535-.85-.492.141-.244a.502.502 0 0 0-.183-.684l-3.07-1.781a.494.494 0 0 0-.274-.066zm.207 1.185l2.207 1.28-4.23 7.357-2.207-1.279zm19.176 0l4.23 7.36-2.207 1.277-4.23-7.357zm-2.684 2.452l2.457 4.277-.336.195-.511.297h-.002l-.512.3-.023.013a4.513 4.513 0 0 0-.434-1.094.493.493 0 0 0-.035-.07l-1.213-2.109a4.48 4.48 0 0 0-.783-.996l.035-.022.512-.297.511-.297.334-.193zm-13.81.01l.845.488.545.316a4.43 4.43 0 0 0-.779.993l-1.213 2.11a4.445 4.445 0 0 0-.451 1.18l-.555-.322-.85-.492zm9.59.556a3.43 3.43 0 0 1 2.334 1.166c.151.174.29.364.41.573l1.213 2.109.004.012a3.47 3.47 0 0 1 .394 2.404 1.488 1.488 0 0 0-.305-.242l-4.091-2.373a1.66 1.66 0 0 0-.174-.885.491.491 0 0 0-.033-.078l-.006-.014-.006-.012a1.603 1.603 0 0 0-.45-.502h-.001a1.751 1.751 0 0 0-1.903-.088c-.006 0-.013.01-.02.012l-.027.02-2.234 1.292a.455.455 0 0 0-.072.053l-.055.031c-.503.292-1.099.096-1.572-.33l1.332-.775 1.385-.803.013-.01h.004l1.45-.842h.001l.444-.26h.002a3.415 3.415 0 0 1 1.963-.456zm-5.375.016a3.595 3.595 0 0 1 1.654.303l-.64.371-1.403.813h-.002L18 21.822a.5.5 0 0 0-.182.682c.694 1.207 2.187 1.708 3.344 1.037l2.24-1.299c.007 0 .013-.01.02-.014l.117-.074.033-.018c.357-.207.75-.11.95.184a.5.5 0 0 0-.184.927l.45.26a.5.5 0 0 0 .1.06l4.344 2.519c.265.153.35.471.198.738a.52.52 0 0 1-.729.195l-4.863-2.818-.512-.297c-.58-.344-1.088.533-.502.865l.512.297 4.863 2.819.512.296a.53.53 0 0 1 .195.739.518.518 0 0 1-.728.195l-.512-.297-4.863-2.82-.512-.297c-.58-.344-1.089.533-.502.865l.512.297.297.172 4.566 2.648a.53.53 0 0 1 .197.737h-.002a.519.519 0 0 1-.728.197l-1.024-.594-4.35-2.523-1.025-.594c-.567-.298-1.041.523-.5.865l5.373 3.118c.265.152.35.47.198.736a.519.519 0 0 1-.729.197l-5.064-2.935h-.006l-.305-.178h-.008l-1.582-.918c-.105-.061-.192-.14-.289-.21a.5.5 0 0 0-.289-.212 3.46 3.46 0 0 1-.674-4.318l1.215-2.112a3.399 3.399 0 0 1 2.737-1.72zm-9.432 3.268a.595.595 0 0 0-.25 1.107.59.59 0 0 0 .807-.216.595.595 0 0 0-.498-.891h-.059zm24.187 0a.595.595 0 0 0-.498.89.59.59 0 0 0 .807.217.595.595 0 0 0-.309-1.107zm-18.039 6.115c.03.018.053.04.082.057l.764.442c-.017.01-.034.017-.05.027a.518.518 0 0 1-.73-.198.536.536 0 0 1-.066-.328zm1.844 1.074l.133.078h.002l.937.543-.576.334a.52.52 0 0 1-.728-.197.53.53 0 0 1 .197-.736c.012-.01.024-.014.035-.022zm2.067 1.198l1.07.623-.582.338a.52.52 0 0 1-.729-.198.528.528 0 0 1 .196-.736l.045-.027z" color="#000" font-weight="400" font-family="sans-serif" white-space="normal" overflow="visible"/></svg>