<svg xmlns="http://www.w3.org/2000/svg" viewBox="0 0 382.66666 441.33334" height="441.333" width="382.667"><defs><clipPath id="a"><path d="M0 3309.62h2870V9.621H0z"/></clipPath></defs><g clip-path="url(#a)" transform="matrix(.13333 0 0 -.13333 0 441.333)"><path d="M2547.7 1380.01c-29.22 0-57.78-3.95-85.2-11.68-33.87 136.91-157.77 238.75-305.04 238.75-173.24 0-314.18-140.94-314.18-314.18v-226.02h-824.69v226.02c0 173.24-140.93 314.18-314.18 314.18-147.262 0-271.172-101.84-305.031-238.75-27.43 7.73-55.981 11.68-85.199 11.68C140.941 1380.01 0 1239.07 0 1065.83V551.219c0-173.239 140.941-314.18 314.18-314.18 29.218 0 57.769 3.981 85.199 11.723C433.238 111.84 557.148 10.012 704.41 10.012c173.25 0 314.18 140.929 314.18 314.179V550.16h824.69V324.191c0-173.25 140.94-314.18 314.18-314.18 147.27 0 271.17 101.829 305.04 238.751 27.42-7.742 55.98-11.723 85.2-11.723 173.24 0 314.18 140.941 314.18 314.18v514.611c0 173.24-140.94 314.18-314.18 314.18zM390.23 399.148c-23.468-11.918-49.289-18.089-76.05-18.089-93.828 0-170.2 76.332-170.2 170.16v514.611c0 93.83 76.372 170.19 170.2 170.19 26.761 0 52.582-6.21 76.05-18.08zm484.34-74.957c0-93.871-76.332-170.203-170.16-170.203-93.82 0-170.191 76.332-170.191 170.203V1292.9c0 93.83 76.371 170.15 170.191 170.15 93.828 0 170.16-76.32 170.16-170.15zm968.71 369.957h-824.69v228.75h824.69zm484.38 563.672V324.191c0-93.832-76.37-170.203-170.2-170.203-93.83 0-170.16 76.371-170.16 170.203V1292.9c0 93.83 76.33 170.15 170.16 170.15 93.87 0 170.2-76.32 170.2-170.15zm390.23-706.601c0-93.828-76.37-170.16-170.19-170.16-26.76 0-52.58 6.171-76.06 18.089v818.792c23.48 11.91 49.3 18.08 76.09 18.08 93.83 0 170.16-76.33 170.16-170.15zM1047.07 2229.69c0-39.76-32.23-71.99-71.992-71.99H845.16c-39.769 0-72 32.23-72 71.99 0 39.77 32.231 72 72 72h129.918c39.762 0 71.992-32.23 71.992-72zm0-232.07c0-39.76-32.23-71.99-71.992-71.99H845.16c-39.769 0-72 32.23-72 71.99 0 39.77 32.231 72 72 72h129.918c39.762 0 71.992-32.23 71.992-72zm-621.289-317.85c39.77 0 71.989 32.23 71.989 72.03v161.25c94.96 55.71 155.941 159.22 155.941 271.45 0 112.15-60.981 215.7-155.941 271.41v5.31c0 93.83 76.332 170.19 170.16 170.19h484.37c83.75 0 153.6-60.86 167.62-140.66-103.36-101.49-180.74-265.63-180.74-390.39 0-152.27 84.02-245.78 183.32-276.02v-539.65c0-39.76 32.23-71.99 71.99-71.99 39.77 0 71.99 32.23 71.99 71.99v539.65c99.26 30.2 183.29 123.75 183.29 276.02 0 126.48-79.54 293.51-185.08 394.61-14.07 131.17-109.22 238.47-234.18 270.58v219.34c0 39.77-32.23 71.99-72.03 71.99h-37.54v180.74c0 39.77-32.23 72-71.99 72H771.289c-39.769 0-71.988-32.23-71.988-72v-180.74h-37.539c-39.774 0-72.032-32.22-72.032-71.99v-219.34c-135.511-34.84-235.941-158.08-235.941-304.33v-50.35c0-29.89 18.441-56.64 46.332-67.31 65.578-24.96 109.609-88.9 109.609-159.06 0-70.2-44.031-134.14-109.609-159.1-27.891-10.63-46.332-37.42-46.332-67.27V1751.8c-.039-39.8 32.231-72.03 71.992-72.03zm968.709 679.57c62.93-75.27 111.29-183.4 111.29-258.98 0-98.6-55.9-142.74-111.29-142.74-55.39 0-111.29 44.14-111.29 142.74 0 75.58 48.32 183.71 111.29 258.98zm-551.209 806.29h133.668v-108.75H843.281zM733.75 2912.9h352.73v-137.5H733.75zm1513.63-1625.28v-27.77c0-39.77-32.22-71.99-71.99-71.99-39.77 0-72.03 32.22-72.03 71.99v27.77c0 39.77 32.26 72.04 72.03 72.04s71.99-32.27 71.99-72.04z"/></g></svg>