<svg id="Слой_1" xmlns="http://www.w3.org/2000/svg" viewBox="0 0 841.9 595.3"><style>.st0{fill:#636363}</style><path class="st0" d="M253.3 207.5c-.1-11.5-7.7-19.5-21-19.6h-21v39.3h21c13.3-.2 20.9-8.2 21-19.7zm359.1 0c-.1-11.5-7.7-19.5-21-19.6h-21v39.3h21c13.3-.2 20.9-8.2 21-19.7zm57.4 18.7H699l-14.6-34.5zm69.2-87h102.9v242H739z"/><path class="st0" d="M307.2 182.4v-43.2H0v242h307.2V264.7h-6.7v-82.3h6.7zm-49.3 82.3l-21.1-31.5h-25.5v31.5h-6.7v-82.3h27.8c8.5 0 15.5 2.7 20.3 7.2 4.8 4.6 7.5 11 7.5 18.1 0 10.1-4.7 16.4-9.4 19.8-2.7 2-5.4 3.2-7.2 3.8l22.5 33.3h-8.2zm149.5-125.5v242h70.4v-242h-70.4zm49.2 125.5h-6.7v-82.3h6.7v82.3zm107-125.5v43.2h27.8c8.5 0 15.5 2.7 20.3 7.2 4.8 4.6 7.5 11 7.5 18.1 0 10.1-4.7 16.4-9.4 19.8-2.7 2-5.4 3.2-7.2 3.8l22.5 33.3h-8L596 233.1h-25.5v31.5h-6.7v116.5h83.9v-242h-84.1zm-248.2 0v242h83.8v-155 11.9l-11.5 26.5h-5l-26.8-62.9-8.1-19.4h8.1l30.8 72.9 12.5-29v-87zm340.4 0v107.4l27.6-64.3h5l26.8 62.8 8.1 19.5h-8.1L701.4 232h-34l-11.6 27.5v121.7h75v-242zm-169.8-.1v43.2h44.2v5.7h-37.4v31.4h34v5.8h-34v33.6h37.4v5.8H486v116.6h69.4V139.1z"/></svg>