<svg xmlns="http://www.w3.org/2000/svg" viewBox="0 0 430.66666 412" height="412" width="430.667"><defs><clipPath id="a"><path d="M0 3081.51h3230V1.512H0z"/></clipPath></defs><g clip-path="url(#a)" transform="matrix(.13333 0 0 -.13333 0 412)"><path d="M275.43 1468.5c0-39.76-32.231-71.99-72.032-71.99H71.988C32.23 1396.51 0 1428.74 0 1468.5c0 39.77 32.23 72 71.988 72h131.41c39.762 0 72.032-32.23 72.032-72zm685.468-631.441a71.839 71.839 0 0 1 18.59-54.918 71.91 71.91 0 0 1 53.132-23.403h138.71c39.76 0 71.99 32.231 71.99 71.992 0 39.77-32.23 72.032-71.99 72.032h-51.53c55.63 180.078 243.99 332.658 496.18 395.428 252.14-62.77 440.5-215.35 496.17-395.428h-51.56c-39.77 0-72-32.262-72-72.032 0-39.761 32.23-71.992 72-71.992h138.75c20.19 0 39.49 8.481 53.12 23.403a71.82 71.82 0 0 1 18.59 54.918c-12.53 142.113-82.42 275.231-202.14 385.041-113.75 104.37-264.77 180.54-436.72 220.27a72.132 72.132 0 0 1-32.42 0c-171.96-39.73-322.97-115.9-436.72-220.27-119.73-109.81-189.652-242.928-202.152-385.041zM2609.77 2393.27c18.43 0 36.83 7.03 50.89 21.05l92.93 92.93c28.13 28.13 28.13 73.72 0 101.84-28.12 28.13-73.71 28.09-101.83 0l-92.89-92.93c-28.13-28.12-28.13-73.71 0-101.84 14.06-14.06 32.46-21.05 50.9-21.05zm-996.76 412.85c39.76 0 71.99 32.23 71.99 71.99v131.41c0 39.77-32.23 71.99-71.99 71.99-39.77 0-71.99-32.22-71.99-71.99v-131.41c0-39.76 32.22-71.99 71.99-71.99zm-1047.658-391.8c14.058-14.06 32.5-21.09 50.898-21.09 18.441 0 36.871 7.03 50.941 21.09 28.118 28.13 28.118 73.72 0 101.84l-92.929 92.93c-28.133 28.09-73.711 28.09-101.84-.04-28.121-28.12-28.121-73.67 0-101.8zM1449.45 292.719c-39.76 0-71.99-32.219-71.99-71.989v-66.718H859.18c-93.828 0-170.16 76.328-170.16 170.16 0 93.867 76.332 170.187 170.16 170.187h514.61c39.76 0 71.99 32.231 71.99 72 0 39.762-32.23 71.993-71.99 71.993H859.18C685.941 638.352 545 497.41 545 324.172 545 150.93 685.941 9.988 859.18 9.988h590.27c39.81 0 72.03 32.23 72.03 71.992v138.75c0 39.77-32.26 71.989-72.03 71.989zM3154.06 1540.5h-131.4c-39.77 0-72-32.23-72-72 0-39.76 32.23-71.99 72-71.99h131.4c39.77 0 71.99 32.23 71.99 71.99 0 39.77-32.22 72-71.99 72zM1613.01 2626.24c-648.748 0-1176.561-527.81-1176.561-1176.56 0-226.06 64.289-445.67 185.891-635.039 13.75-21.411 36.961-33.129 60.672-33.09a71.539 71.539 0 0 1 38.828 11.41c33.469 21.48 43.16 66.008 21.68 99.488-106.68 166.131-163.09 358.831-163.09 557.231 0 569.37 463.2 1032.57 1032.58 1032.57 569.37 0 1032.58-463.2 1032.58-1032.57 0-198.44-56.41-391.1-163.09-557.231-21.52-33.437-11.8-77.969 21.64-99.488 33.48-21.492 78.05-11.762 99.49 21.68 121.64 189.369 185.94 408.979 185.94 635.039.04 648.75-527.77 1176.56-1176.56 1176.56zm-18.91-1039.96c-146.09 46.56-244.22 180.9-244.22 334.29 0 153.44 98.17 287.78 244.22 334.3a71.992 71.992 0 0 0 43.71 0c146.1-46.52 244.22-180.86 244.22-334.3 0-153.39-98.12-287.73-244.22-334.29a71.838 71.838 0 0 0-21.83-3.4c-7.39 0-14.77 1.13-21.88 3.4zm21.88 145.54c73.86 33.01 122.07 106.22 122.07 188.75 0 82.58-48.21 155.79-122.07 188.75-73.91-32.96-122.11-106.17-122.11-188.75 0-82.57 48.2-155.74 122.11-188.75zm756.75-1093.468h-514.61c-39.76 0-71.99-32.231-71.99-71.993 0-39.769 32.23-72 71.99-72h514.61c93.87 0 170.2-76.359 170.2-170.187 0-93.832-76.33-170.16-170.2-170.16h-518.28v66.718c0 39.77-32.22 71.989-71.99 71.989-39.76 0-71.99-32.219-71.99-71.989V81.98c0-39.761 32.23-71.992 71.99-71.992h590.27c173.25 0 314.18 140.942 314.18 314.184 0 173.238-140.93 314.18-314.18 314.18zM1615.98 1147.8c-39.77 0-72.03-32.23-72.03-71.99V566.359c0-39.769 32.26-72.039 72.03-72.039 39.76 0 71.99 32.27 71.99 72.039v509.451c0 39.76-32.23 71.99-71.99 71.99z"/></g></svg>