<svg id="Capa_1" xmlns="http://www.w3.org/2000/svg" viewBox="-243 245 512 512"><style>.st0{fill:#fff}</style><path class="st0" d="M125.1 760c-2.3 0-4.6-.1-6.9-.2-37.3-2.4-71-16.4-96.3-28.4-65.5-31.7-122.8-76.6-170.3-133.4-39.1-47-65.5-91.1-83.2-138.8-15.1-41.2-15.2-66.2-14-81.5 1.8-20.2 9.9-37.7 24.3-52.1l36.9-37.3c11.4-11 24.8-16.8 38.8-16.8 14 0 27.2 5.8 38.3 16.8 7.1 6.6 14 13.6 20.3 20.1 3.2 3.5 6.6 6.9 10 10.3l29.5 29.5c11.7 11.7 17.9 25.4 17.9 39.5 0 14.1-6.2 27.8-17.9 39.5-1.5 1.5-3 3-4.5 4.6-1.5 1.6-3.1 3.1-4.6 4.6l-2.1 2.1c-6.9 6.9-13.9 14.1-21.5 21.1 6.4 13.7 15.1 27.2 27.9 43.4 27.7 34 56.5 60.3 88.3 80.5 2.5 1.6 5.8 3.3 10.4 5.5 1 .5 1.9 1 2.8 1.4 1.2.6 2.4 1.2 3.6 1.9l32.5-32.4c11.5-11.4 25.1-17.5 39.1-17.5 14.2 0 27.6 6.1 38.7 17.6l59.6 59.6c11.4 11.3 17.5 24.9 17.5 39.2 0 14.2-5.9 27.8-17.1 39.5-4 4.2-8.5 8.6-14.1 14l-1.4 1.4c-6.2 6-12.1 11.7-17.1 17.8-.1.2-.2.3-.3.4v.1l-.3.3c-17.2 18.4-39 27.7-64.8 27.7zm-270.8-453.2c-4.6 0-9.6 2.4-14.3 6.9l-36.7 36.7c-8.4 8.4-13 18.3-14 30.2-1.6 19.4 2.1 39.9 11.9 66.3 16.1 43.7 40.7 84.6 77.3 128.7 44.2 53 97.5 94.7 158.5 124.2 22.1 10.6 51.5 22.9 83.2 25 1.6.1 3.2.1 4.8.1 15.9 0 28-5.1 38.4-16.2 6.7-7.9 13.8-14.8 21.1-21.8l2.5-2.4c3.4-3.3 6.6-6.4 9.7-9.7v-1.9h1.8c9-10 8.7-19.2-.9-28.9l-59.8-59.8c-2.4-2.6-7.3-6.9-13.4-6.9-5.8 0-10.9 3.9-14.2 7.2l-37 37c-6.6 6.9-13.7 8.4-18.5 8.4-4 0-7.8-1-12-3l-.3-.1-.2-.2c-.2-.2-.6-.4-.8-.5l-.1-.1H41c-2.6-1.6-5.8-3.3-10.4-5.6-4.4-2.2-9.1-4.5-13.6-7.4-34.9-22-66.5-50.8-96.6-87.8l-.1-.1-.1-.1c-16.7-21.2-27.6-38.9-35.3-57.6l-.1-.2-.1-.2c-.1-.3-.2-.5-.2-.8-2.2-6.8-4-17.1 6.1-27.4.3-.4.6-.6.7-.7l.1-.1c9.1-8.2 17.3-16.4 27-26.3 2.1-2 4.2-4.2 6.2-6.2l3.1-3.1c10.4-10.4 10.4-18.9 0-29.3l-29.5-29.5c-1.4-1.5-2.8-2.9-4.2-4.2-2-2.1-4.2-4.2-6.2-6.3-7.3-7.5-13.5-13.6-19.4-19.2l-.3-.3c-3.1-3.1-8-6.8-13.8-6.8z"/><path class="st0" d="M-145.6 274.6c13.2 0 25.7 5.5 36.2 15.9 7 6.5 13.8 13.4 20.3 20.1 3.2 3.5 6.7 7 10 10.3l29.5 29.5c22.7 22.7 22.7 52.1 0 74.8-3 3-6.1 6.2-9.1 9.2-8 8.1-16.2 16.5-25.1 24.6 6.6 14.6 15.7 28.9 29.2 46 27.8 34.2 56.9 60.7 88.9 81 3.1 1.9 6.8 3.8 10.7 5.7 2.7 1.4 5.5 2.8 8.3 4.3l34.1-34c11-10.9 23.7-16.6 37-16.6 13.4 0 26 5.8 36.5 16.7l59.6 59.6c10.9 10.8 16.6 23.7 16.6 37.1 0 13.3-5.6 26.3-16.3 37.4-4.6 4.8-9.4 9.5-14 13.9-6.8 6.6-13.3 12.8-18.9 19.6-.1.2-.3.3-.4.5C171 748 150.1 757 125.1 757c-2.2 0-4.5-.1-6.8-.2-37.1-2.4-70.2-16.3-95.1-28.1-65-31.5-122-76.1-169.3-132.6-39-46.9-65.2-90.7-82.7-137.9-7.1-19.3-16.4-48.6-13.8-80.2 1.7-19.5 9.6-36.4 23.4-50.2l36.7-37.1.2-.2c10.8-10.4 23.5-15.9 36.7-15.9m270.5 453.3c16.8 0 29.7-5.5 40.6-17.2 6.7-7.9 13.9-14.9 20.9-21.6 4.7-4.6 9-8.7 13.2-13.2 11-11.5 11-22.8-.1-34L140 582.4l-.2-.2c-3.4-3.7-8.9-7.9-15.6-7.9-6.8 0-12.6 4.4-16.3 8.1l-37 37c-1.8 1.9-7.4 7.5-16.4 7.5-3.6 0-7-.9-10.7-2.7-.4-.3-.9-.6-1.3-.8-3.1-1.9-6.8-3.8-10.7-5.7-4.3-2.1-8.9-4.4-13.3-7.2-34.7-21.9-66.2-50.6-96-87.3l-.1-.1c-16.4-20.8-27.2-38.3-34.9-56.9-.1-.4-.2-.7-.3-1-2-6.1-3.7-15.2 5.6-24.5.1-.2.3-.3.5-.5 9.4-8.5 18-17.1 27.1-26.4 3.1-3 6.2-6.2 9.3-9.3 11.5-11.5 11.5-22 0-33.5l-29.5-29.5c-3.5-3.6-7-7-10.3-10.5-6.6-6.8-12.9-13.1-19.5-19.3l-.3-.3c-3.5-3.5-9-7.6-15.8-7.6-5.5 0-11.1 2.7-16.4 7.7l-36.8 36.8c-9 9-13.8 19.5-14.9 32.1-1.6 19.7 2.1 40.7 12.1 67.6 16.3 44.1 41 85.2 77.8 129.6 44.6 53.3 98.3 95.3 159.5 124.9 22.4 10.7 52.2 23.2 84.3 25.3 1.7.1 3.4.1 5 .1m-270.5-459.3c-14.8 0-28.9 6.1-40.9 17.6l-.2.2-36.7 37.1c-14.8 14.8-23.3 33-25.1 53.9-1.2 14.6-.1 30.2 3.4 46.5 3.1 14.8 7.6 27.8 10.8 36.3 17.8 48 44.4 92.4 83.7 139.7C-102.8 657-45.2 702.1 20.7 734.1c11.3 5.3 26.4 12.2 43.7 17.9 18.8 6.2 36.3 9.7 53.6 10.8h.2c2.3.1 4.7.2 7.1.2 26.7 0 49.1-9.7 66.8-28.7l.6-.6.1-.1.2-.2c5-6 10.7-11.6 16.8-17.5l1.4-1.4c5.6-5.4 10.1-9.8 14.2-14.1 11.8-12.2 18-26.6 18-41.6 0-15.1-6.4-29.5-18.4-41.4l-59.5-59.5c-11.7-12.1-25.8-18.5-40.8-18.5-14.9 0-29.1 6.3-41.2 18.3l-31 30.9c-.6-.3-1.1-.6-1.7-.9-.9-.5-1.8-.9-2.7-1.4h-.2c-4.5-2.2-7.7-3.9-10.2-5.4-31.5-20-60-46-87.4-79.7-12-15.3-20.4-28-26.6-40.8 7-6.5 13.6-13.2 20-19.7l2.1-2.1 4.6-4.6c1.5-1.5 3-3.1 4.5-4.6 12.3-12.3 18.8-26.7 18.8-41.6s-6.5-29.4-18.8-41.6l-29.5-29.5c-3.3-3.3-6.7-6.7-9.8-10.1l-.1-.1-.1-.1c-6.4-6.6-13.3-13.6-20.5-20.3-11.7-11.4-25.7-17.5-40.5-17.5zm-12.3 47.2c4.2-3.9 8.4-6 12.2-6 4.7 0 8.9 3.2 11.6 5.8l.1.1.2.2.1.1.1.1c5.9 5.6 11.9 11.5 19.3 19.1 2 2.2 4.2 4.3 6.2 6.3 1.4 1.4 2.8 2.8 4.1 4.2l29.5 29.5c9.1 9.1 9.1 15.9 0 25l-3.1 3.1-6.1 6.1-.1.1-.1.1c-9.6 9.8-17.8 18-26.8 26.1h-.1c-.2.2-.6.5-1 1-12.5 12.8-8.2 25.9-6.7 30.3.1.3.1.4.2.6l.1.4.2.4c7.8 18.9 18.9 36.9 35.7 58.3l.2.3.1.1c30.3 37.3 62.1 66.2 97.3 88.4 4.6 3 9.4 5.3 13.9 7.5s7.7 3.9 10.2 5.4l.2.1.2.1c.1.1.3.2.4.2l.5.3.5.3c4.6 2.3 8.9 3.3 13.3 3.3 5.4 0 13.4-1.6 20.7-9.3l36.9-36.9c2.9-2.9 7.3-6.3 12.1-6.3 5 0 9.1 3.7 11.2 6l.1.1.1.1.2.2 59.5 59.5c8.6 8.7 8.7 16.3.3 25.3-.3.3-.6.6-.8.9-3.2 3.4-6.5 6.6-10 10.1-.8.8-1.7 1.6-2.5 2.4-7.3 7-14.4 13.9-21.2 21.9-9.8 10.5-21 15.2-36.1 15.2-1.5 0-3.1 0-4.6-.1-31.1-2-60.2-14.3-82.1-24.7-60.5-29.3-113.5-70.8-157.5-123.3-36.4-43.9-60.8-84.5-76.8-127.8-9.7-26-13.3-46.1-11.7-65 1-11.2 5.3-20.5 13.2-28.3l36.6-36.9z"/></svg>