<svg xmlns="http://www.w3.org/2000/svg" viewBox="0 0 402.66666 400" height="400" width="402.667"><defs><clipPath id="a"><path d="M0 2993.9h3020V3.898H0z"/></clipPath></defs><g clip-path="url(#a)" transform="matrix(.13333 0 0 -.13333 0 400)"><path d="M1553.87 2309.8c121.25 0 243.98 93.94 243.98 273.48 0 128.78-86.95 301.79-198.01 393.98-26.64 22.11-65.31 22.11-91.95 0-111.01-92.19-197.97-265.2-197.97-393.98 0-179.54 122.74-273.48 243.95-273.48zm0 509.53c56.79-69.61 99.96-167.38 99.96-236.05 0-95.55-53.83-129.5-99.96-129.5-46.14 0-99.96 33.95-99.96 129.5 0 68.67 43.16 166.44 99.96 236.05zm850.39-2125.549c0 129.34-105.24 234.571-234.57 234.571-129.38 0-234.61-105.231-234.61-234.571 0-129.371 105.23-234.609 234.61-234.609 129.33 0 234.57 105.238 234.57 234.609zm-325.16 0c0 49.957 40.63 90.59 90.59 90.59s90.58-40.633 90.58-90.59c0-49.961-40.62-90.621-90.58-90.621s-90.59 40.66-90.59 90.621zm-1000.86 80.508c2.23-39.687-28.12-73.711-67.81-75.937-68.668-3.864-139.961-5.864-211.91-5.864-71.961 0-143.25 2-211.879 5.864-39.731 2.226-70.082 36.25-67.852 75.937 2.231 39.691 36.332 70.16 75.941 67.813 131.911-7.422 275.661-7.422 407.57 0 39.65 2.187 73.72-28.082 75.94-67.813zm1937.54 500.551V426.359c0-89.648-98.51-148.32-319.53-190.23-172.54-32.738-401.05-50.777-643.36-50.777-90.66 0-180.35 2.527-266.56 7.57-39.69 2.308-70 36.367-67.7 76.058 2.31 39.719 36.25 70.149 76.1 67.692 83.39-4.844 170.27-7.301 258.16-7.301 482.93 0 765.43 70.699 818.87 111.289v692.62c-46.45-17.35-104.69-32.5-175.47-45.94-172.58-32.74-401.06-50.78-643.4-50.78-90.59 0-180.23 2.57-266.56 7.57-39.69 2.35-70 36.37-67.7 76.1 2.35 39.69 36.25 69.96 76.1 67.69 83.51-4.88 170.39-7.34 258.16-7.34 482.97 0 765.47 70.74 818.91 111.29v119.3c-46.49-17.35-104.69-32.5-175.51-45.94-172.58-32.74-401.06-50.78-643.4-50.78-90.55 0-180.23 2.58-266.56 7.61-39.69 2.31-70 36.37-67.66 76.06 2.31 39.69 36.21 70.04 76.06 67.69 83.51-4.88 170.39-7.34 258.16-7.34 430.04 0 701.13 56.06 793.13 96.99-92 40.94-363.09 97.03-793.13 97.03-87.85 0-174.73-2.46-258.16-7.34-39.73-2.34-73.75 28.01-76.06 67.7-2.34 39.68 27.97 73.75 67.66 76.09 86.25 5 175.9 7.54 266.56 7.54 242.34 0 470.82-18.01 643.4-50.74 220.98-41.92 319.53-100.63 319.53-190.28 0-2.3-.08-4.65-.2-6.91.12-1.68.16-3.32.16-5v-263.83c0-.7.04-1.41.04-2.15-.04-.9-.04-1.79-.04-2.73zM798.52 957.031c129.371 0 234.6 105.229 234.6 234.599 0 129.38-105.229 234.57-234.6 234.57-129.34 0-234.571-105.19-234.571-234.57 0-129.37 105.231-234.599 234.571-234.599zm0 325.189c49.96 0 90.582-40.62 90.582-90.59 0-49.96-40.622-90.58-90.582-90.58-49.969 0-90.59 40.62-90.59 90.58 0 49.97 40.66 90.59 90.59 90.59zm518.98 942.15h-204.8v204.76c0 148.48-103.52 273.25-242.149 305.86v114.81h332.809c39.76 0 71.99 32.26 71.99 72.03s-32.23 71.99-71.99 71.99H802.07c-2.34.12-4.73.12-7.07 0H607.23c-39.769 0-72-32.22-72-71.99 0-39.77 32.231-72.03 72-72.03h119.29v-114.81c-138.629-32.61-242.141-157.38-242.141-305.86v-204.76H279.57C125.43 2224.37 0 2098.98 0 1944.8V219.801C0 116.359 145.039 75.578 271.371 51.629 412.891 24.8 600.078 9.989 798.52 9.989c198.429 0 385.66 14.812 527.14 41.64 126.37 23.95 271.41 64.73 271.41 168.172V1944.8c0 154.18-125.43 279.57-279.57 279.57zm-689.141 204.76c0 93.83 76.332 170.2 170.161 170.2 93.82 0 170.191-76.37 170.191-170.2v-204.76H628.359zM1453.05 238.672c-53.17-32.621-276.92-84.652-654.53-84.652-377.622 0-601.329 52.031-654.54 84.652v234.84c40.469-13.563 84.969-23.524 127.391-31.563 141.52-26.84 328.707-41.597 527.149-41.597 198.429 0 385.66 14.757 527.14 41.597 42.43 8.039 86.96 18 127.39 31.563zm0 390.308c-53.17-32.621-276.92-84.652-654.53-84.652-377.622 0-601.329 52.031-654.54 84.652v997.62c40.469-13.56 84.969-23.52 127.391-31.57 141.52-26.83 328.75-41.6 527.18-41.6 198.398 0 385.629 14.77 527.149 41.6 42.42 8.05 86.92 18.01 127.35 31.57zm0 1153.12c-53.17-32.65-276.92-84.68-654.53-84.68-377.622 0-601.329 52.03-654.54 84.68v162.7c0 74.76 60.821 135.58 135.59 135.58H1317.5c74.73 0 135.55-60.82 135.55-135.58z"/></g></svg>