<svg xmlns="http://www.w3.org/2000/svg" viewBox="0 0 99.7 124.6"><path d="M10 31.8h82.2v3.8H10zm68.1 26.3c-4.6 0-8.5-3.9-8.5-8.5 0-2.6-2.2-4.9-4.9-4.9h-.4c-.3 0-.5.1-.6.1s-.2.1-.3.1c-.3.1-.5.2-.6.2-1.7.8-2.9 2.6-2.9 4.4 0 4.6-3.9 8.5-8.5 8.5s-8.5-3.9-8.5-8.5c0-2.6-2.3-4.9-4.9-4.9-2.6 0-4.9 2.3-4.9 4.9 0 4.6-3.9 8.5-8.5 8.5s-8.5-3.9-8.5-8.5c0-2.6-2.3-4.9-4.9-4.9-.3 0-.7 0-1 .1V41c.3 0 .7-.1 1-.1 4.6 0 8.5 3.9 8.5 8.5 0 2.6 2.3 4.9 4.9 4.9s4.9-2.3 4.9-4.9c0-4.6 3.9-8.5 8.5-8.5s8.5 3.9 8.5 8.5c0 2.6 2.3 4.9 4.9 4.9s4.9-2.3 4.9-4.9c0-4 2.9-7.6 6.9-8.4l.3-.1c.4-.1.9-.1 1.3-.1 4.7 0 8.6 3.9 8.6 8.5.1 2.8 2.3 4.9 4.8 4.9 2.6 0 4.9-2.3 4.9-4.9 0-4.6 3.9-8.5 8.5-8.5.3 0 .5 0 .8.1v3.7c-.3 0-.5-.1-.8-.1-2.6 0-4.9 2.3-4.9 4.9-.1 4.8-4 8.7-8.6 8.7zm-26.9 8.6c-1.3 0-2.4-1.1-2.4-2.4 0-1.3 1.1-2.4 2.4-2.4 1.3 0 2.4 1.1 2.4 2.4 0 1.4-1.1 2.4-2.4 2.4z"/><circle cx="18.1" cy="64.4" r="2.4"/><circle cx="67.7" cy="74" r="2.4"/><circle cx="34.7" cy="74" r="2.4"/><circle cx="84.2" cy="64.4" r="2.4"/></svg>