<svg xmlns="http://www.w3.org/2000/svg" viewBox="0 0 417.33334 304" height="304" width="417.333"><defs><clipPath id="a"><path d="M0 2270.66h3130V.66H0z"/></clipPath></defs><g clip-path="url(#a)" transform="matrix(.13333 0 0 -.13333 0 304)"><path d="M1229.73 1638.01c13.16 0 26.48.74 39.84 2.22a72.206 72.206 0 0 1 39.88 17.85c114.34 102.11 149.1 264.81 86.53 404.85-62.62 140.08-207.19 222.65-359.46 205.51a72.175 72.175 0 0 1-39.879-17.86c-114.371-102.11-149.141-264.8-86.52-404.84 57.109-127.81 182.339-207.73 319.609-207.73zm-153.71 488.63h.07c80.9 0 154.73-47.11 188.44-122.46 33.67-75.35 19.53-161.88-34.45-222.15h-.08c-80.9 0-154.77 47.15-188.44 122.46-33.67 75.39-19.57 161.88 34.46 222.15zm-940.79-141.68c0 39.76 32.231 71.99 72 71.99H367.5a72.037 72.037 0 0 0 43.789-14.8c131.172-100.39 268.789-219.81 433.09-375.78 28.82-27.39 30.031-72.97 2.652-101.8-14.179-14.92-33.16-22.42-52.23-22.42-17.813 0-35.621 6.56-49.571 19.76-152.46 144.73-280.89 256.88-402.218 351.02H207.23c-39.73.04-72 32.26-72 72.03zm1242.78-434.34c21.72 17.97 77.65 62.43 109.06 87.35 156.17 123.9 282.77 201.83 393.09 179.45 144.45-29.37 197.93-174.22 245.07-301.99 20.98-56.8 40.79-110.43 66.18-150.78 21.13-33.64 11.01-78.09-22.62-99.26-11.91-7.5-25.16-11.09-38.28-11.09-23.91 0-47.35 11.95-61.02 33.67-33.36 53.08-56.72 116.36-79.33 177.58-37.46 101.48-72.86 197.38-138.64 210.74-44.64 9.1-137.11-41.8-274.96-151.17-31.01-24.57-86.09-68.4-106.91-85.55-30.63-25.31-76.02-20.98-101.33 9.69-25.35 30.7-21.02 76.05 9.69 101.36zM2495 81.68c-.16-39.649-32.38-71.68-71.99-71.68h-.31l-158.32.66c-14.97.078-29.58 4.809-41.72 13.559l-457.7 328.793c-32.3 23.199-39.65 68.199-16.48 100.5 23.2 32.308 68.2 39.648 100.5 16.449l439.03-315.352 135.31-.589c39.77-.192 71.84-32.579 71.68-72.34zm-959.96 366.37c-8.52-32.313-37.66-53.68-69.57-53.68-6.09 0-12.27.777-18.4 2.391l-5 1.316C926.09 534.102 392.578 674.762 121.801 415.309c-28.68-27.5-74.262-26.52-101.801 2.191-27.5 28.711-26.52 74.301 2.191 101.801 329.02 315.308 902.219 164.168 1456.599 18l4.96-1.289c38.48-10.153 61.41-49.532 51.29-87.961zM3121.21 81.68c-.19-39.649-32.38-71.68-71.99-71.68h-.35l-158.28.66a72.124 72.124 0 0 0-41.72 13.559l-457.74 328.793c-32.3 23.199-39.65 68.199-16.44 100.5 23.16 32.308 68.16 39.648 100.47 16.449l439.06-315.352 135.27-.589c39.77-.192 71.88-32.579 71.72-72.34zM20 783.629c-27.5 28.711-26.52 74.301 2.191 101.84 329.02 315.271 902.258 164.181 1456.599 18 514.49-135.617 1046.52-275.891 1315.62-18 28.71 27.5 74.3 26.519 101.8-2.188 27.54-28.711 26.56-74.301-2.15-101.801-141.44-135.539-328.55-184.41-540-184.41-277.93 0-597.97 84.371-911.95 167.192C926.09 900.27 392.539 1040.94 121.84 781.48c-28.75-27.5-74.3-26.558-101.84 2.149zm0 366.171c-27.5 28.71-26.52 74.3 2.191 101.8 329.02 315.31 902.219 164.18 1456.599 18.05 514.49-135.67 1046.52-275.9 1315.62-18.05 28.71 27.5 74.3 26.56 101.8-2.15 27.54-28.71 26.56-74.3-2.15-101.8-141.44-135.58-328.55-184.412-540-184.412-277.93 0-597.97 84.382-911.99 167.152-515.941 136.01-1049.492 276.68-1320.269 17.26-28.68-27.53-74.262-26.56-101.801 2.15z"/></g></svg>