<svg xmlns="http://www.w3.org/2000/svg" viewBox="0 0 441.33334 372" height="372" width="441.333"><defs><clipPath id="a"><path d="M0 2783.49h3310V3.488H0z"/></clipPath></defs><g clip-path="url(#a)" transform="matrix(.13333 0 0 -.13333 0 372)"><path d="M1944.02 525.602c133.09 160.859 188.71 359.289 140.16 527.928-5.39 18.75-18.13 34.49-35.31 43.63-144.73 77.11-333.32 71.91-510.51-10.04-44.49 188.05-156.02 341.64-306.33 408.36-17.77 7.89-38.05 8.24-56.13.98-158.32-63.79-278.17-222.62-325.861-418.91-182.891 91.02-380.269 99.61-530.43 19.61-17.187-9.14-29.918-24.88-35.308-43.63-48.563-168.639 7.07-367.108 140.109-527.928C46.48 460.012 0 364.461 0 296.07 0 193.609 118.48 125.129 384.141 74 598.59 32.75 882.699 10.012 1184.26 10.012c301.48 0 585.62 22.738 800.04 63.988 265.7 51.129 384.18 119.609 384.18 222.07-.04 68.391-46.53 163.981-424.46 229.532zM1558.87 936.18c134.92 73.95 282.81 91.64 393.9 47.07 25.86-148.941-58.43-332.93-213.51-458.512-117.89-95.468-260.35-143.828-383.4-136.949 122.5 115 200 298.512 203.52 501.09.31 15.859.11 31.641-.51 47.301zm-587.229-37.11c3.437 199.54 96.479 379.26 229.769 450.55 130.74-75.9 217.5-258.75 214.02-458.241-3.48-199.527-96.52-379.258-229.81-450.551-130.74 75.902-217.46 258.75-213.979 458.242zM415.66 983.25c116.289 46.64 272.86 25.08 412.738-57.809-.347-7.89-.628-15.863-.738-23.871-3.601-205.699 69.801-394.449 191.56-513.359-124.611-9.141-270.04 39.34-390.04 136.527C474.141 650.32 389.801 834.309 415.66 983.25zM1907.85 206.5c-199.3-33.828-456.29-52.5-723.63-52.5-267.341 0-524.341 18.629-723.599 52.5-199.101 33.82-276.601 71.012-304.801 89.762 37.621 24.648 146.84 68.949 391.91 102.699a74.54 74.54 0 0 1 6.801 1.25c198.09-152.422 444.02-198.32 629.689-119.141 185.7-79.14 431.6-33.32 629.69 119.141a74.24 74.24 0 0 1 6.79-1.25c245.12-33.711 354.3-78.012 391.92-102.66-28.21-18.789-105.71-55.981-304.77-89.801zm911.25 2086.56v261.6c0 126.17-102.65 228.83-228.83 228.83H1036.64c-126.171 0-228.831-102.66-228.831-228.83v-261.6c-273.707-35.43-485.821-270-485.821-553.17v-414.84c0-39.76 32.231-71.99 71.992-71.99 39.77 0 72.04 32.23 72.04 71.99v414.84c0 228.17 185.621 413.79 413.781 413.79H2484.8V1998.8h-118.32c-39.76 0-71.99-32.23-71.99-71.99v-549.88c0-39.77 32.23-72 71.99-72h380.63c39.77 0 71.99 32.23 71.99 72v549.88c0 39.76-32.22 71.99-71.99 71.99h-118.32v154.88h118.32c228.16 0 413.79-185.62 413.79-413.79V768.289c0-228.16-185.63-413.828-413.79-413.828h-170.86c-39.77 0-71.99-32.223-71.99-71.992 0-39.758 32.22-71.989 71.99-71.989h170.86c307.58 0 557.81 250.231 557.81 557.809v971.601c0 283.17-212.11 517.78-485.82 553.17zm-143.98-438.24v-405.9h-236.64v405.9zm0 442.89H951.801v256.95c0 46.8 38.039 84.84 84.839 84.84h1553.63c46.8 0 84.85-38.04 84.85-84.84z"/></g></svg>