<svg width="391" height="150" viewBox="0 0 391 150" fill="none" xmlns="http://www.w3.org/2000/svg"><path d="M163.776 112.064c.448 0 .864.048 1.248.144l-.408 2.16a4.55 4.55 0 0 0-1.104-.144c-.784 0-1.416.288-1.896.864-.48.576-.856 1.472-1.128 2.688V125h-2.208v-12.648h1.896l.216 2.568c.336-.944.792-1.656 1.368-2.136a3.054 3.054 0 0 1 2.016-.72zm12.638 9.984c0 .512.088.896.264 1.152.176.24.44.424.792.552l-.504 1.536c-.656-.08-1.184-.264-1.584-.552-.4-.288-.696-.736-.888-1.344-.848 1.264-2.104 1.896-3.768 1.896-1.248 0-2.232-.352-2.952-1.056-.72-.704-1.08-1.624-1.08-2.76 0-1.344.48-2.376 1.44-3.096.976-.72 2.352-1.08 4.128-1.08h1.944v-.936c0-.896-.216-1.536-.648-1.92-.432-.384-1.096-.576-1.992-.576-.928 0-2.064.224-3.408.672l-.552-1.608c1.568-.576 3.024-.864 4.368-.864 1.488 0 2.6.368 3.336 1.104.736.72 1.104 1.752 1.104 3.096v5.784zm-5.184 1.584c1.264 0 2.256-.656 2.976-1.968v-2.904h-1.656c-2.336 0-3.504.864-3.504 2.592 0 .752.184 1.32.552 1.704.368.384.912.576 1.632.576zm23.615-11.568c1.04 0 1.872.352 2.496 1.056.624.688.936 1.624.936 2.808V125h-2.208v-8.76c0-1.632-.592-2.448-1.776-2.448-.624 0-1.152.184-1.584.552-.432.352-.896.912-1.392 1.68V125h-2.208v-8.76c0-1.632-.592-2.448-1.776-2.448-.64 0-1.176.184-1.608.552-.432.368-.888.928-1.368 1.68V125h-2.208v-12.648h1.896l.192 1.848c.944-1.424 2.16-2.136 3.648-2.136.784 0 1.448.2 1.992.6.56.4.96.96 1.2 1.68.496-.736 1.04-1.296 1.632-1.68.608-.4 1.32-.6 2.136-.6zm18.634 6.24c0 .368-.016.744-.048 1.128h-8.064c.096 1.392.448 2.416 1.056 3.072.608.656 1.392.984 2.352.984.608 0 1.168-.088 1.68-.264.512-.176 1.048-.456 1.608-.84l.96 1.32c-1.344 1.056-2.816 1.584-4.416 1.584-1.76 0-3.136-.576-4.128-1.728-.976-1.152-1.464-2.736-1.464-4.752 0-1.312.208-2.472.624-3.48.432-1.024 1.04-1.824 1.824-2.4.8-.576 1.736-.864 2.808-.864 1.68 0 2.968.552 3.864 1.656.896 1.104 1.344 2.632 1.344 4.584zm-2.184-.648c0-1.248-.248-2.2-.744-2.856-.496-.656-1.24-.984-2.232-.984-1.808 0-2.792 1.328-2.952 3.984h5.928v-.144zm9.43 7.632c-.816 0-1.464-.24-1.944-.72-.464-.496-.696-1.184-.696-2.064v-15.24l2.208-.264v15.456c0 .352.056.608.168.768.128.16.336.24.624.24.304 0 .576-.048.816-.144l.576 1.536a3.598 3.598 0 0 1-1.752.432zm15.146-6.984c0 .368-.016.744-.048 1.128h-8.064c.096 1.392.448 2.416 1.056 3.072.608.656 1.392.984 2.352.984.608 0 1.168-.088 1.68-.264.512-.176 1.048-.456 1.608-.84l.96 1.32c-1.344 1.056-2.816 1.584-4.416 1.584-1.76 0-3.136-.576-4.128-1.728-.976-1.152-1.464-2.736-1.464-4.752 0-1.312.208-2.472.624-3.48.432-1.024 1.04-1.824 1.824-2.4.8-.576 1.736-.864 2.808-.864 1.68 0 2.968.552 3.864 1.656.896 1.104 1.344 2.632 1.344 4.584zm-2.184-.648c0-1.248-.248-2.2-.744-2.856-.496-.656-1.24-.984-2.232-.984-1.808 0-2.792 1.328-2.952 3.984h5.928v-.144zm11.518-5.592c.752 0 1.44.112 2.064.336.624.208 1.224.552 1.8 1.032l-1.056 1.392a5.024 5.024 0 0 0-1.32-.696 3.85 3.85 0 0 0-1.392-.24c-1.024 0-1.824.408-2.4 1.224-.56.816-.84 2.024-.84 3.624s.28 2.784.84 3.552c.56.752 1.36 1.128 2.4 1.128.496 0 .952-.072 1.368-.216.416-.16.88-.408 1.392-.744l1.008 1.44c-1.152.928-2.44 1.392-3.864 1.392-1.712 0-3.064-.576-4.056-1.728-.976-1.152-1.464-2.744-1.464-4.776 0-1.344.224-2.52.672-3.528.448-1.008 1.08-1.792 1.896-2.352.832-.56 1.816-.84 2.952-.84zm14.437 12.36c-.832.576-1.776.864-2.832.864-1.072 0-1.912-.304-2.52-.912-.592-.624-.888-1.52-.888-2.688v-7.632h-2.208v-1.704h2.208v-2.856l2.208-.264v3.12h3l-.24 1.704h-2.76v7.536c0 .656.112 1.136.336 1.44.24.288.632.432 1.176.432.496 0 1.056-.168 1.68-.504l.84 1.464zm8.984-12.36c.448 0 .864.048 1.248.144l-.408 2.16a4.55 4.55 0 0 0-1.104-.144c-.784 0-1.416.288-1.896.864-.48.576-.856 1.472-1.128 2.688V125h-2.208v-12.648h1.896l.216 2.568c.336-.944.792-1.656 1.368-2.136a3.054 3.054 0 0 1 2.016-.72zm7.17.288V125h-2.208v-12.648h2.208zm-1.128-6.072c.464 0 .84.144 1.128.432.288.288.432.648.432 1.08 0 .432-.144.792-.432 1.08-.288.272-.664.408-1.128.408-.448 0-.816-.136-1.104-.408a1.465 1.465 0 0 1-.432-1.08c0-.432.144-.792.432-1.08.288-.288.656-.432 1.104-.432zm11.501 5.784c.752 0 1.44.112 2.064.336.624.208 1.224.552 1.8 1.032l-1.056 1.392a5.024 5.024 0 0 0-1.32-.696 3.85 3.85 0 0 0-1.392-.24c-1.024 0-1.824.408-2.4 1.224-.56.816-.84 2.024-.84 3.624s.28 2.784.84 3.552c.56.752 1.36 1.128 2.4 1.128.496 0 .952-.072 1.368-.216.416-.16.88-.408 1.392-.744l1.008 1.44c-1.152.928-2.44 1.392-3.864 1.392-1.712 0-3.064-.576-4.056-1.728-.976-1.152-1.464-2.744-1.464-4.776 0-1.344.224-2.52.672-3.528.448-1.008 1.08-1.792 1.896-2.352.832-.56 1.816-.84 2.952-.84zm8.864 9.888c.48 0 .88.16 1.2.48.32.32.48.712.48 1.176 0 .464-.16.864-.48 1.2-.32.32-.72.48-1.2.48a1.6 1.6 0 0 1-1.176-.48 1.68 1.68 0 0 1-.48-1.2c0-.464.16-.856.48-1.176a1.6 1.6 0 0 1 1.176-.48zm11.885-9.888c.448 0 .864.048 1.248.144l-.408 2.16a4.55 4.55 0 0 0-1.104-.144c-.784 0-1.416.288-1.896.864-.48.576-.856 1.472-1.128 2.688V125h-2.208v-12.648h1.896l.216 2.568c.336-.944.792-1.656 1.368-2.136a3.054 3.054 0 0 1 2.016-.72zM321.288 125h-1.896l-.168-1.968c-.48.784-1.032 1.36-1.656 1.728-.624.352-1.384.528-2.28.528-1.104 0-1.968-.336-2.592-1.008-.624-.672-.936-1.624-.936-2.856v-9.072h2.208v8.832c0 .864.152 1.48.456 1.848.304.352.8.528 1.488.528 1.232 0 2.288-.728 3.168-2.184v-9.024h2.208V125zM162.48 38.06c0 .521.147.94.442 1.258.317.295.737.442 1.258.442.68 0 1.405-.011 2.176-.034.771-.045 1.485-.09 2.142-.136a79.134 79.134 0 0 0 2.312-.17V28.2h6.12V52h-6.12v-7.82c-.816.068-1.677.125-2.584.17-.771.045-1.632.09-2.584.136-.929.023-1.87.034-2.822.034-2.221 0-3.853-.521-4.896-1.564-1.043-1.043-1.564-2.675-1.564-4.896V28.2h6.12v9.86zM186.963 52h-6.63l9.01-23.8h6.8l9.01 23.8h-6.63l-1.53-4.25h-8.5l-1.53 4.25zm3.06-8.67h5.44l-2.72-7.99-2.72 7.99zm24.308 9.01c-2.221 0-3.853-.521-4.896-1.564-1.042-1.043-1.564-2.675-1.564-4.896V35c0-2.38.533-4.103 1.598-5.168 1.088-1.088 2.822-1.632 5.202-1.632h12.24v4.76h-10.88c-1.36 0-2.04.68-2.04 2.04v10.88c0 .521.148.94.442 1.258.318.295.737.442 1.258.442h1.496c.567-.023 1.156-.045 1.768-.068l1.836-.068a44.864 44.864 0 0 0 1.836-.102c1.383-.09 2.811-.181 4.284-.272v4.59c-1.518.136-3.026.25-4.522.34-1.292.09-2.663.17-4.114.238a83.36 83.36 0 0 1-3.944.102zm28.564-.34h-6.12V32.96h-7.14V28.2h20.4v4.76h-7.14V52zm31.964 0h-6.12v-9.69h-8.5V52h-6.12V28.2h6.12v9.35h8.5V28.2h6.12V52zm11.916-15.64h7.82c2.38 0 4.103.544 5.168 1.632 1.088 1.065 1.632 2.788 1.632 5.168v2.04c0 2.38-.544 4.114-1.632 5.202-1.065 1.065-2.788 1.598-5.168 1.598h-13.94V28.2h6.12v8.16zM310.235 52h-6.12V28.2h6.12V52zm-14.96-8.84c0-1.36-.68-2.04-2.04-2.04h-6.46v6.12h6.46c1.36 0 2.04-.68 2.04-2.04v-2.04zM330.643 52V37.38L322.483 52h-6.46V28.2h6.12v14.62l8.16-14.62h6.46V52h-6.12zm-6.12-25.5c-2.946 0-4.42-1.473-4.42-4.42v-1.02h4.42v.85c0 .34.114.623.34.85.227.227.51.34.85.34h1.02c.34 0 .624-.113.85-.34.227-.227.34-.51.34-.85v-.85h4.42v1.02c0 2.947-1.473 4.42-4.42 4.42h-3.4zM168.26 89.34c-1.201 0-2.527-.034-3.978-.102a177.613 177.613 0 0 1-4.114-.238 149.5 149.5 0 0 1-4.488-.34v-4.59c1.473.09 2.901.181 4.284.272 1.179.068 2.403.125 3.672.17 1.269.045 2.357.068 3.264.068.521 0 .929-.147 1.224-.442.317-.317.476-.737.476-1.258v-3.23h-9.044v-4.76h9.044V72c0-1.36-.68-2.04-2.04-2.04h-10.54V65.2h11.9c2.38 0 4.103.544 5.168 1.632 1.088 1.065 1.632 2.788 1.632 5.168v10.88c0 2.221-.521 3.853-1.564 4.896-1.043 1.043-2.675 1.564-4.896 1.564zm18.704-5.27c-.113 1.632-.635 2.924-1.564 3.876-.929.93-2.165 1.394-3.706 1.394-.431 0-.861-.023-1.292-.068a14.738 14.738 0 0 1-1.122-.102 15.684 15.684 0 0 1-1.156-.17v-4.59h1.53c.431 0 .782-.147 1.054-.442.295-.295.453-.657.476-1.088l1.02-17.68h18.87V89h-6.12V69.96h-7.14l-.85 14.11zM225.728 89h-18.87V65.2h18.87v4.76h-12.75v4.59h10.03v4.76h-10.03v4.93h12.75V89zm18.692-12.07L251.05 89h-6.46l-5.27-9.69h-3.06V89h-6.12V65.2h6.12v9.35h3.06l3.4-6.46c.499-.952 1.111-1.723 1.836-2.312.748-.612 1.723-.918 2.924-.918.385 0 .759.023 1.122.068.363.023.691.057.986.102.34.068.657.125.952.17v4.59h-1.36c-.34 0-.646.113-.918.34-.272.204-.476.43-.612.68l-3.23 6.12zM266.343 89h-6.12V69.96h-7.14V65.2h20.4v4.76h-7.14V89zm11.224-23.8h14.28c2.38 0 4.103.544 5.168 1.632 1.088 1.065 1.632 2.788 1.632 5.168v3.4c0 2.38-.544 4.114-1.632 5.202-1.065 1.065-2.788 1.598-5.168 1.598h-8.16V89h-6.12V65.2zm14.96 6.8c0-1.36-.68-2.04-2.04-2.04h-6.8v7.48h6.8c1.36 0 2.04-.68 2.04-2.04V72zm31.619 17h-6.12V74.38L309.866 89h-6.46V65.2h6.12v14.62l8.16-14.62h6.46V89zm20.076-12.07l6.63 12.07h-6.46l-5.27-9.69h-3.06V89h-6.12V65.2h6.12v9.35h3.06l3.4-6.46c.499-.952 1.111-1.723 1.836-2.312.748-.612 1.723-.918 2.924-.918.385 0 .759.023 1.122.068.363.023.691.057.986.102.34.068.657.125.952.17v4.59h-1.36c-.34 0-.646.113-.918.34-.272.204-.476.43-.612.68l-3.23 6.12zM54.947 113.059v5.604a9.34 9.34 0 0 0 18.68 0v-5.604h-18.68zm11.208 9.339h-3.736a1.865 1.865 0 0 1-1.868-1.867 1.867 1.867 0 0 1 1.868-1.868h3.736a1.865 1.865 0 0 1 1.867 1.868 1.866 1.866 0 0 1-1.867 1.867zM88.57 93.965v19.613l5.564-8.863a14.975 14.975 0 0 0-5.565-10.75zm27.27-7.285a3.55 3.55 0 0 0-5.977 0l-22.628 36.051a3.36 3.36 0 0 0-.095 3.463 3.472 3.472 0 0 0 3.086 1.808h45.251a3.479 3.479 0 0 0 3.09-1.806 3.361 3.361 0 0 0-.097-3.463L115.84 86.68zm2.311 23.073a2.074 2.074 0 0 1-.151.252l-6.772 9.474 1.003-.25a1.858 1.858 0 0 1 1.453.173 1.867 1.867 0 0 1-.548 3.448l-5.436 1.36a1.865 1.865 0 0 1-2.262-1.36l-1.358-5.435a1.87 1.87 0 0 1 2.087-2.367 1.87 1.87 0 0 1 1.535 1.463l.274 1.096 5.92-8.284h-5.634a2.875 2.875 0 0 1-2.881-2.955 2.882 2.882 0 0 1 .438-1.451l5.454-8.593a1.872 1.872 0 0 1 2.58-.577 1.868 1.868 0 0 1 .577 2.58l-4.612 7.26h5.755a2.883 2.883 0 0 1 2.879 2.748c.022.491-.082.979-.301 1.418zM34.4 105.587v18.679a3.737 3.737 0 0 0 3.736 3.736h1.868V93.941a14.913 14.913 0 0 0-5.604 11.646zm20.734-14.943h-2.055v11.208h22.415V90.644h-2.055a9.34 9.34 0 0 1-18.305 0zm-3.717-41.312a40.24 40.24 0 0 1 12.87-1.65c4.352-.149 8.699.41 12.872 1.652a4.495 4.495 0 0 0 4.441-1.057l2.08-2.089a42.52 42.52 0 0 0-19.393-4.109 42.52 42.52 0 0 0-19.393 4.11l2.08 2.078a4.483 4.483 0 0 0 4.443 1.065z" fill="#fff"/><path d="M84.833 40.211A16.83 16.83 0 0 0 68.022 23.4H60.55a16.83 16.83 0 0 0-16.81 16.811v2.376a46.46 46.46 0 0 1 20.546-4.244 46.461 46.461 0 0 1 20.547 4.246V40.21zM69.89 88.776v-4.413a24.21 24.21 0 0 1-5.604.677 23.886 23.886 0 0 1-5.603-.69v4.426a5.604 5.604 0 0 0 11.207 0zm18.68-28.362a5.57 5.57 0 0 0 0-10.52v10.52z" fill="#fff"/><path d="M51.21 118.663v-5.604a3.737 3.737 0 0 1 3.737-3.736h18.679a3.738 3.738 0 0 1 3.735 3.736v5.604a13.024 13.024 0 0 1-3.943 9.339h10.447a7.064 7.064 0 0 1 .202-7.255l.766-1.22V91.765a14.72 14.72 0 0 0-5.604-1.12v11.207a3.735 3.735 0 0 1-3.736 3.735H53.08a3.734 3.734 0 0 1-3.736-3.735V90.644c-1.922 0-3.825.374-5.604 1.1v36.258h11.415a13.022 13.022 0 0 1-3.943-9.339zm-13.875-66.8a5.79 5.79 0 0 0-.747 5.252 5.392 5.392 0 0 0 3.481 3.342l-.046-10.552a5.604 5.604 0 0 0-2.688 1.958z" fill="#fff"/><path fill-rule="evenodd" clip-rule="evenodd" d="M84.834 60.758V50.324l-.592.592a8.139 8.139 0 0 1-5.722 2.37 7.879 7.879 0 0 1-2.58-.424 36.91 36.91 0 0 0-11.653-1.444 36.882 36.882 0 0 0-11.652 1.446 7.891 7.891 0 0 1-2.58.422 8.031 8.031 0 0 1-5.723-2.37l-.571-.572.054 12.123a20.547 20.547 0 0 0 41.019-1.71zM73.44 70.932a9.93 9.93 0 0 1-9.153 4.769 9.93 9.93 0 0 1-9.143-4.769 1.868 1.868 0 0 1 3.332-1.68 6.35 6.35 0 0 0 5.811 2.713 6.337 6.337 0 0 0 5.813-2.727 1.88 1.88 0 0 1 2.512-.784 1.855 1.855 0 0 1 .828 2.478zM57.155 58.381a2.038 2.038 0 1 1-4.075 0 2.038 2.038 0 0 1 4.075 0zm16.302 2.037a2.038 2.038 0 1 0 0-4.075 2.038 2.038 0 0 0 0 4.075z" fill="#fff"/></svg>