<svg width="21" height="21" viewBox="0 0 21 21" fill="none" xmlns="http://www.w3.org/2000/svg"><path d="M.438 3.903c2.882 2.44 7.94 6.735 9.426 8.074.2.18.413.273.636.273.221 0 .435-.091.634-.271 1.488-1.34 6.545-5.635 9.427-8.076a.437.437 0 0 0 .062-.604 1.737 1.737 0 0 0-1.373-.674H1.75a1.74 1.74 0 0 0-1.374.674.437.437 0 0 0 .062.604z" fill="#009D4C"/><path d="M20.746 5.226a.435.435 0 0 0-.466.063c-3.197 2.71-7.276 6.183-8.56 7.34-.72.65-1.72.65-2.442-.002C7.91 11.395 3.33 7.5.72 5.29a.438.438 0 0 0-.72.334v11.002c0 .965.785 1.75 1.75 1.75h17.5c.965 0 1.75-.785 1.75-1.75V5.623c0-.17-.1-.326-.254-.397z" fill="#009D4C"/></svg>