<svg width="16" height="16" viewBox="0 0 16 16" fill="none" xmlns="http://www.w3.org/2000/svg"><path d="M8 16A8 8 0 1 0 8 0a8 8 0 0 0 0 16z" fill="#4D76A1"/><path fill-rule="evenodd" clip-rule="evenodd" d="M7.698 11.509h.628s.19-.021.286-.126c.09-.095.087-.275.087-.275s-.012-.843.379-.967c.385-.122.88.814 1.405 1.174.396.273.698.213.698.213l1.403-.02s.734-.045.386-.621c-.029-.048-.203-.427-1.043-1.207-.88-.817-.762-.685.297-2.097.646-.86.904-1.385.823-1.61-.077-.214-.551-.158-.551-.158l-1.58.01s-.117-.016-.204.036c-.085.051-.14.17-.14.17s-.25.665-.583 1.231c-.703 1.195-.984 1.258-1.1 1.183-.267-.172-.2-.694-.2-1.064 0-1.158.176-1.64-.342-1.765-.171-.042-.298-.07-.737-.074-.563-.005-1.04.002-1.31.134-.18.088-.319.284-.234.296.104.014.34.064.466.234.162.22.156.715.156.715s.093 1.362-.217 1.532c-.213.116-.505-.121-1.132-1.205-.322-.555-.564-1.168-.564-1.168s-.047-.115-.13-.176a.655.655 0 0 0-.243-.098l-1.501.01s-.225.006-.308.104c-.074.087-.006.267-.006.267s1.175 2.75 2.506 4.135c1.22 1.27 2.605 1.187 2.605 1.187z" fill="#fff"/></svg>