<svg width="80" height="80" viewBox="0 0 80 80" xmlns="http://www.w3.org/2000/svg"><title>BC5E638B-B8CD-4094-BE81-AE02D0115016</title><g transform="translate(1 1)" fill="none" fill-rule="evenodd"><circle stroke="#4485D5" stroke-width="2" cx="39" cy="39" r="39"/><g fill="#000" fill-rule="nonzero"><g stroke="#000" stroke-width=".4"><path d="M39.889 56a.773.773 0 0 1-.549-.23.794.794 0 0 1 0-1.11l11.625-11.786a3.699 3.699 0 0 0 0-5.175 3.578 3.578 0 0 0-5.104 0L34.236 49.485a5.117 5.117 0 0 1-7.296 0c-2.012-2.04-2.012-5.357 0-7.397l2.325-2.357a.768.768 0 0 1 1.096 0 .794.794 0 0 1 0 1.111l-2.325 2.357a3.699 3.699 0 0 0 0 5.175c1.363 1.381 3.742 1.381 5.104 0l11.625-11.786a5.117 5.117 0 0 1 7.296 0c2.012 2.04 2.012 5.357 0 7.397L40.436 55.77a.77.77 0 0 1-.547.229z"/><path d="M29.814 41.071a.773.773 0 0 1-.549-.229.794.794 0 0 1 0-1.111L32.905 36A.768.768 0 0 1 34 36a.794.794 0 0 1 0 1.111l-3.639 3.731a.77.77 0 0 1-.547.23z"/></g><path d="M45.44 30.5a.805.805 0 0 1-.561-.226.76.76 0 0 1 0-1.092l1.814-1.771-.231-.226a.76.76 0 0 1-.002-1.091l.233-.227-2.049-2-.23.226a.806.806 0 0 1-1.12 0l-.232-.226-1.814 1.771a.806.806 0 0 1-1.12 0 .76.76 0 0 1 0-1.093l2.376-2.318a.806.806 0 0 1 1.119 0l.231.226.231-.226a.806.806 0 0 1 1.12 0l3.166 3.091a.76.76 0 0 1 .002 1.091l-.231.227.231.226a.76.76 0 0 1 0 1.093l-2.375 2.318a.796.796 0 0 1-.559.227z"/><path d="M38.314 39h-3.167a.807.807 0 0 1-.56-.226l-3.167-3.09a.762.762 0 0 1-.23-.548v-3.09c0-.206.083-.402.23-.548l7.917-7.727a.806.806 0 0 1 1.12 0l6.333 6.182a.76.76 0 0 1 0 1.093l-7.917 7.727a.798.798 0 0 1-.559.227zm-2.839-1.545h2.511l7.125-6.955-5.214-5.09-7.125 6.955v2.451l2.703 2.639z" stroke="#000" stroke-width=".4"/></g></g></svg>