<svg width="80" height="80" viewBox="0 0 80 80" xmlns="http://www.w3.org/2000/svg"><title>BB404542-512E-4C79-8FED-B321C5181535</title><g transform="translate(1 1)" fill="none" fill-rule="evenodd"><circle stroke="#94D53B" stroke-width="2" cx="39" cy="39" r="39"/><g stroke-width=".3" stroke="#000" fill="#000" fill-rule="nonzero"><path d="M37.528 40.632a.798.798 0 0 0 .397-1.064 2.643 2.643 0 0 0-2.39-1.51 2.63 2.63 0 0 0-2.492 1.764.8.8 0 0 0 .508 1.017.813.813 0 0 0 1.031-.501 1.011 1.011 0 1 1 1.868-.097.815.815 0 0 0 1.078.391zm4.284.25c.34 0 .655-.21.77-.544a1.011 1.011 0 1 1 1.868-.097.816.816 0 0 0 1.078.392.798.798 0 0 0 .397-1.065 2.643 2.643 0 0 0-2.39-1.51 2.63 2.63 0 0 0-2.492 1.764.8.8 0 0 0 .509 1.017.82.82 0 0 0 .26.043z"/><path d="M50.376 32.008C49.713 26.863 45.18 23 39.513 23c-5.648 0-10.166 3.835-10.855 8.952-.04 0-.08-.006-.122-.006-4.155 0-7.536 3.274-7.536 7.299 0 4.024 3.381 7.299 7.536 7.299.28 0 .56-.017.837-.047h.01c.459 0 .83-.36.83-.804v-8.882a.84.84 0 0 0 .33.076.86.86 0 0 0 .212-.027c2.86-.732 6.542-2.09 8.917-5.605 2.128 2.418 4.283 3.152 7.444 4.016a.86.86 0 0 0 .226.03.827.827 0 0 0 .8-.586.8.8 0 0 0-.575-.992c-3.133-.856-5.018-1.471-7.027-3.983.38-.784.703-1.652.952-2.62a.803.803 0 0 0-.605-.975.83.83 0 0 0-1.007.586c-1.166 4.537-4.11 7.181-9.549 8.573-.041.01-.079.027-.117.043v-.094c.005-.035.011-.07.011-.106v-1.832c0-4.964 3.993-8.707 9.288-8.707 5.296 0 9.29 3.743 9.29 8.707v.487a.798.798 0 0 0-.017.156v11.405c-.004.03-.01.061-.01.094v2.656c0 2.036-1.468 3.458-3.57 3.458h-.538c-.328-1.14-1.408-1.98-2.689-1.98h-2.088c-1.54 0-2.792 1.213-2.792 2.704 0 1.492 1.252 2.705 2.792 2.705h2.088c1.22 0 2.257-.762 2.637-1.82h.59c3.031 0 5.231-2.13 5.231-5.066v-1.515h.027C54.619 46.6 58 43.324 58 39.3c0-4.052-3.44-7.346-7.624-7.292zM22.66 39.245c0-3.138 2.636-5.69 5.875-5.69h.028v.298c-.005.035-.01.07-.01.105v10.977h-.018c-3.24 0-5.875-2.553-5.875-5.69zm19.318 14.147H39.89c-.624 0-1.132-.492-1.132-1.097 0-.604.508-1.095 1.132-1.095h2.088c.625 0 1.133.491 1.133 1.095 0 .605-.508 1.097-1.133 1.097zm8.484-8.401h-.017v-9.688a.806.806 0 0 0 .017-.156v-1.536c3.235-.009 5.876 2.552 5.876 5.689 0 3.138-2.636 5.691-5.876 5.691z"/></g></g></svg>