<svg width="80" height="80" viewBox="0 0 80 80" xmlns="http://www.w3.org/2000/svg"><title>2B7D152A-12F4-4E18-828D-49BC9CCC1C0F</title><g transform="translate(1 1)" fill="none" fill-rule="evenodd"><circle stroke="#94D53B" stroke-width="2" cx="39" cy="39" r="39"/><path d="M55.975 22.01a.897.897 0 0 0-.519.266l-4.385 4.385-3.489-3.489a2.7 2.7 0 0 0-1.905-.798c-.694 0-1.377.28-1.892.798l-6.263 6.291a.897.897 0 0 0 0 1.261l10.775 10.774a.897.897 0 0 0 1.26 0l6.263-6.29a2.695 2.695 0 0 0 0-3.797l-3.488-3.475 4.385-4.385a.897.897 0 0 0-.742-1.542zm-10.298 2.157a.92.92 0 0 1 .644.266l8.238 8.239a.884.884 0 0 1 0 1.275l-5.632 5.66-9.513-9.513 5.632-5.66a.868.868 0 0 1 .63-.267zM35.799 35.46a.897.897 0 0 0-.518.266l-3.18 3.18-1.402-1.4a.897.897 0 0 0-1.275 0l-6.277 6.276a2.712 2.712 0 0 0 0 3.811l3.503 3.489-4.371 4.371a.897.897 0 1 0 1.26 1.275l4.372-4.371 3.489 3.475a2.695 2.695 0 0 0 3.797 0l6.276-6.277a.897.897 0 0 0 0-1.275l-1.387-1.373 3.18-3.18a.897.897 0 1 0-1.26-1.276l-3.18 3.18-5.465-5.45 3.18-3.18a.897.897 0 0 0-.742-1.541zm-5.73 3.95l9.499 9.514-5.632 5.633a.884.884 0 0 1-1.275 0l-8.239-8.239a.867.867 0 0 1 0-1.26l5.647-5.647z" stroke-width=".3" stroke="#000" fill="#000" fill-rule="nonzero"/></g></svg>