<svg height="512" viewBox="0 0 64 64" width="512" xmlns="http://www.w3.org/2000/svg"><path d="M42 9c-7.168 0-13 5.832-13 13s5.832 13 13 13 13-5.832 13-13S49.168 9 42 9zM31 22c0-.418.028-.828.074-1.234l3.132-2.068L37 20.539v2.923l-2.795 1.841-3.131-2.062A11.298 11.298 0 0 1 31 22zm17.762-5.017l-2.83 1.865L43 17.382v-3.765l3.388-1.698a10.98 10.98 0 0 1 2.145 1.252zM42 24.882l-3-1.5v-2.764l3-1.5 3 1.5v2.764zm-1-7.5l-2.932 1.466-2.831-1.865.225-3.808a10.955 10.955 0 0 1 2.145-1.253L41 13.618zm-5.762 9.635l2.83-1.865L41 26.618v3.765l-3.388 1.698a10.98 10.98 0 0 1-2.145-1.252zM43 26.618l2.932-1.466 2.831 1.865-.225 3.808c-.663.493-1.379.918-2.145 1.253L43 30.382zm6.794-1.316L47 23.461v-2.923l2.795-1.841 3.131 2.062c.045.408.074.821.074 1.241 0 .418-.028.828-.074 1.234zm.969-8.362l-.102-1.699c.626.8 1.145 1.686 1.532 2.641zm-7.24-5.822L42 11.882l-1.526-.763c.5-.07 1.007-.119 1.526-.119.518 0 1.024.048 1.523.118zm-10.186 4.127l-.1 1.696-1.431.945c.387-.955.905-1.841 1.531-2.641zm-1.53 10.872l1.43.942.102 1.699a10.989 10.989 0 0 1-1.532-2.641zm8.67 6.765L42 32.118l1.526.763c-.5.07-1.007.119-1.526.119-.518 0-1.024-.048-1.523-.118zm10.186-4.127l.1-1.696 1.431-.945a10.971 10.971 0 0 1-1.531 2.641zm1.624-18.458L61.285 1.3 62.7 2.713l-8.998 8.998zm1-6.998l2-2L56.7 2.713l-2 2zm-4 3.999l2-2L52.7 6.712l-2 2zm5.999 6l6-6 1.413 1.415-5.999 5.999z"/><circle cx="18" cy="14" r="1"/><path d="M30.238 49.176l.869-.87-1.499-5.997A20.174 20.174 0 0 0 17 28.256V25h2c2.206 0 4-1.794 4-4v-2.586L25.414 16l-.707-.707A5.79 5.79 0 0 1 23 11.171v-.272A5.009 5.009 0 0 0 27 6V.382l-1.447.723a9.477 9.477 0 0 1-3.832.997l-10.283.468A10.917 10.917 0 0 0 1 13.494c0 3.795 1.921 7.262 5.14 9.273L9 24.554v3.065l-6.101 6.864A7.514 7.514 0 0 0 1 39.479C1 43.626 4.374 47 8.521 47h1.612l1.073 7.515 2.749-1.375a55.61 55.61 0 0 1-.511 5.679L12.847 63h22.434l-.896-3.585a40.143 40.143 0 0 0-4.147-10.239zM21 17.586V19h-2c-1.103 0-2-.897-2-2h-2c0 2.206 1.794 4 4 4h2c0 1.103-.897 2-2 2h-6v2h2v2.626a20.27 20.27 0 0 0-4-.584v-8.456l-1.707-1.707A.996.996 0 0 1 9 16.171V16c0-.551.449-1 1-1h1v-3c0-.551.449-1 1-1h9v.171a7.77 7.77 0 0 0 1.63 4.784zM7.199 21.07A8.883 8.883 0 0 1 3 13.494a8.921 8.921 0 0 1 8.529-8.926l10.282-.467A11.456 11.456 0 0 0 25 3.5V6c0 1.654-1.346 3-3 3H12c-1.654 0-3 1.346-3 3v1.171A3.006 3.006 0 0 0 7 16v.171c0 .801.312 1.555.879 2.122L9 19.414v2.782zM3 39.479c0-1.076.324-2.113.904-3.004L8.1 38.274 7.519 39H5v2h16c1.103 0 2 .897 2 2s-.897 2-2 2H8.521A5.528 5.528 0 0 1 3 39.479zM12.153 47H21c2.206 0 4-1.794 4-4s-1.794-4-4-4H10.081l2.7-3.375-1.562-1.25-1.823 2.278-4.164-1.784 5.201-5.851a18.176 18.176 0 0 1 17.235 13.776l1.225 4.899-2.699 2.699a2.134 2.134 0 0 1-2.396.389l-2.528-1.265c-1.446-.722-3.236-.651-4.683.071l-3.793 1.897zM26.33 61c.439-1.685.67-3.415.67-5.162V55h-2v.838c0 1.752-.262 3.483-.751 5.162h-9.096l.271-1.898a57.55 57.55 0 0 0 .558-6.975l1.499-.75c.894-.447 2.002-.519 2.895-.071l2.529 1.266c1.525.759 3.5.438 4.703-.765l1.159-1.159c1.617 2.915 2.868 6.013 3.677 9.252l.275 1.1z"/></svg>