<svg height="512" viewBox="0 0 512 512" width="512" xmlns="http://www.w3.org/2000/svg"><path d="M497.724 360.505h-19.677V115.462c0-18.684-15.201-33.885-33.885-33.885H67.935c-18.684 0-33.885 15.2-33.885 33.885v245.042H14.276C6.404 360.505 0 366.909 0 374.781v30.172c0 14.044 11.426 25.47 25.47 25.47h71.71c4.143 0 7.501-3.358 7.501-7.501s-3.358-7.501-7.501-7.501H25.47c-5.772 0-10.468-4.696-10.468-10.468v-29.446h186.132l5.564 15.877a17.324 17.324 0 0 0 16.33 11.58h66.041c7.34 0 13.902-4.654 16.33-11.58l5.564-15.877h186.036v29.446c0 5.772-4.696 10.468-10.468 10.468H131.482c-4.143 0-7.501 3.358-7.501 7.501s3.358 7.501 7.501 7.501H486.53c14.044 0 25.47-11.426 25.47-25.47v-30.172c0-7.872-6.404-14.276-14.276-14.276zM291.24 386.423a2.301 2.301 0 0 1-2.172 1.54h-66.041a2.305 2.305 0 0 1-2.172-1.54l-3.826-10.916h78.035zm171.805-25.918h-19.384v-231.48c0-7.348-5.978-13.326-13.327-13.326h-88.776c-4.143 0-7.501 3.358-7.501 7.501s3.358 7.501 7.501 7.501h87.101v229.804H83.438V130.701h222.95c4.143 0 7.501-3.358 7.501-7.501s-3.358-7.501-7.501-7.501H81.763c-7.348 0-13.326 5.978-13.326 13.326v231.479H49.052V115.462c0-10.412 8.471-18.883 18.883-18.883h376.227c10.412 0 18.883 8.471 18.883 18.883z"/><path d="M255.828 216.369a50.502 50.502 0 0 0-38.652 17.955 7.5 7.5 0 0 0 .89 10.57 7.5 7.5 0 0 0 10.571-.89 35.53 35.53 0 0 1 27.192-12.634c10.719 0 20.763 4.765 27.556 13.073a7.482 7.482 0 0 0 5.81 2.753 7.501 7.501 0 0 0 5.803-12.249c-9.656-11.807-23.933-18.578-39.17-18.578z"/><path d="M255.968 244.971a23.1 23.1 0 0 0-17.68 8.212 7.501 7.501 0 0 0 11.461 9.681 8.128 8.128 0 0 1 6.219-2.891 8.114 8.114 0 0 1 6.304 2.992 7.483 7.483 0 0 0 5.81 2.752 7.502 7.502 0 0 0 5.803-12.25 23.065 23.065 0 0 0-17.917-8.496zm-.323-57.516c-25.437 0-49.448 11.155-65.878 30.603a7.502 7.502 0 0 0 11.461 9.681c13.573-16.067 33.407-25.282 54.418-25.282 21.451 0 41.551 9.535 55.148 26.161a7.481 7.481 0 0 0 5.81 2.752 7.502 7.502 0 0 0 5.803-12.25c-16.459-20.123-40.792-31.665-66.762-31.665zm.403 88.793c-5.523 0-10.001 4.478-10.001 10.001s4.478 10.001 10.001 10.001 10.001-4.478 10.001-10.001c0-5.524-4.477-10.001-10.001-10.001z"/></svg>