<svg xmlns="http://www.w3.org/2000/svg" viewBox="0 0 512 512"><path d="M264.546 247.467h-17.067c-4.713 0-8.533 3.82-8.533 8.533s3.82 8.533 8.533 8.533h17.067c4.713 0 8.533-3.82 8.533-8.533s-3.82-8.533-8.533-8.533zm-34.134-59.734h-34.133c-4.713 0-8.533 3.82-8.533 8.533s3.82 8.533 8.533 8.533h8.533v8.533a8.533 8.533 0 0 0 17.066 0V204.8h8.533c4.713 0 8.533-3.82 8.533-8.533s-3.819-8.534-8.532-8.534zm85.334 0h-34.133c-4.713 0-8.533 3.82-8.533 8.533s3.82 8.533 8.533 8.533h8.533v8.533a8.533 8.533 0 0 0 17.066 0V204.8h8.533c4.713 0 8.533-3.82 8.533-8.533s-3.819-8.534-8.532-8.534zM273.079 281.6h-34.133c-4.713 0-8.533 3.82-8.533 8.533s3.82 8.533 8.533 8.533h34.133c4.713 0 8.533-3.82 8.533-8.533s-3.82-8.533-8.533-8.533z"/><path d="M461.837 478.617l-11.358-35.541a103.723 103.723 0 0 0-54.008-58 8.059 8.059 0 0 0-1.046-.495 103.41 103.41 0 0 0-35.265-8.761 8.14 8.14 0 0 0-1.748-.353c-.36.047-.716.119-1.067.215-1.475-.062-2.932-.215-4.417-.215h-23.323a107.657 107.657 0 0 1-2.91-50.842 270.753 270.753 0 0 1 4.556-26.883 72.175 72.175 0 0 0 18.569-41.86c1.078.311 2.188.496 3.308.552a14.298 14.298 0 0 0 4.575-.758c4.4-1.467 17.775-5.925 17.775-59.408a53.844 53.844 0 0 0-2.338-17.067h19.405v-34.133a25.559 25.559 0 0 0-17.067-24.028V102.4c-.069-44.348-34.068-81.264-78.26-84.975A25.552 25.552 0 0 0 273.079 0h-39.467a25.547 25.547 0 0 0-24.33 18.04c-41.735 6.328-72.62 42.148-72.736 84.36v18.639a25.558 25.558 0 0 0-17.067 24.028V179.2h19.405a53.837 53.837 0 0 0-2.338 17.067c0 53.483 13.375 57.941 17.775 59.408 1.474.5 3.019.756 4.575.758 1.12-.056 2.23-.242 3.308-.552a72.159 72.159 0 0 0 18.569 41.862 269.328 269.328 0 0 1 4.556 26.931 107.5 107.5 0 0 1-2.91 50.792h-23.323c-1.485 0-2.942.154-4.416.215a7.92 7.92 0 0 0-1.068-.215 8.139 8.139 0 0 0-1.748.352 103.388 103.388 0 0 0-35.265 8.762c-.359.14-.708.305-1.044.494a103.68 103.68 0 0 0-54.152 58.401l-11.208 35.133a25.346 25.346 0 0 0 3.708 22.892A25.34 25.34 0 0 0 74.578 512h362.867c14.139.001 25.602-11.46 25.603-25.599a25.57 25.57 0 0 0-1.211-7.784zm-350.891 16.316H74.579a8.528 8.528 0 0 1-8.125-11.133l11.075-34.742a86.486 86.486 0 0 1 19.967-31.008 87.996 87.996 0 0 1 13.45-11.022v87.905zm34.133 0h-17.067v-96.625a86.346 86.346 0 0 1 17.067-4.562v101.187zm34.133 0h-17.067v-102.4h17.067v102.4zm179.2-298.666c0 26.717-3.717 38.675-5.842 42.375a26.494 26.494 0 0 1-3.651-3.923 194.428 194.428 0 0 1 4.87-49.41 12.362 12.362 0 0 1 2.856-1.667 30.228 30.228 0 0 1 1.767 12.625zM298.679 34.726c34.098 4.323 59.678 33.303 59.733 67.674v17.067h-59.733V34.726zm-73.6-9.126a8.539 8.539 0 0 1 8.533-8.533h39.467a8.539 8.539 0 0 1 8.533 8.533v93.867h-56.533V25.6zm-71.467 76.8c.097-32.311 22.776-60.154 54.4-66.785v83.852h-54.4V102.4zm-17.066 59.733v-17.067a8.539 8.539 0 0 1 8.533-8.533h221.867a8.539 8.539 0 0 1 8.533 8.533v17.067H136.546zm26.56 72.584a26.565 26.565 0 0 1-3.652 3.925c-2.125-3.7-5.842-15.658-5.842-42.375a30.292 30.292 0 0 1 1.766-12.625c1.024.433 1.986.999 2.862 1.683a194.612 194.612 0 0 1 4.866 49.392zm16.106 20.6c0-1.892.075-3.775.225-5.533 2.224-23.648.5-47.501-5.101-70.583h163.353a213.98 213.98 0 0 0-5.102 70.525c.15 1.817.225 3.7.225 5.592 0 16.525-17.85 40.083-50.275 66.35-15.472 12.543-37.615 12.532-53.075-.025-32.4-26.243-50.25-49.801-50.25-66.326zm68.267 239.616h-51.2v-94.551c3.567 4.123 7.317 8.96 10.692 13.326 11.829 15.327 25.021 32.256 40.508 37.088v44.137zm-27-91.65a136.18 136.18 0 0 0-21.319-23.905 128.287 128.287 0 0 0 3.119-56.67c-.09-.797-.248-1.631-.346-2.432 5.154 4.782 10.621 9.627 16.771 14.607 21.734 17.635 52.846 17.646 74.592.025 6.157-4.986 11.629-9.837 16.79-14.625-.096.781-.252 1.598-.34 2.374a128.465 128.465 0 0 0 3.119 56.72 136.143 136.143 0 0 0-21.319 23.905C280.571 417.5 266.912 435.2 256.012 435.2s-24.558-17.7-35.533-31.917zm95.267 91.65h-51.2v-44.137c15.488-4.832 28.679-21.76 40.508-37.088 3.375-4.366 7.125-9.203 10.692-13.326v94.551zm34.133 0h-17.067v-102.4h17.067v102.4zm34.133 0h-17.067V393.747a86.344 86.344 0 0 1 17.067 4.561v96.625zm56.022-.402a8.547 8.547 0 0 1-2.589.402h-36.367v-87.906a88.044 88.044 0 0 1 13.45 11.022 86.144 86.144 0 0 1 19.825 30.608l11.225 35.15a8.534 8.534 0 0 1-5.544 10.724z"/></svg>