<svg height="512" viewBox="0 0 64 64" width="512" xmlns="http://www.w3.org/2000/svg"><path d="M49.123 47.288l-10.259-4.197A2.988 2.988 0 0 1 37 40.314v-.718A18.51 18.51 0 0 0 43.759 31H44c2.757 0 5-2.243 5-5v-8.597c0-5.01-2.244-9.679-6.156-12.81A16.467 16.467 0 0 0 32.597 1h-3.421A17.632 17.632 0 0 0 14.23 9.204l-2.6 4.086 1.046.695A5.21 5.21 0 0 1 15 18.329V26c0 2.757 2.243 5 5 5h.241A18.505 18.505 0 0 0 27 39.596v.718a2.987 2.987 0 0 1-1.864 2.776l-10.259 4.197A15.84 15.84 0 0 0 5 62v1h54v-1a15.838 15.838 0 0 0-9.877-14.712zm-8.209 3.276l-4.065 3.049 2.694-8.083.569.233zm-17.027-4.801l.569-.233 2.694 8.083-4.065-3.049zm3.366 8.159L29.613 61h-.199l-4.127-4.127zM26.3 44.74a5 5 0 0 0 .428-.246L32 50.519l5.272-6.025c.137.089.281.169.428.246L32.28 61h-.56zm10.447 9.182l1.966 2.951L34.586 61h-.199zM37 20c-1.474 0-2.75.81-3.444 2h-3.112c-.694-1.19-1.97-2-3.444-2h-6v-4.981c2.8.115 5.519.751 8.094 1.896A24.079 24.079 0 0 0 38.925 19H43v1zm4 2v2c0 1.103-.897 2-2 2h-2c-1.103 0-2-.897-2-2s.897-2 2-2zm-12 2c0 1.103-.897 2-2 2h-2c-1.103 0-2-.897-2-2v-2h4c1.103 0 2 .897 2 2zm15.414 4.958c.379-1.482.586-3.025.586-4.607v-1.166c1.161.414 2 1.514 2 2.816a2.994 2.994 0 0 1-2.586 2.957zM14.351 12.739l1.566-2.461A15.642 15.642 0 0 1 29.176 3h3.421a14.45 14.45 0 0 1 8.997 3.156A14.334 14.334 0 0 1 47 17.403v4.622a4.952 4.952 0 0 0-2-.924V17h-6.075a22.07 22.07 0 0 1-9.019-1.914A24.153 24.153 0 0 0 20 13h-1v8.101a4.965 4.965 0 0 0-2 .924v-3.696a7.208 7.208 0 0 0-2.649-5.59zM17 26c0-1.302.839-2.402 2-2.816v1.166c0 1.582.207 3.126.586 4.608A2.995 2.995 0 0 1 17 26zm4-1.649V24c0 2.206 1.794 4 4 4h2c2.206 0 4-1.794 4-4h2c0 2.206 1.794 4 4 4h2c2.206 0 4-1.794 4-4v.351a16.528 16.528 0 0 1-11 15.592 16.528 16.528 0 0 1-11-15.592zm10.684 17.597l.316.106.316-.105a18.69 18.69 0 0 0 2.719-1.152 4.97 4.97 0 0 0 .804 2.297L32 47.481l-3.84-4.388c.45-.674.724-1.462.804-2.297.864.45 1.773.837 2.72 1.152zM15.635 49.14l6.076-2.486-.797 4.782 3.729 2.797-1.931 2.895L26.586 61H17v-6h-2v6H7.035a13.839 13.839 0 0 1 8.6-11.86zM49 61v-6h-2v6h-9.586l3.873-3.873-1.931-2.895 3.729-2.797-.797-4.782 6.076 2.486a13.84 13.84 0 0 1 8.6 11.86H49z"/><path d="M36 32h-2c0 1.103-.897 2-2 2s-2-.897-2-2h-2c0 2.206 1.794 4 4 4s4-1.794 4-4zm3.095-22.722a10.487 10.487 0 0 1 2.116 2.284l1.654-1.125a12.48 12.48 0 0 0-2.52-2.72A12.457 12.457 0 0 0 32.597 5H31v2h1.597c2.352 0 4.661.81 6.498 2.278zm3.675 5.932l1.955-.42a12.448 12.448 0 0 0-.68-2.175l-1.846.77c.244.585.436 1.199.571 1.825z"/></svg>