<svg height="512" viewBox="0 0 512 512" width="512" xmlns="http://www.w3.org/2000/svg"><path d="M482 176h-50v-20h30c16.542 0 30-13.458 30-30V46c0-16.542-13.458-30-30-30H342c-16.542 0-30 13.458-30 30v80c0 16.542 13.458 30 30 30h30v20H160.002v-20c0-11.028-8.972-20-20-20H80.001c-11.028 0-20 8.972-20 20v20H30c-16.542 0-30 13.458-30 30v260c0 16.542 13.458 30 30 30h452c16.542 0 30-13.458 30-30V206c0-16.542-13.458-30-30-30zm-140.001-40c-5.514 0-10-4.486-10-10V46c0-5.514 4.486-10 10-10h120c5.514 0 10 4.486 10 10v80c0 5.514-4.486 10-10 10zm49.999 20H412v20h-20.001v-20zm-311.997 0h60.001v20H80.001zM30 196h452c5.514 0 10 4.486 10 10v50h-36.463c-4.314-14.44-17.712-25-33.536-25s-29.223 10.56-33.537 25h-43.103c-21.988-24.535-53.9-40-89.361-40s-67.373 15.466-89.36 40H20v-50c0-5.514 4.486-10 10-10zm407 70.001c0 8.271-6.729 15-15 15s-15-6.729-15-15 6.729-15 15-15 15 6.729 15 15zM256 236c55.141 0 100 44.86 100 100s-44.86 100-100 100-100-44.86-100-100 44.86-100 100-100zm226 240H30c-5.514 0-10-4.486-10-10V276h132.108c-10.239 17.661-16.109 38.157-16.109 60 0 66.168 53.832 120 120 120s120-53.832 120-120c0-21.843-5.869-42.339-16.109-60h28.572c4.314 14.44 17.712 25 33.537 25s29.222-10.56 33.536-25H492v190c0 5.515-4.486 10-10 10z"/><path d="M441.999 56h-80c-5.523 0-10 4.477-10 10v40c0 5.523 4.477 10 10 10h80c5.523 0 10-4.477 10-10V66c0-5.523-4.477-10-10-10zm-10 40h-60V76h60zM256 416.001c44.112 0 80-35.888 80-80 0-25.042-11.401-48.169-31.281-63.453-4.378-3.366-10.657-2.545-14.023 1.833s-2.546 10.657 1.833 14.023C307.445 299.872 316 317.22 316 336.001c0 33.084-26.916 60-60 60s-60-26.916-60-60c0-18.783 8.557-36.133 23.476-47.601 4.379-3.366 5.2-9.644 1.834-14.023-3.366-4.378-9.644-5.2-14.023-1.834C187.403 287.827 176 310.957 176 336.001c0 44.112 35.888 80 80 80z"/><path d="M256.007 276.001c5.523 0 10-4.477 10-10s-4.477-10-10-10H256c-5.523 0-9.996 4.477-9.996 10s4.48 10 10.003 10z"/></svg>