<svg xmlns="http://www.w3.org/2000/svg" width="512" height="512" viewBox="0 0 128 128"><path d="M25.852 33.1a1.75 1.75 0 0 0 1.631-1.114c.032-.079 3.165-7.892 10.55-9.772a1.75 1.75 0 1 0-.863-3.392c-9.163 2.332-12.8 11.51-12.95 11.9a1.751 1.751 0 0 0 1.632 2.378zm58.553 78.912l-3.535.4a25.281 25.281 0 0 0-13.9 6.13 1.75 1.75 0 1 0 2.3 2.634 21.791 21.791 0 0 1 11.987-5.285l3.535-.4a1.75 1.75 0 1 0-.389-3.479zm-37.275.396l-3.535-.4a1.75 1.75 0 0 0-.389 3.479l3.535.4a21.785 21.785 0 0 1 11.986 5.285 1.75 1.75 0 0 0 2.3-2.634 25.281 25.281 0 0 0-13.897-6.13z"/><path d="M127.647 117.43a29.28 29.28 0 0 0-15.577-10.6 55.762 55.762 0 0 0-10.3-1.487c-2.643-.443-8.8-.171-14.387-1.724a7.617 7.617 0 0 1-2.52-1.573 7.347 7.347 0 0 1-1.172-1.58 6.46 6.46 0 0 1-.744-2.239l-1.2-9.427a28.47 28.47 0 0 0 8.669-11.584 56.63 56.63 0 0 0 2.734-10.353c.086-.438.178-.868.266-1.3a9.972 9.972 0 0 0 2.271.264 10.073 10.073 0 0 0 10.053-10.061 10.212 10.212 0 0 0-.075-1.18A32.778 32.778 0 0 0 81.421 0H46.824a32.782 32.782 0 0 0-24.489 54.586 10.212 10.212 0 0 0-.075 1.18 10.073 10.073 0 0 0 10.062 10.063 9.917 9.917 0 0 0 2.271-.265c.088.436.18.866.266 1.3a56.678 56.678 0 0 0 2.735 10.357 28.463 28.463 0 0 0 8.668 11.581l-1.2 9.407a6.634 6.634 0 0 1-1.443 3.256c-2.036 2.407-4.861 2.938-10.3 3.256-1.1.085-2.21.157-3.317.229a70.516 70.516 0 0 0-14.074 1.881A29.286 29.286 0 0 0 .352 117.43 1.753 1.753 0 0 0 0 118.483v7.769A1.75 1.75 0 0 0 1.75 128h124.5a1.75 1.75 0 0 0 1.75-1.75v-7.769a1.747 1.747 0 0 0-.353-1.051zm-31.969-55.1a6.445 6.445 0 0 1-1.549-.194l1.515-6.923a28.913 28.913 0 0 0 .648-5.977 6.574 6.574 0 0 1 5.808 5.186l.005.016a6.567 6.567 0 0 1-6.427 7.892zm14.791-29.537a29.182 29.182 0 0 1-6.112 17.907 10.058 10.058 0 0 0-8.057-4.965v-.589a18.751 18.751 0 0 0-11.849-17.493l-16-6.4a29.482 29.482 0 0 0 14.288-17.7 29.372 29.372 0 0 1 27.73 29.239zm-92.938 0A29.327 29.327 0 0 1 46.824 3.5H79.1a25.977 25.977 0 0 1-14.994 15.931l-.755.3-19.8 7.92a18.75 18.75 0 0 0-11.846 17.495v.589a10.058 10.058 0 0 0-8.062 4.965 29.182 29.182 0 0 1-6.112-17.908zm8.229 22.973a6.62 6.62 0 0 1 .135-1.329v-.016a6.574 6.574 0 0 1 5.808-5.186 28.963 28.963 0 0 0 .648 5.984l1.515 6.916a6.445 6.445 0 0 1-1.549.194 6.57 6.57 0 0 1-6.557-6.563zm15.077 20.142a54.028 54.028 0 0 1-2.544-9.717 172.648 172.648 0 0 0-.675-3.31l-1.841-8.405a25.4 25.4 0 0 1-.572-5.338v-3.992A15.267 15.267 0 0 1 44.848 30.9L64 23.243 83.151 30.9A15.266 15.266 0 0 1 92.8 45.146v3.992a25.43 25.43 0 0 1-.571 5.332l-1.842 8.413c-.238 1.089-.456 2.2-.675 3.308a53.98 53.98 0 0 1-2.548 9.709 24.93 24.93 0 0 1-8.1 10.533 1.715 1.715 0 0 0-.416.3 25.06 25.06 0 0 1-29.295 0 1.739 1.739 0 0 0-.419-.3 24.937 24.937 0 0 1-8.097-10.525zM124.5 124.5H3.5v-5.423a25.765 25.765 0 0 1 13.353-8.868 67.969 67.969 0 0 1 13.379-1.764c1.12-.074 2.241-.147 3.388-.235 4.717-.5 9.126-.224 12.715-4.538a10.147 10.147 0 0 0 2.2-5l.978-7.649a28.616 28.616 0 0 0 28.984 0l.978 7.649a9.975 9.975 0 0 0 1.149 3.482 10.055 10.055 0 0 0 5.315 4.654c4.442 1.567 9.718 1.4 15.549 2.025a53.084 53.084 0 0 1 9.663 1.375 25.764 25.764 0 0 1 13.354 8.868z"/><path d="M87.455 21.185c3.43 1.385 12.245 6.129 11.862 11.375a1.751 1.751 0 0 0 1.618 1.873c.043 0 .086.005.129.005a1.751 1.751 0 0 0 1.744-1.623c.648-8.86-13.445-14.634-14.045-14.876a1.75 1.75 0 0 0-1.308 3.246zM63.848 76.23a8.994 8.994 0 0 0 6.961-2.912 1.75 1.75 0 0 0-2.7-2.225 6.361 6.361 0 0 1-8.521 0 1.75 1.75 0 0 0-2.7 2.225 9 9 0 0 0 6.96 2.912z"/><path d="M47.2 71.642v3.042a8.65 8.65 0 0 0 8.641 8.64h16.317a8.65 8.65 0 0 0 8.641-8.64v-3.042A8.65 8.65 0 0 0 72.158 63H55.842a8.65 8.65 0 0 0-8.642 8.642zm30.1 0v3.042a5.146 5.146 0 0 1-5.141 5.14H55.842a5.146 5.146 0 0 1-5.141-5.14v-3.042a5.147 5.147 0 0 1 5.141-5.142h16.316a5.147 5.147 0 0 1 5.142 5.142zm-.655-14.126c6.3 0 11.421-4.635 11.421-10.332s-5.123-10.333-11.421-10.333-11.419 4.635-11.419 10.333 5.123 10.332 11.419 10.332zm0-17.165c4.368 0 7.921 3.065 7.921 6.833s-3.553 6.832-7.921 6.832-7.919-3.065-7.919-6.832 3.552-6.833 7.919-6.833z"/><path d="M80.1 48.89a1.75 1.75 0 1 0-1.246-3.271 6.37 6.37 0 0 1-4.472.024l-.079-.03-.603 1.641-.527 1.671a9.859 9.859 0 0 0 6.927-.035zm-17.326-1.706c0-5.7-5.123-10.333-11.42-10.333s-11.42 4.635-11.42 10.333 5.123 10.332 11.42 10.332 11.42-4.635 11.42-10.332zm-19.34 0c0-3.768 3.553-6.833 7.92-6.833s7.92 3.065 7.92 6.833-3.552 6.832-7.92 6.832-7.92-3.065-7.92-6.832z"/><path d="M54.831 48.925l.079-.03a1.714 1.714 0 0 0 .994-2.233 1.786 1.786 0 0 0-2.287-1.02 6.372 6.372 0 0 1-4.473-.023A1.75 1.75 0 1 0 47.9 48.89a9.864 9.864 0 0 0 6.934.035z"/></svg>