<svg xmlns="http://www.w3.org/2000/svg" viewBox="0 0 478 478"><path d="M452.7 303.805l-38.4-17.4-33.8-54c-9.8-15.8-27.1-25.3-45.7-25.3H191.1c-16.8.1-32.6 7.9-42.9 21.3l-43.5 57.1-73 19.9c-18.7 5.1-31.6 22-31.7 41.4v27.8c0 23.7 19.5 42.5 43.2 42.5h6c7.6 29.1 37.4 46.4 66.5 38.8 19-5 33.8-19.8 38.8-38.8H318c7.6 29.1 37.4 46.4 66.5 38.8 19-5 33.8-19.8 38.8-38.8h11.5c23.7 0 43.2-18.8 43.2-42.5v-31.7c-.1-16.9-10-32.1-25.3-39.1zm-350.8 134.3c-19 0-34.4-15.4-34.4-34.4s15.4-34.4 34.4-34.4 34.4 15.4 34.4 34.4-15.4 34.4-34.4 34.4zm268.7 0c-19 0-34.4-15.4-34.4-34.4s15.4-34.4 34.4-34.4 34.4 15.4 34.4 34.4-15.4 34.4-34.4 34.4zm87.4-63.5c0 12.6-10.6 22.5-23.2 22.5h-10.1c-3.4-29.9-30.4-51.3-60.2-47.9-25.2 2.9-45.1 22.7-47.9 47.9H155.9c-3.4-29.9-30.4-51.3-60.2-47.9-25.2 2.9-45.1 22.7-47.9 47.9h-4.6c-12.6 0-23.2-9.8-23.2-22.5v-27.8c.1-10.3 7-19.4 17-22.1l76.2-20.8c2.1-.6 4-1.8 5.4-3.6l45.5-59.8c6.4-8.4 16.4-13.4 27-13.4h143.7c11.7 0 22.6 6 28.7 16l35.4 56.5c1 1.7 2.5 3 4.3 3.8l41.2 18.7c8.2 3.7 13.5 11.9 13.6 20.9v31.6zm-48.8-293.8c5.5.5 10.3-3.6 10.8-9.1.1-1.2 0-2.4-.4-3.6-4-14.3-12.8-26.8-24.9-35.4-11.5-8.1-25.6-12.2-40.9-12.4-29.2 0-52.9 14.8-63.5 40.8H184.5c-12.7-22-36.2-35.5-60.5-35.5-15.7 0-30 4.3-41.2 12.6-12.1 9-20.5 22.3-24.2 38.6-1.2 5.4 2.1 10.7 7.5 11.9 1 .2 2 .3 3 .2l34.8-2.7c2.9 6.1 2.9 13.1 0 19.2l-35.1-2.8c-5.5-.5-10.3 3.6-10.8 9.1-.1 1.2 0 2.4.4 3.6 4 14.3 12.8 26.8 25 35.4 12.1 8.3 26.4 12.8 41.1 12.6 29.2 0 52.9-15.3 63.5-40.3h105.3c11 18 32.7 35.1 60.3 34.7 15.6 0 29.9-4.5 41.2-12.8 12.1-8.9 20.7-22.1 24.7-38.2 1.3-5.4-1.9-10.8-7.3-12.2-1-.3-2.1-.4-3.2-.3l-34.8 2.9c-2.9-6.1-2.9-13.1 0-19.2l35 2.9zm-48.2 33c2.1 2.6 5.3 4 8.6 3.8l24.9-1.9c-8.1 14.1-22.6 22-41.2 22-21.5.3-38.5-14.8-45.1-29-1.7-3.5-5.2-5.6-9.1-5.5H181c-4.4-.1-8.3 2.7-9.6 6.9-6.2 20.6-24.2 33.3-46.9 33.3-17.1 0-31.4-7.1-40-19.2l23.8 1.9c3.4.3 6.7-1.2 8.8-3.9l.2-.3c11.6-15.5 11.5-36.8-.3-52.1-2.1-2.7-5.3-4.1-8.7-3.9l-25.3 2c7.9-14.5 22.2-22.5 41-22.5 18.5 0 37.2 12.4 45.5 29.8 1.6 3.5 5.1 5.9 9 6h118.7c4.5-.1 8.3-3.1 9.6-7.4 6.2-20.6 24.2-33.6 46.8-33.6 17 .2 31.3 7.2 39.9 19.3l-23.8-2c-3.4-.3-6.7 1.2-8.8 3.9l-.2.3c-11.7 15.4-11.6 36.8.3 52.1z"/></svg>