<svg height="512" viewBox="0 0 64 64" width="512" xmlns="http://www.w3.org/2000/svg"><path d="M23 53h-6c-1.103 0-2 .897-2 2 0 2.206 1.794 4 4 4h2c2.206 0 4-1.794 4-4 0-1.103-.897-2-2-2zm-2 4h-2c-1.103 0-2-.897-2-2h6c0 1.103-.897 2-2 2zm12-4h-2c-1.103 0-2 .897-2 2v1c0 1.654 1.346 3 3 3s3-1.346 3-3v-1c0-1.103-.897-2-2-2zm0 3a1 1 0 0 1-2 0v-1h2zM9 53H7c-1.103 0-2 .897-2 2v1c0 1.654 1.346 3 3 3s3-1.346 3-3v-1c0-1.103-.897-2-2-2zm0 3a1 1 0 0 1-2 0v-1h2zm6-51h10v2H15zm48 20.299l-1.321-.479.596-1.273-3.82-3.82-1.273.596L56.701 19h-5.402l-.479 1.321-1.273-.596-3.82 3.82.596 1.273-1.323.481v5.402l1.321.479-.596 1.273 3.82 3.82 1.273-.596.481 1.323h5.402l.479-1.321 1.273.596 3.82-3.82-.596-1.273L63 30.701zm-2 4l-.823.3-.442.202-.427 1.031.561 1.198-1.838 1.838-1.198-.561-1.08.446L55.299 35h-2.598l-.3-.823-.202-.442-1.031-.427-1.198.561-1.838-1.838.561-1.198-.446-1.08L47 29.299v-2.598l.823-.3.442-.202.427-1.031-.561-1.198 1.838-1.838 1.198.561 1.08-.446.454-1.247h2.598l.3.823.202.442 1.031.427 1.198-.561 1.838 1.838-.561 1.198.446 1.08 1.247.454z"/><path d="M54 23c-2.757 0-5 2.243-5 5s2.243 5 5 5 5-2.243 5-5-2.243-5-5-5zm0 8c-1.654 0-3-1.346-3-3s1.346-3 3-3 3 1.346 3 3-1.346 3-3 3zM39 20.239V6c0-2.757-2.243-5-5-5H6C3.243 1 1 3.243 1 6v52c0 2.757 2.243 5 5 5h28c2.757 0 5-2.243 5-5V35.761c1.433-.339 2.716-1.037 3.716-2.063l.284-.291V30h-3c-1.103 0-2-.897-2-2s.897-2 2-2h3v-3.407l-.284-.291c-1-1.026-2.283-1.724-3.716-2.063zM37 58c0 1.654-1.346 3-3 3H6c-1.654 0-3-1.346-3-3V6c0-1.654 1.346-3 3-3h28c1.654 0 3 1.346 3 3v14a7.9 7.9 0 0 0-2 .263V7c0-1.103-.897-2-2-2h-5.781l-.81 3.242a1 1 0 0 1-.971.758H14.562c-.46 0-.858-.312-.971-.757L12.781 5H7c-1.103 0-2 .897-2 2v42c0 1.103.897 2 2 2h26c1.103 0 2-.897 2-2V35.737A7.9 7.9 0 0 0 37 36zM17.245 24h-2.482l1.923-5h1.987zm-1.932-7l-5.77 15h6.146l-3 11h4.882l6.471-11h6.037a8.043 8.043 0 0 0 2.92 2.916V49H7V7h4.219l.433 1.729A2.995 2.995 0 0 0 14.562 11h10.877a2.996 2.996 0 0 0 2.91-2.272L28.781 7H33v14.084A8.043 8.043 0 0 0 30.08 24H19.326l2-7zm2.451 15h3.958l-5.294 9H15.31zM41 24h-1c-2.206 0-4 1.794-4 4s1.794 4 4 4h1v.572C39.954 33.496 38.55 34 37 34a6.026 6.026 0 0 1-5.414-3.43l-.272-.57H12.456l1.538-4h17.32l.271-.57A6.029 6.029 0 0 1 37 22c1.55 0 2.954.504 4 1.428z"/></svg>