<svg xmlns="http://www.w3.org/2000/svg" viewBox="0 0 493.464 493.464"><path d="M246.736 0C110.692 0 .004 110.68.004 246.732c0 136.06 110.688 246.732 246.732 246.732 136.048 0 246.724-110.672 246.724-246.732C493.456 110.68 382.78 0 246.736 0zm113.788 208.716L230.98 338.268c-2.82 2.824-7.816 2.824-10.64 0l-86.908-86.912a7.477 7.477 0 0 1-2.192-5.324 7.566 7.566 0 0 1 2.192-5.336l11.108-11.104c1.412-1.408 3.3-2.18 5.328-2.18 2.016 0 3.908.772 5.316 2.18l67.752 67.752a3.827 3.827 0 0 0 5.444 0l110.392-110.392c2.824-2.824 7.828-2.824 10.644 0l11.108 11.124a7.462 7.462 0 0 1 2.208 5.308 7.503 7.503 0 0 1-2.208 5.332z"/></svg>