<svg width="148" height="66" viewBox="0 0 148 66" xmlns="http://www.w3.org/2000/svg"><title>70075AD7-E781-4B1E-A865-C0AD108D287F</title><g fill="#FFF" fill-rule="evenodd"><path d="M84.925 18.67a4.922 4.922 0 0 0-1.68-1.154c-.648-.273-1.392-.41-2.232-.41-.865 0-1.644.159-2.338.477a5.3 5.3 0 0 0-1.765 1.288 5.76 5.76 0 0 0-1.117 1.88 6.499 6.499 0 0 0-.39 2.252c0 .789.13 1.54.39 2.252a5.65 5.65 0 0 0 1.117 1.87c.483.535 1.072.96 1.765 1.279.694.318 1.473.477 2.338.477.763 0 1.463-.083 2.1-.248.635-.166 1.15-.375 1.545-.63V23.9H81.51v-1.202h4.523v6.088a8.76 8.76 0 0 1-2.385.992c-.853.216-1.737.324-2.653.324-1.018 0-1.96-.178-2.825-.534a6.68 6.68 0 0 1-2.232-1.479 6.739 6.739 0 0 1-1.46-2.242c-.35-.866-.525-1.813-.525-2.844 0-1.03.178-1.978.534-2.844a6.786 6.786 0 0 1 1.48-2.242 6.81 6.81 0 0 1 2.232-1.479 7.225 7.225 0 0 1 2.796-.534c1.081 0 2.023.159 2.824.477a6.01 6.01 0 0 1 2.062 1.336l-.955.954zm4.445 11.09h-1.51l5.84-13.512h1.336l5.801 13.512h-1.526l-1.489-3.55h-6.985l-1.47 3.55zm1.985-4.81h5.954l-2.977-7.175-2.977 7.176zm34.603-1.6l4.542-7.445h2.099v13.511h-1.374V17.678L126.3 25.44h-.725l-4.886-7.76-.038 11.736h-1.374V15.904h2.1l4.58 7.444zm-16.7 0l4.543-7.445h2.1v13.511h-1.375V17.678l-4.924 7.761h-.725l-4.885-7.76-.039 11.736h-1.374V15.904h2.1l4.58 7.444zm27.05 6.41H134.8l5.84-13.512h1.336l5.801 13.512h-1.526l-1.489-3.55h-6.985l-1.47 3.55zm1.984-4.81h5.955l-2.977-7.175-2.978 7.176zm-52.24 23.309a5.619 5.619 0 0 1-.83.973c-.324.306-.7.573-1.126.802-.426.229-.897.41-1.412.544a6.72 6.72 0 0 1-1.69.2c-1.017 0-1.958-.178-2.824-.534a6.68 6.68 0 0 1-2.232-1.48 6.739 6.739 0 0 1-1.46-2.242c-.35-.865-.525-1.813-.525-2.843s.178-1.979.534-2.844a6.786 6.786 0 0 1 1.48-2.242 6.81 6.81 0 0 1 2.232-1.48 7.225 7.225 0 0 1 2.796-.534c.496 0 .983.051 1.46.153a6.91 6.91 0 0 1 1.345.43c.42.184.802.407 1.145.667.344.261.63.557.86.888l-1.146.84a3.416 3.416 0 0 0-.563-.65 3.829 3.829 0 0 0-.83-.572 5.193 5.193 0 0 0-1.04-.4 4.616 4.616 0 0 0-1.212-.153c-.878 0-1.664.159-2.357.477a5.3 5.3 0 0 0-1.765 1.288 5.629 5.629 0 0 0-1.107 1.88 6.645 6.645 0 0 0-.382 2.252c0 .789.13 1.54.391 2.252a5.76 5.76 0 0 0 1.117 1.88 5.3 5.3 0 0 0 1.765 1.288c.694.318 1.473.477 2.338.477.776 0 1.514-.16 2.214-.477.7-.318 1.285-.827 1.756-1.527l1.068.687zm3.661.954h6.298v1.222h-7.672V36.922h1.374v12.29zm9.654 1.222h-1.374V36.922h1.374v13.512zm13.088-2.004h.039V36.922h1.374v13.512h-1.718l-7.863-11.623h-.038v11.623h-1.374V36.922h1.718l7.862 11.508zm6.295 2.004h-1.374V36.922h1.374v13.512zm14.883-2.176a5.618 5.618 0 0 1-.83.973c-.325.306-.7.573-1.126.802-.427.229-.897.41-1.413.544a6.72 6.72 0 0 1-1.689.2c-1.017 0-1.959-.178-2.824-.534a6.68 6.68 0 0 1-2.233-1.48 6.739 6.739 0 0 1-1.46-2.242c-.35-.865-.525-1.813-.525-2.843s.178-1.979.535-2.844a6.786 6.786 0 0 1 1.479-2.242 6.81 6.81 0 0 1 2.233-1.48 7.225 7.225 0 0 1 2.795-.534c.497 0 .983.051 1.46.153a6.92 6.92 0 0 1 1.346.43c.42.184.801.407 1.145.667.343.261.63.557.859.888l-1.145.84a3.416 3.416 0 0 0-.563-.65 3.829 3.829 0 0 0-.83-.572 5.193 5.193 0 0 0-1.04-.4 4.616 4.616 0 0 0-1.213-.153c-.877 0-1.663.159-2.356.477a5.3 5.3 0 0 0-1.766 1.288 5.629 5.629 0 0 0-1.107 1.88 6.645 6.645 0 0 0-.381 2.252c0 .789.13 1.54.39 2.252a5.76 5.76 0 0 0 1.117 1.88 5.3 5.3 0 0 0 1.766 1.288c.693.318 1.472.477 2.337.477.777 0 1.514-.16 2.214-.477.7-.318 1.285-.827 1.756-1.527l1.069.687zM29.203 25.633a8.818 8.818 0 0 0-3.009-2.069c-1.163-.49-2.496-.735-4-.735-1.55 0-2.947.285-4.19.855a9.495 9.495 0 0 0-3.162 2.308 10.32 10.32 0 0 0-2 3.368 11.644 11.644 0 0 0-.701 4.034c0 1.414.233 2.759.7 4.035a10.124 10.124 0 0 0 2.001 3.351c.866.957 1.92 1.721 3.163 2.291 1.242.57 2.638.855 4.188.855 1.368 0 2.622-.148 3.762-.445 1.14-.296 2.063-.672 2.77-1.128V35h-5.642v-2.154h8.103v10.908a15.694 15.694 0 0 1-4.274 1.778 19.25 19.25 0 0 1-4.753.581c-1.823 0-3.51-.319-5.06-.957-1.55-.639-2.884-1.522-4-2.65-1.118-1.129-1.99-2.468-2.617-4.018-.626-1.55-.94-3.248-.94-5.095 0-1.846.32-3.544.958-5.094.638-1.55 1.521-2.89 2.65-4.018a12.202 12.202 0 0 1 4-2.65c1.539-.638 3.208-.957 5.01-.957 1.937 0 3.624.285 5.06.855 1.436.57 2.667 1.367 3.693 2.393l-1.71 1.71zM57.857 41.6c-.41.615-.907 1.196-1.488 1.744a9.448 9.448 0 0 1-2.017 1.436 11.34 11.34 0 0 1-2.53.974c-.924.24-1.932.36-3.027.36-1.823 0-3.51-.32-5.06-.958-1.55-.639-2.884-1.522-4-2.65-1.118-1.129-1.99-2.468-2.616-4.018-.627-1.55-.94-3.248-.94-5.095 0-1.846.318-3.544.957-5.094.638-1.55 1.521-2.89 2.65-4.018a12.202 12.202 0 0 1 4-2.65c1.539-.638 3.209-.957 5.01-.957.888 0 1.76.09 2.615.273.855.183 1.659.439 2.41.77.753.33 1.437.729 2.052 1.196a6.997 6.997 0 0 1 1.539 1.59L55.36 26.01a6.121 6.121 0 0 0-1.008-1.163 6.86 6.86 0 0 0-1.488-1.026 9.304 9.304 0 0 0-1.863-.718 8.27 8.27 0 0 0-2.171-.273c-1.573 0-2.98.285-4.223.855a9.495 9.495 0 0 0-3.163 2.308 10.084 10.084 0 0 0-1.983 3.368 11.905 11.905 0 0 0-.684 4.034c0 1.414.234 2.759.7 4.035a10.32 10.32 0 0 0 2.001 3.368 9.495 9.495 0 0 0 3.163 2.308c1.242.57 2.639.855 4.189.855 1.39 0 2.712-.285 3.966-.855 1.254-.57 2.302-1.482 3.146-2.735l1.915 1.23z"/><path d="M2.386 2.386v61.228H64.41V2.386H2.386zM0 0h66.795v66H0V0z" fill-rule="nonzero"/></g></svg>