<svg width="86" height="104" viewBox="0 0 86 104" xmlns="http://www.w3.org/2000/svg" xmlns:xlink="http://www.w3.org/1999/xlink"><title>2F7C4113-AA8E-4EEA-AA2E-DD5FA99BF0A4</title><defs><path id="a" d="M59.087.106H.279v58.726h58.808V.106z"/><path id="c" d="M6.652 8.097V.016H.214v8.081z"/></defs><g fill="none" fill-rule="evenodd"><path fill="#FFF" d="M14.83 87.845v-.76l2.1-.971V73.085l-2.1-.97v-.761h8.119v.76l-2.098.971v13.029l2.098.97v.76zm27.519-8.12c2.515 0 3.46-1.454 3.46-3.758 0-2.122-.922-3.393-3.113-3.393h-.945v7.151h.598zm.578-8.371c2.49 0 3.92.274 5.028.946 1.152.716 1.913 2.166 1.913 3.667 0 1.521-.667 2.766-1.844 3.644-1.13.855-2.769 1.339-4.727 1.339H41.75v5.164l2.1.97v.761h-8.12v-.76l2.099-.971V73.058l-2.099-.944v-.76h7.196zm27.408 4.566l-1.244-3.346h-2.676v13.54l2.698.97v.76h-9.34v-.76l2.698-.97v-13.54H59.75l-1.2 3.346h-1.36v-4.566h14.507v4.566z"/><g transform="translate(13.58 .225)"><mask id="b" fill="#fff"><use xlink:href="#a"/></mask><path d="M.28.106v35.322h.058c-.015.342-.036.683-.036 1.029H.298C.3 48.812 10.318 58.832 22.79 58.832h.08c12.269-.103 22.184-10.079 22.184-22.375a22.281 22.281 0 0 0-5.414-14.584v11.781H25.582V.131c18.322 1.445 32.828 16.44 33.505 34.972V.106H.279z" fill="#FFF" mask="url(#b)"/></g><path d="M6.997 101.086v2.294a14.29 14.29 0 0 1-1.04.25c-.934.195-1.471.206-1.722.206-.548 0-1.85-.034-2.888-.89-.89-.73-1.347-1.93-1.347-3.138 0-.823.172-2.204 1.37-3.242.959-.834 2.088-1.05 3.23-1.05.548 0 1.279.044 2.522.33v1.907H6.54L5.958 96.2c-.147-.022-.456-.08-.935-.08-1.108 0-1.907.297-2.478.901-.82.868-.912 2.067-.912 2.764 0 .753.136 1.655.765 2.396.696.823 1.62.97 2.248.97.183 0 .56-.022.845-.056v-1.998l-1.027-.445v-.343h3.56v.343l-1.027.434zm15.261-1.701h.73c.343 0 .766-.09 1.085-.537.216-.296.319-.718.319-1.142 0-.284-.045-.615-.159-.843-.298-.618-.902-.685-1.244-.685h-.731v3.207zm1.108-3.755c.626 0 1.346.01 1.905.445.296.228.72.708.72 1.529 0 .618-.207 1.153-.697 1.564a2.528 2.528 0 0 1-1.152.526l2.293 3.218.97.457v.342H25.18l-2.59-3.847h-.332v3.06l1.027.445v.342H19.77v-.331l1.038-.445v-6.518l-1.038-.445v-.342h3.596zm18.295.981c-.97.879-1.004 2.695-1.004 3.06 0 2.704 1.312 3.595 2.328 3.595.993 0 2.306-.822 2.306-3.55 0-2.215-.935-3.596-2.328-3.596-.617 0-1.039.252-1.302.491m5.308 2.922c0 2.569-1.689 4.36-4.166 4.36-2.272 0-3.801-1.586-3.801-3.96 0-2.476 1.608-4.417 4.109-4.417 2.397 0 3.858 1.7 3.858 4.017m19.141-3.116v4.497c0 .514-.069 1.485-.765 2.158-.719.696-1.837.788-2.477.788-.662 0-1.62-.08-2.294-.628-.64-.525-.822-1.233-.822-1.974v-4.83l-1.027-.456v-.342h3.584v.342l-1.028.445v4.782c0 .344.023 1.029.423 1.473.411.468 1.061.503 1.45.503.536 0 1.301-.092 1.7-.697.252-.388.286-.958.286-1.312v-4.738l-1.027-.456v-.342h3.025v.342l-1.027.445z" fill="#FFF"/><g transform="translate(78.497 95.614)"><mask id="d" fill="#fff"><use xlink:href="#c"/></mask><path d="M2.783 4.16h.423c.41 0 .958-.058 1.357-.457.309-.308.48-.798.48-1.404 0-1.62-1.107-1.735-1.61-1.735h-.65V4.16zm.73-4.144c.742 0 1.632.022 2.317.536.617.468.822 1.176.822 1.735 0 .742-.33 1.394-.89 1.804-.205.148-.901.604-2.18.604h-.8V7.31l1.142.445v.342H.214v-.33l1.039-.446V.803L.214.358V.016h3.3z" fill="#FFF" mask="url(#d)"/></g></g></svg>