<svg width="157" height="46" viewBox="0 0 157 46" xmlns="http://www.w3.org/2000/svg" xmlns:xlink="http://www.w3.org/1999/xlink"><title>82D14B84-3518-4927-BE59-B61EC1169A3A</title><defs><path id="a" d="M23.828.767H.173V28.34h23.655V.767z"/><path id="c" d="M25.004.767H.729V28.34h24.275V.767z"/><path id="e" d="M42.326.767H0v42.238h42.326V.767z"/><path id="g" d="M7.998 9.651V.621H.8v9.03z"/></defs><g fill="none" fill-rule="evenodd"><path fill="#F5F5F5" d="M61.374.821v1.273l3.514 1.621V25.5l-3.514 1.624v1.27H74.96v-1.27L71.448 25.5V3.715l3.512-1.621V.82z"/><g transform="translate(96.173 .055)"><mask id="b" fill="#fff"><use xlink:href="#a"/></mask><path d="M11.246 14.764c4.21 0 5.791-2.431 5.791-6.284 0-3.548-1.544-5.673-5.21-5.673h-1.581v11.957h1zM12.213.767c4.167 0 6.56.46 8.412 1.582 1.929 1.197 3.203 3.62 3.203 6.131 0 2.543-1.12 4.624-3.087 6.094-1.89 1.428-4.632 2.238-7.907 2.238h-2.588v8.633l3.513 1.623v1.271H.173v-1.27l3.512-1.624V3.616L.173 2.04V.767h12.04z" fill="#F5F5F5" mask="url(#b)"/></g><g transform="translate(131.518 .055)"><mask id="d" fill="#fff"><use xlink:href="#c"/></mask><path fill="#F5F5F5" mask="url(#d)" d="M22.727 8.402l-2.082-5.595h-4.478v22.638l4.515 1.624v1.27H5.056v-1.27l4.512-1.624V2.807H5.014L3.006 8.402H.729V.767h24.275v7.635z"/></g><g transform="translate(0 .055)"><mask id="f" fill="#fff"><use xlink:href="#e"/></mask><path d="M0 .767v25.405h.043c-.012.246-.026.491-.026.74H.014c.002 8.886 7.211 16.093 16.187 16.093h.058c8.83-.074 15.966-7.249 15.966-16.093 0-4.008-1.47-7.671-3.896-10.489v8.473H18.211V.785c13.187 1.04 23.627 11.824 24.115 25.154V.767H0z" fill="#D6181F" mask="url(#f)"/></g><path d="M69.388 42.093v2.566c-.257.075-.83.217-1.162.28-1.046.217-1.646.228-1.928.228-.611 0-2.067-.037-3.228-.995-.995-.813-1.507-2.156-1.507-3.506 0-.918.192-2.463 1.532-3.621 1.071-.932 2.336-1.175 3.612-1.175.613 0 1.43.05 2.821.369v2.132h-.65l-.652-1.735c-.165-.025-.51-.09-1.046-.09-1.238 0-2.133.331-2.77 1.007-.919.97-1.021 2.309-1.021 3.088 0 .843.152 1.85.856 2.678.778.92 1.811 1.085 2.514 1.085.205 0 .625-.026.944-.063v-2.234l-1.148-.497v-.383h3.98v.383l-1.147.483zm17.065-1.899h.817c.383 0 .856-.101 1.211-.599.243-.332.358-.803.358-1.277 0-.317-.05-.688-.178-.943-.333-.69-1.008-.763-1.39-.763h-.818v3.582zm1.238-4.196c.701 0 1.505.011 2.13.498.333.254.805.79.805 1.707 0 .691-.231 1.29-.779 1.747a2.815 2.815 0 0 1-1.287.59l2.562 3.596 1.087.508v.384h-2.488l-2.899-4.299h-.369v3.42l1.148.495v.384h-3.93v-.369l1.16-.498v-7.283l-1.16-.498v-.382h4.02zm20.459 1.096c-1.084.982-1.124 3.012-1.124 3.419 0 3.023 1.469 4.018 2.604 4.018 1.11 0 2.578-.918 2.578-3.966 0-2.476-1.047-4.02-2.603-4.02a2.11 2.11 0 0 0-1.456.55m5.936 3.264c0 2.87-1.888 4.874-4.657 4.874-2.542 0-4.252-1.773-4.252-4.428 0-2.767 1.798-4.935 4.595-4.935 2.68 0 4.314 1.9 4.314 4.49m21.405-3.482v5.024c0 .574-.077 1.66-.855 2.412-.806.778-2.057.88-2.771.88-.742 0-1.811-.089-2.566-.702-.714-.585-.918-1.376-.918-2.206V36.89l-1.148-.51v-.382h4.005v.383l-1.147.497v5.344c0 .383.025 1.15.472 1.644.46.524 1.186.563 1.623.563.597 0 1.454-.103 1.9-.78.28-.432.319-1.07.319-1.466V36.89l-1.149-.51v-.382h3.383v.383l-1.148.497z" fill="#F5F5F5"/><g transform="translate(148.78 35.376)"><mask id="h" fill="#fff"><use xlink:href="#g"/></mask><path d="M3.672 5.251h.473c.46 0 1.07-.062 1.518-.51.345-.343.535-.89.535-1.567 0-1.812-1.24-1.939-1.799-1.939h-.727v4.016zm.815-4.63c.83 0 1.826.026 2.592.6.688.522.92 1.314.92 1.938 0 .831-.372 1.558-.996 2.016-.232.166-1.008.676-2.439.676h-.892v2.922l1.275.496v.382H.8v-.368l1.16-.497V1.502L.8 1.004V.621h3.687z" fill="#F5F5F5" mask="url(#h)"/></g></g></svg>