<svg width="17" height="17" viewBox="0 0 17 17" xmlns="http://www.w3.org/2000/svg"><title>12A7FB35-BFD2-4BC8-BC03-19A86F69BC25</title><g fill="#B4B4B4"><path d="M7.088 13.249A6.594 6.594 0 0 1 .5 6.663 6.594 6.594 0 0 1 7.088.076a6.594 6.594 0 0 1 6.586 6.587 6.593 6.593 0 0 1-6.586 6.586zm0-11.528a4.947 4.947 0 0 0-4.942 4.942 4.947 4.947 0 0 0 4.942 4.94 4.947 4.947 0 0 0 4.94-4.94 4.947 4.947 0 0 0-4.94-4.942z"/><path d="M16.07 16.622a.82.82 0 0 1-.581-.24l-4.938-4.938a.822.822 0 1 1 1.163-1.163l4.938 4.937a.822.822 0 0 1-.582 1.404z"/></g></svg>