<svg xmlns="http://www.w3.org/2000/svg" width="90" height="25" viewBox="0 0 90 25"><path fill="#fff" d="M14.832 12.16c-.024-2.74 2.243-4.072 2.346-4.134-1.284-1.872-3.274-2.127-3.973-2.148-1.672-.176-3.293 1-4.144 1-.869 0-2.18-.983-3.593-.954-1.819.028-3.52 1.08-4.453 2.716C-.91 11.973.526 16.872 2.37 19.567c.923 1.32 2.002 2.793 3.413 2.741 1.381-.057 1.897-.88 3.563-.88 1.651 0 2.136.88 3.575.847 1.482-.024 2.415-1.326 3.306-2.657 1.066-1.513 1.494-3.002 1.511-3.079-.035-.012-2.878-1.097-2.906-4.38zm-2.719-8.054c.743-.929 1.251-2.193 1.11-3.475-1.075.047-2.42.743-3.194 1.652-.685.8-1.296 2.112-1.138 3.346 1.207.09 2.447-.609 3.222-1.523zm17.522 13.019l.877-2.757c.23-.877.397-1.54.501-1.99h.032c.261 1.045.438 1.708.532 1.99l.893 2.757zm5.922 4.403L32.141 10.97h-2.1l-3.399 10.56h1.754l.941-3.102h3.431l.987 3.101zm7.018-3.838c0 .804-.178 1.452-.533 1.943-.355.49-.851.736-1.488.736-.543 0-.984-.19-1.324-.572-.339-.382-.509-.849-.509-1.403v-1.269c0-.135.026-.307.079-.516a1.93 1.93 0 0 1 .665-1.09 1.76 1.76 0 0 1 1.136-.415c.616 0 1.107.251 1.472.753.335.48.502 1.091.502 1.833zm1.723-.062c0-1.16-.3-2.094-.901-2.805-.6-.71-1.35-1.065-2.248-1.065-1.149 0-2.005.454-2.569 1.363h-.032l-.094-1.207h-1.488c.041.857.063 1.693.063 2.507v8.21h1.691v-4.01h.032c.439.72 1.159 1.08 2.162 1.08.929 0 1.708-.334 2.335-1.003.699-.752 1.049-1.775 1.049-3.07zm7.035.062c0 .804-.178 1.452-.534 1.943-.354.49-.85.736-1.487.736-.545 0-.986-.191-1.326-.572-.338-.382-.507-.849-.507-1.403v-1.269c0-.135.027-.307.078-.516.104-.45.325-.812.665-1.09.34-.275.718-.415 1.136-.415.617 0 1.106.251 1.472.753.335.48.503 1.091.503 1.833zm1.723-.062c0-1.16-.301-2.094-.9-2.805-.601-.71-1.351-1.065-2.249-1.065-1.149 0-2.005.454-2.569 1.363h-.032l-.094-1.207h-1.488c.042.857.063 1.693.063 2.507v8.21h1.692v-4.01h.031c.438.72 1.159 1.08 2.162 1.08.929 0 1.707-.334 2.333-1.003.701-.752 1.051-1.775 1.051-3.07zm9.791.939c0 .898-.311 1.629-.937 2.193-.688.617-1.646.925-2.877.925-1.136 0-2.047-.219-2.737-.658l.392-1.41a4.64 4.64 0 0 0 2.446.674c.637 0 1.133-.144 1.489-.43.355-.289.532-.674.532-1.155 0-.428-.146-.79-.439-1.082-.291-.293-.777-.565-1.457-.817-1.848-.69-2.772-1.7-2.772-3.028 0-.868.324-1.579.972-2.133.646-.555 1.508-.832 2.585-.832.961 0 1.759.168 2.396.502l-.423 1.38c-.595-.325-1.268-.487-2.021-.487-.595 0-1.06.147-1.393.439a1.25 1.25 0 0 0-.423.956c0 .417.161.762.485 1.034.282.25.793.522 1.536.815.909.366 1.576.793 2.005 1.284.428.488.641 1.1.641 1.83zm5.594-3.383h-1.865v3.697c0 .94.328 1.41.987 1.41.302 0 .553-.027.751-.08l.047 1.286c-.333.124-.772.187-1.315.187-.668 0-1.191-.204-1.567-.611-.376-.408-.565-1.092-.565-2.053v-3.838h-1.11v-1.269h1.11v-1.395l1.662-.5v1.895h1.865v1.271zm6.189 4.351c-.366.617-.873.927-1.519.927-.659 0-1.17-.303-1.536-.911-.304-.501-.454-1.104-.454-1.806 0-.724.15-1.335.454-1.838.355-.607.871-.91 1.551-.91.657 0 1.164.302 1.519.91.304.502.454 1.104.454 1.806s-.157 1.31-.469 1.822zm2.224-1.876c0-1.139-.324-2.068-.973-2.788-.678-.742-1.577-1.112-2.695-1.112-1.159 0-2.081.376-2.764 1.128-.685.75-1.026 1.718-1.026 2.898 0 1.127.332 2.063.995 2.804.663.741 1.553 1.112 2.67 1.112 1.159 0 2.089-.386 2.79-1.16.668-.751 1.003-1.712 1.003-2.882zm5.499-2.257a2.939 2.939 0 0 0-.534-.047c-.595 0-1.055.225-1.379.675-.281.396-.423.898-.423 1.503v3.995h-1.69l.015-5.216c0-.878-.021-1.677-.063-2.397h1.473l.062 1.457h.047c.179-.5.46-.904.846-1.206a2.048 2.048 0 0 1 1.223-.408c.156 0 .297.011.423.031v1.613zm5.952 1.518h-3.524c.052-.51.219-.948.501-1.314.344-.46.794-.69 1.347-.69.605 0 1.055.235 1.348.706.229.366.339.799.328 1.3zm1.613.441c0-.95-.224-1.75-.671-2.396-.564-.814-1.395-1.221-2.492-1.221-1.117 0-2.005.407-2.662 1.221-.628.762-.941 1.718-.941 2.867 0 1.169.337 2.101 1.01 2.796.674.694 1.601 1.042 2.782 1.042.981 0 1.832-.157 2.552-.471l-.265-1.174c-.616.24-1.302.36-2.053.36-.68 0-1.233-.178-1.66-.532-.472-.397-.717-.972-.737-1.725h5.075c.043-.208.062-.464.062-.767z"/><path fill="gray" d="M29.354 7.409c-.693 0-1.272-.223-1.734-.669-.462-.447-.694-1.022-.694-1.725 0-.702.232-1.277.694-1.724.462-.446 1.041-.669 1.734-.669.805 0 1.425.347 1.86 1.041l-.695.353a1.343 1.343 0 0 0-.488-.485 1.304 1.304 0 0 0-.677-.187c-.458 0-.838.157-1.141.47-.303.316-.454.716-.454 1.2 0 .488.151.887.454 1.201.303.315.683.472 1.141.472.245 0 .472-.062.68-.187a1.34 1.34 0 0 0 .485-.485l.695.354c-.445.693-1.065 1.04-1.86 1.04zm6.279-.083h-1l-1.554-1.95-.402.472v1.478h-.811V2.699h.811v2.206l1.811-2.206h1.006l-1.88 2.184zm1.546-1.603l.833-2.206.833 2.206zm1.34-3.024h-1.014l-1.817 4.627h.923l.339-.889h2.123l.34.889h.923zm3.002 0v1.227c0 .639.313.957.937.957.351 0 .673-.057.965-.172V2.699h.812v4.627h-.812V5.424a3.09 3.09 0 0 1-1.048.174c-.55 0-.965-.149-1.245-.447-.28-.298-.42-.706-.42-1.225V2.699zm4.704 3.024l.833-2.206.832 2.206zm1.339-3.024h-1.013l-1.818 4.627h.923l.34-.889h2.123l.34.889h.923zm4.239 4.627h-.812V3.413h-1.402V2.7h3.614v.714h-1.4zm4.578-1.985a.689.689 0 0 1 .222.535c0 .222-.074.4-.222.534a.814.814 0 0 1-.569.201h-1.11v-1.47h1.11c.232 0 .421.067.569.2zm-2.49 1.985h2.032c.467 0 .836-.139 1.107-.417.27-.277.406-.622.406-1.033 0-.408-.136-.75-.406-1.031-.271-.28-.64-.419-1.107-.419h-1.221V2.699h-.811zm10.031 0h-.812v-2.02h-2.407v2.02h-.811V2.699h.811v1.893h2.407V2.699h.812zm1.99-1.603l.834-2.206.832 2.206zm1.34-3.024h-1.013l-1.818 4.627h.923l.34-.889h2.123l.339.889h.923z"/></svg>