<svg xmlns="http://www.w3.org/2000/svg" width="29" height="32" viewBox="0 0 29 32"><path fill="#6c8999" d="M11.565 31.278a5.389 5.389 0 0 1-4.808-2.942l.889-.457a4.391 4.391 0 0 0 3.919 2.399c.546 0 1.078-.098 1.581-.293a8.775 8.775 0 0 1 5.901-.119c1.71.57 3.679-.006 4.82-1.424l.106-.098a.772.772 0 0 0 .195-.186c1.454-2.004 2.984-6.925 3.029-11.691l.001-.057-.011-.138c-.112-2.316-2.561-5.751-5.715-5.751-.377 0-.755.029-1.121.085a28.585 28.585 0 0 1-8.701 0 7.468 7.468 0 0 0-1.122-.085c-3.154 0-5.603 3.435-5.715 5.751 0 0 .041 1.698.112 2.414l-.995.099c-.075-.758-.115-2.454-.117-2.525.147-3.072 3.175-6.739 6.715-6.739.428 0 .856.033 1.274.097 2.785.428 5.61.428 8.397 0a8.412 8.412 0 0 1 1.273-.097c3.357 0 6.253 3.297 6.669 6.227h.046l.012.5-.001.164c-.05 5.218-1.696 10.232-3.22 12.333a1.749 1.749 0 0 1-.376.378 5.403 5.403 0 0 1-5.87 1.692 7.735 7.735 0 0 0-5.226.104 5.38 5.38 0 0 1-1.941.359z"/><path fill="#6c8999" d="M25.126 17.792l-.998-.068c.028-.402.045-.807.049-1.211l-.005-.095c-.049-1.006-1.455-2.877-2.7-2.877-.223 0-.447.017-.663.05l-.152-.988c.266-.041.541-.062.815-.062 1.871 0 3.629 2.387 3.699 3.829l.006.124c-.004.452-.022.877-.051 1.298zM22.851 1.281zm0 0c-.023.976-.236 3.265-1.66 4.689-1.423 1.424-3.712 1.635-4.688 1.659.022-.976.235-3.265 1.659-4.689 1.424-1.423 3.713-1.636 4.689-1.659zm-.953 5.396C24.06 4.516 23.855.906 23.845.753l-.028-.439-.439-.028c-.152-.012-3.761-.214-5.923 1.947-2.162 2.162-1.956 5.771-1.947 5.923l.029.439.438.028c.027.002.159.01.37.01.999 0 3.769-.172 5.553-1.956z"/><path fill="#6c8999" d="M16.492 8.156l-.998-.063c.002-.033.182-3.315-1.656-5.153l.707-.707c2.162 2.162 1.956 5.771 1.947 5.923zM18.5 26.278H3a2.503 2.503 0 0 1-2.5-2.5v-7h1v7c0 .827.673 1.5 1.5 1.5h14.5v-6H3v-1h15.5z"/><path fill="#6c8999" d="M3 19.278a2.503 2.503 0 0 1-2.5-2.5c0-1.379 1.122-2.5 2.5-2.5v1c-.827 0-1.5.673-1.5 1.5s.673 1.5 1.5 1.5zm0-4v-1h1.667v1zm10.5 10.5v-4h1v4zm-4 0v-4h1v4zm-4 0v-4h1v4z"/></svg>