<svg xmlns="http://www.w3.org/2000/svg" width="32" height="32" viewBox="0 0 32 32"><path fill="#6c8999" d="M25.639 15.386a2.262 2.262 0 0 1-1.605-.659L17.22 7.962a2.262 2.262 0 0 1-.672-1.608 2.263 2.263 0 0 1 .66-1.614c.427-.43.998-.668 1.608-.671h.009a2.26 2.26 0 0 1 1.605.66l6.814 6.764-.704.71-6.815-6.765a1.269 1.269 0 0 0-.9-.369h-.005a1.274 1.274 0 0 0-.896 2.183l6.815 6.765c.24.238.559.369.9.369.325.01.667-.133.907-.375.252-.254.386-.607.368-.968l.999-.052a2.287 2.287 0 0 1-.657 1.724 2.257 2.257 0 0 1-1.608.671z"/><path fill="#6c8999" d="M22.998 4.87a2.994 2.994 0 0 0 3.844-.339l.129-.13c.39-.393.62-.947.647-1.563.017-.405.184-.788.471-1.077.328-.331.786-.51 1.25-.48.472.026.896.246 1.194.621a1.631 1.631 0 1 1-1.247 2.642c-.566.012-1.118.261-1.555.701l-.085.086a2.966 2.966 0 0 0-.868 2.117c.003.629.198 1.228.558 1.729l-1.204 1.213-4.338-4.307zm5.723 4.331l-.355-.352a1.978 1.978 0 0 1-.588-1.405 1.972 1.972 0 0 1 .578-1.408l.086-.088c.252-.254.56-.398.866-.404a2.627 2.627 0 0 0 2.082-1.097 2.626 2.626 0 0 0-.075-3.168 2.644 2.644 0 0 0-1.921-.997 2.618 2.618 0 0 0-2.015.775 2.616 2.616 0 0 0-.76 1.739c-.012.258-.082.624-.358.901l-.129.13a1.992 1.992 0 0 1-2.814.01l-.355-.352-2.583 2.603 5.757 5.716zm-7.387 2.141l-.71-.704 1.127-1.136.71.704zm1.767 1.754l-.71-.704 1.127-1.136.71.704zm-3.533-3.508l-.71-.704 1.127-1.136.71.704z"/><path fill="#6c8999" d="M12.647 7.989c2.841 0 5.683 1.076 7.854 3.231 4.362 4.33 4.388 11.402.058 15.764s-11.402 4.389-15.765.058a11.076 11.076 0 0 1-3.294-7.87 11.075 11.075 0 0 1 3.236-7.895 11.115 11.115 0 0 1 7.911-3.288zm.045 23.289a12.066 12.066 0 0 0 8.577-3.59c4.718-4.753 4.689-12.459-.064-17.178a12.068 12.068 0 0 0-8.557-3.527h-.045a12.075 12.075 0 0 0-8.577 3.59A12.068 12.068 0 0 0 .5 19.176a12.068 12.068 0 0 0 3.59 8.576 12.067 12.067 0 0 0 8.556 3.526z"/><path fill="#6c8999" d="M17.557 14.186a6.925 6.925 0 0 1 2.059 4.919 6.928 6.928 0 0 1-2.023 4.936 6.927 6.927 0 0 1-4.92 2.058h-.026a6.924 6.924 0 0 1-4.909-2.023 6.922 6.922 0 0 1-2.059-4.92 6.92 6.92 0 0 1 2.023-4.935 6.945 6.945 0 0 1 4.945-2.055c1.776 0 3.553.672 4.91 2.02zm-4.88 12.913a7.92 7.92 0 0 0 5.626-2.354c3.095-3.119 3.076-8.174-.042-11.269-3.117-3.095-8.173-3.078-11.269.041a7.913 7.913 0 0 0-2.313 5.643 7.914 7.914 0 0 0 2.355 5.626 7.915 7.915 0 0 0 5.613 2.313zm2.51 2.053l-.246-.969a9.314 9.314 0 0 0 4.332-2.475l.71.705a10.324 10.324 0 0 1-4.796 2.739zm-2.544.315a10.253 10.253 0 0 1-7.277-3l.704-.71a9.26 9.26 0 0 0 6.706 2.709l.014 1-.147.001z"/></svg>