<svg xmlns="http://www.w3.org/2000/svg" width="24" height="32" viewBox="0 0 24 32"><path fill="#132e3e" d="M20.338 7.149a2.717 2.717 0 0 1-2.714 2.714 2.717 2.717 0 0 1-2.715-2.714 2.717 2.717 0 0 1 2.715-2.714 2.717 2.717 0 0 1 2.714 2.714zm1 0a3.718 3.718 0 0 0-3.714-3.714 3.718 3.718 0 0 0-3.715 3.714 3.718 3.718 0 0 0 3.715 3.714 3.718 3.718 0 0 0 3.714-3.714z"/><path fill="#132e3e" d="M17.624 9.006v-.5c.748 0 1.356-.609 1.356-1.357h.5a1.859 1.859 0 0 1-1.856 1.857zm-8-1.857a2.717 2.717 0 0 1-2.715 2.714 2.717 2.717 0 0 1-2.714-2.714 2.717 2.717 0 0 1 2.714-2.714 2.717 2.717 0 0 1 2.715 2.714zm1 0a3.718 3.718 0 0 0-3.715-3.714 3.718 3.718 0 0 0-3.714 3.714 3.718 3.718 0 0 0 3.714 3.714 3.718 3.718 0 0 0 3.715-3.714z"/><path fill="#132e3e" d="M6.909 9.006v-.5a1.36 1.36 0 0 0 1.358-1.357h.5a1.86 1.86 0 0 1-1.858 1.857zm13.429 6.714a2.718 2.718 0 0 1-2.714 2.715 2.718 2.718 0 0 1-2.715-2.715 2.718 2.718 0 0 1 2.715-2.714 2.718 2.718 0 0 1 2.714 2.714zm1 0a3.718 3.718 0 0 0-3.714-3.714 3.718 3.718 0 0 0-3.715 3.714 3.719 3.719 0 0 0 3.715 3.715 3.718 3.718 0 0 0 3.714-3.715z"/><path fill="#132e3e" d="M17.624 17.577v-.5c.748 0 1.356-.609 1.356-1.357h.5a1.859 1.859 0 0 1-1.856 1.857zm-8-1.857a2.718 2.718 0 0 1-2.715 2.715 2.718 2.718 0 0 1-2.714-2.715 2.718 2.718 0 0 1 2.714-2.714 2.718 2.718 0 0 1 2.715 2.714zm1 0a3.718 3.718 0 0 0-3.715-3.714 3.718 3.718 0 0 0-3.714 3.714 3.718 3.718 0 0 0 3.714 3.715 3.719 3.719 0 0 0 3.715-3.715z"/><path fill="#132e3e" d="M6.909 17.577v-.5a1.36 1.36 0 0 0 1.358-1.357h.5a1.86 1.86 0 0 1-1.858 1.857zm13.429 6.715a2.718 2.718 0 0 1-2.714 2.714 2.718 2.718 0 0 1-2.715-2.714 2.718 2.718 0 0 1 2.715-2.715 2.718 2.718 0 0 1 2.714 2.715zm1 0a3.718 3.718 0 0 0-3.714-3.715 3.719 3.719 0 0 0-3.715 3.715 3.718 3.718 0 0 0 3.715 3.714 3.718 3.718 0 0 0 3.714-3.714z"/><path fill="#132e3e" d="M17.624 26.149v-.5c.748 0 1.356-.609 1.356-1.357h.5a1.859 1.859 0 0 1-1.856 1.857zm-8-1.857a2.718 2.718 0 0 1-2.715 2.714 2.718 2.718 0 0 1-2.714-2.714 2.718 2.718 0 0 1 2.714-2.715 2.718 2.718 0 0 1 2.715 2.715zm1 0a3.719 3.719 0 0 0-3.715-3.715 3.718 3.718 0 0 0-3.714 3.715 3.718 3.718 0 0 0 3.714 3.714 3.718 3.718 0 0 0 3.715-3.714z"/><path fill="#132e3e" d="M6.909 26.149v-.5a1.36 1.36 0 0 0 1.358-1.357h.5a1.86 1.86 0 0 1-1.858 1.857z"/><path fill="#132e3e" d="M19.5 1.278c1.93 0 3.5 1.571 3.5 3.5v22c0 1.93-1.57 3.5-3.5 3.5H5c-1.93 0-3.5-1.57-3.5-3.5v-22c0-1.929 1.57-3.5 3.5-3.5zm4.5 25.5v-22c0-2.481-2.019-4.5-4.5-4.5H5a4.505 4.505 0 0 0-4.5 4.5v22c0 2.482 2.019 4.5 4.5 4.5h14.5c2.481 0 4.5-2.018 4.5-4.5z"/></svg>