<svg xmlns="http://www.w3.org/2000/svg" width="35" height="32" viewBox="0 0 35 32"><path fill="#6c8999" d="M4.364 14.958h-1v-4.43c0-1.929 1.57-3.5 3.5-3.5h12c1.929 0 3.5 1.571 3.5 3.5h-1c0-1.378-1.122-2.5-2.5-2.5h-12a2.503 2.503 0 0 0-2.5 2.5z"/><path fill="#6c8999" d="M8.864 5.778h8v1.25h-8zm9-1h-10v3.25h10z"/><path fill="#6c8999" d="M18.364 1.278v3a.5.5 0 0 1-.5.5h-10a.5.5 0 0 1-.5-.5v-3zm1 3v-4h-13v4c0 .827.673 1.5 1.5 1.5h10c.827 0 1.5-.673 1.5-1.5z"/><path fill="#6c8999" d="M15.964 5.278v-2.32h1v2.32zm-2.401 0v-2.32h1v2.32zm-2.399 0v-2.32h1v2.32zm7.2 10.82h15v2.25h-15zm16-1h-17v4.25h17z"/><path fill="#6c8999" d="M20.364 19.348h11v10.93h-11zm12-1h-13v12.93h13z"/><path fill="#6c8999" d="M24.364 22.278h7v5.07h-7zm8-1h-9v7.07h9zm-12-8.68h11v2.5h-11zm12-1h-13v4.5h13z"/><path fill="#6c8999" d="M28.604 15.598v-3.5h1v3.5zm-2.36 0v-3.5h1v3.5zm-2.36 0v-3.5h1v3.5zm-2.361 0v-3.5h1v3.5zM8.764 5.278v-2.32h1v2.32z"/><g fill="#6c8999"><path d="M6.227 24.278v3.637a2.366 2.366 0 0 1-2.363 2.363A2.367 2.367 0 0 1 1.5 27.915v-3.637zm1 3.637v-4.637H.5v4.637a3.367 3.367 0 0 0 3.364 3.363 3.367 3.367 0 0 0 3.363-3.363z"/><path d="M3.864 29.723v-1a.809.809 0 0 0 .808-.808v-2.582h1v2.582a1.81 1.81 0 0 1-1.808 1.808zM1.5 19.642a2.367 2.367 0 0 1 2.364-2.364 2.366 2.366 0 0 1 2.363 2.364v3.636H1.5zm5.727 0a3.367 3.367 0 0 0-3.363-3.364A3.368 3.368 0 0 0 .5 19.642v4.636h6.727z"/></g><path fill="#6c8999" d="M3.364 12.959v-1h14.5v1zm3 11v-1h12v1zm2 7.319v-1h12v1z"/></svg>