<svg xmlns="http://www.w3.org/2000/svg" width="50" height="50" viewBox="0 0 50 50"><path fill="#fff" d="M6.03 49.364a5.5 5.5 0 0 1-5.5-5.5V6A5.5 5.5 0 0 1 6.03.5h37.863a5.5 5.5 0 0 1 5.5 5.5v37.864a5.5 5.5 0 0 1-5.5 5.5z"/><path fill="#ff4048" d="M49.893 6v37.864a6 6 0 0 1-6 6H6.03a6 6 0 0 1-6-6V6a6 6 0 0 1 6-6h37.863a6 6 0 0 1 6 6zM6.03 1c-2.757 0-5 2.243-5 5v37.864c0 2.757 2.243 5 5 5h37.863c2.757 0 5-2.243 5-5V6c0-2.757-2.243-5-5-5z"/><path fill="#ff4048" d="M24.961 22.854a27.14 27.14 0 0 0-9.208 1.648 9.218 9.218 0 0 1 18.419.069 26.196 26.196 0 0 0-9.211-1.717zm2.221 11.025c.282-4.386.887-6.767.887-6.767 1.891.117 3.769.381 5.619.79a9.252 9.252 0 0 1-6.506 5.977zm-2.221-6.87a1.038 1.038 0 1 1 0-2.077 1.038 1.038 0 0 1 0 2.077zm-8.726.892a36.59 36.59 0 0 1 5.619-.789s.604 2.383.887 6.767a9.255 9.255 0 0 1-6.506-5.978zm8.726-15.435c-6.884 0-12.465 5.581-12.465 12.466 0 6.885 5.581 12.466 12.465 12.466 6.885 0 12.466-5.581 12.466-12.466-.007-6.882-5.584-12.458-12.466-12.466z"/></svg>