<svg xmlns="http://www.w3.org/2000/svg" width="51" height="50" viewBox="0 0 51 50"><path fill="#fff" d="M6.343 49.364a5.5 5.5 0 0 1-5.5-5.5V6a5.5 5.5 0 0 1 5.5-5.5h37.864a5.5 5.5 0 0 1 5.5 5.5v37.864a5.5 5.5 0 0 1-5.5 5.5z"/><path fill="#54b3a4" d="M50.207 6v37.864a6 6 0 0 1-6 6H6.343a6 6 0 0 1-6-6V6a6 6 0 0 1 6-6h37.864a6 6 0 0 1 6 6zM6.343 1c-2.757 0-5 2.243-5 5v37.864c0 2.757 2.243 5 5 5h37.864c2.757 0 5-2.243 5-5V6c0-2.757-2.243-5-5-5z"/><g fill="#54b3a4"><path d="M22.438 11.219v6.62a1.061 1.061 0 0 1-1.419.946 5.751 5.751 0 0 0-2.364-.473v1.891a5.108 5.108 0 0 1 3.783 1.892 5.658 5.658 0 0 1-3.783 1.418v1.892a5.784 5.784 0 0 0 2.364-.473 1.061 1.061 0 0 1 1.419.946v12.766h1.891V11.219zm5.674 0v6.62a1.061 1.061 0 0 0 1.419.946 5.751 5.751 0 0 1 2.364-.473v1.891a5.109 5.109 0 0 0-3.783 1.892 5.658 5.658 0 0 0 3.783 1.418v1.892a5.784 5.784 0 0 1-2.364-.473 1.061 1.061 0 0 0-1.419.946v12.766h-1.891V11.219z"/><path d="M18.611 26.834a3.767 3.767 0 0 0-.528-4.508 3.782 3.782 0 0 0-1.319-7.324c-5.201 0-5.201 8.306-5.201 9.93 0 1.418.945 8.984 5.201 8.984a3.783 3.783 0 0 0 1.847-7.082zm13.328 0a3.767 3.767 0 0 1 .528-4.508 3.782 3.782 0 0 1 1.319-7.324c5.202 0 5.202 8.306 5.202 9.93 0 1.418-.946 8.984-5.202 8.984a3.783 3.783 0 0 1-1.847-7.082z"/></g></svg>