<svg xmlns="http://www.w3.org/2000/svg" width="50" height="50" viewBox="0 0 50 50"><path fill="#fff" d="M6 49.363a5.5 5.5 0 0 1-5.5-5.5V6A5.5 5.5 0 0 1 6 .5h37.864a5.5 5.5 0 0 1 5.5 5.5v37.863a5.5 5.5 0 0 1-5.5 5.5z"/><path fill="#54b3a4" d="M49.864 6v37.864a6 6 0 0 1-6 6H6a6 6 0 0 1-6-6V6a6 6 0 0 1 6-6h37.864a6 6 0 0 1 6 6zM6 1C3.243 1 1 3.243 1 6v37.864c0 2.757 2.243 5 5 5h37.864c2.757 0 5-2.243 5-5V6c0-2.757-2.243-5-5-5z"/><path fill="#54b3a4" d="M34.998 15.441h-2.674a22.05 22.05 0 0 1-1.746-.075c.5 1.172.513 2.608.488 3.242.004.865.193 1.601.546 2.132.878 1.318 1.38 2.985 1.359 4.453 2.201-.966 4.439-4.029 4.427-6.833-.008-1.804-.927-2.919-2.4-2.919zm-5.392 3.14c0-.005.15-3.184-1.208-3.487l-.004-.001a29.874 29.874 0 0 1-2.055-.422 25.466 25.466 0 0 0-5.992-.695c-4.338.011-7.881 3.601-7.881 7.944v8.413a2.637 2.637 0 0 0 2.634 2.634c.927 0 1.796-.497 2.268-1.295.892-1.511 2.255-2.698 3.911-3.008v-1.666a4.227 4.227 0 0 0-1.246-3.01.732.732 0 0 1 1.033-1.034 5.681 5.681 0 0 1 1.675 4.044v2.335a.73.73 0 0 0 1.459-.019l.001-.018v-2.298c0-1.528.595-2.964 1.675-4.044a.73.73 0 0 1 1.033 1.034 4.228 4.228 0 0 0-1.247 3.01v1.586h2.472c1.772 0 3.217-1.378 3.357-3.062l.001-.011c.103-1.099-.234-2.668-1.096-3.961-.517-.777-.79-1.803-.79-2.969zm-6.865 12.8v3.777c0 .419.351.759.786.728.378-.027.674-.36.674-.757V31.38a2.184 2.184 0 0 1-1.46.001z"/></svg>