<svg xmlns="http://www.w3.org/2000/svg" width="51" height="50" viewBox="0 0 51 50"><path fill="#fff" d="M6.687 49.363a5.5 5.5 0 0 1-5.5-5.5V6a5.5 5.5 0 0 1 5.5-5.5H44.55a5.5 5.5 0 0 1 5.5 5.5v37.863a5.5 5.5 0 0 1-5.5 5.5z"/><path fill="#ffb84d" d="M50.55 6v37.864a6 6 0 0 1-6 6H6.686a6 6 0 0 1-6-6V6a6 6 0 0 1 6-6H44.55a6 6 0 0 1 6 6zM6.686 1c-2.757 0-5 2.243-5 5v37.864c0 2.757 2.243 5 5 5H44.55c2.757 0 5-2.243 5-5V6c0-2.757-2.243-5-5-5z"/><path fill="#ffb84d" d="M15.069 27.955c-.465 0-.902-.238-1.309-.716-.407-.476-.611-1.064-.611-1.762 0-.5.431-.75 1.292-.75.628 0 1.1.18 1.413.541a1.9 1.9 0 0 1 .472 1.291c0 .384-.117.712-.349.986-.233.273-.536.41-.908.41zm-3.56 1.239c1 1.035 2.187 1.553 3.56 1.553 1.292 0 2.324-.418 3.098-1.256.773-.838 1.161-1.821 1.161-2.949a4.412 4.412 0 0 0-1.118-2.993c-.744-.856-1.733-1.283-2.966-1.283-.291 0-.611.047-.96.139-.349.094-.599.193-.751.297h-.034c.453-1.373 1.349-2.059 2.687-2.059.268 0 .582.041.942.122.361.082.617.163.768.244l.821-2.617c-.757-.361-1.675-.541-2.758-.541-.931 0-1.783.2-2.557.601a5.312 5.312 0 0 0-1.884 1.597 7.791 7.791 0 0 0-1.117 2.217 8.154 8.154 0 0 0-.393 2.513c0 1.909.5 3.38 1.501 4.415zm12.618-4.922c0-2.419.518-3.629 1.553-3.629 1.036 0 1.553 1.21 1.553 3.629 0 2.456-.517 3.683-1.553 3.683-1.035 0-1.553-1.227-1.553-3.683zm5.236 4.573a7.011 7.011 0 0 0 .767-2.041c.163-.757.245-1.6.245-2.532 0-.93-.082-1.771-.245-2.521a6.894 6.894 0 0 0-.767-2.024 3.56 3.56 0 0 0-1.458-1.388c-.622-.325-1.364-.488-2.225-.488s-1.603.163-2.225.488a3.563 3.563 0 0 0-1.457 1.388 6.895 6.895 0 0 0-.768 2.024 11.91 11.91 0 0 0-.245 2.521c0 .932.082 1.775.245 2.532.163.756.419 1.436.768 2.041a3.604 3.604 0 0 0 1.457 1.405c.622.332 1.364.497 2.225.497s1.603-.165 2.225-.497a3.6 3.6 0 0 0 1.458-1.405zm2.512-2.181v-2.269h3.578v-3.892h2.374v3.892h3.577v2.269h-3.577v3.874h-2.374v-3.874z"/></svg>