<svg xmlns="http://www.w3.org/2000/svg" width="103" height="25" viewBox="0 0 103 25"><defs><linearGradient id="a" x1="19.47" x2="5.72" y1="-6313" y2="-6299.26" gradientUnits="userSpaceOnUse"><stop offset="0" stop-color="#4595d1"/><stop offset=".01" stop-color="#4496d2"/><stop offset=".26" stop-color="#3db7ea"/><stop offset=".51" stop-color="#48c0ec"/><stop offset=".76" stop-color="#5bc2e5"/><stop offset="1" stop-color="#5fc3e4"/></linearGradient><linearGradient id="b" x1="29.31" x2="9.51" y1="-6302.24" y2="-6302.24" gradientUnits="userSpaceOnUse"><stop offset="0" stop-color="#ffdf06"/><stop offset=".41" stop-color="#fabb0c"/><stop offset=".78" stop-color="#f5a216"/><stop offset="1" stop-color="#f4991a"/></linearGradient><linearGradient id="c" x1="15.1" x2="-3.53" y1="-6310.73" y2="-6292.08" gradientUnits="userSpaceOnUse"><stop offset="0" stop-color="#ff4048"/><stop offset="1" stop-color="#c20f62"/></linearGradient><linearGradient id="d" x1=".75" x2="9.07" y1="-6310.75" y2="-6302.42" gradientUnits="userSpaceOnUse"><stop offset="0" stop-color="#319f71"/><stop offset=".07" stop-color="#2ba671"/><stop offset=".48" stop-color="#4eb16f"/><stop offset=".8" stop-color="#60b468"/><stop offset="1" stop-color="#63b563"/></linearGradient></defs><path fill="#fff" d="M86.345 10.261h1.64v10.835h-1.64zm16.564 3.903l-4.5 10.217H96.7l1.666-3.653-2.921-6.564h1.764l1.944 4.697h.056l1.88-4.697zm-9.155 3.986c-.437-.207-.775-.364-1.495-.364-.805 0-1.735.322-1.735 1.161 0 .655.746.917 1.281.917.947 0 1.821-.71 1.949-1.714zm-1.752-4.223c1.88 0 3.332 1.075 3.332 2.996v4.156h-1.58v-.837h-.056c-.381.571-.989 1.061-2.089 1.061-1.44 0-2.72-.935-2.72-2.387 0-1.587 1.593-2.438 3.156-2.438.779 0 1.413.251 1.709.42v-.114c-.013-.89-.874-1.393-1.722-1.393-.608 0-1.182.195-1.495.796l-1.451-.601c.505-1.143 1.734-1.659 2.916-1.659zm-8.192-.301c0-.855-.698-1.858-1.919-1.858h-2.329v3.716h2.329c1.221 0 1.919-1.02 1.919-1.858zm1.636 0c0 2.066-1.781 3.365-3.598 3.365h-2.286v4.105h-1.636V10.261h3.922c1.813 0 3.598 1.3 3.598 3.365zm-22.987 4.021c0-1.3-.878-2.248-1.992-2.248-1.13 0-2.076.948-2.076 2.248 0 1.287.946 2.222 2.076 2.222 1.114 0 1.992-.935 1.992-2.222zm-.116-3.475h1.554v6.62c0 2.72-1.622 3.84-3.545 3.84-1.807 0-2.896-1.204-3.307-2.181l1.427-.589c.256.602.878 1.317 1.88 1.317 1.229 0 1.991-.757 1.991-2.167v-.53h-.055c-.369.445-1.071.839-1.961.839-1.869 0-3.577-1.608-3.577-3.674 0-2.079 1.708-3.7 3.577-3.7.89 0 1.592.39 1.961.822h.055zm2.685-3.911h1.64v10.835h-1.64zm7.391 5.891c-.184-.46-.736-.782-1.387-.782-.831 0-1.991.728-1.949 2.15zm1.923.559l-4.989 2.041c.382.74.977 1.117 1.807 1.117.835 0 1.413-.407 1.837-1.02l1.272.838a3.71 3.71 0 0 1-3.109 1.634c-2.119 0-3.7-1.621-3.7-3.686 0-2.193 1.597-3.688 3.516-3.688 1.936 0 2.886 1.521 3.194 2.345zm-34.579-1.633c.055.279.085.614.085.978 0 1.172-.325 2.624-1.37 3.657-1.02 1.049-2.317 1.608-4.043 1.608-3.195 0-5.879-2.57-5.879-5.727 0-3.157 2.684-5.726 5.879-5.726 1.765 0 3.023.686 3.969 1.579l-1.117 1.104c-.676-.631-1.593-1.117-2.852-1.117a4.131 4.131 0 0 0-4.154 4.16 4.132 4.132 0 0 0 4.154 4.16c1.512 0 2.372-.6 2.925-1.142.454-.449.75-1.092.86-1.968h-3.785v-1.566zm6.492 2.557c0-1.33-.973-2.236-2.103-2.236-1.131 0-2.107.906-2.107 2.236 0 1.312.976 2.234 2.107 2.234 1.13 0 2.103-.922 2.103-2.234zm1.64 0c0 2.12-1.68 3.686-3.743 3.686-2.064 0-3.743-1.566-3.743-3.686 0-2.138 1.679-3.688 3.743-3.688 2.063 0 3.743 1.55 3.743 3.688zm6.53 0c0-1.33-.976-2.236-2.107-2.236-1.13 0-2.102.906-2.102 2.236 0 1.312.972 2.234 2.102 2.234 1.131 0 2.107-.922 2.107-2.234zm1.64 0c0 2.12-1.682 3.686-3.747 3.686-2.06 0-3.742-1.566-3.742-3.686 0-2.138 1.682-3.688 3.742-3.688 2.065 0 3.747 1.55 3.747 3.688z"/><path fill="url(#a)" d="M.655 1.013c-.241.249-.381.638-.381 1.141v17.94c0 .503.14.891.381 1.141l.06.054L10.886 11.24v-.237L.715.954z"/><path fill="url(#b)" d="M14.273 14.592l-3.387-3.352v-.237l3.391-3.35.076.042 4.016 2.26c1.146.639 1.146 1.694 0 2.339l-4.016 2.254z"/><path fill="url(#c)" d="M14.353 14.548l-3.467-3.426L.655 21.235c.381.395 1.001.443 1.707.047l11.991-6.734"/><path fill="url(#d)" d="M14.353 7.695L2.362.961C1.656.57 1.036.617.655 1.013l10.231 10.11z"/><path fill="gray" d="M31.267 5.415c-.693 0-1.271-.222-1.734-.668-.462-.447-.693-1.02-.693-1.724 0-.703.231-1.277.693-1.723.463-.447 1.041-.669 1.734-.669.804 0 1.424.346 1.859 1.04l-.694.353a1.353 1.353 0 0 0-.489-.485 1.31 1.31 0 0 0-.676-.187 1.52 1.52 0 0 0-1.141.472c-.302.314-.454.714-.454 1.199 0 .486.152.885.454 1.2.303.314.683.471 1.141.471.245 0 .471-.062.68-.187.208-.124.37-.286.485-.485l.694.354c-.445.693-1.064 1.039-1.859 1.039zm6.276-.083h-.999l-1.553-1.948-.402.471v1.477h-.811V.707h.811v2.205L36.398.707h1.006l-1.879 2.184zm1.546-1.601l.833-2.205.832 2.205zM40.428.707h-1.014l-1.816 4.625h.923l.339-.888h2.122l.34.888h.922zm3.001 0v1.227c0 .639.313.957.937.957.351 0 .673-.058.964-.173V.707h.812v4.625h-.812v-1.9a3.078 3.078 0 0 1-1.047.173c-.551 0-.965-.149-1.245-.447-.28-.297-.42-.705-.42-1.224V.707zm4.702 3.024l.833-2.205.832 2.205zM49.47.707h-1.013L46.64 5.332h.923l.339-.888h2.122l.34.888h.923zm4.237 4.625h-.812V1.421h-1.401V.707h3.613v.714h-1.4zm4.008-2.184c.231 0 .421.067.569.201a.689.689 0 0 1 .221.534c0 .222-.074.4-.221.534a.816.816 0 0 1-.569.2h-1.11v-1.47h1.11zm-1.921 2.184h2.032c.466 0 .835-.139 1.106-.416.27-.277.406-.622.406-1.033 0-.407-.136-.75-.406-1.03-.271-.279-.64-.419-1.106-.419h-1.221V.707h-.811zm10.027 0h-.811V3.314h-2.407v2.018h-.811V.707h.811V2.6h2.407V.707h.811zm1.99-1.601l.833-2.205.832 2.205zM69.15.707h-1.013L66.32 5.332h.923l.339-.888h2.123l.339.888h.923z"/></svg>