<svg xmlns="http://www.w3.org/2000/svg" width="16" height="16" viewBox="0 0 16 16"><path fill="#6c8999" d="M8.03 1.991c3.113 0 4.827 0 5.5.672.671.672.671 2.386.671 5.498s0 4.826-.671 5.499c-.673.671-2.387.671-5.5.671l-.573.001c-2.818 0-4.382.003-4.979-.649-.618-.676-.618-2.397-.618-5.522 0-3.112 0-4.826.672-5.498.672-.672 2.386-.672 5.498-.672zm-.572 13.523h.572c7.079 0 7.354-.274 7.354-7.353 0-7.078-.275-7.353-7.354-7.353C.952.808.677 1.083.677 8.161c0 3.533 0 5.306.929 6.32.9.984 2.417 1.034 5.352 1.034l.5-.001z"/><path fill="#6c8999" d="M10.813 8.16a2.786 2.786 0 0 1-2.783 2.784 2.786 2.786 0 0 1-2.783-2.783A2.786 2.786 0 0 1 8.03 5.379a2.785 2.785 0 0 1 2.783 2.782zm1.183 0A3.97 3.97 0 0 0 8.03 4.197a3.97 3.97 0 0 0-3.966 3.965 3.972 3.972 0 0 0 3.966 3.966 3.972 3.972 0 0 0 3.966-3.966zm-.546-4.187a.768.768 0 1 1 1.537 0 .768.768 0 0 1-1.536 0z"/></svg>