<svg xmlns="http://www.w3.org/2000/svg" width="162" height="22" viewBox="0 0 162 22"><path fill="#5ac7b6" d="M16.521 15.853h-4.414V7.944l-3.433 5.334h-.553L4.688 7.944v7.909H.273V.526h4.415l3.709 5.793 3.71-5.793h4.414zM34.3.526v15.327h-4.476V8.19l-6.56 7.663h-3.373V.526h4.477V8.19L30.927.526zm12.874 15.327l-4.905-6.775v6.775h-4.598V.526h4.598v6.713L46.868.526h5.364L46.653 8.19l5.732 7.663zm5.211-7.663c0-4.568 3.463-8.093 8.123-8.093 2.974 0 5.611 1.563 6.929 3.924L63.421 6.35c-.522-1.073-1.625-1.717-2.974-1.717-1.993 0-3.464 1.441-3.464 3.557 0 2.115 1.471 3.555 3.464 3.555 1.349 0 2.483-.644 2.974-1.717l4.016 2.3c-1.318 2.391-3.924 3.955-6.929 3.955-4.66 0-8.123-3.526-8.123-8.093zm29.306-3.25h-4.569v10.913h-4.597V4.94h-4.63V.526h13.796zM98.549.526l-5.242 14.867c-1.717 4.874-4.752 6.805-8.737 6.591v-4.291c2.054 0 3.035-.491 3.741-2.116L82.302.526h4.905l3.556 9.411L93.644.526zm9.932 11.403c-2.116 0-3.648-1.441-3.648-3.739 0-2.3 1.532-3.741 3.648-3.741s3.648 1.441 3.648 3.741c0 2.298-1.532 3.739-3.648 3.739zM109.4.097c-2.054 0-3.555.704-4.567 1.87V.526h-4.599v21.458h4.599v-7.572c1.012 1.165 2.513 1.871 4.567 1.871 4.016 0 7.328-3.526 7.328-8.093 0-4.568-3.312-8.093-7.328-8.093zm17.411 11.832c-2.115 0-3.648-1.441-3.648-3.739 0-2.3 1.533-3.741 3.648-3.741s3.648 1.441 3.648 3.741c0 2.298-1.533 3.739-3.648 3.739zM130.459.526v1.441c-1.011-1.166-2.514-1.87-4.568-1.87-4.016 0-7.326 3.525-7.326 8.093 0 4.567 3.31 8.093 7.326 8.093 2.054 0 3.557-.706 4.568-1.871v1.441h4.598V.526z"/><path fill="#ff464f" d="M137.545 7.735c0-.929.768-1.697 1.698-1.697.929 0 1.697.768 1.697 1.697s-.768 1.697-1.697 1.697c-.93 0-1.698-.768-1.698-1.697zm9.99-.84c-1.233 0-2.126-.839-2.126-2.179 0-1.34.893-2.18 2.126-2.18 1.233 0 2.125.84 2.125 2.18 0 1.34-.892 2.179-2.125 2.179zM148.071 0c-1.197 0-2.072.411-2.662 1.09V.25h-2.68v12.505h2.68V8.343c.59.678 1.465 1.089 2.662 1.089 2.34 0 4.269-2.054 4.269-4.716 0-2.661-1.929-4.716-4.269-4.716zm13.919.25l-3.055 8.664c-1 2.84-2.769 3.966-5.091 3.841v-2.501c1.198 0 1.769-.286 2.18-1.233L152.522.25h2.858l2.072 5.484 1.68-5.484z"/></svg>