<svg xmlns="http://www.w3.org/2000/svg" width="566" height="301" viewBox="0 0 566 301"><defs><linearGradient id="a" x1="-439.16" x2="-352.42" y1="466.89" y2="466.89" gradientUnits="userSpaceOnUse"><stop offset="0" stop-color="#f5bfa5"/><stop offset="1" stop-color="#f5bfa5"/></linearGradient><linearGradient id="b" x1="-445.39" x2="-454.66" y1="416.42" y2="493.71" gradientUnits="userSpaceOnUse"><stop offset="0" stop-color="#fff"/><stop offset=".75" stop-color="#e5eaeb"/><stop offset=".94" stop-color="#c7cbcc"/></linearGradient><linearGradient id="c" x1="-522.88" x2="-451.95" y1="442.6" y2="453.23" gradientUnits="userSpaceOnUse"><stop offset=".71" stop-color="#0e2c3e"/><stop offset="1" stop-color="#0e2c3e"/></linearGradient><linearGradient id="d" x1="-258.42" x2="-266.31" y1="395.78" y2="472.47" gradientUnits="userSpaceOnUse"><stop offset="0" stop-color="#f5bfa5"/><stop offset="1" stop-color="#e2a082"/></linearGradient><linearGradient id="e" x1="-154" x2="-154" y1="402.53" y2="489.25" gradientUnits="userSpaceOnUse"><stop offset="0" stop-color="#13425c"/><stop offset="1" stop-color="#0e2c3e"/></linearGradient><linearGradient id="f" x1="-141.53" x2="-141.53" y1="394.62" y2="456.81" gradientUnits="userSpaceOnUse"><stop offset="0" stop-color="#43bfa7" stop-opacity=".3"/><stop offset="1" stop-color="#060f12" stop-opacity="0"/></linearGradient><linearGradient id="g" x1="-113.74" x2="-113.74" y1="394.58" y2="456.76" gradientUnits="userSpaceOnUse"><stop offset="0" stop-color="#43bfa7" stop-opacity=".3"/><stop offset="1" stop-color="#060f12" stop-opacity="0"/></linearGradient><linearGradient id="h" x1="-439.12" x2="-343.66" y1="440.93" y2="440.93" gradientUnits="userSpaceOnUse"><stop offset="0" stop-color="#f5bfa5"/><stop offset="1" stop-color="#e2a082"/></linearGradient><linearGradient id="i" x1="-102.83" x2="-122.62" y1="470.28" y2="471.15" gradientUnits="userSpaceOnUse"><stop offset="0" stop-color="#f5bfa5"/><stop offset="1" stop-color="#e2a082"/></linearGradient><linearGradient id="j" x1="-125.1" x2="-147.1" y1="467.25" y2="483.03" gradientUnits="userSpaceOnUse"><stop offset="0" stop-color="#f5bfa5"/><stop offset="1" stop-color="#e2a082"/></linearGradient><linearGradient id="k" x1="-140.8" x2="-160.5" y1="472.59" y2="486.99" gradientUnits="userSpaceOnUse"><stop offset="0" stop-color="#f5bfa5"/><stop offset="1" stop-color="#e2a082"/></linearGradient><linearGradient id="l" x1="-156.22" x2="-193.96" y1="480.36" y2="502.91" gradientUnits="userSpaceOnUse"><stop offset="0" stop-color="#f5bfa5"/><stop offset="1" stop-color="#e2a082"/></linearGradient><radialGradient id="m" cx="416.54" cy="276.5" r="25548.55" gradientUnits="userSpaceOnUse"><stop offset="0" stop-color="#f2f2f2"/><stop offset="1" stop-color="#fff"/></radialGradient><linearGradient id="n" x1="102.61" x2="102.61" y1="48.86" y2="280.94" gradientUnits="userSpaceOnUse"><stop offset="0" stop-color="#fff"/><stop offset=".31" stop-color="#f9fafb"/><stop offset=".71" stop-color="#e9ecf0"/><stop offset="1" stop-color="#d9dfe6"/></linearGradient><linearGradient id="o" x1="201.11" x2="201.11" y1="167.68" y2="280.92" gradientUnits="userSpaceOnUse"><stop offset="0" stop-color="#fff"/><stop offset=".23" stop-color="#e6e8eb"/><stop offset=".49" stop-color="#d1d5d9"/><stop offset=".75" stop-color="#c5c9cf"/><stop offset="1" stop-color="#c1c6cc"/></linearGradient><linearGradient id="p" x1="168.7" x2="208.59" y1="292.34" y2="292.34" gradientUnits="userSpaceOnUse"><stop offset=".33" stop-color="#e0e4e6"/><stop offset="1" stop-color="#fff"/></linearGradient><linearGradient id="q" x1="76.18" x2="116.07" y1="471.95" y2="471.95" gradientUnits="userSpaceOnUse"><stop offset=".33" stop-color="#e0e4e6"/><stop offset="1" stop-color="#fff"/></linearGradient><linearGradient id="r" x1="168.09" x2="193.5" y1="264.09" y2="264.09" gradientUnits="userSpaceOnUse"><stop offset="0" stop-color="#ff4d55"/><stop offset="1" stop-color="#cc383f"/></linearGradient><linearGradient id="s" x1="169.81" x2="193.8" y1="264.18" y2="264.18" gradientUnits="userSpaceOnUse"><stop offset="0" stop-color="#fff"/><stop offset=".28" stop-color="#f8fcfc"/><stop offset=".65" stop-color="#e7f6f6"/><stop offset="1" stop-color="#d1efef"/></linearGradient><linearGradient id="t" x1="169.81" x2="193.79" y1="275.39" y2="275.39" gradientUnits="userSpaceOnUse"><stop offset="0" stop-color="#fff"/><stop offset=".28" stop-color="#f8fcfc"/><stop offset=".65" stop-color="#e7f6f6"/><stop offset="1" stop-color="#d1efef"/></linearGradient><linearGradient id="u" x1="169.81" x2="193.8" y1="262.37" y2="262.37" gradientUnits="userSpaceOnUse"><stop offset="0" stop-color="#fff"/><stop offset=".28" stop-color="#f8fcfc"/><stop offset=".65" stop-color="#e7f6f6"/><stop offset="1" stop-color="#d1efef"/></linearGradient><linearGradient id="v" x1="169.81" x2="193.79" y1="264.89" y2="264.89" gradientUnits="userSpaceOnUse"><stop offset="0" stop-color="#fff"/><stop offset=".28" stop-color="#f8fcfc"/><stop offset=".65" stop-color="#e7f6f6"/><stop offset="1" stop-color="#d1efef"/></linearGradient><linearGradient id="w" x1="169.82" x2="193.79" y1="264.89" y2="264.89" gradientUnits="userSpaceOnUse"><stop offset="0" stop-color="#fff"/><stop offset=".28" stop-color="#f8fcfc"/><stop offset=".65" stop-color="#e7f6f6"/><stop offset="1" stop-color="#d1efef"/></linearGradient><linearGradient id="x" x1="169.81" x2="193.78" y1="267.39" y2="267.39" gradientUnits="userSpaceOnUse"><stop offset="0" stop-color="#fff"/><stop offset=".28" stop-color="#f8fcfc"/><stop offset=".65" stop-color="#e7f6f6"/><stop offset="1" stop-color="#d1efef"/></linearGradient><linearGradient id="y" x1="169.82" x2="193.79" y1="267.39" y2="267.39" gradientUnits="userSpaceOnUse"><stop offset="0" stop-color="#fff"/><stop offset=".28" stop-color="#f8fcfc"/><stop offset=".65" stop-color="#e7f6f6"/><stop offset="1" stop-color="#d1efef"/></linearGradient><linearGradient id="z" x1="169.81" x2="193.79" y1="269.86" y2="269.86" gradientUnits="userSpaceOnUse"><stop offset="0" stop-color="#fff"/><stop offset=".28" stop-color="#f8fcfc"/><stop offset=".65" stop-color="#e7f6f6"/><stop offset="1" stop-color="#d1efef"/></linearGradient><linearGradient id="A" x1="169.82" x2="193.79" y1="269.86" y2="269.86" gradientUnits="userSpaceOnUse"><stop offset="0" stop-color="#fff"/><stop offset=".28" stop-color="#f8fcfc"/><stop offset=".65" stop-color="#e7f6f6"/><stop offset="1" stop-color="#d1efef"/></linearGradient><linearGradient id="B" x1="169.81" x2="193.8" y1="258.56" y2="258.56" gradientUnits="userSpaceOnUse"><stop offset="0" stop-color="#fff"/><stop offset=".28" stop-color="#f8fcfc"/><stop offset=".65" stop-color="#e7f6f6"/><stop offset="1" stop-color="#d1efef"/></linearGradient><linearGradient id="C" x1="160.99" x2="162.58" y1="221.99" y2="221.99" gradientUnits="userSpaceOnUse"><stop offset="0" stop-color="#fff"/><stop offset=".28" stop-color="#f8fcfc"/><stop offset=".65" stop-color="#e7f6f6"/><stop offset="1" stop-color="#d1efef"/></linearGradient><linearGradient id="D" x1="163.83" x2="165.42" y1="221.99" y2="221.99" gradientUnits="userSpaceOnUse"><stop offset="0" stop-color="#fff"/><stop offset=".28" stop-color="#f8fcfc"/><stop offset=".65" stop-color="#e7f6f6"/><stop offset="1" stop-color="#d1efef"/></linearGradient><linearGradient id="E" x1="166.67" x2="168.26" y1="221.99" y2="221.99" gradientUnits="userSpaceOnUse"><stop offset="0" stop-color="#fff"/><stop offset=".28" stop-color="#f8fcfc"/><stop offset=".65" stop-color="#e7f6f6"/><stop offset="1" stop-color="#d1efef"/></linearGradient><linearGradient id="F" x1="169.51" x2="171.09" y1="221.99" y2="221.99" gradientUnits="userSpaceOnUse"><stop offset="0" stop-color="#fff"/><stop offset=".28" stop-color="#f8fcfc"/><stop offset=".65" stop-color="#e7f6f6"/><stop offset="1" stop-color="#d1efef"/></linearGradient><linearGradient id="G" x1="172.35" x2="173.93" y1="221.99" y2="221.99" gradientUnits="userSpaceOnUse"><stop offset="0" stop-color="#fff"/><stop offset=".28" stop-color="#f8fcfc"/><stop offset=".65" stop-color="#e7f6f6"/><stop offset="1" stop-color="#d1efef"/></linearGradient><linearGradient id="H" x1="175.18" x2="176.77" y1="221.99" y2="221.99" gradientUnits="userSpaceOnUse"><stop offset="0" stop-color="#fff"/><stop offset=".28" stop-color="#f8fcfc"/><stop offset=".65" stop-color="#e7f6f6"/><stop offset="1" stop-color="#d1efef"/></linearGradient><linearGradient id="I" x1="178.02" x2="179.61" y1="221.99" y2="221.99" gradientUnits="userSpaceOnUse"><stop offset="0" stop-color="#fff"/><stop offset=".28" stop-color="#f8fcfc"/><stop offset=".65" stop-color="#e7f6f6"/><stop offset="1" stop-color="#d1efef"/></linearGradient><linearGradient id="J" x1="180.86" x2="182.44" y1="221.99" y2="221.99" gradientUnits="userSpaceOnUse"><stop offset="0" stop-color="#fff"/><stop offset=".28" stop-color="#f8fcfc"/><stop offset=".65" stop-color="#e7f6f6"/><stop offset="1" stop-color="#d1efef"/></linearGradient><linearGradient id="K" x1="183.7" x2="185.28" y1="221.99" y2="221.99" gradientUnits="userSpaceOnUse"><stop offset="0" stop-color="#d1efef"/><stop offset=".35" stop-color="#e7f6f6"/><stop offset=".72" stop-color="#f8fcfc"/><stop offset="1" stop-color="#fff"/></linearGradient><linearGradient id="L" x1="186.54" x2="188.12" y1="221.99" y2="221.99" gradientUnits="userSpaceOnUse"><stop offset="0" stop-color="#d1efef"/><stop offset=".35" stop-color="#e7f6f6"/><stop offset=".72" stop-color="#f8fcfc"/><stop offset="1" stop-color="#fff"/></linearGradient><linearGradient id="M" x1="189.37" x2="190.96" y1="221.99" y2="221.99" gradientUnits="userSpaceOnUse"><stop offset="0" stop-color="#d1efef"/><stop offset=".35" stop-color="#e7f6f6"/><stop offset=".72" stop-color="#f8fcfc"/><stop offset="1" stop-color="#fff"/></linearGradient><linearGradient id="N" x1="277.42" x2="317.31" y1="290.69" y2="290.69" gradientUnits="userSpaceOnUse"><stop offset=".33" stop-color="#e0e4e6"/><stop offset="1" stop-color="#fff"/></linearGradient><linearGradient id="O" x1="216.32" x2="270.94" y1="273.97" y2="273.97" gradientUnits="userSpaceOnUse"><stop offset="0" stop-color="#43bfa7"/><stop offset="1" stop-color="#4cd9be"/></linearGradient><linearGradient id="P" x1="216.32" x2="270.94" y1="250.72" y2="250.72" gradientUnits="userSpaceOnUse"><stop offset="0" stop-color="#43bfa7"/><stop offset="1" stop-color="#4cd9be"/></linearGradient><linearGradient id="Q" x1="105.65" x2="174.96" y1="299.31" y2="299.31" gradientUnits="userSpaceOnUse"><stop offset=".33" stop-color="#e0e4e6"/><stop offset="1" stop-color="#fff"/></linearGradient><linearGradient id="R" x1="-50.29" x2="19.02" y1="655.52" y2="655.52" gradientUnits="userSpaceOnUse"><stop offset=".33" stop-color="#e0e4e6"/><stop offset=".63" stop-color="#fff"/><stop offset="1" stop-color="#fff"/></linearGradient><linearGradient id="S" x1="70.33" x2="147.97" y1="249.56" y2="249.56" gradientUnits="userSpaceOnUse"><stop offset="0" stop-color="#ff4d55"/><stop offset="1" stop-color="#cc383f"/></linearGradient><linearGradient id="T" x1="114.56" x2="114.56" y1="298.35" y2="200.61" gradientUnits="userSpaceOnUse"><stop offset="0" stop-color="#fff"/><stop offset=".6" stop-color="#fbfdfd"/><stop offset="1" stop-color="#f4f9fa"/></linearGradient></defs><path fill="url(#a)" d="M465.398 172.436s-10.332-2.151-18.072-1.017c-7.74 1.134-33.877 5.716-38.755 4.916-4.878-.801-33.01-12.962-36.444-15.17-3.433-2.208 37.668-60.803 37.668-60.803s24.348 22.245 34.257 26.675c23.042 10.301 44.229 9.82 44.229 9.82s-19.253 25.51-22.883 35.579z"/><path fill="url(#b)" d="M509.999 141.549l-21.718-4.692s-30.076 28.067-30.69 58.935l19.79 9.293s1.275-34.566 32.618-63.536z"/><path fill="url(#c)" d="M535.169 140.228l-23.999-5.253s-16.238 7.744-29.456 37.377c-13.219 29.633-8.62 41.18-8.62 41.18l25.386 10.522c20.875 8.652 44.933.566 56.345-18.937l5.018-8.577c13.036-22.279.542-50.794-24.674-56.312z"/><path fill="url(#d)" d="M485.667 136.118c1.217.338 2.614.739 2.614.739s-16.109 15.035-24.989 35.199a81.493 81.493 0 0 0-2.643-.386c10.825-23.3 23.829-34.385 25.018-35.552z"/><path fill="url(#e)" d="M326.16 39.651l60.041-.393a3.47 3.47 0 0 1 3.102 1.869l53.168 102.244c1.197 2.301-.463 5.055-3.057 5.072l-60.043.393a3.47 3.47 0 0 1-3.102-1.869L323.102 44.723c-1.198-2.302.462-5.055 3.057-5.072z"/><path fill="#0e2c3e" d="M379.108 142.801a3.508 3.508 0 0 0 3.136 1.89l60.552-.396c.416 2.054-1.129 4.133-3.382 4.148l-60.043.393a3.47 3.47 0 0 1-3.102-1.869L323.102 44.723c-1.093-2.101.198-4.572 2.404-5.001zm3.65-98.75c-.674.843-.264 2.29.914 3.232 1.179.941 2.68 1.022 3.354.179.673-.843.264-2.29-.915-3.232-1.178-.942-2.68-1.021-3.353-.179z"/><path fill="url(#f)" d="M405.191 71.68l-38.202 47.815-16.17-31.093 38.166-47.768c.117.155.226.317.318.493z"/><path fill="url(#g)" d="M379.939 39.298l-33.106 41.437-3.98-7.653 26.94-33.717z"/><path fill="#0e2c3e" d="M383.497 44.642c-.44.551-.172 1.497.598 2.112s1.751.668 2.191.117c.441-.551.173-1.497-.597-2.112s-1.752-.668-2.192-.117z"/><path fill="url(#h)" d="M488.281 136.857s-13.161-3.817-18.574-4.654c-5.413-.836-14.074-20.954-25.255-28.586-11.182-7.632-10.402-7.13-14.512-6.908-4.11.222-12.252-.827-15.181-.728-2.93.1-16.088 10.964-22.069 14.095-5.981 3.13 1.591 13.29 10.781 9.282 9.19-4.008 15.9-6.559 19.607-5.811 3.706.748 18.64 17.626 28.473 21.526 9.834 3.901 36.73 1.784 36.73 1.784z"/><path fill="url(#i)" d="M348.838 91.897s-6.482-10.596-12.563-13.479c-6.081-2.882-10.381 2.434-8.919 5.872 1.462 3.438 11.654 16.606 13.124 18.433 1.47 1.827 5.785 5.446 7.235 5.248z"/><path fill="url(#j)" d="M358.278 107.411s-1.128-8.073-1.895-11.064c-.768-2.992-1.679-6.601-6.904-6.246-5.224.356-5.16 12.593-4.798 20.026.363 7.433.86 10.544 4.973 12.602 4.113 2.058 5.797 2.181 5.797 2.181z"/><path fill="url(#k)" d="M368.997 125.325s-4.869-10.479-6.517-14.771c-1.647-4.292-6.904-7.085-10.559-.032-3.655 7.054 4.213 24.75 5.831 27.26 1.618 2.51 7.53 3.371 7.53 3.371z"/><path fill="url(#l)" d="M382.434 152.11s-8.036-25.381-13.838-28.219c-5.802-2.837-11.08 3.748-8.972 10.981 2.107 7.233 8.912 23.424 12.503 26.293 2.866 2.29 9.836 1.957 10.307-9.055z"/><path fill="url(#m)" d="M416.54 283.022c0-3.602 32.115-6.522 71.73-6.522s71.73 2.92 71.73 6.522c0 3.603-32.115 6.523-71.73 6.523s-71.73-2.92-71.73-6.523z"/><path fill="#185273" d="M183.628 73.155a2.414 2.414 0 0 1-2.359-2.937c.075-.337 7.314-33.809-5.095-49.271-4.153-5.174-9.932-7.689-17.669-7.689-35.648 0-36.825 56.94-36.832 57.515-.018 1.333-1.14 2.397-2.447 2.381a2.412 2.412 0 0 1-2.381-2.446c.009-.626.265-15.524 5.332-30.681 6.911-20.67 19.473-31.596 36.328-31.596 9.169 0 16.382 3.196 21.439 9.501 13.853 17.273 6.363 51.869 6.038 53.333a2.415 2.415 0 0 1-2.354 1.89z"/><path fill="url(#n)" d="M174.086 280.94H11.203L41.866 48.865h152.155z"/><path fill="#0e2c3e" d="M72.709 62.81a5.185 5.185 0 1 1 10.37 0 5.185 5.185 0 0 1-10.37 0zm64.366 0a5.185 5.185 0 1 1 10.37 0 5.185 5.185 0 0 1-10.37 0z"/><path fill="#185273" d="M142.263 65.224a2.413 2.413 0 0 1-2.359-2.937c.074-.337 7.313-33.809-5.096-49.271-4.152-5.174-9.932-7.689-17.668-7.689-35.648 0-36.825 56.94-36.833 57.516-.017 1.332-1.097 2.417-2.446 2.381a2.414 2.414 0 0 1-2.381-2.446c.008-.627.264-15.525 5.332-30.682C87.723 11.426 100.285.5 117.14.5c9.169 0 16.382 3.196 21.438 9.501 13.854 17.273 6.364 51.869 6.038 53.333a2.413 2.413 0 0 1-2.353 1.89z"/><path fill="#fff" d="M174.086 280.94h75.183L226.406 55.12l-14.46 2.505-17.925-8.761z"/><path fill="#e2e8f0" d="M211.946 57.625l-.268 223.316h-37.592L194.02 49.13z"/><path fill="#da3e45" d="M130.575 134.476h-17.62l2.339-17.62h-17.62l-2.338 17.62h-17.62l-2.338 17.62h17.62l-2.339 17.619h17.62l2.338-17.62h17.62z"/><path fill="url(#o)" d="M179.775 168.123h-13.76v112.828h13.76c31.157 0 56.414-25.257 56.414-56.414 0-31.156-25.257-56.414-56.414-56.414z"/><path fill="#e6e6e6" d="M153.054 279.442c-30.323-7.158-49.102-37.543-41.944-67.866 7.159-30.323 37.543-49.102 67.866-41.944 30.324 7.159 49.102 37.543 41.944 67.866-7.158 30.324-37.543 49.102-67.866 41.944z"/><path fill="#fff" d="M154.278 274.26c-27.461-6.483-44.467-34-37.985-61.46 6.483-27.461 34-44.467 61.46-37.985 27.46 6.483 44.467 34 37.984 61.46-6.482 27.46-33.999 44.467-61.46 37.984z"/><path fill="#e6e6e6" d="M137.912 268.506a4.752 4.752 0 0 1-3.859-7.517l56.201-78.437a4.751 4.751 0 0 1 7.724 5.534l-56.202 78.438a4.743 4.743 0 0 1-3.864 1.982z"/><path fill="#c1c6cc" d="M135.389 263.662l56.201-78.438a4.752 4.752 0 0 1 6.629-1.095c.218.157.41.337.592.521a4.726 4.726 0 0 0-1.928-3.193 4.751 4.751 0 0 0-6.629 1.095l-56.201 78.437a4.743 4.743 0 0 0 .503 6.108 4.727 4.727 0 0 1 .833-3.435z"/><path fill="#ff4d55" d="M281.501 231.131h38.086c-7.958 0-14.41 11.165-14.41 24.947s6.452 24.951 14.41 24.951h-38.086c-13.782 0-24.949-11.169-24.949-24.951s11.167-24.947 24.949-24.947z"/><path fill="#13425c" d="M271.671 240.452a6.423 6.423 0 0 0 6.422 6.423h28.101c1.267-5.528 3.642-10.083 6.651-12.846h-34.752a6.423 6.423 0 0 0-6.422 6.423z"/><path fill="#cc383f" d="M305.119 257.494H271.74s-4.6 0-8.688-3.791c-4.081-3.785-2.971-10.402-2.967-10.426l-.031.055c-.222.387-.431.762-.633 1.129a24.854 24.854 0 0 0-2.825 13.033h-.002c.735 13.121 11.6 23.535 24.907 23.535h38.005c-7.686 0-13.963-10.414-14.387-23.535z"/><path fill="#cc383f" d="M319.506 231.128c7.957 0 14.41 11.168 14.41 24.95 0 13.781-6.453 24.951-14.41 24.951-7.96 0-14.412-11.17-14.412-24.951 0-13.782 6.452-24.95 14.412-24.95z"/><path fill="#d1efef" d="M272.251 239.666c.724.913 2.763.5 4.558-.924 1.794-1.422 2.661-3.314 1.937-4.228-.723-.913-2.763-.498-4.557.922-1.795 1.423-2.662 3.316-1.938 4.23z"/><path fill="#fff" d="M352.223 231.802h-31.812c-7.742 0-14.02 10.865-14.02 24.276s6.278 24.278 14.02 24.278h31.812c13.402 0 24.278-10.867 24.278-24.278 0-13.411-10.876-24.276-24.278-24.276z"/><path fill="#d1efef" d="M374.16 266.483c.194-.41.376-.828.548-1.251.049-.12.095-.243.142-.365a23.292 23.292 0 0 0 .486-1.367c.101-.317.196-.638.285-.961.034-.124.073-.246.105-.371.108-.418.202-.839.289-1.263.037-.184.066-.368.1-.552a21.447 21.447 0 0 0 .288-2.216c.017-.205.039-.409.051-.616l.001-.027h-.001c.028-.468.047-.94.047-1.416 0-7.163-3.106-13.6-8.041-18.044 0 0 3.318 3.661.326 10.979-2.992 7.321-15.053 8.481-20.17 8.481h-42.201c.424 12.751 6.528 22.862 13.996 22.862h31.812c9.144 0 17.104-5.06 21.243-12.535h.006c.023-.04.042-.083.065-.124.206-.38.407-.765.594-1.158l.028-.056z"/><path fill="#e0e4e6" d="M390.948 282.637H1.159a.846.846 0 1 1 0-1.693h389.789a.847.847 0 0 1 0 1.693z"/><path fill="url(#p)" d="M207.788 293.146h-38.283a.805.805 0 0 1 0-1.609h38.283a.804.804 0 1 1 0 1.609z"/><path fill="url(#q)" d="M141.691 291.537h38.283a.805.805 0 1 1 0 1.609h-38.283a.805.805 0 0 1 0-1.609z"/><path fill="#13425c" d="M188.381 234.245v-4.263h-24.869v4.28c-2.788.766-5.055 3.062-5.055 5.864v45.491c0 2.835 2.32 5.893 5.156 5.893h24.727c2.836 0 5.156-3.058 5.156-5.893v-45.491c0-2.823-2.298-5.132-5.115-5.881z"/><path fill="#fff" d="M165.559 240.85c-.709 1.572-2.312 2.382-3.581 1.81-1.268-.574-1.719-2.312-1.01-3.884.712-1.573 2.315-2.382 3.582-1.809 1.268.573 1.72 2.31 1.009 3.883z" opacity=".1"/><path fill="#0e2c3e" d="M190.49 285.617v-45.491c0-2.823-2.299-5.132-5.116-5.881v-4.263h-7.519v4.263c2.816.749 5.115 3.058 5.115 5.881v45.491c0 2.835-2.32 5.893-5.157 5.893h7.52c2.836 0 5.157-3.058 5.157-5.893z"/><path fill="#0e2c3e" d="M168.09 281.275V248.16h25.406v33.115z"/><path fill="url(#r)" d="M168.09 280.648v-33.115h25.406v33.115z"/><path fill="#0e2c3e" d="M163.512 234.262v-2.51h24.869v2.51z"/><path fill="url(#s)" d="M186.73 272.336v-16.319h6.766v16.32z"/><path fill="url(#t)" d="M170.124 277.976v-5.18h5.18v5.18z"/><path fill="url(#u)" d="M170.124 263.068v-1.412h11.786v1.412z"/><path fill="url(#v)" d="M170.124 265.59v-1.413h5.18v1.412z"/><path fill="url(#w)" d="M176.73 265.59v-1.413h5.18v1.412z"/><path fill="url(#x)" d="M170.124 268.1v-1.413h2.59v1.413z"/><path fill="url(#y)" d="M173.47 268.1v-1.413h8.44v1.413z"/><path fill="url(#z)" d="M170.124 270.569v-1.413h5.18v1.413z"/><path fill="url(#A)" d="M176.73 270.569v-1.413h5.18v1.413z"/><path fill="url(#B)" d="M170.124 260.324v-3.533h11.786v3.533z"/><path fill="#d1efef" d="M182.97 280.648v-33.115h7.52v33.115z"/><path fill="#fff" d="M161.79 231.751a1.642 1.642 0 0 1-1.642-1.642v-1.906c0-.906.735-1.641 1.641-1.641h28.385c.906 0 1.64.734 1.64 1.64v1.908c0 .906-.735 1.641-1.641 1.641zm-1.711-6.827v-6.569a2.47 2.47 0 0 1 2.461-2.463h26.812a2.472 2.472 0 0 1 2.462 2.463v6.569z"/><path fill="#0e2c3e" d="M163.512 226.562v-1.638h24.869v1.638z"/><path fill="#d1efef" d="M182.97 228.203v1.907c0 .833-.634 1.521-1.443 1.62h6.192c.903 0 1.641-.739 1.641-1.64v-1.908a1.64 1.64 0 0 0-1.443-1.62h-6.589c.903 0 1.642.738 1.642 1.641zm0-9.848v6.548h6.39v-6.568a2.465 2.465 0 0 0-2.263-2.443h-6.59a2.472 2.472 0 0 1 2.463 2.463z"/><path fill="url(#C)" d="M161.788 219.058a.793.793 0 0 0-.793.793v5.073h1.586v-5.073a.793.793 0 0 0-.793-.793z"/><path fill="url(#D)" d="M164.626 219.058a.793.793 0 0 0-.793.793v5.073h1.586v-5.073a.793.793 0 0 0-.793-.793z"/><path fill="url(#E)" d="M167.464 219.058a.793.793 0 0 0-.794.793v5.073h1.586v-5.073a.793.793 0 0 0-.792-.793z"/><path fill="url(#F)" d="M170.301 219.058a.793.793 0 0 0-.793.793v5.073h1.586v-5.073a.793.793 0 0 0-.793-.793z"/><path fill="url(#G)" d="M173.139 219.058a.793.793 0 0 0-.793.793v5.073h1.586v-5.073a.793.793 0 0 0-.793-.793z"/><path fill="url(#H)" d="M175.977 219.058a.793.793 0 0 0-.793.793v5.073h1.586v-5.073a.793.793 0 0 0-.793-.793z"/><path fill="url(#I)" d="M178.814 219.058a.793.793 0 0 0-.793.793v5.073h1.586v-5.073a.793.793 0 0 0-.793-.793z"/><path fill="url(#J)" d="M181.652 219.058a.793.793 0 0 0-.793.793v5.073h1.586v-5.073a.793.793 0 0 0-.793-.793z"/><path fill="url(#K)" d="M184.49 219.058a.793.793 0 0 0-.793.793v5.073h1.586v-5.073a.793.793 0 0 0-.793-.793z"/><path fill="url(#L)" d="M187.328 219.058a.793.793 0 0 0-.793.793v5.073h1.585v-5.073a.793.793 0 0 0-.792-.793z"/><path fill="url(#M)" d="M190.165 219.058a.793.793 0 0 0-.793.793v5.073h1.586v-5.073a.793.793 0 0 0-.793-.793z"/><path d="M235.464 132.122a4 4 0 0 1 4-4h40.794a4 4 0 0 1 4 4v70.069a4 4 0 0 1-4 4h-40.794a4 4 0 0 1-4-4z" opacity=".1"/><path fill="#dde2e9" d="M235.464 135.763a4 4 0 0 1 4-4h40.794a4 4 0 0 1 4 4v70.07a4 4 0 0 1-4 4h-40.794a4 4 0 0 1-4-4z"/><path fill="#d2d7de" d="M265.228 195.194a5.855 5.855 0 1 1 11.71 0 5.855 5.855 0 0 1-11.71 0zm-24.396 0a5.855 5.855 0 1 1 11.71 0 5.855 5.855 0 0 1-11.71 0zm24.396-46.841a5.855 5.855 0 1 1 11.71 0 5.855 5.855 0 0 1-11.71 0zm-24.396 0a5.855 5.855 0 1 1 11.71 0 5.855 5.855 0 0 1-11.71 0zm24.396 23.42a5.855 5.855 0 1 1 11.71 0 5.855 5.855 0 0 1-11.71 0zm-24.396 0a5.855 5.855 0 1 1 11.71 0 5.855 5.855 0 0 1-11.71 0z"/><path fill="#fff" d="M266.204 194.218a5.855 5.855 0 1 1 11.71 0 5.855 5.855 0 0 1-11.71 0zm-24.396 0a5.855 5.855 0 1 1 11.71 0 5.855 5.855 0 0 1-11.71 0zm24.396-46.841a5.855 5.855 0 1 1 11.71 0 5.855 5.855 0 0 1-11.71 0zm-24.396 0a5.855 5.855 0 1 1 11.71 0 5.855 5.855 0 0 1-11.71 0zm24.396 23.421a5.855 5.855 0 1 1 11.71 0 5.855 5.855 0 0 1-11.71 0zm-24.396 0a5.855 5.855 0 1 1 11.71 0 5.855 5.855 0 0 1-11.71 0z"/><path fill="#d2d7de" d="M257.91 200.561V142.01a.976.976 0 1 1 1.951 0v58.551a.976.976 0 0 1-1.952 0z"/><path fill="#fff" d="M258.641 200.073v-58.551a.976.976 0 0 1 1.952 0v58.551a.976.976 0 0 1-1.952 0z"/><path d="M235.464 153.97a4 4 0 0 1 4-4h37.152a4 4 0 0 1 4 4v70.068a4 4 0 0 1-4 4h-37.152a4 4 0 0 1-4-4z" opacity=".1"/><path fill="#dde2e9" d="M228.182 157.61a4 4 0 0 1 4-4h40.793a4 4 0 0 1 4 4v70.07a4 4 0 0 1-4 4h-40.793a4 4 0 0 1-4-4z"/><path fill="#d2d7de" d="M257.946 217.042a5.855 5.855 0 1 1 11.71 0 5.855 5.855 0 0 1-11.71 0zm-24.396 0a5.855 5.855 0 1 1 11.71 0 5.855 5.855 0 0 1-11.71 0zm24.396-46.842a5.855 5.855 0 1 1 11.71 0 5.855 5.855 0 0 1-11.71 0zm-24.396 0a5.855 5.855 0 1 1 11.71 0 5.855 5.855 0 0 1-11.71 0zm24.396 23.421a5.855 5.855 0 1 1 11.71 0 5.855 5.855 0 0 1-11.71 0zm-24.396 0a5.855 5.855 0 1 1 11.71 0 5.855 5.855 0 0 1-11.71 0z"/><path fill="#fff" d="M258.922 216.066a5.855 5.855 0 1 1 11.71 0 5.855 5.855 0 0 1-11.71 0zm-24.397 0a5.855 5.855 0 1 1 11.71 0 5.855 5.855 0 0 1-11.71 0zm24.397-46.841a5.855 5.855 0 1 1 11.71 0 5.855 5.855 0 0 1-11.71 0zm-24.397 0a5.855 5.855 0 1 1 11.71 0 5.855 5.855 0 0 1-11.71 0zm24.397 23.42a5.855 5.855 0 1 1 11.71 0 5.855 5.855 0 0 1-11.71 0zm-24.397 0a5.855 5.855 0 1 1 11.71 0 5.855 5.855 0 0 1-11.71 0z"/><path fill="#d2d7de" d="M250.627 222.409v-58.552a.976.976 0 0 1 1.951 0v58.552a.976.976 0 1 1-1.951 0z"/><path fill="#fff" d="M251.359 221.921v-58.552a.975.975 0 1 1 1.951 0v58.552a.976.976 0 0 1-1.951 0z"/><path d="M228.182 175.817a4 4 0 0 1 4-4h37.152a4 4 0 0 1 4 4v70.07a4 4 0 0 1-4 4h-37.152a4 4 0 0 1-4-4z" opacity=".1"/><path fill="#dde2e9" d="M220.9 179.458a4 4 0 0 1 4-4h40.792a4 4 0 0 1 4 4v70.07a4 4 0 0 1-4 4H224.9a4 4 0 0 1-4-4z"/><path fill="#d2d7de" d="M250.663 238.89a5.855 5.855 0 1 1 11.71 0 5.855 5.855 0 0 1-11.71 0zm-24.397 0a5.855 5.855 0 1 1 11.71 0 5.855 5.855 0 0 1-11.71 0zm24.397-46.842a5.855 5.855 0 1 1 11.71 0 5.855 5.855 0 0 1-11.71 0zm-24.397 0a5.855 5.855 0 1 1 11.71 0 5.855 5.855 0 0 1-11.71 0zm24.397 23.421a5.855 5.855 0 1 1 11.71 0 5.855 5.855 0 0 1-11.71 0zm-24.397 0a5.855 5.855 0 1 1 11.71 0 5.855 5.855 0 0 1-11.71 0z"/><path fill="#fff" d="M251.639 237.914a5.855 5.855 0 1 1 11.71 0 5.855 5.855 0 0 1-11.71 0zm-24.397 0a5.855 5.855 0 1 1 11.71 0 5.855 5.855 0 0 1-11.71 0zm24.397-46.842a5.855 5.855 0 1 1 11.71 0 5.855 5.855 0 0 1-11.71 0zm-24.397 0a5.855 5.855 0 1 1 11.71 0 5.855 5.855 0 0 1-11.71 0zm24.397 23.421a5.855 5.855 0 1 1 11.71 0 5.855 5.855 0 0 1-11.71 0zm-24.397 0a5.855 5.855 0 1 1 11.71 0 5.855 5.855 0 0 1-11.71 0z"/><path fill="#d2d7de" d="M243.344 244.257v-58.552a.976.976 0 0 1 1.952 0v58.552a.976.976 0 0 1-1.952 0z"/><path fill="#fff" d="M244.076 243.769v-58.552a.976.976 0 1 1 1.952 0v58.552a.976.976 0 0 1-1.952 0z"/><path fill="url(#N)" d="M316.508 291.501h-38.282a.806.806 0 0 1 0-1.609h38.282a.804.804 0 1 1 0 1.609z"/><path fill="#fff" d="M216.316 291.5v-97.314h54.619V291.5z"/><path fill="#d1efef" d="M289.126 194.186V291.5h-18.19v-97.315z"/><path fill="url(#O)" d="M216.316 291.5v-35.049h54.619v35.05z"/><path fill="#438376" d="M289.126 256.451v35.05h-18.19v-35.05z"/><path fill="url(#P)" d="M216.316 253.393v-5.35h54.619v5.35z"/><path fill="#438376" d="M289.126 248.042v5.351h-18.19v-5.35z"/><path fill="#d1efef" d="M255.622 201.214h-23.993a2.45 2.45 0 1 0 0 4.899h23.993a2.45 2.45 0 0 0 0-4.899zm-4.02 8.465h-15.953a1.63 1.63 0 0 0 0 3.258h15.953a1.629 1.629 0 0 0 0-3.258z"/><path fill="#ff4d55" d="M237.569 291.765h6.668c-1.393 0-2.523 1.955-2.523 4.367 0 2.413 1.13 4.368 2.523 4.368h-6.668a4.367 4.367 0 0 1 0-8.735z"/><path fill="#13425c" d="M235.848 293.397c0 .621.504 1.124 1.125 1.124h4.919c.222-.968.638-1.765 1.164-2.249h-6.083c-.621 0-1.125.504-1.125 1.125z"/><path fill="#cc383f" d="M241.704 296.38h-5.843s-.806 0-1.521-.664c-.715-.662-.52-1.821-.52-1.825l-.005.01a4.356 4.356 0 0 0-.605 2.479h-.001a4.368 4.368 0 0 0 4.36 4.12h6.653c-1.345 0-2.444-1.823-2.518-4.12z"/><path fill="#cc383f" d="M244.222 291.764c1.393 0 2.523 1.956 2.523 4.368 0 2.413-1.13 4.368-2.523 4.368-1.393 0-2.522-1.955-2.522-4.368 0-2.412 1.129-4.368 2.522-4.368z"/><path fill="#d1efef" d="M235.95 293.259c.127.16.484.088.798-.162.314-.249.466-.58.339-.74-.126-.16-.484-.087-.798.162-.314.249-.466.58-.339.74z"/><path fill="#fff" d="M249.95 291.882h-5.569c-1.355 0-2.454 1.902-2.454 4.25s1.099 4.25 2.454 4.25h5.569a4.25 4.25 0 0 0 0-8.5z"/><path fill="#d1efef" d="M253.79 297.954a4.32 4.32 0 0 0 .096-.219l.025-.064.059-.161.026-.079c.018-.055.034-.111.05-.168.006-.021.013-.043.018-.065a4.16 4.16 0 0 0 .051-.221l.017-.096c.009-.047.016-.094.023-.141l.015-.11.013-.137.009-.108v-.005a4.24 4.24 0 0 0-1.4-3.407s.581.641.057 1.922c-.523 1.282-2.635 1.485-3.53 1.485h-7.388c.074 2.232 1.143 4.002 2.45 4.002h5.569a4.248 4.248 0 0 0 3.719-2.194h.001l.011-.022c.036-.066.07-.134.104-.202z"/><path fill="#ff4d55" d="M225.265 290.184l5.669-3.509c-1.184.733-1.116 2.989.154 5.041 1.27 2.051 3.259 3.12 4.443 2.386l-5.669 3.509a4.367 4.367 0 1 1-4.597-7.427z"/><path fill="#13425c" d="M224.66 292.477c.327.528 1.02.691 1.548.364l4.183-2.589c-.321-.939-.387-1.836-.193-2.525l-5.173 3.202a1.125 1.125 0 0 0-.365 1.548z"/><path fill="#cc383f" d="M231.209 291.932l-4.968 3.075s-.685.424-1.643.236c-.956-.187-1.4-1.274-1.402-1.278l.001.011c.002.078.006.153.009.226a4.354 4.354 0 0 0 .781 2.201h-.001a4.368 4.368 0 0 0 5.876 1.208l5.657-3.501c-1.144.708-3.038-.264-4.31-2.178z"/><path fill="#cc383f" d="M230.922 286.682c1.184-.733 3.174.335 4.444 2.386 1.269 2.051 1.338 4.309.153 5.042-1.184.733-3.174-.335-4.444-2.386-1.269-2.052-1.338-4.309-.153-5.042z"/><path fill="#d1efef" d="M224.674 292.307c.192.069.458-.181.594-.558.136-.377.091-.739-.101-.808-.192-.069-.458.181-.594.557-.136.377-.09.739.1.809z"/><path fill="#fff" d="M235.854 283.768l-4.735 2.931c-1.153.713-1.086 2.909.149 4.905 1.236 1.996 3.172 3.036 4.324 2.322l4.735-2.931a4.25 4.25 0 1 0-4.473-7.227z"/><path fill="#d1efef" d="M242.315 286.909a4.79 4.79 0 0 0-.034-.237l-.013-.067a3.042 3.042 0 0 0-.034-.167l-.019-.081a4.3 4.3 0 0 0-.046-.169l-.019-.065a3.86 3.86 0 0 0-.073-.215l-.036-.091-.054-.132-.046-.101a4.806 4.806 0 0 0-.061-.124c-.017-.032-.032-.064-.05-.096l-.002-.004a4.235 4.235 0 0 0-2.983-2.16s.831.239 1.06 1.604c.229 1.365-1.459 2.649-2.221 3.12l-2.192 1.357-4.09 2.532c1.238 1.859 3.078 2.801 4.19 2.113l.359-.222 4.376-2.709a4.246 4.246 0 0 0 2.008-3.823h.001l-.002-.025a4.536 4.536 0 0 0-.018-.227z"/><path fill="#ff4d55" d="M210.26 291.765h6.667c-1.393 0-2.523 1.955-2.523 4.367 0 2.413 1.13 4.368 2.523 4.368h-6.667a4.367 4.367 0 1 1 0-8.735z"/><path fill="#13425c" d="M208.539 293.397c0 .621.503 1.124 1.124 1.124h4.919c.222-.968.638-1.765 1.165-2.249h-6.084c-.621 0-1.124.504-1.124 1.125z"/><path fill="#cc383f" d="M214.394 296.38h-5.843s-.805 0-1.521-.664c-.714-.662-.52-1.821-.519-1.825l-.006.01c-.04.068-.075.133-.111.197a4.354 4.354 0 0 0-.494 2.282 4.366 4.366 0 0 0 4.36 4.12h6.653c-1.345 0-2.444-1.823-2.519-4.12z"/><path fill="#cc383f" d="M216.913 291.764c1.393 0 2.523 1.956 2.523 4.368 0 2.413-1.13 4.368-2.523 4.368-1.394 0-2.523-1.955-2.523-4.368 0-2.412 1.129-4.368 2.523-4.368z"/><path fill="#d1efef" d="M208.64 293.259c.127.16.484.088.798-.162.314-.249.466-.58.34-.74-.127-.16-.484-.087-.798.162-.314.249-.466.58-.34.74z"/><path fill="#fff" d="M222.64 291.882h-5.569c-1.355 0-2.454 1.902-2.454 4.25s1.099 4.25 2.454 4.25h5.569a4.25 4.25 0 1 0 0-8.5z"/><path fill="#d1efef" d="M226.48 297.954c.035-.072.066-.145.097-.219l.024-.064c.021-.053.041-.107.059-.161l.026-.079c.018-.055.035-.111.05-.168l.019-.065c.02-.073.035-.147.05-.221l.018-.096a6.265 6.265 0 0 0 .037-.251 6.54 6.54 0 0 0 .013-.137l.009-.108v-.005a4.239 4.239 0 0 0-1.399-3.407s.581.641.057 1.922c-.524 1.282-2.635 1.485-3.531 1.485h-7.388c.074 2.232 1.143 4.002 2.45 4.002h5.569a4.247 4.247 0 0 0 3.719-2.194h.001l.012-.022c.036-.066.071-.134.103-.202z"/><path fill="url(#Q)" d="M174.16 300.119h-67.707a.805.805 0 0 1 0-1.609h67.707a.804.804 0 1 1 0 1.609z"/><path fill="url(#R)" d="M37.292 298.51h67.707a.804.804 0 0 1 0 1.609H37.292a.805.805 0 0 1 0-1.609z"/><path fill="url(#S)" d="M136.388 200.64H81.913c0 15.825-11.581 8.6-11.581 33.501v51.474c0 10.937 2.359 12.868 8.579 12.868h60.48c6.22 0 8.579-1.931 8.579-12.868v-51.474c0-24.901-11.582-17.676-11.582-33.501z"/><path fill="url(#T)" d="M136.388 200.64H81.913c0 2.461-.28 4.365-.753 5.918h40.314c5.633 4.902 11.582 8.601 11.582 33.502v51.473c0 2.913-.17 5.181-.532 6.95h6.867c6.22 0 8.579-1.931 8.579-12.868v-51.474c0-24.901-11.582-17.676-11.582-33.501z"/><path fill="#fff" d="M124.855 232.915H70.332v50.123h54.523a4.75 4.75 0 0 0 4.751-4.751v-40.621a4.75 4.75 0 0 0-4.751-4.751z"/><path fill="#13425c" d="M74.875 257.604c0-8.75 6.044-15.842 13.499-15.842 7.456 0 13.5 7.092 13.5 15.842 0 8.749-6.044 15.842-13.5 15.842-7.455 0-13.5-7.093-13.5-15.842z"/><path fill="#fff" d="M84.839 223.213c-2.461 2.8-5.976 3.734-7.852 2.086-1.876-1.649-1.402-5.255 1.059-8.055 2.46-2.8 5.976-3.733 7.851-2.085 1.876 1.649 1.402 5.255-1.058 8.054z" opacity=".2"/><path fill="#dfffff" d="M96.071 257.55H80.677c-.773 0-1.399-.72-1.399-1.609s.626-1.609 1.399-1.609h15.394c.773 0 1.399.72 1.399 1.609s-.626 1.609-1.399 1.609zm0 3.218H80.677c-.258 0-.466-.24-.466-.537 0-.296.208-.536.466-.536h15.394c.258 0 .466.24.466.536 0 .297-.208.537-.466.537z"/><path fill="#13425c" d="M79.26 199.434a3.236 3.236 0 0 1-3.236-3.236v-10.147a3.235 3.235 0 0 1 3.235-3.236h59.303a3.236 3.236 0 0 1 3.236 3.236V196.2a3.234 3.234 0 0 1-3.234 3.234z"/><path fill="#0e2c3e" d="M88.856 196.273v-10.149a3.245 3.245 0 0 1 3.235-3.234H81.536a3.245 3.245 0 0 0-3.236 3.234v10.149a3.245 3.245 0 0 0 2.558 3.161h10.557a3.243 3.243 0 0 1-2.559-3.161zm49.706-13.458h-21.149a3.244 3.244 0 0 1 3.236 3.235v10.149a3.243 3.243 0 0 1-3.236 3.235h21.149a3.243 3.243 0 0 0 3.236-3.235V186.05a3.245 3.245 0 0 0-3.236-3.235z"/><path fill="#992d32" d="M81.913 200.64v-1.206h54.504v1.206z"/></svg>