<svg xmlns="http://www.w3.org/2000/svg" width="147" height="25" viewBox="0 0 147 25"><defs><clipPath id="a"><path fill="#fff" d="M134.13 20.116l-7.798 4.1 1.49-8.684-6.31-6.149 8.719-1.267 3.899-7.9 3.899 7.9 8.718 1.267-6.308 6.15 1.489 8.683z"/></clipPath><clipPath id="b"><path fill="#fff" d="M103.752 20.116l-7.798 4.1 1.49-8.684-6.31-6.149 8.719-1.267 3.899-7.9 3.899 7.9 8.718 1.267-6.308 6.15 1.489 8.683z"/></clipPath></defs><path fill="#fff" d="M134.13 20.116l-7.798 4.1 1.49-8.684-6.31-6.149 8.719-1.267 3.899-7.9 3.899 7.9 8.718 1.267-6.308 6.15 1.489 8.683z"/><path fill="none" stroke="#e7eaeb" stroke-miterlimit="20" stroke-width="2" d="M134.13 20.116l-7.798 4.1 1.49-8.684-6.31-6.149 8.719-1.267 3.899-7.9 3.899 7.9 8.718 1.267-6.308 6.15 1.489 8.683z" clip-path="url(&quot;#a&quot;)"/><path fill="#fff" d="M103.752 20.116l-7.798 4.1 1.49-8.684-6.31-6.149 8.719-1.267 3.899-7.9 3.899 7.9 8.718 1.267-6.308 6.15 1.489 8.683z"/><path fill="none" stroke="#e7eaeb" stroke-miterlimit="20" stroke-width="2" d="M103.752 20.116l-7.798 4.1 1.49-8.684-6.31-6.149 8.719-1.267 3.899-7.9 3.899 7.9 8.718 1.267-6.308 6.15 1.489 8.683z" clip-path="url(&quot;#b&quot;)"/><path fill="#fad04f" d="M73.374 20.116l-7.798 4.1 1.49-8.684-6.31-6.149 8.719-1.267 3.899-7.9 3.899 7.9 8.718 1.267-6.308 6.15 1.489 8.683zm-30.378 0l-7.798 4.1 1.49-8.684-6.31-6.149 8.719-1.267 3.899-7.9 3.899 7.9 8.719 1.267-6.31 6.15 1.49 8.683zm-30.378 0l-7.798 4.1 1.49-8.684L0 9.383l8.72-1.267 3.899-7.9 3.9 7.9 8.718 1.267-6.31 6.15 1.49 8.683z"/></svg>