<svg xmlns="http://www.w3.org/2000/svg" width="98" height="16" viewBox="0 0 98 16"><path fill="#fad04f" d="M8.412 13.237L3.213 15.97l.993-5.79L0 6.082l5.813-.844 2.6-5.267 2.599 5.267 5.812.844-4.206 4.1.993 5.789zm20.252 0l-5.199 2.733.993-5.79-4.206-4.099 5.813-.844 2.6-5.267 2.599 5.267 5.812.844-4.206 4.1.993 5.789zm20.252 0l-5.199 2.733.993-5.79-4.206-4.099 5.813-.844 2.6-5.267 2.598 5.267 5.813.844-4.206 4.1.993 5.789zm20.252 0L63.97 15.97l.993-5.79-4.206-4.099 5.813-.844 2.6-5.267 2.598 5.267 5.813.844-4.206 4.1.993 5.789zm20.252 0l-5.199 2.733.993-5.79-4.206-4.099 5.813-.844L89.42-.03l2.6 5.267 5.812.844-4.206 4.1.993 5.789z"/></svg>