<svg xmlns="http://www.w3.org/2000/svg" width="16" height="14" viewBox="0 0 16 14"><path fill="#6c8999" d="M6.204 11.778L5.19 8.23a.684.684 0 0 0-.024-.07c-.096-.235.009-.506.223-.644L14.531.997 6.894 8.634l-.618 3.229a.127.127 0 0 1-.072-.085zM15.149.44a.676.676 0 0 0-.679-.117L.608 5.521a.677.677 0 0 0-.442.639c0 .287.174.537.442.638l3.974 1.49c.04.016.072.049.083.09l1.015 3.55a.675.675 0 0 0 .531.483.676.676 0 0 0 .669-.261l1.19-1.586a.138.138 0 0 1 .094-.054.14.14 0 0 1 .104.032l3.672 3.148a.676.676 0 0 0 .669.126.676.676 0 0 0 .444-.516l2.326-12.21a.674.674 0 0 0-.23-.65z"/></svg>