<svg xmlns="http://www.w3.org/2000/svg" width="17" height="10" viewBox="0 0 17 10"><path fill="#6c8999" d="M1.011.514h2.142a.9.9 0 0 1 .839.573c.212.544.622 1.388.922 2.08.297.684.867 2.052 1.221 2.474a.3.3 0 0 0 .531-.193l-.032-3.883c0-.25-.051-.449-.281-.544-.213-.088-.47-.072-.47-.207 0-.25.633-.45 1.215-.45h1.79c.58 0 1.051.47 1.051 1.051v2.612c0 .557.692.814 1.056.393.261-.302.524-.647.728-1.005.488-.858.964-1.979 1.145-2.415a.298.298 0 0 1 .277-.186l2.911-.01c.717 0 .855.336.525.895a25.835 25.835 0 0 1-1.085 1.716c-.492.7-.929 1.267-1.297 1.78-.198.277-.198.645.064.862a12.5 12.5 0 0 1 1.402 1.379c.333.39.803.948 1.104 1.384a.45.45 0 0 1-.372.706h-3.008a.752.752 0 0 1-.512-.201l-2.03-1.89a.45.45 0 0 0-.758.329v1.064a.748.748 0 0 1-.736.75c-1.386.02-4.04.662-6.154-3.45C1.813 3.433.957 1.932.601 1.152a.45.45 0 0 1 .41-.638z"/></svg>