<svg width="28" height="20" viewBox="0 0 28 20" xmlns="http://www.w3.org/2000/svg" xmlns:xlink="http://www.w3.org/1999/xlink"><title>gb</title><defs><rect id="a" width="28" height="20" rx="2"/><rect id="c" width="28" height="20" rx="2"/><rect id="e" width="28" height="20" rx="2"/><rect id="g" width="28" height="20" rx="2"/><rect id="i" width="28" height="20" rx="2"/><rect id="k" width="28" height="20" rx="2"/><rect id="m" width="28" height="20" rx="2"/></defs><g fill="none" fill-rule="evenodd"><rect width="28" height="20" rx="2" fill="#FFF" fill-rule="nonzero"/><mask id="b" fill="#fff"><use xlink:href="#a"/></mask><path fill="#0A17A7" fill-rule="nonzero" mask="url(#b)" d="M0 0h28v20H0z"/><mask id="d" fill="#fff"><use xlink:href="#c"/></mask><path fill="#FFF" fill-rule="nonzero" mask="url(#d)" d="M6.674 13.333H0V6.667h6.674L-2.774.294l1.492-2.21 11.949 8.06v-7.477h6.666v7.476l11.95-8.06 1.49 2.211-9.447 6.373H28v6.666h-6.674l9.448 6.373-1.492 2.21-11.949-8.06v7.477h-6.666v-7.476l-11.95 8.06-1.49-2.211z"/><mask id="f" fill="#fff"><use xlink:href="#e"/></mask><path d="M18.668 6.332L31.333-2" stroke="#DB1F35" stroke-width=".667" stroke-linecap="round" mask="url(#f)"/><mask id="h" fill="#fff"><use xlink:href="#g"/></mask><path d="M20.013 21.35l11.354-7.652" stroke="#DB1F35" stroke-width=".667" stroke-linecap="round" mask="url(#h)" transform="matrix(1 0 0 -1 0 35.048)"/><mask id="j" fill="#fff"><use xlink:href="#i"/></mask><path d="M8.006 6.31L-3.837-1.67" stroke="#DB1F35" stroke-width=".667" stroke-linecap="round" mask="url(#j)"/><mask id="l" fill="#fff"><use xlink:href="#k"/></mask><path d="M9.29 22.31l-13.127-8.705" stroke="#DB1F35" stroke-width=".667" stroke-linecap="round" mask="url(#l)" transform="matrix(1 0 0 -1 0 35.915)"/><mask id="n" fill="#fff"><use xlink:href="#m"/></mask><path fill="#E6273E" fill-rule="nonzero" mask="url(#n)" d="M0 12h12v8h4v-8h12V8H16V0h-4v8H0z"/></g></svg>