<svg width="88" height="55" viewBox="0 0 88 55" xmlns="http://www.w3.org/2000/svg"><title>Group</title><path d="M13.16 22.984v-5.745h3.337l3.923 5.745h6.548l-4.664-6.795c1.359-.66 2.404-1.57 3.135-2.734.73-1.163 1.096-2.528 1.096-4.093 0-1.626-.39-3.042-1.173-4.247-.783-1.204-1.895-2.13-3.336-2.78-1.442-.648-3.14-.973-5.097-.973H7.045v21.622h6.116zm3.399-10.471H13.16V6.181h3.398c1.256 0 2.203.278 2.841.834.639.556.958 1.338.958 2.347 0 1.01-.32 1.787-.958 2.332-.638.546-1.585.819-2.841.819zm18.944 10.471V1.362h-6.116v21.622h6.116zm14.62.432c1.977 0 3.759-.35 5.344-1.05 1.586-.7 2.904-1.709 3.954-3.027l-3.892-3.521c-1.4 1.689-3.1 2.533-5.097 2.533-1.173 0-2.218-.258-3.135-.772a5.36 5.36 0 0 1-2.131-2.178c-.505-.937-.757-2.013-.757-3.228 0-1.215.252-2.29.757-3.228a5.36 5.36 0 0 1 2.131-2.177c.917-.515 1.962-.772 3.135-.772 1.998 0 3.697.844 5.097 2.532l3.892-3.52c-1.05-1.319-2.368-2.328-3.954-3.028C53.882 1.28 52.1.93 50.123.93c-2.265 0-4.298.479-6.1 1.436-1.802.958-3.217 2.291-4.247 4-1.03 1.71-1.544 3.645-1.544 5.807 0 2.162.514 4.098 1.544 5.807 1.03 1.71 2.445 3.043 4.247 4 1.802.958 3.835 1.436 6.1 1.436zm17.617-.432v-8.432h8.34v8.432h6.116V1.362H76.08v8.124h-8.34V1.362h-6.116v21.622h6.116zM14.98 54.449c2.388 0 4.54-.423 6.456-1.27 1.916-.845 3.509-2.065 4.778-3.657l-4.703-4.255c-1.692 2.04-3.745 3.06-6.158 3.06-1.419 0-2.681-.31-3.789-.932a6.476 6.476 0 0 1-2.575-2.632c-.61-1.132-.914-2.432-.914-3.9s.304-2.768.914-3.9a6.476 6.476 0 0 1 2.575-2.631c1.108-.623 2.37-.934 3.789-.934 2.413 0 4.466 1.02 6.158 3.06l4.703-4.254c-1.27-1.592-2.862-2.812-4.778-3.658-1.916-.846-4.068-1.269-6.457-1.269-2.737 0-5.194.579-7.37 1.736-2.178 1.157-3.889 2.768-5.133 4.833C1.232 35.912.61 38.25.61 40.863c0 2.613.622 4.952 1.866 7.017 1.244 2.065 2.955 3.676 5.132 4.833 2.177 1.157 4.634 1.736 7.371 1.736zm21.325-.523V27.8h-7.39v26.126h7.39zm17.63 0V33.66h7.987V27.8H38.521v5.86h8.024v20.266h7.39zm23.528 0v-9.368L87.465 27.8H80.3l-6.195 10.376L67.908 27.8h-7.8l9.965 16.646v9.48h7.39z" fill="#9B9B9B"/></svg>