<svg width="68" height="42" viewBox="0 0 68 42" xmlns="http://www.w3.org/2000/svg"><title>Group 3</title><path d="M9.752 17.136v-4.464h2.592l3.048 4.464h5.088l-3.624-5.28c1.056-.512 1.868-1.22 2.436-2.124.568-.904.852-1.964.852-3.18 0-1.264-.304-2.364-.912-3.3-.608-.936-1.472-1.656-2.592-2.16C15.52.588 14.2.336 12.68.336H5v16.8h4.752zM12.392 9h-2.64V4.08h2.64c.976 0 1.712.216 2.208.648.496.432.744 1.04.744 1.824s-.248 1.388-.744 1.812c-.496.424-1.232.636-2.208.636zm14.72 8.136V.336H22.36v16.8h4.752zm11.36.336c1.536 0 2.92-.272 4.152-.816a7.988 7.988 0 0 0 3.072-2.352l-3.024-2.736c-1.088 1.312-2.408 1.968-3.96 1.968-.912 0-1.724-.2-2.436-.6a4.164 4.164 0 0 1-1.656-1.692c-.392-.728-.588-1.564-.588-2.508s.196-1.78.588-2.508a4.164 4.164 0 0 1 1.656-1.692c.712-.4 1.524-.6 2.436-.6 1.552 0 2.872.656 3.96 1.968l3.024-2.736A7.988 7.988 0 0 0 42.624.816C41.392.272 40.008 0 38.472 0c-1.76 0-3.34.372-4.74 1.116-1.4.744-2.5 1.78-3.3 3.108-.8 1.328-1.2 2.832-1.2 4.512 0 1.68.4 3.184 1.2 4.512a8.345 8.345 0 0 0 3.3 3.108c1.4.744 2.98 1.116 4.74 1.116zm13.688-.336v-6.552h6.48v6.552h4.752V.336H58.64v6.312h-6.48V.336h-4.752v16.8h4.752zM11.165 41.584c1.856 0 3.528-.329 5.017-.986a9.653 9.653 0 0 0 3.712-2.842L16.24 34.45c-1.315 1.585-2.91 2.378-4.785 2.378-1.102 0-2.083-.242-2.944-.725a5.032 5.032 0 0 1-2-2.044c-.474-.88-.711-1.89-.711-3.031 0-1.14.237-2.15.71-3.03a5.032 5.032 0 0 1 2.002-2.045c.86-.483 1.841-.725 2.943-.725 1.875 0 3.47.793 4.785 2.378l3.654-3.306a9.653 9.653 0 0 0-3.712-2.842c-1.489-.657-3.161-.986-5.017-.986-2.127 0-4.036.45-5.727 1.348-1.692.9-3.021 2.151-3.988 3.756C.483 27.181 0 28.998 0 31.028s.483 3.847 1.45 5.452 2.296 2.857 3.987 3.756c1.692.899 3.601 1.348 5.728 1.348zm16.57-.406v-20.3h-5.742v20.3h5.742zm13.699 0V25.431h6.206v-4.553H29.457v4.553h6.235v15.747h5.742zm18.28 0v-7.279l7.773-13.021h-5.568l-4.814 8.062-4.814-8.062H46.23l7.743 12.934v7.366h5.742z" fill="#FFF"/></svg>