<svg xmlns="http://www.w3.org/2000/svg" width="36" height="36" viewBox="0 0 36 36"><path fill="#fff" d="M20.7 13.5c0-1.985 1.612-3.6 3.6-3.6s3.6 1.608 3.6 3.6c0 1.985-1.612 3.6-3.6 3.6-1.98 0-3.592-1.615-3.6-3.6zm3.6 4.5c2.488 0 4.5-2.022 4.5-4.5S26.78 9 24.3 9s-4.5 2.022-4.5 4.5 2.02 4.5 4.5 4.5zm-13.5 9.9s-1.477-1.144-1.755-1.661c.408 1.212 1.077 1.891 1.755 2.561 2.084.549 4.302-.435 5.4-2.7.093-.793.1-1.892 0-2.7-.675-1.19-1.4-1.974-2.7-2.7-.559-.104-1.55-.088-2.7 0 .275.265 2.536 1.264 2.7.9 1.257.994 1.932 2.739.9 4.5-.16 1.29-1.79 2.004-3.6 1.8.39-.426 0 0 0 0zm-1.755-1.661A5.984 5.984 0 0 1 9 26.1c0 .038.016.085.045.139zM31.066 5.623c3.368.276-.35 3.994-.466 7.877.116 3.68-3.056 6.743-7.2 6.3.363.348-5.77 4.718-5.4 4.5-.247 3.2-2.62 5.552-5.4 5.4-2.533.152-4.602-1.611-5.4-3.6.314-.321-5.791-2.868-6.277-3.504C2.813 30.506 9.745 36 18 36c9.929 0 18-8.056 18-18 0-4.795-1.877-9.151-4.934-12.377zM.9 22.5c-.016.024-.008.056.023.096A18.466 18.466 0 0 1 .9 22.5zM24.3 6.3C21.018 2.837 23.141 0 18 0 8.5 0 .74 7.287 0 16.2c0 .356 9.66 4.348 9.9 4.5.69-.784 1.793-1.096 2.7-.9.218-.13 4.5-6.3 4.5-6.3s.015-.138 0 0c.015-3.876 3.063-6.924 7.2-7.2z"/></svg>