<svg xmlns="http://www.w3.org/2000/svg" width="36" height="36" viewBox="0 0 36 36"><path fill="#ffab00" d="M18 36c9.941 0 18-8.059 18-18S27.941 0 18 0 0 8.059 0 18s8.059 18 18 18z"/><path fill="#fff" d="M28 22.468h-3.184L24.265 19l-2.046 3.433H19l1.957 2.063-1.601 3.468 3.521-2.098L25.634 28l-.515-3.504"/><path fill="#040301" d="M19.794 28.225l1.67-3.513-2.019-2.101h3.323l2.094-3.495.569 3.531h3.305l-2.975 2.047.533 3.586-2.865-2.192zm-2.972-14.677h-3.118l.752-3.524h2.898c1.027 0 2.11.273 2.11 1.508 0 1.58-1.23 2.016-2.642 2.016M31 21.923h-4.97l-.79-4.89-2.897 4.854h-.55c-.33-.562-.459-1.377-.459-1.884 0-.833.055-1.648.055-2.716 0-1.413-.422-2.155-1.54-2.427v-.036c2.366-.326 3.448-1.884 3.448-4.057C23.297 7.67 21.206 7 18.473 7h-7.355L8 21.56h3.907l1.137-5.306h2.604c1.394 0 1.963.67 1.963 1.956 0 .978-.11 1.757-.11 2.5 0 .271.055.923.257 1.177l2.824 2.952L18.142 30l5.21-3.06 3.888 2.951-.715-4.871z"/></svg>