<svg width="48" height="48" viewBox="0 0 48 48" fill="none" xmlns="http://www.w3.org/2000/svg"><g opacity=".6" clip-path="url(#a)"><path d="M46.102 31.31a6.69 6.69 0 0 1-1.408 1.286v5.486h.686A2.618 2.618 0 0 0 48 35.486V28.86l-1.898 2.45z" fill="#65BF4F"/><path d="M46.102 31.31a6.69 6.69 0 0 1-1.408 1.286v5.486h.686A2.618 2.618 0 0 0 48 35.486V28.86l-1.898 2.45z" fill="#A1A75C"/><path d="M34.53 19.592h7.066c.208 0 .429-.025.649-.073v-7.005a2.6 2.6 0 0 0-2.608-2.596H2.62A2.618 2.618 0 0 0 0 12.514v28.078a2.65 2.65 0 0 0 2.62 2.633h37.017a2.631 2.631 0 0 0 2.608-2.633l-.012-7.114c-.208.024-.429.049-.65.06h-7.052c-3.845-.011-6.968-3.134-6.968-6.979a6.971 6.971 0 0 1 6.968-6.967z" fill="#65BF4F"/><path d="M34.53 19.592h7.066c.208 0 .429-.025.649-.073v-7.005a2.6 2.6 0 0 0-2.608-2.596H2.62A2.618 2.618 0 0 0 0 12.514v28.078a2.65 2.65 0 0 0 2.62 2.633h37.017a2.631 2.631 0 0 0 2.608-2.633l-.012-7.114c-.208.024-.429.049-.65.06h-7.052c-3.845-.011-6.968-3.134-6.968-6.979a6.971 6.971 0 0 1 6.968-6.967z" fill="#A1A75C"/><path d="M45.38 4.775H8.362a2.631 2.631 0 0 0-2.608 2.633v.061h33.881a5.048 5.048 0 0 1 5.058 5.045v5.119L48 13.37V7.408a2.65 2.65 0 0 0-2.62-2.633z" fill="#65BF4F"/><path d="M45.38 4.775H8.362a2.631 2.631 0 0 0-2.608 2.633v.061h33.881a5.048 5.048 0 0 1 5.058 5.045v5.119L48 13.37V7.408a2.65 2.65 0 0 0-2.62-2.633z" fill="#A1A75C"/><path d="M47.988 17.375l-1.898 2.45a5.696 5.696 0 0 1-2.07 1.665 5.587 5.587 0 0 1-2.436.55H34.53a4.533 4.533 0 0 0-4.519 4.531 4.533 4.533 0 0 0 4.519 4.531h7.065a3.296 3.296 0 0 0 2.571-1.274L48 24.858l-.012-7.483zm-10.715 10.42h-2.938a1.228 1.228 0 0 1-1.225-1.224c0-.673.551-1.224 1.225-1.224h2.938c.674 0 1.225.55 1.225 1.224 0 .674-.551 1.225-1.225 1.225z" fill="#65BF4F"/><path d="M47.988 17.375l-1.898 2.45a5.696 5.696 0 0 1-2.07 1.665 5.587 5.587 0 0 1-2.436.55H34.53a4.533 4.533 0 0 0-4.519 4.531 4.533 4.533 0 0 0 4.519 4.531h7.065a3.296 3.296 0 0 0 2.571-1.274L48 24.858l-.012-7.483zm-10.715 10.42h-2.938a1.228 1.228 0 0 1-1.225-1.224c0-.673.551-1.224 1.225-1.224h2.938c.674 0 1.225.55 1.225 1.224 0 .674-.551 1.225-1.225 1.225z" fill="#A1A75C"/></g><defs><clipPath id="a"><path fill="#fff" d="M0 0h48v48H0z"/></clipPath></defs></svg>