<svg width="48" height="48" viewBox="0 0 48 48" fill="none" xmlns="http://www.w3.org/2000/svg"><g opacity=".6"><path d="M23.828 6C14.002 6 6 14.002 6 23.828c0 9.827 8.002 17.829 17.828 17.829 9.827 0 17.829-8.002 17.829-17.829C41.657 14.002 33.654 6 23.828 6z" fill="#65BF4F"/><path d="M23.828 6C14.002 6 6 14.002 6 23.828c0 9.827 8.002 17.829 17.828 17.829 9.827 0 17.829-8.002 17.829-17.829C41.657 14.002 33.654 6 23.828 6z" fill="#A1A75C"/><path d="M17 25.786h3.095v3.141H17v1.945h3.095V35h2.482v-4.128h5.05v-1.945h-5.05v-3.14h3.065c4.993 0 7.358-2.454 7.358-5.834C33 16.693 31.277 14 25.438 14c-1.285 0-4.204.06-5.343.06v9.782H17v1.944zm8.672-9.393c3.24 0 4.7 1.257 4.7 3.74 0 2.512-1.81 3.709-4.817 3.709h-2.978v-7.389c.963-.03 2.277-.06 3.095-.06z" fill="#fff"/><path d="M24.006 0C10.773 0 0 10.773 0 24.006 0 37.238 10.773 48 24.006 48 37.238 48 48 37.227 48 23.994 48 10.762 37.238 0 24.006 0zm0 44.132c-11.108 0-20.138-9.03-20.138-20.138 0-11.108 9.03-20.137 20.138-20.137 11.108 0 20.137 9.03 20.137 20.137 0 11.108-9.03 20.138-20.137 20.138z" fill="#65BF4F"/><path d="M24.006 0C10.773 0 0 10.773 0 24.006 0 37.238 10.773 48 24.006 48 37.238 48 48 37.227 48 23.994 48 10.762 37.238 0 24.006 0zm0 44.132c-11.108 0-20.138-9.03-20.138-20.138 0-11.108 9.03-20.137 20.138-20.137 11.108 0 20.137 9.03 20.137 20.137 0 11.108-9.03 20.138-20.137 20.138z" fill="#A1A75C"/></g></svg>