<svg width="15" height="15" viewBox="0 0 15 15" fill="none" xmlns="http://www.w3.org/2000/svg"><path d="M5 7.5a2.5 2.5 0 1 1 5 0 2.5 2.5 0 0 1-5 0zm-1.351 0a3.851 3.851 0 1 0 7.702 0 3.851 3.851 0 0 0-7.702 0zm6.955-4.004a.9.9 0 1 0 .9-.9.9.9 0 0 0-.9.9zM4.47 13.605c-.731-.034-1.129-.155-1.393-.258-.35-.136-.6-.299-.862-.561a2.313 2.313 0 0 1-.561-.862c-.103-.264-.225-.662-.258-1.393-.037-.79-.044-1.028-.044-3.03 0-2.004.008-2.24.044-3.032.033-.731.156-1.128.258-1.393.136-.35.298-.6.56-.862.263-.263.513-.426.863-.561.264-.103.662-.225 1.393-.258.79-.037 1.028-.044 3.03-.044s2.24.008 3.031.044c.732.033 1.128.156 1.393.258.35.135.6.298.863.56.263.263.425.513.56.863.104.264.226.662.259 1.393.036.791.043 1.028.043 3.031s-.007 2.24-.043 3.031c-.033.731-.156 1.129-.258 1.393-.136.35-.299.6-.561.862a2.332 2.332 0 0 1-.863.56c-.264.104-.661.226-1.393.259-.79.036-1.028.043-3.03.043-2.004 0-2.24-.007-3.03-.043zM4.408.045c-.798.037-1.344.163-1.82.349a3.679 3.679 0 0 0-1.33.865 3.664 3.664 0 0 0-.864 1.328C.208 3.064.082 3.61.045 4.407.008 5.208 0 5.464 0 7.5s.008 2.292.045 3.092c.037.799.163 1.344.349 1.82.191.494.448.913.865 1.33.417.416.835.672 1.329.864.477.186 1.022.312 1.82.349.8.036 1.055.045 3.092.045s2.293-.008 3.092-.045c.799-.037 1.344-.163 1.821-.349a3.688 3.688 0 0 0 1.329-.865 3.68 3.68 0 0 0 .865-1.328c.185-.477.312-1.023.348-1.82.037-.801.045-1.056.045-3.093s-.008-2.292-.045-3.092c-.036-.799-.163-1.344-.348-1.82a3.688 3.688 0 0 0-.865-1.33 3.67 3.67 0 0 0-1.328-.864C11.936.208 11.39.08 10.594.045 9.793.01 9.537 0 7.5 0S5.208.008 4.408.045z" fill="#fff"/></svg>