<svg width="69" height="54" viewBox="0 0 69 54" fill="none" xmlns="http://www.w3.org/2000/svg"><path d="M13.36 31.63c1.265-2.877 7.712-13.786 7.712-15.704 0-.66-.241-1.379-.572-1.379-.543 0-5.393 8.032-8.707 16.004-1.477.24-2.832.36-3.857.42a73.595 73.595 0 0 1 2.049-4.076l.844-1.559c2.41-4.465 4.519-7.552 4.519-9.41 0-.66-.241-1.379-.573-1.379-.934 0-7.562 12.887-8.767 16.423a24.6 24.6 0 0 0-3.856.84c1.717-3.597 2.41-4.976 2.892-5.874 2.32-4.466 4.429-7.553 4.429-9.59 0-.69-.241-1.41-.603-1.41-.693 0-4.398 7.014-6.327 11.15C.856 29.741.736 30.25.555 30.73c-.301.809-.301 1.198-.03 1.708.21.39.391.839.633 1.108.361.45.692.45 1.265.3 1.687-.45 4.971-1.169 6.297-1.198 1.536-.03 2.681-.15 3.675-.21.573-.09.723-.27.964-.81zm19.311-14.835c.362.06.422-.15.332-.39-.362-.989-1.025-1.498-2.29-1.468-1.687.03-5.001.899-7.502.749-.301-.03-.391.09-.331.36.18.629.512 1.228 1.265 1.528-2.53 3.896-5.543 9.47-6.93 13.156-.3.81-.3 1.2-.03 1.709.212.39.392.839.633 1.108.362.45.693.45 1.266.3 1.687-.45 4.97-1.229 6.658-1.199.361 0 .392-.18.301-.449-.331-.9-1.084-1.379-2.56-1.319-1.236.06-3.224.48-4.67.93a94.622 94.622 0 0 1 2.32-4.736c1.687-.42 3.946-.839 5.573-.839.392 0 .392-.18.301-.45-.301-.928-.964-1.408-2.47-1.348-.543.03-1.326.09-2.14.24 1.477-2.668 2.953-5.275 4.158-7.073 1.838-.3 3.947-.84 6.116-.81z" fill="#71B639"/><path d="M37.214 27.77a316.507 316.507 0 0 1 5.189-9.537c.568-1 .893-1.837 1.043-2.536 1.654.265 2.301 1.08 2.301 2.746 0 4.332-4.233 8.588-8.533 9.327zm-5.055-3.093c0-3.916 5.105-8.555 9.126-9.037-1.965 3.23-4.687 8.285-6.53 12.16-1.792-.277-2.596-1.27-2.596-3.123zm15.727-5.575c0-1.973-1.752-3.862-4.352-3.98.053-.613-.044-1.097-.227-1.474-.181-.36-.452-.42-.723-.03-.182.261-.382.561-.595.894a9.873 9.873 0 0 0-1.183-.055c-5.242 0-10.936 3.896-10.936 9.74 0 1.982 1.141 3.921 4.464 4.5-.529 1.147-.96 2.155-1.24 2.933-.663 1.828-.302 2.877.12 3.326.24.27.361.24.482-.06.762-1.702 1.816-3.833 2.947-6.026 6.597-.052 11.243-4.553 11.243-9.768zm.091 8.841c.06 2.458 1.235 4.316 2.59 5.035 1.627.87 4.158.9 6.297-.63 1.266-.898 3.194-3.146 2.44-5.154-.15-.39-.481-.39-.632-.06-2.29 4.466-5.483 6.474-7.411 4.915-1.477-1.198-1.778-5.634.873-10.01 2.712-4.465 7.291-6.893 8.135-5.993.693.719-.392 2.427-.874 4.015-.452 1.499.03 2.428.723 2.877.362.24.572.06.663-.18.331-.868.753-2.037 1.205-2.966.452-.93.542-1.768.271-2.638-.24-.749-.934-1.618-1.597-2.187-.964-.84-2.44-.72-4.067-.09-3.374 1.289-8.737 6.713-8.616 13.066zm-8.844 8.633c-1.676 2.284-2.081 3.318-2.548 4.986-.318 1.119-.18 1.686.145 1.972.152.134.313.088.365-.06 1.36-3.398 1.92-3.92 2.59-5.294.398-.817.189-1.218.003-1.566-.163-.314-.385-.264-.555-.038z" fill="#71B639"/><path d="M63.453 36.15c.563-.485 1.49-.687 1.63-.12.08.32.028.773-.08 1.338-.108.547-.46 1.451-.734 1.973-.894 1.712-2.097 2.418-2.694 2.041-.555-.361-.354-2.03.416-3.447a6.527 6.527 0 0 1 1.462-1.784zm-9.812 5.946c-.796.032-.631-1.563.351-3.174 1.02-1.666 2.433-2.925 3.089-2.912.594.017.481 1.14-.678 3.194-.939 1.643-1.926 2.857-2.762 2.892zm14.458-11.08c.617-.598.741-1.542.592-1.964-.075-.212-.197-.204-.31-.035-.612.993-1.619 1.56-2.47 2.027-2.627 1.442-3.778 2.972-5.33 6.538-.379.76-.59 1.531-.565 2.226-.636 1.104-1.523 2.096-2.25 2.173-.69.08-.719-.693-.273-1.73.429-.98 1.362-2.39 1.76-3.225.432-.928.22-1.689-.106-1.992-.153-.153-.314-.107-.483.138-.205.301-.426.693-.664 1.14-.003-.702-.448-1.268-1.325-1.213-1.018.064-2.577.972-4.094 3.192-.683 1-.963 1.996-.901 2.789-.533.74-1.115 1.293-1.66 1.35-.793.086-.912-.5-.51-1.588l1.37-3.903c.224-.645.16-1.325-.165-1.629-.175-.169-.519-.111-.707.153l-1.954 3.057c-1.954 3.076-2.884 4.215-3.414 4.248-.256.016-.367-.27-.35-.664.228-.279.406-.563.543-.807.278-.467.291-.9.175-1.11-.115-.208-.297-.179-.406.044-.067.143-.142.29-.223.439-.246.079-.565.304-.672.608a3.498 3.498 0 0 0-.173.65c-.439.521-.917.896-1.346.886-.779-.024-1.414-1.01-1.589-2.476 2.15-.945 3.012-1.863 3.655-3.02.404-.728-.037-1.546-.57-.919-1.218 1.445-2.48 2.497-4.178 3.161-.379.15-.417.188-.397.511.113 2.424 1.38 3.371 2.807 3.3a3.039 3.039 0 0 0 1.681-.603c.147.337.486.557 1.137.516 1.1-.069 2.35-1.336 3.898-4.35l.165.008c-1.575 3.25-.861 4.178 1.014 4.06.758-.047 1.534-.475 2.121-1.05.289.503.809.794 1.522.75.978-.062 1.853-.783 2.459-1.559.053.843.66 1.381 1.764 1.366.974-.014 2.02-.817 2.586-1.694.098.2.226.385.39.553.875.882 1.898.89 2.618.628 1.48-.543 2.71-2.42 2.98-3.986.09-.528.06-.652.072-.797.04-1.299-.579-1.386-1.083-1.913-.438-.458-.794-.598-1.424-.523-.427.052-.848.225-1.246.48 1.195-2.292 4.384-3.099 5.53-4.242zM16.967 10.531l.155.032a.745.745 0 0 0 .696-.227c4.53-4.9 11.026-7.977 18.23-7.977a24.762 24.762 0 0 1 17.774 7.495.744.744 0 0 0 .936.1l.006-.004.1-.064a.735.735 0 0 0 .137-1.133A26.38 26.38 0 0 0 36.05.75c-7.706 0-14.65 3.303-19.48 8.56a.737.737 0 0 0 .398 1.221z" fill="#71B639"/><path d="M52.63 45.937l-.015-.008a.808.808 0 0 0-.858.11A24.735 24.735 0 0 1 36.05 51.64c-10.632 0-19.721-6.697-23.227-16.073a.8.8 0 0 0-.966-.49l-.016.005a.795.795 0 0 0-.535 1.04c3.734 9.99 13.416 17.127 24.744 17.127a26.35 26.35 0 0 0 16.746-5.978.795.795 0 0 0-.164-1.335z" fill="#71B639"/></svg>