<svg width="17" height="10" viewBox="0 0 17 10" fill="none" xmlns="http://www.w3.org/2000/svg"><path fill-rule="evenodd" clip-rule="evenodd" d="M16.61.677c.118-.39 0-.677-.563-.677h-1.86c-.472 0-.69.248-.808.521 0 0-.946 2.283-2.286 3.766-.434.43-.63.566-.867.566-.118 0-.29-.136-.29-.526V.677C9.937.21 9.8 0 9.407 0H6.482c-.296 0-.473.217-.473.423 0 .445.67.547.738 1.796v2.713c0 .594-.108.702-.344.702-.63 0-2.164-2.293-3.074-4.918C3.152.206 2.973 0 2.497 0H.637C.108 0 0 .248 0 .521 0 1.01.63 3.43 2.936 6.63 4.473 8.815 6.638 10 8.608 10c1.183 0 1.329-.263 1.329-.716V7.632c0-.527.112-.632.486-.632.276 0 .749.137 1.852 1.19C13.536 9.44 13.744 10 14.453 10h1.86c.532 0 .797-.263.644-.783-.168-.517-.77-1.268-1.569-2.158-.433-.508-1.083-1.054-1.28-1.327-.276-.352-.197-.508 0-.82 0 0 2.265-3.161 2.502-4.235z" fill="#fff"/></svg>