<svg xmlns="http://www.w3.org/2000/svg" width="47" height="35" viewBox="0 0 47 35"><defs><style>.cls-1{fill:#3dc054;fill-rule:evenodd}</style></defs><path id="icon" class="cls-1" d="M41.309-.016H6.543A5.632 5.632 0 0 0 .917 5.613v23.774a5.632 5.632 0 0 0 5.626 5.629H41.3a5.632 5.632 0 0 0 5.626-5.629V5.623a5.626 5.626 0 0 0-5.617-5.639zm3.056 29.4a3.06 3.06 0 0 1-3.056 3.057H6.543a3.06 3.06 0 0 1-3.056-3.057V5.623a3.06 3.06 0 0 1 3.056-3.057H41.3a3.06 3.06 0 0 1 3.056 3.057v23.764h.009zM29.933 17.2L41.185 7.1a1.288 1.288 0 0 0-1.723-1.914L23.945 19.129l-3.027-2.7a.051.051 0 0 1-.018-.029 1.9 1.9 0 0 0-.209-.181L8.371 5.185a1.288 1.288 0 0 0-1.713 1.924L18.043 17.29 6.705 27.91a1.292 1.292 0 0 0-.057 1.819 1.315 1.315 0 0 0 .942.409 1.287 1.287 0 0 0 .876-.338l11.51-10.776 3.124 2.791a1.282 1.282 0 0 0 1.713-.009l3.208-2.876 11.441 10.876a1.288 1.288 0 0 0 1.818-.048 1.292 1.292 0 0 0-.048-1.819z"/></svg>