<svg xmlns="http://www.w3.org/2000/svg" viewBox="4267.027 212.674 416.646 210.852"><defs><style>.cls-1{fill:#ddbb6e}</style></defs><path id="logo_big" class="cls-1" d="M198.135 210.852v-31.86h5.607v21.058l16.408-21.605h2.325v31.86h-5.607v-21.057l-16.408 21.6zm197.315-.546v-31.315c4.24-.137 7.247-.273 8.889-.273A12.726 12.726 0 0 1 412 180.77a7.232 7.232 0 0 1 2.735 6.017c0 2.461-1.367 4.512-3.965 5.88a8.153 8.153 0 0 1 5.88 8.34 8.3 8.3 0 0 1-3.282 6.838 13.433 13.433 0 0 1-8.341 2.461zm5.47-15.041v10.392a21.285 21.285 0 0 0 2.735.137 9.807 9.807 0 0 0 5.469-1.231c1.094-.82 1.642-2.188 1.642-4.238a4.554 4.554 0 0 0-1.5-3.829c-1.094-.821-2.872-1.231-5.47-1.231a2.919 2.919 0 0 0-.683-.061c-.552-.004-1.281.06-2.193.06zm0-11.9v7.521c.82 0 1.777.137 2.735.137 3.692 0 5.469-1.367 5.469-4.1q0-3.692-4.923-3.692a29.86 29.86 0 0 0-3.281.137zm-53.055 26.938l-2.325-6.426h-10.8l-2.188 6.426H326.4l12.58-31.86h2.461l12.581 31.86zm-11.487-10.666h7.522l-3.829-11.622zm-69.327 10.666v-31.312h5.607v26.391h14.22v4.923zm-116.639 0l-6.972-11.483-7.247 11.486h-5.88l10.255-16.135-9.434-15.316h5.606l6.7 10.666 6.7-10.666h5.88l-9.572 15.316 10.118 16.135zm-81.36 0v-31.312c4.1-.137 6.29-.273 6.563-.273 4.923 0 8.478.821 10.8 2.325s3.419 3.829 3.419 7.111c0 7.247-4.238 10.8-12.716 10.8-.548-.137-1.367-.137-2.461-.274v11.624zm5.607-26.528v9.982a14.047 14.047 0 0 0 2.187.138c2.6 0 4.376-.411 5.607-1.231s1.777-2.188 1.777-4.1c0-3.281-2.6-4.923-7.93-4.923a5.634 5.634 0 0 0-1.64.136zm-53.191 26.53l-2.323-6.426H8.341l-2.188 6.426H0l12.58-31.86h2.461l12.58 31.86zM9.982 199.639H17.5l-3.829-11.622zm360.855-4.923a2.735 2.735 0 1 1 2.736 2.734 2.743 2.743 0 0 1-2.736-2.733zm-65.5 0a2.735 2.735 0 1 1 2.734 2.734 2.743 2.743 0 0 1-2.732-2.733zm-65.635 0a2.735 2.735 0 1 1 2.735 2.734 2.743 2.743 0 0 1-2.737-2.733zm-65.5 0a2.735 2.735 0 1 1 2.735 2.734 2.743 2.743 0 0 1-2.73-2.733zm-65.636 0a2.835 2.835 0 0 1 2.735-2.735 2.735 2.735 0 1 1-2.735 2.735zm-65.5 0a2.735 2.735 0 1 1 2.735 2.734 2.743 2.743 0 0 1-2.728-2.733zm250.24-105.288a25.844 25.844 0 1 1 25.844 25.844 26 26 0 0 1-25.844-25.844zm-221.791 0a25.844 25.844 0 1 1 25.844 25.844 25.823 25.823 0 0 1-25.844-25.844zm158.208 24.613L229.859 0h47.448l-.137 114.041zm-65.772 0L111.58 0h52.234l52.372 114.041z" transform="translate(4267.027 212.674)"/></svg>