<svg width="18" height="19" viewBox="0 0 18 19" fill="none" xmlns="http://www.w3.org/2000/svg"><path d="M17.714 1.932a.455.455 0 0 0-.103-.072.442.442 0 0 0-.176-.133C14.805.56 11.84.209 8.961.19 6.146.173 3.15.548.623 1.784c-.294.144-.292.432-.145.632.008.088.04.176.108.258 1.8 2.203 3.79 4.279 5.3 6.68a13.661 13.661 0 0 1 1.611 3.694c.463 1.695.326 3.42.384 5.15a.435.435 0 0 0 .073.231c.077.308.503.538.813.246.72-.681 1.44-1.36 2.217-1.984.011-.01.019-.02.03-.029l.017-.017.03-.03a.417.417 0 0 0 .105-.286c0-2.42.563-4.571 1.797-6.69 1.429-2.457 3.315-4.654 4.867-7.038a.384.384 0 0 0 .016-.431.445.445 0 0 0-.132-.238zm-15.74.266c2.188-.855 4.645-1.077 6.987-1.091 2.314-.015 4.75.237 6.95 1.003-4.537 1.133-9.281.906-13.878.107a4.07 4.07 0 0 1-.06-.019zM10.2 16.127c-.473.386-.927.79-1.373 1.202-.017-1.01-.021-2.01-.132-3.012a18.325 18.325 0 0 1 1.688-.396 15.23 15.23 0 0 0-.183 2.206zm1.757-6.66a12.596 12.596 0 0 0-1.383 3.488c-.68.123-1.354.258-2.016.444-.015-.081-.028-.163-.045-.245-.294-1.396-.9-2.724-1.615-3.968-1.255-2.18-3.006-4.08-4.663-6.01 4.724.781 9.593.97 14.237-.259-1.498 2.188-3.184 4.264-4.515 6.55z" fill="#000"/></svg>