<svg width="55" height="42" viewBox="0 0 55 42" fill="none" xmlns="http://www.w3.org/2000/svg"><path d="M38.594 32.813c9.06 0 16.406-7.346 16.406-16.407C55 7.346 47.655 0 38.594 0S22.187 7.345 22.187 16.406s7.346 16.407 16.407 16.407z" fill="#FFE68D"/><path d="M32.813 33.406H17.187v-1.562H31.25V2.937H1.562v28.907h3.125v1.562H0V1.375h32.813v32.031z" fill="#363F40"/><path d="M29.688 22.469H6.25v1.562h23.438V22.47zm0 3.125h-12.5v1.562h12.5v-1.562zm-9.375-7.032c-.079 0-.235 0-.313-.078-.313-.156-.469-.39-.469-.703v-2.344H.781v-1.562h19.532c.468 0 .78.312.78.781v1.563l5-3.907-5-3.906V9.97c0 .468-.312.78-.78.78H.78V9.188h18.75V6.844c0-.313.157-.547.469-.703.234-.157.625-.079.86.078l7.03 5.468c.157.157.313.391.313.625 0 .235-.078.47-.312.625l-7.032 5.47c-.234.077-.39.155-.547.155zM4.688 28.719H0v-6.25h4.688v6.25zm-3.125-1.563h1.562v-3.125H1.562v3.125zM50 30.281h-4.688v-4.687H50v4.687zm-3.125-1.562h1.563v-1.563h-1.563v1.563zM10.938 42a5.435 5.435 0 0 1-5.47-5.469 5.435 5.435 0 0 1 5.47-5.468 5.435 5.435 0 0 1 5.468 5.468A5.435 5.435 0 0 1 10.938 42zm0-9.375a3.868 3.868 0 0 0-3.907 3.906 3.868 3.868 0 0 0 3.907 3.907 3.868 3.868 0 0 0 3.906-3.907 3.868 3.868 0 0 0-3.906-3.906z" fill="#363F40"/><path d="M10.938 38.094a1.563 1.563 0 1 0 0-3.125 1.563 1.563 0 0 0 0 3.125zM40.625 42a5.435 5.435 0 0 1-5.469-5.469 5.435 5.435 0 0 1 5.469-5.468 5.435 5.435 0 0 1 5.469 5.468A5.435 5.435 0 0 1 40.625 42zm0-9.375a3.868 3.868 0 0 0-3.906 3.906 3.868 3.868 0 0 0 3.906 3.907 3.868 3.868 0 0 0 3.906-3.907 3.868 3.868 0 0 0-3.906-3.906z" fill="#363F40"/><path d="M40.625 38.094a1.563 1.563 0 1 0 0-3.125 1.563 1.563 0 0 0 0 3.125zM50 33.406h-3.125v-1.562h1.563v-8.36l-6.641-10.39h-8.984v18.75h1.562v1.562H31.25V11.531h11.328L50 23.016v10.39z" fill="#363F40"/><path d="M49.219 22.469H35.156v1.562H49.22V22.47z" fill="#363F40"/><path d="M35.938 30.281h-1.563V14.656h9.375v1.563h-7.813V30.28z" fill="#363F40"/><path d="M39.063 25.594H37.5v1.562h1.563v-1.562zM50 40.438H0V42h50v-1.563zM16.406 17h-1.562v1.563h1.562V17zm-3.125 0H11.72v1.563h1.562V17zm-3.125 0H8.594v1.563h1.562V17z" fill="#363F40"/></svg>