<svg width="54" height="47" viewBox="0 0 54 47" fill="none" xmlns="http://www.w3.org/2000/svg"><path d="M38.375 32C47.005 32 54 25.004 54 16.375 54 7.745 47.004.75 38.375.75c-8.63 0-15.625 6.996-15.625 15.625C22.75 25.005 29.746 32 38.375 32z" fill="#FFE68D"/><path d="M32.813 13.938H17.187V15.5h15.625v-1.563zM37.5 33.469a.71.71 0 0 1-.547-.235.755.755 0 0 1 0-1.093l2.89-2.891v-1.563l2.579-2.578a.755.755 0 0 1 1.094 0 .755.755 0 0 1 0 1.094l-2.11 2.11v1.562l-3.36 3.36a.71.71 0 0 1-.546.234zm-3.125 9.375c-1.094 0-2.031-.938-2.11-1.016l-8.593-8.594a.755.755 0 0 1 0-1.093.755.755 0 0 1 1.094 0l8.593 8.593c.235.235.703.547 1.016.547.86 0 1.563-.703 1.563-1.562 0-.313-.313-.782-.547-1.016l-8.594-8.594a.755.755 0 0 1 0-1.093.755.755 0 0 1 1.094 0l8.593 8.593c.078.078 1.016 1.016 1.016 2.11a3.134 3.134 0 0 1-3.125 3.125z" fill="#363F40"/><path d="M30.469 45.188c-1.094 0-2.032-.938-2.11-1.016l-7.812-7.813a.755.755 0 0 1 0-1.093.755.755 0 0 1 1.094 0l7.812 7.812c.235.234.703.547 1.016.547.86 0 1.562-.703 1.562-1.563 0-.312-.312-.78-.547-1.015a.755.755 0 0 1 0-1.094.755.755 0 0 1 1.094 0c.078.078 1.016 1.016 1.016 2.11a3.134 3.134 0 0 1-3.125 3.124z" fill="#363F40"/><path d="M25.781 46.75c-1.093 0-2.031-.938-2.11-1.016L9.376 31.437v-2.343l-2.89-2.89a.755.755 0 0 1 0-1.095.755.755 0 0 1 1.093 0l3.36 3.36v2.343l13.828 13.829c.234.234.703.547 1.015.547.86 0 1.563-.704 1.563-1.563 0-.313-.313-.781-.547-1.016a.755.755 0 0 1 0-1.093.755.755 0 0 1 1.094 0c.078.078 1.015 1.015 1.015 2.109a3.134 3.134 0 0 1-3.125 3.125z" fill="#363F40"/><path d="M12.5 37.375a3.134 3.134 0 0 1-3.125-3.125c0-1.094.938-2.031 1.016-2.11a.755.755 0 0 1 1.093 0 .755.755 0 0 1 0 1.094c-.234.235-.546.703-.546 1.016 0 .86.703 1.563 1.562 1.563.313 0 .781-.313 1.016-.547a.755.755 0 0 1 1.093 0 .755.755 0 0 1 0 1.093c-.078.078-1.015 1.016-2.109 1.016z" fill="#363F40"/><path d="M15.625 40.5a3.134 3.134 0 0 1-3.125-3.125c0-1.094.938-2.031 1.016-2.11a.755.755 0 0 1 1.093 0 .755.755 0 0 1 0 1.094c-.234.235-.546.703-.546 1.016 0 .86.703 1.563 1.562 1.563.313 0 .781-.313 1.016-.547a.755.755 0 0 1 1.093 0 .755.755 0 0 1 0 1.093c-.078.078-1.015 1.016-2.109 1.016z" fill="#363F40"/><path d="M18.75 43.625a3.134 3.134 0 0 1-3.125-3.125c0-1.094.938-2.031 1.016-2.11a.755.755 0 0 1 1.093 0 .755.755 0 0 1 0 1.094c-.234.235-.547.703-.547 1.016 0 .86.704 1.563 1.563 1.563.313 0 .781-.313 1.016-.547a.755.755 0 0 1 1.093 0 .755.755 0 0 1 0 1.093c-.078.078-1.015 1.016-2.109 1.016z" fill="#363F40"/><path d="M21.875 46.75a3.134 3.134 0 0 1-3.125-3.125c0-1.094.938-2.031 1.016-2.11a.755.755 0 0 1 1.093 0 .755.755 0 0 1 0 1.094c-.234.235-.547.703-.547 1.016 0 .86.704 1.563 1.563 1.563.313 0 .781-.313 1.016-.547a.755.755 0 0 1 1.093 0 .755.755 0 0 1 0 1.093c-.078.078-1.015 1.016-2.109 1.016zm14.063-8.594c-1.094 0-2.032-.937-2.11-1.015a.755.755 0 0 1 0-1.094.755.755 0 0 1 1.094 0c.234.234.703.547 1.016.547.859 0 1.562-.703 1.562-1.563 0-.312-.313-.781-.547-1.015l-10.39-10.391v-4.219h-1.25l-3.672 3.672c-.078.078-1.016 1.016-2.11 1.016a3.134 3.134 0 0 1-3.125-3.125c0-1.094.938-2.032 1.016-2.11l4.687-4.687a.755.755 0 0 1 1.094 0 .755.755 0 0 1 0 1.094l-4.687 4.687c-.235.235-.547.703-.547 1.016 0 .86.703 1.562 1.562 1.562.313 0 .782-.312 1.016-.547l4.14-4.14h3.438V23l9.922 9.922c.078.078 1.016 1.016 1.016 2.11a3.134 3.134 0 0 1-3.126 3.124z" fill="#363F40"/><path d="M31.25 25.656h-2.344v-1.562h2.344c.86 0 1.563-.703 1.563-1.563h1.562a3.134 3.134 0 0 1-3.125 3.125zm14.063.782H43.75a.71.71 0 0 1-.547-.235l-12.5-12.5a.71.71 0 0 1-.234-.547v-1.562a.71.71 0 0 1 .234-.547l7.813-7.813a.755.755 0 0 1 1.093 0 .755.755 0 0 1 0 1.094l-7.578 7.578v.938l12.032 12.031H45l3.672-3.672a.755.755 0 0 1 1.094 0 .755.755 0 0 1 0 1.094l-3.907 3.906a.71.71 0 0 1-.547.235zm-39.063 0H4.687a.71.71 0 0 1-.546-.235L.234 22.297a.755.755 0 0 1 0-1.094.755.755 0 0 1 1.094 0L5 24.875h.938l12.03-12.031v-.938l-7.577-7.578a.755.755 0 0 1 0-1.094.755.755 0 0 1 1.093 0l7.813 7.813a.71.71 0 0 1 .234.547v1.562a.71.71 0 0 1-.234.547l-12.5 12.5a.71.71 0 0 1-.547.235z" fill="#363F40"/><path d="M44.531 20.969a.71.71 0 0 1-.547-.235.755.755 0 0 1 0-1.093l1.563-1.563a.755.755 0 0 1 1.094 0 .755.755 0 0 1 0 1.094l-1.563 1.562a.71.71 0 0 1-.547.235zm-39.062 0a.71.71 0 0 1-.547-.235l-1.563-1.562a.755.755 0 0 1 0-1.094.755.755 0 0 1 1.094 0l1.563 1.563a.755.755 0 0 1 0 1.093.71.71 0 0 1-.547.235z" fill="#363F40"/></svg>