<svg width="90" height="90" viewBox="0 0 90 90" fill="none" xmlns="http://www.w3.org/2000/svg"><path d="M60.469 59.063C76.779 59.063 90 45.84 90 29.53 90 13.221 76.778 0 60.469 0c-16.31 0-29.532 13.222-29.532 29.531 0 16.31 13.222 29.532 29.532 29.532z" fill="#FFE68D"/><path d="M21.656 77.625c-6.047-3.938-10.125-9.281-12.093-15.328l2.671-.844c1.688 5.484 5.485 10.266 10.97 13.781l-1.548 2.391zM45 84.375c-3.938 0-7.875-.563-11.672-1.547l.703-2.672c7.032 1.828 14.766 1.828 21.797 0l.703 2.672c-3.656.984-7.593 1.547-11.531 1.547zm23.344-6.75l-1.547-2.39C74.39 70.171 78.75 62.718 78.75 54.843c0-8.438-4.922-16.172-13.36-21.235l1.407-2.39c9.422 5.484 14.766 14.203 14.766 23.625 0 8.86-4.782 17.156-13.22 22.781z" fill="#363F40"/><path d="M15.469 63.281H4.219C1.829 63.281 0 61.453 0 59.063v-8.438c0-2.39 1.828-4.219 4.219-4.219h4.64c1.547-3.937 4.641-7.875 9.422-11.953V19.828l11.39 8.156c3.657-1.406 6.892-2.672 11.11-2.672v2.813c-3.797 0-6.75 1.125-10.406 2.531l-.984.422-8.297-5.906v10.547l-.563.422c-4.922 4.078-8.156 8.297-9.422 11.953l-.28 1.125h-6.61c-.844 0-1.407.562-1.407 1.406v8.438c0 .843.563 1.406 1.407 1.406h11.25v2.812zm46.969-24.187c-4.782-3.657-11.391-5.344-20.25-5.344v-2.813c9.421 0 16.593 1.97 21.937 5.907l-1.688 2.25zM35.156 90H21.094V70.312h2.812v16.876h8.438v-9.844h2.812V90zm33.75 0H54.844V77.344h2.812v9.844h8.438V70.311h2.812V90z" fill="#363F40"/><path d="M25.313 52.031c-3.938 0-7.032-3.093-7.032-7.031h2.813c0 2.39 1.828 4.219 4.218 4.219 2.391 0 4.22-1.828 4.22-4.219h2.812c0 3.938-3.094 7.031-7.032 7.031zm54.843 4.219v-2.813c3.938 0 7.031-3.093 7.031-7.03H90a9.783 9.783 0 0 1-9.844 9.843zM57.656 0h-2.812v8.438h2.812V0zm-5.625 8.438H49.22v8.437h2.812V8.437zm5.625 2.812h-2.812v2.813h2.812V11.25zm-5.625-8.437H49.22v2.812h2.812V2.812zm5.063 32.906l-1.266-2.532c1.969-.984 3.234-2.953 3.234-5.062 0-3.094-2.53-5.625-5.624-5.625s-5.626 2.531-5.626 5.625c0 1.266.422 2.39 1.126 3.375l-2.25 1.688C45.562 31.78 45 29.953 45 28.125c0-4.64 3.797-8.438 8.438-8.438 4.64 0 8.437 3.797 8.437 8.438a8.38 8.38 0 0 1-4.781 7.594zM46.406 70.313h-2.812v2.812h2.812v-2.813zm5.625 0H49.22v2.812h2.812v-2.813zm-11.25 0H37.97v2.812h2.812v-2.813zM90 87.188H0V90h90v-2.813z" fill="#363F40"/></svg>