<svg width="97" height="95" viewBox="0 0 97 95" fill="none" xmlns="http://www.w3.org/2000/svg"><path d="M30.502 95c16.31 0 29.531-13.222 29.531-29.531 0-16.31-13.221-29.531-29.531-29.531S.971 49.159.971 65.468C.97 81.779 14.192 95 30.502 95z" fill="#FFE68D"/><path d="M51.97 78.75h-45V14.062h90v36.563h-2.812v-33.75H9.783v59.063h42.188v2.812z" fill="#363F40"/><path d="M44.94 33.75h-8.438v-8.438h8.438v8.438zm-5.625-2.813h2.812v-2.812h-2.813v2.813zM56.19 33.75h-8.438v-8.438h8.438v8.438zm-5.625-2.813h2.812v-2.812h-2.813v2.813zM67.44 33.75h-8.438v-8.438h8.437v8.438zm-5.625-2.813h2.812v-2.812h-2.812v2.813zM78.69 33.75h-8.438v-8.438h8.438v8.438zm-5.626-2.813h2.813v-2.812h-2.813v2.813zM89.94 33.75h-8.438v-8.438h8.438v8.438zm-5.626-2.813h2.813v-2.812h-2.813v2.813zM44.94 45h-8.438v-8.438h8.438V45zm-5.625-2.813h2.812v-2.812h-2.813v2.813zM33.69 45h-8.438v-8.438h8.438V45zm-5.625-2.813h2.812v-2.812h-2.813v2.813zM22.44 45h-8.438v-8.438h8.437V45zm-5.626-2.813h2.813v-2.812h-2.813v2.813zM56.19 45h-8.438v-8.438h8.438V45zm-5.625-2.813h2.812v-2.812h-2.813v2.813zM67.44 45h-8.438v-8.438h8.437V45zm-5.625-2.813h2.812v-2.812h-2.812v2.813zM78.69 45h-8.438v-8.438h8.438V45zm-5.626-2.813h2.813v-2.812h-2.813v2.813zM89.94 45h-8.438v-8.438h8.438V45zm-5.626-2.813h2.813v-2.812h-2.813v2.813zM44.94 56.25h-8.438v-8.438h8.438v8.438zm-5.625-2.813h2.812v-2.812h-2.813v2.813zM33.69 56.25h-8.438v-8.438h8.438v8.438zm-5.625-2.813h2.812v-2.812h-2.813v2.813zM22.44 56.25h-8.438v-8.438h8.437v8.438zm-5.626-2.813h2.813v-2.812h-2.813v2.813zM56.19 56.25h-8.438v-8.438h8.438v8.438zm-5.625-2.813h2.812v-2.812h-2.813v2.813zM44.94 67.5h-8.438v-8.438h8.438V67.5zm-5.625-2.813h2.812v-2.812h-2.813v2.813zM33.69 67.5h-8.438v-8.438h8.438V67.5zm-5.625-2.813h2.812v-2.812h-2.813v2.813zM22.44 67.5h-8.438v-8.438h8.437V67.5zm-5.626-2.813h2.813v-2.812h-2.813v2.813zM96.97 11.25h-2.812V2.812H9.783v8.438H6.971V0h90v11.25z" fill="#363F40"/><path d="M87.127 5.625H16.814v2.813h70.313V5.624zm-56.25 22.5h-2.813v2.813h2.813v-2.813zm-11.25 0h-2.813v2.813h2.813v-2.813zM75.877 90c-11.672 0-21.094-9.422-21.094-21.094s9.422-21.094 21.094-21.094 21.094 9.422 21.094 21.094S87.549 90 75.877 90zm0-39.375a18.245 18.245 0 0 0-18.281 18.281 18.245 18.245 0 0 0 18.281 18.281 18.245 18.245 0 0 0 18.281-18.28 18.245 18.245 0 0 0-18.281-18.282z" fill="#363F40"/><path d="M91.346 67.5h-2.813v2.813h2.813V67.5zM77.283 81.563h-2.812v2.812h2.812v-2.813zm0-28.125h-2.812v2.812h2.812v-2.813zm-9.843 4.218h-2.813v2.813h2.813v-2.813zm19.687 0h-2.813v2.813h2.813v-2.813zM67.44 77.344h-2.813v2.812h2.813v-2.812zm19.687 0h-2.813v2.812h2.813v-2.812zM63.22 67.5h-2.812v2.813h2.813V67.5zm8.016 8.016l-1.968-1.97 5.203-5.202v-7.875h2.812v9l-6.047 6.047z" fill="#363F40"/></svg>