<svg width="54" height="47" viewBox="0 0 54 47" fill="none" xmlns="http://www.w3.org/2000/svg"><path d="M37.594 32.813c9.06 0 16.406-7.346 16.406-16.407C54 7.346 46.655 0 37.594 0S21.187 7.345 21.187 16.406s7.346 16.407 16.407 16.407z" fill="#FFE68D"/><path d="M26.563 32.938H3.125A3.134 3.134 0 0 1 0 29.811V3.25A3.134 3.134 0 0 1 3.125.125H37.5a3.134 3.134 0 0 1 3.125 3.125V9.5h-1.563V3.25c0-.86-.703-1.563-1.562-1.563H3.125c-.86 0-1.563.704-1.563 1.563v26.563c0 .859.704 1.562 1.563 1.562h23.438v1.563z" fill="#363F40"/><path d="M25 32.156h-1.563v7.813H25v-7.813zm-7.812 0h-1.563v7.813h1.563v-7.813zM12.5 39.188H0v1.562h12.5v-1.563zm14.063-14.063H.78v1.563h25.782v-1.563zm-5.469 3.125H19.53v1.563h1.563V28.25zm-6.25-14.062H4.688v1.562h10.156v-1.563zm11.719 0H16.405v1.562h10.157v-1.563zm-11.719 3.125H4.688v1.562h10.156v-1.563zm11.719 0H16.405v1.562h10.157v-1.563zm-11.719 3.125H4.688V22h10.156v-1.563zm11.719 0H16.405V22h10.157v-1.563zM47.656 40.75H30.47c-1.328 0-2.344-1.016-2.344-2.344v-25c0-1.328 1.016-2.344 2.344-2.344h17.187c1.328 0 2.344 1.016 2.344 2.344v25c0 1.328-1.016 2.344-2.344 2.344zM30.47 12.625c-.469 0-.782.313-.782.781v25c0 .469.313.782.782.782h17.187c.469 0 .782-.313.782-.782v-25c0-.469-.313-.781-.782-.781H30.47z" fill="#363F40"/><path d="M40.625 36.063H37.5v1.562h3.125v-1.563zm4.688-15.625h-12.5V15.75h12.5v4.688zm-10.938-1.563h9.375v-1.563h-9.375v1.563zM45.313 22h-12.5v1.563h12.5V22zm0 3.125h-12.5v1.563h12.5v-1.563zm0 3.125h-12.5v1.563h12.5V28.25zm0 3.125h-12.5v1.563h12.5v-1.563zm-18.75-18.75H4.688V4.812h31.25V9.5h-1.563V6.375H6.25v4.688h20.313v1.562zM50 42.313H0v1.562h50v-1.563z" fill="#363F40"/><path d="M7.813 43.094H6.25V47h1.563v-3.906zm4.687 0h-1.563V47H12.5v-3.906zm26.563 0H37.5V47h1.563v-3.906zm4.687 0h-1.563V47h1.563v-3.906zm-17.187-3.906h-12.5v1.562h12.5v-1.563zM9.375 7.938H7.812V9.5h1.563V7.937zm3.125 0h-1.563V9.5H12.5V7.937zm3.125 0h-1.563V9.5h1.563V7.937zm3.125 0h-1.563V9.5h1.563V7.937zm3.125 0h-1.563V9.5h1.563V7.937z" fill="#363F40"/></svg>