<svg width="50" height="47" viewBox="0 0 50 47" fill="none" xmlns="http://www.w3.org/2000/svg"><path d="M29.375 33.25C38.005 33.25 45 26.254 45 17.625 45 8.995 38.004 2 29.375 2 20.745 2 13.75 8.996 13.75 17.625c0 8.63 6.996 15.625 15.625 15.625z" fill="#FFE68D"/><path d="M22.656 39.188h-1.562a3.134 3.134 0 0 1 3.125-3.126h8.593c.86 0 1.563-.703 1.563-1.562 0-.86-.703-1.563-1.563-1.563h-7.187l-8.594-3.124h-6.875V28.25h7.188l8.593 3.125h6.875a3.134 3.134 0 0 1 3.126 3.125 3.134 3.134 0 0 1-3.126 3.125H24.22c-.86 0-1.563.703-1.563 1.563z" fill="#363F40"/><path d="M29.063 47h-1.875l-13.282-4.688h-2.969V40.75h3.282L27.5 45.438h1.25l19.219-10c.234-.235.468-.626.468-.938 0-.86-.624-1.484-1.484-1.563L34.61 36.844l-.468-1.563 12.734-3.906A3.134 3.134 0 0 1 50 34.5c0 1.094-.938 2.031-1.016 2.11l-.156.156L29.062 47zm6.093-18.75a4.701 4.701 0 0 1-4.687-4.688 4.701 4.701 0 0 1 4.687-4.687 4.701 4.701 0 0 1 4.688 4.688 4.701 4.701 0 0 1-4.688 4.687zm0-7.813a3.134 3.134 0 0 0-3.125 3.125 3.134 3.134 0 0 0 3.125 3.125 3.134 3.134 0 0 0 3.125-3.125 3.134 3.134 0 0 0-3.125-3.125zM22.656 22a4.701 4.701 0 0 1-4.687-4.688 4.701 4.701 0 0 1 4.687-4.687 4.701 4.701 0 0 1 4.688 4.688A4.701 4.701 0 0 1 22.656 22zm0-7.813a3.134 3.134 0 0 0-3.125 3.126 3.134 3.134 0 0 0 3.125 3.125 3.134 3.134 0 0 0 3.125-3.125 3.134 3.134 0 0 0-3.125-3.125zM7.813 39.188H6.25v1.562h1.563v-1.563zm-3.125 0H3.125v1.562h1.563v-1.563zM25 .125h-1.563v6.25H25V.125zm-3.125 4.688h-1.563v6.25h1.563v-6.25zM25 7.938h-1.563V9.5H25V7.937zm-3.125-6.25h-1.563V3.25h1.563V1.687zm12.5 4.687h-1.563v6.25h1.563v-6.25zm3.125 4.688h-1.563v6.25H37.5v-6.25zm-3.125 3.125h-1.563v1.562h1.563v-1.563zm3.125-6.25h-1.563V9.5H37.5V7.937z" fill="#363F40"/><path d="M9.375 43.875H0v-1.563h9.375V28.25H0v-1.563h9.375c.86 0 1.563.704 1.563 1.563v14.063c0 .859-.704 1.562-1.563 1.562z" fill="#363F40"/></svg>