<svg width="92" height="90" viewBox="0 0 92 90" fill="none" xmlns="http://www.w3.org/2000/svg"><path d="M61.842 59.063c16.31 0 29.531-13.222 29.531-29.532C91.373 13.221 78.151 0 61.842 0 45.532 0 32.31 13.222 32.31 29.531c0 16.31 13.222 29.532 29.532 29.532z" fill="#FFE68D"/><path d="M37.56 76.5l-.984-.984c-1.125-1.125-27.14-27.282-27.14-47.391C9.436 12.656 22.092 0 37.56 0c15.47 0 28.126 12.656 28.126 28.125 0 20.11-26.016 46.266-27.141 47.39l-.985.985zm0-73.688c-13.921 0-25.312 11.391-25.312 25.313 0 16.734 20.531 39.375 25.313 44.438 4.78-5.063 25.312-27.704 25.312-44.438 0-13.922-11.39-25.313-25.313-25.313z" fill="#363F40"/><path d="M37.56 90C16.748 90 .998 83.953.998 75.937c0-5.484 7.313-10.124 19.406-12.515l.563 2.812C10.7 68.204 3.81 72.141 3.81 75.938c0 5.343 13.921 11.25 33.75 11.25 19.828 0 33.75-5.907 33.75-11.25 0-4.079-7.454-8.016-18.563-9.985l.422-2.812c13.219 2.39 20.953 7.172 20.953 12.797C74.123 83.953 58.373 90 37.56 90z" fill="#363F40"/><path d="M37.56 81.563c-6.328 0-12.656-1.97-12.656-5.626 0-1.124.703-2.812 3.657-4.078l1.125 2.532c-1.407.562-1.97 1.265-1.97 1.546 0 .844 3.516 2.813 9.844 2.813 6.329 0 9.844-1.969 9.844-2.813 0-.28-.562-.843-1.969-1.546l1.125-2.532c2.954 1.266 3.657 2.954 3.657 4.079 0 3.656-6.328 5.624-12.657 5.624zm0-33.75c-10.828 0-19.687-8.86-19.687-19.688S26.733 8.437 37.56 8.437c10.829 0 19.688 8.86 19.688 19.688s-8.86 19.688-19.688 19.688zm0-36.563c-9.28 0-16.875 7.594-16.875 16.875C20.686 37.406 28.28 45 37.56 45c9.282 0 16.875-7.594 16.875-16.875 0-9.281-7.593-16.875-16.875-16.875z" fill="#363F40"/><path d="M37.56 35.156c-3.937 0-7.03-3.093-7.03-7.031 0-3.938 3.093-7.031 7.03-7.031 3.938 0 7.032 3.093 7.032 7.031 0 3.938-3.094 7.031-7.032 7.031zm0-11.25c-2.39 0-4.218 1.828-4.218 4.219 0 2.39 1.828 4.219 4.218 4.219 2.391 0 4.22-1.828 4.22-4.219 0-2.39-1.829-4.219-4.22-4.219z" fill="#363F40"/></svg>