<svg width="52" height="51" viewBox="0 0 52 51" fill="none" xmlns="http://www.w3.org/2000/svg"><path d="M35.72 36c8.556 0 15.491-7.345 15.491-16.406S44.276 3.187 35.72 3.187c-8.556 0-15.491 7.346-15.491 16.407 0 9.06 6.935 16.406 15.49 16.406z" fill="#FFE68D"/><path d="M13.278 22.656h-1.475v21.875h1.475V22.656zm22.13 0h-1.475v21.875h1.475V22.656z" fill="#363F40"/><path d="M46.474 50c-.074 0-.148 0-.296-.078L34.671 45.39 23.9 50a.598.598 0 0 1-.517 0L12.54 45.39 1.034 49.923c-.295.156-.517.078-.738-.078-.147-.157-.295-.39-.295-.625V27.344c0-.313.221-.625.443-.703l11.802-4.688a.598.598 0 0 1 .517 0l3.688 1.563L15.934 25l-3.393-1.484L1.474 27.89v20.234l10.77-4.297a.598.598 0 0 1 .517 0l10.844 4.531 10.77-4.609a.598.598 0 0 1 .516 0l10.844 4.375V27.891L34.67 23.516 31.277 25l-.516-1.484 3.688-1.563a.598.598 0 0 1 .517 0l11.803 4.688c.295.078.442.39.442.703v21.875c0 .234-.147.468-.295.625-.147.078-.295.156-.442.156z" fill="#363F40"/><path d="M23.605 31.25c-.22 0-.442-.156-.59-.313-.369-.546-9.737-14.218-9.737-20C13.278 4.923 17.925 0 23.605 0s10.328 4.922 10.328 10.938c0 5.78-9.369 19.453-9.737 20-.148.156-.37.312-.59.312zm0-29.688c-4.868 0-8.852 4.22-8.852 9.376 0 4.53 6.787 15.078 8.852 18.203 2.066-3.125 8.853-13.672 8.853-18.203 0-5.157-3.984-9.376-8.852-9.376zm.738 40.626h-1.475v7.03h1.475v-7.03z" fill="#363F40"/><path d="M23.605 17.188c-3.245 0-5.9-2.813-5.9-6.25 0-3.438 2.655-6.25 5.9-6.25 3.246 0 5.902 2.812 5.902 6.25 0 3.437-2.656 6.25-5.902 6.25zm0-10.938c-2.434 0-4.425 2.11-4.425 4.688s1.991 4.687 4.425 4.687c2.435 0 4.427-2.11 4.427-4.688S26.04 6.25 23.605 6.25zm.738 26.563h-1.475v1.562h1.475v-1.563zm0 3.125h-1.475V37.5h1.475v-1.563zm0 3.125h-1.475v1.562h1.475v-1.563z" fill="#363F40"/></svg>