<svg width="101" height="90" viewBox="0 0 101 90" fill="none" xmlns="http://www.w3.org/2000/svg"><path d="M71.469 59.063C87.779 59.063 101 45.84 101 29.53 101 13.221 87.778 0 71.469 0c-16.31 0-29.531 13.222-29.531 29.531 0 16.31 13.221 29.532 29.53 29.532z" fill="#FFE68D"/><path d="M22.5 57.656h-1.406c-3.094 0-5.625-2.531-5.625-5.625h2.812a2.82 2.82 0 0 0 2.813 2.813H22.5a2.82 2.82 0 0 0 2.813-2.813v-1.406c-.141-.281-1.125-1.125-1.97-1.547l-.14-.14-4.219-2.813c-.984-.422-3.515-1.828-3.515-3.938v-1.406c0-3.093 2.531-5.625 5.625-5.625H22.5c3.094 0 5.625 2.532 5.625 5.625h-2.813A2.82 2.82 0 0 0 22.5 37.97h-1.406a2.82 2.82 0 0 0-2.813 2.812v1.407c.14.28 1.125 1.124 1.969 1.546l.14.141 4.22 2.813c.984.421 3.515 1.968 3.515 4.078v1.406c0 2.953-2.531 5.484-5.625 5.484zm21.094 0H40.78V40.781a2.82 2.82 0 0 0-2.812-2.812h-1.407a2.82 2.82 0 0 0-2.812 2.812v16.875h-2.813V40.781c0-3.093 2.532-5.625 5.625-5.625h1.407c3.093 0 5.625 2.532 5.625 5.625v16.875z" fill="#363F40"/><path d="M42.188 47.813h-9.844v2.812h9.843v-2.813zM71.719 45H63.28v2.813h8.438V45z" fill="#363F40"/><path d="M74.531 57.656h-9.844a2.82 2.82 0 0 1-2.812-2.812V37.969a2.82 2.82 0 0 1 2.813-2.813h9.843v2.813h-9.844v16.875h9.844v2.812zm-15.468 0h-9.844a2.82 2.82 0 0 1-2.813-2.812V35.156h2.813v19.688h9.843v2.812zm-45-43.593H8.436v2.812h5.626v-2.813zm8.437 0h-5.625v2.812H22.5v-2.813zm8.438 0h-5.625v2.812h5.625v-2.813zm8.437 0H33.75v2.812h5.625v-2.813zm8.438 0h-5.626v2.812h5.626v-2.813zm8.437 0h-5.625v2.812h5.625v-2.813zm8.438 0h-5.626v2.812h5.626v-2.813zm8.437 0H67.5v2.812h5.625v-2.813z" fill="#363F40"/><path d="M64.688 14.063h-5.626v2.812h5.626v-2.813zm8.437 0H67.5v2.812h5.625v-2.813zm8.438 0h-5.626v2.812h5.626v-2.813z" fill="#363F40"/><path d="M81.563 14.063h-5.626v2.812h5.626v-2.813zM22.5 75.938h-5.625v2.812H22.5v-2.813zm16.875 0H33.75v2.812h5.625v-2.813zm8.438 0h-5.626v2.812h5.626v-2.813zm8.437 0h-5.625v2.812h5.625v-2.813zm8.438 0h-5.626v2.812h5.626v-2.813zm8.437 0H67.5v2.812h5.625v-2.813zm8.438 0h-5.626v2.812h5.626v-2.813zm-78.75-56.25H0v-5.625h5.625v2.812H2.812v2.813zm87.187 0h-2.813v-2.813h-2.812v-2.813H90v5.626zm0 59.062h-5.625v-2.813h2.813v-2.812H90v5.625zM2.813 22.5H0v5.625h2.813V22.5zm0 16.875H0V45h2.813v-5.625zm0 8.438H0v5.624h2.813v-5.624zm0 8.437H0v5.625h2.813V56.25zM90 22.5h-2.813v5.625H90V22.5zm0 16.875h-2.813V45H90v-5.625zm0-8.437h-2.813v5.625H90v-5.626zm-87.187 0H0v5.625h2.813v-5.626zM90 47.813h-2.813v5.624H90v-5.624zm0 8.437h-2.813v5.625H90V56.25zm0 8.438h-2.813v5.624H90v-5.624zM5.625 75.938C2.531 75.938 0 73.406 0 70.311c0-3.093 2.531-5.624 5.625-5.624s5.625 2.53 5.625 5.624-2.531 5.626-5.625 5.626zm0-8.438a2.82 2.82 0 0 0-2.813 2.813 2.82 2.82 0 0 0 2.813 2.812 2.82 2.82 0 0 0 2.813-2.813A2.82 2.82 0 0 0 5.624 67.5zm0 22.5C2.531 90 0 87.469 0 84.375s2.531-5.625 5.625-5.625 5.625 2.531 5.625 5.625S8.719 90 5.625 90zm0-8.438a2.82 2.82 0 0 0-2.813 2.813 2.82 2.82 0 0 0 2.813 2.813 2.82 2.82 0 0 0 2.813-2.813 2.82 2.82 0 0 0-2.813-2.813z" fill="#363F40"/><path d="M10.518 70.484l-1.41 2.434 26.774 15.5 1.409-2.434-26.773-15.5z" fill="#363F40"/><path d="M35.886 66.267L9.112 81.77l1.41 2.434 26.773-15.503-1.41-2.434zM81.563 45H78.75v2.813h2.813V45zM11.25 45H8.437v2.813h2.813V45z" fill="#363F40"/></svg>