<svg width="97" height="95" viewBox="0 0 97 95" fill="none" xmlns="http://www.w3.org/2000/svg"><path d="M29.531 95c16.31 0 29.532-13.222 29.532-29.531 0-16.31-13.222-29.531-29.532-29.531C13.221 35.938 0 49.159 0 65.468 0 81.779 13.222 95 29.531 95z" fill="#FFE68D"/><path d="M56.219 74.25c-.282 0-.563-.14-.844-.281-.281-.281-.563-.563-.563-.985-.14-1.406-1.265-2.53-2.812-2.53s-2.672 1.124-2.813 2.53c0 .422-.28.704-.562.985-.281.281-.703.281-1.125.281-4.781-.703-9.281-2.531-13.078-5.484-.281-.282-.563-.563-.563-.985 0-.422.141-.844.422-1.125.563-.562.844-1.265.844-1.969a2.82 2.82 0 0 0-2.813-2.812c-.703 0-1.406.281-1.968.844-.282.281-.703.422-1.125.422-.422 0-.844-.282-.985-.563-2.812-3.797-4.78-8.437-5.484-13.078 0-.422 0-.844.281-1.125.282-.281.563-.563.985-.563 1.406-.14 2.53-1.265 2.53-2.812s-1.124-2.672-2.53-2.813c-.422 0-.703-.28-.985-.562-.281-.281-.281-.703-.281-1.125.703-4.781 2.531-9.281 5.484-13.078.282-.281.563-.563.985-.563.422 0 .843.141 1.125.422.562.563 1.265.844 1.968.844a2.82 2.82 0 0 0 2.813-2.813c0-.703-.281-1.406-.844-1.968-.281-.282-.422-.703-.422-1.125 0-.422.282-.844.563-.985 3.797-2.812 8.437-4.78 13.078-5.484.422 0 .844 0 1.125.281.281.282.563.563.563.985.14 1.406 1.265 2.53 2.812 2.53s2.672-1.124 2.813-2.53c0-.422.28-.703.562-.985a1.094 1.094 0 0 1 1.125-.281c4.781.703 9.281 2.531 13.078 5.484.281.282.563.563.563.985 0 .422-.141.843-.422 1.125-.563.562-.844 1.265-.844 1.968a2.82 2.82 0 0 0 2.813 2.813c.703 0 1.406-.281 1.968-.844.281-.281.703-.422 1.125-.422.422 0 .844.282.985.563 2.812 3.797 4.78 8.437 5.484 13.078 0 .422 0 .844-.281 1.125s-.563.563-.985.563c-1.406.14-2.53 1.265-2.53 2.812s1.124 2.672 2.53 2.813c.422 0 .704.28.985.562.281.281.281.703.281 1.125-.703 4.781-2.531 9.281-5.484 13.078-.282.281-.563.563-.985.563-.422 0-.844-.141-1.125-.422-.562-.563-1.265-.844-1.969-.844a2.82 2.82 0 0 0-2.812 2.813c0 .703.281 1.406.844 1.968.281.281.422.703.422 1.125 0 .422-.282.844-.563.985-3.797 2.812-8.437 4.78-13.078 5.484h-.281zM52 67.5c2.39 0 4.5 1.547 5.203 3.656 3.375-.703 6.61-1.969 9.422-3.937-.281-.703-.563-1.688-.563-2.531 0-3.094 2.532-5.626 5.626-5.626.843 0 1.828.282 2.53.704 1.829-2.813 3.235-6.047 3.938-9.422-2.11-.844-3.656-2.813-3.656-5.203 0-2.391 1.547-4.5 3.656-5.203-.703-3.376-1.969-6.61-3.937-9.422-.703.14-1.688.422-2.531.422-3.094 0-5.626-2.532-5.626-5.625 0-.844.282-1.829.704-2.532-2.813-1.828-6.047-3.234-9.422-3.937-.844 2.11-2.813 3.656-5.203 3.656-2.391 0-4.5-1.547-5.203-3.656-3.376.703-6.61 1.968-9.422 3.937.422.844.703 1.688.703 2.532 0 3.093-2.532 5.625-5.625 5.625a5.264 5.264 0 0 1-2.532-.704c-1.828 2.813-3.234 6.047-3.937 9.422 2.11.844 3.656 2.813 3.656 5.203 0 2.391-1.547 4.5-3.656 5.203.703 3.376 1.969 6.61 3.938 9.422.843-.422 1.687-.703 2.53-.703 3.094 0 5.626 2.532 5.626 5.625a5.27 5.27 0 0 1-.703 2.531c2.812 1.829 6.047 3.235 9.422 3.938C47.5 69.047 49.608 67.5 52 67.5z" fill="#363F40"/><path d="M52 59.063c-7.734 0-14.063-6.329-14.063-14.063 0-7.734 6.329-14.063 14.063-14.063 7.734 0 14.063 6.329 14.063 14.063 0 7.734-6.329 14.063-14.063 14.063zm0-25.313c-6.188 0-11.25 5.063-11.25 11.25 0 6.188 5.063 11.25 11.25 11.25 6.188 0 11.25-5.063 11.25-11.25 0-6.188-5.063-11.25-11.25-11.25zm23.906-12.656h-2.812v2.812h2.812v-2.812zm0 45h-2.812v2.812h2.812v-2.812zm-22.5-53.438h-2.812v2.813h2.812v-2.813zm0 61.875h-2.812v2.813h2.812V74.53zm-22.5-53.437h-2.812v2.812h2.812v-2.812zm-8.437 22.5h-2.813v2.812h2.813v-2.812zm61.875 0H81.53v2.812h2.813v-2.812zm-53.438 22.5h-2.812v2.812h2.812v-2.812z" fill="#363F40"/><path d="M52 84.375c-21.656 0-39.375-17.719-39.375-39.375S30.344 5.625 52 5.625 91.375 23.344 91.375 45 73.656 84.375 52 84.375zm0-75.938C31.89 8.438 15.437 24.892 15.437 45c0 20.11 16.454 36.563 36.563 36.563 20.11 0 36.563-16.454 36.563-36.563C88.563 24.89 72.108 8.437 52 8.437z" fill="#363F40"/><path d="M52 90C27.25 90 7 69.75 7 45S27.25 0 52 0s45 20.25 45 45-20.25 45-45 45zm0-87.188C28.797 2.813 9.812 21.797 9.812 45c0 23.203 18.985 42.188 42.188 42.188 23.203 0 42.188-18.985 42.188-42.188C94.188 21.797 75.203 2.812 52 2.812z" fill="#363F40"/></svg>