<svg width="91" height="90" viewBox="0 0 91 90" fill="none" xmlns="http://www.w3.org/2000/svg"><g clip-path="url(#a)"><path d="M62.846 56.25c15.533 0 28.125-12.592 28.125-28.125S78.379 0 62.846 0 34.72 12.592 34.72 28.125 47.313 56.25 62.846 56.25z" fill="#FFE68D"/><path d="M84.502 90H7.439L.971 83.531V78.75H36.69l2.812 2.813h12.937l2.813-2.813H90.97v4.781L84.502 90zM8.564 87.187h74.813l4.781-4.78v-.844H56.377l-2.813 2.812H38.378l-2.813-2.813H3.785v.844l4.78 4.781zM31.908 11.25h-2.812v2.813h2.812V11.25zm-5.625 0h-2.812v2.813h2.812V11.25zm-5.625 0h-2.812v2.813h2.812V11.25zm56.25-1.406h-2.812V7.03c0-2.39-1.828-4.218-4.219-4.218-2.39 0-4.219 1.828-4.219 4.218v2.813h-2.812V7.03c0-3.936 3.093-7.03 7.031-7.03 3.938 0 7.031 3.094 7.031 7.031v2.813zM57.22 59.063h-2.812V56.25H41.752v-2.813h15.469v5.626z" fill="#222829"/><path d="M43.158 59.063h-8.437v-8.438h8.437v8.438zm-5.625-2.813h2.813v-2.813h-2.813v2.813zm14.063-1.406h-2.813v4.218h2.813v-4.218z" fill="#222829"/><path d="M85.346 75.938h-2.813V33.75a2.82 2.82 0 0 0-2.812-2.813h-67.5a2.82 2.82 0 0 0-2.813 2.813v42.188H6.596V33.75c0-3.094 2.531-5.625 5.625-5.625h67.5c3.093 0 5.625 2.531 5.625 5.625v42.188z" fill="#222829"/><path d="M79.72 75.938h-67.5V16.874h47.813V8.437h19.688v5.626h-2.813V11.25H62.846v5.625H79.72v8.438H60.033v-5.625h-45v53.437h61.875V36.562H17.846V33.75H79.72v42.188zM62.847 22.5h14.062v-2.813H62.846V22.5z" fill="#222829"/><path d="M74.096 39.375h-2.813v2.813h2.813v-2.813zm0 28.125h-2.813v2.813h2.813V67.5zm-53.438 0h-2.812v2.813h2.812V67.5zm0-28.125h-2.812v2.813h2.812v-2.813z" fill="#222829"/></g><defs><clipPath id="a"><path fill="#fff" transform="translate(.97)" d="M0 0h90v90H0z"/></clipPath></defs></svg>