<svg width="55" height="47" viewBox="0 0 55 47" fill="none" xmlns="http://www.w3.org/2000/svg"><path d="M16.406 34.813c9.061 0 16.407-7.346 16.407-16.407C32.813 9.346 25.466 2 16.405 2 7.346 2 0 9.345 0 18.406s7.345 16.407 16.406 16.407z" fill="#FFE68D"/><path d="M43.281 29.031a.597.597 0 0 1-.39-.156c-.47-.234-11.328-7.422-11.328-21.719V5.594c0-.469.312-.782.78-.782h2.891L42.891.204a.71.71 0 0 1 .78 0l7.657 4.61h2.89c.47 0 .782.312.782.78v1.563c0 14.297-10.86 21.485-11.328 21.719a.597.597 0 0 1-.39.156zM33.125 6.375v.781c0 11.953 8.203 18.672 10.156 20.157 1.953-1.485 10.157-8.282 10.157-20.157v-.781h-2.344c-.157 0-.313 0-.39-.078L43.28 1.844l-7.42 4.453c-.078.078-.234.078-.39.078h-2.344z" fill="#363F40"/><path d="M43.281 25.36l-.547-.47c-.312-.234-8.047-7.343-8.047-16.171v-.781h2.11l6.484-4.063 6.485 4.063h2.109v.78c0 8.829-7.734 15.938-8.047 16.173l-.547.468zM36.25 9.5c.39 6.563 5.39 12.11 7.031 13.75 1.64-1.64 6.64-7.266 7.032-13.75h-1.016L43.28 5.75 37.266 9.5H36.25zm-25 6.25H9.687v1.563h1.563V15.75zm3.125 0h-1.563v1.563h1.563V15.75zm3.125 0h-1.563v1.563H17.5V15.75zm3.125 3.125H9.687v1.563h10.938v-1.563zM14.375 22H9.687v1.563h4.688V22zM17.5 40.75h-1.563V34.5c0-.469.313-.781.782-.781h1.406l-2.969-3.516-2.969 3.516h1.407c.469 0 .781.312.781.781v6.25h-1.563v-5.469H10.47c-.313 0-.547-.156-.703-.468-.157-.313-.079-.626.078-.86l4.687-5.469a.85.85 0 0 1 1.172 0l4.688 5.47c.234.233.234.546.078.858-.078.313-.313.47-.625.47H17.5v5.468zm21.875 0h-1.563V34.5c0-.469.313-.781.782-.781H40l-2.969-3.516-2.968 3.516h1.406c.468 0 .781.312.781.781v6.25h-1.563v-5.469h-2.343c-.313 0-.547-.156-.703-.468-.157-.313-.078-.626.078-.86l4.687-5.469a.85.85 0 0 1 1.172 0l4.688 5.47c.234.233.234.546.078.858-.078.313-.313.47-.625.47h-2.344v5.468zM20.625 9.5H5.781v1.563h14.844V9.5zm25.781 32.813H5.781v1.562h40.625v-1.563z" fill="#363F40"/><path d="M45.625 47H6.562A1.568 1.568 0 0 1 5 45.437v-37.5c0-.859.703-1.562 1.563-1.562H30v14.063h-7.813v-12.5H6.563v37.5h39.063V29.03h1.563v16.407c0 .859-.704 1.562-1.563 1.562zM23.75 18.875h4.688V7.937H23.75v10.938z" fill="#363F40"/></svg>