<svg width="92" height="95" viewBox="0 0 92 95" fill="none" xmlns="http://www.w3.org/2000/svg"><path d="M30.094 94.703c16.31 0 29.531-13.32 29.531-29.752S46.403 35.199 30.094 35.199C13.784 35.199.562 48.519.562 64.95s13.222 29.752 29.532 29.752z" fill="#FFE68D"/><path d="M50.781 90.673c-21.656 0-39.375-17.851-39.375-39.67 0-21.817 17.719-39.669 39.375-39.669 21.657 0 39.375 17.852 39.375 39.67s-17.719 39.67-39.375 39.67zm0-76.505c-20.11 0-36.562 16.576-36.562 36.836 0 20.26 16.453 36.836 36.562 36.836 20.11 0 36.563-16.576 36.563-36.836 0-20.26-16.453-36.836-36.563-36.836z" fill="#363F40"/><path d="M50.781 14.168c-3.937 0-7.031-3.117-7.031-7.084C43.75 3.117 46.844 0 50.781 0c3.938 0 7.032 3.117 7.032 7.084 0 3.967-3.094 7.084-7.032 7.084zm0-11.334c-2.39 0-4.218 1.841-4.218 4.25 0 2.408 1.828 4.25 4.218 4.25 2.39 0 4.219-1.842 4.219-4.25 0-2.409-1.828-4.25-4.219-4.25zm1.407 14.167h-2.813v2.834h2.813V17zm-5.2 35.819L30.084 69.852l1.989 2.004 16.904-17.03-1.989-2.004zM20.86 18.854l-1.99 2.002 4.18 4.204 1.99-2.002-4.18-4.204zm-1.016 30.733H17.03v2.833h2.813v-2.833zm64.687 0H81.72v2.833h2.812v-2.833zM52.188 82.173h-2.813v2.833h2.813v-2.833z" fill="#363F40"/><path d="M50.781 56.67c-3.093 0-5.625-2.55-5.625-5.666 0-3.117 2.532-5.667 5.625-5.667 3.094 0 5.625 2.55 5.625 5.667s-2.531 5.667-5.625 5.667zm0-8.5c-1.547 0-2.812 1.275-2.812 2.834 0 1.558 1.265 2.833 2.812 2.833s2.813-1.275 2.813-2.833c0-1.559-1.266-2.834-2.813-2.834zM15.625 25.502c-.422 0-.703-.142-.984-.425l-4.22-4.25a1.376 1.376 0 0 1 0-1.984l8.438-8.5c.563-.567 1.407-.567 1.97 0l4.218 4.25a1.377 1.377 0 0 1 0 1.983l-8.438 8.5c-.28.284-.562.426-.984.426zm-2.25-5.667l2.25 2.267 6.469-6.518-2.25-2.266-6.469 6.517zm67.325-.981l-4.176 4.207 1.99 2.004 4.175-4.208-1.988-2.003z" fill="#363F40"/><path d="M85.938 25.502c-.422 0-.704-.142-.985-.425l-8.437-8.5a1.377 1.377 0 0 1 0-1.984l4.218-4.25c.563-.567 1.407-.567 1.97 0l8.437 8.5a1.377 1.377 0 0 1 0 1.983l-4.22 4.25c-.28.284-.562.426-.984.426zm-6.47-9.917l6.47 6.517 2.25-2.267-6.47-6.517-2.25 2.267zM50.781 79.34c-7.453 0-14.625-2.976-19.828-8.36l1.969-1.983c4.781 4.817 11.11 7.509 17.86 7.509 13.921 0 25.312-11.476 25.312-25.502 0-14.026-11.39-25.502-25.313-25.502v-2.834c15.469 0 28.125 12.751 28.125 28.336 0 15.584-12.656 28.335-28.125 28.335z" fill="#363F40"/><path d="M50.781 70.838c-5.203 0-10.265-2.125-13.922-5.808l1.97-1.984c3.233 3.259 7.452 4.959 11.952 4.959 9.282 0 16.875-7.65 16.875-17.001s-7.594-17.002-16.875-17.002V31.17c10.828 0 19.688 8.926 19.688 19.835s-8.86 19.834-19.688 19.834zM25.469 49.587h-2.813v2.833h2.813v-2.833zm5.625 0H28.28v2.833h2.813v-2.833zm5.625 0h-2.813v2.833h2.813v-2.833z" fill="#363F40"/><path d="M42.344 49.587H39.53v2.833h2.813v-2.833zm9.844-42.503h-2.813v5.667h2.813V7.084z" fill="#363F40"/></svg>