<svg width="102" height="90" viewBox="0 0 102 90" fill="none" xmlns="http://www.w3.org/2000/svg"><path d="M30.527 59.063c16.31 0 29.532-13.222 29.532-29.532C60.059 13.221 46.837 0 30.527 0 14.217 0 .997 13.222.997 29.531c0 16.31 13.22 29.532 29.53 29.532z" fill="#FFE68D"/><path d="M80.902 57.656c-.28 0-.562-.14-.703-.281-.843-.422-20.39-13.36-20.39-39.094V15.47c0-.844.562-1.406 1.406-1.406h5.203l13.781-8.297a1.277 1.277 0 0 1 1.407 0l13.78 8.296h5.204c.844 0 1.406.563 1.406 1.407v2.812c0 25.735-19.547 38.672-20.39 39.094-.141.14-.422.281-.704.281zm-18.28-40.781v1.406c0 21.516 14.765 33.61 18.28 36.282 3.516-2.672 18.282-14.907 18.282-36.282v-1.406h-4.22c-.28 0-.562 0-.702-.14l-13.36-8.016-13.359 8.015c-.14.141-.422.141-.703.141h-4.22z" fill="#363F40"/><path d="M80.902 51.047l-.984-.844c-.563-.422-14.484-13.219-14.484-29.11v-1.405h3.797l11.671-7.313 11.672 7.313h3.797v1.406c0 15.89-13.922 28.687-14.484 29.11l-.985.843zM68.246 22.5c.703 11.813 9.703 21.797 12.656 24.75 2.954-2.953 11.954-13.078 12.657-24.75H91.73l-10.829-6.75-10.828 6.75h-1.828zm-45 11.25h-2.812v2.813h2.812V33.75zm5.625 0H26.06v2.813h2.812V33.75zm5.625 0h-2.812v2.813h2.812V33.75zm5.625 5.625H20.434v2.813H40.12v-2.813zM28.871 45h-8.437v2.813h8.437V45zm5.625 33.75h-2.812V67.5c0-.844.562-1.406 1.406-1.406h2.531l-5.344-6.328-5.343 6.328h2.53c.845 0 1.407.562 1.407 1.406v11.25H26.06v-9.844h-4.22c-.562 0-.983-.281-1.265-.844-.281-.562-.14-1.124.14-1.546l8.438-9.844c.563-.563 1.547-.563 2.11 0l8.437 9.844c.422.421.422.984.14 1.546-.14.563-.562.844-1.124.844h-4.219v9.844zm39.375 0H71.06V67.5c0-.844.562-1.406 1.406-1.406h2.531l-5.344-6.328-5.343 6.328h2.53c.845 0 1.407.562 1.407 1.406v11.25h-2.812v-9.844h-4.22c-.562 0-.983-.281-1.265-.844-.281-.562-.14-1.124.14-1.546l8.438-9.844c.563-.563 1.547-.563 2.11 0l8.437 9.844c.422.421.422.984.14 1.546-.14.563-.562.844-1.124.844H73.87v9.844zM40.121 22.5H13.402v2.813h26.72V22.5zm46.406 59.063H13.402v2.812h73.125v-2.813z" fill="#363F40"/><path d="M85.121 90H14.81a2.82 2.82 0 0 1-2.813-2.813v-67.5a2.82 2.82 0 0 1 2.813-2.812h42.187v25.313H42.934v-22.5H14.809v67.5H85.12V57.656h2.813v29.532A2.82 2.82 0 0 1 85.12 90zM45.746 39.375h8.438V19.687h-8.438v19.688z" fill="#363F40"/></svg>