<svg width="55" height="47" viewBox="0 0 55 47" fill="none" xmlns="http://www.w3.org/2000/svg"><path d="M16.406 32.813c9.061 0 16.407-7.346 16.407-16.407C32.813 7.346 25.466 0 16.405 0 7.346 0 0 7.345 0 16.406s7.345 16.407 16.406 16.407z" fill="#FFE68D"/><path d="M12.813 7.813H11.25v31.25h1.563V7.813zm35.937 0h-1.563v31.25h1.563V7.813z" fill="#363F40"/><path d="M50.313 39.844h-4.688V38.28h4.688a3.134 3.134 0 0 0 3.124-3.125V11.72a3.134 3.134 0 0 0-3.124-3.125h-4.688V7.03h4.688A4.701 4.701 0 0 1 55 11.72v23.437a4.701 4.701 0 0 1-4.688 4.688zm-35.938 0H9.687A4.701 4.701 0 0 1 5 35.156V11.72a4.701 4.701 0 0 1 4.688-4.69h4.687v1.563H9.687a3.134 3.134 0 0 0-3.124 3.125v23.437a3.134 3.134 0 0 0 3.125 3.125h4.687v1.563z" fill="#363F40"/><path d="M9.688 18.75H8.124v9.375h1.563V18.75zm42.187 3.125h-1.563V25h1.563v-3.125zM50.313 3.906H48.75c0-1.328-1.016-2.344-2.344-2.344-1.328 0-2.343 1.016-2.343 2.344H42.5A3.868 3.868 0 0 1 46.406 0a3.868 3.868 0 0 1 3.907 3.906zm-32.813 0h-1.563A3.868 3.868 0 0 1 19.845 0v1.563c-1.328 0-2.344 1.015-2.344 2.343z" fill="#363F40"/><path d="M46.406 0H19.844v1.563h26.562V0zm3.907 3.906H48.75V5.47h1.563V3.906zm-8.594 42.969a.709.709 0 0 1-.547-.234l-1.797-1.797-1.797 1.797a.755.755 0 0 1-1.094 0l-1.797-1.797-1.796 1.797a.755.755 0 0 1-1.094 0L30 44.844l-1.797 1.797a.755.755 0 0 1-1.094 0l-1.797-1.797-1.796 1.797a.755.755 0 0 1-1.094 0l-1.797-1.797-1.797 1.797a.755.755 0 0 1-1.094 0l-1.562-1.563a.709.709 0 0 1-.235-.547V3.906H17.5V44.22l.781.781 1.797-1.797a.755.755 0 0 1 1.094 0L22.969 45l1.797-1.797a.755.755 0 0 1 1.093 0L27.656 45l1.797-1.797a.755.755 0 0 1 1.094 0L32.344 45l1.797-1.797a.755.755 0 0 1 1.093 0L37.031 45l1.797-1.797a.755.755 0 0 1 1.094 0L41.719 45l.781-.781V3.906h1.563v40.625c0 .235-.079.39-.235.547l-1.562 1.563a.709.709 0 0 1-.547.234z" fill="#363F40"/><path d="M30 28.906a3.134 3.134 0 0 1-3.125-3.125h1.563c0 .86.703 1.563 1.562 1.563.86 0 1.563-.703 1.563-1.563 0-.468-1.094-1.25-1.875-1.64-.47-.235-2.813-1.328-2.813-3.047A3.134 3.134 0 0 1 30 17.969a3.134 3.134 0 0 1 3.125 3.125h-1.563c0-.86-.703-1.563-1.562-1.563-.86 0-1.563.703-1.563 1.563 0 .468 1.094 1.25 1.875 1.64.47.235 2.813 1.328 2.813 3.047A3.134 3.134 0 0 1 30 28.906z" fill="#363F40"/><path d="M30.781 16.406H29.22v2.344h1.562v-2.344zm0 11.719H29.22v2.344h1.562v-2.344zm5.469-5.469h-1.563v1.563h1.563v-1.563zm-10.937 0H23.75v1.563h1.563v-1.563zm14.062-12.5h-18.75v1.563h18.75v-1.563zm-8.594-3.125H29.22v1.563h1.562V7.03zm-3.125 0h-1.562v1.563h1.562V7.03zm6.25 0h-1.562v1.563h1.562V7.03zm5.469 28.125h-18.75v1.563h18.75v-1.563zm-8.594 3.125H29.22v1.563h1.562V38.28zm-3.125 0h-1.562v1.563h1.562V38.28zm6.25 0h-1.562v1.563h1.562V38.28z" fill="#363F40"/></svg>