<svg width="96" height="97" viewBox="0 0 96 97" fill="none" xmlns="http://www.w3.org/2000/svg"><path d="M35 97c17.397 0 31.5-14.103 31.5-31.5S52.397 34 35 34 3.5 48.103 3.5 65.5 17.603 97 35 97z" fill="#FFE68D"/><path d="M79.5 40.5c-5.1 0-9-4.8-9-11.25 0-4.5 1.05-9.75 9-9.75s9 5.25 9 9.75c0 6.45-3.9 11.25-9 11.25zm0-18c-4.5 0-6 1.65-6 6.75 0 4.05 2.1 8.25 6 8.25s6-4.2 6-8.25c0-5.1-1.5-6.75-6-6.75z" fill="#363F40"/><path d="M74.206 36.225l-7.46 4.477 1.544 2.573 7.46-4.477-1.544-2.573zM91.5 52.5h-9v-3h9c.45 0 1.5-1.2 1.5-3v-2.1l-9.75-5.55 1.5-2.55L96 42.75v3.75c0 3.3-2.1 6-4.5 6zm-75-12c-5.1 0-9-4.8-9-11.25 0-4.5 1.05-9.75 9-9.75s9 5.25 9 9.75c0 6.45-3.9 11.25-9 11.25zm0-18c-4.5 0-6 1.65-6 6.75 0 4.05 2.1 8.25 6 8.25s6-4.2 6-8.25c0-5.1-1.5-6.75-6-6.75z" fill="#363F40"/><path d="M21.793 36.226l-1.544 2.572 7.46 4.476 1.544-2.572-7.46-4.476zM13.5 52.5h-9c-2.4 0-4.5-2.7-4.5-6v-3.9l11.25-6.45 1.5 2.55L3 44.4v2.1c0 1.8 1.05 3 1.5 3h9v3zm3 29.5h-3V64.5c0-12 6.6-14.55 13.8-17.25 2.55-1.05 5.25-1.95 8.1-3.6l1.5 2.55c-2.85 1.65-5.85 2.85-8.4 3.75-7.05 2.7-11.85 4.5-11.85 14.4V82h-.15zm66 0h-3V64.5c0-9.9-4.65-11.7-11.85-14.4-2.55-1.05-5.55-2.1-8.4-3.75l1.5-2.55c2.7 1.5 5.4 2.55 8.1 3.6 7.05 2.55 13.65 5.1 13.65 17.1V82z" fill="#363F40"/><path d="M54.3 52.8L48 49.65l-6.3 3.15-7.65-7.65 4.2-6.3L48 40.5l9.75-1.65 4.2 6.3-7.65 7.65zM48 46.35l5.7 2.85 4.35-4.35-1.8-2.7L48 43.5l-8.25-1.35-1.8 2.7 4.35 4.35 5.7-2.85z" fill="#363F40"/><path d="M57 34.5h-3v6h3v-6zm-15 0h-3v6h3v-6zM49.5 60h-3v3h3v-3zm0-6h-3v3h3v-3z" fill="#363F40"/><path d="M48 37.5c-.15 0-4.95 0-8.1-1.65l-.15-.15c-.15-.15-5.1-3.45-6.6-14.55V15c0-9.9 5.1-15 15-15s15 5.1 15 15v6.15c-1.65 11.1-6.45 14.4-6.6 14.55l-.15.15c-3.45 1.65-8.25 1.65-8.4 1.65zm-6.75-4.35c2.7 1.35 6.6 1.35 6.75 1.35.15 0 4.05 0 6.75-1.35.45-.45 4.05-3.45 5.25-12.3V15c0-8.25-3.75-12-12-12S36 6.75 36 15v5.85c1.35 8.85 4.8 12 5.25 12.3z" fill="#363F40"/><path d="M55.5 19.65l-15-6-5.4 2.7-1.2-2.7 6.6-3.3 15 6 5.4-2.7 1.2 2.7-6.6 3.3zM28.5 66h-3v16h3V66zm42 0h-3v16h3V66z" fill="#363F40"/></svg>