<svg width="90" height="90" viewBox="0 0 90 90" fill="none" xmlns="http://www.w3.org/2000/svg"><path d="M60.469 59.063C76.779 59.063 90 45.84 90 29.53 90 13.221 76.778 0 60.469 0c-16.31 0-29.532 13.222-29.532 29.531 0 16.31 13.222 29.532 29.532 29.532z" fill="#FFE68D"/><path d="M59.063 74.531H30.936V71.72H56.25V19.688H2.812v52.03h5.626v2.813H0V16.875h59.063v57.656z" fill="#363F40"/><path d="M53.438 54.844H11.25v2.812h42.188v-2.812zm0 5.625h-22.5v2.812h22.5V60.47zM36.563 47.813c-.141 0-.422 0-.563-.141-.563-.281-.844-.703-.844-1.266v-4.218H1.406v-2.813h35.157c.843 0 1.406.563 1.406 1.406v2.813l9-7.032-9-7.03v2.812c0 .843-.563 1.406-1.407 1.406H1.407v-2.813h33.75V26.72c0-.563.282-.985.844-1.266.422-.281 1.125-.14 1.547.14l12.656 9.845c.281.28.563.703.563 1.124 0 .422-.141.844-.563 1.126L37.547 47.53c-.422.14-.703.282-.984.282zM8.438 66.094H0v-11.25h8.438v11.25zM2.811 63.28h2.813v-5.625H2.812v5.625zM90 68.906h-8.438V60.47H90v8.437zm-5.625-2.812h2.813V63.28h-2.813v2.813zM19.688 90a9.783 9.783 0 0 1-9.844-9.844 9.783 9.783 0 0 1 9.844-9.844 9.783 9.783 0 0 1 9.843 9.844A9.783 9.783 0 0 1 19.688 90zm0-16.875c-3.938 0-7.032 3.094-7.032 7.031 0 3.938 3.094 7.031 7.031 7.031 3.938 0 7.032-3.093 7.032-7.03 0-3.938-3.094-7.032-7.032-7.032z" fill="#363F40"/><path d="M19.688 82.969a2.813 2.813 0 1 0 0-5.625 2.813 2.813 0 0 0 0 5.625zM73.125 90a9.783 9.783 0 0 1-9.844-9.844 9.783 9.783 0 0 1 9.844-9.844 9.783 9.783 0 0 1 9.844 9.844A9.783 9.783 0 0 1 73.125 90zm0-16.875c-3.938 0-7.031 3.094-7.031 7.031 0 3.938 3.094 7.031 7.031 7.031 3.938 0 7.031-3.093 7.031-7.03 0-3.938-3.094-7.032-7.031-7.032z" fill="#363F40"/><path d="M73.125 82.969a2.813 2.813 0 1 0 0-5.625 2.813 2.813 0 0 0 0 5.625zM90 74.531h-5.625V71.72h2.813V56.672L75.233 37.969h-16.17v33.75h2.812v2.812H56.25V35.156h20.39L90 55.828v18.703z" fill="#363F40"/><path d="M88.594 54.844H63.28v2.812h25.313v-2.812z" fill="#363F40"/><path d="M64.688 68.906h-2.813V40.781H78.75v2.813H64.687v25.312z" fill="#363F40"/><path d="M70.313 60.469H67.5v2.812h2.813V60.47zM90 87.188H0V90h90v-2.813zM29.531 45H26.72v2.813h2.812V45zm-5.625 0h-2.812v2.813h2.812V45zm-5.625 0H15.47v2.813h2.812V45z" fill="#363F40"/></svg>