<svg width="101" height="91" viewBox="0 0 101 91" fill="none" xmlns="http://www.w3.org/2000/svg"><path d="M30.528 59.063c16.31 0 29.532-13.222 29.532-29.532C60.06 13.221 46.838 0 30.528 0 14.218 0 .998 13.222.998 29.531c0 16.31 13.22 29.532 29.53 29.532z" fill="#FFE68D"/><path d="M25.06 20.063h-2.813v56.25h2.813v-56.25zm64.687 0h-2.812v56.25h2.812v-56.25z" fill="#363F40"/><path d="M92.56 77.719h-8.438v-2.813h8.438c3.093 0 5.625-2.531 5.625-5.625V27.094c0-3.094-2.532-5.625-5.625-5.625h-8.438v-2.813h8.438c4.64 0 8.437 3.797 8.437 8.438V69.28c0 4.64-3.797 8.438-8.437 8.438zm-64.688 0h-8.437c-4.641 0-8.438-3.797-8.438-8.438V27.094c0-4.64 3.797-8.438 8.438-8.438h8.437v2.813h-8.437c-3.094 0-5.625 2.531-5.625 5.625V69.28c0 3.094 2.53 5.625 5.625 5.625h8.437v2.813z" fill="#363F40"/><path d="M19.435 39.75h-2.813v16.875h2.813V39.75zm75.937 5.625H92.56V51h2.812v-5.625zM92.56 13.031h-2.813c0-2.39-1.828-4.219-4.219-4.219-2.39 0-4.218 1.829-4.218 4.22h-2.813C78.497 9.093 81.591 6 85.528 6c3.938 0 7.032 3.094 7.032 7.031zm-59.063 0h-2.812c0-3.937 3.093-7.031 7.03-7.031v2.813c-2.39 0-4.218 1.828-4.218 4.218z" fill="#363F40"/><path d="M85.528 6H37.716v2.813h47.812V6zm7.032 7.031h-2.813v2.813h2.813V13.03zM77.09 90.375c-.421 0-.702-.14-.984-.422l-3.234-3.234-3.234 3.234a1.36 1.36 0 0 1-1.97 0l-3.233-3.234-3.235 3.234a1.36 1.36 0 0 1-1.969 0l-3.234-3.234-3.234 3.234a1.36 1.36 0 0 1-1.97 0L47.56 86.72l-3.235 3.234a1.36 1.36 0 0 1-1.969 0l-3.234-3.234-3.234 3.234a1.36 1.36 0 0 1-1.97 0l-2.812-2.812c-.28-.282-.421-.563-.421-.985V13.031h2.812v72.563L34.903 87l3.235-3.234a1.36 1.36 0 0 1 1.968 0L43.341 87l3.234-3.234a1.36 1.36 0 0 1 1.969 0L51.778 87l3.235-3.234a1.36 1.36 0 0 1 1.968 0L60.216 87l3.234-3.234a1.36 1.36 0 0 1 1.969 0L68.653 87l3.235-3.234a1.36 1.36 0 0 1 1.968 0L77.091 87l1.406-1.406V13.03h2.813v73.125c0 .422-.141.703-.422.985l-2.813 2.812c-.281.281-.562.422-.984.422z" fill="#363F40"/><path d="M55.997 58.031c-3.094 0-5.625-2.531-5.625-5.625h2.813a2.82 2.82 0 0 0 2.812 2.813 2.82 2.82 0 0 0 2.813-2.813c0-.843-1.97-2.25-3.375-2.953-.844-.422-5.063-2.39-5.063-5.484s2.531-5.625 5.625-5.625 5.625 2.531 5.625 5.625H58.81a2.82 2.82 0 0 0-2.813-2.813 2.82 2.82 0 0 0-2.812 2.813c0 .843 1.968 2.25 3.375 2.953.843.422 5.062 2.39 5.062 5.484s-2.531 5.625-5.625 5.625z" fill="#363F40"/><path d="M57.403 35.531h-2.812v4.219h2.812v-4.219zm0 21.094h-2.812v4.219h2.812v-4.219zm9.844-9.844h-2.812v2.813h2.812V46.78zm-19.687 0h-2.813v2.813h2.813V46.78zm25.312-22.5h-33.75v2.813h33.75V24.28zm-15.469-5.625h-2.812v2.813h2.812v-2.813zm-5.625 0h-2.812v2.813h2.812v-2.813zm11.25 0h-2.812v2.813h2.812v-2.813zm9.844 50.625h-33.75v2.813h33.75V69.28zm-15.469 5.625h-2.812v2.813h2.812v-2.813zm-5.625 0h-2.812v2.813h2.812v-2.813zm11.25 0h-2.812v2.813h2.812v-2.813z" fill="#363F40"/></svg>