<svg width="90" height="90" viewBox="0 0 90 90" fill="none" xmlns="http://www.w3.org/2000/svg"><path d="M28.124 56.25c15.533 0 28.125-12.592 28.125-28.125S43.657 0 28.124 0-.001 12.592-.001 28.125 12.591 56.25 28.124 56.25z" fill="#FFE68D"/><path d="M60.468 78.75H33.749v2.813h26.719V78.75zm2.812-5.625H30.936v2.813H63.28v-2.813z" fill="#363F40"/><path d="M16.874 81.563c-7.734 0-14.062-6.329-14.062-14.063 0-7.734 6.328-14.063 14.062-14.063h60.469c.843 0 1.406.563 1.406 1.407 0 3.937-3.094 7.031-7.031 7.031H16.874c-3.094 0-5.625 2.531-5.625 5.625s2.531 5.625 5.625 5.625h2.813v2.813h-2.813c-4.64 0-8.437-3.797-8.437-8.438 0-4.64 3.796-8.438 8.437-8.438h54.844c1.828 0 3.375-1.124 3.937-2.812H16.874c-6.187 0-11.25 5.063-11.25 11.25 0 6.188 5.063 11.25 11.25 11.25v2.813zM68.905 90a9.783 9.783 0 0 1-9.843-9.844 9.783 9.783 0 0 1 9.843-9.844 9.783 9.783 0 0 1 9.844 9.844A9.783 9.783 0 0 1 68.905 90zm0-16.875c-3.937 0-7.031 3.094-7.031 7.031 0 3.938 3.094 7.031 7.031 7.031 3.938 0 7.031-3.093 7.031-7.03 0-3.938-3.093-7.032-7.03-7.032z" fill="#363F40"/><path d="M25.311 90a9.783 9.783 0 0 1-9.843-9.844 9.783 9.783 0 0 1 9.843-9.844 9.783 9.783 0 0 1 9.844 9.844A9.783 9.783 0 0 1 25.311 90zm0-16.875c-3.937 0-7.03 3.094-7.03 7.031 0 3.938 3.093 7.031 7.03 7.031 3.938 0 7.032-3.093 7.032-7.03 0-3.938-3.094-7.032-7.032-7.032zM77.343 56.25H16.874c-.844 0-1.406-.563-1.406-1.406V23.906h2.812v29.532h58.078l10.266-28.126H21.093V22.5h67.5c.422 0 .843.281 1.125.563.281.421.281.843.14 1.265l-11.25 30.938c-.14.562-.703.984-1.265.984zm-64.688 0H9.843v-45A2.82 2.82 0 0 0 7.03 8.437V5.626c3.094 0 5.625 2.531 5.625 5.625v45z" fill="#363F40"/><path d="M18.28 23.906h-2.812V11.25a2.82 2.82 0 0 0-2.813-2.813V5.626c3.094 0 5.625 2.531 5.625 5.625v12.656z" fill="#363F40"/><path d="M12.655 5.625H0v2.813h12.656V5.624zm77.344 81.563h-90V90h90v-2.813zM73.124 36.563c-2.11 0-3.094-1.126-3.797-1.829-.703-.703-.984-.984-1.828-.984-.844 0-1.125.281-1.828.984-.703.703-1.688 1.828-3.797 1.828-2.11 0-3.094-1.124-3.797-1.828-.703-.703-.984-.984-1.828-.984-.844 0-1.125.281-1.828.984-.703.703-1.688 1.828-3.797 1.828-2.11 0-3.094-1.124-3.797-1.828-.703-.703-.984-.984-1.828-.984-.844 0-1.125.281-1.828.984-.703.703-1.688 1.828-3.797 1.828-2.11 0-3.094-1.124-3.797-1.828-.703-.703-.984-.984-1.828-.984-.844 0-1.125.281-1.828.984-.703.703-1.688 1.828-3.797 1.828-2.11 0-3.094-1.124-3.797-1.828-.703-.703-.984-.984-1.828-.984v-2.813c2.11 0 3.094 1.125 3.797 1.829.562.703.844.984 1.828.984.984 0 1.125-.281 1.828-.984.703-.844 1.688-1.828 3.797-1.828 2.11 0 3.094 1.125 3.797 1.828.562.703.844.984 1.828.984.984 0 1.125-.281 1.828-.984.703-.844 1.688-1.828 3.797-1.828 2.11 0 3.094 1.125 3.797 1.828.562.703.844.984 1.828.984.984 0 1.125-.281 1.828-.984.703-.844 1.688-1.828 3.797-1.828 2.11 0 3.094 1.125 3.797 1.828.562.703.844.984 1.828.984.984 0 1.125-.281 1.828-.984.703-.844 1.688-1.828 3.797-1.828 2.11 0 3.094 1.125 3.797 1.828.562.703.844.984 1.828.984.844 0 1.125-.281 1.828-.984.703-.844 1.688-1.828 3.797-1.828v2.812c-.844 0-1.125.281-1.828.984-.703.703-1.688 1.828-3.797 1.828zm0 11.25c-2.11 0-3.094-1.126-3.797-1.829-.703-.703-.984-.984-1.828-.984-.844 0-1.125.281-1.828.984-.703.703-1.688 1.828-3.797 1.828-2.11 0-3.094-1.124-3.797-1.828-.703-.703-.984-.984-1.828-.984-.844 0-1.125.281-1.828.984-.703.703-1.688 1.828-3.797 1.828-2.11 0-3.094-1.124-3.797-1.828C46.124 45.281 45.843 45 45 45c-.844 0-1.125.281-1.828.984-.703.703-1.688 1.828-3.797 1.828-2.11 0-3.094-1.124-3.797-1.828-.703-.703-.984-.984-1.828-.984-.844 0-1.125.281-1.828.984-.703.703-1.688 1.828-3.797 1.828-2.11 0-3.094-1.124-3.797-1.828-.703-.703-.984-.984-1.828-.984v-2.813c2.11 0 3.094 1.126 3.797 1.829.562.703.844.984 1.828.984.984 0 1.125-.281 1.828-.984.703-.844 1.688-1.828 3.797-1.828 2.11 0 3.094 1.124 3.797 1.828.562.703.844.984 1.828.984.984 0 1.125-.281 1.828-.984.703-.844 1.688-1.828 3.797-1.828 2.11 0 3.094 1.124 3.797 1.828.562.703.844.984 1.828.984.984 0 1.125-.281 1.828-.984.703-.844 1.688-1.828 3.797-1.828 2.11 0 3.094 1.124 3.797 1.828.562.703.844.984 1.828.984.984 0 1.125-.281 1.828-.984.703-.844 1.688-1.828 3.797-1.828 2.11 0 3.094 1.124 3.797 1.828.562.703.844.984 1.828.984v2.813zM25.311 82.969a2.813 2.813 0 1 0 0-5.625 2.813 2.813 0 0 0 0 5.625zm43.594 0a2.813 2.813 0 1 0 0-5.625 2.813 2.813 0 0 0 0 5.625zm-2.812-63.281H63.28v-5.625H29.53v5.624h-2.812v-7.03c0-.845.562-1.407 1.406-1.407h36.563c.843 0 1.406.563 1.406 1.406v7.031z" fill="#363F40"/><path d="M75.936 19.688h-2.812V2.813h-22.5v5.624h-2.813v-7.03c0-.845.563-1.407 1.407-1.407H74.53c.844 0 1.406.563 1.406 1.406v18.282z" fill="#363F40"/><path d="M64.686 8.438h-5.625c-.843 0-1.406-.563-1.406-1.407V1.406c0-.843.563-1.406 1.407-1.406h5.624c.844 0 1.407.563 1.407 1.406v5.625c0 .844-.563 1.407-1.407 1.407zm-4.218-2.813h2.812V2.812h-2.812v2.813z" fill="#363F40"/></svg>