<svg xmlns="http://www.w3.org/2000/svg" width="413.159" height="200.609" viewBox="0 0 413.159 200.609"><g data-name="Group 4"><g data-name="Group 1" fill="#ffe500" fill-rule="evenodd"><path data-name="Path 1" d="M328.104 46.288c-11.2-5.325-26.751-7.832-37.317-5.545-3.346-8.366-19.371-28.795-41.912-35.4s-91.748-6.251-107.509 1.5-28.088 26.327-28.088 26.327a51.167 51.167 0 0 1-27.647 13.472c-8.114 1.165-11.373 9.949-11.373 9.949s4.029 2.114 3.3 6.516-1.7 8.981-6.277 8.013a5.652 5.652 0 0 0-1.137 2.9s5.979.712 5.539 6.611-1.914 21.59-1.914 21.59 6.052 2.888 20.493 3.5 52.389 7.925 52.389 7.925l114.287-.135 63.572-.481s-7.7-15.849-6.4-21.66c2.443-2.377 6.845-3.874 6.845-3.874s15.392-9.862 17.03-14.44c-.833-9.334-2.682-21.445-13.881-26.768z"/><path data-name="Path 2" d="M387.184 67.011h-32a1 1 0 0 0 0 2h32a1 1 0 0 0 0-2z"/><path data-name="Path 3" d="M386.743 82.047l-27.574-4.862a1 1 0 1 0-.347 1.969l27.574 4.862a1 1 0 1 0 .347-1.969z"/><path data-name="Path 4" d="M387.555 52.817a1 1 0 0 0-1.159-.811l-37.574 4.862a1 1 0 1 0 .347 1.969l37.574-4.862a1 1 0 0 0 .812-1.158z"/></g><g data-name="Group 2" fill="#cae7db" transform="translate(-99.316 -295.489)"><ellipse data-name="Ellipse 1" cx="7.642" cy="8.396" rx="7.642" ry="8.396" transform="translate(213.345 390.488)"/><ellipse data-name="Ellipse 2" cx="7.642" cy="8.396" rx="7.642" ry="8.396" transform="translate(378.931 394.231)"/><path data-name="Path 5" d="M441.263 367.71c-3.388-24.33-12.319-25.177-12.319-25.177-10.548 3.079-12.4 6.7-15.4 12.7 0 0 6.911 17.416 8.732 28.8 5.918-3.057 6.5-4.513 6.5-4.513s-9.1-8.364-5.983-26.183c3.122 3.317 8.129 11.706 6.5 25.558 8.202-5.071 12.42-8.271 11.97-11.185z"/><path data-name="Path 6" d="M286.574 318.353c-46.222-2.921-53 17.425-54.986 21.1s-5.113 10.413 1.773 11.248 92.862 3.13 99.539 3.652 8.347-3.443 7.721-6.678c-4.904-28.904-27.489-27.643-54.047-29.322z"/><path data-name="Path 7" d="M389.73 335.439a63.911 63.911 0 0 0-28.321-28.559 16.428 16.428 0 0 0-11.992 14.674s1.657 27.138 14.516 27.3 24.22-7.341 25.797-13.415z"/></g><path data-name="Path 8" d="M74.719 57.122s4.433 1.349 2.217 8.723-5.976 5.638-5.976 5.638z" fill="#ea3716"/><g data-name="Group 3" fill="#7b878d"><path data-name="Path 9" d="M70.142 74.016s-5.51-.217-5.365 6.67 0 18.921 8.99 21.531c0 0 6.162-29.071-3.625-28.201z"/><path data-name="Path 10" d="M350.084 77.575c-.925-4.627-7.4-4.858-7.4-4.858-1.848 3.846-15.5 13.263-19.973 16.116-10.873.309.926 23.366.926 23.366s.54.309 6.477 1.311c26.988-4.241 20.895-31.308 19.97-35.935z"/></g><path data-name="Union 1" d="M128.353 199.246a8.568 8.568 0 0 1-.733-3.969v-34.512a5.032 5.032 0 0 1 1-3.413 3.448 3.448 0 0 1 2.725-1.129 3.6 3.6 0 0 1 2.768 1.157 4.728 4.728 0 0 1 1.07 3.325v.967a15.8 15.8 0 0 1 4.687-4.087 11.467 11.467 0 0 1 5.508-1.3 12.754 12.754 0 0 1 6.8 1.9 13.128 13.128 0 0 1 4.907 5.567 19.439 19.439 0 0 1 1.8 8.671 21.161 21.161 0 0 1-1.04 6.782 15.226 15.226 0 0 1-2.857 5.186 12.461 12.461 0 0 1-4.292 3.223 12.682 12.682 0 0 1-5.317 1.128 11.154 11.154 0 0 1-5.757-1.376 16.449 16.449 0 0 1-4.438-4.044v12.011q0 5.274-3.838 5.274-2.262.004-2.993-1.361zm9.478-34.439q-2.272 2.608-2.271 7.676 0 4.775 2.255 7.426a7.058 7.058 0 0 0 5.6 2.652 6.427 6.427 0 0 0 3.691-1.157 7.961 7.961 0 0 0 2.725-3.472 15.771 15.771 0 0 0 .059-11.029 7.977 7.977 0 0 0-2.681-3.488 6.412 6.412 0 0 0-3.794-1.215 7.119 7.119 0 0 0-5.584 2.611zm268.9 22.749a4.792 4.792 0 0 1-1.069-3.326v-1.026a17.77 17.77 0 0 1-3.018 3.047 11.078 11.078 0 0 1-3.457 1.831 14.006 14.006 0 0 1-4.277.6 11.068 11.068 0 0 1-5.2-1.2 8.778 8.778 0 0 1-3.56-3.311 14.655 14.655 0 0 1-1.494-7.324v-15.85a5.169 5.169 0 0 1 1.085-3.589 3.7 3.7 0 0 1 2.871-1.186 3.807 3.807 0 0 1 2.929 1.2 5.088 5.088 0 0 1 1.113 3.574v12.8a19.724 19.724 0 0 0 .469 4.674 5.611 5.611 0 0 0 1.684 2.958 4.81 4.81 0 0 0 3.3 1.069 6.71 6.71 0 0 0 3.81-1.2 7.01 7.01 0 0 0 2.606-3.136q.674-1.7.674-7.44v-9.727a5.088 5.088 0 0 1 1.113-3.574 3.771 3.771 0 0 1 2.9-1.2 3.7 3.7 0 0 1 2.871 1.186 5.178 5.178 0 0 1 1.085 3.589v23.174a4.949 4.949 0 0 1-1.04 3.428 3.7 3.7 0 0 1-5.391-.044zm-44.374-.045a5.245 5.245 0 0 1-1.113-3.633v-22.267q0-5.391 3.9-5.391a3.252 3.252 0 0 1 2.871 1.26 6.958 6.958 0 0 1 .967 3.721 14 14 0 0 1 2.944-3.721 6.085 6.085 0 0 1 4.028-1.26 10.314 10.314 0 0 1 4.892 1.26 3.763 3.763 0 0 1 2.373 3.34 3.181 3.181 0 0 1-1.011 2.417 3.14 3.14 0 0 1-2.182.952 10.075 10.075 0 0 1-2.124-.542 9.865 9.865 0 0 0-2.975-.543 4.343 4.343 0 0 0-2.871.923 5.925 5.925 0 0 0-1.728 2.739 19.134 19.134 0 0 0-.85 4.321q-.234 2.506-.234 6.109v6.679a5.154 5.154 0 0 1-1.143 3.649 3.809 3.809 0 0 1-2.9 1.215 3.662 3.662 0 0 1-2.844-1.228zm-16.466.059a4.161 4.161 0 0 1-1.318-3.281 4.25 4.25 0 0 1 1.259-3.076 4.173 4.173 0 0 1 3.106-1.289 4.341 4.341 0 0 1 3.149 1.274 4.524 4.524 0 0 1 0 6.358 4.4 4.4 0 0 1-3.061 1.186 4.563 4.563 0 0 1-3.135-1.17zm-26.779 0a14.42 14.42 0 0 1-8.247-8.51 18.847 18.847 0 0 1-1.1-6.577 19.1 19.1 0 0 1 1.112-6.651 14.488 14.488 0 0 1 3.193-5.156 14.1 14.1 0 0 1 5.039-3.3 19.064 19.064 0 0 1 13.125.015 14.173 14.173 0 0 1 8.277 8.5 20.2 20.2 0 0 1-.015 13.183 14.543 14.543 0 0 1-3.222 5.186 14.233 14.233 0 0 1-5.04 3.325 17.8 17.8 0 0 1-6.591 1.157 17.314 17.314 0 0 1-6.531-1.17zm2.4-24.214a7.7 7.7 0 0 0-2.754 3.589 16.3 16.3 0 0 0-.015 11.015 7.859 7.859 0 0 0 2.725 3.588 7.071 7.071 0 0 0 4.175 1.246 6.982 6.982 0 0 0 5.786-2.74q2.152-2.738 2.153-7.573 0-4.892-2.153-7.617a6.994 6.994 0 0 0-5.786-2.725 7.161 7.161 0 0 0-4.128 1.219zm-25.428 24.128a5.846 5.846 0 0 1-2.534-3.487 23.593 23.593 0 0 1-.6-5.947V162.7h-1.056a3.809 3.809 0 0 1-2.636-.821 2.679 2.679 0 0 1-.908-2.081 2.582 2.582 0 0 1 .952-2.065 4.175 4.175 0 0 1 2.768-.806h.879v-4.8q0-1.935.1-3.032a4.462 4.462 0 0 1 .572-1.889 3.606 3.606 0 0 1 1.348-1.334 3.827 3.827 0 0 1 1.963-.512 3.949 3.949 0 0 1 2.752 1.137 3.381 3.381 0 0 1 1.04 1.86 16.791 16.791 0 0 1 .22 3.12v5.449h2.93a3.749 3.749 0 0 1 2.593.806 2.659 2.659 0 0 1 .894 2.065 2.313 2.313 0 0 1-1.274 2.256 8.265 8.265 0 0 1-3.648.645h-1.494v14.713a23.973 23.973 0 0 0 .131 2.884 2.945 2.945 0 0 0 .7 1.642 2.41 2.41 0 0 0 1.861.63 9.923 9.923 0 0 0 1.9-.249 9.911 9.911 0 0 1 1.875-.249 2.412 2.412 0 0 1 1.743.777 2.609 2.609 0 0 1 .776 1.919 3.211 3.211 0 0 1-2.109 2.959 14.252 14.252 0 0 1-6.064 1.025 10.489 10.489 0 0 1-5.674-1.265zm-17.653.073a4.792 4.792 0 0 1-1.069-3.326v-1.026a17.8 17.8 0 0 1-3.017 3.047 11.093 11.093 0 0 1-3.458 1.831 14.012 14.012 0 0 1-4.278.6 11.07 11.07 0 0 1-5.2-1.2 8.772 8.772 0 0 1-3.56-3.311 14.645 14.645 0 0 1-1.494-7.324v-15.85a5.169 5.169 0 0 1 1.085-3.589 3.7 3.7 0 0 1 2.871-1.186 3.807 3.807 0 0 1 2.93 1.2 5.088 5.088 0 0 1 1.113 3.574v12.8a19.724 19.724 0 0 0 .469 4.674 5.606 5.606 0 0 0 1.685 2.958 4.806 4.806 0 0 0 3.295 1.069 6.7 6.7 0 0 0 3.809-1.2 7.02 7.02 0 0 0 2.608-3.136q.674-1.7.673-7.44v-9.727a5.084 5.084 0 0 1 1.114-3.574 3.769 3.769 0 0 1 2.9-1.2 3.7 3.7 0 0 1 2.871 1.186 5.177 5.177 0 0 1 1.084 3.589v23.174a4.949 4.949 0 0 1-1.039 3.428 3.7 3.7 0 0 1-5.391-.044zm-33.531.029a17.136 17.136 0 0 1-2.549-3.354 24.771 24.771 0 0 1-5.61 3.384 15.7 15.7 0 0 1-6.079 1.128 11.522 11.522 0 0 1-5.405-1.215 8.9 8.9 0 0 1-3.588-3.3 8.554 8.554 0 0 1-1.26-4.512 8.079 8.079 0 0 1 2.08-5.6 10.406 10.406 0 0 1 5.713-3.105q.76-.176 3.779-.791t5.171-1.128q2.153-.513 4.673-1.245a8.34 8.34 0 0 0-1.274-4.644q-1.129-1.48-4.672-1.48a9.74 9.74 0 0 0-4.585.85 7.451 7.451 0 0 0-2.637 2.549 27.1 27.1 0 0 1-1.552 2.241 2.547 2.547 0 0 1-1.948.542 3.408 3.408 0 0 1-2.329-.864 2.815 2.815 0 0 1-.982-2.212 6.766 6.766 0 0 1 1.494-4.1 10.7 10.7 0 0 1 4.659-3.282 21 21 0 0 1 7.881-1.289 22.336 22.336 0 0 1 8.291 1.245 7.709 7.709 0 0 1 4.262 3.941 17.222 17.222 0 0 1 1.246 7.148q0 2.813-.014 4.776t-.044 4.365a16.085 16.085 0 0 0 .747 4.7 14.815 14.815 0 0 1 .747 3.15 2.95 2.95 0 0 1-1.156 2.241 3.879 3.879 0 0 1-2.623 1.011 3.534 3.534 0 0 1-2.436-1.15zm-8.189-13.564q-3.353.718-4.643 1.054a6.326 6.326 0 0 0-2.461 1.319 3.375 3.375 0 0 0-1.172 2.739 4.057 4.057 0 0 0 1.377 3.091 5.09 5.09 0 0 0 3.6 1.274 9.369 9.369 0 0 0 4.379-1.04 6.95 6.95 0 0 0 2.945-2.679q1.083-1.817 1.084-5.978v-1.143a40.154 40.154 0 0 1-5.109 1.363zm-37.105 13.489a5.245 5.245 0 0 1-1.113-3.633v-22.267q0-5.391 3.9-5.391a3.253 3.253 0 0 1 2.871 1.26 6.951 6.951 0 0 1 .967 3.721 14.031 14.031 0 0 1 2.944-3.721 6.086 6.086 0 0 1 4.029-1.26 10.314 10.314 0 0 1 4.892 1.26 3.764 3.764 0 0 1 2.372 3.34 3.178 3.178 0 0 1-1.011 2.417 3.14 3.14 0 0 1-2.182.952 10.088 10.088 0 0 1-2.124-.542 9.87 9.87 0 0 0-2.974-.543 4.342 4.342 0 0 0-2.871.923 5.925 5.925 0 0 0-1.728 2.739 19.033 19.033 0 0 0-.85 4.321q-.236 2.506-.234 6.109v6.679a5.158 5.158 0 0 1-1.143 3.649 3.812 3.812 0 0 1-2.9 1.215 3.66 3.66 0 0 1-2.845-1.228zm-32.722-3.162q-4.278-4.394-4.277-11.924a19.891 19.891 0 0 1 1.054-6.576 14.491 14.491 0 0 1 3.077-5.2 13.33 13.33 0 0 1 4.98-3.326 17.89 17.89 0 0 1 6.564-1.157 15.562 15.562 0 0 1 8.042 1.978 12.989 12.989 0 0 1 5.024 5.112 13.441 13.441 0 0 1 1.67 6.386q0 3.019-1.729 3.911a10.766 10.766 0 0 1-4.863.894h-15.649a10.61 10.61 0 0 0 1.1 4.8 7.354 7.354 0 0 0 6.754 4.19 9.566 9.566 0 0 0 2.622-.337 8.536 8.536 0 0 0 2.3-1.055 17.523 17.523 0 0 0 2.05-1.538q.938-.821 2.432-2.228a2.626 2.626 0 0 1 1.758-.526 2.894 2.894 0 0 1 1.992.674 2.406 2.406 0 0 1 .762 1.9 5.193 5.193 0 0 1-.85 2.534 10.038 10.038 0 0 1-2.562 2.784 14.592 14.592 0 0 1-4.307 2.212 18.548 18.548 0 0 1-5.962.878q-7.709.008-11.982-4.386zm6.226-20.551a10.272 10.272 0 0 0-2.329 6.109h14.5q-.293-4.1-2.211-6.138a6.624 6.624 0 0 0-5.054-2.037 6.4 6.4 0 0 0-4.91 2.065zm-59.007 23.672a5.43 5.43 0 0 1-1.157-3.765v-13.448a30.792 30.792 0 0 0-.22-4.131 4.733 4.733 0 0 0-1.186-2.607 3.785 3.785 0 0 0-2.93-1.055 5.359 5.359 0 0 0-3 .938 6.38 6.38 0 0 0-2.212 2.519q-.879 2.022-.879 7.149v10.634a5.467 5.467 0 0 1-1.142 3.78 3.881 3.881 0 0 1-3.018 1.259 3.769 3.769 0 0 1-2.944-1.259 5.515 5.515 0 0 1-1.128-3.78V170.96a41.1 41.1 0 0 0-.205-4.687 5.08 5.08 0 0 0-1.113-2.739 3.563 3.563 0 0 0-2.871-1.07q-3.927 0-5.171 2.695a19 19 0 0 0-1.246 7.736v10.81a5.53 5.53 0 0 1-1.128 3.765 3.781 3.781 0 0 1-2.974 1.274 3.837 3.837 0 0 1-2.975-1.274 5.429 5.429 0 0 1-1.156-3.765v-22.881a5.012 5.012 0 0 1 1.039-3.427 3.486 3.486 0 0 1 2.739-1.173 3.721 3.721 0 0 1 2.74 1.1 4.1 4.1 0 0 1 1.1 3.032v.762a13.935 13.935 0 0 1 4.453-3.663 11.75 11.75 0 0 1 5.274-1.171 10.543 10.543 0 0 1 5.185 1.2 9.409 9.409 0 0 1 3.575 3.633 13.882 13.882 0 0 1 4.336-3.648 11.065 11.065 0 0 1 5.126-1.186 11.683 11.683 0 0 1 5.655 1.289 8.213 8.213 0 0 1 3.545 3.691 16.95 16.95 0 0 1 1.024 6.827v15.615a5.476 5.476 0 0 1-1.141 3.78 3.884 3.884 0 0 1-3.019 1.259 3.837 3.837 0 0 1-2.98-1.275zm-49.879.117a17.172 17.172 0 0 1-2.55-3.354 24.731 24.731 0 0 1-5.61 3.384 15.693 15.693 0 0 1-6.079 1.128 11.523 11.523 0 0 1-5.405-1.215 8.907 8.907 0 0 1-3.589-3.3 8.554 8.554 0 0 1-1.26-4.512 8.079 8.079 0 0 1 2.08-5.6 10.413 10.413 0 0 1 5.713-3.105q.763-.176 3.779-.791t5.171-1.128q2.153-.513 4.673-1.245a8.347 8.347 0 0 0-1.274-4.644q-1.127-1.48-4.673-1.48a9.736 9.736 0 0 0-4.585.85 7.451 7.451 0 0 0-2.637 2.549 26.815 26.815 0 0 1-1.553 2.241 2.546 2.546 0 0 1-1.948.542 3.409 3.409 0 0 1-2.329-.864 2.811 2.811 0 0 1-.981-2.212 6.76 6.76 0 0 1 1.494-4.1 10.694 10.694 0 0 1 4.658-3.282 21.006 21.006 0 0 1 7.881-1.289 22.33 22.33 0 0 1 8.284 1.251 7.713 7.713 0 0 1 4.263 3.941 17.252 17.252 0 0 1 1.245 7.148q0 2.813-.014 4.776t-.044 4.365a16.056 16.056 0 0 0 .747 4.7 14.875 14.875 0 0 1 .747 3.15 2.949 2.949 0 0 1-1.157 2.241 3.879 3.879 0 0 1-2.622 1.011 3.536 3.536 0 0 1-2.429-1.157zm-8.188-13.564q-3.356.718-4.644 1.054a6.33 6.33 0 0 0-2.462 1.319 3.378 3.378 0 0 0-1.172 2.739 4.057 4.057 0 0 0 1.377 3.091 5.092 5.092 0 0 0 3.6 1.274 9.369 9.369 0 0 0 4.379-1.04 6.937 6.937 0 0 0 2.944-2.679q1.084-1.817 1.084-5.978v-1.143a40.216 40.216 0 0 1-5.11 1.362zM5.274 188.011a5.435 5.435 0 0 1-4.058-1.273A5.728 5.728 0 0 1 0 182.68v-32.286a5.627 5.627 0 0 1 1.245-4.088 5.532 5.532 0 0 1 4.029-1.245H19.19a32.491 32.491 0 0 1 5.333.381 11.377 11.377 0 0 1 4.043 1.465 10.6 10.6 0 0 1 2.695 2.3 10.159 10.159 0 0 1 1.787 3.077 10.279 10.279 0 0 1 .615 3.559q0 6.445-6.445 9.434 8.466 2.7 8.467 10.489a11.782 11.782 0 0 1-1.846 6.489 11.081 11.081 0 0 1-4.98 4.262 17.69 17.69 0 0 1-4.513 1.157 45.912 45.912 0 0 1-5.947.337zm3.428-6.533h9.345q8.82 0 8.819-6.358a5.179 5.179 0 0 0-2.286-4.716q-2.284-1.466-6.826-1.465H8.702zm0-18.779h7.968a16 16 0 0 0 5.026-.616 4.8 4.8 0 0 0 2.71-2.343 5.288 5.288 0 0 0 .732-2.754q0-3.252-2.314-4.322a17.7 17.7 0 0 0-7.061-1.069h-7.06zm255.038-41.672c-2.433-5.52-5.035-6.488-10.606-6.5-7.018-.013-14.034.089-21.049.192-7.316.107-14.632.214-21.948.19-10.519-.036-21.039-.014-31.559.008q-14.714.03-29.426.014a3.475 3.475 0 0 0-3.613 2.2c-5.91 11.085-15.943 16.528-27.412 15.034-11.078-1.441-20.078-9.859-22.68-21.687-.641-2.917-1.779-3.969-4.679-4.136-4.979-.286-9.969-.511-14.869-1.827-7.526-2.025-11.075-7.123-11.9-14.541a187.372 187.372 0 0 1-.754-8.823c-.24-3.7.392-6.92 4.672-8.043 1.412-.37 1.567-1.686 1.81-2.931a97.7 97.7 0 0 1 3.865-14.173c2.308-6.451 6.968-10.047 13.479-11.058 11.833-1.839 21.4-7.175 28.45-17.077a97.8 97.8 0 0 1 12.376-13.6c9.006-8.624 20.056-11.892 31.989-13.13 9.031-.937 18.105-.841 27.167-1.012a401.986 401.986 0 0 1 48.772 1.6c24.452 2.456 42.269 14.8 55.008 35.323 1.067 1.719 2.133 1.948 3.839 1.818 11.847-.9 23.071 1.523 34 6.1a17.584 17.584 0 0 1 9.707 9.471 49.972 49.972 0 0 1 4.289 13.258c.349 2.407 1.291 4.039 3.962 4.53 3.157.581 4.639 2.689 4.91 5.984.524 6.38 1.114 12.712.078 19.124a13.671 13.671 0 0 1-2.348 5.634c-7.308 10.941-18.049 13.16-30.012 11.641-4.08-.517-5.772.5-7.374 4.449-4.238 10.447-12.256 16.5-23.666 16.934-.426.016-.847.024-1.265.024-10.669-.006-18.905-5.214-23.213-14.99zM137.684 80.144c9.443 7.182 11.591 17.558 10.351 28.76-.305 2.755-.207 3.669 2.791 3.677 10.287.029 20.575.536 30.859.443 23.886-.211 47.77-.664 71.656-1.027.533-.008 1.1.033 1.676.075 1.391.1 2.794.2 3.709-.411 1.742-1.17-.058-3.592.361-5.462a31.492 31.492 0 0 0 .383-3.3c1.694-14.878 14.888-26.018 29.524-24.929 14.292 1.064 25.969 14.6 25.367 29.411-.187 4.612-.187 4.636 4.511 4.592a4.456 4.456 0 0 1 .534.04 1.7 1.7 0 0 0 1.907-.724c-2.417-5.031-3.637-10.531-4.927-16.009-.691-2.935-.139-5.893 2.833-6.739 2.614-.743 2.258-1.882 1.831-3.654a175.508 175.508 0 0 0-7.259-22.4 5.776 5.776 0 0 1 1.047-6.434 29.063 29.063 0 0 1 11.874-9c-11.44-4.658-22.561-6.862-34.279-5.348a2.677 2.677 0 0 0-1.857 1.04c-6.341 8.062-15.342 10.488-24.843 11.865a8.839 8.839 0 0 1-8.69-3.58c-3.905-4.829-5.682-10.557-7.043-16.43-2.682-11.577-.153-17.619 9.715-23.791-.755-1.121-1.973-1.348-3.136-1.688a128.5 128.5 0 0 0-25.514-5.138 450.131 450.131 0 0 0-70.422-.59c-11.451.854-21.979 4.311-30.7 12.47a150.233 150.233 0 0 0-14.459 16.185c-5.837 7.3-13.055 12.529-22.458 14.283a68.564 68.564 0 0 0-7.81 2.03c-3.057.954-6.1 2.12-8.03 4.875-.977 1.395-2.281 2.9.374 4.449 1.764 1.026 2 3.267 1.5 5.341-.409 1.67-.887 3.325-1.242 5.006-.587 2.774-1.394 5.279-6.089 4.771 4 2.412 5.748 4.679 5.175 8.661-.8 5.584-.739 11.289-1.371 16.9-.28 2.483.552 3.54 2.737 4.243 3.675 1.182 7.564.7 11.228 1.57 3.225.767 3.861-.179 3.848-3.327-.051-11.331 5.454-19.587 15.35-24.438a25.859 25.859 0 0 1 11.474-2.784c6.151.004 12.067 2.374 17.514 6.516zm182.075 12.782c.062 5.956 2.426 11.224 4.889 16.46a3.42 3.42 0 0 0 2.684 1.69c9.164 2.154 20.831-5.972 22.216-15.461a51.547 51.547 0 0 0-.48-16.3c-.5.106-.652.09-.724.16-7.444 7.3-15.737 12.5-26.766 11.054a3.225 3.225 0 0 0-.421-.03c-1.467 0-1.412 1.256-1.4 2.427zM65.945 79.259a48.537 48.537 0 0 0 1.7 14.952 8.557 8.557 0 0 0 3.04 4.912c1.672 1.181 2.567 1.151 2.705-1.215.247-4.172.633-8.334.96-12.5l.091-.011c0-2.088.121-4.185-.029-6.262-.2-2.777-2.4-3.749-4.6-3.781h-.086c-2.15 0-3.731 1.17-3.781 3.905zm276.552-4.156c-4.643 4.1-9.419 8.059-14.528 12.4a15.2 15.2 0 0 0 1.537.225c8.192.092 12.469-6.454 18.039-10.792a.94.94 0 0 0-.328-1.724 10.053 10.053 0 0 0-2.879-.883 2.706 2.706 0 0 0-1.841.774zm-13.92-25.827c-5.717 1-9.393 4.9-12.721 9.256a2.082 2.082 0 0 0-.243 2.1c3.056 8.138 6.038 16.3 7.937 24.807.14.626.346 1.319 1.149.908a20.441 20.441 0 0 0 3.085-1.952c.649-.5.192-.872-.27-1.4-4.985-5.693-5.45-12.865-6.422-19.429a31.081 31.081 0 0 1 .327-4.864c.472-2.012 2.4-3.4 3.672-1.7 2.343 3.12 4.243 1.481 6.474.4 4.531-2.187 4.738-3.655 1.11-7.148a3.877 3.877 0 0 0-2.826-1.1 7.432 7.432 0 0 0-1.273.122zm5.529 9.479c-1.248.5-2.406 1.241-3.672 1.679-1.933.671-2.21 1.736-1.571 3.643a39.685 39.685 0 0 1 2.267 17.335c9.694-5.715 10.808-7.857 8.237-16.305-.644.306-1.066.542-1.514.711-1.823.691-3.988 3.921-5.035 2.192-1.268-2.089 2.362-3 3.991-4.068 2.248-1.48 1.454-2.929.8-4.7-.389-1.046-.859-1.38-1.364-1.38-.691-.001-1.441.612-2.14.893zm-5.652 21.217a32.215 32.215 0 0 0-4.5-20.374c-.621 7.32.579 14.177 4.499 20.374zm-255.822-11.4c-.086.444-.012 1.043.627 1.093.314.025.89-.142.939-.329.784-3.016 2.674-5.9 1.41-10-1.934 3.335-2.401 6.306-2.977 9.234zm182.39-51.618c-2.642 2.852-3.593 6.326-3.643 11.706a43.59 43.59 0 0 0 6.73 19.892c1.216 1.823 2.659 3.686 5.187 3.642 9.079-.158 17.317-2.641 24.123-9 2-1.867 2.156-3.563.59-6.021a82.028 82.028 0 0 0-20.4-21.433c-2.243-1.684-4.163-2.536-5.99-2.535-2.205-.002-4.271 1.236-6.598 3.747zm-87.6 92.449a78.113 78.113 0 0 1-10.553-1.186c-3.369-.628-5.5-3.119-6.346-7.4-.24-1.223-.441-2.472-.636-3.681-.7-4.342-1.421-8.83-4.1-12.749-3.686-5.4-9-8.714-13.709-11.239-.525-.283-1.082-.533-1.62-.775a20.676 20.676 0 0 1-2.014-.993c-7.861-4.614-10.586-11.47-8.095-20.38.315-1.125.7-2.249 1.069-3.337l.231-.689a1.133 1.133 0 0 1 .051-.526 44.583 44.583 0 0 1 4.539-9.162c0-.016.007-.033.007-.049v-.026l.014-.023c9.234-15.173 21.881-22.937 38.664-23.74 5.619-.268 11.5-.405 17.5-.405 10.191 0 21.046.384 33.186 1.174 6.139.4 12.528 2.413 19.533 6.159 2.9 1.548 4.367 4.28 5.786 6.922l.219.4a195.042 195.042 0 0 1 9.736 21.463c.658 1.665 1.427 3.2 3.575 3.625 3.557.711 5.569 3.258 7.7 5.955.59.746 1.2 1.518 1.847 2.252l.1.113-.146.038a4.61 4.61 0 0 1-1.15.154 5.01 5.01 0 0 1-3.506-1.733c-2.266-2.251-5.3-4.835-8.638-4.835a6.908 6.908 0 0 0-2.915.664c-3.94 1.82-4.114 6.253-4.268 10.165a86.64 86.64 0 0 1-.068 1.522c-.2 3.65 1.5 5.522 5.376 5.9.661.064 1.343.1 2.029.1a31.3 31.3 0 0 0 8.105-1.212c.188-.05.375-.11.564-.167a5.458 5.458 0 0 1 1.6-.326 2.714 2.714 0 0 1 1.874.784l.068.062-.061.068c-1.608 1.81-3.7 2.372-5.877 2.831-2.24.472-3.03 1.5-3.021 3.926.024 6.163-.119 12.429-.257 18.489l-.114 5.136c-.114 5.612-1.089 6.629-6.507 6.8-9.059.288-18.279.3-27.193.314h-1.117c-4.118.006-8.306.035-12.355.063-4.552.031-9.258.063-13.886.063-10.105-.001-17.884-.161-25.22-.511zm44.28-1.978c4.9.02 9.81.04 14.716.028 6.854-.018 13.708-.213 20.563-.31 2.849-.041 4.08-1.348 4.078-4.318 0-7.5.049-15.012.44-22.5.18-3.449-.653-4.628-4.28-4.6-5.6.045-8.1-3.373-7.136-8.984.474-2.751 1.216-5.454 1.972-8.773-2.118 1.15-3.67 2.2-5.614 2.078-15.519-1-31.071-.951-46.6-1.508-2.943-.1-3.819.443-3.745 3.451.339 14.027.978 28.021 2.689 41.964.335 2.732 1.236 3.481 3.836 3.463q3.749-.027 7.5-.025 5.79 0 11.582.032zm-45.23-91.519c-16.7.24-29.234 8.037-39.329 24.5a40.971 40.971 0 0 0-2.3 4.557l.012.011-.241.525c-.166.41-.323.829-.475 1.25l-.1.392c-.167.632-.341 1.285-.466 1.936-2.481 12.924-.936 16.271 9.733 21.069l.21.093c.153.066.312.136.465.214 9.274 4.743 14.885 10.879 17.659 19.31a41.805 41.805 0 0 1 1.343 6.008 37.763 37.763 0 0 0 1.537 6.547 4.845 4.845 0 0 0 4.41 3.571 218.666 218.666 0 0 0 22.117 1.108q1.773.028 3.543.06c1.058.022 1.67-.129 1.982-.492s.375-1 .2-2.178a269.757 269.757 0 0 1-2.828-41.96c.019-3.233-.821-4.139-3.91-4.216-11.769-.293-23.73-.749-35.3-1.191l-10.249-.386c-2.414-.09-4.139-.8-5.126-2.112-.953-1.267-1.166-3.024-.631-5.224 3.059-12.588 16.828-24.614 30.067-26.258a197.818 197.818 0 0 1 24.528-1.391c10 0 20.007.56 29.4 1.134a33.717 33.717 0 0 1 22.648 11.493 29.689 29.689 0 0 1 7.562 21.574c.239-.251.472-.51.7-.762 1.086-1.211 2.115-2.355 3.761-2.7a1.584 1.584 0 0 0 1.165-.679c.185-.36.122-.859-.206-1.616q-.9-2.07-1.775-4.149a162.378 162.378 0 0 0-9.507-19.8 8.4 8.4 0 0 0-3.661-3.431c-7.137-3.391-12.837-5.128-18.481-5.635-9.806-.88-20.524-1.291-33.728-1.291-5.385-.007-10.699.06-14.727.117zm21.712 10.621q-.786 13.071-1.907 26.12c-.227 2.648.713 3.151 3.219 3.29 14.906.833 29.856-.047 44.749 1.3 5.4.491 6.97-1.594 5.958-7.016a30.2 30.2 0 0 0-24.866-24.411 114.184 114.184 0 0 0-15.707-1.418c-2.812-.128-5.632-.191-8.439-.4a7.546 7.546 0 0 0-.584-.024c-1.532.002-2.306.589-2.423 2.559zm-4.972-2.745c-8.2.149-16.44.216-24.5 1.792-13.167 2.576-22.086 10.533-26.976 22.992-1.492 3.8-.448 5.145 3.56 5.35q14.653.747 29.308 1.462c0 .144 11.261.369 16.884.472 1.814.032 2.594-.378 2.712-2.382.519-8.832 1.11-17.663 1.893-26.475.215-2.428-.4-3.212-2.686-3.212zm14.987 43.13v-.127c-1.226 0-2.454.049-3.676-.015-1.024-.056-2.065-.343-2-1.648.07-1.334 1.212-1.415 2.184-1.409 2.451.02 4.9.108 7.349.22 1.005.046 2.129.259 2.03 1.573-.094 1.242-1.192 1.391-2.216 1.4q-.757.008-1.514.007c-.717-.002-1.438-.002-2.158-.002zm-59.715-1.686c-1.086-.11-2.543-.2-3.977-.426a1.431 1.431 0 0 1-1.356-1.457 1.316 1.316 0 0 1 1.112-1.283c2.8-.511 5.549.194 8.307.509a1.127 1.127 0 0 1 .77 1.456 1.371 1.371 0 0 1-1.224 1.179c-.441.032-.884.042-1.352.042-.685 0-1.421-.02-2.28-.02z" fill="#1a1818"/><path data-name="Path 30" d="M150.527 39.254l9.9-9.9a1 1 0 0 1 1.414 1.414l-9.9 9.9a1 1 0 0 1-1.414-1.414z" fill="#fff" fill-rule="evenodd"/><path data-name="Path 31" d="M152.527 47.254l9.9-9.9a1 1 0 0 1 1.414 1.414l-9.9 9.9a1 1 0 0 1-1.414-1.414z" fill="#fff" fill-rule="evenodd"/><path data-name="Path 32" d="M191.527 49.254l9.9-9.9a1 1 0 0 1 1.414 1.414l-9.9 9.9a1 1 0 0 1-1.414-1.414z" fill="#fff" fill-rule="evenodd"/><path data-name="Path 33" d="M206.527 43.254l9.9-9.9a1 1 0 0 1 1.414 1.414l-9.9 9.9a1 1 0 0 1-1.414-1.414z" fill="#fff" fill-rule="evenodd"/><path data-name="Path 34" d="M259.527 34.254l9.9-9.9a1 1 0 0 1 1.414 1.414l-9.9 9.9a1 1 0 0 1-1.414-1.414z" fill="#fff" fill-rule="evenodd"/><path data-name="Path 35" d="M261.527 42.254l9.9-9.9a1 1 0 0 1 1.414 1.414l-9.9 9.9a1 1 0 0 1-1.414-1.414z" fill="#fff" fill-rule="evenodd"/></g></svg>