<svg width="1191" height="66" viewBox="0 0 1191 66" fill="none" xmlns="http://www.w3.org/2000/svg"><rect x="1" y="32" width="1190" height="2" rx="1" fill="#E73700"/><path d="M8.182 11.677c0 .906-.152 1.697-.457 2.374-.305.673-.736 1.187-1.295 1.543-.558.355-1.21.533-1.955.533-.728 0-1.373-.178-1.936-.533-.563-.36-1-.87-1.314-1.53C.916 13.4.757 12.632.75 11.76v-.667c0-.888.154-1.673.463-2.355.31-.681.745-1.202 1.308-1.561.567-.364 1.215-.546 1.942-.546.741 0 1.393.18 1.955.54.568.355 1.003.873 1.308 1.555.305.677.457 1.466.457 2.367v.584zm-1.212-.596c0-1.096-.22-1.936-.66-2.52-.44-.589-1.056-.883-1.848-.883-.77 0-1.377.294-1.821.883-.44.584-.667 1.396-.68 2.437v.68c0 1.061.223 1.897.667 2.507.448.605 1.064.907 1.847.907.787 0 1.397-.285 1.828-.857.432-.575.654-1.398.667-2.469v-.685zm5.871-1.556c.864 0 1.553.29 2.07.87.52.575.78 1.335.78 2.279v.108c0 .647-.124 1.227-.374 1.739-.25.508-.61.903-1.08 1.187-.465.28-1.002.419-1.611.419-.923 0-1.666-.307-2.228-.92-.563-.618-.845-1.446-.845-2.482v-.572c0-1.443.267-2.59.8-3.44.537-.85 1.329-1.37 2.374-1.555.592-.106.992-.235 1.2-.387a.737.737 0 0 0 .31-.629h.966c0 .53-.121.942-.362 1.238-.237.296-.618.506-1.143.628l-.876.197c-.698.165-1.223.444-1.574.838-.347.39-.573.91-.68 1.562.623-.72 1.38-1.08 2.273-1.08zm-.228.965c-.576 0-1.033.195-1.371.584-.339.385-.508.92-.508 1.606v.102c0 .736.17 1.32.508 1.752.342.427.804.64 1.383.64.585 0 1.046-.215 1.384-.647.339-.431.508-1.062.508-1.891 0-.648-.171-1.166-.514-1.555-.339-.394-.802-.59-1.39-.59zm3.7-1.358h3.212v2.367h1.784c.779.009 1.394.212 1.847.61.453.398.68.937.68 1.618 0 .686-.233 1.236-.699 1.65-.465.416-1.092.623-1.879.623h-2.907v-5.903h-2.037v-.965zm3.212 3.326v2.583h1.746c.44 0 .78-.112 1.022-.336.241-.228.362-.54.362-.933 0-.38-.119-.692-.356-.933-.232-.246-.56-.373-.984-.381h-1.79zm8.411 3.669c-.931 0-1.688-.305-2.272-.914-.584-.614-.876-1.433-.876-2.457v-.216c0-.68.129-1.288.387-1.821a3.049 3.049 0 0 1 1.092-1.257c.47-.305.977-.457 1.523-.457.893 0 1.587.294 2.082.882.495.588.743 1.43.743 2.527v.488h-4.653c.017.677.214 1.225.59 1.644.381.415.864.623 1.448.623.414 0 .765-.085 1.053-.254.288-.17.54-.394.756-.673l.717.558c-.576.885-1.439 1.327-2.59 1.327zM27.79 9.97a1.56 1.56 0 0 0-1.193.52c-.322.343-.52.825-.597 1.447h3.44v-.088c-.033-.597-.194-1.058-.482-1.384-.288-.33-.677-.495-1.168-.495zm8.144 4.475l2.336-5.313h1.466V16h-1.174v-4.996L36.34 16h-.812l-2.266-5.104V16h-1.175V9.132h1.524l2.323 5.313zM48.63 11.01a.905.905 0 0 0-.368-.762c-.245-.19-.582-.286-1.009-.286-.415 0-.762.108-1.041.324-.275.216-.413.47-.413.762H44.63c0-.597.25-1.086.75-1.466.499-.381 1.123-.572 1.872-.572.804 0 1.43.174 1.879.52.448.344.673.834.673 1.473 0 .31-.093.593-.28.851-.186.258-.45.463-.793.616.8.27 1.2.804 1.2 1.6 0 .63-.244 1.13-.73 1.497-.487.369-1.136.553-1.949.553-.791 0-1.445-.193-1.962-.578-.511-.39-.767-.914-.767-1.574h1.167c0 .334.149.622.445.863.3.237.673.355 1.117.355.448 0 .81-.103 1.085-.31a.965.965 0 0 0 .413-.807c0-.385-.116-.66-.35-.825-.228-.17-.585-.254-1.072-.254h-1.174V12h1.276c.8-.021 1.2-.351 1.2-.99zM55.694 16c-.067-.135-.122-.377-.165-.724-.546.567-1.197.851-1.955.851-.677 0-1.233-.19-1.67-.571a1.872 1.872 0 0 1-.647-1.46c0-.716.271-1.27.813-1.663.546-.398 1.312-.597 2.298-.597h1.142v-.54c0-.41-.122-.736-.368-.977-.245-.246-.607-.368-1.085-.368-.42 0-.77.105-1.054.317-.284.212-.425.468-.425.768h-1.181c0-.343.12-.673.362-.99.245-.322.575-.576.99-.762.419-.186.878-.28 1.377-.28.792 0 1.412.2 1.86.598.449.393.682.937.699 1.63v3.162c0 .63.08 1.132.24 1.504V16h-1.23zm-1.948-.895c.368 0 .717-.095 1.047-.286.33-.19.57-.438.717-.742v-1.41h-.92c-1.439 0-2.158.421-2.158 1.264 0 .368.122.656.368.863.245.207.56.311.946.311zm6.919-2.031h-.857V16h-1.181V9.132h1.18v2.907h.769l2.31-2.907h1.422l-2.717 3.3L64.537 16h-1.492l-2.38-2.926zm7.128 1.206l1.6-5.148h1.256l-2.76 7.928c-.428 1.143-1.107 1.714-2.038 1.714l-.223-.02-.438-.082v-.952l.318.026c.398 0 .707-.08.927-.242.224-.16.408-.455.552-.882l.26-.698-2.45-6.792h1.282l1.714 5.148zM77.321 16h-1.174v-5.897h-3.162V16h-1.18V9.132h5.516V16zm1.574-3.498c0-.672.131-1.278.394-1.815a2.988 2.988 0 0 1 1.104-1.244 3.023 3.023 0 0 1 1.619-.438c.935 0 1.69.324 2.266.971.58.647.87 1.509.87 2.584v.082c0 .669-.13 1.27-.388 1.803-.254.529-.62.941-1.098 1.238-.474.296-1.02.444-1.638.444-.93 0-1.686-.324-2.266-.971-.575-.648-.863-1.505-.863-2.571v-.083zm1.18.14c0 .762.176 1.373.528 1.835.355.46.829.691 1.421.691.597 0 1.071-.232 1.422-.698.352-.47.527-1.125.527-1.968 0-.753-.18-1.362-.54-1.828a1.694 1.694 0 0 0-1.421-.704c-.58 0-1.048.23-1.403.692-.356.46-.533 1.121-.533 1.98zm8.684.432h-.857V16h-1.18V9.132h1.18v2.907h.768l2.311-2.907h1.422l-2.717 3.3L92.631 16H91.14l-2.38-2.926zm4.844 4.767l-.667-.457c.398-.555.605-1.126.622-1.714v-1.06h1.149v.92c0 .428-.106.855-.317 1.283-.208.427-.47.77-.787 1.028zm11.616-5.199c0 1.045-.239 1.888-.718 2.527-.478.638-1.125.958-1.942.958-.834 0-1.49-.264-1.968-.793v3.307h-1.174V9.13h1.073l.057.763c.478-.593 1.142-.89 1.993-.89.825 0 1.477.312 1.955.934.483.622.724 1.487.724 2.596v.108zm-1.175-.133c0-.775-.165-1.386-.495-1.835-.33-.448-.783-.672-1.358-.672-.711 0-1.244.315-1.6.945v3.282c.352.626.889.94 1.613.94.562 0 1.009-.223 1.339-.667.334-.449.501-1.113.501-1.993zm4.844 1.77l1.599-5.147h1.257l-2.761 7.928c-.427 1.143-1.107 1.714-2.038 1.714l-.222-.02-.438-.082v-.952l.318.026c.397 0 .706-.08.926-.242.225-.16.409-.455.553-.882l.26-.698-2.45-6.792h1.282l1.714 5.148zm6.925-4.754c.863 0 1.553.29 2.069.87.521.575.781 1.335.781 2.279v.108c0 .647-.125 1.227-.374 1.739-.25.508-.61.903-1.08 1.187-.465.28-1.002.419-1.612.419-.922 0-1.665-.307-2.228-.92-.563-.618-.844-1.446-.844-2.482v-.572c0-1.443.267-2.59.8-3.44.537-.85 1.328-1.37 2.374-1.555.592-.106.992-.235 1.199-.387a.736.736 0 0 0 .311-.629h.965c0 .53-.12.942-.362 1.238-.236.296-.617.506-1.142.628l-.876.197c-.698.165-1.223.444-1.574.838-.347.39-.574.91-.679 1.562.622-.72 1.379-1.08 2.272-1.08zm-.229.965c-.575 0-1.032.195-1.371.584-.338.385-.507.92-.507 1.606v.102c0 .736.169 1.32.507 1.752.343.427.804.64 1.384.64.584 0 1.045-.215 1.384-.647.338-.431.508-1.062.508-1.891 0-.648-.172-1.166-.514-1.555-.339-.394-.802-.59-1.391-.59zm4.425 4.894c0-.203.059-.372.178-.508.122-.135.304-.203.545-.203.242 0 .424.068.546.204a.714.714 0 0 1 .191.507.675.675 0 0 1-.191.489c-.122.131-.304.197-.546.197-.241 0-.423-.066-.545-.197a.7.7 0 0 1-.178-.489zm3.364 0c0-.203.059-.372.178-.508.123-.135.304-.203.546-.203.241 0 .423.068.546.204a.71.71 0 0 1 .19.507.675.675 0 0 1-.19.489c-.123.131-.305.197-.546.197-.242 0-.423-.066-.546-.197a.7.7 0 0 1-.178-.489zm.006-5.605c0-.203.06-.372.178-.508.123-.135.305-.203.546-.203.241 0 .423.068.546.203.127.136.19.305.19.508a.675.675 0 0 1-.19.49c-.123.13-.305.196-.546.196-.241 0-.423-.066-.546-.197a.705.705 0 0 1-.178-.489zM7.871 55.067c-.114.978-.476 1.733-1.085 2.267-.605.528-1.412.793-2.419.793-1.092 0-1.968-.392-2.628-1.174-.656-.783-.984-1.83-.984-3.143v-.888c0-.86.153-1.614.457-2.266.31-.652.745-1.151 1.308-1.498.563-.352 1.215-.527 1.955-.527.982 0 1.769.275 2.361.825.593.546.938 1.303 1.035 2.272H6.646c-.106-.736-.336-1.269-.692-1.6-.351-.33-.844-.494-1.479-.494-.779 0-1.39.288-1.834.863-.44.576-.66 1.394-.66 2.457v.895c0 1.003.209 1.8.628 2.393.419.592 1.005.888 1.758.888.677 0 1.196-.152 1.555-.457.364-.309.606-.844.724-1.606h1.225zm3.625.007h-.857V58H9.458v-6.868h1.18v2.907h.769l2.31-2.907h1.422l-2.717 3.3L15.368 58h-1.492l-2.38-2.926zm9.324-3.942h1.175V58H20.82v-5.008L17.653 58h-1.174v-6.868h1.174v5.015l3.167-5.015zm3.003 5.91l.406-.502c.457-.592.717-1.481.78-2.666l.109-2.742h4.424v5.91h.882v2.977H29.25V58h-4.793v2.019h-1.174l.007-2.977h.533zm1.39 0h3.155v-4.825h-2.114l-.07 1.638c-.072 1.367-.396 2.429-.971 3.187zm8.652-1.968h-.857V58h-1.18v-6.868h1.18v2.907h.768l2.31-2.907h1.422l-2.717 3.3L37.737 58h-1.492l-2.38-2.926zM42.986 58c-.067-.135-.122-.377-.165-.724-.546.567-1.197.851-1.955.851-.677 0-1.233-.19-1.67-.571a1.872 1.872 0 0 1-.647-1.46c0-.715.271-1.27.813-1.663.546-.398 1.312-.597 2.298-.597h1.142v-.54c0-.41-.123-.736-.368-.977-.245-.246-.607-.368-1.085-.368-.42 0-.77.105-1.054.317-.284.212-.425.468-.425.768h-1.181c0-.343.12-.673.362-.99.245-.322.575-.576.99-.762.419-.186.878-.28 1.378-.28.79 0 1.41.2 1.86.598.448.393.68.937.698 1.63v3.162c0 .63.08 1.132.24 1.504V58h-1.23zm-1.948-.895c.368 0 .717-.095 1.047-.286.33-.19.57-.438.717-.742v-1.41h-.92c-1.439 0-2.158.422-2.158 1.264 0 .368.122.656.368.863.245.207.56.311.946.311zm11.78-4.094a.905.905 0 0 0-.367-.762c-.246-.19-.582-.286-1.01-.286-.414 0-.761.108-1.04.324-.276.216-.413.47-.413.762H48.82c0-.597.25-1.086.749-1.466.5-.381 1.123-.572 1.872-.572.804 0 1.43.174 1.88.52.448.343.672.834.672 1.473 0 .31-.093.593-.28.851-.185.258-.45.463-.793.616.8.27 1.2.804 1.2 1.6 0 .63-.243 1.13-.73 1.497-.486.369-1.136.553-1.949.553-.79 0-1.445-.193-1.961-.578-.512-.39-.768-.914-.768-1.574h1.168c0 .334.148.622.444.863.3.237.673.355 1.117.355.449 0 .81-.103 1.086-.31a.965.965 0 0 0 .413-.807c0-.385-.117-.66-.35-.825-.228-.17-.586-.254-1.072-.254h-1.175v-.99h1.276c.8-.021 1.2-.351 1.2-.99zM59.885 58c-.068-.135-.123-.377-.165-.724-.546.567-1.198.851-1.955.851-.677 0-1.234-.19-1.67-.571a1.872 1.872 0 0 1-.647-1.46c0-.715.27-1.27.812-1.663.546-.398 1.312-.597 2.298-.597H59.7v-.54c0-.41-.123-.736-.369-.977-.245-.246-.607-.368-1.085-.368-.419 0-.77.105-1.054.317-.283.212-.425.468-.425.768h-1.18c0-.343.12-.673.361-.99a2.51 2.51 0 0 1 .99-.762c.42-.186.879-.28 1.378-.28.791 0 1.411.2 1.86.598.448.393.681.937.698 1.63v3.162c0 .63.08 1.132.241 1.504V58h-1.231zm-1.949-.895c.368 0 .717-.095 1.047-.286.33-.19.57-.438.718-.742v-1.41h-.92c-1.44 0-2.159.422-2.159 1.264 0 .368.123.656.368.863.246.207.561.311.946.311zm7.693-2.603c0-.672.132-1.278.394-1.815a2.988 2.988 0 0 1 1.104-1.244 3.023 3.023 0 0 1 1.62-.438c.934 0 1.69.324 2.265.971.58.648.87 1.509.87 2.584v.082c0 .669-.13 1.27-.387 1.803-.254.529-.62.941-1.099 1.238-.474.296-1.02.444-1.637.444-.931 0-1.686-.324-2.266-.971-.576-.648-.864-1.505-.864-2.571v-.083zm1.181.14c0 .762.176 1.373.527 1.835.355.46.83.692 1.422.692.597 0 1.07-.233 1.422-.699.35-.47.526-1.125.526-1.968 0-.753-.18-1.362-.539-1.828a1.694 1.694 0 0 0-1.422-.704c-.58 0-1.047.23-1.403.692-.355.46-.533 1.121-.533 1.98zm9.56-3.117c.863 0 1.553.29 2.069.87.52.575.78 1.335.78 2.279v.108c0 .647-.124 1.227-.374 1.739-.25.508-.61.904-1.079 1.187-.465.28-1.003.419-1.612.419-.923 0-1.665-.307-2.228-.92-.563-.618-.844-1.446-.844-2.482v-.572c0-1.443.266-2.59.8-3.44.537-.85 1.328-1.37 2.373-1.555.593-.106.993-.235 1.2-.388a.737.737 0 0 0 .311-.628h.965c0 .53-.12.942-.362 1.238-.237.296-.618.506-1.142.628l-.876.197c-.699.165-1.223.444-1.575.838-.347.39-.573.91-.679 1.562.622-.72 1.38-1.08 2.273-1.08zm-.229.965c-.575 0-1.032.195-1.371.584-.339.385-.508.92-.508 1.606v.102c0 .736.17 1.32.508 1.752.343.427.804.64 1.384.64.584 0 1.045-.215 1.384-.647.338-.431.507-1.062.507-1.891 0-.648-.171-1.166-.514-1.555-.338-.394-.802-.59-1.39-.59zm3.7-1.358h3.213v2.367h1.783c.78.009 1.395.212 1.848.61.452.398.679.937.679 1.618 0 .686-.233 1.236-.698 1.65-.466.416-1.092.623-1.88.623h-2.907v-5.903h-2.037v-.965zm3.213 3.326v2.584h1.745c.44 0 .781-.113 1.022-.337.242-.228.362-.54.362-.933 0-.38-.118-.692-.355-.933-.233-.246-.561-.372-.984-.381h-1.79zm8.41 3.669c-.93 0-1.688-.305-2.272-.914-.584-.614-.876-1.433-.876-2.457v-.215c0-.682.129-1.289.387-1.822a3.05 3.05 0 0 1 1.092-1.257c.47-.305.978-.457 1.523-.457.893 0 1.587.294 2.082.882.495.588.743 1.43.743 2.527v.488H89.49c.017.677.214 1.225.59 1.644.381.415.864.623 1.448.623.415 0 .766-.085 1.054-.254.287-.17.54-.394.755-.673l.717.558c-.575.885-1.439 1.327-2.59 1.327zm-.146-6.157c-.474 0-.871.173-1.193.52-.322.343-.52.825-.597 1.447h3.44v-.088c-.033-.597-.194-1.058-.482-1.384-.287-.33-.677-.495-1.168-.495zm8.144 4.475l2.336-5.313h1.467V58h-1.175v-4.996L99.868 58h-.813l-2.266-5.103V58h-1.174v-6.868h1.523l2.323 5.313zm5.656.94a.74.74 0 0 1 .178-.508c.123-.136.305-.204.546-.204.241 0 .423.068.546.203.127.136.19.305.19.508a.675.675 0 0 1-.19.489c-.123.131-.305.197-.546.197-.241 0-.423-.066-.546-.197a.7.7 0 0 1-.178-.489zm.007-5.606c0-.203.059-.372.177-.508.123-.135.305-.203.546-.203.241 0 .423.068.546.204a.71.71 0 0 1 .19.507.675.675 0 0 1-.19.49c-.123.13-.305.196-.546.196-.241 0-.423-.066-.546-.197a.704.704 0 0 1-.177-.489zm328.351-40.971h.882c.554-.009.99-.155 1.308-.438.317-.284.476-.667.476-1.15 0-1.083-.54-1.624-1.619-1.624-.508 0-.914.146-1.219.438-.3.287-.45.67-.45 1.149h-1.175c0-.732.267-1.34.8-1.822.537-.487 1.219-.73 2.044-.73.872 0 1.555.23 2.05.692.495.461.743 1.102.743 1.923 0 .402-.131.791-.394 1.168a2.334 2.334 0 0 1-1.06.844c.508.161.9.428 1.175.8.279.373.419.827.419 1.365 0 .83-.271 1.487-.813 1.974-.542.487-1.246.73-2.114.73-.867 0-1.574-.235-2.12-.705-.541-.47-.812-1.09-.812-1.86h1.18c0 .487.159.877.476 1.168.318.293.743.438 1.276.438.567 0 1.001-.148 1.302-.444.3-.296.45-.721.45-1.276 0-.537-.165-.95-.495-1.238-.33-.287-.806-.435-1.428-.444h-.882v-.958zm11.387 1.25c0 1.375-.235 2.397-.704 3.066-.47.669-1.204 1.003-2.203 1.003-.986 0-1.716-.326-2.19-.978-.474-.655-.719-1.633-.736-2.932v-1.568c0-1.358.235-2.368.704-3.028.47-.66 1.206-.99 2.209-.99.995 0 1.727.32 2.197.958.469.635.711 1.617.723 2.946v1.523zm-1.174-1.606c0-.994-.14-1.718-.419-2.17-.279-.458-.721-.686-1.327-.686-.601 0-1.039.226-1.314.679-.275.453-.416 1.149-.425 2.088v1.88c0 .998.144 1.736.432 2.214.292.474.732.711 1.32.711.58 0 1.009-.224 1.289-.672.283-.449.431-1.156.444-2.12v-1.924zm11.127-.368h-2.304V16h-1.174v-5.916h-2.26v-.952h5.738v.952zm2.425 1.415h1.784c.779.009 1.394.212 1.847.61.453.398.679.937.679 1.618 0 .686-.232 1.236-.698 1.65-.465.416-1.092.623-1.879.623h-2.907V9.132h1.174v2.367zm6.76 4.501h-1.18V9.132h1.18V16zm-6.76-3.542v2.583h1.746c.44 0 .781-.112 1.022-.336.241-.228.362-.54.362-.933 0-.38-.119-.692-.356-.933-.233-.246-.561-.373-.984-.381h-1.79zm11.566 2.71a1.69 1.69 0 0 0 1.098-.38 1.34 1.34 0 0 0 .52-.953h1.111a2.125 2.125 0 0 1-.406 1.124 2.66 2.66 0 0 1-1.003.85 2.866 2.866 0 0 1-1.32.318c-.936 0-1.68-.311-2.235-.933-.55-.627-.825-1.481-.825-2.565v-.196c0-.669.123-1.264.368-1.784.246-.52.597-.925 1.054-1.212.461-.288 1.005-.432 1.631-.432.77 0 1.409.23 1.917.692.512.461.785 1.06.819 1.796h-1.111a1.602 1.602 0 0 0-.508-1.092c-.3-.287-.672-.431-1.117-.431-.596 0-1.06.215-1.39.647-.326.428-.489 1.048-.489 1.86v.222c0 .792.163 1.4.489 1.828.326.428.791.642 1.397.642zm-33.903 36.357c.863 0 1.553.29 2.069.87.521.575.781 1.335.781 2.279v.108c0 .647-.125 1.227-.375 1.739a2.787 2.787 0 0 1-1.079 1.187c-.465.28-1.003.419-1.612.419-.923 0-1.665-.307-2.228-.92-.563-.618-.844-1.446-.844-2.482v-.572c0-1.443.266-2.59.8-3.44.537-.85 1.328-1.37 2.374-1.555.592-.106.992-.235 1.199-.388a.735.735 0 0 0 .311-.628h.965c0 .53-.12.942-.362 1.238-.237.296-.618.506-1.142.628l-.876.197c-.698.165-1.223.444-1.574.838-.347.39-.574.91-.68 1.562.622-.72 1.38-1.08 2.273-1.08zm-.229.965c-.575 0-1.032.195-1.371.584-.338.385-.508.92-.508 1.606v.102c0 .736.17 1.32.508 1.752.343.427.804.64 1.384.64.584 0 1.045-.215 1.384-.647.338-.431.508-1.062.508-1.891 0-.648-.172-1.166-.515-1.555-.338-.394-.801-.59-1.39-.59zm7.249 5.637c-.931 0-1.688-.305-2.272-.914-.584-.614-.876-1.433-.876-2.457v-.215c0-.682.129-1.289.387-1.822a3.043 3.043 0 0 1 1.092-1.257c.47-.305.977-.457 1.523-.457.893 0 1.587.294 2.082.882.495.588.743 1.43.743 2.527v.488h-4.653c.017.677.214 1.225.591 1.644.38.415.863.623 1.447.623.415 0 .766-.085 1.054-.254a2.66 2.66 0 0 0 .755-.673l.717.558c-.575.885-1.439 1.327-2.59 1.327zm-.146-6.157c-.474 0-.871.173-1.193.52-.322.343-.521.825-.597 1.447h3.441v-.088c-.034-.597-.195-1.058-.483-1.384-.287-.33-.677-.495-1.168-.495zm6.945 5.199a1.69 1.69 0 0 0 1.098-.381 1.34 1.34 0 0 0 .52-.953h1.111a2.125 2.125 0 0 1-.406 1.124 2.67 2.67 0 0 1-1.003.85 2.866 2.866 0 0 1-1.32.318c-.936 0-1.68-.311-2.235-.933-.55-.627-.825-1.481-.825-2.565v-.196c0-.669.123-1.264.368-1.784.246-.52.597-.925 1.054-1.212.461-.288 1.005-.432 1.631-.432.77 0 1.409.23 1.917.692.512.461.785 1.06.819 1.796h-1.111a1.602 1.602 0 0 0-.508-1.092c-.3-.287-.672-.431-1.117-.431-.596 0-1.06.215-1.39.647-.326.428-.489 1.048-.489 1.86v.222c0 .792.163 1.4.489 1.828.326.428.792.642 1.397.642zm9.667.831h-1.174v-5.897h-3.161V58h-1.181v-6.868h5.516V58zm7.516-6.868V58h-1.181v-5.897h-2.336l-.139 2.57c-.077 1.181-.276 2.026-.597 2.533-.318.508-.823.773-1.517.794h-.47v-1.035l.336-.025c.381-.042.654-.262.819-.66.165-.398.271-1.134.318-2.21l.127-2.938h4.64zM472.031 58c-.067-.135-.122-.377-.165-.724-.546.567-1.197.851-1.955.851-.677 0-1.233-.19-1.669-.571a1.872 1.872 0 0 1-.648-1.46c0-.715.271-1.27.813-1.663.546-.398 1.312-.597 2.298-.597h1.142v-.54c0-.41-.123-.736-.368-.977-.245-.246-.607-.368-1.085-.368-.419 0-.771.105-1.054.317-.284.212-.425.468-.425.768h-1.181c0-.343.12-.673.362-.99.245-.322.575-.576.99-.762.419-.186.878-.28 1.377-.28.792 0 1.412.2 1.86.598.449.393.682.937.698 1.63v3.162c0 .63.081 1.132.242 1.504V58h-1.232zm-1.948-.895c.368 0 .717-.095 1.047-.286.33-.19.569-.438.717-.742v-1.41h-.92c-1.439 0-2.158.422-2.158 1.264 0 .368.122.656.368.863.245.207.56.311.946.311zm9.781-5.021h-2.304V58h-1.174v-5.916h-2.26v-.952h5.738v.952zM486.618 58h-1.174v-2.933h-3.155V58h-1.181v-6.868h1.181v2.977h3.155v-2.977h1.174V58zm6.132 0c-.068-.135-.123-.377-.165-.724-.546.567-1.198.851-1.955.851-.677 0-1.234-.19-1.67-.571a1.874 1.874 0 0 1-.647-1.46c0-.715.271-1.27.812-1.663.546-.398 1.312-.597 2.298-.597h1.143v-.54c0-.41-.123-.736-.368-.977-.246-.246-.608-.368-1.086-.368-.419 0-.77.105-1.053.317-.284.212-.426.468-.426.768h-1.18c0-.343.12-.673.361-.99.246-.322.576-.576.991-.762.419-.186.878-.28 1.377-.28.791 0 1.411.2 1.86.598.449.393.681.937.698 1.63v3.162c0 .63.081 1.132.241 1.504V58h-1.231zm-1.949-.895c.368 0 .718-.095 1.048-.286.33-.19.569-.438.717-.742v-1.41h-.92c-1.439 0-2.159.422-2.159 1.264 0 .368.123.656.368.863.246.207.561.311.946.311zm10.03-5.973V58h-1.181v-2.672h-1.771L496.26 58h-1.269l1.726-2.85c-.44-.16-.778-.408-1.015-.743a2.03 2.03 0 0 1-.349-1.18c0-.627.234-1.13.704-1.511.47-.385 1.098-.58 1.885-.584h2.889zm-4.298 2.107c0 .335.114.605.343.813.228.203.531.307.908.31h1.866v-2.278h-1.689c-.435 0-.782.108-1.041.324a1.024 1.024 0 0 0-.387.831zm9.35 3.803l.407-.502c.457-.592.717-1.481.78-2.666l.108-2.742h4.425v5.91h.882v2.977h-1.174V58h-4.793v2.019h-1.174l.006-2.977h.533zm1.39 0h3.155v-4.825h-2.114l-.069 1.638c-.072 1.367-.396 2.429-.972 3.187zm6.202-2.54c0-.672.131-1.278.394-1.815a2.981 2.981 0 0 1 1.104-1.244 3.024 3.024 0 0 1 1.619-.438c.935 0 1.69.324 2.266.971.58.648.87 1.509.87 2.584v.082c0 .669-.13 1.27-.388 1.803-.254.529-.62.941-1.098 1.238-.474.296-1.02.444-1.638.444-.93 0-1.686-.324-2.266-.971-.575-.648-.863-1.505-.863-2.571v-.083zm1.181.14c0 .762.175 1.373.527 1.835.355.46.829.692 1.421.692.597 0 1.071-.233 1.422-.699.352-.47.527-1.125.527-1.968 0-.753-.18-1.362-.539-1.828a1.696 1.696 0 0 0-1.422-.704c-.58 0-1.048.23-1.403.692-.356.46-.533 1.121-.533 1.98zm9.299 2.526a1.69 1.69 0 0 0 1.098-.38c.313-.254.487-.572.521-.953h1.111a2.135 2.135 0 0 1-.407 1.124 2.664 2.664 0 0 1-1.003.85 2.86 2.86 0 0 1-1.32.318c-.935 0-1.68-.311-2.234-.933-.55-.627-.825-1.481-.825-2.565v-.196c0-.669.122-1.264.368-1.784.245-.52.596-.925 1.053-1.212.462-.288 1.005-.432 1.632-.432.77 0 1.409.23 1.917.692.512.461.785 1.06.819 1.796h-1.111a1.602 1.602 0 0 0-.508-1.092 1.553 1.553 0 0 0-1.117-.431c-.597 0-1.06.215-1.39.647-.326.428-.489 1.048-.489 1.86v.222c0 .792.163 1.4.489 1.828.325.428.791.642 1.396.642zm9.153-5.084h-2.304V58h-1.174v-5.916h-2.26v-.952h5.738v.952zM538.39 58c-.068-.135-.123-.377-.165-.724-.546.567-1.198.851-1.955.851-.678 0-1.234-.19-1.67-.571a1.87 1.87 0 0 1-.647-1.46c0-.715.27-1.27.812-1.663.546-.398 1.312-.597 2.298-.597h1.143v-.54c0-.41-.123-.736-.369-.977-.245-.246-.607-.368-1.085-.368-.419 0-.77.105-1.054.317-.283.212-.425.468-.425.768h-1.181c0-.343.121-.673.362-.99.246-.322.576-.576.99-.762.419-.186.878-.28 1.378-.28.791 0 1.411.2 1.86.598.448.393.681.937.698 1.63v3.162c0 .63.08 1.132.241 1.504V58h-1.231zm-1.949-.895c.368 0 .717-.095 1.047-.286.33-.19.569-.438.718-.742v-1.41h-.921c-1.439 0-2.158.422-2.158 1.264 0 .368.123.656.368.863.246.207.561.311.946.311zm4.888.895v-6.868h2.678c.914 0 1.615.16 2.101.482.491.318.737.785.737 1.403 0 .317-.095.605-.286.863-.19.254-.472.449-.844.584.415.098.747.288.996.572.254.283.381.622.381 1.015 0 .63-.232 1.113-.698 1.447-.461.335-1.115.502-1.961.502h-3.104zm1.174-3.015v2.07h1.942c.491 0 .857-.092 1.098-.274.246-.182.369-.438.369-.768 0-.685-.504-1.028-1.511-1.028h-1.898zm0-.94h1.517c1.1 0 1.65-.321 1.65-.964 0-.644-.52-.976-1.561-.997h-1.606v1.961zm8.284 1.029h-.857V58h-1.181v-6.868h1.181v2.907h.768l2.31-2.907h1.422l-2.717 3.3L554.659 58h-1.492l-2.38-2.926zM559.908 58c-.068-.135-.123-.377-.165-.724-.546.567-1.197.851-1.955.851-.677 0-1.233-.19-1.669-.571a1.872 1.872 0 0 1-.648-1.46c0-.715.271-1.27.813-1.663.546-.398 1.312-.597 2.298-.597h1.142v-.54c0-.41-.123-.736-.368-.977-.245-.246-.607-.368-1.085-.368-.419 0-.771.105-1.054.317-.284.212-.425.468-.425.768h-1.181c0-.343.12-.673.362-.99.245-.322.575-.576.99-.762.419-.186.878-.28 1.377-.28.792 0 1.412.2 1.86.598.449.393.682.937.698 1.63v3.162c0 .63.081 1.132.242 1.504V58h-1.232zm-1.949-.895c.369 0 .718-.095 1.048-.286.33-.19.569-.438.717-.742v-1.41h-.92c-1.439 0-2.158.422-2.158 1.264 0 .368.122.656.368.863.245.207.56.311.945.311zm149.349-45.739l.469-4.608h4.736v1.085h-3.739l-.279 2.52a2.98 2.98 0 0 1 1.542-.4c.842 0 1.511.28 2.006.838.495.555.743 1.306.743 2.254 0 .952-.258 1.703-.775 2.253-.512.546-1.229.819-2.152.819-.816 0-1.483-.226-1.999-.68-.516-.452-.811-1.078-.882-1.878h1.11c.072.529.261.929.565 1.2.305.266.707.4 1.206.4.546 0 .974-.187 1.283-.56.313-.371.469-.886.469-1.542 0-.617-.169-1.113-.507-1.485-.335-.377-.781-.565-1.34-.565-.512 0-.914.112-1.206.337l-.311.253-.939-.24zm12.555.692c0 1.375-.235 2.397-.704 3.066-.47.669-1.204 1.003-2.203 1.003-.986 0-1.716-.326-2.19-.978-.474-.655-.719-1.633-.736-2.932v-1.568c0-1.358.235-2.368.704-3.028.47-.66 1.206-.99 2.209-.99.995 0 1.727.32 2.197.958.469.635.711 1.617.723 2.946v1.523zm-1.174-1.606c0-.994-.14-1.718-.419-2.17-.279-.458-.721-.686-1.327-.686-.601 0-1.039.226-1.314.679-.275.453-.416 1.149-.425 2.088v1.88c0 .998.144 1.736.432 2.214.292.474.732.711 1.32.711.58 0 1.009-.224 1.289-.672.283-.449.431-1.156.444-2.12v-1.924zm11.127-.368h-2.304V16h-1.174v-5.916h-2.26v-.952h5.738v.952zm2.425 1.415h1.784c.779.009 1.394.212 1.847.61.453.398.679.937.679 1.618 0 .686-.232 1.236-.698 1.65-.465.416-1.092.623-1.879.623h-2.907V9.132h1.174v2.367zm6.76 4.501h-1.18V9.132h1.18V16zm-6.76-3.542v2.583h1.746c.44 0 .781-.112 1.022-.336.241-.228.362-.54.362-.933 0-.38-.119-.692-.356-.933-.233-.246-.561-.373-.984-.381h-1.79zm11.566 2.71a1.69 1.69 0 0 0 1.098-.38 1.34 1.34 0 0 0 .52-.953h1.111a2.125 2.125 0 0 1-.406 1.124 2.66 2.66 0 0 1-1.003.85 2.866 2.866 0 0 1-1.32.318c-.936 0-1.68-.311-2.235-.933-.55-.627-.825-1.481-.825-2.565v-.196c0-.669.123-1.264.368-1.784.246-.52.597-.925 1.054-1.212.461-.288 1.005-.432 1.631-.432.77 0 1.409.23 1.917.692.512.461.785 1.06.819 1.796h-1.111a1.602 1.602 0 0 0-.508-1.092c-.3-.287-.672-.431-1.117-.431-.596 0-1.06.215-1.39.647-.326.428-.489 1.048-.489 1.86v.222c0 .792.163 1.4.489 1.828.326.428.791.642 1.397.642zm-32.475 35.964h1.174V58h-1.174v-5.008L708.165 58h-1.175v-6.868h1.175v5.015l3.167-5.015zM720.003 58h-1.174v-2.933h-3.155V58h-1.181v-6.868h1.181v2.977h3.155v-2.977h1.174V58zm1.834-.959l.407-.501c.457-.592.717-1.481.78-2.666l.108-2.742h4.425v5.91h.882v2.977h-1.174V58h-4.793v2.019h-1.174l.006-2.977h.533zm1.391 0h3.154v-4.824h-2.113l-.07 1.638c-.072 1.367-.396 2.429-.971 3.187zm10.956-5.91h1.174V58h-1.174v-5.008L731.016 58h-1.174v-6.868h1.174v5.015l3.168-5.015zM737.351 58v-6.868h2.679c.914 0 1.614.16 2.101.482.491.318.736.785.736 1.403 0 .317-.095.605-.285.863-.191.254-.472.449-.845.584.415.098.747.288.997.572.254.283.381.622.381 1.015 0 .63-.233 1.113-.698 1.447-.462.335-1.116.502-1.962.502h-3.104zm1.174-3.015v2.07h1.943c.491 0 .857-.092 1.098-.274.245-.182.368-.438.368-.768 0-.685-.503-1.028-1.511-1.028h-1.898zm0-.94h1.517c1.101 0 1.651-.321 1.651-.964 0-.644-.521-.976-1.562-.997h-1.606v1.961zm10.588-2.913h1.175V58h-1.175v-5.008L745.946 58h-1.175v-6.868h1.175v5.015l3.167-5.015zm3.003 5.91l.406-.502c.457-.592.717-1.481.781-2.666l.108-2.742h4.424v5.91h.882v2.977h-1.174V58h-4.793v2.019h-1.174l.007-2.977h.533zm1.39 0h3.155v-4.825h-2.114l-.07 1.638c-.072 1.367-.396 2.429-.971 3.187zm8.76-.762l1.599-5.148h1.257l-2.761 7.928c-.428 1.143-1.107 1.714-2.038 1.714l-.222-.02-.438-.082v-.952l.317.026c.398 0 .707-.08.927-.242.225-.16.409-.454.552-.882l.261-.698-2.45-6.792h1.282l1.714 5.148zm8.048 1.72c-.067-.135-.122-.377-.165-.724-.545.567-1.197.851-1.955.851-.677 0-1.233-.19-1.669-.571a1.872 1.872 0 0 1-.648-1.46c0-.715.271-1.27.813-1.663.546-.398 1.312-.597 2.298-.597h1.142v-.54c0-.41-.122-.736-.368-.977-.245-.246-.607-.368-1.085-.368-.419 0-.77.105-1.054.317-.283.212-.425.468-.425.768h-1.181c0-.343.121-.673.362-.99.245-.322.575-.576.99-.762.419-.186.878-.28 1.378-.28.791 0 1.411.2 1.859.598.449.393.682.937.699 1.63v3.162c0 .63.08 1.132.241 1.504V58h-1.232zm-1.948-.895c.368 0 .717-.095 1.047-.286.33-.19.569-.438.717-.742v-1.41h-.92c-1.439 0-2.158.422-2.158 1.264 0 .368.122.656.368.863.245.207.561.311.946.311zm10.41-5.973V58h-1.181v-5.897h-2.336l-.139 2.57c-.077 1.181-.275 2.026-.597 2.533-.317.508-.823.773-1.517.794h-.47v-1.035l.337-.025c.38-.042.653-.262.818-.66.165-.398.271-1.134.318-2.21l.127-2.938h4.64zm3.167 2.367h1.784c.779.009 1.394.212 1.847.61.453.398.679.937.679 1.618 0 .686-.232 1.236-.698 1.65-.465.416-1.092.623-1.879.623h-2.907v-6.868h1.174v2.367zm0 .959v2.584h1.746c.44 0 .781-.113 1.022-.337.241-.228.362-.54.362-.933 0-.38-.119-.692-.356-.933-.232-.246-.56-.372-.984-.381h-1.79zM793.331 58h-1.174v-2.933h-3.155V58h-1.181v-6.868h1.181v2.977h3.155v-2.977h1.174V58zm6.132 0c-.068-.135-.123-.377-.165-.724-.546.567-1.198.851-1.955.851-.677 0-1.234-.19-1.67-.571a1.874 1.874 0 0 1-.647-1.46c0-.715.271-1.27.812-1.663.546-.398 1.312-.597 2.298-.597h1.143v-.54c0-.41-.123-.736-.368-.977-.246-.246-.608-.368-1.086-.368-.419 0-.77.105-1.054.317-.283.212-.425.468-.425.768h-1.18c0-.343.12-.673.361-.99.246-.322.576-.576.991-.762.419-.186.878-.28 1.377-.28.791 0 1.411.2 1.86.598.448.393.681.937.698 1.63v3.162c0 .63.081 1.132.241 1.504V58h-1.231zm-1.949-.895c.368 0 .717-.095 1.048-.286.33-.19.569-.438.717-.742v-1.41h-.921c-1.438 0-2.158.422-2.158 1.264 0 .368.123.656.368.863.246.207.561.311.946.311zm10.029-5.973V58h-1.18v-2.672h-1.771L802.973 58h-1.269l1.726-2.85c-.44-.16-.778-.408-1.015-.743a2.031 2.031 0 0 1-.35-1.18c0-.627.235-1.13.705-1.511.47-.385 1.098-.58 1.885-.584h2.888zm-4.297 2.107c0 .335.114.605.343.813.228.203.531.307.908.31h1.866v-2.278h-1.689c-.436 0-.783.108-1.041.324a1.024 1.024 0 0 0-.387.831zm12.162 3.93a1.69 1.69 0 0 0 1.098-.381c.313-.254.487-.572.521-.953h1.111a2.127 2.127 0 0 1-.407 1.124 2.669 2.669 0 0 1-1.002.85 2.868 2.868 0 0 1-1.321.318c-.935 0-1.68-.311-2.234-.933-.55-.627-.825-1.481-.825-2.565v-.196c0-.669.122-1.264.368-1.784a2.8 2.8 0 0 1 1.054-1.212c.461-.288 1.005-.432 1.631-.432.77 0 1.409.23 1.917.692.512.461.785 1.06.819 1.796h-1.111a1.602 1.602 0 0 0-.508-1.092c-.3-.287-.673-.431-1.117-.431-.597 0-1.06.215-1.39.647-.326.428-.489 1.048-.489 1.86v.222c0 .792.163 1.4.489 1.828.326.428.791.642 1.396.642zm6.189-2.095h-.857V58h-1.18v-6.868h1.18v2.907h.768l2.311-2.907h1.422l-2.717 3.3L825.469 58h-1.491l-2.381-2.926zm9.325-3.942h1.174V58h-1.174v-5.008L827.754 58h-1.174v-6.868h1.174v5.015l3.168-5.015zm3.002 5.91l.407-.502c.457-.592.717-1.481.78-2.666l.108-2.742h4.425v5.91h.882v2.977h-1.174V58h-4.793v2.019h-1.174l.006-2.977h.533zm1.39 0h3.155v-4.825h-2.114l-.069 1.638c-.072 1.367-.396 2.429-.972 3.187zm8.652-1.968h-.857V58h-1.18v-6.868h1.18v2.907h.768l2.311-2.907h1.422l-2.717 3.3L847.838 58h-1.491l-2.381-2.926zM853.088 58c-.068-.135-.123-.377-.165-.724-.546.567-1.198.851-1.955.851-.677 0-1.234-.19-1.67-.571a1.874 1.874 0 0 1-.647-1.46c0-.715.271-1.27.812-1.663.546-.398 1.312-.597 2.298-.597h1.143v-.54c0-.41-.123-.736-.368-.977-.246-.246-.608-.368-1.086-.368-.419 0-.77.105-1.054.317-.283.212-.425.468-.425.768h-1.18c0-.343.12-.673.361-.99.246-.322.576-.576.991-.762.419-.186.878-.28 1.377-.28.791 0 1.411.2 1.86.598.448.393.681.937.698 1.63v3.162c0 .63.081 1.132.241 1.504V58h-1.231zm-1.949-.895c.368 0 .717-.095 1.048-.286.33-.19.569-.438.717-.742v-1.41h-.921c-1.438 0-2.158.422-2.158 1.264 0 .368.123.656.368.863.246.207.561.311.946.311zm7.947-.063l.407-.502c.457-.592.717-1.481.78-2.666l.108-2.742h4.425v5.91h.882v2.977h-1.174V58h-4.793v2.019h-1.174l.006-2.977h.533zm1.391 0h3.154v-4.825h-2.113l-.07 1.638c-.072 1.367-.396 2.429-.971 3.187zm6.201-2.54c0-.672.131-1.278.394-1.815a2.988 2.988 0 0 1 1.104-1.244 3.024 3.024 0 0 1 1.619-.438c.935 0 1.691.324 2.266.971.58.648.87 1.509.87 2.584v.082c0 .669-.129 1.27-.388 1.803a2.88 2.88 0 0 1-1.098 1.238c-.474.296-1.02.444-1.637.444-.931 0-1.687-.324-2.266-.971-.576-.648-.864-1.505-.864-2.571v-.083zm1.181.14c0 .762.176 1.373.527 1.835.355.46.829.692 1.422.692.596 0 1.07-.233 1.421-.699.352-.47.527-1.125.527-1.968 0-.753-.18-1.362-.539-1.828a1.696 1.696 0 0 0-1.422-.704c-.58 0-1.047.23-1.403.692-.355.46-.533 1.121-.533 1.98zm11.356-1.834h.882c.555-.009.99-.155 1.308-.438.317-.284.476-.667.476-1.15 0-1.083-.54-1.624-1.619-1.624-.508 0-.914.146-1.219.438-.3.288-.45.67-.45 1.149h-1.175c0-.733.267-1.34.8-1.822.538-.487 1.219-.73 2.044-.73.872 0 1.555.23 2.05.692.496.461.743 1.102.743 1.923 0 .402-.131.791-.393 1.168a2.345 2.345 0 0 1-1.06.844c.507.161.899.428 1.174.8.279.373.419.827.419 1.365 0 .83-.271 1.487-.813 1.974-.541.487-1.246.73-2.113.73-.868 0-1.575-.235-2.121-.705-.541-.47-.812-1.09-.812-1.86h1.181c0 .487.158.877.476 1.169.317.291.742.438 1.276.438.567 0 1-.149 1.301-.445.3-.296.451-.721.451-1.276 0-.537-.166-.95-.496-1.238-.33-.287-.806-.435-1.428-.444h-.882v-.958zm5.491-2.273c0-.554.175-1.011.526-1.37.356-.36.811-.54 1.365-.54.563 0 1.018.181 1.365.545.351.36.527.828.527 1.403v.45c0 .56-.178 1.017-.533 1.372-.352.351-.8.527-1.346.527-.55 0-1.005-.176-1.365-.527-.36-.355-.539-.827-.539-1.416v-.444zm.876.489c0 .33.093.603.279.819.186.211.436.317.749.317.3 0 .542-.103.723-.31.187-.208.28-.492.28-.852v-.463c0-.33-.091-.603-.273-.819-.182-.215-.43-.323-.743-.323s-.561.108-.743.323c-.181.216-.272.498-.272.844v.464zm3.624 4.71c0-.555.176-1.01.527-1.365.355-.36.81-.54 1.365-.54.554 0 1.009.178 1.364.534.356.355.534.827.534 1.415v.451c0 .554-.178 1.011-.534 1.371-.351.356-.802.533-1.352.533s-1.005-.175-1.364-.527c-.36-.355-.54-.827-.54-1.415v-.457zm.876.495c0 .334.093.61.279.825.187.212.436.318.749.318.305 0 .548-.104.73-.312.182-.211.273-.497.273-.856v-.47c0-.334-.093-.607-.279-.819-.182-.212-.427-.317-.736-.317a.947.947 0 0 0-.737.317c-.186.207-.279.489-.279.844v.47zm-3.206 1.073l-.666-.42 4.513-7.223.667.42-4.514 7.223zM1042.63 16h-1.18V8.173l-2.37.87V7.977l3.36-1.264h.19V16zm9.23-3.942c0 1.375-.23 2.397-.7 3.066s-1.21 1.003-2.2 1.003c-.99 0-1.72-.326-2.19-.978-.48-.655-.72-1.633-.74-2.932v-1.568c0-1.358.23-2.368.7-3.028.47-.66 1.21-.99 2.21-.99s1.73.32 2.2.958c.47.635.71 1.617.72 2.946v1.523zm-1.17-1.606c0-.994-.14-1.718-.42-2.17-.28-.458-.72-.686-1.33-.686-.6 0-1.04.226-1.31.679-.28.453-.42 1.149-.43 2.088v1.88c0 .998.15 1.736.44 2.214.29.474.73.711 1.32.711.58 0 1.01-.224 1.28-.672.29-.449.44-1.156.45-2.12v-1.924zm8.47 1.606c0 1.375-.23 2.397-.7 3.066s-1.21 1.003-2.2 1.003c-.99 0-1.72-.326-2.19-.978-.48-.655-.72-1.633-.74-2.932v-1.568c0-1.358.23-2.368.7-3.028.47-.66 1.21-.99 2.21-.99s1.73.32 2.2.958c.47.635.71 1.617.72 2.946v1.523zm-1.17-1.606c0-.994-.14-1.718-.42-2.17-.28-.458-.72-.686-1.33-.686-.6 0-1.04.226-1.31.679-.28.453-.42 1.149-.43 2.088v1.88c0 .998.15 1.736.44 2.214.29.474.73.711 1.32.711.58 0 1.01-.224 1.28-.672.29-.449.44-1.156.45-2.12v-1.924zm11.13-.368h-2.31V16h-1.17v-5.916h-2.26v-.952h5.74v.952zm2.42 1.415h1.78c.78.009 1.4.212 1.85.61.45.398.68.937.68 1.618 0 .686-.23 1.236-.7 1.65-.46.416-1.09.623-1.88.623h-2.9V9.132h1.17v2.367zM1078.3 16h-1.18V9.132h1.18V16zm-6.76-3.542v2.583h1.75c.44 0 .78-.112 1.02-.336.24-.228.36-.54.36-.933 0-.38-.12-.692-.36-.933-.23-.246-.56-.373-.98-.381h-1.79zm11.57 2.71c.42 0 .78-.127 1.09-.38.32-.254.49-.572.53-.953h1.11a2.21 2.21 0 0 1-.41 1.124c-.25.356-.58.639-1 .85-.42.212-.86.318-1.32.318-.94 0-1.68-.311-2.24-.933-.55-.627-.82-1.481-.82-2.565v-.196c0-.669.12-1.264.37-1.784.24-.52.59-.925 1.05-1.212.46-.288 1-.432 1.63-.432.77 0 1.41.23 1.92.692.51.461.78 1.06.82 1.796h-1.11c-.04-.444-.21-.808-.51-1.092-.3-.287-.68-.431-1.12-.431-.6 0-1.06.215-1.39.647-.33.428-.49 1.048-.49 1.86v.222c0 .792.16 1.4.49 1.828.33.428.79.642 1.4.642zm-41.21 36.357c.87 0 1.56.29 2.07.87.52.575.78 1.335.78 2.279v.108c0 .647-.12 1.227-.37 1.739-.25.508-.61.904-1.08 1.187-.47.28-1 .419-1.61.419-.92 0-1.67-.307-2.23-.92-.56-.618-.84-1.446-.84-2.482v-.572c0-1.443.26-2.59.8-3.44.53-.85 1.32-1.37 2.37-1.555.59-.106.99-.235 1.2-.388a.73.73 0 0 0 .31-.628h.97c0 .53-.13.942-.37 1.238-.23.296-.61.506-1.14.628l-.88.197c-.69.165-1.22.444-1.57.838-.35.39-.57.91-.68 1.562.62-.72 1.38-1.08 2.27-1.08zm-.22.965c-.58 0-1.04.195-1.38.584-.33.385-.5.92-.5 1.606v.102c0 .736.17 1.32.5 1.752.35.427.81.64 1.39.64.58 0 1.04-.215 1.38-.647.34-.431.51-1.062.51-1.891 0-.648-.17-1.166-.51-1.555-.34-.394-.81-.59-1.39-.59zm8.63 5.51c-.06-.135-.12-.377-.16-.724-.55.567-1.2.851-1.96.851-.67 0-1.23-.19-1.67-.571-.43-.385-.64-.872-.64-1.46 0-.715.27-1.27.81-1.663.55-.398 1.31-.597 2.3-.597h1.14v-.54c0-.41-.12-.736-.37-.977-.24-.246-.61-.368-1.08-.368-.42 0-.77.105-1.06.317-.28.212-.42.468-.42.768h-1.18c0-.343.12-.673.36-.99.24-.322.57-.576.99-.762.42-.186.88-.28 1.38-.28.79 0 1.41.2 1.86.598.45.393.68.937.69 1.63v3.162c0 .63.09 1.132.25 1.504V58h-1.24zm-1.94-.895c.36 0 .71-.095 1.04-.286.33-.19.57-.438.72-.742v-1.41h-.92c-1.44 0-2.16.422-2.16 1.264 0 .368.12.656.37.863.25.207.56.311.95.311zm8.55-4.094a.895.895 0 0 0-.37-.762c-.24-.19-.58-.286-1.01-.286-.41 0-.76.108-1.04.324-.27.216-.41.47-.41.762h-1.17c0-.597.25-1.086.75-1.466.5-.381 1.13-.572 1.87-.572.81 0 1.44.174 1.88.52.45.343.68.834.68 1.473 0 .31-.1.593-.28.851a1.91 1.91 0 0 1-.8.616c.8.27 1.2.804 1.2 1.6 0 .63-.24 1.13-.73 1.497-.48.369-1.13.553-1.95.553-.79 0-1.44-.193-1.96-.578-.51-.39-.76-.914-.76-1.574h1.16c0 .334.15.622.45.863.3.237.67.355 1.11.355.45 0 .82-.103 1.09-.31a.95.95 0 0 0 .41-.807c0-.385-.11-.66-.35-.825-.22-.17-.58-.254-1.07-.254h-1.17v-.99h1.27c.8-.021 1.2-.351 1.2-.99zm2.52 1.491c0-.672.13-1.278.39-1.815.27-.537.63-.952 1.1-1.244a3.055 3.055 0 0 1 1.62-.438c.94 0 1.69.324 2.27.971.58.648.87 1.509.87 2.584v.082c0 .669-.13 1.27-.39 1.803a2.86 2.86 0 0 1-1.1 1.238c-.47.296-1.02.444-1.63.444-.94 0-1.69-.324-2.27-.971-.58-.648-.86-1.505-.86-2.571v-.083zm1.18.14c0 .762.17 1.373.52 1.835.36.46.83.692 1.43.692.59 0 1.07-.233 1.42-.699.35-.47.52-1.125.52-1.968 0-.753-.18-1.362-.54-1.828-.35-.47-.82-.704-1.42-.704-.58 0-1.04.23-1.4.692-.36.46-.53 1.121-.53 1.98zm6.65 3.358v-6.868h2.68c.91 0 1.61.16 2.1.482.49.318.74.785.74 1.403 0 .317-.1.605-.29.863-.19.254-.47.449-.84.584.41.098.74.288.99.572.26.283.38.622.38 1.015 0 .63-.23 1.113-.7 1.447-.46.335-1.11.502-1.96.502h-3.1zm1.17-3.015v2.07h1.95c.49 0 .85-.092 1.09-.274.25-.182.37-.438.37-.768 0-.685-.5-1.028-1.51-1.028h-1.9zm0-.94h1.52c1.1 0 1.65-.321 1.65-.964 0-.644-.52-.976-1.56-.997h-1.61v1.961zM1078.83 58c-.07-.135-.12-.377-.17-.724-.54.567-1.19.851-1.95.851-.68 0-1.24-.19-1.67-.571a1.88 1.88 0 0 1-.65-1.46c0-.715.27-1.27.81-1.663.55-.398 1.32-.597 2.3-.597h1.14v-.54c0-.41-.12-.736-.36-.977-.25-.246-.61-.368-1.09-.368-.42 0-.77.105-1.05.317-.29.212-.43.468-.43.768h-1.18c0-.343.12-.673.36-.99.25-.322.58-.576.99-.762.42-.186.88-.28 1.38-.28.79 0 1.41.2 1.86.598.45.393.68.937.7 1.63v3.162c0 .63.08 1.132.24 1.504V58h-1.23zm-1.95-.895c.37 0 .72-.095 1.05-.286.33-.19.57-.438.71-.742v-1.41h-.92c-1.44 0-2.15.422-2.15 1.264 0 .368.12.656.36.863.25.207.56.311.95.311zm10.03-5.973V58h-1.18v-2.672h-1.77L1082.34 58h-1.27l1.73-2.85c-.44-.16-.78-.408-1.02-.743a2.054 2.054 0 0 1-.35-1.18c0-.627.24-1.13.71-1.511.46-.385 1.09-.58 1.88-.584h2.89zm-4.3 2.107c0 .335.12.605.34.813.23.203.54.307.91.31h1.87v-2.278h-1.69c-.44 0-.78.108-1.04.324a1.02 1.02 0 0 0-.39.831zm12.16 3.93c.42 0 .79-.127 1.1-.381.31-.254.49-.572.52-.953h1.11a2.11 2.11 0 0 1-.4 1.124c-.25.355-.59.639-1.01.85-.41.212-.85.318-1.32.318-.93 0-1.68-.311-2.23-.933-.55-.627-.83-1.481-.83-2.565v-.196c0-.669.13-1.264.37-1.784.25-.52.6-.925 1.06-1.212.46-.288 1-.432 1.63-.432.77 0 1.41.23 1.91.692.52.461.79 1.06.82 1.796h-1.11c-.03-.444-.2-.808-.51-1.092-.3-.287-.67-.431-1.11-.431-.6 0-1.06.215-1.39.647-.33.428-.49 1.048-.49 1.86v.222c0 .792.16 1.4.49 1.828.32.428.79.642 1.39.642zm6.19-2.095h-.85V58h-1.19v-6.868h1.19v2.907h.76l2.31-2.907h1.43l-2.72 3.3 2.94 3.568h-1.49l-2.38-2.926zm9.33-3.942h1.17V58h-1.17v-5.008L1107.12 58h-1.17v-6.868h1.17v5.015l3.17-5.015zm3 5.91l.41-.502c.45-.592.71-1.481.78-2.666l.1-2.742h4.43v5.91h.88v2.977h-1.17V58h-4.8v2.019h-1.17l.01-2.977h.53zm1.39 0h3.15v-4.825h-2.11l-.07 1.638c-.07 1.367-.39 2.429-.97 3.187zm8.65-1.968h-.86V58h-1.18v-6.868h1.18v2.907h.77l2.31-2.907h1.43l-2.72 3.3L1127.2 58h-1.49l-2.38-2.926zm9.12 2.926c-.06-.135-.12-.377-.16-.724-.55.567-1.2.851-1.96.851-.67 0-1.23-.19-1.67-.571-.43-.385-.64-.872-.64-1.46 0-.715.27-1.27.81-1.663.54-.398 1.31-.597 2.3-.597h1.14v-.54c0-.41-.12-.736-.37-.977-.24-.246-.61-.368-1.08-.368-.42 0-.77.105-1.06.317-.28.212-.42.468-.42.768h-1.18c0-.343.12-.673.36-.99.24-.322.57-.576.99-.762.42-.186.88-.28 1.38-.28.79 0 1.41.2 1.86.598.44.393.68.937.69 1.63v3.162c0 .63.08 1.132.24 1.504V58h-1.23zm-1.95-.895c.37 0 .72-.095 1.05-.286.33-.19.57-.438.72-.742v-1.41h-.92c-1.44 0-2.16.422-2.16 1.264 0 .368.12.656.37.863.24.207.56.311.94.311zm7.95-.063l.41-.502c.45-.592.72-1.481.78-2.666l.11-2.742h4.42v5.91h.88v2.977h-1.17V58h-4.79v2.019h-1.18l.01-2.977h.53zm1.39 0h3.16v-4.825h-2.12l-.07 1.638c-.07 1.367-.39 2.429-.97 3.187zm6.2-2.54c0-.672.13-1.278.4-1.815.26-.537.63-.952 1.1-1.244a3.055 3.055 0 0 1 1.62-.438c.94 0 1.69.324 2.27.971.58.648.87 1.509.87 2.584v.082c0 .669-.13 1.27-.39 1.803a2.93 2.93 0 0 1-1.1 1.238c-.47.296-1.02.444-1.64.444-.93 0-1.68-.324-2.26-.971-.58-.648-.87-1.505-.87-2.571v-.083zm1.18.14c0 .762.18 1.373.53 1.835.36.46.83.692 1.42.692.6 0 1.07-.233 1.42-.699.36-.47.53-1.125.53-1.968 0-.753-.18-1.362-.54-1.828-.35-.47-.83-.704-1.42-.704-.58 0-1.05.23-1.4.692-.36.46-.54 1.121-.54 1.98zm10.19-1.276l.47-4.608h4.74v1.085h-3.74l-.28 2.52c.45-.266.97-.4 1.54-.4.84 0 1.51.28 2.01.838.49.555.74 1.306.74 2.254 0 .952-.26 1.703-.77 2.253-.52.546-1.23.819-2.16.819-.81 0-1.48-.226-2-.68-.51-.452-.81-1.078-.88-1.878h1.11c.07.529.26.929.57 1.2.3.266.7.4 1.2.4.55 0 .98-.187 1.29-.56.31-.372.47-.886.47-1.542 0-.617-.17-1.113-.51-1.485-.34-.377-.78-.565-1.34-.565-.51 0-.92.112-1.21.336l-.31.254-.94-.24zm6.66-2.83c0-.555.18-1.012.53-1.372.35-.36.81-.54 1.36-.54.57 0 1.02.182 1.37.546.35.36.52.828.52 1.403v.45c0 .56-.17 1.017-.53 1.372-.35.351-.8.527-1.34.527-.56 0-1.01-.176-1.37-.527-.36-.355-.54-.827-.54-1.416v-.444zm.88.488c0 .33.09.603.28.819.18.211.43.317.75.317.3 0 .54-.103.72-.31.18-.208.28-.492.28-.852v-.463c0-.33-.09-.603-.27-.819-.19-.215-.43-.323-.75-.323-.31 0-.56.108-.74.323-.18.216-.27.498-.27.844v.464zm3.62 4.71c0-.555.18-1.01.53-1.365.35-.36.81-.54 1.36-.54.56 0 1.01.178 1.37.534.35.355.53.827.53 1.415v.451c0 .554-.18 1.011-.53 1.371-.35.356-.8.533-1.35.533s-1.01-.175-1.37-.527c-.36-.355-.54-.827-.54-1.415v-.457zm.88.495c0 .334.09.61.28.825.18.212.43.318.75.318.3 0 .54-.104.73-.312.18-.211.27-.497.27-.856v-.47c0-.334-.09-.607-.28-.819-.18-.212-.43-.317-.74-.317a.93.93 0 0 0-.73.317c-.19.207-.28.489-.28.844v.47zm-3.21 1.073l-.66-.42 4.51-7.223.66.42-4.51 7.223zM276.914 12.058c0 1.375-.235 2.397-.705 3.066s-1.204 1.003-2.203 1.003c-.986 0-1.716-.326-2.19-.978-.474-.655-.719-1.633-.736-2.932v-1.568c0-1.358.235-2.368.705-3.028.469-.66 1.206-.99 2.209-.99.994 0 1.726.32 2.196.958.47.635.711 1.617.724 2.946v1.523zm-1.175-1.606c0-.994-.139-1.718-.419-2.17-.279-.458-.721-.686-1.326-.686-.601 0-1.039.226-1.314.679-.275.453-.417 1.149-.426 2.088v1.88c0 .998.144 1.736.432 2.214.292.474.732.711 1.32.711.58 0 1.01-.224 1.289-.672.283-.449.432-1.156.444-2.12v-1.924zm.914 43.606c0 1.375-.235 2.397-.705 3.066-.469.669-1.204 1.003-2.202 1.003-.986 0-1.716-.326-2.19-.978-.474-.656-.72-1.633-.737-2.932v-1.568c0-1.358.235-2.368.705-3.028.47-.66 1.206-.99 2.209-.99.994 0 1.726.32 2.196.958.47.635.711 1.617.724 2.946v1.523zm-1.174-1.606c0-.994-.14-1.718-.419-2.17-.28-.458-.722-.686-1.327-.686-.601 0-1.039.226-1.314.679-.275.453-.417 1.149-.425 2.088v1.88c0 .998.144 1.736.431 2.215.292.474.732.71 1.321.71.579 0 1.009-.224 1.288-.672.284-.449.432-1.156.445-2.12v-1.924zm2.577-1.917c0-.554.175-1.011.527-1.37.355-.36.81-.54 1.364-.54.563 0 1.018.181 1.365.545.351.36.527.828.527 1.403v.45c0 .56-.178 1.017-.533 1.372-.352.351-.8.527-1.346.527-.55 0-1.005-.176-1.365-.527-.359-.355-.539-.827-.539-1.416v-.444zm.876.489c0 .33.093.603.279.819.186.211.436.317.749.317.3 0 .542-.103.724-.31.186-.208.279-.492.279-.852v-.463c0-.33-.091-.603-.273-.819-.182-.215-.43-.323-.743-.323s-.56.108-.742.323c-.182.216-.273.498-.273.844v.464zm3.624 4.71c0-.555.176-1.01.527-1.365.355-.36.81-.54 1.365-.54.554 0 1.009.178 1.364.534.356.355.534.827.534 1.415v.451c0 .554-.178 1.011-.534 1.371-.351.356-.801.533-1.352.533-.55 0-1.005-.175-1.364-.527-.36-.355-.54-.827-.54-1.415v-.457zm.876.495c0 .334.093.61.279.825.187.212.436.318.749.318.305 0 .548-.104.73-.312.182-.211.273-.497.273-.856v-.47c0-.334-.093-.607-.279-.819-.182-.212-.427-.317-.736-.317a.947.947 0 0 0-.737.317c-.186.207-.279.489-.279.844v.47zm-3.205 1.073l-.667-.42 4.513-7.223.667.42-4.513 7.223z" fill="#222"/><circle cx="274" cy="33" r="4" fill="#fff" stroke="#E73700" stroke-width="2"/><circle cx="435" cy="33" r="4" fill="#fff" stroke="#E73700" stroke-width="2"/><circle cx="710" cy="33" r="4" fill="#fff" stroke="#E73700" stroke-width="2"/><circle cx="1042" cy="33" r="4" fill="#fff" stroke="#E73700" stroke-width="2"/></svg>