<svg width="15" height="16" viewBox="0 0 15 16" fill="none" xmlns="http://www.w3.org/2000/svg"><g opacity=".3"><path d="M5.206 13.878l-.503.522v-1.748a.86.86 0 0 0-.68-.84c-.386-.089-.91-.4-1.392-.867-.48-.464-.802-.97-.899-1.34a14.6 14.6 0 0 1 0-6.18c.097-.37.419-.875.9-1.34.479-.463 1-.775 1.386-.865 2.512-.48 5.056-.48 7.567 0 .386.09.908.402 1.388.866.48.464.802.97.898 1.339.442 2.052.442 4.13 0 6.181-.096.37-.418.875-.899 1.34-.48.463-1.001.775-1.387.865a20.07 20.07 0 0 1-4.336.352.857.857 0 0 0-.64.261l-.782.81-.432.448-.137.143-.038.04-.01.01-.003.003z" stroke="#000" stroke-width="1.5"/><path d="M11.308 9.084c-.194.4-.477.732-.884.944-.115.06-.252.079-.382.118-.15-.044-.292-.074-.424-.127-1.368-.55-2.627-1.26-3.625-2.347-.567-.619-1.011-1.317-1.386-2.056-.178-.35-.328-.715-.481-1.077-.14-.33.066-.67.282-.92.203-.233.464-.411.746-.543.221-.103.439-.043.6.138.348.392.668.803.928 1.258.159.279.115.62-.174.81-.07.047-.134.101-.2.153a.643.643 0 0 0-.15.154.41.41 0 0 0-.029.37c.356.949.957 1.686 1.942 2.083.158.064.316.138.497.117.305-.034.403-.357.616-.526a.595.595 0 0 1 .7-.03c.224.138.441.285.657.435.213.146.424.29.62.457.188.16.253.371.147.59zm-1.767-3.09a.283.283 0 0 1-.02-.001c-.136-.005-.21-.083-.225-.21-.01-.093-.02-.187-.042-.277a.777.777 0 0 0-.297-.451.785.785 0 0 0-.242-.113c-.11-.03-.224-.022-.333-.048-.12-.029-.185-.122-.166-.23a.213.213 0 0 1 .226-.168c.694.049 1.19.396 1.261 1.188.005.056.011.115-.002.168a.176.176 0 0 1-.16.142zm-.431-1.81a2.5 2.5 0 0 0-.677-.202c-.102-.016-.205-.026-.308-.04-.124-.016-.19-.093-.184-.212.005-.11.09-.19.214-.184.41.023.808.109 1.173.296.742.381 1.167.982 1.29 1.786.006.036.015.072.018.109.007.09.011.18.019.299-.003.021-.005.072-.018.12-.048.174-.32.196-.383.02a.51.51 0 0 1-.021-.167 2.05 2.05 0 0 0-.274-1.054 2 2 0 0 0-.85-.771zm2.294 2.482c-.143.001-.208-.115-.217-.24-.018-.247-.031-.494-.066-.74-.186-1.29-1.249-2.36-2.576-2.59-.2-.034-.404-.043-.606-.063-.128-.013-.296-.02-.324-.175-.024-.129.089-.232.216-.238.034-.002.069 0 .103 0 1.72.046.105.003.005 0 1.788.05 3.256 1.2 3.57 2.913.054.293.073.591.097.888.01.124-.063.243-.202.245z" fill="#000"/></g></svg>