<svg width="20" height="21" viewBox="0 0 20 21" fill="none" xmlns="http://www.w3.org/2000/svg"><g opacity=".3"><path d="M5.146 16.434l.127-.633.02-.103-3.93-11.544a20.286 20.286 0 0 0 0 8.623c.372 1.479 2.273 3.317 3.783 3.657zm0 0l.01-.045-.009.045zm1.947 1.93l-1.08 1.119v-2.908c0-.426-.3-.788-.708-.874-.57-.13-1.301-.575-1.956-1.208-.653-.631-1.113-1.338-1.255-1.888a19.535 19.535 0 0 1 0-8.28c.142-.549.602-1.256 1.255-1.887.653-.631 1.382-1.075 1.951-1.207a26.724 26.724 0 0 1 10.1 0c.57.132 1.299.576 1.952 1.207.653.632 1.113 1.338 1.254 1.888a19.51 19.51 0 0 1 0 8.28c-.141.549-.601 1.255-1.255 1.887-.652.631-1.382 1.075-1.95 1.207a26.81 26.81 0 0 1-5.788.47.89.89 0 0 0-.666.272l-1.033 1.07-.57.593-.182.188-.05.052-.014.014-.003.003-.001.001z" stroke="#000" stroke-width="1.5"/><path d="M14.984 11.86c-.257.528-.63.967-1.168 1.247-.152.08-.334.105-.505.156-.198-.058-.386-.097-.56-.167-1.808-.727-3.473-1.665-4.791-3.102-.75-.818-1.337-1.74-1.833-2.718-.235-.463-.433-.944-.635-1.422-.184-.436.087-.887.373-1.216a2.94 2.94 0 0 1 .987-.718c.291-.136.579-.057.792.182.46.518.883 1.062 1.226 1.662.21.37.153.82-.23 1.072-.092.061-.176.133-.263.202a.85.85 0 0 0-.199.203.542.542 0 0 0-.038.49c.47 1.253 1.264 2.227 2.566 2.752.208.084.417.182.657.155.402-.046.533-.473.814-.696.276-.218.627-.221.924-.04.296.183.584.378.87.575.28.194.56.383.819.604.248.213.334.491.194.78zm-2.335-4.084a.372.372 0 0 1-.026-.001c-.18-.006-.279-.11-.298-.277-.014-.123-.026-.247-.056-.366a1.028 1.028 0 0 0-.392-.597 1.038 1.038 0 0 0-.32-.15c-.145-.04-.296-.029-.44-.063-.158-.037-.245-.16-.22-.304a.283.283 0 0 1 .3-.221c.917.064 1.572.523 1.666 1.57.006.073.014.151-.003.222a.232.232 0 0 1-.211.187zm-.57-2.392a3.303 3.303 0 0 0-.895-.266c-.134-.022-.27-.035-.406-.053-.164-.022-.252-.124-.244-.28.007-.147.118-.253.283-.244.543.03 1.067.144 1.55.391.981.504 1.542 1.299 1.705 2.36.008.048.02.096.024.144.009.12.015.239.024.396-.004.028-.006.096-.023.159-.063.23-.423.259-.506.027a.673.673 0 0 1-.028-.222 2.71 2.71 0 0 0-.363-1.393 2.644 2.644 0 0 0-1.121-1.02zm3.032 3.28c-.19.002-.275-.152-.287-.316-.024-.326-.041-.654-.088-.977-.245-1.708-1.65-3.12-3.404-3.423-.264-.046-.534-.058-.801-.085-.169-.017-.39-.027-.428-.23-.031-.171.117-.307.285-.316.046-.002.092 0 .137 0 2.272.061.14.005.006 0 2.363.067 4.303 1.587 4.72 3.85.07.387.095.782.127 1.173.013.165-.083.322-.267.324z" fill="#000"/></g></svg>