<svg width="22" height="22" viewBox="0 0 22 22" fill="none" xmlns="http://www.w3.org/2000/svg"><path d="M6.648 16.953l.664.388a7.333 7.333 0 1 0-2.652-2.652l.387.663-.599 2.201 2.2-.6zm-4.811 3.214l1.239-4.554A9.124 9.124 0 0 1 1.833 11 9.166 9.166 0 0 1 11 1.833 9.167 9.167 0 0 1 20.166 11 9.167 9.167 0 0 1 11 20.167a9.123 9.123 0 0 1-4.611-1.242l-4.552 1.242zM7.69 6.699c.123-.01.247-.01.37-.004.05.004.099.01.148.015.146.016.307.105.36.228.274.62.54 1.244.796 1.87.057.14.023.318-.085.492a4.016 4.016 0 0 1-.241.341c-.104.133-.326.377-.326.377s-.091.108-.056.243a.811.811 0 0 0 .093.188l.054.087c.235.392.55.789.935 1.162.11.107.218.216.333.318a5.51 5.51 0 0 0 1.44.916l.004.002.23.101c.058.024.116.045.176.06a.32.32 0 0 0 .336-.119c.664-.804.724-.856.73-.856v.002a.44.44 0 0 1 .346-.116.473.473 0 0 1 .163.036c.486.223 1.283.57 1.283.57l.534.24c.09.043.17.144.174.243.003.061.009.16-.012.341-.03.238-.101.523-.173.672a1.055 1.055 0 0 1-.192.277 2.177 2.177 0 0 1-.303.264 3.42 3.42 0 0 1-.114.083c-.114.072-.231.14-.351.201a1.824 1.824 0 0 1-.764.211c-.17.01-.339.022-.51.013-.007 0-.52-.08-.52-.08a8.66 8.66 0 0 1-3.52-1.875c-.207-.183-.399-.379-.595-.574-.816-.811-1.432-1.687-1.806-2.514a3.18 3.18 0 0 1-.303-1.296 2.502 2.502 0 0 1 .517-1.54c.067-.086.13-.176.239-.28.116-.11.19-.168.27-.208a.88.88 0 0 1 .34-.092V6.7z" fill="#FA7045"/></svg>