<svg width="27" height="23" viewBox="0 0 27 23" fill="none" xmlns="http://www.w3.org/2000/svg"><path d="M10.048 0C4.682 0 .333 3.625.333 8.095c0 2.578 1.454 4.864 3.71 6.344L2.762 17l3.489-1.494c.748.265 1.525.484 2.356.586a6.78 6.78 0 0 1-.178-1.52c0-4.464 4.357-8.096 9.714-8.096.49 0 .97.04 1.442.099C18.732 2.832 14.788 0 10.048 0zM6.81 6.071a1.215 1.215 0 1 1 0-2.429 1.215 1.215 0 0 1 0 2.43zm6.476 0a1.215 1.215 0 1 1 0-2.429 1.215 1.215 0 0 1 0 2.43z" fill="#fff"/><path d="M26.238 14.571c0-3.576-3.625-6.476-8.095-6.476-4.47 0-8.095 2.9-8.095 6.476 0 3.577 3.625 6.477 8.095 6.477a9.91 9.91 0 0 0 2.113-.251l4.363 1.87-1.509-3.017c1.891-1.185 3.128-3.008 3.128-5.079zm-10.524-.404a1.215 1.215 0 1 1 .001-2.43 1.215 1.215 0 0 1 0 2.43zm4.858 0a1.215 1.215 0 1 1 0-2.43 1.215 1.215 0 0 1 0 2.43z" fill="#fff"/></svg>