<svg width="24" height="21" viewBox="0 0 24 21" fill="none" xmlns="http://www.w3.org/2000/svg"><path d="M9 0C4.029 0 0 3.358 0 7.5c0 2.388 1.347 4.506 3.436 5.877L2.25 15.75l3.232-1.385c.693.246 1.413.449 2.183.543A6.28 6.28 0 0 1 7.5 13.5c0-4.136 4.036-7.5 9-7.5.454 0 .898.037 1.336.091C17.044 2.623 13.392 0 9 0zM6 5.625a1.125 1.125 0 1 1 0-2.25 1.125 1.125 0 0 1 0 2.25zm6 0a1.125 1.125 0 1 1 0-2.25 1.125 1.125 0 0 1 0 2.25z" fill="#FC7822"/><path d="M24 13.5c0-3.314-3.358-6-7.5-6-4.141 0-7.5 2.686-7.5 6 0 3.313 3.359 6 7.5 6 .681 0 1.33-.096 1.958-.233L22.5 21l-1.398-2.795C22.854 17.107 24 15.418 24 13.5zm-9.75-.375a1.125 1.125 0 1 1 .001-2.251 1.125 1.125 0 0 1 0 2.25zm4.5 0a1.125 1.125 0 1 1 .001-2.251 1.125 1.125 0 0 1 0 2.25z" fill="#FC7822"/></svg>