<svg width="20" height="17" viewBox="0 0 20 17" fill="none" xmlns="http://www.w3.org/2000/svg"><path d="M7.286 0C3.262 0 0 2.719 0 6.071 0 8.005 1.09 9.72 2.782 10.83l-.96 1.921 2.616-1.12a8.37 8.37 0 0 0 1.767.439 5.084 5.084 0 0 1-.134-1.14c0-3.348 3.268-6.072 7.286-6.072.368 0 .728.03 1.082.074C13.798 2.124 10.841 0 7.286 0zM4.857 4.554a.911.911 0 1 1 0-1.823.911.911 0 0 1 0 1.823zm4.857 0a.911.911 0 1 1 0-1.823.911.911 0 0 1 0 1.823z" fill="#B9BBBC"/><path d="M19.429 10.929c0-2.683-2.719-4.858-6.071-4.858-3.353 0-6.072 2.175-6.072 4.858 0 2.682 2.719 4.857 6.072 4.857.55 0 1.075-.078 1.584-.188L18.215 17l-1.132-2.262c1.418-.89 2.346-2.256 2.346-3.81zm-7.893-.304a.911.911 0 1 1 0-1.822.911.911 0 0 1 0 1.822zm3.643 0a.911.911 0 1 1 0-1.822.911.911 0 0 1 0 1.822z" fill="#B9BBBC"/></svg>