<svg width="18" height="14" viewBox="0 0 18 14" fill="none" xmlns="http://www.w3.org/2000/svg"><path d="M18 11.667c0 .409-.111.788-.289 1.122l-5.683-6.594 5.622-5.101c.218.36.35.783.35 1.24v9.333zM9 7.392L16.823.294A2.161 2.161 0 0 0 15.75 0H2.25c-.39 0-.752.112-1.072.294L9 7.392zm2.18-.43L9.37 8.608a.55.55 0 0 1-.74 0L6.819 6.962l-5.756 6.68c.345.224.75.358 1.187.358h13.5c.437 0 .842-.134 1.186-.359l-5.755-6.678zM.35 1.095A2.38 2.38 0 0 0 0 2.334v9.333c0 .409.11.788.289 1.122l5.683-6.596-5.622-5.1z" fill="#B9BBBC"/></svg>