<svg width="26" height="17" viewBox="0 0 26 17" fill="none" xmlns="http://www.w3.org/2000/svg"><path d="M9.502 10.052h3.934a5.006 5.006 0 0 1-4.75 3.336c-2.658-.02-4.854-2.145-4.958-4.8A5.004 5.004 0 0 1 8.723 3.39c1.29 0 2.467.492 3.355 1.297.21.191.53.192.737-.002l1.445-1.36a.54.54 0 0 0 .002-.786A8.027 8.027 0 0 0 8.883.335C4.442.248.698 3.89.667 8.332a8.056 8.056 0 0 0 16.099.51c.006-.052.01-1.848.01-1.848H9.502a.54.54 0 0 0-.54.54v1.978c0 .298.242.54.54.54zm13.94-2.879V5.24a.473.473 0 0 0-.473-.473h-1.627a.473.473 0 0 0-.473.473v1.933h-1.932a.473.473 0 0 0-.474.473v1.627c0 .261.212.473.474.473h1.932v1.933c0 .261.212.473.474.473h1.626a.473.473 0 0 0 .473-.473V9.746h1.933a.473.473 0 0 0 .473-.473V7.646a.473.473 0 0 0-.473-.473h-1.933z" fill="#fff"/></svg>