<svg width="18" height="18" viewBox="0 0 18 18" fill="none" xmlns="http://www.w3.org/2000/svg"><path d="M12.375 0h-6.75A5.626 5.626 0 0 0 0 5.625v6.75A5.626 5.626 0 0 0 5.625 18h6.75A5.626 5.626 0 0 0 18 12.375v-6.75A5.626 5.626 0 0 0 12.375 0zm3.938 12.375a3.942 3.942 0 0 1-3.938 3.938h-6.75a3.942 3.942 0 0 1-3.938-3.938v-6.75a3.942 3.942 0 0 1 3.938-3.938h6.75a3.942 3.942 0 0 1 3.938 3.938v6.75z" fill="#FC7822"/><path d="M9 4.5a4.5 4.5 0 1 0 0 9 4.5 4.5 0 0 0 0-9zm0 7.313A2.816 2.816 0 0 1 6.187 9 2.816 2.816 0 0 1 9 6.187 2.816 2.816 0 0 1 11.813 9 2.816 2.816 0 0 1 9 11.813zm4.837-7.051a.6.6 0 1 0 0-1.199.6.6 0 0 0 0 1.2z" fill="#FC7822"/></svg>