<svg width="28" height="28" viewBox="0 0 28 28" fill="#FC7822" xmlns="http://www.w3.org/2000/svg"><path d="M28 14c0-7.72-6.28-14-14-14S0 6.28 0 14c0 4.077 1.753 7.752 4.544 10.313l-.013.012.454.383c.03.025.062.045.091.07a14.116 14.116 0 0 0 .995.75 14.275 14.275 0 0 0 1.98 1.14c.024.012.049.022.073.033a13.82 13.82 0 0 0 3.385 1.072l.094.017c.369.063.741.114 1.119.148.046.005.091.007.138.011.375.031.755.051 1.14.051.381 0 .758-.02 1.131-.05l.142-.01a14.42 14.42 0 0 0 1.109-.147 13.87 13.87 0 0 0 3.433-1.063l.117-.053a14.125 14.125 0 0 0 1.95-1.114c.094-.065.187-.132.28-.2.223-.16.443-.326.656-.5.047-.038.098-.071.144-.11l.466-.39-.013-.011A13.964 13.964 0 0 0 28 14zM1.018 14C1.018 6.842 6.842 1.018 14 1.018c7.158 0 12.982 5.824 12.982 12.982a12.95 12.95 0 0 1-4.373 9.705c-.15-.103-.3-.196-.454-.274l-4.31-2.155a1.128 1.128 0 0 1-.628-1.014v-1.506c.1-.123.205-.262.314-.416a10.375 10.375 0 0 0 1.332-2.608 1.847 1.847 0 0 0 1.061-1.674v-1.805c0-.441-.162-.87-.451-1.206V8.671c.026-.264.12-1.755-.959-2.985-.938-1.071-2.457-1.613-4.514-1.613-2.057 0-3.576.542-4.514 1.613-1.079 1.23-.985 2.72-.959 2.985v2.376a1.853 1.853 0 0 0-.451 1.206v1.804c0 .561.251 1.084.682 1.437.412 1.615 1.26 2.838 1.575 3.252v1.474c0 .415-.227.797-.592.996l-4.025 2.196c-.129.07-.256.151-.383.242A12.95 12.95 0 0 1 1.018 14zm20.598 10.504c-.179.129-.36.254-.544.374a12.805 12.805 0 0 1-.989.586c-.054.029-.11.056-.165.085-.574.294-1.167.546-1.776.751l-.065.022c-.319.106-.642.2-.969.281h-.003c-.33.082-.664.15-1 .205l-.027.005a13.03 13.03 0 0 1-.955.117l-.17.013a13.13 13.13 0 0 1-.953.039c-.323 0-.645-.016-.965-.04l-.166-.013a13.175 13.175 0 0 1-.962-.118l-.043-.008a12.926 12.926 0 0 1-1.98-.494l-.06-.02a13.18 13.18 0 0 1-.948-.364l-.007-.003a13.327 13.327 0 0 1-.868-.415l-.111-.058a13.095 13.095 0 0 1-.987-.588 12.18 12.18 0 0 1-.681-.474l-.068-.053.049-.028 4.025-2.196a2.153 2.153 0 0 0 1.123-1.89v-1.834l-.118-.142c-.011-.012-1.112-1.351-1.528-3.164l-.046-.202-.174-.112a.844.844 0 0 1-.391-.709v-1.805c0-.236.1-.457.283-.622l.168-.152V8.642l-.004-.066c-.002-.013-.152-1.237.71-2.22.737-.839 1.998-1.265 3.749-1.265 1.744 0 3.002.422 3.74 1.255.861.973.72 2.22.72 2.23l-.006 2.903.168.152a.832.832 0 0 1 .284.622v1.805a.85.85 0 0 1-.601.802l-.253.078-.082.252a9.419 9.419 0 0 1-1.27 2.562 6.25 6.25 0 0 1-.375.483l-.126.144v1.883c0 .82.456 1.559 1.19 1.925l4.31 2.155.082.042c-.054.042-.11.08-.165.12z"/></svg>