<svg width="28" height="29" viewBox="0 0 28 29" fill="none" xmlns="http://www.w3.org/2000/svg"><path d="M23.906 4.094C19.531-.281 12.959-1.148 7.709 1.486l-.005-.01-.424.232-.074.044c-.248.137-.493.282-.734.436l-.074.046c-.262.169-.519.347-.77.535l-.092.07c-.208.159-.413.324-.614.496a14.089 14.089 0 0 0-.828.76c-.214.213-.418.435-.615.66a14.085 14.085 0 0 0-.639.781c-.023.03-.048.06-.07.09-.19.253-.367.51-.537.771l-.046.075c-.154.24-.298.485-.436.733l-.044.074-.231.424.01.005C-1.148 12.96-.281 19.531 4.094 23.906A13.967 13.967 0 0 0 14 28.002c2.16 0 4.318-.498 6.291-1.488l.005.01.425-.232c.024-.013.047-.03.072-.043.249-.138.495-.283.736-.438l.073-.045c.261-.169.518-.347.77-.536.032-.023.062-.047.093-.071.208-.158.412-.323.613-.494l.168-.144a14 14 0 0 0 .66-.615c.215-.215.417-.436.615-.66l.144-.168c.171-.201.336-.406.495-.614l.07-.091c.189-.252.367-.51.536-.771l.046-.074c.154-.24.299-.485.436-.734l.044-.074.232-.424-.01-.005c2.634-5.25 1.767-11.822-2.608-16.197zM14 .963c3.34 0 6.68 1.271 9.223 3.814 4.065 4.065 4.877 10.167 2.443 15.05l-6.371-3.483a5.8 5.8 0 0 0-1.196-6.443 5.801 5.801 0 0 0-6.444-1.197l-3.482-6.37A13.066 13.066 0 0 1 14 .963zm10.719 20.464a13.361 13.361 0 0 1-.853 1.099c-.042.048-.083.098-.126.146a12.78 12.78 0 0 1-1.067 1.068l-.147.126a12.479 12.479 0 0 1-1.099.852l-.108.076c-.21.142-.424.28-.643.41l-3.48-6.367a5.805 5.805 0 0 0 1.641-1.642l6.368 3.48a13.65 13.65 0 0 1-.486.752zm-7.78-3.599c-.031.024-.064.047-.096.07-.165.12-.336.233-.518.333l-.02.011-.087.048a4.838 4.838 0 0 1-5.634-.874 4.837 4.837 0 0 1-.876-5.633l.05-.092.009-.014a4.9 4.9 0 0 1 .334-.521l.07-.095c.129-.168.264-.329.413-.477.147-.148.309-.284.476-.412l.096-.07c.165-.12.337-.233.518-.333l.02-.012.087-.047a4.84 4.84 0 0 1 5.634.874 4.838 4.838 0 0 1 .875 5.633l-.05.091-.008.014a4.78 4.78 0 0 1-.335.522l-.07.095a4.767 4.767 0 0 1-.412.477 4.573 4.573 0 0 1-.476.412zM3.206 6.681l.075-.108a12.867 12.867 0 0 1 .853-1.098l.126-.147A12.78 12.78 0 0 1 5.327 4.26c.049-.043.098-.083.147-.125a12.623 12.623 0 0 1 1.099-.853l.108-.076c.21-.142.424-.28.643-.41l3.48 6.367a5.802 5.802 0 0 0-1.642 1.643L2.795 7.324c.13-.218.268-.432.41-.643zm1.571 16.542C.712 19.157-.1 13.056 2.334 8.173l6.37 3.482c-.938 2.127-.543 4.705 1.197 6.444A5.778 5.778 0 0 0 14 19.794c.8 0 1.6-.17 2.345-.499l3.482 6.371c-4.883 2.434-10.984 1.622-15.05-2.443z" fill="#7D7F83"/><path d="M12.634 12.633c-.366.365-.567.85-.567 1.367 0 .515.201 1.001.567 1.366.364.365.85.566 1.366.566.516 0 1.001-.201 1.366-.566.365-.365.566-.85.566-1.366 0-.516-.2-1.002-.566-1.367-.73-.73-2.003-.73-2.732 0zm2.049 2.05a.989.989 0 0 1-1.366 0 .96.96 0 0 1-.284-.683c0-.258.101-.5.284-.683a.96.96 0 0 1 .683-.283c.258 0 .5.1.683.283a.96.96 0 0 1 .283.683c0 .258-.1.5-.283.683z" fill="#7D7F83"/></svg>