<svg width="28" height="28" viewBox="0 0 28 28" fill="none" xmlns="http://www.w3.org/2000/svg"><path d="M27.846 12.776L23.655 8.91V2.574h-4.828v1.88L14 0 .154 12.776a.478.478 0 0 0-.025.679.486.486 0 0 0 .683.025L2.414 12v16h23.173V12l1.602 1.48a.482.482 0 0 0 .682-.026.478.478 0 0 0-.025-.678zm-8.053-9.243h2.896v4.485l-2.896-2.672V3.533zm-8.69 23.508V16.936c0-.248.203-.45.453-.45h4.888c.25 0 .452.202.452.45V27.04h-5.793zm13.518 0h-6.76V16.936c0-.777-.635-1.41-1.417-1.41h-4.888c-.783 0-1.418.633-1.418 1.41V27.04H3.379V11.11l10.62-9.8 6.895 6.36 2.761 2.549.966.89v15.932z" fill="#7D7F83"/></svg>