<svg width="15" height="14" viewBox="0 0 15 14" fill="none" xmlns="http://www.w3.org/2000/svg"><path d="M6.99 7.413c.252-.6.467-1.07.643-1.412a6.89 6.89 0 0 1 .372-.64c.115-.173.256-.343.42-.508a1.62 1.62 0 0 1 .57-.372c.215-.082.455-.123.72-.123h2.113v1.585c0 .072.026.134.079.186a.253.253 0 0 0 .185.078c.077 0 .14-.024.19-.074l2.643-2.642a.257.257 0 0 0 .074-.19.258.258 0 0 0-.075-.19L12.29.476a.31.31 0 0 0-.198-.082.257.257 0 0 0-.19.074.258.258 0 0 0-.074.19v1.586H9.714a4.062 4.062 0 0 0-1.937.483c-.255.14-.503.329-.743.565-.24.237-.443.466-.61.686-.169.22-.345.495-.53.825a12.2 12.2 0 0 0-.445.868c-.113.247-.25.553-.409.916-.253.6-.468 1.071-.644 1.412a7.054 7.054 0 0 1-.372.64 3.346 3.346 0 0 1-.42.508 1.62 1.62 0 0 1-.57.372 1.988 1.988 0 0 1-.719.124H.465a.257.257 0 0 0-.19.074.257.257 0 0 0-.074.19v1.585a.257.257 0 0 0 .265.265h1.85a4.064 4.064 0 0 0 1.937-.483c.255-.14.503-.33.742-.566.24-.237.443-.466.611-.686a7.07 7.07 0 0 0 .529-.825c.184-.33.333-.62.446-.867.112-.248.248-.554.408-.917z" fill="#FC7822"/><path d="M.465 4.358h1.85a1.942 1.942 0 0 1 1.193.409c.14.112.281.268.422.466.14.198.251.373.334.524.083.152.184.351.305.6.424-.997.801-1.749 1.132-2.255-.881-1.239-2.01-1.858-3.386-1.858H.465a.257.257 0 0 0-.19.074.257.257 0 0 0-.074.19v1.585c0 .078.025.14.074.19.05.05.113.075.19.075zm11.827 3.518a.31.31 0 0 0-.199-.083.257.257 0 0 0-.19.074.257.257 0 0 0-.074.19v1.586H9.715a1.939 1.939 0 0 1-1.193-.409 2.302 2.302 0 0 1-.421-.467 5.41 5.41 0 0 1-.335-.524 15.822 15.822 0 0 1-.305-.599c-.424.991-.798 1.743-1.123 2.255.148.214.303.406.462.573.16.168.311.316.454.442.144.127.306.237.488.33.181.094.34.172.479.236.138.063.31.114.52.153.21.038.385.067.528.086.144.02.34.033.587.042.247.008.448.01.602.008a80.703 80.703 0 0 1 1.371-.013v1.586c0 .072.027.133.079.186a.254.254 0 0 0 .186.078.26.26 0 0 0 .19-.074l2.642-2.643A.258.258 0 0 0 15 10.7a.256.256 0 0 0-.074-.19l-2.634-2.633z" fill="#FC7822"/></svg>