<svg width="15" height="12" viewBox="0 0 15 12" fill="none" xmlns="http://www.w3.org/2000/svg"><path d="M5.941.869a.52.52 0 0 0-.38.16l-2.81 2.81H.541A.52.52 0 0 0 .16 4a.52.52 0 0 0-.16.38v3.24A.52.52 0 0 0 .16 8a.52.52 0 0 0 .38.16h2.211l2.81 2.81a.52.52 0 0 0 .38.161.52.52 0 0 0 .38-.16.519.519 0 0 0 .16-.38V1.409a.52.52 0 0 0-.16-.38.52.52 0 0 0-.38-.16zm3.422 6.325a2.174 2.174 0 0 0 0-2.393 1.94 1.94 0 0 0-.95-.785.47.47 0 0 0-.21-.042.526.526 0 0 0-.38.156.516.516 0 0 0-.16.384c0 .118.033.218.1.3a.984.984 0 0 0 .246.211c.095.059.19.124.287.194a.85.85 0 0 1 .244.3c.068.13.102.29.102.48 0 .192-.034.352-.102.482a.851.851 0 0 1-.244.3 4.37 4.37 0 0 1-.287.194.985.985 0 0 0-.245.21.455.455 0 0 0-.102.3c0 .152.054.28.16.384a.526.526 0 0 0 .38.156.473.473 0 0 0 .212-.042c.394-.157.71-.42.95-.789z" fill="#B9BBBC"/><path d="M11.165 8.384A4.257 4.257 0 0 0 11.882 6c0-.86-.239-1.655-.717-2.384a4.164 4.164 0 0 0-1.899-1.591.608.608 0 0 0-.22-.042.52.52 0 0 0-.38.16.52.52 0 0 0-.16.38c0 .22.11.385.33.498.315.163.529.287.641.371.416.304.741.685.975 1.144.233.458.35.946.35 1.464a3.19 3.19 0 0 1-.35 1.464c-.234.459-.559.84-.975 1.143a5.231 5.231 0 0 1-.641.372c-.22.112-.33.278-.33.498a.52.52 0 0 0 .16.38c.108.107.237.16.389.16a.59.59 0 0 0 .211-.042 4.164 4.164 0 0 0 1.899-1.591z" fill="#B9BBBC"/><path d="M12.97 2.435A6.372 6.372 0 0 0 10.119.042.607.607 0 0 0 9.9 0a.52.52 0 0 0-.38.16.519.519 0 0 0-.16.38c0 .203.11.369.33.498.039.022.102.052.189.089.087.036.15.066.19.088.259.14.49.284.692.43a5.38 5.38 0 0 1 1.62 1.916c.388.765.582 1.578.582 2.439s-.194 1.674-.582 2.439a5.377 5.377 0 0 1-1.62 1.915 6.38 6.38 0 0 1-.692.431c-.04.022-.103.052-.19.088-.087.037-.15.066-.19.089-.22.13-.33.295-.33.498a.52.52 0 0 0 .161.38.52.52 0 0 0 .38.16.605.605 0 0 0 .22-.042 6.37 6.37 0 0 0 2.852-2.393A6.34 6.34 0 0 0 14.043 6a6.339 6.339 0 0 0-1.072-3.565z" fill="#B9BBBC"/></svg>