<svg width="36" height="29" viewBox="0 0 36 29" fill="none" xmlns="http://www.w3.org/2000/svg"><g opacity=".3" fill="#6E7277"><path d="M25.94 4.15L14.7 5.923a.591.591 0 0 0-.5.584v11.645a4.003 4.003 0 0 0-2.663-.994c-2.12 0-3.846 1.592-3.846 3.55 0 1.958 1.726 3.55 3.846 3.55 2.09 0 3.793-1.548 3.841-3.467 0-.008.005-.015.005-.022V10.564l10.058-1.588v5.627a4 4 0 0 0-2.662-.995c-2.12 0-3.846 1.592-3.846 3.55 0 1.958 1.725 3.55 3.846 3.55 2.12 0 3.846-1.592 3.846-3.55V4.733a.59.59 0 0 0-.684-.584zM11.538 23.074c-1.468 0-2.662-1.061-2.662-2.367 0-1.305 1.194-2.366 2.662-2.366s2.663 1.061 2.663 2.366c0 1.306-1.195 2.367-2.663 2.367zm3.846-13.709V7.013l10.058-1.588v2.352l-10.058 1.59zm7.396 10.159c-1.468 0-2.663-1.061-2.663-2.367 0-1.305 1.195-2.366 2.663-2.366 1.468 0 2.662 1.061 2.662 2.366 0 1.306-1.194 2.367-2.662 2.367z"/><path d="M35.5 4.733h-2.367V2.367h-2.366V0H4.733v2.367H2.367v2.366H0v18.934h2.367v2.366h2.366V28.4h26.034v-2.367h2.366v-2.366H35.5V4.733zM1.183 22.483V5.917h1.184v16.566H1.183zM3.55 24.85V3.55h1.183v21.3H3.55zm26.033 2.367H5.917V1.183h23.666v26.034zm2.367-2.367h-1.183V3.55h1.183v21.3zm2.367-2.367h-1.184V5.917h1.184v16.566z"/></g></svg>