<svg width="14" height="14" viewBox="0 0 14 14" fill="none" xmlns="http://www.w3.org/2000/svg"><path d="M13.97 10.848c-.04-.12-.291-.295-.755-.527a23.334 23.334 0 0 0-.537-.298 49.127 49.127 0 0 1-.632-.348 21.03 21.03 0 0 1-.532-.308c-.026-.02-.109-.078-.248-.175a2.8 2.8 0 0 0-.353-.213.65.65 0 0 0-.284-.07c-.132 0-.298.095-.497.283a4.844 4.844 0 0 0-.546.617 6 6 0 0 1-.527.617c-.186.189-.339.283-.458.283a.677.677 0 0 1-.224-.05 2.307 2.307 0 0 1-.204-.084 3.69 3.69 0 0 1-.238-.14 6.062 6.062 0 0 0-.189-.114 10.45 10.45 0 0 1-2.337-1.73 10.444 10.444 0 0 1-1.73-2.337 5.747 5.747 0 0 0-.114-.189 3.587 3.587 0 0 1-.14-.238 2.155 2.155 0 0 1-.084-.204.673.673 0 0 1-.05-.224c0-.12.095-.272.284-.457a5.99 5.99 0 0 1 .616-.527c.222-.166.428-.348.617-.547.189-.199.283-.365.283-.497a.65.65 0 0 0-.07-.284 2.763 2.763 0 0 0-.213-.353 13.03 13.03 0 0 0-.174-.248c-.1-.166-.202-.343-.309-.532-.106-.189-.222-.4-.348-.632A23.62 23.62 0 0 0 3.68.786C3.447.322 3.272.07 3.152.03A.557.557 0 0 0 2.943 0c-.179 0-.412.033-.7.1a3.937 3.937 0 0 0-.682.208C1.23.448.878.852.507 1.521.17 2.144 0 2.761 0 3.371a3.867 3.867 0 0 0 .159 1.094c.06.212.108.37.144.472l.204.552c.1.265.16.427.179.487.232.65.507 1.23.825 1.74.524.848 1.238 1.725 2.143 2.63.905.905 1.781 1.62 2.63 2.143.51.318 1.09.593 1.74.825.06.02.222.08.487.18.266.099.45.167.552.203.103.037.26.085.472.145.213.06.403.1.572.124.17.023.343.035.522.035.61 0 1.227-.17 1.85-.507.67-.371 1.074-.723 1.213-1.054a3.93 3.93 0 0 0 .208-.682c.067-.288.1-.521.1-.7a.554.554 0 0 0-.03-.21z" fill="#B9BBBC"/></svg>