<svg width="18" height="20" viewBox="0 0 18 20" fill="none" xmlns="http://www.w3.org/2000/svg"><path d="M15.075 7.035c-.804 0-1.507.302-2.01.804L5.93 3.72c.1-.201.1-.503.1-.704C6.03 1.307 4.724 0 3.015 0 1.307 0 0 1.307 0 3.015 0 4.724 1.307 6.03 3.015 6.03c.804 0 1.508-.301 2.01-.804l7.136 4.12c-.1.202-.1.503-.1.704 0 .201 0 .503.1.704l-7.136 4.22c-.502-.502-1.206-.803-2.01-.803a2.917 2.917 0 0 0-2.914 2.914A2.917 2.917 0 0 0 3.015 20a2.917 2.917 0 0 0 2.915-2.915c0-.2 0-.402-.1-.703l7.135-4.221c.502.502 1.206.804 2.01.804 1.708 0 3.015-1.307 3.015-3.015 0-1.709-1.206-2.915-2.915-2.915z" fill="#B9BBBC"/></svg>