<svg width="16" height="13" viewBox="0 0 16 13" fill="none" xmlns="http://www.w3.org/2000/svg"><path d="M16 1.538c-.589.26-1.22.438-1.885.517A3.296 3.296 0 0 0 15.558.24a6.617 6.617 0 0 1-2.086.797A3.282 3.282 0 0 0 7.88 4.029 9.318 9.318 0 0 1 1.115.6 3.257 3.257 0 0 0 .67 2.25a3.28 3.28 0 0 0 1.46 2.732A3.282 3.282 0 0 1 .643 4.57v.041A3.286 3.286 0 0 0 3.276 7.83a3.325 3.325 0 0 1-.864.115 3.15 3.15 0 0 1-.618-.061 3.284 3.284 0 0 0 3.065 2.28 6.585 6.585 0 0 1-4.076 1.402c-.265 0-.526-.016-.783-.045a9.278 9.278 0 0 0 5.031 1.477c6.038 0 9.338-5.001 9.338-9.339l-.01-.425A6.553 6.553 0 0 0 16 1.538z" fill="#FC7822"/></svg>