<svg width="14" height="18" viewBox="0 0 14 18" fill="none" xmlns="http://www.w3.org/2000/svg"><path d="M6.801 6.8c.435 0 .766-.17 1.002-.513.18-.25.264-.653.264-1.186V3.344c0-.533-.084-.925-.264-1.176-.237-.34-.568-.51-1.002-.51-.426 0-.756.17-.99.51-.18.252-.265.644-.265 1.177v1.757c0 .533.084.925.265 1.186.234.341.564.512.99.512zm-.406-3.636c0-.462.133-.693.406-.693.284 0 .407.231.407.693v2.109c0 .463-.123.703-.407.703-.273 0-.406-.241-.406-.703v-2.11zm2.446 3.264c-.047-.151-.074-.392-.074-.753V1.717h.86v3.686c0 .212 0 .332.009.353.019.14.085.22.198.22.17 0 .349-.14.538-.432V1.717h.86V6.73h-.86v-.553c-.34.422-.66.623-.974.623-.274 0-.472-.12-.557-.372zm3.27 6.078v.461h-.851v-.461c0-.452.142-.684.425-.684.283 0 .425.232.425.684zM2.87 1.878C2.664 1.256 2.457.623 2.257 0H3.26l.67 2.642L4.572 0h.964L4.393 4.008V6.73h-.944V4.008c-.086-.493-.275-1.196-.578-2.13zm10.882 7.424c-.17-.794-.784-1.377-1.511-1.467-1.739-.2-3.496-.2-5.243-.2-1.748 0-3.505 0-5.234.2-.734.09-1.34.673-1.52 1.467C.01 10.426 0 11.652 0 12.817c0 1.155 0 2.39.246 3.515.17.794.785 1.377 1.511 1.457C3.495 18 5.252 18 7 18c1.748 0 3.505 0 5.244-.21.726-.081 1.33-.663 1.511-1.458.236-1.124.246-2.36.246-3.515-.001-1.165-.001-2.39-.247-3.515zm-9.757 1.014h-1.01v5.716H2.04v-5.716h-.993v-.944h2.948v.944zm2.55 5.716h-.84v-.543c-.341.412-.662.614-.965.614-.272 0-.472-.121-.547-.372-.048-.15-.076-.382-.076-.733v-3.927h.841v3.656c0 .212 0 .322.01.353.02.14.085.21.197.21.172 0 .351-.14.54-.42v-3.798h.84v4.96zm3.212-1.487c0 .463-.02.793-.085 1.004-.104.362-.34.553-.671.553-.302 0-.596-.181-.88-.553v.483h-.839v-6.66h.84v2.18c.273-.362.567-.542.879-.542.33 0 .567.19.67.562.067.201.086.531.086.994v1.98zm3.193-.824h-1.69v.874c0 .462.142.692.435.692.208 0 .33-.12.378-.36.01-.05.02-.252.02-.614h.859v.131c0 .292 0 .493-.02.583-.02.2-.095.381-.197.542-.228.351-.577.533-1.02.533-.444 0-.776-.17-1.02-.513-.18-.241-.274-.633-.274-1.166v-1.737c0-.533.085-.914.264-1.166.246-.342.577-.512 1.012-.512.426 0 .756.17 1 .512.172.25.257.632.257 1.166v1.035h-.003zm-4.034-1.226v2.12c0 .452-.123.672-.368.672-.143 0-.284-.07-.426-.22v-3.023c.142-.151.283-.221.426-.221.245 0 .368.23.368.672z" fill="#FC7822"/></svg>