<svg width="50" height="50" viewBox="0 0 50 50" xmlns="http://www.w3.org/2000/svg"><title>785FED5E-0AEF-484D-9957-26D0E3D8517F</title><g transform="translate(1 1)" fill="none" fill-rule="evenodd"><path d="M32.911 24.404c-.05.13-.124.253-.228.357l-7.952 7.953a1.023 1.023 0 0 1-1.446-1.446L29.553 25H15a1 1 0 0 1 0-2h14.555l-6.27-6.271a1.023 1.023 0 0 1 1.446-1.446l7.952 7.952c.105.106.179.23.229.361A.99.99 0 0 1 33 24c0 .144-.034.28-.089.404z" fill="#3D86E3"/><circle stroke="#3D86E3" stroke-width="2" cx="24" cy="24" r="24"/></g></svg>