<svg width="83" height="52" viewBox="0 0 83 52" xmlns="http://www.w3.org/2000/svg"><title>41739E86-F712-4C7A-A07B-4CC4148BE016</title><g fill="none"><path d="M40.821 8C35.406 8 31 12.406 31 17.821s4.406 9.821 9.821 9.821 9.821-4.406 9.821-9.821S46.237 8 40.821 8zm0 17.46c-4.212 0-7.639-3.426-7.639-7.639s3.427-7.639 7.639-7.639 7.639 3.426 7.639 7.639-3.427 7.639-7.639 7.639z" fill="#FFF"/><path d="M82.747 29.057c0-4.506-4.599-8.872-12.659-12.057v2.029c6.76 2.69 10.476 6.242 10.476 10.029 0 7.185-13.692 13.246-32.556 14.412l-1.727.107 3.743-3.743-1.543-1.543L42 44.772l6.481 6.481 1.543-1.543-3.963-3.962 1.452-.089c20.087-1.215 35.234-8.353 35.234-16.602zm-80.564.034c0-3.577 3.318-6.943 9.381-9.572l-.223 5.872 1.999.076.344-9.067L6.205 13l-.828 1.82 6.019 2.737C4.123 20.689 0 24.827 0 29.089 0 37.066 14.399 44.112 33.611 45.6v-2.166C15.075 42.089 2.183 36.223 2.183 29.091z" fill="#8DC63F"/><path fill="#FFF" d="M53 8h6.616v2.493H53z"/><path d="M64.58 3.492H53.012c-.938 0-1.505-.655-2.053-1.287C50.108 1.223 49.05 0 46.028 0H35.552c-1.81 0-3.118 1.084-4.273 2.04-.94.779-1.752 1.452-2.712 1.452H17v30.119h47.579V3.492h.001zm-2.183 27.937H19.183V5.675h9.385c1.497 0 2.32-.732 3.273-1.581 1.007-.896 2.148-1.911 4.143-1.911h10.045c2.017 0 3.047 1.03 3.955 1.938.834.834 1.554 1.554 3.029 1.554h9.385v25.754h-.001z" fill="#FFF"/></g></svg>