<svg width="25" height="25" viewBox="0 0 25 25" fill="none" xmlns="http://www.w3.org/2000/svg"><g clip-path="url(#a)"><path d="M22.191 15.408l-1.849-1.849-8.32-8.32a3.922 3.922 0 0 0-5.546 5.547l8.32 8.322a.872.872 0 1 0 1.232-1.233l-8.32-8.322a2.179 2.179 0 1 1 3.082-3.08l8.322 8.319 1.849 1.849a3.923 3.923 0 1 1-5.55 5.547l-1.54-1.541-8.628-8.629-.616-.616a5.666 5.666 0 0 1 8.012-8.012l9.244 9.245a.872.872 0 0 0 1.233-1.233L13.87 2.158A7.408 7.408 0 0 0 3.394 12.635l9.245 9.244 1.542 1.541a5.666 5.666 0 0 0 8.01-8.012z" fill="#DDD"/></g><defs><clipPath id="a"><path fill="#fff" d="M0 0h25v25H0z"/></clipPath></defs></svg>