<svg width="105" height="106" viewBox="0 0 105 106" fill="none" xmlns="http://www.w3.org/2000/svg"><path d="M20.947 90.059v5.604a9.341 9.341 0 0 0 15.944 6.604 9.341 9.341 0 0 0 2.735-6.604v-5.604H20.947zm11.208 9.34h-3.736a1.868 1.868 0 0 1 0-3.736h3.736a1.868 1.868 0 0 1 0 3.735zM54.57 70.965v19.613l5.564-8.863a14.973 14.973 0 0 0-5.565-10.75zm27.27-7.285a3.55 3.55 0 0 0-5.977 0L53.235 99.73a3.361 3.361 0 0 0-.095 3.464 3.472 3.472 0 0 0 3.086 1.808h45.251a3.479 3.479 0 0 0 3.09-1.806 3.361 3.361 0 0 0-.097-3.463L81.84 63.68zm2.31 23.073a1.986 1.986 0 0 1-.15.252l-6.772 9.474 1.004-.25a1.866 1.866 0 0 1 2.104 2.785 1.866 1.866 0 0 1-1.2.836l-5.436 1.36a1.863 1.863 0 0 1-2.262-1.36l-1.358-5.435a1.867 1.867 0 1 1 3.622-.904l.274 1.096 5.92-8.284h-5.634a2.878 2.878 0 0 1-2.443-4.406l5.454-8.593a1.87 1.87 0 1 1 3.157 2.003l-4.612 7.26h5.755a2.877 2.877 0 0 1 2.578 4.166zM.4 82.587v18.679a3.737 3.737 0 0 0 3.736 3.736h1.868V70.941A14.914 14.914 0 0 0 .4 82.587zm20.734-14.943h-2.055v11.208h22.415V67.644h-2.055a9.34 9.34 0 0 1-18.305 0zm-3.717-41.312a40.24 40.24 0 0 1 12.87-1.65c4.352-.149 8.699.41 12.872 1.652a4.495 4.495 0 0 0 4.441-1.057l2.08-2.089a42.52 42.52 0 0 0-19.393-4.109 42.52 42.52 0 0 0-19.392 4.11l2.079 2.078a4.483 4.483 0 0 0 4.443 1.065z" fill="#fff"/><path d="M50.833 17.211A16.83 16.83 0 0 0 34.022.4H26.55A16.83 16.83 0 0 0 9.74 17.211v2.376a46.46 46.46 0 0 1 20.546-4.244 46.461 46.461 0 0 1 20.547 4.246V17.21zM35.89 65.776v-4.413a24.21 24.21 0 0 1-5.604.678 23.886 23.886 0 0 1-5.603-.692v4.427a5.604 5.604 0 0 0 11.207 0zm18.68-28.362a5.57 5.57 0 0 0 0-10.52v10.52z" fill="#fff"/><path d="M17.21 95.663v-5.604a3.736 3.736 0 0 1 3.737-3.736h18.679a3.736 3.736 0 0 1 3.735 3.736v5.604a13.027 13.027 0 0 1-3.943 9.339h10.447a7.064 7.064 0 0 1 .202-7.255l.766-1.22V68.765a14.72 14.72 0 0 0-5.604-1.12v11.207a3.736 3.736 0 0 1-3.736 3.735H19.08a3.736 3.736 0 0 1-3.736-3.735V67.644a14.84 14.84 0 0 0-5.604 1.1v36.258h11.415a13.022 13.022 0 0 1-3.943-9.34zm-13.875-66.8a5.79 5.79 0 0 0-.747 5.252 5.391 5.391 0 0 0 3.481 3.342l-.046-10.552a5.604 5.604 0 0 0-2.688 1.958z" fill="#fff"/><path fill-rule="evenodd" clip-rule="evenodd" d="M50.834 37.758V27.324l-.592.592a8.139 8.139 0 0 1-5.722 2.37 7.879 7.879 0 0 1-2.58-.424 36.91 36.91 0 0 0-11.653-1.444 36.882 36.882 0 0 0-11.652 1.446 7.891 7.891 0 0 1-2.58.422 8.031 8.031 0 0 1-5.723-2.37l-.571-.572.054 12.123a20.547 20.547 0 0 0 41.019-1.71zM39.44 47.932a9.93 9.93 0 0 1-9.153 4.769 9.93 9.93 0 0 1-9.143-4.769 1.868 1.868 0 0 1 3.332-1.68 6.35 6.35 0 0 0 5.811 2.713 6.337 6.337 0 0 0 5.813-2.727 1.88 1.88 0 0 1 2.512-.784 1.855 1.855 0 0 1 .828 2.478zM23.155 35.381a2.038 2.038 0 1 1-4.075 0 2.038 2.038 0 0 1 4.075 0zm16.302 2.037a2.038 2.038 0 1 0 0-4.075 2.038 2.038 0 0 0 0 4.075z" fill="#fff"/></svg>