<svg width="20" height="20" viewBox="0 0 20 20" xmlns="http://www.w3.org/2000/svg"><title>47A88442-1B44-4A3D-A72B-2565C7644620</title><g fill="#666" fill-rule="evenodd"><path d="M8.976.631H10c3.052 0 3.413.01 4.618.066 1.115.05 1.72.237 2.122.393.533.207.914.455 1.313.855.4.4.648.781.856 1.314.156.403.343 1.007.393 2.122.055 1.205.067 1.566.067 4.616s-.012 3.412-.067 4.617c-.05 1.115-.237 1.72-.393 2.122a3.534 3.534 0 0 1-.856 1.313c-.4.4-.78.647-1.313.854-.402.157-1.007.343-2.122.394-1.205.055-1.566.067-4.618.067-3.052 0-3.413-.012-4.618-.067-1.114-.051-1.72-.238-2.122-.394a3.54 3.54 0 0 1-1.315-.855c-.4-.4-.647-.78-.855-1.313-.156-.403-.343-1.007-.393-2.122-.055-1.205-.066-1.566-.066-4.618 0-3.052.01-3.412.066-4.617.05-1.114.237-1.72.393-2.122a3.54 3.54 0 0 1 .855-1.314c.4-.4.781-.648 1.315-.856C3.664.93 4.269.744 5.383.692 6.437.645 6.846.63 8.976.628v.003zm7.126 1.898a1.371 1.371 0 1 0 0 2.743 1.371 1.371 0 0 0 0-2.744zm-6.1 1.602a5.87 5.87 0 1 0 0 11.739 5.87 5.87 0 0 0-.001-11.739z"/><path d="M10.001 6.19a3.81 3.81 0 1 1 0 7.62 3.81 3.81 0 0 1 0-7.62z"/></g></svg>