<svg width="25" height="14" viewBox="0 0 25 14" xmlns="http://www.w3.org/2000/svg"><title>72D9D707-E146-4450-A268-22465E150301</title><path d="M13.875 13.683s.436-.048.66-.283c.204-.216.197-.624.197-.624s-.027-1.902.873-2.183c.887-.276 2.025 1.84 3.234 2.654.913.615 1.606.48 1.606.48l3.23-.044s1.688-.102.887-1.406c-.066-.107-.467-.964-2.4-2.726-2.026-1.845-1.754-1.547.685-4.738 1.485-1.943 2.078-3.129 1.893-3.636C24.564.692 23.47.82 23.47.82l-3.634.022s-.27-.035-.47.082c-.195.115-.321.383-.321.383s-.575 1.503-1.343 2.782c-1.618 2.698-2.265 2.84-2.53 2.673-.616-.39-.463-1.569-.463-2.406 0-2.615.405-3.705-.786-3.987-.395-.094-.686-.156-1.697-.166C10.93.19 9.832.208 9.21.506c-.413.198-.733.642-.538.667.24.032.784.144 1.073.53.373.498.36 1.614.36 1.614s.214 3.079-.5 3.46c-.49.263-1.162-.272-2.606-2.72-.739-1.254-1.297-2.64-1.297-2.64s-.108-.259-.3-.398a1.505 1.505 0 0 0-.559-.22L1.388.82s-.519.014-.71.236c-.168.196-.012.604-.012.604s2.704 6.21 5.767 9.342c2.808 2.869 5.997 2.681 5.997 2.681h1.445z" fill="#666" fill-rule="evenodd"/></svg>