<svg width="29" height="21" viewBox="0 0 29 21" xmlns="http://www.w3.org/2000/svg"><title>09DF697A-4760-4DB0-98F6-B774A00BA4AE</title><path d="M27.798 4.564s.278 2.302.278 4.602v2.158c0 2.301-.278 4.602-.278 4.602s-.272 1.96-1.106 2.822c-1.059 1.133-2.245 1.139-2.788 1.205-3.894.288-9.741.297-9.741.297s-7.235-.068-9.46-.286c-.62-.118-2.01-.083-3.07-1.216C.8 17.885.528 15.926.528 15.926s-.278-2.3-.278-4.602V9.166c0-2.3.278-4.602.278-4.602S.8 2.604 1.633 1.742C2.693.609 3.878.604 4.423.538 8.315.25 14.156.25 14.156.25h.012s5.841 0 9.735.288c.543.066 1.73.071 2.788 1.204.834.863 1.106 2.822 1.106 2.822zM11.29 13.938l7.517-3.98-7.518-4.01.001 7.99z" fill="#666" fill-rule="evenodd"/></svg>