<svg width="50" height="50" viewBox="0 0 50 50" xmlns="http://www.w3.org/2000/svg"><title>LK_Button</title><g fill="none" fill-rule="evenodd"><rect stroke="#FFF" stroke-width="2" fill="#FFF" x="1" y="1" width="48" height="48" rx="24"/><path d="M25 2C12.294 2 2 12.294 2 25s10.294 23 23 23 23-10.294 23-23S37.706 2 25 2zm0 8.903a8.161 8.161 0 1 1 0 16.323 8.161 8.161 0 0 1 0-16.323zm0 31.903c-5.444 0-10.322-2.466-13.587-6.325 1.744-3.283 5.157-5.546 9.135-5.546.223 0 .446.038.659.103 1.206.389 2.467.64 3.793.64s2.597-.251 3.793-.64a2.27 2.27 0 0 1 .659-.103c3.978 0 7.391 2.263 9.135 5.546-3.265 3.859-8.143 6.325-13.587 6.325z" fill="#000" fill-rule="nonzero"/></g></svg>