<svg id="Layer_1" xmlns="http://www.w3.org/2000/svg" viewBox="0 0 855.9 659.9"><style>.st0{fill:#ff621f}</style><path class="st0" d="M559.8 341.1v-172h-17.2v177.2c5.6-2.1 11.4-3.9 17.2-5.2zm-72.5-217.3H243.7c-65.8 0-119.3 53.5-119.3 119.3 0 37.4 17.1 71.9 46.9 94.7h34.4c-38.6-15.5-64-52.7-64-94.7 0-56.2 45.7-102 101.9-102.1h243.8c54.5 0 103-38.2 115.9-91h-17.8c-12.7 43.5-52.9 73.8-98.2 73.8zm-75.1 193.1v-71.5C401.4 254 395 267.2 395 281v35.9c0 56.3-45.8 102.1-102.1 102.1H169.7c-25.1 0-45.5 20.4-45.5 45.5v38.4c0 45.3-30.3 85.5-73.8 98.1v17.8c52.8-12.9 91-61.4 91-115.9v-38.4c0-15.5 12.6-28.2 28.1-28.3h123.4c65.8 0 119.3-53.5 119.3-119.3z"/><path class="st0" d="M487.3 99.2H243.7c-79.4 0-143.9 64.6-143.9 143.9 0 36.7 13.9 71.7 39.1 98.5 6.9-1.7 14-2.9 21.2-3.4-27.4-24.1-43.1-58.5-43.1-95.1 0-69.8 56.7-126.6 126.5-126.7h243.8c41.2 0 78.1-27.2 90.4-66.4h-18.3c-11.6 29.5-40.5 49.2-72.1 49.2z"/><path class="st0" d="M50.6 243.1c0 43.8 15.1 86.6 42.4 120.7 4.6-3.6 9.5-6.8 14.5-9.6-25.6-31.3-39.7-70.7-39.7-111.1 0-96.9 78.8-175.8 175.7-175.9h243.8c13.8 0 27-6.4 35.6-17.2H243.7C137.2 50 50.6 136.6 50.6 243.1z"/><path class="st0" d="M487.3 74.6H243.7c-92.9 0-168.5 75.6-168.5 168.5 0 39.2 13.8 77.4 39 107.6 5.5-2.7 11.1-5 16.9-6.8-24.9-27.8-38.6-63.5-38.6-100.8 0-83.3 67.8-151.2 151.1-151.3h243.8c27.9 0 52.8-16.4 64.1-41.8H532c-9.7 15.2-26.8 24.6-44.7 24.6zm-167.4 365zm1.3 170.3h17.2V435.1c-5.6 2.2-11.4 3.9-17.2 5.3v169.5zm393.6-169.5v169.5H732V435.1c-5.5 2.2-11.3 4-17.2 5.3zm24.6-8.4v177.9h17.2V422.4c-5.4 3.6-11.2 6.8-17.2 9.6zm49.2-40v218h17.2V359.6c-4.1 11.5-9.8 22.3-17.2 32.4 0-.1 0-.1 0 0zM363 422.4c-5.5 3.6-11.2 6.9-17.2 9.6v177.9H363V422.4zm49.2 187.5V359.5c-4.1 11.6-9.9 22.5-17.2 32.4V610h17.2zM370.4 281v35.9c0 42.7-34.7 77.4-77.3 77.5H169.7c-38.7 0-70.1 31.5-70.1 70.1v38.4c0 31.6-19.7 60.5-49.2 72.1v18.3c39.2-12.3 66.4-49.2 66.4-90.4v-38.4c0-29.1 23.6-52.8 52.7-52.9h123.4c52.2 0 94.7-42.5 94.7-94.7V281c0-17.9 9.4-35 24.6-44.6v-19.5c-25.4 11.3-41.8 36.3-41.8 64.1zm316.1 88.8h-98.4c-52.2 0-94.7 42.5-94.7 94.7v27.3c0 17.9-9.4 35-24.6 44.6v19.5c25.5-11.3 41.8-36.2 41.8-64.1v-27.3c0-42.7 34.7-77.4 77.3-77.5h98.6c38.7 0 70.1-31.5 70.1-70.1V281c0-31.6 19.7-60.5 49.2-72.1v-18.3c-39.2 12.3-66.4 49.2-66.4 90.4v35.9c0 18.8-10.2 36.3-26.5 45.8l-.4.2c-7.8 4.5-16.7 6.9-25.8 6.9h-.2z"/><path class="st0" d="M345.8 281v35.9c0 18.8-10.2 36.3-26.5 45.8l-.3.2c-7.8 4.5-16.7 6.9-25.8 6.9H169.8c-52.2 0-94.7 42.5-94.7 94.7v38.4c0 17.9-9.4 35-24.6 44.6V567c25.5-11.3 41.8-36.2 41.8-64.1v-38.4c0-42.7 34.7-77.4 77.3-77.5H293c38.7 0 70.1-31.5 70.1-70.1V281c0-31.6 19.7-60.5 49.2-72.1v-18.3c-39.3 12.3-66.5 49.3-66.5 90.4zm214 210.8V429c-10.8 8.6-17.2 21.8-17.2 35.6v27.3c0 45.3-30.3 85.5-73.8 98.1v17.8c52.9-13 91-61.5 91-116zm246.1-174.9v-71.5c-10.8 8.6-17.2 21.8-17.2 35.6v35.9c0 56.3-45.8 102.1-102.1 102.1h-98.4c-7.3 0-14.5 1.8-20.9 5.1v12.1h119.3c65.7 0 119.3-53.5 119.3-119.3z"/><path class="st0" d="M764 417.1v192.8h17.2v-209c-5.2 5.9-10.9 11.3-17.2 16.2zm-295.2 47.5v62.9c10.8-8.6 17.2-21.8 17.2-35.6v-27.3c0-56.2 45.7-102 101.9-102.1h98.6c7.3 0 14.5-1.8 20.9-5.1v-12.1H588.1c-65.8-.1-119.3 53.5-119.3 119.3zm-81.2 145.3V401c-5.4 6.1-11.3 11.6-17.7 16.5.3.5.5 1.1.5 1.8V610h17.2z"/><path class="st0" d="M588.1 411.7h98.4c52.2 0 94.7-42.5 94.7-94.7v-36c0-17.9 9.4-35 24.6-44.6v-19.5C780.4 228.2 764 253.2 764 281v35.9c0 42.7-34.7 77.4-77.3 77.5h-98.6c-38.7 0-70.1 31.5-70.1 70.1v27.3c0 31.6-19.7 60.5-49.2 72.1v18.3c39.2-12.3 66.4-49.2 66.4-90.4v-27.3c0-18.8 10.2-36.3 26.5-45.8l.3-.2c7.8-4.5 16.7-6.9 25.8-6.9l.3.1zM321.2 281v71.5c10.8-8.6 17.2-21.7 17.2-35.6V281c0-45.3 30.3-85.5 73.8-98.1v-17.8c-52.8 12.9-91 61.4-91 115.9zM50.4 464.6v73.9c10.8-8.6 17.2-21.8 17.2-35.6v-38.4c0-56.2 45.7-102 101.9-102.1h123.4c7.3 0 14.5-1.8 20.9-5.1v-12.1h-144c-65.9.1-119.4 53.6-119.4 119.4zm484.8-115.1V169.1H518v190c5.5-3.6 11.3-6.9 17.2-9.6zm-66.4-180.4V422c4.1-11.6 9.9-22.5 17.2-32.4V169.1h-17.2zm41.8 195.3V169.1h-17.2v211.4c5.2-5.9 11-11.3 17.2-16.1z"/><path class="st0" d="M714.8 281v71.5c10.8-8.6 17.2-21.8 17.2-35.6V281c0-45.3 30.3-85.5 73.8-98.1v-17.8c-52.8 12.9-91 61.4-91 115.9z"/></svg>