<svg width="160" height="121" viewBox="0 0 160 121" xmlns="http://www.w3.org/2000/svg" xmlns:xlink="http://www.w3.org/1999/xlink"><title>Yan Logo</title><defs><path id="a" d="M0 0h159.882v120.381H0z"/></defs><g fill="none" fill-rule="evenodd"><path fill="#FFF" d="M-160-48h1200v5260H-160z"/><path fill="#FF621F" d="M-160 52h1200v40H-160z"/><path d="M-160 72h1200" stroke="#FFF" stroke-width="2" stroke-linecap="square"/><path fill="#FFF" d="M-10 52h180v40H-10z"/><mask id="b" fill="#fff"><use xlink:href="#a"/></mask><path d="M140.616 48.898v15.124a9.655 9.655 0 0 0 3.645-7.529v-7.595c0-9.596 6.413-18.104 15.621-20.76v-3.77c-11.183 2.732-19.266 12.995-19.266 24.53zM97.4 66.543V25.216h-3.644v44.736a27.106 27.106 0 0 1 3.644-3.41zm-8.85-41.327v53.517a26.613 26.613 0 0 1 3.644-6.856V25.216h-3.645zm14.056 38.163V25.216h-3.644v40.202a26.96 26.96 0 0 1 3.644-2.039zM0 87.735v15.65a9.66 9.66 0 0 0 3.645-7.533v-8.117c0-11.903 9.675-21.59 21.574-21.608h.034l26.067-.001a9.634 9.634 0 0 0 4.425-1.08v-2.564H25.272C11.312 62.498 0 73.82 0 87.735zm57.307-38.837v15.124a9.653 9.653 0 0 0 3.645-7.529v-7.595c0-9.596 6.414-18.104 15.621-20.76v-3.77C65.39 27.1 57.307 37.363 57.307 48.898zm56.494 27.642h20.828c11.053 0 20.046-8.994 20.046-20.047v-7.595c0-3.796 1.992-7.403 5.207-9.448v-4.118a14.79 14.79 0 0 0-8.852 13.566v7.595c0 9.028-7.334 16.377-16.357 16.402h-.044l-20.828.001c-8.182 0-14.839 6.657-14.839 14.84v5.77c0 6.695-4.177 12.804-10.414 15.259v3.871c8.295-2.598 14.059-10.414 14.059-19.13v-5.77c0-3.978 2.152-7.691 5.618-9.693l.072-.041a11.119 11.119 0 0 1 5.46-1.46l.044-.002zM71.366 118.5V74.277a27.083 27.083 0 0 1-3.744 3.492c.065.113.1.24.1.372V118.5h3.644zm17.182-30.765v13.303a9.659 9.659 0 0 0 3.645-7.533v-5.769c0-11.903 9.675-21.59 21.574-21.609h.034l20.828-.001a9.63 9.63 0 0 0 4.425-1.08v-2.564h-25.253c-13.924 0-25.253 11.329-25.253 25.253zm62.483-10.049v40.815l3.645-.001V74.277a27.113 27.113 0 0 1-3.645 3.409zm8.85-21.193l.001-15.128a9.66 9.66 0 0 0-3.645 7.533v7.595c0 11.915-9.694 21.608-21.608 21.609l-20.828.001a9.63 9.63 0 0 0-4.425 1.08v2.563h25.253c13.924 0 25.252-11.329 25.252-25.253zm-52.067 37.012V80.206a9.655 9.655 0 0 0-3.645 7.53v5.77c0 9.595-6.414 18.103-15.62 20.759v3.77c11.182-2.732 19.265-12.995 19.265-24.53zm-45.3-44.607v7.595c0 3.978-2.153 7.692-5.618 9.694l-.074.04a11.118 11.118 0 0 1-5.459 1.46l-.043.002H25.253c-11.053 0-20.046 8.993-20.046 20.046v8.117c0 3.796-1.991 7.402-5.207 9.448v4.118c5.39-2.381 8.852-7.663 8.852-13.566v-8.117c0-9.026 7.333-16.375 16.354-16.4l.047-.002H51.32c8.182 0 14.839-6.658 14.839-14.84v-7.595c0-6.696 4.177-12.804 10.414-15.26v-3.87c-8.295 2.597-14.059 10.413-14.059 19.13zm72.115 18.791H113.8c-11.053 0-20.046 8.993-20.046 20.046v5.77c0 3.796-1.992 7.403-5.207 9.449v4.117A14.791 14.791 0 0 0 97.4 93.505v-5.769c0-9.032 7.339-16.383 16.367-16.402h.034l20.828-.001c8.183 0 14.839-6.658 14.839-14.84v-7.595c0-6.696 4.178-12.804 10.414-15.26v-3.87c-8.295 2.597-14.059 10.413-14.059 19.13v7.595c0 3.977-2.153 7.691-5.618 9.693l-.076.042a11.116 11.116 0 0 1-5.457 1.46l-.043.001zM67.72 48.898v7.595c0 9.032-7.34 16.383-16.367 16.402h-.034l-26.067.001c-8.182 0-14.839 6.657-14.839 14.84v8.116c0 6.695-4.177 12.804-10.414 15.259v3.872c8.295-2.599 14.059-10.415 14.059-19.131v-8.117c0-6.154 4.997-11.167 11.147-11.193l.047-.002H51.32c11.053 0 20.046-8.994 20.046-20.047v-7.595c0-3.796 1.992-7.403 5.207-9.449v-4.117a14.791 14.791 0 0 0-8.852 13.566zm8.852 69.602V65.495a26.633 26.633 0 0 1-3.645 6.857V118.5h3.645zM66.16 78.81a26.983 26.983 0 0 1-3.645 2.04v37.65h3.645V78.81zm90.077-6.438V118.5h3.645V65.496a26.629 26.629 0 0 1-3.645 6.856v.02zm-10.413 8.477v37.652h3.645V78.81a26.926 26.926 0 0 1-3.645 2.038zm-5.206 1.778v35.874h3.644V81.51a26.543 26.543 0 0 1-3.644 1.116zM57.31 118.5h3.645V81.511a26.633 26.633 0 0 1-3.645 1.116V118.5zM92.461 5.207l-51.513.001-.041.001c-19.666 0-35.666 16-35.666 35.666 0 8.3 2.927 16.378 8.247 22.774a26.76 26.76 0 0 1 3.568-1.443 31.895 31.895 0 0 1-8.17-21.331c0-17.638 14.338-31.993 31.971-32.02l.05-.002 51.553-.001c5.902 0 11.185-3.461 13.567-8.852h-4.118c-2.046 3.215-5.653 5.207-9.448 5.207zM.034 40.875A40.967 40.967 0 0 0 9.01 66.422a27.022 27.022 0 0 1 3.067-2.032A37.256 37.256 0 0 1 3.68 40.875c0-20.514 16.68-37.206 37.189-37.228h.039l51.553-.002A9.66 9.66 0 0 0 99.993 0L40.907.002C18.369.002.034 18.338.034 40.875zM92.46 10.414H40.95l-.044.002c-16.796 0-30.46 13.664-30.46 30.459 0 7.774 2.94 15.172 8.282 20.848A26.785 26.785 0 0 1 23.205 61a26.714 26.714 0 0 1-9.112-20.124c0-14.768 12.003-26.789 26.766-26.814l.048-.002H92.46c8.717 0 16.534-5.764 19.13-14.06h-3.87c-2.455 6.238-8.564 10.415-15.26 10.415zM76.573 56.493V41.365a9.659 9.659 0 0 0-3.645 7.533v7.595c0 11.915-9.694 21.608-21.608 21.609l-26.067.001c-5.311 0-9.632 4.321-9.632 9.632v8.117c0 9.596-6.414 18.104-15.62 20.759v3.77c11.182-2.731 19.265-12.994 19.265-24.529v-8.117c0-3.282 2.66-5.96 5.94-5.987l.047-.002H51.32c13.924 0 25.253-11.329 25.253-25.253zM92.46 15.621l-51.554.002c-13.924 0-25.252 11.328-25.252 25.252 0 7.913 3.614 15.214 9.918 20.045h7.277A21.553 21.553 0 0 1 19.3 40.875c0-11.896 9.668-21.58 21.559-21.607l.048-.002H92.46c11.535 0 21.798-8.083 24.53-19.266h-3.77c-2.656 9.207-11.163 15.62-20.76 15.62zm11.706 47.096V25.216h3.645v36.386c-1.236.283-2.46.658-3.645 1.115z" fill="#FF621F" mask="url(#b)"/></g></svg>