<svg width="1200" height="431" viewBox="0 0 1200 431" xmlns="http://www.w3.org/2000/svg"><title>Header PIC</title><g fill="none" fill-rule="evenodd"><path d="M471.495 219.382c1.305-6.952 1.665-14.07.75-18.832-4.882-25.162-41.603-37.447-55.2-19.965-3.383-3.082-8.94-4.41-13.905-3.135-6.577 1.688-10.5 8.115-10.012 14.25l.06.435c-3.668-1.387-7.883-2.025-9.863 0l-.195-.12c8.715-13.695 7.455-32.707 2.04-47.362-2.91-7.898-9.338-14.063-17.063-17.25-6.262-2.588-12.12-2.393-18.27-.54v-.93c-.96-6.188-5.64-8.468-10.86-8.648l-.142-.067a52.5 52.5 0 0 0-.75-14.61c-3.36-15.353-16.785-27.113-32.34-27.443-14.16-.3-29.422 6.09-33.098 21l-.127.255c-7.08-1.837-16.597-1.695-28.665 1.68-7.8 2.183-22.185 12.84-28.155 18.068-12.9 11.332-20.603 31.83-16.74 45.082l.045-.045c-2.602-2.175-5.25-3.75-9.683-3.975-6.982-.315-12.847 1.215-18.105 5.82-4.837 4.238-9.135 13.5-5.595 19.958 0 0 25.5 15.712 148.5 39.517 69.09 13.373 116.085 23.888 144.308 21.585 7.995-.645 13.065-24.727 13.065-24.727z" opacity=".5" fill="#8C8C8C" fill-rule="nonzero"/><path d="M199.125 161.19c-3.802-13.282 3.99-33.75 16.943-45 6.014-5.19 20.452-15.81 28.252-17.94 13.59-3.75 23.933-3.398 31.2-.75 3.473 1.26 11.633 4.433 13.358 6.9m50.28 13.41c.438-4.881.186-9.8-.75-14.61-3.165-15.397-16.53-27.217-32.085-27.622-14.16-.368-29.453 6-33.195 20.857m108.704 98.272c10.193-13.747 9.165-33.877 3.57-49.252-2.88-7.905-9.277-14.108-16.987-17.333-7.38-3.082-14.198-2.25-21.63.518m-15.555-9.645c7.5-2.25 17.483-1.807 18.893 7.583m107.392 117.464c1.98.263 5.692-3.382 7.14-5.325 5.91-7.897 9.42-27.315 7.583-37.005-4.763-25.184-41.423-37.634-55.103-20.212" stroke="#030101" stroke-width="1.125" stroke-linecap="round" stroke-linejoin="round"/><path d="M393.143 192.563c-.45-6.173 3.495-12.585 10.08-14.25 7.162-1.8 15.547 1.807 16.837 8.25m-174.735-60.915c.63 5.482 2.602 10.357 4.072 15.607 4.425 15.75-.345 43.815 18.848 69.218m42.202-116.798c-1.252 6.375-.547 13.95-.607 20.46-.06 6.885-.247 13.59-.832 20.46-.893 10.5-.653 21.052-1.215 31.575-.443 8.25-.645 16.583-1.995 24.75-1.305 7.92-2.813 16.08-3.533 24.083a271.968 271.968 0 0 1-2.902 22.117c-.435 2.512-.48 6.982-1.786 8.947m70.178-91.747c-4.132 11.175-9.855 35.168-25.042 56.895-3 4.275-15.053 17.708-18.916 20.565" stroke="#030101" stroke-width="1.125" stroke-linecap="round" stroke-linejoin="round"/><path d="M343.125 143.347a98.407 98.407 0 0 0-.39 18.263c.435 5.603 1.327 12.953 3.15 18.18 1.44 4.14 3.203 11.888 5.692 15.45m-119.88-41.783c1.605 8.333 5.52 12.053 10.793 16.778 1.777 1.59 8.64 4.987 10.867 4.785m79.831-42.21c-2.715 8.535-6.57 13.192-24.878 22.2m142.215 49.027c-.832 13.553-12.12 35.783-20.017 36.99M256.59 130.215c-1.402 4.747-2.79 11.61-6.045 15.532m36.068-20.497c2.437 16.065 1.215 33.427 8.632 48.067 2.58 5.085 6.75 9.54 10.98 13.56m38.205-11.902c-5.25 1.088-8.715-3.75-11.895-7.402m112.057 57.51c10.853-1.163 15.675-9.856 17.34-12.218m-55.507 21.585c11.37-21.63-2.663-33.75-7.5-38.212-2.782-2.588-12.293-6.63-15.608-3.308m28.275 24.908c5.573-2.033 18.653-12.45 18.803-18.585m-59.52 30.247a17.19 17.19 0 0 0 9.435-2.618c4.762-3.12 7.762-7.785 9.36-13.71m-30.795-32.579c7.08 1.92 12.292-4.793 15.532-7.268m-208.694 9.473c-3.51-6.495.825-15.75 5.685-19.935 5.25-4.583 11.145-6.083 18.135-5.738 6.832.33 9.48 4.028 14.145 8.002m-16.958 5.123c1.11 6.188 3.825 15.75 8.04 20.595" stroke="#030101" stroke-width="1.125" stroke-linecap="round" stroke-linejoin="round"/><path d="M197.745 171.15a36.577 36.577 0 0 1-2.077 7.215c-.87 2.16-2.723 3.683-4.193 5.422m242.318 33.331s-3.818 13.192 2.25 19.882m-57.833-24.195s-2.407 9.48 2.13 14.07m38.43-13.298s-5.64-4.612-6.75-20.032" stroke="#030101" stroke-width="1.125" stroke-linecap="round" stroke-linejoin="round"/><path d="M260.31 199.537s-3.21-8.827 5.955-14.25c0-.037 3.735 10.41-5.955 14.25zm57.63-6.187s4.5-8.25 14.64-4.98c0 0-5.347 9.697-14.64 4.98zm-34.192 15.787s-1.32-9.3 8.767-12.75c0 .015 1.508 10.988-8.767 12.75zm-57.945-67.935s-2.55 9.045-13.178 8.115c0 0 3.068-10.65 13.178-8.115zm62.767 9.466s-1.327-7.68 6.953-10.778c0 0 1.522 9.06-6.953 10.778zm-100.642 25.815s-7.5 2.1-11.43-5.835c0 0 8.865-2.423 11.43 5.835zm58.079-51.233s-6.21-4.718-2.25-12.63c-.007-.015 7.283 5.58 2.25 12.63zm-6.3 42.465s-4.845 6.112-12.675 2.002c0 0 5.745-7.17 12.675-2.002z" fill="#8C8C8C" fill-rule="nonzero"/><path d="M246.18 123.75s-7.215 8.498-18.203 2.25c0 0 8.55-9.975 18.203-2.25zm86.272 10.935s-1.327-7.68 6.923-10.785c0 0 1.545 9.06-6.923 10.785zm52.395 89.227s5.198-5.812 12.75-1.245c.023 0-6.135 6.833-12.75 1.245zm60.638-30.487s-6-5.017-1.627-12.75c0 .023 6.997 5.978 1.627 12.75zm9.915 27.503s5.198-5.813 12.75-1.245c.015 0-6.142 6.817-12.75 1.245zM367.83 154.5s-1.335-7.68 6.953-10.785c0 .022 1.522 9.09-6.953 10.785zm7.267 19.553s-1.327-7.68 6.953-10.785c0 0 1.522 9.067-6.953 10.785zM354.21 216.75s3.075-7.17 11.708-5.25c0 0-3.668 8.407-11.708 5.25zm111.015-24.45s4.327-6.487 12.465-3c0-.03-5.137 7.59-12.465 3zm-177.713-67.147s-11.145 3.75-17.677-7.868c0 0 13.155-4.365 17.678 7.868zm23.153-32.521s-11.145 3.75-17.678-7.875c0-.007 13.155-4.357 17.678 7.875z" fill="#8C8C8C" fill-rule="nonzero"/><path d="M367.567 156.608s-11.452-2.678-10.882-16.005c0 0 13.477 3.225 10.882 16.005zm-49.942-7.86s-3.607-4.185.3-9.075c-.015 0 4.2 4.95-.3 9.075zm-41.452 19.454s-3.6-4.185.307-9.075c0 0 4.215 4.95-.308 9.075zm-40.643-7.049s-3.6-4.185.3-9.075c0 0 4.222 4.95-.3 9.074zm142.44 52.109s-3.6-4.185.3-9.075c0 0 4.223 4.95-.3 9.075zm41.752 19.02s.795-5.46 7.058-5.722c0 0-.975 6.435-7.057 5.722zm10.733-31.987s-3.6-4.185.308-9.075c0 .03 4.215 4.95-.308 9.075zm-205.53-60.398s-5.52-.165-6.495-6.345c0 0 6.495.225 6.495 6.345zm-1.492 56.836s-5.513-.165-6.488-6.353c0 0 6.495.233 6.488 6.353zm31.8-65.61s2.377-4.98 8.43-3.383c0 0-2.835 5.858-8.43 3.383zm55.05-37.013s-1.988-5.152 3.337-8.445c0 0 2.31 6.082-3.338 8.445zm22.942 73.965s-5.25-1.823-4.275-8.017c0 0 6.128 2.182 4.275 8.017zm26.617 39.63s-5.25-1.823-4.275-8.018c0 0 6.128 2.183 4.275 8.018zm46.778-28.095s1.065-5.415 7.327-5.362c0 0-1.297 6.375-7.327 5.362zm18.825 27.3s-5.212-1.83-4.275-8.017c0 0 6.127 2.182 4.275 8.017zm39.795-15.158s-1.83-5.212 3.592-8.34c0 0 2.123 6.15-3.592 8.34zm-145.65 1.508s-3.427-4.328.675-9.06c0 0 4.013 5.123-.675 9.06z" fill="#8C8C8C" fill-rule="nonzero"/><path d="M631.125 249.45c-10.598-7.297-11.34-29.197-7.942-40.313 4.102-13.447 17.61-25.732 31.185-28.702 4.5-.99 11.114-1.5 16.38.067-1.403-6.465.637-11.13 6.442-13.755 3.09-1.402 6.892-2.385 10.26-1.455a14.37 14.37 0 0 1 8.04 5.91l.547-.457a16.5 16.5 0 0 1 13.898-2.1l-.255-.428a53.152 53.152 0 0 1-1.133-7.717c-.817-13.125 10.08-33.473 26.01-30.128l.75-.15c-2.565-13.095 4.245-26.557 12.615-36.922 7.613-9.428 22.59-17.25 34.8-17.573 13.943-.352 25.5 6.848 31.388 19.2l.12-.06c3.975-5.94 11.752-7.305 18.18-4.972 8.857 3.217 14.692 14.385 15.172 23.947l.315.15c-.487-3.997 5.153-7.875 7.793-10.147 4.92-4.253 13.417-7.5 19.852-7.98a67.68 67.68 0 0 1 23.085 2.587c16.373 4.628 30.525 16.388 40.088 30.975l1.83 3c-.143-6.652 4.5-14.25 16.5-20.25 5.767-2.88 12.682-5.857 29.25 1.5 6.75 3 11.092 12.585 12.75 13.5l3 6c4.5-10.5 16.897-16.027 27.75-11.25 18.75 8.25 15 24 14.25 39 0 0-20.25 8.25-98.25 33-69.75 22.126-185.385 44.453-238.365 51.165-52.98 6.713-76.305 4.358-76.305 4.358z" opacity=".5" fill="#8C8C8C" fill-rule="nonzero"/><path d="M709.5 168.428a52.425 52.425 0 0 1-1.17-7.74c-.877-13.125 9.922-33.518 25.875-30.248" stroke="#030101" stroke-width="1.125" stroke-linecap="round" stroke-linejoin="round"/><path d="M815.303 98.933c-5.145-14.933-17.753-23.82-33.24-23.356-12.203.368-27.15 8.25-34.725 17.73-9.945 12.436-17.64 29.25-9.75 44.566" stroke="#030101" stroke-width="1.125" stroke-linecap="round" stroke-linejoin="round"/><path d="M846.982 117.45c1.268-10.2-5.002-24.293-15.172-27.93-6.435-2.303-14.205-.907-18.15 5.055" stroke="#030101" stroke-width="1.125" stroke-linecap="round" stroke-linejoin="round"/><path d="M946.957 186.683c2.25-1.65 3.803-6.81 4.14-9.525a67.237 67.237 0 0 0-.614-18.473c-4.62-26.91-25.59-53.46-52.41-60.915a67.552 67.552 0 0 0-23.1-2.482c-6.428.494-14.91 3.802-19.815 8.07-2.625 2.25-8.25 6.194-7.748 10.192M631.275 250.02c-10.627-7.245-11.467-29.145-8.13-40.268 4.05-13.5 17.49-25.815 31.058-28.852 6.54-1.463 17.437-2.003 22.38 3.547" stroke="#030101" stroke-width="1.125" stroke-linecap="round" stroke-linejoin="round"/><path d="M697.612 175.5c-2.25-4.642-5.287-8.52-10.395-9.9-3.367-.915-7.17.083-10.26 1.5-5.782 2.655-7.807 7.328-6.375 13.785m93.368 54.712c3-5.362 4.388-9.667 4.238-15.825-.21-8.34-5.475-15.817-12.113-20.512-6.42-4.545-17.422-8.498-23.707-1.672m-1.305 4.162c5.16-16.71-18.518-42-35.25-30.69m-18.743 78.33c-9.06-15.165-27.517-30.082-29.73-47.572m21.54 12.277c1.755 7.995 1.012 14.805-.57 22.83m120.135-1.605c6.682-55.222 6.075-66.563 5.055-81.157a140.58 140.58 0 0 0-5.662-30.413 106.028 106.028 0 0 0-9.75-23.565" stroke="#030101" stroke-width="1.125" stroke-linecap="round" stroke-linejoin="round"/><path d="M761.122 128.392c3.405 8.678 10.695 13.208 18.503 17.858a65.25 65.25 0 0 0 12.555 5.82m93.037-27.667c-.12 2.714.863 5.587 1.208 8.25.592 4.545 1.207 9.067 1.425 13.635.397 8.617.937 17.25.832 25.867-.15 11.692-1.68 22.695-6 33.645a35.25 35.25 0 0 1-4.087 8.032m32.58-70.935c.27 6.818-3.57 14.64-7.17 20.25a58.747 58.747 0 0 1-15.398 15.878m-149.482 60.862c3.893-3.667 6.285-8.857 8.063-13.815 1.597-4.454 4.17-10.942 3.307-15.682m-9.967.878c.405 3.712 3.382 11.744 6.42 14.144m-37.846-40.455c-.21 5.933.585 12.09.533 18.098-.068 7.387-1.598 14.407-2.708 21.637a70.245 70.245 0 0 1-3.622 14.693c-.937 2.407-2.437 7.358-4.837 8.407" stroke="#030101" stroke-width="1.125" stroke-linecap="round" stroke-linejoin="round"/><path d="M689.25 185.13c3.66 7.05 7.2 13.605 12.142 19.912 1.98 2.52 4.35 6.083 7.005 7.553m84.458-67.485c7.988-4.147 11.722-6.75 18.195-12.968 5.88-5.61 11.183-10.252 13.32-18.532m-33.352 87.3c-38.108-17.797-58.035-37.215-60.398-42.225m16.14-1.035c1.575 5.932 1.268 11.16.623 17.152m193.117-42.39c-.173-6.652 6-15.75 14.918-19.612 5.947-2.55 14.332-5.138 21.832-2.888 5.25 1.568 16.5 3.75 25.5 25.5m40.5 21c6-27.75-11.25-36-21-36-10.5 0-17.25 4.5-20.332 12.983" stroke="#030101" stroke-width="1.125" stroke-linecap="round" stroke-linejoin="round"/><path d="M981.75 177.412c0-12.682-2.625-26.355-4.882-32.737-1.313-3.69-2.7-7.387-3.923-11.1a50.077 50.077 0 0 1-1.972-7.575" stroke="#030101" stroke-width="1.125" stroke-linecap="round" stroke-linejoin="round"/><path d="M957.585 146.4c3.915 5.512 6.165 9.262 9.915 12.262 4.26 3.413 11.01 6.42 12.75 6.75m41.19-29.542c-.705 4.852 1.178 10.335 1.103 15.315-.068 4.29-1.328 8.513-1.5 12.75m-7.793-17.603c2.25 3.638 4.38 5.873 8.303 7.8m-37.201-22.229c-.637 4.965-1.92 15.187-5.34 18.457m-188.805 65.895s28.635-1.852 45.21-31.012m-12.779 16.027s-4.77-10.95 1.59-31.643m62.632-18.194s-7.252-2.07-11.483-8.183m10.568 52.32s-24.315-8.932-30.495-34.05" stroke="#030101" stroke-width="1.125" stroke-linecap="round" stroke-linejoin="round"/><path d="M910.447 144.165s-4.057-8.475 4.538-14.782c.015 0 4.725 10.02-4.538 14.782zm46.351 22.823s3.825-8.58 14.197-6.128c0 0-4.56 10.095-14.197 6.127zm34.387-5.611s9.21-1.837 13.192 8.048c0 0-10.867 2.108-13.192-8.047zm-129.713-23.61s-9.27-1.5-9.502-12.195c.03 0 10.92 1.875 9.502 12.195z" fill="#8C8C8C" fill-rule="nonzero"/><path d="M861.413 137.093s-4.238-8.385 4.222-14.843c0 0 4.942 9.885-4.222 14.843zm-28.035 18.794S829.14 147.495 837.6 141c0 0 4.942 9.922-4.222 14.888zm82.064 32.851s-8.602 3.75-14.625-5.018c0 .03 10.163-4.395 14.625 5.018z" fill="#8C8C8C" fill-rule="nonzero"/><path d="M914.91 188.377s-2.01-5.745 3.975-9.187c0 0 2.325 6.81-3.975 9.188zm56.13-62.452s-2.888-5.355 2.46-9.675c0 0 3.382 6.307-2.46 9.675zm64.5 28.5s-2.888-5.355 2.46-9.675c0 0 3.382 6.308-2.46 9.675zM863.805 177s-4.237-8.385 4.215-14.873c0 .03 4.98 9.938-4.215 14.873zm-96.247-40.38s-4.238-8.37 4.192-14.872c0 0 4.972 9.907-4.192 14.872zM762 185.137s-4.238-8.385 4.222-14.872c-.022-.015 4.92 9.915-4.222 14.873zm175.29-12.142s-9.398.307-11.715-10.095c0 0 11.07-.308 11.715 10.095zm35.865-37.71s-8.662 3.645-14.542-5.25c0 .008 10.23-4.237 14.542 5.25zm-189.367-21.57s-2.25-7.5 5.625-11.528c0 0 2.587 8.813-5.625 11.528zM670.725 220.373s-2.25-7.5 5.625-11.528c0 0 2.58 8.813-5.625 11.528zm39.525-23.438s-2.25-7.5 5.625-11.528c.022 0 2.625 8.843-5.625 11.528zm31.957-88.185s-6.75-3.953-3.75-12.277c.015-.03 7.913 4.664 3.75 12.277z" fill="#8C8C8C" fill-rule="nonzero"/><path d="M743.7 107.31s-6.157 9.292-17.805 4.38c0 0 7.313-10.912 17.805-4.38zm-12.937 51.9s-8.843 6.75-18.263-1.643c0 0 10.5-7.935 18.263 1.643zm-61.35 56.183s-11.1-1.013-12.308-13.598c0 0 13.073 1.268 12.308 13.598zm-42.105 15.037s-11.1-1.013-12.308-13.597c0 0 13.072 1.267 12.307 13.597zM824.25 115.868s-2.25-7.5 5.625-11.535c-.015 0 2.565 8.82-5.625 11.535zm22.29 4.185s-2.25-7.5 5.625-11.528c0 0 2.588 8.82-5.625 11.528zM834 186.233s-2.25-7.5 5.625-11.528c.015 0 2.625 8.813-5.625 11.528zm-141.81-16.545s-2.25-7.5 5.625-11.528c0 0 2.588 8.82-5.625 11.528zm58.282 48.157s-2.25-7.5 5.625-11.528c0 0 2.58 8.82-5.625 11.528zm-102.787-15.502s-4.013-6.69 2.565-12.593c0 0 4.718 7.935-2.565 12.593zm-20.265 7.83s-6.383-4.5-2.738-12.533c0 0 7.493 5.31 2.738 12.533zm153.667-105.068s-10.62 5.048-18.487-5.723c0 0 12.547-5.887 18.487 5.723zm124.305 2.145S900.795 99 909 92.168c0 0 5.325 9.682-3.608 15.082zm-20.219 17.692s-2.708-4.807 2.092-8.834c-.015 0 3.15 5.692-2.092 8.834zm-70.86 3.81s-4.073-3.75-.75-9.052c-.023 0 4.747 4.417.75 9.052zm-15.015-43.687s-2.573-4.882 2.325-8.782c0 0 3.007 5.767-2.326 8.782zM753.653 180s-2.423 4.957-8.46 3.3c0 .023 2.887-5.805 8.46-3.3zm-66.218-14.31s-5.513-.285-6.353-6.487c0 0 6.495.374 6.353 6.487zm-33.195 54.645s-4.358 3.39-9.045-.75c0-.008 5.16-3.975 9.045.75zm50.76 15.81s-5.422-1.035-5.4-7.298c.008 0 6.39 1.26 5.4 7.298zm-14.385-45.893s-5.843 4.5-12.12-1.027c0 0 6.908-5.302 12.12 1.028zm50.64 22.613s-5.512-.285-6.352-6.495c0 0 6.495.375 6.352 6.495zm81.893-39.465s-5.393-1.193-5.19-7.448c0 0 6.345 1.44 5.19 7.448zm32.782 33.285s-5.392-1.192-5.19-7.448c0 0 6.337 1.44 5.19 7.448zm-31.35-60.24s-5.393-1.2-5.19-7.455c0 0 6.36 1.44 5.19 7.455zm133.17-.015s-5.392-1.193-5.19-7.455c0 0 6.337 1.44 5.19 7.455zm-45.817-37.86s2.594-6.405 10.274-4.867c0 0-3.09 7.53-10.274 4.867zm109.327 29.842s-2.16-6.562 4.74-10.342c0 0 2.46 7.748-4.74 10.343zm-38.49 4.261s2.588-6.405 10.275-4.868c0 0-3.09 7.53-10.275 4.867zm20.625 3.952s5.88-3.623 11.153 2.175c0 0-6.953 4.2-11.153-2.175z" fill="#8C8C8C" fill-rule="nonzero"/><g fill-rule="nonzero"><path d="M596.25 429.75C954.338 437.632 1300.5 330 1300.5 330V42S933.75 244.808 602.355 241.702C180.75 237.75-81.75 81-139.5 49.5V309s292.928 111 735.75 120.75z" fill="#FF7022"/><path d="M1300.5 252.127l-1.08.435c-7.425 3-14.875 5.92-22.35 8.76a1927.905 1927.905 0 0 1-45.127 16.553c-15.105 5.347-30.308 10.447-45.548 15.435a1996.28 1996.28 0 0 1-45.9 14.43 2321.547 2321.547 0 0 1-92.73 25.777c-31.118 7.823-62.393 15.06-93.84 21.48-7.852 1.643-15.75 3.166-23.602 4.71l-11.828 2.213-11.843 2.13c-15.81 2.782-31.635 5.445-47.505 7.808-15.87 2.362-31.755 4.627-47.685 6.555-15.93 1.927-31.875 3.75-47.85 5.152-15.974 1.402-31.972 2.723-48 3.652-8.002.533-16.02.856-24 1.253-8.01.27-16.027.622-24.044.75-8.018.127-16.035.3-24.053.397-4.005.038-8.018 0-12 0h-6l-6-.09-12-.202-12-.33c-8.025-.188-16.043-.54-24.067-.832-32.086-1.253-64.133-3.375-96.12-6.15-15.998-1.365-31.973-3-47.933-4.688-15.96-1.688-31.898-3.683-47.805-5.827a2202.457 2202.457 0 0 1-95.34-14.565 2057.353 2057.353 0 0 1-47.332-8.835c-7.883-1.5-15.75-3.173-23.603-4.77a1355.878 1355.878 0 0 1-23.543-5.033 2195.698 2195.698 0 0 1-46.935-10.733c-15.607-3.704-31.162-7.665-46.68-11.737-31.034-8.16-61.927-16.868-92.572-26.34a2357.51 2357.51 0 0 1-45.818-14.67c-7.605-2.5-15.197-5.065-22.777-7.695-7.58-2.63-15.135-5.3-22.665-8.01a1941.272 1941.272 0 0 1-44.978-16.86 655.34 655.34 0 0 1-6.847-2.73v17.73l1.073.39c15.22 5.46 30.49 10.73 45.81 15.81a2407.026 2407.026 0 0 0 92.504 28.5c62 17.8 124.61 33.16 187.83 46.08 31.56 6.533 63.27 12.308 95.055 17.618 31.786 5.31 63.668 9.982 95.648 13.934a2343.7 2343.7 0 0 0 192.6 15.9c32.183 1.223 64.455 1.898 96.697 1.058 8.063-.143 16.118-.488 24.18-.75 8.048-.39 16.11-.698 24.15-1.192 16.103-.87 32.183-2.07 48.24-3.473a1797.1 1797.1 0 0 0 96.068-11.063c31.912-4.537 63.69-10.005 95.362-16.027 31.673-6.023 63.18-12.855 94.553-20.295 31.372-7.44 62.61-15.442 93.668-24.142 31.057-8.7 61.98-17.903 92.692-27.818a2096.18 2096.18 0 0 0 45.945-15.345c6-2.07 11.975-4.175 17.925-6.315v-17.993z" fill="#FFF"/><path d="M-90.84 210.338A2042.735 2042.735 0 0 0 .795 242.385a2165.97 2165.97 0 0 0 186.998 51.368c15.75 3.555 31.56 6.997 47.392 10.207 15.832 3.21 31.702 6.285 47.603 9.15 31.784 5.82 63.75 10.785 95.737 15.09 16.02 2.108 32.055 4.095 48.113 5.805l12.045 1.32 12.067 1.208 6 .6 6 .547 12.067 1.087c32.19 2.77 64.44 4.716 96.75 5.836 32.25 1.192 64.65 1.38 96.946.164 16.154-.577 32.294-1.544 48.412-2.692 16.118-1.147 32.205-2.7 48.278-4.41 16.072-1.71 32.1-3.75 48.112-5.925s31.98-4.642 47.91-7.32a1804.713 1804.713 0 0 0 47.692-8.67 2227.948 2227.948 0 0 0 47.46-9.848 2101.818 2101.818 0 0 0 94.148-23.084c31.21-8.42 62.25-17.443 93.12-27.068 15.42-4.85 30.795-9.85 46.125-15a2137.53 2137.53 0 0 0 45.803-15.968 2027.16 2027.16 0 0 0 45.48-16.957c6.5-2.5 12.982-5.047 19.447-7.642v-13.95l-1.822.794a1640.588 1640.588 0 0 1-22.178 9.473 1809.07 1809.07 0 0 1-44.79 17.94 2044.684 2044.684 0 0 1-90.878 32.618 2136.577 2136.577 0 0 1-92.332 28.402c-31 8.745-62.19 16.745-93.57 24a1828.422 1828.422 0 0 1-47.25 10.23 1699.83 1699.83 0 0 1-47.475 8.925c-15.863 2.768-31.77 5.25-47.7 7.59-15.93 2.34-31.913 4.328-47.918 6.105-64.02 7.028-128.497 9.84-192.855 6.96a1891.5 1891.5 0 0 1-192.427-17.182c-31.89-4.53-63.665-9.78-95.325-15.75-31.65-6-63.12-12.848-94.44-20.318a2210.76 2210.76 0 0 1-46.83-11.805c-15.57-4.095-31.065-8.46-46.5-12.937a2018.314 2018.314 0 0 1-46.2-14.018c-15.345-4.852-30.63-9.87-45.84-15.12a2005.276 2005.276 0 0 1-45.42-16.275c-15.067-5.61-30.075-11.392-45-17.445-14.925-6.052-29.707-12.255-44.385-18.75-2.91-1.33-5.865-2.67-8.865-4.02v15.42c1.155.48 2.303.968 3.458 1.44a1718.999 1718.999 0 0 0 45.202 17.828z" fill="#FFF"/><path d="M-139.5 127.8c2.79 1.245 5.58 2.498 8.377 3.75a1564.693 1564.693 0 0 0 44.873 18.885A1867.366 1867.366 0 0 0 4.92 184.32a2013.326 2013.326 0 0 0 92.693 29.25c31.14 8.91 62.445 17.25 93.96 24.683 15.75 3.75 31.56 7.252 47.392 10.62l11.888 2.482 11.902 2.393c7.928 1.627 15.892 3.09 23.835 4.635l11.91 2.152 6 1.08 6 1.035 11.947 2.1 12 1.958c4 .664 8 1.294 12 1.89l12 1.837 12 1.725 6 .862 6 .803A1866.165 1866.165 0 0 0 575.88 290.04l12.128.315 6.067.157 6.075.068c4.05 0 8.1.142 12.15.135h12.143c4.05 0 8.1-.128 12.142-.18 4.043-.053 8.1-.135 12.142-.3l12.143-.413 12.127-.592c16.17-.87 32.326-2.003 48.443-3.548l6.045-.555 6-.622 12.075-1.283c8.04-.96 16.088-1.86 24.105-2.955 8.018-1.095 16.043-2.167 24.06-3.292a813.63 813.63 0 0 0 24-3.75c15.982-2.58 31.913-5.475 47.798-8.588a1654.536 1654.536 0 0 0 47.512-10.035c7.897-1.77 15.75-3.63 23.647-5.482a1165.22 1165.22 0 0 0 23.58-5.805c31.396-7.905 62.55-16.748 93.525-26.19 30.976-9.443 61.718-19.628 92.25-30.503 30.533-10.875 60.81-22.335 90.855-34.5 15-6.085 29.948-12.352 44.843-18.802 6.26-2.71 12.51-5.46 18.75-8.25v-12.93l-1.447.705c-7.236 3.5-14.508 6.955-21.818 10.365a1825.498 1825.498 0 0 1-44.152 19.717 2002.518 2002.518 0 0 1-89.79 36.083 2030.075 2030.075 0 0 1-91.433 31.74 1963.5 1963.5 0 0 1-92.947 27.082c-15.608 4.118-31.26 8.07-46.988 11.693-15.728 3.622-31.5 7.117-47.31 10.282-15.81 3.165-31.68 6.165-47.595 8.828-7.95 1.395-15.93 2.595-23.895 3.862a724.282 724.282 0 0 1-24 3.398c-63.952 8.415-128.572 12.39-193.11 9.855-129.082-4.343-257.632-22.778-382.86-54.068a1931.71 1931.71 0 0 1-93.292-25.785 1814.679 1814.679 0 0 1-91.77-30.547c-30.3-11.025-60.33-22.785-89.918-35.505a1538.66 1538.66 0 0 1-44.04-19.808c-4.58-2.15-9.12-4.337-13.62-6.562V127.8z" fill="#FFF"/></g><g transform="translate(430.875)"><path d="M83.43 49.538c-.045-.69 0-12.45 0-12.45a33.293 33.293 0 0 1-3.105 3.75c-1.665 1.694-3 2.19-8.017 2.25-5.018.06-6.24-.413-7.808-1.088-1.568-.675-3.75-4.013-3.75-4.013s.225 3.225.225 7.155-.113 4.973-.113 4.973 2.933 2.438 11.25 2.332c8.318-.105 11.318-2.91 11.318-2.91z" stroke="#0F0606" stroke-width=".555" fill="#FFF" fill-rule="nonzero" stroke-linecap="round" stroke-linejoin="round"/><path d="M72.255 38.858c-2.752 0-4.867-.548-5.115-2.408-.248-1.86 3.097-2.438 4.582-2.468 1.966 0 4.373.105 5.018 1.726.645 1.62-1.74 3.15-4.485 3.15zM84.06 29.25c-.097.878-1.373 2.317-2.153 3.593-.78 1.274-2.167 2.902-3.06 3.247-.892.345.293-1.125-1.23-2.25-1.522-1.125-3.75-1.725-6.885-1.283-3.135.443-4.5 1.328-4.822 2.468-.322 1.14-.112 1.77-1.388 1.23-1.275-.54-4.5-2.617-4.672-4.958-.435-5.204-1.223-11.67-1.275-12.862-.053-1.192-.15-2.4 2.017-2.4a48.818 48.818 0 0 0 10.388-1.5 32.603 32.603 0 0 0 6.75-2.723 8.94 8.94 0 0 0 3 1.238c2.25.6 2.76.6 2.858 1.5.127 1.177.337 4.627.434 7.672.098 3.045.135 6.165.038 7.028zm-25.77 1.83c-1.837-1.215-4.14-3.75-4.2-5.752a2.775 2.775 0 0 1 1.927-2.588 2.25 2.25 0 0 1 1.725 1.95c.226 1.657.548 6.39.548 6.39zm27.307-1.83s2.85-1.38 2.896-4.185c.044-2.805-1.133-3.195-1.133-3.195s-1.635-.323-1.718.855c-.082 1.177-.044 6.525-.044 6.525z" stroke="#0F0606" stroke-width=".555" fill="#FFF" fill-rule="nonzero" stroke-linecap="round" stroke-linejoin="round"/><path d="M85.343 52.417s5.317 1.793 8.167 2.73c2.85.938 12.105 3.84 15.945 5.25 3.84 1.41 7.823 2.116 8.805 3.548.983 1.432 3.69 7.867 4.5 15.893.81 8.025.563 9.75.563 9.75a22.282 22.282 0 0 1-7.2 4.83c-4.05 1.5-10.02 1.807-10.02 1.807s-1.118 2.475-2.19 12.113c-1.073 9.637-3.66 15-3.66 15a48.371 48.371 0 0 1-1.898 7.417s-7.672 2.333-20.513 3.06c-12.84.727-31.717.157-31.717.157a28.74 28.74 0 0 1-2.782-5.527c-1.178-2.805-2.25-12.938-2.31-15.847-.06-2.91-.248-5.505-.248-5.505l.173.097c-2.386-1.62-2.828-3.442-3.75-7.665a59.698 59.698 0 0 1-.593-3.157h.038s-2.828 1.057-7.538-.15A40.972 40.972 0 0 1 20.693 93c.097-6.15.75-16.433 1.62-20.618.87-4.184 2.317-7.92 3.84-9.15 1.522-1.23 4.92-2.017 8.415-2.76 3.495-.742 11.662-2.947 16.68-4.5 5.017-1.552 6.855-3.06 6.855-3.06s7.222 2.895 14.917 1.898a83.123 83.123 0 0 0 12.323-2.393z" fill="#FF7022" fill-rule="nonzero"/><path d="M123.39 92.858s.435 3.967 1.117 7.11c.683 3.142 1.5 6.254 1.973 9.45a31.845 31.845 0 0 0 2.46 8.07 23.91 23.91 0 0 1 1.5 12.15 18.855 18.855 0 0 1-5.662 10.927c-1.133.885-6.886.15-10.5-1.575a24.9 24.9 0 0 1-8.708-7.41c-2.25-2.925-5.25-7.793-5.25-7.793s3.315-1.26 3.66-2.58c.345-1.32-.345-1.95 0-2.467.345-.517 1.26-.75 1.575-2.085.315-1.335-.233-1.83.06-2.325.293-.495 1.628-.968 1.838-2.64.21-1.672-.653-2.55-.803-3.157-.15-.608 1.14-1.29.218-3.233-.923-1.942-2.25-2.205-2.25-2.205l.487-4.98a31.942 31.942 0 0 0 18.285-5.257z" stroke="#0F0606" stroke-width=".5" fill="#FFF" fill-rule="nonzero" stroke-linecap="round" stroke-linejoin="round"/><path d="M84.9 116.25c-.143-.593 1.035-1.868 2.25-2.362a9.203 9.203 0 0 1 3.277-.346h.18c-.457-.75 0-2.085.75-2.827.983-.99 4.186-1.972 7.186-3.69s3.15-3.203 3.69-3.645c1.034-.832 2.7-.593 3.862.788a3.525 3.525 0 0 1 .953 3.097c-.09.75-.75.99-.285 1.672a3.55 3.55 0 0 1 .584 2.91c-.24 1.5-1.08 1.718-1.62 2.25-.54.533.195 1.5-.3 2.813-.495 1.313-1.567 1.32-1.567 2.063 0 .742.487 1.327-.248 2.505-.734 1.177-2.76 1.777-6.18 2.662s-7.995-.097-9.367-.442c-1.373-.345-3-2.415-2.707-2.805 0 0-3.54.075-4.035-2.07-.443-1.913 1.575-2.46 2.31-2.505a66.478 66.478 0 0 1 1.267-.068zM19.808 96.623a26.888 26.888 0 0 0-1.335 5.467c-.488 3.345-.638 10.38-.585 14.76a45.75 45.75 0 0 1-.788 8.858c-.345 2.407-1.725 9.937-1.77 15.247a80.617 80.617 0 0 0 1.815 17.37c1.185 4.92 3.345 13.433 3.99 15.698a44.918 44.918 0 0 1 1.005 4.477 2.625 2.625 0 0 1 2.857.75 15.645 15.645 0 0 0 4.178-.442 25.905 25.905 0 0 0 2.782-.826s-.044-3.75 0-8.302c.045-4.553.293-12.248.346-17.91.052-5.663-.053-16.185 0-18.548a18.128 18.128 0 0 1 .982-6.247c.84-2.565 2.955-11.37 3.938-14.91.982-3.54 1.965-6.563 1.965-6.563a15.667 15.667 0 0 1-1.973-5.924s-7.74 1.132-17.408-2.956z" stroke="#0F0606" stroke-width=".5" fill="#FFF" fill-rule="nonzero" stroke-linecap="round" stroke-linejoin="round"/><path d="M25.335 187.222c5.633 0 7.313-1.245 7.905-1.635.593-.39.322-1.5.487-5.07.158-3.344-.697-3.524-.697-3.524s.96 1.927-2.91 2.4a57.75 57.75 0 0 1-5.828.487l1.043 7.343zm13.462 55.688s-9.644 25.83-10.237 27.555c-.592 1.725-1.372 2.115-2.063.833-.69-1.283-18.652-40.245-19.237-41.528a2.317 2.317 0 0 1 .487-2.903c.75-.75 2.46-2.46 4.335-4.5 1.253-1.387 12.345-13.5 19.5-21.27l4.92-5.362c.675-.75.855-.93.855-.93l1.44 48.105z" stroke="#0F0606" stroke-width=".5" fill="#FF7022" fill-rule="nonzero" stroke-linecap="round" stroke-linejoin="round"/><path stroke="#0F0606" stroke-width=".5" fill="#8C8C8C" fill-rule="nonzero" stroke-linecap="round" stroke-linejoin="round" d="M14.61 245.708l4.313-4.913 6.375 14.663-3.053 6.75z"/><path d="M24.323 257.61c.922 1.972 1.582 3.368 1.777 3.795.99 2.123 1.185.99 1.822-.487.638-1.478 10.875-24.308 10.875-24.308s-.224-6.81-.36-10.095c-.134-3.285 0-3.975-.172-8.055s-.75-18.278-.75-18.278l-.578.675-4.274 4.965a2873.95 2873.95 0 0 1-9 10.418c-2.903 3.345-9.938 11.512-10.823 12.593-.885 1.08-1.5 1.282-.645 3.105.375.75 2.407 5.077 5.063 10.717l7.065 14.955zm42.517 63.285s1.38 3.442-.983 4.725c-2.362 1.282-6.637 1.5-9.914 1.575-3.278.075-7.11 0-9-1.08-1.89-1.08-2.153-3.75-1.958-6l21.855.78zm63.375-4.928a4.335 4.335 0 0 1 .75 4.14c-.75 2.46-3.443 5.415-9.638 5.415s-15.06-1.544-18.802-1.364c-3.743.18-4.823.967-9.15.87-4.328-.098-6-.803-6.465-3.833-.465-3.03.345-3.577 1.148-4.597l42.157-.63z" stroke="#0F0606" stroke-width=".5" fill="#FFF" fill-rule="nonzero" stroke-linecap="round" stroke-linejoin="round"/><path d="M45.81 133.62l-.57.255c-.57.248-.638 2.655.203 2.947.84.293 5.422.623 11.654 1.035 6.653.443 20.866 0 26.723-.937 4.725-.75 9.84-1.23 12.548-1.965 2.707-.735 2.902-.75 2.775-2.018a2.107 2.107 0 0 0-.75-1.665c-.165-.097-1.193.346-1.373.398-1.29.353-2.602.66-3.915.945-2.483.54-4.987.99-7.5 1.35a116.219 116.219 0 0 1-7.417.855c-.63.053-1.5.353-2.108.053a2.805 2.805 0 0 0-1.942-.45c-.675.135-1.216.69-1.883.75a16.71 16.71 0 0 1-2.123 0h-4.635a178.59 178.59 0 0 1-8.722-.316 120.37 120.37 0 0 1-7.5-.637c-.983-.06-2.625-.023-3.465-.6z" stroke="#0F0606" stroke-width=".5" fill="#8C8C8C" fill-rule="nonzero" stroke-linecap="round" stroke-linejoin="round"/><path d="M98.843 134.13a57.405 57.405 0 0 1 3.48 5.355c.75 1.62.93 6.12 1.672 11.25.742 5.13 1.102 14.835 2.287 24.21 1.186 9.375 3.098 24.06 4.276 31.808 1.177 7.747 1.852 21.555 2.737 31.222.885 9.668 1.845 23.693 2.655 32.107.81 8.416-2.655 23.1-3.248 24.578-.592 1.477-5.25 4.867-5.25 4.867s-14.46.886-15.12.593c-.66-.293-6.277-3.69-7.012-6.57-.735-2.88-3.247-18.158-4.132-28.043-.886-9.885-1.695-28.86-2.513-34.912-.817-6.053-3.615-27-4.425-31.072-.81-4.073-1.552-14.76-1.552-14.76v-4.096s-.293 12 0 20.438c.292 8.438-.255 20.415 0 27.795.255 7.38-.63 23.392-1.088 30.63-.457 7.238-1.793 27.345-1.86 31.103-.067 3.757-.817 4.065-1.845 5.392-1.028 1.328-5.392 4.118-5.392 4.118s-13.208-.21-15.128-1.02-6.645-3.54-7.012-6.128c-.368-2.587-1.035-19.553-1.253-29.25-.217-9.697-.472-33.285-.682-40.373-.21-7.087-.75-17.565-1.118-30.112-.367-12.547 1.867-29.295 2.318-37.935.45-8.64.885-9.96 1.845-11.73.96-1.77 3.96-6.795 3.96-6.795s10.807 1.373 18.307 1.2c7.5-.173 17.752-.6 25.185-1.838 7.433-1.237 9.907-2.032 9.907-2.032z" stroke="#0F0606" stroke-width=".5" fill="#8C8C8C" fill-rule="nonzero" stroke-linecap="round" stroke-linejoin="round"/><path d="M79.733 10.665a38.482 38.482 0 0 1-8.753 3.84 48.81 48.81 0 0 1-10.388 1.5c-2.16 0-2.062 1.23-2.017 2.415.045 1.185.847 7.65 1.282 12.855.196 2.348 3.383 4.41 4.658 4.958 1.275.547 1.05-.105 1.395-1.23.345-1.126 1.718-2.018 4.823-2.46 3.105-.443 5.362.142 6.885 1.275 1.522 1.132.345 2.61 1.23 2.25.885-.36 2.25-1.973 3.052-3.248.802-1.275 2.1-2.67 2.167-3.57.068-.9.098-4.035 0-7.087-.097-3.053-.314-6.495-.442-7.673-.105-.885-.645-.885-2.858-1.5a9 9 0 0 1-3-1.245" stroke="#0F0606" stroke-width=".555" stroke-linecap="round" stroke-linejoin="round"/><path d="M58.763 20.302a2.408 2.408 0 0 1 1.537-2.354c1.62-.54 4.23-.443 6.75-1.133 2.52-.69 6.398-2.063 8.115-2.655a4.448 4.448 0 0 1 3.885.293c1.035.54 3.112 1.042 4.853 3.945 0 0-.226-2.91-.27-3.893-.045-.982-1.08-1.013-1.965-1.245a18.203 18.203 0 0 1-3.923-1.5 18.443 18.443 0 0 1-3.098 1.433 70.193 70.193 0 0 1-9.472 2.422c-2.902.54-4.717 0-5.73.57-1.013.57-1.125.998-.682 4.117z" fill="#0F0606" fill-rule="nonzero"/><path d="M73.44 24.69s.638 5.557.638 6.195c0 .637-2.115.345-2.115.345m4.994-3.15a4.103 4.103 0 0 0 2.678.518M66.75 28.5a4.98 4.98 0 0 1-2.25.36" stroke="#0F0606" stroke-width=".555" stroke-linecap="round" stroke-linejoin="round"/><path d="M79.815 26.88c0 .585-.472.863-1.065.863s-1.065-.278-1.065-.863.48-.81 1.065-.81 1.065.218 1.065.81zm-13.17-.15c.075.585-.36.922-.938 1.005-.577.082-1.094-.127-1.207-.735-.112-.608.36-.87.945-.945.585-.075 1.118.09 1.2.675z" fill="#0F0606" fill-rule="nonzero"/><path d="M73.537 19.815a4.38 4.38 0 0 0 0 1.672m-2.19-1.47a3.47 3.47 0 0 0 .368 1.5" stroke="#0F0606" stroke-width=".555" stroke-linecap="round" stroke-linejoin="round"/><path d="M75.6 22.74c.113-.75.398-1.297 1.358-1.252.96.044 5.04-.195 5.25.247.21.442.442 1.89 0 1.928-.443.037-3.75.06-4.56 0-.81-.06-2.183 0-2.048-.923zm-7.628-.158c.166.57-.637 1.08-1.77 1.118-1.5.053-4.08.3-4.5.3-.75 0-.592-2.115.3-2.168.893-.052 3.893-.39 4.628-.345a1.327 1.327 0 0 1 1.343 1.096z" fill="#0F0606" fill-rule="nonzero"/><path d="M57.75 24.69a2.513 2.513 0 0 0-1.725-1.95s-1.822-5.137-1.92-6.367c-.097-1.23.885-4.726 3.3-9.106s4.222-6.15 8.655-6.69c4.433-.54 12.397-.344 14.07.54 1.672.885 4.5 5.513 6.195 8.76 1.695 3.248 1.875 3.495 1.627 5.955-.247 2.46-.592 6.053-.592 6.053s-1.672-.398-1.77 1.177c-.097 1.575.052 9.203.097 10.043.046.84-2.557 4.62-4.724 7.133-2.168 2.512-4.628 2.654-7.973 2.804-3.345.15-6.24.346-8.49-1.042s-4.852-5.513-5.572-6.945c-.6-1.193-.578-3.3-.81-6.15a30.87 30.87 0 0 0-.368-4.215z" stroke="#0F0606" stroke-width=".555" stroke-linecap="round" stroke-linejoin="round"/><path d="M86.325 9.877c-1.672-3.247-4.5-7.867-6.195-8.76C78.435.225 70.5.037 66.06.585c-4.44.548-6.255 2.303-8.663 6.69-2.407 4.387-3.397 7.867-3.292 9.105.105 1.238 1.92 6.367 1.92 6.367a2.497 2.497 0 0 1 1.725 1.943c.228 1.382.358 2.778.39 4.177.233 2.85.21 4.958.803 6.143.72 1.44 3.36 5.49 5.557 6.99 2.198 1.5 5.115 1.23 8.46 1.08 3.345-.15 5.813-.3 7.98-2.797 2.168-2.498 4.77-6.308 4.725-7.14-.045-.833-.203-8.46-.105-10.035.097-1.576 1.778-1.193 1.778-1.193s.345-3.592.592-6.045c.247-2.452.067-2.752-1.605-5.992zm-14.07 28.98c-2.752 0-4.867-.547-5.115-2.407-.248-1.86 3.097-2.438 4.582-2.468 1.966 0 4.373.105 5.018 1.726.645 1.62-1.74 3.15-4.485 3.15zM84.06 29.25c-.097.878-1.373 2.317-2.153 3.593-.78 1.274-2.167 2.902-3.06 3.247-.892.345.293-1.125-1.23-2.25-1.522-1.125-3.75-1.725-6.885-1.283-3.135.443-4.5 1.328-4.822 2.468-.322 1.14-.112 1.77-1.388 1.23-1.275-.54-4.5-2.617-4.672-4.958-.435-5.204-1.223-11.67-1.275-12.862-.053-1.192-.15-2.4 2.017-2.4a48.818 48.818 0 0 0 10.388-1.5 32.603 32.603 0 0 0 6.75-2.723 8.94 8.94 0 0 0 3 1.238c2.25.6 2.76.6 2.858 1.5.127 1.177.337 4.627.434 7.672.098 3.045.135 6.165.038 7.028z" stroke="#0F0606" stroke-width=".555" fill="#8C8C8C" fill-rule="nonzero" stroke-linecap="round" stroke-linejoin="round"/><path d="M86.475 26.902s.938-.592 1.035-1.327m-31.883 1.327a3.353 3.353 0 0 0 1.673 1.763m14.415 5.325c1.972 0 4.38.097 5.017 1.718.638 1.62-1.717 3.15-4.5 3.15-2.782 0-4.867-.54-5.114-2.408-.248-1.867 3.12-2.438 4.597-2.46z" stroke="#0F0606" stroke-width=".555" stroke-linecap="round" stroke-linejoin="round"/><path d="M69.203 35.565c-.218.443.794.81 2.894.668 2.1-.143 3.113-.87 2.813-1.26-.3-.39-1.462.442-3.082.404-1.62-.037-2.326-.405-2.626.188zm14.227 1.522c.067-.09 0 11.318 0 11.318a43.8 43.8 0 0 1-8.25-1.965c-4.433-1.5-6.3-3.292-6.3-3.292a45.278 45.278 0 0 0 7.928-.48c2.977-.608 4.26-2.475 6.622-5.58z" fill="#0F0606" fill-rule="nonzero"/><path d="M57.938 52.29s1.867-2.362 2.25-2.46c.382-.097 1.575 1.328 4.77 1.973 3.195.645 8.76.982 12.99 0a18.608 18.608 0 0 0 5.932-2.25c.413-.15 1.598 2.46 1.448 2.88-.15.42-2.558 2.137-7.868 3.075-5.31.937-11.175 1.23-14.617 0-3.443-1.23-5.34-2.678-4.906-3.218z" stroke="#0F0606" stroke-width=".5" fill="#FFF" fill-rule="nonzero" stroke-linecap="round" stroke-linejoin="round"/><path d="M85.343 52.417s5.317 1.793 8.167 2.73c2.85.938 12.105 3.84 15.945 5.25 3.84 1.41 7.823 2.116 8.805 3.548.983 1.432 3.69 7.867 4.5 15.893.81 8.025.563 9.75.563 9.75M58.102 52.92s-1.837 1.5-6.854 3.06c-5.018 1.56-13.185 3.75-16.68 4.5-3.495.75-6.893 1.5-8.415 2.76-1.523 1.26-2.955 4.965-3.84 9.15-.886 4.185-1.5 14.468-1.62 20.617" stroke="#0F0606" stroke-width=".555" stroke-linecap="round" stroke-linejoin="round"/><path d="M37.62 101.692s-.892-4.627-1.335-7.627c-.442-3-.345-5.61-.93-5.407-.585.202-.69 1.5-.592 4.327.097 2.828 0 6.54 0 6.54a29.82 29.82 0 0 1-7.92-.75c-3.398-.75-6.263-1.38-7.035-2.168l-.36 1.38a46.575 46.575 0 0 0 9.555 2.903c5.857 1.2 8.617.802 8.617.802zm3.195 5.416c-.172-.113.128 2.602.172 3.15a2.415 2.415 0 0 1 1.995-.346c2.52.23 5.052.263 7.575.098 1.725-.195 2.31-.75.69-.84a58.373 58.373 0 0 1-6.39-.788 12.293 12.293 0 0 1-4.042-1.275z" fill="#0F0606" fill-rule="nonzero"/><path d="M34.763 99.525a34.418 34.418 0 0 1-7.65-.675c-3.713-.832-5.835-1.14-7.305-2.25-.698-.51-.346-4.275 1.23-3.637a45.637 45.637 0 0 0 7.38 2.805c4.08 1.132 6.345.832 6.345.832v2.925z" stroke="#0F0606" stroke-width=".5" fill="#FFF" fill-rule="nonzero" stroke-linecap="round" stroke-linejoin="round"/><path d="M35.685 88.987c.037.143.585 6.33 1.5 10.553.915 4.222 1.387 6.045 3.75 7.665 2.362 1.62 9.75 2.063 11.212 2.017" stroke="#0F0606" stroke-width=".555" stroke-linecap="round" stroke-linejoin="round"/><path d="M40.815 107.108s.195 2.602.248 5.504c.052 2.903 1.132 13.043 2.31 15.848a28.74 28.74 0 0 0 2.782 5.528" stroke="#0F0606" stroke-width=".555" stroke-linecap="round" stroke-linejoin="round"/><path d="M33.24 185.588s.982 3.39 1.77 5.805c.788 2.415 1.275 2.85 1.62 5.415.345 2.565.495 8.752.645 11.167.15 2.415 0 6.84-1.5 6.885-1.5.045-2.115-1.5-2.557-5.363-.443-3.862-.646-6.247-1.673-8.415l-8.783 9.6a4.785 4.785 0 0 1-1.747-3.052c-.098-1.77.683-7.035.982-10.14.3-3.105.886-6.915.886-9.683 0 0 1.59-.187 5.325-.832 3.735-.645 5.032-1.387 5.032-1.387z" stroke="#0F0606" stroke-width=".5" fill="#FFF" fill-rule="nonzero" stroke-linecap="round" stroke-linejoin="round"/><path d="M22.785 210.683s0-1.088 2.55-4.875c2.55-3.788 3.315-4.5 4.207-5.25a1.222 1.222 0 0 1 2.025.54l-8.782 9.584z" fill="#0F0606" fill-rule="nonzero"/><path d="M17.1 246.3l4.672 9.945m.001-21.682l4.672 9.937m-3.48-18.248l7.575 16.11m-5.602-18.592l7.575 16.11m-5.603-18.938l7.582 16.11M28.89 218.46l7.575 16.11m-5.602-18.6l7.575 16.11" stroke="#0F0606" stroke-width=".555" stroke-linecap="round" stroke-linejoin="round"/><path d="M86.528 133.86c4.822-.653 11.76-2.25 11.76-2.25l.555-2.25s-8.678 2.115-12.713 2.85c-4.82.793-9.684 1.294-14.565 1.5-4.965.248-13.68.248-18.3 0-4.62-.248-7.822-.66-7.822-.66.227.446.526.851.885 1.2 2.46.39 17.422 1.058 17.422 1.058a6.832 6.832 0 0 1 2.25-.3c1.567-.06 3 .54 4.575.374.547-.06 1.125 0 1.672-.052.353 0 .96-.532 1.373-.645a3.42 3.42 0 0 1 1.665-.143c.414.212.86.354 1.32.42.638 0 1.275-.157 1.912-.164.75 0 1.56-.158 2.326-.233 1.904-.232 3.794-.45 5.684-.705z" fill="#0F0606" fill-rule="nonzero"/><path d="M100.282 123.353a48.253 48.253 0 0 1-1.897 7.417" stroke="#0F0606" stroke-width=".555" stroke-linecap="round" stroke-linejoin="round"/><path d="M123.39 92.858l.382 2.737a24.75 24.75 0 0 1-8.76 3.293c-2.928.53-5.907.728-8.88.592l-.217 4.425s-1.065-.69-1.568-.93a55.11 55.11 0 0 1 .383-6.45c.442-4.23.487-7.5 1.402-7.672.915-.173 1.013 8.902 1.013 8.902a35.25 35.25 0 0 0 8.115-1.62 49.26 49.26 0 0 0 8.13-3.278z" fill="#0F0606" fill-rule="nonzero"/><path d="M107.145 97.755a24.953 24.953 0 0 0 6.203-.915c2.88-.698 9.052-3.525 10.042-3.983a1.62 1.62 0 0 0 .578-.855 3.75 3.75 0 0 0-.196-2.317c-.292-.442-2.07.645-3.36 1.5a41.79 41.79 0 0 1-8.527 3.69c-1.55.492-3.175.708-4.8.638l.06 2.242z" stroke="#0F0606" stroke-width=".5" fill="#FFF" fill-rule="nonzero" stroke-linecap="round" stroke-linejoin="round"/><path d="M103.942 108.338a20.528 20.528 0 0 1-3.937 2.85c-2.85 1.724-7.08 3.202-8.61 2.857a1.38 1.38 0 0 1-.825-.623m-5.67 2.828c.15.593.593 1.282 3.99 1.177 3.397-.105 9.593-.877 13.433-3.345m-16.928 6.803c2.646.298 5.311.396 7.973.292 4.717-.15 7.08-1.5 7.08-1.5m6.637-10.267a27.09 27.09 0 0 1 4.538 2.52c2.355 1.62 14.317 8.527 14.317 8.527M70.537 136.32s2.31-1.822 4.08-1.822 1.868.495 1.965 1.185c.098.69 0 1.627-1.964 1.575a15.54 15.54 0 0 1-4.08-.938zm0 0a7.402 7.402 0 0 0-2.775-1.23 8.955 8.955 0 0 0-3.39.083 1.065 1.065 0 0 0 0 1.934c1.096.638 4.628.196 6.165-.787zm3.038 17.43s.352-11.018-3-17.415c0 0-3.053 3.495-1.875 11.857" stroke="#0F0606" stroke-width=".555" stroke-linecap="round" stroke-linejoin="round"/><path d="M46.5 146.25c.69.15-.705 17.933-.877 19.62-.33 3.412-1.29 4.162-1.14.697.15-2.835-.03-20.782 2.017-20.317zm50.558-1.972c.75-.165.81.517 1.102 2.212.293 1.695 2.145 12.405 2.955 15.75.81 3.345.81 6.75 0 4.357-.81-2.392-2.805-12.247-3.54-16.755-.735-4.507-1.185-5.415-.517-5.565zm10.402-34.845s1.11 2.67 0 4.252c-1.11 1.582-.367 3-1.252 4.612-.885 1.613-.376 4.118-1.11 5.056-1.403 1.807-.75 5.25-.75 6.57l-4.343-6.578s2.955-.75 3.645-1.875c.406-.77.494-1.67.247-2.505.163-.492.506-.905.96-1.155.856-.57.856-1.987.713-2.88-.142-.893.39-.848.893-1.403a2.955 2.955 0 0 0 .997-2.145 12.668 12.668 0 0 0-.375-2.25l.375.3z" fill="#0F0606" fill-rule="nonzero"/><path d="M63.398 304.065a2.588 2.588 0 0 1-2.46 2.363 3.135 3.135 0 0 0-1.966-3.248c-2.25-.885-5.017-.585-6.495-.39-1.477.195-2.557 1.575-2.362 4.5 0 0-1.973-.585-2.46-1.965a9.427 9.427 0 0 1-.495 3.15 94.613 94.613 0 0 0-1.965 9.345c-.593 3.548.195 4.92 2.362 5.707a6.523 6.523 0 0 0 5.903-.39c1.77-1.08 2.955-1.38 4.5-.592 1.545.787 2.947 1.92 5.407 1.5 2.46-.42 3.42-1.5 3.443-3.173.045-2.557-1.672-5.505-1.373-7.5a15.202 15.202 0 0 0-.322-6.435c-.93-2.872-1.717-2.872-1.717-2.872z" stroke="#0F0606" stroke-width=".5" fill="#FFF" fill-rule="nonzero" stroke-linecap="round" stroke-linejoin="round"/><path d="M49.5 308.498a18.54 18.54 0 0 1 12.398-.398m-12.15 3.3a18.51 18.51 0 0 1 12.397-.39m-12.397 2.992a18.54 18.54 0 0 1 12.397-.397m-12.397 2.993a18.51 18.51 0 0 1 12.397-.39" stroke="#0F0606" stroke-width=".555" stroke-linecap="round" stroke-linejoin="round"/><path d="M48.195 306.18l-.81-7.058s4.988.698 8.34.818c3.352.12 6.75.202 6.75.202l.57 4.95a3.308 3.308 0 0 1-2.145 1.336s.285-3-2.468-3.413c-2.752-.412-4.98-.563-6.75 0-1.77.563-1.732 2.625-1.635 4.298a3.555 3.555 0 0 1-1.852-1.133z" fill="#0F0606" fill-rule="nonzero"/><path d="M91.642 304.957a26.498 26.498 0 0 0-2.752 5.813c-.69 2.55-1.38 6.39 0 7.958 1.38 1.567 8.07 1.38 11.903 1.38 3.832 0 11.317.982 17.122 1.575 5.805.592 8.37-.293 10.725-2.558 2.355-2.265 1.875-2.475 1.575-3.158-.3-.682-4.328-.69-8.168-1.964-3.84-1.275-8.752-3.638-11.317-7.178-2.565-3.54-2.46-5.317-3.045-5.805-.585-.487-2.955.165-2.858 1.56.098 1.395.593 2.67-.592 2.865-1.185.195-11.115.495-12.593-.488z" stroke="#0F0606" stroke-width=".5" fill="#FFF" fill-rule="nonzero" stroke-linecap="round" stroke-linejoin="round"/><path d="M107.093 311.363a8.58 8.58 0 0 1 3.637-4.5m0 5.887a6.69 6.69 0 0 1 2.115-3.645m.937 4.897a5.715 5.715 0 0 1 1.328-3.232m1.53 3.825c.014-.899.22-1.784.608-2.595" stroke="#0F0606" stroke-width=".555" stroke-linecap="round" stroke-linejoin="round"/><path d="M92.198 305.175l.135-5.093 15.12-.592.232 1.5s-1.425-.45-2.093.285c-.667.735-.607 1.088-.637 2.37-.03 1.283.555 1.815-2.392 1.89-3.46.134-6.924.013-10.365-.36zM20.047 179.093c0 1.08.495 6.345.495 7.132 0 .787.69 1.425 2.61 1.627 1.92.203 2.363-.405 2.363-1.5v-5.894c0-.886-.645-1.673-1.92-2.115-1.275-.443-3.547-.285-3.547.75z" fill="#0F0606" fill-rule="nonzero"/><path d="M24.997 179.88c1.936.012 3.866-.2 5.753-.63 2.017-.637 2.475-.938 2.46-1.718 0-.375-.547-.885-1.38-.787l.098 1.215s-2.063 1.095-6.96 1.267c.03.023-.076.06.03.653z" fill="#0F0606" fill-rule="nonzero"/><path d="M24.997 179.88a22.74 22.74 0 0 0 5.753-.63c2.752-.75 2.407-1.125 2.46-1.718.053-.592-.578-.802-1.14-.817" stroke="#0F0606" stroke-width=".555" stroke-linecap="round" stroke-linejoin="round"/><path d="M33.24 185.588s.75 2.707 1.275 4.132a29.76 29.76 0 0 0-4.035-1.035c-2.363-.442-7.575.195-7.575.195v-1.072c1.024-.32 2.08-.521 3.15-.6 1.567-.076 5.512-.143 7.185-1.62z" fill="#0F0606" fill-rule="nonzero"/><path d="M101.873 103.905c-.645-.142-.833-3.097-.833-4.92s.495-3.69-1.11-4.38-2.288.593-2.528 2.017c-.24 1.425-1.034 3.496-2.707 7.035a14.932 14.932 0 0 0-1.627 6 32.31 32.31 0 0 0 5.13-2.444c1.905-1.245 2.505-1.718 2.857-2.153.352-.435.817-1.155.817-1.155z" stroke="#0F0606" stroke-width=".5" fill="#FFF" fill-rule="nonzero" stroke-linecap="round" stroke-linejoin="round"/><path d="M81.555 72.495a28.92 28.92 0 0 1-1.23-4.358l2.903-.397a24.225 24.225 0 0 0 1.132 3.15 12.435 12.435 0 0 0 2.483 3.225c1.62 1.583 2.91 2.392 4.582 2.513a9.3 9.3 0 0 0 5.183-1.5A14.032 14.032 0 0 0 102 68.25c.938-3.052.84-10.08.84-10.08l11.91 3.877c0 8.483-3.975 14.513-9.998 17.55a22.5 22.5 0 0 1-7.2 2.356c-1.772.17-3.559.14-5.325-.09a13.68 13.68 0 0 1-8.632-5.558c-.225-.293-.427-.6-.623-.908a23.475 23.475 0 0 1-1.417-2.902z" stroke="#0F0606" stroke-width=".555" fill="#FFF" fill-rule="nonzero" stroke-linecap="round" stroke-linejoin="round"/><path d="M94.222 72.593a11.31 11.31 0 0 0-4.62-2.168 10.59 10.59 0 0 0-1.777-.15c-5.494 0-9.948 4.451-9.952 9.945-.005 5.494 4.443 9.952 9.937 9.96 5.494.008 9.955-4.436 9.968-9.93a9.525 9.525 0 0 0-3.556-7.657zm-7.62 13.23a5.858 5.858 0 1 1 0-11.716 5.858 5.858 0 0 1 0 11.716z" stroke="#0F0606" stroke-width=".555" fill="#FFF" fill-rule="nonzero" stroke-linecap="round" stroke-linejoin="round"/><path stroke="#0F0606" stroke-width=".555" fill="#FFF" fill-rule="nonzero" stroke-linecap="round" stroke-linejoin="round" d="M84.855 55.935l6.397 19.53 8.31-8.017zm32.692 27.72c2.063.885 3.706 2.737 5.806 5.198v.75c-1.11.315-2.04 1.012-3.69 2.01a55.357 55.357 0 0 1-5.94 2.67c-.443-1.5-1.838-5.438-1.838-5.438a7.08 7.08 0 0 0-2.07-2.123 6.337 6.337 0 0 0-4.74-.562c-2.55.638-5.145 3.157-5.145 3.157-1.5 1.23-2.4 2.153-2.4 2.153l-1.8-1.575a16.898 16.898 0 0 1 2.392-2.79s2.895-2.918 5.55-3.75a21.165 21.165 0 0 1 8.738-1.133c1.753.317 3.473.797 5.138 1.433z"/><circle stroke="#0F0606" stroke-width=".555" fill="#FFF" fill-rule="nonzero" stroke-linecap="round" stroke-linejoin="round" cx="101.535" cy="86.145" r="3.54"/><path d="M118.703 92.002s-1.673-3.75-1.035-10.05c.637-6.3 2.737-8.452 3.682-9.952l-.938-3.12a30.855 30.855 0 0 0-7.762 13.282 25.815 25.815 0 0 0 0 12.443 18.3 18.3 0 0 0 2.925-1.073 40.814 40.814 0 0 0 3.127-1.53z" stroke="#0F0606" stroke-width=".555" fill="#FFF" fill-rule="nonzero" stroke-linecap="round" stroke-linejoin="round"/><path d="M14.588 327.413h101.534M0 320.655h22.965m80.317 14.227h40.808m-21.008-21.959h21.06" stroke="#030101" stroke-width=".5"/></g><g transform="translate(632.625 18)"><path d="M84.442 66.698c.496-5.318-2.61-7.995-4.672-11.145-2.063-3.15 0-6.3.885-9.15.885-2.85.097-4.5-2.76-7.185-2.858-2.686-3.54-4.036-3.84-7.38-.3-3.346-.293-8.76-.885-14.468-.593-5.708-1.77-8.37-5.213-11.61-3.442-3.24-8.564-2.25-8.564-2.25-.675 0-2.296-2.955-6.893-3.21-4.597-.255-11.16 2.1-13.837 5.753a18.27 18.27 0 0 0-3.855 10.5c-.308 3.892-.113 5.407-1.958 8.197-1.845 2.79-3.803 4.883-4.35 8.483-.547 3.6.18 7.635 1.14 10.912.96 3.277 1.44 5.347.75 7.74s-4.387 5.535-5.535 7.718c-1.148 2.182-3.277 5.535-1.605 10.59 0 0 3.42-2.033 5.108-3.248l5.64-4.102.044-.548s3.45-3.525 5.498-5.445c2.047-1.92 4.77-6.39 10.5-6.99 5.73-.6 14.835.315 18.908 4.35a50.467 50.467 0 0 1 6 6.87v.443l9.495 5.175z" stroke="#0F0606" stroke-width=".555" fill="#030101" fill-rule="nonzero" stroke-linecap="round" stroke-linejoin="round"/><path d="M63.48 52.627s-1.057-10.184-1.23-11.437c-.172-1.252.532-1.11 1.5-2.805s1.11-3.247 1.552-4.5c.443-1.252 2.73-2.137 4.133-4.057 1.403-1.92 1.403-4.208 0-5.386-1.403-1.177-2.655.81-2.73 0-.075-.81 0-4.357 0-4.357s-4.447-1.41-6.75-4.35c0 0-6.75 6.998-11.55 8.46-4.8 1.462-5.865.668-5.865.668l-.12 1.297a2.888 2.888 0 0 0-1.92-.593 2.108 2.108 0 0 0-1.845 2.003 6 6 0 0 0 1.867 4.867c1.83 1.628 2.453 1.846 2.603 2.843.15.998.885 3.75 2.325 4.987 1.44 1.238 2.438 1.583 2.467 2.25.03.668-.472 11.693-.472 11.693s3.75 4.837 6.66 5.91c.023 0 6.09-2.122 9.375-7.492z" fill="#FFF" fill-rule="nonzero"/><path d="M83.302 153.33l.495.435s7.096-13.777 9.113-17.617c2.017-3.84 6.75-12.698 6.75-19.133 0-6.435-3.412-15.157-4.41-18.765-.998-3.608-3.075-12.075-4.14-15.51-1.065-3.435-4.77-12.593-5.355-14.205-.585-1.612-1.102-1.74-3.54-2.955C79.777 64.365 75 61.5 75 61.5v-.45s-6.45-7.642-8.618-9.06a22.05 22.05 0 0 0-2.902-2.13v1.583s2.25 1.56 2.902 3.172c.653 1.612 1.193 3.135 1.17 6.885a93.412 93.412 0 0 1-2.115 16.125c-.99 4.132-6.09 21.255-7.342 24.57-.975 2.573-2.145 6.053-2.873 8.828 0 0-2.017-5.58-3.427-9.585-1.41-4.005-4.462-13.283-5.295-16.688-.833-3.405-2.61-10.425-3.15-13.237-.54-2.813-1.208-6-.458-9.75s1.718-5.31 2.423-6.166c.705-.855 1.043-1.455 2.16-1.8l.188-3a64.08 64.08 0 0 0-8.955 6.856c-3.975 3.75-4.5 4.072-4.643 4.657v.547h-.105s-3.623 2.596-5.535 4.066c-1.913 1.47-5.588 3.247-6.248 4.215-.66.967-3.764 6.457-5.677 17.362-1.342 7.62-3.27 18.877-3.863 22.275-.592 3.397-2.295 14.16-3.397 26.857-1.103 12.698-.84 30.51-.84 30.51 4.86.75 12.69-.892 12.69-.892s.848-9.173 1.433-20.175c.585-11.002 1.994-21.615 2.73-27.382.735-5.768 3.997-21.376 3.997-21.376a45.473 45.473 0 0 1 2.587 11.43 61.297 61.297 0 0 1-1.35 17.003c-1.102 5.31-3.75 22.282-4.432 30.697-.683 8.416-1.545 34.838-1.545 34.838 11.25 1.252 30.555 0 30.555 0v-1.65c9 .248 29.362-1.5 29.362-1.5-.15-6.202-1.785-21.697-2.122-24.705-.315-2.775-1.065-8.768-1.17-9.63l.968.817 1.2-2.287zm-3.57 1.44l.623-.653.645.548a36.08 36.08 0 0 1-1.267.105zm-1.222-21c-.33-1.44-.9-6.105-1.35-9.21-.615-4.282-.983-17.813-.885-19.98.097-2.168 1.275-3.69 1.777-5.752.503-2.063.39-6.556.39-6.556s2.798 7.68 4.666 12.84c1.215 3.353 2.534 8.603 3.284 11.768a64.762 64.762 0 0 1-3.892 9.188c-.66 1.17-2.25 4.342-3.99 7.732v-.03z" stroke="#0F0606" stroke-width=".5" fill="#FFF" fill-rule="nonzero" stroke-linecap="round" stroke-linejoin="round"/><path d="M81.705 159.667c-4.075.637-8.2.888-12.323.75l-3.69-.12-1.102-.06.075-4.874s6.255-.136 9.435-.278c3.18-.143 6.983-.405 6.983-.405l.622 4.987z" stroke="#0F0606" stroke-width=".5" fill="#030101" fill-rule="nonzero" stroke-linecap="round" stroke-linejoin="round"/><path d="M72.435 146.58a40.103 40.103 0 0 1-3 3.885c-1.627 1.822-2.415 3.202-2.76 5.123a39.57 39.57 0 0 1-1.62 6.637c-.69 1.673-.443 2.903.592 2.565a7.598 7.598 0 0 0 3.75-4.38c.54-2.07.69-3.645 1.5-4.822.81-1.178 1.575-1.035 1.628-.495l7.08-.293.75-.833-7.92-7.387zM19.5 190.643c.65-.573.833-1.514.442-2.288-.637-1.425-2.61-3.75-3.592-6.052a47.73 47.73 0 0 0 1.282 6.75c.75 2.422 1.358 4.327 1.358 4.327.74-.714.946-1.82.51-2.752v.015z" stroke="#0F0606" stroke-width=".5" fill="#FFF" fill-rule="nonzero" stroke-linecap="round" stroke-linejoin="round"/><path d="M19.087 169.373c.675 2.467 2.37 5.797 2.573 6.877.224 2.225.322 4.461.293 6.697 0 2.31.247 4.125-.886 3.75-1.132-.375-1.867-3.397-2.25-5.565-.382-2.167-.69-2.805-1.282-2.85-.593-.044-1.275 1.23-1.177 3.983.097 2.753 1.034 6.3 2.25 9.795 1.215 3.495-.053 3.982-.495 3.75-.443-.233-1.92-3-2.85-4.77-.93-1.77-3.548-6.69-4.185-8.565-.638-1.875-.54-4.177-.248-6.84.293-2.662.495-5.655.495-5.655s2.64-.075 4.178-.218c1.537-.142 3.584-.39 3.584-.39zm32.933 41.504a26.647 26.647 0 0 0 0 5.475 154.657 154.657 0 0 1 1.08 19.68c-.098 10.5-1.973 21.653-3.09 30.706-.953 7.732-1.343 12.202-.802 18.502 0 0 .24 4.597-1.193 7.717-1.432 3.12-3.15 7.238-4.905 6.893-1.755-.345-1.5.27-1.822-1.38 0 0 .405-7.5.42-10.5 0-5.25-.81-12.263-1.403-17.43-.593-5.168-1.822-11.79-2.902-19.208-1.08-7.417-.983-13.822-.938-19.38.045-5.557.195-9.945 0-13.732-.195-3.787-.54-6.54-.54-6.54s6.488-.09 9.315-.255c2.828-.165 6.78-.548 6.78-.548zM68.737 298.5s-.404-7.5-.42-10.5c0-5.25.818-12.262 1.403-17.43.585-5.168 1.823-11.76 2.91-19.192a120 120 0 0 0 .93-19.38c-.045-5.565-.195-9.945 0-13.733.195-3.787.54-8.145.54-8.145l-16.087.803c.187 1.82.187 3.654 0 5.475a154.657 154.657 0 0 0-1.08 19.68c.097 10.5 1.972 21.652 3.082 30.705.953 7.732 1.343 12.202.803 18.502a16.597 16.597 0 0 0 1.065 7.357c1.5 3.33 2.624 5.88 4.042 6.803 1.418.923 2.888.42 2.813-.945z" stroke="#0F0606" stroke-width=".5" fill="#FFF" fill-rule="nonzero" stroke-linecap="round" stroke-linejoin="round"/><path d="M29.332 192.645s2.25 14.355 3.54 19.035c0 0 9.75.097 16.5-.593s13.86-.292 18.143-.442c4.282-.15 10.74-1.133 10.74-1.133s1.028-10.732 1.275-20.032l-24.54 1.14v1.65l-25.658.375z" stroke="#0F0606" stroke-width=".5" fill="#8C8C8C" fill-rule="nonzero" stroke-linecap="round" stroke-linejoin="round"/><path d="M70.125 18.233c.323.517-1.328 1.5-3.397 1.845-2.07.345-4.058-1.178-5.093-1.845-1.035-.668-1.597-1.77-2.25-1.11a71.505 71.505 0 0 1-8.085 6.052c-2.55 1.575-6.938 2.73-9.667 2.512-2.73-.217-3.84-2.362-3.466-2.805.375-.442 1.403 1.328 4.058 1.628 2.655.3 5.093.367 8.932-2.25a25.38 25.38 0 0 0 7.5-7.455c1.26-2.063 1.5-2.43 2.07-1.178a7.935 7.935 0 0 0 3.398 3.69c3.27 2.01 5.483.105 6 .916z" fill="#8C8C8C" fill-rule="nonzero"/><path d="M66.75 20.078s-.075 3.54 0 4.357c.075.818 1.328-1.185 2.73 0s1.402 3.465 0 5.385c-1.403 1.92-3.69 2.805-4.133 4.057-.442 1.253-.592 2.805-1.552 4.5-.96 1.695-1.642 1.545-1.5 2.805.142 1.26 1.2 11.438 1.2 11.438m2.348-21.248a7.118 7.118 0 0 0 2.137-2.25m-14.183-7.619a6.81 6.81 0 0 1 0 1.747m6.143.668s3-.593 5.093.367m-8.641.465a6.795 6.795 0 0 0-.892 4.335c.3 2.655.915 3.615.42 3.832a5.25 5.25 0 0 1-1.8.098" stroke="#0F0606" stroke-width=".555" stroke-linecap="round" stroke-linejoin="round"/><path d="M58.095 34.77c.375.375-1.11 1.912-3.472 1.912-2.363 0-3.623-1.102-3.323-1.544.3-.443.885.885 3.398.592 2.512-.292 2.955-1.402 3.397-.96z" fill="#0F0606" fill-rule="nonzero"/><ellipse fill="#0F0606" fill-rule="nonzero" cx="61.852" cy="26.438" rx="1.252" ry="1"/><path d="M62.557 25.98a5.708 5.708 0 0 0 1.658-.262m-1.103.72a3.435 3.435 0 0 0 1.733-.458m-5.055 1.148c.247.496.709.85 1.252.96M50.047 24.36c-.547-.1-1.1-.157-1.657-.172" stroke="#0F0606" stroke-width=".555" stroke-linecap="round" stroke-linejoin="round"/><ellipse fill="#0F0606" fill-rule="nonzero" cx="48.127" cy="26.88" rx="1.252" ry="1"/><path d="M47.43 26.422a5.887 5.887 0 0 1-1.68-.27m1.125.728a3.42 3.42 0 0 1-1.733-.457m5.055 1.147a1.815 1.815 0 0 1-1.26.93" stroke="#0F0606" stroke-width=".555" stroke-linecap="round" stroke-linejoin="round"/><path d="M38.4 22.83s.803 1.185 3.645 1.65a10.41 10.41 0 0 0 7.77-1.365c2.355-1.537 5.19-3.435 7.305-6.112 2.115-2.678 2.573-3.75 3-4.05.428-.3.66 1.26 1.5 2.25s2.58 2.91 5.25 3.097c2.137.15 2.782-.195 2.782-.195" stroke="#FFF" stroke-width=".555" stroke-linecap="round" stroke-linejoin="round"/><ellipse stroke="#0F0606" stroke-width=".555" stroke-linecap="round" stroke-linejoin="round" cx="61.928" cy="25.815" rx="4.867" ry="4.777"/><ellipse stroke="#0F0606" stroke-width=".555" stroke-linecap="round" stroke-linejoin="round" cx="47.43" cy="26.438" rx="4.867" ry="4.777"/><path d="M52.297 26.25s2.843-.81 4.763-.06m-14.655-.038a2.888 2.888 0 0 0-1.905-.585 2.108 2.108 0 0 0-1.845 2.003 6 6 0 0 0 1.867 4.867c1.83 1.628 2.453 1.846 2.603 2.843.15.998.885 3.75 2.325 4.987 1.44 1.238 2.438 1.583 2.467 2.25.03.668-.472 11.693-.472 11.693" stroke="#0F0606" stroke-width=".555" stroke-linecap="round" stroke-linejoin="round"/><path d="M53.07 43.987s3.06.555 5.347-.63a16.59 16.59 0 0 0 4.245-3.472 1.223 1.223 0 0 0-.412 1.117l.983 9.375a40.643 40.643 0 0 0-5.566-3.472c-3.3-1.733-3.855-2.212-4.597-2.918z" fill="#0F0606" fill-rule="nonzero"/><path d="M52.59 43.807s.48.48 2.955.3c2.797-.21 5.25-2.04 6.96-4.012M40.56 30a7.005 7.005 0 0 0 2.287 2.468" stroke="#0F0606" stroke-width=".555" stroke-linecap="round" stroke-linejoin="round"/><path d="M62.775 9.637s1.402 4.058 5.572 4.388M57.578 7.68s-1.995 7.38-9.188 9.75c-7.193 2.37-11.445-2.25-11.445-2.25M51.525 4.8a14.19 14.19 0 0 1-9.51 5.25M31.14 64.868a11.033 11.033 0 0 1 .6-5.745c1.185-2.588 3.473-4.283 4.582-6.495 1.11-2.213.48-5.745-.705-8.483-1.184-2.738-1.807-6.555-1.177-8.895a19.605 19.605 0 0 1 4.223-7.185m3.9 24.818A6.652 6.652 0 0 1 42 47.385c.945-3.247 2.655-6 2.737-7.935m19.328-1.628c.088 1.603.45 3.178 1.073 4.658.862 1.77 1.612 2.617 1.657 5.423.045 2.805 0 4.724 0 4.724m3.067-27.772A28.5 28.5 0 0 0 69 19.117M75.547 61.5a32.445 32.445 0 0 1-1.657-4.8c-.593-2.4-.075-7.268.585-9.893.66-2.625.338-4.057-1.402-5.902a14.685 14.685 0 0 1-3.15-5.903c-.353-1.402 0-5.94 0-5.94" stroke="#FFF" stroke-width=".555" stroke-linecap="round" stroke-linejoin="round"/><path d="M47.468 54.21s4.882 4.837 7.237 4.837c2.355 0 7.92-5.647 8.775-6.42a18.69 18.69 0 0 1-5.317 5.753c-2.775 1.995-3.458 2.07-3.458 2.07a20.122 20.122 0 0 1-7.237-6.24z" fill="#0F0606" fill-rule="nonzero"/><path d="M55.14 110.782S48.39 91.599 46.8 86.58c-1.59-5.017-4.05-16.905-4.237-20.153-.188-3.247.255-6.57 1.657-9.15a8.362 8.362 0 0 1 3.21-3.472" stroke="#0F0606" stroke-width=".555" stroke-linecap="round" stroke-linejoin="round"/><path d="M63.48 51.443s2.25 1.552 2.902 3.18c.653 1.627 1.185 3.127 1.17 6.877a94.118 94.118 0 0 1-2.107 16.125c-1.005 4.132-6.097 21.255-7.35 24.578a77.918 77.918 0 0 0-3.39 11.07c-.525 2.88-.675 10.41-.892 17.197-.218 6.787.442 18.375.517 24.795.075 6.42.75 36.983.75 36.983s-19.335 1.252-30.555 0c0 0 .885-26.423 1.553-34.838.667-8.415 3.322-25.387 4.425-30.705a60.908 60.908 0 0 0 1.327-16.972 45.652 45.652 0 0 0-2.58-11.423s-3.262 15.69-4.005 21.405c-.742 5.715-2.137 16.387-2.745 27.382a684.861 684.861 0 0 1-1.418 20.153s-7.83 1.62-12.697.885c0 0-.262-17.813.848-30.51 1.11-12.698 2.804-23.468 3.397-26.865.592-3.398 2.52-14.625 3.87-22.26 1.92-10.927 4.942-16.41 5.61-17.37.668-.96 4.328-2.73 6.248-4.207 1.92-1.478 5.534-4.058 5.534-4.058" stroke="#0F0606" stroke-width=".555" stroke-linecap="round" stroke-linejoin="round"/><path d="M47.617 50.782a64.755 64.755 0 0 0-8.954 6.863c-3.968 3.75-4.5 4.057-4.628 4.65-.15 4.64.116 9.283.795 13.875a69.51 69.51 0 0 0 3.142 10.995l4.553-1.028-3.18 3.615s3.915 9.226 6.75 14.61c2.835 5.386 7.065 12.976 7.995 16.418" stroke="#0F0606" stroke-width=".555" stroke-linecap="round" stroke-linejoin="round"/><path d="M35.58 82.043a.638.638 0 0 1-.637-.616c-.443-9.87.36-16.68 2.452-20.827 3-5.873 5.542-8.25 9-10.365a2.73 2.73 0 0 1 1.29-.472c-.18.892 0 1.11-.705 1.62-.427.314-.9.57-1.327.877a18 18 0 0 0-2.453 2.07 26.527 26.527 0 0 0-4.65 6.855c-1.987 3.938-2.745 10.545-2.317 20.19a.652.652 0 0 1-.653.668zm39.172-4.246v.128a4.095 4.095 0 0 0-.802-.075h-.472v-.075a51.63 51.63 0 0 0-2.768-15c-.967-2.85-2.04-5.805-3.825-8.25a12.652 12.652 0 0 0-2.138-2.25 13.155 13.155 0 0 1-1.207-.885 1.912 1.912 0 0 1-.322-1.688c4.904 2.355 7.08 7.838 8.7 12.668a51.855 51.855 0 0 1 2.834 15.428z" fill="#0F0606" fill-rule="nonzero"/><path d="M46.8 99.052s-1.5-9.165-2.752-12.405c-1.5-4.057-4.553-5.602-7.98-5.25-3.083.33-6.315 1.253-7.575 5.31-.983 3.188-.053 11.536.442 14.738" stroke="#0F0606" stroke-width=".555" stroke-linecap="round" stroke-linejoin="round"/><path d="M78.052 81.945a4.103 4.103 0 1 1-4.552-4.072h.472a4.088 4.088 0 0 1 4.11 4.094l-.03-.022z" stroke="#0F0606" stroke-width=".5" fill="#8C8C8C" fill-rule="nonzero" stroke-linecap="round" stroke-linejoin="round"/><circle stroke="#0F0606" stroke-width=".5" fill="#FFF" fill-rule="nonzero" stroke-linecap="round" stroke-linejoin="round" cx="73.95" cy="81.945" r="1.688"/><path d="M46.8 98.168s.788 4.777 1.245 7.177c.495 2.67 1.245 3.983-.645 4.77a8.25 8.25 0 0 1-2.25.675" stroke="#0F0606" stroke-width=".555" stroke-linecap="round" stroke-linejoin="round"/><circle fill="#0F0606" fill-rule="nonzero" cx="44.407" cy="110.978" r="1"/><path d="M28.86 100.92s.75 4.785 1.102 7.207c.368 2.693.076 4.17 2.116 4.32a7.95 7.95 0 0 0 2.362-.082" stroke="#0F0606" stroke-width=".555" stroke-linecap="round" stroke-linejoin="round"/><circle fill="#0F0606" fill-rule="nonzero" cx="35.19" cy="112.32" r="1"/><path d="M29.573 99.27s1.244 3.75 3.277 4.95c2.032 1.2 3.135 1.365 3.097 1.845-.037.48-1.5.368-2.617.255a4.207 4.207 0 0 1-2.077-.697s-1.335-5.393-1.68-6.353zM66.135 105c0-.48 1.5-.142 3.382-.218 1.883-.075 4.5-1.207 4.688-.75.188.458-1.373 1.5-3.36 1.913-1.987.413-4.785.263-4.71-.945z" fill="#0F0606" fill-rule="nonzero"/><path d="M74.085 77.835c.308-2.07.57-4.29.668-6.352.322-6.48.165-10.403.165-10.403s-6.368-7.665-8.536-9.09m-12.435 74.07s1.748-4.793 4.365-10.553c2.618-5.76 4.95-9.937 7.133-14.587s5.64-12.24 5.64-12.24l-2.767-4.463 4.275 1.598" stroke="#0F0606" stroke-width=".555" stroke-linecap="round" stroke-linejoin="round"/><path d="M74.955 61.5s4.838 2.805 7.275 4.02c2.438 1.215 2.947 1.328 3.54 2.955.593 1.628 4.282 10.77 5.348 14.205 1.065 3.435 3.165 11.895 4.132 15.57.968 3.675 4.38 12.353 4.38 18.795 0 6.442-4.725 15.307-6.75 19.14-2.025 3.833-9.082 17.565-9.082 17.565l-10.673-9.285S80.895 129 82.5 126.06a63.51 63.51 0 0 0 3.915-9.15" stroke="#0F0606" stroke-width=".555" stroke-linecap="round" stroke-linejoin="round"/><path d="M87 119.618s-2.017-9.323-3.885-14.483c-1.867-5.16-4.68-12.825-4.68-12.825s.12 4.5-.383 6.54c-.502 2.04-1.68 3.593-1.777 5.76-.098 2.168.27 15.698.885 19.98.443 3.105 1.02 7.762 1.35 9.21" stroke="#0F0606" stroke-width=".555" stroke-linecap="round" stroke-linejoin="round"/><circle stroke="#0F0606" stroke-width=".5" fill="#FF7022" fill-rule="nonzero" stroke-linecap="round" stroke-linejoin="round" cx="56.678" cy="127.575" r="1"/><circle stroke="#0F0606" stroke-width=".5" fill="#FF7022" fill-rule="nonzero" stroke-linecap="round" stroke-linejoin="round" cx="57.383" cy="140.085" r="1"/><circle stroke="#0F0606" stroke-width=".5" fill="#FF7022" fill-rule="nonzero" stroke-linecap="round" stroke-linejoin="round" cx="57.998" cy="152.602" r="1"/><path d="M72.435 146.58l-.75 1.132s3.308 3.398 4.56 4.425c1.252 1.028 3.307 2.663 3.307 2.663l.75-.833-7.867-7.387z" fill="#0F0606" fill-rule="nonzero"/><path d="M26.168 156.218s9.81.315 14.527-.503l.555 18.322-2.167 4.823s-10.605 1.08-14.085.292" stroke="#0F0606" stroke-width=".555" stroke-linecap="round" stroke-linejoin="round"/><path d="M25.837 160.755s10.11.398 15-.54l-.135-4.5s-6.944.57-9.54.555c-2.595-.015-4.987-.053-4.987-.053l-.338 4.538z" stroke="#0F0606" stroke-width=".5" fill="#030101" fill-rule="nonzero" stroke-linecap="round" stroke-linejoin="round"/><path d="M36.465 155.34c.495 0 .645.885.787 3.292.143 2.408.3 3.353-.39 3.45-.69.098-.69-1.874-.75-3.75-.06-1.874-.285-2.992.353-2.992z" fill="#FF7022" fill-rule="nonzero"/><path d="M20.573 167.37v1.748a51.562 51.562 0 0 1-11.708.81v-1.65a27.39 27.39 0 0 0 5.85-.098c3.285-.39 5.858-.81 5.858-.81z" stroke="#0F0606" stroke-width=".5" fill="#FF7022" fill-rule="nonzero" stroke-linecap="round" stroke-linejoin="round"/><path d="M19.087 169.373l.6 2.01s-5.31.442-8.362-.496v-.885a64.582 64.582 0 0 0 7.762-.63z" fill="#0F0606" fill-rule="nonzero"/><path d="M71.19 155.167c3.547-.112 7.65-.285 9.892-.51 0 0 .848 6.75 1.193 9.75.345 3 1.972 18.503 2.115 24.698 0 0-20.34 1.778-29.362 1.5" stroke="#0F0606" stroke-width=".555" stroke-linecap="round" stroke-linejoin="round"/><path d="M66.75 155.295l-2.063.045s-.187 8.662 0 12.547c.188 3.886 0 7.5 0 7.5l3.488 3.053s10.965.502 15.472-.488M19.5 190.643c-.712-1.763-2.617-5.25-3-6.856" stroke="#0F0606" stroke-width=".555" stroke-linecap="round" stroke-linejoin="round"/><path d="M29.332 192.645l.21 1.327s16.125-.202 21.098-.255c4.972-.052 25.838 0 28.785-.322l.142-3.915c-.835.016-1.669.079-2.497.188-6.705.704-20.88.922-22.042.952v1.65s-19.568.593-22.193.502l-3.503-.127zm12.015 101.992s-1.14 2.678-.352 4.5a1.5 1.5 0 0 0 2.115.69 8.572 8.572 0 0 0 2.017-1.327c-.266.16-.558.277-.862.345a6.683 6.683 0 0 1-.84.24 2.693 2.693 0 0 1-1.38-.037c-.375-.143-.525-.75-.6-1.08a7.14 7.14 0 0 1-.09-1.328l-.008-2.002z" fill="#0F0606" fill-rule="nonzero"/><path d="M41.438 293.16s-1.306 3.127-2.25 5.902a48.345 48.345 0 0 0-1.823 5.955c-.293 1.673-.593 2.656.097 3.195.69.54 3.84.593 4.628 0a67.86 67.86 0 0 0 5.505-4.92c.788-.93 1.087-.952 1.185-2.024.097-1.073.097-2.453.54-2.798.443-.345.15 1.642.443 1.657.292.015 1.132.315 1.23-1.065.097-1.38.15-5.752 0-8.07-.15-2.317-.488-4.327-1.823-5.752.19 1.648.067 3.317-.36 4.92a21.75 21.75 0 0 1-3.99 8.527c-1.208 1.5-2.873 1.418-3.502.818-.36-.345-1.02-1.103-.533-3 .255-.916.46-1.845.615-2.782l.038-.563z" stroke="#0F0606" stroke-width=".5" fill="#8C8C8C" fill-rule="nonzero" stroke-linecap="round" stroke-linejoin="round"/><path d="M40.208 301.38a6.322 6.322 0 0 1 2.46.24m-2.858 1.065a6.39 6.39 0 0 1 2.46.248" stroke="#0F0606" stroke-width=".555" stroke-linecap="round" stroke-linejoin="round"/><path d="M37.08 307.38c-.045-.113-.218 1.425.615 1.673a12.3 12.3 0 0 0 4.035 0c1.185-.195 4.628-3.593 5.61-4.5a4.065 4.065 0 0 0 1.447-3s0 .81-1.71 2.392c-1.71 1.582-4.395 4.103-4.95 4.335a6.255 6.255 0 0 1-2.91.405c-1.094-.218-1.672.022-2.137-1.305zm14.047-7.868c.128.4.004.838-.315 1.11-.54.443-1.965.263-1.965.263a5.738 5.738 0 0 1 .316-2.115c.345-.592.412-.547.442 0 .03.548.195 1.358.195 1.358s1.2.18 1.328-.615zm17.55-4.875s1.148 2.678.36 4.5a1.5 1.5 0 0 1-2.115.69 8.572 8.572 0 0 1-2.017-1.327c.266.163.557.28.862.345.272.1.55.18.833.24.455.108.931.095 1.38-.037.382-.143.532-.75.6-1.08a6.57 6.57 0 0 0 .097-1.328v-2.002z" fill="#0F0606" fill-rule="nonzero"/><path d="M68.588 293.16s1.305 3.127 2.25 5.902a49.695 49.695 0 0 1 1.822 5.955c.293 1.673.585 2.656-.105 3.195-.69.54-3.833.593-4.62 0a69.21 69.21 0 0 1-5.513-4.92c-.75-.93-1.08-.952-1.184-2.024-.105-1.073-.098-2.453-.54-2.798-.443-.345-.143 1.642-.443 1.657-.3.015-1.133.315-1.23-1.065-.097-1.38-.142-5.752 0-8.07.142-2.317.495-4.327 1.822-5.752a13.17 13.17 0 0 0 .368 4.92 21.51 21.51 0 0 0 3.99 8.527c1.2 1.5 2.873 1.418 3.502.818.36-.345 1.02-1.103.526-3a24.54 24.54 0 0 1-.608-2.782l-.037-.563z" stroke="#0F0606" stroke-width=".5" fill="#8C8C8C" fill-rule="nonzero" stroke-linecap="round" stroke-linejoin="round"/><path d="M69.825 301.38a6.315 6.315 0 0 0-2.46.24m2.85 1.065a6.39 6.39 0 0 0-2.46.248" stroke="#0F0606" stroke-width=".555" stroke-linecap="round" stroke-linejoin="round"/><path d="M72.953 307.38c0-.113.217 1.425-.623 1.673-1.336.222-2.7.222-4.035 0-1.177-.195-4.62-3.593-5.61-4.5a4.065 4.065 0 0 1-1.448-3s0 .81 1.71 2.392c1.71 1.582 4.395 4.103 4.958 4.335a6.21 6.21 0 0 0 2.903.405c1.102-.218 1.68.022 2.144-1.305zm-14.048-7.868c-.13.399-.009.836.307 1.11.54.443 1.965.263 1.965.263a5.685 5.685 0 0 0-.307-2.115c-.345-.592-.412-.547-.45 0-.04.456-.105.909-.195 1.358 0 0-1.208.18-1.32-.615zm-.75-87.135s9.66 1.305 15.75.75l.225-3.082a32.062 32.062 0 0 1-6.547.57c-4.29 0-9.54.232-9.54.232l.112 1.53zM36 212.64s9.615 1.545 15.862 1.178l.128-2.94s-3.218.45-8.46.607c-5.242.157-7.635.195-7.635.195l.105.96z" fill="#0F0606" fill-rule="nonzero"/><path d="M63.48 52.627a14.843 14.843 0 0 1-3.69 4.448 50.782 50.782 0 0 1-5.085 3.375 45.683 45.683 0 0 1 2.355 5.168c.81 2.287 1.5 5.385 2.032 5.684.533.3 1.71-3.397 4.156-7.012 2.444-3.615 4.117-6.143 4.117-6.143a10.365 10.365 0 0 0-1.177-3.937 13.253 13.253 0 0 0-2.656-2.805l-.052 1.222zm-16.05 1.178s1.598 3.473 7.275 6.645a32.362 32.362 0 0 0-2.813 7.05c-.667 3.097-.585 4.35-.81 4.793-.224.442-2.692-2.948-4.5-5.536-1.807-2.587-3.75-5.197-3.75-5.197a14.07 14.07 0 0 1 1.905-5.138c1.643-2.7 2.693-2.617 2.693-2.617z" stroke="#0F0606" stroke-width=".5" fill="#FF7022" fill-rule="nonzero" stroke-linecap="round" stroke-linejoin="round"/><path d="M58.365 101.46l-.45-32.962a38.107 38.107 0 0 0-3.21-8.048s-2.25 4.5-2.633 6.293c0 0 .488 21.09.706 25.072.217 3.983.45 13.5.45 13.5l1.912 5.438 3.225-9.293zm0 0s5.01-15.21 6.39-21.21 3.18-16.583 2.61-22.11c0 0-2.79 3.975-4.117 6.142-1.328 2.168-3.653 6.6-3.653 6.6s-.517.998-1.095-.697l-.585-1.695.45 32.97z" stroke="#0F0606" stroke-width=".5" fill="#FF7022" fill-rule="nonzero" stroke-linecap="round" stroke-linejoin="round"/><path d="M42.847 61.5s1.89 2.55 3.443 4.763c1.553 2.212 2.925 3.967 3.84 5.204.915 1.238.953.878 1.23-.907.278-1.785.75-3.84.75-3.84l1.14 38.625s-5.542-14.46-7.905-25.095c-2.362-10.635-2.767-11.52-2.782-13.83a35.633 35.633 0 0 1 .284-4.92zm40.508 91.875l-1.275 2.213-9.645-9.008 1.005-1.838z" stroke="#0F0606" stroke-width=".5" fill="#FF7022" fill-rule="nonzero" stroke-linecap="round" stroke-linejoin="round"/><path d="M66.915 31.372c-.653 0-1.073 4.793.405 5.61 1.478.818 1.845-1.26 1.103-2.804a36.603 36.603 0 0 0-1.508-2.805zm-25.5.773c.653 0 1.072 4.8-.405 5.61-1.477.81-1.845-1.253-1.102-2.805a34.75 34.75 0 0 1 1.507-2.805z" fill="#FF7022" fill-rule="nonzero"/><path d="M36.547 313.77h47.25M0 308.865h52.935m19.733-3.728h23.07" stroke="#030101" stroke-width=".5"/></g><g transform="translate(204.125 167.5)"><path d="M75.33 178.102h47.243m-32.791-10.155h52.936m-28.268-5.227h23.07" stroke="#030101" stroke-width=".5"/><path d="M79.688 97.155c.322.127-2.67 13.957-3.218 19.665-.547 5.708-.33 5.925 0 8.123a20.707 20.707 0 0 1-.338 7.784c-.652 2.085-.555 7.133 0 12.75.555 5.618 1.763 13.058 2.423 17.25a68.82 68.82 0 0 0 2.632 10.425c.548 1.538.75 1.208 2.25 2.138 1.5.93 2.356 2.528.383 2.58-1.972.053-4.282.66-5.16-.548-.877-1.207-2.302-4.882-3.945-5.595-1.642-.712-3.788-1.432-3.623-3.75.165-2.317 1.59-4.447 1.26-5.872-.33-1.425-3-8.887-4.5-12.457-1.5-3.57-3.18-9-2.91-13.823.295-4.89.132-9.796-.487-14.655-.66-5.317-1.117-15.63-1.102-19.695 0-4.822 1.102-14.512 1.042-14.047 0-.075 13.282 8.947 15.293 9.727z" stroke="#030101" stroke-width=".502" fill="#FFF" fill-rule="nonzero" stroke-linecap="round" stroke-linejoin="round"/><path d="M64.252 88.778c2.543 2.902 6.18 4.777 13.696 8.017 7.515 3.24 17.01 2.138 22.717-.278 5.707-2.414 9.435-8.122 10.807-10.147 1.373-2.025 3.128-6.863 3-13.005.03-4.228-1.74-8.27-4.867-11.115-1.973-1.98-4.058-4.612-4.058-4.612-2.362.442-5.812-.713-7.5-1.298a5.678 5.678 0 0 0-3.367 0c.553.88 1.199 1.697 1.927 2.438 1.673 1.897 2.25 2.902 2.453 6 .203 3.097-1.11 6.367-3.795 6.817-2.685.45-4.118-2.475-4.118-2.475s1.358 3.082 2.25 4.62c.893 1.538.99 4.718-.66 6s-4.004.218-5.924-1.207c-1.92-1.425-3.675-3.75-7.246-4.335a22.5 22.5 0 0 0-5.677-.278c.195.93 1.897 2.415 3.21 5.325s1.155 5.595-1.972 8.063c-3.128 2.467-10.703 0-10.703 0l-.172 1.47z" fill="#FFF" fill-rule="nonzero"/><path d="M89.385 50.775a48.278 48.278 0 0 0-7.103 5.348c-3.292 2.94-4.41 1.567-6.584 1.11-2.333-.495-3.593-.66-6.578.907-2.985 1.568-4.193 1.11-4.193 1.11-.345-2.602 1.995-5.055 1.5-5.715-.495-.66-1.732.083-3.075 2.535-1.342 2.453-3.352 4.208-3.262 2.483.09-1.725-.165-4.365 1.5-7.575s3.953-4.605 6-6.503a6.323 6.323 0 0 0 1.545-2.7s-.083-3.675 1.545-6c.795-1.148 3.157-1.5 3.495-2.25.413-.915.57-3 2.55-2.542 1.98.457 2.797-.818 3.945-2.813 1.147-1.995 2.31-2.783 5.19-2.468 2.88.315 4.62 2.888 7.695 2.903.885-.473 1.725-.547 2.34.405.907 1.402.083 3.172 1.98 3.435 1.897.263 2.963 1.178 3.127 2.49a19.56 19.56 0 0 1 0 3.262c-.277 1.853-2.152 10.275-9.42 12.053-.802.195-1.5.135-2.204.352" stroke="#0F0606" stroke-width=".675" fill="#FF7022" fill-rule="nonzero"/><path d="M71.655 15.953c.57-.525 1.215-1.215 1.358-1.35.6-.608 5.25-5.925 8.062-7.793 2.813-1.867 4.942-1.867 5.325-1.372.382.495-.878 1.867-2.25 3-1.373 1.132-3.84 4.612-4.223 6.42-.382 1.807.383 4.334-.555 5.377-.937 1.043-4.057 1.703-5.25 2.085-1.192.383-2.684 1.92-4.77 4.23a49.35 49.35 0 0 0-4.41 5.872 858.656 858.656 0 0 0-3.48 5.49c-1.042 1.808-2.1 3.75-3.307 5.918-1.703 3-5.377 5.708-6.525 6.855-1.148 1.148-.33 1.98.547 3.292a20.04 20.04 0 0 0 3.84 4.336c2.138 1.92 6.203 6 9.75 9.112 3.548 3.112 7.38 5.752 8.145 6.525a46.312 46.312 0 0 1 3.27 5.58c1.83 3.57.368 6.653-3 8.355-3.367 1.703-9.75-.547-9.75-.547a32.033 32.033 0 0 0-4.717-4.77c-3.165-2.618-8.378-9.068-12-13.208-3.623-4.14-8.393-11.197-9.218-13.005-.825-1.807-.877-4.83.383-6.472 1.26-1.643 6-7.028 8.453-9.33 1.822-1.74 4.8-4.5 7.425-7.035a35.94 35.94 0 0 1 4.005-4.058 94.537 94.537 0 0 0 6.622-6.96 46.97 46.97 0 0 1 1.44-1.575s3.375-3.615 4.83-4.973z" stroke="#030101" stroke-width=".502" fill="#FFF" fill-rule="nonzero" stroke-linecap="round" stroke-linejoin="round"/><path d="M71.31 14.002c.405-.854 1.373.203 2.52.848 1.5.84 1.695 2.61 1.035 2.25-.66-.36-4.207-1.71-3.555-3.098zm41.378 52.201c-.75-3.45-.503-10.448-.42-16.95a73.5 73.5 0 0 0-1.395-16.816c-1.238-5.557-2.55-8.002-4.2-9.067-1.65-1.065-9.796-3.983-14.633-4.988C84 16.71 79.815 16.74 79.815 16.74s.465 2.453-.442 3.51c0 0 5.737.938 8.947 2.25 3.21 1.313 12.84 5.625 13.748 6.532.907.908 1.147 4.2 1.395 6.503.337 3.158 1.56 6.87 1.695 11.145.135 4.275.15 11.617.15 11.617s5.744 5.543 7.38 7.89" stroke="#030101" stroke-width=".502" fill="#FFF" fill-rule="nonzero" stroke-linecap="round" stroke-linejoin="round"/><path d="M77.498 39.915c.133-.114.256-.24.367-.375.99-1.237-.045-3.375 1.95-4.5 1.995-1.125 3 0 3.81-1.972.81-1.973 2.475-3.66 4.612-3 2.138.66 2.76.472 4.058-.556.39-.325.81-.613 1.252-.862M65.948 53.31a7.162 7.162 0 0 1 2.482-3.57c1.695-1.193 4.035-2.663 5.25-5.198m3.232 4.208a1.31 1.31 0 0 0-.09.623c.06 2.055.083 3.697-1.124 4.77a5.625 5.625 0 0 0-1.5 2.85M90.57 34.222a2.437 2.437 0 0 0-2.827-.705c-1.643.75-.66 2.4-1.973 3.308-1.313.907-2.55.112-3.375 1.703-.675 1.297-.248 3.397-.75 5.152" stroke="#030101" stroke-width=".502" stroke-linecap="round" stroke-linejoin="round"/><path d="M95.325 57c1.288.224 2.562.52 3.817.885a19.23 19.23 0 0 1 7.943 5.047 19.432 19.432 0 0 1 4.058 6.69c1.154 3 .33 9.113 2.407 11.716 0 0 1.853-7.193.383-11.858-1.47-4.665-2.933-5.663-4.92-7.875-1.988-2.212-3.466-3.997-3.466-3.997a7.32 7.32 0 0 1-2.527 0 26.872 26.872 0 0 1-5.197-1.358 4.013 4.013 0 0 0-3.158.06l.66.69z" fill="#FF7022" fill-rule="nonzero"/><path d="M112.35 84.75a16.028 16.028 0 0 1-3-8.64c-.112-4.38-.63-6-2.032-8.317a16.875 16.875 0 0 0-6.135-6.21 15.502 15.502 0 0 0-3.368-1.5l-1.395-1.875a19.207 19.207 0 0 1 5.528 2.167 18.285 18.285 0 0 1 6.6 6.69c1.65 2.737 2.13 4.68 2.25 9a14.805 14.805 0 0 0 2.212 7.103l-.66 1.582z" fill="#030101" fill-rule="nonzero"/><path d="M111.472 86.37a14.25 14.25 0 0 1-3.292-6.803c-.698-4.912-.653-8.752-2.633-11.632-2.632-3.847-3.87-4.17-6.704-5.708M83.67 75.998s.795 1.26.51 5.002c-.248 3.233-.855 6.593.802 9.81 1.868 3.623 4.216 7.132 6.75 7.793" stroke="#030101" stroke-width=".502" stroke-linecap="round" stroke-linejoin="round"/><path d="M87 98.805a18.607 18.607 0 0 1-5.737-9.113 16.815 16.815 0 0 1-.36-5.79c.12-1.68.12-3.367 0-5.047a10.66 10.66 0 0 0-1.126-4.5c-.165-.278 1.793.472 1.793.472a15.54 15.54 0 0 1 .75 3.93 36.75 36.75 0 0 1 0 5.25 15.75 15.75 0 0 0 .308 5.318c.907 3.157 2.377 6 6.51 9.502-.713.034-1.427.026-2.138-.022z" fill="#030101" fill-rule="nonzero"/><path d="M84.983 98.603s-3.578-2.903-4.62-6.638c-1.096-3.953-.75-6.255-.826-9.75-.075-3.495.66-3.623-1.365-8.138l-4.312-.097a30.293 30.293 0 0 1 1.68 2.632c1.177 1.966 2.572 4.283 2.25 6.586-.323 2.302-2.797 5.025-5.13 5.137-2.332.113-6.06-.09-8.25-.967l-.142 1.425a16.32 16.32 0 0 0 4.35 3.51c2.632 1.447 8.947 5.145 16.365 6.3z" fill="#FF7022" fill-rule="nonzero"/><path d="M73.282 16.343c.57.285 2.423 1.5 2.056 2.062-.368.563-1.066.465-2.483-.457-1.418-.923-3-1.958-2.61-2.738.525-1.065 1.358-.068 1.358-.068.523.449 1.086.85 1.68 1.2z" stroke="#030101" stroke-width=".502" fill="#FFF" fill-rule="nonzero" stroke-linecap="round" stroke-linejoin="round"/><path d="M73.86 18.51c.84.525 1.56 1.252 1.088 1.695-.473.443-2.123-.51-3.383-1.342-1.26-.833-3.315-1.613-2.655-2.528.465-.683 1.5-.315 1.5-.315.544.536 1.136 1.02 1.77 1.448a14.16 14.16 0 0 0 1.68 1.042z" stroke="#030101" stroke-width=".502" fill="#FFF" fill-rule="nonzero" stroke-linecap="round" stroke-linejoin="round"/><path d="M72.953 19.703c.96.517-.083 1.274-1.898.48-1.815-.796-3.863-1.433-3.39-2.423.472-.99 2.175.075 2.175.075s2.843 1.732 3.112 1.867zm32.594 37.912a52.702 52.702 0 0 1-2.197-5.115c-.832-2.4-1.282-3.892-1.282-3.892l.105-.173c.284-.203.57-.413.847-.653a4.132 4.132 0 0 0 1.043-5.25c-.66-1.094-1.973-2.204-1.973-2.812 0-.608.608-1.095-.6-1.373-1.207-.277-2.25-1.5-3.075-3-.825-1.5-3.518-3.622-4.418-3.622a1.567 1.567 0 0 0-1.672 1.8c.112 1.223-1.425.563-2.303.75-.877.188-.96 1.313-.675 2.685.285 1.373-.097 3-1.244 2.797-1.148-.202-2.798-.052-2.798 1.35 0 1.403 1.62 2.64 2.055 3.24.435.6-1.642.225-2.19.75a1.5 1.5 0 0 0-.27 1.403 2.4 2.4 0 0 0 1.785 1.56c.86.159 1.742.159 2.602 0 .818-.293.405-.383 1.83 1.5s2.903 3.563 4.058 6.585a3.51 3.51 0 0 1 2.25-.113c1.343.383 4.455 2.228 8.123 1.583z" stroke="#030101" stroke-width=".502" fill="#FFF" fill-rule="nonzero" stroke-linecap="round" stroke-linejoin="round"/><path d="M97.073 50.25a6.908 6.908 0 0 0 3.232 1.447c2.25.503 3 .75 3 .75l-1.38-3.937a16.282 16.282 0 0 1-4.852 1.74z" fill="#030101" fill-rule="nonzero"/><path d="M86.685 46.8a2.632 2.632 0 0 0 2.34 0m6.908-9.3s-3.173.45-3.638 3.502" stroke="#030101" stroke-width=".502" stroke-linecap="round" stroke-linejoin="round"/><circle fill="#030101" fill-rule="nonzero" cx="95.933" cy="39.915" r="1"/><path d="M95.543 39.593a1.275 1.275 0 0 1-1.268.434m1.05.001a.96.96 0 0 1-.75.487" stroke="#030101" stroke-width=".502" stroke-linecap="round" stroke-linejoin="round"/><path d="M102.832 40.98a5.468 5.468 0 0 1-1.762 1.193c-.75.202-.712.614 0 .45a4.402 4.402 0 0 0 2.168-1.148l-.406-.495z" fill="#030101" fill-rule="nonzero"/><path d="M102.195 39.188s-.135.832-.667 1.087" stroke="#030101" stroke-width=".502" stroke-linecap="round" stroke-linejoin="round"/><path d="M40.237 22.973L24.232.503" stroke="#030101" stroke-width="1.012" stroke-linecap="round" stroke-linejoin="round"/><path d="M43.5 29.858c1.61-.26 3.25-.26 4.86 0 1.935.465 5.25 2.482 7.32 4.17A48.952 48.952 0 0 0 63 38.633c2.677 1.44 7.823 3.704 9.218 4.694 1.394.99 2.1 1.808 3.75 4.073 1.65 2.265 5.025 6.54 6.877 9.547 1.853 3.008 5.183 7.2 6.66 9.668 1.478 2.468 3 4.32 3.75 4.77.75.45 2.948.75 4.568-1.642a9.383 9.383 0 0 0 .622-8.438c-1.125-2.722-4.8-5.895-5.572-6.818a74.49 74.49 0 0 0-7.628-7.627c-2.797-2.415-5.648-5.047-7.238-6.525-1.59-1.477-5.302-3.293-8.25-5.16C66.81 33.308 61.5 31.058 59.46 30c-2.04-1.058-6.21-3.218-7.793-4.207a22.725 22.725 0 0 1-4.334-3.113c-1.425-1.387-2.085-1.058-4.118-1.387-2.033-.33-3.465-1.26-3.945-1.043-.48.218.165 1.785 1.095 2.25.92.39 1.874.691 2.85.9a39.623 39.623 0 0 0-3.96-.15 1.103 1.103 0 0 0-.795 1.5c.196.496.621.866 1.14.99a1.05 1.05 0 0 0 0 1.043c.153.341.481.572.855.6a1.028 1.028 0 0 0 0 1.012c.19.261.45.464.75.585a.923.923 0 0 0 .165.75c.285.315.698.435 2.13.128z" stroke="#030101" stroke-width=".502" fill="#FFF" fill-rule="nonzero" stroke-linecap="round" stroke-linejoin="round"/><path d="M42.885 28.425a16.71 16.71 0 0 1 2.25-.383c.878-.105 1.538-.24 1.65.36.113.6-1.117 1.028-3.3 1.456-1.763.337-2.25.165-2.25-.878 0 0-1.32-.495-.75-1.598a1.162 1.162 0 0 1-.877-1.642s-1.695-.495-1.043-1.98c.33-.75 1.365-.548 2.903-.435 1.537.113 3.674.053 3.952.66.277.608-1.755 1.148-3.892 1.207" stroke="#030101" stroke-width=".502" stroke-linecap="round" stroke-linejoin="round"/><path d="M43.087 25.058s4.44-.825 4.605.217c.166 1.043-3 1.08-5.46 1.373" stroke="#030101" stroke-width=".502" stroke-linecap="round" stroke-linejoin="round"/><path d="M43.928 26.475s3-.405 3.157.33c.157.735-1.215 1.087-2.835 1.358m20.002 60.615c2.543 2.902 6.18 4.777 13.696 8.017 7.515 3.24 17.01 2.138 22.717-.278 5.707-2.414 9.435-8.122 10.807-10.147 1.373-2.025 3.128-6.863 3-13.005.03-4.228-1.74-8.27-4.867-11.115-1.973-1.98-4.058-4.612-4.058-4.612-2.362.442-5.812-.713-7.5-1.298a5.678 5.678 0 0 0-3.367 0c.553.88 1.199 1.697 1.927 2.438 1.673 1.897 2.25 2.902 2.453 6 .203 3.097-1.11 6.367-3.795 6.817-2.685.45-4.118-2.475-4.118-2.475s1.358 3.082 2.25 4.62c.893 1.538.99 4.718-.66 6s-4.004.218-5.924-1.207c-1.92-1.425-3.675-3.75-7.246-4.335a22.5 22.5 0 0 0-5.677-.278c.195.93 1.897 2.415 3.21 5.325s1.155 5.595-1.972 8.063c-3.128 2.467-10.703 0-10.703 0l-.172 1.47z" stroke="#030101" stroke-width=".502" stroke-linecap="round" stroke-linejoin="round"/><path d="M105.36 55.41s5.475 5.138 7.095 8.767l.06 1.62s-1.808-2.392-3.502-4.184a48.285 48.285 0 0 1-3.593-4.365l-.06-1.838zM64.095 91.118s11.055 8.632 14.91 10.05l.668-3.683s-7.118-2.513-10.38-4.778a46.335 46.335 0 0 1-5.04-3.93l-.158 2.34z" fill="#030101" fill-rule="nonzero"/><path d="M103.703 90.698c.3.457 1.8 2.002 1.642 2.565a20.655 20.655 0 0 1-3.885 2.715 42 42 0 0 1-6.195 1.904s-.517-.54-.75-.75c-.353-.33-.698-.652-1.035-1.005-2.835-3-3.825-7.402-3.84-11.43 0-.734.015-1.47.045-2.204 0-.39 0-.75.045-1.178a3.07 3.07 0 0 1 .09-.832c0-.083.698.105.75.112.251.01.503-.007.75-.052a3 3 0 0 0 2.588-2.16c.667-1.935-.106-4.23-1.035-5.956a3.75 3.75 0 0 1-.668-1.567c.338.105.54.487.855.66 1.185.645 2.25.405 3.39-.082.446-.245.85-.562 1.192-.938.144.213.258.446.338.69.135.27.337.502.487.75a9 9 0 0 1 .878 2.138c.352 1.54.54 3.114.563 4.694a23.85 23.85 0 0 0 1.2 6.75 24.69 24.69 0 0 0 2.594 5.175z" fill="#8C8C8C" fill-rule="nonzero"/><path d="M24.233.502A21.87 21.87 0 0 0 18.653 6a47.52 47.52 0 0 0-4.043 6.57A78.975 78.975 0 0 0 9 26.835a78.518 78.518 0 0 0-2.34 30.66c.336 2.53.837 5.035 1.5 7.5a51.3 51.3 0 0 0 2.445 7.185 70.095 70.095 0 0 0 7.5 13.365 81.06 81.06 0 0 0 22.223 21.112 78.135 78.135 0 0 0 13.65 7.05 69.683 69.683 0 0 0 14.707 4.043c5.012.757 10.1.877 15.142.36 2.483-.263 5.1-.713 7.613-1.222a74.423 74.423 0 0 0 7.433-1.913 49.148 49.148 0 0 0 13.5-6.517 39.458 39.458 0 0 0 10.2-10.748 48 48 0 0 0 3.532-6.637 55.747 55.747 0 0 0 2.437-7.178 60.083 60.083 0 0 0 1.403-7.5c.285-2.527.382-11.302.33-13.845l4.957 6c.578 11.108-1.92 22.5-7.927 32.138a45.293 45.293 0 0 1-11.505 12.487 52.732 52.732 0 0 1-15.09 7.5 80.887 80.887 0 0 1-8.04 2.123c-2.715.562-5.347 1.034-8.175 1.35a63.49 63.49 0 0 1-16.74-.346 79.012 79.012 0 0 1-30.75-12 87.195 87.195 0 0 1-23.685-22.89 73.5 73.5 0 0 1-8.003-14.557 56.557 56.557 0 0 1-2.58-7.98 65.37 65.37 0 0 1-1.5-8.205 78.525 78.525 0 0 1-.127-16.5A87 87 0 0 1 4.207 25.5a51.39 51.39 0 0 1 3.046-7.77 47.647 47.647 0 0 1 4.207-7.125 35.048 35.048 0 0 1 5.535-6.203 16.905 16.905 0 0 1 7.238-3.9z" fill="#030101" fill-rule="nonzero"/></g><g transform="translate(797.125 167.875)"><path d="M0 190.928h101.535m-48.622-5.258h22.972m28.56-36.772h40.808m-18.758-6.203h21.067" stroke="#030101" stroke-width=".5"/><path d="M108.75 38.25c3.323.083 17.055 2.25 21 3.54a80.407 80.407 0 0 1 9.292 3.922 25.95 25.95 0 0 1-.24 5.655 12.495 12.495 0 0 1-2.332 5.738s-4.95-1.912-6.113-2.145c-1.162-.233-2.85.233-3.225 2.663-.375 2.43-1.305 11.902-1.77 19.56-.465 7.657-1.447 13.777-1.447 13.777s-6.353 3.405-20.175 2.475c-13.822-.93-15.285-4.935-15.285-4.935s.983-13.305 1.17-17.835c.188-4.53.517-8.25.33-9.75-.188-1.5-1.733-.795-3 .135l-4.5 3.225A26.393 26.393 0 0 1 75 57s2.153-2.01 5.37-5.7a50.887 50.887 0 0 1 10.192-8.55 19.732 19.732 0 0 1 5.738-2.572s9.803-1.995 12.45-1.928zm10.665 88.665c.15.51.236 1.036.255 1.567.045.946.435 4.853.915 7.59.48 2.738.66 4.058 1.32 4.5 1.073.75 1.718.046 2.063-.6a17.063 17.063 0 0 0 1.38-3.472c.51-1.808 3.217-8.205 3.682-10.328.135-.644.315-1.394.48-2.16.373-1.45.624-2.931.75-4.424-.045-1.02-1.935-1.545-3.862-1.59h-1.56c-1.5 0-2.813.105-2.678.33l-.045.052s-2.392.218-4.02.165c-1.627-.052-7.703-.165-7.703-.165l-28.754-1.71a16.845 16.845 0 0 0-.75 4.373c-.046 2.332.937 4.297 2.474 5.047 1.35.653 5.25.697 8.34.667l12.39-.382c3.458-.12 6.66-.248 7.988-.285 3-.097 6.112-.263 6.112-.263a1.337 1.337 0 0 1 1.223 1.088z" fill="#FFF" fill-rule="nonzero"/><path d="M106.62 125.595s-.375 1.028-2.475.188l-10.395-4.11c-1.5-.84-1.582-1.636-1.582-1.636s5.294.48 8.512 1.635c3.217 1.156 5.295 2.266 5.94 3.923z" stroke="#030101" stroke-width=".593" fill="#FFF" fill-rule="nonzero" stroke-linecap="round" stroke-linejoin="round"/><path d="M67.59 168.548s-1.965 1.072-3.413 2.1c-1.447 1.027-6.157 4.342-7.282 5.512s-.653 2.752.517 3.645a9.472 9.472 0 0 0 6.578 1.5c2.895-.375 4.5-2.565 6.262-4.433 1.763-1.867 4.666-3.922 5.318-4.717.653-.795.188-2.43.285-3.412.097-.983.885-1.815 2.19-3.36 1.305-1.546 6-7.14 8.828-10.5 2.827-3.36 6.674-8.588 8.917-11.716 2.242-3.127 3.172-6.165 4.387-9.06a48.33 48.33 0 0 1 3.128-5.88 26.955 26.955 0 0 0 1.74-4.5c-3-2.812-10.748-3.412-10.748-3.412a41.557 41.557 0 0 1-4.342 9.75c-1.358 2.25-4.425 6.06-6.63 9.345-1.5 2.287-5.933 11.393-8.31 17.183a78.637 78.637 0 0 1-5.603 10.83l-1.822 1.125z" fill="#FFF" fill-rule="nonzero"/><path d="M122.13 91.665c-.465 2.872-1.222 4.237-2.152 6.705-.93 2.468-4.5 9.667-6.585 14.055s-6.75 13.17-6.75 13.17c-.323-1.125-2.333-2.707-5.326-3.75-2.992-1.043-9.097-1.823-9.097-1.823s.097-.42.285-1.102h-.052a49.965 49.965 0 0 1-5.138-.42 22.605 22.605 0 0 1-6.352-2.153s2.1-8.212 4.065-14.107c1.965-5.895 4.244-12.75 4.244-12.75s3 2.775 13.26 3.675a65.25 65.25 0 0 0 19.598-1.5z" fill="#FF7022" fill-rule="nonzero"/><path d="M172.86 86.528s.75-1.328 1.957.87c.188 1.147.495 2.895.75 3.922.518 1.965 1.403 2.25 1.98 2.25.214.436.55.801.968 1.05.983.563 1.448.517 1.358 0-.09-.517-.69-2.453-.69-2.453a18.15 18.15 0 0 1-2.25-3.232c-1.14-2.047-1.898-3.713-3.18-3.615-1.283.098-.893 1.208-.893 1.208z" fill="#FFF" fill-rule="nonzero"/><path d="M139.065 46.35s6.308 3.142 9.75 5.19c3.442 2.047 8.588 8.782 11.393 12 2.804 3.217 8.122 10.65 9.427 12.563a13.185 13.185 0 0 0 3.75 3.547c1.358 1.027 3.18 2.25 3.968 3.69.787 1.44 2.474 5.647 3.082 7.095.607 1.447.938 2.332 1.028 2.572.09.24-1.636.18-3.083-1.732-1.447-1.913-2.002-3.623-3-4.793-.998-1.17-1.5-1.417-2.205-.982-.473.308-.42.915 0 1.897.42.983 1.252 3.473.938 4.268-.563 1.402-3.315-2.49-4.155-4.545-.84-2.055-1.26-3.983-2.663-5.88a79.02 79.02 0 0 0-5.182-6c-2.476-2.662-9.106-9-10.883-10.837a24.69 24.69 0 0 0-6.907-5.086c-2.753-1.357-7.275-3-7.275-3s2.64-3.194 2.017-9.967zM107.25 30.142c.255 3.06 2.287 11.085 2.01 12.158-.278 1.073-2.288 3.315-5.415 3.922-3.127.608-5.7-1.125-6-1.867-.3-.742-2.01-6.817-2.01-6.817-2.94 0-4.597-1.028-6.862-5.063a54.75 54.75 0 0 1-3.645-7.455c-.683-2.078-.75-5.168-.3-5.453.45-.285 4.132-1.755 6.127-3.187a40.56 40.56 0 0 0 3.99-3.562c.75-.615 1.95.952 3.75 1.62 1.8.667 4.133 1.14 4.748 2.04a9.135 9.135 0 0 1 1.094 3.614c.188 1.283.33 2.566 1.05 2.663.72.098 1.748-1.635 2.318-1.89a1.59 1.59 0 0 1 2.002 1.223 3.57 3.57 0 0 1-1.042 3.847c-1.328 1.38-2.063.908-1.815 4.207zM40.02 102c.157 1.17-.675 1.823-.908 1.358-.232-.466-.33-1.778-.75-3.556a7.5 7.5 0 0 1 .233-4.5c1.072-2.76 4.313-5.55 4.313-5.55a23.505 23.505 0 0 0-3 4.823c-.893 2.25-.893 2.79-.57 4.5.322 1.71.682 2.925.682 2.925z" stroke="#030101" stroke-width=".593" fill="#FFF" fill-rule="nonzero" stroke-linecap="round" stroke-linejoin="round"/><path d="M75.203 57.24s-3.75 3.75-5.79 5.557c-2.04 1.808-4.253 3.923-6 4.853-1.748.93-3.45 2.662-5.363 4.718-1.912 2.055-4.252 5.88-6.262 8.31a36.75 36.75 0 0 1-5.16 5.572 21.353 21.353 0 0 0-7.238 9.525c-.48 1.26-.142 2.565.09 4.057.119.82.297 1.63.533 2.423 1.5-1.343 1.184-4.305 1.5-5.25.315-.945 2.332-2.25 3.217-3.037.885-.788 1.867-1.35 1.867-.75 0 .6-1.297 1.942-2.377 3.547-.54.795-.75 2.047 0 2.25.84.278 2.58-1.748 4.058-3.877 1.125-1.613 2.76-4.763 3.645-5.79.884-1.028 5.79-6 8.032-7.89 2.242-1.89 5.407-4.883 6.487-5.925 1.306-1.268 2.1-2.716 3.75-3.788 1.65-1.073 12-7.71 12-7.71s-5.092-4.657-6.99-6.795z" stroke="#030101" stroke-width=".593" fill="#FFF" fill-rule="nonzero" stroke-linecap="round" stroke-linejoin="round"/><path d="M85.328 19.5c-.818.262.21 5.648.862 7.98 0 0-2.775-2.707-4.177-4.387-1.403-1.68-2.708-3.458-2.333-4.298.375-.84 1.305 0 1.59-.555.285-.555.188-2.49-.27-2.49-.457 0-4.388 1.215-5.13 0-.743-1.215 1.68-4.95 3.825-5.602 2.145-.653 3-1.778 2.055-1.966-.945-.187-2.797 0-2.618-1.215.18-1.214 2.34-3.824 7.846-4.664 5.505-.84 9.525-.098 10.177.465.653.562 1.403.105 1.965-1.395.563-1.5 4.665-.473 8.31 3.637 3.645 4.11 5.79 8.033 5.04 14.752-.75 6.72-5.25 11.956-5.25 11.956s-.563-3.75.375-4.576c.938-.825 2.43-1.867 2.61-3.75.18-1.882-1.073-3.037-2.1-2.572-1.028.465-1.815 2.572-2.655 1.732-.84-.84-.563-5.25-2.153-6.352-1.59-1.102-3.825-1.26-5.88-2.662-2.055-1.403-2.355-.886-3.577.704-1.222 1.59-6.172 4.508-8.513 5.258z" fill="#030101" fill-rule="nonzero"/><path d="M106.845 26.13a3.232 3.232 0 0 0 1.905-1.77M91.267 25.5s.353 1.043 1.005 2.753c.585 1.544.555 2.527 1.328 2.25.42-.138.815-.344 1.17-.608" stroke="#030101" stroke-width=".593" stroke-linecap="round" stroke-linejoin="round"/><path d="M92.903 32.745a10.597 10.597 0 0 0 5.25-2.437c.427-.353 0 1.042-.436 1.5-.471.5-1.062.87-1.717 1.08a3.615 3.615 0 0 1-2.01.3c-.578.03-1.972-.48-1.087-.443zm9.907 1.958a35.407 35.407 0 0 1-2.25 5.354 15.315 15.315 0 0 1-3 3.533l-1.808-6.248a5.78 5.78 0 0 0 1.74-.127c1.043-.218 3.975-1.215 5.318-2.513zm-9.015-10.875c-.195-.75.405-1.035 1.793-1.5 1.387-.465 3.427-1.38 3.66-.555.232.825-.623 1.335-2.138 1.814-1.515.48-3.06 1.253-3.315.24zm-4.778 1.71c.218.915.046.9-.93 1.552a3.203 3.203 0 0 1-1.807.6l-.57-1.44a15.75 15.75 0 0 0 1.628-.698c1.027-.562 1.59-.412 1.68-.014zm9.113.014a.802.802 0 0 1-1.605 0c0-.442.457-.66.907-.66a.607.607 0 0 1 .698.66zM88.912 29.1a.69.69 0 1 1-1.38 0c0-.383.398-.57.75-.57a.525.525 0 0 1 .63.57z" fill="#030101" fill-rule="nonzero"/><path d="M82.365 49.14a22.808 22.808 0 0 0 6.375 4.898c3.458 1.582 6.63 2.25 15 1.965 8.37-.285 15.083-1.906 18-4.02a13.305 13.305 0 0 0 5.34-10.883" stroke="#030101" stroke-width=".593" stroke-linecap="round" stroke-linejoin="round"/><path d="M81.067 50.453a16.59 16.59 0 0 0 8.138 6.09c6.353 1.957 16.718 1.207 21.615.93 4.898-.278 11.895-3.473 13.545-4.973 2.333-2.1 4.867-5.063 4.605-10.958" stroke="#030101" stroke-width=".593" stroke-linecap="round" stroke-linejoin="round"/><path d="M128.355 55.14c2.633-3.278 3.907-7.245 3.9-12.12 0-.45 1.627.33 1.627.33a18.585 18.585 0 0 1-3.54 11.602l-1.987.188zm-26.032 8.955a58.065 58.065 0 0 1-10.628-.75A13.807 13.807 0 0 1 90 62.858c-.097 0-.18-1.688 0-1.636.675.222 1.364.397 2.063.526 7.252 1.552 27.862.967 32.834-3.323.833-.75 1.628-1.41 2.25-1.935.308-.278 0 2.167 0 2.167l-1.162 1.006c-3.847 3.24-14.782 4.432-23.662 4.432zM86.692 61.23a36.307 36.307 0 0 1-8.61-7.657l1.283-1.013A34.71 34.71 0 0 0 87.84 60a.84.84 0 0 1 .24.218c.195.27-1.282 1.08-1.388 1.012z" fill="#FF7022" fill-rule="nonzero"/><path d="M41.175 100.17s1.058.308 1.2-1.748c.142-2.054.405-2.887 1.2-3.517-.67.573-1.3 1.19-1.89 1.845-.435.547-.51 3.42-.51 3.42z" stroke="#030101" stroke-width=".593" fill="#FFF" fill-rule="nonzero" stroke-linecap="round" stroke-linejoin="round"/><path d="M74.73 57.705l3.915 8.67 3.532-2.205s-4.297-3.435-5.565-5.055c-.33-.42-1.38-1.845-1.38-1.845l-.502.435zm64.935-.427c.735-3.454.827-7.014.27-10.5l-.87-.435a36.105 36.105 0 0 1-.218 4.5 17.737 17.737 0 0 1-1.822 5.407l2.64 1.028z" fill="#030101" fill-rule="nonzero"/><path d="M174.3 85.612a17.183 17.183 0 0 1 1.845 4.208c1.028 3.083 1.395 4.26 2.377 4.815.983.555 1.448.517 1.358 0-.09-.517-.69-2.453-.69-2.453" stroke="#030101" stroke-width=".593" stroke-linecap="round" stroke-linejoin="round"/><path d="M174.645 86.25s.51 3.435.938 5.063c.517 1.965 1.402 2.25 1.98 2.25m-4.703-7.035s.75-1.328 1.957.87m-85.567 2.1s-2.25 6.847-4.245 12.75c-1.995 5.902-4.065 14.107-4.065 14.107a22.605 22.605 0 0 0 6.353 2.152c1.704.229 3.418.369 5.137.42m6.488-18.427c-.09.142-3.128 8.64-4.433 12.09a74.385 74.385 0 0 0-2.25 7.425s6.112.795 9.097 1.823c2.986 1.027 5.003 2.61 5.326 3.75 0 0 4.717-8.783 6.75-13.17 2.032-4.388 5.647-11.58 6.585-14.056.937-2.474 1.687-3.832 2.152-6.704" stroke="#030101" stroke-width=".593" stroke-linecap="round" stroke-linejoin="round"/><path d="M89.01 90.218s9.157 6.937 31.627 6.48a25.725 25.725 0 0 0 1.5-5.033 27.495 27.495 0 0 1-4.192 1.132 53.857 53.857 0 0 1-14.212.63c-6-.42-11.813-1.312-14.476-3.93l-.247.72z" fill="#030101" fill-rule="nonzero"/><path d="M105.045 123.75a26.955 26.955 0 0 1-1.74 4.5 48.33 48.33 0 0 0-3.128 5.88c-1.215 2.895-2.145 5.933-4.387 9.06-2.243 3.127-6.12 8.355-8.918 11.715-2.797 3.36-7.5 9-8.827 10.5-1.328 1.5-2.1 2.385-2.19 3.36-.09.975.367 2.618-.285 3.413-.652.794-3.547 2.85-5.317 4.717-1.77 1.867-3.368 4.057-6.263 4.432a9.472 9.472 0 0 1-6.578-1.5c-1.17-.892-1.634-2.475-.517-3.644 1.117-1.17 5.835-4.5 7.282-5.513 1.448-1.012 3.413-2.1 3.413-2.1s.885.653 2.332 1.545a3.862 3.862 0 0 0 3.75.232c.983-.42 1.59-.607 2.198-1.544" stroke="#030101" stroke-width=".593" stroke-linecap="round" stroke-linejoin="round"/><path d="M67.59 168.548a2.835 2.835 0 0 1 .465-1.726c.51-.517 2.145-.232 3.082.42.938.653 1.628.886 1.77 1.68a1.755 1.755 0 0 1-.607 1.756 4.69 4.69 0 0 1-2.377-.585 100.688 100.688 0 0 1-2.333-1.545z" fill="#030101" fill-rule="nonzero"/><path d="M65.385 169.845s3.233.57 4.027 2.58m-5.849-1.29s3.232.57 4.027 2.58m-5.768-1.29s3.233.57 4.02 2.572" stroke="#030101" stroke-width=".593" stroke-linecap="round" stroke-linejoin="round"/><path d="M56.513 176.692a1.83 1.83 0 0 0-.6 1.755c.33.93.36.698.345 1.26-.016.563-.143.916.42 1.388.562.472.937 0 1.117-.248.18-.247.405 0 1.125.308a8.88 8.88 0 0 1 1.297.465c.255.188-.097 1.192 1.028 1.252 1.125.06.75-.75 1.5-.847.75-.097 2.693-.067 4.185-1.313 1.492-1.244 3.622-3.667 4.747-4.724a36.923 36.923 0 0 1 3.39-2.738 2.1 2.1 0 0 0 .75-1.785s.158.45-1.342 1.688c-1.5 1.237-3.502 2.902-4.282 3.75-.78.847-2.686 3.232-4.193 3.75a8.063 8.063 0 0 1-5.55.472c-3-.6-4.095-2.25-4.17-2.903a2.79 2.79 0 0 1 .233-1.53z" fill="#030101" fill-rule="nonzero"/><path d="M57 180.952s1.26.75 1.5 0m3.322 1.696s1.178.232 1.335-.66m6.255-14.558A78.637 78.637 0 0 0 75 156.6c2.377-5.79 6.75-14.895 8.31-17.183 2.205-3.285 5.25-7.102 6.63-9.345a41.557 41.557 0 0 0 4.343-9.75" stroke="#030101" stroke-width=".593" stroke-linecap="round" stroke-linejoin="round"/><path d="M94.058 121.177s3.922 1.02 6 2.58a18.248 18.248 0 0 1 3.75 3.45 16.687 16.687 0 0 0 1.23-3.45 10.02 10.02 0 0 0-4.335-2.085c-2.88-.697-6.413-1.327-6.413-1.327l-.233.832z" fill="#030101" fill-rule="nonzero"/><path d="M104.145 126.397c3.458-.12 6.66-.247 7.987-.285 3-.097 6.113-.262 6.113-.262m-36.592-9.158a16.845 16.845 0 0 0-.75 4.373c-.046 2.332.937 4.297 2.474 5.047 1.35.653 5.25.698 8.34.668m18.69-8.377s6.068.12 7.703.164c1.635.046 4.02-.164 4.02-.164" stroke="#030101" stroke-width=".593" stroke-linecap="round" stroke-linejoin="round"/><path d="M130.275 119.595a26.783 26.783 0 0 1-.75 4.425c-.165.75-.345 1.5-.48 2.16-.465 2.123-3.172 8.52-3.682 10.327a17.063 17.063 0 0 1-1.38 3.473c-.346.645-.99 1.335-2.063.6-.66-.45-.855-1.748-1.32-4.5-.465-2.753-.87-6.645-.915-7.59a6.322 6.322 0 0 0-.255-1.568 9 9 0 0 0 2.25-3.667c.435-1.89.705-4.597.525-4.897-.18-.3 1.192-.316 2.677-.33h1.56c1.898.022 3.788.547 3.833 1.567z" stroke="#030101" stroke-width=".593" stroke-linecap="round" stroke-linejoin="round"/><path d="M119.422 126.915s-1.98-.105-1.334-1.245c.645-1.14 1.552-1.177 2.73-.532a10.327 10.327 0 0 1-1.395 1.777zm10.853-7.32a26.783 26.783 0 0 1-.75 4.425s-.825.045-2.58-1.328c-1.755-1.372-2.047-4.387-2.077-4.672h1.56c1.912.03 3.802.555 3.847 1.575z" fill="#030101" fill-rule="nonzero"/><path d="M130.275 118.987s.75.653.75 1.08c0 .428 0 .803.398.87.397.068.997.166.75 1.26-.248 1.096-.833.683-1.14.683-.308 0-.578-.105-.855.75-.24.75-.24 1.313.15 1.418.39.105 1.012.3.84 1.102-.173.802-.525.915-1.11.75-.585-.165-.87.45-1.23 1.695s-1.005 2.835-1.216 3.368c-.21.532 0 .667.503.885.502.217.367.75.135 1.304-.232.556-.75.383-1.073.3-.322-.082-.607-.172-.847.6-.24.773-.06.9.48 1.156.54.255.203.75 0 1.274-.203.525-.66.428-1.028.338-.367-.09-.57.368-.697.817-.127.45.218.428.555.6.338.173.278.533.112.946-.164.412-.517.907-1.207.51-.353-.203-.93.644-1.868.18 0 0 .81.225 1.418-1.103.608-1.328 2.317-6.203 2.73-7.275.412-1.072 1.657-4.065 2.032-5.595.375-1.53 1.08-4.575 1.245-5.67.133-.74.19-1.491.173-2.243z" fill="#030101" fill-rule="nonzero"/><path d="M119.715 128.865a3.818 3.818 0 0 1 2.572-1.058m-2.414 2.895a3.825 3.825 0 0 1 2.572-1.05m-2.348 2.896a3.825 3.825 0 0 1 2.573-1.05" stroke="#030101" stroke-width=".593" stroke-linecap="round" stroke-linejoin="round"/><path d="M81.427 117.525a15.57 15.57 0 0 0 6 3c1.698.457 3.477.53 5.205.21l-.404-.75.232-1.117a37.868 37.868 0 0 1-5.137-.42 27.188 27.188 0 0 1-5.64-1.808l-.256.885z" fill="#030101" fill-rule="nonzero"/><ellipse stroke="#030101" stroke-width=".593" fill="#FFF" fill-rule="nonzero" stroke-linecap="round" stroke-linejoin="round" cx="29.475" cy="171.368" rx="15.135" ry="15.54"/><path d="M33.547 158.887l3.968-.69m4.913 5.123v4.208m-8.303-4.943s3.75 2.468 4.972 4.942m-10.589-3.442l-.976 6.938m4.163 4.139l6.435-1.92m-20.377-3.217l4.897 3.825m-3.9-9.435a13.823 13.823 0 0 1 6.052-3.218m2.078-5.144c.419.56.8 1.15 1.14 1.762m12.863 18.93s-1.133 4.755-3.383 6.532m-8.025-2.819s2.76 3.607 3.413 4.38m-12.69-2.715s3.39-2.25 3.877-2.67m-8.7-7.013s-.045 4.5 2.055 7.575" stroke="#0F0606" stroke-width=".593" stroke-linecap="round" stroke-linejoin="round"/><path d="M27.532 157.275s-2.752 2.595-3.075 3.922c0 0 3.136 2.386 4.05 3.218 0 0 4.936-1.275 5.925-1.605a26.745 26.745 0 0 0-.307-3.923 15.525 15.525 0 0 0-6.593-1.612zm11.371 9.9h3.525s1.86 3.382 1.5 6.675c0 0-1.313 2.4-3.12 3.225 0 0-2.303-3.337-2.948-3.75-.015 0 1.065-4.327 1.043-6.15zM27.6 170.572l4.447 4.5-2.317 5.73s-4.785-.442-6-.75a18.75 18.75 0 0 1-1.56-6.562s3.6-2.535 5.43-2.918zM30 186.9l2.7-2.618s4.2-.832 5.475-1.635c.238.315.433.66.578 1.028 0 0-2.303 2.565-8.753 3.225zm-13.448-7.448l.39-.247a16.597 16.597 0 0 0 3.653 2.655 32.58 32.58 0 0 0 2.955 3.81 13.613 13.613 0 0 1-6.998-6.218zm-1.177-6.202s1.5-2.512 2.723-2.947a12.285 12.285 0 0 1 1.057-6.21s-1.148-.885-2.168-1.5a17.543 17.543 0 0 0-2.647 8.782s.39.255 1.035 1.875z" fill="#0F0606" fill-rule="nonzero"/><path d="M43.913 173.85l.45.352" stroke="#0F0606" stroke-width=".593" stroke-linecap="round" stroke-linejoin="round"/><path d="M84.457 148.072a25.575 25.575 0 0 1-4.282-3.157l.623-1.38c1.5 1.5 5.632 4.822 10.297 5.618l-.825 1.29a19.657 19.657 0 0 1-5.813-2.37z" fill="#0F0606" fill-rule="nonzero"/><path d="M79.32 147.18a18.855 18.855 0 0 0 9.435 5.25m-10.072-3.532s2.91 3.614 9 4.995" stroke="#0F0606" stroke-width=".593" stroke-linecap="round" stroke-linejoin="round"/><path d="M108.75 38.25c3.323.083 17.055 2.25 21 3.54a80.407 80.407 0 0 1 9.292 3.922 25.95 25.95 0 0 1-.24 5.655 12.495 12.495 0 0 1-2.332 5.738s-4.95-1.912-6.113-2.145c-1.162-.233-2.85.233-3.225 2.663-.375 2.43-1.305 11.902-1.77 19.56-.465 7.657-1.447 13.777-1.447 13.777s-6.353 3.405-20.175 2.475c-13.822-.93-15.285-4.935-15.285-4.935s.983-13.305 1.17-17.835c.188-4.53.517-8.25.33-9.75-.188-1.5-1.733-.795-3 .135l-4.5 3.225A56.355 56.355 0 0 1 75 57s2.153-2.01 5.37-5.7a50.887 50.887 0 0 1 10.192-8.55 19.732 19.732 0 0 1 5.738-2.572" stroke="#030101" stroke-width=".593" stroke-linecap="round" stroke-linejoin="round"/><path d="M77.85 150.885s2.1 3.053 8.018 4.845l-1.83 2.145s-4.868-1.673-7.245-4.695l1.057-2.295zm29.258-24.833c.576-.995.998-2.072 1.252-3.195 0 0 .51-.825.825-1.5.532-1.132.96-1.754 1.365-2.677h.968c-.083 1.717-.436 4.942-1.838 7.252l-2.573.12zm-16.943-61.11s5.25 1.186 17.295.976c15-.27 18.96-4.898 18.96-4.898l-.578 6.3a52.942 52.942 0 0 1-18 3.458c-6.021.167-12.046-.21-18-1.126l.323-4.71zm-5.625-17.37a15.953 15.953 0 0 0 9.292 5.49c6.256 1.29 11.58.826 18-.802 6.42-1.627 9.946-4.5 10.883-6.3a37.297 37.297 0 0 0 1.89-5.063l-5.49-.982s-.037 4.155-5.91 6.877a29.063 29.063 0 0 1-18.442 1.8c-3.203-.922-6.675-3.794-6.675-3.794s-1.29.914-2.063 1.552l-1.485 1.222z" fill="#8C8C8C" fill-rule="nonzero"/></g></g></svg>