<svg width="51" height="79" viewBox="0 0 51 79" xmlns="http://www.w3.org/2000/svg" xmlns:xlink="http://www.w3.org/1999/xlink"><title>Group 19</title><defs><path id="a" d="M0 78.74h50.752V0H0z"/></defs><g fill="none" fill-rule="evenodd"><path d="M29.215 35.21c4.21-2.034 6.346-5.102 6.346-9.118 0-2.675-1.05-5.1-3.122-7.208-2.074-2.108-4.483-3.177-7.16-3.177-2.674 0-4.995.946-6.897 2.812-1.9 1.864-2.934 4.234-3.074 7.043l-.013.271h1.755l.014-.244c.133-2.332.994-4.292 2.558-5.823 1.561-1.528 3.464-2.303 5.658-2.303 2.258 0 4.265.879 5.963 2.609 1.7 1.734 2.562 3.76 2.562 6.02 0 2.959-1.31 5.15-4.009 6.701l-3.088 1.854c-1.958 1.048-3.2 1.763-3.799 2.187-.605.426-1.48 1.249-2.671 2.51-3.065 3.134-4.62 7.924-4.62 14.234v.259h1.753l.004-.255c.066-4.68.974-8.424 2.697-11.128 1.723-2.702 4.8-5.139 9.143-7.243" fill="#FF621F"/><mask id="b" fill="#fff"><use xlink:href="#a"/></mask><path fill="#FF621F" mask="url(#b)" d="M15.618 78.74h1.757V55.903h-1.757zm2.996 0h1.757V55.903h-1.757zm10.511-39.816c3.11-1.727 5.256-3.277 6.377-4.608 1.96-2.379 2.952-5.285 2.952-8.638 0-3.566-1.276-6.67-3.794-9.223-2.52-2.554-5.64-3.849-9.277-3.849-2.096 0-4.186.514-6.213 1.527-2.025 1.012-3.621 2.308-4.75 3.86-1.33 2.032-2.04 4.58-2.109 7.575l-.006.265h1.763v-.258c0-2.55.784-4.933 2.308-7.058 2.555-2.756 5.69-4.153 9.317-4.153 3.012 0 5.627 1.12 7.77 3.33 2.147 2.214 3.235 4.9 3.235 7.984 0 2.621-.594 4.832-1.765 6.573-1.174 1.744-3.14 3.314-5.831 4.66-3.614 1.6-6.26 3.684-7.863 6.195-1.604 2.507-2.486 6.028-2.625 10.464l-.007.266h1.76l.004-.253c.067-3.724.802-6.774 2.185-9.068 1.379-2.288 3.584-4.166 6.569-5.59"/><path d="M24.765 34.077c3.161-1.404 5.166-2.59 6.128-3.624.972-1.043 1.465-2.614 1.465-4.672 0-1.92-.687-3.565-2.042-4.886-1.354-1.317-3.048-1.985-5.036-1.985-1.987 0-3.663.614-4.98 1.825-1.323 1.215-2.029 2.84-2.099 4.83l-.009.268h1.743l.022-.235c.13-1.442.694-2.638 1.676-3.554.98-.914 2.206-1.378 3.647-1.378 1.44 0 2.701.498 3.75 1.48 1.042.98 1.571 2.202 1.571 3.635 0 2.563-1.72 4.604-5.114 6.067-4.167 1.807-7.424 4.658-9.678 8.475-2.254 3.814-3.36 8.275-3.29 13.259l.003.254h1.753v-.258c0-9.019 3.536-15.584 10.49-19.5" fill="#FF621F" mask="url(#b)"/><path d="M14.652 39.967c2.372-4 5.813-7.131 10.217-9.3 2.844-1.28 4.286-2.924 4.286-4.885 0-1.034-.393-1.93-1.166-2.667-.77-.734-1.682-1.105-2.71-1.105-1.09 0-2.067.35-2.903 1.04-.845.7-1.31 1.543-1.384 2.505l-.021.278h1.747l.028-.227c.06-.483.33-.898.829-1.271a2.743 2.743 0 0 1 1.705-.568c.626 0 1.126.18 1.53.55.395.367.588.778.588 1.258 0 1.264-1.168 2.473-3.48 3.595-9.692 5.124-14.501 13.338-14.293 24.413l.004.254h1.763l-.011-.27c-.204-5.023.897-9.6 3.27-13.6M12.518 78.74h1.757V55.903h-1.757zm-2.894 0h1.757V55.903H9.624zm21.184 0h1.756V55.903h-1.756zm-9.197 0h1.757V55.903H21.61z" fill="#FF621F" mask="url(#b)"/><path d="M43.029 7.723C37.903 2.598 31.827 0 24.969 0 18.455 0 12.657 2.423 7.737 7.206 3.028 11.915.43 18.09.015 25.56L0 25.833h1.756l.015-.243c.339-5.57 1.956-10.356 4.81-14.229 4.542-6.373 10.763-9.604 18.492-9.604 6.304 0 11.927 2.442 16.712 7.26 4.784 4.82 7.21 10.494 7.21 16.868 0 5.427-1.687 10.416-5.01 14.827-1.29 1.695-2.526 3.018-3.676 3.932-1.152.913-2.872 1.894-5.11 2.91-1.619.705-2.767 1.516-3.412 2.412-.653.907-.947 2.127-.876 3.625l.012.245h1.745v-.258c0-1.248.21-2.17.623-2.742.414-.574 1.26-1.1 2.518-1.564 4.305-1.667 7.91-4.743 10.717-9.143 2.803-4.396 4.225-9.223 4.225-14.347 0-6.858-2.598-12.934-7.722-18.06M27.914 78.74h1.757V55.903h-1.757z" fill="#FF621F" mask="url(#b)"/><path d="M33.76 46.889c4.704-2.214 8.217-5.044 10.439-8.41 2.222-3.37 3.349-7.606 3.349-12.594 0-6.31-2.18-11.724-6.48-16.094-4.304-4.371-9.615-6.588-15.788-6.588-6.105 0-11.416 2.216-15.786 6.586-3.886 3.886-6.067 9.191-6.482 15.77l-.018.274h1.758l.015-.242c.205-3.263.772-6.052 1.687-8.288.912-2.231 2.337-4.36 4.231-6.322 3.996-3.995 8.906-6.02 14.595-6.02 5.686 0 10.578 2.042 14.54 6.07 3.962 4.03 5.971 9.028 5.971 14.854 0 9.144-4.259 15.634-12.652 19.29-1.905.777-3.268 1.821-4.05 3.102-.78 1.274-1.174 3.057-1.174 5.3v.26h1.756v-.26c0-1.94.3-3.425.894-4.413.584-.974 1.65-1.736 3.195-2.275" fill="#FF621F" mask="url(#b)"/><path d="M31.591 40.998c1.734-.832 3.177-1.712 4.283-2.612 3.7-2.863 5.577-7.069 5.577-12.501 0-4.595-1.554-8.498-4.621-11.6-3.07-3.102-6.921-4.675-11.447-4.675-4.665 0-8.62 1.59-11.758 4.728-2.789 2.859-4.343 6.634-4.62 11.221l-.017.274h1.757l.016-.241c.269-4.118 1.635-7.47 4.058-9.961 2.83-2.83 6.419-4.265 10.667-4.265 4.041 0 7.455 1.4 10.149 4.159 2.694 2.764 4.06 6.249 4.06 10.36 0 3.578-.784 6.464-2.327 8.58-1.551 2.121-4.226 3.987-7.978 5.558-2.853 1.6-4.884 3.423-6.04 5.417-1.154 1.994-1.739 4.732-1.739 8.138v.259h1.752l.005-.254c.066-3.308.695-5.887 1.869-7.664 1.173-1.777 3.312-3.433 6.354-4.921" fill="#FF621F" mask="url(#b)"/><path d="M31.684 44.31c4.089-1.733 7.29-4.25 9.515-7.48 2.224-3.233 3.352-7.02 3.352-11.255 0-5.28-1.885-9.844-5.604-13.564-3.72-3.719-8.318-5.604-13.667-5.604-5.351 0-9.897 1.833-13.515 5.45-3.475 3.544-5.377 8.155-5.654 13.705l-.013.271h1.756l.014-.244c.27-5.076 2.017-9.26 5.194-12.438 3.31-3.31 7.42-4.987 12.218-4.987 4.797 0 8.96 1.712 12.373 5.092 3.412 3.38 5.141 7.524 5.141 12.319 0 3.245-.892 6.453-2.652 9.533-1.756 3.073-3.907 5.21-6.378 6.345-3.474 1.32-5.895 2.88-7.194 4.634-1.303 1.762-1.93 4.284-1.859 7.497l.006.252h1.759l-.008-.265c-.068-2.35.286-4.216 1.05-5.548.764-1.328 2.174-2.582 4.166-3.714M24.711 78.74h1.757V55.903H24.71z" fill="#FF621F" mask="url(#b)"/></g></svg>