<svg width="70" height="70" viewBox="0 0 70 70" xmlns="http://www.w3.org/2000/svg" xmlns:xlink="http://www.w3.org/1999/xlink"><title>Group 6</title><defs><path id="a" d="M0 .42h69.617v69.283H0z"/></defs><g fill="none" fill-rule="evenodd"><path d="M37.93 55.635h-1.026V35.707c0-1.595-.713-2.395-2.138-2.395a1.98 1.98 0 0 0-1.454.6c-.4.399-.599.884-.599 1.453 0 1.255.57 1.939 1.711 2.052v1.027c-.8-.056-1.454-.37-1.967-.94-.513-.57-.77-1.284-.77-2.139 0-.911.285-1.653.855-2.224.57-.57 1.312-.855 2.224-.855.969 0 1.738.314 2.31.941.568.628.855 1.454.855 2.48v19.928zm2.652 0h-1.027V35.279c0-1.424-.442-2.536-1.325-3.335-.885-.798-2.068-1.197-3.55-1.197-1.312 0-2.394.442-3.25 1.325-.855.885-1.282 1.982-1.282 3.293 0 1.255.398 2.266 1.197 3.036.798.77 1.852 1.212 3.165 1.326v1.026c-1.655-.113-2.966-.67-3.935-1.668-.97-.996-1.454-2.237-1.454-3.72 0-1.596.541-2.936 1.625-4.02 1.083-1.082 2.395-1.625 3.934-1.625 1.824 0 3.264.5 4.32 1.497 1.054.998 1.582 2.352 1.582 4.062v20.356zm2.394 0H41.95V35.023c0-1.938-.699-3.55-2.095-4.832-1.398-1.283-3.122-1.924-5.175-1.924-1.825 0-3.463.713-4.918 2.138-1.453 1.425-2.18 3.022-2.18 4.789 0 1.882.826 3.65 2.48 5.303 1.083 1.083 2.566 1.71 4.448 1.881v1.026c-2.168-.17-3.879-.91-5.132-2.223-1.882-1.767-2.823-3.764-2.823-5.987 0-1.71.685-3.391 2.053-5.046 1.54-1.938 3.563-2.908 6.072-2.908 2.338 0 4.305.742 5.902 2.224 1.595 1.483 2.394 3.335 2.394 5.559v20.612zm2.566 0h-1.026v-21.04c0-2.45-.956-4.546-2.865-6.286-1.911-1.738-4.206-2.608-6.885-2.608-2.68 0-4.975.927-6.885 2.78-1.91 1.853-2.865 4.062-2.865 6.628 0 2.623.997 4.932 2.994 6.927 1.652 1.71 3.819 2.65 6.5 2.822v1.027c-2.908-.171-5.303-1.198-7.185-3.08-2.223-2.108-3.336-4.674-3.336-7.696 0-2.851 1.055-5.303 3.165-7.356 2.109-2.052 4.646-3.079 7.612-3.079 2.964 0 5.502.97 7.611 2.908 2.11 1.94 3.165 4.276 3.165 7.013v21.04zm9.151-7.612V33.227c0-1.767-.527-3.734-1.582-5.901a22.495 22.495 0 0 0-4.062-5.816c-3.992-3.99-8.867-5.987-14.625-5.987-5.418 0-10.007 1.925-13.77 5.773-3.763 3.849-5.645 8.54-5.645 14.07 0 5.075 1.825 9.492 5.474 13.256 3.592 3.707 8.267 5.787 14.027 6.243v1.026c-5.987-.456-10.92-2.68-14.797-6.67-3.82-3.935-5.73-8.553-5.73-13.856 0-5.872 1.968-10.819 5.902-14.839s8.78-6.03 14.539-6.03c6.1 0 11.232 2.14 15.395 6.415a22.676 22.676 0 0 1 4.318 6.03c1.112 2.253 1.668 4.348 1.668 6.286v13.77c2.053-.056 3.45-.827 4.191-2.31.74-1.481 1.112-4.304 1.112-8.467 0-8.039-2.595-14.482-7.783-19.329-5.303-5.016-11.575-7.526-18.815-7.526-7.3 0-13.4 2.352-18.303 7.056-4.904 4.704-7.355 10.592-7.355 17.661 0 7.526 2.408 13.828 7.226 18.901 4.818 5.076 10.961 7.755 18.432 8.04v1.026c-7.356-.227-13.4-2.651-18.132-7.27-2.68-2.622-4.776-5.73-6.286-9.322a28.609 28.609 0 0 1-2.266-11.204c0-7.355 2.565-13.513 7.697-18.473 5.131-4.96 11.489-7.441 19.072-7.441 8.04 0 14.824 2.852 20.355 8.552 4.79 4.961 7.184 11.29 7.184 18.987 0 4.619-.342 7.641-1.026 9.066-.913 2.053-2.68 3.079-5.303 3.079h-1.112zm-2.48 2.48V34.852c0-4.447-1.796-8.367-5.388-11.76-3.592-3.391-7.727-5.089-12.401-5.089-4.676 0-8.668 1.655-11.974 4.96-3.307 3.308-4.96 7.3-4.96 11.974 0 4.563 1.71 8.61 5.132 12.145 3.25 3.136 7.211 4.875 11.888 5.217v1.026c-5.018-.342-9.209-2.194-12.573-5.559-3.65-3.763-5.473-8.04-5.473-12.829 0-4.903 1.766-9.121 5.302-12.657 3.535-3.535 7.754-5.303 12.658-5.303 5.016 0 9.408 1.796 13.17 5.388 3.764 3.592 5.646 7.755 5.646 12.487v14.625h2.565c2.793 0 4.775-1.055 5.944-3.165 1.168-2.108 1.754-5.615 1.754-10.52 0-8.552-2.795-15.45-8.382-20.696-5.76-5.474-12.602-8.21-20.526-8.21-7.241 0-13.628 2.308-19.158 6.927-6.044 5.075-9.065 11.831-9.065 20.27 0 9.293 3.25 16.762 9.75 22.407 4.903 4.447 11.032 6.785 18.388 7.012v1.027c-7.813-.227-14.484-2.908-20.013-8.04-6.102-5.644-9.152-13.055-9.152-22.236 0-8.95 3.135-16.049 9.408-21.296C20.398 8.225 27.012 5.86 34.595 5.86c7.24 0 13.626 2.168 19.158 6.5 7.24 5.644 10.86 13.228 10.86 22.75 0 5.701-.683 9.693-2.051 11.973-1.37 2.281-3.763 3.421-7.184 3.421h-3.165zm-1.54 1.54h4.62c3.762 0 6.47-1.297 8.124-3.892 1.653-2.593 2.48-6.827 2.48-12.7 0-9.977-3.564-17.903-10.69-23.776-6.044-4.96-12.972-7.441-20.783-7.441-7.641 0-14.454 2.452-20.44 7.355C7.196 17.177 3.805 24.704 3.805 34.168c0 9.92 3.45 17.904 10.348 23.947 5.645 5.018 12.43 7.64 20.356 7.868v1.026c-8.781-.228-16.109-3.164-21.98-8.809-6.5-6.043-9.75-14.054-9.75-24.032 0-9.75 3.562-17.533 10.69-23.349 6.214-5.074 13.199-7.612 20.954-7.612 8.095 0 15.252 2.538 21.467 7.612 7.355 5.93 11.033 13.999 11.033 24.204 0 6.215-.898 10.776-2.694 13.684-1.797 2.908-4.606 4.362-8.425 4.362h-6.158V35.194c0-3.934-1.511-7.355-4.532-10.263-3.023-2.908-6.558-4.362-10.605-4.362-3.992 0-7.413 1.411-10.264 4.233-2.851 2.823-4.276 6.23-4.276 10.221 0 3.991 1.482 7.526 4.447 10.605 2.622 2.566 5.987 3.963 10.093 4.19v1.027c-4.448-.227-8.07-1.739-10.862-4.533-3.136-3.135-4.704-6.898-4.704-11.289 0-4.219 1.524-7.853 4.576-10.904 3.049-3.05 6.684-4.576 10.904-4.576 4.332 0 8.125 1.554 11.374 4.661 3.25 3.108 4.876 6.771 4.876 10.99v16.849zm-3.592 3.592V34.424c0-2.964-1.254-5.587-3.762-7.868-2.51-2.28-5.418-3.421-8.724-3.421-3.307 0-6.13 1.17-8.467 3.507-2.339 2.338-3.506 5.131-3.506 8.381 0 3.421 1.31 6.386 3.933 8.895 2.11 2.11 4.76 3.28 7.955 3.506v1.026c-3.48-.227-6.387-1.51-8.724-3.848-2.795-2.793-4.19-5.987-4.19-9.579 0-3.535 1.268-6.57 3.805-9.108 2.536-2.537 5.602-3.806 9.194-3.806 3.592 0 6.742 1.227 9.45 3.677 2.708 2.453 4.063 5.332 4.063 8.638v20.184h6.243c3.99 0 6.956-.825 8.895-2.48 3.306-2.793 4.96-8.467 4.96-17.02 0-10.547-3.735-18.957-11.203-25.23-6.615-5.473-14.198-8.21-22.75-8.21-7.868 0-15.138 2.68-21.81 8.04C4.974 15.752 1.24 23.876 1.24 34.082c0 10.834 3.678 19.472 11.033 25.914 6.214 5.303 13.626 8.125 22.237 8.467v1.026c-9.523-.341-17.563-3.591-24.119-9.75C3.605 53.298.214 44.746.214 34.083c0-10.66 3.849-19.072 11.546-25.23C18.544 3.38 26.128.642 34.51.642c8.78 0 16.506 2.708 23.177 8.124 7.81 6.445 11.717 15.168 11.717 26.171 0 7.3-1.155 12.573-3.464 15.823-2.31 3.25-6.087 4.875-11.332 4.875H47.08z" fill="#000"/><g transform="translate(0 .008)"><mask id="b" fill="#fff"><use xlink:href="#a"/></mask><path d="M37.118 55.413h.599V35.699c0-.965-.27-1.751-.8-2.336-.534-.587-1.237-.872-2.151-.872-.849 0-1.546.267-2.073.793-.533.534-.792 1.212-.792 2.073 0 .797.24 1.468.715 1.995.43.478.953.756 1.594.847v-.602c-1.12-.184-1.71-.954-1.71-2.24 0-.626.222-1.167.661-1.605.438-.44.978-.661 1.605-.661 1.073 0 2.352.452 2.352 2.608v19.714zm1.026.427H36.69V35.7c0-1.488-.611-2.18-1.924-2.18-.516 0-.942.175-1.303.535a1.76 1.76 0 0 0-.536 1.303c0 1.152.482 1.737 1.518 1.84l.193.018v1.45l-.23-.016c-.85-.06-1.56-.4-2.11-1.011-.547-.607-.825-1.374-.825-2.281 0-.966.309-1.765.918-2.375.61-.61 1.408-.918 2.375-.918 1.026 0 1.857.34 2.468 1.01.604.668.91 1.55.91 2.625v20.14zm1.625-.427h.6V35.27c0-1.64-.51-2.955-1.516-3.907-1.011-.954-2.415-1.438-4.173-1.438-1.473 0-2.745.526-3.782 1.563-1.037 1.036-1.563 2.337-1.563 3.868 0 1.42.469 2.62 1.394 3.571.881.909 2.08 1.441 3.567 1.585v-.601c-1.267-.144-2.309-.602-3.1-1.365-.838-.807-1.262-1.881-1.262-3.19 0-1.362.452-2.52 1.343-3.442.894-.922 2.038-1.39 3.403-1.39 1.529 0 2.771.421 3.693 1.252.927.838 1.396 2.014 1.396 3.494v20.142zm1.027.427h-1.454V35.271c0-1.354-.423-2.423-1.256-3.176-.84-.759-1.986-1.143-3.406-1.143-1.244 0-2.286.424-3.096 1.26-.811.84-1.223 1.898-1.223 3.145 0 1.205.37 2.148 1.132 2.882.759.732 1.78 1.158 3.035 1.267l.195.016v1.452l-.228-.016c-1.7-.116-3.07-.7-4.073-1.732-1.005-1.033-1.515-2.335-1.515-3.869 0-1.648.568-3.051 1.688-4.17 1.12-1.12 2.495-1.689 4.085-1.689 1.871 0 3.373.523 4.467 1.555 1.094 1.037 1.649 2.456 1.649 4.218v20.57zm1.368-.427h.599V35.015c0-2.15-.783-3.968-2.327-5.403-1.549-1.437-3.485-2.166-5.756-2.166-2.428 0-4.414.95-5.904 2.826-1.333 1.612-2.007 3.264-2.007 4.914 0 2.152.927 4.114 2.755 5.831 1.173 1.227 2.775 1.946 4.772 2.145v-.599c-1.835-.2-3.31-.847-4.385-1.924-1.687-1.685-2.543-3.52-2.543-5.453 0-1.819.756-3.481 2.245-4.942 1.49-1.46 3.194-2.2 5.067-2.2 2.098 0 3.888.667 5.32 1.981 1.436 1.32 2.164 2.998 2.164 4.99v20.398zm1.026.427h-1.454V35.015c0-1.867-.681-3.44-2.026-4.675-1.35-1.24-3.043-1.868-5.03-1.868-1.757 0-3.361.699-4.768 2.077-1.404 1.378-2.116 2.938-2.116 4.637 0 1.815.813 3.548 2.417 5.151 1.04 1.042 2.493 1.654 4.316 1.82l.194.018v1.452l-.23-.018c-2.213-.174-3.985-.944-5.27-2.288-1.91-1.793-2.881-3.86-2.881-6.135 0-1.752.707-3.496 2.101-5.182 1.573-1.98 3.672-2.986 6.237-2.986 2.382 0 4.416.768 6.047 2.281 1.635 1.52 2.463 3.443 2.463 5.716V55.84zm1.54-.427h.598V34.587c0-2.66-1.041-4.967-3.095-6.855-2.06-1.893-4.572-2.852-7.467-2.852-2.894 0-5.405 1.016-7.463 3.018-2.057 2.001-3.1 4.424-3.1 7.202 0 2.948 1.1 5.485 3.27 7.542 1.79 1.79 4.082 2.8 6.823 3.006v-.598c-2.633-.209-4.798-1.174-6.44-2.873-2.026-2.025-3.054-4.406-3.054-7.077 0-2.614.986-4.895 2.93-6.781 1.943-1.885 4.31-2.84 7.034-2.84 2.72 0 5.086.896 7.03 2.663 1.946 1.776 2.934 3.944 2.934 6.445v20.826zm1.026.427h-1.454V34.587c0-2.376-.94-4.438-2.795-6.128-1.862-1.693-4.13-2.553-6.741-2.553-2.61 0-4.875.916-6.736 2.72-1.858 1.802-2.8 3.98-2.8 6.474 0 2.554.986 4.833 2.93 6.777 1.61 1.665 3.75 2.593 6.363 2.76l.2.013v1.453l-.226-.013c-2.948-.174-5.412-1.23-7.323-3.141-2.253-2.138-3.398-4.78-3.398-7.849 0-2.898 1.087-5.424 3.23-7.508 2.14-2.084 4.75-3.14 7.76-3.14 3.005 0 5.615.998 7.756 2.964 2.146 1.974 3.234 4.386 3.234 7.171V55.84zM34.596 8.544c-7.491 0-13.858 2.484-18.924 7.381-5.065 4.895-7.633 11.06-7.633 18.32 0 3.831.757 7.573 2.25 11.121 1.492 3.55 3.591 6.663 6.239 9.253 4.623 4.512 10.6 6.934 17.768 7.2v-.6c-7.402-.327-13.582-3.05-18.373-8.097-4.833-5.09-7.285-11.499-7.285-19.048 0-7.098 2.497-13.093 7.421-17.816 4.921-4.72 11.129-7.115 18.45-7.115 7.263 0 13.643 2.553 18.963 7.585 5.208 4.867 7.85 11.422 7.85 19.484 0 4.175-.382 7.056-1.135 8.563-.776 1.552-2.249 2.37-4.376 2.427l-.22.006v-13.99c0-1.895-.553-3.978-1.645-6.19a22.586 22.586 0 0 0-4.279-5.974c-4.103-4.215-9.231-6.351-15.243-6.351-5.672 0-10.513 2.006-14.386 5.965-3.876 3.96-5.84 8.901-5.84 14.689 0 5.22 1.907 9.832 5.669 13.706 3.772 3.883 8.625 6.099 14.429 6.588v-.598c-5.698-.49-10.395-2.606-13.966-6.291-3.672-3.786-5.534-8.296-5.534-13.405 0-5.563 1.92-10.346 5.706-14.218 3.787-3.874 8.47-5.838 13.922-5.838 5.789 0 10.76 2.036 14.776 6.05a22.799 22.799 0 0 1 4.103 5.873c1.065 2.187 1.605 4.204 1.605 5.995V47.8h.897c2.553 0 4.224-.966 5.108-2.952.669-1.395 1.007-4.413 1.007-8.979 0-7.604-2.397-13.942-7.124-18.838-5.464-5.632-12.26-8.488-20.2-8.488zm.127 53.717l-.22-.006c-7.376-.228-13.524-2.695-18.275-7.331-2.688-2.63-4.819-5.79-6.333-9.392a28.951 28.951 0 0 1-2.283-11.287c0-7.381 2.611-13.648 7.762-18.627 5.149-4.977 11.616-7.501 19.221-7.501 8.06 0 14.96 2.9 20.508 8.617 4.808 4.98 7.245 11.417 7.245 19.136 0 4.695-.343 7.691-1.047 9.159-.944 2.121-2.793 3.2-5.496 3.2H54.48v-15.01c0-1.726-.525-3.68-1.56-5.808a22.357 22.357 0 0 0-4.025-5.76c-3.93-3.929-8.8-5.922-14.471-5.922-5.332 0-9.913 1.92-13.617 5.709-3.705 3.789-5.584 8.472-5.584 13.919 0 4.994 1.822 9.404 5.414 13.108 3.537 3.65 8.21 5.729 13.889 6.179l.197.015v1.455l-.23-.018c-6.012-.458-11.037-2.724-14.933-6.735-3.842-3.957-5.79-8.669-5.79-14.004 0-5.903 2.006-10.946 5.962-14.988 3.958-4.044 8.9-6.094 14.692-6.094 6.132 0 11.362 2.18 15.548 6.479a22.991 22.991 0 0 1 4.357 6.084c1.121 2.272 1.69 4.419 1.69 6.38v13.548c1.863-.1 3.102-.815 3.786-2.183.722-1.446 1.09-4.263 1.09-8.37 0-7.94-2.597-14.39-7.716-19.173C47.94 12.083 41.66 9.57 34.51 9.57c-7.207 0-13.315 2.354-18.154 6.996-4.837 4.64-7.29 10.53-7.29 17.507 0 7.436 2.412 13.746 7.168 18.754 4.755 5.01 10.907 7.692 18.284 7.973l.206.007v1.453zm-.128-56.196c-7.496 0-14.125 2.371-19.705 7.048-6.19 5.179-9.33 12.288-9.33 21.132 0 9.076 3.055 16.505 9.082 22.08 5.414 5.024 12.025 7.706 19.654 7.975v-.599c-7.282-.265-13.444-2.64-18.318-7.061-6.515-5.658-9.82-13.25-9.82-22.566 0-8.465 3.076-15.34 9.142-20.433 5.543-4.63 12.035-6.978 19.295-6.978 7.945 0 14.9 2.782 20.673 8.27 5.606 5.263 8.448 12.279 8.448 20.852 0 4.916-.598 8.49-1.78 10.623-1.204 2.172-3.267 3.274-6.13 3.274h-2.78V34.843c0-4.65-1.877-8.798-5.58-12.331-3.703-3.536-8.085-5.33-13.022-5.33-4.822 0-9.03 1.764-12.507 5.241-3.477 3.476-5.24 7.684-5.24 12.506 0 4.71 1.822 8.977 5.414 12.68 3.256 3.257 7.362 5.1 12.205 5.478v-.598c-4.621-.38-8.598-2.149-11.823-5.262-3.45-3.564-5.197-7.7-5.197-12.298 0-4.712 1.69-8.792 5.023-12.125 3.333-3.332 7.413-5.022 12.125-5.022 4.709 0 8.93 1.731 12.548 5.146 3.62 3.42 5.455 7.428 5.455 11.915v15.438h2.95c3.325 0 5.68-1.116 7.001-3.317C63.72 44.729 64.4 40.737 64.4 35.1c0-9.407-3.626-17.005-10.779-22.58-5.468-4.284-11.87-6.455-19.026-6.455zm.128 58.676l-.22-.006c-7.828-.228-14.608-2.952-20.152-8.097-6.118-5.659-9.22-13.193-9.22-22.393 0-8.976 3.191-16.196 9.485-21.46 5.658-4.743 12.38-7.148 19.98-7.148 7.253 0 13.743 2.202 19.289 6.545 7.26 5.662 10.943 13.373 10.943 22.918 0 5.716-.7 9.781-2.083 12.084-1.403 2.339-3.882 3.525-7.368 3.525H52V34.843c0-4.365-1.79-8.269-5.321-11.604-3.535-3.337-7.658-5.03-12.254-5.03-4.595 0-8.573 1.648-11.822 4.898-3.25 3.25-4.898 7.227-4.898 11.822 0 4.483 1.706 8.52 5.071 11.996 3.192 3.08 7.147 4.816 11.75 5.153l.198.014v1.454l-.228-.015c-5.048-.345-9.324-2.236-12.71-5.622-3.673-3.788-5.535-8.155-5.535-12.98 0-4.94 1.805-9.249 5.365-12.809 3.56-3.56 7.87-5.365 12.809-5.365 5.05 0 9.532 1.833 13.319 5.448 3.789 3.617 5.71 7.87 5.71 12.64v14.412h2.352c2.697 0 4.634-1.028 5.757-3.054 1.146-2.07 1.727-5.574 1.727-10.416 0-8.45-2.798-15.361-8.314-20.542-5.692-5.41-12.549-8.152-20.38-8.152-7.157 0-13.557 2.314-19.02 6.878-5.965 5.008-8.99 11.772-8.99 20.105 0 9.186 3.256 16.67 9.677 22.246 4.846 4.395 10.986 6.736 18.254 6.96l.207.007v1.454zm-.3-61.328c-7.667 0-14.671 2.545-20.817 7.564C6.564 16.722 2.993 24.522 2.993 34.16c0 9.87 3.258 17.903 9.682 23.876 5.758 5.534 13.03 8.476 21.62 8.745v-.599c-7.853-.269-14.676-2.932-20.283-7.915C7.1 52.21 3.592 44.1 3.592 34.16c0-9.488 3.45-17.14 10.256-22.744 5.998-4.913 12.921-7.404 20.576-7.404 7.825 0 14.863 2.52 20.918 7.489 7.146 5.89 10.769 13.944 10.769 23.941 0 5.887-.846 10.199-2.514 12.816-1.688 2.647-4.482 3.99-8.305 3.99H50.46V35.186c0-4.139-1.618-7.784-4.81-10.836-3.193-3.053-6.97-4.601-11.226-4.601-4.14 0-7.759 1.518-10.753 4.512-2.995 2.995-4.513 6.613-4.513 10.754 0 4.312 1.56 8.059 4.641 11.138 2.694 2.696 6.225 4.195 10.497 4.458v-.6c-4.05-.263-7.422-1.689-10.028-4.238-2.995-3.11-4.512-6.728-4.512-10.758 0-4.033 1.46-7.522 4.34-10.373 2.878-2.85 6.382-4.295 10.413-4.295 4.086 0 7.704 1.488 10.754 4.422 3.051 2.936 4.598 6.44 4.598 10.417v17.66h5.944c3.723 0 6.497-1.433 8.243-4.26 1.766-2.86 2.662-7.425 2.662-13.571 0-10.09-3.685-18.177-10.953-24.037-6.149-5.02-13.326-7.565-21.333-7.565zm.3 63.807l-.219-.005c-8.796-.23-16.24-3.213-22.123-8.869-6.512-6.054-9.815-14.192-9.815-24.186 0-9.773 3.623-17.684 10.769-23.515 6.225-5.082 13.32-7.66 21.089-7.66 8.108 0 15.376 2.578 21.602 7.66 7.372 5.945 11.111 14.144 11.111 24.37 0 6.226-.917 10.868-2.725 13.796-1.83 2.962-4.726 4.464-8.607 4.464h-6.372v-18.09c0-3.854-1.503-7.255-4.467-10.108-2.967-2.855-6.485-4.302-10.457-4.302-3.915 0-7.317 1.403-10.112 4.171-2.796 2.767-4.213 6.154-4.213 10.069 0 3.915 1.476 7.434 4.387 10.457 2.569 2.512 5.918 3.902 9.95 4.125l.202.011v1.454l-.224-.012c-4.482-.228-8.184-1.775-11.003-4.594-3.162-3.163-4.766-7.012-4.766-11.441 0-4.258 1.56-7.978 4.638-11.056 3.078-3.078 6.798-4.638 11.056-4.638 4.37 0 8.246 1.588 11.523 4.72 3.278 3.136 4.94 6.885 4.94 11.145V51.82h4.405c3.668 0 6.34-1.276 7.944-3.793 1.624-2.547 2.447-6.781 2.447-12.586 0-9.864-3.57-17.807-10.613-23.61C49.094 6.927 42.148 4.44 34.424 4.44c-7.553 0-14.385 2.458-20.305 7.306C7.418 17.265 4.02 24.806 4.02 34.16c0 9.811 3.457 17.814 10.275 23.786 5.58 4.96 12.383 7.589 20.22 7.815l.208.007v1.452zM34.51.847c-8.292 0-15.9 2.747-22.615 8.163C4.285 15.098.428 23.53.428 34.074c0 10.552 3.401 19.133 10.11 25.502 6.435 6.044 14.427 9.302 23.758 9.683v-.599c-8.534-.38-15.989-3.242-22.162-8.51C4.763 53.695 1.027 44.922 1.027 34.075c0-10.226 3.796-18.483 11.282-24.54 6.68-5.367 14.063-8.088 21.944-8.088 8.562 0 16.262 2.779 22.885 8.26C64.625 15.993 68.42 24.536 68.42 35.1c0 8.579-1.694 14.36-5.036 17.183-1.968 1.68-5.007 2.531-9.033 2.531h-6.457V34.416c0-3.227-1.343-6.08-3.992-8.48-2.657-2.403-5.788-3.622-9.307-3.622-3.517 0-6.56 1.26-9.043 3.744-2.483 2.483-3.743 5.497-3.743 8.957 0 3.518 1.389 6.69 4.128 9.428 2.237 2.238 5.049 3.506 8.359 3.77v-.599c-3.144-.264-5.799-1.459-7.892-3.554-2.65-2.534-3.996-5.579-3.996-9.045 0-3.294 1.2-6.164 3.568-8.533 2.369-2.368 5.269-3.569 8.62-3.569 3.344 0 6.327 1.17 8.866 3.477 2.544 2.312 3.833 5.013 3.833 8.026v20.997h7.313c5.148 0 8.902-1.61 11.158-4.786 2.272-3.197 3.424-8.48 3.424-15.698 0-10.884-3.916-19.634-11.64-26.006C50.95 3.565 43.199.847 34.51.847zm.214 68.856l-.22-.008c-9.533-.342-17.694-3.642-24.258-9.808C3.447 53.433 0 44.748 0 34.074 0 23.394 3.912 14.85 11.626 8.677 18.417 3.197 26.116.42 34.51.42c8.79 0 16.633 2.75 23.313 8.172 7.827 6.458 11.795 15.319 11.795 26.337 0 7.31-1.178 12.674-3.503 15.947-2.34 3.294-6.212 4.964-11.506 4.964h-7.74V34.416c0-2.888-1.243-5.482-3.693-7.71-2.459-2.233-5.345-3.365-8.58-3.365-3.233 0-6.031 1.159-8.316 3.444-2.285 2.285-3.443 5.053-3.443 8.23 0 3.345 1.3 6.286 3.867 8.74 2.066 2.066 4.696 3.225 7.822 3.448l.198.014v1.454l-.227-.015c-3.516-.23-6.497-1.546-8.862-3.91-2.822-2.822-4.253-6.095-4.253-9.731 0-3.577 1.302-6.693 3.869-9.26s5.71-3.868 9.345-3.868c3.629 0 6.856 1.256 9.594 3.733 2.742 2.484 4.133 5.443 4.133 8.796v19.97h6.03c3.92 0 6.866-.817 8.755-2.429 3.242-2.739 4.885-8.41 4.885-16.857 0-10.431-3.743-18.864-11.127-25.066-6.544-5.414-14.152-8.16-22.612-8.16-7.78 0-15.073 2.689-21.675 7.992C5.197 15.838 1.454 23.983 1.454 34.074c0 10.719 3.688 19.384 10.96 25.753 6.146 5.244 13.583 8.076 22.104 8.414l.205.009v1.453z" fill="#000" mask="url(#b)"/></g></g></svg>