<svg width="97" height="150" viewBox="0 0 97 150" xmlns="http://www.w3.org/2000/svg" xmlns:xlink="http://www.w3.org/1999/xlink"><title>Group 19</title><defs><path id="a" d="M0 149.605h96.427V0H0z"/></defs><g fill="none" fill-rule="evenodd"><path d="M55.508 66.9c8-3.866 12.058-9.695 12.058-17.326 0-5.082-1.996-9.69-5.933-13.695-3.94-4.006-8.516-6.037-13.602-6.037-5.081 0-9.49 1.798-13.105 5.344-3.61 3.542-5.575 8.045-5.841 13.381l-.025.516h3.335l.027-.463c.252-4.433 1.887-8.155 4.86-11.065 2.965-2.903 6.582-4.375 10.749-4.375 4.29 0 8.103 1.669 11.331 4.956 3.229 3.295 4.866 7.143 4.866 11.438 0 5.622-2.488 9.785-7.615 12.733l-5.869 3.522c-3.72 1.992-6.08 3.35-7.217 4.155-1.15.81-2.811 2.373-5.075 4.77-5.824 5.954-8.778 15.054-8.778 27.044v.49h3.33l.008-.483c.126-8.893 1.851-16.006 5.125-21.143 3.274-5.133 9.118-9.764 17.371-13.762" fill="#FF621F"/><mask id="b" fill="#fff"><use xlink:href="#a"/></mask><path fill="#FF621F" mask="url(#b)" d="M29.675 149.605h3.337v-43.39h-3.337zm5.692 0h3.338v-43.39h-3.338zm19.97-75.649c5.91-3.282 9.986-6.227 12.117-8.757 3.722-4.518 5.609-10.04 5.609-16.411 0-6.775-2.426-12.671-7.21-17.524-4.786-4.852-10.717-7.312-17.626-7.312-3.982 0-7.953.976-11.803 2.9-3.85 1.924-6.882 4.385-9.026 7.335-2.529 3.86-3.876 8.702-4.007 14.393l-.012.502h3.35v-.49c0-4.845 1.489-9.373 4.385-13.41 4.854-5.236 10.81-7.891 17.702-7.891 5.723 0 10.691 2.129 14.765 6.328 4.077 4.207 6.144 9.31 6.144 15.169 0 4.98-1.128 9.18-3.352 12.488-2.23 3.315-5.966 6.298-11.08 8.856-6.867 3.038-11.894 6.997-14.94 11.768-3.046 4.763-4.723 11.453-4.986 19.883l-.014.505h3.343l.009-.482c.127-7.075 1.523-12.87 4.151-17.229 2.62-4.346 6.81-7.915 12.481-10.621"/><path d="M47.052 64.747c6.007-2.668 9.816-4.921 11.645-6.888 1.846-1.98 2.783-4.966 2.783-8.875 0-3.65-1.306-6.773-3.88-9.284-2.572-2.501-5.791-3.77-9.569-3.77-3.775 0-6.959 1.165-9.462 3.465-2.512 2.31-3.854 5.399-3.987 9.179l-.017.508h3.312l.041-.446c.248-2.739 1.32-5.012 3.184-6.753 1.86-1.737 4.192-2.617 6.93-2.617 2.735 0 5.132.946 7.123 2.811 1.982 1.86 2.987 4.184 2.987 6.907 0 4.868-3.269 8.747-9.717 11.527-7.917 3.433-14.105 8.85-18.389 16.103-4.282 7.246-6.384 15.721-6.252 25.19l.007.484h3.33v-.49c0-17.136 6.72-29.61 19.931-37.051" fill="#FF621F" mask="url(#b)"/><path d="M27.838 75.936c4.508-7.6 11.045-13.549 19.412-17.669 5.404-2.433 8.143-5.555 8.143-9.282 0-1.964-.745-3.668-2.214-5.068-1.465-1.392-3.197-2.098-5.148-2.098-2.073 0-3.929.665-5.516 1.977-1.607 1.329-2.491 2.93-2.63 4.758l-.041.529h3.32l.053-.431c.113-.918.628-1.707 1.574-2.416a5.21 5.21 0 0 1 3.24-1.08c1.19 0 2.14.343 2.907 1.048.752.696 1.118 1.476 1.118 2.388 0 2.402-2.219 4.698-6.61 6.83-18.417 9.737-27.554 25.342-27.16 46.385l.01.482h3.348l-.02-.512c-.387-9.544 1.704-18.239 6.214-25.84m-4.053 73.668h3.337v-43.39h-3.337zm-5.499 0h3.338v-43.39h-3.338zm40.248 0h3.338v-43.39h-3.338zm-17.474 0h3.338v-43.39h-3.337z" fill="#FF621F" mask="url(#b)"/><path d="M81.754 14.673C72.015 4.937 60.471 0 47.441 0 35.064 0 24.048 4.604 14.7 13.69 5.753 22.638.816 34.371.03 48.564l-.03.519h3.336l.029-.462c.644-10.583 3.716-19.677 9.137-27.034 8.63-12.11 20.452-18.25 35.137-18.25 11.978 0 22.661 4.642 31.751 13.796 9.09 9.156 13.698 19.938 13.698 32.048 0 10.311-3.203 19.79-9.519 28.172-2.45 3.22-4.798 5.734-6.982 7.47-2.188 1.736-5.456 3.598-9.708 5.53-3.077 1.339-5.259 2.88-6.485 4.581-1.24 1.725-1.8 4.041-1.663 6.887l.023.468h3.315v-.491c0-2.372.397-4.125 1.183-5.21.786-1.09 2.394-2.09 4.785-2.971 8.18-3.167 15.03-9.012 20.36-17.373 5.328-8.352 8.03-17.523 8.03-27.26 0-13.028-4.937-24.573-14.673-34.311M53.037 149.605h3.338v-43.39h-3.338z" fill="#FF621F" mask="url(#b)"/><path d="M64.143 89.088c8.939-4.206 15.612-9.582 19.834-15.979 4.222-6.401 6.363-14.45 6.363-23.927 0-11.988-4.142-22.277-12.313-30.58C69.851 10.297 59.76 6.086 48.031 6.086c-11.6 0-21.69 4.21-29.993 12.513-7.383 7.383-11.526 17.463-12.316 29.962l-.033.521h3.34l.029-.46c.388-6.2 1.466-11.498 3.204-15.747 1.734-4.239 4.441-8.282 8.04-12.011 7.591-7.59 16.92-11.44 27.729-11.44 10.804 0 20.1 3.88 27.627 11.535 7.528 7.657 11.345 17.152 11.345 28.223 0 17.372-8.092 29.704-24.04 36.652-3.62 1.475-6.208 3.458-7.693 5.892-1.482 2.42-2.233 5.808-2.233 10.071v.491h3.338v-.49c0-3.689.57-6.51 1.697-8.387 1.11-1.85 3.138-3.298 6.07-4.323" fill="#FF621F" mask="url(#b)"/><path d="M60.023 77.896c3.293-1.582 6.035-3.254 8.138-4.964 7.03-5.439 10.596-13.43 10.596-23.75 0-8.732-2.954-16.146-8.781-22.04-5.832-5.895-13.15-8.883-21.749-8.883-8.863 0-16.378 3.02-22.34 8.982-5.298 5.433-8.251 12.606-8.777 21.32l-.033.521h3.338l.03-.458c.51-7.823 3.107-14.192 7.71-18.926 5.378-5.375 12.197-8.102 20.269-8.102 7.677 0 14.164 2.658 19.281 7.901 5.119 5.25 7.714 11.873 7.714 19.684 0 6.798-1.488 12.282-4.421 16.3-2.946 4.032-8.03 7.577-15.158 10.561-5.42 3.042-9.28 6.505-11.474 10.294-2.194 3.788-3.305 8.991-3.305 15.462v.49h3.328l.01-.481c.126-6.286 1.32-11.185 3.55-14.562 2.23-3.376 6.293-6.522 12.074-9.35" fill="#FF621F" mask="url(#b)"/><path d="M60.198 84.187c7.77-3.291 13.853-8.073 18.08-14.212 4.226-6.141 6.369-13.336 6.369-21.384 0-10.032-3.583-18.702-10.648-25.771-7.067-7.065-15.805-10.647-25.968-10.647-10.166 0-18.804 3.483-25.677 10.355-6.603 6.734-10.217 15.494-10.743 26.04l-.025.514h3.337l.026-.464c.511-9.644 3.832-17.594 9.868-23.631 6.289-6.288 14.099-9.476 23.214-9.476 9.114 0 17.024 3.254 23.508 9.675 6.483 6.42 9.77 14.296 9.77 23.405 0 6.167-1.695 12.261-5.04 18.114-3.336 5.838-7.423 9.897-12.118 12.056-6.601 2.508-11.2 5.471-13.668 8.804-2.477 3.348-3.666 8.14-3.532 14.243l.01.48h3.342l-.014-.504c-.13-4.465.542-8.01 1.995-10.54 1.451-2.524 4.131-4.907 7.914-7.057M46.95 149.605h3.338v-43.39h-3.337z" fill="#FF621F" mask="url(#b)"/></g></svg>