<svg width="78" height="77" viewBox="0 0 78 77" xmlns="http://www.w3.org/2000/svg" xmlns:xlink="http://www.w3.org/1999/xlink"><title>Step Two</title><defs><path id="a" d="M.092.3H48.8v55.5H.092z"/><path id="c" d="M0 .1h48.8v55.4H0z"/><path id="e" d="M0 76.7h77.099V.5H0z"/></defs><g fill="none" fill-rule="evenodd"><g transform="translate(0 .2)"><mask id="b" fill="#fff"><use xlink:href="#a"/></mask><path d="M24.475 49.798c5.349-.534 9.996-2.06 13.809-4.537 3.288-2.08 5.892-4.955 7.738-8.547 1.843-3.585 2.778-7.51 2.778-11.664 0-6.77-2.413-12.65-7.172-17.476C36.868 2.747 31.054.3 24.35.3c-3.154 0-6.352.73-9.504 2.173a25.781 25.781 0 0 0-8.283 6.011C2.475 13.107.3 18.644.1 24.942l-.008.258h1.7l.008-.242c.197-6.438 2.495-11.933 6.828-16.333C12.96 4.23 18.25 2 24.35 2c6.3 0 11.725 2.246 16.123 6.676C44.87 13.107 47.1 18.583 47.1 24.95c0 6.236-2.13 11.577-6.328 15.875-4.205 4.303-9.703 6.75-16.337 7.275-1.127.071-2.041.467-2.716 1.178-.676.71-1.019 1.643-1.019 2.772 0 1.494.617 2.578 1.817 3.212.368.23 1.59.538 7.933.538H48.8v-1.7H36.55c-10.179 0-12.645-.102-12.916-.186-.83-.295-1.234-.905-1.234-1.864 0-.607.19-1.108.583-1.53.394-.424.883-.66 1.492-.722" fill="#FF621F" mask="url(#b)"/></g><path d="M23.818 60.05c-1.325-.096-2.45-.405-3.334-.91-2.644-1.677-3.984-3.994-3.984-6.89 0-2.189.767-4.099 2.28-5.677 1.513-1.577 3.425-2.443 5.686-2.574 5.436-.334 9.797-2.108 12.96-5.272C40.993 35.162 42.8 30.56 42.8 25.05c0-4.774-1.535-8.934-4.564-12.366-1.682-1.883-3.778-3.417-6.23-4.56C29.549 6.98 27.108 6.4 24.75 6.4c-2.225 0-4.63.562-7.15 1.671-2.517 1.108-4.68 2.555-6.427 4.303-3.23 3.23-4.97 7.525-5.173 12.767l-.01.26h1.7l.01-.24c.196-4.517 1.62-8.232 4.234-11.04 1.633-1.766 3.693-3.227 6.12-4.344C20.478 8.665 22.765 8.1 24.85 8.1c2.083 0 4.3.564 6.59 1.675 2.291 1.114 4.216 2.573 5.722 4.34C39.775 17.121 41.1 20.8 41.1 25.05c0 5.041-1.758 9.356-5.227 12.824-2.74 2.74-6.587 4.23-11.43 4.426-2.72.069-5.033 1.07-6.873 2.977-1.838 1.907-2.77 4.22-2.77 6.873 0 3.203 1.346 5.827 3.998 7.799 1.156.884 2.216 1.438 3.148 1.645.926.206 2.694.306 5.404.306H48.8v-1.7H36.55c-7.097 0-11.38-.05-12.732-.15" fill="#FF621F"/><path d="M23.621 57.201a4.693 4.693 0 0 1-2.026-.656C20.05 55.453 19.3 54.047 19.3 52.25c0-1.455.511-2.672 1.52-3.618 1.016-.952 2.308-1.468 3.86-1.534 4.547-.534 8.45-1.791 11.6-3.734 2.892-1.749 5.244-4.34 6.992-7.698C45.016 32.31 45.9 28.74 45.9 25.05c0-5.973-2.11-11.13-6.272-15.326C35.463 5.527 30.356 3.4 24.45 3.4c-5.841 0-10.864 2.078-14.927 6.173C5.462 13.668 3.267 18.904 3 25.14l-.011.26h1.7l.01-.238c.262-5.776 2.257-10.616 5.93-14.388C14.296 7.009 18.913 5.1 24.35 5.1c5.437 0 10.155 1.994 14.021 5.925 3.868 3.934 5.83 8.72 5.83 14.225 0 7.079-2.824 12.594-8.39 16.393-2.82 1.902-6.652 3.166-11.37 3.757-1.857.07-3.478.784-4.818 2.123-1.342 1.342-2.023 2.933-2.023 4.727 0 2.415 1.049 4.303 3.103 5.602.76.555 1.504.889 2.21.995.683.103 2.167.153 4.537.153H48.8v-1.7H30.55c-3.85 0-6.18-.033-6.929-.099" fill="#FF621F"/><path d="M18.798 61.349c-1.498-1.106-2.753-2.527-3.731-4.224-.974-1.686-1.467-3.36-1.467-4.975 0-2.85 1.136-5.45 3.378-7.725 2.242-2.274 4.86-3.46 7.78-3.525 4.38-.134 8.054-1.725 10.923-4.728 2.866-3 4.319-6.708 4.319-11.022 0-4.181-1.555-7.874-4.622-10.976C32.308 11.072 28.664 9.5 24.55 9.5c-4.316 0-8.008 1.487-10.976 4.422-2.967 2.932-4.54 6.708-4.674 11.22l-.008.258h1.7l.008-.242c.13-3.982 1.535-7.34 4.177-9.982 2.638-2.638 5.893-3.976 9.673-3.976 3.58 0 6.817 1.438 9.622 4.276 2.805 2.839 4.228 6.127 4.228 9.774 0 3.782-1.306 7.054-3.88 9.727-2.575 2.672-5.83 4.093-9.675 4.223-3.52.068-6.573 1.406-9.074 3.975-2.502 2.571-3.771 5.59-3.771 8.975 0 4.198 1.85 7.698 5.5 10.4 1.356 1.017 2.614 1.67 3.741 1.942 1.127.275 3.125.408 6.109.408H48.8v-1.7H25.056c-2.6-.064-4.704-.686-6.258-1.851" fill="#FF621F"/><g transform="translate(0 21.2)"><mask id="d" fill="#fff"><use xlink:href="#c"/></mask><path d="M22.075 53.702c-3.935-.394-7.76-2.058-11.37-4.948-2.823-2.23-5.055-4.945-6.632-8.067C2.5 37.572 1.7 34.33 1.7 31.05c0-5.973 2.18-11.298 6.481-15.828 4.3-4.53 9.474-6.96 15.38-7.222 3.078-.14 4.64-1.469 4.64-3.95 0-1.062-.396-1.996-1.174-2.776C26.247.494 25.347.1 24.35.1c-1.064 0-1.981.378-2.727 1.123a4.113 4.113 0 0 0-1.223 2.71l-.017.267h1.694l.022-.225c.06-.612.298-1.118.728-1.548.422-.422.92-.627 1.523-.627.602 0 1.1.205 1.523.626.422.424.627.922.627 1.524 0 1.457-.97 2.226-2.96 2.35-6.44.27-12.031 2.852-16.621 7.678C2.328 18.803 0 24.58 0 31.15c0 5.165 1.58 9.941 4.698 14.198 3.117 4.258 7.28 7.265 12.364 8.936 1.614.605 3.016.964 4.166 1.065 1.133.1 4.034.151 8.622.151H48.8v-1.7H29.85c-4.248 0-6.866-.033-7.775-.098" fill="#FF621F" mask="url(#d)"/></g><path d="M15.782 66.537c-2.42-1.503-4.41-3.61-5.915-6.26C8.363 57.629 7.6 54.86 7.6 52.05c0-4.444 1.641-8.372 4.878-11.675 3.24-3.304 7.17-5.079 11.683-5.276 2.984-.135 5.396-1.119 7.167-2.924C33.101 30.368 34 28.005 34 25.15c0-2.588-.95-4.868-2.822-6.775-1.875-1.908-4.106-2.875-6.628-2.875-2.656 0-4.936.933-6.777 2.773-1.837 1.837-2.837 4.147-2.973 6.865l-.013.262h1.706l.007-.243c.063-2.257.847-4.169 2.329-5.682 1.477-1.51 3.369-2.275 5.621-2.275 2.121 0 3.98.783 5.523 2.327 1.544 1.543 2.327 3.436 2.327 5.623 0 2.32-.783 4.28-2.334 5.831-1.414 1.542-3.373 2.356-5.826 2.42-4.91.2-9.223 2.177-12.82 5.875C7.725 42.973 5.9 47.27 5.9 52.05c0 3.03.75 5.946 2.23 8.669a19.145 19.145 0 0 0 6.081 6.739c2.013 1.342 3.89 2.246 5.576 2.684 1.675.437 4.186.658 7.463.658H48.8v-1.7H25.054c-3.405-.065-6.526-.927-9.272-2.563" fill="#FF621F"/><path d="M22.326 65.851c-1.52-.16-3.151-.77-4.851-1.818a13.802 13.802 0 0 1-5.11-5.06c-1.237-2.115-1.865-4.378-1.865-6.723 0-3.715 1.39-7.02 4.129-9.826 2.74-2.804 6.014-4.292 9.73-4.424 3.715-.135 6.8-1.422 9.17-3.825 2.37-2.403 3.571-5.44 3.571-9.025 0-3.317-1.251-6.302-3.72-8.873-2.472-2.573-5.342-3.877-8.53-3.877-3.52 0-6.572 1.235-9.074 3.67-2.503 2.436-3.841 5.488-3.976 9.07l-.01.26h1.705l.005-.245c.064-3.05 1.2-5.684 3.376-7.827 2.173-2.142 4.823-3.228 7.874-3.228 2.716 0 5.196 1.135 7.37 3.374 2.177 2.242 3.28 4.79 3.28 7.576 0 2.21-.66 4.42-1.952 6.553-1.04 1.43-2.406 2.582-4.061 3.424-1.657.845-3.351 1.273-5.045 1.273-4.182.136-7.857 1.81-10.922 4.976C10.355 44.443 8.8 48.17 8.8 52.35c0 3.307 1.01 6.336 3 9 1.987 2.663 4.636 4.56 7.867 5.636 1.152.407 2.2.647 3.114.713.907.068 3.415.1 7.67.1H48.8v-1.7H36.45c-7.83 0-12.581-.083-14.124-.248" fill="#FF621F"/><path d="M22.575 72.001c-3.868-.393-7.39-1.855-10.466-4.344C7.193 63.594 4.7 58.477 4.7 52.45c0-4.59 1.666-9.15 4.927-13.523 1.97-1.972 4.32-3.62 6.981-4.902 2.654-1.277 5.09-1.925 7.253-1.925 4.804-.206 7.24-2.544 7.24-6.95 0-1.993-.631-3.634-1.874-4.877-1.243-1.242-2.85-1.873-4.777-1.873-1.924 0-3.546.612-4.822 1.819-1.275 1.205-1.99 2.825-2.127 4.814l-.019.267h1.698l.02-.23c.126-1.527.672-2.75 1.62-3.638.949-.884 2.17-1.332 3.63-1.332 1.456 0 2.657.479 3.57 1.424.916.948 1.38 2.134 1.38 3.526 0 1.656-.48 2.958-1.424 3.87-.95.92-2.34 1.417-4.134 1.48-5.907.201-10.91 2.414-14.873 6.578C5.009 41.14 3 46.278 3 52.25c0 4.97 1.6 9.48 4.755 13.407 3.155 3.927 7.239 6.496 12.14 7.637 1.492.34 4.912.506 10.455.506H48.8v-1.7H30.35c-4.316 0-6.934-.033-7.775-.099" fill="#FF621F"/><mask id="f" fill="#fff"><use xlink:href="#e"/></mask><path fill="#FF621F" mask="url(#f)" d="M54.998 65h22.1v-1.7h-22.1zm0-2.8h22.1v-1.7h-22.1zm0 14.5h22.1V75h-22.1zm0-20.4h22.1v-1.7h-22.1zm0 3h22.1v-1.7h-22.1zm0 14.5h22.1v-1.7h-22.1zm0-5.8h22.1v-1.7h-22.1zm0 2.9h22.1v-1.7h-22.1z"/></g></svg>