<svg width="51" height="76" viewBox="0 0 51 76" xmlns="http://www.w3.org/2000/svg"><title>Step One</title><path d="M16.8.908V75.57h1.7V.626zm-5.6 1.217v73.446h1.7V1.7zm2.8-.616V75.57h1.7V1.226zM0 4.408V75.57h1.7V4.126zm2.8-.599V75.57h1.7V3.526zm5.6-1.201V75.57h1.7V2.325zM21.3 0l-1.7.425v75.146h1.7zM5.6 3.209V75.57h1.7V2.925zM28.4 66.87h22.1v-1.7H28.4zm0-8.699h22.1v-1.7H28.4zm0 17.399h22.1v-1.7H28.4zm0-20.4h22.1v-1.7H28.4zm0 5.9h22.1v-1.7H28.4zm0 11.6h22.1v-1.7H28.4zm0-8.8h22.1v-1.7H28.4zm0 5.901h22.1v-1.7H28.4z" fill="#FF621F" fill-rule="evenodd"/></svg>