<svg width="31" height="18" viewBox="0 0 31 18" xmlns="http://www.w3.org/2000/svg"><title>Path</title><path d="M30.096 1.219c.207-.702 0-1.219-1-1.219h-3.308c-.842 0-1.23.444-1.437.938 0 0-1.685 4.105-4.066 6.767-.77.77-1.123 1.016-1.545 1.016-.207 0-.528-.247-.528-.949V1.22c0-.844-.235-1.22-.932-1.22h-5.2c-.528 0-.842.393-.842.758 0 .798 1.19.983 1.314 3.23v4.874c0 1.067-.191 1.263-.612 1.263-1.124 0-3.853-4.122-5.47-8.839C6.144.371 5.824 0 4.976 0H1.668C.725 0 .534.444.534.938c0 .876 1.123 5.228 5.228 10.979 2.735 3.925 6.587 6.054 10.092 6.054 2.106 0 2.364-.472 2.364-1.286 0-3.752-.19-4.105.865-4.105.489 0 1.33.247 3.296 2.14 2.247 2.246 2.617 3.25 3.875 3.25h3.308c.944 0 1.421-.47 1.146-1.403-.63-1.96-4.88-5.992-5.071-6.262-.489-.629-.349-.91 0-1.471.005-.006 4.043-5.69 4.459-7.615z" fill="#A1A6B3"/></svg>