<svg width="28" height="29" viewBox="0 0 28 29" xmlns="http://www.w3.org/2000/svg"><title>Shape</title><path d="M23.688 4.895A13.413 13.413 0 0 0 14.13.932C6.68.932.616 6.995.616 14.447c0 2.38.62 4.705 1.802 6.757l-1.918 7 7.165-1.88a13.473 13.473 0 0 0 6.46 1.643h.005c7.445 0 13.643-6.063 13.643-13.514 0-3.61-1.534-7.001-4.085-9.558zM14.13 25.69c-2.02 0-4-.541-5.722-1.564L8 23.882l-4.25 1.114 1.133-4.145-.268-.426A11.196 11.196 0 0 1 2.9 14.447c0-6.192 5.04-11.232 11.237-11.232 3.002 0 5.82 1.169 7.939 3.293 2.118 2.125 3.42 4.943 3.415 7.945 0 6.197-5.169 11.237-11.36 11.237zm6.161-8.413c-.335-.17-1.997-.986-2.307-1.096-.31-.115-.536-.17-.761.17-.225.342-.87 1.097-1.072 1.328-.194.225-.395.256-.73.085-1.985-.992-3.287-1.771-4.596-4.018-.347-.596.347-.554.992-1.844.11-.225.055-.42-.03-.59-.086-.171-.761-1.833-1.041-2.509-.274-.657-.554-.566-.761-.578-.195-.012-.42-.012-.646-.012-.225 0-.59.085-.9.42-.311.34-1.182 1.156-1.182 2.818 0 1.662 1.212 3.27 1.376 3.495.17.225 2.38 3.634 5.771 5.101 2.143.925 2.983 1.005 4.055.846.651-.097 1.996-.815 2.276-1.607.28-.791.28-1.467.195-1.607-.079-.152-.304-.237-.639-.402z" fill="#A1A6B3"/></svg>