<svg xmlns="http://www.w3.org/2000/svg" width="44" height="38" viewBox="0 0 44 38"><defs><linearGradient id="a" x1="5.261%" x2="109.246%" y1="13.315%" y2="65.791%"><stop offset="0%" stop-color="#F09819"/><stop offset="100%" stop-color="#FF5858"/></linearGradient><linearGradient id="b" x1="14.507%" y1="0%" y2="79.106%"><stop offset="0%" stop-color="#F09819"/><stop offset="100%" stop-color="#FF5858"/></linearGradient></defs><g fill="none" fill-rule="evenodd"><path fill="url(#a)" d="M22.197 20.198l-5.542-5.353a2 2 0 0 0-2.828.05l-8.862 9.177a1.99 1.99 0 0 1-.512-.867l-2.06-7.188L29.194 8.33l2.062 7.188a2 2 0 0 1-1.372 2.474l-7.688 2.205zM28.1 4.51L1.296 12.196l-.624-2.18a2 2 0 0 1 1.37-2.473L25.003.96a2 2 0 0 1 2.473 1.371l.625 2.18zm-3.615 7.702a1 1 0 0 0-.686 1.237l.66 2.303a1 1 0 0 0 1.237.686l2.304-.66a1 1 0 0 0 .685-1.237l-.66-2.304a1 1 0 0 0-1.237-.685l-2.303.66z" transform="rotate(30 24.297 35.36)"/><g transform="translate(0 12)"><rect width="27.884" height="17.72" x="2.558" y="3.64" stroke="#FFF" stroke-width="2" rx="2" transform="rotate(-16 16.5 12.5)"/><rect width="4.396" height="4.396" x="6.521" y="16.521" fill="#FFF" rx="1" transform="rotate(-16 8.719 18.719)"/><path fill="url(#b)" d="M.842 7.996l29.872-.002.034 3.964-29.913.026z" transform="rotate(-16 15.792 9.989)"/></g></g></svg>