<svg xmlns="http://www.w3.org/2000/svg" width="36" height="36" viewBox="0 0 36 36"><g fill="#FFF"><path d="M18 0C8.059 0 0 8.059 0 18s8.059 18 18 18 18-8.059 18-18C35.988 8.064 27.936.012 18 0zm0 35.06v.005c-9.422 0-17.06-7.638-17.06-17.06C.94 8.582 8.578.944 18 .944 27.42.944 35.058 8.579 35.06 18c-.012 9.417-7.643 17.048-17.06 17.06z"/><path d="M18.916 16.038V6.447A.457.457 0 0 0 18.45 6c-.258 0-.466.2-.466.447v9.596c-.64.193-1.077.76-1.082 1.402.002.133.022.265.06.393l-5.775 4.331a.452.452 0 0 0-.084.652.5.5 0 0 0 .68.08l5.734-4.29c.266.2.594.312.933.316.852.004 1.546-.655 1.55-1.471.003-.65-.437-1.224-1.084-1.418zm-.466 1.96a.566.566 0 0 1-.578-.553c0-.306.259-.554.578-.554.32 0 .578.248.578.554a.566.566 0 0 1-.578.554z"/><path d="M31.004 10.529v-.036l-.027-.027a15.114 15.114 0 0 0-5.454-5.445L25.496 5h-.035a14.95 14.95 0 0 0-14.937 0h-.03l-.028.027a15.115 15.115 0 0 0-5.445 5.436L5 10.489v.035a14.95 14.95 0 0 0 0 14.937v.035l.036.045a15.114 15.114 0 0 0 5.427 5.423l.027.022.053.022A14.91 14.91 0 0 0 17.992 33a14.91 14.91 0 0 0 7.45-1.987h.05l.031-.027a15.11 15.11 0 0 0 5.432-5.445l.03-.04v-.036a14.91 14.91 0 0 0 .019-14.936zM30.41 24.64l-.753-.446a.462.462 0 0 0-.468.798l.758.445a14.183 14.183 0 0 1-4.519 4.5l-.004-.004-.446-.757a.46.46 0 0 0-.806.445l.445.767a13.984 13.984 0 0 1-6.18 1.67v-.89c0-.246-.2-.446-.446-.446a.486.486 0 0 0-.445.446v.89a13.983 13.983 0 0 1-6.167-1.648l.445-.753a.462.462 0 0 0-.797-.468l-.446.758a14.184 14.184 0 0 1-4.536-4.519l.758-.445a.46.46 0 0 0-.446-.807l-.766.446a13.981 13.981 0 0 1-1.667-6.185h.891a.463.463 0 0 0 0-.927h-.89a13.983 13.983 0 0 1 1.648-6.167l.753.446a.462.462 0 0 0 .468-.798l-.758-.445a14.183 14.183 0 0 1 4.519-4.5l.445.757a.46.46 0 0 0 .807-.446l-.446-.766a13.981 13.981 0 0 1 6.185-1.667v.891a.446.446 0 0 0 .891 0v-.89a13.97 13.97 0 0 1 6.167 1.648l-.446.753a.462.462 0 0 0 .798.468l.446-.758a14.189 14.189 0 0 1 4.536 4.519L29.18 11a.46.46 0 0 0 .446.807l.766-.446a13.981 13.981 0 0 1 1.667 6.185h-.891a.463.463 0 1 0 0 .927h.89a13.983 13.983 0 0 1-1.648 6.167z"/></g></svg>