<svg xmlns="http://www.w3.org/2000/svg" width="58" height="25" viewBox="0 0 58 25"><defs><linearGradient id="a" x1="100%" x2="0%" y1="0%" y2="100%"><stop offset="0%" stop-color="#F09819"/><stop offset="100%" stop-color="#FF5858"/></linearGradient><linearGradient id="b" x1="14.507%" y1="0%" y2="79.106%"><stop offset="0%" stop-color="#F09819"/><stop offset="100%" stop-color="#FF5858"/></linearGradient></defs><g fill="none" fill-rule="evenodd"><path stroke="#000" stroke-width="2" d="M49.184 15.673a3.918 3.918 0 1 1 0 7.837 3.918 3.918 0 0 1 0-7.837z"/><path fill="url(#a)" fill-rule="nonzero" d="M46.422 10.359L41.978 8.32a.841.841 0 0 1-.368-.319l-3.85-6.168A3.883 3.883 0 0 0 34.43 0H18.784a3.918 3.918 0 0 0-3.121 1.537l-4.952 6.52a.834.834 0 0 1-.446.305l-8.277 2.276A2.729 2.729 0 0 0 0 13.288v3.04c0 1.515 1.178 2.774 2.685 2.774h.72c.213-2.814 2.438-5.05 5.238-5.263 3.13-.239 5.86 2.117 6.098 5.263h17.92c.213-2.814 2.439-5.05 5.239-5.263 3.13-.239 5.86 2.117 6.097 5.263h1.318c1.507 0 2.685-1.26 2.685-2.773v-3.472a2.727 2.727 0 0 0-1.578-2.498z" transform="matrix(-1 0 0 1 58 0)"/><path stroke="#000" stroke-width="2" d="M19.796 15.673a3.918 3.918 0 1 1 0 7.837 3.918 3.918 0 0 1 0-7.837z"/><path fill="#000" d="M44.577 9.616l-3.98-6.386a2 2 0 0 0-1.698-.942H30.99v7.328h13.587zm-22 0L25.47 3.44a2 2 0 0 1 1.811-1.152h1.71v7.328h-6.414z"/><path stroke="url(#b)" stroke-linecap="round" stroke-linejoin="round" stroke-width="2" d="M6.5 1.5h7m-12 4h9m-10 4h6" transform="translate(1)"/></g></svg>