<svg xmlns="http://www.w3.org/2000/svg" width="25" height="25" viewBox="0 0 25 25"><defs><linearGradient id="a" x1="50%" x2="50%" y1="100%" y2="0%"><stop offset="0%" stop-color="#0C3483"/><stop offset="100%" stop-color="#6B8CCE"/></linearGradient></defs><path fill="url(#a)" fill-rule="evenodd" d="M16.062 12.4h-2.417v8.766H9.983v-8.709H7.99V9.431h1.933c0-.893.009-1.687 0-2.517 0-2.382 1.859-3.074 3.53-3.074h2.817v2.989h-1.633c-.06 0-1.055-.054-1.055.886.006.383 0 1.707 0 1.707h2.698l-.218 2.978zM12.5 0C5.597 0 0 5.597 0 12.5S5.597 25 12.5 25C19.404 25 25 19.404 25 12.5S19.404 0 12.5 0z"/></svg>