<svg width="42" height="27" viewBox="0 0 42 27" xmlns="http://www.w3.org/2000/svg"><title>group</title><path d="M28.236 15.156l-3.575-1.59a.7.7 0 0 1-.415-.639v-.982a5.21 5.21 0 0 0 1.972-4.081V6.482c.396-.219.658-.641.658-1.115v-.134A5.224 5.224 0 0 0 21.658.015h-1.315a5.224 5.224 0 0 0-5.219 5.218V6.45c0 .416.18.793.491 1.034a1.2 1.2 0 0 0 .167.108v.272a5.21 5.21 0 0 0 1.973 4.081v.982a.7.7 0 0 1-.416.64l-3.575 1.589a3.248 3.248 0 0 0-1.928 2.965v8.155a.615.615 0 0 0 1.23 0V18.12c0-.07.006-.141.013-.211l1.648 1.647c.256.257.397.597.397.96v5.759a.615.615 0 0 0 1.23 0v-5.759a2.57 2.57 0 0 0-.757-1.83l-1.964-1.964a2.01 2.01 0 0 1 .63-.443l3.515-1.562 2.607 2.606v8.952a.615.615 0 0 0 1.23 0v-8.951l2.607-2.607 3.515 1.562c.241.107.454.26.63.443l-1.963 1.964a2.57 2.57 0 0 0-.758 1.83v5.759a.615.615 0 0 0 1.23 0v-5.759c0-.362.141-.703.398-.96l1.647-1.647c.007.07.012.14.012.211v8.155a.615.615 0 0 0 1.23 0V18.12a3.249 3.249 0 0 0-1.927-2.965zM21 16.2l-2.287-2.288c.174-.292.272-.63.272-.985v-.25a5.19 5.19 0 0 0 2.015.405c.714 0 1.395-.144 2.015-.405v.25c0 .354.098.693.272.986L21 16.2zm0-4.349a3.992 3.992 0 0 1-3.988-3.987v-.277a3.637 3.637 0 0 0 1.118-.725.615.615 0 0 0-.835-.905c-.308.285-.615.468-.914.546a.1.1 0 0 1-.016.003.125.125 0 0 1-.01-.056V5.233a3.992 3.992 0 0 1 3.988-3.987h1.315a3.992 3.992 0 0 1 3.987 3.987v.135c0 .02-.012.037-.027.04-3.684.728-5.532-.644-6.156-1.267a.615.615 0 1 0-.87.87c1.91 1.91 4.699 1.945 6.396 1.74v1.113A3.992 3.992 0 0 1 21 11.85zm-9.906-.041v-1.316a4.56 4.56 0 0 0-2.09-3.831 2.59 2.59 0 0 0-2.47-3.36 2.59 2.59 0 0 0-2.47 3.36 4.56 4.56 0 0 0-2.091 3.83v1.316c0 1.554.782 2.929 1.972 3.752v1.353a.696.696 0 0 1-.386.626L1.43 18.604A2.574 2.574 0 0 0 0 20.92v5.357a.615.615 0 0 0 1.23 0v-5.09l1.003 1.002c.256.256.397.597.397.96v3.128a.615.615 0 0 0 1.23 0v-3.129c0-.69-.268-1.34-.757-1.83l-1.395-1.394-.02-.02c.087-.077.185-.144.293-.198l2.128-1.064a1.96 1.96 0 0 0 .305-.19l1.504 1.504v6.32a.615.615 0 0 0 1.23 0v-6.32l1.505-1.504c.095.071.196.136.305.19l.587.293a.612.612 0 0 0 .825-.275.615.615 0 0 0-.275-.825l-.587-.293a.696.696 0 0 1-.387-.626v-1.353a4.558 4.558 0 0 0 1.973-3.753zm-4.56-7.277a1.359 1.359 0 0 1 1.335 1.6 4.545 4.545 0 0 0-2.67 0 1.359 1.359 0 0 1 1.334-1.6zm0 2.63a3.334 3.334 0 0 1 3.33 3.331v.223c-2.562.784-4.088-1.164-4.154-1.25a.615.615 0 0 0-.927-.066c-.587.588-1.162.871-1.578 1.008a3.333 3.333 0 0 1 3.328-3.245zm0 11.667l-1.422-1.422c.041-.158.064-.324.064-.494v-.75a4.544 4.544 0 0 0 2.715 0v.75c0 .17.023.336.064.494L6.533 18.83zm0-3.69a3.334 3.334 0 0 1-3.33-3.33v-.128a4.933 4.933 0 0 0 1.976-.985 5.55 5.55 0 0 0 1.141.83 4.894 4.894 0 0 0 3.537.465 3.334 3.334 0 0 1-3.325 3.147zm34.036 2.15l-3.444-1.722a.696.696 0 0 1-.386-.626v-.872a3.894 3.894 0 0 0 1.315-2.918v-.7h.042c.34 0 .615-.276.615-.616V8.521a3.908 3.908 0 0 0-3.903-3.903h-1.315a3.908 3.908 0 0 0-3.903 3.903v1.315a.615.615 0 0 0 .657.615v.7c0 1.16.51 2.203 1.316 2.919v.872a.696.696 0 0 1-.387.626.615.615 0 1 0 .55 1.1 1.96 1.96 0 0 0 .305-.19l1.504 1.504v8.294a.615.615 0 0 0 1.23 0v-8.294l1.505-1.504c.095.071.196.136.305.19l3.332 1.666-1.01 1.01a2.571 2.571 0 0 0-.759 1.83v5.102a.615.615 0 0 0 1.23 0v-5.101c0-.363.142-.704.398-.96l.957-.958c.03.112.045.228.045.347v6.672a.615.615 0 0 0 1.23 0v-6.672a2.571 2.571 0 0 0-1.43-2.315zm-9.75-8.196V8.52a2.676 2.676 0 0 1 2.673-2.672h1.315a2.676 2.676 0 0 1 2.673 2.672v.684c-2.675-.145-4.289-1.185-4.304-1.196a.614.614 0 0 0-.777.077c-.588.589-1.165.872-1.58 1.009zm3.33 7.762l-1.421-1.422c.041-.158.064-.324.064-.493v-.131a3.884 3.884 0 0 0 2.715 0v.13c0 .17.023.336.064.494l-1.422 1.422zm0-3.033a2.676 2.676 0 0 1-2.672-2.672v-.992c.43-.172.933-.446 1.444-.881.646.336 1.997.917 3.901 1.109v.764a2.676 2.676 0 0 1-2.673 2.672z"/></svg>