<svg xmlns="http://www.w3.org/2000/svg" width="28" height="27" viewBox="0 0 28 27"><path fill="#FFF" fill-rule="evenodd" d="M18.632 10.037a1.02 1.02 0 0 1-1.029-1.01c0-.558.461-1.01 1.03-1.01.566 0 1.025.452 1.025 1.01 0 .559-.459 1.01-1.026 1.01zm-4.608.427c-.753 0-1.476.293-2.012.813-.299.29-.536.637-.698 1.018-.162.38-.245.789-.245 1.201a2.983 2.983 0 0 0 .828 2.242 3.094 3.094 0 0 0 2.228.944 3.076 3.076 0 0 0 2.227-.944 2.966 2.966 0 0 0 .828-2.242 2.723 2.723 0 0 0-.152-1.197 2.79 2.79 0 0 0-1.683-1.671 2.871 2.871 0 0 0-1.215-.164h-.106zm-2.889 5.978a4.133 4.133 0 0 1-1.242-2.946 4.183 4.183 0 0 1 .327-1.659 4.214 4.214 0 0 1 .955-1.403A4.107 4.107 0 0 1 14.13 9.33a4.068 4.068 0 0 1 1.661.249 4.01 4.01 0 0 1 1.411.896 3.89 3.89 0 0 1 1.164 3.021 4.136 4.136 0 0 1-1.24 2.947 4.273 4.273 0 0 1-2.996 1.22 4.273 4.273 0 0 1-2.995-1.22zm-.33-9.905c-.937 0-1.834.365-2.496 1.016a3.444 3.444 0 0 0-1.032 2.452v6.98c0 .92.371 1.803 1.032 2.453a3.559 3.559 0 0 0 2.495 1.017h6.652c.935 0 1.833-.366 2.494-1.017a3.439 3.439 0 0 0 1.033-2.453v-6.98c0-.919-.372-1.802-1.033-2.453a3.559 3.559 0 0 0-2.494-1.014h-6.652zm0 15.094a4.762 4.762 0 0 1-3.34-1.36 4.61 4.61 0 0 1-1.385-3.286v-6.98c0-1.232.498-2.414 1.384-3.285a4.762 4.762 0 0 1 3.34-1.36h6.652c1.253 0 2.455.49 3.34 1.36a4.607 4.607 0 0 1 1.384 3.285v6.98a4.61 4.61 0 0 1-1.384 3.285 4.762 4.762 0 0 1-3.34 1.36h-6.652z"/></svg>