<svg xmlns="http://www.w3.org/2000/svg" width="25" height="25" viewBox="0 0 25 25"><defs><linearGradient id="a" x1="100%" x2="0%" y1="50%" y2="50%"><stop offset="0%" stop-color="#B465DA"/><stop offset="28.045%" stop-color="#CF6CC9"/><stop offset="67.597%" stop-color="#EE609C"/><stop offset="100%" stop-color="#EE609C"/></linearGradient></defs><g fill="url(#a)" fill-rule="evenodd"><path d="M17.211 9.037a1.019 1.019 0 0 1-1.027-1.01c0-.558.46-1.01 1.027-1.01a1.02 1.02 0 0 1 1.027 1.01c0 .558-.46 1.01-1.027 1.01m-1.505 6.405a4.27 4.27 0 0 1-2.996 1.22 4.269 4.269 0 0 1-2.996-1.22 4.132 4.132 0 0 1-1.24-2.946 4.203 4.203 0 0 1 .325-1.659c.22-.527.545-1.003.955-1.404A4.104 4.104 0 0 1 12.71 8.33a4.085 4.085 0 0 1 1.661.25 4.007 4.007 0 0 1 1.41.896c.401.394.711.867.912 1.387.201.521.288 1.077.253 1.634a4.136 4.136 0 0 1-1.24 2.946m.33-9.905H9.384c-.936 0-1.833.365-2.494 1.016a3.437 3.437 0 0 0-1.033 2.453v6.98c0 .92.371 1.801 1.033 2.451a3.554 3.554 0 0 0 2.494 1.017h6.652c.935 0 1.832-.366 2.494-1.017a3.439 3.439 0 0 0 1.033-2.452v-6.98c0-.92-.372-1.803-1.033-2.453a3.557 3.557 0 0 0-2.494-1.016"/><path d="M14.955 10.28a2.853 2.853 0 0 0-2.245-.814h-.106a2.89 2.89 0 0 0-2.012.811 3.087 3.087 0 0 0-.943 2.219 2.997 2.997 0 0 0 .828 2.242 3.098 3.098 0 0 0 3.441.698 3.015 3.015 0 0 0 1.664-1.735c.142-.386.203-.796.18-1.205a2.749 2.749 0 0 0-.807-2.217"/><path d="M20.76 15.986a4.61 4.61 0 0 1-1.384 3.284 4.765 4.765 0 0 1-3.34 1.361H9.384a4.763 4.763 0 0 1-3.34-1.36 4.606 4.606 0 0 1-1.384-3.286V9.008c0-1.233.497-2.415 1.384-3.286a4.762 4.762 0 0 1 3.34-1.36h6.652c1.253 0 2.454.489 3.34 1.36a4.607 4.607 0 0 1 1.384 3.286v6.979zM12.5 0C5.596 0 0 5.597 0 12.5S5.596 25 12.5 25 25 19.404 25 12.5 19.404 0 12.5 0z"/></g></svg>