<svg xmlns="http://www.w3.org/2000/svg" width="39" height="40" viewBox="0 0 39 40"><defs><linearGradient id="a" x1="14.507%" y1="0%" y2="79.106%"><stop offset="0%" stop-color="#F09819"/><stop offset="100%" stop-color="#FF5858"/></linearGradient></defs><g fill="none" fill-rule="evenodd"><path fill="url(#a)" d="M1.53 36.353c-.676 0-1.219-.633-1.219-1.4V19.358c0-.777.551-1.4 1.22-1.4h5.093c.677 0 1.22.633 1.22 1.4v15.585c0 .777-.552 1.4-1.22 1.4H1.53v.01z" transform="translate(0 2)"/><path stroke="#000" stroke-width="2" d="M12.984 35.976l-.11-.007h-.008v1l.118-.993zm23.31-9.113a.121.121 0 0 0-.02.145l.04.066c-.007-.03-.003-.019.007.011l.1.164v.055a4.38 4.38 0 0 1 .383 1.57c.078 1.452-.615 2.727-1.96 3.736a.138.138 0 0 0-.05.156l.058.163v.045c.013.055.025.113.037.175.143.757.1 1.576-.276 2.374-.035.075-.073.15-.114.221-.725 1.3-2.217 2.158-4.353 2.611-1.614.348-3.755.412-6.298.207h-.096c-2.388.051-4.951-.049-7.52-.253a76.68 76.68 0 0 1-3.472-.347h-.012l-1.933-.23.23-1.073a2.54 2.54 0 0 0 .053-.525V22.555c0-.246-.04-.497-.114-.741l-.085-.275.075-.279c.303-1.128.859-2.287 1.786-3.285l.111-.103c1.49-1.181 3.175-3.814 4.853-7.319a68.57 68.57 0 0 0 2.408-5.69c.002-.004.003-.014-.004-.053-.174-1.148-.115-2.48.234-3.077l.296-.506.586.011c1.169.022 2.35.44 3.147 1.541 1.087 1.503 1.048 3.908.039 6.97-1.276 3.867-1.381 5.805-.693 6.416.21.187.533.232.816.13l.115-.034c.567-.13 1.06-.23 1.434-.288l.08-.018.058-.013c3.76-.82 7.943-.755 9.64.79.856.783 1.153 1.775 1.004 2.802a3.973 3.973 0 0 1-.561 1.535c-.03.046-.022.107.073.195a4.614 4.614 0 0 1 .599.748c.363.565.595 1.19.62 1.86.047 1.047-.42 2.058-1.32 2.99z"/></g></svg>