<svg xmlns="http://www.w3.org/2000/svg" width="265" height="257" viewBox="0 0 265 257"><defs><linearGradient id="a" x1="14.507%" y1="0%" y2="79.106%"><stop offset="0%" stop-color="#F09819"/><stop offset="100%" stop-color="#FF5858"/></linearGradient></defs><g fill="none" fill-rule="evenodd"><path fill="#FFF" d="M33.879 110.013c-1.347-.546-3.075-.818-5.183-.818l-4.694.11H12.217c-.292 0-.674-.256-1.146-.767-.469-.511-.892-.767-1.25-.767-1.383 0-2.328.22-2.836.659-.147.147-.347.329-.6.548a1.38 1.38 0 0 1-.927.33 6.844 6.844 0 0 0-2.186.329 4.244 4.244 0 0 0-2.292 1.315 3.506 3.506 0 0 0-.872 2.41c0 1.902.982 3.034 2.946 3.398.156.074.321.127.492.156.151.02.289.099.382.22a.91.91 0 0 1 .11.494l.109 3.616c.071 3.362.326 8.33.763 14.906.436 6.869.654 13.81.654 20.823 0 3.945-.036 6.941-.109 8.987 0 1.973-.073 5.004-.219 9.092-.146 5.992-.22 10.523-.218 13.59l.11 11.508.108 6.466v2.137c-.006 1.046.067 2.09.219 3.124.112.858.41 1.681.873 2.411a5.995 5.995 0 0 0 1.79 2.033 3.983 3.983 0 0 0 2.342.822 2.796 2.796 0 0 0 2.186-.986 5.232 5.232 0 0 0 1.638-2.96c.217-1.156.327-2.33.328-3.507v-2.525c.071-3.142-.001-6.723-.219-10.74-.147-2.631-.22-4.604-.219-5.918v-8.545c0-8.913-.145-15.562-.437-19.947a25.14 25.14 0 0 0 3.928-.33c1.382-.219 2.291-.365 2.73-.438a110.75 110.75 0 0 1 3.055-.275c1.382-.11 2.51-.384 3.383-.821 1.236-.657 1.855-1.68 1.855-3.07a3.476 3.476 0 0 0-.547-1.863 3.382 3.382 0 0 0-1.528-1.315c-1.02-.44-2.33-.659-3.928-.659l-3.493.11a17.744 17.744 0 0 0-2.292.11l-2.292.11a5.861 5.861 0 0 0-.654.054c-.291.038-.437-.127-.437-.494a13.014 13.014 0 0 1-.11-1.973l-.108-7.233.109-15.016c0-2.483-.073-6.209-.219-11.178h5.129c3.492 0 6.111-.073 7.858-.22.363 0 1.472-.051 3.328-.156 1.856-.104 3.384-.506 4.584-1.205 1.2-.694 1.8-1.7 1.8-3.015.006-1.537-.663-2.58-2.01-3.127zm44.604 18.248l.11-9.426c0-1.46.437-9.08-2.51-11.286-2.1-1.568-4.493.627-5.621 1.863-1.13 1.237-1.691 3.18-1.691 5.81 0 .805.073 2.156.218 4.055.147 1.754.22 3.105.219 4.055.073 5.846.182 15.454.328 28.825.146 13.37.255 23.965.328 31.784v7.014c0 3.872-.11 6.868-.328 8.987-.219 2.12-.692 3.654-1.42 4.603-.29.437-.672 1.095-1.145 1.972-.474.876-1.056 1.498-1.746 1.863s-1.655.548-2.891.55c-2.765 0-4.565-2.248-5.402-6.741-.837-4.494-1.253-11.563-1.249-21.208v-12.062c0-3.658.11-6.617.328-8.877.147-2.927.22-5.776.218-8.548 0-3.14-.145-7.78-.437-13.919-.071-1.534-.144-3.47-.218-5.81-.074-2.338-.11-5.041-.11-8.11l.11-10.082c0-4.017-1.457-6.026-4.372-6.027-1.31 0-2.255.456-2.836 1.37a6.311 6.311 0 0 0-.982 3.014c-.072 1.096-.109 2.74-.11 4.932 0 .292-.073 2.74-.218 7.342-.146 4.602-.219 8.256-.219 10.96 0 .805.11 4.933.328 12.384.147 3.8.22 6.357.219 7.672v27.95l-.11 11.836a75.146 75.146 0 0 0 .328 7.562 23.52 23.52 0 0 0 1.42 6.027c1.382 3.872 3.856 6.356 7.42 7.452a23.02 23.02 0 0 0 6.87.986c5.82 0 9.858-1.828 12.113-5.486 2.254-3.658 3.455-9.576 3.602-17.754l-.764-53.594c.002-2.844.076-6.824.22-11.938zm46.572 38.414a46.983 46.983 0 0 1-.055-2.136 37.471 37.471 0 0 0-.328-5.041c-.436-2.85-1.236-4.896-2.4-6.137-1.165-1.242-3.09-2.374-5.777-3.397a21.61 21.61 0 0 0 2.62-7.398c.436-2.666.654-5.716.654-9.151l-.11-7.995v-6.803a23.517 23.517 0 0 0-.218-2.63 9.572 9.572 0 0 1-.328-2.52v-1.535c0-1.315-.346-2.356-1.037-3.125-.69-.768-1.655-1.151-2.891-1.15-1.31 0-2.183.438-2.62 1.315-.437.877-.801 2.265-1.093 4.165a177.15 177.15 0 0 1-.437 2.795 23.82 23.82 0 0 0-.328 3.78l.11 6.687c.144 4.389.217 7.785.218 10.189l.11 8.11c0 2.411-1.892 3.617-5.676 3.617-.842.01-1.683-.064-2.51-.22-.437 0-.654-.291-.654-.876l.109-24.003-.11-5.37c-.072-1.168-.109-2.885-.109-5.151 0-2.045-.527-3.379-1.583-4-1.055-.622-2.492-.933-4.31-.932-2.257 0-4.078.402-5.465 1.206-1.386.803-2.077 2.119-2.073 3.945 0 .805.346 1.517 1.037 2.137a5.446 5.446 0 0 0 2.342 1.254c.196.065.396.118.6.157.138.017.27.07.382.157a.645.645 0 0 1 .109.438l.11 3.727c0 4.238.108 8.44.327 12.603.582 10.521.873 20.421.873 29.7 0 3.58-.073 8.878-.219 15.892a382.795 382.795 0 0 0-.328 15.892v12.933c0 2.045.146 3.798.437 5.26.292 1.462.947 2.56 1.965 3.292.507.438 1.162.657 1.964.659 1.38 0 2.436-.128 3.164-.385.729-.256 1.165-.785 1.31-1.589.363-1.827.545-6.138.546-12.932v-5.487c0-7.598-.109-13.809-.327-18.632l-.219-8.33c-.147-7.524-.183-11.908-.11-13.152 0-.584.291-.876.873-.876l5.348.549 4.584.548c.145 0 .491.038 1.036.11.545.072.89.257 1.037.549.218.292.328 1.024.328 2.194l-.11 2.63c0 3.216.146 5.627.438 7.233.728 3.727 1.092 12.312 1.092 25.755a64.59 64.59 0 0 1-.218 4.987 218.385 218.385 0 0 1-.328 3.89c-.436 3.8-.654 6.722-.654 8.768a4.906 4.906 0 0 0 .654 2.466c.38.717.998 1.278 1.745 1.59a3.836 3.836 0 0 0 2.186.656c1.31 0 2.51-.512 3.602-1.535s1.642-2.183 1.652-3.48a4.518 4.518 0 0 0-.156-1.37 2.622 2.622 0 0 1-.157-.711c.072-2.778.182-7.217.328-13.317.147-6.1.22-11.598.219-16.494 0-2.483-.291-6.136-.873-10.96a34.148 34.148 0 0 1-.298-3.015zm47.479-49.812c0-2.194-.037-3.838-.11-4.931a6.311 6.311 0 0 0-.982-3.015c-.582-.912-1.528-1.369-2.836-1.37-2.915 0-4.372 2.01-4.372 6.027l.11 10.083c0 3.068-.037 5.772-.11 8.11a368.364 368.364 0 0 1-.218 5.81c-.292 6.137-.438 10.777-.438 13.918 0 2.778.073 5.627.22 8.548.218 2.266.327 5.225.327 8.877v12.056c0 9.645-.416 16.714-1.25 21.208-.832 4.494-2.632 6.74-5.401 6.74-1.237 0-2.201-.183-2.891-.548-.69-.366-1.272-.987-1.746-1.864-.473-.877-.855-1.534-1.146-1.972-.728-.95-1.201-2.484-1.419-4.602-.217-2.119-.327-5.114-.328-8.987v-7.014c.072-7.818.181-18.412.328-31.783.147-13.372.256-22.98.328-28.825 0-.949.073-2.3.219-4.055.144-1.899.217-3.25.218-4.055 0-2.63-.564-4.567-1.69-5.81-1.128-1.242-3.001-1.863-5.621-1.863-1.893 0-3.567.418-5.021 1.254-1.454.836-2.183 1.95-2.186 3.342 0 1.243.327 2.138.982 2.685.655.546 1.565 1.04 2.73 1.48.654.22.981 1.06.981 2.52l.11 9.426c.144 5.115.217 9.098.218 11.946l-.763 53.594c.144 8.182 1.345 14.1 3.601 17.754 2.257 3.653 6.295 5.482 12.114 5.486a23.02 23.02 0 0 0 6.87-.986c3.563-1.096 6.037-3.58 7.42-7.452a23.575 23.575 0 0 0 1.42-6.027c.235-2.514.345-5.037.327-7.562l-.11-11.837v-27.946c0-1.315.074-3.872.22-7.672.218-7.452.327-11.58.327-12.384 0-2.702-.073-6.355-.218-10.96-.146-4.604-.217-7.052-.214-7.344zm45.258 55.128a661.15 661.15 0 0 0-.437-2.575 21.245 21.245 0 0 1-.328-3.562c0-3.068-.29-5.297-.872-6.686-.582-1.388-1.82-2.813-3.711-4.274a6.234 6.234 0 0 0-1.474-.712 15.477 15.477 0 0 1-1.474-.604c2.62-2.118 4.584-4.62 5.894-7.507 1.309-2.886 1.964-6.046 1.964-9.48 0-3.14-1.037-6.41-3.11-9.81a40.47 40.47 0 0 0-7.913-9.316c-3.202-2.812-6.44-4.913-9.712-6.302a3.547 3.547 0 0 1-1.093-.658c-.219-.22-.401-.627-.546-1.205a2.347 2.347 0 0 0-1.25-1.316 4.686 4.686 0 0 0-2.018-.438c-1.02 0-2.113.474-3.279 1.424-.583.367-1.42.623-2.51.767a5.48 5.48 0 0 0-2.79 1.152 3.022 3.022 0 0 0-1.146 2.466c0 1.018.35 2.005.99 2.795.655.836 1.455 1.254 2.401 1.254l.873-.11c.582 0 .836.475.763 1.425-.073.805-.11 1.974-.11 3.507 0 3.142.292 7.782.874 13.918.508 4.384.798 8.33.872 11.837 0 6.285-.072 11.764-.218 16.439 0 1.314-.018 3.123-.055 5.425a735.056 735.056 0 0 0-.054 10.467l.109 8.657c.072 1.973.108 4.896.11 8.768 0 2.337-.074 5.04-.22 8.11-.072.95-.109 2.081-.109 3.397 0 1.973.365 3.562 1.093 4.767.729 1.205 1.93 1.808 3.602 1.809 1.746 0 2.91-.418 3.492-1.254.582-.836.873-2.06.873-3.671.002-.696.038-1.39.11-2.082a22.78 22.78 0 0 0 .109-2.195c0-4.821-.052-11.214-.156-19.179-.105-7.964-.196-14.175-.274-18.632.014-.805-.022-1.61-.109-2.41 0-2.119-.073-3.69-.219-4.713a6.987 6.987 0 0 0-.109-.876c-.073-.439.037-.694.328-.766a9.952 9.952 0 0 1 1.745-.11c3.275 0 5.967.438 8.077 1.315.582.22.927.585 1.036 1.097.112.597.13 1.207.055 1.81a6.506 6.506 0 0 0 0 1.698c.219.732.4 1.9.546 3.507.146 1.606.292 2.812.438 3.616.945 3.8 1.418 10.34 1.419 19.619 0 1.681-.4 6.832-1.2 15.453l-.438 4.055a5.047 5.047 0 0 0 1.31 3.448 4.19 4.19 0 0 0 3.279 1.48c1.236 0 2.437-.438 3.601-1.315 1.165-.877 1.747-1.936 1.746-3.179-.027-.59-.1-1.176-.219-1.754a11.144 11.144 0 0 1-.218-1.864c0-.293.109-1.425.327-3.397l.22-10.74.108-3.946c.072-1.534.109-3.398.11-5.59 0-2.703-.183-6.1-.547-10.19a23.5 23.5 0 0 0-.556-3.064zm-12.877-26.084c-2.256 2.485-5.13 4.129-8.62 4.931l-.11-3.835c-.073-.804-.11-2.01-.11-3.617l-.109-3.616-.437-19.728c4.001 2.339 7.13 5.097 9.386 8.275 2.257 3.178 3.385 6.119 3.384 8.822a12.622 12.622 0 0 1-3.388 8.768h.004zm58.455 13.92c-.366-16.292-.511-25.572-.438-27.839-.002-.55.034-1.1.11-1.644.074-.545.11-1.094.109-1.644 0-1.316-.327-2.413-.982-3.292a3.332 3.332 0 0 0-.6-.659 1.455 1.455 0 0 1-.491-.766l-.764-3.18c-1.528-5.187-3.674-8.84-6.438-10.96a9.013 9.013 0 0 0-3.766-1.694 25.8 25.8 0 0 0-4.748-.384h-3.492l-2.837-.11c-2.548 0-4.549.402-6.003 1.206-1.165.731-1.746 1.718-1.745 2.96a3.77 3.77 0 0 0 1.092 2.684c.729.768 1.675 1.151 2.837 1.151-1.529 2.412-2.548 5.737-3.058 9.974-.51 4.238-.765 9.353-.764 15.344 0 1.753.146 4.31.437 7.671.29 3.069.437 5.297.438 6.686l.872 29.044c0 1.315-.145 3.288-.437 5.917-.291 3.069-.437 5.334-.437 6.796 0 3.798.637 7.324 1.91 10.576 1.272 3.252 3.327 5.681 6.165 7.288a16.444 16.444 0 0 0 8.188 2.09c2.057.011 4.095-.38 6.003-1.15a11.09 11.09 0 0 0 4.693-3.561c2.036-2.411 3.364-5.279 3.983-8.603.62-3.324.929-7.215.928-11.672-.147-5.193-.402-15.936-.765-32.23zm-12.442 47.676c-.946.731-1.856 1.097-2.729 1.097-1.675 0-3.112-1.078-4.31-3.234-1.2-2.156-1.98-4.256-2.342-6.302a28.383 28.383 0 0 1-.438-5.26 58.873 58.873 0 0 1 .328-6.247c.072-.732.109-1.791.11-3.18 0-1.68-.037-3.143-.11-4.388a131.625 131.625 0 0 0-.218-3.18 23.125 23.125 0 0 1-.219-2.41 184.297 184.297 0 0 1-.328-7.452c-.072-2.774-.108-4.71-.109-5.81-.147-5.99-.292-10.41-.437-13.261l-.11-2.52c-.29-3.946-.437-6.977-.437-9.093 0-6.793 1.201-12.309 3.602-16.549.145-.219.383-.627.709-1.205a10.27 10.27 0 0 1 1.146-1.644 3.718 3.718 0 0 1 1.528-1.098 1.255 1.255 0 0 1 1.25.275c.436.372.806.817 1.092 1.315.328.547.528.894.6 1.04 3.274 5.042 4.984 9.316 5.128 12.823.072 2.047.109 5.077.11 9.092.072 1.316.108 3.325.109 6.027.145 6.723.29 11.801.437 15.234l.219 7.672c.072 2.558.144 5.736.218 9.535.074 3.799.11 8.22.11 13.262.002 7.748-1.635 12.9-4.909 15.459v.002z"/><path fill="url(#a)" fill-rule="nonzero" d="M39.667.084h11.462c2.606 6.073 7.055 11.3 12.575 14.868 1.067-2.997 2.928-5.68 5.281-7.795 3.058.338 6.042 1.455 8.523 3.3 1.523 1.092 2.797 2.486 3.95 3.961 1.226-1.571 2.603-3.045 4.25-4.176 2.414-1.716 5.28-2.754 8.21-3.086a19.08 19.08 0 0 1 5.278 7.756c5.57-3.485 9.968-8.791 12.6-14.828h11.46a44.241 44.241 0 0 1-14.91 21.607c-2.29 1.843-4.814 3.37-7.414 4.726.045.69.084 1.376.112 2.072a47.971 47.971 0 0 0 7.006-4.172 25582.65 25582.65 0 0 0 24.369 16.723c-5.479 2.56-11.531 4.325-17.62 3.78a5377.662 5377.662 0 0 1-13.754-14.511c-.021.88-.077 1.756-.136 2.633 4.395 4.636 8.788 9.274 13.18 13.914-4.068 1.528-8.58 2.071-12.835 1.06a1.41 1.41 0 0 1-.71-.38 42.56 42.56 0 0 1-2.73-2.648 35.57 35.57 0 0 1-3.973 6.587 38.852 38.852 0 0 1-6.76 6.709c.6 0 1.204-.04 1.798.053.567.098 1.063.412 1.528.741.506-.357 1.06-.691 1.686-.76.606-.05 1.216-.055 1.823-.013.673.04 1.272.39 1.81.774.569-.415 1.22-.773 1.94-.782.903-.018 1.876-.116 2.698.348.762.37 1.31 1.07 1.63 1.845 8.09.175 16.182.34 24.273.494v2.265c-8.03.165-16.062.327-24.092.485 0 1.468-.009 2.936.005 4.404 3.51-.105 7.022-.138 10.533-.223v5.32c-3.765-.069-7.53-.151-11.293-.223-.502.563-1.166 1-1.911 1.137-1.29.173-2.73.154-3.78-.741-.468.327-.967.64-1.54.741-1.29.172-2.73.156-3.779-.741-.57.415-1.218.762-1.936.787-.953.04-1.989.098-2.835-.424-.484-.252-.846-.67-1.165-1.102-1.984-.026-3.964-.09-5.946-.12-.608.991-1.698 1.672-2.865 1.662-1.106.089-2.272-.06-3.15-.8-.484.336-1.002.664-1.597.741a8.796 8.796 0 0 1-1.953.026c-.658-.055-1.242-.394-1.77-.77-.547.395-1.16.741-1.847.778-.963.051-2.005.12-2.874-.39-.658-.337-1.127-.941-1.47-1.588-8.117-.197-16.236-.328-24.352-.503v-2.27c8.028-.147 16.057-.335 24.085-.471.024-1.468.005-2.936.009-4.404-3.388.074-6.778.129-10.166.211-.01-1.77 0-3.54 0-5.31 3.597.065 7.193.168 10.79.197.58-.766 1.47-1.319 2.437-1.361.56-.032 1.12-.026 1.68.018.637.063 1.2.4 1.713.766.525-.374 1.102-.722 1.758-.77.61-.048 1.223-.048 1.833 0 .642.059 1.211.4 1.728.767.485-.343 1.01-.669 1.607-.752.57-.074 1.145-.043 1.716-.042-3.4-2.662-6.447-5.837-8.714-9.544a34.013 34.013 0 0 1-2.03-3.748 41.753 41.753 0 0 1-2.835 2.729c-.23.22-.55.288-.85.355-4.184.936-8.61.396-12.6-1.113a6393.76 6393.76 0 0 1 13.175-13.914 57.766 57.766 0 0 1-.133-2.627c-4.39 4.628-8.776 9.259-13.16 13.892-.272.256-.497.67-.923.635-3.58.291-7.185-.254-10.622-1.26a44.447 44.447 0 0 1-6.668-2.541c8.124-5.573 16.248-11.147 24.37-16.722a47.47 47.47 0 0 0 7.023 4.165c.025-.691.064-1.376.105-2.072-6.946-3.503-12.96-8.869-17.198-15.434A43.821 43.821 0 0 1 39.667.084zM63.86 60.916c-.322.081-.467.44-.439.747v9.029c-.025.317.186.66.518.7.377.05.758.052 1.135.008.348-.02.588-.37.558-.705.009-3.008 0-6.018 0-9.025.03-.325-.14-.704-.482-.763a4.744 4.744 0 0 0-1.294.009h.004zm5.298 0c-.315.095-.448.443-.42.75v9.014c-.026.318.171.656.499.708.41.056.825.056 1.235 0 .315-.064.502-.4.475-.708.008-3.002 0-6.005 0-9.008.035-.33-.148-.718-.501-.768a4.722 4.722 0 0 0-1.29.017l.002-.005zm5.295.012c-.302.106-.426.45-.401.752v9.003c-.025.31.166.645.486.701.412.06.83.06 1.242 0 .315-.056.506-.392.481-.7.007-3.005 0-6.01 0-9.012.034-.334-.149-.727-.507-.772a4.525 4.525 0 0 0-1.307.025l.006.003zm12.678-.026c-.35.055-.525.437-.492.765v9.023c-.033.337.21.687.56.71.38.041.761.038 1.14-.01.328-.045.535-.384.51-.704.005-3.006 0-6.011 0-9.018.026-.31-.116-.673-.44-.756a4.844 4.844 0 0 0-1.283-.011h.005zm5.29-.001c-.337.065-.5.44-.469.76v9.023c-.029.33.2.677.541.706.377.045.759.045 1.136 0 .34-.035.559-.382.534-.708.004-3.007.004-6.015 0-9.023.028-.318-.125-.685-.457-.755a4.892 4.892 0 0 0-1.29 0l.005-.003zm5.304.003c-.335.07-.488.44-.457.755v9.028c-.028.318.191.665.525.7.447.039.927.09 1.359-.064.337-.175.337-.595.33-.924-.024-3.003.029-6.007-.025-9.008-.188-.762-1.166-.5-1.735-.486l.003-.001zm-18.77 3.202v4.386c1.669-.016 3.336-.072 5.005-.1V64c-1.67.03-3.337.069-5.006.107z" transform="translate(50)"/><path fill="#FFF" d="M119.022 15.098c-2.146.334-4.048 1.863-4.89 3.878a6.529 6.529 0 0 0-.105 4.803c.861 2.262 2.665 4.083 4.809 5.138 1.014.516 2.137.748 3.2 1.141 3.518 1.223 6.719 3.283 9.426 5.844 3.045-2.905 6.738-5.114 10.769-6.285 2.995-.808 5.67-3.031 6.724-6.01a6.554 6.554 0 0 0-.807-5.777 6.436 6.436 0 0 0-5.072-2.803c-2.362-.076-4.72.571-6.792 1.695-1.915 1.042-3.52 2.58-4.83 4.318-.46-.548-.888-1.124-1.375-1.647-1.709-1.78-3.854-3.157-6.229-3.823-1.559-.457-3.21-.687-4.83-.468l.002-.004z"/><path fill="#FFF" d="M114.949 28.514c1.44 4.392 3.419 8.62 6.048 12.42 2.765 3.905 6.265 7.346 10.465 9.646 4.187-2.305 7.682-5.732 10.443-9.626 2.633-3.804 4.62-8.036 6.06-12.436-1.338 1.233-2.912 2.224-4.65 2.763-2.31.665-4.556 1.61-6.592 2.907-1.936 1.194-3.593 2.767-5.262 4.3-1.183-1.042-2.299-2.168-3.57-3.112a23.673 23.673 0 0 0-6.728-3.594c-.742-.26-1.503-.455-2.236-.734-1.478-.566-2.816-1.462-3.982-2.533l.004-.001z"/><path fill="url(#a)" fill-rule="nonzero" d="M0 .084C8.96.084 17.919.07 26.878.04c1.019 0 2.038-.03 3.056.037C32.52.1 35.106.053 37.691.1c.563 2.017 1.367 3.962 2.176 5.894a15281.53 15281.53 0 0 0-29.64 7.444c-2.578-2-4.723-4.51-6.603-7.173A45.634 45.634 0 0 1 0 .084zm62.508 0c.765-.005 1.53 0 2.295 0 1.655 2.26 3.738 4.237 6.174 5.614-.622.33-1.149.803-1.695 1.24A22.932 22.932 0 0 1 62.508.085zM98.11.08h2.299a23.086 23.086 0 0 1-6.768 6.852 21.739 21.739 0 0 0-1.642-1.247A20.632 20.632 0 0 0 98.11.08zm24.924 5.912a49.048 49.048 0 0 0 2.204-5.908c2.66-.005 5.32-.005 7.98 0 4.46-.099 8.924-.014 13.385-.029l16.323.027c-2.013 4.086-4.57 7.928-7.77 11.17a27.828 27.828 0 0 1-2.465 2.185c-9.886-2.474-19.77-4.976-29.657-7.445zM71.08 5.556c4.598-3.086 10.56-3.936 15.839-2.32a18.936 18.936 0 0 1 4.915 2.32A19.35 19.35 0 0 0 81.46 11.45a19.334 19.334 0 0 0-10.38-5.895zM5.54 16.592a28192.02 28192.02 0 0 1 35.197-8.848A48.138 48.138 0 0 0 45.7 15.51c-8.666 3.805-17.334 7.604-26.004 11.398-.532.212-1.094-.106-1.626-.192-5.366-1.395-9.72-5.427-12.53-10.124zm111.674-1.078a48.032 48.032 0 0 0 4.966-7.77c11.73 2.957 23.463 5.909 35.198 8.856a24.75 24.75 0 0 1-6.494 7.222c-2.19 1.581-4.716 2.746-7.385 3.177-3.201-1.335-6.364-2.778-9.554-4.156l-16.731-7.33zM15.339 30.9c10.54-4.623 21.084-9.243 31.628-13.86a46.216 46.216 0 0 0 6.291 6.061 13838.065 13838.065 0 0 1-22.39 15.372c-4.46-.45-8.938-1.827-12.533-4.603-1.116-.859-2.158-1.83-2.996-2.97zm94.316-7.797a46.041 46.041 0 0 0 6.292-6.059c10.546 4.616 21.091 9.234 31.633 13.855-2.677 3.469-6.72 5.627-10.872 6.74-1.54.36-3.102.74-4.68.798-7.473-5.084-14.915-10.225-22.373-15.334zM35.898 59.067c2.914.055 5.825.124 8.74.176v5.552c-2.914.037-5.825.121-8.736.169-.005-1.965-.006-3.93-.004-5.897zm10.643.205c.71.035 1.421.047 2.132.057v5.375c-.713.017-1.425.032-2.137.045.001-1.826-.004-3.652.005-5.477zm72.102 8.424c2.79-.055 5.58-.11 8.37-.168v5.894c-2.79-.039-5.58-.12-8.37-.164v-5.562zm-4.034.082c.712-.013 1.425-.024 2.138-.034V73.2c-.713 0-1.425-.009-2.137-.027-.001-1.798.001-3.597-.001-5.395z" transform="translate(50)"/><path d="M.04 1.94C.113.812 1.4-.136 2.68.078a2.38 2.38 0 0 1 1.802 1.16c.568.89.854 1.893 1.046 2.893-1.092-.006-2.184.01-3.276-.01C.993 4.113-.075 3.037.04 1.94zM15.838.953C16.38.202 17.524-.13 18.475.146c.978.267 1.684 1.169 1.6 2.067-.063.965-.998 1.84-2.106 1.896-1.128.035-2.257.006-3.382.018.217-1.101.537-2.229 1.251-3.174z" fill="url(#a)" fill-rule="nonzero" transform="translate(121.446 21.196)"/><text fill="#FFF" font-family="OpenSans-Semibold, Open Sans" font-size="11" font-weight="500" letter-spacing="4.583"><tspan x="55.674" y="254">ДОСТАВКА СУШИ</tspan></text></g></svg>