<svg xmlns="http://www.w3.org/2000/svg" width="152" height="147" viewBox="0 0 152 147"><defs><linearGradient id="a" x1="14.507%" y1="0%" y2="79.106%"><stop offset="0%" stop-color="#F09819"/><stop offset="100%" stop-color="#FF5858"/></linearGradient></defs><g fill="none" fill-rule="evenodd"><path fill="#000" d="M19.282 65.71c-.769-.31-1.755-.465-2.96-.465l-2.679.063H6.914c-.166 0-.384-.146-.654-.436-.267-.29-.509-.436-.713-.436-.79 0-1.33.125-1.62.374a6.7 6.7 0 0 1-.342.312.788.788 0 0 1-.53.188 3.922 3.922 0 0 0-1.247.187 2.425 2.425 0 0 0-1.309.748 1.989 1.989 0 0 0-.498 1.37c0 1.081.56 1.725 1.682 1.932.089.043.183.073.28.09.087.01.166.055.219.124a.516.516 0 0 1 .062.28l.063 2.057c.04 1.912.186 4.737.436 8.476.249 3.906.373 7.853.373 11.841 0 2.244-.02 3.947-.062 5.11 0 1.122-.042 2.846-.125 5.17-.084 3.408-.126 5.984-.125 7.729l.062 6.543.063 3.677v1.215c-.004.595.038 1.189.125 1.777.063.488.234.956.498 1.37.248.459.598.854 1.022 1.157a2.28 2.28 0 0 0 1.337.467 1.6 1.6 0 0 0 1.248-.56 2.97 2.97 0 0 0 .935-1.684 10.81 10.81 0 0 0 .188-1.994v-1.436c.04-1.787-.001-3.823-.125-6.107-.084-1.496-.126-2.618-.125-3.365v-4.86c0-5.068-.083-8.849-.25-11.342a14.41 14.41 0 0 0 2.243-.187c.789-.125 1.308-.208 1.558-.25.374-.04.955-.093 1.745-.156.789-.063 1.433-.218 1.931-.467.706-.374 1.06-.955 1.06-1.745a1.98 1.98 0 0 0-.313-1.06 1.929 1.929 0 0 0-.872-.748c-.583-.25-1.33-.374-2.243-.374l-1.994.062c-.437-.007-.874.014-1.309.063l-1.308.062a3.36 3.36 0 0 0-.374.031c-.166.022-.25-.072-.25-.28a7.37 7.37 0 0 1-.062-1.123l-.062-4.113.062-8.538c0-1.412-.041-3.53-.124-6.357h2.928c1.993 0 3.489-.041 4.486-.124.207 0 .84-.03 1.9-.09 1.06-.059 1.932-.287 2.617-.685.686-.395 1.028-.966 1.028-1.714.004-.874-.379-1.467-1.147-1.778zm25.467 10.377l.062-5.36c0-.83.25-5.163-1.433-6.418-1.2-.891-2.565.357-3.21 1.06-.644.704-.965 1.808-.965 3.304 0 .457.042 1.226.125 2.306.084.997.126 1.765.125 2.306.042 3.324.104 8.787.187 16.39s.146 13.628.187 18.074v3.989c0 2.201-.062 3.905-.187 5.11-.125 1.205-.395 2.077-.81 2.617-.166.249-.384.623-.654 1.121-.27.499-.603.852-.997 1.06-.395.208-.945.312-1.65.312-1.58 0-2.607-1.278-3.085-3.833-.478-2.555-.715-6.575-.713-12.06v-6.858c0-2.08.062-3.763.187-5.048.084-1.664.126-3.284.125-4.86 0-1.787-.083-4.425-.25-7.915-.04-.873-.082-1.974-.124-3.304a145.07 145.07 0 0 1-.063-4.612l.063-5.733c0-2.284-.832-3.427-2.496-3.427-.748 0-1.288.26-1.62.779a3.579 3.579 0 0 0-.56 1.714c-.042.623-.062 1.558-.063 2.804 0 .166-.042 1.558-.125 4.175a206.821 206.821 0 0 0-.125 6.233c0 .457.063 2.805.188 7.042.083 2.16.125 3.614.124 4.362v15.893l-.062 6.73a42.56 42.56 0 0 0 .187 4.3 13.37 13.37 0 0 0 .81 3.428c.79 2.202 2.202 3.614 4.237 4.238 1.272.383 2.594.572 3.922.56 3.324 0 5.63-1.04 6.916-3.12 1.288-2.08 1.973-5.444 2.057-10.095l-.436-30.475c.001-1.618.043-3.88.126-6.789zm26.59 21.844a26.61 26.61 0 0 1-.032-1.215c.002-.958-.06-1.916-.187-2.866-.25-1.621-.706-2.784-1.371-3.49-.665-.706-1.764-1.35-3.298-1.932a12.256 12.256 0 0 0 1.496-4.206c.249-1.516.373-3.25.373-5.204l-.062-4.546v-3.869c-.014-.5-.055-1-.125-1.495a5.422 5.422 0 0 1-.187-1.434v-.872c0-.748-.198-1.34-.592-1.777-.395-.437-.945-.655-1.651-.654-.748 0-1.246.25-1.496.748s-.457 1.288-.624 2.368c-.041.291-.125.821-.25 1.59a13.46 13.46 0 0 0-.186 2.15l.062 3.801c.083 2.496.124 4.427.125 5.794l.062 4.612c0 1.371-1.08 2.056-3.24 2.056a7.31 7.31 0 0 1-1.433-.124c-.25 0-.374-.166-.374-.499l.063-13.648-.063-3.054c-.041-.665-.062-1.64-.062-2.93 0-1.162-.302-1.92-.904-2.274-.603-.354-1.423-.53-2.461-.53-1.289 0-2.328.229-3.12.686-.792.457-1.186 1.205-1.184 2.244 0 .457.198.862.592 1.215.38.344.84.589 1.337.713.112.037.227.066.342.089.08.01.155.04.219.089.05.073.072.161.062.25l.063 2.118c0 2.41.062 4.8.187 7.167.332 5.983.498 11.612.498 16.889 0 2.036-.041 5.048-.125 9.037a216.795 216.795 0 0 0-.187 9.036v7.354c0 1.163.083 2.16.25 2.992.166.83.54 1.455 1.121 1.871.29.25.664.374 1.121.375.789 0 1.391-.073 1.807-.219.416-.145.666-.446.748-.903.207-1.04.311-3.49.312-7.354v-3.12c0-4.32-.062-7.852-.187-10.595l-.125-4.737c-.084-4.278-.104-6.771-.062-7.478 0-.333.166-.499.498-.499l3.053.312 2.617.312c.083 0 .28.022.592.063.311.04.508.146.592.312.125.166.187.582.187 1.248l-.062 1.495c0 1.829.083 3.2.25 4.113.415 2.12.623 7.001.623 14.645 0 .832-.042 1.778-.125 2.836a123.69 123.69 0 0 1-.187 2.212c-.249 2.16-.373 3.822-.373 4.986-.002.492.127.976.373 1.402.218.408.57.727.997.904.368.248.803.378 1.248.373.747 0 1.433-.29 2.056-.872.623-.582.938-1.242.943-1.98a2.56 2.56 0 0 0-.09-.778 1.486 1.486 0 0 1-.088-.405c.04-1.58.103-4.104.187-7.572.084-3.469.125-6.595.125-9.38 0-1.411-.166-3.489-.499-6.232a19.342 19.342 0 0 1-.17-1.714zm27.107-28.325c0-1.248-.021-2.183-.063-2.804-.037-.61-.23-1.2-.56-1.714-.333-.52-.873-.779-1.62-.78-1.664 0-2.496 1.143-2.496 3.428l.063 5.733c0 1.745-.021 3.282-.063 4.612-.041 1.33-.083 2.431-.125 3.304-.166 3.49-.25 6.128-.25 7.914 0 1.58.042 3.2.126 4.86.124 1.29.187 2.972.187 5.049v6.855c0 5.484-.238 9.504-.713 12.06-.476 2.555-1.504 3.832-3.084 3.832-.707 0-1.257-.104-1.651-.312-.394-.208-.726-.56-.997-1.06a15.1 15.1 0 0 0-.654-1.12c-.416-.54-.686-1.413-.81-2.618-.124-1.204-.187-2.908-.187-5.11v-3.988c.04-4.446.103-10.47.187-18.074.083-7.603.146-13.067.187-16.39 0-.54.041-1.308.125-2.306.082-1.08.124-1.849.124-2.306 0-1.496-.321-2.597-.965-3.304-.643-.706-1.713-1.06-3.209-1.06-1.08 0-2.036.238-2.866.714-.83.475-1.247 1.109-1.248 1.9 0 .707.186 1.216.56 1.527.374.31.893.591 1.558.842.374.124.561.602.561 1.433l.062 5.36c.083 2.909.125 5.173.125 6.793l-.436 30.475c.083 4.653.768 8.018 2.057 10.096 1.288 2.077 3.593 3.117 6.916 3.12 1.328.011 2.65-.178 3.922-.561 2.035-.624 3.447-2.036 4.237-4.238a13.36 13.36 0 0 0 .81-3.427 42.59 42.59 0 0 0 .187-4.3l-.062-6.73V91.418c0-.748.041-2.202.125-4.363.124-4.237.187-6.585.187-7.041 0-1.537-.042-3.615-.125-6.233-.083-2.618-.124-4.01-.122-4.176zm25.84 31.348l-.25-1.465a12.034 12.034 0 0 1-.187-2.025c0-1.745-.166-3.012-.498-3.802-.332-.79-1.039-1.6-2.119-2.43a3.566 3.566 0 0 0-.841-.405 8.857 8.857 0 0 1-.842-.343c1.496-1.205 2.617-2.628 3.365-4.27.748-1.64 1.121-3.437 1.121-5.39 0-1.786-.592-3.645-1.775-5.578a23.038 23.038 0 0 0-4.518-5.298c-1.828-1.599-3.677-2.793-5.545-3.583a2.027 2.027 0 0 1-.624-.374c-.125-.125-.229-.357-.312-.686a1.337 1.337 0 0 0-.713-.748 2.685 2.685 0 0 0-1.153-.25c-.582 0-1.206.27-1.871.81-.333.21-.811.355-1.434.437a3.136 3.136 0 0 0-1.593.655 1.716 1.716 0 0 0-.654 1.402c0 .58.2 1.14.565 1.59.374.475.831.712 1.371.712l.498-.062c.333 0 .478.27.436.81a24.072 24.072 0 0 0-.062 1.994c0 1.787.166 4.425.498 7.915.29 2.493.456 4.736.498 6.73 0 3.574-.041 6.69-.124 9.348 0 .748-.01 1.776-.032 3.085-.02 1.31-.03 3.294-.03 5.952l.062 4.923c.04 1.122.061 2.784.062 4.986 0 1.329-.042 2.866-.125 4.612a25.95 25.95 0 0 0-.062 1.931c0 1.122.208 2.026.624 2.71.416.686 1.101 1.029 2.056 1.03.997 0 1.662-.238 1.994-.714.332-.475.499-1.17.499-2.087 0-.395.021-.79.062-1.184.04-.416.062-.832.062-1.248 0-2.742-.03-6.377-.089-10.906-.06-4.529-.111-8.06-.156-10.595a10.87 10.87 0 0 0-.062-1.37c0-1.205-.042-2.098-.125-2.68a3.957 3.957 0 0 0-.062-.498c-.042-.25.02-.395.187-.436.33-.05.663-.07.996-.063 1.87 0 3.407.25 4.611.748.333.125.53.333.592.624.064.34.075.686.031 1.029-.042.32-.042.645 0 .966.125.416.23 1.08.312 1.994.084.914.167 1.599.25 2.057.54 2.16.81 5.879.81 11.155 0 .956-.228 3.885-.685 8.787l-.25 2.306c-.008.725.26 1.426.748 1.961a2.397 2.397 0 0 0 1.872.842c.706 0 1.391-.25 2.056-.748.665-.499.998-1.101.997-1.808a6.329 6.329 0 0 0-.125-.997 6.313 6.313 0 0 1-.125-1.06c0-.167.063-.81.188-1.932l.124-6.107.063-2.244c.04-.872.062-1.932.062-3.179 0-1.536-.104-3.468-.312-5.794a13.315 13.315 0 0 0-.317-1.742zm-7.352-14.833c-1.289 1.413-2.93 2.348-4.922 2.805l-.063-2.182c-.041-.457-.062-1.142-.062-2.056l-.063-2.056-.25-11.218c2.285 1.33 4.071 2.898 5.36 4.705 1.288 1.807 1.932 3.48 1.931 5.017a7.161 7.161 0 0 1-1.934 4.985h.003zm33.374 7.916c-.209-9.265-.292-14.541-.25-15.83-.001-.313.02-.625.063-.935.042-.31.063-.623.062-.935 0-.748-.187-1.372-.56-1.872a1.898 1.898 0 0 0-.343-.375.827.827 0 0 1-.28-.435l-.437-1.808c-.872-2.95-2.097-5.027-3.676-6.233a5.156 5.156 0 0 0-2.15-.963 14.789 14.789 0 0 0-2.71-.219h-1.994l-1.62-.062c-1.455 0-2.597.229-3.427.685-.665.416-.998.977-.997 1.683a2.14 2.14 0 0 0 .624 1.527c.416.436.956.655 1.62.655-.873 1.371-1.455 3.262-1.747 5.671-.29 2.41-.436 5.318-.435 8.725 0 .997.083 2.451.25 4.363.165 1.744.248 3.011.249 3.801l.498 16.516c0 .748-.083 1.87-.25 3.365-.166 1.744-.25 3.032-.25 3.864 0 2.16.364 4.164 1.091 6.014.727 1.85 1.9 3.23 3.52 4.144a9.418 9.418 0 0 0 4.675 1.189 9.067 9.067 0 0 0 3.428-.654 6.329 6.329 0 0 0 2.68-2.026c1.161-1.37 1.92-3.001 2.273-4.891.354-1.89.53-4.103.53-6.638-.084-2.952-.23-9.061-.437-18.326zm-7.104 27.11c-.54.416-1.06.624-1.558.624-.956 0-1.776-.613-2.46-1.839-.685-1.226-1.131-2.42-1.338-3.583a16.076 16.076 0 0 1-.25-2.992c0-1.186.062-2.372.188-3.552.04-.416.061-1.018.062-1.808 0-.955-.02-1.787-.062-2.495a74.544 74.544 0 0 0-.125-1.808 13.066 13.066 0 0 1-.125-1.371 104.38 104.38 0 0 1-.187-4.238 154.694 154.694 0 0 1-.062-3.303c-.084-3.406-.167-5.92-.25-7.541l-.062-1.433c-.167-2.244-.25-3.967-.25-5.17 0-3.863.685-7 2.056-9.41.083-.125.219-.357.405-.686.187-.332.406-.646.654-.935.233-.28.533-.494.873-.624a.718.718 0 0 1 .713.156c.25.212.46.465.624.748.187.311.301.508.342.592 1.87 2.866 2.846 5.297 2.928 7.291.041 1.164.062 2.887.063 5.17.04.748.062 1.89.062 3.427.083 3.823.166 6.71.25 8.663l.125 4.362c.04 1.455.082 3.262.124 5.422.043 2.16.063 4.674.063 7.541.001 4.406-.933 7.336-2.803 8.791v.001z"/><path fill="url(#a)" fill-rule="nonzero" d="M24.429.051h7.059c1.605 3.725 4.345 6.931 7.744 9.12.657-1.839 1.804-3.484 3.253-4.782 1.883.208 3.72.893 5.249 2.025.937.67 1.722 1.524 2.432 2.43.755-.965 1.603-1.868 2.617-2.562 1.487-1.053 3.252-1.69 5.057-1.893a11.7 11.7 0 0 1 3.25 4.757c3.431-2.137 6.139-5.392 7.76-9.095h7.057a27.133 27.133 0 0 1-9.182 13.253c-1.41 1.13-2.964 2.067-4.565 2.898.027.424.051.845.068 1.271a29.57 29.57 0 0 0 4.315-2.558c5 3.42 10.003 6.84 15.008 10.256-3.374 1.57-7.102 2.653-10.852 2.318a3250.12 3250.12 0 0 1-8.47-8.9c-.013.54-.047 1.078-.084 1.615 2.707 2.844 5.412 5.688 8.117 8.535-2.505.936-5.284 1.27-7.905.65a.869.869 0 0 1-.437-.233 26.162 26.162 0 0 1-1.68-1.624 21.799 21.799 0 0 1-2.448 4.04 23.88 23.88 0 0 1-4.162 4.114c.368 0 .74-.024 1.107.033.349.06.654.252.94.454.312-.219.653-.424 1.039-.466a7.393 7.393 0 0 1 1.122-.008c.415.025.784.24 1.115.475.35-.255.751-.474 1.195-.48.556-.011 1.156-.07 1.662.214.469.226.806.656 1.003 1.131 4.983.107 9.966.208 14.95.303v1.39c-4.947.1-9.893.2-14.838.297 0 .9-.006 1.8.003 2.701 2.161-.065 4.324-.085 6.487-.137v3.263c-2.32-.042-4.637-.093-6.955-.137-.31.346-.718.614-1.177.698-.795.106-1.681.094-2.328-.455-.288.2-.595.393-.948.455-.795.105-1.681.095-2.328-.455-.35.255-.75.468-1.192.483-.587.024-1.225.06-1.746-.26-.298-.155-.521-.41-.718-.676-1.221-.016-2.44-.056-3.661-.073-.375.607-1.046 1.025-1.765 1.019-.68.054-1.4-.037-1.94-.49-.298.205-.617.406-.983.454-.4.05-.803.055-1.203.015-.405-.033-.765-.241-1.09-.472-.337.242-.715.455-1.137.478-.593.03-1.235.073-1.77-.24-.406-.207-.695-.577-.905-.974-5-.12-10-.2-14.998-.308v-1.393c4.944-.09 9.889-.205 14.833-.289.014-.9.003-1.8.005-2.7-2.086.045-4.174.078-6.26.13-.006-1.086 0-2.173 0-3.258 2.215.04 4.43.103 6.645.12.356-.469.905-.808 1.5-.834.345-.02.69-.016 1.035.011.392.039.739.246 1.055.47.323-.23.68-.443 1.083-.473a7.336 7.336 0 0 1 1.129 0c.395.037.746.246 1.064.471.299-.21.622-.41.99-.46.35-.046.705-.027 1.056-.027-2.093-1.632-3.97-3.58-5.366-5.854a20.834 20.834 0 0 1-1.25-2.299 25.668 25.668 0 0 1-1.746 1.675c-.142.135-.339.176-.524.217-2.577.574-5.302.243-7.76-.683 2.7-2.848 5.405-5.692 8.114-8.533a35.286 35.286 0 0 1-.082-1.612 10745.74 10745.74 0 0 0-8.104 8.52c-.168.158-.306.411-.569.39-2.205.18-4.424-.155-6.541-.772a27.442 27.442 0 0 1-4.107-1.559L33.78 14.92a29.26 29.26 0 0 0 4.325 2.555c.015-.424.039-.845.064-1.272-4.277-2.148-7.98-5.439-10.591-9.466a26.827 26.827 0 0 1-3.15-6.686zm14.9 37.31c-.198.05-.288.27-.27.46v5.537c-.016.194.114.404.319.43.232.03.466.03.699.004.214-.013.362-.227.343-.432.006-1.845 0-3.692 0-5.536.019-.2-.086-.431-.297-.468a2.934 2.934 0 0 0-.796.006h.002zm3.263 0c-.194.059-.276.273-.259.46v5.53c-.016.194.106.402.307.433.253.035.509.035.76 0 .195-.039.31-.245.294-.434.004-1.84 0-3.683 0-5.525.021-.202-.091-.44-.31-.47a2.92 2.92 0 0 0-.794.01l.002-.003zm3.26.008c-.185.065-.262.276-.246.462v5.521c-.016.19.102.396.3.43.253.037.51.037.764 0 .194-.034.312-.24.296-.429.005-1.843 0-3.686 0-5.528.021-.204-.092-.445-.312-.473a2.798 2.798 0 0 0-.805.015l.004.002zm7.809-.016c-.216.034-.324.268-.304.47v5.533c-.02.207.13.422.346.436.233.025.468.023.701-.006.203-.028.33-.235.314-.432.004-1.843 0-3.687 0-5.531.017-.19-.07-.413-.27-.463a2.995 2.995 0 0 0-.79-.008l.003.001zm3.257 0c-.207.04-.307.27-.288.465v5.535c-.018.202.123.415.333.433.232.027.467.027.7 0 .208-.022.343-.234.328-.434.003-1.845.003-3.69 0-5.534.017-.195-.077-.42-.281-.464a3.025 3.025 0 0 0-.794 0l.002-.002zm3.267.001c-.206.043-.3.27-.281.464v5.537c-.018.195.117.407.323.43.275.023.57.054.837-.04.207-.107.207-.365.203-.567-.015-1.842.018-3.684-.015-5.525-.116-.467-.719-.307-1.07-.298h.003zm-11.56 1.964v2.69c1.028-.01 2.055-.044 3.083-.06v-2.695c-1.028.018-2.056.042-3.083.065z" transform="translate(28)"/><path fill="url(#a)" fill-rule="nonzero" d="M0 .051c5.518 0 11.035-.008 16.553-.026.627 0 1.255-.018 1.882.023 1.592.014 3.185-.015 4.777.014.347 1.237.842 2.43 1.34 3.615A9523.863 9523.863 0 0 0 6.3 8.242C4.71 7.016 3.389 5.476 2.232 3.843A27.963 27.963 0 0 1 0 .051zm38.496.001c.471-.003.942 0 1.413 0 1.02 1.386 2.302 2.598 3.802 3.443-.383.203-.707.492-1.043.76A14.093 14.093 0 0 1 38.496.052zM60.422.049h1.415a14.188 14.188 0 0 1-4.168 4.203c-.323-.27-.663-.526-1.011-.765A12.687 12.687 0 0 0 60.422.049zM75.77 3.675c.53-1.177.983-2.388 1.358-3.624 1.638-.002 3.276-.002 4.914 0 2.747-.06 5.496-.008 8.243-.017l10.053.016c-1.24 2.506-2.815 4.863-4.785 6.852-.48.476-.987.923-1.519 1.34-6.088-1.518-12.175-3.053-18.264-4.567zm-31.996-.267c2.832-1.893 6.503-2.415 9.754-1.423 1.072.326 2.091.805 3.027 1.422a11.928 11.928 0 0 0-6.388 3.616 11.92 11.92 0 0 0-6.393-3.615zM3.412 10.176a19060.31 19060.31 0 0 1 21.676-5.427 29.51 29.51 0 0 0 3.056 4.764 13363.28 13363.28 0 0 1-16.014 6.99c-.327.13-.674-.064-1.001-.117-3.305-.856-5.987-3.329-7.717-6.21zm68.775-.661a29.444 29.444 0 0 0 3.059-4.766c7.224 1.814 14.45 3.625 21.676 5.432a15.201 15.201 0 0 1-3.999 4.43c-1.349.97-2.904 1.684-4.548 1.948-1.972-.819-3.92-1.703-5.884-2.549L72.187 9.515zm-62.74 9.438c6.491-2.836 12.984-5.67 19.478-8.5a28.411 28.411 0 0 0 3.874 3.717 8906.86 8906.86 0 0 1-13.789 9.427c-2.747-.276-5.504-1.12-7.718-2.823-.688-.527-1.33-1.122-1.846-1.821zm58.085-4.783a28.303 28.303 0 0 0 3.874-3.716c6.495 2.831 12.99 5.664 19.482 8.498-1.65 2.128-4.139 3.451-6.696 4.134-.948.22-1.91.454-2.882.49-4.602-3.119-9.186-6.272-13.778-9.406zM22.108 36.228c1.794.034 3.588.076 5.382.108v3.405c-1.794.023-3.587.074-5.38.103-.003-1.205-.004-2.41-.002-3.616zm6.554.125c.437.022.876.03 1.313.035v3.297c-.438.01-.877.02-1.315.028 0-1.12-.003-2.24.002-3.36zm44.405 5.167c1.718-.033 3.437-.068 5.155-.103v3.615c-1.72-.024-3.437-.074-5.155-.1V41.52zm-2.485.05l1.317-.02v3.346c-.439 0-.878-.006-1.316-.016v-3.31z" transform="translate(28)"/><path fill="#FFF" d="M70.507 9.26a3.989 3.989 0 0 0-3.076 5.324c.53 1.388 1.641 2.505 2.962 3.152.624.316 1.316.459 1.97.7 2.167.75 4.138 2.013 5.806 3.584 1.875-1.782 4.15-3.137 6.632-3.855 1.844-.495 3.491-1.859 4.141-3.686a4.006 4.006 0 0 0-.497-3.544 3.968 3.968 0 0 0-3.124-1.718c-1.454-.047-2.906.35-4.183 1.04-1.18.638-2.167 1.581-2.974 2.648-.283-.337-.547-.69-.847-1.01-1.052-1.092-2.373-1.937-3.836-2.346-.96-.28-1.977-.42-2.974-.287V9.26z"/><path fill="#FFF" d="M68 17.488c.886 2.694 2.104 5.288 3.724 7.618 1.703 2.395 3.858 4.506 6.445 5.917 2.578-1.415 4.73-3.516 6.431-5.905 1.622-2.333 2.845-4.928 3.732-7.627-.824.756-1.793 1.364-2.864 1.695-1.423.408-2.805.987-4.06 1.782-1.192.733-2.212 1.698-3.24 2.639-.728-.64-1.416-1.33-2.198-1.91a14.6 14.6 0 0 0-4.144-2.204c-.457-.16-.926-.28-1.377-.45-.91-.348-1.734-.897-2.452-1.554h.002z"/><path d="M.025 1.19C.07.498.862-.083 1.65.048c.483.049.893.338 1.11.712.35.545.526 1.16.644 1.774-.673-.004-1.345.006-2.018-.006C.611 2.522-.046 1.863.025 1.19zM10.37.585c.334-.461 1.038-.665 1.624-.495.602.163 1.037.716.986 1.267-.04.592-.615 1.128-1.298 1.163-.695.022-1.39.004-2.083.011.134-.675.331-1.367.77-1.946z" fill="url(#a)" fill-rule="nonzero" transform="translate(72 13)"/><text fill="#26201F" font-family="OpenSans-Semibold, Open Sans" font-size="11" font-weight="500" letter-spacing="4.583"><tspan x="2.174" y="144">ДОСТАВКА СУШИ</tspan></text></g></svg>