<svg xmlns="http://www.w3.org/2000/svg" width="48" height="39" viewBox="0 0 48 39"><defs><linearGradient id="a" x1="14.507%" y1="0%" y2="79.106%"><stop offset="0%" stop-color="#F09819"/><stop offset="100%" stop-color="#FF5858"/></linearGradient></defs><g fill="none" fill-rule="evenodd"><path fill="url(#a)" d="M9 23h5v5H9z"/><circle cx="24.5" cy="24.5" r="6.5" fill="url(#a)"/><ellipse cx="24" cy="25.5" fill="#FFF" rx="3" ry="3.5"/><path fill="#000" fill-rule="nonzero" d="M46.393 30.79h-3.535c.107-.273.166-.57.166-.88v-8.294a2.439 2.439 0 0 0-2.437-2.437h-8.293a2.44 2.44 0 0 0-2.242 1.482A7.407 7.407 0 0 0 24 17.521a7.407 7.407 0 0 0-6.052 3.14 2.44 2.44 0 0 0-2.242-1.482h-.52l2.947-18.173a.778.778 0 1 0-1.535-.25L13.61 19.18h-2.442L8.18.757a.778.778 0 0 0-1.535.249l2.947 18.173h-2.18a2.439 2.439 0 0 0-2.436 2.437v8.293c0 .311.06.608.166.881H1.607C.72 30.79 0 31.511 0 32.397v1.66c0 .885.72 1.606 1.607 1.606h.881v2.54c0 .43.348.778.778.778h3.317c.43 0 .778-.349.778-.778v-2.54h17.826l.405 2.026c.15.748.813 1.292 1.576 1.292h10.251c.764 0 1.426-.544 1.576-1.292l.405-2.026h1.24v2.54c0 .43.347.778.777.778h3.317c.43 0 .778-.349.778-.778v-2.54h.881c.886 0 1.607-.72 1.607-1.607v-1.659c0-.886-.72-1.606-1.607-1.606zm-14.98-9.174c0-.486.395-.882.88-.882h8.294c.486 0 .882.396.882.882v8.293a.882.882 0 0 1-.882.882h-8.293a.882.882 0 0 1-.881-.882v-8.293zm-1.39 9.175h-1.488a7.49 7.49 0 0 0 1.322-1.323v.441c0 .311.06.608.166.882zM24 19.076a5.864 5.864 0 0 1 5.857 5.857A5.864 5.864 0 0 1 24 30.791a5.864 5.864 0 0 1-5.857-5.858A5.864 5.864 0 0 1 24 19.076zm-5.858 10.833v-.441a7.49 7.49 0 0 0 1.323 1.322h-1.488c.106-.273.165-.57.165-.88zm-2.436-9.175c.486 0 .881.396.881.882v8.293a.882.882 0 0 1-.88.882H13.05l-.285-1.763h.453c.886 0 1.607-.72 1.607-1.607v-3.317c0-.886-.72-1.607-1.607-1.607h-1.513l-.285-1.763h4.286zm-3.194 6.74l-.554-3.422h1.26c.029 0 .052.023.052.052v3.317a.052.052 0 0 1-.052.052h-.706zm-1.575 0H9.901a.052.052 0 0 1-.052-.053v-3.317c0-.029.023-.052.052-.052h.481l.555 3.421zm-4.406-5.858c0-.486.396-.882.882-.882h2.431l.286 1.763H9.9c-.885 0-1.606.72-1.606 1.607v3.317c0 .886.72 1.607 1.607 1.607h1.288l.286 1.763H7.413a.882.882 0 0 1-.882-.882v-8.293zm-.725 15.81H4.043v-1.763h1.763v1.763zm31.664-.042a.052.052 0 0 1-.05.041H27.167a.052.052 0 0 1-.05-.041l-.51-2.55H37.98l-.51 2.55zm6.487.042h-1.763v-1.763h1.763v1.763zm2.488-3.37a.052.052 0 0 1-.052.052h-6.69a.777.777 0 0 0-.774-.83h-13.27a.777.777 0 0 0-.775.83H1.607a.052.052 0 0 1-.052-.052v-1.658c0-.03.023-.052.052-.052h44.786c.029 0 .052.023.052.052v1.658z"/><path fill="#000" fill-rule="nonzero" d="M34.782 29.028h3.317c.886 0 1.607-.72 1.607-1.607v-3.317c0-.886-.72-1.607-1.607-1.607h-3.317c-.886 0-1.607.72-1.607 1.607v3.317c0 .886.72 1.607 1.607 1.607zm-.052-3.877l.331.332a.775.775 0 0 0 1.1 0 .777.777 0 0 0 0-1.1l-.331-.331h2.27c.028 0 .051.023.051.052v2.27l-.331-.332a.777.777 0 1 0-1.1 1.1l.332.331h-2.27a.052.052 0 0 1-.052-.052v-2.27zM24 29.028a4.1 4.1 0 0 0 4.095-4.095A4.1 4.1 0 0 0 24 20.838a4.1 4.1 0 0 0-4.095 4.095A4.1 4.1 0 0 0 24 29.028zm-2.259-5.254l.05.05a.775.775 0 0 0 1.1 0 .777.777 0 0 0 0-1.1l-.05-.05a2.543 2.543 0 0 1 3.7 2.259 2.545 2.545 0 0 1-.282 1.16l-.05-.051a.778.778 0 0 0-1.1 1.1l.05.05a2.543 2.543 0 0 1-3.7-2.259c0-.417.103-.811.282-1.16z"/></g></svg>