<svg xmlns="http://www.w3.org/2000/svg" width="25" height="25" viewBox="0 0 25 25"><path fill="#FFF" d="M24.947 19.37c-.07-.213-.52-.527-1.35-.94-.224-.13-.544-.308-.958-.533a89.4 89.4 0 0 1-1.128-.622c-.337-.19-.654-.373-.95-.55a23.32 23.32 0 0 0-.443-.31 4.99 4.99 0 0 0-.631-.383 1.163 1.163 0 0 0-.506-.124c-.237 0-.533.169-.888.506a8.68 8.68 0 0 0-.976 1.101c-.296.397-.61.764-.94 1.101-.332.337-.605.506-.818.506-.106 0-.24-.03-.4-.088a4.53 4.53 0 0 1-.364-.151 6.635 6.635 0 0 1-.425-.25 10.964 10.964 0 0 0-.338-.203c-1.622-.9-3.012-1.93-4.173-3.09-1.16-1.16-2.19-2.55-3.09-4.172a8.93 8.93 0 0 0-.203-.338 6.402 6.402 0 0 1-.25-.426 3.848 3.848 0 0 1-.15-.364 1.201 1.201 0 0 1-.089-.4c0-.212.169-.485.506-.816a10.76 10.76 0 0 1 1.101-.941 8.642 8.642 0 0 0 1.101-.976c.337-.356.506-.651.506-.888a1.16 1.16 0 0 0-.124-.506 4.936 4.936 0 0 0-.382-.63 23.306 23.306 0 0 0-.31-.444 39 39 0 0 1-.551-.95c-.19-.337-.397-.713-.622-1.128a42.22 42.22 0 0 0-.532-.958C6.156.574 5.842.124 5.629.053A.994.994 0 0 0 5.256 0c-.32 0-.737.06-1.252.178S3.084.42 2.788.55c-.592.25-1.22.971-1.882 2.166C.302 3.83 0 4.93 0 6.02c0 .319.02.63.062.932.042.302.116.642.222 1.02.107.38.193.66.258.844.065.183.186.512.363.986.178.473.285.763.32.87.414 1.16.906 2.195 1.474 3.107.934 1.515 2.21 3.08 3.826 4.696 1.615 1.615 3.181 2.89 4.695 3.825a16.04 16.04 0 0 0 3.108 1.474c.107.036.396.142.87.32.473.177.802.299.985.364.184.065.465.151.844.258.379.106.719.18 1.02.222.303.04.613.062.933.062 1.089 0 2.19-.302 3.303-.906 1.195-.662 1.917-1.29 2.165-1.882.131-.296.255-.701.373-1.216.119-.515.178-.932.178-1.252a.99.99 0 0 0-.053-.374z"/></svg>