<svg xmlns="http://www.w3.org/2000/svg" width="28" height="27" viewBox="0 0 28 27"><path fill="#FFF" d="M21.91 18.128a1.055 1.055 0 0 0-.058-.103c-.295-.493-.858-1.098-1.69-1.815l-.027-.024c-.395-.343-.634-.567-.734-.682-.184-.22-.225-.44-.125-.666.071-.17.337-.528.797-1.075.242-.29.434-.523.575-.698 1.021-1.26 1.464-2.065 1.328-2.415l-.053-.082c-.035-.05-.127-.094-.274-.136a1.5 1.5 0 0 0-.567-.02l-2.549.016a.356.356 0 0 0-.177.004l-.115.025-.044.02-.035.025a.383.383 0 0 0-.098.087.555.555 0 0 0-.088.143 13.007 13.007 0 0 1-.947 1.848c-.219.34-.42.634-.602.883a4.31 4.31 0 0 1-.46.55 3.14 3.14 0 0 1-.337.284c-.1.071-.177.101-.23.09a6.913 6.913 0 0 1-.15-.033.564.564 0 0 1-.2-.201.854.854 0 0 1-.101-.32 3.283 3.283 0 0 1-.031-.333 6.448 6.448 0 0 1 .004-.394c.006-.17.01-.285.01-.345 0-.208.003-.434.012-.678l.022-.579c.006-.142.01-.293.01-.452 0-.158-.011-.283-.032-.373a1.215 1.215 0 0 0-.092-.263.454.454 0 0 0-.182-.197 1.069 1.069 0 0 0-.296-.111A6.332 6.332 0 0 0 13.179 10c-1.098-.01-1.803.055-2.116.197-.124.06-.236.143-.336.247-.106.12-.121.186-.045.197.355.049.605.167.753.353l.053.098c.041.072.083.198.124.378.041.181.068.38.08.6.029.4.029.742 0 1.026-.03.285-.058.507-.085.666a1.26 1.26 0 0 1-.12.386 1.598 1.598 0 0 1-.105.18.148.148 0 0 1-.045.041.709.709 0 0 1-.239.042c-.082 0-.182-.039-.3-.116a2.072 2.072 0 0 1-.368-.316 4.247 4.247 0 0 1-.43-.562 9.612 9.612 0 0 1-.495-.854l-.141-.239c-.089-.153-.21-.376-.363-.669a11.76 11.76 0 0 1-.407-.85.548.548 0 0 0-.213-.263l-.044-.025a.622.622 0 0 0-.142-.07.996.996 0 0 0-.203-.053l-2.425.017c-.248 0-.416.052-.505.156l-.035.049a.25.25 0 0 0-.027.131c0 .06.018.135.053.222a26.3 26.3 0 0 0 1.155 2.234c.416.717.778 1.295 1.084 1.733.307.438.62.851.939 1.24.318.389.53.638.632.747.104.11.185.192.244.247l.221.197c.142.131.35.289.624.472.275.184.578.364.912.542.333.178.721.323 1.164.435a4.29 4.29 0 0 0 1.292.136h1.018c.206-.016.363-.077.47-.18l.034-.042a.524.524 0 0 0 .067-.152.778.778 0 0 0 .03-.225 2.517 2.517 0 0 1 .058-.637c.044-.189.095-.331.15-.427a1.058 1.058 0 0 1 .342-.361.602.602 0 0 1 .07-.029c.142-.044.309-.001.5.127.192.13.372.288.54.477.169.189.37.4.607.636.236.236.442.41.62.526l.176.099c.118.065.272.126.46.18.19.055.354.069.496.041l2.266-.032c.224 0 .399-.035.522-.103.124-.069.198-.144.222-.226a.591.591 0 0 0 .004-.28.973.973 0 0 0-.062-.217z"/></svg>