<svg xmlns="http://www.w3.org/2000/svg" width="25" height="25" viewBox="0 0 25 25"><defs><linearGradient id="a" x1="50%" x2="50%" y1="100%" y2="0%"><stop offset="0%" stop-color="#6F86D6"/><stop offset="100%" stop-color="#48C6EF"/></linearGradient></defs><path fill="url(#a)" fill-rule="evenodd" d="M0 12.5C0 5.597 5.596 0 12.5 0 19.403 0 25 5.597 25 12.5 25 19.404 19.403 25 12.5 25 5.596 25 0 19.404 0 12.5zm19.92 3.725a.94.94 0 0 0-.05-.091c-.26-.439-.758-.976-1.492-1.614l-.016-.015-.007-.007-.008-.007h-.008a8.726 8.726 0 0 1-.633-.599c-.161-.194-.197-.392-.11-.591.063-.151.298-.47.704-.956.213-.258.382-.465.507-.621.901-1.12 1.292-1.835 1.172-2.146l-.047-.073c-.03-.044-.112-.084-.242-.12a1.313 1.313 0 0 0-.5-.019l-2.249.015a.311.311 0 0 0-.156.003l-.102.022-.039.019-.03.022a.339.339 0 0 0-.087.076.494.494 0 0 0-.078.128 11.594 11.594 0 0 1-.835 1.643c-.193.301-.37.563-.532.784a3.824 3.824 0 0 1-.406.49 2.822 2.822 0 0 1-.296.251c-.089.064-.157.09-.203.08a6.061 6.061 0 0 1-.133-.029.5.5 0 0 1-.176-.178.763.763 0 0 1-.09-.285 2.939 2.939 0 0 1-.023-.646c.005-.151.008-.253.008-.307 0-.185.004-.386.011-.602l.02-.515c.005-.126.008-.26.008-.401 0-.142-.01-.252-.028-.333a1.085 1.085 0 0 0-.081-.233.402.402 0 0 0-.16-.175.939.939 0 0 0-.262-.1 5.547 5.547 0 0 0-1.055-.094c-.968-.01-1.59.049-1.866.175-.11.054-.208.127-.297.22-.094.106-.107.165-.04.174.313.044.535.149.665.314l.047.088c.036.063.073.175.109.336.036.16.06.338.07.533.026.355.026.66 0 .912-.026.253-.05.45-.074.592a1.126 1.126 0 0 1-.2.503.13.13 0 0 1-.038.037.621.621 0 0 1-.211.036.515.515 0 0 1-.266-.102 1.832 1.832 0 0 1-.324-.281 3.772 3.772 0 0 1-.378-.5 8.56 8.56 0 0 1-.438-.76l-.125-.211a17.777 17.777 0 0 1-.32-.595c-.135-.26-.255-.512-.36-.756a.486.486 0 0 0-.187-.233l-.039-.022a.874.874 0 0 0-.305-.11l-2.14.015c-.218 0-.366.046-.444.139l-.032.043A.223.223 0 0 0 5 9.665c0 .054.016.12.047.197.312.687.652 1.348 1.019 1.986.367.638.686 1.151.957 1.54.27.39.546.757.828 1.103.28.345.467.567.558.664.091.098.163.17.215.22l.195.174c.125.117.308.257.55.42.243.163.51.324.805.482.294.158.637.287 1.027.387.39.1.77.14 1.14.12h.898c.183-.014.32-.068.414-.16l.031-.037a.467.467 0 0 0 .059-.135.696.696 0 0 0 .027-.2c-.005-.21.012-.398.051-.566.039-.168.083-.295.133-.38a.94.94 0 0 1 .3-.321.529.529 0 0 1 .063-.026c.125-.039.272 0 .441.114.17.114.328.255.477.423.148.168.327.357.535.566.208.21.39.365.546.467l.157.088c.104.058.24.112.406.16a.933.933 0 0 0 .437.037l2-.03c.197 0 .351-.03.46-.09.11-.061.174-.128.195-.201a.53.53 0 0 0 .004-.249.87.87 0 0 0-.055-.193z"/></svg>