<svg width="14" height="18" viewBox="0 0 14 18" fill="none" xmlns="http://www.w3.org/2000/svg"><path d="M13.212 10.344c-.202-2.635-1.429-4.286-2.511-5.743C9.699 3.25 8.833 2.087 8.833.369a.369.369 0 0 0-.582-.3C6.626 1.232 5.27 3.193 4.796 5.063c-.329 1.302-.373 2.766-.379 3.733-1.5-.321-1.84-2.566-1.844-2.59a.37.37 0 0 0-.525-.28c-.079.038-1.932.98-2.04 4.74-.008.125-.008.25-.008.376a6.632 6.632 0 0 0 6.625 6.624h.019a6.633 6.633 0 0 0 6.606-6.624c0-.184-.038-.698-.038-.698zM6.625 16.93c-1.218 0-2.208-1.055-2.208-2.352 0-.044 0-.089.003-.144.014-.547.118-.92.232-1.168.214.458.595.88 1.215.88a.368.368 0 0 0 .368-.368c0-.524.011-1.129.142-1.674.116-.484.393-.999.745-1.411.156.535.46.969.759 1.392.425.605.866 1.23.943 2.298.005.063.01.127.01.195 0 1.297-.991 2.352-2.209 2.352z" fill="#fff"/></svg>