<svg width="16" height="17" viewBox="0 0 16 17" fill="none" xmlns="http://www.w3.org/2000/svg"><path d="M14.614 2.057h-1.292v-.882C13.322.526 12.796 0 12.147 0H12.1c-.649 0-1.175.526-1.175 1.175v.882H4.864v-.882C4.864.526 4.338 0 3.689 0h-.047c-.649 0-1.175.526-1.175 1.175v.882H1.175C.526 2.057 0 2.583 0 3.232v12.593C0 16.475.526 17 1.175 17h13.44c.648 0 1.174-.526 1.174-1.175V3.232c0-.65-.526-1.175-1.175-1.175zm-.799 13.087H1.974v-9.54h11.841v9.54z" fill="#B1B2B5"/><path d="M3.584 9.921h2.044a.188.188 0 0 0 .188-.188V7.69a.188.188 0 0 0-.188-.188H3.584a.188.188 0 0 0-.188.188v2.044c0 .104.085.188.188.188zm3.29 0h2.044a.188.188 0 0 0 .188-.188V7.69a.188.188 0 0 0-.188-.188H6.874a.188.188 0 0 0-.188.188v2.044c0 .104.084.188.188.188zm3.286 0h2.045a.188.188 0 0 0 .188-.188V7.69a.188.188 0 0 0-.188-.188H10.16a.188.188 0 0 0-.188.188v2.044c0 .104.084.188.188.188zM3.584 13.21h2.044a.188.188 0 0 0 .188-.187v-2.044a.188.188 0 0 0-.188-.188H3.584a.188.188 0 0 0-.188.188v2.044c0 .104.085.188.188.188zm3.29 0h2.044a.188.188 0 0 0 .188-.187v-2.044a.188.188 0 0 0-.188-.188H6.874a.188.188 0 0 0-.188.188v2.044c0 .104.084.188.188.188zm3.286 0h2.045a.188.188 0 0 0 .188-.187v-2.044a.188.188 0 0 0-.188-.188H10.16a.188.188 0 0 0-.188.188v2.044c0 .104.084.188.188.188z" fill="#B1B2B5"/></svg>