<svg width="15" height="13" viewBox="0 0 15 13" fill="none" xmlns="http://www.w3.org/2000/svg"><path d="M3.275 6.923v5.137a.553.553 0 1 0 1.107 0V6.923a.554.554 0 0 0-1.107 0z" fill="#B1B2B5"/><path d="M1.537 12.62h1.22v-6.1c.003-.029.008-.058.008-.088 0-2.631 2.124-4.771 4.734-4.771s4.733 2.14 4.733 4.771c0 .04.006.08.012.118v6.07h1.22c.848 0 1.536-.712 1.536-1.59V7.848c0-.725-.47-1.335-1.11-1.527C13.831 2.826 10.988 0 7.5 0 4.01 0 1.164 2.827 1.106 6.323A1.583 1.583 0 0 0 0 7.85v3.18c0 .878.688 1.59 1.537 1.59z" fill="#B1B2B5"/><path d="M10.62 6.923v5.137a.553.553 0 1 0 1.106 0V6.923a.554.554 0 0 0-1.107 0z" fill="#B1B2B5"/></svg>