<svg width="28" height="23" viewBox="0 0 28 23" fill="none" xmlns="http://www.w3.org/2000/svg"><path d="M20.46 3.273l-8.866 1.4a.466.466 0 0 0-.394.46v9.184a3.157 3.157 0 0 0-2.1-.784c-1.673 0-3.033 1.256-3.033 2.8 0 1.545 1.36 2.8 3.033 2.8 1.649 0 2.992-1.22 3.03-2.735 0-.006.003-.011.003-.017V8.33l7.934-1.252v4.439a3.155 3.155 0 0 0-2.1-.785c-1.673 0-3.034 1.256-3.034 2.8 0 1.545 1.361 2.8 3.034 2.8 1.672 0 3.033-1.255 3.033-2.8v-9.8a.466.466 0 0 0-.54-.46zM9.1 18.2c-1.158 0-2.1-.837-2.1-1.867s.942-1.866 2.1-1.866c1.158 0 2.1.837 2.1 1.866 0 1.03-.942 1.867-2.1 1.867zm3.033-10.813V5.532l7.934-1.253v1.855l-7.934 1.253zm5.834 8.013c-1.158 0-2.1-.837-2.1-1.867s.942-1.866 2.1-1.866c1.157 0 2.1.837 2.1 1.866 0 1.03-.943 1.867-2.1 1.867z" fill="#FC7822"/><path d="M28 3.733h-1.867V1.867h-1.866V0H3.733v1.867H1.867v1.866H0v14.934h1.867v1.866h1.866V22.4h20.534v-1.867h1.866v-1.866H28V3.733zm-27.067 14V4.667h.934v13.066H.933zM2.8 19.6V2.8h.933v16.8H2.8zm20.533 1.867H4.667V.933h18.666v20.534zM25.2 19.6h-.933V2.8h.933v16.8zm1.867-1.867h-.934V4.667h.934v13.066z" fill="#FC7822"/></svg>