<svg width="28" height="29" viewBox="0 0 28 29" fill="none" xmlns="http://www.w3.org/2000/svg"><path d="M23.906 5.057C19.531.682 12.959-.184 7.709 2.45l-.005-.01-.424.232-.074.044c-.248.138-.493.283-.734.436l-.074.046c-.262.17-.519.347-.77.536-.032.023-.062.047-.092.07-.208.158-.413.324-.614.495l-.167.144c-.225.198-.446.401-.66.615a14.08 14.08 0 0 0-.616.66l-.144.168c-.172.201-.336.406-.495.614-.023.03-.048.06-.07.091-.19.252-.367.51-.537.77l-.046.075c-.154.241-.298.486-.436.734l-.044.073-.231.425.01.005c-2.634 5.25-1.767 11.822 2.608 16.197A13.967 13.967 0 0 0 14 28.966c2.16 0 4.318-.499 6.291-1.489l.005.01.425-.231c.024-.014.047-.03.072-.043.249-.138.495-.284.736-.438l.073-.045c.261-.17.518-.348.77-.536.032-.023.062-.048.093-.072.208-.158.412-.323.613-.494l.168-.144a14 14 0 0 0 .66-.615c.215-.214.417-.436.615-.66l.144-.168c.171-.2.336-.405.495-.613.023-.031.047-.06.07-.092.189-.252.367-.51.536-.77l.046-.074c.154-.241.299-.486.436-.734l.044-.074.232-.424-.01-.006c2.634-5.25 1.767-11.822-2.608-16.197zM14 1.927c3.34 0 6.68 1.27 9.223 3.814 4.065 4.065 4.877 10.167 2.443 15.05l-6.371-3.483a5.802 5.802 0 0 0-1.196-6.444 5.801 5.801 0 0 0-6.444-1.196l-3.482-6.37A13.066 13.066 0 0 1 14 1.925zM24.719 22.39a13.361 13.361 0 0 1-.853 1.099c-.042.049-.083.098-.126.146-.167.188-.339.373-.517.551-.178.178-.363.35-.55.517l-.147.126a12.479 12.479 0 0 1-1.099.853l-.108.075c-.21.143-.424.28-.643.41l-3.48-6.367a5.805 5.805 0 0 0 1.641-1.642l6.368 3.481a13.65 13.65 0 0 1-.486.752zm-7.78-3.599c-.031.025-.064.047-.096.07-.165.12-.336.233-.518.333l-.02.012-.087.047a4.838 4.838 0 0 1-5.634-.874 4.837 4.837 0 0 1-.876-5.632l.05-.092.009-.014a4.9 4.9 0 0 1 .334-.522l.07-.095c.129-.168.264-.329.413-.477.147-.148.309-.284.476-.412l.096-.07c.165-.12.337-.233.518-.333l.02-.011.087-.048a4.84 4.84 0 0 1 5.634.875 4.838 4.838 0 0 1 .875 5.632l-.05.092-.008.014c-.1.183-.214.355-.335.521l-.07.095a4.767 4.767 0 0 1-.412.477 4.573 4.573 0 0 1-.476.412zM3.206 7.645l.075-.108a12.859 12.859 0 0 1 .853-1.099c.042-.049.083-.098.126-.146a12.218 12.218 0 0 1 1.067-1.068l.147-.126a12.623 12.623 0 0 1 1.099-.853l.108-.075c.21-.143.424-.28.643-.41l3.48 6.367a5.806 5.806 0 0 0-1.642 1.642L2.795 8.287c.13-.218.268-.432.41-.642zm1.571 16.541C.712 20.121-.1 14.02 2.334 9.136l6.37 3.483c-.938 2.126-.543 4.704 1.197 6.444A5.778 5.778 0 0 0 14 20.758c.8 0 1.6-.17 2.345-.5l3.482 6.372c-4.883 2.433-10.984 1.622-15.05-2.444z" fill="#FC7822"/><path d="M12.634 13.597c-.365.365-.566.85-.566 1.366 0 .516.2 1.002.566 1.366.364.366.85.566 1.366.566.516 0 1.001-.2 1.366-.566.365-.365.566-.85.566-1.366 0-.516-.2-1.001-.566-1.366-.729-.73-2.003-.73-2.732 0zm2.049 2.05a.989.989 0 0 1-1.366 0 .96.96 0 0 1-.283-.683c0-.258.1-.5.283-.684a.96.96 0 0 1 .683-.283c.258 0 .5.1.683.284a.96.96 0 0 1 .283.683c0 .258-.1.5-.283.683z" fill="#FC7822"/></svg>