<svg width="28" height="28" viewBox="0 0 28 28" fill="none" xmlns="http://www.w3.org/2000/svg"><circle cx="14" cy="14" r="13.5" stroke="#FC7822"/><path d="M12.586 6.567c-.378.377-.586.88-.586 1.414 0 .534.208 1.036.586 1.414.377.378.88.586 1.414.586.534 0 1.037-.208 1.414-.586.378-.378.586-.88.586-1.414 0-.534-.208-1.037-.586-1.414-.755-.756-2.073-.756-2.828 0zm2.121 2.121a1.023 1.023 0 0 1-1.414 0A.993.993 0 0 1 13 7.981c0-.267.104-.518.293-.707A.993.993 0 0 1 14 6.981c.267 0 .518.104.707.293.189.19.293.44.293.707a.993.993 0 0 1-.293.707z" fill="#FC7822"/><rect x="12.5" y="11.5" width="3" height="11" rx="1.5" stroke="#FC7822"/></svg>