<svg width="12" height="12" viewBox="0 0 12 12" fill="none" xmlns="http://www.w3.org/2000/svg"><path d="M11.974 9.298c-.034-.102-.25-.253-.648-.452a20.15 20.15 0 0 0-.46-.256c-.199-.107-.38-.207-.541-.298a17.99 17.99 0 0 1-.456-.264 11.136 11.136 0 0 0-.213-.15 2.395 2.395 0 0 0-.303-.183.558.558 0 0 0-.243-.06c-.113 0-.255.082-.426.244a4.15 4.15 0 0 0-.468.528 5.14 5.14 0 0 1-.452.529c-.159.162-.29.243-.392.243a.58.58 0 0 1-.192-.043 1.986 1.986 0 0 1-.175-.072c-.04-.02-.107-.06-.204-.12a5.26 5.26 0 0 0-.162-.098 8.956 8.956 0 0 1-2.003-1.483A8.951 8.951 0 0 1 3.153 5.36a4.945 4.945 0 0 0-.098-.162c-.06-.096-.1-.164-.12-.204a1.848 1.848 0 0 1-.071-.175.577.577 0 0 1-.043-.192c0-.102.08-.233.243-.392.162-.159.338-.31.528-.451.19-.142.367-.298.529-.469.162-.17.242-.312.242-.426 0-.08-.02-.16-.06-.243a2.31 2.31 0 0 0-.182-.302l-.15-.214a18.751 18.751 0 0 1-.264-.455c-.09-.162-.19-.343-.298-.542a20.248 20.248 0 0 0-.256-.46C2.955.276 2.804.06 2.702.026A.477.477 0 0 0 2.522 0c-.153 0-.353.028-.6.085a3.375 3.375 0 0 0-.584.18C1.054.382.753.73.435 1.303.145 1.838 0 2.366 0 2.889a3.291 3.291 0 0 0 .136.937c.052.182.093.317.124.405.031.088.09.246.175.473.085.228.136.367.153.418a7.72 7.72 0 0 0 .707 1.491c.449.727 1.061 1.479 1.837 2.255.775.775 1.527 1.387 2.254 1.836.437.273.935.509 1.491.708.052.017.19.068.418.153.227.085.385.144.473.175.088.031.223.072.405.123A3.268 3.268 0 0 0 9.11 12c.523 0 1.051-.145 1.585-.435.574-.318.92-.619 1.04-.903.063-.142.122-.337.179-.584a2.8 2.8 0 0 0 .085-.6c0-.08-.008-.14-.025-.18z" fill="#FC7822"/></svg>