<svg width="29" height="29" viewBox="0 0 29 29" fill="none" xmlns="http://www.w3.org/2000/svg"><path d="M24.354 6.49H8.292l13.394-5.33a.602.602 0 0 0-.444-1.117L5.054 6.49h-.457C2.476 6.49 0 7.692 0 11.087V23.49c0 3.395 2.476 4.597 4.597 4.597h19.757c2.122 0 4.597-1.202 4.597-4.597V11.093c.006-3.395-2.457-4.603-4.597-4.603zm3.402 17c0 3.065-2.404 3.395-3.396 3.395H4.597c-1.022 0-3.395-.33-3.395-3.395V11.093c0-3.064 2.403-3.395 3.395-3.395h19.757c1.022 0 3.396.33 3.396 3.395l.006 12.397z" fill="url(#a)"/><path d="M5.95 14.26h17.053c.331 0 .6-.27.6-.6v-3.468a.601.601 0 0 0-.6-.601H5.949a.601.601 0 0 0-.6.601v3.467a.6.6 0 0 0 .6.601zm16.452-1.202h-4.248v-2.265h4.248v2.265zM6.55 10.793h10.402v2.265H6.55v-2.265z" fill="url(#b)"/><path d="M21.434 16.297a4.458 4.458 0 1 0 0 8.917 4.458 4.458 0 0 0 0-8.917zm0 7.716a3.257 3.257 0 1 1 3.257-3.257 3.263 3.263 0 0 1-3.257 3.257z" fill="url(#c)"/><path d="M12.775 20.461a2.302 2.302 0 1 0 0 4.604 2.302 2.302 0 0 0 0-4.604zm0 3.396a1.1 1.1 0 1 1 0-2.2 1.1 1.1 0 0 1 0 2.2z" fill="url(#d)"/><path d="M6.814 20.461a2.302 2.302 0 1 0 0 4.604 2.302 2.302 0 0 0 0-4.604zm0 3.396a1.1 1.1 0 1 1 0-2.2 1.1 1.1 0 0 1 0 2.2z" fill="url(#e)"/><defs><linearGradient id="a" y1="14.043" x2="23.607" y2="2.811" gradientUnits="userSpaceOnUse"><stop stop-color="#FCC555"/><stop offset="1" stop-color="#FC7822"/></linearGradient><linearGradient id="b" x1="5.348" y1="11.926" x2="9.637" y2="4.186" gradientUnits="userSpaceOnUse"><stop stop-color="#FCC555"/><stop offset="1" stop-color="#FC7822"/></linearGradient><linearGradient id="c" x1="16.976" y1="20.756" x2="24.327" y2="17.363" gradientUnits="userSpaceOnUse"><stop stop-color="#FCC555"/><stop offset="1" stop-color="#FC7822"/></linearGradient><linearGradient id="d" x1="10.474" y1="22.763" x2="14.268" y2="21.011" gradientUnits="userSpaceOnUse"><stop stop-color="#FCC555"/><stop offset="1" stop-color="#FC7822"/></linearGradient><linearGradient id="e" x1="4.513" y1="22.763" x2="8.307" y2="21.011" gradientUnits="userSpaceOnUse"><stop stop-color="#FCC555"/><stop offset="1" stop-color="#FC7822"/></linearGradient></defs></svg>