<svg width="15" height="13" viewBox="0 0 15 13" fill="none" xmlns="http://www.w3.org/2000/svg"><path d="M.971 2.577c.648-.795 1.527-1.424 2.638-1.885C4.72.23 5.934 0 7.251 0c.982 0 1.92.136 2.816.409.896.272 1.667.64 2.315 1.104a5.52 5.52 0 0 1 1.545 1.655c.383.64.575 1.31.575 2.011 0 .81-.244 1.568-.732 2.274-.489.707-1.156 1.3-2.003 1.78.06.216.13.422.21.616a6.2 6.2 0 0 0 .219.477c.064.124.152.262.263.413.11.151.194.258.25.32a200.212 200.212 0 0 1 .595.66l.057.068.048.073c.027.04.04.066.037.076a.215.215 0 0 0 .016.081c.014.043.012.076-.004.097v.008a.407.407 0 0 1-.142.235.317.317 0 0 1-.246.073 6.09 6.09 0 0 1-.923-.178 8.846 8.846 0 0 1-3.723-1.959 11.09 11.09 0 0 1-1.173.065c-1.316 0-2.53-.23-3.642-.692C2.5 9.205 1.62 8.576.971 7.781c-.647-.796-.97-1.663-.97-2.602 0-.939.323-1.806.97-2.602z" fill="#B1B2B5"/></svg>