<svg width="16" height="13" viewBox="0 0 16 13" fill="none" xmlns="http://www.w3.org/2000/svg"><path d="M15.004 2.254a6.146 6.146 0 0 1-1.767.485 3.091 3.091 0 0 0 1.353-1.702 6.205 6.205 0 0 1-1.956.748A3.078 3.078 0 0 0 7.389 4.59a8.738 8.738 0 0 1-6.344-3.216 3.076 3.076 0 0 0 .953 4.109 3.078 3.078 0 0 1-1.394-.387v.039a3.081 3.081 0 0 0 2.468 3.018c-.257.069-.53.107-.81.107-.2 0-.392-.02-.58-.057a3.08 3.08 0 0 0 2.875 2.138 6.176 6.176 0 0 1-3.823 1.315c-.248 0-.493-.015-.734-.042A8.7 8.7 0 0 0 4.718 13c5.662 0 8.757-4.69 8.757-8.757l-.01-.399a6.147 6.147 0 0 0 1.54-1.59z" fill="#B1B2B5"/></svg>