<svg xmlns="http://www.w3.org/2000/svg" width="376.699" height="256.003" viewBox="0 0 376.699 256.003"><g fill="#88b202"><path d="M238.85 203.77a1.5 1.5 0 0 1-1.5-1.5v-147a1.5 1.5 0 1 1 3 0v147a1.5 1.5 0 0 1-1.5 1.5zm11-2a1.5 1.5 0 0 1-1.5-1.5v-144a1.5 1.5 0 1 1 3 0v144a1.5 1.5 0 0 1-1.5 1.5zm57-9a1.5 1.5 0 0 1-1.5-1.5v-125a1.5 1.5 0 1 1 3 0v125a1.5 1.5 0 0 1-1.5 1.5zm-7 2a1.5 1.5 0 0 1-1.5-1.5v-128a1.5 1.5 0 1 1 3 0v128a1.5 1.5 0 0 1-1.5 1.5z"/><path d="M227.608 205.466c-.06 0-.12-.002-.182-.006l-.134-.01a3.667 3.667 0 0 1-.18-.02l-100.04-14.59-12.798-1.9-52.788-7.73a2.5 2.5 0 0 1-2.138-2.475V81.027a2.5 2.5 0 0 1 2.083-2.465l79.626-13.48 86.27-14.51c.272-.046.55-.046.823 0L315.257 65a2.5 2.5 0 0 1 2.092 2.466v122.83a2.5 2.5 0 0 1-2.142 2.475l-87.24 12.67c-.12.018-.24.026-.36.026zM64.35 176.576l50.655 7.418 26.803 3.938 85.768 12.513 84.774-12.312V69.587l-84.604-14.015-85.855 14.44L64.35 83.14v93.436z"/><path d="M227.85 204.77a2.5 2.5 0 0 1-2.5-2.5v-148a2.5 2.5 0 1 1 5 0v148a2.5 2.5 0 0 1-2.5 2.5zm49-7.698a2.5 2.5 0 0 1-2.5-2.5V63.27a2.5 2.5 0 0 1 5 0v131.302a2.5 2.5 0 0 1-2.5 2.5z"/><path d="M312.755 93.516c-.054 0-.107-.002-.16-.008l-84.833-9.05a1.499 1.499 0 1 1 .318-2.983l84.832 9.05a1.499 1.499 0 0 1-.158 2.99zm-84.835 80.951a1.5 1.5 0 0 1-.124-2.994l85.5-7.125c.83-.064 1.55.544 1.62 1.37a1.502 1.502 0 0 1-1.37 1.62l-85.5 7.124a1.093 1.093 0 0 1-.127.007zm-21.07 12.303a1.5 1.5 0 0 1-1.5-1.5v-113a1.5 1.5 0 1 1 3 0v113a1.5 1.5 0 0 1-1.5 1.5zm-21-3a1.5 1.5 0 0 1-1.5-1.5v-107a1.5 1.5 0 1 1 3 0v107a1.5 1.5 0 0 1-1.5 1.5zm-21-3a1.5 1.5 0 0 1-1.5-1.5v-100a1.5 1.5 0 1 1 3 0v100a1.5 1.5 0 0 1-1.5 1.5zm-21-3a1.5 1.5 0 0 1-1.5-1.5v-94a1.5 1.5 0 1 1 3 0v94a1.5 1.5 0 0 1-1.5 1.5zm-21-3a1.5 1.5 0 0 1-1.5-1.5v-87a1.5 1.5 0 1 1 3 0v87a1.5 1.5 0 0 1-1.5 1.5zm-21-3a1.5 1.5 0 0 1-1.5-1.5v-81a1.5 1.5 0 1 1 3 0v81a1.5 1.5 0 0 1-1.5 1.5zm-21-3a1.5 1.5 0 0 1-1.5-1.5v-75a1.5 1.5 0 1 1 3 0v75a1.5 1.5 0 0 1-1.5 1.5zm210.5-38.5h-31a1.5 1.5 0 0 1 0-3h31a1.5 1.5 0 1 1 0 3z"/></g></svg>