<svg fill="#88b202" height="24" viewBox="0 0 24 24" width="24" xmlns="http://www.w3.org/2000/svg"><path d="M11.5 0C7 1 2 9.3 2 14.5S6.3 24 11.5 24s9.5-4.3 9.5-9.5S16 1 11.5 0zm0 22C7.4 22 4 18.6 4 14.5S8 4 11.5 2C15 4 19 10.4 19 14.5S15.6 22 11.5 22z"/><path d="M15.4 12.3L12 15.8v-3.6l2.2-2.1c.2-.2.2-.5 0-.7-.2-.2-.5-.2-.7 0L12 10.8V5.5c0-.3-.2-.5-.5-.5s-.5.2-.5.5v5.3L9.6 9.3c-.2-.2-.6-.2-.8 0-.2.2-.2.5 0 .7l2.2 2.1v3.6l-3.4-3.4c-.2-.2-.5-.2-.7 0-.2.2-.2.5 0 .7l4.2 4.1v2.3c0 .3.2.5.5.5s.5-.2.5-.5v-2.3l4.2-4.1c.2-.2.2-.5 0-.7-.3-.2-.7-.2-.9 0z"/></svg>