<svg xmlns="http://www.w3.org/2000/svg" viewBox="0 0 100 125"><title>Artboard 1 Copy 101</title><g fill="#fff" fill-rule="evenodd"><path d="M40 41.007v17.986C40 64.522 44.476 69 50 69c5.523 0 10-4.48 10-10.007V41.007C60 35.478 55.524 31 50 31c-5.523 0-10 4.48-10 10.007zm-2 0C38 34.376 43.371 29 50 29c6.627 0 12 5.373 12 12.007v17.986C62 65.624 56.629 71 50 71c-6.627 0-12-5.373-12-12.007V41.007z"/><path d="M49 36v4a1 1 0 0 0 2 0v-4a1 1 0 0 0-2 0zm1 45.993l5.5-5.5a1 1 0 0 1 1.414 1.414l-6.207 6.207a.997.997 0 0 1-1.414 0l-6.255-6.254a1 1 0 0 1 1.415-1.414L50 81.993zm.707-66.107l6.207 6.207a1 1 0 0 1-1.414 1.414l-5.5-5.5-5.547 5.547a1 1 0 0 1-1.415-1.414l6.255-6.254a.997.997 0 0 1 1.414 0z"/></g></svg>