<svg fill="#6a6a69" data-name="Layer 21" height="24" viewBox="0 0 24 24" width="24" xmlns="http://www.w3.org/2000/svg"><title/><circle cx="16" cy="8" r="4"/><path d="M12.583 8.833c-.208 0-.583.433-.583.667A8.5 8.5 0 0 1 3.5 18a8.522 8.522 0 0 1-1.285-.107A11.417 11.417 0 0 0 20 8.417c0-.736-4.682.416-7.417.416z"/><path d="M12.583 8.833A11.385 11.385 0 0 1 3.89 4.805a3.938 3.938 0 0 0-.539 1.966 3.98 3.98 0 0 0 3.98 3.979c2.124 0 5.898.023 6.146-1.962a11.43 11.43 0 0 1-.893.045z"/><path d="M5.246 10.042a3.934 3.934 0 0 1-1.89-.498c0 .02-.006.04-.006.06a3.98 3.98 0 0 0 3.98 3.98c2.197 0 5.274-1.595 5.274-3.792 0-1.51-5.181.25-7.358.25z"/><path d="M7.726 12.996a3.91 3.91 0 0 1-3.029.523 3.966 3.966 0 0 0 3.799 2.856 5.258 5.258 0 0 0 4.67-4.667c0-1.893-4.338.58-5.44 1.288zM17.61 5.38c-1.322 0-1.635 1.66.075 1.66a3.966 3.966 0 0 0 3.754-2.713A7.5 7.5 0 0 1 17.61 5.38z"/><path d="M18.83 6.535a7.522 7.522 0 0 1-2.938-.593c-2.708-1.145-4.355 3.343-.188 3.343a7.534 7.534 0 0 0 6.352-3.482 7.503 7.503 0 0 1-3.227.732z"/></svg>