<svg fill="#88b202" height="24" viewBox="0 0 24 24" width="24" xmlns="http://www.w3.org/2000/svg"><path d="M20 18.6c-.7 0-1.2-.4-1.2-.4-.7-.8-1.7-1.2-2.8-1.2s-2.1.4-2.8 1.2c0 0-.5.4-1.2.4s-1.2-.4-1.2-.4C10.1 17.4 9.1 17 8 17c-1.3 0-2.8 1.2-2.8 1.2-.3.2-.7.4-1.2.4-.7 0-1.2-.4-1.2-.4C2.1 17.4 1.1 17 0 17v2c.4 0 .9.2 1.2.4 0 0 1.7 1.2 2.8 1.2s2-.5 2.8-1.2c0 0 .7-.4 1.2-.4s.9.2 1.2.4c0 0 1.7 1.2 2.8 1.2 1.5 0 2.8-1.2 2.8-1.2.3-.2.7-.4 1.2-.4s.9.2 1.2.4c0 0 1.7 1.2 2.8 1.2s2-.5 2.8-1.2c0 0 .7-.4 1.2-.4v-2c-1.3 0-2.8 1.2-2.8 1.2-.3.2-.8.4-1.2.4zm0-3c-1.1 0-2.8-1.2-2.8-1.2-.3-.2-.8-.4-1.2-.4s-.9.2-1.2.4c0 0-1.3 1.2-2.8 1.2-1.1 0-2.8-1.2-2.8-1.2-.3-.2-.8-.4-1.2-.4s-1.2.4-1.2.4c-.8.7-1.7 1.2-2.8 1.2s-2.8-1.2-2.8-1.2C.9 14.2.4 14 0 14v1c.4 0 .9.2 1.2.4 0 0 1.7 1.2 2.8 1.2s2-.5 2.8-1.2c0 0 .7-.4 1.2-.4s.9.2 1.2.4c0 0 1.7 1.2 2.8 1.2 1.5 0 2.8-1.2 2.8-1.2.3-.2.7-.4 1.2-.4s.9.2 1.2.4c0 0 1.7 1.2 2.8 1.2s2-.5 2.8-1.2c0 0 .7-.4 1.2-.4v-1c-.4 0-1.2.4-1.2.4-.8.7-1.7 1.2-2.8 1.2zm0-3c-1.1 0-2.8-1.2-2.8-1.2-.3-.2-.8-.4-1.2-.4s-.9.2-1.2.4c0 0-1.3 1.2-2.8 1.2-1.1 0-2.8-1.2-2.8-1.2-.3-.2-.8-.4-1.2-.4s-1.2.4-1.2.4c-.8.7-1.7 1.2-2.8 1.2s-2.8-1.2-2.8-1.2C.9 11.2.4 11 0 11v1c.4 0 .9.2 1.2.4 0 0 1.7 1.2 2.8 1.2s2-.5 2.8-1.2c0 0 .7-.4 1.2-.4s.9.2 1.2.4c0 0 1.7 1.2 2.8 1.2 1.5 0 2.8-1.2 2.8-1.2.3-.2.7-.4 1.2-.4s.9.2 1.2.4c0 0 1.7 1.2 2.8 1.2s2-.5 2.8-1.2c0 0 .7-.4 1.2-.4v-1c-.4 0-1.2.4-1.2.4-.8.7-1.7 1.2-2.8 1.2zm0-3c-1.1 0-2.8-1.2-2.8-1.2-.3-.2-.8-.4-1.2-.4s-.9.2-1.2.4c0 0-1.3 1.2-2.8 1.2-1.1 0-2.8-1.2-2.8-1.2C8.9 8.2 8.4 8 8 8s-1.2.4-1.2.4C6 9.1 5.1 9.6 4 9.6S1.2 8.4 1.2 8.4C.9 8.2.4 8 0 8v1c.4 0 .9.2 1.2.4 0 0 1.7 1.2 2.8 1.2s2-.5 2.8-1.2c0 0 .8-.4 1.2-.4s.9.2 1.2.4c0 0 1.7 1.2 2.8 1.2 1.5 0 2.8-1.2 2.8-1.2.3-.2.8-.4 1.2-.4s.9.2 1.2.4c0 0 1.7 1.2 2.8 1.2s2-.5 2.8-1.2c0 0 .7-.4 1.2-.4V8c-.4 0-1.2.4-1.2.4-.8.7-1.7 1.2-2.8 1.2zm1.2-4.4c-.3.2-.7.4-1.2.4-.7 0-1.2-.4-1.2-.4C18.1 4.4 17.1 4 16 4s-2.1.4-2.8 1.2c0 0-.5.4-1.2.4s-1.2-.4-1.2-.4C10.1 4.4 9.1 4 8 4 6.7 4 5.2 5.2 5.2 5.2c-.3.2-.8.4-1.2.4-.7 0-1.2-.4-1.2-.4C2.1 4.4 1.1 4 0 4v2c.4 0 .9.2 1.2.4 0 0 1.7 1.2 2.8 1.2s2-.5 2.8-1.2c0 0 .8-.4 1.2-.4s.9.2 1.2.4c0 0 1.7 1.2 2.8 1.2 1.5 0 2.8-1.2 2.8-1.2.3-.2.8-.4 1.2-.4s.9.2 1.2.4c0 0 1.7 1.2 2.8 1.2s2-.5 2.8-1.2c0 0 .7-.4 1.2-.4V4c-1.3 0-2.8 1.2-2.8 1.2z"/></svg>