<svg id="Layer_1" xmlns="http://www.w3.org/2000/svg" viewBox="0 0 22.2 19.6"><style>.st0,.st1{stroke:#fff;stroke-miterlimit:10}.st0{fill:#fff;stroke-width:.5}.st1{stroke-width:.6}.st1,.st2{fill:#fff}</style><path class="st1" d="M8 19.1c-.2 0-.3-.1-.4-.3-.1-.4-.1-.9-.2-1.3-.1-.5-.2-1-.2-1.5-.1-.4-.1-.8-.2-1.1-.1-.3-.1-.7-.2-1 0-.1-.1-.1-.2-.2-.9-.5-1.7-1-2.6-1.5-1.1-.7-2.3-1.3-3.4-2-.1-.2-.2-.3-.2-.5s.1-.3.3-.4c.9-.3 1.9-.7 2.8-1.2l4.2-1.8c1.5-.6 2.9-1.3 4.4-1.9 1.5-.6 2.9-1.3 4.4-1.9 1.5-.7 3.1-1.3 4.6-2 .2-.1.3-.1.5 0s.1.3.1.5c-.1.4-.3.9-.4 1.3-.2.6-.3 1.2-.5 1.8-.2.6-.3 1.1-.5 1.7-.2.6-.3 1.2-.5 1.8-.2.6-.4 1.2-.5 1.9-.2.5-.3 1.1-.5 1.6-.2.6-.3 1.1-.5 1.7-.2.6-.3 1.2-.5 1.8-.2.6-.4 1.2-.5 1.8-.2.6-.3 1.1-.5 1.7-.1.2-.1.4-.2.6-.1.3-.3.4-.6.3-1.4-.8-2.7-1.6-4.1-2.4-.3-.2-.7-.4-1-.6-.1-.1-.1 0-.2 0-.8 1-1.6 2-2.4 2.9-.1.1-.2.2-.3.2zM20.7 1.5C14.3 4.2 8 7 1.7 9.8l.1.1c1.8 1 3.5 2.1 5.3 3.1.1.1.2 0 .2 0 1.3-1.1 2.6-2.3 3.9-3.4 2.1-1.9 4.3-3.7 6.4-5.6.3-.2.6-.5.9-.7.2-.1.4-.1.5 0 .1.1.2.3 0 .5 0 .1-.1.2-.1.3-1.8 2.1-3.5 4.1-5.3 6.2-1.2 1.4-2.4 2.8-3.6 4.1 0 0-.1.1-.1.2 2 1.3 4 2.4 6.1 3.6 1.5-5.6 3.1-11.2 4.7-16.7zM8.1 16.9c.2-.7.4-1.3.6-2 .1-.3.2-.5.4-.8 1-1.1 1.9-2.2 2.9-3.4.9-1 1.8-2.1 2.7-3.1l.1-.1-.2.2c-1.2 1.1-2.5 2.1-3.7 3.2-1 .9-2.1 1.8-3.1 2.7-.1.1-.1.1-.1.2 0 .3.1.5.1.8 0 .2.1.5.1.7 0 .4.1.7.1 1 0 .2.1.4.1.6zm.9 0c.1 0 .1-.1.1-.1.3-.3.5-.6.8-1 .2-.2.2-.2-.1-.4-.1-.1-.2-.1-.3-.2-.2.6-.4 1.1-.5 1.7z"/></svg>