<svg id="Layer_1" xmlns="http://www.w3.org/2000/svg" viewBox="0 0 25 15"><style>.st0,.st1{stroke:#fff;stroke-miterlimit:10}.st0{fill:#fff;stroke-width:.5}.st1{stroke-width:.6}.st1,.st2{fill:#fff}</style><path class="st0" d="M23.3 14.5h-3.6c-.6 0-1.2-.2-1.6-.7L16 11.7c-.2-.2-.4-.3-.6-.3-.5 0-.9.4-.9.9v.9c0 .7-.6 1.2-1.2 1.2H10c-2.3 0-6-5.1-8.7-9.5C.7 4 .5 3 .5 1.9v-.1c0-.7.6-1.3 1.3-1.3H5c.2 0 .4.1.4.3.7 1.4 2.7 5.1 3.4 5.9.2.2.4.3.5.3.1 0 .1 0 .2-.1V3c0-.5-.2-1-.6-1.4l-.2-.2c-.2-.2-.2-.4-.1-.6 0-.2.2-.3.4-.3h4.4c.6 0 1.1.5 1.1 1.1v5.1c.3.1.8.3 1.2-.1.4-.4 1.5-2.5 2.7-5.3.2-.5.7-.8 1.2-.8h3.5c.8 0 1.4.6 1.4 1.4 0 .8-.3 1.6-.8 2.2l-3.2 4v.6l3.6 3.6c.3.3.5.9.3 1.3-.2.6-.6.9-1.1.9zm-7.9-4c.5 0 1 .2 1.4.6l2.1 2.1c.2.2.6.4.9.4h3.6c.1 0 .2-.1.2-.1v-.2l-3.8-3.8c-.1-.1-.1-.2-.1-.4V8c0-.1 0-.2.1-.3L23 3.5c.4-.5.6-1 .6-1.6 0-.2-.2-.4-.4-.4h-3.5c-.1 0-.3.1-.3.2-.9 2.2-2.2 5-2.9 5.7-.9.8-2.1.4-2.6 0-.1-.1-.2-.2-.2-.4V1.6c0-.1 0-.1-.1-.1h-3.3c.3.5.4 1 .4 1.5v4c0 .1 0 .2-.1.3 0 .1-.4.6-1 .6-.6.1-1-.1-1.4-.5-.9-.9-2.9-4.8-3.5-5.9H1.8c-.2 0-.3.1-.3.3v.3c0 .9.2 1.7.7 2.5 3.4 5.5 6.4 9 7.8 9h3.3c.1 0 .2-.1.2-.2v-.9c0-1.1.9-2 1.9-2z"/></svg>