<svg xmlns="http://www.w3.org/2000/svg" viewBox="0 0 441.5 441.4"><path d="M220.6 0c121.6-.1 220.8 98.8 221 220.5.2 121.5-98.9 220.7-220.6 220.9C99.3 441.5-.3 341.9 0 220.3.3 98.7 99 .1 220.6 0zM120.2 104.9c-5 8.7-9.6 16.4-13.8 24.3-7.5 14-20.8 19.1-35 22.1-6.2 1.3-10.2-2.3-10.7-8.9-.3-4.4.1-9 .6-13.4.5-4.1 1.6-8.1 2.7-13.2-27 30.8-43.2 121.8-26.8 146.7.8-4.8 1.3-9.6 2.5-14.3 1.9-7 4-14 6.5-20.9.9-2.6 3.2-5.2 6.7-2.9C61.3 230 69.6 236 78 241.6c5.9 3.9 11.9 7.8 18.1 11.1 5.3 2.7 11.1 4.4 16.6 6.8 3.2 1.4 6.3 3.1 9.1 5.1 4.2 3.1 4.3 6.4.7 10-2.5 2.5-5.1 4.8-7.8 7.1-8.2 6.9-14.3 15.4-18.3 25.2-4.9 12.2-9.4 24.5-14.4 36.7-1.3 3.3-.7 5.3 1.7 7.8 53.5 52.8 116.9 70.7 189.4 50.8 113.4-31 170.2-162.6 116.3-267-.6-1.1-1.3-2.1-2-3.1-.4.1-.9.1-1.3.2 0 5.4-.4 10.9.1 16.2.8 9.6-2.6 17.6-9.5 23.7-6.1 5.3-13 9.7-19.7 14.4-3 2.1-6.3 3.7-9.4 5.7-5.4 3.5-7.3 8.6-5.8 14.7 1.4 5.5 2.7 11 4.8 16.2 3.6 8.9 3.5 17.9 1.1 26.9-7.7 28.7-22.7 53.5-40.5 76.8-3.3 4.4-7.1 8.4-11.1 12.1-7.4 6.8-13.3 5.5-16.5-4.1-2.2-6.7-3.6-13.9-4.2-21-1.1-15.1-1-30.3-2.3-45.4-1.9-22.4-6.6-43.8-25.4-59-.4-.3-.6-.8-1-1.1-1.2-.9-2.3-2-3.6-2.5-17.9-6.3-35.7-12.7-53.7-18.6-6.2-2-10-5.6-11.3-11.9-3.8-18.7 11.6-36.6 30.6-35.4 7.6.5 8.7-.4 8.5-8.2-.1-5-.5-10-1-15-1.8-16.2-10.4-23.7-26.8-23-5.8.2-11.6 1.1-17.4 1.4-11 .6-14.6 2.7-17.7 13.3-3.2 10.7-5.3 21.6-8 32.4-1 4-2 8.1-3.7 11.8-1.8 3.9-5.2 4.5-8.8 2.1-4.8-3.3-8.6-7.5-9.4-13.5-1.3-11.5-2.6-23.4-4.2-36.4z"/></svg>