<svg id="Слой_1" xmlns="http://www.w3.org/2000/svg" viewBox="0 0 56 56"><style>.st0{fill:#e92036}</style><path class="st0" d="M40 38.9H23.9c-.5 0-.8.4-.8.8 0 .5.4.8.8.8H40c3.2 0 5.7-2.6 5.7-5.7V22.5c0-3.2-2.6-5.7-5.7-5.7h-4.7l-10.6-5.4c-1.1-.5-2.4-.1-2.9.9l-2.3 4.5h-3c-1.1 0-1.9.9-1.9 1.9v20c0 1.1.9 1.9 1.9 1.9h3.8c.5 0 .8-.4.8-.8 0-.5-.4-.8-.8-.8h-3.8c-.2 0-.3-.1-.3-.3v-20c0-.2.1-.3.3-.3H40c2.3 0 4.1 1.8 4.1 4.1v2.7h-6.5c-2.1 0-3.8 1.7-3.8 3.8v1c0 2.1 1.7 3.8 3.8 3.8h6.5v1c0 2.3-1.9 4.1-4.1 4.1zM23.3 13c.1-.3.4-.3.7-.2l7.7 3.9H21.4l1.9-3.7zm14.3 19.2c-1.2 0-2.2-1-2.2-2.2v-1.1c0-1.2 1-2.2 2.2-2.2h6.5v5.4h-6.5zm0 0"/><path class="st0" d="M54 18c-1.3-3.2-3.2-6-5.6-8.5-.6-.6-1.2-1.2-1.9-1.7-.3-.3-.9-.2-1.2.1-.3.3-.2.9.1 1.2.6.5 1.2 1 1.8 1.6 4.6 4.6 7.1 10.8 7.1 17.3 0 6.6-2.6 12.7-7.2 17.4-4.6 4.6-10.8 7.2-17.4 7.2-5.2 0-10.1-1.6-14.3-4.6l1-1.3c4 2.8 8.6 4.3 13.4 4.3 6.1 0 11.9-2.4 16.3-6.8 4.3-4.4 6.7-10.1 6.7-16.3C52.7 15.3 42.5 5.1 29.9 5h-.1c-3.7 0-7.2.8-10.4 2.5-3.1 1.6-5.9 3.9-8 6.7-.3.4-.2.9.2 1.1.4.3.9.2 1.1-.2 4-5.4 10.4-8.6 17.1-8.6h.1c11.7 0 21.3 9.6 21.3 21.3 0 5.7-2.2 11.1-6.2 15.1s-9.4 6.3-15.1 6.3c-4.6 0-9-1.4-12.7-4.2-.5-.4-1.3-.3-1.7.2l-1.4 1.9c-.2.3-.3.6-.2.9 0 .3.2.6.5.8 4.5 3.4 9.9 5.1 15.6 5.1 7 0 13.6-2.7 18.5-7.7C53.3 41.6 56 35 56 28c0-3.4-.7-6.8-2-10zm0 0"/><path class="st0" d="M10.7 24c-.2-.3-.4-.4-.7-.5-.3-.1-.6 0-.9.1l-.3.2c.4-1.9 1-3.7 1.9-5.4.2-.4 0-.9-.4-1.1-.4-.2-.9 0-1.1.4-1.2 2.4-2 5-2.3 7.7 0 .3.1.6.4.8.3.2.6.2.9 0l1.4-.8.8 1.4-4.7 2.8-3.9-3.5 1.1-1.2 1.1 1c.2.1.6.1.9 0 .3-.1.5-.4.5-.7.6-5.6 3.1-10.6 7-14.6C17 6 23.2 3.5 29.7 3.4h.1c4.5 0 8.9 1.2 12.7 3.5.4.2.9.1 1.1-.3.2-.4.1-.9-.3-1.1-4.1-2.4-8.7-3.7-13.5-3.7h-.1c-3.4 0-6.8.7-10 2s-6 3.2-8.5 5.7c-3.9 3.9-6.4 8.7-7.3 14l-.3-.3c-.2-.2-.5-.3-.8-.3-.3 0-.6.1-.8.4L.3 25.2c-.2.2-.3.5-.3.8 0 .3.1.6.4.8l4.4 4c.2.2.5.3.8.3.2 0 .4-.1.6-.2l5.4-3.2c.5-.3.7-1 .4-1.6L10.7 24zm28.8 5.5c0 .8-.6 1.4-1.4 1.4-.8 0-1.4-.6-1.4-1.4 0-.8.6-1.4 1.4-1.4.8 0 1.4.6 1.4 1.4zm0 0"/></svg>