<svg id="Слой_1" xmlns="http://www.w3.org/2000/svg" viewBox="0 0 56 56"><style>.st0{fill:#e92036}</style><path class="st0" d="M4.1 56h-.7L.5 53.1c-.7-.6-.7-1.1 0-1.7l4.3-4.3.4-.4c-.7-.8-.7-1.1.1-1.9.7-.7 1.3-1.4 2-2 .3-.3.4-.5.2-.9-2-4.8-.7-10.3 3.3-13.7.4-.3.5-.6.5-1.1V1.3c0-1 .3-1.3 1.3-1.3h42.2c.6 0 1 .2 1.3.7V56H11.9c-.5-.3-.6-.8-.6-1.3v-3.8c-.7.7-1.3.6-1.9-.1l-2 2c-1.2 1.1-2.3 2.1-3.3 3.2zm9-1.9h41V1.9h-41v24.6h.1c.1-.1.3-.1.4-.2 2.1-1 4.3-1.3 6.6-1 6.6.8 11.3 6.9 10.5 13.5-.9 7.9-9.2 12.8-16.6 9.8-.7-.3-1.1 0-1.1.8v4.3c.1.1.1.3.1.4zm15.8-16.8c0-5.6-4.6-10.2-10.2-10.3-5.6 0-10.3 4.6-10.3 10.2 0 5.7 4.5 10.3 10.2 10.3 5.7.1 10.3-4.5 10.3-10.2zM3.7 53.6l4.2-4.2c-.5-.4-.9-.9-1.3-1.2l-4.2 4.2c.4.3.9.8 1.3 1.2zm8.1-6.1l-3.2-3.2c-.5.4-1 1-1.5 1.5l3.2 3.2c.5-.6 1-1.1 1.5-1.5zM1.9 1.9V.1h1.8v1.8H1.9z"/><path class="st0" d="M1.9 3.7H.1V1.9h1.8v1.8zm1.8-1.8h1.9v1.8H3.7V1.9zm0 1.8v1.9H1.9V3.7h1.8zm42 12.2c0 6.7-5.4 12.1-12.1 12.1-6.7 0-12.1-5.5-12.1-12.2 0-6.6 5.5-12.1 12.1-12.1 6.7 0 12.1 5.5 12.1 12.2zm-4.6 6.9c2.2-2.1 3.7-6.3 2.2-10.4-1.5-4.2-5.5-6.9-9.9-6.8-4.4.1-8.3 3-9.6 7.2-1.2 3.8.1 7.9 2.3 9.9v-3.9c0-1.7 1.1-3.1 2.6-3.7.2-.1.4-.1.5-.2-.7-2.6-.2-4.4 1.5-5.7 1.6-1.1 3.7-1.3 5.3-.2 2.1 1.4 2.6 3.5 1.8 5.9.1 0 .2.1.3.1 1.7.6 2.8 1.9 2.9 3.8v2.3c.1.6.1 1.1.1 1.7zm-7.7 3.3c2 0 3.9-.5 5.4-1.4.2-.1.4-.4.4-.6v-5.2c0-1.2-.9-2-2.1-2.1H36c-.8-.1-1.1-.9-.6-1.5l.3-.3c.8-.9 1-2.1.5-3.1s-1.5-1.6-2.7-1.6c-1.1.1-2.1.8-2.4 1.9-.4 1.1-.1 2.1.8 2.9.3.3.4.7.3 1.1-.2.4-.5.6-1 .6h-.8c-1.4 0-2.3.9-2.3 2.3V24c0 .3.1.5.4.7 1.5.9 3.2 1.4 4.9 1.4zM42 48.6v1.8H27.1v-1.8H42zM52.3 43v1.8H41.2V43h11.1zm-11.2-9.4v-1.8h11.1v1.8H41.1zm.9 3.8v1.8h-8.3v-1.8H42zm10.3 0v1.8h-8.4v-1.8h8.4zm-8.4 13v-1.8h8.4v1.8h-8.4zM39.2 43v1.8h-6.4V43h6.4zm-6.5-11.2h6.4v1.8h-6.4v-1.8zm-5.6 5.5c0 4.6-3.7 8.4-8.3 8.4-4.7 0-8.4-3.7-8.4-8.4 0-4.6 3.7-8.4 8.3-8.4 4.6 0 8.4 3.8 8.4 8.4zm-8.4-6.5c-3.6 0-6.5 2.9-6.5 6.5s2.9 6.6 6.5 6.6 6.5-2.9 6.6-6.5c-.1-3.6-3-6.6-6.6-6.6z"/><path class="st0" d="M35.4 17.8v1.8h-.9v3.7h-1.9v-3.6c-.3 0-.6 0-.9-.1v-1.8h3.7zm-16.7 15v1.7c-1.1.2-1.7.7-1.9 1.9H15c-.2-1.9 1.8-3.9 3.7-3.6z"/></svg>