<svg id="Слой_1" xmlns="http://www.w3.org/2000/svg" viewBox="0 0 56 56"><style>.st0{fill:#e92036}</style><path class="st0" d="M56 47v9H0v-9l.1-.1c.6-2.6 2.4-3.9 5-3.9h5.2v-.7c0-.5 0-.9-.5-1.3-1.1-.9-1.9-2-2.2-3.5-.1-.5-.3-.7-.8-.9-2.1-.7-2.8-3.1-1.6-4.9.1-.1.1-.2.1-.3 0-.4-.1-.8-.2-1.2H1.6c-.7 0-1-.3-1-1v-3.4c0-.7.3-1 1-1h3.1c.4 0 .5-.1.6-.5.1-.9.3-1.8.5-2.6C8.6 12 15 6.3 24.9 4.6c.3-.1.4-.2.4-.5v-3c0-.5.1-.9.5-1.2h4.4c.4.3.5.7.5 1.2V4c0 .3.1.4.4.5 4 .6 7.6 2 10.8 4.5 1.5 1.2 2.9 2.5 4.1 4 .4.6.3 1.2-.4 1.4-.5.1-.7-.2-1-.5-3.6-4.3-8.3-7-14.1-7.7-1.4-.2-1.4-.2-1.4-1.7V1.7H27v3.4c0 .8-.2 1-1 1.1-2.5.2-5 .9-7.3 2-6.8 3.5-10.8 9-11.9 16.6-.2 1.5-.2 1.6-1.8 1.6H2.3v2.1h3.3c.8 0 1.1.2 1.1 1.1 0 .2 0 .4.1.6 0 .2.1.4.1.6 0-1.3.1-2.6.8-3.6.9-1.4 1.2-2.9 1.6-4.4 2-7.8 8.3-13.3 16.3-14.3 1-.1 1.3.1 1.3 1.1v2.1H29V9.5c0-.9.3-1.2 1.2-1.1.3 0 .6.1.9.1 8.2 1.4 14.8 8.1 15.9 16.3 0 .3.2.7.4 1 .8 1.1 1.3 2.3 1.4 3.7 0 .4.1.9.1 1.3.1-.5.2-.9.2-1.4.1-.6.4-.9 1-.9h3.5v-2.1h-3.4c-.7 0-1-.3-1-.9-.2-2.7-1-5.2-2.2-7.6-.3-.6-.2-1.1.3-1.3.5-.2.9 0 1.2.6 1.1 2.3 1.9 4.6 2.2 7.1.1.4.2.5.6.5h3c.7 0 1 .3 1 1V29c0 .9-.3 1.1-1.2 1.1h-3.4c-.1.7-.4 1.4.2 2.1.3.3.3.8.3 1.2.1 1.6-.9 2.9-2.5 3.4-.2.1-.4.2-.4.4-.3 1.7-1.2 3-2.4 4-.1.1-.3.3-.3.5v1.4h5.6c2.1 0 3.9 1.4 4.5 3.4.2.1.2.3.3.5zM45.2 23.7c-1.4-7.2-7.8-12.8-14.5-13.6v2.1c0 .8-.3 1.1-1.1 1.1h-3.1c-1 0-1.2-.2-1.2-1.2v-2c-4.4.7-7.9 2.8-10.7 6-1.9 2.2-3.2 4.8-3.8 7.7 1.6-.8 3.1-1.1 4.7-.9 1.6.2 3 1 4.2 2.1.1-.2.1-.2.1-.3.3-1.2.8-2.3 1.5-3.3.3-.4.8-.5 1.2-.2.4.3.5.7.2 1.2-.1.2-.3.5-.5.7-1.3 2.1-1 4.4-.7 6.7l.6-.9c.5-1.1.8-1.4 2.1-1.3 3.8.3 7-3.1 6.6-6.8 0-.3-.2-.5-.5-.6-.6-.1-1.3-.4-1.9-.3-.9 0-1.8.2-2.6.4-.7.1-1.1 0-1.3-.5-.2-.5.1-.9.7-1.1h.1c4.6-1.6 9.6 1 10.8 5.7.1.2.1.5.2.7 2.7-2.5 5.6-3 8.9-1.4zM30.9 26l-.1.1c-1.8 2.1-4 3.2-6.8 3-.1 0-.3.2-.4.3-.5.6-.8 1.3-1.4 1.7-.5.4-.7.7-.6 1.4.1 1 0 2.1.6 3 1.8 3 5.7 5.8 9.9 2.1.1-.1.2-.1.2-.2 1-.9 1.8-2 1.9-3.3.1-.7.1-1.3.1-2 0-.2-.1-.5-.3-.6-1.3-1-2-2.3-2-3.9 0-.2 0-.4-.1-.5-.3-.4-.6-.7-1-1.1zm-9.7 16.9c-1.5 0-3-.1-4.5 0-2 .1-3.6 1.7-3.6 3.6v7.8h3.8v-4.1c0-.8.3-1.2.8-1.2.6 0 .8.4.8 1.2v4.1h5.7c-.2-.8-.4-1.5-.6-2.3-.1-.5.1-1 .6-1.1.4-.1.8.2 1 .6.1.2.1.5.2.7.2-1.3.4-2.5.5-3.7 0-.3 0-.7-.4-.8-.3-.1-.6-.3-.8-.5-.3-.2-.5-.5-.7-.8 0 .5.2.9.3 1.4.1.4-.1.8-.5.9-.4.1-.8 0-1-.4-.1-.2-.1-.3-.2-.5-.5-1.5-1-3.2-1.4-4.9zm21.6 11.4c0-2.7.1-5.4 0-8.1-.1-1.8-1.6-3.2-3.4-3.3-1-.1-2 0-3.1 0h-1.5c-1 3.8-2.1 7.6-3.1 11.4h5.6v-4.4c0-.5.3-.9.8-.9s.8.3.8.8v4.4c1.4.1 2.7.1 3.9.1zm-26-25h-.4c-1.5.3-3 .2-4.5-.1-.8-.2-1 0-1.1.8-.4 1.6-.6 3.4-1.4 4.9-.6 1.1-.4 2.3.2 3.3 1.8 2.8 5 4.7 8.4 1.6l.5-.5c.6-.7 1.1-1.4 1.2-2.3.1-1 .2-2 .2-2.9-2.2-.8-3.3-2.4-3.1-4.8zM36 33.9c.1.8.1 1.5.2 2.3 0 1.1.4 2.1 1.2 2.9.9 1 2 1.7 3.3 2.1.6.2 1.3.2 1.9 0 1.2-.4 2.3-1.1 3.1-2.1.5-.6.9-1.2 1-1.9.3-1.4.3-2.9.4-4.4-1.8-.7-2.5-2.1-2.7-3.8-.1 0-.2.1-.2.1-1.6 1.3-3.4 2.3-5.4 3-.1 0-.3.1-.4.2-.5.9-1.3 1.4-2.4 1.6zm10.8 10.7c-.3 1.4-1 2.6-2.2 3.5-.1.1-.1.3-.1.4v5.7s0 .1.1.1h5v-3.8c0-.5.3-.7.8-.7s.7.3.8.7v3.8h3.1v-6.8c0-1.5-1.3-2.8-2.7-2.9h-4.8zm-35.3 9.7v-5.2c0-.6-.1-1-.6-1.4-.5-.4-.8-.9-1.1-1.4-.3-.5-.4-1.1-.6-1.6H5c-1.9 0-3.3 1.3-3.3 3.3v6.4h3.1v-3.6c0-.7.3-1 .8-1s.8.4.8 1v3.5h5.1zm25-26.8c1.8.1 2.6 1 2.7 2.7.7-.4 1.4-.6 1.9-1 .9-.6 1.8-1.3 2.7-2 .9-.7 1.8-.5 2 .6.1.6.2 1.1.4 1.7.1.6.4 1.1.9 1.4.5-2-.7-5.3-3.9-6.3-2.9-.9-5.9.9-6.7 2.9zm-17 .1c-1.1-2.5-4.2-3.7-6.9-2.9-2.8.9-4.5 3.8-3.8 6.8.2-.7.3-1.3.4-1.9.4-1.6 1.4-2.3 3.1-2 1 .2 2.1.2 3.1.2.8 0 1.5-.2 2.3-.2.6-.1 1.2 0 1.8 0zm13-6.2c-.1.7-.1 1.5-.4 2.1-.3.8-.1 1.3.4 1.8.1.1.2.3.3.4.6.5.9 1.1.8 1.9-.1.8.2 1.4.9 2 .1-1.4.2-2.9.1-4.3-.1-1.6-.9-2.8-2.1-3.9zm-1.4 18.8c-2 1.1-4.1 1.1-6.1 0v.7c-.1.5.1.8.6 1 .7.4 1.4.8 2.2 1.2.2.1.5.1.6 0 .8-.4 1.7-.9 2.5-1.4.1-.1.2-.3.3-.5-.1-.2-.1-.6-.1-1zm-12.1 1c1.5-.1 3 .4 4.4-.6v-1.1c0-.2-.1-.4-.2-.5-.6-.6-1.2-1.1-1.8-1.7-.4 1.6-1.3 2.8-2.4 3.9zm18.1 0c-1.2-1.1-2.1-2.3-2.4-3.8-.6.6-1.2 1.1-1.8 1.7-.1.1-.2.2-.2.4v1.2c1.4 1 2.9.4 4.4.5zM29 54.3c-.2-1.9-.4-3.7-.6-5.5h-.9c-.2 1.8-.4 3.7-.6 5.5H29zm3.1-7.7H32c-.2.3-.4.5-.7.8-.2.2-.4.4-.6.4-.5 0-.6.4-.6.8.1 1.3.2 2.5.4 3.8h.1c.5-1.9 1-3.9 1.5-5.8zm-5.4-2.2c-1.1-.6-2.1-1.2-3.1-1.7-.1 0-.3 0-.3.1-.1.1-.1.3 0 .4.7.9 1.4 1.7 2.2 2.6.4-.5.8-.9 1.2-1.4zm2.6 0c.5.5.8.9 1.2 1.4.7-.9 1.4-1.7 2.1-2.5.2-.2.2-.4-.1-.7-1 .6-2.1 1.2-3.2 1.8zM20 32.2c-.1-1-.1-2-.2-2.9-.8-.1-1.2 0-1.3.5-.3.9.4 2 1.5 2.4zm16 0c1-.2 1.5-1.1 1.5-2.1 0-.6-.4-1-1-.9-.1 0-.3.2-.3.3-.1.8-.1 1.7-.2 2.7zm7.1 10.6c.5 1.1 1 2.1 1.5 3.1.2-.4.3-.8.5-1.1-.4-.4-.7-.7-.9-1.1-.2-.4-.1-.8-.2-1.3-.3.2-.7.3-.9.4zM12 42.5s-.1 0 0 0c0 .1-.1.1-.1.2 0 .8-.1 1.5-.9 1.9-.1 0-.1.2-.1.3.1.4.3.7.4 1 .5-1 1-2.1 1.5-3.1-.2-.1-.5-.2-.8-.3 0-.1 0 0 0 0zm16.6 4.7c.2-.9.1-1.2-.7-1.7-.2.2-.4.4-.5.6-.1.3-.1.6-.1.9 0 .1.4.1.6.1.2.1.5.1.7.1zM7.4 35.1c-.1-.9-.1-1.6-.2-2.4-.8 0-1 .2-.9.9 0 .6.3 1.1 1.1 1.5zm41.2 0c.8-.4 1.1-.9 1.1-1.6 0-.6-.3-.9-.9-.7 0 .7-.1 1.4-.2 2.3z"/></svg>