<svg id="Слой_1" xmlns="http://www.w3.org/2000/svg" viewBox="0 0 56 56"><style>.st0{fill:#e92036}</style><path class="st0" d="M28 36.7c1.5 0 2.8-1.2 2.8-2.8 0-1.5-1.2-2.8-2.8-2.8-1.5 0-2.8 1.2-2.8 2.8 0 1.6 1.3 2.8 2.8 2.8zm0-3.7c.5 0 .9.4.9.9s-.4.9-.9.9-.9-.4-.9-.9c0-.4.4-.9.9-.9zm0 0"/><path class="st0" d="M55.5 42.2v-3.4c0-1.1-.8-1.9-1.8-2.1v-5.3c0-1.1-.9-2.1-2.1-2.1h-7.5l.2-1.4c.1-1.1-.7-2.2-1.8-2.3H39v-.2c0-1.2-.7-2.4-1.8-2.9V9.2C37.2 4.1 33.1 0 28 0s-9.2 4.1-9.2 9.2v11h1.8v-11c0-4.1 3.3-7.3 7.3-7.3s7.3 3.3 7.3 7.3v12.7l-3.8-1.4-.4-2.9 1-.6c1-.6 1.6-1.6 1.6-2.8V11c.5 0 .9-.4.9-.9V6.4h-1.8v2.8h-.9c-2.5 0-4.6-2.1-4.6-4.6h-1.8c0 .4 0 .8.1 1.2-1.7.6-2.9 2.3-2.9 4.1v4.4c0 1.1.6 2.2 1.6 2.8l1 .6-.6 2.8-5.4 2c-1.3.5-2.1 1.7-2.1 3v.2h-3.3c-1.1 0-2.1.9-2.1 2.1v.3l.2 1.4H5.3c-1.1 0-2.1.9-2.1 2.1v5.3h-.7c-1.1 0-2.1.9-2.1 2.1v15.4c0 .5.4.9.9.9h5.5c.5 0 .9-.4.9-.9v-3.7h11.6l.8 4.7c.1.4.5.8.9.8h5.5c.4 0 .8-.3.9-.8l.5-2.8.5 2.8c.1.4.5.8.9.8h5.5c.4 0 .8-.3.9-.8l.8-4.7h11.7v3.7c0 .5.4.9.9.9h5.5c.5 0 .9-.4.9-.9V44.1h-1.8v9.2H50V38.8c0-.1.1-.2.2-.2h3.2c.1 0 .2.1.2.2v3.4h1.9zm-41.3.9v-.9h27.5v.9H14.2zm14.9-17.4l2.1-3.5 5.1 1.9c.5.2.9.7.9 1.3v.2h-8.1zM28 23.9l-1.8-3 .5-2.3c.8.4 1.8.4 2.6 0l.5 2.3-1.8 3zm-3.7-9.6V9.9c0-1 .6-2 1.6-2.4C27 9.7 29.3 11 31.7 11v3.3c0 .5-.3.9-.7 1.2l-2 1.2h-.1l-.2.1c-.4.3-1 .3-1.4 0l-.2-.1H27l-2-1.2c-.4-.3-.7-.7-.7-1.2zm-5.5 11.2c0-.6.4-1.1.9-1.3l5.1-1.9 2.1 3.5h-8.1v-.3zM5 31.4c0-.1.1-.2.2-.2H12l.5 3.8 1.8-.2-.9-7c0-.1.1-.2.2-.3h28.6c.1 0 .2.1.2.2L41 40.4H15l-.5-3.8-1.8.2.4 3.6c-.5.1-.8.4-.8.9v1.8H9.2c-.5 0-.9.1-1.4.3v-4.7c0-1.1-.9-2.1-2.1-2.1H5v-5.2zm1 21.8H2.3V38.8c0-.1.1-.2.2-.2h3.2c.1 0 .2.1.2.2v14.4zm1.8-4.5v-2.3c0-.8.6-1.4 1.4-1.4H19c-.3.6-.4 1.3-.3 1.9l.3 1.8H7.8zm18 5.5h-4l-1.3-7.6c-.1-.8.4-1.5 1.1-1.6h4c.6 0 1.1.4 1.3 1v.9l-1.1 7.3zm9.5-7.6L34 54.2h-4l-1.2-7.3V46c.2-.6.7-1 1.3-1H34c.8 0 1.4.6 1.4 1.4-.1 0-.1.1-.1.2zm1.5 2.1l.3-1.8c.1-.6 0-1.3-.3-1.9h9.9c.8 0 1.4.6 1.4 1.4v2.3H36.8zm11.4-9.9v4.7c-.4-.2-.9-.3-1.4-.3h-3.2v-1.8c0-.5-.3-.8-.8-.9l1.1-9.2h7.7c.1 0 .2.1.2.2v5.3h-1.6c-1.1-.1-2 .8-2 2zm0 0"/></svg>