<svg id="Слой_1" data-name="Слой 1" xmlns="http://www.w3.org/2000/svg" viewBox="0 0 56 56"><defs><style>.cls-1{fill:#981826}.cls-2{fill:#fff}.cls-3{fill:url(#Безымянный_градиент_15)}</style><linearGradient id="Безымянный_градиент_15" x1="28" y1="44.63" x2="28" y2="9.37" gradientUnits="userSpaceOnUse"><stop offset="0" stop-color="#e22237"/><stop offset="1" stop-color="#fd1c34"/></linearGradient></defs><title>play</title><path class="cls-1" d="M48.89 11.37H7.17A7.19 7.19 0 0 0 0 18.54v20.92a7.19 7.19 0 0 0 7.17 7.17h41.66A7.19 7.19 0 0 0 56 39.46V18.54a7.1 7.1 0 0 0-7.11-7.17zM37.59 29.6a1.49 1.49 0 0 1-.41.42l-13.93 8.25a1.18 1.18 0 0 1-1.62-.42 1 1 0 0 1-.18-.6v-16.5a1.19 1.19 0 0 1 1.2-1.19 1.24 1.24 0 0 1 .6.17L37.18 28a1.2 1.2 0 0 1 .41 1.6z"/><path class="cls-2" d="M11.94 14.81h33.73V38.2H11.94z"/><path class="cls-3" d="M48.89 9.37H7.17A7.19 7.19 0 0 0 0 16.54v20.92a7.19 7.19 0 0 0 7.17 7.17h41.66A7.19 7.19 0 0 0 56 37.46V16.54a7.1 7.1 0 0 0-7.11-7.17zM37.59 27.6a1.49 1.49 0 0 1-.41.42l-13.93 8.25a1.18 1.18 0 0 1-1.62-.42 1 1 0 0 1-.18-.6v-16.5a1.19 1.19 0 0 1 1.2-1.19 1.24 1.24 0 0 1 .6.17L37.18 26a1.2 1.2 0 0 1 .41 1.6z"/></svg>