<svg width="18" height="18" viewBox="0 0 18 18" fill="none" xmlns="http://www.w3.org/2000/svg"><path d="M1 5.5h3.5c.736 0 1.393.391 1.851 1.001a8.11 8.11 0 0 1 1.191-1.662C6.739 4.016 5.676 3.5 4.5 3.5H1a1 1 0 1 0 0 2zm7.685 3.111C9.236 6.954 10.941 5.5 12.334 5.5h1.838l-1.293 1.293a.999.999 0 1 0 1.414 1.414L18 4.5 14.293.793a.999.999 0 1 0-1.414 1.414L14.172 3.5h-1.838c-2.274 0-4.711 1.967-5.547 4.479L6.315 9.39C5.674 11.316 4.243 12.5 3.5 12.5H1a1 1 0 1 0 0 2h2.5c1.837 0 3.863-1.925 4.713-4.479l.472-1.41z" fill="#B1B2B5"/><path d="M12.879 9.793a.999.999 0 0 0 0 1.414l1.293 1.293h-2.338c-1.268 0-2.33-.891-2.691-2.108a9.335 9.335 0 0 1-1.09 2.185c.886 1.162 2.243 1.923 3.78 1.923h2.339l-1.293 1.293a.999.999 0 1 0 1.414 1.414L18 13.5l-3.707-3.707a.999.999 0 0 0-1.414 0z" fill="#B1B2B5"/></svg>