<svg width="17" height="17" viewBox="0 0 17 17" fill="none" xmlns="http://www.w3.org/2000/svg"><path d="M11.688 0H5.311A5.313 5.313 0 0 0 0 5.313v6.375A5.313 5.313 0 0 0 5.313 17h6.375A5.313 5.313 0 0 0 17 11.687V5.314A5.313 5.313 0 0 0 11.687 0zm3.718 11.688a3.723 3.723 0 0 1-3.719 3.718H5.314a3.723 3.723 0 0 1-3.72-3.719V5.314a3.723 3.723 0 0 1 3.72-3.72h6.375a3.723 3.723 0 0 1 3.718 3.72v6.375z" fill="#B1B2B5"/><path d="M8.5 4.25a4.25 4.25 0 1 0 0 8.5 4.25 4.25 0 0 0 0-8.5zm0 6.906A2.66 2.66 0 0 1 5.844 8.5 2.66 2.66 0 0 1 8.5 5.844 2.66 2.66 0 0 1 11.156 8.5 2.66 2.66 0 0 1 8.5 11.156zm4.569-6.658a.566.566 0 1 0 0-1.133.566.566 0 0 0 0 1.133z" fill="#B1B2B5"/></svg>