<svg width="14" height="13" viewBox="0 0 14 13" fill="none" xmlns="http://www.w3.org/2000/svg"><path d="M8.516 4.458l.603-2.904A1.17 1.17 0 0 0 8.792.48l-.407-.4a.278.278 0 0 0-.391 0L3.998 3.968a1.668 1.668 0 0 0-.504 1.194v6.291c0 .821.665 1.486 1.486 1.486h5.408a1.55 1.55 0 0 0 1.418-.926l1.946-4.433c.067-.151.1-.312.1-.478V5.726a1.27 1.27 0 0 0-1.269-1.27H8.516zm-6.606 8.48H.518a.454.454 0 0 1-.452-.452V4.908c0-.25.202-.453.452-.453H1.91c.25 0 .453.202.453.453v7.578a.454.454 0 0 1-.453.452z" fill="#B1B2B5"/></svg>