<svg width="13" height="16" viewBox="0 0 13 16" fill="none" xmlns="http://www.w3.org/2000/svg"><path d="M6.316 6.044c.404 0 .71-.151.93-.455.167-.223.245-.581.245-1.054V2.972c0-.473-.078-.821-.245-1.044-.22-.303-.527-.455-.93-.455-.396 0-.703.151-.92.455-.168.224-.246.572-.246 1.045v1.563c0 .473.078.821.246 1.054.217.303.524.454.92.454zm-.378-3.232c0-.41.123-.615.378-.615.263 0 .377.205.377.615v1.875c0 .411-.114.625-.377.625-.255 0-.378-.215-.378-.625V2.812zM8.21 5.714c-.044-.135-.07-.348-.07-.67V1.528h.798v3.276c0 .188 0 .294.01.313.017.125.078.196.184.196.157 0 .323-.125.499-.384V1.527h.798v4.455H9.63v-.491c-.315.374-.613.553-.904.553-.254 0-.438-.106-.517-.33zm3.035 5.402v.41h-.79v-.41c0-.402.133-.608.395-.608.263.001.395.206.395.608zM2.666 1.67C2.474 1.116 2.282.553 2.096 0h.93l.623 2.348L4.245 0h.895L4.08 3.562v2.42h-.877v-2.42c-.08-.437-.256-1.062-.537-1.892zm10.105 6.598c-.158-.706-.729-1.223-1.404-1.303-1.614-.18-3.246-.18-4.868-.18-1.623 0-3.255 0-4.86.18-.682.08-1.244.597-1.41 1.303-.22 1-.229 2.09-.229 3.125 0 1.027 0 2.124.228 3.125.158.705.729 1.223 1.404 1.295C3.245 16 4.877 16 6.5 16c1.622 0 3.254 0 4.868-.187.674-.072 1.236-.59 1.404-1.295.219-1 .228-2.098.228-3.125 0-1.035 0-2.125-.23-3.125zm-9.06.902h-.938v5.08h-.878V9.17H.974v-.84H3.71v.84zm2.368 5.08h-.781v-.482c-.317.367-.614.545-.895.545-.254 0-.439-.107-.509-.33-.044-.134-.07-.34-.07-.651V9.84h.781v3.25c0 .188 0 .286.008.313.019.124.08.188.184.188.16 0 .326-.125.5-.375V9.842h.782v4.408zm2.981-1.32c0 .411-.018.705-.08.892-.095.322-.315.492-.622.492-.28 0-.553-.162-.817-.492v.43h-.779V8.33h.78v1.937c.254-.322.526-.482.816-.482.307 0 .527.17.623.5.061.179.08.473.08.884v1.759zm2.964-.732h-1.57v.776c0 .411.133.616.405.616.193 0 .307-.107.351-.321a4.95 4.95 0 0 0 .018-.545h.798v.116c0 .26 0 .438-.018.518a1.07 1.07 0 0 1-.184.482c-.212.313-.535.473-.947.473-.412 0-.72-.151-.947-.455-.167-.215-.255-.563-.255-1.036v-1.545c0-.473.08-.812.246-1.036.229-.304.535-.456.94-.456.395 0 .701.152.929.456.159.223.237.562.237 1.036v.92h-.003zm-3.745-1.09v1.884c0 .402-.114.598-.342.598-.132 0-.263-.062-.396-.196v-2.687c.133-.135.264-.197.396-.197.228 0 .342.205.342.598z" fill="#B1B2B5"/></svg>