<svg width="375" height="419" viewBox="0 0 375 419" fill="none" xmlns="http://www.w3.org/2000/svg"><g opacity=".6" fill="#061E3A"><path d="M431.252 182.68c-5.341-2.134-11.037-1.601-15.843.711-.89 0-1.78-.178-3.026-.178-.356 0-.712-.178-1.246-.178 1.424-.178 2.67-.711 4.094-1.244 5.874-2.49 9.968-7.647 11.392-13.337-5.162-3.023-11.57-3.734-17.444-1.245-4.984 2.134-8.544 6.046-10.324 10.492-.356.889-.712 1.778-.89 2.667.534.356.89.533 1.424.711-4.095-.533-8.723-1.067-14.063-1.778 2.492 0 5.162-.356 7.654-1.422 5.875-2.49 9.969-7.647 11.393-13.337-5.162-3.023-11.571-3.734-17.445-1.245-5.874 2.49-9.968 7.647-11.392 13.337 1.78 1.067 3.56 1.778 5.518 2.311-5.518-.711-11.748-1.244-18.157-1.956 2.136-.177 4.273-.533 6.409-1.422 5.874-2.49 9.968-7.646 11.392-13.336-5.162-3.023-11.57-3.735-17.445-1.245-5.874 2.489-9.968 7.646-11.392 13.336 1.602.889 3.382 1.601 5.162 2.134-4.628-.356-9.434-.889-14.418-1.245.89-.178 1.958-.533 2.848-.889 5.874-2.489 9.968-7.646 11.392-13.336-5.162-3.023-11.57-3.734-17.444-1.245-5.875 2.49-9.969 7.646-11.393 13.336.712.534 1.602.89 2.314 1.245-3.56-.178-7.12-.533-10.68-.711.712-.178 1.424-.534 2.136-.711 5.874-2.49 9.968-7.647 11.392-13.337-5.162-3.023-11.57-3.734-17.444-1.244-5.874 2.489-9.968 7.646-11.393 13.336.89.533 1.781.889 2.671 1.245-3.205-.178-6.409-.356-9.435-.356.356-.178.712-.356 1.246-.533 5.518-3.379 8.723-8.891 9.257-14.937-.712-.356-1.424-.534-2.315-.711.713-.178 1.603-.356 2.315-.712-.356-5.156-2.849-9.958-7.477-12.98-1.958-1.245-4.272-2.134-6.408-2.49 2.314-.533 4.45-.889 6.764-1.422 1.246 4.801 4.628 9.068 9.613 11.024 4.984 2.134 10.502 1.423 14.952-1.067-1.246-4.979-4.628-9.246-9.612-11.38-1.068-.356-2.136-.711-3.026-.889 2.314-.534 4.45-.889 6.586-1.423.89 4.624 3.738 8.713 8.01 11.203 4.806 2.667 10.325 2.667 14.953.711-.534-4.979-3.56-9.78-8.367-12.447-1.246-.711-2.67-1.245-4.094-1.6 2.492-.534 4.984-1.067 7.299-1.423 0 4.445 1.958 8.891 5.518 12.092 4.094 3.734 9.434 4.979 14.418 3.912.534-4.979-1.246-10.314-5.34-13.87-1.958-1.778-4.094-2.845-6.586-3.557.534-.177 1.068-.177 1.602-.355.178 0 2.492-.534 5.874-1.067 0 4.623 1.78 9.246 5.518 12.625 4.094 3.734 9.435 4.979 14.419 3.912.534-4.979-1.246-10.313-5.34-13.87-2.137-1.956-4.629-3.201-7.299-3.734 2.848-.533 5.518-.889 8.011-1.423-.534.178-1.068.534-1.602.89 1.068 4.978 4.45 9.424 9.434 11.558 4.984 2.134 10.502 1.6 14.952-.889-1.068-4.979-4.45-9.425-9.434-11.559-1.78-.711-3.56-1.244-5.34-1.244 1.958-.178 3.916-.356 5.518-.356 3.026 3.556 7.476 5.868 12.46 5.868 5.519 0 10.325-2.489 13.351-6.579-3.026-4.09-7.832-6.935-13.351-6.935-5.34 0-9.968 2.312-12.994 6.224-1.958.355-4.806.711-8.01 1.244a18.436 18.436 0 0 0 5.696-2.667c4.45-3.201 6.764-8.18 6.764-13.336-4.806-1.601-10.324-.889-14.774 2.311-4.451 3.201-6.765 8.18-6.765 13.337 1.78.533 3.739.889 5.697.711-3.739.533-7.833 1.245-12.461 1.956 1.424-.711 3.026-1.778 4.272-3.023 3.916-3.912 5.341-9.247 4.451-14.225-4.985-.712-10.325.889-14.241 4.801-3.738 3.912-5.34 9.068-4.45 14.047-2.314.356-4.806.712-7.298 1.067 1.424-.711 2.848-1.778 4.094-3.023 3.916-3.912 5.34-9.246 4.45-14.225-4.984-.711-10.324.889-14.241 4.801-3.738 3.912-5.34 9.069-4.45 14.048-2.848.533-5.696.889-8.722 1.422 1.958-.889 3.738-2.134 5.34-3.734 3.738-3.912 5.162-9.424 4.094-14.403-4.984-.534-10.324 1.067-14.062 5.156-3.738 3.912-5.162 9.425-4.094 14.404h.356c-2.314.355-4.806.711-7.121 1.244a16.99 16.99 0 0 0 4.095-4.623c2.848-4.801 2.848-10.313.89-14.937-4.985.534-9.791 3.379-12.639 8.002-2.492 4.09-2.848 8.713-1.602 12.981-2.492.356-4.984.889-7.476 1.245a10.854 10.854 0 0 0 2.848-2.845c3.56-4.268 4.45-9.603 3.204-14.582a14.665 14.665 0 0 0-6.764 1.067c-.89-1.778-1.958-3.378-3.204-4.979.712.356 1.424.534 2.314.712 6.23 1.778 12.46.355 17.266-3.379-1.424-3.912-4.094-7.113-7.476-9.424 1.246.711 2.67 1.245 4.094 1.6 6.231 1.778 12.461.356 17.267-3.378-1.246-3.201-3.204-6.046-6.052-8.358 1.246.712 2.67 1.245 4.094 1.6 6.23 1.779 12.46.356 17.266-3.378-2.136-5.512-6.764-10.136-12.816-11.914-3.204-.889-6.586-.889-9.612-.178l8.722-6.046c2.136 5.335 6.764 9.78 12.638 11.38 6.231 1.78 12.461.356 17.267-3.378-.89-2.667-2.492-4.978-4.628-6.935.534.178.89.356 1.424.534 6.23 1.778 12.46.355 17.266-3.379-.89-2.49-2.492-4.979-4.45-6.935.356.178.712.178 1.068.356 6.231 1.778 12.461.356 17.267-3.378-1.602-4.268-4.628-8.002-8.9-10.314 2.848 1.067 5.874 1.423 9.078 1.067 6.408-.711 11.57-4.623 14.596-9.78-4.094-4.268-10.146-6.757-16.554-6.046-1.246.178-2.492.534-3.738.89l14.24-9.78c.178 0 .178-.178.356-.178-2.136 1.6-4.094 3.734-5.34 6.045 4.094 4.268 10.146 6.757 16.555 6.046 6.408-.711 11.57-4.623 14.596-9.78-4.094-4.268-10.146-6.757-16.554-6.046-2.493.356-4.629 1.067-6.765 2.134.356-.178.712-.533.89-.889l6.052-4.268c5.519 1.956 11.927 1.6 17.267-1.778 5.34-3.556 8.544-9.246 8.9-15.114-5.518-2.134-12.104-1.779-17.444 1.778-4.806 3.023-7.654 7.824-8.545 13.158l-1.958 1.423c.178-.356.356-.711.712-1.067 2.849-5.868 2.493-12.27-.356-17.604-5.874 1.067-11.214 4.801-14.062 10.67-2.848 5.69-2.492 12.09.356 17.425l-7.476 5.157c2.314-2.49 3.916-5.512 4.628-8.89 1.424-6.225-.534-12.448-4.45-16.894-5.518 2.49-9.791 7.29-11.215 13.515-1.424 6.223.534 12.447 4.45 16.892l-10.68 7.469c3.204-3.023 5.34-7.29 5.874-11.914.712-6.402-1.958-12.447-6.23-16.36-5.162 3.023-8.9 8.358-9.612 14.76-.712 6.223 1.78 12.269 6.052 16.18-3.56 2.313-7.12 4.624-10.858 7.114a17.925 17.925 0 0 0 4.806-10.847c.712-6.402-1.958-12.447-6.23-16.36-5.163 3.023-8.901 8.358-9.613 14.76-.712 6.223 1.78 11.913 5.875 15.825-3.027 1.956-6.231 4.09-9.435 6.224 1.78-2.668 3.026-5.69 3.382-9.069.712-6.401-1.958-12.447-6.23-16.36-5.162 3.024-8.9 8.358-9.612 14.76a10.755 10.755 0 0 0 0 3.378c-1.068-3.2-2.848-6.046-5.34-8.18-5.163 3.023-8.901 8.358-9.613 14.76-.534 5.867 1.424 11.202 5.162 15.292-3.204 2.134-6.408 4.267-9.79 6.401 2.492-2.845 4.094-6.579 4.628-10.49.712-6.402-1.958-12.448-6.23-16.36-5.162 3.023-8.9 8.357-9.612 14.759v1.778c-1.068-2.49-2.67-4.623-4.628-6.401-5.163 3.022-8.901 8.357-9.613 14.758a6.728 6.728 0 0 0 0 2.668c-1.068-2.49-2.67-4.624-4.628-6.402-5.162 3.023-8.9 8.358-9.612 14.76-.534 5.334 1.068 10.313 4.272 14.047-23.675 15.292-48.952 31.829-74.762 48.544a368.879 368.879 0 0 0-30.617 11.025c9.968-9.425 22.072-21.872 34.889-35.386 4.094 2.312 9.256 3.023 14.062 1.245 5.162-1.956 8.722-6.046 10.146-11.025-3.738-2.489-8.188-3.379-12.638-2.312 1.246-1.422 2.67-2.845 3.916-4.267 3.382 3.2 8.01 4.979 12.995 4.267 5.518-.533 9.968-3.734 12.46-8.179-3.382-3.734-8.544-5.868-14.062-5.335-1.425.178-2.671.534-3.917.889 1.78-1.778 3.383-3.734 5.163-5.512 2.848 3.378 6.942 5.512 11.748 5.868 5.518.356 10.502-2.134 13.706-6.046-2.848-4.268-7.476-7.113-12.994-7.468-2.136-.178-4.272.178-6.23.889l4.806-5.335c0 .178-.178.178-.178.356 3.738 3.556 8.9 5.334 14.24 4.445 5.341-.889 9.791-4.445 11.927-8.89-3.738-3.557-8.9-5.335-14.241-4.446-2.314.356-4.272 1.245-6.052 2.49 1.958-2.312 4.094-4.446 5.874-6.58 3.738 3.379 8.901 4.98 14.241 3.912a16.491 16.491 0 0 0 11.748-9.246c-3.738-3.379-9.078-5.157-14.418-4.09-1.78.355-3.204.889-4.806 1.778 1.78-1.956 3.382-3.734 4.984-5.512 3.738 3.378 8.9 4.978 14.24 3.912a16.493 16.493 0 0 0 11.749-9.247c-3.739-3.379-9.079-5.157-14.419-4.09-1.78.356-3.382 1.067-4.806 1.778 1.068-1.066 1.958-2.311 3.026-3.378 1.958-2.134 3.738-4.09 5.34-6.046-1.068 1.6-1.958 3.379-2.492 5.157 4.272 2.845 9.79 3.556 14.953 1.6 5.162-1.956 8.722-6.046 10.146-11.025-4.272-2.845-9.79-3.556-14.953-1.6-1.958.711-3.738 1.956-5.34 3.2 2.136-2.489 4.094-4.445 5.34-6.045 4.807-.533 9.435-3.023 12.283-7.468 3.026-4.624 3.382-10.136 1.424-14.937a17.107 17.107 0 0 0-12.995 7.468c-2.67 4.09-3.204 8.713-2.136 12.981 0 0-.89 1.245-2.314 2.845.356-.889.712-1.956.89-3.023.89-5.334-.89-10.669-4.45-14.225-4.628 2.311-8.01 6.579-8.9 11.914-.89 5.334.89 10.669 4.45 14.225a3.877 3.877 0 0 0 1.424-.89c-2.136 2.668-4.094 4.98-4.984 5.691l-.89.89c1.246-2.668 1.602-5.691 1.068-8.892-.89-5.334-4.272-9.78-8.722-12.091-3.56 3.556-5.519 8.713-4.628 14.225.712 4.979 3.738 9.069 7.654 11.558l-5.34 5.335c.712-2.312.89-4.801.534-7.469-.89-5.334-4.273-9.78-8.723-12.091-3.56 3.556-5.518 8.713-4.628 14.225.712 4.801 3.382 8.713 7.12 11.203-1.78 1.778-3.382 3.556-5.162 5.334.534-1.422.712-2.845.89-4.267.356-5.513-1.958-10.492-5.874-13.692-4.272 2.667-7.298 7.29-7.654 12.803-.356 4.978 1.602 9.602 4.984 12.98l-4.806 4.802c.356-1.067.712-1.957.89-3.023 1.068-5.335-.712-10.67-4.272-14.404-4.628 2.134-8.189 6.402-9.079 11.914-1.068 5.335.712 10.314 3.917 14.048l-4.807 4.801c.89-2.134 1.424-4.268 1.424-6.757 0-5.513-2.67-10.314-6.764-13.337-4.094 3.023-6.764 7.824-6.764 13.337 0 5.156 2.314 9.78 6.052 12.803l-4.272 4.267c.712-5.156-.89-10.135-4.272-13.692-4.628 2.134-8.188 6.402-9.078 11.914-.89 4.623.356 9.069 2.67 12.625l-2.67 2.667v-.177c.89-4.446-.534-8.891-3.561-12.092-3.916 1.778-6.764 5.335-7.654 9.958-.712 3.912.356 7.824 2.492 10.847-15.13 14.936-28.481 27.739-36.313 34.852-3.026 2.667-6.408 5.335-10.146 8.18-10.859 4.801-20.293 9.424-27.591 12.98 9.434-9.78 19.225-20.626 29.193-32.362 23.675-27.74 42.187-56.369 56.428-82.864 4.984 3.201 11.57 3.912 17.444 1.6 6.052-2.489 10.147-7.468 11.571-13.158-2.848-1.778-6.053-2.667-9.257-2.845a14.79 14.79 0 0 0 3.738-1.067c6.053-2.49 10.147-7.468 11.571-13.159-4.984-3.2-11.571-3.911-17.445-1.6-1.246.534-2.314 1.067-3.382 1.778.89-1.778 1.602-3.734 2.492-5.512 5.696 1.956 12.105 1.245 17.267-2.312 5.34-3.734 8.188-9.424 8.366-15.47-5.696-1.956-12.104-1.245-17.444 2.312-1.069.711-1.781 1.422-2.671 2.311 1.068-2.489 1.959-4.979 3.027-7.468a19.503 19.503 0 0 0 17.266-2.845 19.293 19.293 0 0 0 8.01-15.648c-2.136-.711-4.272-1.067-6.586-.89 1.958-.533 3.916-1.6 5.696-2.844a19.292 19.292 0 0 0 8.011-15.648c-5.697-1.778-12.105-1.067-17.267 2.845-1.602 1.245-3.026 2.667-4.094 4.09 1.068-3.735 2.136-7.113 3.026-10.314 0 1.067 0 2.134.178 3.201a19.44 19.44 0 0 0 16.733-5.512 19.797 19.797 0 0 0 5.34-16.715c-5.874-.89-12.105.889-16.733 5.512-1.246 1.245-2.136 2.49-3.026 3.912 1.068-4.09 1.78-7.29 2.314-9.602 5.162-2.845 9.078-8.002 9.968-14.403.891-6.402-1.424-12.448-5.696-16.538-5.34 2.846-9.078 8.002-9.968 14.404-.712 5.512.89 10.847 4.094 14.759 0 0-.356 2.49-.89 5.512 0-1.6-.178-3.2-.712-4.801-1.602-6.224-6.23-10.847-11.748-12.98-3.738 4.622-5.341 11.024-3.56 17.248 1.602 6.223 6.23 10.846 11.748 12.98.356-.533.89-1.067 1.246-1.778.534-.889 1.068-1.778 1.424-2.845v.178c-.178.533-.178.889-.356 1.245a285.271 285.271 0 0 1-4.45 12.447c-.178-3.556-1.068-6.935-3.204-10.136-3.56-5.334-9.257-8.357-15.309-8.713-2.136 5.512-1.602 12.092 1.958 17.426 3.204 4.98 8.367 7.824 13.885 8.536-1.068 2.667-2.136 5.334-3.204 8.18-.356-2.846-1.424-5.69-3.026-8.358-3.561-5.335-9.257-8.358-15.309-8.713-2.136 5.512-1.602 12.091 1.958 17.426 3.026 4.623 7.654 7.468 12.817 8.357-1.424 3.379-2.849 6.935-4.451 10.492.356-2.845 0-5.868-1.246-8.713-2.314-6.046-7.298-10.136-12.994-11.736a19.313 19.313 0 0 0-1.78 17.426c2.136 5.69 6.764 9.78 12.282 11.558-1.068 2.312-2.136 4.801-3.382 7.29 0-1.244-.178-2.489-.534-3.734-1.602-6.223-6.052-11.024-11.57-13.158-3.738 4.623-5.518 10.847-3.916 17.07 1.424 5.513 5.162 9.958 9.968 12.448-1.068 2.133-2.136 4.267-3.204 6.579 0-1.778 0-3.734-.534-5.512-1.602-6.224-6.052-11.025-11.571-13.16-3.738 4.624-5.518 10.848-3.916 17.071 1.424 5.69 5.341 10.136 10.325 12.626-6.231 11.558-12.995 23.472-20.649 35.563-23.853 37.875-77.255 89.976-117.662 126.785-.712.355-1.424.889-2.136 1.244 35.78-37.342 64.972-71.127 73.16-89.798 28.659-66.326 2.315-104.201 2.315-104.201s15.486 38.23-30.795 118.427c4.806-14.759 9.968-34.675 9.79-52.279-.178-33.608-5.874-59.747-5.874-59.747s5.34 53.168-6.053 93.177c-5.162 18.137-9.078 31.474-12.104 40.898-.89 1.245-1.78 2.312-2.67 3.556-.356-1.956-.712-4.445-1.246-6.757-.534-3.023-2.314-5.868-3.56-7.646.178-.356.534-.711.712-1.067 4.806-8.002 3.026-16.893-1.78-21.694-4.806-4.801-9.969-8.001-9.969-8.001l.535 6.045s-.178-3.556-8.545-4.979c-.534-3.734-1.246-6.579-1.602-8.357 3.738-.356 10.68-1.956 16.91-7.646 12.461-11.203 9.257-28.273 9.079-29.162l-.178-.89h-.89c-.178 0-1.424-.177-3.382 0-.89-4.623-2.67-9.246-4.984-9.602h-.712c-.534 0-1.246.356-1.78.534-1.424-4.801-4.094-9.958-6.587-10.136h-.178c-1.602-4.623-4.628-10.136-7.298-10.136h-.178c-.534 0-1.246.356-1.78.712-2.136-4.09-5.162-8.002-7.476-7.824-2.67.178-4.806 4.623-6.23 9.068-.712-.355-1.424-.533-1.958-.533h-.178c-1.602.356-3.205 2.667-4.45 7.113-.357 1.244-.713 2.667-.89 4.267-2.315.89-3.917 5.868-4.45 10.67h-.89c-.357 0-.535 0-.89.177-2.137.89-3.205 5.69-3.205 10.314-1.958.178-3.204.533-3.204.533l-.89.178v.89c0 .533-.178 12.802 7.832 22.049-2.492 1.067-8.544 5.512-11.57 7.824-1.78-1.245-3.56-2.49-5.162-3.735-1.958-1.6-3.917-3.556-5.875-5.512 4.45-7.824 9.79-16.537 5.34-19.204-5.518-3.201-13.172 1.956-16.732 5.156-1.78-2.311-3.026-4.445-3.916-5.512 2.136-1.6 6.942-6.046 8.722-13.87 3.026-13.514-7.298-23.65-7.654-24.005l-.712-.711-2.314-.712c-.178 0-1.068.534-2.314 1.6l-.356.356c-4.094-3.556-10.147-6.935-12.46-5.512 0 0-.179 0-.179.178-1.246-.89-2.67-1.779-3.738-2.312-4.094-2.311-6.942-2.845-8.366-1.956l-.178.178c-.534.355-.712.889-1.068 1.6-4.272-2.134-9.256-3.734-11.036-2.133-2.136 1.778-1.424 6.757.178 11.38-.713.178-1.425.355-1.959.711l-.178.178c-1.958 1.956-.178 8.18 2.137 12.803-1.602 2.311.712 8.535 3.382 13.158l-.356.356c-1.246 1.067-1.958 1.778-1.958 1.956l-.534.711.534.712c.356.533 8.366 12.447 22.25 11.736a32.52 32.52 0 0 0 6.23-1.067c3.027-.889 5.34-2.312 6.943-3.379.712 1.245 2.136 3.023 3.916 5.512-4.094 2.49-16.02 9.603-21.717 7.469-6.942-2.49-10.324-9.069-16.732-9.069-4.806 0-6.765 3.023-7.299 6.224-1.78.711-3.56 1.6-4.628 2.845-3.382 3.734-11.926 2.311-11.926 2.311s1.068 1.245 2.848 1.956c1.78.712 5.696-.355 9.434-1.422 1.602-.534 3.026-1.245 4.45-2.134.89 3.912 7.655 5.335 8.545 4.446 0 0 2.848.533 3.382-1.779.534-2.311.89-3.734-1.78-5.868-1.246-1.067-3.738-1.422-6.408-1.067.355-1.422 1.245-2.667 2.492-2.845 2.848-.177 6.408 1.779 11.036 5.868 4.628 4.09 8.9 5.335 15.308 3.735 4.807-1.245 12.283-5.868 15.309-8.002 2.492 3.023 5.518 6.579 9.078 10.135-1.424 2.845-2.67 5.335-3.382 6.935-1.958 4.801-.534 8.536 5.34 9.602 4.45.89 10.68-2.489 13.35-4.089 4.807 3.2 9.435 5.512 12.817 7.112.534 3.735 1.424 8.536 3.382 12.27 2.492 4.801 11.037 12.269 11.037 12.269l-4.273 3.201s3.56 5.335 8.723 7.824c.534.178 1.068.533 1.602.711-1.78 4.268-3.916 7.824-5.34 10.136-.178 0-.534.178-.712.178-.178-3.734-1.068-7.646-3.738-11.914-10.503-16.537-26.701-12.447-32.576-11.914.356-3.556.356-12.269-5.34-20.982-10.146-15.648-29.37-14.937-30.26-14.937h-1.069l-.178.889c0 .178-.356 1.422-.534 3.556v.178c-5.162.178-10.502 1.423-11.392 3.734-.178.178-.178.534-.178.889 0 .712.178 1.245.356 2.134-5.518.711-11.57 2.667-12.282 5.335v.178c-5.34.889-11.927 3.378-12.461 6.045v.178c0 .711.178 1.423.534 1.956-4.806 1.601-9.612 4.268-9.79 6.757-.178 2.845 4.272 6.046 8.9 8.358-.534.711-.89 1.422-.89 2.134v.177c0 1.956 2.314 3.912 6.942 6.046 1.246.534 2.848 1.245 4.45 1.778.534 2.668 5.875 5.157 10.859 6.757-.178.356-.178.534-.178.89v.889c.534 2.489 5.696 4.445 10.68 5.334v.178c-.178 2.134 0 3.556 0 3.734l.178 1.067.89.178c.89.178 19.759 3.556 32.041-10.314 5.518-6.223 7.476-12.98 8.01-17.248 4.273-1.422 19.403-5.512 26.701 6.402 2.848 4.445 3.204 10.313 2.67 15.648-2.492 2.489-3.738 4.978-3.738 4.978s-1.246-10.669-11.214-10.669c-9.79.178-15.13 7.113-15.31 16.36-.178 9.246 9.613 14.581 12.46 20.449 2.849 5.69 3.56 9.246 3.56 9.246l2.85-8.713s1.78 1.423 5.873 9.602c1.246 2.49 2.136 4.624 2.492 6.402a4437.045 4437.045 0 0 1-21.004 14.581c-.356-5.69-1.068-12.092-2.67-18.138 6.942-3.556 7.12-10.491 3.382-14.758-3.026-3.557-7.833-2.668-10.503-1.956-.89-1.245-1.78-2.49-2.848-3.557-6.586-6.935-14.062-7.824-20.826-6.401-4.807-4.624-16.911-14.404-32.22-14.937-20.292-.711-26.878 13.692-42.365 16.715-15.664 3.023-19.047-8.891-17.445-9.78 1.603-.889 8.189-7.291 5.697-8.358-2.492-1.066-11.749-1.422-10.681 3.735 1.068 5.156-1.602 10.669 10.147 15.648 11.748 4.979 23.496-.534 34.355-5.513 10.858-4.979 25.81-9.958 35.067-5.512 4.984 2.312 9.968 5.69 14.062 9.069-5.162 1.778-9.612 4.801-12.282 6.757-1.958-2.668-5.696-6.402-12.994-8.18-12.639-3.201-25.633 3.201-30.795 12.447-5.34 9.247-13.173 19.383-13.173 19.383l10.502-.89s-5.696 9.958-6.764 18.494c-1.068 8.535-5.518 37.697-5.518 37.697s26.879-8.18 36.491-14.937c16.02-11.202 17.8-22.583 17.8-22.583l3.383 13.515s23.319-7.824 23.853-29.34c.356-18.671-10.68-21.694-16.91-22.05 3.025-1.778 7.831-3.912 12.816-4.09.712.889 1.424 1.778 1.958 2.668 3.738 5.69 7.654 19.204 18.334 18.848 1.424 6.935 1.78 14.937 1.78 21.872-31.863 21.694-78.5 52.99-93.809 59.747-24.031 10.669-23.141 14.225-23.141 14.225l6.765 2.312s70.134-43.566 110.185-69.883c0 1.956-.178 3.557-.178 5.157L-50.61 300.04s.178 3.378 2.136 1.956c1.068-.712 17.266-9.603 31.329-17.427l-11.748 11.736c-36.848 23.828-63.549 40.899-72.271 46.233-41.119 25.25-62.836 43.21-62.836 43.21s4.272 1.067 11.214-.889c6.943-1.956 19.047-7.291 19.047-7.291s33.643-23.294 72.804-50.322c-1.068.889-1.958 1.956-3.026 2.845-39.517 29.518-85.621 63.837-87.401 66.682-3.204 4.979 1.246 13.514 8.011 6.935 2.67-2.668 13.528-12.092 25.277-22.583l-13.529 21.516s29.193-26.14 67.642-62.237c1.958-1.422 4.272-3.023 6.764-4.801-22.784 27.029-62.48 74.15-63.904 75.217l5.697 8.002 71.024-86.775c4.094-1.6 11.748-4.801 21.36-8.358-9.612 9.958-18.69 19.205-23.14 23.65-12.64 12.448-23.32 30.941-23.32 30.941s2.314 5.868 13.173-7.647c4.806-6.045 25.632-28.628 46.815-51.922 29.727-10.67 66.752-21.694 72.626-12.981 4.45 6.757-19.046 40.009-19.046 40.009s57.14-47.833 31.685-60.992c-11.037-5.69-33.11-1.422-54.47 5.335-.712.178-1.424.533-2.136.711-1.068.356-2.848.889-4.806 1.778-3.382 1.423-7.832 3.379-12.817 5.513-1.424.711-3.026 1.422-4.45 2.133-8.01 3.735-17.088 8.002-24.92 11.914-3.383 1.601-6.587 3.201-9.435 4.624-.89.355-1.78.889-2.492 1.244-1.424.712-2.67 1.245-3.738 1.956-2.314 1.067-3.916 2.134-5.162 2.668-1.246.889-1.78 1.066-1.246.711.178-.178.534-.356 1.246-.711 1.424-.89 3.56-2.312 6.408-4.268 1.958-1.245 4.094-2.667 6.408-4.09.356-.178.89-.533 1.246-.711 2.492-1.601 4.984-3.201 7.655-4.623a32.867 32.867 0 0 1 3.382-1.956c2.314-1.423 4.806-2.668 7.12-3.912 7.654-4.09 16.91-8.18 24.565-11.559a473.442 473.442 0 0 1 12.104-5.156 102.9 102.9 0 0 1 3.916-1.601c21.005-11.558 42.544-21.516 61.234-27.028 62.658-18.138 95.945-4.09 95.945-4.09s-29.193-23.294-84.374-20.093c11.926-6.757 25.098-12.803 36.135-15.293 30.083-6.757 59.632 15.47 59.632 15.47s-3.204-5.512-11.393-11.736c-8.188-6.223-17.088-11.202-53.401-8.713-1.958.178-4.094.356-6.053.712 30.083-9.603 62.837-14.759 78.145.711 20.293 20.449 3.56 49.433-4.45 61.169-1.424-1.956-3.56-3.556-6.052-4.445-3.916-1.423-8.011-.711-11.215 1.6 1.068 3.734 3.916 6.757 7.833 8.18 1.246.356 2.314.533 3.56.711a75.824 75.824 0 0 1-6.409 4.623c-1.602-3.022-4.45-5.512-8.01-6.757-4.628-1.6-9.434-.711-13.172 1.779 1.246 4.267 4.628 8.001 9.256 9.602.89.355 1.958.533 2.848.711l-2.136 1.067c-1.424.711-3.204 1.422-4.984 2.312-2.492-4.09-6.586-7.291-11.57-8.536-5.875-1.422-11.749.356-16.021 4.09 2.136 5.157 6.764 9.247 12.638 10.669.89.178 1.602.356 2.493.356-2.137 1.245-4.451 2.311-6.765 3.556-2.492-4.267-6.586-7.646-11.926-8.891-5.874-1.422-11.749.356-16.021 4.09 2.136 5.157 6.765 9.247 12.639 10.669 1.424.356 2.848.534 4.272.534-2.492 1.422-4.806 2.845-6.942 4.089-3.56-4.267-8.901-6.934-14.953-6.757-6.052.178-11.214 3.379-14.418 8.002 3.56 4.446 8.9 7.113 14.952 6.935.712 0 1.246-.178 1.78-.178-2.314 1.778-3.916 3.201-5.162 4.446-4.272-1.601-9.256-1.423-13.706.889-4.984 2.667-8.01 7.29-8.723 12.447 4.629 2.312 10.325 2.312 15.309-.178 4.984-2.489 8.01-7.29 8.722-12.447 0 0 22.429-14.048 34.711-19.204 5.518-2.312 14.241-6.402 22.607-10.669-1.068 1.422-1.958 3.2-2.492 4.978-1.246 4.624 0 9.425 2.848 12.981 4.272-1.6 7.654-5.157 8.722-9.958 1.068-4.267.178-8.535-1.958-11.736 3.026-1.6 5.696-3.2 8.189-4.623-.534 1.067-.89 2.134-1.246 3.201-1.247 4.623 0 9.424 2.848 12.981 4.272-1.601 7.654-5.157 8.722-9.958 1.068-4.446.178-8.891-2.314-12.27 5.162-6.757 33.643-46.055 9.79-71.838-.89-1.067-1.958-1.956-3.026-2.845 2.67.355 6.23.533 10.146.889.712 0 1.424.178 2.136.178.356 1.422.89 3.022 1.425 4.623 3.56 9.78 9.434 10.491 15.13 9.602 3.56-.711 7.654-3.201 9.968-4.979a35.568 35.568 0 0 1 3.916 3.379c1.603 1.778 3.205 3.734 4.629 6.045-2.848 1.245-12.817 6.758-15.131 18.849-1.424 7.646.356 20.983 1.424 26.673-2.848-1.956-10.68-6.935-16.732-3.556-7.477 4.267-9.613 10.669-8.901 18.493.712 7.824 1.602 18.315 1.602 18.315l6.943-5.512s-1.424 6.579 2.848 14.581c4.272 8.001 10.502 20.093 10.502 20.093s16.199-12.803 17.979-17.782c1.78-4.979 1.958-14.403 1.958-14.403l6.23 7.646s4.094-6.579 3.738-10.847c-.178-1.778-.356-4.09-.534-6.046.178 0 .534.178.712.178.712 1.245 1.602 2.312 2.314 3.379 2.67 3.378 4.628 4.801 6.23 4.623h.178c.534-.178 1.068-.533 1.602-1.067 2.67 3.379 6.231 6.402 8.545 5.69 1.958-.533 3.382-4.979 3.738-9.246.712.178 1.246.178 1.78 0h.178c2.136-.889 3.026-6.579 2.67-11.203h.178c2.136-1.067 2.492-6.401 2.136-11.024h1.78c.178 0 .534-.178.712-.356 1.78-1.245 1.78-5.69.89-9.958 1.78-.533 2.67-1.067 2.848-1.067l.712-.355-.178-.89c0-.177-.178-1.244-.712-3.022 1.958 0 5.34.355 8.188 1.6 2.671 1.067 4.985 2.134 6.409 3.023-1.068 1.422-2.314 3.734-3.204 6.935-.356 1.6-.534 3.2-.534 5.156 0 11.559 10.324 17.604 10.68 17.782l.712.356.534-.534s.712-.711 1.424-1.778c0-.178.178-.178.178-.355 3.916 1.956 9.256 3.556 11.036 2.133 3.917 1.601 9.257 2.846 10.681 1.245 0 0 0-.178.178-.178.356-.355.534-1.067.534-1.6 3.916 1.067 8.01 1.423 9.434-.356 1.246-1.6-.356-5.512-2.314-8.891.534-.177 1.068-.533 1.246-.889 0 0 0-.177.178-.177.712-1.245.178-3.557-1.958-6.935a24.202 24.202 0 0 0-2.136-3.023s0-.178.178-.178c1.068-1.956-1.958-6.757-5.162-9.958 0-.178.178-.178.178-.356.712-1.066 1.246-1.778 1.246-1.956l.356-.711-.534-.533c-.356-.356-9.079-8.536-20.115-5.335-7.298 2.134-10.858 7.291-11.57 8.358-2.492-1.423-7.299-4.268-10.325-4.801-2.67-.356-5.162-.712-6.586-.89-2.136-5.334-6.764-12.625-15.842-16.003-10.147-3.734-18.335-.534-19.403 0 0 0-1.602-4.623-7.476-14.226l-1.068-1.6s1.958-1.956 9.078-4.09c3.916-1.245 6.764-1.422 8.366-1.245.178.534.356 1.245.356 1.779.178 2.133 1.068 6.223 4.984 12.091 5.519 8.536 11.927 7.824 11.927 7.824l-3.204-4.979c1.424.712 2.848 1.423 4.272 1.956a30.34 30.34 0 0 0 27.413-3.023c-2.492-9.068-9.078-16.714-18.513-20.271-7.12-2.667-14.596-2.489-21.361 0 0 0-3.026 1.067-4.628 1.956-1.958-.533-5.162-.889-9.612 0-6.586 1.423-10.324 3.734-11.748 4.623-1.78-2.311-3.738-4.267-5.875-6.045 1.959-2.312 6.053-6.935 9.613-8.891 4.806-2.845 13.35 0 13.35 0s-.89-.889-8.722-2.845c-7.832-1.956-17.801 9.068-17.801 9.068-1.78-1.067-3.738-2.311-6.052-3.378-5.162-2.667-11.392-4.268-17.444-5.157-1.603-5.334-4.629-10.669-11.927-12.447-9.968-2.667-27.235 4.623-31.685 6.579-16.198-1.422-35.245 1.6-53.402 6.402 2.492-1.601 4.806-3.201 7.299-4.624 16.02-6.401 34.177-12.447 53.045-16.359 22.429-4.623 66.041-5.69 109.474-5.157.356 4.801 2.314 9.602 6.23 13.159 4.806 4.267 11.037 5.868 16.911 4.623.712-5.868-1.424-12.092-6.23-16.359-.535-.356-.89-.711-1.425-1.067 1.959 0 3.917 0 5.875.178.356 4.801 2.492 9.424 6.23 12.98 4.806 4.268 11.036 5.868 16.91 4.624.712-5.868-1.424-12.092-6.23-16.36-.356-.355-.712-.533-1.068-.711 1.958 0 3.916.178 5.874.178.178 5.157 2.314 10.136 6.409 13.692 4.806 4.268 11.036 5.868 16.91 4.623.712-5.868-1.424-12.091-6.23-16.359-.534-.533-1.246-1.067-1.78-1.423 1.958 0 3.916.178 5.874.178-.178 5.513 1.958 11.025 6.23 14.937 4.806 4.268 11.037 5.868 16.911 4.623.712-5.868-1.424-12.091-6.23-16.359-1.246-1.067-2.492-1.956-3.738-2.667 2.67.178 5.34.178 7.832.355a18.826 18.826 0 0 0 6.408 14.759c4.806 4.268 11.036 5.868 16.911 4.624.178-2.312 0-4.446-.534-6.758 1.068 1.956 2.314 3.557 3.916 5.157 4.806 4.268 11.036 5.868 16.91 4.623.712-5.868-1.424-12.091-6.23-16.359-2.136-1.956-4.628-3.201-7.12-4.09l8.188.712c1.424 5.69 5.696 10.847 11.57 13.158 5.875 2.312 12.461 1.601 17.445-1.778-.356-7.824-4.45-12.803-10.502-15.292zm-23.141-13.159c5.874-2.489 10.146-2.312 12.104-1.956 1.958.356 4.272 1.067 4.272 1.067s-3.738 2.489-11.748 6.579c-4.806 2.49-8.544 3.734-10.858 4.268 1.958-1.778 6.23-5.335 9.434-6.935 4.272-2.134 7.12-2.845 7.12-2.845s-4.806.356-11.214 3.201c-2.492 1.067-4.45 2.133-5.874 2.845 1.602-2.134 3.738-4.979 6.764-6.224zm-22.607-3.734c6.586-3.023 9.434-2.312 11.571-1.778 2.136.533 4.094 1.067 4.094 1.067s-7.833 2.489-12.995 5.512c-2.848 1.6-5.874 3.023-7.832 3.912 1.068-1.067 2.848-2.845 5.34-4.445 3.738-2.49 10.68-4.979 10.68-4.979s-3.204.533-9.434 2.845c-3.916 1.6-6.942 3.912-8.366 5.334.89-2.134 2.848-5.512 6.942-7.468zm-20.827-3.734c8.011-1.956 12.995.355 12.995.355s-8.9 6.046-14.241 8.358c-2.492 1.067-4.628 1.778-6.408 2.134 1.78-1.601 5.34-4.624 9.256-6.402 5.519-2.489 7.655-3.378 7.655-3.378s-6.052.711-11.393 3.378c-3.382 1.601-6.052 3.379-7.476 4.268 1.246-3.023 4.272-7.469 9.612-8.713zm-26.166-.712c7.12-3.2 10.502-1.956 12.46-1.244 1.958.711 2.67 1.067 2.67 1.067s-8.01 1.6-12.994 4.445c-2.492 1.423-5.163 3.023-7.299 4.268.89-1.423 2.493-3.201 4.807-4.801 4.45-3.201 7.832-4.09 7.832-4.09s-3.56.533-10.147 3.734c-1.602.889-2.848 1.6-3.738 2.134 1.602-1.956 3.56-4.09 6.409-5.513zm-32.575 9.069s2.314-6.223 7.654-9.246c5.34-3.023 11.036-2.668 12.46-2.49 1.424.178 2.314.711 2.314.711s-9.078 3.557-13.528 5.868c-4.45 2.134-8.9 5.157-8.9 5.157zm10.146-30.407c3.738 3.023 5.162 5.69 5.162 5.69s-4.272-4.267-8.722-5.868c-4.45-1.422-5.874-1.956-5.874-1.956s5.874-.889 9.434 2.134zm51.266-20.093c.534-.889 1.246-1.778 1.958-2.845 2.314-3.201 6.942-6.224 6.942-6.224s-2.67 1.067-6.408 4.09c-2.314 1.778-3.738 3.912-4.629 5.334.712-2.667 2.493-6.934 5.875-8.89 5.162-3.023 11.036-2.49 11.036-2.49s-6.052 4.801-9.968 7.468c-1.78 1.067-3.382 2.312-4.806 3.557zm-15.131-5.157c4.984-4.445 11.036-5.157 11.036-5.157s-3.56 1.956-8.9 7.647a54.105 54.105 0 0 0-4.628 5.69c.356-1.601 1.068-3.557 2.136-4.979a358.413 358.413 0 0 1 3.382-4.446s-3.56 2.845-5.518 6.046c-.712 1.067-1.246 1.956-1.602 2.845.534-2.134 1.424-5.156 4.094-7.646zm14.241 18.138c3.916 4.623 4.272 10.135 4.272 10.135s-2.314-6.401-7.299-10.491c-3.916-3.201-6.942-4.268-8.01-4.623-.356-.178-.534-.178-.534-.178h.712c2.136.355 7.654 1.422 10.859 5.157zm16.02-4.624c5.518 3.734 6.052 8.358 6.052 8.358s-3.738-6.402-8.366-8.002c-4.628-1.6-11.748-1.778-11.748-1.778s8.544-2.134 14.062 1.422zm12.816-10.669c7.477.711 9.613 5.868 9.613 5.868s-5.518.356-11.927 0c-4.094-.178-7.12-.533-9.078-.711 1.78-.534 4.984-1.245 7.832-1.778 4.094-.534 7.833.178 7.833.178s-3.739-1.245-7.299-1.245c-2.492 0-6.586.889-8.722 1.422 2.136-1.6 6.586-4.267 11.748-3.734zm-61.234.178c4.095-4.09 11.749-5.512 11.749-5.512s-7.298 3.023-10.503 7.646c-3.204 4.623-4.628 8.357-4.628 8.357s-.712-6.401 3.382-10.491zm-17.622 2.489c4.45-4.267 9.968-5.512 9.968-5.512s-4.272 3.201-7.12 8.18c-1.424 2.489-3.204 4.801-4.628 6.401.178-1.245.712-3.201 1.78-4.979 1.958-3.378 4.094-5.868 4.094-5.868s-3.738 2.49-6.586 7.469c-.712 1.067-1.068 2.133-1.424 2.845.534-2.49 1.424-6.046 3.916-8.536zm18.334 17.604c4.451 4.979 4.985 7.824 4.985 7.824s-3.382-5.334-9.969-8.89c-2.67-1.423-4.272-2.312-5.518-2.846-1.78-.711-2.136-.889-2.136-.889s1.602 0 3.916.356c2.67.711 6.23 1.778 8.722 4.445zm16.555-2.311c3.56 4.267 4.272 10.313 4.272 10.313s-2.136-6.046-7.298-10.135c-3.56-2.845-6.23-4.446-7.476-5.157-.534-.356-.89-.356-.89-.356s.534 0 1.602.356c2.314.356 7.298 1.778 9.79 4.979zm-51.444-13.514c4.094-5.157 8.545-5.691 8.545-5.691s-4.985 2.846-8.011 8.714c-3.026 5.868-3.916 9.78-3.916 9.78s-.712-7.824 3.382-12.803zm97.726-96.556c7.476 0 11.748 4.268 11.748 4.268s-7.12-3.734-12.995-2.667c-5.874 1.067-12.816 5.334-12.816 5.334s6.586-6.935 14.063-6.935zM275.14 43.981c5.875-1.067 11.393.89 11.393.89s-9.612 4.445-13.707 5.69c-1.958.533-3.916 1.245-5.34 1.778 1.958-1.245 4.806-3.023 7.12-4.09 3.917-1.778 7.299-2.312 7.299-2.312s-4.45-.177-8.011 1.245c-2.492.89-6.052 3.023-8.01 4.268 1.78-2.49 5.34-6.757 9.256-7.469zm-24.564-6.401s4.272 2.49 5.874 7.824c1.602 5.334-1.78 13.692-1.78 13.692s1.246-9.247.534-13.336c-.712-4.09-4.628-8.18-4.628-8.18zm15.13 20.271c6.23.712 9.613 3.023 9.613 3.023s-6.053-.355-11.927 1.245c-3.738.889-6.942 1.6-8.9 1.956 1.068-.356 2.136-.89 3.738-1.6 5.518-2.668 10.858-2.49 10.858-2.49s-3.56-.533-7.298 0c-2.136.356-4.984 1.423-6.942 2.312 2.67-2.134 6.764-4.98 10.858-4.446zm13.529-29.517c2.136-3.201 7.12-8.892 7.12-8.892s1.78 6.046-.712 10.848c-2.492 4.978-6.586 7.112-9.256 7.824.89-.89 1.78-2.134 3.204-3.735 3.026-3.734 4.806-9.068 4.806-9.068s-.89 1.956-3.56 4.979c-1.424 1.778-3.738 3.734-5.518 4.978 1.246-2.133 2.67-5.156 3.916-6.934zm-15.843 9.78a780.346 780.346 0 0 0 2.67-11.559s2.67 1.956 3.204 6.402c.534 4.445-.712 8.002-1.602 9.602-.356.711-1.424 1.956-2.492 3.2.356-1.244 1.424-4.445 1.602-7.823.178-4.09-.178-6.224-.178-6.224s-.534 6.58-2.314 11.025c-.712 1.778-1.424 3.2-1.78 4.09.178-1.779.178-5.335.89-8.713zm-.712 10.846c0-.178.178-.178.178-.178l-.178.178zm-10.324 22.761c6.764 0 10.502 2.134 10.502 2.134s-2.848 2.311-11.214 3.2c-5.696.712-8.901.712-10.503.712.534-.178 1.068-.178 1.958-.356 4.095-.889 15.309-3.378 15.309-3.378s-1.424.177-7.298.533c-3.56.178-6.765.89-8.723 1.245 1.958-1.778 5.697-4.09 9.969-4.09zm-5.874-12.803c.89 7.113-2.315 11.025-2.315 11.025s1.603-7.113.178-12.625c-1.424-5.513-4.272-9.069-4.272-9.069s5.519 3.734 6.409 10.67zm-5.697 25.784c5.875 0 10.681 2.667 10.681 2.667s-5.875 2.134-11.571 2.49c-3.382.355-6.586.355-8.9.533a45.805 45.805 0 0 1 5.162-1.6c5.696-1.779 9.613-1.779 9.613-1.779s-3.383-.533-8.011-.177c-2.314.177-4.806.889-6.764 1.778 2.314-1.778 6.23-3.912 9.79-3.912zm-4.628-13.159c0 5.69-5.34 11.914-5.34 11.914s3.738-5.334 2.848-13.158c-.89-7.825-1.958-9.07-1.958-9.07s4.272 4.624 4.45 10.314zm-7.298 26.673c6.052.711 10.146 4.979 10.146 4.979s-7.476 1.956-13.706 1.067c-3.204-.356-5.162-1.245-6.23-1.778 1.246-.178 2.67-.534 4.628-.712 4.806-.533 11.392.534 11.392.534s-2.314-1.423-7.12-1.956c-2.848-.356-6.23-.178-8.722.178h-.178s.178 0 .178-.178c2.136-1.067 5.518-2.49 9.612-2.134zm-5.34-13.336c-.89 6.757-4.984 10.847-4.984 10.847s3.916-7.825 3.738-13.515c-.356-5.69-1.602-7.112-1.602-7.112s3.916 3.023 2.848 9.78zm-5.696 25.428c6.764.355 8.722 3.912 8.722 3.912s-5.696 2.133-11.927 1.956c-3.204 0-5.518-.534-7.12-.889.89-.356 1.958-.712 3.204-1.067 5.341-1.779 12.461-1.067 12.461-1.067s-3.382-1.245-8.01-1.245c-2.493 0-5.341.711-7.477 1.245 2.136-1.423 5.874-3.023 10.147-2.845zm-12.105-24.54s4.806 3.735 4.984 9.603c.178 5.868-3.738 12.092-3.738 12.092s2.136-7.291 1.78-13.159c-.534-5.868-3.026-8.535-3.026-8.535zm-3.56 37.876c5.518-.356 7.832 1.245 7.832 1.245s-5.696-.534-10.858 1.244c-2.136.712-3.916 1.245-5.34 1.779-2.136.711-3.204 1.244-3.204 1.244s2.314-1.956 5.34-3.556c1.78-.889 4.094-1.778 6.23-1.956zm-4.984-15.292c-.534-5.335-1.246-6.224-1.246-6.224s3.026 3.556 3.026 8.357c0 4.802-6.586 11.381-6.586 11.381s5.34-8.18 4.806-13.514zm44.323-139.054c4.273-3.379 8.367-6.58 8.367-6.58s.89 7.824-3.916 12.803c-5.697 6.046-11.215 6.58-13.885 6.402.712-.711 1.958-1.956 4.272-3.734 3.916-3.201 10.147-7.824 10.147-7.824s-4.095 1.6-7.121 3.378c-1.424.89-3.738 2.312-5.518 3.735 2.492-3.024 5.34-6.402 7.654-8.18zm-12.816 2.312c0 .177-.178.355-.178.533 0-1.423-.178-3.379-.534-5.868-.89-5.868-2.848-9.78-2.848-9.78s.712 4.445 1.246 8.18c.356 2.311.178 5.69 0 8.18-.89-3.38-2.314-9.07-3.382-12.982a753.662 753.662 0 0 0-3.204-11.024s6.764 3.2 8.9 8.89c2.136 5.869 1.068 11.737 0 13.87zm5.874-23.473c.89-7.112 3.56-16.537 3.56-16.537s4.628 5.69 4.272 12.27c-.178 6.757-3.204 9.958-4.806 11.914-.712.889-1.424 1.6-2.136 2.133.712-1.067 1.424-2.489 1.78-4.09.534-3.556 2.136-12.091 2.136-12.091s-.356 1.6-1.958 5.868c-1.068 2.845-2.492 6.757-3.204 9.069-.178-1.779-.178-4.624.356-8.536zm4.272 56.547s.178 5.512-4.806 10.313c-5.162 4.801-9.79 5.157-12.104 5.335-.89 0-1.958-.178-2.848-.356a37.077 37.077 0 0 0 5.874-1.956c6.942-3.023 10.68-8.18 10.68-8.18s-2.67 2.134-7.298 4.446c-2.67 1.245-5.874 2.312-8.188 2.845 1.602-1.245 3.916-2.667 6.586-4.446 5.874-3.734 12.104-8.001 12.104-8.001zm-1.602-15.115c6.586-3.379 8.367-4.445 8.367-4.445s-1.069 7.824-5.875 11.736c-6.408 4.8-12.816 4.09-15.13 3.556.89-.356 2.136-.711 3.738-1.245 6.052-2.311 12.638-8.713 12.638-8.713s-2.848 2.134-7.298 4.268c-2.314 1.067-5.162 2.134-7.12 2.845 2.67-2.49 6.764-6.046 10.68-8.002zm-19.046-12.803c-4.629-5.868-10.503-7.824-10.503-7.824s7.299 1.423 11.215 6.046c3.916 4.623 4.806 10.136 4.806 11.914 0 1.778-.534 4.8-.534 4.8 0-.177-.356-9.068-4.984-14.936zm4.272 25.25c2.136.712 4.272.89 6.586.89-1.958.533-3.916 1.6-5.696 2.845-1.246.889-2.314 1.778-3.204 3.022.89-2.489 1.602-4.623 2.314-6.757zM209.99-7.94c-4.806-4.98-8.366-5.869-8.366-5.869s6.23.356 11.214 6.046c4.985 5.69 4.985 12.803 4.985 12.981 0-.178-3.026-8.18-7.833-13.158zm11.749 38.053c7.654-3.912 8.722-4.624 8.722-4.624s-.534 7.824-6.408 11.914c-6.586 4.623-11.571 4.09-14.063 3.2.534-.355 1.424-.888 2.67-1.6 3.383-1.956 14.597-8.001 14.597-8.001s-3.56 1.244-8.722 3.2c-3.204 1.245-6.409 2.846-8.545 4.09 2.136-1.778 6.587-5.334 11.749-8.18zM205.54 10.73c-2.67-4.446-8.01-8.358-8.01-8.358s6.586 1.956 9.79 8.535c2.492 4.98 2.492 11.203 2.314 13.692v1.245s0-.356-.178-.711c-.356-2.668-1.78-10.67-3.916-14.403zm11.393 54.767s-3.383 8.713-10.503 10.847c-6.586 1.956-10.858.178-12.994-1.244 1.246 0 3.026 0 5.874-.712 7.476-1.956 11.748-4.8 11.926-4.8-.178.177-1.424.71-7.832 2.489-4.094 1.067-7.298 1.244-9.256 1.244 2.492-1.067 6.764-2.845 10.502-3.912 5.874-1.6 12.283-3.912 12.283-3.912zm-4.985-14.225c5.875-2.312 11.749-3.556 11.749-3.556s-3.382 7.824-9.435 10.669c-5.696 2.667-10.858 1.067-13.172 0 .712 0 1.424-.178 2.136-.356 6.586-1.245 14.953-6.757 14.953-6.757s-1.958 1.245-8.189 3.2a35.544 35.544 0 0 1-7.12 1.423c2.136-1.422 5.696-3.378 9.078-4.623zM198.42 30.29c-2.492-5.868-5.874-8.18-5.874-8.18s5.874 3.023 8.366 8.535c2.314 5.335-.178 13.159-.534 14.048 0-.356.534-8.713-1.958-14.403zm.178 29.695c2.314 1.067 4.628 1.6 7.12 1.778a14.785 14.785 0 0 0-3.738 1.067c-3.026 1.245-5.518 3.023-7.476 5.335 1.424-2.845 2.848-5.513 4.094-8.18zm-8.722-11.38c-2.67-6.58-6.587-8.891-6.587-8.891s4.985 1.422 7.833 7.824c2.67 6.046 1.78 10.669 1.424 12.447v.356c-.178 1.6-1.78 4.09-1.78 4.09s.178-.534.178-1.6c.534-2.668.89-9.247-1.068-14.226zm-246.894 63.481c2.848-.711 4.806.355 5.518 1.956.534 1.245-1.424 2.489-2.314 3.023-1.246-.178-2.849-.534-3.739-1.601-.534-.711-.89-1.778-1.068-3.023.713 0 1.069-.177 1.602-.355zm24.03 20.449v-2.667c0-.889.178-1.601.178-2.134 4.095.178 18.869 1.422 26.88 13.692 3.203 4.979 4.45 9.958 4.805 13.692-1.424-3.379-4.45-9.069-8.544-13.159-6.23-6.046-16.198-9.78-16.198-9.78s10.324 5.157 15.842 13.87c1.424 2.134 2.492 4.446 3.56 6.579-.89-1.067-1.958-2.133-3.026-3.2-6.052-5.691-13.884-8.536-13.884-8.536s11.57 7.647 14.774 14.581c1.246 2.668 1.958 4.268 2.492 5.157-.89-.178-1.602-.355-2.492-.533-.89-.178-1.78-.356-2.848-.712-3.204-.889-6.586-2.133-9.612-3.912-.534-.355-1.068-.711-1.424-1.066-.356-.178-.534-.534-.89-.712-.534-.355-1.068-.889-1.602-1.422-.89-.712-1.602-1.601-2.136-2.49-4.807-6.046-5.875-12.625-5.875-17.248zM-44.38 159.03c-2.314.711-5.696 1.422-8.188 1.6-2.67 0-4.273-.355-5.163-.711-.177-.178-.177-.534-.177-.711 0-.178.178-.356.178-.356.177-.356.711-.711 1.424-1.067.178-.178.356-.178.534-.356.712-.355 1.602-.889 2.492-1.244 1.246-.534 2.848-1.067 4.272-1.601.356-.177.712-.177 1.068-.355.178 0 .178.178.356.178.356.355.712.889 1.068 1.244.534.534 1.068.889 1.602 1.423-.89 0-2.136-.178-3.204 0-3.56.178-6.052.889-6.052.889s6.408.178 9.79 1.067zm.178 5.334c.712-.533 1.78-1.067 2.848-1.422 1.246-.534 2.492-1.067 3.738-1.423.356-.178.712-.178 1.068-.355.356.889 1.068 1.956 1.958 3.023-1.246 0-2.492 0-3.56.355-3.738.711-4.628.889-4.628.889s6.586 0 10.146.356c.712.533 1.602 1.067 2.492 1.6-1.246.356-3.56.534-6.942.534-3.56 0-7.298-.889-9.612-1.601.356-.533 1.246-1.244 2.492-1.956zm10.502-4.623c1.068-1.245 4.45-2.845 7.833-4.09.534.356.89.712 1.424 1.067.712.534 1.424 1.067 2.136 1.423.712.355 1.246.711 1.958 1.067-1.602.711-4.272 1.6-7.12 1.422a22.15 22.15 0 0 1-6.23-.889zm-10.858-25.072c.712-1.067 4.806-1.778 8.9-1.956 0 1.422.178 2.845.356 4.445-.712-.355-1.602-.533-2.848-.889-3.916-.889-4.984-.889-4.984-.889s3.916 1.6 6.764 3.379c.712.533 1.246.889 1.602 1.244.712 2.845 1.78 5.868 3.382 8.891-1.78.356-4.806 1.067-6.942 1.601l-3.026.889s7.12-.356 10.324-.178h1.068c.178.178.178.355.356.533l.356.356c-1.246.889-4.45 2.667-9.078 1.956-3.56-.534-6.23-1.245-7.654-1.778-.178-.356-.178-.534-.178-.712 0-.177.356-.533.534-.711 1.424-1.245 4.806-2.489 8.188-3.378 1.068-.356 2.136-.534 3.026-.712.178 0 .356 0 .534-.177-.178 0-.356-.178-.534-.356-.89-.534-1.78-1.067-2.67-1.778-1.958-1.601-4.094-3.557-5.518-5.513-.712-.889-1.424-1.778-1.78-2.667-.178-.711-.356-1.245-.178-1.6zm-11.926 7.824c.178-.356.356-.534.89-.889 1.78-1.245 6.408-2.134 10.146-2.668 1.068 1.779 2.67 3.379 4.45 4.979-1.602-.355-3.382-.711-5.162-.711-4.094-.178-6.052-.178-6.052-.178s4.984 1.245 8.366 2.134c.712.178 1.424.356 2.136.356-1.602.533-3.026 1.244-4.272 2.133-1.068.712-1.78 1.245-2.136 1.956-.178.178-.178.534-.356.712-2.848-1.956-5.874-4.446-7.12-6.224-.712-.533-1.069-1.067-.89-1.6zm-2.136 2.134c.533.889 1.245 1.778 1.957 2.845-1.602.177-4.272.711-5.696.889-2.136.355-3.382.533-3.026.533.356 0 8.545.356 10.147.534h.534c1.068.889 2.136 1.778 3.382 2.667-1.068.356-3.026.711-6.23.711-4.45 0-8.723-1.422-10.859-2.667-.178-.178-.178-.178-.178-.356-.356-.355-.356-.711-.356-1.067.534-1.244 5.874-3.2 10.324-4.089zm-19.403 12.447c1.068-1.423 4.806-3.023 8.722-4.268 1.78 1.778 4.272 3.557 6.764 4.979-2.314.178-6.052.178-9.79.178-2.848-.178-4.628-.534-5.696-.889zm14.774 11.202c-3.204-.355-5.34-.711-6.586-1.067 0-.177.178-.177.178-.355a9.992 9.992 0 0 1 2.492-1.778c2.136-1.245 5.162-2.668 7.654-3.379.535.711 1.247 1.245 1.959 1.956l2.136 1.6c.89.712 1.958 1.245 3.026 1.779-.89.355-1.602.889-2.492 1.422-1.78 0-4.629.178-8.367-.178zm4.629 7.824c-.178-.177-.357-.355-.357-.533 0-.356.178-.889.712-1.423 1.425-1.778 5.163-4.089 8.723-5.69.534.711 1.246 1.601 2.136 2.312.534.355.89.711 1.424 1.067-1.246.178-3.026.355-5.162 1.067-4.094 1.422-6.587 2.667-7.477 3.2zm11.748 5.868c-.356.178-.534.356-.89.534.356-.356.712-.889 1.246-1.423.712-.711 1.78-1.778 3.026-2.667 1.424-1.067 2.848-2.134 4.272-2.845 1.068-.534 1.958-1.067 2.848-1.423.178 0 .356-.177.534-.177-.178 0-.356-.178-.534-.178-.178 0-.356-.178-.534-.178.534.178.89.356.89.356h1.424c-1.068 1.6-1.78 3.022-2.492 4.623-2.136.355-7.654 1.778-9.79 3.378zm35.245-10.847c4.272-1.778 6.764-2.667 8.366-3.2-2.67 4.267-8.01 10.669-15.842 13.514-9.612 3.378-15.487 4.268-17.623 4.445.89-4.267 3.026-9.602 7.832-14.581.712-.711 1.602-1.422 2.492-2.134.535-.355 1.247-.889 1.959-1.244.356-.178.534-.356.89-.534.534-.355 1.246-.533 1.78-.889 3.204-1.422 6.764-2.134 10.146-2.489.89-.178 1.958-.178 2.848-.178 1.78-.178 3.56-.178 4.984 0 .534 0 1.068.178 1.424.178-4.272 1.422-12.638 4.623-17.444 8.535-6.764 5.512-7.654 7.291-7.654 7.291s7.298-5.157 15.842-8.714zm-57.318 39.12c12.104-2.667 16.555.178 19.759 3.735 3.204 3.556 1.958 2.845 1.958 2.845s-.712.533-1.78 1.244c-1.246-1.778-3.382-4.267-6.23-5.868-4.629-2.489-13.885.534-13.885.534s5.696-1.423 11.57 1.245c3.383 1.6 5.163 4.089 5.875 5.868l-1.602 1.067c-1.246-1.601-4.094-4.624-6.765-5.691-3.738-1.422-10.146.178-10.146.178s5.874-.889 9.612 1.601c2.136 1.422 4.095 3.912 5.163 5.69-.178.178-.534.355-.712.533-.356.356-.712.711-1.069.889-.711-1.244-1.78-3.023-4.094-4.445-3.56-2.134-7.654-1.245-7.654-1.245s5.34.889 7.832 3.912c1.068 1.423 1.602 2.667 1.959 3.556-1.069 1.067-1.78 1.956-1.78 1.956s-.713-5.69-9.435-6.223c-8.544-.534-14.952 4.623-14.952 4.623s4.272-13.158 16.376-16.004zm-2.314 18.138c-4.45-.534-9.434 1.956-9.434 1.956s4.628-3.912 9.612-4.268c4.984-.355 8.01 3.912 8.01 3.912s-3.738-1.067-8.188-1.6zm5.518 3.023s-1.602.889-4.628 1.067c-3.026.178-12.282 3.2-12.282 3.2s4.272-3.022 7.654-4.445c3.56-1.423 9.256.178 9.256.178zm41.298-.178c3.382 10.491-2.848 20.271-6.943 25.072-4.094 4.801-9.078 7.291-9.078 7.291l-4.984-16.537s-1.602 4.445-4.628 9.602c1.78-9.602-3.56-21.16-3.56-21.16s.178 7.646 0 16.537c-.178 8.713-7.12 17.248-7.12 17.248-.713.534-1.425 1.067-1.959 1.6 4.095-7.468 3.739-19.915 3.739-19.915s-.89 6.223-4.807 13.692c-3.916 7.468-9.612 13.158-9.612 13.158-1.068.534-2.314 1.067-3.916 1.779 1.068-1.601 2.848-4.09 5.34-7.647 5.162-7.29 8.01-17.426 8.188-18.137-.178.533-1.602 4.979-8.722 14.581-5.696 7.824-12.46 12.981-15.309 15.47a172.692 172.692 0 0 1-4.628 1.778s8.723-22.76 22.607-39.653c5.696-6.935 11.926-12.447 17.445-16.537 1.246.178 4.094.533 7.12 1.956 4.094 1.956 6.408 10.491 6.408 10.491s.534-3.556-1.958-8.713c-1.78-3.734-6.23-5.335-8.544-5.868 1.068-.711 1.958-1.423 3.026-1.956 1.958.178 4.628 1.423 7.654 5.512 6.586 8.536 1.958 23.295 1.958 23.295s8.188-11.736 2.492-23.65c-2.492-5.335-4.806-7.469-6.764-8.358.178 0 .356-.178.356-.178 1.246.356 3.204 1.245 5.874 3.557 4.984 3.912 6.409 11.202 6.409 11.202s-.178-6.045-3.917-11.558c-1.424-2.134-3.026-3.378-4.45-4.267 3.204.355 9.79 2.311 12.283 10.313zm29.015-10.313c1.424 1.778.534 4.445-2.315 6.401-.89-2.489-1.958-4.801-3.026-7.113 2.136-.355 4.45-.355 5.34.712zm-17.801-.534l-4.628-4.979-1.246-1.245c3.026.712 6.052 2.134 8.9 5.157 1.958 1.956 3.382 4.623 4.628 7.824-2.67-1.6-5.162-4.09-7.654-6.757zm89.537 68.816c5.162 6.757-3.204 16.892-4.806 18.848-.178.178-.178.178-.178.356-.178.178 0 0 .178-.356 1.424-2.133 6.764-13.514 1.068-17.604-6.052-4.267-36.135 0-36.135 0s33.82-9.068 39.873-1.244zm25.277 49.789c-5.34 3.023-9.969 1.067-9.969 1.067s2.136-5.513 7.655-9.425c4.272-3.023 9.078-2.667 11.392-2.133-1.78.355-4.272 1.244-7.476 3.378-5.696 3.734-7.476 5.512-7.476 5.512s9.434-4.978 13.35-6.223c.534-.178.89-.356 1.246-.356-1.958 2.134-5.34 6.224-8.722 8.18zm26.523-22.939s0 .178 0 0c0 .178 0 0 0 0zm-23.497.178s4.45-4.623 11.214-4.979c4.628-.355 8.723 2.134 10.681 3.734-1.78-.711-4.273-1.422-7.833-1.244-6.23.177-8.722.889-8.722.889s8.544-.356 12.46 1.244h-.89c-5.34.356-16.91.356-16.91.356zm27.235-12.269c-5.518-1.956-9.613-4.09-9.613-4.09s7.121-3.912 14.953-1.601c4.628 1.423 6.942 3.735 8.188 5.335-1.958-1.245-4.984-2.667-8.01-3.201-5.518-.889-7.832-.889-7.832-.889s8.188 2.134 11.748 3.912c1.602.889 2.848 1.601 3.56 2.134-3.026.178-8.9 0-12.994-1.6zm17.622-11.203a80.207 80.207 0 0 1-7.12-2.312s7.654-4.445 14.597-1.6c3.56 1.423 5.696 3.379 6.942 4.979-1.246-.889-2.848-1.778-4.806-2.312-5.163-1.6-9.257-1.778-9.257-1.778s7.121 2.134 10.681 4.268c1.246.889 2.136 1.6 2.67 2.134-3.56-1.067-10.681-2.668-13.707-3.379zm22.785 10.136c-1.246 4.623.178 11.202.178 11.202s-2.136-3.023-1.958-8.713c.178-5.868 5.696-9.424 5.696-9.424s-2.492 2.311-3.916 6.935zm1.602-20.272a465.327 465.327 0 0 0-8.366-1.422s6.052-2.845 11.036.533c3.738 2.49 5.162 4.268 5.696 4.979a.551.551 0 0 1 .178.356l-.356-.356c-.89-.711-4.094-3.378-8.188-4.09zm14.063-8.89l-7.477-.356s3.56-2.134 8.723-.711c3.204.889 4.984 2.489 5.874 3.556.178.178.356.356.356.533.356.356.356.712.356.712l-.534-.534c-.178-.178-.356-.178-.356-.355-1.602-.889-4.45-2.845-6.942-2.845zm1.424 18.493c-1.424 4.267-.356 11.558-.356 11.558s-1.958-4.623-1.78-9.069c.178-2.312 1.602-4.979 3.026-6.757a86.428 86.428 0 0 1 2.314-2.845s-.534.711-1.068 1.956c-.534 1.067-1.424 2.845-2.136 5.157zm142.582 0c0 .711-.178 1.067-.178 1.067l-2.67-2.668c-1.78-1.6-3.204-3.2-3.916-4.09.356-1.244.712-2.667.89-4.089 0-.889.178-1.601 0-2.49v-.355c.534.355 1.068.711 1.602 1.244l.534.534c.178.355.534.711.712 1.067.356.533.712 1.067.89 1.778 0 0 0 .178.178.178.534 1.067.89 2.133 1.246 3.378.356 1.956.712 3.379.712 4.446zm-4.094-17.249c-1.424-.711-2.848-3.023-3.56-4.267.89.177 1.602.355 2.492.533.89.178 1.602.178 2.492.178.89 1.778 1.602 3.378 1.78 4.445-.712 0-1.78 0-3.204-.889zm8.01 2.845a96.063 96.063 0 0 0-2.136-3.378c.356.178.712.178 1.068.355.356.178.89.178 1.425.356.178.178.356.534.356.711.534 1.067 1.246 2.134 1.602 3.201.356.711.534 1.423.712 1.956 0 .178.178.356.178.534.178.533.178 1.066.178 1.422 0 0-.712.711-3.383-.356-1.958-.711-3.738-2.667-4.45-3.734.356-.178.712-.355.89-.711.356-.356.356-.889.356-1.6.356.355.712.533 1.068 1.067 1.424 1.422 3.561 3.912 3.561 3.912s-.535-1.956-1.425-3.735zm6.409 16.004c-.712 0-1.958-.178-4.094-.889-1.958-.711-3.561-2.312-4.451-3.379-.178-.889-.356-1.6-.712-2.311 0-.178-.178-.356-.178-.534.356.178 1.068.356 1.78.889 1.781 1.245 5.875 4.446 5.875 4.446s-1.068-2.312-2.67-4.268a10.224 10.224 0 0 0-1.959-1.956h1.247c.712 0 1.424 0 2.136-.178 1.068 1.779 2.136 3.912 2.67 5.868 0 .712.178 1.423.356 2.312 0-.178 0 0 0 0zm9.612-1.245c-.178.178-.356.356-.89.356-1.068-.534-2.848-1.245-4.272-2.49-1.958-1.6-3.738-4.623-4.45-5.868.712.178 1.602.356 2.314.534 1.602 1.422 4.628 4.623 4.628 4.623s-1.246-2.667-2.314-4.267h2.136c1.958 2.845 3.382 6.223 2.848 7.112zm-.89-9.78c-1.068-.178-3.56-.533-5.696-1.6-3.026-1.245-5.874-4.446-5.874-4.446l-.534-1.066c.712.177 1.602.177 2.492.177h.356c.356.178.534.356 1.068.534 1.602.889 6.408 4.445 6.408 4.445s-.712-1.244-2.136-3.023c-.712-.889-1.602-1.422-2.314-2.133l2.67-.534c1.78 2.845 3.916 6.579 3.56 7.646zm-4.094-10.847c.178.356.178.712 0 .889 0 0-1.78 1.067-4.984 0-2.314-.711-4.628-2.311-5.875-3.022 1.069-.534 1.959-1.067 2.849-1.601.178.178.534.356 1.068.534 1.424.711 4.984 3.2 4.984 3.2s-.712-1.244-2.314-2.667c-.89-.889-1.78-1.6-2.492-2.134.712-.533 1.424-1.244 1.958-1.778 2.314 2.134 4.272 4.979 4.806 6.579zm-21.539-14.936c8.366-2.312 15.487 2.667 17.623 4.267-.178.356-.356.534-.712 1.067-.356.534-.712 1.067-1.246 1.601-1.78 1.778-4.45 3.912-8.189 5.156-.356 0-.534.178-.89.178-.178 0-.356 0-.534.178-.178 0-.534 0-.712.178-.534 0-.89.178-1.424.178h-.356c-.712 0-1.602-.178-2.314-.178-2.848-.534-5.518-1.778-7.654-3.023.712-.356 1.602-.711 3.204-1.245 3.382-1.067 10.858-.711 10.858-.711s-.89-.711-5.518-1.245c-2.67-.356-5.696.356-7.832.889 1.602-.711 3.738-1.6 6.23-2.311 5.34-1.423 11.927-.178 11.927-.178s-4.273-1.956-10.325-2.134c-3.916-.178-8.188 1.778-10.502 3.023 1.246-2.134 4.094-4.446 8.366-5.69zm-9.256 14.225c1.068 4.801 4.806 14.226 4.806 14.226s-.178-3.201-1.246-8.002c-.712-3.201-1.78-7.113-2.314-9.247 1.78 1.601 3.738 3.734 4.984 6.402.356.533.534 1.244.712 1.778 0 .178.178.533.178.711.178.534.178 1.067.356 1.6v2.134c0 3.912-1.246 7.113-2.67 9.247-.178.178-.178.355-.356.533-1.068-1.422-3.738-5.334-5.34-10.847-1.602-5.156-1.068-10.491-.534-13.158.356.711.712 2.134 1.424 4.623zm-16.733-51.923c10.147 6.046 13.351 14.937 13.351 14.937s-14.241-1.245-25.455-7.291c-3.382-1.956-6.052-3.378-7.832-4.623 2.314.178 5.162.356 7.832.711 7.476.889 18.334 6.046 18.334 6.046s-4.094-3.912-12.104-7.646c-5.696-2.667-12.994-3.379-16.732-3.556 4.806-1.067 14.952-3.023 22.606 1.422zm-66.218 110.603s-5.874-8.891-8.544-14.937c-2.67-6.045-1.958-18.315-1.958-18.315l-8.189 5.335s-3.56-16.182 2.493-20.449c6.052-4.268 19.402-4.624 19.402-4.624s-9.434 1.778-14.418 6.58c-4.984 4.801-4.628 11.38-4.628 11.38s1.068-7.468 7.476-10.491c3.204-1.601 6.942-2.49 9.968-3.023-.178.711-.534 1.6-.712 2.489-2.136.356-5.34 1.245-7.654 3.023-3.204 2.49-4.628 6.402-4.984 7.468.712-1.066 4.45-5.156 8.366-6.579 1.246-.533 2.492-.711 3.382-.889l-.534 2.134c-1.246.356-2.67.889-3.382 1.6-1.424 1.245-3.382 3.912-3.382 3.912s3.738-2.845 5.696-3.2c.356 0 .534-.178.89-.178 0 .533-.178 1.067-.178 1.6-.178 6.757 2.848 17.071 3.738 22.939.356 5.69-2.848 14.225-2.848 14.225zm25.633-56.013v.534c-.178.711-.356 1.6-.712 2.489a24.084 24.084 0 0 1-1.602 4.09c-.534 1.245-1.246 2.134-1.602 3.023-.356.533-.712.889-1.068 1.245.178-.178.178-.534.356-.712.89-2.133 1.068-6.757 1.068-8.713 1.068-.889 2.136-1.778 3.204-2.845l.356.889s.178.178.534.712c0-.178-.178-.178-.178-.356-.178 0-.178-.178-.356-.356zm3.916 18.316c-.356.533-.712.711-.89.711-.178 0-.356 0-.534-.178.178-.889.89-3.201 1.068-6.757.178-1.778 0-3.379-.178-4.445.356.355.712.711 1.246 1.066.89.712 1.602 1.067 2.314 1.423-.712 3.201-1.958 6.757-3.026 8.18zm9.078 5.512c-.356.889-.712 1.778-1.068 2.312 0 .177-.178.177-.178.177-.534-1.066-1.068-2.667-1.958-5.156-1.068-3.023-1.424-5.335-1.602-6.935.178-.711.534-1.423.712-2.312.712.711 1.246 1.423 1.958 2.134.534.533 1.068 1.067 1.602 1.423.712.533 1.246.889 1.958 1.244-.178 2.49-.712 5.157-1.424 7.113zm-1.78-28.095c-.534-.889-1.246-2.668-2.136-5.157-.712-2.312-.356-4.445-.178-6.046.356.534.89.889 1.246 1.423l1.602 1.6c.356.356.712.711 1.246.889-.178 3.201-.89 6.224-1.78 7.291zm5.875 17.959c-.178.534-.357 1.067-.713 1.245-.178.178-.178.178-.356.178h-.712c-.534-.711-1.068-1.956-1.424-4.09-.356-2.134-.356-4.979-.178-6.935 1.246 2.667 2.849 8.002 2.849 8.002s.178-2.134-.357-5.157c-.178-.889-.356-1.956-.712-2.667.534.356.891.711 1.424 1.067.357.178.891.533 1.247.711l.178.178v.889c-.178 1.245-.356 2.667-.534 3.734-.178.889-.356 1.601-.534 2.134 0 .356 0 .534-.178.711zm4.272 17.604c-.356-.889-1.068-2.133-1.602-4.623-.712-3.023-1.424-6.046-1.602-8.002 1.602 1.778 3.382 3.557 5.34 4.624-.356 3.556-1.246 6.934-2.136 8.001zm5.34-8.891c-.178 0-.534 0-.89-.177-.178 0-.178-.178-.356-.178-1.424-1.601-3.382-4.623-4.094-8.358-.534-2.489-.712-4.267-.534-5.156.89.889 1.78 1.6 2.67 2.311 0 .178.178.178.178.356.356 1.245 2.136 8.002 2.314 8.18.178.177 0-.712-.178-2.49-.178-1.245-.178-3.378-.356-4.801.89.533 1.78.889 2.67 1.067 0 3.912-.534 8.713-1.424 9.246zm3.204-12.091c-.178.355-.356.711-.534.889-.356.178-.89 0-1.602-.356-1.78-.711-4.272-2.667-6.408-4.623.178-.178.356-.178.534-.356.534-.533.89-1.244 1.246-2.133.356-1.067.712-2.49.89-3.912.178.533.356 1.066.712 1.6 1.424 2.667 3.382 6.401 3.382 6.401s-.178-1.6-1.246-4.979c-.356-1.422-1.068-2.845-1.602-4.089 1.602 1.067 3.382 2.133 4.806 2.667.534 3.378.534 7.29-.178 8.891zm3.738-10.314c-.356.178-.712.178-1.424 0-.712-.177-1.602-.533-2.492-.889-1.78-.889-3.738-2.134-5.518-3.556-.712-.534-1.424-1.245-1.958-1.778l-.356-.356v3.023c-.178 2.845-.534 5.868-1.246 7.291a2.465 2.465 0 0 1-.534.711h-.712c-.712-1.067-1.78-3.023-2.848-5.868-1.425-3.557-.535-6.579 0-7.646.178 0 .177.177.355.177.179 0 .357.178.357.178 0 .178.178.534.178.889.712 2.49 1.78 8.358 1.78 8.358l.178-2.667c0-1.779.178-4.446.178-5.868 2.848.889 5.518 1.244 7.832 1.244.356.356.712.534 1.246 1.067 1.958 1.956 4.094 4.801 4.094 4.801s-.178-.889-1.602-3.912c-.534-.889-.89-1.6-1.246-2.134a92.294 92.294 0 0 0 3.738-.533c.712 3.201.89 6.757 0 7.468zm-18.513-25.783c-1.068-.712-2.136-1.423-3.204-1.956 1.958.355 3.916 1.067 6.053 1.778 8.01 2.845 14.062 10.313 14.062 10.313s-4.806-7.468-11.036-11.38c-4.095-2.667-9.257-3.912-12.283-4.623 3.204-.356 7.476-.356 12.105 1.422 11.57 4.268 15.308 16.182 16.02 19.382-.356.178-.89.356-1.602.534l-2.136.533c-3.738.712-9.256 1.067-15.308-1.422a11.33 11.33 0 0 1-2.493-1.423c-.534-.355-.89-.711-1.424-1.067-.178-.177-.534-.355-.712-.533l-1.068-1.067c-2.136-2.134-3.738-4.623-4.984-7.113l-1.068-2.134c-.356-.711-.534-1.422-.89-1.956.89.178 2.136.534 4.628 1.067 6.23 1.245 14.597 9.425 14.597 9.425s-3.56-5.868-9.257-9.78zm-6.764 29.873v-3.912c0-1.067-.178-1.956-.356-3.023.89.712 1.958 1.067 2.848 1.067v.889c-.178 1.067-.178 2.134-.534 3.201-.178 1.067-.534 1.956-.712 2.667-.356 1.067-.712 1.956-1.068 2.312-.89-1.6-2.314-4.623-3.026-7.468-.534-2.846-.712-4.624-.712-5.868.534.533 1.068 1.244 1.78 1.6.712 3.201 1.78 8.535 1.78 8.535zm-4.984-27.739c.178.711.178 1.6.356 2.311.356 2.667.356 5.69-.178 8.713-.178.534-.178 1.067-.356 1.601 0 .177-.178.533-.178.711-.178.533-.356 1.245-.712 1.778-.356.889-.712 1.6-1.246 2.49-3.204 4.623-7.12 7.468-10.502 8.89-.178-1.6-.534-6.579.356-15.114.712-6.935 5.162-12.27 8.188-15.292-.178 1.244-.356 3.556-1.068 7.29-1.424 7.646-4.094 14.759-4.094 14.759s1.424-.889 4.628-7.468c2.314-4.801 3.382-12.092 3.738-15.826.178.355.178.711.356 1.067.178 1.244.534 2.667.712 4.09zm-5.34-7.291c-3.382 1.423-8.01 4.09-11.927 9.424-4.628 6.402-5.34 13.515-4.806 19.027-.178.356-.534.533-.712.711-1.424-6.223-3.56-18.137-1.424-24.005 3.382-10.136 10.859-14.048 13.885-15.115 2.67 4.623 4.628 8.891 4.984 9.958zm-19.937-26.139l-3.026 3.023c-4.094 4.089-12.816 1.244-14.418-5.691-.178-1.066-.534-2.133-.712-3.378 5.696.889 12.282 2.845 18.156 6.046zm-31.329-20.805c3.738 1.245 5.34 4.268 6.764 8.357-7.476-.711-14.418-.533-18.334-.355-3.204-1.423-6.586-2.667-10.147-3.557 5.697-1.956 17.089-6.045 21.717-4.445zm99.862-38.587s-7.833 1.423-13.885 4.624c-6.052 3.2-8.544 7.646-8.544 7.646s1.246-7.468 8.9-10.314c7.654-2.667 13.529-1.956 13.529-1.956zm-5.875-13.158c3.738 3.201 4.984 6.224 4.984 6.224s-4.628-4.802-8.544-7.113c-3.916-2.312-4.806-2.312-4.806-2.312s4.628 0 8.366 3.201zm-27.769 0s.712 0 1.78.178c1.959.178 4.985.533 6.765 1.778 2.848 1.778 5.162 5.512 5.162 5.512s-3.738-3.556-7.476-5.156c-2.315-1.067-4.273-1.601-5.341-1.956-.534-.356-.89-.356-.89-.356zm20.649-22.761s-6.23 3.734-9.078 7.646c-2.848 3.735-4.984 9.069-4.984 9.069s.178-7.29 4.272-11.202c4.094-4.268 9.79-5.513 9.79-5.513zm-18.691-16.715c.89 2.134 2.137 4.09 3.561 5.868-.712-.355-1.424-.533-2.315-.711a21.277 21.277 0 0 0-8.188-.533l6.942-4.624zm27.057 6.58c-.712-1.245-3.382-5.335-11.036-6.58-9.078-1.422-13.884-.533-13.884-.533s10.146-3.912 16.554-1.067c5.518 2.489 7.832 6.935 8.366 8.18zm-9.79-10.314c-4.628-1.245-9.256-.889-13.172 1.067l10.324-7.113c1.424 3.201 3.916 5.868 6.764 7.824-1.246-.711-2.492-1.244-3.916-1.778zm23.675-1.067s-4.272-5.512-11.927-6.58c-7.832-1.066-11.392-.533-11.392-.533s8.188-3.378 14.063-.71c5.874 2.666 9.256 7.823 9.256 7.823zm6.408-17.604c6.052 2.845 8.544 7.646 8.544 7.646s-6.052-5.156-12.994-6.579c-6.942-1.422-10.324-.889-10.324-.889s8.544-3.2 14.774-.178zm10.324-9.424c-6.408-.534-9.612-.356-9.612-.356s7.654-2.667 13.172-.889c5.519 1.956 9.613 7.113 9.613 7.113s-6.764-5.335-13.173-5.868zm28.837-3.023s-7.298-6.757-14.24-6.935c-6.942-.178-9.969 0-9.969 0s8.189-3.379 14.241-.89c6.23 2.668 9.968 7.825 9.968 7.825zm14.419-9.069s-4.984-6.046-12.105-7.29c-7.12-1.245-13.35-.534-13.35-.534s10.858-3.378 16.554-.178c5.875 2.845 8.901 8.002 8.901 8.002zm2.136-21.872c7.654.356 12.46 3.912 12.46 3.912s-6.586-2.489-12.994-1.956c-6.408.534-13.529 4.802-13.529 4.802s6.231-7.113 14.063-6.758zm-11.214 11.559l-1.603-.534c-3.56-1.067-7.12-.889-10.324 0l6.764-4.623 2.136-1.423c-.712.89-1.424 1.779-1.958 2.846a21.458 21.458 0 0 0 4.985 3.734zm39.517-43.21c6.052-3.379 14.062-2.134 14.062-2.134s-7.654 6.935-13.884 9.602c-3.026 1.423-5.162 2.312-6.408 3.023 1.602-1.6 4.272-4.445 6.942-6.223 3.916-2.668 7.832-4.09 7.832-4.09s-5.162.711-9.968 3.556a151.084 151.084 0 0 0-4.984 3.2c1.246-2.31 3.382-5.156 6.408-6.934zm-24.565 8.535c1.958-5.334 6.052-9.424 7.832-10.313 1.78-.89 3.916-1.245 3.916-1.245s-3.56 8.18-5.696 13.159c-1.246 2.667-2.492 5.69-3.56 7.824.178-1.779.534-4.98 1.602-8.536 1.602-5.334 3.026-7.29 3.026-7.29s-3.026 3.378-4.984 8.535c-1.068 2.845-1.78 5.157-2.136 6.757-.712-2.49-1.068-6.046 0-8.89zm-17.267 9.069c1.246-6.401 4.451-9.958 6.053-11.38 1.602-1.423 3.204-2.49 3.204-2.49s-1.246 2.845-2.492 8.891c-.712 3.734-1.424 9.958-1.958 14.048-.534-2.134-.891-5.335-.891-8.002.179-4.98 1.069-7.646 1.069-7.646s-2.493 4.445-2.849 10.313c-.178 3.2.179 5.513.535 7.113-1.425-2.49-3.383-6.757-2.671-10.847zm-15.842 11.38c-.356-9.246 6.942-15.292 6.942-15.292v14.581c0 4.268-.712 8.002-1.246 10.313-.534-2.133-1.246-6.223-1.424-9.602-.178-4.623 1.068-7.646 1.068-7.646s-2.314 3.912-2.314 11.38c0 2.668.178 4.624.534 6.046-1.602-2.134-3.382-5.512-3.56-9.78zm-.178 17.96c.89 2.134 2.314 4.09 3.916 5.868-.356-.178-.712-.178-1.068-.356-3.916-1.067-7.832-.889-11.214.178l8.366-5.69zm-15.665-10.136c.89-8.89 7.299-12.447 7.299-12.447s-.712 1.067-2.314 10.491c-.712 3.734-.713 7.113-.713 9.78-.178-1.067-.534-2.311-.712-3.378-.712-4.624-.178-9.602-.178-9.602s-1.424 2.489-1.068 11.024c.178 3.023.356 4.98.712 6.402-1.424-2.49-3.56-6.757-3.026-12.27zm1.602 19.738c1.068 2.312 2.493 4.446 4.273 6.402-.534-.178-.89-.356-1.425-.534-4.094-1.245-8.366-.889-12.104.534l9.256-6.402zm-17.088-8.002c.356-8.535 6.764-12.803 6.764-12.803s-.534 3.379-1.602 8.891c-.534 3.023-.712 8.002-.712 11.914a140.864 140.864 0 0 1-.534-3.378c-.534-4.446-.356-11.025-.356-11.025s-.89 1.422-1.424 7.29c-.356 3.735 0 7.113.178 9.425-1.246-2.49-2.492-5.868-2.314-10.314zm-1.78 11.025a10.754 10.754 0 0 0 0-3.379c.89 2.668 2.492 5.157 4.45 7.113l-7.476 4.801c1.602-2.311 2.848-5.334 3.026-8.535zm-13.885-1.245c.89-7.646 7.477-12.98 7.477-12.98s0 4.623-.89 11.735c-.356 3.38-.891 7.113-1.247 9.958-.534-2.49-1.068-5.868-1.246-8.535-.178-4.623.712-7.468.712-7.468s-2.136 3.734-1.958 10.491c0 3.912.534 7.113.712 9.069-1.424-2.134-4.272-6.757-3.56-12.27zm2.848 18.849c1.246 2.667 3.027 5.157 5.519 7.113-1.246-.712-2.671-1.245-4.095-1.6-2.848-.89-5.874-.89-8.722-.356l7.298-5.157zM285.109 76.7c0-8.358 5.696-13.87 5.696-13.87s-3.738 5.513-3.204 12.447c.534 6.935 2.136 14.404 2.136 14.404s-4.628-4.623-4.628-12.981zm-.89 9.78v-1.778c1.068 2.134 2.314 4.09 4.094 5.868a101.4 101.4 0 0 1-7.298 4.623c1.78-2.49 2.848-5.512 3.204-8.713zm-13.707-1.778c.89-9.247 7.299-12.27 7.299-12.27s-3.739 6.58-3.917 13.692c-.178 7.113 1.425 12.981 1.425 12.981 0-.178-5.697-5.157-4.807-14.403zm-13.706 8.357c1.78-6.757 6.23-9.069 6.23-9.069s-3.204 4.98-3.204 12.092c0 7.113 1.246 11.025 1.246 11.025s-6.052-7.29-4.272-14.048zm13.172 4.446a6.728 6.728 0 0 0 0-2.668c.89 1.956 2.136 3.735 3.56 5.335-1.78 1.067-3.56 2.312-5.34 3.379.89-1.779 1.424-3.913 1.78-6.046zm-37.737 35.919l26.523-18.315c2.314 4.801 6.586 8.535 12.104 10.135 3.382.889 6.587.889 9.791.178-3.204 3.912-4.272 8.713-3.56 13.337-1.958.355-3.917.711-5.697 1.066 3.382-3.2 4.985-7.468 4.985-11.913-4.807-1.601-10.325-.889-14.775 2.489-4.094 3.023-6.408 7.646-6.586 12.27-21.005 3.734-40.408 7.646-54.292 11.024 18.691-12.091 31.507-20.271 31.507-20.271zm-100.573 58.68c-3.382 1.245-6.764 2.489-9.969 3.734 2.315-1.778 4.807-3.556 7.121-5.512 6.586-3.201 13.35-6.402 20.292-9.602-5.874 3.734-11.748 7.646-17.444 11.38zm-89.893 28.807c.712-5.157 0-8.18-.178-9.069.356 1.067 1.602 4.979 3.916 6.401-1.246 1.423-2.67 3.023-4.094 4.446.178-.534.356-1.067.356-1.778zm4.272 12.802c-1.068 1.067-2.136 1.956-3.204 3.023.89-.889 1.78-1.778 2.67-2.845l.534-.178zm71.38-122.338c6.587-18.494 10.681-33.075 10.681-33.075s-5.163 33.964-13.173 52.812c-8.01 18.671-29.015 44.099-29.015 44.099s24.921-45.343 31.507-63.836zM72.926 93.059c.712 0 1.424-.178 1.958-.178.534 3.557 1.424 17.071-8.366 25.962-3.916 3.556-8.189 5.334-11.57 6.224 2.847-1.779 7.475-5.157 10.502-9.425 4.45-6.401 6.408-15.826 6.408-15.826s-3.204 9.958-10.147 16.004c-1.78 1.6-3.56 2.845-5.34 4.09.712-.889 1.602-1.956 2.314-3.201 4.094-6.224 5.697-13.692 5.697-13.692s-5.163 11.38-10.859 15.292c-2.314 1.423-3.56 2.312-4.272 3.023v-2.311c0-.889.178-1.601.178-2.49.356-3.023.89-6.223 2.136-9.068.178-.534.356-1.067.712-1.423.178-.356.356-.533.534-.889l1.068-1.6c.534-.89 1.246-1.601 1.958-2.312 4.984-4.979 10.68-6.757 14.775-7.469.712-.533 1.602-.71 2.314-.71zm-26.88 9.425c-.355-2.846-.177-4.801 0-5.868 1.247.71 3.205 3.556 4.807 6.401-.356.534-.534.889-.712 1.423l-1.068 2.133c-.178.712-.534 1.245-.712 1.956-.89-1.244-1.958-3.378-2.314-6.045zm12.105-28.63c.178 0 .534.356.89.534 1.246 1.423 2.849 5.335 3.739 8.713-1.425 1.245-2.67 2.846-3.917 4.624 0-1.423.178-3.023 0-4.624-.356-3.734-.712-5.334-.712-5.334s-.356 4.623-.712 7.824v1.956c-.712-1.423-1.602-2.49-2.492-3.556-.712-.712-1.424-1.423-2.136-1.779-.178-.178-.356-.178-.712-.178 1.246-2.845 3.204-5.868 4.628-7.29.534-.534 1.068-.89 1.424-.89zm-8.366-9.424c.178-.177.178-.177.178-.355.356-.356.712-.534.89-.534 1.246.178 3.738 4.802 5.162 8.713-.712.534-1.424 1.245-2.136 2.134-.534-1.422-1.246-3.556-1.602-4.979-.534-1.956-.89-2.845-.89-2.667 0 .356.89 7.646 1.068 9.247v.533c-.712 1.067-1.246 2.134-1.78 3.379-.534-.89-1.068-2.667-1.602-5.513-.712-3.912 0-7.824.712-9.958zm.89 27.384c0-3.378.178-5.69.534-7.112.178-.178.534-.356.534-.356.178 0 .534.178.712.356 1.246 1.067 2.848 3.912 4.272 6.757l1.068 2.667c0 .178.178.356.178.356 0-.178.178-.356.178-.534.356-.71.712-1.6 1.246-2.49 1.068-1.955 2.67-4.089 4.095-5.69.712-.888 1.424-1.422 2.136-1.955.534-.356 1.068-.712 1.424-.534 1.068.356 2.314 3.912 3.026 7.647-1.246.177-2.492.533-3.916.888.178-.71.356-1.6.356-2.667.356-3.556.178-4.623.178-4.623s-.89 3.734-2.136 6.401c-.356.712-.535 1.245-.89 1.6-2.493.89-4.985 2.313-7.477 4.268-.534-1.422-1.602-4.09-2.492-5.868l-1.068-2.667s1.246 6.402 1.602 9.247c0 .355 0 .711.178.889l-.356.355-.356.356c-1.068-.533-3.026-3.2-3.026-7.29zm-8.544-35.03c1.424.712 3.382 3.912 4.984 7.113-1.424 1.778-2.67 4.268-3.382 6.757-.356-2.134-1.068-5.334-1.424-8.713-.356-2.49-.356-4.09-.178-5.157zm.534 18.493c.178-.177.356-.355.534-.355.178 0 .178 0 .356.178.356.177.712.533 1.246 1.067.178.177.356.355.356.533.534.534.89 1.245 1.424 1.956.712 1.067 1.424 2.312 2.136 3.556.178.356.356.534.534.89 0 .177 0 .177-.178.355l-1.068 1.067-1.068 1.6c0-.889-.178-1.956-.356-2.845-.712-3.2-1.78-5.334-1.78-5.334s.534 5.868.356 9.069c-.89-1.956-2.136-4.802-2.492-7.113-.356-2.312-.178-3.734 0-4.624zm1.78 19.027c-.89.356-1.602 1.245-2.314 2.134-.178-1.067-.356-2.134-.712-3.2-1.246-3.202-1.424-3.913-1.424-3.913s.89 5.868 1.068 9.069c-.356.711-.712 1.6-1.068 2.311-.356-1.067-1.068-3.022-1.602-6.045-.534-3.201-.178-6.58 0-8.713.534.355 1.246.889 2.136 1.956.534.71 1.068 1.422 1.78 2.311.712 1.067 1.246 2.134 1.78 3.023.178.356.356.711.356 1.067zm-10.146-22.76c-.178-2.846-.178-4.802 0-6.047.178 0 .178.178.356.178.534.356 1.246 1.067 1.958 1.956 1.424 1.778 3.026 4.09 4.094 6.402a7.894 7.894 0 0 0-1.424 1.956l-1.068 2.134c-.356.889-.89 1.956-1.068 3.022-.534-.71-1.068-1.422-1.602-1.956-.534-1.778-1.069-4.267-1.246-7.646zm-5.875 4.8c.356 0 .712.178 1.246.356 1.78 1.067 4.45 4.09 6.409 6.935-.712.533-1.246 1.245-1.78 2.311-.178.534-.535.89-.712 1.423-.357-1.245-.713-2.667-1.603-4.445-1.78-3.557-3.204-5.69-3.738-6.402-.178 0 0 0 .178-.178zM25.22 88.258c.89.534 1.78 1.245 2.848 2.312 1.068 1.067 2.314 2.311 3.204 3.378.713.89 1.247 1.6 1.602 2.312a.55.55 0 0 1 .178.356v-.534c0-.178 0-.355.178-.355 0 .533-.177.889-.177.889l.178 1.244c-1.425-.71-3.027-1.244-4.45-1.6-.89-1.956-2.849-6.58-4.629-8.18-.178-.177-.534-.355-.712-.71l1.78.888zm11.393 14.226c.89.533 1.602 1.244 2.314 1.956l1.424 1.422c.178.178.356.356.534.711.356.534.712.89 1.068 1.423 1.78 2.667 2.848 5.69 3.738 8.535.178.889.356 1.601.534 2.49.356 1.6.534 3.2.712 4.445v1.245c-1.958-3.556-5.874-10.491-10.146-14.403-5.875-5.335-7.477-5.691-7.477-5.691s5.519 6.046 9.969 13.159c2.314 3.556 3.382 5.69 4.094 6.935-4.094-1.778-10.68-5.512-14.24-12.092-4.273-8.179-5.875-13.336-6.409-14.936 3.738.177 8.722 1.422 13.885 4.801zm-55.894-37.342l1.78-1.778c.534-.356.89-.712 1.246-.89 2.136 2.49 8.722 10.67 6.408 20.983-1.246 5.157-3.916 8.891-6.052 10.847 1.424-3.023 3.382-8.18 3.026-12.98-.534-7.291-3.204-12.448-3.204-12.448s1.958 7.824.534 14.403c-.534 2.845-1.424 5.513-2.314 7.647.534-2.668 1.068-6.402.534-9.425-1.068-5.69-1.78-6.757-1.78-6.757s1.068 9.069 0 13.159c-.534 1.956-1.068 3.022-1.424 3.911-1.602-2.489-3.382-5.512-4.094-8.89-.178-.89-.356-1.956-.356-2.846v-2.845c0-.177 0-.533.178-.71 0-.356.178-.712.178-1.068.89-4.8 3.204-8.18 5.34-10.313zm-11.393-6.757c.178-.178.712 0 1.068 0 1.959.533 5.519 2.845 8.367 4.979-.712.71-1.424 1.6-2.136 2.49-.712-.712-1.602-1.957-2.67-2.846-1.958-1.6-3.56-2.49-3.56-2.49s3.382 4.09 4.272 5.868c.356.534.534.89.712 1.245-.712 1.067-1.246 2.312-1.78 3.557-1.069-1.423-3.205-4.09-4.095-6.935-1.246-3.734-.178-5.868-.178-5.868zm2.848 21.338c0 1.067.178 1.956.357 3.023.178 1.067.534 1.956.89 3.023-1.424-.712-4.273-2.312-5.34-4.09-1.069-1.6-1.247-3.023-1.247-3.734 1.068 0 3.204.711 5.34 1.778zm-14.952-25.606c1.246-.533 5.874 1.778 9.434 4.268-.356.889-.534 1.956-.534 3.2-.712-.889-1.602-1.778-2.67-2.489-2.314-1.778-3.916-2.49-3.916-2.49s4.628 5.513 5.874 7.291c.356.356.534.89.712 1.245v.355c.178 1.067.178 1.957.356 2.846-.534-.178-.89-.356-1.424-.534 0 0-3.916-3.2-5.696-6.757-1.246-2.845-1.958-5.69-2.136-6.935-.178 0-.178 0 0 0zm.534 13.87c.356 0 .89 0 1.602.178.178 0 .356.178.534.178.712.177 1.602.533 2.314.889 1.246.533 2.67 1.067 3.916 1.778.356.178.534.355.89.533.178.534.356 1.245.534 1.6.178.534.356.89.534 1.245a54.437 54.437 0 0 0-4.094-2.311c-2.136-1.067-4.45-1.778-4.45-1.778s3.204 2.489 4.984 4.09c.534.355.89.889 1.246 1.066-.712 0-1.424.178-1.78.534-.356.355-.534.711-.89 1.245-1.424-.89-3.738-2.846-4.806-5.157-1.246-3.201-.534-4.09-.534-4.09zm-12.638-14.403c1.068-.712 5.34.889 9.078 2.845 0 .711 0 1.6.178 2.49-2.136-1.246-5.34-2.668-5.34-2.668s4.094 3.556 5.874 5.334c.178.89.356 1.956.712 2.845-1.424-.71-5.162-2.667-7.298-4.978-1.602-1.6-2.67-3.735-3.382-4.98-.178-.355 0-.71.178-.888zm-.534 11.913c.712 0 1.78.178 2.848.534 2.314.533 4.984 1.778 7.298 3.023-.178.711-.178 1.6 0 2.49 0 .533.178 1.066.178 1.422-.712-.712-1.602-1.6-2.492-2.134-2.492-1.956-5.34-3.023-5.34-3.023s4.272 4.623 5.696 6.757c.712.89.89 1.6 1.068 2.134-.178 0-.356-.178-.712-.178-.89-.178-1.958-.533-2.848-.711-1.424-1.067-3.56-2.845-4.45-5.157-1.068-2.49-1.424-4.09-1.424-4.979 0-.177 0-.178.178-.178zm1.068 12.626c.178-.178.534-.356 1.424-.356 1.068 0 2.848 0 5.518.711 1.424.356 2.848.89 4.094 1.423 0 0 .178 0 .178.178.712.355 1.602.71 2.136 1.067.534.177.89.533 1.246.71.178.178.534.356.712.534.712.534 1.068 1.245 1.424 1.956h-.356c-1.068 0-2.136.178-3.026.178-1.78.356-3.56.711-4.984 1.245-1.068-.89-3.026-2.49-5.162-4.446l-3.204-3.2zm17.622 18.67c-6.942-1.778-11.926-4.623-13.528-5.868.178-.177.356-.355.712-.533 2.492-1.6 6.23-3.379 11.036-3.734h2.67c.712 0 1.246.178 1.78.355.356 0 .534.178.89.178.712.178 1.424.534 2.136.712 3.204 1.422 5.875 3.556 8.01 5.512-2.67-.534-7.476-1.423-11.392-2.134-5.874-.889-9.79-.889-9.79-.889s11.748 3.912 17.444 4.979c3.027.533 4.807.889 5.697 1.067-2.848.889-9.435 1.956-15.665.355zm25.99 8.714s13.35-5.69 13.527-3.379c.179 1.423-2.848 7.291-5.696 12.981-2.848-3.023-5.518-6.58-7.832-9.602zm5.695 24.361c-1.424-1.423 0-4.979 2.314-9.069 1.602 1.422 3.382 3.023 5.162 4.445 1.603 1.245 3.205 2.49 4.807 3.557-2.67 1.6-8.9 4.445-12.283 1.067zm24.209-3.912c2.492-1.245 4.628-2.49 6.586-3.201.712.533 1.246 1.067 2.136 1.422 9.79 6.224 19.403 4.624 20.471 4.268.178 1.6.534 4.446.712 7.824-10.324-1.245-25.989-4.268-25.989-4.268v2.134c-2.848-1.422-6.052-3.023-9.256-4.979 1.246-.889 2.848-1.956 5.34-3.2zm19.403 39.475s4.628-3.734 10.146-6.223a38.966 38.966 0 0 1 5.874-2.134c.178 0 .356 0 .356-.178 3.382-.711 6.408-.889 8.544-.711 0 0-1.958-4.801-4.628-8.002-1.068-1.245-3.204-2.49-5.34-3.556-1.424-.712-3.026-1.423-4.272-1.779a122.896 122.896 0 0 1-2.314-.889s1.068.356 2.314 1.245c1.246.711 2.848 1.6 4.272 2.667 1.246.889 2.492 1.956 3.026 3.023.89 1.423 1.424 2.667 1.78 3.379-.534-.356-1.068-.712-1.78-1.067-.89-.534-1.78-1.067-2.848-1.778-1.424-.889-3.026-1.601-4.628-2.49-6.052-3.201-13.528-6.757-18.157-9.069-2.848-1.422-4.806-2.311-4.806-2.311.178 0 14.953 3.912 22.785 4.445h1.068c.89 0 1.958.178 2.67.356 5.874 1.422 9.612 5.868 9.612 5.868l1.247-5.512s6.23 4.801 7.654 9.602c.89 3.023.356 7.646-.178 10.847 0-.889 0-1.956-.178-3.201-.534-6.402-2.848-10.314-2.848-10.314s1.246 5.691.534 10.67a59.66 59.66 0 0 1-.534 3.2c-.178.889-.356 1.778-.534 2.312-1.78-.356-4.629-.889-9.079-1.067h-4.628c-2.136.178-4.272.356-6.408.711a154.735 154.735 0 0 0-8.722 1.956zm12.46 10.847s11.57-2.134 18.157-7.468a13.807 13.807 0 0 1 2.314 4.09c1.424 3.378 1.78 8.179 1.78 12.091-5.696 7.469-12.105 15.293-19.225 23.65 0-1.956-.178-4.268-.534-7.29-.712-6.224-3.204-11.914-6.942-14.759a176.249 176.249 0 0 0 4.45-10.314zm-29.193 26.317s-2.848-3.556-6.764-1.778c-3.916 1.6-1.246 8.002-1.246 8.002s-2.492-3.023-1.78-7.646c.178-1.245 1.246-3.912 4.628-4.268 3.382-.356 5.696 3.734 5.696 3.734l-.534 1.956zm.89-2.311s-.356-5.691-7.298-6.935c-6.942-1.245-7.476 9.068-7.476 9.068s-3.204-11.024 4.984-14.047c8.188-3.023 11.57 7.113 11.57 7.113l-1.78 4.801zm-10.324 53.879c-1.78 1.956-3.56 3.734-5.34 5.69v-1.956a48.41 48.41 0 0 1 5.34-3.734zm125.316-13.87c14.062 2.489 22.963 5.69 22.963 5.69s-43.968-11.38-84.91.889l-1.601.533c-7.654 2.312-14.953 4.979-22.073 7.824-8.366 3.201-16.02 6.758-22.963 9.958-18.156 8.536-30.26 16.004-30.26 16.004l1.067-1.067s21.895-14.403 45.036-25.784c.712-.355 1.602-.711 2.314-1.067 11.392-5.334 22.785-9.957 32.041-11.558 1.78-.355 3.56-.533 5.34-.889 29.549-4.979 39.874-2.845 53.046-.533zm-9.79-24.184s-7.121 2.668-30.44 9.958c-6.052 1.778-13.706 4.801-21.894 8.002-3.56 1.423-7.298 3.023-11.037 4.623a3481.422 3481.422 0 0 1-14.596 6.224l-3.738 1.6c-1.246.534-2.67 1.067-3.738 1.779-9.968 4.445-16.91 7.646-16.91 7.646s7.831-4.624 18.512-10.492c.712-.355 1.424-.711 1.958-1.066 1.246-.712 2.314-1.245 3.56-1.956.178-.178.356-.178.712-.356 6.586-3.556 13.706-7.291 20.47-10.491 7.833-3.735 15.131-6.757 20.293-8.002.534-.178 1.247-.356 1.78-.356 3.027-.711 6.053-1.422 8.901-1.956 14.418-3.378 26.167-5.157 26.167-5.157zm71.024-40.542c-17.445 2.312-33.821 6.046-48.774 10.491 9.257-6.046 18.513-11.914 27.235-17.426 8.367-3.201 16.021-6.046 22.785-7.824 10.146-2.667 28.125-6.757 49.13-11.38 1.246 3.556 3.916 6.579 7.654 8.001a13.889 13.889 0 0 0 12.46-.889c-1.068-4.089-3.916-7.824-8.188-9.602 0 0-.178 0-.178-.178 1.246-.177 2.492-.533 3.56-.711 1.602 4.09 4.628 7.468 8.9 9.247 4.985 2.133 10.503 1.422 14.953-1.067-1.068-4.801-4.45-8.891-9.256-11.203 1.958-.355 3.916-.889 5.874-1.245.534 4.802 3.026 9.247 7.476 12.092 1.246.711 2.492 1.423 3.738 1.778-2.314.356-4.45 1.245-6.408 2.49-5.162 3.023-8.366 8.179-9.256 13.692-27.769-.534-56.25.355-81.705 3.734zm108.94 8.891c3.916 4.623 3.56 9.958 3.56 9.958s-1.958-6.402-6.231-10.314c-2.492-2.311-5.518-3.734-7.476-4.445l-2.67-.889c.178 0 1.958.177 4.094.889 2.848.711 6.587 2.134 8.723 4.801zm20.826-.889c3.916 4.445 3.916 10.847 3.916 10.847s-1.78-7.291-6.408-11.025c-1.78-1.423-3.916-2.667-5.696-3.379-2.492-1.244-4.45-1.778-4.45-1.778s3.738.356 7.298 1.778c1.958.712 3.916 1.956 5.34 3.557zm22.785 2.134c3.56 5.156 3.56 10.846 3.56 10.491 0-.178-1.246-7.291-6.942-11.203-2.848-1.956-5.34-3.556-6.942-4.623-1.78-1.067-2.848-1.6-2.848-1.6.178 0 2.848.533 5.874 1.6 2.67 1.245 5.696 3.023 7.298 5.335zm19.581 1.244c4.806 5.157 4.628 11.558 4.628 11.558s-.712-5.69-7.12-11.558c-3.56-3.378-6.765-4.979-8.723-5.868-1.424-.533-2.314-.711-2.314-.711s1.424.178 3.382.889c3.026.889 7.121 2.667 10.147 5.69zm25.633 11.914s-2.137-6.757-7.655-11.38c-3.738-3.201-6.942-4.801-8.722-5.513-.712-.355-1.246-.533-1.246-.533s.712.178 1.958.533c2.67.889 7.654 2.668 11.036 6.402 4.629 5.334 4.629 10.491 4.629 10.491zm16.732-7.468c4.45 6.223 4.272 11.202 4.272 11.202s-1.068-6.935-7.298-12.091c-6.408-5.157-11.926-6.402-11.926-6.402s10.502 1.067 14.952 7.291zm-17.623-8.18c-.178 2.312 0 4.446.534 6.757-1.068-1.956-2.314-3.556-3.916-5.157-1.068-.889-2.136-1.6-3.204-2.311 1.246 0 2.492.178 3.56.178l4.629.355c-.712 0-1.069 0-1.603.178zm31.33 9.424c-4.451-2.133-7.655-4.623-9.613-6.223.89 0 2.136.178 4.272.355 6.053.712 14.241 5.157 14.241 5.157s-3.026-3.556-9.79-5.868c-3.917-1.422-6.765-1.778-8.545-1.778 3.382-1.067 10.147-2.489 15.131 1.067 6.586 4.801 8.366 9.246 8.366 9.246s-6.764 1.601-14.062-1.956z"/><path d="M116.537 332.403c-2.314 5.69-1.424 11.736 1.602 16.359 5.518-1.423 10.147-5.335 12.461-10.847 2.314-5.69 1.424-11.736-1.602-16.359-5.519 1.244-10.325 5.156-12.461 10.847zm4.094-.89c-3.026 5.868-1.958 14.582-1.958 14.582s-4.094-5.157-.89-12.803c3.026-7.469 9.969-9.958 9.969-9.958s-3.917 2.311-7.121 8.179zm30.617-17.604c-2.314 5.691-1.424 11.736 1.602 16.36 5.519-1.423 10.147-5.335 12.461-10.847 2.314-5.69 1.424-11.736-1.602-16.359-5.518 1.244-10.147 5.156-12.461 10.846zm4.629 0c-2.137 4.801-1.959 13.692-1.959 13.692s-2.67-6.045-.89-12.091c1.781-6.224 8.901-9.602 8.901-9.602s-3.916 3.023-6.052 8.001zm-22.251 13.692c-.534 6.046 1.958 11.559 6.23 15.293 4.806-2.845 8.188-8.002 8.722-14.048.534-6.046-1.958-11.558-6.23-15.292-4.984 3.023-8.366 8.002-8.722 14.047zm6.764 12.626s-4.984-6.046-4.984-12.092 6.052-12.092 6.052-12.092-2.492 3.023-3.738 9.425c-1.246 6.401 2.67 14.759 2.67 14.759zm80.637-45.878c0 .178-.178.178-.178.178l.178-.178zM-4.15 61.585A19.82 19.82 0 0 0 .12 64.43c4.45 2.312 8.545 2.134 9.257 2.134.89.178 7.476 1.067 14.24-3.378 9.79-6.402 9.256-18.493 9.256-19.027v-.711l-.712-.178c-.178 0-.89-.178-2.314-.356h-.356c-.534-4.445-2.136-9.957-4.45-10.49h-.178c-.178-1.245-.534-2.49-.89-3.557-1.246-3.734-2.492-5.868-3.916-6.046h-.178c-.534 0-1.068.178-1.602.356-1.424-3.735-3.382-7.469-5.34-7.646-2.314-.178-4.806 3.378-6.586 6.934-.534-.355-1.068-.71-1.602-.71h-.178c-2.137 0-4.807 4.8-6.053 8.89-2.314.356-4.45 5.512-5.518 9.78h-3.38l-.178.711c-.356 1.067-2.314 12.981 6.408 20.45zm-1.425-18.493c2.492.534 5.874 1.6 8.9 4.09.179.178.535.356.713.711.178.178.356.356.356.534.178.178.178.355.356.355.356.356.712.89.89 1.245.178.178.178.534.356.712.356.533.712 1.066.89 1.778 1.068 2.667 1.602 5.512 1.602 8.002-1.246-1.956-3.56-5.157-5.697-7.825-3.026-3.912-5.34-6.223-5.34-6.223s4.806 9.069 7.833 13.158c1.602 2.134 2.314 3.379 2.848 3.912-2.314-1.422-6.765-4.445-9.79-9.068-3.205-4.98-4.45-9.78-4.807-11.38h.89zm25.277-18.137c1.068.356 2.67 4.445 3.204 8.002-.712.355-1.424.889-2.136 1.6 0-.889 0-1.956-.178-3.023-.356-2.311-.89-3.734-.89-3.734s-.356 5.868-.712 7.824c0 .356-.178.89-.178 1.067l-.178.178c-.534.711-1.068 1.244-1.424 1.956a8.653 8.653 0 0 1-.534-1.245s-.534-4.268.356-7.29c.89-2.134 1.958-4.446 2.67-5.335-.178 0 0 0 0 0zm-5.696 24.183c-.534.711-1.068 1.245-1.424 1.956-.534.711-.89 1.423-1.246 2.312-.534-1.245-1.246-3.912-.89-5.513.356-1.6 1.068-2.489 1.424-3.023.534.89 1.424 2.49 2.136 4.268zm-4.094-6.58c-.356-1.422-.712-3.911.178-5.867 1.068-2.845 1.958-2.845 1.958-2.845.356.178.534.533.89 1.067.178.178.178.355.356.533.356.534.712 1.245.89 1.956.534 1.067.89 2.134 1.246 3.379 0 .178.178.533.178.711-.178.533-.534.89-.712 1.245l-.534 1.067c-.356-1.245-.712-2.846-1.246-3.912-.712-1.956-1.602-3.735-1.602-3.735s.534 3.379.712 5.335c0 .533.178 1.067.178 1.422-.534-.355-.89-.71-1.424-.71-.356.177-.712.177-1.068.355zm21.004 2.846c0 2.667-.89 11.558-8.366 16.36-3.738 2.489-7.476 3.022-9.968 3.2 2.492-1.067 6.764-3.023 9.256-6.046 3.916-4.8 5.162-9.424 5.162-9.424s-3.382 5.868-8.01 9.069c-1.958 1.422-4.094 2.489-5.696 3.2 1.958-1.244 4.272-3.2 5.874-5.512 2.67-3.912 2.67-5.157 2.67-5.157s-4.628 6.046-7.654 8.002c-1.424.89-2.314 1.245-3.026 1.6.356-2.49 1.246-5.334 2.67-7.824a7.9 7.9 0 0 1 1.424-1.956l.178-.177c.356-.356.712-.712.89-1.067l.534-.534c.178-.178.356-.355.534-.355.178-.178.534-.356.712-.534 3.382-2.134 6.764-2.845 9.434-3.023h2.136c.356 0 .89.178 1.246.178zm-3.56-2.134c-.89 0-1.78.178-2.67.356 0-.89.178-2.134 0-3.2-.178-2.135-.712-3.557-.712-3.557s-.356 4.445-.89 6.045c-.178.534-.178.89-.356 1.245l-3.204 1.067c.178-1.422.534-4.267 1.424-6.58 1.424-3.2 3.382-3.911 3.382-3.911.178 0 .356.355.712.711 1.068 1.245 1.958 4.801 2.314 7.824zM16.498 24.777c-.534.534-.89 1.067-1.424 1.6-.534-1.956-1.78-4.623-1.78-4.623s.356 4.446.356 6.58c-.534.71-.89 1.422-1.246 2.133-.534-1.244-1.602-4.623-1.602-7.112 0-1.957.534-3.735.89-4.98.356-.177.534-.355.89-.355 1.246 0 2.848 3.378 3.916 6.757zm-9.612 1.778c1.068 1.6 2.136 3.912 2.67 6.046a4.2 4.2 0 0 0-1.424 1.6c-.178.356-.534.712-.712 1.067 0-.889 0-1.778-.178-2.667-.356-2.667-1.424-4.979-1.424-4.979s0 5.157-.356 7.29c-.178.89-.356 1.423-.534 1.957-.178-.178-.178-.356-.356-.534-.356-.711-.89-1.422-1.425-2.134-.356-1.422-.534-3.734.357-5.69.89-2.134 1.602-3.2 1.958-3.734l.178.178a8.09 8.09 0 0 1 1.246 1.6zm-7.12 6.935c.711.534 1.78 1.778 2.847 3.556.534 1.067 1.247 2.134 1.603 3.201v.178a8.66 8.66 0 0 1 .712 1.956c.178.356.356.89.356 1.245 0 .178.178.533.178.711 0 .711 0 1.423-.178 1.956l-.178-.178c-.712-.533-1.246-1.067-1.958-1.6-1.247-.89-2.493-1.6-3.739-2.134-.178-1.245-.356-3.2-.534-5.69l-.178-3.912c.178.178.534.355 1.068.711z"/><path d="M7.242 65.497s-.89 8.002-.356 15.47c.534 7.469 7.298 20.45 7.298 20.45l2.848-2.49S10.98 88.614 10.09 81.145c-.89-7.468 0-15.114 0-15.114l-2.848-.534z"/><path d="M8.666 77.767s-1.246-4.268-5.34-6.58c-4.273-2.311-7.299-3.022-7.299-3.022s1.068 6.579 3.56 8.18c2.493 1.422 4.985 1.422 4.985 1.422s-2.67.889-3.382 3.023c-.713 2.134-.713 4.09-.713 4.09s4.629-2.846 6.409-4.98l1.78-2.133zm278.401 252.502l.178.711h.712c.178 0 .89 0 2.136-.356h.356c1.602 3.735 4.45 7.824 6.586 8.002 1.78 3.379 4.984 7.291 6.942 7.113h.178c.534-.178.89-.534 1.424-.889 2.137 3.023 4.985 5.69 6.943 5.157 1.78-.356 3.026-4.09 3.56-7.647.534.178 1.068.178 1.424.178h.178c1.246-.355 2.136-2.489 2.67-6.046.178-1.067.178-2.133.178-3.378h.178c1.958-.889 2.492-6.046 2.314-10.136h.356c1.246-.355 1.958-.533 1.958-.711l.712-.356-.178-.711c0-.533-1.602-11.38-11.214-15.47-6.586-2.845-12.461-1.067-13.173-.711-.712.177-4.272.711-7.832 3.378-1.246.889-2.314 1.956-3.382 3.379-6.942 7.824-3.204 18.137-3.204 18.493zm3.916-1.956c.178-1.601.534-5.868 2.492-11.025 1.78-4.623 5.518-8.18 7.298-9.602-.356.711-.89 1.956-1.958 4.09-1.958 4.089-4.806 12.98-4.806 12.98s1.78-2.311 3.738-6.401c1.424-2.667 2.848-6.046 3.738-8.002.356 2.134.356 4.801-.178 7.468-.178.534-.356 1.067-.534 1.779 0 .177-.178.533-.178.711-.178.356-.356.889-.712 1.245 0 .177-.178.355-.178.355-.178.178-.178.356-.356.534-.178.178-.356.533-.534.711-2.314 2.845-5.162 4.268-7.298 5.157-.178-.178-.356 0-.534 0zm25.989 11.914c-.534-.712-2.136-2.49-3.204-4.446-1.424-2.667-1.602-6.579-1.602-6.579 0-.356.178-.711.178-1.067l1.602 1.6.178.178c.178.356.178.534.356 1.067.534 1.6 1.958 6.935 1.958 6.935s.356-1.423.178-3.556c0-1.067-.178-1.956-.356-2.846.712.534 1.424.89 2.136 1.067.178 3.379-.534 7.291-1.424 7.647zm-10.324-16.538c-.356-.355-1.068-1.066-1.781-2.489-.534-1.423-.356-3.912 0-5.157.535.712.891 1.245 1.425 1.778l1.602 1.601c-.178 1.956-.712 3.556-1.246 4.267zm0 2.49c.356-.178.89-.356 1.246-.889 0 .355 0 .711.178 1.245.178 1.778.178 4.978.178 4.978s.534-1.778.89-3.556c.178-.889.356-2.489.356-3.556.178.355.356.533.534.889.178.355.534.711.712 1.067 0 .178 0 .533-.178.711-.178 1.067-.356 2.134-.712 3.201-.178.711-.356 1.244-.534 1.778 0 .178-.178.356-.178.533-.178.534-.356.889-.712 1.067 0 0-.89 0-2.314-2.134-.89-1.6-1.069-4.089-1.069-5.334h1.603zm16.02-5.512c-.534.177-1.068.177-1.78.355-2.314.356-5.518.178-8.9-1.245-.178-.177-.534-.177-.712-.355-.178 0-.356-.178-.534-.356-.178-.178-.356-.178-.534-.355-.356-.178-.712-.534-1.068-.712l-.178-.178-1.602-1.6c-1.781-1.956-2.848-4.445-3.739-6.579.712.178 1.602.355 3.027.889 3.026 1.245 8.188 5.868 8.188 5.868s-.178-1.067-3.204-4.09c-1.602-1.778-4.094-3.023-6.053-3.912 1.603.356 3.561 1.067 5.697 1.956 4.628 2.134 8.544 6.757 8.544 6.757s-1.958-3.912-6.23-7.646c-2.848-2.312-6.942-3.556-9.257-3.912 2.137-.356 5.697-.356 9.435 1.245 7.298 3.2 9.612 10.847 9.968 13.336-.178.178-.534.356-1.068.534zm-2.314 9.602a2.465 2.465 0 0 1-.534.711s-1.78-.356-3.56-2.845c-1.246-1.956-1.958-4.268-2.314-5.69 1.068.355 2.136.355 3.026.533.178.178.356.534.534 1.067.534 1.245 1.602 5.335 1.602 5.335s.178-1.423 0-3.201c-.178-1.067-.356-2.134-.534-2.845.89 0 1.78 0 2.492-.178.178 2.312-.178 5.512-.712 7.113zm-8.366 17.604c-.178 0-.534 0-.89-.178-.534-.889-1.246-2.49-1.602-4.268-.356-2.311 0-5.512.178-6.757.534.534.89 1.067 1.424 1.778.356 1.956.712 6.046.712 6.046s.712-2.667.89-4.445c.534.355 1.068.889 1.424 1.244-.356 2.846-1.246 6.224-2.136 6.58zm-7.655-4.979s0 .178 0 0c-.534-.356-1.424-1.245-2.492-3.023-1.068-1.6-1.246-3.734-1.246-4.979.356-.711.712-1.423.89-2.134 0-.178.178-.355.178-.533.178.355.534.889.712 1.6.712 1.956 1.602 6.579 1.602 6.579s.535-2.311.535-4.623c0-.889-.179-1.778-.179-2.489.357.355.535.533.891.711.534.533 1.068.889 1.602 1.067-.178 1.956-.712 4.09-1.424 5.69-.356 1.067-.712 1.778-1.069 2.134zm-7.298-6.402l-.356-3.378c-.356-2.134-.356-4.09-.534-5.157a18.63 18.63 0 0 0 3.026-2.489c.534-.534 1.068-1.067 1.602-1.779l.178-.177c.178.533.356 1.067.534 1.778v.711c0 .356 0 .711-.178 1.245 0 .533-.178 1.245-.356 1.778v.178c-.178 1.067-.534 2.134-.89 3.201-.712 1.956-1.424 3.022-1.958 3.734-.534.178-.89.355-1.068.355z"/><path d="M304.333 305.73s.534-9.425-2.492-18.315c-3.026-8.891-6.764-14.048-6.764-14.048l-1.958 1.422s5.518 10.136 6.764 15.826c1.246 5.69.89 15.115.89 15.115h3.56zM68.298 269.455s22.606-12.625 55.181-8.535c32.576 4.089 42.01 8.357 42.01 8.357s-46.46-3.734-69.6-1.422c-23.32 2.489-27.591 1.6-27.591 1.6z"/></g></svg>