<svg width="375" height="151" viewBox="0 0 375 151" fill="none" xmlns="http://www.w3.org/2000/svg"><g clip-path="url(#a)"><path d="M620.692-.41h-863.461v151.82h863.461V-.411z" fill="#053B61"/><path d="M688.312-.72h-931.081v.925h931.081v-.924zm0 3.083h-931.081v.924h931.081v-.924zm0 3.081h-931.081v.925h931.081v-.925zm0 3.082h-931.081v.924h931.081v-.924zm0 3.081h-931.081v.925h931.081v-.925zm0 3.083h-931.081v.924h931.081v-.925zm0 3.08h-931.081v.925h931.081v-.924zm0 3.082h-931.081v.925h931.081v-.925zm0 3.082h-931.081v.924h931.081v-.924zm0 3.082h-931.081v.924h931.081v-.924zm0 3.081h-931.081v.925h931.081v-.925zm0 3.082h-931.081v.924h931.081v-.924zm0 3.081h-931.081v.925h931.081v-.925zm0 2.98h-931.081v.924h931.081v-.925zm0 3.081h-931.081v.925h931.081v-.925zm0 3.082h-931.081v.924h931.081v-.924zm0 3.081h-931.081v.925h931.081v-.925zm0 3.082h-931.081v.924h931.081v-.924zm0 3.082h-931.081v.924h931.081v-.924zm0 3.082h-931.081v.924h931.081v-.925zm0 3.08h-931.081v.925h931.081v-.924zm0 3.082h-931.081v.925h931.081v-.924zm0 3.082h-931.081v.925h931.081v-.925zm0 3.082h-931.081v.924h931.081v-.924zm0 3.081h-931.081v.925h931.081v-.925zm0 3.083h-931.081v.924h931.081v-.925zm0 3.08h-931.081v.925h931.081v-.924zm0 2.98h-931.081v.924h931.081v-.924zm0 3.081h-931.081v.925h931.081v-.925zm0 3.082h-931.081v.924h931.081v-.924zm0 3.082h-931.081v.924h931.081v-.924zm0 3.081h-931.081v.925h931.081v-.925zm0 3.082h-931.081v.924h931.081v-.924zm0 3.081h-931.081v.925h931.081v-.925zm0 3.082h-931.081v.925h931.081v-.925zm0 3.082h-931.081v.924h931.081v-.924zm0 3.081h-931.081v.925h931.081v-.925zm0 3.082h-931.081v.924h931.081v-.924zm0 3.082h-931.081v.924h931.081v-.924zm0 3.081h-931.081v.925h931.081v-.925zm0 2.979h-931.081v.925h931.081v-.925zm0 3.082h-931.081v.924h931.081v-.924z" fill="#3C7AA2"/><path d="M311.837-519.769h-1.95V606.876h1.95V-519.769z" fill="#3C7AA2"/><path d="M262.793-517.712l-1.942.17 98.088 1122.364 1.942-.17-98.088-1122.364z" fill="#3C7AA2"/><path d="M214.105-511.352l-1.92.339 195.373 1109.52 1.92-.339-195.373-1109.52z" fill="#3C7AA2"/><path d="M166.148-500.819l-1.884.505 291.26 1088.227 1.883-.505L166.148-500.819z" fill="#3C7AA2"/><path d="M119.327-486.124l-1.832.667L502.389 573.252l1.833-.668L119.327-486.124z" fill="#3C7AA2"/><path d="M73.93-467.399l-1.766.824L547.768 554.504l1.767-.825L73.931-467.399z" fill="#3C7AA2"/><path d="M30.336-444.796l-1.688.975 562.711 975.675 1.689-.976L30.336-444.796z" fill="#3C7AA2"/><path d="M-11.063-418.48l-1.598 1.119 645.543 922.948 1.598-1.12L-11.063-418.48z" fill="#3C7AA2"/><path d="M-50.123-388.626l-1.493 1.255 723.422 863.01 1.493-1.255-723.422-863.01z" fill="#3C7AA2"/><path d="M-86.349-355.477l-1.378 1.38L708.06 442.554l1.378-1.38-795.787-796.651z" fill="#3C7AA2"/><path d="M-119.564-319.279l-1.254 1.495 862.075 724.208 1.253-1.495-862.074-724.208z" fill="#3C7AA2"/><path d="M-149.51-280.406l-1.118 1.599 921.947 646.244 1.118-1.599-921.947-646.244z" fill="#3C7AA2"/><path d="M-175.974-238.957l-.974 1.69 974.616 563.323.975-1.691-974.617-563.322z" fill="#3C7AA2"/><path d="M-198.73-195.418l-.824 1.769 1019.971 476.12.824-1.769-1019.971-476.12z" fill="#3C7AA2"/><path d="M-217.596-150.059l-.667 1.834 1057.56 385.312.667-1.834-1057.56-385.312z" fill="#3C7AA2"/><path d="M-232.44-103.196l-.504 1.886L854.102 190.265l.505-1.885L-232.44-103.196z" fill="#3C7AA2"/><path d="M-243.168-55.248l-.339 1.922L864.811 142.259l.338-1.922L-243.168-55.248z" fill="#3C7AA2"/><path d="M-249.63-6.547l-.17 1.945L871.347 93.592l.17-1.944L-249.63-6.547z" fill="#3C7AA2"/><path d="M873.522 42.63H-251.901v1.951H873.522v-1.952z" fill="#3C7AA2"/><path d="M871.294-6.337L-249.852 91.591l.169 1.944L871.464-4.393l-.17-1.944z" fill="#3C7AA2"/><path d="M864.839-55.298L-243.478 140.625l.339 1.922L865.178-53.376l-.339-1.922z" fill="#3C7AA2"/><path d="M854.081-103.143L-232.965 188.433l.504 1.885L854.586-101.258l-.505-1.885z" fill="#3C7AA2"/><path d="M839.264-149.944l-1057.561 385.2.667 1.834 1057.56-385.2-.666-1.834z" fill="#3C7AA2"/><path d="M820.332-195.421L-199.527 280.924l.824 1.769L821.156-193.653l-.824-1.768z" fill="#3C7AA2"/><path d="M797.725-238.779L-177.004 324.43l.975 1.691L798.7-237.089l-.975-1.69z" fill="#3C7AA2"/><path d="M771.417-280.132l-922.172 645.905 1.118 1.599 922.172-645.905-1.118-1.599z" fill="#3C7AA2"/><path d="M741.301-319.308l-862.074 724.32 1.253 1.495 862.075-724.32-1.254-1.495z" fill="#3C7AA2"/><path d="M708.059-355.405l-795.786 796.65 1.378 1.38 795.787-796.65-1.379-1.38z" fill="#3C7AA2"/><path d="M671.926-388.51L-51.609 474.5l1.494 1.255 723.534-863.01-1.493-1.255z" fill="#3C7AA2"/><path d="M632.61-418.546L-12.483 504.627l1.597 1.119 645.093-923.173-1.597-1.119z" fill="#3C7AA2"/><path d="M591.342-444.797L28.742 530.99l1.69.976L593.03-443.821l-1.688-.976z" fill="#3C7AA2"/><path d="M547.462-467.536L72.533 553.88l1.767.824L549.23-466.713l-1.767-.823z" fill="#3C7AA2"/><path d="M502.341-486.075L117.559 572.633l1.832.667L504.173-485.408l-1.832-.667z" fill="#3C7AA2"/><path d="M456.07-500.705L163.797 587.296l1.883.507L457.953-500.198l-1.883-.507z" fill="#3C7AA2"/><path d="M407.817-511.365L212.106 598.155l1.92.339 195.711-1109.52-1.92-.339z" fill="#3C7AA2"/><path d="M359.387-517.61L260.444 604.64l1.942.172 98.943-1122.251-1.942-.171z" fill="#3C7AA2"/><path d="M257.146 107.652V78.787l-25.652-5.958h-18.675V27.735l-4.207-2.26-5.439-13.765h-3.694l-5.438 13.765-4.207 2.26v12.121h-25.858s-.102 0-.102-.103c0 0-.103 0-.103-.103l-.41-4.828h-3.284l-.41 4.828s-.103 0-.103.103c0 0-.102 0-.102.103H138.94V26.399l-6.567-3.184V11.3l-5.849-4.315-5.849 4.314v11.915l-6.567 3.185v13.457H96.972v7.601h-7.9v11.094h-7.389v10.17h-7.695V78.89h-9.543V61.016h-5.233V37.801l-5.028-2.362-15.186-20.544-15.186 20.544-5.028 2.362v23.215H13.55V78.89H-137.8v40.473H5.547s4.412 1.335 9.543 3.698c5.028 2.362 8.721 4.006 15.802 3.903 7.08-.102 9.645-2.054 14.878-4.314 3.796-1.644 7.49-2.876 10.671-3.287h6.875c2.77.205 5.849.822 10.056 2.876 5.951 2.876 9.44 5.033 17.752 4.725 8.31-.411 13.031-3.595 14.57-4.417 1.334-.719 6.464-2.67 9.953-3.184h7.696c2.052.308 5.849.924 9.543 2.773 5.233 2.671 9.85 4.828 16.109 4.828 6.26 0 12.416-1.746 16.315-4.314 2.36-1.541 5.746-2.773 9.748-3.287h8.414c7.388 1.027 12.724 5.136 16.315 6.163 3.592.925 11.903 2.876 19.086.103 7.182-2.774 10.671-5.239 14.878-5.958.41-.103.616-.103.923-.205h11.288c2.154.513 4.514 1.438 6.874 2.876 6.26 4.006 15.289 4.622 15.289 4.622v-19.209h-10.979v-.102z" fill="#053B61"/><path d="M270.177 129.018l-2.36.102c-.41 0-9.645-.719-16.315-5.033-1.744-1.13-3.694-1.952-5.951-2.568H234.88c-.308.103-.616.103-.924.206-2.155.41-4.207 1.335-7.08 2.67-2.052.925-4.412 2.055-7.388 3.185-5.541 2.157-12.416 2.157-20.419 0-1.539-.411-3.078-1.233-4.925-2.158-2.976-1.438-6.67-3.287-10.98-3.903h-8.106c-3.386.514-6.464 1.541-8.722 2.979-4.515 2.876-11.082 4.622-17.341 4.622h-.102c-7.08 0-12.416-2.67-17.136-5.033-3.284-1.643-6.772-2.26-8.619-2.568h-7.388c-3.079.514-7.799 2.363-9.133 2.979l-.615.308c-2.155 1.13-7.08 3.904-14.776 4.314-8.106.411-12.108-1.643-17.239-4.108-.512-.206-1.026-.514-1.641-.822-4.105-1.952-6.875-2.465-9.235-2.671h-6.567c-2.77.411-6.157 1.438-9.953 3.082-.924.411-1.847.821-2.668 1.232-3.694 1.747-6.875 3.185-13.134 3.287-7.593.103-11.698-1.746-16.726-4.108-4.104-1.952-7.9 4.314-8.927 4.006h-145.192V76.63H11.396V58.757h5.233V36.26l5.746-2.774 16.623-22.599 16.622 22.6 5.747 2.773v22.495H66.6V76.63h5.13V66.46h7.696V56.292h7.388V45.197h7.9v-7.601h17.137V24.859l6.567-3.185V10.067l8.106-5.855 8.106 5.855v11.607l6.567 3.185v12.737h16.417l.411-5.033h7.388l.41 5.033h21.651V26.502l4.72-2.568 5.746-14.38h6.67l5.746 14.38 4.72 2.568v44.273h16.725l27.602 6.369v28.453h10.877v23.421h-.103zm-95.324-11.916h8.824c5.131.719 9.235 2.774 12.519 4.417 1.641.822 3.078 1.541 4.104 1.849 7.08 1.849 13.032 1.952 17.752.103 2.873-1.13 5.13-2.157 7.08-3.082 3.078-1.438 5.438-2.568 8.208-2.979.206 0 .411-.102.616-.102l.308-.103h11.903l.308.103a27.439 27.439 0 0 1 7.49 3.184c3.797 2.465 8.927 3.595 11.8 4.006v-14.586h-10.876V80.533l-23.703-5.444h-20.625V29.07l-3.796-2.054-5.234-13.046h-.718l-5.233 13.046-3.796 2.054v12.943h-28.526l-1.642-.924-1.744.924h-23.293V27.632l-6.567-3.184V12.327l-3.694-2.671-3.693 2.67v12.122l-6.568 3.184v14.381H98.922v7.601H91.02v10.992h-7.388v10.169h-7.49v10.17H62.186V63.07h-5.233V39.034l-4.207-2.054-13.75-18.593L25.352 36.98l-4.207 2.054v24.14H15.91v17.873H3.187v36.055h2.668l.307.103c.206.103 4.618 1.438 9.851 3.8 4.925 2.26 8.209 3.801 14.776 3.698 5.335-.102 7.695-1.232 11.287-2.876.82-.411 1.744-.821 2.77-1.232 4.207-1.849 8.004-2.979 11.287-3.493h7.388c2.668.206 6.054.822 10.877 3.184.513.309 1.129.514 1.642.822 4.925 2.363 8.106 4.006 15.083 3.698 6.773-.308 10.877-2.671 12.929-3.698.308-.205.616-.308.821-.411 1.437-.719 6.772-2.773 10.569-3.389h8.311c2.155.308 6.259 1.027 10.159 2.978 5.541 2.774 9.542 4.623 15.186 4.623 5.541 0 11.287-1.438 15.083-3.904 2.771-1.746 6.568-3.081 10.672-3.697v-.206z" fill="#053B61"/><path d="M59.212 39.753h-3.284v4.828h-2.667v-4.828H48.13v4.828h-2.668v-4.828h-5.13v4.828h-2.566v-4.828h-5.233v4.828h-2.565v-4.828h-5.13v4.828H22.17v-4.828h-3.284V58.86h40.326V39.753zm0-2.157l-5.028-2.363L38.998 14.69 23.914 35.233l-5.028 2.363h40.326zm56.435 23.523c.205.103.205.103.308.103.41.205.821.41 1.231.719.513-1.644 1.847-2.98 3.694-3.904.103 0 .205-.102.308-.102.821-.309 1.847-1.644 2.257-2.157l1.437-2.158 1.436 2.158c.411.513 1.437 1.849 2.258 2.157.103 0 .205.102.308.102a6.865 6.865 0 0 1 3.694 3.904c.41-.308.718-.514 1.231-.72.103 0 .205-.102.205-.102.513-.205 1.334-1.13 1.745-1.644l1.436-2.157 1.437 2.157c.102.206.308.514.615.72V28.247h-3.796v5.547h-1.232v-5.547h-4.104v5.547h-1.231v-5.547h-4.105v5.547h-1.231v-5.547h-4.104v5.547h-1.232v-5.547h-4.104V59.68c.41.514 1.026 1.233 1.539 1.438zm16.726-48.484h-11.698v8.834h11.698v-8.834zm.102-1.541l-5.849-4.212-5.951 4.212h11.8zm6.567 15.1l-6.567-3.184h-11.8l-6.567 3.184h24.934zm26.987 16.949c0 .719-.308 1.335-.616 1.746v.411l5.849 18.9.102.206v2.979h16.623V39.65h-24.011c1.232.822 2.053 2.055 2.053 3.493zm17.033-1.336h1.231V45.3h-1.231v-3.492zm-7.696 0h1.231V45.3h-1.231v-3.492zm-7.696 0h1.232V45.3h-1.232v-3.492zm2.053 25.681v-2.774l-5.952-19.106h-3.899l-5.951 19.106v13.149h15.904l-.102-10.375zm-10.877 0v7.806h-1.847v-10.58a.92.92 0 0 1 .923-.924.92.92 0 0 1 .924.924v2.774zm3.796 0v7.806h-1.846v-10.58a.92.92 0 0 1 .923-.924.92.92 0 0 1 .923.924v2.774zm3.9 0v7.806h-1.847v-10.58a.92.92 0 0 1 .923-.924.92.92 0 0 1 .924.924v2.774zm-22.677-1.336c0 .514-.103.925-.308 1.336h8.517v-2.979l.102-.206 5.849-18.9v-.411c-.308-.411-.616-1.027-.616-1.746 0-1.336.821-2.671 2.053-3.39h-18.573v21.777c1.95.924 2.976 2.67 2.976 4.52zm8.516-24.345h1.232V45.3h-1.232v-3.492zm-7.695 0h1.231V45.3h-1.231v-3.492zm68.133-12.531h-2.873v6.06h-1.334v-6.06h-4.002v6.06h-1.334v-6.06h-4.002v6.06h-1.334v-6.06h-4.002v6.06h-1.333v-6.06h-2.874v38.212h23.088V29.276zm-4.207-3.904l-5.541-13.662h-3.694l-5.439 13.662-4.207 2.363h23.088l-4.207-2.363z" fill="#3C7AA2"/><path d="M257.146 107.652V85.464h-5.541v22.188h-1.231V85.464h-20.317v22.188h-1.334V85.464h-21.856v22.188h-1.539V85.464h-20.009v22.188h-1.231V85.464h-5.746v-1.233h5.746V80.02h-5.746v27.632h-5.439V91.525h-22.266v16.127h-3.386V94.503H120.47v13.149h-1.231V93.271h3.283v-3.082c0-.719.616-1.438 1.437-1.438.718 0 1.436.616 1.436 1.438v3.082h7.696v-3.082c0-.719.616-1.438 1.436-1.438.719 0 1.437.616 1.437 1.438v3.082h8.209v-9.45h-38.171v5.033h8.824v18.9h-1.231V90.189H73.988v17.565h-1.232v-18.9H96.46l10.159-12.943v-7.396c-.411-.514-.719-1.13-.924-1.849 0-.205-.103-.308-.103-.514 0-2.054 1.334-3.903 3.387-4.93.102 0 .205-.103.205-.103.513-.205 1.334-1.13 1.744-1.644l1.231-1.849v-17.77H96.767v7.601h-7.9v11.094h-7.389v10.17h-7.696V78.89H66.19v28.864h-1.95V78.89h-2.975v28.864h-1.54V77.349h4.516V61.016h-5.233v6.575h-3.49v-6.575h-5.643v6.575h-3.488v-6.575h-5.644v6.575h-3.489v-6.575H31.61v6.575h-3.49v-6.575h-5.643v6.575h-3.49v-6.575h-5.232V77.35h4.515v30.404h-1.54V78.89h-2.975v28.864h-1.54V78.89H-137.8v32.973h405.822v-4.109h-10.877v-.102zM106.515 41.807h1.231V45.3h-1.231v-3.492zm-4.925 0h1.231V45.3h-1.231v-3.492zm-2.976 7.5h1.231v3.492h-1.231v-3.493zm-4.925 0h1.231v3.492h-1.231v-3.493zm-2.463 11.196h1.231v3.492h-1.23v-3.492zm-4.925 0h1.231v3.492h-1.231v-3.492zm-2.77 10.17h1.23v3.492h-1.23v-3.493zm-4.926 0h1.231v3.492h-1.23v-3.493zm-2.77 10.168h1.23v3.493h-1.23v-3.493zm-50.176 2.98h-2.463v-5.034h2.462v5.033zm5.746 23.831H29.66V86.286h1.745v21.366zm16.93 0h-1.744V86.286h1.744v21.366zM54.8 83.82h-2.463v-5.033H54.8v5.033zm17.34.514h-1.23v-3.493h1.23v3.493zm9.236 22.599H78.4v-5.958h2.976v5.958zm0-13.56v5.446H78.4V92.86h2.976v.514zm6.772 13.56h-2.976v-6.061h2.976v6.061zm0-9.45v1.437h-2.976v-6.06h2.976v4.622zm6.772 9.45h-2.976v-5.958h2.976v5.958zm0-8.115h-2.976v-6.061h2.976v6.06zm6.67 8.115h-2.976v-5.958h2.976v5.958zm0-8.115h-2.976V92.86h2.976v5.958zm6.772 8.115h-2.976v-5.958h2.976v5.958zm0-8.115h-2.976V92.86h2.976v5.958zm17.957 8.834h-2.36v-3.39c0-.616.513-1.13 1.128-1.13a1.14 1.14 0 0 1 1.129 1.13v3.39h.103zm0-6.061h-2.36v-3.39c0-.616.513-1.13 1.128-1.13a1.14 1.14 0 0 1 1.129 1.13v3.39h.103zm4.72 6.061h-2.36v-3.39c0-.616.513-1.13 1.128-1.13a1.14 1.14 0 0 1 1.129 1.13v3.39h.103zm0-6.061h-2.36v-3.39c0-.616.513-1.13 1.128-1.13a1.14 1.14 0 0 1 1.129 1.13v3.39h.103zm3.591 6.061h-1.744V96.969h1.744v10.683zm4.412 0h-2.36v-3.39c0-.616.513-1.13 1.129-1.13a1.14 1.14 0 0 1 1.129 1.13v3.39h.102zm0-6.061h-2.36v-3.39c0-.616.513-1.13 1.129-1.13a1.14 1.14 0 0 1 1.129 1.13v3.39h.102zm4.618 6.061h-2.36v-3.39c0-.616.513-1.13 1.128-1.13a1.14 1.14 0 0 1 1.129 1.13v3.39h.103zm0-6.061h-2.36v-3.39c0-.616.513-1.13 1.128-1.13a1.14 1.14 0 0 1 1.129 1.13v3.39h.103zm10.363-2.979h-1.128v-2.876h1.128v2.876zm4.207 9.04h-2.052v-13.56h2.052v13.56zm4.105-9.04h-1.129v-2.876h1.129v2.876zm5.027 9.04h-2.052v-13.56h2.052v13.56zm3.284-9.04h-1.129v-2.876h1.129v2.876zm20.214 2.671h-1.949v-4.417h1.949v4.417zm0-7.807h-1.949V89.06h1.949v4.417zm10.877 7.807h-1.95v-4.417h1.95v4.417zm0-7.807h-1.95V89.06h1.95v4.417zm10.466 7.807h-1.95v-4.417h1.95v4.417zm0-7.807h-1.95V89.06h1.95v4.417zm6.362 7.807h-1.95v-4.417h1.95v4.417zm0-7.807h-1.95V89.06h1.95v4.417zm6.362 7.807h-1.95v-4.417h1.95v4.417zm0-7.807h-1.95V89.06h1.95v4.417zm10.774 7.807h-1.95v-4.417h1.95v4.417zm0-7.807h-1.95V89.06h1.95v4.417zm10.774 7.807h-1.95v-4.417h1.95v4.417zm0-7.807h-1.95V89.06h1.95v4.417z" fill="#3C7AA2"/><path d="M152.176 79.3v10.786h19.188V79.301h-19.188zm8.619 2.774h1.847v4.52h-1.847v-4.52zm-1.436-38.314c.103.102.103.205.205.307.103.103.103.206.205.309h3.9c.307-.309.615-.822.615-1.233 0-.822-.513-1.541-1.231-1.952h-.103c-.307-.103-.615-.41-.82-.719v-.616l-.411-4.828-.41 4.828v.616c-.206.308-.513.514-.821.72h-.103c-.718.41-1.231 1.13-1.231 1.95 0 .206.102.412.205.617zm45.969 36.26h-20.009v4.211h20.009V80.02zm51.715 0h-5.541v4.211h5.541V80.02zm-6.772 0h-20.214v4.211h20.214V80.02zm-43.404-3.493v7.807h21.856v-7.807h-4.309l-6.567-3.081-6.567 3.081h-4.413zm10.877.514c2.771 0 4.925 2.26 4.925 4.93h-9.953c.103-2.67 2.36-4.93 5.028-4.93z" fill="#3C7AA2"/><path d="M178.342 78.787h26.986v-3.8h5.746L216 72.828h-12.006l-25.652 5.958zm51.715-3.801v3.801h27.089l-25.652-5.958h-11.185l4.207 2.157h5.541zm-110.716-6.985v9.964h10.98V67.488h-10.98V68zm-2.565 1.952v-.514h-8.414v8.526h8.414v-8.012zm24.523 7.807v-8.321h-8.414v8.526h8.414v-.205zm-30.885-15.306c-.102.103-.205.103-.41.206h-.103c-.923.41-1.744 1.13-2.155 1.849a2.908 2.908 0 0 0-.41 1.54c0 .103 0 .309.103.411v.103c0 .103.102.206.205.411 0 .103.102.206.205.206l.103.102s0 .103.102.103l.308.308c.103.206.308.308.41.514h7.901c.103-.103.308-.308.411-.514.102-.102.205-.205.205-.308.103-.103.103-.205.205-.308.103-.103.103-.206.206-.308.102-.103.102-.206.102-.309 0-.102.103-.308.103-.41 0-.822-.308-1.541-.924-2.26-.205-.206-.41-.514-.718-.72-.308-.205-.616-.41-.923-.513 0 0-.103 0-.103-.103-.308-.102-.616-.308-.924-.513l-.615-.617-.411-.41a17.41 17.41 0 0 1-.513-.72l-.205.206c-.513.616-1.231 1.54-2.155 2.054zm28.218-.41c-.103-.103-.205-.206-.411-.309-.205-.205-.41-.41-.513-.616l-.205-.205c-.103-.103-.205-.206-.205-.309-.103-.102-.205-.205-.205-.308l-.411.617c-.102.102-.102.205-.205.308l-.41.41c-.308.309-.513.514-.924.72-.205.102-.308.205-.513.205-.103 0-.103 0-.103.103-.307.103-.615.308-.923.514-.308.205-.513.41-.718.718-.513.617-.924 1.439-.924 2.26 0 .206.103.514.205.72.103.102.103.205.206.308.102.102.102.205.205.308.102.103.205.205.205.308.103.205.308.308.41.513h7.799c.102-.102.308-.308.41-.513l.308-.308s0-.103.103-.103c.102-.103.205-.205.205-.41.103-.104.103-.206.205-.412v-.102c0-.103.103-.309.103-.411 0-.411-.103-.72-.205-1.028-.206-.513-.514-.924-.924-1.335l-.205-.205c-.205-.206-.411-.411-.718-.514-.206-.103-.308-.205-.513-.308h-.206c-.205-.103-.308-.103-.513-.206-.102-.205-.308-.308-.41-.41zm-19.291 3.492l.308.308c.205.206.308.308.41.514h9.543c.103-.206.308-.308.41-.514l.308-.308c.411-.514.821-1.13.821-1.746v-.411c0-.103 0-.308-.102-.411 0-.205-.103-.41-.206-.616-.102-.206-.205-.308-.307-.514-.103-.205-.206-.308-.308-.41l-.103-.103c-.102-.103-.205-.309-.308-.411-.102 0-.102-.103-.205-.103l-.308-.308c-.102-.103-.205-.103-.308-.206-.102-.102-.205-.102-.307-.205l-.616-.308s-.103 0-.205-.103l-.616-.308c-.923-.617-1.744-1.644-2.155-2.157-.205-.206-.205-.309-.205-.309s-.103.103-.205.309a5.84 5.84 0 0 1-1.129 1.232 7.191 7.191 0 0 1-1.026.822l-.616.308c-.102 0-.102.103-.205.103l-.616.308c-.102.103-.205.103-.307.206-.103.102-.206.102-.308.205l-.308.308c-.103 0-.103.103-.205.103a1.418 1.418 0 0 0-.308.41l-.103.104c-.102.102-.205.308-.307.41-.103.206-.206.309-.308.514-.103.205-.103.41-.206.616 0 .103-.102.308-.102.411v.411c-.103.72.308 1.233.718 1.849zm-13.647 16.538h38.171l-.103-.103-2.463-2.568h-32.937l-2.668 2.671zm162.329 31.227h-405.822v15.614h405.822v-15.614z" fill="#3C7AA2"/><path d="M5.136 112.48H3.7v16.538h1.436V112.48zm12.314 0h-1.437v16.538h1.436V112.48zm12.415 0H28.43v16.538h1.436V112.48zm12.416 0h-1.437v16.538h1.437V112.48zm12.313 0h-1.437v16.538h1.437V112.48zm12.416 0h-1.437v16.538h1.437V112.48zm12.416 0h-1.437v16.538h1.437V112.48zm12.416 0h-1.437v16.538h1.437V112.48zm12.313 0h-1.437v16.538h1.437V112.48zm12.415 0h-1.436v16.538h1.436V112.48zm12.416 0h-1.436v16.538h1.436V112.48zm12.416 0h-1.436v16.538h1.436V112.48zm12.313 0h-1.436v16.538h1.436V112.48zm12.416 0h-1.437v16.538h1.437V112.48zm12.416 0h-1.437v16.538h1.437V112.48zm12.415 0h-1.436v16.538h1.436V112.48zm12.314 0h-1.437v16.538h1.437V112.48zm12.415 0h-1.436v16.538h1.436V112.48zm12.416 0h-1.436v16.538h1.436V112.48zm12.416 0h-1.437v16.538h1.437V112.48zm12.313 0H251.4v16.538h1.436V112.48zm12.416 0h-1.437v16.538h1.437V112.48z" fill="#053B61"/><path d="M4.418 72.418h-48.227v35.234H4.418V72.418z" fill="#3C7AA2"/><path d="M5.957 70.878H4.418v36.774h1.54V70.878z" fill="#053B61"/><path d="M5.904 72.415v-1.54h-51.305v1.54H5.904z" fill="#053B61"/><path d="M4.418 70.878l-9.235-4.931h-16.11v4.93H4.418z" fill="#3C7AA2"/><path d="M5.957 70.877l-10.774-6.47v1.54l8.312 4.93h2.462zM.416 80.841c0-2.978-2.462-5.444-5.438-5.444-2.976 0-5.438 2.466-5.438 5.444H.416zm0 16.128h-3.18v5.341h3.18v-5.341zm0-14.176h-3.18v11.505h3.18V82.793z" fill="#053B61"/><path d="M310.811 75.192c17.454 0 31.603-14.165 31.603-31.638 0-17.473-14.149-31.638-31.603-31.638-17.455 0-31.604 14.165-31.604 31.638 0 17.473 14.149 31.638 31.604 31.638z" fill="#3C7AA2"/><path d="M310.81 72.418c15.925 0 28.834-12.923 28.834-28.864 0-15.942-12.909-28.865-28.834-28.865-15.924 0-28.833 12.923-28.833 28.865 0 15.941 12.909 28.864 28.833 28.864z" fill="#053B61"/><path d="M310.811 70.57c14.904 0 26.986-12.096 26.986-27.016 0-14.92-12.082-27.016-26.986-27.016-14.905 0-26.987 12.095-26.987 27.016 0 14.92 12.082 27.015 26.987 27.015z" fill="#3C7AA2"/><path d="M310.811 65.33c-12.006 0-21.754-9.758-21.754-21.776 0-12.019 9.748-21.777 21.754-21.777 12.005 0 21.753 9.758 21.753 21.777 0 12.018-9.748 21.777-21.753 21.777zm0-42.629c-11.493 0-20.83 9.348-20.83 20.853s9.337 20.75 20.83 20.75c11.492 0 20.727-9.348 20.727-20.75.102-11.505-9.235-20.853-20.727-20.853z" fill="#053B61"/><path d="M310.81 68.001c-13.441 0-24.421-10.99-24.421-24.447 0-13.457 10.98-24.448 24.421-24.448 13.442 0 24.422 10.991 24.422 24.448C335.232 57.01 324.252 68 310.81 68zm0-47.97c-12.928 0-23.394 10.477-23.394 23.42 0 12.943 10.466 23.42 23.394 23.42 12.929 0 23.395-10.477 23.395-23.42.103-12.84-10.466-23.42-23.395-23.42z" fill="#053B61"/><path d="M310.811 57.73c-7.799 0-14.161-6.37-14.161-14.176 0-7.807 6.362-14.176 14.161-14.176 7.798 0 14.16 6.369 14.16 14.176.102 7.807-6.259 14.175-14.16 14.175zm0-27.427c-7.286 0-13.237 5.958-13.237 13.25 0 7.294 5.951 13.252 13.237 13.252 7.285 0 13.236-5.958 13.236-13.251 0-7.293-5.849-13.251-13.236-13.251z" fill="#053B61"/><path d="M310.811 53.107c-5.336 0-9.646-4.315-9.646-9.553a9.64 9.64 0 0 1 9.646-9.656c5.335 0 9.542 4.314 9.542 9.656.103 5.238-4.207 9.553-9.542 9.553zm0-18.182c-4.72 0-8.62 3.904-8.62 8.629s3.9 8.628 8.62 8.628c4.72 0 8.619-3.903 8.619-8.628.102-4.828-3.797-8.629-8.619-8.629z" fill="#053B61"/><path d="M310.811 60.4c-9.338 0-16.828-7.601-16.828-16.846 0-9.348 7.593-16.847 16.828-16.847 9.234 0 16.828 7.602 16.828 16.847 0 9.245-7.491 16.846-16.828 16.846zm0-32.768c-8.722 0-15.905 7.088-15.905 15.922 0 8.731 7.08 15.921 15.905 15.921 8.721 0 15.904-7.087 15.904-15.921s-7.08-15.922-15.904-15.922z" fill="#053B61"/><path d="M311.324 22.29h-.924v4.931h.924v-4.93zm0 37.596h-.924v4.931h.924v-4.93zm-3.72-37.336l-.91.16.855 4.856.91-.16-.855-4.856zm6.548 37.104l-.91.16.855 4.856.91-.16-.855-4.857zM303.993 23.44l-.868.316 1.685 4.633.868-.316-1.685-4.633zm12.842 35.351l-.867.316 1.684 4.634.868-.317-1.685-4.633zm-16.23-33.902l-.8.462 2.463 4.27.8-.462-2.463-4.27zm18.735 32.644l-.8.462 2.463 4.27.8-.463-2.463-4.27zm-21.803-30.597l-.707.595 3.166 3.777.707-.595-3.166-3.777zm24.284 28.885l-.707.594 3.166 3.778.707-.595-3.166-3.777zm-26.967-26.306l-.593.708 3.773 3.17.594-.709-3.774-3.17zm28.856 24.22l-.594.708 3.774 3.17.593-.709-3.773-3.17zM292.643 32.46l-.462.801 4.265 2.466.462-.8-4.265-2.466zm32.587 18.968l-.462.8 4.265 2.466.462-.801-4.265-2.465zm-34.269-15.576l-.316.869 4.629 1.686.315-.869-4.628-1.686zm35.494 12.87l-.316.87 4.629 1.685.316-.869-4.629-1.686zm-36.506-9.298l-.16.91 4.85.857.16-.91-4.85-.857zm37.092 6.566l-.16.911 4.85.856.16-.91-4.85-.857zm-32.545-2.95h-4.926v.925h4.926v-.925zm37.657 0h-4.925v.925h4.925v-.925zm-37.418 2.861l-4.85.858.16.91 4.851-.857-.161-.91zm36.98-6.533l-4.85.857.16.91 4.851-.857-.161-.91zm-36.426 9.317l-4.629 1.686.316.869 4.628-1.686-.315-.869zm35.41-12.858l-4.628 1.686.316.868 4.628-1.685-.316-.87zm-34.252 15.485l-4.264 2.467.462.8 4.264-2.466-.462-.8zm32.627-18.762l-4.265 2.466.462.8 4.265-2.466-.462-.8zM298.048 53.7l-3.773 3.17.594.709 3.773-3.17-.594-.708zm28.81-24.244l-3.772 3.17.593.709 3.773-3.17-.594-.709zm-26.856 26.278l-3.166 3.776.708.595 3.166-3.777-.708-.594zm24.186-28.801l-3.167 3.777.708.594 3.166-3.777-.707-.594zM302.279 57.45l-2.465 4.27.8.462 2.464-4.269-.799-.462zm18.791-32.571l-2.465 4.269.8.462 2.464-4.269-.799-.462zm-16.247 33.85l-1.684 4.633.867.316 1.684-4.633-.867-.316zm12.825-35.34l-1.684 4.633.868.316 1.684-4.633-.868-.316zm-10.091 36.105l-.856 4.855.909.161.856-4.856-.909-.16zm6.535-37.036l-.856 4.855.909.161.857-4.855-.91-.161zm262.375 104.505c-14.981 0-14.981-7.807-29.859-7.807-14.981 0-14.981 7.807-29.86 7.807-14.981 0-14.981-7.807-29.859-7.807-14.981 0-14.981 7.807-29.859 7.807-14.981 0-14.982-7.807-29.86-7.807-14.981 0-14.981 7.807-29.859 7.807-14.776 0-14.981-7.704-29.449-7.807-14.571.103-14.674 7.807-29.552 7.807-14.981 0-14.981-7.807-29.962-7.807s-14.981 7.807-29.859 7.807c-14.981 0-14.981-7.807-29.86-7.807-14.981 0-14.981 7.807-29.859 7.807-14.981 0-14.981-7.807-29.86-7.807-14.981 0-14.981 7.807-29.859 7.807-14.981 0-14.981-7.807-29.86-7.807-14.981 0-14.981 7.807-29.859 7.807-14.981 0-14.981-7.807-29.86-7.807-14.98 0-14.98 7.807-29.859 7.807-14.98 0-14.98-7.807-29.86-7.807-14.98 0-14.98 7.807-29.961 7.807-14.981 0-15.494-7.807-30.475-7.807-14.981 0-14.981 7.807-29.86 7.807-14.98 0-14.98-7.807-29.859-7.807-14.981 0-14.981 7.807-29.86 7.807-14.981 0-14.981-7.807-29.859-7.807-14.981 0-14.981 7.807-29.86 7.807-14.981 0-14.981-7.807-29.859-7.807-5.951 0-9.543 1.233-12.621 2.774v29.481H621v-28.659c-3.591-1.849-7.285-3.596-14.366-3.596-15.186 0-15.186 7.807-30.167 7.807z" fill="#053B61"/><path d="M696.11 127.888c-7.695 0-11.595-2.055-15.391-4.006-3.694-1.952-7.285-3.801-14.468-3.801-7.285 0-10.774 1.849-14.468 3.801-3.797 1.951-7.696 4.006-15.392 4.006-7.695 0-11.594-2.055-15.391-4.006-3.694-1.952-7.285-3.801-14.468-3.801-7.285 0-10.774 1.849-14.468 3.801-3.797 1.951-7.696 4.006-15.391 4.006-7.696 0-11.595-2.055-15.392-4.006-3.694-1.952-7.285-3.801-14.468-3.801-7.285 0-10.774 1.849-14.468 3.801-3.796 1.951-7.696 4.006-15.391 4.006-7.696 0-11.595-2.055-15.392-4.006-3.694-1.952-7.285-3.801-14.468-3.801-7.285 0-10.774 1.849-14.468 3.801-3.796 1.951-7.695 4.006-15.391 4.006s-11.595-2.055-15.392-4.006c-3.694-1.952-7.285-3.801-14.468-3.801-7.285 0-10.774 1.849-14.468 3.801-3.796 1.951-7.695 4.006-15.391 4.006s-11.595-2.055-15.391-4.006c-3.694-1.952-7.286-3.801-14.469-3.801v-1.952c7.696 0 11.595 2.055 15.392 4.006 3.694 1.952 7.285 3.801 14.468 3.801 7.285 0 10.774-1.849 14.468-3.801 3.796-1.951 7.696-4.006 15.391-4.006 7.696 0 11.595 2.055 15.392 4.006 3.694 1.952 7.285 3.801 14.468 3.801 7.285 0 10.774-1.849 14.468-3.801 3.796-1.951 7.696-4.006 15.391-4.006 7.696 0 11.595 2.055 15.392 4.006 3.694 1.952 7.285 3.801 14.468 3.801 7.285 0 10.774-1.849 14.468-3.801 3.796-1.951 7.695-4.006 15.391-4.006s11.595 2.055 15.392 4.006c3.694 1.952 7.285 3.801 14.468 3.801 7.285 0 10.774-1.849 14.468-3.801 3.796-1.951 7.695-4.006 15.391-4.006s11.595 2.055 15.391 4.006c3.694 1.952 7.286 3.801 14.468 3.801 7.183 0 10.774-1.849 14.468-3.801 3.797-1.951 7.696-4.006 15.392-4.006s11.595 2.055 15.391 4.006c3.694 1.952 7.286 3.801 14.468 3.801 7.286 0 10.774-1.849 14.468-3.801 3.797-1.951 7.696-4.006 15.392-4.006v1.952c-7.286 0-10.774 1.849-14.468 3.801-3.797 1.951-7.696 4.006-15.392 4.006z" fill="#3C7AA2"/><path d="M696.11 133.332c-7.695 0-11.595-2.054-15.391-4.006-3.694-1.952-7.285-3.801-14.468-3.801-7.285 0-10.774 1.849-14.468 3.801-3.797 1.952-7.696 4.006-15.392 4.006-7.695 0-11.594-2.054-15.391-4.006-3.694-1.952-7.285-3.801-14.468-3.801-7.285 0-10.774 1.849-14.468 3.801-3.797 1.952-7.696 4.006-15.391 4.006-7.696 0-11.595-2.054-15.392-4.006-3.694-1.952-7.285-3.801-14.468-3.801-7.285 0-10.774 1.849-14.468 3.801-3.796 1.952-7.696 4.006-15.391 4.006-7.696 0-11.595-2.054-15.392-4.006-3.694-1.952-7.285-3.801-14.468-3.801-7.285 0-10.774 1.849-14.468 3.801-3.796 1.952-7.695 4.006-15.391 4.006s-11.595-2.054-15.392-4.006c-3.694-1.952-7.285-3.801-14.468-3.801-7.285 0-10.774 1.849-14.468 3.801-3.796 1.952-7.695 4.006-15.391 4.006s-11.595-2.054-15.391-4.006c-3.694-1.952-7.286-3.801-14.469-3.801v-1.952c7.696 0 11.595 2.055 15.392 4.007 3.694 1.951 7.285 3.8 14.468 3.8 7.285 0 10.774-1.849 14.468-3.8 3.796-1.952 7.696-4.007 15.391-4.007 7.696 0 11.595 2.055 15.392 4.007 3.694 1.951 7.285 3.8 14.468 3.8 7.285 0 10.774-1.849 14.468-3.8 3.796-1.952 7.696-4.007 15.391-4.007 7.696 0 11.595 2.055 15.392 4.007 3.694 1.951 7.285 3.8 14.468 3.8 7.285 0 10.774-1.849 14.468-3.8 3.796-1.952 7.695-4.007 15.391-4.007s11.595 2.055 15.392 4.007c3.694 1.951 7.285 3.8 14.468 3.8 7.285 0 10.774-1.849 14.468-3.8 3.796-1.952 7.695-4.007 15.391-4.007s11.595 2.055 15.391 4.007c3.694 1.951 7.286 3.8 14.468 3.8 7.183 0 10.774-1.849 14.468-3.8 3.797-1.952 7.696-4.007 15.392-4.007s11.595 2.055 15.391 4.007c3.694 1.951 7.286 3.8 14.468 3.8 7.286 0 10.774-1.849 14.468-3.8 3.797-1.952 7.696-4.007 15.392-4.007v1.952c-7.286 0-10.774 1.849-14.468 3.801-3.797 1.952-7.696 4.006-15.392 4.006z" fill="#3C7AA2"/><path d="M696.11 139.393c-7.695 0-11.595-2.055-15.391-4.007-3.694-1.951-7.285-3.8-14.468-3.8-7.285 0-10.774 1.849-14.468 3.8-3.797 1.952-7.696 4.007-15.392 4.007-7.695 0-11.594-2.055-15.391-4.007-3.694-1.951-7.285-3.8-14.468-3.8-7.285 0-10.774 1.849-14.468 3.8-3.797 1.952-7.696 4.007-15.391 4.007-7.696 0-11.595-2.055-15.392-4.007-3.694-1.951-7.285-3.8-14.468-3.8-7.285 0-10.774 1.849-14.468 3.8-3.796 1.952-7.696 4.007-15.391 4.007-7.696 0-11.595-2.055-15.392-4.007-3.694-1.951-7.285-3.8-14.468-3.8-7.285 0-10.774 1.849-14.468 3.8-3.796 1.952-7.695 4.007-15.391 4.007s-11.595-2.055-15.392-4.007c-3.694-1.951-7.285-3.8-14.468-3.8-7.285 0-10.774 1.849-14.468 3.8-3.796 1.952-7.695 4.007-15.391 4.007s-11.595-2.055-15.391-4.007c-3.694-1.951-7.286-3.8-14.469-3.8v-1.952c7.696 0 11.595 2.054 15.392 4.006 3.694 1.952 7.285 3.801 14.468 3.801 7.285 0 10.774-1.849 14.468-3.801 3.796-1.952 7.696-4.006 15.391-4.006 7.696 0 11.595 2.054 15.392 4.006 3.694 1.952 7.285 3.801 14.468 3.801 7.285 0 10.774-1.849 14.468-3.801 3.796-1.952 7.696-4.006 15.391-4.006 7.696 0 11.595 2.054 15.392 4.006 3.694 1.952 7.285 3.801 14.468 3.801 7.285 0 10.774-1.849 14.468-3.801 3.796-1.952 7.695-4.006 15.391-4.006s11.595 2.054 15.392 4.006c3.694 1.952 7.285 3.801 14.468 3.801 7.285 0 10.774-1.849 14.468-3.801 3.796-1.952 7.695-4.006 15.391-4.006s11.595 2.054 15.391 4.006c3.694 1.952 7.286 3.801 14.468 3.801 7.183 0 10.774-1.849 14.468-3.801 3.797-1.952 7.696-4.006 15.392-4.006s11.595 2.054 15.391 4.006c3.694 1.952 7.286 3.801 14.468 3.801 7.286 0 10.774-1.849 14.468-3.801 3.797-1.952 7.696-4.006 15.392-4.006v1.952c-7.286 0-10.774 1.849-14.468 3.8-3.797 1.952-7.696 4.007-15.392 4.007z" fill="#3C7AA2"/><path d="M696.11 145.248c-7.695 0-11.595-2.055-15.391-4.007-3.694-1.951-7.285-3.8-14.468-3.8-7.285 0-10.774 1.849-14.468 3.8-3.797 1.952-7.696 4.007-15.392 4.007-7.695 0-11.594-2.055-15.391-4.007-3.694-1.951-7.285-3.8-14.468-3.8-7.285 0-10.774 1.849-14.468 3.8-3.797 1.952-7.696 4.007-15.391 4.007-7.696 0-11.595-2.055-15.392-4.007-3.694-1.951-7.285-3.8-14.468-3.8-7.285 0-10.774 1.849-14.468 3.8-3.796 1.952-7.696 4.007-15.391 4.007-7.696 0-11.595-2.055-15.392-4.007-3.694-1.951-7.285-3.8-14.468-3.8-7.285 0-10.774 1.849-14.468 3.8-3.796 1.952-7.695 4.007-15.391 4.007s-11.595-2.055-15.392-4.007c-3.694-1.951-7.285-3.8-14.468-3.8-7.285 0-10.774 1.849-14.468 3.8-3.796 1.952-7.695 4.007-15.391 4.007s-11.595-2.055-15.391-4.007c-3.694-1.951-7.286-3.8-14.469-3.8v-1.952c7.696 0 11.595 2.055 15.392 4.006 3.694 1.952 7.285 3.801 14.468 3.801 7.285 0 10.774-1.849 14.468-3.801 3.796-1.951 7.696-4.006 15.391-4.006 7.696 0 11.595 2.055 15.392 4.006 3.694 1.952 7.285 3.801 14.468 3.801 7.285 0 10.774-1.849 14.468-3.801 3.796-1.951 7.696-4.006 15.391-4.006 7.696 0 11.595 2.055 15.392 4.006 3.694 1.952 7.285 3.801 14.468 3.801 7.285 0 10.774-1.849 14.468-3.801 3.796-1.951 7.695-4.006 15.391-4.006s11.595 2.055 15.392 4.006c3.694 1.952 7.285 3.801 14.468 3.801 7.285 0 10.774-1.849 14.468-3.801 3.796-1.951 7.695-4.006 15.391-4.006s11.595 2.055 15.391 4.006c3.694 1.952 7.286 3.801 14.468 3.801 7.183 0 10.774-1.849 14.468-3.801 3.797-1.951 7.696-4.006 15.392-4.006s11.595 2.055 15.391 4.006c3.694 1.952 7.286 3.801 14.468 3.801 7.286 0 10.774-1.849 14.468-3.801 3.797-1.951 7.696-4.006 15.392-4.006v1.952c-7.286 0-10.774 1.849-14.468 3.8-3.797 1.952-7.696 4.007-15.392 4.007z" fill="#3C7AA2"/><path d="M696.11 150.692c-7.695 0-11.595-2.055-15.391-4.006-3.694-1.952-7.285-3.801-14.468-3.801-7.285 0-10.774 1.849-14.468 3.801-3.797 1.951-7.696 4.006-15.392 4.006-7.695 0-11.594-2.055-15.391-4.006-3.694-1.952-7.285-3.801-14.468-3.801-7.285 0-10.774 1.849-14.468 3.801-3.797 1.951-7.696 4.006-15.391 4.006-7.696 0-11.595-2.055-15.392-4.006-3.694-1.952-7.285-3.801-14.468-3.801-7.285 0-10.774 1.849-14.468 3.801-3.796 1.951-7.696 4.006-15.391 4.006-7.696 0-11.595-2.055-15.392-4.006-3.694-1.952-7.285-3.801-14.468-3.801-7.285 0-10.774 1.849-14.468 3.801-3.796 1.951-7.695 4.006-15.391 4.006s-11.595-2.055-15.392-4.006c-3.694-1.952-7.285-3.801-14.468-3.801-7.285 0-10.774 1.849-14.468 3.801-3.796 1.951-7.695 4.006-15.391 4.006s-11.595-2.055-15.391-4.006c-3.694-1.952-7.286-3.801-14.469-3.801v-1.952c7.696 0 11.595 2.055 15.392 4.006 3.694 1.952 7.285 3.801 14.468 3.801 7.285 0 10.774-1.849 14.468-3.801 3.796-1.951 7.696-4.006 15.391-4.006 7.696 0 11.595 2.055 15.392 4.006 3.694 1.952 7.285 3.801 14.468 3.801 7.285 0 10.774-1.849 14.468-3.801 3.796-1.951 7.696-4.006 15.391-4.006 7.696 0 11.595 2.055 15.392 4.006 3.694 1.952 7.285 3.801 14.468 3.801 7.285 0 10.774-1.849 14.468-3.801 3.796-1.951 7.695-4.006 15.391-4.006s11.595 2.055 15.392 4.006c3.694 1.952 7.285 3.801 14.468 3.801 7.285 0 10.774-1.849 14.468-3.801 3.796-1.951 7.695-4.006 15.391-4.006s11.595 2.055 15.391 4.006c3.694 1.952 7.286 3.801 14.468 3.801 7.183 0 10.774-1.849 14.468-3.801 3.797-1.951 7.696-4.006 15.392-4.006s11.595 2.055 15.391 4.006c3.694 1.952 7.286 3.801 14.468 3.801 7.286 0 10.774-1.849 14.468-3.801 3.797-1.951 7.696-4.006 15.392-4.006v1.952c-7.286 0-10.774 1.849-14.468 3.801-3.797 1.951-7.696 4.006-15.392 4.006z" fill="#3C7AA2"/><path d="M696.11 156.65c-7.695 0-11.595-2.055-15.391-4.006-3.694-1.952-7.285-3.801-14.468-3.801-7.285 0-10.774 1.849-14.468 3.801-3.797 1.951-7.696 4.006-15.392 4.006-7.695 0-11.594-2.055-15.391-4.006-3.694-1.952-7.285-3.801-14.468-3.801-7.285 0-10.774 1.849-14.468 3.801-3.797 1.951-7.696 4.006-15.391 4.006-7.696 0-11.595-2.055-15.392-4.006-3.694-1.952-7.285-3.801-14.468-3.801-7.285 0-10.774 1.849-14.468 3.801-3.796 1.951-7.696 4.006-15.391 4.006-7.696 0-11.595-2.055-15.392-4.006-3.694-1.952-7.285-3.801-14.468-3.801-7.285 0-10.774 1.849-14.468 3.801-3.796 1.951-7.695 4.006-15.391 4.006s-11.595-2.055-15.392-4.006c-3.694-1.952-7.285-3.801-14.468-3.801-7.285 0-10.774 1.849-14.468 3.801-3.796 1.951-7.695 4.006-15.391 4.006s-11.595-2.055-15.391-4.006c-3.694-1.952-7.286-3.801-14.469-3.801v-1.952c7.696 0 11.595 2.055 15.392 4.006 3.694 1.952 7.285 3.801 14.468 3.801 7.285 0 10.774-1.849 14.468-3.801 3.796-1.951 7.696-4.006 15.391-4.006 7.696 0 11.595 2.055 15.392 4.006 3.694 1.952 7.285 3.801 14.468 3.801 7.285 0 10.774-1.849 14.468-3.801 3.796-1.951 7.696-4.006 15.391-4.006 7.696 0 11.595 2.055 15.392 4.006 3.694 1.952 7.285 3.801 14.468 3.801 7.285 0 10.774-1.849 14.468-3.801 3.796-1.951 7.695-4.006 15.391-4.006s11.595 2.055 15.392 4.006c3.694 1.952 7.285 3.801 14.468 3.801 7.285 0 10.774-1.849 14.468-3.801 3.796-1.951 7.695-4.006 15.391-4.006s11.595 2.055 15.391 4.006c3.694 1.952 7.286 3.801 14.468 3.801 7.183 0 10.774-1.849 14.468-3.801 3.797-1.951 7.696-4.006 15.392-4.006s11.595 2.055 15.391 4.006c3.694 1.952 7.286 3.801 14.468 3.801 7.286 0 10.774-1.849 14.468-3.801 3.797-1.951 7.696-4.006 15.392-4.006v1.952c-7.286 0-10.774 1.849-14.468 3.801-3.797 1.951-7.696 4.006-15.392 4.006zm-358.005-28.762c-7.696 0-11.595-2.055-15.391-4.006-3.694-1.952-7.286-3.801-14.468-3.801-7.183 0-10.774 1.849-14.468 3.801-3.797 1.951-7.696 4.006-15.392 4.006s-11.595-2.055-15.391-4.006c-3.694-1.952-7.286-3.801-14.468-3.801-7.286 0-10.774 1.849-14.468 3.801-3.797 1.951-7.696 4.006-15.392 4.006-7.695 0-11.595-2.055-15.391-4.006-3.694-1.952-7.285-3.801-14.468-3.801-7.285 0-10.774 1.849-14.468 3.801-3.797 1.951-7.696 4.006-15.391 4.006-7.696 0-11.595-2.055-15.392-4.006-3.694-1.952-7.285-3.801-14.468-3.801-7.285 0-10.774 1.849-14.468 3.801-3.796 1.951-7.696 4.006-15.391 4.006-7.696 0-11.595-2.055-15.392-4.006-3.694-1.952-7.285-3.801-14.468-3.801-7.285 0-10.774 1.849-14.468 3.801-3.796 1.951-7.696 4.006-15.391 4.006-7.696 0-11.595-2.055-15.392-4.006-3.694-1.952-7.285-3.801-14.468-3.801v-1.952c7.696 0 11.595 2.055 15.392 4.006 3.694 1.952 7.285 3.801 14.468 3.801 7.285 0 10.774-1.849 14.468-3.801 3.796-1.951 7.696-4.006 15.391-4.006 7.696 0 11.595 2.055 15.392 4.006 3.694 1.952 7.285 3.801 14.468 3.801 7.285 0 10.774-1.849 14.468-3.801 3.796-1.951 7.695-4.006 15.391-4.006s11.595 2.055 15.392 4.006c3.693 1.952 7.285 3.801 14.468 3.801 7.285 0 10.774-1.849 14.467-3.801 3.797-1.951 7.696-4.006 15.392-4.006s11.595 2.055 15.391 4.006c3.694 1.952 7.286 3.801 14.468 3.801 7.286 0 10.774-1.849 14.468-3.801 3.797-1.951 7.696-4.006 15.392-4.006s11.595 2.055 15.391 4.006c3.694 1.952 7.285 3.801 14.468 3.801s10.774-1.849 14.468-3.801c3.797-1.951 7.696-4.006 15.392-4.006 7.695 0 11.595 2.055 15.391 4.006 3.694 1.952 7.285 3.801 14.468 3.801 7.285 0 10.774-1.849 14.468-3.801 3.797-1.951 7.696-4.006 15.392-4.006v1.952c-7.286 0-10.775 1.849-14.468 3.801-3.797 1.951-7.696 4.006-15.392 4.006z" fill="#3C7AA2"/><path d="M338.105 133.332c-7.696 0-11.595-2.054-15.391-4.006-3.694-1.952-7.286-3.801-14.468-3.801-7.183 0-10.774 1.849-14.468 3.801-3.797 1.952-7.696 4.006-15.392 4.006s-11.595-2.054-15.391-4.006c-3.694-1.952-7.286-3.801-14.468-3.801-7.285 0-10.774 1.849-14.468 3.801-3.797 1.952-7.696 4.006-15.392 4.006-7.695 0-11.595-2.054-15.391-4.006-3.694-1.952-7.285-3.801-14.468-3.801-7.285 0-10.774 1.849-14.468 3.801-3.797 1.952-7.696 4.006-15.391 4.006-7.696 0-11.595-2.054-15.392-4.006-3.694-1.952-7.285-3.801-14.468-3.801-7.285 0-10.774 1.849-14.468 3.801-3.796 1.952-7.696 4.006-15.391 4.006-7.696 0-11.595-2.054-15.392-4.006-3.694-1.952-7.285-3.801-14.468-3.801-7.285 0-10.774 1.849-14.468 3.801-3.796 1.952-7.696 4.006-15.391 4.006-7.696 0-11.595-2.054-15.392-4.006-3.694-1.952-7.285-3.801-14.468-3.801v-1.952c7.696 0 11.595 2.055 15.392 4.007 3.694 1.951 7.285 3.8 14.468 3.8 7.285 0 10.774-1.849 14.468-3.8 3.796-1.952 7.696-4.007 15.391-4.007 7.696 0 11.595 2.055 15.392 4.007 3.694 1.951 7.285 3.8 14.468 3.8 7.285 0 10.774-1.849 14.468-3.8 3.796-1.952 7.695-4.007 15.391-4.007s11.595 2.055 15.392 4.007c3.693 1.951 7.285 3.8 14.468 3.8 7.285 0 10.774-1.849 14.467-3.8 3.797-1.952 7.696-4.007 15.392-4.007s11.595 2.055 15.391 4.007c3.694 1.951 7.286 3.8 14.468 3.8 7.286 0 10.774-1.849 14.468-3.8 3.797-1.952 7.696-4.007 15.392-4.007s11.595 2.055 15.391 4.007c3.694 1.951 7.286 3.8 14.468 3.8 7.183 0 10.774-1.849 14.468-3.8 3.797-1.952 7.696-4.007 15.392-4.007 7.695 0 11.595 2.055 15.391 4.007 3.694 1.951 7.285 3.8 14.468 3.8 7.285 0 10.774-1.849 14.468-3.8 3.797-1.952 7.696-4.007 15.392-4.007v1.952c-7.286 0-10.775 1.849-14.468 3.801-3.797 1.952-7.696 4.006-15.392 4.006z" fill="#3C7AA2"/><path d="M338.105 139.393c-7.696 0-11.595-2.055-15.391-4.007-3.694-1.951-7.286-3.8-14.468-3.8-7.183 0-10.774 1.849-14.468 3.8-3.797 1.952-7.696 4.007-15.392 4.007s-11.595-2.055-15.391-4.007c-3.694-1.951-7.286-3.8-14.468-3.8-7.285 0-10.774 1.849-14.468 3.8-3.797 1.952-7.696 4.007-15.392 4.007-7.695 0-11.595-2.055-15.391-4.007-3.694-1.951-7.285-3.8-14.468-3.8-7.285 0-10.774 1.849-14.468 3.8-3.797 1.952-7.696 4.007-15.391 4.007-7.696 0-11.595-2.055-15.392-4.007-3.694-1.951-7.285-3.8-14.468-3.8-7.285 0-10.774 1.849-14.468 3.8-3.796 1.952-7.696 4.007-15.391 4.007-7.696 0-11.595-2.055-15.392-4.007-3.694-1.951-7.285-3.8-14.468-3.8-7.285 0-10.774 1.849-14.468 3.8-3.796 1.952-7.696 4.007-15.391 4.007-7.696 0-11.595-2.055-15.392-4.007-3.694-1.951-7.285-3.8-14.468-3.8v-1.952c7.696 0 11.595 2.054 15.392 4.006 3.694 1.952 7.285 3.801 14.468 3.801 7.285 0 10.774-1.849 14.468-3.801 3.796-1.952 7.696-4.006 15.391-4.006 7.696 0 11.595 2.054 15.392 4.006 3.694 1.952 7.285 3.801 14.468 3.801 7.285 0 10.774-1.849 14.468-3.801 3.796-1.952 7.695-4.006 15.391-4.006s11.595 2.054 15.392 4.006c3.693 1.952 7.285 3.801 14.468 3.801 7.285 0 10.774-1.849 14.467-3.801 3.797-1.952 7.696-4.006 15.392-4.006s11.595 2.054 15.391 4.006c3.694 1.952 7.286 3.801 14.468 3.801 7.286 0 10.774-1.849 14.468-3.801 3.797-1.952 7.696-4.006 15.392-4.006s11.595 2.054 15.391 4.006c3.694 1.952 7.286 3.801 14.468 3.801 7.183 0 10.774-1.849 14.468-3.801 3.797-1.952 7.696-4.006 15.392-4.006 7.695 0 11.595 2.054 15.391 4.006 3.694 1.952 7.285 3.801 14.468 3.801 7.285 0 10.774-1.849 14.468-3.801 3.797-1.952 7.696-4.006 15.392-4.006v1.952c-7.286 0-10.775 1.849-14.468 3.8-3.797 1.952-7.696 4.007-15.392 4.007z" fill="#3C7AA2"/><path d="M338.105 145.248c-7.696 0-11.595-2.055-15.391-4.007-3.694-1.951-7.286-3.8-14.468-3.8-7.183 0-10.774 1.849-14.468 3.8-3.797 1.952-7.696 4.007-15.392 4.007s-11.595-2.055-15.391-4.007c-3.694-1.951-7.286-3.8-14.468-3.8-7.286 0-10.774 1.849-14.468 3.8-3.797 1.952-7.696 4.007-15.392 4.007-7.695 0-11.595-2.055-15.391-4.007-3.694-1.951-7.285-3.8-14.468-3.8-7.285 0-10.774 1.849-14.468 3.8-3.797 1.952-7.696 4.007-15.391 4.007-7.696 0-11.595-2.055-15.392-4.007-3.694-1.951-7.285-3.8-14.468-3.8-7.285 0-10.774 1.849-14.468 3.8-3.796 1.952-7.696 4.007-15.391 4.007-7.696 0-11.595-2.055-15.392-4.007-3.694-1.951-7.285-3.8-14.468-3.8-7.285 0-10.774 1.849-14.468 3.8-3.796 1.952-7.696 4.007-15.391 4.007-7.696 0-11.595-2.055-15.392-4.007-3.694-1.951-7.285-3.8-14.468-3.8v-1.952c7.696 0 11.595 2.055 15.392 4.006 3.694 1.952 7.285 3.801 14.468 3.801 7.285 0 10.774-1.849 14.468-3.801 3.796-1.951 7.696-4.006 15.391-4.006 7.696 0 11.595 2.055 15.392 4.006 3.694 1.952 7.285 3.801 14.468 3.801 7.285 0 10.774-1.849 14.468-3.801 3.796-1.951 7.695-4.006 15.391-4.006s11.595 2.055 15.392 4.006c3.693 1.952 7.285 3.801 14.468 3.801 7.285 0 10.774-1.849 14.467-3.801 3.797-1.951 7.696-4.006 15.392-4.006s11.595 2.055 15.391 4.006c3.694 1.952 7.286 3.801 14.468 3.801 7.286 0 10.774-1.849 14.468-3.801 3.797-1.951 7.696-4.006 15.392-4.006s11.595 2.055 15.391 4.006c3.694 1.952 7.285 3.801 14.468 3.801s10.774-1.849 14.468-3.801c3.797-1.951 7.696-4.006 15.392-4.006 7.695 0 11.595 2.055 15.391 4.006 3.694 1.952 7.285 3.801 14.468 3.801 7.285 0 10.774-1.849 14.468-3.801 3.797-1.951 7.696-4.006 15.392-4.006v1.952c-7.286 0-10.775 1.849-14.468 3.8-3.797 1.952-7.696 4.007-15.392 4.007z" fill="#3C7AA2"/><path d="M338.105 150.692c-7.696 0-11.595-2.055-15.391-4.006-3.694-1.952-7.286-3.801-14.468-3.801-7.183 0-10.774 1.849-14.468 3.801-3.797 1.951-7.696 4.006-15.392 4.006s-11.595-2.055-15.391-4.006c-3.694-1.952-7.286-3.801-14.468-3.801-7.285 0-10.774 1.849-14.468 3.801-3.797 1.951-7.696 4.006-15.392 4.006-7.695 0-11.595-2.055-15.391-4.006-3.694-1.952-7.285-3.801-14.468-3.801-7.285 0-10.774 1.849-14.468 3.801-3.797 1.951-7.696 4.006-15.391 4.006-7.696 0-11.595-2.055-15.392-4.006-3.694-1.952-7.285-3.801-14.468-3.801-7.285 0-10.774 1.849-14.468 3.801-3.796 1.951-7.696 4.006-15.391 4.006-7.696 0-11.595-2.055-15.392-4.006-3.694-1.952-7.285-3.801-14.468-3.801-7.285 0-10.774 1.849-14.468 3.801-3.796 1.951-7.696 4.006-15.391 4.006-7.696 0-11.595-2.055-15.392-4.006-3.694-1.952-7.285-3.801-14.468-3.801v-1.952c7.696 0 11.595 2.055 15.392 4.006 3.694 1.952 7.285 3.801 14.468 3.801 7.285 0 10.774-1.849 14.468-3.801 3.796-1.951 7.696-4.006 15.391-4.006 7.696 0 11.595 2.055 15.392 4.006 3.694 1.952 7.285 3.801 14.468 3.801 7.285 0 10.774-1.849 14.468-3.801 3.796-1.951 7.695-4.006 15.391-4.006s11.595 2.055 15.392 4.006c3.693 1.952 7.285 3.801 14.468 3.801 7.285 0 10.774-1.849 14.467-3.801 3.797-1.951 7.696-4.006 15.392-4.006s11.595 2.055 15.391 4.006c3.694 1.952 7.286 3.801 14.468 3.801 7.286 0 10.774-1.849 14.468-3.801 3.797-1.951 7.696-4.006 15.392-4.006s11.595 2.055 15.391 4.006c3.694 1.952 7.286 3.801 14.468 3.801 7.183 0 10.774-1.849 14.468-3.801 3.797-1.951 7.696-4.006 15.392-4.006 7.695 0 11.595 2.055 15.391 4.006 3.694 1.952 7.285 3.801 14.468 3.801 7.285 0 10.774-1.849 14.468-3.801 3.797-1.951 7.696-4.006 15.392-4.006v1.952c-7.286 0-10.775 1.849-14.468 3.801-3.797 1.951-7.696 4.006-15.392 4.006z" fill="#3C7AA2"/><path d="M338.105 156.65c-7.696 0-11.595-2.055-15.391-4.006-3.694-1.952-7.286-3.801-14.468-3.801-7.183 0-10.774 1.849-14.468 3.801-3.797 1.951-7.696 4.006-15.392 4.006s-11.595-2.055-15.391-4.006c-3.694-1.952-7.286-3.801-14.468-3.801-7.285 0-10.774 1.849-14.468 3.801-3.797 1.951-7.696 4.006-15.392 4.006-7.695 0-11.595-2.055-15.391-4.006-3.694-1.952-7.285-3.801-14.468-3.801-7.285 0-10.774 1.849-14.468 3.801-3.797 1.951-7.696 4.006-15.391 4.006-7.696 0-11.595-2.055-15.392-4.006-3.694-1.952-7.285-3.801-14.468-3.801-7.285 0-10.774 1.849-14.468 3.801-3.796 1.951-7.696 4.006-15.391 4.006-7.696 0-11.595-2.055-15.392-4.006-3.694-1.952-7.285-3.801-14.468-3.801-7.285 0-10.774 1.849-14.468 3.801-3.796 1.951-7.696 4.006-15.391 4.006-7.696 0-11.595-2.055-15.392-4.006-3.694-1.952-7.285-3.801-14.468-3.801v-1.952c7.696 0 11.595 2.055 15.392 4.006 3.694 1.952 7.285 3.801 14.468 3.801 7.285 0 10.774-1.849 14.468-3.801 3.796-1.951 7.696-4.006 15.391-4.006 7.696 0 11.595 2.055 15.392 4.006 3.694 1.952 7.285 3.801 14.468 3.801 7.285 0 10.774-1.849 14.468-3.801 3.796-1.951 7.695-4.006 15.391-4.006s11.595 2.055 15.392 4.006c3.693 1.952 7.285 3.801 14.468 3.801 7.285 0 10.774-1.849 14.467-3.801 3.797-1.951 7.696-4.006 15.392-4.006s11.595 2.055 15.391 4.006c3.694 1.952 7.286 3.801 14.468 3.801 7.286 0 10.774-1.849 14.468-3.801 3.797-1.951 7.696-4.006 15.392-4.006s11.595 2.055 15.391 4.006c3.694 1.952 7.286 3.801 14.468 3.801 7.183 0 10.774-1.849 14.468-3.801 3.797-1.951 7.696-4.006 15.392-4.006 7.695 0 11.595 2.055 15.391 4.006 3.694 1.952 7.285 3.801 14.468 3.801 7.285 0 10.774-1.849 14.468-3.801 3.797-1.951 7.696-4.006 15.392-4.006v1.952c-7.286 0-10.775 1.849-14.468 3.801-3.797 1.951-7.696 4.006-15.392 4.006zm0-28.762c-7.696 0-11.595-2.055-15.391-4.006-3.694-1.952-7.286-3.801-14.468-3.801-7.183 0-10.774 1.849-14.468 3.801-3.797 1.951-7.696 4.006-15.392 4.006s-11.595-2.055-15.391-4.006c-3.694-1.952-7.286-3.801-14.468-3.801-7.286 0-10.774 1.849-14.468 3.801-3.797 1.951-7.696 4.006-15.392 4.006-7.695 0-11.595-2.055-15.391-4.006-3.694-1.952-7.285-3.801-14.468-3.801-7.285 0-10.774 1.849-14.468 3.801-3.797 1.951-7.696 4.006-15.391 4.006-7.696 0-11.595-2.055-15.392-4.006-3.694-1.952-7.285-3.801-14.468-3.801-7.285 0-10.774 1.849-14.468 3.801-3.796 1.951-7.696 4.006-15.391 4.006-7.696 0-11.595-2.055-15.392-4.006-3.694-1.952-7.285-3.801-14.468-3.801-7.285 0-10.774 1.849-14.468 3.801-3.796 1.951-7.696 4.006-15.391 4.006-7.696 0-11.595-2.055-15.392-4.006-3.694-1.952-7.285-3.801-14.468-3.801v-1.952c7.696 0 11.595 2.055 15.392 4.006 3.694 1.952 7.285 3.801 14.468 3.801 7.285 0 10.774-1.849 14.468-3.801 3.796-1.951 7.696-4.006 15.391-4.006 7.696 0 11.595 2.055 15.392 4.006 3.694 1.952 7.285 3.801 14.468 3.801 7.285 0 10.774-1.849 14.468-3.801 3.796-1.951 7.695-4.006 15.391-4.006s11.595 2.055 15.392 4.006c3.693 1.952 7.285 3.801 14.468 3.801 7.285 0 10.774-1.849 14.467-3.801 3.797-1.951 7.696-4.006 15.392-4.006s11.595 2.055 15.391 4.006c3.694 1.952 7.286 3.801 14.468 3.801 7.286 0 10.774-1.849 14.468-3.801 3.797-1.951 7.696-4.006 15.392-4.006s11.595 2.055 15.391 4.006c3.694 1.952 7.285 3.801 14.468 3.801s10.774-1.849 14.468-3.801c3.797-1.951 7.696-4.006 15.392-4.006 7.695 0 11.595 2.055 15.391 4.006 3.694 1.952 7.285 3.801 14.468 3.801 7.285 0 10.774-1.849 14.468-3.801 3.797-1.951 7.696-4.006 15.392-4.006v1.952c-7.286 0-10.775 1.849-14.468 3.801-3.797 1.951-7.696 4.006-15.392 4.006zm-358.826 0c-7.696 0-11.595-2.055-15.392-4.006-3.694-1.952-7.285-3.801-14.468-3.801-7.182 0-10.774 1.849-14.468 3.801-3.796 1.951-7.695 4.006-15.391 4.006s-11.595-2.055-15.392-4.006c-3.694-1.952-7.285-3.801-14.468-3.801-7.285 0-10.774 1.849-14.468 3.801-3.796 1.951-7.695 4.006-15.391 4.006s-11.595-2.055-15.391-4.006c-3.694-1.952-7.286-3.801-14.468-3.801-7.286 0-10.774 1.849-14.468 3.801-3.797 1.951-7.696 4.006-15.392 4.006s-11.595-2.055-15.391-4.006c-3.694-1.952-7.286-3.801-14.468-3.801-7.286 0-10.774 1.849-14.468 3.801-3.797 1.951-7.696 4.006-15.392 4.006-7.695 0-11.595-2.055-15.391-4.006-3.694-1.952-7.286-3.801-14.468-3.801-7.285 0-10.774 1.849-14.468 3.801-3.797 1.951-7.696 4.006-15.392 4.006-7.695 0-11.595-2.055-15.391-4.006-3.694-1.952-7.285-3.801-14.468-3.801v-1.952c7.696 0 11.595 2.055 15.391 4.006 3.694 1.952 7.286 3.801 14.468 3.801 7.286 0 10.774-1.849 14.468-3.801 3.797-1.951 7.696-4.006 15.392-4.006s11.595 2.055 15.391 4.006c3.694 1.952 7.286 3.801 14.468 3.801 7.286 0 10.774-1.849 14.468-3.801 3.797-1.951 7.696-4.006 15.392-4.006 7.695 0 11.595 2.055 15.391 4.006 3.694 1.952 7.285 3.801 14.468 3.801 7.285 0 10.774-1.849 14.468-3.801 3.797-1.951 7.696-4.006 15.392-4.006 7.695 0 11.594 2.055 15.391 4.006 3.694 1.952 7.285 3.801 14.468 3.801 7.285 0 10.774-1.849 14.468-3.801 3.796-1.951 7.696-4.006 15.391-4.006 7.696 0 11.595 2.055 15.392 4.006 3.694 1.952 7.285 3.801 14.468 3.801 7.285 0 10.774-1.849 14.468-3.801 3.796-1.951 7.695-4.006 15.391-4.006s11.595 2.055 15.392 4.006c3.694 1.952 7.285 3.801 14.468 3.801 7.285 0 10.774-1.849 14.468-3.801 3.796-1.951 7.695-4.006 15.391-4.006v1.952c-7.285 0-10.774 1.849-14.468 3.801-3.796 1.951-7.696 4.006-15.391 4.006z" fill="#3C7AA2"/><path d="M696.11 127.888c-7.695 0-11.595-2.055-15.391-4.006-3.694-1.952-7.285-3.801-14.468-3.801-7.285 0-10.774 1.849-14.468 3.801-3.797 1.951-7.696 4.006-15.392 4.006-7.695 0-11.594-2.055-15.391-4.006-3.694-1.952-7.285-3.801-14.468-3.801-7.285 0-10.774 1.849-14.468 3.801-3.797 1.951-7.696 4.006-15.391 4.006-7.696 0-11.595-2.055-15.392-4.006-3.694-1.952-7.285-3.801-14.468-3.801-7.285 0-10.774 1.849-14.468 3.801-3.796 1.951-7.696 4.006-15.391 4.006-7.696 0-11.595-2.055-15.392-4.006-3.694-1.952-7.285-3.801-14.468-3.801-7.285 0-10.774 1.849-14.468 3.801-3.796 1.951-7.695 4.006-15.391 4.006s-11.595-2.055-15.392-4.006c-3.694-1.952-7.285-3.801-14.468-3.801-7.285 0-10.774 1.849-14.468 3.801-3.796 1.951-7.695 4.006-15.391 4.006s-11.595-2.055-15.391-4.006c-3.694-1.952-7.286-3.801-14.469-3.801v-1.952c7.696 0 11.595 2.055 15.392 4.006 3.694 1.952 7.285 3.801 14.468 3.801 7.285 0 10.774-1.849 14.468-3.801 3.796-1.951 7.696-4.006 15.391-4.006 7.696 0 11.595 2.055 15.392 4.006 3.694 1.952 7.285 3.801 14.468 3.801 7.285 0 10.774-1.849 14.468-3.801 3.796-1.951 7.696-4.006 15.391-4.006 7.696 0 11.595 2.055 15.392 4.006 3.694 1.952 7.285 3.801 14.468 3.801 7.285 0 10.774-1.849 14.468-3.801 3.796-1.951 7.695-4.006 15.391-4.006s11.595 2.055 15.392 4.006c3.694 1.952 7.285 3.801 14.468 3.801 7.285 0 10.774-1.849 14.468-3.801 3.796-1.951 7.695-4.006 15.391-4.006s11.595 2.055 15.391 4.006c3.694 1.952 7.286 3.801 14.468 3.801 7.183 0 10.774-1.849 14.468-3.801 3.797-1.951 7.696-4.006 15.392-4.006s11.595 2.055 15.391 4.006c3.694 1.952 7.286 3.801 14.468 3.801 7.286 0 10.774-1.849 14.468-3.801 3.797-1.951 7.696-4.006 15.392-4.006v1.952c-7.286 0-10.774 1.849-14.468 3.801-3.797 1.951-7.696 4.006-15.392 4.006zm-716.831 0c-7.696 0-11.595-2.055-15.392-4.006-3.694-1.952-7.285-3.801-14.468-3.801-7.182 0-10.774 1.849-14.468 3.801-3.796 1.951-7.695 4.006-15.391 4.006s-11.595-2.055-15.392-4.006c-3.694-1.952-7.285-3.801-14.468-3.801-7.285 0-10.774 1.849-14.468 3.801-3.796 1.951-7.695 4.006-15.391 4.006s-11.595-2.055-15.391-4.006c-3.694-1.952-7.286-3.801-14.468-3.801-7.286 0-10.774 1.849-14.468 3.801-3.797 1.951-7.696 4.006-15.392 4.006s-11.595-2.055-15.391-4.006c-3.694-1.952-7.286-3.801-14.468-3.801-7.286 0-10.774 1.849-14.468 3.801-3.797 1.951-7.696 4.006-15.392 4.006-7.695 0-11.595-2.055-15.391-4.006-3.694-1.952-7.286-3.801-14.468-3.801-7.285 0-10.774 1.849-14.468 3.801-3.797 1.951-7.696 4.006-15.392 4.006-7.695 0-11.595-2.055-15.391-4.006-3.694-1.952-7.285-3.801-14.468-3.801v-1.952c7.696 0 11.595 2.055 15.391 4.006 3.694 1.952 7.286 3.801 14.468 3.801 7.286 0 10.774-1.849 14.468-3.801 3.797-1.951 7.696-4.006 15.392-4.006s11.595 2.055 15.391 4.006c3.694 1.952 7.286 3.801 14.468 3.801 7.286 0 10.774-1.849 14.468-3.801 3.797-1.951 7.696-4.006 15.392-4.006 7.695 0 11.595 2.055 15.391 4.006 3.694 1.952 7.285 3.801 14.468 3.801 7.285 0 10.774-1.849 14.468-3.801 3.797-1.951 7.696-4.006 15.392-4.006 7.695 0 11.594 2.055 15.391 4.006 3.694 1.952 7.285 3.801 14.468 3.801 7.285 0 10.774-1.849 14.468-3.801 3.796-1.951 7.696-4.006 15.391-4.006 7.696 0 11.595 2.055 15.392 4.006 3.694 1.952 7.285 3.801 14.468 3.801 7.285 0 10.774-1.849 14.468-3.801 3.796-1.951 7.695-4.006 15.391-4.006s11.595 2.055 15.392 4.006c3.694 1.952 7.285 3.801 14.468 3.801 7.285 0 10.774-1.849 14.468-3.801 3.796-1.951 7.695-4.006 15.391-4.006v1.952c-7.285 0-10.774 1.849-14.468 3.801-3.796 1.951-7.696 4.006-15.391 4.006z" fill="#3C7AA2"/><path d="M-20.721 133.332c-7.696 0-11.595-2.054-15.392-4.006-3.694-1.952-7.285-3.801-14.468-3.801-7.182 0-10.774 1.849-14.468 3.801-3.796 1.952-7.695 4.006-15.391 4.006s-11.595-2.054-15.392-4.006c-3.694-1.952-7.285-3.801-14.468-3.801-7.285 0-10.774 1.849-14.468 3.801-3.796 1.952-7.695 4.006-15.391 4.006s-11.595-2.054-15.391-4.006c-3.694-1.952-7.286-3.801-14.468-3.801-7.286 0-10.774 1.849-14.468 3.801-3.797 1.952-7.696 4.006-15.392 4.006s-11.595-2.054-15.391-4.006c-3.694-1.952-7.286-3.801-14.468-3.801-7.286 0-10.774 1.849-14.468 3.801-3.797 1.952-7.696 4.006-15.392 4.006-7.695 0-11.595-2.054-15.391-4.006-3.694-1.952-7.286-3.801-14.468-3.801-7.285 0-10.774 1.849-14.468 3.801-3.797 1.952-7.696 4.006-15.392 4.006-7.695 0-11.595-2.054-15.391-4.006-3.694-1.952-7.285-3.801-14.468-3.801v-1.952c7.696 0 11.595 2.055 15.391 4.007 3.694 1.951 7.286 3.8 14.468 3.8 7.286 0 10.774-1.849 14.468-3.8 3.797-1.952 7.696-4.007 15.392-4.007s11.595 2.055 15.391 4.007c3.694 1.951 7.286 3.8 14.468 3.8 7.286 0 10.774-1.849 14.468-3.8 3.797-1.952 7.696-4.007 15.392-4.007 7.695 0 11.595 2.055 15.391 4.007 3.694 1.951 7.285 3.8 14.468 3.8 7.285 0 10.774-1.849 14.468-3.8 3.797-1.952 7.696-4.007 15.392-4.007 7.695 0 11.594 2.055 15.391 4.007 3.694 1.951 7.285 3.8 14.468 3.8 7.285 0 10.774-1.849 14.468-3.8 3.796-1.952 7.696-4.007 15.391-4.007 7.696 0 11.595 2.055 15.392 4.007 3.694 1.951 7.285 3.8 14.468 3.8 7.285 0 10.774-1.849 14.468-3.8 3.796-1.952 7.695-4.007 15.391-4.007s11.595 2.055 15.392 4.007c3.694 1.951 7.285 3.8 14.468 3.8 7.285 0 10.774-1.849 14.468-3.8 3.796-1.952 7.695-4.007 15.391-4.007v1.952c-7.285 0-10.774 1.849-14.468 3.801-3.796 1.952-7.696 4.006-15.391 4.006z" fill="#3C7AA2"/><path d="M-20.721 139.393c-7.696 0-11.595-2.055-15.392-4.007-3.694-1.951-7.285-3.8-14.468-3.8-7.182 0-10.774 1.849-14.468 3.8-3.796 1.952-7.695 4.007-15.391 4.007s-11.595-2.055-15.392-4.007c-3.694-1.951-7.285-3.8-14.468-3.8-7.285 0-10.774 1.849-14.468 3.8-3.796 1.952-7.695 4.007-15.391 4.007s-11.595-2.055-15.391-4.007c-3.694-1.951-7.286-3.8-14.468-3.8-7.286 0-10.774 1.849-14.468 3.8-3.797 1.952-7.696 4.007-15.392 4.007s-11.595-2.055-15.391-4.007c-3.694-1.951-7.286-3.8-14.468-3.8-7.286 0-10.774 1.849-14.468 3.8-3.797 1.952-7.696 4.007-15.392 4.007-7.695 0-11.595-2.055-15.391-4.007-3.694-1.951-7.286-3.8-14.468-3.8-7.285 0-10.774 1.849-14.468 3.8-3.797 1.952-7.696 4.007-15.392 4.007-7.695 0-11.595-2.055-15.391-4.007-3.694-1.951-7.285-3.8-14.468-3.8v-1.952c7.696 0 11.595 2.054 15.391 4.006 3.694 1.952 7.286 3.801 14.468 3.801 7.286 0 10.774-1.849 14.468-3.801 3.797-1.952 7.696-4.006 15.392-4.006s11.595 2.054 15.391 4.006c3.694 1.952 7.286 3.801 14.468 3.801 7.286 0 10.774-1.849 14.468-3.801 3.797-1.952 7.696-4.006 15.392-4.006 7.695 0 11.595 2.054 15.391 4.006 3.694 1.952 7.285 3.801 14.468 3.801 7.285 0 10.774-1.849 14.468-3.801 3.797-1.952 7.696-4.006 15.392-4.006 7.695 0 11.594 2.054 15.391 4.006 3.694 1.952 7.285 3.801 14.468 3.801 7.285 0 10.774-1.849 14.468-3.801 3.796-1.952 7.696-4.006 15.391-4.006 7.696 0 11.595 2.054 15.392 4.006 3.694 1.952 7.285 3.801 14.468 3.801 7.285 0 10.774-1.849 14.468-3.801 3.796-1.952 7.695-4.006 15.391-4.006s11.595 2.054 15.392 4.006c3.694 1.952 7.285 3.801 14.468 3.801 7.285 0 10.774-1.849 14.468-3.801 3.796-1.952 7.695-4.006 15.391-4.006v1.952c-7.285 0-10.774 1.849-14.468 3.8-3.796 1.952-7.696 4.007-15.391 4.007z" fill="#3C7AA2"/><path d="M-20.721 145.248c-7.696 0-11.595-2.055-15.392-4.007-3.694-1.951-7.285-3.8-14.468-3.8-7.182 0-10.774 1.849-14.468 3.8-3.796 1.952-7.695 4.007-15.391 4.007s-11.595-2.055-15.392-4.007c-3.694-1.951-7.285-3.8-14.468-3.8-7.285 0-10.774 1.849-14.468 3.8-3.796 1.952-7.695 4.007-15.391 4.007s-11.595-2.055-15.391-4.007c-3.694-1.951-7.286-3.8-14.468-3.8-7.286 0-10.774 1.849-14.468 3.8-3.797 1.952-7.696 4.007-15.392 4.007s-11.595-2.055-15.391-4.007c-3.694-1.951-7.286-3.8-14.468-3.8-7.286 0-10.774 1.849-14.468 3.8-3.797 1.952-7.696 4.007-15.392 4.007-7.695 0-11.595-2.055-15.391-4.007-3.694-1.951-7.286-3.8-14.468-3.8-7.285 0-10.774 1.849-14.468 3.8-3.797 1.952-7.696 4.007-15.392 4.007-7.695 0-11.595-2.055-15.391-4.007-3.694-1.951-7.285-3.8-14.468-3.8v-1.952c7.696 0 11.595 2.055 15.391 4.006 3.694 1.952 7.286 3.801 14.468 3.801 7.286 0 10.774-1.849 14.468-3.801 3.797-1.951 7.696-4.006 15.392-4.006s11.595 2.055 15.391 4.006c3.694 1.952 7.286 3.801 14.468 3.801 7.286 0 10.774-1.849 14.468-3.801 3.797-1.951 7.696-4.006 15.392-4.006 7.695 0 11.595 2.055 15.391 4.006 3.694 1.952 7.285 3.801 14.468 3.801 7.285 0 10.774-1.849 14.468-3.801 3.797-1.951 7.696-4.006 15.392-4.006 7.695 0 11.594 2.055 15.391 4.006 3.694 1.952 7.285 3.801 14.468 3.801 7.285 0 10.774-1.849 14.468-3.801 3.796-1.951 7.696-4.006 15.391-4.006 7.696 0 11.595 2.055 15.392 4.006 3.694 1.952 7.285 3.801 14.468 3.801 7.285 0 10.774-1.849 14.468-3.801 3.796-1.951 7.695-4.006 15.391-4.006s11.595 2.055 15.392 4.006c3.694 1.952 7.285 3.801 14.468 3.801 7.285 0 10.774-1.849 14.468-3.801 3.796-1.951 7.695-4.006 15.391-4.006v1.952c-7.285 0-10.774 1.849-14.468 3.8-3.796 1.952-7.696 4.007-15.391 4.007z" fill="#3C7AA2"/><path d="M-20.721 150.692c-7.696 0-11.595-2.055-15.392-4.006-3.694-1.952-7.285-3.801-14.468-3.801-7.182 0-10.774 1.849-14.468 3.801-3.796 1.951-7.695 4.006-15.391 4.006s-11.595-2.055-15.392-4.006c-3.694-1.952-7.285-3.801-14.468-3.801-7.285 0-10.774 1.849-14.468 3.801-3.796 1.951-7.695 4.006-15.391 4.006s-11.595-2.055-15.391-4.006c-3.694-1.952-7.286-3.801-14.468-3.801-7.286 0-10.774 1.849-14.468 3.801-3.797 1.951-7.696 4.006-15.392 4.006s-11.595-2.055-15.391-4.006c-3.694-1.952-7.286-3.801-14.468-3.801-7.286 0-10.774 1.849-14.468 3.801-3.797 1.951-7.696 4.006-15.392 4.006-7.695 0-11.595-2.055-15.391-4.006-3.694-1.952-7.286-3.801-14.468-3.801-7.285 0-10.774 1.849-14.468 3.801-3.797 1.951-7.696 4.006-15.392 4.006-7.695 0-11.595-2.055-15.391-4.006-3.694-1.952-7.285-3.801-14.468-3.801v-1.952c7.696 0 11.595 2.055 15.391 4.006 3.694 1.952 7.286 3.801 14.468 3.801 7.286 0 10.774-1.849 14.468-3.801 3.797-1.951 7.696-4.006 15.392-4.006s11.595 2.055 15.391 4.006c3.694 1.952 7.286 3.801 14.468 3.801 7.286 0 10.774-1.849 14.468-3.801 3.797-1.951 7.696-4.006 15.392-4.006 7.695 0 11.595 2.055 15.391 4.006 3.694 1.952 7.285 3.801 14.468 3.801 7.285 0 10.774-1.849 14.468-3.801 3.797-1.951 7.696-4.006 15.392-4.006 7.695 0 11.594 2.055 15.391 4.006 3.694 1.952 7.285 3.801 14.468 3.801 7.285 0 10.774-1.849 14.468-3.801 3.796-1.951 7.696-4.006 15.391-4.006 7.696 0 11.595 2.055 15.392 4.006 3.694 1.952 7.285 3.801 14.468 3.801 7.285 0 10.774-1.849 14.468-3.801 3.796-1.951 7.695-4.006 15.391-4.006s11.595 2.055 15.392 4.006c3.694 1.952 7.285 3.801 14.468 3.801 7.285 0 10.774-1.849 14.468-3.801 3.796-1.951 7.695-4.006 15.391-4.006v1.952c-7.285 0-10.774 1.849-14.468 3.801-3.796 1.951-7.696 4.006-15.391 4.006z" fill="#3C7AA2"/><path d="M-20.721 156.65c-7.696 0-11.595-2.055-15.392-4.006-3.694-1.952-7.285-3.801-14.468-3.801-7.182 0-10.774 1.849-14.468 3.801-3.796 1.951-7.695 4.006-15.391 4.006s-11.595-2.055-15.392-4.006c-3.694-1.952-7.285-3.801-14.468-3.801-7.285 0-10.774 1.849-14.468 3.801-3.796 1.951-7.695 4.006-15.391 4.006s-11.595-2.055-15.391-4.006c-3.694-1.952-7.286-3.801-14.468-3.801-7.286 0-10.774 1.849-14.468 3.801-3.797 1.951-7.696 4.006-15.392 4.006s-11.595-2.055-15.391-4.006c-3.694-1.952-7.286-3.801-14.468-3.801-7.286 0-10.774 1.849-14.468 3.801-3.797 1.951-7.696 4.006-15.392 4.006-7.695 0-11.595-2.055-15.391-4.006-3.694-1.952-7.286-3.801-14.468-3.801-7.285 0-10.774 1.849-14.468 3.801-3.797 1.951-7.696 4.006-15.392 4.006-7.695 0-11.595-2.055-15.391-4.006-3.694-1.952-7.285-3.801-14.468-3.801v-1.952c7.696 0 11.595 2.055 15.391 4.006 3.694 1.952 7.286 3.801 14.468 3.801 7.286 0 10.774-1.849 14.468-3.801 3.797-1.951 7.696-4.006 15.392-4.006s11.595 2.055 15.391 4.006c3.694 1.952 7.286 3.801 14.468 3.801 7.286 0 10.774-1.849 14.468-3.801 3.797-1.951 7.696-4.006 15.392-4.006 7.695 0 11.595 2.055 15.391 4.006 3.694 1.952 7.285 3.801 14.468 3.801 7.285 0 10.774-1.849 14.468-3.801 3.797-1.951 7.696-4.006 15.392-4.006 7.695 0 11.594 2.055 15.391 4.006 3.694 1.952 7.285 3.801 14.468 3.801 7.285 0 10.774-1.849 14.468-3.801 3.796-1.951 7.696-4.006 15.391-4.006 7.696 0 11.595 2.055 15.392 4.006 3.694 1.952 7.285 3.801 14.468 3.801 7.285 0 10.774-1.849 14.468-3.801 3.796-1.951 7.695-4.006 15.391-4.006s11.595 2.055 15.392 4.006c3.694 1.952 7.285 3.801 14.468 3.801 7.285 0 10.774-1.849 14.468-3.801 3.796-1.951 7.695-4.006 15.391-4.006v1.952c-7.285 0-10.774 1.849-14.468 3.801-3.796 1.951-7.696 4.006-15.391 4.006z" fill="#3C7AA2"/><path d="M135.143 115.664c7.285 0 10.671-5.033 10.671-5.033h15.392l-6.978 16.024s-.923.308-5.335-1.233c-4.618-1.643-5.644-2.67-5.644-2.67s-4.104-2.568-8.619-3.185c-6.67-.924-7.285-1.13-12.518.103-2.874.719-8.004 2.774-8.004 2.774l-1.95-6.78h22.985z" fill="#EFF2F4"/><path d="M145.814 109.706h5.233v-3.698h-29.654v8.629h13.647c6.67 0 9.851-4.52 9.851-4.52l.308-.411h.615zm-17.854.308a1.84 1.84 0 0 1-1.847 1.849 1.84 1.84 0 0 1-1.847-1.849 1.84 1.84 0 0 1 1.847-1.849c1.026 0 1.847.925 1.847 1.849zm5.439 0a1.84 1.84 0 0 1-1.847 1.849 1.84 1.84 0 0 1-1.847-1.849 1.84 1.84 0 0 1 1.847-1.849c1.026 0 1.847.925 1.847 1.849zm5.335 0a1.84 1.84 0 0 1-1.847 1.849 1.84 1.84 0 0 1-1.847-1.849 1.84 1.84 0 0 1 1.847-1.849c1.026.103 1.847.925 1.847 1.849zm6.875-9.861h-2.36v4.828h2.36v-4.828zm3.078 0h-2.36v4.828h2.36v-4.828zm2.36 0h-1.744v4.828h1.744v-4.828zm-8.516 0H137.4v4.828h5.131v-4.828zm-15.905-9.758h3.694l.718 14.586h-5.13l.718-14.586zm-2.975 2.157h-1.026v12.429h1.026v-12.43zm159.557 6.266s3.181-3.082 7.799-3.082c4.617.103 8.209 5.033 8.209 5.033s2.154-4.622 6.567-5.033c4.412-.41 8.414 2.465 8.414 2.465s-4.618-1.438-7.183-.513c-2.565.924-7.798 7.704-7.798 7.704s-4.618-5.65-8.107-7.396c-3.488-1.746-7.901.822-7.901.822zm11.903-16.025s2.771-1.746 6.054-.924c3.284.822 5.028 5.033 5.028 5.033s2.36-2.979 5.541-2.465c3.284.513 5.644 3.184 5.644 3.184s-3.079-1.849-5.131-1.54c-2.052.205-6.875 4.21-6.875 4.21s-2.36-4.827-4.515-6.676c-2.154-1.849-5.746-.822-5.746-.822zm-100.66 5.547s2.771-1.746 6.054-.924c3.284.821 5.028 5.033 5.028 5.033s2.36-2.979 5.541-2.465c3.181.513 5.644 3.184 5.644 3.184s-3.079-1.849-5.131-1.54c-2.052.205-6.875 4.21-6.875 4.21s-2.36-4.827-4.514-6.676c-2.155-1.952-5.747-.822-5.747-.822zm-112.049-.514s2.154-2.876 5.951-3.286c3.694-.411 7.08 3.184 7.08 3.184s1.231-3.904 4.72-4.725c3.489-.822 6.978 1.13 6.978 1.13s-3.9-.617-5.849.41c-1.95 1.028-5.438 6.986-5.438 6.986s-4.31-4.11-7.286-5.137c-2.873-1.027-6.156 1.438-6.156 1.438z" fill="#EFF2F4"/><path d="M200.711 54.134a8.588 8.588 0 0 1 .513-3.595c.718-.206 1.333-.514 1.847-1.13.718-.822.82-1.952.615-2.876-1.026 0-2.052.41-2.668 1.232-.307.309-.41.72-.615 1.027h-15.084l-2.36-10.066h-8.619s-.308 1.335 1.436 1.849c1.745.616 2.36.513 2.873 1.746.411 1.233-1.847 10.272-1.847 10.272s3.387 1.85 2.976 6.06c-.205 2.774-2.052 8.835-2.052 8.835h1.847s3.386-7.704 5.541-9.45c2.257-1.85 8.106-2.055 8.106-2.055s-.103-1.438.205-2.465c.308-1.028 1.026-1.85 1.026-1.85s-1.334 2.774 0 5.65c.616 1.439 1.95 2.157 1.95 2.157l-4.31 7.91h1.642l8.106-9.245c0 .103-1.026-1.849-1.128-4.006zm-19.702-13.046a.702.702 0 0 1-.718-.719c0-.41.308-.719.718-.719.411 0 .719.309.719.72 0 .41-.308.718-.719.718z" fill="#E0A328"/><path d="M183.575 38.829c0 .821.308 1.643 1.026 2.157.718.513 1.642.719 2.36.41 0-.821-.308-1.643-1.026-2.157-.719-.513-1.539-.616-2.36-.41zm-5.233 16.127c-.411-.822-1.129-1.233-1.129-1.233l-3.489 3.698 5.131 3.698s.205-.308.205-.719c.102-.308.103-.925.103-.925l-2.155-2.054 1.847-1.233c0 .206-.103-.41-.513-1.232zm23.395 4.622l-1.745 1.952 2.668 5.958h1.334l-2.257-7.91zm-16.11-21.468c6.259 0 11.697-4.417 11.697-4.417h-2.873s-3.283 2.978-9.132 2.978c1.642-1.13 3.284-2.978 3.284-2.978h-1.95s-.205.308-1.847 1.643a5.565 5.565 0 0 1-1.847 1.027c-2.976-.719-4.823-2.67-4.823-2.67h-2.052s3.181 4.416 9.543 4.416z" fill="#E0A328"/></g><defs><clipPath id="a"><path fill="#fff" transform="translate(-244)" d="M0 0h865v151H0z"/></clipPath></defs></svg>