<svg width="217" height="152" viewBox="0 0 217 152" fill="none" xmlns="http://www.w3.org/2000/svg"><path d="M129.6 37.824l-.084-.168.084.168c-.337.251-.589.335-1.095.335-.505 0-.758-.167-1.095-.335-.421-.252-.926-.587-1.936-.587-.927 0-1.516.335-1.937.587l-.505.251.168-.419c1.432-3.27 2.189-7.045 2.189-10.986 0-2.684-.336-5.2-1.01-7.632v-.084l3.789-1.93-.758-4.528-10.105 2.264.169.755c.505 2.768.589 5.535 0 8.052l-.253 1.006-.084-1.09c-.253-2.768-.758-5.62-1.6-8.303-2.274-7.8-4.463-9.729-4.716-9.98l-.084-.168-4.969-.335v-.084A116.957 116.957 0 0 0 103.579 0l-1.347.755c.252.42.842 1.677 1.768 3.606l.084.252-6.99-.504.843 1.258c0 .084 2.947 4.445 4.716 12.329 1.263 5.703 1.01 10.064.673 12.16v.252l-.252-.168c-2.527-1.845-4.632-4.696-5.98-8.05l-.336-.84-6.905 4.278 1.6 3.27 2.694-1.09.085.168c1.01 3.69 2.863 7.045 5.389 9.896l.168.168-.168.084c-.337.251-.59.335-1.095.335s-.758-.167-1.094-.335c-.422-.252-.927-.587-1.937-.587-.927 0-1.516.335-1.937.587-.337.251-.59.335-1.095.335s-.758-.167-1.095-.335c-.336-.252-.842-.503-1.768-.587v1.51c.421 0 .674.167.926.335.421.251.927.587 1.937.587.927 0 1.516-.336 1.937-.587.337-.168.59-.336 1.095-.336s.758.168 1.094.336c.421.251.927.587 1.937.587.927 0 1.516-.336 1.937-.587.337-.168.59-.336 1.095-.336s.758.168 1.095.336c.421.251.926.587 1.936.587.927 0 1.516-.336 1.937-.587.337-.168.59-.336 1.095-.336s.758.168 1.095.336c.421.251.926.587 1.937.587.926 0 1.515-.336 1.936-.587.337-.168.59-.336 1.095-.336s.758.168 1.095.336c.421.251.926.587 1.937.587.926 0 1.516-.336 1.937-.587.336-.168.589-.336 1.094-.336.506 0 .758.168 1.095.336.421.251.926.587 1.937.587.926 0 1.516-.336 1.937-.587.337-.252.589-.336 1.094-.336.506 0 .758.168 1.095.336.421.251.927.587 1.937.587.926 0 1.516-.336 1.937-.587.337-.168.505-.336.926-.336v-1.51c-1.179 0-1.684.336-2.105.588zm-13.811-9.896c-.842 1.341-1.768 2.264-2.863 3.019l-.252.167v-.251c-.253-2.097-.59-4.361-1.011-6.793-.084-.587-.253-1.258-.337-2.013v-.084l.085-.084c.589-.335 1.094-.503 1.599-.503.674 0 1.264.252 1.685.755 1.094 1.342 1.179 4.277 1.094 5.787zm-15.747-21.89l-.168-.251 10.189.67.084.085c.59.67 2.274 3.019 4.042 8.973.422 1.594.843 3.187 1.095 4.78l.084.336-.336-.252c-.59-.419-1.264-.587-2.022-.67h-.084c-2.863 0-5.642 3.69-7.579 6.877l-.337.503v-.587c.085-2.935-.252-6.122-1.01-9.31-1.179-5.45-3.032-9.392-3.958-11.154zm11.2 25.663l-.168.084c-.085 0-.085 0-.169.084a7.668 7.668 0 0 1-1.937.252c-1.347 0-2.694-.336-4.042-1.007l-.168-.083.084-.168c.421-.923 1.432-2.768 2.526-4.529.842-1.258 1.6-2.264 2.358-3.103l.253-.252.084.336c.084.335.084.67.169.922.421 2.6.757 5.032 1.01 7.297v.168zM121.6 37.74l-.084.168-.169-.084c-.336-.168-.758-.503-1.431-.587h-.253l.084-.168c1.516-2.935 2.19-6.961 2.358-7.8l-1.516-.251c-.336 1.929-1.347 6.96-3.2 8.89-.252.167-.505.251-.926.251-.505 0-.758-.167-1.095-.335-.421-.252-.926-.587-1.936-.587-.927 0-1.516.335-1.937.587-.337.251-.59.335-1.095.335s-.758-.167-1.095-.335c-.421-.252-.926-.587-1.937-.587-.926 0-1.515.335-1.936.587-.337.251-.59.335-1.095.335s-.758-.167-1.095-.335c-.421-.252-.926-.587-1.937-.587h-.084l-.084-.084c-2.948-3.02-5.053-6.793-5.895-10.903l-.168-.838-3.032 1.174-.421-.839 4.21-2.684.085.168c2.779 6.206 7.831 10.148 12.8 10.148.842 0 1.684-.084 2.442-.336 5.895-1.593 9.179-8.89 7.831-17.192v-.168l7.074-1.593.337 1.845-3.874 2.012.169.588a27.63 27.63 0 0 1 1.179 7.967c.084 4.193-.758 7.967-2.274 11.238zm.842 4.11c-.505 0-.758-.168-1.095-.336-.421-.252-.926-.587-1.936-.587-.927 0-1.516.335-1.937.587-.337.168-.59.335-1.095.335s-.758-.167-1.095-.335c-.421-.252-.926-.587-1.937-.587-.926 0-1.515.335-1.936.587-.337.252-.59.335-1.095.335s-.758-.167-1.095-.335c-.421-.252-.926-.587-1.937-.587-.926 0-1.516.335-1.937.587-.336.252-.589.335-1.094.335-.506 0-.758-.167-1.095-.335-.421-.252-.926-.587-1.937-.587-.926 0-1.516.335-1.937.587-.337.168-.59.335-1.095.335s-.757-.167-1.094-.335c-.337-.252-.842-.503-1.769-.587v1.51c.421 0 .674.167.927.335.42.252.926.587 1.936.587.927 0 1.516-.336 1.937-.587.337-.168.59-.336 1.095-.336s.758.168 1.095.336c.421.252.926.587 1.937.587.926 0 1.515-.336 1.936-.587.337-.252.59-.336 1.095-.336s.758.168 1.095.336c.421.252.926.587 1.937.587.926 0 1.516-.336 1.937-.587.336-.252.589-.336 1.094-.336.506 0 .758.168 1.095.336.421.252.926.587 1.937.587 1.01 0 1.516-.336 1.937-.587.337-.252.589-.336 1.095-.336.505 0 .757.168 1.094.336.421.252.927.587 1.937.587.926 0 1.516-.336 1.937-.587.337-.168.505-.336.926-.336v-1.51c-.842 0-1.347.336-1.768.588-.253.252-.505.335-1.095.335z" fill="#E0A328"/><path d="M107.116 17.528c.842.839 1.768 1.258 2.61 1.007.842-.168 1.432-.84 1.769-1.846.337-1.006.337-2.348.084-3.606-.253-1.174-.842-2.264-1.516-3.019-.842-.839-1.768-1.258-2.61-1.006-1.685.419-2.527 2.767-1.853 5.45.337 1.175.842 2.265 1.516 3.02zm.673-7.129c.337-.083.758.168 1.179.588.506.587.927 1.425 1.179 2.348.253.838.253 1.76.085 2.516-.169.67-.421 1.09-.758 1.174h-.085c-.336 0-.673-.252-1.01-.587-.505-.587-.926-1.426-1.179-2.348-.589-1.845-.084-3.523.589-3.69z" fill="#E0A328"/><path d="M63.158 116.574s7.916.168 13.221 0c-6.147-16.186-10.863-32.875-10.863-32.875 1.768-1.845 3.452-4.11 4.716-6.793 4.379-9.813 3.536-18.283 3.536-18.283H61.98s1.347 11.992-4.21 18.953c-2.022 2.516-4.127 3.774-5.474 4.361V58.54H41.179s1.179 9.812 1.095 27.76c-.084 17.36-1.095 30.275-1.095 30.275h11.116V91.498c.084 0 2.105-.503 4.8-1.845l6.063 26.921zm71.41 0s7.916.168 13.221 0c-6.147-16.186-10.863-32.875-10.863-32.875 1.769-1.845 3.453-4.11 4.716-6.793 4.379-9.813 3.537-18.283 3.537-18.283h-11.705s1.347 11.992-4.211 18.953c-2.021 2.516-4.126 3.774-5.474 4.361V58.54h-11.115s1.179 9.812 1.094 27.76c-.084 17.36-1.094 30.275-1.094 30.275h11.115V91.498c.085 0 2.106-.503 4.8-1.845l5.979 26.921zM18.105 57.113C6.821 57.113 0 69.273 0 87.305c0 19.709 7.41 30.779 18.105 30.779s18.106-10.987 18.106-30.78c-.085-18.03-6.906-30.191-18.106-30.191zm0 52.081c-5.305 0-6.652-11.154-6.652-21.638 0-10.483 1.347-21.637 6.652-21.637 5.474 0 6.737 11.406 6.737 21.638-.084 10.483-1.431 21.637-6.737 21.637z" fill="#fff"/><path d="M164.884 57.113c-11.284 0-18.105 12.16-18.105 30.192 0 19.709 7.41 30.779 18.105 30.779s18.105-10.987 18.105-30.78c-.084-18.03-6.905-30.191-18.105-30.191zm0 52.081c-5.305 0-6.652-11.154-6.652-21.638 0-10.483 1.347-21.637 6.652-21.637 5.474 0 6.737 11.406 6.737 21.638-.084 10.483-1.432 21.637-6.737 21.637zM99.621 99.55c-.926 5.283-2.695 9.728-5.895 9.728-5.305 0-6.652-11.154-6.652-21.554 0-10.483 1.347-21.637 6.652-21.637 2.864 0 4.548 3.522 5.558 7.8l9.516-4.697c-3.032-7.464-8.253-11.91-14.99-11.91-11.284 0-18.105 12.161-18.105 30.193 0 19.708 7.41 30.779 18.106 30.779 7.494 0 13.389-5.452 16.252-15.516l-10.442-3.187zm98.526 8.554c-.084 0-.252 0-.337.084V88.479l5.053.084c2.526.084 4.969.335 7.411 1.09V79.002c-2.695.839-4.885 1.007-7.411 1.09l-5.053.084V67.01c12.548 0 17.264 1.426 17.264 1.426V58.54h-28.379s1.263 7.38 1.094 25.83c-.168 18.451-1.094 32.205-1.094 32.205H216v-9.896s-5.305 1.426-17.853 1.426zm13.39-54.681c-.337.084-.506.168-.59.168v.67c.084-.083.253-.083.674-.167.337-.084.589-.252.674-.503.084.335.336.503.589.503a.767.767 0 0 0 .59-.252c.168-.167.168-.42.168-.922 0-.42-.084-.755-.084-1.007h-2.611v.587h1.011v.252c0 .503-.084.67-.421.67zm.842-.839h.758v.336c0 .419-.169.587-.421.587-.253 0-.421-.252-.421-.587v-.336h.084z" fill="#fff"/><path d="M212.295 55.687c1.431 0 2.61-1.174 2.61-2.683 0-1.51-1.179-2.684-2.61-2.684-1.516 0-2.611 1.174-2.611 2.684-.084 1.51 1.095 2.683 2.611 2.683zm0-4.696c1.179 0 2.105.838 2.105 2.013 0 1.174-.926 2.012-2.105 2.012-1.179 0-2.106-.838-2.106-2.012 0-1.175.927-2.013 2.106-2.013z" fill="#fff"/><path d="M13.168 137.113H5.773v2.696h2.122c1.351 0 2.546.23 3.585.691 1.04.461 1.836 1.113 2.391 1.957.563.836.844 1.797.844 2.883 0 1.68-.625 3.043-1.875 4.09-1.242 1.047-2.914 1.57-5.016 1.57H1.637v-17.062h11.531v3.175zm-7.395 5.86v4.863h2.11c.836 0 1.496-.234 1.98-.703.492-.469.739-1.074.739-1.817 0-.703-.243-1.269-.727-1.699-.484-.429-1.156-.644-2.016-.644H5.773zm21.446.797H20.75v4.066h7.64V151H16.638v-17.062h11.777v3.175H20.75v3.598h6.469v3.059zm11.156-5.098c0-.539-.21-.973-.633-1.301-.414-.328-.976-.492-1.687-.492-.664 0-1.2.16-1.606.48a1.502 1.502 0 0 0-.597 1.243H29.75c0-.938.266-1.778.797-2.52.539-.742 1.297-1.32 2.273-1.734.977-.422 2.055-.633 3.235-.633 2.03 0 3.61.426 4.734 1.277 1.133.852 1.7 2.043 1.7 3.574a3.62 3.62 0 0 1-.692 2.145c-.453.641-1.082 1.148-1.887 1.523.922.328 1.625.828 2.11 1.5.492.664.738 1.493.738 2.485 0 1.531-.61 2.75-1.828 3.656-1.22.898-2.844 1.348-4.875 1.348-1.883 0-3.446-.442-4.688-1.325-1.242-.89-1.863-2.101-1.863-3.632h4.125c0 .507.227.937.68 1.289.453.343 1.035.515 1.746.515.765 0 1.386-.179 1.863-.539.477-.359.715-.828.715-1.406 0-.844-.203-1.437-.61-1.781-.406-.352-1-.528-1.78-.528H34.05v-3.046h2.332c1.328-.04 1.992-.739 1.992-2.098zm16.5 9.14h-5.637L48.254 151h-4.395l6.258-17.062h3.867L60.29 151h-4.418l-.996-3.188zm-4.652-3.175h3.668l-1.84-5.918-1.828 5.918zm25.887-10.699V151h-4.114v-13.887h-3.832l-.281 5.731c-.117 1.976-.39 3.554-.82 4.734-.43 1.18-1.044 2.043-1.84 2.59-.79.539-1.867.816-3.235.832h-1.101v-3.164l.574-.059c.82-.117 1.414-.617 1.781-1.5.367-.89.606-2.386.715-4.488l.293-7.851h11.86zm8.6 10.312h-1.944V151h-4.114v-17.062h4.114v6.597h1.582l3.28-6.597h4.981l-4.687 7.874L93.195 151h-4.863l-3.621-6.75zm23.579-1.43c0 1.664-.309 3.137-.926 4.418-.617 1.282-1.496 2.27-2.636 2.965-1.133.688-2.426 1.031-3.879 1.031-1.454 0-2.742-.332-3.867-.996-1.125-.672-2.004-1.629-2.637-2.871-.625-1.242-.953-2.668-.985-4.277v-.961c0-1.672.305-3.145.914-4.418.618-1.281 1.496-2.27 2.637-2.965 1.149-.695 2.453-1.043 3.914-1.043 1.446 0 2.735.344 3.867 1.031 1.133.688 2.012 1.668 2.637 2.942.633 1.265.953 2.719.961 4.359v.785zm-4.184-.715c0-1.695-.285-2.98-.855-3.855-.562-.883-1.371-1.324-2.426-1.324-2.062 0-3.152 1.547-3.27 4.64l-.011 1.254c0 1.672.277 2.957.832 3.856.555.898 1.379 1.347 2.473 1.347 1.039 0 1.84-.441 2.402-1.324s.848-2.152.855-3.808v-.786zm17.813-4.992H114.5V151h-4.113v-17.062h11.531v3.175zm15.527 5.707c0 1.664-.308 3.137-.925 4.418-.618 1.282-1.497 2.27-2.637 2.965-1.133.688-2.426 1.031-3.879 1.031-1.453 0-2.742-.332-3.867-.996-1.125-.672-2.004-1.629-2.637-2.871-.625-1.242-.953-2.668-.984-4.277v-.961c0-1.672.304-3.145.914-4.418.617-1.281 1.496-2.27 2.636-2.965 1.149-.695 2.454-1.043 3.914-1.043 1.446 0 2.735.344 3.868 1.031 1.132.688 2.011 1.668 2.636 2.942.633 1.265.954 2.719.961 4.359v.785zm-4.183-.715c0-1.695-.285-2.98-.856-3.855-.562-.883-1.371-1.324-2.426-1.324-2.062 0-3.152 1.547-3.269 4.64l-.012 1.254c0 1.672.278 2.957.832 3.856.555.898 1.379 1.347 2.473 1.347 1.039 0 1.84-.441 2.402-1.324.563-.883.848-2.152.856-3.808v-.786zm20.285-8.167V151h-4.113v-13.887h-3.832l-.282 5.731c-.117 1.976-.39 3.554-.82 4.734-.43 1.18-1.043 2.043-1.84 2.59-.789.539-1.867.816-3.234.832h-1.102v-3.164l.574-.059c.821-.117 1.414-.617 1.782-1.5.367-.89.605-2.386.715-4.488l.293-7.851h11.859zm6.703 5.871h2.121c1.352 0 2.547.23 3.586.691 1.039.461 1.836 1.113 2.391 1.957.562.836.843 1.797.843 2.883 0 1.68-.625 3.043-1.875 4.09-1.242 1.047-2.914 1.57-5.015 1.57h-6.176v-17.062h4.125v5.871zm0 3.164v4.863h2.109c.836 0 1.496-.234 1.981-.703.492-.469.738-1.074.738-1.817 0-.703-.242-1.269-.726-1.699-.485-.429-1.157-.644-2.016-.644h-2.086zM185.328 151h-4.09v-7.125h-6.058V151h-4.114v-17.062h4.114v6.773h6.058v-6.773h4.09V151zm17.063-8.18c0 1.664-.309 3.137-.926 4.418-.617 1.282-1.496 2.27-2.637 2.965-1.133.688-2.426 1.031-3.879 1.031-1.453 0-2.742-.332-3.867-.996-1.125-.672-2.004-1.629-2.637-2.871-.625-1.242-.953-2.668-.984-4.277v-.961c0-1.672.305-3.145.914-4.418.617-1.281 1.496-2.27 2.637-2.965 1.148-.695 2.453-1.043 3.914-1.043 1.445 0 2.734.344 3.867 1.031 1.133.688 2.012 1.668 2.637 2.942.632 1.265.953 2.719.961 4.359v.785zm-4.184-.715c0-1.695-.285-2.98-.855-3.855-.563-.883-1.372-1.324-2.426-1.324-2.063 0-3.153 1.547-3.27 4.64l-.011 1.254c0 1.672.277 2.957.832 3.856.554.898 1.378 1.347 2.472 1.347 1.039 0 1.84-.441 2.403-1.324.562-.883.847-2.152.855-3.808v-.786zm16.887 1.665h-6.469v4.066h7.641V151h-11.754v-17.062h11.777v3.175h-7.664v3.598h6.469v3.059z" fill="#E0A328"/></svg>