<svg xmlns="http://www.w3.org/2000/svg" xmlns:xlink="http://www.w3.org/1999/xlink" width="1198" height="900" viewBox="0 0 1198 900"><defs><path id="a" d="M0 .158h1197.343v886.77H0z"/></defs><g fill="none" fill-rule="evenodd"><g transform="translate(0 .842)"><mask id="b" fill="#fff"><use xlink:href="#a"/></mask><path fill="#E8E1E1" d="M3.383 431.8c-28.421 226.564 127.11 396.086 284.167 446.802 116.619 37.658 275.18-64.65 401-64.265 158.676.486 257.394-33.971 372.926-97.17 118.619-64.886 191.666-238.417 81.907-424.89-70.204-119.271-203.16-107.606-371.668-219.875-120.696-80.415-239.606-84.46-370.978-56.684C168.119 64.9 27.113 242.63 3.383 431.8" mask="url(#b)"/></g><path fill="#FFF" d="M306.666 718.629l-119.753 88.557 54.459-133.567-58.37-11.305 43.379-86.752-90.86-14.683 104.843-80.983-54.943-159.213 127.313 70.031 43.226-120.07 64.007 72.889 74.846-263.894 77.769 174.404 34.32-60.272 23.636 62.02L707.1 72.445l30.633 136.735 46.857-65.202 18.429 59.666L922.217 74.787l-35.365 162.906 138.02-22.206-117.73 85.184 55.943 45.134-64.55 31.481 105.403 117.644-118.042-29.01-19.291 110.685-82.683-54.423 1.988 167.877-92.32-73.33-34.36 110.716-90.267-98.79-72.073 184.18-76.311-108.216-95.476 164.448z"/><path fill="#B796A7" d="M685.759 97.6l-54.797 131.224-7.168-18.81-15.095-39.608-20.973 36.834-14.057 24.684-58.492-131.173-22.46-50.368-15.048 53.055-62.31 219.692-40.702-46.35-22.366-25.469-11.48 31.891-33.52 93.106-94.311-51.878-45.478-25.017 16.932 49.065L228.57 476.37l-80.9 62.49-36.522 28.21 45.558 7.362 54.645 8.83-31.4 62.795-11.786 23.57 25.872 5.011 33.477 6.482-36.4 89.275-26.921 66.03 57.333-42.399 77.3-57.163 12.73 103.865 7.245 59.114 29.903-51.505 72.692-125.207 56.61 80.277 21.423 30.38 13.547-34.618 59.444-151.907 67.665 74.054 23.529 25.75 10.337-33.313 24.859-80.107 64.413 51.163 32.936 26.162-.498-42.06-1.517-128.029 54.23 35.696 25.466 16.761 5.234-30.033 14.835-85.119 76.208 18.73 62.869 15.45-43.2-48.219-74.968-83.676 38.515-18.785 28.273-13.79-24.484-19.752-33.517-27.042 73.055-52.858 68.15-49.31-83.052 13.361-82.025 13.197 24.48-112.767 15.553-71.636-49.778 53.813-82.532 89.218-7.374-23.876-11.872-38.439-23.48 32.67-22.11 30.77-18.89-84.313-13.745-61.35-24.226 58.016zm18.456 7.706l28.634 127.807 48.124-66.966 17.61 57.02L904.67 108.483l-30.701 141.41 110.966-17.852-94.254 68.197 53.884 43.472-62.31 30.39 92.635 103.392-97.006-23.84-18.512 106.218-85.672-56.389 1.963 165.666-87.295-69.336-33.518 108.014-89.344-97.78-71.155 181.835-74.588-105.772-88.356 152.185-16.901-137.9-104.872 77.552 45.596-111.83-57.391-11.114 43.574-87.142-81.517-13.172 92.264-71.268-48.82-141.467 114.836 63.17 41.452-115.146 64.947 73.957 72.335-255.038 74.585 167.263 33.61-59.023 25.009 65.624 74.1-177.454z"/><path fill="#FFB699" d="M306.684 507.327c0-12.17 3.133-22.765 9.397-32.044 6.264-9.28 14.455-15.975 24.333-19.99 9.878-4.016 17.83-3.882 24.092.305 6.264 4.185 9.397 12.234 9.397 24.404v23.823c0 4.92-3.615 8.979-10.6 11.818-6.987 2.84-10.6 1.72-10.6-3.2V484.22c0-4.403-1.206-7.54-3.374-9.247-2.168-1.707-5.06-1.827-8.674-.357-3.614 1.469-6.505 3.939-8.673 7.409-2.169 3.472-3.373 7.586-3.373 11.989V614.68c0 4.402 1.204 7.538 3.373 9.246 2.168 1.707 5.06 1.827 8.673.358 3.614-1.47 6.506-3.94 8.674-7.41 2.168-3.472 3.373-7.586 3.373-11.988V576.66c0-4.92 3.614-8.98 10.6-11.818 6.986-2.84 10.601-1.721 10.601 3.199v23.823c0 12.17-3.133 22.766-9.397 32.045-6.263 9.278-14.214 15.877-24.092 19.893-9.878 4.015-17.829 3.88-24.092-.305-6.264-4.187-9.396-12.235-9.396-24.405l-.242-111.766zm90.101-66.147c0-4.92 3.613-8.978 10.601-11.818 6.986-2.84 10.6-1.72 10.6 3.2v79.755c.483-1.49 1.687-3.793 3.855-7.006l6.506-10.412c7.95-12.555 11.804-26.55 11.804-41.828v-29.26c0-4.92 3.614-8.979 10.601-11.819 6.987-2.84 10.6-1.72 10.6 3.2v30.555c0 11.135-1.204 20.687-3.613 28.658-2.409 7.97-6.506 16.37-12.047 25.094 6.506 5.382 11.083 11.55 13.734 18.24 2.649 6.691 4.094 15.425 4.094 26.301v41.172c0 4.92-3.613 8.978-10.6 11.82-6.987 2.838-10.6 1.718-10.6-3.202v-38.84c0-8.288-.722-14.726-2.409-19.478-1.688-4.752-4.578-9.016-8.915-12.948l-8.673 13.883c-2.892 4.542-4.337 8.496-4.337 11.862v55.414c0 4.92-3.614 8.978-10.6 11.818-6.988 2.84-10.601 1.72-10.601-3.2v-171.16zm134.191-18.04L506.4 480v87.781c0 4.92-3.613 8.977-10.6 11.818-6.988 2.84-10.6 1.72-10.6-3.2V404.98c0-4.92 3.612-8.978 10.6-11.818 6.987-2.84 10.6-1.72 10.6 3.2v45.055l24.575-56.858c1.928-4.668 5.54-7.949 10.6-10.006 6.987-2.84 10.601-1.72 10.601 3.2v171.42c0 4.92-3.614 8.978-10.6 11.818-6.987 2.84-10.601 1.72-10.601-3.2V423.14zm72.755 12.632c0 27.966-1.687 55.063-5.06 81.034l28.188-11.459V361.375l-10.84 4.408c-3.615 1.47-6.506 3.94-8.674 7.41-2.169 3.471-3.373 7.585-3.373 11.987l-.24 50.592zm-21.442-37.116c0-12.17 3.131-22.766 9.396-32.045 6.264-9.278 14.455-15.975 24.333-19.99l24.815-10.088c4.82-1.959 7.228-.09 7.228 5.347v154.848l5.06-2.056c4.818-1.96 7.227-.09 7.227 5.348v34.957c0 4.92-3.614 8.978-10.6 11.817-6.988 2.841-10.6 1.721-10.6-3.199v-24.082l-52.04 21.155v24.083c0 4.92-3.614 8.977-10.602 11.818-6.986 2.84-10.6 1.721-10.6-3.199v-34.957c0-5.44 2.41-9.266 7.228-11.225l3.854-1.567c3.614-27.622 5.542-54.819 5.542-81.23l-.24-45.735zm93.957-71.081c0-4.92 3.613-8.978 10.6-11.818s10.6-1.72 10.6 3.2v79.755c.483-1.491 1.687-3.793 3.856-7.006l6.505-10.412c7.95-12.554 11.805-26.551 11.805-41.828v-29.26c0-4.92 3.613-8.98 10.601-11.82 6.986-2.84 10.599-1.72 10.599 3.2v30.556c0 11.135-1.204 20.687-3.613 28.657-2.409 7.972-6.505 16.369-12.046 25.095 6.505 5.382 11.082 11.549 13.733 18.24 2.649 6.692 4.095 15.425 4.095 26.3v41.173c0 4.92-3.613 8.978-10.6 11.818-6.988 2.84-10.601 1.72-10.601-3.2v-38.841c0-8.287-.722-14.725-2.409-19.477-1.687-4.752-4.577-9.015-8.914-12.948l-8.674 13.883c-2.891 4.542-4.337 8.496-4.337 11.862v55.414c0 4.92-3.613 8.978-10.6 11.818s-10.6 1.72-10.6-3.2V327.575zm134.189-18.04l-24.575 56.86v87.78c0 4.92-3.614 8.978-10.6 11.82-6.987 2.84-10.6 1.72-10.6-3.2v-171.42c0-4.92 3.613-8.979 10.6-11.819 6.986-2.84 10.6-1.72 10.6 3.2v45.055l24.575-56.858c1.928-4.668 5.541-7.949 10.601-10.006 6.986-2.84 10.6-1.72 10.6 3.2v171.42c0 4.92-3.614 8.977-10.6 11.818-6.988 2.84-10.6 1.72-10.6-3.2v-134.65z"/><g fill="#A3C2BE"><path d="M38.73 394.862c-1.028 0-2.06.348-3.069 1.033-3.877 2.635-5.689 9.09-3.956 14.093 1.021 2.952 3.094 4.785 5.41 4.785 1.027 0 2.06-.348 3.068-1.033 3.876-2.635 5.688-9.089 3.955-14.094-1.02-2.95-3.094-4.784-5.409-4.784m-2.583 41.458c-9.31 0-17.347-6.509-20.974-16.985-5.203-15.03.351-33.91 12.38-42.086 3.784-2.574 7.986-3.934 12.147-3.934 9.31 0 17.345 6.508 20.971 16.985 5.204 15.031-.349 33.911-12.378 42.086-3.785 2.573-7.986 3.934-12.146 3.934m68.444-11.846c-1.026 0-2.06.348-3.067 1.033-3.877 2.635-5.69 9.09-3.956 14.093 1.02 2.952 3.093 4.785 5.409 4.785 1.028 0 2.06-.348 3.068-1.033 3.877-2.635 5.689-9.09 3.956-14.094-1.021-2.951-3.095-4.784-5.41-4.784m-2.583 41.458c-9.31 0-17.346-6.51-20.973-16.985-5.203-15.031.35-33.911 12.378-42.086 3.785-2.574 7.987-3.934 12.148-3.934 9.309 0 17.345 6.508 20.972 16.985 5.204 15.03-.35 33.91-12.378 42.087-3.786 2.573-7.986 3.933-12.147 3.933"/><path d="M42.63 491.866L82.4 339.838l16.858 5.917-39.77 152.028z"/></g><path d="M1036.057 60.737c-5.026 1.446-9.29 6.902-9.705 12.42-.202 2.696.58 5.048 2.143 6.453 1.382 1.241 3.25 1.69 5.4 1.294.3-.056.6-.126.893-.212 5.028-1.445 9.29-6.9 9.706-12.42.202-2.696-.579-5.047-2.142-6.452-1.383-1.242-3.25-1.689-5.399-1.294a9.697 9.697 0 0 0-.896.211m.624 41.155c-.956.275-1.928.503-2.888.68-7.654 1.407-14.768-.42-20.029-5.148-5.67-5.095-8.539-13.134-7.868-22.055 1.213-16.14 13.366-31.545 28.268-35.83a30.63 30.63 0 0 1 2.888-.68c7.655-1.409 14.77.42 20.03 5.147 5.67 5.095 8.538 13.133 7.868 22.054-1.213 16.141-13.366 31.546-28.269 35.832m54.151 17.191c-5.027 1.446-9.29 6.901-9.705 12.42-.202 2.695.579 5.047 2.143 6.452 1.382 1.241 3.249 1.69 5.398 1.294.3-.056.6-.126.896-.21 5.027-1.447 9.289-6.902 9.704-12.42.202-2.697-.58-5.048-2.142-6.453-1.383-1.242-3.25-1.689-5.398-1.294-.301.055-.6.126-.896.211m.623 41.154c-.956.275-1.928.504-2.887.68-7.654 1.408-14.767-.42-20.028-5.147-5.672-5.096-8.54-13.135-7.87-22.056 1.214-16.14 13.366-31.544 28.269-35.83a30.232 30.232 0 0 1 2.887-.68c7.655-1.408 14.769.42 20.029 5.147 5.67 5.095 8.539 13.133 7.869 22.055-1.213 16.14-13.366 31.545-28.27 35.831m-89.334-.317l108.037-134.43 14.254 12.817-108.037 134.43z" fill="#A3C2BE"/><g fill="#A3C2BE"><path d="M820.951 754.688c-2.98.567-5.844 3.621-6.381 6.81-.247 1.461.033 2.756.77 3.552.619.67 1.541.97 2.667.868a5.13 5.13 0 0 0 .506-.07c2.982-.568 5.844-3.622 6.381-6.81.248-1.463-.033-2.757-.768-3.552-.619-.669-1.543-.97-2.669-.869a5.13 5.13 0 0 0-.506.071m-2.105 27.284c-.683.13-1.373.227-2.051.287-5.473.493-10.364-1.266-13.775-4.95-3.655-3.952-5.155-9.759-4.112-15.934 1.856-11.005 11.19-20.812 21.712-22.812.682-.13 1.371-.227 2.051-.288 5.47-.492 10.362 1.267 13.772 4.953 3.656 3.95 5.155 9.757 4.113 15.932-1.856 11.005-11.19 20.812-21.71 22.812m34.797 14.695c-2.98.567-5.843 3.621-6.38 6.81-.248 1.461.033 2.756.77 3.55.618.671 1.54.971 2.666.87.17-.015.34-.04.507-.07 2.981-.568 5.844-3.622 6.381-6.81.247-1.463-.033-2.757-.769-3.552-.619-.67-1.542-.97-2.668-.869a5.15 5.15 0 0 0-.507.071m-2.105 27.284a20.76 20.76 0 0 1-2.05.287c-5.472.493-10.364-1.266-13.774-4.95-3.656-3.952-5.156-9.759-4.113-15.935 1.856-11.004 11.19-20.81 21.711-22.81a21.11 21.11 0 0 1 2.051-.289c5.471-.492 10.362 1.267 13.773 4.953 3.655 3.95 5.155 9.757 4.112 15.932-1.855 11.005-11.19 20.812-21.71 22.812"/><path d="M790.842 817.272l81.152-83.837 10.019 10.837-81.151 83.835z"/></g><path fill="#FF9D8A" d="M282.76 192.156c-12.96 18.904-29.84 32.756-47.277 40.383a81.303 81.303 0 0 1-5.6 2.224 77.396 77.396 0 0 1-7.744 2.366 74.232 74.232 0 0 1-6.827 1.38 64.975 64.975 0 0 1-10.076.78 56.802 56.802 0 0 1-10.07-.841c-7.275-1.253-14.143-3.95-20.297-8.167-30.714-21.057-32.212-72.266-3.34-114.38 28.87-42.114 77.174-59.182 107.889-38.124 30.716 21.056 32.213 72.265 3.342 114.379"/><path fill="#FF9D8A" d="M151.754 214.436l21.237 14.56 104.553-152.51-21.237-14.56z"/><path fill="#ECC677" d="M259.645 176.308c-28.87 42.114-77.176 59.185-107.892 38.128-30.714-21.057-32.21-72.268-3.338-114.382 28.872-42.114 77.176-59.184 107.891-38.128 30.716 21.057 32.211 72.268 3.34 114.382"/><path fill="#FF9D8A" d="M175.969 205.626c-.204 0-.412-.025-.62-.078-4.83-1.231-9.328-3.26-13.368-6.03-24.975-17.121-26.43-58.566-3.243-92.387 11.15-16.267 26.289-28.404 42.625-34.177 16.613-5.871 32.494-4.49 44.718 3.89 12.223 8.38 19.239 22.695 19.752 40.307.506 17.319-5.357 35.815-16.51 52.08-7.817 11.405-17.764 20.942-28.765 27.58a2.5 2.5 0 0 1-2.584-4.281c10.394-6.272 19.809-15.306 27.226-26.125 10.557-15.4 16.11-32.84 15.635-49.108-.466-15.974-6.71-28.876-17.582-36.33-10.87-7.451-25.157-8.624-40.224-3.3-15.346 5.424-29.611 16.89-40.168 32.29-21.627 31.548-20.753 69.876 1.948 85.438 3.553 2.437 7.515 4.222 11.775 5.308a2.5 2.5 0 0 1-.615 4.923"/><path fill="#FF9D8A" d="M183.274 185.576c-.487 0-.979-.142-1.412-.438l-12.708-8.712a2.499 2.499 0 0 1-.648-3.475 2.499 2.499 0 0 1 3.476-.65l10.646 7.299 53.297-77.744-10.646-7.298a2.5 2.5 0 1 1 2.828-4.124l12.707 8.712c.547.375.923.95 1.045 1.603a2.502 2.502 0 0 1-.397 1.872l-56.125 81.869a2.497 2.497 0 0 1-2.063 1.086"/><path fill="#DFDFDF" d="M144.776 117.345a2.5 2.5 0 0 1-2.199-3.686 140.808 140.808 0 0 1 5.61-9.518 2.5 2.5 0 0 1 4.202 2.708 136.268 136.268 0 0 0-5.41 9.181 2.5 2.5 0 0 1-2.203 1.315m19.18-26.897a2.499 2.499 0 0 1-1.818-4.215c25.747-27.302 53.12-29.84 54.272-29.935a2.487 2.487 0 0 1 2.696 2.287 2.498 2.498 0 0 1-2.282 2.696c-.264.022-26.69 2.552-51.05 28.382a2.488 2.488 0 0 1-1.818.785"/><path fill="#FF9D8A" d="M960.706 677.18c12.29 10.828 26.413 17.468 39.83 19.698 1.435.243 2.854.427 4.27.56 1.952.196 3.877.291 5.78.283a53.34 53.34 0 0 0 4.973-.239c2.44-.23 4.82-.64 7.118-1.226a40.665 40.665 0 0 0 6.829-2.346c4.82-2.143 9.108-5.215 12.632-9.215 17.592-19.97 9.66-55.713-17.722-79.835-27.381-24.12-63.84-27.485-81.432-7.515s-9.66 55.713 17.722 79.835"/><path fill="#FF9D8A" d="M1055.378 669.668l-12.164 13.808-99.157-87.352 12.164-13.81z"/><path fill="#ECC677" d="M973.944 662.151c27.382 24.122 63.841 27.487 81.434 7.517 17.592-19.971 9.657-55.714-17.724-79.836-27.382-24.122-63.84-27.487-81.434-7.517-17.592 19.97-9.657 55.714 17.724 79.836"/><path fill="#FF9D8A" d="M1005.14 670.3c-.24 0-.486-.035-.728-.109-8.882-2.7-17.537-7.617-25.027-14.216-22.284-19.632-28.566-49.054-14.001-65.588 14.564-16.533 44.544-14.01 66.83 5.62 22.284 19.633 28.566 49.055 14 65.588a30.61 30.61 0 0 1-8.401 6.675 2.5 2.5 0 0 1-2.385-4.395 25.603 25.603 0 0 0 7.035-5.585c12.742-14.465 6.662-40.72-13.553-58.53-20.218-17.81-47.032-20.533-59.774-6.067-12.742 14.464-6.661 40.721 13.555 58.53 6.959 6.131 14.972 10.69 23.177 13.185a2.499 2.499 0 0 1-.727 4.892"/><path fill="#FF9D8A" d="M1028.044 655.962a2.502 2.502 0 0 1-1.652-.625l-53.23-46.891a2.498 2.498 0 0 1-.222-3.529l7.278-8.262a2.5 2.5 0 0 1 3.752 3.306l-5.626 6.385 49.476 43.587 5.626-6.386a2.5 2.5 0 0 1 3.752 3.304l-7.278 8.262a2.502 2.502 0 0 1-1.876.848"/><path fill="#DFDFDF" d="M1042.766 601.942a2.493 2.493 0 0 1-1.844-.81 96.803 96.803 0 0 0-5.317-5.373 2.5 2.5 0 1 1 3.41-3.657 101.62 101.62 0 0 1 5.593 5.652 2.5 2.5 0 0 1-1.842 4.188m-18.002-15.275a2.48 2.48 0 0 1-1.341-.392c-21.146-13.465-39.66-10.65-39.845-10.62a2.502 2.502 0 0 1-2.87-2.06 2.498 2.498 0 0 1 2.052-2.872c.825-.139 20.496-3.217 43.349 11.335a2.498 2.498 0 0 1 .765 3.451 2.496 2.496 0 0 1-2.11 1.158"/></g></svg>