<svg xmlns="http://www.w3.org/2000/svg" xmlns:xlink="http://www.w3.org/1999/xlink" width="1159" height="991" viewBox="0 0 1159 991"><defs><path id="a" d="M.48.296h1158.397v941.61H.48z"/><path id="c" d="M.768.535h53.016v50.57H.768z"/><path id="e" d="M0 990h1158.877V.535H0z"/></defs><g fill="none" fill-rule="evenodd"><g transform="translate(0 43.465)"><mask id="b" fill="#fff"><use xlink:href="#a"/></mask><path fill="#E8E1E1" d="M10.09 510.567C-30.11 374.919 59.793 256.19 205.474 196.96 356.505 135.555 333.66 52.06 513.464 8.958c179.805-43.103 358.09 83.245 421.871 188.977 85.227 141.285 213.026 154.477 222.742 313.922 9.717 159.444-68.489 362.586-275.564 408.567-313.178 69.542-440.707-42.87-589.366-150.192C131.61 653.612 49.568 643.786 10.09 510.567" mask="url(#b)"/></g><path fill="#B3ADAD" d="M614.11 458.27H15.59a8.894 8.894 0 0 1 0-17.787h598.52a8.894 8.894 0 0 1 0 17.786m501.333 487.157H496.908a8.894 8.894 0 0 1 0-17.787h618.535a8.894 8.894 0 1 1 0 17.787"/><path fill="#E8E1E1" d="M148.19 784.89l-39.573 14.898-25.989 33.356-26.398-33.03-39.754-14.41 23.257-35.314 1.42-42.26 40.771 11.205 40.631-11.709 1.942 42.24zm944.603-733.17l-23.617 46.777 4.254 52.228-51.786-8.006-48.358 20.184-8.388-51.725-34.139-39.753 46.601-23.962 27.257-44.753 37.19 36.916zM122.577 990.465l-20.869-15.746-26.019-2.547 8.527-24.714-5.618-25.532 26.14.472 22.545-13.233 7.628 25.006 19.553 17.354-21.425 14.982zm977.717-656.506l-20.869-15.746-26.02-2.547 8.528-24.713-5.618-25.533 26.138.473L1105 252.66l7.628 25.005 19.553 17.354L1110.756 310z"/><g transform="translate(719 .465)"><mask id="d" fill="#fff"><use xlink:href="#c"/></mask><path fill="#E8E1E1" d="M53.784 32.09l-16.019 5.753L27.1 51.106 16.68 37.649.768 31.604l9.58-14.07.832-17 16.34 4.764L43.945.837l.521 17.012z" mask="url(#d)"/></g><path fill="#679498" d="M591.161 440.483h10V388.65h-10z"/><g transform="translate(0 .465)"><path fill="#679498" d="M596.161 413.794c-10.449 0-18.95-8.5-18.95-18.95V375.23h10v19.614c0 4.935 4.014 8.95 8.95 8.95v10z"/><path fill="#9FC9BE" d="M42.736 392.792C19.133 392.792 0 373.659 0 350.056V217.782c0-23.602 19.133-42.736 42.736-42.736 23.603 0 42.736 19.134 42.736 42.736v132.274c0 23.603-19.133 42.736-42.736 42.736"/><path fill="#92B8AE" d="M596.161 388.185c-26.189 0-47.42-21.23-47.42-47.42V200.578c0-26.19 21.231-47.42 47.42-47.42 26.19 0 47.42 21.23 47.42 47.42v140.187c0 26.19-21.23 47.42-47.42 47.42m-477.319-6.792c-23.603 0-42.736-19.134-42.736-42.736V148.474c0-23.602 19.133-42.736 42.736-42.736 23.603 0 42.736 19.134 42.736 42.736v190.183c0 23.602-19.133 42.736-42.736 42.736"/><mask id="f" fill="#fff"><use xlink:href="#e"/></mask><path fill="#679498" d="M37.736 440.018h10v-47.226h-10zm76.106 0h10v-58.625h-10z" mask="url(#f)"/><path fill="#679498" d="M118.842 403.257v-10c4.812 0 8.727-3.915 8.727-8.727v-12.032h10v12.032c0 10.326-8.401 18.727-18.727 18.727" mask="url(#f)"/><path fill="#FAA18A" d="M354.135 64.953h51.762V33.34h-51.762z" mask="url(#f)"/><path fill="#FCD178" d="M181.222 440.018h348.002V223.41H181.222zM178.92 223.41l175.152-107.33 175.152 107.33z" mask="url(#f)"/><path fill="#699599" d="M365.893 175.404c0 6.494-5.264 11.757-11.757 11.757-6.493 0-11.758-5.263-11.758-11.757 0-6.493 5.265-11.757 11.758-11.757 6.493 0 11.757 5.264 11.757 11.757" mask="url(#f)"/><path fill="#699599" d="M169.623 234.473l-7.885-12.76 192.167-118.75L544.2 216.976l-7.709 12.868-182.465-109.32zm45.115 75.605h61.015V257.76h-61.015zm108.89 0h61.015V257.76h-61.015z" mask="url(#f)"/><path fill="#FAA18A" d="M323.628 423.04h61.015v-83.294h-61.015z" mask="url(#f)"/><path fill="#699599" d="M300.228 431.529h107.816v-8.489H300.228zm-16.392 8.489h140.6v-8.489h-140.6zm148.682-129.94h61.015V257.76h-61.015zm-217.78 81.985h61.015v-52.318h-61.015zm217.78 0h61.015v-52.318h-61.015z" mask="url(#f)"/><path fill="#FAA18A" d="M210.072 319.804h70.349v-18.781h-70.349zm217.779 0H498.2v-18.781h-70.349z" mask="url(#f)"/><path fill="#679498" d="M349.136 111.743h10V33.34h-10z" mask="url(#f)"/><path fill="#92B8AE" d="M149.01 440.018h-37.462c0-10.261 8.22-18.586 18.441-18.731.092-.013.198-.013.29-.013 10.34 0 18.731 8.39 18.731 18.744m96.236-4.255c0 1.489-.263 2.924-.737 4.255H220.85a12.673 12.673 0 0 1-.737-4.255c0-6.941 5.624-12.566 12.566-12.566 1.08 0 2.134.132 3.135.395 5.427 1.397 9.43 6.31 9.43 12.17m-38.974-5.847a17.27 17.27 0 0 1-3.241 10.103h-28.32a17.269 17.269 0 0 1-3.24-10.103c0-7.851 5.19-14.476 12.329-16.65a17.41 17.41 0 0 1 5.072-.75c2.239 0 4.373.42 6.322 1.185 6.494 2.529 11.078 8.839 11.078 16.215" mask="url(#f)"/><path fill="#92B8AE" d="M187.407 427.28c0 2.753-.382 5.4-1.106 7.916a26.662 26.662 0 0 1-1.844 4.821h-52.162a28.823 28.823 0 0 1-2.937-12.737c0-2.055.21-4.057.632-5.994 2.753-13.158 14.41-23.038 28.386-23.038 10.946 0 20.482 6.06 25.422 15.017a28.556 28.556 0 0 1 3.556 12.381c.04.541.053 1.081.053 1.634" mask="url(#f)"/><path fill="#92B8AE" d="M237.698 433.234c0 2.345-.316 4.624-.922 6.784h-49.633a24.299 24.299 0 0 1-.843-4.822 25.784 25.784 0 0 1 1.054-9.549 25.82 25.82 0 0 1 7.837-11.947 25.618 25.618 0 0 1 16.77-6.217c10.8 0 20.06 6.665 23.853 16.109a25.26 25.26 0 0 1 1.884 9.642m262.789 6.784h-37.461c0-10.261 8.219-18.586 18.44-18.731.093-.013.198-.013.29-.013 10.34 0 18.73 8.39 18.73 18.744m96.237-4.255c0 1.489-.264 2.924-.738 4.255h-23.657a12.674 12.674 0 0 1-.738-4.255c0-6.941 5.625-12.566 12.567-12.566 1.08 0 2.133.132 3.134.395 5.427 1.397 9.432 6.31 9.432 12.17m-38.977-5.847c0 3.767-1.198 7.258-3.24 10.103h-28.32a17.269 17.269 0 0 1-3.24-10.103c0-7.851 5.19-14.476 12.328-16.65a17.42 17.42 0 0 1 5.072-.75c2.24 0 4.373.42 6.322 1.185 6.494 2.529 11.078 8.839 11.078 16.215" mask="url(#f)"/><path fill="#92B8AE" d="M538.884 427.28c0 2.753-.382 5.4-1.106 7.916a26.59 26.59 0 0 1-1.845 4.821h-52.161a28.824 28.824 0 0 1-2.938-12.737c0-2.055.21-4.057.632-5.994 2.753-13.158 14.41-23.038 28.387-23.038 10.945 0 20.482 6.06 25.422 15.017a28.57 28.57 0 0 1 3.556 12.381c.039.541.053 1.081.053 1.634" mask="url(#f)"/><path fill="#92B8AE" d="M589.175 433.234c0 2.345-.316 4.624-.922 6.784H538.62a24.298 24.298 0 0 1-.842-4.822 24.022 24.022 0 0 1-.08-1.962c0-2.634.395-5.19 1.133-7.587a25.82 25.82 0 0 1 7.837-11.947 25.618 25.618 0 0 1 16.769-6.217c10.8 0 20.06 6.665 23.854 16.109a25.24 25.24 0 0 1 1.884 9.642m-34.22 493.94h-37.462c0-10.26 8.22-18.585 18.441-18.73.092-.014.198-.014.29-.014 10.34 0 18.731 8.391 18.731 18.744m96.235-4.254c0 1.488-.263 2.924-.736 4.254h-23.658a12.668 12.668 0 0 1-.738-4.254c0-6.942 5.625-12.566 12.567-12.566 1.08 0 2.133.13 3.134.395 5.427 1.396 9.432 6.309 9.432 12.17m-38.977-5.848c0 3.768-1.198 7.258-3.24 10.103h-28.321a17.266 17.266 0 0 1-3.24-10.103c0-7.85 5.19-14.476 12.329-16.649a17.42 17.42 0 0 1 5.072-.75c2.239 0 4.373.42 6.322 1.184 6.494 2.53 11.078 8.84 11.078 16.215" mask="url(#f)"/><path fill="#92B8AE" d="M593.352 914.437c0 2.753-.382 5.4-1.106 7.917a26.68 26.68 0 0 1-1.844 4.82H538.24a28.82 28.82 0 0 1-2.938-12.737c0-2.055.21-4.057.632-5.993 2.754-13.159 14.41-23.038 28.387-23.038 10.946 0 20.482 6.059 25.422 15.016a28.57 28.57 0 0 1 3.556 12.382c.039.54.053 1.08.053 1.633" mask="url(#f)"/><path fill="#92B8AE" d="M643.643 920.39a25.1 25.1 0 0 1-.922 6.785h-49.633a24.3 24.3 0 0 1-.842-4.821 24.065 24.065 0 0 1-.08-1.963c0-2.634.396-5.19 1.133-7.587a25.826 25.826 0 0 1 7.837-11.947 25.618 25.618 0 0 1 16.769-6.217c10.8 0 20.06 6.665 23.854 16.109a25.244 25.244 0 0 1 1.884 9.642m361.817 6.783h-37.462c0-10.26 8.22-18.585 18.44-18.73.093-.014.198-.014.291-.014 10.34 0 18.73 8.391 18.73 18.744m96.236-4.254c0 1.488-.264 2.924-.738 4.254H1077.3a12.692 12.692 0 0 1-.737-4.254c0-6.942 5.624-12.566 12.567-12.566 1.08 0 2.133.13 3.134.395 5.427 1.396 9.432 6.309 9.432 12.17m-38.977-5.848c0 3.768-1.2 7.258-3.24 10.103h-28.321a17.266 17.266 0 0 1-3.24-10.103c0-7.85 5.19-14.476 12.329-16.649a17.41 17.41 0 0 1 5.072-.75c2.239 0 4.373.42 6.322 1.184 6.494 2.53 11.078 8.84 11.078 16.215" mask="url(#f)"/><path fill="#92B8AE" d="M1043.857 914.437c0 2.753-.383 5.4-1.107 7.917a26.68 26.68 0 0 1-1.844 4.82h-52.161a28.82 28.82 0 0 1-2.938-12.737c0-2.055.21-4.057.632-5.993 2.753-13.159 14.41-23.038 28.386-23.038 10.946 0 20.483 6.059 25.423 15.016a28.57 28.57 0 0 1 3.556 12.382c.039.54.053 1.08.053 1.633" mask="url(#f)"/><path fill="#92B8AE" d="M1094.148 920.39a25.1 25.1 0 0 1-.922 6.785h-49.633a24.374 24.374 0 0 1-.843-4.821 25.789 25.789 0 0 1 1.054-9.55 25.81 25.81 0 0 1 7.837-11.947 25.618 25.618 0 0 1 16.769-6.217c10.8 0 20.06 6.665 23.854 16.109a25.263 25.263 0 0 1 1.884 9.642" mask="url(#f)"/><path fill="#FAA18A" d="M823.358 551.427h46.085v-31.613h-46.085z" mask="url(#f)"/><path fill="#679498" d="M818.358 594.749h10v-74.935h-10zm211.489 333.153h10v-51.833h-10z" mask="url(#f)"/><path fill="#679498" d="M1034.847 901.68c-10.45 0-18.95-8.501-18.95-18.95v-19.614h10v19.614c0 4.935 4.014 8.95 8.95 8.95v10z" mask="url(#f)"/><path fill="#9FC9BE" d="M625.034 880.677h2.412c22.937 0 41.53-18.594 41.53-41.53v-122.57c0-22.937-18.593-41.53-41.53-41.53h-2.412c-22.937 0-41.53 18.593-41.53 41.53v122.57c0 22.936 18.593 41.53 41.53 41.53" mask="url(#f)"/><path fill="#92B8AE" d="M1036.255 876.07h-2.817c-25.412 0-46.011-20.6-46.011-46.011V700.81c0-25.411 20.599-46.011 46.011-46.011h2.817c25.411 0 46.011 20.6 46.011 46.01V830.06c0 25.41-20.6 46.01-46.011 46.01m-489.97-6.792h7.698c21.478 0 38.888-17.41 38.888-38.887v-77.84c0-21.476-17.41-38.886-38.888-38.886h-7.698c-21.477 0-38.887 17.41-38.887 38.887v77.839c0 21.477 17.41 38.887 38.887 38.887" mask="url(#f)"/><path fill="#679498" d="M621.24 927.902h10v-47.225h-10zm-76.105 0h10v-58.625h-10z" mask="url(#f)"/><path fill="#679498" d="M550.135 891.142c-10.326 0-18.728-8.4-18.728-18.727v-12.032h10v12.032c0 4.812 3.916 8.727 8.728 8.727v10z" mask="url(#f)"/><path fill="#699599" d="M674.49 927.174h299.909V700.026H674.49z" mask="url(#f)"/><path fill="#FAA18A" d="M651.921 927.174h344.698v-12.733H651.921z" mask="url(#f)"/><path fill="#699599" d="M675.396 702.077l148.35-107.329 148.35 107.33z" mask="url(#f)"/><path fill="#92B8AE" d="M847.496 667.336c0 12.014-10.807 21.752-24.139 21.752-13.33 0-24.137-9.738-24.137-21.752s10.806-21.752 24.137-21.752c13.332 0 24.14 9.738 24.14 21.752" mask="url(#f)"/><path fill="#FAA18A" d="M661.255 712.984l-8.369-12.448 170.827-114.84 169.128 114.86-8.428 12.408L823.67 603.8z" mask="url(#f)"/><path fill="#FCD178" d="M710.249 792.212h49.509v-68.321h-49.509zm88.354 0h49.509v-68.321h-49.509z" mask="url(#f)"/><path fill="#FAA18A" d="M796.197 910.197h54.323v-91.784h-54.323z" mask="url(#f)"/><path fill="#92B8AE" d="M775.363 918.686h95.991v-8.489h-95.991z" mask="url(#f)"/><path fill="#92B8AE" d="M760.768 927.174h125.179v-8.488H760.768z" mask="url(#f)"/><path fill="#FCD178" d="M886.958 792.212h49.509v-68.321h-49.509zm-176.709 96.171h49.509v-68.322h-49.509zm176.709 0h49.509v-68.322h-49.509z" mask="url(#f)"/><path fill="#FAA18A" d="M447.018 870.371l-66.4-54.813v109.626z" mask="url(#f)"/><path fill="#FAA18A" d="M398.076 895.37h-66.74c-62.3 0-120.87-24.26-164.922-68.311-44.052-44.052-68.313-102.623-68.313-164.921V558.603h50v103.535c0 101.035 82.2 183.233 183.234 183.233h66.741v50zM680.337 232.4l66.4 54.813V177.587z" mask="url(#f)"/><path fill="#FAA18A" d="M1029.253 544.168h-50v-80.44c0-113.769-92.558-206.328-206.327-206.328h-43.648v-50h43.648c68.468 0 132.837 26.663 181.251 75.077 48.413 48.414 75.076 112.783 75.076 181.251v80.44z" mask="url(#f)"/></g></g></svg>