<svg xmlns="http://www.w3.org/2000/svg" xmlns:xlink="http://www.w3.org/1999/xlink" width="1218" height="977" viewBox="0 0 1218 977"><defs><path id="a" d="M0 .14h1217.954v673.333H0z"/></defs><g fill="none" fill-rule="evenodd"><path fill="#E8E1E1" d="M1187.695 340.833c67.97 217.988-55.196 412.303-200.833 489.947-108.14 57.653-282.27-15.058-406.048 7.532-156.096 28.488-259.346 12-384.221-29.812C68.382 765.571-34.15 607.66 40.967 404.74c48.045-129.79 180.974-141.78 327.018-282.032C472.591 22.25 588.918-2.72 723.13 1.428c237.647 7.346 407.812 157.393 464.564 339.405"/><g transform="translate(0 135.026)"><mask id="b" fill="#fff"><use xlink:href="#a"/></mask><path fill="#9CA8B3" d="M0 301.178l103.028 90.675 522.928 281.62 403.212-243.31 188.786-101.356L622.3.14 151.636 257.923z" mask="url(#b)"/></g><path fill="#F0F0F0" d="M40.968 368.5l88.534 109.333 500.284 309.334L1203.633 443.5l-50.777-51-541.622-278.667-443.975 245.334z"/><path fill="#9ED7FF" d="M317.045 593.794s350.04-212.056 373.118-230.257c25.172-19.852 45.538-67.457 51.123-85.703 9.114-29.778 67.832-62.188 67.832-62.188l-45.759-23.543s-53.774 27.212-66.05 65.73c-8.135 25.524-10.326 45.369-39.403 70.258C628.83 352.98 274.96 567.77 274.96 567.77l42.086 26.023z"/><path fill="#A1C9AB" d="M952.496 465.24l-118.95 199.9 275.063-164.731zm-23.146-1.777l-85.063 122.666-72.911-48.592L787 413.685zm-444.408 51.555l43.399 131.556-51.583 45.972-137.461-84.994zm-26.064-316.996l48.631 34.033-186.905 115.852-47.177-47.407z"/><path fill="#CFCFCF" d="M838.427 230.725l-83.108 55.553-14.033 83.555 188.642 66.371 75.917-119.342zm187.306 96.37L964.648 443.5l174.055 38.886 64.93-38.886-50.777-51zM709.46 382.278l-84.813 52.92 146.73 102.339L787 413.685zm0 167.703l-145.242 95.407L619.77 750.87l92.005-12.805 59.602-35.695 51.501-93.13zm-196.743-50.074L560.745 620.5l138.878-82.963-98.173-93.115zm23.146 170.963l-30.053 39.641 76.292 47.172zM406.244 330.722L426.497 450.5 250.858 552.87l-113.994-70.484zm24.462-12.687l29.354 111.65 85.857-53.925-80.07-78.371zm62.987-33.535l86.727 68.74 58.445-39.703-99.24-55.704zm74.575-40l76.962 35.259 54.393-69.333-34.71-26.074zm-313.54 66.333l40.415 48.926-146.98 79.407 24.994-83.258zm222.844-123.141l72.758 36.956 126.693-76.966-10.179-5.237-146.026 21.35z"/><path fill="#F0F0F0" d="M556.704 386.007l39.626 40.21 37.615-25.666-44.412-37.014z"/><path fill="#8CA0B3" d="M143.484 474.721l486.386 300.74 557.653-333.969-40.642-40.82L611.4 125.164 177.995 364.66a10.003 10.003 0 0 1-3.89 1.202L60.902 376.646l82.583 98.075zm486.303 322.445a9.992 9.992 0 0 1-5.26-1.495l-492.921-304.78a9.998 9.998 0 0 1-2.391-2.064L33.319 374.94a9.998 9.998 0 0 1 6.7-16.396l130.12-12.395 436.258-241.07a9.997 9.997 0 0 1 9.412-.138l541.622 278.666a10 10 0 0 1 2.512 1.837l50.777 51a9.997 9.997 0 0 1-1.95 15.634L634.925 795.745a9.986 9.986 0 0 1-5.137 1.42z"/><path fill="#FFF" d="M714.09 534.648c0 31.776-25.154 57.536-56.184 57.536-31.029 0-56.182-25.76-56.182-57.536s25.153-57.536 56.182-57.536c31.03 0 56.183 25.76 56.183 57.536"/><path fill="#FF4F8A" d="M657.906 587.981c-28.763 0-52.079-23.878-52.079-53.333 0-29.456 23.316-53.334 52.08-53.334 28.762 0 52.078 23.878 52.078 53.334 0 29.455-23.316 53.333-52.079 53.333m0-130.963c-41.865 0-75.804 34.756-75.804 77.63 0 74.074 75.804 114.074 75.804 114.074s75.804-41.037 75.804-114.074c0-42.874-33.939-77.63-75.804-77.63"/><path fill="#4F86FF" d="M681.106 521.601v35.445h-46.408v-35.445l23.204-12.542z"/><path fill="#4F86FF" d="M687.583 526.878l-29.682-15.989-29.67 15.988-2.275-4.424 31.945-17.213 31.955 17.212z"/><path fill="#FFF" d="M941.106 206.426c0 31.776-25.154 57.536-56.183 57.536-31.03 0-56.183-25.76-56.183-57.536s25.154-57.536 56.183-57.536 56.183 25.76 56.183 57.536"/><path fill="#FF4F8A" d="M884.923 259.76c-28.763 0-52.079-23.879-52.079-53.334 0-29.456 23.316-53.334 52.079-53.334 28.762 0 52.079 23.878 52.079 53.334 0 29.455-23.317 53.333-52.079 53.333m0-130.963c-41.866 0-75.805 34.756-75.805 77.63 0 74.074 75.805 114.074 75.805 114.074s75.804-41.037 75.804-114.074c0-42.874-33.939-77.63-75.804-77.63"/><path fill="#4F86FF" d="M908.122 193.38v35.444h-46.409V193.38l23.205-12.542z"/><path fill="#4F86FF" d="M914.599 198.656l-29.681-15.989-29.672 15.988-2.273-4.424 31.945-17.213 31.954 17.212z"/><path fill="#9CA8B3" d="M273.422 443.5c0 11.23-27.263 20.333-60.894 20.333-33.629 0-60.892-9.103-60.892-20.333 0-11.23 27.263-20.333 60.892-20.333 33.631 0 60.894 9.103 60.894 20.333m389.195 205.222c0 11.229-27.264 20.333-60.894 20.333-33.63 0-60.893-9.104-60.893-20.333 0-11.23 27.263-20.333 60.893-20.333 33.63 0 60.894 9.103 60.894 20.333M883.77 320.5c0 11.23-27.263 20.333-60.893 20.333-33.63 0-60.893-9.103-60.893-20.333 0-11.23 27.263-20.333 60.893-20.333 33.63 0 60.893 9.103 60.893 20.333"/><path fill="#FFF" d="M329.61 329.685c0 31.776-25.153 57.536-56.183 57.536s-56.182-25.76-56.182-57.536 25.153-57.536 56.182-57.536c31.03 0 56.183 25.76 56.183 57.536"/><path fill="#FF4F8A" d="M273.427 383.018c-28.763 0-52.08-23.878-52.08-53.333 0-29.456 23.317-53.334 52.08-53.334 28.763 0 52.079 23.878 52.079 53.334 0 29.455-23.316 53.333-52.08 53.333m0-130.963c-41.864 0-75.803 34.756-75.803 77.63 0 74.074 75.804 114.074 75.804 114.074s75.804-41.037 75.804-114.074c0-42.874-33.94-77.63-75.804-77.63"/><path fill="#4F86FF" d="M296.626 316.639v35.445h-46.408v-35.445l23.204-12.543z"/><path fill="#4F86FF" d="M303.104 321.915l-29.682-15.989-29.671 15.988-2.274-4.424 31.945-17.213 31.955 17.212z"/><path fill="#CCE8C8" d="M288.072 185.788l-40.16-23.956-46.763.197 10.379-45.021-14.935-43.92 46.575-3.869 37.53-27.341 18.407 42.631 38.13 27.022-35.197 30.216zm127.522 731.164l10.766-12.644 2.588-16.402 15.352 6.331 16.399-2.607-1.277 16.556 7.547 14.792-16.141 3.902-11.735 11.748-8.698-14.145zm-64.901 10.818l-39.57 14.9-25.99 33.356-26.398-33.031-39.753-14.41 23.256-35.313 1.419-42.26 40.772 11.206 40.63-11.71 1.944 42.24z"/></g></svg>