<svg xmlns="http://www.w3.org/2000/svg" xmlns:xlink="http://www.w3.org/1999/xlink" width="1162" height="982" viewBox="0 0 1162 982"><defs><path id="a" d="M.176.356H133.51v133.333H.176z"/></defs><g fill="none" fill-rule="evenodd"><path fill="#E8E1E1" d="M1149.33 445.962c46.172 133.734-38.383 256.33-181.296 321.957-148.162 68.038-121.639 150.438-299.356 201.466-177.718 51.03-361.426-67.293-429.83-170.095C147.442 661.92 19.185 654.405 2.412 495.55-14.361 336.692 54.766 130.282 259.599 75.17 569.388-8.184 701.772 98.466 855.042 199.096c166.548 109.347 248.943 115.529 294.288 246.866"/><path fill="#FFF" d="M719.205 123.876H407.803L187.608 344.07v311.402l220.195 220.195h311.402l220.194-220.195V344.07z"/><path fill="#E09470" d="M509.616 645.703c8.905 10.005 17.477 10.543 28.322 4.236l-12.492-20.065-15.83 15.83zm-61.286 52.324l35.41 70.276c7.214 14.316 26.319 17.387 37.655 6.051l16.088-16.087a23.531 23.531 0 0 0 4.376-27.23l-42.396-84.141-51.133 51.131z"/><path fill="#D68267" d="M463.418 727.97l51.136-51.125-15.091-29.95-53.208 46.32z"/><path fill="#ECCA5F" d="M670.245 439.06c-9.659 21.5-22.729 41.15-29.89 51.25-3.219 4.53-5.24 7.14-5.24 7.14l-2.34-2.34-23.45-23.46-68.84-68.84s26.601-21.77 57.151-36.36c26.649-12.74 56.309-20 73.92-2.57 17.75 17.57 10.969 47.87-1.311 75.18"/><path fill="#ECB45F" d="M670.245 439.06c-9.659 21.5-22.729 41.15-29.89 51.25-3.219 4.53-5.24 7.14-5.24 7.14l-2.34-2.34-23.45-23.46c17.29-13.72 30.731-33.79 40.61-52.9 14.75-28.5 21.621-54.87 21.621-54.87 17.75 17.57 10.969 47.87-1.311 75.18"/><path fill="#ECCA5F" d="M540.515 619.43l-82.68 82.67c-27.74 27.74-72.71 27.74-100.44 0l-17.33-17.32v-.01l-8.56-8.55c-27.73-27.74-27.73-72.71.01-100.45l82.68-82.67 86.08 86.09.08.08 40.16 40.16z"/><path fill="#E09470" d="M749.705 518.52l-92.75 44.74-116.439 56.17-40.161-40.16-.08-.08-86.08-86.09 100.91-209.19 82.531 82.54 92.359 92.36 43.41 43.41z"/><path fill="#D68267" d="M749.705 518.52l-92.75 44.74-116.439 56.17-40.161-40.16-.08-.08 98.76-62.66 33.74-21.42 7.58-4.8 49.64-31.5 43.41 43.41z"/><path fill="#ECB45F" d="M540.515 619.43l-82.68 82.67c-27.74 27.74-72.71 27.74-100.44 0l-17.33-17.32v-.01s28.56 20.74 51.98-2.37c23.41-23.11 108.23-103.21 108.23-103.21l.08.08 40.16 40.16z"/><path fill="#E09470" d="M476.675 656.12a5 5 0 0 1-3.535-8.536l28.41-28.41a5 5 0 0 1 7.07 7.072l-28.41 28.41a4.983 4.983 0 0 1-3.535 1.465M463.653 643.1a5 5 0 0 1-3.535-8.536l28.411-28.41a5 5 0 0 1 7.07 7.07l-28.41 28.412a4.983 4.983 0 0 1-3.536 1.464m-13.021-13.021a5 5 0 0 1-3.535-8.536l28.41-28.41a5 5 0 0 1 7.07 7.07l-28.41 28.412a4.983 4.983 0 0 1-3.535 1.464"/><path fill="#E36864" d="M915.26 645.116l-90.403 90.404-496.242-496.24 90.405-90.405h290.69l205.55 205.55v290.691zm-205.55 205.55H419.02l-205.55-205.55v-290.69l58.577-58.578 496.24 496.241-58.576 58.577zm248.23-524.275L737.744 106.197a25 25 0 0 0-17.677-7.322H408.664a25 25 0 0 0-17.677 7.322L170.792 326.391a25.004 25.004 0 0 0-7.322 17.678v311.402c0 6.63 2.634 12.99 7.322 17.678l220.195 220.195a25 25 0 0 0 17.677 7.322h311.403a25 25 0 0 0 17.677-7.322L957.939 673.15a25.002 25.002 0 0 0 7.322-17.678V344.07c0-6.63-2.634-12.989-7.322-17.678z"/><path fill="#E3ACAA" d="M732.463 343.654a12.48 12.48 0 0 1-10.006-4.997c-4.145-5.521-3.03-13.356 2.49-17.501l44.604-33.483 27.369-48.595a12.514 12.514 0 0 1 3.388-3.863l46.696-35.053c5.522-4.145 13.356-3.028 17.5 2.492 4.146 5.52 3.029 13.357-2.492 17.5l-44.597 33.479-27.37 48.595a12.524 12.524 0 0 1-3.386 3.863l-46.701 35.059a12.452 12.452 0 0 1-7.495 2.504m-81.407-48.807c-1.832 0-3.69-.404-5.447-1.256-6.212-3.014-8.805-10.492-5.79-16.703l18.759-38.669-3.106-42.867a12.5 12.5 0 0 1 1.222-6.359l20.221-41.679c3.014-6.212 10.495-8.803 16.704-5.79 6.21 3.013 8.803 10.491 5.79 16.703L680.65 196.89l3.105 42.868a12.502 12.502 0 0 1-1.221 6.36L662.31 287.8c-2.16 4.454-6.617 7.047-11.255 7.047M781.1 423.017c-6.436.001-11.9-4.937-12.442-11.466-.572-6.88 4.543-12.92 11.422-13.492l45.993-3.818 38.736-25.087a12.505 12.505 0 0 1 5.762-1.966l49.113-4.076c6.889-.577 12.92 4.544 13.492 11.424.57 6.88-4.543 12.92-11.423 13.49l-45.988 3.817-38.736 25.087a12.492 12.492 0 0 1-5.76 1.965l-49.12 4.08c-.352.028-.702.042-1.048.042"/><path fill="#FFFB87" d="M388.004 554.263a7.501 7.501 0 0 1-5.304-12.803l8.077-8.077a7.502 7.502 0 0 1 10.608 0 7.5 7.5 0 0 1 0 10.606l-8.077 8.077a7.478 7.478 0 0 1-5.304 2.197M349.02 663.914a7.478 7.478 0 0 1-5.304-2.197c-10.854-10.854-16.832-25.286-16.832-40.636 0-15.351 5.978-29.783 16.832-40.637l14.897-14.897a7.5 7.5 0 0 1 10.606 0 7.498 7.498 0 0 1 .001 10.606l-14.896 14.897c-8.023 8.022-12.44 18.687-12.44 30.03 0 11.344 4.417 22.009 12.44 30.03a7.501 7.501 0 0 1-5.304 12.804"/><path fill="#E3ACAA" d="M201.656 857.875c0 34.61-28.058 62.667-62.667 62.667-34.61 0-62.667-28.057-62.667-62.667s28.057-62.667 62.667-62.667 62.667 28.057 62.667 62.667"/><path fill="#FFF" d="M165.058 891.442a7.478 7.478 0 0 1-5.304-2.197l-52.136-52.135a7.5 7.5 0 0 1 10.607-10.606l52.137 52.135a7.501 7.501 0 0 1-5.304 12.803"/><path fill="#FFF" d="M112.92 891.442a7.501 7.501 0 0 1-5.304-12.803l52.138-52.135a7.5 7.5 0 0 1 10.607 10.606l-52.136 52.135a7.478 7.478 0 0 1-5.304 2.197"/><path fill="#E3ACAA" d="M1026.255 826.305c0 17.435-14.135 31.57-31.57 31.57-17.435 0-31.57-14.135-31.57-31.57 0-17.435 14.135-31.569 31.57-31.569 17.435 0 31.57 14.134 31.57 31.57"/><path fill="#FFF" d="M1007.817 843.216a3.767 3.767 0 0 1-2.672-1.107l-26.265-26.265a3.778 3.778 0 1 1 5.344-5.342l26.265 26.264a3.779 3.779 0 0 1-2.672 6.45"/><path fill="#FFF" d="M981.553 843.216a3.779 3.779 0 0 1-2.672-6.45l26.265-26.264a3.778 3.778 0 0 1 5.344 5.342l-26.265 26.265a3.767 3.767 0 0 1-2.672 1.107"/><path fill="#E3ACAA" d="M994.685 67.666c0 30.058-24.367 54.424-54.425 54.424-30.057 0-54.424-24.366-54.424-54.424s24.367-54.424 54.424-54.424c30.058 0 54.425 24.366 54.425 54.424"/><path fill="#FFF" d="M962.9 96.82a6.49 6.49 0 0 1-4.605-1.908l-45.28-45.28a6.514 6.514 0 0 1 9.211-9.211l45.28 45.279a6.514 6.514 0 0 1-4.606 11.12"/><path fill="#FFF" d="M917.621 96.82a6.514 6.514 0 0 1-4.605-11.12l45.279-45.278a6.513 6.513 0 0 1 9.211 9.21l-45.28 45.28a6.49 6.49 0 0 1-4.605 1.907"/><path fill="#E3ACAA" d="M109.496 195.487c0 20.112-16.304 36.416-36.416 36.416S36.664 215.6 36.664 195.487s16.304-36.416 36.416-36.416 36.416 16.304 36.416 36.416"/><path fill="#FFF" d="M88.228 214.994a4.351 4.351 0 0 1-3.082-1.276L54.85 183.42a4.358 4.358 0 1 1 6.164-6.164l30.297 30.297a4.358 4.358 0 0 1-3.082 7.44"/><path fill="#FFF" d="M57.931 214.994a4.358 4.358 0 0 1-3.082-7.44l30.297-30.297a4.36 4.36 0 0 1 6.164 6.164l-30.297 30.297a4.351 4.351 0 0 1-3.082 1.276"/><g transform="translate(163 .644)"><mask id="b" fill="#fff"><use xlink:href="#a"/></mask><path fill="#E3ACAA" d="M133.51 67.022c0 36.82-29.848 66.667-66.667 66.667-36.82 0-66.667-29.848-66.667-66.667S30.024.355 66.843.355s66.667 29.848 66.667 66.667" mask="url(#b)"/></g><path fill="#FFF" d="M257.575 103.377a7.954 7.954 0 0 1-5.642-2.337L196.47 45.576a7.976 7.976 0 0 1 0-11.283 7.978 7.978 0 0 1 11.283 0l55.464 55.464a7.978 7.978 0 0 1-5.642 13.62"/><path fill="#FFF" d="M202.111 103.377a7.978 7.978 0 0 1-5.642-13.62l55.464-55.464a7.978 7.978 0 0 1 11.283 0 7.976 7.976 0 0 1 0 11.283l-55.463 55.464a7.954 7.954 0 0 1-5.642 2.337"/><path fill="#E8E1E1" d="M88.032 662.968c-12.022 0-21.803 9.78-21.803 21.802s9.781 21.802 21.803 21.802c12.021 0 21.802-9.78 21.802-21.802s-9.78-21.802-21.802-21.802m0 58.604c-20.293 0-36.803-16.509-36.803-36.802s16.51-36.802 36.803-36.802c20.293 0 36.802 16.51 36.802 36.802 0 20.293-16.509 36.802-36.802 36.802m926.563-525.816c-12.022 0-21.803 9.78-21.803 21.802s9.78 21.802 21.803 21.802c12.02 0 21.802-9.78 21.802-21.803 0-12.021-9.781-21.801-21.802-21.801m0 58.603c-20.293 0-36.803-16.508-36.803-36.802 0-20.292 16.51-36.801 36.803-36.801 20.293 0 36.802 16.508 36.802 36.802 0 20.293-16.51 36.802-36.802 36.802"/></g></svg>