<svg width="1920" height="4200" viewBox="0 0 1920 4200" fill="none" xmlns="http://www.w3.org/2000/svg"><g clip-path="url(#a)"><path fill-rule="evenodd" clip-rule="evenodd" d="M1450.48 62.389c-180.56 201.039-185.2 106.522-348.43 50.73-115.234-39.382-323.968-74.045-291.348 149.629 46.973 322.123 505.088 252.883 477.928 567.493-27.16 314.609 228.38 349.849 374.2 314.039 243.7-59.84 44.89 163.1 255.32 352.16 174.79 157.04 424.46 22.09 559.25-121.56 85.23-90.83 147.28-201.51 193.54-317.23 51.97-129.972 85.02-268.385 88.13-408.384 2.43-109.284-13.72-219.491-51.32-322.313-32.07-87.67-77.11-184.76-163.95-229.787-66.35-34.402-154.37-33.324-223.88-8.636-82.46 29.288-144.31 97.178-223.26 133.497-32.83 15.105-70.64 24.7-104.98 13.416-35.65-11.715-60.89-43.738-78.21-77.07-17.34-33.332-29.06-69.627-49.57-101.105-36.85-56.576-101.2-93.203-168.29-100.055-22.64-2.315-45.1-1.335-67.03 2.46-69.57 12.514-132.07 51.473-178.1 102.716z" fill="#FF9870"/><path fill-rule="evenodd" clip-rule="evenodd" d="M2365.22-356.489c-85.17 52.26-138.19 142.689-217.78 201.957-33.09 24.644-73.05 44.332-114.07 39.895-42.59-4.613-78.34-34.351-105.57-67.426-27.23-33.074-48.92-70.783-79.25-101.034-54.54-54.377-91.47-125.982-168.02-117.701-106.43 11.509-183.52 8.336-235.84 99.047l-6.88 3.753c-144.4 122.198-191.33 108.248-386.82 84.753-142.102-19.004-351.018 263.93-261.703 505.756 128.625 348.254 555.483 65.94 599.553 423.415 44.06 357.484 337.78 336.134 492.17 261.551 258.02-124.63 88.7 171.313 368.41 332.303 50.88 29.29 102.44 42.1 153.19 42.22 181.9-.39 351.84-160.84 442.65-310.63 73.7-121.579 116.83-259.793 141.14-399.889 14.27-82.244 22.23-165.819 22.34-249.282-.1-78.615-6.56-153.552-20.48-227.301-23.13-122.52-67.22-241.65-133.53-347.442-56.55-90.204-129.8-187.838-237.44-217.459-22.1-6.078-45.33-8.933-68.9-8.997-65.26.182-131.12 20.576-183.17 52.511z" fill="#FAF8F3"/><path fill-rule="evenodd" clip-rule="evenodd" d="M2126.72 1198.91c14.91-46.56 23.51-95.19 24.28-144.1.86-54.01-3.34-115.813-40.92-158.152-28.71-32.349-76.49-50.022-119.17-51.1-27.8-.702-54.66 6.174-81.53 13.055-22.07 5.651-44.15 11.305-66.79 12.769-20.86 1.354-43.28-1.305-59.5-14.524-16.83-13.724-23.82-36.259-26.27-57.862-.95-8.385-1.35-16.837-1.76-25.283-.63-13.314-1.27-26.615-4.05-39.623-8.18-38.21-35.35-71.348-70.18-88.964-11.75-5.945-24.09-10.074-36.72-12.572-40.19-7.668-82.04.418-117.53 18.559-99.89 51.053-119.33 38.712-150.62 4.034 5.72 17.889 10.07 38.039 12.88 60.779 44.06 357.484 337.78 336.134 492.17 261.551 137.24-66.289 153.58-13.598 180.89 74.483 13.55 43.68 29.79 96.06 64.82 146.95z" fill="#ECCA5F"/><path fill-rule="evenodd" clip-rule="evenodd" d="M255.693 811.937c-59.796 122.598-452.351 77.731-534.294 37.764-81.943-39.966 7.065-231.837 66.86-354.435 59.795-122.598 232.446 109.926 314.389 149.892 81.944 39.966 212.84 44.181 153.045 166.779z" fill="#FAF8F5"/><path fill-rule="evenodd" clip-rule="evenodd" d="M1976.44 376.558s-11.9-13.699-19.2-19.976c-13.15-11.305-28.22-31.29-76.43-16.563-3.75 1.147-7.38 2.663-10.99 4.194-4.25 1.799-17.42 1.845-30.9-8.858-21.43-17.015-16.12-18.953-45.47-19.35-34.16-.466-56.37 32.706-82.92 43.605-16.89 6.938-56.76 14.386-67.53 15.413l333.44 1.535z" fill="#E4DBB4"/><path fill-rule="evenodd" clip-rule="evenodd" d="M12 171.323s7.143-8.217 11.521-11.982c7.885-6.781 16.927-18.768 45.843-9.934 2.25.687 4.425 1.597 6.59 2.515 2.55 1.079 10.446 1.107 18.534-5.313 12.853-10.206 9.665-11.368 27.272-11.606 20.488-.28 33.812 19.617 49.733 26.154 10.132 4.162 34.047 8.629 40.507 9.245l-200 .921zM1678 1469.32s-7.14-8.21-11.52-11.98c-7.89-6.78-16.93-18.77-45.84-9.93-2.25.68-4.43 1.59-6.59 2.51-2.55 1.08-10.45 1.11-18.54-5.31-12.85-10.21-9.66-11.37-27.27-11.61-20.49-.28-33.81 19.62-49.73 26.16-10.14 4.16-34.05 8.63-40.51 9.24l200 .92zm-107.38-813.905C1569.24 644.78 1563.71 631 1542 631s-27.23 13.78-28.62 24.415c-.76 5.83-.33 11.747.87 17.5 6.64 31.63 23.04 50.584 26.91 54.727.46.477 1.22.477 1.67 0 3.88-4.143 20.28-23.097 26.92-54.727 1.21-5.753 1.63-11.67.87-17.5z" fill="#A28CBD"/><path fill-rule="evenodd" clip-rule="evenodd" d="M1544.5 677c9.11 0 16.5-7.387 16.5-16.5s-7.39-16.5-16.5-16.5-16.5 7.387-16.5 16.5 7.39 16.5 16.5 16.5z" fill="#fff"/><path fill-rule="evenodd" clip-rule="evenodd" d="M1172 740.957v21.086c0 2.176 1.58 3.957 3.5 3.957s3.5-1.781 3.5-3.957v-21.086c0-2.176-1.58-3.957-3.5-3.957s-3.5 1.781-3.5 3.957z" fill="#6E4747"/><path fill-rule="evenodd" clip-rule="evenodd" d="M1191 743.625c0 6.206-6.72 12.375-15.01 12.375-8.28 0-15.01-7.884-14.99-12.375.09-21.884 12.45-39.625 15-39.625 3.26 0 15 17.74 15 39.625z" fill="#93B081"/><path fill-rule="evenodd" clip-rule="evenodd" d="M1114 741.957v21.086c0 2.176 1.58 3.957 3.5 3.957s3.5-1.781 3.5-3.957v-21.086c0-2.176-1.58-3.957-3.5-3.957s-3.5 1.781-3.5 3.957z" fill="#6E4747"/><path fill-rule="evenodd" clip-rule="evenodd" d="M1138 731.151c0 8.951-9.64 17.849-21.51 17.849-11.88 0-21.52-11.372-21.49-17.849.13-31.562 17.85-57.151 21.5-57.151 4.67 0 21.5 25.587 21.5 57.151z" fill="#ECCA5F"/><path fill-rule="evenodd" clip-rule="evenodd" d="M292 770.5c0 19.054-15.446 34.5-34.5 34.5-19.054 0-34.5-15.446-34.5-34.5 0-19.054 15.446-34.5 34.5-34.5 19.054 0 34.5 15.446 34.5 34.5z" fill="#6DBBB8"/><path fill-rule="evenodd" clip-rule="evenodd" d="M283 767.498c.001 13.602-9.612 25.309-22.954 27.955-13.342 2.646-26.695-4.506-31.886-17.078-5.191-12.573-.773-27.062 10.55-34.599 11.322-7.537 26.394-6.022 35.99 3.618a28.506 28.506 0 0 1 8.3 20.104z" fill="#FCFCFC"/><path fill-rule="evenodd" clip-rule="evenodd" d="M260.008 773L272 752l-21 11.992 9.008 9.008z" fill="#F03C25"/><path fill-rule="evenodd" clip-rule="evenodd" d="M239 785l21-11.992-9.008-9.008L239 785z" fill="#FC966E"/><path fill-rule="evenodd" clip-rule="evenodd" d="M1565.62 654.415C1564.24 643.78 1558.71 630 1537 630s-27.23 13.78-28.62 24.415c-.76 5.83-.33 11.747.87 17.5 6.64 31.63 23.04 50.584 26.91 54.727.46.477 1.22.477 1.67 0 3.88-4.143 20.28-23.097 26.92-54.727 1.21-5.753 1.63-11.67.87-17.5z" fill="#A28CBD"/><path fill-rule="evenodd" clip-rule="evenodd" d="M1539.5 676c9.11 0 16.5-7.387 16.5-16.5s-7.39-16.5-16.5-16.5-16.5 7.387-16.5 16.5 7.39 16.5 16.5 16.5z" fill="#fff"/><path fill-rule="evenodd" clip-rule="evenodd" d="M615 1372.96v21.08c0 2.18 1.575 3.96 3.5 3.96s3.5-1.78 3.5-3.96v-21.08c0-2.18-1.575-3.96-3.5-3.96s-3.5 1.78-3.5 3.96z" fill="#6E4747"/><path fill-rule="evenodd" clip-rule="evenodd" d="M633 1375.86c0 6.09-6.501 12.14-14.509 12.14s-14.508-7.73-14.491-12.14c.085-21.46 12.038-38.86 14.5-38.86 3.147 0 14.5 17.4 14.5 38.86z" fill="#93B081"/><path fill-rule="evenodd" clip-rule="evenodd" d="M678 1368.64v24.72c0 2.55 1.8 4.64 4 4.64s4-2.09 4-4.64v-24.72c0-2.55-1.8-4.64-4-4.64s-4 2.09-4 4.64z" fill="#6E4747"/><path fill-rule="evenodd" clip-rule="evenodd" d="M705 1355.82c0 10.62-11.208 21.18-25.015 21.18s-25.015-13.49-24.985-21.18c.147-37.45 20.755-67.82 25-67.82 5.425 0 25 30.36 25 67.82z" fill="#ECCA5F"/><path fill-rule="evenodd" clip-rule="evenodd" d="M84.029 1168.5c315.131-51.32 737.995-7.17 1037.011 434.81 299.02 441.98 624.6 323.77 746.58 311.3 309.5-31.64-7.52 536.8-745.79 667.2-738.268 130.39-1175.32-157.39-1364.238-361.7-188.916-204.31 11.305-1000.29 326.437-1051.61z" fill="#FAF8F5"/><path fill-rule="evenodd" clip-rule="evenodd" d="M261.308 1503.12c35.159-46.99 51.052-106.03 49.984-163.2-2.446-130.74 15.679-166.66 57.114-185.48-99.837-7.16-196.313-.28-284.377 14.06-220.076 35.84-384.109 434.86-398.698 741.9 35.098-23.9 64.543-58.16 83.219-94.11 18.387-35.4 26.411-74.35 34.44-113.32 6.594-32.01 13.191-64.04 25.536-94.13 11.378-27.76 28.908-54.99 56.148-67.58 28.282-13.07 61.737-7.92 91.133 2.51 11.41 4.05 22.562 8.84 33.706 13.63 17.567 7.56 35.116 15.1 53.639 19.69 54.412 13.49 114.231-.71 158.848-34.53 15.055-11.41 28.14-24.72 39.308-39.44z" fill="#FF9870"/><path fill-rule="evenodd" clip-rule="evenodd" d="M169.359 1406.33c38.772-28.37 65.346-70.8 78.195-115.81 38.397-134.54 65.532-133.88 127.716-132.37 10.704.26 22.446.55 35.463.17-114.848-12.83-226.25-6.18-326.704 10.18-85.281 13.89-162.147 82.32-225.162 178.79 2.14-.52 4.314-.94 6.522-1.24 25.269-3.47 50.224 8.58 70.74 23.78 7.964 5.9 15.546 12.32 23.123 18.74 11.943 10.12 23.875 20.23 37.276 28.25 39.368 23.59 89.595 26.79 132.619 10.98 14.516-5.33 27.946-12.62 40.212-21.47z" fill="#ECCA5F"/><path fill-rule="evenodd" clip-rule="evenodd" d="M-262.023 2993.56c-158.22 13.45-198.444 203.41-333.28 353.59-143.489 159.82-240.43 313.75 90.25 340.5 352.064 28.48 341.376 131.99 691.008 201.7 346.118 69.01 487.78 57.77 879.955 127.97 392.18 70.2 785.76-225.55 884.57-308.39 98.8-82.85 368.72 392.28 387.09 298.34 18.36-93.94-29.36-63.02 148.41-149.7 177.76-86.68-558.51-106.24-299.74-248.13 166.56-91.33 46.51-202.66-80.38-341.66-150.57-164.93-500.71-228.34-703.97-219.37-203.25 8.96-512.628 119.34-991.946 146.25-326.884 18.35-513.747-214.55-671.967-201.1z" fill="#FAF8F5"/><mask id="b" maskUnits="userSpaceOnUse" x="-729" y="2992" width="3244" height="1036"><path fill-rule="evenodd" clip-rule="evenodd" d="M-262.023 2993.56c-158.22 13.45-198.444 203.41-333.28 353.59-143.489 159.82-240.43 313.75 90.25 340.5 352.064 28.48 341.376 131.99 691.008 201.7 346.118 69.01 487.78 57.77 879.955 127.97 392.18 70.2 785.76-225.55 884.57-308.39 98.8-82.85 368.72 392.28 387.09 298.34 18.36-93.94-29.36-63.02 148.41-149.7 177.76-86.68-558.51-106.24-299.74-248.13 166.56-91.33 46.51-202.66-80.38-341.66-150.57-164.93-500.71-228.34-703.97-219.37-203.25 8.96-512.628 119.34-991.946 146.25-326.884 18.35-513.747-214.55-671.967-201.1z" fill="#fff"/></mask><g mask="url(#b)"><path fill-rule="evenodd" clip-rule="evenodd" d="M-35.138 3582.93c21.517 83.68 30.906 120.2 225.864 119.17 65.23-.34 132.179 18.67 184.908 59.45 16.515 12.94 31.378 28.05 44.022 45.38 37.482 51.35 52.211 119.71 35.496 181.49-5.691 21.03-14.728 40.91-23.775 60.8-5.738 12.63-11.48 25.26-16.374 38.19-12.614 33.33-19.315 71.36-5.098 103.78 12.299 28.05 38.272 47.36 66.172 60.7 36.301 3.79 72.482 8 106.578 21.47 13.537 5.35 27.009 12.15 39.958 20.18 33.964 7.99 67.329 17.57 98.133 34.16 61.29 32.99 117.577 93.95 135.136 162.3 22.982 89.45-17.183 182.73-58.883 260.92-48.902 91.71-116.563 173.09-195.287 240.87-100.85 86.83-219.47 151.67-344.058 197.91-110.923 41.17-228.243 68.07-346.166 66.12-186.503-3.07-439.333-92.15-438.672-314.42.373-125.26 62.561-192.43 108.504-242.06 52.202-56.38 83.431-90.11-20.827-160.66-117.286-79.38-253.601-280.76-14.245-461.76 32.891-24.87 54.104-49.87 66.741-75.1-9.429-22.85-22.356-45.7-35.565-69.06-42.892-75.85-88.753-156.94-27.46-259.73-12.443-63.72-5.204-130.8 54.429-202.43 137.414-165.05 285.814-86.04 330.69 19.71 15.14 35.68 23.052 66.45 29.78 92.62z" fill="#ECCA5F"/><path fill-rule="evenodd" clip-rule="evenodd" d="M38.349 3613.66c-9.903 85.83-14.225 123.29 168.151 192.2 61.02 23.06 116.711 64.8 151.326 121.76 10.777 18.01 19.238 37.44 24.833 58.14 16.592 61.37 5.843 130.47-31.901 182.16-12.851 17.6-28.411 32.91-43.986 48.25-9.881 9.72-19.768 19.46-28.973 29.78-23.72 26.6-43.605 59.7-41.951 95.06 1.43 30.59 18.757 57.92 40.021 80.37 32.307 16.44 64.319 33.28 91.136 57.91 10.653 9.78 20.733 20.87 29.897 32.92 29.15 19.8 57.183 40.85 80.223 67.63 45.396 52.77 76.097 129.85 67.997 199.95-10.603 91.75-81.527 164.44-148.479 222.5-78.521 68.09-170.85 119.81-268.635 154.88-125.268 44.92-259.249 62.95-392.131 61.47-118.309-1.32-237.479-18.25-346.871-62.33-173.013-69.71-377.127-243.48-296.855-450.75 45.238-116.8 127.367-157.23 188.042-187.09 68.941-33.93 110.183-54.23 38.134-157.46-81.05-116.13-136.143-352.99 152.181-436.19 39.21-11.32 67.785-26.84 88.572-45.61-.541-24.98-4.466-51.27-8.477-78.15-12.901-86.43-26.699-178.87 68.294-252.98 11.366-63.57 42.266-123.21 123.178-168.47 187.436-104.84 297.665 22.1 301.664 136.91 1.348 38.73-2.294 70.3-5.39 97.14zm1795.761 325.05c-298.32-171.95 167.96-698.56-576-864-743.961-165.44 84.71-82.26 84.71-82.26l553.43 127.96 412.04 149.97-49.66 421.9s-126.2 418.37-424.52 246.43z" fill="#FF9870"/><path fill-rule="evenodd" clip-rule="evenodd" d="M1987.8 3790s-95.16-743.43-937.65-699.01c-842.486 44.42-38.72-171.96-38.72-171.96l563.63-69.03h438.34l97.6 413.41L1987.8 3790z" fill="#ECCA5F"/><path fill-rule="evenodd" clip-rule="evenodd" d="M1259 3932.26v22.7c0 2.34 1.64 4.25 3.63 4.25 2 0 3.64-1.91 3.64-4.25v-22.7c0-2.34-1.64-4.26-3.64-4.26-1.99 0-3.63 1.92-3.63 4.26zm-69 0v22.7c0 2.34 1.64 4.25 3.63 4.25 2 0 3.64-1.91 3.64-4.25v-22.7c0-2.34-1.64-4.26-3.64-4.26-1.99 0-3.63 1.92-3.63 4.26z" fill="#6E4747"/><path d="M1194 3940c11.6 0 21-11.86 21-26.5s-9.4-26.5-21-26.5-21 11.86-21 26.5 9.4 26.5 21 26.5z" fill="#93B081"/><path fill-rule="evenodd" clip-rule="evenodd" d="M1284.58 3920.36c0 9.61-10.22 19.16-22.8 19.16-12.59 0-22.81-12.21-22.78-19.16.13-33.89 18.92-61.36 22.79-61.36 4.94 0 22.79 27.47 22.79 61.36z" fill="#93B081"/></g></g><defs><clipPath id="a"><path fill="#fff" d="M0 0h1920v4200H0z"/></clipPath></defs></svg>