<svg width="5676" height="4876" viewBox="0 0 5676 4876" fill="none" xmlns="http://www.w3.org/2000/svg"><path fill-rule="evenodd" clip-rule="evenodd" d="M812.029 1577.5c315.131-51.32 737.991-7.17 1037.011 434.81s624.6 323.77 746.58 311.3c309.5-31.64-7.52 536.8-745.79 667.2-738.27 130.39-1175.321-157.39-1364.238-361.7-188.916-204.31 11.305-1000.29 326.437-1051.61z" fill="#FAF8F5"/><path fill-rule="evenodd" clip-rule="evenodd" d="M989.308 1912.12c35.162-46.99 51.052-106.03 49.982-163.2-2.44-130.74 15.68-166.66 57.12-185.48-99.841-7.16-196.317-.28-284.381 14.06-220.076 35.84-384.109 434.86-398.698 741.9 35.098-23.9 64.543-58.16 83.219-94.11 18.387-35.4 26.411-74.35 34.44-113.32 6.594-32.01 13.191-64.04 25.536-94.13 11.378-27.76 28.908-54.99 56.148-67.58 28.282-13.07 61.737-7.92 91.133 2.51 11.411 4.05 22.562 8.84 33.705 13.63 17.568 7.56 35.117 15.1 53.64 19.69 54.412 13.49 114.231-.71 158.848-34.53 15.055-11.41 28.14-24.72 39.308-39.44z" fill="#FF9870"/><path fill-rule="evenodd" clip-rule="evenodd" d="M897.359 1815.33c38.772-28.37 65.346-70.8 78.195-115.81 38.396-134.54 65.536-133.88 127.716-132.37 10.7.26 22.45.55 35.46.17-114.84-12.83-226.247-6.18-326.701 10.18-85.281 13.89-162.147 82.32-225.162 178.79 2.14-.52 4.314-.94 6.522-1.24 25.269-3.47 50.224 8.58 70.74 23.78 7.964 5.9 15.546 12.32 23.123 18.74 11.944 10.12 23.876 20.23 37.276 28.25 39.368 23.59 89.595 26.79 132.619 10.98 14.516-5.33 27.946-12.62 40.212-21.47z" fill="#ECCA5F"/><path fill-rule="evenodd" clip-rule="evenodd" d="M465.977 3761.56c-158.22 13.45-198.444 203.41-333.28 353.59-143.489 159.82-240.43 313.75 90.25 340.5 352.064 28.48 341.376 131.99 691.008 201.7 346.115 69.01 487.785 57.77 879.955 127.97 392.18 70.2 785.76-225.55 884.57-308.39 98.8-82.85 168.06-90.29 235.76-99.49 291.89-39.63 46.51-202.66-80.38-341.66-150.57-164.93-500.71-228.34-703.97-219.37-203.25 8.96-512.63 119.34-991.95 146.25-326.88 18.35-513.743-214.55-671.963-201.1z" fill="#FAF8F5"/><path fill-rule="evenodd" clip-rule="evenodd" d="M2477.63 4618.22c94.84-56.65 166.09-112.15 200.85-141.29 96.16-80.64 164.34-89.84 230.32-98.75 1.82-.25 3.63-.49 5.44-.74 237.57-32.26 119.23-146.26-1.46-262.52-27.59-26.57-55.31-53.27-78.92-79.14-150.57-164.93-500.71-228.34-703.97-219.37-48.78 2.15-103.67 10.14-165.56 21.42 7.1 1.6 14.36 3.23 21.78 4.88 455.72 101.34 457.32 338.21 458.72 546.06.58 85.11 1.12 165.36 32.8 229.45z" fill="#FF9870"/><path fill-rule="evenodd" clip-rule="evenodd" d="M2694.36 4464.05c87.9-68.79 152.15-77.46 214.44-85.87 1.82-.25 3.63-.49 5.44-.74 237.57-32.26 119.23-146.26-1.46-262.52-27.59-26.57-55.31-53.27-78.92-79.14-150.57-164.93-500.71-228.34-703.97-219.37-73.48 3.24-160.84 19.74-265.08 40.75 586.16 6.99 774.02 417.45 829.55 606.89zm-1504.37 239.1c-.23-45.69-15.41-91.34-42.33-128.22-12.65-17.33-27.51-32.44-44.03-45.38-52.72-40.78-119.674-59.79-184.904-59.45-194.958 1.03-204.348-35.49-225.864-119.17-6.727-26.17-14.639-56.94-29.779-92.62-44.876-105.75-193.276-184.76-330.69-19.71-66.078 79.37-67.825 153.15-49.746 222.97 151.89 18.12 227.656 52.57 311.471 90.67 77.523 35.25 161.933 73.63 319.837 105.11 107.095 21.35 194.605 35.02 276.035 45.8z" fill="#ECCA5F"/><path fill-rule="evenodd" clip-rule="evenodd" d="M465.977 3761.56c-158.22 13.45-198.444 203.41-333.28 353.59-143.489 159.82-240.43 313.75 90.25 340.5 352.064 28.48 341.376 131.99 691.008 201.7 346.115 69.01 487.785 57.77 879.955 127.97 392.18 70.2 785.76-225.55 884.57-308.39 98.8-82.85 168.06-90.29 235.76-99.49 291.89-39.63 46.51-202.66-80.38-341.66-150.57-164.93-500.71-228.34-703.97-219.37-203.25 8.96-512.63 119.34-991.95 146.25-326.88 18.35-513.743-214.55-671.963-201.1zM2178.48 471.389c-180.56 201.039-185.2 106.522-348.43 50.73-115.23-39.382-323.97-74.045-291.35 149.629 46.97 322.123 505.09 252.883 477.93 567.492-27.16 314.61 228.38 349.85 374.2 314.04 243.7-59.84 44.89 163.1 255.32 352.16 174.79 157.04 424.46 22.09 559.25-121.56 85.23-90.83 147.28-201.51 193.54-317.23 51.97-129.97 85.02-268.39 88.13-408.38 2.43-109.288-13.72-219.495-51.32-322.317-32.07-87.67-77.11-184.76-163.95-229.787-66.35-34.402-154.37-33.324-223.88-8.637-82.46 29.289-144.31 97.179-223.26 133.498-32.83 15.105-70.64 24.7-104.98 13.416-35.65-11.715-60.89-43.738-78.21-77.07-17.34-33.332-29.06-69.627-49.57-101.105-36.85-56.576-101.2-93.203-168.29-100.055-22.64-2.315-45.1-1.335-67.03 2.46-69.57 12.514-132.07 51.473-178.1 102.716z" fill="#FF9870"/><path fill-rule="evenodd" clip-rule="evenodd" d="M3093.22 52.511c-85.17 52.26-138.19 142.689-217.78 201.957-33.09 24.644-73.05 44.332-114.07 39.895-42.59-4.613-78.34-34.351-105.57-67.426-27.23-33.074-48.92-70.783-79.25-101.034-54.54-54.377-91.47-125.982-168.02-117.701-106.43 11.51-183.52 8.336-235.84 99.047l-6.88 3.753c-144.4 122.198-191.33 108.248-386.82 84.753-142.1-19.004-351.02 263.931-261.7 505.756 128.62 348.249 555.48 65.94 599.55 423.419 44.06 357.48 337.78 336.13 492.17 261.55 258.02-124.63 88.7 171.31 368.41 332.3 50.88 29.29 102.44 42.1 153.19 42.22 181.9-.39 351.84-160.84 442.65-310.63 73.7-121.58 116.83-259.79 141.14-399.89 14.27-82.243 22.23-165.818 22.34-249.281-.1-78.615-6.56-153.552-20.48-227.301-23.13-122.519-67.22-241.649-133.53-347.442-56.55-90.204-129.8-187.838-237.44-217.46-22.1-6.077-45.33-8.932-68.9-8.996-65.26.182-131.12 20.576-183.17 52.511z" fill="#FAF8F3"/><path fill-rule="evenodd" clip-rule="evenodd" d="M2854.72 1607.91c14.91-46.56 23.51-95.19 24.28-144.1.86-54.01-3.34-115.81-40.92-158.15-28.71-32.35-76.49-50.02-119.17-51.1-27.8-.7-54.66 6.17-81.53 13.05-22.07 5.65-44.15 11.31-66.79 12.77-20.86 1.36-43.28-1.3-59.5-14.52-16.83-13.73-23.82-36.26-26.27-57.86-.95-8.39-1.35-16.84-1.76-25.29-.63-13.31-1.27-26.61-4.05-39.62-8.18-38.21-35.35-71.35-70.18-88.96-11.75-5.95-24.09-10.08-36.72-12.58-40.19-7.66-82.04.42-117.53 18.56-99.89 51.06-119.33 38.72-150.62 4.04 5.72 17.89 10.07 38.04 12.88 60.78 44.06 357.48 337.78 336.13 492.17 261.55 137.24-66.29 153.58-13.6 180.89 74.48 13.55 43.68 29.79 96.06 64.82 146.95z" fill="#ECCA5F"/><path fill-rule="evenodd" clip-rule="evenodd" d="M983.693 1220.94c-59.796 122.59-452.351 77.73-534.294 37.76-81.943-39.97 7.065-231.84 66.86-354.434 59.795-122.598 232.446 109.924 314.389 149.894 81.944 39.96 212.842 44.18 153.045 166.78z" fill="#FAF8F5"/><path fill-rule="evenodd" clip-rule="evenodd" d="M2704.44 785.558s-11.9-13.699-19.2-19.976c-13.15-11.305-28.22-31.29-76.43-16.563-3.75 1.147-7.38 2.663-10.99 4.194-4.25 1.799-17.42 1.845-30.9-8.858-21.43-17.015-16.12-18.953-45.47-19.35-34.16-.466-56.37 32.706-82.92 43.605-16.89 6.938-56.76 14.386-67.53 15.413l333.44 1.535z" fill="#E4DBB4"/><path fill-rule="evenodd" clip-rule="evenodd" d="M740 580.323s7.143-8.217 11.521-11.982c7.885-6.781 16.927-18.768 45.843-9.934 2.249.687 4.425 1.597 6.589 2.515 2.551 1.079 10.447 1.107 18.535-5.313 12.853-10.206 9.665-11.368 27.272-11.606 20.488-.28 33.812 19.617 49.733 26.154 10.132 4.162 34.047 8.629 40.507 9.245l-200 .921zM2406 1878.32s-7.14-8.21-11.52-11.98c-7.89-6.78-16.93-18.77-45.84-9.93-2.25.68-4.43 1.59-6.59 2.51-2.55 1.08-10.45 1.11-18.54-5.31-12.85-10.21-9.66-11.37-27.27-11.61-20.49-.28-33.81 19.62-49.73 26.16-10.14 4.16-34.05 8.63-40.51 9.24l200 .92zm-107.38-813.91c-1.38-10.63-6.91-24.41-28.62-24.41s-27.23 13.78-28.62 24.41c-.76 5.83-.33 11.75.87 17.5 6.64 31.63 23.04 50.59 26.91 54.73.46.48 1.22.48 1.67 0 3.88-4.14 20.28-23.1 26.92-54.73 1.21-5.75 1.63-11.67.87-17.5" fill="#A28CBD"/><path fill-rule="evenodd" clip-rule="evenodd" d="M2272.5 1086c9.11 0 16.5-7.39 16.5-16.5s-7.39-16.5-16.5-16.5-16.5 7.39-16.5 16.5 7.39 16.5 16.5 16.5z" fill="#fff"/><path fill-rule="evenodd" clip-rule="evenodd" d="M1900 1149.96v21.08c0 2.18 1.58 3.96 3.5 3.96s3.5-1.78 3.5-3.96v-21.08c0-2.18-1.58-3.96-3.5-3.96s-3.5 1.78-3.5 3.96z" fill="#6E4747"/><path fill-rule="evenodd" clip-rule="evenodd" d="M1919 1152.62c0 6.21-6.72 12.38-15.01 12.38-8.28 0-15.01-7.88-14.99-12.38.09-21.88 12.45-39.62 15-39.62 3.26 0 15 17.74 15 39.62" fill="#93B081"/><path fill-rule="evenodd" clip-rule="evenodd" d="M1842 1150.96v21.08c0 2.18 1.58 3.96 3.5 3.96s3.5-1.78 3.5-3.96v-21.08c0-2.18-1.58-3.96-3.5-3.96s-3.5 1.78-3.5 3.96z" fill="#6E4747"/><path fill-rule="evenodd" clip-rule="evenodd" d="M1866 1140.15c0 8.95-9.64 17.85-21.51 17.85-11.88 0-21.52-11.37-21.49-17.85.13-31.56 17.85-57.15 21.5-57.15 4.67 0 21.5 25.59 21.5 57.15" fill="#ECCA5F"/><path fill-rule="evenodd" clip-rule="evenodd" d="M1020 1179.5c0 19.05-15.45 34.5-34.5 34.5-19.054 0-34.5-15.45-34.5-34.5s15.446-34.5 34.5-34.5c19.05 0 34.5 15.45 34.5 34.5" fill="#6DBBB8"/><path fill-rule="evenodd" clip-rule="evenodd" d="M1011 1176.5c0 13.6-9.61 25.31-22.954 27.95-13.342 2.65-26.695-4.5-31.886-17.08-5.191-12.57-.773-27.06 10.55-34.59 11.322-7.54 26.394-6.03 35.99 3.61 5.31 5.35 8.3 12.57 8.3 20.11" fill="#FCFCFC"/><path fill-rule="evenodd" clip-rule="evenodd" d="M988.008 1182l11.992-21-21 11.99 9.008 9.01z" fill="#F03C25"/><path fill-rule="evenodd" clip-rule="evenodd" d="M967 1194l21-11.99-9.008-9.01L967 1194z" fill="#FC966E"/><path fill-rule="evenodd" clip-rule="evenodd" d="M2293.62 1063.41c-1.38-10.63-6.91-24.41-28.62-24.41s-27.23 13.78-28.62 24.41c-.76 5.83-.33 11.75.87 17.5 6.64 31.63 23.04 50.59 26.91 54.73.46.48 1.22.48 1.67 0 3.88-4.14 20.28-23.1 26.92-54.73 1.21-5.75 1.63-11.67.87-17.5" fill="#A28CBD"/><path fill-rule="evenodd" clip-rule="evenodd" d="M2267.5 1085c9.11 0 16.5-7.39 16.5-16.5s-7.39-16.5-16.5-16.5-16.5 7.39-16.5 16.5 7.39 16.5 16.5 16.5z" fill="#fff"/><path fill-rule="evenodd" clip-rule="evenodd" d="M1343 1781.96v21.08c0 2.18 1.58 3.96 3.5 3.96s3.5-1.78 3.5-3.96v-21.08c0-2.18-1.58-3.96-3.5-3.96s-3.5 1.78-3.5 3.96z" fill="#6E4747"/><path fill-rule="evenodd" clip-rule="evenodd" d="M1361 1784.86c0 6.09-6.5 12.14-14.51 12.14s-14.51-7.73-14.49-12.14c.09-21.46 12.04-38.86 14.5-38.86 3.15 0 14.5 17.4 14.5 38.86" fill="#93B081"/><path fill-rule="evenodd" clip-rule="evenodd" d="M1406 1777.64v24.72c0 2.55 1.8 4.64 4 4.64s4-2.09 4-4.64v-24.72c0-2.55-1.8-4.64-4-4.64s-4 2.09-4 4.64z" fill="#6E4747"/><path fill-rule="evenodd" clip-rule="evenodd" d="M1433 1764.82c0 10.62-11.21 21.18-25.01 21.18-13.81 0-25.02-13.49-24.99-21.18.15-37.45 20.76-67.82 25-67.82 5.43 0 25 30.36 25 67.82" fill="#ECCA5F"/><path fill-rule="evenodd" clip-rule="evenodd" d="M1987 4700.26v22.7c0 2.34 1.64 4.25 3.63 4.25 2 0 3.64-1.91 3.64-4.25v-22.7c0-2.34-1.64-4.26-3.64-4.26-1.99 0-3.63 1.92-3.63 4.26zm-69 0v22.7c0 2.34 1.64 4.25 3.63 4.25 2 0 3.64-1.91 3.64-4.25v-22.7c0-2.34-1.64-4.26-3.64-4.26-1.99 0-3.63 1.92-3.63 4.26z" fill="#6E4747"/><path d="M1922 4708c11.6 0 21-11.86 21-26.5s-9.4-26.5-21-26.5-21 11.86-21 26.5 9.4 26.5 21 26.5z" fill="#93B081"/><path fill-rule="evenodd" clip-rule="evenodd" d="M2012.58 4688.36c0 9.61-10.22 19.16-22.8 19.16-12.59 0-22.81-12.21-22.78-19.16.13-33.89 18.92-61.36 22.79-61.36 4.94 0 22.79 27.47 22.79 61.36" fill="#93B081"/><path d="M5003.95 4858l671.59 17" stroke="#979797"/></svg>