<svg xmlns="http://www.w3.org/2000/svg" xmlns:xlink="http://www.w3.org/1999/xlink" width="28" height="28" viewBox="0 0 28 28"><defs><path id="b" d="M3 0h18a3 3 0 0 1 3 3v18a3 3 0 0 1-3 3H3a3 3 0 0 1-3-3V3a3 3 0 0 1 3-3z"/><filter id="a" width="125%" height="125%" x="-12.5%" y="-8.3%" filterUnits="objectBoundingBox"><feMorphology in="SourceAlpha" operator="dilate" radius="1" result="shadowSpreadOuter1"/><feOffset dy="1" in="shadowSpreadOuter1" result="shadowOffsetOuter1"/><feGaussianBlur in="shadowOffsetOuter1" result="shadowBlurOuter1" stdDeviation=".5"/><feComposite in="shadowBlurOuter1" in2="SourceAlpha" operator="out" result="shadowBlurOuter1"/><feColorMatrix in="shadowBlurOuter1" values="0 0 0 0 0 0 0 0 0 0 0 0 0 0 0 0 0 0 0.22 0"/></filter></defs><g fill="none" fill-rule="evenodd"><g transform="translate(2 1)"><use fill="#000" filter="url(#a)" xlink:href="#b"/><path fill="#FFF" stroke="#FFF" stroke-opacity=".1" d="M3-.5h18A3.5 3.5 0 0 1 24.5 3v18a3.5 3.5 0 0 1-3.5 3.5H3A3.5 3.5 0 0 1-.5 21V3A3.5 3.5 0 0 1 3-.5z"/></g><path fill="#212121" fill-rule="nonzero" d="M12 11h2v4h-2v-4zm3 0h2v4h-2v-4zm2.25-3.313v1.375H20v1.376h-.688v6.874c0 .413-.274.688-.687.688h-8.25c-.412 0-.688-.275-.688-.688v-6.875H9V9.063h2.75V7.687c0-.412.275-.687.688-.687h4.124c.413 0 .688.275.688.688zm-4.125.688v.688h2.75v-.688h-2.75zm4.813 2.063h-6.875v6.187h6.874v-6.188z"/></g></svg>