<svg xmlns="http://www.w3.org/2000/svg" xmlns:xlink="http://www.w3.org/1999/xlink" width="28" height="28" viewBox="0 0 28 28"><defs><path id="b" d="M3 0h18a3 3 0 0 1 3 3v18a3 3 0 0 1-3 3H3a3 3 0 0 1-3-3V3a3 3 0 0 1 3-3z"/><filter id="a" width="125%" height="125%" x="-12.5%" y="-8.3%" filterUnits="objectBoundingBox"><feMorphology in="SourceAlpha" operator="dilate" radius="1" result="shadowSpreadOuter1"/><feOffset dy="1" in="shadowSpreadOuter1" result="shadowOffsetOuter1"/><feGaussianBlur in="shadowOffsetOuter1" result="shadowBlurOuter1" stdDeviation=".5"/><feComposite in="shadowBlurOuter1" in2="SourceAlpha" operator="out" result="shadowBlurOuter1"/><feColorMatrix in="shadowBlurOuter1" values="0 0 0 0 0 0 0 0 0 0 0 0 0 0 0 0 0 0 0.22 0"/></filter></defs><g fill="none" fill-rule="evenodd"><g transform="translate(2 1)"><use fill="#000" filter="url(#a)" xlink:href="#b"/><path fill="#FFF" stroke="#FFF" stroke-opacity=".1" d="M3-.5h18A3.5 3.5 0 0 1 24.5 3v18a3.5 3.5 0 0 1-3.5 3.5H3A3.5 3.5 0 0 1-.5 21V3A3.5 3.5 0 0 1 3-.5z"/></g><path fill="#212121" fill-rule="nonzero" d="M20 10.882a.55.55 0 0 0-.16-.39l-2.332-2.333a.55.55 0 0 0-.39-.159.55.55 0 0 0-.39.16L15.17 9.715l-6.011 6.01a.55.55 0 0 0-.16.391v2.332c0 .304.246.55.55.55h2.332a.55.55 0 0 0 .418-.16l5.978-6.01 1.562-1.53a.654.654 0 0 0 .121-.18.55.55 0 0 0 0-.133.385.385 0 0 0 0-.077l.039-.027zm-8.343 7.017H10.1v-1.556l5.461-5.461 1.557 1.556-5.461 5.461zm6.236-6.236l-1.556-1.557.781-.775 1.551 1.55-.776.782z"/></g></svg>