<svg width="12" height="26" viewBox="0 0 12 26" fill="none" xmlns="http://www.w3.org/2000/svg"><path fill-rule="evenodd" clip-rule="evenodd" d="M2.568 12.644v12.131c0 .175.142.316.316.316H7.39a.316.316 0 0 0 .316-.316V12.447h3.266a.316.316 0 0 0 .315-.29l.314-3.714a.316.316 0 0 0-.315-.343h-3.58V5.465c0-.618.5-1.118 1.119-1.118h2.517a.316.316 0 0 0 .316-.316V.316A.316.316 0 0 0 11.34 0H7.087a4.519 4.519 0 0 0-4.519 4.519V8.1H.316A.316.316 0 0 0 0 8.416v3.715c0 .174.141.316.316.316h2.252v.197z" fill="#fff"/></svg>