<svg xmlns="http://www.w3.org/2000/svg" width="70" height="72" viewBox="0 0 70 72"><g fill="none" fill-rule="evenodd"><g fill-rule="nonzero"><path fill="#EDEADA" d="M70 17.38L52.578 0H14v72h56z"/><path d="M25.875 28.353h31.25c.69 0 1.25-.552 1.25-1.235s-.56-1.236-1.25-1.236h-31.25c-.69 0-1.25.553-1.25 1.236 0 .683.56 1.235 1.25 1.235zm0-9.883h12.5c.69 0 1.25-.552 1.25-1.235S39.065 16 38.375 16h-12.5c-.69 0-1.25.552-1.25 1.235s.56 1.236 1.25 1.236zm31.25 17.295h-31.25c-.69 0-1.25.552-1.25 1.235s.56 1.235 1.25 1.235h31.25c.69 0 1.25-.552 1.25-1.235s-.56-1.235-1.25-1.235zm0 9.882h-31.25c-.69 0-1.25.552-1.25 1.235s.56 1.236 1.25 1.236h31.25c.69 0 1.25-.553 1.25-1.236 0-.683-.56-1.235-1.25-1.235zm0 9.883h-31.25c-.69 0-1.25.552-1.25 1.235S25.185 58 25.875 58h31.25c.69 0 1.25-.552 1.25-1.235s-.56-1.236-1.25-1.236zM52 0v17h17z" fill="#CEC9AE"/></g><path fill="#B1AC90" fill-rule="nonzero" d="M14 45.634V19.366c.964-.24 1.969-.366 3-.366 7.145 0 13 6.08 13 13.5S24.145 46 17 46c-1.031 0-2.036-.127-3-.366z" opacity=".584"/><path fill="#7AA460" fill-rule="nonzero" d="M14 16C6.305 16 0 22.305 0 30s6.305 14 14 14 14-6.305 14-14-6.305-14-14-14z"/><path fill="#FFF" d="M7 30l1.414-1.415 5.657 5.657-1.414 1.414z"/><path fill="#FFF" d="M12.95 35.192l-1.415-1.414L19.313 26l1.415 1.414z"/></g></svg>