<svg xmlns="http://www.w3.org/2000/svg" width="19" height="18" viewBox="0 0 19 18"><path fill="#5151BA" d="M6.26 13.74v.608H.94a.926.926 0 0 0-.94.913c0 .504.42.913.94.913h5.32v.609c0 .672.561 1.217 1.253 1.217h1.252c.692 0 1.252-.545 1.252-1.217v-.61h7.826c.52 0 .94-.408.94-.912a.926.926 0 0 0-.94-.913h-7.826v-.609c0-.672-.56-1.217-1.252-1.217H7.513c-.692 0-1.252.545-1.252 1.217zm5.636-6.262v.609H.939A.926.926 0 0 0 0 9c0 .504.42.913.94.913h10.956v.609c0 .672.56 1.217 1.252 1.217H14.4c.692 0 1.252-.545 1.252-1.217v-.609h2.191c.52 0 .94-.409.94-.913a.926.926 0 0 0-.94-.913h-2.19v-.609c0-.672-.561-1.217-1.253-1.217h-1.252c-.692 0-1.252.545-1.252 1.217zM1.878 1.218v.608H.94A.926.926 0 0 0 0 2.74c0 .504.42.913.94.913h.938v.609c0 .672.56 1.217 1.252 1.217h1.253c.691 0 1.252-.545 1.252-1.217v-.609h12.208c.52 0 .94-.409.94-.913a.926.926 0 0 0-.94-.913H5.635v-.609C5.635.545 5.075 0 4.383 0H3.13c-.69 0-1.252.545-1.252 1.217z"/></svg>