<svg xmlns="http://www.w3.org/2000/svg" width="52" height="71" viewBox="0 0 52 71"><g fill="none"><path fill="#EDEADA" d="M33.114 38.588C42.679 47.31 48.315 55.7 49 67.958H4c.685-12.258 6.32-20.648 15.886-29.37l3.947-3.6-3.947-3.59C10.321 22.675 4.685 14.285 4 2.028h45c-.685 12.257-6.32 20.647-15.886 29.37l-3.947 3.59 3.947 3.6z"/><path fill="#678D50" d="M2.824 5.071h46.352c1.56 0 2.824-1.135 2.824-2.535C52 1.136 50.736 0 49.176 0H2.824C1.264 0 0 1.135 0 2.536c0 1.4 1.264 2.535 2.824 2.535z"/><path fill="#F7BE56" d="M16.504 53.298C10.622 56.323 7 61.91 7 67.958h38c0-6.048-3.623-11.635-9.504-14.66l-7.879-4.052V27.144l5.57-2.864c3.81-1.96 6.368-5.341 7.025-9.146.177-1.02-.697-1.948-1.858-1.948H13.646c-1.16 0-2.035.927-1.858 1.948.657 3.804 3.215 7.186 7.025 9.146l5.957 3.063v21.704l-8.266 4.251z"/><path fill="#678D50" d="M49.176 65.929H2.824C1.264 65.929 0 67.064 0 68.464 0 69.864 1.264 71 2.824 71h46.352C50.736 71 52 69.865 52 68.464c0-1.4-1.264-2.535-2.824-2.535z"/></g></svg>