<svg width="27" height="27" viewBox="0 0 27 27" fill="none" xmlns="http://www.w3.org/2000/svg"><path fill-rule="evenodd" clip-rule="evenodd" d="M20.072 4.686a1.539 1.539 0 1 0 0 3.077 1.539 1.539 0 0 0 0-3.077m-6.841 12.577a4.145 4.145 0 0 1-4.14-4.14 4.145 4.145 0 0 1 4.14-4.14 4.145 4.145 0 0 1 4.14 4.14 4.145 4.145 0 0 1-4.14 4.14m0-10.604a6.471 6.471 0 0 0-6.463 6.464 6.47 6.47 0 0 0 6.463 6.463 6.47 6.47 0 0 0 6.464-6.463 6.47 6.47 0 0 0-6.464-6.464" fill="#fff"/><path fill-rule="evenodd" clip-rule="evenodd" d="M7.883 2.47A5.42 5.42 0 0 0 2.47 7.882v10.48a5.42 5.42 0 0 0 5.414 5.413h10.479a5.42 5.42 0 0 0 5.415-5.413V7.883a5.42 5.42 0 0 0-5.415-5.414H7.883zm10.479 23.775H7.883C3.536 26.245 0 22.71 0 18.362V7.884C0 3.536 3.536 0 7.883 0h10.479c4.347 0 7.884 3.536 7.884 7.883v10.48c0 4.346-3.537 7.882-7.884 7.882z" fill="#fff"/></svg>