<svg xmlns="http://www.w3.org/2000/svg" width="357" height="30" viewBox="0 0 357 30"><g fill="none"><path fill="#9D36A9" d="M0 24.544c1.144-4.836 1.144-11.622 0-16.458 2.028-1.066 5.824-1.118 7.93-.312.624.676 2.574 4.186 3.64 7.228 1.092-3.042 3.042-6.552 3.64-7.228 2.132-.806 5.928-.754 7.956.312-1.144 4.836-1.17 11.622 0 16.458-.598.338-1.924.65-3.198.65-1.898.026-2.392-.286-3.016-.52a31.592 31.592 0 0 1-.468-4.108c-.104-1.612-.052-3.432.13-5.564-.936 1.196-2.262 4.16-3.042 6.292a4.254 4.254 0 0 1-1.95.494c-.728 0-1.43-.156-2.028-.494-.78-2.132-2.106-5.096-3.042-6.292.182 2.132.234 3.952.13 5.564a31.592 31.592 0 0 1-.468 4.108c-.624.234-1.118.546-3.016.52-1.274 0-2.6-.312-3.198-.65z"/><path fill="#FE5103" d="M25.766 24.544c1.144-4.836 1.144-11.622 0-16.458 2.028-1.066 4.888-1.118 7.02-.312.416 2.522.624 5.33.65 8.164 2.002-2.652 3.848-5.486 4.654-8.164.624-.26 1.898-.546 3.796-.546 1.3.026 2.6.338 3.198.676-1.144 4.81-1.144 11.596 0 16.432-2.002 1.092-4.888 1.144-6.994.312-.442-2.496-.65-5.304-.676-8.112-1.976 2.652-3.692 5.46-4.628 8.138-.52.208-.988.312-1.456.364-.624.104-1.404.156-2.366.156-1.274 0-2.6-.312-3.198-.65z"/><path fill="#30C93B" d="M65.312 9.828c1.768 1.846 2.288 4.134 2.314 6.422-.026 2.288-.546 4.706-2.314 6.552-2.34 2.392-6.37 2.626-9.516 2.054-.052 1.352-.026 3.224.208 4.212-2.054.988-6.422 1.118-8.32-.156 1.222-6.344.988-14.69.052-20.384 1.976-1.014 6.136-1.326 8.58-1.352 3.146 0 6.5.234 8.996 2.652zm-9.386 11.778c1.638.182 3.198 0 3.848-1.742.52-1.352.702-3.952.312-6.006-.312-1.638-.988-3.042-2.964-3.172-.546-.026-1.066.052-1.456.208.26 2.808.364 6.526.26 10.712z"/><path fill="#3771B8" d="M93.886 15.86c.208-.78.728-5.252-.962-5.408-2.236-.182-2.236 4.134-2.054 5.564.234 1.742 1.04 3.302 2.99 4.082 2.08.858 4.836.52 6.786-.494.572.156 1.274.65 1.222 1.82-1.742 2.392-5.174 3.588-8.398 3.692-5.512.182-10.4-2.912-10.348-9.022.026-2.314.52-4.784 2.314-6.656 1.534-1.612 3.796-2.314 7.54-2.34 2.6 0 5.356.442 7.124 1.95 1.144.962 1.872 2.392 1.872 4.446.026 1.482 0 1.326-.026 2.548-.468.494-1.482 1.274-3.848 1.274-2.522 0-3.796-.91-4.212-1.456z"/><path fill="#966634" d="M104.598 24.544c1.144-4.836 1.144-11.622 0-16.458 2.028-1.066 5.824-1.118 7.93-.312.624.676 2.574 4.186 3.64 7.228 1.092-3.042 3.042-6.552 3.64-7.228 2.132-.806 5.928-.754 7.956.312-1.144 4.836-1.17 11.622 0 16.458-.598.338-1.924.65-3.198.65-1.898.026-2.392-.286-3.016-.52a31.592 31.592 0 0 1-.468-4.108c-.104-1.612-.052-3.432.13-5.564-.936 1.196-2.262 4.16-3.042 6.292a4.254 4.254 0 0 1-1.95.494c-.728 0-1.43-.156-2.028-.494-.78-2.132-2.106-5.096-3.042-6.292.182 2.132.234 3.952.13 5.564a31.592 31.592 0 0 1-.468 4.108c-.624.234-1.118.546-3.016.52-1.274 0-2.6-.312-3.198-.65z"/><path fill="#F03228" d="M137.306 12.22c1.326-.26 2.86-.364 4.394-.208 3.9.39 6.916 2.444 6.916 6.604 0 2.522-1.092 4.732-3.614 5.746-1.872.754-4.03.858-6.11.858-2.444-.026-5.798-.52-8.138-1.404.26-4.992.338-10.374-.39-15.652 1.794-1.274 4.576-1.144 6.708-.156.104 1.17.156 2.47.234 4.212zm.078 3.276c.026 1.82.052 3.952.026 6.006.39.156 1.56.182 2.106.13 2.08-.13 2.678-1.82 2.626-3.198-.052-1.716-1.014-2.86-2.86-2.964-.624-.026-1.3-.026-1.898.026zm20.54 9.074c-.598.312-1.898.65-3.198.65-1.898 0-3.12-.286-3.744-.52-.78-5.096-.832-11.804-.078-16.9 2.132-.832 4.94-.754 6.968.312-1.04 4.732-.988 11.726.052 16.458z"/><path fill="#538136" d="M188.838 24.128c-3.276 1.092-8.658 1.066-14.04 1.066-5.408 0-10.816.052-14.066-1.066.832-4.732.624-12.038-.208-16.276.598-.312 1.924-.65 3.198-.65 1.898 0 2.86.286 3.484.52.91 3.25.832 10.556.416 13.962 1.3-.026 2.574-.026 3.848-.026.39-4.966.078-10.27-.364-13.546 2.236-1.196 5.096-1.196 7.332 0-.442 3.276-.754 8.58-.364 13.546 1.274 0 2.574 0 3.848.026-.416-3.406-.494-10.712.416-13.962.65-.234 1.586-.52 3.484-.52 1.3 0 2.6.338 3.198.65-.806 4.238-1.014 11.544-.182 16.276z"/><path fill="#ECCA5F" d="M189.8 23.166c2.574-1.976 3.198-4.602 3.38-7.774.104-2.106-.104-4.446-.728-6.994 2.626-.884 5.512-1.118 8.242-1.144 3.016 0 6.032.338 8.424 1.144-.676 5.408-.936 11.908.13 16.146-.598.338-1.898.65-3.198.65-1.898.026-2.964-.286-3.614-.52-.494-3.796-.676-8.58-.364-12.896a57.316 57.316 0 0 1-2.99 0c.52 7.8-.676 10.634-1.586 12.662-1.04.624-2.418.78-3.874.78-2.574-.026-3.77-1.066-3.822-2.054z"/><path fill="#11C5BE" d="M219.804 15.496c.962.182 2.106-.052 2.782-.754.442-.494.65-1.274.598-2.054-.078-1.118-.676-2.21-1.872-2.184-1.95 0-1.664 3.952-1.508 4.992zm10.92-1.95c.026 2.444-1.274 3.978-3.068 4.784-1.014.468-2.184.702-3.38.728-1.352.026-2.73-.104-3.9-.676.078 1.092 1.118 2.34 2.314 2.73 2.34.78 4.29.156 6.11-.39.572.156 1.274.78 1.222 1.95-1.976 1.872-5.304 2.548-8.008 2.548-5.46-.026-10.192-2.99-10.14-9.048.026-2.34.52-4.81 2.314-6.656 1.534-1.612 3.796-2.34 7.54-2.34 2.6-.026 5.356.416 7.124 1.924 1.144.962 1.872 2.392 1.872 4.446zM217.62 1.144c1.976 0 2.756 1.092 2.756 2.444 0 1.352-.884 2.47-2.756 2.47-1.898 0-2.756-1.118-2.756-2.47s.78-2.444 2.756-2.444zm7.8 0c1.976 0 2.756 1.092 2.756 2.444 0 1.352-.884 2.47-2.756 2.47-1.898 0-2.756-1.118-2.756-2.47s.754-2.444 2.756-2.444z"/><path fill="#742EA1" d="M233.35 24.57c1.144-4.836 1.144-11.622 0-16.458 2.028-1.066 4.836-1.144 6.942-.312.338 2.028.546 4.238.624 6.5a15.48 15.48 0 0 0 3.328-.078c.078-2.236.286-4.42.624-6.422 2.106-.832 4.914-.754 6.942.312-1.144 4.836-1.17 11.622 0 16.458-.598.312-1.924.65-3.198.65-1.898 0-3.12-.286-3.744-.52-.338-1.976-.546-4.134-.624-6.344-.91-.208-2.314-.156-3.328-.026-.078 2.21-.286 4.394-.624 6.37-.624.234-1.846.52-3.744.52-1.274 0-2.6-.338-3.198-.65z"/><path fill="#F4B083" d="M261.352 12.22c1.326-.26 2.86-.364 4.394-.208 3.9.39 6.916 2.444 6.916 6.604 0 2.522-1.092 4.732-3.614 5.746-1.872.754-4.03.858-6.11.858-2.444-.026-5.798-.52-8.138-1.404.26-4.992.338-10.374-.39-15.652 1.794-1.274 4.576-1.144 6.708-.156.104 1.17.156 2.47.234 4.212zm.078 3.276c.026 1.82.052 3.952.026 6.006.39.156 1.56.182 2.106.13 2.08-.13 2.678-1.82 2.626-3.198-.052-1.716-1.014-2.86-2.86-2.964-.624-.026-1.3-.026-1.898.026zm20.54 9.074c-.598.312-1.898.65-3.198.65-1.898 0-3.12-.286-3.744-.52-.78-5.096-.832-11.804-.078-16.9 2.132-.832 4.94-.754 6.968.312-1.04 4.732-.988 11.726.052 16.458z"/><path fill="#777" d="M312.884 24.128c-3.276 1.092-8.658 1.066-14.04 1.066-5.408 0-10.816.052-14.066-1.066.832-4.732.624-12.038-.208-16.276.598-.312 1.924-.65 3.198-.65 1.898 0 2.86.286 3.484.52.91 3.25.832 10.556.416 13.962 1.3-.026 2.574-.026 3.848-.026.39-4.966.078-10.27-.364-13.546 2.236-1.196 5.096-1.196 7.332 0-.442 3.276-.754 8.58-.364 13.546 1.274 0 2.574 0 3.848.026-.416-3.406-.494-10.712.416-13.962.65-.234 1.586-.52 3.484-.52 1.3 0 2.6.338 3.198.65-.806 4.238-1.014 11.544-.182 16.276z"/><path fill="#FF7E00" d="M323.622 15.496c.962.182 2.106-.052 2.782-.754.442-.494.65-1.274.598-2.054-.078-1.118-.676-2.21-1.872-2.184-1.95 0-1.664 3.952-1.508 4.992zm10.92-1.95c.026 2.444-1.274 3.978-3.068 4.784-1.014.468-2.184.702-3.38.728-1.352.026-2.73-.104-3.9-.676.078 1.092 1.118 2.34 2.314 2.73 2.34.78 4.29.156 6.11-.39.572.156 1.274.78 1.222 1.95-1.976 1.872-5.304 2.548-8.008 2.548-5.46-.026-10.192-2.99-10.14-9.048.026-2.34.52-4.81 2.314-6.656 1.534-1.612 3.796-2.34 7.54-2.34 2.6-.026 5.356.416 7.124 1.924 1.144.962 1.872 2.392 1.872 4.446z"/><path fill="#5151BA" d="M337.168 24.544c1.144-4.836 1.144-11.622 0-16.458 2.028-1.066 4.888-1.118 7.02-.312.416 2.522.624 5.33.65 8.164 2.002-2.652 3.848-5.486 4.654-8.164.624-.26 1.898-.546 3.796-.546 1.3.026 2.6.338 3.198.676-1.144 4.81-1.144 11.596 0 16.432-2.002 1.092-4.888 1.144-6.994.312-.442-2.496-.65-5.304-.676-8.112-1.976 2.652-3.692 5.46-4.628 8.138-.52.208-.988.312-1.456.364-.624.104-1.404.156-2.366.156-1.274 0-2.6-.312-3.198-.65zm8.164-20.8c1.04.26 2.262.26 3.302 0-.728-1.794-.39-3.718 2.158-3.744 2.6 0 3.12 2.756 2.002 4.55-1.092 1.716-3.978 1.846-5.798 1.846-1.846 0-4.732-.13-5.824-1.846-1.118-1.794-.598-4.55 2.002-4.55 2.574.026 2.886 1.95 2.158 3.744z"/></g></svg>