<svg width="11" height="11" viewBox="0 0 11 11" xmlns="http://www.w3.org/2000/svg"><title>pen</title><path d="M11 2.882a.55.55 0 0 0-.16-.39L8.508.158A.55.55 0 0 0 8.118 0a.55.55 0 0 0-.39.16L6.17 1.715.16 7.726a.55.55 0 0 0-.16.391v2.332c0 .304.246.55.55.55h2.332a.55.55 0 0 0 .418-.16l5.978-6.01 1.562-1.53a.654.654 0 0 0 .121-.18.55.55 0 0 0 0-.133.385.385 0 0 0 0-.077L11 2.882zM2.657 9.899H1.1V8.343l5.461-5.461 1.557 1.556L2.657 9.9zm6.236-6.236L7.337 2.106l.781-.775 1.551 1.55-.776.782z" fill="#212121"/></svg>