<svg xmlns="http://www.w3.org/2000/svg" xmlns:xlink="http://www.w3.org/1999/xlink" width="38" height="53" viewBox="0 0 38 53"><defs><path id="a" d="M0 .04h37.965v51.13H0z"/></defs><g fill="none" fill-rule="evenodd"><g transform="translate(0 .08)"><mask id="b" fill="#fff"><use xlink:href="#a"/></mask><path fill="#FF7E00" d="M18.984.04C8.506.04 0 8.463 0 18.832c0 4.332 1.591 8.206 3.932 11.46L18.984 51.17l15.052-20.88c2.34-3.252 3.93-7.136 3.93-11.457C37.965 8.463 29.471.04 18.983.04" mask="url(#b)"/></g><path fill="#FFF" d="M26.374 18.912c0 4.05-3.306 7.319-7.39 7.319-4.08 0-7.392-3.27-7.392-7.319 0-4.039 3.312-7.317 7.391-7.317 4.086 0 7.39 3.278 7.39 7.317"/></g></svg>