<svg xmlns="http://www.w3.org/2000/svg" width="73" height="68" viewBox="0 0 73 68"><g fill="none" fill-rule="evenodd" opacity=".631"><path fill="#E2E0E0" d="M73 53.244L54.22 68l-.004-7.235C46 60.116 38.494 55.76 33.827 48.835L20.316 28.788A14.02 14.02 0 0 0 8.68 22.584H0V8h10.095C18.3 8 25.95 12.074 30.56 18.897l14.166 20.971a14.039 14.039 0 0 0 9.48 6.026l-.004-7.507L73 53.244z"/><path fill="#E2E0E0" d="M54.292 45.945a13.971 13.971 0 0 1-9.437-6.012L40.857 34H24l10.006 14.88C38.65 55.788 46.124 60.134 54.3 60.781L54.305 68 73 53.278 54.288 38.455l.004 7.49z"/><path fill="#C9C9C9" d="M73 14.756L54.22 0l-.004 7.235c-8.215.65-15.722 5.005-20.389 11.93L20.316 39.212A14.02 14.02 0 0 1 8.68 45.416H0V60h10.095C18.3 60 25.95 55.927 30.56 49.103l14.166-20.971a14.034 14.034 0 0 1 9.48-6.026l-.004 7.507L73 14.756z"/><path fill="#C9C9C9" d="M23.361 34l-3.4 5.15c-2.571 3.896-6.846 6.222-11.432 6.222H0V60h9.919c8.062 0 15.58-4.085 20.108-10.93L40 34H23.361z"/></g></svg>