<svg xmlns="http://www.w3.org/2000/svg" width="88" height="79" viewBox="0 0 88 79"><g fill="none" fill-rule="evenodd" opacity=".581"><path fill="#CACACA" d="M36.591 0v64.678H0V79h88V64.678H51.255V0z"/><path fill="#B8B8B8" d="M44 0v79h44V64.678H51.32V0z"/><path fill="#E2E0E0" d="M73.311 64.834H14.707c-4.177 0-7.562-3.418-7.562-7.634s3.385-7.634 7.562-7.634h58.604c4.176 0 7.562 3.418 7.562 7.634s-3.386 7.634-7.562 7.634"/><path fill="#D0D0D0" d="M64.658 49.566H23.36c-4.177 0-7.562-3.418-7.562-7.634s3.385-7.634 7.562-7.634h41.298c4.176 0 7.562 3.418 7.562 7.634s-3.385 7.634-7.562 7.634"/><path fill="#E2E0E0" d="M56.991 34.298H31.027c-4.177 0-7.563-3.418-7.563-7.634s3.386-7.634 7.563-7.634h25.964c4.177 0 7.562 3.418 7.562 7.634s-3.385 7.634-7.562 7.634"/><path fill="#C9C9C9" d="M73.311 49.566H44.094v15.269h29.217c4.176 0 7.562-3.419 7.562-7.634 0-4.217-3.386-7.635-7.562-7.635"/><path fill="#BDBDBD" d="M64.658 34.298H44.094v15.268h20.564c4.176 0 7.562-3.418 7.562-7.634s-3.385-7.634-7.562-7.634"/><path fill="#C9C9C9" d="M56.991 19.03H44.094v15.268h12.897c4.177 0 7.562-3.418 7.562-7.634s-3.385-7.634-7.562-7.634"/></g></svg>