<svg xmlns="http://www.w3.org/2000/svg" xmlns:xlink="http://www.w3.org/1999/xlink" width="111" height="77" viewBox="0 0 111 77"><defs><path id="a" d="M.068.07h10.745v14.923H.068z"/><path id="c" d="M.094.07h7.744v14.923H.094z"/><path id="e" d="M.082.07h10.745v14.923H.082z"/><path id="g" d="M.108.07h7.744v14.923H.108z"/><path id="i" d="M.187.07h10.745v14.923H.187z"/><path id="k" d="M.006.07h7.959v14.923H.005z"/></defs><g fill="none" fill-rule="evenodd" opacity=".63"><path fill="#C9C9C9" d="M110 70.6c0-5.293-4.216-9.6-9.399-9.6h-44.07L44 69l12.532 8H110v-6.4z"/><path fill="#C9C9C9" d="M12.316 61C7.18 61 3 65.307 3 70.6V77h53V61H12.316z"/><path fill="#D1D1D1" d="M4.157 19C1.86 19 0 20.876 0 23.191s1.86 4.191 4.157 4.191h8.451V57h8.314V39.956H23V19H4.157z"/><path fill="#BEBEBE" d="M42.735 19H23.398L17 29.754l6.398 10.753h2.133V58h8.53V27.603h8.674c2.356 0 4.265-1.926 4.265-4.301C47 20.926 45.09 19 42.735 19"/><g transform="translate(20)"><mask id="b" fill="#fff"><use xlink:href="#a"/></mask><path fill="#D1D1D1" d="M3.65.07L.068 7.53l3.582 7.462c3.956 0 7.163-3.34 7.163-7.462 0-4.12-3.207-7.46-7.163-7.46" mask="url(#b)"/></g><g transform="translate(16)"><mask id="d" fill="#fff"><use xlink:href="#c"/></mask><path fill="#D1D1D1" d="M.094 7.531c0 4.121 3.467 7.462 7.744 7.462V.07C3.56.07.094 3.41.094 7.531" mask="url(#d)"/></g><path fill="#BEBEBE" d="M73.735 19H54.398L48 29.754l6.398 10.753h2.133V58h8.53V27.603h8.674c2.356 0 4.265-1.926 4.265-4.301C78 20.926 76.09 19 73.735 19"/><path fill="#D1D1D1" d="M35.157 19C32.86 19 31 20.926 31 23.302c0 2.375 1.86 4.301 4.157 4.301h8.451V58h8.314V40.507H54V19H35.157z"/><g transform="translate(51)"><mask id="f" fill="#fff"><use xlink:href="#e"/></mask><path fill="#D1D1D1" d="M3.663.07L.082 7.53l3.581 7.462c3.957 0 7.164-3.34 7.164-7.462 0-4.12-3.207-7.46-7.164-7.46" mask="url(#f)"/></g><g transform="translate(47)"><mask id="h" fill="#fff"><use xlink:href="#g"/></mask><path fill="#D1D1D1" d="M.108 7.531c0 4.121 3.467 7.462 7.744 7.462V.07C3.575.07.108 3.41.108 7.531" mask="url(#h)"/></g><path fill="#BEBEBE" d="M87.398 19L81 29.754l6.398 10.753h2.133V58h8.53V27.603h8.674c2.356 0 4.265-1.926 4.265-4.301 0-2.376-1.91-4.302-4.265-4.302H87.398z"/><path fill="#D1D1D1" d="M67.157 19C64.86 19 63 20.926 63 23.302c0 2.375 1.86 4.301 4.157 4.301h8.451V58h8.314V40.507H86V19H67.157z"/><g transform="translate(83)"><mask id="j" fill="#fff"><use xlink:href="#i"/></mask><path fill="#D1D1D1" d="M3.768.07L.187 7.53l3.581 7.462c3.957 0 7.164-3.34 7.164-7.462 0-4.12-3.207-7.46-7.164-7.46" mask="url(#j)"/></g><g transform="translate(80)"><mask id="l" fill="#fff"><use xlink:href="#k"/></mask><path fill="#D1D1D1" d="M.006 7.531c0 4.121 3.563 7.462 7.959 7.462V.07C3.569.07.005 3.41.005 7.531" mask="url(#l)"/></g></g></svg>