<svg xmlns="http://www.w3.org/2000/svg" width="80" height="80" viewBox="0 0 80 80"><g fill="none" fill-rule="evenodd"><path fill="#D9D9D9" d="M35 57.193l-6.669 6.86-3.258 3.352-9.596 9.867A8.915 8.915 0 0 1 9.065 80a8.919 8.919 0 0 1-6.413-2.728c-3.536-3.638-3.536-9.556 0-13.193l9.594-9.867 3.26-3.352L22.174 44l3.26 3.352 6.307 6.487L35 57.193z"/><path fill="#D9D9D9" d="M79.83 31.923c0 8.495-3.305 16.48-9.307 22.487-6.002 6.006-13.982 9.314-22.471 9.314-8.486 0-16.463-3.306-22.465-9.308l-.006-.006c-6.002-6.006-9.308-13.992-9.308-22.487 0-8.494 3.306-16.48 9.308-22.486S39.563.123 48.05.123c8.49 0 16.47 3.308 22.472 9.314l.016.016c5.993 6.004 9.292 13.984 9.292 22.47"/><path fill="#EBE9E9" d="M28.464 64.638l-3.329 3.332-13.104-13.113 3.33-3.331zM64.887 48.77c-4.642 4.644-10.738 6.967-16.835 6.967-6.094 0-12.188-2.32-16.828-6.961l-.007-.007c-9.283-9.289-9.283-24.402 0-33.691 9.283-9.29 24.387-9.29 33.67 0l.014.013c9.268 9.291 9.263 24.393-.014 33.678"/></g></svg>