<svg width="23" height="14" viewBox="0 0 23 14" fill="none" xmlns="http://www.w3.org/2000/svg"><path fill-rule="evenodd" clip-rule="evenodd" d="M22.878 12.643a1.718 1.718 0 0 0-.078-.16c-.399-.766-1.162-1.707-2.287-2.823l-.024-.026-.012-.012-.012-.013h-.012c-.51-.52-.834-.869-.97-1.047-.248-.341-.303-.686-.168-1.035.096-.265.455-.822 1.078-1.674.327-.451.587-.813.778-1.086 1.382-1.959 1.98-3.21 1.797-3.756l-.072-.127c-.048-.077-.17-.147-.37-.21-.2-.065-.456-.076-.767-.033l-3.45.025a.42.42 0 0 0-.238.007l-.157.039-.06.032-.047.038a.538.538 0 0 0-.132.134.895.895 0 0 0-.119.224 21.536 21.536 0 0 1-1.282 2.874c-.295.528-.567.986-.814 1.373a6.644 6.644 0 0 1-.622.856c-.168.183-.32.33-.455.44-.137.112-.24.158-.312.141l-.204-.05a.821.821 0 0 1-.269-.314 1.459 1.459 0 0 1-.138-.498 6.058 6.058 0 0 1-.042-.517c-.004-.145-.002-.35.006-.614s.013-.443.013-.536c0-.324.005-.676.017-1.054l.03-.9c.008-.222.012-.456.012-.704 0-.246-.014-.44-.042-.58a2.06 2.06 0 0 0-.126-.41.675.675 0 0 0-.245-.306 1.328 1.328 0 0 0-.4-.173c-.424-.102-.963-.157-1.617-.166-1.485-.017-2.44.086-2.863.307-.168.093-.32.221-.455.383-.143.187-.163.29-.06.307.48.076.818.26 1.018.549l.072.154c.056.11.112.306.167.587.056.28.092.592.108.932.04.622.04 1.154 0 1.598-.04.442-.077.787-.113 1.034a2.177 2.177 0 0 1-.306.882.212.212 0 0 1-.06.063.84.84 0 0 1-.323.065c-.112 0-.247-.06-.407-.18a2.952 2.952 0 0 1-.497-.492 6.58 6.58 0 0 1-.581-.875 15.661 15.661 0 0 1-.67-1.328l-.192-.37c-.12-.239-.284-.586-.491-1.042a20.53 20.53 0 0 1-.55-1.322.845.845 0 0 0-.289-.41L4.515.808a.846.846 0 0 0-.192-.11 1.215 1.215 0 0 0-.275-.082L.767.64C.43.64.204.722.084.883L.036.96A.442.442 0 0 0 0 1.164c0 .094.024.209.072.345.48 1.201 1 2.36 1.563 3.475A40.643 40.643 0 0 0 3.1 7.68c.416.681.838 1.324 1.27 1.928.431.605.717.993.856 1.163.14.171.25.298.33.383l.299.307c.191.204.473.45.844.734.371.286.783.567 1.233.844.452.277.976.502 1.576.677a5.104 5.104 0 0 0 1.748.21h1.377c.28-.025.491-.119.635-.28l.047-.064a.878.878 0 0 0 .09-.237c.028-.106.042-.223.042-.351a4.516 4.516 0 0 1 .078-.99c.06-.293.127-.514.204-.664a1.607 1.607 0 0 1 .46-.562.804.804 0 0 1 .096-.045c.192-.068.417-.001.677.198.26.201.503.447.73.741.228.294.502.624.82.99.32.366.6.639.839.818l.24.153c.16.103.367.196.622.281.256.086.479.107.67.065l3.067-.052c.302 0 .539-.053.706-.16.168-.106.267-.223.3-.35a1.07 1.07 0 0 0 .005-.435 1.747 1.747 0 0 0-.084-.339z" fill="#fff"/></svg>