<svg xmlns="http://www.w3.org/2000/svg" xmlns:xlink="http://www.w3.org/1999/xlink" width="25" height="24" viewBox="0 0 25 24"><defs><path id="a" d="M0 25h24.053V.947H0z"/></defs><g fill="none" fill-rule="evenodd"><path fill="#404040" d="M4.933 8.55h-1.41a.705.705 0 1 0 0 1.41h1.41a.705.705 0 1 0 0-1.41m4.227 0H7.751a.705.705 0 0 0 0 1.41h1.41a.704.704 0 1 0 0-1.41m2.866 1.41h1.456a.704.704 0 1 0 0-1.41h-1.456a.705.705 0 1 0 0 1.41m4.275 0h1.409a.704.704 0 1 0 0-1.41h-1.409a.705.705 0 1 0 0 1.41M4.933 11.37h-1.41a.704.704 0 1 0 0 1.408h1.41a.705.705 0 1 0 0-1.409m4.227.001H7.751a.704.704 0 1 0 0 1.408h1.41a.704.704 0 1 0 0-1.409m5.027.704a.704.704 0 0 0-.705-.704h-1.456a.704.704 0 1 0 0 1.41h1.456c.39 0 .705-.316.705-.706m-9.255 2.115h-1.41a.704.704 0 1 0 0 1.408h1.41a.705.705 0 1 0 0-1.409m4.227.001H7.751a.704.704 0 1 0 0 1.408h1.41a.704.704 0 1 0 0-1.409m-4.228 2.82h-1.41a.704.704 0 1 0 0 1.409h1.41a.705.705 0 1 0 0-1.41m4.227.001H7.751a.704.704 0 1 0 0 1.409h1.41a.704.704 0 1 0 0-1.41m11.369.001h-2.114v-2.114a.705.705 0 1 0-1.41 0v2.818c0 .39.316.705.706.705h2.818a.704.704 0 1 0 0-1.41"/><g transform="translate(0 -.947)"><mask id="b" fill="#fff"><use xlink:href="#a"/></mask><path fill="#404040" d="M17.711 23.59a4.939 4.939 0 0 1-4.933-4.933 4.938 4.938 0 0 1 4.933-4.932 4.938 4.938 0 0 1 4.933 4.932 4.939 4.939 0 0 1-4.933 4.933zm-5.979-2.818H1.41V8.087h18.416v4.591a6.35 6.35 0 0 0-8.457 5.979c0 .742.13 1.454.364 2.115zM1.41 4.47c0-.389.317-.705.705-.705h1.41v.705a.705.705 0 1 0 1.41 0v-.705H7.75v.705a.704.704 0 1 0 1.41 0v-.705h2.912v.705a.705.705 0 1 0 1.41 0v-.705h2.82v.705a.704.704 0 1 0 1.408 0v-.705h1.41c.388 0 .704.316.704.705v2.208H1.41V4.47zm19.825 8.917V4.47a2.116 2.116 0 0 0-2.114-2.114h-1.409v-.704a.705.705 0 1 0-1.409 0v.704h-2.82v-.704a.705.705 0 1 0-1.409 0v.704H9.16v-.704a.705.705 0 1 0-1.409 0v.704H4.933v-.704a.706.706 0 1 0-1.41 0v.704H2.114A2.116 2.116 0 0 0 0 4.47v17.007c0 .388.315.704.704.704H12.44a6.343 6.343 0 0 0 5.271 2.82 6.35 6.35 0 0 0 6.342-6.344 6.339 6.339 0 0 0-2.819-5.27z" mask="url(#b)"/></g></g></svg>