<svg xmlns="http://www.w3.org/2000/svg" xmlns:xlink="http://www.w3.org/1999/xlink" width="22" height="25" viewBox="0 0 22 25"><defs><path id="a" d="M0 24.069V.015h11.536V24.07z"/></defs><g fill="none" fill-rule="evenodd"><g transform="translate(0 .059)"><mask id="b" fill="#fff"><use xlink:href="#a"/></mask><path fill="#424242" d="M10.767 22.68H4.83c-1.613 0-2.922-1.388-2.922-3.088V4.472c0-1.705 1.314-3.088 2.922-3.088h6.034c.362 0 .651-.307.651-.69 0-.383-.29-.689-.651-.689H4.83C2.497.005.604 2.011.604 4.472v15.12c0 2.465 1.898 4.466 4.226 4.466h5.937c.362 0 .652-.306.652-.689 0-.383-.295-.69-.652-.69" mask="url(#b)"/></g><path fill="#424242" d="M21.51 11.605l-4.145-4.38a.626.626 0 0 0-.923 0 .715.715 0 0 0 0 .976l3.034 3.206H6.246c-.363 0-.652.306-.652.688 0 .383.29.69.652.69h13.23l-3.034 3.205a.714.714 0 0 0 0 .975.638.638 0 0 0 .46.204.62.62 0 0 0 .458-.204l4.145-4.38a.716.716 0 0 0 .004-.98"/></g></svg>