<svg xmlns="http://www.w3.org/2000/svg" width="27" height="27" viewBox="0 0 27 27"><path fill="#424242" fill-rule="evenodd" d="M.953 16.835c0-.32.261-.582.582-.582H3.6v6.152a.477.477 0 0 0 .953 0v-6.152h2.064c.321 0 .583.261.583.582v8.63a.583.583 0 0 1-.583.582H1.535a.583.583 0 0 1-.582-.582v-8.63zM13.023 5.09l-.394.105a.474.474 0 0 0-.337.583c.102.381.05.78-.148 1.122a1.465 1.465 0 0 1-.897.69.476.476 0 0 0-.337.584l2.082 7.708h-1.173l-.558-2.182a.48.48 0 0 0-.08-.167l-.006-.009-2.502-9.34 4.35-1.166V5.09zm0 2.202v5.051l-1.08-4.002.037-.02c.387-.199.714-.5.945-.872l.098-.157zm9.144 18.68c.104-.227.156-.47.156-.72 0-.249-.052-.49-.156-.718l-.034-.075h.249a1.75 1.75 0 0 0 1.561-2.529l-.029-.058.063-.017a1.752 1.752 0 0 0 1.284-1.684c0-.378-.119-.738-.344-1.041l-.011-.014v-6.727a.477.477 0 0 0-.953 0v6.09l-.064-.015a1.73 1.73 0 0 0-.375-.04h-.1l.035-.075a1.75 1.75 0 0 0-1.591-2.466h-1.11l.238-.102a2.48 2.48 0 1 0-1.95 0l.238.102h-3.205V5.72l.042-.01a2.435 2.435 0 0 0 1.857-1.857l.01-.042h4.067l.01.042c.2.927.93 1.656 1.857 1.857l.041.01v1.688a.477.477 0 0 0 .953 0V5.291a.477.477 0 0 0-.476-.477 1.48 1.48 0 0 1-1.478-1.478.477.477 0 0 0-.477-.477h-4.928a.476.476 0 0 0-.476.477 1.48 1.48 0 0 1-1.479 1.478.477.477 0 0 0-.476.477v10.592h-1.14V.953h12.07v25.094h-3.913l.034-.075zm-2.156-14A1.53 1.53 0 0 1 21.54 13.5a1.53 1.53 0 0 1-1.528 1.528 1.53 1.53 0 0 1-1.528-1.528 1.53 1.53 0 0 1 1.528-1.528zm-3.964 12.01c0 .263.214.477.477.477h4.052a.795.795 0 0 1 0 1.588H10.542c-.402 0-.79-.145-1.093-.41l-1.297-1.13v-7.368l2.393-2.393.443 1.73a.476.476 0 0 0 .46.359h10.41a.795.795 0 0 1 0 1.589h-5.334a.477.477 0 0 0 0 .952h6.99a.795.795 0 0 1 0 1.589h-6.99a.477.477 0 0 0 0 .952h5.858a.795.795 0 0 1 0 1.589h-5.858a.477.477 0 0 0-.477.476zM26.523 0H13.5a.477.477 0 0 0-.477.477v1.555L7.966 3.387a.473.473 0 0 0-.337.583l2.608 9.736-2.316 2.317-.036-.053a1.539 1.539 0 0 0-1.268-.67H1.535C.69 15.3 0 15.989 0 16.835v8.63C0 26.31.689 27 1.535 27h5.082c.708 0 1.32-.48 1.49-1.166l.022-.084.694.605a2.614 2.614 0 0 0 1.719.645h15.981a.477.477 0 0 0 .476-.477V.476A.474.474 0 0 0 26.523 0z"/></svg>