<svg xmlns="http://www.w3.org/2000/svg" xmlns:xlink="http://www.w3.org/1999/xlink" width="30" height="24" viewBox="0 0 30 24"><defs><path id="a" d="M14.61 23.969h14.609V0H0v23.968z"/></defs><g fill="none" fill-rule="evenodd"><mask id="b" fill="#fff"><use xlink:href="#a"/></mask><path fill="#404040" d="M28.078 13.697c0 .487-.665 1.057-1.733 1.488-1.16.466-2.712.748-4.316.788v-2.281c1.765-.041 3.436-.347 4.74-.873.514-.206.952-.44 1.309-.698v1.576zm0 3.424c0 .487-.665 1.057-1.733 1.488-1.16.466-2.712.748-4.316.789v-2.282c1.765-.04 3.436-.347 4.74-.872a6.234 6.234 0 0 0 1.309-.7v1.577zm-8.86-6.143c-1.145-.403-2.561-.645-4.037-.695V8.697c.357.257.794.492 1.307.698 1.404.566 3.23.877 5.142.877 1.91 0 3.736-.311 5.14-.877a6.188 6.188 0 0 0 1.308-.698v1.575c0 .487-.665 1.058-1.733 1.488-1.252.504-2.964.793-4.703.795-.448-.632-1.276-1.172-2.424-1.577zm.015 4.209c-1.226.51-2.869.792-4.623.792-1.756 0-3.397-.281-4.623-.792-1.037-.431-1.655-.99-1.655-1.49 0-.094.02-.186.06-.28.424-.985 2.865-2.003 6.218-2.003 3.352 0 5.794 1.018 6.216 2a.707.707 0 0 1 .061.283c0 .5-.619 1.059-1.654 1.49zm1.654 1.934c0 .74-1.431 1.738-4.082 2.127a.57.57 0 1 0 .165 1.13c1.395-.205 2.6-.584 3.486-1.098.159-.091.303-.185.431-.277v1.542c0 .502-.619 1.059-1.654 1.49-1.226.512-2.869.793-4.623.793-1.756 0-3.397-.281-4.623-.792-1.037-.432-1.655-.99-1.655-1.491v-1.542a5.1 5.1 0 0 0 .43.277c.886.514 2.092.893 3.487 1.098a.57.57 0 0 0 .166-1.13c-2.651-.39-4.082-1.387-4.082-2.127v-1.548c1.29.945 3.57 1.548 6.277 1.548 2.706 0 4.986-.603 6.277-1.548v1.548zm-13.31-4.566c-1.737-.002-3.45-.291-4.701-.795-1.07-.43-1.735-1.001-1.735-1.488V8.697c.359.257.794.492 1.308.698 1.405.566 3.23.877 5.141.877 1.912 0 3.736-.311 5.14-.877a6.188 6.188 0 0 0 1.309-.698v1.586c-1.476.05-2.893.292-4.037.695-1.15.405-1.976.945-2.426 1.577zm-.386 1.142v2.276c-1.603-.04-3.157-.322-4.315-.788-1.07-.431-1.735-1.001-1.735-1.488V12.12c.359.258.794.492 1.308.698 1.307.526 2.978.832 4.742.873v.005zm0 5.7c-1.603-.04-3.157-.322-4.315-.788-1.07-.431-1.735-1.001-1.735-1.488v-1.576a6.26 6.26 0 0 0 1.308.699c1.307.525 2.978.832 4.742.872v2.282zM1.14 5.273c.359.258.794.492 1.308.699 1.405.566 3.23.877 5.141.877 1.912 0 3.736-.311 5.14-.877a6.189 6.189 0 0 0 1.309-.7v1.577c0 .488-.665 1.058-1.733 1.489-1.254.505-2.973.795-4.715.795-1.743 0-3.462-.29-4.716-.795-1.069-.431-1.734-1.001-1.734-1.49V5.273zm1.735-3.336C4.13 1.43 5.848 1.14 7.59 1.14c1.741 0 3.46.29 4.715.795 1.069.43 1.733 1 1.733 1.489 0 .487-.665 1.057-1.733 1.488-1.254.505-2.973.794-4.715.794-1.743 0-3.462-.29-4.716-.794C1.805 4.481 1.14 3.911 1.14 3.424c0-.488.665-1.058 1.735-1.49zM15.18 5.272a6.18 6.18 0 0 0 1.307.699c1.404.566 3.23.877 5.142.877 1.91 0 3.736-.311 5.14-.877a6.189 6.189 0 0 0 1.308-.7v1.577c0 .488-.665 1.058-1.733 1.489-1.255.505-2.973.795-4.715.795-1.743 0-3.461-.29-4.715-.795-1.07-.431-1.734-1.001-1.734-1.49V5.273zm1.734-3.336c1.254-.505 2.972-.795 4.715-.795 1.742 0 3.46.29 4.715.795 1.069.43 1.733 1 1.733 1.489 0 .487-.665 1.057-1.733 1.488-1.255.505-2.973.794-4.715.794-1.743 0-3.461-.29-4.715-.794-1.07-.431-1.734-1.001-1.734-1.488 0-.488.665-1.058 1.734-1.49zM26.77.878C25.366.312 23.54 0 21.63 0c-1.912 0-3.738.31-5.142.877-.83.334-1.463.742-1.878 1.2-.415-.458-1.05-.866-1.88-1.2C11.326.312 9.502 0 7.59 0 5.68 0 3.854.31 2.45.878.869 1.513 0 2.418 0 3.425V17.12c0 1.006.869 1.91 2.447 2.547 1.308.526 2.978.832 4.742.872v.005c0 1.952 3.19 3.424 7.42 3.424s7.419-1.472 7.419-3.424v-.005c1.765-.04 3.436-.346 4.74-.872 1.58-.636 2.45-1.541 2.45-2.547V3.425c0-1.007-.87-1.912-2.45-2.547z" mask="url(#b)"/></g></svg>