<svg xmlns="http://www.w3.org/2000/svg" xmlns:xlink="http://www.w3.org/1999/xlink" width="27" height="27" viewBox="0 0 27 27"><defs><path id="a" d="M0 0h27v17.1H0z"/><path id="c" d="M0 27h27V0H0z"/></defs><g fill="none" fill-rule="evenodd"><mask id="b" fill="#fff"><use xlink:href="#a"/></mask><path fill="#424242" d="M13.554 8.765a1.72 1.72 0 0 0 2.43 2.43l.216-.213V16.2H.9V6.3l15.106.008-2.452 2.457zM11.832.132L6.564 5.4H.45a.45.45 0 0 0-.45.45v10.8c0 .248.201.45.45.45h16.2a.45.45 0 0 0 .45-.45v-6.566L19.086 8.1h2.98a3.617 3.617 0 0 0 3.089-1.748l.3-.502H27v-.9h-1.8a.45.45 0 0 0-.386.218l-.432.72A2.714 2.714 0 0 1 22.067 7.2H18.9a.45.45 0 0 0-.318.131l-3.233 3.23A.819.819 0 1 1 14.19 9.4l3.229-3.233-.319-.318a.45.45 0 0 0-.45-.45h-2.514l.582-.582-.636-.636L12.864 5.4h-1.428l1.932-1.932-.636-.636L10.164 5.4H7.836l4.5-4.5H27V0H12.15a.45.45 0 0 0-.318.132z" mask="url(#b)"/><path fill="#424242" d="M5.4 14.4a.879.879 0 0 1-.228-.03l.045-.09a1.242 1.242 0 0 0 .135-.376.955.955 0 0 0 .018-.09c.042-.207.042-.42 0-.627-.005-.03-.01-.06-.018-.09a1.794 1.794 0 0 0-.083-.267c-.015-.038-.034-.073-.052-.11-.018-.036-.027-.06-.045-.09A.9.9 0 1 1 5.4 14.4m-2.7-.9a.896.896 0 0 1 1.496-.67l.003.004a.895.895 0 0 1 .277.466c0 .005.003.01.004.015a.879.879 0 0 1 0 .37c0 .005-.003.01-.004.015a.895.895 0 0 1-.277.466l-.003.003A.896.896 0 0 1 2.7 13.5m2.7-1.8a1.777 1.777 0 0 0-.9.25 1.776 1.776 0 0 0-.9-.25 1.8 1.8 0 0 0 0 3.6c.317-.002.628-.088.9-.25.272.162.583.248.9.25a1.8 1.8 0 0 0 0-3.6"/><mask id="d" fill="#fff"><use xlink:href="#c"/></mask><path fill="#424242" d="M1.8 9h1.8v-.9H1.8zm2.7 0h1.8v-.9H4.5zm2.7 0H9v-.9H7.2zm2.7 0h1.8v-.9H9.9zm3.15 5.85h2.25v-.9h-2.25zm-2.7 11.25h-9v-.9h6.3v-.9h-6.3v-4.05a.45.45 0 0 1 .45-.45h8.1v3.15h.9v-3.081l14.464 2.066a.45.45 0 0 1 .386.445v1.92H8.55v.9h17.1v.9h-15.3zm2.517-7.403l2.23.306-.077.561-2.228-.318.075-.549zm6.242.856l2.23.305-.082.597-2.228-.318.08-.584zm-3.119-.428l2.227.306-.08.579-2.226-.319.079-.566zm8.384 1.774l-2.226-.318.082-.601 2.228.305-.084.614zm1.017.145l-.126-.018.147-1.066a.45.45 0 0 0-.385-.507l-3.118-.428-3.123-.427-3.119-.428-3.123-.427a.45.45 0 0 0-.507.384l-.134.99-1.486-.212a.414.414 0 0 0-.064.004V18.9H1.8a1.35 1.35 0 0 0-1.35 1.35v6.3c0 .248.201.45.45.45h25.2a.45.45 0 0 0 .45-.45v-4.17a1.356 1.356 0 0 0-1.16-1.336z" mask="url(#d)"/></g></svg>