<svg xmlns="http://www.w3.org/2000/svg" xmlns:xlink="http://www.w3.org/1999/xlink" width="26" height="27" viewBox="0 0 26 27"><defs><path id="a" d="M0 0h25.6v26.947H0z"/><path id="c" d="M0 27h25.6V.053H0z"/></defs><g fill="none" fill-rule="evenodd"><path fill="#C4C1C1" d="M9.88 1.4H7.636c-.27 0-.449.18-.449.45 0 .269.18.448.45.448H9.88c.27 0 .449-.18.449-.449 0-.27-.18-.449-.45-.449m-3.591 0h-.45c-.269 0-.448.18-.448.45 0 .269.18.448.449.448h.449c.27 0 .449-.18.449-.449 0-.27-.18-.449-.45-.449"/><g transform="translate(0 .053)"><mask id="b" fill="#fff"><use xlink:href="#a"/></mask><path fill="#424242" d="M23.804 19.312H8.084a.9.9 0 0 1-.898-.898v-6.737h17.516v6.737a.9.9 0 0 1-.898.898zm-8.983 3.144H1.347V3.593h13.474V5.84H8.084c-.988 0-1.796.808-1.796 1.796v10.779c0 .988.808 1.797 1.796 1.797h6.737v2.245zm0 2.695a.9.9 0 0 1-.898.898H9.269c.374-.33.612-.812.612-1.347 0-.535-.238-1.018-.612-1.347h5.552v1.796zm-6.737.45a.9.9 0 0 1-.898-.9.9.9 0 0 1 .898-.897.9.9 0 0 1 .898.898.9.9 0 0 1-.898.898zm-6.737-.45v-1.796H6.9a1.791 1.791 0 0 0 0 2.694H2.246a.9.9 0 0 1-.899-.898zm0-23.354a.9.9 0 0 1 .899-.899h11.677a.9.9 0 0 1 .898.899v.898H1.347v-.898zm5.839 8.982h17.516V8.983H7.186v1.796zm16.618-4.042a.9.9 0 0 1 .898.898v.45H7.186v-.45a.9.9 0 0 1 .898-.898h15.72zm0-.898h-8.085V1.797A1.801 1.801 0 0 0 13.923 0H2.246C1.257 0 .449.81.449 1.797v2.245c-.27 0-.449.18-.449.45v.448c0 .27.18.45.45.45v.449c-.27 0-.45.18-.45.449v.449c0 .27.18.449.45.449v.45c-.27 0-.45.179-.45.448v.45c0 .269.18.448.45.448v16.169a1.8 1.8 0 0 0 1.796 1.796h11.677c.988 0 1.796-.808 1.796-1.796V20.21h8.084c.988 0 1.797-.809 1.797-1.797V7.635c0-.988-.808-1.796-1.796-1.796z" mask="url(#b)"/></g><mask id="d" fill="#fff"><use xlink:href="#c"/></mask><path fill="#424242" d="M17.965 17.568h4.94v-2.245h-4.94v2.245zm5.39-3.143h-5.84c-.269 0-.448.18-.448.449v3.144c0 .269.18.449.449.449h5.838c.27 0 .45-.18.45-.45v-3.143c0-.27-.18-.45-.45-.45zm-14.822-.45h2.246c.27 0 .45-.18.45-.449 0-.27-.18-.449-.45-.449H8.533c-.27 0-.449.18-.449.45 0 .269.18.448.45.448m6.691-.898h-2.919c-.27 0-.45.18-.45.45 0 .269.18.448.45.448h2.92c.269 0 .448-.18.448-.449 0-.27-.18-.449-.449-.449m-2.245 1.797H8.533c-.27 0-.449.18-.449.449 0 .27.18.449.45.449h4.446a.45.45 0 0 0 .449-.45c0-.269-.18-.448-.45-.448m2.246 0h-.853c-.27 0-.45.18-.45.449 0 .27.18.449.45.449h.853c.27 0 .45-.18.45-.45 0-.269-.18-.448-.45-.448" mask="url(#d)"/></g></svg>