<svg xmlns="http://www.w3.org/2000/svg" width="37" height="29" viewBox="0 0 37 29"><path fill="#BAD341" fill-rule="evenodd" d="M34.286 0H2.715C1.218 0 0 1.123 0 2.51c0 1.385 1.218 2.51 2.715 2.51h4.25v20.885c0 1.71 1.5 3.095 3.349 3.095 1.846 0 3.346-1.385 3.346-3.095V5.02h4.973v20.885c0 1.71 1.501 3.095 3.348 3.095 1.851 0 3.35-1.385 3.35-3.095V5.02h4.972v20.885c0 1.71 1.499 3.095 3.348 3.095C35.501 29 37 27.615 37 25.905V3.096c0-.1-.022-.195-.032-.293.012-.098.032-.193.032-.293C37 1.123 35.784 0 34.286 0"/></svg>