<svg xmlns="http://www.w3.org/2000/svg" width="199" height="20" viewBox="0 0 199 20"><path d="M23.587 0H1.867C.838 0 0 .774 0 1.73s.838 1.732 1.868 1.732h2.924v14.403c0 1.18 1.031 2.135 2.303 2.135 1.27 0 2.302-.955 2.302-2.135V3.462h3.422v14.403c0 1.18 1.033 2.135 2.303 2.135 1.273 0 2.304-.955 2.304-2.135V3.462h3.421v14.403c0 1.18 1.031 2.135 2.304 2.135 1.272 0 2.304-.955 2.304-2.135V2.135c0-.07-.016-.134-.022-.202.008-.067.022-.133.022-.202C25.455.774 24.618 0 23.587 0m15.198.003l-.002-.002-.53-.001H31.52c-.003.009-.008.018-.01.027C31.421.016 31.334 0 31.244 0a2.143 2.143 0 0 0-2.154 2.135v15.73c0 1.18.963 2.135 2.154 2.135 1.19 0 2.154-.955 2.154-2.135v-4.864h5.334l.001-.001h.02c1.19 0 2.155-.954 2.155-2.134V1.884l-.025.005A2.138 2.138 0 0 0 38.785.003zM33.4 9.54h3.202V3.463H33.4V9.54zM56.02 0c-1.193 0-2.16.955-2.16 2.135v7.212l-3.173 3.135V2.135C50.687.955 49.72 0 48.526 0c-1.192 0-2.162.955-2.162 2.135v15.73c0 1.18.97 2.135 2.162 2.135.328 0 .635-.078.914-.207a2.26 2.26 0 0 0 .88-.533l.702-.694 2.837-2.804v2.103c0 1.18.968 2.135 2.161 2.135 1.194 0 2.162-.955 2.162-2.135V2.135C58.182.955 57.214 0 56.02 0m101.856.003l-.003-.002-.528-.001h-6.734c-.003.009-.008.018-.01.026-.088-.01-.174-.026-.264-.026a2.144 2.144 0 0 0-2.155 2.135v15.73c0 1.18.964 2.135 2.155 2.135a2.144 2.144 0 0 0 2.153-2.135v-4.864h5.334l.001-.002.02.002c1.19 0 2.155-.955 2.155-2.135V1.884l-.025.005a2.138 2.138 0 0 0-2.1-1.886zM152.49 9.54h3.202V3.463h-3.202V9.54zM139.663 0c-1.19 0-2.154.955-2.154 2.135V9.54h-3.202V1.947l-.021-.025A2.139 2.139 0 0 0 132.152 0a2.14 2.14 0 0 0-2.127 1.89L130 1.882v8.983c0 1.18.965 2.135 2.152 2.135l.022-.002.001.001h5.334v3.498h-5.76A1.74 1.74 0 0 0 130 18.231a1.74 1.74 0 0 0 1.749 1.73h7.526a2.145 2.145 0 0 0 2.543-2.096V2.135c0-1.18-.965-2.135-2.155-2.135M99.917.025L99.898 0h-7.744C90.964 0 90 .955 90 2.135v15.731c0 1.179.964 2.134 2.154 2.134a2.144 2.144 0 0 0 2.153-2.134V13h3.204v4.865c0 1.179.962 2.134 2.153 2.134a2.144 2.144 0 0 0 2.154-2.134V2.135c0-1.094-.832-1.985-1.901-2.11zm-5.61 9.515h3.204V3.463h-3.204V9.54zM174.462.025c-.006-.008-.013-.016-.018-.025h-7.745c-1.19 0-2.154.955-2.154 2.135v15.731c0 1.179.965 2.134 2.154 2.134 1.19 0 2.155-.955 2.155-2.134V13h3.202v4.865c0 1.179.963 2.134 2.153 2.134s2.155-.955 2.155-2.134V2.135c0-1.095-.833-1.985-1.902-2.11zm-5.608 9.515h3.202V3.463h-3.202V9.54zM196.329.014h-12.986c-.051-.003-.1-.014-.151-.014-.052 0-.1.01-.15.014h-.098l-.007.01c-1.139.12-2.028 1.01-2.028 2.107v8.718c0 1.176 1.023 2.129 2.283 2.129.018 0 .035-.005.053-.005v.005h2.183l-2.935 2.736-.699.652c-.89.831-.89 2.18 0 3.012.892.83 2.337.83 3.229 0l.697-.652 3.238-3.021v2.123c0 1.176 1.022 2.129 2.283 2.129s2.281-.953 2.281-2.129V3.467h2.807c1.023 0 1.853-.774 1.853-1.727 0-.954-.83-1.726-1.853-1.726zm-7.37 9.512h-3.486V3.467h3.485v6.059zM123.225 0c-.618 0-1.177.241-1.58.63l-.021-.008-6.217 5.955-5.866-5.62A2.25 2.25 0 0 0 107.684 0c-1.231 0-2.23.955-2.23 2.135v15.73c0 1.18.999 2.135 2.23 2.135 1.231 0 2.228-.955 2.228-2.135V6.21l3.323 3.184v1.574c0 1.18.999 2.136 2.23 2.136 1.23 0 2.23-.956 2.23-2.136V9.283l3.3-3.162v11.744c0 1.18.998 2.135 2.23 2.135 1.23 0 2.23-.955 2.23-2.135V2.135c0-1.18-1-2.135-2.23-2.135M74.65 0c-.666 0-1.237.372-1.533.914-.244.346-.39.766-.39 1.221v15.73c0 .455.146.875.39 1.22.296.543.867.915 1.532.915h9.896c-.003-.018-.002-.036-.004-.054h.004v-4.81a2.146 2.146 0 0 0-2.156-2.135 2.144 2.144 0 0 0-2.153 2.135v1.401h-3.2V3.462h3.2v1.223c0 1.178.965 2.135 2.153 2.135 1.19 0 2.156-.957 2.156-2.135V.103a.17.17 0 0 0-.01.008c.003-.037.012-.074.01-.111H74.65z" fill="#BAD341" fill-rule="evenodd"/></svg>