<svg xmlns="http://www.w3.org/2000/svg" width="160" height="97" viewBox="0 0 160 97"><defs><style>.cls-1{fill-rule:evenodd}</style></defs><path id="arc" class="cls-1" d="M-7 945.135c1.257 0 2.524-.1 3.769.018 4.823.474 9.533-.776 14.307-1.05a64.251 64.251 0 0 0 11.859-1.595c4.158-1.043 8.429-1.6 12.513-3.135a55.746 55.746 0 0 1 5.985-1.708c1.91-.477 3.746-1.035 5.621-1.643a186.444 186.444 0 0 0 27.5-11.592 151 151 0 0 0 19.5-11.527 145.931 145.931 0 0 0 12.787-9.872c5.288-4.773 11.041-9.082 15.738-14.455 4.874-5.579 10.037-10.935 14.087-17.245a23.445 23.445 0 0 1 3.75-4.776c.527-.478.176-1.051.289-1.569H160a4.738 4.738 0 0 1-.82 3.054c-2.681 3.6-5.091 7.41-7.535 11.184a2.731 2.731 0 0 1-.546 1.023c-1.419.946-1.913 2.6-2.944 3.846a215.477 215.477 0 0 1-14.755 16.666c-1.4 1.371-2.444 3.257-3.953 4.617-4.573 4.119-9.015 8.419-13.869 12.177-6.611 5.117-13.359 10.114-20.418 14.571-5.8 3.66-12.181 6.375-18.226 9.655-9.966 5.406-20.828 8.5-31.341 12.494-4.235.294-8.017 2.451-12.3 2.847-2.222.2-4.6 1.126-6.884 1.386-2.4.273-4.8.805-7.156 1.17-2.28.354-4.633.152-6.791.73-3.8 1.018-7.692.2-11.389.908a51.31 51.31 0 0 1-8.073.694v-16.873z" transform="translate(0 -865)"/></svg>