<?xml version="1.0" encoding="iso-8859-1"?>
<!-- Generator: Adobe Illustrator 16.0.3, SVG Export Plug-In . SVG Version: 6.00 Build 0)  -->
<!DOCTYPE svg PUBLIC "-//W3C//DTD SVG 1.1//EN" "http://www.w3.org/Graphics/SVG/1.1/DTD/svg11.dtd" [
	<!ENTITY ns_flows "http://ns.adobe.com/Flows/1.0/">
	<!ENTITY ns_extend "http://ns.adobe.com/Extensibility/1.0/">
	<!ENTITY ns_ai "http://ns.adobe.com/AdobeIllustrator/10.0/">
	<!ENTITY ns_graphs "http://ns.adobe.com/Graphs/1.0/">
]>
<svg version="1.1" id="Layer_1" xmlns:x="&ns_extend;" xmlns:i="&ns_ai;" xmlns:graph="&ns_graphs;"
	 xmlns="http://www.w3.org/2000/svg" xmlns:xlink="http://www.w3.org/1999/xlink" xmlns:a="http://ns.adobe.com/AdobeSVGViewerExtensions/3.0/"
	 x="0px" y="0px" width="96.991px" height="167.001px" viewBox="0 0 96.991 167.001"
	 style="enable-background:new 0 0 96.991 167.001;" xml:space="preserve">
<path style="fill-rule:evenodd;clip-rule:evenodd;" d="M80.123,167.001c0-1.257-0.104-2.524,0.019-3.769
	c0.473-4.823-1.679-22.314-2.645-26.166c-1.043-4.158-4.342-16.494-4.842-18.498c-0.476-1.91-1.035-3.746-1.642-5.621
	c-3.082-9.501-7.03-18.598-11.588-27.497c-3.455-6.749-7.13-13.39-11.524-19.499c-3.119-4.336-6.228-8.751-9.868-12.786
	c-4.771-5.289-9.08-11.042-14.451-15.738c-5.577-4.875-10.932-10.037-17.24-14.087C4.704,22.29,0.518,19.415,0,19.302
	C0,12.867,0,6.435,0,0c1.077,0.042,1.998,0.035,3.053,0.82c3.602,2.68,7.408,5.09,11.18,7.534c0.292,0.189,3.621,2.459,4.868,3.49
	c5.721,4.732,19.917,17.202,21.276,18.711c4.118,4.573,8.417,9.015,12.173,13.87c5.116,6.61,10.111,13.359,14.565,20.417
	c3.66,5.799,6.373,12.181,9.652,18.226c5.405,9.966,14.94,39.358,15.336,43.645c0.205,2.222,1.126,4.604,1.386,6.884
	c0.274,2.402,0.806,4.799,1.17,7.156c0.353,2.28,2.237,23.549,2.331,26.248C91.369,167.001,85.746,167.001,80.123,167.001z"/>
</svg>
