<?xml version="1.0" encoding="iso-8859-1"?>
<!-- Generator: Adobe Illustrator 16.0.3, SVG Export Plug-In . SVG Version: 6.00 Build 0)  -->
<!DOCTYPE svg PUBLIC "-//W3C//DTD SVG 1.1//EN" "http://www.w3.org/Graphics/SVG/1.1/DTD/svg11.dtd" [
	<!ENTITY ns_flows "http://ns.adobe.com/Flows/1.0/">
	<!ENTITY ns_extend "http://ns.adobe.com/Extensibility/1.0/">
	<!ENTITY ns_ai "http://ns.adobe.com/AdobeIllustrator/10.0/">
	<!ENTITY ns_graphs "http://ns.adobe.com/Graphs/1.0/">
]>
<svg version="1.1" id="Layer_1" xmlns:x="&ns_extend;" xmlns:i="&ns_ai;" xmlns:graph="&ns_graphs;"
	 xmlns="http://www.w3.org/2000/svg" xmlns:xlink="http://www.w3.org/1999/xlink" xmlns:a="http://ns.adobe.com/AdobeSVGViewerExtensions/3.0/"
	 x="0px" y="0px" width="301.291px" height="98.698px" viewBox="0 0 301.291 98.698"
	 style="enable-background:new 0 0 301.291 98.698;" xml:space="preserve">
<path style="fill-rule:evenodd;clip-rule:evenodd;" d="M203.274,25.809c1.683,0.18,2.743-0.056,2.66-2.276
	c-0.13-3.516-0.965-5.07-3.472-5.305c-2.333-0.221-4.153,1.458-4.153,3.829C198.31,24.558,199.924,25.779,203.274,25.809z"/>
<path style="fill-rule:evenodd;clip-rule:evenodd;" d="M266.423,74.06c0.187,1.007-0.361,2.207,0.662,3.305
	c1.093,1.169,2.236,1.857,3.815,1.522c1.817-0.385,2.834-1.47,3.123-3.405c0.262-1.766-0.681-2.815-1.861-3.666
	c-1.493-1.08-3.327-0.572-4.94-0.4C266.163,71.528,266.423,72.975,266.423,74.06z"/>
<path style="fill-rule:evenodd;clip-rule:evenodd;" d="M145.435,27.328c1.019-0.051,4.327-3.417,4.441-4.521
	c0.18-1.721-2.267-3.216-5.012-3.063c-2.217,0.125-4.35,1.835-4.069,3.259C141.034,24.205,144.435,27.377,145.435,27.328z"/>
<path style="fill-rule:evenodd;clip-rule:evenodd;" d="M129.814,44.014c-1.628-0.143-2.788-0.046-2.698,2.239
	c0.137,3.527,0.943,5.076,3.436,5.344c2.297,0.245,4.19-1.466,4.19-3.793C134.742,45.275,133.161,44.06,129.814,44.014z"/>
<path style="fill-rule:evenodd;clip-rule:evenodd;" d="M254.281,40.979c0.98,0.011,4.382-3.26,4.568-4.395
	c0.229-1.399-1.958-3.086-4.137-3.19c-2.656-0.127-5.172,1.466-4.943,3.131C249.926,37.67,253.266,40.965,254.281,40.979z"/>
<path style="fill-rule:evenodd;clip-rule:evenodd;" d="M213.446,45.575c0.004,2.246,1.414,4.496,2.822,4.504
	c1.012,0.007,4.535-3.126,4.744-4.22c0.253-1.328-3.452-5.259-4.813-4.814C214.173,41.705,213.082,43.28,213.446,45.575z"/>
<path style="fill-rule:evenodd;clip-rule:evenodd;" d="M86.308,69.541c0.099,1.181-0.331,2.422,0.84,3.419
	c1.141,0.972,2.079,2.263,3.641,0.69c0.706-0.708,1.373-1.459,2.126-2.112c1.512-1.316,1.236-2.484-0.171-3.643
	c-0.382-0.318-0.713-0.699-1.063-1.057c-0.852-0.874-1.769-2.283-3.031-1.501c-1.116,0.693-2.616,1.599-2.345,3.455
	C86.34,69.037,86.31,69.291,86.308,69.541z"/>
<path style="fill-rule:evenodd;clip-rule:evenodd;" d="M107.497,45.179c0.105-1.581,0.15-2.823-2.197-2.747
	c-3.811,0.122-5.566,1.281-5.369,4.151c0.136,1.976,1.766,3.497,3.746,3.497C106.229,50.08,107.439,48.525,107.497,45.179z"/>
<path style="fill-rule:evenodd;clip-rule:evenodd;" d="M42.399,90.989c0.775-0.132,1.94,0.34,3.062-0.64
	c1.257-1.099,1.801-2.302,1.475-3.843c-0.384-1.799-1.479-2.83-3.424-3.1c-1.776-0.246-2.817,0.721-3.642,1.898
	c-1.047,1.495-0.567,3.344-0.375,4.958C39.616,91.288,41.074,91.047,42.399,90.989z"/>
<path style="fill-rule:evenodd;clip-rule:evenodd;" d="M183.129,31.421c0.046,2.323,2.179,3.142,3.445,4.538
	c1.113,1.226,2.181,0.298,3.049-0.678c0.331-0.372,0.697-0.716,1.056-1.063c0.88-0.852,2.018-1.618,1.56-3.093
	c-0.461-1.48-3.528-2.514-5.785-2.324C184.675,28.953,184.117,30.345,183.129,31.421z"/>
<path style="fill-rule:evenodd;clip-rule:evenodd;" d="M225.551,19.473c0.16,1.069-0.27,2.227,0.708,3.349
	c1.107,1.265,2.333,1.786,3.847,1.441c1.767-0.398,2.815-1.491,3.063-3.459c0.225-1.791-0.757-2.83-1.931-3.633
	c-1.484-1.017-3.334-0.581-4.94-0.335C225.241,16.996,225.591,18.45,225.551,19.473z"/>
<path style="fill-rule:evenodd;clip-rule:evenodd;" d="M229.427,51.597c-2.076-0.226-3.222,1.124-3.804,2.729
	c-0.479,1.311,3.429,5.079,4.764,4.854c1.088-0.184,4.234-3.677,4.246-4.716C234.654,52.811,232.068,51.387,229.427,51.597z"/>
<path style="fill-rule:evenodd;clip-rule:evenodd;" d="M42.417,40.408c0.09-2.062-1.382-3.782-3.406-3.98
	c-2.424-0.236-4.269,1.531-4.16,3.984c0.092,2.059,1.709,3.601,3.785,3.601C40.709,44.012,42.327,42.47,42.417,40.408z"/>
<path style="fill-rule:evenodd;clip-rule:evenodd;" d="M190.74,2.265c0.421-2.286-1.018-2.305-2.637-2.253
	c-2.766,0.089-4.91,1.38-4.928,3.066c-0.014,1.215,2.502,4.518,3.451,4.53C189.781,7.654,190.842,6.273,190.74,2.265z"/>
<path style="fill-rule:evenodd;clip-rule:evenodd;" d="M76.281,63.731c2.058,0.09,3.774-1.383,3.975-3.412
	c0.238-2.424-1.53-4.28-3.971-4.172c-2.056,0.09-3.597,1.713-3.597,3.79C72.688,62.017,74.225,63.64,76.281,63.731z"/>
<path style="fill-rule:evenodd;clip-rule:evenodd;" d="M73.13,80.416c2.145,0.169,3.81-1.166,4.098-3.287
	c0.319-2.354-1.452-4.333-3.845-4.298c-2.086,0.032-3.66,1.581-3.723,3.666C69.598,78.562,71.098,80.254,73.13,80.416z"/>
<path style="fill-rule:evenodd;clip-rule:evenodd;" d="M298.199,55.464c0.373-2.096-0.74-2.438-2.526-2.382
	c-3.375,0.108-4.79,1.063-5.039,3.711c-0.132,1.399,3.137,4.049,4.817,3.904C297.041,60.561,298.27,58.225,298.199,55.464z"/>
<path style="fill-rule:evenodd;clip-rule:evenodd;" d="M278.528,64.861c0.046,3.366,1.107,4.752,3.781,4.938
	c1.507,0.104,4.031-3.189,3.783-4.94c-0.209-1.48-2.702-2.53-5.331-2.699C278.479,62.013,278.385,63.227,278.528,64.861z"/>
<path style="fill-rule:evenodd;clip-rule:evenodd;" d="M278.526,49.13c-0.092,2.063,1.378,3.785,3.403,3.982
	c2.421,0.24,4.271-1.531,4.163-3.98c-0.09-2.061-1.708-3.603-3.781-3.603C280.236,45.53,278.618,47.07,278.526,49.13z"/>
<path style="fill-rule:evenodd;clip-rule:evenodd;" d="M140.796,38.548c0,1.191-0.19,1.998,0.041,2.657
	c0.48,1.381,1.414,2.872,2.918,2.697c1.502-0.174,3.252-0.914,4.241-2.002c0.841-0.926,0.764-2.664-0.351-3.941
	c-0.991-1.138-4.753-2.196-6.013-1.519C140.588,37.001,140.743,38.035,140.796,38.548z"/>
<path style="fill-rule:evenodd;clip-rule:evenodd;" d="M24.255,46.475c0.091-2.063-1.382-3.782-3.406-3.98
	c-2.424-0.236-4.269,1.531-4.16,3.983c0.092,2.059,1.709,3.601,3.785,3.601C22.547,50.08,24.165,48.538,24.255,46.475z"/>
<path style="fill-rule:evenodd;clip-rule:evenodd;" d="M266.418,57.237c0.032,3.386,1.09,4.788,3.746,4.977
	c1.502,0.106,4.033-3.14,3.822-4.901c-0.181-1.501-2.646-2.75-5.297-2.683C266.439,54.686,266.395,54.737,266.418,57.237z"/>
<path style="fill-rule:evenodd;clip-rule:evenodd;" d="M144.577,60.697c2.076,0,3.695-1.54,3.787-3.601
	c0.108-2.453-1.737-4.218-4.161-3.984c-2.025,0.199-3.497,1.918-3.407,3.98S142.505,60.697,144.577,60.697z"/>
<path style="fill-rule:evenodd;clip-rule:evenodd;" d="M269.824,45.53c2.019,0.196,3.855-1.226,4.162-3.225
	c0.355-2.333-1.405-4.36-3.787-4.36c-2.074,0-3.691,1.544-3.781,3.604C266.328,43.612,267.8,45.332,269.824,45.53z"/>
<path style="fill-rule:evenodd;clip-rule:evenodd;" d="M215.713,33.395c2.076,0,3.694-1.542,3.785-3.601
	c0.107-2.454-1.736-4.22-4.16-3.983c-2.024,0.197-3.498,1.917-3.408,3.98C212.022,31.853,213.64,33.395,215.713,33.395z"/>
<path style="fill-rule:evenodd;clip-rule:evenodd;" d="M245.229,45.955c-0.034-3.384-1.09-4.786-3.748-4.975
	c-1.502-0.107-4.033,3.139-3.82,4.901c0.18,1.501,2.646,2.749,5.297,2.682C245.208,48.506,245.252,48.455,245.229,45.955z"/>
<path style="fill-rule:evenodd;clip-rule:evenodd;" d="M211.93,13.169c0.125,2.048,1.78,3.571,3.846,3.541
	c2.086-0.032,3.66-1.581,3.721-3.667c0.073-2.413-1.85-4.197-4.223-3.918C213.249,9.364,211.805,11.109,211.93,13.169z"/>
<path style="fill-rule:evenodd;clip-rule:evenodd;" d="M205.878,6.852c0-2.078-1.539-3.701-3.595-3.793
	c-2.447-0.108-4.209,1.741-3.973,4.171c0.197,2.028,1.912,3.503,3.972,3.414C204.338,10.553,205.878,8.93,205.878,6.852z"/>
<path style="fill-rule:evenodd;clip-rule:evenodd;" d="M241.256,31.878c2.058,0.09,3.774-1.383,3.973-3.412
	c0.236-2.428-1.528-4.278-3.973-4.171c-2.056,0.09-3.595,1.713-3.595,3.792C237.661,30.165,239.2,31.788,241.256,31.878z"/>
<path style="fill-rule:evenodd;clip-rule:evenodd;" d="M172.081,21.262c-1.794-0.245-2.635,0.259-2.583,2.348
	c0.097,3.852,1.234,5.432,4.281,5.234c0.909-0.06,3.385-3.501,3.342-4.643C177.056,22.52,174.897,21.26,172.081,21.262z"/>
<path style="fill-rule:evenodd;clip-rule:evenodd;" d="M121.119,75.864c1.928-0.392,3.326-2.406,3.028-4.359
	c-0.336-2.186-2.868-3.848-4.917-3.223c-1.713,0.52-3.083,2.967-2.651,4.739C117.01,74.788,119.313,76.233,121.119,75.864z"/>
<path style="fill-rule:evenodd;clip-rule:evenodd;" d="M115.065,55.011c-0.196,2.023,1.225,3.864,3.218,4.169
	c2.327,0.358,4.35-1.406,4.35-3.793c0-2.077-1.541-3.7-3.597-3.79C116.979,51.507,115.262,52.982,115.065,55.011z"/>
<path style="fill-rule:evenodd;clip-rule:evenodd;" d="M115.761,40.979c2.067,0.03,3.721-1.494,3.846-3.541
	c0.155-2.553-1.56-4.245-4.1-4.044c-2.031,0.161-3.53,1.853-3.468,3.918C112.101,39.397,113.675,40.948,115.761,40.979z"/>
<path style="fill-rule:evenodd;clip-rule:evenodd;" d="M105.48,66.764c2.042-0.124,3.563-1.784,3.533-3.855
	c-0.032-2.089-1.579-3.666-3.658-3.729c-2.408-0.07-4.188,1.856-3.91,4.234C101.682,65.445,103.422,66.89,105.48,66.764z"/>
<path style="fill-rule:evenodd;clip-rule:evenodd;" d="M45.066,72.832c2.025-0.199,3.495-1.917,3.405-3.982
	c-0.09-2.061-1.709-3.603-3.783-3.603c-2.38,0-4.142,2.031-3.785,4.361C41.209,71.604,43.051,73.029,45.066,72.832z"/>
<path style="fill-rule:evenodd;clip-rule:evenodd;" d="M90.849,84.541c0.178-1.687-0.058-2.731-2.271-2.669
	c-3.945,0.115-5.376,1.085-5.295,4.222c0.023,0.887,3.424,3.44,4.56,3.422C89.509,89.49,90.824,87.316,90.849,84.541z"/>
<path style="fill-rule:evenodd;clip-rule:evenodd;" d="M188.154,21.259c1.833,0.252,2.769-0.229,2.641-2.399
	c-0.176-2.95-1.356-5.294-3.012-5.184c-1.102,0.074-4.426,3.268-4.607,4.423C182.918,19.729,185.284,21.229,188.154,21.259z"/>
<path style="fill-rule:evenodd;clip-rule:evenodd;" d="M130.202,66.358c0.033,3.642,0.03,3.578,3.753,3.472
	c1.41-0.041,2.44-0.145,2.313-1.925c-0.07-0.997-0.132-2.02,0.011-2.999c0.366-2.521-0.952-2.783-3.028-2.754
	c-1.996,0.028-3.487,0.12-3.062,2.707C130.269,65.346,130.202,65.857,130.202,66.358z"/>
<path style="fill-rule:evenodd;clip-rule:evenodd;" d="M260.364,66.466c-0.223-0.96,0.639-2.467-1.385-2.761
	c-2.229-0.325-5.214,0.619-5.959,2.078c-0.745,1.459,0.26,2.271,1.156,3.125c0.365,0.348,0.702,0.725,1.072,1.067
	c1.838,1.709,4.435,1.159,5.084-1.14C260.533,68.135,260.364,67.329,260.364,66.466z"/>
<path style="fill-rule:evenodd;clip-rule:evenodd;" d="M280.361,83.922c-0.123-0.597-0.907,1.065,1.19,1.034
	c1.933-0.028,3.966,0.54,5.433-1.562c0.922-1.321,0.774-2.198-0.31-3.158c-0.187-0.166-0.338-0.379-0.539-0.529
	c-1.139-0.853-1.813-2.896-3.544-2.248C280.584,78.209,279.644,79.982,280.361,83.922z"/>
<path style="fill-rule:evenodd;clip-rule:evenodd;" d="M5.991,39.341c-2.276,0.238-3.538-0.235-4.549,0.945
	c-0.982,1.147-2.292,2.096-0.694,3.679c0.178,0.178,0.333,0.392,0.537,0.531c1.336,0.905,1.993,3.391,4.155,2.355
	c1.994-0.958,2.281-2.911,2.251-5.115C7.662,39.477,6.659,39.196,5.991,39.341z"/>
<path style="fill-rule:evenodd;clip-rule:evenodd;" d="M233.121,37.188c0.099-1.464-2.424-3.837-4.346-3.744
	c-1.942,0.097-3.049,1.369-3.223,3.361c-0.18,2.071,1.195,3.862,3.216,4.174C231.031,41.327,232.955,39.651,233.121,37.188z"/>
<path style="fill-rule:evenodd;clip-rule:evenodd;" d="M21.126,62.093c-2.275,0.24-3.537-0.237-4.547,0.944
	c-0.982,1.146-2.294,2.096-0.697,3.68c0.181,0.178,0.334,0.39,0.54,0.529c1.336,0.905,1.991,3.393,4.151,2.357
	c1.995-0.957,2.285-2.909,2.253-5.113C22.797,62.233,21.799,61.946,21.126,62.093z"/>
<path style="fill-rule:evenodd;clip-rule:evenodd;" d="M252.796,51.893c0.224,0.962-0.637,2.469,1.385,2.763
	c2.229,0.325,5.215-0.619,5.959-2.08c0.745-1.458-0.261-2.269-1.155-3.123c-0.366-0.348-0.704-0.725-1.074-1.069
	c-1.836-1.708-4.435-1.158-5.084,1.141C252.628,50.226,252.796,51.031,252.796,51.893z"/>
<path style="fill-rule:evenodd;clip-rule:evenodd;" d="M58.307,98.616c2.382,0.459,2.339-1.078,2.283-2.713
	c-0.099-2.858-1.664-5.22-3.287-4.869c-1.225,0.264-4.285,3.646-4.292,4.739C53.003,97.399,55.4,98.685,58.307,98.616z"/>
<path style="fill-rule:evenodd;clip-rule:evenodd;" d="M129.761,27.328c-0.958,0.194-2.609-0.581-2.577,1.519
	c0.028,1.938-0.537,3.975,1.562,5.443c1.32,0.924,2.185,0.76,3.155-0.313c0.505-0.561,1.083-1.059,1.593-1.614
	c1.662-1.803,0.993-4.388-1.352-5.007C131.436,27.171,130.636,27.328,129.761,27.328z"/>
<path style="fill-rule:evenodd;clip-rule:evenodd;" d="M30.309,28.095c0.199-2.103-1.153-3.257-2.82-3.726
	c-1.412-0.397-5.242,3.65-4.677,4.873c0.704,1.526,1.762,2.929,3.931,2.666C28.765,31.663,30.303,30.158,30.309,28.095z"/>
<path style="fill-rule:evenodd;clip-rule:evenodd;" d="M173.336,12.16c0.745,0,1.498-0.065,2.234,0.016
	c0.919,0.101,1.393-0.383,1.531-1.152c0.336-1.84-0.206-3.403-1.799-4.458c-1.128-0.748-5.308-0.706-5.473,0.084
	c-0.298,1.415-0.356,2.927-0.229,4.374C169.703,12.173,169.905,12.16,173.336,12.16z"/>
<path style="fill-rule:evenodd;clip-rule:evenodd;" d="M298.185,71.381c0.211-1.914,0.134-3.382-2.539-3.153
	c-2.81,0.242-4.986,1.35-5.012,3.038c-0.026,1.687,2.143,2.892,4.915,3.126C298.034,74.601,298.534,73.44,298.185,71.381z"/>
<path style="fill-rule:evenodd;clip-rule:evenodd;" d="M242.958,57.663c-1.327,0.479-3.774-1.318-3.78,1.849
	c-0.003,2.619,1.445,4.22,3.78,4.22c2.334,0,3.769-1.602,3.783-4.22C246.752,57.664,246.752,57.664,242.958,57.663z"/>
<path style="fill-rule:evenodd;clip-rule:evenodd;" d="M104.093,75.852c-1.389,0.57-3.6-1.373-4.179,1.51
	c-0.407,2.025,0.629,3.347,2.092,4.31c1.419,0.935,3.922-0.011,5.065-1.56c0.838-1.136,0.669-2.52,0.294-3.484
	C106.833,75.265,105.207,76.048,104.093,75.852z"/>
<path style="fill-rule:evenodd;clip-rule:evenodd;" d="M297.629,83.428c-2.257-0.445-2.643,0.9-2.479,2.977
	c0.22,2.835,1.656,4.92,3.397,4.629c1.569-0.265,2.56-2.617,2.731-5.323C301.47,82.646,299.384,83.597,297.629,83.428z"/>
<path style="fill-rule:evenodd;clip-rule:evenodd;" d="M87.824,55.023c-0.446,2.317,0.771,2.835,2.9,2.669
	c2.815-0.221,4.901-1.618,4.667-3.361c-0.224-1.648-2.449-2.805-5.266-2.734C87.798,51.653,87.764,51.705,87.824,55.023z"/>
<path style="fill-rule:evenodd;clip-rule:evenodd;" d="M162.011,32.518c-0.148-3.401-1.822-5.714-3.451-5.153
	c-2.53,0.872-2.632,3-2.698,5.351c-0.09,3.13,2.042,1.986,3.507,2.189C161.751,35.237,162.675,34.261,162.011,32.518z"/>
<path style="fill-rule:evenodd;clip-rule:evenodd;" d="M205.876,37.188c0.428-3.05-1.817-2.147-3.355-2.274
	c-2.266-0.187-3.829,0.855-4.153,3.056c-0.28,1.907,2.445,3.259,5.667,3.01C205.867,40.837,206.052,40.458,205.876,37.188z"/>
<path style="fill-rule:evenodd;clip-rule:evenodd;" d="M169.546,39.866c-0.423,2.221,0.704,2.832,2.875,2.661
	c2.803-0.222,4.896-1.589,4.7-3.329c-0.194-1.703-2.359-2.638-5.23-2.827C168.919,36.177,169.639,38.136,169.546,39.866z"/>
<path style="fill-rule:evenodd;clip-rule:evenodd;" d="M73.443,97.099c3.044,0.429,2.063-1.833,2.289-3.359
	c0.355-2.427-0.845-2.906-2.949-2.734c-2.827,0.228-4.91,1.648-4.635,3.391C68.398,95.995,70.697,97.168,73.443,97.099z"/>
<path style="fill-rule:evenodd;clip-rule:evenodd;" d="M161.987,14.641c0.482-2.449-1.026-2.551-3.012-2.536
	c-1.938,0.018-3.317,0.034-3.091,2.648c0.238,2.78,1.392,4.987,3.06,4.989C160.624,19.747,161.953,17.58,161.987,14.641z"/>
<path style="fill-rule:evenodd;clip-rule:evenodd;" d="M154.418,47.804c-0.428,3.049,1.817,2.147,3.355,2.274
	c2.266,0.187,3.829-0.857,4.153-3.058c0.28-1.906-2.445-3.259-5.665-3.008C154.427,44.155,154.242,44.535,154.418,47.804z"/>
<path style="fill-rule:evenodd;clip-rule:evenodd;" d="M30.326,57.686c-0.313,2.016,0.065,3.271,2.604,3.058
	c2.775-0.235,4.949-1.41,4.947-3.097c-0.001-1.671-2.202-2.83-4.98-3.064C30.298,54.362,30.059,55.717,30.326,57.686z"/>
<path style="fill-rule:evenodd;clip-rule:evenodd;" d="M65.155,60.032c0.437-2.212-0.942-2.555-2.998-2.394
	c-2.826,0.222-5.105,1.749-4.56,3.407c0.826,2.51,2.906,2.701,5.283,2.767C65.961,63.894,64.944,61.844,65.155,60.032z"/>
<path style="fill-rule:evenodd;clip-rule:evenodd;" d="M62.115,79.474c-0.169-1.759,0.78-3.852-2.278-3.659
	c-2.701,0.171-5.047,1.165-5.311,2.736c-0.292,1.745,1.791,3.186,4.621,3.407C61.219,82.121,62.558,81.736,62.115,79.474z"/>
<path style="fill-rule:evenodd;clip-rule:evenodd;" d="M29.369,81.955c2.257,0.445,2.642-0.9,2.479-2.976
	c-0.22-2.837-1.658-4.922-3.398-4.63c-1.57,0.263-2.56,2.617-2.73,5.321C25.526,82.734,27.614,81.784,29.369,81.955z"/>
<path style="fill-rule:evenodd;clip-rule:evenodd;" d="M50.008,54.614c2.01,0.313,3.262-0.065,3.049-2.609
	c-0.232-2.78-1.406-4.961-3.088-4.958c-1.667,0.002-2.824,2.207-3.058,4.989C46.69,54.641,48.042,54.882,50.008,54.614z"/>
<path style="fill-rule:evenodd;clip-rule:evenodd;" d="M10.655,30.345c2.012,0.313,3.264-0.065,3.051-2.609
	c-0.232-2.781-1.406-4.961-3.088-4.958c-1.667,0.001-2.824,2.207-3.06,4.989C7.338,30.373,8.69,30.615,10.655,30.345z"/>
<path style="fill-rule:evenodd;clip-rule:evenodd;" d="M4.567,62.214c2.776-0.12,5.102-1.777,4.486-3.382
	c-0.591-1.543-1.708-2.815-3.76-2.709c-2.28,0.116-3.662,1.658-3.759,4.243C1.439,62.925,3.272,62.075,4.567,62.214z"/>
</svg>
