<?xml version="1.0" encoding="iso-8859-1"?>
<!-- Generator: Adobe Illustrator 16.0.3, SVG Export Plug-In . SVG Version: 6.00 Build 0)  -->
<!DOCTYPE svg PUBLIC "-//W3C//DTD SVG 1.1//EN" "http://www.w3.org/Graphics/SVG/1.1/DTD/svg11.dtd" [
	<!ENTITY ns_flows "http://ns.adobe.com/Flows/1.0/">
	<!ENTITY ns_extend "http://ns.adobe.com/Extensibility/1.0/">
	<!ENTITY ns_ai "http://ns.adobe.com/AdobeIllustrator/10.0/">
	<!ENTITY ns_graphs "http://ns.adobe.com/Graphs/1.0/">
]>
<svg version="1.1" id="Layer_1" xmlns:x="&ns_extend;" xmlns:i="&ns_ai;" xmlns:graph="&ns_graphs;"
	 xmlns="http://www.w3.org/2000/svg" xmlns:xlink="http://www.w3.org/1999/xlink" xmlns:a="http://ns.adobe.com/AdobeSVGViewerExtensions/3.0/"
	 x="0px" y="0px" width="126.017px" height="323.997px" viewBox="0 0 126.017 323.997"
	 style="enable-background:new 0 0 126.017 323.997;" xml:space="preserve">
<path style="fill-rule:evenodd;clip-rule:evenodd;" d="M68.3,323.997c0-0.739-0.127-1.505,0.021-2.213
	c0.626-2.984,1.854-4.187,4.135-3.803c2.02,0.34,3.527,1.411,3.432,3.796c-0.03,0.74-0.005,1.481-0.005,2.22
	C73.356,323.997,70.826,323.997,68.3,323.997z"/>
<path style="fill-rule:evenodd;clip-rule:evenodd;" d="M83.467,323.997c0.296-4.243,1.565-6.581,3.391-6.012
	c3.043,0.943,2.737,3.579,2.677,6.012C87.513,323.997,85.489,323.997,83.467,323.997z"/>
<path style="fill-rule:evenodd;clip-rule:evenodd;" d="M98.635,258.91c-2.058,0.074-4.398-2.167-4.55-4.354
	c-0.109-1.579,1.882-3.112,4.174-3.215c3.248-0.145,5.046,1.305,4.928,3.976C103.087,257.521,101.456,258.81,98.635,258.91z"/>
<path style="fill-rule:evenodd;clip-rule:evenodd;" d="M36.444,216.951c0.18,1.683-0.057,2.743-2.276,2.66
	c-3.516-0.13-5.07-0.964-5.305-3.472c-0.221-2.333,1.458-4.154,3.829-4.154C35.193,211.986,36.415,213.601,36.444,216.951z"/>
<path style="fill-rule:evenodd;clip-rule:evenodd;" d="M84.695,280.106c1.007,0.187,2.207-0.361,3.305,0.662
	c1.169,1.094,1.857,2.236,1.522,3.815c-0.385,1.817-1.47,2.834-3.405,3.123c-1.766,0.263-2.816-0.681-3.666-1.861
	c-1.08-1.493-0.572-3.328-0.4-4.94C82.164,279.846,83.61,280.106,84.695,280.106z"/>
<path style="fill-rule:evenodd;clip-rule:evenodd;" d="M113.804,43.714c0.041,0.982-3.056,4.546-4.167,4.797
	c-1.302,0.292-4.98-3.271-4.935-4.782c0.042-1.393,2.314-2.787,4.542-2.787C111.47,40.942,113.746,42.326,113.804,43.714z"/>
<path style="fill-rule:evenodd;clip-rule:evenodd;" d="M97.114,269.217c-0.189,1.005,0.332,2.183-0.656,3.303
	c-1.09,1.236-2.256,1.839-3.831,1.512c-1.822-0.377-2.842-1.465-3.129-3.395c-0.265-1.764,0.683-2.812,1.863-3.661
	c1.498-1.077,3.336-0.568,4.952-0.399C97.375,266.688,97.112,268.134,97.114,269.217z"/>
<path style="fill-rule:evenodd;clip-rule:evenodd;" d="M37.963,159.106c-0.051,1.019-3.417,4.328-4.522,4.442
	c-1.72,0.18-3.216-2.268-3.063-5.012c0.125-2.217,1.835-4.35,3.259-4.069C34.841,154.705,38.013,158.106,37.963,159.106z"/>
<path style="fill-rule:evenodd;clip-rule:evenodd;" d="M54.65,143.484c-0.143-1.629-0.046-2.789,2.239-2.699
	c3.527,0.137,5.076,0.944,5.344,3.437c0.246,2.298-1.466,4.19-3.793,4.19C55.911,148.412,54.696,146.831,54.65,143.484z"/>
<path style="fill-rule:evenodd;clip-rule:evenodd;" d="M51.615,267.963c0.011,0.98-3.26,4.382-4.395,4.568
	c-1.399,0.229-3.086-1.958-3.19-4.137c-0.127-2.657,1.466-5.172,3.131-4.944C48.306,263.607,51.601,266.947,51.615,267.963z"/>
<path style="fill-rule:evenodd;clip-rule:evenodd;" d="M56.211,227.124c2.246,0.003,4.495,1.414,4.504,2.822
	c0.007,1.012-3.126,4.536-4.22,4.745c-1.328,0.254-5.259-3.453-4.814-4.813C52.34,227.851,53.916,226.76,56.211,227.124z"/>
<path style="fill-rule:evenodd;clip-rule:evenodd;" d="M80.177,99.974c1.181,0.099,2.422-0.331,3.419,0.84
	c0.972,1.141,2.263,2.079,0.69,3.641c-0.708,0.706-1.459,1.373-2.112,2.126c-1.316,1.513-2.484,1.236-3.643-0.171
	c-0.318-0.382-0.699-0.713-1.057-1.063c-0.874-0.852-2.283-1.77-1.501-3.032c0.693-1.116,1.599-2.616,3.455-2.345
	C79.672,100.006,79.926,99.976,80.177,99.974z"/>
<path style="fill-rule:evenodd;clip-rule:evenodd;" d="M55.814,121.165c-1.581,0.105-2.823,0.15-2.747-2.197
	c0.122-3.812,1.281-5.567,4.151-5.37c1.976,0.135,3.497,1.766,3.497,3.746C60.715,119.897,59.161,121.107,55.814,121.165z"/>
<path style="fill-rule:evenodd;clip-rule:evenodd;" d="M101.625,56.061c-0.132,0.775,0.34,1.94-0.641,3.062
	c-1.099,1.257-2.302,1.801-3.842,1.475c-1.799-0.384-2.83-1.479-3.1-3.424c-0.245-1.777,0.722-2.817,1.898-3.643
	c1.494-1.047,3.344-0.567,4.958-0.375C101.923,53.277,101.684,54.735,101.625,56.061z"/>
<path style="fill-rule:evenodd;clip-rule:evenodd;" d="M125.937,92.389c-0.134,3.099-1.68,4.792-4.162,4.558
	c-1.96-0.185-3.421-1.813-3.421-3.821c0-2.678,2.036-3.875,5.718-3.796C126.626,89.386,125.812,91.078,125.937,92.389z"/>
<path style="fill-rule:evenodd;clip-rule:evenodd;" d="M42.057,196.804c2.323,0.046,3.142,2.18,4.538,3.446
	c1.226,1.113,0.298,2.181-0.678,3.049c-0.372,0.331-0.716,0.697-1.063,1.057c-0.852,0.88-1.618,2.018-3.093,1.56
	c-1.48-0.461-2.514-3.528-2.324-5.785C39.588,198.35,40.98,197.792,42.057,196.804z"/>
<path style="fill-rule:evenodd;clip-rule:evenodd;" d="M30.109,239.23c1.069,0.16,2.227-0.269,3.349,0.708
	c1.265,1.107,1.785,2.333,1.441,3.847c-0.399,1.768-1.491,2.815-3.459,3.063c-1.791,0.226-2.83-0.757-3.633-1.931
	c-1.016-1.484-0.581-3.334-0.335-4.94C27.632,238.92,29.085,239.271,30.109,239.23z"/>
<path style="fill-rule:evenodd;clip-rule:evenodd;" d="M60.714,201.474c-0.014,2.241-1.452,4.476-2.865,4.458
	c-1.04-0.014-4.534-3.158-4.718-4.248c-0.224-1.333,3.53-5.224,4.86-4.774C60.04,197.6,61.1,199.181,60.714,201.474z"/>
<path style="fill-rule:evenodd;clip-rule:evenodd;" d="M62.232,243.107c-0.226-2.076,1.124-3.222,2.729-3.805
	c1.311-0.479,5.079,3.43,4.854,4.764c-0.184,1.088-3.677,4.234-4.716,4.247C63.446,248.334,62.022,245.748,62.232,243.107z"/>
<path style="fill-rule:evenodd;clip-rule:evenodd;" d="M88.017,243.654c0.06,0.984-3.105,4.411-4.305,4.659
	c-1.433,0.298-3.147-1.818-3.278-4.048c-0.163-2.716,1.335-5.193,3.042-5.033C84.563,239.334,87.956,242.637,88.017,243.654z"/>
<path style="fill-rule:evenodd;clip-rule:evenodd;" d="M51.043,56.079c-2.062,0.09-3.782-1.382-3.98-3.407
	c-0.236-2.424,1.531-4.269,3.984-4.16c2.059,0.092,3.601,1.71,3.601,3.785C54.648,54.371,53.106,55.989,51.043,56.079z"/>
<path style="fill-rule:evenodd;clip-rule:evenodd;" d="M12.9,204.416c-2.286,0.421-2.305-1.018-2.253-2.637
	c0.089-2.766,1.38-4.911,3.066-4.928c1.216-0.014,4.519,2.502,4.531,3.451C18.29,203.456,16.909,204.518,12.9,204.416z"/>
<path style="fill-rule:evenodd;clip-rule:evenodd;" d="M74.367,89.946c0.09,2.058-1.383,3.775-3.412,3.975
	c-2.424,0.238-4.28-1.53-4.172-3.972c0.09-2.057,1.713-3.597,3.79-3.597C72.652,86.352,74.275,87.889,74.367,89.946z"/>
<path style="fill-rule:evenodd;clip-rule:evenodd;" d="M91.052,86.794c0.169,2.145-1.166,3.81-3.287,4.099
	c-2.354,0.319-4.333-1.452-4.298-3.845c0.032-2.086,1.581-3.66,3.666-3.724C89.198,83.262,90.89,84.762,91.052,86.794z"/>
<path style="fill-rule:evenodd;clip-rule:evenodd;" d="M125.938,76.326c0.09,2.06-1.385,3.774-3.416,3.972
	c-2.43,0.236-4.277-1.527-4.169-3.976c0.092-2.056,1.713-3.593,3.793-3.593C124.225,72.729,125.847,74.269,125.938,76.326z"/>
<path style="fill-rule:evenodd;clip-rule:evenodd;" d="M104.702,29.588c0,2.076-1.54,3.694-3.601,3.785
	c-2.452,0.109-4.218-1.736-3.982-4.16c0.198-2.025,1.916-3.498,3.98-3.407C103.158,25.896,104.702,27.514,104.702,29.588z"/>
<path style="fill-rule:evenodd;clip-rule:evenodd;" d="M84.984,20.697c-0.09-2.06,1.383-3.775,3.412-3.974
	c2.428-0.236,4.278,1.527,4.171,3.974c-0.09,2.056-1.713,3.595-3.792,3.595C86.698,24.292,85.074,22.753,84.984,20.697z"/>
<path style="fill-rule:evenodd;clip-rule:evenodd;" d="M25.072,149.926c-2.078,0-3.701-1.537-3.793-3.593
	c-0.109-2.449,1.739-4.211,4.169-3.976c2.031,0.197,3.504,1.914,3.416,3.972C28.773,148.386,27.15,149.926,25.072,149.926z"/>
<path style="fill-rule:evenodd;clip-rule:evenodd;" d="M66.1,311.885c-2.096,0.374-2.438-0.739-2.382-2.526
	c0.108-3.375,1.063-4.791,3.711-5.039c1.398-0.132,4.049,3.138,3.904,4.817C71.197,310.727,68.861,311.956,66.1,311.885z"/>
<path style="fill-rule:evenodd;clip-rule:evenodd;" d="M75.496,292.212c3.367,0.046,4.753,1.107,4.938,3.782
	c0.104,1.507-3.189,4.032-4.94,3.783c-1.48-0.209-2.53-2.703-2.699-5.331C72.649,292.163,73.863,292.07,75.496,292.212z"/>
<path style="fill-rule:evenodd;clip-rule:evenodd;" d="M59.766,292.21c2.063-0.092,3.785,1.378,3.982,3.403
	c0.24,2.421-1.531,4.271-3.98,4.164c-2.061-0.089-3.602-1.708-3.602-3.782C56.166,293.92,57.706,292.302,59.766,292.21z"/>
<path style="fill-rule:evenodd;clip-rule:evenodd;" d="M49.184,154.467c1.191,0,1.997-0.19,2.657,0.041
	c1.382,0.481,2.873,1.414,2.698,2.919c-0.175,1.502-0.914,3.252-2.002,4.242c-0.926,0.841-2.664,0.764-3.941-0.351
	c-1.138-0.991-2.196-4.753-1.519-6.014C47.637,154.259,48.671,154.414,49.184,154.467z"/>
<path style="fill-rule:evenodd;clip-rule:evenodd;" d="M57.111,37.914c-2.062,0.092-3.783-1.382-3.98-3.407
	c-0.236-2.424,1.531-4.27,3.983-4.16c2.059,0.091,3.601,1.709,3.601,3.785C60.715,36.207,59.173,37.824,57.111,37.914z"/>
<path style="fill-rule:evenodd;clip-rule:evenodd;" d="M67.873,280.101c3.386,0.032,4.788,1.09,4.977,3.747
	c0.106,1.501-3.14,4.033-4.901,3.822c-1.501-0.182-2.75-2.646-2.683-5.298C65.322,280.122,65.373,280.078,67.873,280.101z"/>
<path style="fill-rule:evenodd;clip-rule:evenodd;" d="M71.333,158.249c0,2.076-1.54,3.696-3.601,3.787
	c-2.453,0.107-4.218-1.738-3.984-4.162c0.199-2.025,1.918-3.497,3.98-3.407C69.791,154.557,71.333,156.177,71.333,158.249z"/>
<path style="fill-rule:evenodd;clip-rule:evenodd;" d="M16.223,155.981c2.046,0.123,3.569,1.78,3.539,3.845
	c-0.03,2.086-1.581,3.661-3.665,3.722c-2.415,0.073-4.199-1.85-3.919-4.223C12.416,157.298,14.16,155.854,16.223,155.981z"/>
<path style="fill-rule:evenodd;clip-rule:evenodd;" d="M56.166,283.508c0.196,2.02-1.226,3.856-3.225,4.162
	c-2.333,0.355-4.36-1.405-4.36-3.787c0-2.074,1.544-3.692,3.605-3.782C54.248,280.011,55.968,281.483,56.166,283.508z"/>
<path style="fill-rule:evenodd;clip-rule:evenodd;" d="M44.031,229.392c0,2.076-1.542,3.694-3.601,3.786
	c-2.454,0.107-4.22-1.736-3.983-4.161c0.197-2.024,1.917-3.498,3.98-3.409C42.489,225.7,44.031,227.318,44.031,229.392z"/>
<path style="fill-rule:evenodd;clip-rule:evenodd;" d="M56.59,258.91c-3.384-0.034-4.786-1.09-4.975-3.748
	c-0.107-1.502,3.139-4.034,4.901-3.821c1.501,0.18,2.749,2.646,2.682,5.298C59.142,258.889,59.09,258.933,56.59,258.91z"/>
<path style="fill-rule:evenodd;clip-rule:evenodd;" d="M6.11,175.091c-0.09-2.06,1.384-3.775,3.413-3.974
	c2.427-0.236,4.278,1.526,4.171,3.974c-0.09,2.056-1.713,3.595-3.792,3.595C7.825,178.686,6.201,177.147,6.11,175.091z"/>
<path style="fill-rule:evenodd;clip-rule:evenodd;" d="M34.931,267.044c0.09,2.058-1.383,3.774-3.412,3.974
	c-2.424,0.239-4.28-1.528-4.172-3.97c0.09-2.057,1.713-3.597,3.79-3.597C33.216,263.451,34.839,264.988,34.931,267.044z"/>
<path style="fill-rule:evenodd;clip-rule:evenodd;" d="M23.805,225.608c2.048,0.125,3.571,1.78,3.541,3.847
	c-0.032,2.086-1.581,3.661-3.667,3.722c-2.413,0.072-4.197-1.851-3.918-4.224C20,226.927,21.745,225.483,23.805,225.608z"/>
<path style="fill-rule:evenodd;clip-rule:evenodd;" d="M17.487,219.555c-2.078,0-3.701-1.539-3.793-3.595
	c-0.108-2.447,1.741-4.209,4.171-3.974c2.028,0.198,3.503,1.913,3.414,3.973C21.189,218.015,19.565,219.555,17.487,219.555z"/>
<path style="fill-rule:evenodd;clip-rule:evenodd;" d="M6.68,222.582c2.063-0.09,3.782,1.38,3.982,3.405
	c0.236,2.422-1.532,4.271-3.982,4.164c-2.061-0.091-3.603-1.711-3.603-3.785C3.077,224.291,4.619,222.671,6.68,222.582z"/>
<path style="fill-rule:evenodd;clip-rule:evenodd;" d="M42.513,254.937c0.09,2.058-1.383,3.775-3.412,3.974
	c-2.428,0.236-4.278-1.528-4.171-3.974c0.09-2.056,1.713-3.595,3.792-3.595C40.8,251.341,42.423,252.88,42.513,254.937z"/>
<path style="fill-rule:evenodd;clip-rule:evenodd;" d="M9.146,241.836c-0.179-1.685,0.058-2.727,2.275-2.664
	c3.953,0.113,5.389,1.081,5.308,4.213c-0.023,0.884-3.434,3.433-4.57,3.416C10.488,246.774,9.171,244.604,9.146,241.836z"/>
<path style="fill-rule:evenodd;clip-rule:evenodd;" d="M31.898,185.755c-0.246-1.794,0.259-2.636,2.348-2.583
	c3.852,0.097,5.432,1.234,5.234,4.282c-0.06,0.909-3.502,3.386-4.644,3.342C33.156,190.73,31.896,188.572,31.898,185.755z"/>
<path style="fill-rule:evenodd;clip-rule:evenodd;" d="M105.09,112.085c1.632-0.141,2.777-0.042,2.708,2.234
	c-0.12,3.995-1.027,5.377-4.188,5.333c-0.949-0.012-3.472-3.308-3.458-4.521C100.169,113.448,102.318,112.122,105.09,112.085z"/>
<path style="fill-rule:evenodd;clip-rule:evenodd;" d="M107.23,139.331c2.046,0.123,3.571,1.778,3.54,3.845
	c-0.03,2.087-1.581,3.66-3.665,3.722c-2.414,0.072-4.197-1.851-3.918-4.224C103.425,140.648,105.168,139.204,107.23,139.331z"/>
<path style="fill-rule:evenodd;clip-rule:evenodd;" d="M86.5,134.789c-0.392,1.928-2.406,3.326-4.359,3.028
	c-2.186-0.336-3.848-2.868-3.224-4.917c0.521-1.713,2.968-3.083,4.739-2.651C85.424,130.679,86.869,132.982,86.5,134.789z"/>
<path style="fill-rule:evenodd;clip-rule:evenodd;" d="M65.646,128.734c2.023-0.195,3.864,1.225,4.169,3.218
	c0.358,2.328-1.406,4.35-3.793,4.35c-2.076,0-3.699-1.54-3.79-3.597C62.143,130.647,63.618,128.931,65.646,128.734z"/>
<path style="fill-rule:evenodd;clip-rule:evenodd;" d="M51.615,129.429c0.03,2.067-1.494,3.722-3.541,3.847
	c-2.553,0.155-4.245-1.56-4.044-4.1c0.161-2.032,1.853-3.53,3.918-3.469C50.033,125.769,51.583,127.343,51.615,129.429z"/>
<path style="fill-rule:evenodd;clip-rule:evenodd;" d="M118.354,128.229c-0.125,2.044-1.783,3.565-3.854,3.534
	c-2.089-0.032-3.666-1.58-3.729-3.657c-0.073-2.41,1.854-4.19,4.234-3.912C117.034,124.431,118.479,126.172,118.354,128.229z"/>
<path style="fill-rule:evenodd;clip-rule:evenodd;" d="M77.4,119.147c-0.124,2.042-1.784,3.564-3.855,3.534
	c-2.089-0.032-3.666-1.579-3.729-3.658c-0.07-2.409,1.856-4.189,4.234-3.91C76.08,115.35,77.525,117.089,77.4,119.147z"/>
<path style="fill-rule:evenodd;clip-rule:evenodd;" d="M83.467,58.728c-0.2,2.025-1.917,3.495-3.982,3.405
	c-2.061-0.09-3.603-1.709-3.603-3.784c0-2.38,2.03-4.143,4.361-3.785C82.239,54.871,83.665,56.712,83.467,58.728z"/>
<path style="fill-rule:evenodd;clip-rule:evenodd;" d="M95.177,104.515c-1.687,0.178-2.731-0.058-2.669-2.271
	c0.115-3.945,1.085-5.377,4.222-5.296c0.888,0.023,3.44,3.424,3.423,4.56C100.125,103.175,97.952,104.49,95.177,104.515z"/>
<path style="fill-rule:evenodd;clip-rule:evenodd;" d="M31.895,201.829c0.252,1.833-0.229,2.77-2.399,2.641
	c-2.95-0.176-5.295-1.355-5.184-3.012c0.074-1.103,3.268-4.426,4.423-4.608C30.365,196.593,31.864,198.959,31.895,201.829z"/>
<path style="fill-rule:evenodd;clip-rule:evenodd;" d="M61.808,221.071c-0.969-0.2-2.629,0.583-2.599-1.516
	c0.028-1.932-0.538-3.965,1.561-5.432c1.322-0.922,2.198-0.774,3.158,0.309c0.166,0.188,0.379,0.339,0.529,0.54
	c0.852,1.139,2.627,1.708,2.314,3.572C66.571,219.749,64.057,221.02,61.808,221.071z"/>
<path style="fill-rule:evenodd;clip-rule:evenodd;" d="M116.271,287.668c-2.054,0.357-2.606-0.581-2.504-2.523
	c0.153-2.903,1.484-5.252,3.132-5.044c1.164,0.148,4.375,3.395,4.488,4.541C121.551,286.292,119.206,287.677,116.271,287.668z"/>
<path style="fill-rule:evenodd;clip-rule:evenodd;" d="M77.4,172.929c-0.222,0.958,0.641,2.461-1.389,2.755
	c-2.233,0.322-5.226-0.618-5.972-2.074c-0.747-1.456,0.261-2.268,1.159-3.118c0.365-0.347,0.704-0.724,1.074-1.065
	c1.842-1.706,4.444-1.156,5.095,1.136C77.567,171.263,77.4,172.068,77.4,172.929z"/>
<path style="fill-rule:evenodd;clip-rule:evenodd;" d="M87.008,159.009c1.95-0.312,2.687,0.417,2.57,2.461
	c-0.166,2.922-1.425,5.268-3.079,5.106c-1.148-0.114-4.403-3.319-4.55-4.483C81.744,160.451,84.09,159.018,87.008,159.009z"/>
<path style="fill-rule:evenodd;clip-rule:evenodd;" d="M76.994,143.872c3.642,0.033,3.578,0.03,3.472,3.753
	c-0.041,1.41-0.145,2.44-1.925,2.313c-0.997-0.07-2.02-0.132-3,0.011c-2.521,0.366-2.782-0.952-2.754-3.028
	c0.028-1.997,0.12-3.488,2.707-3.062C75.981,143.938,76.493,143.872,76.994,143.872z"/>
<path style="fill-rule:evenodd;clip-rule:evenodd;" d="M97.846,134.789c-3.917,0.003-4.127-0.257-3.777-4.183
	c0.093-1.063,0.18-1.955,1.588-1.88c0.997,0.051,2.011,0.104,2.999-0.009c2.083-0.241,3.208,0.185,3.074,2.704
	c-0.175,3.303,0.01,3.312-3.134,3.368C98.347,134.794,98.097,134.789,97.846,134.789z"/>
<path style="fill-rule:evenodd;clip-rule:evenodd;" d="M77.102,274.046c-0.959-0.224-2.466,0.639-2.761-1.386
	c-0.325-2.229,0.619-5.215,2.078-5.96c1.459-0.744,2.271,0.261,3.125,1.157c0.348,0.364,0.725,0.702,1.067,1.072
	c1.709,1.838,1.159,4.435-1.14,5.084C78.771,274.215,77.965,274.046,77.102,274.046z"/>
<path style="fill-rule:evenodd;clip-rule:evenodd;" d="M105.713,299.777c-1.951,0.312-2.687-0.417-2.572-2.461
	c0.166-2.923,1.427-5.27,3.078-5.106c1.151,0.113,4.404,3.319,4.551,4.48C110.978,298.335,108.631,299.769,105.713,299.777z"/>
<path style="fill-rule:evenodd;clip-rule:evenodd;" d="M125.938,315.208c0,0.863-0.041,1.613,0.007,2.359
	c0.161,2.565-1.734,1.849-3.064,1.864c-1.355,0.014-3.229,0.653-3.019-1.91c0.06-0.743,0.074-1.505-0.004-2.245
	c-0.249-2.303-0.035-3.516,3.066-3.56C126.182,311.669,126.145,313.118,125.938,315.208z"/>
<path style="fill-rule:evenodd;clip-rule:evenodd;" d="M94.558,294.045c-0.597-0.124,1.065-0.907,1.034,1.189
	c-0.028,1.934,0.54,3.967-1.562,5.434c-1.321,0.922-2.198,0.774-3.158-0.31c-0.166-0.187-0.379-0.338-0.529-0.539
	c-0.853-1.139-2.896-1.813-2.248-3.544C88.845,294.269,90.618,293.329,94.558,294.045z"/>
<path style="fill-rule:evenodd;clip-rule:evenodd;" d="M124.543,110.673c-0.238,2.276,0.234,3.539-0.946,4.548
	c-1.147,0.982-2.098,2.292-3.679,0.695c-0.178-0.18-0.391-0.334-0.531-0.539c-0.905-1.336-3.391-1.993-2.355-4.153
	c0.957-1.997,2.911-2.284,5.113-2.254C124.405,109.001,124.688,110.004,124.543,110.673z"/>
<path style="fill-rule:evenodd;clip-rule:evenodd;" d="M49.977,19.649c0.238-2.276-0.235-3.539,0.945-4.549
	c1.147-0.982,2.096-2.292,3.679-0.694c0.178,0.178,0.392,0.333,0.531,0.537c0.905,1.336,3.391,1.993,2.355,4.155
	c-0.958,1.995-2.911,2.282-5.115,2.252C50.112,21.32,49.832,20.317,49.977,19.649z"/>
<path style="fill-rule:evenodd;clip-rule:evenodd;" d="M47.824,246.801c-1.464,0.099-3.837-2.424-3.744-4.347
	c0.097-1.942,1.369-3.049,3.361-3.224c2.071-0.18,3.862,1.195,4.174,3.217C51.963,244.711,50.287,246.635,47.824,246.801z"/>
<path style="fill-rule:evenodd;clip-rule:evenodd;" d="M97.119,150.365c-0.194,0.958,0.579,2.611-1.521,2.578
	c-1.937-0.028-3.973,0.537-5.443-1.56c-0.924-1.322-0.758-2.185,0.313-3.155c0.563-0.507,1.061-1.083,1.616-1.595
	c1.803-1.662,4.386-0.991,5.005,1.352C97.276,148.692,97.119,149.49,97.119,150.365z"/>
<path style="fill-rule:evenodd;clip-rule:evenodd;" d="M72.729,34.786c0.24-2.275-0.237-3.537,0.943-4.548
	c1.147-0.982,2.096-2.294,3.681-0.697c0.178,0.181,0.39,0.334,0.529,0.541c0.905,1.336,3.393,1.991,2.357,4.152
	c-0.957,1.995-2.91,2.285-5.113,2.253C72.87,36.457,72.582,35.458,72.729,34.786z"/>
<path style="fill-rule:evenodd;clip-rule:evenodd;" d="M62.529,266.477c0.962,0.224,2.468-0.637,2.763,1.386
	c0.324,2.229-0.619,5.215-2.08,5.96c-1.458,0.745-2.269-0.261-3.123-1.155c-0.347-0.366-0.725-0.704-1.069-1.074
	c-1.708-1.836-1.158-4.435,1.142-5.085C60.862,266.31,61.667,266.477,62.529,266.477z"/>
<path style="fill-rule:evenodd;clip-rule:evenodd;" d="M62.797,0.075c2.05-0.357,2.609,0.577,2.505,2.52
	c-0.154,2.906-1.482,5.253-3.13,5.047c-1.167-0.146-4.377-3.394-4.49-4.541C57.519,1.452,59.861,0.066,62.797,0.075z"/>
<path style="fill-rule:evenodd;clip-rule:evenodd;" d="M109.252,71.97c0.459,2.382-1.078,2.34-2.713,2.284
	c-2.858-0.099-5.221-1.664-4.87-3.287c0.265-1.226,3.647-4.285,4.739-4.292C108.035,66.665,109.321,69.063,109.252,71.97z"/>
<path style="fill-rule:evenodd;clip-rule:evenodd;" d="M116.203,62.131c-2.168,0.403-2.516-0.759-2.428-2.586
	c0.138-2.866,1.56-5.236,3.188-4.98c1.157,0.183,4.349,3.507,4.423,4.609C121.498,60.83,119.164,62.163,116.203,62.131z"/>
<path style="fill-rule:evenodd;clip-rule:evenodd;" d="M37.963,143.431c0.194-0.958-0.581-2.609,1.519-2.577
	c1.938,0.028,3.975-0.537,5.443,1.562c0.924,1.32,0.76,2.185-0.312,3.155c-0.562,0.505-1.059,1.083-1.615,1.593
	c-1.803,1.662-4.388,0.993-5.007-1.352C37.807,145.106,37.963,144.306,37.963,143.431z"/>
<path style="fill-rule:evenodd;clip-rule:evenodd;" d="M38.731,43.969c-2.103,0.199-3.257-1.153-3.726-2.821
	c-0.397-1.412,3.65-5.243,4.873-4.678c1.526,0.704,2.929,1.762,2.666,3.931C42.298,42.425,40.793,43.964,38.731,43.969z"/>
<path style="fill-rule:evenodd;clip-rule:evenodd;" d="M22.796,187.01c0,0.745-0.065,1.498,0.016,2.234
	c0.1,0.919-0.383,1.393-1.152,1.531c-1.84,0.336-3.403-0.206-4.458-1.799c-0.748-1.128-0.706-5.308,0.084-5.474
	c1.415-0.297,2.927-0.355,4.374-0.229C22.809,183.376,22.796,183.579,22.796,187.01z"/>
<path style="fill-rule:evenodd;clip-rule:evenodd;" d="M113.806,100.712c-0.083,1.919,0.729,4.343-2.701,3.824
	c-1.551-0.234-3.548,0.719-3.43-2.317c0.153-3.884,1.11-5.326,4.32-5.266C115.162,97.015,113.264,99.486,113.806,100.712z"/>
<path style="fill-rule:evenodd;clip-rule:evenodd;" d="M82.017,311.872c-1.914,0.211-3.382,0.134-3.153-2.539
	c0.242-2.81,1.35-4.986,3.038-5.013c1.687-0.026,2.892,2.143,3.126,4.916C85.237,311.72,84.076,312.22,82.017,311.872z"/>
<path style="fill-rule:evenodd;clip-rule:evenodd;" d="M121.673,296.746c2.085-0.368,3.064,0.458,2.77,2.771
	c-0.2,1.574,0.614,3.541-2.364,3.345c-2.879-0.19-5.049-1.122-5.242-2.819C116.641,298.306,118.729,296.846,121.673,296.746z"/>
<path style="fill-rule:evenodd;clip-rule:evenodd;" d="M104.737,283.792c0.438,2.209-0.944,2.551-3.005,2.389
	c-2.831-0.222-5.116-1.743-4.569-3.399c0.828-2.504,2.913-2.694,5.295-2.759C105.545,279.939,104.525,281.985,104.737,283.792z"/>
<path style="fill-rule:evenodd;clip-rule:evenodd;" d="M112.322,268.842c-0.211,1.808,0.808,3.854-2.279,3.77
	c-2.382-0.063-4.467-0.255-5.296-2.759c-0.545-1.656,1.739-3.178,4.571-3.399C111.376,266.292,112.759,266.632,112.322,268.842z"/>
<path style="fill-rule:evenodd;clip-rule:evenodd;" d="M84.895,254.383c1.882-0.176,3.414-0.188,3.176,2.525
	c-0.245,2.813-1.33,4.99-3.021,5.028c-1.671,0.039-2.907-2.16-3.142-4.9C81.698,254.576,82.827,254.035,84.895,254.383z"/>
<path style="fill-rule:evenodd;clip-rule:evenodd;" d="M68.298,256.639c0.48-1.328-1.317-3.775,1.849-3.78
	c2.619-0.003,4.22,1.445,4.22,3.78c0,2.334-1.602,3.77-4.22,3.783C68.3,260.433,68.3,260.433,68.298,256.639z"/>
<path style="fill-rule:evenodd;clip-rule:evenodd;" d="M86.488,117.76c0.57-1.389-1.373-3.6,1.51-4.18
	c2.025-0.407,3.347,0.629,4.31,2.092c0.936,1.419-0.01,3.923-1.56,5.065c-1.136,0.838-2.519,0.669-3.484,0.294
	C85.9,120.501,86.684,118.875,86.488,117.76z"/>
<path style="fill-rule:evenodd;clip-rule:evenodd;" d="M94.063,311.315c-0.444-2.257,0.9-2.643,2.977-2.479
	c2.835,0.22,4.92,1.657,4.629,3.398c-0.265,1.568-2.616,2.56-5.323,2.731C93.282,315.157,94.233,313.07,94.063,311.315z"/>
<path style="fill-rule:evenodd;clip-rule:evenodd;" d="M21.73,258.919c-1.731-0.107-3.729,0.68-3.539-2.315
	c0.178-2.801,1.142-5.039,2.789-5.263c1.743-0.236,3.141,1.853,3.361,4.667C24.507,258.137,23.988,259.354,21.73,258.919z"/>
<path style="fill-rule:evenodd;clip-rule:evenodd;" d="M75.905,231.091c-0.171,1.755,0.78,3.843-2.284,3.649
	c-2.707-0.17-5.059-1.16-5.321-2.73c-0.293-1.741,1.792-3.178,4.629-3.398C75.006,228.448,76.35,228.833,75.905,231.091z"/>
<path style="fill-rule:evenodd;clip-rule:evenodd;" d="M65.659,101.49c2.317-0.446,2.835,0.771,2.669,2.9
	c-0.221,2.815-1.618,4.902-3.361,4.667c-1.648-0.224-2.805-2.449-2.735-5.266C62.289,101.463,62.34,101.43,65.659,101.49z"/>
<path style="fill-rule:evenodd;clip-rule:evenodd;" d="M43.154,175.684c-3.401-0.148-5.714-1.822-5.153-3.451
	c0.872-2.53,3-2.632,5.351-2.699c3.13-0.089,1.986,2.042,2.189,3.507C45.873,175.424,44.897,176.348,43.154,175.684z"/>
<path style="fill-rule:evenodd;clip-rule:evenodd;" d="M47.824,219.553c-3.05,0.428-2.147-1.816-2.274-3.355
	c-0.187-2.266,0.855-3.829,3.056-4.153c1.907-0.28,3.259,2.445,3.01,5.667C51.472,219.544,51.093,219.729,47.824,219.553z"/>
<path style="fill-rule:evenodd;clip-rule:evenodd;" d="M1.551,191.246c0.107-1.727-0.681-3.722,2.32-3.532
	c2.807,0.178,5.05,1.138,5.273,2.784c0.236,1.738-1.856,3.132-4.679,3.352C2.334,194.017,1.114,193.5,1.551,191.246z"/>
<path style="fill-rule:evenodd;clip-rule:evenodd;" d="M50.502,183.22c2.221-0.423,2.832,0.704,2.661,2.875
	c-0.222,2.803-1.589,4.896-3.329,4.701c-1.703-0.193-2.638-2.359-2.827-5.23C46.813,182.593,48.771,183.313,50.502,183.22z"/>
<path style="fill-rule:evenodd;clip-rule:evenodd;" d="M60.71,184.456c-0.369-2.081,0.459-3.058,2.775-2.764
	c1.579,0.199,3.55-0.613,3.354,2.359c-0.188,2.874-1.124,5.039-2.824,5.231C62.275,189.479,60.811,187.392,60.71,184.456z"/>
<path style="fill-rule:evenodd;clip-rule:evenodd;" d="M107.735,87.107c0.429,3.044-1.833,2.064-3.359,2.289
	c-2.427,0.355-2.906-0.845-2.734-2.949c0.228-2.827,1.648-4.91,3.391-4.636C106.63,82.062,107.804,84.361,107.735,87.107z"/>
<path style="fill-rule:evenodd;clip-rule:evenodd;" d="M25.276,175.659c-2.448,0.482-2.551-1.026-2.535-3.012
	c0.018-1.938,0.034-3.317,2.648-3.092c2.78,0.238,4.987,1.393,4.989,3.06C30.382,174.297,28.216,175.626,25.276,175.659z"/>
<path style="fill-rule:evenodd;clip-rule:evenodd;" d="M58.439,168.091c3.049-0.428,2.147,1.817,2.274,3.355
	c0.187,2.266-0.857,3.829-3.058,4.153c-1.905,0.28-3.259-2.445-3.008-5.666C54.791,168.1,55.17,167.915,58.439,168.091z"/>
<path style="fill-rule:evenodd;clip-rule:evenodd;" d="M68.321,43.987c2.017-0.314,3.271,0.065,3.057,2.604
	c-0.235,2.775-1.41,4.949-3.096,4.947c-1.671-0.001-2.83-2.202-3.064-4.98C64.997,43.958,66.353,43.719,68.321,43.987z"/>
<path style="fill-rule:evenodd;clip-rule:evenodd;" d="M70.667,78.819c-2.212,0.437-2.554-0.942-2.394-2.998
	c0.223-2.826,1.748-5.106,3.407-4.56c2.511,0.826,2.701,2.907,2.766,5.284C74.529,79.625,72.479,78.607,70.667,78.819z"/>
<path style="fill-rule:evenodd;clip-rule:evenodd;" d="M90.109,75.778c-1.759-0.169-3.851,0.78-3.659-2.278
	c0.171-2.701,1.165-5.048,2.736-5.312c1.745-0.292,3.186,1.791,3.407,4.622C92.756,74.882,92.372,76.222,90.109,75.778z"/>
<path style="fill-rule:evenodd;clip-rule:evenodd;" d="M92.59,43.029c0.445,2.257-0.9,2.643-2.977,2.479
	c-2.837-0.22-4.922-1.659-4.629-3.398c0.263-1.571,2.617-2.56,5.321-2.731C93.37,39.186,92.419,41.273,92.59,43.029z"/>
<path style="fill-rule:evenodd;clip-rule:evenodd;" d="M65.25,63.67c0.313,2.01-0.065,3.262-2.609,3.049
	c-2.781-0.232-4.961-1.407-4.958-3.088c0.002-1.667,2.207-2.824,4.989-3.058C65.276,60.352,65.518,61.704,65.25,63.67z"/>
<path style="fill-rule:evenodd;clip-rule:evenodd;" d="M81.191,1.589c3.049-0.43,2.147,1.815,2.274,3.354
	c0.187,2.268-0.857,3.829-3.057,4.153c-1.906,0.28-3.259-2.445-3.008-5.666C77.543,1.596,77.922,1.411,81.191,1.589z"/>
<path style="fill-rule:evenodd;clip-rule:evenodd;" d="M40.98,24.313c0.312,2.012-0.065,3.264-2.609,3.051
	c-2.78-0.232-4.961-1.406-4.958-3.088c0.002-1.667,2.208-2.824,4.99-3.06C41.008,20.997,41.25,22.349,40.98,24.313z"/>
<path style="fill-rule:evenodd;clip-rule:evenodd;" d="M113.806,310.959c0.49,2.495-1.115,2.472-3.051,2.495
	c-2,0.026-3.285-0.122-3.066-2.674c0.24-2.773,1.411-4.947,3.096-4.947C112.456,305.834,113.781,308.022,113.806,310.959z"/>
<path style="fill-rule:evenodd;clip-rule:evenodd;" d="M72.85,18.225c-0.12,2.777-1.776,5.103-3.382,4.486
	c-1.543-0.592-2.815-1.708-2.71-3.761c0.117-2.28,1.658-3.662,4.243-3.759C73.561,15.097,72.71,16.93,72.85,18.225z"/>
<path style="fill-rule:evenodd;clip-rule:evenodd;" d="M40.355,277.076c1.299-0.188,2.234,0.122,2.176,1.849
	c-0.088,2.59-1.477,4.197-3.776,4.203c-2.029,0.005-4.112-1.845-3.825-3.399C35.217,278.182,37.56,277.009,40.355,277.076z"/>
<path style="fill-rule:evenodd;clip-rule:evenodd;" d="M6.11,209.336c0.182,1.989-1.669,4.532-3.205,4.099
	C1.21,212.957,0,211.835,0,209.715c0-2.12,1.218-3.194,2.906-3.726C4.156,205.593,5.957,207.651,6.11,209.336z"/>
</svg>
