<svg xmlns="http://www.w3.org/2000/svg" width="235" height="126" viewBox="0 0 235 126"><defs><style>.cls-1{fill-rule:evenodd}</style></defs><path id="dotted-line" class="cls-1" d="M235 150.705a11.036 11.036 0 0 1-2.213-.021c-2.984-.627-4.186-1.855-3.8-4.136.339-2.02 1.41-3.527 3.795-3.431.74.03 1.481.005 2.22.005v7.583zm0-15.168c-4.243-.3-6.58-1.564-6.012-3.39.944-3.044 3.579-2.737 6.012-2.677v6.067zm-65.08-15.167c.074 2.057-2.167 4.4-4.354 4.55-1.579.109-3.112-1.882-3.214-4.174-.145-3.248 1.3-5.046 3.975-4.928 2.201.099 3.49 1.731 3.59 4.552zm-41.955 62.19c1.683-.18 2.743.057 2.66 2.276-.13 3.516-.965 5.071-3.472 5.3a3.7 3.7 0 0 1-4.153-3.823c0-2.502 1.612-3.723 4.962-3.753zm63.149-48.251c.186-1.007-.361-2.207.662-3.3 1.093-1.17 2.236-1.858 3.815-1.523a3.68 3.68 0 0 1 3.123 3.405 3.633 3.633 0 0 1-1.861 3.667c-1.493 1.079-3.327.571-4.94.4-1.063-.117-.802-1.564-.802-2.649zM-45.259 105.2c.982-.041 4.546 3.056 4.8 4.167.292 1.3-3.271 4.981-4.781 4.935-1.393-.042-2.787-2.315-2.787-4.543s1.381-4.5 2.768-4.559zm225.482 16.69c1 .189 2.183-.332 3.3.656a3.767 3.767 0 0 1 1.512 3.83 3.665 3.665 0 0 1-3.394 3.13c-1.764.265-2.811-.683-3.66-1.863-1.077-1.5-.568-3.336-.4-4.952.113-1.061 1.559-.798 2.642-.8zm-110.1 59.15c1.019.051 4.327 3.418 4.442 4.522.18 1.72-2.267 3.216-5.012 3.063-2.216-.125-4.35-1.835-4.068-3.259.237-1.202 3.638-4.374 4.638-4.325zM54.5 164.355c-1.628.143-2.788.046-2.7-2.239.137-3.527.944-5.076 3.436-5.344a3.734 3.734 0 0 1 4.19 3.793c.004 2.528-1.577 3.744-4.926 3.79zm124.467 3.034c.981-.01 4.382 3.261 4.568 4.395.229 1.4-1.957 3.086-4.137 3.19-2.656.127-5.172-1.466-4.943-3.132.159-1.142 3.498-4.442 4.514-4.453zm-40.835-4.6c0-2.245 1.414-4.5 2.822-4.5 1.012-.007 4.535 3.127 4.744 4.22.254 1.329-3.452 5.26-4.813 4.815a3.78 3.78 0 0 1-2.751-4.531zM11 138.828c.1-1.181-.331-2.423.84-3.419 1.141-.973 2.079-2.264 3.641-.69.706.707 1.373 1.459 2.127 2.112 1.512 1.316 1.236 2.484-.171 3.643a14.6 14.6 0 0 0-1.063 1.057c-.852.873-1.769 2.283-3.031 1.5-1.116-.693-2.616-1.6-2.345-3.455a5.085 5.085 0 0 0 .002-.748zm21.189 24.363c.106 1.58.15 2.822-2.2 2.746-3.811-.121-5.567-1.28-5.369-4.151a3.745 3.745 0 0 1 3.746-3.5c2.551.003 3.761 1.558 3.819 4.905zm-65.1-45.811c.775.132 1.94-.341 3.062.64a3.757 3.757 0 0 1 1.475 3.843 3.667 3.667 0 0 1-3.424 3.1 3.621 3.621 0 0 1-3.642-1.9c-1.047-1.494-.567-3.343-.375-4.957.115-1.025 1.577-.785 2.902-.726zM3.412 93.068c3.099.132 4.788 1.68 4.558 4.162a3.777 3.777 0 0 1-3.82 3.421c-2.678 0-3.875-2.036-3.8-5.718.059-2.555 1.75-1.74 3.062-1.865zm104.4 83.88c.046-2.323 2.18-3.142 3.445-4.537 1.113-1.227 2.182-.3 3.049.677.332.372.7.716 1.057 1.064.88.852 2.017 1.618 1.559 3.092s-3.527 2.515-5.784 2.324c-1.775-.152-2.333-1.544-3.321-2.62zm42.427 11.952c.16-1.069-.27-2.227.707-3.349a3.717 3.717 0 0 1 3.847-1.441 3.674 3.674 0 0 1 3.063 3.459 3.634 3.634 0 0 1-1.931 3.633c-1.484 1.016-3.334.581-4.94.335-1.056-.164-.706-1.618-.746-2.637zm-37.753-30.6c2.241.014 4.475 1.452 4.457 2.865-.014 1.039-3.158 4.534-4.248 4.718-1.332.224-5.223-3.53-4.774-4.861a3.781 3.781 0 0 1 4.565-2.731zm41.629-1.519c-2.075.226-3.222-1.124-3.8-2.729-.479-1.311 3.429-5.08 4.764-4.854 1.088.184 4.234 3.677 4.246 4.716.017 1.644-2.569 3.068-5.21 2.858zm.548-25.785c.984-.06 4.41 3.105 4.658 4.305.3 1.433-1.819 3.148-4.048 3.278-2.716.162-5.193-1.335-5.033-3.041.103-1.096 3.405-4.489 4.423-4.551zM-32.9 167.961a3.774 3.774 0 0 1-3.407 3.98 3.686 3.686 0 0 1-4.16-3.984 3.718 3.718 0 0 1 3.785-3.6 3.715 3.715 0 0 1 3.782 3.604zM115.428 206.1c.42 2.286-1.018 2.3-2.638 2.253-2.765-.089-4.909-1.38-4.927-3.066-.014-1.216 2.5-4.518 3.45-4.531 3.155-.041 4.217 1.344 4.115 5.344zM.969 144.637a3.776 3.776 0 0 1 3.975 3.413 3.691 3.691 0 0 1-3.972 4.172 3.8 3.8 0 0 1-.003-7.585zm-3.151-16.684a3.673 3.673 0 0 1 4.1 3.287 3.744 3.744 0 0 1-3.845 4.3 3.7 3.7 0 0 1-3.723-3.666 3.759 3.759 0 0 1 3.468-3.921zM-12.65 93.066a3.77 3.77 0 0 1 3.972 3.416 3.687 3.687 0 0 1-3.975 4.169 3.718 3.718 0 0 1-3.593-3.793 3.72 3.72 0 0 1 3.596-3.792zM-59.383 114.3a3.716 3.716 0 0 1 3.785 3.6 3.685 3.685 0 0 1-4.16 3.982 3.772 3.772 0 0 1-3.406-3.981 3.715 3.715 0 0 1 3.781-3.601zm-8.89 19.717a3.771 3.771 0 0 1-3.973-3.412 3.689 3.689 0 0 1 3.973-4.171 3.718 3.718 0 0 1 3.595 3.792 3.717 3.717 0 0 1-3.595 3.794zm129.217 59.916a3.794 3.794 0 1 1-7.568-.376 3.773 3.773 0 0 1 3.972-3.416 3.719 3.719 0 0 1 3.596 3.792zm161.943-41.028c.373 2.1-.739 2.438-2.526 2.382-3.375-.108-4.79-1.062-5.039-3.711-.132-1.4 3.137-4.049 4.817-3.9 1.59.132 2.818 2.468 2.748 5.229zm-19.671-9.4c.046-3.366 1.107-4.753 3.781-4.938 1.507-.1 4.032 3.19 3.783 4.94-.209 1.48-2.7 2.53-5.33 2.7-2.283.149-2.377-1.065-2.234-2.699zm0 15.731a3.772 3.772 0 0 1 3.4-3.983 3.8 3.8 0 1 1-3.402 3.986zM65.484 169.821a9.688 9.688 0 0 1 .041-2.657c.481-1.382 1.414-2.873 2.919-2.7a7.215 7.215 0 0 1 4.241 2 3.062 3.062 0 0 1-.351 3.942c-.991 1.138-4.753 2.2-6.014 1.519a1.869 1.869 0 0 1-.836-2.104zm-116.541-7.927a3.773 3.773 0 0 1-3.406 3.98 3.687 3.687 0 0 1-4.16-3.984 3.718 3.718 0 0 1 3.785-3.6 3.716 3.716 0 0 1 3.78 3.604zm242.164-10.762c.031-3.386 1.089-4.788 3.746-4.977 1.5-.106 4.033 3.14 3.822 4.9-.182 1.5-2.646 2.75-5.3 2.683-2.248-.055-2.292-.106-2.269-2.606zm-121.841-3.46a3.8 3.8 0 1 1-.375 7.584 3.774 3.774 0 0 1-3.406-3.98 3.717 3.717 0 0 1 3.78-3.604zM67 202.782a3.735 3.735 0 0 1 3.845-3.539 3.8 3.8 0 1 1-.5 7.584A3.782 3.782 0 0 1 67 202.782zm127.514-39.943a3.842 3.842 0 0 1 4.162 3.225 3.766 3.766 0 0 1-3.787 4.36 3.716 3.716 0 0 1-3.781-3.605 3.774 3.774 0 0 1 3.404-3.98zM140.4 174.974a3.8 3.8 0 1 1-.375 7.585 3.776 3.776 0 0 1-3.408-3.981 3.718 3.718 0 0 1 3.783-3.604zm29.516-12.56c-.034 3.384-1.09 4.787-3.748 4.975-1.5.108-4.033-3.138-3.82-4.9.179-1.5 2.646-2.748 5.3-2.681 2.252.055 2.292.106 2.269 2.606zm-83.811 50.48a3.772 3.772 0 0 1-3.973-3.413 3.793 3.793 0 1 1 3.974 3.413zm91.944-28.82a3.773 3.773 0 0 1 3.974 3.412 3.793 3.793 0 1 1-3.973-3.412zM136.618 195.2a3.736 3.736 0 0 1 3.847-3.54 3.8 3.8 0 1 1-.5 7.584 3.785 3.785 0 0 1-3.347-4.044zm-6.052 6.318a3.794 3.794 0 1 1-7.566-.378 3.771 3.771 0 0 1 3.972-3.414 3.719 3.719 0 0 1 3.594 3.791zm3.026 10.808a3.775 3.775 0 0 1 3.408-3.983 3.8 3.8 0 1 1-3.408 3.982zm32.352-35.834a3.772 3.772 0 0 1 3.973 3.412 3.793 3.793 0 1 1-3.973-3.413zm-13.1 33.368c-1.685.179-2.727-.058-2.664-2.275.113-3.953 1.081-5.389 4.213-5.308.884.023 3.433 3.433 3.416 4.569-.027 1.67-2.198 2.988-4.965 3.013zm-56.075-22.753c-1.794.245-2.635-.259-2.583-2.349.1-3.851 1.234-5.432 4.281-5.234.908.06 3.385 3.5 3.341 4.644-.064 1.681-2.223 2.94-5.039 2.939zm-73.663-73.192c-.141-1.632-.042-2.777 2.234-2.709 3.995.12 5.376 1.027 5.332 4.189-.012.949-3.308 3.472-4.521 3.458-1.682-.018-3.008-2.167-3.045-4.938zm27.243-2.14a3.734 3.734 0 0 1 3.845-3.54 3.8 3.8 0 1 1-.5 7.583 3.78 3.78 0 0 1-3.345-4.043zm-4.542 20.73a3.964 3.964 0 0 1 3.028 4.359 4.118 4.118 0 0 1-4.917 3.223 4.425 4.425 0 0 1-2.651-4.738 4.242 4.242 0 0 1 4.54-2.844zm-6.054 20.853a3.845 3.845 0 0 1 3.218-4.169 3.761 3.761 0 0 1 4.35 3.794 3.718 3.718 0 0 1-3.6 3.789 3.771 3.771 0 0 1-3.968-3.414zm.7 14.031a3.738 3.738 0 0 1 3.847 3.541 3.591 3.591 0 0 1-4.1 4.044 3.756 3.756 0 0 1-3.468-3.918 3.7 3.7 0 0 1 3.716-3.667zm-1.2-66.738a3.737 3.737 0 0 1 3.533 3.855 3.8 3.8 0 1 1-7.568-.5 3.78 3.78 0 0 1 4.03-3.355zM30.167 141.6a3.738 3.738 0 0 1 3.533 3.86 3.8 3.8 0 1 1-7.568-.5 3.777 3.777 0 0 1 4.035-3.36zm-60.413-6.068a3.775 3.775 0 0 1 3.4 3.982 3.717 3.717 0 0 1-3.783 3.6 3.766 3.766 0 0 1-3.785-4.361 3.846 3.846 0 0 1 4.168-3.216zm45.782-11.709c.178 1.687-.058 2.731-2.271 2.669-3.945-.114-5.376-1.085-5.3-4.222.023-.887 3.424-3.44 4.56-3.422 1.675.031 2.987 2.205 3.011 4.98zm97.3 63.282c1.833-.252 2.77.23 2.641 2.4-.176 2.95-1.355 5.294-3.012 5.183-1.1-.074-4.426-3.267-4.607-4.423-.252-1.625 2.114-3.125 4.983-3.155zm19.24-29.913c-.2.969.583 2.629-1.515 2.6-1.932-.028-3.965.538-5.431-1.561-.923-1.322-.775-2.2.308-3.159.188-.165.34-.379.54-.529 1.139-.852 1.708-2.627 3.572-2.314 1.209.205 2.48 2.719 2.531 4.971zm66.591-54.462c.357 2.053-.581 2.605-2.523 2.5-2.9-.153-5.251-1.484-5.043-3.132.148-1.164 3.394-4.375 4.54-4.488 1.659-.156 3.04 2.19 3.031 5.125zM83.944 141.6c.957.222 2.461-.641 2.755 1.388.322 2.234-.618 5.226-2.074 5.972s-2.267-.261-3.118-1.159c-.347-.365-.724-.7-1.065-1.074-1.706-1.842-1.156-4.445 1.136-5.1a9.3 9.3 0 0 1 2.366-.027zM70.026 132c-.312-1.949.417-2.686 2.461-2.57 2.922.166 5.267 1.426 5.105 3.079-.114 1.148-3.318 4.4-4.482 4.55-1.642.202-3.075-2.144-3.084-5.059zm-15.137 10.01c.033-3.641.03-3.578 3.753-3.472 1.41.041 2.44.145 2.313 1.925a14.117 14.117 0 0 0 .011 3c.366 2.522-.952 2.783-3.028 2.754-2-.028-3.487-.12-3.061-2.706a9.47 9.47 0 0 0 .012-1.501zm-9.082-20.851c0 3.916-.257 4.126-4.183 3.777-1.063-.094-1.954-.18-1.88-1.588a18.353 18.353 0 0 0-.009-3c-.241-2.084.185-3.208 2.7-3.073 3.3.174 3.311-.011 3.368 3.133.01.25.004.5.004.751zM185.052 141.9c-.224.96.639 2.466-1.386 2.761-2.229.325-5.214-.619-5.959-2.078s.26-2.271 1.157-3.125c.364-.347.7-.725 1.072-1.067 1.837-1.71 4.434-1.159 5.084 1.139a9.277 9.277 0 0 1 .032 2.37zm25.728-28.611c.312 1.951-.417 2.687-2.461 2.572-2.922-.166-5.269-1.427-5.1-3.078.113-1.151 3.318-4.4 4.48-4.551 1.64-.205 3.073 2.142 3.081 5.06zm15.429-20.226c.863 0 1.613.041 2.359-.007 2.565-.161 1.848 1.734 1.864 3.065.014 1.355.653 3.228-1.91 3.019a12.224 12.224 0 0 0-2.244 0c-2.3.249-3.516.035-3.56-3.066-.047-3.251 1.401-3.214 3.491-3.008zm-21.161 31.381c-.123.6-.906-1.065 1.19-1.034 1.933.029 3.967-.54 5.433 1.562.923 1.321.775 2.2-.31 3.158-.186.166-.338.379-.538.529-1.139.852-1.814 2.895-3.544 2.248-2.007-.747-2.947-2.52-2.231-6.46zM21.694 94.462c2.276.238 3.539-.235 4.547.945.982 1.147 2.292 2.1.7 3.679a4.269 4.269 0 0 1-.539.531c-1.336.9-1.993 3.391-4.153 2.355-2-.956-2.283-2.911-2.253-5.113.026-2.259 1.029-2.542 1.698-2.397zm-91.014 74.566c-2.276-.238-3.538.235-4.549-.945-.982-1.147-2.292-2.1-.694-3.679a4.122 4.122 0 0 1 .537-.531c1.336-.905 1.993-3.391 4.155-2.355 1.994.958 2.281 2.911 2.251 5.115-.03 2.26-1.033 2.54-1.7 2.395zm227.13 2.153c.1 1.464-2.424 3.837-4.347 3.744-1.942-.1-3.049-1.37-3.223-3.361a3.8 3.8 0 1 1 7.569-.383zm-96.427-49.3c.958.194 2.611-.579 2.577 1.52-.028 1.937.537 3.973-1.56 5.443-1.322.925-2.185.759-3.155-.312-.507-.563-1.083-1.06-1.595-1.616a2.929 2.929 0 0 1 1.35-5 10 10 0 0 1 2.382-.03zm-115.568 24.39c-2.275-.24-3.537.237-4.547-.943-.982-1.147-2.294-2.1-.7-3.681a4.231 4.231 0 0 1 .541-.529c1.336-.905 1.991-3.393 4.151-2.357 1.995.956 2.285 2.909 2.253 5.113-.028 2.261-1.026 2.549-1.699 2.402zm231.669 10.2c.224-.962-.637-2.469 1.386-2.763 2.228-.325 5.214.619 5.959 2.08s-.261 2.269-1.155 3.122c-.366.348-.7.726-1.074 1.07-1.836 1.707-4.434 1.157-5.084-1.142a9.3 9.3 0 0 1-.033-2.362zm-266.376-.268c-.357-2.051.577-2.61 2.519-2.506 2.907.154 5.253 1.482 5.047 3.13-.146 1.166-3.394 4.377-4.54 4.49-1.65.169-3.034-2.174-3.027-5.109zm71.888-46.455c2.382-.459 2.339 1.078 2.283 2.713-.1 2.858-1.664 5.221-3.287 4.869-1.225-.264-4.285-3.646-4.292-4.738-.009-1.622 2.388-2.908 5.295-2.839zm-9.838-6.952c.4 2.169-.759 2.516-2.586 2.428-2.866-.137-5.235-1.559-4.98-3.188.183-1.157 3.507-4.349 4.609-4.423 1.655-.106 2.988 2.228 2.956 5.187zm81.292 78.24c-.958-.194-2.609.581-2.577-1.519.028-1.937-.537-3.975 1.561-5.442 1.32-.925 2.185-.761 3.155.312.505.561 1.083 1.058 1.593 1.614a2.93 2.93 0 0 1-1.352 5.007 10.11 10.11 0 0 1-2.381.033zm-99.45-.762c.2 2.1-1.153 3.256-2.82 3.726-1.412.4-5.243-3.65-4.678-4.873.7-1.526 1.762-2.929 3.931-2.666A3.855 3.855 0 0 1-45 180.274zm143.024 15.935a20.542 20.542 0 0 0 2.234-.016 1.268 1.268 0 0 1 1.531 1.152 4.088 4.088 0 0 1-1.8 4.458c-1.128.748-5.308.706-5.473-.085a15.105 15.105 0 0 1-.229-4.373c.103-1.145.306-1.136 3.737-1.136zM11.734 105.2c1.919.083 4.343-.729 3.824 2.7-.234 1.551.719 3.548-2.317 3.43-3.884-.154-5.325-1.11-5.266-4.321.062-3.167 2.533-1.268 3.759-1.809zm211.139 31.789c.211 1.914.134 3.382-2.539 3.152-2.809-.241-4.985-1.349-5.012-3.038s2.143-2.891 4.915-3.126c2.485-.209 2.984.952 2.636 3.011zm-15.124-39.657c-.368-2.085.458-3.064 2.771-2.77 1.574.2 3.54-.614 3.345 2.364-.19 2.879-1.122 5.05-2.819 5.242-1.737.196-3.197-1.893-3.297-4.836zM194.8 114.267c2.209-.437 2.55.944 2.389 3.005-.222 2.832-1.743 5.116-3.4 4.57-2.5-.828-2.693-2.913-2.759-5.3-.086-3.083 1.959-2.063 3.77-2.275zm-14.948-7.584c1.808.212 3.853-.808 3.769 2.279-.064 2.382-.256 4.467-2.759 5.3-1.656.545-3.177-1.74-3.4-4.572-.162-2.062.176-3.445 2.386-3.007zm-14.461 27.427c-.176-1.882-.189-3.414 2.524-3.175 2.814.245 4.989 1.33 5.028 3.02.039 1.671-2.16 2.907-4.9 3.142-2.46.21-3.001-.919-2.652-2.987zm2.255 16.6c-1.327-.48-3.774 1.317-3.78-1.849 0-2.619 1.446-4.221 3.78-4.221s3.769 1.6 3.783 4.221c.011 1.844.011 1.844-3.783 1.846zM28.78 132.517c-1.389-.57-3.6 1.373-4.179-1.51-.407-2.026.629-3.347 2.091-4.31 1.419-.935 3.922.01 5.065 1.559a3.628 3.628 0 0 1 .294 3.485c-.53 1.359-2.156.58-3.271.776zm193.537-7.576c-2.257.445-2.643-.9-2.479-2.976.22-2.835 1.656-4.921 3.4-4.63 1.568.265 2.559 2.617 2.73 5.323.19 3.065-1.896 2.114-3.651 2.283zm-52.391 72.333c-.108 1.731.679 3.73-2.315 3.539-2.8-.178-5.039-1.141-5.262-2.789-.236-1.743 1.852-3.14 4.667-3.361 2.128-.163 3.345.353 2.91 2.611zM142.1 143.1c1.755.171 3.843-.78 3.649 2.285-.17 2.706-1.16 5.058-2.73 5.321-1.741.293-3.177-1.793-3.4-4.63-.161-2.076.224-3.421 2.481-2.976zM12.512 153.346c-.445-2.317.771-2.835 2.9-2.669 2.815.22 4.9 1.617 4.667 3.36-.224 1.648-2.449 2.806-5.265 2.735-2.328-.056-2.362-.108-2.302-3.426zm74.187 22.5c-.148 3.4-1.822 5.714-3.451 5.153-2.53-.871-2.632-3-2.7-5.351-.09-3.129 2.042-1.986 3.507-2.189 2.383-.327 3.308.649 2.645 2.392zm43.865-4.67c.428 3.05-1.817 2.147-3.355 2.274-2.266.187-3.829-.856-4.153-3.056-.28-1.907 2.445-3.258 5.666-3.01 1.833.148 2.018.528 1.842 3.797zm-28.3 46.273c-1.727-.107-3.721.681-3.531-2.32.178-2.807 1.137-5.05 2.783-5.273 1.738-.236 3.132 1.855 3.352 4.678.162 2.136-.355 3.357-2.609 2.92zm-8.03-48.949c-.422-2.221.7-2.832 2.875-2.661 2.8.222 4.9 1.59 4.7 3.329-.194 1.7-2.359 2.638-5.23 2.827-2.972.197-2.252-1.762-2.345-3.495zm1.236-10.208c-2.081.368-3.058-.459-2.764-2.776.2-1.579-.613-3.549 2.359-3.353 2.873.188 5.038 1.124 5.231 2.824.196 1.743-1.89 3.207-4.827 3.308zM-1.869 111.27c3.044-.429 2.063 1.833 2.289 3.359.355 2.428-.845 2.906-2.949 2.735-2.827-.228-4.91-1.648-4.635-3.391.249-1.599 2.549-2.773 5.295-2.703zm88.543 82.458c.482 2.449-1.026 2.551-3.012 2.535-1.938-.017-3.317-.033-3.091-2.648.238-2.78 1.392-4.987 3.059-4.989s3.011 2.163 3.044 5.102zm-7.568-33.163c-.428-3.049 1.817-2.147 3.355-2.274 2.266-.187 3.829.857 4.153 3.057.28 1.906-2.445 3.259-5.665 3.009-1.834-.143-2.019-.523-1.843-3.792zm-124.092-9.881c-.314-2.017.065-3.271 2.6-3.058 2.774.235 4.949 1.41 4.947 3.1 0 1.671-2.2 2.83-4.98 3.065-2.595.216-2.834-1.139-2.567-3.107zm34.829-2.347c.437 2.213-.942 2.555-3 2.394-2.826-.222-5.105-1.748-4.56-3.407.826-2.51 2.907-2.7 5.283-2.766 3.083-.083 2.066 1.967 2.277 3.779zM-13.2 128.9c-.169 1.759.78 3.851-2.278 3.659-2.7-.171-5.047-1.164-5.311-2.736-.292-1.745 1.79-3.187 4.621-3.407 2.075-.167 3.414.217 2.968 2.484zm-32.746-2.481c2.257-.444 2.643.9 2.479 2.977-.22 2.837-1.658 4.922-3.4 4.629-1.57-.263-2.56-2.616-2.731-5.321-.189-3.069 1.898-2.119 3.654-2.29zm20.64 27.341c2.011-.312 3.262.065 3.049 2.609-.232 2.781-1.407 4.962-3.088 4.958s-2.824-2.207-3.058-4.989c-.22-2.609 1.133-2.851 3.103-2.583zm-62.075-15.942c-.43-3.048 1.815-2.147 3.354-2.274 2.267-.187 3.829.858 4.153 3.058.28 1.905-2.445 3.258-5.665 3.008-1.833-.148-2.018-.528-1.84-3.797zm22.722 40.211c2.012-.312 3.264.066 3.051 2.61-.232 2.78-1.407 4.961-3.088 4.957s-2.824-2.207-3.06-4.989c-.218-2.607 1.134-2.853 3.099-2.583zm286.62-72.829c2.495-.49 2.472 1.115 2.495 3.051.026 2-.122 3.285-2.675 3.066-2.772-.24-4.946-1.412-4.946-3.1s2.19-2.993 5.126-3.017zm-292.706 40.955c2.776.12 5.1 1.776 4.486 3.382a3.675 3.675 0 0 1-3.76 2.71c-2.28-.117-3.662-1.659-3.758-4.243-.096-2.56 1.737-1.71 3.032-1.849zm258.826 32.494c-.188-1.3.122-2.234 1.849-2.175 2.589.088 4.2 1.476 4.2 3.775 0 2.029-1.845 4.113-3.4 3.825s-2.716-2.629-2.649-5.425zm-67.733 34.245c1.989-.181 4.532 1.669 4.1 3.2a3.6 3.6 0 0 1-3.719 2.906 3.654 3.654 0 0 1-3.729-2.9c-.395-1.251 1.663-3.052 3.348-3.206z" transform="translate(0 -93)"/></svg>