<svg xmlns="http://www.w3.org/2000/svg" width="301" height="99" viewBox="0 0 301.3 98.7"><path d="M203.3 25.8c1.7.2 2.7-.1 2.7-2.3-.1-3.5-1-5.1-3.5-5.3-2.3-.2-4.2 1.5-4.2 3.8 0 2.5 1.6 3.7 5 3.8zm63.1 48.3c.2 1-.4 2.2.7 3.3 1.1 1.2 2.2 1.9 3.8 1.5 1.8-.4 2.8-1.5 3.1-3.4.3-1.8-.7-2.8-1.9-3.7-1.5-1.1-3.3-.6-4.9-.4-1.1.1-.8 1.6-.8 2.6zm-121-46.8c1-.1 4.3-3.4 4.4-4.5.2-1.7-2.3-3.2-5-3.1-2.2.1-4.3 1.8-4.1 3.3.2 1.2 3.6 4.4 4.6 4.3zM129.8 44c-1.6-.1-2.8 0-2.7 2.2.1 3.5.9 5.1 3.4 5.3 2.3.2 4.2-1.5 4.2-3.8 0-2.5-1.6-3.7-4.9-3.8zm124.5-3c1 0 4.4-3.3 4.6-4.4.2-1.4-2-3.1-4.1-3.2-2.7-.1-5.2 1.5-4.9 3.1.2 1.1 3.5 4.4 4.5 4.5zm-40.8 4.6c0 2.2 1.4 4.5 2.8 4.5 1 0 4.5-3.1 4.7-4.2.3-1.3-3.5-5.3-4.8-4.8-2 .7-3.1 2.2-2.8 4.5zM86.3 69.5c.1 1.2-.3 2.4.8 3.4s2.1 2.3 3.6.7c.7-.7 1.4-1.5 2.1-2.1 1.5-1.3 1.2-2.5-.2-3.6-.4-.3-.7-.7-1.1-1.1-.9-.9-1.8-2.3-3-1.5-1.1.7-2.6 1.6-2.3 3.5v.7zm21.2-24.3c.1-1.6.2-2.8-2.2-2.7-3.8.1-5.6 1.3-5.4 4.2.1 2 1.8 3.5 3.7 3.5 2.6 0 3.8-1.6 3.8-4.9zM42.4 91c.8-.1 1.9.3 3.1-.6 1.3-1.1 1.8-2.3 1.5-3.8-.4-1.8-1.5-2.8-3.4-3.1-1.8-.2-2.8.7-3.6 1.9-1 1.5-.6 3.3-.4 5 .1 1 1.6.8 2.9.7zm140.7-59.6c0 2.3 2.2 3.1 3.4 4.5 1.1 1.2 2.2.3 3-.7.3-.4.7-.7 1.1-1.1.9-.9 2-1.6 1.6-3.1-.5-1.5-3.5-2.5-5.8-2.3-1.8.2-2.3 1.5-3.3 2.6zm42.5-11.9c.2 1.1-.3 2.2.7 3.3 1.1 1.3 2.3 1.8 3.8 1.4 1.8-.4 2.8-1.5 3.1-3.5.2-1.8-.8-2.8-1.9-3.6-1.5-1-3.3-.6-4.9-.3-1.1.2-.7 1.6-.7 2.6zm3.8 32.1c-2.1-.2-3.2 1.1-3.8 2.7-.5 1.3 3.4 5.1 4.8 4.9 1.1-.2 4.2-3.7 4.2-4.7 0-1.7-2.6-3.1-5.2-2.9zm-187-11.2c.1-2.1-1.4-3.8-3.4-4-2.4-.2-4.3 1.5-4.2 4 .1 2.1 1.7 3.6 3.8 3.6 2.1 0 3.7-1.5 3.8-3.6zM190.7 2.3c.4-2.3-1-2.3-2.6-2.3-2.8.1-4.9 1.4-4.9 3.1 0 1.2 2.5 4.5 3.5 4.5 3.2 0 4.2-1.3 4.1-5.3zM76.3 63.7c2.1.1 3.8-1.4 4-3.4.2-2.4-1.5-4.3-4-4.2-2.1.1-3.6 1.7-3.6 3.8 0 2.1 1.5 3.7 3.6 3.8zm-3.2 16.7c2.1.2 3.8-1.2 4.1-3.3.3-2.4-1.5-4.3-3.8-4.3-2.1 0-3.7 1.6-3.7 3.7-.1 2.1 1.4 3.8 3.5 3.9zm225.1-24.9c.4-2.1-.7-2.4-2.5-2.4-3.4.1-4.8 1.1-5 3.7-.1 1.4 3.1 4 4.8 3.9 1.6-.1 2.8-2.5 2.7-5.2zm-19.7 9.4c0 3.4 1.1 4.8 3.8 4.9 1.5.1 4-3.2 3.8-4.9-.2-1.5-2.7-2.5-5.3-2.7-2.3-.1-2.4 1.1-2.2 2.7zm0-15.8c-.1 2.1 1.4 3.8 3.4 4 2.4.2 4.3-1.5 4.2-4-.1-2.1-1.7-3.6-3.8-3.6-2.1 0-3.7 1.5-3.8 3.6zM140.8 38.5c0 1.2-.2 2 0 2.7.5 1.4 1.4 2.9 2.9 2.7 1.5-.2 3.3-.9 4.2-2 .8-.9.8-2.7-.4-3.9-1-1.1-4.8-2.2-6-1.5-1 .6-.9 1.6-.8 2.1zm-116.5 8c.1-2.1-1.4-3.8-3.4-4-2.4-.2-4.3 1.5-4.2 4 .1 2.1 1.7 3.6 3.8 3.6 2.1 0 3.7-1.5 3.8-3.6zm242.1 10.7c0 3.4 1.1 4.8 3.7 5 1.5.1 4-3.1 3.8-4.9-.2-1.5-2.6-2.7-5.3-2.7-2.2.1-2.3.1-2.3 2.6zm-121.8 3.5c2.1 0 3.7-1.5 3.8-3.6.1-2.5-1.7-4.2-4.2-4-2 .2-3.5 1.9-3.4 4s1.7 3.6 3.8 3.6zm125.2-15.2c2 .2 3.9-1.2 4.2-3.2.4-2.3-1.4-4.4-3.8-4.4-2.1 0-3.7 1.5-3.8 3.6-.1 2.1 1.4 3.8 3.4 4zm-54.1-12.1c2.1 0 3.7-1.5 3.8-3.6.1-2.5-1.7-4.2-4.2-4-2 .2-3.5 1.9-3.4 4 .1 2.1 1.7 3.6 3.8 3.6zM245.2 46c0-3.4-1.1-4.8-3.7-5-1.5-.1-4 3.1-3.8 4.9.2 1.5 2.6 2.7 5.3 2.7 2.3-.1 2.3-.1 2.3-2.6zm-33.3-32.8c.1 2 1.8 3.6 3.8 3.5 2.1 0 3.7-1.6 3.7-3.7.1-2.4-1.8-4.2-4.2-3.9-2 .2-3.5 2-3.3 4zm-6-6.3c0-2.1-1.5-3.7-3.6-3.8-2.4-.1-4.2 1.7-4 4.2.2 2 1.9 3.5 4 3.4 2.1-.1 3.6-1.7 3.6-3.8zm35.4 25c2.1.1 3.8-1.4 4-3.4.2-2.4-1.5-4.3-4-4.2-2.1.1-3.6 1.7-3.6 3.8 0 2.1 1.5 3.7 3.6 3.8zm-69.2-10.6c-1.8-.2-2.6.3-2.6 2.3.1 3.9 1.2 5.4 4.3 5.2.9-.1 3.4-3.5 3.3-4.6-.1-1.7-2.2-2.9-5-2.9zm-51 54.6c1.9-.4 3.3-2.4 3-4.4-.3-2.2-2.9-3.8-4.9-3.2-1.7.5-3.1 3-2.7 4.7.4 1.8 2.7 3.2 4.5 2.8zm-6-20.9c-.2 2 1.2 3.9 3.2 4.2 2.3.4 4.4-1.4 4.4-3.8 0-2.1-1.5-3.7-3.6-3.8-2.1-.1-3.8 1.4-4 3.4zm.7-14c2.1 0 3.7-1.5 3.8-3.5.2-2.6-1.6-4.2-4.1-4-2 .2-3.5 1.9-3.5 3.9.1 2.1 1.6 3.6 3.7 3.7zm-10.3 25.8c2-.1 3.6-1.8 3.5-3.9 0-2.1-1.6-3.7-3.7-3.7-2.4-.1-4.2 1.9-3.9 4.2.2 2 2 3.5 4 3.4zm-60.4 6c2-.2 3.5-1.9 3.4-4-.1-2.1-1.7-3.6-3.8-3.6-2.4 0-4.1 2-3.8 4.4.3 2 2.1 3.4 4.2 3.2zm45.7 11.7c.2-1.7-.1-2.7-2.3-2.7-3.9.1-5.4 1.1-5.3 4.2 0 .9 3.4 3.4 4.6 3.4 1.7 0 3-2.2 3-5zm97.4-63.2c1.8.3 2.8-.2 2.6-2.4-.2-2.9-1.4-5.3-3-5.2-1.1.1-4.4 3.3-4.6 4.4-.3 1.6 2.1 3.1 5 3.2zm-58 45.1c0 3.6 0 3.6 3.8 3.5 1.4 0 2.4-.1 2.3-1.9-.1-1-.1-2 0-3 .4-2.5-1-2.8-3-2.8s-3.5.1-3.1 2.7c.1.5 0 1 0 1.5zm130.2.1c-.2-1 .6-2.5-1.4-2.8-2.2-.3-5.2.6-6 2.1s.3 2.3 1.2 3.1c.4.3.7.7 1.1 1.1 1.8 1.7 4.4 1.2 5.1-1.1.2-.7 0-1.5 0-2.4zm20 17.4c-.1-.6-.9 1.1 1.2 1 1.9 0 4 .5 5.4-1.6.9-1.3.8-2.2-.3-3.2-.2-.2-.3-.4-.5-.5-1.1-.9-1.8-2.9-3.5-2.2-2 .8-2.9 2.5-2.2 6.5zM6 39.3c-2.3.2-3.5-.2-4.5.9s-2.3 2.1-.7 3.7c.2.2.3.4.5.5 1.3.9 2 3.4 4.2 2.4 2-1 2.3-2.9 2.3-5.1 0-2.3-1-2.5-1.7-2.4zm227.1-2.1c.1-1.5-2.4-3.8-4.3-3.7-1.9.1-3 1.4-3.2 3.4-.2 2.1 1.2 3.9 3.2 4.2 2.3.3 4.2-1.3 4.4-3.8zm-212 24.9c-2.3.2-3.5-.2-4.5.9s-2.3 2.1-.7 3.7c.2.2.3.4.5.5 1.3.9 2 3.4 4.2 2.4 2-1 2.3-2.9 2.3-5.1 0-2.3-1-2.5-1.7-2.4zm231.7-10.2c.2 1-.6 2.5 1.4 2.8 2.2.3 5.2-.6 6-2.1.7-1.5-.3-2.3-1.2-3.1-.4-.3-.7-.7-1.1-1.1-1.8-1.7-4.4-1.2-5.1 1.1-.2.7 0 1.5 0 2.4zM58.3 98.6c2.4.5 2.3-1.1 2.3-2.7-.1-2.9-1.7-5.2-3.3-4.9-1.2.3-4.3 3.6-4.3 4.7 0 1.6 2.4 2.9 5.3 2.8zm71.5-71.3c-1 .2-2.6-.6-2.6 1.5 0 1.9-.5 4 1.6 5.4 1.3.9 2.2.8 3.2-.3.5-.6 1.1-1.1 1.6-1.6 1.7-1.8 1-4.4-1.4-5-.7-.2-1.5 0-2.4 0zm-99.5.8c.2-2.1-1.2-3.3-2.8-3.7-1.4-.4-5.2 3.7-4.7 4.9.7 1.5 1.8 2.9 3.9 2.7 2-.2 3.6-1.7 3.6-3.8zm143-15.9c.7 0 1.5-.1 2.2 0 .9.1 1.4-.4 1.5-1.2.3-1.8-.2-3.4-1.8-4.5-1.1-.7-5.3-.7-5.5.1-.3 1.4-.4 2.9-.2 4.4.1 1.1.3 1.1 3.7 1.1zm124.9 59.2c.2-1.9.1-3.4-2.5-3.2-2.8.2-5 1.4-5 3 0 1.7 2.1 2.9 4.9 3.1 2.5.2 3-1 2.6-3zM243 57.7c-1.3.5-3.8-1.3-3.8 1.8 0 2.6 1.4 4.2 3.8 4.2 2.3 0 3.8-1.6 3.8-4.2 0-1.8 0-1.8-3.8-1.8zM104.1 75.9c-1.4.6-3.6-1.4-4.2 1.5-.4 2 .6 3.3 2.1 4.3 1.4.9 3.9 0 5.1-1.6.8-1.1.7-2.5.3-3.5-.5-1.4-2.2-.6-3.3-.8zm193.5 7.5c-2.3-.4-2.6.9-2.5 3 .2 2.8 1.7 4.9 3.4 4.6 1.6-.3 2.6-2.6 2.7-5.3.2-3.1-1.9-2.1-3.6-2.3zM87.8 55c-.4 2.3.8 2.8 2.9 2.7 2.8-.2 4.9-1.6 4.7-3.4-.2-1.6-2.4-2.8-5.3-2.7-2.3.1-2.4.1-2.3 3.4zM162 32.5c-.1-3.4-1.8-5.7-3.5-5.2-2.5.9-2.6 3-2.7 5.4-.1 3.1 2 2 3.5 2.2 2.4.3 3.3-.6 2.6-2.4zm43.9 4.7c.4-3-1.8-2.1-3.4-2.3-2.3-.2-3.8.9-4.2 3.1-.3 1.9 2.4 3.3 5.7 3 1.8-.1 2-.5 1.8-3.8zm-36.3 2.7c-.4 2.2.7 2.8 2.9 2.7 2.8-.2 4.9-1.6 4.7-3.3-.2-1.7-2.4-2.6-5.2-2.8-3-.2-2.3 1.8-2.3 3.5zM73.4 97.1c3 .4 2.1-1.8 2.3-3.4.4-2.4-.8-2.9-2.9-2.7-2.8.2-4.9 1.6-4.6 3.4.3 1.6 2.5 2.8 5.3 2.7zM162 14.6c.5-2.4-1-2.6-3-2.5-1.9 0-3.3 0-3.1 2.6.2 2.8 1.4 5 3.1 5 1.7 0 3-2.2 3-5.1zm-7.6 33.2c-.4 3 1.8 2.1 3.4 2.3 2.3.2 3.8-.9 4.2-3.1.3-1.9-2.4-3.3-5.7-3-1.8.1-2 .5-1.8 3.8zM30.3 57.7c-.3 2 .1 3.3 2.6 3.1 2.8-.2 4.9-1.4 4.9-3.1 0-1.7-2.2-2.8-5-3.1-2.6-.2-2.8 1.1-2.6 3.1zM65.2 60c.4-2.2-.9-2.6-3-2.4-2.8.2-5.1 1.7-4.6 3.4.8 2.5 2.9 2.7 5.3 2.8 3.1.1 2.1-2 2.3-3.8zm-3.1 19.5c-.2-1.8.8-3.9-2.3-3.7-2.7.2-5 1.2-5.3 2.7-.3 1.7 1.8 3.2 4.6 3.4 2.1.2 3.4-.2 3-2.5zM29.4 82c2.3.4 2.6-.9 2.5-3-.2-2.8-1.7-4.9-3.4-4.6-1.6.3-2.6 2.6-2.7 5.3-.2 3.1 1.9 2.1 3.6 2.3zM50 54.6c2 .3 3.3-.1 3-2.6-.2-2.8-1.4-5-3.1-5-1.7 0-2.8 2.2-3.1 5-.2 2.6 1.1 2.8 3.1 2.6zM10.7 30.3c2 .3 3.3-.1 3.1-2.6-.2-2.8-1.4-5-3.1-5-1.7 0-2.8 2.2-3.1 5-.2 2.6 1.1 2.8 3.1 2.6zM4.6 62.2c2.8-.1 5.1-1.8 4.5-3.4-.6-1.5-1.7-2.8-3.8-2.7-2.3.1-3.7 1.7-3.8 4.2-.1 2.6 1.7 1.7 3 1.8z"/></svg>