<svg xmlns="http://www.w3.org/2000/svg" width="219.97" height="126" viewBox="0 0 219.97 126"><defs><style>.cls-1{fill-rule:evenodd}</style></defs><path id="dotted-line" class="cls-1" d="M2024 1798.7a10.961 10.961 0 0 1-2.22-.02c-2.98-.62-4.18-1.85-3.8-4.13.34-2.02 1.41-3.53 3.8-3.43.74.03 1.48 0 2.22 0v7.58zm0-15.16c-4.25-.3-6.58-1.57-6.01-3.39.94-3.05 3.57-2.74 6.01-2.68v6.07zm-65.08-15.17c.07 2.06-2.17 4.4-4.36 4.55-1.58.11-3.11-1.88-3.21-4.17-.15-3.25 1.3-5.05 3.97-4.93 2.21.1 3.5 1.73 3.6 4.55zm-41.96 62.19c1.68-.18 2.74.06 2.66 2.28-.13 3.51-.96 5.07-3.47 5.3a3.7 3.7 0 0 1-4.15-3.83c0-2.5 1.61-3.72 4.96-3.75zm63.15-48.25c.19-1.01-.36-2.21.66-3.31 1.1-1.16 2.24-1.85 3.82-1.52a3.69 3.69 0 0 1 3.12 3.41 3.628 3.628 0 0 1-1.86 3.66c-1.49 1.08-3.33.58-4.94.4-1.06-.11-.8-1.56-.8-2.64zm-236.37-29.11c.98-.04 4.55 3.06 4.8 4.17.29 1.3-3.27 4.98-4.78 4.93-1.4-.04-2.79-2.31-2.79-4.54s1.38-4.5 2.77-4.56zm225.48 16.69c1.01.19 2.19-.33 3.31.66a3.787 3.787 0 0 1 1.51 3.83 3.68 3.68 0 0 1-3.4 3.13c-1.76.26-2.81-.69-3.66-1.87-1.07-1.49-.57-3.33-.4-4.95.11-1.06 1.56-.8 2.64-.8zm-110.1 59.15c1.02.05 4.33 3.42 4.44 4.52.18 1.72-2.26 3.22-5.01 3.07-2.21-.13-4.35-1.84-4.07-3.26.24-1.21 3.64-4.38 4.64-4.33zm-15.62-16.69c-1.63.15-2.79.05-2.7-2.23.14-3.53.95-5.08 3.44-5.35a3.739 3.739 0 0 1 4.19 3.8c0 2.52-1.58 3.74-4.93 3.78zm124.47 3.04c.98-.01 4.38 3.26 4.57 4.39.23 1.4-1.96 3.09-4.14 3.19-2.66.13-5.17-1.46-4.94-3.13.15-1.14 3.49-4.44 4.51-4.45zm-40.84-4.6c.01-2.24 1.42-4.49 2.83-4.5 1.01-.01 4.53 3.13 4.74 4.22.25 1.33-3.45 5.26-4.81 4.81a3.782 3.782 0 0 1-2.76-4.53zM1800 1786.83c.09-1.18-.33-2.42.84-3.42 1.14-.97 2.08-2.26 3.64-.69.7.71 1.37 1.46 2.12 2.11 1.52 1.32 1.24 2.48-.17 3.64-.38.32-.71.7-1.06 1.06-.85.87-1.77 2.28-3.03 1.5-1.12-.69-2.62-1.6-2.35-3.45a4.7 4.7 0 0 0 .01-.75zm21.18 24.36c.11 1.58.15 2.82-2.19 2.75-3.81-.12-5.57-1.28-5.37-4.15a3.736 3.736 0 0 1 3.74-3.5c2.56 0 3.77 1.55 3.82 4.9zm-65.09-45.81c.77.13 1.94-.34 3.06.64a3.737 3.737 0 0 1 1.47 3.84 3.655 3.655 0 0 1-3.42 3.1 3.6 3.6 0 0 1-3.64-1.9c-1.05-1.49-.57-3.34-.38-4.95.12-1.03 1.58-.79 2.91-.73zm36.32-24.31c3.1.13 4.79 1.68 4.56 4.16a3.771 3.771 0 0 1-3.82 3.42c-2.68 0-3.87-2.04-3.8-5.72.06-2.55 1.75-1.74 3.06-1.86zm104.41 83.88c.04-2.33 2.18-3.14 3.44-4.54 1.12-1.23 2.18-.3 3.05.68.33.37.7.71 1.06 1.06.88.85 2.02 1.62 1.56 3.09s-3.53 2.52-5.79 2.33c-1.78-.15-2.34-1.55-3.32-2.62zm42.42 11.95c.16-1.07-.27-2.23.71-3.35a3.856 3.856 0 0 1 6.91 2.02 3.642 3.642 0 0 1-1.93 3.63c-1.49 1.01-3.34.58-4.94.33-1.06-.16-.71-1.61-.75-2.63zm-37.75-30.61c2.24.02 4.47 1.45 4.45 2.87-.01 1.04-3.15 4.53-4.24 4.71-1.34.23-5.23-3.53-4.78-4.86a3.783 3.783 0 0 1 4.57-2.72zm41.63-1.52c-2.08.23-3.23-1.12-3.81-2.73-.48-1.31 3.43-5.08 4.76-4.85 1.09.18 4.24 3.68 4.25 4.72.02 1.65-2.56 3.07-5.2 2.86zm.54-25.78c.99-.06 4.41 3.1 4.66 4.3.3 1.43-1.82 3.15-4.05 3.28-2.71.16-5.19-1.34-5.03-3.04.1-1.09 3.41-4.48 4.42-4.54zm-187.56 36.97a3.775 3.775 0 0 1-3.4 3.98 3.8 3.8 0 1 1 3.4-3.98zm148.33 38.14c.42 2.29-1.02 2.31-2.64 2.26-2.77-.09-4.91-1.38-4.93-3.07-.01-1.21 2.5-4.52 3.45-4.53 3.16-.05 4.22 1.34 4.12 5.34zm-114.46-61.46a3.766 3.766 0 0 1 3.97 3.41 3.789 3.789 0 1 1-3.97-3.41zm-3.15-16.69a3.681 3.681 0 0 1 4.1 3.29 3.76 3.76 0 0 1-3.85 4.3 3.69 3.69 0 0 1-3.72-3.67 3.771 3.771 0 0 1 3.47-3.92zm-10.47-34.88a3.766 3.766 0 0 1 3.97 3.41 3.795 3.795 0 1 1-3.97-3.41zm-46.73 21.23a3.8 3.8 0 1 1-.38 7.59 3.767 3.767 0 0 1-3.4-3.98 3.717 3.717 0 0 1 3.78-3.61zm-8.89 19.72a3.775 3.775 0 0 1-3.98-3.41 3.794 3.794 0 1 1 3.98 3.41zm129.21 59.91a3.724 3.724 0 0 1-3.59 3.8 3.68 3.68 0 0 1-3.97-4.17 3.768 3.768 0 0 1 3.97-3.42 3.715 3.715 0 0 1 3.59 3.79zm161.95-41.03c.37 2.1-.74 2.44-2.53 2.39-3.37-.11-4.79-1.07-5.04-3.71-.13-1.4 3.14-4.05 4.82-3.91 1.59.14 2.82 2.47 2.75 5.23zm-19.67-9.39c.04-3.37 1.1-4.75 3.78-4.94 1.5-.1 4.03 3.19 3.78 4.94-.21 1.48-2.7 2.53-5.33 2.7-2.28.15-2.38-1.07-2.23-2.7zm-.01 15.73a3.769 3.769 0 0 1 3.41-3.98 3.8 3.8 0 1 1 .38 7.58 3.723 3.723 0 0 1-3.79-3.6zm-137.73 10.58a9.743 9.743 0 0 1 .04-2.66c.48-1.38 1.42-2.87 2.92-2.69a7.175 7.175 0 0 1 4.24 2 3.043 3.043 0 0 1-.35 3.94c-.99 1.14-4.75 2.2-6.01 1.52a1.885 1.885 0 0 1-.84-2.11zm-116.54-7.93a3.762 3.762 0 0 1-3.4 3.98 3.8 3.8 0 1 1 3.4-3.98zm242.17-10.76c.03-3.38 1.09-4.79 3.74-4.98 1.5-.1 4.04 3.15 3.82 4.91-.18 1.5-2.64 2.75-5.29 2.68-2.25-.06-2.3-.11-2.27-2.61zm-121.84-3.46a3.8 3.8 0 1 1-.38 7.59 3.783 3.783 0 0 1-3.41-3.98 3.719 3.719 0 0 1 3.79-3.61zm-2.27 55.11a3.737 3.737 0 0 1 3.84-3.54 3.807 3.807 0 1 1-.5 7.59 3.782 3.782 0 0 1-3.34-4.05zm127.51-39.94a3.835 3.835 0 0 1 4.16 3.22 3.756 3.756 0 0 1-3.78 4.36 3.708 3.708 0 0 1-3.78-3.6 3.775 3.775 0 0 1 3.4-3.98zm-54.11 12.13a3.8 3.8 0 1 1-.37 7.59 3.775 3.775 0 0 1-3.41-3.98 3.723 3.723 0 0 1 3.78-3.61zm29.52-12.56c-.04 3.39-1.09 4.79-3.75 4.98-1.5.11-4.03-3.14-3.82-4.9.18-1.5 2.64-2.75 5.3-2.68 2.25.05 2.29.1 2.27 2.6zm-83.81 50.48a3.775 3.775 0 0 1-3.98-3.41 3.794 3.794 0 1 1 3.98 3.41zm91.94-28.82a3.774 3.774 0 0 1 3.97 3.42 3.79 3.79 0 1 1-7.56.38 3.724 3.724 0 0 1 3.59-3.8zm-41.43 11.13a3.792 3.792 0 1 1 3.34 4.04 3.774 3.774 0 0 1-3.34-4.04zm-6.05 6.32a3.795 3.795 0 1 1-7.57-.38 3.76 3.76 0 0 1 3.97-3.41 3.717 3.717 0 0 1 3.6 3.79zm3.02 10.81a3.779 3.779 0 0 1 3.41-3.99 3.8 3.8 0 1 1-3.41 3.99zm32.35-35.84a3.775 3.775 0 0 1 3.98 3.41 3.794 3.794 0 1 1-3.98-3.41zm-13.1 33.37c-1.68.18-2.72-.06-2.66-2.28.11-3.95 1.08-5.39 4.21-5.3.89.02 3.44 3.43 3.42 4.57-.03 1.67-2.2 2.98-4.97 3.01zm-56.07-22.75c-1.8.24-2.64-.26-2.58-2.35.09-3.85 1.23-5.43 4.28-5.24.91.06 3.38 3.51 3.34 4.65-.07 1.68-2.22 2.94-5.04 2.94zm-73.66-73.2c-.14-1.63-.05-2.77 2.23-2.7 3.99.12 5.38 1.02 5.33 4.18-.01.95-3.31 3.48-4.52 3.46-1.68-.01-3.01-2.16-3.04-4.94zm27.24-2.14a3.792 3.792 0 1 1 3.34 4.05 3.783 3.783 0 0 1-3.34-4.05zm-4.54 20.73a3.987 3.987 0 0 1 3.03 4.36 4.128 4.128 0 0 1-4.92 3.23 4.432 4.432 0 0 1-2.65-4.74 4.25 4.25 0 0 1 4.54-2.85zm-6.06 20.86a3.847 3.847 0 0 1 3.22-4.17 3.759 3.759 0 0 1 4.35 3.79 3.717 3.717 0 0 1-3.6 3.79 3.772 3.772 0 0 1-3.97-3.41zm.7 14.03a3.724 3.724 0 0 1 3.84 3.54 3.58 3.58 0 0 1-4.1 4.04 3.747 3.747 0 0 1-3.46-3.91 3.69 3.69 0 0 1 3.72-3.67zm-1.2-66.74a3.8 3.8 0 1 1-4.04 3.35 3.788 3.788 0 0 1 4.04-3.35zm-9.08 40.95a3.747 3.747 0 0 1 3.53 3.86 3.8 3.8 0 1 1-7.57-.5 3.788 3.788 0 0 1 4.04-3.36zm-60.42-6.06a3.775 3.775 0 0 1 3.41 3.98 3.715 3.715 0 0 1-3.78 3.6 3.767 3.767 0 0 1-3.79-4.36 3.847 3.847 0 0 1 4.16-3.22zm45.79-11.71c.17 1.68-.06 2.73-2.27 2.67-3.95-.12-5.38-1.09-5.3-4.22.02-.89 3.42-3.44 4.56-3.43 1.67.03 2.98 2.2 3.01 4.98zm97.3 63.28c1.83-.25 2.77.23 2.64 2.4-.17 2.95-1.35 5.29-3.01 5.18-1.1-.07-4.43-3.26-4.61-4.42-.25-1.63 2.11-3.13 4.98-3.16zm19.24-29.91c-.2.97.58 2.63-1.51 2.6-1.94-.03-3.97.53-5.44-1.57-.92-1.32-.77-2.19.31-3.15.19-.17.34-.38.54-.53 1.14-.85 1.71-2.63 3.58-2.32 1.2.2 2.47 2.72 2.52 4.97zm66.59-54.47c.36 2.06-.58 2.61-2.52 2.51-2.9-.16-5.25-1.49-5.04-3.13.14-1.17 3.39-4.38 4.54-4.49 1.65-.17 3.03 2.18 3.02 5.11zm-114.73 38.87c.96.23 2.46-.64 2.76 1.39.32 2.24-.62 5.23-2.07 5.98s-2.27-.27-3.12-1.16c-.35-.37-.73-.71-1.07-1.08-1.7-1.84-1.15-4.44 1.14-5.09a9.178 9.178 0 0 1 2.36-.04zm-13.91-9.6c-.32-1.95.41-2.69 2.46-2.57 2.92.16 5.26 1.42 5.1 3.07-.11 1.15-3.32 4.41-4.48 4.55-1.64.21-3.08-2.14-3.08-5.05zm-15.14 10.01c.03-3.64.03-3.58 3.75-3.47 1.41.04 2.44.14 2.32 1.92a13.673 13.673 0 0 0 .01 3c.36 2.52-.96 2.78-3.03 2.76-2-.03-3.49-.12-3.06-2.71a9.383 9.383 0 0 0 .01-1.5zm-9.08-20.85c0 3.92-.26 4.13-4.19 3.78-1.06-.1-1.95-.18-1.88-1.59a17.679 17.679 0 0 0 0-3c-.25-2.08.18-3.21 2.7-3.07 3.3.17 3.31-.01 3.37 3.13v.75zm139.24 20.74c-.22.96.64 2.47-1.38 2.76-2.23.33-5.22-.62-5.96-2.07s.26-2.28 1.15-3.13c.37-.35.71-.72 1.08-1.07 1.83-1.71 4.43-1.16 5.08 1.14a9.285 9.285 0 0 1 .03 2.37zm25.73-28.61c.31 1.95-.42 2.69-2.46 2.57-2.92-.16-5.27-1.42-5.11-3.07.12-1.15 3.32-4.41 4.48-4.55 1.65-.21 3.08 2.13 3.09 5.05zm15.43-20.22c.86 0 1.61.04 2.36-.01 2.56-.16 1.85 1.73 1.86 3.06.02 1.36.66 3.23-1.91 3.02a11.973 11.973 0 0 0-2.24.01c-2.3.24-3.52.03-3.56-3.07-.05-3.26 1.4-3.22 3.49-3.01zm-21.16 31.38c-.12.59-.91-1.07 1.19-1.04 1.93.03 3.96-.54 5.43 1.56.92 1.33.78 2.2-.31 3.16-.19.17-.34.38-.54.53-1.14.85-1.81 2.9-3.54 2.25-2.01-.75-2.95-2.52-2.23-6.46zm-183.36-29.99c2.28.24 3.54-.23 4.55.95.98 1.14 2.29 2.1.7 3.68a5.394 5.394 0 0 1-.54.53c-1.34.9-1.99 3.39-4.15 2.35-2-.95-2.29-2.91-2.26-5.11.03-2.26 1.04-2.54 1.7-2.4zm-91.01 74.57c-2.28-.24-3.54.23-4.55-.95-.98-1.14-2.29-2.09-.69-3.68a4.422 4.422 0 0 1 .53-.53c1.34-.9 2-3.39 4.16-2.35 1.99.96 2.28 2.91 2.25 5.11-.03 2.26-1.03 2.54-1.7 2.4zm227.13 2.15c.1 1.47-2.43 3.84-4.35 3.74-1.94-.09-3.05-1.36-3.22-3.36a3.8 3.8 0 1 1 7.57-.38zm-96.43-49.29c.96.19 2.61-.58 2.58 1.52-.03 1.93.54 3.97-1.56 5.44-1.32.92-2.19.76-3.16-.31-.5-.57-1.08-1.06-1.59-1.62a2.925 2.925 0 0 1 1.35-5 9.847 9.847 0 0 1 2.38-.03zm-115.57 24.39c-2.27-.24-3.53.23-4.54-.95-.99-1.14-2.3-2.09-.7-3.68a3.86 3.86 0 0 1 .54-.53c1.34-.9 1.99-3.39 4.15-2.35 2 .95 2.29 2.91 2.25 5.11-.03 2.26-1.02 2.54-1.7 2.4zm231.67 10.2c.23-.97-.63-2.47 1.39-2.77 2.23-.32 5.21.62 5.96 2.08s-.26 2.27-1.16 3.13c-.36.34-.7.72-1.07 1.06-1.84 1.71-4.44 1.16-5.09-1.14a9.682 9.682 0 0 1-.03-2.36zm-266.37-.27c-.36-2.05.57-2.61 2.52-2.51 2.9.16 5.25 1.48 5.04 3.13-.14 1.17-3.39 4.38-4.54 4.49-1.65.17-3.03-2.18-3.02-5.11zm71.88-46.46c2.39-.46 2.34 1.08 2.29 2.72-.1 2.85-1.67 5.22-3.29 4.87-1.22-.27-4.28-3.65-4.29-4.74-.01-1.63 2.39-2.92 5.29-2.85zm-9.83-6.95c.4 2.17-.76 2.52-2.59 2.43-2.86-.14-5.23-1.56-4.98-3.19.18-1.16 3.51-4.35 4.61-4.42 1.66-.11 2.99 2.22 2.96 5.18zm81.29 78.24c-.96-.19-2.61.58-2.58-1.52.03-1.94-.53-3.97 1.56-5.44 1.32-.93 2.19-.76 3.16.31.5.56 1.08 1.06 1.59 1.62a2.926 2.926 0 0 1-1.35 5 9.847 9.847 0 0 1-2.38.03zm-99.45-.77c.2 2.11-1.16 3.26-2.82 3.73-1.42.4-5.25-3.65-4.68-4.87.7-1.53 1.76-2.93 3.93-2.67a3.867 3.867 0 0 1 3.57 3.81zm143.02 15.94a20.9 20.9 0 0 0 2.24-.02 1.272 1.272 0 0 1 1.53 1.15 4.082 4.082 0 0 1-1.8 4.46c-1.13.75-5.31.71-5.47-.08a14.959 14.959 0 0 1-.23-4.38c.1-1.14.3-1.13 3.73-1.13zm-86.29-91.01c1.92.08 4.35-.73 3.83 2.7-.24 1.55.72 3.55-2.32 3.43-3.88-.15-5.32-1.11-5.26-4.32.06-3.17 2.53-1.27 3.75-1.81zm211.14 31.79c.21 1.91.14 3.38-2.54 3.15-2.81-.24-4.98-1.35-5.01-3.04s2.14-2.89 4.92-3.12c2.48-.21 2.98.95 2.63 3.01zm-15.12-39.66c-.37-2.08.46-3.06 2.77-2.77 1.57.2 3.54-.61 3.34 2.37-.19 2.88-1.12 5.05-2.81 5.24-1.74.19-3.2-1.89-3.3-4.84zm-12.95 16.94c2.2-.44 2.55.94 2.38 3-.22 2.83-1.74 5.12-3.39 4.57-2.51-.83-2.7-2.91-2.76-5.29-.09-3.09 1.96-2.07 3.77-2.28zm-14.95-7.59c1.81.21 3.85-.81 3.77 2.28-.07 2.38-.26 4.47-2.76 5.3-1.66.54-3.18-1.74-3.4-4.57-.16-2.06.18-3.44 2.39-3.01zm-14.46 27.43c-.18-1.88-.19-3.41 2.53-3.18 2.81.25 4.98 1.33 5.02 3.02s-2.16 2.91-4.9 3.15c-2.46.21-3-.92-2.65-2.99zm2.26 16.6c-1.33-.48-3.78 1.31-3.78-1.85-.01-2.62 1.44-4.22 3.78-4.22s3.77 1.6 3.78 4.22c.01 1.84.01 1.84-3.78 1.85zm-138.87-18.19c-1.39-.57-3.6 1.37-4.18-1.51-.41-2.03.63-3.35 2.09-4.31 1.42-.94 3.92.01 5.07 1.56a3.6 3.6 0 0 1 .29 3.48c-.53 1.36-2.16.58-3.27.78zm193.54-7.58c-2.26.45-2.65-.9-2.48-2.98.22-2.83 1.65-4.92 3.4-4.62 1.56.26 2.56 2.61 2.73 5.32.19 3.06-1.9 2.11-3.65 2.28zm-52.39 72.33c-.11 1.74.68 3.73-2.32 3.54-2.8-.17-5.04-1.14-5.26-2.79-.24-1.74 1.85-3.14 4.67-3.36 2.12-.16 3.34.36 2.91 2.61zm-27.83-54.17c1.76.17 3.84-.78 3.65 2.28-.17 2.71-1.16 5.06-2.73 5.32-1.74.3-3.18-1.79-3.4-4.62-.16-2.08.22-3.43 2.48-2.98zm-129.59 10.25c-.44-2.32.77-2.84 2.9-2.67 2.82.22 4.9 1.61 4.67 3.36-.23 1.65-2.45 2.8-5.27 2.73-2.32-.05-2.36-.11-2.3-3.42zm74.19 22.5c-.15 3.4-1.82 5.72-3.45 5.15-2.53-.87-2.63-3-2.7-5.35-.09-3.13 2.04-1.98 3.51-2.19 2.38-.33 3.3.65 2.64 2.39zm43.86-4.67c.43 3.05-1.81 2.15-3.35 2.27-2.27.19-3.83-.85-4.15-3.05-.28-1.91 2.44-3.26 5.66-3.01 1.84.14 2.02.52 1.84 3.79zm-28.3 46.27c-1.73-.1-3.72.68-3.53-2.32.18-2.8 1.14-5.05 2.78-5.27 1.74-.23 3.13 1.86 3.35 4.68.17 2.13-.35 3.35-2.6 2.91zm-8.03-48.95c-.42-2.22.71-2.83 2.88-2.66 2.8.22 4.89 1.59 4.7 3.33-.19 1.7-2.36 2.64-5.23 2.83-2.97.19-2.25-1.77-2.35-3.5zm1.24-10.21c-2.08.37-3.06-.45-2.76-2.77.19-1.58-.62-3.55 2.35-3.35 2.88.18 5.04 1.12 5.23 2.82.2 1.74-1.88 3.2-4.82 3.3zm-97.34-47.02c3.04-.43 2.06 1.83 2.29 3.36.36 2.43-.85 2.9-2.95 2.73-2.83-.22-4.91-1.64-4.63-3.39.25-1.6 2.54-2.77 5.29-2.7zm88.54 82.46c.49 2.45-1.02 2.55-3.01 2.53-1.94-.01-3.31-.03-3.09-2.64.24-2.79 1.39-4.99 3.06-4.99s3.01 2.16 3.04 5.1zm-7.56-33.16c-.43-3.05 1.81-2.15 3.35-2.28 2.27-.19 3.83.86 4.15 3.06.28 1.9-2.44 3.26-5.66 3.01-1.83-.15-2.02-.53-1.84-3.79zm-124.1-9.89c-.31-2.01.07-3.27 2.61-3.05 2.77.23 4.95 1.41 4.94 3.09s-2.2 2.83-4.98 3.07c-2.59.22-2.83-1.14-2.57-3.11zm34.83-2.34c.44 2.21-.94 2.55-3 2.39-2.82-.22-5.1-1.75-4.55-3.41.82-2.51 2.9-2.7 5.28-2.76 3.08-.08 2.06 1.97 2.27 3.78zm-3.04-19.44c-.17 1.75.78 3.85-2.28 3.65-2.7-.17-5.04-1.16-5.31-2.73-.29-1.75 1.79-3.19 4.62-3.41 2.08-.16 3.42.22 2.97 2.49zm-32.74-2.49c2.25-.44 2.64.9 2.48 2.98-.23 2.84-1.66 4.92-3.4 4.63-1.57-.26-2.56-2.62-2.73-5.32-.2-3.07 1.89-2.11 3.65-2.29zm20.64 27.35c2.01-.32 3.26.06 3.04 2.6-.23 2.79-1.4 4.97-3.08 4.96s-2.83-2.21-3.06-4.99c-.22-2.6 1.13-2.84 3.1-2.57zm-62.08-15.95c-.43-3.05 1.82-2.14 3.35-2.27 2.27-.19 3.83.86 4.16 3.06.28 1.9-2.45 3.26-5.67 3-1.83-.14-2.02-.52-1.84-3.79zm22.72 40.21c2.02-.31 3.27.07 3.05 2.61-.23 2.78-1.4 4.96-3.08 4.96s-2.83-2.21-3.06-4.99c-.22-2.6 1.13-2.85 3.09-2.58zm286.62-72.82c2.5-.49 2.47 1.11 2.5 3.05.02 2-.13 3.28-2.68 3.07-2.77-.24-4.95-1.42-4.95-3.1s2.19-3 5.13-3.02zm-292.7 40.95c2.77.12 5.1 1.78 4.48 3.39a3.685 3.685 0 0 1-3.76 2.71c-2.28-.12-3.66-1.66-3.76-4.25-.09-2.56 1.74-1.71 3.04-1.85zm258.82 32.5c-.19-1.3.12-2.23 1.85-2.18 2.59.09 4.2 1.48 4.2 3.78.01 2.03-1.84 4.11-3.4 3.82-1.54-.28-2.72-2.62-2.65-5.42zm-67.73 34.24c1.99-.18 4.53 1.67 4.1 3.21a3.6 3.6 0 0 1-3.72 2.9 3.651 3.651 0 0 1-3.73-2.9c-.39-1.25 1.66-3.05 3.35-3.21z" transform="translate(-1700.03 -1741)"/></svg>