<?xml version="1.0" encoding="iso-8859-1"?>
<!-- Generator: Adobe Illustrator 16.0.3, SVG Export Plug-In . SVG Version: 6.00 Build 0)  -->
<!DOCTYPE svg PUBLIC "-//W3C//DTD SVG 1.1//EN" "http://www.w3.org/Graphics/SVG/1.1/DTD/svg11.dtd" [
	<!ENTITY ns_flows "http://ns.adobe.com/Flows/1.0/">
	<!ENTITY ns_extend "http://ns.adobe.com/Extensibility/1.0/">
	<!ENTITY ns_ai "http://ns.adobe.com/AdobeIllustrator/10.0/">
	<!ENTITY ns_graphs "http://ns.adobe.com/Graphs/1.0/">
]>
<svg version="1.1" id="Layer_1" xmlns:x="&ns_extend;" xmlns:i="&ns_ai;" xmlns:graph="&ns_graphs;"
	 xmlns="http://www.w3.org/2000/svg" xmlns:xlink="http://www.w3.org/1999/xlink" xmlns:a="http://ns.adobe.com/AdobeSVGViewerExtensions/3.0/"
	 x="0px" y="0px" width="100px" height="42px" viewBox="0 0 100 42" style="enable-background:new 0 0 100 42;"
	 xml:space="preserve">
<path d="M44.129,32.166c-0.075,1.962-0.151,3.992-0.947,5.679c-0.892,2.041-2.959,3.201-6.322,3.549
	c-0.047,0.007-0.783,0.054-1.506,0.001c0-0.093,0-40.739,0-40.836c0.097,0,3.051,0,3.051,0V0h-0.049H27.419l0.002,0.565
	c0,0,2.962,0,3.001,0c0,0.097,0,40.732,0,40.83c-0.098,0-3.039,0-3.039,0v0.603h17.128V31.142h-0.341L44.129,32.166z"/>
<path d="M73.143,32.166c-0.074,1.962-0.15,3.992-0.947,5.679c-0.892,2.041-2.959,3.201-6.321,3.549
	c-0.048,0.007-0.784,0.054-1.508,0.001c0-0.093,0-40.739,0-40.836c0.097,0,3.053,0,3.053,0V0h-0.051H56.432l0.002,0.565
	c0,0,2.962,0,3.002,0c0,0.097,0,40.732,0,40.83c-0.098,0-3.039,0-3.039,0v0.603h17.128V31.142h-0.341L73.143,32.166z"/>
<path d="M16.746,32.195c-0.074,1.963-0.15,3.991-0.947,5.68c-1.167,2.669-4.167,3.275-6.321,3.498c-0.048,0.006-0.782,0.053-1.508,0
	c0-0.093,0-20.182,0-20.278c0.693-0.01,1.807,0.068,2.069,0.132c1.066,0.219,2.019,1.264,2.323,2.149
	c0.462,1.35,0.493,2.825,0.526,4.387l0.021,0.879h0.353V13.188h-0.353l-0.021,0.879c-0.033,1.562-0.064,3.037-0.526,4.387
	c-0.348,1.011-1.346,1.925-2.321,2.124c-0.256,0.063-1.354,0.159-2.071,0.155c0-0.095,0-19.998,0-20.09
	c0.724-0.053,1.46-0.006,1.504,0c2.238,0.232,5.149,1.072,6.324,3.763c0.797,1.689,0.874,3.718,0.948,5.681l0.042,1.024l0.323,0
	V0.006L0.036,0.005v0.049l0.002,0.544c0,0,2.917,0,2.918,0c0,0.001,0.048,0.012,0.083,0.021c0,0.076,0,40.656,0,40.753
	c-0.097,0-3.039,0-3.039,0v0.62h17.128V31.171h-0.34L16.746,32.195z"/>
<path d="M99.66,31.18l-0.042,1.024c-0.073,1.962-0.15,3.991-0.946,5.679c-1.166,2.67-4.167,3.275-6.322,3.498
	c-0.048,0.007-0.783,0.054-1.507,0c0-0.093,0-20.182,0-20.277c0.693-0.01,1.808,0.068,2.069,0.132
	c1.067,0.219,2.018,1.264,2.323,2.149c0.461,1.35,0.494,2.824,0.526,4.386l0.021,0.881l0.353,0V13.196h-0.353l-0.021,0.88
	c-0.032,1.562-0.064,3.037-0.526,4.386c-0.348,1.011-1.346,1.924-2.321,2.124c-0.256,0.062-1.355,0.159-2.071,0.155
	c0-0.095,0-19.997,0-20.09c0.724-0.053,1.459-0.006,1.503,0c2.238,0.232,5.148,1.073,6.324,3.763
	c0.797,1.689,0.874,3.718,0.947,5.68l0.042,1.025l0.323,0V0.014L82.908,0.014v0.049l0.002,0.544c0,0,2.916,0,2.918,0
	c0,0.001,0.046,0.012,0.083,0.021c0,0.076,0,40.656,0,40.753c-0.097,0-3.039,0-3.039,0V42H100v-10.82L99.66,31.18z"/>
<path d="M69.74,17.159h1.886c0.414,0,2.008,0.107,2.008,1.839c0,0.837-0.475,1.722-2.22,1.83l2.502,3.144h-0.807l-2.421-3.134
	h-0.262v3.134H69.74V17.159z M71.132,20.293c1.583,0,1.796-0.749,1.796-1.294c0-1.129-0.817-1.294-1.635-1.294h-0.867v2.589H71.132z
	"/>
<path d="M79.837,17.159v4.273c0,0.554-0.061,2.734-2.501,2.734c-2.441,0-2.502-2.18-2.502-2.734v-4.273h0.686v4.37
	c0,0.262,0.02,2.092,1.816,2.092c1.795,0,1.816-1.83,1.816-2.092v-4.37H79.837z"/>
</svg>
