<?xml version="1.0" encoding="iso-8859-1"?>
<!-- Generator: Adobe Illustrator 16.0.3, SVG Export Plug-In . SVG Version: 6.00 Build 0)  -->
<!DOCTYPE svg PUBLIC "-//W3C//DTD SVG 1.1//EN" "http://www.w3.org/Graphics/SVG/1.1/DTD/svg11.dtd" [
	<!ENTITY ns_flows "http://ns.adobe.com/Flows/1.0/">
	<!ENTITY ns_extend "http://ns.adobe.com/Extensibility/1.0/">
	<!ENTITY ns_ai "http://ns.adobe.com/AdobeIllustrator/10.0/">
	<!ENTITY ns_graphs "http://ns.adobe.com/Graphs/1.0/">
]>
<svg version="1.1" id="Layer_1" xmlns:x="&ns_extend;" xmlns:i="&ns_ai;" xmlns:graph="&ns_graphs;"
	 xmlns="http://www.w3.org/2000/svg" xmlns:xlink="http://www.w3.org/1999/xlink" xmlns:a="http://ns.adobe.com/AdobeSVGViewerExtensions/3.0/"
	 x="0px" y="0px" width="218.996px" height="31.997px" viewBox="0 0 218.996 31.997"
	 style="enable-background:new 0 0 218.996 31.997;" xml:space="preserve">
<path style="fill-rule:evenodd;clip-rule:evenodd;" d="M217.37,8.226c-1.036-1.469-2.277-2.683-3.569-3.827
	c-5.667-5.02-11.009-5.241-17.091-2.837c-2.962,1.17-5.258,3.109-6.773,5.437c-1.616,2.483-3.189,5.258-2.785,8.681
	c0.472,3.997-4.248,8.35-9.4,7.128c-1.591-0.377-2.981-1.663-4.169-2.986c-0.895-0.996-0.355-2.049-0.554-3.058
	c-0.397-2.018-0.583-4.102-1.223-6.042c-1.17-3.54-3.896-6.157-6.85-8.128c-2.127-1.42-4.753-2.644-7.636-2.594
	c-5.677,0.098-10.579,2.032-13.845,6.594c-1.744,2.435-3.549,5.179-3.039,8.546c0.405,2.675-1.046,4.566-2.969,6.132
	c-2.076,1.692-4.458,2.234-7.06,1.202c-2.563-1.017-3.761-2.883-4.242-5.575c-0.22-1.233-0.384-2.478-0.626-3.712
	c-0.103-1.701-0.454-3.372-1.575-4.962c-1.036-1.469-2.277-2.683-3.569-3.827c-0.469-0.415-0.935-0.786-1.399-1.136
	c-4.375-3.662-10.695-4.197-16.016-1.651c-0.621,0.297-1.209,0.62-1.77,0.965c-1.448,0.845-2.676,1.901-3.681,3.094
	c-1.741,1.957-2.973,4.288-3.692,6.957c-0.391,1.448-0.663,3.063-0.146,4.53c-0.642,3.504-4.826,6.722-9.346,5.65
	c-1.591-0.377-2.98-1.663-4.169-2.986c-0.895-0.996-0.354-2.049-0.553-3.058c-0.397-2.018-0.583-4.102-1.224-6.042
	c-1.17-3.54-3.896-6.157-6.849-8.128c-2.127-1.42-4.753-2.644-7.637-2.594c-5.676,0.098-10.578,2.032-13.845,6.594
	c-1.744,2.435-3.549,5.179-3.039,8.546c0.405,2.675-1.046,4.566-2.969,6.132c-2.076,1.692-4.458,2.234-7.06,1.202
	c-2.563-1.017-3.761-2.883-4.242-5.575c-0.508-2.849-0.688-5.766-2.328-8.451c-1.104-1.809-2.621-3.062-4.034-4.455
	C22.019-0.322,15.23-1.095,9.573,1.612C4.722,3.934,1.749,7.738,0.431,12.628c-0.624,2.313-0.946,5.055,1.769,6.934
	c1.702,1.178,4.02,1.29,5.428-0.226c1.088-1.171,1.772-2.48,1.842-4.163c0.13-3.146,3.033-5.738,6.29-6.207
	c3.588-0.517,8.109,3.59,7.833,6.804c-0.247,2.879,0.536,5.404,1.993,7.788c3.145,5.148,7.646,8.175,13.885,8.377
	c1.94,0.078,3.745-0.132,5.558-0.836c3.677-1.426,6.707-3.508,8.682-6.953c1.573-2.741,1.93-5.816,2.445-8.795
	c0.636-3.677,3.226-6.288,7.039-6.342c0.932-0.013,1.761,0.349,2.639,0.635c1.626,0.53,2.653,1.681,3.334,2.795
	c0.748,1.222,1.496,2.751,1.252,4.369c-0.326,2.165,0.237,4.261,1.284,6.006c2.12,3.532,5.039,6.355,8.972,8.097
	c3.25,1.438,6.532,1.274,9.834,0.514c5.067-1.167,8.354-4.526,10.682-8.853c0.587-1.092,0.889-2.35,1.097-3.663
	c0.127-0.8,0.251-1.606,0.385-2.412c0.082-0.31,0.138-0.635,0.17-0.975c0.136-0.75,0.283-1.497,0.462-2.235
	c0.698-1.677,2.179-3.045,3.956-3.788c0.432-0.152,0.868-0.289,1.299-0.409c0.225-0.063,0.45-0.102,0.676-0.128
	c0.066-0.008,0.134-0.008,0.201-0.013c0.188-0.013,0.375-0.023,0.563-0.014c0.014,0,0.028,0.003,0.042,0.003
	c0.696,0.039,1.387,0.222,2.056,0.492c2.015,0.844,3.855,2.63,4.583,4.466c0.002,0.007,0.005,0.014,0.008,0.021
	c0.027,0.07,0.043,0.139,0.067,0.209c0.065,0.213,0.123,0.429,0.172,0.648c0.064,0.338,0.097,0.673,0.069,0.998
	c-0.247,2.879,0.536,5.404,1.993,7.788c3.145,5.148,7.646,8.175,13.884,8.377c1.94,0.078,3.745-0.132,5.558-0.836
	c3.677-1.426,6.708-3.508,8.683-6.953c1.572-2.741,1.93-5.816,2.445-8.795c0.636-3.677,3.226-6.288,7.039-6.342
	c0.933-0.013,1.762,0.349,2.639,0.635c1.626,0.53,2.653,1.681,3.335,2.795c0.748,1.222,1.495,2.751,1.252,4.369
	c-0.325,2.165,0.237,4.261,1.284,6.006c2.121,3.532,5.039,6.355,8.972,8.097c3.25,1.438,6.532,1.274,9.834,0.514
	c5.067-1.167,8.354-4.526,10.682-8.853c0.587-1.092,0.889-2.35,1.097-3.663c0.299-1.888,0.573-3.813,1.03-5.683
	c0.644-2.632,3.039-3.523,5.242-4.136c1.924-0.535,3.925,0.343,5.583,1.44c2.155,1.427,2.897,3.693,3.041,6.089
	c0.117,1.933,1.418,2.962,2.857,3.635c1.72,0.804,3.319-0.23,4.776-1.139c0.442-0.275,0.797-0.67,0.77-1.316
	C218.862,14.545,219.496,11.241,217.37,8.226z"/>
</svg>
