<svg xmlns="http://www.w3.org/2000/svg" width="32" height="186" viewBox="0 0 32 186"><defs><style>.cls-1{fill-rule:evenodd}</style></defs><path id="line" class="cls-1" d="M494.068 1873.47c.2-6.24 3.229-10.74 8.377-13.88a12.438 12.438 0 0 1 7.788-1.99c3.214.27 7.321-4.25 6.8-7.84-.469-3.26-3.061-6.16-6.207-6.29a6.271 6.271 0 0 1-4.163-1.84 4.147 4.147 0 0 1-.226-5.43c1.879-2.71 4.62-2.39 6.934-1.77a16.479 16.479 0 0 1 11.016 9.15c2.707 5.65 1.933 12.44-2.382 16.82a23.751 23.751 0 0 1-4.454 4.03c-2.686 1.64-5.6 1.82-8.452 2.33-2.692.48-4.558 1.68-5.575 4.24a6.682 6.682 0 0 0 1.2 7.06c1.566 1.92 3.457 3.38 6.132 2.97 3.367-.51 6.111 1.3 8.546 3.04 4.561 3.27 6.5 8.17 6.594 13.84a13.561 13.561 0 0 1-2.594 7.64c-1.971 2.95-4.588 5.68-8.128 6.85a48.667 48.667 0 0 1-6.042 1.22c-1.009.2-2.061-.34-3.058.56a8.934 8.934 0 0 0-2.985 4.17c-1.223 5.15 3.131 9.87 7.128 9.4 3.423-.41 6.2 1.17 8.681 2.78a14.24 14.24 0 0 1 5.437 6.78c2.4 6.08 2.182 11.42-2.837 17.09a22.722 22.722 0 0 1-3.827 3.57c-3.016 2.12-6.319 1.49-9.572 1.62a1.416 1.416 0 0 1-1.315-.77c-.909-1.46-1.943-3.06-1.14-4.78a4.254 4.254 0 0 1 3.635-2.85c2.4-.15 4.662-.89 6.089-3.04 1.1-1.66 1.975-3.66 1.44-5.59-.614-2.2-1.5-4.59-4.136-5.24-1.869-.46-3.8-.73-5.683-1.03a11.481 11.481 0 0 1-3.663-1.1c-4.326-2.32-7.686-5.61-8.853-10.68a15.108 15.108 0 0 1 .514-9.83 19.621 19.621 0 0 1 8.1-8.97 9.075 9.075 0 0 1 6.006-1.29 6.627 6.627 0 0 0 4.368-1.25 6.166 6.166 0 0 0 2.8-3.33 8.182 8.182 0 0 0 .634-2.64c-.054-3.82-2.665-6.41-6.342-7.04-2.979-.52-6.054-.87-8.795-2.45a16.084 16.084 0 0 1-6.953-8.68 13.443 13.443 0 0 1-.837-5.56zm0 93.41c.2-6.24 3.229-10.74 8.377-13.89a12.5 12.5 0 0 1 7.788-1.99c3.214.28 7.321-4.24 6.8-7.83-.469-3.26-3.061-6.16-6.207-6.29a6.318 6.318 0 0 1-4.163-1.84 4.147 4.147 0 0 1-.226-5.43c1.879-2.72 4.62-2.4 6.934-1.77a16.491 16.491 0 0 1 11.016 9.14c2.707 5.66 1.933 12.45-2.382 16.82a23.46 23.46 0 0 1-4.454 4.04c-2.686 1.64-5.6 1.82-8.452 2.33-2.692.48-4.558 1.68-5.575 4.24a6.686 6.686 0 0 0 1.2 7.06c1.566 1.92 3.457 3.37 6.132 2.97 3.367-.51 6.111 1.29 8.546 3.04 4.561 3.26 6.5 8.16 6.594 13.84a13.587 13.587 0 0 1-2.594 7.64c-1.971 2.95-4.588 5.68-8.128 6.85a50.566 50.566 0 0 1-6.042 1.22c-1.009.2-2.061-.34-3.058.55a8.934 8.934 0 0 0-2.985 4.17c-1.223 5.16 3.131 9.88 7.128 9.4 3.423-.4 6.2 1.17 8.681 2.79a14.213 14.213 0 0 1 5.437 6.77c2.4 6.08 2.182 11.43-2.837 17.09a22.32 22.32 0 0 1-3.827 3.57c-3.016 2.13-6.319 1.49-9.572 1.63a1.433 1.433 0 0 1-1.315-.77c-.909-1.46-1.943-3.06-1.14-4.78a4.264 4.264 0 0 1 3.635-2.86c2.4-.14 4.662-.88 6.089-3.04 1.1-1.66 1.975-3.66 1.44-5.58-.614-2.2-1.5-4.6-4.136-5.24-1.869-.46-3.8-.73-5.683-1.03a11.481 11.481 0 0 1-3.663-1.1c-4.326-2.33-7.686-5.61-8.853-10.68a15.108 15.108 0 0 1 .514-9.83 19.6 19.6 0 0 1 8.1-8.98 9.07 9.07 0 0 1 6.006-1.28 6.684 6.684 0 0 0 4.368-1.25 6.153 6.153 0 0 0 2.8-3.34 8.12 8.12 0 0 0 .634-2.64c-.054-3.81-2.665-6.4-6.342-7.04-2.979-.51-6.054-.87-8.795-2.44a16.156 16.156 0 0 1-6.953-8.68 13.468 13.468 0 0 1-.837-5.56z" transform="translate(-494 -1834)"/></svg>