<?xml version="1.0" encoding="iso-8859-1"?>
<!-- Generator: Adobe Illustrator 16.0.3, SVG Export Plug-In . SVG Version: 6.00 Build 0)  -->
<!DOCTYPE svg PUBLIC "-//W3C//DTD SVG 1.1//EN" "http://www.w3.org/Graphics/SVG/1.1/DTD/svg11.dtd" [
	<!ENTITY ns_flows "http://ns.adobe.com/Flows/1.0/">
	<!ENTITY ns_extend "http://ns.adobe.com/Extensibility/1.0/">
	<!ENTITY ns_ai "http://ns.adobe.com/AdobeIllustrator/10.0/">
	<!ENTITY ns_graphs "http://ns.adobe.com/Graphs/1.0/">
]>
<svg version="1.1" id="Layer_1" xmlns:x="&ns_extend;" xmlns:i="&ns_ai;" xmlns:graph="&ns_graphs;"
	 xmlns="http://www.w3.org/2000/svg" xmlns:xlink="http://www.w3.org/1999/xlink" xmlns:a="http://ns.adobe.com/AdobeSVGViewerExtensions/3.0/"
	 x="0px" y="0px" width="99.999px" height="51.999px" viewBox="0 0 99.999 51.999"
	 style="enable-background:new 0 0 99.999 51.999;" xml:space="preserve">
<path d="M61.314,26.635c0,5.312,2.546,8.017,5.904,8.017c4.651,0,6.031-4.906,6.031-8.441c0-5.056-2.603-10.864-2.603-16.701
	c0-3.732,1.284-7.149,5.691-9.484c0.163-0.089,0.318,0.066,0.167,0.224c-1.527,1.578-2.331,3.991-2.331,7.005
	c0,6.548,2.934,12.507,2.934,18.399c0,4.38-2.489,10.436-9.969,10.436c-5.363,0-9.873-3.167-9.873-9.403
	c0-5.986,4.924-9.603,9.739-9.603c0.771,0,1.663,0.126,2.193,0.269c0.577,0.154,0.427,0.867-0.104,0.836
	C64.229,17.937,61.314,22.339,61.314,26.635 M54.23,34.765c0,0.65-0.33,0.978-0.996,0.978h-1.806c-0.655,0-0.989-0.328-0.989-0.977
	V24.702c0-3.697-1.584-5.375-4.147-5.375c-3.531,0-5.129,2.437-5.129,5.739v9.699c0,0.65-0.33,0.978-0.986,0.978h-1.807
	c-0.662,0-0.991-0.327-0.991-0.978V18.446c0-0.653,0.328-0.979,0.991-0.979h1.624c0.662,0,0.998,0.327,0.992,0.979l-0.008,1.825
	c1.317-1.843,3.568-3.187,6.56-3.187c3.091,0,6.691,1.387,6.691,6.683V34.765z M14.644,34.765c0,0.65-0.327,0.978-0.993,0.978H0.99
	C0.33,35.743,0,35.415,0,34.766V10.487C0,9.833,0.33,9.51,0.993,9.51h2.309c0.664,0,0.99,0.326,0.99,0.977v22.56
	c0,0.292,0.198,0.488,0.504,0.488h8.857c0.666,0,0.993,0.327,0.993,0.977V34.765z M89.369,18.854c-3.824,0-5.598,3.911-5.598,8.071
	c0,5.603,2.886,7.423,5.476,7.423c4.152,0,5.864-4.186,5.864-8.038C95.11,21.701,93.077,18.854,89.369,18.854 M95.005,18.448
	C95,17.794,95.338,17.468,96,17.468h1.763c0.666,0,0.996,0.327,0.996,0.984v16.313c0,0.65-0.336,0.978-0.996,0.978H96
	c-0.656,0-0.999-0.324-0.995-0.977l0.014-2.273c-0.916,1.595-2.91,3.597-6.719,3.597c-4.24,0-8.614-2.843-8.614-9.391
	c0-6.475,4.749-9.614,9.108-9.614c2.784,0,4.842,0.873,6.235,3.205L95.005,18.448z M24.334,18.537c-4.267,0-5.757,4.148-5.757,8.051
	c0,3.92,1.456,8.051,5.757,8.051c4.252,0,5.765-4.051,5.765-8.051C30.1,22.577,28.487,18.537,24.334,18.537 M24.334,36.134
	c-4.222,0-9.824-2.567-9.824-9.546c0-6.98,5.67-9.545,9.824-9.545c4.306,0,9.828,2.565,9.828,9.545
	C34.163,33.567,28.672,36.134,24.334,36.134 M94.191,51.923v-8.83h1.75v7.292h4.058v1.538H94.191z M89.267,48.912h-2.224l1.13-3.213
	L89.267,48.912z M92.078,51.923l-3.262-8.83h-1.368l-3.261,8.83h1.828l0.54-1.56h3.177l0.528,1.56H92.078z M80.517,51.923
	l-3.546-5.418v5.418h-1.746v-8.83h1.56l3.543,5.408v-5.408h1.748v8.83H80.517z M70.689,47.51c0,1.698-0.101,2.107-0.436,2.479
	c-0.253,0.286-0.641,0.473-1.125,0.473c-0.473,0-0.879-0.186-1.126-0.473c-0.341-0.371-0.428-0.78-0.428-2.479
	c0-1.7,0.087-2.106,0.428-2.48c0.247-0.284,0.653-0.472,1.126-0.472c0.484,0,0.871,0.188,1.125,0.472
	C70.587,45.404,70.689,45.81,70.689,47.51 M72.439,47.51c0-1.525,0.009-2.63-0.896-3.522c-0.625-0.621-1.391-0.966-2.415-0.966
	c-1.011,0-1.796,0.345-2.422,0.966c-0.903,0.892-0.875,1.996-0.875,3.522c0,1.524-0.028,2.629,0.875,3.521
	c0.627,0.619,1.411,0.967,2.422,0.967c1.024,0,1.79-0.348,2.415-0.967C72.448,50.139,72.439,49.034,72.439,47.51 M61.293,43.094
	h1.748v8.83h-1.748V43.094z M55.311,51.999c-1.359,0-2.386-0.286-3.267-1.164l1.131-1.117c0.565,0.558,1.333,0.744,2.162,0.744
	c1.038,0,1.59-0.386,1.59-1.092c0-0.31-0.09-0.571-0.279-0.744c-0.175-0.16-0.375-0.247-0.789-0.312l-1.091-0.148
	c-0.766-0.11-1.33-0.347-1.733-0.73c-0.43-0.422-0.639-0.994-0.639-1.737c0-1.576,1.179-2.677,3.114-2.677
	c1.242,0,2.139,0.297,2.9,1.026l-1.105,1.08c-0.566-0.533-1.25-0.607-1.844-0.607c-0.932,0-1.383,0.509-1.383,1.116
	c0,0.224,0.077,0.458,0.264,0.631c0.173,0.163,0.469,0.296,0.833,0.346l1.06,0.149c0.815,0.114,1.331,0.337,1.709,0.683
	c0.48,0.445,0.693,1.091,0.693,1.875C58.639,51.032,57.189,51.999,55.311,51.999 M46.875,51.999c-1.355,0-2.385-0.286-3.264-1.164
	l1.13-1.117c0.568,0.558,1.333,0.744,2.161,0.744c1.031,0,1.58-0.386,1.58-1.092c0-0.31-0.088-0.571-0.275-0.744
	c-0.177-0.16-0.373-0.247-0.791-0.312l-1.082-0.148c-0.763-0.11-1.327-0.347-1.73-0.73c-0.429-0.422-0.642-0.994-0.642-1.737
	c0-1.576,1.18-2.677,3.114-2.677c1.237,0,2.124,0.297,2.892,1.026l-1.107,1.08c-0.565-0.533-1.245-0.607-1.834-0.607
	c-0.927,0-1.381,0.509-1.381,1.116c0,0.224,0.076,0.458,0.267,0.631c0.177,0.163,0.464,0.296,0.83,0.346l1.056,0.149
	c0.814,0.114,1.328,0.337,1.704,0.683c0.48,0.445,0.694,1.091,0.694,1.875C50.195,51.032,48.747,51.999,46.875,51.999
	 M35.804,51.923v-8.83h5.894v1.542h-4.146v2.067h3.532v1.539h-3.532v2.145h4.146v1.538H35.804z M29.129,44.635v2.167h3.535v1.539
	h-3.535v3.582h-1.746v-8.83h5.895v1.542H29.129z M22.845,47.51c0,1.698-0.097,2.107-0.435,2.479
	c-0.253,0.286-0.643,0.473-1.121,0.473c-0.474,0-0.878-0.186-1.131-0.473c-0.339-0.371-0.426-0.78-0.426-2.479
	c0-1.7,0.088-2.106,0.426-2.48c0.253-0.284,0.657-0.472,1.131-0.472c0.478,0,0.868,0.188,1.121,0.472
	C22.749,45.404,22.845,45.81,22.845,47.51 M24.594,47.51c0-1.525,0.012-2.63-0.889-3.522c-0.629-0.621-1.397-0.966-2.415-0.966
	c-1.017,0-1.797,0.345-2.425,0.966c-0.902,0.892-0.879,1.996-0.879,3.522c0,1.524-0.023,2.629,0.879,3.521
	c0.628,0.619,1.408,0.967,2.425,0.967c1.018,0,1.786-0.348,2.415-0.967C24.606,50.139,24.594,49.034,24.594,47.51 M13.727,45.8
	c0,0.678-0.504,1.164-1.271,1.164h-1.646v-2.329h1.646C13.222,44.635,13.727,45.118,13.727,45.8 M15.836,51.923l-1.999-3.805
	c0.868-0.313,1.633-1.079,1.633-2.318c0-1.479-1.08-2.707-2.901-2.707H9.063v8.83h1.746v-3.519h1.256l1.746,3.519H15.836z
	 M4.836,45.847c0,0.718-0.5,1.205-1.291,1.205H1.908v-2.417h1.638C4.337,44.635,4.836,45.129,4.836,45.847 M6.583,45.847
	c0-1.498-1.104-2.753-2.952-2.753H0.165v8.83h1.743V48.6h1.723C5.48,48.6,6.583,47.349,6.583,45.847"/>
</svg>
