<?xml version="1.0" encoding="UTF-8"?>
<svg width="50px" height="60px" viewBox="0 0 50 60" version="1.1" xmlns="http://www.w3.org/2000/svg" xmlns:xlink="http://www.w3.org/1999/xlink">
    <!-- Generator: Sketch 45.1 (43504) - http://www.bohemiancoding.com/sketch -->
    <title>2</title>
    <desc>Created with Sketch.</desc>
    <defs></defs>
    <g id="Page-1" stroke="none" stroke-width="1" fill="none" fill-rule="evenodd">
        <g id="152" transform="translate(-695.000000, -1664.000000)" fill-rule="nonzero">
            <g id="2" transform="translate(695.000000, 1664.000000)">
                <g id="Group-20" transform="translate(7.000000, 15.000000)" fill="#7BB558">
                    <g id="Group-22" transform="translate(5.000000, 4.000000)">
                        <circle id="Oval" cx="4.89327273" cy="2.41090909" r="1.90581818"></circle>
                        <path d="M8.65636364,8.92745455 C8.91927273,8.92745455 9.13636364,8.71363636 9.10036364,8.45290909 C8.83963636,6.57218182 7.488,5.11636364 4.89272727,5.11636364 C2.29745455,5.11636364 0.945818182,6.57163636 0.685636364,8.45290909 C0.649636364,8.71363636 0.865636364,8.92745455 1.12909091,8.92745455 L8.65636364,8.92745455 Z" id="Shape"></path>
                    </g>
                    <path d="M33.216,5.11733333 L24.2746667,5.11733333 C24.1446667,5.11733333 24.0386667,5.22266667 24.0386667,5.35266667 L24.0386667,7.23466667 C24.0386667,7.36466667 24.144,7.47066667 24.2746667,7.47066667 L33.216,7.47066667 C33.346,7.47066667 33.4513333,7.36533333 33.4513333,7.23466667 L33.4513333,5.35266667 C33.4513333,5.22266667 33.3466667,5.11733333 33.216,5.11733333 Z" id="Shape"></path>
                    <path d="M33.216,12.1766667 L24.2746667,12.1766667 C24.1446667,12.1766667 24.0386667,12.282 24.0386667,12.412 L24.0386667,14.2946667 C24.0386667,14.4246667 24.144,14.53 24.2746667,14.53 L33.216,14.53 C33.346,14.53 33.4513333,14.4246667 33.4513333,14.2946667 L33.4513333,12.412 C33.4513333,12.282 33.3466667,12.1766667 33.216,12.1766667 Z" id="Shape"></path>
                    <path d="M34.7166265,27 L1.28337347,27 C1.12683572,27 1,27.1053333 1,27.2353333 L1,29.118 C1,29.2473333 1.12603296,29.3533333 1.28337347,29.3533333 L34.7166265,29.3533333 C34.8731643,29.3533333 35,29.248 35,29.118 L35,27.2353333 C35,27.106 34.873967,27 34.7166265,27 Z" id="Shape"></path>
                    <path d="M34.7166265,34 L1.28337347,34 C1.12683572,34 1,34.1053333 1,34.2353333 L1,36.1173333 C1,36.2473333 1.12603296,36.3526667 1.28337347,36.3526667 L34.7166265,36.3526667 C34.8731643,36.3526667 35,36.2473333 35,36.1173333 L35,34.2353333 C35,34.1046667 34.873967,34 34.7166265,34 Z" id="Shape"></path>
                    <path d="M9.98066667,19 C12.1526667,19 14.1526667,18.2586667 15.7466667,17.0186667 L23.3346667,24.6066667 C23.4266667,24.6986667 23.5753333,24.6986667 23.6673333,24.6066667 L24.9986667,23.2753333 C25.09,23.1833333 25.09,23.0346667 24.9986667,22.9426667 L17.4106667,15.3546667 C18.6506667,13.76 19.392,11.7593333 19.392,9.588 C19.392,4.39866667 15.1706667,0.176 9.98066667,0.176 C4.79066667,0.176 0.569333333,4.398 0.569333333,9.588 C0.569333333,14.778 4.79066667,19 9.98066667,19 Z M9.98066667,2.52933333 C13.8726667,2.52933333 17.0393333,5.696 17.0393333,9.588 C17.0393333,13.48 13.8726667,16.6466667 9.98066667,16.6466667 C6.08866667,16.6466667 2.922,13.48 2.922,9.588 C2.922,5.696 6.08866667,2.52933333 9.98066667,2.52933333 Z" id="Shape"></path>
                </g>
                <path d="M38.5027186,4.7959901 L35.0633074,0 L14.927255,0 L11.4846749,4.7959901 L0,4.7959901 L0,60 L50,60 L50,4.7959901 L38.5027186,4.7959901 Z M13.7355871,7.09498218 L16.7809239,2.85914257 L33.2096385,2.85914257 L36.261244,7.10040594 L36.261244,9.78051683 L13.7355871,9.78051683 L13.7355871,7.09498218 Z M46.683561,57.1395267 L3.31805455,57.1395267 L3.31805455,7.65243564 L10.4175394,7.65243564 L10.4175394,12.6396594 L39.5777383,12.6396594 L39.5777383,7.65243564 L46.683561,7.65243564 L46.683561,57.1395267 L46.683561,57.1395267 Z" id="Shape" fill="#6FB048" opacity="0.9"></path>
            </g>
        </g>
    </g>
</svg>