<?xml version="1.0" encoding="UTF-8"?>
<svg width="64px" height="64px" viewBox="0 0 64 64" version="1.1" xmlns="http://www.w3.org/2000/svg" xmlns:xlink="http://www.w3.org/1999/xlink">
    <!-- Generator: Sketch 45.1 (43504) - http://www.bohemiancoding.com/sketch -->
    <title>7</title>
    <desc>Created with Sketch.</desc>
    <defs></defs>
    <g id="Page-1" stroke="none" stroke-width="1" fill="none" fill-rule="evenodd">
        <g id="152" transform="translate(-688.000000, -5973.000000)">
            <g id="7" transform="translate(690.000000, 5975.000000)">
                <g id="Group">
                    <rect id="Rectangle-path" stroke="#7BB558" stroke-width="3" x="0" y="0" width="60" height="60"></rect>
                    <path d="M0,10.4347826 L60,10.4347826" id="Shape" stroke="#7BB558" stroke-width="2"></path>
                    <path d="M56.0869565,5.2173913 L53.4782609,5.2173913" id="Shape" stroke="#7BB558" stroke-width="2"></path>
                    <path d="M50.8695652,5.2173913 L48.2608696,5.2173913" id="Shape" stroke="#7BB558" stroke-width="2"></path>
                    <path d="M45.6521739,5.2173913 L43.0434783,5.2173913" id="Shape" stroke="#7BB558" stroke-width="2"></path>
                    <g transform="translate(15.652174, 16.956522)" stroke="#6FB048" stroke-width="2">
                        <rect id="Rectangle-path" x="0" y="15.6521739" width="28.6956522" height="19.5652174"></rect>
                        <path d="M24.7826087,15.6521739 L3.91304348,15.6521739 L3.91304348,10.4347826 C3.91304348,4.69565217 8.60869565,0 14.3478261,0 L14.3478261,0 C20.0869565,0 24.7826087,4.69565217 24.7826087,10.4347826 L24.7826087,15.6521739 Z" id="Shape"></path>
                        <path d="M5.2173913,23.4782609 L23.4782609,23.4782609" id="Shape"></path>
                        <path d="M7.82608696,28.6956522 L20.8695652,28.6956522" id="Shape"></path>
                    </g>
                </g>
            </g>
        </g>
    </g>
</svg>