<?xml version="1.0" encoding="UTF-8"?>
<svg width="60px" height="60px" viewBox="0 0 60 60" version="1.1" xmlns="http://www.w3.org/2000/svg" xmlns:xlink="http://www.w3.org/1999/xlink">
    <!-- Generator: Sketch 45.1 (43504) - http://www.bohemiancoding.com/sketch -->
    <title>done</title>
    <desc>Created with Sketch.</desc>
    <defs></defs>
    <g id="Page-1" stroke="none" stroke-width="1" fill="none" fill-rule="evenodd">
        <g id="152" transform="translate(-690.000000, -773.000000)" fill-rule="nonzero" fill="#6FB048">
            <g id="Group-28" transform="translate(420.000000, 724.000000)">
                <g id="done" transform="translate(270.000000, 49.000000)">
                    <path d="M48.84825,17.4675 C48.2445,16.89975 47.2965,16.9275 46.728,17.52975 L24.7215,40.8705 L11.7405,30.33525 C11.09775,29.81325 10.15275,29.91225 9.63075,30.55425 C9.10875,31.197 9.207,32.142 9.84975,32.664 L23.91225,44.07675 C24.18975,44.30175 24.5235,44.412 24.85725,44.412 C25.257,44.412 25.65525,44.253 25.94925,43.941 L48.9105,19.587 C49.479,18.98475 49.45125,18.036 48.84825,17.4675 Z M30,0 C13.458,0 0,13.458 0,30 C0,46.542 13.458,60 30,60 C46.542,60 60,46.542 60,30 C60,13.458 46.542,0 30,0 Z M30,57 C15.11175,57 3,44.88825 3,30 C3,15.11175 15.11175,3 30,3 C44.88825,3 57,15.11175 57,30 C57,44.88825 44.88825,57 30,57 Z" id="Shape"></path>
                </g>
            </g>
        </g>
    </g>
</svg>