<?xml version="1.0" encoding="UTF-8"?>
<svg width="12px" height="17px" viewBox="0 0 12 17" version="1.1" xmlns="http://www.w3.org/2000/svg" xmlns:xlink="http://www.w3.org/1999/xlink">
    <!-- Generator: Sketch 45.1 (43504) - http://www.bohemiancoding.com/sketch -->
    <title>phone</title>
    <desc>Created with Sketch.</desc>
    <defs></defs>
    <g id="Page-1" stroke="none" stroke-width="1" fill="none" fill-rule="evenodd">
        <g id="152" transform="translate(-532.000000, -6893.000000)" fill="#6FB048">
            <path d="M543.906108,6907.98065 C544.005947,6908.16842 544.027158,6908.38819 543.964969,6908.5916 C543.90282,6908.79497 543.762403,6908.96534 543.574592,6909.06522 C543.246325,6909.2398 542.851778,6909.44962 542.499893,6909.63675 C541.896646,6909.9576 541.205588,6910.07412 540.530448,6909.96883 C540.289469,6909.93121 540.027761,6909.8904 539.769622,6909.85014 C538.780408,6909.69585 537.921507,6909.08482 537.451419,6908.20086 C536.185742,6905.82095 533.633939,6901.02272 532.370667,6898.64738 C531.902825,6897.76763 531.876442,6896.71895 532.299537,6895.81683 C532.411485,6895.57809 532.525158,6895.33571 532.629729,6895.11278 C532.919825,6894.49413 533.402784,6893.98627 534.006072,6893.66546 C534.357916,6893.47833 534.752463,6893.26851 535.080731,6893.09389 C535.268541,6892.99405 535.488309,6892.97284 535.691677,6893.03503 C535.895085,6893.09718 536.065453,6893.2376 536.165333,6893.42537 C536.486263,6894.0289 536.952061,6894.90472 537.315974,6895.589 C537.463488,6895.86639 537.494763,6896.191 537.402943,6896.49144 C537.311123,6896.79189 537.103705,6897.04353 536.826359,6897.19104 C536.652783,6897.28335 536.470185,6897.38046 536.28907,6897.47681 C535.90972,6897.67853 535.626039,6898.02272 535.500458,6898.43359 C535.374876,6898.84449 535.417659,6899.28844 535.619383,6899.66779 C536.413849,6901.16161 537.65194,6903.48964 538.440553,6904.97252 C538.85214,6905.74641 539.813166,6906.04016 540.587063,6905.62857 C540.78145,6905.5252 540.978202,6905.42055 541.164289,6905.32159 C541.73586,6905.01762 542.445643,6905.23454 542.749653,6905.80612 C543.114408,6906.492 543.583413,6907.37392 543.906108,6907.98065 L543.906108,6907.98065 Z" id="phone"></path>
        </g>
    </g>
</svg>