<?xml version="1.0" encoding="UTF-8"?>
<svg width="24px" height="24px" viewBox="0 0 24 24" version="1.1" xmlns="http://www.w3.org/2000/svg" xmlns:xlink="http://www.w3.org/1999/xlink">
    <!-- Generator: Sketch 45.1 (43504) - http://www.bohemiancoding.com/sketch -->
    <title>v</title>
    <desc>Created with Sketch.</desc>
    <defs></defs>
    <g id="Page-1" stroke="none" stroke-width="1" fill="none" fill-rule="evenodd">
        <g id="152" transform="translate(-162.000000, -1874.000000)" fill="#83A7A5">
            <path d="M174,1874 C180.628846,1874 186,1879.37115 186,1886 C186,1892.62885 180.628846,1898 174,1898 C167.371154,1898 162,1892.62885 162,1886 C162,1879.37115 167.371154,1874 174,1874 Z M178.851923,1881.45962 L171.651923,1888.71154 L168.928846,1885.98846 L167.901923,1887.01538 L171.132692,1890.24615 C171.276923,1890.39038 171.473077,1890.50577 171.646154,1890.50577 C171.819231,1890.50577 172.009615,1890.39038 172.153846,1890.25192 L179.867308,1882.49808 L178.851923,1881.45962 Z M174,1897.00192 C167.936538,1897.00192 162.998077,1892.06923 162.998077,1886 C162.998077,1879.93654 167.930769,1874.99808 174,1874.99808 C180.063462,1874.99808 185.001923,1879.93077 185.001923,1886 C185.001923,1892.06346 180.063462,1897.00192 174,1897.00192 L174,1897.00192 Z" id="v"></path>
        </g>
    </g>
</svg>