<svg width="141" height="38" viewBox="0 0 141 38" fill="none" xmlns="http://www.w3.org/2000/svg"><path d="M35.015 18.877c1.764 0 2.66 1.076 2.99 2.212l4.066-1.226c-.657-2.66-3.05-5.173-7.146-5.173-4.366 0-7.834 3.26-7.834 7.894 0 4.605 3.558 7.864 7.983 7.864 3.977 0 6.43-2.571 7.087-5.172l-4.007-1.226c-.329 1.106-1.315 2.212-3.08 2.212-1.883 0-3.468-1.315-3.468-3.678 0-2.392 1.525-3.707 3.409-3.707zm8.987 7.027c0 2.362 1.884 4.515 5.143 4.515 1.974 0 3.41-.838 4.187-2.093 0 1.016.12 1.554.15 1.674h4.096c-.03-.15-.18-1.136-.18-2.302V20.43c0-3.05-1.764-5.74-6.578-5.74-4.366 0-6.34 2.81-6.519 4.933l3.947.808c.09-1.107.957-2.183 2.542-2.183 1.435 0 2.183.747 2.183 1.614 0 .509-.27.897-1.077 1.017l-3.498.538c-2.452.359-4.396 1.854-4.396 4.486zm6.25 1.225c-1.256 0-1.765-.747-1.765-1.524 0-1.047.718-1.496 1.675-1.645l2.81-.449v.658c0 2.303-1.375 2.96-2.72 2.96zm15.516 8.552v-6.847c.687.837 2.123 1.495 4.036 1.495 4.157 0 7.087-3.26 7.087-7.804 0-4.456-2.601-7.745-6.907-7.745-2.123 0-3.738.927-4.366 1.884v-1.525h-4.395V35.68h4.545zm6.668-13.126c0 2.481-1.585 3.707-3.38 3.707-1.763 0-3.348-1.256-3.348-3.707 0-2.482 1.585-3.678 3.349-3.678 1.794 0 3.379 1.196 3.379 3.678zm16.836-7.416c-.299-.09-.747-.15-1.196-.15-1.196 0-3.08.479-3.857 2.153V15.14h-4.395V30h4.544v-6.489c0-2.96 1.645-4.036 3.47-4.036.448 0 .926.03 1.434.15v-4.486zm6.02 5.651c.09-1.106 1.047-2.511 2.961-2.511 2.153 0 2.931 1.375 2.99 2.511h-5.95zm6.28 3.858c-.418 1.166-1.345 1.943-2.99 1.943-1.764 0-3.29-1.196-3.379-2.87h10.346c.03-.09.09-.778.09-1.406 0-4.784-2.841-7.625-7.446-7.625-3.857 0-7.415 3.05-7.415 7.835 0 4.993 3.648 7.924 7.744 7.924 3.768 0 6.13-2.153 6.848-4.725l-3.798-1.076zM113.102 30V8.351h-4.545V30h4.545zm8.556 0V15.139h-4.545V30h4.545zm-4.934-19.406c0 1.465 1.196 2.661 2.632 2.661 1.495 0 2.691-1.196 2.691-2.661s-1.196-2.661-2.691-2.661c-1.436 0-2.632 1.196-2.632 2.66zm15.763 8.283c1.764 0 2.661 1.076 2.99 2.212l4.067-1.226c-.658-2.66-3.05-5.173-7.147-5.173-4.365 0-7.834 3.26-7.834 7.894 0 4.605 3.558 7.864 7.984 7.864 3.977 0 6.429-2.571 7.087-5.172l-4.007-1.226c-.329 1.106-1.316 2.212-3.08 2.212-1.884 0-3.469-1.315-3.469-3.678 0-2.392 1.525-3.707 3.409-3.707z" fill="#222731"/><path fill-rule="evenodd" clip-rule="evenodd" d="M3.65 30.613a12.46 12.46 0 0 0 8.809 3.65h6.23V9.343h-6.23a12.46 12.46 0 0 0-8.81 21.27zm8.809-21.269l.8 6.933a6.23 6.23 0 0 0 4.616 5.314l.814.212-.814.212a6.23 6.23 0 0 0-4.616 5.314l-.8 6.933L11.737 28a6.23 6.23 0 0 0-5.475-5.474L0 21.803l6.262-.722a6.23 6.23 0 0 0 5.475-5.475l.722-6.262z" fill="#136207"/></svg>