<svg width="20" height="20" viewBox="0 0 20 20" fill="none" xmlns="http://www.w3.org/2000/svg"><path d="M2 0a2 2 0 0 0-2 2v16a2 2 0 0 0 2 2h16a2 2 0 0 0 2-2V2a2 2 0 0 0-2-2H2zm14.615 4.738l-1.072 1.029a.314.314 0 0 0-.12.301v7.556a.313.313 0 0 0 .12.301l1.047 1.028v.226h-5.268v-.225l1.085-1.054c.106-.107.106-.138.106-.3V7.492l-3.016 7.662h-.409L5.575 7.492v5.135a.709.709 0 0 0 .194.59l1.412 1.711v.226H3.179v-.225l1.413-1.712a.683.683 0 0 0 .181-.59V6.69a.52.52 0 0 0-.169-.439L3.35 4.738v-.225h3.895l3.011 6.603 2.647-6.603h3.713v.225z" fill="#222731"/></svg>