<svg width="20" height="20" viewBox="0 0 20 20" fill="none" xmlns="http://www.w3.org/2000/svg"><g clip-path="url(#a)"><path d="M19.962 3.807a8.334 8.334 0 0 1-2.354.646 4.132 4.132 0 0 0 1.802-2.269 8.44 8.44 0 0 1-2.606.987 4.1 4.1 0 0 0-6.987 3.735 11.612 11.612 0 0 1-8.45-4.272 4.018 4.018 0 0 0-.555 2.063A4.1 4.1 0 0 0 2.635 8.11a4.087 4.087 0 0 1-1.857-.513v.05a4.102 4.102 0 0 0 3.289 4.023 4.163 4.163 0 0 1-1.844.07 4.114 4.114 0 0 0 3.837 2.848 8.223 8.223 0 0 1-5.085 1.754A8.85 8.85 0 0 1 0 16.287a11.663 11.663 0 0 0 6.298 1.84c7.544 0 11.665-6.246 11.665-11.655 0-.174 0-.35-.012-.525.8-.574 1.5-1.3 2.05-2.123l-.04-.017z" fill="#222731"/></g><defs><clipPath id="a"><path fill="#fff" d="M0 0h20v20H0z"/></clipPath></defs></svg>