<svg width="140" height="55" viewBox="0 0 140 55" fill="none" xmlns="http://www.w3.org/2000/svg"><g clip-path="url(#a)"><path d="M71.497 41.309v4.321h3.407c.816 0 1.423-.193 1.82-.581.396-.389.594-.918.594-1.588 0-.694-.23-1.226-.692-1.596-.462-.371-1.047-.556-1.757-.556h-3.372zm0-4.727v3.51h3.362c.625 0 1.113-.173 1.46-.515a1.71 1.71 0 0 0 .523-1.266c0-.525-.16-.943-.479-1.258-.318-.314-.795-.471-1.433-.471h-3.433zm7.162 6.857c0 1.094-.33 1.937-.988 2.526-.66.589-1.594.883-2.805.883h-4.622V35.364h4.703c.966 0 1.747.244 2.342.73.595.488.893 1.189.893 2.105a2.58 2.58 0 0 1-.446 1.462 2.326 2.326 0 0 1-1.23.933v.052c.306.072.591.19.856.354.264.165.494.371.688.618.194.247.344.524.45.831.106.306.159.636.159.99zm6.72-.278a5.95 5.95 0 0 0-1.055-.476c-.35-.118-.773-.176-1.265-.176-.561 0-1.036.15-1.422.45-.387.3-.58.732-.58 1.296 0 .564.164.994.492 1.288.328.294.802.44 1.423.44a3.053 3.053 0 0 0 1.308-.37 4.623 4.623 0 0 0 1.099-.811v-1.64zm-1.853-5.08c1 0 1.767.232 2.303.697.535.464.802 1.16.802 2.09v5.98H85.38V46h-.035c-.459.412-.915.683-1.368.812a4.71 4.71 0 0 1-1.296.194 3.63 3.63 0 0 1-1.023-.15 2.73 2.73 0 0 1-.926-.474 2.409 2.409 0 0 1-.67-.836c-.171-.34-.257-.755-.257-1.248 0-.422.08-.803.239-1.143.158-.34.381-.63.67-.87.288-.24.63-.425 1.023-.554a4.14 4.14 0 0 1 1.296-.193c.377 0 .756.037 1.138.112.383.075.786.228 1.209.459v-1.067c0-.665-.168-1.147-.501-1.45-.334-.303-.834-.454-1.502-.454a4.19 4.19 0 0 0-1.176.159 6.874 6.874 0 0 0-1.09.423l-.424-.98a7.43 7.43 0 0 1 1.306-.477c.459-.123.97-.183 1.534-.183zm11.784 8.767h-1.252V41.68c0-.812-.159-1.432-.476-1.862-.318-.43-.835-.644-1.553-.644-.53 0-.981.174-1.359.52a2.566 2.566 0 0 0-.757 1.262 3.12 3.12 0 0 0-.089.759v5.133h-1.252V38.24h1.252v1.216l.036.019c.316-.495.709-.85 1.177-1.068.47-.218.92-.326 1.354-.326.997 0 1.732.29 2.207.873.474.582.712 1.426.712 2.53v5.364zm4.305-4.622l3.898-3.969h-1.429l-3.704 3.81v-7.426l-1.253.564v11.643h1.253v-4.393l3.74 4.393h1.499l-4.004-4.622zm-33.98-27.379h4.608v14.114h3.288V14.847h4.453v-2.753H65.635v2.753zm44.892 2.338h-3.607l-4.239 5.024v-9.752l-3.14 1.137v15.368h3.14v-5.758l4.14 5.758h3.731l-4.657-6.336 4.632-5.441zm8.597 7.302a3.96 3.96 0 0 1-.5 1.148c-.22.333-.49.591-.815.775a2.208 2.208 0 0 1-1.114.278c-.851 0-1.502-.32-1.953-.954-.451-.637-.677-1.537-.677-2.7 0-1.029.219-1.885.651-2.561.437-.678 1.068-1.016 1.904-1.016.885 0 1.552.335 2.002 1.003.452.67.675 1.545.675 2.625 0 .5-.057.966-.173 1.402zm1.735-5.925a5.042 5.042 0 0 0-1.828-1.222 6.274 6.274 0 0 0-2.336-.424c-.845 0-1.625.142-2.336.424a5.229 5.229 0 0 0-1.84 1.21c-.512.524-.911 1.17-1.194 1.933-.279.766-.422 1.634-.422 2.602 0 .935.137 1.78.412 2.539a5.484 5.484 0 0 0 1.155 1.935 5.102 5.102 0 0 0 1.802 1.234c.704.29 1.495.434 2.374.434a6.33 6.33 0 0 0 2.336-.422 5.172 5.172 0 0 0 1.84-1.221 5.65 5.65 0 0 0 1.205-1.949c.29-.764.436-1.633.436-2.6 0-.933-.142-1.782-.424-2.538a5.606 5.606 0 0 0-1.18-1.935zM81.15 12.094c-.538 0-.987.18-1.35.533-.356.358-.54.786-.54 1.29 0 .488.184.907.54 1.266.363.354.812.532 1.35.532.503 0 .94-.178 1.308-.532.37-.36.555-.778.555-1.266a1.73 1.73 0 0 0-.555-1.29 1.836 1.836 0 0 0-1.309-.533zM79.554 28.96h3.164V17.155h-3.164v11.807zm12.948-11.915c-2.3-.17-3.6 1.087-3.6 1.087v-.972h-3.164v11.8H88.9v-7.032c0-1.194 1-2.165 2.23-2.165 1.231 0 2.23.97 2.23 2.165v7.033h3.162v-6.984c0-3.701-2.148-4.794-4.021-4.932zm32.969-.129v.218h-1.896v2.42h1.896v9.407h3.164v-9.407h1.89v-2.42h-1.888v-.247c0-1.628.762-2.43 2.256-2.194l.493-2.442c-4.811-.575-5.915 1.986-5.915 4.665zm8.162 0v.218h-1.895v2.42h1.895v9.407h3.164s0-5.662.002-9.407h1.889v-2.42H136.8v-.247c0-1.628.762-2.43 2.254-2.194l.494-2.442c-4.812-.575-5.915 1.986-5.915 4.665z" fill="#231F20"/><path fill-rule="evenodd" clip-rule="evenodd" d="M14.642 42.648l-.67 1.136c-.238-.748-.67-1.524-.95-2.074-.535 1.106-1.384 1.128-2.2 1.133.18-2.647-3.145-5.31-1.683-8.331.291-.605.102-1.343-.527-1.66-2.232-1.134-1.199 3.567-3.428 3.709.427-.534.588-1.65.651-1.746-.473.123-1.61.844-2.12-.08 1.303-.71 1.678-1.776 1.882-2.848.26-1.356.379-1.984.643-2.541.274-.596.715-1.112 1.656-2.334-.223.034-2.733.562-3.295.3 4.338-2.665 3.36-6.053 9.977-9.072-1.734-1.288-3.51-2.317-2.237-4.778 1.813 2.177 5.257 1.424 7.117.412-1.838-.368-4.206-1.986-4.77-3.789.694-.108 1.591.643 2.108.994.248-.665.347-1.44 1.153-1.607-1.074 2.303 1.05 3.5 3.077 3.51.313 0 1.624-.13 1.624-.13-.208-.432-1.056-1.608-.439-2.084.495.465 1.085.835 1.625 1.249 3.94 3.049-1.874 5.876-4.252 7.16-3.733 2.016-2.734 4.414-1.174 5.028-.007.273-.174.393-.433.477-1.09.364-2.114-.413-2.984-.913.053 1.506-.05 2.952 1.613 3.78l-1.147.42c.987.748 1.286 1.145 2.474 1.3-.555.269-1.243.264-1.832.32.149.416.272.98.583 1.353-2.43.289-3.402-1.099-4.153-1.041-1.603.12-1.503 3.136 2.441 3.14l-.409.675s.748.437 1.432.52c-.261.213-.515.499-.736.718l.63.542c-1.61.29-2.066-1.424-3.11-.598-1.592 1.262 1.919 3.927 5.287 3.53-.284.361-1.074.895-1.416 1.171 2.745 2.593 1.39 5.033 2.52 6.82-2.365-.156-4.118-1.893-4.528-3.77zm3.085-2.915c.761-.605 1.39-.906 1.36-2.367-1.142.583-4.387.552-5.74-1.313-.384-.53.025-.797.396-.38.927 1.052 2.644.575 3.272.271-.1-.36-.378-.831-.613-1.033.235-.232.898-.574 1.035-1.166-.356-.192-1.733-.33-1.733-.33.223-.211.498-.51.333-1.297-1.405.432-3.141-.154-3.537-.675-.388-.511.01-.99.333-.654.701.737 4.154 1.58 5.44.3-.478-.13-1.004-.558-1.1-.822 1.188-.119 2.137-.82 2.215-1.695-.658 0-1.9-.048-2.322-.366.57-.21.93-.417 1.11-1.055-2.174-.131-2.347-1.746-2.357-2.013 1.414.816 3.906.455 3.263-1.557-1.176-.063-2.364-1.968.874-3.721 2.943-1.592 6.292-3.31 5.998-6.139-.195-1.808-3.174-3.044-3.552-3.96-1.244.592-1.496 1.28-.934 2.43 0 0-2.77.276-2.988-1.429-.096-.765.415-1.481.963-2.027-.31 0-2.399-.559-3.028 1.142-1.172-.799-2.171-.77-2.96.073 1.258.748 2.037 3.308 4.117 4.065-1.48.803-3.872.465-5.269-1.998-1.32 1.99-2.08 3.961.752 6.066-5.157 2.347-5.12 6.83-9.604 8.968.456 1.222 1.415 1.222 2.636 1.03-1.94 2.521-.287 5.157-3.355 6.235.285 1.027.863 1.846 1.996 1.546-.323.503-.535.492-1.036 1.044 1.678 1.057 3.668.291 4.119-3.098.08-.604.914-.226.625.367-1.913 3.956 2.924 6.93 1.213 9.832 1.51-.063 2.658-.18 3.29-.69.306.608.49 1.212.425 1.806.833-.169 1.137-.664 1.194-1.226.547 1.59 2.499 3.293 5.625 3.293-1.658-2.36-.115-4.757-2.456-7.457z" fill="#D7DBDD"/><path fill-rule="evenodd" clip-rule="evenodd" d="M10.315 33.19c.568.594 1.26.654 2.57.572-1.44-.173-2.246-.524-2.748-1.48a14.097 14.097 0 0 1-.145-1.583c-.044-1.515.454-3.319 1.501-5.294-.007 1.24.975 3.187 3.166 3.512-1.97-.862-3.127-2.801-2.497-4.678a29.2 29.2 0 0 1 1.39-2.02c.26-.332.513-.651.76-.95-.265.958.895 1.947 1.669 2.113-.421-.41-1.322-1.743.76-3.968a9.494 9.494 0 0 0-1.71 1.044c3.782-4.088 6.889-4.201 8.317-6.257-2.069 1.414-7.544 2.177-10.004 1.509 1.357.908 4.63.825 5.43.656-2.668 2.595-8.496 5.273-9.504 7.658 1.42-1.557 2.337-1.842 3.566-2.244-.968 1.445-1.84 2.715-2.44 4.189-1.55 3.366-3.624 3.409-3.76 6.187.707-2.153 2.142-2.698 3.137-4.112-.176.902-.257 1.902-.226 3.059a9.526 9.526 0 0 0 .686 3.346c-.101 1.374.02 3.718 1.595 5.265-1.069-1.353-1.299-3.553-1.204-4.411 1.231 2.377 4.745 5.66 6.443 7.867-1.698-2.838-5.86-6.154-6.752-9.98zm38.881-11.41c1.224.403 2.146.687 3.564 2.244-1.006-2.385-6.838-5.064-9.507-7.66.803.17 4.075.254 5.433-.654-2.458.668-7.936-.095-10.006-1.509 1.43 2.056 4.536 2.17 8.319 6.257a9.414 9.414 0 0 0-1.71-1.044c2.079 2.225 1.18 3.555.759 3.968.776-.166 1.933-1.154 1.669-2.112.248.298.502.617.76.95.52.687.98 1.364 1.39 2.02.63 1.876-.53 3.815-2.495 4.677 2.19-.324 3.174-2.272 3.163-3.512 1.047 1.975 1.549 3.779 1.501 5.294-.019.564-.07 1.091-.143 1.584-.503.955-1.31 1.306-2.745 1.479 1.308.082 1.994.022 2.57-.573-.895 3.827-5.057 7.142-6.756 9.98 1.7-2.206 5.208-5.489 6.443-7.866.096.858-.134 3.058-1.2 4.411 1.57-1.547 1.694-3.89 1.592-5.265.398-.988.647-2.09.684-3.346a13.537 13.537 0 0 0-.226-3.059c.996 1.414 2.43 1.959 3.139 4.112-.134-2.778-2.208-2.82-3.761-6.187-.599-1.474-1.468-2.744-2.437-4.19z" fill="#D7DBDD"/><path fill-rule="evenodd" clip-rule="evenodd" d="M56.198 34.815c.06.096.218 1.212.645 1.747-2.23-.143-1.195-4.844-3.427-3.71-.63.317-.818 1.055-.525 1.66 1.46 3.02-1.866 5.684-1.68 8.331-.822-.005-1.675-.027-2.208-1.133-.275.55-.712 1.326-.948 2.074l-.668-1.136c-.413 1.878-2.166 3.616-4.528 3.772 1.122-1.788-.226-4.228 2.519-6.82-.344-.276-1.132-.81-1.416-1.173 3.37.398 6.882-2.267 5.285-3.529-1.042-.826-1.501.887-3.107.598l.63-.542c-.22-.22-.478-.505-.737-.717.686-.084 1.431-.52 1.431-.52l-.408-.676c3.946-.004 4.04-3.02 2.443-3.14-.75-.058-1.727 1.331-4.155 1.043.307-.375.434-.94.584-1.356-.584-.055-1.28-.05-1.832-.319 1.187-.156 1.486-.552 2.472-1.3l-1.143-.42c1.66-.828 1.56-2.276 1.608-3.78-.866.5-1.894 1.277-2.98.913-.259-.084-.427-.204-.434-.477 1.56-.614 2.553-3.012-1.174-5.029-2.377-1.283-8.194-4.11-4.252-7.16.538-.413 1.125-.783 1.622-1.248.618.476-.227 1.652-.439 2.084 0 0 1.31.131 1.621.131 2.032-.01 4.16-1.21 3.084-3.511.806.168.901.942 1.147 1.607.519-.35 1.417-1.102 2.112-.994-.564 1.803-2.93 3.421-4.77 3.789 1.859 1.012 5.304 1.765 7.115-.412 1.273 2.461-.499 3.49-2.236 4.779 6.617 3.018 5.642 6.405 9.98 9.07-.56.263-3.076-.266-3.3-.299.946 1.222 1.387 1.738 1.662 2.334.262.557.378 1.184.638 2.54.208 1.073.582 2.14 1.883 2.848-.51.925-1.645.204-2.114.08zm-.258-6.733c1.22.19 2.18.19 2.636-1.032-4.484-2.136-4.447-6.62-9.604-8.967 2.834-2.105 2.07-4.075.755-6.067-1.395 2.464-3.796 2.802-5.268 1.999 2.077-.757 2.858-3.317 4.115-4.065-.786-.843-1.792-.872-2.96-.073-.635-1.702-2.717-1.142-3.03-1.142.544.544 1.062 1.262.964 2.027-.215 1.705-2.986 1.43-2.986 1.43.557-1.152.31-1.839-.934-2.431-.381.917-3.358 2.152-3.55 3.96-.298 2.83 3.052 4.547 5.995 6.139 3.239 1.753 2.05 3.658.877 3.721-.651 2.012 1.843 2.373 3.26 1.557-.008.267-.186 1.882-2.36 2.013.183.638.54.844 1.112 1.056-.426.317-1.664.365-2.323.365.08.875 1.029 1.575 2.217 1.694-.095.264-.622.692-1.099.823 1.285 1.28 4.735.437 5.438-.3.321-.337.716.143.334.653-.398.522-2.133 1.108-3.539.676-.16.788.111 1.086.33 1.297 0 0-1.374.138-1.73.33.134.592.802.934 1.035 1.166-.233.202-.511.673-.611 1.033.63.304 2.349.78 3.268-.27.377-.418.784-.151.403.379-1.358 1.865-4.6 1.895-5.745 1.313-.032 1.46.599 1.762 1.36 2.368-2.341 2.699-.795 5.096-2.453 7.456 3.122 0 5.076-1.703 5.623-3.293.061.562.361 1.057 1.194 1.226-.065-.594.121-1.198.423-1.806.634.51 1.787.627 3.291.69-1.709-2.902 3.129-5.876 1.212-9.832-.285-.595.548-.971.628-.367.448 3.39 2.44 4.155 4.12 3.098-.507-.552-.714-.541-1.036-1.044 1.13.3 1.707-.519 1.997-1.546-3.07-1.078-1.418-3.715-3.359-6.234zM24.715 40.423l.922-.7c.163-.124.268-.203.457-.179l1.3.17a2.1 2.1 0 0 0 .278.618l-1.382-.291c-.196-.023-.253-.014-.438.118l-.653.494c-.13.103-.133.262-.06.42l.106.229-.459.346-.173-.329c-.178-.353-.19-.672.102-.896zm2.11-2.442l-.24.127c-.164.096-.25.14-.393-.041l-.105-.131c-.05-.062-.069-.217.038-.333l1.029-1.201-.95-.778 1.21.445.441-.55c.13.11.084.428.084.428.49 0 1.912.707 1.965 2.476 0 0 .32.475.73.5l2.094.126c.345 0 1.214-.66 2.33-.035.281-.171.583-.306.893-.34.982-.073 1.705.612 2.245 1.3.393.5.932 1.264.932 1.264-.231.275-.461.367-.651.298-.293-.147-.385-.382-.477-.706-.147-.514-.713-.953-.713-.953.192.346.233.737.325 1.095-.818-.808-.974-1.799-1.545-1.933-.254-.064-.547.044-.822.362.29.668.275 1.444.57 1.962.224.39.27.424.373.509.241.174.103.484.066.711l-.31 1.944h-.521l.344-1.903c.104-.578-1.523-.578-2.356-1.684-.71.829-2.7.621-3.56.492-.348-.05-.687-.03-.88.313-.11.193-.299.136-.412.107l-1.57-.339c-.276-.065-.395-.009-.518.244l-.314.65c-.07.153-.067.264.058.385l.15.16c-.09.314-.373.55-.373.55l-.344-.385c-.166-.195-.174-.478-.042-.755l.508-1.059c.06-.116.167-.244.383-.244l1.943-.032-.596-.969c-.444-.728.292-2.023.182-2.635-.055.82-1.045.445-1.2.558zm8.086 4.48l-.838 2.066h-.521l.837-2.001c.087-.257-.077-.38-.286-.663.31.176.534.29.911.436-.034.057-.073.09-.103.161zm-10.224-.235l.944-.8-.145-.288c-.102-.203-.047-.218.063-.298l.495-.371c.117-.095.237-.084.381-.05l1.493.352h-1.576c-.367.024-.473.164-.602.433l-.11.223-.406.833c-.138.287-.209.668.152 1.102l.287.339-.58 1.178h.49l.401-.819c.032-.029.626-.569.75-1.132-.169-.137-.291-.235-.197-.432l.182-.389c.059-.13.08-.184.254-.148l1.57.34c.196.052.483.138.692-.176.216-.33.245-.293.743-.242l.801.084c1.095.104 2.187-.172 2.614-.509.148.341.444.601.583.865.05.098-.033.237-.102.41l-.899 2.148h1.386l.786-1.963c.072-.186.177-.336.26-.41l-.45 2.373h1.344l.358-2.35c.078-.52.032-.69-.218-.902-.562-.473-.548-1.468-.73-2.073a.54.54 0 0 1 .338-.067c.294.03.514.777.86 1.258.687.967 1.63 2.037 2.707.532a3.507 3.507 0 0 0-.35-.478l-.299-.35c-.175-.196-1.01-1.15-1.356-1.494-.791-.794-2.002-.674-2.485-.289-1.095-.572-2.25.03-2.522.008l-1.885-.113a.376.376 0 0 1-.307-.182l.35-.115c-.328-1.364-1.153-2.507-2.592-2.702 0 0-.084-.432-.303-.515l-.43.508a1.397 1.397 0 0 0-.362.1l-1.837-.683 1.38 1.393s-.716 1.013-.92 1.22c-.134.189-.12.338.03.52l.268.351c.14.18.29.174.51.061l.303-.157c.13-.11.574.108.762-.066a5.54 5.54 0 0 0-.21 1.081l-1.237-.149c-.272-.035-.393 0-.56.13l-1.054.812c-.347.266-.454.723-.24 1.167l.427.891zm4.03-26.736c.504.346 1.395.719 1.395.719v-.593l-1.962-.752s0 .24.567.625zm1.396-.717v-.587l-2.228-.797s.265.283.832.671c.504.347 1.396.713 1.396.713zm0-1.339v-.596l-2.439-.897s.476.387 1.044.772c.503.348 1.395.72 1.395.72z" fill="#D7DBDD"/><path fill-rule="evenodd" clip-rule="evenodd" d="M36.96 21.51h2.494c-.105-.36-.493-.725-1.22-.725-.69 0-1.101.397-1.275.726zm-2.61-9.569l-2.433.897v.596s.893-.372 1.393-.721a16.2 16.2 0 0 0 1.04-.772zm-.471 2.923l-1.962.752v.593s.89-.373 1.394-.72c.568-.384.568-.625.568-.625zm.263-1.474l-2.225.796v.587s.893-.366 1.394-.713c.568-.388.83-.67.83-.67zm-10.354 7.395c-.725 0-1.114.365-1.216.726h2.494c-.176-.33-.585-.726-1.278-.726z" fill="#D7DBDD"/><path fill-rule="evenodd" clip-rule="evenodd" d="M31.014 11.648l-4.004-1.582c.339-.805 1.91-1.492 4.004-1.492 2.094 0 3.662.687 4.002 1.492l-4.002 1.582zm2.981 4.943l-2.7 1.42v-5.735l3.667-1.245-.967 5.56zm3.156 2.392c-1.012.175-1.881 1.414-2.594 2.528l-.081.13h-.76l-.001.13c-.081.86-.897 2.031-2.703 2.031-.833 0-1.461-.255-1.892-.603a2.217 2.217 0 0 1-.724-1.038 1.807 1.807 0 0 1-.082-.39l-.006-.13h-.755l-.082-.13c-.717-1.114-1.586-2.353-2.593-2.528l2.753-1.598 3.383 1.838 3.378-1.838 2.759 1.598zm3.714 4.216c-.289.753-.522 1.567-.522 2.382v8.761h-1.02c-.461-.447-.852-1.942-.852-1.942-.253.54.037 1.626.308 1.942h-1.312c-.324-.438-.606-1.995-.606-1.995-.393.448-.144 1.66.1 1.995h-.871c-.057-.622.121-1.3.121-1.3-.454-.084-.94-.324-.938-.833.23.218.323.215.643.209l.371-.293c-1.23.04-1.285-1.309-.313-1.94-.972.03-1.701-.547-1.345-1.583-.695-.358-.939-1.53-.426-2.045-.371-.403-.433-1.191-.196-1.731-.49 0-1.042-.197-1.35-.532a.508.508 0 0 1-.078.028c.615-.25 1.132-.64 1.485-1.123h6.8zm-.52 17.402c0 1.828-.844 3.215-2.248 3.986l.505-1.024h-.487l-.646 1.31a6.352 6.352 0 0 1-2.267.392c-2.563 0-3.24.105-4.186 1.05-.952-.945-1.629-1.05-4.185-1.05a6.46 6.46 0 0 1-2.26-.385h.02l.644-1.317h-.487l-.567 1.15a4.962 4.962 0 0 1-.392-.207l.467-.943h-.483l-.347.703c-1.098-.809-1.743-2.07-1.743-3.665v-5.744h18.662V40.6zM27.64 30.111l.788.097c.059.432-.054 1.163-.336 1.57l-.761-.221c.202-.484.254-.932.31-1.447zm-1.132-.577s.722-.036.925.042c.152.063.05.315-.144.288-.205-.025-.78-.33-.78-.33zm-.049-2.868l-.647 2.367.221-3.816 1.006-.86.511 1.123-1.293 3.704.34-2.494c.034-.174-.109-.193-.138-.024zm-.498 3.944c-.34.138-.686-.048-.58-.269.157.145.598.074.598.074l-.018.195zm-.637.316c.156.152.631.095.631.095l.019.094c-.208.276-.783.152-.65-.19zm-.746-1.522c-.181-.122-.1-.386.102-.386.22.005.513.255.805.38 0 0-.76.101-.907.006zm.722 2.095s.218.094.494.115c-.032.15-.148.297-.335.255-.155-.034-.225-.227-.16-.37zm.511-1.428c-.366.118-.527-.145-.509-.37.715-.262 1.032-.093 1.244.042.193.121.351.465.611.681a5.802 5.802 0 0 1-.239 1.003c-.731-.189-.77-.833-.495-1.227-.154-.18-.317-.224-.612-.13zm3.174.21l.784.093c.076.432-.07 1.345-.366 1.782l-.798-.23c.319-.42.436-1.165.38-1.645zm1.347.164l.648.082c.101.536.035 1.465-.308 1.995l-.752-.22c.33-.447.483-1.37.412-1.857zm1.159.144h.015a.95.95 0 0 0 .506-.07c.348.502.621 1.637.203 2.347a2.486 2.486 0 0 1-.689-.099l-.173-.052c.354-.55.3-1.519.138-2.126zm.988-.381l.457-.449c.47.407 1.081 1.319.89 2.184l-.5.457c-.101.1-.21.175-.317.241.31-.774-.088-1.962-.53-2.433zm2.69.257a1.5 1.5 0 0 0-.235.46l-.557.512c.112-.815-.435-1.78-.935-2.172l.594-.58.116.117c-.197.521.19 1.54 1.017 1.663zm-1.48-3.942c-.292.558-.262 1.204.08 1.788l-.228.224c-.998-.122-1.393-1.612-1.393-1.612-.019.13-.032.266-.03.396-.582-.215-.952-.732-.921-1.442.22.123.469.21.733.257l.067-.438c-.698-.121-1.106-.557-1.263-1.073a2.268 2.268 0 0 1-.092-.015c.122.011.246.021.373.021.414 0 .806-.064 1.175-.172.29.413.804.708 1.322.767-.082.339-.043.768.177 1.299zm-5.728-3.324c.482.66 1.265 1.147 2.19 1.34.08.348.266.728.635 1.036-.152 1.024.287 1.98 1.39 2.235.115.521.44.916.982 1.104l-.767.885c-.292.34-.673.45-.99.409l-3.424-.39c.147-.38-.246-.821-1.329-.632l1.345-3.76-.821-1.748-1.555 1.328-.115 3.947-.66-.326c-.871-.374-1.124 1.196-.298 1.203l.327.003c-.02.164.029.34.156.394-.156.067-.201.36-.006.462-.2.094-.223.391-.065.521-.173.289-.2.92.401 1.078.489.13.798-.4.9-.707l5.325 1.649c.755.216 1.29.096 1.918-.454l1.389-1.215c-.173.794.111 1.511.716 1.748 0 0-.088.71-.059 1.033H21.683v-8.76c0-.816-.235-1.63-.517-2.383h6.796zm-.899-12.168l3.665 1.245v5.735l-2.699-1.42-.966-5.56zm8.903-.683c0-1.404-2.356-2.66-4.954-2.66-2.6 0-4.956 1.256-4.956 2.66l.055.341 1.034 5.956-4.911 2.864c-.523.306-1.178 1.152-1.262 2.002h.897c.148-.849.82-1.792 2.075-1.735 1.134.061 1.804.752 2.47 1.735l.173.26.248.39H19.61c.529 1.064 1.036 2.194 1.036 3.42v15.02c0 3.864 2.97 5.703 6.184 5.703 2.48 0 2.815-.111 4.185 1.258 1.366-1.369 1.698-1.258 4.186-1.258 3.213 0 6.182-1.839 6.182-5.703v-15.02c0-1.226.502-2.356 1.031-3.42h-7.227l.25-.39.173-.26c.663-.983 1.336-1.674 2.47-1.735 1.25-.057 1.925.886 2.072 1.735h.896c-.08-.85-.739-1.696-1.259-2.002l-4.911-2.864 1.036-5.956.051-.341z" fill="#D7DBDD"/><path fill-rule="evenodd" clip-rule="evenodd" d="M39.921 28.86l.006-.44c-1.346-.03-1.657-1.622-1.657-1.622-.393 1.17.636 2.042 1.651 2.062zm-1.703 2.691l-.136-.416c-1.148.294-1.74-1.527-1.74-1.527-.37 1.324.913 2.26 1.876 1.943zm.798-1.687c-1.372.217-1.936-1.38-1.936-1.38-.151.87.412 1.751 1.319 1.845-.205 1.134.85 1.716 1.762 1.312l-.131-.394c-.793.263-1.537-.52-1.014-1.383zm-.822-4.559l.01-.439c-1.81-.376-1.657-1.622-1.657-1.622-.392 1.175.635 2.042 1.647 2.06zM26.713 43.562l-.651 1.317h.49l.648-1.317h-.487zm.977 0l-.648 1.317h.492l.643-1.317h-.487zm3.925 0l-.646 1.317h.485l.649-1.317h-.488zm.985 0l-.653 1.317h.49l.646-1.317H32.6zm-1.964 0l-.651 1.317h.49l.647-1.317h-.486zm5.729 1.317h.487l.648-1.317h-.488l-.647 1.317zm-7.693-1.317l-.646 1.317h.488l.647-1.317h-.489zm.979 0l-.647 1.317h.491l.647-1.317h-.49zm-2.219-7.072c-.09 0-.167.087-.167.2 0 .109.077.197.167.197.094 0 .172-.088.172-.197 0-.113-.078-.2-.172-.2zm-.198-30.407l.77-1.637 1.433.76 1.578-1.558 1.581 1.558 1.43-.76.766 1.637.948-.147a7.448 7.448 0 0 0-.597 1.417c-1.038-.607-2.582-1.074-4.128-1.074-1.548 0-3.088.467-4.129 1.074a7.356 7.356 0 0 0-.6-1.417l.948.147zm3.783.717c2.01 0 3.62.666 4.51 1.383 0 0 .266-1.597 1.166-2.999l-1.62.182-.847-1.802-1.63.847-1.58-1.569-1.579 1.569-1.634-.847-.848 1.802-1.619-.182c.903 1.402 1.167 2.999 1.167 2.999.887-.717 2.5-1.383 4.514-1.383z" fill="#D7DBDD"/><path fill-rule="evenodd" clip-rule="evenodd" d="M32.669 3.574a.43.43 0 0 0 .464-.392c.023-.233-.32-.861-.32-.861s-.515.553-.532.79a.43.43 0 0 0 .388.463zm2.655.963a.429.429 0 0 0 .579-.181c.112-.205.04-.916.04-.916s-.686.307-.798.517a.436.436 0 0 0 .178.58zm-5.966-.964a.428.428 0 0 0 .39-.463c-.02-.237-.53-.79-.53-.79s-.342.628-.32.86a.428.428 0 0 0 .46.393zm-2.653.964a.428.428 0 0 0 .177-.58c-.11-.21-.796-.517-.796-.517s-.07.711.044.916a.423.423 0 0 0 .575.181zm29.371 14.912c.176.388.522 1.74-.308 2.77-.943-1.887-2.243-3.504-3.293-4.201-.23-.149.126-.414.772-.498 1.96-.37 4.254.46 5.345.749-.508.381-.923.55-1.44.616.794.665 1.37 1.228 1.782 1.855-.772.192-1.201-.295-2.858-1.291zm2.469-.322c.566-.2 1.003-.742 1.22-1.238-1.438-.21-5.262-1.814-8.403-.507 1.176-1.118 2.233-1.261 2.332-2.868.49.35 1.314.55 1.778-.289-.323-.958-1.143-.182-1.257-.446-.16-.364 1.033.115 1.289-1.129-.928-.32-1.206.439-1.371.263-.153-.168.59-.485.042-1.489-.966.565-.463 1.202-.665 1.271-.25.1-.054-.679-1.121-.642-.105 1.145 1.004 1.182.82 1.365-.218.223-.507-.66-1.313-.212.014.925.761 1.433 1.537 1.215-.125 1.76-1.737 1.431-2.94 3.413 2.544 1.304 3.694 3.58 5.26 5.151.518-.364 1.403-1.998 1.403-1.998 1.695 1.313 2.887.006 2.887.006-.584-.598-.605-1.051-1.498-1.865zM36.034 51.353l-.863-2.808c1.838-.378 3.118-.77 4.094-1.147v1.752l1.516.61a24.841 24.841 0 0 1-4.747 1.593zm-5.017 1.64c-1.717 0-3.389-.256-4.82-.607l.911-2.942c.604.14 2.113.325 3.909.325 1.796 0 3.299-.185 3.908-.325l.912 2.942c-1.436.351-3.111.608-4.82.608zm-9.772-3.233l1.52-.61v-1.752c.976.378 2.257.769 4.094 1.147l-.86 2.808a25.13 25.13 0 0 1-4.754-1.593zm18.49-.976v-2.146c-1.66.76-3.772 1.378-6.488 1.622l-.124.767c.232.032.523.061.915.085a25.46 25.46 0 0 1-3.021.207c-.715 0-2.013-.067-3.022-.207.39-.024.68-.053.912-.085l-.123-.767c-2.717-.244-4.832-.862-6.488-1.622v2.146l-2.252.924c1.668.869 3.587 1.576 5.803 2.148l-.26.9c1.271.37 3.3.749 5.43.749 2.128 0 4.158-.379 5.427-.75l-.263-.899c2.217-.572 4.14-1.28 5.806-2.148l-2.253-.924zM3.095 20.74c.411-.627.985-1.19 1.784-1.853-.523-.067-.933-.237-1.444-.618 1.093-.29 3.392-1.12 5.348-.75.644.085 1.007.35.772.499-1.053.697-2.352 2.314-3.298 4.2-.825-1.029-.478-2.381-.303-2.77-1.654.997-2.086 1.484-2.86 1.292zm1.779.247s.884 1.634 1.4 1.998c1.568-1.57 2.72-3.847 5.263-5.151-1.204-1.982-2.82-1.65-2.937-3.412.77.217 1.52-.293 1.536-1.216-.81-.443-1.097.438-1.315.212-.182-.186.926-.22.82-1.364-1.068-.033-.87.741-1.122.641-.2-.071.302-.708-.667-1.27-.545 1.006.2 1.32.045 1.488-.164.176-.444-.582-1.369-.263.25 1.244 1.447.764 1.285 1.129-.113.264-.931-.511-1.253.448.46.836 1.287.638 1.773.288.102 1.613 1.157 1.745 2.336 2.867-3.141-1.307-6.966.296-8.408.507.22.496.657 1.038 1.221 1.234-.888.823-.91 1.274-1.495 1.868 0 0 1.19 1.31 2.887-.004zm24.763-1.197v.946c.328-.393.956-.316.956-.316v1.361s-.02.672-.258.962h1.363c-.237-.29-.26-.962-.26-.962V20.42s.629-.077.954.316v-.946h-2.755z" fill="#D7DBDD"/><path d="M60.858 20.197a3.058 3.058 0 0 1-.402-.54 12.83 12.83 0 0 0-.236-.352c.238-.276.44-.595.592-.944l.61-1.387-1.499-.216c-.254-.037-.661-.144-1.136-.27-.92-.24-2.1-.55-3.386-.684.44-.193.812-.54 1.073-1.01l.246-.444s-.066-.622-.308-.818c.094-.193.164-.406.212-.637l.203-.994-.958-.328a2.595 2.595 0 0 0-.445-.112 3.056 3.056 0 0 0-.243-.577l-.57-1.043-1.026.6c-.255.151-.47.321-.645.513a2.702 2.702 0 0 0-.489-.043s-.584-.064-1.233.17l-.828-.858-.978-1.046c-.915-.98-2.156-1.269-3.421-.788-.483-.48-1.236-.88-2.405-.88-.395 0-.743.047-.949.074 0 0-1.609.293-2.513 1.152l-1.098-.522c-.736 1.157-1.994 1.525-1.994 1.525a2.728 2.728 0 0 0-.442-.943l.072-.409c0-.012.247-1.394 1-2.565l1.309-2.038-1.855.209a5.033 5.033 0 0 0-.03-.659l-.165-1.586-1.454.656a6.322 6.322 0 0 0-.421.21l-.287-.612-.666.347a5.172 5.172 0 0 0-.27-.565L33.056.377l-1.09 1.174a5.304 5.304 0 0 0-.288.338l-.66-.656-.666.66a5.022 5.022 0 0 0-.285-.338L28.975.37l-.77 1.414a5.67 5.67 0 0 0-.268.564l-.664-.345-.289.61a7.37 7.37 0 0 0-.422-.211l-1.459-.657-.161 1.592a5.1 5.1 0 0 0-.03.655l-1.857-.21 1.314 2.04c.755 1.17.996 2.55.998 2.561l.068.409a2.747 2.747 0 0 0-.443.946s-1.188-.508-1.983-1.526l-1.12.534c-1.278-.863-2.07-1.2-3.448-1.238-1.169-.032-1.922.4-2.403.88-1.268-.48-2.504-.188-3.417.789 0 0-.6.652-.98 1.046-.38.396-.94.722-.94.722s-.794-.178-1.612.01a2.748 2.748 0 0 0-.651-.515l-1.029-.6-.566 1.049c-.107.2-.186.39-.239.57a2.74 2.74 0 0 0-.445.113l-.952.328.2.988c.047.237.116.45.212.644a2.333 2.333 0 0 0-.145.337l-.161.48.245.443c.258.47.63.818 1.07 1.01-1.288.135-2.466.445-3.388.687-.473.125-.883.232-1.136.27l-1.506.217.342.775.274.615c.157.346.358.665.595.938-.087.127-.469.72-.635.891l-.76.775.73.806c.09.098.91.956 2.233.957.362 0 .721-.062 1.078-.189.353.553.77 1.112 1.155 1.387-.704.827-1.506 1.544-2.646 2.088l-.953.453.409 1.09c.267.656.785 1.378 1.79 1.655-.216.641-.319 1.252-.41 1.793-.215 1.29-.305 1.824-1.441 2.223l-1.02.357.292 1.04c.236.847.587 1.408.97 1.775l-.676.746s1.608 1.205 3.184 1.352c.022.003 1.368.089 1.971-.68.242.872.624 1.675.97 2.406.713 1.498 1.091 2.386.614 3.194L7.588 45.25l2.118-.09c.924-.038 1.784-.093 2.526-.277 0 .04-.002.078-.006.115l-.174 1.57 1.856-.392c.196-.059.378-.135.546-.225 1.15 1.343 3.1 2.392 5.731 2.392h.154l-3.024 1.241 2.201 1.147c1.45.755 3.063 1.388 4.899 1.923l-.256.881 1.106.323c.638.189 2.943.8 5.751.8 2.809 0 5.111-.613 5.751-.8l1.104-.323-.257-.88c1.841-.536 3.453-1.169 4.903-1.924l2.203-1.147-3.027-1.241h.152c2.63 0 4.581-1.05 5.73-2.392.167.088.35.166.544.225l1.855.391-.17-1.567a1.172 1.172 0 0 1-.006-.116c.742.183 1.602.238 2.526.277l2.115.089-1.072-1.825c-.479-.81-.099-1.698.612-3.195.347-.73.729-1.535.97-2.407.41.31.846.497 1.285.594 0 0 .34.101.664.11.937.028 1.402-.237 2.047-.642l1.167-.735-.684-.747c.384-.367.734-.928.972-1.77l.294-1.043-1.022-.357c-1.137-.399-1.225-.932-1.442-2.221-.092-.543-.193-1.154-.41-1.795 1.004-.278 1.521-1 1.79-1.655l.407-1.09-.952-.453c-1.142-.544-1.944-1.26-2.647-2.088.386-.276.803-.835 1.159-1.386.354.126.712.187 1.076.188 1.324 0 2.144-.858 2.233-.956l.73-.804-.758-.777z" fill="#fff"/><path fill-rule="evenodd" clip-rule="evenodd" d="M31.016 46.316c-.95-.946-1.628-1.049-4.19-1.049-3.06 0-5.14-1.794-5.14-4.663v-5.741h18.658v5.741c0 2.87-2.076 4.663-5.142 4.663-2.563 0-3.24.103-4.186 1.05zm-9.33-11.968V25.59c0-.816-.234-1.63-.518-2.382h6.796c.624.857 1.755 1.43 3.052 1.43 1.293 0 2.424-.573 3.049-1.43h6.797c-.288.752-.52 1.566-.52 2.382v8.76H21.687z" fill="#FEE80E"/><path d="M22.767 47.4v1.75l-1.517.61a25.036 25.036 0 0 0 4.749 1.593l.862-2.806c-1.839-.379-3.119-.772-4.094-1.147zm8.249 2.369c-1.795 0-3.305-.185-3.908-.326l-.91 2.943c1.43.35 3.104.607 4.818.607 1.71 0 3.382-.256 4.82-.607l-.914-2.943c-.607.14-2.11.326-3.906.326zm8.247-2.369c-.976.375-2.254.768-4.093 1.147l.864 2.806a24.865 24.865 0 0 0 4.745-1.593l-1.516-.61V47.4zM16.745 19.422c-2.082 2.226-1.18 3.557-.76 3.968-.775-.167-1.932-1.154-1.668-2.11-.247.295-.499.616-.76.947a28.62 28.62 0 0 0-1.39 2.02c-.63 1.876.527 3.815 2.496 4.674-2.19-.322-3.172-2.269-3.164-3.508-1.047 1.975-1.545 3.778-1.5 5.292.02.563.069 1.09.143 1.584.502.954 1.31 1.304 2.747 1.478-1.308.083-1.999.022-2.568-.573.891 3.826 5.052 7.14 6.748 9.978-1.696-2.206-5.208-5.489-6.439-7.865-.095.858.134 3.057 1.202 4.41-1.572-1.545-1.694-3.891-1.593-5.262a9.537 9.537 0 0 1-.685-3.347c-.032-1.155.05-2.155.225-3.056-.994 1.413-2.429 1.957-3.136 4.108.137-2.775 2.21-2.818 3.759-6.184.6-1.473 1.472-2.744 2.438-4.188-1.227.403-2.145.689-3.564 2.244 1.008-2.384 6.833-5.063 9.5-7.656-.8.169-4.071.252-5.429-.655 2.461.667 7.936-.095 10.004-1.509-1.428 2.053-4.534 2.17-8.317 6.253a9.742 9.742 0 0 1 1.711-1.043zm2.843-.236c2.377-1.284 8.19-4.11 4.25-7.157-.538-.413-1.128-.785-1.625-1.25-.615.475.231 1.652.442 2.082 0 0-1.31.134-1.626.134-2.026-.01-4.151-1.209-3.075-3.51-.807.167-.906.942-1.152 1.606-.518-.35-1.415-1.1-2.108-.995.563 1.8 2.932 3.422 4.769 3.79-1.86 1.012-5.303 1.764-7.115-.413-1.273 2.46.5 3.49 2.236 4.779-6.613 3.016-5.637 6.402-9.975 9.066.563.264 3.072-.266 3.295-.298-.943 1.222-1.382 1.738-1.657 2.331-.263.558-.383 1.186-.643 2.541-.204 1.072-.578 2.14-1.88 2.848.51.924 1.645.202 2.119.078-.065.098-.224 1.212-.65 1.749 2.228-.145 1.196-4.842 3.427-3.711.628.317.817 1.056.526 1.661-1.463 3.02 1.864 5.683 1.683 8.329.817-.006 1.665-.028 2.2-1.134.277.552.71 1.326.95 2.074l.668-1.135c.41 1.878 2.16 3.614 4.527 3.769-1.129-1.785.223-4.226-2.518-6.818.34-.276 1.131-.807 1.414-1.17-3.366.396-6.878-2.267-5.284-3.53 1.043-.826 1.498.887 3.108.599l-.629-.543c.221-.218.473-.503.734-.717-.682-.083-1.43-.52-1.43-.52l.408-.674c-3.942-.005-4.044-3.02-2.442-3.14.754-.056 1.726 1.33 4.153 1.042-.31-.374-.434-.938-.58-1.356.585-.054 1.275-.05 1.828-.318-1.185-.154-1.486-.55-2.471-1.299l1.146-.42c-1.662-.828-1.56-2.273-1.613-3.78.87.501 1.893 1.276 2.983.916.26-.088.426-.207.432-.478-1.558-.613-2.556-3.012 1.175-5.028zm32.662 8.866c.174.902.263 1.903.225 3.056a9.619 9.619 0 0 1-.685 3.347c.102 1.371-.021 3.717-1.593 5.263 1.066-1.354 1.297-3.552 1.203-4.41-1.236 2.376-4.745 5.659-6.442 7.864 1.697-2.837 5.86-6.153 6.753-9.978-.575.595-1.26.657-2.57.575 1.436-.175 2.241-.525 2.745-1.48.075-.494.124-1.021.144-1.585.047-1.513-.454-3.316-1.5-5.29.01 1.238-.972 3.186-3.164 3.508 1.965-.86 3.125-2.799 2.494-4.675a27.348 27.348 0 0 0-1.389-2.02c-.258-.33-.51-.65-.759-.947.263.956-.894 1.944-1.67 2.11.422-.41 1.32-1.742-.759-3.967a9.602 9.602 0 0 1 1.712 1.043c-3.782-4.084-6.886-4.2-8.32-6.254 2.072 1.414 7.548 2.177 10.006 1.51-1.357.906-4.63.824-5.431.655 2.667 2.593 8.497 5.271 9.502 7.655-1.417-1.555-2.34-1.84-3.561-2.242.966 1.444 1.836 2.713 2.434 4.185 1.553 3.367 3.626 3.41 3.762 6.186-.707-2.152-2.142-2.696-3.138-4.109zm4.173 3.84c-.261-1.355-.377-1.983-.64-2.54-.273-.594-.714-1.11-1.66-2.332.224.032 2.737.563 3.299.299-4.338-2.665-3.363-6.05-9.978-9.067 1.738-1.29 3.508-2.318 2.238-4.78-1.812 2.179-5.258 1.426-7.115.414 1.841-.367 4.206-1.989 4.769-3.79-.695-.105-1.592.646-2.11.995-.246-.664-.342-1.44-1.149-1.608 1.078 2.304-1.05 3.503-3.082 3.512-.31 0-1.62-.133-1.62-.133.21-.43 1.055-1.607.438-2.082-.496.464-1.083.836-1.622 1.25-3.941 3.047 1.875 5.874 4.251 7.156 3.725 2.016 2.733 4.414 1.175 5.029.004.27.174.39.433.477 1.085.36 2.112-.414 2.978-.915-.05 1.505.054 2.952-1.609 3.78l1.144.42c-.987.748-1.283 1.144-2.469 1.298.55.27 1.245.264 1.83.32-.15.416-.278.98-.584 1.355 2.43.288 3.404-1.098 4.153-1.043 1.597.12 1.503 3.136-2.442 3.14l.41.675s-.747.436-1.432.52c.26.213.516.497.736.717l-.63.542c1.607.289 2.066-1.424 3.108-.6 1.593 1.265-1.917 3.927-5.285 3.531.284.362 1.073.895 1.417 1.172-2.745 2.59-1.397 5.032-2.52 6.818 2.361-.156 4.114-1.893 4.529-3.77l.666 1.135c.238-.748.676-1.523.949-2.074.532 1.106 1.384 1.128 2.206 1.133-.186-2.646 3.14-5.308 1.68-8.328-.292-.605-.105-1.345.525-1.662 2.232-1.13 1.196 3.567 3.427 3.711-.427-.536-.587-1.65-.647-1.748.472.124 1.604.847 2.115-.08-1.3-.707-1.675-1.776-1.882-2.846z" fill="#fff"/><path d="M34.064 23.207c-.624.856-1.756 1.43-3.047 1.43-.3 0-.592-.033-.867-.087.077.354.259.717.635 1.032-.153 1.024.29 1.983 1.39 2.235.118.521.439.916.983 1.103l-.766.885c-.294.34-.68.447-.99.409l-3.422-.39c.148-.38-.248-.82-1.331-.63l1.343-3.763-.819-1.746-1.553 1.328-.114 3.946-.669-.326c-.861-.375-1.115 1.196-.295 1.203l.33.003c-.021.161.03.34.159.398-.155.062-.203.354-.009.457-.194.094-.223.393-.064.522-.17.29-.202.917.398 1.077.493.129.803-.4.902-.707l5.327 1.649c.748.216 1.29.095 1.915-.454l1.389-1.215c-.174.794.11 1.51.715 1.747 0 0-.096.728-.058 1.03l1.862.005h2.934V25.59c0-.817.232-1.632.52-2.383h-6.798zM26.09 37.943l.104.13c.144.179.228.136.394.042l.241-.129c.152-.114 1.143.263 1.2-.56.108.615-.623 1.91-.183 2.633l.594.973-1.942.029a.406.406 0 0 0-.382.245l-.509 1.054c-.13.277-.122.566.045.758l.343.387s.282-.24.372-.551l-.152-.157c-.126-.122-.126-.234-.056-.386l.313-.65c.12-.254.243-.309.519-.245l1.57.34c.115.027.3.084.412-.108.192-.342.533-.364.878-.312.861.13 2.85.336 3.56-.493.834 1.106 2.462 1.106 2.355 1.685l-.343 1.901h.517l.315-1.943c.036-.226.175-.538-.07-.711-.099-.079-.145-.118-.372-.507-.296-.519-.28-1.294-.567-1.962.271-.318.564-.427.82-.368.573.14.73 1.13 1.545 1.938-.093-.359-.132-.753-.325-1.094 0 0 .566.438.711.952.093.322.188.557.478.706.192.07.42-.023.65-.298 0 0-.538-.765-.931-1.264-.54-.687-1.26-1.375-2.243-1.296-.31.026-.61.167-.894.335-1.115-.624-1.982.037-2.328.037l-2.09-.124c-.412-.026-.735-.504-.735-.504-.053-1.767-1.474-2.472-1.964-2.472 0 0 .046-.32-.084-.43l-.437.548-1.211-.442.95.778-1.032 1.198c-.105.118-.089.273-.037.337z" fill="#fff"/><path d="M24.716 40.427c-.291.226-.28.542-.102.895l.175.326.457-.347-.104-.224c-.073-.158-.07-.319.059-.42l.653-.494c.184-.133.241-.148.438-.12l1.381.291s-.209-.305-.28-.616l-1.3-.17c-.184-.024-.295.055-.457.176l-.92.703zm8.835 4.103h.521l.838-2.067c.03-.07.07-.103.101-.162a6.121 6.121 0 0 1-.91-.434c.21.282.375.403.288.662l-.838 2zm-1.634-28.903l1.96-.752s0 .24-.566.624c-.502.348-1.394.719-1.394.719v-.591zm0-1.432l2.225-.794s-.266.282-.831.669c-.502.345-1.394.716-1.394.716v-.591zm0-1.345l2.434-.897s-.475.385-1.04.772c-.502.348-1.394.718-1.394.718v-.593zm2.077 3.75l.967-5.56-3.665 1.245v5.735l2.698-1.42z" fill="#fff"/><path d="M27.473 21.52l.082.129h.754l.008.131c.01.126.037.256.08.388.116.36.348.736.723 1.04.433.348 1.06.603 1.893.603 1.805 0 2.621-1.17 2.7-2.03l.005-.132h.757l.08-.129c.713-1.114 1.583-2.352 2.594-2.528l-2.756-1.599-3.379 1.839-3.38-1.839-2.754 1.599c1.007.176 1.877 1.414 2.593 2.528z" fill="#fff"/><path d="M30.113 14.195v.591s-.892-.37-1.393-.716c-.569-.388-.833-.669-.833-.669l2.226.794zm0-1.345v.593s-.892-.37-1.393-.718c-.569-.388-1.045-.772-1.045-.772l2.438.897zm0 3.37s-.892-.373-1.393-.72c-.569-.384-.569-.625-.569-.625l1.962.752v.592zm.615 1.8v-5.735l-3.66-1.245.963 5.56 2.697 1.42zm.287-9.433c-2.094 0-3.663.686-4.004 1.49l4.004 1.582 4.001-1.582c-.34-.804-1.907-1.49-4-1.49zm.002-2.295c1.543 0 3.088.467 4.126 1.073.17-.558.351-.957.597-1.414l-.948.145-.766-1.637-1.432.761-1.577-1.56-1.58 1.56-1.43-.761-.773 1.637-.947-.145a7.3 7.3 0 0 1 .6 1.414c1.043-.606 2.58-1.073 4.13-1.073zm26.127 12.604c.518-.066.934-.238 1.44-.618-1.093-.29-3.385-1.118-5.341-.747-.648.085-1.006.348-.775.497 1.05.697 2.35 2.313 3.293 4.2.83-1.03.481-2.383.308-2.77 1.655.997 2.087 1.481 2.856 1.292-.41-.628-.987-1.192-1.781-1.854zM6.266 22.227c.945-1.886 2.243-3.503 3.296-4.2.235-.148-.128-.411-.77-.496-1.96-.371-4.256.457-5.35.747.513.38.923.552 1.444.618-.796.663-1.373 1.226-1.781 1.854.772.19 1.202-.295 2.855-1.294-.171.39-.52 1.742.306 2.771z" fill="#fff"/><path fill-rule="evenodd" clip-rule="evenodd" d="M14.647 42.652l-.667 1.135c-.24-.748-.673-1.523-.95-2.074-.536 1.106-1.384 1.128-2.201 1.133.181-2.646-3.146-5.308-1.682-8.328.291-.605.101-1.345-.527-1.662-2.23-1.13-1.199 3.567-3.427 3.711.426-.536.585-1.65.65-1.748-.474.124-1.609.848-2.119-.078 1.303-.71 1.676-1.776 1.881-2.848.26-1.355.38-1.984.642-2.54.275-.595.715-1.11 1.657-2.332-.223.032-2.732.562-3.296.298 4.34-2.665 3.363-6.05 9.976-9.067-1.735-1.29-3.508-2.318-2.236-4.779 1.813 2.178 5.256 1.425 7.115.413-1.837-.367-4.206-1.988-4.768-3.79.692-.105 1.59.646 2.106.995.248-.665.346-1.439 1.153-1.605-1.076 2.3 1.05 3.5 3.075 3.51.316 0 1.626-.134 1.626-.134-.21-.43-1.057-1.607-.442-2.082.498.465 1.087.836 1.625 1.25 3.94 3.047-1.873 5.874-4.252 7.156-3.728 2.016-2.731 4.416-1.172 5.029-.006.27-.173.39-.432.477-1.09.361-2.113-.415-2.983-.915.053 1.506-.05 2.952 1.613 3.78l-1.147.418c.985.75 1.286 1.147 2.471 1.3-.553.27-1.24.264-1.828.32.147.417.27.98.58 1.355-2.427.288-3.399-1.098-4.152-1.043-1.602.12-1.501 3.136 2.441 3.14l-.409.676s.748.436 1.432.519c-.262.212-.513.499-.734.717l.629.543c-1.61.288-2.065-1.425-3.109-.6-1.593 1.264 1.918 3.926 5.284 3.53-.282.363-1.073.895-1.414 1.172 2.742 2.59 1.39 5.032 2.518 6.818-2.366-.158-4.117-1.893-4.527-3.77zm3.084-2.915c.762-.604 1.393-.906 1.361-2.367-1.143.584-4.386.554-5.74-1.311-.384-.531.027-.798.396-.38.927 1.051 2.645.575 3.271.27-.099-.36-.377-.831-.612-1.033.235-.23.899-.574 1.033-1.165-.355-.192-1.73-.33-1.73-.33.221-.213.496-.51.332-1.297-1.406.432-3.14-.155-3.536-.675-.388-.511.007-.99.335-.652.699.735 4.15 1.578 5.434.299-.476-.132-1.003-.558-1.096-.822 1.187-.12 2.135-.821 2.213-1.695-.657 0-1.899-.047-2.322-.366.57-.21.93-.416 1.11-1.054-2.172-.132-2.345-1.746-2.357-2.013 1.416.816 3.907.453 3.263-1.556-1.177-.064-2.363-1.968.874-3.717 2.944-1.595 6.29-3.312 5.994-6.139-.193-1.81-3.172-3.044-3.55-3.96-1.243.592-1.493 1.279-.932 2.43 0 0-2.77.275-2.99-1.43-.094-.763.417-1.48.966-2.025-.312 0-2.399-.559-3.028 1.14-1.17-.797-2.17-.768-2.959.075 1.257.745 2.037 3.307 4.115 4.063-1.479.801-3.87.466-5.266-1.997-1.32 1.99-2.08 3.96.751 6.063-5.155 2.347-5.118 6.83-9.6 8.966.454 1.22 1.413 1.22 2.635 1.03-1.939 2.518-.286 5.155-3.356 6.231.288 1.028.865 1.85 1.996 1.549-.322.501-.533.492-1.035 1.042 1.678 1.057 3.667.292 4.118-3.098.08-.605.913-.226.626.368-1.912 3.953 2.923 6.928 1.213 9.83 1.508-.064 2.657-.182 3.286-.69.308.607.492 1.21.426 1.805.834-.169 1.136-.662 1.194-1.229.547 1.595 2.498 3.295 5.621 3.295-1.657-2.36-.114-4.757-2.454-7.455z" fill="#231F20"/><path fill-rule="evenodd" clip-rule="evenodd" d="M10.32 33.195c.57.595 1.261.656 2.569.574-1.437-.175-2.245-.525-2.748-1.48a14.182 14.182 0 0 1-.142-1.583c-.045-1.515.453-3.317 1.5-5.293-.008 1.239.974 3.186 3.164 3.51-1.969-.86-3.127-2.8-2.495-4.676.41-.655.872-1.331 1.39-2.02.259-.33.511-.65.758-.947-.263.955.894 1.944 1.667 2.11-.419-.41-1.32-1.741.76-3.967a9.778 9.778 0 0 0-1.709 1.043c3.78-4.084 6.889-4.2 8.317-6.253-2.068 1.414-7.543 2.177-10.004 1.509 1.358.906 4.63.824 5.43.655-2.668 2.593-8.493 5.272-9.501 7.656 1.418-1.557 2.337-1.842 3.564-2.243-.966 1.444-1.838 2.714-2.438 4.187-1.55 3.366-3.622 3.409-3.759 6.185.707-2.152 2.141-2.698 3.136-4.11-.175.902-.257 1.903-.226 3.057a9.551 9.551 0 0 0 .686 3.346c-.101 1.372.021 3.717 1.593 5.264-1.068-1.354-1.297-3.553-1.202-4.411 1.23 2.376 4.743 5.66 6.44 7.865-1.697-2.838-5.858-6.152-6.75-9.978zM49.192 21.79c1.221.401 2.143.686 3.561 2.243-1.005-2.384-6.836-5.063-9.503-7.656.801.167 4.074.251 5.43-.655-2.457.668-7.933-.095-10.003-1.51 1.43 2.055 4.536 2.17 8.318 6.254a9.602 9.602 0 0 0-1.712-1.043c2.08 2.226 1.181 3.557.76 3.968.775-.167 1.932-1.156 1.67-2.111.248.297.5.617.759.948.52.688.979 1.364 1.388 2.02.63 1.876-.529 3.815-2.493 4.675 2.191-.323 3.173-2.271 3.162-3.51 1.047 1.976 1.548 3.778 1.501 5.293-.02.562-.069 1.09-.143 1.584-.505.954-1.312 1.304-2.747 1.48 1.31.08 1.996.02 2.571-.575-.893 3.826-5.054 7.14-6.753 9.978 1.699-2.206 5.206-5.49 6.442-7.865.095.858-.136 3.057-1.203 4.41 1.574-1.546 1.695-3.891 1.593-5.264.398-.987.648-2.09.685-3.345a13.577 13.577 0 0 0-.225-3.057c.995 1.413 2.428 1.958 3.137 4.11-.136-2.776-2.209-2.82-3.761-6.185-.6-1.473-1.468-2.743-2.434-4.187z" fill="#231F20"/><path fill-rule="evenodd" clip-rule="evenodd" d="M56.19 34.819c.062.097.22 1.212.647 1.748-2.23-.144-1.196-4.842-3.427-3.71-.63.316-.817 1.056-.525 1.66 1.458 3.02-1.866 5.683-1.68 8.33-.821-.006-1.673-.028-2.205-1.134-.274.551-.712 1.326-.95 2.073l-.667-1.134c-.414 1.877-2.166 3.614-4.527 3.77 1.122-1.786-.227-4.227 2.52-6.818-.346-.277-1.134-.81-1.418-1.172 3.369.396 6.879-2.266 5.285-3.53-1.043-.825-1.5.888-3.107.6l.63-.543c-.22-.218-.477-.504-.737-.717.685-.083 1.431-.52 1.431-.52l-.409-.675c3.944-.004 4.04-3.02 2.443-3.14-.75-.055-1.724 1.33-4.154 1.043.306-.375.434-.938.584-1.355-.585-.056-1.28-.05-1.831-.32 1.187-.153 1.483-.55 2.47-1.298l-1.142-.42c1.662-.828 1.557-2.274 1.609-3.78-.867.5-1.895 1.276-2.98.915-.26-.087-.429-.207-.434-.477 1.56-.613 2.553-3.013-1.173-5.029-2.377-1.282-8.193-4.11-4.252-7.156.54-.414 1.124-.785 1.62-1.25.62.475-.226 1.652-.435 2.082 0 0 1.31.133 1.62.133 2.031-.009 4.159-1.208 3.081-3.512.807.169.903.944 1.15 1.608.517-.35 1.414-1.1 2.11-.995-.565 1.802-2.93 3.423-4.77 3.79 1.858 1.012 5.304 1.765 7.115-.413 1.27 2.461-.5 3.49-2.237 4.78 6.614 3.015 5.638 6.401 9.977 9.066-.561.264-3.075-.266-3.3-.298.948 1.221 1.389 1.737 1.662 2.331.262.557.378 1.185.64 2.54.207 1.073.58 2.14 1.88 2.849-.51.926-1.642.202-2.114.078zm-.257-6.731c1.22.19 2.18.19 2.636-1.029-4.485-2.136-4.447-6.62-9.601-8.966 2.833-2.103 2.069-4.074.753-6.063-1.393 2.463-3.793 2.798-5.265 1.997 2.074-.756 2.857-3.318 4.114-4.065-.786-.842-1.79-.87-2.962-.073-.632-1.699-2.715-1.14-3.028-1.14.547.546 1.064 1.26.965 2.025-.215 1.705-2.987 1.43-2.987 1.43.56-1.151.311-1.838-.933-2.43-.38.916-3.355 2.15-3.548 3.959-.299 2.828 3.051 4.545 5.992 6.14 3.237 1.75 2.05 3.653.877 3.717-.65 2.01 1.842 2.372 3.26 1.556-.006.267-.186 1.881-2.36 2.014.184.637.543.843 1.112 1.053-.425.319-1.665.366-2.32.366.077.874 1.026 1.575 2.215 1.695-.095.263-.623.69-1.098.822 1.284 1.279 4.735.436 5.437-.299.322-.339.714.14.331.65-.398.522-2.13 1.109-3.537.677-.161.787.11 1.085.332 1.297 0 0-1.376.137-1.731.33.134.591.8.935 1.035 1.165-.234.202-.513.673-.613 1.034.63.304 2.349.78 3.27-.272.374-.417.782-.15.4.38-1.355 1.866-4.598 1.895-5.743 1.312-.032 1.461.6 1.762 1.361 2.367-2.344 2.698-.795 5.095-2.452 7.455 3.121 0 5.072-1.703 5.62-3.295.063.567.362 1.06 1.194 1.229-.065-.596.121-1.198.424-1.805.631.508 1.783.626 3.29.69-1.708-2.902 3.127-5.877 1.21-9.83-.285-.594.548-.972.629-.368.448 3.39 2.44 4.155 4.118 3.098-.504-.55-.713-.54-1.036-1.042 1.13.3 1.706-.52 1.996-1.549-3.068-1.076-1.415-3.713-3.357-6.232zM24.717 40.427l.92-.7c.165-.123.272-.203.459-.18l1.298.172c.07.31.28.615.28.615l-1.382-.29c-.197-.023-.254-.014-.438.118l-.653.495c-.131.101-.134.262-.06.42l.105.227-.456.346-.176-.328c-.177-.353-.189-.67.103-.895zm2.11-2.441l-.24.127c-.166.096-.25.138-.394-.04l-.104-.132c-.052-.062-.069-.217.037-.335l1.028-1.198-.947-.778 1.207.444.442-.55c.13.11.084.429.084.429.49 0 1.91.705 1.964 2.474 0 0 .323.476.732.5l2.092.127c.346 0 1.213-.661 2.329-.037.28-.169.584-.304.893-.34.983-.072 1.704.613 2.243 1.301.394.498.933 1.264.933 1.264-.232.274-.46.367-.652.298-.29-.15-.384-.384-.477-.706-.147-.514-.712-.953-.712-.953.193.345.232.736.325 1.095-.819-.808-.972-1.798-1.545-1.934-.253-.063-.548.045-.821.362.288.67.273 1.445.569 1.963.225.388.272.423.372.508.242.173.105.484.069.71l-.311 1.944h-.52l.343-1.902c.105-.58-1.522-.58-2.355-1.684-.71.83-2.7.622-3.56.493-.348-.052-.687-.03-.878.312-.112.191-.3.134-.413.107l-1.57-.339c-.276-.064-.395-.01-.517.244l-.314.65c-.07.153-.066.264.06.387l.146.159c-.089.31-.371.549-.371.549l-.343-.386c-.167-.194-.175-.477-.044-.752l.509-1.061c.06-.118.168-.246.381-.246l1.943-.03-.595-.968c-.443-.727.292-2.022.183-2.634-.055.821-1.047.446-1.201.558zm8.083 4.477l-.838 2.066h-.52l.837-2c.087-.26-.077-.38-.288-.663.312.176.534.291.91.435-.031.058-.07.091-.1.162zm-10.22-.235l.943-.799-.144-.286c-.103-.206-.048-.218.06-.3l.499-.37c.115-.095.236-.084.377-.05l1.495.35h-1.577c-.365.026-.47.164-.602.435l-.108.221-.406.834c-.138.286-.21.67.152 1.1l.287.342-.581 1.175h.49l.402-.815c.03-.03.624-.571.75-1.132-.171-.14-.294-.238-.199-.434l.183-.39c.059-.129.08-.181.254-.148l1.568.34c.196.054.483.14.693-.176.214-.328.244-.293.742-.243l.8.085c1.096.104 2.188-.17 2.615-.507.148.34.444.6.583.864.05.098-.034.236-.102.409l-.899 2.147h1.386l.785-1.96c.073-.187.178-.337.26-.412l-.45 2.372h1.345l.357-2.347c.079-.52.032-.69-.219-.904-.56-.473-.548-1.467-.729-2.07a.529.529 0 0 1 .338-.067c.294.026.514.775.86 1.257.688.967 1.628 2.035 2.704.53a3.378 3.378 0 0 0-.347-.476l-.3-.352c-.175-.195-1.008-1.148-1.356-1.492-.79-.795-2.001-.674-2.484-.288-1.094-.574-2.248.029-2.521.006l-1.884-.113a.371.371 0 0 1-.308-.182l.35-.114c-.328-1.364-1.15-2.506-2.59-2.701 0 0-.084-.43-.304-.514l-.43.506a1.402 1.402 0 0 0-.36.102l-1.837-.684 1.38 1.393s-.716 1.013-.92 1.22c-.135.19-.123.338.029.519l.267.35c.139.183.29.175.51.062l.303-.157c.131-.11.573.108.764-.065a5.38 5.38 0 0 0-.21 1.08l-1.238-.148c-.271-.037-.394 0-.558.128l-1.056.813c-.345.265-.452.721-.24 1.166l.427.89zM28.72 15.5c.501.347 1.392.72 1.392.72v-.593l-1.961-.751s0 .24.569.625zm1.392-.714v-.591l-2.225-.794s.264.281.833.669c.501.345 1.392.716 1.392.716zm0-1.343v-.593l-2.437-.897s.476.385 1.045.772c.501.348 1.392.718 1.392.718z" fill="#231F20"/><path fill-rule="evenodd" clip-rule="evenodd" d="M36.958 21.52h2.492c-.102-.362-.49-.726-1.218-.726-.688 0-1.102.399-1.274.726zm-2.608-9.567l-2.433.897v.593s.892-.37 1.394-.718c.568-.387 1.04-.772 1.04-.772zm-.473 2.923l-1.96.751v.593s.892-.373 1.394-.72c.566-.383.566-.624.566-.624zm.265-1.475l-2.225.794v.591s.893-.37 1.394-.716c.566-.388.83-.669.83-.669zm-10.351 7.393c-.727 0-1.113.364-1.217.726h2.494c-.178-.328-.585-.726-1.277-.726z" fill="#231F20"/><path fill-rule="evenodd" clip-rule="evenodd" d="M31.015 11.66l-4.004-1.582c.34-.804 1.91-1.49 4.004-1.49 2.093 0 3.661.686 4.001 1.49l-4.001 1.582zm2.98 4.942l-2.698 1.42v-5.736l3.665-1.245-.968 5.56zm3.154 2.39c-1.011.176-1.88 1.414-2.593 2.529l-.08.128h-.76l-.003.131c-.079.862-.895 2.03-2.7 2.03-.833 0-1.46-.254-1.893-.603a2.224 2.224 0 0 1-.724-1.039 1.723 1.723 0 0 1-.08-.388l-.007-.131h-.754l-.082-.128c-.716-1.115-1.586-2.353-2.593-2.53l2.753-1.598 3.382 1.839 3.378-1.838 2.756 1.598zm3.714 4.215c-.29.752-.521 1.567-.521 2.383v8.758h-1.018c-.464-.449-.855-1.941-.855-1.941-.252.538.038 1.625.309 1.941h-1.311c-.326-.44-.607-1.995-.607-1.995-.392.447-.144 1.658.1 1.995h-.872c-.055-.622.124-1.3.124-1.3-.457-.084-.942-.324-.94-.831.23.215.324.212.643.205l.37-.291c-1.228.04-1.285-1.309-.311-1.94-.974.031-1.7-.548-1.347-1.582-.692-.358-.936-1.53-.425-2.046-.37-.402-.432-1.19-.194-1.73-.49 0-1.043-.195-1.351-.53-.023.011-.052.019-.077.028.614-.251 1.133-.64 1.484-1.124h6.799zm-.52 17.397c0 1.827-.843 3.214-2.247 3.984l.504-1.023h-.487l-.646 1.31a6.36 6.36 0 0 1-2.265.392c-2.563 0-3.24.103-4.185 1.048-.952-.944-1.628-1.048-4.186-1.048-.833 0-1.59-.136-2.256-.387h.017l.646-1.315h-.486l-.566 1.151a4.584 4.584 0 0 1-.393-.208l.465-.943h-.484l-.345.702c-1.098-.807-1.742-2.068-1.742-3.663v-5.742h18.657v5.742zm-12.7-10.488l.786.098c.06.43-.053 1.161-.333 1.569l-.762-.22c.203-.483.254-.934.31-1.447zm-1.133-.575s.723-.035.927.041c.151.063.048.316-.146.287-.204-.024-.78-.328-.78-.328zm-.047-2.866l-.648 2.364.221-3.814 1.005-.86.511 1.123-1.292 3.703.341-2.493c.032-.173-.11-.193-.138-.023zm-.498 3.942c-.34.135-.687-.05-.58-.268.157.142.597.073.597.073l-.017.195zm-.639.315c.158.152.633.094.633.094l.018.095c-.209.276-.782.152-.65-.189zm-.744-1.523c-.181-.122-.1-.385.101-.385.22.006.516.256.806.38 0 0-.761.104-.907.005zm.721 2.098s.218.09.494.112c-.032.152-.15.297-.334.256-.155-.035-.225-.227-.16-.368zm.512-1.43c-.366.118-.526-.145-.51-.37.715-.26 1.034-.092 1.243.041.192.121.353.466.61.682a5.543 5.543 0 0 1-.236 1.002c-.731-.188-.77-.833-.497-1.226-.153-.178-.315-.223-.61-.129zm3.172.21l.784.093c.077.43-.07 1.346-.365 1.781l-.798-.23c.319-.419.435-1.164.379-1.644zm1.348.165l.646.08c.103.537.035 1.466-.307 1.994l-.752-.218c.33-.448.485-1.37.412-1.856zm1.157.143h.015a.967.967 0 0 0 .506-.07c.349.5.623 1.636.203 2.346a2.376 2.376 0 0 1-.689-.1l-.173-.051c.354-.55.303-1.518.138-2.125zm.988-.381l.46-.45c.466.409 1.079 1.32.888 2.184l-.5.459c-.104.1-.21.173-.318.24.311-.772-.087-1.962-.53-2.433zm2.689.257a1.5 1.5 0 0 0-.233.46l-.557.51c.111-.814-.437-1.778-.936-2.17l.592-.581.118.12c-.197.518.19 1.54 1.016 1.66zm-1.478-3.94c-.293.558-.263 1.202.082 1.786l-.23.226c-.999-.125-1.393-1.614-1.393-1.614-.02.134-.032.265-.03.398-.582-.216-.951-.734-.921-1.443.22.123.468.21.73.255l.07-.435c-.698-.121-1.107-.558-1.26-1.073-.034-.003-.064-.01-.096-.013.125.01.246.02.373.02.415 0 .807-.064 1.175-.172.29.412.804.708 1.32.765-.08.338-.04.768.18 1.3zm-5.727-3.324c.482.66 1.264 1.148 2.19 1.34.078.347.266.728.633 1.036-.151 1.023.288 1.98 1.39 2.234.116.521.44.917.981 1.104l-.766.884c-.291.34-.673.448-.99.409l-3.422-.39c.148-.38-.246-.82-1.329-.63l1.345-3.763-.82-1.745-1.556 1.328-.114 3.945-.66-.326c-.87-.374-1.124 1.197-.298 1.203l.328.004c-.021.16.027.34.154.394-.154.065-.202.358-.005.462-.197.093-.224.391-.065.52-.174.29-.2.918.4 1.077.492.13.799-.4.9-.707l5.325 1.65c.754.216 1.29.095 1.915-.454l1.389-1.216c-.174.795.112 1.511.717 1.748 0 0-.087.714-.06 1.034h-13.86V25.59c0-.816-.234-1.631-.515-2.383h6.793zm-.899-12.166l3.663 1.245v5.735l-2.698-1.42-.965-5.56zm8.9-.683c0-1.402-2.355-2.656-4.952-2.656-2.6 0-4.954 1.254-4.954 2.656l.054.344 1.034 5.954-4.91 2.862c-.523.306-1.176 1.152-1.26 2.003h.896c.148-.85.82-1.793 2.072-1.735 1.134.06 1.805.75 2.473 1.735l.171.26.247.387h-7.22c.53 1.066 1.034 2.196 1.034 3.422v15.014c0 3.864 2.968 5.703 6.181 5.703 2.48 0 2.816-.113 4.186 1.256 1.365-1.37 1.699-1.256 4.185-1.256 3.21 0 6.18-1.84 6.18-5.703V25.59c0-1.226.502-2.356 1.032-3.422H35.19l.248-.388.172-.26c.665-.984 1.338-1.674 2.472-1.734 1.25-.058 1.924.885 2.072 1.735h.894c-.08-.85-.737-1.697-1.259-2.003l-4.91-2.862 1.036-5.954.051-.344z" fill="#231F20"/><path fill-rule="evenodd" clip-rule="evenodd" d="M39.917 28.866l.008-.438c-1.348-.032-1.656-1.62-1.656-1.62-.394 1.169.634 2.04 1.648 2.058zm-1.7 2.691l-.135-.415c-1.15.294-1.743-1.527-1.743-1.527-.369 1.323.914 2.26 1.878 1.942zm.798-1.687c-1.373.217-1.936-1.38-1.936-1.38-.153.87.41 1.752 1.32 1.845-.206 1.135.848 1.716 1.76 1.312l-.131-.395c-.793.266-1.537-.518-1.013-1.383zm-.821-4.557l.011-.44c-1.81-.374-1.66-1.62-1.66-1.62-.39 1.174.638 2.04 1.648 2.06zm-11.48 18.251l-.648 1.316h.487l.647-1.316h-.486zm.978 0l-.647 1.316h.492l.642-1.316h-.487zm3.923 0l-.646 1.316h.486l.648-1.316h-.488zm.982 0l-.65 1.316h.49l.645-1.316h-.485zm-1.962 0l-.648 1.316h.487l.648-1.316h-.487zm5.729 1.316h.488l.647-1.316h-.488l-.647 1.316zm-7.691-1.316l-.645 1.316h.488l.647-1.316h-.49zm.978 0l-.647 1.316h.491l.647-1.316h-.49zm-2.218-7.069c-.088 0-.167.087-.167.199 0 .108.079.198.167.198.093 0 .17-.09.17-.198 0-.112-.077-.199-.17-.199zm-.198-30.398l.772-1.637 1.43.76 1.58-1.559 1.58 1.56 1.43-.76.763 1.636.95-.146a7.234 7.234 0 0 0-.596 1.414c-1.039-.606-2.584-1.073-4.127-1.073-1.549 0-3.088.467-4.129 1.073a7.33 7.33 0 0 0-.6-1.414l.947.146zm3.782.717c2.01 0 3.62.666 4.51 1.381 0 0 .265-1.596 1.166-2.997l-1.62.182-.847-1.803-1.63.847-1.579-1.568-1.58 1.568-1.632-.847-.848 1.803-1.619-.182c.903 1.4 1.166 2.997 1.166 2.997.886-.715 2.5-1.381 4.513-1.381z" fill="#231F20"/><path fill-rule="evenodd" clip-rule="evenodd" d="M32.67 3.588a.432.432 0 0 0 .463-.39c.023-.234-.32-.863-.32-.863s-.515.553-.531.79a.431.431 0 0 0 .387.463zm2.654.962c.209.113.464.03.577-.18.114-.206.04-.916.04-.916s-.684.308-.797.517a.434.434 0 0 0 .18.579zm-5.966-.962a.43.43 0 0 0 .392-.463c-.023-.237-.532-.79-.532-.79s-.342.63-.32.863a.43.43 0 0 0 .46.39zm-2.651.962a.428.428 0 0 0 .177-.579c-.11-.21-.795-.517-.795-.517s-.073.71.041.917c.11.209.369.292.578.179zm29.361 14.907c.175.39.523 1.74-.306 2.77-.944-1.886-2.242-3.502-3.293-4.2-.23-.148.127-.411.775-.496 1.956-.371 4.248.457 5.341.747-.509.38-.922.552-1.44.615.794.666 1.372 1.229 1.78 1.857-.768.19-1.2-.296-2.857-1.293zm2.47-.32c.565-.201 1.002-.74 1.22-1.24-1.44-.206-5.26-1.811-8.402-.504 1.176-1.117 2.233-1.262 2.334-2.868.487.351 1.312.549 1.776-.289-.324-.956-1.142-.182-1.257-.444-.159-.367 1.032.112 1.287-1.13-.927-.318-1.204.438-1.37.263-.153-.168.589-.487.044-1.489-.966.565-.464 1.201-.667 1.273-.247.097-.053-.68-1.119-.644-.105 1.147 1.002 1.182.82 1.365-.219.221-.508-.66-1.314-.212.014.925.763 1.433 1.538 1.214-.127 1.759-1.738 1.43-2.94 3.411 2.543 1.305 3.694 3.58 5.26 5.152.517-.367 1.401-1.998 1.401-1.998 1.693 1.312 2.885.005 2.885.005-.583-.597-.604-1.051-1.496-1.865zM36.032 51.353l-.863-2.806c1.838-.379 3.117-.77 4.094-1.147v1.75l1.515.61a24.825 24.825 0 0 1-4.746 1.593zm-5.015 1.64c-1.715 0-3.389-.256-4.819-.607l.91-2.942c.604.14 2.113.325 3.909.325 1.796 0 3.299-.185 3.906-.325l.913 2.942c-1.437.351-3.11.608-4.82.608zm-9.767-3.232l1.518-.611V47.4c.976.377 2.255.768 4.093 1.148l-.862 2.805a25.026 25.026 0 0 1-4.75-1.592zm18.482-.975v-2.148c-1.66.762-3.771 1.378-6.486 1.623l-.124.767c.23.033.524.06.913.087a25.994 25.994 0 0 1-3.018.204c-.714 0-2.013-.067-3.02-.204.389-.026.679-.054.91-.087l-.123-.767c-2.716-.245-4.83-.861-6.485-1.623v2.148l-2.252.924c1.668.867 3.586 1.574 5.805 2.145l-.264.9c1.27.371 3.3.753 5.429.753 2.128 0 4.155-.382 5.426-.754l-.262-.899c2.215-.57 4.138-1.278 5.805-2.145l-2.254-.924zM3.103 20.75c.41-.628.986-1.191 1.785-1.854-.523-.066-.932-.238-1.445-.618 1.093-.29 3.392-1.118 5.349-.747.642.085 1.005.348.77.495-1.052.698-2.35 2.315-3.295 4.2-.827-1.03-.477-2.38-.306-2.769-1.653.998-2.083 1.482-2.858 1.293zm1.78.247s.884 1.631 1.398 1.997c1.569-1.572 2.72-3.846 5.263-5.15-1.203-1.981-2.818-1.649-2.937-3.412.772.219 1.52-.292 1.535-1.215-.809-.444-1.097.438-1.315.212-.18-.186.926-.218.82-1.363-1.066-.033-.87.74-1.121.643-.2-.073.3-.71-.667-1.273-.544 1.007.2 1.32.046 1.489-.165.175-.444-.581-1.37-.264.25 1.243 1.448.764 1.286 1.13-.113.263-.931-.511-1.253.445.461.838 1.287.64 1.771.29.103 1.612 1.158 1.747 2.337 2.867-3.141-1.307-6.963.297-8.407.507.222.497.658 1.036 1.224 1.233-.892.822-.912 1.273-1.495 1.87 0 0 1.188 1.306 2.884-.006zm24.757-1.198v.946c.325-.392.954-.315.954-.315v1.36s-.022.672-.26.961h1.364c-.238-.289-.26-.96-.26-.96v-1.36s.628-.078.954.314v-.946H29.64z" fill="#231F20"/></g><defs><clipPath id="a"><path fill="#fff" d="M0 0h140v54.661H0z"/></clipPath></defs></svg>