<svg width="73" height="100" viewBox="0 0 73 100" fill="none" xmlns="http://www.w3.org/2000/svg"><g clip-path="url(#a)"><path d="M.197 10.499C.207 7.025.187 3.55.207.077 23.668.081 47.13.075 70.59.08c-.01 18.972.006 37.943-.01 56.915l-.055.075c-.08 1.698-.444 3.376-.927 5.003-.924 3.001-2.66 5.782-5.103 7.779-3.187 2.663-7.184 4.06-11.121 5.196-1.59.441-3.19.851-4.787 1.272-2.245.595-4.493 1.207-6.645 2.09-2.591 1.064-5.14 2.665-6.53 5.179-.74-1.42-1.938-2.557-3.244-3.459-2.482-1.657-5.365-2.555-8.214-3.349-4.065-1.13-8.224-2.01-12.12-3.67-2.009-.86-3.939-1.944-5.604-3.37a15.71 15.71 0 0 1-4.014-5.206A21.513 21.513 0 0 1 .36 58.257C.109 56.688.227 55.095.2 53.515c-.023-1.799.043-3.602-.035-5.398.057-.358.032-.72.034-1.08V42.28c-.002-.361.023-.724-.034-1.082.072-.535.019-1.077.034-1.614-.012-1.84.025-3.681-.018-5.521.044-7.566.002-15.135.021-22.701a4.324 4.324 0 0 0-.033-.543l.028-.32zM.906.812C.904 16.906.906 33 .905 49.092c-.033 3.517.038 7.103 1.087 10.491.8 2.58 2.223 4.986 4.218 6.82 2.919 2.746 6.75 4.22 10.53 5.352 2.399.69 4.815 1.318 7.224 1.969.91.266 1.826.51 2.733.786 1.817.572 3.594 1.3 5.237 2.273 1.301.785 2.49 1.77 3.422 2.977a5 5 0 0 1 .14-.02c.666-.797 1.391-1.543 2.231-2.157 1.854-1.386 4.024-2.265 6.203-3.002 2.853-.922 5.779-1.597 8.669-2.395 3.305-.92 6.624-1.992 9.537-3.846 1.945-1.239 3.665-2.864 4.903-4.817.91-1.412 1.56-2.98 2.019-4.592.607-2.177.793-4.447.782-6.698-.001-17.14-.006-34.28.008-51.419C46.867.804 23.887.807.906.812zm24.04 6.032c1.383-.63 2.947-.544 4.428-.481 2.787.282 5.606.942 8.016 2.42-.648.396-1.327.743-1.958 1.167l.119.073c.768 2.177 1.063 4.485 1.378 6.762.287 2.082.453 4.175.59 6.27.539.214 1.176.476 1.733.166.54-.34.708-1.007.83-1.593.225-1.512.086-3.04 0-4.555-.12-1.616-.444-3.254-.133-4.87.25-1.364.97-2.69 2.122-3.495 1.092-.726 2.47-.743 3.73-.617 1.808.266 3.512 1 5.124 1.838 3.88 2.08 7.27 5.051 9.884 8.589 3.399 4.566 5.37 10.152 5.695 15.827.223 2.657-.066 5.328-.537 7.944-.646 3.285-1.568 6.546-3.061 9.555-.483.89-.96 1.852-1.788 2.474l-.118.168a.932.932 0 0 1 .023-.46c.462-1.546.977-3.076 1.402-4.632.721-2.557 1.18-5.206 1.186-7.868.079-3.832-.716-7.64-1.988-11.24 1.236 1.298 1.985 2.972 2.562 4.648a25.2 25.2 0 0 1 .8 3.138 33.264 33.264 0 0 0-3.537-13.984c-2.701-5.307-6.885-9.95-12.174-12.76-1.233-.634-2.528-1.21-3.915-1.382-.48-.05-.986-.011-1.423.204-.383.19-.575.607-.652 1.006-.154 1.333.074 2.667.266 3.984.21 1.36.245 2.739.286 4.113.012 1.618-.042 3.3-.715 4.8-.38.805-1.034 1.591-1.961 1.732-1.611.22-3.157-.454-4.576-1.133-1.805-.906-3.49-2.035-5.1-3.251.92.026 1.628-.69 2.101-1.4.74-1.015.845-2.313.995-3.52.166-2.39-.454-4.74-1.093-7.022.5-.241 1.026-.415 1.544-.61l.118-.151c-2.727.013-5.453.007-8.18 0-.013.342-.047.695-.236.99-.355.646-1.279.865-1.892.46-.233-.139-.306-.418-.408-.651-.78.002-1.575-.054-2.332.166-.485.138-.81.583-.935 1.052-.158.595-.155 1.217-.14 1.827 1.188-.17 2.398-.445 3.598-.205a3.55 3.55 0 0 1 2.367 1.824c.703 1.319.718 2.879.525 4.325-.167 1.33-1.284 2.202-1.863 3.343a11.006 11.006 0 0 0-1.162 7.943c.66 2.634 2.327 4.836 3.795 7.067-.908-.476-1.852-.91-2.655-1.555-.543-.458-1.04-.965-1.55-1.457.444 2.077 1.248 4.057 2.115 5.99a59.118 59.118 0 0 0 1.817 3.59c.047.206.265.132.412.107 1.166-.317 2.325-.684 3.408-1.223.553-.299 1.134-.645 1.452-1.21-.015.87.006 1.74-.008 2.61-.003.195-.176.333-.313.448-.628.45-1.39.65-2.121.858-2.163.545-4.355.972-6.543 1.404-1.776.268-3.529.7-5.32.855-.543.013-1.038-.27-1.446-.604-.436-.384-.675-.925-.954-1.423-1.017-.015-2.027.205-3.041.28-.565.114-1.337.002-1.648.61-.254.53-.18 1.277.288 1.675.355.245.81.244 1.224.252l-.055.217c-.427.144-.94.351-1.046.845-.27.845.52 1.706 1.365 1.697l-.017.207c-.443.294-.888.738-.806 1.322-.058.714.568 1.334 1.272 1.325.768-.022 1.526-.182 2.294-.22.402-.074.813-.088 1.218-.145.325 2.29.558 4.588.88 6.876-1 .163-2.017.232-3.024.351-.11-1.116-.258-2.23-.364-3.347.207-.107.116-.25-.053-.33-.076-.745-.149-1.49-.242-2.233-.951.087-1.984.148-2.845-.336-1.017-.553-1.147-2.124-.365-2.924-.701-.133-1.268-.78-1.232-1.505-.062-.568.27-1.084.7-1.423-1.15-.561-1.388-2.307-.514-3.209.233-.268.551-.436.856-.61-1.805.17-3.609.36-5.41.556.034-.153.06-.31.138-.449 1.188-2.274 3.255-4.13 5.738-4.855a11.174 11.174 0 0 1 5.588-.137c2.128.519 4.116 1.76 5.378 3.567l.106.122c-1.755.21-3.516.34-5.27.552.167.402.42.759.734 1.06.526.19 1.093.14 1.64.102 1.594-.178 3.167-.513 4.736-.847-.63-1.236-1.133-2.533-1.643-3.822-.813-2.119-1.53-4.28-2.045-6.493-.133-.636-.324-1.263-.376-1.914-1.52-.023-3.044.08-4.557-.078-.532-.038-1.28-.038-1.476-.65-.44-.757-.358-1.669-.663-2.469-.486-.886-1.686-1.141-2.58-.79-.92.498-1.374 1.732-.973 2.703.376.78 1.237 1.19 2.056 1.323.009-.182.019-.363.026-.544.26 0 .52-.002.78-.008.064.403.02.832.196 1.21.094.194.242.353.372.522-1.427.301-3.159-.178-3.92-1.502a7.6 7.6 0 0 1-1.294-.043c-.178-.041-.252.173-.359.268-.226.546-.22 1.257.219 1.7.33.291.813.379 1.237.292.515-.123.872-.553 1.137-.984.01.639-.007 1.279-.011 1.917 3.33.016 6.66-.022 9.99-.01-.734 1.144-1.718 2.122-2.813 2.922-1.463 1.075-3.276 1.563-5.067 1.685-1.922.049-3.916-.265-5.58-1.278-1.32-.78-2.333-1.986-3.139-3.273 1.47-.015 2.94-.015 4.41-.016-.814-.387-1.481-1.138-1.595-2.054-.101-.57.14-1.152.561-1.535-.594-.315-1.028-.862-1.28-1.478a8.38 8.38 0 0 0-.1-.347c-.167-.825-.056-1.731.427-2.436.38-.516.922-.936 1.56-1.063.9-.147 1.866-.031 2.646.466.019-2.063.001-4.127.01-6.19.968-.009 1.936.015 2.904-.003.094 1.99.071 3.985.1 5.978.562.05 1.13.277 1.47.745.524.697.504 1.612.606 2.437.082.487.539.749.984.842 1.147.002 2.295 0 3.442.006a27.871 27.871 0 0 1-.032-2.817c.212-2.342.994-4.71 2.602-6.47.997-1.266 2.282-2.461 2.544-4.13.106-.835.183-1.82-.444-2.483-.795-.842-2.01-1.083-3.124-1.107-.846.035-1.833.139-2.387.865-.085.156-.16-.032-.188-.112-.373-.874-.484-1.85-.376-2.79.21-.765.597-1.55 1.302-1.97.691-.41 1.502-.542 2.287-.652a22.83 22.83 0 0 0 1.133-.155c-.027-.743.515-1.36 1.163-1.646zM8.147 27.98c-.425.408-.412 1.051-.309 1.586.115.5.5.89.973 1.07.244.048.488.099.735.137a9.885 9.885 0 0 1 .002-1.266c.155-.737.527-1.405 1.02-1.969-.79-.312-1.803-.159-2.42.442zm38.672-5.695c.008-.882 0-1.765.027-2.648.886 1.442 1.764 2.89 2.608 4.353.552 2.89.846 5.828 1.041 8.763a70.15 70.15 0 0 1 .113 6.724c-.243 4.846-1.714 9.649-4.372 13.72-1.483 2.26-3.27 4.354-5.432 5.99.254.055.512.112.773.056.747-.035 1.495-.003 2.243-.019 0 .051-.004.153-.005.203a35.079 35.079 0 0 1-4.524 3.586c-2 1.314-4.15 2.44-6.46 3.092-2.113.584-4.401.774-6.521.127.112-.13.246-.238.39-.331 1.868-1.264 3.853-2.342 5.735-3.583a45.426 45.426 0 0 0 5.848-4.563l.04-.142c-1.044-.654-1.94-1.54-2.652-2.542-.111 1.163-.055 2.332-.103 3.498-1.767-.97-3.642-1.889-4.996-3.427-.451-.515-.905-1.027-1.347-1.552-.01.273-.017.548-.025.821-.84-.489-1.583-1.128-2.315-1.763a14.462 14.462 0 0 1-1.94-2.42c-1.253.192-2.49.473-3.738.681-.48.101-.968.169-1.44.299-.39.415-.828.78-1.259 1.153.144-.49.304-.974.457-1.46.143-.441.285-.883.42-1.327 2.363-.48 4.734-.908 7.092-1.41.43.928.917 1.865 1.704 2.544.55.465 1.133.9 1.776 1.227.053-1-.029-2.006.123-2.999.047.512.232.994.466 1.447.622 1.312 1.596 2.471 2.836 3.239.1-1.434.028-2.871.052-4.306.68 1.1 1.46 2.147 2.412 3.03.532.578 1.191 1.025 1.888 1.386.1-1.266.095-2.533.093-3.802.903.534 1.735 1.184 2.621 1.747.019 1.268-.007 2.536.013 3.804.237-.17.424-.394.614-.614 2.743-3.151 4.979-6.815 6.142-10.849.708-2.568.907-5.245.889-7.899-.097-2.081-.178-4.177-.534-6.233-1.508 2.442-4.025 4.281-6.856 4.84-1.49.28-3.03.155-4.476-.29 2.991-.04 5.988-1.316 7.934-3.617 1.086-1.38 1.746-3.05 2.176-4.74.318-1.238.486-2.516.47-3.794zm6.797 5.635c.474.79 1.051 1.519 1.48 2.332a30.858 30.858 0 0 1 1.691 10.404 26.628 26.628 0 0 1-.856 6.384c-1.034 4.115-2.806 8.084-5.437 11.43-.213.279-.475.524-.631.842.633.007 1.267-.008 1.9.013-2.825 3.036-6.128 5.72-9.963 7.366-1.794.738-3.725 1.255-5.678 1.166 3.2-2.963 6.446-5.881 9.582-8.915 1.534-1.46 2.792-3.187 3.915-4.976 2.281-3.656 3.51-7.88 4.024-12.135.312-2.396.374-4.816.387-7.23-.092-1.144-.013-2.3-.15-3.439-.03-1.085-.161-2.162-.264-3.242zm5.211 3.672c.609.634.983 1.443 1.3 2.251.474 1.222.793 2.5 1.029 3.786.397 2.144.46 4.332.341 6.504-.4 4.38-1.817 8.643-3.965 12.473-.316.517-.593 1.065-.977 1.537.486.071.98.043 1.47.066-1.506 1.658-3.16 3.206-5.041 4.431-1.094.686-2.321 1.332-3.654 1.243.067-.207.214-.368.356-.524 4.528-4.93 7.656-11.1 9.075-17.634.853-3.56.886-7.272.5-10.897-.063-1.089-.344-2.154-.434-3.236zM23.73 86.852c.696-.081 1.396-.121 2.089-.226 1.074-.125 2.18-.124 3.247.069.979.203 2.018.671 2.48 1.614.41.866.403 1.95-.083 2.785-.456.756-1.302 1.165-2.133 1.369.894.04 1.818.367 2.41 1.062.537.62.753 1.46.715 2.27.012 1.136-.506 2.272-1.42 2.96-1.302.982-3 1.217-4.587 1.173a7.05 7.05 0 0 1-3.369-.758c-.112-.776-.3-1.54-.436-2.312l-.126-.147c.17-.025.259.156.38.247a5.324 5.324 0 0 0 3 1.446c1.221.084 2.564.01 3.581-.748 1.074-.791 1.155-2.553.211-3.473-.521-.499-1.244-.685-1.937-.788-.794-.053-1.628-.03-2.36.313-.002-.636.002-1.271-.002-1.907 1.093.217 2.277.228 3.31-.24.734-.33 1.117-1.168 1.023-1.946-.102-.42-.287-.843-.654-1.093-.699-.498-1.598-.506-2.419-.439-1.119.136-2.217.492-3.18 1.083.011-.206.027-.41.063-.612.062-.567.144-1.133.197-1.701zm-9.951-.192c1.813-.278 3.76-.08 5.36.87 1.748 1.014 2.874 2.913 3.1 4.903.157 1.56-.156 3.19-1.015 4.514-1.004 1.603-2.77 2.64-4.628 2.898-1.77.226-3.667.07-5.233-.856-2.02-1.149-3.247-3.487-3.163-5.794-.043-1.658.6-3.314 1.717-4.536 1.007-1.086 2.404-1.774 3.861-1.999zm-1.322 2.176a4.424 4.424 0 0 0-2.028 2.884c-.318 1.578-.057 3.303.835 4.658.624.96 1.627 1.641 2.73 1.929a6.58 6.58 0 0 0 1.865.1c1.596-.204 3.155-1.128 3.836-2.629.572-1.257.578-2.712.235-4.032-.354-1.328-1.216-2.56-2.465-3.177-1.565-.798-3.525-.644-5.008.267zm-11.09-2.028c2.216-.01 4.434.047 6.65-.042.011.76-.002 1.52.005 2.28-.34-.471-.918-.664-1.477-.701-1.21-.117-2.427-.011-3.638.029.001 3.265-.004 6.53.003 9.795-.014.615.374 1.18.896 1.482-1.2.008-2.4.003-3.602.005.48-.386.83-.964.793-1.595.002-3.24.004-6.478 0-9.716a1.856 1.856 0 0 0-.814-1.5c.393-.039.788-.05 1.183-.037zm32.017.033c1.18-.064 2.362-.03 3.544-.003-.461.33-.809.84-.82 1.422-.018 1.206-.005 2.412-.004 3.619 2.349.004 4.698.006 7.047-.001-.012-1.294.024-2.59-.023-3.882a1.988 1.988 0 0 0-.799-1.152c.4-.004.796-.044 1.196-.038.777.011 1.56-.045 2.335.049-.503.31-.833.881-.798 1.478 0 3.317-.007 6.633.005 9.95-.013.558.35 1.027.76 1.367-1.155.01-2.31.006-3.466.002.477-.38.832-.956.789-1.583 0-1.569.002-3.136 0-4.705-2.35-.006-4.697.004-7.047-.004-.007 1.387 0 2.773-.004 4.161.001.467-.032.961.182 1.395.135.298.38.525.622.74-1.166-.004-2.333.008-3.5-.007.468-.343.834-.878.792-1.48.005-3.277.005-6.556 0-9.834.043-.61-.325-1.159-.81-1.494zm18.028-.003c.831-.054 1.665-.027 2.497-.037.182-.013.36.031.535.082.34 1.09.84 2.128 1.246 3.197 1.05 2.593 2.092 5.19 3.142 7.783.287.724.761 1.39 1.452 1.778-1.262.035-2.528.007-3.791.013.362-.225.672-.598.585-1.053-.472-1.286-1.022-2.543-1.523-3.817-1.639-.011-3.277-.001-4.916-.006-.432 1.094-.905 2.173-1.292 3.284a1.406 1.406 0 0 0 .524 1.592c-1.118 0-2.236.01-3.353-.009a4.36 4.36 0 0 0 1.37-1.78c1.288-3.197 2.538-6.411 3.811-9.614.116-.307.266-.656.12-.978-.066-.198-.257-.309-.407-.435zm1.644 1.685c-.606 1.69-1.31 3.347-1.935 5.03 1.318 0 2.635.005 3.952 0-.677-1.675-1.285-3.38-2.017-5.03zm7.885-1.667c.499-.073 1.004-.056 1.507-.048.648.032 1.304-.059 1.949.035-.403.399-.775.89-.735 1.49-.009 3.278-.011 6.556 0 9.834-.029.594.314 1.14.791 1.473-1.157.028-2.315.02-3.471.005.47-.388.796-.956.774-1.579.003-3.208.003-6.414 0-9.622a1.828 1.828 0 0 0-.815-1.588zm6.053-.01c.644-.06 1.291-.034 1.939-.04.518.011 1.04-.035 1.554.056-1.456 1.79-2.821 3.655-4.251 5.466-.087.114-.268.278-.103.419 1.146 1.487 2.244 3.012 3.428 4.47.674.8 1.4 1.578 2.288 2.142.157.1.306.213.446.336-.835.022-1.675.087-2.51.033-.915-.173-1.537-.939-2.062-1.646-1.232-1.706-2.503-3.383-3.728-5.093 1.018-1.323 1.995-2.679 2.994-4.016.255-.363.553-.73.62-1.182.045-.424-.275-.754-.615-.946z" fill="#015E4B"/></g><defs><clipPath id="a"><path fill="#fff" d="M0 0h72.408v100H0z"/></clipPath></defs></svg>