<svg width="110" height="43" viewBox="0 0 110 43" fill="none" xmlns="http://www.w3.org/2000/svg"><g clip-path="url(#a)"><path d="M14.353 3.516h-2.116c-3.2 0-6.297 2.116-6.297 8.257 0 5.935 2.839 7.844 6.297 7.844h2.116V3.516zM11.05 22.92L4.754 37.06H.16l6.915-15.122c-3.251-1.651-5.419-4.644-5.419-10.166C1.657 4.032 6.56.16 12.392.16h5.934v36.9h-3.973V22.92H11.05z" fill="#EE252C"/><path d="M95.53 24.056c0-8.155 3.149-13.367 9.239-13.367 2.322 0 3.664.62 4.799 1.342L109 15.85c-1.083-.93-2.632-1.806-4.283-1.806-2.89 0-4.954 3.25-4.954 9.805 0 6.503 1.548 10.218 4.799 10.218 1.961 0 3.458-.773 4.387-1.6l.928 2.994c-1.393 1.187-3.044 1.96-5.418 1.96-5.574 0-8.928-4.489-8.928-13.365zm-11.766.051V37.06H79.74V11.05h4.025v12.025L90.01 11.05h4.077l-6.451 12.232 7.38 13.778h-4.387l-6.864-12.953zm-18.94-2.425h6.658c0-4.439-.723-7.69-3.045-7.69-2.477 0-3.355 3.045-3.613 7.69zm4.438 15.74c-5.366 0-8.67-4.283-8.67-12.283 0-8.36 2.323-14.45 7.845-14.45 4.335 0 7.173 3.251 7.173 12.077v2.219H64.773c0 5.883 1.651 8.98 4.85 8.98 2.272 0 4.078-1.033 5.11-1.755l.929 3.096c-1.652 1.29-3.82 2.116-6.4 2.116zM52.13 14.302h-4.49v.464c0 5.47-.258 13.47-2.425 18.992h6.915V14.302zm6.038 27.868h-3.613v-5.11H43.407v5.11h-3.613v-8.412h1.6c2.374-5.522 2.632-13.573 2.632-20.489V11.05h12.077v22.708h2.064v8.412zM37.472 11.05v26.01h-3.974V25.397h-5.986V37.06h-4.025V11.05h4.025v11.044h5.986V11.05h3.974z" fill="#040606"/></g><defs><clipPath id="a"><path fill="#fff" d="M0 0h110v42.253H0z"/></clipPath></defs></svg>