<svg width="32" height="32" viewBox="0 0 32 32" fill="none" xmlns="http://www.w3.org/2000/svg"><g clip-path="url(#a)"><path d="M12.178 13.017l-.904 5.143L16 15.734l4.726 2.426-.904-5.143 3.853-3.665-5.32-.754L16 3.94l-2.355 4.658-5.32.754 3.853 3.665z" fill="#3352A1"/><path d="M12.178 13.017l-.904 5.143L16 15.734l4.726 2.426-.904-5.143 3.853-3.665-5.32-.754L16 3.94l-2.355 4.658-5.32.754 3.853 3.665z" fill="url(#b)"/><path d="M26.901 12.934c.025-.299.033-.604.043-.91.89-.386 2.539-1.262 3.283-2.859.312-.669 1.017-2.286-.432-5.727-2.423.748-3.981 1.748-4.728 3.35-.888 1.905-.222 4.078.021 4.744-.05 5.605-3.221 12.031-9.088 12.031h-.004c-5.64 0-9.035-6.158-9.088-12.031.243-.666.91-2.839.02-4.744-1.04-2.231-3.746-3.071-3.86-3.106l-.805-.244-.33.772c-.047.11-1.142 2.725-.102 4.955.745 1.597 2.33 2.473 3.221 2.86.01.304.018.61.043.91-1.585-.784-3.162-.671-5.095-.24.316 2.518 1.01 4.163 2.458 5.177 1.059.74 2.322.921 3.302.921.331 0 .613-.022.86-.049.186.394.386.775.601 1.141-.017 0-.033-.005-.05-.005-.739 0-2.503.044-5.008 2.813 1.702 1.88 3.24 2.812 5.008 2.812 1.653 0 3.04-.938 3.808-1.587.449.29.916.54 1.4.75a6.542 6.542 0 0 0-2.568 3.27l1.769.625A4.694 4.694 0 0 1 16 25.438a4.694 4.694 0 0 1 4.42 3.125l1.769-.625a6.54 6.54 0 0 0-2.57-3.27c.483-.21.95-.46 1.4-.75.766.648 2.154 1.587 3.808 1.587.738 0 2.502-.045 5.008-2.813-1.703-1.88-3.241-2.812-5.009-2.812-.017 0-.033.005-.05.005.214-.366.414-.747.6-1.14.248.026.53.048.861.048.98 0 2.306-.18 3.363-.92.605-.424 1.935-1.473 2.4-5.178-3.406-.76-4.735.06-5.099.239z" fill="#3352A1"/><path d="M26.901 12.934c.025-.299.033-.604.043-.91.89-.386 2.539-1.262 3.283-2.859.312-.669 1.017-2.286-.432-5.727-2.423.748-3.981 1.748-4.728 3.35-.888 1.905-.222 4.078.021 4.744-.05 5.605-3.221 12.031-9.088 12.031h-.004c-5.64 0-9.035-6.158-9.088-12.031.243-.666.91-2.839.02-4.744-1.04-2.231-3.746-3.071-3.86-3.106l-.805-.244-.33.772c-.047.11-1.142 2.725-.102 4.955.745 1.597 2.33 2.473 3.221 2.86.01.304.018.61.043.91-1.585-.784-3.162-.671-5.095-.24.316 2.518 1.01 4.163 2.458 5.177 1.059.74 2.322.921 3.302.921.331 0 .613-.022.86-.049.186.394.386.775.601 1.141-.017 0-.033-.005-.05-.005-.739 0-2.503.044-5.008 2.813 1.702 1.88 3.24 2.812 5.008 2.812 1.653 0 3.04-.938 3.808-1.587.449.29.916.54 1.4.75a6.542 6.542 0 0 0-2.568 3.27l1.769.625A4.694 4.694 0 0 1 16 25.438a4.694 4.694 0 0 1 4.42 3.125l1.769-.625a6.54 6.54 0 0 0-2.57-3.27c.483-.21.95-.46 1.4-.75.766.648 2.154 1.587 3.808 1.587.738 0 2.502-.045 5.008-2.813-1.703-1.88-3.241-2.812-5.009-2.812-.017 0-.033.005-.05.005.214-.366.414-.747.6-1.14.248.026.53.048.861.048.98 0 2.306-.18 3.363-.92.605-.424 1.935-1.473 2.4-5.178-3.406-.76-4.735.06-5.099.239z" fill="url(#c)"/></g><defs><linearGradient id="b" x1="16" y1="3.94" x2="16" y2="18.16" gradientUnits="userSpaceOnUse"><stop stop-color="#3352A1"/><stop offset="1" stop-color="#132450"/></linearGradient><linearGradient id="c" x1="16" y1="3.438" x2="16" y2="28.563" gradientUnits="userSpaceOnUse"><stop stop-color="#3352A1"/><stop offset="1" stop-color="#132450"/></linearGradient><clipPath id="a"><path fill="#fff" d="M0 0h32v32H0z"/></clipPath></defs></svg>