<svg width="24" height="24" viewBox="0 0 24 24" fill="none" xmlns="http://www.w3.org/2000/svg"><g clip-path="url(#a)"><path d="M23.464 12.698l-5.45 1.522L14.048 12l3.966-2.219 5.449 1.521L24 9.375l-3.523-.982 3.125-1.762-.983-1.742-3.125 1.761.983-3.523-1.926-.537-1.52 5.449L13 10.295V6.414l4-4L15.586 1 13 3.586V0h-2v3.586L8.414 1 7 2.414l4 4v3.881L6.969 8.039 5.449 2.59l-1.926.537.982 3.523-3.124-1.761-.982 1.742 3.124 1.762L0 9.375l.537 1.927 5.449-1.521L9.952 12l-3.966 2.22-5.45-1.522L0 14.625l3.523.982L.398 17.37l.983 1.741 3.125-1.761-.984 3.523 1.927.536 1.521-5.448L11 13.706v3.88l-4 4L8.414 23 11 20.414V24h2v-3.586L15.586 23 17 21.586l-4-4v-3.88l4.03 2.255 1.521 5.448 1.927-.536-.984-3.523 3.125 1.761.983-1.741-3.125-1.763L24 14.625l-.536-1.927z" fill="#BFD2FD"/><path d="M23.464 12.698l-5.45 1.522L14.048 12l3.966-2.219 5.449 1.521L24 9.375l-3.523-.982 3.125-1.762-.983-1.742-3.125 1.761.983-3.523-1.926-.537-1.52 5.449L13 10.295V6.414l4-4L15.586 1 13 3.586V0h-2v3.586L8.414 1 7 2.414l4 4v3.881L6.969 8.039 5.449 2.59l-1.926.537.982 3.523-3.124-1.761-.982 1.742 3.124 1.762L0 9.375l.537 1.927 5.449-1.521L9.952 12l-3.966 2.22-5.45-1.522L0 14.625l3.523.982L.398 17.37l.983 1.741 3.125-1.761-.984 3.523 1.927.536 1.521-5.448L11 13.706v3.88l-4 4L8.414 23 11 20.414V24h2v-3.586L15.586 23 17 21.586l-4-4v-3.88l4.03 2.255 1.521 5.448 1.927-.536-.984-3.523 3.125 1.761.983-1.741-3.125-1.763L24 14.625l-.536-1.927z" fill="url(#b)"/></g><defs><linearGradient id="b" x1="12" x2="12" y2="24" gradientUnits="userSpaceOnUse"><stop stop-color="#BFD2FD"/><stop offset="1" stop-color="#B4CAFD"/></linearGradient><clipPath id="a"><path fill="#fff" d="M0 0h24v24H0z"/></clipPath></defs></svg>