<svg width="24" height="24" viewBox="0 0 24 24" fill="none" xmlns="http://www.w3.org/2000/svg"><path d="M20.422 8.516c-.178-3.233-3.031-5.778-6.432-5.492A5.953 5.953 0 0 0 9.5 1C6.328 1 3.746 3.443 3.578 6.516 1.545 6.875 0 8.621 0 10.722 0 13.084 1.949 15 4.354 15H5.68a4.36 4.36 0 0 0 3.674 2h10.291C22.051 17 24 15.084 24 12.722c0-2.101-1.545-3.847-3.578-4.206zM5.027 13h-.673C3.057 13 2 11.978 2 10.722 2 8.604 4.104 8.125 5.488 8.21 5.438 6.854 5.625 3 9.5 3c.967 0 1.714.25 2.29.644-1.823.922-3.096 2.746-3.212 4.872-2.022.358-3.697 2.127-3.551 4.484zm14.618 2H9.354C8.057 15 7 13.978 7 12.722c0-2.118 2.104-2.597 3.488-2.512C10.438 8.854 10.625 5 14.5 5c3.771 0 4.229 3.771 4.012 5.209 1.509-.105 3.488.437 3.488 2.513C22 13.978 20.943 15 19.645 15zM5.582 23l-1.41-1.41L7.762 18l1.41 1.41L5.582 23zm8.543-3.59L12.715 18l-3.59 3.59 1.41 1.41 3.59-3.59zm4.875 0L17.59 18 14 21.59 15.41 23 19 19.41z" fill="#BFD2FD"/><path d="M20.422 8.516c-.178-3.233-3.031-5.778-6.432-5.492A5.953 5.953 0 0 0 9.5 1C6.328 1 3.746 3.443 3.578 6.516 1.545 6.875 0 8.621 0 10.722 0 13.084 1.949 15 4.354 15H5.68a4.36 4.36 0 0 0 3.674 2h10.291C22.051 17 24 15.084 24 12.722c0-2.101-1.545-3.847-3.578-4.206zM5.027 13h-.673C3.057 13 2 11.978 2 10.722 2 8.604 4.104 8.125 5.488 8.21 5.438 6.854 5.625 3 9.5 3c.967 0 1.714.25 2.29.644-1.823.922-3.096 2.746-3.212 4.872-2.022.358-3.697 2.127-3.551 4.484zm14.618 2H9.354C8.057 15 7 13.978 7 12.722c0-2.118 2.104-2.597 3.488-2.512C10.438 8.854 10.625 5 14.5 5c3.771 0 4.229 3.771 4.012 5.209 1.509-.105 3.488.437 3.488 2.513C22 13.978 20.943 15 19.645 15zM5.582 23l-1.41-1.41L7.762 18l1.41 1.41L5.582 23zm8.543-3.59L12.715 18l-3.59 3.59 1.41 1.41 3.59-3.59zm4.875 0L17.59 18 14 21.59 15.41 23 19 19.41z" fill="url(#a)"/><defs><linearGradient id="a" x1="12" y1="1" x2="12" y2="23" gradientUnits="userSpaceOnUse"><stop stop-color="#BFD2FD"/><stop offset="1" stop-color="#B4CAFD"/></linearGradient></defs></svg>