<svg width="32" height="32" viewBox="0 0 32 32" fill="none" xmlns="http://www.w3.org/2000/svg"><path fill-rule="evenodd" clip-rule="evenodd" d="M10.559 23.17L4.067 5.332H1.333A1.33 1.33 0 0 1 0 4c0-.736.596-1.333 1.333-1.333h4.6L13.225 22.7a4.66 4.66 0 0 1 2.852 1.45l15.011-5.462.912 2.505-14.732 5.362A4.67 4.67 0 0 1 12.667 32 4.668 4.668 0 0 1 8 27.333a4.67 4.67 0 0 1 2.559-4.164zm2.108 2.414a1.75 1.75 0 1 1-.002 3.5 1.75 1.75 0 0 1 .002-3.5zm7.732-16.387l6.356-2.313 3.648 10.023-15.208 5.536-3.648-10.024 6.345-2.31 1.767 4.852 2.505-.912-1.765-4.852zm.716-1.68L11.09 11.165 8.355 3.648 18.379 0l2.736 7.517z" fill="#3352A1"/><path fill-rule="evenodd" clip-rule="evenodd" d="M10.559 23.17L4.067 5.332H1.333A1.33 1.33 0 0 1 0 4c0-.736.596-1.333 1.333-1.333h4.6L13.225 22.7a4.66 4.66 0 0 1 2.852 1.45l15.011-5.462.912 2.505-14.732 5.362A4.67 4.67 0 0 1 12.667 32 4.668 4.668 0 0 1 8 27.333a4.67 4.67 0 0 1 2.559-4.164zm2.108 2.414a1.75 1.75 0 1 1-.002 3.5 1.75 1.75 0 0 1 .002-3.5zm7.732-16.387l6.356-2.313 3.648 10.023-15.208 5.536-3.648-10.024 6.345-2.31 1.767 4.852 2.505-.912-1.765-4.852zm.716-1.68L11.09 11.165 8.355 3.648 18.379 0l2.736 7.517z" fill="url(#a)"/><defs><linearGradient id="a" x1="16" x2="16" y2="32" gradientUnits="userSpaceOnUse"><stop stop-color="#3352A1"/><stop offset="1" stop-color="#132450"/></linearGradient></defs></svg>