<svg width="192" height="200" viewBox="0 0 192 200" fill="none" xmlns="http://www.w3.org/2000/svg"><g clip-path="url(#a)"><path d="M175.869 92.097c-6.008 6.744-11.894 14.009-16.001 24.032a12.16 12.16 0 0 1-11.312 7.633c-5.027 0-9.472-3.004-11.372-7.663-4.752-11.649-11.956-19.588-18.945-27.252-1.747-1.93-3.494-3.862-5.211-5.854-.091.03-.154.061-.245.091-6.805 2.054-12.047 11.066-8.89 18.393 2.146 5.027 17.197 4.077 15.91 14.898-1.073 8.858 10.514 11.188 14.622 10.759 4.108-.49 10.422 6.744 7.234 9.932-3.157 3.189-9.135 3.311-8.215 11.527.245 2.39 7.48 2.084 7.48 5.701 0 3.648-3.74 7.786-.859 11.986.614.919 1.257 1.625 1.932 2.176-13.856 12.753-32.341 20.569-52.603 20.569-42.824 0-77.647-34.823-77.647-77.647a77.265 77.265 0 0 1 8.89-36.05c-.03 13.949 7.418 25.536 10.913 29.03 11.403 11.373 27.926 7.786 30.04 17.32 2.146 9.502-11.342 9.533-10.453 16.798.92 7.296 18.485 9.227 14.561 15.94-5.18 8.92 3.495 9.564.981 20.569-1.348 6.008 7.326 7.173 10.546 2.606 2.452-3.495 1.961-7.787 6.897-13.028 6.038-6.438 20.048-7.48 18.484-18.117-2.667-17.657-19.833-20.416-27.313-24.554-8.491-4.66-6.406-15.848-8.246-21.182-2.575-7.572-11.311 2.115-15.97-2.3-7.664-7.233 1.379-17.472 7.816-17.257 13.58.429 17.748 13.64 22.745 13.18 4.874-.428 8.031-7.234 8.89-10.85 1.808-7.879-3.066-4.354-5.027-8.461-2.637-5.487 9.257-10.73 13.855-14.776.705-.613 1.226-1.195 1.502-1.747 1.38-2.697-.429-4.751-3.494-6.621-6.13-3.71-17.32-6.652-17.84-12.446-.307-3.556 6.498-5.272 14.253-5.579 1.288.062 2.544.184 3.832.307a51.813 51.813 0 0 1 3.096-10.668 86.169 86.169 0 0 0-11.311-.736C40.53 22.756.773 62.514.773 111.377.773 160.242 40.53 200 89.393 200c48.863 0 88.622-39.759 88.622-88.622 0-6.621-.736-13.089-2.146-19.281zM144.386.197c-25.017 2.365-42.151 26.605-37.785 51.352 4.434 25.138 27.611 32.875 39.113 61.092 1.037 2.543 4.617 2.556 5.653.013 12.75-31.296 39.861-37.404 39.861-69.97-.001-24.945-21.399-44.892-46.842-42.487zm4.157 65.03c-12.45 0-22.542-10.093-22.542-22.543 0-12.449 10.092-22.541 22.542-22.541 12.449 0 22.541 10.092 22.541 22.541 0 12.45-10.092 22.542-22.541 22.542z" fill="#BFD2FD"/><path d="M175.869 92.097c-6.008 6.744-11.894 14.009-16.001 24.032a12.16 12.16 0 0 1-11.312 7.633c-5.027 0-9.472-3.004-11.372-7.663-4.752-11.649-11.956-19.588-18.945-27.252-1.747-1.93-3.494-3.862-5.211-5.854-.091.03-.154.061-.245.091-6.805 2.054-12.047 11.066-8.89 18.393 2.146 5.027 17.197 4.077 15.91 14.898-1.073 8.858 10.514 11.188 14.622 10.759 4.108-.49 10.422 6.744 7.234 9.932-3.157 3.189-9.135 3.311-8.215 11.527.245 2.39 7.48 2.084 7.48 5.701 0 3.648-3.74 7.786-.859 11.986.614.919 1.257 1.625 1.932 2.176-13.856 12.753-32.341 20.569-52.603 20.569-42.824 0-77.647-34.823-77.647-77.647a77.265 77.265 0 0 1 8.89-36.05c-.03 13.949 7.418 25.536 10.913 29.03 11.403 11.373 27.926 7.786 30.04 17.32 2.146 9.502-11.342 9.533-10.453 16.798.92 7.296 18.485 9.227 14.561 15.94-5.18 8.92 3.495 9.564.981 20.569-1.348 6.008 7.326 7.173 10.546 2.606 2.452-3.495 1.961-7.787 6.897-13.028 6.038-6.438 20.048-7.48 18.484-18.117-2.667-17.657-19.833-20.416-27.313-24.554-8.491-4.66-6.406-15.848-8.246-21.182-2.575-7.572-11.311 2.115-15.97-2.3-7.664-7.233 1.379-17.472 7.816-17.257 13.58.429 17.748 13.64 22.745 13.18 4.874-.428 8.031-7.234 8.89-10.85 1.808-7.879-3.066-4.354-5.027-8.461-2.637-5.487 9.257-10.73 13.855-14.776.705-.613 1.226-1.195 1.502-1.747 1.38-2.697-.429-4.751-3.494-6.621-6.13-3.71-17.32-6.652-17.84-12.446-.307-3.556 6.498-5.272 14.253-5.579 1.288.062 2.544.184 3.832.307a51.813 51.813 0 0 1 3.096-10.668 86.169 86.169 0 0 0-11.311-.736C40.53 22.756.773 62.514.773 111.377.773 160.242 40.53 200 89.393 200c48.863 0 88.622-39.759 88.622-88.622 0-6.621-.736-13.089-2.146-19.281zM144.386.197c-25.017 2.365-42.151 26.605-37.785 51.352 4.434 25.138 27.611 32.875 39.113 61.092 1.037 2.543 4.617 2.556 5.653.013 12.75-31.296 39.861-37.404 39.861-69.97-.001-24.945-21.399-44.892-46.842-42.487zm4.157 65.03c-12.45 0-22.542-10.093-22.542-22.543 0-12.449 10.092-22.541 22.542-22.541 12.449 0 22.541 10.092 22.541 22.541 0 12.45-10.092 22.542-22.541 22.542z" fill="url(#b)"/></g><defs><linearGradient id="b" x1="96" x2="96" y2="200" gradientUnits="userSpaceOnUse"><stop stop-color="#BFD2FD"/><stop offset="1" stop-color="#B4CAFD"/></linearGradient><clipPath id="a"><path fill="#fff" d="M0 0h192v200H0z"/></clipPath></defs></svg>