<svg width="917" height="1000" viewBox="0 0 917 1000" fill="none" xmlns="http://www.w3.org/2000/svg"><path d="M876.112 235l.833-.833L670 27.779l-58.888 58.888 117.221 117.221c-52.221 20-89.445 70.279-89.445 129.445 0 76.667 62.221 138.888 138.888 138.888 19.721 0 38.612-4.166 55.555-11.666v400.554c.002 30.558-24.998 55.558-55.552 55.558-30.555 0-55.555-25-55.555-55.555v-250c0-61.388-49.721-111.112-111.112-111.112h-55.555V111.112C555.555 49.722 505.833 0 444.445 0H111.112C49.722 0 0 49.721 0 111.112V1000h555.555V583.333h83.333v277.779c0 76.667 62.221 138.888 138.888 138.888s138.888-62.221 138.888-138.888V333.333c.003-38.333-15.552-73.054-40.552-98.333zM444.445 388.888H111.112V111.112h333.333v277.776zm333.334 0c-30.555 0-55.555-25-55.555-55.555 0-30.554 25-55.554 55.555-55.554 30.554 0 55.554 25 55.554 55.554 0 30.555-25 55.555-55.554 55.555z" fill="url(#a)"/><circle cx="778" cy="334" r="56" fill="#BFD2FD"/><circle cx="778" cy="334" r="56" fill="url(#b)"/><circle cx="778" cy="334" r="45.5" fill="#BFD2FD"/><circle cx="778" cy="334" r="45.5" fill="url(#c)"/><circle cx="778" cy="334" r="45.5" stroke="url(#d)"/><mask id="f" maskUnits="userSpaceOnUse" x="0" y="0" width="917" height="1000"><path d="M876.112 235l.833-.833L670 27.779l-58.888 58.888 117.221 117.221c-52.221 20-89.445 70.279-89.445 129.445 0 76.667 62.221 138.888 138.888 138.888 19.721 0 38.612-4.166 55.555-11.666v400.554c.002 30.558-24.998 55.558-55.552 55.558-30.555 0-55.555-25-55.555-55.555v-250c0-61.388-49.721-111.112-111.112-111.112h-55.555V111.112C555.555 49.722 505.833 0 444.445 0H111.112C49.722 0 0 49.721 0 111.112V1000h555.555V583.333h83.333v277.779c0 76.667 62.221 138.888 138.888 138.888s138.888-62.221 138.888-138.888V333.333c.003-38.333-15.552-73.054-40.552-98.333zM444.445 388.888H111.112V111.112h333.333v277.776zm333.334 0c-30.555 0-55.555-25-55.555-55.555 0-30.554 25-55.554 55.555-55.554 30.554 0 55.554 25 55.554 55.554 0 30.555-25 55.555-55.554 55.555z" fill="url(#e)"/></mask><g mask="url(#f)"><path d="M473 940c.8 28-33.667 55-51 65l-6 17 149 7c13-27.33 31.2-87.4 0-109-39-27-93-15-92 20z" fill="#BFD2FD"/><path d="M473 940c.8 28-33.667 55-51 65l-6 17 149 7c13-27.33 31.2-87.4 0-109-39-27-93-15-92 20z" fill="url(#g)"/><path d="M88 664c-47-13-74.666 38.667-90 60-31.333-43.333-85.5-130 0-186s143.5 22.5 150 66-13 73-60 60z" fill="#BFD2FD"/><path d="M88 664c-47-13-74.666 38.667-90 60-31.333-43.333-85.5-130 0-186s143.5 22.5 150 66-13 73-60 60z" fill="url(#h)"/><path d="M290 1094c-1.333-95.333 52.4-274 278-226s210-134.667 174-232" stroke="url(#i)"/><path d="M144 1026c12.667-45.333 57.2-127.6 134-94 96 42 218-18 204 126" stroke="url(#j)"/><path d="M240 56C230-1 280 .667 302-8c-42-29.333-122.4-76.4-156-6-42 88 104 127 94 70z" fill="#BFD2FD"/><path d="M240 56C230-1 280 .667 302-8c-42-29.333-122.4-76.4-156-6-42 88 104 127 94 70z" fill="url(#k)"/></g><defs><linearGradient id="a" x1="458.332" x2="458.332" y2="1000" gradientUnits="userSpaceOnUse"><stop stop-color="#E9FAF6"/><stop offset="1" stop-color="#E9F7FA"/></linearGradient><linearGradient id="b" x1="778" y1="278" x2="778" y2="390" gradientUnits="userSpaceOnUse"><stop stop-color="#BFD2FD"/><stop offset="1" stop-color="#B4CAFD"/></linearGradient><linearGradient id="c" x1="778" y1="288" x2="778" y2="380" gradientUnits="userSpaceOnUse"><stop stop-color="#BFD2FD"/><stop offset="1" stop-color="#B4CAFD"/></linearGradient><linearGradient id="d" x1="778" y1="288" x2="778" y2="380" gradientUnits="userSpaceOnUse"><stop stop-color="#3352A1"/><stop offset="1" stop-color="#132450"/></linearGradient><linearGradient id="e" x1="458.332" x2="458.332" y2="1000" gradientUnits="userSpaceOnUse"><stop stop-color="#E9FAF6"/><stop offset="1" stop-color="#E9F7FA"/></linearGradient><linearGradient id="g" x1="501.936" y1="905.829" x2="501.936" y2="1029" gradientUnits="userSpaceOnUse"><stop stop-color="#BFD2FD"/><stop offset="1" stop-color="#B4CAFD"/></linearGradient><linearGradient id="h" x1="53.976" y1="519.554" x2="53.976" y2="724" gradientUnits="userSpaceOnUse"><stop stop-color="#BFD2FD"/><stop offset="1" stop-color="#B4CAFD"/></linearGradient><linearGradient id="i" x1="526.517" y1="636" x2="526.517" y2="1094" gradientUnits="userSpaceOnUse"><stop stop-color="#FD676C"/><stop offset="1" stop-color="#FD5C62"/></linearGradient><linearGradient id="j" x1="313.552" y1="924.143" x2="313.552" y2="1058" gradientUnits="userSpaceOnUse"><stop stop-color="#3352A1"/><stop offset="1" stop-color="#132450"/></linearGradient><linearGradient id="k" x1="228.776" y1="-52.248" x2="228.776" y2="76.998" gradientUnits="userSpaceOnUse"><stop stop-color="#BFD2FD"/><stop offset="1" stop-color="#B4CAFD"/></linearGradient></defs></svg>