<svg width="600" height="600" viewBox="0 0 600 600" fill="none" xmlns="http://www.w3.org/2000/svg"><rect width="600" height="600" rx="5" fill="#E9FAF6"/><rect width="600" height="600" rx="5" fill="url(#a)"/><mask id="c" maskUnits="userSpaceOnUse" x="0" y="0" width="600" height="600"><rect width="600" height="600" rx="5" fill="#E9FAF6"/><rect width="600" height="600" rx="5" fill="url(#b)"/></mask><g mask="url(#c)"><path d="M-4 219c4.162-34.04 54.901-81.046 62.433-107.449 7.533-26.402 9.64-83.58-62.433-72.03" stroke="#3352A1"/><path d="M-4 219c4.162-34.04 54.901-81.046 62.433-107.449 7.533-26.402 9.64-83.58-62.433-72.03" stroke="url(#d)"/><path d="M-7 84c36.667 2.333 142 18 162-42S254.667 1.333 271-2" stroke="url(#e)"/><path d="M545.283 109.074C574 74 598.557 95.691 616 109.074V-27.431C586.771-41.483 539-71 485.881.673c-53.119 71.672 30.686 143.475 59.402 108.401z" fill="#BFD2FD"/><path d="M545.283 109.074C574 74 598.557 95.691 616 109.074V-27.431C586.771-41.483 539-71 485.881.673c-53.119 71.672 30.686 143.475 59.402 108.401z" fill="url(#f)"/></g><defs><linearGradient id="a" x1="300" x2="300" y2="600" gradientUnits="userSpaceOnUse"><stop stop-color="#E9FAF6"/><stop offset="1" stop-color="#E9F7FA"/></linearGradient><linearGradient id="b" x1="300" x2="300" y2="600" gradientUnits="userSpaceOnUse"><stop stop-color="#E9FAF6"/><stop offset="1" stop-color="#E9F7FA"/></linearGradient><linearGradient id="d" x1="29" y1="38" x2="29" y2="219" gradientUnits="userSpaceOnUse"><stop stop-color="#FD676C"/><stop offset="1" stop-color="#FD5C62"/></linearGradient><linearGradient id="e" x1="124.5" y1="-17" x2="124.5" y2="84.473" gradientUnits="userSpaceOnUse"><stop stop-color="#3352A1"/><stop offset="1" stop-color="#132450"/></linearGradient><linearGradient id="f" x1="543.891" y1="-32.598" x2="543.891" y2="111.406" gradientUnits="userSpaceOnUse"><stop stop-color="#BFD2FD"/><stop offset="1" stop-color="#B4CAFD"/></linearGradient></defs></svg>