<svg width="600" height="600" viewBox="0 0 600 600" fill="none" xmlns="http://www.w3.org/2000/svg"><rect width="600" height="600" rx="5" fill="url(#a)"/><mask id="c" maskUnits="userSpaceOnUse" x="0" y="0" width="600" height="600"><rect width="600" height="600" rx="5" fill="url(#b)"/></mask><g mask="url(#c)"><path d="M461.014 478.58c41.564-58.503 127.138-24.819 154.033 31.911 26.894 56.73 0 175.509 0 175.509L395 671.817c17.115.591-14.67-7.723 66.014-65.594 80.684-57.871-41.564-69.14 0-127.643z" fill="#3352A1"/><path d="M610 529c-82.183 80-127.646 10-199.337 20-71.692 10-95.006 50-106.663 78" stroke="url(#d)"/><path d="M610 529c-82.183 80-127.646 10-199.337 20-71.692 10-95.006 50-106.663 78" stroke="url(#e)"/><path d="M-28 230C27.822 210.929 129.896 137.03 91.618-6" stroke="#3352A1"/><path d="M-28 230C27.822 210.929 129.896 137.03 91.618-6" stroke="url(#f)"/><path d="M-14 82C8.667 62 67.6 28 122 52c68 30 162-28 166-62" stroke="url(#g)"/><path d="M-14 82C8.667 62 67.6 28 122 52c68 30 162-28 166-62" stroke="url(#h)"/></g><defs><linearGradient id="a" x1="300" x2="300" y2="600" gradientUnits="userSpaceOnUse"><stop stop-color="#3352A1"/><stop offset="1" stop-color="#132450"/></linearGradient><linearGradient id="b" x1="300" x2="300" y2="600" gradientUnits="userSpaceOnUse"><stop stop-color="#3352A1"/><stop offset="1" stop-color="#132450"/></linearGradient><linearGradient id="d" x1="428.149" y1="518.175" x2="428.149" y2="627" gradientUnits="userSpaceOnUse"><stop stop-color="#3352A1"/><stop offset="1" stop-color="#132450"/></linearGradient><linearGradient id="e" x1="428.149" y1="518.175" x2="428.149" y2="627" gradientUnits="userSpaceOnUse"><stop stop-color="#BFD2FD"/><stop offset="1" stop-color="#B4CAFD"/></linearGradient><linearGradient id="f" x1="36" y1="-6" x2="36" y2="230" gradientUnits="userSpaceOnUse"><stop stop-color="#FD676C"/><stop offset="1" stop-color="#FD5C62"/></linearGradient><linearGradient id="g" x1="137" y1="-10" x2="137" y2="82" gradientUnits="userSpaceOnUse"><stop stop-color="#3352A1"/><stop offset="1" stop-color="#132450"/></linearGradient><linearGradient id="h" x1="137" y1="-10" x2="137" y2="82" gradientUnits="userSpaceOnUse"><stop stop-color="#BFD2FD"/><stop offset="1" stop-color="#B4CAFD"/></linearGradient></defs></svg>