<svg width="600" height="600" viewBox="0 0 600 600" fill="none" xmlns="http://www.w3.org/2000/svg"><rect width="600" height="600" rx="5" fill="#E9FAF6"/><rect width="600" height="600" rx="5" fill="url(#a)"/><mask id="c" maskUnits="userSpaceOnUse" x="0" y="0" width="600" height="600"><rect width="600" height="600" rx="5" fill="#E9FAF6"/><rect width="600" height="600" rx="5" fill="url(#b)"/></mask><g mask="url(#c)"><path d="M501.584 125.561c51.321 18.651 90.297-7.638 110.363-22.915L628-17.217S481-40 511.617-6.641c30.617 33.359 21.751 49.562-10.033 51.118-31.784 1.556-51.322 62.433 0 81.084z" fill="#BFD2FD"/><path d="M501.584 125.561c51.321 18.651 90.297-7.638 110.363-22.915L628-17.217S481-40 511.617-6.641c30.617 33.359 21.751 49.562-10.033 51.118-31.784 1.556-51.322 62.433 0 81.084z" fill="url(#d)"/><path d="M73-6c4 24.667 33.2 72 118 64S315.667 5.333 325-16" stroke="#3352A1"/><path d="M73-6c4 24.667 33.2 72 118 64S315.667 5.333 325-16" stroke="url(#e)"/><path d="M146-54c3.426 35.992 40 142-63.956 175.99C-21.913 155.981-6.73 233.335-6 258" stroke="url(#f)"/></g><defs><linearGradient id="a" x1="300" x2="300" y2="600" gradientUnits="userSpaceOnUse"><stop stop-color="#E9FAF6"/><stop offset="1" stop-color="#E9F7FA"/></linearGradient><linearGradient id="b" x1="300" x2="300" y2="600" gradientUnits="userSpaceOnUse"><stop stop-color="#E9FAF6"/><stop offset="1" stop-color="#E9F7FA"/></linearGradient><linearGradient id="d" x1="552.425" y1="-5.447" x2="552.425" y2="125.637" gradientUnits="userSpaceOnUse"><stop stop-color="#BFD2FD"/><stop offset="1" stop-color="#B4CAFD"/></linearGradient><linearGradient id="e" x1="199" y1="-16" x2="199" y2="58.899" gradientUnits="userSpaceOnUse"><stop stop-color="#FD676C"/><stop offset="1" stop-color="#FD5C62"/></linearGradient><linearGradient id="f" x1="72.742" y1="-92.132" x2="73.605" y2="243.8" gradientUnits="userSpaceOnUse"><stop stop-color="#3352A1"/><stop offset="1" stop-color="#132450"/></linearGradient></defs></svg>