<svg width="270" height="270" viewBox="0 0 270 270" fill="none" xmlns="http://www.w3.org/2000/svg"><rect width="270" height="270" rx="5" fill="url(#a)"/><mask id="c" maskUnits="userSpaceOnUse" x="0" y="0" width="270" height="270"><rect width="270" height="270" rx="5" fill="url(#b)"/></mask><g mask="url(#c)"><path d="M205 205c-64 4.8-76 74-74 108l42 66 158-14-50-246c1.333 26.667-12 81.2-76 86z" fill="#3352A1"/><path d="M287 55c-18.667 14-57.6 54-64 102-8 60 52 68-32 156" stroke="url(#d)"/><path d="M287 55c-18.667 14-57.6 54-64 102-8 60 52 68-32 156" stroke="url(#e)"/><path d="M286 147c-19.333-12-58.4-44.4-60-78-2-42 46-32 12-86" stroke="#3352A1"/><path d="M286 147c-19.333-12-58.4-44.4-60-78-2-42 46-32 12-86" stroke="url(#f)"/></g><defs><linearGradient id="a" x1="135" x2="135" y2="270" gradientUnits="userSpaceOnUse"><stop stop-color="#3352A1"/><stop offset="1" stop-color="#132450"/></linearGradient><linearGradient id="b" x1="135" x2="135" y2="270" gradientUnits="userSpaceOnUse"><stop stop-color="#3352A1"/><stop offset="1" stop-color="#132450"/></linearGradient><linearGradient id="d" x1="239" y1="55" x2="239" y2="313" gradientUnits="userSpaceOnUse"><stop stop-color="#3352A1"/><stop offset="1" stop-color="#132450"/></linearGradient><linearGradient id="e" x1="239" y1="55" x2="239" y2="313" gradientUnits="userSpaceOnUse"><stop stop-color="#BFD2FD"/><stop offset="1" stop-color="#B4CAFD"/></linearGradient><linearGradient id="f" x1="255.969" y1="-17" x2="255.969" y2="147" gradientUnits="userSpaceOnUse"><stop stop-color="#FD676C"/><stop offset="1" stop-color="#FD5C62"/></linearGradient></defs></svg>