<svg xmlns="http://www.w3.org/2000/svg" width="44" height="46" viewBox="0 0 44 46"><path fill="#7ee852" d="M38.468 0h-1.97c-.866 0-.866 1.348 0 1.348h1.97a3.694 3.694 0 0 1 3.69 3.69v15.597a3.694 3.694 0 0 1-3.69 3.691h-2.234a.67.67 0 0 0-.408.139l-4.1 3.148V25c0-.372-.3-.674-.67-.674h-8.17a3.66 3.66 0 0 1-1.879-.514v-7.565a4.117 4.117 0 0 0-1.81-3.41V5.039a3.694 3.694 0 0 1 3.69-3.691h9.405c.866 0 .866-1.348 0-1.348h-9.406a5.04 5.04 0 0 0-5.032 5.039v7.206a4.1 4.1 0 0 0-.957-.114H4.61A4.118 4.118 0 0 0 .5 16.247v1.455c0 .869 1.342.869 1.342 0v-1.455a2.77 2.77 0 0 1 2.768-2.768h12.287a2.77 2.77 0 0 1 2.768 2.768v7.833a.677.677 0 0 0 0 .179v4.287c0 .084-.005.169-.013.253h-1.384a3.117 3.117 0 0 0-3.06 2.558.672.672 0 0 0-.174.097l-3.003 2.328v-1.794c0-.372-.3-.674-.67-.674H4.61a2.77 2.77 0 0 1-2.768-2.768v-6.8c0-.87-1.342-.87-1.342 0v6.8a4.118 4.118 0 0 0 4.11 4.116h6.079v2.491c0 .541.654.865 1.081.534l3.387-2.625v7.582a3.118 3.118 0 0 0 3.111 3.116h4.12v1.573c0 .54.653.865 1.08.533l2.717-2.106h.803a3.118 3.118 0 0 0 3.111-3.116v-1.197c0-.87-1.342-.87-1.342 0v1.197a1.77 1.77 0 0 1-1.77 1.768h-1.03a.67.67 0 0 0-.41.14l-1.817 1.409v-.875c0-.372-.3-.674-.672-.674h-4.79a1.77 1.77 0 0 1-1.77-1.768v-8.729a1.77 1.77 0 0 1 1.77-1.768h8.72a1.77 1.77 0 0 1 1.769 1.768v3.309c0 .87 1.342.87 1.342 0v-3.309a3.118 3.118 0 0 0-3.111-3.116H21c.005-.084.007-3.488.007-3.488a5.006 5.006 0 0 0 1.88.363h7.497v3.303c0 .54.651.864 1.08.535l4.997-3.838h2.007a5.04 5.04 0 0 0 5.032-5.039V5.04A5.041 5.041 0 0 0 38.468 0z"/><path fill="#7ee852" d="M35.182 13.1c.196 0 .355.16.355.355l-.003.853c-.009 2.345-.015 4.565.003 4.934a.354.354 0 0 1-.355.373h-5.765a3.02 3.02 0 0 1-1.894-.67l-.255-.207v-4.733l2.482-2.808a4.776 4.776 0 0 0 1.195-3.162c0-.034.047-.043.062-.017.537.94.607 2.097.186 3.094l-.479 1.134a.606.606 0 0 0 .557.842zm-9.127 6.249h-2.05v-6.127h2.05zm3.677-11.314c0 .87-.317 1.707-.892 2.359l-1.67 1.89a.606.606 0 0 0-.509-.275H23.4a.606.606 0 0 0-.606.606v7.34c0 .335.271.606.606.606h3.262a.606.606 0 0 0 .552-.354c.66.403 1.425.621 2.204.621h5.765c.881 0 1.608-.764 1.566-1.643-.018-.389.002-5.614.002-5.73a1.57 1.57 0 0 0-1.566-1.568l-2.998-.009.124-.294a4.736 4.736 0 0 0-.25-4.167 1.236 1.236 0 0 0-.763-.587l.004.001a27.02 27.02 0 0 0-.023-.006c-.767-.19-1.546.417-1.546 1.21zM11.306 21.888h1.463l-.244 1.48h-1.463zm-3.462 1.48a.606.606 0 1 0 0 1.213h1.788l-.334 2.02a.607.607 0 0 0 1.196.197l.367-2.217h1.463l-.334 2.02a.607.607 0 0 0 1.197.198l.367-2.218h2.433a.606.606 0 1 0 0-1.213h-2.233l.245-1.48h1.988a.606.606 0 1 0 0-1.213h-1.788l.334-2.02a.607.607 0 0 0-1.196-.198l-.367 2.218h-1.463l.334-2.02a.607.607 0 0 0-1.197-.198l-.367 2.218H7.844a.606.606 0 1 0 0 1.213h2.233l-.245 1.48zm16.991 11.039c0 .906-.601 1.576-2.272 2.496-1.67-.92-2.271-1.59-2.271-2.496 0-.674.39-1.01.755-1.098a.91.91 0 0 1 .214-.026c.275 0 .577.127.763.488a.607.607 0 0 0 1.089-.021c.196-.42.609-.495.93-.424.383.085.792.414.792 1.081zm-2.279-1.873a2.04 2.04 0 0 0-1.795-.404c-.837.204-1.682.987-1.682 2.277 0 .803.293 1.5.896 2.132.492.515 1.203 1.005 2.304 1.59a.606.606 0 0 0 .568 0c1.922-1.02 3.201-2.042 3.201-3.722 0-1.298-.875-2.072-1.742-2.265-.652-.144-1.284.01-1.75.392z"/></svg>