<svg xmlns="http://www.w3.org/2000/svg" width="46" height="46" viewBox="0 0 46 46"><path fill="#7ee852" d="M22.22 42.156c-.848 0-1.539-.69-1.539-1.54a1.54 1.54 0 1 1 1.539 1.54zm0-4.618a3.082 3.082 0 0 0-3.078 3.079 3.082 3.082 0 0 0 3.079 3.078 3.082 3.082 0 0 0 3.078-3.078 3.082 3.082 0 0 0-3.078-3.08zM19.905 3.849h3.079a.77.77 0 1 0 0-1.54h-3.08a.77.77 0 1 0 0 1.54zm5.424 0h.77a.77.77 0 1 0 0-1.54h-.77a.77.77 0 1 0 0 1.54zM2.966 10.233l-.195-.727a.77.77 0 0 0-1.487.399l.195.727a.77.77 0 0 0 1.487-.399zM1.355 7.592a.77.77 0 0 0 .693-.84 1.87 1.87 0 0 1 .023-.53.768.768 0 1 0-1.51-.29 3.384 3.384 0 0 0-.045.968.77.77 0 0 0 .84.692zm3.559 9.882l-.195-.727a.77.77 0 1 0-1.487.399l.194.727a.77.77 0 0 0 1.488-.399zM8.81 31.957l-.194-.727a.77.77 0 0 0-1.487.399l.195.726a.77.77 0 0 0 1.487-.398zM3.94 13.853l-.195-.727a.77.77 0 0 0-1.487.399l.195.727a.77.77 0 0 0 1.487-.399zM3.286 4.79a.78.78 0 0 0 .2-.026l.727-.195a.77.77 0 1 0-.399-1.487l-.727.195a.77.77 0 0 0 .2 1.513zm3.636-.975a.78.78 0 0 0 .2-.026l.726-.195a.77.77 0 0 0-.398-1.487l-.727.194a.77.77 0 0 0 .199 1.514zm.914 24.521l-.194-.727a.77.77 0 1 0-1.488.398l.195.728a.77.77 0 0 0 1.487-.399zm-1.948-7.241l-.195-.727a.769.769 0 1 0-1.487.399l.195.727a.77.77 0 0 0 1.487-.4zm.975 3.62l-.195-.727a.77.77 0 0 0-1.487.399l.194.726a.77.77 0 0 0 1.488-.398zM43.2 12.583a.767.767 0 0 0-.944.544l-.194.727a.77.77 0 0 0 1.487.398l.194-.726a.77.77 0 0 0-.544-.943zm.972-3.621a.768.768 0 0 0-.943.544l-.194.726a.77.77 0 0 0 1.486.4l.195-.728a.769.769 0 0 0-.544-.942zm1.268-3.03a.77.77 0 0 0-1.512.29 1.78 1.78 0 0 1 .023.53.77.77 0 0 0 1.533.149 3.437 3.437 0 0 0-.044-.969zm-7.287-2.338l.727.195a.77.77 0 0 0 .398-1.487l-.727-.195a.766.766 0 0 0-.943.544.771.771 0 0 0 .545.943zm3.635.976l.728.194a.77.77 0 0 0 .398-1.487l-.728-.195a.77.77 0 0 0-.398 1.487zm.437 11.634a.77.77 0 0 0-.943.544l-.195.726a.77.77 0 0 0 1.487.399l.195-.727a.77.77 0 0 0-.544-.942z"/><path fill="#7ee852" d="M13.188 44.471c-1.033 0-1.873-.827-1.873-1.844v-5.823H34.68v5.823c0 1.017-.84 1.844-1.874 1.844zM32.806 1.533c1.033 0 1.873.828 1.873 1.845V4.6H11.314V3.378c0-1.017.841-1.845 1.874-1.845zm-21.491 4.6H34.68V35.27H11.315zm26.032 28.18a.781.781 0 0 0-.954.542l-.149.546v-.132c0-.013-.007-.024-.007-.037v-2.925c0-.013.007-.024.007-.037v-.75c0-.013-.007-.024-.007-.037v-2.925c0-.013.007-.024.007-.037v-.75c0-.013-.007-.023-.007-.036V24.81c0-.014.007-.024.007-.037v-.75c0-.013-.007-.024-.007-.037v-2.925c0-.013.007-.024.007-.037v-.75c0-.013-.007-.024-.007-.037v-2.925c0-.013.007-.023.007-.037v-.752c0-.013-.007-.023-.007-.036V13.56c0-.013.007-.023.007-.036v-.751c0-.013-.007-.024-.007-.037V9.813c0-.013.007-.024.007-.037v-.75c0-.014-.007-.024-.007-.037V6.063c0-.013.007-.023.007-.036v-.751c0-.013-.007-.024-.007-.037V3.378C36.237 1.516 34.698 0 32.806 0H13.188c-1.892 0-3.43 1.516-3.43 3.378v32.018l-.15-.546a.777.777 0 0 0-.954-.542.766.766 0 0 0-.55.94l.197.723a.778.778 0 0 0 .954.542.775.775 0 0 0 .503-.416v1.82c-.039.005-.078.002-.117.012a.766.766 0 0 0-.55.94l.196.723a.764.764 0 0 0 .47.51v2.52c0 1.863 1.54 3.378 3.432 3.378h19.617c1.892 0 3.43-1.516 3.43-3.378v-2.517a.762.762 0 0 0 .479-.512l.197-.724a.766.766 0 0 0-.55-.939c-.043-.01-.083-.008-.125-.012v-1.813c0-.004.003-.007.003-.011.093.2.273.358.506.42a.78.78 0 0 0 .954-.542l.197-.725a.761.761 0 0 0-.55-.935zm1.955-7.248a.767.767 0 0 0-.943.545l-.195.726a.77.77 0 0 0 1.487.399l.195-.727a.769.769 0 0 0-.544-.943z"/><path fill="#7ee852" d="M38.328 30.685a.767.767 0 0 0-.942.544l-.195.727a.77.77 0 0 0 1.487.399l.195-.727a.77.77 0 0 0-.545-.943zm1.948-7.241a.766.766 0 0 0-.942.544l-.195.728a.77.77 0 0 0 1.487.398l.195-.727a.77.77 0 0 0-.545-.943zm.974-3.621a.768.768 0 0 0-.943.545l-.194.726a.77.77 0 0 0 1.486.399l.195-.727a.77.77 0 0 0-.544-.943z"/></svg>