<svg xmlns="http://www.w3.org/2000/svg" width="46" height="46" viewBox="0 0 46 46"><path fill="#7ee852" d="M4.488 41.512h1.496v1.496H4.488zm2.992 0h1.496v1.496H7.48zm2.904 0h1.496v1.496h-1.496zm25.144 0h5.984v1.496h-5.984z"/><path fill="#7ee852" d="M44.516 42.29a2.229 2.229 0 0 1-2.226 2.226H3.71a2.229 2.229 0 0 1-2.226-2.226v-2.225h15.285a5.765 5.765 0 0 0 3.878 1.483h4.706a5.765 5.765 0 0 0 3.878-1.483h9.35V38.58h-9.953l-.217.217a4.295 4.295 0 0 1-3.058 1.267h-4.706a4.296 4.296 0 0 1-3.059-1.267l-.216-.217H5.935V14.839h12.888c1.671 3.503 5.237 5.935 9.37 5.935 4.134 0 7.7-2.432 9.371-5.935h2.5v25.226h4.452zM2.968 14.097a2.23 2.23 0 0 1 2.226-2.226h12.731c.073.507.175 1.003.32 1.484H5.934c-.818 0-1.483.665-1.483 1.484V38.58H2.968zM28.194 1.484c2.188 0 4.19.797 5.743 2.11l-5.916 5.917-7.725-3.218c1.485-2.853 4.465-4.81 7.898-4.81zm3.508 17.083zm-2.66-7.98l5.943-5.943a8.855 8.855 0 0 1 2.112 5.743c0 3.664-2.226 6.816-5.395 8.18zm-9.32-2.926l7.874 3.281 2.697 8.088a8.856 8.856 0 0 1-2.1.26c-4.909 0-8.903-3.993-8.903-8.903 0-.951.154-1.867.431-2.726zm21.084 4.21a2.23 2.23 0 0 1 2.226 2.226V38.58h-1.484V14.839c0-.819-.665-1.484-1.483-1.484h-1.922c.143-.48.246-.977.319-1.484zm3.71 26.71V14.097a3.714 3.714 0 0 0-3.71-3.71h-2.225C38.58 4.66 33.92 0 28.194 0c-5.728 0-10.388 4.66-10.388 10.387H5.194a3.714 3.714 0 0 0-3.71 3.71V38.58H0v3.71A3.714 3.714 0 0 0 3.71 46h38.58A3.714 3.714 0 0 0 46 42.29v-3.71z"/><path fill="#7ee852" d="M36.303 34.126a.745.745 0 0 1-.74-.748c0-.412.333-.748.74-.748s.739.336.739.748a.745.745 0 0 1-.74.748zm-5.913-4.488a.745.745 0 0 1-.739-.748c0-.412.332-.748.74-.748.406 0 .738.336.738.748a.745.745 0 0 1-.739.748zM23 35.622a.745.745 0 0 1-.739-.748c0-.412.332-.748.739-.748s.739.336.739.748a.745.745 0 0 1-.739.748zm-6.651-4.488a.745.745 0 0 1-.74-.748c0-.412.333-.748.74-.748s.739.336.739.748a.745.745 0 0 1-.74.748zm-6.652 4.488a.745.745 0 0 1-.739-.748c0-.412.332-.748.74-.748.406 0 .738.336.738.748a.745.745 0 0 1-.739.748zm26.606-4.488c-.454 0-.876.14-1.228.378l-2.578-1.957a2.26 2.26 0 0 0 .11-.665c0-1.237-.994-2.244-2.217-2.244-1.222 0-2.217 1.007-2.217 2.244 0 .257.052.5.13.731l-4.138 3.352A2.175 2.175 0 0 0 23 32.63c-.497 0-.952.173-1.322.453l-3.187-2.15a2.22 2.22 0 0 0 .075-.547c0-1.237-.995-2.244-2.217-2.244-1.223 0-2.217 1.007-2.217 2.244 0 .19.03.371.074.547l-3.187 2.15a2.177 2.177 0 0 0-1.322-.453c-1.222 0-2.217 1.007-2.217 2.244 0 1.237.995 2.244 2.217 2.244 1.223 0 2.217-1.007 2.217-2.244 0-.19-.03-.371-.074-.547l3.186-2.15c.37.28.825.453 1.323.453.497 0 .952-.172 1.322-.453l3.187 2.15a2.225 2.225 0 0 0-.075.547c0 1.237.995 2.244 2.217 2.244s2.217-1.007 2.217-2.244c0-.258-.052-.501-.13-.732l4.138-3.351c.34.214.737.343 1.165.343.454 0 .876-.14 1.228-.378l2.578 1.957c-.065.212-.11.432-.11.665 0 1.237.994 2.244 2.217 2.244 1.222 0 2.217-1.007 2.217-2.244 0-1.237-.995-2.244-2.217-2.244zM17.87 25.26H8.894v-7.48h8.976zm1.497-8.976H7.398v10.472h11.969z"/><path fill="#7ee852" d="M10.374 19.285h5.985v1.496h-5.985zm0 2.967h5.985v1.496h-5.985zm10.395 1.483h1.496v1.496h-1.496zm2.881 0h14.96v1.496H23.65z"/></svg>