<svg xmlns="http://www.w3.org/2000/svg" width="46" height="46" viewBox="0 0 46 46"><path fill="#7ee852" d="M10.896 16.688a1.98 1.98 0 0 0-2.776.34.678.678 0 0 0 1.067.835.624.624 0 0 1 .875-.108.677.677 0 0 0 .834-1.067zm7.01-.85a1.98 1.98 0 0 0-2.777.341.678.678 0 0 0 1.068.835.624.624 0 0 1 .875-.108.678.678 0 0 0 .834-1.068zM14.333 23a1.634 1.634 0 0 1-1.819-1.422l-.037-.304 3.24-.398.037.304c.11.894-.528 1.71-1.421 1.82zm2.766-1.985l-.078-.63a1.02 1.02 0 0 0-.387-.684 1.022 1.022 0 0 0-.757-.21l-3.89.478a1.02 1.02 0 0 0-.685.387 1.02 1.02 0 0 0-.21.757l.077.63a2.99 2.99 0 0 0 3.329 2.601 2.99 2.99 0 0 0 2.6-3.329z"/><path fill="#7ee852" d="M21.905 3.123A5.983 5.983 0 0 0 18.633.048a.677.677 0 0 0-.853.32c-.729 1.418-2.49 2.428-4.71 2.7l-3.917.482a.677.677 0 1 0 .165 1.345l3.917-.481c2.384-.293 4.355-1.348 5.414-2.868 2.208 1.179 2.744 3.65 2.504 5.509-.249 1.931-1.264 3.383-2.47 3.531l-13.18 1.619a2.001 2.001 0 0 0-1.74 2.228l.161 1.319-1.026.126-1.03-8.382a1.663 1.663 0 0 1 .343-1.235 1.663 1.663 0 0 1 1.115-.63l3.288-.404a.677.677 0 0 0-.165-1.345l-3.288.404A3.032 3.032 0 0 0 .523 7.66l1.063 8.664a2.345 2.345 0 0 0-.966 2.192 2.344 2.344 0 0 0 2.61 2.039l1.264-.156.124 1.01a7.927 7.927 0 0 0 3.007 5.314 7.917 7.917 0 0 0 5.884 1.633 7.94 7.94 0 0 0 5.138-2.789.677.677 0 1 0-1.038-.871 6.592 6.592 0 0 1-4.265 2.315 6.58 6.58 0 0 1-4.884-1.355 6.581 6.581 0 0 1-2.497-4.413l-.207-1.682a.678.678 0 0 0-.755-.59l-1.933.239a.987.987 0 0 1-.498-1.892l.002-.002a.976.976 0 0 1 .252-.065l1.937-.238a.677.677 0 0 0 .59-.755l-.245-1.992a.645.645 0 0 1 .561-.718l12.51-1.535.935 7.616a6.558 6.558 0 0 1-.295 2.92.677.677 0 1 0 1.284.433 7.9 7.9 0 0 0 .355-3.518l-.944-7.692c1.529-.544 2.693-2.277 2.985-4.545.185-1.434-.025-2.892-.592-4.105zM37.88 34.76a1.98 1.98 0 0 0-2.777-.34.677.677 0 1 0 .835 1.067.624.624 0 0 1 .874.108.676.676 0 1 0 1.068-.835zm-7.01-.849a1.98 1.98 0 0 0-2.776-.34.677.677 0 1 0 .834 1.067.624.624 0 0 1 .875.107.676.676 0 1 0 1.067-.834zm2 6.455a1.631 1.631 0 0 1-2.625-1.485l.038-.304 3.24.398c-.04.143.02.866-.652 1.391zm1.144-2.696l-3.891-.478a1.022 1.022 0 0 0-.758.21c-.486.38-.372.892-.464 1.314-.326 2.653 2.73 4.338 4.804 2.718 1.247-.974 1.121-2.317 1.203-2.62a1.028 1.028 0 0 0-.894-1.144z"/><path fill="#7ee852" d="M44.857 23.01a3.01 3.01 0 0 0-2.017-1.142l-9.31-1.143a1.27 1.27 0 0 1-.871-.518 5.895 5.895 0 0 0-2.536-2.007.677.677 0 0 0-.516 1.253A4.54 4.54 0 0 1 31.559 21a2.629 2.629 0 0 0 1.806 1.071l9.31 1.143c.916.113 1.57.95 1.457 1.866l-1.029 8.382-1.027-.126.162-1.32a2.002 2.002 0 0 0-1.74-2.228L27.316 28.17a4.509 4.509 0 0 1-3.083-1.784 4.514 4.514 0 0 1-.85-3.462 4.569 4.569 0 0 1 3.95-3.782.677.677 0 1 0-.161-1.345 5.93 5.93 0 0 0-5.127 4.91 5.858 5.858 0 0 0 1.104 4.492 5.844 5.844 0 0 0 3.334 2.194l-.94 7.655a7.938 7.938 0 0 0 .207 3.023.678.678 0 1 0 1.309-.348 6.59 6.59 0 0 1-.171-2.51l.935-7.616 12.51 1.536a.645.645 0 0 1 .56.718l-.244 1.992a.678.678 0 0 0 .59.755l1.936.238a.98.98 0 0 1 .859 1.1.987.987 0 0 1-1.099.859l-1.937-.239a.677.677 0 0 0-.755.59l-.207 1.682a6.581 6.581 0 0 1-2.496 4.413 6.578 6.578 0 0 1-4.885 1.354 6.602 6.602 0 0 1-4.532-2.654.677.677 0 0 0-1.092.802 7.95 7.95 0 0 0 5.46 3.197 7.918 7.918 0 0 0 5.884-1.632 7.927 7.927 0 0 0 3.006-5.315l.124-1.01c1.21.144 1.304.174 1.552.174a2.344 2.344 0 0 0 1.356-4.25l1.064-8.662a3.008 3.008 0 0 0-.62-2.234zM35.194 5.683a.678.678 0 0 0-.678.678v1.658a.677.677 0 0 0 1.355 0V6.36a.678.678 0 0 0-.677-.677zm0 5.036a.678.678 0 0 0-.678.677v1.659a.677.677 0 0 0 1.355 0v-1.659a.677.677 0 0 0-.677-.677zm3.45-1.709h-1.658a.678.678 0 0 0 0 1.356h1.658a.678.678 0 0 0 0-1.355zm-5.186 0h-1.659a.677.677 0 0 0 0 1.356h1.659a.678.678 0 0 0 0-1.355zM10.806 32.267a.677.677 0 0 0-.678.678v1.658a.677.677 0 0 0 1.355 0v-1.658a.677.677 0 0 0-.677-.678zm0 5.036a.677.677 0 0 0-.678.678v1.658a.678.678 0 0 0 1.355 0v-1.658a.677.677 0 0 0-.677-.678zm3.394-1.669h-1.658a.677.677 0 1 0 0 1.355H14.2a.677.677 0 0 0 0-1.355zm-5.186 0H7.356a.677.677 0 1 0 0 1.355h1.658a.677.677 0 1 0 0-1.355z"/></svg>