<svg xmlns="http://www.w3.org/2000/svg" width="151" height="85" viewBox="0 0 151 85"><defs><filter id="a" width="64.02" height="28" x="15.73" y="24.1" filterUnits="userSpaceOnUse"><feOffset in="SourceGraphic" result="FeOffset1034Out"/><feGaussianBlur in="FeOffset1034Out" result="FeGaussianBlur1035Out" stdDeviation="1.6 1.6"/></filter><filter id="b" width="64.02" height="28" x="71.25" y="24.1" filterUnits="userSpaceOnUse"><feOffset in="SourceGraphic" result="FeOffset1049Out"/><feGaussianBlur in="FeOffset1049Out" result="FeGaussianBlur1050Out" stdDeviation="1.6 1.6"/></filter><filter id="c" width="175" height="40" x="-12" y="55" filterUnits="userSpaceOnUse"><feOffset in="SourceGraphic" result="FeOffset1064Out"/><feGaussianBlur in="FeOffset1064Out" result="FeGaussianBlur1065Out" stdDeviation="4 4"/></filter><mask id="e" width="2" height="2" x="-1" y="-1"><path fill="#fff" d="M71.9 34.49h7.2v7.21h-7.2z"/><path d="M75.5 34.492a3.603 3.603 0 1 1 0 7.206 3.603 3.603 0 0 1 0-7.206z"/></mask><filter id="d" width="35.2" height="35.21" x="57.9" y="20.49" filterUnits="userSpaceOnUse"><feOffset in="SourceGraphic" result="FeOffset1080Out"/><feGaussianBlur in="FeOffset1080Out" result="FeGaussianBlur1081Out" stdDeviation="1.6 1.6"/></filter></defs><path fill="#fff" d="M130.63 19.047V12.93h10.585V9.54H130.63V3.77h11.932V.317h-16.003V22.5H143v-3.454zm-24.52 3.77c3.602 0 6.67-1.298 8.706-3.707l-2.63-2.535c-1.597 1.774-3.57 2.63-5.856 2.63-4.54 0-7.829-3.232-7.829-7.796s3.288-7.796 7.829-7.796c2.286 0 4.259.856 5.856 2.599l2.63-2.504C112.781 1.299 109.712 0 106.142 0c-6.733 0-11.743 4.785-11.743 11.409 0 6.624 5.01 11.409 11.712 11.409zm-36.482-8.683l4.103-9.697 4.133 9.697zm11.775 8.367h4.259L75.766.317h-4.008L61.894 22.5h4.196l2.16-5.134h10.96zm-43.152 0h15.532v-3.486H42.322V.317H38.25zm-21.42-9.888h-4.76v-8.81h4.76c3.57 0 5.417 1.616 5.417 4.405s-1.847 4.405-5.417 4.405zM17.019.317H8V22.5h4.071v-6.402h4.948c5.762 0 9.332-3.01 9.332-7.89 0-4.913-3.57-7.892-9.332-7.892zM140.44 64.025l-3.243-4.437-3.208 4.437h-2.526l4.437-5.955-4.198-5.721h2.508l3.055 4.153 3.021-4.153h2.407l-4.182 5.638L143 64.025zm-19.525-4.404l-2.253-5.104-2.235 5.104zm.734 1.702h-5.973l-1.178 2.702h-2.287l5.376-11.676h2.185l5.393 11.676h-2.321zm-24.884-8.974h2.22v9.841h6.246v1.835h-8.466zm-9.301 9.858v1.818h-8.96V52.349h8.721v1.818h-6.502v3.036h5.768v1.784h-5.769v3.22zm-23.45-8.023H61.42v4.653h2.594c1.946 0 2.952-.867 2.952-2.335s-1.006-2.318-2.952-2.318zm3.004 9.84l-2.44-3.419c-.155.017-.308.017-.462.017H61.42v3.403H59.2V52.349h4.915c3.14 0 5.086 1.568 5.086 4.153 0 1.768-.921 3.07-2.543 3.686l2.748 3.837zm-30.772-5.837c0-2.385-1.792-4.103-4.199-4.103-2.406 0-4.198 1.718-4.198 4.103s1.792 4.103 4.198 4.103c2.407 0 4.199-1.718 4.199-4.103zm-10.633 0c0-3.453 2.73-6.005 6.434-6.005s6.435 2.535 6.435 6.005c0 3.47-2.731 6.005-6.435 6.005-3.703 0-6.434-2.552-6.434-6.005zM11.96 54.184H8v-1.835h10.138v1.835h-3.96v9.84H11.96z"/><path fill="none" stroke="#7ee852" d="M29.725 38.095h36.029" filter="url(#a)"/><path fill="none" stroke="#7ee852" stroke-miterlimit="50" d="M29.725 38.095h36.029"/><path fill="none" stroke="#7ee852" d="M85.246 38.095h36.028" filter="url(#b)"/><path fill="none" stroke="#7ee852" stroke-miterlimit="50" d="M85.246 38.095h36.028"/><g fill="none" stroke="#7ee852"><path d="M8 75h135" filter="url(#c)"/><path stroke-miterlimit="50" d="M8 75h135"/></g><g filter="url(#d)"><path fill="none" d="M75.5 34.492a3.603 3.603 0 1 1 0 7.206 3.603 3.603 0 0 1 0-7.206z" mask="url(&quot;#e&quot;)"/><path fill="#7ee852" d="M75.5 34.492a3.603 3.603 0 1 1 0 7.206 3.603 3.603 0 0 1 0-7.206z"/></g><path fill="#7ee852" d="M75.5 34.492a3.603 3.603 0 1 1 0 7.206 3.603 3.603 0 0 1 0-7.206z"/></svg>