<svg xmlns="http://www.w3.org/2000/svg" width="231" height="23" viewBox="0 0 231 23"><defs><mask id="b" width="2" height="2" x="-1" y="-1"><path fill="#fff" d="M222 14h5v5h-5z"/><path d="M224.923 18.923c1.14 0 2.077-.9 2.077-2.132 0-1.285-.937-2.132-2.077-2.132s-2.076.847-2.076 2.132c0 1.233.937 2.132 2.076 2.132z"/></mask><filter id="a" width="35" height="35" x="207" y="-1" filterUnits="userSpaceOnUse"><feOffset in="SourceGraphic" result="FeOffset1069Out"/><feGaussianBlur in="FeOffset1069Out" result="FeGaussianBlur1070Out" stdDeviation="2 2"/></filter></defs><path fill="#fff" d="M217.833 18.736l-4.812-7.02-4.76 7.02h-2.963l-.3-.693 6.099-8.728-6.23-9.051h3.723l4.533 6.57 4.482-6.57h3.57l-6.204 8.92 6.66 9.552zm-18.84-6.967l-3.344-8.075-3.317 8.075zm1.088 2.692h-8.863l-1.747 4.275h-3.394L194.054.264h3.242l7.701 17.779-.484.693h-2.66zM173.29.264h3.292v15.57h9.268v2.902h-12.56zm-3.672 15.596v2.876h-13.295V.264h12.94V3.14h-9.648v4.803h8.56v2.824h-8.56v5.093zM144.952 3.167h-3.85v7.362h3.85c2.887 0 4.38-1.372 4.38-3.694 0-2.323-1.493-3.668-4.38-3.668zm4.457 15.57l-3.621-5.41c-.228.026-.456.026-.684.026h-4.001v5.383h-3.292V.264h7.293c4.66 0 7.546 2.48 7.546 6.57 0 2.798-1.367 4.856-3.773 5.833l4.077 6.07zm-25.4-9.237c0-3.774-2.659-6.492-6.23-6.492-3.57 0-6.229 2.718-6.229 6.492s2.66 6.492 6.23 6.492c3.57 0 6.23-2.718 6.23-6.492zm-15.776 0c0-5.463 4.051-9.5 9.547-9.5 5.495 0 9.547 4.011 9.547 9.5s-4.052 9.5-9.547 9.5c-5.496 0-9.547-4.037-9.547-9.5zm-10.13-6.333h-5.875V.264h15.042v2.903h-5.875v15.57h-3.292zM83.846 15.86v2.876H70.551V.264h12.94V3.14h-9.648v4.803h8.56v2.824h-8.56v5.093zM60.346 19c-5.42 0-9.471-3.985-9.471-9.5 0-5.515 4.052-9.5 9.496-9.5 2.887 0 5.369 1.082 7.015 3.088l-2.127 2.084c-1.292-1.451-2.887-2.164-4.736-2.164-3.672 0-6.33 2.692-6.33 6.492s2.658 6.492 6.33 6.492c1.849 0 3.444-.713 4.736-2.19l2.127 2.11C65.74 17.918 63.258 19 60.346 19zm-16.511-7.23l-3.343-8.076-3.317 8.075zm1.089 2.691H36.06l-1.748 4.275H30.92L38.897.264h3.241l8.003 18.472h-3.444zM18.132.264h3.292v15.57h9.268v2.902h-12.56zM7.142 10.503c2.886 0 4.38-1.346 4.38-3.668 0-2.323-1.494-3.668-4.38-3.668h-3.85v7.336h3.85zm.15-10.24c4.66 0 7.547 2.481 7.547 6.572 0 4.064-2.887 6.57-7.547 6.57h-4v5.331H0V.264z"/><g filter="url(#a)"><path fill="none" d="M224.923 18.923c1.14 0 2.077-.9 2.077-2.132 0-1.285-.937-2.132-2.077-2.132s-2.076.847-2.076 2.132c0 1.233.937 2.132 2.076 2.132z" mask="url(&quot;#b&quot;)"/><path fill="#7ee852" d="M224.923 18.923c1.14 0 2.077-.9 2.077-2.132 0-1.285-.937-2.132-2.077-2.132s-2.076.847-2.076 2.132c0 1.233.937 2.132 2.076 2.132z"/></g><path fill="#7ee852" d="M224.923 18.923c1.14 0 2.077-.9 2.077-2.132 0-1.285-.937-2.132-2.077-2.132s-2.076.847-2.076 2.132c0 1.233.937 2.132 2.076 2.132z"/></svg>