<svg xmlns="http://www.w3.org/2000/svg" width="151" height="85" viewBox="0 0 151 85"><defs><filter id="a" width="58" height="29" x="17" y="24" filterUnits="userSpaceOnUse"><feOffset in="SourceGraphic" result="FeOffset1136Out"/><feGaussianBlur in="FeOffset1136Out" result="FeGaussianBlur1137Out" stdDeviation="1.6 1.6"/></filter><filter id="b" width="58" height="29" x="76" y="24" filterUnits="userSpaceOnUse"><feOffset in="SourceGraphic" result="FeOffset1151Out"/><feGaussianBlur in="FeOffset1151Out" result="FeGaussianBlur1152Out" stdDeviation="1.6 1.6"/></filter><filter id="c" width="175" height="40" x="-12" y="55" filterUnits="userSpaceOnUse"><feOffset in="SourceGraphic" result="FeOffset1166Out"/><feGaussianBlur in="FeOffset1166Out" result="FeGaussianBlur1167Out" stdDeviation="4 4"/></filter><mask id="e" width="2" height="2" x="-1" y="-1"><path fill="#fff" d="M72 35h7v7h-7z"/><path d="M72.5 38.105a3 3 0 1 1 6 0 3 3 0 0 1-6 0z"/></mask><filter id="d" width="35" height="35" x="58" y="21" filterUnits="userSpaceOnUse"><feOffset in="SourceGraphic" result="FeOffset1182Out"/><feGaussianBlur in="FeOffset1182Out" result="FeGaussianBlur1183Out" stdDeviation="1.6 1.6"/></filter></defs><path fill="#222831" d="M130.63 15.86v-5.093h10.585V7.943H130.63V3.14h11.932V.264h-16.003v18.472H143V15.86zM106.11 19c3.602 0 6.67-1.082 8.706-3.087l-2.63-2.112c-1.597 1.478-3.57 2.19-5.856 2.19-4.54 0-7.829-2.691-7.829-6.491s3.288-6.492 7.829-6.492c2.286 0 4.259.713 5.856 2.164l2.63-2.084C112.781 1.082 109.712 0 106.142 0c-6.733 0-11.743 3.985-11.743 9.5 0 5.515 5.01 9.5 11.712 9.5zm-36.482-7.23l4.103-8.076 4.133 8.075zm11.775 6.966h4.259L75.766.264h-4.008l-9.864 18.472h4.196l2.16-4.275h10.96zm-43.152 0h15.532v-2.903H42.322V.263H38.25zm-21.42-8.233h-4.76V3.167h4.76c3.57 0 5.417 1.346 5.417 3.668s-1.847 3.668-5.417 3.668zm.188-10.24H8v18.473h4.071v-5.33h4.948c5.762 0 9.332-2.507 9.332-6.571 0-4.09-3.57-6.571-9.332-6.571zM140.44 65.861l-3.243-3.694-3.208 3.694h-2.526l4.437-4.958-4.198-4.764h2.508l3.055 3.458 3.021-3.458h2.407l-4.182 4.694L143 65.861zm-19.525-3.667l-2.253-4.25-2.235 4.25zm.734 1.417h-5.973l-1.178 2.25h-2.287l5.376-9.722h2.185l5.393 9.722h-2.321zM96.765 56.14h2.22v8.194h6.246v1.528h-8.466zm-9.301 8.208v1.514h-8.96V56.14h8.721v1.514h-6.503v2.528h5.77v1.486h-5.77v2.68zm-20.498-4.75c0-1.222-1.006-1.93-2.952-1.93H61.42v3.875h2.594c1.946 0 2.952-.723 2.952-1.945zm.052 6.264l-2.44-2.847c-.155.014-.308.014-.462.014H61.42v2.833H59.2V56.14h4.915c3.14 0 5.086 1.305 5.086 3.458 0 1.472-.921 2.556-2.543 3.07l2.748 3.194zM36.246 61c0-1.986-1.792-3.417-4.199-3.417-2.406 0-4.198 1.43-4.198 3.417 0 1.986 1.792 3.417 4.198 3.417 2.407 0 4.199-1.43 4.199-3.417zm-10.633 0c0-2.875 2.73-5 6.434-5s6.435 2.111 6.435 5-2.731 5-6.435 5c-3.703 0-6.434-2.125-6.434-5zM11.96 57.667H8v-1.528h10.138v1.528h-3.96v8.194H11.96z"/><path fill="none" stroke="#7ee852" d="M31.049 38.095h30" filter="url(#a)"/><path fill="none" stroke="#7ee852" stroke-miterlimit="50" d="M31.049 38.095h30"/><path fill="none" stroke="#7ee852" d="M89.951 38.095h30" filter="url(#b)"/><path fill="none" stroke="#7ee852" stroke-miterlimit="50" d="M89.951 38.095h30"/><g fill="none" stroke="#7ee852"><path d="M8 75h135" filter="url(#c)"/><path stroke-miterlimit="50" d="M8 75h135"/></g><g filter="url(#d)"><path fill="none" d="M72.5 38.105a3 3 0 1 1 6 0 3 3 0 0 1-6 0z" mask="url(&quot;#e&quot;)"/><path fill="#7ee852" d="M72.5 38.105a3 3 0 1 1 6 0 3 3 0 0 1-6 0z"/></g><path fill="#7ee852" d="M72.5 38.105a3 3 0 1 1 6 0 3 3 0 0 1-6 0z"/></svg>