<svg xmlns="http://www.w3.org/2000/svg" width="57" height="35" viewBox="0 0 57 35"><path fill="#fff" d="M0 2c0-1 1-2 2-2h53c1 0 2 1 2 2v31c0 1-1 2-2 2H2c-1 0-2-1-2-2z"/><path fill="#07a9e2" d="M28.444 24.875a9.84 9.84 0 0 0 3.278-7.375c0-2.95-1.269-5.53-3.278-7.374a9.994 9.994 0 0 0-6.662-2.58c-5.498 0-9.992 4.477-9.992 9.954 0 5.478 4.494 9.903 9.992 9.903 2.538.053 4.918-.948 6.662-2.528z"/><path fill="#009ddd" d="M11.79 17.5c0 5.478 4.494 9.903 9.992 9.903 2.591 0 4.918-.948 6.662-2.581a9.84 9.84 0 0 0 3.278-7.374c0-2.95-1.269-5.478-3.278-7.322a9.994 9.994 0 0 0-6.662-2.58"/><path fill="#0284cc" d="M28.444 10.126a9.994 9.994 0 0 0-6.662-2.58h-.475c-3.12 2.264-5.13 5.899-5.13 9.954 0 4.056 2.01 7.69 5.077 9.903h.476c2.59 0 4.917-.948 6.661-2.581a9.84 9.84 0 0 0 3.279-7.374c0-2.95-1.217-5.478-3.226-7.322z"/><path fill="#ff2957" d="M35.27 7.545c-2.59 0-4.917.949-6.714 2.581-.37.316-.688.685-1.005 1.054h2.01c.264.316.528.685.74 1.053h-3.543c-.212.369-.423.685-.582 1.054h4.706c.159.368.317.684.423 1.053h-5.499c-.105.369-.211.685-.317 1.054h6.133c.159.684.212 1.37.212 2.107 0 1.106-.159 2.16-.529 3.16h-5.499c.106.369.265.685.423 1.053h4.706c-.159.37-.37.738-.582 1.054h-3.542c.211.369.476.737.74 1.053h2.01c-.318.369-.635.738-1.005 1.054 1.797 1.58 4.124 2.58 6.714 2.58 5.5 0 9.94-4.424 9.94-9.902 0-5.53-4.44-10.008-9.94-10.008z"/><path fill="#ed1c2e" d="M35.27 7.545c-2.59 0-4.917.949-6.714 2.581-.37.316-.688.685-1.005 1.054h2.01c.264.316.528.685.74 1.053h-3.543c-.212.369-.423.685-.582 1.054h4.706c.159.368.317.684.423 1.053h-5.499c-.105.369-.211.685-.317 1.054h6.133c.159.684.212 1.37.212 2.107 0 1.106-.159 2.16-.529 3.16h-5.499c.106.369.265.685.423 1.053h4.706c-.159.37-.37.738-.582 1.054h-3.542c.211.369.476.737.74 1.053h2.01c-.318.369-.635.738-1.005 1.054 1.797 1.58 4.124 2.58 6.714 2.58 5.5 0 9.94-4.424 9.94-9.902"/><path fill="#0466b5" d="M28.506 24.865a9.82 9.82 0 0 0 3.278-7.364c0-2.946-1.269-5.524-3.278-7.365v14.729z"/><path fill="#fff" d="M42.09 19.554h.054v.053h-.053zm0 .212zm0 0v-.159h.054l.053.106h.053l-.053-.106c.053 0 .053 0 .053-.053l-.053-.053h-.159v.265zm-.263-.106c0-.106.105-.212.264-.212.106 0 .211.053.211.212s-.052.264-.211.264c-.106 0-.264-.158-.264-.264zm.264.317a.341.341 0 0 0 .317-.317.341.341 0 0 0-.317-.317.341.341 0 0 0-.317.317.34.34 0 0 0 .317.317z"/><path fill="#d1094b" d="M28.556 10.127c-.37.316-.688.684-1.005 1.053h2.01c.264.316.528.685.74 1.054h-3.543c-.212.368-.423.684-.582 1.053h4.706c.159.369.317.685.423 1.053h-5.499c-.105.37-.211.685-.317 1.054h6.133c.159.685.212 1.37.212 2.107 0 1.106-.159 2.16-.529 3.16h-5.499c.106.369.265.685.423 1.053h4.706c-.159.37-.37.738-.582 1.054h-3.542c.211.369.476.737.74 1.053h2.01c-.318.37-.635.738-1.005 1.054 1.797 1.58 4.124 2.58 6.714 2.58h.476a12.228 12.228 0 0 0 5.076-9.902c0-4.055-2.01-7.69-5.076-9.902h-.476c-2.59-.105-4.917.896-6.714 2.476z"/><path fill="#fff" d="M20.513 19.986h-1.268l.74-3.86-1.692 3.86h-1.11l-.212-3.86-.74 3.86h-1.11l.951-5.076h1.956l.106 3.172 1.375-3.172h2.009z"/><path fill="#dce5e5" d="M19.355 17.765l.74-1.64-.582 3.067c.053.265.106.582.212.846h.846l.951-5.075h-1.85c-.212.793-.37 1.691-.37 2.59.053.053.053.106.053.212zm15.068 2.168c-.37.105-.581.158-.899.158-.634 0-.951-.317-.951-.899 0-.105 0-.211.052-.37l.053-.423.053-.317.582-3.12h1.216l-.159.952h.635l-.159.952h-.634l-.318 1.692c0 .053-.052.158-.052.158 0 .212.158.318.423.318.158 0 .264 0 .317-.053l-.159.952zm3.648-4.019c-.105-.053-.105-.053-.158-.053-.053 0-.106 0-.106-.052h-.159c-.423 0-.687.158-1.057.687l.106-.635h-1.11l-.74 4.124h1.268c.423-2.537.634-2.96 1.216-2.96h.159l.158.052.423-1.163zm-8.565 1.269c0 .529.317.899.952 1.11.528.212.581.265.581.476 0 .265-.211.37-.74.37-.37 0-.74-.052-1.11-.158l-.159.952h.053l.211.052h.318c.317.053.528.053.687.053 1.322 0 1.956-.423 1.956-1.374 0-.582-.264-.9-.899-1.164-.528-.211-.581-.264-.581-.423 0-.211.211-.317.634-.317.212 0 .582 0 .9.053l.158-.952c-.317-.053-.793-.053-1.11-.053-1.375 0-1.851.635-1.851 1.375zm-5.816.952c0 .634-.37 1.057-.899 1.057-.264 0-.423-.158-.423-.423 0-.423.37-.634 1.058-.634h.264zm.899 1.85l.053-.052v-.16l.053-.21.052-.265.265-1.48c.106-.476.106-.635.106-.846 0-.793-.582-1.216-1.64-1.216-.475 0-.845.052-1.48.211l-.159.899h.106l.159-.053a5.325 5.325 0 0 1 1.004-.106c.582 0 .794.106.794.37 0 .053 0 .106-.053.265h-.53c-1.374 0-2.167.581-2.167 1.586 0 .634.423 1.11 1.11 1.11.582 0 1.005-.158 1.322-.476v.423zm2.061-2.537c.107-.476.424-.74.794-.74.37 0 .582.21.582.528v.212zm2.01 2.432zm0 0l.106-1.005c-.423.212-.793.264-1.27.264-.687 0-1.057-.264-1.057-.74v-.158h2.485c.106-.423.159-.688.159-1.005 0-.899-.634-1.48-1.639-1.48-1.269 0-2.168 1.004-2.168 2.432 0 1.216.74 1.85 2.115 1.85a5.25 5.25 0 0 0 1.269-.158z"/><g fill="#fff"><path d="M40.663 17.604c0 .159 0 .318-.052.529-.106.634-.688 1.005-.952 1.005-.423 0-.688-.37-.688-.9 0-.687.37-1.427 1.005-1.427.529 0 .687.37.687.793zm1.322 0c0-1.004-.687-1.85-1.956-1.85-1.48 0-2.432 1.004-2.432 2.432 0 1.057.581 1.903 1.956 1.903 1.269 0 2.22-.581 2.432-1.956v-.529z"/><path d="M37.65 18.662a8.62 8.62 0 0 0 .105-1.163v-.106c-.052.264-.105.529-.105.846-.053.105-.053.264 0 .423z"/></g></svg>