<svg xmlns="http://www.w3.org/2000/svg" width="57" height="35" viewBox="0 0 57 35"><path fill="#fff" d="M0 2c0-1 1-2 2-2h53c1 0 2 1 2 2v31c0 1-1 2-2 2H2c-1 0-2-1-2-2z"/><path fill="#ffb600" d="M45.286 17.5c0 5.503-4.445 10-10 10-5.503 0-10-4.497-10-10s4.444-10 9.947-10c5.608 0 10.053 4.497 10.053 10z"/><path fill="#f7981d" d="M35.286 7.5c5.502 0 10 4.497 10 10s-4.445 10-10 10c-5.503 0-10-4.497-10-10"/><path fill="#ff8500" d="M35.286 7.5c5.502 0 10 4.497 10 10s-4.445 10-10 10"/><path fill="#ff5050" d="M21.609 7.5c-5.45.053-9.895 4.497-9.895 10s4.445 10 10 10c2.593 0 4.921-1.005 6.72-2.593.37-.317.688-.687 1.005-1.058h-2.063c-.265-.317-.53-.688-.741-1.005h3.545a6.81 6.81 0 0 0 .582-1.058h-4.709a6.306 6.306 0 0 1-.423-1.058h5.502c.318-1.006.53-2.064.53-3.175 0-.74-.106-1.429-.212-2.116h-6.138c.053-.37.159-.688.265-1.059h5.502a6.306 6.306 0 0 0-.423-1.058H26c.159-.37.37-.688.582-1.058h3.545a5.031 5.031 0 0 0-.794-1.058h-1.957a9.02 9.02 0 0 1 1.005-1.006c-1.746-1.64-4.127-2.592-6.72-2.592 0-.106 0-.106-.052-.106z"/><path fill="#e52836" d="M11.714 17.5c0 5.503 4.445 10 10 10 2.593 0 4.921-1.005 6.72-2.593.37-.317.688-.687 1.005-1.058h-2.063c-.265-.317-.53-.688-.741-1.005h3.545a6.81 6.81 0 0 0 .582-1.058h-4.709a6.306 6.306 0 0 1-.423-1.058h5.502c.318-1.006.53-2.064.53-3.175 0-.74-.106-1.429-.212-2.116h-6.138c.053-.37.159-.688.265-1.059h5.502a6.306 6.306 0 0 0-.423-1.058H26c.159-.37.37-.688.582-1.058h3.545a5.031 5.031 0 0 0-.794-1.058h-1.957c.317-.37.635-.688 1.005-1.006-1.746-1.64-4.127-2.592-6.72-2.592h-.052"/><path fill="#cb2026" d="M21.816 27.5c2.592 0 4.92-1.005 6.72-2.593.37-.317.687-.687 1.004-1.058h-2.063c-.265-.317-.53-.688-.74-1.005h3.544a6.81 6.81 0 0 0 .582-1.058h-4.709a6.305 6.305 0 0 1-.423-1.058h5.503c.317-1.006.529-2.064.529-3.175 0-.74-.106-1.429-.212-2.116h-6.138c.053-.37.16-.688.265-1.059h5.503a6.308 6.308 0 0 0-.424-1.058h-4.656c.159-.37.37-.688.582-1.058h3.545a5.032 5.032 0 0 0-.793-1.058h-1.958c.317-.37.635-.688 1.005-1.006-1.746-1.64-4.127-2.592-6.72-2.592h-.052"/><path fill="#fff" d="M25.35 20.04l.158-.9c-.053 0-.159.053-.265.053-.37 0-.423-.212-.37-.317l.317-1.852h.582l.16-1.005h-.53l.106-.635H24.45s-.635 3.492-.635 3.915c0 .635.37.9.846.9.318 0 .582-.106.688-.16zm2.242-3.228c.582 0 .476.688.476.74h-1.164c0-.052.106-.74.688-.74zm-1.852 1.535c0 1.481 1.005 1.851 1.852 1.851.793 0 1.11-.158 1.11-.158l.213-1.006s-.582.265-1.112.265c-1.164 0-.952-.847-.952-.847h2.17s.158-.687.158-.952c0-.688-.37-1.534-1.534-1.534-1.111-.106-1.905 1.058-1.905 2.38zm8.62 1.693l.212-1.164s-.529.264-.9.264c-.74 0-1.057-.582-1.057-1.217 0-1.27.635-1.957 1.375-1.957.53 0 .953.317.953.317l.158-1.111s-.634-.265-1.216-.265c-1.217 0-2.434 1.059-2.434 3.07 0 1.322.635 2.221 1.904 2.221.424 0 1.006-.158 1.006-.158zm-14.669-1.8c0 .16-.105 1.006-.74 1.006-.318 0-.424-.265-.424-.423 0-.265.16-.635.953-.635.158.053.211.053.211.053zm-.211-2.38c-.741 0-1.27.211-1.27.211l-.159.9s.476-.212 1.164-.212c.37 0 .688.053.688.37 0 .212-.053.265-.053.265h-.476c-.9 0-1.905.37-1.905 1.587 0 .953.635 1.164 1.005 1.164.741 0 1.059-.476 1.112-.476l-.053.424h.952l.423-2.91c0-1.27-1.058-1.323-1.428-1.323zm2.46 4.286c.265 0 1.587.052 1.587-1.376 0-1.323-1.27-1.058-1.27-1.587 0-.265.212-.37.583-.37.158 0 .74.052.74.052l.159-.952s-.37-.106-1.005-.106c-.794 0-1.588.317-1.588 1.376 0 1.217 1.323 1.11 1.323 1.587 0 .317-.37.37-.635.37-.476 0-.952-.158-.952-.158l-.159.952c.053.106.318.212 1.217.212zm20.806-2.329c0 .583-.264 1.323-.846 1.323-.37 0-.582-.317-.582-.846 0-.847.37-1.376.846-1.376.37 0 .582.265.582.9zm.476-2.804l-.211 1.429s-.424-.53-1.006-.53c-.952 0-1.799 1.165-1.799 2.54 0 .847.424 1.746 1.323 1.746.635 0 1.005-.423 1.005-.423l-.052.37h1.058l.793-5.079zm-29.55 5.08l.635-3.81.106 3.81h.74l1.376-3.81-.582 3.81h1.111l.847-5.08h-1.746L15.1 18.135l-.053-3.122h-1.535l-.846 5.08zm16.536 0c.318-1.746.37-3.175 1.112-2.91.105-.688.264-.953.37-1.217h-.212c-.476 0-.846.635-.846.635l.106-.582h-1.006l-.688 4.126h1.164zm6.878-1.853c0 .16-.106 1.006-.74 1.006-.318 0-.424-.265-.424-.423 0-.265.159-.635.953-.635.158.053.158.053.211.053zm-.264-2.38c-.741 0-1.27.211-1.27.211l-.159.9s.476-.212 1.164-.212c.37 0 .688.053.688.37 0 .212-.053.265-.053.265h-.476c-.9 0-1.905.37-1.905 1.587 0 .953.635 1.164 1.005 1.164.741 0 1.059-.476 1.112-.476l-.053.424h.952l.423-2.91c.053-1.27-1.058-1.323-1.428-1.323zm2.379 4.233c.318-1.746.37-3.175 1.111-2.91.106-.688.265-.953.37-1.217h-.211c-.476 0-.847.635-.847.635l.106-.582h-1.005l-.688 4.126h1.164z"/><path fill="#dce5e5" d="M23.708 19.299c0 .635.37.9.847.9.37 0 .688-.106.794-.16l.158-.899c-.053 0-.158.053-.264.053-.37 0-.424-.212-.37-.317l.317-1.852h.582l.159-1.005h-.53l.106-.635m2.087 1.428c.582 0 .688.688.688.74h-1.376c0-.052.106-.74.688-.74zm-1.323 1.535c0 1.481.477 1.851 1.323 1.851.794 0 1.111-.158 1.111-.158l.212-1.006s-.582.265-1.111.265c-1.164 0-.953-.847-.953-.847h2.17s.158-.687.158-.952c0-.688-.37-1.534-1.534-1.534-1.111-.106-1.376 1.058-1.376 2.38zm8.091 1.693l.212-1.164s-.53.264-.9.264c-.74 0-1.058-.582-1.058-1.217 0-1.27.635-1.957 1.376-1.957.529 0 .952.317.952.317l.159-1.111s-.635-.265-1.217-.265c-1.217 0-1.905 1.059-1.905 3.07 0 1.322.106 2.221 1.376 2.221.423 0 1.005-.158 1.005-.158zm-14.142-1.8c0 .16-.634 1.006-1.27 1.006-.317 0-.423-.265-.423-.423 0-.265.16-.635.953-.635.158.053.74.053.74.053zm-2.169-1.216s.476-.212 1.164-.212c.37 0 .688.053.688.37 0 .212-.053.265-.053.265h-.476c-.9 0-1.905.37-1.905 1.587 0 .953.635 1.164 1.005 1.164.741 0 1.059-.476 1.112-.476l-.053.424h.952l.423-2.91c0-1.217-1.058-1.27-1.481-1.27m1.349 4.074s.318.106 1.217.106c.265 0 1.588.052 1.588-1.376 0-1.323-1.27-1.058-1.27-1.587 0-.265.211-.37.582-.37.159 0 .74.052.74.052l.16-.952s-.371-.106-1.006-.106c-.794 0-1.058.317-1.058 1.376 0 1.216.793 1.11.793 1.587 0 .317-.37.37-.634.37m21.07-1.323c0 .582-.477 1.323-1.059 1.323-.37 0-.582-.317-.582-.846 0-.847.37-1.376.847-1.376.37 0 .794.265.794.9zm.053-1.375s-.424-.53-1.006-.53c-.952 0-1.27 1.165-1.27 2.54 0 .847-.105 1.746.794 1.746.635 0 1.005-.423 1.005-.423l-.053.37h1.059l.793-5.079m-30.661 5.027l.635-3.81.106 3.81h.74l1.376-3.81-.582 3.81h1.111l.847-5.08h-1.323l-1.481 3.122-.053-3.122h-.582l-1.8 5.08zm15.426 0h1.11c.318-1.746.371-3.175 1.112-2.91.106-.688.264-.953.37-1.217h-.212c-.476 0-.846.635-.846.635l.106-.582m6.824 2.221c0 .16-.634 1.006-1.27 1.006-.317 0-.423-.265-.423-.423 0-.265.16-.635.953-.635.211.053.74.053.74.053zm-2.169-1.216s.476-.212 1.164-.212c.37 0 .688.053.688.37 0 .212-.053.265-.053.265h-.476c-.9 0-1.905.37-1.905 1.587 0 .953.635 1.164 1.005 1.164.741 0 1.059-.476 1.112-.476l-.053.424h.952l.423-2.91c0-1.217-1.058-1.27-1.481-1.27m1.321 4.127h1.11c.317-1.746.37-3.175 1.111-2.91.106-.688.265-.953.37-1.217h-.211c-.476 0-.847.635-.847.635l.106-.582"/></svg>