<svg xmlns="http://www.w3.org/2000/svg" width="130" height="80" viewBox="0 0 130 80"><path fill="#222831" d="M0 2c0-1 1-2 2-2h126c1 0 2 1 2 2v76c0 1-1 2-2 2H2c-1 0-2-1-2-2z" opacity=".05"/><path fill="#ffb600" d="M103.283 39.912c0 12.55-10.136 22.807-22.807 22.807-12.55 0-22.807-10.257-22.807-22.807 0-12.55 10.137-22.807 22.687-22.807 12.79 0 22.927 10.258 22.927 22.807z"/><path fill="#f7981d" d="M80.476 17.105c12.55 0 22.807 10.258 22.807 22.807 0 12.55-10.136 22.808-22.807 22.808-12.55 0-22.807-10.258-22.807-22.808"/><path fill="#ff8500" d="M80.476 17.105c12.55 0 22.807 10.258 22.807 22.807 0 12.55-10.136 22.808-22.807 22.808"/><path fill="#ff5050" d="M49.283 17.105c-12.43.121-22.566 10.258-22.566 22.807 0 12.55 10.136 22.808 22.807 22.808 5.913 0 11.222-2.293 15.325-5.913.845-.724 1.569-1.57 2.293-2.414h-4.706a27.829 27.829 0 0 1-1.69-2.293h8.085c.483-.724.966-1.568 1.328-2.413h-10.74c-.362-.724-.724-1.569-.965-2.413h12.55c.724-2.293 1.206-4.707 1.206-7.24 0-1.69-.241-3.259-.482-4.828H57.73c.12-.844.362-1.568.603-2.413h12.55c-.241-.845-.603-1.69-.965-2.414h-10.62c.362-.844.845-1.568 1.328-2.413h8.085c-.483-.845-1.086-1.69-1.81-2.413h-4.465a20.57 20.57 0 0 1 2.293-2.293c-3.983-3.741-9.413-5.913-15.326-5.913 0-.242 0-.242-.12-.242z"/><path fill="#e52836" d="M26.717 39.912c0 12.55 10.136 22.808 22.807 22.808 5.913 0 11.222-2.293 15.325-5.913.845-.724 1.569-1.57 2.293-2.414h-4.706a27.834 27.834 0 0 1-1.69-2.293h8.085a15.46 15.46 0 0 0 1.328-2.413h-10.74c-.362-.724-.724-1.569-.965-2.414h12.55c.724-2.292 1.206-4.706 1.206-7.24 0-1.69-.241-3.258-.482-4.827H57.73c.12-.844.362-1.568.603-2.413h12.55c-.241-.845-.603-1.69-.965-2.414h-10.62c.362-.844.845-1.568 1.328-2.413h8.085c-.483-.845-1.086-1.69-1.81-2.413h-4.465a20.566 20.566 0 0 1 2.293-2.293c-3.983-3.741-9.413-5.913-15.326-5.913h-.12"/><path fill="#cb2026" d="M49.755 62.72c5.913 0 11.222-2.293 15.325-5.913.845-.724 1.569-1.57 2.293-2.414h-4.706a27.84 27.84 0 0 1-1.69-2.293h8.085a15.46 15.46 0 0 0 1.328-2.413H59.65c-.362-.724-.724-1.569-.966-2.414h12.55c.724-2.292 1.207-4.706 1.207-7.24 0-1.69-.241-3.258-.483-4.827H57.96c.121-.844.362-1.568.604-2.413h12.55c-.242-.845-.604-1.69-.966-2.414H59.53c.362-.844.845-1.568 1.327-2.413h8.086c-.483-.845-1.087-1.69-1.81-2.413h-4.465a20.566 20.566 0 0 1 2.292-2.293c-3.982-3.741-9.412-5.913-15.325-5.913h-.12"/><path fill="#fff" d="M57.814 45.705l.362-2.052c-.12 0-.362.12-.604.12-.844 0-.965-.482-.844-.723l.724-4.224h1.327l.362-2.292h-1.207l.242-1.448h-2.414s-1.448 7.964-1.448 8.93c0 1.447.845 2.05 1.931 2.05.724 0 1.327-.24 1.569-.361zm5.115-7.361c1.327 0 1.086 1.568 1.086 1.69H61.36c0-.122.241-1.69 1.569-1.69zm-4.224 3.5c0 3.378 2.293 4.223 4.224 4.223 1.81 0 2.534-.362 2.534-.362l.482-2.293s-1.327.603-2.534.603c-2.655 0-2.172-1.93-2.172-1.93h4.948s.362-1.57.362-2.173c0-1.568-.845-3.499-3.5-3.499-2.534-.241-4.344 2.413-4.344 5.43zm19.662 3.861l.482-2.655s-1.207.603-2.051.603c-1.69 0-2.414-1.327-2.414-2.775 0-2.896 1.448-4.465 3.138-4.465 1.207 0 2.172.724 2.172.724l.362-2.534S78.608 34 77.28 34c-2.775 0-5.55 2.413-5.55 6.999 0 3.016 1.448 5.068 4.344 5.068.965 0 2.293-.362 2.293-.362zM44.91 41.602c0 .362-.241 2.293-1.69 2.293-.723 0-.965-.604-.965-.966 0-.603.362-1.448 2.172-1.448.362.12.483.12.483.12zm-.483-5.43c-1.689 0-2.896.482-2.896.482l-.362 2.052s1.086-.483 2.655-.483c.845 0 1.569.12 1.569.845 0 .482-.12.603-.12.603h-1.087c-2.051 0-4.344.845-4.344 3.62 0 2.172 1.448 2.655 2.293 2.655 1.69 0 2.413-1.086 2.534-1.086l-.12.965h2.171l.966-6.637c0-2.896-2.414-3.016-3.259-3.016zm5.612 9.774c.603 0 3.62.12 3.62-3.137 0-3.017-2.896-2.414-2.896-3.62 0-.604.482-.845 1.327-.845.362 0 1.69.12 1.69.12l.361-2.172s-.844-.241-2.292-.241c-1.81 0-3.62.724-3.62 3.138 0 2.775 3.016 2.534 3.016 3.62 0 .724-.844.844-1.448.844-1.086 0-2.172-.362-2.172-.362l-.362 2.172c.12.242.724.483 2.776.483zm47.452-5.309c0 1.327-.603 3.016-1.93 3.016-.845 0-1.328-.724-1.328-1.93 0-1.931.845-3.138 1.93-3.138.845 0 1.328.603 1.328 2.052zm1.086-6.396l-.483 3.258s-.965-1.207-2.292-1.207c-2.172 0-4.103 2.655-4.103 5.793 0 1.93.965 3.982 3.017 3.982 1.448 0 2.292-.966 2.292-.966l-.12.845H99.3l1.81-11.584zM31.182 45.825l1.448-8.688.241 8.688h1.69l3.137-8.688-1.327 8.688h2.534l1.93-11.584h-3.982l-2.413 7.12-.12-7.12h-3.5l-1.931 11.584zm37.714 0c.725-3.982.845-7.24 2.535-6.636.241-1.57.603-2.173.844-2.776h-.482c-1.086 0-1.931 1.448-1.931 1.448l.241-1.327H67.81l-1.568 9.412h2.654zm15.687-4.223c0 .362-.242 2.293-1.69 2.293-.724 0-.965-.604-.965-.966 0-.603.362-1.448 2.172-1.448.362.12.362.12.483.12zm-.604-5.43c-1.69 0-2.896.482-2.896.482l-.362 2.052s1.086-.483 2.655-.483c.845 0 1.569.12 1.569.845 0 .482-.121.603-.121.603h-1.086c-2.051 0-4.344.845-4.344 3.62 0 2.172 1.448 2.655 2.293 2.655 1.689 0 2.413-1.086 2.534-1.086l-.121.965h2.172l.965-6.637c.121-2.896-2.413-3.016-3.258-3.016zm5.427 9.653c.724-3.982.845-7.24 2.534-6.636.241-1.57.603-2.173.845-2.776h-.483c-1.086 0-1.93 1.448-1.93 1.448l.24-1.327H88.32l-1.569 9.412h2.655z"/><path fill="#dce5e5" d="M54.072 44.015c0 1.448.844 2.052 1.93 2.052.845 0 1.57-.242 1.81-.362l.363-2.052c-.121 0-.362.121-.604.121-.845 0-.965-.483-.845-.724l.725-4.224h1.327l.362-2.292h-1.207l.242-1.448m4.759 3.258c1.327 0 1.569 1.568 1.569 1.69h-3.138c0-.122.242-1.69 1.569-1.69zm-3.017 3.5c0 3.378 1.086 4.223 3.017 4.223 1.81 0 2.534-.362 2.534-.362l.483-2.293s-1.328.603-2.534.603c-2.655 0-2.172-1.93-2.172-1.93h4.947s.362-1.57.362-2.173c0-1.568-.845-3.499-3.5-3.499-2.533-.241-3.137 2.413-3.137 5.43zm18.453 3.861l.483-2.655s-1.207.603-2.052.603c-1.69 0-2.413-1.327-2.413-2.775 0-2.896 1.448-4.465 3.137-4.465 1.207 0 2.172.724 2.172.724l.362-2.534S78.611 34 77.284 34c-2.776 0-4.344 2.413-4.344 6.999 0 3.016.241 5.068 3.137 5.068.966 0 2.293-.362 2.293-.362zm-32.253-4.103zm-2.896 2.293c-.724 0-.966-.604-.966-.966 0-.603.362-1.448 2.172-1.448.362.12 1.69.12 1.69.12 0 .363-1.448 2.294-2.896 2.294zm-2.052-5.069s1.086-.482 2.655-.482c.845 0 1.569.12 1.569.845 0 .482-.12.603-.12.603h-1.087c-2.051 0-4.344.845-4.344 3.62 0 2.172 1.448 2.655 2.293 2.655 1.69 0 2.413-1.086 2.534-1.086l-.12.965h2.171l.966-6.637c0-2.775-2.414-2.896-3.38-2.896m3.079 9.292s.724.241 2.775.241c.604 0 3.62.12 3.62-3.137 0-3.017-2.896-2.414-2.896-3.62 0-.604.483-.845 1.328-.845.362 0 1.69.12 1.69.12l.361-2.172s-.845-.241-2.293-.241c-1.81 0-2.413.724-2.413 3.138 0 2.775 1.81 2.534 1.81 3.62 0 .724-.845.844-1.448.844m48.055-3.016c0 1.327-1.086 3.016-2.414 3.016-.844 0-1.327-.724-1.327-1.93 0-1.931.845-3.138 1.93-3.138.845 0 1.81.603 1.81 2.052zm.12-3.138s-.965-1.207-2.292-1.207c-2.173 0-2.897 2.655-2.897 5.793 0 1.93-.24 3.982 1.81 3.982 1.449 0 2.293-.966 2.293-.966l-.12.845H99.3l1.81-11.584M31.182 45.825l1.448-8.688.241 8.688h1.69l3.137-8.688-1.327 8.688h2.534l1.93-11.584H37.82l-3.38 7.12-.12-7.12h-1.327L28.89 45.825zm35.181 0h2.534c.724-3.982.845-7.24 2.534-6.636.241-1.57.603-2.173.845-2.776h-.483c-1.086 0-1.93 1.448-1.93 1.448l.24-1.327m15.566 5.068zm-2.896 2.293c-.724 0-.966-.604-.966-.966 0-.603.362-1.448 2.172-1.448.483.12 1.69.12 1.69.12 0 .363-1.448 2.294-2.896 2.294zm-2.052-5.069s1.086-.482 2.655-.482c.845 0 1.569.12 1.569.845 0 .482-.121.603-.121.603h-1.086c-2.051 0-4.344.845-4.344 3.62 0 2.172 1.448 2.655 2.293 2.655 1.689 0 2.413-1.086 2.534-1.086l-.121.965h2.172l.966-6.637c0-2.775-2.414-2.896-3.38-2.896m3.014 9.412h2.534c.724-3.982.845-7.24 2.534-6.636.241-1.57.603-2.173.845-2.776h-.483c-1.086 0-1.93 1.448-1.93 1.448l.24-1.327"/></svg>