<svg xmlns="http://www.w3.org/2000/svg" width="130" height="80" viewBox="0 0 130 80"><defs><linearGradient id="a" x1="84.28" x2="112" y1="32.31" y2="32.31" gradientUnits="userSpaceOnUse"><stop offset="0" stop-color="#00b4e6"/><stop offset="1" stop-color="#088ccb"/></linearGradient></defs><path fill="#222831" d="M0 2c0-1 1-2 2-2h126c1 0 2 1 2 2v76c0 1-1 2-2 2H2c-1 0-2-1-2-2z" opacity=".05"/><path fill="url(#a)" d="M102.324 26.5H84.327c.968 5.999 6.773 11.611 13.16 11.611h14.32c.193-.58.193-1.355.193-1.935 0-5.419-4.257-9.676-9.676-9.676z"/><path fill="#4db45f" d="M85.875 38.986V53.5h8.708v-7.74h7.741c4.258 0 7.934-2.903 9.095-6.774zM54.848 26.5v27h7.74s1.936 0 2.903-1.929l6.773-13.5h.968V53.5h8.708v-27H74.2s-1.936.193-2.903 1.929l-6.773 13.5h-.968V26.5zM18 53.5v-27h8.708s2.516 0 3.87 3.857C34.063 40.58 34.45 41.93 34.45 41.93s.774-2.508 3.87-11.572c1.355-3.857 3.87-3.857 3.87-3.857h8.709v27H42.19V39.036h-.968L36.384 53.5h-3.87l-4.838-14.464h-.968V53.5z"/></svg>