<svg xmlns="http://www.w3.org/2000/svg" width="28" height="24" viewBox="0 0 28 24"><path fill="#fff" d="M16.625 10.293c-2.422 0-4.385-1.923-4.385-4.294 0-2.372 1.964-4.294 4.385-4.294s4.385 1.922 4.385 4.294-1.963 4.294-4.385 4.294zM5.25 10.284c-1.933 0-3.5-1.535-3.5-3.428s1.567-3.428 3.5-3.428 3.5 1.535 3.5 3.428-1.567 3.428-3.5 3.428zm21 0L21 13.712c0-1.04-.483-1.96-1.23-2.59 1.779-1.05 2.98-2.941 2.98-5.123C22.75 2.686 20.008 0 16.625 0S10.5 2.686 10.5 5.999c0 1.68.71 3.196 1.847 4.285h-3.21c.839-.911 1.363-2.105 1.363-3.428 0-2.84-2.35-5.142-5.25-5.142S0 4.016 0 6.856c0 1.55.715 2.922 1.822 3.865C.742 11.305 0 12.418 0 13.711v6.857c0 1.893 1.567 3.428 3.5 3.428h14c1.933 0 3.5-1.535 3.5-3.428l5.25 3.428c.967 0 1.75-.767 1.75-1.714V11.998c0-.947-.783-1.714-1.75-1.714z"/></svg>