<svg xmlns="http://www.w3.org/2000/svg" width="57" height="35" viewBox="0 0 57 35"><path fill="#fff" d="M0 2c0-1 1-2 2-2h53c1 0 2 1 2 2v31c0 1-1 2-2 2H2c-1 0-2-1-2-2z"/><path fill="#139ad6" d="M41.029 17.068c-.143.858-.786.858-1.43.858h-.428l.286-1.644c0-.072.071-.143.214-.143h.143c.429 0 .858 0 1.072.286.143.071.143.286.143.643m-.286-2.358h-2.43c-.143 0-.286.142-.357.285l-1 6.29c0 .143.07.214.214.214h1.286c.143 0 .215-.071.215-.214l.285-1.787c0-.143.143-.286.358-.286h.786c1.644 0 2.573-.786 2.787-2.358.143-.644 0-1.215-.286-1.573-.429-.357-1.072-.571-1.858-.571"/><path fill="#263b80" d="M23.585 17.068c-.143.858-.786.858-1.43.858h-.357l.286-1.644c0-.072.072-.143.215-.143h.143c.428 0 .857 0 1.072.286.071.071.143.286.071.643M23.3 14.71h-2.43c-.143 0-.286.143-.357.285l-1 6.29c0 .143.07.214.214.214h1.143c.143 0 .286-.143.358-.286l.286-1.715c0-.143.142-.286.357-.286h.786c1.644 0 2.573-.786 2.787-2.358.143-.644 0-1.215-.286-1.573-.428-.357-1-.571-1.858-.571m5.717 4.574c-.143.643-.644 1.143-1.358 1.143-.358 0-.643-.143-.786-.286-.143-.214-.215-.5-.215-.857a1.309 1.309 0 0 1 1.287-1.144c.357 0 .571.143.786.286.214.214.286.572.286.858m1.643-2.287h-1.143c-.072 0-.214.071-.214.142l-.072.358-.071-.143c-.286-.357-.787-.5-1.358-.5-1.287 0-2.43 1-2.645 2.358a2.13 2.13 0 0 0 .43 1.787c.357.429.857.571 1.5.571 1.072 0 1.644-.643 1.644-.643l-.072.358c0 .143.072.214.215.214h1.072c.143 0 .286-.143.357-.286l.643-4.002c-.071-.071-.214-.214-.286-.214"/><path fill="#139ad6" d="M46.355 19.284c-.143.643-.644 1.143-1.358 1.143-.358 0-.643-.143-.786-.286-.143-.214-.215-.5-.215-.857a1.309 1.309 0 0 1 1.287-1.144c.357 0 .571.143.786.286.286.214.357.572.286.858m1.643-2.287h-1.143c-.071 0-.214.071-.214.142l-.072.358-.071-.143c-.286-.357-.787-.5-1.358-.5-1.287 0-2.43 1-2.645 2.358a2.13 2.13 0 0 0 .43 1.787c.357.429.857.571 1.5.571 1.072 0 1.644-.643 1.644-.643l-.072.358c0 .143.072.214.215.214h1.072c.143 0 .286-.143.357-.286l.643-4.002c-.071-.071-.143-.214-.286-.214"/><path fill="#263b80" d="M36.837 16.997h-1.214c-.143 0-.215.071-.286.142l-1.573 2.43-.714-2.287c-.072-.143-.143-.214-.358-.214H31.55c-.143 0-.215.143-.215.286l1.287 3.788-1.215 1.715c-.072.143 0 .357.143.357h1.143c.143 0 .215-.071.286-.143l3.93-5.646c.215-.214.072-.428-.07-.428"/><path fill="#139ad6" d="M49.356 14.924l-1 6.432c0 .143.071.214.214.214h1c.144 0 .287-.142.358-.285l1-6.29c0-.142-.07-.214-.214-.214h-1.143c-.072-.071-.143 0-.215.143"/><path fill="#263b80" d="M14.29 12.637c-.5-.568-1.43-.851-2.716-.851H8.001c-.214 0-.429.212-.5.425l-1.43 9.29c0 .213.143.355.286.355h2.216l.572-3.475v.142c.071-.213.285-.425.5-.425h1.072c2.072 0 3.645-.851 4.145-3.192v-.213c-.072 0-.072 0 0 0 .071-.922-.072-1.489-.572-2.056"/><path fill="#139ad6" d="M14.79 14.638v.215c-.5 2.43-2.072 3.216-4.145 3.216H9.573c-.214 0-.428.214-.5.428l-.715 4.36c0 .143.072.286.286.286h1.858c.215 0 .43-.143.43-.358v-.071l.357-2.216v-.142c0-.215.214-.358.428-.358h.286c1.787 0 3.216-.715 3.574-2.859.143-.857.071-1.643-.358-2.144a.732.732 0 0 0-.429-.357"/><path fill="#232c65" d="M14.29 14.474c-.071 0-.143-.071-.214-.071-.072 0-.143 0-.215-.071-.286-.072-.571-.072-.929-.072h-2.787c-.071 0-.143 0-.214.072a.393.393 0 0 0-.215.357l-.571 3.716v.143c.071-.214.285-.429.5-.429h1.072c2.072 0 3.645-.857 4.145-3.216 0-.071 0-.143.071-.214-.143-.072-.214-.143-.357-.143-.214-.072-.214-.072-.286-.072"/></svg>