<svg xmlns="http://www.w3.org/2000/svg" width="40" height="40" viewBox="0 0 40 40"><defs><mask id="b" width="2" height="2" x="-1" y="-1"><path fill="#fff" d="M11 11h18v18H11z"/><path d="M11 20a9 9 0 1 1 18 0 9 9 0 0 1-18 0z"/></mask><filter id="a" width="48" height="48" x="-4" y="-4" filterUnits="userSpaceOnUse"><feOffset in="SourceGraphic" result="FeOffset1555Out"/><feGaussianBlur in="FeOffset1555Out" result="FeGaussianBlur1556Out" stdDeviation="2 2"/></filter><mask id="d" width="2" height="2" x="-1" y="-1"><path fill="#fff" d="M2 2h36v36H2z"/><path d="M2 20c0-9.941 8.059-18 18-18s18 8.059 18 18-8.059 18-18 18S2 29.941 2 20z"/></mask><filter id="c" width="58" height="58" x="-9" y="-9" filterUnits="userSpaceOnUse"><feOffset in="SourceGraphic" result="FeOffset1571Out"/><feGaussianBlur in="FeOffset1571Out" result="FeGaussianBlur1572Out" stdDeviation="0.4 0.4"/></filter></defs><path fill="#7ee852" d="M8 20c0-6.627 5.373-12 12-12s12 5.373 12 12-5.373 12-12 12S8 26.627 8 20z" opacity=".5"/><g filter="url(#a)"><path fill="none" d="M11 20a9 9 0 1 1 18 0 9 9 0 0 1-18 0z" mask="url(&quot;#b&quot;)"/><path fill="#7ee852" fill-opacity=".75" d="M11 20a9 9 0 1 1 18 0 9 9 0 0 1-18 0z"/></g><path fill="#7ee852" d="M11 20a9 9 0 1 1 18 0 9 9 0 0 1-18 0z"/><g opacity=".2"><g filter="url(#c)"><path fill="none" d="M2 20c0-9.941 8.059-18 18-18s18 8.059 18 18-8.059 18-18 18S2 29.941 2 20z" mask="url(&quot;#d&quot;)"/><path fill="#fff" fill-opacity=".75" d="M2 20c0-9.941 8.059-18 18-18s18 8.059 18 18-8.059 18-18 18S2 29.941 2 20z"/></g><path fill="none" stroke="#7ee852" stroke-miterlimit="50" stroke-width=".5" d="M2 20c0-9.941 8.059-18 18-18s18 8.059 18 18-8.059 18-18 18S2 29.941 2 20z"/></g></svg>