<svg xmlns="http://www.w3.org/2000/svg" width="130" height="80" viewBox="0 0 130 80"><path fill="#222831" d="M0 2c0-1 1-2 2-2h126c1 0 2 1 2 2v76c0 1-1 2-2 2H2c-1 0-2-1-2-2z" opacity=".05"/><path fill="#f7981d" d="M17.167 25.803v.461c9.825 2.363 16.646 8.337 19.346 15.2L33.674 28.24c-.474-1.807-1.91-2.374-3.61-2.437z"/><path fill="#293688" d="M51.597 54.313l4.836-28.51h7.83l-4.836 28.51zm35.787-27.774c-1.552-.578-3.983-1.197-7.019-1.197-7.738 0-13.188 3.868-13.235 9.41-.043 4.096 3.891 6.38 6.863 7.746 3.047 1.394 4.072 2.29 4.057 3.536-.019 1.91-2.435 2.785-4.686 2.785-3.133-.001-4.799-.433-7.37-1.497l-1.01-.454-1.099 6.383c1.83.796 5.212 1.486 8.724 1.521 8.23-.002 13.574-3.822 13.634-9.741.03-3.243-2.057-5.712-6.574-7.747-2.738-1.317-4.414-2.197-4.396-3.534 0-1.185 1.42-2.452 4.485-2.452 2.56-.04 4.415.514 5.861 1.092l.7.329 1.065-6.18zM97.31 44.24c.647-1.641 3.12-7.968 3.12-7.968-.046.075.643-1.65 1.038-2.72l.53 2.457 1.812 8.232h-6.5zm3.56-18.437c-1.877 0-3.232.572-4.057 2.428L85.21 54.314h8.29l1.611-4.369h9.904l.92 4.37h7.37l-6.447-28.512h-5.989zM37.202 45.346l-.69-3.908c-1.428-4.556-5.863-9.486-10.833-11.956l6.918 24.831h8.291l12.435-28.51h-8.29z"/></svg>