<svg xmlns="http://www.w3.org/2000/svg" width="57" height="35" viewBox="0 0 57 35"><path fill="#fff" d="M0 2c0-1 1-2 2-2h53c1 0 2 1 2 2v31c0 1-1 2-2 2H2c-1 0-2-1-2-2z"/><path fill="#f7981d" d="M7.5 11.273v.201c4.292 1.032 7.272 3.642 8.452 6.64l-1.24-5.777c-.208-.79-.835-1.037-1.578-1.064H7.5z"/><path fill="#293688" d="M22.541 23.728l2.113-12.456h3.42l-2.112 12.456zm15.635-12.134a8.906 8.906 0 0 0-3.066-.523c-3.381 0-5.762 1.69-5.783 4.111-.018 1.79 1.7 2.788 2.998 3.384 1.332.61 1.78 1 1.773 1.545-.008.835-1.064 1.216-2.047 1.216-1.37 0-2.097-.188-3.22-.653l-.441-.199-.48 2.789c.799.348 2.277.65 3.81.664 3.596 0 5.931-1.67 5.957-4.255.013-1.417-.898-2.495-2.872-3.385-1.196-.575-1.928-.96-1.92-1.544 0-.517.62-1.07 1.959-1.07a6.352 6.352 0 0 1 2.56.476l.307.144.465-2.7zm4.336 7.733c.283-.717 1.363-3.48 1.363-3.48-.02.032.281-.722.454-1.19l.231 1.074.792 3.597h-2.84zm1.555-8.055zm-1.772 1.061l-5.069 11.395h3.621l.705-1.908h4.326l.402 1.908h3.22l-2.817-12.455h-2.616c-.82 0-1.412.25-1.772 1.06zM16.253 19.81l-.302-1.707c-.624-1.99-2.561-4.144-4.732-5.223l3.022 10.848h3.622l5.433-12.456h-3.622z"/></svg>