<svg xmlns="http://www.w3.org/2000/svg" width="22" height="12" viewBox="0 0 22 12"><path fill="#7ee852" d="M18.934 7.63c.73.687 1.5 1.333 2.155 2.089.289.336.563.683.772 1.072.297.555.028 1.165-.488 1.198l-3.205-.002c-.826.066-1.486-.254-2.04-.8-.444-.435-.855-.898-1.282-1.349a3.002 3.002 0 0 0-.576-.494c-.438-.274-.818-.19-1.068.25-.254.447-.312.943-.337 1.441-.034.728-.263.919-1.02.952-1.62.074-3.158-.162-4.587-.95-1.26-.695-2.236-1.675-3.086-2.785C2.517 6.091 1.25 3.716.112 1.275-.146.725.041.429.671.419A90.243 90.243 0 0 1 3.81.417c.425.006.706.241.87.628.566 1.34 1.258 2.616 2.127 3.799.231.314.467.63.803.85.372.246.655.165.83-.234.11-.253.16-.526.184-.797.083-.932.094-1.863-.051-2.792-.09-.58-.429-.955-1.029-1.065C7.238.75 7.284.64 7.432.47c.257-.29.5-.471.983-.471h3.622c.57.108.697.355.775.908l.003 3.878c-.006.214.11.85.51.992.321.1.532-.147.724-.342.868-.887 1.487-1.936 2.04-3.022.245-.477.456-.973.66-1.468.152-.368.39-.549.82-.54l3.485.002c.104 0 .208.002.308.018.588.097.749.34.567.893-.285.868-.842 1.59-1.386 2.317-.58.775-1.203 1.524-1.78 2.304-.529.712-.487 1.071.171 1.69z"/></svg>