<svg xmlns="http://www.w3.org/2000/svg" width="28" height="135" viewBox="0 0 28 135"><g clip-path="url(#clip-e21e9310-4fe6-46ab-934c-a98122be7614)"><path fill="#7ee852" d="M8.87 121.686a120.06 120.06 0 0 0 1.24-3.537c.54-.543 1.086-1.078 1.689-1.536a20.24 20.24 0 0 1 2.774-1.8c.767-.405.876-.657 1.553-.08.616.525.497.635.299 1.353-.921 3.333-4.204 5.566-7.555 5.6zm-.111-9.563c-.217.689-.434 1.38-.66 2.066-.003-.004-.004-.01-.008-.013-1.042-1.107-2.36-1.819-3.34-3.022-1.01-1.237-1.91-2.824-2.142-4.426-.168-1.167-.137-3.076 2.07-1.905.74.392 1.473 1.55 1.943 2.237 1.033 1.51 1.642 3.138 2.07 4.906.013.061.042.106.067.157zm4.206-3.661c.328-1.286.636-2.578.931-3.873.492-.56 1.043-1.072 1.762-1.49 1.176-.683 3.173-1.34 4.361-.305 2.13 1.856-2.015 4.341-3.437 4.92-1.174.477-2.385.693-3.617.748zm-.757-9.304c-1.075-1.185-2.183-2.299-3.056-3.677-.727-1.146-2.475-3.801-1.694-5.264 1.224-2.292 3.717 3.088 4.085 4.042.448 1.165.743 2.368.936 3.59-.091.436-.177.873-.271 1.309zm3.734-4.974c.212-1.27.413-2.54.6-3.808.587-.58 1.231-1.106 2.004-1.535.866-.479 1.81-.86 2.79-1.022.409-.069.818-.114 1.231-.066.883.104.847.125.94 1.066.192 1.952-2.915 3.915-4.521 4.695-1.076.523-2.044.655-3.044.67zm-1.185-9.352c-1.236-.521-2.337-1.227-3.208-2.307-.636-.787-2.64-4.409-.682-4.52 1.465-.085 2.738 1.736 3.383 2.808.328.542.58 1.114.806 1.696-.098.775-.192 1.55-.299 2.323zm3.373-2.998c.1-.189-.023-.407-.21-.461 1.079-1.382 1.793-2.986 3.188-4.196a13.313 13.313 0 0 1 2.266-1.586c.323-.179 1.386-.839 1.715-.708.383.152.33 1.184.279 1.52-.29 1.88-1.971 3.572-3.543 4.476-1.214.697-2.417.861-3.695.955zM16.083 72zm-3.4-1.6c-1.176-.89-2.876-2.515-2.175-4.118 1.075-2.463 3.784.103 4.755 1.363.367.477.688.979.99 1.491-.048.954-.105 1.908-.17 2.864-1.141-.51-2.334-.795-3.4-1.6zm5.867.131zm.069-1.17c.914-1.123 1.425-2.505 2.445-3.59.432-.457 3.951-3.657 4.06-1.605.032.571-1.072 1.78-1.396 2.238a20.712 20.712 0 0 1-1.117 1.474c-1.111 1.304-2.47 2.264-4.06 2.653.021-.39.048-.779.068-1.17zm-2.154-9.43c-1.51-.443-3.014-.69-4.4-1.562-1.11-.697-5.211-4.194-2.216-5.27 1.572-.563 3.708 1.65 4.51 2.69.833 1.082 1.486 2.304 2.101 3.528l.005.614zm2.391-2.366a175.65 175.65 0 0 0-.05-2.865c.592-1.14 1.094-2.33 1.887-3.365.564-.738 1.233-1.439 2.033-1.924 1.073-.652 3.15-1.014 2.867.95-.22 1.521-2.161 3.62-3.185 4.715-1.054 1.128-2.212 1.93-3.552 2.49zm-2.738-9.116c-3.036-1.499-10.848-5.484-7.073-7.344 1.49-.735 3.518.534 4.587 1.448a8.727 8.727 0 0 1 2.046 2.569c-.364.1-.429.756-.03.868.105.03.21.037.316.06.058.8.106 1.6.154 2.4zm2.171-3.83c-.067-.813-.146-1.626-.224-2.438.564-1.324 1.107-2.61 1.983-3.823.488-.675 1.037-1.413 1.686-1.931 1.18-.94 2.105.008 1.715 1.28-.899 2.932-2.455 5.807-5.16 6.913zm-3.238-8.173c-1.685-.49-3.283-1.053-4.747-2.06-1.027-.705-4.796-4.103-1.85-4.994 1.52-.46 3.496 1.595 4.314 2.566 1.055 1.252 1.715 2.694 2.25 4.224.01.089.023.177.033.264zm1.903-3.375zm-.53-3.246c.358-1.107.709-2.204 1.376-3.2.308-.457 1.255-1.811 1.737-1.94l1.933.287c.038.483-.02.95-.178 1.402-.62 2.706-2.379 4.837-4.338 6.697a148.486 148.486 0 0 0-.53-3.246zm-3.082-5.522c-2.275-.624-11.173-3.46-7.894-5.611 1.28-.84 3.928.505 5.03 1.134.909.52 1.705 1.161 2.428 1.886.15.863.294 1.727.436 2.591zm.877-4.82c-.183-.733-.353-1.47-.547-2.201.457-1.104.844-2.252 1.364-3.321.415-.852.806-1.891 1.543-2.517 1.367-1.163 2.452-1.057 2.299.985-.215 2.88-2.537 5.206-4.66 7.055zm-3.276-6.622c-.789-1.119-1.698-2.16-2.401-3.346-.886-1.491-2.634-4.752-1.552-6.48-.035-.631.306-.849 1.022-.652.48.424.911.891 1.294 1.404.67.89 1.19 1.909 1.543 2.964.67 2.007.697 4.102.094 6.11zM3.506 133.844c1.807-3.435 3.407-7.038 4.833-10.752 4.92.587 10.288-3.054 10.403-8.331.07-3.26-3.125-2.88-5.178-1.721-.705.397-1.488.87-2.276 1.407.442-1.462.868-2.93 1.263-4.413 2.486.215 5.017-.4 7.133-1.76 2.037-1.31 4.024-3.973 2.404-6.37-1.731-2.561-4.907-2.134-7.487-.535.376-1.805.724-3.614 1.043-5.425 1.814.202 3.877-.496 5.314-1.325 1.946-1.122 5.773-3.966 5.034-6.648-.697-2.53-4.084-2.433-6.052-1.837a12.11 12.11 0 0 0-3.005 1.405c.186-1.405.363-2.808.522-4.203 4.511 1.414 10.795-3.883 9.987-8.534-.547-3.146-4.226-1.353-5.81-.285-1.145.773-2.535 1.933-3.617 3.262.145-1.63.279-3.252.39-4.855.024-.367.043-.735.065-1.102.016-.017.033-.032.046-.05 1.871-.032 3.608-1.018 5-2.398 1.363-1.352 4.185-4.268 3.437-6.458-1.25-3.662-5.899.069-8.204 3.305.083-2.397.124-4.8.118-7.204 2.32-.411 4.246-1.966 5.77-3.792 1.386-1.658 4.078-4.766 2.51-7.034-1.419-2.052-4.41-1.14-6.019.114-.916.712-1.751 1.68-2.452 2.757a180.968 180.968 0 0 0-.287-5c1.605-.346 3.071-1.329 4.164-2.626 1.48-1.756 3.806-5.587 2.934-7.979-.826-2.268-3.387-1.678-4.846-.478-1.125.925-2.152 2.27-2.935 3.736-.173-1.47-.358-2.94-.57-4.404 2.115-1.152 3.766-2.996 4.91-5.114.908-1.68 2.027-4.365.617-6.108-2.3-2.844-5.228.44-6.8 3.716a146.54 146.54 0 0 0-.786-3.788.525.525 0 0 0-.054-.444c-.025-.041-.053-.078-.077-.118-.121-.533-.264-1.059-.39-1.59 2.203-.995 3.947-2.952 5.078-5.056.87-1.622 2.175-4.587.65-6.19-1.274-1.337-3.324-1.036-4.61.089-1.163 1.018-2.159 2.754-2.863 4.562-.172-.589-.325-1.183-.505-1.77.786-2.55.764-5.265-.315-7.773-.74-1.724-2.616-4.946-4.886-4.491-2.517.505-2.07 4.509-1.622 6.28.752 2.96 2.92 6.418 5.314 8.301.247.192.594.122.81-.07.142.718.271 1.436.408 2.155a11.896 11.896 0 0 0-.25 1.603c-.033.466.33.712.679.667.024.13.05.26.073.39a11.59 11.59 0 0 0-3.74-2.246c-1.696-.613-4.138-.915-5.299.812-3.149 4.689 7.408 7.444 10.068 7.88.027.004.048-.005.073-.003.295 1.853.566 3.708.82 5.563a11.425 11.425 0 0 0-2.108-2.4c-1.499-1.283-3.97-2.407-5.701-.87-1.804 1.603-.752 4.22.593 5.73 1.897 2.13 4.853 3.611 7.64 4.086.14.025.263 0 .378-.043.158 1.445.294 2.89.42 4.337a10.13 10.13 0 0 0-2.004-1.975c-1.678-1.225-4.393-1.999-6.23-.632-5.33 3.968 5.325 9.354 8.792 10.457.101 1.952.174 3.908.217 5.865-.707-1.324-1.586-2.544-2.77-3.47-1.557-1.217-4.38-2.213-5.989-.536-1.801 1.879-.133 4.652 1.33 6.126 1.808 1.823 4.781 3.544 7.467 3.221a185.04 185.04 0 0 1-.104 4.866c-.537-.749-1.155-1.425-1.88-1.955-1.59-1.164-4.058-1.425-5.418.26-2.981 3.695 3.099 9.012 6.88 9.171a191.17 191.17 0 0 1-.528 5.534 10.751 10.751 0 0 0-.91-1.25c-1.192-1.387-3.389-2.732-5.21-1.698-2.231 1.266-1.08 4.55-.08 6.251 1.17 1.994 3.037 3.503 5.239 4.164-.19 1.274-.395 2.545-.61 3.814-.27.447-.512.91-.679 1.404a.78.78 0 0 0 .27.879l-.175.964c-.325-1-.74-1.98-1.268-2.927-.962-1.725-2.776-4.33-5.094-3.105-4.968 2.627 2.054 11.562 4.612 13.26.071.047.148.069.223.094-.146.64-.284 1.282-.438 1.92a123.534 123.534 0 0 1-1.78 6.524 12.97 12.97 0 0 0-3.155-5.574c-1.386-1.45-3.595-2.556-4.98-.476-2.542 3.815 2.116 10.887 6.019 11.75a.575.575 0 0 0 .317-.03c-1.977 5.912-4.17 11.735-6.152 17.704-.426 1.286 1.298 2.038 1.93.836z"/></g></svg>