<svg xmlns="http://www.w3.org/2000/svg" width="28" height="135" viewBox="0 0 28 135"><g clip-path="url(#clip-e42b30df-ef9e-42a1-92cd-a511a9e7e6cd)"><path fill="#7ee852" d="M19.13 121.686c-3.351-.034-6.634-2.267-7.555-5.6-.198-.718-.317-.828.299-1.353.677-.577.786-.325 1.553.08a20.24 20.24 0 0 1 2.774 1.8c.603.458 1.15.993 1.688 1.536.397 1.19.81 2.369 1.241 3.537zm.111-9.563c.025-.05.054-.096.068-.157.427-1.768 1.036-3.395 2.07-4.906.469-.687 1.202-1.844 1.942-2.237 2.207-1.171 2.238.738 2.07 1.905-.232 1.602-1.133 3.189-2.141 4.426-.98 1.203-2.299 1.915-3.341 3.022-.004.004-.005.009-.009.013-.225-.686-.442-1.377-.659-2.066zm-4.206-3.661c-1.232-.055-2.443-.27-3.617-.748-1.422-.579-5.566-3.064-3.437-4.92 1.188-1.035 3.185-.378 4.361.306.719.417 1.27.93 1.762 1.49.295 1.294.603 2.586.93 3.872zm.486-10.613c.193-1.222.488-2.425.936-3.59.368-.954 2.861-6.334 4.085-4.042.781 1.463-.967 4.118-1.694 5.264-.873 1.378-1.981 2.492-3.056 3.677-.094-.436-.18-.873-.27-1.31zm-3.463-3.665c-1-.015-1.968-.147-3.044-.67-1.606-.78-4.713-2.743-4.52-4.695.093-.94.056-.962.939-1.066.413-.048.822-.003 1.232.066.98.163 1.923.543 2.789 1.022.773.43 1.417.954 2.005 1.535.186 1.268.387 2.538.599 3.808zm1.185-9.352c-.107-.774-.201-1.548-.299-2.323.225-.582.478-1.154.806-1.696.645-1.072 1.918-2.893 3.383-2.809 1.957.112-.046 3.734-.682 4.521-.87 1.08-1.972 1.786-3.208 2.307zM9.87 81.834c-1.278-.094-2.481-.258-3.695-.955-1.572-.904-3.253-2.596-3.543-4.477-.051-.335-.104-1.367.279-1.519.329-.13 1.392.53 1.715.708.808.448 1.567.98 2.266 1.586 1.395 1.21 2.11 2.814 3.188 4.196-.187.054-.31.272-.21.46zM11.917 72zm0 0c-.065-.956-.122-1.91-.17-2.864.302-.512.623-1.014.99-1.491.97-1.26 3.68-3.826 4.755-1.363.7 1.603-.999 3.228-2.175 4.118-1.066.805-2.259 1.09-3.4 1.6zM9.45 70.53zm0 0c-1.59-.39-2.95-1.349-4.061-2.653a20.712 20.712 0 0 1-1.117-1.473c-.324-.46-1.428-1.668-1.397-2.239.11-2.052 3.63 1.148 4.06 1.606 1.021 1.084 1.532 2.466 2.446 3.59.02.39.047.78.069 1.17zm2.085-10.6c0-.205.003-.409.005-.614.615-1.224 1.268-2.446 2.102-3.528.801-1.04 2.937-3.253 4.509-2.69 2.995 1.076-1.107 4.573-2.215 5.27-1.387.872-2.89 1.12-4.4 1.562zm-2.391-2.366c-1.34-.56-2.498-1.361-3.552-2.489-1.024-1.095-2.965-3.194-3.185-4.714-.283-1.965 1.794-1.603 2.867-.951.8.485 1.47 1.186 2.033 1.924.793 1.035 1.295 2.224 1.887 3.365-.024.955-.041 1.91-.05 2.865zm2.738-9.116c.048-.8.096-1.6.154-2.399.106-.023.211-.03.316-.06.399-.112.334-.768-.03-.868a8.727 8.727 0 0 1 2.046-2.57c1.07-.913 3.097-2.182 4.587-1.447 3.775 1.86-4.037 5.845-7.073 7.344zM9.71 44.62c-2.705-1.105-4.261-3.98-5.16-6.912-.39-1.272.535-2.22 1.715-1.28.65.518 1.198 1.256 1.686 1.93.876 1.214 1.419 2.5 1.983 3.824-.078.812-.157 1.625-.224 2.439zm3.271-8.437c.535-1.53 1.195-2.972 2.25-4.224.818-.97 2.795-3.026 4.314-2.566 2.946.89-.823 4.289-1.85 4.994-1.464 1.007-3.062 1.57-4.747 2.06.01-.087.023-.175.033-.264zm-1.936-3.11zm0 0c-1.96-1.861-3.718-3.992-4.338-6.698a3.403 3.403 0 0 1-.178-1.402l1.932-.287c.483.129 1.43 1.483 1.738 1.94.667.996 1.018 2.093 1.376 3.2-.189 1.08-.365 2.162-.53 3.246zm3.612-8.769c.142-.864.285-1.728.436-2.591a11.433 11.433 0 0 1 2.429-1.886c1.1-.629 3.75-1.974 5.029-1.134 3.279 2.151-5.62 4.987-7.894 5.611zM9.122 12.429c-.153-2.042.932-2.148 2.3-.985.736.626 1.127 1.665 1.542 2.517.52 1.069.907 2.217 1.364 3.32-.194.731-.364 1.469-.547 2.203-2.122-1.849-4.444-4.176-4.659-7.055zm7.935.432a10.014 10.014 0 0 1 .094-6.11 10.488 10.488 0 0 1 1.543-2.964c.383-.513.815-.98 1.294-1.404.716-.197 1.057.02 1.022.652 1.082 1.728-.666 4.989-1.552 6.48-.703 1.186-1.612 2.227-2.401 3.346zm7.437 120.983c.633 1.202 2.357.45 1.93-.836-1.981-5.97-4.174-11.792-6.151-17.703.1.035.205.053.317.028 3.903-.862 8.561-7.934 6.02-11.749-1.386-2.08-3.595-.974-4.981.476a12.97 12.97 0 0 0-3.154 5.574 123.43 123.43 0 0 1-1.781-6.523c-.154-.639-.292-1.28-.438-1.921.075-.025.152-.047.223-.094 2.558-1.698 9.58-10.633 4.612-13.26-2.318-1.226-4.132 1.38-5.094 3.105a16.373 16.373 0 0 0-1.268 2.927l-.175-.964a.78.78 0 0 0 .27-.879 7.092 7.092 0 0 0-.68-1.404c-.214-1.27-.42-2.54-.609-3.814 2.202-.66 4.07-2.17 5.239-4.164 1-1.702 2.151-4.985-.08-6.251-1.821-1.034-4.018.311-5.21 1.697-.336.393-.635.815-.91 1.25a191.17 191.17 0 0 1-.528-5.533c3.781-.159 9.861-5.475 6.88-9.17-1.36-1.686-3.828-1.425-5.418-.261-.725.53-1.343 1.206-1.88 1.955a185.04 185.04 0 0 1-.104-4.866c2.686.323 5.66-1.398 7.468-3.221 1.462-1.474 3.13-4.247 1.329-6.126-1.608-1.677-4.432-.681-5.99.536-1.183.926-2.062 2.146-2.769 3.47.043-1.957.116-3.913.217-5.865 3.467-1.103 14.122-6.489 8.791-10.457-1.836-1.367-4.551-.593-6.23.632a10.13 10.13 0 0 0-2.003 1.975c.126-1.447.262-2.892.42-4.337.115.044.238.068.379.044 2.786-.476 5.742-1.956 7.639-4.086 1.345-1.512 2.397-4.128.593-5.73-1.731-1.538-4.202-.414-5.7.868a11.425 11.425 0 0 0-2.11 2.401c.255-1.855.526-3.71.82-5.563.026-.002.047.007.074.003 2.66-.436 13.217-3.191 10.068-7.88-1.16-1.727-3.603-1.425-5.299-.812a11.59 11.59 0 0 0-3.74 2.246c.023-.13.05-.26.073-.39.35.046.712-.201.679-.667a11.883 11.883 0 0 0-.25-1.603c.137-.719.266-1.437.408-2.155.216.192.563.262.81.07 2.394-1.883 4.562-5.341 5.314-8.302.449-1.77.895-5.774-1.622-6.28-2.27-.454-4.145 2.768-4.886 4.492-1.08 2.508-1.101 5.224-.315 7.773-.18.587-.334 1.181-.505 1.77-.704-1.808-1.7-3.544-2.863-4.562-1.286-1.125-3.336-1.426-4.61-.088-1.526 1.602-.22 4.567.65 6.189 1.13 2.104 2.875 4.06 5.079 5.056-.127.531-.27 1.057-.39 1.59-.025.04-.053.077-.078.118a.525.525 0 0 0-.054.444 146.54 146.54 0 0 0-.786 3.788c-1.572-3.276-4.5-6.56-6.8-3.716-1.41 1.743-.291 4.428.616 6.108 1.145 2.118 2.796 3.962 4.912 5.114a164.432 164.432 0 0 0-.571 4.404c-.783-1.466-1.81-2.811-2.935-3.736-1.459-1.2-4.02-1.79-4.846.478-.872 2.392 1.455 6.223 2.934 7.979 1.093 1.297 2.56 2.28 4.164 2.625a180.968 180.968 0 0 0-.287 5.001c-.7-1.076-1.536-2.045-2.452-2.757-1.61-1.253-4.6-2.166-6.02-.114-1.567 2.268 1.125 5.376 2.51 7.034 1.525 1.826 3.45 3.381 5.77 3.792a194.18 194.18 0 0 0 .12 7.204c-2.306-3.236-6.956-6.967-8.205-3.305-.748 2.19 2.074 5.106 3.438 6.458 1.391 1.38 3.128 2.366 4.999 2.397.013.02.03.034.046.05.022.368.041.736.066 1.103.11 1.603.244 3.225.39 4.855-1.083-1.33-2.473-2.49-3.618-3.262-1.584-1.068-5.263-2.861-5.81.285-.808 4.65 5.476 9.948 9.987 8.534.159 1.395.336 2.798.522 4.203a12.065 12.065 0 0 0-3.005-1.405c-1.968-.596-5.355-.694-6.052 1.837-.74 2.682 3.088 5.526 5.034 6.648 1.437.829 3.5 1.527 5.314 1.325.32 1.81.667 3.62 1.043 5.425-2.58-1.6-5.756-2.026-7.487.535-1.62 2.397.367 5.06 2.404 6.37a11.426 11.426 0 0 0 7.133 1.76c.395 1.482.821 2.95 1.263 4.413a32.266 32.266 0 0 0-2.276-1.407c-2.053-1.16-5.249-1.54-5.178 1.72.115 5.278 5.483 8.919 10.403 8.332 1.426 3.714 3.026 7.317 4.833 10.752z"/></g></svg>