<svg xmlns="http://www.w3.org/2000/svg" width="55" height="16" viewBox="0 0 55 16"><path fill="#7ee852" d="M37.662 14.093c-1.494-.542-2.989-1.691-4.198-2.707-.457-.383-.824-.799-1.078-1.262-1.291.14-2.558.253-3.778.345a72.17 72.17 0 0 1-3.808.186c1.355 1.668 3.495 2.6 5.412 3.672.952.532.275 1.863-.734 1.65l-.821-.173a.656.656 0 0 1-.475-.411c-2.257-1.097-4.363-2.595-5.566-4.726a62.837 62.837 0 0 1-6.994-.448 8.254 8.254 0 0 0 1.366 1.664c.824.771 2.128 1.155 2.508 2.236.12.342-.159.676-.475.777-1.365.433-2.868-1.105-3.725-2.002a10.23 10.23 0 0 1-1.982-3.005 51.788 51.788 0 0 1-5.255-1.137c.265.376.536.745.89 1.082.519.495 1.182.807 1.487 1.463.226.486-.05 1.12-.671 1.098-1.76-.066-3.893-2.788-4.286-4.428A42.468 42.468 0 0 1 .21 5.816C-.228 5.6.086 4.87.553 5.043A70.42 70.42 0 0 0 5.655 6.71c.193-.285.494-.508.878-.663 1.362-.551 2.87-.906 4.288-1.301.77-.215 1.312.986.542 1.299-.789.32-1.584.625-2.38.926l-.976.367a66.77 66.77 0 0 0 4.844 1.015c.06-.353.353-.658.71-.758 1.225-.345 2.452-.691 3.683-1.013.84-.22 1.667-.644 2.429-.105.095.068.162.181.122.3-.286.853-1.076.956-1.887 1.252-.71.258-1.425.508-2.14.755a62.78 62.78 0 0 0 6.228.471c-.063-.35.157-.726.459-.903 1.607-.942 3.394-1.735 5.227-2.155.726-.166 1.243.903.512 1.229-1.285.573-2.521 1.156-3.728 1.835a62.894 62.894 0 0 0 2.791-.1 99.19 99.19 0 0 0 4.75-.392 3.376 3.376 0 0 1 .01-.437c.165-1.883 2.777-4.921 4.928-4.438.555.125.728 1.032.157 1.262-1.213.491-3.198 1.908-3.173 3.378a57.695 57.695 0 0 0 5.911-1.083c.312-1.76 1.46-4.137 3.114-4.208.287-.012.5.254.507.51.016.685-.29.951-.66 1.531a7.347 7.347 0 0 0-.762 1.575c1.31-.391 2.59-.84 3.823-1.37.295-1.466 1.889-3.032 2.796-3.816.694-.6 1.642.331 1.013.996a10.737 10.737 0 0 0-1.249 1.565c1.949-1.086 3.724-2.406 5.232-4.023.369-.396 1.208-.21 1.291.348.238 1.598-.284 2.847-1.885 3.499-.404.165-.78-.025-.972-.307a23.02 23.02 0 0 1-3.85 2.37c.03.01.056.021.088.03 1.2.331 3.036.279 3.864 1.268.264.316.314.912-.157 1.111-1.076.456-2.137-.035-3.233-.304-.911-.225-2.032-.404-2.626-1.194a37.73 37.73 0 0 1-4.328 1.423c.225.51.897.642 1.618.87.953.303 1.942.508 2.747 1.097.62.453.436 1.451-.427 1.458-1.375.01-3.023-.624-4.281-1.174-.862-.376-1.478-.92-1.677-1.76a63.717 63.717 0 0 1-5.245.912c1.103 1.137 2.855 1.68 3.881 2.925.453.548.042 1.616-.8 1.31z"/></svg>