<svg xmlns="http://www.w3.org/2000/svg" width="38" height="41" viewBox="0 0 38 41"><defs><style>.cls-1{fill:#38aae2;fill-rule:evenodd}</style></defs><path id="box" class="cls-1" d="M37.454 9.769a1.047 1.047 0 0 0-.1-.448.978.978 0 0 0-.684-.54L19.459.437a1.021 1.021 0 0 0-.887 0L1.194 8.857a1.017 1.017 0 0 0-.574.878v21.174a1.007 1.007 0 0 0 .574.912l17.378 8.42a.017.017 0 0 1 .017.009.292.292 0 0 1 .076.034.2.2 0 0 0 .034.008l.076.025c.009 0 .017.008.025.008.025.009.059.009.084.017h.026c.034 0 .076.008.11.008a.479.479 0 0 0 .11-.008h.025a.3.3 0 0 0 .084-.017c.008 0 .017-.008.025-.008l.076-.025a.2.2 0 0 1 .034-.008.3.3 0 0 0 .076-.034.017.017 0 0 0 .017-.009L36.9 31.8a1.022 1.022 0 0 0 .575-.912V9.795a.024.024 0 0 1-.021-.026zm-18.443-7.3l15.072 7.309-5.551 2.694-15.071-7.306zm0 14.611L3.939 9.778l7.2-3.488 15.07 7.31zM2.647 11.408L18 18.848v18.86L2.647 30.267V11.408zm17.378 26.3v-18.86l7.207-3.5v4.932a1.014 1.014 0 0 0 2.028 0v-5.916l6.167-2.99v18.859z"/></svg>