<svg xmlns="http://www.w3.org/2000/svg" width="30" height="40" viewBox="0 0 30 40"><defs><style>.cls-1{fill:#38aae2;fill-rule:evenodd}</style></defs><path id="Forma_1" data-name="Forma 1" class="cls-1" d="M29.081 34.387c.029-.707.045-1.418.045-2.127a48.507 48.507 0 0 0-1.271-11.18.825.825 0 0 0-.057-.236c-1.356-5.539-3.683-10.13-6.662-12.831V3.375a3.391 3.391 0 0 0-3.387-3.388h-5.4a3.391 3.391 0 0 0-3.39 3.388v4.551C4.04 12.3.874 21.805.874 32.26c0 1.167.039 2.342.117 3.491a4.562 4.562 0 0 0 4.524 4.262h18.971a4.562 4.562 0 0 0 4.524-4.262 61.9 61.9 0 0 0 .045-.759.822.822 0 0 0 .026-.605zm-1.614-2.127q0 .782-.025 1.565h-8.684v-11.84h7.616a47.484 47.484 0 0 1 1.093 10.275zM10.618 3.375a1.73 1.73 0 0 1 1.728-1.728h5.4a1.73 1.73 0 0 1 1.728 1.728v4.182h-1.96V3.824a.83.83 0 1 0-1.659 0v3.733h-1.844V3.824a.83.83 0 1 0-1.659 0v3.733h-1.734V3.375zm13.868 34.978H5.514a2.9 2.9 0 0 1-2.869-2.713 50.491 50.491 0 0 1-.113-3.38c0-9.964 2.925-18.955 7.473-23.044h9.989c2.6 2.342 4.676 6.291 5.971 11.11h-8.037a.829.829 0 0 0-.829.829v13.5a.829.829 0 0 0 .829.83h9.436c0 .052-.006.1-.009.155a2.9 2.9 0 0 1-2.869 2.713zM11.069 12.017a2.319 2.319 0 0 0-2.135 1.4l-3.822 8.549a4.233 4.233 0 0 0 3.864 5.96h.089a4.385 4.385 0 0 0 4.38-4.38v-9.169a2.346 2.346 0 0 0-2.376-2.36zm.717 11.529a2.724 2.724 0 0 1-2.721 2.721h-.089a2.574 2.574 0 0 1-2.35-3.624l3.822-8.552a.645.645 0 0 1 .62-.416.685.685 0 0 1 .717.7v9.169z"/></svg>