<svg xmlns="http://www.w3.org/2000/svg" width="34" height="40" viewBox="0 0 34 40"><defs><style>.cls-1{fill:#38aae2;fill-rule:evenodd}</style></defs><path id="medical" class="cls-1" d="M30.331 31.005v-5.84a4.089 4.089 0 0 0-4.066-4.1H26.2a4.089 4.089 0 0 0-4.066 4.1v8.343a4.815 4.815 0 0 1-4.787 4.831h-.114a4.815 4.815 0 0 1-4.787-4.831V22.7a9.66 9.66 0 0 0 8.765-9.645V5.233a2.665 2.665 0 1 0-1.658 0v7.82a7.981 7.981 0 0 1-7.935 8.009h-.178a7.981 7.981 0 0 1-7.94-8.009v-7.82a2.693 2.693 0 0 0-.825-5.246 2.693 2.693 0 0 0-.829 5.246v7.82a9.658 9.658 0 0 0 8.942 9.659v10.8a6.482 6.482 0 0 0 6.445 6.5h.113a6.483 6.483 0 0 0 6.446-6.5v-8.347a2.421 2.421 0 0 1 2.407-2.43h.065a2.421 2.421 0 0 1 2.407 2.43v5.84a4.5 4.5 0 1 0 1.66 0zM20.382 1.661a1.016 1.016 0 1 1-1.007 1.016 1.013 1.013 0 0 1 1.007-1.016zm-17.706 0a1.016 1.016 0 1 1-1.008 1.016 1.013 1.013 0 0 1 1.007-1.016zM29.5 38.339a2.87 2.87 0 1 1 2.843-2.87 2.86 2.86 0 0 1-2.843 2.87z"/></svg>