<svg xmlns="http://www.w3.org/2000/svg" width="39" height="41" viewBox="0 0 39 41"><defs><style>.cls-1{fill:#38aae2;fill-rule:evenodd}</style></defs><path id="cosmetic" class="cls-1" d="M11.418 18.959h-.438v-3.554a.763.763 0 0 0-.763-.763h-.065v-7.27a.763.763 0 0 0-.422-.682l-5.9-2.952a.763.763 0 0 0-1.1.682v10.223h-.072a.763.763 0 0 0-.763.763v3.554h-.439a.763.763 0 0 0-.763.763v20.018a.763.763 0 0 0 .763.763h9.962a.763.763 0 0 0 .763-.763V19.722a.762.762 0 0 0-.763-.763zM4.249 5.654l4.377 2.189v6.8H4.249V5.654zm-.828 10.514h6.034v2.791H3.421v-2.791zm7.235 22.81H2.219V20.484h8.437v18.494zm27.513-7.541H13.394a.763.763 0 1 0 0 1.525h23.561l-.174.362a5.818 5.818 0 0 1-5.215 3.276H13.394a.763.763 0 1 0 0 1.525h18.172a7.351 7.351 0 0 0 6.589-4.141l.7-1.456a.763.763 0 0 0-.686-1.09zM11.632 6.1A15.348 15.348 0 1 1 31.89 29.153a.763.763 0 1 0 .978 1.171A16.873 16.873 0 1 0 10.6 4.985.763.763 0 1 0 11.632 6.1zm10.425-.911A12.175 12.175 0 1 1 13.9 26.411a.763.763 0 1 0-1.022 1.132 13.7 13.7 0 1 0-1.863-18.287.763.763 0 0 0 1.229.9 12.233 12.233 0 0 1 9.813-4.963zm8.391 6.167L16.529 25.278a.763.763 0 1 0 1.079 1.078l13.92-13.918a.763.763 0 1 0-1.079-1.078zm-9.68 14.016a.763.763 0 0 0 1.079 1.079L32.3 16a.763.763 0 0 0-1.079-1.079z"/></svg>