<svg width="60" height="60" viewBox="0 0 60 60" fill="none" xmlns="http://www.w3.org/2000/svg"><path d="M59.107 36.688c-3.945 15.825-19.973 25.455-35.799 21.51C7.488 54.251-2.142 38.223 1.805 22.4 5.75 6.574 21.775-3.057 37.597.888c15.826 3.945 25.455 19.975 21.51 35.8z" fill="#F7931A"/><path d="M59.107 36.688c-3.945 15.825-19.973 25.455-35.799 21.51C7.488 54.251-2.142 38.223 1.805 22.4 5.75 6.574 21.775-3.057 37.597.888c15.826 3.945 25.455 19.975 21.51 35.8z" fill="url(#a)"/><path d="M43.48 25.335c.587-3.93-2.405-6.044-6.497-7.453l1.327-5.325-3.24-.807-1.293 5.184c-.852-.213-1.727-.413-2.597-.611l1.302-5.218-3.24-.808-1.328 5.322c-.705-.16-1.397-.319-2.069-.486l.004-.017L21.379 14l-.862 3.462s2.405.55 2.354.585c1.312.328 1.55 1.196 1.51 1.885l-1.512 6.066c.09.023.208.056.337.107-.108-.026-.223-.056-.343-.084l-2.119 8.496c-.16.4-.568.997-1.485.77.032.047-2.356-.588-2.356-.588l-1.609 3.71 4.218 1.052c.784.196 1.553.402 2.31.596l-1.341 5.385 3.237.808 1.329-5.328c.884.24 1.742.461 2.582.67l-1.323 5.303 3.24.808 1.342-5.375c5.526 1.045 9.682.624 11.431-4.375 1.41-4.024-.07-6.346-2.978-7.86 2.118-.488 3.713-1.881 4.138-4.758zm-7.405 10.383c-1.002 4.025-7.778 1.85-9.975 1.304l1.78-7.135c2.196.549 9.241 1.634 8.195 5.831zm1.002-10.441c-.914 3.66-6.554 1.8-8.383 1.345l1.613-6.471c1.83.456 7.722 1.307 6.77 5.126z" fill="#fff"/><defs><linearGradient id="a" x1="30.456" y1=".004" x2="30.456" y2="59.081" gradientUnits="userSpaceOnUse"><stop stop-color="#fff" stop-opacity=".59"/><stop offset="1" stop-color="#fff" stop-opacity="0"/></linearGradient></defs></svg>