<svg width="260" height="382" viewBox="0 0 260 382" fill="none" xmlns="http://www.w3.org/2000/svg"><g clip-path="url(#a)" filter="url(#b)"><rect x="30" y="181.5" width="311" height="192" rx="17" transform="rotate(-30 30 181.5)" fill="url(#c)"/><path fill-rule="evenodd" clip-rule="evenodd" d="M70.66 187.778a7.547 7.547 0 0 1 5.732-.762l1.502-5.576a13.32 13.32 0 0 0-10.117 1.343c-6.384 3.686-8.58 11.834-4.905 18.2 2.275 3.94 6.266 6.271 10.492 6.604l-5.483-9.496c-2.082-3.607-.838-8.225 2.78-10.313zm7.542 13.062a7.567 7.567 0 0 1-2.79.951l3.01 5.215a13.38 13.38 0 0 0 2.663-1.171 13.323 13.323 0 0 0 6.179-7.939l-5.58-1.487a7.548 7.548 0 0 1-3.482 4.431z" fill="#fff"/><path fill-rule="evenodd" clip-rule="evenodd" d="M75.873 196.806a2.886 2.886 0 0 0 1.299-1.599l-2.788-.743.794-2.944a2.885 2.885 0 0 0-2.652.625 2.898 2.898 0 0 0-.959 2.547 2.875 2.875 0 0 0 1.585 2.207 2.891 2.891 0 0 0 2.721-.093" fill="#fff"/><path fill-rule="evenodd" clip-rule="evenodd" d="M75.873 196.806a2.886 2.886 0 0 0 1.299-1.599l-2.788-.743.794-2.944a2.885 2.885 0 0 0-2.652.625 2.898 2.898 0 0 0-.959 2.547 2.875 2.875 0 0 0 1.585 2.207 2.891 2.891 0 0 0 2.721-.093" fill="#fff"/><path fill-rule="evenodd" clip-rule="evenodd" d="M75.873 196.806a2.886 2.886 0 0 0 1.299-1.599l-2.788-.743.794-2.944a2.885 2.885 0 0 0-2.652.625 2.898 2.898 0 0 0-.959 2.547 2.875 2.875 0 0 0 1.585 2.207 2.891 2.891 0 0 0 2.721-.093" fill="#fff"/><path fill-rule="evenodd" clip-rule="evenodd" d="M75.873 196.806a2.886 2.886 0 0 0 1.299-1.599l-2.788-.743.794-2.944a2.885 2.885 0 0 0-2.652.625 2.898 2.898 0 0 0-.959 2.547 2.875 2.875 0 0 0 1.585 2.207 2.891 2.891 0 0 0 2.721-.093" fill="#fff"/><path fill-rule="evenodd" clip-rule="evenodd" d="M77.172 195.208a2.875 2.875 0 0 0-.98-3.193 2.872 2.872 0 0 0-1.015-.495l-.793 2.945 2.788.743z" fill="#fff"/><path fill-rule="evenodd" clip-rule="evenodd" d="M77.172 195.208a2.875 2.875 0 0 0-.98-3.193 2.871 2.871 0 0 0-1.014-.495l-.794 2.945 2.788.743z" fill="#fff"/><path d="M98.535 183.198c.535 1.102.623 2.162.264 3.179-.354 1.015-1.109 1.856-2.265 2.524-1.264.73-2.505.882-3.72.455-1.215-.434-2.25-1.391-3.104-2.872l-.347-.601c-.546-.946-.86-1.875-.942-2.789-.081-.913.077-1.74.475-2.48.4-.747 1.01-1.357 1.832-1.832 1.139-.657 2.23-.883 3.277-.677 1.047.207 1.942.828 2.684 1.864l-2.032 1.173c-.417-.606-.86-.962-1.331-1.068-.469-.114-1.015.009-1.638.369-.678.391-1.046.928-1.104 1.61-.056.674.205 1.523.784 2.546l.429.743c.613 1.062 1.222 1.746 1.826 2.052.608.303 1.26.254 1.956-.148.628-.362 1.013-.774 1.157-1.235.145-.468.067-1.015-.233-1.64l2.032-1.173zm4.055-5.276a6.02 6.02 0 0 0-.736.353c-.741.427-1.082.957-1.024 1.59l2.761 4.782-1.959 1.13-4.218-7.307 1.85-1.068.556.84c.006-.898.357-1.547 1.052-1.949a2.38 2.38 0 0 1 .661-.264l1.057 1.893zm5.375.516l-1.269-5.327 2.1-1.213 1.927 10.144.059.478c.113 1.208-.334 2.102-1.341 2.684a3.59 3.59 0 0 1-.942.372l-.853-1.479.302-.165c.37-.214.613-.429.729-.646.12-.22.157-.49.11-.811l-.117-.734-6.798-5.845 2.107-1.216 3.986 3.758zm10.351-7.074c.65 1.125.913 2.176.791 3.154-.121.97-.617 1.706-1.488 2.21-.741.427-1.488.516-2.24.266l1.988 3.444-1.958 1.131-5.841-10.117 1.816-1.048.481.677c.147-.841.602-1.482 1.365-1.923.904-.521 1.798-.594 2.684-.217.886.377 1.667 1.151 2.343 2.321l.059.102zm-2.04.988c-.393-.68-.817-1.134-1.275-1.362-.452-.231-.909-.214-1.369.052-.615.355-.902.833-.862 1.434l1.727 2.992c.518.344 1.084.338 1.698-.017.935-.539.962-1.573.081-3.099zm2.418-8.563l1.037 1.796 1.253-.724.827 1.432-1.253.724 2.105 3.646c.156.271.32.434.491.491.172.057.404.001.698-.168.217-.126.4-.252.548-.38l.854 1.479a4.65 4.65 0 0 1-1.084.86c-1.373.793-2.472.506-3.297-.861l-2.273-3.937-1.071.618-.826-1.432 1.07-.618-1.037-1.796 1.958-1.13zm4.944 4.322c-.419-.725-.652-1.452-.699-2.181a3.55 3.55 0 0 1 .445-2.013c.349-.616.872-1.124 1.567-1.526.989-.571 1.97-.735 2.941-.492.977.241 1.8.859 2.47 1.852l.302.492c.647 1.121.853 2.203.618 3.245-.238 1.038-.886 1.862-1.942 2.472-1.057.611-2.097.761-3.119.45-1.018-.312-1.862-1.05-2.533-2.211l-.05-.088zm2.039-.989c.401.694.838 1.149 1.314 1.367.472.214.952.18 1.44-.102.474-.274.741-.668.799-1.182.056-.518-.146-1.176-.606-1.973-.392-.68-.83-1.13-1.312-1.35-.482-.219-.965-.19-1.448.089-.479.277-.742.677-.788 1.202-.049.521.152 1.17.601 1.949zm8.42-4.708l2.001 3.465-2.033 1.173-5.677-9.833 3.848-2.222c.741-.427 1.47-.668 2.186-.721.72-.056 1.376.079 1.967.404.589.32 1.066.798 1.433 1.433.556.963.663 1.916.322 2.857-.34.935-1.095 1.74-2.265 2.415l-1.782 1.029zm-.947-1.641l1.816-1.048c.537-.311.873-.673 1.008-1.087.139-.416.073-.858-.197-1.326-.278-.482-.646-.79-1.102-.922-.456-.133-.937-.059-1.444.221l-1.863 1.076 1.782 3.086zm13.91-1.223a2.51 2.51 0 0 1-.575-.542c-.17.8-.634 1.42-1.393 1.858-.718.415-1.434.552-2.148.411a2.309 2.309 0 0 1-1.609-1.16c-.447-.774-.503-1.534-.169-2.279.339-.748 1.052-1.439 2.138-2.072l.901-.52-.242-.419c-.195-.337-.439-.557-.732-.658-.289-.103-.62-.047-.995.17-.33.19-.544.419-.643.686-.094.264-.062.534.097.809l-1.958 1.13a2.254 2.254 0 0 1-.286-1.402c.054-.511.262-1.006.624-1.486.359-.483.837-.897 1.433-1.241.903-.522 1.75-.708 2.541-.558.793.142 1.426.623 1.899 1.443l1.829 3.167c.405.691.805 1.159 1.2 1.406l.066.114-1.978 1.143zm-2.403-.423a1.98 1.98 0 0 0 .69-.651c.169-.271.249-.549.242-.833l-.725-1.256-.732.423c-.98.566-1.307 1.204-.98 1.916l.059.119a.9.9 0 0 0 .605.452c.262.059.543.002.841-.17zm6.628-5.7l-1.269-5.327 2.1-1.213 1.927 10.144.06.478c.112 1.208-.335 2.102-1.342 2.684a3.569 3.569 0 0 1-.941.372l-.854-1.479.302-.165c.37-.214.613-.429.729-.646.12-.22.157-.49.11-.811l-.117-.734-6.798-5.845 2.107-1.216 3.986 3.758z" fill="#fff"/><path d="M109.298 260.721l1.741-1.005 1.079 1.869-1.741 1.005 1.793 3.105-2.336 1.349-1.793-3.105-6.049 3.492-.886-1.38.593-12.918 2.414-1.394 5.185 8.982zm-6 3.464l3.664-2.115-3.365-5.828.004.407-.303 7.536zm19.273-12.329c1.158 2.007 1.654 3.74 1.488 5.199-.163 1.449-1.014 2.617-2.553 3.506-1.513.873-2.94 1.037-4.281.49-1.338-.556-2.58-1.803-3.724-3.741l-1.395-2.415c-1.158-2.007-1.652-3.728-1.481-5.164.177-1.44 1.038-2.606 2.583-3.498 1.532-.885 2.956-1.055 4.27-.51 1.321.541 2.554 1.78 3.698 3.718l1.395 2.415zm-3.842-1.258c-.756-1.31-1.489-2.164-2.199-2.564-.713-.406-1.461-.384-2.243.068-.763.44-1.156 1.055-1.179 1.844-.027.782.304 1.792.993 3.03l1.826 3.163c.753 1.304 1.497 2.169 2.231 2.598.734.428 1.492.416 2.274-.036.751-.433 1.135-1.047 1.155-1.842.016-.802-.33-1.837-1.038-3.107l-1.82-3.154zm16.413-6c1.158 2.007 1.655 3.74 1.488 5.199-.163 1.449-1.014 2.617-2.553 3.506-1.512.873-2.939 1.037-4.281.49-1.338-.556-2.579-1.803-3.724-3.741l-1.394-2.415c-1.159-2.007-1.653-3.728-1.482-5.164.178-1.44 1.039-2.606 2.584-3.498 1.532-.885 2.955-1.055 4.269-.51 1.321.541 2.554 1.78 3.698 3.718l1.395 2.415zm-3.842-1.258c-.756-1.31-1.489-2.164-2.198-2.564-.714-.406-1.461-.384-2.243.068-.763.44-1.156 1.055-1.18 1.844-.027.782.305 1.792.994 3.03l1.826 3.163c.752 1.304 1.496 2.169 2.23 2.597.735.428 1.493.417 2.275-.035.75-.433 1.135-1.047 1.154-1.842.016-.802-.33-1.837-1.037-3.107l-1.821-3.154zm16.413-6c1.159 2.007 1.655 3.739 1.489 5.199-.164 1.449-1.015 2.617-2.553 3.506-1.513.873-2.94 1.037-4.281.49-1.339-.556-2.58-1.803-3.724-3.741l-1.395-2.415c-1.158-2.007-1.652-3.728-1.481-5.164.177-1.44 1.038-2.606 2.583-3.498 1.532-.885 2.955-1.055 4.27-.51 1.321.541 2.553 1.78 3.698 3.718l1.394 2.415zm-3.841-1.258c-.757-1.31-1.49-2.165-2.199-2.564-.713-.407-1.461-.384-2.243.068-.763.44-1.156 1.055-1.179 1.843-.027.783.304 1.793.993 3.031l1.826 3.163c.753 1.304 1.496 2.169 2.231 2.597.734.428 1.492.417 2.274-.035.75-.433 1.135-1.047 1.155-1.842.016-.802-.33-1.837-1.038-3.107l-1.82-3.154zm29.572-5.763l-2.327 1.343-6.469-11.204-2.758 3.151-1.134-1.965 4.305-5.157.298-.172 8.085 14.004zm15.658-9.04l-9.414 5.435-.924-1.601 1.736-7.763c.242-1.136.36-2.035.354-2.696-.003-.672-.15-1.26-.442-1.764-.383-.665-.882-1.093-1.497-1.283-.608-.194-1.229-.108-1.864.258-.756.437-1.21 1.005-1.361 1.706-.151.701.004 1.45.465 2.249l-2.336 1.349c-.491-.85-.74-1.724-.746-2.624a4.651 4.651 0 0 1 .745-2.551c.507-.795 1.231-1.465 2.174-2.009 1.359-.785 2.626-1.061 3.803-.829 1.18.222 2.116.934 2.81 2.135.402.697.626 1.543.671 2.539.048.987-.096 2.224-.433 3.714l-1.315 5.628 6.5-3.753 1.074 1.86zm1.217-11.425l1.423-.822c.714-.421 1.174-.934 1.381-1.538.213-.609.12-1.258-.279-1.948-.383-.665-.857-1.077-1.419-1.238-.561-.171-1.2-.049-1.918.366-.628.362-1.039.842-1.232 1.44-.198.591-.128 1.177.207 1.758l-2.336 1.35a4.08 4.08 0 0 1-.562-2.283c.045-.81.314-1.574.805-2.293.494-.728 1.164-1.336 2.01-1.825 1.398-.807 2.697-1.088 3.898-.844 1.203.234 2.165.974 2.884 2.22.362.626.501 1.334.418 2.123a4.313 4.313 0 0 1-.829 2.139c.921-.182 1.742-.106 2.464.227.729.329 1.318.883 1.768 1.663.723 1.252.866 2.499.429 3.74-.432 1.237-1.349 2.261-2.753 3.071-1.346.777-2.655 1.056-3.928.836-1.272-.219-2.251-.923-2.937-2.112l2.336-1.349c.355.613.848.993 1.479 1.14.638.143 1.307.012 2.005-.391.725-.418 1.185-.939 1.38-1.563.195-.624.083-1.3-.338-2.029-.424-.735-.969-1.174-1.633-1.319-.665-.144-1.427.031-2.286.527l-1.375.794-1.062-1.84zm19.544-7.195l1.74-1.004 1.08 1.869-1.741 1.005 1.793 3.105-2.337 1.349-1.793-3.105-6.048 3.492-.886-1.38.593-12.918 2.414-1.394 5.185 8.981zm-6 3.465l3.663-2.115-3.364-5.828.004.407-.303 7.536zm24.164-18.041l1.423-.821c.714-.421 1.174-.934 1.381-1.539.213-.609.12-1.258-.279-1.948-.383-.665-.857-1.077-1.42-1.238-.56-.171-1.199-.049-1.917.366-.628.363-1.039.843-1.232 1.44-.198.591-.128 1.177.207 1.759l-2.336 1.349a4.08 4.08 0 0 1-.562-2.283c.045-.81.314-1.574.805-2.292.494-.729 1.164-1.337 2.01-1.826 1.398-.806 2.697-1.088 3.898-.844 1.203.234 2.165.974 2.884 2.22.361.626.501 1.334.418 2.123a4.33 4.33 0 0 1-.829 2.14c.921-.182 1.742-.107 2.464.226.729.329 1.318.883 1.768 1.663.723 1.252.866 2.499.428 3.74-.431 1.237-1.348 2.261-2.752 3.071-1.346.778-2.655 1.056-3.928.837-1.272-.22-2.251-.924-2.937-2.113l2.336-1.349c.355.614.847.994 1.479 1.14.638.143 1.306.013 2.005-.391.725-.418 1.185-.939 1.38-1.563.195-.624.083-1.3-.338-2.029-.424-.734-.969-1.174-1.633-1.319-.665-.144-1.427.032-2.286.528l-1.375.793-1.062-1.84zm23.926-3.091l-9.414 5.435-.924-1.601 1.736-7.763c.241-1.136.359-2.035.354-2.696-.003-.671-.151-1.26-.442-1.764-.384-.665-.883-1.092-1.497-1.283-.608-.194-1.229-.108-1.864.258-.756.437-1.21 1.006-1.361 1.706-.151.701.004 1.451.465 2.249l-2.337 1.349c-.49-.849-.739-1.724-.745-2.624a4.643 4.643 0 0 1 .745-2.551c.506-.795 1.231-1.465 2.173-2.009 1.359-.785 2.627-1.061 3.804-.829 1.18.222 2.116.934 2.81 2.135.402.697.625 1.543.671 2.54.048.986-.097 2.224-.433 3.713l-1.315 5.628 6.5-3.753 1.074 1.86zm8.189-11.361l1.741-1.005 1.079 1.869-1.741 1.005 1.793 3.105-2.336 1.349-1.793-3.105-6.049 3.492-.886-1.38.593-12.918 2.414-1.393 5.185 8.981zm-6 3.464l3.664-2.115-3.365-5.828.004.407-.303 7.536zm19.867-4.837l-2.327 1.343-6.469-11.205-2.758 3.152-1.135-1.965 4.306-5.157.298-.172 8.085 14.004zm25.136-14.513l-2.327 1.344-6.469-11.205-2.758 3.151-1.134-1.965 4.305-5.156.298-.172 8.085 14.003zm15.658-9.04l-9.414 5.435-.924-1.601 1.737-7.763c.241-1.136.359-2.035.353-2.696-.003-.671-.15-1.259-.441-1.764-.384-.665-.883-1.092-1.497-1.283-.608-.194-1.23-.108-1.864.258-.757.437-1.211 1.006-1.362 1.706-.151.701.004 1.451.466 2.249l-2.337 1.35c-.491-.85-.739-1.725-.746-2.624-.003-.91.245-1.76.745-2.552.507-.795 1.231-1.465 2.174-2.009 1.359-.784 2.627-1.061 3.804-.829 1.179.223 2.116.934 2.809 2.136.402.696.626 1.542.671 2.539.048.986-.096 2.224-.433 3.713l-1.315 5.628 6.501-3.753 1.073 1.86zm1.217-11.425l1.423-.821c.714-.421 1.175-.934 1.381-1.539.213-.609.12-1.258-.278-1.948-.384-.665-.857-1.077-1.42-1.238-.56-.171-1.199-.049-1.917.366-.629.363-1.039.843-1.233 1.44-.197.591-.128 1.177.208 1.759l-2.337 1.349a4.097 4.097 0 0 1-.562-2.283c.046-.81.314-1.574.805-2.292.494-.729 1.165-1.337 2.011-1.826 1.397-.806 2.696-1.088 3.897-.844 1.203.234 2.165.974 2.884 2.22.362.626.501 1.334.418 2.123a4.328 4.328 0 0 1-.828 2.14c.92-.182 1.741-.107 2.463.226.729.329 1.318.883 1.768 1.663.723 1.252.866 2.499.429 3.74-.431 1.237-1.349 2.261-2.753 3.071-1.346.778-2.655 1.056-3.927.837-1.273-.22-2.252-.924-2.938-2.113l2.337-1.349c.354.614.847.994 1.478 1.14.638.143 1.307.013 2.006-.391.724-.418 1.184-.939 1.379-1.563.196-.624.083-1.3-.338-2.029-.424-.734-.968-1.174-1.633-1.319-.665-.144-1.427.032-2.286.528l-1.375.793-1.062-1.84zm19.544-7.194l1.741-1.005 1.079 1.869-1.741 1.005 1.793 3.105-2.336 1.349-1.793-3.105-6.049 3.492-.886-1.38.593-12.918 2.414-1.393 5.185 8.981zm-6 3.464l3.664-2.115-3.365-5.828.004.407-.303 7.536zM134.758 319.626l-1.697.98-4.74-8.21 1.697-.979 4.74 8.209zm3.423-4.63l-1.236-4.767 1.708-.986 1.458 7.292-1.561.902-5.587-4.909 1.708-.986 3.51 3.454zm8.985-2.534a2.097 2.097 0 0 1-.48-.452c-.142.668-.529 1.185-1.163 1.551-.599.346-1.197.46-1.793.343a1.926 1.926 0 0 1-1.343-.968c-.373-.647-.42-1.281-.141-1.903.283-.625.878-1.201 1.784-1.73l.753-.434-.202-.35c-.163-.282-.367-.465-.611-.549-.241-.086-.518-.039-.831.142-.276.158-.454.349-.537.572-.079.221-.052.446.081.676l-1.635.943a1.885 1.885 0 0 1-.238-1.17c.045-.427.218-.841.52-1.24.3-.404.699-.75 1.197-1.037.754-.435 1.461-.591 2.122-.466.662.119 1.19.521 1.585 1.205l1.527 2.644c.338.577.672.968 1.002 1.173l.055.096-1.652.954zm-2.006-.353c.241-.139.433-.32.576-.543.141-.227.208-.459.202-.696l-.605-1.048-.611.352c-.818.473-1.091 1.006-.818 1.601l.049.099a.75.75 0 0 0 .505.377c.219.049.453.002.702-.142zm3.464-8.623l.458.676c.122-.798.551-1.409 1.287-1.834.648-.374 1.241-.463 1.776-.266.536.197 1.026.671 1.47 1.422l2.275 3.941-1.634.944-2.253-3.902c-.2-.346-.419-.552-.659-.619-.242-.071-.538-.005-.889.197-.46.266-.692.661-.697 1.184l2.484 4.302-1.635.944-3.522-6.1 1.539-.889zm14.993-3.236l-1.698-7.251 1.889-1.091 1.872 9.865-1.77 1.022-7.597-6.56 1.884-1.087 5.42 5.102zm9.701-2.887a2.097 2.097 0 0 1-.48-.452c-.142.668-.529 1.185-1.163 1.551-.6.346-1.197.461-1.793.343a1.926 1.926 0 0 1-1.343-.968c-.374-.646-.421-1.281-.141-1.903.283-.625.878-1.201 1.784-1.73l.753-.434-.202-.35c-.163-.281-.367-.465-.612-.549-.24-.086-.517-.039-.83.142-.276.159-.455.35-.537.573-.079.22-.052.445.081.675l-1.635.944a1.882 1.882 0 0 1-.238-1.171c.045-.427.218-.84.52-1.24.3-.404.699-.749 1.197-1.037.754-.435 1.461-.591 2.122-.466.662.119 1.19.521 1.585 1.205l1.527 2.644c.338.577.672.968 1.001 1.174l.056.095-1.652.954zm-2.006-.353c.241-.139.433-.32.576-.543.141-.227.208-.458.202-.695l-.605-1.049-.611.353c-.819.472-1.091 1.005-.819 1.6l.05.099a.752.752 0 0 0 .505.378c.219.048.453.001.702-.143zm7.822-5.253c-.115-.199-.305-.297-.569-.295-.264-.003-.64.076-1.13.239-1.631.536-2.715.339-3.251-.589-.312-.541-.348-1.122-.108-1.742.242-.626.727-1.149 1.455-1.569.776-.448 1.502-.624 2.176-.527.678.094 1.186.433 1.522 1.016l-1.635.943a.894.894 0 0 0-.558-.444c-.24-.067-.52-.008-.84.177-.276.159-.453.344-.532.555a.676.676 0 0 0 .047.604c.104.181.274.278.508.293.237.009.583-.063 1.038-.215a7.912 7.912 0 0 1 1.185-.324c1.046-.183 1.794.115 2.243.893.321.556.342 1.145.063 1.768-.282.618-.801 1.146-1.559 1.584-.513.296-1.022.469-1.525.52a2.693 2.693 0 0 1-1.367-.211 2.03 2.03 0 0 1-.935-.836l1.55-.895c.182.281.418.44.707.479.288.039.601-.039.936-.232.313-.181.515-.375.606-.583a.643.643 0 0 0-.027-.609zm5.386-3.936l-1.06-4.448 1.754-1.012 1.608 8.468.05.4c.094 1.008-.279 1.755-1.12 2.24-.238.138-.5.241-.786.311l-.713-1.234.252-.138c.31-.179.513-.359.609-.54.1-.183.131-.409.092-.677l-.097-.613-5.676-4.879 1.759-1.016 3.328 3.138zm7.397-1.196l-1.641.947-5-8.66 1.641-.947 5 8.66zm3.888-2.245l-1.641.947-3.522-6.1 1.641-.947 3.522 6.1zm-6.17-6.676a.932.932 0 0 1-.106-.744c.075-.254.254-.462.537-.625.279-.162.547-.211.804-.149a.918.918 0 0 1 .597.46c.143.248.176.5.097.756-.075.253-.25.459-.525.618-.275.159-.543.209-.804.149a.926.926 0 0 1-.6-.465zm11.214 3.914c-.897.518-1.787.666-2.669.444-.879-.224-1.582-.793-2.11-1.707l-.091-.157c-.353-.613-.55-1.229-.591-1.847a3 3 0 0 1 .363-1.698c.285-.515.707-.934 1.265-1.256.837-.484 1.647-.601 2.43-.351.786.248 1.458.855 2.016 1.821l.384.665-3.897 2.25c.283.368.626.596 1.029.684.406.086.813.012 1.22-.224.63-.363.991-.875 1.083-1.534l1.321.433a2.858 2.858 0 0 1-.527 1.386 3.8 3.8 0 0 1-1.226 1.091zm-3.077-4.899c-.324.187-.525.449-.603.784-.074.334-.022.72.156 1.158l2.274-1.312-.075-.13c-.216-.357-.475-.578-.776-.665-.304-.09-.629-.035-.976.165zm8.336-.941l-1.236-4.767 1.708-.986 1.458 7.293-1.561.901-5.587-4.909 1.708-.986 3.51 3.454zm-79.178 20.749c.656 1.135.921 2.139.797 3.013-.124.873-.64 1.573-1.549 2.097-.898.518-1.754.62-2.57.304-.816-.316-1.547-1.021-2.195-2.116l-.872-1.511c-.662-1.147-.927-2.154-.794-3.022.136-.871.652-1.565 1.55-2.083.897-.518 1.754-.619 2.57-.303.813.312 1.544 1.015 2.191 2.11l.872 1.511zm-2.591-.714c-.393-.68-.773-1.12-1.139-1.32-.365-.205-.746-.193-1.141.035-.385.222-.584.535-.597.939-.012.398.158.914.509 1.548l1.152 1.996c.386.669.764 1.115 1.134 1.337.372.217.759.208 1.162-.024.4-.231.599-.554.596-.968-.003-.414-.186-.945-.55-1.592l-1.126-1.951zm10.441.707l-1.634.944-3.627-6.281-1.603 1.73-.765-1.325 2.708-3.187.175-.101 4.746 8.22zm4.482-1.647l-1.216.702-2.115-10.665 1.216-.702 2.115 10.665zm9.799-6.598l-5.645 3.259-.644-1.116 1.03-4.368c.135-.61.204-1.113.206-1.511.006-.399-.068-.732-.222-.999-.211-.364-.468-.597-.772-.697-.306-.104-.631-.056-.974.142-.37.213-.588.51-.656.889-.065.374.021.768.26 1.181l-1.641.947a3.123 3.123 0 0 1-.434-1.576 2.911 2.911 0 0 1 .458-1.557c.301-.49.728-.894 1.283-1.214.848-.49 1.623-.667 2.325-.531.706.134 1.273.571 1.7 1.311.234.406.368.881.399 1.424.032.543-.046 1.242-.236 2.098l-.736 3.049 3.541-2.044.758 1.313zm4.87-6.931l.934-.539.758 1.314-.933.539 1.025 1.776-1.635.943-1.025-1.776-3.377 1.95-.666-.984.312-7.389 1.652-.954 2.955 5.12zm-3.456 1.995l1.822-1.051-1.674-2.898v.248l-.148 3.701z" fill="#fff" fill-opacity=".81"/></g><defs><filter id="b" x="0" y="0" width="425.334" height="381.777" filterUnits="userSpaceOnUse" color-interpolation-filters="sRGB"><feFlood flood-opacity="0" result="BackgroundImageFix"/><feColorMatrix in="SourceAlpha" values="0 0 0 0 0 0 0 0 0 0 0 0 0 0 0 0 0 0 127 0"/><feOffset dy="4"/><feGaussianBlur stdDeviation="15"/><feColorMatrix values="0 0 0 0 0 0 0 0 0 0 0 0 0 0 0 0 0 0 0.11 0"/><feBlend in2="BackgroundImageFix" result="effect1_dropShadow"/><feBlend in="SourceGraphic" in2="effect1_dropShadow" result="shape"/></filter><linearGradient id="c" x1="30" y1="181.5" x2="365.015" y2="243.287" gradientUnits="userSpaceOnUse"><stop stop-color="#747AEE"/><stop offset="1" stop-color="#000ACC"/></linearGradient><clipPath id="a"><path transform="rotate(-30 30 181.5)" fill="#fff" d="M30 181.5h311v192H30z"/></clipPath></defs></svg>