<svg width="40" height="40" viewBox="0 0 40 40" fill="none" xmlns="http://www.w3.org/2000/svg"><path d="M23.253 15.738V11.88h8.967V6H7.8v5.88h8.97v3.855C9.48 16.065 4 17.485 4 19.186c0 1.702 5.483 3.122 12.77 3.454V35h6.485V22.639C30.53 22.309 36 20.889 36 19.189c0-1.7-5.47-3.12-12.745-3.45h-.002zm.002 5.854v-.003c-.183.011-1.123.067-3.216.067a69.08 69.08 0 0 1-3.266-.068v.005c-6.44-.28-11.247-1.384-11.247-2.704 0-1.32 4.808-2.422 11.247-2.704v4.309c.422.028 1.628.098 3.293.098 2 0 3.005-.082 3.19-.098v-4.309c6.427.282 11.222 1.387 11.222 2.702 0 1.316-4.797 2.42-11.222 2.702" fill="#53AE94"/></svg>