<svg width="40" height="40" viewBox="0 0 40 40" fill="none" xmlns="http://www.w3.org/2000/svg"><path d="M30.758 14.172c-.38-3.343-3.29-4.415-6.945-4.671l-.081-4.645-2.828.05.08 4.522c-.744.013-1.503.041-2.258.07l-.079-4.553-2.826.05.08 4.643a96 96 0 0 1-1.799.056v-.015l-3.9.067.054 3.02s2.087-.077 2.053-.038c1.145-.02 1.53.639 1.648 1.21l.092 5.292c.08 0 .183 0 .3.015-.095.001-.195.002-.299.005l.129 7.413c-.044.361-.246.94-1.046.955.037.031-2.055.035-2.055.035l-.503 3.387 3.68-.065c.684-.011 1.358-.011 2.02-.019l.082 4.698 2.825-.049-.082-4.648c.776.003 1.527-.004 2.26-.018l.079 4.627 2.827-.05-.081-4.689c4.748-.356 8.054-1.611 8.39-6.082.27-3.6-1.449-5.174-4.158-5.775 1.625-.863 2.624-2.352 2.341-4.798zm-3.78 10.114c.063 3.51-5.955 3.216-7.871 3.251l-.108-6.224c1.917-.033 7.916-.689 7.98 2.973zm-1.468-8.759c.055 3.194-4.965 2.91-6.56 2.937l-.1-5.645c1.597-.028 6.601-.623 6.66 2.708z" fill="#F7931A"/></svg>