<svg width="440" height="360" viewBox="0 0 440 360" fill="none" xmlns="http://www.w3.org/2000/svg"><g clip-path="url(#a)"><path opacity=".1" d="M248.877 69.76c-28.204.038-55.351-7.966-81.317-16.857-25.966-8.891-51.732-18.847-79.41-23.066-17.802-2.712-38.044-2.463-51.96 7.384-13.393 9.473-17.272 25.151-19.143 39.636-1.408 10.897-2.057 22.334 3.214 32.302 3.66 6.92 9.923 12.623 14.338 19.218 15.409 22.942 6.142 52.248-8.833 75.723-7.022 11.014-15.247 21.57-20.555 33.215-5.31 11.645-7.486 24.85-2.072 36.343 5.365 11.392 17.484 19.66 30.49 25.307 26.411 11.49 57.161 13.952 87.085 14.9 66.24 2.104 132.608-2.187 198.798-6.477 24.494-1.587 49.098-3.184 73.087-7.781 13.319-2.55 27.034-6.334 36.478-14.629 11.987-10.53 14.439-27.724 5.716-40.082-14.628-20.729-53.2-24.638-63.689-47.066-5.784-12.348-.796-26.508 6.55-38.409 15.757-25.537 42.877-48.411 43.334-76.974.313-19.614-13.791-38.749-34.856-47.274-22.079-8.929-52.184-6.632-67.654 10.01-15.907 17.144-44.699 24.55-69.601 24.577z" fill="#6C63FF"/><path d="M374.485 272.116s-4.637-3.063-9.233-.884c0 0 1.415 2.727 7.233 2.47l2-1.586zm.589.165s1.411 5.379-2.128 9.039c0 0-2.128-2.217 0-7.649l2.128-1.39zm5.765-5.166s-.343-4.575-10.663-3.056c0 0-.049 2.95 3.573 4.347 3.622 1.398 5.283.219 7.09-1.291zm.649-.029s4.361 1.401.471 11.089c0 0-2.878-.642-3.395-4.498-.517-3.856 1.015-5.186 2.924-6.591zm5.825-6.49s.593-7.528-9.953-6.757c0 0-.755 6.798 8.093 8.566l1.86-1.809zm6.969-8.498s-1.445-8.532-11.987-5.99c0 0-.037 7.376 10.267 8.022l1.72-2.032zm5.094-8.786s-2.422-8.31-12.866-5.825c0 0 2.486 7.475 12.172 7.358l.694-1.533zm4.837-8.582s-2.366-8.623-12.451-6.043c0 0 3.365 8.192 11.783 7.501l.668-1.458zm3.116-8.15s-1.818-10.546-11.221-8.211c0 0 2.732 9.593 10.531 9.748l.69-1.537zm2.924-9.847s-2.184-10.628-11.696-7.554c0 0 3.728 10.047 11.021 9.009l.675-1.455zm1.796-9.163s-3.467-10.633-10.821-10.346c0 0 3.543 11.23 10.206 12.465l.615-2.119zm1.162-8.945s-3.773-12.797-9.757-11.811c0 0 2.611 9.783 9.546 13.805l.211-1.994zm.657-10.668s-3.539-10.663-9.433-11.09c0 0 2.408 10.493 9.316 13.862l.117-2.772zm.713-9.957s-4.41-10.674-8.3-10.916c0 0 1.916 10.512 7.923 12.668l.377-1.752zm.487-9.261s-2.713-11.592-6.61-12.555c0 0 .532 9.484 6.217 13.423l.393-.868zm1.471-12.133s-2.852-9.242-6.01-10.651c0 0 .622 10.897 5.282 12.91l.728-2.259zm1.219-7.933l.573-16.294s-5.904 12.283-.999 19.153l.426-2.859zm4.558-16.206s4.252-11.898 5.282-12.563c0 0-8.338 7.721-7.523 17.651l2.241-5.088zM387.6 260.539s7.478-.978 7.256 9.602c0 0-6.758 1.103-8.965-7.649l1.709-1.953zm7.037-8.726s8.64-.027 7.923 10.802c0 0-7.256 1.299-9.648-8.755l1.725-2.047zm4.822-7.801s7.844-3.682 12.862 5.825c0 0-7.244 3.067-13.556-4.287l.694-1.538zm4.927-9.201s8.033-3.917 12.749 5.367c0 0-8.368 2.885-13.413-3.898l.664-1.469zm2.841-8.001s7.731-7.392 13.9.083c0 0-7.897 6.085-14.254 1.563l.354-1.646z" fill="#6C63FF"/><path d="M409.816 216.479s7.776-7.554 13.896.348c0 0-8.727 6.206-14.175 1.239l.279-1.587zm1.452-9.21s5.992-9.443 13.047-7.335c0 0-6.218 9.998-12.979 9.552l-.068-2.217zm1.766-8.703s6.037-11.89 11.749-9.82c0 0-4.354 9.14-11.904 11.826l.155-2.006zm.419-11.23s6.206-9.36 12.021-8.216c0 0-5.075 9.492-12.625 10.924l.604-2.708zm.483-9.545s4.811-10.504 8.72-10.576c0 0-2.31 10.428-8.395 12.358l-.325-1.782zm.943-9.279s5.347-10.636 9.365-10.658c0 0-2.736 9.095-9.188 11.591l-.177-.933zm.804-11.242s3.999-8.8 7.312-9.797c0 0-2 10.727-6.871 12.132l-.441-2.335z" fill="#6C63FF"/><path d="M418.233 148.354l8.939-13.631s-2.29 13.446-10.244 16.241l1.305-2.61zm6.135-14.789s10.387-7.177 10.765-8.336c0 0-5.283 10.05-15.092 11.826l4.327-3.49zm.623-3.231s11.927-11.478 14.971-11.467c0 0-9.836.45-15.258 10.856l.287.611z" fill="#6C63FF"/><path d="M415.8 158.975l.434.056c2.241-17.559 5.508-27.95 9.198-29.223l-.143-.415c-3.913 1.359-7.203 11.591-9.489 29.582z" fill="#444053"/><path d="M412.502 200.969l.656.052c.14-1.639.246-3.316.317-4.989.627-14.534 1.596-27.883 2.872-37.888l-.378-.472c-1.279 10.028-2.524 23.777-3.15 38.333a118.212 118.212 0 0 1-.317 4.964z" fill="#444053"/><path d="M362.245 280.493c.113-.049 11.67-5.216 23.665-17.537a95.274 95.274 0 0 0 17.299-24.551c5.546-11.304 8.927-25.197 10.059-38.692l-.683.321c-2.547 30.292-16.322 50.991-27.275 62.265-11.878 12.211-23.306 17.326-23.419 17.375l.354.819z" fill="#444053"/><path d="M392.169 60.55H29.626a3.228 3.228 0 0 0-3.23 3.234v9.42H395.4v-9.42a3.234 3.234 0 0 0-3.23-3.233z" fill="#3F3D56"/><path d="M26.396 73.205V285.19c0 1.729.686 3.387 1.908 4.61a6.51 6.51 0 0 0 4.604 1.909h355.979a6.513 6.513 0 0 0 6.512-6.519V73.205H26.396z" fill="#fff"/><path opacity=".8" d="M32.24 68.293a1.51 1.51 0 1 0 0-3.02 1.51 1.51 0 0 0 0 3.02z" fill="#FA5959"/><path opacity=".8" d="M36.391 68.293a1.51 1.51 0 1 0-.002-3.02 1.51 1.51 0 0 0 .002 3.02z" fill="#FED253"/><path opacity=".8" d="M40.541 68.293a1.51 1.51 0 1 0-.001-3.02 1.51 1.51 0 0 0 .001 3.02z" fill="#8CCF4D"/><path opacity=".05" d="M357.257 108.549H60.697v130.543h296.56V108.549z" fill="#000"/><path d="M354.993 109.539H62.961v127.665h292.032V109.539z" fill="#F8FAFB"/><path d="M142.572 142.396a29.03 29.03 0 0 0-16.141 4.902 29.083 29.083 0 0 0-10.7 13.052 29.113 29.113 0 0 0 6.298 31.695 29.028 29.028 0 0 0 31.661 6.305 29.064 29.064 0 0 0 13.038-10.712 29.11 29.11 0 0 0-3.613-36.723 29.039 29.039 0 0 0-20.543-8.519zm5.21 29.783v13.771h-10.27v-13.771a8.52 8.52 0 0 1 .168-13.706 8.501 8.501 0 0 1 13.033 4.203 8.528 8.528 0 0 1-2.931 9.503z" fill="#6C63FF"/><path opacity=".05" d="M142.572 142.396a29.03 29.03 0 0 0-16.141 4.902 29.083 29.083 0 0 0-10.7 13.052 29.113 29.113 0 0 0 6.298 31.695 29.028 29.028 0 0 0 31.661 6.305 29.064 29.064 0 0 0 13.038-10.712 29.11 29.11 0 0 0-3.613-36.723 29.039 29.039 0 0 0-20.543-8.519zm5.21 29.783v13.771h-10.27v-13.771a8.52 8.52 0 0 1 .168-13.706 8.501 8.501 0 0 1 13.033 4.203 8.528 8.528 0 0 1-2.931 9.503z" fill="#000"/><path d="M142.572 134.086a37.326 37.326 0 0 0-20.753 6.302 37.39 37.39 0 0 0-13.757 16.781 37.435 37.435 0 0 0-2.126 21.605 37.411 37.411 0 0 0 10.223 19.146 37.325 37.325 0 0 0 40.707 8.106 37.364 37.364 0 0 0 16.764-13.773 37.422 37.422 0 0 0-4.646-47.215 37.335 37.335 0 0 0-26.412-10.952zm6.697 38.292v17.703h-13.206v-17.703a10.96 10.96 0 0 1 .215-17.627 10.933 10.933 0 0 1 12.776 0 10.958 10.958 0 0 1 .215 17.627z" fill="#6C63FF"/><path d="M316.131 166.574H195.394v12.842h120.737v-12.842z" fill="#fff"/><path d="M316.131 189.992h-26.034v12.842h26.034v-12.842zm-108.852-17.19h-2.184l1.943-1.941a.192.192 0 0 0-.134-.324.185.185 0 0 0-.134.056l-1.943 1.945v-2.191a.188.188 0 0 0-.189-.189.188.188 0 0 0-.132.057.192.192 0 0 0-.057.132v2.191l-1.939-1.957a.182.182 0 0 0-.061-.041.183.183 0 0 0-.145 0 .197.197 0 0 0-.062.041.192.192 0 0 0 0 .268l1.943 1.942h-2.188a.191.191 0 0 0-.189.189c0 .05.02.098.056.133a.185.185 0 0 0 .133.056h2.188l-1.943 1.945a.192.192 0 0 0 0 .268.197.197 0 0 0 .268 0l1.939-1.945v2.187c0 .05.02.098.056.133a.188.188 0 0 0 .322-.133v-2.187l1.943 1.945a.195.195 0 0 0 .268 0 .192.192 0 0 0 0-.268l-1.943-1.945h2.184a.19.19 0 0 0 .189-.189.192.192 0 0 0-.059-.127.19.19 0 0 0-.13-.051zm7.924 0h-2.185l1.943-1.941a.192.192 0 0 0 0-.268.185.185 0 0 0-.206-.042.2.2 0 0 0-.062.042l-1.943 1.945v-2.191a.188.188 0 0 0-.189-.189.191.191 0 0 0-.188.189v2.191l-1.94-1.957a.182.182 0 0 0-.061-.041.182.182 0 0 0-.145 0 .193.193 0 0 0-.116.175c0 .05.02.098.055.134l1.943 1.942h-2.189a.193.193 0 0 0-.132.056.188.188 0 0 0 .132.322h2.189l-1.943 1.945a.193.193 0 0 0-.055.134c0 .05.02.098.055.134a.195.195 0 0 0 .267 0l1.94-1.945v2.187a.188.188 0 0 0 .377 0v-2.187l1.943 1.945a.197.197 0 0 0 .268 0 .192.192 0 0 0 0-.268l-1.943-1.945h2.185a.188.188 0 0 0 .188-.189.187.187 0 0 0-.188-.178zm7.923 0h-2.185l1.943-1.941a.193.193 0 0 0 .055-.134.193.193 0 0 0-.116-.176.202.202 0 0 0-.145 0 .2.2 0 0 0-.062.042l-1.943 1.945v-2.191a.188.188 0 0 0-.188-.189.192.192 0 0 0-.189.189v2.191l-1.939-1.957a.197.197 0 0 0-.134-.056.183.183 0 0 0-.073.015.182.182 0 0 0-.061.041.192.192 0 0 0 0 .268l1.943 1.942h-2.188a.194.194 0 0 0-.133.056.188.188 0 0 0 .133.322h2.188l-1.943 1.945a.192.192 0 0 0 0 .268.195.195 0 0 0 .268 0l1.939-1.945v2.187a.188.188 0 0 0 .377 0v-2.187l1.943 1.945a.195.195 0 0 0 .268 0 .193.193 0 0 0 .055-.134c0-.05-.02-.098-.055-.134l-1.943-1.945h2.185c.05 0 .098-.02.133-.056a.184.184 0 0 0 .055-.133.187.187 0 0 0-.188-.178zm7.923 0h-2.184l1.943-1.941a.192.192 0 0 0-.134-.324.202.202 0 0 0-.073.014.196.196 0 0 0-.061.042l-1.943 1.945v-2.191a.188.188 0 0 0-.189-.189.191.191 0 0 0-.188.189v2.191l-1.94-1.957a.182.182 0 0 0-.061-.041.183.183 0 0 0-.145 0 .197.197 0 0 0-.062.041.196.196 0 0 0-.054.134c0 .05.02.098.054.134l1.943 1.942h-2.188a.191.191 0 0 0-.189.189c0 .05.02.098.056.133a.185.185 0 0 0 .133.056h2.188l-1.943 1.945a.196.196 0 0 0-.054.134c0 .05.02.098.054.134a.195.195 0 0 0 .268 0l1.94-1.945v2.187c0 .05.019.098.055.133a.188.188 0 0 0 .322-.133v-2.187l1.943 1.945a.195.195 0 0 0 .268 0 .192.192 0 0 0 0-.268l-1.943-1.945h2.184a.19.19 0 0 0 .189-.189.188.188 0 0 0-.189-.178zm7.924 0h-2.185l1.943-1.941a.192.192 0 0 0 0-.268.185.185 0 0 0-.206-.042.2.2 0 0 0-.062.042l-1.943 1.945v-2.191a.188.188 0 0 0-.189-.189.191.191 0 0 0-.188.189v2.191l-1.94-1.957a.182.182 0 0 0-.061-.041.182.182 0 0 0-.145 0 .193.193 0 0 0-.116.175c0 .05.02.098.055.134l1.943 1.942h-2.189a.193.193 0 0 0-.132.056.188.188 0 0 0 .132.322h2.189l-1.943 1.945a.193.193 0 0 0-.055.134c0 .05.02.098.055.134a.195.195 0 0 0 .267 0l1.94-1.945v2.187a.188.188 0 0 0 .377 0v-2.187l1.943 1.945a.197.197 0 0 0 .268 0 .192.192 0 0 0 0-.268l-1.943-1.945h2.185a.188.188 0 0 0 .188-.189.187.187 0 0 0-.188-.178zm7.923 0h-2.185l1.943-1.941a.193.193 0 0 0 .055-.134.193.193 0 0 0-.116-.176.2.2 0 0 0-.145 0 .185.185 0 0 0-.061.042l-1.944 1.945v-2.191a.184.184 0 0 0-.055-.133.185.185 0 0 0-.266.001.191.191 0 0 0-.056.132v2.191l-1.939-1.957a.197.197 0 0 0-.134-.056.183.183 0 0 0-.073.015.182.182 0 0 0-.061.041.192.192 0 0 0 0 .268l1.943 1.942h-2.188a.196.196 0 0 0-.133.056.188.188 0 0 0 .133.322h2.188l-1.943 1.945a.192.192 0 0 0 0 .268.195.195 0 0 0 .268 0l1.939-1.945v2.187a.188.188 0 0 0 .377 0v-2.187l1.944 1.945a.195.195 0 0 0 .267 0 .193.193 0 0 0 .055-.134c0-.05-.02-.098-.055-.134l-1.943-1.945h2.185c.05 0 .098-.02.133-.056a.185.185 0 0 0 .056-.133.188.188 0 0 0-.189-.178zm7.924 0h-2.185l1.943-1.941a.192.192 0 0 0 0-.268.185.185 0 0 0-.206-.042.2.2 0 0 0-.062.042l-1.943 1.945v-2.191a.188.188 0 0 0-.189-.189.191.191 0 0 0-.188.189v2.191l-1.94-1.957a.182.182 0 0 0-.061-.041.183.183 0 0 0-.145 0 .193.193 0 0 0-.116.175c0 .05.02.098.055.134l1.943 1.942h-2.189a.193.193 0 0 0-.132.056.194.194 0 0 0-.056.133c0 .05.019.098.055.133a.185.185 0 0 0 .133.056h2.189l-1.943 1.945a.193.193 0 0 0-.055.134c0 .05.02.098.055.134a.195.195 0 0 0 .267 0l1.94-1.945v2.187a.188.188 0 0 0 .377 0v-2.187l1.943 1.945a.197.197 0 0 0 .268 0 .192.192 0 0 0 0-.268l-1.943-1.945h2.185a.188.188 0 0 0 .188-.189.187.187 0 0 0-.188-.178zm7.923 0h-2.185l1.943-1.941a.193.193 0 0 0 .055-.134.193.193 0 0 0-.116-.176.202.202 0 0 0-.145 0 .185.185 0 0 0-.061.042l-1.944 1.945v-2.191a.184.184 0 0 0-.055-.133.185.185 0 0 0-.266.001.191.191 0 0 0-.056.132v2.191l-1.939-1.957a.197.197 0 0 0-.134-.056.183.183 0 0 0-.073.015.182.182 0 0 0-.061.041.192.192 0 0 0 0 .268l1.943 1.942h-2.188a.194.194 0 0 0-.133.056.188.188 0 0 0 .133.322h2.188l-1.943 1.945a.192.192 0 0 0 0 .268.195.195 0 0 0 .268 0l1.939-1.945v2.187a.188.188 0 0 0 .377 0v-2.187l1.944 1.945a.195.195 0 0 0 .267 0 .193.193 0 0 0 .055-.134c0-.05-.02-.098-.055-.134l-1.943-1.945h2.185c.05 0 .098-.02.133-.056a.185.185 0 0 0 .056-.133.188.188 0 0 0-.189-.178zm7.923 0h-2.184l1.943-1.941a.192.192 0 0 0-.134-.324.185.185 0 0 0-.134.056l-1.943 1.945v-2.191c0-.05-.02-.098-.056-.133a.185.185 0 0 0-.133-.056.188.188 0 0 0-.132.057.192.192 0 0 0-.057.132v2.191l-1.939-1.957a.182.182 0 0 0-.061-.041.183.183 0 0 0-.145 0 .197.197 0 0 0-.062.041.192.192 0 0 0 0 .268l1.943 1.942h-2.188a.191.191 0 0 0-.189.189c0 .05.02.098.056.133a.185.185 0 0 0 .133.056h2.188l-1.943 1.945a.192.192 0 0 0 0 .268.197.197 0 0 0 .268 0l1.939-1.945v2.187c0 .05.02.098.056.133a.184.184 0 0 0 .133.055c.05 0 .098-.019.133-.055a.185.185 0 0 0 .056-.133v-2.187l1.943 1.945a.195.195 0 0 0 .268 0 .192.192 0 0 0 0-.268l-1.943-1.945h2.184a.19.19 0 0 0 .189-.189.192.192 0 0 0-.059-.127.19.19 0 0 0-.13-.051zm7.924 0h-2.185l1.943-1.941a.192.192 0 0 0 0-.268.185.185 0 0 0-.206-.042.2.2 0 0 0-.062.042l-1.943 1.945v-2.191a.188.188 0 0 0-.189-.189.191.191 0 0 0-.188.189v2.191l-1.94-1.957a.182.182 0 0 0-.061-.041.183.183 0 0 0-.145 0 .193.193 0 0 0-.116.175c0 .05.02.098.055.134l1.943 1.942h-2.189a.193.193 0 0 0-.132.056.188.188 0 0 0 .132.322h2.189l-1.943 1.945a.193.193 0 0 0-.055.134c0 .05.02.098.055.134a.195.195 0 0 0 .267 0l1.94-1.945v2.187a.188.188 0 0 0 .377 0v-2.187l1.943 1.945a.195.195 0 0 0 .268 0 .192.192 0 0 0 0-.268l-1.943-1.945h2.185a.188.188 0 0 0 .188-.189.187.187 0 0 0-.188-.178zm7.923 0h-2.185l1.944-1.941a.196.196 0 0 0 .054-.134c0-.05-.02-.098-.054-.134a.2.2 0 0 0-.062-.042.2.2 0 0 0-.145 0 .185.185 0 0 0-.061.042l-1.943 1.945v-2.191c0-.05-.02-.098-.056-.133a.185.185 0 0 0-.133-.056.188.188 0 0 0-.132.057.188.188 0 0 0-.057.132v2.191l-1.939-1.957a.197.197 0 0 0-.134-.056.193.193 0 0 0-.134.056.192.192 0 0 0 0 .268l1.943 1.942h-2.188a.196.196 0 0 0-.133.056.188.188 0 0 0 .133.322h2.188l-1.943 1.945a.192.192 0 0 0 0 .268.195.195 0 0 0 .268 0l1.939-1.945v2.187a.188.188 0 0 0 .322.133.185.185 0 0 0 .056-.133v-2.187l1.943 1.945a.195.195 0 0 0 .268 0 .196.196 0 0 0 .054-.134c0-.05-.02-.098-.054-.134l-1.944-1.945h2.185c.05 0 .098-.02.133-.056a.185.185 0 0 0 .056-.133.192.192 0 0 0-.059-.127.192.192 0 0 0-.13-.051z" fill="#6C63FF"/><path d="M347.255 218.751a6.8 6.8 0 0 0-.17-1.356c-.339-1.277-1.105-2.821-2.365-3.207a19.856 19.856 0 0 1-3.751-1.586c-.226-4.049.702-8.193-.309-12.117-.378-1.435-1-2.81-1.166-4.279-.208-1.829.29-3.777-.438-5.462-.573-1.33-1.833-2.266-3.188-2.757-1.355-.491-2.815-.624-4.252-.756-1.811-.147-7.675-.842-9.72.778-.141.11-.267.237-.377.378a1.638 1.638 0 0 0-.121.196l-.018.031a1.456 1.456 0 0 0-.102.245c-.029.093-.05.188-.064.283v.68c.026.34.075.68.075 1.016.004.168-.011.335-.045.499a3.506 3.506 0 0 1-.627 1.224l-.068.098c-.041.06-.083.117-.12.177-.038.061-.068.106-.098.159-.031.053-.061.087-.087.136a1.748 1.748 0 0 0-.098.193c0 .037-.042.071-.057.109a2.122 2.122 0 0 0-.136 1.322c.102.424.277.827.517 1.19.095.155.196.306.302.457l.264.359c-.049.35-.076.704-.079 1.057a7.824 7.824 0 0 0 2.981 6.142 23.198 23.198 0 0 1-.049 4.793 31.034 31.034 0 0 1-.246 1.828 3.813 3.813 0 0 1-1.648-.125 7.934 7.934 0 0 0-.755-.29c-1.098-.276-2.219.819-3.305.487 0 .053-.03.102-.049.151a1.484 1.484 0 0 0-.755-.223c-.645-.03-1.17-.498-1.637-.94l-1.438-1.356a1.58 1.58 0 0 1-.249-.28 1.983 1.983 0 0 1-.174-.464c-.241-.782-.826-1.405-1.392-1.998a.935.935 0 0 0-.411-.299.665.665 0 0 0-.189 0 3.602 3.602 0 0 0-.437-.468c-.687-.635-.755-1.179-1.351-1.889-.52-.677-.992-1.39-1.411-2.134a16.358 16.358 0 0 0-.2-1.216 15.649 15.649 0 0 0-.826-2.757l-.755-1.674-.087.087c-.547-.816-1.132-1.261-1.656-1.155-.879.181-1.313 1.888-1.174 4.12l.302 2.267c0 .056.027.113.042.17a4.128 4.128 0 0 0-.083.815c0 .318.294.552.449.835.247.384.378.831.377 1.288-.019.163-.068.317-.075.476.02.355.143.696.354.982l1.887 3.173.377.665.023.03c.119.232.292.431.505.581a6.922 6.922 0 0 0 .834 2.709 13.377 13.377 0 0 0 1.781 2.315l.898 1.008c.887.99 1.773 1.983 2.735 2.897.345.367.761.659 1.223.858a1.382 1.382 0 0 0 1.373-.2v1.405a.79.79 0 0 1 .596 1.242c-.792 2.036-1.592 4.091-2.792 5.915a12.618 12.618 0 0 1 2.34 1.787c.459.509.867 1.062 1.218 1.65.034.28.061.556.076.831.279 4.503-1.46 8.971-3.019 13.262-.449 1.216-.939 2.489-.901 3.754a7.454 7.454 0 0 0-.846.608c.31.809.189 1.53.155 2.395a4.238 4.238 0 0 1-.313 1.511c-.164.333-.345.657-.543.97-.978 1.727-1.193 3.778-1.389 5.749-.117 1.19.344 2.644-.196 3.709-.932 1.828-1.758 3.777-1.887 5.809a5.786 5.786 0 0 1-.173 1.356c-.117.378-.325.699-.43 1.069a4.595 4.595 0 0 0-.076 1.511 14.48 14.48 0 0 1-.792 5.33c-.472 1.348-.992 2.791-.623 4.177a5.894 5.894 0 0 0-1.596 3.509c-.009.337-.05.672-.12 1.001-.116.337-.267.66-.453.963a8.433 8.433 0 0 0-1.026 4.533c-1.132 1.537-1.698 3.433-2.034 5.318-.336 1.884-.483 3.803-.913 5.665-.574 2.463-1.611 4.952-1.815 7.475-1.222.782-1.751 2.297-1.985 3.728-.233 1.432-.271 2.935-.871 4.257-.31.687-.755 1.303-1.049 2.005a9.283 9.283 0 0 0-.453 1.727c-.181.921-.339 1.949-.117 2.832-.32.34-.693.624-1.105.843.06-.234.109-.469.151-.707-.974.884-2.74.574-3.517 1.636a1.599 1.599 0 0 0 .377 2.187c.244.148.507.261.782.336 1.886.604 3.825 1.212 5.765.891.229-.024.451-.095.652-.207.253-.186.46-.426.608-.703.29-.461.581-.922.868-1.382.695.207 1.401.373 2.116.494.072.605.125 1.209.151 1.813.378.076.883.099 1.061-.253a.935.935 0 0 0 .064-.419c0-.268.037-.623.06-.986h.076a7.153 7.153 0 0 0 3.339-.676c-.404-3.346.928-6.617 2.082-9.782 1.219-3.332 2.264-6.724 3.317-10.115.754-2.388 1.588-4.699 2.328-7.09.931-3.022 1.865-6.043 2.803-9.065.408-1.33.819-2.644 1.287-3.966a61.809 61.809 0 0 1 3.497-7.792c.378-.714.755-1.42 1.064-2.161.378-.902.646-1.847.947-2.779a43.089 43.089 0 0 1 2.37-5.583c.026-.049.045-.094.072-.14.305 1.25.611 2.52.815 3.777.275 1.543.297 3.12.064 4.669-.181 1.054-.525 2.096-.483 3.165.056 1.477.845 2.818 1.234 4.242.25 1.065.392 2.154.422 3.248.106 1.7 1.026 3.607.377 5.182-2.018 4.99-1.041 10.625-2.192 15.864-.592 2.689-2.407 5.216-2.264 7.966a81.06 81.06 0 0 0 .514 5.839c.058.613.217 1.211.471 1.771.151.295.324.578.517.847-.166.064-.305.234-.426.593-.31.944 0 2.115.837 2.644.342.182.71.31 1.091.377.513.146 1.044.22 1.577.219.166-.009.331-.029.494-.06.583.245 1.179.46 1.785.642 0 .155.03.31.049.465a.579.579 0 0 0 .196.426.58.58 0 0 0 .302.053h2.049v-.513a1.688 1.688 0 0 0 1.301-.423c.182-.232.311-.5.378-.786.558-1.896 1.113-3.794 1.664-5.692.66-2.099.935-4.3.811-6.497-.728-6.961.871-13.945.351-20.925a50.163 50.163 0 0 1 .641-12.555c.17-.936.377-1.888.453-2.821.166-1.76-.038-3.539.087-5.288.041-.612.124-1.22.2-1.828.517-3.775.788-7.579.811-11.388a36.121 36.121 0 0 0-.234-3.777 2.16 2.16 0 0 0 1.03-.605c.336-.438.249-1.053.245-1.612 0-1.337.562-2.599 1.015-3.861a45.942 45.942 0 0 0 1.426-5.31c.39-1.448.603-2.939.634-4.438a4.58 4.58 0 0 0-.022-.453c.142-.099.26-.228.347-.378.098-.221.159-.458.181-.699.136-.963.275-1.93.411-2.897.101-.692.2-1.384.298-2.074l1.2-8.381c.102-.729.208-1.454.309-2.179l.314-2.168c.033-.257.071-.514.098-.756.92-1.541.041-3.595-.057-5.348zm-10.01 31.38c-.445-1.058-.86-2.142-.754-3.282h-.042a1.692 1.692 0 0 0-.049-1.066c-.117-.275-.321-.509-.445-.785a2.885 2.885 0 0 1-.204-1.058 28.794 28.794 0 0 1 .54-6.851c.049-.265.101-.533.151-.797.158-.092.303-.205.43-.336a3.07 3.07 0 0 0 .486-.756c.427-.857.815-1.73 1.174-2.617.117-.287.287-.62.577-.692-.06 2.21.166 4.465-.732 6.459a4.09 4.09 0 0 0-.377 1.02c-.083.563.151 1.133.068 1.692-.042.291-.166.559-.215.846a.825.825 0 0 0 .218.801.66.66 0 0 0 .163.083 9.343 9.343 0 0 0-.057.453c-.03.31-.045.601-.064.782a24.338 24.338 0 0 0-.102 2.78c0 1.001.038 2.002.023 3.022a2.04 2.04 0 0 1-.144.857 1.467 1.467 0 0 1-.286.378c-.11-.34-.231-.638-.359-.933z" fill="url(#b)"/><path d="M307.462 206.307c1.151-.236 1.543-3.073.875-6.337-.668-3.264-2.143-5.718-3.294-5.482-1.152.237-1.543 3.074-.875 6.337.668 3.264 2.142 5.718 3.294 5.482z" fill="#FBBEBE"/><path d="M325.043 327.708c-.309.936 0 2.107.838 2.617a3.71 3.71 0 0 0 1.083.378 5.691 5.691 0 0 0 1.573.215c.653-.03 1.279-.287 1.932-.378a.297.297 0 0 1 .222.031.316.316 0 0 1 .083.264c.008.371.035.742.083 1.11a.58.58 0 0 0 .197.427.591.591 0 0 0 .302.053h2.045a20.021 20.021 0 0 0-.585-5.341 1.222 1.222 0 0 0-.151-.377 1.25 1.25 0 0 0-.653-.378 3.659 3.659 0 0 0-1.581-.276c-.66.087-1.211.514-1.773.869-.562.355-1.328.669-2.011.487-.683-.181-1.253-.751-1.604.299z" fill="#3F3D56"/><path d="M295.017 326.05a5.665 5.665 0 0 1-2.064 1.405l-.347.166a.24.24 0 0 0-.117.094.227.227 0 0 0 0 .09c.007.029.02.057.038.08a2.44 2.44 0 0 0 2.77 1.009 1.47 1.47 0 0 0 .607-.317c.288-.342.452-.77.468-1.217.114-.46.094-.944-.057-1.393-.524-1.183-.717-.646-1.298.083z" fill="#FBBEBE"/><path d="M302.858 330.702a.935.935 0 0 1-.064.419c-.178.348-.672.329-1.057.253a25.353 25.353 0 0 0-.464-3.814c-.732-.034-1.26.661-1.653 1.284l-1.011 1.605a2.084 2.084 0 0 1-.603.703c-.203.11-.424.181-.653.207-1.932.321-3.883-.287-5.746-.891a3.062 3.062 0 0 1-.781-.332 1.603 1.603 0 0 1-.378-2.184c.781-1.057 2.536-.755 3.509-1.631a8.733 8.733 0 0 1-.498 1.801c1.302-.196 2.177-1.39 3.226-2.187a2 2 0 0 1 .921-.438c.254-.021.51.006.754.08a8.845 8.845 0 0 1 3.32 1.635c.397.314 1.015.756 1.189 1.239.185.578-.011 1.635-.011 2.251z" fill="#3F3D56"/><path d="M328.812 206.081c4.306 0 7.796-3.493 7.796-7.803 0-4.31-3.49-7.803-7.796-7.803-4.305 0-7.795 3.493-7.795 7.803 0 4.31 3.49 7.803 7.795 7.803z" fill="#FBBEBE"/><path d="M344.169 244.35a18.553 18.553 0 0 1-.63 4.415 45.538 45.538 0 0 1-1.427 5.288c-.449 1.258-1.011 2.52-1.007 3.853 0 .555.091 1.171-.249 1.609a2.351 2.351 0 0 1-1.102.631 1.379 1.379 0 0 0-.928.827 5.858 5.858 0 0 1-.785-1.73 145.967 145.967 0 0 1-1.886-6.259.814.814 0 0 1 .053-.755.935.935 0 0 1 .328-.185 3.401 3.401 0 0 0 1.045-.672c.143-.127.261-.28.347-.45.11-.271.16-.562.147-.854 0-1.001 0-1.998-.026-2.999-.016-.924.019-1.848.106-2.768 0-.182.034-.472.064-.782.056-.593.169-1.28.49-1.511.479-.321 1.913.11 2.456.185.936.129 1.887.28 2.8.457.133.557.201 1.127.204 1.7zm-31.475-37.335c-.302.604-1.026.895-1.585 1.276l-1.913 1.315a1.28 1.28 0 0 1-.947.325 1.25 1.25 0 0 1-.705-.661.16.16 0 0 0 0-.031l-.396-.664-1.887-3.166a1.797 1.797 0 0 1-.351-.974c0-.163.057-.314.072-.476a2.288 2.288 0 0 0-.377-1.284c-.151-.284-.453-.518-.446-.835a3.03 3.03 0 0 1 .212-1.22c.198-.359.481-.662.826-.884.177-.128.358-.249.547-.377.1-.069.211-.12.328-.152.313-.064.623.197.94.208 1.362.914 1.886 2.644 2.958 3.891.603.71.664 1.254 1.347 1.888.109.098.215.204.317.314.135.147.249.312.339.491.125.324.876.706.721 1.016z" fill="#3F3D56"/><path d="M326.073 206.086c.562 1.19 1 2.497.838 3.804a2.387 2.387 0 0 1-.328 1.001c-.544.835-1.683.986-2.675 1.035a1.574 1.574 0 0 0-1.163.378 1.06 1.06 0 0 0 .072 1.291c.319.341.715.6 1.155.756 1.569.691 3.263 1.261 4.969 1.103.792-.076 1.562-.306 2.35-.423.86-.094 1.724-.142 2.589-.144 1.026-.038 2.048-.14 3.071-.242l2.709-.268a.605.605 0 0 0 .404-.147c.2-.234-.057-.578-.306-.756-1.438-1.065-3.267-1.797-4.086-3.399-.377-.755-.494-1.654-.774-2.47-.279-.816-.724-1.553-.898-2.383a15.845 15.845 0 0 1-.124-2.199 2.952 2.952 0 0 0-.755-2.009c-.539-.503-1.32-.631-2.052-.661-1.804-.079-3.724.351-5.003 1.624-.344.344-.638.755-.993 1.065-.354.31-.837.401-.603.808.234.408.694.661.943 1.02.252.387.473.794.66 1.216z" fill="#FBBEBE"/><path d="M341.441 217.073a43.02 43.02 0 0 1-2.309 8.51 31.964 31.964 0 0 0-1.359 3.814c-.29 1.171-.234 2.425-.502 3.6-.332 1.462-.664 2.927-.931 4.4-.45 2.25-.63 4.545-.536 6.837.001.361.07.718.204 1.054.124.271.324.506.441.785a1.883 1.883 0 0 1-.106 1.511c-.193.432-.456.83-.777 1.178-3.516 1.05-7.278.707-10.942.93-3.377.204-6.791.899-10.119.321-.377-1.511.253-3.094.792-4.567 1.566-4.279 3.298-8.736 3.019-13.22a13.869 13.869 0 0 0-.178-1.56c-.547-3.176.049-6.466 1.004-9.544.592-1.919.566-3.962.43-5.96a10.89 10.89 0 0 1-.026-1.953 3.431 3.431 0 0 1 .709-1.824c0-.027.034-.053.053-.08.019-.026.166-.022.283 0a.237.237 0 0 0 .189 0l.041-.026a.09.09 0 0 1 .109 0c.087.053.136.234.325.268.279.042.56.069.841.079.339.01.676.058 1.004.144h.045c.491.083.995.04 1.464-.125.313-.078.614-.195.898-.347.083-.091.604-.174.71-.238.343-.208.267-1.183.339-1.583.04-.401.135-.796.283-1.171a1.99 1.99 0 0 1 1.615-.94 8.605 8.605 0 0 1 1.935.173c1.408.201 2.849.167 4.23.491.694.163 1.453.408 2.09.091.174.042.2.193.2.378a2.396 2.396 0 0 1-.105.517c-.242 1.043.577 2.002 1.332 2.758.318.356.695.656 1.113.887.377.174.754.246 1.131.435.306.163.566.401.755.691.218.333.364.707.43 1.099a6.59 6.59 0 0 1-.124 2.187z" fill="#3F3D56"/><path opacity=".1" d="M341.441 217.073a42.992 42.992 0 0 1-2.309 8.509 32.042 32.042 0 0 0-1.359 3.815c-.29 1.171-.234 2.425-.501 3.6-.332 1.462-.664 2.927-.932 4.4a5.822 5.822 0 0 1-1.725.601 9.037 9.037 0 0 1-2.761-.091l-5.385-.721c-2.15-.291-4.44-.642-6.036-2.1-.887-.801-1.468-1.859-2.106-2.879a13.639 13.639 0 0 0-.177-1.56c-.547-3.176.049-6.466 1.003-9.544.593-1.919.566-3.962.431-5.96a10.89 10.89 0 0 1-.027-1.953 3.432 3.432 0 0 1 .71-1.824c.11-.033.222-.058.335-.076.076-.015.153-.026.23-.03h.11c.127 0 .254.015.377.045.257.082.509.179.755.291h.045c.324.107.663.155 1.004.143.498 0 1.011-.079 1.509-.113a2.783 2.783 0 0 1 1.788.321c.351.282.684.586.996.91.378.297.803.528 1.257.684a13.343 13.343 0 0 0 10.044-.211 1.95 1.95 0 0 1 1.007-.257c.261.051.507.156.724.309.227.133.449.261.68.378.217.333.364.707.43 1.099a6.592 6.592 0 0 1-.117 2.214z" fill="#000"/><path d="M344.727 214.573a20.175 20.175 0 0 1-4.301-1.889 1.924 1.924 0 0 0-.725-.31 2.033 2.033 0 0 0-1.011.257 13.333 13.333 0 0 1-10.04.212 4.395 4.395 0 0 1-1.256-.684 11.284 11.284 0 0 0-.996-.91c-1.242-.805-2.958.139-4.347-.378a7.74 7.74 0 0 0-.755-.291c-1.097-.276-2.214.82-3.293.487a18.34 18.34 0 0 0-.887 3.37 36.888 36.888 0 0 0-.245 3.973c0 .797-.038 1.594 0 2.391a.978.978 0 0 1 .656.427.964.964 0 0 1-.06.812c-.789 2.028-1.589 4.079-2.785 5.896a12.785 12.785 0 0 1 2.332 1.783c1.321 1.397 1.97 3.357 3.396 4.649 1.607 1.454 3.897 1.809 6.037 2.096l5.384.722a9.16 9.16 0 0 0 2.765.094 5.808 5.808 0 0 0 1.476-.479c.306-.128.585-.313.822-.544.199-.226.363-.481.487-.756.426-.853.815-1.726 1.173-2.61.125-.313.314-.68.653-.706 2-1.805 3.886-3.656 5.886-5.462a13.02 13.02 0 0 0 2.147-2.266c.992-1.469.09-3.55 0-5.326a6.73 6.73 0 0 0-.17-1.348c-.324-1.288-1.087-2.829-2.343-3.21z" fill="#6C63FF"/><path opacity=".1" d="M312.694 207.016c-.302.604-1.026.895-1.585 1.276l-1.913 1.315a1.27 1.27 0 0 1-.947.325 1.25 1.25 0 0 1-.705-.661v-.272a2.513 2.513 0 0 1 .121-.903c.187-.427.477-.801.845-1.088a6.925 6.925 0 0 1 2.479-1.511.85.85 0 0 1 .452-.045.558.558 0 0 1 .166.072c.135.147.25.312.34.491.151.309.902.691.747 1.001z" fill="#000"/><path d="M317.199 210.995c-.642-.031-1.166-.495-1.634-.937l-1.43-1.33a1.379 1.379 0 0 1-.249-.279 1.972 1.972 0 0 1-.173-.465 5.342 5.342 0 0 0-1.389-1.994.907.907 0 0 0-.411-.295.83.83 0 0 0-.457.046 6.897 6.897 0 0 0-2.479 1.511c-.367.287-.657.66-.845 1.087a2.512 2.512 0 0 0-.12.903 6.926 6.926 0 0 0 .867 3.301 13.116 13.116 0 0 0 1.774 2.308l.898 1.005c.883.989 1.765 1.979 2.724 2.889.343.367.76.658 1.222.854a1.364 1.364 0 0 0 1.404-.227 2.02 2.02 0 0 0 .4-.717c.581-1.511 1.132-3.083 1.166-4.71.008-.652-.02-1.304-.083-1.953-.057-.688-.544-.956-1.185-.997z" fill="#6C63FF"/><path d="M340.064 263.876a87.374 87.374 0 0 1-.808 11.358c-.075.608-.158 1.216-.2 1.824-.124 1.764.08 3.535-.086 5.288-.087.948-.283 1.888-.449 2.814a50.08 50.08 0 0 0-.642 12.521c.521 6.961-1.075 13.926-.351 20.868.088 1.35.013 2.706-.222 4.038a17.19 17.19 0 0 1-.585 2.44c-.551 1.891-1.104 3.779-1.66 5.665a1.973 1.973 0 0 1-.378.786 1.789 1.789 0 0 1-1.415.419c-2.177-.068-4.225-1.008-6.202-1.926a2.148 2.148 0 0 1-.623-.378c-.411-.426-.377-1.099-.558-1.662-.181-.562-.672-1.091-.951-1.669a5.423 5.423 0 0 1-.411-1.719 70.46 70.46 0 0 1-.514-5.824c-.143-2.742 1.668-5.265 2.264-7.932 1.132-5.242.174-10.863 2.185-15.837.634-1.571-.287-3.475-.377-5.167a16.465 16.465 0 0 0-.423-3.241c-.377-1.42-1.173-2.757-1.23-4.23-.042-1.065.302-2.104.479-3.154a14.19 14.19 0 0 0-.064-4.657c-.2-1.269-.506-2.538-.811-3.777l-.068.14a42.714 42.714 0 0 0-2.366 5.571c-.302.925-.566 1.869-.943 2.768-.309.756-.691 1.447-1.064 2.157a61.93 61.93 0 0 0-3.49 7.762c-.468 1.307-.879 2.644-1.287 3.955l-2.796 9.065c-.754 2.383-1.58 4.687-2.32 7.066-1.045 3.4-2.09 6.769-3.305 10.093-1.132 3.154-2.479 6.421-2.075 9.752a7.15 7.15 0 0 1-3.332.676 19.464 19.464 0 0 1-5.66-1.375c-.72-.268-1.467-.57-1.954-1.163-.838-1.023-.63-2.523-.377-3.826a9.233 9.233 0 0 1 .453-1.722c.286-.695.754-1.311 1.048-1.998.593-1.319.631-2.811.864-4.242.234-1.432.755-2.942 1.978-3.721.207-2.515 1.241-4.997 1.811-7.456.43-1.862.573-3.777.913-5.665.339-1.889.886-3.777 2.026-5.307a8.42 8.42 0 0 1 1.026-4.532c.184-.304.334-.627.449-.964.07-.328.111-.661.121-.997a5.9 5.9 0 0 1 1.592-3.501c-.377-1.379.147-2.818.619-4.155.594-1.706.863-3.509.792-5.314a4.676 4.676 0 0 1 .072-1.511c.105-.378.313-.699.434-1.061a6.08 6.08 0 0 0 .169-1.356c.148-2.044.974-3.97 1.887-5.794.543-1.066.083-2.512.196-3.698.196-1.972.411-4.011 1.389-5.73.181-.325.377-.635.539-.971a4.19 4.19 0 0 0 .313-1.511c.034-.865.155-1.582-.154-2.387 2.018-1.68 4.773-2.153 7.399-2.266 2.626-.113 5.282.125 7.851-.434.755-.17 1.51-.404 2.306-.518 1.807-.264 3.641.148 5.425.555-.124 1.134.291 2.221.755 3.275a35.19 35.19 0 0 1 2.796 13.492z" fill="#33313F"/><path opacity=".1" d="M331.178 264.738l-4.335 9.76c-.2-1.269-.506-2.538-.811-3.777l-.068.14v-.204l2.362-5.201 2.852-.718zm12.991-20.388a1.63 1.63 0 0 1-.861.321 4.166 4.166 0 0 1-1.411-.193l-3.395-.85a1.606 1.606 0 0 1-.31-.109c.057-.593.17-1.28.491-1.511.479-.321 1.913.11 2.456.185.936.129 1.886.28 2.799.457a7.5 7.5 0 0 1 .231 1.7z" fill="#000"/><path d="M347.04 221.878c.072.313.174.623.234.94a7.197 7.197 0 0 1-.079 2.338l-.31 2.161-.309 2.171-1.196 8.359-.294 2.07-.416 2.889c-.019.241-.08.476-.181.695a1.436 1.436 0 0 1-1.181.699 4.3 4.3 0 0 1-1.411-.192l-3.395-.854a1.084 1.084 0 0 1-.416-.17.818.818 0 0 1-.218-.797c.049-.287.173-.555.215-.842.083-.559-.151-1.133-.068-1.689.081-.353.208-.695.377-1.016 1.132-2.504.476-5.427.86-8.147a12.37 12.37 0 0 1 2.619-5.832 16.74 16.74 0 0 1 2.89-2.84c.423-.329 1.094-1.005 1.626-1.133.683-.144.54.714.653 1.19z" fill="#6C63FF"/><path d="M321.342 189.341c-.249.793.139 1.666-.038 2.474-.192.892-1.03 1.511-1.268 2.406-.377 1.364.778 2.606 1.623 3.739 3.131 4.208 2.72 10.032 1.649 15.165a78.422 78.422 0 0 1-3.566 12.087c-.472 1.22-.992 2.459-1.92 3.373 1.735-.499 3.58-1.001 5.32-.517 2.203.611 4.105 2.753 6.338 2.266 1.343-.299 2.287-1.492 3.494-2.153 2.264-1.22 4.992-.453 7.516-.061a2.94 2.94 0 0 0 1.641-.083c.404-.217.747-.533.996-.917a9.326 9.326 0 0 0 1.94-5.024 6.452 6.452 0 0 0-1.853-4.959c-.536-.506-1.177-.914-1.588-1.511a4.693 4.693 0 0 1-.623-2.289c-.298-4.155.713-8.396-.328-12.415-.377-1.432-.992-2.803-1.158-4.268-.208-1.825.286-3.777-.438-5.447-.57-1.326-1.826-2.266-3.181-2.75-1.354-.483-2.803-.619-4.241-.755-2.067-.174-9.451-1.061-10.315 1.639z" fill="#33313F"/><path opacity=".1" d="M323.307 213.126a78.298 78.298 0 0 1-3.546 12.037c.26-.517.479-1.061.686-1.601a77.871 77.871 0 0 0 3.566-12.087c1.075-5.137 1.487-10.954-1.645-15.165-.755-1.005-1.724-2.092-1.69-3.271a4.024 4.024 0 0 0-.642 1.186c-.377 1.364.777 2.606 1.623 3.739 3.131 4.204 2.72 10.029 1.648 15.162zm-1.958-21.692c.303-.376.529-.809.664-1.273a6.46 6.46 0 0 0-.045-1.684 1.81 1.81 0 0 0-.626.865c-.223.668.034 1.393.007 2.092zm22.488 34.025c-.25.383-.593.698-.996.914a2.89 2.89 0 0 1-1.642.083c-2.524-.378-5.282-1.156-7.516.064-1.211.657-2.15 1.851-3.497 2.153-2.23.498-4.132-1.643-6.335-2.266-1.562-.435-3.207-.076-4.781.377a6.582 6.582 0 0 1-1.248 1.806c1.735-.499 3.58-1.001 5.32-.518 2.203.612 4.105 2.754 6.338 2.267 1.343-.299 2.287-1.492 3.494-2.153 2.264-1.22 4.992-.454 7.516-.061a2.94 2.94 0 0 0 1.641-.083c.404-.217.747-.533.996-.918a10.148 10.148 0 0 0 1.562-2.991 11.03 11.03 0 0 1-.852 1.326z" fill="#000"/></g><defs><linearGradient id="b" x1="289.995" y1="259.676" x2="347.723" y2="259.676" gradientUnits="userSpaceOnUse"><stop stop-color="gray" stop-opacity=".25"/><stop offset=".54" stop-color="gray" stop-opacity=".12"/><stop offset="1" stop-color="gray" stop-opacity=".1"/></linearGradient><clipPath id="a"><path fill="#fff" d="M0 0h440v360H0z"/></clipPath></defs></svg>