<svg width="112" height="112" viewBox="0 0 112 112" fill="none" xmlns="http://www.w3.org/2000/svg"><path fill-rule="evenodd" clip-rule="evenodd" d="M56.273.02c19.34-.493 38.112 8.293 49.013 22.488 10.088 13.136 6.809 29.72 3.016 45.26-3.869 15.85-7.749 33.736-24.072 41.01-16.514 7.359-35.915.876-52.078-7.075-14.83-7.295-26.217-18.837-30.306-33.45C-2.35 53.267.612 37.522 10.665 24.92 21.517 11.313 37.505.498 56.272.019z" fill="#F0F3FE"/><g clip-path="url(#a)"><path d="M24.355 57.462c1.528-3.296 2.5-6.844 4.208-10.058 3.38-6.341 9.52-11.078 11.858-17.879 2.813 1.136 3.755 4.742 3.446 7.778-.31 3.037-1.48 5.982-1.338 9.028a42.824 42.824 0 0 1 28.375-9.861c2.485.072 5.175.479 6.922 2.241 1.218 1.24 1.78 2.974 2.299 4.636 1.333 4.248 2.68 8.722 1.804 13.085-.271 1.35-.752 2.691-.633 4.061.171 1.873 1.428 3.793.647 5.498-.295.633-.847 1.126-1.075 1.787-.42 1.221.4 2.495.57 3.774.353 2.572-1.903 4.732-4.145 6.006-6.665 3.774-14.576 4.478-21.792 7.03-23.23 8.21-32.036 3.32-32.303 2.481-1.823-5.642-5.574-12.735-5.978-18.63-.276-4.018 5.417-7.27 7.135-10.977z" fill="#FEBA7B"/><path d="M39.293 72.228c-.796 1.316 1.058 2.877 1.857 4.19.401.671.839 1.343 1.529 1.698.61.306 1.326.282 2.006.255 1.366-.06 2.779-.13 3.996-.765 1.88-.977 2.895-3.065 3.681-5.052 2.321-5.854 3.727-12.42 1.824-18.44-.547-1.731-1.502-3.51-3.174-4.178-1.621-.645-3.445-.064-5.047.627-.929.403-2.703.883-3.22 1.823-.461.833 1.983 10.863-3.452 19.842z" fill="url(#b)"/><path d="M24.5 97.3c.575-.266.458-1.542.79-2.085a3.271 3.271 0 0 0 .152-1.778 72.74 72.74 0 0 0-.911-6.248 72.667 72.667 0 0 0-8.116-22.348 3.692 3.692 0 0 0-1.344-1.557c-.76-.366-1.672-.135-2.465.115-9.279 2.783-2.43-.99-11.206 3.1C2.8 70.7 6.44 80.08 9.8 84c3.36 3.92 9.1 9.8 14.7 13.3z" fill="#2F44BE"/><path d="M73.208 21.133H46.44c-2.773 0-5.021 2.266-5.021 5.062v57.012c0 2.796 2.248 5.063 5.02 5.063h26.769c2.773 0 5.02-2.267 5.02-5.063V26.195c0-2.796-2.247-5.062-5.02-5.062z" fill="#6D83FF"/><path d="M76.239 25.498h-32.83v55.724h32.83V25.498z" fill="#fff"/><path d="M59.16 51.68c5.953 0 10.778-4.884 10.778-10.909s-4.825-10.91-10.777-10.91c-5.953 0-10.778 4.885-10.778 10.91s4.825 10.91 10.778 10.91z" fill="#E7EAFF"/><path d="M68.87 66.115H49.12a1.73 1.73 0 0 0-1.732 1.728v3.93A1.73 1.73 0 0 0 49.12 73.5h19.75a1.73 1.73 0 0 0 1.732-1.727v-3.93a1.73 1.73 0 0 0-1.732-1.728z" fill="#68E1FD"/><path d="M68.87 66.115H49.12a1.73 1.73 0 0 0-1.732 1.728v3.93A1.73 1.73 0 0 0 49.12 73.5h19.75a1.73 1.73 0 0 0 1.732-1.727v-3.93a1.73 1.73 0 0 0-1.732-1.728z" fill="#172CA8"/><path d="M50.642 70.66a4 4 0 0 0 .021.49h-.585a3.81 3.81 0 0 0 .02-.49v-1.592h-.72v-.603c.137.01.275.01.412 0h1.166c.137.01.274.01.411 0v.603a3.11 3.11 0 0 0-.411 0h-.301l-.013 1.592zm2.63.475a3.326 3.326 0 0 0-.154-.493c-.097-.281-.135-.35-.212-.42a.333.333 0 0 0-.242-.089h-.318v.524c-.005.165.003.33.024.493h-.671c.023-.163.033-.328.029-.493v-1.723a3.344 3.344 0 0 0-.029-.47h1.293c.483 0 .797.267.797.727a.712.712 0 0 1-.184.523.781.781 0 0 1-.294.158c.16.05.232.123.328.35.048.099.092.208.232.553.033.089.072.168.15.336l-.749.024zm-.444-1.545a.27.27 0 0 0 .216-.078.282.282 0 0 0 .084-.218c0-.177-.102-.271-.295-.271h-.483v.567h.478zm3.12 1.56a2.784 2.784 0 0 0-.072-.345l-.087-.276h-.884l-.082.276a1.876 1.876 0 0 0-.077.345h-.726c.06-.126.11-.256.15-.39l.668-1.95c.044-.11.078-.227.1-.345h.808c.029.117.064.233.106.346l.673 1.948c.057.17.11.301.148.391h-.725zm-.606-2.134l-.288.967h.586l-.298-.967zm3.138.752c.08.122.153.248.218.379v-1.19a3.329 3.329 0 0 0-.028-.492h.656a3.47 3.47 0 0 0-.023.492v1.682c-.002.164.006.328.023.492h-.675a3.318 3.318 0 0 0-.229-.404l-.566-.885a3.717 3.717 0 0 1-.223-.388c.018.163.026.327.024.491v.714a3.48 3.48 0 0 0 0 .491h-.652a3.282 3.282 0 0 0 0-.492v-1.667a3.51 3.51 0 0 0 0-.492h.666c.056.14.128.272.214.394l.595.875zm1.569.486a.382.382 0 0 0 .084.23c.05.05.111.09.18.115a.534.534 0 0 0 .218.032c.257 0 .414-.105.414-.281a.214.214 0 0 0-.036-.127.244.244 0 0 0-.106-.088 3.18 3.18 0 0 0-.524-.124 1.498 1.498 0 0 1-.523-.177.729.729 0 0 1-.243-.259.655.655 0 0 1-.082-.333c0-.477.419-.773 1.084-.773.176-.015.352.01.516.07.163.06.307.156.422.278.087.11.144.239.167.373l-.712.071c-.042-.2-.163-.286-.42-.286-.256 0-.36.105-.36.244a.2.2 0 0 0 .046.121c.03.035.07.061.116.074.15.052.307.087.466.105.184.03.361.087.524.172a.725.725 0 0 1 .279.269.642.642 0 0 1 .087.361.724.724 0 0 1-.055.306.78.78 0 0 1-.18.262c-.25.188-.568.28-.89.258a1.74 1.74 0 0 1-.755-.148.736.736 0 0 1-.361-.396.989.989 0 0 1-.079-.287l.723-.062zm2.493.339c-.005.186.002.373.02.557h-.583a3.44 3.44 0 0 0 .025-.547v-1.67c.01-.156.01-.313 0-.468h1.18c.15.013.303.013.453 0v.611a3.229 3.229 0 0 0-.453-.024h-.621v.527h.508c.14.012.28.012.42 0v.597a3.072 3.072 0 0 0-.42-.025h-.508l-.021.442zm3.402.557a3.321 3.321 0 0 0-.522 0h-1.453a2.888 2.888 0 0 0 0-.463v-1.759a3.255 3.255 0 0 0 0-.463h1.482c.165.01.329.01.493 0v.596a4.089 4.089 0 0 0-.493 0h-.827v.468h1.177v.587a4.051 4.051 0 0 0-.492-.025h-.685v.537h.818c.172.01.345.01.517 0l-.015.522zm1.923-.015a3.76 3.76 0 0 0-.15-.493c-.102-.281-.14-.35-.218-.42a.333.333 0 0 0-.242-.089h-.319v.524c-.004.165.004.33.025.493h-.673c.024-.163.033-.328.03-.493v-1.723a3.329 3.329 0 0 0-.03-.47h1.292c.507 0 .797.267.797.727a.71.71 0 0 1-.183.523.75.75 0 0 1-.295.158c.16.05.232.123.329.35.048.099.091.208.232.553.034.089.072.168.15.336l-.745.024zm-.44-1.545a.266.266 0 0 0 .215-.078.276.276 0 0 0 .08-.218c0-.177-.102-.271-.295-.271h-.484v.567h.484z" fill="#fff"/><path d="M62.878 60.36c.259.406.687.705.833 1.165.261.836-.531 1.611-.73 2.467-.308 1.343.862 2.608.743 3.965-.086 1.03-.905 1.984-.663 2.984-.995-1.47-3.499-.843-4.381.705-.882 1.547-.63 3.47-.332 5.23.332 1.84.925 3.964 2.653 4.612 1.303.484 2.733-.09 4.003-.654a149.314 149.314 0 0 1-1.698-6.953 8.976 8.976 0 0 1 4.41 1.091c.551-1.748.558-3.618.561-5.451l.017-12.578V50.45c0-1.296.792-1.39-.15-2.199-1.22 2.038-4.957.963-5.146 3.38-.13 1.628.994 2.82.593 4.522-.275 1.326-1.582 2.826-.713 4.206z" fill="url(#c)"/><path d="M43.607 37.996c.634-1.796.577-3.78.15-5.636-.282-1.232-.75-2.467-1.639-3.357a1.252 1.252 0 0 0-.829-.446c-.607 0-.962.671-1.167 1.248a117.443 117.443 0 0 0-2.348 7.342 11.764 11.764 0 0 0-.61 3.538c.06 2.061 1.18 3.662 3.011 2.037 1.423-1.268 2.782-2.89 3.432-4.726zm29.848 1.359c-1.55.557-2.89 2.007-2.826 3.654.052 1.345 1.02 2.526 2.186 3.203a12.267 12.267 0 0 0 3.852 1.205 7.432 7.432 0 0 0-3.227 1.326 7.406 7.406 0 0 0-2.263 2.65c-.756 1.513-.876 3.53.304 4.75.43.418.941.745 1.502.96.96.4 1.98.633 3.02.686-2.326-.11-4.609 1.815-4.73 4.13-.12 2.314 2.134 4.508 4.44 4.191-1.752-.283-3.539 1.052-3.977 2.766a4.722 4.722 0 0 0 1.758 4.706 6.616 6.616 0 0 0 5.036 1.162c.882-.135 1.81-.48 2.283-1.225.472-.744.356-1.704.255-2.578-1.136-9.781 2.764-19.572.318-29.214-.323-1.258-2.519-2.256-3.756-2.612a7.494 7.494 0 0 0-4.175.24z" fill="#FEBA7B"/><path d="M55.678 57.804h5.434l-.999-1.423h1.238l1.955 2.35h-7.51l-.117-.927zm7.628 2.656h-5.429l.999 1.628h-1.238l-1.96-2.686h7.51l.118 1.059z" fill="#5860FF"/><path d="M58.932 47.615v-1.68a4.918 4.918 0 0 1-2.59-.738l.407-1.118a4.566 4.566 0 0 0 2.425.72c1.203 0 2.018-.692 2.018-1.642s-.66-1.492-1.94-1.996c-1.727-.672-2.794-1.44-2.794-2.88s1-2.447 2.556-2.696V33.89h1.053v1.626c.772.007 1.53.209 2.202.586l-.427 1.108a4.103 4.103 0 0 0-2.13-.57c-1.304 0-1.794.772-1.794 1.439 0 .873.626 1.305 2.096 1.92 1.746.705 2.629 1.574 2.629 3.066 0 1.325-.932 2.563-2.678 2.846v1.742l-1.033-.039z" fill="#5169F0"/></g><defs><linearGradient id="b" x1="3591.58" y1="7062.34" x2="5476.72" y2="6496.22" gradientUnits="userSpaceOnUse"><stop stop-color="#010101" stop-opacity="0"/><stop offset=".95" stop-color="#010101"/></linearGradient><linearGradient id="c" x1="3016.94" y1="7333.28" x2="4597.36" y2="7442.08" gradientUnits="userSpaceOnUse"><stop stop-color="#010101" stop-opacity="0"/><stop offset=".95" stop-color="#010101"/></linearGradient><clipPath id="a"><path fill="#fff" d="M1.4 21H91v77H1.4z"/></clipPath></defs></svg>