<svg width="112" height="112" viewBox="0 0 112 112" fill="none" xmlns="http://www.w3.org/2000/svg"><path fill-rule="evenodd" clip-rule="evenodd" d="M58.14.388c15.901 1.2 30.45 8.316 40.535 20.774C108.922 33.82 114.023 49.898 111.254 66c-2.967 17.253-11.848 33.855-27.436 41.558-15.694 7.756-34.137 4.556-49.716-3.432C18.977 96.371 8.033 82.841 3.462 66.36c-4.897-17.653-5.903-37.884 5.754-51.948C20.657.608 40.353-.954 58.14.388z" fill="#F0F3FE"/><g clip-path="url(#a)"><path d="M23.556 73.682s-8.218-7.5-.075-16.234l24.207-13.67a12.23 12.23 0 0 1 6.052 1.412c2.89 1.609 37.157 28.696 39.844 31.413 2.687 2.716 3.187 8.258 3.187 8.258s.201 1.825-.497 2.616c-.698.79-23.906 13.594-24.803 13.384-.897-.21-3.984-1.411-3.984-1.411l-43.93-25.768z" fill="#5860FF"/><path d="M53.683 25.08a1.377 1.377 0 0 1 .654-1.129 1.341 1.341 0 0 1 1.293-.055l24.22 11.879s1.606 1.019 1.552 2.886c-.054 1.868 0 16.748 0 16.748s.193 1.686-2.45.125l-24.402-14.4s-.954-.398-1.096-2.868c-.11-1.914.109-9.47.23-13.187z" fill="#68E1FD"/><path d="M53.683 25.08a1.377 1.377 0 0 1 .654-1.129 1.341 1.341 0 0 1 1.293-.055l24.22 11.879s1.606 1.019 1.552 2.886c-.054 1.868 0 16.748 0 16.748s.193 1.686-2.45.125l-24.402-14.4s-.954-.398-1.096-2.868c-.11-1.914.109-9.47.23-13.187z" fill="#172CA8"/><path d="M53.307 25.822a1.379 1.379 0 0 1 .655-1.126 1.344 1.344 0 0 1 1.292-.058L79.476 36.53s1.607 1.019 1.55 2.89c-.057 1.87 0 16.745 0 16.745s.196 1.685-2.447.125c-2.642-1.56-24.402-14.397-24.402-14.397s-.954-.399-1.099-2.872c-.111-1.91.111-9.466.229-13.198z" fill="#5860FF"/><path d="M52.991 34.113l27.791 15.103.617 6.193-28.32-16.386-.088-4.91z" fill="url(#b)"/><path d="M52.991 34.113l27.791 15.103.617 6.193-28.32-16.386-.088-4.91z" fill="url(#c)"/><path d="M128.237 69.743c-1.135 2.05-2.549 3.954-3.913 5.87-2.356-.73-5.149-1.192-6.75-3.09-11.841-14.044-17.986-13.84-28.588-18.473-7.473-3.273-16.022-5.43-22.528-10.397-1.063-.803-2.146-2.072-1.668-3.316.479-1.244 2.029-1.448 3.31-1.436 3.483.027 6.95.476 10.326 1.339a2.32 2.32 0 0 0 1.243.097c.731-.213 1.071-1.095 1.04-1.864-.116-2.407-2.106-3.38-4.278-4.356-3.163-1.433-6.654-3.295-9.823-4.721 3.15.182 6.07-1.567 9.179-2.148a26.204 26.204 0 0 1 3.743-.343c3.152-.118 6.308-.233 9.468-.344 1.062-.043 2.154-.085 3.174.225 1.204.377 2.218 1.192 3.163 2.038 4.815 4.259 8.691 9.484 13.001 14.27 4.309 4.784 18.161 11.436 19.476 12.112 2.26 4.83 3.497 9.004.425 14.537z" fill="#FEBA7B"/><path d="M22.287 41.809c-4.214-5.636-12.285-7.386-16.119-13.287 6.636-3.89 14.238-5.69 21.713-7.44 2.05 2.865 5.026 4.867 7.8 7.03 2.775 2.162 5.498 4.66 6.672 7.99.728 2.069.803 4.308.87 6.5l.096 3.213c.053.258.012.527-.115.757-.127.23-.332.407-.577.496a57.435 57.435 0 0 1-5.869 3.155c-1.146.508-2.326.94-3.454 1.49-1.908.928-3.612 2.184-5.294 3.477-2.212 1.703-1.905-.946-2.106-2.683-.47-3.763-1.318-7.626-3.617-10.698z" fill="#CDD5FE"/><path d="M23.481 57.448S47.09 43.93 47.688 43.778c.6-.152 4.707.377 7.62 2.871 2.913 2.495 18.751 15.103 18.751 15.103s.373 1.436-.228 2.263c-.602.828-19.426 11.629-21.367 11.1-1.94-.53-20.689-20.387-28.983-17.667z" fill="#5770FF"/><path d="M23.481 57.448S47.09 43.93 47.688 43.778c.6-.152 4.707.377 7.62 2.871 2.913 2.495 18.751 15.103 18.751 15.103s.373 1.436-.228 2.263c-.602.828-19.426 11.629-21.367 11.1-1.94-.53-20.689-20.387-28.983-17.667z" fill="url(#d)"/><path opacity=".5" d="M23.406 59.032s.75-2.868 8.52 3.021c7.77 5.889 41.685 33.53 41.685 33.53l-.903 4.681s-48.414-24.015-49.16-26.582c-.747-2.567-6.567-8.45-.142-14.65z" fill="url(#e)"/><path d="M74.806 94.98l20.77-12.082.699 4.581L74.06 98.908l.746-3.927z" fill="url(#f)"/><path d="M74.806 94.98l20.77-12.082.699 4.581L74.06 98.908l.746-3.927z" fill="url(#g)"/><path d="M66.178 78.05l-4.352 2.543-4.056-3.23 4.502-2.437 3.906 3.124z" fill="url(#h)"/><path d="M70.857 75.311l-4.68 2.738-3.905-3.124 4.839-2.607 3.746 2.993z" fill="url(#i)"/><path d="M75.095 72.835l-4.237 2.476-3.747-2.994 4.372-2.36h.013l3.599 2.878z" fill="url(#j)"/><path d="M79.476 70.272l-4.382 2.565-3.599-2.878 4.457-2.412 3.524 2.725z" fill="url(#k)"/><path d="M83.87 73.66l-4.478 2.62-4.297-3.444 4.381-2.564 4.394 3.388z" fill="url(#l)"/><path d="M87.978 76.848l-4.553 2.659-4.033-3.228 4.478-2.619 4.108 3.188z" fill="url(#m)"/><path d="M91.841 79.829l-4.607 2.725-3.81-3.048 4.553-2.658 3.864 2.98z" fill="url(#n)"/><path d="M87.234 82.554l-4.213 2.488-3.822-3.057 4.225-2.48 3.81 3.049z" fill="url(#o)"/><path d="M83.021 85.041l-4.658 2.76-3.843-3.079 4.68-2.738 3.821 3.057z" fill="url(#p)"/><path d="M78.363 87.801l-4.3 2.543-3.874-3.09 4.33-2.531 3.844 3.078z" fill="url(#q)"/><path d="M74.52 84.723l-4.33 2.53-4.045-3.218 4.343-2.543 4.032 3.23z" fill="url(#r)"/><path d="M70.487 81.492l-4.342 2.543-4.319-3.443 4.352-2.543 4.31 3.443z" fill="url(#s)"/><path d="M79.392 76.28l-4.234 2.478-4.3-3.446 4.237-2.476 4.297 3.443z" fill="url(#t)"/><path d="M75.158 78.759l-4.67 2.734-4.31-3.443 4.68-2.737 4.3 3.446z" fill="url(#u)"/><path d="M83.424 79.507L79.2 81.986l-4.041-3.228 4.234-2.479 4.032 3.228z" fill="url(#v)"/><path d="M79.2 81.985l-4.68 2.738-4.033-3.23 4.67-2.735 4.042 3.227z" fill="url(#w)"/></g><defs><linearGradient id="b" x1="7985.42" y1="3651.63" x2="7541.01" y2="5326.46" gradientUnits="userSpaceOnUse"><stop stop-color="#010101" stop-opacity="0"/><stop offset=".95" stop-color="#010101"/></linearGradient><linearGradient id="c" x1="131.038" y1="74.536" x2="40.5" y2="39.861" gradientUnits="userSpaceOnUse"><stop stop-color="#010101"/><stop offset="1" stop-color="#010101" stop-opacity="0"/></linearGradient><linearGradient id="d" x1="74.312" y1="62.522" x2="25.839" y2="55.373" gradientUnits="userSpaceOnUse"><stop stop-color="#fff" stop-opacity=".46"/><stop offset="1" stop-color="#fff" stop-opacity="0"/></linearGradient><linearGradient id="e" x1="34.89" y1="102.217" x2="51.732" y2="67.529" gradientUnits="userSpaceOnUse"><stop/><stop offset="1" stop-opacity="0"/></linearGradient><linearGradient id="f" x1="7992.37" y1="4723.3" x2="6379.66" y2="9826.42" gradientUnits="userSpaceOnUse"><stop stop-color="#010101" stop-opacity="0"/><stop offset=".95" stop-color="#010101"/></linearGradient><linearGradient id="g" x1="74.011" y1="96.285" x2="96.376" y2="85.223" gradientUnits="userSpaceOnUse"><stop stop-opacity=".21"/><stop offset="1" stop-opacity="0"/></linearGradient><linearGradient id="h" x1="57.773" y1="77.761" x2="66.178" y2="77.761" gradientUnits="userSpaceOnUse"><stop stop-color="#fff" stop-opacity="0"/><stop offset=".66" stop-color="#fff" stop-opacity=".54"/></linearGradient><linearGradient id="i" x1="62.275" y1="75.185" x2="70.857" y2="75.185" gradientUnits="userSpaceOnUse"><stop stop-color="#fff" stop-opacity="0"/><stop offset=".66" stop-color="#fff" stop-opacity=".54"/></linearGradient><linearGradient id="j" x1="67.114" y1="72.635" x2="75.095" y2="72.635" gradientUnits="userSpaceOnUse"><stop stop-color="#fff" stop-opacity="0"/><stop offset=".66" stop-color="#fff" stop-opacity=".54"/></linearGradient><linearGradient id="k" x1="71.498" y1="70.193" x2="79.476" y2="70.193" gradientUnits="userSpaceOnUse"><stop stop-color="#fff" stop-opacity="0"/><stop offset=".66" stop-color="#fff" stop-opacity=".54"/></linearGradient><linearGradient id="l" x1="75.098" y1="73.277" x2="83.87" y2="73.277" gradientUnits="userSpaceOnUse"><stop stop-color="#fff" stop-opacity="0"/><stop offset=".66" stop-color="#fff" stop-opacity=".54"/></linearGradient><linearGradient id="m" x1="79.395" y1="76.585" x2="87.978" y2="76.585" gradientUnits="userSpaceOnUse"><stop stop-color="#fff" stop-opacity="0"/><stop offset=".66" stop-color="#fff" stop-opacity=".54"/></linearGradient><linearGradient id="n" x1="83.427" y1="79.702" x2="91.841" y2="79.702" gradientUnits="userSpaceOnUse"><stop stop-color="#fff" stop-opacity="0"/><stop offset=".66" stop-color="#fff" stop-opacity=".54"/></linearGradient><linearGradient id="o" x1="79.202" y1="82.275" x2="87.234" y2="82.275" gradientUnits="userSpaceOnUse"><stop stop-color="#fff" stop-opacity="0"/><stop offset=".66" stop-color="#fff" stop-opacity=".54"/></linearGradient><linearGradient id="p" x1="74.523" y1="84.894" x2="83.021" y2="84.894" gradientUnits="userSpaceOnUse"><stop stop-color="#fff" stop-opacity="0"/><stop offset=".66" stop-color="#fff" stop-opacity=".54"/></linearGradient><linearGradient id="q" x1="70.192" y1="87.535" x2="78.363" y2="87.535" gradientUnits="userSpaceOnUse"><stop stop-color="#fff" stop-opacity="0"/><stop offset=".66" stop-color="#fff" stop-opacity=".54"/></linearGradient><linearGradient id="r" x1="66.148" y1="84.374" x2="74.52" y2="84.374" gradientUnits="userSpaceOnUse"><stop stop-color="#fff" stop-opacity="0"/><stop offset=".66" stop-color="#fff" stop-opacity=".54"/></linearGradient><linearGradient id="s" x1="61.83" y1="81.044" x2="70.487" y2="81.044" gradientUnits="userSpaceOnUse"><stop stop-color="#fff" stop-opacity="0"/><stop offset=".66" stop-color="#fff" stop-opacity=".54"/></linearGradient><linearGradient id="t" x1="70.861" y1="75.799" x2="79.392" y2="75.799" gradientUnits="userSpaceOnUse"><stop stop-color="#fff" stop-opacity="0"/><stop offset=".66" stop-color="#fff" stop-opacity=".54"/></linearGradient><linearGradient id="u" x1="66.181" y1="78.405" x2="75.158" y2="78.405" gradientUnits="userSpaceOnUse"><stop stop-color="#fff" stop-opacity="0"/><stop offset=".66" stop-color="#fff" stop-opacity=".54"/></linearGradient><linearGradient id="v" x1="75.161" y1="79.134" x2="83.424" y2="79.134" gradientUnits="userSpaceOnUse"><stop stop-color="#fff" stop-opacity="0"/><stop offset=".66" stop-color="#fff" stop-opacity=".54"/></linearGradient><linearGradient id="w" x1="70.49" y1="81.742" x2="79.199" y2="81.742" gradientUnits="userSpaceOnUse"><stop stop-color="#fff" stop-opacity="0"/><stop offset=".66" stop-color="#fff" stop-opacity=".54"/></linearGradient><clipPath id="a"><path fill="#fff" d="M6 21h105v80H6z"/></clipPath></defs></svg>