<svg width="112" height="112" viewBox="0 0 112 112" fill="none" xmlns="http://www.w3.org/2000/svg"><path fill-rule="evenodd" clip-rule="evenodd" d="M58.944.278C75.821.165 95.307-2.643 105.888 12.4c10.608 15.081 5.164 36.62.405 55.197-4.292 16.756-11.169 33.352-24.987 40.762-13.672 7.332-28.994 2.405-42.887-4.364C23.376 96.666 7.547 87.769 2.511 69.97-2.975 50.577.576 27.978 12.684 13.025 24.025-.981 42.257.389 58.944.278z" fill="#F0F3FE"/><g clip-path="url(#a)"><path d="M80.563 75.85H31.437a4.74 4.74 0 0 1-4.74-4.742V30.202a4.74 4.74 0 0 1 4.74-4.741h49.126a4.74 4.74 0 0 1 4.741 4.74v40.907a4.74 4.74 0 0 1-4.74 4.741z" fill="#6D83FF"/><path d="M79.468 74.725H32.532a4.53 4.53 0 0 1-4.53-4.53V31.114a4.53 4.53 0 0 1 4.53-4.53h46.935a4.53 4.53 0 0 1 4.53 4.53v39.082a4.53 4.53 0 0 1-4.53 4.529z" fill="#3D48FF"/><path d="M82.127 38.693L70.311 18.227a2.85 2.85 0 0 0-3.894-1.044l-37.256 21.51h52.966z" fill="#E46D48"/><path d="M26.696 55.164h58.608V39.641a3.547 3.547 0 0 0-3.547-3.547H30.244a3.547 3.547 0 0 0-3.548 3.547v15.523z" fill="#FEBA7B"/><path d="M26.696 49.327v21.781a4.74 4.74 0 0 0 4.741 4.741h49.126a4.74 4.74 0 0 0 4.741-4.74V49.326a2.928 2.928 0 0 0-2.928-2.929H29.624a2.928 2.928 0 0 0-2.928 2.929z" fill="#4A53FF"/><path d="M72.465 81.166l-41.142-4.778a5.23 5.23 0 0 1-4.627-5.195V29.85a1.75 1.75 0 0 0 1.548 1.738l45.427 5.276a5.23 5.23 0 0 1 4.627 5.195v33.912a5.23 5.23 0 0 1-5.833 5.195z" fill="#6D83FF"/><path d="M67.266 23.852l-6.061 3.298a1.628 1.628 0 0 1-1.556-2.859l6.061-3.298a1.628 1.628 0 0 1 1.556 2.86z" fill="#fff"/></g><defs><clipPath id="a"><path fill="#fff" d="M23.8 16.801h64.4v64.4H23.8z"/></clipPath></defs></svg>