<svg width="28" height="28" viewBox="0 0 28 28" fill="none" xmlns="http://www.w3.org/2000/svg"><path d="M25.666 14.448c.001-.812-.07-1.623-.215-2.423H14.295v4.582h6.375a5.449 5.449 0 0 1-2.364 3.575v2.972h3.828c2.24-2.062 3.532-5.098 3.532-8.706z" fill="#4285F4"/><path d="M14.295 26.022c3.198 0 5.88-1.06 7.84-2.87l-3.829-2.972c-1.06.711-2.417 1.131-4.01 1.131-3.086 0-5.697-2.084-6.629-4.883H3.71v3.069a11.84 11.84 0 0 0 10.585 6.525z" fill="#34A853"/><path d="M7.667 16.43a7.003 7.003 0 0 1 0-4.502V8.86H3.71a11.86 11.86 0 0 0 0 10.64l3.957-3.07z" fill="#FBBC05"/><path d="M14.295 7.045c1.74 0 3.3.598 4.528 1.772l3.398-3.398c-2.052-1.911-4.733-3.085-7.926-3.085A11.84 11.84 0 0 0 3.71 8.86l3.957 3.069c.932-2.8 3.543-4.884 6.628-4.884z" fill="#EA4335"/></svg>