<svg width="468" height="400" viewBox="0 0 468 400" fill="none" xmlns="http://www.w3.org/2000/svg"><path fill-rule="evenodd" clip-rule="evenodd" d="M227.093 9.862c58.56.58 120.106 3.824 160.517 48.146 44.477 48.783 68.607 119.466 51.568 184.468-16.399 62.558-75.501 96.515-132.15 122.947-53.95 25.171-113.946 42.627-167.672 16.941-54.841-26.219-86.767-84.189-101.096-145.437-14.658-62.653-16.016-133.461 24.461-182.133C101.818 7.78 167.514 9.273 227.093 9.862z" fill="url(#a)"/><path d="M234.41 359.434c127.805 0 231.411-8.827 231.411-19.715s-103.606-19.715-231.411-19.715C106.606 320.004 3 328.831 3 339.719s103.606 19.715 231.41 19.715z" fill="#DFE5FF"/><path d="M298.308 329.349h-32.451a4.14 4.14 0 0 1-4.129-4.126V286.55a4.14 4.14 0 0 1 4.129-4.126h32.451a4.14 4.14 0 0 1 4.13 4.126v38.673a4.14 4.14 0 0 1-4.13 4.126z" fill="#70A0FF"/><path d="M325.382 329.35h-86.598c-2.91 0-5.292-2.38-5.292-5.287s2.382-5.288 5.292-5.288h86.601c2.91 0 5.292 2.381 5.292 5.288 0 2.907-2.382 5.287-5.295 5.287zm107.97-32.745H130.814c-6.254 0-11.37-5.111-11.37-11.359v-183.65c0-6.248 5.116-11.36 11.37-11.36h302.538c6.253 0 11.369 5.112 11.369 11.36v183.65c.004 6.248-5.116 11.359-11.369 11.359z" fill="#5C93FF"/><path d="M134.983 95.041c-5.629 0-10.232 4.599-10.232 10.223v66.034c32.21-25.837 64.884-51.208 97.884-76.257h-87.652z" fill="#E3EDFF"/><path d="M427.938 95.041H222.632c-33 25.049-65.674 50.42-97.885 76.257v94.288c0 5.624 4.607 10.223 10.232 10.223h292.955c5.63 0 10.233-4.602 10.233-10.223V105.264c.003-5.624-4.603-10.223-10.229-10.223z" fill="#D3E2FF"/><path d="M281.46 287.698a2.826 2.826 0 0 0 0-5.649 2.825 2.825 0 1 0 0 5.649z" fill="#5A54FF"/><path d="M80.291 257.336a.67.67 0 0 1-.67-.671v-2.014a.67.67 0 1 1 1.341 0v2.014a.67.67 0 0 1-.67.671z" fill="#4B369D"/><path fill-rule="evenodd" clip-rule="evenodd" d="M100.243 159.951c0 .369.301.667.671.667h.003l.004-.004c1.406-.014 2.777-.018 4.094-.018a.67.67 0 1 0 0-1.34c-1.321 0-2.695.007-4.105.018a.672.672 0 0 0-.667.677zm12.962.7h-.011a581.022 581.022 0 0 0-4.093-.04.669.669 0 0 1-.667-.674c.003-.369.351-.634.674-.666 1.493.01 2.874.021 4.104.039.37.004.668.308.664.681a.667.667 0 0 1-.671.66zm-21.157-.56a.671.671 0 0 0 .671.656c.007 0 .011 0 .022-.004 1.374-.035 2.74-.064 4.09-.086a.667.667 0 0 0 .66-.681c-.004-.369-.248-.649-.682-.659l-.099.002a506.01 506.01 0 0 0-4.005.084.673.673 0 0 0-.657.688zm-7.157 2.623a.67.67 0 0 1-.366-1.236c1.144-.739 2.486-1.287 3.982-1.628a.67.67 0 0 1 .804.506.67.67 0 0 1-.506.803c-1.346.304-2.54.792-3.552 1.448a.673.673 0 0 1-.362.107zm-4.51 6.651a.685.685 0 0 0 .8-.512c.283-1.337.76-2.535 1.417-3.563a.672.672 0 1 0-1.134-.724c-.742 1.161-1.28 2.509-1.6 4.003a.67.67 0 0 0 .517.796zm-.09 8.18a.67.67 0 0 1-.67-.67v-3.391a6.262 6.262 0 0 1-.065-.656.673.673 0 0 1 .628-.714.678.678 0 0 1 .713.628c.02.297.044.499.053.582a.889.889 0 0 1 .005.041l.007 3.51a.67.67 0 0 1-.67.67zm-.67 7.515a.67.67 0 1 0 1.342-.004v-4.094a.672.672 0 0 0-1.343 0v4.098zm.67 8.858a.67.67 0 0 1-.67-.67v-4.094a.672.672 0 0 1 1.342 0v4.094a.67.67 0 0 1-.672.67zm-.67 7.517a.67.67 0 1 0 1.342 0v-4.094a.672.672 0 0 0-1.343 0v4.094zm.67 8.858a.67.67 0 0 1-.67-.671v-4.093a.672.672 0 0 1 1.342 0v4.093a.67.67 0 0 1-.672.671zm-.67 7.517a.67.67 0 1 0 1.342 0v-4.094a.672.672 0 0 0-1.343 0v4.094zm.67 8.855a.67.67 0 0 1-.67-.67v-4.098a.67.67 0 1 1 1.341 0v4.094a.67.67 0 0 1-.67.674zm-.67 7.518a.67.67 0 1 0 1.342 0v-4.094a.672.672 0 0 0-1.343 0v4.094zm.67 8.859a.67.67 0 0 1-.67-.67v-4.093a.67.67 0 1 1 1.341 0v4.093a.67.67 0 0 1-.67.67zm0 8.186a.67.67 0 0 1-.67-.671v-4.093a.672.672 0 0 1 1.342 0v4.093a.67.67 0 0 1-.672.671z" fill="#4B369D"/><path d="M119.344 160.766h-.018s-.725-.018-2.009-.047a.674.674 0 0 1-.66-.684c.007-.37.351-.631.685-.66 1.288.025 2.016.047 2.016.047.37.01.664.319.653.688a.668.668 0 0 1-.667.656zm166.189 170.601a.669.669 0 0 1-.671-.656c-.029-1.272-.051-2.004-.051-2.004a.672.672 0 0 1 .653-.691c.345.003.682.279.693.652 0 0 .021.735.05 2.018a.672.672 0 0 1-.656.685c-.008-.004-.015-.004-.018-.004z" fill="#4B369D"/><path fill-rule="evenodd" clip-rule="evenodd" d="M284.959 338.672c0 .373.301.67.671.67a.676.676 0 0 0 .674-.677 593.592 593.592 0 0 0-.032-3.997c-.007-.369-.362-.685-.682-.663a.678.678 0 0 0-.664.681c.015 1.201.029 2.541.033 3.986zm.62 8.65h-.011a.672.672 0 0 1-.66-.681c.022-1.358.036-2.695.043-3.982a.672.672 0 0 1 .671-.667h.004a.67.67 0 0 1 .667.674 374.353 374.353 0 0 1-.043 3.997.667.667 0 0 1-.671.659zm-.904 7.877c.068.025.14.036.212.036a.68.68 0 0 0 .639-.463c.376-1.125.588-2.398.631-3.785l.011-.33a.673.673 0 0 0-.653-.692c-.345-.007-.682.284-.693.653l-.01.33c-.036 1.254-.226 2.398-.56 3.401a.67.67 0 0 0 .423.85zm-151.615 2.113a.668.668 0 0 1-.621-.416 4.598 4.598 0 0 1-.297-1.111l-.008-3.097a.672.672 0 0 1 1.342 0v3.004c.033.183.101.445.201.692a.672.672 0 0 1-.366.875.621.621 0 0 1-.251.053zm145.753 2.903a.677.677 0 0 0 .857.409c1.432-.505 2.655-1.251 3.631-2.215a.672.672 0 0 0-.947-.954c-.836.825-1.887 1.463-3.132 1.904a.668.668 0 0 0-.409.856zm-139.065.839c-.033 0-.063-.003-.095-.006l-.009-.001c-1.561-.244-2.91-.631-4.015-1.144a.672.672 0 0 1 .567-1.218c.99.458 2.221.806 3.656 1.032a.674.674 0 1 1-.104 1.337zm3.989.269h3.993a.669.669 0 1 0 0-1.34h-3.993a.67.67 0 1 0 0 1.34zm11.983 0h-3.993a.67.67 0 1 1 0-1.34h3.993a.669.669 0 1 1 0 1.34zm3.994 0h3.993a.67.67 0 1 0 0-1.34h-3.993a.669.669 0 1 0 0 1.34zm11.979 0H167.7a.67.67 0 1 1 0-1.34h3.993a.67.67 0 1 1 0 1.34zm3.993 0h3.993a.67.67 0 1 0 0-1.34h-3.993a.67.67 0 1 0 0 1.34zm11.983 0h-3.993a.67.67 0 1 1 0-1.34h3.993a.669.669 0 1 1 0 1.34zm3.994 0h3.993a.67.67 0 1 0 0-1.34h-3.993a.669.669 0 1 0 0 1.34zm11.979 0h-3.993a.67.67 0 1 1 0-1.34h3.993a.67.67 0 1 1 0 1.34zm3.997 0h3.993a.67.67 0 1 0 0-1.34h-3.993a.669.669 0 1 0 0 1.34zm11.979 0h-3.993a.67.67 0 1 1 0-1.34h3.993a.67.67 0 1 1 0 1.34zm3.993 0h3.994a.67.67 0 1 0 0-1.34h-3.994a.669.669 0 1 0 0 1.34zm11.984 0h-3.993a.669.669 0 1 1 0-1.34h3.993a.67.67 0 1 1 0 1.34zm3.993 0h3.993a.67.67 0 1 0 0-1.34h-3.993a.669.669 0 1 0 0 1.34zm11.979 0h-3.993a.67.67 0 1 1 0-1.34h3.993a.67.67 0 1 1 0 1.34zm3.993 0h3.994a.67.67 0 1 0 0-1.34h-3.994a.669.669 0 1 0 0 1.34zm11.984 0h-3.994a.669.669 0 1 1 0-1.34h3.994a.67.67 0 1 1 0 1.34zm7.311.078c-.801 0-1.359-.061-1.516-.078l-.044-.005-1.755.008a.67.67 0 1 1 0-1.341h1.848l.091.008c.264.026 1.006.1 2.026.056a.676.676 0 0 1 .699.642.67.67 0 0 1-.642.699c-.255.007-.491.011-.707.011z" fill="#4B369D"/><path d="M132.809 349.341a.67.67 0 0 1-.671-.67v-2.014a.67.67 0 1 1 1.342 0v2.014a.668.668 0 0 1-.671.67z" fill="#4B369D"/><path d="M198.709 175.93h-77.46c-8.808 0-16.016-7.201-16.016-16.001s7.208-16.001 16.016-16.001h77.46c8.808 0 16.015 7.201 16.015 16.001.004 8.8-7.204 16.001-16.015 16.001z" fill="#4A53FF"/><path d="M196.639 152.867c.323-.032.649-.046.972-.039 4.291.09 7.714 3.649 7.624 7.94-.09 4.287-3.652 7.703-7.947 7.617l.039-1.864c3.265.068 5.974-2.531 6.042-5.789.068-3.262-2.533-5.968-5.794-6.036a5.627 5.627 0 0 0-.743.032l-.193-1.861z" fill="#fff"/><path d="M194.773 167.399l2.964 1.792.071-3.459-3.035 1.667zm-1.144.849c-.323.032-.65.046-.973.039-4.291-.09-7.713-3.649-7.624-7.94.09-4.287 3.653-7.703 7.947-7.617l-.039 1.864c-3.265-.068-5.974 2.531-6.042 5.789-.068 3.262 2.533 5.968 5.794 6.036.244.004.495-.003.743-.032l.194 1.861z" fill="#fff"/><path d="M195.494 153.716l-2.96-1.788-.071 3.455 3.031-1.667z" fill="#fff"/><path d="M176.547 239.61v93.818c0 7.273-5.956 13.224-13.235 13.224h-60.314c-7.28 0-13.235-5.951-13.235-13.224V239.61c0-7.273 5.955-13.223 13.235-13.223h60.314c7.279-.004 13.235 5.95 13.235 13.223z" fill="#5C93FF"/><path d="M94.707 333.137c0 1.114.211 2.179.577 3.172 1.3 3.509 4.668 6.033 8.604 6.033h58.516c5.048 0 9.181-4.144 9.181-9.205v-92.722a9.207 9.207 0 0 0-3.283-7.036c-23.553 22.579-48.574 43.688-73.595 64.801v34.957z" fill="#E3EBFC"/><path d="M152.053 231.211h-48.169c-5.048 0-9.181 4.144-9.181 9.205v57.765c25.021-21.11 50.042-42.222 73.596-64.801a9.11 9.11 0 0 0-5.899-2.169h-10.347z" fill="#EFF0FC"/><path d="M133.153 345.65a1.69 1.69 0 1 0 .001-3.379 1.69 1.69 0 0 0-.001 3.379z" fill="#4B369D"/><path d="M158.644 249.944h-29.649a2.463 2.463 0 0 1-2.458-2.455 2.463 2.463 0 0 1 2.458-2.456h29.649a2.463 2.463 0 0 1 2.458 2.456 2.46 2.46 0 0 1-2.458 2.455zm0 11.244h-29.649a2.463 2.463 0 0 1-2.458-2.455 2.463 2.463 0 0 1 2.458-2.456h29.649a2.463 2.463 0 0 1 2.458 2.456 2.46 2.46 0 0 1-2.458 2.455z" fill="#fff"/><path d="M97.15 256.662H65.216c-3.631 0-6.602 2.968-6.602 6.596v32.002c14.068-12.617 28.404-24.926 43.358-36.479-1.209-1.294-2.92-2.119-4.822-2.119z" fill="#EFF0FC"/><path d="M101.968 258.783c-14.95 11.55-29.29 23.862-43.358 36.48v46.09c0 3.628 2.97 6.596 6.602 6.596h31.934c3.631 0 6.602-2.968 6.602-6.596V263.26c0-1.695-.653-3.24-1.715-4.412-.018-.025-.043-.043-.065-.065z" fill="#E3EBFC"/><path fill-rule="evenodd" clip-rule="evenodd" d="M65.216 256.662H97.15c3.631 0 6.602 2.968 6.602 6.596v78.092c0 3.628-2.971 6.596-6.602 6.596H65.216c-3.631 0-6.602-2.968-6.602-6.596v-78.092c0-3.628 2.97-6.596 6.602-6.596zm29.067 82.767c3.631 0 6.602-2.968 6.602-6.596v-66.507c0-3.628-2.971-6.596-6.602-6.596H68.078c-3.63 0-6.601 2.968-6.601 6.596v66.507c0 3.628 2.97 6.596 6.601 6.596h26.205z" fill="#508AFB"/><path d="M85.432 258.751H76.93a.377.377 0 0 1 0-.753h8.503a.377.377 0 0 1 0 .753z" fill="#E3E5FC"/><path d="M81.18 345.744a2.342 2.342 0 1 0-2.342-2.341 2.342 2.342 0 0 0 2.343 2.341z" fill="#5A54FF"/><path d="M96.005 319.169H66.356a2.463 2.463 0 0 1-2.457-2.456 2.462 2.462 0 0 1 2.457-2.455h29.65a2.463 2.463 0 0 1 2.457 2.455 2.463 2.463 0 0 1-2.458 2.456zm0 11.248H66.356a2.463 2.463 0 0 1-2.458-2.456 2.463 2.463 0 0 1 2.458-2.455h29.65a2.462 2.462 0 0 1 2.457 2.455 2.465 2.465 0 0 1-2.458 2.456z" fill="#fff"/><path d="M87.194 127.212H29.758c-9.982 0-18.147-8.158-18.147-18.13s8.165-18.13 18.147-18.13h57.436c9.981 0 18.147 8.158 18.147 18.13 0 9.968-8.166 18.13-18.147 18.13z" fill="#E3EBFC"/><path d="M50.158 117.721a1.34 1.34 0 0 1-.937-.38l-8.015-7.786 7.99-8.158a1.345 1.345 0 0 1 1.923 1.878l-6.106 6.234 6.081 5.907c.531.516.542 1.366.025 1.9a1.33 1.33 0 0 1-.961.405zm15.244.002a1.345 1.345 0 0 1-.962-2.284l6.107-6.233-6.081-5.908a1.344 1.344 0 0 1-.025-1.899 1.344 1.344 0 0 1 1.901-.029l8.015 7.786-7.99 8.158a1.342 1.342 0 0 1-.965.409zm-11.818 6.143a1.342 1.342 0 0 1-1.277-1.763l8.395-25.626a1.335 1.335 0 0 1 1.697-.857c.703.23 1.09.99.858 1.696l-8.396 25.626c-.183.562-.71.924-1.277.924z" fill="#A7ADFF"/><g clip-path="url(#b)"><path d="M389.935 63.918l-6.747-1.466a36.742 36.742 0 0 0-2.171-5.236l3.735-5.81c.667-1.038.52-2.4-.352-3.273l-10.51-10.51a2.624 2.624 0 0 0-3.273-.351l-5.81 3.735a36.687 36.687 0 0 0-5.235-2.172l-1.467-6.746a2.623 2.623 0 0 0-2.563-2.066h-14.863c-1.234 0-2.301.86-2.563 2.066l-1.467 6.746a36.747 36.747 0 0 0-5.236 2.172l-5.809-3.735a2.624 2.624 0 0 0-3.273.351l-10.51 10.51a2.623 2.623 0 0 0-.352 3.273l3.735 5.81a36.626 36.626 0 0 0-2.171 5.236l-6.747 1.466a2.623 2.623 0 0 0-2.065 2.563v14.864c0 1.233.86 2.3 2.065 2.563l6.747 1.466a36.63 36.63 0 0 0 2.171 5.236l-3.735 5.81a2.624 2.624 0 0 0 .352 3.272l10.51 10.511a2.624 2.624 0 0 0 3.273.351l5.809-3.735a36.774 36.774 0 0 0 5.236 2.172l1.467 6.746a2.623 2.623 0 0 0 2.563 2.066h14.863c1.234 0 2.301-.86 2.563-2.066l1.467-6.746a36.714 36.714 0 0 0 5.235-2.172l5.81 3.735a2.624 2.624 0 0 0 3.273-.351l10.51-10.51a2.624 2.624 0 0 0 .352-3.273l-3.735-5.81a36.746 36.746 0 0 0 2.171-5.236l6.747-1.466A2.623 2.623 0 0 0 392 81.345V66.48c0-1.233-.86-2.3-2.065-2.563zm-26.087 9.995c0 8.677-7.06 15.737-15.738 15.737-8.677 0-15.737-7.06-15.737-15.737s7.06-15.737 15.737-15.737c8.678 0 15.738 7.06 15.738 15.737z" fill="#FDC510"/></g><g clip-path="url(#c)"><path d="M443.189 30.262l-4.829-1.05a26.3 26.3 0 0 0-1.554-3.748l2.673-4.158a1.877 1.877 0 0 0-.251-2.343l-7.524-7.523a1.877 1.877 0 0 0-2.342-.252l-4.159 2.674a26.298 26.298 0 0 0-3.747-1.555l-1.05-4.829A1.878 1.878 0 0 0 418.571 6h-10.639c-.883 0-1.647.615-1.834 1.478l-1.05 4.83c-1.286.42-2.54.94-3.748 1.554l-4.158-2.674a1.878 1.878 0 0 0-2.343.252l-7.523 7.523a1.879 1.879 0 0 0-.252 2.343l2.674 4.158a26.185 26.185 0 0 0-1.554 3.748l-4.83 1.05a1.878 1.878 0 0 0-1.478 1.834v10.64c0 .882.616 1.646 1.478 1.834l4.83 1.05a26.18 26.18 0 0 0 1.554 3.747l-2.674 4.159a1.879 1.879 0 0 0 .252 2.342l7.523 7.523c.624.625 1.6.73 2.343.252l4.158-2.673a26.285 26.285 0 0 0 3.748 1.554l1.05 4.829a1.876 1.876 0 0 0 1.834 1.478h10.639c.883 0 1.647-.615 1.835-1.478l1.05-4.83c1.285-.42 2.539-.94 3.747-1.553l4.159 2.673a1.876 1.876 0 0 0 2.342-.252l7.524-7.523c.624-.624.729-1.6.251-2.342l-2.673-4.159a26.296 26.296 0 0 0 1.554-3.747l4.829-1.05a1.877 1.877 0 0 0 1.478-1.835V32.096c0-.883-.615-1.646-1.478-1.834zm-18.673 7.154c0 6.21-5.053 11.264-11.264 11.264-6.211 0-11.265-5.053-11.265-11.264 0-6.211 5.054-11.265 11.265-11.265s11.264 5.053 11.264 11.265z" fill="#FDC510"/></g><defs><linearGradient id="a" x1="361.298" y1="38.618" x2="99.436" y2="354.843" gradientUnits="userSpaceOnUse"><stop stop-color="#ECEFFF"/><stop offset="1" stop-color="#fff"/></linearGradient><clipPath id="b"><path fill="#fff" d="M304.221 30.023H392v87.779h-87.779z"/></clipPath><clipPath id="c"><path fill="#fff" d="M381.836 6h62.831v62.831h-62.831z"/></clipPath></defs></svg>