<svg width="468" height="400" viewBox="0 0 468 400" fill="none" xmlns="http://www.w3.org/2000/svg"><g clip-path="url(#a)"><path fill-rule="evenodd" clip-rule="evenodd" d="M230.143 1.788c66.154-6.315 131.827 25.928 170.766 74.76 37.007 46.41 32.455 106.582 18.326 162.376-14.106 55.704-38.081 113.135-94.557 138.659-57.225 25.863-125.793 14.278-181.738-13.788-51.976-26.075-87.779-72.748-96.767-125.93-8.26-48.868 21.606-92.126 53.085-132.521C134.4 60.248 169.52 7.575 230.143 1.788z" fill="url(#b)"/><path d="M235.723 371.34c126.527 0 229.098-5.711 229.098-12.754 0-7.044-102.571-12.754-229.098-12.754-126.527 0-229.098 5.71-229.098 12.754 0 7.043 102.571 12.754 229.098 12.754z" fill="#DFE5FF"/><path d="M198.592 107.385c-3.952-3.088-10.373-1.533-14.271 3.454l-94.423 120.85c-3.897 4.989-3.852 11.595.099 14.682l7.407 5.787 108.597-138.985-7.409-5.788zm-51.24 183.797c4.87 3.807 12.043 2.838 15.94-2.151l94.423-120.849c3.897-4.989 3.1-12.181-1.77-15.987l-20.763-16.223-108.595 138.986 20.765 16.224z" fill="#B9CDFF"/><path fill="#FCFCFF" d="M235.189 135.973L126.594 274.948l-29.18-22.802L206.01 113.172z"/><path d="M224.713 153.167c-3.746 3.746-3.746 9.819 0 13.564 3.745 3.746 9.818 3.746 13.564 0 3.745-3.745 3.745-9.818 0-13.564-3.746-3.745-9.819-3.745-13.564 0z" fill="#5A54FF"/><path d="M120.833 245.346l15.306-19.589c2.042-2.615 5.851-3.082 8.466-1.041l10.441 8.157c2.614 2.042 3.082 5.851 1.04 8.465l-15.306 19.59c-2.042 2.614-5.851 3.082-8.466 1.04l-10.441-8.157c-2.614-2.041-3.082-5.85-1.04-8.465z" fill="#978CFF"/><path d="M214.355 138.469c-4.476-4.476-11.801-4.476-16.277 0L89.634 246.914c-4.476 4.476-4.476 11.801 0 16.277l8.39 8.39 124.721-124.722-8.39-8.39zm-70.428 179.012c4.476 4.476 11.801 4.476 16.277.001l108.444-108.445c4.476-4.476 4.476-11.801 0-16.277l-19.082-19.083-124.72 124.72 19.083 19.083-.002.001z" fill="#7BA0FF"/><path fill="#E3E5FC" d="M249.564 173.68L124.844 298.4l-26.819-26.82 124.72-124.72z"/><path d="M239.536 197.105c-3.746 3.745-3.746 9.818 0 13.564 3.745 3.745 9.818 3.745 13.564 0 3.745-3.746 3.745-9.819 0-13.564-3.746-3.746-9.819-3.746-13.564 0zm-113.461 78.057l17.58-17.58c2.345-2.345 6.184-2.345 8.529 0l9.368 9.368c2.345 2.345 2.345 6.184 0 8.529l-17.58 17.58c-2.345 2.345-6.184 2.345-8.529 0l-9.368-9.368c-2.345-2.345-2.346-6.182 0-8.529z" fill="#5A54FF"/><path d="M197.853 180.793l18.287-18.286a3.116 3.116 0 0 1 4.396 0l.69.69a3.117 3.117 0 0 1 0 4.396l-18.287 18.286a3.116 3.116 0 0 1-4.396 0l-.69-.69a3.117 3.117 0 0 1 0-4.396zm-28.499 28.5l18.287-18.286a3.116 3.116 0 0 1 4.396 0l.69.69a3.117 3.117 0 0 1 0 4.396l-18.287 18.286a3.116 3.116 0 0 1-4.396 0l-.69-.69a3.118 3.118 0 0 1 0-4.396zm-28.498 28.499l18.285-18.285a3.116 3.116 0 0 1 4.396 0l.69.69a3.116 3.116 0 0 1 0 4.396l-18.286 18.286a3.116 3.116 0 0 1-4.396 0l-.69-.69a3.12 3.12 0 0 1 .001-4.397zm-28.142 28.142L131 247.647a3.117 3.117 0 0 1 4.396 0l.69.69a3.116 3.116 0 0 1 0 4.396L117.8 271.02a3.117 3.117 0 0 1-4.396 0l-.69-.69a3.116 3.116 0 0 1 0-4.396z" fill="#fff"/><path d="M150.077 322.023H63.499c-9.843 0-17.896-8.052-17.896-17.896V92.209c0-9.844 8.053-17.897 17.896-17.897h86.578c9.844 0 17.897 8.053 17.897 17.897v211.914c0 9.844-8.053 17.9-17.897 17.9z" fill="#5C93FF"/><path d="M142.311 298.913h-71.05c-9.843 0-17.896-8.053-17.896-17.897V100.537c0-9.844 8.053-17.896 17.897-17.896h71.049c9.844 0 17.897 8.052 17.897 17.896v180.479c.004 9.84-8.053 17.897-17.897 17.897z" fill="#fff"/><path d="M118.316 79.978H95.26a1.021 1.021 0 0 1-1.019-1.02 1.02 1.02 0 0 1 1.02-1.019h23.055c.561 0 1.019.458 1.019 1.02 0 .56-.462 1.019-1.019 1.019z" fill="#E3E5FC"/><path d="M106.788 316.053a6.349 6.349 0 1 0 0-12.698 6.349 6.349 0 0 0 0 12.698z" fill="#5A54FF"/><path d="M134.087 273.105H79.486c-6.198 0-11.273-5.072-11.273-11.273 0-6.198 5.07-11.273 11.273-11.273h54.601c6.198 0 11.273 5.071 11.273 11.273 0 6.197-5.071 11.273-11.273 11.273z" fill="#4A53FF"/><path d="M146.196 117.852H113.3a2.733 2.733 0 0 1-2.726-2.727 2.733 2.733 0 0 1 2.726-2.727h32.896a2.734 2.734 0 0 1 2.727 2.727 2.734 2.734 0 0 1-2.727 2.727zm0 12.492H113.3a2.733 2.733 0 0 1-2.726-2.727c0-1.5 1.226-2.726 2.726-2.726h32.896a2.733 2.733 0 0 1 2.727 2.726 2.736 2.736 0 0 1-2.727 2.727z" fill="#A7ADFF"/><path d="M106.319 234.084a.815.815 0 0 1-.116-1.146l7.48-9.184a.814.814 0 1 1 1.261 1.031l-7.479 9.184a.818.818 0 0 1-1.146.115z" fill="#E3E5FC"/><path d="M107.254 234.084a.814.814 0 0 0 .115-1.146l-7.48-9.184a.815.815 0 0 0-1.261 1.031l7.48 9.184c.282.346.8.398 1.146.115z" fill="#E3E5FC"/><path fill-rule="evenodd" clip-rule="evenodd" d="M77.467 112.654h16.265v-1.493c0-5.807-3.646-10.532-8.132-10.532s-8.133 4.725-8.133 10.532v1.493zm13.172-2.982H80.556c.486-3.408 2.6-6.063 5.04-6.059 2.444 0 4.557 2.651 5.043 6.059z" fill="#E3E5FC"/><path d="M78.725 109.219c-2.54 0-4.617 1.624-4.617 3.606l-4.323 25.364c0 1.983 2.078 3.607 4.617 3.607h18.805l-5.048-32.577h-9.434z" fill="#7BA0FF"/><path d="M100.073 138.185l-3.706-25.364c0-1.982-2.078-3.606-4.617-3.606h-3.595l5.047 32.577h2.25c2.543 0 4.621-1.62 4.621-3.607z" fill="#B9CCFF"/><path d="M146.196 176.274H113.3a2.733 2.733 0 0 1-2.726-2.727 2.733 2.733 0 0 1 2.726-2.727h32.896a2.734 2.734 0 0 1 2.727 2.727 2.736 2.736 0 0 1-2.727 2.727zm0 12.488H113.3a2.733 2.733 0 0 1-2.726-2.727c0-1.5 1.226-2.726 2.726-2.726h32.896a2.733 2.733 0 0 1 2.727 2.726 2.734 2.734 0 0 1-2.727 2.727z" fill="#A7ADFF"/><path fill-rule="evenodd" clip-rule="evenodd" d="M77.467 171.074h16.265v-1.493c0-5.807-3.646-10.532-8.132-10.532s-8.133 4.725-8.133 10.532v1.493zm13.172-2.98H80.556c.486-3.408 2.6-6.059 5.04-6.059 2.444 0 4.557 2.651 5.043 6.059z" fill="#E3E5FC"/><path d="M78.725 167.639c-2.54 0-4.617 1.624-4.617 3.606l-4.323 25.364c0 1.983 2.078 3.607 4.617 3.607h18.805l-5.048-32.577h-9.434z" fill="#FAE026"/><path d="M100.073 196.609l-3.706-25.364c0-1.982-2.078-3.606-4.617-3.606h-3.595l5.047 32.577h2.25c2.543 0 4.621-1.624 4.621-3.607z" fill="#FDC510"/><path d="M98.7 145.335a6.464 6.464 0 1 0 0-12.93 6.464 6.464 0 0 0 0 12.93z" fill="#5A54FF"/><path d="M98.7 204.634a6.464 6.464 0 1 0 0-12.93 6.464 6.464 0 0 0 0 12.93z" fill="#F44E4E"/><path d="M106.788 246.604a4.365 4.365 0 0 1-4.351-4.351 4.365 4.365 0 0 1 4.351-4.351 4.365 4.365 0 0 1 4.351 4.351 4.363 4.363 0 0 1-4.351 4.351z" fill="#8E94FF"/><path d="M331.826 248.35c-5.04 0-9.164-4.124-9.164-9.163 0-5.04 4.124-9.164 9.164-9.164 5.039 0 9.163 4.124 9.163 9.164 0 5.039-4.124 9.163-9.163 9.163z" fill="#E3E5FC"/><path fill-rule="evenodd" clip-rule="evenodd" d="M335.926 228.247c1.031.386 2.05.577 3.025.577 1.337 0 2.599-.362 3.69-1.078 3.754-2.448 4.227-8.399 1.051-13.264l-.816-1.25-13.614 8.897.816 1.25c1.493 2.285 3.571 4.012 5.848 4.868zm1.047-2.796c-1.282-.482-2.488-1.354-3.499-2.516l8.45-5.517c1.453 3.121 1.135 6.492-.911 7.83-1.079.704-2.516.776-4.04.203z" fill="#E3E5FC"/><path d="M343.704 216.8c2.125-1.389 2.977-3.885 1.895-5.545l-10.246-23.601c-1.083-1.66-3.71-1.883-5.84-.494l-15.743 10.282 22.036 24.517 7.898-5.159z" fill="#A7ADFF"/><path d="M309.988 204.212l16.969 19.211c1.083 1.66 3.71 1.882 5.84.493l3.009-1.962-22.036-24.516-1.883 1.229c-2.13 1.39-2.981 3.886-1.899 5.545z" fill="#978CFF"/><path fill-rule="evenodd" clip-rule="evenodd" d="M343.529 193.702l.433 1.425 19.955-6.082-.434-1.425c-1.039-3.411-3.009-6.337-5.545-8.232-2.679-1.998-5.668-2.635-8.415-1.799-2.746.84-4.872 3.037-5.979 6.186-1.05 2.989-1.054 6.516-.015 9.927zm6.866-13.258a5.185 5.185 0 0 1 1.529-.227c1.389 0 2.85.533 4.227 1.56 1.684 1.258 3.065 3.109 3.977 5.306l-14.112 4.299c-.465-2.328-.354-4.637.343-6.619.784-2.23 2.217-3.766 4.036-4.319z" fill="#E3E5FC"/><path d="M343.891 190.852c-3.272.995-5.31 3.901-4.534 6.457l4.382 34.364c.781 2.556 4.093 3.829 7.365 2.834l24.217-7.376-19.282-39.977-12.148 3.698z" fill="#FAE026"/><path d="M382.753 219.791l-14.724-31.216c-.78-2.555-4.092-3.829-7.364-2.834l-4.629 1.409 19.281 39.977 2.898-.884c3.276-.995 5.314-3.901 4.538-6.452zm15.325 48.114h-63.546c-5.039 0-9.163-4.124-9.163-9.164 0-5.039 4.124-9.163 9.163-9.163h63.546c5.04 0 9.164 4.124 9.164 9.163 0 5.04-4.124 9.164-9.164 9.164z" fill="#FDC510"/><path d="M380.297 247.471H352.31c-5.04 0-9.164-4.124-9.164-9.163 0-5.04 4.124-9.163 9.164-9.163h27.987c5.039 0 9.163 4.123 9.163 9.163.004 5.039-4.124 9.163-9.163 9.163z" fill="#978CFF"/><path d="M440.774 267.616h-19.473c-5.039 0-9.163-4.124-9.163-9.164 0-5.039 4.124-9.163 9.163-9.163h19.473c5.039 0 9.163 4.124 9.163 9.163.004 5.04-4.12 9.164-9.163 9.164z" fill="#A7ADFF"/><path d="M361.863 354.167c5.305 0 9.605-4.3 9.605-9.605 0-5.305-4.3-9.605-9.605-9.605a9.605 9.605 0 0 0-9.605 9.605c0 5.305 4.3 9.605 9.605 9.605z" fill="#3D5DAF"/><path d="M361.863 351.353a6.791 6.791 0 1 0 0-13.582 6.791 6.791 0 0 0 0 13.582z" fill="#E3E5FC"/><path d="M429.915 354.167c5.305 0 9.605-4.3 9.605-9.605 0-5.305-4.3-9.605-9.605-9.605a9.605 9.605 0 0 0-9.605 9.605c0 5.305 4.3 9.605 9.605 9.605z" fill="#3D5DAF"/><path d="M429.915 351.353a6.791 6.791 0 1 0 0-13.582 6.791 6.791 0 0 0 0 13.582z" fill="#E3E5FC"/><path d="M352.178 331.971c-1.496 0-18.366-.307-21.797-13.785-1.286-5.047-4.136-20.635-7.432-38.687-4.669-25.552-11.066-60.549-13.08-64.37-3.089-5.86-5.764-7.014-15.819-6.835-10.115.171-47.448-.012-47.826-.016l.015-2.981c.375 0 37.673.187 47.759.016 10.298-.167 14.633 1.071 18.51 8.427 2.066 3.925 6.847 29.508 13.375 65.221 3.288 17.997 6.13 33.537 7.388 38.488 2.945 11.572 18.808 11.532 18.975 11.54h97.695v2.982h-97.763z" fill="#3D5DAF"/><path d="M453.544 270.124H322.798v-2.981h128.441l13.116-50.179H311.604v-2.982H468.22l-14.676 56.142z" fill="#3D5DAF"/><path fill="#3D5DAF" d="M346.623 215.826l2.885-.749 13.796 53.157-2.885.749zm40.831-.351h2.981v52.142h-2.981zm27.326 52.769l13.785-53.163 2.886.748-13.785 53.163z"/><path fill="#3D5DAF" d="M316.206 231.766h144.403v2.981H316.206zm3.439 17.9h137.314v2.981H319.645z"/></g><defs><linearGradient id="b" x1="352.446" y1="30.35" x2="83.228" y2="326.862" gradientUnits="userSpaceOnUse"><stop stop-color="#ECEFFF"/><stop offset="1" stop-color="#fff"/></linearGradient><clipPath id="a"><path fill="#fff" d="M0 0h468v400H0z"/></clipPath></defs></svg>