<svg width="52" height="52" viewBox="0 0 52 52" fill="none" xmlns="http://www.w3.org/2000/svg"><path d="M25.119 29.467c0-.649-.231-1.149-.692-1.5-.455-.352-1.28-.707-2.474-1.065-1.194-.358-2.144-.757-2.85-1.197-1.35-.845-2.025-1.947-2.025-3.306 0-1.19.486-2.17 1.456-2.94.977-.77 2.242-1.156 3.796-1.156 1.031 0 1.95.189 2.758.568.807.378 1.442.919 1.903 1.622.462.696.692 1.47.692 2.322H25.12c0-.77-.245-1.372-.733-1.805-.482-.44-1.174-.659-2.076-.659-.842 0-1.496.18-1.965.538-.461.358-.692.858-.692 1.5 0 .541.251.994.753 1.36.503.357 1.33.709 2.484 1.054 1.153.338 2.08.726 2.778 1.166.7.432 1.211.933 1.537 1.5.326.562.489 1.22.489 1.978 0 1.23-.475 2.21-1.425 2.94-.943.724-2.226 1.086-3.847 1.086-1.073 0-2.06-.196-2.962-.588-.896-.4-1.595-.947-2.097-1.643-.495-.696-.743-1.508-.743-2.434h2.575c0 .838.279 1.487.835 1.947.556.46 1.354.69 2.392.69.895 0 1.567-.18 2.015-.538.454-.365.682-.845.682-1.44z" fill="#5B63FF"/><path fill-rule="evenodd" clip-rule="evenodd" d="M8.283 5.388a.884.884 0 0 0-.886.883v39.458c0 .488.397.883.886.883h27.904V6.27a.884.884 0 0 0-.886-.883H8.283zm30.301 41.224h2.007a4.005 4.005 0 0 0 4.012-3.998V27.581a.884.884 0 0 0-.886-.883h-5.133v19.914zm0-22.302V6.27c0-1.806-1.47-3.27-3.283-3.27H8.283A3.277 3.277 0 0 0 5 6.27v39.46C5 47.535 6.47 49 8.283 49H40.59c3.54 0 6.41-2.86 6.41-6.386V27.581c0-1.806-1.47-3.27-3.283-3.27h-5.133z" fill="#5B63FF"/><path fill-rule="evenodd" clip-rule="evenodd" d="M22.873 15.617a1.04 1.04 0 0 1 1.043 1.039v17.652a1.04 1.04 0 0 1-1.043 1.038 1.04 1.04 0 0 1-1.042-1.038V16.656a1.04 1.04 0 0 1 1.043-1.039z" fill="#5B63FF"/></svg>