<svg width="188" height="41" viewBox="0 0 188 41" fill="none" xmlns="http://www.w3.org/2000/svg"><path fill-rule="evenodd" clip-rule="evenodd" d="M22.508 23.83a4.34 4.34 0 0 0 1.125-4.915 4.341 4.341 0 0 0-.949-1.415l-3.252 3.253 3.076 3.078zm25.24-13.78c2.528 0 4.538 1.273 5.409 3.535h-1.824c-.637-1.407-1.876-2.194-3.584-2.194-2.446 0-4.27 1.775-4.27 4.64 0 2.848 1.824 4.624 4.27 4.624 1.708 0 2.947-.787 3.584-2.178h1.825c-.87 2.245-2.88 3.501-5.41 3.501-3.265 0-5.826-2.445-5.826-5.947 0-3.501 2.56-5.98 5.827-5.98h-.001zm9.192 11.828h-1.523v-9.18h1.524v1.491c.52-1.022 1.508-1.658 2.965-1.658v1.574h-.403c-1.456 0-2.562.654-2.562 2.782v4.992-.001zm11.053-9.18h1.575L64.04 26.2h-1.574l1.809-4.423-3.701-9.08h1.691l2.881 7.438 2.846-7.439zm7.737 1.172c-1.658 0-3.115 1.273-3.115 3.401 0 2.16 1.457 3.417 3.115 3.417 1.692 0 3.115-1.273 3.115-3.433 0-2.162-1.423-3.385-3.115-3.385zm.318-1.324c2.462 0 4.355 1.843 4.355 4.708 0 2.848-1.893 4.775-4.355 4.775-1.675 0-2.864-.905-3.433-1.843v6.048H71.09V12.697h1.524v1.692c.553-.972 1.758-1.843 3.433-1.843zm6.698 1.408h-1.189v-1.257h1.19v-2.311h1.523v2.311h2.395v1.257H84.27v5.41c0 .905.335 1.224 1.274 1.224h1.121v1.29h-1.372c-1.625 0-2.547-.67-2.547-2.513v-5.411zm9.763 6.734c1.591 0 3.149-1.088 3.149-3.417 0-2.312-1.524-3.401-3.098-3.401-1.608 0-3.065 1.089-3.065 3.401 0 2.328 1.423 3.417 3.014 3.417zm0 1.34c-2.596 0-4.572-1.842-4.572-4.757 0-2.899 2.043-4.725 4.64-4.725 2.612 0 4.638 1.826 4.638 4.725 0 2.915-2.094 4.757-4.706 4.757zm10.483-6.281c1.741 0 2.478-.821 2.478-2.128 0-1.357-.737-2.162-2.478-2.162h-2.244v4.29h2.244zm0 1.256h-2.244v4.875h-1.523V10.2h3.767c2.747 0 4.036 1.508 4.036 3.418 0 1.775-1.139 3.384-4.036 3.384zm7.452 4.875h-1.524v-9.18h1.524v1.491c.52-1.022 1.507-1.658 2.965-1.658v1.574h-.402c-1.458 0-2.563.654-2.563 2.782v4.992-.001zm8.725-1.19c1.591 0 3.148-1.088 3.148-3.417 0-2.312-1.523-3.401-3.098-3.401-1.608 0-3.064 1.089-3.064 3.401 0 2.328 1.423 3.417 3.014 3.417zm0 1.34c-2.596 0-4.572-1.842-4.572-4.757 0-2.899 2.043-4.725 4.639-4.725 2.612 0 4.639 1.826 4.639 4.725 0 2.915-2.094 4.757-4.706 4.757zm10.617-9.482c2.278 0 3.768 1.173 4.237 3.1h-1.642c-.317-1.106-1.239-1.81-2.596-1.81-1.674 0-2.913 1.19-2.913 3.435 0 2.278 1.239 3.468 2.914 3.468 1.357 0 2.26-.654 2.596-1.81h1.641c-.469 1.826-1.959 3.1-4.237 3.1-2.613 0-4.472-1.843-4.472-4.758 0-2.882 1.859-4.725 4.472-4.725zm7.268 4.071h5.794c.016-1.792-1.323-2.78-2.898-2.78-1.49 0-2.729.988-2.897 2.78h.001zm2.964 5.411c-2.613 0-4.539-1.842-4.539-4.757 0-2.898 1.859-4.725 4.539-4.725 2.662 0 4.404 1.877 4.404 4.39 0 .335-.017.602-.05.921h-7.335c.117 1.86 1.423 2.882 2.981 2.882 1.372 0 2.244-.704 2.578-1.693h1.642c-.469 1.676-1.943 2.982-4.22 2.982zm9.662 0c-2.143 0-3.651-1.172-3.751-2.848h1.574c.084.889.87 1.559 2.161 1.559 1.205 0 1.875-.603 1.875-1.358 0-2.043-5.426-.854-5.426-4.271 0-1.408 1.323-2.564 3.366-2.564 2.026 0 3.366 1.09 3.467 2.882h-1.524c-.068-.921-.771-1.592-1.993-1.592-1.122 0-1.792.536-1.792 1.274 0 2.177 5.325.988 5.393 4.272 0 1.507-1.323 2.646-3.35 2.646zm8.741 0c-2.144 0-3.651-1.172-3.751-2.848h1.574c.084.889.87 1.559 2.16 1.559 1.206 0 1.876-.603 1.876-1.358 0-2.043-5.426-.854-5.426-4.271 0-1.408 1.323-2.564 3.366-2.564 2.027 0 3.366 1.09 3.466 2.882h-1.523c-.067-.921-.771-1.592-1.993-1.592-1.122 0-1.792.536-1.792 1.274 0 2.177 5.325.988 5.392 4.272 0 1.507-1.323 2.646-3.348 2.646m5.999.102h1.524v-9.181h-1.524v9.18zm-.251-11.71c0-.587.452-1.04 1.038-1.04.553 0 1.005.453 1.005 1.04 0 .586-.452 1.038-1.005 1.038a1.022 1.022 0 0 1-1.038-1.038zm11.086 6.516c0-1.876-1.022-2.83-2.562-2.83-1.557 0-2.63.97-2.63 2.948v5.076h-1.523v-9.18h1.523v1.307c.604-.955 1.709-1.474 2.949-1.474 2.126 0 3.75 1.306 3.75 3.937v5.41h-1.507v-5.194zm8.089-2.814c-1.676 0-3.098 1.223-3.098 3.384 0 2.161 1.422 3.434 3.098 3.434 1.674 0 3.115-1.257 3.115-3.417 0-2.128-1.441-3.401-3.115-3.401zm-.302-1.324c1.675 0 2.88.838 3.417 1.827v-1.676H188v9.382c0 2.53-1.692 4.322-4.388 4.322-2.411 0-4.136-1.223-4.437-3.183h1.507c.335 1.106 1.423 1.86 2.93 1.86 1.625 0 2.847-1.039 2.847-3v-1.925c-.552.988-1.741 1.876-3.416 1.876-2.462 0-4.354-1.927-4.354-4.775 0-2.865 1.893-4.707 4.354-4.707" fill="#fff"/><path opacity=".6" fill-rule="evenodd" clip-rule="evenodd" d="M45.167 30.676h-1.111v1.73h1.132c.633 0 1.012-.316 1.012-.85 0-.542-.407-.88-1.033-.88zm-.05-2.117h-1.061v1.59h1.076c.597 0 .941-.296.941-.795 0-.486-.329-.795-.956-.795zm.128 4.376h-1.83V28.03h1.759c1.034 0 1.553.563 1.553 1.245 0 .62-.385.978-.857 1.133.534.091.97.604.97 1.21 0 .739-.583 1.316-1.596 1.316zm2.632-.001h.64v-5.206h-.64v5.206zm3.523-.5c.668 0 1.322-.456 1.322-1.434 0-.971-.64-1.428-1.301-1.428-.675 0-1.287.457-1.287 1.428 0 .977.599 1.436 1.266 1.436v-.001zm0 .564c-1.09 0-1.92-.774-1.92-1.998 0-1.217.86-1.984 1.949-1.984 1.097 0 1.948.767 1.948 1.985 0 1.223-.88 1.997-1.977 1.997zm4.598-3.982c.956 0 1.582.493 1.778 1.302h-.688c-.134-.465-.521-.76-1.09-.76-.704 0-1.224.499-1.224 1.443 0 .955.52 1.455 1.224 1.455.569 0 .949-.275 1.09-.76h.688c-.196.767-.822 1.302-1.778 1.302-1.098 0-1.878-.774-1.878-1.998 0-1.21.78-1.984 1.878-1.984zm2.716-1.287h.64v3.06l1.484-1.71h.893L59.917 31l1.82 1.935h-.871l-1.512-1.703v1.703h-.64v-5.206zm5.153 1.287c.957 0 1.583.493 1.78 1.302h-.689c-.134-.465-.522-.76-1.09-.76-.704 0-1.224.499-1.224 1.443 0 .955.52 1.455 1.224 1.455.568 0 .949-.275 1.09-.76h.689c-.197.767-.824 1.302-1.78 1.302-1.096 0-1.877-.774-1.877-1.998 0-1.21.78-1.984 1.877-1.984zm2.718-1.287h.64v1.906c.252-.408.73-.626 1.272-.626.858 0 1.54.549 1.54 1.654v2.272h-.633v-2.181c0-.788-.428-1.189-1.076-1.189-.654 0-1.103.408-1.103 1.238v2.132h-.64v-5.206zm6.327 1.843c-.703 0-1.302.513-1.302 1.42 0 .909.599 1.444 1.302 1.444.704 0 1.307-.528 1.307-1.436 0-.894-.603-1.428-1.307-1.428zm-.127-.556c.718 0 1.21.366 1.434.767v-.704h.648v3.856h-.648v-.718c-.23.416-.73.781-1.441.781-1.027 0-1.821-.81-1.821-2.005 0-1.203.794-1.977 1.828-1.977zm3.268 3.919h.64v-3.856h-.64v3.856zm-.106-4.917a.43.43 0 1 1 .858 0 .43.43 0 1 1-.858 0zm4.748 2.736c0-.788-.429-1.189-1.076-1.189-.654 0-1.104.408-1.104 1.238v2.132h-.64v-3.856h.64v.55c.252-.402.717-.62 1.238-.62.892 0 1.574.549 1.574 1.654v2.272h-.632v-2.181zm3.84 2.18h.64V29.08h-.64v3.856zm-.105-4.916a.428.428 0 0 1 .6-.42.43.43 0 0 1 .258.42.43.43 0 1 1-.858 0zm4.746 2.736c0-.788-.429-1.189-1.076-1.189-.653 0-1.103.408-1.103 1.238v2.132h-.64v-3.856h.64v.55c.252-.402.717-.62 1.237-.62.894 0 1.575.549 1.575 1.654v2.272h-.633v-2.181zm1.863-1.147h-.5v-.528h.5v-.97h.64v.97h1.005v.528H91.68v2.273c0 .38.14.513.534.513h.47v.54h-.575c-.682 0-1.069-.28-1.069-1.053v-2.274zm2.794 1.118h2.433c.006-.753-.557-1.167-1.217-1.167-.626 0-1.147.415-1.217 1.167zm1.244 2.272c-1.098 0-1.906-.773-1.906-1.997 0-1.217.78-1.985 1.906-1.985 1.118 0 1.849.789 1.849 1.844 0 .141-.007.253-.02.387h-3.081c.05.781.598 1.21 1.252 1.21.577 0 .942-.296 1.083-.71h.69c-.198.703-.817 1.251-1.773 1.251zm3.453-.062h-.64v-3.856h.64v.627c.218-.43.633-.697 1.244-.697v.661h-.168c-.612 0-1.076.275-1.076 1.168v2.097zm3.694-3.363c-.704 0-1.302.513-1.302 1.42 0 .909.598 1.444 1.302 1.444.703 0 1.308-.528 1.308-1.436 0-.894-.605-1.428-1.308-1.428zm-.127-.556c.717 0 1.21.366 1.435.767v-.704h.647v3.856h-.647v-.718c-.232.416-.731.781-1.442.781-1.027 0-1.821-.81-1.821-2.005 0-1.203.795-1.977 1.828-1.977zm4.922 0c.957 0 1.583.493 1.78 1.302h-.69c-.134-.465-.519-.76-1.09-.76-.702 0-1.223.499-1.223 1.443 0 .955.521 1.455 1.223 1.455.571 0 .949-.275 1.091-.76h.689c-.196.767-.824 1.302-1.78 1.302-1.096 0-1.876-.774-1.876-1.998 0-1.21.78-1.984 1.876-1.984zm2.813.59h-.499v-.527h.5v-.97h.64v.97h1.005v.528h-1.005v2.273c0 .38.14.513.534.513h.47v.54h-.575c-.683 0-1.069-.28-1.069-1.053v-2.274h-.001zm2.447 3.329h.641v-3.856h-.64v3.856h-.001zm-.105-4.917a.422.422 0 0 1 .116-.32.425.425 0 0 1 .483-.1.44.44 0 0 1 .234.248.44.44 0 0 1 .025.172.431.431 0 0 1-.429.43.43.43 0 0 1-.429-.43zm3.608 4.417c.668 0 1.322-.458 1.322-1.435 0-.971-.64-1.428-1.301-1.428-.674 0-1.286.457-1.286 1.428 0 .977.597 1.436 1.265 1.436v-.001zm0 .563c-1.09 0-1.919-.774-1.919-1.998 0-1.217.857-1.984 1.947-1.984 1.098 0 1.948.767 1.948 1.985 0 1.223-.879 1.997-1.976 1.997zm5.759-2.244c0-.788-.428-1.189-1.075-1.189-.654 0-1.104.408-1.104 1.238v2.132h-.64v-3.856h.64v.55c.253-.402.717-.62 1.238-.62.892 0 1.575.549 1.575 1.654v2.272h-.633v-2.181h-.001zm3.841 2.18h.64V29.08h-.64v3.856zm-.105-4.916a.421.421 0 0 1 .116-.32.425.425 0 0 1 .483-.1.44.44 0 0 1 .234.248.44.44 0 0 1 .025.172.44.44 0 0 1-.126.303.432.432 0 0 1-.468.093.432.432 0 0 1-.264-.396zm4.747 2.736c0-.788-.429-1.189-1.076-1.189-.654 0-1.104.408-1.104 1.238v2.132h-.64v-3.856h.64v.55c.253-.402.717-.62 1.238-.62.892 0 1.575.549 1.575 1.654v2.272h-.633v-2.181zm1.87-1.147h-.499v-.528h.499v-.274c0-.858.422-1.244 1.406-1.244v.533c-.576 0-.766.212-.766.71v.275h.809v.528h-.808v3.328h-.641v-3.33.002zm2.876 3.328h-.639v-3.856h.639v.627c.218-.43.633-.697 1.246-.697v.661h-.17c-.611 0-1.076.275-1.076 1.168v2.097zm3.693-3.363c-.702 0-1.3.513-1.3 1.42 0 .909.598 1.444 1.3 1.444.704 0 1.309-.528 1.309-1.436 0-.894-.605-1.428-1.309-1.428zm-.125-.556c.717 0 1.209.366 1.434.767v-.704h.647v3.856h-.647v-.718c-.232.416-.731.781-1.441.781-1.028 0-1.822-.81-1.822-2.005 0-1.203.794-1.977 1.828-1.977h.001zm4.633 3.982c-.9 0-1.532-.493-1.574-1.196h.661c.035.373.365.654.906.654.507 0 .789-.253.789-.57 0-.858-2.28-.359-2.28-1.794 0-.59.556-1.076 1.414-1.076.851 0 1.414.457 1.456 1.21h-.64c-.028-.387-.323-.668-.837-.668-.47 0-.753.225-.753.534 0 .915 2.236.415 2.265 1.795 0 .633-.556 1.111-1.407 1.111zm2.514-3.391h-.499v-.528h.499v-.97h.641v.97h1.005v.528h-1.005v2.273c0 .38.14.513.534.513h.47v.54h-.576c-.682 0-1.069-.28-1.069-1.053v-2.274zm3.087 3.328h-.639v-3.856h.639v.627c.218-.43.634-.697 1.245-.697v.661h-.168c-.612 0-1.077.275-1.077 1.168v2.097zm5.464 0h-.64v-.57c-.246.4-.718.625-1.231.625-.886 0-1.582-.549-1.582-1.653V29.08h.633v2.173c0 .782.429 1.183 1.076 1.183.661 0 1.104-.408 1.104-1.238V29.08h.64v3.855zm2.837-3.92c.957 0 1.583.494 1.78 1.303h-.689c-.134-.465-.521-.76-1.091-.76-.703 0-1.223.499-1.223 1.443 0 .955.52 1.455 1.223 1.455.57 0 .95-.275 1.091-.76h.689c-.197.767-.824 1.302-1.78 1.302-1.096 0-1.877-.774-1.877-1.998 0-1.21.781-1.984 1.877-1.984zm2.813.592h-.499v-.528h.499v-.97h.64v.97h1.006v.528h-1.006v2.273c0 .38.141.513.535.513h.47v.54h-.576c-.683 0-1.069-.28-1.069-1.053v-2.274zm5.882 3.328h-.639v-.57c-.247.4-.718.625-1.232.625-.886 0-1.581-.549-1.581-1.653V29.08h.632v2.173c0 .782.429 1.183 1.076 1.183.662 0 1.105-.408 1.105-1.238V29.08h.639v3.855zm1.821 0h-.64v-3.856h.64v.627c.217-.43.633-.697 1.245-.697v.661h-.169c-.612 0-1.076.275-1.076 1.168v2.097zm2.399-2.21h2.434c.006-.753-.556-1.167-1.218-1.167-.625 0-1.145.415-1.216 1.167zm1.245 2.272c-1.097 0-1.906-.773-1.906-1.997 0-1.217.78-1.985 1.906-1.985 1.118 0 1.849.789 1.849 1.844 0 .141-.007.253-.02.387h-3.081c.049.781.598 1.21 1.252 1.21.576 0 .942-.296 1.082-.71h.69c-.197.703-.815 1.251-1.772 1.251z" fill="#fff"/><path fill-rule="evenodd" clip-rule="evenodd" d="M20.096 8.71c3.141 0 5.985 1.274 8.046 3.332L34.3 5.883A20.029 20.029 0 0 0 20.096 0C8.997 0 0 9 0 20.102c0 6.872 3.45 12.936 8.708 16.562V20.102c0-6.29 5.098-11.391 11.388-11.391zm0 22.783c-1.543 0-3.013-.308-4.355-.863v9.095a20.09 20.09 0 0 0 4.355.479 20.02 20.02 0 0 0 14.032-5.718l-6.158-6.16a11.345 11.345 0 0 1-7.874 3.167z" fill="#fff"/><path fill-rule="evenodd" clip-rule="evenodd" d="M20.095 24.457a4.335 4.335 0 0 0 2.898-1.11l-3.076-3.078 3.251-3.252a4.354 4.354 0 1 0-5.124 6.927 4.352 4.352 0 0 0 2.051.514" fill="#fff"/><path fill-rule="evenodd" clip-rule="evenodd" d="M20.095 24.457a4.335 4.335 0 0 0 2.898-1.11l-3.076-3.078 3.251-3.252a4.354 4.354 0 1 0-5.124 6.927 4.352 4.352 0 0 0 2.051.514" fill="#fff"/><path fill-rule="evenodd" clip-rule="evenodd" d="M20.095 24.457a4.335 4.335 0 0 0 2.898-1.11l-3.076-3.078 3.251-3.252a4.354 4.354 0 1 0-5.124 6.927 4.352 4.352 0 0 0 2.051.514" fill="#fff"/><path fill-rule="evenodd" clip-rule="evenodd" d="M20.095 24.457a4.335 4.335 0 0 0 2.898-1.11l-3.076-3.078 3.251-3.252a4.354 4.354 0 1 0-5.124 6.927 4.352 4.352 0 0 0 2.051.514" fill="#fff"/><path fill-rule="evenodd" clip-rule="evenodd" d="M22.992 23.346a4.338 4.338 0 0 0 1.458-3.245 4.34 4.34 0 0 0-1.282-3.085l-3.252 3.252 3.076 3.078z" fill="#fff"/></svg>