<svg width="272" height="60" viewBox="0 0 272 60" fill="none" xmlns="http://www.w3.org/2000/svg"><path fill-rule="evenodd" clip-rule="evenodd" d="M29.99 13c4.688 0 8.932 1.9 12.008 4.971l9.188-9.191A29.891 29.891 0 0 0 29.99 0C13.427 0 0 13.432 0 30c0 10.255 5.147 19.304 12.995 24.716V30c0-9.389 7.61-17 16.995-17zm0 34c-2.303 0-4.496-.46-6.498-1.29v13.575c2.092.463 4.266.714 6.498.714 8.15 0 15.536-3.256 20.94-8.534l-9.188-9.191a16.93 16.93 0 0 1-11.752 4.725z" fill="#4A47D2"/><path fill-rule="evenodd" clip-rule="evenodd" d="M29.99 36.5c1.662 0 3.174-.63 4.323-1.657l-4.59-4.594 4.852-4.853a6.498 6.498 0 1 0-7.647 10.337 6.494 6.494 0 0 0 3.062.767" fill="#4A47D2"/><path fill-rule="evenodd" clip-rule="evenodd" d="M29.99 36.5c1.662 0 3.174-.63 4.323-1.657l-4.59-4.594 4.852-4.853a6.498 6.498 0 1 0-7.647 10.337 6.494 6.494 0 0 0 3.062.767" fill="#4A47D2"/><path fill-rule="evenodd" clip-rule="evenodd" d="M29.99 36.5c1.662 0 3.174-.63 4.323-1.657l-4.59-4.594 4.852-4.853a6.498 6.498 0 1 0-7.647 10.337 6.494 6.494 0 0 0 3.062.767" fill="#4A47D2"/><path fill-rule="evenodd" clip-rule="evenodd" d="M29.99 36.5c1.662 0 3.174-.63 4.323-1.657l-4.59-4.594 4.852-4.853a6.498 6.498 0 1 0-7.647 10.337 6.494 6.494 0 0 0 3.062.767" fill="#4A47D2"/><path fill-rule="evenodd" clip-rule="evenodd" d="M34.313 34.842a6.476 6.476 0 0 0 2.175-4.843 6.48 6.48 0 0 0-1.913-4.604l-4.852 4.854 4.59 4.593z" fill="#4A47D2"/><path fill-rule="evenodd" clip-rule="evenodd" d="M34.313 34.844A6.477 6.477 0 0 0 36.488 30a6.48 6.48 0 0 0-1.913-4.605l-4.852 4.855 4.59 4.593z" fill="#4A47D2"/><path d="M71.724 27.18c-1.296-3.274-4.288-5.115-8.052-5.115h.002c-4.861 0-8.674 3.588-8.674 8.656 0 5.068 3.813 8.607 8.674 8.607 3.763 0 6.755-1.818 8.051-5.068H69.01c-.948 2.014-2.793 3.153-5.335 3.153-3.64 0-6.357-2.57-6.357-6.692 0-4.147 2.717-6.717 6.357-6.717 2.542 0 4.387 1.139 5.335 3.176h2.715zm3.364 12.003h2.268V31.96c0-3.08 1.647-4.026 3.815-4.026h.598v-2.279c-2.169 0-3.64.92-4.412 2.4v-2.157h-2.269v13.286zm21.064-13.288h-2.344L89.57 36.662l-4.288-10.766h-2.518l5.51 13.143-2.693 6.4h2.343l8.227-19.544zm17.845 1.819h1.77v7.832c0 2.667 1.372 3.637 3.791 3.637h2.043v-1.867h-1.67c-1.397 0-1.896-.461-1.896-1.77v-7.832h3.566v-1.82h-3.566V22.55h-2.268v3.346h-1.77v1.819zm40.731 11.469h2.268V31.96c0-3.08 1.645-4.026 3.814-4.026h.599v-2.279c-2.171 0-3.64.92-4.413 2.4v-2.157h-2.268v13.286zm37.364-9.021c-.698-2.788-2.916-4.485-6.306-4.485-3.89 0-6.656 2.667-6.656 6.838 0 4.218 2.766 6.886 6.656 6.886 3.39 0 5.608-1.843 6.306-4.486h-2.442c-.5 1.673-1.844 2.619-3.864 2.619-2.494 0-4.338-1.721-4.338-5.02 0-3.249 1.844-4.97 4.337-4.97 2.019 0 3.391 1.018 3.864 2.618h2.443zm17.722 5.117c.15 2.425 2.393 4.122 5.584 4.122 3.016 0 4.986-1.649 4.986-3.83-.101-4.754-8.027-3.032-8.027-6.184 0-1.068.997-1.843 2.667-1.843 1.819 0 2.866.97 2.967 2.304h2.268c-.149-2.595-2.145-4.171-5.16-4.171-3.041 0-5.01 1.672-5.01 3.71 0 4.946 8.076 3.224 8.076 6.182 0 1.093-.997 1.965-2.792 1.965-1.92 0-3.091-.97-3.216-2.255h-2.343z" fill="#4A47D2"/><path fill-rule="evenodd" clip-rule="evenodd" d="M105.798 25.677c3.664 0 6.481 2.667 6.481 6.813 0 4.122-2.817 6.912-6.481 6.912-2.494 0-4.264-1.31-5.111-2.669v8.754h-2.268V25.895h2.268v2.45c.823-1.408 2.617-2.668 5.111-2.668zm-5.111 6.838c0-3.08 2.169-4.923 4.637-4.923 2.518 0 4.637 1.77 4.637 4.9 0 3.126-2.119 4.97-4.637 4.97-2.468 0-4.637-1.82-4.637-4.947zm29.612 6.885c-3.864 0-6.805-2.666-6.805-6.885 0-4.196 3.041-6.838 6.905-6.838 3.889 0 6.905 2.642 6.905 6.838 0 4.218-3.117 6.886-7.004 6.886h-.001zm4.687-6.885c0 3.37-2.318 4.946-4.687 4.946-2.368 0-4.486-1.576-4.486-4.946 0-3.346 2.169-4.923 4.562-4.923 2.343 0 4.611 1.577 4.611 4.923zm10.917-.388h-3.34v7.056h-2.268V22.282h5.608c4.089 0 6.008 2.182 6.008 4.947 0 2.57-1.695 4.898-6.008 4.898zm3.689-4.898c0 1.892-1.097 3.08-3.689 3.08h-3.34V24.1h3.34c2.592 0 3.689 1.164 3.689 3.128zm20.39 12.171c-3.864 0-6.805-2.666-6.805-6.885 0-4.196 3.041-6.838 6.905-6.838 3.889 0 6.905 2.642 6.905 6.838 0 4.218-3.117 6.886-7.004 6.886h-.001zm4.686-6.885c0 3.37-2.317 4.946-4.686 4.946-2.368 0-4.486-1.576-4.486-4.946 0-3.346 2.167-4.923 4.561-4.923 2.344 0 4.611 1.577 4.611 4.923zm26.348 6.885c-3.889 0-6.756-2.666-6.756-6.885 0-4.195 2.767-6.838 6.756-6.838 3.963 0 6.556 2.716 6.556 6.353 0 .485-.026.872-.075 1.333h-10.918c.175 2.691 2.118 4.171 4.437 4.171 2.043 0 3.34-1.019 3.838-2.45h2.443c-.698 2.426-2.892 4.317-6.281 4.317zm4.213-7.831h-8.626c.25-2.595 2.094-4.025 4.312-4.025 2.344 0 4.337 1.43 4.314 4.025z" fill="#4A47D2"/><path d="M228.409 39.4c-3.191 0-5.435-1.696-5.584-4.121h2.343c.125 1.285 1.296 2.255 3.216 2.255 1.794 0 2.792-.872 2.792-1.965 0-2.958-8.077-1.236-8.077-6.183 0-2.037 1.97-3.71 5.011-3.71 3.016 0 5.01 1.577 5.16 4.172h-2.269c-.099-1.334-1.146-2.304-2.966-2.304-1.671 0-2.668.775-2.668 1.843 0 3.152 7.927 1.43 8.027 6.184 0 2.181-1.97 3.83-4.985 3.83z" fill="#4A47D2"/><path fill-rule="evenodd" clip-rule="evenodd" d="M236.902 39.453h2.269v-13.29h-2.269v13.288zm-.373-16.95c0-.849.673-1.503 1.546-1.503.823 0 1.495.654 1.495 1.503a1.49 1.49 0 0 1-1.495 1.504 1.562 1.562 0 0 1-.596-.108 1.522 1.522 0 0 1-.839-.817 1.457 1.457 0 0 1-.111-.579zm16.502 9.432c0-2.715-1.521-4.097-3.814-4.097-2.318 0-3.914 1.406-3.914 4.268v7.346h-2.268V26.168h2.268v1.89c.898-1.382 2.544-2.133 4.388-2.133 3.165 0 5.583 1.89 5.583 5.698v7.832h-2.243v-7.519zm12.039-4.073c-2.493 0-4.611 1.77-4.611 4.899 0 3.127 2.118 4.97 4.611 4.97s4.637-1.82 4.637-4.946c0-3.08-2.144-4.923-4.637-4.923zm-.448-1.916c2.492 0 4.287 1.213 5.085 2.644v-2.426H272v13.58c0 3.661-2.518 6.256-6.532 6.256-3.588 0-6.156-1.771-6.605-4.608h2.244c.499 1.601 2.119 2.691 4.361 2.691 2.419 0 4.238-1.502 4.238-4.34v-2.788c-.822 1.431-2.592 2.717-5.084 2.717-3.666 0-6.481-2.79-6.481-6.911 0-4.147 2.817-6.814 6.481-6.814" fill="#4A47D2"/></svg>