<svg width="60" height="60" viewBox="0 0 60 60" fill="none" xmlns="http://www.w3.org/2000/svg"><g clip-path="url(#a)" fill-rule="evenodd" clip-rule="evenodd" fill="#4A47D2"><path d="M33.88 12.939c4.672 0 8.9 1.893 11.966 4.952L55 8.735A29.783 29.783 0 0 0 33.88-.01C17.379-.01 4 13.369 4 29.873c0 10.215 5.129 19.23 12.948 24.62v-24.62c0-9.352 7.581-16.934 16.933-16.934zm0 33.867a16.89 16.89 0 0 1-6.474-1.284v13.522c2.085.462 4.25.711 6.475.711 8.12 0 15.48-3.243 20.865-8.5l-9.156-9.156a16.871 16.871 0 0 1-11.71 4.707z"/><path d="M33.88 36.347a6.446 6.446 0 0 0 4.309-1.65l-4.574-4.575 4.835-4.834a6.473 6.473 0 1 0-7.62 10.297 6.473 6.473 0 0 0 3.05.764"/><path d="M33.88 36.347a6.446 6.446 0 0 0 4.309-1.65l-4.574-4.575 4.835-4.834a6.473 6.473 0 1 0-7.62 10.297 6.473 6.473 0 0 0 3.05.764"/><path d="M33.88 36.347a6.446 6.446 0 0 0 4.309-1.65l-4.574-4.575 4.835-4.834a6.473 6.473 0 1 0-7.62 10.297 6.473 6.473 0 0 0 3.05.764"/><path d="M33.88 36.347a6.446 6.446 0 0 0 4.309-1.65l-4.574-4.575 4.835-4.834a6.473 6.473 0 1 0-7.62 10.297 6.473 6.473 0 0 0 3.05.764"/><path d="M38.188 34.696a6.453 6.453 0 0 0 2.167-4.824 6.453 6.453 0 0 0-1.906-4.587l-4.835 4.836 4.574 4.575z"/><path d="M38.188 34.698a6.453 6.453 0 0 0 2.167-4.824 6.453 6.453 0 0 0-1.906-4.587l-4.835 4.836 4.574 4.575z"/></g><defs><clipPath id="a"><path fill="#fff" d="M0 0h60v60H0z"/></clipPath></defs></svg>