<svg width="150" height="34" viewBox="0 0 150 34" fill="none" xmlns="http://www.w3.org/2000/svg"><path fill-rule="evenodd" clip-rule="evenodd" d="M16.494 7.76a9.375 9.375 0 0 1 6.605 2.702l5.053-4.995a16.455 16.455 0 0 0-5.347-3.535c-2-.82-4.145-1.24-6.31-1.237C7.384.695 0 7.995 0 17c0 5.573 2.831 10.491 7.147 13.432V17c0-5.103 4.185-9.24 9.347-9.24zm0 18.478a9.419 9.419 0 0 1-3.574-.7v7.377c1.151.252 2.347.388 3.574.388 4.483 0 8.545-1.77 11.518-4.638l-5.054-4.995a9.372 9.372 0 0 1-6.464 2.568z" fill="#4A47D2"/><path fill-rule="evenodd" clip-rule="evenodd" d="M16.494 20.532c.914 0 1.746-.342 2.378-.9l-2.524-2.496 2.668-2.638a3.58 3.58 0 0 0-1.49-.879 3.613 3.613 0 0 0-3.301.654 3.537 3.537 0 0 0-1.033 1.38 3.497 3.497 0 0 0 .332 3.312c.327.482.769.878 1.287 1.151a3.606 3.606 0 0 0 1.683.417" fill="#4A47D2"/><path fill-rule="evenodd" clip-rule="evenodd" d="M16.494 20.532c.914 0 1.746-.342 2.378-.9l-2.524-2.496 2.668-2.638a3.58 3.58 0 0 0-1.49-.879 3.613 3.613 0 0 0-3.301.654 3.537 3.537 0 0 0-1.033 1.38 3.497 3.497 0 0 0 .332 3.312c.327.482.769.878 1.287 1.151a3.606 3.606 0 0 0 1.683.417" fill="#4A47D2"/><path fill-rule="evenodd" clip-rule="evenodd" d="M16.494 20.532c.914 0 1.746-.342 2.378-.9l-2.524-2.496 2.668-2.638a3.58 3.58 0 0 0-1.49-.879 3.613 3.613 0 0 0-3.301.654 3.537 3.537 0 0 0-1.033 1.38 3.497 3.497 0 0 0 .332 3.312c.327.482.769.878 1.287 1.151a3.606 3.606 0 0 0 1.683.417" fill="#4A47D2"/><path fill-rule="evenodd" clip-rule="evenodd" d="M16.494 20.532c.914 0 1.746-.342 2.378-.9l-2.524-2.496 2.668-2.638a3.58 3.58 0 0 0-1.49-.879 3.613 3.613 0 0 0-3.301.654 3.537 3.537 0 0 0-1.033 1.38 3.497 3.497 0 0 0 .332 3.312c.327.482.769.878 1.287 1.151a3.606 3.606 0 0 0 1.683.417" fill="#4A47D2"/><path fill-rule="evenodd" clip-rule="evenodd" d="M18.872 19.63a3.485 3.485 0 0 0 .923-3.987c-.18-.43-.445-.82-.778-1.147l-2.67 2.638 2.525 2.497z" fill="#4A47D2"/><path fill-rule="evenodd" clip-rule="evenodd" d="M18.872 19.633a3.52 3.52 0 0 0 .884-1.19 3.486 3.486 0 0 0 .04-2.798c-.18-.43-.446-.82-.78-1.147l-2.668 2.638 2.524 2.497z" fill="#4A47D2"/><path d="M39.448 15.466c-.712-1.779-2.358-2.78-4.428-2.78-2.673 0-4.77 1.95-4.77 4.704 0 2.755 2.097 4.678 4.77 4.678 2.07 0 3.716-.988 4.429-2.754h-1.494c-.522 1.094-1.536 1.713-2.934 1.713-2.002 0-3.497-1.396-3.497-3.637 0-2.253 1.495-3.65 3.496-3.65 1.399 0 2.413.62 2.935 1.726h1.493zm1.851 6.524h1.247v-3.927c0-1.673.906-2.188 2.098-2.188h.33v-1.238c-1.194 0-2.003.5-2.428 1.304V14.77H41.3v7.22zm11.584-7.222h-1.289l-2.33 5.851-2.358-5.85H45.52l3.03 7.142-1.48 3.479h1.288l4.524-10.622zm9.816.988h.973v4.257c0 1.45.754 1.976 2.085 1.976h1.123v-1.014h-.918c-.768 0-1.043-.25-1.043-.962v-4.257h1.961v-.988h-1.96v-1.819h-1.248v1.819h-.973v.988zM85.1 21.99h1.247v-3.927c0-1.673.905-2.188 2.098-2.188h.33v-1.238c-1.194 0-2.002.5-2.427 1.304V14.77H85.1v7.22zm20.551-4.903c-.384-1.515-1.604-2.438-3.469-2.438-2.139 0-3.66 1.45-3.66 3.717 0 2.292 1.521 3.742 3.66 3.742 1.865 0 3.085-1.002 3.469-2.438h-1.343c-.275.91-1.015 1.423-2.126 1.423-1.371 0-2.386-.935-2.386-2.727 0-1.767 1.015-2.702 2.386-2.702 1.11 0 1.865.553 2.125 1.423h1.344zm9.747 2.781c.082 1.318 1.316 2.24 3.071 2.24 1.659 0 2.742-.896 2.742-2.082-.055-2.583-4.415-1.648-4.415-3.36 0-.58.549-1.002 1.467-1.002 1.001 0 1.577.527 1.632 1.252h1.247c-.082-1.41-1.179-2.267-2.837-2.267-1.673 0-2.756.91-2.756 2.016 0 2.689 4.442 1.753 4.442 3.36 0 .594-.549 1.068-1.536 1.068-1.056 0-1.7-.527-1.768-1.225h-1.289z" fill="#4A47D2"/><path fill-rule="evenodd" clip-rule="evenodd" d="M58.189 14.65c2.015 0 3.565 1.449 3.565 3.702 0 2.24-1.55 3.756-3.565 3.756-1.372 0-2.345-.712-2.811-1.45v4.758H54.13V14.768h1.248v1.33c.453-.764 1.44-1.449 2.81-1.449zm-2.811 3.716c0-1.674 1.193-2.676 2.55-2.676 1.385 0 2.55.962 2.55 2.663 0 1.7-1.165 2.7-2.55 2.7-1.357 0-2.55-.988-2.55-2.688zm16.286 3.742c-2.125 0-3.742-1.45-3.742-3.742 0-2.28 1.672-3.717 3.798-3.717 2.138 0 3.797 1.436 3.797 3.717 0 2.292-1.714 3.742-3.852 3.742zm2.578-3.742c0 1.831-1.275 2.688-2.578 2.688-1.302 0-2.467-.857-2.467-2.688 0-1.82 1.193-2.676 2.51-2.676 1.288 0 2.535.857 2.535 2.676zm6.005-.212H78.41v3.835h-1.248v-9.185h3.085c2.248 0 3.304 1.186 3.304 2.689 0 1.396-.932 2.661-3.304 2.661zm2.029-2.661c0 1.028-.604 1.673-2.03 1.673H78.41v-3.373h1.837c1.425 0 2.029.632 2.029 1.7zm11.214 6.615c-2.125 0-3.742-1.45-3.742-3.742 0-2.28 1.672-3.717 3.797-3.717 2.139 0 3.798 1.436 3.798 3.717 0 2.292-1.714 3.742-3.852 3.742zm2.577-3.742c0 1.831-1.274 2.688-2.577 2.688-1.302 0-2.467-.857-2.467-2.688 0-1.82 1.192-2.676 2.508-2.676 1.29 0 2.536.857 2.536 2.676zm14.492 3.742c-2.139 0-3.716-1.45-3.716-3.742 0-2.28 1.522-3.717 3.716-3.717 2.179 0 3.605 1.476 3.605 3.453 0 .264-.014.474-.041.724h-6.005c.097 1.463 1.166 2.267 2.441 2.267 1.123 0 1.837-.553 2.111-1.33h1.344c-.384 1.317-1.591 2.345-3.455 2.345zm2.317-4.256h-4.744c.137-1.41 1.152-2.188 2.371-2.188 1.29 0 2.386.777 2.373 2.188z" fill="#4A47D2"/><path d="M125.625 22.108c-1.755 0-2.989-.922-3.071-2.24h1.288c.069.698.713 1.225 1.769 1.225.987 0 1.536-.474 1.536-1.067 0-1.608-4.442-.672-4.442-3.36 0-1.108 1.083-2.017 2.755-2.017 1.659 0 2.756.857 2.838 2.267h-1.247c-.055-.725-.631-1.252-1.632-1.252-.919 0-1.467.421-1.467 1.001 0 1.713 4.36.778 4.415 3.361 0 1.186-1.084 2.082-2.742 2.082z" fill="#4A47D2"/><path fill-rule="evenodd" clip-rule="evenodd" d="M130.296 22.136h1.248v-7.222h-1.248v7.222zm-.205-9.211c0-.462.37-.818.85-.818.453 0 .822.356.822.818a.814.814 0 0 1-.822.817.865.865 0 0 1-.605-.236.775.775 0 0 1-.245-.582zm9.076 5.125c0-1.475-.836-2.226-2.098-2.226-1.275 0-2.152.764-2.152 2.32v3.992h-1.248v-7.22h1.248v1.027c.493-.751 1.399-1.16 2.413-1.16 1.741 0 3.071 1.028 3.071 3.097v4.257h-1.234V18.05zm6.622-2.213c-1.372 0-2.536.962-2.536 2.662s1.164 2.701 2.536 2.701c1.371 0 2.55-.988 2.55-2.688 0-1.674-1.179-2.675-2.55-2.675zm-.247-1.041c1.371 0 2.358.659 2.797 1.436v-1.318h1.261v7.38c0 1.99-1.385 3.4-3.592 3.4-1.974 0-3.387-.962-3.633-2.504h1.234c.274.87 1.165 1.463 2.399 1.463 1.33 0 2.33-.817 2.33-2.36V20.78c-.452.777-1.425 1.476-2.796 1.476-2.016 0-3.565-1.516-3.565-3.756 0-2.254 1.55-3.703 3.565-3.703" fill="#4A47D2"/></svg>