<svg width="340" height="260" viewBox="0 0 340 260" fill="none" xmlns="http://www.w3.org/2000/svg"><g clip-path="url(#a)"><path d="M219.755 116.586s16.616 26.547 32.496 41.173c15.88 14.626 34.364 29.609 23.17 57.124-11.195 27.514-44.188 38.782-103.189 37.344-59.002-1.438-79.834-1.751-92.774-30.93-12.94-29.18 30.126-35.724 59.543-44.595 29.418-8.872 80.754-60.116 80.754-60.116z" fill="#E3E5FC"/><path opacity=".49" d="M222.592 174.541s8.093 31.141-20.76 38.533c-28.853 7.395-82.691 6.306-102.959-8.082-20.268-14.387 123.719-30.451 123.719-30.451z" fill="url(#b)"/><path d="M297.704 228.449c2.857-1.754 4.219-5.596 3.101-8.749-1.828-5.153-6.556-3.416-9.915-6.123-3.958-3.186.828-8.198.564-11.961-.289-4.139-4.027-8.137-5.153-12.138-2.582-9.195 7.904-2.332 10.894-3.405 1.251-.448 2.071-1.701 2.36-2.997.734-3.306-.662-5.976 1.153-9.104 1.754-3.02 4.344-4.383 3.596-8.484-.422-2.322-1.859-4.449-1.823-6.81.011-.676.203-1.435.795-1.765.45-.252 1.012-.183 1.498-.014 1.615.566 2.676 2.067 3.977 3.178 1.301 1.111 3.391 1.798 4.638.629.831-.778.912-2.036 1.081-3.161.303-2.028 1.732-3.436 3.505-2.264 1.931 1.278 1.192 6.306.9 8.11-.461 2.859-1.161 5.829-.308 8.6 1.409 4.582 5.261-.552 6.939-2.07 1.376-1.244 3.674-1.989 4.995-.69 2.629 2.585-1.598 6.04-2.154 8.489-.267 1.167.077 2.563 1.117 3.161 3.043 1.757 5.614-1.374 6.075 3.3.317 3.203-2.59 6.256-.786 9.459 1.575 2.798 6.82 3.987 4.746 7.913-1.272 2.41-6.753 2.302-6.464 5.732.189 2.236 3.56 3.25 3.563 5.494.003 1.69-1.97 2.687-3.663 2.773-1.692.086-3.477-.307-5.036.352-1.77.748-2.796 2.917-2.248 4.757.478 1.599 1.97 3.053 1.501 4.655-.565 1.925-3.241 1.995-5.228 1.687-8.121-1.266-16.816-2.111-24.22 1.446z" fill="#FAE026"/><path d="M313.039 227.652a.518.518 0 0 1-.519-.518v-36.12a.52.52 0 0 1 1.039 0v36.117a.52.52 0 0 1-.52.521z" fill="#fff"/><path d="M313.039 213.594a.518.518 0 0 1-.403-.847l9.502-11.678a.522.522 0 0 1 .734-.075c.222.18.258.507.075.731l-9.502 11.678a.529.529 0 0 1-.406.191zm0-9.865a.513.513 0 0 1-.336-.121l-11.325-9.501a.52.52 0 1 1 .67-.795l11.325 9.5a.522.522 0 0 1 .064.732.511.511 0 0 1-.398.185z" fill="#fff"/><path d="M296.12 223.386c1.49 9.871 2.832 20.197 5.339 29.722.208.793.453 1.624.959 2.133.597.602 1.409.613 2.156.596 4.325-.1 8.657.177 12.982.153 4.088-.023 7.464.307 7.892-6.461.148-2.347.52-26.146 2.691-26.146-.009.003-32.019.003-32.019.003z" fill="#978CFF"/><path d="M325.215 229.285h-26.171c-3.255 0-5.92-2.654-5.92-5.901 0-3.245 2.662-5.902 5.92-5.902h26.171c3.254 0 5.919 2.655 5.919 5.902 0 3.247-2.665 5.901-5.919 5.901z" fill="#A7ADFF"/><path d="M199.059 12.574s3.429 7.597-1.929 12.274c-5.358 4.676-12.642.975-19.713 5.258-7.07 4.283-6.308 9.36-3.065 20.66 3.858 13.443 8.071 13.041 11.859 14.014 3.788.975 4.919 11.495 5.347 16.365.428 4.871 1.07 8.182-12.429 14.806-13.498 6.625-6.133 16.757-4.78 29.889 1.498 14.526-15.791 22.904-18.789 26.412-2.999 3.507-10.072 4.092-13.929-3.311-3.858-7.403 15.743-12.852 14.031-24.735-1.714-11.883-12.181-19.879 2.604-31.568 14.785-11.69 11.865-21.037 6.937-30.582-4.927-9.544-7.284-13.246-3.215-25.52 4.068-12.273-.214-8.572 5.141-18.313 5.361-9.738 24.86-20.455 31.93-5.649z" fill="#7179FF"/><path d="M189.734 70.231l1.076 20.001 15.705 6.037s-9.444-13.775-7.843-26.04c1.601-12.263-8.938.002-8.938.002z" fill="#D4A79A"/><path d="M226.13 135.117s-1.042-1.903-4.166-11.678c-3.124-9.775-4.252-13.41-8.59-22.868-4.338-9.459-13.365-15.368-13.365-15.368l-11.281-.607s-1.389.086-7.895 5.45c-6.509 5.363-12.756 20.676-12.756 20.676l-2.777 30.451 19.527 14.36 13.801 4.959c-.665-.883-1.201-1.82-1.534-2.812-2.313-6.851 5.436-44.797 5.697-48.171.261-3.375 6.817 28.808 6.817 28.808l5.678-1.643 3.896 12.376 2.437-12.636 4.511-1.297z" fill="#4A53FF"/><path d="M219.969 151.555l-.79-2.504-1.259 6.527 2.049-4.023z" fill="url(#c)"/><path d="M209.602 138.316s-6.556-32.183-6.817-28.808c-.261 3.374-8.009 41.32-5.697 48.171.333.992.87 1.929 1.534 2.813l14.199 5.1 5.099-10.018 1.259-6.528-3.896-12.376-5.681 1.646z" fill="#FDC510"/><path d="M209.602 138.316s-6.556-32.183-6.817-28.808c-.261 3.374-8.009 41.32-5.697 48.171.333.992.87 1.929 1.534 2.813l14.199 5.1 5.099-10.018 1.259-6.528-3.896-12.376-5.681 1.646z" fill="#4441E9"/><path d="M94.541 126.213l79.722 3.834 15.472 14.939-74.464-1.87-20.73-16.903z" fill="#CED0F0"/><path d="M169.717 132.458l-71.975-4.846c-1.945.15-3.632-1.155-3.768-2.92L79.47 85.899c-.136-1.762 1.328-3.314 3.27-3.463l71.975 4.848c1.945-.15 3.632 1.155 3.768 2.92l14.505 38.794c.139 1.759-1.329 3.31-3.271 3.46z" fill="#5C93FF"/><path d="M133.609 110.701c.855-3.922-2.173-7.908-6.762-8.902-4.59-.995-9.004 1.379-9.859 5.301-.855 3.922 2.173 7.907 6.762 8.902 4.59.994 9.004-1.379 9.859-5.301z" fill="#4A53FF"/><path d="M61.744 195.1l-20.351 29.714 9.265 7.805 19.388-32.261c0-.003-4.444-4.987-8.302-5.258z" fill="#D4A79A"/><path d="M.175 241.388s7.83 2.665 22.831 3.774c15.002 1.111 31.746 1.665 34.79-.555 3.042-2.219 4.999-21.089 0-21.089-5 0-6.946 7.214-15.764.776-7.554-5.517-13.59 4.884-26.744 7.657-13.153 2.774-18.48 3.888-15.113 9.437z" fill="#FAE026"/><path d="M188.426 162.969c-1.798-3.371-11.531-1.471-23.195-5.796-11.667-4.324-19.201-13.409-32.455-23.876-13.253-10.467-12.347-8.653-18.067-9.085-5.719-.432-12.801 14.967-16.797 23.101-8.413 17.128-19.06 32.432-34.964 42.39-4.833 3.025-26.127 14.534-29.684 19.355-7.493 10.146 29.345 10.231 38.977 11.403 9.535 1.158 14.882-4.241 18.74-12.775 4.402-9.733 9.218-19.258 14.029-28.783 2.407-4.765 4.824-9.528 7.184-14.318 1.017-2.064 3.218-9.556 5.672-10.49 7.548-2.864 17.511 20.073 19.629 25.226 4.266 10.382 19.882 22.494 31.229 23.705 11.348 1.211 19.882-6.314 23.604-17.302 3.724-10.988-3.902-22.755-3.902-22.755z" fill="#71A1FF"/><path d="M100.566 197.352l-20.351 29.714 9.266 7.805 19.387-32.261c-.003-.003-4.444-4.987-8.302-5.258z" fill="#EAC2AB"/><path d="M38.997 243.64s7.829 2.665 22.83 3.774c15.003 1.111 31.747 1.665 34.79-.555 3.043-2.219 5-21.089 0-21.089s-6.945 7.214-15.763.776c-7.554-5.517-13.59 4.884-26.744 7.657-13.154 2.774-18.484 3.888-15.113 9.437z" fill="#FDC510"/><path d="M217.885 162.969c-1.718-3.371-11.022-1.471-22.172-5.796-11.15-4.324-18.354-13.409-31.024-23.876-12.67-10.467-11.803-8.653-17.269-9.085-5.467-.432-12.237 14.967-16.055 23.101-11.748 25.021-35.923 41.813-57.926 57.262-1.367.959-2.901 2.291-2.618 3.934.145.837.745 1.513 1.36 2.103 8.162 7.855 23.452 11.387 34.441 10.875 11.064-.516 17.07-9.72 21.249-18.821 7.476-16.283 14.78-33.061 23.862-48.515 3.413-5.802 14.29 17.621 15.235 19.801 5.634 13.022 16.817 27.37 32.088 29.074 10.847 1.211 19.004-6.314 22.564-17.302 3.554-10.988-3.735-22.755-3.735-22.755z" fill="#5C93FF"/><path d="M175.703 27.655s-8.388 6.167-5.05 20.02 13.718 25.683 17.906 24.85c11.581-2.306 15.641-10.465 19.657-17.466 4.925-8.586-4.852-29.532-4.852-29.532l-9.236-4.965-18.425 7.093z" fill="#EAC2AB"/><path d="M192.416 21.535s5.828 1.948 10.95 10.13c5.122 8.18 1.762 9.516 1.762 20.485 0 3.205-.603 6.364-2.345 9.096-1.265 1.983-3.069 3.546-4.377 5.49-1.654 2.456-2.182 5.226-2.049 8.154.281 6.193 1.273 11.335 6.79 14.831 5.964 3.78 8.746 8.827 10.313 15.648 1.876 8.168 15.383 12.789 20.096 9.672 4.713-3.116-9.346-1.036-6.559-14.476 2.785-13.442 3.741-19.147-4.402-22.882-8.143-3.735-4.252-4.72.033-12.902 4.286-8.182-6.761-8.082-2.401-22.323 5.033-16.437.473-34.756-24.17-29.692-24.642 5.065-3.641 8.769-3.641 8.769z" fill="#5C93FF"/><path d="M186.416 37.178c7.071-4.286 5.359-7.658 10.717-12.332 5.355-4.676 1.929-12.273 1.929-12.273-7.071-14.806-26.569-4.092-31.927 5.649-5.358 9.741-1.07 6.04-5.142 18.313-2.807 8.459-2.556 12.848-.517 17.884l11.526 4.652c-4.667-17.648 8.095-18.67 13.414-21.893z" fill="#5E67FF"/><path d="M215.108 151.033s0 4.757-1.823 3.892c-1.823-.864-18.917-11.506-21.174-14.013-2.257-2.51-7.551-11.592-7.809-13.41-.262-1.817.608-1.903-2.952-1.385-3.557.518-9.98 2.51-9.024 3.632.954 1.125 3.644.346 3.644.346s-3.152 1.99-1.62 2.25c1.531.261 6.044-.607 6.044.779 0 1.385-.261 6.056.781 8.392 1.042 2.335 2.343 3.114 5.728 3.892 3.385.779 3.982.518 6.764 3.375 2.782 2.856 18.315 16.609 20.31 17.302 1.996.693 2.863 1.903 5.295-2.51 2.431-4.414 4.165-7.785 4.338-14.706.172-6.921-.609-13.582-.609-13.582l-7.723 1.386c.005 0 .697 7.785-.17 14.36z" fill="#EAC2AB"/><path d="M240.093 63.153c1.384-6.323 4.474-12.626 6.742-18.696 1.206-3.225 3.854-7.575 4.124-11.03.089-1.133 1.173-1.972 2.421-1.875l46.228-3.114c1.248.097 2.19 1.091 2.101 2.224l-9.316 24.916c-.089 1.133-1.173 1.973-2.42 1.876l-37.283 2.374c-2.284 1.383-5.908 2.765-8.195 4.142-2.538 1.526-5.672 4.984-4.402-.817z" fill="#E3E5FC"/><path d="M273.547 47.288l15.022-.65a1.84 1.84 0 0 0 1.756-1.913 1.84 1.84 0 0 0-1.918-1.75l-15.021.65a1.839 1.839 0 0 0-1.756 1.912 1.844 1.844 0 0 0 1.917 1.751zm-10.802-6.204l27.213-1.177a1.84 1.84 0 0 0 1.757-1.912 1.84 1.84 0 0 0-1.918-1.751l-27.213 1.178a1.84 1.84 0 0 0-1.757 1.911 1.843 1.843 0 0 0 1.918 1.751z" fill="#fff"/><path d="M104.76 68.816c-1.601-7.32-5.178-14.614-7.807-21.64-1.395-3.733-4.463-8.767-4.775-12.767-.102-1.31-1.356-2.283-2.8-2.17l-53.51-3.604c-1.446.11-2.535 1.263-2.432 2.574L44.219 60.05c.103 1.31 1.356 2.283 2.801 2.17l43.155 2.75c2.645 1.6 6.836 3.204 9.488 4.796 2.937 1.765 6.567 5.769 5.097-.95z" fill="#E3E5FC"/><path d="M66.035 50.452L48.65 49.7a2.132 2.132 0 0 1-2.034-2.214 2.133 2.133 0 0 1 2.22-2.028l17.387.754a2.132 2.132 0 0 1 2.034 2.213 2.135 2.135 0 0 1-2.22 2.028zm12.504-7.177l-31.502-1.363a2.132 2.132 0 0 1-2.034-2.214 2.133 2.133 0 0 1 2.22-2.028l31.502 1.363a2.132 2.132 0 0 1 2.034 2.214 2.135 2.135 0 0 1-2.22 2.028z" fill="#fff"/><g opacity=".72"><path d="M134.138 26.119c-1.031-4.713-3.335-9.41-5.025-13.933-.897-2.402-2.873-5.644-3.073-8.22-.067-.846-.873-1.47-1.804-1.397L89.783.25c-.931.072-1.631.815-1.567 1.657l6.942 18.568c.067.845.872 1.468 1.803 1.396l27.786 1.77c1.704 1.032 4.402 2.062 6.109 3.087 1.892 1.139 4.227 3.716 3.282-.61z" fill="#E3E5FC"/><path d="M109.203 14.295l-11.194-.485a1.37 1.37 0 0 1-1.309-1.424 1.372 1.372 0 0 1 1.429-1.305l11.194.485a1.371 1.371 0 0 1 1.309 1.424 1.372 1.372 0 0 1-1.429 1.305zm8.052-4.622l-20.283-.878a1.37 1.37 0 0 1-1.308-1.424 1.372 1.372 0 0 1 1.428-1.305l20.282.878a1.371 1.371 0 0 1 1.309 1.424 1.371 1.371 0 0 1-1.428 1.305z" fill="#fff"/></g><path d="M136.236 52.986l-17.386-.754a2.133 2.133 0 0 1-2.035-2.214 2.134 2.134 0 0 1 2.221-2.028l17.386.754a2.133 2.133 0 0 1 2.035 2.214 2.138 2.138 0 0 1-2.221 2.028zm1.734 8.468l-17.386-.753a2.132 2.132 0 0 1-2.034-2.214 2.133 2.133 0 0 1 2.22-2.028l17.387.754a2.132 2.132 0 0 1 2.034 2.213 2.134 2.134 0 0 1-2.221 2.028zm3.082 8.698l-17.386-.754a2.132 2.132 0 0 1-2.034-2.214 2.133 2.133 0 0 1 2.22-2.028l17.387.754a2.132 2.132 0 0 1 2.034 2.214 2.134 2.134 0 0 1-2.221 2.028z" fill="#E3E5FC"/></g><defs><linearGradient id="b" x1="232.689" y1="210.331" x2="231.237" y2="164.963" gradientUnits="userSpaceOnUse"><stop stop-color="#A7ADFF"/><stop offset="1" stop-color="#E3E5FC"/></linearGradient><linearGradient id="c" x1="228.449" y1="124.675" x2="193.257" y2="112.192" gradientUnits="userSpaceOnUse"><stop stop-color="#A7ADFF"/><stop offset="1" stop-color="#E3E5FC"/></linearGradient><clipPath id="a"><path fill="#fff" d="M0 0h340v260H0z"/></clipPath></defs></svg>