<svg width="260" height="260" viewBox="0 0 260 260" fill="none" xmlns="http://www.w3.org/2000/svg"><path fill-rule="evenodd" clip-rule="evenodd" d="M139.634 44.694c21.312 3.16 44.712-8.003 62.962 3.419 18.595 11.638 23.126 35.589 31.624 55.776 9.405 22.345 23.093 43.837 20.446 67.926-2.983 27.149-13.466 55.679-35.769 71.527-22.241 15.803-51.955 10.035-79.263 10.207-27.513.172-57.53 6.642-79.99-9.207-22.54-15.904-26.731-46.269-35.586-72.35-8.984-26.462-23.171-53.095-16.19-80.15 7.162-27.753 26.513-54.98 53.559-64.657 25.779-9.224 51.117 13.493 78.207 17.509z" fill="url(#a)"/><path d="M79.928 182.248s-11.423 26.297 48.618 33.313v26.592h69.412v-70.422l-118.922-3.217.892 13.734zm32.626-111.079a11.896 11.896 0 0 1-7.412 5.22c-3.065.695-6.28.151-8.945-1.512L61.543 52.084a11.868 11.868 0 0 1-5.233-7.394 11.844 11.844 0 0 1 1.516-8.925 11.895 11.895 0 0 1 7.411-5.22 11.92 11.92 0 0 1 8.945 1.512l34.648 22.78a11.866 11.866 0 0 1 5.242 7.398 11.847 11.847 0 0 1-1.518 8.934z" fill="#EAC2AB"/><path d="M184.782 201.537c14.396 0 26.067-11.644 26.067-26.007 0-14.363-11.671-26.007-26.067-26.007-14.397 0-26.067 11.644-26.067 26.007 0 14.363 11.67 26.007 26.067 26.007z" fill="#EAC2AB"/><path d="M180.09 4H80.233a4.101 4.101 0 0 0-4.106 4.096v186.417a4.101 4.101 0 0 0 4.106 4.097h99.857a4.102 4.102 0 0 0 4.106-4.097V8.096A4.102 4.102 0 0 0 180.09 4z" fill="url(#b)"/><path d="M178.159 6.63H82.157a4.567 4.567 0 0 0-4.572 4.562v180.23a4.567 4.567 0 0 0 4.572 4.562h96.002a4.567 4.567 0 0 0 4.572-4.562V11.192a4.567 4.567 0 0 0-4.572-4.561z" fill="#fff"/><path d="M156.573 11.38a8.494 8.494 0 0 1-2.86 5.169 8.533 8.533 0 0 1-5.543 2.065h-36.313a8.534 8.534 0 0 1-5.541-2.066 8.496 8.496 0 0 1-2.859-5.167H84.218a3.998 3.998 0 0 0-3.691 2.458 3.975 3.975 0 0 0-.304 1.525v171.883a3.967 3.967 0 0 0 1.168 2.819 4.005 4.005 0 0 0 2.824 1.167H176.1a3.993 3.993 0 0 0 3.691-2.458 3.966 3.966 0 0 0 .304-1.524V15.367a3.97 3.97 0 0 0-1.168-2.818 3.998 3.998 0 0 0-2.824-1.168h-19.531z" fill="#6C63FF"/><path d="M141.353 13.645h-22.092c-.37 0-.67.299-.67.668v.124c0 .37.3.669.67.669h22.092c.37 0 .67-.3.67-.669v-.124a.67.67 0 0 0-.67-.668zM147 15.106a.877.877 0 1 0 .002-1.754.877.877 0 0 0-.002 1.754z" fill="#DBDBDB"/><path d="M195.297 100.236c-1.475-6.369-7.845-10.338-14.228-8.867-6.383 1.471-10.362 7.827-8.887 14.195l15.984 69.018c1.475 6.369 7.845 10.338 14.228 8.867 6.383-1.471 10.362-7.827 8.887-14.195l-15.984-69.018z" fill="#EAC2AB"/><path d="M208.057 236.127h-93.85v18.058h93.85v-18.058z" fill="#4D8AF0"/><path opacity=".5" d="M130.158 131.385c16.649 0 30.146-13.466 30.146-30.076 0-16.611-13.497-30.077-30.146-30.077s-30.146 13.466-30.146 30.077c0 16.61 13.497 30.076 30.146 30.076z" fill="url(#c)"/><path d="M130.158 129.615c15.67 0 28.373-12.674 28.373-28.308 0-15.633-12.703-28.307-28.373-28.307-15.67 0-28.373 12.674-28.373 28.307 0 15.634 12.703 28.308 28.373 28.308z" fill="#69F0AE"/><path d="M117.843 97.53l10.639 9.731 15.073-22.114 5.322 4.424-20.395 26.538-15.073-16.807 4.434-1.773z" fill="#fff"/><path d="M92.628 174.9a11.897 11.897 0 0 1-7.412 5.22c-3.065.695-6.28.151-8.945-1.512l-14.44-10.487a11.868 11.868 0 0 1-5.232-7.394 11.847 11.847 0 0 1 1.515-8.925 11.898 11.898 0 0 1 7.412-5.22 11.919 11.919 0 0 1 8.945 1.512l14.436 10.507a11.869 11.869 0 0 1 5.225 7.385 11.845 11.845 0 0 1-1.504 8.914zm6.15-34.2a11.893 11.893 0 0 1-7.412 5.22c-3.064.695-6.28.152-8.945-1.511l-23.516-15.182a11.87 11.87 0 0 1-5.232-7.395 11.844 11.844 0 0 1 1.515-8.924 11.893 11.893 0 0 1 7.412-5.22 11.918 11.918 0 0 1 8.945 1.511l23.516 15.182a11.87 11.87 0 0 1 5.232 7.395 11.841 11.841 0 0 1-1.515 8.924zm6.154-34.176a11.89 11.89 0 0 1-7.412 5.22c-3.064.695-6.28.152-8.945-1.511L58.908 90.961a11.869 11.869 0 0 1-5.232-7.394 11.845 11.845 0 0 1 1.515-8.925 11.894 11.894 0 0 1 7.412-5.22 11.918 11.918 0 0 1 8.945 1.512l29.664 19.271a11.869 11.869 0 0 1 5.234 7.394 11.842 11.842 0 0 1-1.514 8.925z" fill="#EAC2AB"/><defs><linearGradient id="a" x1="205.074" y1="42.265" x2="48.855" y2="231.523" gradientUnits="userSpaceOnUse"><stop stop-color="#ECEFFF"/><stop offset="1" stop-color="#FAFBFF"/></linearGradient><linearGradient id="b" x1="63920.8" y1="127290" x2="63920.8" y2="14034.6" gradientUnits="userSpaceOnUse"><stop stop-color="gray" stop-opacity=".25"/><stop offset=".54" stop-color="gray" stop-opacity=".12"/><stop offset="1" stop-color="gray" stop-opacity=".1"/></linearGradient><linearGradient id="c" x1="21354.2" y1="22985.2" x2="21354.2" y2="12164.3" gradientUnits="userSpaceOnUse"><stop stop-color="gray" stop-opacity=".25"/><stop offset=".54" stop-color="gray" stop-opacity=".12"/><stop offset="1" stop-color="gray" stop-opacity=".1"/></linearGradient></defs></svg>