<svg width="52" height="52" viewBox="0 0 52 52" fill="none" xmlns="http://www.w3.org/2000/svg"><path fill-rule="evenodd" clip-rule="evenodd" d="M26.5 33.3h-9c-6.738 0-12.2 5.462-12.2 12.2v2.2h33.4v-2.2c0-6.738-5.462-12.2-12.2-12.2zm-9-2.3C9.492 31 3 37.492 3 45.5V48a2 2 0 0 0 2 2h34a2 2 0 0 0 2-2v-2.5C41 37.492 34.508 31 26.5 31h-9z" fill="#5B63FF"/><path fill-rule="evenodd" clip-rule="evenodd" d="M22 28.7a8.7 8.7 0 1 0 0-17.4 8.7 8.7 0 0 0 0 17.4zm0 2.3c6.075 0 11-4.925 11-11S28.075 9 22 9s-11 4.925-11 11 4.925 11 11 11zm18-16.3a5.7 5.7 0 1 0 0-11.4 5.7 5.7 0 0 0 0 11.4zm0 2.3a8 8 0 1 0 0-16 8 8 0 0 0 0 16z" fill="#5B63FF"/><path fill-rule="evenodd" clip-rule="evenodd" d="M43.813 6.186c.45.45.45 1.178 0 1.627l-4 4a1.15 1.15 0 0 1-1.626 0l-2-2a1.15 1.15 0 0 1 1.626-1.627L39 9.373l3.187-3.187a1.15 1.15 0 0 1 1.626 0z" fill="#5B63FF"/></svg>