<svg width="52" height="52" viewBox="0 0 52 52" fill="none" xmlns="http://www.w3.org/2000/svg"><g clip-path="url(#a)" fill-rule="evenodd" clip-rule="evenodd" fill="#5B63FF"><path d="M17.187 20.186a1.15 1.15 0 0 1 1.626 0l5.687 5.687 5.687-5.687a1.15 1.15 0 1 1 1.626 1.627L26.126 27.5l5.687 5.686a1.15 1.15 0 1 1-1.626 1.627L24.5 29.126l-5.687 5.687a1.15 1.15 0 1 1-1.626-1.627l5.687-5.686-5.687-5.687a1.15 1.15 0 0 1 0-1.627z"/><path d="M10.039 4.85a1.15 1.15 0 0 1 1.11 1.19l-.12 3.525c5.288-4.113 12.374-5.79 19.347-3.921C42.192 8.81 49.205 20.956 46.038 32.772 42.872 44.588 30.727 51.6 18.91 48.434a1.15 1.15 0 1 1 .596-2.221c10.589 2.837 21.473-3.447 24.31-14.037 2.838-10.589-3.446-21.473-14.035-24.31-6.274-1.682-12.652-.162-17.4 3.562l2.796.435a1.15 1.15 0 1 1-.354 2.272l-5.21-.81a1.15 1.15 0 0 1-.972-1.175l.21-6.189a1.15 1.15 0 0 1 1.188-1.11z"/></g><defs><clipPath id="a"><path d="M0 0h52v52H0V0z" fill="#fff"/></clipPath></defs></svg>