<svg width="52" height="52" viewBox="0 0 52 52" fill="none" xmlns="http://www.w3.org/2000/svg"><path fill-rule="evenodd" clip-rule="evenodd" d="M32 4.3H5a.7.7 0 0 0-.7.7v42a.7.7 0 0 0 .7.7h27a.7.7 0 0 0 .7-.7V5a.7.7 0 0 0-.7-.7zM5 2a3 3 0 0 0-3 3v42a3 3 0 0 0 3 3h27a3 3 0 0 0 3-3V5a3 3 0 0 0-3-3H5z" fill="#5B63FF"/><path fill-rule="evenodd" clip-rule="evenodd" d="M10.3 10.3v10.4h16.4V10.3H10.3zM10 8a2 2 0 0 0-2 2v11a2 2 0 0 0 2 2h17a2 2 0 0 0 2-2V10a2 2 0 0 0-2-2H10zm39.7 8.3H35.3v14.4h14.4V16.3zM33 14v19h19V14H33z" fill="#5B63FF"/><path fill-rule="evenodd" clip-rule="evenodd" d="M33 19v3h19v-3H33z" fill="#5B63FF"/></svg>