<svg width="52" height="52" viewBox="0 0 52 52" fill="none" xmlns="http://www.w3.org/2000/svg"><path fill-rule="evenodd" clip-rule="evenodd" d="M7.3 4.3v43.4h37.4V4.3H7.3zM7 2a2 2 0 0 0-2 2v44a2 2 0 0 0 2 2h38a2 2 0 0 0 2-2V4a2 2 0 0 0-2-2H7z" fill="#5B63FF"/><path fill-rule="evenodd" clip-rule="evenodd" d="M27.212 21.3h-2.424a6.49 6.49 0 0 0-6.397 5.4h15.218a6.49 6.49 0 0 0-6.397-5.4zM24.788 19A8.788 8.788 0 0 0 16 27.788c0 .67.543 1.212 1.212 1.212h17.576c.67 0 1.212-.543 1.212-1.212A8.788 8.788 0 0 0 27.212 19h-2.424zM26 16.7a3.7 3.7 0 1 0 0-7.4 3.7 3.7 0 0 0 0 7.4zm0 2.3a6 6 0 1 0 0-12 6 6 0 0 0 0 12zM13.35 36c0-.636.515-1.15 1.15-1.15h23a1.15 1.15 0 0 1 0 2.3h-23A1.15 1.15 0 0 1 13.35 36zm0 6c0-.636.515-1.15 1.15-1.15h23a1.15 1.15 0 0 1 0 2.3h-23A1.15 1.15 0 0 1 13.35 42z" fill="#5B63FF"/></svg>