<svg width="80" height="80" viewBox="0 0 80 80" fill="none" xmlns="http://www.w3.org/2000/svg"><path d="M56.32 16.5a.653.653 0 0 0-.653.653v6.528c0 .36.292.653.652.653h6.528c.36 0 .653-.292.653-.653v-6.528a.653.653 0 0 0-.653-.652H56.32zm-.653 47v-1.958a1.958 1.958 0 0 1 3.916 0v1.959H63.5v-1.959a1.958 1.958 0 0 1 3.917 0v3.917a1.958 1.958 0 0 1-1.959 1.958H49.792a1.958 1.958 0 0 1-1.959-1.958v-3.917a1.958 1.958 0 0 1 3.917 0v1.959h3.917zm-11.75-27.416h1.958a1.958 1.958 0 1 1 0 3.917h-7.833a1.958 1.958 0 0 1 0-3.917H40v-3.917h-5.875a1.958 1.958 0 0 1 0-3.916h11.75a1.958 1.958 0 1 1 0 3.916h-1.958v3.917zM63.5 40.001h-1.958a1.958 1.958 0 0 1 0-3.917H63.5v-1.958a1.958 1.958 0 1 1 3.917 0v7.833a1.958 1.958 0 0 1-3.917 0v-1.958zm-19.583 7.833h-1.959a1.958 1.958 0 1 1 0-3.917h3.917c1.082 0 1.958.877 1.958 1.959v7.833a1.958 1.958 0 0 1-1.958 1.958h-11.75a1.958 1.958 0 0 1 0-3.916h9.792v-3.917zm12.402-35.25h6.528a4.57 4.57 0 0 1 4.57 4.57v6.527a4.57 4.57 0 0 1-4.57 4.57H56.32a4.57 4.57 0 0 1-4.569-4.57v-6.528a4.57 4.57 0 0 1 4.57-4.569zm-39.166 0h6.528a4.57 4.57 0 0 1 4.569 4.57v6.527a4.57 4.57 0 0 1-4.57 4.57h-6.527a4.57 4.57 0 0 1-4.57-4.57v-6.528a4.57 4.57 0 0 1 4.57-4.569zm0 3.917a.653.653 0 0 0-.653.652v6.528c0 .36.292.653.653.653h6.528c.36 0 .652-.292.652-.653v-6.528a.653.653 0 0 0-.652-.652h-6.528zm0 35.25h6.528a4.57 4.57 0 0 1 4.569 4.57v6.527a4.57 4.57 0 0 1-4.57 4.57h-6.527a4.57 4.57 0 0 1-4.57-4.57V56.32a4.57 4.57 0 0 1 4.57-4.57zm0 3.916a.653.653 0 0 0-.653.653v6.528c0 .36.292.653.653.653h6.528c.36 0 .652-.293.652-.653V56.32a.653.653 0 0 0-.652-.653h-6.528zm26.764-39.166h-9.792a1.958 1.958 0 0 1 0-3.917h11.75c1.082 0 1.958.877 1.958 1.958v7.834a1.958 1.958 0 0 1-3.916 0V16.5zm-9.792 7.833a1.958 1.958 0 0 1 0-3.917h3.917a1.958 1.958 0 0 1 0 3.917h-3.917zm-19.583 23.5a1.958 1.958 0 1 1 0-3.917h7.833a1.958 1.958 0 1 1 0 3.917h-7.833zm15.666 0a1.958 1.958 0 1 1 0-3.917h3.917a1.958 1.958 0 1 1 0 3.917h-3.917zm5.875 15.667v1.958a1.958 1.958 0 0 1-3.916 0v-3.917c0-1.081.877-1.958 1.958-1.958h7.833a1.958 1.958 0 0 1 0 3.917h-5.875zM28.25 36.084h1.958a1.958 1.958 0 0 1 0 3.917h-3.916a1.958 1.958 0 0 1-1.959-1.959v-1.958h-1.958a1.958 1.958 0 0 1 0-3.917h3.917c1.081 0 1.958.877 1.958 1.959v1.958zm-15.667-1.958a1.958 1.958 0 1 1 3.917 0v3.916a1.958 1.958 0 1 1-3.917 0v-3.916zm39.167 0a1.958 1.958 0 1 1 3.917 0v7.833a1.958 1.958 0 0 1-3.917 0v-7.833zm7.833 17.625v-1.959c0-1.081.877-1.958 1.959-1.958h3.916a1.958 1.958 0 0 1 0 3.917H63.5v1.958a1.958 1.958 0 0 1-1.958 1.958h-7.834a1.958 1.958 0 0 1-1.958-1.958v-3.917a1.958 1.958 0 0 1 3.917 0v1.959h3.916zM4.75 18.459a1.958 1.958 0 0 1-3.917 0v-7.833c0-5.408 4.384-9.792 9.792-9.792h7.833a1.958 1.958 0 0 1 0 3.917h-7.833a5.875 5.875 0 0 0-5.875 5.875v7.833zM61.542 4.751a1.958 1.958 0 0 1 0-3.917h7.833c5.408 0 9.792 4.384 9.792 9.792v7.833a1.958 1.958 0 0 1-3.917 0v-7.833a5.875 5.875 0 0 0-5.875-5.875h-7.833zm-43.084 70.5a1.958 1.958 0 1 1 0 3.916h-7.833c-5.408 0-9.792-4.384-9.792-9.791v-7.834a1.958 1.958 0 0 1 3.917 0v7.834a5.875 5.875 0 0 0 5.875 5.875h7.833zM75.25 61.542a1.958 1.958 0 0 1 3.917 0v7.834c0 5.407-4.384 9.791-9.792 9.791h-7.833a1.958 1.958 0 0 1 0-3.916h7.833a5.875 5.875 0 0 0 5.875-5.875v-7.834z" fill="#7E95AD"/></svg>