<svg width="52" height="52" viewBox="0 0 52 52" fill="none" xmlns="http://www.w3.org/2000/svg"><path fill-rule="evenodd" clip-rule="evenodd" d="M25.721.76l20.972 8.628.087.659c1.43 10.732-2.225 20.706-6.93 27.966-2.355 3.634-4.996 6.624-7.444 8.72-1.224 1.046-2.418 1.886-3.523 2.47-1.085.572-2.176.948-3.168.948-.984 0-2.07-.362-3.157-.92-1.106-.569-2.302-1.388-3.531-2.413-2.459-2.051-5.118-4.99-7.509-8.59C6.74 31.035 2.951 21.07 4.093 10.08l.071-.691L25.721.759zM6.316 11.005c-.85 10.054 2.652 19.226 7.118 25.951 2.283 3.437 4.797 6.203 7.066 8.096 1.136.948 2.192 1.661 3.11 2.133.936.481 1.643.666 2.105.666.454 0 1.157-.188 2.094-.682.916-.484 1.97-1.216 3.101-2.184 2.263-1.936 4.76-4.753 7.01-8.223 4.405-6.797 7.768-15.966 6.661-25.756L25.71 3.242 6.316 11.005z" fill="#5B63FF"/><path fill-rule="evenodd" clip-rule="evenodd" d="M25.61 13.766l10.296 4.074.092.665c.693 5.003-1.08 9.62-3.323 12.949-1.125 1.67-2.391 3.052-3.58 4.03a9.803 9.803 0 0 1-1.748 1.177c-.544.276-1.148.49-1.743.49-.587 0-1.187-.205-1.732-.474-.562-.278-1.156-.671-1.752-1.15-1.194-.958-2.47-2.317-3.611-3.97-2.28-3.302-4.112-7.908-3.56-13.017l.075-.698 10.586-4.076zm-8.433 5.711c-.251 4.146 1.27 7.942 3.224 10.772 1.029 1.49 2.156 2.68 3.159 3.485.501.402.954.694 1.331.88.396.196.628.236.713.236.077 0 .306-.039.701-.24.376-.19.828-.49 1.329-.902 1-.823 2.12-2.035 3.133-3.54 1.93-2.863 3.389-6.657 3.028-10.69l-8.197-3.243-8.42 3.242z" fill="#5B63FF"/></svg>