<svg width="52" height="52" viewBox="0 0 52 52" fill="none" xmlns="http://www.w3.org/2000/svg"><path fill-rule="evenodd" clip-rule="evenodd" d="M9.383 47.707V22.285H7.428v27.238h37.143V22.285h-1.955v25.422H9.383z" fill="#5B63FF"/><path fill-rule="evenodd" clip-rule="evenodd" d="M48.286 17.698L41.6 3.715H10.4L3.714 17.698c0 .4.039.789.112 1.165.516 2.66 2.764 4.661 5.46 4.661 1.694 0 3.211-.79 4.233-2.038a5.916 5.916 0 0 0 1.227-2.623c.073-.376.111-.766.111-1.165 0 .4.039.789.112 1.165a5.916 5.916 0 0 0 1.226 2.623c1.022 1.248 2.54 2.038 4.234 2.038s3.211-.79 4.233-2.038a5.917 5.917 0 0 0 1.227-2.623A6.11 6.11 0 0 0 26 17.698c0 .4.038.789.111 1.165a5.916 5.916 0 0 0 1.227 2.623c1.022 1.248 2.54 2.038 4.233 2.038 1.695 0 3.212-.79 4.234-2.038a5.916 5.916 0 0 0 1.227-2.623 6.11 6.11 0 0 0 .11-1.165c0 .4.04.789.112 1.165a5.917 5.917 0 0 0 1.227 2.623c1.022 1.248 2.54 2.038 4.233 2.038 2.696 0 4.944-2.001 5.46-4.66a6.11 6.11 0 0 0 .112-1.166zm-3.049-1.165L40.223 6.045H11.777L6.763 16.533h38.474zm.63 2.33c-.459 1.358-1.697 2.33-3.153 2.33-1.455 0-2.693-.972-3.152-2.33h6.305zm-11.143 0H28.42c.459 1.358 1.697 2.33 3.152 2.33 1.456 0 2.694-.972 3.153-2.33zm-11.143 0h-6.305c.459 1.358 1.697 2.33 3.153 2.33 1.455 0 2.693-.972 3.152-2.33zm-11.143 0H6.133c.46 1.358 1.697 2.33 3.153 2.33 1.455 0 2.694-.972 3.152-2.33zM29.49 36.952v10.285h7.878V36.952h-7.879zm-1.126-2.286c-.622 0-1.126.512-1.126 1.143V48.38c0 .631.504 1.143 1.126 1.143h10.13c.621 0 1.125-.512 1.125-1.143V35.81c0-.631-.504-1.143-1.126-1.143h-10.13zm-13.732-6.19v3.715h7.879v-3.715h-7.88zM13.506 26c-.621 0-1.125.554-1.125 1.238v6.19c0 .684.504 1.239 1.125 1.239h10.13c.622 0 1.126-.555 1.126-1.238v-6.19c0-.685-.504-1.239-1.126-1.239h-10.13z" fill="#5B63FF"/></svg>