<svg width="52" height="52" viewBox="0 0 52 52" fill="none" xmlns="http://www.w3.org/2000/svg"><path fill-rule="evenodd" clip-rule="evenodd" d="M25 27V8a19 19 0 1 0 19 19H25zm16.54 2.3H22.7V10.46A16.7 16.7 0 1 0 41.54 29.3z" fill="#5B63FF"/><path fill-rule="evenodd" clip-rule="evenodd" d="M33.447 4.48c2.59.72 5.938 2.254 8.987 5.494 3.024 3.214 4.458 6.446 5.13 8.897.337 1.224.482 2.25.544 2.98a11.456 11.456 0 0 1 .04 1.109l-.003.071v.023l-.001.008v.004L46.996 23l1.148.067-.064 1.083H27.85V3.912l1.09-.057.06 1.149-.06-1.149h.014l.024-.001.076-.003a12.82 12.82 0 0 1 1.203.046c.79.067 1.897.224 3.19.584zM30.15 6.198V21.85h15.648a14.51 14.51 0 0 0-.451-2.37c-.587-2.138-1.853-5.024-4.588-7.93-2.708-2.877-5.66-4.223-7.928-4.853a15.314 15.314 0 0 0-2.681-.5z" fill="#5B63FF"/></svg>