<svg width="52" height="52" viewBox="0 0 52 52" fill="none" xmlns="http://www.w3.org/2000/svg"><path fill-rule="evenodd" clip-rule="evenodd" d="M26 49.7c13.09 0 23.7-10.61 23.7-23.7S39.09 2.3 26 2.3 2.3 12.91 2.3 26 12.91 49.7 26 49.7zm0 2.3c14.36 0 26-11.64 26-26S40.36 0 26 0 0 11.64 0 26s11.64 26 26 26z" fill="#5B63FF"/><path fill-rule="evenodd" clip-rule="evenodd" d="M25 9.85c.635 0 1.15.514 1.15 1.15v15.35H37.5a1.15 1.15 0 0 1 0 2.3H25a1.15 1.15 0 0 1-1.15-1.15V11c0-.636.515-1.15 1.15-1.15z" fill="#5B63FF"/></svg>