<svg width="52" height="52" viewBox="0 0 52 52" fill="none" xmlns="http://www.w3.org/2000/svg"><path d="M26.143 5.04l12.716 7.407c.354.206.63.494.82.827h2.399a4.507 4.507 0 0 0-2.098-2.784l-5.718-3.33-2.428-1.415-4.571-2.662a4.46 4.46 0 0 0-6.12 1.654l-4.875 8.517h2.587l4.227-7.386a2.23 2.23 0 0 1 3.06-.828z" fill="#5B63FF"/><path d="M35.34 6.442a2.23 2.23 0 0 1 3.057.837l1.965 3.46a4.507 4.507 0 0 1 1.71 2.515h2.3l-4.03-7.098a4.46 4.46 0 0 0-6.116-1.675l-1.505.79-.887.474 2.428 1.415.52-.396.558-.322z" fill="#5B63FF"/><path fill-rule="evenodd" clip-rule="evenodd" d="M47.283 24.554v-6.78a2.25 2.25 0 0 0-2.24-2.26H6.957a2.25 2.25 0 0 0-2.24 2.26v25.992a2.25 2.25 0 0 0 2.24 2.26h38.086a2.25 2.25 0 0 0 2.24-2.26v-6.78h-4.48c-3.094 0-5.601-2.53-5.601-5.651v-1.13c0-3.12 2.507-5.65 5.6-5.65h4.481zm0 10.171h-4.48c-1.856 0-3.36-1.518-3.36-3.39v-1.13c0-1.873 1.504-3.39 3.36-3.39h4.48v7.91zm2.24 9.04c0 2.497-2.005 4.521-4.48 4.521H6.957c-2.475 0-4.48-2.024-4.48-4.52V17.774c0-2.497 2.005-4.52 4.48-4.52h38.086c2.475 0 4.48 2.023 4.48 4.52v25.992z" fill="#5B63FF"/></svg>