<svg width="52" height="52" viewBox="0 0 52 52" fill="none" xmlns="http://www.w3.org/2000/svg"><path fill-rule="evenodd" clip-rule="evenodd" d="M6.3 5.3v43.4h39.4V5.3H6.3zM6 3a2 2 0 0 0-2 2v44a2 2 0 0 0 2 2h40a2 2 0 0 0 2-2V5a2 2 0 0 0-2-2H6z" fill="#5B63FF"/><circle cx="10.5" cy="9.5" r="1.5" fill="#5B63FF"/><circle cx="15.5" cy="9.5" r="1.5" fill="#5B63FF"/><circle cx="20.5" cy="9.5" r="1.5" fill="#5B63FF"/><rect x="24" y="8" width="18" height="3" rx="1.5" fill="#5B63FF"/><path fill-rule="evenodd" clip-rule="evenodd" d="M17.187 22.188l1.626 1.626L13.626 29l5.187 5.186-1.626 1.627L10.374 29l6.813-6.814zm16.561-.061l-1.496 1.746L38.232 29l-5.98 5.127 1.496 1.746L41.768 29l-8.02-6.873z" fill="#5B63FF"/></svg>