<svg width="18" height="18" viewBox="0 0 18 18" fill="none" xmlns="http://www.w3.org/2000/svg"><g clip-path="url(#a)" fill="#0C98FC"><path d="M16.613 11.307a.449.449 0 0 0-.448.449v3.98c0 .743-.602 1.344-1.345 1.345H2.241a1.346 1.346 0 0 1-1.344-1.345V4.054c0-.742.602-1.344 1.344-1.345h3.98a.448.448 0 1 0 0-.896h-3.98A2.244 2.244 0 0 0 0 4.054v11.682a2.244 2.244 0 0 0 2.241 2.242h12.58a2.244 2.244 0 0 0 2.24-2.242v-3.98c0-.248-.2-.449-.448-.449z"/><path d="M16.886.66a2.017 2.017 0 0 0-2.853 0L6.035 8.656a.448.448 0 0 0-.115.197L4.868 12.65a.448.448 0 0 0 .552.552l3.797-1.052a.449.449 0 0 0 .197-.115l7.998-7.998a2.02 2.02 0 0 0 0-2.853L16.886.66zM7.011 8.947l6.545-6.545 2.111 2.11-6.546 6.546-2.11-2.11zm-.422.846l1.686 1.687-2.333.646.647-2.333zm10.188-6.39l-.476.476-2.111-2.112.476-.475a1.12 1.12 0 0 1 1.584 0l.527.526a1.122 1.122 0 0 1 0 1.585z"/></g><defs><clipPath id="a"><path fill="#fff" d="M0 0h18v18H0z"/></clipPath></defs></svg>