<svg width="50" height="50" viewBox="0 0 50 50" fill="none" xmlns="http://www.w3.org/2000/svg"><path d="M25 50c6.678 0 12.959-2.6 17.68-7.32C47.4 37.958 50 31.677 50 25c0-6.678-2.6-12.959-7.32-17.68C37.958 2.6 31.677 0 25 0 18.322 0 12.041 2.6 7.32 7.32 2.6 12.042 0 18.323 0 25c0 6.678 2.6 12.959 7.32 17.68C12.042 47.4 18.323 50 25 50zm15.916-9.084c-4.252 4.251-9.9 6.586-15.916 6.586a22.347 22.347 0 0 1-14.998-5.73l31.77-31.77A22.347 22.347 0 0 1 47.502 25c0 6.015-2.345 11.664-6.586 15.916zM9.084 9.084c4.252-4.241 9.9-6.586 15.916-6.586a22.328 22.328 0 0 1 14.998 5.73l-31.77 31.77A22.328 22.328 0 0 1 2.498 25c0-6.015 2.345-11.664 6.586-15.916z" fill="#0E99FD"/></svg>