<svg width="20" height="20" viewBox="0 0 20 20" fill="none" xmlns="http://www.w3.org/2000/svg"><circle cx="10" cy="10" r="9.5" stroke="#fff"/><path d="M9.966 5A4.184 4.184 0 0 0 5.79 9.176c0 1.429.727 2.696 1.827 3.45A5.962 5.962 0 0 0 4 18.124h1.193a4.738 4.738 0 0 1 4.773-4.773 4.738 4.738 0 0 1 4.773 4.773h1.193a5.962 5.962 0 0 0-3.617-5.5 4.182 4.182 0 0 0 1.827-3.449c0-2.3-1.876-4.176-4.176-4.176zm0 1.193a2.974 2.974 0 0 1 2.983 2.983 2.974 2.974 0 0 1-2.983 2.983 2.974 2.974 0 0 1-2.983-2.983 2.974 2.974 0 0 1 2.983-2.983z" fill="#fff"/></svg>