<svg width="20" height="20" viewBox="0 0 20 20" fill="none" xmlns="http://www.w3.org/2000/svg"><path d="M16.094 11.723c.431 0 .781.35.781.782v.937a.78.78 0 0 1-.781.781h-1.797a.781.781 0 0 1-.781-.78v-.938c0-.432.35-.782.78-.782h1.798zm2.343-1.406V7.973H1.563v6.246c0 .861.701 1.562 1.563 1.562h13.75c.861 0 1.563-.7 1.563-1.562a.781.781 0 1 1 1.562 0 3.129 3.129 0 0 1-3.125 3.125H3.125A3.129 3.129 0 0 1 0 14.219V5.78a3.128 3.128 0 0 1 3.125-3.125h13.75A3.128 3.128 0 0 1 20 5.781v4.536a.781.781 0 1 1-1.563 0zm0-3.906v-.63c0-.861-.7-1.562-1.562-1.562H3.125c-.862 0-1.563.7-1.563 1.562v.63h16.875zM3.908 9.536a.781.781 0 1 0 0 1.563h6.445a.781.781 0 0 0 0-1.563H3.906z" fill="#0C98FC"/></svg>