<svg width="23" height="23" viewBox="0 0 23 23" fill="none" xmlns="http://www.w3.org/2000/svg"><path d="M11.499.958a5.738 5.738 0 0 0-5.75 5.75v.959a1.93 1.93 0 0 0-1.917 1.916v9.584c0 1.047.87 1.916 1.917 1.916h11.5a1.93 1.93 0 0 0 1.916-1.916V9.583a1.93 1.93 0 0 0-1.916-1.916v-.959a5.738 5.738 0 0 0-5.75-5.75zm0 1.917c2.181 0 3.833 1.652 3.833 3.833v.959H7.665v-.959c0-2.181 1.652-3.833 3.834-3.833zm-5.75 6.708h11.5v9.584h-11.5V9.583zm5.75 2.875a1.922 1.922 0 0 0-1.917 1.917c0 1.054.862 1.917 1.917 1.917a1.922 1.922 0 0 0 1.916-1.917 1.922 1.922 0 0 0-1.916-1.917z" fill="#0C98FC"/></svg>