<svg width="15" height="15" viewBox="0 0 15 15" fill="none" xmlns="http://www.w3.org/2000/svg"><g clip-path="url(#a)" fill="#0C98FC"><path d="M14.792.21a.703.703 0 0 0-.995 0L.21 13.796a.704.704 0 1 0 .996.995L14.792 1.205a.704.704 0 0 0 0-.995zM3.344.007A3.348 3.348 0 0 0 0 3.351c0 1.844 1.5 3.344 3.344 3.344 1.844 0 3.344-1.5 3.344-3.344 0-1.844-1.5-3.344-3.344-3.344zm0 5.28a1.938 1.938 0 0 1-1.936-1.936c0-1.067.869-1.936 1.936-1.936 1.068 0 1.936.869 1.936 1.936a1.938 1.938 0 0 1-1.936 1.936zm8.313 3.021a3.348 3.348 0 0 0-3.345 3.345c0 1.843 1.5 3.344 3.345 3.344 1.843 0 3.344-1.5 3.344-3.345 0-1.843-1.5-3.344-3.344-3.344zm0 5.28a1.938 1.938 0 0 1-1.936-1.936c0-1.067.868-1.936 1.936-1.936 1.067 0 1.936.869 1.936 1.936a1.938 1.938 0 0 1-1.936 1.937z"/></g><defs><clipPath id="a"><path fill="#fff" d="M0 0h15v15H0z"/></clipPath></defs></svg>