<svg width="27" height="27" viewBox="0 0 27 27" fill="none" xmlns="http://www.w3.org/2000/svg"><path d="M13.5 3.375a5.918 5.918 0 0 0-5.906 5.906 5.915 5.915 0 0 0 2.584 4.878 8.432 8.432 0 0 0-5.116 7.778H6.75a6.7 6.7 0 0 1 6.75-6.75 6.7 6.7 0 0 1 6.75 6.75h1.688a8.432 8.432 0 0 0-5.116-7.778 5.915 5.915 0 0 0 2.584-4.878A5.918 5.918 0 0 0 13.5 3.375zm0 1.688a4.206 4.206 0 0 1 4.219 4.218A4.206 4.206 0 0 1 13.5 13.5a4.206 4.206 0 0 1-4.219-4.219A4.206 4.206 0 0 1 13.5 5.062z" fill="#0C98FC"/></svg>