<svg width="20" height="20" viewBox="0 0 20 20" fill="none" xmlns="http://www.w3.org/2000/svg"><path d="M15.293 3.629a.829.829 0 1 0-.97 1.346 7.346 7.346 0 0 1 2.27 9.29 7.332 7.332 0 0 1-4.273 3.698 7.332 7.332 0 0 1-5.635-.407 7.34 7.34 0 0 1-3.697-4.273 7.333 7.333 0 0 1 .409-5.634 7.396 7.396 0 0 1 5.505-3.992c.016-.002.03-.008.045-.012l.034 1.64a.451.451 0 0 0 .774.302l2.362-2.465a.45.45 0 0 0-.014-.635L9.64.125a.447.447 0 0 0-.635.014.456.456 0 0 0-.125.32l.03 1.561a.83.83 0 0 0-.257-.006 9.06 9.06 0 0 0-6.742 4.89c-2.236 4.456-.427 9.9 4.03 12.136a8.99 8.99 0 0 0 4.038.959c3.316 0 6.513-1.828 8.098-4.988a9 9 0 0 0-2.785-11.383z" fill="#0C98FC"/></svg>