<svg width="20" height="20" viewBox="0 0 20 20" fill="none" xmlns="http://www.w3.org/2000/svg"><g clip-path="url(#a)"><path d="M18.375 2.877a5.519 5.519 0 0 0-3.928-1.627 5.52 5.52 0 0 0-3.93 1.627L10 3.394l-.517-.517a5.52 5.52 0 0 0-3.93-1.627 5.52 5.52 0 0 0-3.928 1.627 5.563 5.563 0 0 0 0 7.858L9.388 18.5a.846.846 0 0 0 .45.235.862.862 0 0 0 .774-.236l7.763-7.763a5.562 5.562 0 0 0 0-7.858zm-1.214 6.645l-7.16 7.16-7.162-7.16a3.844 3.844 0 0 1 0-5.431 3.815 3.815 0 0 1 2.715-1.124c1.025 0 1.99.399 2.715 1.124l1.124 1.125a.884.884 0 0 0 1.214 0l1.124-1.125a3.814 3.814 0 0 1 2.716-1.124c1.025 0 1.99.399 2.714 1.124a3.844 3.844 0 0 1 0 5.43z" fill="#0C98FC"/></g><defs><clipPath id="a"><path fill="#fff" d="M0 0h20v20H0z"/></clipPath></defs></svg>