<svg width="20" height="20" viewBox="0 0 20 20" fill="none" xmlns="http://www.w3.org/2000/svg"><path d="M12.344 1.172h-.687A1.76 1.76 0 0 0 10 0a1.76 1.76 0 0 0-1.657 1.172h-.687a.586.586 0 0 0-.586.586v.586h-4.1a.586.586 0 0 0-.586.586v16.484c0 .324.262.586.586.586h14.06a.586.586 0 0 0 .586-.586V2.93a.586.586 0 0 0-.586-.586h-4.1v-.586a.586.586 0 0 0-.586-.586zM8.242 2.344h.586a.586.586 0 0 0 .586-.586.587.587 0 0 1 1.172 0c0 .323.262.586.586.586h.586v1.172H8.242V2.344zm8.203 1.172v15.312H3.555V3.516H7.07v.586c0 .323.263.585.586.585h4.688a.586.586 0 0 0 .586-.585v-.586h3.515z" fill="#0C98FC"/><path d="M7.07 6.445c0 .324.263.586.586.586h7.032a.586.586 0 0 0 0-1.172H7.655a.586.586 0 0 0-.586.586zm-1.757.586a.586.586 0 1 0 0-1.172.586.586 0 0 0 0 1.172zm9.375 1.172H7.655a.586.586 0 0 0 0 1.172h7.032a.586.586 0 0 0 0-1.172zM5.313 9.375a.586.586 0 1 0 0-1.172.586.586 0 0 0 0 1.172zm9.375 1.172H7.655a.586.586 0 1 0 0 1.172h7.032a.586.586 0 0 0 0-1.172zm-9.375 1.172a.586.586 0 1 0 0-1.172.586.586 0 0 0 0 1.172zm9.375 1.171H5.312a.586.586 0 0 0-.585.587v3.593c0 .324.262.586.585.586h9.375a.586.586 0 0 0 .586-.586v-3.593a.586.586 0 0 0-.585-.586zm-.586 3.594H5.898v-2.422h8.204v2.422z" fill="#0C98FC"/></svg>