<svg width="18" height="18" viewBox="0 0 18 18" fill="none" xmlns="http://www.w3.org/2000/svg"><path d="M9 14.185a.879.879 0 1 0 0-1.757.879.879 0 0 0 0 1.757z" fill="#0C99FD"/><path d="M9 0C4.026 0 0 4.025 0 9c0 4.974 4.025 9 9 9 4.974 0 9-4.025 9-9 0-4.974-4.025-9-9-9zm0 16.594A7.59 7.59 0 0 1 1.406 9 7.59 7.59 0 0 1 9 1.406 7.59 7.59 0 0 1 16.594 9 7.59 7.59 0 0 1 9 16.594z" fill="#0C99FD"/><path d="M9 4.518A2.816 2.816 0 0 0 6.187 7.33a.703.703 0 1 0 1.407 0c0-.775.63-1.406 1.406-1.406.775 0 1.406.63 1.406 1.406 0 .775-.63 1.406-1.406 1.406a.703.703 0 0 0-.703.703v1.758a.703.703 0 0 0 1.406 0v-1.143a2.818 2.818 0 0 0 2.11-2.724A2.816 2.816 0 0 0 9 4.518z" fill="#0C99FD"/></svg>