<svg width="25" height="25" viewBox="0 0 25 25" fill="none" xmlns="http://www.w3.org/2000/svg"><path d="M3.209 0H21.79C23.556 0 25 1.307 25 3.209V21.79c0 1.903-1.444 3.21-3.21 3.21H3.21C1.444 25 0 23.694 0 21.791V3.21C0 1.307 1.444 0 3.209 0zM18.21 2.778c-.619 0-1.125.506-1.125 1.125v2.694c0 .62.506 1.126 1.125 1.126h2.826a1.13 1.13 0 0 0 1.126-1.126V3.903c0-.62-.507-1.125-1.126-1.125H18.21zm3.963 7.794h-2.2c.208.68.32 1.4.32 2.145 0 4.158-3.479 7.53-7.77 7.53-4.292 0-7.77-3.372-7.77-7.53a7.3 7.3 0 0 1 .32-2.145H2.778v10.56c0 .547.447.995.994.995h17.409a.997.997 0 0 0 .994-.994v-10.56zm-9.65-2.991c-2.773 0-5.021 2.178-5.021 4.865 0 2.687 2.248 4.865 5.02 4.865 2.774 0 5.022-2.178 5.022-4.865 0-2.687-2.248-4.865-5.022-4.865z" fill="#fff"/></svg>