<svg width="29" height="33" viewBox="0 0 29 33" fill="none" xmlns="http://www.w3.org/2000/svg"><path d="M23.093 12.291v-3.43C23.093 3.975 19.238 0 14.5 0 9.763 0 5.908 3.975 5.908 8.861v3.43c-1.827.358-3.222 2.17-3.222 4.35v11.942C2.686 31.018 4.427 33 6.568 33h15.865c2.14 0 3.882-1.982 3.882-4.418V16.64c0-2.18-1.396-3.99-3.222-4.349zM6.982 8.861c0-4.212 3.372-7.639 7.518-7.639s7.519 3.427 7.519 7.64v3.36H6.982v-3.36zm18.26 19.721c0 1.762-1.26 3.196-2.81 3.196H6.569c-1.548 0-2.808-1.434-2.808-3.196V16.64c0-1.762 1.26-3.196 2.808-3.196h15.865c1.548 0 2.808 1.434 2.808 3.196v11.942z" fill="#00BD15"/><path d="M14.5 17.111c-1.185 0-2.148 1.096-2.148 2.444v3.667c0 1.348.963 2.445 2.148 2.445 1.184 0 2.148-1.097 2.148-2.445v-3.667c0-1.348-.964-2.444-2.148-2.444zm1.074 6.111c0 .674-.482 1.222-1.074 1.222-.593 0-1.074-.548-1.074-1.222v-3.667c0-.674.481-1.222 1.074-1.222.592 0 1.074.549 1.074 1.223v3.666z" fill="#00BD15"/></svg>