<svg width="29" height="33" viewBox="0 0 29 33" fill="none" xmlns="http://www.w3.org/2000/svg"><path d="M23.093 12.291v-3.43C23.093 3.975 19.238 0 14.5 0 9.763 0 5.908 3.975 5.908 8.861c0 .338.24.611.537.611.297 0 .537-.273.537-.61 0-4.213 3.372-7.64 7.518-7.64s7.519 3.427 7.519 7.64v3.36H6.568c-2.14 0-3.882 1.982-3.882 4.418v11.942C2.686 31.018 4.427 33 6.568 33h15.865c2.14 0 3.882-1.982 3.882-4.418V16.64c0-2.18-1.396-3.99-3.222-4.349zm2.148 16.291c0 1.762-1.26 3.196-2.808 3.196H6.568c-1.548 0-2.808-1.434-2.808-3.196V16.64c0-1.762 1.26-3.196 2.808-3.196h15.865c1.548 0 2.808 1.434 2.808 3.196v11.942z" fill="#FD2222"/><path d="M14.5 17.111c-1.185 0-2.148 1.096-2.148 2.445v3.666c0 1.348.963 2.445 2.148 2.445 1.184 0 2.148-1.097 2.148-2.445v-3.666c0-1.349-.964-2.445-2.148-2.445zm1.074 6.111c0 .674-.482 1.223-1.074 1.223-.593 0-1.074-.549-1.074-1.223v-3.666c0-.675.481-1.223 1.074-1.223.592 0 1.074.549 1.074 1.223v3.666z" fill="#FD2222"/></svg>