<svg width="142" height="24" viewBox="0 0 142 24" fill="none" xmlns="http://www.w3.org/2000/svg"><g clip-path="url(#a)"><path d="M69.738 19.003c0 1.48-.553 2.714-1.66 3.578-1.107.925-2.522 1.357-4.12 1.357-1.17 0-2.4-.246-3.63-.678-.553-.185-1.045-.432-1.537-.679-.553-.308-1.045-.617-1.476-.987-.061 0-.061-.062-.123-.062l-.184-.123.492-.617c.123-.185.307-.309.553-.432.123-.062.308-.062.43-.062.185 0 .37.062.493.124.061.061.184.123.246.185 1.537.987 3.136 1.48 4.797 1.48 1.045 0 1.968-.246 2.644-.802.677-.555 1.046-1.234 1.046-2.097 0-.309-.062-.617-.246-.926-.123-.308-.308-.493-.554-.678a4.036 4.036 0 0 0-.922-.556c-.43-.185-.8-.308-1.107-.432l-3.075-.987c-.43-.123-.677-.246-.923-.308l-.8-.37c-.368-.185-.614-.309-.799-.494a2.352 2.352 0 0 1-.553-.555 2.898 2.898 0 0 1-.554-.74c-.123-.247-.184-.494-.307-.803-.062-.308-.123-.617-.123-.987 0-1.357.492-2.53 1.537-3.393 1.046-.864 2.337-1.296 3.998-1.296.984 0 1.968.185 3.013.494.37.123.738.247 1.107.432A13.19 13.19 0 0 1 69 8.452c.061 0 .061.062.061.062l.185.124-.369.617-.061.123c-.246.308-.554.493-.984.493-.185 0-.308-.061-.492-.123-.062-.062-.123-.062-.185-.123a7.914 7.914 0 0 0-3.997-1.05c-1.046 0-1.907.248-2.522.803-.615.493-.922 1.172-.922 1.974 0 .247.061.494.123.74.061.247.246.432.43.617.246.186.43.37.677.494.184.123.492.247.922.37l3.506 1.11c.369.124.8.248 1.23.433.492.185.86.432 1.168.617.308.246.615.493.922.802.308.308.493.678.677 1.11.246.37.369.864.369 1.358zm15.622 0c0 1.48-.554 2.714-1.661 3.578-1.107.925-2.522 1.357-4.12 1.357-1.17 0-2.4-.246-3.63-.678-.553-.185-1.045-.432-1.537-.679-.553-.308-1.045-.617-1.476-.987-.061 0-.061-.062-.123-.062l-.184-.123.492-.617c.123-.185.307-.309.553-.432.123-.062.308-.062.43-.062.185 0 .37.062.493.124.061.061.184.123.246.185 1.537.987 3.136 1.48 4.797 1.48 1.045 0 1.968-.246 2.644-.802.677-.555 1.046-1.234 1.046-2.097 0-.309-.062-.617-.246-.926-.123-.308-.308-.493-.554-.678a4.036 4.036 0 0 0-.922-.556c-.43-.185-.8-.308-1.107-.432l-3.075-.987c-.43-.123-.677-.246-.923-.308l-.8-.37c-.368-.185-.614-.309-.799-.494a2.352 2.352 0 0 1-.553-.555 2.898 2.898 0 0 1-.554-.74c-.123-.247-.184-.494-.307-.803-.062-.308-.123-.617-.123-.987 0-1.357.492-2.53 1.537-3.393 1.046-.864 2.337-1.296 3.998-1.296.984 0 1.968.185 3.013.494.37.123.738.247 1.107.432.554.246 1.107.555 1.6.863.06 0 .06.062.06.062l.185.124-.369.617-.061.123c-.246.308-.554.493-.984.493-.185 0-.308-.061-.492-.123-.062-.062-.123-.062-.185-.123a7.914 7.914 0 0 0-3.997-1.05c-1.046 0-1.907.248-2.522.803-.615.493-.922 1.172-.922 1.974 0 .247.061.494.123.74.061.247.246.432.43.617.246.186.43.37.677.494.184.123.492.247.922.37l3.506 1.11c.369.124.8.248 1.23.433.492.185.86.432 1.168.617.308.246.615.493.923.802.307.308.492.678.676 1.11.308.37.37.864.37 1.358zm15.561-10.427c-1.23-1.234-3.014-1.851-5.228-1.851-1.291 0-2.583.247-3.997.679a9.06 9.06 0 0 0-1.784.74l-.184.123.246.617c0 .062.061.062.061.124 0 .061.062.061.062.123.246.37.738.617 1.23.555.123 0 .184-.061.307-.061 1.353-.556 2.706-.864 4.06-.864 1.598 0 2.89.432 3.75 1.234.862.802 1.292 1.974 1.292 3.517v.431c-1.66-.431-3.382-.617-5.104-.617-2.153 0-3.936.494-5.228 1.42-1.352.987-2.029 2.344-2.029 4.071 0 .864.184 1.666.553 2.345.37.679.862 1.296 1.538 1.728.615.431 1.291.74 2.03.987.737.246 1.537.37 2.336.37 1.415 0 2.706-.309 3.752-.926.86-.493 1.599-1.049 2.152-1.727v1.172a1.148 1.148 0 0 0 1.169 1.049h.799V13.326c-.061-2.036-.615-3.578-1.783-4.75zM99.014 20.73c-1.168.925-2.583 1.357-4.182 1.357-1.23 0-2.337-.308-3.198-.925-.86-.617-1.291-1.48-1.291-2.53 0-1.11.43-1.974 1.291-2.653.861-.678 2.153-.987 3.813-.987 1.722 0 3.444.247 5.228.679v1.666c0 1.357-.554 2.53-1.66 3.393zM51.721 8.576c-1.23-1.234-3.013-1.851-5.227-1.851-1.291 0-2.583.247-3.997.679a9.063 9.063 0 0 0-1.784.74l-.184.123.246.617c0 .062.061.062.061.124 0 .061.062.061.062.123.246.37.738.617 1.23.555.123 0 .184-.061.307-.061 1.353-.556 2.706-.864 4.06-.864 1.598 0 2.89.432 3.75 1.234.861.802 1.292 1.974 1.292 3.517v.431c-1.66-.431-3.382-.617-5.104-.617-2.153 0-3.936.494-5.228 1.42-1.353.987-2.03 2.344-2.03 4.071 0 .864.185 1.666.554 2.345.37.679.861 1.296 1.538 1.728.615.431 1.291.74 2.03.987.737.246 1.537.37 2.336.37 1.415 0 2.706-.309 3.752-.926.86-.493 1.599-1.049 2.152-1.727v1.172a1.147 1.147 0 0 0 1.168 1.049h.8V13.326c-.062-2.036-.615-3.578-1.784-4.75zM49.816 20.73c-1.168.925-2.583 1.357-4.182 1.357-1.23 0-2.337-.308-3.198-.925-.86-.617-1.291-1.48-1.291-2.53 0-1.11.43-1.974 1.291-2.653.861-.678 2.153-.987 3.813-.987 1.722 0 3.444.247 5.227.679v1.666c0 1.357-.553 2.53-1.66 3.393zm72.197-7.218V23.63h-.861a1.17 1.17 0 0 1-1.169-1.172v-8.7c0-1.604-.43-2.9-1.291-3.887-.861-.925-2.091-1.419-3.629-1.419-1.537 0-2.829.556-3.812 1.543-1.046 1.049-1.538 2.406-1.538 4.01v8.453c0 .617-.553 1.11-1.168 1.11h-.861V6.91h.861a1.17 1.17 0 0 1 1.168 1.172v1.296c1.292-1.913 3.198-2.838 5.596-2.838 2.03 0 3.69.617 4.859 1.912 1.23 1.358 1.845 3.024 1.845 5.06zm13.652-6.54v.802c0 .617-.492 1.049-1.107 1.11h-4.551v10.18c0 1.975.984 2.9 3.013 2.9.738 0 1.476-.185 2.276-.555l.307-.124v1.975l-.123.061c-.799.37-1.722.556-2.706.556-1.414 0-2.521-.37-3.443-1.173-.861-.802-1.353-1.974-1.353-3.516V8.884h-2.337v-1.85h2.337V1.788h.861c.307 0 .615.124.799.309.185.185.369.493.369.802v4.072h5.658zm4.366 1.172V23.63h.923c.615 0 1.107-.555 1.107-1.172V6.972h-.861c-.308 0-.554.123-.8.308 0 0-.061 0-.061.062-.185.185-.308.493-.308.802zm-115.246 0V23.63h.923c.615 0 1.107-.555 1.107-1.172V6.972h-.861c-.308 0-.554.123-.8.308 0 0-.061 0-.061.062-.185.185-.308.493-.308.802zm7.871-6.972V23.63h.923c.615 0 1.107-.555 1.107-1.172V0h-.861c-.308 0-.554.123-.8.308 0 0-.061 0-.061.062-.185.185-.308.494-.308.802z" fill="#fff"/><path d="M19.188 23.198l-.308-.432-1.414-1.85-.677-.865-4.55-5.86c5.473-1.05 6.21-4.998 6.21-6.602 0-1.728-.614-3.209-1.721-4.32-.677-.678-1.6-1.233-2.706-1.665-1.107-.432-2.337-.617-3.69-.617H0v.987c.123.617.615.987 1.168.987h9.102c1.907 0 3.444.432 4.551 1.234 1.107.802 1.6 1.913 1.6 3.394 0 1.542-.554 2.714-1.723 3.578-1.168.864-2.706 1.357-4.55 1.357H3.135v-2.159c0-.309-.123-.617-.307-.802 0 0 0-.062-.062-.062-.184-.185-.492-.308-.799-.308h-.8v14.561h.861c.308 0 .554-.124.8-.31l.061-.061c.185-.185.308-.493.308-.802v-8.082H9.9l6.396 8.329c.062.062.062.123.123.185.37.432.923.74 1.538.74h1.66l-.43-.555z" fill="#09F"/></g><defs><clipPath id="a"><path fill="#fff" d="M0 0h142v24H0z"/></clipPath></defs></svg>