<svg width="30" height="26" viewBox="0 0 30 26" fill="none" xmlns="http://www.w3.org/2000/svg"><path d="M27.563 2.417A8.318 8.318 0 0 0 21.67 0a8.32 8.32 0 0 0-5.894 2.417L15 3.186l-.776-.769A8.32 8.32 0 0 0 8.331 0a8.32 8.32 0 0 0-5.894 2.417 8.21 8.21 0 0 0 0 11.675l11.645 11.534c.19.19.428.306.675.35a1.297 1.297 0 0 0 1.16-.35l11.646-11.534a8.209 8.209 0 0 0 0-11.675zm-1.821 9.872L15 22.929 4.258 12.289a5.673 5.673 0 0 1 0-8.068A5.75 5.75 0 0 1 8.33 2.55c1.538 0 2.985.592 4.072 1.67l1.687 1.67c.483.479 1.337.479 1.82 0l1.687-1.67a5.749 5.749 0 0 1 4.073-1.67c1.538 0 2.984.592 4.072 1.67a5.673 5.673 0 0 1 0 8.068z" fill="#0C98FC"/></svg>