<svg width="50" height="50" viewBox="0 0 50 50" fill="none" xmlns="http://www.w3.org/2000/svg"><path d="M25.001 0C11.209 0 .031 11.178.031 24.97.031 38.762 11.21 50 25.001 50c13.792 0 24.97-11.244 24.97-24.97C49.97 11.238 38.793 0 25 0zm0 47.58c-12.418 0-22.549-10.131-22.549-22.55 0-12.418 10.13-22.615 22.549-22.615 12.418 0 22.549 10.13 22.549 22.615 0 12.485-10.13 22.55-22.549 22.55zm1.24-12.352a1.31 1.31 0 0 1-1.307 1.307 1.31 1.31 0 0 1-1.307-1.307c0-.72.587-1.308 1.307-1.308s1.308.587 1.308 1.307zm-2.547-6.41V14.114c0-.654.52-1.174 1.174-1.174.654 0 1.174.52 1.174 1.174V28.82c0 .653-.52 1.174-1.174 1.174-.654.072-1.174-.52-1.174-1.174z" fill="#0E99FD"/></svg>