<svg width="30" height="30" viewBox="0 0 30 30" fill="none" xmlns="http://www.w3.org/2000/svg"><path d="M25.978 6.948L22.83 6.93l-3.017-4.5a.998.998 0 0 0-.824-.461h-8.126a.994.994 0 0 0-.808.445L6.94 6.93l-2.918.017A4.038 4.038 0 0 0 0 10.97v13.005c0 2.209 1.813 4.055 4.022 4.055h21.956c2.209 0 4.022-1.846 4.022-4.055V10.97a4.038 4.038 0 0 0-4.022-4.022zm2.044 17.027c0 1.121-.923 2.077-2.044 2.077H4.022c-1.12 0-2.044-.956-2.044-2.077V10.97c0-1.121.923-2.044 2.044-2.044h3.445c.33 0 .626-.182.808-.445l3.115-4.517h7.072l3 4.484c.18.264.494.445.807.445l3.693.033c1.12 0 2.044.923 2.044 2.044v13.005h.016z" fill="#fff"/><path d="M15.084 9.321a7.01 7.01 0 0 0-7.006 7.006c0 3.857 3.149 7.005 7.006 7.005s7.005-3.148 7.005-7.005c0-3.857-3.148-7.006-7.005-7.006zm0 12.033a5.037 5.037 0 0 1-5.028-5.027 5.037 5.037 0 0 1 5.028-5.028 5.037 5.037 0 0 1 5.027 5.028 5.037 5.037 0 0 1-5.027 5.027zm9.377-8.752a.38.38 0 1 0 0-.759.38.38 0 0 0 0 .759z" fill="#fff"/><path d="M24.462 10.854c-.758 0-1.368.61-1.368 1.369 0 .758.61 1.368 1.368 1.368.758 0 1.368-.61 1.368-1.368 0-.759-.61-1.369-1.368-1.369zm0 1.978a.608.608 0 0 1-.61-.61c0-.33.28-.61.61-.61.33 0 .61.28.61.61 0 .33-.264.61-.61.61z" fill="#fff"/></svg>