<svg width="85" height="27" viewBox="0 0 85 27" fill="none" xmlns="http://www.w3.org/2000/svg"><g clip-path="url(#a)"><path d="M36.833 26.61h-6.886L34.254.474h6.885L36.833 26.61zM61.795 1.113C60.436.583 58.282 0 55.619 0 48.819 0 44.03 3.559 44 8.647c-.056 3.754 3.429 5.839 6.035 7.09 2.664 1.28 3.57 2.114 3.57 3.254-.028 1.752-2.153 2.559-4.136 2.559-2.749 0-4.222-.416-6.46-1.39l-.907-.418-.963 5.867c1.615.722 4.59 1.363 7.679 1.39 7.225 0 11.928-3.503 11.984-8.925.028-2.975-1.813-5.255-5.78-7.118C52.615 9.76 51.14 8.954 51.14 7.73c.029-1.112 1.248-2.252 3.966-2.252 2.239-.056 3.883.473 5.13 1.001l.622.278.937-5.644zm9.151 16.238c.567-1.501 2.75-7.313 2.75-7.313-.03.056.565-1.53.905-2.502l.481 2.252s1.304 6.256 1.587 7.563h-5.723zm8.5-16.877H74.12c-1.643 0-2.89.472-3.6 2.168L60.294 26.61h7.225l1.445-3.92h8.84c.198.917.822 3.92.822 3.92H85L79.445.474zm-55.25 0l-6.743 17.822-.737-3.614C15.47 10.51 11.56 5.979 7.196 3.726l6.177 22.857h7.281L31.477.473h-7.28z" fill="#00579F"/><path d="M11.192.474H.113L0 1.002c8.642 2.169 14.365 7.397 16.716 13.68l-2.408-12.01C13.912 1 12.693.529 11.192.474z" fill="#FAA61A"/></g><defs><clipPath id="a"><path fill="#fff" d="M0 0h85v27H0z"/></clipPath></defs></svg>