<svg width="26" height="26" viewBox="0 0 26 26" fill="none" xmlns="http://www.w3.org/2000/svg"><g clip-path="url(#a)"><path d="M25.862 18.98a1.806 1.806 0 0 0-.088-.17c-.451-.812-1.313-1.809-2.585-2.991l-.027-.027-.014-.014-.014-.013h-.013c-.578-.55-.943-.921-1.096-1.11-.28-.361-.343-.727-.19-1.097.108-.28.514-.87 1.218-1.773.37-.479.663-.862.88-1.15 1.561-2.077 2.238-3.403 2.03-3.98l-.08-.136c-.054-.081-.194-.155-.42-.223-.226-.068-.514-.08-.866-.034l-3.899.027a.506.506 0 0 0-.27.007l-.177.04-.068.034-.053.041a.6.6 0 0 0-.15.142.928.928 0 0 0-.134.237 22.112 22.112 0 0 1-1.45 3.046c-.333.56-.64 1.044-.92 1.455-.28.41-.514.713-.703.907-.19.194-.361.35-.515.467-.153.117-.27.167-.352.149a10.25 10.25 0 0 1-.23-.054.901.901 0 0 1-.305-.332 1.483 1.483 0 0 1-.155-.528 5.778 5.778 0 0 1-.048-.548c-.004-.154-.002-.37.007-.65.01-.28.014-.47.014-.569a32 32 0 0 1 .02-1.116c.014-.402.024-.72.034-.955.009-.234.013-.483.013-.744a3.17 3.17 0 0 0-.047-.616 2.108 2.108 0 0 0-.142-.434.73.73 0 0 0-.277-.324 1.566 1.566 0 0 0-.454-.183c-.478-.108-1.087-.167-1.828-.176-1.678-.018-2.757.09-3.235.325-.19.099-.361.234-.514.406-.163.198-.185.307-.068.325.541.08.925.275 1.15.582l.082.162c.063.118.126.325.19.623.063.298.103.627.121.988.045.659.045 1.223 0 1.692-.045.47-.088.835-.129 1.097a2.19 2.19 0 0 1-.182.636 2.687 2.687 0 0 1-.163.298.233.233 0 0 1-.067.067c-.118.045-.24.068-.366.068s-.28-.063-.46-.19c-.18-.126-.368-.3-.562-.52a6.966 6.966 0 0 1-.657-.928 16.18 16.18 0 0 1-.758-1.408l-.216-.392a33.79 33.79 0 0 1-.555-1.104c-.235-.483-.442-.95-.623-1.4a.892.892 0 0 0-.325-.434l-.067-.04a.927.927 0 0 0-.217-.116c-.1-.04-.203-.07-.311-.088l-3.71.027c-.378 0-.636.086-.771.258l-.054.08A.438.438 0 0 0 0 6.817c0 .1.027.222.081.366a44.68 44.68 0 0 0 1.767 3.682c.636 1.182 1.189 2.134 1.658 2.856.47.722.948 1.404 1.435 2.044.487.641.81 1.052.968 1.232.158.18.282.316.372.406l.339.325c.216.217.534.476.954.778.42.303.884.6 1.394.894.51.293 1.104.532 1.78.717.677.186 1.336.26 1.977.224h1.557c.316-.027.555-.127.717-.298l.054-.068a.896.896 0 0 0 .102-.25c.031-.113.047-.237.047-.372-.01-.388.02-.738.088-1.05.067-.31.144-.545.23-.703a1.729 1.729 0 0 1 .522-.596.884.884 0 0 1 .107-.047c.217-.072.472-.002.766.21.293.212.568.474.826.785.257.312.566.661.927 1.05.36.387.677.676.947.866l.27.162c.182.108.416.208.705.298.288.09.541.113.758.068l3.465-.055c.343 0 .61-.056.799-.169.19-.113.302-.237.339-.372a1.04 1.04 0 0 0 .006-.46 1.705 1.705 0 0 0-.095-.36z" fill="#fff"/></g><defs><clipPath id="a"><path fill="#fff" d="M0 0h26v26H0z"/></clipPath></defs></svg>