<svg width="50" height="50" viewBox="0 0 50 50" fill="none" xmlns="http://www.w3.org/2000/svg"><g clip-path="url(#a)" fill="#0E99FD"><path d="M25 50C11.215 50 0 38.785 0 25S11.215 0 25 0a24.94 24.94 0 0 1 13.173 3.748 1.47 1.47 0 0 1-1.552 2.499A22 22 0 0 0 25 2.941c-12.163 0-22.059 9.896-22.059 22.06 0 12.162 9.896 22.058 22.059 22.058S47.059 37.163 47.059 25c0-2.445-.397-4.845-1.18-7.135a1.471 1.471 0 0 1 2.784-.95A24.958 24.958 0 0 1 50 25c0 13.785-11.215 25-25 25z"/><path d="M24.999 33.482c-.373 0-.734-.142-1.007-.4l-11.765-11.05a1.47 1.47 0 1 1 2.014-2.144l10.633 9.989L44.196 6.94a1.47 1.47 0 1 1 2.248 1.895l-20.32 24.124a1.472 1.472 0 0 1-1.125.523z"/></g><defs><clipPath id="a"><path fill="#fff" d="M0 0h50v50H0z"/></clipPath></defs></svg>