<svg xmlns="http://www.w3.org/2000/svg" width="25" height="22" viewBox="0 0 25 22"><defs><linearGradient id="a" x1="100%" x2="0%" y1="100%" y2="0%"><stop offset="0%" stop-color="#D7B660"/><stop offset="100%" stop-color="#B07F2B"/></linearGradient></defs><path fill="none" stroke="url(#a)" d="M23.46 12.683a2.338 2.338 0 0 1-1.697.672l-5.055-.104-4.334 8.62H8.548l2.08-8.745-4.548-.094-1.46 2.035H.924L2.882 11 .925 6.933H4.62l1.46 2.035 4.548-.094L8.548.128h3.826l4.334 8.621 5.055-.104a2.338 2.338 0 0 1 1.714.69c.445.445.69 1.035.69 1.665a2.34 2.34 0 0 1-.708 1.683z"/></svg>