<svg xmlns="http://www.w3.org/2000/svg" width="10" height="9" viewBox="0 0 10 9"><defs><linearGradient id="a" x1="100%" x2="0%" y1="100%" y2="0%"><stop offset="0%" stop-color="#D7B660"/><stop offset="100%" stop-color="#B07F2B"/></linearGradient></defs><path fill="url(#a)" d="M9 1.5h-.5V9H9c.55 0 1-.45 1-1V2.5c0-.55-.45-1-1-1zm-9 1V8c0 .55.45 1 1 1h.5V1.5H1c-.55 0-1 .45-1 1zM6.7.453C6.36.295 5.816 0 5 0S3.64.295 3.3.453V1.5H2.2V9h5.6V1.5H6.7V.453zM6.1 1.5H3.9V.832A2.8 2.8 0 0 1 5 .6a2.8 2.8 0 0 1 1.1.232V1.5z"/></svg>