<svg xmlns="http://www.w3.org/2000/svg" width="23" height="24" viewBox="0 0 23 24"><g fill="#FFF"><path d="M22.59 1.6h-2.876V.4c0-.221-.183-.4-.41-.4h-2.875a.405.405 0 0 0-.411.4v1.2H6.982V.4c0-.221-.183-.4-.41-.4H3.695a.405.405 0 0 0-.41.4v1.2H.41A.405.405 0 0 0 0 2v21.6c0 .221.184.4.41.4h22.18c.226 0 .41-.179.41-.4V2c0-.221-.184-.4-.41-.4zM16.84.8h2.053v2.4h-2.054V.8zM4.106.8H6.16v2.4H4.107V.8zM.821 2.4h2.465v1.2c0 .221.183.4.41.4h2.875a.405.405 0 0 0 .411-.4V2.4h9.036v1.2c0 .221.183.4.41.4h2.876c.227 0 .41-.179.41-.4V2.4h2.465V6H.82V2.4zm0 20.8V6.8H22.18v16.4H.82z"/><path d="M15.069 9.412H3.833v11.764h15.813V9.412h-4.577zm-2.913.811h2.913v2.84h-2.913v-2.84zm2.913 6.491h-2.913v-2.84h2.913v2.84zm-6.658-2.84h2.912v2.84H8.411v-2.84zm0-3.65h2.912v2.839H8.411v-2.84zm-3.745 0h2.912v2.839H4.666v-2.84zm0 3.65h2.912v2.84H4.666v-2.84zm2.912 6.491H4.666v-2.84h2.912v2.84zm3.745 0H8.411v-2.84h2.912v2.84zm3.746 0h-2.913v-2.84h2.913v2.84zm3.745 0H15.9v-2.84h2.913v2.84zm0-3.651H15.9v-2.84h2.913v2.84zm0-6.49v2.839H15.9v-2.84h2.913z"/></g></svg>