<svg xmlns="http://www.w3.org/2000/svg" width="25" height="22" viewBox="0 0 25 22"><defs><linearGradient id="a" x1="100%" x2="0%" y1="100%" y2="0%"><stop offset="0%" stop-color="#D7B660"/><stop offset="100%" stop-color="#B07F2B"/></linearGradient></defs><path fill="url(#a)" fill-rule="evenodd" d="M12.493 16.035c2.096 0 4.191.001 6.287-.001.131 0 .266-.01.394-.04a1.552 1.552 0 0 0 1.232-1.514c.005-1.331 0-2.663.001-3.995 0-.239-.053-.464-.158-.678-.37-.754-1.275-1.099-2.035-.759-.627.28-.952.776-.966 1.462-.01.529 0 1.057-.003 1.586a1.528 1.528 0 0 1-.44 1.079c-.335.35-.751.495-1.234.491-.93-.007-1.86-.003-2.79-.003H9.358c-.238 0-.468-.035-.682-.142-.603-.3-.918-.788-.926-1.463-.007-.513.006-1.026-.005-1.538a1.765 1.765 0 0 0-.084-.527 1.58 1.58 0 0 0-1.904-1.02c-.661.176-1.163.79-1.167 1.476-.006 1.347-.002 2.694-.003 4.041 0 .276.072.533.216.765.32.515.783.78 1.394.78h6.295zm.005-13.442c-1.314 0-2.627.002-3.94 0-.394-.001-.77.07-1.117.255-.85.45-1.257 1.176-1.274 2.123-.013.747-.003 1.495-.002 2.243 0 .12.004.124.125.127a2.82 2.82 0 0 1 1.205.292c1.186.597 1.801 1.564 1.839 2.89.013.48.002.959.002 1.437 0 .123.003.126.124.126h6.064c.134 0 .135-.001.135-.134V10.57c.001-.466.072-.92.275-1.34.562-1.17 1.487-1.81 2.79-1.888.078-.005.108-.03.108-.11-.002-.772.007-1.545-.005-2.317-.01-.634-.228-1.192-.682-1.642-.467-.465-1.04-.682-1.697-.681h-3.95zm0 15.029H7.082c-.12 0-.12 0-.12.124 0 .482.004.964-.001 1.446-.003.303-.109.558-.39.708-.405.215-.977.077-1.136-.374a1.033 1.033 0 0 1-.057-.326 80.923 80.923 0 0 1 0-1.539c0-.088-.026-.125-.113-.156-.997-.348-1.713-.995-2.082-1.997A3.064 3.064 0 0 1 3 14.428c.004-1.288-.002-2.577.003-3.866.004-1.16.524-2.044 1.477-2.685.08-.053.108-.107.108-.201-.001-.977-.035-1.955.013-2.93.073-1.478.792-2.58 2.092-3.292.42-.23.876-.366 1.355-.413.18-.018.363-.032.544-.032 2.63-.002 5.261-.022 7.892.006 1.629.017 2.826.791 3.556 2.256a3.61 3.61 0 0 1 .367 1.62c.001.927.002 1.854 0 2.781 0 .098.03.155.114.208.66.419 1.13.992 1.348 1.749.07.249.117.515.119.773.011 1.385.02 2.77.001 4.154a3.148 3.148 0 0 1-2.095 2.91 1.45 1.45 0 0 1-.178.049c-.072.015-.099.05-.098.128.004.52.004 1.038.002 1.558-.002.301-.11.55-.387.698-.392.21-.938.087-1.113-.322a1.134 1.134 0 0 1-.083-.413c-.01-.466-.004-.933-.004-1.4 0-.143 0-.143-.138-.143h-5.397z"/></svg>