<svg xmlns="http://www.w3.org/2000/svg" width="22" height="21" viewBox="0 0 22 21"><path fill="#FFF" d="M15.95 0C14.08 0 12.21.918 11 2.41 9.79.918 7.92 0 6.05 0 2.64 0 0 2.754 0 6.311c0 4.361 3.74 7.919 9.46 13.197L11 21l1.54-1.492C18.15 14.115 22 10.558 22 6.311 22 2.754 19.36 0 15.95 0zm-4.84 17.902H11l-.11-.115C5.61 12.852 2.2 9.639 2.2 6.31c0-2.295 1.65-4.016 3.85-4.016 1.65 0 3.3 1.148 3.96 2.754h2.09c.55-1.606 2.2-2.754 3.85-2.754 2.2 0 3.85 1.721 3.85 4.016 0 3.328-3.41 6.541-8.69 11.59z"/></svg>