<svg xmlns="http://www.w3.org/2000/svg" width="12" height="11" viewBox="0 0 12 11"><defs><linearGradient id="a" x1="100%" x2="0%" y1="100%" y2="0%"><stop offset="0%" stop-color="#D7B660"/><stop offset="100%" stop-color="#B07F2B"/></linearGradient></defs><path fill="url(#a)" d="M8.7 0A3.6 3.6 0 0 0 6 1.262 3.603 3.603 0 0 0 3.3 0C1.44 0 0 1.443 0 3.306c0 2.284 2.04 4.148 5.16 6.913L6 11l.84-.781C9.9 7.393 12 5.53 12 3.306 12 1.443 10.56 0 8.7 0zM6.06 9.377H6l-.06-.06C3.06 6.732 1.2 5.049 1.2 3.306c0-1.202.9-2.104 2.1-2.104.9 0 1.8.601 2.16 1.443H6.6c.3-.842 1.2-1.443 2.1-1.443 1.2 0 2.1.902 2.1 2.104 0 1.743-1.86 3.426-4.74 6.071z"/></svg>