<svg xmlns="http://www.w3.org/2000/svg" width="19" height="20" viewBox="0 0 19 20"><defs><linearGradient id="a" x1="100%" x2="0%" y1="100%" y2="0%"><stop offset="0%" stop-color="#D7B660"/><stop offset="100%" stop-color="#B07F2B"/></linearGradient></defs><path fill="url(#a)" d="M3.24 5.6c1.376 0 2.516-1.046 2.707-2.4h12.162a.395.395 0 0 0 .391-.4c0-.221-.175-.4-.391-.4H5.947C5.756 1.046 4.617 0 3.239 0 1.73 0 .5 1.256.5 2.8c0 1.544 1.23 2.8 2.74 2.8zm0-4.8c1.078 0 1.956.897 1.956 2s-.878 2-1.957 2c-1.079 0-1.956-.897-1.956-2s.877-2 1.956-2zM.89 17.6a.395.395 0 0 1-.391-.4c0-.221.175-.4.391-.4h12.162c.191-1.354 1.33-2.4 2.708-2.4 1.51 0 2.739 1.256 2.739 2.8 0 1.544-1.23 2.8-2.74 2.8-1.376 0-2.516-1.046-2.707-2.4H.891zm14.87-2.4c-1.079 0-1.957.897-1.957 2s.878 2 1.957 2c1.079 0 1.956-.897 1.956-2s-.877-2-1.956-2zM.89 10.4A.395.395 0 0 1 .5 10c0-.221.175-.4.391-.4h6.292c.191-1.354 1.331-2.4 2.708-2.4 1.377 0 2.517 1.046 2.708 2.4h5.51c.216 0 .391.179.391.4 0 .221-.175.4-.391.4h-5.51c-.19 1.354-1.33 2.4-2.708 2.4-1.377 0-2.517-1.046-2.708-2.4H.891zm9-2.4c-1.079 0-1.956.897-1.956 2s.877 2 1.956 2c1.08 0 1.957-.897 1.957-2S10.97 8 9.89 8z"/></svg>