<svg xmlns="http://www.w3.org/2000/svg" width="32" height="32" viewBox="0 0 32 32"><g fill="#799CC0"><path d="M29.909 10.7C30.949 8.628 32 6.097 32 4.822A4.815 4.815 0 0 0 27.204 0a4.814 4.814 0 0 0-4.796 4.822c0 1.275 1.05 3.807 2.091 5.878a3.356 3.356 0 0 0-2.02 2.123h-.071a.534.534 0 0 0 0 1.068h.07c.37 1.534 2.31 2.671 4.726 2.671 2.69 0 4.796-1.408 4.796-3.205 0-1.085-.787-2.068-2.091-2.657zm-6.435-5.878a3.746 3.746 0 0 1 3.73-3.753 3.746 3.746 0 0 1 3.73 3.753c0 1.478-1.99 5.722-3.283 7.753a.543.543 0 0 1-.895 0c-1.291-2.031-3.282-6.275-3.282-7.753zm3.73 10.672c-2.022 0-3.73-.979-3.73-2.137 0-.656.584-1.3 1.519-1.708.316.588.616 1.109.864 1.5a1.594 1.594 0 0 0 2.693 0c.25-.391.549-.912.865-1.5.935.409 1.52 1.052 1.52 1.708 0 1.158-1.71 2.137-3.731 2.137z"/><path d="M29.875 4.781a2.656 2.656 0 1 0-5.313 0 2.656 2.656 0 0 0 5.313 0zm-4.25 0a1.594 1.594 0 1 1 3.188 0 1.594 1.594 0 0 1-3.188 0zM11.25 15.469a4.281 4.281 0 1 0-8.562 0 4.281 4.281 0 0 0 8.562 0zm-7.492 0a3.21 3.21 0 1 1 6.422 0 3.21 3.21 0 0 1-6.422 0z"/><path d="M13.843 28.271h-.059c-.286-1.14-1.695-2.077-3.854-2.546 1.756-3.232 3.913-8.015 3.913-10.217a6.925 6.925 0 0 0-3.455-6.014 6.919 6.919 0 0 0-6.933 0A6.925 6.925 0 0 0 0 15.508c0 2.202 2.156 6.985 3.913 10.217C1.485 26.253 0 27.37 0 28.706 0 30.584 2.976 32 6.921 32c3.49 0 6.217-1.108 6.801-2.663h.12a.532.532 0 0 0 0-1.066zM1.065 15.508a5.875 5.875 0 0 1 5.856-5.88 5.875 5.875 0 0 1 5.857 5.88c0 2.255-3.01 8.675-4.96 11.737a1.06 1.06 0 0 1-1.792 0c-1.952-3.062-4.961-9.482-4.961-11.737zM6.92 30.935c-3.352 0-5.856-1.177-5.856-2.229 0-.69 1.171-1.581 3.395-2 .24.416.466.794.668 1.111a2.123 2.123 0 0 0 3.587 0c.202-.317.429-.695.668-1.11 2.224.418 3.395 1.31 3.395 2 0 1.051-2.505 2.228-5.857 2.228zm12.018-12.784a.536.536 0 0 0-.537-.536h-.548a1.91 1.91 0 0 1-.392-.04.536.536 0 1 0-.223 1.048c.202.043.408.065.615.064h.548c.296 0 .537-.24.537-.536zm9.347.42a.541.541 0 0 0-.327-.68 5.651 5.651 0 0 0-1.113-.262.523.523 0 0 0-.487.208.547.547 0 0 0-.067.535.53.53 0 0 0 .421.326c.31.04.613.111.908.213a.526.526 0 0 0 .665-.34zm2.183 2.174a.54.54 0 0 0 .43-.323.517.517 0 0 0-.075-.524 5.928 5.928 0 0 0-.8-.83.551.551 0 0 0-.764.05.52.52 0 0 0 .05.745c.242.205.462.433.658.68.118.15.309.227.501.202zm-8.343-2.589a.533.533 0 0 0-.535-.531h-1.055a.533.533 0 0 0-.535.531c0 .294.24.532.535.532h1.055a.533.533 0 0 0 .535-.532zm9.682 3.806a.539.539 0 1 0-1.038.282c.083.307.135.622.156.94a.539.539 0 1 0 1.074-.072 5.906 5.906 0 0 0-.192-1.15zm-.479 2.692a.533.533 0 0 0-.676.328c-.103.295-.234.58-.392.85a.526.526 0 0 0 .192.721c.254.147.58.062.728-.19a5.78 5.78 0 0 0 .479-1.038.527.527 0 0 0-.331-.671zM17.027 28.25h-1.054a.533.533 0 0 0-.536.531c0 .294.24.532.536.532h1.054a.533.533 0 0 0 .535-.532.533.533 0 0 0-.535-.531zm9.403.001a5.087 5.087 0 0 1-.297.01h-.723a.53.53 0 0 0-.535.525c0 .29.24.526.535.526h.723c.122 0 .243-.003.364-.01a.536.536 0 0 0 .447-.29.519.519 0 0 0-.033-.527.539.539 0 0 0-.48-.234zm-1.18-10.095a.533.533 0 0 0-.535-.531H23.66a.533.533 0 0 0-.535.531c0 .294.24.532.535.532h1.055a.533.533 0 0 0 .535-.532zm3.776 9.142a4.77 4.77 0 0 1-.794.5.538.538 0 0 0-.24.716.525.525 0 0 0 .707.243 5.79 5.79 0 0 0 .97-.61.54.54 0 0 0 .097-.75.524.524 0 0 0-.74-.1zm-8.874.952h-1.054a.533.533 0 0 0-.535.531c0 .294.24.532.535.532h1.054a.533.533 0 0 0 .535-.532.533.533 0 0 0-.535-.531zm3.188 0h-1.055a.537.537 0 0 0-.535.531.538.538 0 0 0 .535.531h1.055a.533.533 0 0 0 .535-.53.533.533 0 0 0-.535-.532zM16.213 14.5c.132 0 .26-.05.357-.14a1.85 1.85 0 0 1 .69-.4.524.524 0 1 0-.32-.998 2.907 2.907 0 0 0-1.084.63.523.523 0 0 0 .357.908zm3.01-.625h1.054a.533.533 0 0 0 .535-.531.533.533 0 0 0-.535-.531h-1.054a.533.533 0 0 0-.535.53c0 .294.24.532.535.532zm-3.048 3.243a.54.54 0 0 0 .014-.523 1.872 1.872 0 0 1-.208-.777.531.531 0 0 0-.547-.505.528.528 0 0 0-.496.557c.02.427.132.844.33 1.222a.52.52 0 0 0 .46.283.52.52 0 0 0 .447-.257z"/></g></svg>