<svg xmlns="http://www.w3.org/2000/svg" width="39" height="33" viewBox="0 0 39 33"><path fill="#799CC0" fill-rule="evenodd" d="M11.366.625c-.017-.352.286-.646.615-.622 4.801-.004 9.602-.003 14.404 0 .326-.024.64.26.622.615.007 1.365-.004 2.73.002 4.096-.004.205.01.437-.125.604a.543.543 0 0 1-.75.127c-.185-.12-.255-.355-.25-.573l-.002-3.688c-4.464.002-8.929-.003-13.393.002v27.153c1.32-.003 2.64-.001 3.96 0v-1.971c-.308.028-.686-.088-.759-.447-.063-.687-.064-1.436.278-2.052.394-.764 1.197-1.262 2.022-1.267.798-.007 1.596-.016 2.394-.003a2.34 2.34 0 0 1 1.816.948c.358.466.52 1.068.51 1.662-.018.328.076.733-.18.987-.201.209-.504.153-.758.164.002.66.003 1.319.002 1.978 1.37.003 2.739 0 4.11.001V7.55c-.026-.293.124-.618.413-.687.36-.122.742.225.711.613l.001 17.044c1.665-.002 3.33 0 4.995-.003.204-.001.431 0 .593.154.172.145.199.394.196.612-.003 1.019-.001 2.038-.001 3.057.782.003 1.564-.006 2.345-.002-.003-.619 0-1.238.003-1.857-.829-.725-1.589-1.61-1.926-2.707-.33-1.008-.203-2.148.271-3.082a6.608 6.608 0 0 1 1.868-2.289.53.53 0 0 1 .666-.022 6.546 6.546 0 0 1 2.026 2.582c.373.888.437 1.92.135 2.842-.34 1.085-1.093 1.96-1.916 2.676v1.858c.281.012.623-.06.843.177.171.16.176.416.174.64-.006.788.006 1.577-.005 2.365.005.255-.153.503-.39.575-.198.054-.406.031-.608.036-5.424-.002-10.848.002-16.271-.002-.294.017-.594-.21-.61-.532a.586.586 0 0 1 .612-.647c5.382-.005 10.764-.002 16.146-.002v-1.426H2.216v1.427c5.083-.002 10.166-.004 15.25.001.395-.042.741.408.578.802-.101.316-.447.408-.73.38-5.197-.005-10.394.002-15.591-.003-.3.021-.61-.212-.622-.542-.024-.784-.001-1.57-.01-2.354 0-.247-.02-.537.172-.72.22-.236.563-.163.846-.175-.002-.62-.002-1.238-.002-1.858-.844-.742-1.622-1.647-1.946-2.777-.304-1.016-.168-2.155.328-3.078.39-.79.954-1.475 1.605-2.04.176-.143.359-.33.6-.312.254.01.435.222.625.372.82.743 1.517 1.678 1.851 2.77a4.09 4.09 0 0 1-.18 2.818c-.39.895-1.047 1.623-1.757 2.248v1.858h2.946c.002-2.802-.004-5.603.002-8.403-.016-.3.19-.601.483-.633.348-.067.665.27.638.633.007 2.8-.002 5.6.003 8.4 1.353.003 2.706.004 4.059.003l-.001-3.976c-.716-.004-1.432.003-2.146-.008a.57.57 0 0 1-.549-.494c-.066-.346.22-.683.548-.678.715-.014 1.431-.002 2.147-.005.002-.71 0-1.419.001-2.129-.716-.005-1.433.01-2.15-.006-.34.006-.633-.364-.541-.716a.563.563 0 0 1 .543-.456c.715-.012 1.431 0 2.147-.004.001-.709.002-1.417-.001-2.126-.715 0-1.43.004-2.146-.008-.343.008-.635-.368-.54-.72.05-.294.339-.47.608-.456.692-.004 1.385 0 2.078-.001.004-.71 0-1.419.002-2.128-.716-.006-1.432.008-2.147-.006-.343.008-.631-.364-.544-.716a.561.561 0 0 1 .544-.456c.716-.014 1.432 0 2.148-.007-.003-.905.002-1.81-.004-2.715H7.304c0 2.267.003 4.534 0 6.8.001.214-.064.448-.245.567a.544.544 0 0 1-.751-.113c-.117-.146-.129-.347-.13-.53 0-2.42 0-4.841.004-7.262-.015-.298.19-.598.481-.63.337-.034.677-.006 1.016-.014.004-.587-.008-1.172.004-1.758a.574.574 0 0 1 .563-.567c1.04-.01 2.079 0 3.118-.004.002-2.13-.007-4.262.002-6.392zM8.802 8.2l.001 1.145h2.561V8.2H8.802zm25.365 14.177c-.078.94.388 1.81.972 2.483.004-.777-.008-1.554.005-2.33-.002-.277.2-.538.463-.576.33-.076.66.227.652.578.012.777 0 1.554.005 2.331.584-.678 1.053-1.555.972-2.5-.085-1.105-.788-2.012-1.529-2.741-.753.725-1.452 1.644-1.54 2.755zm-33.038.07c-.05.923.42 1.757.98 2.426 0-.78-.008-1.561.004-2.34.001-.267.181-.529.437-.574.334-.094.687.21.677.571.013.776.001 1.553.006 2.33.584-.672 1.046-1.543.973-2.482-.084-1.111-.783-2.032-1.536-2.756-.762.744-1.48 1.688-1.54 2.825zm15.653 2.726c1.604.002 3.207.004 4.81.003.04-.712-.518-1.398-1.209-1.393-.824-.004-1.649-.013-2.472.007-.66.035-1.168.703-1.129 1.383zm10.226.528v2.637c1.553-.004 3.106.004 4.66.001-.004-.881.005-1.762-.005-2.643-1.552.017-3.104-.002-4.655.005zm-9.434.657v1.981c1.024-.001 2.048.004 3.072-.004.002-.659.002-1.318.002-1.977h-3.074zm-3.365-22.69a.78.78 0 0 1 .33-.069c3.15-.008 6.299.004 9.448-.003.195-.002.403.07.52.243.181.246.125.645-.122.82-.135.111-.313.12-.477.123-3.074-.002-6.147-.002-9.222 0-.22.005-.469-.008-.628-.192-.25-.264-.172-.762.15-.922zm-.01 3.939c.127-.073.276-.077.418-.077 3.147.01 6.294-.01 9.441.008.347-.01.638.372.538.725-.053.291-.34.464-.608.45-3.15.003-6.3.002-9.45 0-.226.008-.467-.097-.568-.32-.145-.272-.035-.645.228-.786zm.235 3.867c3.183-.022 6.367.001 9.552-.01a.594.594 0 0 1 .624.658c-.023.324-.325.546-.622.525-3.152.003-6.303.003-9.455 0-.266.015-.551-.156-.606-.446-.099-.341.169-.72.507-.727zm-.008 3.936c3.186-.02 6.375-.007 9.563-.008a.589.589 0 0 1 .62.66c-.024.324-.327.538-.62.52-3.153.002-6.306.003-9.458 0-.264.012-.545-.153-.603-.438-.101-.34.16-.723.498-.734zm-.008 3.935c3.189-.024 6.38-.005 9.57-.01.346-.03.682.296.62.67-.03.32-.33.53-.62.512-3.153.004-6.305-.003-9.457.001-.263.012-.541-.155-.602-.437-.103-.338.154-.719.489-.736z"/></svg>