<svg xmlns="http://www.w3.org/2000/svg" width="18" height="19" viewBox="0 0 18 19"><defs><linearGradient id="a" x1="100%" x2="0%" y1="100%" y2="0%"><stop offset="0%" stop-color="#D7B660"/><stop offset="100%" stop-color="#B07F2B"/></linearGradient></defs><g fill="url(#a)"><path d="M16.8 9.147a.507.507 0 0 0-.506.507c0 4.212-3.428 7.64-7.64 7.64-4.213 0-7.64-3.428-7.64-7.64 0-4.213 3.427-7.64 7.64-7.64 1.284 0 2.534.32 3.65.927l-.635.634a.507.507 0 0 0 .359.865h2.426c.28 0 .507-.227.507-.507V1.507a.507.507 0 0 0-.865-.358l-1.049 1.048A8.62 8.62 0 0 0 8.654 1c-2.312 0-4.485.9-6.12 2.535A8.597 8.597 0 0 0 0 9.654c0 2.311.9 4.485 2.535 6.119a8.597 8.597 0 0 0 6.119 2.535 8.6 8.6 0 0 0 6.12-2.535 8.597 8.597 0 0 0 2.534-6.12.507.507 0 0 0-.507-.506zM13.948 2.73v.695h-.695l.695-.695z"/><path d="M11.276 9.168H8.601V6.493a.493.493 0 1 0-.986 0V9.66c0 .272.221.493.493.493h3.168a.493.493 0 0 0 0-.986z"/></g></svg>