<svg xmlns="http://www.w3.org/2000/svg" width="25" height="25" viewBox="0 0 25 25"><g fill="#FFF"><path d="M24.268 11.768a.732.732 0 0 0-.733.732c0 6.085-4.95 11.035-11.035 11.035S1.465 18.585 1.465 12.5 6.415 1.465 12.5 1.465c1.855 0 3.66.46 5.271 1.338l-.915.916a.732.732 0 0 0 .518 1.25h3.504a.732.732 0 0 0 .733-.732V.732a.732.732 0 0 0-1.25-.517l-1.515 1.514A12.452 12.452 0 0 0 12.5 0C9.161 0 6.022 1.3 3.661 3.661A12.418 12.418 0 0 0 0 12.5c0 3.339 1.3 6.478 3.661 8.839A12.418 12.418 0 0 0 12.5 25c3.339 0 6.478-1.3 8.839-3.661A12.418 12.418 0 0 0 25 12.5a.732.732 0 0 0-.732-.732zM20.146 2.5v1.004h-1.004L20.146 2.5z"/><path d="M16.288 11.576h-3.864V7.712a.712.712 0 1 0-1.424 0v4.576c0 .393.319.712.712.712h4.576a.712.712 0 0 0 0-1.424z"/></g></svg>