<svg xmlns="http://www.w3.org/2000/svg" width="679" height="376" viewBox="0 0 679 376"><g fill="#799CC0" fill-rule="evenodd"><path d="M669.073 101.116h-69.425V26.93c0-4.93-3.998-8.93-8.928-8.93H398.28c-4.93 0-8.927 3.999-8.927 8.931v74.186h-69.425a8.93 8.93 0 0 0-8.928 8.93V366.07c0 4.932 3.997 8.931 8.928 8.931h349.144c4.93 0 8.928-3.999 8.928-8.931V110.047c0-4.933-3.997-8.931-8.927-8.931zm-340.217 17.862h60.496v20.473h-36.619c-4.93 0-8.928 3.999-8.928 8.932a8.929 8.929 0 0 0 8.928 8.93h36.619v26.19h-36.619c-4.93 0-8.928 4-8.928 8.932 0 4.933 3.997 8.931 8.928 8.931h36.619v26.19h-36.619c-4.93 0-8.928 3.999-8.928 8.931 0 4.933 3.997 8.932 8.928 8.932h36.619v26.2h-36.619a8.93 8.93 0 0 0-8.928 8.93c0 4.933 3.997 8.932 8.928 8.932h36.619v26.19h-36.619c-4.93 0-8.928 3.998-8.928 8.931 0 4.933 3.997 8.931 8.928 8.931h36.619v23.604h-60.496V118.978zm173.015 238.159h-22.035v-44.583h22.035v44.583zm17.856 0v-53.514c0-4.933-3.998-8.932-8.928-8.932h-39.891c-4.931 0-8.928 3.999-8.928 8.932v53.514h-54.772V35.863h174.584v321.276h-62.065v-.001zM504 92h24.14c3.7 0 6.697 4.03 6.697 9s-2.998 9-6.697 9H504v23.14c0 3.7-4.03 6.697-9 6.697s-9-2.998-9-6.697V110h-23.303c-3.699 0-6.697-4.03-6.697-9s2.999-9 6.697-9H486V67.697c0-3.699 4.03-6.697 9-6.697s9 2.999 9 6.697V92zm156.145 265.137h-60.497v-23.604h36.62c4.93 0 8.928-3.998 8.928-8.931 0-4.933-3.998-8.931-8.928-8.931h-36.62v-26.19h36.62c4.93 0 8.928-3.999 8.928-8.931 0-4.933-3.998-8.932-8.928-8.932h-36.62v-26.2h36.62a8.93 8.93 0 0 0 8.928-8.93c0-4.933-3.998-8.932-8.928-8.932h-36.62v-26.19h36.62c4.93 0 8.928-3.998 8.928-8.931 0-4.933-3.998-8.931-8.928-8.931h-36.62v-26.19h36.62c4.93 0 8.928-3.999 8.928-8.931 0-4.933-3.998-8.932-8.928-8.932h-36.62v-20.473h60.497v238.159zM559.05 165c4.943 0 8.95 4.03 8.95 9s-4.008 9-8.95 9h-129.1c-4.943 0-8.95-4.03-8.95-9s4.007-9 8.95-9h129.1zm0 44c4.943 0 8.95 4.03 8.95 9s-4.008 9-8.95 9h-129.1c-4.943 0-8.95-4.03-8.95-9s4.007-9 8.95-9h129.1zm0 44c4.943 0 8.95 4.03 8.95 9s-4.008 9-8.95 9h-129.1c-4.943 0-8.95-4.03-8.95-9s4.007-9 8.95-9h129.1z"/><path fill-rule="nonzero" d="M237.999 100.605c.076-7.405-2.766-14.366-8.002-19.602C224.829 75.835 217.982 73 210.685 73l-.29.001c-7.405.076-14.306 3.061-19.433 8.404l-40.608 42.315L44.097 88.555l-31.38 31.38 88.799 54.676-36.538 38.075-28.677-4.708L6 238.278l49.415 17.307L72.723 305l30.3-30.3-4.708-28.678 38.075-36.538 54.676 88.8 31.38-31.38-35.164-106.258 42.315-40.608c5.342-5.127 8.325-12.029 8.402-19.433zm-18.179 9.944l-48.443 46.488 35.178 106.3-13.252 13.251-54.414-88.374-55.332 53.1 4.73 28.814-10.042 10.043-12.3-35.117-35.116-12.299 10.043-10.043 28.814 4.73 53.1-55.33-88.374-54.415 13.252-13.252 106.299 35.179 46.489-48.444a13.595 13.595 0 0 1 9.742-4.213h.145c3.658 0 7.091 1.42 9.682 4.012a13.593 13.593 0 0 1 4.012 9.827 13.599 13.599 0 0 1-4.213 9.743z"/></g></svg>