<svg xmlns="http://www.w3.org/2000/svg" xmlns:xlink="http://www.w3.org/1999/xlink" width="24" height="24" viewBox="0 0 24 24"><defs><linearGradient id="b" x1="103.277%" x2="0%" y1="97.046%" y2="0%"><stop offset="0%" stop-color="#D7B660"/><stop offset="100%" stop-color="#B07F2B"/></linearGradient><path id="a" d="M12 0C5.378 0 0 5.378 0 12s5.378 12 12 12 12-5.378 12-12S18.622 0 12 0zm0 22.959C5.957 22.959 1.041 18.043 1.041 12 1.041 5.957 5.957 1.041 12 1.041c6.043 0 10.959 4.916 10.959 10.959 0 6.043-4.916 10.959-10.959 10.959z"/><path id="c" d="M18.566 9.65h-3.67V5.98a.522.522 0 0 0-.525-.524h-4.196a.522.522 0 0 0-.525.524v3.67H5.98a.522.522 0 0 0-.524.525v4.196c0 .291.233.524.524.524h3.67v3.671c0 .292.233.525.525.525h4.196a.522.522 0 0 0 .524-.525v-3.67h3.671a.522.522 0 0 0 .525-.525v-4.196c-.03-.292-.262-.525-.525-.525zm-.495 4.196h-3.7a.522.522 0 0 0-.525.525v3.671H10.7v-3.671a.522.522 0 0 0-.524-.525H6.503V10.7h3.672a.522.522 0 0 0 .524-.524V6.503h3.176v3.672c0 .291.233.524.525.524h3.671v3.147z"/></defs><g fill="none" fill-rule="evenodd"><use fill="#C9A14C" xlink:href="#a"/><use fill="url(#b)" xlink:href="#a"/><use fill="#C9A14C" xlink:href="#c"/><use fill="url(#b)" xlink:href="#c"/></g></svg>