<svg xmlns="http://www.w3.org/2000/svg" width="23" height="26" viewBox="0 0 23 26"><defs><linearGradient id="a" x1="100%" x2="0%" y1="100%" y2="0%"><stop offset="0%" stop-color="#D7B660"/><stop offset="100%" stop-color="#B07F2B"/></linearGradient></defs><path fill="url(#a)" d="M21.001 13.93V9.083c0-.881-.744-1.598-1.658-1.598H3.87c-.914 0-1.658.717-1.658 1.598v4.849C.95 14.179 0 15.255 0 16.54v8.525c0 .294.248.533.553.533h2.21a.543.543 0 0 0 .553-.533v-1.598h16.58v1.598c0 .294.247.533.552.533h2.211a.543.543 0 0 0 .553-.533v-8.524c0-1.286-.951-2.362-2.21-2.61zM3.316 9.083c0-.293.248-.533.553-.533h15.474c.305 0 .553.24.553.533v4.795H18.79v-2.131c0-.881-.743-1.598-1.658-1.598h-3.315c-.915 0-1.658.717-1.658 1.598v2.131h-1.106v-2.131c0-.881-.744-1.598-1.658-1.598H6.08c-.914 0-1.658.717-1.658 1.598v2.131H3.316V9.082zm14.37 2.664v2.131h-4.422v-2.131c0-.294.248-.533.553-.533h3.315c.305 0 .553.24.553.533zm-7.738 0v2.131H5.527v-2.131c0-.294.248-.533.552-.533h3.316c.305 0 .553.24.553.533zm12.158 12.786h-1.105v-1.598a.543.543 0 0 0-.553-.533H2.763a.543.543 0 0 0-.552.533v1.598H1.105V20.27h21.001v4.262zm0-5.327h-21V16.54c0-.881.743-1.598 1.657-1.598h17.685c.915 0 1.658.717 1.658 1.598v2.664zm-8.14-16.621A2.503 2.503 0 0 1 11.5 5.5 2.503 2.503 0 0 1 8.999 3 2.503 2.503 0 0 1 12.334.643l-.238.673A1.788 1.788 0 0 0 9.715 3c0 .985.8 1.786 1.785 1.786a1.788 1.788 0 0 0 1.76-2.084l.705-.118zM14.455.5L15 .987 12.311 3.4a.407.407 0 0 1-.271.101.407.407 0 0 1-.272-.101L11 2.709l.543-.486.497.445L14.457.5z"/></svg>