<svg xmlns="http://www.w3.org/2000/svg" width="20" height="20" viewBox="0 0 20 20"><defs><linearGradient id="a" x1="100%" x2="0%" y1="100%" y2="0%"><stop offset="0%" stop-color="#D7B660"/><stop offset="100%" stop-color="#B07F2B"/></linearGradient></defs><g fill="none" fill-rule="evenodd" transform="translate(1 1)"><circle cx="9" cy="9" r="9" stroke="url(#a)" stroke-width="1.2"/><path fill="#B07F2B" d="M10.72 7.28c0-.732-.612-1.32-1.464-1.32-.684 0-1.248.3-1.68.888L7 6.212C7.444 5.492 8.32 5 9.316 5c.756 0 1.344.204 1.776.6.444.396.66.888.66 1.476 0 .372-.06.696-.192.996-.252.588-.66.864-1.092 1.212-.588.504-1.2.864-1.02 1.8l-.864.012c-.156-.828.12-1.416.564-1.788.636-.528 1.572-.996 1.572-2.028zm-2.376 5.592c0-.336.276-.636.696-.636.348 0 .636.312.636.636 0 .372-.264.684-.636.684a.672.672 0 0 1-.696-.684z"/></g></svg>