<svg xmlns="http://www.w3.org/2000/svg" width="43" height="43" viewBox="0 0 43 43"><g fill="none" fill-rule="evenodd" transform="translate(0 -1)"><rect width="43" height="43" fill="#EA3735" rx="21.5"/><path fill="#FFF" d="M20.022 24.939l5.09-2.934-5.09-2.933v5.867zm-7.736-3.358c.005-.028.015-.055.016-.083.028-.636.046-1.272.084-1.907.047-.773.109-1.548.305-2.3.254-.974.872-1.608 1.846-1.82.553-.12 1.123-.174 1.689-.214a65.85 65.85 0 0 1 2.69-.132c1-.03 2-.037 3-.05.272-.004.545.004.818.008.558.01 1.117.015 1.676.03.742.02 1.484.035 2.225.075.735.04 1.47.104 2.202.17.332.03.663.08.976.205.888.358 1.398 1.033 1.56 1.974.096.553.176 1.112.218 1.671.062.836.103 1.675.12 2.513.013.62-.02 1.24-.04 1.86a21.406 21.406 0 0 1-.19 2.286c-.055.391-.107.786-.255 1.155-.368.922-1.058 1.44-2.022 1.577-.527.075-1.058.132-1.59.166-.867.055-1.736.086-2.605.123-.31.013-.622.016-.933.02-.875.007-1.751.019-2.627.018-.648 0-1.295-.016-1.943-.028-.409-.007-.819-.011-1.227-.031-.783-.039-1.566-.075-2.347-.136a9.78 9.78 0 0 1-1.395-.19c-.97-.22-1.584-.845-1.845-1.812-.157-.581-.222-1.181-.266-1.78-.052-.718-.078-1.438-.116-2.157-.006-.12-.016-.241-.024-.362v-.85z"/></g></svg>