<svg xmlns="http://www.w3.org/2000/svg" width="43" height="43" viewBox="0 0 43 43"><g fill="none" fill-rule="evenodd" transform="translate(0 -1)"><rect width="43" height="43" fill="#375988" rx="21.5"/><path fill="#FFF" d="M26 18.023a1.076 1.076 0 0 1-1.065-1.085c0-.6.477-1.085 1.065-1.085s1.063.485 1.063 1.085-.475 1.085-1.063 1.085zm-4.772.46c-.78 0-1.529.313-2.084.872a3.397 3.397 0 0 0-.977 2.383 3.257 3.257 0 0 0 .858 2.408 3.158 3.158 0 0 0 2.307 1.015c.432 0 .859-.09 1.257-.265a3.19 3.19 0 0 0 1.05-.75 3.274 3.274 0 0 0 .857-2.407 3.025 3.025 0 0 0-.833-2.382 2.917 2.917 0 0 0-1.067-.7 2.876 2.876 0 0 0-1.259-.175h-.11zm-2.992 6.42a4.522 4.522 0 0 1-1.287-3.164 4.637 4.637 0 0 1 1.328-3.29 4.175 4.175 0 0 1 3.06-1.186 4.077 4.077 0 0 1 1.72.267c.549.212 1.047.54 1.462.964a4.258 4.258 0 0 1 1.206 3.245 4.525 4.525 0 0 1-1.285 3.164 4.345 4.345 0 0 1-3.103 1.31 4.345 4.345 0 0 1-3.101-1.31zm-.343-10.639a3.62 3.62 0 0 0-2.584 1.09 3.768 3.768 0 0 0-1.07 2.635v7.497c0 .988.385 1.936 1.07 2.634a3.619 3.619 0 0 0 2.584 1.092h6.89c.968 0 1.898-.393 2.582-1.092a3.763 3.763 0 0 0 1.07-2.634V17.99a3.77 3.77 0 0 0-1.07-2.635 3.618 3.618 0 0 0-2.583-1.09h-6.89zm0 16.211a4.843 4.843 0 0 1-3.46-1.46A5.044 5.044 0 0 1 13 25.485V17.99a5.04 5.04 0 0 1 1.433-3.528A4.843 4.843 0 0 1 17.893 13h6.89c1.297 0 2.542.525 3.459 1.46a5.04 5.04 0 0 1 1.433 3.53v7.496a5.044 5.044 0 0 1-1.433 3.528 4.843 4.843 0 0 1-3.46 1.461h-6.89z"/></g></svg>