<svg xmlns="http://www.w3.org/2000/svg" width="18" height="18" viewBox="0 0 18 18"><defs><linearGradient id="a" x1="100%" x2="0%" y1="100%" y2="0%"><stop offset="0%" stop-color="#D7B660"/><stop offset="100%" stop-color="#B07F2B"/></linearGradient></defs><path fill="url(#a)" d="M1.613 1.759l.573.58 1-1a1.455 1.455 0 0 0-1.05-.455A1.46 1.46 0 0 0 .682 2.348a1.46 1.46 0 0 0 1.454 1.465c.635 0 1.21-.43 1.393-1.041a.343.343 0 1 1 .655.199A2.129 2.129 0 0 1 2.136 4.5 2.146 2.146 0 0 1 0 2.348C0 1.161.958.196 2.136.196A2.13 2.13 0 0 1 3.671.85l.75-.749a.338.338 0 0 1 .481 0 .346.346 0 0 1-.003.485l-2.476 2.48a.339.339 0 0 1-.482 0l-.813-.824a.341.341 0 1 1 .485-.483zM2 6c1.103 0 2 .897 2 2s-.897 2-2 2-2-.897-2-2 .897-2 2-2zm0 3.361A1.362 1.362 0 0 0 2 6.64a1.362 1.362 0 0 0 0 2.72zM4 13c0 1.103-.897 2-2 2s-2-.897-2-2 .897-2 2-2 2 .897 2 2zm-2 1.364a1.362 1.362 0 0 0 0-2.723 1.362 1.362 0 0 0 0 2.723zM14.579 8c.233 0 .421.224.421.5s-.188.5-.421.5H6.42C6.188 9 6 8.776 6 8.5s.188-.5.421-.5h8.158zm0-6c.233 0 .421.224.421.5s-.188.5-.421.5H6.42C6.188 3 6 2.776 6 2.5s.188-.5.421-.5h8.158zm0 11c.233 0 .421.22.421.5 0 .276-.188.5-.421.5H6.42c-.232 0-.42-.224-.42-.5s.188-.5.421-.5h8.158z" transform="translate(2 1)"/></svg>