<svg xmlns="http://www.w3.org/2000/svg" width="24" height="24" viewBox="0 0 24 24"><g fill="#FFF"><path d="M11.967 0C5.357 0 0 5.358 0 11.967c0 6.608 5.358 11.966 11.967 11.966 6.608 0 11.966-5.358 11.966-11.966C23.927 5.36 18.573.007 11.967 0zm0 22.817c-5.993 0-10.85-4.858-10.85-10.85 0-5.993 4.857-10.85 10.85-10.85 5.992 0 10.85 4.857 10.85 10.85-.006 5.99-4.86 10.844-10.85 10.85z"/><path d="M14.897 12.273a2.635 2.635 0 0 0-1.117-.937 6.335 6.335 0 0 0-1.384-.43V8.673c.552.117 1.07.355 1.518.698a.558.558 0 0 0 .804-.167.558.558 0 0 0-.156-.804 4.716 4.716 0 0 0-2.177-.899V4.365a.419.419 0 1 0-.837 0v3.187c-.51.07-.997.26-1.418.558a2.087 2.087 0 0 0-.904 1.674c-.002.328.09.649.262.927a2.43 2.43 0 0 0 1.05.882c.324.145.663.257 1.01.334v2.5a4.136 4.136 0 0 1-1.596-.803.586.586 0 0 0-.826.078.603.603 0 0 0 .089.826c.674.55 1.477.92 2.333 1.078v3.226a.419.419 0 1 0 .837 0v-3.22a3.472 3.472 0 0 0 1.814-.626c.588-.393.95-1.046.971-1.753a1.83 1.83 0 0 0-.273-.96zM11.542 10.7a2.912 2.912 0 0 1-.77-.335 1.083 1.083 0 0 1-.307-.296.558.558 0 0 1-.078-.318.899.899 0 0 1 .43-.71c.218-.153.465-.26.725-.317V10.7zm1.976 3.348a2.344 2.344 0 0 1-1.116.397v-2.361c.408.084.8.233 1.16.44v.006c.139.086.255.203.341.34a.642.642 0 0 1 .1.363c-.017.336-.198.64-.485.815z"/></g></svg>