<svg xmlns="http://www.w3.org/2000/svg" width="24" height="24" viewBox="0 0 24 24"><g fill="#FFF" fill-rule="evenodd"><path fill-rule="nonzero" d="M11.967 0C5.357 0 0 5.358 0 11.967c0 6.608 5.358 11.966 11.967 11.966 6.608 0 11.966-5.358 11.966-11.966C23.927 5.36 18.573.007 11.967 0zm0 22.817c-5.993 0-10.85-4.858-10.85-10.85 0-5.993 4.857-10.85 10.85-10.85 5.992 0 10.85 4.857 10.85 10.85-.006 5.99-4.86 10.844-10.85 10.85z"/><path d="M11.316 10.465h1.675v6.698h-1.675v-6.698zm-.237-2.274c0-.27.1-.505.3-.705.2-.2.454-.3.76-.3.308 0 .566.095.775.286.21.19.314.43.314.719a.931.931 0 0 1-.314.718c-.21.191-.467.286-.774.286s-.56-.1-.76-.3c-.2-.2-.3-.435-.3-.704z"/></g></svg>