<svg xmlns="http://www.w3.org/2000/svg" width="20" height="20" viewBox="0 0 20 20"><defs><linearGradient id="a" x1="100%" x2="0%" y1="100%" y2="0%"><stop offset="0%" stop-color="#D7B660"/><stop offset="100%" stop-color="#B07F2B"/></linearGradient></defs><g fill="none" fill-rule="evenodd" transform="translate(1 1)"><circle cx="9" cy="9" r="9" stroke="url(#a)" stroke-width="1.2"/><path fill="#B07F2B" d="M7.375 9.612H6.209v-.715h1.166V5.3c.143 0 .462 0 .979-.011.517-.011.869-.011 1.034-.011 1.903 0 2.849.726 2.849 2.189 0 1.287-.957 2.145-2.772 2.145H8.31v1.155h1.903v.715H8.31V13h-.935v-1.518H6.209v-.715h1.166V9.612zm2.101-3.454c-.297 0-.682.011-1.166.022v2.717h1.122c1.155 0 1.815-.451 1.815-1.364s-.594-1.375-1.771-1.375z"/></g></svg>