<svg xmlns="http://www.w3.org/2000/svg" width="18" height="18" viewBox="0 0 18 18"><defs><linearGradient id="a" x1="100%" x2="0%" y1="100%" y2="0%"><stop offset="0%" stop-color="#D7B660"/><stop offset="100%" stop-color="#B07F2B"/></linearGradient></defs><path fill="url(#a)" d="M17.81 3.713a.557.557 0 0 1 0 .837.685.685 0 0 1-.912 0l-2.745-2.518V12.4c0 .333-.291.6-.653.6-.362 0-.653-.267-.653-.6V2.032L10.102 4.55a.685.685 0 0 1-.912 0 .557.557 0 0 1 0-.837L13.042.174a.685.685 0 0 1 .913 0l3.855 3.539zm-9 8.737a.56.56 0 0 1 .003.837l-3.855 3.539a.685.685 0 0 1-.913 0L.19 13.287a.557.557 0 0 1 0-.837.685.685 0 0 1 .912 0l2.745 2.518V4.6c0-.333.291-.6.653-.6.362 0 .653.267.653.6v10.368l2.744-2.518a.685.685 0 0 1 .913 0z"/></svg>