<svg xmlns="http://www.w3.org/2000/svg" width="30" height="27" viewBox="0 0 30 27"><defs><linearGradient id="a" x1="100%" x2="0%" y1="100%" y2="0%"><stop offset="0%" stop-color="#D7B660"/><stop offset="100%" stop-color="#B07F2B"/></linearGradient></defs><path fill="url(#a)" d="M3.481 0C1.561 0 0 1.57 0 3.5S1.562 7 3.481 7c1.92 0 3.481-1.57 3.481-3.5S5.401 0 3.482 0zm0 5.174A1.671 1.671 0 0 1 1.816 3.5c0-.923.747-1.674 1.665-1.674s1.665.751 1.665 1.674c0 .923-.747 1.674-1.665 1.674zM28.21 3c.437 0 .791.448.791 1s-.354 1-.791 1H9.743c-.437 0-.791-.448-.791-1s.354-1 .791-1h18.466zM3.48 10c1.92 0 3.481 1.57 3.481 3.5S5.401 17 3.482 17C1.561 17 0 15.43 0 13.5a.91.91 0 0 1 .908-.913.91.91 0 0 1 .908.913c0 .923.747 1.674 1.665 1.674s1.665-.751 1.665-1.674c0-.923-.747-1.674-1.665-1.674a.91.91 0 0 1-.908-.913.91.91 0 0 1 .908-.913zm24.728 3c.437 0 .791.448.791 1s-.354 1-.791 1H9.743c-.437 0-.791-.448-.791-1s.354-1 .791-1h18.466zM3.48 20c1.92 0 3.481 1.57 3.481 3.5S5.401 27 3.482 27C1.561 27 0 25.43 0 23.5S1.562 20 3.481 20zm0 5.174c.918 0 1.665-.751 1.665-1.674 0-.923-.747-1.674-1.665-1.674s-1.665.751-1.665 1.674c0 .923.747 1.674 1.665 1.674zM28.21 22c.437 0 .791.448.791 1s-.354 1-.791 1H9.743c-.437 0-.791-.448-.791-1s.354-1 .791-1h18.466z"/></svg>