<svg xmlns="http://www.w3.org/2000/svg" xmlns:xlink="http://www.w3.org/1999/xlink" width="24" height="24" viewBox="0 0 24 24"><defs><linearGradient id="b" x1="103.277%" x2="0%" y1="97.046%" y2="0%"><stop offset="0%" stop-color="#D7B660"/><stop offset="100%" stop-color="#B07F2B"/></linearGradient><path id="a" d="M23.18 19.902l-8.878-8.025 1.6-1.773a4.495 4.495 0 0 0 5.191-.84c1.376-1.376 2.344-2.97 2.726-4.488.4-1.59.132-2.953-.755-3.84S20.813-.22 19.224.18c-1.519.383-3.113 1.35-4.488 2.726a4.494 4.494 0 0 0-.84 5.19l-1.892 1.707-1.524-1.366a3.28 3.28 0 0 0-.776-3.414L4.776.137a.469.469 0 0 0-.66.666l3.928 3.895-.66.66L3.45 1.463a.469.469 0 0 0-.66.666L6.721 6.02l-.663.662-3.934-3.895a.469.469 0 0 0-.66.667l3.931 3.891-.665.666L.799 4.114a.469.469 0 0 0-.66.666l.001.001.001.001 4.924 4.883a3.28 3.28 0 0 0 3.414.775l1.261 1.407L.818 19.9a2.328 2.328 0 1 0 3.28 3.28l7.944-8.8 7.857 8.802a2.328 2.328 0 1 0 3.282-3.28zM15.4 3.57c1.257-1.258 2.697-2.138 4.053-2.48 1.257-.317 2.304-.136 2.949.509.645.644.825 1.691.509 2.948-.342 1.357-1.222 2.796-2.48 4.054a3.548 3.548 0 0 1-4.897.126A3.549 3.549 0 0 1 15.4 3.57zM5.727 9l-.332-.328L8.71 5.358l.332.33a2.342 2.342 0 0 1 0 3.314 2.341 2.341 0 0 1-3.315-.001zm3.605.987a3.316 3.316 0 0 0 .695-.696l1.277 1.145-.868.783-1.104-1.232zm-5.934 12.57l-.01.011a1.388 1.388 0 1 1-1.947-1.967l.388-.35 1.92 1.918-.351.388zm.98-1.085l-1.852-1.85.697-.63 1.783 1.783-.629.697zm1.257-1.393L3.92 18.363l10.489-9.467a4.568 4.568 0 0 0 .694.695L5.635 20.079zm7.039-6.398l1-1.108 6.542 5.913-1.734 1.7-5.808-6.505zm7.06 7.907l-.627-.702 1.806-1.77.679.613-1.859 1.859zm2.92 1.068c-.529.529-1.442.589-2.051-.094l-.244-.274 1.929-1.93.27.244a1.388 1.388 0 0 1 .097 2.053z"/></defs><g fill="none" fill-rule="evenodd"><use fill="#C9A14C" xlink:href="#a"/><use fill="url(#b)" xlink:href="#a"/></g></svg>