<svg xmlns="http://www.w3.org/2000/svg" width="19" height="24" viewBox="0 0 19 24"><defs><linearGradient id="a" x1="103.277%" x2="0%" y1="97.046%" y2="0%"><stop offset="0%" stop-color="#D7B660"/><stop offset="100%" stop-color="#B07F2B"/></linearGradient></defs><g fill="url(#a)" transform="translate(-114 -362)"><path d="M123.495 362c-5.234 0-9.495 4.317-9.495 9.62a9.59 9.59 0 0 0 .233 2.128 9.56 9.56 0 0 0 .636 1.897c1.023 2.44 3.273 6.189 8.209 10.204a.669.669 0 0 0 .844 0c4.931-4.015 7.186-7.763 8.209-10.204a9.453 9.453 0 0 0 .7-2.219c.11-.593.169-1.202.169-1.806-.01-5.303-4.27-9.62-9.505-9.62zm8.005 11.19c0 .01-.005.02-.005.03l-.044.216v.01a8.06 8.06 0 0 1-.552 1.64c-.005.006-.005.016-.01.02-.928 2.23-2.964 5.631-7.394 9.34-4.43-3.709-6.466-7.11-7.394-9.34-.005-.004-.005-.014-.01-.02a8.598 8.598 0 0 1-.552-1.64v-.01c-.03-.115-.04-.19-.044-.216 0-.01-.005-.02-.005-.035a8.321 8.321 0 0 1-.15-1.57c0-4.553 3.66-8.262 8.155-8.262 4.494 0 8.154 3.709 8.154 8.262 0 .533-.05 1.062-.149 1.575z"/><path d="M123.5 365.53c-3.331 0-6.045 2.772-6.045 6.176 0 3.404 2.714 6.176 6.045 6.176s6.045-2.772 6.045-6.176c0-3.404-2.714-6.177-6.045-6.177zm0 10.979c-2.594 0-4.7-2.158-4.7-4.803 0-2.646 2.11-4.803 4.7-4.803 2.59 0 4.7 2.157 4.7 4.803 0 2.645-2.106 4.803-4.7 4.803z"/></g></svg>