<svg xmlns="http://www.w3.org/2000/svg" xmlns:xlink="http://www.w3.org/1999/xlink" width="24" height="18" viewBox="0 0 24 18"><defs><linearGradient id="b" x1="103.277%" x2="0%" y1="97.046%" y2="0%"><stop offset="0%" stop-color="#D7B660"/><stop offset="100%" stop-color="#B07F2B"/></linearGradient><path id="a" d="M7.5 8.03c-2.18 0-3.955-1.8-3.955-4.015C3.545 1.801 5.32 0 7.5 0s3.955 1.801 3.955 4.015c0 2.214-1.774 4.016-3.955 4.016zm0-7.066c-1.657 0-3.005 1.369-3.005 3.051 0 1.683 1.348 3.052 3.005 3.052 1.657 0 3.005-1.369 3.005-3.052C10.505 2.333 9.157.964 7.5.964zM17.864 8.03c-2.18 0-3.955-1.802-3.955-4.016S15.683 0 17.864 0c2.18 0 3.954 1.801 3.954 4.015 0 2.214-1.774 4.016-3.954 4.016zm0-7.067c-1.658 0-3.006 1.369-3.006 3.051 0 1.683 1.348 3.052 3.006 3.052 1.657 0 3.005-1.369 3.005-3.052 0-1.682-1.348-3.051-3.005-3.051zm5.285 12.424a6.494 6.494 0 0 0-5.141-2.484 6.539 6.539 0 0 0-3.63 1.09.48.48 0 0 1-.66-.126.462.462 0 0 1 .128-.649 7.496 7.496 0 0 1 4.162-1.25 7.443 7.443 0 0 1 5.893 2.847.462.462 0 0 1-.086.656.479.479 0 0 1-.666-.084zM7.5 9.969c4.136 0 7.5 3.387 7.5 7.55a.48.48 0 0 1-.479.481.48.48 0 0 1-.478-.482c0-3.631-2.935-6.585-6.543-6.585S.957 13.887.957 17.518A.48.48 0 0 1 .48 18a.48.48 0 0 1-.48-.482C0 13.356 3.364 9.97 7.5 9.97z"/></defs><g fill="none" fill-rule="evenodd"><use fill="#C9A14C" xlink:href="#a"/><use fill="url(#b)" xlink:href="#a"/></g></svg>