<svg xmlns="http://www.w3.org/2000/svg" xmlns:xlink="http://www.w3.org/1999/xlink" width="24" height="24" viewBox="0 0 24 24"><defs><linearGradient id="b" x1="103.277%" x2="0%" y1="97.046%" y2="0%"><stop offset="0%" stop-color="#D7B660"/><stop offset="100%" stop-color="#B07F2B"/></linearGradient><path id="a" d="M24 11.49h-2.924c-.26-4.599-3.967-8.306-8.567-8.566V0h-1.023v2.924c-4.595.26-8.302 3.967-8.562 8.567H0v1.023h2.924c.26 4.595 3.967 8.302 8.567 8.562V24h1.023v-2.924c4.6-.26 8.307-3.963 8.562-8.562H24v-1.023zm-3.948 0h-2.356a5.71 5.71 0 0 0-5.187-5.186V3.948c4.041.254 7.289 3.502 7.543 7.543zm-3.384 1.02c-.24 2.189-2.004 3.918-4.159 4.158v-1.553h-1.023v1.558a4.68 4.68 0 0 1-4.159-4.159h1.558v-1.023H7.332c.24-2.19 2.004-3.919 4.159-4.159v1.553h1.023V7.332c2.155.24 3.919 1.97 4.159 4.159H15.12v1.023h1.548v-.005zM11.49 3.942v2.356a5.71 5.71 0 0 0-5.187 5.187H3.948c.254-4.041 3.502-7.288 7.543-7.543zm-7.543 8.561h2.356a5.71 5.71 0 0 0 5.187 5.187v2.356c-4.041-.254-7.289-3.502-7.543-7.543zm8.561 7.543V17.69a5.71 5.71 0 0 0 5.187-5.187h2.356c-.254 4.041-3.502 7.289-7.543 7.543z"/></defs><g fill="none" fill-rule="evenodd"><use fill="#C9A14C" xlink:href="#a"/><use fill="url(#b)" xlink:href="#a"/></g></svg>