<svg xmlns="http://www.w3.org/2000/svg" width="43" height="43" viewBox="0 0 43 43"><g fill="none" fill-rule="evenodd" transform="translate(0 -1)"><rect width="43" height="43" fill="#1DA5E1" rx="21.5"/><path fill="#FFF" fill-rule="nonzero" d="M10.37 21.11l4.84 1.877 1.873 6.26c.12.4.591.548.904.282l2.698-2.285a.78.78 0 0 1 .98-.028l4.865 3.67c.335.253.81.063.894-.358l3.564-17.814c.091-.46-.343-.842-.764-.673L10.365 20c-.49.197-.486.918.006 1.11zm6.075.91l9.306-5.993c.167-.107.339.13.195.268l-7.68 7.464a1.69 1.69 0 0 0-.493.996l-.261 2.027a.239.239 0 0 1-.47.035l-1.006-3.696a1 1 0 0 1 .41-1.102z"/></g></svg>