<svg xmlns="http://www.w3.org/2000/svg" width="18" height="16" viewBox="0 0 18 16"><defs><linearGradient id="a" x1="100%" x2="0%" y1="100%" y2="0%"><stop offset="0%" stop-color="#D7B660"/><stop offset="100%" stop-color="#B07F2B"/></linearGradient></defs><g fill="url(#a)" transform="translate(-51 -1012)"><path d="M68.277 1012.039l-5.095 2.06-6.216-2.072a.53.53 0 0 0-.361.012l-5.274 2.133a.533.533 0 0 0-.331.495v12.8c0 .378.379.634.723.495l5.095-2.062 6.213 2.072c.03.01.027.008.048.014.035 0 .147.045.318-.025l5.272-2.133a.533.533 0 0 0 .331-.495v-12.8a.528.528 0 0 0-.723-.494zm-12.004 12.933l-4.218 1.707v-11.651l4.218-1.707v11.651zm6.399-4.057l-.018-.003a2.622 2.622 0 0 1-.83-.203.525.525 0 0 0-.692.283.536.536 0 0 0 .28.7c.516.22 1.088.301 1.26.282v4.755l-5.344-1.782v-6.565c.146.003.292.018.434.046a.533.533 0 1 0 .198-1.048 3.647 3.647 0 0 0-.632-.066v-4.043l5.344 1.782v5.862zm5.273 4.057l-4.218 1.707v-11.651l4.218-1.707v11.651z"/><path d="M54.053 1021.068c.313.082.482.35.378.597l-.19.447c-.104.247-.443.38-.755.298-.313-.082-.483-.35-.378-.596l.189-.448c.104-.247.443-.38.756-.298zm.96-2.648c.18.22.188.585.017.816a2.906 2.906 0 0 0-.4.77c-.102.291-.368.422-.595.291-.227-.13-.328-.472-.226-.763.142-.408.334-.776.569-1.093.17-.232.455-.241.636-.021zm5.625 1.09c.12.278.035.623-.19.77-.224.149-.504.044-.623-.234-.098-.226-.175-.502-.41-.85-.163-.241-.137-.6.058-.802.195-.202.486-.17.649.071.316.467.44.87.516 1.045zm5.357.274a.649.649 0 0 1 .11.884c-.284.384-.627.71-1.02.972a.59.59 0 0 1-.836-.193.647.647 0 0 1 .185-.87c.275-.183.515-.412.713-.68a.589.589 0 0 1 .848-.113zm.546-2.188c.304.091.459.364.344.61l-.206.443c-.089.19-.313.308-.552.308-.41 0-.695-.332-.55-.64l.206-.444c.114-.245.453-.37.758-.277z"/></g></svg>