<svg xmlns="http://www.w3.org/2000/svg" width="43" height="43" viewBox="0 0 43 43"><g fill="none" fill-rule="evenodd"><rect width="43" height="43" fill="#25668C" rx="21.5"/><path fill="#FFF" fill-rule="nonzero" d="M29.692 25.47a1.146 1.146 0 0 0-.06-.11c-.305-.529-.889-1.179-1.75-1.95l-.028-.025c-.41-.368-.657-.61-.76-.733-.19-.235-.233-.473-.13-.714.074-.183.35-.568.826-1.156.25-.312.45-.561.596-.75 1.057-1.352 1.516-2.217 1.375-2.593l-.055-.088c-.036-.053-.131-.102-.284-.146a1.498 1.498 0 0 0-.587-.022l-2.64.018a.356.356 0 0 0-.183.004l-.12.027-.045.022-.037.026a.402.402 0 0 0-.1.093.6.6 0 0 0-.092.154 14.17 14.17 0 0 1-.981 1.985c-.226.365-.434.68-.624.948a4.526 4.526 0 0 1-.476.591 3.284 3.284 0 0 1-.349.305c-.104.076-.183.109-.238.097a6.94 6.94 0 0 1-.156-.036.596.596 0 0 1-.206-.216.941.941 0 0 1-.105-.344 3.653 3.653 0 0 1-.033-.357c-.002-.1-.001-.241.005-.423.006-.183.01-.306.01-.371 0-.223.004-.466.013-.728l.023-.622c.006-.152.01-.314.01-.485 0-.17-.012-.304-.033-.401a1.337 1.337 0 0 0-.096-.283.481.481 0 0 0-.188-.211 1.083 1.083 0 0 0-.307-.12 6.331 6.331 0 0 0-1.238-.114c-1.136-.012-1.867.059-2.19.212a1.229 1.229 0 0 0-.35.264c-.11.13-.124.2-.045.212.367.053.626.18.78.38l.054.105c.043.077.086.212.129.406.042.194.07.409.082.644.03.43.03.797 0 1.103-.03.305-.06.544-.087.714a1.39 1.39 0 0 1-.234.609.155.155 0 0 1-.046.044.71.71 0 0 1-.247.044c-.086 0-.19-.041-.312-.124a2.17 2.17 0 0 1-.38-.34 4.547 4.547 0 0 1-.445-.603 10.423 10.423 0 0 1-.513-.918l-.147-.256a21.692 21.692 0 0 1-.376-.719 12.89 12.89 0 0 1-.421-.913.584.584 0 0 0-.22-.282l-.046-.027a.636.636 0 0 0-.147-.075 1.003 1.003 0 0 0-.21-.057l-2.513.018c-.256 0-.43.056-.522.167l-.037.053a.276.276 0 0 0-.027.142.68.68 0 0 0 .055.238c.366.829.765 1.629 1.196 2.4.43.77.805 1.39 1.123 1.86.318.47.642.915.972 1.332.33.418.548.686.655.803.107.118.191.206.252.265l.23.211a5.4 5.4 0 0 0 .646.508c.284.197.599.39.944.582a5.21 5.21 0 0 0 1.205.467 4.3 4.3 0 0 0 1.339.146h1.054c.214-.018.376-.082.486-.194l.036-.044a.573.573 0 0 0 .07-.163.864.864 0 0 0 .031-.243 2.8 2.8 0 0 1 .06-.683 1.75 1.75 0 0 1 .156-.46 1.13 1.13 0 0 1 .353-.387.61.61 0 0 1 .073-.031c.147-.047.32-.002.518.137.199.138.385.309.56.511.174.203.383.431.627.684.245.253.459.441.642.565l.183.106c.123.07.282.135.477.194.195.058.366.073.513.044l2.347-.036c.232 0 .413-.036.54-.11.13-.073.206-.154.23-.242a.658.658 0 0 0 .005-.3 1.075 1.075 0 0 0-.065-.234z"/></g></svg>