<svg xmlns="http://www.w3.org/2000/svg" width="28" height="27" viewBox="0 0 28 27"><path fill="#FFF" fill-rule="evenodd" d="M12.37 15.834l4.193-2.33-4.192-2.33v4.66zM6 13.167c.005-.022.012-.044.013-.066.023-.504.038-1.01.07-1.514.038-.614.09-1.23.25-1.826.21-.774.719-1.277 1.521-1.446.455-.096.925-.138 1.39-.17a56.548 56.548 0 0 1 2.216-.105c.823-.024 1.647-.029 2.47-.04.225-.002.45.004.674.007.46.007.92.012 1.38.024.611.015 1.223.028 1.833.06.606.032 1.21.082 1.814.134.273.024.546.064.803.164.732.284 1.152.82 1.285 1.567.08.439.145.883.18 1.327.05.664.084 1.33.099 1.995.01.492-.018.985-.034 1.477-.02.608-.069 1.214-.157 1.816-.045.31-.087.624-.209.917-.304.732-.872 1.143-1.665 1.252-.434.06-.872.105-1.31.132-.714.044-1.43.069-2.145.098-.256.01-.512.013-.768.015-.721.007-1.443.015-2.164.015-.533 0-1.066-.013-1.6-.022-.337-.006-.674-.009-1.01-.025-.645-.03-1.29-.06-1.933-.108a8.335 8.335 0 0 1-1.15-.15c-.797-.175-1.303-.671-1.518-1.44-.13-.461-.184-.938-.22-1.414-.042-.57-.064-1.141-.095-1.712-.005-.096-.013-.192-.02-.288v-.674z"/></svg>