<svg xmlns="http://www.w3.org/2000/svg" width="19" height="18" viewBox="0 0 19 18"><defs><linearGradient id="a" x1="103.277%" x2="0%" y1="97.046%" y2="0%"><stop offset="0%" stop-color="#D7B660"/><stop offset="100%" stop-color="#B07F2B"/></linearGradient></defs><g fill="url(#a)" fill-rule="evenodd" transform="translate(-422 -97)"><path d="M422.5 106a9 9 0 0 1 9-9 9 9 0 1 1-9 9zm3.6.246c.005.069.01.138.013.207.022.41.036.822.065 1.233.024.342.06.686.148 1.018.145.553.487.91 1.025 1.036.254.06.516.087.776.108.434.035.87.056 1.304.078.228.012.455.014.683.018.36.007.72.016 1.08.016.486 0 .973-.006 1.46-.01.173-.002.346-.004.519-.012.483-.02.966-.039 1.448-.07.295-.02.59-.052.884-.095.535-.078.919-.374 1.124-.902.082-.21.11-.436.141-.66.06-.434.092-.87.105-1.307.012-.355.03-.71.023-1.064-.01-.479-.032-.958-.067-1.436a10.31 10.31 0 0 0-.12-.956c-.09-.538-.374-.924-.868-1.128a1.845 1.845 0 0 0-.542-.118 34.684 34.684 0 0 0-1.224-.097c-.412-.023-.825-.032-1.238-.043-.31-.009-.62-.012-.931-.017-.152-.002-.304-.007-.455-.004-.556.007-1.112.01-1.667.028-.5.016-.998.039-1.496.075a6.46 6.46 0 0 0-.938.123c-.542.121-.886.484-1.027 1.04-.109.43-.143.873-.17 1.316-.02.363-.03.727-.046 1.09 0 .016-.006.031-.009.047v.486z"/><path d="M430.42 107.8l3.6-1.8-3.6-1.8v3.6z"/></g></svg>