<svg width="38" height="48" viewBox="0 0 38 48" fill="none" xmlns="http://www.w3.org/2000/svg"><path fill-rule="evenodd" clip-rule="evenodd" d="M7.206 30.693c2.356 0 4.146-.654 5.37-1.96 1.224-1.308 1.835-3.178 1.835-5.612V7.571c0-2.433-.611-4.303-1.835-5.61C11.352.654 9.562 0 7.206 0c-2.357 0-4.147.654-5.37 1.96C.611 3.269 0 5.139 0 7.573v15.55c0 2.433.612 4.303 1.835 5.61 1.224 1.307 3.014 1.961 5.37 1.961zm4.418 16.969L30.386.338h-4.418L7.206 47.662h4.418zM4.758 23.459c0 1.983.816 2.975 2.448 2.975 1.631 0 2.447-.992 2.447-2.975V7.234c0-1.983-.816-2.975-2.447-2.975-1.632 0-2.448.992-2.448 2.975v16.225zM30.794 48c2.357 0 4.147-.654 5.37-1.96C37.389 44.731 38 42.861 38 40.427v-15.55c0-2.433-.612-4.303-1.835-5.61-1.224-1.307-3.014-1.961-5.37-1.961-2.357 0-4.147.654-5.371 1.96-1.224 1.308-1.835 3.178-1.835 5.612v15.55c0 2.433.611 4.303 1.835 5.61C26.648 47.346 28.438 48 30.794 48zm-2.447-7.234c0 1.983.816 2.975 2.447 2.975 1.632 0 2.448-.992 2.448-2.975V24.541c0-1.983-.816-2.975-2.448-2.975-1.631 0-2.447.992-2.447 2.975v16.225z" fill="url(#a)"/><defs><radialGradient id="a" cx="0" cy="0" r="1" gradientUnits="userSpaceOnUse" gradientTransform="matrix(13.83678 73.5167 -59.3866 11.17731 18.255 10)"><stop stop-color="#DFC07D"/><stop offset=".146" stop-color="#DFC07D"/><stop offset=".331" stop-color="#EEDDAE"/><stop offset=".57" stop-color="#EBD8A2"/><stop offset="1" stop-color="#DEBF7B"/></radialGradient></defs></svg>