<svg width="41" height="42" viewBox="0 0 41 42" fill="none" xmlns="http://www.w3.org/2000/svg"><path d="M40.919 29.5v.652c0 3.042-3.131 5.326-7.018 5.326s-7.018-2.391-7.018-5.326c0-3.043 3.132-5.326 7.018-5.326 1.944 0 3.563.543 4.859 1.413V10.043c-2.483.652 9.177-2.5-24.724 6.63v20c0 3.043-3.131 5.327-7.018 5.327S0 39.609 0 36.674c0-3.044 3.131-5.326 7.018-5.326 1.943 0 3.67.543 4.858 1.522.324-25.327-.755-25.761.864-26.196C39.947-.174 40.919-1.044 40.919.913v7.391c.108.218.108.435 0 .544V29.5z" fill="url(#a)"/><defs><radialGradient id="a" cx="0" cy="0" r="1" gradientUnits="userSpaceOnUse" gradientTransform="matrix(14.92916 64.32713 -62.95392 14.61046 19.696 8.75)"><stop stop-color="#DFC07D"/><stop offset=".146" stop-color="#DFC07D"/><stop offset=".331" stop-color="#EEDDAE"/><stop offset=".57" stop-color="#EBD8A2"/><stop offset="1" stop-color="#DEBF7B"/></radialGradient></defs></svg>