<svg width="376" height="51" viewBox="0 0 376 51" fill="none" xmlns="http://www.w3.org/2000/svg"><path d="M7.376 8h7.5v36h6.72V2H.776v42h6.6V8zm27.065 3.66c0-3 1.32-4.14 3.42-4.14 2.1 0 3.42 1.14 3.42 4.14v22.68c0 3-1.32 4.14-3.42 4.14-2.1 0-3.42-1.14-3.42-4.14V11.66zm-6.6 22.26c0 6.72 3.54 10.56 10.02 10.56 6.48 0 10.02-3.84 10.02-10.56V12.08c0-6.72-3.54-10.56-10.02-10.56-6.48 0-10.02 3.84-10.02 10.56v21.84zm51.95 15.72V38.12h-2.88V2H58.43l-1.5 30.66c-.12 2.46-.48 4.02-1.62 5.46h-2.58v11.52h6.42V44h14.1v5.64h6.54zM64.61 8h5.58v30.12h-8.64c1.08-1.02 1.68-2.4 1.86-5.58L64.61 8zm35.496-6h-9.66l-6.72 42h6.06l1.14-7.62h8.1l1.14 7.62h6.66l-6.72-42zm-5.16 7.44l3.18 21.24h-6.36l3.18-21.24zM121.621 2h-9.72v42h6.6V28.22h3.12c6.6 0 9.84-3.66 9.84-10.38v-5.46c0-6.72-3.24-10.38-9.84-10.38zm0 6c2.1 0 3.24.96 3.24 3.96v6.3c0 3-1.14 3.96-3.24 3.96h-3.12V8h3.12zm29.957 36h6.78l-9.18-23.28L158.358 2h-6.6l-8.64 18.3V2h-6.6v42h6.6V31.1l2.04-3.84 6.42 16.74zm24.084-19.26l2.7-10.32V44h5.94V2h-7.26l-5.4 17.34-2.4 9.24V2h-5.88v42h6.78l5.52-19.26zm39.342-10.08c0 3.36-1.5 4.44-3.96 4.44h-1.98v6h1.62c3 0 4.32 1.44 4.32 5.34v3.3c0 3.72-1.32 4.74-3.42 4.74-2.1 0-3.42-1.14-3.42-4.14V29.3h-6.24v4.62c0 6.72 3.36 10.56 9.84 10.56s9.84-3.84 9.84-10.56v-3.3c0-4.26-1.32-7.38-4.62-8.82 3.18-1.32 4.62-4.14 4.62-8.64v-1.08c0-6.72-3.36-10.56-9.84-10.56s-9.72 3.72-9.72 10.44v3.12h6.06v-3.42c0-3 1.38-4.14 3.48-4.14s3.42 1.02 3.42 4.8v2.34zM242.713 2h-9.66l-6.72 42h6.06l1.14-7.62h8.1l1.14 7.62h6.66l-6.72-42zm-5.16 7.44l3.18 21.24h-6.36l3.18-21.24zM272.423 26h7.5v18h6.72V2h-6.72v18h-7.5V2h-6.6v42h6.6V26zm35.645-24h-9.66l-6.72 42h6.06l1.14-7.62h8.1l1.14 7.62h6.66l-6.72-42zm-5.16 7.44l3.18 21.24h-6.36l3.18-21.24zM328.982 2h-9.18v42h5.76V14.3l4.92 29.7h6.24l4.56-30.12V44h6.24V2h-9.18l-4.5 29.82L328.982 2zm37.641 22.74l2.7-10.32V44h5.94V2h-7.26l-5.4 17.34-2.4 9.24V2h-5.88v42h6.78l5.52-19.26z" fill="#070606"/><path d="M7.376 8v-.6h-.6V8h.6zm7.5 0h.6v-.6h-.6V8zm0 36h-.6v.6h.6V44zm6.72 0v.6h.6V44h-.6zm0-42h.6v-.6h-.6V2zM.776 2v-.6h-.6V2h.6zm0 42h-.6v.6h.6V44zm6.6 0v.6h.6V44h-.6zm0-35.4h7.5V7.4h-7.5v1.2zm6.9-.6v36h1.2V8h-1.2zm.6 36.6h6.72v-1.2h-6.72v1.2zm7.32-.6V2h-1.2v42h1.2zm-.6-42.6H.776v1.2h20.82V1.4zM.176 2v42h1.2V2h-1.2zm.6 42.6h6.6v-1.2h-6.6v1.2zm7.2-.6V8h-1.2v36h1.2zm27.065-32.34c0-1.425.316-2.289.77-2.794.441-.493 1.107-.746 2.05-.746v-1.2c-1.156 0-2.2.317-2.944 1.144-.73.815-1.076 2.021-1.076 3.596h1.2zm2.82-3.54c.944 0 1.61.253 2.052.746.453.505.768 1.369.768 2.794h1.2c0-1.575-.344-2.781-1.076-3.596-.743-.827-1.787-1.144-2.944-1.144v1.2zm2.82 3.54v22.68h1.2V11.66h-1.2zm0 22.68c0 1.425-.315 2.289-.768 2.794-.442.492-1.108.746-2.052.746v1.2c1.157 0 2.201-.316 2.944-1.144.732-.815 1.076-2.022 1.076-3.596h-1.2zm-2.82 3.54c-.943 0-1.609-.254-2.05-.746-.454-.505-.77-1.368-.77-2.794h-1.2c0 1.574.345 2.781 1.076 3.596.743.828 1.788 1.144 2.944 1.144v-1.2zm-2.82-3.54V11.66h-1.2v22.68h1.2zm-7.8-.42c0 3.46.913 6.267 2.744 8.211 1.836 1.95 4.517 2.949 7.876 2.949v-1.2c-3.12 0-5.45-.922-7.003-2.571-1.559-1.656-2.417-4.13-2.417-7.389h-1.2zm10.62 11.16c3.36 0 6.04-.998 7.877-2.949 1.831-1.944 2.743-4.75 2.743-8.211h-1.2c0 3.26-.858 5.733-2.416 7.389-1.554 1.65-3.883 2.571-7.004 2.571v1.2zm10.62-11.16V12.08h-1.2v21.84h1.2zm0-21.84c0-3.46-.912-6.267-2.743-8.211C43.902 1.919 41.221.92 37.861.92v1.2c3.12 0 5.45.921 7.004 2.571 1.558 1.656 2.416 4.13 2.416 7.389h1.2zM37.861.92c-3.36 0-6.04.999-7.876 2.949-1.831 1.944-2.744 4.75-2.744 8.211h1.2c0-3.26.858-5.733 2.417-7.389 1.554-1.65 3.883-2.571 7.003-2.571V.92zm-10.62 11.16v21.84h1.2V12.08h-1.2zm52.55 37.56v.6h.6v-.6h-.6zm0-11.52h.6v-.6h-.6v.6zm-2.88 0h-.6v.6h.6v-.6zm0-36.12h.6v-.6h-.6V2zM58.43 2v-.6h-.572l-.028.57.6.03zm-1.5 30.66l-.6-.03.6.03zm-1.62 5.46v.6h.29l.18-.228-.47-.372zm-2.58 0v-.6h-.6v.6h.6zm0 11.52h-.6v.6h.6v-.6zm6.42 0v.6h.6v-.6h-.6zm0-5.64v-.6h-.6v.6h.6zm14.1 0h.6v-.6h-.6v.6zm0 5.64h-.6v.6h.6v-.6zM64.61 8v-.6h-.572l-.028.57.6.03zm5.58 0h.6v-.6h-.6V8zm0 30.12v.6h.6v-.6h-.6zm-8.64 0l-.413-.436-1.097 1.036h1.51v-.6zm1.86-5.58l.599.034v-.005l-.6-.029zm16.98 17.1V38.12h-1.2v11.52h1.2zm-.6-12.12h-2.88v1.2h2.88v-1.2zm-2.28.6V2h-1.2v36.12h1.2zm-.6-36.72H58.43v1.2h18.48V1.4zm-19.08.57l-1.5 30.66 1.199.06 1.5-30.66-1.199-.06zm-1.5 30.66c-.118 2.416-.467 3.824-1.49 5.118l.94.744c1.256-1.586 1.627-3.298 1.749-5.803l-1.199-.058zm-1.02 4.89h-2.58v1.2h2.58v-1.2zm-3.18.6v11.52h1.2V38.12h-1.2zm.6 12.12h6.42v-1.2h-6.42v1.2zm7.02-.6V44h-1.2v5.64h1.2zm-.6-5.04h14.1v-1.2h-14.1v1.2zm13.5-.6v5.64h1.2V44h-1.2zm.6 6.24h6.54v-1.2h-6.54v1.2zM64.61 8.6h5.58V7.4h-5.58v1.2zm4.98-.6v30.12h1.2V8h-1.2zm.6 29.52h-8.64v1.2h8.64v-1.2zm-8.229 1.036c1.244-1.175 1.864-2.74 2.047-5.982l-1.197-.068c-.177 3.119-.758 4.313-1.673 5.178l.823.872zm2.048-5.987l1.2-24.54-1.199-.058-1.2 24.54 1.199.058zM100.107 2l.593-.095-.081-.505h-.512V2zm-9.66 0v-.6h-.511l-.081.505.592.095zm-6.72 42l-.592-.095-.111.695h.703V44zm6.06 0v.6h.517l.077-.511-.594-.089zm1.14-7.62v-.6h-.517l-.076.511.593.089zm8.1 0l.594-.089-.077-.511h-.517v.6zm1.14 7.62l-.593.089.076.511h.517V44zm6.66 0v.6h.704l-.111-.695-.593.095zM94.947 9.44l.594-.089h-1.187l.593.089zm3.18 21.24v.6h.697l-.103-.689-.594.089zm-6.36 0l-.593-.089-.103.689h.696v-.6zm8.34-29.28h-9.66v1.2h9.66V1.4zm-10.252.505l-6.72 42 1.185.19 6.72-42-1.185-.19zM83.727 44.6h6.06v-1.2h-6.06v1.2zm6.654-.511l1.14-7.62-1.187-.178-1.14 7.62 1.187.178zm.546-7.109h8.1v-1.2h-8.1v1.2zm7.507-.511l1.14 7.62 1.187-.178-1.14-7.62-1.187.178zm1.733 8.131h6.66v-1.2h-6.66v1.2zm7.253-.695l-6.72-42-1.185.19 6.72 42 1.185-.19zM94.354 9.53l3.18 21.24 1.187-.178-3.18-21.24-1.187.178zm3.773 20.551h-6.36v1.2h6.36v-1.2zm-5.766.689l3.18-21.24-1.187-.178-3.18 21.24 1.187.178zM111.9 2v-.6h-.6V2h.6zm0 42h-.6v.6h.6V44zm6.6 0v.6h.6V44h-.6zm0-15.78v-.6h-.6v.6h.6zm0-6h-.6v.6h.6v-.6zm0-14.22v-.6h-.6V8h.6zm3.12-6.6h-9.72v1.2h9.72V1.4zM111.3 2v42h1.2V2h-1.2zm.6 42.6h6.6v-1.2h-6.6v1.2zm7.2-.6V28.22h-1.2V44h1.2zm-.6-15.18h3.12v-1.2h-3.12v1.2zm3.12 0c3.409 0 6.052-.948 7.834-2.861 1.775-1.906 2.606-4.672 2.606-8.119h-1.2c0 3.273-.789 5.697-2.284 7.301-1.488 1.597-3.765 2.479-6.956 2.479v1.2zm10.44-10.98v-5.46h-1.2v5.46h1.2zm0-5.46c0-3.447-.831-6.213-2.606-8.119-1.782-1.913-4.425-2.861-7.834-2.861v1.2c3.191 0 5.468.882 6.956 2.479 1.495 1.604 2.284 4.028 2.284 7.301h1.2zM121.62 8.6c.969 0 1.575.222 1.959.654.402.45.681 1.26.681 2.706h1.2c0-1.553-.291-2.725-.984-3.504-.711-.798-1.725-1.056-2.856-1.056v1.2zm2.64 3.36v6.3h1.2v-6.3h-1.2zm0 6.3c0 1.447-.279 2.255-.681 2.706-.384.432-.99.654-1.959.654v1.2c1.131 0 2.145-.258 2.856-1.056.693-.78.984-1.95.984-3.504h-1.2zm-2.64 3.36h-3.12v1.2h3.12v-1.2zm-2.52.6V8h-1.2v14.22h1.2zm-.6-13.62h3.12V7.4h-3.12v1.2zM151.578 44l-.56.215.148.385h.412V44zm6.78 0v.6h.882l-.324-.82-.558.22zm-9.18-23.28l-.539-.264-.116.238.097.246.558-.22zM158.358 2l.539.264.424-.864h-.963V2zm-6.6 0v-.6h-.38l-.162.344.542.256zm-8.64 18.3h-.6l1.143.256-.543-.256zm0-18.3h.6v-.6h-.6V2zm-6.6 0v-.6h-.6V2h.6zm0 42h-.6v.6h.6V44zm6.6 0v.6h.6V44h-.6zm0-12.9l-.53-.282-.07.133v.149h.6zm2.04-3.84l.56-.215-.471-1.23-.619 1.163.53.282zm6.42 17.34h6.78v-1.2h-6.78v1.2zm7.338-.82l-9.18-23.28-1.116.44 9.18 23.28 1.116-.44zm-9.199-22.796l9.18-18.72-1.078-.528-9.18 18.72 1.078.528zM158.358 1.4h-6.6v1.2h6.6V1.4zm-7.142.344l-8.64 18.3 1.085.512 8.64-18.3-1.085-.512zM143.718 20.3V2h-1.2v18.3h1.2zm-.6-18.9h-6.6v1.2h6.6V1.4zm-7.2.6v42h1.2V2h-1.2zm.6 42.6h6.6v-1.2h-6.6v1.2zm7.2-.6V31.1h-1.2V44h1.2zm-.07-12.619l2.04-3.84-1.06-.563-2.04 3.84 1.06.563zm.95-3.906l6.42 16.74 1.12-.43-6.42-16.74-1.12.43zm31.064-2.735l.577.165.003-.013-.58-.152zm2.7-10.32h.6l-1.181-.152.581.152zm0 29.58h-.6v.6h.6V44zm5.94 0v.6h.6V44h-.6zm0-42h.6v-.6h-.6V2zm-7.26 0v-.6h-.442l-.131.422.573.178zm-5.4 17.34l-.573-.178-.004.013-.004.014.581.151zm-2.4 9.24h-.6l1.181.15-.581-.15zm0-26.58h.6v-.6h-.6V2zm-5.88 0v-.6h-.6V2h.6zm0 42h-.6v.6h.6V44zm6.78 0v.6h.452l.125-.435-.577-.165zm6.1-19.108l2.7-10.32-1.161-.304-2.7 10.32 1.161.304zm1.52-10.472V44h1.2V14.42h-1.2zm.6 30.18h5.94v-1.2h-5.94v1.2zm6.54-.6V2h-1.2v42h1.2zm-.6-42.6h-7.26v1.2h7.26V1.4zm-7.833.422l-5.4 17.34 1.146.356 5.4-17.34-1.146-.356zm-5.408 17.367l-2.4 9.24 1.162.302 2.4-9.24-1.162-.302zm-1.219 9.391V2h-1.2v26.58h1.2zm-.6-27.18h-5.88v1.2h5.88V1.4zm-6.48.6v42h1.2V2h-1.2zm.6 42.6h6.78v-1.2h-6.78v1.2zm7.357-.435l5.52-19.26-1.154-.33-5.52 19.26 1.154.33zM209.064 19.1v-.6h-.6v.6h.6zm0 6h-.6v.6h.6v-.6zm-.9 4.2h.6v-.6h-.6v.6zm-6.24 0v-.6h-.6v.6h.6zm15.06-7.5l-.23-.554-1.302.54 1.292.564.24-.55zm-14.94-6.72h-.6v.6h.6v-.6zm6.06 0v.6h.6v-.6h-.6zm6.3-.42c0 1.606-.36 2.528-.884 3.058-.522.527-1.321.782-2.476.782v1.2c1.304 0 2.485-.285 3.329-1.138.841-.85 1.231-2.148 1.231-3.902h-1.2zm-3.36 3.84h-1.98v1.2h1.98v-1.2zm-2.58.6v6h1.2v-6h-1.2zm.6 6.6h1.62v-1.2h-1.62v1.2zm1.62 0c1.412 0 2.28.338 2.824.991.567.683.896 1.84.896 3.749h1.2c0-1.991-.332-3.504-1.174-4.516-.867-1.042-2.159-1.424-3.746-1.424v1.2zm3.72 4.74v3.3h1.2v-3.3h-1.2zm0 3.3c0 1.814-.327 2.826-.786 3.384-.433.526-1.077.756-2.034.756v1.2c1.143 0 2.209-.28 2.961-1.194.725-.882 1.059-2.24 1.059-4.146h-1.2zm-2.82 4.14c-.944 0-1.609-.254-2.051-.746-.454-.505-.769-1.368-.769-2.794h-1.2c0 1.574.344 2.781 1.076 3.596.743.828 1.787 1.144 2.944 1.144v-1.2zm-2.82-3.54V29.3h-1.2v5.04h1.2zm-.6-5.64h-6.24v1.2h6.24v-1.2zm-6.84.6v4.62h1.2V29.3h-1.2zm0 4.62c0 3.453.863 6.259 2.647 8.205 1.793 1.956 4.433 2.955 7.793 2.955v-1.2c-3.12 0-5.4-.92-6.908-2.565-1.515-1.654-2.332-4.127-2.332-7.395h-1.2zm10.44 11.16c3.36 0 6-1 7.792-2.955 1.785-1.946 2.648-4.752 2.648-8.205h-1.2c0 3.267-.817 5.741-2.333 7.395-1.507 1.644-3.787 2.565-6.907 2.565v1.2zm10.44-11.16v-3.3h-1.2v3.3h1.2zm0-3.3c0-4.376-1.368-7.794-4.98-9.37l-.48 1.1c2.987 1.303 4.26 4.126 4.26 8.27h1.2zm-4.99-8.266c1.711-.71 2.976-1.838 3.803-3.401.819-1.549 1.187-3.485 1.187-5.793h-1.2c0 2.192-.352 3.916-1.048 5.232-.689 1.302-1.734 2.244-3.202 2.854l.46 1.108zm4.99-9.194v-1.08h-1.2v1.08h1.2zm0-1.08c0-3.452-.863-6.259-2.648-8.205-1.792-1.956-4.432-2.955-7.792-2.955v1.2c3.12 0 5.4.92 6.907 2.565 1.516 1.654 2.333 4.127 2.333 7.395h1.2zM211.764.92c-3.355 0-5.968.966-7.733 2.895-1.757 1.92-2.587 4.698-2.587 8.145h1.2c0-3.273.789-5.714 2.272-7.335 1.475-1.611 3.723-2.505 6.848-2.505V.92zm-10.32 11.04v3.12h1.2v-3.12h-1.2zm.6 3.72h6.06v-1.2h-6.06v1.2zm6.66-.6v-3.42h-1.2v3.42h1.2zm0-3.42c0-1.42.327-2.282.794-2.789.458-.497 1.142-.751 2.086-.751v-1.2c-1.156 0-2.212.316-2.969 1.139-.749.813-1.111 2.02-1.111 3.601h1.2zm2.88-3.54c.957 0 1.599.23 2.032.761.461.566.788 1.594.788 3.439h1.2c0-1.934-.333-3.307-1.057-4.196-.752-.924-1.82-1.204-2.963-1.204v1.2zm2.82 4.2v2.34h1.2v-2.34h-1.2zM242.713 2l.592-.095-.081-.505h-.511V2zm-9.66 0v-.6h-.512l-.081.505.593.095zm-6.72 42l-.593-.095-.111.695h.704V44zm6.06 0v.6h.517l.076-.511-.593-.089zm1.14-7.62v-.6h-.517l-.077.511.594.089zm8.1 0l.593-.089-.076-.511h-.517v.6zm1.14 7.62l-.594.089.077.511h.517V44zm6.66 0v.6h.703l-.111-.695-.592.095zm-11.88-34.56l.593-.089h-1.187l.594.089zm3.18 21.24v.6h.696l-.103-.689-.593.089zm-6.36 0l-.594-.089-.103.689h.697v-.6zm8.34-29.28h-9.66v1.2h9.66V1.4zm-10.253.505l-6.72 42 1.185.19 6.72-42-1.185-.19zM226.333 44.6h6.06v-1.2h-6.06v1.2zm6.653-.511l1.14-7.62-1.187-.178-1.14 7.62 1.187.178zm.547-7.109h8.1v-1.2h-8.1v1.2zm7.506-.511l1.14 7.62 1.187-.178-1.14-7.62-1.187.178zm1.734 8.131h6.66v-1.2h-6.66v1.2zm7.252-.695l-6.72-42-1.185.19 6.72 42 1.185-.19zM236.959 9.53l3.18 21.24 1.187-.178-3.18-21.24-1.187.178zm3.774 20.551h-6.36v1.2h6.36v-1.2zm-5.767.689l3.18-21.24-1.187-.178-3.18 21.24 1.187.178zM272.423 26v-.6h-.6v.6h.6zm7.5 0h.6v-.6h-.6v.6zm0 18h-.6v.6h.6V44zm6.72 0v.6h.6V44h-.6zm0-42h.6v-.6h-.6V2zm-6.72 0v-.6h-.6V2h.6zm0 18v.6h.6V20h-.6zm-7.5 0h-.6v.6h.6V20zm0-18h.6v-.6h-.6V2zm-6.6 0v-.6h-.6V2h.6zm0 42h-.6v.6h.6V44zm6.6 0v.6h.6V44h-.6zm0-17.4h7.5v-1.2h-7.5v1.2zm6.9-.6v18h1.2V26h-1.2zm.6 18.6h6.72v-1.2h-6.72v1.2zm7.32-.6V2h-1.2v42h1.2zm-.6-42.6h-6.72v1.2h6.72V1.4zm-7.32.6v18h1.2V2h-1.2zm.6 17.4h-7.5v1.2h7.5v-1.2zm-6.9.6V2h-1.2v18h1.2zm-.6-18.6h-6.6v1.2h6.6V1.4zm-7.2.6v42h1.2V2h-1.2zm.6 42.6h6.6v-1.2h-6.6v1.2zm7.2-.6V26h-1.2v18h1.2zm35.045-42l.593-.095-.081-.505h-.512V2zm-9.66 0v-.6h-.511l-.081.505.592.095zm-6.72 42l-.592-.095-.111.695h.703V44zm6.06 0v.6h.517l.077-.511-.594-.089zm1.14-7.62v-.6h-.517l-.076.511.593.089zm8.1 0l.594-.089-.077-.511h-.517v.6zm1.14 7.62l-.593.089.076.511h.517V44zm6.66 0v.6h.704l-.111-.695-.593.095zm-11.88-34.56l.594-.089h-1.187l.593.089zm3.18 21.24v.6h.697l-.103-.689-.594.089zm-6.36 0l-.593-.089-.103.689h.696v-.6zm8.34-29.28h-9.66v1.2h9.66V1.4zm-10.252.505l-6.72 42 1.185.19 6.72-42-1.185-.19zM291.688 44.6h6.06v-1.2h-6.06v1.2zm6.654-.511l1.14-7.62-1.187-.178-1.14 7.62 1.187.178zm.546-7.109h8.1v-1.2h-8.1v1.2zm7.507-.511l1.14 7.62 1.187-.178-1.14-7.62-1.187.178zm1.733 8.131h6.66v-1.2h-6.66v1.2zm7.253-.695l-6.72-42-1.185.19 6.72 42 1.185-.19zM302.315 9.53l3.18 21.24 1.187-.178-3.18-21.24-1.187.178zm3.773 20.551h-6.36v1.2h6.36v-1.2zm-5.766.689l3.18-21.24-1.187-.178-3.18 21.24 1.187.178zM328.982 2l.592-.097-.082-.503h-.51V2zm-9.18 0v-.6h-.6V2h.6zm0 42h-.6v.6h.6V44zm5.76 0v.6h.6V44h-.6zm0-29.7l.592-.098-1.192.098h.6zm4.92 29.7l-.592.098.083.502h.509V44zm6.24 0v.6h.516l.077-.51-.593-.09zm4.56-30.12h.6l-1.193-.09.593.09zm0 30.12h-.6v.6h.6V44zm6.24 0v.6h.6V44h-.6zm0-42h.6v-.6h-.6V2zm-9.18 0v-.6h-.516l-.077.51.593.09zm-4.5 29.82l-.592.096 1.185-.006-.593-.09zm-4.86-30.42h-9.18v1.2h9.18V1.4zm-9.78.6v42h1.2V2h-1.2zm.6 42.6h5.76v-1.2h-5.76v1.2zm6.36-.6V14.3h-1.2V44h1.2zm-1.192-29.602l4.92 29.7 1.184-.196-4.92-29.7-1.184.196zm5.512 30.202h6.24v-1.2h-6.24v1.2zm6.833-.51l4.56-30.12-1.186-.18-4.56 30.12 1.186.18zm3.367-30.21V44h1.2V13.88h-1.2zm.6 30.72h6.24v-1.2h-6.24v1.2zm6.84-.6V2h-1.2v42h1.2zm-.6-42.6h-9.18v1.2h9.18V1.4zm-9.773.51l-4.5 29.82 1.186.18 4.5-29.82-1.186-.18zm-3.315 29.814l-4.86-29.82-1.184.193 4.86 29.82 1.184-.194zm32.189-6.984l.577.165.003-.013-.58-.152zm2.7-10.32h.6l-1.181-.152.581.152zm0 29.58h-.6v.6h.6V44zm5.94 0v.6h.6V44h-.6zm0-42h.6v-.6h-.6V2zm-7.26 0v-.6h-.442l-.131.422.573.178zm-5.4 17.34l-.573-.178-.004.013-.004.014.581.151zm-2.4 9.24h-.6l1.181.15-.581-.15zm0-26.58h.6v-.6h-.6V2zm-5.88 0v-.6h-.6V2h.6zm0 42h-.6v.6h.6V44zm6.78 0v.6h.452l.125-.435-.577-.165zm6.1-19.108l2.7-10.32-1.161-.304-2.7 10.32 1.161.304zm1.52-10.472V44h1.2V14.42h-1.2zm.6 30.18h5.94v-1.2h-5.94v1.2zm6.54-.6V2h-1.2v42h1.2zm-.6-42.6h-7.26v1.2h7.26V1.4zm-7.833.422l-5.4 17.34 1.146.356 5.4-17.34-1.146-.356zm-5.408 17.367l-2.4 9.24 1.162.302 2.4-9.24-1.162-.302zm-1.219 9.391V2h-1.2v26.58h1.2zm-.6-27.18h-5.88v1.2h5.88V1.4zm-6.48.6v42h1.2V2h-1.2zm.6 42.6h6.78v-1.2h-6.78v1.2zm7.357-.435l5.52-19.26-1.154-.33-5.52 19.26 1.154.33z" fill="#FFE8BF"/></svg>