<svg width="210" height="210" viewBox="0 0 210 210" fill="none" xmlns="http://www.w3.org/2000/svg"><path d="M0 60c0-27.614 22.386-50 50-50h100c27.614 0 50 22.386 50 50v100c0 27.614-22.386 50-50 50H50c-27.614 0-50-22.386-50-50V60z" fill="#FFDA22" filter="url(#a)"/><path d="M52 10h3v8.5a1.5 1.5 0 0 1-3 0V10zM0 157v-3h8.5a1.5 1.5 0 0 1 0 3H0zm200 0v-3h-8.5a1.5 1.5 0 0 0 0 3h8.5zM52 210h3v-8.5a1.5 1.5 0 0 0-3 0v8.5zM29 12h3v12.5a1.5 1.5 0 0 1-3 0V12zM4.15 180l-1.187-3H14.5a1.5 1.5 0 0 1 0 3H4.15zm191.7 0l1.187-3H185.5a1.5 1.5 0 0 0 0 3h10.35zM29 205.4l3 1.256V195.5a1.5 1.5 0 0 0-3 0v9.9zM75 10h3v14.5a1.5 1.5 0 0 1-3 0V10zM0 134v-3h14.5a1.5 1.5 0 0 1 0 3H0zm200 0v-3h-14.5a1.5 1.5 0 0 0 0 3H200zM75 210h3v-14.5a1.5 1.5 0 0 0-3 0V210zM98 10h3v8.5a1.5 1.5 0 0 1-3 0V10zM0 111v-3h8.5a1.5 1.5 0 0 1 0 3H0zm200 0v-3h-8.5a1.5 1.5 0 0 0 0 3h8.5zM98 210h3v-8.5a1.5 1.5 0 0 0-3 0v8.5zm23-200h3v14.5a1.5 1.5 0 0 1-3 0V10zM0 88v-3h14.5a1.5 1.5 0 0 1 0 3H0zm200 0v-3h-14.5a1.5 1.5 0 0 0 0 3H200zm-79 122h3v-14.5a1.5 1.5 0 0 0-3 0V210zm23-200h3v8.5a1.5 1.5 0 0 1-3 0V10zM0 65v-3h8.5a1.5 1.5 0 0 1 0 3H0zm200 0v-3h-8.5a1.5 1.5 0 0 0 0 3h8.5zm-56 145h3v-8.5a1.5 1.5 0 0 0-3 0v8.5zm23-200h3v14.5a1.5 1.5 0 0 1-3 0V10zM3.34 42l1.278-3H14.5a1.5 1.5 0 0 1 0 3H3.34zm193.32 0l-1.278-3H185.5a1.5 1.5 0 0 0 0 3h11.16zM167 207l3-1.152V195.5a1.5 1.5 0 0 0-3 0V207z" fill="#E0BB00"/><path fill-rule="evenodd" clip-rule="evenodd" d="M142.401 144.906l-18.166-18.167c-3.557-4.532-2.783-8.238-1.805-12.922 1.167-5.592 2.625-12.576-2.648-24.02l-3.927-11.161a17.615 17.615 0 0 0-6.655-8.664l.002-18.703c0-4.52-3.472-8.197-7.74-8.197H69.739c-4.267 0-7.739 3.676-7.739 8.196v67.057c0 4.52 3.472 8.197 7.74 8.197h6.077a14.663 14.663 0 0 0 7.298 7.129c7.198 3.029 10.014 5.749 13.415 9.034 1.432 1.384 2.968 2.868 4.979 4.517.382.407 5.872.407 6.11.407h33.663c1.378 0 2.095-1.728 1.119-2.703zM65.167 63.044V51.268c0-2.774 2.05-5.03 4.572-5.03h31.723c2.475 0 4.497 2.174 4.571 4.877v57.292l-7.276-4.534v-8.736c0-5.165-2.993-9.642-7.335-11.793-.419-.17-.831-.317-1.235-.445A10.5 10.5 0 0 0 96 73.5C96 67.701 91.299 63 85.5 63S75 67.701 75 73.5a10.5 10.5 0 0 0 5.88 9.431c-.375.129-.661.245-.849.321a1.504 1.504 0 0 1-.254.093c-4.34 2.152-7.331 6.628-7.331 11.792v16.274h3.166V95.137c0-5.508 4.481-9.989 9.989-9.989 5.508 0 9.989 4.481 9.989 9.989v6.762a46.703 46.703 0 0 1-1.213-.792c-1.77-1.182-3.657-2.44-5.771-2.44-3.43 0-6.364 2.872-6.456 6.296-.079 2.913 1.767 4.621 3.712 6.421l.03.027L98.8 123.355H69.739c-2.521 0-4.572-2.256-4.572-5.03V63.044zm28.161 72.532l9.848 8.866h34.284l-15.464-15.464c-4.712-4.753-3.783-9.283-2.681-14.651.757-3.69 1.595-7.776.738-12.603-.299-2.876-3.078-10.547-5.161-16.297-.877-2.421-1.63-4.502-2.024-5.74a14.434 14.434 0 0 0-3.668-5.658v37.268c0 1.354-1.672 2.081-2.663 1.156l-15.786-9.839c-1.458-.912-3.143-1.125-4.463.195-1.261 1.262-1.291 3.345-.03 4.626l17.515 16.206.001.001 3.947 3.653c1.5 1.389-.657 3.707-2.151 2.324l-3.386-3.134c-.239.023-22.75.037-22.75.037 1.276 2.637 6.351 5.13 10.065 6.954 1.775.872 3.238 1.59 3.83 2.1zM93 73.5a7.5 7.5 0 1 1-15 0 7.5 7.5 0 0 1 15 0z" fill="#5C11FF"/><path d="M81.626 117.318a1.583 1.583 0 1 0 0 3.166h7.951a1.583 1.583 0 1 0 0-3.166h-7.951zm32.749-70.558c.408 0 .816-.156 1.125-.469l2.568-2.594a1.583 1.583 0 1 0-2.251-2.227l-2.567 2.594c-.967.977-.251 2.697 1.125 2.697zm1.441 12.742c1.437 1.452 3.687-.776 2.251-2.228l-2.568-2.594a1.583 1.583 0 1 0-2.25 2.227l2.567 2.595zm-.457-9.016c0 .874.709 1.583 1.583 1.583h3.691a1.583 1.583 0 1 0 0-3.167h-3.691c-.874 0-1.583.709-1.583 1.584zm-44.721 7.652c-.13 0-.27-.04-.418-.12-.143-.081-.214-.19-.214-.326v-.901c0-.242.068-.468.205-.679a2.77 2.77 0 0 1 .548-.604c.223-.192.458-.378.706-.557.254-.18.49-.357.706-.53.224-.18.406-.36.549-.54a.9.9 0 0 0 .214-.566.728.728 0 0 0-.158-.437c-.106-.148-.288-.223-.549-.223a.807.807 0 0 0-.492.158c-.137.105-.205.285-.205.54 0 .136-.068.26-.204.37-.136.106-.322.159-.558.159a.693.693 0 0 1-.465-.158c-.123-.105-.185-.304-.185-.595 0-.378.099-.7.297-.966.204-.267.468-.468.79-.604a2.47 2.47 0 0 1 1.013-.214c.36 0 .703.074 1.032.223.334.149.607.365.817.65.211.285.316.635.316 1.05 0 .335-.07.636-.213.902a2.866 2.866 0 0 1-.53.725 5.73 5.73 0 0 1-.697.576 34.03 34.03 0 0 1-.688.483 3.8 3.8 0 0 0-.539.419c-.136.136-.204.275-.204.418v.083h2.435c.117 0 .22.062.306.186.087.124.13.27.13.437a.786.786 0 0 1-.13.446c-.086.13-.189.195-.306.195h-3.309zm5.006-2.49a.678.678 0 0 1-.512-.214.703.703 0 0 1-.204-.502c0-.198.068-.366.204-.502a.678.678 0 0 1 .512-.213c.192 0 .356.07.492.213a.668.668 0 0 1 .214.502c0 .192-.071.36-.214.502a.657.657 0 0 1-.492.214zm0 2.546a.678.678 0 0 1-.512-.214.703.703 0 0 1-.204-.502c0-.198.068-.365.204-.501a.678.678 0 0 1 .512-.214c.192 0 .356.071.492.214a.667.667 0 0 1 .214.502.683.683 0 0 1-.214.501.657.657 0 0 1-.492.214zm3.453 0c-.495 0-.917-.084-1.264-.25-.34-.168-.598-.382-.771-.642a1.51 1.51 0 0 1-.26-.837c0-.254.062-.424.186-.51.13-.087.31-.13.539-.13.316 0 .514.052.594.157a.58.58 0 0 1 .13.381c0 .186.078.329.233.428.155.093.347.14.576.14.266 0 .474-.069.623-.205.148-.143.223-.366.223-.67v-.176c0-.31-.075-.539-.223-.688-.149-.148-.35-.223-.604-.223h-1.413c-.21 0-.356-.05-.437-.148a.671.671 0 0 1-.12-.419v-.13l.018-.14.25-2.341a.932.932 0 0 1 .075-.325c.044-.081.106-.121.186-.121h2.965c.142 0 .248.065.316.195s.102.276.102.437c0 .155-.034.3-.102.437a.335.335 0 0 1-.316.195h-2.035l-.093 1.245h.604c.427 0 .811.065 1.152.195.347.13.62.344.818.641.204.298.307.694.307 1.19v.177c0 .514-.103.929-.307 1.245a1.768 1.768 0 0 1-.818.688c-.34.136-.719.204-1.134.204zm4.847 0c-.496 0-.917-.084-1.264-.25-.341-.168-.598-.382-.772-.642a1.51 1.51 0 0 1-.26-.837c0-.254.062-.424.186-.51.13-.087.31-.13.54-.13.315 0 .513.052.594.157a.58.58 0 0 1 .13.381c0 .186.077.329.232.428.155.093.347.14.576.14.267 0 .474-.069.623-.205.149-.143.223-.366.223-.67v-.176c0-.31-.074-.539-.223-.688-.148-.148-.35-.223-.604-.223h-1.412c-.211 0-.357-.05-.437-.148a.67.67 0 0 1-.121-.419v-.13l.018-.14.251-2.341a.932.932 0 0 1 .075-.325c.043-.081.105-.121.186-.121h2.964c.143 0 .248.065.316.195s.103.276.103.437c0 .155-.035.3-.103.437a.335.335 0 0 1-.316.195h-2.035l-.093 1.245h.604c.428 0 .812.065 1.153.195.346.13.62.344.817.641.205.298.307.694.307 1.19v.177c0 .514-.102.929-.307 1.245a1.767 1.767 0 0 1-.817.688 3.04 3.04 0 0 1-1.134.204z" fill="#5C11FF"/><path d="M101 55a4 4 0 1 1-8 0 4 4 0 0 1 8 0z" fill="#F00"/><path d="M46.525 175.461l1.064-1.425c.43.418.95.766 1.558 1.045a4.518 4.518 0 0 0 1.824.399c.71 0 1.28-.171 1.71-.513.43-.355.646-.823.646-1.406 0-.545-.222-1.007-.665-1.387-.443-.393-.988-.722-1.634-.988a41.762 41.762 0 0 1-1.9-.855 4.65 4.65 0 0 1-1.615-1.273c-.443-.545-.665-1.203-.665-1.976 0-1.115.412-2.014 1.235-2.698.836-.684 1.887-1.026 3.154-1.026 1.533 0 2.78.456 3.743 1.368l-.855 1.539a4.339 4.339 0 0 0-1.387-.855 4.187 4.187 0 0 0-1.577-.323c-.697 0-1.273.177-1.729.532a1.625 1.625 0 0 0-.684 1.368c0 .443.158.836.475 1.178.317.342.716.614 1.197.817.481.19 1 .418 1.558.684.557.253 1.077.519 1.558.798.481.279.88.671 1.197 1.178.317.507.475 1.096.475 1.767 0 1.089-.38 2.001-1.14 2.736-.76.722-1.805 1.083-3.135 1.083-1.735 0-3.205-.589-4.408-1.767zM59.355 177l-3.096-9.614h1.957l1.995 6.745.247 1.026h.038c.076-.355.164-.697.266-1.026l2.07-6.726h1.71l2.072 6.726.247 1.026h.038c.063-.355.145-.697.247-1.026l2.014-6.745h1.919L68 177h-2.052l-1.976-6.175-.285-1.045h-.038c-.076.367-.165.716-.266 1.045L61.408 177h-2.052zm13.57-11.552v-1.862h1.9v1.862h-1.9zM72.961 177v-9.614h1.843V177h-1.843zm4.676 3.8v-13.414h1.71v.855l-.057.722h.038a3.236 3.236 0 0 1 1.31-1.33c.57-.317 1.21-.475 1.92-.475 1.292 0 2.318.462 3.078 1.387.76.925 1.14 2.141 1.14 3.648 0 1.52-.405 2.742-1.216 3.667-.81.912-1.856 1.368-3.135 1.368-1.28 0-2.274-.545-2.983-1.634h-.038c.05.228.076.507.076.836v4.37h-1.843zm1.786-8.569c0 .912.24 1.71.722 2.394.494.671 1.159 1.007 1.995 1.007.785 0 1.444-.304 1.976-.912.532-.621.798-1.457.798-2.508 0-1.039-.253-1.868-.76-2.489-.494-.633-1.146-.95-1.957-.95-.785 0-1.444.291-1.976.874s-.798 1.444-.798 2.584zm8.998-.038c0-1.507.456-2.723 1.368-3.648.912-.925 2.065-1.387 3.458-1.387 1.305 0 2.324.431 3.059 1.292.735.849 1.102 1.919 1.102 3.211 0 .165-.025.424-.076.779H90.34c.05 1.001.386 1.786 1.007 2.356.633.557 1.4.836 2.299.836 1.051 0 1.995-.374 2.831-1.121l.779 1.349c-.456.418-1.026.754-1.71 1.007a5.925 5.925 0 0 1-2.014.361c-1.495 0-2.723-.475-3.686-1.425-.95-.963-1.425-2.166-1.425-3.61zm1.976-1.083h5.149c-.025-.798-.26-1.419-.703-1.862-.43-.443-.975-.665-1.634-.665-.722 0-1.343.228-1.862.684-.507.443-.823 1.058-.95 1.843zm13.977 5.89v-9.614h1.786v1.311l-.057.722h.038c.241-.595.678-1.121 1.311-1.577.634-.456 1.311-.684 2.033-.684 1.584 0 2.54.728 2.869 2.185h.038c.279-.595.729-1.108 1.349-1.539a3.608 3.608 0 0 1 2.071-.646c1.09 0 1.888.304 2.394.912.52.608.779 1.533.779 2.774V177h-1.843v-5.757c0-.773-.12-1.368-.361-1.786-.228-.418-.671-.627-1.33-.627-.848 0-1.539.374-2.071 1.121-.519.735-.779 1.59-.779 2.565V177h-1.843v-5.757c0-.76-.114-1.349-.342-1.767-.215-.431-.652-.646-1.311-.646-.861 0-1.558.374-2.09 1.121-.532.747-.798 1.602-.798 2.565V177h-1.843zm16.74-4.826c0-1.431.501-2.622 1.501-3.572 1.001-.963 2.223-1.444 3.667-1.444 1.457 0 2.686.475 3.686 1.425 1.001.95 1.501 2.147 1.501 3.591 0 1.444-.5 2.647-1.501 3.61-1 .963-2.223 1.444-3.667 1.444s-2.672-.481-3.686-1.444c-1-.963-1.501-2.166-1.501-3.61zm1.881 0c0 1.001.317 1.83.95 2.489.646.646 1.432.969 2.356.969.912 0 1.691-.329 2.337-.988.646-.659.969-1.482.969-2.47 0-.988-.323-1.805-.969-2.451a3.185 3.185 0 0 0-2.337-.969c-.924 0-1.71.323-2.356.969-.633.646-.95 1.463-.95 2.451zm10.107.019c0-1.52.405-2.736 1.216-3.648.81-.925 1.855-1.387 3.135-1.387.62 0 1.197.139 1.729.418.532.266.95.652 1.254 1.159h.038a4.811 4.811 0 0 1-.038-.646v-4.503h1.824V177h-1.748v-.969l.057-.646h-.038a3.467 3.467 0 0 1-1.273 1.33c-.545.342-1.185.513-1.919.513-1.28 0-2.306-.462-3.078-1.387-.773-.925-1.159-2.141-1.159-3.648zm1.881 0c0 1.039.247 1.875.741 2.508.506.621 1.165.931 1.976.931.785 0 1.444-.291 1.976-.874s.798-1.444.798-2.584c0-.937-.241-1.735-.722-2.394-.469-.671-1.14-1.007-2.014-1.007-.786 0-1.444.31-1.976.931-.52.608-.779 1.438-.779 2.489zm9.492 0c0-1.507.456-2.723 1.368-3.648.912-.925 2.064-1.387 3.458-1.387 1.304 0 2.324.431 3.059 1.292.734.849 1.102 1.919 1.102 3.211 0 .165-.026.424-.076.779h-6.992c.05 1.001.386 1.786 1.007 2.356.633.557 1.399.836 2.299.836 1.051 0 1.995-.374 2.831-1.121l.779 1.349c-.456.418-1.026.754-1.71 1.007a5.93 5.93 0 0 1-2.014.361c-1.495 0-2.724-.475-3.686-1.425-.95-.963-1.425-2.166-1.425-3.61zm1.976-1.083h5.149c-.026-.798-.26-1.419-.703-1.862-.431-.443-.976-.665-1.634-.665-.722 0-1.343.228-1.862.684-.507.443-.824 1.058-.95 1.843z" fill="#5C11FF"/><defs><filter id="a" x="0" y="0" width="210" height="210" filterUnits="userSpaceOnUse" color-interpolation-filters="sRGB"><feFlood flood-opacity="0" result="BackgroundImageFix"/><feColorMatrix in="SourceAlpha" values="0 0 0 0 0 0 0 0 0 0 0 0 0 0 0 0 0 0 127 0"/><feOffset dx="10" dy="-10"/><feColorMatrix values="0 0 0 0 0.879167 0 0 0 0 0.731976 0 0 0 0 0 0 0 0 1 0"/><feBlend in2="BackgroundImageFix" result="effect1_dropShadow"/><feBlend in="SourceGraphic" in2="effect1_dropShadow" result="shape"/></filter></defs></svg>