<svg width="210" height="210" viewBox="0 0 210 210" fill="none" xmlns="http://www.w3.org/2000/svg"><path d="M0 60c0-27.614 22.386-50 50-50h100c27.614 0 50 22.386 50 50v100c0 27.614-22.386 50-50 50H50c-27.614 0-50-22.386-50-50V60z" fill="#5C11FF" filter="url(#a)"/><path d="M141.393 128.979a4.304 4.304 0 0 0 4.303-4.304v-62.32a4.304 4.304 0 0 0-4.303-4.303v-4.304A8.608 8.608 0 0 1 150 62.355v62.32a8.607 8.607 0 0 1-8.607 8.607v-4.303zm-13.19 5.374a4.304 4.304 0 0 0 4.304-4.304V56.981a4.304 4.304 0 0 0-4.304-4.303v-4.304a8.608 8.608 0 0 1 8.608 8.607v73.068a8.607 8.607 0 0 1-8.608 8.607v-4.303z" fill="#fff"/><path fill-rule="evenodd" clip-rule="evenodd" d="M53 132.85c0 5.523 4.477 10 10 10h50.271c5.523 0 10-4.477 10-10V53c0-5.523-4.477-10-10-10H63c-5.523 0-10 4.477-10 10v79.85zM63 48h50.271a5 5 0 0 1 5 5v79.85a5 5 0 0 1-5 5H63a5 5 0 0 1-5-5V53a5 5 0 0 1 5-5z" fill="#fff"/><path fill-rule="evenodd" clip-rule="evenodd" d="M82.343 87.097a12.167 12.167 0 0 1-6.48-10.763c0 4.666 2.625 8.72 6.48 10.763zm-9.441 14.033V120h30.507-30.507v-18.87zm20.916-14.078zm6.995-10.718c0 4.409-2.234 8.295-5.629 10.59 5.223 2.595 8.825 7.985 8.825 14.206v19.47H72.302v-19.47c0-6.168 3.54-11.519 8.69-14.138a12.763 12.763 0 0 1-5.729-10.658c0-7.055 5.72-12.775 12.775-12.775 7.055 0 12.775 5.72 12.775 12.775zm-4.679 0a8.096 8.096 0 1 1-16.192 0 8.096 8.096 0 0 1 16.192 0zm-7.979 13.814c6.024 0 10.819 5.326 10.982 10.99v14.886H77.173V101.13c0-6.055 4.927-10.982 10.982-10.982zm8.403-15.567zm-8.403 14.967c4.29 0 7.968 2.539 9.97 6.011-2.002-3.472-5.68-6.011-9.97-6.011z" fill="#fff"/><path d="M46.525 172.461l1.064-1.425c.43.418.95.766 1.558 1.045a4.518 4.518 0 0 0 1.824.399c.71 0 1.28-.171 1.71-.513.43-.355.646-.823.646-1.406 0-.545-.222-1.007-.665-1.387-.443-.393-.988-.722-1.634-.988a41.762 41.762 0 0 1-1.9-.855 4.65 4.65 0 0 1-1.615-1.273c-.443-.545-.665-1.203-.665-1.976 0-1.115.412-2.014 1.235-2.698.836-.684 1.887-1.026 3.154-1.026 1.533 0 2.78.456 3.743 1.368l-.855 1.539a4.339 4.339 0 0 0-1.387-.855 4.187 4.187 0 0 0-1.577-.323c-.697 0-1.273.177-1.729.532a1.625 1.625 0 0 0-.684 1.368c0 .443.158.836.475 1.178.317.342.716.614 1.197.817.481.19 1 .418 1.558.684.557.253 1.077.519 1.558.798.481.279.88.671 1.197 1.178.317.507.475 1.096.475 1.767 0 1.089-.38 2.001-1.14 2.736-.76.722-1.805 1.083-3.135 1.083-1.735 0-3.205-.589-4.408-1.767zM59.355 174l-3.096-9.614h1.957l1.995 6.745.247 1.026h.038c.076-.355.164-.697.266-1.026l2.07-6.726h1.71l2.072 6.726.247 1.026h.038c.063-.355.145-.697.247-1.026l2.014-6.745h1.919L68 174h-2.052l-1.976-6.175-.285-1.045h-.038c-.076.367-.165.716-.266 1.045L61.408 174h-2.052zm13.57-11.552v-1.862h1.9v1.862h-1.9zM72.961 174v-9.614h1.843V174h-1.843zm4.676 3.8v-13.414h1.71v.855l-.057.722h.038a3.236 3.236 0 0 1 1.31-1.33c.57-.317 1.21-.475 1.92-.475 1.292 0 2.318.462 3.078 1.387.76.925 1.14 2.141 1.14 3.648 0 1.52-.405 2.742-1.216 3.667-.81.912-1.856 1.368-3.135 1.368-1.28 0-2.274-.545-2.983-1.634h-.038c.05.228.076.507.076.836v4.37h-1.843zm1.786-8.569c0 .912.24 1.71.722 2.394.494.671 1.159 1.007 1.995 1.007.785 0 1.444-.304 1.976-.912.532-.621.798-1.457.798-2.508 0-1.039-.253-1.868-.76-2.489-.494-.633-1.146-.95-1.957-.95-.785 0-1.444.291-1.976.874s-.798 1.444-.798 2.584zm8.998-.038c0-1.507.456-2.723 1.368-3.648.912-.925 2.065-1.387 3.458-1.387 1.305 0 2.324.431 3.059 1.292.735.849 1.102 1.919 1.102 3.211 0 .165-.025.424-.076.779H90.34c.05 1.001.386 1.786 1.007 2.356.633.557 1.4.836 2.299.836 1.051 0 1.995-.374 2.831-1.121l.779 1.349c-.456.418-1.026.754-1.71 1.007a5.925 5.925 0 0 1-2.014.361c-1.495 0-2.723-.475-3.686-1.425-.95-.963-1.425-2.166-1.425-3.61zm1.976-1.083h5.149c-.025-.798-.26-1.419-.703-1.862-.43-.443-.975-.665-1.634-.665-.722 0-1.343.228-1.862.684-.507.443-.823 1.058-.95 1.843zm13.977 5.89v-9.614h1.786v1.311l-.057.722h.038c.241-.595.678-1.121 1.311-1.577.634-.456 1.311-.684 2.033-.684 1.584 0 2.54.728 2.869 2.185h.038c.279-.595.729-1.108 1.349-1.539a3.608 3.608 0 0 1 2.071-.646c1.09 0 1.888.304 2.394.912.52.608.779 1.533.779 2.774V174h-1.843v-5.757c0-.773-.12-1.368-.361-1.786-.228-.418-.671-.627-1.33-.627-.848 0-1.539.374-2.071 1.121-.519.735-.779 1.59-.779 2.565V174h-1.843v-5.757c0-.76-.114-1.349-.342-1.767-.215-.431-.652-.646-1.311-.646-.861 0-1.558.374-2.09 1.121-.532.747-.798 1.602-.798 2.565V174h-1.843zm16.74-4.826c0-1.431.501-2.622 1.501-3.572 1.001-.963 2.223-1.444 3.667-1.444 1.457 0 2.686.475 3.686 1.425 1.001.95 1.501 2.147 1.501 3.591 0 1.444-.5 2.647-1.501 3.61-1 .963-2.223 1.444-3.667 1.444s-2.672-.481-3.686-1.444c-1-.963-1.501-2.166-1.501-3.61zm1.881 0c0 1.001.317 1.83.95 2.489.646.646 1.432.969 2.356.969.912 0 1.691-.329 2.337-.988.646-.659.969-1.482.969-2.47 0-.988-.323-1.805-.969-2.451a3.185 3.185 0 0 0-2.337-.969c-.924 0-1.71.323-2.356.969-.633.646-.95 1.463-.95 2.451zm10.107.019c0-1.52.405-2.736 1.216-3.648.81-.925 1.855-1.387 3.135-1.387.62 0 1.197.139 1.729.418.532.266.95.652 1.254 1.159h.038a4.811 4.811 0 0 1-.038-.646v-4.503h1.824V174h-1.748v-.969l.057-.646h-.038a3.467 3.467 0 0 1-1.273 1.33c-.545.342-1.185.513-1.919.513-1.28 0-2.306-.462-3.078-1.387-.773-.925-1.159-2.141-1.159-3.648zm1.881 0c0 1.039.247 1.875.741 2.508.506.621 1.165.931 1.976.931.785 0 1.444-.291 1.976-.874s.798-1.444.798-2.584c0-.937-.241-1.735-.722-2.394-.469-.671-1.14-1.007-2.014-1.007-.786 0-1.444.31-1.976.931-.52.608-.779 1.438-.779 2.489zm9.492 0c0-1.507.456-2.723 1.368-3.648.912-.925 2.064-1.387 3.458-1.387 1.304 0 2.324.431 3.059 1.292.734.849 1.102 1.919 1.102 3.211 0 .165-.026.424-.076.779h-6.992c.05 1.001.386 1.786 1.007 2.356.633.557 1.399.836 2.299.836 1.051 0 1.995-.374 2.831-1.121l.779 1.349c-.456.418-1.026.754-1.71 1.007a5.93 5.93 0 0 1-2.014.361c-1.495 0-2.724-.475-3.686-1.425-.95-.963-1.425-2.166-1.425-3.61zm1.976-1.083h5.149c-.026-.798-.26-1.419-.703-1.862-.431-.443-.976-.665-1.634-.665-.722 0-1.343.228-1.862.684-.507.443-.824 1.058-.95 1.843z" fill="#fff"/><defs><filter id="a" x="0" y="0" width="210" height="210" filterUnits="userSpaceOnUse" color-interpolation-filters="sRGB"><feFlood flood-opacity="0" result="BackgroundImageFix"/><feColorMatrix in="SourceAlpha" values="0 0 0 0 0 0 0 0 0 0 0 0 0 0 0 0 0 0 127 0"/><feOffset dx="10" dy="-10"/><feColorMatrix values="0 0 0 0 0.620466 0 0 0 0 0.445833 0 0 0 0 1 0 0 0 1 0"/><feBlend in2="BackgroundImageFix" result="effect1_dropShadow"/><feBlend in="SourceGraphic" in2="effect1_dropShadow" result="shape"/></filter></defs></svg>