<svg width="168" height="54" viewBox="0 0 168 54" fill="none" xmlns="http://www.w3.org/2000/svg"><path d="M59.556 24.557a2.643 2.643 0 0 1-1.868-.743c-.529-.527-.794-1.147-.794-1.86 0-.712.265-1.332.794-1.859.53-.527 1.152-.79 1.868-.79h2.101c.25 0 .374-.14.374-.418v-.837c0-3.44.778-5.95 2.335-7.53 1.587-1.58 4.062-2.37 7.424-2.37 1.09 0 2.055.061 2.895.185.748.093 1.37.45 1.868 1.07.498.62.747 1.316.747 2.091v.14c0 .65-.264 1.177-.793 1.58a2.394 2.394 0 0 1-1.775.418 9.325 9.325 0 0 0-1.074-.046c-1.525 0-2.553.294-3.082.883-.498.589-.747 1.766-.747 3.532v.884c0 .278.14.418.42.418h3.923c.716 0 1.338.263 1.868.79.529.527.793 1.147.793 1.86 0 .712-.264 1.332-.793 1.859a2.643 2.643 0 0 1-1.868.743h-3.923c-.28 0-.42.14-.42.419v14.92c0 .712-.264 1.332-.794 1.859-.529.527-1.152.79-1.867.79h-2.475c-.716 0-1.339-.263-1.868-.79-.53-.527-.794-1.147-.794-1.86v-14.92c0-.278-.125-.418-.374-.418h-2.1zM83.45 42.545c-.716 0-1.339-.263-1.868-.79-.53-.527-.794-1.147-.794-1.86v-29.56c0-.714.265-1.333.794-1.86.53-.527 1.152-.79 1.868-.79h2.615c.716 0 1.338.263 1.868.79.529.527.793 1.146.793 1.86v29.56c0 .713-.264 1.333-.793 1.86-.53.527-1.152.79-1.868.79H83.45zm16.56.465c-2.74 0-4.732-.76-5.977-2.277-1.214-1.519-1.821-4.122-1.821-7.81V21.026c0-.713.264-1.333.793-1.86.53-.526 1.152-.79 1.868-.79h2.055c.716 0 1.338.264 1.868.79.529.527.793 1.147.793 1.86v11.387c0 1.798.234 3.037.701 3.719.498.65 1.339.976 2.522.976 1.089 0 2.085-.434 2.988-1.301.903-.9 1.354-1.86 1.354-2.882v-11.9c0-.712.265-1.332.794-1.859.529-.526 1.152-.79 1.868-.79h2.241c.716 0 1.339.264 1.868.79.529.527.794 1.147.794 1.86v18.87c0 .713-.265 1.333-.794 1.86-.529.527-1.152.79-1.868.79h-1.914c-.747 0-1.386-.248-1.915-.744a2.858 2.858 0 0 1-.794-1.905v-.372c0-.031-.015-.047-.046-.047l-.094.093c-2.023 2.294-4.451 3.44-7.284 3.44zm20.865-.465c-.716 0-1.339-.263-1.868-.79a2.618 2.618 0 0 1-.747-1.86v-29.56c0-.714.249-1.333.747-1.86.529-.527 1.152-.79 1.868-.79h2.288a2.41 2.41 0 0 1 1.821.79c.529.527.794 1.146.794 1.86v17.15c0 .031.016.047.047.047l.093-.047 5.837-7.065c1.121-1.363 2.553-2.045 4.296-2.045h3.362c.498 0 .856.233 1.074.698.249.464.202.898-.14 1.3l-7.985 9.343c-.156.186-.156.388 0 .605L140.44 40.5c.312.434.343.883.094 1.348-.218.465-.592.697-1.121.697h-3.362c-1.743 0-3.16-.697-4.249-2.091l-5.884-7.623c-.031-.031-.062-.047-.093-.047s-.047.016-.047.047v7.065c0 .712-.265 1.332-.794 1.859a2.411 2.411 0 0 1-1.821.79h-2.288zm29.201-.372l-7.891-21.334c-.249-.589-.187-1.147.186-1.674.374-.526.888-.79 1.541-.79h2.942c.747 0 1.432.248 2.055.744a3.168 3.168 0 0 1 1.214 1.813l3.549 14.455c0 .031.015.047.046.047.032 0 .047-.016.047-.047l4.249-14.502a3.165 3.165 0 0 1 1.215-1.813 3.696 3.696 0 0 1 2.194-.697h4.005c.623 0 1.856.17 2.229.698.374.526.435 1.177.217 1.766l-13.175 29.468a3.58 3.58 0 0 1-1.401 1.767 3.629 3.629 0 0 1-2.148.697h-2.568c-.654 0-1.152-.263-1.494-.79-.343-.496-.389-1.038-.14-1.627l3.128-7.437a1.528 1.528 0 0 0 0-.744z" fill="#4B3C6A"/><path d="M23.886 22.006L4.83 25.397c7.515 1.503 13.508 3.45 15.834 4.434 6.262-.716 19.34-2.081 18.534-2.35-.407-.136-10.214-3.328-15.313-5.475z" fill="url(#a)" stroke="#E462FC" stroke-width=".7"/><path d="M18.328 48.8l-.002-.01-2.053-13.088.47.206a255.966 255.966 0 0 1 6.84 3.207c-.29 1.874-.95 4.787-1.673 7.437a58.734 58.734 0 0 1-1.136 3.736c-.182.523-.356.976-.516 1.338-.162.37-.3.622-.408.76-.2.26-.335.334-.395.344-.01.002-.084.02-.224-.187-.148-.218-.31-.608-.467-1.234-.156-.62-.303-1.443-.436-2.509z" fill="url(#b)" stroke="#DB49F5" stroke-width=".7"/><path d="M16.37 36.23l5.905 2.415-5.1 2.684-.804-5.099z" fill="#CE4DFF"/><path d="M22.275 38.645a.142.142 0 0 1-.028-.004l-5.635-.8-.241-1.61c2.083.867 5.481 2.325 5.876 2.41l.028.004z" fill="#C438FF"/><path d="M16.37 28.08c-3.827-1.275-9.394-2.585-11.004-2.8l-.569-.053.032 5.904c0 1.073-.05 1.816 1.343 2.2 7.782 2.147 12.702 3.964 17.712 6.021l.805-4.562c.268-1.353 0-2.684-1.074-3.606-1.42-1.22-3.22-1.761-7.246-3.103z" fill="url(#c)" filter="url(#d)"/><path d="M43.525 11.646l-.004.004c-.514.576-1.148 1.098-2 1.438-.853.34-1.943.506-3.378.342-9.397-1.073-15.047-1.373-17.75-1.343-.632.007-1.708-.167-3.11-.473-1.395-.304-3.084-.733-4.928-1.221-1.285-.341-2.646-.711-4.033-1.088A434.432 434.432 0 0 0 1.53 7.496C12.245 3.416 23.224.526 38.846.313c5.934-.081 8.76 6.937 4.679 11.333z" fill="url(#e)" stroke="#EA77FF" stroke-width=".6"/><path d="M40.53 19.399C35.162 16.179 1.08 7.054.543 7.59c-1.074 1.879-.269 6.71 0 7.783.195.781.799 1.266 1.341 1.342 17.17 3.186 25.764 6.978 37.572 11.003.537.183 2.166-5.08 2.147-6.977-.006-.572-.268-.86-1.073-1.342z" fill="url(#f)" filter="url(#g)"/><path d="M23.67 22.221l15.512 5.421-20.664-4.562 5.152-.859z" fill="#DF68FC"/><path d="M11.67 10.105l2.286.532a55.603 55.603 0 0 1-2.287-.532L.537 7.515C3.042 6.53 7.783 4.83 9.93 4.561c1.42-.177-10.434 2.415 1.74 5.543z" fill="#E86DFF"/><path d="M11.54 10.083l8.05 2.304h4.831L11.54 10.083z" fill="#E76EFC"/><path d="M5.635 25.227l6.441 1.512c-2.147-1.61-3.075-1.939.805-2.586l-7.246 1.074z" fill="#D660FB"/><path d="M23.67 22.221l15.511 5.421-17.712-5.099 2.2-.322z" fill="#D55EFB"/><path d="M5.635 25.227l2.684.622c-1.074-.554-1.879-.43-1.074-.864l-1.61.242z" fill="#C444FA"/><path d="M1.61 7.13l-1.073.384 8.856 2.032-7.782-2.415z" fill="#DF59FF"/><defs><filter id="d" x="4.797" y="25.227" width="19.988" height="14.126" filterUnits="userSpaceOnUse" color-interpolation-filters="sRGB"><feFlood flood-opacity="0" result="BackgroundImageFix"/><feBlend in="SourceGraphic" in2="BackgroundImageFix" result="shape"/><feColorMatrix in="SourceAlpha" values="0 0 0 0 0 0 0 0 0 0 0 0 0 0 0 0 0 0 127 0" result="hardAlpha"/><feOffset dy=".7"/><feComposite in2="hardAlpha" operator="arithmetic" k2="-1" k3="1"/><feColorMatrix values="0 0 0 0 0.909804 0 0 0 0 0.486275 0 0 0 0 0.984314 0 0 0 1 0"/><feBlend in2="shape" result="effect1_innerShadow"/></filter><filter id="g" x="0" y="7.568" width="41.603" height="20.155" filterUnits="userSpaceOnUse" color-interpolation-filters="sRGB"><feFlood flood-opacity="0" result="BackgroundImageFix"/><feBlend in="SourceGraphic" in2="BackgroundImageFix" result="shape"/><feColorMatrix in="SourceAlpha" values="0 0 0 0 0 0 0 0 0 0 0 0 0 0 0 0 0 0 127 0" result="hardAlpha"/><feOffset dy=".7"/><feComposite in2="hardAlpha" operator="arithmetic" k2="-1" k3="1"/><feColorMatrix values="0 0 0 0 0.945098 0 0 0 0 0.513726 0 0 0 0 0.988235 0 0 0 1 0"/><feBlend in2="shape" result="effect1_innerShadow"/></filter><linearGradient id="a" x1="10.199" y1="26.471" x2="37.036" y2="25.129" gradientUnits="userSpaceOnUse"><stop stop-color="#E36AFB"/><stop offset="1" stop-color="#EC74FC"/></linearGradient><linearGradient id="b" x1="15.801" y1="44.724" x2="23.6" y2="46.708" gradientUnits="userSpaceOnUse"><stop stop-color="#D159FB"/><stop offset="1" stop-color="#D45CFB"/></linearGradient><linearGradient id="c" x1="4.829" y1="28.514" x2="22.852" y2="35.987" gradientUnits="userSpaceOnUse"><stop stop-color="#DC64FB"/><stop offset="1" stop-color="#DE65FB"/></linearGradient><linearGradient id="e" x1="1.879" y1="10.632" x2="44.527" y2="7.009" gradientUnits="userSpaceOnUse"><stop stop-color="#F279FC"/><stop offset="1" stop-color="#FC83FC"/></linearGradient><linearGradient id="f" x1="1.073" y1="11.313" x2="41.866" y2="22.853" gradientUnits="userSpaceOnUse"><stop stop-color="#EB72FC"/><stop offset="1" stop-color="#F178FC"/></linearGradient></defs></svg>