<svg id="Layer_1" xmlns="http://www.w3.org/2000/svg" viewBox="0 0 284.8 108"><style>.st0{fill:#4b3c6a}.st1,.st2{fill:url(#SVGID_1_);stroke:#e462fc;stroke-width:.7}.st2{fill:url(#SVGID_2_);stroke:#db49f5}.st3{fill:#ce4dff}.st4{fill:#c438ff}.st5{fill:url(#SVGID_3_)}.st6{fill:url(#SVGID_4_);stroke:#ea77ff;stroke-width:.6}.st7{fill:url(#SVGID_5_)}.st8{fill:#df68fc}.st9{fill:#e86dff}.st10{fill:#e76efc}.st11{fill:#d660fb}.st12{fill:#d55efb}.st13{fill:#c444fa}.st14{fill:#df59ff}</style><path class="st0" d="M120.5 49.7c-1.4 0-2.7-.5-3.8-1.5-1.1-1.1-1.6-2.3-1.6-3.8 0-1.4.5-2.7 1.6-3.8 1.1-1.1 2.3-1.6 3.8-1.6h4.3c.5 0 .8-.3.8-.8v-1.7c0-7 1.6-12 4.7-15.2 3.2-3.2 8.2-4.8 15-4.8 2.2 0 4.2.1 5.9.4 1.5.2 2.8.9 3.8 2.2 1 1.3 1.5 2.7 1.5 4.2v.3c0 1.3-.5 2.4-1.6 3.2-1.1.8-2.3 1-3.6.8-.5-.1-1.2-.1-2.2-.1-3.1 0-5.2.6-6.2 1.8-1 1.2-1.5 3.6-1.5 7.1v1.8c0 .6.3.8.9.8h7.9c1.4 0 2.7.5 3.8 1.6 1.1 1.1 1.6 2.3 1.6 3.8 0 1.4-.5 2.7-1.6 3.8-1.1 1-2.3 1.5-3.8 1.5h-7.9c-.6 0-.9.3-.9.8v30.2c0 1.4-.5 2.7-1.6 3.8-1.1 1.1-2.3 1.6-3.8 1.6h-5c-1.4 0-2.7-.5-3.8-1.6-1.1-1.1-1.6-2.3-1.6-3.8V50.5c0-.6-.3-.8-.8-.8h-4.3zm48.4 36.4c-1.4 0-2.7-.5-3.8-1.6-1.1-1.1-1.6-2.3-1.6-3.8V20.9c0-1.4.5-2.7 1.6-3.8 1.1-1.1 2.3-1.6 3.8-1.6h5.3c1.4 0 2.7.5 3.8 1.6 1.1 1.1 1.6 2.3 1.6 3.8v59.8c0 1.4-.5 2.7-1.6 3.8-1.1 1.1-2.3 1.6-3.8 1.6h-5.3zm33.5.9c-5.5 0-9.6-1.5-12.1-4.6-2.5-3.1-3.7-8.3-3.7-15.8V42.5c0-1.4.5-2.7 1.6-3.8 1.1-1.1 2.3-1.6 3.8-1.6h4.2c1.4 0 2.7.5 3.8 1.6 1.1 1.1 1.6 2.3 1.6 3.8v23c0 3.6.5 6.1 1.4 7.5 1 1.3 2.7 2 5.1 2 2.2 0 4.2-.9 6-2.6 1.8-1.8 2.7-3.8 2.7-5.8V42.5c0-1.4.5-2.7 1.6-3.8 1.1-1.1 2.3-1.6 3.8-1.6h4.5c1.4 0 2.7.5 3.8 1.6 1.1 1.1 1.6 2.3 1.6 3.8v38.2c0 1.4-.5 2.7-1.6 3.8-1.1 1.1-2.3 1.6-3.8 1.6h-3.9c-1.5 0-2.8-.5-3.9-1.5-1-1.1-1.5-2.4-1.6-3.9V80c0-.1 0-.1-.1-.1l-.2.2c-4 4.6-8.9 6.9-14.6 6.9zm42.2-.9c-1.4 0-2.7-.5-3.8-1.6-1-1.1-1.5-2.3-1.5-3.8V20.9c0-1.4.5-2.7 1.5-3.8 1.1-1.1 2.3-1.6 3.8-1.6h4.6c1.4 0 2.7.5 3.7 1.6 1.1 1.1 1.6 2.3 1.6 3.8v34.7c0 .1 0 .1.1.1l.2-.1 11.8-14.3c2.3-2.8 5.2-4.1 8.7-4.1h6.8c1 0 1.7.5 2.2 1.4.5.9.4 1.8-.3 2.6l-16.2 18.9c-.3.4-.3.8 0 1.2L284.2 82c.6.9.7 1.8.2 2.7-.4.9-1.2 1.4-2.3 1.4h-6.8c-3.5 0-6.4-1.4-8.6-4.2l-11.9-15.4c-.1-.1-.1-.1-.2-.1s-.1 0-.1.1v14.3c0 1.4-.5 2.7-1.6 3.8-1 1.1-2.2 1.6-3.7 1.6h-4.6z"/><linearGradient id="SVGID_1_" gradientUnits="userSpaceOnUse" x1="20.645" y1="56.324" x2="74.959" y2="59.04" gradientTransform="matrix(1 0 0 -1 0 110)"><stop offset="0" stop-color="#e36afb"/><stop offset="1" stop-color="#ec74fc"/></linearGradient><path class="st1" d="M48.3 44.5L9.8 51.4c15.2 3 27.3 7 32 9 12.7-1.4 39.1-4.2 37.5-4.8-.8-.3-20.6-6.7-31-11.1z"/><linearGradient id="SVGID_2_" gradientUnits="userSpaceOnUse" x1="32.488" y1="21.488" x2="48.27" y2="17.472" gradientTransform="matrix(1 0 0 -1 0 110)"><stop offset="0" stop-color="#d159fb"/><stop offset="1" stop-color="#d45cfb"/></linearGradient><path class="st2" d="M36.7 98.8l-4.3-27.1h.1c.4.1.9.4 1.5.6 1.2.5 2.8 1.3 4.6 2.1 3.4 1.6 7.2 3.4 9.5 4.5-.6 3.8-1.9 9.9-3.4 15.4-.8 2.8-1.6 5.5-2.3 7.6-.4 1.1-.7 2-1.1 2.7-.3.8-.6 1.3-.9 1.6-.4.5-.8.8-1 .8-.2 0-.5 0-.8-.5-.3-.5-.7-1.3-1-2.6-.3-1.2-.6-2.9-.9-5.1z"/><path class="st3" d="M33.1 73.3L45 78.2l-10.3 5.4-1.6-10.3z"/><path class="st4" d="M45.1 78.2s-.1 0 0 0l-11.5-1.6-.5-3.3c4.2 1.8 11.1 4.7 12 4.9z"/><linearGradient id="SVGID_3_" gradientUnits="userSpaceOnUse" x1="10.217" y1="53.362" x2="46.692" y2="38.239" gradientTransform="matrix(1 0 0 -1 0 110)"><stop offset="0" stop-color="#dc64fb"/><stop offset="1" stop-color="#de65fb"/></linearGradient><path class="st5" d="M33.1 56.8c-7.7-2.6-19-5.2-22.3-5.7L9.6 51l.2 12c0 2.2-.1 3.7 2.7 4.5 15.8 4.3 25.7 8 35.8 12.2l1.6-9.2c.5-2.7 0-5.4-2.2-7.3-2.8-2.6-6.4-3.7-14.6-6.4z"/><linearGradient id="SVGID_4_" gradientUnits="userSpaceOnUse" x1="3.68" y1="89.921" x2="89.993" y2="97.254" gradientTransform="matrix(1 0 0 -1 0 110)"><stop offset="0" stop-color="#f279fc"/><stop offset="1" stop-color="#fc83fc"/></linearGradient><path class="st6" d="M88.3 23.8c-1.1 1.2-2.4 2.3-4.2 3-1.8.7-4 1-7 .7-19-2.2-30.4-2.8-35.9-2.7-1.3 0-3.5-.3-6.4-1-2.8-.6-6.3-1.5-10-2.5-2.6-.7-5.4-1.4-8.2-2.2-4.9-1.3-10-2.7-14.7-3.9C23.9 6.8 46.3.7 78.4.3c12.5-.1 18.3 14.4 9.9 23.5z"/><linearGradient id="SVGID_5_" gradientUnits="userSpaceOnUse" x1="1.821" y1="85.862" x2="84.377" y2="62.507" gradientTransform="matrix(1 0 0 -1 0 110)"><stop offset="0" stop-color="#eb72fc"/><stop offset="1" stop-color="#f178fc"/></linearGradient><path class="st7" d="M82 39.3c-10.9-6.5-79.8-25-80.9-23.9-2.2 3.8-.5 13.6 0 15.8.4 1.6 1.6 2.6 2.7 2.7 34.7 6.4 52.1 14.1 76 22.3 1.1.4 4.4-10.3 4.3-14.1.1-1.3-.4-1.9-2.1-2.8z"/><path class="st8" d="M47.9 45l31.4 11-41.8-9.2L47.9 45z"/><path class="st9" d="M23.6 20.5l4.6 1.1c-1.7-.4-3.2-.8-4.6-1.1L1.1 15.2c5.1-2 14.7-5.4 19-6C23 8.9-1 14.1 23.6 20.5z"/><path class="st10" d="M23.4 20.4l16.3 4.7h9.8l-26.1-4.7z"/><path class="st11" d="M11.4 51.1l13 3.1c-4.3-3.3-6.2-3.9 1.6-5.2l-14.6 2.1z"/><path class="st12" d="M47.9 45l31.4 11-35.9-10.4 4.5-.6z"/><path class="st13" d="M11.4 51.1l5.4 1.3c-2.2-1.1-3.8-.9-2.2-1.7l-3.2.4z"/><path class="st14" d="M3.3 14.4l-2.2.8L19 19.3 3.3 14.4z"/></svg>