<svg data-name="Layer 1" xmlns="http://www.w3.org/2000/svg" viewBox="0 0 700 700"><title>yan-favs</title><path d="M440 444.3v-39.68a28.64 28.64 0 0 0-11.33 22.81v16.87a63.3 63.3 0 0 1-46 60.92v11.71A74.87 74.87 0 0 0 440 444.3zm-30.67-198.87H398v130.44a79.66 79.66 0 0 1 11.33-10.7z"/><path d="M578 261.8a59.32 59.32 0 0 0-42 56.77v16.86a32.69 32.69 0 0 1-16.18 28.19 1.92 1.92 0 0 1-.31.18 32.5 32.5 0 0 1-16.18 4.3h-46A59.4 59.4 0 0 0 398 427.43v16.87a32.77 32.77 0 0 1-15.33 27.7v12.78a44.08 44.08 0 0 0 26.66-40.45v-16.9a48.06 48.06 0 0 1 48-48h46a44 44 0 0 0 44-44v-16.86A48.08 48.08 0 0 1 578 273.8zm-195.33-16.37v157.29A78.43 78.43 0 0 1 394 380.84V245.43zm30.66 0v116.82a78.57 78.57 0 0 1 11.34-6.35V245.43zm15.34 0V354.2a77.07 77.07 0 0 1 11.33-3.49V245.43z"/><path d="M382.67 467.13A28.81 28.81 0 0 0 394 444.3v-16.87a63.4 63.4 0 0 1 63.33-63.33h46a28.54 28.54 0 0 0 13.34-3.3v-8h-59.34a74.74 74.74 0 0 0-74.66 74.66zm168.66 50.3h11.34V387a79.14 79.14 0 0 1-11.34 10.69zm26.67 0V360.15A78.56 78.56 0 0 1 566.67 382v135.4z"/><path d="M578 295.74a28.78 28.78 0 0 0-11.33 22.83v16.86a63.41 63.41 0 0 1-63.34 63.34h-46a28.41 28.41 0 0 0-13.33 3.3v8h59.34A74.75 74.75 0 0 0 578 335.43zm-46 221.69V408.67a78.65 78.65 0 0 1-11.33 3.48v105.28zm15.33 0V400.61A78 78 0 0 1 536 407v110.43z"/><path d="M578 278.12a44.09 44.09 0 0 0-26.67 40.45v16.86a48.05 48.05 0 0 1-48 48h-46a44.05 44.05 0 0 0-44 44v16.87a48.08 48.08 0 0 1-30.66 44.77v12a59.31 59.31 0 0 0 42-56.76v-16.88a32.67 32.67 0 0 1 16.18-28.18l.28-.16a32.38 32.38 0 0 1 16.2-4.32h46a59.41 59.41 0 0 0 59.34-59.34v-16.86A32.79 32.79 0 0 1 578 290.89zm-381.34 74.65A74.74 74.74 0 0 0 122 427.43v53.5a28.81 28.81 0 0 0 11.33-22.83v-30.67a63.4 63.4 0 0 1 63.34-63.33h76.66a28.54 28.54 0 0 0 13.34-3.3v-8h-90z"/><path d="M348 278.12a44.09 44.09 0 0 0-26.67 40.45v16.86a48.05 48.05 0 0 1-48 48h-76.66a44.05 44.05 0 0 0-44 44v30.67A48.09 48.09 0 0 1 122 502.87v12a59.29 59.29 0 0 0 42-56.76v-30.68a32.7 32.7 0 0 1 32.67-32.66h76.66a59.41 59.41 0 0 0 59.34-59.34v-16.86A32.79 32.79 0 0 1 348 290.89zm34.2-94.02H242.66a105.3 105.3 0 0 0-80.83 172.83 77.88 77.88 0 0 1 11.1-4.5 94 94 0 0 1 69.74-157H382.2a44.08 44.08 0 0 0 40.45-26.66h-12.78a32.77 32.77 0 0 1-27.67 15.33z"/><path d="M164 289.43a78.76 78.76 0 0 1 78.67-78.66H382.2a59.31 59.31 0 0 0 56.76-42H427a48.09 48.09 0 0 1-44.77 30.66H242.67a90 90 0 0 0-65.43 151.77 78.72 78.72 0 0 1 14-2.23A78 78 0 0 1 164 289.43zm184-27.63a59.32 59.32 0 0 0-42 56.77v16.86a32.69 32.69 0 0 1-16.18 28.19 1.65 1.65 0 0 1-.32.18 32.46 32.46 0 0 1-16.17 4.3h-76.66a59.41 59.41 0 0 0-59.34 59.33v30.67A32.77 32.77 0 0 1 122 485.77v12.78a44.09 44.09 0 0 0 26.67-40.45v-30.67a48.06 48.06 0 0 1 48-48h76.66a44 44 0 0 0 44-44v-16.86A48.08 48.08 0 0 1 348 273.8z"/><path d="M348 245.94a74.87 74.87 0 0 0-57.33 72.63v39.68A28.66 28.66 0 0 0 302 335.43v-16.86a63.28 63.28 0 0 1 46-60.92z"/><path d="M365.33 226.1h16.87a74.87 74.87 0 0 0 72.63-57.33h-11.71a63.3 63.3 0 0 1-60.92 46H242.66a74.67 74.67 0 0 0-45.32 134h23.19a63.33 63.33 0 0 1 22.14-122.67zM578 245.94a74.87 74.87 0 0 0-57.33 72.63v39.68A28.66 28.66 0 0 0 532 335.43v-16.86a63.28 63.28 0 0 1 46-60.92zM348 517.43V360.15A78.56 78.56 0 0 1 336.67 382v135.4zm0-221.69a28.78 28.78 0 0 0-11.33 22.83v16.86a63.41 63.41 0 0 1-63.34 63.34h-76.66A28.7 28.7 0 0 0 168 427.43v30.67a63.3 63.3 0 0 1-46 60.9v11.71a74.87 74.87 0 0 0 57.33-72.63v-30.65a17.36 17.36 0 0 1 17.34-17.33h76.66A74.75 74.75 0 0 0 348 335.43z"/><path d="M148.71 365.14a78.7 78.7 0 0 1 9.51-6.3 109.3 109.3 0 0 1 84.45-178.74H382.2a28.8 28.8 0 0 0 22.8-11.33H242.66a120.66 120.66 0 0 0-93.95 196.37zm172.62 152.29h11.34V387a79.77 79.77 0 0 1-11.34 10.7zm-19.33 0V408.67a78.65 78.65 0 0 1-11.33 3.48v105.28zm15.33 0V400.61A78 78 0 0 1 306 407v110.43z"/></svg>