<svg width="87" height="69" viewBox="0 0 87 69" fill="none" xmlns="http://www.w3.org/2000/svg"><path d="M28.8 32.4c3.333 1.467 5.933 3.667 7.8 6.6s2.8 6.4 2.8 10.4c0 5.733-1.8 10.4-5.4 14-3.6 3.467-8.2 5.2-13.8 5.2-5.6 0-10.267-1.8-14-5.4C2.6 59.6.8 55 .8 49.4c0-2.667.333-5.333 1-8s2.133-6.667 4.4-12L17.8.6h19.8l-8.8 31.8zm47.2 0c3.333 1.467 5.933 3.667 7.8 6.6s2.8 6.4 2.8 10.4c0 5.733-1.8 10.4-5.4 14-3.6 3.467-8.2 5.2-13.8 5.2-5.6 0-10.267-1.8-14-5.4C49.8 59.6 48 55 48 49.4c0-2.667.333-5.333 1-8s2.133-6.667 4.4-12L65 .6h19.8L76 32.4z" fill="#30D5C8"/></svg>