<svg width="61" height="48" viewBox="0 0 61 48" fill="none" xmlns="http://www.w3.org/2000/svg"><path d="M14.48 0c3.92 0 7.14 1.26 9.66 3.78 2.52 2.427 3.78 5.647 3.78 9.66a23.01 23.01 0 0 1-.7 5.6c-.467 1.867-1.447 4.667-2.94 8.4L16.16 47.6H2.3l6.02-22.12c-2.333-1.027-4.153-2.567-5.46-4.62C1.553 18.807.9 16.333.9 13.44c0-4.013 1.26-7.233 3.78-9.66C7.293 1.26 10.56 0 14.48 0zm33.04 0c3.92 0 7.14 1.26 9.66 3.78 2.52 2.427 3.78 5.647 3.78 9.66a23.01 23.01 0 0 1-.7 5.6c-.467 1.867-1.447 4.667-2.94 8.4L49.2 47.6H35.34l6.02-22.12c-2.333-1.027-4.153-2.567-5.46-4.62-1.307-2.053-1.96-4.527-1.96-7.42 0-4.013 1.26-7.233 3.78-9.66C40.333 1.26 43.6 0 47.52 0z" fill="#30D5C8" fill-opacity=".5"/></svg>