<svg width="18" height="17" viewBox="0 0 18 17" fill="none" xmlns="http://www.w3.org/2000/svg"><path d="M13.313 1.193C13.17.513 12.543 0 11.793 0a.304.304 0 0 0-.31.298c0 .165.138.298.31.298.513 0 .931.402.931.895 0 .494-.418.895-.93.895a.304.304 0 0 0-.311.298c0 .165.138.298.31.298.75 0 1.376-.513 1.52-1.193h4.066v2.685H.621V1.789h5.275c.172 0 .31-.133.31-.298a.304.304 0 0 0-.31-.298h-.563a.928.928 0 0 1 .874-.597c.513 0 .93.402.93.895 0 .494-.417.895-.93.895a.304.304 0 0 0-.31.298c0 .165.138.298.31.298.856 0 1.552-.669 1.552-1.49C7.759.668 7.063 0 6.207 0c-.75 0-1.376.513-1.52 1.193H0V17h18V1.193h-4.687zm4.066 15.21H.621V5.07h16.758v11.334z" fill="#B9B9B9"/><path d="M8.069.596c.513 0 .93.402.93.895 0 .494-.417.895-.93.895a.304.304 0 0 0-.31.298c0 .165.138.298.31.298.856 0 1.552-.669 1.552-1.49C9.62.668 8.925 0 8.069 0a.304.304 0 0 0-.31.298c0 .165.138.298.31.298z" fill="#B9B9B9"/><path d="M9.93.596c.514 0 .932.402.932.895 0 .494-.418.895-.931.895a.304.304 0 0 0-.31.298c0 .165.138.298.31.298.856 0 1.552-.669 1.552-1.49C11.483.668 10.787 0 9.93 0a.304.304 0 0 0-.31.298c0 .165.138.298.31.298zm-3.102 6.86c.171 0 .31-.133.31-.298a.304.304 0 0 0-.31-.298.304.304 0 0 0-.31.298c0 .165.138.298.31.298zm2.172 0c.171 0 .31-.133.31-.298A.304.304 0 0 0 9 6.86a.304.304 0 0 0-.31.298c0 .165.139.298.31.298zm2.172 0c.172 0 .31-.133.31-.298a.305.305 0 0 0-.31-.298.304.304 0 0 0-.31.298c0 .165.139.298.31.298zm2.173 0c.171 0 .31-.133.31-.298a.304.304 0 0 0-.31-.298.305.305 0 0 0-.31.298c0 .165.138.298.31.298zm2.172 0c.171 0 .31-.133.31-.298a.305.305 0 0 0-.31-.298.304.304 0 0 0-.31.298c0 .165.139.298.31.298zM2.483 9.842c.171 0 .31-.133.31-.298a.304.304 0 0 0-.31-.298.304.304 0 0 0-.31.298c0 .165.138.298.31.298zm2.172 0c.171 0 .31-.133.31-.298a.304.304 0 0 0-.31-.298.304.304 0 0 0-.31.298c0 .165.139.298.31.298zm2.173 0c.171 0 .31-.133.31-.298a.304.304 0 0 0-.31-.298.304.304 0 0 0-.31.298c0 .165.138.298.31.298zm2.172 0c.171 0 .31-.133.31-.298A.304.304 0 0 0 9 9.246a.304.304 0 0 0-.31.298c0 .165.139.298.31.298zm2.172 0c.172 0 .31-.133.31-.298a.305.305 0 0 0-.31-.298.304.304 0 0 0-.31.298c0 .165.139.298.31.298zm2.173 0c.171 0 .31-.133.31-.298a.304.304 0 0 0-.31-.298.305.305 0 0 0-.31.298c0 .165.138.298.31.298zm2.172 0c.171 0 .31-.133.31-.298a.305.305 0 0 0-.31-.298.304.304 0 0 0-.31.298c0 .165.139.298.31.298zM2.483 11.93c.171 0 .31-.134.31-.298a.304.304 0 0 0-.31-.299.304.304 0 0 0-.31.299c0 .164.138.298.31.298zm2.172 0c.171 0 .31-.134.31-.298a.304.304 0 0 0-.31-.299.304.304 0 0 0-.31.299c0 .164.139.298.31.298zm2.173 0c.171 0 .31-.134.31-.298a.304.304 0 0 0-.31-.299.304.304 0 0 0-.31.299c0 .164.138.298.31.298zm2.172 0c.171 0 .31-.134.31-.298a.304.304 0 0 0-.31-.299.304.304 0 0 0-.31.299c0 .164.139.298.31.298zm2.172 0c.172 0 .31-.134.31-.298a.304.304 0 0 0-.31-.299.304.304 0 0 0-.31.299c0 .164.139.298.31.298zm2.173 0c.171 0 .31-.134.31-.298a.304.304 0 0 0-.31-.299.304.304 0 0 0-.31.299c0 .164.138.298.31.298zm2.172 0c.171 0 .31-.134.31-.298a.304.304 0 0 0-.31-.299.304.304 0 0 0-.31.299c0 .164.139.298.31.298zM2.483 14.316c.171 0 .31-.134.31-.299a.305.305 0 0 0-.31-.298.305.305 0 0 0-.31.299c0 .164.138.298.31.298zm2.172 0c.171 0 .31-.134.31-.299a.305.305 0 0 0-.31-.298.305.305 0 0 0-.31.299c0 .164.139.298.31.298zm2.173 0c.171 0 .31-.134.31-.299a.305.305 0 0 0-.31-.298.305.305 0 0 0-.31.299c0 .164.138.298.31.298zm2.172 0c.171 0 .31-.134.31-.299A.305.305 0 0 0 9 13.72a.305.305 0 0 0-.31.299c0 .164.139.298.31.298zm2.172 0c.172 0 .31-.134.31-.299a.305.305 0 0 0-.31-.298.304.304 0 0 0-.31.299c0 .164.139.298.31.298z" fill="#B9B9B9"/></svg>