<svg width="14" height="20" viewBox="0 0 14 20" fill="none" xmlns="http://www.w3.org/2000/svg"><path d="M12.2 0H1.8C.803 0 0 .653 0 1.457v17.088C0 19.348.804 20 1.8 20h10.4c.995 0 1.8-.652 1.8-1.455V1.457C14 .653 13.195 0 12.2 0zM4.434.885h5.135c.13 0 .236.156.236.35 0 .194-.106.352-.236.352H4.433c-.13 0-.234-.158-.234-.352 0-.194.104-.35.234-.35zm2.568 17.677c-.633 0-1.149-.417-1.149-.93 0-.513.516-.928 1.149-.928.631 0 1.147.415 1.147.928 0 .513-.516.93-1.147.93zm5.651-3.184H1.35V2.458h11.303v12.92z" fill="#212121"/></svg>