<svg width="18" height="18" viewBox="0 0 18 18" fill="none" xmlns="http://www.w3.org/2000/svg"><path d="M17.281 15.04l-3.572-3.496A6.874 6.874 0 0 0 15 7.478c0-.971-.193-1.9-.578-2.787A7.161 7.161 0 0 0 12.859 2.4 7.343 7.343 0 0 0 10.516.87a7.345 7.345 0 0 0-2.85-.566c-.992 0-1.942.189-2.848.566a7.343 7.343 0 0 0-2.344 1.529A7.164 7.164 0 0 0 .912 4.69a6.918 6.918 0 0 0-.579 2.787c0 .972.193 1.9.579 2.787a7.157 7.157 0 0 0 1.562 2.293 7.346 7.346 0 0 0 2.344 1.529 7.345 7.345 0 0 0 2.849.565c1.528 0 2.913-.421 4.156-1.263l3.573 3.485c.25.258.562.387.938.387.36 0 .673-.13.937-.387a1.24 1.24 0 0 0 .396-.917c0-.36-.129-.666-.386-.918zm-6.317-4.337c-.914.894-2.012 1.34-3.297 1.34-1.285 0-2.384-.446-3.297-1.34C3.457 9.81 3 8.735 3 7.478c0-1.256.457-2.332 1.37-3.225.913-.893 2.012-1.34 3.297-1.34 1.284 0 2.383.447 3.297 1.34.913.893 1.37 1.969 1.37 3.225 0 1.257-.457 2.332-1.37 3.225z" fill="#7C8287"/></svg>