<svg width="13" height="17" viewBox="0 0 13 17" fill="none" xmlns="http://www.w3.org/2000/svg"><path fill-rule="evenodd" clip-rule="evenodd" d="M1.804 15.846S2.068 17 3.427 17h6.146c1.359 0 1.623-1.154 1.623-1.154l1.213-11.313H.591l1.213 11.313zm7.06-9.613a.58.58 0 0 1 .59-.566.58.58 0 0 1 .591.566l-.59 8.5a.58.58 0 0 1-.591.567.58.58 0 0 1-.591-.567l.59-8.5zm-2.955 0a.58.58 0 0 1 .591-.566.58.58 0 0 1 .59.566v8.5a.58.58 0 0 1-.59.567.58.58 0 0 1-.59-.567v-8.5zm-2.364-.566a.58.58 0 0 1 .591.566l.591 8.5a.58.58 0 0 1-.59.567.58.58 0 0 1-.592-.567l-.59-8.5a.58.58 0 0 1 .59-.566zm8.51-3.4h-2.6V1.134C9.455.273 9.165 0 8.273 0H4.727C3.91 0 3.545.38 3.545 1.133v1.135h-2.6c-.522 0-.945.38-.945.85s.423.85.945.85h11.11c.522 0 .945-.38.945-.85s-.423-.85-.945-.85zm-3.782 0H4.727V1.134h3.546v1.135z" fill="#fff"/></svg>