<svg xmlns="http://www.w3.org/2000/svg" width="48" height="46" viewBox="0 0 48 46"><defs><style>.cls-1{fill:#3dc054;fill-rule:evenodd}</style></defs><path id="icon" class="cls-1" d="M17.6 30.457H9.47a.932.932 0 1 0 0 1.864h8.13a.932.932 0 1 0 0-1.864zm30.065 3.691l-7.385-7.339a11.748 11.748 0 0 0-1.639-16.687v-7.63a2.5 2.5 0 0 0-2.5-2.486H2.589a2.5 2.5 0 0 0-2.5 2.486v41.015a2.5 2.5 0 0 0 2.5 2.486H36.14a2.5 2.5 0 0 0 2.5-2.486V28.42c.112-.09.214-.188.322-.282l7.377 7.329a.943.943 0 0 0 1.328 0 .928.928 0 0 0 .001-1.319zm-18.803-9.905h-6.385a9.8 9.8 0 0 1-1.323-4.35h7.707a.932.932 0 1 0 0-1.864h-7.652a9.845 9.845 0 0 1 1.653-4.35h6a.932.932 0 1 0 0-1.864h-4.329a10.016 10.016 0 0 1 12.231-.756v16.424a10.02 10.02 0 0 1-12.883-1.376h4.98a.932.932 0 1 0 .001-1.864zm7.278 19.886H2.589a.632.632 0 0 1-.626-.621V2.492a.632.632 0 0 1 .626-.621h33.55a.632.632 0 0 1 .625.621v6.381a11.939 11.939 0 0 0-14.844 2.941H9.47a.932.932 0 1 0 0 1.864h11.193a11.679 11.679 0 0 0-1.351 4.35H9.47a.932.932 0 1 0 0 1.864h9.807a11.658 11.658 0 0 0 1.084 4.35H9.47a.932.932 0 1 0 0 1.864h11.982a11.926 11.926 0 0 0 15.313 3.562v13.839a.632.632 0 0 1-.625.622zm2.5-18.306v-13.1a9.836 9.836 0 0 1 .001 13.099z"/></svg>