<svg width="21" height="22" viewBox="0 0 21 22" xmlns="http://www.w3.org/2000/svg"><title>50EA42BC-6247-4859-A7F1-78BD3AA547CE</title><path d="M20.761 13.398H18.08a.239.239 0 0 0-.24.239v2.444h-2.443a.239.239 0 0 0-.24.239v2.444h-2.443a.239.239 0 0 0-.239.239v2.682c0 .132.107.239.239.239h8.048a.239.239 0 0 0 .239-.239v-8.048a.239.239 0 0 0-.239-.24zm-2.444 3.16h2.206v2.205h-2.206v-2.205zm0-2.683h2.206v2.206h-2.206v-2.206zm-2.683 2.683h2.206v2.205h-2.206v-2.205zM12.95 19.24h2.206v2.205H12.95V19.24zm2.683 0h2.206v2.205h-2.206V19.24zm4.889 2.205h-2.206V19.24h2.206v2.205zM8.01 20.74H6.887V3.9h9.354l.006 5.573h-1.104a.24.24 0 0 0-.238.24v2.686c0 .133.106.24.238.24h2.685a.24.24 0 0 0 .239-.24V9.712a.239.239 0 0 0-.24-.24h-1.103l-.006-5.571h2.537c.38 0 .69-.328.69-.73 0-.403-.31-.731-.69-.731h-4.974L6.425.614C6.372.267 6.09 0 5.747 0c-.36 0-.652.293-.684.665L1.987 2.44H.69c-.38 0-.69.328-.69.73 0 .403.31.73.69.73h.18v.793c0 .402.31.73.69.73h.902c.38 0 .69-.328.69-.73V3.9h1.453v16.84H3.498c-.38 0-.69.327-.69.73v.29c0 .133.108.24.24.24H8.47a.239.239 0 0 0 .239-.24v-.29c0-.403-.313-.73-.699-.73zm9.58-8.58h-2.208V9.951h2.207v2.21zm1.877-8.99c0 .14-.095.253-.212.253H6.887v-.505h12.368c.117 0 .212.113.212.252zm-12.58-.73v-.252a.728.728 0 0 0-.45-.682v-.399L12.24 2.44H6.887zM5.747.478c.117 0 .212.114.212.253v.727h-.425V.73c0-.139.095-.252.213-.252zm-.69.743v.285a.729.729 0 0 0-.452.682v.252H2.943l2.114-1.22zM2.675 4.693c0 .138-.096.252-.213.252H1.56c-.117 0-.213-.114-.213-.252V3.9h1.328v.792zM.69 3.423c-.117 0-.213-.114-.213-.253s.096-.252.213-.252h3.916v.504H.69zm4.393-1.235c0-.139.095-.252.212-.252h.903c.117 0 .212.113.212.252v1.466l-.001.008.001.008v17.07H5.083V2.188zm3.149 19.334H3.286v-.052c0-.139.096-.252.212-.252h4.513c.12 0 .221.115.221.252v.052z" fill="#222"/></svg>