<svg width="90" height="61" viewBox="0 0 90 61" xmlns="http://www.w3.org/2000/svg" xmlns:xlink="http://www.w3.org/1999/xlink"><title>019255FC-0DD9-46E0-A086-3B8A6D411426</title><defs><path id="a" d="M.136.087h30.531v26.505H.136V.087z"/><path id="c" d="M89.892 10.845V.268H0v10.577h89.892z"/></defs><g fill="none" fill-rule="evenodd"><path d="M42.985 26.404l.033.026c.322.253.627.522.863.756a6.86 6.86 0 0 1 2.614.305c.88.287 1.68.765 2.336 1.438a5.375 5.375 0 0 1 1.34 2.336c.05.178.09.36.122.542l3.796-2.186a4.868 4.868 0 0 1-1.158-.9 5.435 5.435 0 0 1-1.168-1.924 49.433 49.433 0 0 0-8.778-.393m-10.489 1.763l10.834 6.237h.001c.39.225.807.337 1.224.337v.002a2.45 2.45 0 0 0 1.227-.338l.831-.479a5.652 5.652 0 0 1-1.912-1.282 5.375 5.375 0 0 1-1.34-2.336 6.08 6.08 0 0 1-.107-2.69 9.834 9.834 0 0 0-.7-.6 7.785 7.785 0 0 0-.777-.544c-.984.069-1.95.168-2.891.295a38.909 38.909 0 0 0-6.39 1.398m6.568-3.41a2.413 2.413 0 0 1-.085-.26 3.077 3.077 0 0 1-.092-.909l-.093.001a10.098 10.098 0 0 1-4.814-1.212 6.09 6.09 0 0 1-2.694.87c-.713.056-1.405-.02-1.996-.225v1.887c0 .418.095.807.274 1.146a42.076 42.076 0 0 1 6.013-1.063 47.38 47.38 0 0 1 3.487-.235m2.575-.013a3.788 3.788 0 0 1-.173-.348 4.566 4.566 0 0 1-.31-1.076c-.47.109-.95.186-1.442.229-.016.273.003.52.062.74.044.164.11.314.2.449a51.31 51.31 0 0 1 1.663.006" fill="#FEFEFE"/><g transform="translate(29.155 .229)"><mask id="b" fill="#fff"><use xlink:href="#a"/></mask><path d="M19.273 24.202a7.046 7.046 0 0 0-1.033.76c1.579.216 3.107.504 4.572.856a6.107 6.107 0 0 1 2.253-.894 5.107 5.107 0 0 1 2.441.162 4.84 4.84 0 0 1 2.24 1.506c.249-.194.451-.425.602-.686.208-.359.32-.776.32-1.226h-.002V9.92c0-.451-.11-.868-.318-1.226v-.002a2.437 2.437 0 0 0-.907-.888L16.627.423h-.001A2.446 2.446 0 0 0 15.4.087c-.417 0-.834.113-1.224.337h-.001L1.358 7.804c-.39.225-.697.529-.905.888v.002A2.428 2.428 0 0 0 .136 9.92v7.483c.5 1.03 1.293 1.954 2.259 2.66a7.504 7.504 0 0 0 1.957 1.032 10.273 10.273 0 0 1 2.232-6.826 10.372 10.372 0 0 1 5.262-3.515 3.643 3.643 0 0 1 .773-4.029 3.657 3.657 0 0 1 2.59-1.07 3.651 3.651 0 0 1 2.616 1.099c.114-.15.22-.307.32-.473.17-.287.314-.599.423-.945a.413.413 0 0 1 .788.245 5.301 5.301 0 0 1-.617 1.303 4.077 4.077 0 0 1 1.406.327.41.41 0 1 1-.323.757 3.253 3.253 0 0 0-1.302-.265 10.78 10.78 0 0 1 1.045 2.295 9.87 9.87 0 0 1 .47 2.993c0 2.864-1.164 5.456-3.045 7.332a10.397 10.397 0 0 1-4.189 2.548c.052.359.14.684.265.971.114.263.262.499.446.705 1.283.052 2.544.151 3.776.295a7.767 7.767 0 0 1 1.587-1.27 5.851 5.851 0 0 1 .715-2.326 5.626 5.626 0 0 1 1.765-1.918 5.918 5.918 0 0 1 2.467-.953c.9-.132 1.83-.066 2.724.184a.374.374 0 0 1 .273.381 5.88 5.88 0 0 1-.731 2.538 5.634 5.634 0 0 1-1.765 1.918 5.918 5.918 0 0 1-2.467.953 6.557 6.557 0 0 1-2.583-.147" fill="#FEFEFE" mask="url(#b)"/></g><path d="M44.948 7.96a.684.684 0 1 0-.001 1.369.684.684 0 0 0 0-1.368zm-2.697 3.645c-.205-.388-.497-.872-.615-1.28a2.832 2.832 0 0 1-.109-.787 2.833 2.833 0 0 1 2.837-2.83 2.833 2.833 0 0 1 2.307 1.18c.532.785.965 1.655 1.261 2.587a9.02 9.02 0 0 1 .432 2.745 9.502 9.502 0 0 1-2.803 6.75 9.553 9.553 0 0 1-9.097 2.504 7.454 7.454 0 0 0 4.458-2.137 7.445 7.445 0 0 0 1.33-8.732zm-7.916 9.784l.01.168c.426.09.86.137 1.297.137a6.628 6.628 0 0 0 4.695-1.94 6.593 6.593 0 0 0 1.945-4.683 6.564 6.564 0 0 0-.903-3.34 9.54 9.54 0 0 0-4.993 3.279 9.451 9.451 0 0 0-2.05 6.38zm-5.046-2.188a8.422 8.422 0 0 0 1.802 1.774c.571.414 1.196.76 1.854 1.018a5.353 5.353 0 0 1-1.724.433c-.724.057-1.411-.04-1.932-.292v-2.933zm15.029 6.416a50.07 50.07 0 0 0-2.052-.11 48.207 48.207 0 0 0-6.613.228 41.52 41.52 0 0 0-5.587.964c.134.122.284.231.449.326l.019.012 1.09.627c2.178-.73 4.587-1.286 7.162-1.634a47.24 47.24 0 0 1 5.532-.413m-.356 2.312a5.288 5.288 0 0 0 .12 2.18 4.63 4.63 0 0 0 1.155 2.014 4.968 4.968 0 0 0 2.03 1.249 6.121 6.121 0 0 0 2.303.272 5.301 5.301 0 0 0-.12-2.18 4.636 4.636 0 0 0-1.155-2.015 4.967 4.967 0 0 0-2.031-1.248 6.124 6.124 0 0 0-2.302-.272m8.526-1.328c.225.61.558 1.156.985 1.605a4.094 4.094 0 0 0 1.726 1.086c.68.219 1.39.255 2.086.135a5.314 5.314 0 0 0 1.859-.711 4.665 4.665 0 0 0-.986-1.605 4.093 4.093 0 0 0-1.726-1.086 4.362 4.362 0 0 0-2.086-.135 5.308 5.308 0 0 0-1.858.711m-3.7-2.851c.7.158 1.418.19 2.114.088a5.176 5.176 0 0 0 2.157-.83 4.886 4.886 0 0 0 1.53-1.663 5.097 5.097 0 0 0 .61-1.913 5.78 5.78 0 0 0-2.113-.089c-.763.112-1.5.386-2.157.83a4.877 4.877 0 0 0-1.53 1.664 5.105 5.105 0 0 0-.611 1.913m-23.015-7.058v3.215a.6.6 0 0 1-.307.531l-2.791 1.607a.602.602 0 0 1-.615 0l-2.791-1.607a.599.599 0 0 1-.308-.531v-3.215c0-.225.112-.418.308-.53l2.79-1.608a.602.602 0 0 1 .616 0l2.79 1.607a.6.6 0 0 1 .308.531m36.37-15.085v1.71c0 .12-.06.223-.165.283l-1.484.854a.32.32 0 0 1-.328 0L58.682 3.6a.319.319 0 0 1-.164-.283v-1.71c0-.12.06-.223.164-.283L60.166.47a.32.32 0 0 1 .328 0l1.484.855a.32.32 0 0 1 .164.283m.166 32.38v2.561a.48.48 0 0 1-.245.424l-2.224 1.28a.48.48 0 0 1-.49 0l-2.224-1.28a.477.477 0 0 1-.246-.424v-2.56c0-.18.09-.334.246-.424l2.223-1.28a.48.48 0 0 1 .49 0l2.225 1.28c.156.09.245.244.245.423m9.401 26.054a.13.13 0 0 1 .098.042l.279.296a1.32 1.32 0 0 1-.511.397c-.204.09-.447.136-.728.136a1.74 1.74 0 0 1-.686-.13 1.489 1.489 0 0 1-.518-.36 1.6 1.6 0 0 1-.327-.55 2.024 2.024 0 0 1-.115-.693c0-.168.019-.329.055-.48a1.662 1.662 0 0 1 .415-.765 1.529 1.529 0 0 1 .744-.429 1.89 1.89 0 0 1 .472-.057 1.747 1.747 0 0 1 .667.124 1.431 1.431 0 0 1 .49.322l-.237.323a.217.217 0 0 1-.054.053.151.151 0 0 1-.089.024.198.198 0 0 1-.113-.04 2.712 2.712 0 0 0-.14-.089 1.038 1.038 0 0 0-.209-.089 1.079 1.079 0 0 0-.318-.04.97.97 0 0 0-.39.078.849.849 0 0 0-.306.222 1.034 1.034 0 0 0-.198.36c-.047.141-.07.302-.07.483 0 .182.026.344.076.487.051.142.12.263.209.36a.87.87 0 0 0 .309.223c.118.05.243.076.378.076.08 0 .152-.003.216-.011a.786.786 0 0 0 .486-.224.267.267 0 0 1 .054-.035.135.135 0 0 1 .06-.014zm-2.962.833h-.642a.258.258 0 0 1-.161-.05.492.492 0 0 1-.122-.148l-.649-1.102a.408.408 0 0 0-.059-.082.243.243 0 0 0-.15-.08.668.668 0 0 0-.102-.007h-.367v1.47h-.703v-3.39h.703v1.4h.306c.06 0 .114-.011.16-.033a.33.33 0 0 0 .126-.122l.686-1.06a.45.45 0 0 1 .12-.133.278.278 0 0 1 .168-.051h.602l-.88 1.347a.572.572 0 0 1-.139.15.694.694 0 0 1-.176.096c.1.026.185.069.253.129.07.06.134.144.195.251l.83 1.415zm-5.36-2.84v.872h1.134v.53h-1.133v.89h1.456v.548h-2.163v-3.388h2.163v.548h-1.456zm-1.841 2.84h-.708v-2.858h-.848c-.023.42-.055.784-.096 1.09a6.35 6.35 0 0 1-.145.781 2.422 2.422 0 0 1-.195.52 1.098 1.098 0 0 1-.238.312.712.712 0 0 1-.28.15 1.18 1.18 0 0 1-.312.04.792.792 0 0 1-.267-.032c-.055-.022-.082-.054-.082-.096v-.432h.187c.05 0 .102-.009.156-.025a.348.348 0 0 0 .16-.117c.052-.061.103-.152.152-.274.049-.121.093-.289.133-.501a8.58 8.58 0 0 0 .103-.794c.029-.317.05-.7.062-1.152h2.218v3.388zm-3.943 0h-.707v-2.858h-1.384v2.858h-.708v-3.388h2.799v3.388zm-3.931-3.388v3.388h-.621v-2.08a2.807 2.807 0 0 1 .016-.292l-.971 1.838a.26.26 0 0 1-.246.151h-.099a.275.275 0 0 1-.145-.039.268.268 0 0 1-.1-.112l-.977-1.846.012.158c.003.05.005.098.005.142v2.08h-.62v-3.388h.533c.03 0 .056 0 .08.002a.205.205 0 0 1 .062.012.148.148 0 0 1 .05.033.259.259 0 0 1 .042.063l.951 1.807a2.777 2.777 0 0 1 .157.346c.023-.063.048-.123.074-.182a2.18 2.18 0 0 1 .083-.17l.943-1.801a.236.236 0 0 1 .045-.063.16.16 0 0 1 .111-.045l.08-.002h.535zm-5.404 1.693a1.52 1.52 0 0 0-.07-.478 1.02 1.02 0 0 0-.203-.36.872.872 0 0 0-.32-.226 1.108 1.108 0 0 0-.428-.078c-.16 0-.303.025-.429.078a.873.873 0 0 0-.321.226 1.01 1.01 0 0 0-.203.36c-.047.14-.07.3-.07.478 0 .179.023.339.07.48.046.14.114.26.203.358a.877.877 0 0 0 .321.225c.126.052.27.079.429.079.159 0 .302-.027.427-.079a.876.876 0 0 0 .321-.225c.088-.098.155-.218.203-.358.046-.141.07-.301.07-.48zm.718 0c0 .248-.04.477-.124.689a1.605 1.605 0 0 1-.903.912 1.857 1.857 0 0 1-.712.132 1.87 1.87 0 0 1-.712-.132 1.607 1.607 0 0 1-.905-.912 1.858 1.858 0 0 1-.125-.69c0-.247.041-.476.125-.687.084-.211.202-.393.354-.548.153-.154.337-.275.55-.363a1.86 1.86 0 0 1 .713-.132c.26 0 .498.044.712.132.213.088.397.21.549.364.152.155.27.338.354.55.083.21.124.439.124.685zm-3.93 1.695h-.642a.258.258 0 0 1-.162-.05.487.487 0 0 1-.121-.148l-.65-1.102a.408.408 0 0 0-.058-.082.239.239 0 0 0-.15-.08.671.671 0 0 0-.103-.007h-.367v1.47H42.1v-3.39h.703v1.4h.306a.363.363 0 0 0 .16-.033.332.332 0 0 0 .126-.122l.686-1.06a.45.45 0 0 1 .12-.133.279.279 0 0 1 .168-.051h.602l-.88 1.347a.568.568 0 0 1-.139.15.687.687 0 0 1-.175.096c.1.026.184.069.253.129s.133.144.194.251l.832 1.415zm-7.732-3.895a.538.538 0 0 0 .14-.016.162.162 0 0 0 .086-.054.24.24 0 0 0 .045-.107.938.938 0 0 0 .012-.171h.382c.045 0 .079.019.1.056a.237.237 0 0 1 .03.12.38.38 0 0 1-.056.211.464.464 0 0 1-.163.153.82.82 0 0 1-.251.093c-.098.02-.206.03-.325.03-.119 0-.226-.01-.324-.03a.82.82 0 0 1-.252-.093.461.461 0 0 1-.163-.153.39.39 0 0 1-.057-.212c0-.042.01-.081.032-.12a.106.106 0 0 1 .099-.055h.382c0 .07.004.127.013.171.008.045.023.08.044.107.021.026.05.044.087.054.037.01.083.016.139.016zm1.417.507v3.388h-.708v-2.02a3.536 3.536 0 0 1 .035-.558 2.876 2.876 0 0 1-.222.465l-1.178 1.899a.502.502 0 0 1-.211.196.258.258 0 0 1-.098.018h-.529v-3.388h.707v2.02c0 .084-.002.172-.007.265a3.24 3.24 0 0 1-.028.293 2.738 2.738 0 0 1 .222-.465l1.178-1.9a.671.671 0 0 1 .128-.145.347.347 0 0 1 .084-.05.249.249 0 0 1 .097-.018h.53zm-4.568 1.693a1.52 1.52 0 0 0-.07-.478 1.014 1.014 0 0 0-.203-.36.873.873 0 0 0-.32-.226 1.107 1.107 0 0 0-.428-.078c-.16 0-.303.025-.429.078a.876.876 0 0 0-.322.226 1.02 1.02 0 0 0-.202.36c-.047.14-.07.3-.07.478 0 .179.023.339.07.48.046.14.115.26.202.358a.88.88 0 0 0 .322.225c.126.052.27.079.429.079.159 0 .302-.027.427-.079a.877.877 0 0 0 .321-.225c.088-.098.156-.218.203-.358.046-.141.07-.301.07-.48zm.719 0c0 .248-.042.477-.125.689a1.615 1.615 0 0 1-.354.548 1.632 1.632 0 0 1-.55.364 1.857 1.857 0 0 1-.711.132c-.261 0-.498-.045-.712-.132a1.603 1.603 0 0 1-.905-.912 1.864 1.864 0 0 1-.126-.69c0-.247.043-.476.126-.687a1.613 1.613 0 0 1 .905-.911c.214-.088.451-.132.712-.132.26 0 .498.044.712.132.213.088.397.21.55.364.151.155.27.338.353.55.083.21.125.439.125.685zm-4.419 1.695h-.707v-2.858h-.847a15.3 15.3 0 0 1-.096 1.09c-.04.307-.09.567-.146.781a2.389 2.389 0 0 1-.195.52 1.087 1.087 0 0 1-.239.312.71.71 0 0 1-.278.15c-.1.027-.204.04-.313.04a.79.79 0 0 1-.267-.032c-.055-.022-.082-.054-.082-.096v-.432h.187c.05 0 .102-.009.156-.025a.348.348 0 0 0 .16-.117c.052-.061.103-.152.152-.274.049-.121.093-.289.133-.501.04-.213.074-.477.103-.794.029-.317.05-.7.062-1.152h2.217v3.388zm-3.942-3.388v3.388h-.708v-2.02a4.924 4.924 0 0 1 .036-.558 2.876 2.876 0 0 1-.223.465l-1.178 1.899a.502.502 0 0 1-.127.145.341.341 0 0 1-.084.05.26.26 0 0 1-.098.02h-.529v-3.39h.707v2.02a3.648 3.648 0 0 1-.035.559 2.824 2.824 0 0 1 .223-.465l1.177-1.9a.635.635 0 0 1 .128-.145.341.341 0 0 1 .085-.05.249.249 0 0 1 .097-.018h.529zm-3.68 3.388h-.472a.474.474 0 0 1-.433-.238l-.627-1.041a.372.372 0 0 0-.14-.148.4.4 0 0 0-.19-.042h-.347v1.47h-.663v-1.47h-.344a.398.398 0 0 0-.192.042.378.378 0 0 0-.138.148l-.628 1.041a.493.493 0 0 1-.173.174.506.506 0 0 1-.262.064h-.468l.836-1.424c.059-.1.123-.18.19-.238a.718.718 0 0 1 .23-.136.555.555 0 0 1-.18-.116c-.051-.049-.1-.11-.147-.183l-.829-1.291h.557a.392.392 0 0 1 .34.193l.63 1.038c.04.068.083.113.131.135a.395.395 0 0 0 .164.033h.283v-1.4h.663v1.4h.283a.393.393 0 0 0 .166-.033.321.321 0 0 0 .132-.135l.63-1.038a.393.393 0 0 1 .34-.193h.557l-.83 1.291a1.007 1.007 0 0 1-.146.183.553.553 0 0 1-.181.116.722.722 0 0 1 .23.136.89.89 0 0 1 .189.238l.838 1.424z" fill="#FEFEFE"/><g transform="translate(0 42.897)"><mask id="d" fill="#fff"><use xlink:href="#c"/></mask><path d="M87.932 2.236H85.88c-.487 0-.825.132-1.043.334-.254.236-.363.586-.363.941 0 .404.113.732.352.945.238.21.61.33 1.135.33h1.97v-2.55zm0 7.853V6.58H86.27c-.382 0-.715.049-.962.201v.002c-.238.146-.425.404-.542.834l-.713 2.601c-.13.477-.39.477-.653.477v.002h-.733a.579.579 0 0 1-.399-.147.558.558 0 0 1-.185-.422v-.08l.018-.12c.09-.325.213-.774.335-1.226.134-.49.268-.983.418-1.51.113-.399.27-.747.514-1.045.083-.102.176-.197.28-.284a2.645 2.645 0 0 1-.622-.66c-.326-.494-.486-1.088-.486-1.733 0-.887.327-1.671.915-2.23.56-.532 1.347-.853 2.304-.853h3.052c.373 0 .635.097.822.293.188.197.26.45.26.772v8.636c0 .226-.057.37-.217.49-.134.103-.252.119-.421.119h-.686c-.17 0-.288-.016-.421-.118-.16-.122-.216-.265-.216-.491zm-11.521-.014V3.784l-.375.635-.003.007-3.415 5.558c-.132.222-.236.378-.38.498-.185.151-.38.216-.661.216h-.31c-.363 0-.615-.107-.792-.307-.17-.193-.235-.438-.235-.734V1.011c0-.226.076-.379.22-.493V.517a.626.626 0 0 1 .417-.129h.659c.184 0 .317.031.446.144v.002c.142.125.191.268.191.477v6.263l.27-.45.001-.003 3.523-5.732c.13-.22.223-.37.372-.491.182-.15.375-.21.669-.21h.323c.363 0 .612.103.787.306.167.193.226.435.226.735v8.646c0 .21-.05.352-.19.477-.131.115-.264.146-.447.146h-.659c-.184 0-.317-.03-.446-.144v-.002c-.141-.125-.191-.267-.191-.477zM59.913 6.192v3.883c0 .21-.05.352-.191.477-.13.115-.263.146-.446.146h-.686a.623.623 0 0 1-.416-.13c-.145-.114-.221-.268-.221-.493V1.038c0-.226.076-.379.22-.493a.624.624 0 0 1 .417-.13h.686c.182 0 .315.03.445.145.142.123.192.266.192.478v3.346h4.13V1.038c0-.21.05-.352.192-.477.13-.115.263-.146.446-.146h.658c.183 0 .315.03.446.145.142.123.192.266.192.478v9.037c0 .21-.05.352-.192.477-.13.115-.263.146-.446.146h-.658c-.183 0-.316-.03-.446-.146-.142-.125-.192-.268-.192-.477V6.192h-4.13zM51.34 8.21c.478-.646.658-1.613.658-2.64 0-.949-.132-1.853-.515-2.501-.35-.594-.941-.98-1.886-.98-.805 0-1.39.323-1.782.844-.48.637-.7 1.573-.7 2.597 0 1.042.153 1.947.549 2.573.364.574.965.92 1.893.92.841 0 1.413-.314 1.783-.813zm1.496-6.531c.744.91 1.123 2.22 1.123 3.85 0 1.678-.376 2.996-1.117 3.906-.752.923-1.855 1.41-3.299 1.41-1.437 0-2.52-.495-3.256-1.404-.74-.914-1.105-2.232-1.105-3.871 0-1.63.424-2.922 1.157-3.824C47.123.779 48.245.268 49.57.268c1.424 0 2.517.497 3.266 1.41zm-16.5 5.327l.022.055.03-.077c.153-.374.3-.737.375-.912a276.742 276.742 0 0 0 2.025-4.913c.117-.296.242-.478.418-.601.193-.136.388-.17.645-.17h.31c.381 0 .636.116.809.323.165.198.218.438.218.718v8.646c0 .226-.076.379-.221.493a.624.624 0 0 1-.417.13h-.632c-.183 0-.316-.032-.446-.146-.141-.125-.191-.268-.191-.477v-5.3a340.099 340.099 0 0 1-1.72 4.094c-.104.24-.192.404-.349.535-.177.148-.374.205-.668.205h-.363c-.288 0-.489-.054-.67-.199-.162-.13-.26-.298-.363-.546-.18-.433-.49-1.158-.816-1.92-.323-.756-.662-1.548-.902-2.12v5.251c0 .21-.05.352-.19.477-.132.115-.264.146-.447.146h-.619c-.183 0-.316-.032-.446-.146-.141-.125-.191-.268-.191-.477V1.43c0-.276.046-.514.206-.713.169-.21.42-.328.808-.328h.31c.274 0 .467.035.659.175.174.126.286.305.401.594.064.16.759 1.86 1.328 3.236.31.748.58 1.394.682 1.617.081.177.243.585.405.996zm-14.023-4.77v2.792h2.011c.507 0 .9-.125 1.153-.361.242-.226.374-.575.374-1.035 0-.353-.105-.758-.402-1.034-.232-.215-.595-.362-1.138-.362h-1.998zm-1.92 7.853V1.453c0-.318.065-.569.247-.767.184-.2.443-.298.82-.298h3.106c.953 0 1.764.329 2.342.893.58.567.917 1.364.917 2.298 0 1.17-.636 3.257-3.38 3.257h-2.132v3.253c0 .226-.056.37-.216.49-.134.103-.252.119-.422.119h-.658c-.152 0-.272-.017-.405-.119-.15-.114-.22-.261-.22-.49zm-6.69-3.452l-.815-2.484V4.15l-.267-.827-.252.773V4.1l-.84 2.536h2.175zm2.65 4.06H15.6c-.14 0-.24-.001-.38-.076-.149-.08-.243-.196-.314-.4l-.608-1.763h-3.36c-.074.215-.176.516-.274.81-.147.44-.288.86-.335.975a.728.728 0 0 1-.245.324.677.677 0 0 1-.413.13h-.767a.665.665 0 0 1-.223-.037.577.577 0 0 1-.387-.55c0-.074.014-.15.04-.224l3.105-8.729c.096-.268.187-.442.35-.575.179-.146.376-.194.665-.194h.35c.32 0 .527.057.705.205.168.14.246.312.336.566l3.065 8.729a.69.69 0 0 1 .04.226.589.589 0 0 1-.084.305.553.553 0 0 1-.3.242.642.642 0 0 1-.213.037zM1.933 2.916v7.118c0 .221-.054.376-.196.505-.133.121-.28.16-.481.16H.69c-.46 0-.691-.127-.691-.665V3.065c0-.774.188-1.478.683-1.98C1.109.65 1.739.387 2.64.387h3.617c.265 0 .43.084.548.25.103.145.116.276.116.44v.47c0 .185-.014.315-.131.46h-.002c-.127.156-.281.215-.53.215H2.653c-.285 0-.473.05-.575.152-.1.1-.146.28-.146.54z" fill="#FEFEFE" mask="url(#d)"/></g></g></svg>