<svg width="119" height="83" viewBox="0 0 119 83" xmlns="http://www.w3.org/2000/svg" xmlns:xlink="http://www.w3.org/1999/xlink"><title>Page 1</title><defs><filter x="-2.1%" y="-19.3%" width="104.1%" height="155.2%" filterUnits="objectBoundingBox" id="a"><feOffset dy="8" in="SourceAlpha" result="shadowOffsetOuter1"/><feGaussianBlur stdDeviation="7.5" in="shadowOffsetOuter1" result="shadowBlurOuter1"/><feColorMatrix values="0 0 0 0 0 0 0 0 0 0 0 0 0 0 0 0 0 0 0.1 0" in="shadowBlurOuter1" result="shadowMatrixOuter1"/><feMerge><feMergeNode in="shadowMatrixOuter1"/><feMergeNode in="SourceGraphic"/></feMerge></filter><path id="b" d="M88.893 10.854V.268H0v10.586h88.893z"/><path id="d" d="M.019.288h31.675v35.951H.019z"/></defs><g filter="url(#a)" transform="translate(-35 -11)" fill="none" fill-rule="evenodd"><g transform="translate(50 60.682)"><mask id="c" fill="#fff"><use xlink:href="#b"/></mask><path d="M86.955 2.238h-2.03c-.481 0-.815.132-1.031.334-.251.236-.359.587-.359.942 0 .404.112.733.349.946v-.001c.234.21.604.332 1.122.332h1.949V2.238zm0 7.86V6.586H85.31c-.378 0-.706.049-.951.2v.003c-.235.146-.42.404-.536.834l-.705 2.604c-.13.477-.385.477-.646.477v.001h-.725a.56.56 0 0 1-.577-.57v-.08l.018-.118c.09-.326.21-.775.331-1.228.132-.49.265-.983.413-1.512.112-.398.267-.746.51-1.045h-.002c.083-.103.174-.197.277-.284a2.636 2.636 0 0 1-.615-.662c-.322-.493-.48-1.087-.48-1.733 0-.887.324-1.672.905-2.232.553-.533 1.332-.853 2.278-.853h3.018c.369 0 .628.096.813.293.186.197.256.45.256.773v8.642c0 .227-.055.37-.213.491-.133.102-.25.118-.417.118h-.678c-.168 0-.285-.015-.417-.118-.157-.121-.213-.264-.213-.49zm-11.393-.014V3.787l-.37.636-.004.007-3.377 5.562c-.13.223-.233.379-.376.498-.182.152-.375.216-.654.216h-.306c-.358 0-.608-.106-.783-.307-.169-.193-.233-.438-.233-.734V1.012c0-.226.076-.38.219-.493V.517a.616.616 0 0 1 .412-.128h.651c.183 0 .314.03.441.144v.002c.14.124.19.267.19.477V7.28l.265-.45.002-.003 3.484-5.737c.129-.22.22-.37.368-.492.18-.15.371-.21.661-.21h.32c.359 0 .605.104.778.306.166.194.224.436.224.736v8.654c0 .209-.05.352-.19.477-.128.115-.26.145-.44.145h-.652c-.182 0-.313-.03-.441-.143v-.002c-.14-.125-.19-.268-.19-.477zM59.248 6.197v3.887c0 .209-.05.352-.19.477-.128.115-.26.145-.44.145h-.679a.613.613 0 0 1-.412-.13c-.142-.113-.218-.267-.218-.492V1.039c0-.226.076-.38.218-.493a.61.61 0 0 1 .412-.13h.678c.18 0 .312.03.44.145l.001-.001c.14.124.19.267.19.479v3.35h4.084v-3.35c0-.21.05-.353.189-.477.129-.116.26-.146.441-.146h.651c.18 0 .312.03.44.145l.002-.001c.139.124.189.267.189.479v9.045c0 .209-.05.352-.19.477-.129.115-.26.145-.44.145h-.652c-.18 0-.312-.03-.441-.145-.14-.125-.19-.268-.19-.477V6.197h-4.083zm-8.479 2.02c.474-.647.651-1.615.651-2.643 0-.95-.13-1.854-.509-2.503-.347-.594-.93-.98-1.865-.98-.796 0-1.375.324-1.763.844-.474.638-.691 1.574-.691 2.6 0 1.042.15 1.948.542 2.574.36.575.954.923 1.872.923.832 0 1.397-.316 1.763-.815zm1.48-6.537c.736.91 1.11 2.222 1.11 3.854 0 1.679-.371 2.998-1.104 3.909-.744.924-1.835 1.411-3.262 1.411-1.422 0-2.492-.495-3.22-1.405-.733-.914-1.093-2.234-1.093-3.875 0-1.63.42-2.923 1.144-3.827C46.6.78 47.709.268 49.02.268c1.407 0 2.489.497 3.229 1.412zM35.932 7.012l.022.055.03-.077c.15-.375.297-.738.37-.913a278.163 278.163 0 0 0 2.002-4.917c.117-.296.24-.479.415-.602.19-.135.383-.17.637-.17h.306c.378 0 .63.116.8.324.164.198.216.438.216.718v8.654c0 .225-.075.379-.218.492a.612.612 0 0 1-.412.13h-.625c-.181 0-.313-.03-.441-.145-.14-.125-.19-.268-.19-.477V4.779a354.29 354.29 0 0 1-1.7 4.097c-.103.24-.19.404-.345.536-.176.148-.37.205-.661.205h-.36c-.284 0-.482-.054-.662-.199-.16-.13-.256-.299-.358-.547-.178-.433-.485-1.159-.807-1.92-.32-.758-.655-1.55-.892-2.123v5.256c0 .209-.05.352-.19.477-.129.115-.26.145-.44.145h-.612c-.181 0-.313-.03-.441-.145-.14-.125-.19-.268-.19-.477V1.43c0-.276.046-.514.204-.713.167-.21.416-.328.8-.328h.305c.271 0 .463.035.652.174.172.127.283.305.397.595.063.159.75 1.861 1.314 3.238.306.75.574 1.396.674 1.619.08.178.24.586.4.997zM22.065 2.238v2.794h1.989c.501 0 .89-.124 1.14-.362.24-.226.37-.574.37-1.035 0-.353-.104-.76-.398-1.035-.23-.215-.588-.362-1.125-.362h-1.976zm-1.899 7.86V1.454c0-.32.065-.57.245-.768.181-.2.438-.298.811-.298h3.071c.943 0 1.744.329 2.316.893.574.568.907 1.365.907 2.3 0 1.172-.629 3.26-3.343 3.26h-2.108v3.255c0 .227-.056.37-.214.491-.132.103-.25.118-.416.118h-.652c-.15 0-.269-.016-.4-.118-.147-.114-.217-.261-.217-.49zm-6.615-3.455l-.806-2.487v-.002l-.264-.827-.25.774v.003l-.83 2.539h2.15zm2.62 4.063h-.745c-.138 0-.237-.002-.375-.077-.147-.08-.24-.195-.31-.4l-.602-1.764h-3.323c-.073.215-.173.517-.27.81-.146.44-.286.862-.332.977a.732.732 0 0 1-.242.324.666.666 0 0 1-.409.13h-.758a.65.65 0 0 1-.22-.037.577.577 0 0 1-.384-.55.68.68 0 0 1 .04-.225l3.071-8.736c.094-.268.185-.443.346-.575.177-.147.371-.194.657-.194h.346c.317 0 .522.056.698.205.166.14.244.311.332.566l3.03 8.736a.7.7 0 0 1 .041.226.593.593 0 0 1-.083.305.547.547 0 0 1-.297.243.628.628 0 0 1-.211.036zM1.911 2.917v7.124c0 .222-.052.376-.193.506-.132.122-.278.16-.476.16H.683c-.455 0-.683-.127-.683-.666V3.067c0-.774.186-1.479.675-1.982C1.096.651 1.72.39 2.611.39h3.577c.262 0 .424.083.541.25.103.145.115.276.115.44v.47c0 .186-.013.316-.13.461h-.002c-.125.156-.277.215-.524.215H2.624c-.28 0-.467.05-.568.152-.099.1-.144.28-.144.54z" fill="#1B3F6D" mask="url(#c)"/></g><g transform="translate(78.204 17.029)"><mask id="e" fill="#fff"><use xlink:href="#d"/></mask><path d="M31.694 10.877V25.65h-.002c0 .584-.144 1.129-.414 1.6v.002c-.201.351-.47.661-.8.917.253.41.454.86.6 1.338a.374.374 0 0 1-.146.418 6.033 6.033 0 0 1-2.363.985 4.994 4.994 0 0 1-2.414-.161l-.031-.01-4.512 2.629a6.47 6.47 0 0 1-.116 1.442.372.372 0 0 1-.325.302 6.93 6.93 0 0 1-2.328-.13l-1.407.82c-.5.29-1.04.437-1.58.437v.001a3.12 3.12 0 0 1-1.581-.439L1.602 28.413a3.134 3.134 0 0 1-1.583-2.765V10.877c0-.583.145-1.127.416-1.602.27-.472.666-.87 1.167-1.162L14.275.727a3.127 3.127 0 0 1 1.581-.44c.54 0 1.08.147 1.582.44L30.11 8.114h.002c.5.291.894.69 1.165 1.163.272.474.417 1.018.417 1.601" fill="#1B3F6D" mask="url(#e)"/></g><path d="M92.507 44.175l.033.026c.318.253.62.522.853.757a6.708 6.708 0 0 1 2.586.305c.87.287 1.661.766 2.31 1.439a5.396 5.396 0 0 1 1.325 2.338c.049.178.088.36.12.543l3.754-2.189a4.812 4.812 0 0 1-1.145-.9 5.451 5.451 0 0 1-1.155-1.926 48.63 48.63 0 0 0-8.68-.393m-10.373 1.764l10.714 6.243c.386.225.799.337 1.211.337v.002a2.4 2.4 0 0 0 1.213-.339l.822-.479a5.59 5.59 0 0 1-1.891-1.283 5.396 5.396 0 0 1-1.325-2.338 6.158 6.158 0 0 1-.106-2.691 9.759 9.759 0 0 0-.691-.602 7.755 7.755 0 0 0-.77-.544 44.38 44.38 0 0 0-2.858.296 38.05 38.05 0 0 0-6.319 1.398m6.495-3.412a2.441 2.441 0 0 1-.084-.26 3.113 3.113 0 0 1-.091-.91h-.092a9.873 9.873 0 0 1-4.76-1.212 5.968 5.968 0 0 1-2.665.87c-.704.056-1.39-.019-1.973-.225v1.888c0 .419.094.808.27 1.148a41.115 41.115 0 0 1 5.947-1.064 46.302 46.302 0 0 1 3.448-.235m2.546-.013a3.73 3.73 0 0 1-.171-.349 4.605 4.605 0 0 1-.307-1.077c-.463.11-.94.186-1.425.23-.016.272.003.52.061.74.043.164.109.314.198.449a50.068 50.068 0 0 1 1.644.007" fill="#65CDF7"/><path d="M97.89 42.2a7.002 7.002 0 0 0-1.021.761 45.69 45.69 0 0 1 4.52.856 5.991 5.991 0 0 1 2.229-.894 4.993 4.993 0 0 1 2.413.161 4.781 4.781 0 0 1 2.216 1.508c.245-.194.446-.426.594-.686h.001c.206-.36.315-.777.315-1.228h-.001V27.906c0-.451-.11-.869-.315-1.227v-.002a2.423 2.423 0 0 0-.896-.889l-12.673-7.386a2.396 2.396 0 0 0-1.212-.337c-.412 0-.825.113-1.21.337h-.002l-12.674 7.386c-.386.225-.69.53-.895.889v.002a2.454 2.454 0 0 0-.314 1.227v7.49c.495 1.03 1.28 1.954 2.234 2.661a7.39 7.39 0 0 0 1.936 1.033 10.36 10.36 0 0 1 2.207-6.832 10.252 10.252 0 0 1 5.203-3.517 3.687 3.687 0 0 1-.296-1.446c0-1.01.405-1.924 1.06-2.586a3.595 3.595 0 0 1 5.149.028c.112-.15.218-.307.316-.473.169-.287.31-.6.419-.945a.407.407 0 0 1 .51-.27.412.412 0 0 1 .269.514 5.338 5.338 0 0 1-.61 1.305 3.984 3.984 0 0 1 1.39.327c.207.089.304.33.215.54a.406.406 0 0 1-.534.217 3.176 3.176 0 0 0-1.288-.265 10.86 10.86 0 0 1 1.034 2.297c.298.948.464 1.954.464 2.996 0 2.866-1.15 5.46-3.01 7.338a10.26 10.26 0 0 1-4.143 2.55c.052.36.138.684.262.972.113.264.259.5.44.705 1.27.052 2.517.152 3.735.296a7.718 7.718 0 0 1 1.57-1.272 5.904 5.904 0 0 1 .706-2.328 5.612 5.612 0 0 1 1.746-1.92 5.81 5.81 0 0 1 2.44-.953 6.424 6.424 0 0 1 2.693.185c.164.046.28.202.27.38a5.938 5.938 0 0 1-.723 2.541 5.614 5.614 0 0 1-1.746 1.92 5.806 5.806 0 0 1-2.439.953 6.409 6.409 0 0 1-2.555-.147" fill="#65CDF7"/><path d="M109.156 38.423c-1.425.499-2.927.83-4.483.97.401-.754.63-1.593.679-2.46a.374.374 0 0 0-.27-.38 6.424 6.424 0 0 0-2.694-.185 5.816 5.816 0 0 0-2.44.954 5.613 5.613 0 0 0-1.544 1.583 18.55 18.55 0 0 1-2.535-.834 10.393 10.393 0 0 0 2.774-7.09 9.985 9.985 0 0 0-.464-2.997 10.856 10.856 0 0 0-1.034-2.297 3.118 3.118 0 0 1 1.288.265.406.406 0 0 0 .534-.217.413.413 0 0 0-.215-.54 3.986 3.986 0 0 0-1.39-.327 5.331 5.331 0 0 0 .61-1.305.407.407 0 1 0-.779-.245c-.108.347-.25.66-.419.946a4.954 4.954 0 0 1-.316.473 3.637 3.637 0 0 0-.937-.696 3.595 3.595 0 0 0-4.212.668 3.662 3.662 0 0 0-.917 3.6c.042.148.094.293.153.432a10.184 10.184 0 0 0-3.53 1.831 19.03 19.03 0 0 1-2.675-7.212l8.508-4.958h.002a2.394 2.394 0 0 1 1.21-.337c.413 0 .826.112 1.21.337h.002l12.674 7.385v.001c.387.226.69.53.895.89.205.36.315.776.315 1.228v10.517z" fill="#9CDCF9"/><path d="M94.448 25.716a.68.68 0 0 0-.677.684.68.68 0 0 0 .677.684.68.68 0 0 0 .678-.684.68.68 0 0 0-.678-.684zm-2.666 3.648c-.203-.389-.492-.873-.608-1.281a2.866 2.866 0 0 1-.108-.788c0-.782.314-1.49.821-2.003a2.783 2.783 0 0 1 1.984-.83c.464 0 .899.112 1.28.31.398.206.74.506 1.001.87l.001.002c.525.785.954 1.655 1.247 2.588.273.87.427 1.793.427 2.748a9.57 9.57 0 0 1-2.772 6.755 9.39 9.39 0 0 1-6.692 2.798 9.081 9.081 0 0 1-2.304-.292 7.335 7.335 0 0 0 4.408-2.138 7.466 7.466 0 0 0 2.163-5.27 7.453 7.453 0 0 0-.848-3.469zm-7.828 9.792c.002.056.005.112.01.168.42.09.85.137 1.282.137a6.516 6.516 0 0 0 4.643-1.941 6.638 6.638 0 0 0 1.924-4.688 6.615 6.615 0 0 0-.893-3.342 9.428 9.428 0 0 0-4.939 3.28 9.532 9.532 0 0 0-2.027 6.386zm-4.99-2.19a8.372 8.372 0 0 0 1.782 1.775 8.26 8.26 0 0 0 1.833 1.02 5.242 5.242 0 0 1-1.705.432c-.716.058-1.395-.04-1.91-.291v-2.937z" fill="#FFC735"/><path d="M93.825 43.388c-.67-.05-1.347-.088-2.03-.111a47.056 47.056 0 0 0-6.538.228 40.613 40.613 0 0 0-5.525.965c.132.122.28.231.443.326l.02.012 1.077.628c2.154-.731 4.537-1.287 7.083-1.635a46.13 46.13 0 0 1 5.47-.413m-.352 2.313c-.108.747-.07 1.49.12 2.182a4.648 4.648 0 0 0 1.142 2.016 4.9 4.9 0 0 0 2.007 1.25 5.992 5.992 0 0 0 2.277.272 5.37 5.37 0 0 0-.118-2.183 4.654 4.654 0 0 0-1.143-2.015 4.902 4.902 0 0 0-2.008-1.25 5.988 5.988 0 0 0-2.277-.272m8.431-1.329a4.7 4.7 0 0 0 .975 1.607 4.05 4.05 0 0 0 1.707 1.087 4.272 4.272 0 0 0 2.063.135 5.217 5.217 0 0 0 1.838-.712 4.677 4.677 0 0 0-.975-1.607 4.045 4.045 0 0 0-1.707-1.087 4.268 4.268 0 0 0-2.063-.135 5.224 5.224 0 0 0-1.838.712m-3.658-2.854a5.653 5.653 0 0 0 2.09.09 5.082 5.082 0 0 0 2.133-.832 4.869 4.869 0 0 0 1.514-1.665 5.147 5.147 0 0 0 .604-1.914 5.643 5.643 0 0 0-2.091-.089 5.075 5.075 0 0 0-2.133.831 4.863 4.863 0 0 0-1.513 1.665 5.153 5.153 0 0 0-.604 1.914" fill="#9CCC4C"/><path d="M101.905 44.374c2.348-.133 5.033.824 6.56 2.128l.022-.013a4.681 4.681 0 0 0-.975-1.607 4.048 4.048 0 0 0-1.707-1.087 4.272 4.272 0 0 0-2.063-.135 5.224 5.224 0 0 0-1.838.712v.002zm-8.432 1.327c2.397 1.004 4.847 3.677 5.524 5.721l.022-.001c.108-.748.07-1.49-.119-2.182a4.648 4.648 0 0 0-1.142-2.016 4.903 4.903 0 0 0-2.008-1.25 5.975 5.975 0 0 0-2.277-.272zm4.777-4.222c1.301-2.304 4.142-3.936 6.336-4.272v-.01a5.644 5.644 0 0 0-2.09-.089 5.076 5.076 0 0 0-2.133.831 4.865 4.865 0 0 0-1.513 1.665 5.147 5.147 0 0 0-.6 1.875z" fill="#B3D45F"/><path d="M89.737 40.433a9.408 9.408 0 0 0 5.318-2.698 9.57 9.57 0 0 0 2.772-6.755c0-.955-.154-1.878-.427-2.748a10.127 10.127 0 0 0-1.247-2.588l-.001-.002a2.833 2.833 0 0 0-1-.87 2.774 2.774 0 0 0-1.28-.31c-.776 0-1.477.318-1.985.83a2.85 2.85 0 0 0-.563.814 2.772 2.772 0 0 1 2.076-.943c.447 0 .864.108 1.227.299.378.199.7.488.94.84l.002.002a9.43 9.43 0 0 1 1.128 2.5c.238.84.36 1.73.33 2.653a9.536 9.536 0 0 1-2.875 6.524 9.457 9.457 0 0 1-4.415 2.452m-5.783-1.277c.002.056.005.112.01.168.62-2.9 2.933-7.126 6.955-9.834a9.429 9.429 0 0 0-4.938 3.28 9.532 9.532 0 0 0-2.027 6.386m-4.99-2.191a8.388 8.388 0 0 0 3.615 2.796c-1.756.094-3.056-.606-3.615-1.47v-1.326z" fill="#FFF226"/><path d="M75.487 34.455v3.217a.603.603 0 0 1-.304.532l-2.76 1.608a.59.59 0 0 1-.608 0l-2.76-1.608a.6.6 0 0 1-.304-.532v-3.217a.6.6 0 0 1 .304-.532l2.76-1.608a.588.588 0 0 1 .608 0l2.76 1.608a.602.602 0 0 1 .304.532m35.965-15.098v1.711a.32.32 0 0 1-.162.283l-1.468.856a.313.313 0 0 1-.324 0l-1.468-.856a.32.32 0 0 1-.162-.283v-1.71a.32.32 0 0 1 .162-.284l1.468-.856c.103-.06.22-.06.324 0l1.468.856a.32.32 0 0 1 .162.283m.163 32.407v2.564c0 .18-.088.334-.242.424l-2.2 1.281a.469.469 0 0 1-.484 0l-2.199-1.281a.478.478 0 0 1-.243-.424v-2.564c0-.18.088-.333.243-.423l2.199-1.282a.47.47 0 0 1 .485 0l2.2 1.282a.48.48 0 0 1 .241.423" fill="#65CDF7"/></g></svg>