<svg xmlns="http://www.w3.org/2000/svg" xmlns:xlink="http://www.w3.org/1999/xlink" width="91" height="72" viewBox="0 0 91 72"><defs><filter id="a" width="106.5%" height="171.4%" x="-3.3%" y="-28.6%" filterUnits="objectBoundingBox"><feOffset dy="5" in="SourceAlpha" result="shadowOffsetOuter1"/><feGaussianBlur in="shadowOffsetOuter1" result="shadowBlurOuter1" stdDeviation="7.5"/><feColorMatrix in="shadowBlurOuter1" result="shadowMatrixOuter1" values="0 0 0 0 0 0 0 0 0 0 0 0 0 0 0 0 0 0 0.2 0"/><feMerge><feMergeNode in="shadowMatrixOuter1"/><feMergeNode in="SourceGraphic"/></feMerge></filter><path id="b" d="M60.927 7.528V.186H0v7.342h60.927z"/><path id="d" d="M.013.2h21.71v24.934H.013z"/></defs><g fill="none" fill-rule="evenodd" filter="url(#a)" transform="translate(-15 -4)"><path fill="#1B3F6D" d="M78.603 55.196c.026 0 .048.01.066.03l.19.205a.902.902 0 0 1-.347.276 1.188 1.188 0 0 1-.494.094c-.172 0-.327-.03-.465-.09a1.011 1.011 0 0 1-.35-.25 1.119 1.119 0 0 1-.222-.382 1.435 1.435 0 0 1-.078-.481c0-.117.013-.228.037-.334a1.174 1.174 0 0 1 .281-.53 1.04 1.04 0 0 1 .505-.298c.1-.027.206-.04.32-.04a1.242 1.242 0 0 1 .452.086.961.961 0 0 1 .332.224l-.16.224a.149.149 0 0 1-.037.037.1.1 0 0 1-.06.016.132.132 0 0 1-.077-.027 1.833 1.833 0 0 0-.095-.062.695.695 0 0 0-.142-.061.707.707 0 0 0-.215-.028.647.647 0 0 0-.265.054.574.574 0 0 0-.207.154.723.723 0 0 0-.134.25c-.032.097-.048.21-.048.335 0 .126.018.239.052.337a.747.747 0 0 0 .141.251.598.598 0 0 0 .466.208c.054 0 .103-.003.147-.008a.608.608 0 0 0 .228-.078.676.676 0 0 0 .1-.078.19.19 0 0 1 .037-.024.09.09 0 0 1 .042-.01zm-2.008.579h-.435a.172.172 0 0 1-.11-.035.34.34 0 0 1-.082-.103l-.44-.765a.29.29 0 0 0-.04-.057.162.162 0 0 0-.102-.055.443.443 0 0 0-.068-.005h-.25v1.02h-.476v-2.352h.477v.97h.207a.242.242 0 0 0 .108-.022.225.225 0 0 0 .086-.085l.465-.736a.313.313 0 0 1 .081-.092.184.184 0 0 1 .114-.035h.408l-.597.935a.39.39 0 0 1-.093.104.46.46 0 0 1-.12.066.415.415 0 0 1 .172.09c.047.041.09.1.132.174l.563.983zm-3.632-1.972v.605h.768v.368h-.768v.618h.987v.38h-1.466v-2.351h1.466v.38h-.987zm-1.249 1.972h-.48V53.79h-.574c-.016.291-.037.544-.065.756a4.51 4.51 0 0 1-.099.542 1.714 1.714 0 0 1-.131.362.759.759 0 0 1-.162.216.483.483 0 0 1-.19.105.81.81 0 0 1-.392.004c-.037-.015-.056-.037-.056-.066v-.3h.127c.034 0 .07-.006.106-.017a.238.238 0 0 0 .108-.081.71.71 0 0 0 .103-.19c.033-.085.063-.201.09-.349.027-.147.05-.33.07-.55.02-.22.034-.487.042-.8h1.503v2.352zm-2.672 0h-.48V53.79h-.937v1.984h-.48v-2.352h1.897v2.352zm-2.665-2.352v2.352h-.42V54.33a1.978 1.978 0 0 1 .011-.203l-.659 1.276a.176.176 0 0 1-.166.106h-.067a.183.183 0 0 1-.098-.027.185.185 0 0 1-.069-.079l-.661-1.28a4.627 4.627 0 0 1 .01.207v1.445h-.42v-2.352h.362l.054.001a.13.13 0 0 1 .042.009.1.1 0 0 1 .034.022c.01.01.02.025.029.044l.644 1.254a1.94 1.94 0 0 1 .106.24 2.899 2.899 0 0 1 .107-.245l.64-1.25a.164.164 0 0 1 .03-.043.108.108 0 0 1 .075-.03.777.777 0 0 1 .054-.002h.362zm-3.662 1.175c0-.123-.016-.234-.048-.332a.712.712 0 0 0-.137-.25.588.588 0 0 0-.217-.157.735.735 0 0 0-.29-.054.74.74 0 0 0-.29.054.589.589 0 0 0-.219.157.706.706 0 0 0-.137.25 1.072 1.072 0 0 0-.048.332c0 .124.016.235.048.333a.699.699 0 0 0 .137.249c.06.068.133.12.218.156a.74.74 0 0 0 .29.054.735.735 0 0 0 .29-.054.594.594 0 0 0 .218-.156.705.705 0 0 0 .137-.25 1.06 1.06 0 0 0 .048-.332zm.487 0c0 .172-.028.33-.085.478a1.106 1.106 0 0 1-.612.633 1.229 1.229 0 0 1-.482.092c-.177 0-.338-.031-.483-.092a1.117 1.117 0 0 1-.373-.252 1.122 1.122 0 0 1-.24-.381 1.317 1.317 0 0 1-.085-.478c0-.172.028-.331.085-.478.057-.146.137-.273.24-.38.104-.107.228-.191.373-.252s.306-.092.483-.092c.176 0 .337.03.482.092a1.103 1.103 0 0 1 .612.634c.057.146.085.305.085.476zm-2.664 1.177h-.435a.172.172 0 0 1-.11-.035.337.337 0 0 1-.082-.103l-.44-.765a.29.29 0 0 0-.04-.057.196.196 0 0 0-.046-.037.16.16 0 0 0-.056-.018.445.445 0 0 0-.07-.005h-.248v1.02h-.476v-2.352h.476v.97h.208a.24.24 0 0 0 .107-.022.227.227 0 0 0 .086-.085l.465-.736a.313.313 0 0 1 .081-.092.184.184 0 0 1 .115-.035h.407l-.596.935a.388.388 0 0 1-.094.104.456.456 0 0 1-.119.066.416.416 0 0 1 .171.09c.047.041.09.1.132.174l.564.983zm-5.24-2.705c.037 0 .07-.003.094-.01a.11.11 0 0 0 .059-.038.17.17 0 0 0 .03-.074.667.667 0 0 0 .008-.119h.26c.03 0 .053.013.067.039a.167.167 0 0 1 .02.083.274.274 0 0 1-.038.147.32.32 0 0 1-.11.106.547.547 0 0 1-.17.064 1.072 1.072 0 0 1-.44 0 .548.548 0 0 1-.171-.064.318.318 0 0 1-.11-.106.275.275 0 0 1-.04-.147.17.17 0 0 1 .022-.083.071.071 0 0 1 .068-.039h.258c0 .049.003.088.01.12.005.03.015.055.03.073a.11.11 0 0 0 .058.038c.025.007.056.01.094.01zm.96.353v2.352h-.48v-1.402a2.508 2.508 0 0 1 .024-.388 2.022 2.022 0 0 1-.15.323l-.8 1.317a.338.338 0 0 1-.085.102.228.228 0 0 1-.057.035.171.171 0 0 1-.067.013h-.358v-2.352h.48v1.402c0 .058-.003.12-.006.184s-.01.132-.019.203a1.9 1.9 0 0 1 .15-.322l.8-1.32a.465.465 0 0 1 .086-.1.234.234 0 0 1 .057-.034.165.165 0 0 1 .066-.013h.359zm-3.097 1.175a1.07 1.07 0 0 0-.047-.332.708.708 0 0 0-.137-.25.59.59 0 0 0-.218-.157.735.735 0 0 0-.29-.054.74.74 0 0 0-.29.054.59.59 0 0 0-.218.157.713.713 0 0 0-.138.25 1.072 1.072 0 0 0-.047.332c0 .124.016.235.047.333a.706.706 0 0 0 .138.249.59.59 0 0 0 .218.156.74.74 0 0 0 .29.054.735.735 0 0 0 .29-.054.594.594 0 0 0 .218-.156.702.702 0 0 0 .137-.25 1.06 1.06 0 0 0 .047-.332zm.488 0c0 .172-.028.33-.085.478a1.127 1.127 0 0 1-.24.381 1.11 1.11 0 0 1-.372.252 1.229 1.229 0 0 1-.482.092c-.177 0-.338-.031-.483-.092a1.116 1.116 0 0 1-.373-.252 1.119 1.119 0 0 1-.24-.381 1.322 1.322 0 0 1-.085-.478c0-.172.028-.331.085-.478a1.12 1.12 0 0 1 .24-.38c.104-.107.228-.191.373-.252s.306-.092.483-.092c.176 0 .337.03.482.092a1.106 1.106 0 0 1 .612.634c.057.146.085.305.085.476zm-2.995 1.177h-.479V53.79H49.6a9.679 9.679 0 0 1-.065.756c-.027.213-.06.394-.099.542a1.69 1.69 0 0 1-.131.362.751.751 0 0 1-.162.216.48.48 0 0 1-.19.105.81.81 0 0 1-.392.004c-.037-.015-.056-.037-.056-.066v-.3h.127c.034 0 .07-.006.106-.017a.239.239 0 0 0 .108-.081.71.71 0 0 0 .103-.19c.033-.085.064-.201.09-.349a6.24 6.24 0 0 0 .07-.55c.02-.22.034-.487.042-.8h1.503v2.352zm-2.672-2.352v2.352h-.48v-1.402a3.45 3.45 0 0 1 .024-.388 2.022 2.022 0 0 1-.15.323l-.799 1.317a.338.338 0 0 1-.086.102.224.224 0 0 1-.057.035.172.172 0 0 1-.066.013h-.359v-2.352h.48v1.402a2.518 2.518 0 0 1-.024.387 1.96 1.96 0 0 1 .15-.322l.799-1.32a.44.44 0 0 1 .086-.1.23.23 0 0 1 .058-.034.165.165 0 0 1 .065-.013h.359zm-2.495 2.352h-.319a.336.336 0 0 1-.176-.045.325.325 0 0 1-.117-.12l-.426-.724a.254.254 0 0 0-.094-.102.266.266 0 0 0-.13-.03h-.234v1.02h-.45v-1.02h-.233a.264.264 0 0 0-.13.03.257.257 0 0 0-.094.102l-.425.723a.338.338 0 0 1-.117.12.336.336 0 0 1-.178.046h-.317l.566-.99a.67.67 0 0 1 .13-.165.488.488 0 0 1 .156-.094.371.371 0 0 1-.123-.08.707.707 0 0 1-.1-.127l-.561-.896h.377a.258.258 0 0 1 .23.134l.427.72a.211.211 0 0 0 .09.094.26.26 0 0 0 .11.022h.192v-.97h.45v.97h.192c.042 0 .08-.007.112-.022a.22.22 0 0 0 .09-.094l.426-.72a.267.267 0 0 1 .23-.134h.378l-.562.896a.706.706 0 0 1-.099.127.37.37 0 0 1-.123.08c.058.022.11.053.157.094a.637.637 0 0 1 .127.166l.568.989z"/><g transform="translate(30 43.295)"><mask id="c" fill="#fff"><use xlink:href="#b"/></mask><path fill="#1B3F6D" d="M59.598 1.552h-1.39c-.33 0-.56.091-.708.232-.172.164-.246.407-.246.653 0 .28.077.508.24.656.16.146.413.23.768.23h1.336v-1.77zm0 5.45V4.569h-1.126c-.26 0-.484.034-.652.14v.001c-.161.101-.288.28-.368.579l-.483 1.806c-.088.33-.264.33-.443.33v.001h-.496a.386.386 0 0 1-.396-.394v-.056l.012-.083c.062-.225.144-.537.228-.851.09-.34.18-.682.282-1.049.077-.276.183-.517.35-.725h-.002c.057-.07.12-.137.19-.197a1.82 1.82 0 0 1-.42-.458c-.222-.342-.33-.755-.33-1.202 0-.616.222-1.16.62-1.549.379-.37.913-.591 1.562-.591h2.068c.253 0 .43.067.557.203.127.136.176.312.176.536v5.994c0 .157-.038.256-.147.34-.09.071-.17.082-.285.082h-.465c-.115 0-.195-.01-.285-.081-.109-.085-.147-.184-.147-.341zm-7.809-.009V2.626l-.253.441-.003.005L49.22 6.93c-.09.154-.16.263-.258.346a.638.638 0 0 1-.448.15h-.21c-.246 0-.417-.074-.537-.214-.115-.133-.159-.303-.159-.509V.702c0-.157.052-.263.15-.342V.359a.419.419 0 0 1 .282-.09h.447c.125 0 .215.022.302.1v.002c.096.086.13.185.13.33V5.05l.182-.312.001-.002 2.387-3.98v.001c.089-.153.152-.256.253-.341.123-.104.254-.145.453-.145h.219c.246 0 .415.071.534.212.113.134.153.302.153.51v6.001c0 .146-.034.245-.13.331-.088.08-.178.101-.302.101h-.446c-.125 0-.215-.02-.303-.1-.096-.087-.13-.186-.13-.332zM40.608 4.298v2.695c0 .146-.034.245-.13.331-.088.08-.178.101-.302.101h-.465a.417.417 0 0 1-.282-.09c-.098-.079-.15-.185-.15-.342V.72c0-.156.052-.263.15-.341a.415.415 0 0 1 .282-.09h.465c.123 0 .213.02.302.1.096.085.13.185.13.331v2.323h2.799V.72c0-.145.034-.244.13-.33.088-.08.178-.102.302-.102h.447c.123 0 .213.021.301.1.097.086.13.186.13.332v6.273c0 .146-.033.245-.129.331-.089.08-.178.101-.302.101h-.447c-.124 0-.214-.02-.302-.1-.096-.087-.13-.186-.13-.332V4.298h-2.8zm-5.811 1.4c.324-.448.446-1.12.446-1.832 0-.658-.09-1.286-.349-1.736-.238-.412-.638-.68-1.278-.68-.546 0-.943.225-1.208.586-.325.442-.474 1.091-.474 1.802 0 .724.103 1.352.371 1.786.247.399.655.64 1.283.64.57 0 .958-.219 1.209-.565zm1.014-4.533c.504.632.761 1.541.761 2.673 0 1.165-.254 2.08-.757 2.711-.51.64-1.257.979-2.236.979-.974 0-1.708-.344-2.207-.975-.502-.634-.749-1.55-.749-2.687 0-1.131.288-2.028.784-2.654C31.94.542 32.7.186 33.597.186c.965 0 1.707.345 2.214.98zM24.628 4.863l.014.038.022-.053c.102-.26.202-.512.253-.633A194.265 194.265 0 0 0 26.29.805c.079-.206.164-.332.283-.418.13-.094.263-.117.437-.117h.21c.259 0 .431.08.548.223.113.138.148.305.148.499v6.001c0 .157-.052.263-.15.342a.416.416 0 0 1-.282.09h-.428c-.124 0-.215-.021-.303-.1-.095-.087-.13-.186-.13-.332V3.314a233.109 233.109 0 0 1-1.165 2.842c-.07.167-.13.28-.236.372-.12.103-.254.142-.453.142h-.246c-.196 0-.332-.038-.454-.138-.11-.09-.176-.207-.246-.38-.122-.3-.333-.803-.553-1.332-.22-.525-.449-1.074-.612-1.471v3.644c0 .146-.033.245-.13.331-.088.08-.178.101-.302.101h-.419c-.124 0-.214-.021-.302-.1-.096-.087-.13-.186-.13-.332V.992c0-.192.031-.357.14-.495.114-.146.285-.227.547-.227h.21c.186 0 .317.024.447.12.118.088.194.212.272.413.043.11.514 1.29.9 2.246.21.52.394.968.462 1.123.055.123.165.406.275.691zm-9.505-3.31V3.49h1.363c.344 0 .61-.086.782-.25.164-.158.253-.4.253-.719 0-.245-.07-.526-.272-.718-.157-.149-.403-.25-.772-.25h-1.354zm-1.301 5.45V1.009c0-.221.044-.396.167-.533.125-.138.3-.206.556-.206h2.105c.646 0 1.196.228 1.587.619.394.394.622.947.622 1.595 0 .813-.43 2.261-2.29 2.261h-1.446v2.258c0 .157-.038.256-.146.34-.09.071-.171.082-.286.082h-.446a.396.396 0 0 1-.275-.082c-.1-.079-.148-.181-.148-.34zM9.288 4.607l-.553-1.725-.18-.575-.171.537v.002l-.57 1.761h1.474zm1.795 2.818h-.51a.462.462 0 0 1-.257-.053c-.1-.055-.165-.136-.213-.278l-.412-1.223H7.413c-.05.15-.119.358-.185.562-.1.305-.196.597-.227.677a.507.507 0 0 1-.166.225.453.453 0 0 1-.28.09h-.52a.4.4 0 0 1-.414-.408c0-.05.01-.103.027-.155L7.753.803c.065-.186.127-.307.237-.399.122-.102.255-.134.45-.134h.238c.217 0 .357.039.478.142.114.097.167.216.228.392l2.077 6.06a.49.49 0 0 1 .028.156.415.415 0 0 1-.057.212.376.376 0 0 1-.204.168.426.426 0 0 1-.145.025zM1.31 2.023v4.941c0 .154-.036.26-.133.35-.09.085-.19.111-.326.111H.468c-.312 0-.468-.087-.468-.46V2.126C0 1.59.128 1.102.463.753.752.452 1.179.27 1.79.27h2.45c.18 0 .29.057.371.173.07.1.08.192.08.305v.326c0 .129-.01.22-.09.32H4.6c-.086.108-.19.15-.36.15H1.799c-.193 0-.32.034-.39.105-.067.069-.099.194-.099.374z" mask="url(#c)"/></g><g transform="translate(49.331 13.02)"><mask id="e" fill="#fff"><use xlink:href="#d"/></mask><path fill="#1B3F6D" d="M21.723 7.544v10.245h-.001c0 .405-.1.783-.284 1.11v.001a2.154 2.154 0 0 1-.549.636c.174.284.312.596.412.928a.261.261 0 0 1-.1.29 4.11 4.11 0 0 1-1.62.683 3.384 3.384 0 0 1-1.654-.112l-.022-.007-3.092 1.824a4.54 4.54 0 0 1-.08 1 .256.256 0 0 1-.222.209c-.545.06-1.086.03-1.596-.09l-.964.568a2.124 2.124 0 0 1-1.083.304c-.37 0-.74-.101-1.084-.304l-8.686-5.123A2.179 2.179 0 0 1 .013 17.79V7.544c0-.405.1-.782.285-1.111.186-.328.457-.604.8-.806L9.784.504a2.124 2.124 0 0 1 1.084-.305c.37 0 .74.102 1.084.305l8.686 5.123c.343.202.613.478.8.806.185.329.285.707.285 1.111" mask="url(#e)"/></g><path fill="#65CDF7" d="M59.134 31.847l.022.018c.219.175.425.362.585.525a4.547 4.547 0 0 1 1.773.212 3.855 3.855 0 0 1 1.583.998 3.765 3.765 0 0 1 .99 1.998l2.574-1.518a3.305 3.305 0 0 1-.785-.625 3.79 3.79 0 0 1-.792-1.335 32.389 32.389 0 0 0-3.354-.287 32.515 32.515 0 0 0-2.596.014m-7.109 1.223l7.343 4.33c.265.156.548.234.83.234v.001c.283 0 .566-.078.832-.234l.563-.333a3.829 3.829 0 0 1-1.296-.89 3.754 3.754 0 0 1-.908-1.621 4.32 4.32 0 0 1-.073-1.867 6.713 6.713 0 0 0-.473-.417 5.316 5.316 0 0 0-.528-.377c-.667.048-1.32.116-1.96.205a25.817 25.817 0 0 0-4.33.97m4.451-2.367a1.707 1.707 0 0 1-.057-.18 2.184 2.184 0 0 1-.062-.631h-.063a6.692 6.692 0 0 1-3.263-.84 4.057 4.057 0 0 1-1.826.603 3.277 3.277 0 0 1-1.353-.157v1.31c0 .29.065.56.186.796a27.88 27.88 0 0 1 4.075-.738 31.368 31.368 0 0 1 2.363-.163m1.746-.009a2.6 2.6 0 0 1-.117-.242 3.223 3.223 0 0 1-.21-.746 6.886 6.886 0 0 1-.977.158c-.012.19.002.361.041.513.03.115.075.219.136.312.373-.004.748-.003 1.127.005"/><path fill="#65CDF7" d="M62.823 30.477a4.801 4.801 0 0 0-.7.528c1.07.15 2.106.35 3.099.594a4.08 4.08 0 0 1 1.527-.62 3.384 3.384 0 0 1 1.654.112 3.273 3.273 0 0 1 1.519 1.045 1.64 1.64 0 0 0 .408-.476c.14-.249.216-.538.216-.851V20.564c0-.313-.076-.603-.216-.851v-.001a1.67 1.67 0 0 0-.615-.617l-8.686-5.122a1.628 1.628 0 0 0-.83-.234c-.283 0-.566.078-.83.234h-.001l-8.687 5.122a1.671 1.671 0 0 0-.613.616v.002c-.14.248-.216.538-.216.851v5.194a5.039 5.039 0 0 0 1.549 1.858c.4.298.843.539 1.31.705a7.24 7.24 0 0 1 1.513-4.738 7.024 7.024 0 0 1 3.565-2.44 2.586 2.586 0 0 1-.203-1.003c0-.7.278-1.334.727-1.793a2.45 2.45 0 0 1 1.756-.743c.406 0 .79.1 1.13.28.24.124.457.288.643.482a3.129 3.129 0 0 0 .504-.984.278.278 0 0 1 .35-.187c.147.046.23.207.183.357a3.724 3.724 0 0 1-.417.905 2.705 2.705 0 0 1 .953.227c.141.061.208.23.147.374a.277.277 0 0 1-.366.15 2.157 2.157 0 0 0-.883-.183 7.58 7.58 0 0 1 .709 1.593c.204.658.318 1.355.318 2.078a7.254 7.254 0 0 1-2.064 5.09 7.02 7.02 0 0 1-2.839 1.768c.035.249.095.474.18.674.077.183.177.346.301.489.87.036 1.725.105 2.56.205a5.316 5.316 0 0 1 1.076-.882c.05-.57.214-1.12.484-1.615a3.876 3.876 0 0 1 1.196-1.33 3.955 3.955 0 0 1 1.673-.662 4.353 4.353 0 0 1 1.846.128.26.26 0 0 1 .185.264 4.155 4.155 0 0 1-.496 1.762 3.877 3.877 0 0 1-1.196 1.331 3.952 3.952 0 0 1-1.672.661 4.342 4.342 0 0 1-1.75-.102"/><path fill="#9CDCF9" d="M70.545 27.858a12.63 12.63 0 0 1-3.073.673 4.16 4.16 0 0 0 .466-1.706.259.259 0 0 0-.185-.264 4.353 4.353 0 0 0-1.846-.128 3.959 3.959 0 0 0-1.673.661 3.872 3.872 0 0 0-1.058 1.098 12.61 12.61 0 0 1-1.737-.578 7.255 7.255 0 0 0 1.9-4.918 7 7 0 0 0-.317-2.078 7.573 7.573 0 0 0-.71-1.593 2.112 2.112 0 0 1 .884.184.277.277 0 0 0 .366-.151.287.287 0 0 0-.148-.374 2.707 2.707 0 0 0-.952-.227l.078-.129a3.72 3.72 0 0 0 .34-.776.287.287 0 0 0-.184-.357.279.279 0 0 0-.35.187 3.144 3.144 0 0 1-.504.984 2.495 2.495 0 0 0-.642-.483 2.428 2.428 0 0 0-1.13-.28 2.45 2.45 0 0 0-1.757.744 2.555 2.555 0 0 0-.727 1.793 2.588 2.588 0 0 0 .203 1.003 6.952 6.952 0 0 0-2.42 1.27 13.296 13.296 0 0 1-1.832-5.002l5.83-3.439h.002c.264-.155.547-.233.83-.233.282 0 .565.078.83.234l8.687 5.121c.265.158.473.369.614.618.14.25.215.539.215.852v7.294z"/><path fill="#FFC735" d="M60.465 19.045a.47.47 0 0 0-.464.474.47.47 0 0 0 .464.474.47.47 0 0 0 .464-.474.47.47 0 0 0-.464-.474zm-1.828 2.53c-.14-.27-.337-.606-.417-.889a2.01 2.01 0 0 1-.074-.546c0-.542.215-1.034.563-1.389a1.897 1.897 0 0 1 2.923.243l.001.001a7.05 7.05 0 0 1 .855 1.795c.187.604.292 1.244.292 1.906 0 1.83-.726 3.486-1.9 4.685a6.399 6.399 0 0 1-4.586 1.94c-.554 0-1.08-.07-1.58-.202a5.005 5.005 0 0 0 3.022-1.483 5.21 5.21 0 0 0 1.482-3.655 5.282 5.282 0 0 0-.581-2.406zm-5.365 6.791a4.2 4.2 0 0 0 .006.117c.289.062.583.095.88.095a4.44 4.44 0 0 0 3.182-1.347 4.632 4.632 0 0 0 1.318-3.25 4.617 4.617 0 0 0-.612-2.318 6.458 6.458 0 0 0-3.385 2.275 6.66 6.66 0 0 0-1.39 4.428zm-3.42-1.52a5.773 5.773 0 0 0 2.478 1.94 3.559 3.559 0 0 1-1.17.3c-.49.04-.956-.028-1.308-.203v-2.036z"/><path fill="#9CCC4C" d="M60.038 31.301a31.875 31.875 0 0 0-5.873.082 27.539 27.539 0 0 0-3.787.67c.09.083.192.159.304.225l.013.008.739.436a25.96 25.96 0 0 1 4.854-1.135 31.278 31.278 0 0 1 3.75-.286m-.242 1.605a3.758 3.758 0 0 0 .082 1.513c.139.516.399.995.783 1.398.384.404.857.693 1.376.866a4.06 4.06 0 0 0 1.56.19 3.767 3.767 0 0 0-.08-1.514c-.14-.516-.4-.995-.784-1.398a3.354 3.354 0 0 0-1.376-.866 4.059 4.059 0 0 0-1.56-.19m5.778-.921c.153.423.378.802.668 1.114.317.341.71.603 1.17.754a2.9 2.9 0 0 0 1.414.094 3.55 3.55 0 0 0 1.26-.494 3.25 3.25 0 0 0-.669-1.114 2.768 2.768 0 0 0-1.17-.754 2.892 2.892 0 0 0-1.413-.094 3.556 3.556 0 0 0-1.26.494m-2.508-1.98c.475.11.961.133 1.434.062a3.46 3.46 0 0 0 1.46-.576A3.363 3.363 0 0 0 67 28.335a3.6 3.6 0 0 0 .414-1.327 3.823 3.823 0 0 0-1.433-.062 3.454 3.454 0 0 0-1.461.576 3.359 3.359 0 0 0-1.038 1.155 3.604 3.604 0 0 0-.414 1.328"/><path fill="#B3D45F" d="M65.575 31.985c1.61-.092 3.45.572 4.497 1.476l.014-.009a3.254 3.254 0 0 0-.668-1.114 2.771 2.771 0 0 0-1.17-.754 2.895 2.895 0 0 0-1.413-.094 3.556 3.556 0 0 0-1.26.494v.001zm-5.779.92c1.643.697 3.322 2.55 3.786 3.968h.015a3.762 3.762 0 0 0-.08-1.514 3.234 3.234 0 0 0-.784-1.398 3.355 3.355 0 0 0-1.376-.866 4.05 4.05 0 0 0-1.56-.19zm3.274-2.928c.892-1.598 2.84-2.73 4.343-2.962v-.007a3.824 3.824 0 0 0-1.433-.062 3.455 3.455 0 0 0-1.461.576 3.36 3.36 0 0 0-1.038 1.155 3.6 3.6 0 0 0-.41 1.3z"/><path fill="#FFF226" d="M57.236 29.252a6.422 6.422 0 0 0 3.644-1.871 6.677 6.677 0 0 0 1.9-4.685 6.42 6.42 0 0 0-.292-1.906 7.06 7.06 0 0 0-.855-1.795v-.001a1.949 1.949 0 0 0-.687-.604 1.897 1.897 0 0 0-2.237.36c-.159.164-.29.355-.386.565a1.889 1.889 0 0 1 1.423-.654 1.782 1.782 0 0 1 1.486.79v.002c.332.526.598 1.109.774 1.733.163.583.246 1.201.227 1.84a6.65 6.65 0 0 1-1.972 4.525 6.461 6.461 0 0 1-3.025 1.7m-3.964-.885a4.2 4.2 0 0 0 .006.117c.426-2.012 2.01-4.943 4.768-6.82a6.458 6.458 0 0 0-3.385 2.275 6.66 6.66 0 0 0-1.39 4.428m-3.419-1.519a5.759 5.759 0 0 0 2.478 1.939c-1.204.065-2.095-.42-2.478-1.02v-.92z"/><path fill="#65CDF7" d="M47.469 25.106v2.231c0 .156-.076.29-.209.369l-1.892 1.115a.4.4 0 0 1-.416 0l-1.892-1.115a.417.417 0 0 1-.209-.369v-2.231c0-.156.076-.29.21-.369l1.89-1.115a.399.399 0 0 1 .417 0l1.892 1.115a.418.418 0 0 1 .209.369m24.65-10.471v1.187a.224.224 0 0 1-.111.196L71 16.61a.212.212 0 0 1-.222 0l-1.006-.593a.222.222 0 0 1-.11-.196v-1.187c0-.084.04-.155.11-.197l1.006-.593a.212.212 0 0 1 .222 0l1.007.593c.07.042.11.113.11.197m.113 22.476v1.778c0 .124-.06.231-.166.294l-1.508.888a.318.318 0 0 1-.332 0l-1.507-.888a.332.332 0 0 1-.166-.294V37.11c0-.125.06-.232.166-.294l1.507-.889a.319.319 0 0 1 .332 0l1.508.89a.33.33 0 0 1 .166.293"/></g></svg>