<svg width="90" height="52" viewBox="0 0 90 52" xmlns="http://www.w3.org/2000/svg"><title>4D6A8B59-99E6-4804-8B16-906AE867DFAC</title><path d="M47.1.7l-15 6.1-14-2.7L0 13.2l11.3 38.1 34.1-21.2L67 31.3l23-12.8L47.1.7zm25.6 13.8l-8 4-6.2-3.4 7.5-3.6 6.7 3zm-36.9-.4l-8.2-1.2-3-2.8 7.8 1.3 3.4 2.7zM33 11.4l7 1.2 3.9 2.8-7.4-1.1-3.5-2.9zm3.2 3l4.2 3.4-8.8-1.2-3.6-3.4 8.2 1.2zm.7.1l7.5 1.1 4.6 3.3-7.9-1-4.2-3.4zm8.2 1l7.2-3.3 5.1 2.9-7.6 3.6-4.7-3.2zm-.4-.3l-4-2.7 6.7-2.9 4.4 2.5-7.1 3.1zm-4.3-3L37 9.9l6.3-2.7L47 9.3l-6.6 2.9zm-.7.1l-7-1.2-3-2.4 6.7 1.2 3.3 2.4zM32 11.1l-7.7-1.3-2.5-2.4 7.3 1.3 2.9 2.4zm-8.4-1.2L15.7 14l-2-2.8L21 7.4l2.6 2.5zm.2.3l3 2.9-8.5 4.6-2.3-3.3 7.8-4.2zm3.3 3.1l3.6 3.4-9.3 5.2-2.8-4 8.5-4.6zm3.9 3.8l4.4 4.2-10.3 5.9-3.5-4.9 9.4-5.2zm.9-.2l8.9 1.2 5.1 4.1-9.5-1-4.5-4.3zm9.7 1.3l7.9 1 5.6 3.9-8.4-.9-5.1-4zm8.6.9l7.7-3.7 6.1 3.5-8.1 4.1-5.7-3.9zm15.3-7.9L58 14.8l-5.2-2.9 7.1-3.2 5.6 2.5zm-6-2.7l-7 3.2L48 9.3l6.7-2.9 4.8 2.1zm-5.2-2.3l-6.6 2.9L43.9 7l6.3-2.7 4.1 1.9zm-8.2-3.8l3.7 1.7-6.3 2.6-3.4-1.9 6-2.4zm-6.5 2.7L43 7l-6.3 2.7-3.1-2.1 6-2.5zm-6.5 2.5l3 2.1-6.6-1.2-2.7-2.1 6.3 1.2zm-7-1.3l2.7 2.1-7.2-1.3L19.3 5l6.8 1.3zm-7.4-1.1l2.2 2.1-7.3 3.7-1.7-2.5 6.8-3.3zM3.8 12.7L11.2 9l1.7 2.5-8 4.1-1.1-2.9zM5 15.8l8-4.1 1.9 2.8L6.3 19 5 15.8zm1.5 3.5l8.7-4.6 2.3 3.3L8 23.1l-1.5-3.8zm1.7 4.2l9.5-5.1 2.8 4-10.4 5.8-1.9-4.7zm2.1 5.2l10.5-5.8 3.4 5-11.5 6.6-2.4-5.8zM16.1 43l-3.2-7.9 11.6-6.7 4.6 6.7-13 7.9zm14.1-8.6l-4.7-6.6 10.4-6 5.8 5.6-11.5 7zm12.6-7.3l-5.9-5.6 9.6 1 6.6 5.3-10.3-.7zM54 28l-6.7-5.3 8.4.9 7.2 5.1L54 28zm9.7.4l-7.3-5 8.2-4.2 7.9 4.4-8.8 4.8zm1.7-9.5l8-4.1 8.5 3.8-8.6 4.6-7.9-4.3z" fill="#FFF"/></svg>