<svg width="42" height="22" viewBox="0 0 42 22" xmlns="http://www.w3.org/2000/svg"><title>23245F88-9571-4856-83E0-9028EEDACD1F</title><path d="M11.308 0c-.892 0-1.616.704-1.616 1.571v18.857c0 .868.724 1.572 1.616 1.572.892 0 1.615-.704 1.615-1.572V1.571C12.923.704 12.2 0 11.308 0zm19.384 0c-.892 0-1.615.704-1.615 1.571v18.857c0 .868.723 1.572 1.615 1.572s1.616-.704 1.616-1.572V1.571C32.308.704 31.584 0 30.692 0zM6.462 3.143c-.893 0-1.616.703-1.616 1.571v12.572c0 .868.723 1.571 1.616 1.571.892 0 1.615-.703 1.615-1.571V4.714c0-.868-.723-1.571-1.615-1.571zm9.692 0c-.892 0-1.616.703-1.616 1.571v12.572c0 .868.724 1.571 1.616 1.571.892 0 1.615-.703 1.615-1.571V4.714c0-.868-.723-1.571-1.615-1.571zm9.692 0c-.892 0-1.615.703-1.615 1.571v12.572c0 .868.723 1.571 1.615 1.571s1.616-.703 1.616-1.571V4.714c0-.868-.724-1.571-1.616-1.571zm9.692 0c-.892 0-1.615.703-1.615 1.571v12.572c0 .868.723 1.571 1.615 1.571.893 0 1.616-.703 1.616-1.571V4.714c0-.868-.723-1.571-1.616-1.571zM1.615 6.286C.723 6.286 0 6.989 0 7.857v6.286c0 .868.723 1.571 1.615 1.571.893 0 1.616-.703 1.616-1.571V7.857c0-.868-.723-1.571-1.616-1.571zm19.385 0c-.892 0-1.615.703-1.615 1.571v6.286c0 .868.723 1.571 1.615 1.571s1.615-.703 1.615-1.571V7.857c0-.868-.723-1.571-1.615-1.571zm19.385 0c-.893 0-1.616.703-1.616 1.571v6.286c0 .868.723 1.571 1.616 1.571.892 0 1.615-.703 1.615-1.571V7.857c0-.868-.723-1.571-1.615-1.571z" fill="#FFC735"/></svg>