<svg width="80" height="80" viewBox="0 0 80 80" xmlns="http://www.w3.org/2000/svg"><title>793AB547-208B-48FC-9F07-D364029F79F9</title><g transform="translate(1 1)" fill="none" fill-rule="evenodd"><circle stroke="#94D53B" stroke-width="2" cx="39" cy="39" r="39"/><g fill-rule="nonzero" fill="#000"><path d="M56 24.831A2.836 2.836 0 0 0 53.169 22H24.83A2.836 2.836 0 0 0 22 24.831v6.927c0 .723.274 1.386.73 1.888A2.805 2.805 0 0 0 22 35.54v6.927c0 .723.274 1.385.73 1.887a2.789 2.789 0 0 0-.73 1.888v6.927A2.836 2.836 0 0 0 24.831 56h28.331a2.836 2.836 0 0 0 2.831-2.831v-6.927c0-.723-.274-1.386-.73-1.888.45-.502.73-1.164.73-1.887V35.54c0-.723-.274-1.386-.73-1.888.45-.502.73-1.164.73-1.887v-6.934H56zM54.113 53.17a.943.943 0 0 1-.944.944H24.83a.943.943 0 0 1-.944-.944v-6.927c0-.522.422-.944.944-.944h28.331c.522 0 .944.422.944.944v6.927h.007zm0-10.709a.943.943 0 0 1-.944.944H24.83a.943.943 0 0 1-.944-.944v-6.92c0-.522.422-.944.944-.944h28.331c.522 0 .944.422.944.944v6.92h.007zm0-10.702a.943.943 0 0 1-.944.944H24.83a.943.943 0 0 1-.944-.944v-6.927c0-.522.422-.944.944-.944h28.331c.522 0 .944.422.944.944v6.927h.007z"/><path d="M27.194 25.674a.943.943 0 0 0-.944.944v3.347a.943.943 0 1 0 1.887 0v-3.347a.947.947 0 0 0-.943-.944zm3.868 0a.943.943 0 0 0-.943.944v3.347a.943.943 0 1 0 1.887 0v-3.347a.947.947 0 0 0-.944-.944zm3.868 0a.943.943 0 0 0-.943.944v3.347a.943.943 0 1 0 1.887 0v-3.347a.947.947 0 0 0-.943-.944zm15.876 1.68h-8.199a.943.943 0 1 0 0 1.888h8.2a.943.943 0 1 0 0-1.888zm-23.612 9.029a.943.943 0 0 0-.944.944v3.346a.943.943 0 1 0 1.887 0v-3.346a.943.943 0 0 0-.943-.944zm3.868 0a.943.943 0 0 0-.943.944v3.346a.943.943 0 1 0 1.887 0v-3.346a.943.943 0 0 0-.944-.944zm3.868 0a.943.943 0 0 0-.943.944v3.346a.943.943 0 1 0 1.887 0v-3.346a.943.943 0 0 0-.943-.944zm15.876 1.673h-8.199a.943.943 0 1 0 0 1.888h8.2a.943.943 0 1 0 0-1.888zm-23.612 9.029a.943.943 0 0 0-.944.944v3.346a.943.943 0 1 0 1.887 0V48.03a.943.943 0 0 0-.943-.944zm3.868 0a.943.943 0 0 0-.943.944v3.346a.943.943 0 1 0 1.887 0V48.03a.943.943 0 0 0-.944-.944zm3.868 0a.943.943 0 0 0-.943.944v3.346a.943.943 0 1 0 1.887 0V48.03a.943.943 0 0 0-.943-.944zm15.876 1.673h-8.199a.943.943 0 1 0 0 1.888h8.2a.943.943 0 1 0 0-1.888z"/></g></g></svg>