<svg width="80" height="80" viewBox="0 0 80 80" xmlns="http://www.w3.org/2000/svg"><title>ED4865FC-5D23-40B6-A8DE-2D044BE2EA82</title><g transform="translate(1 1)" fill="none" fill-rule="evenodd"><circle stroke="#4485D5" stroke-width="2" cx="39" cy="39" r="39"/><g fill-rule="nonzero" fill="#000"><path d="M39.48 40.221c-1.953 0-3.542 1.62-3.542 3.61a3.6 3.6 0 0 0 2.59 3.473v2.48a.96.96 0 0 0 .953.972.961.961 0 0 0 .953-.972v-2.48a3.608 3.608 0 0 0 2.59-3.472c0-1.991-1.59-3.61-3.543-3.61zm0 5.278c-.898 0-1.635-.744-1.635-1.667 0-.917.73-1.668 1.636-1.668.899 0 1.636.744 1.636 1.668 0 .916-.737 1.667-1.636 1.667z"/><path d="M52.095 35.977h-1.277v-4.416C50.824 25.188 45.734 20 39.48 20s-11.344 5.188-11.344 11.561v4.416h-1.27c-1.576 0-2.86 1.31-2.86 2.915v13.194c0 1.605 1.284 2.914 2.86 2.914h25.228c1.575 0 2.86-1.31 2.86-2.914V38.892c0-1.606-1.285-2.915-2.86-2.915zM30.05 31.561c0-5.298 4.232-9.611 9.43-9.611 5.2 0 9.431 4.313 9.431 9.611v4.416h-1.906v-4.416c0-4.23-3.373-7.668-7.524-7.668s-7.524 3.438-7.524 7.668v4.416H30.05v-4.416zm15.048 0v4.416H33.863v-4.416c0-3.155 2.522-5.725 5.618-5.725 3.096 0 5.617 2.563 5.617 5.725zm7.95 20.525a.961.961 0 0 1-.953.971H26.866a.961.961 0 0 1-.953-.971v-2.48h3.056a.961.961 0 0 0 .953-.972.961.961 0 0 0-.953-.972h-3.056V45.72h4.969a.961.961 0 0 0 .953-.971.961.961 0 0 0-.953-.971h-4.969V38.9c0-.538.426-.972.953-.972h25.23a.96.96 0 0 1 .952.972v13.187z"/></g></g></svg>