<svg width="80" height="80" viewBox="0 0 80 80" xmlns="http://www.w3.org/2000/svg"><title>1840576E-090D-4E48-B1A9-96B0E5EB89C2</title><g transform="translate(1 1)" fill="none" fill-rule="evenodd"><circle stroke="#4485D5" stroke-width="2" cx="39" cy="39" r="39"/><g fill-rule="nonzero" fill="#000"><path d="M38.5 30c-4.688 0-8.5 3.812-8.5 8.5 0 4.688 3.812 8.5 8.5 8.5 4.688 0 8.5-3.812 8.5-8.5 0-4.688-3.812-8.5-8.5-8.5zm0 15.024c-2.55 0-4.751-1.472-5.823-3.609h2.417a.987.987 0 1 0 0-1.976h-3.04a6.87 6.87 0 0 1-.078-.932c0-.357.035-.7.091-1.044h5.985a.987.987 0 1 0 0-1.976h-5.333a6.52 6.52 0 0 1 5.774-3.504 6.53 6.53 0 0 1 6.524 6.524c.007 3.588-2.922 6.517-6.517 6.517z"/><path d="M56 35.173h-3.79a13.869 13.869 0 0 0-1.163-2.806l2.679-2.679c.39-.39.39-1.02 0-1.417l-3.997-3.997c-.39-.39-1.02-.39-1.417 0l-2.679 2.679a13.318 13.318 0 0 0-2.806-1.162v-3.792a.998.998 0 0 0-1-.999h-5.655a.998.998 0 0 0-.999 1v3.79a13.9 13.9 0 0 0-2.806 1.163l-2.679-2.679c-.39-.39-1.02-.39-1.417 0l-3.997 3.997c-.404.361-.397 1.006 0 1.417l2.679 2.679a13.318 13.318 0 0 0-1.162 2.806h-3.792a.998.998 0 0 0-.999 1v5.655c0 .552.446.999 1 .999h3.79a13.9 13.9 0 0 0 1.163 2.806l-2.679 2.679c-.411.39-.368 1.042 0 1.417l3.997 3.997c.39.39 1.02.39 1.417 0l2.679-2.679c.893.49 1.828.879 2.806 1.162v3.792c0 .553.447.999 1 .999h5.655a.998.998 0 0 0 .999-1v-3.79a13.869 13.869 0 0 0 2.806-1.163l2.679 2.679c.39.39 1.02.39 1.417 0l3.997-3.997c.39-.39.39-1.02 0-1.417l-2.679-2.679c.49-.893.879-1.828 1.162-2.806h3.792a.998.998 0 0 0 .999-1v-5.655a.998.998 0 0 0-1-.999zm-.998 5.655h-3.565c-.468 0-.872.326-.978.78a11.44 11.44 0 0 1-1.516 3.65.998.998 0 0 0 .141 1.24l2.523 2.522-2.587 2.587-2.522-2.523a.998.998 0 0 0-1.24-.141 11.788 11.788 0 0 1-3.65 1.516c-.454.106-.78.51-.78.978v3.565h-3.656v-3.565c0-.468-.326-.872-.78-.978a11.44 11.44 0 0 1-3.65-1.516.997.997 0 0 0-1.24.141l-2.522 2.523-2.587-2.587 2.523-2.522a.998.998 0 0 0 .141-1.24 11.788 11.788 0 0 1-1.516-3.65 1.008 1.008 0 0 0-.978-.78h-3.565v-3.656h3.565c.468 0 .872-.326.978-.78.29-1.297.8-2.523 1.516-3.65a.998.998 0 0 0-.141-1.24l-2.523-2.522 2.587-2.587 2.522 2.523a.998.998 0 0 0 1.24.141 11.788 11.788 0 0 1 3.65-1.516c.454-.106.78-.51.78-.978v-3.565h3.656v3.565c0 .468.326.872.78.978 1.297.29 2.53.8 3.65 1.516a.997.997 0 0 0 1.24-.141l2.522-2.523 2.587 2.587-2.523 2.522a.998.998 0 0 0-.141 1.24 11.788 11.788 0 0 1 1.516 3.65c.106.454.51.78.978.78h3.565v3.656z"/></g></g></svg>