<svg width="80" height="80" viewBox="0 0 80 80" xmlns="http://www.w3.org/2000/svg"><title>DBFEB5FC-5688-4026-8516-38BBAF7BDC4C</title><g transform="translate(1 1)" fill="none" fill-rule="evenodd"><circle stroke="#94D53B" stroke-width="2" cx="39" cy="39" r="39"/><path d="M39.5 20c-7.963 0-14.437 6.39-14.437 14.25 0 3.31 1.151 6.35 3.076 8.771l-6.002 9.325a.871.871 0 0 0-.137.472.84.84 0 0 0 .123.432.907.907 0 0 0 .82.418l4.649-.378 1.928 4.197a.928.928 0 0 0 .793.513c.33 0 .607-.17.765-.445l5.373-9.379a14.542 14.542 0 0 0 6.098 0l5.373 9.379a.864.864 0 0 0 .765.445c.321 0 .66-.224.793-.513l1.928-4.197 4.649.378a.907.907 0 0 0 .82-.418.84.84 0 0 0 .123-.432.871.871 0 0 0-.137-.472l-6.002-9.325a14.044 14.044 0 0 0 3.076-8.771C53.937 26.39 47.463 20 39.5 20zm0 1.727c7.017 0 12.687 5.597 12.687 12.523 0 6.926-5.67 12.523-12.687 12.523-7.017 0-12.687-5.597-12.687-12.523 0-6.926 5.67-12.523 12.687-12.523zm0 3.023c-5.305 0-9.625 4.264-9.625 9.5s4.32 9.5 9.625 9.5 9.625-4.264 9.625-9.5-4.32-9.5-9.625-9.5zm0 1.727c4.36 0 7.875 3.47 7.875 7.773 0 4.303-3.515 7.773-7.875 7.773-4.36 0-7.875-3.47-7.875-7.773 0-4.303 3.515-7.773 7.875-7.773zM29.355 44.371a14.525 14.525 0 0 0 5.346 3.32l-4.306 7.53-1.477-3.199a.9.9 0 0 0-.861-.5l-3.5.284 4.798-7.435zm20.29 0l4.798 7.435-3.5-.283a.9.9 0 0 0-.861.499l-1.477 3.198-4.306-7.53a14.525 14.525 0 0 0 5.346-3.32z" stroke-width=".3" stroke="#000" fill="#000" fill-rule="nonzero"/></g></svg>