<svg xmlns="http://www.w3.org/2000/svg" width="15" height="27" viewBox="0 0 15 27"><path fill="#282422" fill-opacity=".87" d="M7.484 4.593a2.758 2.758 0 0 0-2.752 2.754 2.756 2.756 0 0 0 2.752 2.75 2.753 2.753 0 0 0 2.751-2.751 2.755 2.755 0 0 0-2.75-2.752zm0 9.398A6.651 6.651 0 0 1 .837 7.347 6.656 6.656 0 0 1 7.484.698a6.656 6.656 0 0 1 6.647 6.647 6.654 6.654 0 0 1-6.647 6.644zm2.688 5.419l3.717 3.719a1.948 1.948 0 0 1-2.753 2.752l-3.652-3.655-3.67 3.653c-.37.38-.87.568-1.368.568a1.9 1.9 0 0 1-1.367-.568l-.032-.033a1.927 1.927 0 0 1 .03-2.722l3.717-3.717A12.38 12.38 0 0 1 .936 17.81l-.002-.002a1.945 1.945 0 0 1-.609-2.682c.003-.001.003-.004.003-.006a1.946 1.946 0 0 1 2.682-.606 8.44 8.44 0 0 0 8.948 0 1.948 1.948 0 0 1 2.076 3.297 12.445 12.445 0 0 1-3.862 1.599z"/></svg>