<svg xmlns="http://www.w3.org/2000/svg" width="103" height="18" viewBox="0 0 103 18"><path fill="#ffd93b" d="M9.515 13.956l5.868 4.282-2.22-6.978 5.868-4.123h-7.137L9.515 0 7.137 7.137H0l5.868 4.123-2.22 6.978zm21 0l5.868 4.282-2.22-6.978 5.868-4.123h-7.137L30.515 0l-2.378 7.137H21l5.868 4.123-2.22 6.978zm21 0l5.868 4.282-2.22-6.978 5.868-4.123h-7.137L51.515 0l-2.378 7.137H42l5.868 4.123-2.22 6.978zm21 0l5.868 4.282-2.22-6.978 5.868-4.123h-7.137L72.515 0l-2.378 7.137H63l5.868 4.123-2.22 6.978z"/><path fill="#999" d="M93.515 13.956l5.868 4.282-2.22-6.978 5.868-4.123h-7.137L93.515 0l-2.378 7.137H84l5.868 4.123-2.22 6.978z"/></svg>