<svg xmlns="http://www.w3.org/2000/svg" width="30" height="23" viewBox="0 0 30 23"><g fill="#FFF"><path d="M9.375 12.778c1.724 0 3.125-1.433 3.125-3.195 0-1.761-1.401-3.194-3.125-3.194S6.25 7.822 6.25 9.583c0 1.762 1.401 3.195 3.125 3.195zm0-5.111c1.034 0 1.875.86 1.875 1.916 0 1.057-.841 1.917-1.875 1.917S7.5 10.64 7.5 9.583s.841-1.916 1.875-1.916zm4.275 7.068c-.999-.601-2.551-1.318-4.275-1.318-1.724 0-3.276.717-4.275 1.318-.832.502-1.35 1.477-1.35 2.545v.41c0 .814.6 1.477 1.34 1.477h8.57c.74 0 1.34-.663 1.34-1.478v-.41c0-1.067-.518-2.042-1.35-2.544zm.1 2.954c0 .133-.074.2-.09.2H5.09c-.016 0-.09-.067-.09-.2v-.41c0-.607.288-1.174.735-1.443.864-.52 2.197-1.142 3.64-1.142s2.776.621 3.64 1.142c.447.27.735.836.735 1.444v.41zm11.875-2.356h-7.5a.632.632 0 0 0-.625.64c0 .352.28.638.625.638h7.5a.632.632 0 0 0 .625-.639.632.632 0 0 0-.625-.639zm0-3.833h-10a.632.632 0 0 0-.625.639c0 .353.28.639.625.639h10a.632.632 0 0 0 .625-.64.632.632 0 0 0-.625-.638z"/><path d="M27.5 2.556h-10C17.5 1.146 16.378 0 15 0s-2.5 1.146-2.5 2.556h-10C1.122 2.556 0 3.702 0 5.11v15.333C0 21.854 1.122 23 2.5 23h25c1.378 0 2.5-1.146 2.5-2.556V5.111c0-1.41-1.122-2.555-2.5-2.555zm-13.75 0c0-.705.56-1.278 1.25-1.278s1.25.573 1.25 1.278V5.11h-2.5V2.556zm15 17.888c0 .705-.56 1.278-1.25 1.278h-25c-.69 0-1.25-.573-1.25-1.278V5.111c0-.704.56-1.278 1.25-1.278h10V5.75c0 .353.28.639.625.639h3.75a.632.632 0 0 0 .625-.639V3.833h10c.69 0 1.25.574 1.25 1.278v15.333z"/></g></svg>