<svg xmlns="http://www.w3.org/2000/svg" width="30" height="25" viewBox="0 0 30 25"><g fill="#FFF"><path d="M27.6 5.25h-4.262l-2-5H8.662l-2 5H6v-2.5H3v2.5h-.6A2.402 2.402 0 0 0 0 7.65v14.684a2.42 2.42 0 0 0 2.417 2.416h25.167A2.42 2.42 0 0 0 30 22.334V7.65c0-1.324-1.076-2.4-2.4-2.4zM4 3.75h1v1.5H4v-1.5zm25 18.584c0 .781-.636 1.416-1.416 1.416H2.416A1.418 1.418 0 0 1 1 22.334V7.65c0-.772.628-1.4 1.4-1.4h4.938l2-5h11.324l2 5H27.6c.771 0 1.399.628 1.399 1.4v14.684z"/><path d="M15 4.75c-4.963 0-9 4.037-9 9 0 4.962 4.037 9 9 9 4.962 0 9-4.038 9-9 0-4.963-4.038-9-9-9zm0 17c-4.411 0-8-3.589-8-8s3.589-8 8-8 8 3.589 8 8-3.589 8-8 8z"/><path d="M15 7.75c-3.309 0-6 2.691-6 6 0 3.308 2.691 6 6 6 3.308 0 6-2.692 6-6 0-3.309-2.692-6-6-6zm0 11c-2.757 0-5-2.243-5-5s2.243-5 5-5 5 2.243 5 5-2.243 5-5 5zm11-11.5c-1.103 0-2 .897-2 2s.897 2 2 2 2-.897 2-2-.897-2-2-2zm0 3a1.001 1.001 0 0 1 0-2 1.001 1.001 0 0 1 0 2z"/></g></svg>