<svg xmlns="http://www.w3.org/2000/svg" width="29" height="30" viewBox="0 0 29 30"><g fill="#FFF"><path d="M15 8H8v7h7V8zm-1 6H9V9h5v5zm11.5-6h-8a.5.5 0 1 0 0 1h8a.5.5 0 1 0 0-1zm0 3h-8a.5.5 0 1 0 0 1h8a.5.5 0 1 0 0-1zm0 3h-8a.5.5 0 1 0 0 1h8a.5.5 0 1 0 0-1zm0 3H9a.5.5 0 1 0 0 1h16.5a.5.5 0 1 0 0-1zm-9 3H9a.5.5 0 1 0 0 1h7.5a.5.5 0 1 0 0-1zm5 3H14a.5.5 0 1 0 0 1h7.5a.5.5 0 1 0 0-1zm-5 3H9a.5.5 0 1 0 0 1h7.5a.5.5 0 1 0 0-1z"/><path d="M19 27h7v-7h-7v7zm1-6h5v5h-5v-5z"/><path d="M29 6.5c0-.008-.005-.016-.005-.024V0H5v15H0v12c0 1.654 1.345 3 3 3h23a2.999 2.999 0 0 0 2.995-2.995V6.524c0-.008.005-.016.005-.024zM27.995 1v5H6V1h21.995zM1 27V16h4v11c0 1.103-.897 2-2 2s-2-.897-2-2zm25 2H5.235l.02-.029a2.98 2.98 0 0 0 .529-.86l.022-.062a2.97 2.97 0 0 0 .137-.474l.007-.045c.031-.172.05-.349.05-.53V7h21.995v20.005C27.995 28.105 27.1 29 26 29z"/><path d="M23 2H11v3h12V2zm-1 2H12V3h10v1z"/></g></svg>