<svg xmlns="http://www.w3.org/2000/svg" width="30" height="30" viewBox="0 0 30 30"><g fill="#FFF"><path d="M17.02 14.2a.5.5 0 0 0 .673.218c.029-.015 2.966-1.508 4.415-1.965a.499.499 0 0 0-.301-.952c-1.526.482-4.444 1.964-4.568 2.027a.5.5 0 0 0-.218.671zm.446-5.716a.498.498 0 0 0 .227-.055c.029-.015 2.966-1.507 4.415-1.964a.499.499 0 0 0-.301-.952c-1.526.482-4.444 1.964-4.568 2.027a.5.5 0 0 0 .227.944z"/><path d="M29.443 7.486a.499.499 0 0 0-.5.499v19.462c0 .825-.671 1.497-1.496 1.497H15.47v-1.149c.728-.254 2.623-.847 4.491-.847 4.347 0 7.299.962 7.328.972a.502.502 0 0 0 .657-.473V5.49a.498.498 0 0 0-.391-.488s-.391-.087-1.06-.21a.5.5 0 0 0-.18.982c.254.047.468.088.632.121v20.888c-1.13-.296-3.641-.833-6.986-.833-2.174 0-4.31.714-4.97.956-.588-.26-2.364-.956-4.511-.956-3.438 0-6.27.566-7.486.854V5.876c.997-.245 3.94-.886 7.486-.886 1.82 0 3.38.567 3.992.823V25.45a.5.5 0 0 0 .756.427c.05-.03 4.994-2.983 9.382-4.445a.499.499 0 0 0 .341-.474V.5a.499.499 0 0 0-.674-.467c-3.993 1.497-8.033 4.011-8.074 4.036a.5.5 0 0 0 .53.847c.036-.024 3.551-2.21 7.22-3.686v19.373c-3.406 1.184-6.963 3.116-8.483 3.982V5.49a.5.5 0 0 0-.276-.447c-.086-.042-2.131-1.05-4.714-1.05-4.51 0-7.976.975-8.122 1.017a.499.499 0 0 0-.362.48v21.957a.501.501 0 0 0 .636.48c.034-.01 3.485-.98 7.848-.98 1.824 0 3.383.569 3.992.824v1.173H2.495a1.499 1.499 0 0 1-1.497-1.497V7.985a.5.5 0 0 0-.998 0v19.462a2.498 2.498 0 0 0 2.495 2.495h24.952a2.498 2.498 0 0 0 2.495-2.495V7.985a.5.5 0 0 0-.5-.5z"/><path d="M17.02 11.205a.5.5 0 0 0 .673.218c.029-.015 2.966-1.507 4.415-1.964a.499.499 0 0 0-.301-.952c-1.526.482-4.444 1.964-4.568 2.027a.5.5 0 0 0-.218.671zm0 5.989a.5.5 0 0 0 .673.218c.029-.015 2.966-1.507 4.415-1.965a.499.499 0 0 0-.301-.952c-1.526.482-4.444 1.965-4.568 2.027a.5.5 0 0 0-.218.672zm-4.93-7.933c-3.08-.723-6.583.198-6.73.238a.5.5 0 0 0 .259.964c.033-.01 3.405-.896 6.244-.23a.499.499 0 1 0 .227-.972zm0 2.994c-3.08-.722-6.583.198-6.73.238a.5.5 0 0 0 .259.964c.033-.01 3.405-.896 6.244-.23a.499.499 0 1 0 .227-.972zm4.93 7.933a.5.5 0 0 0 .673.218c.029-.015 2.966-1.507 4.415-1.965a.499.499 0 0 0-.301-.952c-1.526.483-4.444 1.965-4.568 2.028a.5.5 0 0 0-.218.67zm-4.93-4.938c-3.08-.723-6.583.197-6.73.237a.5.5 0 0 0 .259.964c.033-.01 3.405-.896 6.244-.23a.499.499 0 1 0 .227-.972zm0 5.988c-3.08-.723-6.583.198-6.73.237a.5.5 0 0 0 .259.964c.033-.01 3.405-.896 6.244-.23a.499.499 0 1 0 .227-.972zm0-2.994c-3.08-.723-6.583.197-6.73.237a.5.5 0 0 0 .259.964c.033-.01 3.405-.896 6.244-.23a.499.499 0 1 0 .227-.972z"/></g></svg>