<svg xmlns="http://www.w3.org/2000/svg" width="30" height="30" viewBox="0 0 30 30"><g fill="#FFF"><path d="M8.25 3.25C7.01 3.25 6 4.26 6 5.5s1.01 2.25 2.25 2.25S10.5 6.74 10.5 5.5 9.49 3.25 8.25 3.25zm0 3.5a1.251 1.251 0 0 1 0-2.5 1.251 1.251 0 0 1 0 2.5z"/><path d="M30 8.446V2.554A2.307 2.307 0 0 0 27.696.25H2.304A2.307 2.307 0 0 0 0 2.554v5.891c0 .735.351 1.383.888 1.804A2.293 2.293 0 0 0 0 12.054v5.891c0 .735.351 1.383.888 1.805A2.293 2.293 0 0 0 0 21.553v5.892a2.307 2.307 0 0 0 2.304 2.304h25.392a2.307 2.307 0 0 0 2.303-2.304v-5.892a2.29 2.29 0 0 0-.888-1.804A2.29 2.29 0 0 0 30 17.946v-5.892a2.29 2.29 0 0 0-.889-1.804c.537-.422.889-1.07.889-1.804zm-1 13.108v5.892c0 .718-.585 1.303-1.304 1.303H2.304A1.305 1.305 0 0 1 1 27.447v-5.892c0-.719.585-1.304 1.304-1.304h25.392c.719 0 1.304.585 1.304 1.304zm0-9.5v5.891c0 .72-.585 1.305-1.304 1.305H2.304A1.305 1.305 0 0 1 1 17.946v-5.892c0-.719.585-1.304 1.304-1.304h25.392c.719 0 1.304.585 1.304 1.304zM2.304 9.75A1.306 1.306 0 0 1 1 8.446V2.554c0-.719.585-1.304 1.304-1.304h25.392c.719 0 1.304.585 1.304 1.304v5.891c0 .72-.585 1.304-1.304 1.304H2.304v.001zM11 5v1h14V5H11zm0 19h14v1H11v-1zm0-9.5h14v1H11v-1z"/><path d="M8.25 17.25c1.24 0 2.25-1.01 2.25-2.25s-1.01-2.25-2.25-2.25S6 13.76 6 15s1.01 2.25 2.25 2.25zm0-3.5a1.251 1.251 0 0 1 0 2.5 1.251 1.251 0 0 1 0-2.5zm0 13c1.24 0 2.25-1.01 2.25-2.25s-1.01-2.25-2.25-2.25S6 23.26 6 24.5s1.01 2.25 2.25 2.25zm0-3.5a1.251 1.251 0 0 1 0 2.5 1.251 1.251 0 0 1 0-2.5z"/></g></svg>