<svg xmlns="http://www.w3.org/2000/svg" width="15" height="16" viewBox="0 0 15 16"><path fill="#7F8FA4" d="M7.46 1.598c2.962 0 5.312 2.147 5.83 4.843.187 1 .187 1.948-.048 2.897-1.034 3.994 1.975 5.592-1.363 4.693-1.128-.3-2.257-.399-3.385-.15-.846.15-1.74.1-2.633-.15-2.256-.598-3.996-2.646-4.325-5.042-.517-3.895 2.398-7.091 5.924-7.091zM7.46 0C2.993 0-.58 4.095.078 8.888c.377 3.046 2.54 5.643 5.407 6.442a7.14 7.14 0 0 0 3.244.15c.94-.15 1.88-.1 2.774.15l1.081.299c1.41.4 2.727-.949 2.35-2.447l-.187-.849c-.235-.948-.282-1.897-.047-2.846a8.625 8.625 0 0 0 .094-3.645C14.089 2.746 11.174 0 7.46 0z"/></svg>