<svg xmlns="http://www.w3.org/2000/svg" width="43" height="40" viewBox="0 0 43 40"><path d="M42.22 23.102c-1.983-1.125-4.111-2.502-6.34-4.1a2.028 2.028 0 0 0 1.284-1.879v-4.662a2.038 2.038 0 0 0-2.045-2.026h-1.703a5.876 5.876 0 0 0 .919-8.103c-1.991-2.594-5.743-3.101-8.363-1.13-1.324.996-3.298 3.393-4.472 5.818-1.174-2.424-3.156-4.829-4.472-5.818-2.62-1.972-6.372-1.464-8.362 1.13a5.851 5.851 0 0 0-1.19 4.133c.033.343.34.594.687.562a.626.626 0 0 0 .568-.68 4.609 4.609 0 0 1 .176-1.774c.443-.708.994-1.112 1.681-1.235.47-.084.958-.03 1.423.093a2.826 2.826 0 0 0-.329 4.738c.655.493 2.207 1.263 4.068 1.79.638.181 1.777.448 1.773.476h-5.59a9.29 9.29 0 0 1-1.363-.816 4.666 4.666 0 0 1-1.115-1.191.633.633 0 0 0-.87-.188.62.62 0 0 0-.19.862c.326.502.725.949 1.189 1.333H7.881a2.038 2.038 0 0 0-2.045 2.025v4.663c0 .85.532 1.58 1.284 1.88C4.891 20.6 2.763 21.975.78 23.101a1.505 1.505 0 0 0-.743 1.654 1.524 1.524 0 0 0 1.37 1.208l1.55.148-.744 1.74c-.264.615-.109 1.3.394 1.745.295.262 1.021.604 1.797.194 1.278-.675 2.544-1.48 3.82-2.317v10.254C8.224 38.98 9.254 40 10.52 40h21.96c1.265 0 2.295-1.02 2.295-2.272V19.75c2.398 1.736 4.687 3.225 6.817 4.434a.27.27 0 0 1 .139.31.28.28 0 0 1-.259.229l-2.406.23a.63.63 0 0 0-.48.301.619.619 0 0 0-.04.563l1.08 2.522a.272.272 0 0 1-.074.329.28.28 0 0 1-.34.036 59.463 59.463 0 0 1-2.406-1.417.633.633 0 0 0-.868.198.62.62 0 0 0 .2.86c.825.511 1.637 1.024 2.457 1.446a1.623 1.623 0 0 0 1.797-.194c.503-.445.657-1.13.394-1.745l-.745-1.74 1.552-.148a1.524 1.524 0 0 0 1.37-1.208 1.504 1.504 0 0 0-.744-1.654zM21.5 8.318c1.31 0 2.409.906 2.695 2.117h-5.39A2.766 2.766 0 0 1 21.5 8.318zM10.756 2.063a4.754 4.754 0 0 1 5.51.132c1.146.862 2.86 2.931 3.959 5.082a4.042 4.042 0 0 0-1.571.963c-2.13-4.852-5.714-6.336-7.898-6.177zm5.34 6.697c-1.611-.457-3.084-1.157-3.652-1.584a1.585 1.585 0 0 1-.308-2.233 1.613 1.613 0 0 1 1.283-.629c.34 0 .682.106.972.324.568.427 1.644 1.644 2.52 3.059.31.498.565.971.765 1.413a12.717 12.717 0 0 1-1.58-.35zM8.224 25.972a61.699 61.699 0 0 1-4.437 2.732.28.28 0 0 1-.34-.036.272.272 0 0 1-.074-.33l1.08-2.521a.619.619 0 0 0-.04-.563.63.63 0 0 0-.48-.302l-2.406-.23a.28.28 0 0 1-.26-.228.27.27 0 0 1 .14-.31c2.13-1.209 4.419-2.698 6.817-4.435v6.223zm-.343-8.071a.783.783 0 0 1-.786-.778V12.46c0-.43.353-.778.786-.778h9.592V17.9H7.88zm16.387 20.852h-5.536v-3.078a.627.627 0 0 0-.63-.624c-.348 0-.63.28-.63.624v3.078H10.52c-.571 0-1.035-.46-1.035-1.025v-18.58h7.989V32.99c0 .345.282.624.63.624.347 0 .63-.28.63-.624V19.148h5.535v19.605zm0-20.852h-5.536v-6.218h5.536V17.9zM22.776 7.277c1.092-2.132 2.83-4.233 3.958-5.082a4.754 4.754 0 0 1 5.51-.132c-2.184-.159-5.389.611-7.898 6.177a4.039 4.039 0 0 0-1.57-.963zm3.313.42c.876-1.414 1.952-2.632 2.52-3.059a1.61 1.61 0 0 1 .972-.324c.486 0 .967.217 1.283.63.537.699.398 1.7-.308 2.232-.568.427-2.04 1.128-3.652 1.584-.638.181-1.165.288-1.58.35.2-.44.456-.914.765-1.413zM27.25 9.96c1.86-.527 3.412-1.297 4.067-1.79a2.816 2.816 0 0 0 1.106-1.878 2.801 2.801 0 0 0-.557-2.102 2.848 2.848 0 0 0-.873-.755c.471-.125.958-.177 1.414-.097.689.122 1.24.526 1.684 1.234A4.643 4.643 0 0 1 32.43 9.62a9.31 9.31 0 0 1-1.363.816h-5.59c-.005-.028 1.132-.294 1.773-.476zm6.265 27.769c0 .565-.464 1.025-1.035 1.025h-6.953V19.148h7.988v18.58zm1.603-19.827h-9.591v-6.218h9.591c.433 0 .786.349.786.778v4.662a.783.783 0 0 1-.786.778z"/></svg>