<svg xmlns="http://www.w3.org/2000/svg" width="58" height="41" viewBox="0 0 58 41"><defs><style>.cls-1{fill:#38aae2;fill-rule:evenodd}</style></defs><path id="car" class="cls-1" d="M41.348 12.224h-2.057a.965.965 0 0 0 0 1.929h2.058a.965.965 0 0 0-.001-1.929zm.252 7.97a1.981 1.981 0 0 0-1.572-.767H17.969a1.994 1.994 0 0 0-1.934 2.473l.515 2.058a1.991 1.991 0 0 0 1.934 1.51h21.032a1.991 1.991 0 0 0 1.934-1.51l.515-2.058a1.981 1.981 0 0 0-.365-1.706zm-1.509 1.242l-.515 2.058a.064.064 0 0 1-.062.049h-21.03a.064.064 0 0 1-.062-.049l-.515-2.058a.058.058 0 0 1 .012-.055.059.059 0 0 1 .051-.025h22.06a.064.064 0 0 1 .063.08zM21.006.906h-7.338a4.064 4.064 0 0 0-3.807 2.667L7.287 10.65A3.027 3.027 0 0 0 4.3 8.109H3.274a3.023 3.023 0 1 0 0 6.045H4.3a3 3 0 0 0 1.325-.307L3.423 16.6a5.1 5.1 0 0 0-1.113 3.174v19.139a2 2 0 0 0 1.99 1.993h3.09a2 2 0 0 0 1.994-1.994v-4.18h39.232v4.18a2 2 0 0 0 1.994 1.994h3.09a2 2 0 0 0 1.994-1.994V19.778a5.1 5.1 0 0 0-1.117-3.178l-2.206-2.757a3 3 0 0 0 1.325.307h1.029a3.023 3.023 0 1 0 0-6.045H53.7a3.027 3.027 0 0 0-2.984 2.541l-2.577-7.073A4.064 4.064 0 0 0 44.331.906h-7.337M4.3 12.224H3.274a1.093 1.093 0 1 1 0-2.186H4.3a1.093 1.093 0 1 1 0 2.186zM35.026.906H22.973M7.454 38.913a.064.064 0 0 1-.064.064H4.3a.064.064 0 0 1-.064-.064V34.13a4.028 4.028 0 0 0 2.122.6h1.096v4.18zm32.93-6.113H17.616v-2.119a.065.065 0 0 1 .064-.065h22.64a.064.064 0 0 1 .064.065V32.8zm13.378 6.109a.064.064 0 0 1-.064.064H50.61a.064.064 0 0 1-.064-.064v-4.18h1.093a4.028 4.028 0 0 0 2.122-.6v4.782zm-.69-21.1a3.164 3.164 0 0 1 .691 1.968v10.9a2.125 2.125 0 0 1-2.124 2.123h-9.326v-2.119a2 2 0 0 0-1.994-1.994H17.681a2 2 0 0 0-1.994 1.994V32.8H6.361a2.125 2.125 0 0 1-2.122-2.122v-10.9a3.162 3.162 0 0 1 .691-1.968l2.924-3.655h27.32a.965.965 0 0 0 0-1.929H8.768l2.906-7.992a2.129 2.129 0 0 1 1.995-1.4h30.663a2.129 2.129 0 0 1 1.995 1.4l2.907 7.992h-3.769a.965.965 0 1 0 0 1.929h4.682zm-.472-6.678a1.094 1.094 0 0 1 1.1-1.093h1.029a1.093 1.093 0 1 1 0 2.186H53.7a1.1 1.1 0 0 1-1.1-1.093zM10.477 26.63a1.994 1.994 0 1 0 1.994 1.994 2 2 0 0 0-1.994-1.994zm37.046 0a1.994 1.994 0 1 0 1.994 1.994 2 2 0 0 0-1.994-1.994zM9.963 18.4a3.537 3.537 0 1 0 3.537 3.535A3.541 3.541 0 0 0 9.963 18.4zm0 5.145a1.608 1.608 0 1 1 1.608-1.608 1.61 1.61 0 0 1-1.608 1.606zM48.037 18.4a3.537 3.537 0 1 0 3.537 3.537 3.541 3.541 0 0 0-3.537-3.537zm0 5.145a1.608 1.608 0 1 1 1.608-1.608 1.609 1.609 0 0 1-1.608 1.606z"/></svg>