<svg xmlns="http://www.w3.org/2000/svg" width="29" height="41" viewBox="0 0 29 41"><defs><style>.cls-1{fill:#38aae2;fill-rule:evenodd}</style></defs><path id="clothes" class="cls-1" d="M11.691 21.316H7.378V1.914h2.665a4.513 4.513 0 0 0 8.915 0h2.665v10.8a.705.705 0 1 0 1.41 0v-1.9l1.518.759a.7.7 0 0 0 .892-.224l3.385-4.8A.705.705 0 0 0 28.7 5.6L22.782.67a.7.7 0 0 0-.455-.17H6.672a.7.7 0 0 0-.454.17L.3 5.6a.705.705 0 0 0-.125.948l3.385 4.8a.705.705 0 0 0 .892.224l1.518-.759v11.208a.705.705 0 0 0 .705.705h5.018a.705.705 0 1 0-.002-1.41zm12.948-11.278l-1.606-.8V2.715L27.3 6.27zM14.5 4.311a3.107 3.107 0 0 1-3.021-2.4h6.042a3.108 3.108 0 0 1-3.021 2.4zM4.361 10.038L1.7 6.27l4.267-3.555v6.52zm23.775 4.2H13.957a.705.705 0 0 0-.705.705v24.848a.705.705 0 0 0 .705.705h5.43a.705.705 0 0 0 .7-.666l.955-17.183L22 39.83a.705.705 0 0 0 .7.666h5.43a.705.705 0 0 0 .705-.705V14.943a.705.705 0 0 0-.699-.706zm-.705 2.989h-2.224v-1.579h2.224v1.578zm-9.134 0v-1.579h5.5v1.578H18.3zm-1.41-1.578v1.578h-2.225v-1.579h2.224zm6.487 23.438l-.96-17.245a.705.705 0 0 0-.7-.666h-1.331a.705.705 0 0 0-.7.666l-.963 17.244h-4.057v-20.45h12.768v20.45h-4.058z"/></svg>