<svg xmlns="http://www.w3.org/2000/svg" width="41" height="41" viewBox="0 0 41 41"><defs><style>.cls-1{fill:#38aae2;fill-rule:evenodd}</style></defs><path id="leaf" class="cls-1" d="M38.158.5C30.16.5 20.5 6.24 20.5 13.372a6.719 6.719 0 0 0 1.8 4.508 29.4 29.4 0 0 0-1.8 10.62 22.636 22.636 0 0 0-1.1-2.428 6.517 6.517 0 0 0 1.1-3.606c0-7.132-9.66-12.875-17.658-12.875A2.348 2.348 0 0 0 .5 11.934c0 8 5.743 17.658 12.876 17.658a6.8 6.8 0 0 0 4.768-2.024A27.73 27.73 0 0 1 20.5 39.594a.909.909 0 0 0 1.819 0V28.683a28.637 28.637 0 0 1 1.419-9.465 6.558 6.558 0 0 0 3.89 1.282C34.76 20.5 40.5 10.84 40.5 2.842A2.348 2.348 0 0 0 38.158.5zM18.324 24.221A25.693 25.693 0 0 0 7.246 15.13a.909.909 0 0 0-.769 1.648c4.941 2.306 8.48 5.269 10.77 9.1-.074.082-.13.168-.21.248a5.1 5.1 0 0 1-3.664 1.645c-5.955 0-11.057-8.71-11.057-15.84a.527.527 0 0 1 .527-.527c7.13 0 15.84 5.1 15.84 11.056a4.65 4.65 0 0 1-.359 1.761zm9.3-5.54a4.922 4.922 0 0 1-3.183-1.235c1.938-4.217 5.24-7.378 10.1-9.768a.909.909 0 1 0-.8-1.632 22.309 22.309 0 0 0-10.6 9.966 4.765 4.765 0 0 1-.823-2.64c0-5.954 8.709-11.056 15.839-11.056a.527.527 0 0 1 .526.527c.001 7.129-5.101 15.838-11.056 15.838z"/></svg>