<svg xmlns="http://www.w3.org/2000/svg" width="53" height="41" viewBox="0 0 53 41"><defs><style>.cls-1{fill:#38aae2;fill-rule:evenodd}</style></defs><path id="monitor" class="cls-1" d="M50.234 9.939V3.3a2.8 2.8 0 0 0-2.8-2.8H2.778A2.8 2.8 0 0 0-.02 3.3v26.967a2.794 2.794 0 0 0 2.793 2.788h16.75V37.7H14.87v1.86h19.543V37.7h-3.722v-4.65h5.584v3.719a3.73 3.73 0 0 0 3.731 3.72h9.289a3.73 3.73 0 0 0 3.731-3.72V13.525a3.718 3.718 0 0 0-2.792-3.586zM28.829 37.7h-7.445v-4.65h7.445v4.65zm7.445-6.51H2.772a.931.931 0 0 1-.931-.928v-2.787h34.434v3.72zm0-17.669v12.094H1.841V3.3a.938.938 0 0 1 .937-.937h44.658a.938.938 0 0 1 .937.937v6.5h-8.367a3.73 3.73 0 0 0-3.731 3.725zm14.89 23.249a1.867 1.867 0 0 1-1.87 1.86h-9.288a1.867 1.867 0 0 1-1.87-1.86V13.525a1.867 1.867 0 0 1 1.87-1.86h9.289a1.867 1.867 0 0 1 1.87 1.86v23.249zm-6.514-2.785a1.86 1.86 0 1 1-1.861 1.86 1.861 1.861 0 0 1 1.861-1.86zm-1.861-20.46h3.723v1.86h-3.723v-1.86z"/></svg>