<svg width="50" height="50" viewBox="0 0 50 50" fill="none" xmlns="http://www.w3.org/2000/svg"><g clip-path="url(#a)"><path d="M21.874 37.5a1.046 1.046 0 0 1-1.045-1.045 3.134 3.134 0 0 1 3.125-3.125h9.375c1.152 0 2.08-.937 2.08-2.08s-.937-2.08-2.08-2.08h-9.375a.99.99 0 0 1-.332-.059l-2.959-.986h-5.039c-1.709 0-3.34.645-4.473 1.777l-1.045 1.045c-.41.41-1.064.41-1.474 0a1.037 1.037 0 0 1 0-1.474l1.045-1.045c1.513-1.514 3.681-2.393 5.947-2.393h5.205a.99.99 0 0 1 .332.059l2.969.986h9.209a4.174 4.174 0 0 1 4.17 4.17 4.168 4.168 0 0 1-4.17 4.17h-9.375c-.576 0-1.045.469-1.045 1.045 0 .566-.469 1.035-1.045 1.035z" fill="url(#b)"/><path d="M16.357 43.447l-1.474-1.474 2.08-2.08c.195-.196.459-.303.732-.303h14.21l11.035-9.033 4.619-7.383c-.244-.147-.498-.254-.703-.254-.928 0-1.65 0-3.428 1.777l-2.08 2.08a1.518 1.518 0 0 1-.196.157l-5.205 3.125-1.074-1.788 5.098-3.056 1.992-1.992c2.207-2.207 3.477-2.383 4.902-2.383 1.436 0 2.686 1.21 2.822 1.348.342.341.4.878.147 1.289l-5.205 8.33a.932.932 0 0 1-.225.253L32.95 41.435c-.185.157-.42.235-.664.235h-14.14l-1.788 1.777z" fill="url(#c)"/><path d="M13.546 50a1.01 1.01 0 0 1-.732-.303 1.037 1.037 0 0 1 0-1.474l3.427-3.428L5.206 33.769l-3.428 3.428c-.41.41-1.064.41-1.474 0a1.037 1.037 0 0 1 0-1.474l4.17-4.17c.41-.41 1.064-.41 1.474 0l12.5 12.5c.41.41.41 1.064 0 1.474l-4.17 4.17a1.027 1.027 0 0 1-.732.303z" fill="url(#d)"/><path d="M17.704 28.125a1.01 1.01 0 0 1-.732-.303 1.037 1.037 0 0 1 0-1.474c4.033-4.034 9.14-4.473 11.152-4.473 3.535 0 6.7.8 8.906 2.256.479.312.615.967.293 1.445a1.041 1.041 0 0 1-1.445.293c-1.836-1.21-4.668-1.914-7.764-1.914-1.367 0-6.094.274-9.678 3.858a.969.969 0 0 1-.732.312z" fill="url(#e)"/><path d="M28.125 12.5a5.21 5.21 0 0 1-5.205-5.205 5.21 5.21 0 0 1 5.205-5.205 5.21 5.21 0 0 1 5.205 5.205c0 .576-.469 1.045-1.045 1.045a1.038 1.038 0 0 1-1.035-1.045 3.134 3.134 0 0 0-3.125-3.125A3.134 3.134 0 0 0 25 7.295a3.134 3.134 0 0 0 3.125 3.125c.576 0 1.045.469 1.045 1.045 0 .566-.469 1.035-1.045 1.035z" fill="url(#f)"/><path d="M28.125 20.83a5.21 5.21 0 0 1-5.205-5.205c0-.576.469-1.045 1.045-1.045S25 15.05 25 15.625a3.134 3.134 0 0 0 3.125 3.125 3.134 3.134 0 0 0 3.125-3.125 3.134 3.134 0 0 0-3.125-3.125 1.046 1.046 0 0 1 0-2.09 5.21 5.21 0 0 1 0 10.42z" fill="url(#g)"/><path d="M28.125 4.17a1.046 1.046 0 0 1-1.045-1.045v-2.08a1.046 1.046 0 0 1 2.09 0v2.08c0 .576-.469 1.045-1.045 1.045z" fill="url(#h)"/><path d="M28.125 23.955a1.046 1.046 0 0 1-1.045-1.045V7.285a1.046 1.046 0 0 1 2.09 0V22.91a1.04 1.04 0 0 1-1.045 1.045z" fill="url(#i)"/><path d="M38.545 13.545H35.42a1.046 1.046 0 0 1-1.045-1.045v-1.045a4.174 4.174 0 0 1 4.17-4.17h3.125c.576 0 1.045.469 1.045 1.045v1.045c-.01 2.295-1.875 4.17-4.17 4.17zm-2.09-2.09h2.08c1.153 0 2.08-.937 2.08-2.08h-2.08c-1.142 0-2.08.938-2.08 2.08z" fill="url(#j)"/><path d="M20.83 6.25h-3.125a4.174 4.174 0 0 1-4.17-4.17V1.045C13.535.469 14.004 0 14.58 0h3.125a4.168 4.168 0 0 1 4.17 4.17v1.045c0 .566-.469 1.035-1.045 1.035zm-5.205-4.17c0 1.152.938 2.08 2.08 2.08h2.08c0-1.152-.937-2.08-2.08-2.08h-2.08z" fill="url(#k)"/></g><defs><linearGradient id="b" x1="8.332" y1="31.771" x2="37.499" y2="31.771" gradientUnits="userSpaceOnUse"><stop stop-color="#0AF"/><stop offset="1" stop-color="#0080FF"/></linearGradient><linearGradient id="c" x1="14.889" y1="32.139" x2="50" y2="32.139" gradientUnits="userSpaceOnUse"><stop stop-color="#0AF"/><stop offset="1" stop-color="#0080FF"/></linearGradient><linearGradient id="d" x1=".001" y1="40.625" x2="18.752" y2="40.625" gradientUnits="userSpaceOnUse"><stop stop-color="#0AF"/><stop offset="1" stop-color="#0080FF"/></linearGradient><linearGradient id="e" x1="16.666" y1="25" x2="37.5" y2="25" gradientUnits="userSpaceOnUse"><stop stop-color="#0AF"/><stop offset="1" stop-color="#0080FF"/></linearGradient><linearGradient id="f" x1="22.917" y1="7.292" x2="33.334" y2="7.292" gradientUnits="userSpaceOnUse"><stop stop-color="#0AF"/><stop offset="1" stop-color="#0080FF"/></linearGradient><linearGradient id="g" x1="22.917" y1="15.625" x2="33.334" y2="15.625" gradientUnits="userSpaceOnUse"><stop stop-color="#0AF"/><stop offset="1" stop-color="#0080FF"/></linearGradient><linearGradient id="h" x1="27.084" y1="2.084" x2="29.167" y2="2.084" gradientUnits="userSpaceOnUse"><stop stop-color="#0AF"/><stop offset="1" stop-color="#0080FF"/></linearGradient><linearGradient id="i" x1="27.084" y1="15.104" x2="29.167" y2="15.104" gradientUnits="userSpaceOnUse"><stop stop-color="#0AF"/><stop offset="1" stop-color="#0080FF"/></linearGradient><linearGradient id="j" x1="34.375" y1="10.417" x2="42.709" y2="10.417" gradientUnits="userSpaceOnUse"><stop stop-color="#0AF"/><stop offset="1" stop-color="#0080FF"/></linearGradient><linearGradient id="k" x1="13.542" y1="3.125" x2="21.875" y2="3.125" gradientUnits="userSpaceOnUse"><stop stop-color="#0AF"/><stop offset="1" stop-color="#0080FF"/></linearGradient><clipPath id="a"><path fill="#fff" d="M0 0h50v50H0z"/></clipPath></defs></svg>