<svg width="50" height="50" viewBox="0 0 50 50" fill="none" xmlns="http://www.w3.org/2000/svg"><g clip-path="url(#a)"><path d="M48.956 50H35.421c-.42 0-.8-.254-.967-.645-.166-.39-.068-.84.225-1.132l3.427-3.428-6.552-6.553a1.037 1.037 0 0 1 0-1.474c.41-.41 1.064-.41 1.474 0l7.295 7.294c.41.41.41 1.065 0 1.475l-2.392 2.393h9.99v-10l-2.393 2.392c-.41.41-1.064.41-1.474 0l-7.295-7.295a1.037 1.037 0 0 1 0-1.474c.41-.41 1.064-.41 1.474 0l6.553 6.552 3.428-3.427c.303-.303.742-.39 1.133-.225.39.156.644.537.644.967v13.545A1.03 1.03 0 0 1 48.956 50z" fill="url(#b)"/><path d="M12.5 18.75a1.01 1.01 0 0 1-.732-.303l-6.553-6.552-3.428 3.427A1.043 1.043 0 0 1 .01 14.58V1.045A1.032 1.032 0 0 1 1.045 0H14.59c.42 0 .8.254.967.645.166.39.068.84-.225 1.132l-3.428 3.428 6.553 6.553c.41.41.41 1.064 0 1.474-.41.41-1.064.41-1.474 0L9.678 5.947c-.4-.41-.4-1.064 0-1.474L12.07 2.08H2.08v9.99l2.393-2.392c.41-.41 1.064-.41 1.474 0l7.295 7.295c.41.41.41 1.064 0 1.474a1.05 1.05 0 0 1-.742.303z" fill="url(#c)"/><path d="M37.501 18.75a1.01 1.01 0 0 1-.732-.303 1.037 1.037 0 0 1 0-1.474l7.294-7.295c.41-.41 1.065-.41 1.475 0l2.393 2.392V2.08h-10l2.392 2.393c.41.41.41 1.064 0 1.474l-7.295 7.295c-.41.41-1.064.41-1.474 0a1.037 1.037 0 0 1 0-1.474l6.552-6.553-3.427-3.428a1.022 1.022 0 0 1-.225-1.133c.156-.39.537-.644.967-.644h13.545c.576 0 1.045.469 1.045 1.045V14.6c0 .42-.254.8-.645.966-.39.166-.84.079-1.133-.224l-3.427-3.428-6.553 6.553a1.163 1.163 0 0 1-.752.283z" fill="url(#d)"/><path d="M14.58 50H1.045A1.046 1.046 0 0 1 0 48.955V35.42c0-.42.254-.8.645-.967.39-.166.84-.078 1.132.225l3.428 3.428 6.553-6.553c.41-.41 1.064-.41 1.474 0 .41.41.41 1.064 0 1.474l-7.294 7.295c-.41.41-1.065.41-1.475 0L2.07 37.93v9.99h9.99l-2.392-2.393a1.037 1.037 0 0 1 0-1.474l7.295-7.295c.41-.41 1.064-.41 1.474 0 .41.41.41 1.064 0 1.474l-6.552 6.553 3.428 3.428c.302.303.39.742.224 1.133-.156.4-.537.654-.957.654z" fill="url(#e)"/><path d="M25 25a5.21 5.21 0 0 1-5.205-5.205v-2.08A5.21 5.21 0 0 1 25 12.51a5.21 5.21 0 0 1 5.205 5.205v2.08A5.21 5.21 0 0 1 25 25zm0-10.42a3.134 3.134 0 0 0-3.125 3.125v2.08A3.134 3.134 0 0 0 25 22.91a3.134 3.134 0 0 0 3.125-3.125v-2.08A3.134 3.134 0 0 0 25 14.58z" fill="url(#f)"/><path d="M28.125 35.42h-6.25c-3.516 0-5.85-2.295-5.947-2.393a1.035 1.035 0 0 1-.303-.732v-3.613a2.1 2.1 0 0 1 .928-1.739l5.322-3.545v-.488h2.08v1.045c0 .352-.176.674-.459.87l-5.79 3.857v3.134c.624.499 2.157 1.514 4.169 1.514h6.25c2.021 0 3.545-1.015 4.16-1.514v-3.134l-5.79-3.858a1.032 1.032 0 0 1-.46-.869V22.91h2.09v.488l5.322 3.545c.586.391.928 1.035.928 1.739v3.613c0 .273-.107.537-.303.732-.097.098-2.431 2.393-5.947 2.393z" fill="url(#g)"/><path d="M23.955 0h2.08v2.08h-2.08V0z" fill="url(#h)"/><path d="M23.955 4.17h2.08v2.08h-2.08V4.17z" fill="url(#i)"/><path d="M23.955 8.33h2.08v2.08h-2.08V8.33z" fill="url(#j)"/><path d="M23.955 39.58h2.08v2.08h-2.08v-2.08z" fill="url(#k)"/><path d="M23.955 43.75h2.08v2.08h-2.08v-2.08z" fill="url(#l)"/><path d="M23.955 47.92h2.08V50h-2.08v-2.08z" fill="url(#m)"/><path d="M0 23.955h2.08v2.08H0v-2.08z" fill="url(#n)"/><path d="M4.17 23.955h2.08v2.08H4.17v-2.08z" fill="url(#o)"/><path d="M8.33 23.955h2.08v2.08H8.33v-2.08z" fill="url(#p)"/><path d="M39.58 23.955h2.08v2.08h-2.08v-2.08z" fill="url(#q)"/><path d="M43.75 23.955h2.08v2.08h-2.08v-2.08z" fill="url(#r)"/><path d="M47.92 23.955H50v2.08h-2.08v-2.08z" fill="url(#s)"/></g><defs><linearGradient id="b" x1="40.626" y1="-.401" x2="40.626" y2="49.892" gradientUnits="userSpaceOnUse"><stop stop-color="#0AF"/><stop offset="1" stop-color="#0080FF"/></linearGradient><linearGradient id="c" x1="9.375" y1="-.401" x2="9.375" y2="49.892" gradientUnits="userSpaceOnUse"><stop stop-color="#0AF"/><stop offset="1" stop-color="#0080FF"/></linearGradient><linearGradient id="d" x1="40.626" y1="-.401" x2="40.626" y2="49.892" gradientUnits="userSpaceOnUse"><stop stop-color="#0AF"/><stop offset="1" stop-color="#0080FF"/></linearGradient><linearGradient id="e" x1="9.375" y1="-.401" x2="9.375" y2="49.892" gradientUnits="userSpaceOnUse"><stop stop-color="#0AF"/><stop offset="1" stop-color="#0080FF"/></linearGradient><linearGradient id="f" x1="25" y1="-.401" x2="25" y2="49.892" gradientUnits="userSpaceOnUse"><stop stop-color="#0AF"/><stop offset="1" stop-color="#0080FF"/></linearGradient><linearGradient id="g" x1="25" y1="-.401" x2="25" y2="49.892" gradientUnits="userSpaceOnUse"><stop stop-color="#0AF"/><stop offset="1" stop-color="#0080FF"/></linearGradient><linearGradient id="h" x1="25" y1="-.401" x2="25" y2="49.892" gradientUnits="userSpaceOnUse"><stop stop-color="#0AF"/><stop offset="1" stop-color="#0080FF"/></linearGradient><linearGradient id="i" x1="25" y1="-.401" x2="25" y2="49.892" gradientUnits="userSpaceOnUse"><stop stop-color="#0AF"/><stop offset="1" stop-color="#0080FF"/></linearGradient><linearGradient id="j" x1="25" y1="-.401" x2="25" y2="49.892" gradientUnits="userSpaceOnUse"><stop stop-color="#0AF"/><stop offset="1" stop-color="#0080FF"/></linearGradient><linearGradient id="k" x1="25" y1="-.401" x2="25" y2="49.892" gradientUnits="userSpaceOnUse"><stop stop-color="#0AF"/><stop offset="1" stop-color="#0080FF"/></linearGradient><linearGradient id="l" x1="25" y1="-.401" x2="25" y2="49.892" gradientUnits="userSpaceOnUse"><stop stop-color="#0AF"/><stop offset="1" stop-color="#0080FF"/></linearGradient><linearGradient id="m" x1="25" y1="-.401" x2="25" y2="49.892" gradientUnits="userSpaceOnUse"><stop stop-color="#0AF"/><stop offset="1" stop-color="#0080FF"/></linearGradient><linearGradient id="n" x1="1.042" y1="-.402" x2="1.042" y2="49.892" gradientUnits="userSpaceOnUse"><stop stop-color="#0AF"/><stop offset="1" stop-color="#0080FF"/></linearGradient><linearGradient id="o" x1="5.208" y1="-.402" x2="5.208" y2="49.892" gradientUnits="userSpaceOnUse"><stop stop-color="#0AF"/><stop offset="1" stop-color="#0080FF"/></linearGradient><linearGradient id="p" x1="9.375" y1="-.402" x2="9.375" y2="49.892" gradientUnits="userSpaceOnUse"><stop stop-color="#0AF"/><stop offset="1" stop-color="#0080FF"/></linearGradient><linearGradient id="q" x1="40.625" y1="-.402" x2="40.625" y2="49.892" gradientUnits="userSpaceOnUse"><stop stop-color="#0AF"/><stop offset="1" stop-color="#0080FF"/></linearGradient><linearGradient id="r" x1="44.792" y1="-.402" x2="44.792" y2="49.892" gradientUnits="userSpaceOnUse"><stop stop-color="#0AF"/><stop offset="1" stop-color="#0080FF"/></linearGradient><linearGradient id="s" x1="48.958" y1="-.402" x2="48.958" y2="49.892" gradientUnits="userSpaceOnUse"><stop stop-color="#0AF"/><stop offset="1" stop-color="#0080FF"/></linearGradient><clipPath id="a"><path fill="#fff" d="M0 0h50v50H0z"/></clipPath></defs></svg>