<svg width="50" height="50" viewBox="0 0 50 50" fill="none" xmlns="http://www.w3.org/2000/svg"><path d="M19.795 17.705c-.772 0-1.563-.351-2.168-.957-.605-.605-.957-1.396-.957-2.168 0-1.475.84-2.314 1.348-2.822l6.25-6.25c.195-.196.459-.303.732-.303h16.67a1.046 1.046 0 0 1 0 2.09H25.43l-5.948 5.947c-.459.46-.732.762-.732 1.348 0 .215.137.478.352.693.214.215.478.352.693.352.576 0 .889-.283 1.348-.733l4.17-4.17c.195-.195.459-.302.732-.302h3.125a1.046 1.046 0 0 1 0 2.09h-2.695l-3.858 3.857c-.508.488-1.348 1.328-2.822 1.328z" fill="url(#a)"/><path d="M31.25 26.045c-1.475 0-2.314-.84-2.822-1.348l-1.045-1.045a1.037 1.037 0 0 1 0-1.474c.41-.41 1.064-.41 1.474 0l1.045 1.045c.46.459.772.732 1.348.732.215 0 .488-.137.693-.351.215-.215.352-.479.352-.694 0-.586-.283-.889-.733-1.348l-1.044-1.044a1.037 1.037 0 0 1 0-1.475c.41-.41 1.064-.41 1.474 0l1.045 1.045c.508.498 1.348 1.348 1.348 2.822 0 .772-.352 1.563-.957 2.168-.615.615-1.406.967-2.178.967z" fill="url(#b)"/><path d="M27.08 28.125c-1.474 0-2.314-.84-2.822-1.348l-1.045-1.045a1.037 1.037 0 0 1 0-1.474c.41-.41 1.064-.41 1.474 0l1.045 1.045c.46.459.762.732 1.348.732.215 0 .488-.137.693-.351.215-.215.352-.479.352-.694 0-.586-.283-.888-.732-1.347l-1.045-1.045a1.037 1.037 0 0 1 0-1.475c.41-.41 1.064-.41 1.474 0l1.045 1.045c.498.498 1.348 1.348 1.348 2.822 0 .772-.352 1.563-.957 2.168-.615.615-1.406.967-2.178.967z" fill="url(#c)"/><path d="M22.92 30.205c-1.475 0-2.315-.84-2.822-1.348l-9.073-9.072H8.33a1.046 1.046 0 0 1 0-2.09h3.125c.274 0 .537.108.732.303l9.376 9.375c.459.459.761.732 1.347.732.215 0 .479-.136.694-.351.214-.215.351-.479.351-.693 0-.577-.283-.89-.732-1.348l-1.045-1.045a1.037 1.037 0 0 1 0-1.475c.41-.41 1.064-.41 1.474 0l1.045 1.045c.508.508 1.348 1.348 1.348 2.823 0 .771-.352 1.562-.957 2.168-.606.605-1.397.976-2.168.976z" fill="url(#d)"/><path d="M35.42 23.955c-1.475 0-2.315-.84-2.822-1.348l-1.045-1.044a1.037 1.037 0 0 1 0-1.475c.41-.41 1.064-.41 1.474 0l1.045 1.045c.46.459.772.732 1.348.732.215 0 .488-.136.693-.351.215-.215.352-.479.352-.694 0-.576-.283-.888-.733-1.347l-7.294-7.295a1.037 1.037 0 0 1 0-1.475c.41-.41 1.064-.41 1.474 0l7.295 7.295c.508.498 1.348 1.348 1.348 2.822 0 .772-.352 1.563-.957 2.168-.606.606-1.416.967-2.178.967z" fill="url(#e)"/><path d="M19.795 7.295H8.33a1.046 1.046 0 0 1 0-2.09h11.455a1.046 1.046 0 0 1 .01 2.09z" fill="url(#f)"/><path d="M48.955 21.875h-6.25a2.082 2.082 0 0 1-2.08-2.08V5.205c0-1.152.938-2.08 2.08-2.08h6.25a1.046 1.046 0 0 1 0 2.09h-6.25v14.58h6.25c.576 0 1.045.469 1.045 1.045 0 .566-.469 1.035-1.045 1.035z" fill="url(#g)"/><path d="M45.83 13.545a1.046 1.046 0 0 1-1.045-1.045V4.17a1.046 1.046 0 0 1 2.09 0v8.33c0 .576-.469 1.045-1.045 1.045z" fill="url(#h)"/><path d="M44.795 15.625h2.08v2.08h-2.08v-2.08z" fill="url(#i)"/><path d="M7.295 21.875h-6.25a1.046 1.046 0 0 1 0-2.09h6.25V5.205h-6.25A1.038 1.038 0 0 1 0 4.17c0-.576.469-1.045 1.045-1.045h6.25c1.143 0 2.08.938 2.08 2.08v14.58a2.09 2.09 0 0 1-2.08 2.09z" fill="url(#j)"/><path d="M4.17 13.545A1.046 1.046 0 0 1 3.125 12.5V4.17a1.046 1.046 0 0 1 2.09 0v8.33a1.052 1.052 0 0 1-1.045 1.045z" fill="url(#k)"/><path d="M3.125 15.625h2.08v2.08h-2.08v-2.08z" fill="url(#l)"/><path d="M10.42 38.545H6.25A1.046 1.046 0 0 1 5.205 37.5v-4.17c0-.576.469-1.045 1.045-1.045h4.17c.576 0 1.045.469 1.045 1.045v4.17a1.052 1.052 0 0 1-1.045 1.045zm-3.125-2.09h2.08v-2.08h-2.08v2.08z" fill="url(#m)"/><path d="M13.545 32.295h14.58v2.08h-14.58v-2.08z" fill="url(#n)"/><path d="M13.545 36.455h31.25v2.08h-31.25v-2.08z" fill="url(#o)"/><path d="M13.545 40.625h14.58v2.08h-14.58v-2.08z" fill="url(#p)"/><path d="M13.545 44.795h31.25v2.08h-31.25v-2.08z" fill="url(#q)"/><path d="M7.295 46.875a1.01 1.01 0 0 1-.732-.303l-1.045-1.045a1.038 1.038 0 0 1 0-1.474c.41-.41 1.064-.41 1.474 0l.303.303 2.393-2.393c.41-.41 1.064-.41 1.474 0 .41.41.41 1.064 0 1.474l-3.125 3.126a1.036 1.036 0 0 1-.742.312z" fill="url(#r)"/><path d="M13.545 28.125h2.08v2.08h-2.08v-2.08z" fill="url(#s)"/><path d="M9.375 28.125h2.08v2.08h-2.08v-2.08z" fill="url(#t)"/><path d="M5.205 28.125h2.08v2.08h-2.08v-2.08z" fill="url(#u)"/><defs><linearGradient id="a" x1="29.688" y1="-.011" x2="29.688" y2="49.916" gradientUnits="userSpaceOnUse"><stop stop-color="#0AF"/><stop offset="1" stop-color="#0080FF"/></linearGradient><linearGradient id="b" x1="30.729" y1="-.011" x2="30.729" y2="49.916" gradientUnits="userSpaceOnUse"><stop stop-color="#0AF"/><stop offset="1" stop-color="#0080FF"/></linearGradient><linearGradient id="c" x1="26.562" y1="-.011" x2="26.562" y2="49.916" gradientUnits="userSpaceOnUse"><stop stop-color="#0AF"/><stop offset="1" stop-color="#0080FF"/></linearGradient><linearGradient id="d" x1="16.667" y1="-.011" x2="16.667" y2="49.916" gradientUnits="userSpaceOnUse"><stop stop-color="#0AF"/><stop offset="1" stop-color="#0080FF"/></linearGradient><linearGradient id="e" x1="33.333" y1="-.011" x2="33.333" y2="49.916" gradientUnits="userSpaceOnUse"><stop stop-color="#0AF"/><stop offset="1" stop-color="#0080FF"/></linearGradient><linearGradient id="f" x1="14.063" y1="-.011" x2="14.063" y2="49.916" gradientUnits="userSpaceOnUse"><stop stop-color="#0AF"/><stop offset="1" stop-color="#0080FF"/></linearGradient><linearGradient id="g" x1="45.313" y1="-.011" x2="45.313" y2="49.916" gradientUnits="userSpaceOnUse"><stop stop-color="#0AF"/><stop offset="1" stop-color="#0080FF"/></linearGradient><linearGradient id="h" x1="45.833" y1="-.011" x2="45.833" y2="49.916" gradientUnits="userSpaceOnUse"><stop stop-color="#0AF"/><stop offset="1" stop-color="#0080FF"/></linearGradient><linearGradient id="i" x1="45.833" y1="-.011" x2="45.833" y2="49.916" gradientUnits="userSpaceOnUse"><stop stop-color="#0AF"/><stop offset="1" stop-color="#0080FF"/></linearGradient><linearGradient id="j" x1="4.688" y1="-.011" x2="4.688" y2="49.916" gradientUnits="userSpaceOnUse"><stop stop-color="#0AF"/><stop offset="1" stop-color="#0080FF"/></linearGradient><linearGradient id="k" x1="4.167" y1="-.011" x2="4.167" y2="49.916" gradientUnits="userSpaceOnUse"><stop stop-color="#0AF"/><stop offset="1" stop-color="#0080FF"/></linearGradient><linearGradient id="l" x1="4.167" y1="-.011" x2="4.167" y2="49.916" gradientUnits="userSpaceOnUse"><stop stop-color="#0AF"/><stop offset="1" stop-color="#0080FF"/></linearGradient><linearGradient id="m" x1="8.333" y1="-.011" x2="8.333" y2="49.916" gradientUnits="userSpaceOnUse"><stop stop-color="#0AF"/><stop offset="1" stop-color="#0080FF"/></linearGradient><linearGradient id="n" x1="20.833" y1="-.011" x2="20.833" y2="49.916" gradientUnits="userSpaceOnUse"><stop stop-color="#0AF"/><stop offset="1" stop-color="#0080FF"/></linearGradient><linearGradient id="o" x1="29.167" y1="-.011" x2="29.167" y2="49.916" gradientUnits="userSpaceOnUse"><stop stop-color="#0AF"/><stop offset="1" stop-color="#0080FF"/></linearGradient><linearGradient id="p" x1="20.833" y1="-.011" x2="20.833" y2="49.916" gradientUnits="userSpaceOnUse"><stop stop-color="#0AF"/><stop offset="1" stop-color="#0080FF"/></linearGradient><linearGradient id="q" x1="29.167" y1="-.011" x2="29.167" y2="49.916" gradientUnits="userSpaceOnUse"><stop stop-color="#0AF"/><stop offset="1" stop-color="#0080FF"/></linearGradient><linearGradient id="r" x1="8.333" y1="-.011" x2="8.333" y2="49.916" gradientUnits="userSpaceOnUse"><stop stop-color="#0AF"/><stop offset="1" stop-color="#0080FF"/></linearGradient><linearGradient id="s" x1="14.583" y1="-.011" x2="14.583" y2="49.916" gradientUnits="userSpaceOnUse"><stop stop-color="#0AF"/><stop offset="1" stop-color="#0080FF"/></linearGradient><linearGradient id="t" x1="10.417" y1="-.011" x2="10.417" y2="49.916" gradientUnits="userSpaceOnUse"><stop stop-color="#0AF"/><stop offset="1" stop-color="#0080FF"/></linearGradient><linearGradient id="u" x1="6.25" y1="-.011" x2="6.25" y2="49.916" gradientUnits="userSpaceOnUse"><stop stop-color="#0AF"/><stop offset="1" stop-color="#0080FF"/></linearGradient></defs></svg>