<svg width="50" height="50" viewBox="0 0 50 50" fill="none" xmlns="http://www.w3.org/2000/svg"><g clip-path="url(#a)"><path d="M26.045 50h-2.08c-.361 0-.703-.195-.889-.508l-2.48-4.14a21.735 21.735 0 0 1-1.924-.518l-4.229 2.353a1.037 1.037 0 0 1-1.025-.01l-1.807-1.044a1.038 1.038 0 0 1-.517-.889l-.078-4.844c-.489-.44-.957-.908-1.397-1.396l-4.844-.078a1.073 1.073 0 0 1-.888-.518l-1.055-1.806a1.038 1.038 0 0 1-.01-1.026l2.354-4.228a19.51 19.51 0 0 1-.518-1.914l-4.15-2.5a1.041 1.041 0 0 1-.508-.89v-2.08c0-.36.195-.702.508-.888l4.14-2.48c.137-.625.313-1.26.518-1.924l-2.354-4.229a1.038 1.038 0 0 1 .01-1.025l1.045-1.807a1.04 1.04 0 0 1 .889-.517l4.844-.078c.44-.489.908-.957 1.396-1.397l.078-4.844c.01-.36.205-.703.518-.888l1.806-1.055a1.038 1.038 0 0 1 1.026-.01l4.228 2.354a19.51 19.51 0 0 1 1.914-.518l2.49-4.14c.186-.313.528-.508.9-.508h2.08c.37 0 .702.195.888.508l2.48 4.14c.625.137 1.26.313 1.914.518l4.229-2.354a1.038 1.038 0 0 1 1.025.01l1.807 1.045c.312.186.518.518.518.889l.078 4.843c.488.44.957.909 1.396 1.397l4.844.078c.37.01.703.205.888.518l1.045 1.806c.186.313.186.703.01 1.026l-2.353 4.228c.215.654.38 1.29.517 1.924l4.14 2.48c.313.186.509.528.509.899v2.08c0 .371-.196.703-.508.889l-4.14 2.48c-.138.635-.313 1.27-.518 1.914l2.353 4.229c.176.322.176.712-.01 1.025l-1.045 1.807a1.038 1.038 0 0 1-.888.517l-4.844.078c-.44.489-.908.957-1.396 1.397l-.078 4.844a1.06 1.06 0 0 1-.518.888l-1.777 1.055a1.038 1.038 0 0 1-1.026.01l-4.228-2.354a19.51 19.51 0 0 1-1.914.518l-2.49 4.14a1.057 1.057 0 0 1-.9.518zm-1.494-2.08h.908l2.422-4.023c.156-.254.4-.43.693-.489.83-.156 1.66-.39 2.54-.693.282-.098.585-.069.849.078l4.121 2.285.781-.45.078-4.706a1.07 1.07 0 0 1 .362-.772 19.576 19.576 0 0 0 1.855-1.855 1.07 1.07 0 0 1 .772-.361l4.707-.078.449-.782-2.285-4.12a1.033 1.033 0 0 1-.078-.85c.302-.88.527-1.71.693-2.54a1.03 1.03 0 0 1 .488-.693l4.024-2.412v-.908l-4.024-2.412a1.05 1.05 0 0 1-.488-.694c-.156-.83-.39-1.66-.693-2.539a1.037 1.037 0 0 1 .078-.85l2.285-4.12-.45-.782-4.706-.078a1.07 1.07 0 0 1-.772-.361 19.563 19.563 0 0 0-1.855-1.856 1.052 1.052 0 0 1-.362-.771l-.078-4.717-.781-.45-4.121 2.286a1.014 1.014 0 0 1-.84.078 20.276 20.276 0 0 0-2.539-.693 1.028 1.028 0 0 1-.693-.488L25.479 2.08h-.899l-2.422 4.033c-.156.254-.4.43-.693.489-.82.156-1.65.38-2.54.693a1.037 1.037 0 0 1-.849-.078l-4.12-2.285-.782.449-.078 4.717a1.07 1.07 0 0 1-.362.771 19.576 19.576 0 0 0-1.855 1.856 1.052 1.052 0 0 1-.772.36l-4.716.08-.45.78 2.286 4.121c.146.254.175.567.078.85a20.282 20.282 0 0 0-.694 2.54 1.028 1.028 0 0 1-.488.692L2.1 24.561v.908l4.033 2.422c.254.156.43.41.488.693.156.82.38 1.65.693 2.539.098.283.069.586-.078.85l-2.285 4.12.45.782 4.716.078c.293.01.576.137.772.361.576.655 1.191 1.28 1.855 1.856.225.195.352.478.361.771l.079 4.707.78.45 4.122-2.285c.254-.147.566-.166.85-.079.878.303 1.709.528 2.539.694.293.058.546.234.693.488l2.383 4.004zm24.404-21.875h.01-.01z" fill="url(#b)"/><path d="M8.33 23.955h2.08v2.08H8.33v-2.08z" fill="url(#c)"/><path d="M12.48 36.045l1.475-1.475 1.475 1.475-1.475 1.474-1.475-1.474z" fill="url(#d)"/><path d="M23.955 39.58h2.08v2.08h-2.08v-2.08z" fill="url(#e)"/><path d="M12.48 13.955l1.475-1.475 1.475 1.475-1.475 1.475-1.475-1.475z" fill="url(#f)"/><path d="M25 28.125A3.134 3.134 0 0 1 21.875 25 3.134 3.134 0 0 1 25 21.875 3.134 3.134 0 0 1 28.125 25 3.134 3.134 0 0 1 25 28.125zm0-4.17a1.046 1.046 0 0 0 0 2.09 1.046 1.046 0 0 0 0-2.09z" fill="url(#g)"/><path d="M25 23.955a1.046 1.046 0 0 1-1.045-1.045v-6.25a1.046 1.046 0 0 1 2.09 0v6.25A1.04 1.04 0 0 1 25 23.955z" fill="url(#h)"/><path d="M33.106 34.14a1.01 1.01 0 0 1-.732-.302l-6.016-6.016a1.037 1.037 0 0 1 0-1.474c.41-.41 1.065-.41 1.475 0l6.016 6.015c.41.41.41 1.065 0 1.475a1.066 1.066 0 0 1-.742.303z" fill="url(#i)"/><path d="M36.045 37.08a1.05 1.05 0 0 1-.742-.303c-.41-.41-.4-1.064 0-1.474A14.455 14.455 0 0 0 39.58 25c0-8.037-6.543-14.58-14.58-14.58a1.046 1.046 0 0 1 0-2.09c9.19 0 16.67 7.48 16.67 16.67 0 4.453-1.738 8.643-4.893 11.777a1.027 1.027 0 0 1-.732.303z" fill="url(#j)"/></g><defs><linearGradient id="b" x1="25" y1="-.304" x2="25" y2="49.892" gradientUnits="userSpaceOnUse"><stop stop-color="#0AF"/><stop offset="1" stop-color="#0080FF"/></linearGradient><linearGradient id="c" x1="9.375" y1="-.304" x2="9.375" y2="49.892" gradientUnits="userSpaceOnUse"><stop stop-color="#0AF"/><stop offset="1" stop-color="#0080FF"/></linearGradient><linearGradient id="d" x1="13.951" y1="-.304" x2="13.951" y2="49.892" gradientUnits="userSpaceOnUse"><stop stop-color="#0AF"/><stop offset="1" stop-color="#0080FF"/></linearGradient><linearGradient id="e" x1="25" y1="-.304" x2="25" y2="49.892" gradientUnits="userSpaceOnUse"><stop stop-color="#0AF"/><stop offset="1" stop-color="#0080FF"/></linearGradient><linearGradient id="f" x1="13.952" y1="-.304" x2="13.952" y2="49.892" gradientUnits="userSpaceOnUse"><stop stop-color="#0AF"/><stop offset="1" stop-color="#0080FF"/></linearGradient><linearGradient id="g" x1="25" y1="-.304" x2="25" y2="49.892" gradientUnits="userSpaceOnUse"><stop stop-color="#0AF"/><stop offset="1" stop-color="#0080FF"/></linearGradient><linearGradient id="h" x1="25" y1="-.304" x2="25" y2="49.892" gradientUnits="userSpaceOnUse"><stop stop-color="#0AF"/><stop offset="1" stop-color="#0080FF"/></linearGradient><linearGradient id="i" x1="30.094" y1="-.304" x2="30.094" y2="49.892" gradientUnits="userSpaceOnUse"><stop stop-color="#0AF"/><stop offset="1" stop-color="#0080FF"/></linearGradient><linearGradient id="j" x1="32.813" y1="-.304" x2="32.813" y2="49.892" gradientUnits="userSpaceOnUse"><stop stop-color="#0AF"/><stop offset="1" stop-color="#0080FF"/></linearGradient><clipPath id="a"><path fill="#fff" d="M0 0h50v50H0z"/></clipPath></defs></svg>