<svg width="50" height="50" viewBox="0 0 50 50" fill="none" xmlns="http://www.w3.org/2000/svg"><g clip-path="url(#a)"><path d="M15.655 50a1.046 1.046 0 0 1-1.045-1.045v-10.41c0-.576.469-1.045 1.045-1.045h2.353l-5.478-9.395L7.05 37.5h2.354c.576 0 1.045.469 1.045 1.045v4.17a1.046 1.046 0 0 1-2.09 0V39.59H5.235c-.371 0-.713-.196-.899-.528a1.05 1.05 0 0 1 0-1.044l7.295-12.5c.371-.635 1.426-.635 1.797 0l7.295 12.5a1.05 1.05 0 0 1-.898 1.572H16.7v9.375c0 .566-.469 1.035-1.045 1.035z" fill="url(#b)"/><path d="M8.37 45.83h2.08v2.08H8.37v-2.08z" fill="url(#c)"/><path d="M34.405 50a1.046 1.046 0 0 1-1.045-1.045V35.42h-3.125c-.371 0-.713-.195-.899-.527a1.05 1.05 0 0 1 0-1.045l7.295-12.5c.371-.645 1.426-.645 1.797 0l7.295 12.5a1.05 1.05 0 0 1-.908 1.572H41.69v2.08a1.046 1.046 0 0 1-2.09 0v-3.125c0-.576.469-1.045 1.045-1.045h2.353l-5.478-9.394-5.479 9.394h2.354c.576 0 1.045.469 1.045 1.045v14.58A1.032 1.032 0 0 1 34.405 50z" fill="url(#d)"/><path d="M39.62 40.625h2.08v2.08h-2.08v-2.08z" fill="url(#e)"/><path d="M39.62 44.795h2.08v2.08h-2.08v-2.08z" fill="url(#f)"/><path d="M25.03 43.75h2.08v2.08h-2.08v-2.08z" fill="url(#g)"/><path d="M25.03 39.58h2.08v2.08h-2.08v-2.08z" fill="url(#h)"/><path d="M25.03 47.92h2.08V50h-2.08v-2.08z" fill="url(#i)"/><path d="M26.074 37.5a1.046 1.046 0 0 1-1.045-1.045v-18.75c0-.576.469-1.045 1.045-1.045h5.205a1.046 1.046 0 0 1 0 2.09h-4.17v17.705a1.032 1.032 0 0 1-1.035 1.045z" fill="url(#j)"/><path d="M20.87 12.5h2.08v2.08h-2.08V12.5z" fill="url(#k)"/><path d="M20.87 8.33h2.08v2.08h-2.08V8.33z" fill="url(#l)"/><path d="M20.87 16.67h2.08v2.08h-2.08v-2.08z" fill="url(#m)"/><path d="M17.746 26.045A1.046 1.046 0 0 1 16.7 25v-6.25h-4.17c-.371 0-.713-.195-.899-.518a1.032 1.032 0 0 1-.01-1.035L20.999.527c.185-.322.527-.527.898-.527.361.01.723.195.908.518l7.295 12.5a1.047 1.047 0 0 1-.37 1.425 1.047 1.047 0 0 1-1.427-.37L21.925 3.134 14.318 16.66h3.428c.576 0 1.045.469 1.045 1.045V25a1.052 1.052 0 0 1-1.045 1.045z" fill="url(#n)"/></g><defs><linearGradient id="b" x1="12.533" y1="-.108" x2="12.533" y2="50.201" gradientUnits="userSpaceOnUse"><stop stop-color="#0AF"/><stop offset="1" stop-color="#0080FF"/></linearGradient><linearGradient id="c" x1="9.407" y1="-.108" x2="9.407" y2="50.201" gradientUnits="userSpaceOnUse"><stop stop-color="#0AF"/><stop offset="1" stop-color="#0080FF"/></linearGradient><linearGradient id="d" x1="37.533" y1="-.108" x2="37.533" y2="50.201" gradientUnits="userSpaceOnUse"><stop stop-color="#0AF"/><stop offset="1" stop-color="#0080FF"/></linearGradient><linearGradient id="e" x1="40.657" y1="-.108" x2="40.657" y2="50.201" gradientUnits="userSpaceOnUse"><stop stop-color="#0AF"/><stop offset="1" stop-color="#0080FF"/></linearGradient><linearGradient id="f" x1="40.657" y1="-.108" x2="40.657" y2="50.201" gradientUnits="userSpaceOnUse"><stop stop-color="#0AF"/><stop offset="1" stop-color="#0080FF"/></linearGradient><linearGradient id="g" x1="26.074" y1="-.108" x2="26.074" y2="50.201" gradientUnits="userSpaceOnUse"><stop stop-color="#0AF"/><stop offset="1" stop-color="#0080FF"/></linearGradient><linearGradient id="h" x1="26.074" y1="-.108" x2="26.074" y2="50.201" gradientUnits="userSpaceOnUse"><stop stop-color="#0AF"/><stop offset="1" stop-color="#0080FF"/></linearGradient><linearGradient id="i" x1="26.074" y1="-.108" x2="26.074" y2="50.201" gradientUnits="userSpaceOnUse"><stop stop-color="#0AF"/><stop offset="1" stop-color="#0080FF"/></linearGradient><linearGradient id="j" x1="28.678" y1="-.108" x2="28.678" y2="50.201" gradientUnits="userSpaceOnUse"><stop stop-color="#0AF"/><stop offset="1" stop-color="#0080FF"/></linearGradient><linearGradient id="k" x1="21.907" y1="-.108" x2="21.907" y2="50.201" gradientUnits="userSpaceOnUse"><stop stop-color="#0AF"/><stop offset="1" stop-color="#0080FF"/></linearGradient><linearGradient id="l" x1="21.907" y1="-.108" x2="21.907" y2="50.201" gradientUnits="userSpaceOnUse"><stop stop-color="#0AF"/><stop offset="1" stop-color="#0080FF"/></linearGradient><linearGradient id="m" x1="21.907" y1="-.108" x2="21.907" y2="50.201" gradientUnits="userSpaceOnUse"><stop stop-color="#0AF"/><stop offset="1" stop-color="#0080FF"/></linearGradient><linearGradient id="n" x1="20.867" y1="-.108" x2="20.867" y2="50.201" gradientUnits="userSpaceOnUse"><stop stop-color="#0AF"/><stop offset="1" stop-color="#0080FF"/></linearGradient><clipPath id="a"><path fill="#fff" d="M0 0h50v50H0z"/></clipPath></defs></svg>