<svg width="50" height="50" viewBox="0 0 50 50" fill="none" xmlns="http://www.w3.org/2000/svg"><g clip-path="url(#a)"><path d="M45.87 50h-12.5a3.134 3.134 0 0 1-3.126-3.125v-20.83a3.134 3.134 0 0 1 3.125-3.125h12.5a3.134 3.134 0 0 1 3.125 3.125v20.83A3.134 3.134 0 0 1 45.87 50zm-12.5-25c-.577 0-1.046.469-1.046 1.045v20.83c0 .576.469 1.045 1.045 1.045h12.5c.576 0 1.045-.469 1.045-1.045v-20.83c0-.576-.469-1.045-1.045-1.045h-12.5z" fill="url(#b)"/><path d="M42.744 35.42h2.08v2.08h-2.08v-2.08z" fill="url(#c)"/><path d="M38.574 35.42h2.08v2.08h-2.08v-2.08z" fill="url(#d)"/><path d="M34.404 35.42h2.08v2.08h-2.08v-2.08z" fill="url(#e)"/><path d="M42.744 39.58h2.08v2.08h-2.08v-2.08z" fill="url(#f)"/><path d="M38.574 39.58h2.08v2.08h-2.08v-2.08z" fill="url(#g)"/><path d="M34.404 39.58h2.08v2.08h-2.08v-2.08z" fill="url(#h)"/><path d="M42.744 43.75h2.08v2.08h-2.08v-2.08z" fill="url(#i)"/><path d="M38.574 43.75h2.08v2.08h-2.08v-2.08z" fill="url(#j)"/><path d="M34.404 43.75h2.08v2.08h-2.08v-2.08z" fill="url(#k)"/><path d="M43.78 33.33h-8.33a1.046 1.046 0 0 1-1.046-1.045v-4.16c0-.576.469-1.045 1.045-1.045h8.33c.576 0 1.045.469 1.045 1.045v4.17c0 .576-.468 1.035-1.045 1.035zm-7.286-2.08h6.25v-2.08h-6.25v2.08z" fill="url(#l)"/><path d="M37.53 20.83a1.046 1.046 0 0 1-1.046-1.045V8.76L31.28 3.555v3.74h1.045a1.046 1.046 0 0 1 0 2.09h-2.08A1.046 1.046 0 0 1 29.2 8.34V1.045c0-.42.254-.8.645-.967.39-.156.84-.068 1.133.225l7.295 7.295c.195.195.302.459.302.732v11.455a1.04 1.04 0 0 1-1.045 1.045z" fill="url(#m)"/><path d="M2.12 50a1.046 1.046 0 0 1-1.046-1.045V1.045C1.074.469 1.543 0 2.12 0h23.955a1.046 1.046 0 0 1 0 2.09H3.154v46.875C3.154 49.53 2.695 50 2.12 50z" fill="url(#n)"/><path d="M27.12 50h-25a1.046 1.046 0 0 1 0-2.09h25a1.046 1.046 0 0 1 0 2.09z" fill="url(#o)"/><path d="M27.12 45.83H6.28a1.046 1.046 0 0 1-1.046-1.045v-16.66a1.046 1.046 0 0 1 2.09 0V43.75H27.12c.576 0 1.045.469 1.045 1.045s-.469 1.035-1.045 1.035z" fill="url(#p)"/><path d="M9.404 37.5h2.08v4.17h-2.08V37.5z" fill="url(#q)"/><path d="M13.574 33.33h2.08v8.33h-2.08v-8.33z" fill="url(#r)"/><path d="M17.744 35.42h2.08v6.25h-2.08v-6.25z" fill="url(#s)"/><path d="M21.904 32.295h2.08v9.375h-2.08v-9.375z" fill="url(#t)"/><path d="M26.074 27.08h2.08v14.58h-2.08V27.08z" fill="url(#u)"/><path d="M12.53 22.92a7.302 7.302 0 0 1-7.296-7.295A7.302 7.302 0 0 1 12.53 8.33a1.046 1.046 0 0 1 0 2.09 5.21 5.21 0 0 0-5.205 5.205 5.21 5.21 0 0 0 5.205 5.205c2.52 0 4.62-1.797 5.108-4.17h-4.063a1.046 1.046 0 0 1 0-2.09h5.205c.576 0 1.045.47 1.045 1.045 0 4.033-3.271 7.305-7.295 7.305z" fill="url(#v)"/><path d="M22.95 12.5H16.7a1.046 1.046 0 0 1-1.046-1.045v-6.25c0-.576.469-1.045 1.045-1.045a7.302 7.302 0 0 1 7.295 7.295c0 .576-.469 1.045-1.045 1.045zm-5.206-2.08h4.063a5.216 5.216 0 0 0-4.063-4.063v4.063z" fill="url(#w)"/><path d="M32.324 14.58h2.08v2.08h-2.08v-2.08z" fill="url(#x)"/><path d="M28.154 14.58h2.08v2.08h-2.08v-2.08z" fill="url(#y)"/><path d="M23.994 14.58h2.08v2.08h-2.08v-2.08z" fill="url(#z)"/></g><defs><linearGradient id="b" x1="39.616" y1="-.206" x2="39.616" y2="49.905" gradientUnits="userSpaceOnUse"><stop stop-color="#0AF"/><stop offset="1" stop-color="#0080FF"/></linearGradient><linearGradient id="c" x1="43.783" y1="-.206" x2="43.783" y2="49.905" gradientUnits="userSpaceOnUse"><stop stop-color="#0AF"/><stop offset="1" stop-color="#0080FF"/></linearGradient><linearGradient id="d" x1="39.616" y1="-.206" x2="39.616" y2="49.905" gradientUnits="userSpaceOnUse"><stop stop-color="#0AF"/><stop offset="1" stop-color="#0080FF"/></linearGradient><linearGradient id="e" x1="35.449" y1="-.206" x2="35.449" y2="49.905" gradientUnits="userSpaceOnUse"><stop stop-color="#0AF"/><stop offset="1" stop-color="#0080FF"/></linearGradient><linearGradient id="f" x1="43.783" y1="-.206" x2="43.783" y2="49.905" gradientUnits="userSpaceOnUse"><stop stop-color="#0AF"/><stop offset="1" stop-color="#0080FF"/></linearGradient><linearGradient id="g" x1="39.616" y1="-.206" x2="39.616" y2="49.905" gradientUnits="userSpaceOnUse"><stop stop-color="#0AF"/><stop offset="1" stop-color="#0080FF"/></linearGradient><linearGradient id="h" x1="35.449" y1="-.206" x2="35.449" y2="49.905" gradientUnits="userSpaceOnUse"><stop stop-color="#0AF"/><stop offset="1" stop-color="#0080FF"/></linearGradient><linearGradient id="i" x1="43.783" y1="-.206" x2="43.783" y2="49.905" gradientUnits="userSpaceOnUse"><stop stop-color="#0AF"/><stop offset="1" stop-color="#0080FF"/></linearGradient><linearGradient id="j" x1="39.616" y1="-.206" x2="39.616" y2="49.905" gradientUnits="userSpaceOnUse"><stop stop-color="#0AF"/><stop offset="1" stop-color="#0080FF"/></linearGradient><linearGradient id="k" x1="35.449" y1="-.206" x2="35.449" y2="49.905" gradientUnits="userSpaceOnUse"><stop stop-color="#0AF"/><stop offset="1" stop-color="#0080FF"/></linearGradient><linearGradient id="l" x1="39.616" y1="-.206" x2="39.616" y2="49.905" gradientUnits="userSpaceOnUse"><stop stop-color="#0AF"/><stop offset="1" stop-color="#0080FF"/></linearGradient><linearGradient id="m" x1="33.887" y1="-.206" x2="33.887" y2="49.905" gradientUnits="userSpaceOnUse"><stop stop-color="#0AF"/><stop offset="1" stop-color="#0080FF"/></linearGradient><linearGradient id="n" x1="14.095" y1="-.206" x2="14.095" y2="49.905" gradientUnits="userSpaceOnUse"><stop stop-color="#0AF"/><stop offset="1" stop-color="#0080FF"/></linearGradient><linearGradient id="o" x1="14.616" y1="-.205" x2="14.616" y2="49.905" gradientUnits="userSpaceOnUse"><stop stop-color="#0AF"/><stop offset="1" stop-color="#0080FF"/></linearGradient><linearGradient id="p" x1="16.699" y1="-.206" x2="16.699" y2="49.905" gradientUnits="userSpaceOnUse"><stop stop-color="#0AF"/><stop offset="1" stop-color="#0080FF"/></linearGradient><linearGradient id="q" x1="10.449" y1="-.206" x2="10.449" y2="49.905" gradientUnits="userSpaceOnUse"><stop stop-color="#0AF"/><stop offset="1" stop-color="#0080FF"/></linearGradient><linearGradient id="r" x1="14.616" y1="-.206" x2="14.616" y2="49.905" gradientUnits="userSpaceOnUse"><stop stop-color="#0AF"/><stop offset="1" stop-color="#0080FF"/></linearGradient><linearGradient id="s" x1="18.783" y1="-.206" x2="18.783" y2="49.905" gradientUnits="userSpaceOnUse"><stop stop-color="#0AF"/><stop offset="1" stop-color="#0080FF"/></linearGradient><linearGradient id="t" x1="22.949" y1="-.206" x2="22.949" y2="49.905" gradientUnits="userSpaceOnUse"><stop stop-color="#0AF"/><stop offset="1" stop-color="#0080FF"/></linearGradient><linearGradient id="u" x1="27.116" y1="-.206" x2="27.116" y2="49.905" gradientUnits="userSpaceOnUse"><stop stop-color="#0AF"/><stop offset="1" stop-color="#0080FF"/></linearGradient><linearGradient id="v" x1="12.533" y1="-.206" x2="12.533" y2="49.905" gradientUnits="userSpaceOnUse"><stop stop-color="#0AF"/><stop offset="1" stop-color="#0080FF"/></linearGradient><linearGradient id="w" x1="19.824" y1="-.206" x2="19.824" y2="49.905" gradientUnits="userSpaceOnUse"><stop stop-color="#0AF"/><stop offset="1" stop-color="#0080FF"/></linearGradient><linearGradient id="x" x1="33.366" y1="-.206" x2="33.366" y2="49.905" gradientUnits="userSpaceOnUse"><stop stop-color="#0AF"/><stop offset="1" stop-color="#0080FF"/></linearGradient><linearGradient id="y" x1="29.199" y1="-.206" x2="29.199" y2="49.905" gradientUnits="userSpaceOnUse"><stop stop-color="#0AF"/><stop offset="1" stop-color="#0080FF"/></linearGradient><linearGradient id="z" x1="25.033" y1="-.206" x2="25.033" y2="49.905" gradientUnits="userSpaceOnUse"><stop stop-color="#0AF"/><stop offset="1" stop-color="#0080FF"/></linearGradient><clipPath id="a"><path fill="#fff" d="M0 0h50v50H0z"/></clipPath></defs></svg>