<svg width="50" height="50" viewBox="0 0 50 50" fill="none" xmlns="http://www.w3.org/2000/svg"><g clip-path="url(#a)"><path d="M21.875 37.5a1.046 1.046 0 0 1-1.045-1.045 3.134 3.134 0 0 1 3.125-3.125h9.375c1.152 0 2.08-.937 2.08-2.08s-.937-2.08-2.08-2.08h-9.375a.992.992 0 0 1-.332-.059l-2.959-.986h-5.039c-1.709 0-3.34.645-4.473 1.777l-1.045 1.045c-.41.41-1.064.41-1.474 0a1.037 1.037 0 0 1 0-1.474l1.045-1.045c1.513-1.514 3.681-2.393 5.947-2.393h5.205a.99.99 0 0 1 .332.059l2.969.986h9.209a4.174 4.174 0 0 1 4.17 4.17 4.168 4.168 0 0 1-4.17 4.17h-9.375c-.576 0-1.045.469-1.045 1.045 0 .566-.469 1.035-1.045 1.035z" fill="url(#b)"/><path d="M16.357 43.447l-1.474-1.474 2.08-2.08c.195-.196.459-.303.732-.303h14.21l11.035-9.033 4.619-7.383c-.244-.147-.498-.254-.703-.254-.928 0-1.65 0-3.428 1.777l-2.08 2.08a1.518 1.518 0 0 1-.196.157l-5.205 3.125-1.074-1.788 5.098-3.056 1.992-1.992c2.207-2.207 3.477-2.383 4.902-2.383 1.436 0 2.686 1.21 2.822 1.348.342.341.4.878.147 1.289l-5.205 8.33a.932.932 0 0 1-.225.253L32.95 41.435c-.185.157-.42.235-.664.235h-14.14l-1.788 1.777z" fill="url(#c)"/><path d="M13.545 50a1.01 1.01 0 0 1-.732-.303 1.037 1.037 0 0 1 0-1.474l3.427-3.428L5.205 33.77l-3.428 3.427c-.41.41-1.064.41-1.474 0a1.037 1.037 0 0 1 0-1.474l4.17-4.17c.41-.41 1.064-.41 1.474 0l12.5 12.5c.41.41.41 1.064 0 1.474l-4.17 4.17a1.027 1.027 0 0 1-.732.303z" fill="url(#d)"/><path d="M37.5 23.955a1.05 1.05 0 0 1-.908-1.572c1.27-2.178 1.943-4.522 1.943-6.768 0-7.47-6.074-13.545-13.545-13.545-7.47 0-13.545 6.075-13.545 13.545 0 2.246.674 4.59 1.944 6.768a1.042 1.042 0 0 1-.381 1.426 1.042 1.042 0 0 1-1.426-.381c-1.436-2.48-2.207-5.186-2.207-7.803C9.375 7.012 16.387 0 25 0s15.625 7.012 15.625 15.625c0 2.617-.772 5.322-2.227 7.813a1.036 1.036 0 0 1-.898.517z" fill="url(#e)"/><path d="M27.08 22.92h-4.17a3.134 3.134 0 0 1-3.125-3.125 1.046 1.046 0 0 1 2.09 0c0 .576.469 1.045 1.045 1.045h4.17c.576 0 1.045-.469 1.045-1.045v-2.08c0-.576-.469-1.045-1.045-1.045h-4.17a3.134 3.134 0 0 1-3.125-3.125v-2.08A3.134 3.134 0 0 1 22.92 8.34h4.17a3.134 3.134 0 0 1 3.125 3.125 1.046 1.046 0 0 1-2.09 0c0-.576-.469-1.045-1.045-1.045h-4.17c-.576 0-1.045.469-1.045 1.045v2.08c0 .576.469 1.045 1.045 1.045h4.17a3.134 3.134 0 0 1 3.125 3.125v2.08a3.128 3.128 0 0 1-3.125 3.125z" fill="url(#f)"/><path d="M25 25a1.046 1.046 0 0 1-1.045-1.045V7.295a1.046 1.046 0 0 1 2.09 0v16.67C26.045 24.53 25.576 25 25 25z" fill="url(#g)"/><path d="M33.33 14.58h2.08v2.08h-2.08v-2.08z" fill="url(#h)"/><path d="M14.58 14.58h2.08v2.08h-2.08v-2.08z" fill="url(#i)"/></g><defs><linearGradient id="b" x1="22.917" y1="-.206" x2="22.917" y2="49.903" gradientUnits="userSpaceOnUse"><stop stop-color="#0AF"/><stop offset="1" stop-color="#0080FF"/></linearGradient><linearGradient id="c" x1="32.444" y1="-.206" x2="32.444" y2="49.903" gradientUnits="userSpaceOnUse"><stop stop-color="#0AF"/><stop offset="1" stop-color="#0080FF"/></linearGradient><linearGradient id="d" x1="9.375" y1="-.206" x2="9.375" y2="49.903" gradientUnits="userSpaceOnUse"><stop stop-color="#0AF"/><stop offset="1" stop-color="#0080FF"/></linearGradient><linearGradient id="e" x1="25" y1="-.206" x2="25" y2="49.903" gradientUnits="userSpaceOnUse"><stop stop-color="#0AF"/><stop offset="1" stop-color="#0080FF"/></linearGradient><linearGradient id="f" x1="25" y1="-.206" x2="25" y2="49.903" gradientUnits="userSpaceOnUse"><stop stop-color="#0AF"/><stop offset="1" stop-color="#0080FF"/></linearGradient><linearGradient id="g" x1="25" y1="-.206" x2="25" y2="49.903" gradientUnits="userSpaceOnUse"><stop stop-color="#0AF"/><stop offset="1" stop-color="#0080FF"/></linearGradient><linearGradient id="h" x1="34.375" y1="-.206" x2="34.375" y2="49.903" gradientUnits="userSpaceOnUse"><stop stop-color="#0AF"/><stop offset="1" stop-color="#0080FF"/></linearGradient><linearGradient id="i" x1="15.625" y1="-.206" x2="15.625" y2="49.903" gradientUnits="userSpaceOnUse"><stop stop-color="#0AF"/><stop offset="1" stop-color="#0080FF"/></linearGradient><clipPath id="a"><path fill="#fff" d="M0 0h50v50H0z"/></clipPath></defs></svg>