<svg width="50" height="50" viewBox="0 0 50 50" fill="none" xmlns="http://www.w3.org/2000/svg"><g clip-path="url(#a)"><path d="M25 50H5.205a1.046 1.046 0 0 1 0-2.09H25A1.046 1.046 0 0 1 25 50z" fill="url(#b)"/><path d="M44.795 50H29.17a1.046 1.046 0 0 1 0-2.09h15.625a1.046 1.046 0 0 1 0 2.09z" fill="url(#c)"/><path d="M33.33 50a1.046 1.046 0 0 1-1.045-1.045v-10.41a4.174 4.174 0 0 0-4.17-4.17h-6.25a4.174 4.174 0 0 0-4.17 4.17v10.42a1.046 1.046 0 0 1-2.09 0v-10.42a6.256 6.256 0 0 1 6.25-6.25h6.25a6.256 6.256 0 0 1 6.25 6.25v10.42c.02.566-.449 1.035-1.025 1.035z" fill="url(#d)"/><path d="M25 30.205A5.21 5.21 0 0 1 19.795 25 5.21 5.21 0 0 1 25 19.795 5.21 5.21 0 0 1 30.205 25 5.21 5.21 0 0 1 25 30.205zm0-8.33A3.134 3.134 0 0 0 21.875 25 3.134 3.134 0 0 0 25 28.125 3.134 3.134 0 0 0 28.125 25 3.134 3.134 0 0 0 25 21.875z" fill="url(#e)"/><path d="M23.955 36.455h2.08v2.08h-2.08v-2.08z" fill="url(#f)"/><path d="M29.17 50a1.046 1.046 0 0 1-1.045-1.045v-4.17a1.046 1.046 0 0 1 2.09 0v4.17A1.052 1.052 0 0 1 29.17 50z" fill="url(#g)"/><path d="M20.83 50a1.046 1.046 0 0 1-1.045-1.045v-4.17a1.046 1.046 0 0 1 2.09 0v4.17c0 .576-.469 1.045-1.045 1.045z" fill="url(#h)"/><path d="M25 10.42A5.21 5.21 0 0 1 25 0a5.21 5.21 0 0 1 5.205 5.205c0 2.871-2.334 5.215-5.205 5.215zm0-8.34a3.134 3.134 0 0 0-3.125 3.125A3.134 3.134 0 0 0 25 8.33a3.134 3.134 0 0 0 3.125-3.125A3.134 3.134 0 0 0 25 2.08z" fill="url(#i)"/><path d="M10.42 15.625a5.21 5.21 0 0 1-5.205-5.205 5.21 5.21 0 0 1 5.205-5.205 5.21 5.21 0 0 1 5.205 5.205 5.21 5.21 0 0 1-5.205 5.205zm0-8.33a3.134 3.134 0 0 0-3.125 3.125 3.134 3.134 0 0 0 3.125 3.125 3.134 3.134 0 0 0 3.125-3.125 3.128 3.128 0 0 0-3.125-3.125z" fill="url(#j)"/><path d="M39.58 15.625a5.21 5.21 0 0 1-5.205-5.205 5.21 5.21 0 0 1 5.205-5.205 5.21 5.21 0 0 1 5.205 5.205c.01 2.871-2.334 5.205-5.205 5.205zm0-8.33a3.134 3.134 0 0 0-3.125 3.125 3.134 3.134 0 0 0 3.125 3.125 3.134 3.134 0 0 0 3.125-3.125 3.122 3.122 0 0 0-3.125-3.125z" fill="url(#k)"/><path d="M44.795 30.205A5.21 5.21 0 0 1 39.59 25a5.21 5.21 0 0 1 5.205-5.205A5.21 5.21 0 0 1 50 25a5.21 5.21 0 0 1-5.205 5.205zm0-8.33A3.134 3.134 0 0 0 41.67 25a3.134 3.134 0 0 0 3.125 3.125A3.134 3.134 0 0 0 47.92 25a3.134 3.134 0 0 0-3.125-3.125z" fill="url(#l)"/><path d="M5.205 30.205A5.21 5.21 0 0 1 0 25a5.21 5.21 0 0 1 5.205-5.205A5.21 5.21 0 0 1 10.41 25a5.21 5.21 0 0 1-5.205 5.205zm0-8.33A3.134 3.134 0 0 0 2.08 25a3.134 3.134 0 0 0 3.125 3.125A3.134 3.134 0 0 0 8.33 25a3.128 3.128 0 0 0-3.125-3.125z" fill="url(#m)"/><path d="M25 17.705a1.046 1.046 0 0 1-1.045-1.045V9.375a1.046 1.046 0 0 1 2.09 0v7.295c0 .576-.469 1.035-1.045 1.035z" fill="url(#n)"/><path d="M16.67 26.045H9.375a1.046 1.046 0 0 1 0-2.09h7.295a1.046 1.046 0 0 1 0 2.09z" fill="url(#o)"/><path d="M18.749 19.795a1.01 1.01 0 0 1-.732-.303l-5.205-5.205a1.037 1.037 0 0 1 0-1.475c.41-.41 1.064-.41 1.474 0l5.205 5.206c.41.41.41 1.064 0 1.474a1.093 1.093 0 0 1-.742.303z" fill="url(#p)"/><path d="M31.251 19.795a1.01 1.01 0 0 1-.732-.303 1.037 1.037 0 0 1 0-1.474l5.205-5.206c.41-.41 1.064-.41 1.474 0 .41.41.41 1.065 0 1.475l-5.205 5.205a1.093 1.093 0 0 1-.742.303z" fill="url(#q)"/><path d="M40.625 26.045H33.33a1.046 1.046 0 0 1 0-2.09h7.295a1.046 1.046 0 0 1 0 2.09z" fill="url(#r)"/></g><defs><linearGradient id="b" x1="15.104" y1="-.205" x2="15.104" y2="49.794" gradientUnits="userSpaceOnUse"><stop stop-color="#0AF"/><stop offset="1" stop-color="#0080FF"/></linearGradient><linearGradient id="c" x1="36.979" y1="-.205" x2="36.979" y2="49.794" gradientUnits="userSpaceOnUse"><stop stop-color="#0AF"/><stop offset="1" stop-color="#0080FF"/></linearGradient><linearGradient id="d" x1="25" y1="-.206" x2="25" y2="49.794" gradientUnits="userSpaceOnUse"><stop stop-color="#0AF"/><stop offset="1" stop-color="#0080FF"/></linearGradient><linearGradient id="e" x1="25" y1="-.206" x2="25" y2="49.794" gradientUnits="userSpaceOnUse"><stop stop-color="#0AF"/><stop offset="1" stop-color="#0080FF"/></linearGradient><linearGradient id="f" x1="25" y1="-.206" x2="25" y2="49.794" gradientUnits="userSpaceOnUse"><stop stop-color="#0AF"/><stop offset="1" stop-color="#0080FF"/></linearGradient><linearGradient id="g" x1="29.167" y1="-.206" x2="29.167" y2="49.794" gradientUnits="userSpaceOnUse"><stop stop-color="#0AF"/><stop offset="1" stop-color="#0080FF"/></linearGradient><linearGradient id="h" x1="20.833" y1="-.206" x2="20.833" y2="49.794" gradientUnits="userSpaceOnUse"><stop stop-color="#0AF"/><stop offset="1" stop-color="#0080FF"/></linearGradient><linearGradient id="i" x1="25" y1="-.206" x2="25" y2="49.794" gradientUnits="userSpaceOnUse"><stop stop-color="#0AF"/><stop offset="1" stop-color="#0080FF"/></linearGradient><linearGradient id="j" x1="10.417" y1="-.206" x2="10.417" y2="49.794" gradientUnits="userSpaceOnUse"><stop stop-color="#0AF"/><stop offset="1" stop-color="#0080FF"/></linearGradient><linearGradient id="k" x1="39.583" y1="-.206" x2="39.583" y2="49.794" gradientUnits="userSpaceOnUse"><stop stop-color="#0AF"/><stop offset="1" stop-color="#0080FF"/></linearGradient><linearGradient id="l" x1="44.792" y1="-.206" x2="44.792" y2="49.794" gradientUnits="userSpaceOnUse"><stop stop-color="#0AF"/><stop offset="1" stop-color="#0080FF"/></linearGradient><linearGradient id="m" x1="5.208" y1="-.206" x2="5.208" y2="49.794" gradientUnits="userSpaceOnUse"><stop stop-color="#0AF"/><stop offset="1" stop-color="#0080FF"/></linearGradient><linearGradient id="n" x1="25" y1="-.206" x2="25" y2="49.794" gradientUnits="userSpaceOnUse"><stop stop-color="#0AF"/><stop offset="1" stop-color="#0080FF"/></linearGradient><linearGradient id="o" x1="13.021" y1="-.206" x2="13.021" y2="49.794" gradientUnits="userSpaceOnUse"><stop stop-color="#0AF"/><stop offset="1" stop-color="#0080FF"/></linearGradient><linearGradient id="p" x1="16.145" y1="-.206" x2="16.145" y2="49.794" gradientUnits="userSpaceOnUse"><stop stop-color="#0AF"/><stop offset="1" stop-color="#0080FF"/></linearGradient><linearGradient id="q" x1="33.855" y1="-.206" x2="33.855" y2="49.794" gradientUnits="userSpaceOnUse"><stop stop-color="#0AF"/><stop offset="1" stop-color="#0080FF"/></linearGradient><linearGradient id="r" x1="36.979" y1="-.206" x2="36.979" y2="49.794" gradientUnits="userSpaceOnUse"><stop stop-color="#0AF"/><stop offset="1" stop-color="#0080FF"/></linearGradient><clipPath id="a"><path fill="#fff" d="M0 0h50v50H0z"/></clipPath></defs></svg>