<svg width="50" height="50" viewBox="0 0 50 50" fill="none" xmlns="http://www.w3.org/2000/svg"><g clip-path="url(#a)"><path d="M18.48 32.092h-6.286a1.087 1.087 0 0 1-.806-1.816c.255-.286.571-.776.571-1.45a2.185 2.185 0 0 0-2.571-2.142c-.847.143-1.551.826-1.735 1.673a2.112 2.112 0 0 0 .52 1.919 1.082 1.082 0 0 1-.806 1.806H1.092C.49 32.082 0 31.592 0 30.99V15.786a3.268 3.268 0 0 1 3.265-3.265h10.868c.602 0 1.081.49 1.081 1.081 0 .602-.49 1.092-1.081 1.092H3.265c-.602 0-1.092.49-1.092 1.092v14.132h3.398a4.308 4.308 0 0 1-.04-2.01 4.35 4.35 0 0 1 3.49-3.357 4.344 4.344 0 0 1 5.102 4.286c0 .367-.052.735-.143 1.081h3.398v-5.193a1.087 1.087 0 0 1 1.816-.806c.306.275.97.714 1.918.52a2.184 2.184 0 0 0 1.674-1.735 2.185 2.185 0 0 0-2.143-2.572 2.12 2.12 0 0 0-1.45.572 1.087 1.087 0 1 1-1.816-.806v-6.286c0-.602.49-1.081 1.082-1.081.602 0 1.092.49 1.092 1.081v4.49c1.582-.418 3.347.143 4.408 1.408a4.384 4.384 0 0 1 .96 3.561c-.297 1.725-1.643 3.133-3.358 3.49a4.447 4.447 0 0 1-2.01-.04v4.49c.01.591-.47 1.08-1.071 1.08z" fill="url(#b)"/><path d="M4.348 16.878H6.52v2.173H4.348v-2.173z" fill="url(#c)"/><path d="M18.48 49.48H3.265A3.268 3.268 0 0 1 0 46.214V35.357c0-.602.49-1.092 1.092-1.092.602 0 1.081.49 1.081 1.092v10.868c0 .602.49 1.091 1.092 1.091h14.133v-3.398c-1.582.419-3.347-.142-4.408-1.408a4.384 4.384 0 0 1-.96-3.56c.296-1.725 1.644-3.134 3.358-3.49a4.447 4.447 0 0 1 2.01.04v-4.49c0-.602.49-1.091 1.082-1.091.602 0 1.091.49 1.091 1.091v6.286a1.087 1.087 0 0 1-1.816.806 2.17 2.17 0 0 0-1.918-.52 2.184 2.184 0 0 0-1.674 1.734 2.184 2.184 0 0 0 2.143 2.571 2.12 2.12 0 0 0 1.45-.57 1.088 1.088 0 1 1 1.816.806v6.285a1.089 1.089 0 0 1-1.092 1.072z" fill="url(#d)"/><path d="M4.348 42.96H6.52v2.173H4.348v-2.174z" fill="url(#e)"/><path d="M33.694 49.48H22.827c-.602 0-1.092-.49-1.092-1.082 0-.602.49-1.092 1.092-1.092h10.867c.602 0 1.082-.49 1.082-1.092V32.092h-3.398a4.35 4.35 0 0 1-3.449 5.367 4.344 4.344 0 0 1-5.102-4.286c0-.367.051-.734.143-1.081h-4.49c-.602 0-1.082-.49-1.082-1.092 0-.602.49-1.092 1.082-1.092h6.286a1.087 1.087 0 0 1 .806 1.816 2.169 2.169 0 0 0-.572 1.45 2.185 2.185 0 0 0 2.572 2.142c.837-.143 1.55-.826 1.735-1.673a2.112 2.112 0 0 0-.52-1.919 1.087 1.087 0 1 1 .806-1.816h6.275c.602 0 1.092.49 1.092 1.092v15.224a3.266 3.266 0 0 1-3.266 3.256z" fill="url(#f)"/><path d="M30.438 42.96h2.173v2.173h-2.173v-2.174z" fill="url(#g)"/><path d="M36.959 25.572c-.276 0-.562-.102-.766-.317l-4.357-4.347a1.082 1.082 0 0 1-.235-1.183 1.076 1.076 0 0 1 1-.674 2.169 2.169 0 0 0 2.133-2.571 2.202 2.202 0 0 0-1.735-1.735c-.663-.112-1.296.051-1.796.47a2.184 2.184 0 0 0-.775 1.663c0 .438-.265.836-.674 1a1.082 1.082 0 0 1-1.183-.235l-4.347-4.347a1.084 1.084 0 0 1 0-1.54l9.786-9.787c1.867-1.867 4.02-1.867 5.887 0l6.52 6.52a1.084 1.084 0 0 1 0 1.542 1.084 1.084 0 0 1-1.54 0l-6.52-6.52c-1.021-1.021-1.786-1.021-2.807 0l-9.01 9.01 2.255 2.255a4.41 4.41 0 0 1 1.02-1.245 4.374 4.374 0 0 1 3.572-.95c1.755.307 3.194 1.746 3.5 3.5a4.365 4.365 0 0 1-.949 3.572 4.276 4.276 0 0 1-1.245 1.02l2.255 2.256 3.582-3.582a1.064 1.064 0 0 1 1.184-.235c.408.174.673.562.673 1a2.169 2.169 0 0 0 2.572 2.133 2.202 2.202 0 0 0 1.734-1.735c.112-.663-.05-1.296-.47-1.796a2.185 2.185 0 0 0-1.663-.775c-.438 0-.836-.265-1-.674a1.082 1.082 0 0 1 .235-1.183l4.347-4.347a1.084 1.084 0 0 1 1.541 0 1.084 1.084 0 0 1 0 1.54l-3.03 3.052c.469.255.887.602 1.244 1.02a4.374 4.374 0 0 1 .95 3.572c-.307 1.755-1.746 3.193-3.5 3.5a4.374 4.374 0 0 1-3.572-.95 4.411 4.411 0 0 1-1.02-1.244l-3.031 3.03a1.07 1.07 0 0 1-.765.317z" fill="url(#h)"/><path d="M35.867 6.01h2.174v2.174h-2.174V6.01z" fill="url(#i)"/></g><defs><linearGradient id="b" x1="12.499" y1="-.011" x2="12.499" y2="49.582" gradientUnits="userSpaceOnUse"><stop stop-color="#0AF"/><stop offset="1" stop-color="#0080FF"/></linearGradient><linearGradient id="c" x1="5.436" y1="-.011" x2="5.436" y2="49.582" gradientUnits="userSpaceOnUse"><stop stop-color="#0AF"/><stop offset="1" stop-color="#0080FF"/></linearGradient><linearGradient id="d" x1="9.783" y1="-.011" x2="9.783" y2="49.582" gradientUnits="userSpaceOnUse"><stop stop-color="#0AF"/><stop offset="1" stop-color="#0080FF"/></linearGradient><linearGradient id="e" x1="5.436" y1="-.011" x2="5.436" y2="49.582" gradientUnits="userSpaceOnUse"><stop stop-color="#0AF"/><stop offset="1" stop-color="#0080FF"/></linearGradient><linearGradient id="f" x1="27.174" y1="-.011" x2="27.174" y2="49.582" gradientUnits="userSpaceOnUse"><stop stop-color="#0AF"/><stop offset="1" stop-color="#0080FF"/></linearGradient><linearGradient id="g" x1="31.52" y1="-.011" x2="31.52" y2="49.582" gradientUnits="userSpaceOnUse"><stop stop-color="#0AF"/><stop offset="1" stop-color="#0080FF"/></linearGradient><linearGradient id="h" x1="36.956" y1="-.011" x2="36.956" y2="49.582" gradientUnits="userSpaceOnUse"><stop stop-color="#0AF"/><stop offset="1" stop-color="#0080FF"/></linearGradient><linearGradient id="i" x1="36.956" y1="-.011" x2="36.956" y2="49.581" gradientUnits="userSpaceOnUse"><stop stop-color="#0AF"/><stop offset="1" stop-color="#0080FF"/></linearGradient><clipPath id="a"><path fill="#fff" d="M0 0h50v50H0z"/></clipPath></defs></svg>