<svg width="50" height="50" viewBox="0 0 50 50" fill="none" xmlns="http://www.w3.org/2000/svg"><path d="M15.625 26.045H8.33a5.21 5.21 0 0 1-5.205-5.205c0-2.422 1.64-4.6 3.906-5.176a1.04 1.04 0 0 1 1.27.752 1.052 1.052 0 0 1-.752 1.27c-1.338.341-2.344 1.699-2.344 3.154a3.134 3.134 0 0 0 3.125 3.125h7.295c.576 0 1.045.469 1.045 1.045s-.469 1.035-1.045 1.035z" fill="url(#a)"/><path d="M41.669 26.045h-7.295a1.046 1.046 0 0 1 0-2.09h7.295a3.134 3.134 0 0 0 3.125-3.125 3.111 3.111 0 0 0-2.588-3.066 1.044 1.044 0 0 1-.713-.479 1.04 1.04 0 0 1-.108-.85c.186-.595.274-1.22.274-1.855a6.256 6.256 0 0 0-6.25-6.25c-.42 0-.85.049-1.318.147a1.043 1.043 0 0 1-1.202-.694 8.316 8.316 0 0 0-7.9-5.703 8.326 8.326 0 0 0-7.9 5.703 1.048 1.048 0 0 1-1.201.694 6.41 6.41 0 0 0-1.319-.147 6.2 6.2 0 0 0-5.986 4.463 1.04 1.04 0 0 1-1.299.703 1.047 1.047 0 0 1-.703-1.299C7.723 8.36 11.317 5.84 15.429 6.29A10.43 10.43 0 0 1 24.998 0c4.19 0 7.93 2.5 9.56 6.299 4.98-.537 9.19 3.408 9.19 8.29 0 .48-.04.958-.127 1.436a5.196 5.196 0 0 1 3.252 4.815 5.216 5.216 0 0 1-5.205 5.205z" fill="url(#b)"/><path d="M19.795 50a1.046 1.046 0 0 1-1.045-1.045V16.67a1.046 1.046 0 0 1 2.09 0v32.295A1.05 1.05 0 0 1 19.795 50z" fill="url(#c)"/><path d="M30.205 50a1.046 1.046 0 0 1-1.045-1.045V16.67a1.046 1.046 0 0 1 2.09 0v32.295c0 .566-.469 1.035-1.045 1.035z" fill="url(#d)"/><path d="M30.205 20.83h-6.25a1.046 1.046 0 0 1 0-2.09h6.25a1.046 1.046 0 0 1 0 2.09z" fill="url(#e)"/><path d="M30.205 26.045h-6.25a1.046 1.046 0 0 1 0-2.09h6.25a1.046 1.046 0 0 1 0 2.09z" fill="url(#f)"/><path d="M30.205 31.25h-6.25a1.046 1.046 0 0 1 0-2.09h6.25a1.046 1.046 0 0 1 0 2.09z" fill="url(#g)"/><path d="M30.205 36.455h-6.25a1.046 1.046 0 0 1 0-2.09h6.25a1.046 1.046 0 0 1 0 2.09z" fill="url(#h)"/><path d="M30.205 41.67h-6.25a1.046 1.046 0 0 1 0-2.09h6.25a1.046 1.046 0 0 1 0 2.09z" fill="url(#i)"/><path d="M30.205 46.875h-6.25a1.046 1.046 0 0 1 0-2.09h6.25a1.046 1.046 0 0 1 0 2.09z" fill="url(#j)"/><path d="M48.956 35.42a1.046 1.046 0 0 1-1.045-1.045c0-.576-.469-1.045-1.045-1.045-.313 0-.537.147-.674.264a1.046 1.046 0 0 1-.918.224 1.065 1.065 0 0 1-.723-.615 3.13 3.13 0 0 0-2.89-1.953 3.112 3.112 0 0 0-3.018 2.353 1.044 1.044 0 0 1-2.021-.517 5.193 5.193 0 0 1 5.039-3.916c1.728 0 3.31.85 4.267 2.236a3.06 3.06 0 0 1 .938-.146 3.134 3.134 0 0 1 3.125 3.125 1.03 1.03 0 0 1-1.035 1.035z" fill="url(#k)"/><path d="M40.625 37.5a1.046 1.046 0 0 1-1.045-1.045c0-1.152-.937-2.08-2.08-2.08s-2.08.938-2.08 2.08a1.046 1.046 0 0 1-2.09 0 4.174 4.174 0 0 1 4.17-4.17 4.168 4.168 0 0 1 4.17 4.17c0 .576-.469 1.045-1.045 1.045z" fill="url(#l)"/><path d="M45.83 37.5h-1.045a1.046 1.046 0 0 1 0-2.09h1.045a1.046 1.046 0 0 1 0 2.09z" fill="url(#m)"/><path d="M15.625 36.455h-4.17a1.046 1.046 0 0 1-1.045-1.045c0-1.152-.937-2.08-2.08-2.08a2.09 2.09 0 0 0-2.08 2.09c0 .576-.469 1.045-1.045 1.045h-2.08a1.046 1.046 0 0 1 0-2.09h1.172A4.178 4.178 0 0 1 8.33 31.25a4.17 4.17 0 0 1 4.033 3.125h3.262c.576 0 1.045.469 1.045 1.045s-.469 1.035-1.045 1.035z" fill="url(#n)"/><path d="M8.33 40.625H1.045a1.046 1.046 0 0 1 0-2.09H8.34c.576 0 1.045.469 1.045 1.045s-.479 1.045-1.055 1.045z" fill="url(#o)"/><path d="M13.545 40.625H12.5a1.046 1.046 0 0 1 0-2.09h1.045a1.046 1.046 0 0 1 0 2.09z" fill="url(#p)"/><defs><linearGradient id="a" x1="9.896" y1="-.401" x2="9.896" y2="49.892" gradientUnits="userSpaceOnUse"><stop stop-color="#0AF"/><stop offset="1" stop-color="#0080FF"/></linearGradient><linearGradient id="b" x1="26.712" y1="-.401" x2="26.712" y2="49.892" gradientUnits="userSpaceOnUse"><stop stop-color="#0AF"/><stop offset="1" stop-color="#0080FF"/></linearGradient><linearGradient id="c" x1="19.792" y1="-.401" x2="19.792" y2="49.892" gradientUnits="userSpaceOnUse"><stop stop-color="#0AF"/><stop offset="1" stop-color="#0080FF"/></linearGradient><linearGradient id="d" x1="30.208" y1="-.401" x2="30.208" y2="49.892" gradientUnits="userSpaceOnUse"><stop stop-color="#0AF"/><stop offset="1" stop-color="#0080FF"/></linearGradient><linearGradient id="e" x1="27.083" y1="-.401" x2="27.083" y2="49.892" gradientUnits="userSpaceOnUse"><stop stop-color="#0AF"/><stop offset="1" stop-color="#0080FF"/></linearGradient><linearGradient id="f" x1="27.083" y1="-.401" x2="27.083" y2="49.892" gradientUnits="userSpaceOnUse"><stop stop-color="#0AF"/><stop offset="1" stop-color="#0080FF"/></linearGradient><linearGradient id="g" x1="27.083" y1="-.401" x2="27.083" y2="49.892" gradientUnits="userSpaceOnUse"><stop stop-color="#0AF"/><stop offset="1" stop-color="#0080FF"/></linearGradient><linearGradient id="h" x1="27.083" y1="-.401" x2="27.083" y2="49.892" gradientUnits="userSpaceOnUse"><stop stop-color="#0AF"/><stop offset="1" stop-color="#0080FF"/></linearGradient><linearGradient id="i" x1="27.083" y1="-.401" x2="27.083" y2="49.892" gradientUnits="userSpaceOnUse"><stop stop-color="#0AF"/><stop offset="1" stop-color="#0080FF"/></linearGradient><linearGradient id="j" x1="27.083" y1="-.401" x2="27.083" y2="49.892" gradientUnits="userSpaceOnUse"><stop stop-color="#0AF"/><stop offset="1" stop-color="#0080FF"/></linearGradient><linearGradient id="k" x1="43.298" y1="-.401" x2="43.298" y2="49.892" gradientUnits="userSpaceOnUse"><stop stop-color="#0AF"/><stop offset="1" stop-color="#0080FF"/></linearGradient><linearGradient id="l" x1="37.5" y1="-.401" x2="37.5" y2="49.892" gradientUnits="userSpaceOnUse"><stop stop-color="#0AF"/><stop offset="1" stop-color="#0080FF"/></linearGradient><linearGradient id="m" x1="45.313" y1="-.401" x2="45.313" y2="49.892" gradientUnits="userSpaceOnUse"><stop stop-color="#0AF"/><stop offset="1" stop-color="#0080FF"/></linearGradient><linearGradient id="n" x1="9.375" y1="-.401" x2="9.375" y2="49.892" gradientUnits="userSpaceOnUse"><stop stop-color="#0AF"/><stop offset="1" stop-color="#0080FF"/></linearGradient><linearGradient id="o" x1="4.688" y1="-.401" x2="4.688" y2="49.892" gradientUnits="userSpaceOnUse"><stop stop-color="#0AF"/><stop offset="1" stop-color="#0080FF"/></linearGradient><linearGradient id="p" x1="13.021" y1="-.401" x2="13.021" y2="49.892" gradientUnits="userSpaceOnUse"><stop stop-color="#0AF"/><stop offset="1" stop-color="#0080FF"/></linearGradient></defs></svg>