<svg width="50" height="50" viewBox="0 0 50 50" fill="none" xmlns="http://www.w3.org/2000/svg"><path d="M30.244 45.83h-10.42a2.104 2.104 0 0 1-1.455-.586c-.42-.44-.625-.957-.625-1.494v-7.295c0-2.832-.937-4.668-3.857-7.598-1.66-1.66-5.518-6.162-5.518-12.197C8.37 7.48 15.84 0 25.03 0 34.22 0 41.7 7.48 41.7 16.67c0 6.025-3.857 10.537-5.517 12.197l-2.08 2.08c-.41.41-1.065.41-1.475 0a1.037 1.037 0 0 1 0-1.474l2.08-2.08c1.475-1.475 4.902-5.47 4.902-10.723 0-8.037-6.543-14.58-14.58-14.58-8.037-.01-14.58 6.533-14.58 14.58 0 5.254 3.428 9.248 4.903 10.723 3.3 3.3 4.472 5.673 4.472 9.072v7.285h10.42v-7.295a1.046 1.046 0 0 1 2.09 0v7.295c0 .537-.205 1.055-.586 1.455-.45.42-.967.625-1.504.625z" fill="url(#a)"/><path d="M22.95 37.5a1.046 1.046 0 0 1-1.046-1.045v-14.58a1.046 1.046 0 0 1 2.09 0v14.58c0 .576-.469 1.045-1.045 1.045z" fill="url(#b)"/><path d="M27.12 37.5a1.046 1.046 0 0 1-1.046-1.045v-14.58a1.046 1.046 0 0 1 2.09 0v14.58A1.053 1.053 0 0 1 27.12 37.5z" fill="url(#c)"/><path d="M18.78 37.5h-1.046a1.046 1.046 0 0 1 0-2.09h1.045a1.046 1.046 0 0 1 0 2.09z" fill="url(#d)"/><path d="M18.78 41.67h-1.046a1.046 1.046 0 0 1 0-2.09h1.045a1.046 1.046 0 0 1 0 2.09z" fill="url(#e)"/><path d="M32.324 37.5H22.95a1.046 1.046 0 0 1 0-2.09h9.375a1.046 1.046 0 0 1 0 2.09z" fill="url(#f)"/><path d="M32.324 41.67H22.95a1.046 1.046 0 0 1 0-2.09h9.375a1.046 1.046 0 0 1 0 2.09z" fill="url(#g)"/><path d="M27.12 50h-4.17a2.045 2.045 0 0 1-1.475-.615 2.075 2.075 0 0 1-.606-1.475v-3.125h2.08v3.125h4.17v-3.125h2.08v3.125A2.085 2.085 0 0 1 27.12 50z" fill="url(#h)"/><path d="M25.028 19.795a1.01 1.01 0 0 1-.732-.303L21.903 17.1l-2.392 2.392c-.41.41-1.065.41-1.475 0a1.037 1.037 0 0 1 0-1.474l3.125-3.125c.41-.41 1.065-.41 1.475 0l2.392 2.392 2.393-2.392c.41-.41 1.064-.41 1.474 0l3.125 3.125c.41.41.41 1.064 0 1.474-.41.41-1.064.41-1.474 0L28.153 17.1l-2.392 2.392a1.035 1.035 0 0 1-.733.303z" fill="url(#i)"/><path d="M47.95 17.705h-3.126a1.046 1.046 0 0 1 0-2.09h3.125a1.046 1.046 0 0 1 0 2.09z" fill="url(#j)"/><path d="M43.778 13.545c-.263 0-.537-.098-.732-.303a1.037 1.037 0 0 1 0-1.474l1.045-1.045c.41-.41 1.064-.41 1.474 0 .41.41.41 1.064 0 1.474l-1.044 1.045a1.075 1.075 0 0 1-.743.303z" fill="url(#k)"/><path d="M44.823 22.92c-.263 0-.537-.098-.732-.303l-1.045-1.045a1.037 1.037 0 0 1 0-1.474c.41-.41 1.064-.41 1.474 0l1.045 1.045c.41.41.41 1.064 0 1.474a1.093 1.093 0 0 1-.742.303z" fill="url(#l)"/><path d="M5.244 17.705H2.12a1.046 1.046 0 0 1 0-2.09h3.125a1.046 1.046 0 0 1 0 2.09z" fill="url(#m)"/><path d="M6.28 13.545c-.263 0-.537-.098-.732-.303l-1.045-1.045a1.037 1.037 0 0 1 0-1.474c.41-.41 1.064-.41 1.475 0l1.044 1.045c.41.41.41 1.064 0 1.474a1.075 1.075 0 0 1-.742.303z" fill="url(#n)"/><path d="M5.243 22.92a1.01 1.01 0 0 1-.732-.303 1.037 1.037 0 0 1 0-1.474l1.045-1.045c.41-.41 1.064-.41 1.474 0 .41.41.41 1.064 0 1.474l-1.045 1.045a1.111 1.111 0 0 1-.742.303z" fill="url(#o)"/><defs><linearGradient id="a" x1="25.033" y1="-.304" x2="25.033" y2="49.892" gradientUnits="userSpaceOnUse"><stop stop-color="#0AF"/><stop offset="1" stop-color="#0080FF"/></linearGradient><linearGradient id="b" x1="22.949" y1="-.304" x2="22.949" y2="49.892" gradientUnits="userSpaceOnUse"><stop stop-color="#0AF"/><stop offset="1" stop-color="#0080FF"/></linearGradient><linearGradient id="c" x1="27.116" y1="-.304" x2="27.116" y2="49.892" gradientUnits="userSpaceOnUse"><stop stop-color="#0AF"/><stop offset="1" stop-color="#0080FF"/></linearGradient><linearGradient id="d" x1="18.262" y1="-.304" x2="18.262" y2="49.892" gradientUnits="userSpaceOnUse"><stop stop-color="#0AF"/><stop offset="1" stop-color="#0080FF"/></linearGradient><linearGradient id="e" x1="18.262" y1="-.304" x2="18.262" y2="49.892" gradientUnits="userSpaceOnUse"><stop stop-color="#0AF"/><stop offset="1" stop-color="#0080FF"/></linearGradient><linearGradient id="f" x1="27.637" y1="-.304" x2="27.637" y2="49.892" gradientUnits="userSpaceOnUse"><stop stop-color="#0AF"/><stop offset="1" stop-color="#0080FF"/></linearGradient><linearGradient id="g" x1="27.637" y1="-.304" x2="27.637" y2="49.892" gradientUnits="userSpaceOnUse"><stop stop-color="#0AF"/><stop offset="1" stop-color="#0080FF"/></linearGradient><linearGradient id="h" x1="25.033" y1="-.303" x2="25.033" y2="49.892" gradientUnits="userSpaceOnUse"><stop stop-color="#0AF"/><stop offset="1" stop-color="#0080FF"/></linearGradient><linearGradient id="i" x1="25.031" y1="-.304" x2="25.031" y2="49.892" gradientUnits="userSpaceOnUse"><stop stop-color="#0AF"/><stop offset="1" stop-color="#0080FF"/></linearGradient><linearGradient id="j" x1="46.387" y1="-.304" x2="46.387" y2="49.892" gradientUnits="userSpaceOnUse"><stop stop-color="#0AF"/><stop offset="1" stop-color="#0080FF"/></linearGradient><linearGradient id="k" x1="44.302" y1="-.304" x2="44.302" y2="49.892" gradientUnits="userSpaceOnUse"><stop stop-color="#0AF"/><stop offset="1" stop-color="#0080FF"/></linearGradient><linearGradient id="l" x1="44.302" y1="-.304" x2="44.302" y2="49.892" gradientUnits="userSpaceOnUse"><stop stop-color="#0AF"/><stop offset="1" stop-color="#0080FF"/></linearGradient><linearGradient id="m" x1="3.678" y1="-.304" x2="3.678" y2="49.892" gradientUnits="userSpaceOnUse"><stop stop-color="#0AF"/><stop offset="1" stop-color="#0080FF"/></linearGradient><linearGradient id="n" x1="5.763" y1="-.304" x2="5.763" y2="49.892" gradientUnits="userSpaceOnUse"><stop stop-color="#0AF"/><stop offset="1" stop-color="#0080FF"/></linearGradient><linearGradient id="o" x1="5.761" y1="-.304" x2="5.761" y2="49.892" gradientUnits="userSpaceOnUse"><stop stop-color="#0AF"/><stop offset="1" stop-color="#0080FF"/></linearGradient></defs></svg>