<svg width="50" height="50" viewBox="0 0 50 50" fill="none" xmlns="http://www.w3.org/2000/svg"><g clip-path="url(#a)"><path d="M19.824 44.795a1.046 1.046 0 0 1-1.045-1.045v-7.295c0-1.758-.625-3.34-1.767-4.463l-7.9-7.724c-.41-.41-1.085-.4-1.485-.01a1.035 1.035 0 0 0-.303.732c0 .274.108.537.303.742l4.61 4.795c.898.928 1.337 1.846 1.337 2.803v1.045a1.046 1.046 0 0 1-2.09 0V33.33c0-.4-.234-.83-.752-1.357l-4.6-4.776A3.086 3.086 0 0 1 5.235 25c0-.84.323-1.621.918-2.207 1.182-1.182 3.233-1.182 4.414 0l7.891 7.715C20 32.022 20.85 34.14 20.85 36.455v7.295c.02.576-.45 1.045-1.026 1.045z" fill="url(#b)"/><path d="M9.404 44.795A1.046 1.046 0 0 1 8.36 43.75v-3.125c0-1.143-.546-2.197-1.777-3.428L2.11 32.725a3.524 3.524 0 0 1-1.045-2.51V14.59c0-.83.323-1.621.918-2.207 1.182-1.182 3.243-1.182 4.414 0a3.12 3.12 0 0 1 .918 2.207v5.205a1.046 1.046 0 0 1-2.09 0V14.59c0-.274-.107-.537-.302-.733-.39-.39-1.084-.39-1.475 0a1.035 1.035 0 0 0-.302.733v15.625c0 .39.156.762.43 1.045l4.472 4.472c1.035 1.016 2.402 2.637 2.402 4.893v3.125c0 .576-.469 1.045-1.045 1.045z" fill="url(#c)"/><path d="M23.994 50h-2.08v-7.295c1.152 0 2.08.938 2.08 2.08V50z" fill="url(#d)"/><path d="M7.324 50h-2.08v-5.205c0-1.152.938-2.08 2.08-2.08V50z" fill="url(#e)"/><path d="M21.904 44.795h-6.25a1.046 1.046 0 0 1 0-2.09h6.25a1.046 1.046 0 0 1 0 2.09z" fill="url(#f)"/><path d="M11.494 44.795h-4.17a1.046 1.046 0 0 1 0-2.09h4.17c.576 0 1.045.469 1.045 1.045a1.052 1.052 0 0 1-1.045 1.045z" fill="url(#g)"/><path d="M30.244 40.625A1.046 1.046 0 0 1 29.2 39.58v-3.125c0-2.324.85-4.433 2.393-5.947l7.9-7.725c1.162-1.162 3.233-1.172 4.414.01A3.12 3.12 0 0 1 44.824 25c0 .84-.322 1.621-.918 2.207l-4.58 4.766c-.508.527-.752.957-.752 1.357v1.045a1.046 1.046 0 0 1-2.09 0V33.33c0-.967.44-1.885 1.338-2.812l4.59-4.776a1.036 1.036 0 0 0 .02-1.484c-.4-.4-1.084-.4-1.475 0l-7.91 7.734c-1.143 1.123-1.768 2.705-1.768 4.463v3.125c0 .576-.459 1.045-1.035 1.045z" fill="url(#h)"/><path d="M40.654 44.795a1.046 1.046 0 0 1-1.045-1.045v-3.125c0-2.256 1.368-3.877 2.393-4.902l4.473-4.473c.273-.283.43-.645.43-1.045V14.58c0-.273-.108-.537-.303-.742-.391-.39-1.075-.39-1.475 0a1.04 1.04 0 0 0-.303.742v5.205a1.046 1.046 0 0 1-2.09 0V14.58c0-.83.323-1.621.918-2.207 1.182-1.182 3.242-1.182 4.424 0 .586.596.918 1.377.918 2.207v15.625c0 .947-.371 1.846-1.045 2.51l-4.472 4.472c-1.23 1.24-1.778 2.295-1.778 3.438v3.125c0 .576-.468 1.045-1.045 1.045z" fill="url(#i)"/><path d="M44.824 50h-2.08v-5.205h-14.59V50h-2.08v-5.205c0-1.152.938-2.08 2.08-2.08h14.58c1.153 0 2.08.937 2.08 2.08V50h.01z" fill="url(#j)"/><path d="M25.03 27.08c-.704 0-1.446-.068-2.247-.195a1.039 1.039 0 0 1-.869-.957 2.066 2.066 0 0 0-1.27-1.797 2.078 2.078 0 0 0-2.167.371 1.03 1.03 0 0 1-1.29.068 13.598 13.598 0 0 1-3.173-3.174 1.03 1.03 0 0 1 .068-1.289 2.078 2.078 0 0 0 .371-2.168 2.066 2.066 0 0 0-1.797-1.27 1.039 1.039 0 0 1-.957-.868 13.406 13.406 0 0 1-.205-2.246c0-.703.069-1.436.196-2.246a1.04 1.04 0 0 1 .957-.87 2.067 2.067 0 0 0 1.796-1.27 2.058 2.058 0 0 0-.37-2.167 1.03 1.03 0 0 1-.07-1.29 13.6 13.6 0 0 1 3.175-3.173 1.03 1.03 0 0 1 1.289.068 2.058 2.058 0 0 0 2.168.372 2.066 2.066 0 0 0 1.27-1.797c.029-.479.39-.88.868-.957 1.602-.274 2.881-.274 4.493 0 .478.078.84.478.869.957.049.8.537 1.494 1.27 1.797a2.078 2.078 0 0 0 2.167-.372 1.03 1.03 0 0 1 1.29-.068 13.601 13.601 0 0 1 3.173 3.174c.283.39.254.928-.068 1.289a2.058 2.058 0 0 0-.371 2.168c.302.732.996 1.22 1.797 1.27.478.029.879.39.957.869.136.81.195 1.543.195 2.246 0 .703-.068 1.435-.195 2.246a1.04 1.04 0 0 1-.957.869 2.065 2.065 0 0 0-1.797 1.27 2.058 2.058 0 0 0 .37 2.167c.323.362.352.899.07 1.29a13.416 13.416 0 0 1-3.175 3.173 1.03 1.03 0 0 1-1.289-.068 2.058 2.058 0 0 0-2.168-.371 2.066 2.066 0 0 0-1.27 1.797c-.029.478-.39.879-.868.957a13.07 13.07 0 0 1-2.237.195zm-1.173-2.148c.82.088 1.534.097 2.354 0a4.119 4.119 0 0 1 2.412-2.725 4.13 4.13 0 0 1 3.633.225 11.247 11.247 0 0 0 1.67-1.67 4.13 4.13 0 0 1-.225-3.633 4.142 4.142 0 0 1 2.725-2.412 10.172 10.172 0 0 0 0-2.363A4.118 4.118 0 0 1 33.7 9.94a4.13 4.13 0 0 1 .225-3.632 11.253 11.253 0 0 0-1.67-1.67 4.13 4.13 0 0 1-3.633.224 4.143 4.143 0 0 1-2.412-2.724 9.986 9.986 0 0 0-2.354 0 4.118 4.118 0 0 1-2.412 2.724 4.13 4.13 0 0 1-3.633-.224 11.248 11.248 0 0 0-1.67 1.67 4.13 4.13 0 0 1 .225 3.632 4.143 4.143 0 0 1-2.724 2.412c-.05.41-.069.801-.069 1.182 0 .381.02.772.069 1.182a4.118 4.118 0 0 1 2.724 2.412 4.13 4.13 0 0 1-.224 3.633 11.243 11.243 0 0 0 1.67 1.67 4.13 4.13 0 0 1 3.632-.225 4.143 4.143 0 0 1 2.412 2.725zm10.801-7.403h.01-.01z" fill="url(#k)"/><path d="M25.03 20.83a7.302 7.302 0 0 1-7.296-7.295 1.046 1.046 0 0 1 2.09 0 5.21 5.21 0 0 0 5.205 5.205 5.21 5.21 0 0 0 5.205-5.205A5.21 5.21 0 0 0 25.03 8.33a1.046 1.046 0 0 1 0-2.09 7.302 7.302 0 0 1 7.295 7.295 7.296 7.296 0 0 1-7.295 7.295z" fill="url(#l)"/><path d="M25.03 16.67a3.134 3.134 0 0 1-3.126-3.125 3.134 3.134 0 0 1 3.125-3.125 3.134 3.134 0 0 1 3.125 3.125 3.128 3.128 0 0 1-3.125 3.125zm0-4.17a1.046 1.046 0 0 0 0 2.09 1.046 1.046 0 0 0 0-2.09z" fill="url(#m)"/></g><defs><linearGradient id="b" x1="13.055" y1="-.401" x2="13.055" y2="49.991" gradientUnits="userSpaceOnUse"><stop stop-color="#0AF"/><stop offset="1" stop-color="#0080FF"/></linearGradient><linearGradient id="c" x1="5.763" y1="-.401" x2="5.763" y2="49.991" gradientUnits="userSpaceOnUse"><stop stop-color="#0AF"/><stop offset="1" stop-color="#0080FF"/></linearGradient><linearGradient id="d" x1="22.95" y1="-.401" x2="22.95" y2="49.991" gradientUnits="userSpaceOnUse"><stop stop-color="#0AF"/><stop offset="1" stop-color="#0080FF"/></linearGradient><linearGradient id="e" x1="6.284" y1="-.402" x2="6.284" y2="49.991" gradientUnits="userSpaceOnUse"><stop stop-color="#0AF"/><stop offset="1" stop-color="#0080FF"/></linearGradient><linearGradient id="f" x1="18.784" y1="-.401" x2="18.784" y2="49.991" gradientUnits="userSpaceOnUse"><stop stop-color="#0AF"/><stop offset="1" stop-color="#0080FF"/></linearGradient><linearGradient id="g" x1="9.409" y1="-.401" x2="9.409" y2="49.991" gradientUnits="userSpaceOnUse"><stop stop-color="#0AF"/><stop offset="1" stop-color="#0080FF"/></linearGradient><linearGradient id="h" x1="37.012" y1="-.401" x2="37.012" y2="49.991" gradientUnits="userSpaceOnUse"><stop stop-color="#0AF"/><stop offset="1" stop-color="#0080FF"/></linearGradient><linearGradient id="i" x1="44.304" y1="-.401" x2="44.304" y2="49.991" gradientUnits="userSpaceOnUse"><stop stop-color="#0AF"/><stop offset="1" stop-color="#0080FF"/></linearGradient><linearGradient id="j" x1="35.45" y1="-.402" x2="35.45" y2="49.991" gradientUnits="userSpaceOnUse"><stop stop-color="#0AF"/><stop offset="1" stop-color="#0080FF"/></linearGradient><linearGradient id="k" x1="25.033" y1="-.401" x2="25.033" y2="49.991" gradientUnits="userSpaceOnUse"><stop stop-color="#0AF"/><stop offset="1" stop-color="#0080FF"/></linearGradient><linearGradient id="l" x1="25.033" y1="-.401" x2="25.033" y2="49.991" gradientUnits="userSpaceOnUse"><stop stop-color="#0AF"/><stop offset="1" stop-color="#0080FF"/></linearGradient><linearGradient id="m" x1="25.033" y1="-.401" x2="25.033" y2="49.991" gradientUnits="userSpaceOnUse"><stop stop-color="#0AF"/><stop offset="1" stop-color="#0080FF"/></linearGradient><clipPath id="a"><path fill="#fff" d="M0 0h50v50H0z"/></clipPath></defs></svg>