<svg width="1920" height="497" viewBox="0 0 1920 497" fill="none" xmlns="http://www.w3.org/2000/svg"><path opacity=".05" d="M2068 674.68l-113.45-60.322-.3-.149h-.15l-113.75 1.635 181.41-12.926-111.23-48.882 137.25-10.4-97.4-41.749-.44-.149-.15.149-18.14 2.377.15-.297-24.24-14.412 61.41 2.377-49.52-19.76 27.96-19.315-6.54.148.14-.742-53.23-15.749 53.83 2.08-11-6.538h22.89v-1.485h-25.42l-11.6-6.983c.74-.595 1.19-1.486 1.19-2.526 0-1.783-1.49-3.269-3.27-3.269-1.79 0-3.27 1.486-3.27 3.269 0 .446.15.891.29 1.337l-16.95 8.172h-21.41v-26.744h84.01l.15-1.486-26.91-5.051v-52.447h43.71v-1.486h-43.71v-29.864h-.74l-18.29-1.485v-11.886h52.93v-1.486l-35.83-2.377V215.88h27.65v-1.486h-10.26v-71.613h-53.68l-12.64 1.04v-28.824h47.14v27.784h1.49v-29.27h-48.63v-.148l-89.06 9.509v27.635l-24.09 1.782v37.59h-6.4l-68.54 2.229v60.618h1.48v-59.281l67.06-2.08v42.789h-13.38v3.566l-48.77-1.486v1.486l48.92 1.634v8.618l-48.62-2.229v1.486l48.77 2.229v4.903h1.49v-18.572l11.89.148h1.49l80.44.743v25.258l-39.1-1.189v.297h-.75v15.155h-48.62v-21.395h-56.8l-51-2.525v44.869l-8.93-.891v-68.493h.15v-1.486h-.15v-56.756h-28.25v-26.595h-21.86v-16.64h-21.11V111.58h-5.95V53.636h-27.8V40.412h-65.88l-67.95 21.098v13.818h.89l-9.81 2.822v119.01h-1.93l-22.76 1.04v11.738l-7.13.148v13.521h-8.48v32.537l-8.03-.445h-11.89v-116.93h-18.89V103.26h-34.64l-21.71 7.131v35.213l-12.34 2.823v29.417h-16.66v-39.075h-17.99V103.26h-34.65l-21.71 9.36v34.469l-13.23 3.863v127.181h-16.21v-62.699h-52.34l-26.47.297v45.761l-1.93-.594h-37.47v6.091l-.15.149h.15v67.156l-11.301 16.64-3.122-6.091a2.6 2.6 0 0 0 1.041-2.08 2.665 2.665 0 0 0-2.677-2.675c-1.189 0-2.23.743-2.528 1.783l-12.787 4.755-16.654-4.16c0-1.338-1.041-2.378-2.231-2.526v-94.345h-30.036v-18.424h-.446l-18.289-26-13.532-1.486h-5.948v-33.429l-24.534-7.281v-27.337l-19.331-8.321h-7.583l-5.799-2.525-.297.742v-.742h-36.579v34.766h-16.654v99.545h-20.371l-14.126 1.932v-62.996l-16.357-1.189v-12.034l-4.163-.594v-11.738l-7.286-1.04-28.847-76.516-.149-.297-10.854-4.457v-.298h-12.342l-23.643 75.477.446.148h-6.245v14.709h-5.501v16.343h-13.829v-71.91l-9.219-2.08v-13.52l-28.252-7.875V31.201c0-.446-.298-.743-.744-.743s-.743.297-.743.743v65.521l-9.07-2.525V27.338c0-.446-.298-.743-.744-.743s-.743.297-.743.743v66.71h-9.071V23.921c0-.446-.297-.743-.743-.743s-.744.297-.744.743v70.127h-8.029v-72.95c0-.446-.298-.743-.744-.743s-.743.297-.743.743v72.95h-10.855V7.726l52.192 21.246v70.722h1.487V27.932l-53.679-21.84v-.298h-95.759v135.501l-32.416-4.16v-.149h-34.646l-34.051-4.308v-66.86l-13.382-2.822.297-18.72-22.304-6.538v.446h-1.785V8.024L269.685.445V0h-34.349v32.984h1.487V1.486h31.375v35.51l-15.316-3.567v-.148h-38.958v20.503h-11.152v71.911h-11.895v-17.829l-9.666-1.338V91.225l-38.66-5.794v-.149h-42.378v16.938H89.615v111.877h-7.732v-16.195l-16.356-.446H18.985v16.492H4.265v1.486h57.842v61.064h1.487v-61.064l26.021.148v61.659h-91v1.486h111.818l-39.107 2.823H-9.267v1.486h42.973v47.544h-45.798v1.485h45.798v40.116h-45.798v1.485h45.798v40.116h-45.798v1.485h45.798v52.15H-6.44v1.486h41.188l-18.14 11.292 72.116-8.618-101.707 35.807.446 1.486 50.854-8.915 15.613 15.303-77.916 38.927-5.502-.743 3.866 1.635-1.933.891 3.569-.297L97.2 606.186l-140.22-38.629-.445-.892-48.178 65.373 85.351 20.058h.298l.446-.148 16.505 45.761-1.487 1.485 1.933-.297.595 1.486 1.338-.446-.446-1.337 22.75-3.566 62.155 65.968L-5.55 697.411l-.298-.148L-108 730.544l206.834 34.321-.892.297h.446l-111.223 42.344 1.487 1.337-2.23.446 3.568.594 105.87 93.454 314.936-13.967 6.691-.297-1.635-.297 214.864-26.892h.149l.297-.148 529.498-49.476-265.862 114.403.595 1.337 270.027-116.186 415.6 97.614.3-1.486-409.65-96.276 533.81-3.566-86.39 114.106 1.19.891 86.99-114.849 270.32 72.208-154.79-159.273c.15-.297.3-.742.45-1.04l56.95 23.475.3.595.59-.297 170.26 70.276.59-1.338-168.77-69.681 182.75-68.493h2.08zM65.676 213.948H20.472v-15.155h45.055v15.155h.149zm14.72 0H67.014v-15.155l13.382.446v14.709zM1949.79 615.844l-254.27 92.859 117.77-91.076.59-.446v.594l135.91-1.931zm-466.46.743a5.646 5.646 0 0 0-5.65 5.645c0 .892.15 1.635.6 2.378l-11.9 5.2-93.53-2.229 48.33-62.55 176.5 65.225-1.64.297-92.78-1.337v.148l-14.43-6.24v-.743c.3-3.269-2.38-5.794-5.5-5.794zm-206.83 58.39l123.41-16.046-45.5 19.909v-.595l-77.91-3.268zm-212.04 92.116l-115.24-49.624 260.36 23.475-145.27 25.555.15.594zm-119.552-51.555c-.149-3.12-2.677-5.498-5.65-5.498-2.677 0-4.907 1.932-5.502 4.309l-86.987 14.115 58.884-32.835.594.148h.149l282.814 41.75-244.302-21.989zM499.27 782.396l-45.798-33.875L735.1 746.59l-179.921 29.269-55.909 6.537zm22.453-1.04l-19.182 3.121-1.19-.743 20.372-2.378zm-228.544-75.327a5.218 5.218 0 0 0 2.825-2.526l200.44 79.488-181.407 34.766-16.059-11.737h.297l-6.096-99.991zm-187.653-98.208l69.738-24.664.148.149.149-.297 12.342-4.309c.892 1.783 2.825 2.972 5.055 2.972 1.785 0 3.42-.892 4.461-2.229l97.99 72.356L108.5 609.158v-.149l-2.974-1.188zm18.587-61.659l49.218 35.658-190.032-26.892 136.948-9.657-2.082.445 5.948.446zm-49.665-35.658l137.246 14.412-87.581 19.463-50.26-32.241c.298-.445.596-1.04.596-1.634zm38.512-10.252l41.635-14.411 64.831-20.652 72.117 35.658-70.779-10.252v-.594c0-2.675-2.082-4.755-4.758-4.755-2.677 0-4.758 2.08-4.758 4.755 0 1.783 1.041 3.268 2.528 4.16l1.784 29.566-100.072-21.84h98.436v-1.486H112.96v-.149zm-15.612-29.566h33.01l22.155 14.263-30.036 10.4 1.041-1.04-26.17-23.623zm51.597-339.94v197.605h1.487V130.895l12.341.891v195.376l-28.4 3.12h-.744v14.858l-1.338.149v-68.196h-2.082V130.746h18.736zm-18.736-1.486v-25.555h18.736v25.555h-18.736zm45.203 3.418v194.039h-8.475l-2.677.297V131.786l11.152.892zM164.26 130.3v-24.515l11.152 1.635v23.772l-11.152-.892zm2.677 197.902h35.538l-15.167 2.08h-39.553l19.182-2.08zm9.962-1.485V132.678l5.205.445v193.594h-5.205zm100.667-158.381v23.92h-93.827v-23.92h93.827zm-93.975-1.486v-23.921h93.826v23.921h-93.826zm93.975 26.892v23.921h-93.827v-23.921h93.827zm0 25.406v24.069h-24.238v-24.069h24.238zm331.143-77.11v8.617l-33.159-5.051v-9.361l33.159 5.795zm-33.159-7.28v-9.361l33.159 6.538v8.468l-33.159-5.645zm33.159 17.234v8.618l-33.159-4.309v-9.36l33.159 5.051zm0 10.103v8.618l-33.159-3.566v-9.36l33.159 4.308zm0 10.104v8.617l-33.159-2.823v-9.36l33.159 3.566zm0 10.103v8.617l-33.159-2.08v-9.36l33.159 2.823zm0 10.103v8.617l-33.159-1.337v-9.36l33.159 2.08zm0 10.103v8.617l-33.159-.594v-9.36l33.159 1.337zm0 10.252v8.617l-33.159.297v-9.509l33.159.595zm0 10.103v8.766l-33.159 1.04v-9.509l33.159-.297zm0 10.251v8.766l-33.159 1.783v-9.509l33.159-1.04zM575.55 245l33.159-1.783v8.766l-33.159 2.526V245zm.149 10.995l33.159-2.526v8.766l-33.159 3.269v-9.509zm0 10.994l33.01-3.268v8.766l-33.159 4.011.149-9.509zm0 11.144l33.01-4.012v8.766l-33.159 4.903.149-9.657zm0 10.994l33.01-4.754v8.766l-33.159 5.646.149-9.658zm0 10.995l33.01-5.646v8.766l-33.159 6.388.149-9.508zm0 11.143l33.01-6.389v8.766l-19.033 4.16.149.446h-11.45l-2.676.594v-7.577zm33.01 4.011v2.972h-13.977l13.977-2.972zm-30.334 4.458h42.081l-26.17 6.091h-44.757l28.846-6.091zm47.583 13.371v11.886l-5.353 1.635V334.74l5.353-1.635zm-5.353 0v-12.034l5.353-1.189v11.589l-5.353 1.634zm6.542 13.075h35.687l-22.899 8.172h-40.891l28.103-8.172zm19.182-71.019v40.561l-16.505 3.714v-42.195l16.505-2.08zm-16.505.446v-57.796h16.505v55.716l-16.505 2.08zm18.735-.743h5.651v40.858h-6.394v-40.709l.743-.149zm-.743-1.337V217.96h6.394v55.418h-5.799l-.595.149zm6.542 43.681v27.486h-6.394v-27.635h6.394v.149zm29.591 90.482l12.49-6.537 4.312 13.52-7.583-2.674a3.355 3.355 0 0 0-3.272-2.675c-1.635 0-2.825 1.04-3.271 2.526l-7.583 3.863-11.301-.891v-7.132h16.208zm-.149-241.137v-.297h8.922v24.366l-8.773-.743h-.149v-23.326zm22.75 250.2v-5.497h15.167v17.829H706.55v-10.698l.446-1.337-.446-.297zm89.366-161.501v-68.345h20.074v68.345h-9.814l-.744.149v-.149h-9.516zm0-69.83v-28.378h20.074v28.378h-20.074zm10.408 71.316h10.26l-17.546 2.674H788.63l17.694-2.674zm86.392 42.195l-9.219 4.754h-75.388l13.234-4.754h71.373zm-49.367-1.486V157.341l4.313 1.337h-.446v138.918h-3.867v-.149zm11.45-.148v.148h-6.245V158.678h5.65V297.15h.595v.149zm.892-69.533V187.65l10.111 1.486v24.515l-10.111 14.115zm.595 2.228h2.676v67.453h-2.676v-67.453zm4.312 67.453v-67.453h3.123v67.453h-3.123zm4.61 0v-67.453h3.122v67.453h-3.122zm4.609 0v-67.453h3.123v67.453h-3.123zm4.61 0v-67.453h3.122v67.453h-3.122zm4.461 0v-67.453h3.122v67.453h-3.122zm4.609 0v-67.453h3.123v67.453h-3.123zm4.61 0v-67.453h3.122v67.453h-3.122zm38.809 138.621h.149l.148-.149 78.657-19.314-25.721 49.475-45.947-8.766c.149-.446.149-.891.149-1.337 0-2.674-2.082-4.754-4.759-4.754-2.676 0-4.758 2.08-4.758 4.754 0 .891.297 1.783.744 2.377l-4.312 4.16-105.425-10.994 109.885-15.601v.149h1.19zm14.572-82.311l-9.963 12.926V280.51l10.112-5.2v77.407l-.892-.445.743 1.485zm.743 1.486l8.774 17.086-6.841 15.006-12.192-18.72 10.259-13.372zm35.539 15.749l1.635 1.783-.743-2.377 17.694-4.755 9.664 47.396-28.697-31.944c.298-.446.447-.891.447-1.486a2.665 2.665 0 0 0-2.677-2.674 2.664 2.664 0 0 0-2.676 2.674c0 .297 0 .743.148 1.04l-4.907 6.983v-.297l-20.52.743 29.591-16.937 1.041-.149zm166.24-68.642l69.59 25.704.3-.743v.743h39.4v-8.618l45.2 13.075h-94.42l-64.68-24.961h-85.5l-26.17-15.6h17.55v2.674l13.08 7.578.45-.595v.743h85.2zm-84.46-1.485v-13.372h83.87v13.372h-83.87zm85.35.148V287.79l68.25 20.949v17.383l-68.25-25.109zm159.25-121.683v18.126h-20.37V179.33h20.37zm-20.37-1.486V160.61h20.37v17.234h-20.37zm20.37 21.098v18.126h-20.37v-18.126h20.37zm0 19.612v14.263h-20.37v-14.263h20.37zm0 15.749v20.206h-20.37v-20.206h20.37zm0 21.692v20.058h-20.37v-20.058h20.37zm6.25 21.543l22.9 3.269v.149h43.27v-.149l27.06 3.417h-84.61l-42.52-6.686h33.9zm16.36-99.694h-21.12V160.61h21.12v17.234zm6.54 81.271v20.206l-11.6-1.634v-19.463l11.6.891zm-6.54-79.785v18.126h-21.12V179.33h21.12zm0 19.612v18.126h-21.12v-18.126h21.12zm0 19.612v14.263h-21.12v-14.263h21.12zm0 15.749v20.206h-21.12v-20.206h21.12zm-6.55 23.623v19.464l-9.22-1.337v-18.869l9.22.742zm-10.7-1.931v20.058h-3.87v-20.058h3.87zm25.28 23.475v-20.206h21.85v20.206h-21.85zm23.34 0v-20.206h17.1v20.206h-17.1zm91.15-207.857v15.452l-20.22 4.903V77.11l20.22-5.497zm-20.22 3.863V67.9l20.22-5.943v8.023l-20.22 5.497zm20.22 13.075v15.452l-20.22 4.308V93.454l20.22-4.903zm0 16.937v15.452l-20.22 3.715v-14.858l20.22-4.309zm0 16.938v145.752l-5.2-.446h-15.02V126.14l20.22-3.714zm-5.2 146.941l27.65 2.228h-32.71l-23.94-2.228h29zm28.4-186.314V99.1l-21.71 4.605V88.254l21.71-5.2zm-21.71 3.566V71.168l21.71-5.795v16.046l-21.71 5.2zm21.71 13.966v16.046l-21.71 4.012v-15.452l21.71-4.606zm0 17.532v33.875h1.04l-5.21.743v22.584l-16.2 1.188v91.968l-1.19-.148V122.129l21.56-4.012zm62.45-35.36v16.045h-19.03V82.756h19.03zm-18.89-1.486V65.225h19.04V81.27h-19.04zm18.89 19.017v11.292h-13.09l-5.8 1.04v-12.183h18.89v-.149zm-13.68 12.926v13.966l-20.37 2.972v-13.521l14.27-2.377h.89v-.148l5.21-.892zm-6.69-49.475h-19.63V55.12h19.63v8.618zm0 1.486V81.27h-19.63V65.225h19.63zm0 17.531v16.046h-19.63V82.756h19.63zm0 17.532v12.48l-15.17 2.526v1.04h-4.46v-16.046h19.63zm-15.17 17.532v12.48l-4.46.743V117.82h4.46zm26.77 10.103v16.343h.14l-36.87 5.349v-16.343l36.73-5.349zm-32.87-64.184h-19.33V55.12h19.33v8.618zm0 1.486V81.27h-19.33V65.225h19.33zm0 17.531v16.046h-19.33V82.756h19.33zm0 17.532v16.046h-19.33v-16.046h19.33zm0 17.532v13.372l-5.35.743v17.68l-13.98 2.08V117.82h19.33zm41.34 26.595v25.703l-64.83 4.903v-21.246l64.83-9.36zm58.74 83.053v64.036l-24.84-2.674h-60.22v4.754l-13.53-1.783V227.32l52.49.148v61.362h1.49v-61.362h44.61zm-44.61-1.485v-55.27h44.61v55.27h-44.61zm261.7 116.483l23.94-.149v-2.08l30.63 3.566h-69.74l-48.92-6.983h35.54v1.931l28.55 3.715zm96.21-60.173l-47.88-3.269v-16.64h-.75l-14.87-.446V236.68h69.15v58.539l-5.06-.297v-12.629h-.59zm-21.71 0h-26.02v-1.783l26.02 1.783zm20.96 1.485v10.995l-14.72-1.04h-46.39v-9.955h61.11zm4.31 29.715h-32.41l-56.65-5.497h17.39l71.67 5.497zm-70.63-6.983v-11.291l70.04 4.903v11.886l-70.04-5.498zm57.4 69.831V356.58h17.55v19.612l-17.55.149zm17.55 1.485v19.167H1897v-19.167h17.55zm-39.7-22.732l-25.43-3.565h28.99l26.03 3.565h-29.59zm.74 21.247V356.58h19.92v19.761h-19.92zm19.92 1.485v19.167h-19.92v-19.167h19.92zm-38.81-4.754v-19.018l17.4 2.526v19.612l-17.4-3.12zm17.4 4.606v19.166l-17.4-3.714v-18.572l17.4 3.12zm-51.6 6.091l-26.46-5.348v-32.984h81.18v4.754h-38.95v38.927h-14.87v-5.349h-.9zm26.47 33.133l-25.87-5.349v-16.195l48.33 8.915v26.595l-21.86-4.755v-9.063h-.6v-.148zm-405.34 154.815l-22.45-8.32-.45-.149-.15.149-128.32 23.475-23.2-16.492.45-.297h1.78l259.18-21.098-86.84 22.732zM291.097 694.886a5.645 5.645 0 0 0-5.651 5.646c0 .594.149 1.337.298 1.931l-114.346 38.035 127.282-86.173h.446l151.818 94.048 43.121 31.943-197.318-78.299c.149-.445.149-.891.149-1.485 0-2.972-2.677-5.646-5.799-5.646zM192.958 570.38a5.646 5.646 0 0 0-5.65 5.646c0 .445 0 .891.149 1.337l-12.045 4.309-48.474-35.213 81.485 6.538-.149.742 158.36 27.19-168.025-5.646c-.446-2.823-2.825-4.903-5.651-4.903zm-60.667-137.135v-.891h54.868l-15.613 8.468-39.255-7.577zm35.984 8.469h-.149l-.446-.149.595.149zm-.595-.149l-.149.297-35.389 9.806v-16.937l35.538 6.834zm-33.307-92.859h53.084l26.467-3.863v-1.337h28.847l-46.541 6.388h-63.939v-2.971l1.338-.149v2.08h.744v-.148zm.743-1.486v-15.452h51.448v15.452h-51.448zm91.15-103.408v19.314l-18.29 1.041v-19.612l18.29-.743zm-18.29-.743v-23.326l18.29.297v22.286l-18.29.743zm18.29 21.543v19.315l-18.29 1.337v-19.612l18.29-1.04zm0 20.949v19.167l-18.29 1.931v-19.612l18.29-1.486zm0 20.652v21.544l-12.342 1.634v-2.674l-.743.148h-5.205v-18.572l18.29-2.08zm0 22.881v12.777h-12.342v-11.143l12.342-1.634zm-13.829-.892v15.304l-24.386 3.565V331.62l24.386-3.418zm22.007-63.59v19.315h-6.691v-19.315h6.691zm-6.691-1.486v-19.314h24.088v14.412l-16.653.594h-.744v4.308h-6.691zm6.691 22.287v2.377h17.397v16.789h-24.088v-19.166h6.691zm48.029 30.012v1.783h33.902v1.931h-67.507l33.605-3.714zm-29.145 1.783v-9.063h24.089v6.388l-24.089 2.675zm25.725-2.823V287.79h3.42v26.149l-3.42.446zm37.322-26.595v11.886H283.96V287.79h32.415zm-22.156-1.486v-26h22.156v26h-22.156zm22.156 14.858v14.56H283.96v-14.56h32.415zm169.512-64.482v19.463h-73.455V236.68h73.455zm-62.749-1.931v-1.04l15.464-.446v.891l-15.464.595zm27.657-26.892v-16.344l17.1.446v16.046l-17.1-.148zm5.502 25.109l14.721-.446v.594l-14.721.446v-.594zm-1.487-23.624v22.138l-14.721.446v-22.584h14.721zm0 23.624v.743l-14.721.445v-.891l14.721-.297zm119.253-9.806v9.509h-30.185v-.298h-38.363v-9.211h68.548zm-68.399-1.486v-9.509h68.399v9.509h-68.399zm62.154 88.105v-9.657h6.394v9.657h-6.394zm6.245 1.486v7.874l-6.394 1.337v-9.211h6.394zm-6.245-12.629v-9.509h6.394v9.658h-6.394v-.149zm0-10.995v-9.508h6.394v9.508h-6.394zm0-10.994v-9.509h6.394v9.509h-6.394zm0-11.143v-9.509h6.394v9.509h-6.394zm0-10.995v-3.269l-23.791 1.635V245h30.185v9.509h-6.394zm-16.951-.594l15.464-1.04v67.75h.892l-16.208 3.417-.148-70.127zm15.761 88.551V354.5h-10.854v-12.034h10.854zm-10.854-1.486v-13.669h10.854v13.669h-10.854zm32.713 15.154l-25.427 7.875h-45.798l26.17-7.577-.149-.298h45.204zm-9.517-13.668V354.5h-10.855v-12.034h10.855zm-10.855-1.486v-13.669h10.855v13.669h-10.855zm35.538-1.189v11.738l-8.624 2.525v-11.737l8.624-2.526zm-8.624 1.04v-13.669l8.624-2.08v13.075l-8.624 2.674zm13.234 30.607v15.452H594.88v-15.452h13.383zm-13.531-1.486v-13.818h.297v-.148h13.234v13.966h-13.531zm42.378 18.423l-22.899 9.806h-46.69l26.765-9.806h42.824zm-14.424-16.937v15.452H609.75v-15.452h12.936zm-12.936-1.486v-13.966h12.936v13.966H609.75zm23.494 49.178v-12.331l6.988-3.418v12.035l-6.988 3.714zm6.988-1.931v11.44l-6.988 3.566v-11.44l6.988-3.566zm-6.988-12.035v-13.52l6.988-2.972v13.075l-6.988 3.417zm6.245-35.212h-15.316v-13.966h15.316v13.966zm0 1.486v15.452h-15.316v-15.452h15.316zm-15.167 52.15v-12.629l7.286-3.566v12.332l-7.286 3.863zm7.435-2.08v11.44l-7.286 3.714v-11.44l7.286-3.714zm-7.435-12.184v-13.966l7.286-3.12v13.521l-7.286 3.565zm62.452 4.16c.446 1.338 1.635 2.378 3.122 2.378.744 0 1.339-.149 1.785-.595l12.936 14.412-16.654 12.035-29.441-13.669 20.817-10.698h.744v-.445l6.691-3.418zm18.289 4.309v10.103l-12.341-13.669c.148-.148.148-.445.297-.743l12.044 4.309zm15.465 21.692c.594.446 1.189.743 1.933.743 1.635 0 2.973-1.189 3.271-2.674l77.47 13.966-93.232 4.457 10.558-16.492zm19.33-1.04l26.17-2.377 35.984 13.669-62.154-11.292zm67.061 15.601l-67.805 79.933-34.794-34.767 102.599-45.166zm113.008 10.103l-48.772 46.504-56.652-55.122c.594-.594 1.041-1.337 1.189-2.08l104.235 10.698zm113.153-150.061v18.72l-6.39-6.24v-17.383l6.39 4.903zm-6.39-6.538v-14.56l6.39 3.863v15.6l-6.39-4.903zm6.39 27.487v18.869l-6.39-7.132v-17.977l6.39 6.24zm0 21.097v16.789l-6.39-8.32v-15.452l6.39 6.983zm9.97 32.241v.297h.15l9.21 12.035-44.01 13.669 17.55-48.138 17.1 22.137zm0-66.71v21.098l-8.63-8.32v-19.167l8.63 6.389zm-8.48-8.32v-15.749l8.63 5.051v17.087l-8.63-6.389zm8.48 31.498v20.355l-8.63-9.509v-19.166l8.63 8.32zm0 22.435v18.72l-8.63-11.143v-17.086l8.63 9.509zm73.6-37.887v13.669h-20.22v-13.669h20.22zm-20.22-1.486v-18.869h20.22v19.018h-20.22v-.149zm32.41 16.789l21.42 12.629h-41.19l-17.85-12.629h37.62zm9.52-15.303v19.166l-9.22-5.349h-11.15V329.54h20.37v-.149zm-20.22-1.486v-18.869h20.22v19.018h-20.22v-.149zm31.97 6.835v20.8l-10.11-5.943v-19.76l10.11 4.903zm-10.26-6.538v-18.869l10.11 4.012v19.76l-10.11-4.903zm23.94 13.075v26.744l-10.11-5.944v-4.457l-2.09-1.188v-20.949l12.2 5.794zm-12.2-7.577v-19.909l12.35 4.754v20.949l-12.35-5.794zm12.2 36.103v8.321l-10.11-6.686v-7.726l10.11 6.091zm-11.6-10.994v26h-42.68v-26h42.68zm-44.16-.446v25.406l-18.29-16.937v-21.395l18.29 12.926zm-13.09-30.458h-20.22v-18.869h20.22v18.869zm0 1.486v13.669h-6.69v10.252h-13.53v-23.921h20.22zm-6.69 25.406v6.983h-13.53v-6.983h13.53zm0 8.469v4.16l20.22 18.721h45.21v-13.075l32.26 21.098h-82.82l-18.29-16.789h-.15l-15.46-14.115h19.03zm93.68-13.52v28.972l-16.51-9.806v-27.041l16.51 7.875zm-16.66-9.509v-21.098l16.81 6.538h-.3v22.434l-16.51-7.874zm16.66 40.264v9.36l-16.51-10.846v-8.469l16.51 9.955zm78.81-83.648v-22.732l14.42 1.932h-8.03l-.74-.149v21.989l-5.65-1.04zm5.5 2.08v22.732l-5.65-1.634v-21.692l5.5 1.04.15-.446zm16.06-99.991v18.126h-17.4v-18.126h17.4zm-17.4-1.486V179.33h17.4v18.126h-17.4zm17.4 21.098v14.263l-21.71-1.04v-13.223h21.71zm0 15.749v20.206l-21.71-2.228v-19.018l21.71 1.04zm0 21.692v19.612l-21.71-2.972v-18.869l21.71 2.229zm155.98 36.995l52.93.149v-.297l28.55 3.714h-80.59l-22.6-3.269v-3.12l21.71 2.823zm-12.05-2.971v-18.127l11.9 1.04v18.572l-11.9-1.485zm13.53 1.634v-18.572h16.81v18.572h-16.81zm53.53-64.333v64.333l-2.23-.297v-19.909h-.74l-36.88-2.972v-41.452l39.85.297zm-39.85-1.634v-47.693l39.85-3.12v50.961l-39.85-.148zm36.14 47.246v18.572h-14.57v-18.572h14.57zm-31.53 18.721v-18.572h15.47v18.572h-15.47zm162.53 122.872c.59.445 1.19.742 2.08.742.45 0 .89-.148 1.19-.297l12.79 14.561-27.96-8.172 11.9-6.834zm5.5.742l14.57 8.172v7.28l-1.34-.446-13.23-15.006zm-.45-1.931c.15-.446.3-.892.3-1.337 0-1.783-1.49-3.269-3.27-3.269-1.79 0-3.27 1.486-3.27 3.269 0 .445.15 1.04.3 1.337l-12.94 7.577-17.4-5.051v-.149l-.3.149-10.11-2.972v-34.915l61.71 13.818v29.863l-15.02-8.32zm105.58-.892l25.42 5.795v46.058l-61.56-17.829v-42.344l35.24 8.172v.148h.9zm89.36 39.967c.45 1.189 1.64 2.08 3.12 2.08 1.19 0 2.23-.594 2.83-1.634l20.67 11.589h-60.07l33.45-12.035zm6.25-.891v-.297c0-1.783-1.49-3.269-3.27-3.269a3.256 3.256 0 0 0-3.28 2.971l-37.17 13.521-.3.148h-24.83v-46.207h90.11v45.019l-21.26-11.886zm-786.3 141.443c-2.68 0-4.76 2.08-4.76 4.755 0 .742.15 1.485.45 2.08l-11.6 8.617-39.406 1.634 17.846-10.549h.59v-.445l71.23-42.196c.89.743 1.78 1.04 2.97 1.04 1.64 0 2.97-.742 3.87-1.931l107.95 48.881-135.02-2.08-9.81-3.417c.15-.594.3-1.04.3-1.634.15-2.526-1.93-4.755-4.61-4.755zM386.41 706.772l-84.012-52.15 224.083 20.503-140.368 30.458.297 1.189zm-3.866-139.809l.446.148v-.148l3.718.297-.298-.149 49.07 2.377-58.14 11.886-161.334-27.783 164.159 13.074h-.149l2.528.298zM194.743 379.906v28.824h-51.746v-28.824h51.746zm-51.746-1.485V351.38h51.746v27.041h-51.746zm46.244 31.795h6.84v-.149l45.352-9.657v16.343l-10.558 2.674-12.193-3.268v-.297c0-1.783-1.486-3.269-3.271-3.269-1.784 0-3.271 1.486-3.271 3.269 0 .891.297 1.634.892 2.228l-19.33 10.549-4.461 1.04v-19.463zm37.62-35.658v27.338h.595l-31.226 6.686v-28.824l30.631-5.2zm-30.631 3.863V351.38h.148v-.743l.149.743 30.334-4.16v25.852l-30.631 5.349zm39.701-36.55v-21.246h45.055v40.858h-27.063v-19.612l-1.487.149v-.149h-16.505zm38.809 62.699l-8.178-2.526c0-1.783-1.487-3.268-3.271-3.268-1.784 0-3.271 1.485-3.271 3.268 0 .892.297 1.783.892 2.377l-3.271 3.418v-.298l-14.573-2.822-.148.742v-5.348l10.557-2.229v.446h41.04l-19.925 5.794.148.446zm-2.825 16.64c-.446-1.337-1.635-2.377-3.122-2.377-1.785 0-3.272 1.486-3.272 3.269v.594l-4.46 4.903v-.297l-16.06-4.16 17.1-17.978c.298.149.744.149 1.041.149.744 0 1.338-.149 1.785-.594l28.846 23.772-21.858-7.281zm-28.995-4.011v-10.995l13.68 2.526-12.045 12.629-1.635-4.16zm.595 5.497l-9.517-2.526 7.881-1.931 1.636 4.457zm10.557-25.852v-33.726h27.062v33.726h-27.062zm-1.487-53.338v24.96l-24.237 4.16v-25.852l24.237-3.268zm0 26.595v26.446l-24.237 5.2v-27.486l24.237-4.16zm-38.215 48.881c.298.148.595.148 1.041.148 1.041 0 1.933-.445 2.528-1.188l4.312 3.566-22.75 5.645 14.869-8.171zm5.948-.892l7.584 1.932-4.015 1.04-3.569-2.972zm10.557 2.823l29.293 7.578-11.747 12.926-23.047-19.167 5.501-1.337zm35.39 3.269c.595.743 1.487 1.337 2.528 1.337s1.933-.446 2.527-1.189l27.806 23.475-49.069-5.794 16.208-17.829zm28.698 42.492l36.876 10.846-37.62 22.138.744-32.984zm-1.19-1.783l-.297-.148v.297l-38.363.594 44.906-15.6-6.246 14.857zm39.999 13.372l10.26-6.091 60.222 45.018-108.548-16.492 38.066-22.435zm50.259-42.344l13.085 6.092-13.085 11.737-10.557-22.137c.148-.149.297-.446.446-.595l10.111 4.903zm15.613 7.28v.298h56.801l31.078 11.737-102.005-1.04 12.937-11.589 1.189.594zm18.438-16.491c-.446-1.337-1.635-2.378-3.122-2.378-1.785 0-3.272 1.486-3.272 3.269 0 .297 0 .743.149 1.04l-10.706 9.658V257.629h47.136v173.982l-30.185-4.903zm30.185 6.537v5.646l-26.319-9.955 26.319 4.309zm-35.686-3.269c.594.595 1.487 1.04 2.379 1.04 1.338 0 2.527-.891 2.974-1.931l30.333 11.44v1.634h-47.136v-1.782l11.45-10.401zm149.884-47.544v15.749h-15.316v-15.749h15.316zm-15.316-1.485v-15.452h15.316v15.452h-15.316zm15.167 18.72v14.412h-15.167v-14.412h15.167zm0 15.898v13.371h-15.167v-13.371h15.167zm0 14.857v11.737h-15.167v-11.737h15.167zm0 13.075v.148h1.487v-.148h15.464v.148h1.487v-.148h15.465v.148h1.487v-.148h16.356l16.059 7.726-10.557 10.846-75.983-18.572h1.933v.148h1.487v-.148h15.315zm1.785-61.065l10.111-3.566v15.452l-10.111 3.715v-15.601zm-.149-1.634v-15.6l10.111-3.121v15.155l-10.111 3.566zm15.315 34.767v13.371h-15.464v-13.371h15.464zm-15.464-1.486v-14.412h15.464v14.412h-15.464zm15.464 16.343v11.737h-15.464v-11.737h15.464zm16.952-14.857v13.371h-15.465v-13.371h15.465zm-15.465-1.486v-14.412h15.465v14.412h-15.465zm15.465 16.343v11.737h-15.465v-11.737h15.465zm17.248-14.857v13.371h-15.91v-13.371h15.91zm-15.761-1.486v-14.412h15.91v14.412h-15.91zm15.761 16.343v11.737h-15.91v-11.737h15.91zm9.368-4.309v11.441l-7.881 4.011v-11.44l7.881-4.012zm-7.881 2.378v-12.926l7.881-3.715v12.629l-7.881 4.012zm24.684 15.303c.446.297 1.189.594 1.784.594 1.635 0 2.974-1.04 3.271-2.526l39.107 1.486-61.262 18.275 17.1-17.829zm-21.264 20.503l-12.49 20.504-60.816-39.373 73.455 17.978-1.041 1.188.892-.297zm192.857-7.577c.744 0 1.487-.149 2.082-.446l56.355 54.824-128.621 22.732 66.764-78.596c.893 1.04 2.082 1.486 3.42 1.486zm272.109-48.733v30.458l-15.16-19.612v-27.189l15.16 16.343zm-15.16-18.572v-25.109l15.16 13.966v27.635l-15.16-16.492zm32.11 73.694l-89.51-46.504 55.91 4.16.15-1.189 33.45 43.533zm102.6 2.377l-4.75 12.332-19.93-11.887h10.85v-12.183l13.83 11.738zm-13.68-13.669v-33.281l13.83 10.549v34.618l-13.83-11.886zm11.75 27.635l48.62-3.269 16.21 16.789-54.87 17.086.45 1.486 70.18-21.84c0 .148 0 .148.15.297l-62.9 42.789-19.03-53.041 2.38.297-1.19-.594zm129.66-15.155l-6.24 15.601-21.12-13.818h1.19v-6.834l26.17 5.051zm-26.32-6.537v-20.206l24.98 24.96-24.98-4.754zm77.32-114.106v20.355l-23.94-7.577v-19.464l23.94 6.686zm-23.94-8.171v-1.04h23.94v7.725l-23.94-6.685zm23.94 30.16v20.355l-23.94-8.469v-19.463l23.94 7.577zm0 21.841v20.355l-23.94-9.361v-19.463l23.94 8.469zm0 21.84v19.315l-23.94-11.589v-17.086l23.94 9.36zm0 20.949v.298h.6l29.74 19.463-27.21-10.549-.15-.148h-.15l-26.77-10.104v-10.548l23.94 11.588zm37.92-109.202v23.92l-3.12-.743v-23.92l3.12.743zm-3.12-2.229v-24.069l3.12.446v24.217l-3.12-.594zm3.12 27.635v23.921l-3.12-.892v-23.92l3.12.891zm0 25.555v23.921l-3.12-.892v-23.772l3.12.743zm0 25.406v24.07l-3.12-1.189v-23.772l3.12.891zm18.14 32.687l-19.33 21.84-8.77-21.394h6.69v-8.618l21.41 8.172zm25.43-105.34v24.664h-23.35v-24.664h23.35zm-23.35-1.337V298.19h23.35v25.258h-23.35zm23.35 27.486v24.664h-23.35v-24.664h23.35zm0 26.15v24.663h-23.35v-24.663h23.35zm0 26.149v25.703h1.49v-25.703h22.3v21.692l-11.45 4.16h-35.69v-25.852h23.35zm46.09-78.299v24.663h-20.81v-24.663h20.81zm-20.81-1.486V298.19h20.81v25.258h-20.81zm20.81 27.486v24.664h-20.81v-24.664h20.81zm0 26.15v24.663h-20.81v-24.663h20.81zm0 26.149v25.703h1.49v-25.703h19.63v25.852h-26.02l-6.1-4.755c.15-.445.3-.891.3-1.337 0-1.783-1.49-3.268-3.27-3.268-1.79 0-3.27 1.485-3.27 3.268v.149l-3.42 1.188v-21.246h20.66v.149zm21.12-52.299v24.664h-19.63v-24.664h19.63zm-19.63-1.485v-24.664h19.63v24.664h-19.63zm19.63 27.635v24.663h-19.63v-24.663h19.63zm13.53 63.144c0 .149.15.297.15.446l-18.88 18.274-.6-.148-18.14-5.943 37.47-12.629zm19.18 5.943v.149h.45l22.75 10.994-57.99.594 16.8-16.194c.59.594 1.34.891 2.23.891 1.64 0 2.97-1.188 3.27-2.674l12.49 6.24zm70.04 36.847l-45.06-18.572 86.1 11.291-41.04 7.281zm70.63-10.995l-38.51 21.543-29.15-9.657 67.66-11.886zm-97.25 11.886c-.89-.743-1.93-1.337-3.27-1.337s-2.53.594-3.42 1.486l-70.18 2.228 52.93-22.583 47.14 19.315-23.2.891zm-266.46-41.898c.45.148.89.297 1.34.297 1.34 0 2.53-.743 2.97-1.931l66.77 25.257-78.37-2.525 7.29-21.098zm77.32 24.218l-.15.148-71.97-27.338 38.81 1.783 33.31 25.407zm-28.4-23.475l28.55 11.143.59 11.143-29.14-22.286zm-56.06 22.286l39.11 17.086-46.24-1.931 6.09-15.304 1.64 1.635-.6-1.486zm2.53-.446l79.55 2.675-38.96 15.006-40.59-17.681zm80.89 3.715l1.34-.446v.149l15.61-.595-26.91 18.424-25.28-3.121 35.24-14.411zm2.83-14.709l24.68-15.452-24.24 26.446-.59-10.251.59.148-.44-.891zm27.5-16.344c.6.446 1.34.743 2.09.743 1.19 0 2.23-.594 2.82-1.485l69.29 22.583-34.79 3.714-24.68-14.56-.3.297-39.11 15.898 24.68-27.19zm8.33 15.155l-19.48 13.223-14.42.446 33.9-13.669zm-18.88 14.858h.89v-.595l24.24-16.64 24.23 14.412 37.33 21.989-114.05-.594 27.36-18.572zm52.04-3.12l36.13-3.863 38.07 10.548-36.58 15.601-37.62-22.286zm94.57-1.932l-.15-.148-17.99 7.725-37.32-10.251 60.66-.743 65.28 12.629-70.48-9.212zm-78.06-10.252l.14.446-47.13-15.452 17.99-6.388h28.1l19.18 15.154-18.28 6.24zm-12.35-27.337a3.201 3.201 0 0 0 2.83 1.634c.89 0 1.63-.297 2.23-.892l4.61 3.566h-22.16l7.14-2.525v2.377h1.49v-2.823l3.86-1.337zm-5.35-101.18h-22.3V298.19h22.3v25.258zm0 1.337v24.664h-22.3v-24.664h22.3zm0 26.149v24.664h-22.3v-24.664h22.3zm0 26.15v24.663h-22.3v-24.663h22.3zm-15.61 53.487l-15.17 5.348.15.595-4.31-1.338v-.297c0-1.783-1.49-3.268-3.27-3.268-1.79 0-3.28 1.485-3.28 3.268v.595l-23.19 14.56 17.1-19.315h31.97v-.148zm-33.01-107.272l-17.25-3.565v-24.367l17.25 2.377v25.555zm0 1.486V349.3l-17.25-4.011v-24.07l17.25 3.566zm0 26.149v24.515l-17.25-4.606v-24.069l17.25 4.16zm0 26.15v24.514l-17.25-5.2v-23.92l17.25 4.606zm0 26.149v25.555l-17.25-6.686v-24.218l17.25 5.349zm-21.71 48.138l-31.82-20.8h23.19l8.63 20.8zm-37.03-12.183l-35.39-1.634c-.59-1.04-1.63-1.932-2.97-1.932-1.78 0-3.27 1.486-3.27 3.269 0 .743.3 1.486.74 2.08l-.3.891-16.95-11.44h35.24l22.9 8.766zm-41.63 4.16l-6.4 18.126-11-29.715 17.4 11.589zm-13.09 38.332l2.68.149-.15-.149 51.75 2.08 24.68 2.972-61.71 28.526-43.42-22.732 26.17-10.846zm-38.95 11.144c1.93 0 3.71-1.189 4.31-2.972l6.09 3.269.15.445.3-.148 42.82 22.583-118.21 16.789 60.97-41.601c.89.892 2.23 1.635 3.57 1.635zm11-1.189l-6.4-3.417v-.297c0-2.675-2.08-4.755-4.75-4.755-2.68 0-4.76 2.08-4.76 4.755v.148l-13.83 4.309-15.61-16.195 69.73 5.2-24.38 10.252zm-218.88 56.756c-2.68 0-4.76 2.08-4.76 4.754 0 .891.3 1.783.75 2.526l-11.9 7.131-67.657.743-9.367-9.806 128.474-24.663-.15.148.59-.148 2.98-.594 141.56 40.263-123.42-1.634v.594l-52.19-13.371c0-.298.15-.595.15-.892-.3-2.971-2.38-5.051-5.06-5.051zm-82.228 16.343l63.938-.594-41.78 24.812.44-.446-22.598-23.772zm48.328-72.356l-27.51-18.869 9.22-22.286 18.29 41.155zm-16.81-41.601l73.46 14.709-54.57 27.932-18.89-42.641zm18.59 44.572l68.55 31.795-130.554 25.11-4.758-5.052 66.762-51.853zm146.61 6.241l6.1-20.355 17.55 48.881-23.65-28.526zm24.09 31.497l-97.09-6.24 71.96-24.217 25.13 30.457zM1191 501.144l-65.13 21.84 71.37-42.492-6.24 20.652zm-73.61 25.258l-13.08-59.282 92.19 12.183-79.11 47.099zm6.25 2.228l92.34 5.943-.89.594 2.82-.445 45.95 33.726-140.22-39.818zm64.09-101.922h-40.3v-30.904h40.3v30.904zm0 1.485v36.253h-11.9l-12.94-7.726c.15-.446.3-.892.3-1.486 0-1.783-1.48-3.269-3.27-3.269-1.78 0-3.27 1.486-3.27 3.269v.446l-9.37 1.486v-29.121h40.45v.148zm-30.49 29.121c.6.892 1.64 1.337 2.68 1.337.74 0 1.49-.297 1.93-.743l11.01 6.538h-25.58V458.8l9.96-1.486zm18.14 8.617l19.63 11.738-88.77-11.738h69.14zm-63.04-1.485l33.6-5.349v5.349h-33.6zm33.45-37.738h-42.22v-30.904h42.22v30.904zm0 1.485v29.418l-42.22 6.835v-36.104h42.22v-.149zm-41.78 37.738v.298-.298zm11.75 60.173l-68.25-31.646 55.01-28.081 13.24 59.727zm-13.68-100.139l-17.25-18.572v-27.932l17.25 15.897v30.607zm0 2.228v34.618l-17.25-22.434v-30.904l17.25 18.72zm-4.17 35.361l-71.37-14.263v-.149l-.3-.148-17.24-31.647 88.91 46.207zm-73-14.114l-8.93 21.394-7.43-51.258 16.36 29.864zm18.43 44.275h-83.563l55.763-19.166 27.8 19.166zm.3 1.486l-65.573 50.961-4.164-4.309-17.397-46.504h87.134v-.148zm-72.413 43.829l-29.144-30.755v-.297c0-2.674-2.082-4.754-4.758-4.754-1.636 0-3.123.891-4.015 2.228l-49.516 4.161 71.076-14.412 16.357 43.829zm-38.512-31.795c0 .298-.149.595-.149.892v.297L813.61 573.648l57.843-61.213 61.262-5.2zm-218.581 33.727l-26.468-9.509c-.149-2.526-2.23-4.457-4.758-4.457-2.677 0-4.759 2.08-4.759 4.754v.595l-21.709 15.154 17.695-72.059h.446c1.041 0 2.082-.297 2.825-.891l60.965 60.916-24.237 5.497zm26.17-4.457l62.154 36.549-85.797-31.201 23.643-5.348zM471.91 565.774c-.446-2.674-2.825-4.754-5.651-4.754-2.23 0-4.163 1.337-5.055 3.268l-20.669 4.16v-.297l-55.314-2.674 44.906-25.258h.148l.149-.297 9.368-5.2c.892.891 2.081 1.486 3.42 1.486 1.189 0 2.23-.446 2.974-1.189l118.807 41.304-78.362-4.755c-6.097-2.377-11.153-4.308-14.721-5.794zm-70.482 32.686l-22.155-16.046 81.485-16.64v.148l-59.33 32.538zm191.371-73.693l46.244 32.538-120.74-21.097 74.496-11.441zm-79.255 10.549l-99.476-16.492 135.758-7.28 39.701 12.183-75.983 11.589zm78.957-12.332l-42.229-12.926-10.409-6.388 65.129-16.789-12.491 36.103zm-53.827-20.503l.148.594-40.445-25.109-5.501-20.8 110.034 28.823-64.236 16.492zm-42.23-25.704l-13.68-8.468-101.112 21.989 2.677-34.618 106.762 1.04 5.353 20.057zm.595 2.081l.298.891.892-.149 49.515 30.607-137.543 7.28 72.861-47.395 13.977 8.766zm4.312 55.864l-53.53-2.377c0-.298.149-.595.149-.743 0-2.675-2.082-4.755-4.758-4.755-2.677 0-4.759 2.08-4.759 4.755 0 .743.149 1.485.446 2.08l-8.624 4.754-20.371-18.869 91.447 15.155zm68.846 43.532l11.598 20.058-55.909-10.846c-12.639-5.052-24.683-9.955-34.795-13.966l79.106 4.754zm11.152 21.544l-.892.594 2.528-.297 19.776 17.977c-10.408-4.011-40.296-16.046-69.589-27.783l48.177 9.509zm-9.516-21.692l56.95-11.441-45.352 31.647-11.598-20.206zm-1.19-1.338h-.149l-123.268-42.789v-.149l66.17 2.823 126.539 22.138-8.178 5.646-61.114 12.331zm23.643-52.892l76.875-50.07c.446.594 1.041 1.04 1.635 1.189l-18.14 73.693-12.639 8.766-47.731-33.578zm75.983-51.259l-75.983 49.476 12.341-35.658 63.642-14.115v.297zm-124.607-91.67h-14.423v-15.452h14.423v15.452zm0 1.485v15.749h-14.423v-15.749h14.423zm0 17.235v14.412h-14.423v-14.412h14.423zm0 15.898v13.371h-14.423v-13.371h14.423zm0 14.857v11.737h-8.029l-.892-.148.297.148h-5.948v-11.737h14.572zm-6.245 13.075l62.749 40.709-108.695-28.526 18.735-12.183h17.546v.148h1.487v-.148h8.178zm-28.103-1.635l-7.732-1.337 7.732-3.12v4.457zm18.438-42.195v14.412h-17.1v-14.412h17.1zm-16.951-1.486v-15.749h17.1v15.749h-17.1zm16.951 17.384v13.371h-17.1v-13.371h17.1zm0 14.857v11.737h-17.1v-11.737h17.1zm0-49.475h-17.1v-15.452h17.1v15.452zm-14.275-17.978l-3.568 1.04h-.595v71.762l-10.557 4.308-3.569-.594V257.629l18.438-1.188v106.528h-.149zm-17.397 78.299l-1.041.446v-.595l1.041.149zm2.825.446l9.071 1.485-18.29 12.035-30.928-11.737h36.43v-.298l3.717-1.485zm-5.353.297h-38.809l-6.989-2.674v-5.943l45.798 7.428v1.189zm-42.973 0h-2.825v-1.04l2.825 1.04zm-81.93-8.915c.594 0 1.04-.148 1.487-.297l10.111 21.098-29.442-13.966.744-.149-1.041-.297 15.464-7.726c.446.743 1.487 1.337 2.677 1.337zm11.449 22.287l-.446.297h1.041l-2.528 33.132-28.103-47.841 30.036 14.412zm-1.636 36.698l19.628 20.057-31.672-23.623 12.044 3.566zm1.933-.297l96.652-20.95-71.671 46.653-24.981-25.703zm25.13 27.635l21.561 19.909-44.609 25.109 23.048-45.018zm-7.584 79.933l-.594.297-61.411 12.926-138.881-35.658 178.136 6.092 22.75 16.343zm-61.708 14.56l56.058-11.737-89.068 45.612 33.01-33.875zm61.708-12.926l3.123-.594 195.98 20.949-297.985 30.904.893-.892 97.989-50.367zm3.867-2.08l56.95-31.201c.446 2.675 2.825 4.606 5.65 4.606a5.652 5.652 0 0 0 5.65-5.051c3.42 1.337 8.03 3.268 13.532 5.497v.297h.892a3361.28 3361.28 0 0 1 36.43 14.709l-.149.446 2.677.446c32.564 13.074 68.251 27.337 78.065 31.052l-.595.148-199.102-20.949zm181.11 1.04l214.864-21.692-193.601 41.007-21.263-19.315zm1.041-1.634l46.541-32.39.744-.148v-.297l22.75-15.898v-.148l22.75-15.898c.744 1.486 2.379 2.526 4.164 2.526 2.23 0 4.014-1.486 4.461-3.417l26.021 9.509v.297l.298-.149 92.488 33.578-220.217 22.435zm155.237-62.996l127.58-22.583-.148.148h.297l-59.329 62.847-68.4-40.412zm191.668-25.406c.743 1.783 2.379 2.971 4.312 2.971 1.933 0 3.569-1.188 4.312-2.823l30.929 32.538.148.297h.149l44.306 46.504-14.27 8.469-190.627-21.692 120.741-66.264zm67.806 89.145l-18.44 10.994-154.642-30.755 173.082 19.761zm192.41 7.28l69.44 67.75-203.27-69.682 133.83 1.932zm-106.32-49.773l154.2 39.67-47.43 8.617-106.77-48.287zm51.9 11.738l125.2 1.634 3.72 1.04 22.75 16.195-45.8 8.32-105.87-27.189zm127.87.148l-46.39-34.023 118.96-16.938-70.04 51.11-2.53-.149zm75.69-51.407l190.03 30.161-260.66 21.246 70.63-51.407zm2.23-1.04l62.01-28.675h.44l126.24 58.687-188.69-30.012zm66.17-28.675l111.37.595-.29.148 3.27-.148 12.34 58.241-126.69-58.836zm115.98.595h1.79l-.15-.149 70.63-2.229c-.15.595-.3 1.189-.3 1.783 0 .297 0 .595.15.892l-59.78 57.647-12.34-57.944zm80.89-2.526l25.43-.892 30.48 10.103-1.04.595h1.49l-8.18 11.589-47.73-19.018v-.446c0-.743-.15-1.337-.45-1.931zm47.29 22.583l1.19.892.29-.297 86.99 34.618-.15.297h.89l64.39 69.681-198.95-123.317 45.35 18.126zm2.38-.594l8.47-12.183 108.25-2.08-30.03 48.732-86.69-34.469zm11-13.669l36.13-20.206c.75 1.634 2.38 2.674 4.31 2.674 2.09 0 3.87-1.337 4.47-3.12l28.84 8.766 1.04.594.15-.148 31.38 9.657-106.32 1.783zm74.2-13.372L1715 465.189l42.23.891h25.13l-7.14 24.515-32.86-10.252zm-30.04-16.64l-15.46-15.155 54.72 15.898-39.26-.743zm45.06-46.801l-19.63-4.458h83.86v.298l20.08 4.16h-84.31zm64.38-5.943h-89.96v-25.704h89.96v25.704zm-121.33 43.087l-20.67-16.79c0-.148.15-.297.15-.445l13.68 2.823v7.874l.29.149 6.55 6.389zm-6.84-15.898l-13.68-2.823c-.3-1.486-1.64-2.674-3.27-2.674-1.79 0-3.28 1.485-3.28 3.268 0 .297 0 .595.15.892l-1.93 2.08-11.6-6.389h33.61v5.646zm-19.33 0c.59.743 1.48 1.04 2.38 1.04.74 0 1.48-.297 2.08-.743l30.33 24.515-49.07-10.252 14.28-14.56zm-13.54 16.343l51.01 10.549h.15l23.79 13.223-22.31-6.834v-.149c0-2.674-2.08-4.754-4.76-4.754-2.37 0-4.31 1.634-4.61 3.863l-26.46 4.606.15-.446-86.4-16.789 67.36-4.012 2.53.892-.45-.149zm-72.56 2.229l-20.67-9.955 87.14 5.943.44.149-66.91 3.863zm-24.24-11.738l-13.68-6.537c-.44-1.337-1.63-2.229-3.12-2.229-1.48 0-2.82 1.041-3.12 2.378l-19.18 6.537-6.69-5.2 60.22-9.36h.74l13.83-.595.15.446 56.5 20.503-85.65-5.943zm13.68-41.749v25.852h-22.89v-25.852h22.89zm-22.89-1.486v-24.663h22.89v24.663h-22.89zm24.38 27.338v-14.709l9.22 2.674 4.02 11.292-13.24.743zm14.72-.743l-3.72-10.846 15.02 4.309-11 6.388-.3.149zm-14.72-51.853v-1.04l-47.13-10.103v-19.612l108.84 21.544v23.029l-61.71-13.818zm-6.24-.891h-41.04v-8.766l41.04 8.766zm-19.63 1.486v24.663h-21.26v-24.663h21.26zm0 26.149v25.852h-21.26v-25.852h21.26zm15.31 27.338l-52.19 8.023-10.26-8.023h62.45zm-38.21-107.123h-19.63V298.19h19.63v25.258zm-105.57-33.727l-8.33-1.04v-4.457h-.74l-3.87-.446v-13.223l12.94 1.189v17.977zm-25.58-21.84h-.74v14.263l-1.34-.148v-56.459h28.85v42.492h-26.77v-.148zm.6 1.486l10.55 1.04v13.223l-10.55-1.337v-12.926zm15.16 16.343v143.375h-31.82v-96.128h-26.91v96.128h-36.28V285.71h95.01zm-85.2 175.021l-25.28-25.257v-12.481l14.13 7.28 11.15 30.458zm-11.3-91.819v28.972l-13.98-6.24v-27.932l13.98 5.2zm-14.13-6.686v-27.783l13.98 4.011v28.824l-13.98-5.052zm14.13 37.292v29.121l-13.98-7.28v-27.932l13.98 6.091zm0-92.859l-50.71-10.846v-17.978l50.71 7.875v20.949zm-50.71 15.303V297.15l50.71 10.846v28.824l-13.98-4.012v-.148h-.15v-.149h-.59l-36.43-10.549h.44zm35.1 37.887v31.646h-30.49v-31.646h30.49zm-30.49-1.486v-24.218h30.49v24.218h-30.49zm30.49 34.47v35.063h-30.49v-35.063h30.49zm0 36.549v28.081l-15.17-2.823c0-1.783-1.49-3.12-3.27-3.12-1.79 0-3.27 1.485-3.27 3.268 0 .298 0 .743.15 1.04l-9.07 5.349v-31.795h30.63zm0 29.566v5.498h-2.09l-12.78-8.469 14.87 2.971zm-20.67-1.931c.59.594 1.48 1.04 2.38 1.04.89 0 1.63-.297 2.23-.891l11.45 7.428h-25.88v-1.634l9.82-5.943zm18.29 8.914l21.41 13.967-69.59-5.201 14.87-8.914h33.31v.148zm-30.93-1.485l1.34-.743v.743h-1.34zm1.34-106.083h-31.38v-24.218h31.38v24.218zm0 1.486v31.646h-31.38v-31.646h31.38zm0 32.984v35.063h-31.38v-35.063h31.38zm0 36.549v32.538l-4.17 2.526h-27.21v-35.064h31.38zm-6.69 36.549l-14.58 8.766-45.35 3.121 35.09-11.738h24.84v-.149zm-26.17-107.568h-33.46v-24.218h33.46v24.218zm0 1.486v31.646h-33.46v-31.646h33.46zm0 32.984v35.063h-33.46v-35.063h33.46zm0 36.549v35.064h-33.46v-35.064h33.46zm-3.28 36.549l-34.79 11.738 4.46-11.738h30.33zm-31.67-107.716l-19.63-9.361v-22.732l19.63 7.578v24.515zm-.15 1.634l.15 31.498-19.63-11.589v-29.121l19.48 9.212zm-.15 32.984l.15.148h.15v34.321l-13.83-10.549v-22.435h-.59l-5.35-3.417v-9.509l19.47 11.441zm-129.51-64.928h-18.73v-18.869h18.73v18.869zm0 1.486v23.921h-18.73v-23.921h18.73zm0 25.406v6.983h-6.54v15.898h-12.19v-22.881h18.73zm-6.54 24.367v10.548l-.15.149.15.149v10.4h-12.19v-21.246h12.19zm0 22.732v17.383l-55.46-4.16 42.67-13.223h12.79zm-13.68-74.585l-8.48-6.389v-17.383l8.48 5.051v18.721zm0 1.783v23.326l-8.48-8.172v-21.394l8.48 6.24zm0 25.406v21.692l-8.48-9.36V346.18l8.48 8.32zm0 23.921v20.503l-8.48-10.994v-19.018l8.48 9.509zm-38.22 94.345l-33.154-6.24 25.274-48.584 7.88 54.824zm-2.08 1.189l-57.096 19.611-23.791-33.28c.743-.298 1.338-.892 1.784-1.486l79.103 15.155zm-86.091-14.264c.892.743 1.933 1.189 3.122 1.189h.744l23.642 33.132-80.593 16.343 48.326-46.058.892.149.149-1.04 3.718-3.715zm-223.191 38.333l.297.594-25.278-25.258c.595-.743.892-1.634.892-2.674 0-2.674-2.082-4.755-4.758-4.755-2.677 0-4.758 2.081-4.758 4.755v.148l-62.304 13.818 12.788-21.098 88.325-6.24 97.246-4.606-102.45 45.316zm4.758-42.047l-81.634 5.794 61.56-18.423h.149l.148-.149L718 440.377l-9.814 15.6zm-23.643-14.263l-39.999-1.486c-.297-1.486-1.635-2.526-3.122-2.526-1.784 0-3.271 1.486-3.271 3.269 0 .594.148 1.188.446 1.634l-7.286 7.578-15.019-7.281 40.743-14.114 27.508 12.926zm-61.708-31.647l-7.881 3.715V399.37l7.881-3.417v14.114zm-38.512-35.063v15.303l-8.773 3.268v-15.451l8.773-3.12zm-8.773 1.634v-15.006l8.773-2.675v14.561l-8.773 3.12zm17.695-4.755v15.304l-7.435 2.674v-15.303l7.435-2.675zm-7.435 1.04v-14.56l7.435-2.377v14.115l-7.435 2.822zm7.732-31.943h-13.085v-13.669h13.085v13.669zm0 1.486v11.886h-.297v.148h-12.788v-12.034h13.085zm-76.578 20.057V256.292l15.465-1.04v102.814l-15.465 4.457zm26.171-7.874v-12.035h11.152v12.035h-11.152zm11.152-13.669h-11.152v-13.669h11.152v13.669zm-4.907-16.641l-7.732 1.635v29.418l-7.732 2.228V255.103l15.464-1.04v70.276zm-5.353-80.824v-9.509h30.185v9.509h-30.185zm-1.487 9.508l-46.244 3.12h-8.922v-19.76l55.166-2.526v19.166zm-46.988 4.606v181.708l-45.798-7.429V257.629h45.798zm-73.901-22.732l-9.814.297h-.892v19.315h-15.91v-20.652h26.616v1.04zm-10.706 21.098v.148h-10.557v.743h-.744v21.989h-4.609v-22.88h15.91zm-11.301 24.366v19.612h-4.609v-19.612h4.609zm0 21.098v19.612h-4.609v-19.612h4.609zm0 21.246v19.612h-4.609v-19.612h4.609zm0 21.098v19.612h-4.609v-19.612h4.609zm0 21.246v19.612h-4.609v-19.612h4.609zm0 21.098v19.612h-4.609v-19.612h4.609zm0 21.246v21.395h-4.609v-21.395h4.609zm0 22.732v9.36l-1.487 1.337-12.49-5.943 8.773-4.903h5.204v.149zm-6.096-149.764v19.612h-24.981v-19.612h24.981zm-24.981-1.486v-22.88h24.981v22.88h-24.981zm24.981 22.584v19.612h-24.981v-19.612h24.981zm0 21.246v19.612h-24.981v-19.612h24.981zm0 21.098v15.452h-29.591v-15.452h29.591zm0 17.086v19.315h-29.591v-19.315h29.591zm0 20.8v19.167h-29.591v-19.167h29.591zm0 20.652v20.504h-29.591v-20.504h29.591zm0-147.832h-24.981v-20.652h24.981v20.652zm-36.579-46.801v-17.235h26.616v17.235h-26.616zm10.111 1.486v23.177h-23.345v-23.177h23.345zm0 24.663v20.652h-23.345v-20.652h23.345zm0 22.138v22.88h-23.345v-22.88h23.345zm0 24.366v19.612h-23.345v-19.612h23.345zm0 21.098v19.612h-23.345v-19.612h23.345zm0 21.246v19.612h-23.345v-19.612h23.345zm-4.61 21.098v15.749l-18.735 4.011v-19.612h18.735v-.148zm0 17.234v19.315l-18.735 4.309v-19.612l18.735-4.012zm0 20.801v19.018l-18.735 4.903v-19.612l18.735-4.309zm0 20.652v20.949l-18.735 5.497v-21.543l18.735-4.903zm1.487 21.989l29.591-.149v4.606l-9.517 5.2-10.111-4.754c-.149-1.783-1.487-3.12-3.271-3.12-1.785 0-3.272 1.486-3.272 3.269v.297l-17.1 8.469-27.954-8.321 20.668.297 20.966-5.794zm15.316 65.67l-14.423-4.308-20.669-15.452-10.557 6.24-38.364-11.292 6.84-15.897 47.88-9.212 29.293 49.921zm-77.916-42.492l-29.442-24.812v-.149l25.13 8.32 1.487 1.338.446-.595 11.598 3.863-9.219 12.035zm-3.569-17.829l-31.672-26.149.149-.149 37.917 11.589 6.691 19.017-13.085-4.308zm7.881-14.709l10.706-1.783v15.897l-4.163 4.755-6.543-18.869zm1.041-1.635l9.665-10.4v8.915l-9.665 1.485zm-2.231.149l-27.806-8.617 22.007-6.538-.148-.297h17.843v2.526l-11.896 12.926zm-22.006-16.789v-33.726h33.753v33.726h-33.753zm0-35.361v-40.858h33.753v40.858h-33.753zm-30.632-55.27v11.143l-16.802 1.783h-.744v8.469h-6.691v-21.543h24.237v.148zm-17.397 22.881v12.777h-6.691v-12.777h6.691zM141.51 351.38v27.041h-9.219V351.38h9.219zm0 28.526v28.824h-9.219v-28.824h9.219zm46.244 30.31v20.503h-55.612v-20.503h55.612zm-15.91 32.092l22.453-12.183 29.441-7.28 23.791 19.76-28.252 20.949-48.92-20.949 1.487-.297zm76.726 1.189l.298-.149 49.366 5.794-47.731 16.492-27.062-1.783 1.933-.594-3.569.149 26.765-19.909zm-1.635 23.474l-.893.298 47.583-.743-.595 33.429-69.887-34.618 23.792 1.634zm159.103 52.15l-23.791 46.059-162.078-72.951.149-.148 185.72 27.04zm-190.032-24.366c1.338 0 2.379-.446 3.271-1.337l155.535 69.979-157.765-39.373-1.784-29.418c.148.149.446.149.743.149zm157.765 69.979l-245.644-19.612 88.176-19.612 157.468 39.224zm-175.608 13.372l138.286 35.509-35.39 36.252-3.42 1.783-99.476-73.544zm188.545 128.963l144.68-31.35 2.974.298.148-.892 85.351-18.572c0 .149.149.149.149.297l-168.62 90.334-64.682-40.115zm238.06-58.836a5.645 5.645 0 0 0-5.65 5.646c0 .446 0 .743.148 1.189l-88.027 19.017-227.652-20.8 302.297-31.35 120.443 62.699-37.174-1.931v.148l-59.032-27.189c.149-.594.297-1.04.297-1.783.149-3.12-2.527-5.646-5.65-5.646zm-15.613-26.298l-.297-.297h.148l292.632 72.356-171.594-9.063-120.889-62.996zm.297-1.783l199.103-42.195-.149-.594 1.041-.149 97.098 116.335-297.093-73.397zm202.225-42.492l168.62 33.429-.892.446 43.125-1.783-113.904 83.945-96.949-116.037zm213.523 32.241l11.9-8.766c.89.891 2.08 1.486 3.42 1.486 1.49 0 2.82-.743 3.72-1.783l218.87 75.03-.59.297-351.366 17.978 114.046-84.242zm170.26-3.269l173.82 21.989-103.34 45.91h-.89l-69.59-67.899zm2.82-1.189l220.96-40.263-48.17 62.253-172.79-21.99zm338.58-56.755l-26.17 47.247 1.34.743 26.77-48.287 268.98 68.344-206.83 13.223-154.79-57.201 90.7-24.069zm3.12-1.634l59.33-57.35c.9 1.337 2.38 2.228 4.02 2.228 1.49 0 2.82-.743 3.72-1.783l202.07 125.1-269.14-68.195zm206.1-3.418l158.21 9.658-91.3 62.847-66.91-72.505zm-.6-1.485l29.89-48.436 127.13 57.944-157.02-9.508zm38.36-76.22h65.73l11.89 6.686-85.05 19.167 7.43-25.853zm75.39 8.766l-27.8 10.846-42.38 4.903 70.18-15.749zm5.36-.594l42.82-.594-69.29 10.846 26.47-10.252zm6.54-1.634l10.11-23.624h.59c.75 0 1.49-.297 2.09-.743l8.92 6.686v.446h.59l22.16 16.492-44.46.743zm8.77-24.069l-10.26 24.217h-4.91l-.29-.148-.15-.594-.6.148-13.97-7.874v-5.795l29.29-10.994c.3.445.59.742.89 1.04zm-30.18 8.468v-19.166l20.81 11.292-20.81 7.874zm-10.12-85.282l15.62 2.675v18.423l-15.62-3.269v-17.829zm0-1.485v-18.424l15.62 2.229v18.869l-15.62-2.674zm37.62-55.27v28.972l-42.67-5.052v-14.114h-.74l-24.24-2.823h-2.68v-13.818l70.33 6.835zm-67.8 8.468l11.9 1.338h-11.45l-13.09-1.338h12.64zm23.64 2.823v14.709h-22.45v-14.709h22.45zm-24.09 0v14.709l-25.57-3.12v-14.263l25.57 2.674zm-14.42 19.167v32.835l-57.84-11.589v-29.418l57.84 8.172zm20.37 38.48h-83.86l-81.34-16.194h85.5v.148l79.7 16.046zm-79.7-17.68h-92.93v-58.093h93.08v58.093h-.15zm-4.91 19.018v25.555l-35.83-8.321-.89-.148-51.3-11.589v-23.029l88.02 17.532zm-36.72 18.572v27.189h-36.14l-15.16-8.469V392.09l51.3 11.589zm-39.26 27.189h-12.04v-6.686l12.04 6.686zm2.68 1.486l13.53 7.577-11.75 12.183-17.4-19.76.9.297v-.297h14.72zm-.89 19.314l-.9-.297v-.148h-.29L1595 429.531l12.05-6.983 31.52 9.211 17.55 19.909zm-15.47-85.876l-108.84-21.544v-47.544h-.75l-21.26-2.822v-3.269l130.85 17.383v57.796zm-93.38-139.809l-52.49-.149v-51.11l52.49-4.011v55.27zm-119.7-150.061l-19.18 5.2V73.99l19.18-5.497v7.429zm0 1.486v14.857l-19.18 4.606V82.608l19.18-5.2zm0 16.343v14.857l-19.18 4.16V98.505l19.18-4.754zm0 16.343v14.858l-19.18 3.565v-14.263l19.18-4.16zm0 16.343v141.295h-.3v-43.978h-12.04v-14.263h-6.84v-79.488l19.18-3.566zm-13.68 84.54v12.926h-20.37v-12.926h20.37zm-131.59-33.133h-21.71v-13.371l21.71-3.566v16.937zm-18.89 1.486v18.126h-18.58V179.33h18.58zm0 19.612v18.126h-18.58v-18.126h18.58zm-4.16 19.612v13.075l-17.1-.892v-12.332h17.1v.149zm0 14.56v19.018l-17.1-1.783v-18.126l17.1.891zm0 20.504v18.72l-17.1-2.377v-18.126l17.1 1.783zm0 20.206v22.732l-17.1-3.269v-21.692l17.1 2.229zm0 24.218v21.543l-5.95-1.783v-10.4h-.74l-10.56-2.823v-9.955l17.25 3.418zm-44.61 28.526v-17.532h37.17v17.532h-37.17zm-156.58-26.298l-11.15-6.537v-1.783h.15v-1.486h-.15v-10.103l11.15 6.835v13.074zm-12.63-21.989v12.183h-20.23v17.532l-.15.149.15.148v18.572l-.15.149.15.148v26.447h-6.39v-84.688h40.44v9.212l-13.82.148zm-20.23 76.962v9.36l-17.69 48.287-9.667-47.692h.149v-.149l20.218-9.806h6.99zm-27.951 8.469l-3.718-7.132h18.439l-14.721 7.132zm-46.542 50.813l51.153 1.485-72.268 17.829 21.115-19.314zM928.7 432.651l9.665-24.664 10.855 5.943-20.52 18.721zm16.951-43.087l21.412-.743-16.207 23.178-5.502-21.989.744.297-.447-.743zm6.246 23.623l21.709-31.2c.446.297.892.445 1.487.445.446 0 .743-.148 1.041-.297l29.446 32.687-53.683-1.635zm-5.948-26l6.542-14.115 21.115-1.486-27.657 15.601zm6.394-15.749l-8.327-16.195 31.672 14.412-23.345 1.783zm-8.625 18.274l5.651 22.732-10.855-5.943-15.018-24.069 19.776 6.835-.148.297.594.148zm-6.542 17.235l-9.814 25.109-4.61-48.287 14.424 23.178zm-121.633 43.384c-.743-1.783-2.379-3.12-4.46-3.12-1.933 0-3.569 1.189-4.312 2.674l-37.174-14.114 113.9-5.349 37.62 4.754-105.574 15.155zM784.02 301.162v16.789h-19.925v-16.789h19.925zm-19.776-1.486V283.63h19.925v16.046h-19.925zm19.776 19.76v16.789h-19.925v-16.789h19.925zm0 18.424v16.789h-19.925V337.86h19.925zm0 18.274v16.789h-19.925v-16.789h19.925zm0 18.424v16.789h-19.925v-16.789h19.925zm0 18.275v16.789h-19.925v-16.789h19.925zm0 18.423v17.829h-19.925v-17.829h19.925zm19.182 14.709v4.606h48.623l-78.957 3.714 30.334-8.32zm8.921-149.021v14.709l-11.895 3.566v-15.304l11.895-2.971zm-11.895 1.337v-17.532l11.895-1.783v16.492l-11.895 2.823zm11.895 14.858v7.726l-9.07 3.268v7.875l-2.974 1.04v-16.046l12.044-3.863zm21.115 124.654c.595.594 1.338.892 2.231.892.743 0 1.338-.298 1.933-.595l40.742 10.995h-73.455v-3.566l28.549-7.726zm5.205-1.04c.148-.446.297-.891.297-1.486 0-1.783-1.487-3.268-3.271-3.268-1.785 0-3.272 1.485-3.272 3.268 0 .446.149.743.149 1.04l-27.806 7.578V405.61h78.362v23.178l-44.459-12.035zm-33.754-12.48v-23.772h78.362v23.772h-78.362zm0-25.407v-23.772h78.362v23.772h-78.362zm0-25.109v-23.623h78.362v23.623h-78.362zm0-25.109v-23.475h78.362v23.475h-78.362zm-1.487-15.303v15.749l-2.974 1.188v-15.897l2.974-1.04zm0 17.383v14.709l-2.974 1.486v-15.006l2.974-1.189zm0 16.492v15.155l-2.974 1.783v-15.452l2.974-1.486zm0 16.789v15.452l-2.974 1.931v-15.6l2.974-1.783zm0 17.235v15.154l-2.974 2.08v-15.451l2.974-1.783zm0 17.086v16.195l-.298-.298-2.676 2.229v-15.898l2.974-2.228zm0 17.532v8.468l-15.762 4.309 12.342-10.103h.446v-.446l2.974-2.228zm-4.461-137.135l-13.234 3.269v-19.018l13.234-2.08v17.829zm0 1.486v15.451l-13.234 4.012V283.63l13.234-3.417zm0 16.937v16.195l-13.234 4.606v-16.789l13.234-4.012zm0 17.681v16.046l-13.234 5.2v-16.641l13.234-4.605zm0 17.68v15.155l-13.234 6.686v-16.641l13.234-5.2zm0 16.938v15.6l-13.234 7.874v-16.64l13.234-6.834zm0 17.234v15.749l-13.234 8.618v-16.641l13.234-7.726zm-13.234 26.15l13.085-8.618v15.452l-13.234 9.657.149-16.491zm0 18.423l13.085-9.658v16.047l-13.234 10.697.149-17.086zm98.882-8.172v-23.029l10.706-10.4v21.395l-10.706 12.034zm10.706-9.954v21.246l-10.706 13.966v-23.029l10.706-12.183zm-10.706-15.155v-23.029l10.706-8.766v21.395l-10.706 10.4zm0-25.109v-23.029l10.706-7.132V344.1l-10.706 8.766zm0-24.812v-23.029l10.706-5.498v21.395l-10.706 7.132zm8.327-30.607v-67.453h3.123v67.453l-.149.149h-2.974v-.149zm-67.21-8.32v8.469h-4.312l-7.584 2.674v-7.577l11.896-3.566zm-11.896 1.932v-14.561l11.896-2.971v13.966l-11.896 3.566zm28.252 6.388h-14.869v-24.812h-.297.297v-17.68l-.743.148h-8.625v-68.344h24.237v110.688zm-16.356-40.561v15.304l-11.896 2.971v-16.343l11.896-1.932zm-35.538 4.012l-5.204.743h-11.301l5.353-.743h11.152zm-5.948 2.228v19.018h-19.925v-19.018h19.925zm-20.668-1.485h-.744v16.64h-21.561v-17.383h27.658l-5.353.743zm-.595 18.126v2.377h-33.605l11.895-2.377h21.71zM743.724 409.77v-16.789h19.033v16.789h-19.033zm19.033 1.486v17.829h-19.033v-17.829h19.033zm-19.033-19.909v-16.789h19.033v16.789h-19.033zm0-18.275v-16.789h19.033v16.789h-19.033zm0-18.423V337.86h19.033v16.789h-19.033zm0-18.275v-16.938h19.033v16.789h-19.033v.149zm0-18.423v-16.789h19.033v16.789h-19.033zm0-18.275V283.63h19.033v16.046h-19.033zm-20.52 110.094v-16.789h19.033v16.789h-19.033zm19.033 1.486v17.829h-19.033v-17.829h19.033zm-19.033-19.909v-16.789h19.033v16.789h-19.033zm0-18.275v-16.789h19.033v16.789h-19.033zm0-18.423V337.86h19.033v16.789h-19.033zm0-18.275v-16.938h19.033v16.789h-19.033v.149zm0-18.423v-16.789h19.033v16.789h-19.033zm0-18.275V283.63h19.033v16.046h-19.033zm16.356-21.246l-16.356 3.268v-18.72l15.762-2.229h.594v17.681zm-17.099-16.789h-5.502l7.583-1.04v.148h3.866l-5.947.892zm2.825-20.355h-16.059v-23.029h16.059v23.029zm0 1.486v16.194l-16.059 2.229v-18.423h16.059zm-3.569 20.354v19.018H706.55v-19.018h15.167zm0 20.504v16.046H706.55V283.63h15.167zm0 17.532v16.789H706.55v-16.789h15.167zm0 18.274v16.789H706.55v-16.789h15.167zm0 18.424v16.789H706.55V337.86h15.167zm0 18.274v16.789H706.55v-16.789h15.167zm0 18.424v16.789H706.55v-16.789h15.167zm0 18.275v16.789H706.55v-16.789h15.167zm58.883 37.738l-14.572 4.011-31.226 2.972v.148l-9.219-1.634c-.446-1.337-1.635-2.377-3.122-2.377-1.785 0-3.272 1.485-3.272 3.268 0 .446.149.892.298 1.338l-.595.891v-.149l-28.103 2.675 15.315-10.995H780.6v-.148zm-75.537-14.412l-3.122-1.04.446-.149-4.61-14.412 7.286-3.714v19.315zm-28.4.891l-19.926 10.252-32.861 11.44 43.567-22.435 9.22.743zm-27.658-48.881v15.155l-8.029 3.417v-15.6l8.029-2.972zm-8.029 1.337v-13.817l8.029-2.823v13.817l-8.029 2.823zm.743 45.167v-12.035l7.286-3.565v11.737l-7.286 3.863zm7.286-2.08v11.44l-7.286 3.715v-11.441l7.286-3.714zm-7.286-11.44v-13.075l7.286-3.12v12.629l-7.286 3.566zm8.773 9.063v-11.589l7.732-3.714v11.44l-7.732 3.863zm7.732-2.377v11.44l-7.732 4.011v-11.44l7.732-4.011zm-7.732-10.995v-12.629l7.732-3.268v12.183l-7.732 3.714zm0-14.115v-15.006l7.732-2.823v14.561l-7.732 3.268zm0-16.64V352.42h-.148l7.88-2.823v13.669l-7.732 2.823zm15.911 11.44v11.738l-6.84 3.268v-12.183l6.84-2.823zm-6.692 1.189v-14.56l6.84-2.526v14.114l-6.84 2.972zm6.692 12.183v10.995l-6.84 3.565V394.17l6.84-3.269zm0 12.629v11.44l-6.84 3.566v-11.44l6.84-3.566zm0-43.384l-6.84 2.526v-13.669l6.84-2.377v13.52zm-55.018-22.583v11.886l-6.245 1.783v-11.738l6.245-1.931zm-6.245.297v-12.926l6.245-1.486v12.629l-6.245 1.783zm13.978-2.675v11.886l-6.246 1.783v-11.886l6.246-1.783zm-6.246.298v-12.481l6.246-1.486v12.035l-6.246 1.932zm-38.809-200.874h-71.968v-9.36h71.968v9.36zm0 1.486v9.36h-71.968v-9.36h71.968zm0 10.846v9.36h-71.968v-9.36h71.968zm0 10.846v9.36h-71.968v-9.36h71.968zm0 10.846v9.36h-71.968v-9.36h71.968zm0 10.846v9.36h-71.968v-9.36h71.968zm0 10.846v9.36h-71.968v-9.36h71.968zm0 10.994v9.36h-68.399v-2.377h-3.569v-7.131l71.968.148zm-69.886 8.469v20.503l-15.465.446v-20.949h15.465zm0 21.989v.594h-6.543l-8.922.298v-.446l15.465-.446zm-6.394 1.932h13.382l-26.17 1.188v.149h-28.698l31.077-1.04h1.487l8.922-.297zm-25.278-.595v-.594l14.72-.446v.446l-14.72.594zm14.72-2.525l-14.72.445v-21.543l14.72.148v20.95zm-1.933-39.521l-16.059-.446v-15.601l4.015.298c.149.148.297.297.595.297.148 0 .446-.149.595-.297l10.854.891v14.858zm0 1.485v15.601l-16.059-.149v-16.046l16.059.594zm-14.274 16.938v21.543l-14.721.446v-21.989h14.721zm-3.123-19.018l-17.1-.445v-16.492l17.1 1.337v15.6zm-6.989-32.241l-18.14-1.782v-12.629l18.14 2.228v12.183zm0 1.486v13.223l-18.14-1.337v-13.52l18.14 1.634zm-11.598 13.669v16.492l-17.1-.446V172.05l17.1 1.337zm0 18.126v16.344l-17.1-.149v-16.64l17.1.445zm-10.855 17.829v22.584l-15.464.445v-23.177l15.464.148zm-7.732-19.909l-19.181-.594v-18.423l19.181 1.485v17.532zm0 1.486v16.789H411.54v-17.235l19.181.446zm-9.07 18.275v23.177h-26.616v-23.177h26.616zm-11.598-20.206h-25.13v-18.127h25.13v18.127zm0 1.485v17.235h-25.13v-17.235h25.13zm-16.505 18.721v23.177h-24.981v-23.177h24.981zm-9.963-20.206h-26.616v-18.127h26.616v18.127zm-21.709-19.612h-18.141v-15.452h18.141v15.452zm-6.394 1.485v18.127h-23.345v-18.127h23.345zm0 19.612v17.235h-23.345v-17.235h23.345zm-13.234 18.721v23.177h-24.386v-23.177h24.386zm0 24.663v20.652h-24.386v-20.652h24.386zm0 22.138v22.88h-24.386v-22.88h24.386zm0 24.366v19.612h-24.386v-19.612h24.386zm0 21.098v19.612h-24.386v-19.612h24.386zm0 21.246v19.612h-24.386v-19.612h24.386zm0 21.098v19.612h-24.386v-19.612h24.386zm0 21.246v19.612h-24.386v-19.612h24.386zm0 21.098v19.612h-24.386v-19.612h24.386zm0 21.246v21.692l-24.386-.297v-21.395h24.386zm5.056 31.944l-44.014 8.468 9.219-11.886 4.758-5.497 30.037 8.915zm-30.929-180.519h-42.973l42.973-1.634v1.634zm-23.642 1.486v26h-27.509v-26h27.509zm-15.167 27.486v18.869h-24.238V287.79h24.238zm-13.829-1.486h-27.806v-26h27.806v26zm-11.896-43.978h-24.088V220.04l24.088.297v21.989zm-45.351-23.178v24.069h-22.899v-24.069h22.899zm0 25.407v19.612h-22.899v-19.612h22.899zm0 21.246v19.612h-22.899v-19.612h22.899zm0 21.097v19.612h-22.899v-19.612h22.899zm0 21.247v18.572h-22.899v-18.572h22.899zM162.773 130.3l-12.341-.891v-25.704l12.341 1.783V130.3zm-31.077 323.003l.595-.149 35.835-9.806 48.177 20.503-85.499 5.349-17.249-11.143 18.141-4.754zm81.782 12.183l-59.032 18.869-21.56-13.818 80.592-5.051zm82.526 188.69h.297l-127.877 86.619L39.208 694.44l256.796-40.264zm-9.517 49.624c1.041 1.486 2.826 2.526 4.759 2.526h.594l4.015 67.75-67.805-19.612-.148-.148-58.289 13.223-63.641-3.566L286.487 703.8zm3.123 70.128l-37.322-1.783-20.669-15.006 57.991 16.789zm6.245 1.783v-.743l1.784 30.16-43.121-31.349 41.337 1.932zm158.36-28.527l166.538-89.145c1.041 1.04 2.379 1.634 4.015 1.634 2.082 0 3.717-1.04 4.758-2.674l171.148 79.042-56.058 9.063-290.401 2.08zm238.358-62.699l37.025 1.932 76.28 48.881-2.527.446-110.778-51.259zm39.999 1.932l170.255 9.063-60.518 33.727-34.349 5.497-75.388-48.287zm181.259 9.063l348.689-17.829-47.58 62.253-301.109-44.424zm351.369-19.018l2.67-.297 84.61 3.566-135.01 59.133 47.73-62.402zm4.9-2.08l102.01-45.315 91 2.229-58.88 25.703v-.149l-134.13 17.532zm316.57-42.641l-58.43 8.172-21.56-9.36 79.99 1.188zm9.67.149h3.42v-.594l.74-.149 87.88 78.15-157.61-68.344 65.57-9.063zm6.25-.743l207.87-13.223-119.25 92.116-88.62-78.893zm413.07-29.121l-200.14 14.263 90.55-62.401 109.59 48.138zm-65.43-98.356l91.3 39.075-132.93 10.103-1.04-.446 42.67-48.732zm-2.08.148l-41.93 47.99-72.12-32.835 114.05-15.155zm-18.44.892l-97.84 12.926v.148l-53.97-24.663 53.82-6.24 72.72 2.823 25.27 15.006zm30.63-14.264l-55.46-2.228-1.19-.743-.3.594-64.08-2.526 78.51-12.331 42.52 17.234zm-17.99-35.658l-24.53 16.938-21.86-16.343 46.39-.595zm-4.16-1.485l-44.16.594-9.22-6.983c.15-.446.3-.892.3-1.337 0-1.783-1.49-3.269-3.28-3.269-1.78 0-3.27 1.486-3.27 3.269v.445l-6.24 2.378-22.6-12.332v-3.417l32.86 3.714-.45.149 2.38.148-.15.743 53.83 15.898zm-25.87-29.27c.59.446 1.33.743 2.08.743h.3l10.55 6.24h-27.36l14.43-6.983zm-17.7 8.469l.15-.148h32.86l8.03 4.754-47.28-1.783 6.24-2.823zm-3.42-.148l-6.09 2.822-35.39-4.16v-3.565l22.45 4.903h19.03zm57.7-29.567h-76.58l-49.07-9.063v-3.269h14.87v.298h.44l37.03 7.725v-.148h40.44v-1.635l32.87 6.092zm-20.23-87.808v82.608l-12.64-2.377v-40.116h-.74l-36.73-5.051v-35.064h50.11zm13.39-16.343h-31.68l-49.96-3.417h30.78l50.86 3.417zm-3.28-84.242h-40.89v-1.634h40.89v1.634zm-46.69-70.128h52.2v69.979h-4.02v-3.12h-43.86v3.12h-4.32v-69.979zm-1.48.149v40.71l-65.58 1.931v-37.589l65.58-5.052zm-98.89-20.058l86.1-9.211v28.823l-86.1 6.538v-26.15zm-23.93 29.418l55.76-4.308v37.589l-55.76 1.634v-34.915zm55.76 34.767v1.486h-50.86l50.86-1.486zm5.65 45.761h-67.66v-42.79h67.66v42.79zm3.12 0h-1.64v-44.275h-5.65v-1.486l65.58-1.932v27.784h-10.86v20.057h1.49V215.88h45.65v80.23l-12.79-.891v-60.173h-.74l-81.04-.743zm2.53 29.566h22.45v18.424h-13.38l-9.22-.595v-17.829h.15zm-31.38-1.485l29.89 1.337v17.68l-29.89-2.08v-16.937zm-1.49 15.006v1.931l-28.69-1.931h28.69zm-49.81.148l91 6.24v10.104h-5.05v12.777h-31.97l-.75-.149v15.452h-22.6l-.74-.148v13.817h-45.35V306.51h-.75l-67.06-6.983v-15.451l77.62 8.023v43.384h1.49v-43.384h69.14v13.669h1.49v-15.155h-.74l-65.73-5.052v-8.023zm-55.01-21.543h54.71v19.909h-1.04v9.509l-37.32-2.972h-16.35v-26.446zm16.2 27.932l85.35 6.686h-51.44l-64.69-6.686h30.78zm-66.46-30.309l48.77 2.377v26.446h-27.51l-.74-.148v16.937l-20.52-2.08v-43.532zm74.79 52.892h-80.3l-121.03-16.046h48.03l153.3 16.046zm-126.84-14.857v-64.185h40v68.345l-40-4.16zm40-120.94v55.27h-40v-55.27h40zm-28.25-26.298v24.812h-57.99l-12.64 1.04v-25.852h70.63zm-21.86-16.64v15.154h-49.51l-7.59 1.189v-16.343h57.1zm-48.32-72.654h21.11v8.618h-21.11V55.12zm0 10.104h21.11V81.27h-21.11V65.225zm0 17.531h21.11v16.046h-21.11V82.756zm0 17.532h21.11v11.292h-21.11v-11.292zm0 12.778h27.06v13.223h-36.73l-4.16.594v-13.817h12.34v.148l1.49-.148zm-1.49-57.945v8.618h-19.03V55.12h19.03zm-68.7-13.223h63.64v11.738h-56.65l-6.99 2.08V41.898zm6.25 13.52v8.47l-21.71 5.794v-8.023l21.71-6.24zm-73.61 7.28l65.73-20.503v13.818l-15.32 4.457-50.41 14.56V62.7zm-8.92 16.641l17.1-4.903v7.132l-17.1 4.606v-6.835zm0 8.172l17.1-4.606v14.263l-17.1 4.16V87.511zm0 15.303l17.1-4.16v14.263l-17.1 3.566v-13.669zm0 15.452l17.1-3.715v14.264l-17.1 3.12v-13.669zm0 15.303l17.1-3.12v66.859h-17.1v-63.739zm-2.67 65.224h18.58v10.698h-13.23l-5.35.148v-10.846zm-22.01.892l20.52-.892v10.846l-20.52.446v-10.4zm-7.14 11.886l33.75-.594v12.926l-33.75-.297v-12.035zm-8.47 13.52l45.79.297v56.31l-6.24-.742v-52.299c0-.446-.3-.743-.75-.743-.44 0-.74.297-.74.743v52.001l-4.16-.594v-51.556c0-.445-.3-.742-.75-.742-.44 0-.74.297-.74.742v51.407l-4.16-.594v-50.813c0-.445-.3-.742-.75-.742-.44 0-.74.297-.74.742v29.121h-.45l-3.71-.148v-28.973c0-.445-.3-.742-.75-.742-.44 0-.74.297-.74.742v28.824l-4.16-.297v-28.824c0-.445-.3-.743-.75-.743-.44 0-.74.298-.74.743v28.824l-4.16-.297v-28.675c0-.446-.3-.743-.75-.743-.44 0-.74.297-.74.743v28.675l-4.16-.297v-28.378c0-.446-.3-.743-.75-.743-.44 0-.74.297-.74.743v28.229l-4.16-.297v-30.904zm-9.52 31.944l11 .594h-16.8l-7.44-.594h13.24zm-13.38-116.78v18.869h-21.12v-18.869h21.12zm-34.65-35.51h15.76v15.304h-15.76v-15.304zm0 16.938h15.76v17.086h-15.76v-17.086zm-16.65-16.938h15.16v15.304h-15.16v-15.304zm0 16.938h15.16v17.086h-7.58l-7.58 1.783v-18.869zm7.73 18.572h21.11v18.869h-20.37v-18.721h-1.48v18.869l-21.71 3.566v-17.532l22.45-5.051zm-19.33-31.795l10.11-3.417v15.303l-10.11 2.08V108.46zm0 15.303l10.11-2.08v19.018l-10.11 2.377v-19.315zm-9.37-12.183l7.88-2.674v13.668l-7.88 1.635V111.58zm0 14.115l7.88-1.635v19.315l-7.88 1.783v-19.463zm-12.34 23.92l17.1-3.863v17.383l-17.1 2.823v-16.343zm0 17.829l17.1-2.823v13.223h-17.1v-10.4zm-18.14 11.886h19.33v18.126h-19.33V179.33zm0 19.612h19.33v18.126h-19.33v-18.126zm0 19.612h16.65v85.728l-16.65-4.457v-81.271zm-1.49-78.299v17.977h-20.07v-17.977h20.07zm-20.07 153.478v-15.749h20.07v15.749h-20.07zm20.07 1.486v4.308l-16.06-4.308h16.06zm-20.07-18.721v-18.423h20.07v18.423h-20.07zm0-19.909v-18.423h20.07v18.275l-20.07.148zm0-19.76v-18.275h20.07v18.275h-20.07zm0-19.761v-18.126h20.07v18.126h-20.07zm0-19.612V179.33h20.07v18.126h-20.07zm0-19.612v-17.977h20.07v17.977h-20.07zm-13.83-73.099h15.76v17.532h-15.76v-17.532zm0 19.018h15.76v15.006h-15.76v-15.006zm-9.22 152.735v-18.423h21.41v18.423h-21.41zm21.56 1.486v15.749l-21.41-5.646v-10.103h21.41zm-21.56-21.395v-18.423h21.41v18.423h-21.41zm0-19.76v-18.275h21.41v18.275h-21.41zm0-19.761v-18.126h21.41v18.126h-21.41zm0-19.612V179.33h21.41v18.126h-21.41zm0-19.612v-17.977h21.41v17.977h-21.41zm0-19.463v-18.126h21.41v17.977h-21.41v.149zm-7.29-53.636h15.02v17.532h-15.17v-17.532h.15zm0 19.018h15.02v15.006h-8.47l-.6.149h-.15l-5.95 1.783v-16.938h.15zm5.8 16.789v17.829l-21.71 4.754v-16.343l21.71-6.24zm-21.56 112.917V236.68l21.71 1.486v18.275l-21.71-2.972zm21.56 4.606v18.423l-21.71-4.606v-16.789l21.71 2.972zm-21.56-22.732v-16.64l21.71-.149v18.275l-21.71-1.486zm0-18.126v-16.641l21.71-1.634v18.126l-21.71.149zm0-18.126v-16.492l21.71-3.269v18.126l-21.71 1.635zm0-17.978v-16.492l21.71-4.754v17.977l-21.71 3.269zm4.02-71.613l10.11-4.309v17.235l-10.11 3.269V109.5zm0 17.68l10.11-3.268v17.234l-10.11 2.972V127.18zm-9.37-13.669l7.88-3.417v15.898l-7.88 2.525v-15.006zm0 16.641l7.88-2.526v16.938l-7.88 2.228v-16.64zm-13.23 21.989l17.09-4.903v16.195l-17.09 3.714v-15.006zm0 16.64l17.09-3.714v16.343l-17.09 2.526v-15.155zm0 16.492l17.09-2.526v16.344l-17.09 1.337v-15.155zm0 16.789l17.09-1.337v16.492l-17.09.148v-15.303zm0 16.641l17.09-.149v16.492l-17.09-1.189v-15.154zm0 16.789l17.09 1.188v16.641l-17.09-2.378v-15.451zm0 16.937l17.09 2.377v16.641l-17.09-3.715v-15.303zm0 16.938l17.09 3.714v8.32h1.49v-8.023l21.71 4.606v9.657l-35.39-9.36h-4.9v-8.914zm-68.55-52.447h49.36v61.361h-3.86V221.08c0-.446-.3-.743-.75-.743-.44 0-.74.297-.74.743v57.201h-3.42V221.08c0-.446-.3-.743-.74-.743-.45 0-.75.297-.75.743v57.201h-3.42V221.08c0-.446-.29-.743-.74-.743s-.74.297-.74.743v57.201H1100V221.08c0-.446-.3-.743-.75-.743-.44 0-.74.297-.74.743v57.201h-3.42V221.08c0-.446-.3-.743-.74-.743-.45 0-.75.297-.75.743v57.201h-3.42V221.08c0-.446-.29-.743-.74-.743s-.74.297-.74.743v57.201h-3.42V221.08c0-.446-.3-.743-.75-.743-.44 0-.74.297-.74.743v57.201h-3.42V221.08c0-.446-.3-.743-.74-.743-.45 0-.75.297-.75.743v57.201h-3.42V221.08c0-.446-.3-.743-.74-.743-.45 0-.74.297-.74.743v57.201h-4.47V216.92h-.29zm73.15 62.847l104.54 27.783h-32.86l-70.04-21.543h-85.05l-10.11-6.092h93.52v-.148zm-99.62-62.55l24.98-.297v61.361h-4.31V221.08c0-.446-.3-.743-.75-.743-.44 0-.74.297-.74.743v57.201h-1.19v-10.697h-.74V221.08c0-.446-.3-.743-.75-.743-.44 0-.74.297-.74.743v46.058l-1.93-.594v-45.316c0-.445-.3-.743-.75-.743-.44 0-.74.298-.74.743v44.721l-1.93-.594V221.08c0-.446-.3-.743-.75-.743-.44 0-.74.297-.74.743v43.681l-2.08-.743c0-.149.15-.297.15-.446v-42.641c0-.446-.3-.743-.75-.743-.44 0-.74.297-.74.743v42.641l-1.93-.594v-42.047c0-.446-.3-.743-.75-.743-.44 0-.74.297-.74.743v41.453l-2.08-.743v-44.424zm-3.72 45.018l5.95 1.932c.15.148.3.297.59.297h.3l9.52 3.12h-37.32l-12.05-5.349h33.01zm-35.54.446l13.83 6.24v4.309l-13.83-7.132v-3.417zm0 5.051l13.83 7.132v6.24l-13.83-8.172v-5.2zm0 6.983l13.83 8.172v6.24l-13.83-9.212v-5.2zm0 6.835l13.83 9.211v6.092l-13.83-10.4v-4.903zm0 6.834l13.83 10.401v6.091l-13.83-11.44v-5.052zm0 6.983l13.83 11.441v-.149 6.092l-13.83-12.481v-4.903zm0 6.835l13.83 12.48.15-.149v6.092l-13.83-13.669v-4.754h-.15zm0 6.834l13.68 13.521.15-.149v6.092l-13.83-14.709v-4.755zm0 6.835l13.68 14.56.15-.149v5.943l-13.83-15.897v-4.457zm0 6.983l13.68 15.749.15-.149v5.943l-13.83-16.937v-4.606zm0 6.834l13.68 16.789.15-.148v5.943l-13.83-18.127v-4.457zm-.74 5.943l14.13 18.572-2.83 1.337v-.446h-21.262l-1.487-2.822 11.449-16.641zm-13.085 16.492l.149.297 6.096 11.738-17.1 4.605 6.692-23.623h.594l3.569 6.983zm-6.394-8.766c.149.446.446.891.744 1.189l-6.394 22.583-6.097-19.463 11.747-4.309zm-13.234 4.606l5.948 19.017-21.858-23.029 15.91 4.012zM945.8 248.12l4.164-.891v93.008c-.893.446-1.487 1.337-1.487 2.377 0 .297 0 .446.148.743l-2.825 3.714V248.12zm0 101.18l3.718-4.754c.446.445 1.04.594 1.635.594s1.041-.149 1.487-.446l21.858 22.881-31.374-14.263v-3.566h2.676v-.446zm-23.345-96.871h17.843v4.012h-17.843v-4.012zm0 8.469h17.843v4.011h-17.843v-4.011zm0 5.497h19.33v-6.983h-19.33v-1.486h19.33v-6.983h-19.33v-2.674h21.858v99.991h-1.189v-74.733h-1.339v-5.646h-19.33v-1.486zm0 2.823h17.843v4.16h-17.843v-4.16zm0 5.795h16.505l-8.327 4.308h-8.178v-4.308zm0 5.794h7.583v87.065h-7.583v-87.065zm0 88.551h8.178l11.747 18.126-19.925-7.132v-10.994zm3.569 65.076l-40.594-5.052 11.003-14.412v-7.28h5.502l10.706-13.966 6.394-8.32 1.933-2.526 5.056 51.556zm-28.698-28.378V229.994h3.717v176.062h-3.717zm5.501-176.062l2.082-.148V401.45l-2.528 3.269V229.994h.446zm3.718 169.524V229.697l1.635-.148V397.29l-1.635 2.228zm3.122-4.16V229.4l1.636-.149v163.73l-1.636 2.377zm3.123-4.16V229.251l1.635-.148V388.97l-1.635 2.228zm3.271-4.16V228.954l1.636-.148v156.003l-1.636 2.229zm4.907-7.28v.891l-1.784 2.229V228.806l1.784-.149v151.101zm-17.992-177.25l17.397 24.663-18.14 1.189-11.45-27.338 12.193 1.486zm-25.724-36.995l5.65 1.634v23.178l-5.65-.892v-23.92zm0 25.555l5.65.891v7.726h-5.65v-8.617zm0 10.251v-.297h12.044l11.45 27.486h-43.717l19.479-27.189h.744zm-9.963-38.778l8.327 2.526v24.218l-8.327-1.338v-25.406zm0 26.892l8.327 1.337v9.212l-8.327 11.737v-22.286zm-1.487-27.338v25.704l-10.111-1.486v-27.189l10.111 2.971zm-14.423-32.24l6.84 2.971v12.332l-6.84-2.823v-12.48zm0 13.966l6.84 2.823v11.737l-2.379-.743v-.148h-4.312v-13.669h-.149zm-10.557-18.572l9.07 3.863v12.48l-9.07-3.714v-12.629zm0 14.114l9.07 3.715v14.114h-1.487l-6.543-1.931v.297h-1.04v-16.195zm-13.383-16.64l4.461 1.932v30.903h1.487v-30.755h5.948v30.755h-11.896v-32.835zm14.423 34.321v28.378h-24.237v-28.378h24.237zm-34.199-34.767h18.289v13.075h-18.289v-13.075zm0 14.561h18.289v18.869h-18.289v-18.869zm-16.059-14.561h14.423v13.075h-14.423v-13.075zm0 14.561h14.423v18.869h-14.423v-18.869zm-16.654 20.206h19.479v28.378H774.95v-28.378zm0 29.863h19.479v68.345H774.95v-68.345zm21.412 69.831l-17.695 2.674h-28.995l19.033-2.674h27.657zm-43.122 0h4.61l-19.033 2.674h-5.204l19.627-2.674zm-32.266-74.585v12.035l16.356 1.188v61.808l-10.706 1.485v-41.898l-19.033-.149v44.573l-1.933.297h-.743V395.21v-.149l-20.669 10.698V191.513l20.669 1.635v-12.926l16.059 1.931zm-26.766 8.617v-10.548h9.517v11.291l-9.517-.743zm22.602-20.949v10.252l-11.895-1.486-1.041-.148v.148h-9.517v-12.183l22.453 3.417zm-35.835-78.002l28.4 75.477-15.018-2.229v-.149H683.8l-12.193-76.962 9.368 3.863zm-20.966-4.457h9.962l12.193 77.111-11.301-3.269v.297h-34.051l23.197-74.139zm22.304 78.745v23.772h-9.963v-26.595l9.963 2.823zm-51.3-3.12h39.85v14.56l-9.219-1.188v-.149h-30.631v-13.223zm39.85 16.046v10.846h-9.219v-12.183l9.219 1.337zm-60.667 15.155h15.315v-16.344h34.498v13.669h22.304v.297h.595v214.394H667.89v-61.51h-12.193v-128.22l-27.509-.149v128.369h1.487v-23.772l16.505-3.714v27.486h-18.884v-26.446h-17.1v-124.06zm-1.487-72.208v8.469l-33.159-6.537V114.7l33.159 7.28zm-46.541-26.298l9.219 2.526c.148.149.297.297.594.297.149 0 .149 0 .298-.148l27.211 7.577v12.183l-23.94-5.2v-.891h-13.382V95.682zm11.895 17.978v10.252h-71.968V113.66h71.968zm-13.382-18.126v16.64h-48.624v-16.64h48.624zM435.48 7.28h92.785v86.768h-13.382V12.926c0-.446-.298-.743-.744-.743s-.743.297-.743.743v81.122h-2.826v18.126h-9.07V12.926c0-.446-.297-.743-.743-.743-.447 0-.744.297-.744.743v195.376l-11.896-.148V12.926c0-.446-.297-.743-.743-.743s-.743.297-.743.743v161.947l-11.896-.892V12.926c0-.446-.297-.743-.743-.743-.447 0-.744.297-.744.743v160.907l-10.706-.892v-28.08l-1.19-.149V12.926c0-.446-.297-.743-.743-.743s-.744.297-.744.743v131.638l-11.895-1.486V12.926c0-.446-.298-.743-.744-.743s-.743.297-.743.743v129.855l-10.855-1.338V7.28h-.148zm-13.829 133.866l19.628 2.526v12.629l-19.628-1.931v-13.224zm0 14.709l19.628 1.932v13.52l-19.628-1.486v-13.966zm-20.074-17.234l18.587 2.377v13.223l-18.587-1.783v-13.817zm0 15.303l18.587 1.783v13.966l-10.26-.743v.446h-8.327v-15.452zm-17.992-15.303h16.505v13.817h-16.505v-13.817zm0 15.303h16.505v15.452h-16.505v-15.452zm-20.222-15.303h18.586v13.817h-18.586v-13.817zm0 15.303h18.586v15.452h-18.586v-15.452zm-1.487-1.486h-18.141v-13.817h18.141v13.817zm-6.84-15.303h-12.788v32.241H330.65v38.332h-14.275v47.99l-63.047 2.377v-13.52h24.089v12.331h1.487V127.477l76.132 9.658zM298.829 60.47V39.818l19.33 5.646-.297 18.869 13.382 2.823v65.373l-53.827-6.834v-69.83l21.412 4.605zm-1.487-20.8v18.869l-19.776-4.16v-.15h-3.42V39.67h23.196zm-21.263 16.046v69.979h-5.205v-69.98h5.205zM269.685 1.93l24.534 7.132v29.12h-20.668l-3.717-.89V1.93h-.149zm-16.951 33.133l19.776 4.606v14.709h-2.379l-4.61-1.04v-.15h-12.787V35.065zm16.653 20.503v70.128h-3.866v-70.87l3.866.742zm-65.277-.297h11.153V34.767h35.984v19.76h12.787v71.168H204.11V55.27zm73.307 72.059v14.114h-93.826v-14.114h93.826zM189.39 109.35v16.492h-7.138v5.795l-5.204-.446V107.42l12.342 1.931zm-46.839-22.583l37.173 5.646v13.966l-30.779-4.457v.148h-6.394V86.768zm-40.891 0h39.255v15.452H101.66V86.768zm27.062 16.937v25.555h-18.438v-25.555h18.438zM108.797 277.24H91.102V130.746h17.695v146.495zm0-147.981H91.102v-25.555h17.695v25.555zm1.487 147.981V130.746h18.438v146.347h-18.438v.148zm-4.312 3.269l24.832-1.783v45.018l-24.832 2.674V280.51zm0 47.544l24.832-2.675v37.887l-24.832 3.714v-38.926zm0 40.264l24.832-3.715v38.778l-24.832 4.16v-39.223zm0 40.858l24.832-4.16v47.098l-19.033 4.903h-.149v.149l-5.65 1.485v-49.475zm0 50.812l5.65-1.485 16.505 10.697H95.563l-9.219-4.16 18.141-4.754h1.487v-.298zm-33.903-177.1l32.416-2.229v46.059l-32.416 3.565v-47.395zm0 48.881l32.416-3.566v38.778l-32.416 4.755v-39.967zm0 41.601l32.416-4.754v39.372l-32.416 5.497v-40.115zm0 41.601l32.416-5.497V458.8L84.114 464l-12.045-5.497V414.97zm0 45.316l9.814 4.457-9.814 2.526v-6.983zM35.342 282.887h35.24v47.544h-35.24v-47.544zm0 49.03h35.24v40.115h-35.24v-40.115zm0 41.601h35.24v40.115h-35.24v-40.115zm0 41.601h35.24v42.789l-7.286-3.268c.15-.446.298-.892.298-1.337 0-1.783-1.487-3.269-3.272-3.269-1.784 0-3.27 1.486-3.27 3.269 0 .594.148 1.04.445 1.485l-20.222 12.481H35.49v-52.15h-.148zm22.899 40.858c.595.446 1.19.594 1.933.594.743 0 1.487-.297 2.082-.743l8.326 3.715v7.726h-30.63l18.289-11.292zm-35.092 21.841l14.423-8.915H72.07v-.149l11.896-3.12 8.624 3.863-69.44 8.321zm72.117-6.984l27.36 24.515-14.126 4.903-66.913-1.931 53.679-27.487zM-4.062 505.75l89.217-31.498-46.84 24.069-42.377 7.429zm44.46-5.943l64.087 1.931-.446.149h4.312l94.57 20.652-128.472-13.521c-.298-2.823-2.677-5.2-5.65-5.2a5.646 5.646 0 0 0-5.651 5.646c0 .297 0 .594.148.891l-7.88 4.012-15.019-14.56zm23.196 12.034c.892 1.932 2.825 3.417 5.204 3.417 1.636 0 3.123-.742 4.164-1.931l47.433 30.309-140.665 9.955 83.864-41.75zm-81.782 44.424L171.1 583.009l-66.615 23.475.297-.298-1.487.595-121.483-50.516zm-70.928 74.882l45.352-61.51 37.471 80.825-82.823-19.315zm46.84-61.807l142.003 38.926-.892.298h.148L-4.954 650.016l-37.323-80.676zm54.273 127.18L-4.36 651.353l102.748-41.007-86.391 86.174zm20.817-4.309l1.487 1.635-20.52 3.268 88.176-87.808 191.816 43.83L36.234 693.4l-3.42-1.189zm-134.569 37.738l95.462-31.2L98.24 763.082l-199.995-33.133zm139.922-34.32l129.067 46.355-64.98 21.692-64.087-68.047zM-9.861 807.951l111.967-42.641 3.568.595-.743-.446 59.478 3.417-173.824 39.521-.446-.446zm106.316 93.9L-7.036 810.477 404.7 888.182 96.455 901.851zM-6.144 809.14l175.757-39.967 4.907.297.149-1.485 52.787-12.035 24.088 17.532v.148h.149l62.154 45.316v.446l.744.148 93.38 67.899L-6.144 809.14zm417.535 78.745l-93.529-68.048 307.501 41.304-213.972 26.744zM319.2 818.5l179.624-34.469 1.338.743-1.785.297.298 1.486 3.569-.595 125.349 73.991L319.2 818.5zm311.813 41.75l-126.539-74.733 50.854-8.321 32.118-3.714-.149-1.337 157.468-25.555h.595v-.149l57.693-9.36h.149v-.149l38.958-6.388.149.148.446-.297 90.703-14.709v.297L631.013 860.25zm4.164-.297l298.728-142.187c.892 2.08 2.825 3.715 5.353 3.715 2.676 0 4.907-1.783 5.501-4.309l217.541 93.751-527.123 49.03zm530.093-49.476l-99.32-42.789 149.43-26.298h.15l251.3-110.094h.15l12.34-5.349c1.04 1.188 2.67 2.08 4.31 2.08 2.38 0 4.46-1.486 5.2-3.566l38.37 16.641.15.594.89-.149 158.8 68.939h-.89l-335.45-18.423c-.45-2.675-2.83-4.903-5.65-4.903a5.64 5.64 0 0 0-5.65 5.646c0 .445 0 .891.14 1.188l-174.27 116.483zm272.26-89.145l-86.83-27.486v-.297l319.99 17.68-233.16 9.954v.149zm-269.73 89.145l172.34-114.997c.89 1.783 2.82 2.972 5.05 2.972s4.32-1.338 5.21-3.269l351.81 111.728-534.41 3.566zm538.87-3.714l-265.57-84.242 244.75-10.549h.45l-.89.297 2.38-.297 7.43.446h-.15l116.73 5.348c0 .297-.15.743-.15 1.04 0 .595.15 1.337.3 1.932l-105.28 86.025zm265.87 71.167l-264.23-70.573 104.38-85.282c1.04 1.486 2.68 2.526 4.76 2.526 1.63 0 3.12-.743 4.16-1.932l150.93 155.261zm-91.75-135.352l-57.54-23.772c0-3.12-2.53-5.646-5.65-5.646-2.23 0-4.17 1.338-5.06 3.121l-114.49-5.201 361.92-35.658-179.18 67.156zm-183.78-32.835l257.09-93.899 108.7 57.944-365.79 35.955z" fill="#0080FF"/></svg>