<svg width="65" height="65" viewBox="0 0 65 65" fill="none" xmlns="http://www.w3.org/2000/svg"><circle opacity=".9" cx="32.499" cy="32.5" r="32.5" fill="#fff"/><circle cx="32.499" cy="32.5" r="27" stroke="#0080FF" stroke-opacity=".25" stroke-linejoin="round" stroke-dasharray="3 3"/><path d="M24.939 20.322c2.005-2.005 4.42-3.008 7.246-3.008 2.825 0 5.24 1.003 7.246 3.008 2.005 1.96 3.008 4.352 3.008 7.178 0 1.413-.365 3.053-1.094 4.922a28.227 28.227 0 0 1-2.53 5.127 125.222 125.222 0 0 1-3.007 4.443c-1.003 1.367-1.846 2.461-2.53 3.281l-1.093 1.162a19.41 19.41 0 0 1-1.094-1.23c-.456-.547-1.276-1.595-2.461-3.145a89.808 89.808 0 0 1-3.076-4.58c-.912-1.503-1.732-3.19-2.461-5.058-.73-1.869-1.094-3.51-1.094-4.922 0-2.826.98-5.218 2.94-7.178zm4.648 9.776a3.67 3.67 0 0 0 2.598 1.025 3.67 3.67 0 0 0 2.597-1.025c.73-.73 1.094-1.595 1.094-2.598s-.365-1.846-1.094-2.53c-.729-.729-1.595-1.093-2.597-1.093-1.003 0-1.869.364-2.598 1.094-.684.683-1.026 1.526-1.026 2.529a3.67 3.67 0 0 0 1.026 2.598z" fill="url(#a)"/><defs><linearGradient id="a" x1="32.499" y1="14" x2="32.499" y2="49" gradientUnits="userSpaceOnUse"><stop stop-color="#0AF"/><stop offset="1" stop-color="#0080FF"/></linearGradient></defs></svg>