<svg id="color_1_" xmlns="http://www.w3.org/2000/svg" viewBox="0 0 100 100"><style>.st0,.st1{fill-rule:evenodd;clip-rule:evenodd;fill:#38aae2}.st1{fill:#191919}</style><circle class="st0" cx="50" cy="50" r="25.8" id="color"/><path class="st1" d="M50 14.5c-19.6 0-35.5 15.9-35.5 35.5S30.4 85.5 50 85.5 85.5 69.6 85.5 50 69.6 14.5 50 14.5zm0 67.8c-17.8 0-32.3-14.5-32.3-32.3 0-17.8 14.5-32.3 32.3-32.3 17.8 0 32.3 14.5 32.3 32.3 0 17.8-14.5 32.3-32.3 32.3zm-1.6-33.9h-21v3.2h24.2V27.4h-3.2v21zM50 21c-.9 0-1.6.7-1.6 1.6 0 .9.7 1.6 1.6 1.6s1.6-.7 1.6-1.6c0-.9-.7-1.6-1.6-1.6zm0 54.8c-.9 0-1.6.7-1.6 1.6 0 .9.7 1.6 1.6 1.6s1.6-.7 1.6-1.6c0-.9-.7-1.6-1.6-1.6zm27.4-24.2c.9 0 1.6-.7 1.6-1.6 0-.9-.7-1.6-1.6-1.6s-1.6.7-1.6 1.6c0 .9.7 1.6 1.6 1.6zm-54.8-3.2c-.9 0-1.6.7-1.6 1.6 0 .9.7 1.6 1.6 1.6.9 0 1.6-.7 1.6-1.6 0-.9-.7-1.6-1.6-1.6zM11.4 68.8l-1.9 4.7C5.4 66.3 3.2 58.3 3.2 50c0-25.8 21-46.8 46.8-46.8 10.7 0 21.1 3.7 29.4 10.4l2-2.5C72.6 3.9 61.4 0 50 0 22.4 0 0 22.4 0 50c0 8.9 2.4 17.6 6.9 25.2l-4.9-1-.6 3.2 9.4 1.9 3.7-9.3-3.1-1.2zm3.1 11.8c-.9 0-1.6.7-1.6 1.6 0 .9.7 1.6 1.6 1.6.9 0 1.6-.7 1.6-1.6 0-.8-.7-1.6-1.6-1.6zm78.6-55.8l4.9 1 .6-3.2-9.4-1.9-3.6 9.3 3 1.2 1.9-4.7c4.1 7.1 6.3 15.1 6.3 23.4 0 25.8-21 46.8-46.8 46.8-10.7 0-21.1-3.7-29.4-10.4l-2 2.5C27.4 96 38.6 100 50 100c27.6 0 50-22.4 50-50 0-8.9-2.4-17.6-6.9-25.2zm-7.6-5.4c.9 0 1.6-.7 1.6-1.6 0-.9-.7-1.6-1.6-1.6-.9 0-1.6.7-1.6 1.6 0 .8.7 1.6 1.6 1.6z" id="icon"/></svg>