<svg xmlns="http://www.w3.org/2000/svg" width="31" height="32" viewBox="0 0 31 32"><defs><style>.cls-1{fill:#fff;fill-rule:evenodd;opacity:.8}</style></defs><path id="icon" class="cls-1" d="M27.841 24.146l-.112-.032a17.224 17.224 0 0 1-2.9-1.151c-2.564-.995-3.231-1.713-3.4-2.051l-.016-.037-.013-2.284a11.431 11.431 0 0 0 2.352-6.622 11.682 11.682 0 0 0-1.288-7.8V4.15h-.011a10.332 10.332 0 0 0-1.92-2.373A8.748 8.748 0 0 0 15.044 0a9.589 9.589 0 0 0-5.555 1.778c-3.646 2.544-3.278 8.96-3.278 8.96a6.824 6.824 0 0 0 .714.127q-.05.539-.051 1.1a11.431 11.431 0 0 0 2.352 6.622l-.016 2.287c-.01.012-.01.026-.016.037-.171.339-.838 1.057-3.4 2.051a17.231 17.231 0 0 1-2.9 1.151l-.112.032a3.65 3.65 0 0 0-2.472 3.47V32h30v-4.384a3.651 3.651 0 0 0-2.469-3.47zm-6.008-18.32a9.806 9.806 0 0 1 .72 2.7c.018.149.034.295.045.438a5.4 5.4 0 0 0-.7-1.043 3.939 3.939 0 0 0-.958-.811 3.039 3.039 0 0 1 .893-1.284zM7.778 7.408a9.943 9.943 0 0 1 .841-2.579 5.141 5.141 0 0 1 1.609-1.951 8.282 8.282 0 0 1 4.816-1.542 7.532 7.532 0 0 1 4.612 1.431 9.086 9.086 0 0 1 1.558 1.875 4.2 4.2 0 0 0-1.507 2.008 3.838 3.838 0 0 0-.662-.057 6.458 6.458 0 0 0-3.218 1.028A14.381 14.381 0 0 1 8.6 9.638c-.411 0-.773-.02-1.073-.048a15.182 15.182 0 0 1 .251-2.182zm4.48 23.255H1.62v-3.047a2.32 2.32 0 0 1 1.554-2.2l.073-.016a12.487 12.487 0 0 0 2.443-.931c.21-.1.391-.191.567-.26a13.63 13.63 0 0 0 3.059-1.55l2.779 1.48.48-.414.338 1.722zm-1.981-9c.029-.048.056-.1.081-.145a1.172 1.172 0 0 0 .049-.108l.109-.246v-.282l.006-.77a11.05 11.05 0 0 0 2.2 1.738l-.8.689zm5.036 9h-1.736L14.164 26h2.3l.663 4.665h-1.814zm-1.6-7.924l.318-.275a4.048 4.048 0 0 0 1.278.23 4.146 4.146 0 0 0 1.349-.255l.261.226-.392 2h-2.432zm1.6-1.379a4.209 4.209 0 0 1-2.006-.7 10.442 10.442 0 0 1-2.434-2.111 10.415 10.415 0 0 1-2.691-6.577q0-.511.048-1h.367a15.644 15.644 0 0 0 7.879-2.192 5.25 5.25 0 0 1 2.569-.853c1.648 0 2.394 1.425 2.843 2.713a2.547 2.547 0 0 0 .547.954c0 .124.008.249.008.375a10.415 10.415 0 0 1-2.691 6.577 10.415 10.415 0 0 1-2.434 2.111 4.21 4.21 0 0 1-2.005.703zm5.06.344l-1.573.836-.84-.724a11.145 11.145 0 0 0 2.136-1.7l.006.77v.282l.108.246c.01.022.026.061.05.108.04.06.075.122.113.178zm4.15 8.959H20.6m-1.308 0h-.847l-.738-5.194.358-1.82.567.488 2.72-1.45a13.82 13.82 0 0 0 3.018 1.521c.175.067.356.157.566.259a12.485 12.485 0 0 0 2.443.931l.073.021A2.319 2.319 0 0 1 29 27.616v3.047h-3.168"/></svg>