<svg id="color_1_" xmlns="http://www.w3.org/2000/svg" viewBox="0 0 100 100"><style>.st0,.st1{fill-rule:evenodd;clip-rule:evenodd;fill:#38aae2}.st1{fill:#191919}</style><path class="st0" d="M82.1 11.1c-1.8 0-3.2-1.4-3.2-3.2V6.2H53.2v1.6c0 1.8-1.4 3.2-3.2 3.2h-1.6v35.6h35.4V11.1h-1.7zM56.4 45c0-5.4 4.3-9.7 9.7-9.7 5.3 0 9.7 4.3 9.7 9.7H56.4z" id="color"/><path class="st1" d="M91.9 37.1h-1.6V0H41.9v37.1h-1.6c-4.4 0-8.1 3.6-8.1 8.1v16.1H6c-3.3 0-6 2.7-6 6V94c0 3.3 2.7 6 6 6h85.9c4.4 0 8.1-3.6 8.1-8.1V45.2c0-4.5-3.6-8.1-8.1-8.1zM45.2 3.2h41.9v40.3h-9.8c-.8-5.5-5.5-9.7-11.2-9.7-5.7 0-10.4 4.2-11.2 9.7h-9.8V3.2zM74 43.5H58.2c.7-3.7 4-6.5 7.9-6.5s7.2 2.9 7.9 6.5zM51.6 94c0 1.5-1.3 2.8-2.8 2.8H6c-1.5 0-2.8-1.3-2.8-2.8v-.4h48.4v.4zm0-3.7H3.2v-3.2h48.4v3.2zm0-6.4H3.2V67.3c0-1.5 1.3-2.8 2.8-2.8h42.8c1.5 0 2.8 1.3 2.8 2.8v16.6zm45.2-3.3H74.2c-2.7 0-4.8-2.2-4.8-4.8s2.2-4.8 4.8-4.8h22.6v9.6zm0-12.9H74.2c-4.4 0-8.1 3.6-8.1 8.1 0 4.4 3.6 8.1 8.1 8.1h22.6V92c0 2.7-2.2 4.8-4.8 4.8H54.1c.4-.8.7-1.8.7-2.8V67.3c0-3.3-2.7-6-6-6H35.5v-9.7c1.4 1 3 1.7 4.8 1.7h51.6c2.7 0 4.8 2.2 4.8 4.8v9.6zm0-16c-1.4-1-3-1.7-4.8-1.7H40.3c-2.7 0-4.8-2.2-4.8-4.8 0-2.7 2.2-4.8 4.8-4.8h1.6v3.2h-1.6v3.2h51.6v-3.2h-1.6v-3.2h1.6c2.7 0 4.8 2.2 4.8 4.8v6.5zM72.6 75.8c0 .9.7 1.6 1.6 1.6.9 0 1.6-.7 1.6-1.6 0-.9-.7-1.6-1.6-1.6-.9 0-1.6.7-1.6 1.6zM6.5 71h11.3v-3.2H6.5V71zm3.2 6.4h8.1v-3.2H9.7v3.2zm6.4-54.8h-3.2c-.9 0-1.6-.7-1.6-1.6H8.1c0 2.7 2.2 4.8 4.8 4.8v1.6h3.2v-1.6c2.7 0 4.8-2.2 4.8-4.8 0-2.7-2.2-4.8-4.8-4.8h-3.2c-.9 0-1.6-.7-1.6-1.6 0-.9.7-1.6 1.6-1.6h3.2c.9 0 1.6.7 1.6 1.6H21c0-2.7-2.2-4.8-4.8-4.8V8.1H13v1.6c-2.7 0-4.8 2.2-4.8 4.8 0 2.7 2.2 4.8 4.8 4.8h3.2c.9 0 1.6.7 1.6 1.6-.1 1-.8 1.7-1.7 1.7zm-1.6 35.5c8 0 14.5-6.5 14.5-14.5 0-2.2-.5-4.4-1.5-6.4 1-2 1.5-4.2 1.5-6.5 0-2.2-.5-4.4-1.5-6.4 1-2 1.5-4.1 1.5-6.5 0-8-6.5-14.5-14.5-14.5C6.5 3.2 0 9.7 0 17.7c0 2.3.6 4.5 1.5 6.5-1 2-1.5 4.2-1.5 6.4 0 2.3.6 4.5 1.5 6.5-1 2-1.5 4.2-1.5 6.4 0 8.1 6.5 14.6 14.5 14.6zm0-51.6c6.2 0 11.3 5.1 11.3 11.3C25.8 24 20.7 29 14.5 29 8.3 29 3.2 24 3.2 17.7c0-6.2 5.1-11.2 11.3-11.2zM3.7 27.4c2.7 3 6.5 4.8 10.8 4.8h1.6c.9 0 1.6.7 1.6 1.6 0 .9-.7 1.6-1.6 1.6h-3.2c-.9 0-1.6-.7-1.6-1.6H8.1c0 2.7 2.2 4.8 4.8 4.8v1.6h3.2v-1.6c2.7 0 4.8-2.2 4.8-4.8 0-1-.3-2-.9-2.7 2-.8 3.8-2.1 5.2-3.7.3 1 .5 2.1.5 3.2 0 6.2-5.1 11.3-11.3 11.3-6.2 0-11.3-5.1-11.3-11.3.1-1.1.3-2.1.6-3.2zm0 12.9c2.7 3 6.5 4.8 10.8 4.8h1.6c.9 0 1.6.7 1.6 1.6 0 .9-.7 1.6-1.6 1.6h-3.2c-.9 0-1.6-.7-1.6-1.6H8.1c0 2.7 2.2 4.8 4.8 4.8v1.6h3.2v-1.6c2.7 0 4.8-2.2 4.8-4.8 0-1-.3-2-.9-2.7 2-.8 3.8-2.1 5.2-3.7.3 1 .5 2.1.5 3.2 0 6.2-5.1 11.3-11.3 11.3-6.2 0-11.3-5.1-11.3-11.3.1-1 .3-2.1.6-3.2z" id="icon"/></svg>