<svg xmlns="http://www.w3.org/2000/svg" width="33" height="16" viewBox="0 0 33 16"><defs><style>.cls-1{fill:#fff;fill-rule:evenodd;opacity:.8}</style></defs><path id="plane" class="cls-1" d="M32.442 3.147l-.154-.393A2.891 2.891 0 0 0 30.7 1.129c-1.252-.536-3-.375-5.063.468l-.037.014-7.974 3.783L10.409.9a.626.626 0 0 0-.561-.05l-3.4 1.341a.628.628 0 0 0-.18 1.059l5.63 4.862L6.653 10.6 4.1 9.009a.625.625 0 0 0-.56-.051l-2.322.915a.628.628 0 0 0-.18 1.06l4.578 3.954a2.55 2.55 0 0 0 2.608.444l2.538-1L30.978 6.14a2.63 2.63 0 0 0 1.368-1.16 2.143 2.143 0 0 0 .096-1.833zM7.869 2.979l2.146-.845 8.579 5.341-1.825.719-2.079-1.738a.627.627 0 0 0-.8.964l1.552 1.3-.635.25zm22.645 2L10.3 13.165l-2.532 1a1.3 1.3 0 0 1-1.331-.226l-3.793-3.278 1.063-.419 2.574 1.6a.626.626 0 0 0 .6.034l6.051-2.87 1.34 1.157a.625.625 0 0 0 .639.109l5.3-2.089a.628.628 0 0 0 .1-1.117l-1.423-.886 7.23-3.429a5.945 5.945 0 0 1 3.956-.516L27.7 3.25a.627.627 0 1 0 .49 1.155l2.91-1.239.022.048.154.394a1.059 1.059 0 0 1-.762 1.366zm-24.129.11a.627.627 0 0 0-.794-.395L1.343 6.121a.628.628 0 1 0 .4 1.19L5.99 5.879a.628.628 0 0 0 .395-.795z"/></svg>