<svg width="32" height="32" viewBox="0 0 32 32" fill="none" xmlns="http://www.w3.org/2000/svg"><rect width="32" height="32" rx="6" fill="#FE957D"/><path fill-rule="evenodd" clip-rule="evenodd" d="M15.515 22.041h1.309s.395-.044.597-.26c.186-.2.18-.576.18-.576s-.025-1.756.79-2.014c.803-.255 1.835 1.697 2.929 2.448.827.568 1.456.444 1.456.444l2.924-.042s1.53-.094.805-1.297c-.06-.098-.424-.89-2.175-2.516-1.834-1.702-1.589-1.427.62-4.37 1.346-1.794 1.883-2.889 1.715-3.358-.16-.445-1.15-.328-1.15-.328l-3.292.02s-.244-.033-.425.076c-.177.105-.29.353-.29.353s-.522 1.387-1.217 2.567c-1.466 2.49-2.053 2.622-2.292 2.468-.558-.362-.418-1.448-.418-2.221 0-2.412.366-3.419-.713-3.679-.358-.087-.622-.144-1.537-.153-1.175-.012-2.17.004-2.733.28-.374.183-.663.592-.487.615.217.029.71.133.971.489.338.459.326 1.49.326 1.49s.194 2.84-.452 3.193c-.444.242-1.053-.252-2.36-2.511-.67-1.157-1.176-2.436-1.176-2.436s-.097-.239-.271-.367c-.212-.156-.506-.204-.506-.204l-3.129.02s-.47.013-.642.218c-.154.182-.013.557-.013.557s2.45 5.732 5.224 8.62c2.544 2.649 5.432 2.474 5.432 2.474z" fill="#F7F7F7"/></svg>