<svg xmlns="http://www.w3.org/2000/svg" width="64" height="62" viewBox="0 0 64 62"><g fill="none" fill-rule="evenodd"><path stroke="#F3584A" stroke-width="4" d="M18.682 58.89A17.96 17.96 0 0 1 32 53a17.96 17.96 0 0 1 13.318 5.89A30.002 30.002 0 0 0 62 32C62 15.431 48.569 2 32 2 15.431 2 2 15.431 2 32a30.002 30.002 0 0 0 16.682 26.89z"/><circle cx="32" cy="32" r="5" stroke="#F3584A" stroke-width="4"/><path stroke="#000" stroke-width="4" d="M50.896 30c-1-9.553-9.078-17-18.896-17-9.818 0-17.897 7.447-18.896 17h37.792z"/><path fill="#F3584A" d="M43.611 10.91l3.277 2.294-10.325 14.744-3.276-2.294z"/></g></svg>