<svg xmlns="http://www.w3.org/2000/svg" width="64" height="63" viewBox="0 0 64 63"><g fill="none" fill-rule="evenodd"><path fill="#000" d="M0 59h26a4 4 0 0 1 4 4H0v-4z"/><path fill="#F3584A" d="M21 22h20v4H21z"/><path fill="#000" d="M38 59h26v4H34a4 4 0 0 1 4-4z"/><path fill="#F3584A" d="M30 42h4v10a2 2 0 1 1-4 0V42z"/><circle cx="24" cy="53" r="2" fill="#F3584A"/><circle cx="16" cy="49" r="2" fill="#F3584A"/><circle cx="40" cy="53" r="2" fill="#F3584A"/><circle cx="48" cy="49" r="2" fill="#F3584A" transform="matrix(-1 0 0 1 96 0)"/><path stroke="#F3584A" stroke-width="4" d="M22 32h20V4a2 2 0 0 0-2-2H24a2 2 0 0 0-2 2v28zm.775 0l2.21 6.632A2 2 0 0 0 26.884 40h10.234a2 2 0 0 0 1.897-1.368L41.225 32h-18.45z"/></g></svg>