<svg xmlns="http://www.w3.org/2000/svg" width="51" height="58" viewBox="0 0 51 58"><g fill="none" fill-rule="evenodd" transform="translate(-11 -4)"><g stroke="#F3584A" stroke-width="4"><path d="M54.241 23.738l-5.208 16.406-27.868-19.25 9.688-13.532 23.388 16.376z"/><path d="M31.065 27.643L13.858 52.217a2 2 0 0 0 .491 2.786l1.639 1.147a2 2 0 0 0 2.785-.491L35.98 31.084l-4.915-3.441zM40.25 13.52l4.916 3.442 1.72-2.458a2 2 0 0 0-.49-2.785l-1.64-1.147a2 2 0 0 0-2.785.49l-1.72 2.458z"/></g><circle cx="52" cy="60" r="2" fill="#000"/><circle cx="44" cy="60" r="2" fill="#000"/><circle cx="60" cy="60" r="2" fill="#000"/><circle cx="52" cy="52" r="2" fill="#000" transform="matrix(-1 0 0 1 104 0)"/></g></svg>