<svg xmlns="http://www.w3.org/2000/svg" xmlns:xlink="http://www.w3.org/1999/xlink" width="10" height="10" viewBox="0 0 10 10"><defs><path id="a" d="M.013.177V10h9.832V.177z"/></defs><g fill="none" fill-rule="evenodd"><mask id="b" fill="#fff"><use xlink:href="#a"/></mask><path fill="#F3584A" d="M9.624 7.947l-1.52-1.521c-.303-.302-.804-.293-1.118.021l-.766.766a13.453 13.453 0 0 1-.15-.084c-.485-.269-1.147-.635-1.844-1.332-.698-.7-1.066-1.363-1.334-1.847-.03-.05-.057-.1-.083-.147l.514-.513.253-.253c.313-.315.323-.816.02-1.118L2.076.4C1.773.095 1.271.104.957.418L.53.85l.01.012a2.484 2.484 0 0 0-.352.622 2.56 2.56 0 0 0-.156.632c-.202 1.664.56 3.185 2.623 5.25 2.853 2.852 5.152 2.637 5.252 2.626a2.566 2.566 0 0 0 1.253-.51l.01.008.434-.425c.313-.314.322-.815.02-1.118z" mask="url(#b)"/></g></svg>