<svg xmlns="http://www.w3.org/2000/svg" width="19" height="26" viewBox="0 0 19 26"><g fill="none" fill-rule="evenodd"><path fill="#F3584A" d="M9.5 26c5.247 0 9.5-10.698 9.5-16S14.747.4 9.5.4 0 4.698 0 10s4.253 16 9.5 16z"/><path fill="#FFF" d="M6.52 15.872a5.071 5.071 0 0 1-2.033-1.891c-.488-.807-.731-1.722-.731-2.746s.243-1.939.731-2.745A5.071 5.071 0 0 1 6.52 6.598c.868-.454 1.846-.681 2.936-.681 1.076 0 2.017.227 2.821.681a4.027 4.027 0 0 1 1.758 1.95l-2.3 1.247c-.531-.947-1.298-1.42-2.298-1.42-.773 0-1.413.255-1.92.767-.506.512-.76 1.21-.76 2.093s.254 1.581.76 2.093c.507.512 1.147.768 1.92.768 1.013 0 1.78-.474 2.299-1.42l2.299 1.266a4.107 4.107 0 0 1-1.758 1.92c-.804.461-1.745.692-2.821.692-1.09 0-2.068-.228-2.936-.682z"/></g></svg>