<svg xmlns="http://www.w3.org/2000/svg" xmlns:xlink="http://www.w3.org/1999/xlink" width="45" height="48" viewBox="0 0 45 48"><defs><path id="a" d="M6.403 48H.006V0H12.8v48z"/></defs><g fill="none" fill-rule="evenodd"><path fill="#F3584A" d="M12.8 46.4h29.6c.48 0 .8-.32.8-.8V2.4c0-.48-.32-.8-.8-.8H12.8v44.8zM42.4 48H12c-.48 0-.8-.32-.8-.8V.8c0-.48.32-.8.8-.8h30.4c1.36 0 2.4 1.04 2.4 2.4v43.2c0 1.36-1.04 2.4-2.4 2.4z"/><mask id="b" fill="#fff"><use xlink:href="#a"/></mask><path fill="#D66346" d="M5.6 1.6c-.48 0-.8.32-.8.8v43.2c0 .48.32.8.8.8h5.6V1.6H5.6zM12 48H5.6c-1.36 0-2.4-1.04-2.4-2.4V2.4C3.2 1.04 4.24 0 5.6 0H12c.48 0 .8.32.8.8v46.4c0 .48-.32.8-.8.8z" mask="url(#b)"/><path fill="#F3584A" d="M4 10.4c-2.24 0-4-1.76-4-4s1.76-4 4-4 4 1.76 4 4c0 .48-.32.8-.8.8-.48 0-.8-.32-.8-.8C6.4 5.04 5.36 4 4 4 2.64 4 1.6 5.04 1.6 6.4c0 1.36 1.04 2.4 2.4 2.4.48 0 .8.32.8.8 0 .48-.32.8-.8.8m0 8.8c-2.24 0-4-1.76-4-4s1.76-4 4-4 4 1.76 4 4c0 .48-.32.8-.8.8-.48 0-.8-.32-.8-.8 0-1.36-1.04-2.4-2.4-2.4-1.36 0-2.4 1.04-2.4 2.4 0 1.36 1.04 2.4 2.4 2.4.48 0 .8.32.8.8 0 .48-.32.8-.8.8M4 28c-2.24 0-4-1.76-4-4s1.76-4 4-4 4 1.76 4 4c0 .48-.32.8-.8.8-.48 0-.8-.32-.8-.8 0-1.36-1.04-2.4-2.4-2.4-1.36 0-2.4 1.04-2.4 2.4 0 1.36 1.04 2.4 2.4 2.4.48 0 .8.32.8.8 0 .48-.32.8-.8.8m0 8.8c-2.24 0-4-1.76-4-4s1.76-4 4-4 4 1.76 4 4c0 .48-.32.8-.8.8-.48 0-.8-.32-.8-.8 0-1.36-1.04-2.4-2.4-2.4-1.36 0-2.4 1.04-2.4 2.4 0 1.36 1.04 2.4 2.4 2.4.48 0 .8.32.8.8 0 .48-.32.8-.8.8m0 8.8c-2.24 0-4-1.76-4-4s1.76-4 4-4 4 1.76 4 4c0 .48-.32.8-.8.8-.48 0-.8-.32-.8-.8 0-1.36-1.04-2.4-2.4-2.4-1.36 0-2.4 1.04-2.4 2.4C1.6 42.96 2.64 44 4 44c.48 0 .8.32.8.8 0 .48-.32.8-.8.8" mask="url(#b)"/><path fill="#000" d="M24.8 30.4h-8c-.48 0-.8-.32-.8-.8 0-.48.32-.8.8-.8h8c.48 0 .8.32.8.8 0 .48-.32.8-.8.8m8.8 0H28c-.48 0-.8-.32-.8-.8 0-.48.32-.8.8-.8h5.6c.48 0 .8.32.8.8 0 .48-.32.8-.8.8m5.6 0h-2.4c-.48 0-.8-.32-.8-.8 0-.48.32-.8.8-.8h2.4c.48 0 .8.32.8.8 0 .48-.32.8-.8.8m0 4.8h-5.6c-.48 0-.8-.32-.8-.8 0-.48.32-.8.8-.8h5.6c.48 0 .8.32.8.8 0 .48-.32.8-.8.8m-8.8 0H24c-.48 0-.8-.32-.8-.8 0-.48.32-.8.8-.8h6.4c.48 0 .8.32.8.8 0 .48-.32.8-.8.8m-9.6 0h-4c-.48 0-.8-.32-.8-.8 0-.48.32-.8.8-.8h4c.48 0 .8.32.8.8 0 .48-.32.8-.8.8m1.6 4.8h-5.6c-.48 0-.8-.32-.8-.8 0-.48.32-.8.8-.8h5.6c.48 0 .8.32.8.8 0 .48-.32.8-.8.8m10.4 0h-7.2c-.48 0-.8-.32-.8-.8 0-.48.32-.8.8-.8h7.2c.48 0 .8.32.8.8 0 .48-.32.8-.8.8m6.4 0H36c-.48 0-.8-.32-.8-.8 0-.48.32-.8.8-.8h3.2c.48 0 .8.32.8.8 0 .48-.32.8-.8.8M22.164 14.1h.914c1.055 0 3.117-.071 3.117-3.071 0-2.414-1.383-2.579-2.836-2.579h-1.195v5.65zm2.93 4.804h-2.93v2.836c0 .234-.117.258-.258.258h-1.29c-.233 0-.257-.117-.257-.258v-2.836h-1.64c-.07 0-.235 0-.235-.258v-.75c0-.234.094-.258.234-.258h1.641v-2.015h-1.617c-.235 0-.258-.118-.258-.258v-1.008c0-.14.023-.258.258-.258h1.617V7.185c0-.14.024-.258.258-.258h2.906c1.57 0 4.477.023 4.477 4.008 0 4.594-3.89 4.688-4.758 4.688h-1.078v2.015h2.86c.327 0 .35.164.35.399v.61c0 .234-.187.257-.28.257z"/></g></svg>