<svg xmlns="http://www.w3.org/2000/svg" width="42" height="48" viewBox="0 0 42 48"><g fill="none" fill-rule="evenodd"><path fill="#F3584A" d="M19 24h1v10a1 1 0 0 1-2 0v-9a1 1 0 0 1 1-1z"/><rect width="6" height="2" x="17" y="31" fill="#F3584A" rx="1"/><path fill="#F3584A" d="M20 28h3a1 1 0 0 0 0-2h-3v-2h3a3 3 0 0 1 0 6h-3v-2z"/><path fill="#000" d="M36.53 19.29l-7.394-8.045a1.165 1.165 0 0 0-1.522-.109 1.164 1.164 0 0 0-.108 1.522l7.392 8.045c2.718 3.044 4.24 6.959 4.24 10.981v10.763c0 1.848-1.413 3.262-3.261 3.262H5.544c-1.848 0-3.261-1.414-3.261-3.262V31.793c0-4.131 1.522-8.046 4.24-10.98l7.066-7.72h6.089v4.457c-6.089.544-10.872 5.654-10.872 11.85 0 6.633 5.327 11.96 11.96 11.96A11.924 11.924 0 0 0 32.723 29.4c0-6.196-4.784-11.306-10.872-11.85v-4.457h2.175c.652 0 1.087-.435 1.087-1.087 0-.652-.435-1.087-1.087-1.087H13.155c-.327 0-.544.109-.761.326L5 19.29C1.848 22.77.108 27.227.108 31.793v10.654c0 3.045 2.392 5.436 5.436 5.436h30.442c3.044 0 5.436-2.391 5.436-5.436V31.793c0-4.566-1.74-9.024-4.893-12.503zM30.55 29.4a9.744 9.744 0 0 1-9.785 9.786A9.744 9.744 0 0 1 10.98 29.4a9.744 9.744 0 0 1 9.785-9.785A9.744 9.744 0 0 1 30.55 29.4zM31.42.482c-.218-.327-.544-.435-.87-.435H10.98c-.326 0-.652.217-.87.435-.217.217-.326.652-.108.978l2.174 6.523c.11.435.544.761.979.761.108 0 .217 0 .326-.108.544-.218.87-.761.652-1.414l-1.63-5.001h16.525L27.614 6.57h-10.11c-.653 0-1.088.435-1.088 1.087 0 .652.435 1.087 1.087 1.087h10.872c.435 0 .87-.326.979-.76l2.174-6.524c.217-.326.109-.652-.109-.978z"/></g></svg>