<svg xmlns="http://www.w3.org/2000/svg" xmlns:xlink="http://www.w3.org/1999/xlink" width="64" height="41" viewBox="0 0 64 41"><defs><path id="a" d="M.007 40.492H64V.017H.008z"/></defs><g fill="none" fill-rule="evenodd"><mask id="b" fill="#fff"><use xlink:href="#a"/></mask><path fill="#000" d="M60.86 25.67c-.626 0-1.136-.51-1.136-1.137v-1.135h2.272v2.271H60.86zm-7.482 12.826a4.347 4.347 0 0 1-4.343-4.343 4.347 4.347 0 0 1 4.343-4.342 4.347 4.347 0 0 1 4.342 4.342 4.347 4.347 0 0 1-4.342 4.343zm-35.274 0a4.347 4.347 0 0 1-4.342-4.343 4.347 4.347 0 0 1 4.342-4.342 4.347 4.347 0 0 1 4.343 4.342 4.347 4.347 0 0 1-4.343 4.343zm36.343-32.2c1.215 0 2.204.988 2.204 2.204v.067h-9.753V6.295h7.549zm-7.55 4.275h8.905l1.637 6.547H46.898V10.57zm12.623 6.607l-1.658-6.63c.453-.095.794-.498.794-.98V8.5a4.213 4.213 0 0 0-4.21-4.209h-7.548V2.087A2.073 2.073 0 0 0 44.827.016H6.347a2.073 2.073 0 0 0-2.071 2.07v18.172a1.002 1.002 0 1 0 2.004 0V2.087c0-.037.03-.067.066-.067h38.48c.038 0 .068.03.068.067v18.171a1.002 1.002 0 0 0 2.004 0v-1.136h11.826a3.279 3.279 0 0 1 3.114 2.272h-3.116c-.553 0-1.002.448-1.002 1.002v2.137a3.143 3.143 0 0 0 3.14 3.14h1.136v4.41h-2.62a6.357 6.357 0 0 0-5.998-4.276 6.356 6.356 0 0 0-5.998 4.276h-.482v-7.55a1.002 1.002 0 0 0-2.005 0v7.55h-20.79a6.357 6.357 0 0 0-5.999-4.276 6.356 6.356 0 0 0-5.997 4.275h-5.76a.067.067 0 0 1-.067-.066V29.81h4.342a1.002 1.002 0 0 0 0-2.004h-9.62a1.002 1.002 0 1 0 0 2.004h3.274v2.205c0 1.142.929 2.07 2.07 2.07h5.414l-.002.067c0 3.5 2.847 6.347 6.346 6.347 3.5 0 6.347-2.847 6.347-6.347l-.002-.066h22.584l-.002.066c0 3.5 2.847 6.347 6.347 6.347 3.5 0 6.346-2.847 6.346-6.347l-.002-.066h3.276c.553 0 1.002-.449 1.002-1.003V22.396a5.286 5.286 0 0 0-4.48-5.218z" mask="url(#b)"/><path fill="#F3584A" d="M18.104 32.082a2.073 2.073 0 0 0-2.07 2.071c0 1.142.928 2.071 2.07 2.071a2.073 2.073 0 0 0 2.071-2.07 2.073 2.073 0 0 0-2.07-2.072m35.273 0a2.073 2.073 0 0 0-2.071 2.071c0 1.142.929 2.071 2.07 2.071a2.073 2.073 0 0 0 2.072-2.07 2.073 2.073 0 0 0-2.071-2.072m-27.724-3.273c0 .553.448 1.002 1.002 1.002H41.62a1.002 1.002 0 1 0 0-2.004H26.656c-.554 0-1.002.449-1.002 1.002M3.14 25.535h12.827a1.002 1.002 0 0 0 0-2.004H3.14a1.002 1.002 0 0 0 0 2.005M33.43 9.93l-8.912 8.91-4.636-4.635a1.002 1.002 0 1 0-1.417 1.417l5.344 5.344a.998.998 0 0 0 1.417 0l9.62-9.62A1.002 1.002 0 1 0 33.43 9.93"/></g></svg>