<svg width="153" height="23" viewBox="0 0 153 23" xmlns="http://www.w3.org/2000/svg"><path d="M64.812 3l1.592 1.592h10.235L78.23 3H64.812zm17.597 7.683v10.726h-5.616V23H84V9.091l-1.591 1.592zM64 23h8.95l-1.59-1.591h-5.768V15.64L64 14.049V23zM84 0l-8.799 8.605v7.197L84 7.197V0zM64 12.046L75.201 23v-7.198L64 4.85v7.197zm26.083-2.368l.08.979c.322-.397.67-.68 1.044-.85a3.088 3.088 0 0 1 1.284-.253c.464 0 .851.064 1.164.192.312.128.61.361.896.7l-.843.707a1.756 1.756 0 0 0-1.35-.632c-.5 0-.906.09-1.218.272-.312.182-.61.46-.896.831v4.252H89V9.678h1.083zm6.728 0v6.198h-1.244V9.678h1.244zM96.196 7c.276 0 .49.076.642.23a.755.755 0 0 1 .227.551.762.762 0 0 1-.227.545c-.152.157-.366.236-.642.236-.277 0-.49-.079-.642-.236a.762.762 0 0 1-.228-.545c0-.215.076-.399.228-.552.151-.153.365-.229.642-.229zm3.17 2.678l2.327 5.219h.053l2.408-5.22h1.284l-3.05 6.199h-1.444l-2.93-6.198h1.352zm8.225 3.384c.027.339.112.634.255.886.142.252.33.459.561.62.232.161.497.281.796.36.299.078.609.117.93.117.472 0 .89-.035 1.25-.105.361-.07.716-.196 1.064-.378l.36.942a5.012 5.012 0 0 1-1.257.39 6.637 6.637 0 0 1-.688.081 12.1 12.1 0 0 1-.81.025c-.606 0-1.14-.074-1.605-.223a3.216 3.216 0 0 1-1.17-.645 2.755 2.755 0 0 1-.722-1.016 3.424 3.424 0 0 1-.248-1.327c0-.48.092-.92.275-1.32.182-.4.439-.742.769-1.023.33-.28.715-.5 1.157-.657a4.302 4.302 0 0 1 1.45-.235c.536 0 1 .064 1.392.192.392.128.718.306.976.533.259.227.45.498.575.812.125.314.188.657.188 1.029a3.384 3.384 0 0 1-.12.942h-5.378zm4.294-.893c-.01-.611-.174-1.045-.495-1.301s-.843-.385-1.565-.385c-.267 0-.533.036-.796.106s-.497.175-.702.316c-.205.14-.377.316-.515.527-.138.21-.22.456-.247.737h4.32zm3.691-2.491l.08.979c.322-.397.67-.68 1.044-.85a3.088 3.088 0 0 1 1.284-.253c.464 0 .851.064 1.164.192.312.128.61.361.896.7l-.843.707a1.756 1.756 0 0 0-1.35-.632c-.5 0-.906.09-1.218.272-.312.182-.61.46-.896.831v4.252h-1.244V9.678h1.083zm10.045 1.153a4.43 4.43 0 0 0-.996-.304 6.121 6.121 0 0 0-1.024-.08c-.588 0-1.014.076-1.277.229-.263.153-.394.349-.394.588 0 .306.149.515.448.626.298.112.742.197 1.33.255.839.082 1.487.27 1.947.564.459.293.688.758.688 1.394 0 .645-.285 1.122-.856 1.432-.57.31-1.346.465-2.327.465-.49 0-.92-.031-1.29-.093a5.55 5.55 0 0 1-1.144-.328l.307-.943c.66.29 1.351.434 2.074.434 1.382 0 2.073-.326 2.073-.98a.778.778 0 0 0-.094-.396.697.697 0 0 0-.308-.266 2.291 2.291 0 0 0-.561-.174 9.133 9.133 0 0 0-.87-.118c-.874-.082-1.524-.26-1.952-.533-.428-.272-.642-.69-.642-1.252 0-.248.058-.481.173-.7a1.6 1.6 0 0 1 .529-.57 2.89 2.89 0 0 1 .896-.385 4.996 4.996 0 0 1 1.264-.142c.24 0 .461.006.662.018a5.6 5.6 0 0 1 1.143.18c.188.05.384.112.589.186l-.388.893zm1.485-.769l.91-.533.976-1.4.414.061v1.488h2.662l-.04.954-2.622-.111v3.26c0 .471.116.806.348 1.004.232.198.53.298.896.298.294 0 .56-.038.796-.112.236-.074.48-.182.729-.322l.401.83a2.954 2.954 0 0 1-.903.397 4.744 4.744 0 0 1-1.157.124c-.766 0-1.353-.186-1.758-.558-.406-.372-.609-.921-.609-1.649v-3.16l-1.043-.137v-.434zm6.66.037c.5-.19.961-.328 1.385-.415.423-.087.912-.13 1.464-.13.99 0 1.72.17 2.187.508.468.339.702.888.702 1.649v2.59c0 .298.054.499.161.602.107.103.33.155.669.155v.818a2.97 2.97 0 0 1-.883.124c-.276 0-.495-.09-.655-.273-.16-.182-.255-.43-.281-.744-.616.678-1.534 1.017-2.756 1.017-.784 0-1.38-.17-1.785-.508-.406-.34-.609-.802-.609-1.389 0-.28.047-.537.14-.768a2.27 2.27 0 0 1 .489-.707c.303-.083.609-.157.916-.223.308-.066.635-.12.983-.161.348-.042.718-.075 1.11-.1.393-.024.825-.04 1.298-.049v-.347c0-.43-.127-.744-.381-.942-.255-.199-.707-.298-1.358-.298-.838 0-1.68.17-2.528.509l-.267-.918zm4.535 2.827c-.776.016-1.43.055-1.96.117-.53.062-1.014.147-1.45.255a1.071 1.071 0 0 0-.268.743c0 .34.113.593.34.763.228.17.551.254.97.254.446 0 .859-.062 1.238-.186a3.66 3.66 0 0 0 1.13-.632v-1.314zm4.414-3.248l.08.979c.32-.397.669-.68 1.043-.85a3.094 3.094 0 0 1 1.284-.253c.464 0 .852.064 1.164.192.312.128.61.361.896.7l-.843.707a1.756 1.756 0 0 0-1.35-.632c-.5 0-.906.09-1.218.272-.312.182-.61.46-.896.831v4.252h-1.244V9.678h1.084zm4.815.384l.91-.533.975-1.4.415.061v1.488h2.662l-.04.954-2.622-.111v3.26c0 .471.116.806.348 1.004.232.198.53.298.896.298.294 0 .56-.038.796-.112.236-.074.48-.182.729-.322l.401.83a2.954 2.954 0 0 1-.903.397 4.744 4.744 0 0 1-1.157.124c-.767 0-1.353-.186-1.759-.558-.405-.372-.608-.921-.608-1.649v-3.16l-1.043-.137v-.434zM.022 16h1.092v-4.24c0-.483.152-.893.457-1.232a1.46 1.46 0 0 1 1.13-.507c.431 0 .777.12 1.038.361.26.242.39.565.39.972V16H5.22v-4.399c0-.436.146-.808.438-1.117.292-.309.675-.463 1.149-.463.482 0 .843.124 1.082.374.239.25.359.626.359 1.13V16H9.34v-4.729c0-.72-.188-1.272-.565-1.657-.376-.385-.914-.577-1.612-.577a2.43 2.43 0 0 0-1.263.327 2.127 2.127 0 0 0-.832.872h-.101a2.036 2.036 0 0 0-.714-.866c-.32-.222-.712-.333-1.178-.333-.457 0-.85.104-1.18.314a1.85 1.85 0 0 0-.73.885h-.102V9.157H.022V16zm13.343-.838c.563 0 1.03-.164 1.4-.492.37-.328.555-.735.555-1.222v-.628l-1.841.12c-.999.068-1.498.44-1.498 1.118 0 .347.131.617.394.812.262.195.592.292.99.292zm-.203.959c-.665 0-1.216-.183-1.654-.55-.438-.366-.657-.862-.657-1.488 0-1.253.832-1.928 2.495-2.025l1.974-.12v-.623c0-.871-.516-1.307-1.549-1.307-.41 0-.751.074-1.022.222-.27.148-.444.358-.52.628h-1.105c.072-.55.355-.99.85-1.323.496-.332 1.107-.498 1.835-.498.834 0 1.476.202 1.927.606.45.404.676.961.676 1.672V16H15.37v-1.01h-.102a2.25 2.25 0 0 1-.876.839 2.57 2.57 0 0 1-1.231.292zm7.725 0c-.876 0-1.574-.322-2.095-.965-.52-.643-.78-1.503-.78-2.577 0-1.075.262-1.934.786-2.578.525-.643 1.221-.964 2.089-.964.478 0 .906.105 1.285.317.379.212.666.506.86.882h.095V6.44h1.092V16h-1.04v-1.092h-.102a2.302 2.302 0 0 1-.902.892 2.61 2.61 0 0 1-1.288.32zm.254-6.1c-.622 0-1.111.227-1.467.682-.355.455-.533 1.08-.533 1.876 0 .8.177 1.426.53 1.879.353.452.843.679 1.47.679.622 0 1.113-.229 1.472-.686.36-.457.54-1.081.54-1.872 0-.783-.181-1.405-.543-1.867-.362-.46-.852-.691-1.47-.691zm7.852-.02c-.546 0-.995.185-1.346.553-.351.368-.548.855-.59 1.46h3.77c-.013-.605-.186-1.092-.52-1.46-.335-.368-.773-.553-1.314-.553zm1.802 4.228h1.092c-.165.588-.5 1.05-1.003 1.387-.503.336-1.13.505-1.879.505-.948 0-1.699-.319-2.253-.956s-.832-1.497-.832-2.58c0-1.075.28-1.935.838-2.58.559-.646 1.308-.968 2.247-.968.923 0 1.649.307 2.178.923.529.616.793 1.455.793 2.517v.419h-4.92v.05c.03.678.222 1.215.575 1.613.353.398.82.597 1.4.597.44 0 .808-.08 1.104-.238.296-.159.517-.389.66-.689zm9.814 1.892c-.474 0-.905-.107-1.292-.321a2.292 2.292 0 0 1-.904-.892h-.102V16H37.27V6.44h1.092v3.796h.101c.187-.368.473-.66.86-.876a2.595 2.595 0 0 1 1.286-.323c.872 0 1.568.321 2.088.964.52.644.781 1.503.781 2.578 0 1.07-.261 1.928-.784 2.574-.523.645-1.218.968-2.085.968zm-.254-6.1c-.622 0-1.114.228-1.476.685-.362.457-.543 1.081-.543 1.873 0 .791.181 1.415.543 1.872.362.457.854.686 1.476.686.626 0 1.115-.227 1.466-.68.352-.452.527-1.079.527-1.878 0-.8-.175-1.426-.527-1.88-.35-.452-.84-.678-1.466-.678zm5.345 8.455c.605 0 1.074-.144 1.406-.432.332-.288.644-.83.936-1.625l2.672-7.262h-1.161l-1.873 5.63h-.101l-1.88-5.63h-1.18l2.533 6.85-.127.406c-.144.414-.311.705-.502.872-.19.168-.442.251-.755.251a4.47 4.47 0 0 1-.235-.006 1.691 1.691 0 0 1-.222-.026v.933a3.005 3.005 0 0 0 .489.039z" fill-rule="evenodd"/></svg>