<svg xmlns="http://www.w3.org/2000/svg" width="46" height="48" viewBox="0 0 46 48"><path fill-rule="evenodd" d="M44.575 25.169h-6.523c-.652 0-1.088.435-1.088 1.087 0 .652.436 1.087 1.088 1.087h5.436a4.361 4.361 0 0 1-4.349 4.349 4.361 4.361 0 0 1-4.349-4.349v-.87l4.35-11.307 2.717 7.176c.217.543.87.87 1.414.652.543-.217.869-.87.652-1.413l-2.827-7.284H42.4c.652 0 1.087-.435 1.087-1.087 0-.653-.435-1.088-1.087-1.088h-2.175l-.109-.326a1.044 1.044 0 0 0-.978-.76c-.435 0-.87.325-.978.651v.11c-1.305-.327-2.61-.761-3.806-1.414-2.5-1.522-5.436-1.848-8.154-1.087a4.7 4.7 0 0 0-.76-.652l-.436-6.415c0-1.087-.978-2.066-2.174-2.066s-2.175.979-2.175 2.066l-.326 6.306-.76.76c-2.718-.76-5.762-.434-8.154 1.088-1.197.652-2.5 1.196-3.806 1.413v-.109c-.217-.326-.652-.652-1.087-.652-.434 0-.87.326-.978.652l-.218.435H3.261c-.652 0-1.087.435-1.087 1.087 0 .653.436 1.088 1.087 1.088h1.305L.11 25.821c-.11.217-.11.326-.11.435v1.087c0 3.588 2.935 6.523 6.523 6.523 3.588 0 6.523-2.935 6.523-6.523v-1.087c0-.652-.435-1.087-1.087-1.087H5.436c-.652 0-1.087.435-1.087 1.087 0 .652.435 1.087 1.087 1.087h5.436a4.361 4.361 0 0 1-4.349 4.349 4.362 4.362 0 0 1-4.348-4.349v-.87l4.348-11.307 2.718 7.176c.217.543.87.87 1.414.652.543-.217.87-.87.652-1.413l-2.936-7.61a14.882 14.882 0 0 0 4.132-1.631 8.534 8.534 0 0 1 6.088-.979c0 .218-.109.544-.109.87 0 1.305.544 2.392 1.414 3.153L18.59 40.715c-.761.327-2.283 1.087-5.001 2.718-.979.327-1.631 1.414-1.631 2.392H9.785c-.653 0-1.087.435-1.087 1.087 0 .653.434 1.088 1.087 1.088h26.092c.653 0 1.087-.435 1.087-1.087 0-.653-.434-1.088-1.087-1.088h-2.174c0-.978-.652-2.065-1.63-2.5-2.828-1.631-4.24-2.283-5.002-2.718l-1.087-20.983c0-.652-.544-1.087-1.196-.979-.653 0-1.087.544-.979 1.197l1.196 21.743c0 .544.435.979.979.979.543.217 3.044 1.522 5.11 2.718 0 0 .109 0 .109.108.108.11.326.327.326.544H14.134c0-.109.217-.435.326-.544 0 0 .108 0 .108-.108 2.066-1.196 4.458-2.501 5.11-2.718a.975.975 0 0 0 .979-.979l1.304-25.114c.218 0 .544.109.762.109a4.361 4.361 0 0 0 4.348-4.349c0-.326 0-.544-.108-.87 2.065-.435 4.24-.217 6.088.979 1.304.76 2.61 1.305 4.131 1.63l-4.566 11.96c0 .109-.11.217-.11.435v1.087c0 3.588 2.937 6.523 6.524 6.523 3.588 0 6.523-2.935 6.523-6.523v-1.087c.109-.761-.326-1.196-.978-1.196zM22.722 2.446h.11l.325 5.436h-.652l.217-5.436zm.11 11.851a2.181 2.181 0 0 1-2.176-2.175 2.18 2.18 0 0 1 2.175-2.174 2.18 2.18 0 0 1 2.174 2.174 2.18 2.18 0 0 1-2.174 2.175z"/></svg>