<svg xmlns="http://www.w3.org/2000/svg" xmlns:xlink="http://www.w3.org/1999/xlink" width="64" height="55" viewBox="0 0 64 55"><defs><path id="a" d="M.007.122H64v54.592H.008z"/></defs><g fill="none" fill-rule="evenodd"><mask id="b" fill="#fff"><use xlink:href="#a"/></mask><path fill="#0A0B09" d="M60.86 39.825a1.14 1.14 0 0 1-1.136-1.14v-1.14h2.272v2.28H60.86zm-7.482 12.877c-2.395 0-4.343-1.956-4.343-4.36 0-2.404 1.949-4.36 4.343-4.36s4.342 1.956 4.342 4.36c0 2.404-1.948 4.36-4.342 4.36zm-35.274 0c-2.394 0-4.342-1.956-4.342-4.36 0-2.404 1.948-4.36 4.342-4.36 2.395 0 4.343 1.956 4.343 4.36 0 2.404-1.948 4.36-4.343 4.36zm36.343-32.327c1.215 0 2.204.993 2.204 2.213v.067h-9.753v-2.28h7.549zm-7.55 4.292h8.905l1.637 6.573H46.898v-6.573zM16.14 6.427a2.683 2.683 0 0 1 .503-3.747 2.657 2.657 0 0 1 3.732.505c.97 1.276 2.487 5.57 3.49 8.665-.677-.4-1.454-.868-2.252-1.366-3.953-2.466-5.126-3.6-5.473-4.057zm14.659-3.242a2.659 2.659 0 0 1 3.732-.505 2.683 2.683 0 0 1 .502 3.747c-.347.457-1.52 1.591-5.472 4.057-.798.498-1.575.966-2.252 1.366 1.002-3.095 2.52-7.39 3.49-8.665zM59.519 31.3l-1.657-6.655c.453-.097.794-.5.794-.984v-1.073c0-2.33-1.889-4.225-4.21-4.225h-7.548V16.15c0-1.147-.93-2.08-2.071-2.08H30.79l8.53-3.425c.514-.206.764-.792.558-1.308a1 1 0 0 0-1.302-.56l-6.985 2.805c2.129-1.371 4.234-2.88 5.036-3.935a4.703 4.703 0 0 0-.88-6.567 4.66 4.66 0 0 0-6.542.885c-1.14 1.5-2.644 5.719-3.618 8.69-.974-2.971-2.479-7.19-3.619-8.69a4.66 4.66 0 0 0-6.54-.885 4.703 4.703 0 0 0-.881 6.567c.801 1.055 2.907 2.564 5.035 3.935l-6.984-2.805a1 1 0 0 0-1.303.56 1.007 1.007 0 0 0 .559 1.308l8.53 3.425H6.346c-1.141 0-2.07.933-2.07 2.08v18.242c0 .556.448 1.006 1.002 1.006.553 0 1.002-.45 1.002-1.006V16.15c0-.037.03-.067.066-.067h38.48c.038 0 .068.03.068.067v18.242c0 .556.448 1.006 1.002 1.006.553 0 1.002-.45 1.002-1.006v-1.14h11.827a3.28 3.28 0 0 1 3.113 2.28h-3.116c-.553 0-1.002.45-1.002 1.006v2.146a3.15 3.15 0 0 0 3.14 3.153h1.136v4.426h-2.62c-.861-2.495-3.224-4.292-5.998-4.292-2.775 0-5.137 1.797-5.998 4.292h-.482v-7.579a1.003 1.003 0 0 0-2.004 0v7.58H24.102c-.86-2.496-3.223-4.293-5.998-4.293-2.774 0-5.137 1.797-5.997 4.292h-5.76a.067.067 0 0 1-.067-.067v-2.213h4.342c.553 0 1.002-.45 1.002-1.006s-.449-1.006-1.002-1.006h-9.62A1.003 1.003 0 0 0 0 42.977c0 .555.449 1.006 1.002 1.006h3.274v2.213c0 1.147.929 2.08 2.07 2.08h5.414l-.002.066c0 3.513 2.847 6.372 6.346 6.372 3.5 0 6.347-2.859 6.347-6.372l-.002-.067h22.584l-.002.067c0 3.513 2.847 6.372 6.347 6.372 3.5 0 6.346-2.859 6.346-6.372l-.002-.067h3.276c.553 0 1.002-.45 1.002-1.006V36.54a5.3 5.3 0 0 0-4.48-5.239z" mask="url(#b)"/><path fill="#0A0B09" d="M18.104 46.263a2.077 2.077 0 0 0-2.07 2.08c0 1.146.928 2.078 2.07 2.078a2.077 2.077 0 0 0 2.071-2.079 2.077 2.077 0 0 0-2.07-2.079m35.273 0a2.077 2.077 0 0 0-2.071 2.08c0 1.146.929 2.078 2.07 2.078a2.077 2.077 0 0 0 2.072-2.079c0-1.146-.93-2.079-2.071-2.079"/><path fill="#F3584A" d="M25.654 42.977c0 .555.448 1.006 1.002 1.006H41.62c.553 0 1.002-.45 1.002-1.006s-.449-1.006-1.002-1.006H26.656c-.554 0-1.002.45-1.002 1.006M3.14 39.69h12.827c.553 0 1.002-.45 1.002-1.006 0-.555-.449-1.006-1.002-1.006H3.14c-.554 0-1.002.45-1.002 1.006s.449 1.006 1.002 1.006m12.827-15.023c.553 0 1.002-.45 1.002-1.006 0-.555-.449-1.006-1.002-1.006H11.69c-.553 0-1.002.45-1.002 1.006v8.585c0 .556.449 1.006 1.002 1.006.553 0 1.002-.45 1.002-1.006V28.96h2.205c.553 0 1.002-.45 1.002-1.006s-.449-1.006-1.002-1.006h-2.205v-2.28h3.274m4.209-.001h1.67c.922 0 1.67.752 1.67 1.677s-.748 1.677-1.67 1.677h-1.67v-3.354zm5.345 1.677a3.686 3.686 0 0 0-3.674-3.689h-2.673c-.553 0-1.002.45-1.002 1.006v8.585c0 .556.449 1.006 1.002 1.006.554 0 1.002-.45 1.002-1.006v-2.213h1.669l1.84 2.77a1 1 0 0 0 1.39.28c.46-.308.584-.933.277-1.395l-1.498-2.257a3.692 3.692 0 0 0 1.667-3.087zM32 24.667c.553 0 1.002-.45 1.002-1.006 0-.555-.449-1.006-1.002-1.006h-4.276c-.553 0-1.002.45-1.002 1.006v8.585c0 .556.449 1.006 1.002 1.006H32c.553 0 1.002-.45 1.002-1.006S32.553 31.24 32 31.24h-3.273v-2.284a.73.73 0 0 0 .066.004h2.138c.553 0 1.002-.45 1.002-1.006s-.448-1.006-1.002-1.006h-2.138l-.066.003v-2.284H32m7.482 0c.554 0 1.002-.45 1.002-1.006 0-.555-.448-1.006-1.002-1.006h-4.275c-.554 0-1.002.45-1.002 1.006v8.585c0 .556.448 1.006 1.002 1.006h4.275c.554 0 1.002-.45 1.002-1.006s-.448-1.006-1.002-1.006H36.21v-2.28h1.135c.554 0 1.002-.45 1.002-1.006s-.448-1.006-1.002-1.006H36.21v-2.28h3.273"/></g></svg>