<svg xmlns="http://www.w3.org/2000/svg" xmlns:xlink="http://www.w3.org/1999/xlink" width="52" height="52" viewBox="0 0 52 52"><defs><path id="a" d="M.006 52V0H52v52z"/></defs><g fill="none" fill-rule="evenodd"><path fill="#0A090B" d="M22 8a1 1 0 1 0 0-2 1 1 0 0 0 0 2m5 0a1.001 1.001 0 0 1 0 2 1.001 1.001 0 0 1 0-2zm0 4c1.654 0 3-1.346 3-3s-1.346-3-3-3-3 1.346-3 3 1.346 3 3 3zM14 8h4a1 1 0 0 0 0-2h-4a1 1 0 0 0 0 2"/><mask id="b" fill="#fff"><use xlink:href="#a"/></mask><path fill="#0A090B" d="M34.125 10.46h4.063a1.016 1.016 0 0 0 0-2.03h-4.063a1.016 1.016 0 0 0 0 2.03" mask="url(#b)"/><path fill="#F3584A" d="M49.969 24.984h-6.703V4.062h6.703v13.552c0 .021.002.042.003.062l-.003.063v7.245zm-8.735 2.032H10.766v-4.668l8.123-8.394 6.057 6.284.046.055.254.256 1.038 1.078c.051.052.107.098.166.138l2.869 2.896a1.013 1.013 0 0 0 1.435.051 1.015 1.015 0 0 0 .052-1.435l-2.361-2.383 4.67-4.904 8.12 8.39v2.636zM2.031 24.984V17.74l-.003-.063c.001-.02.003-.041.003-.062V4.062h6.703v20.922H2.031zm8.735-22.953h30.468V21.46l-7.395-7.642a1.016 1.016 0 0 0-.73-.31h-.004c-.276.002-.54.116-.731.316l-5.36 5.627-.262-.265-7.13-7.398a1.016 1.016 0 0 0-.73-.31h-.001c-.276 0-.539.111-.73.309l-7.395 7.642V2.03zm24.823 37.132a1.016 1.016 0 0 0-.676 1.503l4.57 7.915-1.759 1.016-4.57-7.916a1.016 1.016 0 0 0-1.64-.166l-2.712 3.06-1.373-14.353L39.51 38.36l-3.922.803zM52 3.047c0-.561-.455-1.016-1.016-1.016h-7.718V1.016C43.266.455 42.81 0 42.25 0H9.75c-.56 0-1.016.455-1.016 1.016V2.03H1.016A1.018 1.018 0 0 0 0 3.047v14.567c0 .021.002.042.003.062L0 17.74V26c0 .56.455 1.016 1.016 1.016h7.718v1.015c0 .561.455 1.016 1.016 1.016h15.526l1.726 18.045a1.016 1.016 0 0 0 1.77.577l3.328-3.752 4.373 7.575a1.016 1.016 0 0 0 1.387.372l3.519-2.031c.485-.28.652-.902.371-1.388l-4.373-7.575 4.912-1.005a1.016 1.016 0 0 0 .364-1.837L29.32 29.047h12.93c.56 0 1.016-.455 1.016-1.016v-1.015h7.718C51.545 27.016 52 26.56 52 26v-8.261l-.003-.063c.001-.02.003-.04.003-.062V3.047z" mask="url(#b)"/></g></svg>