<svg xmlns="http://www.w3.org/2000/svg" xmlns:xlink="http://www.w3.org/1999/xlink" width="53" height="64" viewBox="0 0 53 64"><defs><path id="a" d="M.007 0h42.615v57.587H.008z"/></defs><g fill="none" fill-rule="evenodd"><mask id="b" fill="#fff"><use xlink:href="#a"/></mask><path fill="#0A0B09" d="M14.898 4.142h2.73c.357 0 .687-.19.867-.498.597-1.027 1.65-1.64 2.816-1.64s2.22.613 2.817 1.64c.18.308.509.498.866.498h2.73c.625 0 1.134.507 1.136 1.132V8.55H13.762V5.275a1.137 1.137 0 0 1 1.136-1.134zm10.689 51.44H4.209a2.207 2.207 0 0 1-2.205-2.204V8.484c0-1.215.99-2.204 2.205-2.204h7.549v3.273c0 .554.449 1.002 1.002 1.002h17.102c.554 0 1.002-.448 1.002-1.002V6.28h7.55c1.215 0 2.204.989 2.204 2.204v28.86a1.002 1.002 0 0 0 2.004 0V8.484a4.214 4.214 0 0 0-4.209-4.208H30.7a3.145 3.145 0 0 0-2.976-2.138h-2.193A5.283 5.283 0 0 0 21.311 0c-1.661 0-3.23.806-4.22 2.138h-2.193a3.145 3.145 0 0 0-2.975 2.138H4.209A4.214 4.214 0 0 0 0 8.484v44.894a4.214 4.214 0 0 0 4.209 4.209h21.378a1.002 1.002 0 0 0 0-2.005z" mask="url(#b)"/><path fill="#0A0B09" d="M8.485 10.555a1.002 1.002 0 0 0 0-2.004H5.278c-.554 0-1.002.449-1.002 1.002V52.31c0 .553.448 1.002 1.002 1.002h20.308a1.002 1.002 0 0 0 0-2.004H6.28V10.555h2.205m28.859 27.791c.554 0 1.002-.448 1.002-1.002V9.554c0-.554-.448-1.003-1.002-1.003h-3.206a1.002 1.002 0 0 0 0 2.004h2.204v26.79c0 .553.449 1.001 1.002 1.001"/><path fill="#F3584A" d="M40.551 61.996c-5.341 0-9.687-4.346-9.687-9.687 0-5.341 4.346-9.687 9.687-9.687 5.341 0 9.687 4.346 9.687 9.687 0 5.341-4.346 9.687-9.687 9.687zm0-21.378c-6.446 0-11.69 5.244-11.69 11.691C28.86 58.756 34.104 64 40.55 64c6.447 0 11.691-5.245 11.691-11.691 0-6.447-5.244-11.691-11.69-11.691z"/><path fill="#0A0B09" d="M21.322 6.28a1.002 1.002 0 1 0 0-2.004h-.01a.997.997 0 0 0-.997 1.002c0 .553.453 1.002 1.007 1.002"/><path fill="#F3584A" d="M45.187 48.394l-6.774 6.773-3.567-3.567a1.002 1.002 0 0 0-1.417 1.417l4.276 4.276a.999.999 0 0 0 1.417 0l7.482-7.482a1.002 1.002 0 1 0-1.417-1.417"/><path fill="#0A0B09" d="M30.931 17.102h-5.344a1.002 1.002 0 0 0 0 2.005h5.344a1.002 1.002 0 0 0 0-2.005m-5.344 6.28h3.206a1.002 1.002 0 0 0 0-2.004h-3.206a1.002 1.002 0 0 0 0 2.004m5.344 2.272h-5.344a1.002 1.002 0 0 0 0 2.004h5.344a1.002 1.002 0 0 0 0-2.005m-19.24 11.625h2.138a1.002 1.002 0 1 0 0-2.005H11.69a1.002 1.002 0 0 0 0 2.005m.001 8.551h2.138a1.002 1.002 0 1 0 0-2.004H11.69a1.002 1.002 0 0 0 0 2.004m.001-4.276h2.138a1.002 1.002 0 1 0 0-2.004H11.69a1.002 1.002 0 0 0 0 2.004m19.241-6.28H18.104a1.002 1.002 0 0 0 0 2.005h12.827a1.002 1.002 0 0 0 0-2.005m-3.207 8.552h-9.62a1.002 1.002 0 0 0 0 2.004h9.62a1.002 1.002 0 1 0 0-2.004m3.207-4.276H18.104a1.002 1.002 0 0 0 0 2.004h12.827a1.002 1.002 0 0 0 0-2.004"/></g></svg>