<svg xmlns="http://www.w3.org/2000/svg" viewBox="0 0 837.1 282"><path fill="#1A1A1A" d="M165.016 91.856l3.943 12.072-76.523 24.996-3.944-12.073zm-23.581 93.604l-8.575 9.368-52.222-47.805 8.575-9.367z"/><path fill="#C2000B" d="M165.5 98.6c-6.8-20.8 4.6-43.2 25.4-50.1l3.6 10.9c-14.9 4.9-23 20.8-18.1 35.7 4.9 14.9 20.8 23 35.7 18.1l3.5 10.7c-20.9 6.9-43.3-4.4-50.1-25.3z"/><path fill="#FD1A16" d="M176.3 95.1c-4.9-14.9 3.3-30.9 18.1-35.7l3.5 10.8c-8.9 2.9-13.8 12.5-10.9 21.5 2.9 8.9 12.5 13.8 21.5 10.9l3.5 10.7c-14.8 4.8-30.8-3.3-35.7-18.2z"/><path fill="#FE330A" d="M241 74c-6.8-20.8-29.2-32.2-50-25.4l3.6 10.9c14.9-4.9 30.9 3.3 35.7 18.1 4.9 14.9-3.3 30.9-18.1 35.7l3.5 10.7c20.7-6.8 32.1-29.2 25.3-50z"/><path fill="#C2000B" d="M230.2 77.5c-4.9-14.9-20.8-23-35.7-18.1l3.5 10.8c8.9-2.9 18.6 2 21.5 10.9 2.9 8.9-2 18.6-10.9 21.5l3.5 10.7c14.8-4.9 22.9-20.9 18.1-35.8zM96.9 121c-4.8-14.6-20.4-22.5-35-17.7l2.5 7.6c10.4-3.4 21.6 2.3 24.9 12.7 3.4 10.4-2.3 21.6-12.7 25l2.4 7.5c14.7-4.9 22.7-20.5 17.9-35.1z"/><path fill="#FD1A16" d="M89.4 123.5c-3.4-10.4-14.6-16.1-24.9-12.7l2.5 7.5c6.2-2 13 1.4 15 7.6 2 6.2-1.4 13-7.6 15l2.4 7.5c10.3-3.4 16-14.5 12.6-24.9z"/><path fill="#FE330A" d="M44.2 138.2c-4.8-14.6 3.2-30.2 17.7-35l2.5 7.6c-10.4 3.4-16.1 14.6-12.7 25 3.4 10.4 14.6 16.1 25 12.7l2.4 7.5c-14.5 4.7-30.1-3.2-34.9-17.8z"/><path fill="#C2000B" d="M51.8 135.8c-3.4-10.4 2.3-21.6 12.7-24.9l2.5 7.5c-6.2 2-9.7 8.8-7.6 15 2 6.2 8.8 9.7 15 7.6l2.4 7.5c-10.5 3.3-21.6-2.3-25-12.7zm75.9 44.6c-10 11.6-8.7 29.1 2.9 39.1l5.2-6.1c-8.3-7.1-9.2-19.6-2-27.9 7.1-8.3 19.6-9.2 27.9-2l5.1-6c-11.6-10-29.1-8.7-39.1 2.9z"/><path fill="#FD1A16" d="M133.7 185.6c-7.1 8.3-6.2 20.8 2 27.9l5.2-6c-5-4.3-5.5-11.8-1.2-16.8s11.8-5.5 16.8-1.2l5.1-5.9c-8.3-7.2-20.8-6.3-27.9 2z"/><path d="M159.7 193.9l8.5 1.2c-.7-4.4-2.9-8.5-6.5-11.7l-5.1 5.9c1.3 1.4 2.4 3 3.1 4.6zM146.5 210c-2-.3-4-1.1-5.6-2.6l-5.2 6c4 3.5 9.1 5 14 4.7l-3.2-8.1z" fill="#C2000B"/><path d="M168.1 195.2l8.1 1.2c-.5-7-3.7-13.9-9.5-18.8l-5.1 6c3.7 3 5.8 7.2 6.5 11.6zm-18.4 22.9c-4.9.3-9.9-1.2-14-4.7l-5.2 6.1c6.4 5.5 14.6 7.5 22.3 6.4l-3.1-7.8z" fill="#FE330A"/><path d="M244.2 206.9v-35l-13.1 18.8h-8.7L209.2 172v35h-13.1v-63h8.7l21.9 31.5 21.9-31.5h8.7v62.9h-13.1zm24.6 0V144h41.5v12.6h-28.4v12.6H306v12.6h-24.1v12.6h28.4V207h-41.5zm62.2 0v-50.3h-15.3V144h43.7v12.6h-15.3v50.3H331zm70.2 0l-4.5-10.8h-24.1l-4.4 10.8h-13.9l26-62.9h8.7l26 62.9h-13.8zm-12.8-31.4l-3.6-13.3-3.6 13.3-3.3 8.1h13.8l-3.3-8.1zm69.6 31.4h-37.2V144h13.1v50.3H458v12.6zm.6-25.1v-12.6h22v12.6h-22zm33.2 25.1V144h41.5v12.6h-28.4v12.6H529v12.6h-24.1v12.6h28.4V207h-41.5zm86.6 0L565.6 186l-12.7 20.9h-14.5l19.9-32.9-18.2-30h14.5l10.9 18.1 11-18.1H591l-18.3 30 20 32.9h-14.3zm20.5 0V144h24.9c10.8 0 20.1 6.4 20.1 20.8s-9 20.6-20.1 20.6H612V207h-13.1zm24.9-34.1c3.6 0 7-.9 7-8s-3.2-8.2-7-8.2H612v16.2h11.8zm26.7 34.1V144H692v12.6h-28.4v12.6h24.1v12.6h-24.1v12.6H692V207h-41.5zm83.1 0L721 185.4h-6.1V207h-13.1v-63h24.9c10.8 0 20.1 6.4 20.1 20.8 0 10.7-5 16.9-12.2 19.3l13.9 22.8h-14.9zm-6.9-34.1c3.6 0 7-.9 7-8s-3.2-8.2-7-8.2h-11.8v16.2h11.8zm40.2 34.1v-50.3h-15.3V144h43.7v12.6H780v50.3h-13.1z"/></svg>