<svg xmlns="http://www.w3.org/2000/svg" width="664" height="595" viewBox="0 0 664 595"><g fill="#FFF" fill-rule="evenodd"><path d="M165 271l-13-39.667L405 149l13 39.667zm-40 61.038L153.27 301 326 459.962 297.734 491z"/><path d="M406.556 172.124C383.926 102.959 421.761 28.59 491.052 6l11.845 36.189c-49.446 16.107-76.44 69.2-60.296 118.546 16.147 49.355 69.326 76.304 118.773 60.188L573 256.46c-69.291 22.576-143.806-15.171-166.444-84.336" opacity=".4"/><path d="M442.661 160.29C426.572 111.046 453.471 58.081 502.74 42l11.64 35.665c-29.617 9.666-45.802 41.518-36.124 71.13 9.67 29.63 41.551 45.798 71.173 36.128L561 220.343c-49.263 16.078-102.254-10.818-118.339-60.053"/><path d="M657.44 90.88C634.826 21.715 560.306-16.036 491 6.54l11.845 36.189c49.448-16.125 102.627 10.837 118.779 60.188 16.152 49.35-10.859 102.421-60.302 118.55L572.944 257c69.305-22.59 107.13-96.963 84.497-166.12"/><path d="M621.339 102.717C605.25 53.47 552.266 26.575 503 42.66l11.636 35.665c29.638-9.679 61.518 6.49 71.188 36.105 9.67 29.625-6.506 61.485-36.14 71.15L561.258 221c49.27-16.08 76.17-69.04 60.08-118.283M180.414 246.296c-15.825-48.173-67.948-74.47-116.414-58.738l8.277 25.202c34.586-11.224 71.777 7.54 83.07 41.92 11.297 34.378-7.583 71.34-42.161 82.572L121.305 362c48.474-15.727 74.938-67.531 59.109-115.704" opacity=".4"/><path d="M153.743 254.613C142.494 219.904 105.446 200.94 71 212.289l8.14 25.132c20.712-6.821 43.009 4.58 49.766 25.455 6.77 20.884-4.54 43.337-25.262 50.159L111.735 338c34.446-11.348 53.252-48.665 42.008-83.387"/><path d="M4.59 302.705C-11.248 254.532 15.217 202.728 63.693 187l8.277 25.197c-34.592 11.229-53.469 48.2-42.17 82.575 11.288 34.379 48.489 53.143 83.081 41.924L121 361.444C72.541 377.17 20.416 350.874 4.59 302.705"/><path d="M29.261 295.382c-11.255-34.717 7.561-72.05 42.01-83.382l8.138 25.13c-20.723 6.819-32.03 29.278-25.262 50.147 6.756 20.886 29.045 32.283 49.759 25.474L112 337.718c-34.445 11.332-71.496-7.624-82.739-42.336m252.097 147.367c-33.19 38.304-28.936 96.178 9.483 129.251l17.368-20.037c-27.419-23.615-30.44-64.909-6.776-92.237 23.686-27.342 65.098-30.363 92.518-6.752L411 433.286c-38.422-33.082-96.474-28.845-129.642 9.463" opacity=".4"/><path d="M302.032 460.864c-23.798 27.604-20.749 69.299 6.796 93.136l17.235-19.987c-16.567-14.341-18.399-39.41-4.1-56.018 14.318-16.598 39.36-18.42 55.921-4.092L395 454.057c-27.558-23.829-69.179-20.788-92.968 6.807"/><path d="M387.704 487.877L416 492c-2.453-14.64-9.758-28.541-21.845-39L377 472.91c4.888 4.225 8.432 9.382 10.704 14.967" opacity=".4"/><path d="M344.17 541.384c-6.745-1.094-13.292-3.689-18.864-8.384L308 552.547c13.552 11.405 30.453 16.298 47 15.334l-10.83-26.497zm71.227-49.251L442 496c-1.745-23.139-12.186-45.631-31.11-62L394 453.602c11.944 10.328 19.046 24.067 21.397 38.531"/><path d="M354.786 567.852c-16.342.939-33.022-4.123-46.397-15.852L291 572.447c21.198 18.614 48.337 25.464 74 21.443l-10.214-26.038z"/></g></svg>