<svg xmlns="http://www.w3.org/2000/svg" width="54" height="64" viewBox="0 0 54 64"><g fill="none" fill-rule="evenodd"><path fill="#0A0B09" d="M34.312 60.777c1.102-.998 2.136-2.215 3.078-3.64a1.002 1.002 0 1 0-1.672-1.105c-2.284 3.456-5.114 5.515-8.06 5.898v-9.688h5.411a1.002 1.002 0 1 0 0-2.004h-5.411V38.346h12.948a41.584 41.584 0 0 1-.62 6.305 1.002 1.002 0 1 0 1.974.35c.383-2.155.601-4.39.65-6.654h8.675a24.487 24.487 0 0 1-3.628 11.891h-1.762a1.002 1.002 0 1 0 0 2.004h.387a24.745 24.745 0 0 1-11.97 8.535zM7.029 52.242h6.358a28.66 28.66 0 0 0 1.821 3.747c1.123 1.925 2.393 3.527 3.769 4.78a24.748 24.748 0 0 1-11.948-8.527zM2.026 38.347h8.675c.092 4.223.765 8.276 1.955 11.891H5.653a24.486 24.486 0 0 1-3.627-11.892zm12.745 11.891c-1.256-3.565-1.969-7.63-2.066-11.892h12.949v11.892H14.77zm10.883 11.694c-3.256-.415-6.32-2.847-8.715-6.953a26.158 26.158 0 0 1-1.381-2.737h10.096v9.69zm2.004-37.481H38.54c1.256 3.565 1.969 7.63 2.066 11.891H27.657V24.451zm0-11.694c3.255.415 6.318 2.847 8.713 6.953.503.861.964 1.776 1.382 2.737H27.658v-9.69zm18.624 9.69h-6.358a28.66 28.66 0 0 0-1.821-3.747c-1.123-1.925-2.393-3.527-3.769-4.78a24.748 24.748 0 0 1 11.948 8.527zM42.61 36.342c-.092-4.223-.765-8.276-1.955-11.891h7.003a24.488 24.488 0 0 1 3.627 11.891H42.61zM26.656 10.69c-.554 0-1.002.449-1.002 1.002v10.756h-5.412a1.002 1.002 0 0 0 0 2.004h5.412v11.891H12.706c.033-1.423.134-2.838.305-4.22a1.002 1.002 0 0 0-1.99-.245 44.48 44.48 0 0 0-.32 4.465H2.025a24.518 24.518 0 0 1 4.087-12.628 1.002 1.002 0 0 0-1.669-1.11A26.537 26.537 0 0 0 0 37.344C0 52.042 11.958 64 26.655 64c14.698 0 26.656-11.958 26.656-26.656 0-14.698-11.958-26.655-26.655-26.655z"/><path fill="#F3584A" d="M12.76 2.004c4.752 0 8.618 3.866 8.618 8.618 0 3.271-2.252 6.04-4.635 8.971-1.439 1.77-2.914 3.585-3.983 5.611-1.069-2.026-2.544-3.84-3.983-5.61-2.384-2.932-4.635-5.7-4.635-8.972 0-4.752 3.866-8.618 8.618-8.618zm-.95 26.037a1.002 1.002 0 0 0 1.9 0c.871-2.612 2.76-4.936 4.588-7.183 2.5-3.074 5.084-6.253 5.084-10.236C23.382 4.765 18.617 0 12.76 0S2.138 4.765 2.138 10.622c0 3.983 2.584 7.162 5.084 10.236 1.827 2.247 3.716 4.57 4.587 7.183zm27.672 24.335a1.137 1.137 0 0 1 0-2.272 1.137 1.137 0 0 1 0 2.271zm0-4.276a3.143 3.143 0 0 0-3.14 3.14 3.143 3.143 0 0 0 3.14 3.14 3.143 3.143 0 0 0 3.14-3.14 3.143 3.143 0 0 0-3.14-3.14z"/><path fill="#F3584A" d="M12.482 12.376a1.137 1.137 0 0 1 0-2.272 1.137 1.137 0 0 1 0 2.271zm0-4.276a3.143 3.143 0 0 0-3.14 3.14 3.143 3.143 0 0 0 3.14 3.14 3.143 3.143 0 0 0 3.14-3.14 3.143 3.143 0 0 0-3.14-3.14z"/></g></svg>