<svg xmlns="http://www.w3.org/2000/svg" width="30" height="32" viewBox="0 0 30 32"><path fill="#6c8999" d="M5.132 1.418c.351 0 .709.06 1.06.184l6.078 2.155-2.573 7.255L3.62 8.857a3.16 3.16 0 0 1-1.809-1.63 3.162 3.162 0 0 1-.127-2.433l.446-1.257a3.188 3.188 0 0 1 3.002-2.119zm8.414 1.73L6.526.659a4.187 4.187 0 0 0-5.338 2.544L.742 4.46a4.186 4.186 0 0 0 2.544 5.339l7.02 2.49z"/><path fill="#6c8999" d="M8.397 9.106l-3.694-1.31a2.49 2.49 0 0 1-1.512-3.175l.942.334a1.49 1.49 0 0 0 .904 1.899l3.694 1.31zm15.249-7.659a3.187 3.187 0 0 1 4.095 1.866l.467 1.25c.298.796.268 1.66-.085 2.434a3.162 3.162 0 0 1-1.781 1.661l-6.04 2.258-2.696-7.21zm3.046 8.147a4.187 4.187 0 0 0 2.453-5.381l-.467-1.25A4.187 4.187 0 0 0 23.296.511l-6.977 2.608 3.396 9.084zm-12.823 1.401a.945.945 0 0 1 .934.796.941.941 0 0 1-.166.708.938.938 0 0 1-.617.382.938.938 0 0 1-.708-.166.943.943 0 0 1-.383-.617.948.948 0 0 1 .94-1.103zm-.007 2.9a1.943 1.943 0 0 0 1.588-.813c.303-.423.425-.939.341-1.453h-.001a1.937 1.937 0 0 0-.787-1.268 1.952 1.952 0 0 0-3.061 1.899c.084.513.364.964.787 1.268.335.241.729.367 1.133.367zm1.564-6.103c.108 0 .203.078.222.188a.225.225 0 1 1-.258-.186c.012-.002.024-.002.036-.002zm0 1.449a1.215 1.215 0 0 0 .994-.51c.192-.266.268-.59.214-.913a1.215 1.215 0 0 0-.493-.796 1.226 1.226 0 0 0-1.924 1.193 1.227 1.227 0 0 0 1.209 1.026zm1.771 4.87c.061 0 .107.026.13.043.028.02.078.066.09.146h.001a.227.227 0 0 1-.186.259.226.226 0 0 1-.258-.186.225.225 0 0 1 .223-.262zm-.004 1.451a1.24 1.24 0 0 0 .997-.51 1.226 1.226 0 1 0-.997.51zm10.465 2.993c-.263 6.528-5.655 11.757-12.246 11.757S3.429 25.083 3.166 18.555zm1.01-.5v-.5H2.156v.5c0 7.31 5.947 13.257 13.256 13.257 7.31 0 13.256-5.947 13.256-13.257z"/><path fill="#6c8999" d="M15.412 29.186c-5.268 0-9.855-3.746-10.906-8.905l.979-.199c.957 4.695 5.132 8.104 9.927 8.104zm-9.567 2.126v-1h19.134v1z"/></svg>