<svg xmlns="http://www.w3.org/2000/svg" width="43" height="32" viewBox="0 0 43 32"><path fill="#6c8999" d="M17.857 6.421c.827 0 1.5.673 1.5 1.5v20.857c0 .827-.673 1.5-1.5 1.5H3c-.827 0-1.5-.673-1.5-1.5V7.921c0-.827.673-1.5 1.5-1.5zm2.5 22.357V7.921c0-1.379-1.122-2.5-2.5-2.5H3a2.503 2.503 0 0 0-2.5 2.5v20.857c0 1.379 1.122 2.5 2.5 2.5h14.857c1.378 0 2.5-1.121 2.5-2.5zm3-11.214h17.857v12.714H23.357zm18.857-1H22.357v14.714h19.857z"/><path fill="#6c8999" d="M28.429 28.707h-6.072v-9.572h6.072v1h-5.072v7.572h5.072zm13.785 0H30.071v-9.572H37v1h-5.929v7.572h10.143v-7.572h-2.5v-1h3.5z"/><path fill="#6c8999" d="M27.658 23.921l1.589-6.357h11.967v12.714H29.248zm14.556-7.357H28.466l-1.839 7.357 1.839 7.357h13.748zM10.571 9.421c.827 0 1.5.673 1.5 1.5v7.143c0 .827-.673 1.5-1.5 1.5H5.143c-.827 0-1.5-.673-1.5-1.5v-7.143c0-.827.673-1.5 1.5-1.5zm2.5 8.643v-7.143c0-1.379-1.121-2.5-2.5-2.5H5.143a2.503 2.503 0 0 0-2.5 2.5v7.143c0 1.378 1.122 2.5 2.5 2.5h5.428c1.379 0 2.5-1.122 2.5-2.5zM1 23.564v-1h13.714v1zm16.286 0v-1h2.57v1zm-5.643 3.357c0 .669-.545 1.214-1.214 1.214-.67 0-1.215-.545-1.215-1.214a1.215 1.215 0 0 1 2.429 0zm1 0a2.216 2.216 0 0 0-2.214-2.214 2.217 2.217 0 0 0-2.215 2.214c0 1.221.994 2.214 2.215 2.214a2.216 2.216 0 0 0 2.214-2.214zm2.5-15.786v-1h2.571v1zm0 1.715v-1h2.571v1zm0 3.428v-1h2.571v1zm0 1.715v-1h2.571v1z"/><path fill="#6c8999" d="M34.5 16.635h-1V2.493c0-.67-.545-1.215-1.214-1.215H13.429c-.67 0-1.215.545-1.215 1.215v3h-1v-3c0-1.222.994-2.215 2.215-2.215h18.857c1.221 0 2.214.993 2.214 2.215z"/></svg>