<svg xmlns="http://www.w3.org/2000/svg" width="51" height="50" viewBox="0 0 51 50"><path fill="#fff" d="M6.596 49.43a5.515 5.515 0 0 1-5.515-5.515V5.95A5.515 5.515 0 0 1 6.596.434h37.967a5.515 5.515 0 0 1 5.515 5.515v37.966a5.515 5.515 0 0 1-5.515 5.515z"/><path fill="#ff4048" d="M50.58 5.948v37.967a6.017 6.017 0 0 1-6.017 6.017H6.596A6.016 6.016 0 0 1 .58 43.915V5.948A6.015 6.015 0 0 1 6.596-.068h37.967a6.016 6.016 0 0 1 6.017 6.016zM6.596.935a5.02 5.02 0 0 0-5.014 5.013v37.967a5.02 5.02 0 0 0 5.014 5.014h37.967a5.02 5.02 0 0 0 5.014-5.014V5.948A5.02 5.02 0 0 0 44.563.935z"/><path fill="#ff4048" d="M28.639 30.892a2.743 2.743 0 1 1 0-5.486 2.743 2.743 0 0 1 0 5.486zm.633-9.283h-6.751c-3.376 0-6.541 7.173-6.541 10.76 0 3.586 6.541 5.063 7.595 5.063 1.055 0 3.798-.844 3.798-2.11s-1.266-1.899-2.321-1.899c-1.055 0-3.375-.211-4.852-.843-1.477-.633 1.688-.422 2.743-1.055 1.054-.633-1.055-.844-.844-2.954.211-2.11 2.109-1.055 2.531 0 .422 1.055 1.688 3.376 4.431 3.165 0 0-.633.844-.844 1.265-.211.422-.211 1.477.844 2.11 1.055.633 6.118-1.266 6.118-5.274 0-4.009-4.22-8.228-5.907-8.228zm-7.806-5.063a4.114 4.114 0 1 1 8.228 0 4.114 4.114 0 0 1-8.228 0z"/></svg>