<svg xmlns="http://www.w3.org/2000/svg" width="51" height="50" viewBox="0 0 51 50"><path fill="#fff" d="M6.716 49.364a5.5 5.5 0 0 1-5.5-5.5V6a5.5 5.5 0 0 1 5.5-5.5H44.58a5.5 5.5 0 0 1 5.5 5.5v37.864a5.5 5.5 0 0 1-5.5 5.5z"/><path fill="#ff4048" d="M50.58 6v37.864a6 6 0 0 1-6 6H6.716a6 6 0 0 1-6-6V6a6 6 0 0 1 6-6H44.58a6 6 0 0 1 6 6zM6.716 1c-2.757 0-5 2.243-5 5v37.864c0 2.757 2.243 5 5 5H44.58c2.757 0 5-2.243 5-5V6c0-2.757-2.243-5-5-5z"/><path fill="#ff4048" d="M29.937 32.427c-.328 1.632-1.633 3.024-3.247 3.393-1.349.304-2.723.002-3.772-.836-1.051-.837-1.653-2.136-1.653-3.477a4.368 4.368 0 0 1 2.655-4.014l.546 1.092h2.364l.544-1.088c1.913.818 2.988 2.823 2.563 4.93zM15.421 22.011v1.461h2.922c0 1.208.983 2.191 2.191 2.191h2.471l.262.525a5.823 5.823 0 0 0-3.463 5.319c0 1.789.802 3.455 2.203 4.571 1.044.833 2.325 1.32 3.649 1.32.451 0 .906-.051 1.359-.154 2.165-.494 3.915-2.343 4.355-4.528a5.877 5.877 0 0 0-3.345-6.521l.266-.532h2.47a2.194 2.194 0 0 0 2.192-2.191h2.922v-1.461zm14.61-1.632c0-.538-.22-1.065-.602-1.443-1.144-1.134-2.543.212-1.239-2.068.249-.436.38-.931.38-1.432 0-1.611-1.311-2.97-2.922-2.97-1.612 0-2.922 1.359-2.922 2.97 0 .501.131.996.38 1.433 1.124 1.967-.194 1.032-1.24 2.068a2.017 2.017 0 0 0-.601 1.442v.171h8.766z"/></svg>