<svg xmlns="http://www.w3.org/2000/svg" width="51" height="50" viewBox="0 0 51 50"><path fill="#fff" d="M6.373 49.363a5.5 5.5 0 0 1-5.5-5.5V6a5.5 5.5 0 0 1 5.5-5.5h37.863a5.5 5.5 0 0 1 5.5 5.5v37.863a5.5 5.5 0 0 1-5.5 5.5z"/><path fill="#ff4048" d="M50.236 6v37.864a6 6 0 0 1-6 6H6.373a6 6 0 0 1-6-6V6a6 6 0 0 1 6-6h37.863a6 6 0 0 1 6 6zM6.373 1c-2.757 0-5 2.243-5 5v37.864c0 2.757 2.243 5 5 5h37.863c2.757 0 5-2.243 5-5V6c0-2.757-2.243-5-5-5z"/><path fill="#ff4048" d="M33.537 28.048a11.094 11.094 0 0 1-3.117 3.117 11.09 11.09 0 0 1-3.116-3.117c-1.039-2.077 1.038-4.155 3.116-2.077 2.078-2.078 4.155 0 3.117 2.077zm-11.054-4.155s-3.428-3.262-3.49-4.155c-.073-1.039 3.116-2.078 3.116-2.078 1.039 1.039.915 5.36.374 6.233zm8.664-5.194a1.04 1.04 0 0 0-.311-1.33c-1.527-1.101-3.532-2.825-3.532-4.903h-5.195s-7.271 4.155-7.271 7.272c0 3.116 6.233 6.233 6.233 6.233-4.156 5.194 1.038 8.31 1.038 8.31v3.117h5.195l1.038-3.117s6.233 0 7.272-5.194c1.421-7.118-7.253-8.307-7.272-8.31a4.625 4.625 0 0 0 2.805-2.078z"/></svg>