<svg xmlns="http://www.w3.org/2000/svg" width="138" height="20" viewBox="0 0 138 20"><path fill="#4cd9be" d="M14.211 14.247h-3.744V7.54l-2.912 4.524h-.469L4.174 7.539v6.708H.43v-13h3.744L7.32 6.161l3.147-4.914h3.744zm15.079-13v13h-3.796v-6.5l-5.564 6.5h-2.861v-13h3.797v6.5l5.564-6.5zm10.92 13l-4.16-5.746v5.746h-3.901v-13h3.901v5.694l3.9-5.694h4.55l-4.732 6.5 4.862 6.5zm4.42-6.5c0-3.874 2.937-6.864 6.89-6.864 2.522 0 4.758 1.326 5.876 3.328L53.99 6.187c-.442-.91-1.378-1.456-2.522-1.456-1.691 0-2.939 1.222-2.939 3.016s1.248 3.016 2.939 3.016c1.144 0 2.106-.546 2.522-1.456l3.406 1.95c-1.118 2.028-3.328 3.354-5.876 3.354-3.953 0-6.89-2.99-6.89-6.864zm24.856-2.756h-3.875v9.256h-3.899V4.991h-3.927V1.247h11.701zm14.299-3.744l-4.446 12.61c-1.456 4.134-4.03 5.772-7.41 5.59v-3.639c1.742 0 2.574-.416 3.173-1.795L70.005 1.247h4.16l3.017 7.982 2.443-7.982zm11.519 6.5c0 1.95-1.3 3.172-3.095 3.172-1.794 0-3.094-1.222-3.094-3.172 0-1.95 1.3-3.172 3.094-3.172 1.795 0 3.095 1.222 3.095 3.172zm3.9 0c0-3.874-2.808-6.864-6.215-6.864-1.742 0-3.015.598-3.874 1.586V1.247h-3.9v18.2h3.9v-6.422c.859.988 2.132 1.586 3.874 1.586 3.407 0 6.215-2.99 6.215-6.864zm11.647 0c0 1.95-1.3 3.172-3.094 3.172-1.794 0-3.095-1.222-3.095-3.172 0-1.95 1.301-3.172 3.095-3.172 1.794 0 3.094 1.222 3.094 3.172zm0-6.5V2.47c-.858-.988-2.132-1.586-3.874-1.586-3.407 0-6.214 2.99-6.214 6.864 0 3.874 2.807 6.864 6.214 6.864 1.742 0 3.016-.598 3.874-1.586v1.222h3.9v-13z"/><path fill="#ff4048" d="M116.861 7.361a1.45 1.45 0 0 1 1.44-1.439c.788 0 1.439.652 1.439 1.44 0 .787-.651 1.439-1.439 1.439a1.45 1.45 0 0 1-1.44-1.44zm8.473-.712c-1.046 0-1.803-.711-1.803-1.848 0-1.136.757-1.85 1.803-1.85 1.046 0 1.803.714 1.803 1.85 0 1.137-.757 1.848-1.803 1.848zM125.789.8c-1.016 0-1.758.348-2.258.924v-.712h-2.273v10.606h2.273V7.877c.5.576 1.242.924 2.258.924 1.984 0 3.621-1.742 3.621-4 0-2.257-1.637-4-3.621-4zm11.806.213l-2.591 7.35c-.849 2.408-2.349 3.362-4.318 3.256v-2.12c1.015-.001 1.5-.244 1.848-1.046l-2.97-7.44h2.424l1.758 4.652 1.425-4.652z"/></svg>