<svg xmlns="http://www.w3.org/2000/svg" width="390" height="250" viewBox="0 0 390 250"><defs><linearGradient id="a" x1="285.34" x2="285.34" y1="52.95" y2="212.69" gradientUnits="userSpaceOnUse"><stop offset="0" stop-color="#4cd9be"/><stop offset=".1" stop-color="#4cd9be" stop-opacity=".96"/><stop offset=".25" stop-color="#4cd9be" stop-opacity=".85"/><stop offset=".45" stop-color="#4cd9be" stop-opacity=".66"/><stop offset=".68" stop-color="#4cd9be" stop-opacity=".41"/><stop offset=".93" stop-color="#4cd9be" stop-opacity=".09"/><stop offset="1" stop-color="#4cd9be" stop-opacity="0"/></linearGradient><linearGradient id="b" x1="171.11" x2="171.11" y1="10.5" y2="250.06" gradientUnits="userSpaceOnUse"><stop offset="0" stop-color="#4cd9be"/><stop offset=".1" stop-color="#4cd9be" stop-opacity=".96"/><stop offset=".25" stop-color="#4cd9be" stop-opacity=".85"/><stop offset=".45" stop-color="#4cd9be" stop-opacity=".66"/><stop offset=".68" stop-color="#4cd9be" stop-opacity=".41"/><stop offset=".93" stop-color="#4cd9be" stop-opacity=".09"/><stop offset="1" stop-color="#4cd9be" stop-opacity="0"/></linearGradient></defs><path fill="url(#a)" d="M245.736 212.687c.102.008 14.734-20.738 32.397-44.563 17.363-23.782 37.757-50.643 42.464-61.895 8.942-22.533 5.065-45.755-10.492-51.817-15.508-6.069-37.935 7.258-48.253 29.81-5.355 11.229-12.41 43.727-14.797 73.013-2.923 29.349-1.177 55.488-1.319 55.452z"/><path fill="url(#b)" d="M341.023 181.064c-2.771-8.363-13.61-11.425-25.371-6.851-10.381 3.741-40.329 25.026-50.955 33.034a323.391 323.391 0 0 0-17.534 9.695 1930.794 1930.794 0 0 1-32.252-19.089c.039-.003.073-.015.112-.018.166-.012.323-.008.485-.012 1.387-9.284 4.406-28.79 8.985-50.032 5.896-29.498 14.812-62.36 15.096-74.279.076-23.911-12.456-42.219-30.24-40.91-17.726 1.302-33.981 21.722-34.057 45.634-.284 11.919 6.874 43.599 17.052 71.917 6.328 18.508 13.927 35.552 18.418 45.183-12.498-7.604-24.2-14.912-35.594-22.129-2.944-3.467-5.561-8.018-7.79-12.747-.988-8.475-3.175-28.166-3.904-49.565-1.48-28.445-.371-59.92-2.685-70.472-5.051-21.193-20.928-34.038-37.392-28.724-16.413 5.307-26.563 26.793-20.744 47.979 2.675 10.569 16.889 37.152 32.739 60.782 10.383 15.886 21.495 30.431 27.655 38.286 1.481 3.398 3.171 6.821 5.055 9.975a7617.67 7617.67 0 0 1-24.622-15.763 9351.397 9351.397 0 0 0-24.344-15.588c-6.834-7.045-17.263-18.009-27.364-29.521-17.576-19.456-34.201-40.476-41.94-45.524-15.625-10.192-35.937-7.931-45.207 5.058-9.273 12.995-2.393 31.812 15.201 41.951 13.845 8.42 77.052 27.345 99.271 33.747 7.455 4.758 14.703 9.41 21.77 13.946 2.989 1.92 5.967 3.83 8.943 5.739-9.637-2.251-23.578-5.208-38.263-7.243-26.909-4.098-56.279-5.099-66.412-1.9-20.358 6.076-33.905 24.36-30.479 39.314 3.427 14.999 22.58 21.278 42.981 15.549 10.16-3.038 36.424-15.394 60.197-25.086 16.727-7.039 32.209-12.753 39.91-15.553 15.37 9.829 30.912 19.662 47.881 30.022-10.709.757-27.65 2.317-45.479 5.548-29.729 4.922-61.85 14.474-71.859 21.513-9.824 6.728-16.986 15.813-20.727 24.991h87.462c7.011-6.064 14.323-12.42 21.376-18.439 14.69-12.715 28.219-23.946 35.385-29.87a1930.463 1930.463 0 0 0 30.662 18.184c-9.631 5.937-20.577 13.383-30.86 21.978l3.101 3.71c10.891-9.104 22.547-16.898 32.518-22.933 14.864 8.578 31.055 17.67 49.129 27.51l2.312-4.248c-17.08-9.299-32.485-17.933-46.671-26.094 8.133-4.734 14.678-8.078 18.025-9.727 16.404-.633 49.996-2.314 57.901-5.677 10.511-4.48 15.866-14.874 13.123-23.251z"/><path fill="#0f3347" d="M266.717 93.535c-14.428 28.855-24.527 54.824-10.821 63.481 13.706 8.656 75.023 31.018 90.171 14.427 15.149-16.592 25.248-56.988 4.329-75.744-20.92-18.756-53.14-31.272-53.14-31.272l-30.539 26.944"/><path fill="#0f3347" d="M273.209 37.268c-17.313-2.164-33.904 7.935-33.904 23.805 0 15.87 13.706 22.363 10.82 38.233-2.885 15.87-28.855 20.198-22.362 42.56 5.61 19.324 35.347 19.478 35.347 19.478l26.69-28.134 1.443-50.496z"/><path fill="#13425c" d="M253.627 182.977l.21-1.427c-13.672-2.011-31.316-17.953-34.464-36.28-1.908-11.106.811-26.983 24.597-39.556 10.989-5.808 8.566-17.854 6.223-29.504-1.353-6.73-2.753-13.69-1.527-19.31 1.608-7.376 4.675-12.371 9.116-14.847 4.671-2.603 11.059-2.54 18.991.186l7.846 47.676-12.13 48.885 1.4.348 12.202-49.174-.024-.147-8.009-48.666-.402-.142c-8.529-3.008-15.451-3.083-20.576-.226-4.819 2.686-8.124 8.001-9.824 15.798-1.29 5.917.14 13.027 1.523 19.904 2.342 11.642 4.553 22.639-5.484 27.944-19.154 10.125-28.154 24.712-25.343 41.075 3.249 18.917 21.515 35.381 35.675 37.463z"/><path fill="#f2aeaf" d="M281.511 87.6l19.343 8.004s-.665 14.787-1.313 26.706c-7.717.284-15.332.878-22.926 1.53 2.319-19.567 4.896-36.24 4.896-36.24z"/><path fill="#ef9295" d="M277.211 118.916c2.143-17.36 4.3-31.316 4.3-31.316l19.343 8.004s-.415 9.219-.908 18.966c-4.327 3.607-9.517 5.713-15.1 5.713-2.651 0-5.211-.483-7.635-1.367z"/><path fill="#f2adae" d="M258.782 75.861c0-20.517 13.241-37.15 29.576-37.15 16.334 0 29.576 16.633 29.576 37.15 0 20.518-13.242 37.151-29.576 37.151-16.335 0-29.576-16.633-29.576-37.15z"/><path fill="#fff" d="M262.8 91.637c5.12 11.054 14.642 18.489 25.558 18.489 9.832 0 18.535-6.032 23.909-15.308.323.332.685.631 1.086.891-5.24 10.397-14.473 17.303-24.995 17.303-11.664 0-21.74-8.487-26.553-20.808a6.23 6.23 0 0 0 .995-.567z" opacity=".5"/><path fill="#fcffff" d="M292.796 90.27c-.131 6.213-4 11.2-8.765 11.2-4.549 0-8.289-4.54-8.734-10.356z"/><path fill="#ef9295" d="M288.358 38.711c16.334 0 29.576 16.633 29.576 37.15 0 5.062-.809 9.885-2.268 14.282-16.488-8.871-46.064-13.2-45.343-43.497 5.242-5.933 10.424-7.935 18.035-7.935z"/><path fill="#13425c" d="M273.93 30.054c6.307-24.775 51.939-23.805 57.71 1.443 5.851 25.598 5.05 44.004 29.576 60.595 24.527 16.592 28.477 38.452 25.969 52.66-4.328 24.527-23.805 36.79-41.118 44.004-17.313 7.214 18.035-41.84-2.164-79.351-17.307-32.142-80.072-39.675-69.973-79.351z"/><path fill="#13425c" d="M346.367 206.664c24.461-11.187 38.046-27.163 41.531-48.84 1.314-8.174 3.304-36.549-26.252-58.494l-.86 1.158c28.904 21.461 26.969 49.136 25.687 57.107-3.402 21.165-16.717 36.786-40.706 47.757z"/><path fill="#13425c" d="M304.896 1.367a33.5 33.5 0 0 1 .708-.008c13.8 0 24.593 8.601 28.952 23.132 1.294 4.312 2.455 8.688 3.579 12.92 5.553 20.913 10.799 40.667 31.333 54.557 22.588 15.28 20.002 29.238 17.501 42.736a350.83 350.83 0 0 0-.494 2.709c-3.398 19.255-16.706 33.472-40.685 43.463-1.712.713-2.892.849-3.411.39-1.459-1.29.273-7.498 2.279-14.687 4.434-15.892 11.855-42.491-.119-64.729-7.115-13.212-21.734-22.273-35.872-31.034-20.523-12.719-39.908-24.733-34.038-47.797 3.066-12.044 16.078-21.353 30.267-21.652zm36.527 180.98c.521.461 1.169.632 1.854.632 1.044 0 2.173-.398 3.068-.771 24.469-10.196 38.061-24.766 41.551-44.544.158-.895.324-1.794.492-2.697 2.465-13.305 5.259-28.385-18.111-44.194-20.087-13.588-25.266-33.088-30.748-53.733-1.126-4.242-2.291-8.63-3.591-12.964C331.307 8.64 319.673-.411 304.866-.076c-14.815.313-28.414 10.088-31.635 22.738-6.132 24.09 13.69 36.375 34.676 49.38 13.978 8.662 28.43 17.619 35.361 30.491 11.7 21.728 4.659 46.961 0 63.658-2.483 8.897-3.981 14.268-1.845 16.156z"/><path fill="#13425c" d="M320.192 95.333l1.255-.711c-4.873-8.598-13.865-12.642-22.562-16.554-13.797-6.205-26.829-12.066-24.238-34.948l-1.434-.162c-2.708 23.928 11.419 30.281 25.08 36.426 8.486 3.816 17.259 7.761 21.899 15.949z"/><path fill="#1d648c" d="M351.796 160.145c9.967-27.765-4.473-49.662-18.166-65.636l-1.095.938c14.273 16.652 27.562 37.303 17.903 64.21z"/><path fill="#1d648c" d="M341.121 185.464c20.976-17.435 19.757-41.657 16.353-60.811l-1.314.233c3.55 19.967 4.437 42.656-15.892 59.552z"/><path fill="#feffff" d="M368.825 249.915c-2.353-26.203-6.133-55.421-11.943-70.269-12.006-30.682-36.685-50.025-62.698-50.025-22.834 0-72.035 10.005-86.709 72.036-4.345 18.366-7.337 34.548-9.408 48.258z"/><path fill="#4cd9be" d="M270.323 153.151l-4.5 22.53-2.254 11.349-2.33 11.394c-1.551 7.6-3.163 15.2-4.779 22.782l-1.898.092-6.996-22.014a4106.154 4106.154 0 0 1-6.914-22.039l.248-.921 7.049-6.286 6.65-5.886-4.952-8.89.102-.721 6.349-6.018 6.358-5.905 6.258-5.848 6.128-5.815-6.213 6.191-6.081 6.158-5.981 6.101-5.66 5.657 5.209 8.89-.141.88-6.934 6.413-6.537 6a3960.58 3960.58 0 0 1 6.92 21.448l5.893 18.5c1.35-6.22 2.71-12.43 4.113-18.64l2.506-11.117 2.581-11.162 5.171-22.492a3172.327 3172.327 0 0 0 5.154-22.827 3023.821 3023.821 0 0 0-4.519 22.196zm4.519-22.196zm-23.935 24.107l-.229-.39-.101.72zm-8.403 22.182l-.173-.533-.248.92zm12.813 39.95l-.78 3.599 1.898-.091zm46.538-83.904c.847 2.216 1.783 4.388 2.713 6.563l1.432 3.245 1.473 3.223c.986 2.148 2.01 4.276 3.027 6.408 1.049 2.115 2.066 4.247 3.141 6.35l-.03-.82c-.757 1.898-1.547 3.783-2.277 5.692-.736 1.907-1.488 3.808-2.189 5.73l.168.84c.808.747 1.603 1.509 2.423 2.245l2.45 2.219 2.483 2.186c.832.724 1.677 1.436 2.528 2.141a132.621 132.621 0 0 0-2.142-2.527l-2.185-2.484-2.219-2.449c-.737-.82-1.498-1.615-2.246-2.424l.168.84c.855-1.858 1.659-3.737 2.48-5.609.826-1.87 1.592-3.765 2.391-5.646l-.03-.821c-1.037-2.12-2.132-4.214-3.195-6.323-1.095-2.092-2.183-4.189-3.31-6.265l-1.695-3.113-1.736-3.092c-1.182-2.049-2.358-4.102-3.623-6.109zm-74.704 116.057c.233-2.489.472-4.962.808-7.42.324-2.459.738-4.901 1.179-7.336.464-2.431.947-4.858 1.508-7.271a331.75 331.75 0 0 1 1.697-7.247c1.124-4.84 2.363-9.692 2.99-14.704.304-2.502.475-5.049.206-7.586-.117-1.266-.392-2.52-.758-3.731a14.591 14.591 0 0 0-1.627-3.401 17.3 17.3 0 0 1 1.089 3.538c.196 1.211.344 2.423.315 3.648.023.608-.031 1.222-.043 1.83-.06.61-.087 1.218-.173 1.826a50.594 50.594 0 0 1-.552 3.638 129.942 129.942 0 0 1-1.61 7.231l-1.782 7.246c-1.138 4.856-2.193 9.763-2.797 14.744a86.268 86.268 0 0 0-.616 7.493c-.066 2.506-.042 5.011.166 7.502z"/><path fill="#ff4048" d="M311.86 195.987c.179-3.088.419-5.951.554-8.73 1.483.069 2.966.12 4.448.162 1.668.061 3.335.099 5.003.126 3.004.076 6.009.08 9.013.097.017 2.486.016 4.972.065 7.458a168.16 168.16 0 0 0-3.928.113c-1.627.063-3.258.119-4.917.212l-5.035.267zm20.01-.906l-.907.906-.02-.887.927-.019zm-1-8.432l1 1-.992-.007a406.09 406.09 0 0 0-.008-.993zm-19.01.582l.582-.582-.028.608-.554-.026zm-.582-.582c.128 3.257.39 6.427.582 9.338l4.801.296c1.631.096 3.29.19 4.971.267 1.675.092 3.38.148 5.088.212 1.707.07 3.43.098 5.15.132l.906-.907c.079-3.112.064-6.225.094-9.338l-1-1c-3.335.026-6.67.021-10.005.104-1.668.028-3.335.065-5.003.126-1.667.049-3.335.107-5.002.189l-.582.581z"/><path fill="#4cd9be" d="M301.855 144.629c-.08 6.524.037 13.038.224 19.549.074 3.256.221 6.509.333 9.763l.445 9.758.553 9.752c.222 3.249.407 6.5.667 9.747.48 6.495 1.03 12.987 1.78 19.469.082-6.524-.034-13.039-.221-19.549-.074-3.257-.223-6.509-.334-9.764l-.448-9.757-.555-9.752c-.221-3.25-.408-6.5-.667-9.747-.48-6.495-1.03-12.987-1.777-19.469zm-3.002-12.329l4.67 117.615h-56.028l28.013-118.96z"/><path fill="#f2aeaf" d="M276.615 123.84c7.594-.652 15.209-1.246 22.926-1.53-.244 4.494-.485 8.581-.688 11.313-1.334 18.009-25.345 18.676-23.344 0 .353-3.299.726-6.578 1.106-9.782z"/></svg>