<svg xmlns="http://www.w3.org/2000/svg" width="76" height="106" viewBox="0 0 76 106"><defs><style>.cls-1{fill:#fff;fill-rule:evenodd}</style></defs><path id="map" class="cls-1" d="M38.479 53.175c.017-.1-.038-.254.13-.271.184-.018.338-.025.194-.275-.079-.137-.064-.233.122-.309.369-.152.2-.391.058-.615a4.564 4.564 0 0 0-.528-.532 3.054 3.054 0 0 1-.689-1.469.523.523 0 0 0-.144-.309.775.775 0 0 1-.2-.929c.059-.253.215-.48-.173-.584-.13-.035-.065-.138-.053-.221a1.382 1.382 0 0 0 .012-.206 2.281 2.281 0 0 0-.429-.549 1.5 1.5 0 0 0 .082-.681c-.092-.269-.244-.031-.253-.044a.985.985 0 0 1-.33-.407 9.586 9.586 0 0 1-.161-1.442c.006-.072-.036-.2.1-.2.076 0 .083.1.081.163 0 .123.01.174.174.2a.3.3 0 0 0 .377-.2 2.4 2.4 0 0 0 .177-1.343 1.148 1.148 0 0 1 .108-.99 2.195 2.195 0 0 1 .951-1.026.529.529 0 0 0 .243-.4c-.012-.6.106-1.184.128-1.775a1.7 1.7 0 0 0-.266-.917c-.219-.343-.25-.49.161-.711a1.164 1.164 0 0 0 .567-1.358.769.769 0 0 0-.385-.529A1.228 1.228 0 0 1 37.93 34c.129-.946-.21-1.867-.129-2.81a2.7 2.7 0 0 1 .082-.543 1.365 1.365 0 0 0-.067-1.461.543.543 0 0 1-.041-.269 2.8 2.8 0 0 1 1.962-2.7 2.061 2.061 0 0 1 .739.058.617.617 0 0 0 .823-.523 1.332 1.332 0 0 0-.238-1.357c-.435-.518-.435-.542-.065-1.106a7 7 0 0 0 1.1-3.933c0-.3.011-.6 0-.9a.409.409 0 0 1 .383-.522.994.994 0 0 0 .867-.934A2.457 2.457 0 0 1 44 15.512c.392-.419.615-.966.992-1.409a.935.935 0 0 0 .04-1.161.882.882 0 0 1 .128-1.242 1.233 1.233 0 0 0 .37-.8 1.911 1.911 0 0 1 .67-1.255.636.636 0 0 1 1.105-.02c.366.34.4.343.6-.107a3.374 3.374 0 0 0 .282-1.479c-.023-.672.153-.822.815-.757a7.488 7.488 0 0 1 1.732.457.517.517 0 0 0 .523.009c.147-.108.321-.221.108-.431a.6.6 0 0 1-.043-.7 1.739 1.739 0 0 0 .2-1.574.174.174 0 0 1 .2-.259c.481.118.8-.374 1.285-.295.217.036.172-.222.157-.376a.422.422 0 0 1 .193-.532.5.5 0 0 1 .552.187 5.127 5.127 0 0 1 1.3 1.931.715.715 0 0 0 .711.607.835.835 0 0 1 .395.106 1.087 1.087 0 0 0 1.47-.326c.415-.433.461-.42.8.091.358.545.569.594 1.092.211.482-.353.787-.891 1.3-1.226a.8.8 0 0 0 .137-.762 5.474 5.474 0 0 1 .386-2.846 1.245 1.245 0 0 1 1.064-.87A3.565 3.565 0 0 0 63.93.239a1.713 1.713 0 0 1 .515-.187c.559-.09.57-.108.838.413a1.247 1.247 0 0 0 .705.613 1.724 1.724 0 0 1 1.079 1.828.905.905 0 0 1-.335.584.848.848 0 0 0-.2 1.164c.124.163-.014.253-.107.342-.15.143-.315.27-.467.411-.065.06-.179.167-.111.226.413.367.023.667-.069.979a3.1 3.1 0 0 0 .19 1.955.757.757 0 0 0 .663.438 1.012 1.012 0 0 1 .859.7 2.274 2.274 0 0 0 .349.673 1.5 1.5 0 0 1 .061 1.9A20.686 20.686 0 0 0 67 14.3a.872.872 0 0 0-.012.74 16.551 16.551 0 0 1 .71 1.937c.153.426.436.808.556 1.258.077.289.152.576.206.872a.7.7 0 0 1-.225.79 2.578 2.578 0 0 0-.28 1.562 1.582 1.582 0 0 1-.026.814c-.166.554-.128.587.362.973a.856.856 0 0 1 .274.812 1.121 1.121 0 0 0 .417 1.046.919.919 0 0 1 .233 1.068 2.384 2.384 0 0 1-.262.562 1.217 1.217 0 0 0 .345 1.81c.718.419.83 1.18 1.278 1.738a1.137 1.137 0 0 1-.022 1 4.963 4.963 0 0 1-.475 1.073 24.566 24.566 0 0 1-5.55 6.216.954.954 0 0 1-1.281.253.3.3 0 0 0-.32.053 3.749 3.749 0 0 1-1.574.355c-.154-.01-.108.107-.161.157a.518.518 0 0 1-.21.157c-.449-.264-.662.2-.968.331a3.543 3.543 0 0 0-.817.206 5.071 5.071 0 0 1-1.595.59c-.19.094-.433.371-.6-.053-.031-.078-.121-.028-.162.026-.278.361-.39.154-.5-.134a2.136 2.136 0 0 1-.236-.493c-.026-.336-.049-.569-.455-.3a.155.155 0 0 1-.227-.084c0-.439-.347-.4-.62-.5a8.414 8.414 0 0 0-1.18-.693c.027-.449-.414-.852-.139-1.322a2.323 2.323 0 0 0 .227-1.058 3.146 3.146 0 0 0-.1-1.653 2.877 2.877 0 0 1-.289-1.653.864.864 0 0 0-.151-.452 1.4 1.4 0 0 1 .348-1.771c.118-.123.044-.385.313-.4.349-.021.531-.128.255-.5a.244.244 0 0 1 .286-.283 1.283 1.283 0 0 0 1.236-.661 8.278 8.278 0 0 0 1.009-1.475 29.807 29.807 0 0 1 1.913-2.453 3.484 3.484 0 0 0 .6-1.134.848.848 0 0 1 .836-.677c.14-.009.362.264.384.012s.507-.416.156-.75a.636.636 0 0 1-.11-.594 1.918 1.918 0 0 0-.85-1.847.885.885 0 0 1-.337-.418c-.053-.192-.108-.342-.377-.225-.141.062-.207-.143-.307-.227-.175-.145-.348-.343-.408.094-.018.129-.127.192-.306.085a.963.963 0 0 0-1.247.054c-.162.144-.281-.008-.38-.152-.11-.16-.237-.328-.4-.032a.1.1 0 0 1-.169.03c-.355-.452-.346-.063-.416.172-.039.131-.112.253-.152.384-.059.191-.138.191-.289.078-.172-.129-.243-.062-.2.143a.538.538 0 0 1-.4.771 3.9 3.9 0 0 0-.416.436c-.273.17.011.351.078.524a1.115 1.115 0 0 1-.273 1.09 1.078 1.078 0 0 0 0 1.541 2.246 2.246 0 0 1 .264.4c.1.2.126.366-.205.257-.092-.03-.155.094-.184.178-.185.528-.634.9-.819 1.434a1.921 1.921 0 0 1-.9 1 1.207 1.207 0 0 0-.78.593.2.2 0 0 1-.167.1.762.762 0 0 0-.887.572.359.359 0 0 1-.314.243c-.515-.115-.56.336-.766.594a.17.17 0 0 0-.027.064c-.048.19-.262.281-.3.447-.036.145-.446-.016-.216.331.146.22-.229.214-.305.363a.25.25 0 0 1-.279.15c-.327-.046-.2.148-.2.321a1.555 1.555 0 0 1-.107.6c-.075.188-.194.381-.471.23s-.4.083-.312.237A2.546 2.546 0 0 1 46.6 34.1a1.87 1.87 0 0 0 .067.476c.021.181.016.346-.247.234-.191-.081-.157.079-.184.175a1.111 1.111 0 0 0-.055.74 1.461 1.461 0 0 1 .058.547 7.167 7.167 0 0 0 .278 2.291.631.631 0 0 1-.242.679 4.479 4.479 0 0 1-1.315.851c-.063.024-.21.029-.155.165a.2.2 0 0 0 .229.109 2.028 2.028 0 0 0 1.751-1.359c.073-.2.092-.2.316-.126.33.112.718.05.746.557a.371.371 0 0 0 .212.156.427.427 0 0 1 .307.462.856.856 0 0 0 .419.519.723.723 0 0 1 .225.978 2.211 2.211 0 0 1-1.277 1.181.272.272 0 0 1-.324-.006c-.47-.6-1.2-.294-1.785-.524a.537.537 0 0 0-.578.133.267.267 0 0 0-.108.237.246.246 0 0 0 .187.051 1.707 1.707 0 0 1 1.258.45 1.314 1.314 0 0 0 1.059.081c.294-.045.579-.142.87-.208.076-.017.186-.073.222.043a.207.207 0 0 1-.076.178.482.482 0 0 0-.363.436c-.09.2-.335.3-.459.508-.178.3-.327.3-.459-.051-.054-.142-.194-.229-.253.017a.87.87 0 0 1-.77.767c-.265.027-.208.457-.509.372a1.367 1.367 0 0 0-.609-.076c-.147.025-.385-.051-.394.157-.007.154.22.086.342.119a3.127 3.127 0 0 1 .46.137.288.288 0 0 1 .164.2c-.011.094-.137.078-.224.083a.366.366 0 0 0-.31.04c.07.056.143.108.208.169a1.184 1.184 0 0 1 0 1.423c-.067.091-.2.179-.129.264.3.373-.05.8.128 1.184a.341.341 0 0 1-.028.268 6.341 6.341 0 0 0-.376 1.874c-.149.654-.524 1.222-.7 1.865a.241.241 0 0 1-.292.121 1.749 1.749 0 0 1-.683-.027 1.423 1.423 0 0 0-1.511.4 1.022 1.022 0 0 0-.386.979 1.094 1.094 0 0 1 .042.542c-.077.195-.126.39-.426.328a2.065 2.065 0 0 0-1.018.095c-.531.158-.7-.03-.674-.617a.648.648 0 0 0-.461-.731.863.863 0 0 1-.289-.841zM14.615 87.138a1.836 1.836 0 0 0 .748-1.374 4.14 4.14 0 0 1 .468-1.84.134.134 0 0 0 0-.126c-.415-.487.032-1.007-.058-1.511-.051-.282.1-.327.311-.129.05.047.118.178.2.041a.2.2 0 0 0-.01-.191 1.341 1.341 0 0 1-.483-1.471.61.61 0 0 0-.523-.737 2.467 2.467 0 0 1-1.218-1.24c-.124-.151.331-.246.143-.487s-.035-.313.177-.366c.059-.015.138-.063.076-.143a.242.242 0 0 0-.167-.1c-.158.011-.315.07-.472.072s-.385-.032-.392-.2c-.026-.615-.549-.512-.877-.574a2.415 2.415 0 0 1-.6-.24 1.73 1.73 0 0 0-1.529-.376 1.044 1.044 0 0 1-.548-.427c-.055-.066.148-.12.24-.165s.237-.084.2-.229a.189.189 0 0 0-.229-.094c-.342.007-.261-.08-.1-.289.124-.161-.091-.128-.181-.144s-.249.053-.269-.115A.3.3 0 0 1 9.7 74.4a2.628 2.628 0 0 1 .695-.294 4.432 4.432 0 0 0 1.3-.377.767.767 0 0 1 .952.185.909.909 0 0 0 1.045.249.989.989 0 0 1 1.041.026.269.269 0 0 0 .32-.052c.14-.115.036-.206-.033-.287a.821.821 0 0 1-.123-.526 1.862 1.862 0 0 0-.347-1.1.936.936 0 0 1-.165-.445c-.028-.2-.08-.409.3-.337.328.064.675-.035.765.455a.6.6 0 0 0 .461.375 3.321 3.321 0 0 0 2.332-.218.915.915 0 0 0 .114-.072.575.575 0 0 0-.121-.138c-.409-.234-.416-.363-.031-.638a2.656 2.656 0 0 1 .888-.369 2.22 2.22 0 0 0 .935-.561.578.578 0 0 0 .223-.651 2.429 2.429 0 0 1 .157-1.208.59.59 0 0 1 .444-.386 6.335 6.335 0 0 1 1.27-.311 4.671 4.671 0 0 0 1.866 1.618 1.514 1.514 0 0 1 .773.737c.119.315.264.455.6.18.308-.251.539-.129.656.259.287.952.294.949 1.206.481a.3.3 0 0 1 .2.008 1.591 1.591 0 0 1 .639.517 3.135 3.135 0 0 0 2.111 1.157c.952.229 1.053.494.574 1.373a4.446 4.446 0 0 0-.525 2.532.462.462 0 0 1-.275.294c-1.17.4-1.489 1.556-2.16 2.4a.629.629 0 0 0-.088.331c-.009.088-.059.208.034.252a.274.274 0 0 0 .218-.128c.6-.373.858-.276.993.412a6.225 6.225 0 0 1 .224.722 1.292 1.292 0 0 0 .028.749.856.856 0 0 1-.1 1.183.37.37 0 0 0-.006.454.882.882 0 0 1 .14.592.863.863 0 0 0 .616 1.022c.4.167.73.388.32.867a10.558 10.558 0 0 0-1.639 1.433 1.02 1.02 0 0 1-1.217.224 2.974 2.974 0 0 0-1.864-.512.71.71 0 0 1-.38-.138 1.5 1.5 0 0 0-.652-.2 5.02 5.02 0 0 0-1.544.847.828.828 0 0 0-.213.886 4.709 4.709 0 0 1 0 .827 2.234 2.234 0 0 1-2 .26 2.876 2.876 0 0 1-1.22-.613.558.558 0 0 0-.634-.136 2.417 2.417 0 0 1-2.124-.086 10.9 10.9 0 0 1-1.776-.874.531.531 0 0 1-.288-.512zM30.163 76.6a.96.96 0 0 1-.139-.381 4.074 4.074 0 0 1 .781-2.539.446.446 0 0 0-.279-.76 3.282 3.282 0 0 0-.675-.076c-.38-.033-.623-.579-1.092-.292a.194.194 0 0 1-.1-.079c-.355-.531-.877-.912-1.268-1.41a.569.569 0 0 1-.05-.809 1.607 1.607 0 0 0 .153-1.686c-.32-.946.143-1.9-.029-2.854-.05-.275.246-.337.482-.382a2.253 2.253 0 0 0 1.02-1.066.2.2 0 0 0-.055-.188c-.588-.429-.328-.837 0-1.279a5.719 5.719 0 0 1 .433-1.064c.394-.191.394-.191.125-.54a.584.584 0 0 1 .372-.671.843.843 0 0 1 1.3.5c.075.133.141.161.258.064a.368.368 0 0 1 .156-.115c.306-.008.305 0 .3-.257a.955.955 0 0 1 .117-.6.619.619 0 0 1 .567-.148c.081-.013.243-.064.162-.121-.4-.284-.137-.751-.339-1.077-.13-.21-.267-.4.057-.582.219-.125.124-.3 0-.466a.886.886 0 0 1-.3-.8.731.731 0 0 1 .978.132c.18.032.361.057.54.1a.46.46 0 0 1 .407.656.361.361 0 0 0 .3.572c.488-.167.857.423 1.35.147.188-.105.188.127.169.254a1.329 1.329 0 0 1-.337.427.39.39 0 0 0 .016.508c.14.153.244-.076.356-.055a1.341 1.341 0 0 0 1.175-.52.467.467 0 0 1 .518-.1c.094.047.191.068.226-.039.2-.6.783-.346 1.165-.537a.219.219 0 0 1 .2.014 6.252 6.252 0 0 1 1.173.958 1.753 1.753 0 0 0 1.145.9.129.129 0 0 1 .03.061 1.669 1.669 0 0 1 .179 1.691 1.085 1.085 0 0 0 .079 1.041 3.274 3.274 0 0 1 .429 1.438 5.37 5.37 0 0 0 .522 2.309 1.664 1.664 0 0 1-.122 1.2.386.386 0 0 1-.681.1c-.281-.311-.361-.062-.6.052-.732.342-1.3.938-2.04 1.246a1.569 1.569 0 0 0-.506.211c-.278.267-1.111.359-.365 1 .261 1.51 1.589 2.1 2.586 2.967a.9.9 0 0 0 1.444-.165 1.08 1.08 0 0 1 1.446-.395 5.247 5.247 0 0 0 1.71.481.612.612 0 0 1 .547.547c.108.521.315 1.017.4 1.544a.653.653 0 0 1-.424.772.811.811 0 0 0-.611.873 1.449 1.449 0 0 1-.69 1.195 3.252 3.252 0 0 1-1.84.65.444.444 0 0 0-.267.04 2.378 2.378 0 0 1-2.376.235 2.6 2.6 0 0 1-2.505-.985.424.424 0 0 0-.5-.111 6.381 6.381 0 0 0-1.141.266 1.336 1.336 0 0 1-1.257-.016c-.224-.057-.459-.012-.681-.069a.658.658 0 0 1-.567-.537 1.5 1.5 0 0 0-1.762-1.263c-.34.039-.677.11-1.016.157a.586.586 0 0 1-.759-.274zM14.615 87.138a1.452 1.452 0 0 0 1.184.714.177.177 0 0 1 .128.037c.425.591 1.164.464 1.726.749a.951.951 0 0 0 .979-.158.644.644 0 0 1 .906.089 3.005 3.005 0 0 0 1.154.61 3.859 3.859 0 0 0 1.965-.079c.175.148.452.265.173.555.235.726-.341.927-.778 1.249a7.492 7.492 0 0 1-2.552 1.312.836.836 0 0 0-.485.37c-.6.9-1.2 1.8-1.827 2.68a1.152 1.152 0 0 0 .394 1.745.265.265 0 0 1 .088.443.489.489 0 0 1-.145.146 2.853 2.853 0 0 0-1.308 1.8.461.461 0 0 1-.5.369 1.351 1.351 0 0 0-1.188.9c-.086.162-.136.344-.226.5a.442.442 0 0 1-.23.233c-.489-.067-.942.238-1.427.132a3.954 3.954 0 0 0-1.978.023 3.431 3.431 0 0 0-2.037 1.084.757.757 0 0 1-1.108-.034 2.713 2.713 0 0 1-.629-1.055 1.443 1.443 0 0 0-1.545-1.074c-.092 0-.183-.016-.275-.024a.733.733 0 0 1 .021-1.2.832.832 0 0 0 .213-1.108 1.064 1.064 0 0 1-.088-.806 1.71 1.71 0 0 0-.1-1.4.674.674 0 0 1 .307-.9.882.882 0 0 0 .358-.76c.142-1 .049-2.078.893-2.884.34-.325.165-.713-.336-.84a2.568 2.568 0 0 0-1.032.016 1.62 1.62 0 0 1-1.61-.281c-.307-.318-.634.221-.971.05a.264.264 0 0 1-.085-.413.941.941 0 0 0 .017-.866 2.439 2.439 0 0 0-.638-1.123.274.274 0 0 1-.013-.425.985.985 0 0 1 .769-.4.691.691 0 0 0 .817-.55.9.9 0 0 1 1.204-.316 4.025 4.025 0 0 0 1.682.31 1.453 1.453 0 0 0 .743-.121.684.684 0 0 1 .53-.037c.65.149 1.3.275 1.958.406a1.068 1.068 0 0 0 .41.045 11.571 11.571 0 0 1 2.6.038 7.467 7.467 0 0 1 1.892.249zM42.5 68.154a.833.833 0 0 1 0-.274 1.551 1.551 0 0 0-.345-1.691.793.793 0 0 1-.066-.668 9.02 9.02 0 0 0-.3-2.086.185.185 0 0 0-.063-.12 1.026 1.026 0 0 1-.127-1.453 2.59 2.59 0 0 0-.079-1.463c.471-.087.494-.1.3-.454-.092-.165-.127-.228.079-.261a.474.474 0 0 0 .2-.018 4.111 4.111 0 0 1 2.05-.878 1.783 1.783 0 0 0 .636-.4 5.5 5.5 0 0 1 2.9-1.313 1.409 1.409 0 0 1 .683 0 .483.483 0 0 1 .2.158c-.266.474.3.713.31 1.113.007.219.168.3.4.2a5.549 5.549 0 0 1 3.393.062 6.944 6.944 0 0 0 2.12-.066 3.778 3.778 0 0 0 1.278-.237 1.552 1.552 0 0 1 .785.314c.246.227.538.468.206.846a14.976 14.976 0 0 1 .7 3.068 1.18 1.18 0 0 1-.6 1.15c-.653.427-.679.556-.168 1.1a.777.777 0 0 1 .2.693 3.608 3.608 0 0 0 .6 2.411 1.156 1.156 0 0 1-.326 1.781 3.457 3.457 0 0 0-1.7 2.89c-.009.327-.32.137-.494.177a.5.5 0 0 1-.656-.2 1.151 1.151 0 0 0-1.085-.3c-.68.169-1.421-.123-2.068.324a.493.493 0 0 1-.62-.172.872.872 0 0 0-1.068-.371.806.806 0 0 1-.594-.126 10.1 10.1 0 0 1-1.732-1.549 1.128 1.128 0 0 0-1.484-.316.759.759 0 0 1-1.028-.517 1.389 1.389 0 0 0-1.286-1.03 4.311 4.311 0 0 1-1.151-.324zm-30.9-6.538h.55a.392.392 0 0 0 .365-.326c-.338-.379.205-.7.03-1.065s.27-.64.2-1.014c-.018-.09.128-.218 0-.3a.227.227 0 0 0-.234.106c-.263.223-.439.28-.7-.086a1.2 1.2 0 0 1 .222-1.914.315.315 0 0 0 .128-.144c0-.139-.134-.081-.2-.086a.762.762 0 0 0-.541.036 1.421 1.421 0 0 1-1.146.36.153.153 0 0 0-.127.03c-.235.458-.463.184-.7 0-.141-.109-.287-.192-.353.073-.022.087-.034.176-.051.265a.368.368 0 0 1-.167-.263.54.54 0 0 1 .038-.444 10.933 10.933 0 0 1 .516-1.277.591.591 0 0 0-.03-.751.585.585 0 0 1-.012-.816c.144-.189.173-.251-.033-.393s-.24-.076-.3.134a.354.354 0 0 1-.4.135c-.216-.031 0-.177 0-.279s.033-.2-.066-.241a.211.211 0 0 0-.217.123.906.906 0 0 0-.122.6c-.007.063-.008.152-.078.148a.262.262 0 0 1-.151-.129.675.675 0 0 1-.014-.537 6.247 6.247 0 0 1 .493-1.443.3.3 0 0 0 0-.329c-.119-.116-.184.048-.262.107a.572.572 0 0 1-.972-.272.1.1 0 0 1 .041-.149 4.274 4.274 0 0 0 .811-1.823c.043-.111.051-.233-.174-.271-.311-.054-.325-.118-.109-.385.114-.141.016-.206-.025-.285a.488.488 0 0 1 .3-.764c.293-.122.512-.264.3-.654a.413.413 0 0 1 .222-.554c.232-.065.142-.309.195-.475A.64.64 0 0 1 9.7 45.7a4.178 4.178 0 0 0 1.688-.121c.236-.042.537-.253.683.037a.749.749 0 0 1-.2.811 16.254 16.254 0 0 1-1.287 1.211c-.169.159-.381.318.065.46.206.066 0 .206-.123.24-.246.068-.328.147-.19.425.118.238.172.26.389.116a3.129 3.129 0 0 1 2.108-.358 6.37 6.37 0 0 0 .824.043c.579-.02.876.394.544.877-.5.732-.479 1.681-1.065 2.362a.987.987 0 0 1-.177.285c-.6.172-.4.418-.117.737.155.175-.036.217-.177.225a.765.765 0 0 0-.707.35c-.1.172-.1.295.127.359a.555.555 0 0 0 .462.034.843.843 0 0 1 .97.134 2.467 2.467 0 0 1 1.3 1.952 4.923 4.923 0 0 0 .7 1.858.254.254 0 0 0 .216.155 1.59 1.59 0 0 1 1.235 1.174 2.906 2.906 0 0 0 .646 1.116.29.29 0 0 1 .049.381c-.119.168-.237.021-.346-.047-.074-.046-.153-.144-.235-.05-.115.133.029.2.107.269a3.512 3.512 0 0 1 .416.36c.565.634.566.627.11 1.333-.092.142-.3.319-.085.473a.438.438 0 0 0 .671-.02 1.187 1.187 0 0 1 1.224-.251 1.065 1.065 0 0 1 .811 1c-.029.617.062 1.277-.654 1.607a.153.153 0 0 0-.089.214c.026.132-.063.286-.16.256-.825-.25-.4.767-.883.853.114.166.014.493.363.485a2.687 2.687 0 0 1 .415 0c.164.022.4-.1.462.16a.471.471 0 0 1-.274.442 3.327 3.327 0 0 1-2.157.768c-.184.005-.37 0-.553.023a1.267 1.267 0 0 1-1.052-.092.463.463 0 0 0-.737.179.209.209 0 0 1-.167.109 5.544 5.544 0 0 0-1.168.284.7.7 0 0 1-.772-.2.314.314 0 0 0-.428-.1 1.866 1.866 0 0 1-.453.163.594.594 0 0 0-.571.556c-.106.524-.188.547-.708.382a4.757 4.757 0 0 1-.262-.09 1.249 1.249 0 0 0-1.52.578.385.385 0 0 1-.508.169c-.24-.089-.335-.155-.067-.387a7.989 7.989 0 0 0 1.565-1.742 1.432 1.432 0 0 1 1.526-.817.949.949 0 0 0 .86-.151 8.754 8.754 0 0 0 .786-1.123.168.168 0 0 0-.017-.129c-.044-.094-.117-.047-.168-.013-.267.18-.538.355-.791.553-.4.314-.546.323-.852-.05-.207-.252-.345-.562-.746-.221a.284.284 0 0 1-.438-.193c-.114-.47-.335-.332-.585-.136a1.257 1.257 0 0 1-.275.207c-.258.1-.369-.066-.468-.274-.086-.18-.164-.313.083-.447.446-.241.882-.5 1.3-.781a.915.915 0 0 0 .445-1.2 2.346 2.346 0 0 1-.023-.414c-.009-.285-.069-.5-.439-.452-.205.026-.241-.087-.09-.231a1.638 1.638 0 0 1 1.534-.759zm44.35 14.138a2.514 2.514 0 0 1 1.152-.017 2.69 2.69 0 0 0 1.37-.012.667.667 0 0 1 .755.16.536.536 0 0 0 .84.009.292.292 0 0 1 .116-.074 5.909 5.909 0 0 0 2.045-.735.511.511 0 0 1 .592.053 2.231 2.231 0 0 1 .937 1.16 3.3 3.3 0 0 0 .661 1.351 3.317 3.317 0 0 1 .681 2.332c-.043.533.031 1.059.034 1.589 0 .434.523.432.679.779.086.192.382.053.554-.063a2.555 2.555 0 0 1 .85-.256c.359-.093.491.049.514.438.045.743-.121 1.03-1.031 1.3a.817.817 0 0 0-.629.692 5.291 5.291 0 0 0-.13 1.165.249.249 0 0 1-.127.285.414.414 0 0 1-.654.078 3.1 3.1 0 0 0-3.733.1 1.556 1.556 0 0 1-1.191.217c-1.131-.138-2.27-.15-3.4-.254a1.122 1.122 0 0 1-.907-.991c-.2-.284-.65-.5-.232-.949.1-.108-.029-.207-.093-.292-.085-.112-.166-.059-.284-.014a1.214 1.214 0 0 1-1.483-.763.765.765 0 0 0-.576-.749.5.5 0 0 1-.377-.446 2.385 2.385 0 0 0-1.13-1.623c1.362-.374 1.871-1.553 2.379-2.66a3.01 3.01 0 0 1 1.823-1.81zm-20.937 2.663a.8.8 0 0 0 .99.064 3.542 3.542 0 0 1 1.157-.293c.54-.186.506-.083.944.363a1.88 1.88 0 0 0 1.353.7c.275-.006.55 0 .824 0 0 .644.455 1.288 0 1.932a17.98 17.98 0 0 0-1.77.624.577.577 0 0 0-.3.977.457.457 0 0 1 .07.632 1.569 1.569 0 0 0 .751 2.1 9.148 9.148 0 0 1 1.238.867 1.346 1.346 0 0 1 .359.809 5.608 5.608 0 0 0 2.387 3.16c.046.037.088.1.161.014.343-.382.829-.035 1.228-.234.177-.089.376.225.266.415a3.665 3.665 0 0 1-.279.3c-.151.2-.169.359.122.472.407.157.8.362 1.2.522a2.237 2.237 0 0 1 .823.492.566.566 0 0 0 .274.2 2.456 2.456 0 0 1 1.6 1.282.66.66 0 0 1 .2.43.393.393 0 0 1-.23.394.267.267 0 0 1-.318-.208c-.2-.779-1.056-.654-1.493-1.108a.327.327 0 0 0-.438.087 1.958 1.958 0 0 0-.641.88c-.177.608-.181.739.343 1.093a1.134 1.134 0 0 1 .5.772.468.468 0 0 1-.378.661.611.611 0 0 0-.512.707.574.574 0 0 1-.342.614 1 1 0 0 0-.383.561.36.36 0 0 1-.435.249.309.309 0 0 1-.243-.424c.23-.441.1-1.064.658-1.338a.286.286 0 0 0 .138-.408 9.12 9.12 0 0 0-.434-1.234 3.213 3.213 0 0 1-.28-.7c-.085-.273-.048-.743-.623-.513a1.062 1.062 0 0 1-.725-.768c-.1-.484-.179-.548-.689-.555a3.685 3.685 0 0 1-.839-.621 1.3 1.3 0 0 0-1.461-.79.709.709 0 0 1-.623-.226 3.509 3.509 0 0 1-.608-.559c-.394-.629-1.068-.991-1.5-1.581a.685.685 0 0 0-.211-.177 3.585 3.585 0 0 1-.774-.6c-.853-.673-.927-1.7-1.278-2.6a.824.824 0 0 0-.45-.547 10.364 10.364 0 0 1-1.028-.567 1.234 1.234 0 0 0-2.013.483.932.932 0 0 1-1.133.52c.08-.6.078-.552-.4-.727a.942.942 0 0 1-.681-1.213.388.388 0 0 0-.058-.361c-.325-.465-.313-.47.064-.876a.425.425 0 0 0 .04-.693.761.761 0 0 1-.058-.98 1.365 1.365 0 0 1 .727-.194 1.447 1.447 0 0 0 1.3-.768c.157-.331.443-.4.69-.027a3.9 3.9 0 0 0 .25.332c.224.267.449.373.6-.048a.759.759 0 0 1 1.157-.547.413.413 0 0 0 .624-.3 3.646 3.646 0 0 1 .59-.923zm18.042-25.105a3.541 3.541 0 0 1 .308-2.59 3.049 3.049 0 0 0 .351-.959 1.824 1.824 0 0 1 1.681-1.49.168.168 0 0 1 .175.065 8.645 8.645 0 0 1 .8 1.111 1.847 1.847 0 0 0 .511.728.731.731 0 0 0 .91.285.23.23 0 0 1 .308.051c.2.221.146 0 .212-.1a3.4 3.4 0 0 0 .364-2.056.907.907 0 0 1 .155-.72 1.72 1.72 0 0 1 2.141-.384 3.088 3.088 0 0 1 1.25.924.768.768 0 0 0 .8.286 1 1 0 0 1 .8 0 1.02 1.02 0 0 0 .481.621.924.924 0 0 1 .251.986c-.069.275-.3.626.193.772a6.373 6.373 0 0 1 .652 1.633.438.438 0 0 1-.3.529 1.108 1.108 0 0 0-.659.662c-.166.372-.379.637-.843.386a.272.272 0 0 0-.4.155.41.41 0 0 1-.563.228c-.424.2-.583-.173-.768-.394a4.354 4.354 0 0 0-1.446-.945 4.546 4.546 0 0 0-1.915-.426c-.993-.1-2-.128-3-.258a1.845 1.845 0 0 0-1.675.631.6.6 0 0 1-.774.269zm2.873 31.756a.331.331 0 0 1 .376.23c.161.623.27.712.845.549a.537.537 0 0 1 .671.125.633.633 0 0 0 .53.068c.385-.007.771-.022 1.154-.056.344-.031.614.213.973.2a1.6 1.6 0 0 0 .957-.285 2.737 2.737 0 0 1 2.761-.5 2 2 0 0 1 1.184.568c.121.179.288-.044.438-.047.179.6.136.743-.411.928a.727.727 0 0 0-.591.737 1.038 1.038 0 0 1-.459.984c-.2.15-.315.292-.045.541a3.116 3.116 0 0 1 .46.756c.1.176 0 .258-.151.293a.941.941 0 0 1-.675.019c-.7-.406-1.246.036-1.832.283l-.062.029c-.318 1.261-1.06 1.714-2.183 1.071-.986-.565-1.828.006-2.732 0a.915.915 0 0 1-.782-.1 4.146 4.146 0 0 0-.143-1.229 1.013 1.013 0 0 0-.456-.582.794.794 0 0 1-.25-1.093 2.86 2.86 0 0 1 .055-.127 1.4 1.4 0 0 0-.055-1.8 1.111 1.111 0 0 1 .423-1.563zm-2.873-31.756a.649.649 0 0 0 .68-.508.269.269 0 0 1 .244-.194 2.9 2.9 0 0 1 1.97-.319 6.074 6.074 0 0 0 1.383.055 1.643 1.643 0 0 1 1.046.216.652.652 0 0 0 .848-.23c.3-.307.529-.251.657.165a.648.648 0 0 0 .716.524 1.147 1.147 0 0 1 1.05.527c.2.22.388.443.566.677a.488.488 0 0 0 .41.21.564.564 0 0 1-.232.4c-.223.219-.233.411.083.587a.285.285 0 0 1 .014.512 3.389 3.389 0 0 1-.392.121 1.222 1.222 0 0 0-1 1.191.727.727 0 0 1-.122.458.653.653 0 0 0 .007.884.157.157 0 0 1 .027.238.184.184 0 0 1-.251.007.546.546 0 0 0-.459-.263 8.7 8.7 0 0 1-.807.348c-.089.013-.081.15-.077.243a.179.179 0 0 1-.164.233 5.054 5.054 0 0 1-2.19.071.84.84 0 0 0-.634-.935 3.435 3.435 0 0 0-.357-.225 1.222 1.222 0 0 1-.006-1 .839.839 0 0 0-.14-.835.6.6 0 0 0-.748-.3c-.627.1-1.071-.455-1.657-.547a.272.272 0 0 1-.135-.216c.015-.719-.371-1.373-.33-2.095zm2.9 22.443a.34.34 0 0 1-.346.38 1.261 1.261 0 0 0-1.02.91c-.269.738-.8 1.373-1.114 2.089a1.951 1.951 0 0 1-1.722 1.1 1.158 1.158 0 0 0-.572-.146 9.222 9.222 0 0 0-2.167.826 1.272 1.272 0 0 1-1.806.105c-.752-.533-1.4-1.2-2.108-1.782a5.841 5.841 0 0 0-.386-.818 1.729 1.729 0 0 0 .682-1.568c.029-.356.081-.525.49-.526.456 0 .456-.044.494-.68a.722.722 0 0 1 .921.216 1.084 1.084 0 0 0 1.6-.086A3.314 3.314 0 0 1 50.852 75a1.557 1.557 0 0 0 .9-.287 2.181 2.181 0 0 1 2.817-.063 1.7 1.7 0 0 1 1.386 1.104zM6.877 59.4a.711.711 0 0 0-.062.88 1.342 1.342 0 0 1 .146 1.189c.372 1.061-.306 2-.36 3-.01.183-.114.265-.266.2a2.46 2.46 0 0 0-1.531.231 5.43 5.43 0 0 0-.84.617.529.529 0 0 1-.617.018.956.956 0 0 1-.342.552 13.021 13.021 0 0 1-1.246.381.368.368 0 0 1-.434-.246c-.188-.3-.3-.747-.841-.468a.325.325 0 0 1-.347-.17.318.318 0 0 1 .174-.269c.049-.048.111-.083.161-.13.087-.084.307-.093.218-.278a.284.284 0 0 0-.319-.055c-.068.013-.133.037-.2.053A.132.132 0 0 1 0 64.852a.205.205 0 0 1 .076-.169 1.347 1.347 0 0 0 1.14-.878.465.465 0 0 1 .39-.089.268.268 0 0 0 .234-.076c-.087-.021-.172-.049-.26-.062a1.684 1.684 0 0 0-.275-.022c-.232 0-.142-.115-.061-.193a1.114 1.114 0 0 0 .37-.789.685.685 0 0 1 .519-.5.212.212 0 0 0 .162-.194.22.22 0 0 0-.245-.191 2.768 2.768 0 0 1-1.062-.213c-.563-.259-.613-.454-.2-.89.047-.05.1-.1.145-.146.124-.117.409-.13.341-.363a.63.63 0 0 0-.482-.2c-.135-.061-.558-.077-.024-.215.113-.03.023-.155.025-.237.02-.623.331-.872.88-.643a1.1 1.1 0 0 0 1.512-.319 1.588 1.588 0 0 1 .384-.289.609.609 0 0 1 .477.03.4.4 0 0 1 .175.106c.362.509.709.679 1.25.155a.818.818 0 0 1 1.138 0 .639.639 0 0 1 .268.935zm56.935-10.94c-.067.013-.137.021-.2.041-1.012.305-1.229.247-1.83-.573a.523.523 0 0 0-.417-.3.421.421 0 0 1-.26-.063c-.726-.714-1.435-.342-2.146.021-.041.021-.084.036-.126.054a2.214 2.214 0 0 1 .06-1.129c0-.123.15-.268-.016-.366a.38.38 0 0 0-.452.013c-.1.079-.186.292-.322.166A3.968 3.968 0 0 1 57.5 46a.709.709 0 0 1-.026-1.048c.09-.1.165-.161-.013-.239-.517-.226-.229-.687-.285-1.041-.052-.33.22-.413.476-.478a1.785 1.785 0 0 0 .6-.3 2.68 2.68 0 0 1 1.552-.43.781.781 0 0 0 .596-.114.823.823 0 0 1 1.007-.24 8.732 8.732 0 0 1 1.3.383 2.7 2.7 0 0 0 2.122.035c.266-.129.412-.061.419.216a.437.437 0 0 1-.1.32c-.046.051-.093.1-.143.151a2.229 2.229 0 0 0-.528 2.146.788.788 0 0 1-.247.849.437.437 0 0 0-.229.465.4.4 0 0 0 .51.237.436.436 0 0 1 .449.251.426.426 0 0 1 .051.565c-.193.16-.307-.086-.424-.217-.178-.2-.316-.37-.35.1a1.8 1.8 0 0 1-.425.85zM2.724 90.341a4.731 4.731 0 0 0 .476-.275c.307-.225.558-.214.706.161a.449.449 0 0 0 .5.257c.645.035 1.265-.238 1.913-.143a.417.417 0 0 1 .378.1 1.546 1.546 0 0 0 .445.516.247.247 0 0 1-.073.307 4.44 4.44 0 0 0-.355.413A1.264 1.264 0 0 0 6.183 93a.806.806 0 0 1-.136.525 1.034 1.034 0 0 0-.073.858.5.5 0 0 1-.408.745.542.542 0 0 0-.286.845 1.084 1.084 0 0 1 .1 1.313 1.269 1.269 0 0 0 .2 1.113.447.447 0 0 1-.132.722.952.952 0 0 0-.382 1.337 1.583 1.583 0 0 1-1.548.289.257.257 0 0 0-.069 0 1.484 1.484 0 0 1-.926-.075 1.38 1.38 0 0 1 .177-.831 15.706 15.706 0 0 1 .034-1.657c.051-.386.081-.557-.391-.427a.849.849 0 0 1-.709-.79 3.452 3.452 0 0 1 .466-1.414 2.819 2.819 0 0 0 .468-1.5 2.6 2.6 0 0 1 .121-.678 3.9 3.9 0 0 0 .066-2.558 1.831 1.831 0 0 1-.031-.476zm53.629 1.11a9.764 9.764 0 0 0 2.524-.43.426.426 0 0 1 .448.073 1.87 1.87 0 0 0 1.845.436.807.807 0 0 0 .587-.627.449.449 0 0 1 .292-.42.779.779 0 0 0 .284.377c.1.121.153.279.025.365a1.591 1.591 0 0 0-.425 1.053c-.168.476-.208.5-.691.34-.371-.12-.753-.2-1.13-.3a.537.537 0 0 0-.461.067.562.562 0 0 1-.644.068.2.2 0 0 0-.259.021 2.241 2.241 0 0 1-.907.459c-.365.2-.4.289-.07.508.267.178.145.2-.019.318a1.065 1.065 0 0 1-1.522-.346c-.051-.076.036-.261-.163-.212a.355.355 0 0 0-.3.244 1.588 1.588 0 0 0 .042 1.214 2.947 2.947 0 0 0 .714 1.08c.166.131.179.289-.112.258s-.242.194-.2.315c.1.306.073.484-.3.474a.213.213 0 0 0-.217.143.2.2 0 0 0 .19.237c.383.056.664.525 1.126.267a.189.189 0 0 1 .262.149 1.041 1.041 0 0 0 .619.76 1.291 1.291 0 0 1 .093.961.139.139 0 0 1-.117.014c-.334-.577-.9-.287-1.369-.378l.002.009c.076-.214.235-.339-.111-.584a3.089 3.089 0 0 0-1.957-.252 1.755 1.755 0 0 0-1.066-.064c-.065.037-.148-.085-.193-.168-.109-.2-.214-.407-.332-.6-.1-.175-.032-.2.134-.272.256-.1.247-.365 0-.376a1.679 1.679 0 0 1-1.045-.832.538.538 0 0 1-.092-.694 8.826 8.826 0 0 1 1-1.462.8.8 0 0 0 .276-.729.251.251 0 0 1 .293-.344 1.434 1.434 0 0 0 1.129-.419.44.44 0 0 1 .312-.132 2.355 2.355 0 0 0 1.505-.569zm-1.781-16.8c-.045.112-.108.118-.2.046a2.1 2.1 0 0 0-1.459-.338 1.123 1.123 0 0 0-1.051.508 1.321 1.321 0 0 1-1.015.323 2.365 2.365 0 0 0-1.892.793.92.92 0 0 1-.732.343.872.872 0 0 1-.893-.21 1.1 1.1 0 0 0-.948-.47l-.415-1.526a.664.664 0 0 1 .675-.481 1.167 1.167 0 0 0 1.2-.805c.171-.3.385-.568.562-.861a.506.506 0 0 1 .751-.215 1.015 1.015 0 0 0 1.037-.022.2.2 0 0 1 .3.044 2.852 2.852 0 0 1 .419.452.429.429 0 0 0 .684.147.668.668 0 0 1 .753-.244 11.3 11.3 0 0 0 1.458-.1 1 1 0 0 1 .909.356.658.658 0 0 0 .558.35 3.837 3.837 0 0 1-.7 1.907zm-21.479-17.6c-.339.055-.636-.207-.978-.132a4.606 4.606 0 0 1-.055-.965 1.043 1.043 0 0 0-.577-1.026.435.435 0 0 1-.339-.54 1.294 1.294 0 0 0-.022-.55 4.949 4.949 0 0 1 .289-2.833 1.079 1.079 0 0 1 1.017-.881 1.263 1.263 0 0 0 1.3-.82 1.069 1.069 0 0 1 .528-.531 1.035 1.035 0 0 1 .559-.219 1.039 1.039 0 0 1 .067.5 1.156 1.156 0 0 1-.16 1.229c-.19.289-.012.69-.173.929a1.369 1.369 0 0 0-.1.748c-.026.168.01.237.221.157a6.359 6.359 0 0 1 .651.057.287.287 0 0 1 .314.454.545.545 0 0 1-.584.38c-.426-.194-.439.071-.452.323-.014.282.059.578-.387.551a.173.173 0 0 0-.169.238c.026.163-.015.272-.2.271-.225 0-.38.038-.18.3-.335.409-.014.984-.354 1.4a.274.274 0 0 0 .015.428c.5.289.042.3-.1.4a.186.186 0 0 0-.13.134zm12.04 22.06a10.355 10.355 0 0 1 1.76 1.5 1.7 1.7 0 0 0 2.122.3 7.75 7.75 0 0 0 .684 1.171c.077.1.22.268.066.357-.2.116-.385.448-.607.322a3.938 3.938 0 0 0-1.762-.181 3.306 3.306 0 0 1-.946-.145 1.677 1.677 0 0 0-1.239.123c-.1.042-.177.144-.281.013-.085-.107-.091-.373-.32-.214a.472.472 0 0 0-.231.528 1.417 1.417 0 0 0 .1.4 1.815 1.815 0 0 1 .385 1.224.445.445 0 0 0 .238.323 8.045 8.045 0 0 0 1.143 1.1 1.842 1.842 0 0 1 .5.884c.065.124-.057.119-.155.1a1 1 0 0 1-.685-.412 1.3 1.3 0 0 0-1.064-.624 2.09 2.09 0 0 1-1.2-.856 2.4 2.4 0 0 1-.743-1.563.9.9 0 0 0-.393-.55c-.171-.174-.372-.318 0-.493.112-.053-.025-.157-.016-.24a.136.136 0 0 1 .148-.213.416.416 0 0 0 .526-.384.724.724 0 0 1 .391-.534.3.3 0 0 0 .236-.294c-.102-1.004.766-1.203 1.343-1.642zm-15.79-17.373a1.9 1.9 0 0 1-.574 1.528c-.243.177-.147.407.086.558.114.074.251.115.364.191a.2.2 0 0 1 .031.34 1.959 1.959 0 0 0-.741 1.1c-.125.236-.24.268-.4.095-.182-.2-.354-.035-.481.022-.167.075.021.235.02.357a3.581 3.581 0 0 1-.119 1.69c-.2.379.24.619.136.955a.521.521 0 0 1-.829-.368 1.581 1.581 0 0 0-1.849-1.217.426.426 0 0 1-.383-.084.511.511 0 0 0-.067-.111c-.126-.122-.428.079-.437-.171-.006-.19.26-.117.4-.171.343-.13.688-.253 1.034-.376.1-.034.172-.086.121-.189a.211.211 0 0 0-.178-.057c-.089.012-.169.074-.258.091a.585.585 0 0 1-.659-.265.42.42 0 0 1 .159-.548 2.5 2.5 0 0 0 .728-1.664 2.06 2.06 0 0 1 .144-.457c.05-.133.135-.286.29-.166.114.088.294.168.135.432-.331.551-.208.936.269 1.112a.261.261 0 0 0 .318-.025.209.209 0 0 0-.014-.255.527.527 0 0 1 .076-.523c.1-.271.471-.605-.036-.922a.768.768 0 0 1 .147-.939 1.208 1.208 0 0 1 .873-.352 1.045 1.045 0 0 0 .475-.021.854.854 0 0 1 1.219.41zM24.605 66.9a2.917 2.917 0 0 0 .731-.156.772.772 0 0 1 .885.334.438.438 0 0 0 .373.249.4.4 0 0 1 .385.468c.046.653.056.652.687.774a.385.385 0 0 0 .017.136 1.309 1.309 0 0 1-.234 1.658 1.084 1.084 0 0 0-.058.7.225.225 0 0 0-.238.1.476.476 0 0 1-.654.409.806.806 0 0 1-.631-.719v-.276c0-.135.017-.289-.169-.326a.314.314 0 0 0-.339.18c-.077.122-.016.359-.257.343a.541.541 0 0 1-.433-.382c-.019-.791-.744-.806-1.187-1.1a.969.969 0 0 1-.43-.391c-.072-.163-.132-.353-.393-.206-.1.058-.19-.049-.27-.147a1.023 1.023 0 0 1-.268-.819 1.348 1.348 0 0 1 1.492-.666 1.368 1.368 0 0 0 .991-.163zm20.527 12.21a2.7 2.7 0 0 1-.941.878c-.217.125-.381.221-.237.526s.042.524-.334.625a.661.661 0 0 0-.354.625.558.558 0 0 1-.165.481c-.18.1-.257-.146-.4-.193a.161.161 0 0 0-.209.121.363.363 0 0 1-.161-.206c-.247-.411-.261-.41-.544-.079-.418.489-.542.508-1.123.174-.143-.082-.262-.135-.143-.358s.192-.51-.239-.52a.836.836 0 0 0-.024-.762c-.308-.387.055-.778.023-1.17a1.172 1.172 0 0 1 .956.229.9.9 0 0 0 1-.274.47.47 0 0 1 .46-.235 3.358 3.358 0 0 0 2.02-.556 1.023 1.023 0 0 1 .526.476.175.175 0 0 1-.11.219zM33.721 94.347a11.656 11.656 0 0 1-.015 1.381c-.035.288-.083.686-.6.526-.241-.075-.267.193-.374.326-.325.4-.473.387-.783-.024a1.921 1.921 0 0 1-.226-1.451 2.3 2.3 0 0 0-.343-1.978c-.226-.244-.113-.41.273-.484a2.729 2.729 0 0 0 .945-.67c.443-.3.666-.281.873.209a2.988 2.988 0 0 1 .3 1.406c-.02.252-.025.506-.037.759h-.013zm8.945 7.235a.919.919 0 0 1-.789-.4.853.853 0 0 0-.553-.381 2.319 2.319 0 0 1-1.157-.562 3.545 3.545 0 0 0-1.1-.542.678.678 0 0 1-.383-1 .33.33 0 0 1 .144-.135c.544.306 1.272-.449 1.738.3a.2.2 0 0 0 .184.056c.437-.183.942-.01 1.352-.22s.864-.1 1.255-.317a.259.259 0 0 1 .32.052.265.265 0 0 1-.082.305 5.9 5.9 0 0 0-.5.9.9.9 0 0 0-.007.908.809.809 0 0 1 0 .727.325.325 0 0 1-.421.309zM6.877 59.4a1.063 1.063 0 0 0-.077-.533.872.872 0 0 0-1.4-.167 3.37 3.37 0 0 0-.189.189c-.312.334-.481.338-.747-.036a1.345 1.345 0 0 0-.497-.553c-.257-.372.057-.6.234-.844A2.5 2.5 0 0 1 4.8 56.8a1.047 1.047 0 0 0 .079-.669.316.316 0 0 1 .533-.252c.14.132.039.242-.032.363-.038.064-.16.134-.053.223a.2.2 0 0 0 .254-.018 1.041 1.041 0 0 1 .222-.163 1.009 1.009 0 0 1 1.1-.088 1.2 1.2 0 0 1 .571 1.3c-.06.178-.021.217.161.262.336.083.332.107.23.5a.407.407 0 0 0 .055.261.536.536 0 0 1 .024.188c-.439.102-.501.793-1.067.693zm49.616 39.536a1.086 1.086 0 0 0 .413.9c.089.072.3.173.154.29a.409.409 0 0 1-.485.139c-.184-.117-.428-.418-.547-.292-.191.2.131.431.207.659a4.069 4.069 0 0 1 .26 1.136.376.376 0 0 1-.042.258.216.216 0 0 1-.234-.1c-.048-.049-.093-.1-.14-.153-.324-.347-.369-.341-.563.092-.034.077-.016.21-.142.187a.2.2 0 0 1-.1-.226.923.923 0 0 0-.239-.559c-.193-.2-.345-.387-.539.012-.131.27-.282.152-.386-.049a.593.593 0 0 1-.033-.531.6.6 0 0 0-.349-.843.553.553 0 0 1-.4-.639 1.056 1.056 0 0 1 .557-.659 1.535 1.535 0 0 1 1.515.025c.365.137.741.242 1.112.361zM38.479 53.175a1.571 1.571 0 0 1 .28.841c.026.277.134.546-.276.7a.372.372 0 0 0-.116.694c.1.083.157.26.089.3a1.037 1.037 0 0 0-.5.733c-.04.154-.522.071-.549-.13a.406.406 0 0 0-.537-.367.462.462 0 0 1-.466-.477.951.951 0 0 0-.235-.867c-.052-.032 0-.149.063-.158a.913.913 0 0 0 .795-.634.176.176 0 0 1 .241-.052c.1.034.051.109.027.163a.458.458 0 0 0 .166.6.85.85 0 0 0 .45-.6c.032-.176-.342-.243-.107-.449a1.363 1.363 0 0 1 .675-.297zm-4.962 36.3a6.575 6.575 0 0 1-.363 1.412c-.131.353-.5.413-.664.087a1.566 1.566 0 0 1-.373-.928 1.586 1.586 0 0 0-.108-.6.6.6 0 0 1 .3-.753c.324-.165.642-.34.963-.511zM73.367 106a1.6 1.6 0 0 1-.617-.249.625.625 0 0 1-.312-.509c.019-.231.294-.173.44-.27.89-.593 2.045-.425 2.935-1.022a.36.36 0 0 1 .188.038.459.459 0 0 1-.1.166 1.343 1.343 0 0 0-.641.861 1.274 1.274 0 0 1-.8.564 2.5 2.5 0 0 1-1.093.421zm-13.479-.662a.513.513 0 0 1-.444-.1 1.777 1.777 0 0 0-1.573-.489.479.479 0 0 1-.453-.071.406.406 0 0 1 .1-.444c.129-.157.274-.31.516-.124.1.08.265-.059.384.195a.674.674 0 0 0 .818.139.633.633 0 0 1 .708.085.256.256 0 0 0 .182.082c.573-.143 1.032.3 1.576.3a.218.218 0 0 1 .15.084.183.183 0 0 1-.182.171 6.879 6.879 0 0 0-1.782.172zM4.8 56.8a2.458 2.458 0 0 1-.7 1.078.887.887 0 0 0-.129.425.643.643 0 0 1-.4-.13c.087-.232.167-.459-.235-.419a1.043 1.043 0 0 1-.274 0c-.1-.017-.244.063-.279-.095a.248.248 0 0 1 .152-.207.638.638 0 0 0 .326-.494.82.82 0 0 1 .5-.679.871.871 0 0 1 .709-.191c.312.062.126.386.2.582a.21.21 0 0 0 .13.13zm43.121-7.147a2.352 2.352 0 0 1 .635-1.632.432.432 0 0 1 .315-.236c.16.032.312-.181.443-.018.117.145-.04.243-.116.35a.673.673 0 0 0-.062.536c.134.756-.539 1.052-.871 1.539-.078.114-.168-.008-.2-.083-.058-.147-.095-.303-.141-.455zm-13.039 5.233c.153.2.483-.081.552.132a1.709 1.709 0 0 1 .219 1.167.728.728 0 0 1-1.011.051.959.959 0 0 0-.18-.189.732.732 0 0 1-.432-.833 1.261 1.261 0 0 1 .852-.328zm20.53-8.48a.218.218 0 0 0-.316.157.524.524 0 0 1-.2.325 4.267 4.267 0 0 1-.443-.592c-.036-.154-.075-.413.055-.443.538-.123.963-.618 1.582-.47a.818.818 0 0 1 .409.229c.06.06.142.127.034.213-.266.213-.531.427-.8.63a.322.322 0 0 1-.321-.049zm-48.622.037a.418.418 0 0 1-.2.471c-.265.129.165.5-.177.648a.7.7 0 0 0-.53.385.182.182 0 0 1-.212.135.2.2 0 0 1-.039-.247 1.22 1.22 0 0 0-.116-.459.632.632 0 0 1 .018-.327c.471-.135.522-.718.957-.877a.428.428 0 0 1 .256-.053c.139.059.074.191.043.324zm16.418 48.941a.876.876 0 0 1-.344.548.443.443 0 0 1-.521-.19c-.1-.076-.113-.263-.3-.217-.1.025-.237.115-.3-.019a.277.277 0 0 1 .171-.332c.164-.12.353-.205.523-.319.22-.146.371-.216.442.15.021.132.352.105.329.379zm11.8-16.967a.7.7 0 0 1-.452.815.208.208 0 0 0-.092.294c.15.4-.041.459-.357.351a2.552 2.552 0 0 1-.6-.1c-.428-.332-.495 0-.618.275a.231.231 0 0 1-.034.06 1.367 1.367 0 0 1-.363.679 1.39 1.39 0 0 1-.8-.675.885.885 0 0 1-.11-.249c-.087-.207-.2-.113-.311-.026a.55.55 0 0 0-.175.359.626.626 0 0 1-.487.525 4.454 4.454 0 0 1-1.555.158 1.627 1.627 0 0 1-.304-.983c.033-.171-.109-.23-.265-.229a.438.438 0 0 0-.421.159c-.134.182-.234.556-.519.406-.259-.136.014-.46-.022-.7a.526.526 0 0 1 .134-.45c.451-.459.661-1.094 1.13-1.54a.5.5 0 0 0 .232-.328.289.289 0 0 1 .385-.334 1.421 1.421 0 0 0 .758-.273.976.976 0 0 0 .918.069 2.767 2.767 0 0 1 2.129.139.978.978 0 0 1 .669 1.178.426.426 0 0 0 .547.408.882.882 0 0 1 .588.012zm14.138-6.662a.717.717 0 0 0-.634.335 14.127 14.127 0 0 1-.835 1.279 1.094 1.094 0 0 1-.892.429 1.1 1.1 0 0 0-.825.319.394.394 0 0 0-.5-.417 1.926 1.926 0 0 1-1.293-.331 1.747 1.747 0 0 0-.712-.218.681.681 0 0 0-.833.395 1.1 1.1 0 0 1-1.694.317c-.834-.569-1.462-1.367-2.253-1.98a.782.782 0 0 1-.334-.779.556.556 0 0 0-.374-.654.5.5 0 0 1-.3-.358c-.024-.146.033-.341.2-.211.24.184.318.1.454-.1a1.653 1.653 0 0 1 .962-.49 1.059 1.059 0 0 0 .662-.434 1.168 1.168 0 0 1 .8-.5.628.628 0 0 0 .649-.677.213.213 0 0 1 .088-.165c.115-.056.149.055.2.129a4.3 4.3 0 0 0 .276.393.383.383 0 0 0 .538.114 1.063 1.063 0 0 0 .093.076.494.494 0 0 1 .871.054.29.29 0 0 0 .352.117c.269-.055.549-.184.733.19a1.087 1.087 0 0 1 .464.694.833.833 0 0 0 .584.691c.227.136.3-.09.374-.177a.5.5 0 0 1 .753-.111.885.885 0 0 0 .517.133c.1 0 .223.033.216.123a.7.7 0 0 0 .623.687.646.646 0 0 1 .288.29 2.614 2.614 0 0 0 .787.837z"/></svg>