<svg xmlns="http://www.w3.org/2000/svg" width="96" height="71" viewBox="0 0 96 71"><defs><style>.cls-1{fill:#fff;fill-rule:evenodd}</style></defs><path id="handshake" class="cls-1" d="M94.747 19.737L76.4 1.416a1.512 1.512 0 0 0-2.136 0l-9.164 9.16a1.508 1.508 0 0 0 0 2.133l.915.914-2.1 2.1a4.727 4.727 0 0 1-5.27.924 13.141 13.141 0 0 0-5.387-1.161A13.009 13.009 0 0 0 47 17.08a10.193 10.193 0 0 0-5.913.315 4.708 4.708 0 0 1-4.987-1.047l-3.775-3.77.45-.449a1.507 1.507 0 0 0 0-2.134L23.603.835a1.512 1.512 0 0 0-2.136 0L1.049 21.227a1.507 1.507 0 0 0 0 2.133l9.172 9.16a1.512 1.512 0 0 0 2.137 0l.547-.546 2.663 2.659a4.612 4.612 0 0 1 1.288 2.423 23.682 23.682 0 0 0 6.571 12.458l.5.5a5.426 5.426 0 0 0 3.944 9.162c.091 0 .181 0 .272-.007a5.429 5.429 0 0 0 5.427 5.7h.121a5.436 5.436 0 0 0 9.276 3.958c.087-.086.168-.176.247-.266a5.1 5.1 0 0 0 1.672.285 5.086 5.086 0 0 0 4.74-3.246l.155.154a5.082 5.082 0 0 0 8.353-1.823 5.079 5.079 0 0 0 7.922-5.3 5.07 5.07 0 0 0 3.12-7.905l1.212-1.21a23.673 23.673 0 0 0 6.6-12.614 4.072 4.072 0 0 1 1.153-2.16l4.507-4.5.792.791a1.512 1.512 0 0 0 2.137 0l9.172-9.16a1.506 1.506 0 0 0-.002-2.136zM11.29 29.321l-7.036-7.027L22.537 4.035l7.036 7.026zm18.29 26.136a2.421 2.421 0 0 1-3.416 0 2.414 2.414 0 1 1 3.416 0zm5.7 5.691a2.411 2.411 0 1 1 0-3.412 2.4 2.4 0 0 1-.002 3.412zm5.553 5.545a2.411 2.411 0 1 1 0-3.412 2.4 2.4 0 0 1-.002 3.412zm25.655-11.581a2.056 2.056 0 0 1-2.908 0L48.925 40.479a1.51 1.51 0 0 0-2.136 2.134l15.786 15.763a2.054 2.054 0 0 1 0 2.906 2.063 2.063 0 0 1-2.911 0L57 58.623l-.044-.046-.014-.013L44.7 46.338a1.51 1.51 0 0 0-2.137 2.133l12.283 12.266a2.052 2.052 0 0 1-.02 2.884 2.061 2.061 0 0 1-2.908 0L38.6 50.322a1.51 1.51 0 0 0-2.136 2.133l9.871 9.858.008.008a2.055 2.055 0 0 1-1.456 3.506 2.1 2.1 0 0 1-.39-.038 5.429 5.429 0 0 0-5.375-6.233L39 59.56a5.427 5.427 0 0 0-5.432-5.548q-.136 0-.272.007a5.427 5.427 0 0 0-6.653-5.555l-1.083-1.082A20.677 20.677 0 0 1 19.825 36.5a7.615 7.615 0 0 0-2.121-4l-2.663-2.66 15.15-15.13 3.776 3.77a7.707 7.707 0 0 0 5.451 2.225 7.928 7.928 0 0 0 2.706-.476 7.131 7.131 0 0 1 1.32-.338l-9.354 9.342a6.055 6.055 0 0 0 8.568 8.557l4.7-4.692 1.272 1.271.053.053.051.051.043.042 17.712 17.691a2.054 2.054 0 0 1-.001 2.906zM76 32.606a7.072 7.072 0 0 0-1.99 3.76 20.67 20.67 0 0 1-5.76 11.014l-1.161 1.16L57.533 39c.208.015.416.026.626.026a7.72 7.72 0 0 0 2.944-.572 1.509 1.509 0 1 0-1.144-2.793c-3.888 1.589-8.549-2.79-9.068-3.294l-.026-.025-.053-.053-.047-.047-1.272-1.271 1.442-1.44a1.51 1.51 0 1 0-2.135-2.139l-2.507 2.5-5.764 5.756a3.044 3.044 0 0 1-4.3 0 3.031 3.031 0 0 1 0-4.29l9.948-9.936A10.082 10.082 0 0 1 48 19.986a9.979 9.979 0 0 1 5.251-1.486 10.1 10.1 0 0 1 4.138.891 7.766 7.766 0 0 0 8.655-1.538l2.1-2.1L80.511 28.1zm8.5-4.777L68.3 11.644l7.036-7.027L91.543 20.8zm1.522-7.382a1.509 1.509 0 1 1-1.511 1.509 1.51 1.51 0 0 1 1.518-1.508zM10.5 21.939a1.509 1.509 0 1 1-1.511 1.509 1.51 1.51 0 0 1 1.511-1.509z"/></svg>