<svg xmlns="http://www.w3.org/2000/svg" width="13" viewBox="0 0 13 16"><defs><style>.cls-1{fill:#1b1b1b}</style></defs><title>line_1</title><g id="Layer_2" data-name="Layer 2"><path class="cls-1" d="M1.5 16A1.54 1.54 0 0 1 0 14.5v-5A1.54 1.54 0 0 1 1.5 8 1.54 1.54 0 0 1 3 9.5v5A1.54 1.54 0 0 1 1.5 16zm5 0A1.54 1.54 0 0 1 5 14.5v-13A1.54 1.54 0 0 1 6.5 0 1.54 1.54 0 0 1 8 1.5v13A1.54 1.54 0 0 1 6.5 16zm5 0a1.54 1.54 0 0 1-1.5-1.5v-9A1.54 1.54 0 0 1 11.5 4 1.54 1.54 0 0 1 13 5.5v9a1.54 1.54 0 0 1-1.5 1.5z" id="Layer_1-2" data-name="Layer 1"/></g></svg>