<svg xmlns="http://www.w3.org/2000/svg" viewBox="0 0 41 41"><defs><style>.cls-1{fill:#fff;stroke:#e3e3e3;stroke-miterlimit:10}.cls-2{fill:#f25f23}</style></defs><title>car</title><g id="Layer_2" data-name="Layer 2"><g id="Layer_1-2" data-name="Layer 1"><circle class="cls-1" cx="20.5" cy="20.5" r="20"/><path class="cls-2" d="M18.2 12a17 17 0 0 1 4.5 0c1 .2 2.1.4 3.1.7a2.38 2.38 0 0 1 1.6 1.5c.4 1.2.9 2.5 1.3 3.7.1.2.3.5.5.5 1-.1 1.4.4 1.8 1.3a1.63 1.63 0 0 1 0 .7l-1.2.3c.1.4.1.9.2 1.3v6a1.33 1.33 0 0 1-.4 1 12.65 12.65 0 0 1-3.4.1c-.8-.5-.3-1.4-.5-2.1H15.5c-.2.7-.3 2-.6 2.1a9.63 9.63 0 0 1-3.4 0 2.1 2.1 0 0 1-.4-1.1 20.85 20.85 0 0 1 0-2.5c0-1.6 0-3.1.1-4.7-.3-.1-.7-.2-1.1-.3 0-.2-.1-.3 0-.5.3-.9.7-1.5 1.8-1.4a.7.7 0 0 0 .4-.5 17.6 17.6 0 0 0 1-3 3.62 3.62 0 0 1 3.2-2.7 5.93 5.93 0 0 1 1.7-.4zm-4.6 6.7a31.66 31.66 0 0 0 13.7 0c-.4-1.2-.8-2.3-1.1-3.4a1.78 1.78 0 0 0-1.7-1.4c-2.2-.1-4.4-.2-6.5-.2a15.17 15.17 0 0 0-2.1.3 1.58 1.58 0 0 0-.8.5c-.5 1.4-1 2.7-1.5 4.2zm.9 5.1a3.75 3.75 0 0 0 1.1-.1 1.28 1.28 0 0 0 .7-.5c.1-.2-.2-.6-.4-.7-.9-.4-1.7-.8-2.6-1.1a.81.81 0 0 0-1.1.5c-.2.9 0 1.5.7 1.6a9 9 0 0 0 1.6.3zm12.1 0c.5-.1 1.1-.1 1.7-.2.8-.2.6-.8.6-1.4s-.3-.8-.7-.7a20.82 20.82 0 0 0-3.2 1.2c-.5.2-.3.9.2 1a7.6 7.6 0 0 1 1.4.1z"/></g></g></svg>