<svg xmlns="http://www.w3.org/2000/svg" width="16" viewBox="0 0 16 11.01"><defs><style>.cls-1{fill:#1b1b1b}</style></defs><title>delivery</title><g id="Layer_2" data-name="Layer 2"><path class="cls-1" d="M1.2 0h9.3v1.7h3.7L16 4.8v4.6h-1.4a2.08 2.08 0 0 1-2.7 1.5 2.25 2.25 0 0 1-1.5-1.5H5.8a2.08 2.08 0 0 1-2.7 1.5 2.25 2.25 0 0 1-1.5-1.5H0V0zm10.3 8.7a1 1 0 0 0 1 1 1 1 0 1 0-1-1zm-1-4.3v3.5a2.34 2.34 0 0 1 2.9-1.2 2.08 2.08 0 0 1 1.2 1.4h.2V5l-1.3-2.2h-3v1.6zM2.7 8.7a1 1 0 0 0 1 1 1 1 0 1 0-1-1zm-1.5-.6h.4a2.08 2.08 0 0 1 2.7-1.5 2.25 2.25 0 0 1 1.5 1.5h3.5V1.2H1.2z" id="Layer_1-2" data-name="Layer 1"/></g></svg>