<svg xmlns="http://www.w3.org/2000/svg" viewBox="0 0 24.75 16.1"><defs><style>.cls-1{fill:#a4a4a4}</style></defs><title>car_1</title><g id="Layer_2" data-name="Layer 2"><path class="cls-1" d="M.85 2.1h4v-1A1.11 1.11 0 0 1 6 0h9.5a1.11 1.11 0 0 1 1.1 1.1v.5h3.7a1.23 1.23 0 0 1 1 .5l3.2 5a1.93 1.93 0 0 1 .3 1v4.8a1.11 1.11 0 0 1-1.1 1.1h-1.3a3 3 0 0 1-2.8 2.1 2.8 2.8 0 0 1-2.8-2.1h-3.5a3 3 0 0 1-2.8 2.1A2.8 2.8 0 0 1 7.65 14h-1.6A1.11 1.11 0 0 1 5 12.9v-1h-.8a1 1 0 0 1-1-.9 1.17 1.17 0 0 1 .9-1.1H6a.94.94 0 0 0 1-1 1.08 1.08 0 0 0-1-1H2.65a.89.89 0 0 1-1.1-.8 1 1 0 0 1 .9-1.1h3.6a.89.89 0 0 0 1.1-.8 1 1 0 0 0-.9-1.1h-5.2a1 1 0 0 1-1-.9.8.8 0 0 1 .8-1.1zm18.7 12.2a1.2 1.2 0 1 0-1.2-1.2 1.16 1.16 0 0 0 1.2 1.2zm-1.9-7.2a.32.32 0 0 0 .3.3h4.3a.32.32 0 0 0 .3-.3V7l-2.3-3.5c0-.1-.1-.1-.2-.1H18a.32.32 0 0 0-.3.3zm-7.3 7.2a1.2 1.2 0 1 0 0-2.4 1.2 1.2 0 1 0 0 2.4z" id="Layer_1-2" data-name="Layer 1"/></g></svg>