<svg xmlns="http://www.w3.org/2000/svg" viewBox="0 0 14 19.94"><defs><style>.cls-1{fill:#a4a4a4}</style></defs><title>certificate</title><g id="Layer_2" data-name="Layer 2"><path class="cls-1" d="M11.4 0H2.6A2.56 2.56 0 0 0 0 2.5v12.6a2.56 2.56 0 0 0 2.6 2.5h4.2v1.9c0 .2.1.3.3.4a.44.44 0 0 0 .5-.1l1.2-1.2 1.2 1.2a.37.37 0 0 0 .3.1h.2c.2-.1.3-.2.3-.4v-1.9h.6a2.56 2.56 0 0 0 2.6-2.5V2.5A2.63 2.63 0 0 0 11.4 0zM9.2 17.8a.37.37 0 0 0-.3-.1.37.37 0 0 0-.3.1l-.8.7v-2.4a3.59 3.59 0 0 0 1.1.2 4.25 4.25 0 0 0 1.1-.2v2.4zM6.3 13a2.46 2.46 0 0 1 2.5-2.4 2.4 2.4 0 1 1 0 4.8A2.46 2.46 0 0 1 6.3 13zM2.4 5.1h9.2a.43.43 0 0 1 .4.4.43.43 0 0 1-.4.4H2.4a.43.43 0 0 1-.4-.4.43.43 0 0 1 .4-.4zM2 3a.43.43 0 0 1 .4-.4h9.2a.43.43 0 0 1 .4.4.43.43 0 0 1-.4.4H2.4A.43.43 0 0 1 2 3zm.4 4.8h9.2a.4.4 0 0 1 0 .8H2.4a.4.4 0 0 1 0-.8z" id="Layer_1-2" data-name="Layer 1"/></g></svg>