<svg xmlns="http://www.w3.org/2000/svg" viewBox="0 0 21 21"><defs><style>.cls-1{fill:#84519c}</style></defs><title>compas</title><g id="Layer_2" data-name="Layer 2"><g id="Layer_1-2" data-name="Layer 1"><path class="cls-1" d="M10.5 0a10.5 10.5 0 0 0 0 21 10.5 10.5 0 0 0 0-21zm0 19.1a8.5 8.5 0 0 1 0-17 8.5 8.5 0 0 1 0 17z"/><path class="cls-1" d="M14.4 6h-.2L9.5 7.4a3.24 3.24 0 0 0-2.2 2.2l-1.4 4.7v.2a.68.68 0 0 0 .7.7h.2l4.7-1.4a3.24 3.24 0 0 0 2.2-2.2l1.4-4.7v-.2a.63.63 0 0 0-.7-.7zm-3.9 5.9a1.3 1.3 0 0 1 0-2.6 1.3 1.3 0 1 1 0 2.6z"/></g></g></svg>