<svg xmlns="http://www.w3.org/2000/svg" viewBox="0 0 14.8 14.9"><defs><style>.cls-1{fill:#ed1c24}</style></defs><title>grabage</title><g id="Layer_2" data-name="Layer 2"><path class="cls-1" d="M4.9 0a.79.79 0 0 0-.8.8v1.7H.8a.8.8 0 0 0 0 1.6h.8v10a.79.79 0 0 0 .8.8h10a.79.79 0 0 0 .8-.8v-10h.8a.8.8 0 1 0 0-1.6h-3.3V.8a.79.79 0 0 0-.8-.8h-5zm.8 1.6H9v.8H5.7zM3.2 4.1h8.3v9.2H3.2zm2.5 1.7c-.5.1-.8.4-.8.8v4.2a1 1 0 0 0 .8.9 1 1 0 0 0 .9-.8V6.7c-.1-.5-.4-.9-.9-.9zm3.3 0c-.5.1-.8.4-.8.8v4.2a1 1 0 0 0 .8.9c.4.1.8-.4.9-.8V6.7a.9.9 0 0 0-.9-.9z" id="Layer_1-2" data-name="Layer 1"/></g></svg>