<svg xmlns="http://www.w3.org/2000/svg" viewBox="0 0 16.04 21.94"><defs><style>.cls-1{fill:#84519c}</style></defs><title>location</title><g id="Layer_2" data-name="Layer 2"><g id="Layer_1-2" data-name="Layer 1"><path class="cls-1" d="M14.77 3.77a8 8 0 0 0-11.1-2.5 8.42 8.42 0 0 0-2.4 11.4l5.3 8.5a1.21 1.21 0 0 0 .5.5 1.63 1.63 0 0 0 2.3-.5l5.3-8.5a8.2 8.2 0 0 0 .1-8.9zm-1.7 7.9l-5 8.1-5-8.1a6.68 6.68 0 0 1-1-3.3 6.13 6.13 0 0 1 6-6.2 6.13 6.13 0 0 1 6 6.2 5.8 5.8 0 0 1-1 3.3z"/><path class="cls-1" d="M8.07 4.87a3.35 3.35 0 0 0-3.3 3.4 3.35 3.35 0 0 0 3.3 3.4 3.35 3.35 0 0 0 3.3-3.4 3.35 3.35 0 0 0-3.3-3.4zm0 4.8a1.35 1.35 0 0 1-1.3-1.4 1.35 1.35 0 0 1 1.3-1.4 1.35 1.35 0 0 1 1.3 1.4 1.35 1.35 0 0 1-1.3 1.4z"/></g></g></svg>