<svg xmlns="http://www.w3.org/2000/svg" width="12" viewBox="0 0 12 10"><defs><style>.cls-1{fill:#4774ec}</style></defs><title>heart_small</title><g id="Layer_2" data-name="Layer 2"><path class="cls-1" d="M12 3a3.15 3.15 0 0 0-3.3-3A3.86 3.86 0 0 0 6 1.1 3.86 3.86 0 0 0 3.3 0h-.1A3.12 3.12 0 0 0 0 3c0 2.1 2 3.8 5.2 6.3l.8.7.8-.7C9.9 6.7 12 5 12 3zM6.1 8.5L6 8.4C3.1 6 1.3 4.5 1.3 2.9v-.1A1.93 1.93 0 0 1 3.4 1a2.48 2.48 0 0 1 2.2 1.3h1.1A2.33 2.33 0 0 1 8.8 1h.1a2 2 0 0 1 2 1.9C10.8 4.6 9 6.1 6.1 8.5z" id="Layer_1-2" data-name="Layer 1"/></g></svg>