<svg xmlns="http://www.w3.org/2000/svg" viewBox="0 0 41 41"><defs><style>.cls-1{fill:#fff;stroke:#e3e3e3;stroke-miterlimit:10}.cls-2{fill:#f25f23}</style></defs><title>man</title><g id="Layer_2" data-name="Layer 2"><g id="Layer_1-2" data-name="Layer 1"><circle class="cls-1" cx="20.5" cy="20.5" r="20"/><path class="cls-2" d="M26.9 20.2l-3.1-1-1.1-2.5a1.72 1.72 0 0 0-.2-1.2l.2-.4a2.3 2.3 0 1 0-2.3-2.3 2.46 2.46 0 0 0 .5 1.5l-.2.3a6 6 0 0 0-1.6.5l-3.2 1.7a1 1 0 0 0-.5.4c-.1.1-.1.3-.2.4l-1 3.5a1.11 1.11 0 1 0 2.1.7l.9-3.2 1-.5-.9 2.8a2.44 2.44 0 0 0 0 1.2l-4 6.5a1.37 1.37 0 1 0 2.3 1.5l3.9-6.3 1.7 2 .3 3.7a1.36 1.36 0 0 0 2.7-.3l-.3-4a1.42 1.42 0 0 0-.2-.6c-.1-.2-.1-.3-.3-.4l-2.3-2.7.5-1.4.2.6a1.38 1.38 0 0 0 .3.4 2.19 2.19 0 0 0 .5.3l3.6 1.1a1.08 1.08 0 0 0 1.4-.7 1.15 1.15 0 0 0-.7-1.6z"/></g></g></svg>