<svg xmlns="http://www.w3.org/2000/svg" width="17" viewBox="0 0 17 19.4"><defs><style>.cls-1{fill:#1b1b1b}</style></defs><title>lk</title><g id="Layer_2" data-name="Layer 2"><path class="cls-1" d="M16.3 19.4a.68.68 0 0 1-.7-.7c0-3.3-2.1-6-4.7-6H6.1c-2.6 0-4.7 2.7-4.7 6a.68.68 0 0 1-.7.7.68.68 0 0 1-.7-.7c0-4.1 2.7-7.5 6.1-7.5h4.8c3.4 0 6.1 3.4 6.1 7.5a.75.75 0 0 1-.7.7zm-7.8-8.8a5.25 5.25 0 0 1-5.2-5.3A5.25 5.25 0 0 1 8.5 0a5.25 5.25 0 0 1 5.2 5.3 5.19 5.19 0 0 1-5.2 5.3zm0-9.2a3.82 3.82 0 0 0-3.8 3.9 3.88 3.88 0 0 0 3.8 3.9 3.82 3.82 0 0 0 3.8-3.9 3.82 3.82 0 0 0-3.8-3.9z" id="Layer_1-2" data-name="Layer 1"/></g></svg>