<svg width="15" height="15" viewBox="0 0 15 15" fill="none" xmlns="http://www.w3.org/2000/svg"><path d="M0 0h15v15H0z"/><circle cx="7.5" cy="7.5" r="7.5" fill="#E7EDF3"/><path d="M6.942 9.198c.006-.348.045-.624.119-.826.073-.202.222-.426.448-.672l.575-.594c.247-.278.37-.577.37-.896 0-.308-.081-.548-.242-.72-.161-.177-.396-.264-.703-.264-.299 0-.54.079-.72.237a.802.802 0 0 0-.273.637h-.813c.005-.475.174-.857.505-1.147.334-.293.768-.44 1.3-.44.554 0 .985.15 1.293.449.31.296.466.703.466 1.222 0 .512-.238 1.018-.712 1.516l-.48.474c-.213.238-.32.579-.32 1.024h-.813zm-.035 1.393c0-.131.04-.241.118-.33.082-.09.203-.135.36-.135.159 0 .28.045.361.136a.464.464 0 0 1 .123.33.464.464 0 0 1-.123.329c-.082.085-.202.127-.36.127-.158 0-.279-.042-.36-.127a.474.474 0 0 1-.12-.33z" fill="#212121"/></svg>