<svg width="18" height="16" viewBox="0 0 18 16" fill="none" xmlns="http://www.w3.org/2000/svg"><path d="M16.552 6.084l.027.006H4.844l3.689-3.807c.18-.186.28-.438.28-.702a1 1 0 0 0-.28-.7L7.959.288a.938.938 0 0 0-1.356 0L.28 6.799a.994.994 0 0 0-.28.7c0 .266.098.515.28.701l6.323 6.512a.938.938 0 0 0 1.356 0l.574-.591a.993.993 0 0 0 .28-.698c0-.264-.1-.499-.28-.685L4.803 8.91h11.762c.528 0 .972-.47.972-1.013V7.06a.988.988 0 0 0-.985-.976z" transform="matrix(-1 0 0 1 18 .731)" fill="url(#a)"/><defs><linearGradient id="a" x2="1" gradientUnits="userSpaceOnUse" gradientTransform="matrix(17.528 7.09602 -1.86429 14.7379 .932 -6.619)"><stop stop-color="#E31E24"/><stop offset="1" stop-color="#A03686"/></linearGradient></defs></svg>