<svg width="40" height="40" viewBox="0 0 40 40" fill="none" xmlns="http://www.w3.org/2000/svg"><path d="M0 0h40v40H0z"/><circle cx="20" cy="20" r="19" stroke="#fff" stroke-width="2"/><path d="M0 0h40v40H0z"/><mask id="a" maskUnits="userSpaceOnUse" x="0" y="0" width="40" height="40"><circle cx="20" cy="20" r="19" stroke="#fff" stroke-width="2"/></mask><g mask="url(#a)" fill="#212121"><path d="M-11.046 14.813l48.45-30.027 12.643 20.4-48.45 30.027z"/><path d="M-4 49V-8h24v57z"/></g><path d="M12.448 19.084l-.027.006h11.735l-3.689-3.807a1.004 1.004 0 0 1-.28-.702 1 1 0 0 1 .28-.7l.574-.592a.938.938 0 0 1 1.356-.001l6.323 6.511c.182.187.28.436.28.7a.994.994 0 0 1-.28.701l-6.323 6.512a.938.938 0 0 1-1.356 0l-.574-.591a.993.993 0 0 1-.28-.698c0-.264.1-.499.28-.685l3.73-3.828H12.436c-.528 0-.972-.47-.972-1.013v-.837c0-.544.457-.976.986-.976z" fill="#fff"/></svg>