<svg width="21" height="16" viewBox="0 0 21 16" fill="none" xmlns="http://www.w3.org/2000/svg"><path d="M0 0h21v16H0z"/><path fill-rule="evenodd" clip-rule="evenodd" d="M12.352 0H8.648a.333.333 0 0 0-.343.326V15.67c0 .182.153.327.343.327h3.704c.19 0 .343-.145.343-.327V.326A.335.335 0 0 0 12.352 0zm-.341 15.348H8.99V.652h3.02v14.696zM6.076 7.176H2.375a.333.333 0 0 0-.343.326v8.172c0 .181.152.326.343.326h3.7a.333.333 0 0 0 .343-.326V7.502a.333.333 0 0 0-.342-.326zm-.342 8.172H2.717v-7.52h3.02v7.52h-.003zm13.234.326a.333.333 0 0 1-.343.326v-.003h-3.7a.333.333 0 0 1-.343-.326V5.285c0-.181.152-.326.342-.326h3.701c.19 0 .343.145.343.326v10.39zm-.681-10.063h-3.02v9.737h3.02V5.61z" fill="#909090"/></svg>