<svg width="31" height="24" viewBox="0 0 31 24" fill="none" xmlns="http://www.w3.org/2000/svg"><path fill-rule="evenodd" clip-rule="evenodd" d="M15.235 0h-5.47a.495.495 0 0 0-.505.49v23.016c0 .272.225.49.505.49h5.47c.28 0 .505-.218.505-.49V.489A.498.498 0 0 0 15.235 0zm-.505 23.021h-4.46V.98h4.46v22.043zM5.97 10.764H.504a.495.495 0 0 0-.505.49V23.51c0 .272.225.49.505.49h5.464a.496.496 0 0 0 .506-.49V11.253a.495.495 0 0 0-.506-.489zm-.506 12.257H1.01V11.743h4.46V23.02h-.006zm19.536.49c0 .272-.225.49-.505.49v-.006H19.03a.495.495 0 0 1-.505-.49V7.929c0-.272.225-.49.505-.49h5.465c.28 0 .505.218.505.49V23.51zM23.995 8.417h-4.46v14.604h4.46V8.418z" transform="translate(3)" fill="url(#a)"/><defs><linearGradient id="a" x2="1" gradientUnits="userSpaceOnUse" gradientTransform="matrix(24.9867 11.3539 -2.6576 23.5812 1.329 -10.59)"><stop stop-color="#E31E24"/><stop offset="1" stop-color="#A03686"/></linearGradient></defs></svg>