<svg width="15" height="20" viewBox="0 0 15 20" fill="none" xmlns="http://www.w3.org/2000/svg"><path d="M14.862 16.216l-1.01-1.83V9.862c0-2.796-1.941-5.16-4.59-5.901V1.704C9.263.764 8.473 0 7.5 0S5.737.765 5.737 1.704v2.258c-2.648.74-4.59 3.105-4.59 5.9v4.523L.138 16.216c-.194.353-.183.768.03 1.11.212.343.586.548 1 .548h4.006C5.242 19.057 6.259 20 7.5 20s2.258-.943 2.326-2.126h4.007c.413 0 .787-.205 1-.547.212-.343.223-.758.029-1.11zM6.67 1.704c0-.442.372-.802.83-.802.458 0 .83.36.83.802v2.07a6.596 6.596 0 0 0-1.66 0v-2.07zM2.08 9.863c0-2.89 2.432-5.24 5.42-5.24 2.989 0 5.42 2.35 5.42 5.24v4.149H2.08v-4.15zm5.42 9.235c-.726 0-1.325-.538-1.391-1.224H8.89c-.066.686-.665 1.224-1.391 1.224zm6.533-2.236a.23.23 0 0 1-.2.11H1.167a.23.23 0 0 1-.2-.11.215.215 0 0 1-.005-.222l.951-1.726h11.174l.952 1.726a.216.216 0 0 1-.006.222z" fill="#C4C4C4"/></svg>