<svg width="40" height="40" viewBox="0 0 40 40" fill="none" xmlns="http://www.w3.org/2000/svg"><path d="M40 40H0V0h40z"/><circle cx="20" cy="20" r="19" transform="rotate(-180)" stroke="#fff" stroke-width="2"/><path d="M27.552 21.916l.027-.006H15.844l3.689 3.807c.18.186.28.438.28.702a1 1 0 0 1-.28.7l-.574.592a.938.938 0 0 1-1.356.001l-6.323-6.511a.994.994 0 0 1-.28-.7c0-.266.098-.515.28-.701l6.323-6.512a.938.938 0 0 1 1.356 0l.574.591a.998.998 0 0 1 0 1.383l-3.73 3.828h11.762c.528 0 .972.47.972 1.013v.837a.988.988 0 0 1-.985.976z" fill="#fff"/></svg>