<svg width="30" height="30" viewBox="0 0 30 30" fill="none" xmlns="http://www.w3.org/2000/svg"><path d="M4 0h22v22H4z"/><g filter="url(#a)"><circle cx="15" cy="11" r="11" fill="#fff"/><circle cx="15" cy="11" r="10.5" stroke="#C4C4C4"/></g><path d="M18.824 9.707H16.19V7.145C16.19 6.515 15.648 6 15 6c-.647 0-1.19.515-1.19 1.145v2.562h-2.634c-.646 0-1.176.528-1.176 1.158 0 .63.53 1.158 1.176 1.158h2.633v2.562c0 .63.544 1.145 1.191 1.145s1.19-.516 1.19-1.145v-2.562h2.634c.646 0 1.176-.528 1.176-1.158 0-.63-.53-1.158-1.176-1.158z" fill="#C4C4C4"/><defs><filter id="a" x="0" y="0" width="30" height="30" filterUnits="userSpaceOnUse" color-interpolation-filters="sRGB"><feFlood flood-opacity="0" result="BackgroundImageFix"/><feColorMatrix in="SourceAlpha" values="0 0 0 0 0 0 0 0 0 0 0 0 0 0 0 0 0 0 255 0"/><feOffset dy="4"/><feGaussianBlur stdDeviation="2"/><feColorMatrix values="0 0 0 0 0 0 0 0 0 0 0 0 0 0 0 0 0 0 0.1 0"/><feBlend in2="BackgroundImageFix" result="effect1_dropShadow"/><feBlend in="SourceGraphic" in2="effect1_dropShadow" result="shape"/></filter></defs></svg>