<svg width="50" height="50" viewBox="0 0 50 50" fill="none" xmlns="http://www.w3.org/2000/svg"><path d="M1.667.286A.986.986 0 0 0 .977 0a.98.98 0 0 0-.69 1.667.984.984 0 0 0 .69.286.985.985 0 0 0 .69-.286.984.984 0 0 0 .286-.69.984.984 0 0 0-.286-.69z" transform="translate(24.036)" fill="url(#a)"/><path d="M49.714 23.333l-10.066-10.07V7.226a1.955 1.955 0 0 0-1.953-1.954h-1.953V.977A.977.977 0 0 0 34.766 0h-6.088a.977.977 0 0 0 0 1.953h5.111v3.32H16.211v-3.32h5.143a.977.977 0 0 0 0-1.953h-6.12a.977.977 0 0 0-.976.977v4.296h-1.953a1.955 1.955 0 0 0-1.953 1.954v35.546H8.203a.977.977 0 0 0-.976.977v4.297H1.953v-22.07h6.25a.977.977 0 0 0 0-1.954H.977A.977.977 0 0 0 0 25v24.023c0 .54.437.977.977.977h48.046c.54 0 .977-.437.977-.977v-25a.977.977 0 0 0-.286-.69zM30.534 7.227h7.161v7.421h-7.161V7.227zm0 9.375h7.161v7.421h-7.161v-7.421zm0 9.375h7.161v7.421h-7.161v-7.421zm0 9.375h7.161v7.421h-7.161v-7.421zM21.419 7.227h7.162v7.421h-7.162V7.227zm0 9.375h7.162v7.421h-7.162v-7.421zm0 9.375h7.162v7.421h-7.162v-7.421zm0 9.375h7.162v7.421h-7.162v-7.421zM12.305 7.227h7.161v7.421h-7.161V7.227zm0 9.375h7.161v7.421h-7.161v-7.421zm0 9.375h7.161v7.421h-7.161v-7.421zm0 9.375h7.161v7.421h-7.161v-7.421zM40.82 48.047H9.18v-3.32h31.64v3.32zm7.227 0h-5.274V43.75a.977.977 0 0 0-.976-.977h-2.149v-2.746h3.11a.977.977 0 0 0 0-1.953h-3.11v-2.73h3.11a.977.977 0 0 0 0-1.954h-3.11v-2.73h3.11a.977.977 0 0 0 0-1.953h-3.11v-2.73h3.11a.977.977 0 0 0 0-1.954h-3.11v-7.998l8.399 8.403v23.619z" fill="url(#b)"/><path d="M1.667.286a.979.979 0 0 0-1.38 0A.984.984 0 0 0 0 .976c0 .257.104.51.286.691a.984.984 0 0 0 .69.286.984.984 0 0 0 .69-.286.984.984 0 0 0 .287-.69.984.984 0 0 0-.286-.69z" transform="translate(5.176 38.835)" fill="url(#c)"/><path d="M.977 0A.977.977 0 0 0 0 .977v6.96a.977.977 0 0 0 1.953 0V.977A.977.977 0 0 0 .977 0z" transform="translate(5.176 28.196)" fill="url(#d)"/><defs><linearGradient id="a" x2="1" gradientUnits="userSpaceOnUse" gradientTransform="matrix(1.95209 .92396 -.20763 1.919 .104 -.862)"><stop stop-color="#E31E24"/><stop offset="1" stop-color="#A03686"/></linearGradient><linearGradient id="b" x2="1" gradientUnits="userSpaceOnUse" gradientTransform="matrix(49.9734 23.6534 -5.3152 49.1264 2.658 -22.063)"><stop stop-color="#E31E24"/><stop offset="1" stop-color="#A03686"/></linearGradient><linearGradient id="c" x2="1" gradientUnits="userSpaceOnUse" gradientTransform="matrix(1.95209 .92396 -.20763 1.919 .104 -.862)"><stop stop-color="#E31E24"/><stop offset="1" stop-color="#A03686"/></linearGradient><linearGradient id="d" x2="1" gradientUnits="userSpaceOnUse" gradientTransform="matrix(1.95209 4.21677 -.20763 8.75794 .104 -3.933)"><stop stop-color="#E31E24"/><stop offset="1" stop-color="#A03686"/></linearGradient></defs></svg>