<svg width="8" height="16" viewBox="0 0 8 16" fill="none" xmlns="http://www.w3.org/2000/svg"><path d="M0 0h8v16H0z"/><path d="M0 0h8v16H0z"/><path d="M7.888 9.74a3.302 3.302 0 0 0-.27-.682 2.292 2.292 0 0 0-.455-.567 5.472 5.472 0 0 0-.531-.446 5.132 5.132 0 0 0-.648-.38c-.274-.14-.491-.244-.651-.312a27.58 27.58 0 0 0-.695-.282 13.001 13.001 0 0 1-1.119-.487 2.992 2.992 0 0 1-.48-.276 3.814 3.814 0 0 1-.338-.295 1.006 1.006 0 0 1-.253-.37 1.225 1.225 0 0 1-.073-.429c0-.404.171-.735.514-.99.343-.257.786-.385 1.33-.385.24 0 .484.035.732.103a3.734 3.734 0 0 1 1.14.518c.158.104.27.183.335.237a1.5 1.5 0 0 1 .124.107c.075.06.152.08.232.062.086-.006.151-.053.197-.143l.695-1.303c.068-.12.054-.232-.043-.34a2.985 2.985 0 0 0-.129-.125 4.476 4.476 0 0 0-.334-.259 4.107 4.107 0 0 0-.545-.334 5.375 5.375 0 0 0-.746-.3 4.592 4.592 0 0 0-.947-.205V.286A.285.285 0 0 0 4.853.08.262.262 0 0 0 4.655 0H3.498a.259.259 0 0 0-.193.085.28.28 0 0 0-.081.2v1.608c-.898.178-1.627.577-2.187 1.196a3.12 3.12 0 0 0-.84 2.161c0 .244.024.476.073.696.048.22.108.419.18.594.071.176.173.348.304.518.132.17.256.316.373.438.117.121.27.248.459.379s.35.237.484.317c.135.08.313.173.536.277.223.104.4.183.528.236l.527.223c.309.125.537.222.686.29.149.069.337.164.566.286.229.122.396.234.502.335.105.101.201.226.287.375a.932.932 0 0 1 .129.473c0 .47-.176.834-.528 1.09a2.02 2.02 0 0 1-1.222.383c-.211 0-.423-.023-.634-.07-.743-.156-1.438-.528-2.083-1.117l-.018-.018a.208.208 0 0 0-.205-.08c-.092.012-.158.047-.198.107L.06 12.187c-.085.12-.08.241.017.366a2.2 2.2 0 0 0 .15.161c.072.072.205.183.4.335.194.152.405.295.634.429.228.134.518.266.87.397.352.13.716.223 1.093.277v1.562a.28.28 0 0 0 .082.201.258.258 0 0 0 .193.085h1.157c.08 0 .146-.027.197-.08a.285.285 0 0 0 .077-.206v-1.562c.91-.155 1.648-.561 2.217-1.219.569-.658.853-1.442.853-2.353a3.05 3.05 0 0 0-.112-.84z" fill="#80C458"/></svg>