<svg width="50" height="50" viewBox="0 0 50 50" fill="none" xmlns="http://www.w3.org/2000/svg"><path d="M0 0h50v50H0z"/><circle cx="25" cy="25" r="25" fill="#E31E24"/><path d="M21.098 28.547h-7.149L12.344 33h-2.32l6.515-17.063h1.969L25.035 33h-2.308l-1.63-4.453zm-6.47-1.852h5.802l-2.907-7.98-2.894 7.98zM27.333 33V15.937h5.578c1.852 0 3.242.383 4.172 1.149.938.766 1.406 1.898 1.406 3.398 0 .797-.226 1.504-.68 2.121-.453.61-1.07 1.082-1.851 1.418.922.258 1.648.75 2.18 1.477.539.719.808 1.578.808 2.578 0 1.531-.496 2.735-1.488 3.61S35.062 33 33.25 33h-5.918zm2.25-7.98v6.14h3.715c1.047 0 1.871-.27 2.473-.808.609-.547.914-1.297.914-2.25 0-2.055-1.118-3.082-3.352-3.082h-3.75zm0-1.805h3.398c.985 0 1.77-.246 2.356-.738.594-.493.89-1.16.89-2.004 0-.938-.273-1.617-.82-2.04-.547-.43-1.379-.644-2.496-.644h-3.328v5.426z" fill="#fff"/></svg>