<svg width="14" height="10" viewBox="0 0 14 10" fill="none" xmlns="http://www.w3.org/2000/svg"><path d="M13.302 9.824H3.94c-.386 0-.699-.297-.699-.663 0-.366.313-.663.699-.663h9.362c.385 0 .698.297.698.663 0 .366-.312.663-.698.663zm0-4.161H3.94c-.386 0-.699-.297-.699-.663 0-.366.313-.663.699-.663h9.362c.385 0 .698.297.698.663 0 .366-.312.663-.698.663zm0-4.161H3.94c-.386 0-.699-.297-.699-.663 0-.366.313-.663.699-.663h9.362c.385 0 .698.297.698.663 0 .366-.312.663-.698.663zM.938 1.78c.518 0 .938-.398.938-.89 0-.49-.42-.89-.938-.89S0 .399 0 .89c0 .492.42.89.938.89zm0 4.11c.518 0 .938-.398.938-.89s-.42-.89-.938-.89S0 4.508 0 5s.42.89.938.89zm0 4.11c.518 0 .938-.398.938-.89s-.42-.89-.938-.89S0 8.618 0 9.11s.42.89.938.89z" fill="#212121"/></svg>