<svg width="15" height="16" viewBox="0 0 15 16" fill="none" xmlns="http://www.w3.org/2000/svg"><path d="M0 0h15v16H0z"/><path d="M13.711 12.297l-2.68-2.68a5.35 5.35 0 0 0 .97-3.117c0-.745-.145-1.457-.435-2.137a5.499 5.499 0 0 0-1.171-1.757 5.499 5.499 0 0 0-1.758-1.172A5.405 5.405 0 0 0 6.5 1c-.745 0-1.457.145-2.137.434-.68.289-1.265.68-1.758 1.172a5.499 5.499 0 0 0-1.171 1.757A5.405 5.405 0 0 0 1 6.5c0 .745.145 1.457.434 2.137.289.68.68 1.265 1.172 1.758a5.5 5.5 0 0 0 1.757 1.172c.68.289 1.392.433 2.137.433a5.35 5.35 0 0 0 3.117-.969l2.68 2.672A.928.928 0 0 0 13 14a.96.96 0 0 0 .703-.297A.961.961 0 0 0 14 13a.957.957 0 0 0-.289-.703zM8.973 8.973A3.37 3.37 0 0 1 6.5 10a3.37 3.37 0 0 1-2.473-1.027A3.37 3.37 0 0 1 3 6.5a3.37 3.37 0 0 1 1.027-2.473A3.37 3.37 0 0 1 6.5 3c.964 0 1.788.343 2.473 1.027A3.37 3.37 0 0 1 10 6.5a3.37 3.37 0 0 1-1.027 2.473z" fill="#fff"/></svg>