<svg width="42" height="49" viewBox="0 0 42 49" fill="none" xmlns="http://www.w3.org/2000/svg"><path d="M41.86 40.774l-7.224-12.58c.732-.339 1.171-1.113 1.122-1.984l-.537-4.451 3.075-3.194c.684-.677.732-1.838.049-2.661l-3.075-3.29.635-4.5c.097-.968-.586-1.936-1.562-2.13l-4.442-.87-2.147-3.92c-.44-.919-1.513-1.306-2.49-.919h-.048l-4.1 1.887L17.114.227a1.924 1.924 0 0 0-1.465-.145A1.922 1.922 0 0 0 14.527 1l-2.196 3.92-4.442.773c-1.025.194-1.708 1.113-1.61 2.178l.536 4.451-3.074 3.194c-.684.677-.733 1.838-.05 2.661l3.076 3.29-.635 4.5c-.098.871.44 1.694 1.27 2.032L.128 40.774c-.195.29-.147.678 0 .968.195.29.488.484.83.484h7.809l3.563 6.145c.195.29.488.484.83.484.341 0 .683-.194.83-.484l6.979-11.806 6.979 11.951c.195.29.488.484.83.484.341 0 .683-.194.83-.484l3.562-6.29h7.81c.341 0 .683-.194.83-.484a.796.796 0 0 0 .048-.968zm-28.65 5.178l-3.027-5.178c-.195-.29-.488-.483-.83-.483H2.618l6.735-11.807 2.782.484 2.148 3.92c.44.919 1.513 1.306 2.49.919h.048l2.001-.92.976 1.694-6.589 11.37zm2.83-13.887h-.049l-2.147-4.016c-.293-.484-.781-.871-1.367-.92l-4.49-.822.634-4.452c.098-.58-.097-1.21-.488-1.596l-3.026-3.29 3.075-3.194c.44-.436.634-1.016.537-1.597l-.537-4.403s0-.048.049-.097l4.441-.774a1.975 1.975 0 0 0 1.367-.968l2.196-3.919 4.003 1.936c.536.29 1.22.29 1.756 0l4.052-1.84h.048l2.148 4.017c.293.484.78.87 1.318.92l4.44.87-.634 4.452c-.098.58.097 1.21.488 1.597l3.075 3.29-3.124 3.193c-.44.436-.635 1.016-.537 1.597l.537 4.451-4.393.726a1.975 1.975 0 0 0-1.366.968l-2.197 3.92-4.002-1.936a1.881 1.881 0 0 0-1.757 0l-4.051 1.887zm16.595 8.226c-.342 0-.684.193-.83.483l-3.026 5.323-6.882-11.806a.779.779 0 0 0-.195-.34l-1.074-1.886.342-.145 4.002 1.935c.293.145.585.194.878.194.684 0 1.367-.339 1.709-.968l2.196-3.92 2.928-.532 6.687 11.662h-6.735z" fill="url(#a)"/><path d="M19.523 9.677C19.523 4.355 15.13 0 9.762 0 4.391 0 0 4.355 0 9.677 0 15 4.393 19.354 9.761 19.354c5.37 0 9.762-4.354 9.762-9.677zM9.762 17.42c-4.296 0-7.81-3.484-7.81-7.742s3.514-7.742 7.81-7.742c4.295 0 7.809 3.484 7.809 7.742s-3.514 7.742-7.81 7.742z" transform="translate(11.208 7.388)" fill="url(#b)"/><defs><linearGradient id="a" x2="1" gradientUnits="userSpaceOnUse" gradientTransform="matrix(41.9776 23.1803 -4.46477 48.1439 2.232 -21.622)"><stop stop-color="#E31E24"/><stop offset="1" stop-color="#A03686"/></linearGradient><linearGradient id="b" x2="1" gradientUnits="userSpaceOnUse" gradientTransform="matrix(19.5126 9.15596 -2.07537 19.0163 1.038 -8.54)"><stop stop-color="#E31E24"/><stop offset="1" stop-color="#A03686"/></linearGradient></defs></svg>