<svg width="14" height="22" viewBox="0 0 14 22" fill="none" xmlns="http://www.w3.org/2000/svg"><path d="M5.852 15.496c-1.807-.178-3.437-.598-4.832-1.628-.173-.128-.352-.251-.51-.394-.61-.554-.672-1.188-.189-1.84.414-.56 1.107-.71 1.829-.388.14.062.273.14.4.223 2.6 1.686 6.172 1.732 8.782.076.26-.187.536-.34.856-.418.623-.15 1.204.065 1.538.58.382.587.377 1.16-.094 1.616-.721.699-1.59 1.205-2.554 1.558-.912.333-1.91.501-2.9.613.15.153.22.228.313.317 1.343 1.273 2.691 2.54 4.03 3.817.455.435.55.974.3 1.48-.275.553-.89.917-1.492.878-.382-.025-.68-.204-.944-.455-1.013-.962-2.045-1.907-3.038-2.887-.288-.285-.427-.23-.682.017-1.02.99-2.055 1.965-3.097 2.934-.468.435-1.025.513-1.567.265-.577-.264-.944-.82-.916-1.378.02-.377.217-.666.491-.925 1.329-1.251 2.654-2.506 3.98-3.76.087-.084.169-.172.296-.301z" fill="#C4C4C4"/><path d="M6.953 11.135c-3.224-.01-5.868-2.532-5.85-5.58C1.124 2.475 3.769-.009 7.025 0c3.263.008 5.882 2.527 5.865 5.64-.016 3.041-2.679 5.506-5.936 5.495zm2.93-5.572c-.005-1.513-1.282-2.718-2.882-2.72-1.614 0-2.903 1.226-2.89 2.753.012 1.507 1.3 2.703 2.905 2.697 1.6-.005 2.873-1.217 2.868-2.73z" fill="#C4C4C4"/></svg>