<svg width="18" height="20" viewBox="0 0 18 20" fill="none" xmlns="http://www.w3.org/2000/svg"><path d="M0 0h18v20H0z"/><path d="M12.6 2.43a.812.812 0 0 0-1.078.43.84.84 0 0 0 .422 1.097c2.662 1.184 4.42 3.866 4.42 6.876 0 4.142-3.298 7.5-7.364 7.5-4.067 0-7.364-3.357-7.364-7.5 0-3.01 1.757-5.69 4.418-6.876a.84.84 0 0 0 .422-1.098.812.812 0 0 0-1.077-.43C2.147 3.879 0 7.157 0 10.834 0 15.896 4.03 20 9 20s9-4.104 9-9.167c0-3.678-2.148-6.956-5.4-8.403z" fill="#C4C4C4"/><path d="M9 9.167a.826.826 0 0 0 .818-.834v-7.5A.826.826 0 0 0 9 0a.826.826 0 0 0-.818.833v7.5c0 .46.366.834.818.834z" fill="#C4C4C4"/></svg>