<svg width="9" height="20" viewBox="0 0 9 20" fill="none" xmlns="http://www.w3.org/2000/svg"><path d="M0 0h9v20H0z"/><path d="M0 0h9v20H0z"/><path d="M8.394 5.786a.61.61 0 0 0-.617.613v9.064c0 .925-.33 1.683-.97 2.33-.638.646-1.398.98-2.323.98a3.134 3.134 0 0 1-2.314-.97 3.21 3.21 0 0 1-.958-2.34V3.5c0-.613.223-1.145.65-1.583.432-.443.958-.68 1.586-.68.628 0 1.154.237 1.586.68.427.438.65.97.65 1.583v10.18c0 .635-.484 1.126-1.112 1.126-.606 0-1.102-.513-1.102-1.126V8.383a.6.6 0 0 0-.606-.613.6.6 0 0 0-.606.613v5.296c0 .658.22 1.215.672 1.672.452.457.992.68 1.642.68a2.26 2.26 0 0 0 1.652-.68c.446-.44.672-.992.672-1.672V3.5c0-.958-.344-1.78-1.013-2.463C5.208.348 4.395 0 3.448 0c-.947 0-1.76.348-2.435 1.037C.344 1.72 0 2.542 0 3.5v11.963c0 1.26.44 2.33 1.31 3.21C2.182 19.554 3.24 20 4.485 20c1.244 0 2.324-.424 3.205-1.316C8.57 17.794 9 16.7 9 15.463V6.399a.601.601 0 0 0-.606-.613z" fill="#909090"/></svg>