<svg width="37" height="36" viewBox="0 0 37 36" fill="none" xmlns="http://www.w3.org/2000/svg"><path d="M0 0h36.041v36H.001z"/><path d="M0 0h36.041v36H.001z"/><path d="M0 0h36.041v36H.001z"/><path d="M19.102 17.547V1.012C19.102.45 18.638 0 18.059 0c-.58 0-1.043.45-1.043 1.012v16.535c-2.417.472-4.248 2.548-4.248 5.036 0 2.489 1.83 4.565 4.248 5.037v7.36c0 .563.464 1.013 1.043 1.013.58 0 1.043-.45 1.043-1.012v-7.36c2.417-.473 4.248-2.55 4.248-5.038 0-2.48-1.823-4.564-4.248-5.036zm-1.043 8.147c-1.769 0-3.206-1.394-3.206-3.11 0-1.717 1.437-3.111 3.206-3.111s3.205 1.394 3.205 3.11c0 1.717-1.436 3.111-3.205 3.111zM6.334 9.062v-8.05C6.334.45 5.87 0 5.29 0c-.58 0-1.043.45-1.043 1.012v8.05C1.831 9.534 0 11.61 0 14.099c0 2.488 1.83 4.564 4.248 5.037V34.98c0 .562.464 1.012 1.043 1.012.58 0 1.043-.45 1.043-1.012V19.128c2.418-.472 4.248-2.548 4.248-5.037 0-2.488-1.83-4.557-4.248-5.03zM5.29 17.209c-1.769 0-3.205-1.394-3.205-3.11 0-1.717 1.436-3.11 3.205-3.11 1.769 0 3.206 1.393 3.206 3.11 0 1.716-1.445 3.11-3.206 3.11zm26.503-8.147v-8.05C31.793.45 31.329 0 30.75 0c-.58 0-1.043.45-1.043 1.012v8.05c-2.418.472-4.248 2.548-4.248 5.037 0 2.488 1.83 4.564 4.248 5.037v15.852c0 .562.463 1.012 1.043 1.012.579 0 1.043-.45 1.043-1.012v-15.86c2.417-.472 4.248-2.548 4.248-5.037 0-2.488-1.823-4.557-4.248-5.03zm-1.043 8.147c-1.77 0-3.206-1.394-3.206-3.11 0-1.717 1.437-3.11 3.206-3.11s3.205 1.393 3.205 3.11c0 1.716-1.436 3.11-3.205 3.11z" fill="#fff"/></svg>