<svg width="20" height="22" viewBox="0 0 20 22" fill="none" xmlns="http://www.w3.org/2000/svg"><path d="M0 0h20v22H0z"/><path d="M0 0h20v22H0z"/><path d="M16.203 14.134c-1.22 0-2.309.603-3.005 1.535L7.37 12.293a4.078 4.078 0 0 0-.004-2.6l5.823-3.37c.692.936 1.785 1.543 3.01 1.543 2.087 0 3.792-1.763 3.792-3.933S18.291 0 16.198 0c-2.092 0-3.793 1.763-3.793 3.933 0 .457.075.895.216 1.302l-5.82 3.371a3.729 3.729 0 0 0-3.008-1.544C1.705 7.062 0 8.826 0 10.995c0 2.17 1.705 3.934 3.797 3.934 1.225 0 2.318-.608 3.014-1.549l5.823 3.376c-.14.41-.22.854-.22 1.31 0 2.166 1.7 3.934 3.793 3.934S20 20.237 20 18.067s-1.705-3.933-3.797-3.933zm0-12.896c1.436 0 2.603 1.21 2.603 2.7 0 1.489-1.167 2.7-2.603 2.7-1.436 0-2.604-1.211-2.604-2.7 0-1.49 1.172-2.7 2.604-2.7zM3.797 13.695c-1.436 0-2.603-1.21-2.603-2.7 0-1.489 1.167-2.7 2.603-2.7 1.436 0 2.604 1.211 2.604 2.7 0 1.49-1.172 2.7-2.604 2.7zm12.406 7.067c-1.436 0-2.604-1.21-2.604-2.7 0-1.489 1.168-2.7 2.604-2.7 1.436 0 2.603 1.211 2.603 2.7 0 1.49-1.167 2.7-2.603 2.7z" fill="#909090"/></svg>