<svg width="25" height="23" viewBox="0 0 25 23" fill="none" xmlns="http://www.w3.org/2000/svg"><path d="M24.801 4.622a.932.932 0 0 0-.736-.36H5.772l-.84-3.54A.937.937 0 0 0 4.02 0H.935A.938.938 0 0 0 0 .94c0 .52.419.94.935.94h2.348l3.04 12.784c.1.423.476.721.909.721h14.557c.43 0 .805-.294.908-.714l2.276-9.244a.946.946 0 0 0-.172-.805zm-3.743 8.883H7.97L6.22 6.142h16.65l-1.812 7.363z" fill="url(#a)"/><path d="M3.117 0A3.129 3.129 0 0 0 0 3.134a3.129 3.129 0 0 0 3.117 3.133 3.129 3.129 0 0 0 3.117-3.133A3.129 3.129 0 0 0 3.117 0zm0 4.387A1.251 1.251 0 0 1 1.87 3.134c0-.692.56-1.254 1.247-1.254.688 0 1.247.562 1.247 1.254 0 .69-.56 1.253-1.247 1.253z" transform="translate(5.361 16.733)" fill="url(#b)"/><path d="M3.117 0A3.129 3.129 0 0 0 0 3.134a3.129 3.129 0 0 0 3.117 3.133 3.129 3.129 0 0 0 3.117-3.133A3.129 3.129 0 0 0 3.117 0zm0 4.387A1.251 1.251 0 0 1 1.87 3.134c0-.692.56-1.254 1.247-1.254.688 0 1.247.562 1.247 1.254 0 .69-.56 1.253-1.247 1.253z" transform="translate(16.677 16.733)" fill="url(#c)"/><defs><linearGradient id="a" x2="1" gradientUnits="userSpaceOnUse" gradientTransform="matrix(24.9867 7.27824 -2.6576 15.1164 1.329 -6.789)"><stop stop-color="#E31E24"/><stop offset="1" stop-color="#A03686"/></linearGradient><linearGradient id="b" x2="1" gradientUnits="userSpaceOnUse" gradientTransform="matrix(6.23109 2.96472 -.66274 6.15752 .331 -2.765)"><stop stop-color="#E31E24"/><stop offset="1" stop-color="#A03686"/></linearGradient><linearGradient id="c" x2="1" gradientUnits="userSpaceOnUse" gradientTransform="matrix(6.23109 2.96472 -.66274 6.15752 .331 -2.765)"><stop stop-color="#E31E24"/><stop offset="1" stop-color="#A03686"/></linearGradient></defs></svg>