<svg width="45" height="40" viewBox="0 0 45 40" fill="none" xmlns="http://www.w3.org/2000/svg"><path d="M43.708 21.897c2.28-2.28 1.575-6.894-2.373-6.894l-10.39.007c.395-2.211.967-5.876.944-6.222-.218-3.278-2.297-7.266-2.387-7.43C29.123.649 27.21-.312 25.282.1c-2.49.536-2.745 2.133-2.735 2.573 0 0 .107 4.368.118 5.533-1.19 2.629-5.297 9.536-6.541 10.069a1.89 1.89 0 0 0-.987-.279H2.012A2.015 2.015 0 0 0 0 20.016l.002 18.23A1.91 1.91 0 0 0 1.892 40h11.79a1.902 1.902 0 0 0 1.895-1.905v-.605s.438-.033.637.096c.758.483 1.695 1.092 2.917 1.092h17.593c6.577 0 5.871-5.867 5.27-6.668 1.112-1.216 1.799-3.36.86-5.055.72-.767 1.988-2.875.854-5.058zM13.276 38.092H1.89V19.898h11.387v18.194zM40.64 21.74l-.107.45c3.03.867 1.418 4.377-.757 4.605l-.107.45c2.906.743 1.52 4.358-.757 4.605l-.107.448c2.373.392 1.799 4.462-1.797 4.462l-17.894.007c-1.264 0-2.415-1.447-3.345-1.447h-.81V21.316c1.01-.63 2.253-1.447 2.944-2.037 1.305-1.119 6.647-9.794 6.647-10.88 0-1.085-.118-5.781-.118-5.781s1.047-1.357 3.386-.367c0 0 1.967 3.708 2.168 6.664 0 0-.886 6.088-1.362 7.998H41.03c3.048.003 2.466 4.377-.39 4.827z" fill="url(#a)"/><defs><linearGradient id="a" x2="1" gradientUnits="userSpaceOnUse" gradientTransform="matrix(44.976 18.9227 -4.78368 39.3011 2.392 -17.65)"><stop stop-color="#E31E24"/><stop offset="1" stop-color="#A03686"/></linearGradient></defs></svg>