<svg width="40" height="40" viewBox="0 0 40 40" fill="none" xmlns="http://www.w3.org/2000/svg"><circle cx="20" cy="20" r="18.5" stroke="#C4C4C4" stroke-width="3"/><path d="M18.815 27.552l.006.027V15.844l-3.807 3.689c-.186.18-.438.28-.702.28-.264 0-.514-.1-.7-.28l-.592-.574a.938.938 0 0 1 0-1.356l6.51-6.323a.994.994 0 0 1 .7-.28c.266 0 .515.098.701.28l6.512 6.323a.938.938 0 0 1 0 1.356l-.59.574a.993.993 0 0 1-.699.28.963.963 0 0 1-.684-.28l-3.829-3.73v11.762c0 .528-.469.972-1.013.972h-.836a.988.988 0 0 1-.977-.985z" fill="#C4C4C4"/></svg>