<svg width="58" height="41" viewBox="0 0 58 41" fill="none" xmlns="http://www.w3.org/2000/svg"><path d="M5.8 0C2.601 0 0 2.566 0 5.72c0 3.156 2.601 5.722 5.8 5.722s5.8-2.566 5.8-5.721C11.6 2.566 8.999 0 5.8 0zm0 9.535c-2.133 0-3.867-1.71-3.867-3.814S3.668 1.907 5.8 1.907c2.132 0 3.867 1.71 3.867 3.814 0 2.103-1.735 3.814-3.867 3.814z" transform="translate(7.733 29.558)" fill="url(#a)"/><path d="M5.8 0C2.601 0 0 2.566 0 5.72c0 3.156 2.601 5.722 5.8 5.722s5.8-2.566 5.8-5.721C11.6 2.566 8.999 0 5.8 0zm0 9.535c-2.133 0-3.867-1.71-3.867-3.814S3.668 1.907 5.8 1.907c2.133 0 3.867 1.71 3.867 3.814 0 2.103-1.734 3.814-3.867 3.814z" transform="translate(40.6 29.558)" fill="url(#b)"/><path d="M21.113 13.787l-8.7-13.35A.97.97 0 0 0 11.6 0H.967A.96.96 0 0 0 0 .953v23.838a.96.96 0 0 0 .967.953h3.866v-1.907h-2.9V1.907h9.14l8.26 12.676v9.254H14.5v1.907h5.8a.96.96 0 0 0 .967-.953V14.302a.942.942 0 0 0-.154-.515z" transform="translate(36.733 10.488)" fill="url(#c)"/><path d="M1.933 8.581V1.907h7.734V0h-8.7A.96.96 0 0 0 0 .953v8.582a.96.96 0 0 0 .967.953h14.5V8.581H1.933z" transform="translate(40.6 14.302)" fill="url(#d)"/><path d="M37.7 0H.967A.96.96 0 0 0 0 .953v30.512a.96.96 0 0 0 .967.954H8.7v-1.907H1.933V1.907h34.8v28.605H18.367v1.907H37.7a.96.96 0 0 0 .967-.954V.953A.96.96 0 0 0 37.7 0z" transform="translate(0 3.814)" fill="url(#e)"/><path d="M5.8 0H0v1.907h5.8V0z" transform="translate(.967 30.512)" fill="url(#f)"/><path d="M16.433 0H0v1.907h16.433V0z" transform="translate(20.3 30.512)" fill="url(#g)"/><path d="M3.867 0H0v1.907h3.867V0z" transform="translate(53.166 30.512)" fill="url(#h)"/><path d="M33.833 0H0v1.907h33.833V0z" transform="translate(3.867 7.628)" fill="url(#i)"/><path d="M1.933 0H0v1.907h1.933V0z" transform="translate(12.566 34.325)" fill="url(#j)"/><path d="M1.933 0H0v1.907h1.933V0z" transform="translate(45.434 34.325)" fill="url(#k)"/><path d="M13.533 0H0v1.907h13.533V0z" transform="translate(3.867)" fill="url(#l)"/><path d="M1.933 0H0v1.907h1.933V0z" fill="url(#m)"/><defs><linearGradient id="a" x2="1" gradientUnits="userSpaceOnUse" gradientTransform="matrix(11.5938 5.41277 -1.23313 11.2419 .617 -5.049)"><stop stop-color="#E31E24"/><stop offset="1" stop-color="#A03686"/></linearGradient><linearGradient id="b" x2="1" gradientUnits="userSpaceOnUse" gradientTransform="matrix(11.5938 5.41277 -1.23313 11.2419 .617 -5.049)"><stop stop-color="#E31E24"/><stop offset="1" stop-color="#A03686"/></linearGradient><linearGradient id="c" x2="1" gradientUnits="userSpaceOnUse" gradientTransform="matrix(21.2552 12.1787 -2.26072 25.2944 1.13 -11.36)"><stop stop-color="#E31E24"/><stop offset="1" stop-color="#A03686"/></linearGradient><linearGradient id="d" x2="1" gradientUnits="userSpaceOnUse" gradientTransform="matrix(15.4584 4.96167 -1.64417 10.305 .822 -4.628)"><stop stop-color="#E31E24"/><stop offset="1" stop-color="#A03686"/></linearGradient><linearGradient id="e" x2="1" gradientUnits="userSpaceOnUse" gradientTransform="matrix(38.6461 15.3362 -4.11043 31.8521 2.055 -14.305)"><stop stop-color="#E31E24"/><stop offset="1" stop-color="#A03686"/></linearGradient><linearGradient id="f" x2="1" gradientUnits="userSpaceOnUse" gradientTransform="matrix(5.79692 .90214 -.61657 1.87369 .308 -.841)"><stop stop-color="#E31E24"/><stop offset="1" stop-color="#A03686"/></linearGradient><linearGradient id="g" x2="1" gradientUnits="userSpaceOnUse" gradientTransform="matrix(16.4247 .90214 -1.74694 1.87369 .873 -.841)"><stop stop-color="#E31E24"/><stop offset="1" stop-color="#A03686"/></linearGradient><linearGradient id="h" x2="1" gradientUnits="userSpaceOnUse" gradientTransform="matrix(3.86458 .90214 -.41104 1.87369 .206 -.841)"><stop stop-color="#E31E24"/><stop offset="1" stop-color="#A03686"/></linearGradient><linearGradient id="i" x2="1" gradientUnits="userSpaceOnUse" gradientTransform="matrix(33.8154 .90214 -3.59663 1.87369 1.798 -.841)"><stop stop-color="#E31E24"/><stop offset="1" stop-color="#A03686"/></linearGradient><linearGradient id="j" x2="1" gradientUnits="userSpaceOnUse" gradientTransform="matrix(1.93235 .90214 -.20553 1.87369 .103 -.841)"><stop stop-color="#E31E24"/><stop offset="1" stop-color="#A03686"/></linearGradient><linearGradient id="k" x2="1" gradientUnits="userSpaceOnUse" gradientTransform="matrix(1.93235 .90214 -.20553 1.87369 .103 -.841)"><stop stop-color="#E31E24"/><stop offset="1" stop-color="#A03686"/></linearGradient><linearGradient id="l" x2="1" gradientUnits="userSpaceOnUse" gradientTransform="matrix(13.5262 .90214 -1.43866 1.87369 .72 -.841)"><stop stop-color="#E31E24"/><stop offset="1" stop-color="#A03686"/></linearGradient><linearGradient id="m" x2="1" gradientUnits="userSpaceOnUse" gradientTransform="matrix(1.93235 .90214 -.20553 1.87369 .103 -.841)"><stop stop-color="#E31E24"/><stop offset="1" stop-color="#A03686"/></linearGradient></defs></svg>