<svg width="16" height="16" viewBox="0 0 16 16" fill="none" xmlns="http://www.w3.org/2000/svg"><mask id="a" fill="#fff"><path fill-rule="evenodd" clip-rule="evenodd" d="M5.76 0h4.48v16H5.76V0zM0 7.333h4.48V16H0V7.333zm16-2.666h-4.48V16H16V4.667z"/></mask><path d="M10.24 0h1v-1h-1v1zM5.76 0v-1h-1v1h1zm4.48 16v1h1v-1h-1zm-4.48 0h-1v1h1v-1zM4.48 7.333h1v-1h-1v1zm-4.48 0v-1h-1v1h1zM4.48 16v1h1v-1h-1zM0 16h-1v1h1v-1zM11.52 4.667v-1h-1v1h1zm4.48 0h1v-1h-1v1zM11.52 16h-1v1h1v-1zM16 16v1h1v-1h-1zM10.24-1H5.76v2h4.48v-2zm1 17V0h-2v16h2zm-5.48 1h4.48v-2H5.76v2zm-1-17v16h2V0h-2zm-.28 6.333H0v2h4.48v-2zm1 9.667V7.333h-2V16h2zM0 17h4.48v-2H0v2zm-1-9.667V16h2V7.333h-2zm12.52-1.666H16v-2h-4.48v2zm1 10.333V4.667h-2V16h2zM16 15h-4.48v2H16v-2zM15 4.667V16h2V4.667h-2z" fill="#C4C4C4" mask="url(#a)"/></svg>