<svg width="24" height="24" viewBox="0 0 24 24" fill="none" xmlns="http://www.w3.org/2000/svg"><path d="M20.485 15.515a11.954 11.954 0 0 0-4.56-2.86 6.935 6.935 0 0 0 3.012-5.717A6.945 6.945 0 0 0 12 0a6.945 6.945 0 0 0-6.938 6.938 6.935 6.935 0 0 0 3.013 5.717 11.954 11.954 0 0 0-4.56 2.86A11.922 11.922 0 0 0 0 24h1.875c0-5.583 4.542-10.125 10.125-10.125S22.125 18.417 22.125 24H24c0-3.205-1.248-6.219-3.515-8.485zM12 12a5.068 5.068 0 0 1-5.063-5.063A5.068 5.068 0 0 1 12 1.875a5.068 5.068 0 0 1 5.063 5.063A5.068 5.068 0 0 1 12 12z" transform="matrix(-1 0 0 1 24 0)" fill="url(#a)"/><defs><linearGradient id="a" x2="1" gradientUnits="userSpaceOnUse" gradientTransform="matrix(23.9872 11.3536 -2.5513 23.5807 1.276 -10.59)"><stop stop-color="#E31E24"/><stop offset="1" stop-color="#A03686"/></linearGradient></defs></svg>