<svg width="30" height="22" viewBox="0 0 30 22" fill="none" xmlns="http://www.w3.org/2000/svg"><path fill-rule="evenodd" clip-rule="evenodd" d="M23.95 8.419c2.583 1.466 4.631 3.522 5.924 5.95.291.547.06 1.215-.519 1.492-.576.276-1.281.057-1.574-.491C25.61 11.29 20.768 8.334 15 8.334c-5.764 0-10.608 2.954-12.782 7.036-.291.548-.996.767-1.574.49-.578-.276-.81-.944-.518-1.492 1.292-2.427 3.34-4.483 5.924-5.949L2.878 5.412a1.071 1.071 0 0 1 0-1.572 1.217 1.217 0 0 1 1.658 0l3.72 3.529a18.342 18.342 0 0 1 5.572-1.222V1.111C13.828.498 14.352 0 15 0c.647 0 1.172.498 1.172 1.111v5.036a18.34 18.34 0 0 1 5.57 1.222l3.722-3.529a1.214 1.214 0 0 1 1.657 0 1.071 1.071 0 0 1 0 1.572l-3.172 3.007zM9.725 17c0-2.757 2.366-5 5.273-5 2.908 0 5.273 2.243 5.273 5S17.907 22 15 22s-5.273-2.243-5.273-5zm2.344 0c0 1.532 1.314 2.778 2.93 2.778 1.615 0 2.929-1.246 2.929-2.778s-1.314-2.778-2.93-2.778c-1.615 0-2.93 1.246-2.93 2.778z" fill="url(#a)"/><defs><linearGradient id="a" x2="1" gradientUnits="userSpaceOnUse" gradientTransform="matrix(29.9837 10.4075 -3.18908 21.6156 1.595 -9.708)"><stop stop-color="#E31E24"/><stop offset="1" stop-color="#A03686"/></linearGradient></defs></svg>