<svg width="44" height="44" viewBox="0 0 44 44" fill="none" xmlns="http://www.w3.org/2000/svg"><path d="M44 20.497h-2.133v-9.711c0-2.328-1.913-4.222-4.264-4.222h-2.889L31.76 1.303A2.563 2.563 0 0 0 29.52 0c-.433 0-.863.11-1.243.32L16.935 6.563H4.265C1.913 6.564 0 8.458 0 10.786v28.992C0 42.106 1.913 44 4.265 44h33.338c2.351 0 4.264-1.894 4.264-4.222v-8.515H44V20.497zM37.603 8.253c1.313 0 2.386.988 2.53 2.252h-3.205l-1.264-2.252h1.939zm-8.495-6.458a.874.874 0 0 1 1.16.328l4.708 8.38H13.288l15.82-8.708zm11.053 37.983c0 1.397-1.148 2.533-2.559 2.533H4.265c-1.41 0-2.56-1.136-2.56-2.533V10.786c0-1.397 1.15-2.533 2.56-2.533h9.603l-4.091 2.252H4.798a.849.849 0 0 0-.853.844c0 .466.381.845.853.845h35.363v8.304h-6.237c-2.897 0-5.255 2.334-5.255 5.201v.364c0 2.867 2.358 5.201 5.255 5.201h6.237v8.514zm2.133-10.203h-8.37c-1.957 0-3.549-1.576-3.549-3.513v-.363c0-1.938 1.592-3.513 3.549-3.513h8.37v7.389zm-5.758-3.625c0 1.03-.843 1.864-1.883 1.864a1.873 1.873 0 0 1-1.883-1.864c0-1.03.842-1.865 1.883-1.865 1.04 0 1.883.835 1.883 1.864z" fill="url(#a)"/><defs><linearGradient id="a" x2="1" gradientUnits="userSpaceOnUse" gradientTransform="matrix(43.9766 20.815 -4.67738 43.2313 2.339 -19.416)"><stop stop-color="#E31E24"/><stop offset="1" stop-color="#A03686"/></linearGradient></defs></svg>