<svg width="33" height="34" viewBox="0 0 33 34" fill="none" xmlns="http://www.w3.org/2000/svg"><path d="M0 0h33v34H0z"/><path d="M0 0h33v34H0z"/><path d="M0 0h33v34H0z"/><path d="M0 0h33v34H0z"/><path d="M18.82 31.827a17.195 17.195 0 0 0-1.442-6.222l-1.988.881a15.054 15.054 0 0 1 1.256 5.34H2.923l4.011-13.36a15.33 15.33 0 0 1 4.952 3.089l1.49-1.583a17.492 17.492 0 0 0-5.817-3.587L12.291.629 10.208 0 0 34h33v-2.173H18.82z" fill="#7C8287"/><path d="M23.756 25.306a3.805 3.805 0 0 0 3.806-3.803c0-2.1-1.704-3.804-3.806-3.804a3.805 3.805 0 0 0-3.806 3.804c0 2.1 1.704 3.803 3.806 3.803zm0-5.433a1.63 1.63 0 1 1 .001 3.261 1.63 1.63 0 0 1 0-3.261zm-9.311 4.819l1.854-1.137a17.73 17.73 0 0 0-1.342-1.89l-1.687 1.372c.428.526.82 1.078 1.175 1.655z" fill="#7C8287"/></svg>