<svg width="18" height="16" viewBox="0 0 18 16" fill="none" xmlns="http://www.w3.org/2000/svg"><path d="M15.821 10.423l2.128-6.46c.107-.311.026-.498-.06-.621-.22-.316-.674-.319-.762-.319L5.1 3.021l-.32-1.545c-.087-.364-.343-.712-.86-.712H.542C.191.764 0 .931 0 1.263v.891c0 .322.19.405.553.405h2.854l2.184 9.406c-.347.373-.536.916-.536 1.423 0 1.116.876 2.144 1.994 2.144 1.056 0 1.848-1.004 1.977-1.602h4.253c.129.598.77 1.626 1.976 1.626 1.099 0 1.992-.966 1.992-2.08 0-1.108-.663-2.09-1.981-2.09-.548 0-1.198.3-1.5.748H8.539c-.379-.598-.897-.784-1.42-.804l-.073-.392h7.952c.599 0 .717-.222.823-.515zm-.551 2.269c.413 0 .749.34.749.76s-.336.76-.75.76a.755.755 0 0 1-.75-.76.756.756 0 0 1 .75-.76zm-7.48.76c0 .424-.34.77-.757.77a.766.766 0 0 1-.758-.77c0-.425.34-.77.758-.77.417 0 .757.345.757.77z" fill="#7C8287"/></svg>