<svg width="38" height="24" viewBox="0 0 38 24" fill="none" xmlns="http://www.w3.org/2000/svg"><path d="M31.541 1.54c.43 0 .78.345.78.77v4.716h3.343c.429 0 .779.345.779.77v8.407c0 .424-.35.77-.78.77H32.32v4.716c0 .425-.35.77-.779.77H2.336a.775.775 0 0 1-.778-.77V2.31c0-.425.348-.77.778-.77h29.205zm0-1.54H2.336C1.046 0 0 1.035 0 2.31v19.38C0 22.964 1.046 24 2.336 24h29.205c1.29 0 2.337-1.036 2.337-2.31v-3.176h1.786c1.288 0 2.336-1.036 2.336-2.31V7.796c0-1.275-1.047-2.31-2.336-2.31h-1.786V2.31C33.878 1.035 32.83 0 31.54 0zM12.994 12.186h3.826l-2.513 5.282 7.111-6.592-3.797.003 1.782-4.347-6.409 5.654z" fill="#7C8287"/></svg>