<svg width="24" height="40" viewBox="0 0 24 40" fill="none" xmlns="http://www.w3.org/2000/svg"><path d="M0 0h24v40H0z"/><path d="M0 0h24v40H0z"/><path d="M0 0h24v40H0z"/><path d="M21.334 18.752a2.675 2.675 0 0 0-2.667-2.68c-.55 0-1.06.168-1.484.455a2.671 2.671 0 0 0-2.516-1.794c-.486 0-.94.132-1.333.36v-4.378a2.675 2.675 0 0 0-2.667-2.679A2.675 2.675 0 0 0 8 10.716v10.782a3.35 3.35 0 0 0-2.667 3.281c0 1.869.7 3.651 1.973 5.019 1.308 1.406 2.028 3.205 2.028 5.07v1.966c0 .75.4 1.794 2.31 2.5 1.162.429 2.708.666 4.356.666 3.076 0 6.667-.83 6.667-3.166v-3.51c0-.928.119-1.91.361-3.004.644-2.913.972-5.904.972-8.89a2.675 2.675 0 0 0-2.666-2.678zm.392 11.277c-.264 1.19-.392 2.267-.392 3.295v3.51c0 1.007-2.393 1.827-5.334 1.827s-5.333-.82-5.333-1.827v-1.967c0-2.204-.848-4.33-2.388-5.985a6.005 6.005 0 0 1-1.612-4.103c0-.873.557-1.617 1.333-1.894v2.564h1.333V10.715c0-.74.6-1.34 1.334-1.34.735 0 1.333.6 1.333 1.34v9.377h1.334V17.41c0-.739.599-1.338 1.333-1.338.735 0 1.333.6 1.333 1.34v2.679h1.333v-1.34c0-.74.6-1.34 1.334-1.34.734 0 1.333.6 1.333 1.34v2.678h1.333V20.1c.69.018 1.334.595 1.334 1.33 0 2.887-.318 5.781-.942 8.6z" fill="#7C8287"/><path d="M1.333 10.715c0-5.169 4.187-9.376 9.334-9.376C15.813 1.34 20 5.546 20 10.715c0 .85-.112 1.692-.336 2.5l1.285.357a10.75 10.75 0 0 0 .384-2.857C21.333 4.807 16.548 0 10.667 0 4.785 0 0 4.807 0 10.715A10.75 10.75 0 0 0 3.555 18.7l.889-.996a9.408 9.408 0 0 1-3.11-6.988z" fill="#7C8287"/></svg>