<svg width="43" height="37" viewBox="0 0 43 37" fill="none" xmlns="http://www.w3.org/2000/svg"><path d="M18.881 19.698a2.19 2.19 0 0 0 1.66-.763.639.639 0 0 0-.06-.896.626.626 0 0 0-.889.062.94.94 0 0 1-1.422 0 .626.626 0 0 0-.888-.062.639.639 0 0 0-.061.896 2.194 2.194 0 0 0 1.66.763z" fill="#7C8287"/><path d="M32.303 13.13H10.697a2.343 2.343 0 0 0-2.33 2.35v11.43a2.343 2.343 0 0 0 2.33 2.35h21.606a2.343 2.343 0 0 0 2.33-2.35V15.48a2.343 2.343 0 0 0-2.33-2.35zm1.07 13.78c0 .595-.48 1.08-1.07 1.08H10.697c-.59 0-1.07-.485-1.07-1.08V15.48c0-.596.48-1.08 1.07-1.08h21.606c.59 0 1.07.484 1.07 1.08v11.43z" fill="#7C8287"/><path d="M40.885 31.669h-.925V10.72h.925A2.126 2.126 0 0 0 43 8.588V7.522a2.126 2.126 0 0 0-2.115-2.133h-3.06V3.02c0-.82-.663-1.489-1.478-1.489h-3.145c-.815 0-1.477.668-1.477 1.49v2.37h-2.117v-3.9c0-.822-.662-1.49-1.477-1.49H18.66a.632.632 0 0 0-.63.635c0 .35.282.635.63.635h9.472c.12 0 .218.098.218.22v3.9h-3.546V3.33a.632.632 0 0 0-.63-.635.632.632 0 0 0-.63.635v2.06h-4.086V3.33a.632.632 0 0 0-.63-.635.632.632 0 0 0-.63.635v2.06h-3.546v-3.9c0-.122.098-.22.218-.22h.832c.348 0 .63-.284.63-.635a.633.633 0 0 0-.63-.635h-.832c-.815 0-1.477.668-1.477 1.49v3.9h-2.117V3.02c0-.822-.662-1.49-1.477-1.49H6.652c-.814 0-1.477.668-1.477 1.49v2.37h-3.06A2.126 2.126 0 0 0 0 7.521v1.066c0 1.176.949 2.132 2.115 2.132h.925v20.95h-.925A2.126 2.126 0 0 0 0 33.8v1.067C0 36.043.949 37 2.115 37h33.148c.348 0 .63-.284.63-.635a.632.632 0 0 0-.63-.635H2.115a.86.86 0 0 1-.855-.862V33.8a.86.86 0 0 1 .855-.862h38.77a.86.86 0 0 1 .855.862v1.067a.86.86 0 0 1-.855.862h-2.61a.633.633 0 0 0-.63.635c0 .35.283.635.63.635h2.61A2.126 2.126 0 0 0 43 34.868V33.8a2.126 2.126 0 0 0-2.115-2.132zm-7.9-28.65c0-.12.097-.219.217-.219h3.145a.22.22 0 0 1 .218.22v2.37h-3.58V3.02zm-26.55 0a.22.22 0 0 1 .217-.219h3.146a.22.22 0 0 1 .218.22v2.37h-3.58V3.02zM2.115 9.45a.86.86 0 0 1-.855-.862V7.522a.86.86 0 0 1 .855-.862h38.77a.86.86 0 0 1 .855.862v1.066a.86.86 0 0 1-.855.862H2.115zm2.184 22.22V10.72H38.7v20.95H4.3z" fill="#7C8287"/><path d="M14.384 19.12c.348 0 .63-.284.63-.635v-.753a.632.632 0 0 0-.63-.635.632.632 0 0 0-.63.635v.753c0 .35.282.635.63.635zm16.17 1.44H29.31l1.383-3.304a.637.637 0 0 0-.336-.832.628.628 0 0 0-.825.338l-1.752 4.186a.64.64 0 0 0 .056.598.629.629 0 0 0 .525.284h1.244l-1.383 3.303a.637.637 0 0 0 .58.883.63.63 0 0 0 .58-.389l1.753-4.185a.64.64 0 0 0-.056-.599.629.629 0 0 0-.525-.284zm-7.176 1.814h-8.994a.632.632 0 0 0-.63.635c0 .35.282.635.63.635h8.994c.348 0 .63-.284.63-.635a.632.632 0 0 0-.63-.635zm0-5.277a.632.632 0 0 0-.63.635v.753c0 .35.282.635.63.635.348 0 .63-.284.63-.635v-.753a.632.632 0 0 0-.63-.635zm-1.474 8.06h-6.045a.632.632 0 0 0-.63.635c0 .35.282.635.63.635h6.045c.348 0 .63-.284.63-.635a.632.632 0 0 0-.63-.635z" fill="#7C8287"/></svg>