<svg width="56" height="30" viewBox="0 0 56 30" fill="none" xmlns="http://www.w3.org/2000/svg"><path d="M.738 0h54.956v30H.738z"/><path d="M.738 0h54.956v30H.738z"/><path d="M.738 0h54.956v30H.738z"/><path d="M52.834 11.54L48.42 9.447l-3.897-6.454C43.397 1.123 41.415-.012 39.286 0H22.687c-1.926 0-3.75.924-4.921 2.514l-5.034 6.84-8.39 2.385c-2.128.607-3.604 2.63-3.604 4.922v3.332c0 2.817 2.163 5.144 4.877 5.144h.72c.867 3.472 4.28 5.553 7.624 4.653 2.196-.596 3.92-2.373 4.482-4.653h18.92c.867 3.472 4.28 5.553 7.624 4.653 2.196-.596 3.919-2.373 4.482-4.653h1.351c2.714 0 4.877-2.327 4.877-5.144v-3.8c.01-2-1.115-3.823-2.86-4.653zM12.383 27.639c-2.208 0-3.998-1.859-3.998-4.15 0-2.292 1.79-4.151 3.998-4.151 2.207 0 3.998 1.859 3.998 4.15.01 2.28-1.78 4.14-3.998 4.151zm31.025 0c-2.207 0-3.998-1.859-3.998-4.15 0-2.292 1.791-4.151 3.998-4.151 2.207 0 3.998 1.859 3.998 4.15.011 2.28-1.78 4.14-3.998 4.151zm7.41-4.84h-1.193c-.372-3.566-3.469-6.138-6.904-5.74-2.916.326-5.214 2.723-5.53 5.74H18.6c-.372-3.566-3.469-6.138-6.903-5.74-2.917.326-5.214 2.723-5.53 5.74h-.563c-1.475 0-2.624-1.275-2.624-2.806V16.66c-.01-1.251.789-2.339 1.949-2.678l8.772-2.49c.237-.07.45-.21.597-.421l5.248-7.144a3.93 3.93 0 0 1 3.142-1.59h16.6a3.847 3.847 0 0 1 3.333 1.894l4.077 6.758c.112.199.292.35.484.444l4.707 2.234a2.762 2.762 0 0 1 1.543 2.525v3.8h.011c0 1.531-1.148 2.806-2.624 2.806z" fill="#000"/></svg>