<svg width="39" height="35" viewBox="0 0 39 35" fill="none" xmlns="http://www.w3.org/2000/svg"><path d="M0 0h39v35H0z"/><path d="M0 0h39v35H0z"/><path d="M0 0h39v35H0z"/><path d="M36.4 0H6.5C5.064 0 3.9 1.16 3.9 2.593v20.74H.65a.65.65 0 0 0-.65.649 2.596 2.596 0 0 0 2.6 2.592h18.85v7.778a.649.649 0 0 0 1.11.458L26 31.38l3.44 3.43a.651.651 0 0 0 1.11-.458v-7.778h1.95c1.436 0 2.6-1.16 2.6-2.593V3.242h3.25a.65.65 0 0 0 .65-.648A2.596 2.596 0 0 0 36.4 0zm-2.6 2.593v20.74h-2.6v1.297h2.425a1.3 1.3 0 0 1-1.125.648h-1.95v-.648h-1.3v8.157l-2.79-2.782a.651.651 0 0 0-.92 0l-2.79 2.782V24.63h-1.3v.648H2.6a1.3 1.3 0 0 1-1.125-.648H20.8v-1.297H5.2V2.593c0-.716.582-1.297 1.3-1.297h27.661c-.233.393-.358.84-.361 1.297zm1.475-.649a1.302 1.302 0 0 1 2.25 0h-2.25z" fill="#7C8287"/><path d="M19.785 12.323h12.43V25.28h-12.43z"/><path d="M19.785 12.323h12.43V25.28h-12.43z"/><path d="M32.128 20.284l-.833-1.488.836-1.486a.647.647 0 0 0-.296-.907l-1.552-.709-.2-1.692a.65.65 0 0 0-.771-.559l-1.676.331-1.159-1.251a.67.67 0 0 0-.947-.008l-.007.008-1.159 1.251-1.676-.33a.65.65 0 0 0-.771.558l-.2 1.692-1.552.71a.648.648 0 0 0-.296.907l.836 1.485-.836 1.486a.647.647 0 0 0 .296.908l1.552.71.2 1.693a.65.65 0 0 0 .771.559l1.676-.331 1.159 1.251a.651.651 0 0 0 .954 0l1.16-1.251 1.675.33a.642.642 0 0 0 .768-.558l.2-1.692 1.552-.71a.648.648 0 0 0 .296-.907zm-2.145-1.171l.67 1.19-1.244.568a.648.648 0 0 0-.374.513l-.16 1.357-1.344-.265a.642.642 0 0 0-.603.194L26 23.673l-.928-1.002a.65.65 0 0 0-.603-.195l-1.344.265-.16-1.356a.649.649 0 0 0-.374-.514l-1.243-.568.669-1.19a.634.634 0 0 0 0-.634v.003l-.669-1.19 1.243-.569a.649.649 0 0 0 .374-.513l.16-1.357 1.344.266a.645.645 0 0 0 .603-.195L26 13.92l.928 1.002c.153.166.382.24.603.194l1.344-.265.16 1.357a.648.648 0 0 0 .374.513l1.243.569-.669 1.19a.647.647 0 0 0 0 .634z" fill="#7C8287"/><path d="M22.75 15.556h6.5v6.48h-6.5z"/><path d="M22.75 15.556h6.5v6.48h-6.5z"/><path d="M26 15.556a3.245 3.245 0 0 0-3.25 3.24A3.25 3.25 0 0 0 26 22.037c1.795 0 3.25-1.45 3.25-3.24A3.245 3.245 0 0 0 26 15.556zm0 5.185c-1.077 0-1.95-.87-1.95-1.945 0-1.073.873-1.944 1.95-1.944s1.95.87 1.95 1.944A1.947 1.947 0 0 1 26 20.741z" fill="#7C8287"/><path d="M14.3 3.889h10.4v1.296H14.3z"/><path d="M14.3 3.889h10.4v1.296H14.3z"/><path d="M24.7 3.889H14.3v1.296h10.4V3.89z" fill="#7C8287"/><path d="M7.8 7.778h23.4v1.296H7.8z"/><path d="M7.8 7.778h23.4v1.296H7.8z"/><path d="M31.2 7.778H7.8v1.296h23.4V7.778z" fill="#7C8287"/><path d="M7.8 10.37h23.4v1.296H7.8z"/><path d="M7.8 10.37h23.4v1.296H7.8z"/><path d="M31.2 10.37H7.8v1.297h23.4V10.37z" fill="#7C8287"/><path d="M8.45 18.796h8.45v1.296H8.45z"/><path d="M8.45 18.796h8.45v1.296H8.45z"/><path d="M16.9 18.796H8.45v1.296h8.45v-1.296z" fill="#7C8287"/></svg>