<svg width="34" height="34" viewBox="0 0 34 34" fill="none" xmlns="http://www.w3.org/2000/svg"><path d="M0 0h34v34H0z"/><path d="M0 0h34v16.438H0z"/><path d="M0 0h34v16.438H0z"/><path d="M30.02 8.506c-.415 0-.828.063-1.223.188a7.21 7.21 0 0 0 .056-.896c-.073-4.38-3.697-7.87-8.093-7.797a7.96 7.96 0 0 0-7.259 4.99 4.912 4.912 0 0 0-6.748 1.576 4.87 4.87 0 0 0-.735 2.481 4.073 4.073 0 0 0-2.038-.542A3.973 3.973 0 0 0 0 12.472a3.973 3.973 0 0 0 3.98 3.966.568.568 0 1 0 0-1.133 2.837 2.837 0 0 1-2.796-2.879A2.838 2.838 0 0 1 4.073 9.64c.955.016 1.84.508 2.352 1.312a.57.57 0 0 0 .787.164.565.565 0 0 0 .216-.686 3.586 3.586 0 0 1-.275-1.357 3.731 3.731 0 0 1 3.77-3.683 3.806 3.806 0 0 1 2.493.943.57.57 0 0 0 .922-.276c1.04-3.607 4.819-5.69 8.439-4.654a6.8 6.8 0 0 1 4.935 6.395 6.548 6.548 0 0 1-.247 1.756.566.566 0 0 0 .874.616 2.923 2.923 0 0 1 1.68-.53 2.838 2.838 0 0 1 2.844 2.832 2.838 2.838 0 0 1-2.843 2.833.568.568 0 1 0 0 1.133A3.973 3.973 0 0 0 34 12.472a3.973 3.973 0 0 0-3.98-3.966z" fill="#7C8287"/><path d="M5.626 21.536H28.37v5.665H5.626z"/><path d="M5.626 21.536H28.37v5.665H5.626z"/><path d="M26.665 21.536H7.332c-.942 0-1.706.761-1.706 1.7v2.266c0 .939.764 1.7 1.706 1.7h19.333c.942 0 1.706-.761 1.706-1.7v-2.266c0-.939-.764-1.7-1.706-1.7zm.569 3.966a.568.568 0 0 1-.57.567H7.333a.568.568 0 0 1-.568-.567v-2.266c0-.313.254-.567.568-.567h19.333c.314 0 .569.254.569.567v2.266z" fill="#7C8287"/><path d="M23.992 23.271h2.204v2.196h-2.204z"/><path d="M23.992 23.271h2.204v2.196h-2.204z"/><path d="M25.088 23.271a1.1 1.1 0 0 0-1.096 1.098 1.105 1.105 0 0 0 1.11 1.098 1.1 1.1 0 0 0 1.094-1.105 1.1 1.1 0 0 0-1.108-1.09zm.013 1.134c-.017 0-.028-.019-.028-.036l.028-.035v.07z" fill="#7C8287"/><path d="M7.787 23.803h11.941v1.133H7.788z"/><path d="M7.787 23.803h11.941v1.133H7.788z"/><path d="M19.16 23.803H8.355a.568.568 0 1 0 0 1.133h10.803a.568.568 0 1 0 0-1.133z" fill="#7C8287"/><path d="M20.59 23.803h2.65v1.133h-2.65z"/><path d="M20.59 23.803h2.65v1.133h-2.65z"/><path d="M22.67 23.803h-1.512a.568.568 0 1 0 0 1.133h1.512a.568.568 0 1 0 0-1.133z" fill="#7C8287"/><path d="M5.626 28.335H28.37V34H5.626z"/><path d="M5.626 28.335H28.37V34H5.626z"/><path d="M26.665 28.335H7.332c-.942 0-1.706.76-1.706 1.7V32.3c0 .94.764 1.7 1.706 1.7h19.333c.942 0 1.706-.76 1.706-1.7v-2.266c0-.938-.764-1.7-1.706-1.7zm.569 3.965a.568.568 0 0 1-.57.567H7.333a.568.568 0 0 1-.568-.567v-2.266c0-.313.254-.566.568-.566h19.333c.314 0 .569.253.569.566V32.3z" fill="#7C8287"/><path d="M23.992 30.07h2.204v2.195h-2.204z"/><path d="M23.992 30.07h2.204v2.195h-2.204z"/><path d="M25.088 30.07a1.1 1.1 0 0 0-1.096 1.097 1.105 1.105 0 0 0 1.11 1.098 1.1 1.1 0 0 0 1.094-1.105 1.1 1.1 0 0 0-1.108-1.09zm.013 1.133c-.017 0-.028-.019-.028-.036l.028-.035v.071z" fill="#7C8287"/><path d="M7.787 30.6h11.941v1.134H7.788z"/><path d="M7.787 30.6h11.941v1.134H7.788z"/><path d="M19.16 30.6H8.355a.568.568 0 1 0 0 1.134h10.803a.568.568 0 1 0 0-1.133z" fill="#7C8287"/><path d="M20.59 30.6h2.65v1.134h-2.65z"/><path d="M20.59 30.6h2.65v1.134h-2.65z"/><path d="M22.67 30.6h-1.512a.568.568 0 1 0 0 1.134h1.512a.568.568 0 1 0 0-1.133z" fill="#7C8287"/><path d="M5.626 14.738H28.37v5.665H5.626z"/><path d="M5.626 14.738H28.37v5.665H5.626z"/><path d="M26.665 14.738H7.332c-.942 0-1.706.761-1.706 1.7v2.266c0 .938.764 1.7 1.706 1.7h19.333c.942 0 1.706-.762 1.706-1.7v-2.266c0-.939-.764-1.7-1.706-1.7zm.569 3.966a.568.568 0 0 1-.57.566H7.333a.568.568 0 0 1-.568-.566v-2.266c0-.313.254-.567.568-.567h19.333c.314 0 .569.254.569.567v2.266z" fill="#7C8287"/><path d="M23.817 16.506h2.219v2.198h-2.22z"/><path d="M23.817 16.506h2.219v2.198h-2.22z"/><path d="M26.018 17.416a1.111 1.111 0 0 0-2.001-.442 1.081 1.081 0 0 0-.183.818 1.112 1.112 0 0 0 2 .443c.17-.237.236-.532.184-.819zm-1.12.2l.026-.045.003.07c-.025 0-.027-.014-.028-.025z" fill="#7C8287"/><path d="M7.673 17.004h11.941v1.133H7.674z"/><path d="M7.673 17.004h11.941v1.133H7.674z"/><path d="M19.046 17.004H8.242a.568.568 0 1 0 0 1.133h10.804a.568.568 0 1 0 0-1.133z" fill="#7C8287"/><path d="M20.226 17.004h2.65v1.133h-2.65z"/><path d="M20.226 17.004h2.65v1.133h-2.65z"/><path d="M22.307 17.004h-1.512a.568.568 0 1 0 0 1.133h1.512a.568.568 0 1 0 0-1.133z" fill="#7C8287"/><path d="M10.182 7.373h4.535v6.232h-4.535z"/><path d="M10.182 7.373h4.535v6.232h-4.535z"/><path d="M14.557 9.239l-1.705-1.7a.57.57 0 0 0-.804 0l-1.706 1.7a.565.565 0 0 0 .014.8.57.57 0 0 0 .79 0l.735-.732v3.732a.568.568 0 0 0 1.137 0V9.307l.736.733a.57.57 0 0 0 .803-.014.565.565 0 0 0 0-.787z" fill="#7C8287"/><path d="M19.28 7.373h4.535v6.232H19.28z"/><path d="M19.28 7.373h4.535v6.232H19.28z"/><path d="M23.641 10.938a.57.57 0 0 0-.79 0l-.735.733V7.94a.568.568 0 0 0-1.137 0v3.731l-.735-.733a.57.57 0 0 0-.804.014.565.565 0 0 0 0 .787l1.705 1.7a.57.57 0 0 0 .805 0l1.705-1.7a.565.565 0 0 0-.014-.8z" fill="#7C8287"/></svg>