<svg width="40" height="29" viewBox="0 0 40 29" fill="none" xmlns="http://www.w3.org/2000/svg"><path d="M0 0h40v28.887H0z"/><path d="M31.716 11.446C31.633 5.12 26.646 0 20.528 0c-2.722 0-5.344 1.027-7.383 2.892a11.718 11.718 0 0 0-3.558 6.33L9.48 9.22C4.253 9.22 0 13.632 0 19.054s4.253 9.833 9.48 9.833h3.479c.47 0 .853-.396.853-.884 0-.49-.382-.885-.853-.885h-3.48c-4.286 0-7.773-3.618-7.773-8.064s3.487-8.063 7.774-8.063c.228 0 .47.012.738.038a.861.861 0 0 0 .925-.761 9.956 9.956 0 0 1 3.13-6.049 9.258 9.258 0 0 1 6.255-2.45c5.229 0 9.483 4.414 9.483 9.838 0 .195-.035.7-.035.7a.902.902 0 0 0 .257.698c.18.181.428.271.68.245.226-.023.455-.035.68-.035 3.695 0 6.7 3.118 6.7 6.951 0 3.833-3.005 6.951-6.7 6.951h-3.82c-.472 0-.854.397-.854.885 0 .49.382.885.853.885h3.82c4.636 0 8.408-3.912 8.408-8.72 0-4.767-3.705-8.652-8.284-8.721z" fill="#7C8287"/></svg>