<svg width="39" height="38" viewBox="0 0 39 38" fill="none" xmlns="http://www.w3.org/2000/svg"><path d="M.606 0h37.97v38H.606z"/><path d="M.606 0h37.97v38H.606z"/><path d="M.606 0h37.97v38H.606z"/><path d="M21.004 18.03h-2.82a2.128 2.128 0 0 1-2.125-2.127c0-1.172.954-2.126 2.125-2.126h4.977c.533 0 .97-.437.97-.97a.973.973 0 0 0-.97-.97h-2.594V9.856a.973.973 0 0 0-.969-.97.973.973 0 0 0-.97.97v1.98h-.444a4.073 4.073 0 0 0-4.063 4.067 4.074 4.074 0 0 0 4.063 4.067h2.82c1.171 0 2.124.954 2.124 2.127a2.128 2.128 0 0 1-2.124 2.126h-5.066a.973.973 0 0 0-.97.97c0 .534.437.97.97.97h2.682v2.022c0 .533.437.97.97.97.533 0 .97-.437.97-.97v-2.022h.491a4.073 4.073 0 0 0 4.007-4.066 4.061 4.061 0 0 0-4.055-4.067z" fill="#000"/><path d="M33.017 5.563A18.85 18.85 0 0 0 19.591 0 18.85 18.85 0 0 0 6.164 5.563 18.88 18.88 0 0 0 .606 19a18.88 18.88 0 0 0 5.558 13.437A18.85 18.85 0 0 0 19.59 38a18.85 18.85 0 0 0 13.426-5.563A18.88 18.88 0 0 0 38.576 19a18.88 18.88 0 0 0-5.559-13.437zM19.591 36.06c-9.396 0-17.046-7.657-17.046-17.06 0-9.403 7.65-17.06 17.046-17.06 9.395 0 17.046 7.657 17.046 17.06 0 9.403-7.65 17.06-17.046 17.06z" fill="#000"/></svg>