<svg width="19" height="17" viewBox="0 0 19 17" fill="none" xmlns="http://www.w3.org/2000/svg"><path d="M17.728 4.035c-.848-1.01-2-1.808-3.457-2.393-1.456-.586-3.046-.878-4.77-.878a13.01 13.01 0 0 0-3.69.518c-1.174.346-2.185.813-3.033 1.402-.848.589-1.523 1.289-2.025 2.1C.25 5.596 0 6.446 0 7.336c0 1.027.32 1.99.96 2.887.64.896 1.514 1.65 2.624 2.26-.078.273-.17.533-.276.78a7.879 7.879 0 0 1-.286.606 4.16 4.16 0 0 1-.345.523 5.352 5.352 0 0 1-.329.406l-.365.39a38.117 38.117 0 0 0-.414.447l-.074.087-.064.093c-.035.051-.051.084-.047.097a.284.284 0 0 1-.022.103c-.017.054-.016.095.006.123v.01c.028.123.09.223.185.298a.425.425 0 0 0 .324.092c.46-.055.862-.13 1.208-.226 1.852-.459 3.478-1.287 4.878-2.485.53.055 1.042.082 1.537.082 1.725 0 3.315-.293 4.771-.878 1.456-.586 2.608-1.383 3.457-2.393C18.576 9.628 19 8.528 19 7.336c0-1.19-.424-2.292-1.272-3.301z" fill="#7C8287"/></svg>