<svg width="14" height="12" viewBox="0 0 14 12" fill="none" xmlns="http://www.w3.org/2000/svg"><path fill-rule="evenodd" clip-rule="evenodd" d="M13.957 8.86l-2.598-5.057a.412.412 0 0 0 .092-.257.43.43 0 0 0-.436-.424H8.107a.513.513 0 0 0 .364-.486.518.518 0 0 0-.526-.51h-.193c.287-.218.472-.556.472-.937C8.224.532 7.676 0 7 0c-.676 0-1.224.532-1.224 1.189 0 .38.185.719.472.937h-.193a.518.518 0 0 0-.526.51c0 .228.153.42.364.486H3.034v-.001l-.001.001h-.048a.43.43 0 0 0-.436.424c0 .111.045.212.118.288L.044 8.942a.396.396 0 0 0-.038.248.252.252 0 0 0 0 .048c.147 1.5 1.446 2.671 3.028 2.671 1.58 0 2.88-1.172 3.028-2.67a.26.26 0 0 0 0-.05.396.396 0 0 0-.038-.247L3.469 3.969h7.019L7.977 8.86a.396.396 0 0 0-.038.248.252.252 0 0 0 0 .049c.148 1.498 1.447 2.67 3.028 2.67 1.582 0 2.881-1.172 3.029-2.67a.254.254 0 0 0 0-.049.396.396 0 0 0-.038-.248zM.978 8.953l2.056-4.002 2.055 4.002H.98zm7.933-.082l2.055-4.001 2.056 4.001H8.91z" fill="#7C8287"/></svg>