<svg width="84" height="36" viewBox="0 0 84 36" fill="none" xmlns="http://www.w3.org/2000/svg"><path d="M24.632 33.608c-1.024.736-2.336 1.264-3.936 1.584-1.568.32-3.184.48-4.848.48-2.016 0-3.936-.304-5.76-.912a12.684 12.684 0 0 1-4.752-3.024c-1.376-1.408-2.48-3.216-3.312-5.424-.8-2.24-1.2-4.944-1.2-8.112 0-3.296.448-6.048 1.344-8.256.928-2.24 2.112-4.032 3.552-5.376 1.472-1.376 3.104-2.352 4.896-2.928 1.792-.608 3.584-.912 5.376-.912 1.92 0 3.536.128 4.848.384 1.344.256 2.448.56 3.312.912l-1.296 5.568c-.736-.352-1.616-.608-2.64-.768-.992-.16-2.208-.24-3.648-.24-2.656 0-4.8.944-6.432 2.832-1.6 1.888-2.4 4.816-2.4 8.784 0 1.728.192 3.312.576 4.752.384 1.408.96 2.624 1.728 3.648a8.733 8.733 0 0 0 2.928 2.352c1.184.544 2.544.816 4.08.816 1.44 0 2.656-.144 3.648-.432.992-.288 1.856-.656 2.592-1.104l1.344 5.376zm4.06-31.872a41.273 41.273 0 0 1 4.416-.576 49.7 49.7 0 0 1 4.849-.24c1.663 0 3.328.144 4.992.432 1.696.256 3.215.8 4.56 1.632 1.343.8 2.431 1.936 3.264 3.408.863 1.44 1.295 3.328 1.295 5.664 0 2.112-.367 3.904-1.103 5.376-.737 1.44-1.713 2.624-2.929 3.552-1.215.928-2.608 1.6-4.175 2.016a18.281 18.281 0 0 1-4.8.624h-1.873l-1.152-.096a8.104 8.104 0 0 1-.767-.096V35h-6.576V1.736zm9.792 4.848c-.64 0-1.248.032-1.824.096-.575.032-1.04.08-1.391.144V17.72c.128.032.32.064.575.096.256.032.529.064.816.096h1.44c.864 0 1.712-.08 2.544-.24.864-.16 1.633-.448 2.305-.864a4.632 4.632 0 0 0 1.584-1.824c.416-.768.623-1.776.623-3.024 0-1.056-.191-1.92-.575-2.592a4.578 4.578 0 0 0-1.537-1.68c-.607-.416-1.311-.704-2.111-.864-.8-.16-1.617-.24-2.449-.24zM54.59 18.2c0-5.6 1.232-9.904 3.696-12.912 2.464-3.04 5.984-4.56 10.56-4.56 2.4 0 4.496.416 6.288 1.248a11.845 11.845 0 0 1 4.464 3.552c1.184 1.536 2.064 3.376 2.64 5.52.576 2.144.864 4.528.864 7.152 0 5.6-1.248 9.92-3.744 12.96-2.464 3.008-5.968 4.512-10.512 4.512-2.432 0-4.544-.416-6.336-1.248a11.845 11.845 0 0 1-4.464-3.552c-1.152-1.536-2.016-3.376-2.592-5.52-.576-2.144-.864-4.528-.864-7.152zm6.912 0c0 1.696.144 3.264.432 4.704.288 1.408.72 2.624 1.296 3.648.608 1.024 1.376 1.824 2.304 2.4.928.576 2.032.864 3.312.864 2.336 0 4.144-.912 5.424-2.736 1.28-1.824 1.92-4.784 1.92-8.88 0-1.632-.144-3.152-.432-4.56-.256-1.408-.672-2.64-1.248-3.696s-1.328-1.872-2.256-2.448c-.928-.608-2.064-.912-3.408-.912-2.336 0-4.144.944-5.424 2.832-1.28 1.856-1.92 4.784-1.92 8.784z" fill="#212121"/></svg>