<svg width="38" height="26" viewBox="0 0 38 26" fill="none" xmlns="http://www.w3.org/2000/svg"><path d="M0 0h38v26H0z"/><path d="M31.067 19.01c-.928 0-1.81.366-2.476 1.026a3.475 3.475 0 0 0-1.037 2.47c0 .931.364 1.801 1.037 2.469A3.516 3.516 0 0 0 31.067 26c1.904 0 3.451-1.569 3.451-3.495 0-1.926-1.547-3.494-3.451-3.494zm0 5.437c-1.068 0-1.965-.886-1.965-1.942s.897-1.941 1.965-1.941c1.052 0 1.904.87 1.904 1.941 0 1.072-.852 1.942-1.904 1.942zm.898-17.077a.75.75 0 0 0-.519-.202h-3.97a.777.777 0 0 0-.773.776v6.368c0 .428.348.777.774.777h6.298c.426 0 .774-.35.774-.777V10.05a.778.778 0 0 0-.255-.575l-2.33-2.104zM33 13.536h-4.75V8.713h2.893L33 10.391v3.145zm-20.83 5.475c-.928 0-1.81.365-2.476 1.025a3.475 3.475 0 0 0-1.036 2.47c0 .931.363 1.801 1.036 2.469A3.516 3.516 0 0 0 12.171 26c1.904 0 3.452-1.569 3.452-3.495 0-1.926-1.548-3.494-3.451-3.494zm0 5.436c-1.067 0-1.965-.886-1.965-1.942s.898-1.941 1.966-1.941c1.052 0 1.903.87 1.903 1.941 0 1.072-.851 1.942-1.903 1.942zm-5.16-4.481H5.454V17.9a.777.777 0 0 0-.774-.776.777.777 0 0 0-.773.776v2.843c0 .427.348.776.773.776h2.33a.777.777 0 0 0 0-1.553zm3.922-4.232a.777.777 0 0 0-.773-.777H.774a.777.777 0 0 0 0 1.553h9.386a.773.773 0 0 0 .773-.776zM2.345 12.93l9.385.055a.782.782 0 0 0 .782-.77.768.768 0 0 0-.766-.784l-9.386-.054h-.008a.77.77 0 0 0-.773.769.768.768 0 0 0 .766.784zm1.578-3.526h9.386a.777.777 0 0 0 0-1.553H3.923a.777.777 0 0 0 0 1.553zm33.79-1.048l-5.54-4.605a.76.76 0 0 0-.495-.179h-6.515V.777A.777.777 0 0 0 24.39 0H4.681a.777.777 0 0 0-.773.777V6.46c0 .427.348.777.773.777.426 0 .774-.35.774-.777V1.553h18.168v18.413h-6.345a.777.777 0 0 0 0 1.553h9.448a.777.777 0 0 0 0-1.553h-1.555V5.126h6.236l5.046 4.193-.055 10.631h-.804a.777.777 0 0 0 0 1.554h1.57a.77.77 0 0 0 .774-.77L38 8.963a.821.821 0 0 0-.286-.606z" fill="#7C8287"/></svg>