<svg width="70" height="45" viewBox="0 0 70 45" fill="none" xmlns="http://www.w3.org/2000/svg"><path d="M25.442 19.6a1.15 1.15 0 0 0-1.167 1.155v3.374a1.15 1.15 0 0 0 1.167 1.156 1.15 1.15 0 0 0 1.167-1.156v-3.374c0-.624-.537-1.156-1.167-1.156zm4.668 0a1.15 1.15 0 0 0-1.167 1.155v3.374a1.15 1.15 0 0 0 1.167 1.156 1.15 1.15 0 0 0 1.167-1.156v-3.374c0-.624-.537-1.156-1.167-1.156zm4.668 0a1.15 1.15 0 0 0-1.167 1.155v3.374a1.15 1.15 0 0 0 1.167 1.156 1.15 1.15 0 0 0 1.167-1.156v-3.374c0-.624-.537-1.156-1.167-1.156zM11.53 27.666c-3.29 0-5.951 2.658-5.951 5.893 0 3.236 2.684 5.894 5.952 5.894 3.29 0 5.952-2.658 5.952-5.894 0-3.235-2.685-5.893-5.953-5.893zm0 9.499c-2.007 0-3.617-1.618-3.617-3.582C7.913 31.595 9.547 30 11.53 30c2.008 0 3.618 1.618 3.618 3.583 0 1.964-1.633 3.582-3.617 3.582z" fill="#E6ECEE"/><path d="M58.47 22.165c-.164 0-.304 0-.467.023-.467-5.478-2.918-10.47-7.05-14.4-3.15-3.004-6.185-4.344-6.301-4.39a1.157 1.157 0 0 0-1.214.161c-.047.047-.747.624-1.727 1.48l-3.852-3.906A3.665 3.665 0 0 0 35.175 0h-4.528a1.15 1.15 0 0 0-1.167 1.156 1.15 1.15 0 0 0 1.167 1.155h4.528c.537 0 .864.278.934.347l3.874 3.952a8.243 8.243 0 0 0-2.264-.323c-3.898 0-7.166 2.773-7.912 6.425L18.019 9.014l-3.968-3.79a1.173 1.173 0 0 0-.817-.324H4.762a1.15 1.15 0 0 0-1.167 1.155v5.363c0 .393.21.762.536.97l12.768 8.09-1.26 2.45a11.6 11.6 0 0 0-4.132-.763C5.158 22.165 0 27.273 0 33.582 0 39.87 5.158 45 11.53 45c5.976 0 10.924-4.53 11.461-10.308h4.178c.42 0 .794-.231 1.004-.578l2.24-3.837h7.563l2.24 3.837c.21.347.584.578 1.004.578h5.789C47.569 40.47 52.494 45 58.469 45 64.82 45 70 39.892 70 33.582s-5.158-11.417-11.53-11.417zM37.695 8.598c.724 0 1.447.139 2.124.416.42.162.91.07 1.237-.231a82.763 82.763 0 0 1 3.268-2.936c1.4.74 4.785 2.797 7.516 6.472h-4.692a1.15 1.15 0 0 0-1.167 1.156 1.15 1.15 0 0 0 1.167 1.155h6.185a19.45 19.45 0 0 1 2.148 6.194c-4.272-1.363-23.458-7.373-23.458-7.373a5.734 5.734 0 0 1 5.672-4.853zM11.53 42.666c-5.066 0-9.197-4.068-9.197-9.084 0-5.015 4.131-9.106 9.197-9.106 5.065 0 9.196 4.091 9.196 9.106-.023 5.016-4.131 9.084-9.197 9.084zM39.68 28.52a1.18 1.18 0 0 0-1.004-.578H29.76c-.42 0-.794.231-1.004.578l-2.24 3.837H22.99c-.373-3.514-2.38-6.564-5.252-8.39l1.727-3.375a1.143 1.143 0 0 0-.42-1.502L5.93 10.77V7.21h6.839l3.828 3.652c.14.115.28.208.466.277l37.37 11.764c-3.992 1.503-6.933 5.108-7.4 9.454h-5.111L39.68 28.52zm18.79 14.145c-5.066 0-9.197-4.091-9.197-9.107 0-5.015 4.131-9.106 9.196-9.106 5.066 0 9.197 4.09 9.197 9.106 0 5.039-4.131 9.107-9.197 9.107z" fill="#E6ECEE"/><path d="M58.47 27.666c-3.292 0-5.953 2.658-5.953 5.893 0 3.236 2.685 5.894 5.952 5.894 3.291 0 5.952-2.658 5.952-5.894 0-3.235-2.66-5.893-5.952-5.893zm0 9.499c-2.008 0-3.618-1.618-3.618-3.582 0-1.988 1.633-3.583 3.617-3.583 2.008 0 3.618 1.618 3.618 3.583.024 1.964-1.61 3.582-3.618 3.582z" fill="#E6ECEE"/></svg>