<svg width="76" height="43" viewBox="0 0 76 43" fill="none" xmlns="http://www.w3.org/2000/svg"><path d="M64.926 20.757c-.893 0-1.742.113-2.568.315l-.759-2.161 1.563-.563c.58-.203.893-.855.67-1.44l-.38-1.036c.38.09.782.157 1.184.157h2.456a1.11 1.11 0 0 0 1.116-1.125v-7.79a1.11 1.11 0 0 0-1.116-1.126h-2.456c-1.63 0-3.081.788-3.974 2.004L60.237 6.8a1.098 1.098 0 0 0-1.428-.675l-1.563.562L55.57 1.96C55.348 1.239 54.521 0 52.713 0h-4.532a1.11 1.11 0 0 0-1.116 1.126c0 .63.49 1.125 1.116 1.125h4.51c.491 0 .67.225.737.36 0 .046 1.719 4.84 1.719 4.84l-1.563.564c-.09.045-.179.09-.268.157-2.032-1.193-4.733-1.89-7.747-1.89-4.265 0-7.926 1.417-9.936 3.601H14.378c-2.947 0-5.358 2.432-5.358 5.403v.968H1.116A1.11 1.11 0 0 0 0 17.38v3.94c0 .315.112.608.335.81l1.83 1.779A15.822 15.822 0 0 0 0 31.879c0 .63.491 1.125 1.116 1.125a1.11 1.11 0 0 0 1.117-1.125c0-7.362 5.939-13.373 13.262-13.373 7.3 0 13.262 5.988 13.262 13.372 0 1.284-.179 2.544-.536 3.783a1.121 1.121 0 0 0 .759 1.395c.112.023.201.046.313.046h18.441c.47 0 .893-.293 1.05-.743l6.497-18.123c.044-.113.134-.428.178-.473.112-.113.201-.225.313-.338l.76 2.139c.155.45.602.743 1.049.743.133 0 .245-.023.379-.068l1.563-.563.759 2.14a11.133 11.133 0 0 0-6.34 10.063C53.941 38.002 58.874 43 64.97 43 71.043 43 76 38.025 76 31.878c-.045-6.123-4.979-11.12-11.074-11.12zM64.658 8.24h1.34v5.493h-1.34c-1.496 0-2.724-1.238-2.724-2.747 0-1.508 1.228-2.746 2.724-2.746zm-53.405 7.046c0-1.733 1.406-3.151 3.125-3.151h19.893a5.206 5.206 0 0 0-.267 1.665c0 .856.2 1.689.625 2.477H11.253v-.99zM3.46 22.04l-1.228-1.215v-2.32h5.246A16.326 16.326 0 0 0 3.46 22.04zm43.47 12.81H30.699c.179-.968.29-1.958.29-2.972a16.61 16.61 0 0 0-.29-3.016h4.644a1.11 1.11 0 0 0 1.116-1.126 1.11 1.11 0 0 0-1.116-1.126h-5.247a15.595 15.595 0 0 0-6.586-8.104h29.293l-1.05 2.881H39.384a1.11 1.11 0 0 0-1.116 1.126c0 .63.491 1.126 1.116 1.126H50.95L46.93 34.85zm6.854-18.596H37.397c-.58-.585-1.139-1.44-1.139-2.476 0-2.86 4.265-5.268 9.333-5.268 5.068 0 9.333 2.409 9.333 5.268-.023 1.036-.58 1.891-1.139 2.476zm3.304-1.733c.045-.248.045-.473.045-.72 0-1.486-.625-2.86-1.742-4.008v-.022l3.126-1.126 2.836 7.97-3.126 1.125-1.139-3.22zm7.837 26.228c-4.845 0-8.797-3.985-8.797-8.87 0-4.886 3.952-8.87 8.797-8.87 4.845 0 8.797 3.984 8.797 8.87 0 4.885-3.93 8.87-8.797 8.87z" fill="#E6ECEE"/><path d="M64.926 26.115c-3.148 0-5.693 2.59-5.693 5.741 0 3.152 2.567 5.74 5.693 5.74 3.148 0 5.693-2.588 5.693-5.74s-2.545-5.74-5.693-5.74zm0 9.253c-1.92 0-3.46-1.576-3.46-3.49 0-1.936 1.562-3.489 3.46-3.489 1.92 0 3.46 1.576 3.46 3.49.023 1.913-1.54 3.49-3.46 3.49zM15.495 20.757c-6.073 0-11.03 4.976-11.03 11.121C4.465 38.002 9.4 43 15.495 43c6.073 0 11.03-4.975 11.03-11.122-.023-6.123-4.957-11.12-11.03-11.12zm0 19.992c-4.845 0-8.797-3.985-8.797-8.87 0-4.886 3.952-8.87 8.797-8.87 4.845 0 8.796 3.984 8.796 8.87-.022 4.885-3.951 8.87-8.796 8.87z" fill="#E6ECEE"/><path d="M15.495 26.115c-3.148 0-5.694 2.59-5.694 5.741 0 3.152 2.568 5.74 5.694 5.74 3.125 0 5.693-2.588 5.693-5.74s-2.568-5.74-5.693-5.74zm0 9.253c-1.92 0-3.46-1.576-3.46-3.49 0-1.936 1.562-3.489 3.46-3.489 1.92 0 3.46 1.576 3.46 3.49 0 1.913-1.563 3.49-3.46 3.49zm24.291-8.758a1.11 1.11 0 0 0-1.116 1.126v3.107c0 .63.491 1.126 1.116 1.126a1.11 1.11 0 0 0 1.117-1.126v-3.107c0-.63-.514-1.125-1.117-1.125zm4.466 0a1.11 1.11 0 0 0-1.117 1.126v3.107c0 .63.491 1.126 1.117 1.126a1.11 1.11 0 0 0 1.116-1.126v-3.107c0-.63-.514-1.125-1.117-1.125z" fill="#E6ECEE"/></svg>