<svg width="65" height="44" viewBox="0 0 65 44" fill="none" xmlns="http://www.w3.org/2000/svg"><path d="M55.651 25.053c-5.162 0-9.35 4.243-9.35 9.474 0 5.23 4.188 9.473 9.35 9.473S65 39.757 65 34.527c0-5.209-4.187-9.474-9.349-9.474zm0 16.702c-3.944 0-7.134-3.255-7.134-7.228 0-3.996 3.213-7.229 7.134-7.229 3.943 0 7.134 3.255 7.134 7.229 0 3.996-3.19 7.228-7.134 7.228z" fill="#E6ECEE"/><path d="M55.651 29.543c-2.703 0-4.918 2.245-4.918 4.984 0 2.738 2.215 4.983 4.918 4.983 2.703 0 4.918-2.245 4.918-4.983 0-2.74-2.193-4.984-4.918-4.984zm0 7.722c-1.484 0-2.703-1.234-2.703-2.738s1.219-2.74 2.703-2.74c1.484 0 2.703 1.236 2.703 2.74 0 1.526-1.197 2.738-2.703 2.738zM12.628 24.47c-.62 0-1.108.493-1.108 1.122v3.277c0 .629.488 1.123 1.108 1.123.62 0 1.107-.494 1.107-1.123v-3.277c0-.629-.51-1.123-1.107-1.123zm4.431 0c-.62 0-1.108.493-1.108 1.122v3.277c0 .629.487 1.123 1.108 1.123.62 0 1.107-.494 1.107-1.123v-3.277c0-.629-.51-1.123-1.107-1.123zm4.431 0c-.62 0-1.108.493-1.108 1.122v3.277c0 .629.487 1.123 1.107 1.123s1.108-.494 1.108-1.123v-3.277c0-.629-.51-1.123-1.108-1.123z" fill="#E6ECEE"/><path d="M55.651 22.808c.354 0 .687-.157.886-.449.2-.292.266-.65.177-.988-.642-2.155-1.971-5.814-3.123-8.89h2.414c.62 0 1.108-.493 1.108-1.122V3.614c0-.628-.487-1.122-1.108-1.122h-2.437c-2.326 0-4.297 1.661-4.785 3.861h-1.307v-.965C47.476 2.424 45.084 0 42.16 0h-4.497c-.62 0-1.108.494-1.108 1.122 0 .629.488 1.123 1.108 1.123h4.497c1.706 0 3.102 1.414 3.102 3.143V25.39c-1.817 2.132-3.035 4.804-3.323 7.767h-4.586l-7.09-7.183v-8.127c0-2.963-2.392-5.388-5.317-5.388H9.836c-2.924 0-5.317 2.425-5.317 5.388v6.375A13.982 13.982 0 0 0 0 34.526c0 .63.487 1.123 1.108 1.123h3.39C5.05 40.341 8.994 44 13.78 44c4.21 0 7.776-2.829 8.95-6.735l3.545 3.592c.2.202.487.337.775.337h11.72c.354 0 .686-.18.886-.45l4.209-5.813a.837.837 0 0 0 .177-.404h.045c0-6.466 5.184-11.719 11.564-11.719zm-1.507-2.155a13.628 13.628 0 0 0-6.69 2.649V8.598h1.307a5.02 5.02 0 0 0 2.149 3.075c1.041 2.762 2.415 6.42 3.235 8.98.022 0 .022 0 0 0zM53.57 4.737h1.329v5.477h-1.33c-1.484 0-2.702-1.234-2.702-2.738 0-1.505 1.218-2.74 2.703-2.74zM6.734 17.847c0-1.729 1.396-3.143 3.101-3.143h15.132c1.706 0 3.101 1.414 3.101 3.143v.965H6.735v-.965zm7.045 23.908c-3.567 0-6.513-2.649-7.045-6.106h2.26c.51 2.2 2.459 3.861 4.785 3.861s4.298-1.661 4.785-3.861h2.26c-.532 3.457-3.478 6.106-7.045 6.106zm-2.46-6.106h4.941c-.42.943-1.373 1.616-2.459 1.616a2.714 2.714 0 0 1-2.481-1.616zm26.896 3.3h-10.7l-5.14-5.208a1.121 1.121 0 0 0-.776-.337H2.26a11.782 11.782 0 0 1 4.054-7.835c.244-.224.399-.516.399-.853v-3.659h21.334v5.365c0 .292.11.584.332.786l7.732 7.835c.2.202.488.337.776.337h3.899l-2.57 3.569z" fill="#E6ECEE"/></svg>