<svg width="69" height="32" viewBox="0 0 69 32" fill="none" xmlns="http://www.w3.org/2000/svg"><path fill-rule="evenodd" clip-rule="evenodd" d="M2.128 22.658c8.7.464 16.922-.132 24.873-1.06a26.308 26.308 0 0 1-4.417-3.312c-2.514-2.187-4.757-4.704-6.592-7.156-1.223-.132-2.583-.132-4.078-.066 1.903 5.035.408 6.957-2.106 8.017-.884.397-1.903.596-2.923.861-2.038.464-4.077.928-4.757 2.716zm28.067-1.457c-2.242-1.06-4.417-2.584-6.388-4.307-1.903-1.656-3.602-3.511-5.097-5.366.884.199 1.767.397 2.583.596 3.398.861 6.388 1.656 11.01.265 2.038 1.723 4.552 3.313 7.135 4.704a62.927 62.927 0 0 0 4.825 2.186c-2.515.332-4.961.663-7.476.994-2.174.332-4.417.597-6.592.928zm18.417-2.385c6.049-.663 12.097-1.06 18.281-.861-.543-3.446-2.582-6.427-5.3-8.812C57.99 5.896 53.03 3.71 49.02 2.915 42.7 7.553 38.08 10.27 34.41 11.66c1.767 1.392 3.806 2.65 5.912 3.777 2.787 1.457 5.64 2.65 8.291 3.379zM44.671 3.71c-.612-.53-1.36-.927-2.107-1.259a9.912 9.912 0 0 0-3.398-.596V0c1.36 0 2.786.265 4.078.729a8.08 8.08 0 0 1 2.99 1.855 48.41 48.41 0 0 1 1.97-1.391l.34-.265.408.066c4.417.795 9.922 3.114 14 6.758 3.33 2.915 5.708 6.691 6.048 11.13v.265c-.883 4.174-3.67 7.089-7.272 9.143C57.04 30.94 50.991 32 46.641 32H2.536l-.272-.53A19.4 19.4 0 0 1 .77 27.627C.43 26.37.158 25.11.022 23.851c-.34-3.776 3.398-4.969 6.32-5.631a20.126 20.126 0 0 0 2.582-.73c1.7-.728 2.65-2.252.612-6.757L8.992 9.54l1.291-.132c5.097-.596 8.427.265 11.418 1.06 5.436 1.259 9.786 2.385 22.97-6.758zm22.154 16.1c-.951 3.047-3.262 5.234-6.116 6.824-4.35 2.45-9.99 3.445-14.136 3.445H3.76c-.475-.994-.815-2.054-1.087-3.048a15.176 15.176 0 0 1-.612-2.517c12.437.728 23.786-.796 34.931-2.32 9.99-1.39 19.708-2.716 29.834-2.384z" fill="#E6ECEE"/></svg>