<svg width="74" height="44" viewBox="0 0 74 44" fill="none" xmlns="http://www.w3.org/2000/svg"><path d="M56.862 38.059a3.715 3.715 0 0 0 3.724-3.706 3.715 3.715 0 0 0-3.724-3.706 3.715 3.715 0 0 0-3.724 3.706 3.715 3.715 0 0 0 3.724 3.706z" stroke="#E6ECEE" stroke-width="2" stroke-miterlimit="10" stroke-linecap="round" stroke-linejoin="round"/><path d="M56.862 43c4.8 0 8.69-3.871 8.69-8.647s-3.89-8.647-8.69-8.647c-4.8 0-8.69 3.871-8.69 8.647S52.062 43 56.862 43zM37 38.059a3.715 3.715 0 0 0 3.724-3.706A3.715 3.715 0 0 0 37 30.647a3.715 3.715 0 0 0-3.724 3.706A3.715 3.715 0 0 0 37 38.059z" stroke="#E6ECEE" stroke-width="2" stroke-miterlimit="10" stroke-linecap="round" stroke-linejoin="round"/><path d="M37 43c4.8 0 8.69-3.871 8.69-8.647S41.8 25.706 37 25.706c-4.8 0-8.69 3.871-8.69 8.647S32.2 43 37 43zm-19.862-4.941a3.715 3.715 0 0 0 3.724-3.706 3.715 3.715 0 0 0-3.724-3.706 3.715 3.715 0 0 0-3.724 3.706 3.715 3.715 0 0 0 3.724 3.706z" stroke="#E6ECEE" stroke-width="2" stroke-miterlimit="10" stroke-linecap="round" stroke-linejoin="round"/><path d="M17.138 43c4.8 0 8.69-3.871 8.69-8.647s-3.89-8.647-8.69-8.647c-4.8 0-8.69 3.871-8.69 8.647S12.338 43 17.138 43zM73 25.706V22c0-3.459-2.731-6.177-6.207-6.177H55.248L49.041 6.56C46.683 3.1 42.835 1 38.738 1H26.945c-4.717 0-9.062 2.594-11.048 6.794l-4.221 8.03h-4.47C3.732 15.823 1 18.54 1 22v3.706m53.38-9.883H17.137M1 25.706h72" stroke="#E6ECEE" stroke-width="2" stroke-miterlimit="10" stroke-linecap="round" stroke-linejoin="round"/><path d="M17.138 43h39.724M1 25.706v2.347c0 1.606.62 3.212 1.862 4.323l7.448 7.412m52.759.742l8.069-8.03C72.255 31.388 73 29.782 73 28.176v-2.47" stroke="#E6ECEE" stroke-width="2" stroke-miterlimit="10" stroke-linecap="round" stroke-linejoin="round" stroke-dasharray="2 2"/></svg>