<svg width="82" height="37" viewBox="0 0 82 37" fill="none" xmlns="http://www.w3.org/2000/svg"><path d="M80 12.652S62.463 19.812 8.195 25.9m69.1-12.174s-2.094 8.325-14.832 14.948m-52.349-2.595s.524 1.7 1.396 3.58" stroke="#E6ECEE" stroke-width="2.5" stroke-miterlimit="10" stroke-linecap="round"/><path d="M78.43 13.1S64.208 5.67 50.074 2.984c0 0-3.84.895-5.235 3.67-1.57 3.312-1.832 3.401-4.1 6.713l-.262.358s-9.51 1.074-23.47-1.522c0 0-5.41-1.342-3.316 3.491 0 0 .436.448 2.53 1.074 0 0 16.49 3.76 21.9 5.103" stroke="#E6ECEE" stroke-width="2.5" stroke-miterlimit="10" stroke-linecap="round" stroke-linejoin="round"/><path d="M20.497 17.754l-1.047 6.534" stroke="#E6ECEE" stroke-width="2.5" stroke-miterlimit="10" stroke-linejoin="round"/><path d="M72.933 32.255c-8.202 6.176-14.134 0-14.134 0h-.088c-8.2 6.176-14.134 0-14.134 0-8.201 6.176-14.134 0-14.134 0h-.087c-8.202 6.176-14.135 0-14.135 0h-.087c-8.201 6.176-14.134 0-14.134 0m44.235-27.57L42.745 2l-5.671 3.312" stroke="#E6ECEE" stroke-width="2.5" stroke-miterlimit="10" stroke-linecap="round" stroke-linejoin="round"/></svg>