<svg width="74" height="43" viewBox="0 0 74 43" fill="none" xmlns="http://www.w3.org/2000/svg"><path fill-rule="evenodd" clip-rule="evenodd" d="M55.955 39.794l-1.05-5.227c-4.826.976-9.931 1.185-14.828.976-1.258 1.951-3.007 3.345-4.895 4.39-2.029 1.116-4.547 1.882-6.855 1.882H13.149C12.38 42.582 11.471 43 10.352 43a3.829 3.829 0 0 1-3.847-3.833c0-1.673 1.119-3.136 2.658-3.694l1.119-2.16a8.46 8.46 0 0 1-1.12-.558l-8.043-4.32L0 27.736l.91-.906 2.727-2.787 1.05-4.6.14-.488.489-.209c1.119-.418 3.427-.976 5.875-1.463 2.098-.418 4.336-.697 5.805-.697h.35l.28.209c1.958 1.394 4.406 1.881 7.204 1.881s5.945-.557 9.302-1.254l6.995-6.9a8.458 8.458 0 0 1 3.217-2.16l-2.238-2.997c-1.399-1.881-3.427-1.812-5.386-.836l-.84-1.812c2.869-1.324 5.876-1.185 7.835 1.464l2.727 3.624c.14 0 .35 0 .49-.07 1.259-.07 2.518.14 3.707.557-.28-2.23-.7-4.39-1.05-6.55L49.24 0l1.679.767c2.448 1.045 5.805 3.275 8.533 7.039 1.888 2.648 3.497 5.993 4.126 10.314a26.526 26.526 0 0 1 2.868 3.415c1.12 1.603 1.609 3.484 1.05 5.366-.49 1.882-1.82 3.345-3.498 4.321-2.098 1.324-4.616 2.23-7.274 2.927l1.189 5.715h6.785c3.147 0 5.665-.697 7.903-2.997L74 38.261c-2.588 2.648-5.665 3.624-9.302 3.624H47.072v-1.951h8.883v-.14zm-23.361-6.55v-.977c-.21-1.881-1.33-3.275-3.078-4.32-1.818-1.116-4.336-1.813-6.994-2.3-6.715-1.115-14.618-.488-17.416-.21L3.217 27.32l6.855 3.764c1.679.836 2.728 1.115 4.686 1.254l17.836.906zM5.875 23.346c3.427-.279 10.702-.697 16.997.279 2.937.487 5.665 1.254 7.693 2.508 2.238 1.325 3.707 3.206 3.987 5.785.07.418.07.836.07 1.324l4.616.21c4.966.278 10.352.069 15.248-.907l-2.238-10.872 1.958-.418 2.168 10.802c2.448-.627 4.686-1.463 6.575-2.648 1.189-.767 2.238-1.812 2.588-3.206.35-1.324 0-2.578-.77-3.694-1.258-1.881-3.357-3.972-5.035-5.435-2.658-2.37-5.456-4.46-7.344-5.645-1.75-1.185-3.637-1.813-5.456-1.673-1.889.07-3.217.906-4.546 2.16l-7.135 7.109-.21.209-.28.07c-3.566.766-6.924 1.324-10.001 1.324-3.008 0-5.735-.558-8.044-2.09-1.329.069-3.287.348-5.175.696-1.959.349-3.917.836-5.036 1.185l-.63 2.927zm8.323 16.517h12.1l-5.105-5.227-6.505-.349c-.91-.07-1.748-.139-2.518-.348l-.77 1.464c1.68.487 2.798 1.95 2.798 3.693.07.279 0 .488 0 .767zm-3.846-2.579c-1.05 0-1.889.837-1.889 1.882s.84 1.882 1.889 1.882 1.888-.837 1.888-1.882-.84-1.882-1.888-1.882zM52.737 9.34c.28.14.49.278.77.488 1.958 1.254 4.826 3.415 7.483 5.784-.699-2.648-1.888-4.878-3.217-6.76a20.678 20.678 0 0 0-6.015-5.506c.42 1.743.7 3.764.98 5.994zM37.7 35.473l-13.638-.697 4.895 5.088a13.323 13.323 0 0 0 5.246-1.603c1.33-.767 2.518-1.673 3.497-2.788z" fill="#E6ECEE"/></svg>