<svg width="26" height="43" viewBox="0 0 26 43" fill="none" xmlns="http://www.w3.org/2000/svg"><path d="M23.967 10.693a1.554 1.554 0 0 0 1.331-.32c.375-.31.59-.77.59-1.264 0-1.751-1.213-3.294-2.884-3.668-.442-.099-.888-.18-1.336-.25a30.187 30.187 0 0 1 2.96-.56 1.575 1.575 0 0 0 1.143-.768c.25-.422.298-.93.133-1.393C25.319.824 23.663-.2 21.967.033a20.08 20.08 0 0 0-4.271 1.077l-3.8 1.415c-1.145.427-1.738 1.729-1.321 2.902l.16.45.027.068a2.288 2.288 0 0 0-.387 1.277V7.7c0 .376.091.73.25 1.043-2.42.216-4.44.663-6.139 1.358a.635.635 0 0 0-.343.818.616.616 0 0 0 .572.397.6.6 0 0 0 .228-.046c1.815-.742 4.048-1.184 6.811-1.348v1.314c-7.642.494-9.65 3.075-10.493 4.994-1.228 2.8-.776 4.289-.025 6.755.548 1.803 1.223 4.022 1.375 7.406H3.333c-.153-3.195-.794-5.304-1.315-7.018-.753-2.474-1.347-4.427.08-7.678a7.75 7.75 0 0 1 2.435-3.073.64.64 0 0 0 .126-.881.606.606 0 0 0-.86-.129 8.991 8.991 0 0 0-2.824 3.567C.236 16.862-.07 18.361.013 19.897c.073 1.363.44 2.571.83 3.85.497 1.637 1.109 3.648 1.258 6.662a1.338 1.338 0 0 0-1.1 1.211l-.484 5.913c-.036.44.11.877.402 1.201.291.325.706.51 1.136.51h3.9c.43 0 .844-.185 1.135-.51.205-.228.336-.513.385-.814v1.984C7.475 41.61 8.832 43 10.499 43h12.075c1.667 0 3.024-1.389 3.024-3.096V18.826c0-3.6-2.793-6.544-6.279-6.683v-2.115a30.26 30.26 0 0 1 4.648.665zm-9.649-6.984l3.799-1.415a18.919 18.919 0 0 1 4.015-1.012c1.127-.156 2.226.525 2.615 1.619a.363.363 0 0 1-.284.481c-2.169.3-4.316.83-6.385 1.576h-3.49c-.287 0-.561.056-.813.159l-.043-.12a1.012 1.012 0 0 1 .586-1.288zM6.184 37.882a.307.307 0 0 1-.23.103H2.055a.307.307 0 0 1-.23-.103.322.322 0 0 1-.081-.244l.484-5.913a.08.08 0 0 1 .08-.074h3.394a.08.08 0 0 1 .08.074l.484 5.913a.322.322 0 0 1-.082.244zm1.291-19.056v18.5l-.467-5.706a1.336 1.336 0 0 0-1.165-1.22c-.152-3.58-.858-5.904-1.432-7.79-.709-2.33-1.064-3.499-.027-5.863.614-1.399 2.006-3.214 6.851-3.976-2.22 1.07-3.76 3.382-3.76 6.055zm16.893 0v17.725h-1.562a.623.623 0 0 0-.615.63c0 .348.275.63.615.63h1.562v2.093c0 1.012-.805 1.836-1.794 1.836H10.5c-.99 0-1.794-.824-1.794-1.836V37.81h11.237c.34 0 .615-.282.615-.63a.623.623 0 0 0-.615-.63H8.706V18.826c0-2.994 2.38-5.43 5.305-5.43h5.052c2.925 0 5.305 2.436 5.305 5.43zm-9.383-6.69V9.965h2.39c.238 0 .476.003.714.01v2.163h-3.104zm2.39-3.432h-2.787a.956.956 0 0 1-.28-.042l-.013-.003a1.004 1.004 0 0 1-.689-.96v-.477c0-.554.44-1.005.982-1.005h4.042c1.38 0 2.763.153 4.111.455 1.11.248 1.917 1.273 1.917 2.437 0 .15-.083.241-.132.282a.342.342 0 0 1-.296.071 31.452 31.452 0 0 0-6.855-.758z" fill="#7C8287"/><path d="M11.313 19.795v9.028c0 .974.775 1.766 1.726 1.766h6.995c.952 0 1.726-.792 1.726-1.766v-9.028c0-.974-.774-1.767-1.726-1.767H13.04c-.952 0-1.727.793-1.727 1.767zm6.179 9.535h-4.453a.502.502 0 0 1-.495-.507v-3.884h4.948v4.39zm3.038-.507c0 .28-.223.507-.496.507h-1.312v-4.391h1.808v3.884zm-.496-9.535c.273 0 .495.227.495.507v3.884h-7.985v-3.884c0-.28.222-.507.495-.507h6.995zm-.294 19.335a.623.623 0 0 0-.616.63v1.044c0 .348.276.63.616.63.34 0 .615-.282.615-.63v-1.044a.623.623 0 0 0-.616-.63zm-6.405 0a.623.623 0 0 0-.616.63v1.044c0 .348.276.63.616.63.34 0 .615-.282.615-.63v-1.044a.623.623 0 0 0-.615-.63z" fill="#7C8287"/></svg>