<svg width="27" height="31" viewBox="0 0 27 31" fill="none" xmlns="http://www.w3.org/2000/svg"><path d="M7.6 31c-2.072-4.299-.968-6.762.625-9.083 1.744-2.542 2.194-5.058 2.194-5.058s1.371 1.777.823 4.556c2.422-2.688 2.88-6.97 2.513-8.611 5.476 3.815 7.817 12.074 4.663 18.196 16.775-9.461 4.172-23.618 1.978-25.213.732 1.594.87 4.294-.607 5.604C17.29 1.937 11.104 0 11.104 0c.732 4.875-2.65 10.207-5.912 14.19-.115-1.944-.236-3.285-1.262-5.146-.23 3.532-2.938 6.41-3.67 9.949-.994 4.792.743 8.3 7.34 12.007z" fill="#fff"/></svg>