<svg width="34" height="40" viewBox="0 0 34 40" fill="none" xmlns="http://www.w3.org/2000/svg"><path d="M0 0h34v40H0z"/><path d="M0 0h34v40H0z"/><path d="M0 0h34v40H0z"/><path d="M0 0h34v40H0z"/><path d="M31.742 15.8c-1.245 0-2.258 1.047-2.258 2.333 0 1.012.627 1.875 1.501 2.197v6.292c0 3.204-2.523 5.811-5.626 5.811h-.704v-1.802c0-.66-.318-1.274-.85-1.64a1.846 1.846 0 0 0-1.787-.178l-.172.071v-2.183c4.087-2.131 6.897-6.51 6.897-11.552 0-7.131-5.616-12.933-12.52-12.933S3.703 8.018 3.703 15.15c0 5.043 2.81 9.42 6.897 11.552v2.183l-.172-.071a1.846 1.846 0 0 0-1.787.178c-.532.366-.85.98-.85 1.64v7.194c0 1.2.944 2.175 2.105 2.175H22.55c1.161 0 2.105-.975 2.105-2.175v-3.83h.704c3.937 0 7.14-3.307 7.14-7.373V20.33c.873-.322 1.501-1.185 1.501-2.197 0-1.286-1.013-2.333-2.258-2.333zm-26.526-.65c0-6.27 4.937-11.37 11.007-11.37 6.07 0 11.007 5.1 11.007 11.37 0 4.148-2.162 7.784-5.384 9.77a10.655 10.655 0 0 1-5.623 1.599c-1.452 0-2.84-.292-4.11-.823a10.787 10.787 0 0 1-1.513-.776c-3.222-1.986-5.384-5.622-5.384-9.77zm15.118 12.215v2.056c-1.33.39-2.706.588-4.111.588-1.405 0-2.781-.198-4.11-.588v-2.056c1.288.464 2.67.717 4.11.717 1.44 0 2.822-.253 4.11-.717zm2.809 5.85v4.611a.603.603 0 0 1-.593.612H9.896a.603.603 0 0 1-.593-.612v-7.194c0-.197.123-.303.176-.34a.383.383 0 0 1 .215-.069.38.38 0 0 1 .151.033 16.343 16.343 0 0 0 2.267.784c1.335.353 2.71.531 4.111.531a16.047 16.047 0 0 0 6.378-1.315.37.37 0 0 1 .366.036.406.406 0 0 1 .176.34v2.584zm8.599-14.311a.759.759 0 0 1-.746-.77.76.76 0 0 1 .746-.77c.41 0 .745.345.745.77 0 .424-.334.77-.745.77z" fill="#7C8287"/><path d="M9.782 1.484A.793.793 0 0 0 10.13.439a.746.746 0 0 0-1.01-.36 16.456 16.456 0 0 0-6.584 6.07 17.11 17.11 0 0 0-2.535 9c0 .431.339.78.756.78a.769.769 0 0 0 .757-.78c0-5.86 3.168-11.095 8.27-13.665zm8.779 6.013c3.299 1.176 5.515 4.39 5.515 7.996 0 .432.339.781.756.781a.77.77 0 0 0 .757-.78c0-4.274-2.626-8.08-6.534-9.474a.75.75 0 0 0-.962.484.788.788 0 0 0 .468.993zm-2.338 11.266c1.93 0 3.5-1.621 3.5-3.614 0-1.993-1.57-3.615-3.5-3.615s-3.5 1.622-3.5 3.615 1.57 3.614 3.5 3.614zm0-5.666c1.095 0 1.986.92 1.986 2.052 0 1.131-.89 2.052-1.986 2.052-1.095 0-1.986-.921-1.986-2.052 0-1.132.89-2.052 1.986-2.052zm-4.21 23.582a.803.803 0 0 0-.164-.253.748.748 0 0 0-.824-.17.794.794 0 0 0-.246.17.742.742 0 0 0-.163.253.856.856 0 0 0-.058.299.796.796 0 0 0 .336.65.787.787 0 0 0 .272.116.727.727 0 0 0 .683-.214.791.791 0 0 0 .207-.705.847.847 0 0 0-.043-.146zm9.817 0a.796.796 0 0 0-.278-.35.745.745 0 0 0-.71-.073.767.767 0 0 0-.451.569.81.81 0 0 0 .043.452.783.783 0 0 0 .278.35.753.753 0 0 0 .42.132.719.719 0 0 0 .289-.06.732.732 0 0 0 .245-.168.743.743 0 0 0 .164-.254.807.807 0 0 0 0-.598zm-6.706-2.683h2.197a.767.767 0 0 0 .754-.73l.003-.051a.77.77 0 0 0-.756-.782h-2.198a.77.77 0 0 0-.756.782l.003.051c.026.408.353.73.753.73zm3.101 1.138h-4.004a.77.77 0 0 0-.757.781.77.77 0 0 0 .757.781h4.004a.77.77 0 0 0 .757-.781.77.77 0 0 0-.757-.781zM15.47 6.905a.796.796 0 0 0 .271.116.728.728 0 0 0 .683-.213.8.8 0 0 0 0-1.105.763.763 0 0 0-.387-.213.725.725 0 0 0-.568.116.767.767 0 0 0-.321.497.797.797 0 0 0 .206.705.767.767 0 0 0 .115.097z" fill="#7C8287"/></svg>