<svg width="38" height="38" viewBox="0 0 38 38" fill="none" xmlns="http://www.w3.org/2000/svg"><path d="M0 0h38v38H0z"/><path d="M0 0h38v38H0z"/><path d="M0 0h38v38H0z"/><path d="M35.771 16.368C35.479 7.293 28.069 0 19 0S2.521 7.293 2.229 16.368A2.739 2.739 0 0 0 0 19.068v10.64c0 1.516 1.219 2.745 2.722 2.745h1.103v-16.13h2.21v16.13H4.4c.371 2.16 2.241 3.807 4.487 3.807h3.578a2.737 2.737 0 0 0 2.54 1.74h2.926c1.507 0 2.733-1.236 2.733-2.756v-.196c0-1.52-1.226-2.757-2.733-2.757h-2.926a2.737 2.737 0 0 0-2.54 1.74H8.886a2.35 2.35 0 0 1-2.226-1.624 2.739 2.739 0 0 0 2.23-2.7v-10.64a2.737 2.737 0 0 0-2.428-2.729C6.766 9.63 12.274 4.265 19 4.265c6.727 0 12.234 5.364 12.538 12.074a2.737 2.737 0 0 0-2.429 2.729v10.64c0 1.516 1.219 2.745 2.722 2.745h.134v-16.13h2.21v16.13h1.103c1.503 0 2.722-1.23 2.722-2.745v-10.64a2.739 2.739 0 0 0-2.229-2.7z" fill="#fff"/></svg>