<svg width="41" height="37" viewBox="0 0 41 37" fill="none" xmlns="http://www.w3.org/2000/svg"><path d="M.86 0h39.968v37H.86z"/><path d="M.86 0h39.968v37H.86z"/><path d="M.86 0h39.968v37H.86z"/><path d="M34.24 18.13c-.65 0-1.153.493-1.153 1.135V34.77H24.92v-6.33a1.13 1.13 0 0 0-1.11-1.114h-5.906c-.65 0-1.173.52-1.173 1.113v6.331H8.582V19.78c0-.598-.502-1.095-1.152-1.095a1.11 1.11 0 0 0-1.11 1.095v16.124A1.11 1.11 0 0 0 7.43 37h10.473a1.11 1.11 0 0 0 1.11-1.096v-6.33h3.644v6.33c0 .599.503 1.096 1.152 1.096h10.43a1.11 1.11 0 0 0 1.11-1.096V19.265c0-.642-.502-1.135-1.11-1.135z" fill="#000"/><path d="M40.502 19.015l-9.09-8.989V3.899c0-.638-.524-1.13-1.173-1.13-.608 0-1.11.492-1.11 1.13v3.88L21.63.352C21.4.123 21.128 0 20.856 0c-.314 0-.587.128-.817.352l-18.83 18.54c-.451.444-.48 1.157 0 1.566.42.475 1.14.444 1.592 0L20.856 2.723l18.012 17.902c.188.185.46.29.817.29.314 0 .586-.105.817-.29a1.157 1.157 0 0 0 0-1.61z" fill="#000"/></svg>