<svg width="38" height="28" viewBox="0 0 38 28" fill="none" xmlns="http://www.w3.org/2000/svg"><path d="M0 0h38v28H0z"/><path d="M13.664 19.396h10.672v4.606H13.664z"/><path d="M13.664 19.396h10.672v4.606H13.664z"/><path d="M23.19 19.396h-8.38c-.632 0-1.146.487-1.146 1.085v2.435c0 .599.514 1.086 1.145 1.086h8.381c.632 0 1.146-.487 1.146-1.086v-2.435c0-.598-.514-1.085-1.146-1.085zm-.327 3.21h-7.726v-1.815h7.726v1.815z" fill="#7C8287"/><path d="M0 0h38v28H0z"/><path d="M0 0h38v28H0z"/><path d="M37.627 13.364l.012-.006-5.522-10.343c-.447-.836-1.338-1.356-2.327-1.356h-1.05V.698c0-.386-.329-.698-.736-.698H9.996c-.407 0-.737.312-.737.698v.961H8.21c-.988 0-1.88.52-2.326 1.356L.361 13.358l.012.006c-.237.37-.373.802-.373 1.264v10.928C0 26.904 1.157 28 2.58 28h32.84c1.423 0 2.58-1.096 2.58-2.444V14.628a2.33 2.33 0 0 0-.373-1.264zM28.741 3.21h1.05c.367 0 .699.193.865.504l4.523 8.471h-3.076V9.579c0-.386-.33-.698-.736-.698h-.91V5.138c0-.385-.33-.697-.737-.697h-.98V3.21zm1.89 7.066v1.909h-3.886c-.667 0-1.275.372-1.549.948l-1.06 2.23a.063.063 0 0 1-.058.034H13.922a.063.063 0 0 1-.057-.034l-1.061-2.23c-.274-.576-.882-.948-1.549-.948H7.37v-1.909h23.262zm-19.899-8.88h16.536V4.44H10.732V1.395zm18.251 4.44V8.88H9.017V5.836h19.966zM7.343 3.714a.973.973 0 0 1 .867-.504h1.05v1.23h-.98c-.406 0-.736.313-.736.698v3.743h-.911c-.407 0-.737.312-.737.698v2.606H2.821l4.523-8.47zM35.422 26.45H2.579c-.52 0-.943-.4-.943-.893V14.628c0-.492.423-.893.943-.893h8.676c.025 0 .047.014.057.035L12.373 16c.274.576.882.948 1.549.948h10.156c.667 0 1.275-.372 1.549-.948l1.061-2.23a.063.063 0 0 1 .057-.035h8.676c.52 0 .942.401.942.894v10.927c0 .493-.422.893-.942.893z" fill="#7C8287"/></svg>