<svg width="22" height="22" viewBox="0 0 22 22" fill="none" xmlns="http://www.w3.org/2000/svg"><path fill-rule="evenodd" clip-rule="evenodd" d="M6.875 0h8.25A6.875 6.875 0 0 1 22 6.875v8.25A6.875 6.875 0 0 1 15.125 22h-8.25A6.875 6.875 0 0 1 0 15.125v-8.25A6.875 6.875 0 0 1 6.875 0zM2.062 15.125a4.817 4.817 0 0 0 4.813 4.813h8.25a4.817 4.817 0 0 0 4.813-4.813v-8.25a4.817 4.817 0 0 0-4.813-4.813h-8.25a4.817 4.817 0 0 0-4.813 4.813v8.25zM11 5.5a5.5 5.5 0 1 1 0 11 5.5 5.5 0 0 1 0-11zm0 8.938A3.442 3.442 0 0 0 14.438 11 3.442 3.442 0 0 0 11 7.562 3.442 3.442 0 0 0 7.562 11 3.442 3.442 0 0 0 11 14.438zM4.543 5.579a.733.733 0 1 0-.188-.491c0 .189.07.361.188.491z" fill="#C4C4C4"/></svg>