<svg width="25" height="19" viewBox="0 0 25 19" fill="none" xmlns="http://www.w3.org/2000/svg"><path d="M0 0h25v19H0z"/><path d="M0 0h25v19H0z"/><path d="M0 0h25v19H0z"/><path d="M23.99 8H1.01C.452 8 0 8.672 0 9.5c0 .829.452 1.5 1.01 1.5h22.98c.558 0 1.01-.671 1.01-1.5 0-.828-.452-1.5-1.01-1.5zm0 8H1.01C.452 16 0 16.672 0 17.5S.452 19 1.01 19h22.98c.558 0 1.01-.672 1.01-1.5s-.452-1.5-1.01-1.5zm0-16H1.01C.452 0 0 .672 0 1.5S.452 3 1.01 3h22.98C24.548 3 25 2.328 25 1.5S24.548 0 23.99 0z" fill="#7C8287"/></svg>