<svg width="26" height="39" viewBox="0 0 26 39" fill="none" xmlns="http://www.w3.org/2000/svg"><path d="M0 0h26v39H0z"/><path d="M0 13.006h26V39H0z"/><path d="M0 13.006h26V39H0z"/><path d="M25.07 13.006a.923.923 0 0 0-.929.916v5.72c0 6.052-4.998 10.976-11.141 10.976S1.859 25.694 1.859 19.642v-5.72a.923.923 0 0 0-.93-.916.923.923 0 0 0-.929.916v5.72c0 6.754 5.335 12.303 12.07 12.774v4.753H7.264c-.513 0-.93.41-.93.915 0 .506.417.916.93.916h11.474c.513 0 .929-.41.929-.916a.923.923 0 0 0-.93-.915H13.93v-4.753C20.666 31.945 26 26.396 26 19.642v-5.72a.922.922 0 0 0-.93-.916z" fill="#7C8287"/><path d="M4.675 0h16.65v27.843H4.674z"/><path d="M4.675 0h16.65v27.843H4.674z"/><path d="M13.62 0h-1.24C8.133 0 4.676 3.405 4.676 7.59v12.663c0 4.185 3.457 7.59 7.706 7.59h1.238c4.25 0 7.706-3.405 7.706-7.59V7.59C21.325 3.405 17.868 0 13.619 0zm5.846 9.967h-3.37c-.512 0-.928.41-.928.916s.416.916.929.916h3.369v2.548h-3.37a.922.922 0 0 0-.928.916c0 .505.416.915.929.915h3.369v2.549h-3.37a.922.922 0 0 0-.928.915c0 .506.416.916.929.916h3.36c-.161 3.034-2.718 5.454-5.838 5.454h-1.238c-3.12 0-5.677-2.42-5.838-5.454h3.36c.514 0 .93-.41.93-.916a.922.922 0 0 0-.93-.915H6.534v-2.549h3.37c.513 0 .929-.41.929-.915a.922.922 0 0 0-.93-.916H6.534v-2.548h3.37c.513 0 .929-.41.929-.916a.922.922 0 0 0-.93-.916H6.534V7.591c0-2.283 1.355-4.26 3.314-5.19v2.588c0 .505.416.915.93.915.512 0 .929-.41.929-.915V1.87c.221-.026 2.365-.026 2.587 0v3.118c0 .505.416.915.929.915.513 0 .93-.41.93-.915V2.4c1.958.932 3.313 2.908 3.313 5.19v2.377z" fill="#7C8287"/></svg>