<svg width="40" height="34" viewBox="0 0 40 34" fill="none" xmlns="http://www.w3.org/2000/svg"><path d="M0 0h40v34H0z"/><path d="M0 0h40v34H0z"/><path d="M0 0h40v34H0z"/><path d="M25.629 16.526c-3.072-5.3-2.852-11.58.007-16.526a16.537 16.537 0 0 0-8.308 2.203c-5.65 3.252-8.639 9.307-8.253 15.382a5.942 5.942 0 0 1 3.628 1.368 6.447 6.447 0 0 1 3.148-.81 6.607 6.607 0 0 1 6.333 4.77 5.03 5.03 0 0 1 3.568 4.822c0 2.36-1.64 4.335-3.841 4.895 3.948.905 8.234.397 12.02-1.779A16.462 16.462 0 0 0 40 24.783c-5.73-.01-11.3-2.96-14.371-8.257z" fill="#7C8287"/><path d="M24.362 27.732c0-1.916-1.476-3.472-3.351-3.646-.325-2.567-2.498-4.56-5.16-4.56a5.2 5.2 0 0 0-3.329 1.218 4.631 4.631 0 0 0-3.651-1.795 4.649 4.649 0 0 0-4.539 3.629C1.914 22.746 0 24.73 0 27.184c0 2.559 2.084 4.633 4.654 4.633a4.63 4.63 0 0 0 1.55-.282 4.649 4.649 0 0 0 3.758 1.919c.947 0 1.826-.286 2.562-.77A4.652 4.652 0 0 0 15.766 34a4.642 4.642 0 0 0 4.194-2.665c.229.044.462.074.705.074a3.687 3.687 0 0 0 3.697-3.677zm10.145-9.155l.663-1.454 1.578-.278-1.182-1.08.22-1.583-1.394.789-1.441-.698.321 1.566-1.111 1.15 1.592.18.754 1.408zM2.648 14.669l1.134-.58 1.123.6-.204-1.253.92-.878-1.26-.195-.555-1.143-.573 1.136-1.263.168.906.895-.228 1.25zm25.758-2.83l.517.964.455-.998 1.082-.19-.81-.74.15-1.084-.956.54-.99-.479.222 1.075-.763.786 1.093.126zm5.211-2.867l.317.593.28-.611.664-.119-.497-.454.09-.664-.586.333-.603-.295.132.658-.468.483.67.076zM9.693 4.983l.318.593.279-.612.665-.12-.498-.454.092-.663-.587.331-.605-.293.135.656-.47.485.671.077z" fill="#7C8287"/></svg>