<svg width="40" height="40" viewBox="0 0 40 40" fill="none" xmlns="http://www.w3.org/2000/svg"><path d="M0 0v27.097h9.032v9.677A3.23 3.23 0 0 0 12.258 40h24.516A3.23 3.23 0 0 0 40 36.774V0H0zm16.774 1.29h6.452v6.452h-6.452V1.29zm-5.161 37.3a1.931 1.931 0 0 1-1.29-1.816V25.161c0-.84.54-1.55 1.29-1.817V38.59zm23.226.12H12.903V23.226H34.84V38.71zM16.774 21.936v-2.581h6.452v2.58h-6.452zM38.71 36.773a1.938 1.938 0 0 1-1.936 1.936h-.645v-5.162h2.58v3.226zm0-4.516h-2.581v-2.58h2.58v2.58zm0-5.806v1.935h-2.581v-5.161h.645c1.067 0 1.936.868 1.936 1.935v1.29zm0-3.855a3.192 3.192 0 0 0-1.936-.662H24.516v-3.87h-9.032v3.87h-3.226a3.23 3.23 0 0 0-3.226 3.226v.645H1.29V1.29h14.194v7.742h9.032V1.29H38.71v21.307z" fill="#7C8287"/><path d="M33.548 24.516H14.193V37.42h19.355V24.516zm-1.29 11.613H15.484V25.806h16.774V36.13z" fill="#7C8287"/><path d="M18.064 27.097h-1.29v7.742h1.29v-7.742zm5.162 0h-1.29v5.161h1.29v-5.161zm0 6.451h-1.29v1.29h1.29v-1.29zm-2.581-6.451h-1.29v5.161h1.29v-5.161zm0 6.451h-1.29v1.29h1.29v-1.29zm5.161-6.451h-1.29v5.161h1.29v-5.161zm0 6.451h-1.29v1.29h1.29v-1.29zm5.162-6.451h-1.29v7.742h1.29v-7.742zm-2.581 0h-1.29v5.161h1.29v-5.161zm0 6.451h-1.29v1.29h1.29v-1.29zM2.58 11.613h11.614V2.58H2.58v9.032zM3.872 3.87h9.032v6.451H3.871V3.872z" fill="#7C8287"/><path d="M11.613 5.161H5.16v1.29h6.452v-1.29zM9.032 7.742h-3.87v1.29h3.87v-1.29zm2.581 0h-1.29v1.29h1.29v-1.29z" fill="#7C8287"/></svg>