<svg width="32" height="27" viewBox="0 0 32 27" fill="none" xmlns="http://www.w3.org/2000/svg"><path d="M0 0h32v27H0z"/><path d="M6.73 10.376h18.54V27H6.73z"/><path d="M6.73 10.376h18.54V27H6.73z"/><path d="M22.544 13.205c-1.759-1.833-4.093-2.836-6.577-2.829-5.094.018-9.238 4.412-9.238 9.794v1.37c0 1.939.95 3.69 2.541 4.683a4.972 4.972 0 0 0 5.146.117 3.199 3.199 0 0 1 3.168 0c.781.44 1.63.66 2.476.66.921 0 1.84-.26 2.67-.777 1.59-.994 2.54-2.744 2.54-4.683v-1.465c0-2.597-.968-5.037-2.726-6.87z" fill="#7C8287"/><path d="M0 6.859h7.564v7.77H0z"/><path d="M0 6.859h7.564v7.77H0z"/><path d="M6.11 7.945l-.502-.382c-1.576-1.198-3.79-.83-4.935.818-1.145 1.648-.794 3.964.782 5.162l.502.381a3.41 3.41 0 0 0 2.071.705 3.482 3.482 0 0 0 2.863-1.522c1.145-1.649.794-3.965-.782-5.162z" fill="#7C8287"/><path d="M24.436 6.947H32v7.77h-7.564z"/><path d="M24.436 6.947H32v7.77h-7.564z"/><path d="M31.327 8.469c-1.145-1.649-3.359-2.016-4.935-.818l-.501.382c-1.576 1.197-1.927 3.513-.782 5.162a3.482 3.482 0 0 0 2.863 1.522 3.41 3.41 0 0 0 2.072-.704l.501-.382c1.576-1.198 1.927-3.513.782-5.162z" fill="#7C8287"/><path d="M7.385 0h7.579v9.036h-7.58z"/><path d="M7.385 0h7.579v9.036h-7.58z"/><path d="M14.789 4.198l-.51-1.642A3.63 3.63 0 0 0 12.523.405 3.369 3.369 0 0 0 9.827.183 3.559 3.559 0 0 0 7.771 2.02a3.825 3.825 0 0 0-.212 2.82l.51 1.642c.485 1.56 1.873 2.554 3.362 2.554a3.38 3.38 0 0 0 1.09-.181 3.559 3.559 0 0 0 2.056-1.837 3.83 3.83 0 0 0 .212-2.82z" fill="#7C8287"/><path d="M17.037.035h7.577V9.07h-7.577z"/><path d="M17.037.035h7.577V9.07h-7.577z"/><path d="M22.172.216c-1.852-.63-3.849.435-4.45 2.373l-.51 1.642a3.826 3.826 0 0 0 .211 2.82 3.559 3.559 0 0 0 2.056 1.837 3.38 3.38 0 0 0 1.09.181c1.489 0 2.877-.994 3.362-2.554l.51-1.642c.602-1.938-.416-4.027-2.268-4.657z" fill="#7C8287"/></svg>