<svg width="31" height="39" viewBox="0 0 31 39" fill="none" xmlns="http://www.w3.org/2000/svg"><path d="M0 0h31v39H0z"/><path d="M0 0h31v39H0z"/><path d="M0 0h31v39H0z"/><path d="M0 0h31v39H0z"/><path d="M27.41 13.904h-6.83V2.778C20.58 1.246 19.345 0 17.83 0H2.749C1.233 0 0 1.246 0 2.778v33.444C0 37.754 1.233 39 2.748 39h15.083c1.515 0 2.748-1.246 2.748-2.778v-8.34h6.83c1.176 0 2.132-.966 2.132-2.154v-9.67c0-1.187-.956-2.154-2.131-2.154zm-6.83 1.524h6.83c.024 0 .047.001.07.004.008 0 .015.002.023.003a.554.554 0 0 1 .18.057l.019.01c.02.01.039.021.057.034l.006.004a.639.639 0 0 1 .047.037l.017.015a.631.631 0 0 1 .076.084l.01.013-7.336 4.277-.082.048-1.253.73a.894.894 0 0 1-.9 0l-1.252-.73-3.52-2.052v-2.534h7.007zm-4.996 5.465l-2.012 1.173V19.72l2.012 1.173zM1.507 2.778a1.25 1.25 0 0 1 1.241-1.255h15.083a1.25 1.25 0 0 1 1.241 1.255v2.32H1.507v-2.32zm17.565 33.444a1.25 1.25 0 0 1-1.241 1.255H2.748a1.25 1.25 0 0 1-1.241-1.255v-2.32h17.565v2.32zm0-3.844H1.507V6.622h17.565v7.282h-5.5V12.62a.758.758 0 0 0-.754-.761.758.758 0 0 0-.753.761v16.608c0 .42.337.762.753.762a.758.758 0 0 0 .754-.762v-1.345h5.5v4.496zm8.834-6.268a.747.747 0 0 1-.028.034l-.017.019a.68.68 0 0 1-.032.031l-.016.015a.615.615 0 0 1-.048.037l-.006.004a.635.635 0 0 1-.057.035l-.018.01a.565.565 0 0 1-.044.019l-.023.008a.529.529 0 0 1-.114.029l-.022.003a.615.615 0 0 1-.07.005h-13.84v-2.534l3.52-2.052.5.291a2.385 2.385 0 0 0 2.405 0l.5-.291.082.048 7.336 4.277a.368.368 0 0 1-.01.012zm.128-1.701l-6.03-3.516 6.03-3.515v7.03z" fill="#7C8287"/><path d="M13.533 2.55H7.046a.758.758 0 0 0-.753.761c0 .42.337.762.753.762h6.487a.758.758 0 0 0 .754-.762.758.758 0 0 0-.754-.762zm-4.184 33.9h1.881a.758.758 0 0 0 .754-.761.758.758 0 0 0-.754-.762H9.35a.758.758 0 0 0-.754.762c0 .42.338.762.754.762zm20.897-25.507h-7.814a.758.758 0 0 0-.754.762c0 .42.337.762.753.762h7.815a.758.758 0 0 0 .754-.762.758.758 0 0 0-.754-.762zM25.747 29.25H24.09a.758.758 0 0 0-.753.762c0 .42.337.761.753.761h1.658a.758.758 0 0 0 .754-.761.758.758 0 0 0-.754-.762zM12.4 10.205a.728.728 0 0 0 .271.114.736.736 0 0 0 .68-.208.734.734 0 0 0 .162-.247.722.722 0 0 0 .059-.291.771.771 0 0 0-.466-.704.758.758 0 0 0-.435-.044.756.756 0 0 0-.606.748.772.772 0 0 0 .335.632z" fill="#7C8287"/></svg>