<svg width="10" height="15" viewBox="0 0 10 15" fill="none" xmlns="http://www.w3.org/2000/svg"><path d="M8.715 0h-7.43C.574 0 0 .49 0 1.093v12.815C0 14.511.574 15 1.285 15h7.43c.71 0 1.285-.49 1.285-1.092V1.093C10 .49 9.425 0 8.715 0zM3.167.664h3.668c.092 0 .168.117.168.262 0 .146-.076.264-.168.264H3.167c-.094 0-.168-.118-.168-.263 0-.146.074-.263.168-.263zM5 13.92c-.453 0-.82-.312-.82-.697 0-.385.367-.696.82-.696.45 0 .819.311.819.696 0 .385-.368.697-.82.697zm4.036-2.388H.963v-9.69h8.074v9.69z" fill="#7C8287"/></svg>