<svg width="38" height="20" viewBox="0 0 38 20" fill="none" xmlns="http://www.w3.org/2000/svg"><path d="M38 0v20H0V0z"/><path d="M33.547 4.444v2.222H31.32V4.444z"/><path d="M33.547 4.444v2.222H31.32V4.444z"/><path d="M33.547 6.667V4.444H31.32v2.223h2.227z" fill="#7C8287"/><path d="M33.547 13.333v2.222H31.32v-2.222z"/><path d="M33.547 13.333v2.222H31.32v-2.222z"/><path d="M33.547 15.556v-2.223H31.32v2.223h2.227z" fill="#7C8287"/><path d="M29.094 4.444v2.222h-2.227V4.444z"/><path d="M29.094 4.444v2.222h-2.227V4.444z"/><path d="M29.094 6.667V4.444h-2.227v2.223h2.227z" fill="#7C8287"/><path d="M24.64 4.444v2.222h-2.226V4.444z"/><path d="M24.64 4.444v2.222h-2.226V4.444z"/><path d="M24.64 6.667V4.444h-2.226v2.223h2.227z" fill="#7C8287"/><path d="M29.094 8.889v2.222h-2.227V8.889z"/><path d="M29.094 8.889v2.222h-2.227V8.889z"/><path d="M29.094 11.111V8.89h-2.227v2.222h2.227z" fill="#7C8287"/><path d="M24.64 8.889v2.222h-2.226V8.889z"/><path d="M24.64 8.889v2.222h-2.226V8.889z"/><path d="M24.64 11.111V8.89h-2.226v2.222h2.227z" fill="#7C8287"/><path d="M29.094 13.333v2.222h-2.227v-2.222z"/><path d="M29.094 13.333v2.222h-2.227v-2.222z"/><path d="M29.094 15.556v-2.223h-2.227v2.223h2.227z" fill="#7C8287"/><path d="M24.64 13.333v2.222h-2.226v-2.222z"/><path d="M24.64 13.333v2.222h-2.226v-2.222z"/><path d="M24.64 15.556v-2.223h-2.226v2.223h2.227z" fill="#7C8287"/><path d="M38 0v20H0V0z"/><path d="M38 0v20H0V0z"/><path d="M38 14.444V5.556C38 2.492 35.503 0 32.434 0H5.566C2.497 0 0 2.492 0 5.556v8.888C0 17.508 2.497 20 5.566 20h26.868C35.503 20 38 17.508 38 14.444zM5.566 17.778a3.34 3.34 0 0 1-3.34-3.334V5.556a3.34 3.34 0 0 1 3.34-3.334h26.868a3.34 3.34 0 0 1 3.34 3.334v8.888a3.34 3.34 0 0 1-3.34 3.334H5.566z" fill="#7C8287"/><path d="M20.113 4.444v11.111H8.98V4.445z"/><path d="M20.113 4.444v11.111H8.98V4.445z"/><path d="M20.113 10c0-3.063-2.497-5.556-5.566-5.556-3.07 0-5.567 2.493-5.567 5.556s2.498 5.556 5.567 5.556c3.07 0 5.566-2.493 5.566-5.556zm-8.906 0a3.34 3.34 0 0 1 6.68 0 3.34 3.34 0 0 1-6.68 0z" fill="#7C8287"/><path d="M6.68 4.444v4.444H4.453V4.444z"/><path d="M6.68 4.444v4.444H4.453V4.444z"/><path d="M6.68 8.889V4.444H4.453V8.89H6.68z" fill="#7C8287"/><path d="M6.68 11.111v4.444H4.453v-4.444z"/><path d="M6.68 11.111v4.444H4.453v-4.444z"/><path d="M6.68 15.556V11.11H4.453v4.444H6.68z" fill="#7C8287"/></svg>