<svg width="32" height="32" viewBox="0 0 32 32" fill="none" xmlns="http://www.w3.org/2000/svg"><path d="M.15 25.69l8.308-8.308c.2-.2.522-.2.722 0l2.075 2.076.723-.723-5.455-5.454a.51.51 0 0 1 0-.722l.254-.253L4.73 10.26a.51.51 0 0 1-.147-.405l.214-2.49c.032-.374.249-.84.515-1.106l.947-.947a1.974 1.974 0 0 1 1.107-.515l2.489-.214h.012a.51.51 0 0 1 .038-.002l.02.001a.49.49 0 0 1 .138.026l.017.006.033.015.015.007a.512.512 0 0 1 .034.019l.013.007a.5.5 0 0 1 .033.024c.004.003.008.005.01.008a.533.533 0 0 1 .042.036l2.046 2.047.253-.254c.2-.2.523-.2.722 0l5.454 5.455.723-.723-2.076-2.075a.51.51 0 0 1 0-.722L25.69.15c.2-.2.523-.2.722 0l4.874 4.873c.2.2.2.523 0 .722l-8.309 8.308a.51.51 0 0 1-.722 0l-2.075-2.075-.723.722 5.24 5.239a.511.511 0 0 1 0 .722l-1.816 1.815.82.82a10.333 10.333 0 0 1 6.061-1.944c.607 0 1.218.053 1.816.158a.51.51 0 0 1 .272.864l-2.74 2.741.456 4.447a.51.51 0 0 1-.147.413l-1.444 1.444a.51.51 0 0 1-.414.147l-4.446-.457-2.74 2.741a.51.51 0 0 1-.865-.272c-.469-2.664.12-5.38 1.59-7.587l-.867-.867-1.572 1.572a.51.51 0 0 1-.722 0l-5.24-5.238-.721.722 2.075 2.076c.2.199.2.522 0 .722l-8.308 8.308a.51.51 0 0 1-.722 0L.15 26.412a.51.51 0 0 1 0-.722zM18.465 8.82l.902.902L22.8 6.29l-.902-.902-3.432 3.432zm11.737-3.435l-.902-.902-2.349 2.349a.51.51 0 0 1-.722 0 .51.51 0 0 1 0-.723l2.349-2.348-.902-.903-2.35 2.349a.51.51 0 0 1-.721 0 .51.51 0 0 1 0-.722l2.348-2.349-.902-.902-3.432 3.432 1.264 1.263a248710.886 248710.886 0 0 0 2.888 2.888l3.431-3.432zm-7.586 7.586l3.432-3.432-.902-.902-3.432 3.432.902.902zm-2.075-2.076l.451.452 3.432-3.432-.902-.903-3.432 3.432.45.451zM9.899 5.814L7.582 8.13a.51.51 0 0 1-.722 0 .51.51 0 0 1 0-.722L8.548 5.72l-1.095.094a.997.997 0 0 0-.472.22l-.947.947a.997.997 0 0 0-.22.472l-.193 2.253 1.878 1.878 4.085-4.085-1.685-1.685zm17.525 22.711l1.101-1.1-.347-3.379-4.132 4.132 3.378.347zm-7.03 1.862l9.993-9.993a9.318 9.318 0 0 0-6.407 1.97l-.011.008a9.406 9.406 0 0 0-3.575 8.015zm1.32-7.227a10.421 10.421 0 0 1 1.182-1.224l-.738-.738-1.203 1.204.758.758zm-3.414.453l5.313-5.313L12.92 7.607 7.607 12.92 18.3 23.613zm-5.33-.997l-.902-.902-2.349 2.349a.51.51 0 0 1-.722 0 .51.51 0 0 1 0-.722l2.349-2.349-.451-.45c0-.002-.452-.452-.452-.452l-2.348 2.348a.51.51 0 0 1-.723 0 .51.51 0 0 1 0-.722l2.35-2.349-.903-.902-3.432 3.432 4.151 4.152 3.432-3.433zm-7.586 7.587l3.432-3.432-.902-.903L4.482 29.3l.902.903zM3.76 28.578l3.431-3.432-.902-.902-3.432 3.432.903.902zm-1.625-1.625l3.432-3.431-.902-.903-3.432 3.432.902.902zm28.006 1.744a.51.51 0 0 1 .722.722l-1.444 1.444a.51.51 0 0 1-.722 0 .51.51 0 0 1 0-.722l1.444-1.444z" fill="#fff"/></svg>