<svg width="34" height="34" viewBox="0 0 34 34" fill="none" xmlns="http://www.w3.org/2000/svg"><path d="M0 0h34v34H0z"/><path d="M0 0h34v34H0z"/><path d="M28.99 4.44h-6.47a.467.467 0 0 0-.33.796l2.436 2.436L7.729 24.659l-2.434-2.434a.467.467 0 0 0-.796.33l-.001 6.469c0 .258.208.466.466.466l6.47.002a.466.466 0 0 0 .33-.797l-2.433-2.434 12.873-12.967 4.022-4.022 2.434 2.434a.467.467 0 0 0 .796-.33V4.907a.466.466 0 0 0-.466-.466z" fill="#7C8287"/><path d="M31.335 0H2.665A2.665 2.665 0 0 0 0 2.665v28.67A2.665 2.665 0 0 0 2.665 34h28.67A2.665 2.665 0 0 0 34 31.335V2.665A2.665 2.665 0 0 0 31.335 0zm.398 31.335c0 .22-.178.398-.398.398H2.665a.399.399 0 0 1-.398-.398V2.665c0-.22.178-.398.398-.398h28.67c.22 0 .398.178.398.398v28.67z" fill="#7C8287"/></svg>