<svg width="18" height="18" viewBox="0 0 18 18" fill="none" xmlns="http://www.w3.org/2000/svg"><path d="M17.282 15.04l-3.573-3.495a6.874 6.874 0 0 0 1.292-4.066c0-.972-.193-1.901-.579-2.788A7.162 7.162 0 0 0 12.86 2.4 7.345 7.345 0 0 0 10.517.87a7.345 7.345 0 0 0-2.85-.566c-.993 0-1.942.189-2.849.566A7.343 7.343 0 0 0 2.475 2.4 7.164 7.164 0 0 0 .912 4.69a6.918 6.918 0 0 0-.578 2.79c0 .971.193 1.9.578 2.786a7.143 7.143 0 0 0 1.563 2.293 7.346 7.346 0 0 0 2.343 1.529 7.345 7.345 0 0 0 2.85.565c1.527 0 2.913-.421 4.156-1.263l3.573 3.485c.25.258.562.387.937.387.361 0 .674-.13.938-.387a1.24 1.24 0 0 0 .395-.917c0-.36-.128-.666-.385-.917zm-6.318-4.336c-.913.893-2.012 1.34-3.297 1.34-1.284 0-2.383-.447-3.296-1.34C3.457 9.81 3 8.735 3 7.478c0-1.256.456-2.332 1.37-3.225.913-.893 2.012-1.34 3.296-1.34 1.285 0 2.384.447 3.297 1.34.914.893 1.37 1.969 1.37 3.225 0 1.257-.457 2.332-1.37 3.226z" fill="#7C8287"/></svg>