<svg width="46" height="46" viewBox="0 0 46 46" fill="none" xmlns="http://www.w3.org/2000/svg"><path d="M.5.5h45.051v45H.5z"/><path d="M24.376 22.433V1.765c0-.703-.58-1.265-1.303-1.265-.724 0-1.304.562-1.304 1.265v20.668c-3.022.59-5.31 3.186-5.31 6.296 0 3.11 2.288 5.706 5.31 6.296v9.2c0 .703.58 1.266 1.304 1.266.724 0 1.303-.563 1.303-1.265v-9.2c3.022-.591 5.31-3.186 5.31-6.297 0-3.101-2.278-5.706-5.31-6.296zm-1.303 10.184c-2.211 0-4.007-1.742-4.007-3.888 0-2.145 1.796-3.888 4.007-3.888 2.21 0 4.007 1.743 4.007 3.888 0 2.146-1.796 3.888-4.007 3.888zM8.417 11.827V1.765C8.417 1.062 7.837.5 7.114.5 6.39.5 5.81 1.062 5.81 1.765v10.062C2.788 12.417.5 15.013.5 18.123c0 3.11 2.288 5.706 5.31 6.296v19.807c0 .703.58 1.265 1.304 1.265.724 0 1.303-.563 1.303-1.265V24.41c3.022-.59 5.31-3.186 5.31-6.296 0-3.11-2.288-5.696-5.31-6.287zM7.114 22.012c-2.211 0-4.007-1.743-4.007-3.889 0-2.145 1.796-3.888 4.007-3.888 2.21 0 4.007 1.743 4.007 3.888 0 2.146-1.806 3.889-4.007 3.889zm33.127-10.185V1.765c0-.703-.579-1.265-1.303-1.265s-1.303.562-1.303 1.265v10.062c-3.023.59-5.31 3.186-5.31 6.296 0 3.11 2.287 5.706 5.31 6.296v19.816c0 .703.579 1.265 1.303 1.265s1.303-.562 1.303-1.265V24.41c3.022-.59 5.31-3.186 5.31-6.296 0-3.11-2.278-5.696-5.31-6.287zm-1.303 10.185c-2.211 0-4.007-1.743-4.007-3.889 0-2.145 1.796-3.888 4.007-3.888 2.211 0 4.007 1.743 4.007 3.888 0 2.146-1.796 3.889-4.007 3.889z" fill="#fff"/></svg>