<svg width="17" height="32" viewBox="0 0 17 32" fill="none" xmlns="http://www.w3.org/2000/svg"><path d="M15.809 31.195l-2.478-8.623v-.002l-.884-3.077-1.222-4.252v-.003L9.28 8.473a2.297 2.297 0 0 0 1.467-2.152c0-1.265-1.009-2.294-2.248-2.294-1.239 0-2.247 1.029-2.247 2.294 0 .985.611 1.827 1.467 2.152L3.67 22.57v.002l-2.478 8.623a.63.63 0 0 0 .417.78.613.613 0 0 0 .763-.426l.377-1.311 5.751-3.88 5.752 3.88.377 1.31a.617.617 0 0 0 .763.426.63.63 0 0 0 .417-.779zM7.483 6.321A1.03 1.03 0 0 1 8.5 5.282a1.03 1.03 0 0 1 1.017 1.039A1.03 1.03 0 0 1 8.5 7.36a1.03 1.03 0 0 1-1.017-1.04zM8.5 10.219l1.316 4.579H7.185l1.315-4.58zm-1.676 5.835h3.353l.861 2.998H5.963l.86-2.998zM3.285 28.37l1.33-4.632 2.77 1.868-4.1 2.764zm1.693-5.892l.624-2.17h5.797l.623 2.17L8.5 24.853l-3.522-2.375zm4.638 3.128l2.769-1.868 1.33 4.633-4.099-2.765z" fill="#fff"/><path d="M5.577 3.336a.637.637 0 0 0 0-.888.606.606 0 0 0-.87 0c-2.092 2.135-2.092 5.61 0 7.746a.607.607 0 0 0 .87 0 .637.637 0 0 0 0-.888c-1.613-1.646-1.613-4.324 0-5.97zm6.717-.888a.606.606 0 0 0-.87 0 .637.637 0 0 0 0 .888c1.612 1.646 1.612 4.324 0 5.97a.637.637 0 0 0 0 .888.606.606 0 0 0 .87 0c2.091-2.135 2.091-5.61 0-7.746z" fill="#fff"/><path d="M3.36 1.072a.637.637 0 0 0 0-.888.606.606 0 0 0-.87 0A8.715 8.715 0 0 0 0 6.32c0 2.318.884 4.498 2.49 6.137a.607.607 0 0 0 .87 0 .637.637 0 0 0 0-.888C.525 8.676.525 3.966 3.36 1.072zm12.383.702a.608.608 0 0 0-.847-.206.636.636 0 0 0-.2.864 7.511 7.511 0 0 1-1.055 9.138.638.638 0 0 0 0 .888.607.607 0 0 0 .87 0 8.78 8.78 0 0 0 2.438-5.175 8.868 8.868 0 0 0-1.206-5.51zM14.076 0c-.791 0-.793 1.256 0 1.256.791 0 .793-1.256 0-1.256z" fill="#fff"/></svg>