<svg width="49" height="34" viewBox="0 0 49 34" fill="none" xmlns="http://www.w3.org/2000/svg"><path d="M49 0H0v34h49z"/><path d="M49 0H0v34h49z"/><path d="M47.908 14.102c.603 0 1.092.489 1.092 1.092v3.612a1.092 1.092 0 0 1-2.185 0v-3.612c0-.604.49-1.092 1.093-1.092zm-4.257 0c.604 0 1.093.489 1.093 1.092v3.612a1.092 1.092 0 0 1-2.185 0v-3.612c0-.604.49-1.092 1.093-1.092zm-4.255-1.529c.603 0 1.092.49 1.092 1.093v6.668a1.092 1.092 0 1 1-2.185 0v-6.668c0-.604.49-1.093 1.093-1.093zm-4.256-1.806c.603 0 1.092.49 1.092 1.093v10.28a1.092 1.092 0 1 1-2.184 0V11.86c0-.604.488-1.093 1.092-1.093zm-4.256-3.195c.603 0 1.092.489 1.092 1.092v16.672a1.093 1.093 0 0 1-2.185 0V8.664c0-.603.49-1.092 1.093-1.092zM26.628 0c.603 0 1.092.49 1.092 1.092v31.816a1.092 1.092 0 1 1-2.184 0V1.091C25.536.49 26.025 0 26.628 0zm-4.256 2.71c.603 0 1.092.488 1.092 1.092v26.397a1.092 1.092 0 1 1-2.184 0V3.802c0-.604.489-1.093 1.092-1.093zm-4.256 5.417c.603 0 1.093.49 1.093 1.093v15.56a1.092 1.092 0 1 1-2.185 0V9.22c0-.603.489-1.093 1.092-1.093zm-4.256 3.265c.603 0 1.092.49 1.092 1.093v9.03a1.092 1.092 0 1 1-2.184 0v-9.03c0-.604.489-1.093 1.092-1.093zm-4.256 1.39c.603 0 1.092.489 1.092 1.092v6.252a1.092 1.092 0 1 1-2.184 0v-6.252c0-.603.489-1.092 1.092-1.092zm-4.256 1.32c.603 0 1.093.489 1.093 1.092v3.612a1.092 1.092 0 1 1-2.185 0v-3.612c0-.604.489-1.092 1.092-1.092zm-4.256 0c.604 0 1.093.489 1.093 1.092v3.612a1.092 1.092 0 1 1-2.185 0v-3.612c0-.604.489-1.092 1.092-1.092z" fill="#7C8287"/></svg>