<svg width="100" height="17" viewBox="0 0 100 17" fill="none" xmlns="http://www.w3.org/2000/svg"><path fill-rule="evenodd" clip-rule="evenodd" d="M16.305 7.553c.328-.334.444-.823.302-1.279a1.203 1.203 0 0 0-.965-.849l-4.035-.612a.53.53 0 0 1-.397-.301L9.405.695A1.184 1.184 0 0 0 8.334 0c-.458 0-.87.266-1.072.695L5.457 4.512a.53.53 0 0 1-.397.301l-4.035.612a1.203 1.203 0 0 0-.966.85c-.141.455-.025.945.303 1.278l2.92 2.971a.57.57 0 0 1 .152.488l-.69 4.194c-.06.37.033.729.262 1.012.355.441.976.576 1.473.303l3.609-1.98a.52.52 0 0 1 .491 0l3.61 1.98c.175.097.362.146.555.146.353 0 .688-.164.918-.449a1.26 1.26 0 0 0 .26-1.012l-.689-4.194a.566.566 0 0 1 .152-.488l2.92-2.971zm20.833 0a1.28 1.28 0 0 0 .303-1.279 1.203 1.203 0 0 0-.966-.849l-4.035-.612a.53.53 0 0 1-.397-.301L30.239.695A1.184 1.184 0 0 0 29.167 0c-.458 0-.87.266-1.072.695l-1.804 3.817a.53.53 0 0 1-.398.301l-4.035.612a1.203 1.203 0 0 0-.965.85c-.142.455-.026.945.302 1.278l2.92 2.971a.57.57 0 0 1 .152.488l-.689 4.194c-.06.37.032.729.26 1.012.357.441.978.576 1.474.303l3.61-1.98a.52.52 0 0 1 .49 0l3.61 1.98c.175.097.363.146.556.146.352 0 .687-.164.917-.449a1.26 1.26 0 0 0 .26-1.012l-.689-4.194a.566.566 0 0 1 .152-.488l2.92-2.971zm21.136-1.279c.142.456.026.945-.302 1.279l-2.92 2.971a.567.567 0 0 0-.152.488l.689 4.194a1.26 1.26 0 0 1-.26 1.012 1.18 1.18 0 0 1-.918.449c-.193 0-.38-.05-.556-.146l-3.61-1.98a.52.52 0 0 0-.49 0l-3.61 1.98a1.173 1.173 0 0 1-1.473-.303 1.26 1.26 0 0 1-.26-1.012l.688-4.194a.567.567 0 0 0-.152-.488l-2.92-2.97a1.278 1.278 0 0 1-.302-1.28c.142-.455.512-.78.965-.849l4.036-.612a.53.53 0 0 0 .397-.301L48.93.695A1.184 1.184 0 0 1 50 0c.458 0 .87.266 1.072.695l1.804 3.817a.53.53 0 0 0 .397.301l4.036.612c.454.069.823.394.965.85zm20.531 1.279c.328-.334.444-.823.302-1.279a1.203 1.203 0 0 0-.965-.849l-4.035-.612a.53.53 0 0 1-.397-.301L71.905.695A1.184 1.184 0 0 0 70.833 0c-.457 0-.868.266-1.071.695l-1.805 3.817a.53.53 0 0 1-.397.301l-4.035.612a1.203 1.203 0 0 0-.966.85c-.141.455-.025.945.303 1.278l2.92 2.971a.57.57 0 0 1 .152.488l-.69 4.194c-.06.37.033.729.261 1.012.356.441.977.576 1.474.303l3.609-1.98a.52.52 0 0 1 .491 0l3.61 1.98c.175.097.362.146.555.146.353 0 .688-.164.918-.449a1.26 1.26 0 0 0 .26-1.012l-.689-4.194a.566.566 0 0 1 .152-.488l2.92-2.971zm21.136-1.279a1.28 1.28 0 0 1-.303 1.279l-2.92 2.971a.567.567 0 0 0-.152.488l.69 4.194a1.26 1.26 0 0 1-.261 1.012 1.18 1.18 0 0 1-.917.449c-.194 0-.38-.05-.556-.146l-3.61-1.98a.52.52 0 0 0-.49 0l-3.61 1.98a1.173 1.173 0 0 1-1.473-.303 1.26 1.26 0 0 1-.26-1.012l.688-4.194a.567.567 0 0 0-.152-.488l-2.92-2.97a1.278 1.278 0 0 1-.302-1.28c.141-.455.511-.78.965-.849l4.035-.612a.53.53 0 0 0 .398-.301L90.595.695A1.184 1.184 0 0 1 91.667 0c.458 0 .87.266 1.072.695l1.804 3.817a.53.53 0 0 0 .397.301l4.035.612c.454.069.824.394.966.85z" fill="#FFD800"/></svg>