<svg width="31" height="40" viewBox="0 0 31 40" fill="none" xmlns="http://www.w3.org/2000/svg"><path d="M25.828 12.725l1.618-1.631.548.552a.77.77 0 0 0 1.096 0 .786.786 0 0 0 0-1.105l-2.192-2.209a.771.771 0 0 0-1.096 0 .786.786 0 0 0 0 1.105l.548.552-1.736 1.75A15.41 15.41 0 0 0 18.6 9.063V6.25h.775c1.713 0 3.1-1.398 3.1-3.125 0-1.723-1.39-3.125-3.1-3.125h-7.75c-1.713 0-3.1 1.398-3.1 3.125 0 1.723 1.39 3.125 3.1 3.125h.775v2.813a15.408 15.408 0 0 0-6.015 2.675L4.65 9.99l.548-.552a.786.786 0 0 0 0-1.105.77.77 0 0 0-1.096 0l-2.192 2.21a.786.786 0 0 0 0 1.104.77.77 0 0 0 1.096 0l.548-.552 1.618 1.63A15.673 15.673 0 0 0 0 24.376C0 32.991 6.953 40 15.5 40S31 32.99 31 24.375c0-4.413-1.852-8.66-5.172-11.65zM11.625 4.688c-.855 0-1.55-.701-1.55-1.563 0-.863.694-1.563 1.55-1.563h7.75c.855 0 1.55.701 1.55 1.563 0 .863-.694 1.563-1.55 1.563h-7.75zM17.05 6.25v2.578a15.652 15.652 0 0 0-3.1 0V6.25h3.1zM15.5 38.438c-7.692 0-13.95-6.309-13.95-14.063 0-7.901 6.295-14.063 13.95-14.063.738 0 1.479.06 2.204.175 6.774 1.083 11.746 6.9 11.746 13.888 0 7.754-6.258 14.063-13.95 14.063z" fill="#fff"/><path d="M16.275 22.166v-3.26a.778.778 0 0 0-.775-.781.778.778 0 0 0-.775.781v3.26a2.346 2.346 0 0 0-1.55 2.209 2.337 2.337 0 0 0 2.325 2.344 2.337 2.337 0 0 0 2.325-2.344 2.346 2.346 0 0 0-1.55-2.21zm-.775 2.99a.779.779 0 0 1-.775-.781.78.78 0 0 1 .775-.781c.427 0 .775.35.775.781a.78.78 0 0 1-.775.781z" fill="#fff"/><path d="M15.5 13.438c-5.986 0-10.85 4.902-10.85 10.937 0 6.034 4.864 10.938 10.85 10.938s10.85-4.903 10.85-10.938c0-6.034-4.864-10.938-10.85-10.938zm7.098 16.987l-.522-.526a.77.77 0 0 0-1.096 0 .786.786 0 0 0 0 1.105l.522.526a9.172 9.172 0 0 1-5.227 2.187v-.748a.778.778 0 0 0-.775-.782.778.778 0 0 0-.775.782v.748a9.172 9.172 0 0 1-5.227-2.187l.522-.526a.786.786 0 0 0 0-1.105.77.77 0 0 0-1.096 0l-.522.526a9.326 9.326 0 0 1-2.17-5.269h.743c.428 0 .775-.35.775-.781a.778.778 0 0 0-.775-.781h-.743a9.326 9.326 0 0 1 2.17-5.27l.522.527a.77.77 0 0 0 1.096 0 .786.786 0 0 0 0-1.105l-.522-.526a9.172 9.172 0 0 1 5.227-2.187v.748c0 .432.347.781.775.781.428 0 .775-.35.775-.78v-.75a9.172 9.172 0 0 1 5.227 2.188l-.522.526a.786.786 0 0 0 0 1.105.77.77 0 0 0 1.096 0l.522-.526a9.325 9.325 0 0 1 2.17 5.269h-.743a.778.778 0 0 0 0 1.554h.743a9.349 9.349 0 0 1-2.17 5.277z" fill="#fff"/></svg>