<svg width="24" height="44" viewBox="0 0 24 44" fill="none" xmlns="http://www.w3.org/2000/svg"><path d="M0 0h24v44H0z"/><path d="M0 0h24v44H0z"/><path d="M24 5.598v1.876h-6.942V5.598H24zm-2.911 4.087h-4.031v1.875h4.03V9.685zm-4.031 5.962H24v-1.875h-6.942v1.875zm4.03 2.213h-4.03v1.875h4.03V17.86zm-4.03 5.962H24v-1.875h-6.942v1.875zm1.082 10.685C18.14 39.74 14.07 44 9.07 44S0 39.741 0 34.507c0-3.392 1.702-6.475 4.479-8.18V4.805C4.479 2.155 6.539 0 9.069 0c2.532 0 4.592 2.155 4.592 4.805v21.522c2.777 1.703 4.479 4.787 4.479 8.18zm-1.792 0c0-2.878-1.528-5.48-3.989-6.788l-.49-.26V4.805c0-1.616-1.256-2.93-2.8-2.93-1.542 0-2.798 1.314-2.798 2.93v22.652l-.49.26c-2.461 1.31-3.99 3.911-3.99 6.789 0 4.2 3.266 7.618 7.279 7.618s7.278-3.418 7.278-7.618zm-1.492 0c0 3.339-2.595 6.055-5.786 6.055-3.19 0-5.785-2.716-5.785-6.055 0-2.737 1.766-5.14 4.296-5.844l.332-.093V17.005h2.314V28.57l.332.094c2.531.704 4.297 3.108 4.297 5.844zm-5.5-4.036c-.137-.642-.754-1.064-1.382-.914-2.193.52-3.724 2.527-3.724 4.883 0 .666.518 1.209 1.155 1.209s1.156-.543 1.156-1.21c0-1.197.808-2.258 1.923-2.522.62-.149 1.012-.798.873-1.446z" fill="#7C8287"/></svg>