<svg width="32" height="32" viewBox="0 0 32 32" fill="none" xmlns="http://www.w3.org/2000/svg"><path d="M0 0h32v32H0z"/><path d="M16 32c8.843 0 16-7.185 16-16 0-8.843-7.185-16-16-16C7.185 0 0 7.157 0 16c0 8.815 7.157 16 16 16zm0-29.762c7.6 0 13.762 6.163 13.762 13.762 0 7.6-6.163 13.762-13.762 13.762-7.6 0-13.762-6.19-13.762-13.762C2.238 8.4 8.401 2.238 16 2.238z" fill="#7C8287"/><path d="M15.254 17.88h5.333a1.12 1.12 0 0 0 1.133-1.134 1.12 1.12 0 0 0-1.133-1.133h-4.2V9.036a1.12 1.12 0 0 0-1.133-1.133 1.12 1.12 0 0 0-1.133 1.133v7.71a1.12 1.12 0 0 0 1.133 1.133z" fill="#7C8287"/></svg>