<svg width="36" height="35" viewBox="0 0 36 35" fill="none" xmlns="http://www.w3.org/2000/svg"><path d="M0 0h36v35H0z"/><path d="M0 0h36v35H0z"/><path d="M0 0h36v35H0z"/><path d="M35.923 26.864a6.307 6.307 0 0 0-1.582-2.636 6.208 6.208 0 0 0-4.43-1.845c-.85 0-1.691.174-2.473.51l-6.163-6.197 8.184-8.165 1.938-.055a.684.684 0 0 0 .568-.337l2.773-4.688a.691.691 0 0 0-.102-.84L32.239.2a.682.682 0 0 0-.836-.103L26.74 2.886a.689.689 0 0 0-.336.571L26.35 5.4l-8.162 8.192-5.602-5.631c.588-3.429-1.7-6.687-5.11-7.278a6.24 6.24 0 0 0-4.54.965.69.69 0 0 0 .049 1.17L6.093 4.56c.685.392.822 1.563.267 2.554-.555.991-1.616 1.5-2.308 1.115L1.17 6.658a.683.683 0 0 0-1.013.648c.216 3.472 3.192 6.11 6.646 5.892a6.239 6.239 0 0 0 2.071-.495l5.095 5.122-2.205 2.217-.5-.496a1.426 1.426 0 0 0-1.979 0l-.685.689a1.382 1.382 0 0 0-.075 1.893l-8.101 8.13a1.382 1.382 0 0 0 0 1.99l2.314 2.327a1.365 1.365 0 0 0 1.98 0l8.108-8.144a1.364 1.364 0 0 0 1.883-.076l.685-.688a1.382 1.382 0 0 0 0-1.99l-.5-.503 2.191-2.25 6.643 6.677c-.574 3.431 1.727 6.68 5.14 7.257a6.245 6.245 0 0 0 5.515-1.804.691.691 0 0 0-.308-1.116l-3.855-1.04a1.27 1.27 0 0 1-.808-.79 2.54 2.54 0 0 1-.069-1.626c.288-1.08 1.199-1.852 1.966-1.645l3.814 1.033a.636.636 0 0 0 .185 0 .686.686 0 0 0 .616-1.006zm-8.43-20.701a.69.69 0 0 0 .199-.468l.055-1.838 3.882-2.32 1.644 1.652-2.26 3.897-1.863.068a.683.683 0 0 0-.465.2l-8.355 8.392-1.178-1.184 8.341-8.399zM3.743 33.597L1.396 31.25l8.142-8.165 1.178 1.184 1.123 1.17-8.094 8.158zm10.02-8.26l-.904-.916-.35-.352-2.876-2.912.685-.688 4.109 4.186-.664.681zm.13-3.14l-1.178-1.184 2.205-2.217 1.178 1.184-2.205 2.217zm17.75 3.311a2.385 2.385 0 0 0-.623-.082A3.362 3.362 0 0 0 28 28.124a3.923 3.923 0 0 0 .13 2.513c.294.77.93 1.357 1.719 1.584l2.547.688a4.882 4.882 0 0 1-6.712-1.709 4.945 4.945 0 0 1-.56-3.647.69.69 0 0 0-.185-.64L9.503 11.38a.682.682 0 0 0-.808-.096A4.89 4.89 0 0 1 1.8 8.614l1.561.874c.364.205.775.312 1.192.31a3.574 3.574 0 0 0 2.979-1.955c.931-1.673.568-3.663-.801-4.434L4.737 2.273c2.547-.914 5.348.42 6.258 2.98.316.889.37 1.85.159 2.769a.69.69 0 0 0 .184.64l15.47 15.545a.682.682 0 0 0 .802.124 4.885 4.885 0 0 1 6.513 1.852l-2.48-.675z" fill="#7C8287"/></svg>