<svg width="15" height="16" viewBox="0 0 15 16" fill="none" xmlns="http://www.w3.org/2000/svg"><path d="M0 .764h15v14.79H0z"/><path d="M0 .764h15v14.79H0z"/><path d="M7.5 8.6c1.857 0 3.363-1.754 3.363-3.918 0-3-1.505-3.918-3.363-3.918-1.857 0-3.363.917-3.363 3.918 0 2.164 1.506 3.919 3.363 3.919zm7.427 5.768l-1.697-3.805a.85.85 0 0 0-.384-.406l-2.633-1.365a.17.17 0 0 0-.18.016 4.19 4.19 0 0 1-2.533.857 4.184 4.184 0 0 1-2.532-.857.17.17 0 0 0-.181-.016l-2.633 1.365a.85.85 0 0 0-.384.406L.073 14.368a.846.846 0 0 0 .775 1.187h13.303a.846.846 0 0 0 .776-1.187z" fill="#7C8287"/></svg>