<svg width="43" height="26" viewBox="0 0 43 26" fill="none" xmlns="http://www.w3.org/2000/svg"><path d="M0 0h43v26H0z"/><path d="M0 0h43v26H0z"/><path d="M21.5 2.6c5.495 0 10.147 2.5 13.081 4.596 3.477 2.484 5.266 4.888 5.73 5.804-.465.916-2.253 3.32-5.73 5.804C31.647 20.9 26.995 23.4 21.5 23.4c-5.496 0-10.147-2.5-13.081-4.596C4.942 16.32 3.153 13.917 2.689 13c.464-.916 2.253-3.32 5.73-5.804C11.352 5.1 16.003 2.6 21.5 2.6zm0-2.6C9.626 0 0 10.4 0 13c0 2.6 9.626 13 21.5 13S43 15.6 43 13c0-2.6-9.626-13-21.5-13zm0 5.2c-4.318 0-7.818 3.492-7.818 7.8s3.5 7.8 7.818 7.8 7.818-3.492 7.818-7.8-3.5-7.8-7.818-7.8zM19.395 13a3.304 3.304 0 0 1-3.308-3.3c0-1.823 1.481-3.3 3.308-3.3a3.304 3.304 0 0 1 3.308 3.3c0 1.823-1.481 3.3-3.308 3.3z" fill="#7C8287"/></svg>