<svg width="30" height="18" viewBox="0 0 30 18" fill="none" xmlns="http://www.w3.org/2000/svg"><path d="M29.84 15.394a2.056 2.056 0 0 0-.1-.194c-.521-.934-1.516-2.08-2.984-3.438l-.031-.032-.016-.015-.015-.015h-.016c-.666-.633-1.088-1.058-1.265-1.276-.323-.415-.396-.835-.22-1.26.126-.322.595-1 1.407-2.038.427-.55.765-.99 1.015-1.322 1.801-2.385 2.582-3.91 2.343-4.573l-.093-.155c-.063-.094-.224-.179-.484-.257-.26-.078-.594-.09-1-.039l-4.498.031a.597.597 0 0 0-.313.008l-.203.047-.079.039-.062.047a.692.692 0 0 0-.171.163 1.067 1.067 0 0 0-.156.272 25.363 25.363 0 0 1-1.672 3.5c-.385.643-.739 1.2-1.062 1.672-.323.472-.594.82-.812 1.042a5.671 5.671 0 0 1-.594.537c-.177.135-.312.192-.406.17a7.73 7.73 0 0 1-.266-.061 1.036 1.036 0 0 1-.35-.382 1.701 1.701 0 0 1-.18-.606 6.635 6.635 0 0 1-.055-.63c-.005-.176-.003-.426.008-.747.01-.322.015-.54.015-.653 0-.394.008-.822.024-1.284.015-.461.028-.827.039-1.096.01-.27.015-.555.015-.856 0-.3-.018-.536-.054-.707a2.415 2.415 0 0 0-.164-.498.839.839 0 0 0-.32-.374 1.808 1.808 0 0 0-.523-.21C15.99.08 15.287.013 14.432.002c-1.936-.02-3.18.104-3.732.374-.219.114-.417.27-.594.466-.187.228-.213.353-.078.373.625.094 1.067.317 1.327.67l.094.186c.073.135.146.373.22.716.072.342.119.72.14 1.135.052.757.052 1.405 0 1.944-.052.54-.102.96-.149 1.26a2.53 2.53 0 0 1-.398 1.073.269.269 0 0 1-.078.078 1.174 1.174 0 0 1-.422.078c-.146 0-.323-.073-.531-.218a3.74 3.74 0 0 1-.648-.599 8.007 8.007 0 0 1-.758-1.065 18.57 18.57 0 0 1-.875-1.618l-.25-.451c-.156-.29-.369-.713-.64-1.268-.27-.555-.51-1.091-.718-1.61a1.026 1.026 0 0 0-.375-.498L5.889.982a1.07 1.07 0 0 0-.25-.133 1.663 1.663 0 0 0-.36-.1L1 .778c-.436 0-.733.1-.89.296l-.062.093a.501.501 0 0 0-.047.25c0 .113.031.253.094.42a51.243 51.243 0 0 0 2.038 4.23c.734 1.359 1.372 2.453 1.913 3.282.542.83 1.094 1.613 1.656 2.349.562.736.935 1.208 1.117 1.415.182.208.325.363.43.467l.39.373c.25.25.617.547 1.101.895a18.7 18.7 0 0 0 1.609 1.027 8.747 8.747 0 0 0 2.054.824 7.129 7.129 0 0 0 2.28.257h1.797c.364-.032.64-.146.828-.343l.062-.078a1.03 1.03 0 0 0 .117-.287c.037-.13.055-.272.055-.428a5.08 5.08 0 0 1 .101-1.205c.078-.358.167-.627.266-.809.099-.181.211-.335.335-.459.125-.124.214-.2.267-.225.051-.026.093-.044.124-.055.25-.083.544-.002.883.242.338.243.656.544.953.902.297.358.653.76 1.07 1.205.416.446.78.778 1.093.996l.312.186c.209.125.48.24.813.343.332.103.624.13.874.078l3.999-.063c.395 0 .703-.065.921-.194.219-.13.349-.273.39-.428a1.2 1.2 0 0 0 .009-.529 1.951 1.951 0 0 0-.11-.412z" fill="#C4C4C4"/></svg>