<svg width="16" height="16" viewBox="0 0 16 16" fill="none" xmlns="http://www.w3.org/2000/svg"><path d="M0 .764h16v14.79H0z"/><path d="M0 .764h16v14.79H0z"/><path d="M11.748 12.174c-.766 0-1.39-.626-1.39-1.395V8.463c0-.77.624-1.395 1.39-1.395h3.623c.022 0 .044 0 .066.002V4.762c0-.593-.48-1.075-1.072-1.075H1.072C.48 3.687 0 4.168 0 4.762v9.718c0 .594.48 1.075 1.072 1.075h13.293c.592 0 1.072-.481 1.072-1.075v-2.308a1.42 1.42 0 0 1-.066.002h-3.623z" fill="#7C8287"/><path d="M15.371 7.833h-3.623a.63.63 0 0 0-.628.63v2.316c0 .348.281.63.628.63h3.623a.63.63 0 0 0 .629-.63V8.463a.63.63 0 0 0-.629-.63zm-2.374 2.698a.909.909 0 0 1-.907-.91c0-.502.406-.91.907-.91a.91.91 0 0 1 0 1.82zm-.499-8.814a1.383 1.383 0 0 0-1.749-.883L5.302 2.64h7.5l-.304-.922z" fill="#7C8287"/></svg>