<svg width="32" height="33" viewBox="0 0 32 33" fill="none" xmlns="http://www.w3.org/2000/svg"><path d="M0 0h32v33H0z"/><path d="M0 0h32v33H0z"/><path d="M32 15.373h-1.55V8.089c0-1.746-1.392-3.166-3.103-3.166h-2.1L23.097.977A1.855 1.855 0 0 0 21.47 0c-.315 0-.628.083-.904.24l-8.25 4.683H3.103C1.392 4.923 0 6.343 0 8.089v21.744C0 31.58 1.391 33 3.102 33h24.245c1.71 0 3.102-1.42 3.102-3.167v-6.385H32v-8.075zm-4.653-9.184c.956 0 1.736.741 1.84 1.69h-2.33l-.92-1.69h1.41zM21.17 1.346a.625.625 0 0 1 .843.246l3.424 6.286H9.664L21.17 1.346zm8.038 28.487c0 1.048-.835 1.9-1.86 1.9H3.101c-1.026 0-1.861-.852-1.861-1.9V8.09c0-1.047.835-1.9 1.86-1.9h6.985L7.11 7.88H3.49a.627.627 0 0 0-.62.633c0 .35.276.633.62.633h25.718v6.228h-4.536c-2.107 0-3.822 1.75-3.822 3.902v.272c0 2.15 1.715 3.901 3.822 3.901h4.536v6.385zm1.551-7.652h-6.087c-1.423 0-2.581-1.182-2.581-2.635v-.272c0-1.453 1.157-2.635 2.58-2.635h6.089v5.542zm-4.187-2.719c0 .773-.613 1.398-1.37 1.398-.757 0-1.37-.625-1.37-1.398 0-.773.613-1.398 1.37-1.398.757 0 1.37.626 1.37 1.398z" fill="#7C8287"/></svg>