<svg width="39" height="38" viewBox="0 0 39 38" fill="none" xmlns="http://www.w3.org/2000/svg"><path d="M0 0h39v38H0z"/><path d="M0 0h39v24.896H0z"/><path d="M0 0h39v24.896H0z"/><path d="M36.4 0H2.6C1.168 0 0 1.176 0 2.621v21.62c0 .362.291.655.65.655h37.7c.359 0 .65-.293.65-.655V2.621C39 1.176 37.833 0 36.4 0zm1.3 23.586H1.3V2.621c0-.723.584-1.31 1.3-1.31h33.8c.716 0 1.3.587 1.3 1.31v20.965z" fill="#fff"/><path d="M0 23.586h39v6.552H0z"/><path d="M0 23.586h39v6.552H0z"/><path d="M38.35 23.586H.65a.653.653 0 0 0-.65.655v3.276c0 1.445 1.167 2.62 2.6 2.62h33.8c1.433 0 2.6-1.175 2.6-2.62V24.24a.653.653 0 0 0-.65-.655zm-.65 3.93c0 .724-.584 1.312-1.3 1.312H2.6c-.716 0-1.3-.588-1.3-1.311v-2.62h36.4v2.62z" fill="#fff"/><path d="M16.9 26.207h5.2v1.31h-5.2z"/><path d="M16.9 26.207h5.2v1.31h-5.2z"/><path d="M21.45 26.207h-3.9a.653.653 0 0 0-.65.655c0 .362.291.655.65.655h3.9c.359 0 .65-.293.65-.655a.653.653 0 0 0-.65-.655z" fill="#fff"/><path d="M2.6 2.62h33.8v22.277H2.6z"/><path d="M2.6 2.62h33.8v22.277H2.6z"/><path d="M35.75 2.62H3.25a.653.653 0 0 0-.65.656V24.24c0 .362.291.655.65.655h32.5c.359 0 .65-.293.65-.655V3.276a.653.653 0 0 0-.65-.655zm-.65 20.966H3.9V3.931h31.2v19.655z" fill="#fff"/><path d="M9.1 34.069h20.8V38H9.1z"/><path d="M9.1 34.069h20.8V38H9.1z"/><path d="M27.95 34.069h-16.9a1.96 1.96 0 0 0-1.95 1.965A1.96 1.96 0 0 0 11.05 38h16.9a1.96 1.96 0 0 0 1.95-1.965 1.96 1.96 0 0 0-1.95-1.966zm0 2.62h-16.9a.653.653 0 0 1-.65-.654c0-.361.291-.656.65-.656h16.9c.359 0 .65.294.65.656a.653.653 0 0 1-.65.655z" fill="#fff"/><path d="M11.7 28.828h15.6v6.552H11.7z"/><path d="M11.7 28.828h15.6v6.552H11.7z"/><path d="M26.65 34.069c-2.157 0-3.25-1.543-3.25-4.586a.653.653 0 0 0-.65-.655h-6.5a.653.653 0 0 0-.65.655c0 3.043-1.093 4.586-3.25 4.586a.653.653 0 0 0-.65.655c0 .362.291.655.65.655h14.3c.359 0 .65-.293.65-.655a.653.653 0 0 0-.65-.655zm-11.134 0c.8-.894 1.272-2.224 1.366-3.931h5.236c.094 1.707.566 3.037 1.367 3.931h-7.969z" fill="#fff"/><path d="M22.754 13.758h8.496v8.518h-8.496z"/><path d="M22.754 13.758h8.496v8.518h-8.496z"/><path d="M31.06 19.304l-1.57-1.581.874-.88a.66.66 0 0 0-.273-1.091l-6.5-1.966a.646.646 0 0 0-.646.165.657.657 0 0 0-.163.65l1.95 6.553a.652.652 0 0 0 .463.447.656.656 0 0 0 .62-.172l.918-.927 1.57 1.582a.646.646 0 0 0 .918 0l1.839-1.854a.658.658 0 0 0 0-.926zm-2.298 1.39l-1.429-1.44a.842.842 0 0 0-1.2-.001l-.469.473-1.29-4.335 4.3 1.3-.502.507a.74.74 0 0 0-.215.524c0 .199.077.386.216.525l1.508 1.52-.92.927z" fill="#fff"/><path d="M8.45 5.241h19.5v4.586H8.45z"/><path d="M8.45 5.241h19.5v4.586H8.45z"/><path d="M27.3 5.241H9.1a.653.653 0 0 0-.65.656v3.275c0 .362.291.656.65.656h18.2c.359 0 .65-.294.65-.656V5.897a.653.653 0 0 0-.65-.656zm-.65 3.276H9.75V6.552h16.9v1.965z" fill="#fff"/><path d="M11.05 12.448h6.5v3.931h-6.5z"/><path d="M11.05 12.448h6.5v3.931h-6.5z"/><path d="M16.9 12.448h-5.2a.653.653 0 0 0-.65.655v2.621c0 .362.291.655.65.655h5.2c.359 0 .65-.293.65-.655v-2.62a.653.653 0 0 0-.65-.656zm-.65 2.621h-3.9v-1.31h3.9v1.31z" fill="#fff"/><path d="M8.45 5.241h19.5V19H8.45z"/><path d="M8.45 5.241h19.5V19H8.45z"/><path d="M27.3 5.241H9.1a.653.653 0 0 0-.65.656v12.448c0 .361.291.655.65.655h15.474a.646.646 0 0 0 .521-.264.66.66 0 0 0 .102-.58l-.823-2.765 2.74.829c.197.06.41.021.574-.103a.655.655 0 0 0 .262-.525V5.897a.653.653 0 0 0-.65-.656zm-.65 9.47l-3.06-.925a.645.645 0 0 0-.646.165.658.658 0 0 0-.163.652l.92 3.087H9.75V6.552h16.9v8.16z" fill="#fff"/></svg>