<svg width="1440" height="524" viewBox="0 0 1440 524" xmlns="http://www.w3.org/2000/svg" xmlns:xlink="http://www.w3.org/1999/xlink"><title>Rectangle Copy 7 + Rectangle + Rectangle Copy 10 Mask</title><defs><path id="a" d="M0 0h1440v525H0z"/><linearGradient x1="62.962%" y1="34.244%" x2="14.419%" y2="156.965%" id="b"><stop stop-color="#6A5BE8" offset="0%"/><stop stop-color="#5E51C9" offset="100%"/></linearGradient></defs><g fill="none" fill-rule="evenodd"><mask id="c" fill="#fff"><use xlink:href="#a"/></mask><use fill="#5E51C9" fill-rule="nonzero" xlink:href="#a"/><path d="M741.6 245.837l696.862-323.171c105.373-48.867 230.628-3.528 279.764 101.267 49.136 104.796 3.547 229.363-101.826 278.23L919.538 625.334c-105.373 48.867-230.628 3.528-279.764-101.267-49.136-104.796-3.547-229.363 101.826-278.23z" fill="url(#b)" fill-rule="nonzero" mask="url(#c)"/><path d="M169.607 69.594l1680.837-779.916c105.38-48.897 230.641-3.53 279.78 101.329 49.14 104.859 3.548 229.502-101.831 278.4L347.556 449.321c-105.38 48.897-230.641 3.53-279.78-101.329-49.14-104.859-3.548-229.502 101.831-278.4z" fill="url(#b)" fill-rule="nonzero" mask="url(#c)"/><path d="M1346.6-309.163l696.862-323.171c105.373-48.867 230.628-3.528 279.764 101.267 49.136 104.796 3.547 229.363-101.826 278.23L1524.538 70.334c-105.373 48.867-230.628 3.528-279.764-101.267-49.136-104.796-3.547-229.363 101.826-278.23z" fill="url(#b)" fill-rule="nonzero" mask="url(#c)"/></g></svg>