<svg width="54" height="59" viewBox="0 0 54 59" xmlns="http://www.w3.org/2000/svg"><title>Group 10</title><g fill="none" fill-rule="evenodd"><text font-family="OpenSans-Bold, Open Sans" font-size="18" font-weight="bold" fill="#2A282F" transform="translate(-4 -5)"><tspan x="19" y="41">¥$</tspan></text><path d="M40.576 9.242A24.889 24.889 0 0 0 25.32 5.26c-7.593.505-14.863 4.458-19.327 11.332a24.892 24.892 0 0 0-3.926 11.246c-.235 2.49-.093 4.99.407 7.417M40.576 2L42 10m-8 2l8-2" stroke="#0AB386" stroke-linecap="round" stroke-width="4"/><path d="M13.424 49.758A24.889 24.889 0 0 0 28.68 53.74c7.593-.505 14.863-4.458 19.327-11.332a24.892 24.892 0 0 0 3.926-11.246c.235-2.49.093-4.99-.407-7.417M13.424 57L12 49m8-2l-8 2" stroke="#9A8DFF" stroke-linecap="round" stroke-width="4"/></g></svg>