<svg width="73" height="55" viewBox="0 0 73 55" xmlns="http://www.w3.org/2000/svg" xmlns:xlink="http://www.w3.org/1999/xlink"><title>Group 4</title><defs><path d="M12.493 4.822H8.85c.032.547.081.852.228 1.672l3.347-.049c1.126 0 1.502-.032 1.992-.112l.032 1.832a21.28 21.28 0 0 0-1.6-.08h-.424l-2.922.032c.391 1.11.93 2.025 1.697 2.829.474.498 1.176.98 1.453.98.262 0 .425-.562.62-2.218.605.45.948.66 1.568.949-.36 2.346-.898 3.263-1.926 3.263-1.062 0-2.417-.9-3.527-2.331A10.987 10.987 0 0 1 7.64 8.133l-4.097.032v3.44c1.828-.386 2.726-.595 4.538-1.109V12.2a49.817 49.817 0 0 1-5.077 1.27c-.49.096-1.11.209-1.371.273-.262.048-.262.048-.67.128-.277.065-.343.08-.571.129L0 12.103c.44 0 .784-.048 1.73-.176V1.945c0-.852-.031-1.382-.08-1.945.588.064 1.012.08 1.975.08h7.82c.85 0 1.29-.016 1.829-.08-.065.418-.065.74-.065 1.543v1.849c0 .69.016 1.109.065 1.478-.539-.032-.029-.048-.78-.048zm-5.424 0H3.543v1.704l3.738-.032c-.065-.338-.13-.9-.212-1.672zM3.543 1.639v1.656h7.918V1.64H3.543zm20.624 9.38h-2.16v1.663h-2.408v-1.664h-2.16V9.715h2.16V8.648h-2.16V7.345h1.554l-3.404-5.988h2.607l2.575 4.81h.071l2.551-4.81H26l-3.388 5.988h1.555v1.303h-2.16v1.067h2.16v1.303z" id="a"/></defs><g fill="none" fill-rule="evenodd"><path d="M26.551 6.918L36.037.096c5 .942 8.443 2.549 10.329 4.82 0 3.386 1.349 7.913 4.047 13.58 4.335 1.854 6.947 4.238 7.834 7.153 0 2.517-1.407 6.006-4.22 10.468l-27.476-5.17V6.916z" fill="#9A8DFF" fill-rule="nonzero"/><text font-family="OpenSans-Bold, Open Sans" font-size="18" font-weight="bold" fill="#2A282F" transform="translate(2 -9)"><tspan x="12" y="40">A$</tspan></text><g transform="translate(47 5)"><mask id="b" fill="#fff"><use xlink:href="#a"/></mask><use fill="#2A282F" xlink:href="#a"/><ellipse fill="#FFF" fill-rule="nonzero" mask="url(#b)" cx="-12.5" cy="17" rx="22.5" ry="20"/></g><path d="M26.5 45.456c13.531 0 24.5-9.056 24.5-20.228C51 14.056 40.031 5 26.5 5S2 14.056 2 25.228c0 6.336 3.528 11.991 9.05 15.7 1.904 1.279-2.314 11.236 0 12 2.812.928 12.238-7.472 15.45-7.472z" stroke="#0AB386" stroke-width="4"/></g></svg>