<svg width="296" height="54" viewBox="0 0 296 54" xmlns="http://www.w3.org/2000/svg"><title>platmart_logo_hor_light</title><g fill="#FFF" fill-rule="evenodd"><path d="M16.415 13.55h-1.943v6.368h1.943c2.305 0 4.208-.365 4.208-2.562V16.15c0-2.234-1.903-2.599-4.208-2.599z"/><path d="M0 0v53.282h2.162c.283 0 .56-.087.793-.248l9.501-6.595a1.39 1.39 0 0 1 .794-.248h.86c.284 0 .56.086.794.248l9.5 6.595c.233.161.51.248.794.248h.86a1.4 1.4 0 0 0 .794-.248l9.5-6.595a1.39 1.39 0 0 1 .794-.248h.86c.284 0 .56.086.794.248l9.5 6.595a1.4 1.4 0 0 0 .794.248h2.162V0H0zm27.029 18.674c0 4.795-4.063 6.442-10.542 6.442h-2.015v8.015a41.55 41.55 0 0 1-6.406 0V8.206h8.421c6.479 0 10.542 1.683 10.542 6.552v3.916zm73.334 4.788c0 7.411-6.28 9.957-16.293 9.957h-3.115v12.388a64.244 64.244 0 0 1-9.9 0V7.283H84.07c10.013 0 16.293 2.603 16.293 10.127v6.052zm-9.9-3.902c0-3.452-2.941-4.016-6.505-4.016h-3.003v9.841h3.003c3.564 0 6.505-.564 6.505-3.959V19.56z" fill-rule="nonzero"/><path d="M104.58 5.304a56.693 56.693 0 0 1 9.787 0v40.503a56.69 56.69 0 0 1-9.787 0V5.304z"/><path d="M137.985 41.678h-.397c-.848 3.45-4.298 4.809-8.711 4.809-5.318 0-9.391-2.377-9.391-8.486 0-8.09 4.356-9.787 10.522-9.787 2.517-.008 5.03.162 7.523.51v-1.3c0-2.66-1.696-4.187-7.296-4.187a51.54 51.54 0 0 0-8.316.791 32.86 32.86 0 0 1 0-7.466 58.799 58.799 0 0 1 11.37-1.018c9.221 0 14.03 2.375 14.03 9.955v20.59c-2.935.284-5.89.284-8.825 0l-.509-4.411zm-.454-7.411a19.936 19.936 0 0 0-4.073-.51c-2.659 0-4.186.341-4.186 2.943 0 2.489 1.527 2.771 3.452 2.771 2.126 0 3.653-.599 4.627-2.174.12-.202.182-.433.18-.668v-2.362z" fill-rule="nonzero"/><path d="M164.98 23.69v9.502c0 4.809 1.81 5.092 3.79 5.092a19.227 19.227 0 0 0 3.111-.283 37.156 37.156 0 0 1 0 7.92 28.088 28.088 0 0 1-5.883.566c-5.714 0-10.805-2.264-10.805-9.844V23.69h-3.846a29.023 29.023 0 0 1 0-7.015l3.846-.282V9.094a56.676 56.676 0 0 1 9.786 0v7.128h6.902a33.044 33.044 0 0 1 0 7.467h-6.902zm40.919.677l-5.827 11.088a33.367 33.367 0 0 1-6.732 0l-5.883-11.2v21.552a72.058 72.058 0 0 1-9.9 0V7.283a79.302 79.302 0 0 1 10.352 0l8.825 17.084 8.825-17.084a77.726 77.726 0 0 1 10.238 0v38.524a72.036 72.036 0 0 1-9.898 0v-21.44z"/><path d="M239.413 41.678h-.395c-.85 3.45-4.3 4.809-8.712 4.809-5.318 0-9.39-2.377-9.39-8.486 0-8.09 4.355-9.787 10.52-9.787a53.098 53.098 0 0 1 7.525.51v-1.3c0-2.66-1.698-4.187-7.298-4.187a51.61 51.61 0 0 0-8.315.791 33.033 33.033 0 0 1 0-7.466 58.809 58.809 0 0 1 11.37-1.018c9.22 0 14.03 2.375 14.03 9.955v20.59c-2.936.284-5.89.284-8.826 0l-.509-4.411zm-.452-7.411a19.936 19.936 0 0 0-4.073-.51c-2.659 0-4.186.341-4.186 2.943 0 2.489 1.527 2.771 3.45 2.771 2.127 0 3.654-.599 4.629-2.174.12-.202.182-.433.18-.668v-2.362z" fill-rule="nonzero"/><path d="M255.367 16.108a76.041 76.041 0 0 1 8.77 0l.564 4.98h.397c.904-3.905 4.525-5.544 9.843-5.544a51.89 51.89 0 0 1 0 8.37c-6.305 0-8.146 1.223-9.643 5.004a4.996 4.996 0 0 0-.143 1.671v15.218a56.69 56.69 0 0 1-9.788 0V16.108zm32.959 7.582v9.502c0 4.809 1.811 5.092 3.79 5.092a19.227 19.227 0 0 0 3.112-.283 37.156 37.156 0 0 1 0 7.92 28.088 28.088 0 0 1-5.884.566c-5.713 0-10.804-2.264-10.804-9.844V9.095a56.676 56.676 0 0 1 9.786 0v7.128h6.902a33.044 33.044 0 0 1 0 7.467h-6.902z"/></g></svg>