<svg width="320" height="550" viewBox="0 0 320 550" xmlns="http://www.w3.org/2000/svg"><title>Rectangle Copy 7</title><defs><linearGradient x1="62.962%" y1="34.244%" x2="14.419%" y2="156.965%" id="a"><stop stop-color="#6A5BE8" offset="0%"/><stop stop-color="#5E51C9" offset="100%"/></linearGradient></defs><g fill="none"><path fill="#5E51C9" d="M-908-4.18L511.26-665.799l371.363 796.155-1419.26 661.618z"/><path d="M744.777 938.517l531.685-246.516c80.396-37.276 175.961-2.691 213.45 77.247 37.49 79.938 2.707 174.96-77.689 212.235l-531.685 246.516c-80.396 37.276-175.961 2.69-213.45-77.247-37.49-79.938-2.707-174.96 77.689-212.235z" fill="url(#a)" transform="translate(-908 -666)"/><path d="M1106.739 641.532L2388.556 47c80.363-37.274 175.89-2.69 213.363 77.244 37.474 79.934 2.706 174.95-77.658 212.224L1242.444 931c-80.363 37.274-175.89 2.69-213.363-77.244-37.474-79.934-2.706-174.95 77.658-212.224z" fill="url(#a)" transform="translate(-908 -666)"/><path d="M1038.777 907.517l531.685-246.516c80.396-37.276 175.961-2.691 213.45 77.247 37.49 79.938 2.707 174.96-77.689 212.235l-531.685 246.516c-80.396 37.276-175.961 2.69-213.45-77.247-37.49-79.938-2.707-174.96 77.689-212.235z" fill="url(#a)" transform="translate(-908 -666)"/></g></svg>