<svg width="1440" height="1015" viewBox="0 0 1440 1015" xmlns="http://www.w3.org/2000/svg"><title>Rectangle Copy 7</title><defs><linearGradient x1="62.962%" y1="34.244%" x2="14.419%" y2="156.965%" id="a"><stop stop-color="#6A5BE8" offset="0%"/><stop stop-color="#5E51C9" offset="100%"/></linearGradient></defs><g fill="none"><path fill="#5E51C9" d="M-701 70.635L1159.65-797l486.856 1044.067-1860.65 867.635z"/><path d="M1348.6 1171.837l696.862-323.171c105.373-48.867 230.628-3.528 279.764 101.267 49.136 104.796 3.547 229.363-101.826 278.23l-696.862 323.171c-105.373 48.867-230.628 3.528-279.764-101.267-49.136-104.796-3.547-229.363 101.826-278.23z" fill="url(#a)" transform="translate(-701 -797)"/><path d="M776.607 1005.594l1680.837-779.916c105.38-48.897 230.641-3.53 279.78 101.329 49.14 104.859 3.548 229.502-101.831 278.4L954.556 1385.321c-105.38 48.897-230.641 3.53-279.78-101.329-49.14-104.859-3.548-229.502 101.831-278.4z" fill="url(#a)" transform="translate(-701 -797)"/><path d="M1748.6 743.837l696.862-323.171c105.373-48.867 230.628-3.528 279.764 101.267 49.136 104.796 3.547 229.363-101.826 278.23l-696.862 323.171c-105.373 48.867-230.628 3.528-279.764-101.267-49.136-104.796-3.547-229.363 101.826-278.23z" fill="url(#a)" transform="translate(-701 -797)"/></g></svg>