<svg width="2074" height="2074" viewBox="0 0 2074 2074" xmlns="http://www.w3.org/2000/svg"><title>line_v2</title><g stroke="#F4F4F4" fill="none" fill-rule="evenodd" stroke-dasharray="6,4"><path d="M1037 1437c220.914 0 400-179.086 400-400s-179.086-400-400-400-400 179.086-400 400 179.086 400 400 400z" opacity=".2"/><path d="M1037 1477c243.005 0 440-196.995 440-440s-196.995-440-440-440-440 196.995-440 440 196.995 440 440 440z" opacity=".2"/><path d="M1037 1521c267.306 0 484-216.694 484-484 0-267.306-216.694-484-484-484-267.306 0-484 216.694-484 484 0 267.306 216.694 484 484 484z" opacity=".2"/><path d="M1037 1569c293.815 0 532-238.185 532-532s-238.185-532-532-532-532 238.185-532 532 238.185 532 532 532z" opacity=".2"/><path d="M1037 1622c323.087 0 585-261.913 585-585s-261.913-585-585-585-585 261.913-585 585 261.913 585 585 585z" opacity=".2"/><path d="M1037 1681c355.671 0 644-288.329 644-644s-288.329-644-644-644-644 288.329-644 644 288.329 644 644 644z" opacity=".2"/><path d="M1037 1745c391.018 0 708-316.982 708-708s-316.982-708-708-708-708 316.982-708 708 316.982 708 708 708z" opacity=".2"/><path d="M1037 1815c429.678 0 778-348.322 778-778s-348.322-778-778-778-778 348.322-778 778 348.322 778 778 778z" opacity=".2"/><path d="M1037 1893c472.756 0 856-383.244 856-856s-383.244-856-856-856-856 383.244-856 856 383.244 856 856 856z" opacity=".2"/><path d="M1037 1979c520.252 0 942-421.748 942-942S1557.252 95 1037 95 95 516.748 95 1037s421.748 942 942 942z" opacity=".2"/><path d="M1037 2073c572.167 0 1036-463.833 1036-1036C2073 464.833 1609.167 1 1037 1 464.833 1 1 464.833 1 1037c0 572.167 463.833 1036 1036 1036z" opacity=".2"/></g></svg>