<svg xmlns="http://www.w3.org/2000/svg" width="148" height="73" viewBox="0 0 148 73"><defs><linearGradient id="a" x1="60.153%" x2="14.841%" y1="56.089%" y2="137.031%"><stop offset="0%" stop-color="#9924EB"/><stop offset="100%" stop-color="#3902D4"/></linearGradient></defs><g fill="none" fill-rule="evenodd"><g stroke-linejoin="round"><path stroke="#FFF" stroke-dasharray="5" d="M74 117c24.3 0 44-19.7 44-44S98.3 29 74 29 30 48.7 30 73s19.7 44 44 44z" opacity=".2"/><path stroke="#FFAD00" stroke-linecap="round" stroke-width="2" d="M116.5 61.612c-6.289-23.473-30.416-37.402-53.888-31.113-23.473 6.29-37.402 30.417-31.113 53.889 6.29 23.473 30.417 37.402 53.889 31.113"/><path stroke="#FFF" stroke-dasharray="5" d="M74 143c40.317 0 73-31.788 73-71S114.317 1 74 1 1 32.788 1 72s32.683 71 73 71z" opacity=".2"/></g><g transform="rotate(-25 87.461 -37.4)"><path fill="url(#a)" d="M17.846 34.379a27.01 27.01 0 0 1 13.76-3.742c5.112 0 9.894 1.413 13.976 3.871l7.882-30.323A5.372 5.372 0 0 1 59.42.218a5.035 5.035 0 0 1 4.303 5.452L58.74 59.027l-.018.003c-.527 14.523-12.466 26.134-27.117 26.134-14.652 0-26.591-11.611-27.118-26.134l-.018-.003L.754 8.832a5.132 5.132 0 0 1 4.394-5.46 5.327 5.327 0 0 1 5.916 3.977l6.782 27.03z"/><ellipse cx="31.733" cy="56.771" fill="#FFC346" rx="22" ry="21.5"/><circle cx="31.279" cy="56.56" r="16.5" fill="#FFAD00"/><path fill="#A322FF" d="M31.533 28.428a8.635 8.635 0 0 1 8.491-7.009l.211.003a7.14 7.14 0 0 1 6.754 8.823L44.007 42.53a7.195 7.195 0 0 1-6.992 5.497 5.65 5.65 0 0 1-5.48-4.275 5.654 5.654 0 0 1-5.474 4.275h-.008a7.195 7.195 0 0 1-6.991-5.497l-2.984-12.284a7.14 7.14 0 0 1 6.755-8.824 8.635 8.635 0 0 1 8.701 7.007zm3.854 30.187a5.909 5.909 0 0 1 7.07-2.669c10.234 3.539 14.825 2.111 13.773-4.282-.016-.096 1.17 4.705.449 10.005-.808 5.938-3.66 12.467-6.286 12.733-2.52.256-7.057-2.39-13.61-7.938a6.248 6.248 0 0 1-1.396-7.85z"/></g></g></svg>