<svg xmlns="http://www.w3.org/2000/svg" xmlns:xlink="http://www.w3.org/1999/xlink" width="1440" height="900" viewBox="0 0 1440 900"><defs><path id="a" d="M830.618 1212c-67.997 0-122.241-26.708-163.497-80.124C626.628 1077.697 606 1012.072 606 935s20.628-141.934 61.12-196.113C708.378 684.708 762.622 658 830.619 658s123.005 26.708 163.497 80.887C1035.372 793.067 1056 857.928 1056 935s-20.628 142.697-61.885 196.876c-40.492 53.416-95.5 80.124-163.497 80.124zm-.501-79c42.181 0 76.693-19.135 102.77-57.404C958.961 1037.326 972 989.873 972 934c0-55.873-13.038-103.327-39.114-141.596C906.81 754.134 872.298 735 830.116 735c-42.181 0-75.926 19.135-102.002 58.17C702.038 831.437 689 878.126 689 934c0 55.873 13.038 102.562 39.114 141.596 26.076 38.27 59.821 57.404 102.003 57.404z"/><path id="b" d="M360.559 536h-82.676L278 396H0v-71L278 0h83v324h83v72h-83z"/><path id="c" d="M277 108L92 324h185z"/><path id="d" d="M360.559 536h-82.676L278 396H0v-72L278 0h83v324h83v72h-83z"/><path id="e" d="M277 108L92 324h185z"/><path id="f" d="M1096.666 1540.091c-148.535 0-267.03-58.342-357.152-175.026C651.061 1246.714 606 1103.359 606 935c0-168.359 45.061-310.047 133.514-428.398 90.123-118.351 208.617-176.693 357.152-176.693 148.534 0 268.697 58.342 357.15 176.693C1543.94 624.953 1589 766.642 1589 935c0 168.359-45.061 311.714-135.183 430.065-88.454 116.684-208.617 175.026-357.151 175.026z"/><path id="g" d="M1266.017 1540.091c-174.978 0-314.567-58.342-420.733-175.026C741.084 1246.714 688 1103.359 688 935c0-168.359 53.083-310.047 157.284-428.398C951.45 388.251 1091.039 329.91 1266.017 329.91s316.533 58.342 420.733 176.693C1792.917 624.953 1846 766.642 1846 935c0 168.359-53.083 311.714-159.25 430.065-104.2 116.684-245.755 175.026-420.733 175.026z"/><path id="h" d="M829.017 1212.182c-174.978 0-314.567-58.342-420.733-175.026C304.084 918.805 251 775.45 251 607.09c0-168.359 53.083-310.047 157.284-428.398C514.45 60.343 654.039 2 829.017 2s316.533 58.342 420.733 176.693C1355.917 297.044 1409 438.733 1409 607.091c0 168.359-53.083 311.714-159.25 430.065-104.2 116.684-245.755 175.026-420.733 175.026z"/><path id="i" d="M829.017 1868.182c-174.978 0-314.567-58.342-420.733-175.026C304.084 1574.805 251 1431.45 251 1263.09c0-168.359 53.083-310.047 157.284-428.398C514.45 716.343 654.039 658 829.017 658s316.533 58.342 420.733 176.693c106.167 118.351 159.25 260.04 159.25 428.398 0 168.359-53.083 311.714-159.25 430.065-104.2 116.684-245.755 175.026-420.733 175.026z"/><path id="j" d="M828.87 1959.091c-201.27 0-361.834-67.107-483.953-201.322C225.059 1621.637 164 1456.744 164 1263.09c0-193.653 61.06-356.628 180.917-492.76 122.119-136.132 282.682-203.24 483.952-203.24 201.27 0 364.095 67.108 483.953 203.24C1434.94 906.463 1496 1069.438 1496 1263.09c0 193.653-61.06 358.546-183.178 494.678-119.858 134.215-282.683 201.322-483.953 201.322z"/><path id="k" d="M829.175 1868.182c-146.873 0-264.04-54.67-353.155-164.008-87.463-110.9-132.02-245.231-132.02-402.992 0-157.76 44.557-290.529 132.02-401.43 89.114-110.9 206.282-165.57 353.155-165.57 146.873 0 265.69 54.67 353.154 165.57 89.114 110.901 133.671 243.67 133.671 401.43 0 157.76-44.557 292.091-133.67 402.992-87.464 109.339-206.282 164.008-353.155 164.008z"/><path id="l" d="M829.175 1134c-146.873 0-264.04-54.67-353.155-164.008C388.557 859.09 344 724.76 344 567c0-157.76 44.557-290.529 132.02-401.43C565.134 54.67 682.302 0 829.175 0c146.873 0 265.69 54.67 353.154 165.57C1271.443 276.471 1316 409.24 1316 567c0 157.76-44.557 292.09-133.67 402.992C1094.865 1079.33 976.047 1134 829.174 1134z"/><path id="m" d="M484.683 1551.392c144.878 0 263.415-59.364 352.976-178.094C927.219 1254.57 972 1107.345 972 934c0-173.345-44.78-320.569-134.341-439.298-89.561-118.73-208.098-178.094-352.976-178.094s-260.78 59.364-350.342 180.468C44.781 615.806 0 760.656 0 934c0 173.345 44.78 318.194 134.341 439.298 89.561 118.73 205.464 178.094 350.342 178.094z"/><path id="n" d="M573.696 1551.392c143.388 0 260.705-59.364 349.345-178.094C1011.68 1254.57 1056 1107.345 1056 934c0-173.345-44.32-320.569-132.96-439.298-88.639-118.73-205.956-178.094-349.344-178.094-143.387 0-258.097 59.364-346.737 180.468C138.32 615.806 94 760.656 94 934c0 173.345 44.32 318.194 132.96 439.298 88.639 118.73 203.349 178.094 346.736 178.094z"/><mask id="o" width="450" height="554" x="0" y="0" fill="#fff"><use xlink:href="#a"/></mask><mask id="p" width="444" height="536" x="0" y="0" fill="#fff"><use xlink:href="#b"/></mask><mask id="q" width="185" height="216" x="0" y="0" fill="#fff"><use xlink:href="#c"/></mask><mask id="r" width="444" height="536" x="0" y="0" fill="#fff"><use xlink:href="#d"/></mask><mask id="s" width="185" height="216" x="0" y="0" fill="#fff"><use xlink:href="#e"/></mask><mask id="t" width="983" height="1210.182" x="0" y="0" fill="#fff"><use xlink:href="#f"/></mask><mask id="u" width="1158" height="1210.182" x="0" y="0" fill="#fff"><use xlink:href="#g"/></mask><mask id="v" width="1158" height="1210.182" x="0" y="0" fill="#fff"><use xlink:href="#h"/></mask><mask id="w" width="1158" height="1210.182" x="0" y="0" fill="#fff"><use xlink:href="#i"/></mask><mask id="x" width="1332" height="1392" x="0" y="0" fill="#fff"><use xlink:href="#j"/></mask><mask id="y" width="972" height="1134" x="0" y="0" fill="#fff"><use xlink:href="#k"/></mask><mask id="z" width="972" height="1134" x="0" y="0" fill="#fff"><use xlink:href="#l"/></mask><mask id="A" width="972" height="1234.784" x="0" y="0" fill="#fff"><use xlink:href="#m"/></mask><mask id="B" width="962" height="1234.784" x="0" y="0" fill="#fff"><use xlink:href="#n"/></mask></defs><g fill="none" stroke="#F4F4F4" stroke-dasharray="6 4" stroke-width="2" opacity=".2" transform="translate(-110 -489)"><use mask="url(#o)" xlink:href="#a"/><g transform="translate(94 667)"><use mask="url(#p)" xlink:href="#b"/><use mask="url(#q)" xlink:href="#c"/></g><g transform="translate(1122 667)"><use mask="url(#r)" xlink:href="#d"/><use mask="url(#s)" xlink:href="#e"/></g><use mask="url(#t)" xlink:href="#f"/><use mask="url(#u)" xlink:href="#g"/><use mask="url(#v)" xlink:href="#h"/><use mask="url(#w)" xlink:href="#i"/><use mask="url(#x)" xlink:href="#j"/><use mask="url(#y)" xlink:href="#k"/><use mask="url(#z)" xlink:href="#l"/><use mask="url(#A)" xlink:href="#m"/><use mask="url(#B)" xlink:href="#n"/></g></svg>