<svg xmlns="http://www.w3.org/2000/svg" width="174" height="33" viewBox="0 0 174 33"><defs><linearGradient id="a" x1="50%" x2="50%" y1="0%" y2="100%"><stop offset="0%" stop-color="#FFF"/><stop offset="100%" stop-color="#FFF" stop-opacity=".4"/></linearGradient></defs><g fill="none"><path fill="#FFF" d="M19.968 5.58l10.486 6.254L34.69 9.59 23.798 3.405l-3.83 2.176zm-2 1.136L12.906 9.59l10.891 5.768 4.587-2.429-10.418-6.213zm17.377 4.79l-10.547 5.586v11.915l10.547-5.99v-11.51zm-23.093 0v11.512l10.546 5.989V17.092l-10.546-5.586zm11.546-10.4l13.547 7.692v15.384l-13.547 7.692-13.546-7.692V8.798l13.546-7.693z"/><path fill="url(#a)" d="M26.854 28.902l2.185-1.224c7.728 3.361 14.059 4.15 15.474 2.007 1.386-2.1-1.854-7.377-8.013-12.891v-2.665c7.76 6.542 11.91 13.284 9.682 16.658-2.221 3.363-10.13 2.393-19.328-1.885zm-6.04-24.79L18.716 5.37c-7.8-3.42-14.207-4.234-15.632-2.076C1.705 5.383 4.904 10.616 11 16.1v2.67C3.302 12.252-.804 5.553 1.415 2.193c2.227-3.372 10.17-2.388 19.399 1.919z" opacity=".4"/><path fill="url(#a)" d="M20.897 28.83c-9.264 4.339-17.249 5.34-19.482 1.957C-.804 27.427 3.302 20.727 11 14.21v2.67c-6.096 5.484-9.295 10.717-7.916 12.805 1.422 2.154 7.807 1.347 15.585-2.055l2.228 1.2zm5.73-24.646c9.295-4.368 17.316-5.382 19.555-1.99C48.41 5.566 44.26 12.307 36.5 18.85v-2.665c6.16-5.514 9.399-10.792 8.013-12.89-1.427-2.162-7.848-1.343-15.66 2.087l-2.225-1.199z" opacity=".3"/><path fill="#FFF" d="M60.555 12.5v2.356h-2.147v3.952c0 1.026.741 1.045 2.147.969V22c-3.363.38-4.598-.589-4.598-3.192v-3.952h-1.653V12.5h1.653v-1.919l2.451-.741v2.66h2.147zm4.603 0v1.634c.456-1.216 1.596-1.824 2.888-1.824v2.736c-.74-.095-1.425.057-2.014.456-.589.399-.874 1.045-.874 1.957V22h-2.45v-9.5h2.45zm11.444 1.121V12.5h2.45V22h-2.45v-1.121c-.741.931-1.767 1.387-3.097 1.387-1.273 0-2.356-.475-3.268-1.444-.893-.969-1.35-2.166-1.35-3.572 0-1.406.457-2.584 1.35-3.553.912-.969 1.995-1.463 3.268-1.463 1.33 0 2.356.456 3.097 1.387zm-4.522 5.567c.494.494 1.12.741 1.88.741.76 0 1.388-.247 1.882-.741.513-.513.76-1.159.76-1.938 0-.779-.247-1.425-.76-1.919-.494-.513-1.121-.76-1.881-.76s-1.387.247-1.881.76c-.494.494-.741 1.14-.741 1.919 0 .779.247 1.425.74 1.938zm13.99 3.078c-1.426 0-2.623-.475-3.592-1.444-.95-.969-1.425-2.147-1.425-3.572 0-1.425.475-2.603 1.425-3.572.97-.969 2.166-1.444 3.591-1.444 1.843 0 3.477.95 4.256 2.451l-2.109 1.235c-.38-.779-1.197-1.273-2.166-1.273-1.463 0-2.546 1.083-2.546 2.603 0 .741.247 1.368.722 1.862.475.475 1.083.722 1.824.722.988 0 1.805-.475 2.185-1.254l2.128 1.216c-.836 1.501-2.45 2.47-4.294 2.47zm10.683-5.073L100.686 22h-2.85l-3.458-4.313V22h-2.451V8.7h2.45v7.98l3.269-4.18h2.926l-3.82 4.693z"/><path fill="#F7B500" d="M104.807 15.198c0 .513.76.798 1.73 1.045 1.386.285 3.191.95 3.172 2.983 0 .969-.36 1.729-1.102 2.261-.722.513-1.634.779-2.717.779-1.957 0-3.287-.76-3.99-2.261l2.128-1.197c.285.817.893 1.235 1.862 1.235.874 0 1.311-.266 1.311-.817 0-.513-.76-.798-1.729-1.045-1.406-.361-3.173-.95-3.173-2.926 0-.931.342-1.672 1.026-2.204.703-.551 1.558-.817 2.584-.817 1.54 0 2.87.722 3.61 2.014l-2.09 1.14c-.304-.646-.817-.969-1.52-.969-.627 0-1.102.304-1.102.779zm15.852 3.059h-7.163c.323 1.197 1.216 1.786 2.679 1.786.93 0 1.653-.323 2.128-.95l1.976 1.14c-.931 1.349-2.318 2.033-4.142 2.033-1.577 0-2.831-.475-3.781-1.425-.95-.95-1.425-2.147-1.425-3.591 0-1.425.475-2.622 1.406-3.572.93-.969 2.147-1.444 3.61-1.444 1.387 0 2.546.475 3.439 1.444.912.969 1.368 2.147 1.368 3.572 0 .323-.038.646-.095 1.007zm-7.201-1.9h4.845c-.285-1.292-1.235-1.919-2.356-1.919-1.311 0-2.204.703-2.49 1.919zm16.421-2.736V12.5h2.451V22h-2.451v-1.121c-.741.931-1.767 1.387-3.097 1.387-1.273 0-2.356-.475-3.268-1.444-.893-.969-1.349-2.166-1.349-3.572 0-1.406.456-2.584 1.349-3.553.912-.969 1.995-1.463 3.268-1.463 1.33 0 2.356.456 3.097 1.387zm-4.522 5.567c.494.494 1.121.741 1.881.741s1.387-.247 1.881-.741c.513-.513.76-1.159.76-1.938 0-.779-.247-1.425-.76-1.919-.494-.513-1.121-.76-1.881-.76s-1.387.247-1.881.76c-.494.494-.741 1.14-.741 1.919 0 .779.247 1.425.741 1.938zm13.99 3.078c-1.426 0-2.623-.475-3.592-1.444-.95-.969-1.425-2.147-1.425-3.572 0-1.425.475-2.603 1.425-3.572.97-.969 2.166-1.444 3.591-1.444 1.843 0 3.477.95 4.256 2.451l-2.109 1.235c-.38-.779-1.197-1.273-2.166-1.273-1.463 0-2.546 1.083-2.546 2.603 0 .741.247 1.368.722 1.862.475.475 1.083.722 1.824.722.988 0 1.805-.475 2.185-1.254l2.128 1.216c-.836 1.501-2.45 2.47-4.294 2.47zm11.139-10.032c1.045 0 1.9.342 2.565 1.045.684.703 1.026 1.653 1.026 2.888V22h-2.451v-5.529c0-1.273-.741-1.957-1.881-1.957-1.273 0-2.09.779-2.09 2.356V22h-2.451V8.7h2.45v4.864c.59-.893 1.54-1.33 2.832-1.33zm15.186 6.023h-7.163c.323 1.197 1.216 1.786 2.68 1.786.93 0 1.652-.323 2.127-.95l1.976 1.14c-.93 1.349-2.318 2.033-4.142 2.033-1.577 0-2.83-.475-3.78-1.425-.95-.95-1.426-2.147-1.426-3.591 0-1.425.475-2.622 1.406-3.572.931-.969 2.147-1.444 3.61-1.444 1.387 0 2.546.475 3.44 1.444.911.969 1.367 2.147 1.367 3.572 0 .323-.038.646-.095 1.007zm-7.2-1.9h4.844c-.285-1.292-1.235-1.919-2.356-1.919-1.31 0-2.204.703-2.489 1.919zM170.2 12.5v1.634c.456-1.216 1.596-1.824 2.888-1.824v2.736c-.741-.095-1.425.057-2.014.456-.59.399-.874 1.045-.874 1.957V22h-2.451v-9.5h2.45z"/></g></svg>