<svg xmlns="http://www.w3.org/2000/svg" width="115" height="27" viewBox="0 0 115 27"><path d="M29.462 20.001V2.38h10.674v2.209h-8.464v5.418h7.601v2.209h-7.601v5.523h9.057v2.21H29.462zm22.48 0l-3.666-4.681-3.666 4.681h-2.587l5.013-6.259-5.283-6.47h2.911l3.612 4.839 3.666-4.839H54.8l-5.014 6.47 4.744 6.259zm6.146-1.893v8.679h-2.21V13.794c0-3.314 2.588-6.838 6.63-6.838 4.098 0 7.171 2.525 7.171 6.68 0 4.05-3.127 6.839-6.685 6.839-1.725 0-4.043-.737-4.906-2.367zm9.273-4.472c0-2.84-1.887-4.523-5.23-4.365-1.617.052-4.097 1.21-3.881 5.26.054 1.315 1.456 3.787 4.528 3.787 2.642 0 4.583-1.473 4.583-4.682zm4.205 6.366V7.272h2.21v1.367c1.078-1.21 2.75-1.63 4.529-1.63v2.313c-.27-.052-2.911-.368-4.529 2.998v7.733h-2.21V20zm7.332-6.366c0-3.682 2.774-6.68 6.603-6.68 4.773 0 6.549 2.998 6.549 6.838v1.052H81.395c.166 2.42 2.442 3.682 4.55 3.63 1.554-.053 2.609-.474 3.718-1.526l1.499 1.473c-1.388 1.263-3.163 2.104-5.328 2.104-4.05-.052-6.936-2.893-6.936-6.89zm6.437-4.523c-2.164 0-3.83 1.788-3.94 3.734h8.268c0-1.893-1.442-3.734-4.328-3.734zm7.472 9.099l1.617-1.42c-.054 0 .809.842.917.895.377.315.754.526 1.24.631 1.401.368 3.935.263 4.15-1.63.108-1.053-.7-1.631-1.617-2-1.186-.42-2.48-.578-3.666-1.104-1.347-.579-2.21-1.578-2.21-3.051 0-3.84 5.607-4.471 8.14-2.683.108.106 1.348 1.21 1.294 1.21l-1.617 1.263c-.809-.947-1.563-1.42-3.288-1.42-.863 0-2.05.368-2.265 1.262-.323 1.262 1.132 1.736 2.103 1.999 1.294.315 2.695.526 3.827 1.21 1.564.946 1.941 2.998 1.348 4.576-.647 1.736-2.587 2.42-4.313 2.472-2.048.105-3.827-.526-5.283-1.946-.108 0-.377-.263-.377-.263zm11.375 0l1.617-1.42c-.054 0 .809.842.917.895.377.315.754.526 1.24.631 1.401.368 3.935.263 4.15-1.63.109-1.053-.7-1.631-1.617-2-1.186-.42-2.48-.578-3.665-1.104-1.348-.579-2.21-1.578-2.21-3.051 0-3.84 5.606-4.471 8.14-2.683.108.106 1.348 1.21 1.294 1.21l-1.618 1.263c-.808-.947-1.563-1.42-3.288-1.42-.863 0-2.049.368-2.265 1.262-.323 1.262 1.133 1.736 2.103 1.999 1.294.315 2.696.526 3.828 1.21 1.563.946 1.94 2.998 1.347 4.576-.647 1.736-2.587 2.42-4.312 2.472-2.05.105-3.828-.526-5.284-1.946-.108 0-.377-.263-.377-.263zm-89.708 1.789l-1.617-4.208H4.123l-1.617 4.208H.188L7.196 2.38H9.73l6.955 17.621h-2.21zM8.382 4.905l-3.288 8.732h6.846L8.382 4.905zm9.758 15.096V2.38h2.264v17.621zm5.661 0V7.535h2.264v12.466zm4.42-16.517v-.21c-1.725-.053-3.126-1.42-3.18-3.103h-.324c-.054 1.683-1.455 3.05-3.18 3.103v.21c1.725.053 3.126 1.42 3.18 3.104h.324c.054-1.683 1.455-3.05 3.18-3.104z" fill="#FFF"/></svg>