<svg xmlns="http://www.w3.org/2000/svg" width="91" height="15" viewBox="0 0 91 15"><path fill="#EAEAEA" fill-rule="evenodd" stroke="#EAEAEA" stroke-linecap="round" stroke-linejoin="round" stroke-width="1.333" d="M7.667 1l2.06 4.173 4.606.674L11 9.093l.787 4.587-4.12-2.167-4.12 2.167.786-4.587L1 5.847l4.607-.674L7.667 1zm19 0l2.06 4.173 4.606.674L30 9.093l.787 4.587-4.12-2.167-4.12 2.167.786-4.587L20 5.847l4.607-.674L26.667 1zm19 0l2.06 4.173 4.606.674L49 9.093l.787 4.587-4.12-2.167-4.12 2.167.786-4.587L39 5.847l4.607-.674L45.667 1zm19 0l2.06 4.173 4.606.674L68 9.093l.787 4.587-4.12-2.167-4.12 2.167.786-4.587L58 5.847l4.607-.674L64.667 1zm19 0l2.06 4.173 4.606.674L87 9.093l.787 4.587-4.12-2.167-4.12 2.167.786-4.587L77 5.847l4.607-.674L83.667 1z"/></svg>