<svg xmlns="http://www.w3.org/2000/svg" width="18" height="11" viewBox="0 0 18 11"><path fill="#363C42" d="M15.445 2.6c-.261 0-.515.04-.757.121A3.709 3.709 0 0 0 11.11.007a3.727 3.727 0 0 0-3.569 2.698A3.708 3.708 0 0 0 3.173 5.33 2.418 2.418 0 0 0 0 7.624a2.418 2.418 0 0 0 2.415 2.415h8.087a2.024 2.024 0 0 0 1.933-2.61h3.01a2.418 2.418 0 0 0 2.415-2.415A2.418 2.418 0 0 0 15.445 2.6zm-4.943 6.882H2.415A1.86 1.86 0 0 1 .558 7.624a1.86 1.86 0 0 1 2.688-1.66.279.279 0 0 0 .4-.2 3.15 3.15 0 0 1 3.103-2.59 3.16 3.16 0 0 1 3.154 3.133.28.28 0 0 0 .33.273 1.465 1.465 0 0 1 1.732 1.438c0 .807-.657 1.464-1.463 1.464zm4.943-2.61h-3.28a2.028 2.028 0 0 0-1.718-.874 3.725 3.725 0 0 0-2.37-3.134 3.165 3.165 0 0 1 3.034-2.3 3.15 3.15 0 0 1 3.104 2.59.28.28 0 0 0 .4.2 1.86 1.86 0 0 1 2.688 1.661 1.86 1.86 0 0 1-1.858 1.857z"/></svg>