<svg xmlns="http://www.w3.org/2000/svg" width="21" height="30" viewBox="0 0 21 30"><g fill="#FFF"><path d="M20.495 3.511h-5.378V1.707a.45.45 0 0 0-.449-.453h-2.205V.453A.45.45 0 0 0 12.015 0H8.336a.45.45 0 0 0-.448.453v.801H6.017a.45.45 0 0 0-.448.453v1.804H.505a.45.45 0 0 0-.448.453v1.882c0 .25.2.453.448.453a.45.45 0 0 0 .449-.453V4.417h4.614v1.428c0 .25.201.453.449.453h8.651a.45.45 0 0 0 .449-.453V4.417h4.93v24.677H.953V7.887a.45.45 0 0 0-.449-.453.45.45 0 0 0-.448.453v21.66c0 .25.2.453.448.453h19.99a.45.45 0 0 0 .448-.453V3.964a.45.45 0 0 0-.448-.453zM8.785.906h2.781v.348H8.785V.906zm5.435 4.486H6.466V2.16h7.754v3.232z"/><path d="M17.447 9.84H7.776a.45.45 0 0 0-.449.453c0 .25.201.453.449.453h9.67a.45.45 0 0 0 .45-.453.45.45 0 0 0-.45-.453zm0 4.97H7.776a.45.45 0 0 0-.449.453c0 .25.201.453.449.453h9.67a.45.45 0 0 0 .45-.453.45.45 0 0 0-.45-.453zm0 4.97H7.776a.45.45 0 0 0-.449.453c0 .25.201.453.449.453h9.67a.45.45 0 0 0 .45-.453.45.45 0 0 0-.45-.453zm0 4.97H7.776a.45.45 0 0 0-.449.454c0 .25.201.453.449.453h9.67a.45.45 0 0 0 .45-.453.45.45 0 0 0-.45-.453zM5.915 8.643H3.436a.45.45 0 0 0-.448.453v2.566c0 .25.2.453.448.453h2.479a.45.45 0 0 0 .448-.453V9.096a.45.45 0 0 0-.448-.453zm-.449 2.503H3.884V9.611h1.582v1.535zm.449 2.575H3.436a.45.45 0 0 0-.448.453v2.504c0 .25.2.453.448.453h2.479a.45.45 0 0 0 .448-.453v-2.504a.45.45 0 0 0-.448-.453zm-.449 2.504H3.884v-1.598h1.582v1.598zm.449 2.45H3.436a.45.45 0 0 0-.448.453v2.504c0 .25.2.453.448.453h2.479a.45.45 0 0 0 .448-.453v-2.504a.45.45 0 0 0-.448-.453zm-.449 2.504H3.884V19.58h1.582v1.598zm.449 2.512H3.436a.45.45 0 0 0-.448.453v2.504c0 .25.2.453.448.453h2.479a.45.45 0 0 0 .448-.453v-2.504a.45.45 0 0 0-.448-.453zm-.449 2.504H3.884v-1.598h1.582v1.598z"/></g></svg>