<svg xmlns="http://www.w3.org/2000/svg" width="26" height="30" viewBox="0 0 26 30"><g fill="#FFF"><path d="M23.813 0H4.125a2.14 2.14 0 0 0-2.146 2.13v1.29H.603a.537.537 0 0 0-.538.534c0 .295.24.535.538.535H1.98V8.93H.603a.537.537 0 0 0-.538.534c0 .295.24.535.538.535H1.98v4.442H.603a.537.537 0 0 0-.538.534c0 .295.24.534.538.534H1.98v4.442H.603a.537.537 0 0 0-.538.535c0 .295.24.534.538.534H1.98v4.442H.603a.537.537 0 0 0-.538.535c0 .295.24.534.538.534H1.98v1.29a2.14 2.14 0 0 0 2.146 2.13h19.688a2.14 2.14 0 0 0 2.146-2.13V2.13A2.14 2.14 0 0 0 23.813 0zm-2.87 12.58h3.939v4.686h-3.938V12.58zm0-1.07V6.825h3.939v4.687h-3.938zm0 6.825h3.939v4.686h-3.938v-4.686zM3.057 27.823v-1.29H4.18c.297 0 .538-.24.538-.535a.537.537 0 0 0-.538-.535H3.056v-4.442h1.123a.536.536 0 0 0 .538-.534.537.537 0 0 0-.538-.534H3.056V15.51h1.123c.297 0 .538-.24.538-.535a.537.537 0 0 0-.538-.534H3.056V10h1.123c.297 0 .538-.24.538-.535a.537.537 0 0 0-.538-.534H3.056V4.489h1.123c.297 0 .538-.24.538-.535a.537.537 0 0 0-.538-.534H3.056V2.13c0-.585.48-1.061 1.069-1.061h19.688c.59 0 1.069.476 1.069 1.06v3.626h-4.477a.537.537 0 0 0-.539.535v22.593H4.125c-.59 0-1.07-.475-1.07-1.06zm20.757 1.06h-2.87V24.09h3.939v3.733c0 .585-.48 1.06-1.07 1.06z"/><path d="M7.381 6.263h9.449c.297 0 .539-.24.539-.535a.537.537 0 0 0-.539-.534H7.381a.537.537 0 0 0-.538.534c0 .296.24.535.538.535zm9.449 1.682H7.381a.537.537 0 0 0-.538.534c0 .295.24.535.538.535h9.449c.297 0 .539-.24.539-.535a.537.537 0 0 0-.539-.534zm0 2.751H7.381a.537.537 0 0 0-.538.534c0 .295.24.534.538.534h9.449a.537.537 0 0 0 .539-.534.537.537 0 0 0-.539-.534zm0 2.75H7.381a.537.537 0 0 0-.538.535c0 .295.24.534.538.534h9.449c.297 0 .539-.24.539-.534a.537.537 0 0 0-.539-.535zm0 2.751H7.381a.537.537 0 0 0-.538.535c0 .295.24.534.538.534h9.449c.297 0 .539-.24.539-.534a.537.537 0 0 0-.539-.535zm0 2.751H7.381a.537.537 0 0 0-.538.534c0 .295.24.535.538.535h9.449c.297 0 .539-.24.539-.535a.537.537 0 0 0-.539-.534zm0 5.502H7.381a.537.537 0 0 0-.538.534c0 .295.24.534.538.534h9.449a.537.537 0 0 0 .539-.534.537.537 0 0 0-.539-.535zm0-2.751H7.381a.537.537 0 0 0-.538.534c0 .295.24.535.538.535h9.449c.297 0 .539-.24.539-.535a.537.537 0 0 0-.539-.534zm5.585-18.082c.088.205.298.34.524.329a.543.543 0 0 0 .48-.354.536.536 0 0 0-.794-.631.537.537 0 0 0-.21.656zm.879 5.199c-.342-.339-.942-.072-.92.404a.54.54 0 0 0 .986.27.535.535 0 0 0-.066-.674c-.026-.025.1.1 0 0zm.146 11.838a.542.542 0 0 0-.435-.422.544.544 0 0 0-.56.263.537.537 0 0 0 .086.641.548.548 0 0 0 .598.111.537.537 0 0 0 .312-.593zm0-5.782a.545.545 0 0 0-.781-.367.538.538 0 0 0-.128.85.55.55 0 0 0 .647.086.536.536 0 0 0 .263-.569zm-.03 11.463a.542.542 0 0 0-.51-.33.543.543 0 0 0-.499.368c-.157.472.393.888.81.612a.538.538 0 0 0 .199-.65z"/></g></svg>