<svg xmlns="http://www.w3.org/2000/svg" width="30" height="30" viewBox="0 0 30 30"><g fill="#FFF"><path d="M29.477 26.979h-1.499V.499c0-.3-.2-.499-.5-.499H2.499c-.3 0-.5.2-.5.5v26.479H.5c-.3 0-.5.2-.5.5v1.998c0 .3.2.5.5.5h28.977c.3 0 .5-.2.5-.5v-1.999c0-.3-.2-.5-.5-.5zM2.997.999H26.98v25.98h-7.494v-5.496c0-.3-.2-.5-.5-.5h-7.994c-.3 0-.5.2-.5.5v5.496H2.999V.999zm8.494 25.98v-4.996h2.998v4.996H11.49zm3.997-4.996h2.998v4.996h-2.998v-4.996zm13.49 6.994H.998v-.999h27.978v1z"/><path d="M9.493 2.498H5.496c-.3 0-.5.2-.5.5v2.997c0 .3.2.5.5.5h3.997c.3 0 .5-.2.5-.5V2.998c0-.3-.2-.5-.5-.5zm-.5 2.998H5.995V3.497h2.998v1.999zm.5 2.498H5.496c-.3 0-.5.2-.5.5v2.997c0 .3.2.5.5.5h3.997c.3 0 .5-.2.5-.5V8.493c0-.3-.2-.5-.5-.5zm-.5 2.997H5.995V8.993h2.998v1.998zm3.997.999h3.997c.3 0 .5-.2.5-.499V8.493c0-.3-.2-.5-.5-.5H12.99c-.3 0-.5.2-.5.5v2.998c0 .3.2.5.5.5zm.5-2.997h2.997v1.998H13.49V8.993zm6.994 2.997h3.997c.3 0 .5-.2.5-.499V8.493c0-.3-.2-.5-.5-.5h-3.997c-.3 0-.5.2-.5.5v2.998c0 .3.2.5.5.5zm.5-2.997h2.997v1.998h-2.997V8.993zm-7.994 8.493h3.997c.3 0 .5-.2.5-.5V13.99c0-.3-.2-.5-.5-.5H12.99c-.3 0-.5.2-.5.5v2.998c0 .3.2.5.5.5zm.5-2.997h2.997v1.998H13.49V14.49zm6.994 2.997h3.997c.3 0 .5-.2.5-.5V13.99c0-.3-.2-.5-.5-.5h-3.997c-.3 0-.5.2-.5.5v2.998c0 .3.2.5.5.5zm.5-2.997h2.997v1.998h-2.997V14.49zM9.493 13.49H5.496c-.3 0-.5.2-.5.499v2.998c0 .3.2.5.5.5h3.997c.3 0 .5-.2.5-.5v-2.998c0-.3-.2-.5-.5-.5zm-.5 2.997H5.995V14.49h2.998v1.998zm3.997-9.992h3.997c.3 0 .5-.2.5-.5V2.998c0-.3-.2-.5-.5-.5H12.99c-.3 0-.5.2-.5.5v2.997c0 .3.2.5.5.5zm.5-2.998h2.997v1.999H13.49V3.497zm6.994 2.998h3.997c.3 0 .5-.2.5-.5V2.998c0-.3-.2-.5-.5-.5h-3.997c-.3 0-.5.2-.5.5v2.997c0 .3.2.5.5.5zm.5-2.998h2.997v1.999h-2.997V3.497zM11.99 19.984h5.996c.3 0 .5-.2.5-.5 0-.299-.2-.499-.5-.499h-5.995c-.3 0-.5.2-.5.5s.2.5.5.5z"/></g></svg>