<svg xmlns="http://www.w3.org/2000/svg" width="160" height="56" viewBox="0 0 160 56"><g fill="none" fill-rule="evenodd"><path fill="#2B2D33" d="M79.141 28.71v-.724l1.998-.925V14.65l-1.998-.924V13h7.724v.725l-1.996.924v12.412l1.996.925v.724h-7.724zM105.87 13c2.369 0 3.729.261 4.783.9 1.095.683 1.82 2.065 1.82 3.495 0 1.449-.635 2.635-1.755 3.472-1.074.814-2.633 1.275-4.496 1.275h-1.47v4.92l1.996.924v.725h-7.723v-.725l1.996-.925V14.624l-1.996-.9V13h6.845zm-.55 7.975c2.393 0 3.292-1.385 3.292-3.58 0-2.021-.877-3.233-2.962-3.233h-.899v6.813h.569zm26.623-3.625l-1.184-3.188h-2.546v12.9l2.567.924v.725h-8.885v-.725l2.567-.925V14.162h-2.59l-1.142 3.188h-1.294V13h13.8v4.35h-1.293zM85.657 41.324v2.186c-.218.065-.707.185-.99.24-.888.184-1.4.195-1.638.195-.521 0-1.76-.032-2.747-.848-.847-.695-1.282-1.838-1.282-2.99 0-.783.164-2.1 1.303-3.088.912-.795 1.987-1 3.072-1 .522 0 1.217.042 2.4.314v1.817h-.554l-.553-1.48c-.14-.02-.434-.076-.89-.076-1.054 0-1.814.283-2.357.859-.78.827-.868 1.969-.868 2.633 0 .717.13 1.576.728 2.282.662.784 1.54.924 2.139.924.174 0 .532-.021.803-.053v-1.904l-.977-.424v-.326h3.388v.326l-.977.413zm15.57-5.197c.596 0 1.28.01 1.812.424.282.218.686.674.686 1.456 0 .59-.197 1.1-.664 1.49a2.403 2.403 0 0 1-1.096.502l2.182 3.066.923.435v.326h-2.117l-2.464-3.665h-.315v2.915l.977.424v.326h-3.345v-.316l.988-.424v-6.21l-.988-.423v-.326h3.421zm-1.053 3.577h.695c.325 0 .727-.086 1.03-.51.207-.284.304-.685.304-1.089 0-.27-.042-.586-.15-.803-.284-.589-.859-.653-1.184-.653h-.695v3.055zm23.506.141c0 2.448-1.606 4.155-3.963 4.155-2.16 0-3.615-1.512-3.615-3.774 0-2.359 1.53-4.208 3.908-4.208 2.28 0 3.67 1.62 3.67 3.827zm-5.049-2.783c-.923.837-.955 2.567-.955 2.914 0 2.577 1.248 3.426 2.214 3.426.946 0 2.195-.783 2.195-3.382 0-2.11-.89-3.426-2.216-3.426-.587 0-.987.24-1.238.468zm23.258-.185v4.284c0 .49-.065 1.414-.728 2.056-.684.663-1.748.75-2.356.75-.63 0-1.542-.076-2.182-.598-.608-.5-.782-1.174-.782-1.88v-4.601l-.977-.435v-.326h3.409v.326l-.978.424v4.556c0 .327.022.98.402 1.403.392.446 1.01.479 1.38.479.51 0 1.238-.087 1.618-.664.238-.37.271-.913.271-1.25v-4.513l-.977-.435v-.326h2.877v.326l-.977.424zm15.125-.75c.706 0 1.552.021 2.204.51.587.446.782 1.12.782 1.653 0 .708-.314 1.328-.847 1.72-.195.14-.857.575-2.074.575h-.76v2.49l1.085.424v.327h-3.528v-.316l.988-.424v-6.21l-.988-.423v-.326h3.138zm-.695 3.947h.402c.391 0 .912-.054 1.292-.434.293-.294.456-.761.456-1.338 0-1.544-1.053-1.653-1.531-1.653h-.619v3.425z"/><path fill="#D6181E" d="M0 0v33.682h.056c-.014.327-.034.652-.034.982H.018C.02 46.446 9.56 56 21.436 56h.076c11.683-.098 21.124-9.61 21.124-21.336 0-5.313-1.944-10.17-5.155-13.907v11.234H24.095V.024C41.542 1.402 55.355 15.701 56 33.373V0H0z"/></g></svg>