<svg xmlns="http://www.w3.org/2000/svg" width="18" height="14" viewBox="0 0 18 14"><path fill="#7F8FA4" d="M9.336 2.033c-.113.11-.225.164-.337.164-.113 0-.281-.054-.338-.164C5.457-1.737-.165.121.004 4.82c.112 3.716 2.867 5.574 6.015 8.142C6.862 13.672 7.93 14 9 14c1.068 0 2.136-.328 2.98-1.038 3.147-2.623 5.846-4.426 6.015-8.033.224-4.808-5.454-6.72-8.658-2.896zm1.462 9.672c-.506.383-1.125.656-1.8.656a2.697 2.697 0 0 1-1.798-.656c-3.261-2.623-5.285-4.043-5.397-6.94C1.69 1.706 5.12.614 7.256 3.127c.45.492 1.068.82 1.743.82.674 0 1.349-.273 1.742-.82 2.08-2.459 5.566-1.42 5.454 1.749-.17 2.787-2.305 4.207-5.397 6.83z"/></svg>