<svg id="Слой_1" xmlns="http://www.w3.org/2000/svg" viewBox="0 0 220 220"><style>.st0{fill:#1a1a1a}.st1{fill:#fff}</style><circle class="st0" cx="110" cy="110" r="103.5"/><path class="st1" d="M57.1 92.9c-.2.2-.2.5 0 .6 2.1 2.2 3.1 5.4 3.1 9.5v1.8c0 8.4-4.4 12.4-10.4 12.4H42c-1 0-1.3-.3-1.3-1.3V73c0-1 .3-1.3 1.3-1.3h7.8c5.8 0 10.2 3.8 10.4 11.7.1 4.2-1 7.4-3.1 9.5zm-10.9-3.6c0 1.4 0 1.4 1.3 1.4h2.7c3.1-.1 4.6-2.5 4.6-7 0-4.6-1.6-6.9-4.9-6.9h-2.3c-1.3 0-1.3 0-1.3 1.3v11.2zm0 21.5c0 1.3 0 1.3 1.3 1.3h2.3c3.3 0 4.9-2.3 4.9-7v-2.3c0-4.5-1.5-6.8-4.6-7h-2.7c-1.3 0-1.3 0-1.3 1.3v13.7zm31.2-21c-1.6 0-2.5.6-2.9 2.2-.3 1.5-.4 2.3-.4 4.4v19.5c0 1-.3 1.3-1.3 1.3H70c-1 0-1.3-.3-1.3-1.3V86c0-1 .3-1.3 1.3-1.3h2.9c1 0 1.3.3 1.3 1.3v.8c1.3-1.3 2.9-2 4.7-2.1h.7c1 0 1.3.3 1.3 1.3v2.8c0 1-.3 1.6-1.3 1.3-1-.2-1.7-.3-2.2-.3zm24.6 27.4c-1 0-1.2-.3-1.4-2.1-1.8 1.6-3.8 2.3-6.2 2.3-4.9 0-8.3-3.1-8.3-8.6v-1.2c0-4.4 2.1-7.2 4.8-8.2 3.9-1.6 9-2.1 9.1-6 .1-2-1.5-3.9-3.9-3.9-2.3 0-4.2 1.8-4.2 4.7 0 1-.3 1.4-1.3 1.4h-2.5c-1 0-1.2-.3-1.3-1.3-.1-2.7.8-5 2.6-6.9 1.8-2 4-2.9 6.7-2.9 2.5 0 4.7.9 6.6 2.8 1.9 1.8 2.8 4.2 2.8 7.2v18.3c.1.9.2 2 .5 3.2.2.8-.3 1.3-1.3 1.3H102zm-1.8-10.2v-6.5c-.7.3-1.8.8-3.1 1.4-1.3.6-2.1 1-2.5 1.2-.4.2-.9.6-1.6 1.1-1.2 1-1.4 2.1-1.4 4-.1 1.2.5 4.2 4.3 4.2 2.8-.2 4.3-1.9 4.3-5.4zm14.7-30.6c1.2-1.2 3.2-1.2 4.4 0 1.3 1.2 1.3 3.2 0 4.5-1.2 1.2-3.2 1.2-4.4 0-1.2-1.3-1.2-3.3 0-4.5zm.8 40.8c-1 0-1.3-.3-1.3-1.3V86c0-1 .3-1.3 1.3-1.3h2.9c1 0 1.3.3 1.3 1.3v29.9c0 1-.3 1.3-1.3 1.3h-2.9zm18.7-1.3c0 1-.3 1.3-1.3 1.3h-2.9c-1 0-1.3-.3-1.3-1.3V86c0-1 .3-1.3 1.3-1.3h2.9c1 0 1.3.3 1.3 1.3v.9c1.2-1.5 2.8-2.3 4.8-2.5 5.2-.2 8.7 3.4 8.7 11.1v20.4c0 1-.3 1.3-1.3 1.3h-2.9c-1 0-1.3-.3-1.3-1.3V94.4c.2-6.7-8.3-6.7-8.1 0v21.5zm26.9-4.3c-.1.3 0 .5.4.5h10.6c1 0 1.3.3 1.3 1.3v2.5c0 1-.3 1.3-1.3 1.3h-15.6c-1 0-1.3-.3-1.3-1.3V113c0-.5.1-1 .3-1.4l12-34.3c.1-.3.1-.5-.3-.5h-10.7c-1 0-1.3-.3-1.3-1.3V73c0-1 .3-1.3 1.3-1.3h15.6c1 0 1.3.3 1.3 1.3v2.9c0 .5-.1.9-.3 1.4l-12 34.3zM43.5 152.4c-.4 0-.6-.1-.6-.6v-18.5c0-.4.1-.6.6-.6h1.7c.4 0 .6.1.6.6v6c.5-.6 1.2-1 2.1-1.1 2.2-.1 3.8 1.5 3.8 4.8v4.7c0 3.3-1.5 4.8-3.8 4.8-.9-.1-1.6-.4-2.1-1v.4c0 .4-.1.6-.6.6h-1.7zm2.2-4.6c0 1.4.5 2.1 1.5 2.1s1.5-.7 1.5-2.1V143c0-1.4-.5-2.1-1.5-2.1s-1.5.7-1.5 2.1v4.8zm21.9.1c0 .1.2.1.2 0l1.5-9.1c.1-.4.3-.4.6-.4h1.7c.3 0 .5 0 .5.5l-2.8 13.9c-.8 4.1-2.2 4.7-4.3 4.7-.4 0-.6-.1-.6-.6v-1.5c0-.4.1-.6.6-.6 1 0 1.4-.7 1.2-2.2l-2.8-13.8c-.1-.4.1-.5.5-.5h1.7c.4 0 .6 0 .6.4l1.4 9.2zm34.7.1c-.2 2.7 3.5 2.7 3.4 0v-.2c0-.4.1-.6.6-.6h1.7c.4 0 .6.3.6.7-.2 3.1-2.1 4.6-4.5 4.6-2.6 0-4.5-1.7-4.5-5.3V138c0-3.6 1.9-5.3 4.5-5.3 2.4 0 4.2 1.5 4.5 4.6 0 .5-.1.7-.6.7h-1.7c-.4 0-.6-.1-.6-.6v-.2c.2-2.7-3.5-2.7-3.4 0V148zm22.8-15.2c2.5 0 4.2 1.6 4.2 5.2v.9c0 2.2-.6 3.7-1.7 4.6l1.7 8.3c.1.4 0 .6-.3.6h-1.8c-.3 0-.6 0-.6-.4l-1.4-7.5c0-.2-.1-.3-.3-.3h-.5c-.6 0-.6 0-.6.6v7.1c0 .4-.1.6-.6.6h-1.7c-.4 0-.6-.1-.6-.6v-18.5c0-.4.1-.6.6-.6h3.6zm-.9 2.5c-.6 0-.6 0-.6.6v5.3c0 .6 0 .6.6.6h.8c.9 0 1.4-.7 1.4-2v-2.5c0-1.3-.5-2-1.4-2h-.8zm26.4 11.9c0 3.6-1.9 5.3-4.5 5.3s-4.5-1.7-4.5-5.3V138c0-3.6 1.9-5.3 4.5-5.3s4.5 1.7 4.5 5.3v9.2zm-2.8-9.9c.2-2.7-3.5-2.7-3.4 0V148c-.2 2.7 3.5 2.7 3.4 0v-10.7zm17.9 10.7c-.2 2.7 3.5 2.7 3.4 0v-.2c0-.4.1-.6.6-.6h1.7c.4 0 .6.3.6.7-.2 3.1-2.1 4.6-4.5 4.6-2.6 0-4.5-1.7-4.5-5.3V138c0-3.6 1.9-5.3 4.5-5.3 2.4 0 4.2 1.5 4.5 4.6 0 .5-.1.7-.6.7h-1.7c-.4 0-.6-.1-.6-.6v-.2c.2-2.7-3.5-2.7-3.4 0V148z"/></svg>