<svg id="Layer_1" xmlns="http://www.w3.org/2000/svg" viewBox="0 0 11.5 20.2"><style>.st0,.st1{stroke:#fff;stroke-miterlimit:10}.st0{fill:#fff;stroke-width:.5}.st1{stroke-width:.6}.st1,.st2{fill:#fff}</style><g id="g3174" transform="matrix(.6405 0 0 .64032 0 25.6)"><path id="path3176" class="st0" d="M4.3-9.6v-14.5H1.6c-.3 0-.6-.3-.6-.6V-29c0-.4.3-.6.6-.6h2.6v-2.3c0-1.2 0-3.4 1.2-4.9 1.2-1.4 2.8-2.4 5.4-2.4 4.1 0 5.9.5 5.9.6.3.1.4.4.4.7l-.8 4.4c-.1.3-.4.5-.7.5 0 0-1.3-.3-2.4-.3-.7 0-1.8.2-1.8 1v2.8H16c.3 0 .6.3.6.6l-.4 4.3c0 .3-.3.5-.6.5h-4.2v14.5c0 .3-.3.6-.6.6h-6c-.3 0-.5-.3-.5-.6zm6-.6v-14.5c0-.3.3-.6.6-.6h4.2l.3-3.2h-4.5c-.3 0-.6-.3-.6-.6v-3.4c0-.8.4-1.4 1-1.7.6-.3 1.3-.4 1.9-.4.7 0 1.3.1 1.9.2h.3l.6-3.3h-.2c-.8-.2-2.4-.4-4.9-.4-2.3 0-3.6.8-4.5 2-.8 1-.9 2.8-.9 4.1v2.9c0 .3-.3.6-.6.6H2.2v3.2h2.6c.3 0 .6.3.6.6v14.5h4.9z"/></g></svg>