<svg xmlns="http://www.w3.org/2000/svg" width="16" height="14" viewBox="0 0 16 14"><path fill="#FAFBFC" fill-rule="evenodd" d="M15.625 2.875c.25.604.375 1.24.375 1.906 0 .73-.151 1.417-.453 2.062a4.666 4.666 0 0 1-1.266 1.641 3439.417 3439.417 0 0 1-5.89 5.375.6.6 0 0 1-.39.14.6.6 0 0 1-.391-.14c-.51-.458-1.85-1.682-4.016-3.672A163.901 163.901 0 0 0 1.83 8.593a1.705 1.705 0 0 0-.141-.125A4.602 4.602 0 0 1 .454 6.836 5.044 5.044 0 0 1 0 4.796a4.646 4.646 0 0 1 .375-1.905 4.683 4.683 0 0 1 1.03-1.547C2.283.448 3.33 0 4.548 0c.667 0 1.3.146 1.899.437A4.614 4.614 0 0 1 8 1.672 4.614 4.614 0 0 1 9.555.437 4.281 4.281 0 0 1 11.453 0c1.219 0 2.266.443 3.14 1.328a4.68 4.68 0 0 1 1.032 1.547z"/></svg>