<svg xmlns="http://www.w3.org/2000/svg" xmlns:xlink="http://www.w3.org/1999/xlink" width="40" height="40" viewBox="0 0 40 40"><defs><path id="a" d="M17.578 3.234c.281.68.422 1.395.422 2.145 0 .82-.17 1.593-.51 2.32a5.25 5.25 0 0 1-1.424 1.846 3869.348 3869.348 0 0 1-6.627 6.047.675.675 0 0 1-.439.157.675.675 0 0 1-.44-.158c-.573-.515-2.08-1.892-4.517-4.13a184.388 184.388 0 0 0-1.986-1.793 1.918 1.918 0 0 0-.158-.141A5.177 5.177 0 0 1 .51 7.69 5.674 5.674 0 0 1 0 5.396a5.227 5.227 0 0 1 .423-2.144 5.269 5.269 0 0 1 1.16-1.74C2.567.504 3.745 0 5.116 0c.75 0 1.462.164 2.135.492a5.19 5.19 0 0 1 1.75 1.389A5.19 5.19 0 0 1 10.748.492 4.816 4.816 0 0 1 12.885 0c1.371 0 2.549.498 3.533 1.494.504.504.89 1.084 1.16 1.74z"/></defs><g fill="none" fill-rule="evenodd" transform="translate(11 13)"><mask id="b" fill="#fff"><use xlink:href="#a"/></mask><use fill="#19A6FE" xlink:href="#a"/><g fill="#FFD354" mask="url(#b)"><path d="M-11-13h40v40h-40z"/></g></g></svg>