<svg xmlns="http://www.w3.org/2000/svg" xmlns:xlink="http://www.w3.org/1999/xlink" width="40" height="40" viewBox="0 0 40 40"><defs><path id="a" d="M17.174 12.586h-.915l-.31-.31a7.382 7.382 0 0 0 1.797-4.839A7.437 7.437 0 0 0 10.309 0C6.2 0 2.872 3.432 2.872 7.437H0l4.394 4.577 4.76-4.577H5.16a5.142 5.142 0 0 1 5.149-5.149 5.15 5.15 0 0 1 5.149 5.15 5.156 5.156 0 0 1-7.231 4.713l-1.694 1.693a7.408 7.408 0 0 0 8.604-.766l.31.309v.904L21.177 20l1.705-1.693-5.71-5.721z"/></defs><g fill="none" fill-rule="evenodd" transform="translate(7 10)"><mask id="b" fill="#fff"><use xlink:href="#a"/></mask><use fill="#A9B2B7" xlink:href="#a"/><g fill="#A9B2B7" mask="url(#b)"><path d="M-8-10h40v40H-8z"/></g></g></svg>