<svg xmlns="http://www.w3.org/2000/svg" width="26" height="16" viewBox="0 0 26 16"><path fill="#FFF" fill-rule="evenodd" d="M17.733 6.857c1.965 0 3.54-1.531 3.54-3.428C21.273 1.53 19.698 0 17.733 0s-3.551 1.531-3.551 3.429c0 1.897 1.586 3.428 3.551 3.428zm-9.454 0c1.965 0 3.54-1.531 3.54-3.428C11.818 1.53 10.243 0 8.278 0S4.727 1.531 4.727 3.429c0 1.897 1.587 3.428 3.552 3.428zm-.006 2.286c-2.754 0-8.273 1.337-8.273 4V16h16.545v-2.857c0-2.663-5.519-4-8.272-4zm9.423 0c-.344 0-.735.023-1.15.057 1.376.96 2.336 2.251 2.336 3.943V16H26v-2.857c0-2.663-5.54-4-8.304-4z"/></svg>