<svg id="Layer_1" xmlns="http://www.w3.org/2000/svg" viewBox="0 0 15 15"><style>.st0,.st1{stroke:#fff;stroke-miterlimit:10}.st0{fill:#fff;stroke-width:.5}.st1{stroke-width:.6}.st1,.st2{fill:#fff}</style><path class="st2" d="M7.5 3.6c-2.1 0-3.9 1.7-3.9 3.9s1.7 3.9 3.9 3.9 3.9-1.8 3.9-3.9-1.8-3.9-3.9-3.9zm0 6.3C6.1 9.9 5 8.8 5 7.5S6.1 5 7.5 5 10 6.1 10 7.5 8.9 9.9 7.5 9.9z"/><circle class="st2" cx="11.5" cy="3.5" r=".9"/><path class="st2" d="M13.8 1.2C13 .4 11.9 0 10.6 0H4.4C1.8 0 0 1.8 0 4.4v6.2c0 1.3.4 2.4 1.3 3.2.8.8 1.9 1.2 3.1 1.2h6.2c1.3 0 2.4-.4 3.2-1.2.8-.8 1.2-1.9 1.2-3.2V4.4c0-1.3-.4-2.4-1.2-3.2zm-.1 9.4c0 .9-.3 1.7-.9 2.2s-1.3.8-2.2.8H4.4c-.9 0-1.7-.3-2.2-.8-.5-.5-.8-1.3-.8-2.2V4.4c0-.9.3-1.7.8-2.2.5-.5 1.3-.8 2.2-.8h6.2c.9 0 1.7.3 2.2.8.5.5.8 1.3.8 2.2v6.2h.1z"/></svg>