<svg xmlns="http://www.w3.org/2000/svg" xmlns:xlink="http://www.w3.org/1999/xlink" width="40" height="40" style="background:#a9b2b7" viewBox="0 0 40 40"><defs><path id="a" d="M25 10.75c4.097 1.6 7 5.586 7 10.25 0 6.075-4.925 11-11 11s-11-4.925-11-11c0-4.664 2.903-8.65 7-10.25v3.32a8 8 0 1 0 8 0v-3.32zm-2.5-.649v3.04a8.043 8.043 0 0 0-3 0V10.1a11.099 11.099 0 0 1 3 0zM19.5 16h3v10h-3V16z"/></defs><g fill="none" fill-rule="evenodd"><mask id="b" fill="#fff"><use xlink:href="#a"/></mask><use fill="#D8D8D8" xlink:href="#a"/><g fill="#FFF" mask="url(#b)"><path d="M0 0h40v40H0z"/></g></g></svg>