<svg xmlns="http://www.w3.org/2000/svg" width="65" height="52" viewBox="0 0 65 52"><defs><style>.cls-1,.cls-2{fill:#fff}.cls-1{fill-rule:evenodd}.cls-2{font-size:12px;text-anchor:middle;font-family:MuseoSansCyrl-500,&quot;Museo Sans Cyrl&quot;}</style></defs><path id="box" class="cls-1" d="M64.087.55a1.092 1.092 0 0 0-.946-.55h-10.79a1.093 1.093 0 0 0 0 2.185h8.89l-6 10.3H23.054l6-10.3h19.388a1.093 1.093 0 0 0 0-2.185H28.426a1.092 1.092 0 0 0-.943.542l-6.956 11.946H6.539L3.587 5.709h18.271a1.093 1.093 0 0 0 0-2.185H1.921a1.093 1.093 0 0 0-1 1.529l3.812 8.754v37.1A1.092 1.092 0 0 0 5.824 52h50.045a1.092 1.092 0 0 0 1.092-1.093V13.875l7.123-12.23A1.093 1.093 0 0 0 64.087.55zm-9.31 49.262H22.246v-3.6a1.092 1.092 0 1 0-2.184 0v3.6H6.916V14.673h13.147v26.842a1.092 1.092 0 1 0 2.184 0V14.673h32.531v35.14zM17.818 24.041l-3-4.588a.957.957 0 0 0-1.63 0l-3 4.588a1.135 1.135 0 0 0 .239 1.5.952.952 0 0 0 1.391-.258L13 23.469v6.447a1 1 0 1 0 2 0v-6.447l1.189 1.817a.976.976 0 0 0 .816.456.942.942 0 0 0 .575-.2 1.135 1.135 0 0 0 .238-1.501z"/><text id="RU" class="cls-2" x="37" y="37"><tspan x="37">RU</tspan></text></svg>