<svg width="179" height="55" xmlns="http://www.w3.org/2000/svg" xmlns:xlink="http://www.w3.org/1999/xlink" viewBox="0 0 256.282 78.515"><defs><path id="a" d="M0 0h256.282v78.515H0z"/></defs><clipPath id="b"><use xlink:href="#a" overflow="visible"/></clipPath><path d="M152.806 27.155v9.287h-3.053v-8.901c0-3.214-.514-5.046-3.759-5.046-1.993 0-3.825.643-3.825 1.865v12.082h-3.052V13.24h3.052v7.681c.932-.611 2.732-1.221 4.596-1.221 4.113 0 6.041 1.446 6.041 7.455m17.38 8.836c-1.672.515-4.017.9-5.559.9-4.821 0-7.745-1.992-7.745-8.676 0-6.459 2.668-8.516 7.456-8.516 4.884 0 7.037 1.799 6.877 9.223h-11.087c.032 4.37 1.542 5.302 4.852 5.302 1.157 0 3.31-.321 4.627-.772l.579 2.539zm-10.026-9.544h8.033c-.16-3.47-1.092-4.209-3.727-4.209-2.956 0-4.049.963-4.306 4.209m12.914-6.298h3.245c1.607 3.76 3.278 8.869 4.531 13.4 1.768-4.402 3.439-9.029 4.596-13.4h3.149c-1.639 5.527-3.792 11.151-6.106 16.614-.804 1.928-1.863 4.21-2.731 5.848h-3.439c.836-1.542 1.832-3.631 2.635-5.399-1.607-5.784-3.791-12.403-5.88-17.063m-11.487 26.719v5.923h-14.576v6.806h10.796v5.796h-10.796v10.754h-6.764V46.868zm30.543 14.325c0 12.056-4.873 15.542-14.242 15.542-9.409 0-14.24-3.486-14.24-15.542 0-11.888 4.831-15.039 14.24-15.039 9.369 0 14.242 3.151 14.242 15.039m-7.226.084c0-7.981-1.092-8.906-7.016-8.906-5.922 0-7.014.925-7.014 8.906 0 8.107 1.092 9.284 7.014 9.284 5.924 0 7.016-1.177 7.016-9.284m39.786-.084c0 12.056-4.873 15.542-14.242 15.542-9.409 0-14.24-3.486-14.24-15.542 0-11.888 4.831-15.039 14.24-15.039 9.369 0 14.242 3.151 14.242 15.039m-7.226.084c0-7.981-1.092-8.906-7.016-8.906-5.922 0-7.014.925-7.014 8.906 0 8.107 1.092 9.284 7.014 9.284 5.924 0 7.016-1.177 7.016-9.284m24.914-14.408c9.368 0 13.904 3.067 13.904 14.492 0 11.384-4.536 14.787-13.904 14.787h-12.224V46.869h12.224zm-.798 5.923h-4.663v17.391h4.663c5.923 0 7.478-1.176 7.478-8.738 0-7.813-1.555-8.653-7.478-8.653" clip-path="url(#b)" fill="#fff"/><path d="M11.195 33.439l-5.263 4.669a8.159 8.159 0 0 0-2.742 6.094v.488a18.591 18.591 0 0 1 1.993-.114c3.588 0 6.167 1.139 8.086 2.619-.244-1.643-.504-3.351-.764-5.125-.415-2.806-.887-5.93-1.31-8.631m74.185-3.534c.34.75 1.73 1.86 3 2.74.71.49 1.37.91 1.8 1.15 1.68.97 3.05 2.9 2.49 6.22-.03.17 0 .35 0 .52-.31-.02-.61-.02-.87-.02-2.28 0-7.84.42-11.6 4.28-.15.15-.3.31-.45.48-.22.24-.65.89-1.14 1.65-.86 1.35-1.92 3.09-2.25 3.65-.22.39-.46.78-.7 1.21-.37-.81-.83-1.62-1.41-2.42-2.98-4.15-8.01-6.54-14.94-7.1-.22-.02-.43-.03-.64-.04-1.62-2.03-3.63-4.39-5.97-7.06-2.24-2.55-4.77-5.38-7.57-8.48-4.07-4.52-9.12-10.13-10.07-11.63-.35-.81-.6-1.51-.78-2.1l2.46-2.18 9.46-8.39c3.17-3.18 8.32-3.18 11.5 0l20.54 18.22v-10.27c0-1.67 1.35-3.01 3.01-3.01h9.23c1.66 0 3.01 1.34 3.01 3.01v9.78c-1.65 1-3.18 1.94-4.38 2.8-1.23.87-4.73 4.8-3.73 6.99" clip-path="url(#b)" fill="#c4c0bb"/><path d="M52.68 42.625c-5.15 1.14-8.69 4.4-10.29 9.42-3.3-1.97-6.89-2.96-9.13-3.08-.38-.02-.73-.03-1.07-.03-.77 0-1.53.06-2.26.17l-.15-.54c-.75-2.61-3.26-3.64-4.76-4.25-.86-.36-2.5-.98-3.76-1.15l-.69-.09-.7.11c-.53.08-1.33.3-2.14.87-.16-1.04-.31-2.08-.46-3.09-.64-4.34-1.24-8.36-1.77-11.34-.43-2.44-.82-4.17-1.13-4.8-1.61-3.17-3.35-5.28-4.85-5.92-.34.16-.71.24-1.07.24-.94 0-1.84-.54-2.27-1.44l-.37-.8a2.506 2.506 0 0 1 1.2-3.34l6.79-3.2 12.86-6.06a2.548 2.548 0 0 1 2.47.2c.36.24.67.58.87 1.01l.38.79c.58 1.26.05 2.75-1.21 3.34-.43 1.46-.01 3.85 1.19 6.79.03.09.07.18.1.27.07.15.13.29.19.45.06.14.16.31.29.51 1.75 2.72 9.64 11.18 16.54 18.96 1.85 2.09 3.63 4.13 5.2 6" clip-path="url(#b)" fill="#2d95ea"/><path d="M40.17 78.445H4.48c-1.53-3.02-2.53-6.48-1.29-9.77.79-2.09 2.5-4.12 5.56-5.93 2.75-1.61 4.95-2.31 6.68-2.53.32-.05.63-.07.92-.08.13-.01.25-.01.37-.01.44 0 .84.03 1.19.08 1.41.21 2.14.75 2.22.81-1.04-2.7-1.22-5.61-1.02-8 .24-2.84 1.03-4.93 1.51-5.01 1.01.14 4.33 1.43 4.47 1.9-2.38 2.85-2.85 6.91-2.11 10.17 2.25-3.88 4.63-5.41 6.75-5.97.87-.23 1.7-.29 2.46-.29.29 0 .56.01.83.03.64.03 1.72.22 2.99.64-1.11.62-2 1.33-2.67 2-2.04 2.02-3.35 4.73-3.56 7.47-.08.99-.01 1.89.17 2.72.19.91.53 1.72.97 2.44.57.95 1.32 1.75 2.16 2.43 1.44 1.16 3.14 1.97 4.68 2.54.43 1.62 1.25 3.1 2.41 4.36" clip-path="url(#b)" fill="#e43a1e"/><path d="M15.46 57.295s-.2.08-.53.2c-.99.33-3.23.99-5.7.99-.8 0-1.62-.07-2.44-.24-1.27-.26-2.52-.78-3.6-1.69-1.46-1.21-2.62-3.11-3.15-6.02-.02-.07-.03-.15-.04-.22 1.17-.35 2.23-.57 3.19-.7.72-.11 1.38-.16 1.99-.16 5.16 0 6.84 3.33 8.79 6.05.25.35.51.7.79 1.03.04.04.07.09.11.13.19.22.38.44.59.63" clip-path="url(#b)" fill="#e43a1e"/><path d="M123.02 46.035a.1.1 0 0 1-.05.11c-.41.18-2.58 1.12-5 2.15-.79.34-1.61.69-2.41 1.03-.05.02-.11-.02-.12-.08-.36-3.53-2.27-4.85-4.45-4.85-.53 0-1.07.08-1.62.22h-.01c-1.82.49-3.62 1.71-4.71 3.19-.02.04-.02.09.02.12.77.73.96 1.84.97 3.18 0 .67-.04 1.39-.09 2.15 0 .03.01.05.03.07.24.26 2.29 2.53 2.41 6.48.07 2.06-1.71 5.38-3.9 8.83-.18.22-.72.31-1.49.31-.21 0-.45-.01-.69-.02-.68-.04-1.48-.13-2.33-.25-3.02-.43-6.67-1.29-8.05-1.84-.08-.03-.16.06-.11.14.72 1.21 4.32 3.22 7.17 4.29 1.17.43 2.22.71 2.89.71.1 0 .19-.01.27-.03.07 0 .13-.01.17-.03-.08.12-.16.25-.24.36-1.14 1.68-2.25 3.29-3.16 4.7-.35.53-.66 1.04-.94 1.5-.02.02-.04.04-.07.04h-20.5c-.1 0-.12-.14-.03-.17.95-.3 1.97-.79 3.29-2.02 1.96-1.83 2.5-4.82 2.27-7.12 0-.01 0-.03.01-.04 1.08-2.17 1.2-4.72.26-7.18-.85-2.19-2.4-4.03-4.3-5.25a.095.095 0 0 1-.03-.12c.73-1.25 1.42-2.41 2.02-3.44.04-.06.11-.06.14-.01.76 1.09 2.49 2.23 4.42 3.17v.01c2.14 1.06 4.51 1.89 6.07 2.17.09.01.14-.11.06-.17-3.12-1.91-8.12-7.45-7.77-9.83 0-.02.01-.04.03-.05 2.07-2.35 5.64-3.07 8.35-3.07 1.1 0 2.07.12 2.73.3.03.01.05 0 .07-.02.97-.82 2.23-1.12 2.5-1.18a.09.09 0 0 0 .06-.06c.06-.33.4-2.21.4-4.42 0-.87-.05-1.67-.13-2.4-.49-4.23-2.27-6.19-3.94-7.23-1.59-.98-3.08-1.14-3.26-1.63-.2-.53 1.21-1.59 3.26-2.9 1.23-.79 2.7-1.67 4.18-2.58 1.04-.63 2.09-1.28 3.08-1.93.03-.03.08-.02.11.01 2.38 2.41 3.59 6.47 1.87 15.23-.19 1-.42 2.07-.7 3.2-.03.11.12.16.16.05 2.51-6.61 6.98-11.89 12-14.85.03-.01.06-.02.09-.01 3.17 1.22 4.64 3.51 5.03 5.92.32 1.87-.02 3.82-.72 5.41-.01.03-.04.05-.07.05-2.99.25-8.64 2.37-12.98 7.09l-.02.01c-.46.49-.9 1.01-1.32 1.56-.06.08.05.19.13.13 3.96-3.1 8.15-5.4 11.65-5.4 3.07 0 5.61 1.76 7.04 6.29" clip-path="url(#b)" fill="#ff7a04"/><path d="M77.28 68.145c1 2 .79 8.42-6.02 8.42-.58 0-1.22-.05-1.91-.15-.94.74-1.96 2.03-1.96 2.03h-4.95l1.15-1.18.03-.04.01-.02 2.13-2.21c-.21-.13-.41-.26-.61-.41-.71-.54-1.31-1.23-1.75-1.85-.62-.83-.96-1.54-.96-1.54-.95.88-2.51 1.22-2.92 1.22.43 1.36 1.07 3.41 1.49 4.72.24.79.41 1.31.41 1.31h-3.66s-.27-5.28-2.51-6.64c-.74.67-1.48 1.97-2.84 2.17 1.97 2.16 3.86 4.47 3.86 4.47h-3.86s-.76-1.67-2.13-2.63c-.41-.3-.88-.52-1.4-.62-.38.29-.78.5-1.18.64-.52.21-1.04.3-1.52.3-.41 0-.81-.07-1.15-.18-.46-.14-.83-.36-1.1-.63-.74-.74-1.57-1.96-1.66-3.82-.02-.35-.01-.73.03-1.13-1.04-.27-2.04-.57-2.95-.91-.33-.12-.64-.25-.94-.38-1.45-.63-2.6-1.41-3.23-2.43-.41-.66-.61-1.42-.53-2.31.22-2.69 2.48-6.28 7.34-6.63.26-.02.51-.03.78-.03.9 0 1.88.12 2.95.35h.01c.18.04.38.09.58.14.03-1.02.12-1.97.27-2.83 1.04-5.82 4.74-8.05 9.67-8.28.27-.01.56-.02.84-.02.6 0 1.2.03 1.82.08.13.01.27.03.4.05 1.14.1 2.18.26 3.14.48 8.27 1.81 9.59 7.16 9.63 10.24.01 1.34-.21 2.25-.21 2.25.4-.14.82-.19 1.22-.19.2 0 .39.01.58.04.8.1 1.56.43 2.25.89.01.01.03.02.04.03 2.4 1.63 3.76 5.02 1.32 7.23" clip-path="url(#b)" fill="#1cbc00"/></svg>