<svg xmlns="http://www.w3.org/2000/svg" width="30" height="18" viewBox="0 0 30 18"><defs><style>.cls-1{fill:#ffb600}.cls-2{fill:#f7981d}.cls-3{fill:#ff8500}.cls-4{fill:#ff5050}.cls-5{fill:#e52836}.cls-6{fill:#cb2026}.cls-7{fill:#fff}.cls-8{fill:#dce5e5}</style></defs><g id="_196561" data-name="196561" transform="translate(0 -100.8)"><path id="Path_42" d="M219.6 109.8a9 9 0 0 1-18 0 9 9 0 1 1 18 0z" class="cls-1" data-name="Path 42" transform="translate(-189.6)"/><path id="Path_43" d="M210.6 100.8a9.023 9.023 0 0 1 9 9 9 9 0 0 1-18 0" class="cls-2" data-name="Path 43" transform="translate(-189.6)"/><path id="Path_44" d="M352.8 100.8a9.023 9.023 0 0 1 9 9 8.993 8.993 0 0 1-9 9" class="cls-3" data-name="Path 44" transform="translate(-331.8)"/><path id="Path_45" d="M8.9 100.8a9 9 0 0 0 .1 18 9.1 9.1 0 0 0 6.048-2.333 8.558 8.558 0 0 0 .9-.952H14.1a10.985 10.985 0 0 1-.667-.9h3.19a6.1 6.1 0 0 0 .524-.952H12.9a5.675 5.675 0 0 1-.381-.952h4.952a9.456 9.456 0 0 0 .476-2.857 12.292 12.292 0 0 0-.19-1.9h-5.519a6.962 6.962 0 0 1 .238-.952h4.952a5.674 5.674 0 0 0-.381-.952h-4.19a9.441 9.441 0 0 1 .524-.952h3.19a4.528 4.528 0 0 0-.714-.952H14.1a8.117 8.117 0 0 1 .9-.9 8.787 8.787 0 0 0-6.048-2.346c0-.1 0-.1-.052-.1z" class="cls-4" data-name="Path 45"/><path id="Path_46" d="M0 111.3a8.993 8.993 0 0 0 9 9 9.1 9.1 0 0 0 6.048-2.333 8.557 8.557 0 0 0 .9-.952H14.1a10.983 10.983 0 0 1-.667-.9h3.19a6.1 6.1 0 0 0 .524-.952H12.9a5.676 5.676 0 0 1-.381-.952h4.952a9.456 9.456 0 0 0 .476-2.857 12.291 12.291 0 0 0-.19-1.9h-5.519a6.962 6.962 0 0 1 .238-.952h4.952a5.675 5.675 0 0 0-.381-.952h-4.19a9.444 9.444 0 0 1 .524-.952h3.19a4.528 4.528 0 0 0-.714-.952H14.1a8.117 8.117 0 0 1 .9-.9 8.787 8.787 0 0 0-6.048-2.346H8.9" class="cls-5" data-name="Path 46" transform="translate(0 -1.505)"/><path id="Path_47" d="M149.7 120.3a9.1 9.1 0 0 0 6.048-2.333 8.555 8.555 0 0 0 .9-.952h-1.858a10.978 10.978 0 0 1-.667-.9h3.19a6.1 6.1 0 0 0 .524-.952H153.6a5.675 5.675 0 0 1-.381-.952h4.952a9.455 9.455 0 0 0 .476-2.857 12.292 12.292 0 0 0-.19-1.9h-5.524a6.963 6.963 0 0 1 .238-.952h4.952a5.675 5.675 0 0 0-.381-.952h-4.19a9.443 9.443 0 0 1 .524-.952h3.19a4.528 4.528 0 0 0-.714-.952h-1.762a8.115 8.115 0 0 1 .9-.9 8.787 8.787 0 0 0-6.048-2.333h-.042" class="cls-6" data-name="Path 47" transform="translate(-140.695 -1.505)"/><g id="Group_4" data-name="Group 4" transform="translate(.857 107.467)"><path id="Path_48" d="M182.981 224.19l.143-.81a2.063 2.063 0 0 1-.238.048c-.333 0-.381-.191-.333-.286l.286-1.667h.524l.143-.9h-.476l.1-.571h-.952s-.571 3.143-.571 3.524a.715.715 0 0 0 .762.81 1.462 1.462 0 0 0 .612-.148z" class="cls-7" data-name="Path 48" transform="translate(-171.648 -219.571)"/><path id="Path_49" d="M210.4 230.848a1.515 1.515 0 0 0 1.667 1.667 2.472 2.472 0 0 0 1-.143l.19-.9a2.855 2.855 0 0 1-1 .238c-1.048 0-.857-.762-.857-.762h1.952a6.174 6.174 0 0 0 .143-.857 1.29 1.29 0 0 0-1.381-1.381c-1-.101-1.714.947-1.714 2.138zm1.667-1.381c.524 0 .429.619.429.667h-1.048c0-.048.095-.667.619-.667z" class="cls-7" data-name="Path 49" transform="translate(-198.733 -227.752)"/><path id="Path_50" d="M298.619 217.419l.191-1.048a2.341 2.341 0 0 1-.81.238c-.667 0-.952-.524-.952-1.1 0-1.143.571-1.762 1.238-1.762a1.59 1.59 0 0 1 .857.286l.143-1a3.348 3.348 0 0 0-1.1-.238c-1.1 0-2.191.952-2.191 2.762 0 1.19.571 2 1.714 2a4.273 4.273 0 0 0 .91-.138z" class="cls-7" data-name="Path 50" transform="translate(-279.238 -212.8)"/><path id="Path_51" d="M88.21 227.2a3.372 3.372 0 0 0-1.143.19l-.143.81a2.815 2.815 0 0 1 1.048-.19c.333 0 .619.048.619.333 0 .19-.048.238-.048.238h-.429c-.81 0-1.714.333-1.714 1.429 0 .857.571 1.048.9 1.048a1.431 1.431 0 0 0 1-.429l-.048.381h.857l.381-2.619a1.129 1.129 0 0 0-1.28-1.191zm.19 2.143c0 .143-.1.9-.667.9a.372.372 0 0 1-.381-.381c0-.238.143-.571.857-.571a.751.751 0 0 0 .191.052z" class="cls-7" data-name="Path 51" transform="translate(-82.114 -226.343)"/><path id="Path_52" d="M136.3 230.3a1.221 1.221 0 0 0 1.429-1.238c0-1.19-1.143-.952-1.143-1.429 0-.238.19-.333.524-.333.143 0 .667.048.667.048l.143-.857a3.617 3.617 0 0 0-.9-.1c-.714 0-1.429.286-1.429 1.238 0 1.1 1.19 1 1.19 1.429 0 .286-.333.333-.571.333a3.114 3.114 0 0 1-.857-.143l-.143.857c.038.105.276.195 1.09.195z" class="cls-7" data-name="Path 52" transform="translate(-128.01 -225.59)"/><path id="Path_53" d="M429.914 214.4l-.19 1.286a1.32 1.32 0 0 0-.9-.476c-.857 0-1.619 1.048-1.619 2.286 0 .762.381 1.571 1.19 1.571a1.271 1.271 0 0 0 .9-.381l-.048.333h.952l.714-4.571zm-.429 2.524c0 .524-.238 1.19-.762 1.19-.333 0-.524-.286-.524-.762 0-.762.333-1.238.762-1.238.339 0 .525.238.525.81z" class="cls-7" data-name="Path 53" transform="translate(-402.629 -214.305)"/><path id="Path_54" d="M15.3 218.971l.571-3.429.1 3.429h.667l1.238-3.429-.524 3.429h1l.762-4.571h-1.571l-.952 2.81-.048-2.81h-1.381l-.762 4.571z" class="cls-7" data-name="Path 54" transform="translate(-14.4 -214.305)"/><path id="Path_55" d="M261.048 232.514c.286-1.571.333-2.857 1-2.619a3.738 3.738 0 0 1 .333-1.1h-.19c-.429 0-.762.571-.762.571l.1-.524h-.9l-.629 3.72h1.048z" class="cls-7" data-name="Path 55" transform="translate(-245.381 -227.848)"/><path id="Path_56" d="M348.21 227.2a3.372 3.372 0 0 0-1.143.19l-.143.81a2.815 2.815 0 0 1 1.048-.19c.333 0 .619.048.619.333 0 .19-.048.238-.048.238h-.429c-.81 0-1.714.333-1.714 1.429 0 .857.571 1.048.9 1.048a1.431 1.431 0 0 0 1-.429l-.048.381h.857l.381-2.619a1.112 1.112 0 0 0-1.28-1.191zm.238 2.143c0 .143-.1.9-.667.9a.372.372 0 0 1-.381-.381c0-.238.143-.571.857-.571.143.052.143.052.191.052z" class="cls-7" data-name="Path 56" transform="translate(-326.638 -226.343)"/><path id="Path_57" d="M395.448 232.514c.286-1.571.333-2.857 1-2.619a3.738 3.738 0 0 1 .333-1.1h-.19c-.429 0-.762.571-.762.571l.1-.524h-.9l-.619 3.714h1.048z" class="cls-7" data-name="Path 57" transform="translate(-371.781 -227.848)"/></g><g id="Group_5" data-name="Group 5" transform="translate(.857 107.467)"><path id="Path_58" d="M180 223.524a.715.715 0 0 0 .762.81 1.812 1.812 0 0 0 .714-.143l.143-.81a2.063 2.063 0 0 1-.238.048c-.333 0-.381-.19-.333-.286l.286-1.667h.524l.143-.9h-.476l.1-.571" class="cls-8" data-name="Path 58" transform="translate(-170.143 -219.571)"/><path id="Path_59" d="M218.4 230.848c0 1.333.429 1.667 1.19 1.667a2.472 2.472 0 0 0 1-.143l.19-.9a2.855 2.855 0 0 1-1 .238c-1.048 0-.857-.762-.857-.762h1.952a6.174 6.174 0 0 0 .143-.857 1.29 1.29 0 0 0-1.381-1.381c-.999-.101-1.237.947-1.237 2.138zm1.19-1.381c.524 0 .619.619.619.667h-1.238c0-.048.096-.667.619-.667z" class="cls-8" data-name="Path 59" transform="translate(-206.257 -227.752)"/><path id="Path_60" d="M306.143 217.419l.19-1.048a2.34 2.34 0 0 1-.81.238c-.667 0-.952-.524-.952-1.1 0-1.143.571-1.762 1.238-1.762a1.59 1.59 0 0 1 .857.286l.143-1a3.348 3.348 0 0 0-1.1-.238c-1.1 0-1.714.952-1.714 2.762 0 1.19.1 2 1.238 2a4.273 4.273 0 0 0 .91-.138z" class="cls-8" data-name="Path 60" transform="translate(-286.762 -212.8)"/><path id="Path_61" d="M86.924 229.752a2.815 2.815 0 0 1 1.048-.19c.333 0 .619.048.619.333 0 .19-.048.238-.048.238h-.429c-.81 0-1.714.333-1.714 1.429 0 .857.571 1.048.9 1.048a1.431 1.431 0 0 0 1-.429l-.048.381h.857l.381-2.619c0-1.1-.952-1.143-1.333-1.143m.714 2.048a1.559 1.559 0 0 1-1.143.9.372.372 0 0 1-.381-.381c0-.238.143-.571.857-.571a3.89 3.89 0 0 0 .672.052z" class="cls-8" data-name="Path 61" transform="translate(-82.114 -227.848)"/><path id="Path_62" d="M136 230.21a4.03 4.03 0 0 0 1.1.1 1.221 1.221 0 0 0 1.429-1.238c0-1.19-1.143-.952-1.143-1.429 0-.238.19-.333.524-.333.143 0 .667.048.667.048l.143-.857a3.617 3.617 0 0 0-.9-.1c-.714 0-.952.286-.952 1.238 0 1.1.714 1 .714 1.429 0 .286-.333.333-.571.333" class="cls-8" data-name="Path 62" transform="translate(-128.762 -225.59)"/><path id="Path_63" d="M437.193 216.438a1.32 1.32 0 0 0-.9-.476c-.857 0-1.143 1.048-1.143 2.286 0 .762-.1 1.571.714 1.571a1.271 1.271 0 0 0 .9-.381l-.048.333h.952l.714-4.571m-1.238 2.476c0 .524-.429 1.19-.952 1.19-.333 0-.524-.286-.524-.762 0-.762.333-1.238.762-1.238a.728.728 0 0 1 .715.81z" class="cls-8" data-name="Path 63" transform="translate(-410.098 -215.057)"/><path id="Path_64" d="M15.3 218.971l.571-3.429.1 3.429h.667l1.238-3.429-.524 3.429h1l.762-4.571h-1.19l-1.333 2.81-.048-2.81h-.524l-1.619 4.571z" class="cls-8" data-name="Path 64" transform="translate(-14.4 -214.305)"/><path id="Path_65" d="M260.8 232.514h1c.286-1.571.333-2.857 1-2.619a3.738 3.738 0 0 1 .333-1.1h-.19c-.429 0-.762.571-.762.571l.1-.524" class="cls-8" data-name="Path 65" transform="translate(-246.133 -227.848)"/><path id="Path_66" d="M346.924 229.752a2.815 2.815 0 0 1 1.048-.19c.333 0 .619.048.619.333 0 .19-.048.238-.048.238h-.429c-.81 0-1.714.333-1.714 1.429 0 .857.571 1.048.9 1.048a1.431 1.431 0 0 0 1-.429l-.048.381h.857l.381-2.619c0-1.1-.952-1.143-1.333-1.143m.714 2.048a1.559 1.559 0 0 1-1.143.9.372.372 0 0 1-.381-.381c0-.238.143-.571.857-.571a4.189 4.189 0 0 0 .672.052z" class="cls-8" data-name="Path 66" transform="translate(-326.638 -227.848)"/><path id="Path_67" d="M395.2 232.514h1c.286-1.571.333-2.857 1-2.619a3.738 3.738 0 0 1 .333-1.1h-.19c-.429 0-.762.571-.762.571l.1-.524" class="cls-8" data-name="Path 67" transform="translate(-372.533 -227.848)"/></g></g></svg>