<svg xmlns="http://www.w3.org/2000/svg" id="Page-1" width="42.382" height="12" viewBox="0 0 42.382 12"><defs><style>.cls-1,.cls-2{fill:#37a72e;fill-rule:evenodd}.cls-2{fill:url(#linear-gradient)}</style><linearGradient id="linear-gradient" x2="1" y1=".5" y2=".5" gradientUnits="objectBoundingBox"><stop offset="0" stop-color="#00a0e5"/><stop offset="1" stop-color="#0077c3"/></linearGradient></defs><g id="Artboard"><g id="Group"><path id="Combined-Shape" d="M502 89v6.657h3.7v-3.945h4.191A4.1 4.1 0 0 0 513.717 89z" class="cls-1" transform="translate(-471.562 -83.657)"/><path id="Combined-Shape-2" d="M494 0c.215 2.721 2.79 4.869 5.934 4.869h6.431a4.1 4.1 0 0 0-4-4.869z" class="cls-2" data-name="Combined-Shape" transform="translate(-464.055)"/><path id="Combined-Shape-3" d="M284.9 4.748v-.006a.223.223 0 0 1 .416.1v7.1h3.7V0h-3.7a1.484 1.484 0 0 0-1.2.773l-2.934 6.237a.24.24 0 0 1-.033.071.247.247 0 0 1-.449-.139V0H277v11.938h3.7a1.485 1.485 0 0 0 1.175-.772l3.021-6.4.008-.016z" class="cls-1" data-name="Combined-Shape" transform="translate(-260.205)"/><path id="Combined-Shape-4" d="M11.166 4.952L9 11.938H6.344l-2.163-6.99a.244.244 0 0 0-.483.044v6.944H0V0h4.12a1.766 1.766 0 0 1 1.592 1.165l1.8 5.818c.09.289.235.289.324 0l1.8-5.818A1.765 1.765 0 0 1 11.229 0h4.119v11.938h-3.7V4.992a.244.244 0 0 0-.484-.04z" class="cls-1" data-name="Combined-Shape"/></g></g></svg>