<svg xmlns="http://www.w3.org/2000/svg" width="39.581" height="12" viewBox="0 0 39.581 12"><defs><style>.cls-1{fill:#3c58bf}.cls-2{fill:#293688}.cls-3{fill:#ffbc00}.cls-4{fill:#f7981d}.cls-5{fill:#ed7c00}.cls-6{fill:#051244}</style></defs><g id="visa" transform="translate(0 -175.6)"><path id="Path_27" d="M184.8 191.694l2.053-11.294h3.207l-1.989 11.294z" class="cls-1" data-name="Path 27" transform="translate(-170.333 -4.415)"/><path id="Path_28" d="M184.8 191.694l2.63-11.294h2.63l-1.989 11.294z" class="cls-2" data-name="Path 28" transform="translate(-170.333 -4.415)"/><path id="Path_29" d="M257.815 176.1a8.29 8.29 0 0 0-2.951-.5c-3.208 0-5.517 1.571-5.517 3.832 0 1.7 1.6 2.576 2.887 3.141s1.668.942 1.668 1.445c0 .754-1.026 1.131-1.924 1.131a7.1 7.1 0 0 1-3.079-.628l-.449-.188-.45 2.575a10.6 10.6 0 0 0 3.657.628c3.4 0 5.645-1.571 5.645-3.958 0-1.319-.834-2.324-2.758-3.141-1.155-.565-1.86-.879-1.86-1.445 0-.5.577-1.005 1.86-1.005a5.992 5.992 0 0 1 2.438.44l.321.126.513-2.45z" class="cls-1" data-name="Path 29" transform="translate(-228.655)"/><path id="Path_30" d="M257.815 176.1a8.29 8.29 0 0 0-2.951-.5c-3.208 0-4.94 1.571-4.94 3.832a3.291 3.291 0 0 0 2.309 3.141c1.283.565 1.668.942 1.668 1.445 0 .754-1.026 1.131-1.924 1.131a7.1 7.1 0 0 1-3.079-.628l-.449-.188-.449 2.575a10.6 10.6 0 0 0 3.657.628c3.4 0 5.645-1.571 5.645-3.958 0-1.319-.834-2.324-2.758-3.141-1.155-.565-1.86-.879-1.86-1.445 0-.5.577-1.005 1.86-1.005a5.992 5.992 0 0 1 2.438.44l.321.126.513-2.45z" class="cls-2" data-name="Path 30" transform="translate(-228.655)"/><path id="Path_31" d="M364.879 180.4c-.77 0-1.347.063-1.668.816l-4.811 10.478h3.464l.641-1.882h4.106l.385 1.882h3.079l-2.694-11.294zm-1.475 7.53c.192-.565 1.283-3.326 1.283-3.326s.257-.69.449-1.129l.192 1.067s.642 2.824.77 3.451H363.4z" class="cls-1" data-name="Path 31" transform="translate(-330.494 -4.415)"/><path id="Path_32" d="M365.649 180.4c-.77 0-1.347.063-1.668.816l-5.581 10.478h3.464l.641-1.882h4.106l.385 1.882h3.079l-2.694-11.294zm-2.245 7.53c.257-.627 1.283-3.326 1.283-3.326s.257-.69.449-1.129l.192 1.067s.642 2.824.77 3.451H363.4z" class="cls-2" data-name="Path 32" transform="translate(-330.494 -4.415)"/><path id="Path_33" d="M56.011 189.043l-.321-1.631a9.162 9.162 0 0 0-4.49-4.957l2.887 10.039h3.464l5.2-11.294h-3.468z" class="cls-1" data-name="Path 33" transform="translate(-47.094 -5.151)"/><path id="Path_34" d="M56.011 189.043l-.321-1.631a9.162 9.162 0 0 0-4.49-4.957l2.887 10.039h3.464l5.2-11.294h-2.827z" class="cls-2" data-name="Path 34" transform="translate(-47.094 -5.151)"/><path id="Path_35" d="M0 180.4l.577.128c4.106.962 6.928 3.4 8.019 6.287l-1.155-5.453c-.192-.77-.77-.962-1.475-.962z" class="cls-3" data-name="Path 35" transform="translate(0 -4.415)"/><path id="Path_36" d="M0 180.4c4.106.962 7.506 3.464 8.6 6.351L7.506 182.2a1.566 1.566 0 0 0-1.54-1.219z" class="cls-4" data-name="Path 36" transform="translate(0 -4.415)"/><path id="Path_37" d="M0 180.4c4.106.962 7.506 3.464 8.6 6.351l-.77-2.5a2.262 2.262 0 0 0-1.347-1.86z" class="cls-5" data-name="Path 37" transform="translate(0 -4.415)"/><g id="Group_3" data-name="Group 3" transform="translate(4.17 177.268)"><path id="Path_38" d="M59.955 202.657l-2.181-2.127-1.026 2.378-.257-1.564A9.146 9.146 0 0 0 52 196.4l2.887 10.011h3.464z" class="cls-6" data-name="Path 38" transform="translate(-52 -196.4)"/><path id="Path_39" d="M188.072 292.023l-2.758-2.823-.513 2.823z" class="cls-6" data-name="Path 39" transform="translate(-174.42 -282.011)"/><path id="Path_40" d="M253.581 274.8c.257.257.385.449.321.706 0 .77-1.026 1.155-1.924 1.155a6.973 6.973 0 0 1-3.079-.641l-.449-.193-.449 2.63a10.4 10.4 0 0 0 3.657.641 6.351 6.351 0 0 0 4.683-1.6z" class="cls-6" data-name="Path 40" transform="translate(-232.753 -268.766)"/><path id="Path_41" d="M364 228h3.015l.642-1.924h4.106l.385 1.924h3.079l-1.091-4.683-3.849-3.721.192 1.026s.641 2.887.77 3.528h-2.694c.257-.641 1.283-3.4 1.283-3.4s.257-.706.449-1.155" class="cls-6" data-name="Path 41" transform="translate(-339.815 -217.992)"/></g></g></svg>