<svg width="66" height="83" viewBox="0 0 66 83" fill="none" xmlns="http://www.w3.org/2000/svg"><path d="M19.949 1h25.22c10.36 0 18.948 8.442 18.948 18.926v25.19c0 10.075-7.907 18.244-17.858 18.789L34.535 81.469c-.545.953-2.045.409-2.045-.544V64.04H19.95C9.589 64.041 1 55.599 1 45.115v-25.19C1 9.443 9.452 1 19.949 1z" fill="#EAA53D" stroke="#000" stroke-width="2" stroke-miterlimit="10"/><g clip-path="url(#a)"><path d="M21.864 25.618c-.816-9.788 6.804-12.574 10.716-12.744l5.614 1.02 4.082 3.058 2.041 4.078.51 6.627 1.531-.51 2.552 1.02v2.04l-1.021 1.529-3.062 1.53 1.02 2.548 3.063 3.059 4.082 2.549-1.02 1.53-3.573 1.529-1.53 2.548-1.531.51h-4.083l-7.654 3.059H31.56l-6.634-3.059h-5.103l-1.53-2.039-.511-1.02-4.082-1.529-.51-1.53 1.02-1.019 4.593-2.549 2.551-3.568-.51-1.53-3.062-1.529-1.02-2.04 1.53-1.529h3.062l.51-2.039z" fill="#fff"/><path d="M33.072 13.844c5.616.002 10.294 4.673 10.3 10.297.002 1.317.043 2.53.118 3.648a1.285 1.285 0 0 0 1.572 1.166l1.76-.412a.98.98 0 0 1 1.183.73 1.293 1.293 0 0 1-.836 1.5l-2.67 1.078a1.434 1.434 0 0 0-.847 1.706c2.143 7.913 8.127 7.09 8.127 8.12 0 1.295-4.51 1.478-4.918 1.885-.408.408-.018 2.384-.928 2.766-.172.072-.416.097-.713.097-.686 0-1.656-.133-2.678-.133-.887 0-1.813.1-2.627.476-2.16.997-4.243 2.859-6.824 2.859-2.582 0-4.664-1.862-6.824-2.859-.815-.376-1.74-.476-2.627-.476-1.023 0-1.993.133-2.678.133-.297 0-.542-.025-.713-.097-.91-.382-.52-2.358-.928-2.766-.408-.407-4.918-.59-4.918-1.884 0-1.031 5.984-.208 8.126-8.121a1.434 1.434 0 0 0-.846-1.706l-2.67-1.077a1.293 1.293 0 0 1-.836-1.5.98.98 0 0 1 1.183-.731l1.759.412a1.285 1.285 0 0 0 1.573-1.166 56.58 56.58 0 0 0 .117-3.648c.006-5.624 4.647-10.295 10.263-10.297zm0-2.231c-1.677 0-3.31.337-4.854 1a12.58 12.58 0 0 0-3.965 2.698 12.63 12.63 0 0 0-2.683 3.974 12.35 12.35 0 0 0-.995 4.853c-.001.823-.018 1.62-.051 2.385l-.655-.153a3.231 3.231 0 0 0-2.712.592c-.588.456-1 1.105-1.16 1.828a3.526 3.526 0 0 0 2.215 4.068l1.96.79c-1.297 3.98-3.69 4.742-5.302 5.256-.428.136-.797.254-1.149.428-1.4.695-1.552 1.872-1.552 2.346 0 .907.43 1.735 1.21 2.332.39.296.871.541 1.473.748.82.282 1.771.461 2.544.605.037.286.092.593.184.903.383 1.286 1.192 1.862 1.803 2.119.58.244 1.179.272 1.579.272.391 0 .805-.03 1.243-.063.47-.035.955-.071 1.435-.071.742 0 1.296.088 1.69.27.542.25 1.117.588 1.725.945 1.694.994 3.614 2.12 6.036 2.12 2.422 0 4.342-1.126 6.035-2.12.609-.357 1.184-.694 1.725-.944.395-.183.948-.271 1.69-.271.48 0 .966.036 1.436.07.438.033.851.064 1.243.064.4 0 .999-.028 1.578-.272.611-.257 1.42-.833 1.803-2.119.093-.31.147-.617.185-.903.773-.144 1.724-.323 2.544-.605.602-.207 1.083-.452 1.472-.748.78-.597 1.21-1.425 1.21-2.332 0-.474-.15-1.651-1.552-2.346-.352-.174-.721-.292-1.149-.428-1.611-.514-4.004-1.276-5.302-5.256l1.96-.79a3.526 3.526 0 0 0 2.216-4.068 3.195 3.195 0 0 0-1.16-1.828 3.246 3.246 0 0 0-2.713-.592l-.655.153a57.411 57.411 0 0 1-.05-2.385 12.29 12.29 0 0 0-1.004-4.858 12.646 12.646 0 0 0-2.697-3.974 12.647 12.647 0 0 0-3.976-2.694 12.285 12.285 0 0 0-4.857-1z" fill="#050505"/></g><defs><clipPath id="a"><path fill="#fff" transform="translate(12.169 10.834)" d="M0 0h41.844v41.803H0z"/></clipPath></defs></svg>