<svg width="91" height="83" viewBox="0 0 91 83" fill="none" xmlns="http://www.w3.org/2000/svg"><path d="M77.446 1H12.914C6.36 1 1 6.355 1 12.9v45.614c0 6.346 4.964 11.502 11.219 11.899l7.347 11.007c.397.595 1.29.297 1.29-.397v-10.61h56.59c6.553 0 11.914-5.355 11.914-11.9V12.9C89.36 6.355 83.999 1 77.446 1z" fill="#fff" stroke="#000" stroke-width="2" stroke-miterlimit="10"/><path d="M19.864 31.74c5.483 0 9.928-4.44 9.928-9.916 0-5.477-4.445-9.916-9.928-9.916-5.484 0-9.928 4.44-9.928 9.916s4.444 9.916 9.928 9.916z" fill="#EAA53D" stroke="#EAA53D" stroke-width="2" stroke-miterlimit="10"/><path d="M76.95 20.832H40.216a2.456 2.456 0 0 1-2.482-2.479 2.456 2.456 0 0 1 2.482-2.479H76.95a2.457 2.457 0 0 1 2.482 2.48 2.456 2.456 0 0 1-2.482 2.478zm-23.827 9.916H40.216a2.456 2.456 0 0 1-2.482-2.479 2.456 2.456 0 0 1 2.482-2.479h12.907a2.457 2.457 0 0 1 2.482 2.48 2.456 2.456 0 0 1-2.482 2.478z" fill="#EAA53D" stroke="#000" stroke-width="2" stroke-miterlimit="10"/><path d="M70.1 63.472H23.24a9.316 9.316 0 0 1-9.333-9.322v-5.156a9.316 9.316 0 0 1 9.333-9.321H70.1a9.316 9.316 0 0 1 9.332 9.321v5.156a9.316 9.316 0 0 1-9.332 9.322z" fill="#fff" stroke="#000" stroke-width="2" stroke-miterlimit="10"/><path d="M23.835 48.598h44.676m-44.676 5.949h22.834" stroke="#000" stroke-width="2" stroke-miterlimit="10" stroke-linecap="round"/><path d="M24.826 28.765c5.484 0 9.929-4.44 9.929-9.916s-4.445-9.916-9.929-9.916c-5.483 0-9.928 4.44-9.928 9.916 0 5.477 4.445 9.916 9.928 9.916z" fill="#fff" stroke="#000" stroke-width="2" stroke-miterlimit="10"/></svg>