<svg width="1306" height="565" viewBox="0 0 1306 565" fill="none" xmlns="http://www.w3.org/2000/svg"><g clip-path="url(#a)"><path d="M0 1001.02l37.673-3.995c40.086-4.157 79.411-11.657 117.045-26.579a123.435 123.435 0 0 0 41.178-26.352c27.905-27.152 55.491-54.624 74.627-88.943 6.17-11.072 10.501-23.435 13.993-35.679 3.491-12.244.946-17.413-10.315-23.581a228.438 228.438 0 0 0-29.624-13.323c-19.71-7.354-40.179-12.883-59.435-21.317-26.719-11.617-43.617-32.774-48.961-61.484-6.263-33.574 12.407-67.24 44.177-82.482 20.589-9.885 41.804-10.831 63.486-4.13 14.819 4.57 29.611 9.246 44.443 13.749a79.865 79.865 0 0 0 9.408 1.586c-1.332-14.162-2.505-27.565-3.771-40.968-2.839-30.256-7.876-60.472-8.182-90.755-1.453-140.915 79.224-264.657 210.195-318.241 122.295-50.081 243.444-44.432 358.476 22.235 89.379 51.799 143.057 130.857 161.997 232.696 7.17 38.503 6.26 77.273 1.33 116.042-3.17 24.86-5.33 49.854-7.9 74.794-.11 1.039 0 2.105 0 5.129 15.84-4.809 30.98-8.806 45.69-14.002 22.18-7.834 44.37-9.845 66.25-.4 31.33 13.536 50 37.597 50.13 71.944.13 34.346-18.42 59.539-49.12 73.861-19.58 9.126-40.96 14.295-61.3 22.009-10.91 4.157-21.32 9.659-31.73 15.082-6.49 3.397-8.88 9.126-8 16.746 1.95 17.973 9.8 33.561 19.31 48.349 22.09 34.493 50.35 63.776 81 90.488 16.15 14.043 36.77 20.158 56.98 26.34 38.65 11.817 78.42 17.066 118.61 19.637 6.83.44 8.54 2.664 8.27 9.064-.73 18.33 2 36.83-3.09 54.97-10.86 38.63-36.45 64.61-71.35 82.5-23.37 11.99-48.89 16.98-74.16 22.8-8.21 1.89-16.4 3.92-24.69 5.42-4.27.77-5.79 2.89-6.33 6.96-1.13 8.34-2.27 16.72-4.21 24.9-8.45 35.58-35.98 55.81-72.48 52.5-18.31-1.65-36.46-5.1-54.642-7.74-31.476-4.54-63.019-6.66-93.084 6.14-12.926 5.53-24.813 13.67-36.687 21.32-26.252 16.99-51.106 36.46-78.491 51.32-93.884 50.93-187.527 47.96-278.986-6.8-25.653-15.37-49.973-33.05-74.307-50.5-29.584-21.21-62.633-27.65-97.908-23.98-24.907 2.55-49.587 7.52-74.507 9.91-43.177 4.14-71.082-18.03-78.278-60.75a129.97 129.97 0 0 1-2.266-15.79c-.213-4.89-2.225-6.66-6.929-7.69-23.775-5.43-47.682-10.47-71.069-17.32-29.318-8.52-54.865-23.81-74.827-47.43a117.585 117.585 0 0 1-26.306-55.22c-.32-1.72-.88-3.38-1.333-5.08v-47.96zm43.977 39.82a20.04 20.04 0 0 0-.174 3.37c.206 1.99.54 3.95 1 5.89 5.837 23.37 20.762 39.7 40.792 52 19.069 11.69 40.471 16.62 61.913 21.48 19.03 4.31 38.007 8.84 56.97 13.43 9.328 2.24 14.926 7.59 16.072 17.77 1.492 13.44 3.491 26.85 6.09 40.12 2.958 15.08 10.421 20.61 25.679 20.38 2.675-.06 5.345-.26 7.996-.63 26.386-3.41 52.692-7.99 79.185-10.06 40.432-3.17 78.625 4.87 112.7 28.18 27.292 18.65 53.865 38.64 82.316 55.26 74.8 43.86 151.68 45.84 228.226 4.83 25.32-13.56 48.467-31.18 72.441-47.2 17.884-12 35.328-24.55 55.97-31.73 36.981-12.88 74.628-11.41 112.527-5.83 16.44 2.44 32.86 5.43 49.4 6.97 15.77 1.46 23.19-4.4 26.57-19.79 2.28-10.38 3.75-20.96 5.03-31.51 2.66-21.59 4.63-24.08 25.84-29.24.64-.16 1.33-.21 1.96-.37 25.88-6.16 51.97-11.55 77.57-18.66 24.23-6.75 45.43-19.09 59.97-40.48 6.95-10.17 11.68-21.32 12.11-34.3-2.4-.37-4.32-.73-6.25-.97-34.45-4.12-68.36-10.66-101.28-21.79-22.8-7.67-45.12-16.68-63.34-32.952-27.98-25.034-54.21-51.959-76.32-82.468-15.831-21.89-29.103-45.085-34.874-71.943-7.089-32.921 2.466-55.37 31.184-72.876a59.056 59.056 0 0 1 8.8-4.703c15.85-6.248 31.74-12.457 47.7-18.426 12.25-4.569 24.92-8.1 36.89-13.322 15.37-6.662 25.95-24.941 23.45-38.33-3.13-16.8-16.68-29.736-34.78-30.269-8.98-.267-18.35 2.544-27.06 5.409-20.07 6.661-40.13 12.923-61.3 14.468-12.33.906-24.404.2-35.585-5.942-4.277-2.345-6.41-5.329-5.877-10.658 1.333-14.135 2.066-28.338 3.452-42.473 3.305-33.307 8.262-66.614 10.035-100.001 5.623-105.716-32.89-192.315-116.858-257.263-56.357-43.579-121.416-64.243-192.325-66.947C595.83 186.519 528 201.96 467.605 241.809c-100.8 66.507-146.002 161.339-137.26 281.537 3.185 43.792 8.089 87.478 12.726 131.163.773 7.328-2.145 10.738-7.836 13.39a56.205 56.205 0 0 1-34.488 4.543c-19.11-3.598-37.98-8.527-56.903-13.083-8.382-2.012-16.511-5.463-24.974-6.542-15.511-1.985-30.916 7.314-37.566 21.317-6.117 12.843-3.518 26.139 8.409 38.156a42.851 42.851 0 0 0 14.592 10.059c18.044 6.781 36.474 12.523 54.638 18.945 17.843 6.302 35.221 13.602 49.733 26.232 14.752 12.857 21.202 29.004 19.723 48.575-1.812 23.848-10.768 45.138-22.868 65.282-22.868 38.103-53.305 69.745-85.834 99.508a141.583 141.583 0 0 1-25.747 18.652c-33.489 18.907-70.349 27.787-107.756 34.637-13.952 2.67-27.998 4.48-42.217 6.66z" fill="#000"/><path d="M617.552 419.482a35.99 35.99 0 0 0 50.88 0" stroke="#000" stroke-width="25" stroke-miterlimit="10" stroke-linecap="round"/><path d="M435.103 470.255c25.391 0 45.975-20.579 45.975-45.964 0-25.385-20.584-45.963-45.975-45.963-25.392 0-45.976 20.578-45.976 45.963s20.584 45.964 45.976 45.964z" fill="#000"/><path d="M435.209 401.096a23.763 23.763 0 0 1 23.774 23.755" stroke="#fff" stroke-width="5.17" stroke-miterlimit="10" stroke-linecap="round"/><path d="M402.333 493.023h61.247" stroke="#EAA53D" stroke-width="17.82" stroke-miterlimit="10" stroke-linecap="round"/><path d="M866.873 470.255c25.392 0 45.976-20.579 45.976-45.964 0-25.385-20.584-45.963-45.976-45.963s-45.976 20.578-45.976 45.963 20.584 45.964 45.976 45.964z" fill="#000"/><path d="M866.979 401.096a23.759 23.759 0 0 1 16.81 6.953 23.753 23.753 0 0 1 6.964 16.802" stroke="#fff" stroke-width="5.17" stroke-miterlimit="10" stroke-linecap="round"/><path d="M835.729 493.023h61.248" stroke="#EAA53D" stroke-width="17.82" stroke-miterlimit="10" stroke-linecap="round"/><path d="M385.155 511.982l26.48-26.473m8.169 26.473l26.479-26.473m8.169 26.473l26.479-26.473m335.995 26.473l26.48-26.473m8.169 26.473l26.479-26.473m8.169 26.473l26.479-26.473" stroke="#000" stroke-width="13.92" stroke-miterlimit="10" stroke-linecap="round"/><path d="M780.052 202.213L897.23 10.365a2.347 2.347 0 0 1 4.345.973l5.557 53.29a2.335 2.335 0 0 0 1.306 1.871 2.348 2.348 0 0 0 2.278-.125l53.932-33.986a2.344 2.344 0 0 1 3.585 2.265L961.29 92.5a2.333 2.333 0 0 0 .883 2.138 2.342 2.342 0 0 0 2.288.34l52.199-19.984c.47-.184.98-.214 1.47-.085.48.129.91.41 1.23.802.31.393.49.875.51 1.377.01.501-.13.996-.41 1.41L889.301 276.914c-.291.45-.729.784-1.239.946-5.184 1.626-34.768 9.326-69.83-13.589-29.318-19.211-37.313-54.33-38.486-60.392a2.361 2.361 0 0 1 .306-1.666z" fill="#EAA53D" stroke="#000" stroke-width="13.92" stroke-miterlimit="10"/></g><defs><clipPath id="a"><path fill="#fff" d="M0 0h1306v1366H0z"/></clipPath></defs></svg>