<svg width="498" height="535" viewBox="0 0 498 535" fill="none" xmlns="http://www.w3.org/2000/svg"><g clip-path="url(#a)"><path d="M0 387.427l14.366-1.524c15.286-1.585 30.282-4.445 44.632-10.135a47.075 47.075 0 0 0 15.703-10.049c10.64-10.354 21.16-20.83 28.457-33.917 2.353-4.222 4.005-8.936 5.336-13.605 1.331-4.669.361-6.64-3.933-8.992a87.114 87.114 0 0 0-11.297-5.081c-7.516-2.804-15.321-4.912-22.664-8.128-10.189-4.43-16.632-12.498-18.67-23.446-2.389-12.803 4.73-25.641 16.845-31.453 7.852-3.769 15.942-4.13 24.21-1.575 5.65 1.743 11.291 3.526 16.947 5.243 1.183.273 2.381.475 3.588.605-.508-5.401-.956-10.511-1.438-15.622-1.083-11.538-3.004-23.06-3.121-34.608-.553-53.735 30.211-100.921 80.154-121.354 46.634-19.097 92.832-16.943 136.697 8.479 34.083 19.752 54.552 49.899 61.773 88.733 2.734 14.683 2.388 29.467.508 44.25-1.209 9.48-2.032 19.011-3.013 28.522-.041.396 0 .802 0 1.956 6.042-1.834 11.815-3.359 17.425-5.34 8.456-2.987 16.917-3.754 25.261-.152 11.947 5.161 19.066 14.336 19.117 27.434.051 13.097-7.023 22.704-18.731 28.165-7.465 3.48-15.621 5.451-23.376 8.393-4.162 1.585-8.13 3.683-12.099 5.751-2.475 1.295-3.385 3.48-3.049 6.386.742 6.853 3.735 12.797 7.363 18.437 8.421 13.153 19.199 24.319 30.887 34.505 6.159 5.355 14.02 7.687 21.729 10.044 14.737 4.507 29.901 6.508 45.227 7.489 2.607.167 3.257 1.016 3.156 3.454-.28 6.991.762 14.048-1.179 20.962-4.142 14.733-13.899 24.64-27.208 31.463-8.913 4.572-18.644 6.472-28.279 8.692-3.131.722-6.256 1.494-9.417 2.068-1.626.295-2.205 1.102-2.413 2.652-.432 3.18-.864 6.376-1.606 9.495-3.222 13.57-13.721 21.282-27.639 20.022-6.983-.63-13.904-1.946-20.835-2.952-12.003-1.732-24.032-2.54-35.496 2.342-4.929 2.108-9.462 5.213-13.99 8.129-10.011 6.477-19.488 13.905-29.931 19.569-35.8 19.422-71.509 18.29-106.385-2.591-9.782-5.863-19.056-12.604-28.335-19.259-11.282-8.088-23.884-10.542-37.335-9.145-9.498.975-18.909 2.87-28.412 3.78-16.465 1.58-27.106-6.874-29.85-23.167a49.479 49.479 0 0 1-.864-6.02c-.081-1.864-.849-2.54-2.642-2.931-9.066-2.073-18.183-3.994-27.1-6.605-11.18-3.251-20.922-9.078-28.535-18.086A44.844 44.844 0 0 1 .51 407.652c-.123-.655-.336-1.29-.509-1.936v-18.289zm16.77 15.185c-.059.426-.08.856-.067 1.286.079.756.206 1.506.382 2.245 2.225 8.911 7.917 15.14 15.555 19.829 7.271 4.455 15.433 6.335 23.61 8.189 7.256 1.646 14.492 3.374 21.723 5.121 3.558.854 5.692 2.896 6.129 6.778a186.966 186.966 0 0 0 2.322 15.296c1.128 5.751 3.974 7.86 9.793 7.773 1.02-.02 2.038-.1 3.049-.238 10.061-1.301 20.093-3.049 30.195-3.836 15.418-1.209 29.982 1.854 42.976 10.745 10.407 7.112 20.54 14.733 31.389 21.073 28.524 16.725 57.84 17.477 87.029 1.839 9.655-5.171 18.482-11.888 27.624-17.999 6.82-4.573 13.472-9.358 21.343-12.097 14.102-4.912 28.458-4.354 42.91-2.225 6.271.93 12.531 2.073 18.838 2.657 6.011.559 8.842-1.676 10.133-7.544.869-3.958 1.428-7.992 1.915-12.015 1.017-8.235 1.769-9.186 9.854-11.152.244-.061.508-.081.747-.142 9.868-2.347 19.818-4.405 29.58-7.112 9.239-2.576 17.324-7.281 22.868-15.44 2.653-3.876 4.457-8.128 4.619-13.076-.915-.143-1.646-.28-2.383-.371-13.136-1.57-26.069-4.065-38.621-8.312-8.695-2.921-17.207-6.36-24.153-12.564-10.672-9.546-20.672-19.813-29.103-31.447-6.037-8.347-11.098-17.192-13.299-27.434-2.703-12.554.94-21.114 11.891-27.79a22.776 22.776 0 0 1 3.354-1.793c6.048-2.383 12.105-4.75 18.193-7.026 4.67-1.743 9.502-3.089 14.066-5.08 5.859-2.541 9.894-9.511 8.944-14.617-1.195-6.406-6.363-11.339-13.264-11.542-3.425-.102-6.997.97-10.321 2.062-7.653 2.541-15.3 4.928-23.375 5.518-4.701.345-9.305.076-13.568-2.266-1.632-.894-2.445-2.032-2.241-4.064.508-5.391.787-10.806 1.316-16.197 1.26-12.701 3.15-25.401 3.826-38.133 2.145-40.313-12.541-73.335-44.561-98.102-21.49-16.618-46.299-24.497-73.339-25.529-27.441-1.046-53.307 4.842-76.337 20.037-38.438 25.362-55.675 61.524-52.341 107.359 1.214 16.699 3.084 33.357 4.853 50.016.295 2.794-.818 4.095-2.988 5.106a21.43 21.43 0 0 1-13.152 1.732c-7.287-1.372-14.482-3.251-21.698-4.989-3.197-.767-6.297-2.083-9.523-2.494-5.916-.757-11.79 2.789-14.326 8.128-2.332 4.898-1.341 9.968 3.207 14.55a16.332 16.332 0 0 0 5.564 3.836c6.88 2.586 13.909 4.776 20.835 7.224 6.805 2.403 13.431 5.187 18.965 10.004 5.625 4.902 8.085 11.06 7.521 18.523-.691 9.093-4.106 17.212-8.72 24.893-8.72 14.53-20.327 26.596-32.731 37.946a54.036 54.036 0 0 1-9.818 7.112c-12.77 7.209-26.826 10.598-41.09 13.209-5.321 1.016-10.677 1.707-16.1 2.54z" fill="#000"/><path fill-rule="evenodd" clip-rule="evenodd" d="M232.119 162.299a4.767 4.767 0 0 1 6.741-.001 8.956 8.956 0 0 0 12.662 0 4.767 4.767 0 1 1 6.74 6.742 18.487 18.487 0 0 1-26.141 0 4.767 4.767 0 0 1-.002-6.741zm-48.67 5.204c0 9.68-7.85 17.528-17.532 17.528-9.683 0-17.532-7.848-17.532-17.528s7.849-17.527 17.532-17.527c9.682 0 17.532 7.847 17.532 17.527zm-17.491-7.859a8.078 8.078 0 0 1 8.08 8.073.985.985 0 0 0 1.971 0 10.044 10.044 0 0 0-10.052-10.044.986.986 0 0 0 .001 1.971z" fill="#000"/><path fill-rule="evenodd" clip-rule="evenodd" d="M150.023 193.713a3.398 3.398 0 0 1 3.398-3.398h23.356a3.397 3.397 0 0 1 0 6.795h-23.356a3.398 3.398 0 0 1-3.398-3.397z" fill="#EAA53D"/><path fill-rule="evenodd" clip-rule="evenodd" d="M348.095 167.503c0 9.68-7.849 17.528-17.532 17.528-9.682 0-17.531-7.848-17.531-17.528s7.849-17.527 17.531-17.527c9.683 0 17.532 7.847 17.532 17.527zm-17.49-7.859a8.078 8.078 0 0 1 8.079 8.073.985.985 0 0 0 1.972 0 10.045 10.045 0 0 0-10.052-10.044.986.986 0 1 0 .001 1.971z" fill="#000"/><path fill-rule="evenodd" clip-rule="evenodd" d="M315.29 193.713a3.398 3.398 0 0 1 3.398-3.398h23.355a3.398 3.398 0 0 1 0 6.795h-23.355a3.397 3.397 0 0 1-3.398-3.397z" fill="#EAA53D"/><path fill-rule="evenodd" clip-rule="evenodd" d="M158.845 188.971a2.654 2.654 0 0 1 0 3.753l-10.098 10.095a2.654 2.654 0 0 1-3.753-3.754l10.098-10.095a2.654 2.654 0 0 1 3.753.001zm13.212 0a2.653 2.653 0 0 1 0 3.753l-10.097 10.095a2.655 2.655 0 0 1-3.753-3.754l10.097-10.095a2.654 2.654 0 0 1 3.753.001zm13.213 0a2.654 2.654 0 0 1-.001 3.753l-10.097 10.095a2.654 2.654 0 0 1-3.753-3.754l10.097-10.095a2.655 2.655 0 0 1 3.754.001zm138.222 0a2.654 2.654 0 0 1-.001 3.753l-10.097 10.095a2.655 2.655 0 0 1-3.753-3.754l10.097-10.095a2.655 2.655 0 0 1 3.754.001zm13.212 0a2.654 2.654 0 0 1-.001 3.753l-10.097 10.095a2.654 2.654 0 0 1-3.753-3.754l10.098-10.095a2.654 2.654 0 0 1 3.753.001zm13.212 0a2.654 2.654 0 0 1 0 3.753l-10.097 10.095a2.655 2.655 0 0 1-3.753-3.754l10.097-10.095a2.654 2.654 0 0 1 3.753.001z" fill="#000"/><path d="M297.456 82.819L342.14 9.66a.888.888 0 0 1 .962-.412.891.891 0 0 1 .694.783l2.119 20.322a.892.892 0 0 0 .498.713.897.897 0 0 0 .869-.048l20.566-12.96a.894.894 0 0 1 1.367.864l-2.648 22.059a.896.896 0 0 0 1.21.945l19.905-7.62a.894.894 0 0 1 1.067 1.335l-49.633 75.662a.879.879 0 0 1-.473.361c-1.976.62-13.258 3.556-26.628-5.182-11.179-7.326-14.228-20.718-14.676-23.03a.9.9 0 0 1 .117-.634z" fill="#EAA53D" stroke="#000" stroke-width="5" stroke-miterlimit="10"/></g><defs><clipPath id="a"><path fill="#fff" d="M0 0h498v535H0z"/></clipPath></defs></svg>