<svg width="179" height="20" viewBox="0 0 179 20" fill="none" xmlns="http://www.w3.org/2000/svg"><path d="M24.225 10.1c0 3.267-1.3 5.783-3.9 7.55a10.212 10.212 0 0 1-3.525 1.525c-1.267.283-2.742.425-4.425.425-3 0-5.483-.558-7.45-1.675C4.042 17.408 3.3 16.8 2.7 16.1c-.6-.7-1.033-1.417-1.3-2.15a14.09 14.09 0 0 1-.525-1.9A11.63 11.63 0 0 1 1.1 7.525c.25-.9.583-1.658 1-2.275.417-.617.817-1.125 1.2-1.525.4-.4.825-.75 1.275-1.05C6.508 1.358 9.117.7 12.4.7c1.5 0 2.833.108 4 .325 1.167.217 2.142.525 2.925.925.8.4 1.45.825 1.95 1.275.5.433.95.942 1.35 1.525 1.067 1.583 1.6 3.367 1.6 5.35zm-6.5.05a6.62 6.62 0 0 0-.225-1.7c-.15-.567-.4-1.15-.75-1.75-.35-.617-.892-1.117-1.625-1.5-.717-.383-1.575-.575-2.575-.575-1.717 0-3.033.542-3.95 1.625-.9 1.067-1.35 2.375-1.35 3.925 0 .65.092 1.283.275 1.9.183.6.467 1.183.85 1.75.383.567.933 1.025 1.65 1.375.733.333 1.583.5 2.55.5 1.033 0 1.917-.192 2.65-.575.733-.383 1.267-.883 1.6-1.5.333-.617.567-1.2.7-1.75.133-.567.2-1.142.2-1.725zM46.962 19h-5.25l-8.375-9.45V19h-6.25V1.35h5.225l8.425 9.3v-9.3h6.225V19zm22.9 0h-18.85V1.35h18.625V5.3h-12.3v2.9h11.375v3.975H57.337V15h12.525v4zm1.262-5.275l6.225-.175c.3 1.35 1.6 2.025 3.9 2.025.967 0 1.717-.158 2.25-.475.55-.317.825-.75.825-1.3 0-.75-.608-1.25-1.825-1.5l-4.325-.85c-2.15-.433-3.717-1.033-4.7-1.8-.983-.783-1.475-1.908-1.475-3.375 0-1.067.317-2.017.95-2.85 1.35-1.883 4-2.825 7.95-2.825 2.4 0 4.25.233 5.55.7 1.417.483 2.458 1.317 3.125 2.5.317.583.517 1.233.6 1.95l-6.175.35c-.117-.483-.375-.85-.775-1.1-.4-.267-.775-.417-1.125-.45a8.441 8.441 0 0 0-1.225-.075c-1.85 0-2.775.467-2.775 1.4 0 .483.25.842.75 1.075.517.233 1.483.492 2.9.775l2.225.45c.567.117.95.2 1.15.25.2.033.583.133 1.15.3.583.15 1.008.292 1.275.425a9.36 9.36 0 0 1 1.075.625c.45.267.783.558 1 .875.217.3.408.683.575 1.15.183.45.275.942.275 1.475a5.343 5.343 0 0 1-1.125 3.325c-1.517 1.95-4.517 2.925-9 2.925-5.733 0-8.808-1.933-9.225-5.8zM110.237 5.3h-6.25V19h-6.35V5.3h-6.275V1.35h18.875V5.3zm23.412 4.8c0 3.267-1.3 5.783-3.9 7.55a10.224 10.224 0 0 1-3.525 1.525c-1.267.283-2.742.425-4.425.425-3 0-5.484-.558-7.45-1.675-.884-.517-1.625-1.125-2.225-1.825-.6-.7-1.034-1.417-1.3-2.15a14.09 14.09 0 0 1-.525-1.9 11.6 11.6 0 0 1 .225-4.525c.25-.9.583-1.658 1-2.275a11.47 11.47 0 0 1 1.2-1.525c.4-.4.825-.75 1.275-1.05C115.932 1.358 118.54.7 121.824.7c1.5 0 2.833.108 4 .325 1.166.217 2.141.525 2.925.925.8.4 1.45.825 1.95 1.275.5.433.95.942 1.35 1.525 1.066 1.583 1.6 3.367 1.6 5.35zm-6.5.05a6.62 6.62 0 0 0-.225-1.7c-.15-.567-.4-1.15-.75-1.75-.35-.617-.892-1.117-1.625-1.5-.717-.383-1.575-.575-2.575-.575-1.717 0-3.034.542-3.95 1.625-.9 1.067-1.35 2.375-1.35 3.925 0 .65.091 1.283.275 1.9.183.6.466 1.183.85 1.75.383.567.933 1.025 1.65 1.375.733.333 1.583.5 2.55.5 1.033 0 1.916-.192 2.65-.575.733-.383 1.266-.883 1.6-1.5a7.41 7.41 0 0 0 .7-1.75c.133-.567.2-1.142.2-1.725zM156.761 19h-6.975l-3.65-6.425h-3.35V19h-6.35V1.35h13c1.467 0 2.683.15 3.65.45.967.3 1.775.958 2.425 1.975.6.967.9 2.025.9 3.175 0 .3-.017.592-.05.875-.033.283-.133.658-.3 1.125-.15.45-.367.858-.65 1.225-.267.367-.667.717-1.2 1.05-.517.333-1.133.575-1.85.725l4.4 7.05zM142.786 5.35V8.6h4.75c1.133 0 1.875-.208 2.225-.625.233-.283.35-.617.35-1 0-.35-.092-.65-.275-.9-.333-.483-.933-.725-1.8-.725h-5.25zm35.662-4l-8 12.4V19h-6.275v-5.25l-8.1-12.4h7.375l3.85 7.025 3.85-7.025h7.3z" fill="#fff"/></svg>