<svg width="22" height="21" viewBox="0 0 22 21" fill="none" xmlns="http://www.w3.org/2000/svg"><path fill-rule="evenodd" clip-rule="evenodd" d="M20.939 19.218a.593.593 0 0 1 .178.44c0 .175-.06.321-.178.439a.757.757 0 0 1-.168.127.484.484 0 0 1-.188.058 1.003 1.003 0 0 1-.197 0 .484.484 0 0 1-.188-.058.757.757 0 0 1-.168-.127l-5.572-5.549c-1.554 1.342-3.359 2.013-5.414 2.013a8.179 8.179 0 0 1-4.13-1.085 8.015 8.015 0 0 1-2.992-2.96A7.965 7.965 0 0 1 .825 8.425c0-1.478.365-2.843 1.097-4.093a8.014 8.014 0 0 1 2.993-2.96A8.178 8.178 0 0 1 9.045.287a8.12 8.12 0 0 1 3.2.645 8.179 8.179 0 0 1 2.618 1.738 8.274 8.274 0 0 1 1.749 2.599 7.874 7.874 0 0 1 .652 3.165c0 1.966-.64 3.705-1.917 5.216l5.592 5.568zM9.044 15.29H9.4c1.831-.104 3.385-.814 4.663-2.13 1.29-1.328 1.936-2.91 1.936-4.747a6.621 6.621 0 0 0-.938-3.438 6.964 6.964 0 0 0-2.54-2.51 6.83 6.83 0 0 0-3.487-.929 6.83 6.83 0 0 0-3.487.928 6.888 6.888 0 0 0-2.529 2.51 6.674 6.674 0 0 0-.929 3.44c0 1.236.31 2.383.93 3.437a6.887 6.887 0 0 0 2.528 2.51 6.849 6.849 0 0 0 3.497.929zm3.162-7.502a.61.61 0 0 1 .444.185c.125.124.188.27.188.44 0 .17-.063.316-.188.44a.61.61 0 0 1-.444.185h-2.53v2.5c0 .17-.062.317-.187.44a.622.622 0 0 1-.455.186.59.59 0 0 1-.444-.186.614.614 0 0 1-.178-.44v-2.5H5.883a.602.602 0 0 1-.454-.185.614.614 0 0 1-.178-.44c0-.17.06-.316.178-.44a.602.602 0 0 1 .454-.185h2.53v-2.5a.61.61 0 0 1 .177-.44.59.59 0 0 1 .444-.186c.178 0 .33.062.455.186.125.123.188.27.188.44v2.5h2.529z" fill="#F3819C"/></svg>