<svg xmlns="http://www.w3.org/2000/svg" xmlns:xlink="http://www.w3.org/1999/xlink" width="110" height="50" viewBox="0 0 110 50"><defs><path id="a" d="M0 49.765h109.5V0H0z"/></defs><g fill="none" fill-rule="evenodd"><path fill="#FFF" d="M24.993 45.014l-.166.001c-11.088 0-20.076-9.014-20.076-20.133S13.739 4.75 24.827 4.75h60.026c11.013.09 19.898 9.07 19.898 20.132 0 11.064-8.9 20.043-19.912 20.132H24.993z"/><path stroke="#FFF" stroke-width="9.5" d="M24.993 45.014l-.166.001c-11.088 0-20.076-9.014-20.076-20.133S13.739 4.75 24.827 4.75h60.026c11.013.09 19.898 9.07 19.898 20.132 0 11.064-8.9 20.043-19.912 20.132H24.993z"/><path fill="#ED1C24" d="M24.993 45.014l-.166.001c-11.088 0-20.076-9.014-20.076-20.133S13.739 4.75 24.827 4.75h60.026c11.013.09 19.898 9.07 19.898 20.132 0 11.064-8.9 20.043-19.912 20.132H24.993z"/><path fill="#FFF" d="M73.329 17.476h.445v-1.689c0-.205.195-.693.725-.693.398 0 .509.252.509.604v1.778h.445v-1.689c0-.419.278-.693.708-.693.436 0 .524.268.524.604v1.778h.447v-1.988c0-.562-.363-.787-.903-.787-.345 0-.666.173-.85.462-.11-.33-.413-.462-.744-.462a.997.997 0 0 0-.875.462h-.011v-.399h-.42v2.712zm6.838-2.712H79.7l-.74 2.261h-.011l-.76-2.261h-.499l1.008 2.712h.477z"/><mask id="b" fill="#fff"><use xlink:href="#a"/></mask><path fill="#FFF" d="M80.755 14.276h.446v-.545h-.446v.545zm-.001 3.2h.446v-2.712h-.446v2.712zm1.616-1.333c0-.529.204-1.049.813-1.049.614 0 .855.493.855 1.028 0 .51-.231 1.023-.83 1.023-.576 0-.838-.492-.838-1.002zm2.098-2.412h-.446v1.394h-.01c-.2-.319-.598-.424-.876-.424-.828 0-1.238.645-1.238 1.411 0 .765.414 1.427 1.248 1.427.373 0 .719-.13.866-.43h.01v.367h.447v-3.745h-.001zm1.163 2.129c.031-.414.31-.766.776-.766.441 0 .761.34.782.766h-1.558zm1.548.756c-.079.35-.336.529-.703.529-.593 0-.86-.42-.845-.891h2.03c.026-.656-.267-1.553-1.227-1.553-.74 0-1.276.598-1.276 1.41.027.83.436 1.428 1.302 1.428.608 0 1.038-.325 1.16-.923h-.44zm1.63-.494c0-.66.377-1.027.844-1.027.468 0 .844.366.844 1.027 0 .655-.376 1.023-.844 1.023-.467 0-.844-.367-.844-1.023m-.473 0c0 .793.457 1.416 1.317 1.416.86 0 1.317-.623 1.317-1.416 0-.796-.456-1.421-1.317-1.421-.86 0-1.317.624-1.317 1.421m3.41 1.354h.583v-.582h-.583zm1.494 0h.446V16.27c0-.687.262-1.096.98-1.096v-.472c-.482-.016-.78.2-.995.634h-.011v-.57h-.42v2.711zm4.315-2.712h-.445v1.531c0 .49-.263.85-.803.85-.34 0-.55-.215-.55-.545v-1.836h-.447v1.783c0 .582.221.991.933.991.39 0 .693-.157.882-.493h.01v.431h.42v-2.712zM41.66 13.022h.313c.155 0 .328.034.328.221 0 .22-.173.238-.364.238h-.276v-.459zm0 .645h.26l.398.629h.242l-.415-.645c.225-.018.38-.137.38-.392 0-.288-.173-.424-.518-.424h-.571v1.461h.225v-.629z" mask="url(#b)"/><path fill="#FFF" d="M41.937 12.512c.588 0 1.038.458 1.038 1.053 0 .612-.45 1.053-1.038 1.053-.588 0-1.055-.44-1.055-1.053a1.043 1.043 0 0 1 1.055-1.053m0 2.345c.691 0 1.297-.56 1.297-1.292 0-.73-.606-1.257-1.297-1.257-.708 0-1.331.526-1.331 1.257 0 .73.623 1.292 1.331 1.292m-1.602 17.306a1.4 1.4 0 1 1-2.802-.002 1.4 1.4 0 0 1 2.803.002m14.469-14.714c1.385-.125-5.275 6.964-6.977 7.31-.55-.315 4.22-6.632 6.977-7.31m2.881-2.27c-2.063-1.148-11.242 1.452-14.188 11.375-.346.096-2.012.529-2.012.529l-.729 1.962 2.583-.788s-.283 4.757 4.048 4.899c3.401-.127 5.18-4.963 4.091-8.365-.207.109-2.926 1.417-2.926 1.417s.63 3.734-.882 4.19c-.489.064-1.063-1.43-.537-3.67C54.36 22.97 58.941 15.885 57.686 15.18" mask="url(#b)"/><path fill="#FFF" d="M53.718 24.24v1.4s1.843-1.196 1.984-.975c.046.63-2.283 5.955-2.33 6.758-.048.489.408 2.332 2.566 1.37 1.055-.455 3.886-2.776 3.886-2.776s-.456 1.184-.262 2.13c.191.947 1.366 1.197 2.425.804 1.06-.393 2.268-1.197 2.79-1.827-.08-.205-.379-1.151-.379-1.151s-.95.896-1.183.78c-.235-.118 2.694-8.703 2.694-8.703s-3.003-.117-3.302-.117c-.495 2.256-3.3 7.977-5.235 8.23-.663-.048 2.346-6.76 2.457-7.515.22-.993-.522-1.45-1.402-1.245-.929.316-4.709 2.837-4.709 2.837m17.019 5.768c-.466.26-1.191.69-1.294-.95-.052-1.936 1.505-4.098 1.802-4.437.777-.88 1.747-.897 1.72.497-.101 1.607-1.14 4.146-2.228 4.89zm3.617-8.17s-.364.898-.432 1.053c-.38-.656-1.694-1.935-4.407-.24-2.831 1.83-4.041 4.957-3.66 8.273.414 2.746 3.385 3.074 5.388.742-.206.606-2.331 7.135-2.331 7.135l3.299.017 5.39-16.912-3.247-.068zM21.375 32.934c-1.65-1.743-.366-4.953-.09-7.797-.369.368-4.037 8.897-7.338 8.528-2.934-.915-2.568-4.217-1.651-6.693h4.768c-1.466 4.034.55 2.384 1.927-.184 2.75-5.594 2.934-6.052 5.96-14.49h5.23c-1.56 4.77-3.029 9.447-3.669 14.4 0 .182.091.365.274.274 1.1-.184 7.154-13.757 7.703-14.675h5.044c0 .46-5.593 15.775-4.677 17.242.46.826 1.102-.733 1.652-1.376l.826.827c-1.65 1.835-3.576 5.134-6.328 4.586a2.198 2.198 0 0 1-1.009-.55c-2.845-2.477 2.292-11.428 1.742-12.016-.17.02-.341.475-.642 1.101-1.56 3.211-5.135 11.647-8.072 11.647-.457 0-1.377-.457-1.65-.824m60.235-7.181c.88-1.555 2.298-2.764 2.989-2.279.69.483-.71 2.936-4.003 5.542-.132-.227.133-1.707 1.014-3.263m-.811 4.665c6.115-3.214 7.582-7.29 5.7-8.43-2.782-1.555-10.4 1.226-9.535 8.845-.381.224-1.176.656-1.176.656l.553 1.52s1.123-.673 1.413-.874c3.89 3.154 8.162-2.019 8.162-2.019l-.747-1.149s-3.232 3.108-4.37 1.451" mask="url(#b)"/><path fill="#FFF" d="M90.818 22.109l3.542-.104s-4.975 3.925-4.25 7.636c.572 2.255 2.677 1.156 3.835-1.4.223-.5 1.623-3.903.742-3.903s-1.801 1.745-1.801 1.745l-.964-.968s1.953-2.781 4.175-3.527c.266-.083 1.87-.412 1.889 1.885.07 1.072-1.086 6.946-5.111 9.018-3.693 1.898-5.313-.375-5.605-1.054-2.022-5.021 3.548-9.328 3.548-9.328" mask="url(#b)"/></g></svg>