<svg xmlns="http://www.w3.org/2000/svg" xmlns:xlink="http://www.w3.org/1999/xlink" width="130" height="27" viewBox="0 0 130 27"><defs><path id="a" d="M0 27h130V.374H0z"/></defs><g fill="none" fill-rule="evenodd"><path fill="#EF3124" d="M125.542 5.159l-4.437 4.971V5.159h-3.209v12.55h3.209v-5.282l4.748 5.282H130l-5.84-6.576 5.416-5.974zm-13.307 4.682h-4.436V5.16h-3.21v12.549h3.21v-4.948h4.436v4.948h3.21V5.16h-3.21z"/><g transform="translate(0 -.374)"><path fill="#EF3124" d="M19.06 12.332c-.078 2.34-.38 2.81-1.695 2.81v2.941h.49c3.281 0 4.07-1.694 4.191-5.46l.133-4.17h3.076v9.63h3.211V5.533h-9.184l-.223 6.8zm17.139 2.988h-2.073v-3.19h2.073c1.115 0 1.783.491 1.783 1.54 0 1.135-.645 1.648-1.783 1.648m.245-5.974h-2.318V5.533h-3.209v12.55h5.572c3.5 0 4.748-2.273 4.748-4.413 0-2.765-1.738-4.325-4.793-4.325m15.248 5.997V8.254c1.783.245 2.897 1.582 2.897 3.544 0 1.96-1.114 3.299-2.897 3.544zm-3.21 0c-1.783-.245-2.898-1.583-2.898-3.544 0-1.962 1.115-3.3 2.898-3.544v7.088zm3.21-10.098V.584h-3.21v4.66c-3.678.312-6.152 2.92-6.152 6.554 0 3.655 2.474 6.264 6.152 6.575V23.1h3.21v-4.727c3.678-.29 6.152-2.92 6.152-6.575 0-3.656-2.474-6.264-6.152-6.554zm14.98 8.158c0 1.45-1.025 2.274-2.363 2.274-1.158 0-2.073-.424-2.073-1.672 0-1.226 1.003-1.427 1.873-1.427h2.563v.825zm3.21.825v-4.213c0-3.076-1.962-5.016-5.261-5.016-3.41 0-5.216 2.051-5.372 4.191h3.255c.11-.468.602-1.27 2.117-1.27 1.248 0 2.05.58 2.05 2.095h-3.187c-2.853 0-4.547 1.493-4.547 3.99 0 2.608 1.853 4.392 4.525 4.392 1.959 0 3.047-.927 3.522-1.628.423.847 1.36 1.315 2.585 1.315h1.116v-2.898c-.58 0-.803-.267-.803-.958zm13.598.691h-3.434V10.37h3.433c1.783 0 2.787.825 2.787 2.274 0 1.494-1.004 2.274-2.787 2.274m.156-7.602h-3.589V3.772h8.315V.585h-11.68v17.498h6.954c3.857 0 6.064-1.917 6.064-5.439 0-3.32-2.207-5.328-6.064-5.328m15.136 6.086c0 1.45-1.025 2.274-2.362 2.274-1.159 0-2.074-.424-2.074-1.672 0-1.226 1.003-1.427 1.873-1.427h2.563v.825zm3.21.825v-4.213c0-3.076-1.96-5.016-5.26-5.016-3.41 0-5.217 2.051-5.373 4.191h3.255c.111-.468.602-1.27 2.117-1.27 1.248 0 2.051.58 2.051 2.095h-3.188c-2.853 0-4.547 1.493-4.547 3.99 0 2.608 1.853 4.392 4.525 4.392 1.96 0 3.047-.927 3.522-1.628.423.847 1.36 1.315 2.586 1.315h1.115v-2.898c-.58 0-.803-.267-.803-.958z"/><mask id="b" fill="#fff"><use xlink:href="#a"/></mask><path fill="#EF3124" d="M0 27h17.165v-3.566H0zm6.13-15.537l2.408-7.155h.089l2.274 7.155H6.13zm5.572-8.476c-.49-1.46-1.053-2.612-2.986-2.612-1.933 0-2.533 1.148-3.048 2.612L.357 18.084h3.522l1.226-3.59h6.777l1.137 3.59h3.745L11.702 2.987z" mask="url(#b)"/></g></g></svg>