<svg xmlns="http://www.w3.org/2000/svg" xmlns:xlink="http://www.w3.org/1999/xlink" width="130" height="44" viewBox="0 0 130 44"><defs><path id="a" d="M0 .836h130V44H0z"/></defs><g fill="none" fill-rule="evenodd"><g transform="translate(0 -.836)"><mask id="b" fill="#fff"><use xlink:href="#a"/></mask><path fill="#034EA2" d="M129.919 11.114c1.771 10.148-25.857 23.438-61.716 29.684C32.35 47.043 1.849 43.875.08 33.72-1.687 23.571 25.948 10.283 61.802 4.042c35.856-6.25 66.352-3.08 68.117 7.072" mask="url(#b)"/></g><path fill="#FFF" d="M96.173 25.341l-.183-10.553h3.327V28.09h-4.784l-3.321-10.915h-.072l.185 10.915h-3.307V14.788h4.992l3.09 10.553zm-60.486-9.305L33.846 28.23h-3.63l2.492-13.441h5.978l2.482 13.441h-3.616l-1.79-12.194zm15.673 9.028l1.66-10.275h5.483l.29 13.441h-3.36l-.089-12.084h-.069L53.029 28.23h-3.41L47.37 16.146h-.072l-.084 12.084h-3.367l.298-13.441h5.485l1.658 10.275zm-26.803-.626c.132.325.092.745.029.997-.112.446-.416.903-1.308.903-.844 0-1.354-.484-1.354-1.22v-1.3h-3.606l-.003 1.04c0 2.996 2.359 3.901 4.888 3.901 2.43 0 4.433-.83 4.75-3.07.165-1.162.04-1.923-.013-2.21-.567-2.813-5.67-3.654-6.048-5.227a1.78 1.78 0 0 1-.014-.709c.094-.427.387-.9 1.228-.9.785 0 1.25.486 1.25 1.22v.831h3.35v-.943c0-2.929-2.628-3.386-4.53-3.386-2.391 0-4.345.79-4.702 2.976a4.732 4.732 0 0 0 .029 1.818c.588 2.743 5.36 3.538 6.054 5.28m43.705-.024c.132.322.089.73.029.983-.11.446-.411.895-1.298.895-.83 0-1.337-.483-1.337-1.204l-.003-1.29h-3.57l-.004 1.027c0 2.966 2.338 3.86 4.839 3.86 2.406 0 4.389-.82 4.703-3.038.163-1.153.048-1.903-.01-2.184-.565-2.787-5.614-3.62-5.991-5.18a1.68 1.68 0 0 1-.012-.694c.096-.433.383-.893 1.217-.893.779 0 1.233.473 1.233 1.204v.823h3.327v-.936c0-2.896-2.606-3.351-4.493-3.351-2.364 0-4.302.78-4.651 2.954a4.6 4.6 0 0 0 .032 1.795c.578 2.716 5.304 3.506 5.989 5.229M79.55 26.22c.933 0 1.223-.646 1.287-.976.027-.145.035-.338.033-.513v-9.948h3.399v9.642c.008.247-.016.755-.03.881-.24 2.51-2.222 3.324-4.691 3.324-2.473 0-4.458-.814-4.694-3.324a13.395 13.395 0 0 1-.031-.88v-9.643h3.397v9.946c0 .174.006.37.032.512.076.331.358.98 1.298.98m28.04-.143c.973 0 1.313-.615 1.376-.973.024-.153.032-.341.029-.51v-1.952h-1.378v-1.961h4.767v3.609a9.17 9.17 0 0 1-.05.887c-.222 2.445-2.345 3.318-4.725 3.318-2.386 0-4.503-.873-4.732-3.318-.038-.45-.043-.634-.05-.887l.004-5.66c0-.24.03-.66.057-.886.298-2.512 2.335-3.321 4.72-3.321 2.384 0 4.472.803 4.719 3.32.043.429.03.888.03.888v.449h-3.388v-.753c.002.003-.006-.32-.043-.51-.057-.3-.315-.981-1.342-.981-.98 0-1.265.645-1.338.98-.04.178-.056.417-.056.635v6.147c-.002.17.008.358.035.51.053.354.392.969 1.365.969"/></g></svg>