<svg xmlns="http://www.w3.org/2000/svg" xmlns:xlink="http://www.w3.org/1999/xlink" width="120" height="19" viewBox="0 0 120 19"><defs><path id="a" d="M.618.401H94V19H.618z"/><path id="c" d="M0 19.599h120V1H0z"/></defs><g fill="none" fill-rule="evenodd" transform="translate(0 -1)"><g transform="translate(26 .599)"><mask id="b" fill="#fff"><use xlink:href="#a"/></mask><path fill="#000" d="M94 19H78.303v-3.484L88.305 3.949H78.303V.4H94v3.548l-9.989 11.504H94V19zm-25.096-7.17l-1.898-6.133-1.899 6.134h3.797zM58.237 19L64.521.4h5.095L75.899 19H71.09l-1.161-3.797h-5.846L62.922 19h-4.685zM49.329 5.54c0-.465-.09-.866-.269-1.204-.179-.337-.477-.598-.893-.78a3.236 3.236 0 0 0-.975-.238c-.357-.033-.803-.05-1.336-.05h-1.561v5.009h1.336c.65 0 1.202-.04 1.655-.12a2.452 2.452 0 0 0 1.156-.505c.299-.233.523-.511.667-.837.147-.325.22-.75.22-1.274zM56.848 19h-5.696l-5.183-6.82h-1.674V19h-4.647V.4h7.482c1.033 0 1.932.066 2.698.195a5.78 5.78 0 0 1 2.124.805 4.876 4.876 0 0 1 1.586 1.619c.392.653.587 1.484.587 2.492 0 1.424-.32 2.579-.962 3.466-.641.886-1.499 1.592-2.573 2.117L56.848 19zM37.455.4L29.614 19h-4.871L17.347.4h4.846l5.048 12.605L32.733.4h4.722zM.618 19V.4h15.136v3.55H5.265v3.26h10.489v3.548H5.265v4.696h10.489V19H.618z" mask="url(#b)"/></g><mask id="d" fill="#fff"><use xlink:href="#c"/></mask><path fill="#FCAF17" d="M0 5.893h19.903V1H0z" mask="url(#d)"/><path fill="#F68B1E" d="M0 12.747h19.903V7.854H0z" mask="url(#d)"/><path fill="#F04D23" d="M0 19.599h19.903v-4.893H0z" mask="url(#d)"/></g></svg>