<svg xmlns="http://www.w3.org/2000/svg" xmlns:xlink="http://www.w3.org/1999/xlink" width="150" height="38" viewBox="0 0 150 38"><defs><path id="a" d="M.669.54H9v8.489H.669z"/></defs><g fill="none" fill-rule="evenodd"><path fill="#F27043" d="M37.208 18.604c0 10.274-8.329 18.604-18.604 18.604C8.329 37.208 0 28.878 0 18.604S8.329 0 18.604 0c10.275 0 18.604 8.33 18.604 18.604"/><path fill="#000" d="M8.089 9.707v24.239a18.5 18.5 0 0 0 6.47 2.809V14.56h8.09v12.941h6.47V9.706H8.089zm42.089 2.534v8.791h-3.264V9.707h10.075v11.325h-3.248v-8.791zm14.847 4.704v-.127c0-1.457-.617-2.154-1.63-2.154-1.03 0-1.648.745-1.648 2.138v.127c0 1.41.618 2.122 1.647 2.122 1.076 0 1.631-.728 1.631-2.106zm-3.199-4.197v1.235c.491-.808 1.313-1.457 2.582-1.457.966 0 1.838.364 2.471 1.077.632.713 1.03 1.806 1.03 3.215v.127c0 1.44-.398 2.503-1.03 3.199-.633.713-1.52 1.077-2.487 1.077-1.267 0-2.138-.586-2.566-1.41v3.992h-2.835V12.748h2.835zm13.089 4.197v-.127c0-1.394-.555-2.17-1.632-2.17-1.076 0-1.647.745-1.647 2.139v.127c0 1.44.553 2.2 1.647 2.2 1.077 0 1.632-.775 1.632-2.17m-4.863 3.169c-.824-.713-1.315-1.79-1.315-3.12v-.127c0-1.33.491-2.407 1.315-3.168.808-.76 1.948-1.172 3.231-1.172 1.267 0 2.407.396 3.216 1.14.807.745 1.299 1.806 1.299 3.12v.128c0 1.345-.492 2.423-1.299 3.167-.824.745-1.965 1.14-3.232 1.14-1.267 0-2.407-.395-3.215-1.108m17.634-3.153v-.127c0-1.33-.523-2.17-1.663-2.28v4.625c1.078-.112 1.663-.95 1.663-2.218m-6.114-.174v.127c0 1.33.522 2.17 1.663 2.28v-4.625c-1.076.111-1.662.951-1.662 2.218m8.997-.032v.127c0 2.645-1.964 4.245-4.546 4.324v2.598h-2.788v-2.598c-2.599-.127-4.546-1.536-4.546-4.213v-.127c0-2.645 1.963-4.245 4.546-4.324V9.706h2.787v2.835c2.599.127 4.547 1.536 4.547 4.213m1.415-4.006h2.819v5.037l2.598-5.037h2.819v8.284h-2.819v-5.037l-2.598 5.037h-2.819zm14.403 1.931v6.353h-2.819v-6.353h-2.328v-1.932h7.476v1.932zm12.536-1.109v-.061c0-.967-.57-1.364-1.584-1.364h-.95v2.852h.933c1.077 0 1.6-.475 1.6-1.426zm-1.458-3.863c3.104 0 4.547 1.378 4.547 3.785v.063c0 2.392-1.568 3.659-4.404 3.659h-1.22v3.818h-3.232V9.707h4.309zm11.188 7.238v-.127c0-1.394-.555-2.17-1.632-2.17-1.076 0-1.648.745-1.648 2.139v.127c0 1.44.554 2.2 1.648 2.2 1.077 0 1.632-.775 1.632-2.17m-4.863 3.169c-.824-.713-1.315-1.79-1.315-3.12v-.127c0-1.33.491-2.407 1.315-3.168.808-.76 1.948-1.172 3.231-1.172 1.267 0 2.407.396 3.216 1.14.807.745 1.3 1.806 1.3 3.12v.128c0 1.345-.493 2.423-1.3 3.167-.824.745-1.965 1.14-3.232 1.14-1.267 0-2.407-.395-3.215-1.108m9.256 1.124c-.65 0-.935-.158-.95-.158V18.94c.015.016.048.016.078.03.032.017.11.017.222.017.57 0 .887-.65 1.013-2.154 0-.284.064-1.298.064-2.265l.032-1.821h6.922v8.284h-2.82v-6.353h-1.648c-.015 1.062-.03 1.996-.142 2.82-.253 2.36-.934 3.738-2.771 3.738"/><g transform="translate(141 12.208)"><mask id="b" fill="#fff"><use xlink:href="#a"/></mask><path fill="#000" d="M1.62 9.029c-.65 0-.937-.158-.95-.158V6.733c.013.016.046.016.077.03.032.017.111.017.222.017.57 0 .887-.65 1.013-2.154 0-.284.064-1.298.064-2.265L2.078.54H9v8.284H6.181V2.47H4.532c-.016 1.062-.03 1.996-.142 2.82-.253 2.36-.934 3.738-2.77 3.738" mask="url(#b)"/></g><path fill="#000" d="M47.445 27.595l1.67 4.07 1.677-4.07h.517v4.74h-.365v-4.276l-1.783 4.276h-.119l-1.784-4.276v4.276h-.344v-4.74zm6.382 1.519c-.677 0-1.14.47-1.214 1.232h2.368c-.034-.848-.47-1.232-1.154-1.232m-1.592 1.524v-.053c0-1.04.664-1.77 1.592-1.77.835 0 1.518.544 1.518 1.69v.127H52.6c.02.934.452 1.458 1.28 1.458.583 0 .962-.24 1.087-.722h.351c-.152.662-.689 1.02-1.438 1.02-1 0-1.645-.71-1.645-1.75m6.725-.033v-.033c0-.93-.504-1.458-1.246-1.458-.763 0-1.379.537-1.379 1.465v.013c0 .928.563 1.497 1.313 1.497.743 0 1.312-.55 1.312-1.484m-2.982-.166v-.411c0-1.558.396-2.731 1.909-2.784l.232-.006c.529-.021.788-.06.953-.12v.304c-.152.06-.39.107-.94.133l-.226.007c-1.193.053-1.597.809-1.651 2.247h.02c.22-.61.776-.994 1.472-.994.922 0 1.571.709 1.571 1.744v.039c0 1.095-.743 1.79-1.677 1.79-.941 0-1.663-.676-1.663-1.95m5.512-1.324c-.677 0-1.14.47-1.214 1.232h2.367c-.033-.848-.47-1.232-1.153-1.232m-1.592 1.524v-.053c0-1.04.664-1.77 1.592-1.77.835 0 1.518.544 1.518 1.69v.127h-2.745c.02.934.452 1.458 1.28 1.458.583 0 .961-.24 1.087-.722h.351c-.153.662-.69 1.02-1.438 1.02-1 0-1.645-.71-1.645-1.75m3.729 1.724a.597.597 0 0 1-.186-.021l-.066-.026v-.338l.066.028c.04.012.092.019.16.019.357 0 .451-.523.523-1.266.034-.345.06-.816.08-1.207.013-.225.02-.451.026-.683h2.168v3.468h-.351v-3.17h-1.498c-.021.372-.048 1.128-.1 1.625-.086 1.008-.272 1.57-.822 1.57m5.909-1.113v-.02c0-.53-.305-.809-.915-.809h-.769v1.638h.835c.584 0 .85-.305.85-.809zm-1.684-2.38v1.273h.75c.748 0 1.286.358 1.286 1.086v.021c0 .742-.517 1.087-1.219 1.087h-1.168v-3.468h.351zm3.171 1.823v1.645h-.352v-3.468h.352v1.525h1.996v-1.525h.351v3.468h-.351v-1.645zm5.54.524v-.59h-.71c-.722 0-1.285.152-1.285.776 0 .45.272.702.849.702.635 0 1.145-.378 1.145-.888m-2.346.186c0-.803.769-1.048 1.625-1.048h.722v-.312c0-.656-.266-.928-.874-.928-.531 0-.896.226-.976.736h-.343c.07-.723.68-1.034 1.331-1.034.716 0 1.215.344 1.215 1.226v2.294h-.353v-.53c-.219.338-.59.583-1.174.583-.688 0-1.172-.33-1.172-.987m4.006-1.499v.02c0 .478.298.73.915.73h.769v-1.5h-.835c-.564 0-.85.253-.85.75zm-.563 2.434l1.068-1.472c-.498-.087-.857-.364-.857-.941v-.021c0-.723.518-1.034 1.22-1.034h1.174v3.468h-.358v-1.413h-.83l-1.005 1.413h-.412zm8.715-1.705v-.047c0-.933-.61-1.458-1.452-1.49v3.022c.842-.019 1.452-.556 1.452-1.485m-3.255-.06v.053c0 .928.609 1.465 1.451 1.486v-3.017c-.842.02-1.451.558-1.451 1.478m3.612 0v.053c0 1.081-.775 1.731-1.809 1.764v1.154h-.352v-1.154c-1.034-.033-1.809-.69-1.809-1.757v-.053c0-1.087.775-1.723 1.809-1.757v-1.61h.352v1.61c1.034.034 1.809.683 1.809 1.75m2.928.644v-.59h-.71c-.723 0-1.286.152-1.286.776 0 .45.272.702.85.702.634 0 1.145-.378 1.145-.888m-2.346.186c0-.803.77-1.048 1.624-1.048h.722v-.312c0-.656-.265-.928-.874-.928-.53 0-.896.226-.976.736h-.343c.071-.723.681-1.034 1.332-1.034.715 0 1.214.344 1.214 1.226v2.294h-.353v-.53c-.218.338-.59.583-1.173.583-.689 0-1.173-.33-1.173-.987m6.551-.796v-.033c0-.93-.503-1.458-1.245-1.458-.763 0-1.38.537-1.38 1.465v.013c0 .928.564 1.497 1.313 1.497.744 0 1.312-.55 1.312-1.484m-2.982-.166v-.411c0-1.558.397-2.731 1.91-2.784l.231-.006c.53-.021.79-.06.954-.12v.304c-.152.06-.39.107-.94.133l-.227.007c-1.193.053-1.596.809-1.65 2.247h.02c.22-.61.776-.994 1.472-.994.921 0 1.571.709 1.571 1.744v.039c0 1.095-.743 1.79-1.677 1.79-.942 0-1.664-.676-1.664-1.95m7.044.193v-.053c0-.955-.562-1.465-1.226-1.465-.676 0-1.293.51-1.293 1.465v.053c0 .948.583 1.458 1.3 1.458.736 0 1.219-.523 1.219-1.458zm-2.513-1.764v.81c.193-.444.71-.862 1.32-.862.875 0 1.558.67 1.558 1.75v.053c0 1.087-.656 1.77-1.558 1.77a1.41 1.41 0 0 1-1.32-.842v1.996h-.351v-4.675h.35zm3.715.001h.352v2.95l2.062-2.95h.351v3.468h-.351v-2.957l-2.062 2.957h-.352zm4.174 3.467h-.352v-3.468h.352v1.657l1.69-1.657h.418l-1.69 1.638 1.804 1.83h-.439l-1.783-1.811zm4.941-1.12v-.59h-.709c-.723 0-1.285.152-1.285.776 0 .45.271.702.848.702.636 0 1.146-.378 1.146-.888m-2.346.186c0-.803.77-1.048 1.624-1.048h.722v-.312c0-.656-.264-.928-.874-.928-.53 0-.895.226-.976.736h-.343c.072-.723.681-1.034 1.332-1.034.716 0 1.214.344 1.214 1.226v2.294h-.353v-.53c-.218.338-.59.583-1.173.583-.689 0-1.173-.33-1.173-.987"/></g></svg>