<svg xmlns="http://www.w3.org/2000/svg" xmlns:xlink="http://www.w3.org/1999/xlink" width="121" height="23" viewBox="0 0 121 23"><defs><path id="a" d="M.005.426h22.253v15.789H.005z"/><path id="c" d="M.005.211h22.256V16H.005z"/></defs><g fill="none" fill-rule="evenodd"><path fill="#E30613" d="M64.07 18.788V3.786h9.32V7.27h-5.433v11.518zm21.046 0v-5.875h-5.773v5.875h-3.886V3.786h3.886v5.599h5.773V3.786h3.887v15.002zm21.9-15.002v3.485h4.538v11.517h3.889V7.271h4.561V3.786zm-5.719 15v-8.548l-6.187 8.548h-3.249V3.788h3.886v8.459l6.082-8.459h3.356v14.998zm-59.559.002V9.873l-3.881 4.71-3.88-4.71v8.915h-3.885V3.786h3.834l3.931 5.158 3.932-5.158h3.835v15.002zm16.9-.002l-.812-2.102h-6.042l-.814 2.102h-3.906l5.976-15h3.593l5.98 15h-3.975zm-5.637-5.274h3.612l-1.806-4.705-1.806 4.705z"/><g transform="translate(0 -.426)"><mask id="b" fill="#fff"><use xlink:href="#a"/></mask><path fill="#E30613" d="M0 7.26a6.906 6.906 0 0 1 1.976-4.83c1.26-1.28 2.968-2 4.752-2.003h15.53V3.9H6.73a3.298 3.298 0 0 0-2.335.988 3.412 3.412 0 0 0-.974 2.372l-.02 5.833c-.07.747-.383 1.449-.888 1.997S1.34 16 .61 16.12l-.61.095V7.26z" mask="url(#b)"/><g transform="translate(0 7)"><mask id="d" fill="#fff"><use xlink:href="#c"/></mask><path fill="#E30613" d="M0 16v-3.475h15.531a3.295 3.295 0 0 0 2.335-.989c.62-.63.97-1.482.974-2.373V3.629c.005-.803.29-1.578.805-2.188A3.308 3.308 0 0 1 21.65.304l.61-.093v8.952a6.907 6.907 0 0 1-1.976 4.83A6.685 6.685 0 0 1 15.532 16H.002z" mask="url(#d)"/></g><path fill="#E30613" d="M13.158 16.227v-4.491l-2.025 2.458-2.024-2.458v4.491H6.427V7.391h2.54l2.166 2.841 2.166-2.841h2.539v8.836z"/></g></g></svg>