<svg xmlns="http://www.w3.org/2000/svg" xmlns:xlink="http://www.w3.org/1999/xlink" width="51" height="60" viewBox="0 0 51 60"><defs><path id="a" d="M0 .001h50.539V60H0z"/></defs><g fill="none" fill-rule="evenodd"><mask id="b" fill="#fff"><use xlink:href="#a"/></mask><path fill="#000" d="M37.902 1.2c0 3.002-1.096 5.803-3.28 8.397-2.638 3.083-5.827 4.864-9.286 4.583-.044-.36-.07-.74-.07-1.137 0-2.881 1.254-5.964 3.481-8.485 1.112-1.276 2.526-2.337 4.241-3.183C34.7.54 36.318.079 37.84 0c.043.4.062.802.062 1.2M49.48 46.76a32.551 32.551 0 0 1-3.226 5.798c-1.697 2.42-3.085 4.093-4.156 5.023-1.659 1.526-3.436 2.308-5.34 2.352-1.367 0-3.015-.389-4.933-1.178-1.925-.785-3.694-1.173-5.312-1.173-1.696 0-3.514.388-5.46 1.173-1.95.79-3.519 1.2-4.719 1.24-1.827.078-3.646-.725-5.462-2.413-1.159-1.013-2.61-2.745-4.346-5.2-1.864-2.623-3.396-5.663-4.597-9.13C.644 39.508 0 35.882 0 32.371c0-4.022.87-7.49 2.61-10.397 1.366-2.334 3.187-4.175 5.464-5.526a14.694 14.694 0 0 1 7.388-2.085c1.45 0 3.351.449 5.713 1.33 2.357.885 3.87 1.333 4.534 1.333.495 0 2.175-.524 5.025-1.57 2.694-.97 4.97-1.371 6.831-1.213 5.048.407 8.841 2.397 11.363 5.981-4.515 2.738-6.748 6.569-6.704 11.483.041 3.828 1.43 7.014 4.16 9.544a13.64 13.64 0 0 0 4.155 2.726 44.71 44.71 0 0 1-1.059 2.782" mask="url(#b)"/></g></svg>