<svg xmlns="http://www.w3.org/2000/svg" xmlns:xlink="http://www.w3.org/1999/xlink" width="100" height="51" viewBox="0 0 100 51"><defs><path id="a" d="M0 51h100V.842H0z"/></defs><g fill="none" fill-rule="evenodd"><path fill="#FFF" d="M0 50.158h100V0H0z"/><path fill="red" d="M1.545 48.492h46.883V1.613H1.545z"/><g transform="translate(0 -.842)"><path fill="#FFF" d="M24.986 7.27c6.662 0 13.782 11.91 13.782 22.226 0 8.102-4.762 15.013-13.782 15.013-9.026 0-13.776-6.911-13.776-15.013 0-10.315 7.112-22.226 13.776-22.226"/><mask id="b" fill="#fff"><use xlink:href="#a"/></mask><path fill="red" d="M51.755 49.354h46.878V2.475H51.755z" mask="url(#b)"/><path fill="#FFF" d="M55.186 20.358h4.937l1.612 6.621h.026l1.614-6.621h4.932v11.254h-3.279v-7.223h-.034l-1.953 7.223h-2.587l-1.955-7.223h-.029v7.223h-3.284zm18.165 2.882H70.2v-2.883h9.776v2.883h-3.159v8.371h-3.466zm14.997 1.306c-.063-.405-.382-1.653-1.81-1.653-1.628 0-2.149 1.578-2.149 3.094 0 1.515.521 3.088 2.15 3.088 1.161 0 1.621-.819 1.824-1.88h3.407c0 2.27-1.847 4.687-5.142 4.687-3.644 0-5.705-2.569-5.705-5.895 0-3.549 2.238-5.896 5.705-5.896 3.092.013 4.796 1.636 5.09 4.455h-3.37z" mask="url(#b)"/></g></g></svg>