<svg xmlns="http://www.w3.org/2000/svg" xmlns:xlink="http://www.w3.org/1999/xlink" width="148" height="40" viewBox="0 0 148 40"><defs><path id="a" d="M0 0h14.115v31.659H0z"/><path id="c" d="M.716.334h29.698v13.332H.716z"/></defs><g fill="none" fill-rule="evenodd"><path fill="#EF3D42" d="M16.384 8.342c2.57 6.523-1.62 10.71-5.796 14.904C6.702 27.53 3.28 31.985 10.163 40c-2.57-6.522 1.621-10.71 5.793-14.9 3.89-4.293 7.311-8.741.428-16.758"/><mask id="b" fill="#fff"><use xlink:href="#a"/></mask><path fill="#00B274" d="M10.164 0c2.575 6.525-1.614 10.71-5.792 14.9-3.885 4.29-7.307 8.745-.422 16.76-2.572-6.527 1.618-10.711 5.793-14.902 3.887-4.29 7.305-8.741.42-16.757" mask="url(#b)"/><g transform="translate(117 13)"><mask id="d" fill="#fff"><use xlink:href="#c"/></mask><path fill="#00B274" d="M.716.334v13.332h5.839v-4.88h6.417V5.867H6.555V3.252h12.728v10.414h5.84V3.252h5.291V.334z" mask="url(#d)"/></g><path fill="#00B274" d="M105.187 23.773v-2.312h7.615v-2.92h-7.615v-2.289h9.781v-2.918h-15.62v13.332h15.74v-2.893z"/><path fill="#EF3D42" d="M43.598 13.334H27.416v2.918h5.172v10.414h5.839V16.252h5.171zm11.53 0h-6.26l-7.287 13.332h3.795l1.198-2.288h8.184l1.194 2.288h6.468l-7.292-13.332zm-7.107 8.28l2.702-5.16 2.586 5.16H48.02z"/><path fill="#00B274" d="M92.182 13.334v6.665l-9.339-6.665h-4.532v13.332h3.997v-7.335l9.59 7.335h4.281V13.334z"/><path fill="#EF3D42" d="M76.328 13.334H60.485v2.918h5.171v10.414h5.84V16.252h4.832z"/></g></svg>