<svg xmlns="http://www.w3.org/2000/svg" xmlns:xlink="http://www.w3.org/1999/xlink" width="40" height="40" style="background:#a9b2b7" viewBox="0 0 40 40"><defs><path id="a" d="M16 24h6.611a3.5 3.5 0 0 0 0-7H17.5a1.5 1.5 0 0 1 0-3h5a6.5 6.5 0 1 1 0 13H19v4h-3v-7zm11.5-12H17.389a3.5 3.5 0 0 0 0 7H22.5a1.5 1.5 0 0 1 0 3h-5a6.5 6.5 0 1 1 0-13h10a1.5 1.5 0 0 1 0 3zM11 24h3v3h-3v-3z"/></defs><g fill="none" fill-rule="evenodd"><mask id="b" fill="#fff"><use xlink:href="#a"/></mask><path stroke="#A9B2B7" stroke-width="3" d="M22.5 25.5h.111a5 5 0 1 0 0-10H20h2.5a5 5 0 0 1 0 10zm-4.25 0h-.75v.75V24L16 25.5h2.25zM17.5 29v2l1.5-1.5h-3l1.5 1.5v-2zm5-18.5h-5.111a5 5 0 1 0 0 10H22.5h-5a5 5 0 0 1 0-10h5zm-10 15H14L12.5 24v1.5V24L11 25.5h1.5H11l1.5 1.5v-1.5V27l1.5-1.5h-1.5z"/><g fill="#FFF" mask="url(#b)"><path d="M0 0h40v40H0z"/></g></g></svg>