<svg xmlns="http://www.w3.org/2000/svg" xmlns:xlink="http://www.w3.org/1999/xlink" width="40" height="40" style="background:#a9b2b7" viewBox="0 0 40 40"><defs><path id="a" d="M12 28v-2.014a2 2 0 0 1 1.368-1.898L15 23.544V28h-3zm17-17v2.058a2 2 0 0 1-1.368 1.898L26 15.5V14h-8a3 3 0 0 0-3 3v4h-1a2 2 0 0 1-2-2v-3a5 5 0 0 1 5-5h12zm-3 7h1a2 2 0 0 1 2 2v3a5 5 0 0 1-5 5h-6v-3h5a3 3 0 0 0 3-3v-4zm-3-1v4a1 1 0 0 1-1 1h-4v-4a1 1 0 0 1 1-1h4z"/></defs><g fill="none" fill-rule="evenodd"><mask id="b" fill="#fff"><use xlink:href="#a"/></mask><use fill="#D8D8D8" opacity=".5" xlink:href="#a"/><g fill="#FFF" mask="url(#b)"><path d="M0 0h40v40H0z"/></g></g></svg>