<svg xmlns="http://www.w3.org/2000/svg" xmlns:xlink="http://www.w3.org/1999/xlink" width="40" height="40" viewBox="0 0 40 40"><defs><path id="a" d="M14.294 12.579h-.903l-.32-.31a7.4 7.4 0 0 0 1.795-4.836 7.433 7.433 0 1 0-7.433 7.433 7.4 7.4 0 0 0 4.837-1.796l.309.32v.904L18.296 20 20 18.296l-5.706-5.717zm-6.861 0a5.139 5.139 0 0 1-5.146-5.146 5.139 5.139 0 0 1 5.146-5.146 5.139 5.139 0 0 1 5.146 5.146 5.139 5.139 0 0 1-5.146 5.146z"/></defs><g fill="none" fill-rule="evenodd" transform="translate(10 10)"><mask id="b" fill="#fff"><use xlink:href="#a"/></mask><use fill="#5D696F" xlink:href="#a"/><g fill="#5D696F" mask="url(#b)"><path d="M-10-10h40v40h-40z"/></g></g></svg>