<svg xmlns="http://www.w3.org/2000/svg" width="50" height="50" viewBox="0 0 50 50"><g fill="none" fill-rule="evenodd"><path fill="#172730" d="M45.833 47.5L50 0 0 50z" opacity=".2"/><path fill="#FFF" d="M41.667 43.333L50 0h-1L0 49v1z"/><path fill="#DEE3E6" d="M0 0h50L0 50z"/><path fill="#FFF" d="M23.578 9.286A5.72 5.72 0 0 1 24 11.464c0 .834-.17 1.62-.51 2.357a5.323 5.323 0 0 1-1.424 1.875c-.296.278-2.652 2.38-7.066 6.304-4.695-4.183-7.062-6.29-7.101-6.321a5.252 5.252 0 0 1-1.389-1.867 5.841 5.841 0 0 1-.51-2.33 5.384 5.384 0 0 1 .423-2.178 5.36 5.36 0 0 1 1.16-1.768C8.567 6.512 9.745 6 11.116 6c.75 0 1.462.167 2.135.5a5.205 5.205 0 0 1 1.75 1.41 5.205 5.205 0 0 1 1.748-1.41 4.754 4.754 0 0 1 2.136-.5c1.371 0 2.549.506 3.533 1.518a5.36 5.36 0 0 1 1.16 1.768z"/></g></svg>