<svg width="173" height="171" viewBox="0 0 173 171" xmlns="http://www.w3.org/2000/svg"><g fill="none"><path d="M127.875 39.536c2.592-1.836 4.267-4.58 7.063-6.313 5.689-3.527 13.367-3.941 19.427-1.132 7.836 3.631 15.384 10.366 17.163 19.156 1.283 6.334-1.285 13.197-3.816 18.906-3.916 8.832-10 15.824-14.974 23.991-9.76 16.03-23.356 29.896-37.174 42.431-7.237 6.566-14.672 13.97-23.229 18.734-6.832 3.804-13.414 8.297-20.899 10.747-3.54 1.158-6.914 1.25-10.549 1.647-4.025.44-7.868 1.956-11.963 1.08-2.689-.577-5.113-1.864-7.473-3.17-9.194-5.084-13.328-15.507-10.42-25.37 2.142-7.26 7.002-10.658 12.217-15.674 11.394-10.96 23.26-21.4 34.478-32.571 7.536-7.504 15.324-14.67 22.3-22.724 6.525-7.534 12.661-15.815 19.636-22.862 2.564-2.591 5.215-4.764 8.188-6.859l.025-.017zM8.535 129.817c-3.547-8.181.139-16.665 5.306-22.965C23.36 95.246 34.4 85.411 44.59 74.378c11.574-12.532 24.852-23.386 36.778-35.55 4.492-4.581 9.612-8.608 14.323-12.99 4.808-4.474 9.175-9.377 14.164-13.696 4.227-3.659 9.789-7.448 15.685-6.983 1.396.11 7.65 1.439 8.167 2.641 1.535 3.567-7.824 5.285-9.413 5.795-5.112 1.642-11.248 3.726-15.484 7.148-4.906 3.964-6.211 10.261-8.037 15.936-2.05 6.372-6.018 8.013-11.467 11.103-2.909 1.65-6.333 2.74-8.957 4.862-2.484 2.009-4.237 4.967-5.628 7.796-2.432 4.95-4.248 11.773-8.734 15.25-4.978 3.86-11.262 5.796-16.6 9.153-6.562 4.13-7.422 12.715-12.269 18.11-4.48 4.985-11.188 6.05-16.493 9.662-2.43 1.654-5.002 3.873-6.155 6.632-1.09 2.604-.392 5.01-.934 7.6-.34 1.623-2.424 4.892-5 2.97z" fill="#EC9B5E"/><path d="M30.67 155.09c-3.834-8.328 2.075-22.432 9.412-27.009 5.308-3.31 12.142-4.608 16.087.933 1.728 2.427 3.194 5.12 6.031 6.433 3.747 1.736 8.26.39 11.93-.922 10.224-3.654 19.085-12.145 27.049-19.276 10.088-9.033 18.757-19.489 27.635-29.682 7.768-8.917 15.18-18.136 22.495-27.425 2.752-3.495 5.62-6.401 8.997-9.295 2.098-1.797 5.645-4.985 8.673-4.865 2.712.107 2.697 3.084 2.93 5.411.501 5.014-2.168 10.702-4.285 15.15-2.813 5.912-5.942 11.958-9.527 17.446-3.994 6.116-6.964 12.733-11.572 18.453-16.424 20.385-32.999 41.255-55.011 55.86-9.631 6.39-20.086 10.501-31.797 10.452-5.252-.022-10.51.855-15.723-.384-2.076-.494-4.602-1.613-6.365-2.8-3.118-2.1-3.575-5.518-6.96-8.48zM7.395 129.018c-1.679-7.61 2.914-18.088 8.615-23.156 3.42-3.04 7.468-4.611 11.014-7.497 4.16-3.385 7.798-7.274 11.689-10.972 4.635-4.406 8.31-9.858 13.199-13.971 3.163-2.662 7.002-4.052 10.063-6.948 4.046-3.828 6.846-8.543 10.629-12.596 4.013-4.3 8.523-7.353 13.31-10.63 3.975-2.721 7.691-6.851 10.828-10.477 1.408-1.627 5.019-7.821 7.619-7.6 2.27.194-.391 3.173-.913 4.196-1.04 2.043-1.64 4.17-2.265 6.335-1.404 4.875-2.608 7.625-7.193 10.12-4.784 2.605-10.685 4.487-15.072 7.72-4.166 3.07-6.001 10.277-8.037 14.875-1.203 2.717-2 5.092-4.45 6.924-1.924 1.44-4.32 2.636-6.44 3.773-4.718 2.531-9.185 4.472-13.125 8.393-4.425 4.402-5.936 10.55-10.024 15.226-3.182 3.64-9.07 5.121-13.133 7.581-3.817 2.311-9.135 5.704-10.348 10.42-.487 1.897.104 4.092-.27 6.048-.262 1.378-3.109 5.882-5.696 2.236z" fill="#E28749"/><path d="M2 147.385c.664 8.81 3.079 15.4 12.263 17.485 4.882 1.11 11.935.253 15.9-3.08 2.836-2.383.457-7.133-.22-10.315-.946-4.448-.552-9.535 1.176-13.852 3.6-8.992 12.897-16.31 19.621-22.788 10.18-9.808 21.092-19.01 31.79-28.245 2.457-2.12 5.878-4.227 7.777-6.875 1.461-2.039 2.26-4.495 3.779-6.583 4.18-5.75 9.17-10.836 13.984-16.037 4.014-4.337 8.074-8.664 12.578-12.496 3.76-3.2 6.395-7.366 10.522-10.178 2.2-1.498 4.749-2.772 7.314-3.423 4.695-1.191 9.303-.475 13.83 1.136 2.368.843 6.069 3.36 8.623 2.05 1.995-1.024 2.6-4.6 3.054-6.616 1.407-6.256 1.915-14.771-2.372-20.062-2.718-3.354-9.242-5.35-13.361-5.486-2.688-.089-5.613.18-8.172.965-3.564 1.095-6.46 4.184-9.242 6.52-3.099 2.602-5.555 4.047-9.54 4.8-7.207 1.363-14.771 4.893-17.883 11.958-3.048 6.92-2.304 15.096-9.794 18.853-3.65 1.83-6.74 4.65-10.348 6.558-4.241 2.243-6.837 3.942-9.046 8.388-1.655 3.332-2.287 7.075-4.363 10.166-2.14 3.187-5.285 6.828-8.428 9.018-3.467 2.415-7.714 3.27-11.272 5.533-3.48 2.215-6.21 4.739-8.49 8.215-2.284 3.482-3.859 7.312-6.52 10.55-1.908 2.322-4.711 4.091-7.483 5.374-6.102 2.823-12.873 6.622-15.372 13.457-.903 2.47.497 4.316-.083 6.637-.563 2.251-2.788 3.324-4.312 4.867-3.776 3.826-5.373 8.887-5.91 13.506z" fill="#884637"/><path d="M2.506 156.114c-.582-4.49-1-8.295.73-12.749 1.93-4.97 4.65-6.647 9.522-5.968 11.417 1.591 18.758-10.173 25.849-17.279 3.41-3.418 6.925-6.798 10.425-10.123 4.091-3.886 8.927-6.778 12.932-10.8 4.433-4.454 7.982-9.704 12.872-13.723 5.057-4.157 9.606-7.757 13.428-13.174 4.311-6.112 9.585-11.194 15.408-15.873 4.021-3.231 6.58-7.88 9.88-11.791 3.74-4.432 7.848-8.542 12.148-12.426 7.995-7.221 15.607-14.253 26.033-18.008 4.75-1.71 8.9-1.826 12.467 1.509 2.876 2.69 1.748 5.663.444 9.257-.653 1.8-1.237 3.566-2.045 5.303-.387.833-1.396 4.019-2.21 4.43-.81.41-2.34-.527-3.208-.93-2.353-1.095-4.365-1.677-6.893-2.173-4.896-.962-8.463-1.893-13.135.619-7.87 4.23-14.76 11.173-20.66 17.844-7.672 8.673-15.856 16.85-23.716 25.35-12.068 13.05-24.19 26.04-37.598 37.73-4.9 4.272-9.61 8.781-14.422 13.161-3.777 3.437-8.268 6.692-10.116 11.625-1.904 5.082-1.9 10.228-.355 15.303.964 3.166 3.665 6.112.58 8.554-2.93 2.32-8.472 3.053-12.199 3.475-5.668.642-11.73-3.059-16.161-9.143z" fill="#77382D"/><path d="M118.632 15.582c-3.896 1.406-8.165 2.691-11.61 5.108-3.97 2.784-4.576 8.773-5.65 13.174-.749 3.062-1.353 5.257-3.794 7.36-3.299 2.842-7.107 4.896-10.88 6.927-3.624 1.949-8.747 4.709-10.99 8.324-2.956 4.766-4.596 10.774-7.22 15.8-4.838 9.26-17.939 9.154-24.7 16.633-3.483 3.852-5.028 8.69-8.038 12.87-3.178 4.412-8.353 5.393-12.814 8.145-5.23 3.225-9 6.471-9.756 12.79-.185 1.546-.605 4.416 1.167 5.339 1.867.972 4.784-1.799 6.102-2.922 4.145-3.533 6.5-9.15 11.644-11.253 6.063-2.48 11.037-2.987 14.999-8.864 3.728-5.53 6.168-13.727 12.706-16.492 7.235-3.06 13.02-5.426 17.126-12.55 3.836-6.658 3.685-14.059 11.539-17.91 8.101-3.973 15.48-7.746 20.821-15.16 1.87-2.595 3.6-4.757 4.795-7.783 1.127-2.859 1.9-6.606 4.086-8.839 2.893-2.955 19.291-5.535 15.176-12.29-2.83-4.645-10.166.221-14.71 1.593z" fill="#FFC94E"/><path d="M14.684 125.99c2.013-3.264 3.876-7.154 6.954-9.902 2.5-2.232 5.732-3.1 8.72-4.488 3.94-1.83 7.347-4.55 10.412-7.575 3.123-3.081 4.298-6.902 6.973-10.128 2.91-3.508 5.952-5.918 10.14-7.824 4.377-1.993 8.062-3.582 11.324-7.238 3.6-4.036 5.204-8.89 7.831-13.495 2.66-4.66 5.866-7.382 10.307-10.309 4.331-2.854 9.857-4.843 13.352-8.756 3.374-3.775 5.733-7.27 7.29-12.037 2.154-6.594 6.061-10.948 12.306-13.973 1.75-.847 14.063-6.227 11.307-.922-2.904 5.59-12.118 5.04-15.582 9.84-1.648 2.284-1.472 6.388-2.326 9.075-.88 2.769-2.8 5.978-4.72 8.182-2.674 3.07-6.094 5.452-9.627 7.419-3.41 1.898-7.172 2.591-10.63 4.47-3.651 1.982-6.177 4.27-7.693 8.148-1.329 3.4-1.914 7.038-3.754 10.242-3.62 6.302-8.87 8.69-15.26 11.26-4.206 1.693-5.806 2.282-8.168 6.22a1417.89 1417.89 0 0 1-5.87 9.688c-1.503 2.46-3.132 4.399-5.523 5.932-2.651 1.7-4.938 1.805-7.922 2.578-6.611 1.71-9.528 7.26-13.766 12.314-2.044 2.437-3.425 3.77-6.684 3.513-.109-.651-.221-1.605.61-2.234z" fill="#F2AE40"/><path d="M165.687 36.06c-.293-.271-.594-.54-.899-.805.212-.454.382-.941.56-1.414.529-1.4 1.067-2.802 1.522-4.229a28.41 28.41 0 0 0 1.338-7.84c.126-4.43-.722-9.01-2.834-12.929-4.726-8.77-15.192-10.424-23.994-7.545-2.302.753-4.208 2.265-6.38 3.112-1.782.696-3.963-.34-5.677-.696-1.667-.346-3.32-.33-5.008-.16-3.01.306-5.963.951-8.747 2.157-5.469 2.368-9.805 6.605-13.836 10.901-4.647 4.953-9.639 9.556-14.423 14.372-4.848 4.88-9.776 9.657-14.873 14.273-10.347 9.369-20.456 18.925-30.312 28.818-9.5 9.537-19.567 18.667-28.33 28.912-4.354 5.092-8.337 10.34-8.982 17.255-.223 2.4-.085 4.896.311 7.269.245 1.47.483 3.426 1.461 4.673a45.223 45.223 0 0 0-2.643 3.898c-2.586 4.303-4.39 9.39-3.843 14.483.974 9.047 8.424 15.599 17.257 16.439 4.704.447 10.057-.399 14.214-2.708a9.794 9.794 0 0 0 1.98-1.486c2.694 2.843 6.112 4.965 9.964 6.15 8.247 2.534 17.306 1.118 25.568-.6 8.881-1.849 17.423-5.46 25.103-10.3 14.983-9.441 27.572-22.806 38.686-36.495 5.688-7.005 11.091-14.252 16.46-21.506 5.245-7.088 10.325-14.333 14.589-22.072 2.162-3.927 4.09-7.98 5.742-12.15 1.531-3.863 2.953-7.836 3.277-12.013.526-6.767-2.338-13.21-7.25-17.763zm-34.603-18.038c-3.618 3.087-8.696 3.388-12.461 6.143-5.106 3.736-5.183 10.134-8.092 15.26-3.56 6.274-9.925 10.962-16.172 14.268-5.687 3.01-11.39 5.24-14.182 11.553-2.816 6.366-4.91 13.397-11.04 17.383-5.93 3.857-13.33 5.39-17.75 11.345-1.87 2.517-3.004 5.443-4.494 8.182-1.636 3.007-3.725 5.146-6.749 6.734-5.542 2.913-12.32 4.169-16.466 9.266-1.181 1.452-2.172 3.053-3.35 4.51-.822 1.016-2.714 3.728-4.25 3.668-2.089-.081-1.173-4.346-.667-5.42 1.3-2.755 3.92-4.941 6.359-6.655 5.777-4.058 12.8-6.414 17.407-12.019 2.365-2.877 3.349-6.443 5.397-9.498 2.056-3.068 5.213-5.124 8.353-6.922 5.86-3.356 12.369-6.015 16.623-11.532 4.097-5.314 4.581-12.863 9.654-17.455 5.49-4.968 12.993-6.915 18.469-11.977 2.653-2.453 5.052-5.581 5.923-9.16.484-1.985.375-4.068.891-6.042.393-1.503 1.279-2.83 2.285-3.993 3.935-4.545 9.809-7.229 15.133-9.753.723-.343 1.545-.746 2.412-1.122a25.972 25.972 0 0 1 4.184-.88c1.194-.142 2.987-.228 3.736.45 1.02.922-.091 2.76-1.153 3.666zM8.646 121.152c.38-6.005 4.013-10.678 7.756-15.059 8.217-9.62 17.658-18.146 26.58-27.087 9.459-9.48 19.022-18.86 29.038-27.746 9.692-8.599 18.916-17.707 28.102-26.847 4.619-4.595 8.791-9.956 14.416-13.37 2.78-1.688 5.829-2.688 9.042-3.13 1.755-.242 3.503-.351 5.233.06.631.15 1.266.288 1.883.474-.598 2.001-3.234 1.936-4.889 2.38-1.844.494-3.622 1.196-5.4 1.887-3.967 1.543-7.966 3.335-11.535 5.685-2.194 1.445-4.166 3.376-5.708 5.527-1.468 1.836-2.54 3.922-2.937 6.29-.34 2.024-.412 4.026-1.273 5.923-.872 1.918-2.174 3.564-3.666 5.028-2.892 2.839-6.446 4.69-9.972 6.595-3.372 1.823-6.8 3.743-9.562 6.455-2.637 2.588-4.101 5.955-5.492 9.323-1.414 3.427-2.784 6.857-5.448 9.516-2.647 2.642-5.97 4.483-9.231 6.239-3.309 1.78-6.672 3.487-9.668 5.783-3.137 2.404-5.354 5.321-7.03 8.9-1.734 3.706-3.73 6.69-7.12 9.063-3.15 2.206-6.666 3.791-9.918 5.828-5.033 3.153-12.414 9.133-10.607 15.99a9.95 9.95 0 0 0 .642 1.752c-.021-.045-2.441 2.166-2.888 1.948-.506-.246-.498-1.906-.528-2.357-.115-1.685.073-3.37.18-5.05zm20.39 34.632a22.407 22.407 0 0 0 1.78 3.5c-.868.483-1.69 1.09-2.307 1.392-7.819 3.83-18.922 2.273-23.133-6.034-2.596-5.122-1.096-10.979 1.52-15.761 1.429-2.61 3.218-4.94 5.028-7.286.284-.37 1.223-1.467 1.85-2.577a3.677 3.677 0 0 0 2.037.714c2.16.08 4.024-1.552 5.452-2.994 1.603-1.618 2.947-3.476 4.308-5.3 1.662-2.226 3.915-3.781 6.453-4.982 6.48-3.065 13.476-4.394 17.568-10.91 1.836-2.926 2.945-6.295 5.009-9.08 2.314-3.124 5.908-4.9 9.327-6.518 3.512-1.662 7.06-3.252 10.03-5.823 2.74-2.37 4.739-5.512 6.305-8.756 1.586-3.287 2.595-6.963 4.491-10.082 1.746-2.873 4.568-4.508 7.488-5.959 6.89-3.421 13.6-7.356 18.637-13.34 2.339-2.778 4.052-5.785 5.229-9.222.966-2.822 1.628-6.048 3.727-8.286 1.722-1.835 4.16-2.485 6.418-3.39 2.472-.99 4.99-2.058 7.072-3.762 1.895-1.55 3.303-3.725 3.084-6.268-.167-1.941-1.267-3.555-3.049-4.295 1.49-1.106 2.824-2.55 4.408-3.487 2.237-1.322 4.647-2.234 7.186-2.773 4.688-.994 10.201-.678 13.951 2.643 3.449 3.054 4.86 7.777 5.03 12.272.1 2.644-.175 5.234-.927 7.772-.489 1.65-1.126 3.25-1.718 4.864l-.154.42c-4.418-2.93-9.574-4.878-14.83-4.787-7.51.13-13.314 3.837-19.01 8.386-11.77 9.402-21.246 21.533-30.973 32.752-2.628 3.031-5.298 6.029-8.069 8.96A628.426 628.426 0 0 1 67.53 98.742c-6.822 6.571-13.615 13.233-21.105 19.041-6.7 5.195-13.512 10.561-16.911 18.632-2.572 6.107-2.972 13.163-.478 19.369zm135.19-88.76c-6.731 15.411-17.316 28.777-27.386 42.073-10.057 13.28-20.96 26.08-33.76 36.77-6.52 5.447-13.497 10.24-21.264 13.704-7.512 3.353-15.762 5.361-23.944 6.08-7.188.633-15.126.051-20.593-5.247-4.298-4.166-6.096-10.284-5.362-16.186.944-7.585 5.88-13.463 11.443-18.28 3.064-2.654 6.369-5.007 9.477-7.608 3.409-2.852 6.69-5.855 9.916-8.914 6.49-6.15 12.9-12.399 19.134-18.812 6.395-6.578 12.856-13.186 18.747-20.23 10.845-12.968 20.998-27.288 36.15-35.48 5.563-3.007 11.29-3.342 17.207-.885 5.661 2.35 11.337 6.61 13.459 12.608 2.438 6.893-.457 14.074-3.223 20.407z" fill="#000"/></g></svg>