<svg width="557" height="637" viewBox="0 0 557 637" fill="none" xmlns="http://www.w3.org/2000/svg"><path d="M1.336 635.665h554.329m-285.848-29.38h273.825m-227.074-20.031h216.389m-244.439-24.038h57.436m78.809 0h42.743M37.4 615.633h34.73m36.064 0h57.437m-66.787 0H93.5m42.744-29.379h149.602" stroke="#000" stroke-width="2" stroke-miterlimit="10" stroke-linecap="round"/><path d="M229.746 208.461v214.603c0 43.402 35.531 78.924 78.942 78.924h98.443c43.411 0 78.942-35.522 78.942-78.924V208.461c0-43.402-35.531-78.924-78.942-78.924h-98.443c-43.411 0-78.942 35.522-78.942 78.924zm-88.827 175.475l-29.386 48.076 13.358 1.335 33.393-48.076-17.365-1.335z" fill="#fff" stroke="#000" stroke-width="2" stroke-miterlimit="10"/><path d="M258.064 569.828l9.216 2.003 10.285-46.339-27.783-2.004 8.282 46.34z" fill="#000" stroke="#000" stroke-width="2" stroke-miterlimit="10"/><path d="M267.28 572.899l10.285-3.071 8.282-47.274-27.784-2.137 9.217 52.482z" fill="#000" stroke="#fff" stroke-miterlimit="10"/><path d="M442.395 569.828l9.216 2.003 10.285-46.339-27.783-2.004 8.282 46.34z" fill="#000" stroke="#000" stroke-width="2" stroke-miterlimit="10"/><path d="M451.611 572.899l10.285-3.071 8.282-47.274-27.783-2.137 9.216 52.482z" fill="#000" stroke="#fff" stroke-miterlimit="10"/><path d="M148.667 549.529l-47.819 29.78 11.353 7.212 51.426-28.044-14.96-8.948zm71.729-36.056c0 21.634 17.765 39.395 39.404 39.395h223.067c21.639 0 39.404-17.761 39.404-39.395 0-21.634-17.765-39.395-39.404-39.395H259.8c-21.639 0-39.404 17.761-39.404 39.395z" fill="#fff" stroke="#000" stroke-width="2" stroke-miterlimit="10"/><path d="M261.803 383.268l-2.671 90.81h199.024v-16.026l-196.353-74.784z" fill="#000" stroke="#000" stroke-width="2" stroke-miterlimit="10"/><path d="M490.213 602.279l-13.357-4.006-10.686-61.163 36.065-2.938-12.022 68.107z" fill="#000"/><path d="M496.893 599.608l-12.022 2.671-13.357-60.095 36.064-2.67-10.685 60.094z" fill="#000" stroke="#fff" stroke-miterlimit="10"/><path d="M217.724 598.273l12.022 2.67 13.357-60.094-36.065-2.671 10.686 60.095z" fill="#000" stroke="#000" stroke-width="2" stroke-miterlimit="10"/><path d="M229.745 602.279l13.358-4.006 10.685-61.163-36.064-2.938 12.021 68.107z" fill="#000" stroke="#fff" stroke-miterlimit="10"/><path d="M140.92 533.504s-9.351 45.405 26.714 62.765l280.504-126.865s66.786-30.715 65.451-84.133l-129.566-50.746s-18.7-10.683-36.065-2.671L246.576 267.22c-5.477-3.473-12.556-2.271-16.697 2.67l-95.772 118.052s13.358 44.07 42.744 40.063l58.772-58.759s61.444 53.418 68.122 56.088L140.92 533.504z" fill="#fff" stroke="#000" stroke-width="2" stroke-miterlimit="10"/><path d="M269.818 382.601c0-21.634-17.765-39.396-39.404-39.396-21.639 0-39.404 17.762-39.404 39.396v117.651l78.808-52.349v-65.302z" fill="#fff" stroke="#000" stroke-width="2" stroke-miterlimit="10"/><path d="M298.803 428.673s49.823-32.05 51.158-36.057m-16.028-52.081s19.368-18.429 40.472-9.883" stroke="#000" stroke-width="2" stroke-miterlimit="10"/><path d="M126.894 432.679s0 5.342-1.336 10.684c-.668 2.938 4.007 5.341-18.7 9.348-22.707 4.006-21.372 5.341-28.05 6.677-6.679 1.335-31.39.4-24.044-4.006 10.018-6.01 12.022-3.339 25.38-9.348 12.021-5.342 25.779-12.42 26.714-13.355 8.014-8.012 15.361-22.034 16.697-20.699 4.808 4.808 14.025 2.003 12.689 4.674-1.336 2.671-9.35 16.025-9.35 16.025z" fill="#000" stroke="#000" stroke-width="2" stroke-miterlimit="10"/><path d="M80.812 502.789S68.79 492.106 68.79 490.77c0-1.335-2.671-1.335-5.343 0-2.671 1.336-12.021 21.367-6.678 44.07 5.342 22.702 8.014 32.05 10.685 38.727 2.672 6.677 4.008 18.696 4.008 22.702 0 4.007 5.343 18.696 9.35 18.696s14.693-1.335 17.364-16.025c2.672-14.689-6.678-62.765-6.678-62.765l-10.686-33.386z" fill="#000" stroke="#000" stroke-miterlimit="10"/><path d="M104.855 549.529s1.336-13.354-6.679-21.367c-8.014-8.012-9.35-18.696-9.35-21.366 0-2.671 1.336-9.348-8.014-10.684-9.35-1.335-9.35-1.335-10.686 1.336-1.336 2.67-1.336 13.354 0 16.025 1.336 2.671 9.35 6.677 4.007 12.019-5.343 5.341-5.343 2.67-4.007 8.012 1.336 5.342 1.336 5.342 5.343 8.013 4.007 2.671 6.678 6.677 4.007 9.348-2.671 2.671-5.343 5.341-5.343 4.006s12.022 14.69 18.7 14.69c6.679 0-5.343 8.012-9.35 4.006s-2.671 6.677 0 6.677c2.672 0 12.022 4.007 9.35 6.677-2.671 2.671-8.014 1.336-8.014 1.336s-2.672 9.348 4.007 9.348 10.686-1.336 14.693-4.006c4.007-2.671 10.686-2.671 14.693-2.671s1.336-17.361-9.35-20.032c-5.476-1.335-5.343-17.36-4.007-21.367z" fill="#fff" stroke="#000" stroke-width="2" stroke-miterlimit="10"/><path d="M105.79 554.07c15.495 6.811 14.827 6.543 18.166 6.811 6.679.534-1.202 16.025-7.881 15.49-6.678-.534-12.556-10.416-12.422-11.751 0-1.336-.534-12.019 2.137-10.55z" fill="#000" stroke="#000" stroke-width="2" stroke-miterlimit="10"/><path d="M486.874 562.216c21.639 0 39.404-17.761 39.404-39.395v-140.22c0-21.634-17.765-39.396-39.404-39.396-21.639 0-39.404 17.762-39.404 39.396v140.22c0 21.634 17.765 39.395 39.404 39.395z" fill="#fff" stroke="#000" stroke-width="2" stroke-miterlimit="10"/><path d="M519.599 380.597s28.05-16.025 22.708-96.15c-5.343-80.126-17.365-94.816-28.051-101.493-10.686-6.677-34.729-17.361-58.772-9.348-24.043 8.012-62.779 29.379-72.13 48.075-9.35 18.696 9.351 41.399 9.351 41.399s16.028 20.031 16.028 26.708l-37.4-49.411s-17.365-9.348-38.736 8.013l12.956 84.399s12.423-12.286 63.18 10.416c0 0-13.357 40.063 12.022 45.405l98.844-8.013zm-132.237-219.01s-8.014-2.671-10.686 0c0 0-10.686-32.05 8.015-40.063 18.7-8.012 24.043 6.677 24.043 6.677l-12.022 33.386h-9.35z" fill="#000" stroke="#000" stroke-width="2" stroke-miterlimit="10"/><path d="M414.077 114.58s-29.653-5.475-39.137 20.432c-.4 1.068 1.336 2.404 1.87 1.335 5.343-10.817 15.094-9.748 20.036 3.873 6.545 18.696 17.231-25.64 17.231-25.64z" fill="#fff" stroke="#000" stroke-width="2" stroke-miterlimit="10"/><path d="M458.156 172.938c0-1.736-.668-3.205-1.87-4.273 1.87-1.202 3.206-3.205 3.206-5.743 0-3.739-2.939-6.677-6.679-6.677-1.603 0-3.206.668-4.274 1.603l-2.405-11.084c-3.473-15.892-19.234-26.041-35.263-22.703l-3.74.802c-15.895 3.472-26.047 19.23-22.707 35.255l11.086 51.414c3.473 15.892 19.235 26.041 35.263 22.702l3.74-.801c15.896-3.472 26.047-19.23 22.708-35.255l-4.141-19.23c2.805-.535 5.076-2.938 5.076-6.01z" fill="#fff" stroke="#000" stroke-width="2" stroke-miterlimit="10"/><path d="M434.113 132.208l-4.007-20.032s-45.415 0-28.051 33.386c0 0 35.932-6.677 36.065 21.1v2.938c-.133 1.469-.534 9.214 2.939 11.217 0 0 3.74-23.236 2.404-28.578" fill="#000"/><path d="M434.113 132.208l-4.007-20.032s-45.415 0-28.051 33.386c0 0 35.932-6.677 36.065 21.1v2.938c-.133 1.469-.534 9.214 2.939 11.217 0 0 3.74-23.236 2.404-28.578" stroke="#000" stroke-width="2" stroke-miterlimit="10"/><path d="M412.073 115.381s20.704-17.895 44.747-3.205 13.358 24.038 28.051 26.709c0 0-8.015 5.341-20.036 1.335 0 0 1.335 4.006 6.678 4.006 0 0-5.343 5.342-14.693 0 0 0 1.336 4.007 4.007 4.007 0 0-10.685 10.683-22.707 1.335-12.022-9.348-8.014-31.115-26.047-34.187z" fill="#fff" stroke="#000" stroke-width="2" stroke-miterlimit="10"/><path d="M405.528 347.078s76.003-24.972 77.873-31.382c0 0-77.606 28.578-81.613 28.177l3.74 3.205z" fill="#fff"/><path d="M379.615 373.787c-1.202.4-2.137 1.068-2.939 2.003-1.068 1.335-2.404 3.339-2.805 4.941l-6.278 25.907c-.534 2.137-.4 4.407.267 6.277l-2.003 25.373c-.134 1.603 1.068 2.938 2.671 3.072h.535c.667 0 2.137-1.202 1.87-.535l-.268 4.007c-.133 1.602 1.069 2.938 2.672 3.071h.534c.401 0 1.336.401 2.271.668.668.267 1.336.4 1.87.4h.534c1.603.134 2.939-1.068 3.072-2.67l.401-4.674c.267.133.668.267 1.069.267h.534c1.603.133 2.939-1.069 3.072-2.671l2.137-25.64c.267-.535.401-1.202.668-1.736l6.278-25.908c.401-1.602.401-3.205.134-4.674l17.364-4.407c1.47-.267 2.538-1.335 2.939-2.671l2.137-6.677c1.336-4.273-2.805-8.279-6.946-6.81l-27.115 11.351-4.675 1.736z" fill="#fff" stroke="#000" stroke-width="2" stroke-miterlimit="10"/><path d="M377.878 415.719l-1.469 33.653m-5.076-1.869l1.069-32.451m9.75 26.575l1.203-25.24" stroke="#000" stroke-width="2" stroke-miterlimit="10"/><path d="M325.919 228.359l-.134 1.602c-2.003 1.202-4.675.668-5.877-1.335l-12.823-16.159c-1.202-2.003-.668-4.674 1.336-5.876l.668-.401c2.003-1.202 4.675-.667 5.877 1.336l10.151 16.158c1.202 2.004 2.805 3.473.802 4.675z" fill="#fff" stroke="#000" stroke-width="2" stroke-miterlimit="10"/><path d="M345.687 223.952l-9.484 4.139c-4.541 2.004-10.285-.267-12.555-4.941l-28.452-57.29c-2.27-4.674-.534-10.149 4.008-12.152l9.483-4.14c4.542-2.003 10.285.267 12.556 4.941l28.451 57.29c2.405 4.674.668 10.149-4.007 12.153z" fill="#EAA53D" stroke="#000" stroke-width="2" stroke-miterlimit="10"/><path d="M331.262 176.277l18.7 36.056s2.137 6.01-.935 8.948c-3.072 3.071-4.408 1.736-4.408 1.736s8.549-1.603 4.007-10.684c-4.007-8.012-17.364-36.056-17.364-36.056z" fill="#fff"/><path d="M344.619 222.483c-.134-1.469-.668-3.072-1.47-4.407l-13.357-23.103c-.267-.534-.668-1.069-1.069-1.603l-9.35-24.038c-.534-1.469-2.27-2.27-3.74-1.602l-.534.267c-.401.134-.668.267-.935.534l-1.736-4.407c-.535-1.469-2.271-2.27-3.741-1.602l-.534.267c-.401.133-1.068.534-1.603.935a25.47 25.47 0 0 1-2.003 1.202l-.535.267c-1.469.534-2.27 2.27-1.602 3.739l1.469 3.739c.401.668-1.336-.267-2.004 0l-.534.267c-1.469.534-2.271 2.27-1.603 3.739l9.217 23.637c-.134 2.137.4 4.274 1.469 6.143l13.491 23.103c.801 1.336 2.671 2.938 4.141 3.873.935.668 2.137 1.068 3.339 1.202l10.419 15.09c1.202 1.736 3.205 2.538 5.209 2.271l7.614-1.202c2.805-.401 4.14-3.74 2.27-6.01l-13.624-16.426s2.671-2.403 1.336-5.875z" fill="#fff" stroke="#000" stroke-width="2" stroke-miterlimit="10"/><path d="M317.503 194.839l-11.22-31.917m-4.14 3.339l10.285 30.848m1.736-28.444l8.282 24.037" stroke="#000" stroke-width="2" stroke-miterlimit="10"/><path d="M316.41 159.515c1.164-1.524.682-3.848-1.077-5.191s-4.128-1.196-5.292.328c-1.165 1.524-.683 3.848 1.076 5.191 1.759 1.343 4.128 1.196 5.293-.328z" stroke="#fff" stroke-width="2" stroke-miterlimit="10"/><path d="M414.478 165.193c-.401-2.137 1.603-4.407 4.541-4.941 2.939-.535 5.61.801 6.011 2.938m-32.993 8.947c-.401-1.603 1.336-3.472 4.007-4.006 2.538-.668 5.076.133 5.477 1.736" stroke="#000" stroke-width="3" stroke-miterlimit="10" stroke-linecap="round"/><path d="M404.059 182.954c0 1.068-1.202 2.003-2.672 2.003-1.469 0-2.003-.935-2.003-2.003s1.202-2.671 2.671-2.671c1.47 0 2.004 1.603 2.004 2.671zm21.372-4.006c0 1.068-1.202 2.003-2.672 2.003-1.469 0-2.003-.935-2.003-2.003 0-1.069 1.202-2.671 2.671-2.671 1.47 0 2.004 1.602 2.004 2.671z" fill="#000"/><path d="M412.741 192.302s-1.336-.801-1.336-2.671c0-1.335 2.672-1.335 2.672-1.335m-2.672 8.012s1.336 2.671 5.343 2.671c5.343 0 5.343-6.677 5.343-6.677m-12.021-88.138s-1.336-5.342 6.678-4.007c8.015 1.336 6.679-5.341 6.679-5.341m28.051-9.348s2.671-5.342 9.35-4.007c6.678 1.336 9.35-1.335 9.35-1.335m-6.679 26.708s4.007-8.012 10.686-4.006 6.679 4.006 10.686 2.671m18.699 18.696s1.336-4.006 6.679-4.006 8.014-5.342 8.014-5.342m-37.4 40.063s0-6.677 10.686-5.342c10.686 1.336 12.022-6.677 12.022-6.677" stroke="#000" stroke-width="2" stroke-miterlimit="10" stroke-linecap="round"/><path d="M349.962 1.335h-86.823c-8.816 0-16.029 7.212-16.029 16.026v61.43c0 8.546 6.679 15.49 15.094 16.025l9.885 14.823c.534.801 1.736.4 1.736-.534v-14.29h76.137c8.815 0 16.028-7.21 16.028-16.025V17.36c0-8.813-7.213-16.025-16.028-16.025z" fill="#fff" stroke="#000" stroke-width="2" stroke-miterlimit="10"/><path d="M272.489 42.734c7.377 0 13.357-5.98 13.357-13.355s-5.98-13.354-13.357-13.354c-7.377 0-13.357 5.98-13.357 13.355s5.98 13.354 13.357 13.354z" fill="#EAA53D" stroke="#EAA53D" stroke-width="2" stroke-miterlimit="10"/><path d="M349.294 28.044h-49.422a3.307 3.307 0 0 1-3.34-3.338c0-1.87 1.47-3.34 3.34-3.34h49.422a3.306 3.306 0 0 1 3.339 3.34 3.306 3.306 0 0 1-3.339 3.338zm-32.058 13.354h-17.364a3.307 3.307 0 0 1-3.34-3.338c0-1.87 1.47-3.339 3.34-3.339h17.364a3.306 3.306 0 0 1 3.339 3.339 3.306 3.306 0 0 1-3.339 3.338z" fill="#EAA53D" stroke="#000" stroke-width="2" stroke-miterlimit="10"/><path d="M340.077 85.468h-63.046a12.54 12.54 0 0 1-12.556-12.553V65.97a12.54 12.54 0 0 1 12.556-12.553h63.046a12.54 12.54 0 0 1 12.556 12.553v6.945a12.54 12.54 0 0 1-12.556 12.552z" fill="#fff" stroke="#000" stroke-width="2" stroke-miterlimit="10"/><path d="M277.832 65.436h60.108m-60.108 8.013h30.722" stroke="#000" stroke-width="2" stroke-miterlimit="10" stroke-linecap="round"/><path d="M279.168 38.727c7.377 0 13.357-5.978 13.357-13.354 0-7.375-5.98-13.354-13.357-13.354-7.377 0-13.357 5.979-13.357 13.354 0 7.375 5.98 13.354 13.357 13.354zm-64.115 21.367h-21.372c-8.816 0-16.029 7.212-16.029 16.026v21.366c0 8.547 6.679 15.491 15.094 16.026l9.885 14.823c.534.801 1.736.4 1.736-.534v-14.289h10.686c8.816 0 16.029-7.212 16.029-16.026V76.12c0-8.813-7.213-16.025-16.029-16.025z" fill="#fff" stroke="#000" stroke-width="2" stroke-miterlimit="10"/><path d="M212.782 88.005v-.267c.134-1.87.134-3.873.268-5.743 0-.267 0-.267-.268-.267h-6.144c-.401 0-.401 0-.401-.4v-5.075c0-1.068.535-1.736 1.603-1.87.134 0 .401 0 .534-.133h4.141c.267 0 .267 0 .267-.267 0-1.736.134-3.606.134-5.342 0-.267-.134-.267-.267-.267-1.469 0-2.939-.133-4.542-.133-.935 0-1.87.133-2.805.4-3.606.935-5.877 3.873-5.877 7.612v5.342c0 .267 0 .267-.267.267h-4.141c-.267 0-.267 0-.267.267v5.876c0 .267 0 .267.267.267h3.874c.534 0 .534-.134.534.534v16.827c0 .133 0 .267.134.267h6.278c.133 0 .267 0 .133-.267v-16.96c0-.535 0-.401.401-.401h5.877c.267-.267.401-.267.534-.267z" stroke="#000" stroke-width="2" stroke-miterlimit="10"/><path d="M212.783 88.005h-6.145c-.4 0-.4 0-.4.4v16.96c0 .134 0 .268-.134.268h-6.278c-.133 0-.267-.001-.133-.268V88.539c0-.534 0-.534-.535-.534h-3.873c-.267 0-.267 0-.267-.267v-5.876c0-.267.133-.267.267-.267h4.14c.268 0 .268 0 .268-.267v-5.342c0-3.74 2.27-6.544 5.877-7.612.935-.267 1.87-.4 2.805-.4 1.469 0 2.939.133 4.541.133.268 0 .267 0 .267.267 0 1.736-.133 3.606-.133 5.342 0 .267 0 .267-.267.267h-4.141c-.134 0-.401 0-.534.133-1.069.267-1.603.802-1.603 1.87v5.075c0 .4 0 .4.401.4h6.144c.267 0 .267 0 .267.267-.133 1.87-.133 3.873-.267 5.743-.267.267-.267.4-.267.534zm207.838-74.651h24.711c10.152 0 18.567 8.28 18.567 18.563v24.705c0 9.882-7.747 17.895-17.498 18.43l-11.487 17.226c-.535.935-2.004.4-2.004-.534v-16.56h-12.289c-10.151 0-18.566-8.279-18.566-18.562V31.917a18.525 18.525 0 0 1 18.566-18.563z" fill="#EAA53D" stroke="#000" stroke-width="2" stroke-miterlimit="10"/><path d="M130.902 421.462s-4.141-2.137-5.878-2.137l5.878 2.137z" fill="#000"/><path d="M130.902 421.462s-4.141-2.137-5.878-2.137" stroke="#fff" stroke-width="2" stroke-miterlimit="10" stroke-linecap="round"/><path d="M128.765 426.002s-4.141-2.137-5.877-2.137l5.877 2.137z" fill="#000"/><path d="M128.765 426.002s-4.141-2.137-5.877-2.137" stroke="#fff" stroke-width="2" stroke-miterlimit="10" stroke-linecap="round"/><path d="M104.187 541.116s-5.343-.267-8.014 2.404l8.014-2.404z" fill="#000"/><path d="M104.187 541.116s-5.343-.267-8.014 2.404" stroke="#000" stroke-width="2" stroke-miterlimit="10" stroke-linecap="round"/><path d="M104.187 547.126s-5.343-.268-8.014 2.403l8.014-2.403z" fill="#000"/><path d="M104.187 547.126s-5.343-.268-8.014 2.403" stroke="#000" stroke-width="2" stroke-miterlimit="10" stroke-linecap="round"/><path d="M104.187 553.135s-5.343-.267-8.014 2.404l8.014-2.404z" fill="#000"/><path d="M104.187 553.135s-5.343-.267-8.014 2.404m133.573-184.824v24.172m12.022-12.954h-24.177m269.951-11.218v24.172m12.021-12.954h-24.176" stroke="#000" stroke-width="2" stroke-miterlimit="10" stroke-linecap="round"/><path d="M422.5 37.5c-.8-9.6 6.667-12.333 10.5-12.5l5.5 1 4 3 2 4 .5 6.5 1.5-.5 2.5 1v2l-1 1.5-3 1.5 1 2.5 3 3 4 2.5-1 1.5-3.5 1.5-1.5 2.5-1.5.5h-4l-7.5 3h-2l-6.5-3h-5l-1.5-2-.5-1-4-1.5-.5-1.5 1-1 4.5-2.5L422 46l-.5-1.5-3-1.5-1-2 1.5-1.5h3l.5-2z" fill="#fff"/><path d="M433.482 25.952c5.503.002 10.086 4.583 10.093 10.1.001 1.291.041 2.481.114 3.577a1.26 1.26 0 0 0 1.541 1.144l1.724-.405a.966.966 0 0 1 1.159.717 1.269 1.269 0 0 1-.818 1.472l-2.617 1.056a1.406 1.406 0 0 0-.829 1.673c2.099 7.761 7.963 6.954 7.963 7.965 0 1.27-4.42 1.45-4.819 1.849-.4.4-.018 2.337-.91 2.712-.168.071-.407.096-.698.096-.672 0-1.623-.131-2.624-.131-.869 0-1.777.098-2.575.467-2.116.978-4.156 2.804-6.686 2.804-2.529 0-4.57-1.826-6.686-2.804-.798-.369-1.706-.467-2.574-.467-1.002 0-1.953.13-2.625.13-.291 0-.53-.024-.698-.094-.892-.376-.51-2.314-.909-2.713-.4-.4-4.819-.579-4.819-1.849 0-1.01 5.863-.204 7.962-7.965a1.406 1.406 0 0 0-.829-1.673l-2.617-1.056a1.269 1.269 0 0 1-.818-1.472.96.96 0 0 1 1.159-.717l1.724.404a1.254 1.254 0 0 0 1.541-1.143c.073-1.096.113-2.286.114-3.578.007-5.516 4.554-10.097 10.057-10.099zm.001-2.188h-.002c-1.643 0-3.243.33-4.755.98a12.312 12.312 0 0 0-3.885 2.646 12.379 12.379 0 0 0-2.629 3.9 12.125 12.125 0 0 0-.976 4.759 56.67 56.67 0 0 1-.049 2.339l-.642-.15a3.155 3.155 0 0 0-3.795 2.373 3.459 3.459 0 0 0 2.172 3.99l1.92.775c-1.272 3.903-3.616 4.65-5.195 5.155-.419.133-.781.249-1.126.42-1.373.681-1.521 1.836-1.521 2.3 0 .89.421 1.703 1.186 2.287.381.292.853.532 1.443.735.803.276 1.735.452 2.492.593.037.28.091.582.181.886.376 1.261 1.168 1.826 1.767 2.078.568.239 1.154.266 1.546.266.384 0 .789-.03 1.218-.061.461-.035.937-.07 1.407-.07.727 0 1.269.087 1.656.266.531.245 1.094.576 1.69.926 1.66.974 3.541 2.08 5.914 2.08 2.373 0 4.254-1.106 5.914-2.08.596-.35 1.159-.681 1.69-.926.387-.18.929-.266 1.657-.266.469 0 .945.035 1.406.07.429.031.834.061 1.218.061.392 0 .978-.027 1.546-.266.599-.252 1.391-.817 1.767-2.078.09-.304.144-.606.181-.886.757-.141 1.689-.317 2.492-.593.59-.203 1.062-.444 1.443-.735.765-.584 1.186-1.397 1.186-2.287 0-.464-.148-1.619-1.521-2.3-.345-.171-.707-.287-1.126-.42-1.579-.504-3.924-1.252-5.195-5.155l1.92-.775a3.459 3.459 0 0 0 2.172-3.99 3.134 3.134 0 0 0-1.138-1.792 3.176 3.176 0 0 0-2.657-.582l-.642.15a56.645 56.645 0 0 1-.05-2.339 12.052 12.052 0 0 0-.983-4.764 12.392 12.392 0 0 0-2.643-3.897 12.382 12.382 0 0 0-3.895-2.643 12.026 12.026 0 0 0-4.759-.98z" fill="#050505"/></svg>