<svg width="193" height="195" viewBox="0 0 193 195" fill="none" xmlns="http://www.w3.org/2000/svg"><g clip-path="url(#a)" fill="#EAA53D"><path d="M19.314 91.75l3.672 1.632c3.903 1.745 7.912 3.143 12.158 3.772 1.725.268 3.485.19 5.177-.232 4-1.009 7.988-2.064 11.562-4.194 1.153-.688 2.205-1.592 3.173-2.529.97-.937 1.009-1.546.3-2.708a24.256 24.256 0 0 0-2.015-2.792c-1.422-1.72-3.01-3.312-4.332-5.106-1.84-2.482-2.272-5.317-1.243-8.232 1.2-3.41 4.697-5.505 8.422-5.217 2.415.185 4.413 1.224 6.05 2.988 1.12 1.205 2.231 2.418 3.355 3.617.247.23.508.445.78.644.628-1.368 1.23-2.659 1.822-3.955 1.34-2.923 2.477-5.96 4.051-8.752 7.324-12.993 21.283-20.056 36.149-18.022 13.884 1.896 24.713 8.839 31.752 21.05 5.469 9.488 6.216 19.58 2.566 29.92-1.379 3.909-3.514 7.414-6.018 10.706-1.607 2.11-3.128 4.287-4.684 6.436-.065.09-.112.193-.272.47 1.71.4 3.312.836 4.939 1.14 2.451.458 4.596 1.451 6.106 3.477 2.162 2.902 2.603 6.098.798 9.253-1.805 3.155-4.843 4.48-8.421 4.165-2.281-.202-4.519-.863-6.795-1.234-1.223-.198-2.47-.246-3.713-.3-.776-.033-1.298.365-1.621 1.11-.772 1.751-.876 3.596-.785 5.456.204 4.333 1.25 8.516 2.652 12.589.741 2.144 2.311 3.798 3.841 5.437 2.924 3.132 6.299 5.722 9.855 8.09.605.402.644.697.281 1.269-1.038 1.641-1.766 3.482-3.193 4.874-3.042 2.966-6.767 3.99-10.92 3.779-2.782-.141-5.39-1.037-8.019-1.844-.854-.262-1.714-.511-2.555-.812-.433-.156-.684-.042-.949.301-.546.705-1.093 1.413-1.705 2.059-2.659 2.814-6.258 3.207-9.436.969-1.595-1.123-3.08-2.402-4.61-3.607-2.65-2.086-5.436-3.953-8.875-4.374-1.48-.179-3.003-.063-4.498.008-3.31.165-6.624.632-9.926.541-11.319-.31-19.763-5.549-25.267-15.418-1.543-2.77-2.841-5.68-4.153-8.57-1.595-3.513-4.29-5.856-7.724-7.391-2.423-1.086-4.953-1.939-7.369-3.042-4.185-1.91-5.575-5.422-3.975-9.72.176-.535.386-1.058.627-1.567.24-.46.148-.729-.23-1.072-1.896-1.759-3.825-3.489-5.611-5.357-2.242-2.336-3.78-5.092-4.364-8.315a12.437 12.437 0 0 1 .506-6.457c.062-.175.098-.357.146-.536l2.538-4.396zm1.933 5.983a2.12 2.12 0 0 0-.195.3c-.086.192-.16.39-.22.593-.7 2.451-.193 4.74.996 6.929 1.133 2.082 2.838 3.669 4.55 5.252a440.824 440.824 0 0 1 4.523 4.252c.738.7.97 1.488.536 2.481a51.91 51.91 0 0 0-1.564 4c-.526 1.539-.133 2.442 1.28 3.23.25.137.506.26.768.367 2.604 1.087 5.263 2.062 7.806 3.278 3.882 1.853 6.965 4.615 8.861 8.559 1.52 3.157 2.904 6.398 4.637 9.431 4.55 7.987 11.508 12.245 20.709 12.546 3.044.099 6.102-.287 9.152-.485 2.277-.151 4.544-.376 6.82.061 4.079.78 7.46 2.911 10.645 5.433 1.382 1.095 2.731 2.241 4.169 3.258 1.371.971 2.363.827 3.488-.404.759-.83 1.453-1.722 2.129-2.622 1.388-1.838 1.701-1.961 3.921-1.31.067.02.134.052.2.07 2.703.808 5.385 1.698 8.112 2.404 2.583.666 5.184.66 7.651-.53 1.177-.563 2.202-1.334 2.928-2.501-.201-.161-.358-.296-.523-.421-2.946-2.204-5.716-4.602-8.15-7.369-1.689-1.911-3.262-3.921-4.074-6.379-1.246-3.778-2.23-7.637-2.647-11.606-.296-2.846-.287-5.676.604-8.443 1.091-3.394 3.156-4.945 6.721-5.026a6.315 6.315 0 0 1 1.056.035c1.788.268 3.576.542 5.358.841 1.367.231 2.718.58 4.093.736 1.764.204 3.703-.91 4.183-2.27.601-1.706.041-3.61-1.593-4.619-.811-.501-1.82-.74-2.773-.939-2.196-.454-4.369-.944-6.396-1.925-1.18-.571-2.252-1.276-2.954-2.432-.269-.442-.307-.828.024-1.288.871-1.225 1.689-2.488 2.565-3.71 2.066-2.878 4.284-5.668 6.213-8.634 6.111-9.391 7.156-19.371 2.88-29.777-2.87-6.984-7.753-12.328-14.123-16.336-6.465-4.068-13.513-6.25-21.17-5.8-12.778.75-21.949 7.044-27.506 18.525-2.025 4.183-3.886 8.447-5.772 12.697-.317.712-.766.87-1.429.811a5.973 5.973 0 0 1-3.408-1.412c-1.565-1.343-3.038-2.796-4.535-4.217-.663-.63-1.227-1.377-1.947-1.924-1.32-1.005-3.227-.97-4.58-.039-1.24.853-1.706 2.21-1.246 3.944.148.615.423 1.192.808 1.695 1.299 1.579 2.688 3.083 4.016 4.634 1.306 1.524 2.516 3.115 3.18 5.042.675 1.961.413 3.783-.758 5.499-1.429 2.09-3.378 3.566-5.555 4.77-4.117 2.28-8.588 3.566-13.15 4.569-1.101.24-2.226.356-3.353.344-4.076-.043-7.932-1.183-11.73-2.54-1.424-.495-2.81-1.074-4.231-1.628z"/><path fill-rule="evenodd" clip-rule="evenodd" d="M113.394 75.9a1.77 1.77 0 0 1-2.164-1.25 2.054 2.054 0 0 0-2.51-1.45 1.77 1.77 0 0 1-2.164-1.249 1.76 1.76 0 0 1 1.246-2.158 5.59 5.59 0 0 1 4.234.561 5.59 5.59 0 0 1 2.604 3.386 1.76 1.76 0 0 1-1.246 2.16z"/><path d="M93.18 59.12a2 2 0 0 0-3.931.735l3.932-.735zm-1.117 4.899l.664 1.886 1.617-.57-.315-1.684-1.966.368zm-5.012-.356a2 2 0 1 0 1.328 3.773l-1.328-3.773zm2.198-3.808l.848 4.532 3.932-.736-.848-4.532-3.932.736zm2.15 2.277l-4.348 1.531 1.328 3.773 4.348-1.531-1.328-3.773zm35.053 27.286a2 2 0 1 0 3.932-.736l-3.932.736zm1.118-4.9l-.664-1.886-1.617.57.315 1.684 1.966-.367zm5.012.356a2 2 0 0 0-1.328-3.773l1.328 3.773zm-2.198 3.808l-.848-4.531-3.932.736.848 4.53 3.932-.735zm-2.15-2.277l4.348-1.531-1.328-3.773-4.348 1.531 1.328 3.773z"/></g><defs><clipPath id="a"><path fill="#fff" transform="rotate(30 36.143 134.889)" d="M0 0h138.524v144.573H0z"/></clipPath></defs></svg>