<svg width="150" height="150" viewBox="0 0 150 150" fill="none" xmlns="http://www.w3.org/2000/svg"><g clip-path="url(#a)"><path d="M55.836 128.842l1.883-2.329c2.009-2.473 3.789-5.09 5.06-8.026a9.754 9.754 0 0 0 .832-3.771c.045-3.075.055-6.149-.79-9.133-.272-.963-.72-1.894-1.207-2.773-.488-.878-.919-1.024-1.892-.738a18.05 18.05 0 0 0-2.4.913c-1.512.691-2.964 1.527-4.51 2.133-2.143.846-4.267.61-6.167-.693-2.223-1.522-3.057-4.444-2.132-7.07.6-1.702 1.733-2.94 3.319-3.779 1.083-.573 2.17-1.14 3.251-1.717.214-.134.419-.28.615-.438-.865-.716-1.678-1.398-2.496-2.074-1.847-1.53-3.814-2.933-5.52-4.605-7.941-7.779-10.334-19.191-6.001-29.501 4.043-9.63 11.13-16.087 21.28-18.799 7.885-2.107 15.295-.698 22.034 3.924 2.548 1.747 4.66 3.96 6.547 6.398 1.21 1.564 2.483 3.079 3.73 4.614.052.064.118.117.286.286.618-1.154 1.241-2.223 1.774-3.335.803-1.677 1.93-3.03 3.68-3.726 2.507-.996 4.893-.698 6.816 1.21 1.923 1.909 2.292 4.351 1.374 6.866-.585 1.604-1.492 3.088-2.199 4.655-.378.842-.653 1.73-.932 2.615-.174.552.012 1.005.487 1.38 1.111.895 2.419 1.325 3.776 1.618 3.158.69 6.372.743 9.575.52 1.686-.12 3.18-.931 4.655-1.716 2.819-1.502 5.335-3.432 7.725-5.535.407-.358.626-.329.968.043.981 1.063 2.166 1.943 2.893 3.239 1.548 2.762 1.567 5.641.614 8.59-.638 1.976-1.786 3.68-2.874 5.417-.353.565-.699 1.136-1.078 1.683-.195.282-.162.485.034.742.402.528.806 1.06 1.154 1.624 1.512 2.457 1.101 5.125-1.124 6.98-1.115.932-2.322 1.754-3.486 2.623-2.013 1.506-3.894 3.151-4.86 5.546-.415 1.031-.625 2.15-.862 3.24-.52 2.415-.823 4.891-1.525 7.25-2.408 8.089-7.808 13.158-15.975 15.217-2.291.576-4.637.949-6.97 1.336-2.838.471-5.044 1.959-6.811 4.136-1.25 1.535-2.353 3.191-3.612 4.718-2.183 2.644-4.98 2.968-7.765.987a10.56 10.56 0 0 1-1.007-.754c-.285-.261-.496-.247-.816-.042-1.633 1.026-3.25 2.082-4.94 3.007-2.114 1.163-4.394 1.739-6.828 1.537a9.27 9.27 0 0 1-4.55-1.609c-.114-.078-.238-.14-.358-.209l-2.675-2.675z" fill="#EAA53D"/><path d="M55.836 128.842l1.883-2.329c2.009-2.473 3.789-5.09 5.06-8.026a9.754 9.754 0 0 0 .832-3.771c.045-3.075.055-6.149-.79-9.133-.272-.963-.72-1.894-1.207-2.772-.488-.879-.919-1.025-1.892-.739a18.05 18.05 0 0 0-2.4.913c-1.512.691-2.964 1.527-4.51 2.133-2.143.846-4.267.61-6.167-.693-2.223-1.522-3.057-4.444-2.132-7.07.6-1.702 1.733-2.94 3.319-3.779 1.083-.573 2.17-1.14 3.251-1.717.214-.134.419-.28.615-.438-.865-.716-1.678-1.398-2.496-2.074-1.847-1.53-3.814-2.933-5.52-4.605-7.941-7.779-10.334-19.191-6.001-29.501 4.043-9.63 11.13-16.087 21.28-18.799 7.885-2.107 15.295-.698 22.034 3.924 2.548 1.747 4.66 3.96 6.547 6.398 1.21 1.564 2.483 3.079 3.73 4.614.052.064.118.117.286.286.618-1.154 1.241-2.223 1.774-3.335.803-1.677 1.93-3.03 3.68-3.726 2.507-.996 4.893-.698 6.816 1.21 1.923 1.909 2.292 4.351 1.374 6.866-.585 1.604-1.492 3.088-2.199 4.655-.378.842-.653 1.73-.932 2.615-.174.552.012 1.005.487 1.38 1.111.895 2.419 1.325 3.776 1.618 3.158.69 6.372.743 9.575.52 1.686-.12 3.18-.931 4.655-1.716 2.819-1.502 5.335-3.432 7.725-5.535.407-.358.626-.329.968.043.981 1.063 2.166 1.943 2.893 3.239 1.548 2.762 1.567 5.641.614 8.59-.638 1.976-1.786 3.68-2.874 5.417-.353.565-.699 1.136-1.078 1.683-.195.282-.162.485.034.742.402.528.806 1.06 1.154 1.624 1.512 2.457 1.101 5.125-1.124 6.98-1.115.932-2.322 1.754-3.486 2.623-2.013 1.506-3.894 3.151-4.86 5.546-.415 1.031-.625 2.15-.862 3.24-.52 2.415-.823 4.891-1.525 7.25-2.408 8.089-7.808 13.158-15.975 15.217-2.291.576-4.637.949-6.97 1.336-2.838.471-5.044 1.959-6.811 4.136-1.25 1.535-2.353 3.191-3.612 4.718-2.183 2.644-4.98 2.968-7.765.987a10.56 10.56 0 0 1-1.007-.754c-.285-.261-.496-.247-.816-.042-1.633 1.026-3.25 2.082-4.94 3.007-2.114 1.163-4.394 1.739-6.828 1.537a9.27 9.27 0 0 1-4.55-1.609c-.114-.078-.238-.14-.358-.209l-2.675-2.675zm4.68-.237c.053.07.113.137.178.197.122.099.25.19.384.273 1.63.977 3.375 1.054 5.18.62 1.718-.414 3.19-1.336 4.66-2.263a336.61 336.61 0 0 1 3.933-2.436c.647-.396 1.258-.41 1.89.093a38.097 38.097 0 0 0 2.578 1.897c1.007.676 1.732.568 2.572-.298.147-.153.284-.314.412-.482 1.285-1.665 2.5-3.391 3.866-4.987 2.083-2.437 4.666-4.124 7.871-4.729 2.567-.485 5.167-.856 7.685-1.519 6.627-1.735 11.035-5.922 13.026-12.489.659-2.171.971-4.448 1.417-6.682.331-1.668.606-3.344 1.359-4.898 1.349-2.786 3.535-4.809 5.965-6.616 1.055-.783 2.14-1.534 3.15-2.373.963-.8 1.051-1.541.382-2.589a26.224 26.224 0 0 0-1.476-2.038c-1.056-1.354-1.085-1.603-.187-3.076.027-.044.062-.086.089-.13 1.103-1.79 2.261-3.55 3.295-5.377.978-1.73 1.475-3.604 1.094-5.61-.178-.956-.535-1.843-1.235-2.59-.155.113-.283.2-.404.295-2.155 1.696-4.416 3.227-6.877 4.446-1.702.847-3.453 1.592-5.379 1.703-2.96.168-5.928.132-8.866-.334-2.106-.336-4.142-.888-5.962-2.064-2.233-1.44-2.951-3.226-2.322-5.808a4.62 4.62 0 0 1 .23-.754 225.243 225.243 0 0 1 1.638-3.694c.43-.94.942-1.845 1.319-2.805.488-1.23.059-2.842-.827-3.45-1.112-.761-2.591-.725-3.632.257-.517.487-.884 1.167-1.212 1.814-.75 1.494-1.522 2.964-2.62 4.234-.638.74-1.352 1.375-2.32 1.657-.37.109-.655.062-.923-.266-.714-.862-1.465-1.696-2.176-2.562-1.673-2.042-3.254-4.177-5.017-6.138-5.582-6.212-12.566-8.889-20.882-7.818-5.581.72-10.37 3.204-14.485 7.017-4.176 3.87-7.107 8.523-8.26 14.121-1.925 9.345.838 17.161 8.03 23.377 2.622 2.265 5.333 4.427 8.028 6.605.452.365.48.719.31 1.185a4.45 4.45 0 0 1-1.675 2.181c-1.27.868-2.599 1.648-3.91 2.451-.582.356-1.229.618-1.762 1.031-.978.757-1.32 2.136-.91 3.289.374 1.059 1.26 1.655 2.598 1.659.471.012.94-.075 1.376-.255 1.387-.631 2.738-1.34 4.111-1.998 1.35-.646 2.728-1.21 4.244-1.317 1.541-.107 2.803.433 3.812 1.607 1.229 1.432 1.916 3.12 2.363 4.92.847 3.404.91 6.87.752 10.349a11.2 11.2 0 0 1-.399 2.479c-.817 2.927-2.382 5.483-4.091 7.956-.632.929-1.316 1.815-1.989 2.732z" fill="#000"/><path fill-rule="evenodd" clip-rule="evenodd" d="M62.666 59.624a1.32 1.32 0 0 1-1.317 1.317 1.53 1.53 0 0 0-1.527 1.528 1.32 1.32 0 0 1-1.317 1.316 1.311 1.311 0 0 1-1.314-1.313 4.166 4.166 0 0 1 4.161-4.161 1.31 1.31 0 0 1 1.314 1.313z" fill="#000"/><path d="M46.173 69.626l-.733 1.099-.367 1.1 1.1.366h2.198l1.466.366.733-1.1v-1.099l-1.466-.733-1.466-.366-1.465.367z" fill="#fff"/><path fill-rule="evenodd" clip-rule="evenodd" d="M50.559 69.78a3.63 3.63 0 0 1-.006 5.134 3.63 3.63 0 0 1-5.134.006 3.63 3.63 0 0 1 .006-5.134 3.63 3.63 0 0 1 5.134-.006zm-3.327 1.8a1.13 1.13 0 0 1 1.227-.245c.136.056.26.139.364.243a.751.751 0 0 0 1.064-1.063 2.62 2.62 0 0 0-2.864-.566 2.635 2.635 0 0 0-.853.57.751.751 0 1 0 1.062 1.062z" fill="#000"/><path d="M70.725 45.806l-.733 1.1-.367 1.099 1.1.366h2.199l1.465.367.733-1.1V46.54l-1.466-.733-1.465-.366-1.466.366z" fill="#fff"/><path fill-rule="evenodd" clip-rule="evenodd" d="M74.695 45.644a3.63 3.63 0 0 1-.007 5.134 3.63 3.63 0 0 1-5.133.006 3.63 3.63 0 0 1 .006-5.134 3.63 3.63 0 0 1 5.134-.006zm-3.327 1.8a1.13 1.13 0 0 1 1.227-.245c.136.056.26.138.364.243a.751.751 0 0 0 1.063-1.063 2.62 2.62 0 0 0-2.864-.566 2.636 2.636 0 0 0-.853.57.751.751 0 1 0 1.063 1.062z" fill="#000"/></g><defs><clipPath id="a"><path fill="#fff" transform="rotate(-45 88.126 36.503)" d="M0 0h103.246v107.754H0z"/></clipPath></defs></svg>