<svg xmlns="http://www.w3.org/2000/svg" xmlns:xlink="http://www.w3.org/1999/xlink" width="30" height="29" viewBox="0 0 30 29"><defs><path id="a" d="M0 28.51h30V.036H0z"/></defs><g fill="none" fill-rule="evenodd"><path fill="#000" d="M15 3.987c5.988 0 9.961 2.274 9.961 3.779s-3.973 3.78-9.961 3.78-9.961-2.275-9.961-3.78S9.012 3.986 15 3.986m0 8.567c5.837 0 10.957-2.237 10.957-4.787S20.837 2.979 15 2.979c-5.837 0-10.957 2.237-10.957 4.787S9.163 12.553 15 12.553"/><mask id="b" fill="#fff"><use xlink:href="#a"/></mask><path fill="#000" d="M29 13.024c0 2.097-3.33 4.108-8.285 5.004a.5.5 0 1 0 .178.983c3.846-.695 6.693-1.99 8.107-3.597v.284c0 2.457-4.437 4.695-10.55 5.322a.5.5 0 1 0 .102.994c4.97-.51 8.745-1.99 10.448-3.937v.942c0 2.978-6.411 5.495-14 5.495a.5.5 0 1 0 0 1c6.468 0 11.855-1.689 14-4.124v.626c0 2.979-6.411 5.496-14 5.496S1 24.995 1 22.016v-1.258c1.52 1.731 4.693 3.108 8.923 3.75a.5.5 0 1 0 .15-.987C4.732 22.709 1 20.598 1 18.386v-.737c1.252 1.427 3.634 2.613 6.888 3.356a.5.5 0 0 0 .222-.975C3.791 19.044 1 17.174 1 15.266v-.49c1.043 1.184 2.872 2.206 5.355 2.95a.5.5 0 0 0 .287-.957C3.11 15.711 1 14.074 1 12.391v-1.438c.016.022.035.043.052.065.114.155.234.308.366.457l.03.036a7.978 7.978 0 0 0 .568.574c.164.151.335.301.518.446l.01.008a10.688 10.688 0 0 0 .708.511c.203.136.412.269.63.397.022.012.044.023.065.036.205.118.417.232.635.343l.154.077c.237.118.48.232.732.34.037.017.076.032.113.048.228.097.461.19.7.28l.162.06c.267.097.54.19.82.279l.16.048c.25.077.506.15.767.219.053.014.105.029.158.042.294.076.594.147.9.213l.197.04c.276.057.557.11.842.16l.139.024c.318.053.642.099.969.14l.229.028c.308.036.618.069.934.095l.094.009a28.565 28.565 0 0 0 1.28.072c.353.013.708.021 1.068.021a29.738 29.738 0 0 0 1.317-.03c.347-.016.692-.036 1.031-.063l.094-.009c.316-.026.627-.059.934-.095l.23-.028c.327-.041.65-.087.968-.14.047-.008.093-.017.14-.024.284-.05.565-.102.841-.16l.197-.04c.305-.066.605-.137.9-.213.053-.013.106-.028.158-.042.26-.07.516-.142.767-.22.053-.015.107-.03.16-.047.28-.088.553-.181.82-.279l.162-.06c.239-.09.472-.183.7-.28l.113-.047c.252-.11.495-.223.732-.34l.154-.078c.218-.111.43-.225.635-.343.021-.013.043-.024.064-.036a12.316 12.316 0 0 0 1.339-.908l.01-.008a9.24 9.24 0 0 0 1.087-1.02l.03-.036c.13-.15.251-.302.366-.458.016-.021.035-.042.051-.064v2.07zM15 1.034c7.72 0 14 3.138 14 6.994 0 3.857-6.28 6.994-14 6.994S1 11.885 1 8.028c0-3.856 6.28-6.994 14-6.994zm0-.999C6.589.035 0 3.546 0 8.028v13.988c0 3.642 6.589 6.495 15 6.495s15-2.853 15-6.495V8.028C30 3.546 23.411.035 15 .035z" mask="url(#b)"/><path fill="#000" d="M15 6.112c4.517 0 6.981 1.163 6.981 1.76 0 .598-2.464 1.76-6.981 1.76-4.517 0-6.981-1.162-6.981-1.76 0-.597 2.464-1.76 6.981-1.76m0 4.526c3.965 0 7.979-.95 7.979-2.766S18.965 5.106 15 5.106s-7.979.95-7.979 2.766 4.014 2.766 7.979 2.766"/></g></svg>