<svg xmlns="http://www.w3.org/2000/svg" xmlns:xlink="http://www.w3.org/1999/xlink" width="30" height="30" viewBox="0 0 30 30"><defs><path id="a" d="M0 0v30h30V0z"/></defs><g fill="none" fill-rule="evenodd"><mask id="b" fill="#fff"><use xlink:href="#a"/></mask><path fill="#B6CC4E" d="M22.466 14.241h-6.707V7.535a.761.761 0 0 0-.759-.76.761.761 0 0 0-.759.76v6.706H7.534a.761.761 0 0 0-.759.759c0 .418.342.759.76.759h6.706v6.706c0 .418.342.76.759.76a.761.761 0 0 0 .759-.76V15.76h6.707a.76.76 0 0 0 .758-.76.76.76 0 0 0-.758-.758" mask="url(#b)"/><path fill="#B6CC4E" d="M15 28.482C7.554 28.482 1.518 22.446 1.518 15S7.554 1.518 15 1.518 28.482 7.554 28.482 15 22.446 28.482 15 28.482M15 0C6.716 0 0 6.716 0 15c0 8.284 6.716 15 15 15 8.284 0 15-6.716 15-15 0-8.284-6.716-15-15-15"/></g></svg>