<svg width="180" height="180" viewBox="0 0 180 180" xmlns="http://www.w3.org/2000/svg"><title>3618B763-7D21-4094-A687-AE0BEC9CD17F</title><g transform="translate(-29 -2)" fill="none" fill-rule="evenodd"><path d="M46.993 146c16.42 21.86 42.562 36 72.007 36 49.706 0 90-40.294 90-90 0-40.666-26.97-75.032-64-86.187V146H46.993z" fill="#7FAAE0"/><path d="M46.993 146C35.695 130.958 29 112.26 29 92c0-49.706 40.294-90 90-90 9.04 0 17.768 1.333 26 3.813V146H46.993z" fill="#ECEFF1"/><path fill="#ECEFF1" d="M81 74h64v72H81zm-34.007 72C35.695 130.958 29 112.26 29 92c0-6.164.62-12.184 1.8-18H81v72H46.993zM30.8 74C36.54 45.731 55.527 22.274 81 10.392V74H30.8z"/><rect fill="#CFD8DC" x="75" y="20" width="40" height="4" rx="2"/><rect fill="#CFD8DC" x="60" y="38" width="55" height="4" rx="2"/><rect fill="#CFD8DC" x="47" y="56" width="68" height="4" rx="2"/><rect fill="#CFD8DC" x="41" y="74" width="74" height="4" rx="2"/><rect fill="#CFD8DC" x="41" y="92" width="40" height="4" rx="2"/><path d="M43.184 43.482C59.184 18.533 87.161 2 119 2c9.04 0 17.768 1.333 26 3.813V146L43.184 43.482z" fill-opacity=".5" fill="#FFF"/><path fill="#7FAAE0" d="M116 146h30v-30z"/><path fill="#FFF" d="M116 116v30l30-30z"/><path d="M187 22v123.995a2 2 0 0 0 1.992 2.005h11.016c1.1 0 1.992-.89 1.992-2.005V22h-15z" fill="#607D8B"/><path d="M195 24v126h4.994a2 2 0 0 0 2.006-2.005V24h-7z" fill="#78909C"/><path fill="#FBE9E7" d="M187.01 21.97L195 7l6.985 14.97z"/><path fill="#FFCCBC" d="M194.578 21.97h-7.568L195 7z"/><path d="M192.332 12L195 7l2.333 5h-5.001z" fill="#78909C"/></g></svg>