<svg width="13" height="13" viewBox="0 0 13 13" fill="none" xmlns="http://www.w3.org/2000/svg"><mask id="a" fill="#fff"><path fill-rule="evenodd" clip-rule="evenodd" d="M2 1h9a1 1 0 0 1 1 1v4a1 1 0 0 1-1 1H2a1 1 0 0 1-1-1V2a1 1 0 0 1 1-1zM0 2a2 2 0 0 1 2-2h9a2 2 0 0 1 2 2v4a2 2 0 0 1-1.505 1.938v5.013l-.796-.586L4.766 8H2a2 2 0 0 1-2-2V2zm10.495 8.973L6.522 8.05h3.973v2.924z"/></mask><path d="M11.495 7.938l-.247-.969-.753.192v.777h1zm0 5.013l-.593.805 1.593 1.172v-1.977h-1zm-.796-.586l-.593.805.592-.805zM4.766 8l.593-.805L5.096 7h-.329v1zm1.755.05v-1H3.476l2.453 1.805.593-.806zm3.973 2.923l-.593.806 1.593 1.172v-1.978h-1zm0-2.924h1v-1h-1v1zM11 0H2v2h9V0zm2 2a2 2 0 0 0-2-2v2h2zm0 4V2h-2v4h2zm-2 2a2 2 0 0 0 2-2h-2v2zM2 8h9V6H2v2zM0 6a2 2 0 0 0 2 2V6H0zm0-4v4h2V2H0zm2-2a2 2 0 0 0-2 2h2V0zm0-1a3 3 0 0 0-3 3h2a1 1 0 0 1 1-1v-2zm9 0H2v2h9v-2zm3 3a3 3 0 0 0-3-3v2a1 1 0 0 1 1 1h2zm0 4V2h-2v4h2zm-2.258 2.907A3 3 0 0 0 14 6h-2a1 1 0 0 1-.752.97l.494 1.937zm-1.247-.969v4.024h2V7.938h-2zm0 4.024v.989h2v-.99h-2zm1.593.183l-.797-.586-1.185 1.611.796.586 1.186-1.61zm-.797-.586L5.36 7.195l-1.185 1.61 5.93 4.365 1.186-1.61zM2 9h2.767V7H2v2zm-3-3a3 3 0 0 0 3 3V7a1 1 0 0 1-1-1h-2zm0-4v4h2V2h-2zm6.929 6.855l3.973 2.924 1.186-1.611-3.974-2.924-1.185 1.61zm4.566-1.806H6.522v2h3.973v-2zm1 3.924V8.05h-2v2.924h2z" fill="#AFAFAF" mask="url(#a)"/></svg>