<svg width="119" height="30" viewBox="0 0 119 30" fill="none" xmlns="http://www.w3.org/2000/svg"><path fill="#F64A23" d="M29.314.625h8.108V28.75h-8.108zm31.808 15h8.108v10h-8.108zM0 .625h8.108V28.75H0z"/><path fill="#F64A23" d="M0 .625h14.345V7.5H0zm0 21.25h14.345v6.875H0zm0-10h14.345v6.25H0z"/><path fill-rule="evenodd" clip-rule="evenodd" d="M14.382.685c2.357 0 9.318 1.655 9.318 6.271v1.812c0 5.153-4.957 5.613-4.957 5.613v.604s6.189.762 6.189 5.68v1.887c0 4.11-6.19 6.197-6.19 6.197h-4.36v-6.81s1.922.237 1.922-1.768-1.922-2.03-1.922-2.03V11.97s1.237-1.172 1.237-1.907V9.33c0-1.071-1.237-1.832-1.237-1.832V.685zm49.76 9.324s-2.822-2.522-6.117-2.522-6.967 2.444-6.967 7.547 2.313 7.473 6.967 7.473 6.117-3.082 6.117-3.082l4.401 6.14s-4.214 3.813-10.518 3.813c-6.305 0-15.614-2.998-15.614-14.344S51.774 0 57.891 0c6.117 0 10.652 4.963 10.652 4.963l-4.401 5.046zM72.972 0l7.54 7.556L87.292 0h-14.32zm0 28.806l7.54-7.556 6.781 7.556H72.972zm13.806-15.033L100.483.01h9.857s8.179 1.552 8.179 10.058c0 8.507-8.179 9.315-8.179 9.315h-8.645v9.35l-14.917-14.96z" fill="#F64A23"/></svg>