<svg xmlns="http://www.w3.org/2000/svg" width="20" height="21" viewBox="0 0 20 21"><path fill="#fff" d="M15.327 6.66a1.228 1.228 0 1 0 0-2.457 1.228 1.228 0 0 0 0 2.457zM10 7.525a3.166 3.166 0 0 1 3.152 3.151A3.166 3.166 0 0 1 10 13.828a3.166 3.166 0 0 1-3.151-3.152 3.166 3.166 0 0 1 3.15-3.151zm0 8.07c2.729 0 4.92-2.229 4.92-4.919 0-2.69-2.23-4.92-4.92-4.92s-4.92 2.192-4.92 4.92c0 2.73 2.191 4.92 4.92 4.92zM5.887 2.575h8.307c1.21 0 2.217.362 2.943 1.089.686.725 1.089 1.733 1.089 2.902v8.307c0 1.25-.444 2.258-1.17 2.943-.726.686-1.734 1.049-2.943 1.049H5.887c-1.21 0-2.218-.363-2.943-1.049-.726-.725-1.09-1.733-1.09-2.983V6.565c0-1.21.364-2.217 1.09-2.943C3.172 3.394-.101 5.025.2 4.87A6.985 6.985 0 0 0 0 6.565v8.267c0 1.734.564 3.225 1.694 4.314 1.088 1.049 2.54 1.573 4.193 1.573h8.226c1.733 0 3.185-.565 4.234-1.573C19.434 18.098 20 16.606 20 14.872V6.565c0-1.693-.564-3.144-1.613-4.193C17.339 1.283 15.847.72 14.153.72H5.846C2.941.719 4.38.5 3.743 3.046c.603-.311 1.338-.472 2.144-.472z"/></svg>