<svg xmlns="http://www.w3.org/2000/svg" width="156" height="41" viewBox="0 0 156 41"><path fill="#fff" d="M6.752 18.13c.303-.835.606-1.708.91-2.618C9.179 11 10.81 6.562 11.378 4.021l4.703 14.108zm17.522 9.595c-2.579-.19-2.996-2.579-4.134-5.992L13.047.152c-.644.417-1.63.872-2.35 1.062.15.53.188 1.1.188 1.706 0 1.745-1.25 5.12-3.792 12.517-.91 2.58-2.883 7.927-3.641 9.747C2.617 27.12 1.556 27.688 0 27.725v.418h6.941v-.418c-.948-.037-2.2-.455-2.313-1.858-.19-1.062.72-3.68 1.972-7.282h9.634l1.327 4.02c.53 1.631.797 2.693.606 3.603-.189 1.1-1.061 1.403-1.971 1.517v.418h8.078v-.418zM45.857 8.269h-.493c-1.138-4.704-2.238-6.98-7.396-6.98h-1.593v23.554c0 2.162 1.214 2.845 2.237 2.882v.418H31.33v-.418c1.1-.037 2.276-.72 2.276-2.92V1.289h-1.63c-5.159 0-6.334 2.276-7.397 6.98h-.455L25.793 0c.834.38 1.858.834 4.324.834h9.747c2.352 0 3.49-.417 4.324-.834zm23.82 12.781l-2.313 7.661c-.949-.34-1.67-.568-4.627-.568H49.65v-.418c1.366-.037 2.238-.796 2.238-2.844V4.02c0-2.049-.91-2.732-2.238-2.77V.834h12.213C65.24.834 66.72.19 66.946 0l2.124 7.093h-.492c-1.48-4.21-2.845-5.804-9.786-5.804h-4.134v10.962h5.12c2.769 0 3.603-1.025 3.679-3.034h.417v6.523h-.417c-.076-2.276-.91-3.034-3.68-3.034h-5.12V26.89c1.252.531 2.656.797 4.97.797 5.271 0 7.737-1.1 9.595-6.638zm23.82-.759l-2.237 8.42c-1.025-.34-1.935-.568-4.514-.568H73.888v-.418c1.1-.037 2.238-.683 2.238-2.92V4.135c0-2.239-.91-2.846-2.238-2.884V.834h7.282v.417c-1.478.038-2.237.645-2.237 2.883v22.87c1.214.456 2.541.684 4.703.684 5.159 0 7.434-.646 9.406-7.397zm3.793 7.434c1.101-.037 2.239-.644 2.239-2.92V4.058c0-2.237-.91-2.769-2.238-2.807V.834h7.244v.417c-1.441.038-2.237.57-2.237 2.807v20.785c0 2.238 1.214 2.845 2.237 2.882v.417h-7.244zm32.999-6.675l-2.313 7.661c-.948-.34-1.67-.568-4.627-.568h-13.086v-.418c1.366-.037 2.238-.796 2.238-2.844V4.02c0-2.049-.91-2.732-2.238-2.77V.834h12.213c3.376 0 4.855-.644 5.082-.834l2.124 7.093h-.493c-1.479-4.21-2.844-5.804-9.785-5.804h-4.134v10.962h5.12c2.769 0 3.603-1.025 3.68-3.034h.416v6.523h-.417c-.076-2.276-.91-3.034-3.679-3.034h-5.12V26.89c1.251.531 2.655.797 4.968.797 5.273 0 7.738-1.1 9.596-6.638zm9.218-19.76h3.338c5.613 0 8.23 3.3 8.23 7.206 0 3.755-1.82 6.524-6.751 6.524-1.441 0-3.869-.228-4.817-.304zm16.423 26.435c-1.48 0-2.39-.606-4.21-3.262l-5.69-8.382-2.313-.379v-.265h1.745c4.362 0 8.382-2.314 8.382-6.941 0-4.817-4.248-7.662-10.127-7.662H134.5v.455c1.328.039 2.238.646 2.238 2.883v20.557c0 2.124-1.024 2.959-2.238 2.996v.418h7.245v-.418c-1.214-.037-2.238-.872-2.238-2.996v-9.292h2.996l6.524 9.823c1.366 2.01 2.58 2.883 4.21 2.883h2.693v-.418zM46.292 34.54h.867v5.54h3.7v.743h-4.567zm12.702 5.735c-1.522 0-2.486-1.027-2.486-2.594 0-1.584.964-2.593 2.486-2.593 1.523 0 2.488 1.009 2.488 2.593 0 1.575-.965 2.594-2.488 2.594zm0 .725c2.046 0 3.408-1.292 3.408-3.319 0-2.035-1.362-3.319-3.408-3.319-2.035 0-3.398 1.284-3.398 3.32 0 2.009 1.363 3.318 3.398 3.318zm9.108-6.46h1.053l3.469 4.637c.186.265.32.479.408.717h.017c-.008-.238-.017-.47-.017-.805v-4.55h.788v6.284h-1l-3.532-4.69c-.177-.266-.31-.47-.398-.7h-.019c.01.222.019.451.019.77v4.62h-.788zm12.895 5.558v-4.833h1.78c1.513 0 2.468.885 2.468 2.363 0 1.47-.894 2.47-2.425 2.47zm-.867.725h2.7c1.973 0 3.335-1.274 3.335-3.195 0-1.93-1.353-3.089-3.335-3.089h-2.7zm14.682-.548c-1.521 0-2.486-1.027-2.486-2.594 0-1.584.965-2.593 2.486-2.593 1.523 0 2.488 1.009 2.488 2.593 0 1.575-.965 2.594-2.488 2.594zm0 .725c2.045 0 3.408-1.292 3.408-3.319 0-2.035-1.363-3.319-3.408-3.319-2.035 0-3.398 1.284-3.398 3.32 0 2.009 1.363 3.318 3.398 3.318zm9.108-6.46h1.053l3.469 4.637c.186.265.32.479.407.717h.018c-.008-.238-.018-.47-.018-.805v-4.55h.789v6.284h-1.001l-3.531-4.69c-.178-.266-.31-.47-.398-.7h-.019c.01.222.019.451.019.77v4.62h-.788z"/></svg>