<svg xmlns="http://www.w3.org/2000/svg" width="280" height="34" viewBox="0 0 280 34"><path fill="#fff" d="M7.897 21.202a125.1 125.1 0 0 0 1.064-3.06c1.774-5.279 3.681-10.468 4.346-13.44l5.5 16.5zm20.492 11.222c-3.016-.221-3.504-3.016-4.835-7.008L15.259.178c-.754.488-1.907 1.02-2.75 1.241.178.621.222 1.287.222 1.997 0 2.04-1.464 5.988-4.436 14.637-1.064 3.017-3.37 9.27-4.258 11.4C3.061 31.715 1.82 32.38 0 32.424v.488h8.118v-.488c-1.109-.043-2.573-.532-2.706-2.173-.221-1.242.843-4.303 2.307-8.516h11.266l1.553 4.702c.62 1.907.931 3.149.709 4.213-.221 1.287-1.241 1.641-2.306 1.774v.488h9.448v-.488zM53.63 9.67h-.577c-1.33-5.5-2.618-8.162-8.65-8.162H42.54v27.545c0 2.529 1.42 3.327 2.617 3.371v.488H36.64v-.488c1.286-.043 2.662-.842 2.662-3.415V1.508h-1.908c-6.032 0-7.407 2.661-8.65 8.162h-.531L30.164 0c.977.444 2.174.976 5.057.976h11.4c2.75 0 4.08-.488 5.057-.976zm27.856 14.948l-2.705 8.96c-1.109-.4-1.952-.666-5.411-.666H58.067v-.488c1.597-.044 2.617-.93 2.617-3.326V4.702c0-2.395-1.065-3.194-2.617-3.239V.976H72.35c3.947 0 5.677-.754 5.943-.976l2.484 8.295H80.2c-1.73-4.923-3.327-6.787-11.444-6.787h-4.835v12.82h5.988c3.238 0 4.214-1.199 4.302-3.549h.488v7.629h-.488c-.088-2.661-1.064-3.549-4.302-3.549h-5.988v16.59c1.464.621 3.105.931 5.81.931 6.166 0 9.049-1.286 11.223-7.762zm27.858-.888l-2.617 9.848c-1.198-.4-2.262-.666-5.278-.666H86.412v-.488c1.286-.044 2.617-.798 2.617-3.415V4.835c0-2.617-1.065-3.327-2.617-3.372V.976h8.516v.487c-1.73.045-2.617.755-2.617 3.372v26.747c1.42.532 2.972.799 5.5.799 6.033 0 8.694-.755 11-8.65zm4.436 8.694c1.287-.043 2.618-.753 2.618-3.415V4.746c0-2.617-1.064-3.238-2.618-3.283V.976h8.473v.487c-1.686.045-2.617.666-2.617 3.283v24.307c0 2.618 1.42 3.328 2.617 3.371v.488h-8.473zm38.59-7.806l-2.704 8.96c-1.109-.4-1.952-.666-5.411-.666H128.95v-.488c1.597-.044 2.617-.93 2.617-3.326V4.702c0-2.395-1.064-3.194-2.617-3.239V.976h14.283c3.948 0 5.678-.754 5.944-.976l2.484 8.295h-.577c-1.73-4.923-3.327-6.787-11.444-6.787h-4.835v12.82h5.989c3.238 0 4.213-1.199 4.302-3.549h.488v7.629h-.488c-.089-2.661-1.064-3.549-4.302-3.549h-5.989v16.59c1.464.621 3.106.931 5.81.931 6.167 0 9.05-1.286 11.223-7.762zm10.781-23.11h3.904c6.564 0 9.625 3.86 9.625 8.428 0 4.391-2.129 7.63-7.895 7.63-1.686 0-4.525-.267-5.634-.356zm14.283 27.102l-6.654-9.803-2.705-.443v-.31h2.04c5.102 0 9.803-2.706 9.803-8.118 0-5.634-4.968-8.96-11.843-8.96h-10.779v.532c1.553.045 2.618.755 2.618 3.371v24.042c0 2.484-1.198 3.46-2.618 3.503v.488h8.472v-.488c-1.42-.043-2.617-1.02-2.617-3.503V18.053h3.505l7.629 11.489c1.597 2.35 3.016 3.37 4.923 3.37h3.15v-.488c-1.73 0-2.795-.709-4.924-3.814zm27.705-15.217h1.013v6.48h4.327v.87h-5.34zm14.854 6.707c-1.78 0-2.907-1.2-2.907-3.032 0-1.853 1.127-3.033 2.907-3.033 1.782 0 2.91 1.18 2.91 3.033 0 1.842-1.128 3.033-2.91 3.033zm0 .849c2.392 0 3.986-1.51 3.986-3.881 0-2.381-1.594-3.882-3.986-3.882-2.38 0-3.974 1.501-3.974 3.882 0 2.35 1.594 3.881 3.974 3.881zm10.651-7.556h1.232l4.057 5.424c.217.31.373.56.477.838h.02c-.01-.278-.02-.548-.02-.94v-5.322h.921v7.35h-1.17l-4.13-5.486c-.207-.311-.362-.548-.465-.819h-.022c.011.26.022.528.022.902v5.402h-.922zm15.081 6.501v-5.651h2.08c1.771 0 2.888 1.034 2.888 2.762 0 1.719-1.045 2.889-2.835 2.889zm-1.014.848h3.157c2.308 0 3.902-1.49 3.902-3.737 0-2.256-1.583-3.612-3.902-3.612h-3.157zm17.171-.642c-1.78 0-2.908-1.2-2.908-3.032 0-1.853 1.128-3.033 2.908-3.033s2.91 1.18 2.91 3.033c0 1.842-1.13 3.033-2.91 3.033zm0 .849c2.391 0 3.985-1.51 3.985-3.881 0-2.381-1.594-3.882-3.985-3.882-2.38 0-3.975 1.501-3.975 3.882 0 2.35 1.595 3.881 3.975 3.881zm10.651-7.556h1.231l4.057 5.424c.218.31.374.56.477.838h.02c-.01-.278-.02-.548-.02-.94v-5.322h.922v7.35h-1.17l-4.13-5.486c-.208-.311-.362-.548-.466-.819h-.021c.01.26.021.528.021.902v5.402h-.921z"/></svg>