<svg xmlns="http://www.w3.org/2000/svg" width="16" height="21" viewBox="0 0 16 21"><path fill="#fff" d="M8.21.719C2.752.719 0 4.632 0 7.895c0 1.976.748 3.734 2.352 4.388.263.109.5.004.575-.287.054-.2.18-.71.235-.922.077-.288.047-.388-.165-.64-.463-.545-.759-1.252-.759-2.253 0-2.903 2.172-5.502 5.656-5.502 3.085 0 4.78 1.885 4.78 4.402 0 3.313-1.466 6.109-3.642 6.109-1.202 0-2.1-.994-1.813-2.213C7.564 9.52 8.233 7.95 8.233 6.9c0-.94-.505-1.724-1.55-1.724-1.228 0-2.215 1.27-2.215 2.973 0 1.084.367 1.818.367 1.818l-1.478 6.26c-.439 1.858-.066 4.135-.034 4.365.018.136.193.17.273.066.113-.148 1.577-1.954 2.074-3.76.14-.51.808-3.157.808-3.157.399.762 1.566 1.431 2.806 1.431 3.693 0 6.198-3.366 6.198-7.872 0-3.408-2.885-6.58-7.272-6.58z"/></svg>