<svg xmlns="http://www.w3.org/2000/svg" width="20" height="17" viewBox="0 0 20 17"><path fill="#fff" d="M20 2.643a8.164 8.164 0 0 1-2.357.646 4.11 4.11 0 0 0 1.804-2.27 8.23 8.23 0 0 1-2.605.996A4.103 4.103 0 0 0 9.85 5.757 11.65 11.65 0 0 1 1.392 1.47a4.082 4.082 0 0 0-.556 2.063 4.1 4.1 0 0 0 1.825 3.415 4.092 4.092 0 0 1-1.858-.513v.052a4.106 4.106 0 0 0 3.291 4.023 4.125 4.125 0 0 1-1.853.07 4.108 4.108 0 0 0 3.833 2.85A8.232 8.232 0 0 1 0 15.127a11.611 11.611 0 0 0 6.29 1.844c7.548 0 11.674-6.252 11.674-11.675a13.4 13.4 0 0 0-.01-.531A8.31 8.31 0 0 0 20 2.643z"/></svg>