<svg xmlns="http://www.w3.org/2000/svg" width="64" height="64" viewBox="0 0 64 64"><g fill="none"><path fill="#52C4EF" d="M64 4.58A4.271 4.271 0 0 0 59.733.312H4.267A4.271 4.271 0 0 0 0 4.579c0 1.983 1.365 3.639 3.2 4.115v51.793l3.2-3.2 6.4 6.4 6.4-6.4 6.4 6.4 6.4-6.4 6.4 6.4 6.4-6.4 6.4 6.4 6.4-6.4 3.2 3.2V8.694C62.635 8.218 64 6.562 64 4.58zm-5.333 50.758L57.6 54.27l-6.4 6.4-6.4-6.4-6.4 6.4-6.4-6.4-6.4 6.4-6.4-6.4-6.4 6.4-6.4-6.4-1.067 1.067V5.646h53.334v49.692zM60.8 6.426V3.513H3.2v2.913a2.132 2.132 0 0 1 1.067-3.98h55.466a2.132 2.132 0 1 1 1.067 3.98z"/><path fill="#52C4EF" d="M46.933 42.98h-16a1.066 1.066 0 1 0 0 2.133h16a1.066 1.066 0 1 0 0-2.134zm4.577.309c-.193.201-.31.468-.31.757 0 .277.117.555.31.757.202.192.48.31.757.31s.554-.118.757-.31c.192-.202.31-.48.31-.757 0-.29-.118-.556-.31-.757a1.117 1.117 0 0 0-1.515 0zm.757-15.243h-16a1.066 1.066 0 1 0 0 2.133h16a1.066 1.066 0 1 0 0-2.133zm0 7.467H41.6a1.066 1.066 0 1 0 0 2.133h10.667a1.066 1.066 0 1 0 0-2.133zm-22.4 1.067c0 .59.478 1.066 1.066 1.066h2.134a1.066 1.066 0 1 0 0-2.133h-2.134c-.588 0-1.066.476-1.066 1.066zM48 21.646c0-.59-.478-1.067-1.067-1.067h-16a1.066 1.066 0 1 0 0 2.134h16c.59 0 1.067-.477 1.067-1.067zm3.51-.757c-.193.201-.31.468-.31.757 0 .277.117.555.31.757.202.192.48.31.757.31.288 0 .554-.118.757-.31.192-.202.31-.48.31-.757a1.12 1.12 0 0 0-.31-.757c-.395-.395-1.12-.395-1.515 0zM32.757 29.87c.192-.203.31-.47.31-.757 0-.29-.118-.556-.31-.758-.394-.394-1.109-.394-1.514 0-.192.202-.31.468-.31.758 0 .288.118.554.31.757.202.192.48.31.757.31s.555-.118.757-.31zm5.333 7.467a1.08 1.08 0 0 0 0-1.515c-.394-.395-1.109-.395-1.514 0a1.12 1.12 0 0 0-.31.757c0 .278.118.555.31.758.203.192.48.309.757.309.278 0 .555-.117.758-.31z"/><path fill="#5F72F7" d="M18.133 22.82v-1.174a1.066 1.066 0 1 0-2.133 0v1.177a5.318 5.318 0 0 0-3.006 1.78 3.667 3.667 0 0 0-.847 2.776 3.892 3.892 0 0 0 1.475 2.657L16 31.886v5.8a3.196 3.196 0 0 1-2.133-3.003 1.066 1.066 0 1 0-2.134 0A5.343 5.343 0 0 0 16 39.908v.937a1.066 1.066 0 1 0 2.133 0v-.941a5.324 5.324 0 0 0 3.007-1.78 3.674 3.674 0 0 0 .846-2.778 3.89 3.89 0 0 0-1.475-2.654l-2.378-1.848v-5.8a3.196 3.196 0 0 1 2.134 3.003 1.066 1.066 0 1 0 2.133 0 5.344 5.344 0 0 0-4.267-5.227zm1.068 11.557c.372.289.614.725.664 1.192.045.437-.08.857-.354 1.179a3.187 3.187 0 0 1-1.378.933v-4.136l1.068.832zm-4.269-6.024a1.752 1.752 0 0 1-.663-1.195c-.045-.436.08-.854.353-1.177A3.187 3.187 0 0 1 16 25.047v4.136l-1.068-.83z"/><circle cx="42.667" cy="12.046" r="1.067" fill="#52C4EF"/><circle cx="38.4" cy="12.046" r="1.067" fill="#52C4EF"/><circle cx="46.933" cy="12.046" r="1.067" fill="#52C4EF"/><circle cx="34.133" cy="12.046" r="1.067" fill="#52C4EF"/><circle cx="51.2" cy="12.046" r="1.067" fill="#52C4EF"/><circle cx="21.333" cy="12.046" r="1.067" fill="#52C4EF"/><circle cx="25.6" cy="12.046" r="1.067" fill="#52C4EF"/><circle cx="29.867" cy="12.046" r="1.067" fill="#52C4EF"/><circle cx="55.467" cy="12.046" r="1.067" fill="#52C4EF"/><circle cx="17.067" cy="12.046" r="1.067" fill="#52C4EF"/><circle cx="12.8" cy="12.046" r="1.067" fill="#52C4EF"/><circle cx="8.533" cy="12.046" r="1.067" fill="#52C4EF"/></g></svg>