<svg xmlns="http://www.w3.org/2000/svg" width="800" height="435" viewBox="0 0 800 435"><g fill="none" fill-rule="evenodd"><rect width="800" height="435" fill="#EBECEC" rx="4"/><circle cx="122" cy="374" r="4" fill="#D8DCDF"/><circle cx="753.5" cy="138.5" r="4.5" fill="#D8DCDF"/><circle cx="639.5" cy="29.5" r="6.5" fill="#C8D3D8"/><circle cx="41.5" cy="296.5" r="6.5" fill="#D7DFE1"/><g stroke="#C8D3D8" stroke-linecap="round" stroke-linejoin="round" stroke-width="3" transform="rotate(30 -615.631 264.448)"><circle cx="19.053" cy="19.557" r="7.5"/><path d="M27.266 11.603v9.5a5.7 5.7 0 0 0 11.4 0v-1.9a19 19 0 0 0-36.036-8.41 18.999 18.999 0 0 0 28.588 23.495"/></g><g stroke="#C8D3D8" stroke-linecap="round" stroke-linejoin="round" stroke-width="3.5"><path d="M704.973 62.584l30.547-30.547c2.1-2.1 5.528-2.108 7.619-.017l22.804 22.804c2.09 2.09 2.082 5.519-.018 7.619L735.378 92.99c-2.1 2.1-5.528 2.108-7.619.018l-22.804-22.805c-2.09-2.09-2.082-5.519.018-7.619z"/><path d="M739.5 30.5l-1.333 33.731L703.5 66.5"/></g></g></svg>