<svg width="18" height="18" viewBox="0 0 18 18" fill="none" xmlns="http://www.w3.org/2000/svg"><path d="M12.229 15.514c.78-.035 1.203-.168 1.485-.276.375-.143.642-.318.92-.597.28-.28.452-.546.598-.921.11-.283.241-.705.276-1.486.038-.845.048-1.095.048-3.232 0-2.137-.01-2.388-.048-3.233-.035-.78-.168-1.203-.276-1.486a2.443 2.443 0 0 0-.597-.92 2.484 2.484 0 0 0-.92-.598c-.283-.11-.706-.24-1.486-.276-.845-.038-1.096-.047-3.232-.047-2.137 0-2.387.006-3.232.047l6.464 13.025zm0 0c-.845.038-1.096.048-3.232.048-2.137 0-2.387-.01-3.232-.048-.78-.035-1.203-.165-1.486-.276l7.95.276zm-.005-12.925c.77.035 1.181.162 1.454.27.362.14.617.305.886.574.27.27.437.524.574.886.105.273.236.685.27 1.455.038.842.048 1.091.048 3.228 0 2.136-.01 2.385-.048 3.227-.034.77-.162 1.182-.27 1.454a2.383 2.383 0 0 1-.574.887c-.27.27-.524.437-.885.574-.274.105-.686.236-1.455.27-.842.038-1.091.048-3.227.048s-2.385-.01-3.227-.048c-.77-.034-1.182-.162-1.454-.27a2.384 2.384 0 0 1-.887-.574 2.345 2.345 0 0 1-.574-.886c-.104-.273-.235-.685-.27-1.454-.037-.843-.047-1.092-.047-3.228 0-2.137.01-2.386.048-3.228.034-.77.162-1.182.269-1.454.141-.363.305-.618.574-.887.27-.27.525-.436.886-.574.273-.105.685-.236 1.455-.27.842-.041 1.09-.047 3.227-.047 2.136 0 2.385.01 3.227.047zM5.694.948c-.86.038-1.452.177-1.971.378-.54.208-.996.492-1.45.946a4.068 4.068 0 0 0-.947 1.45v.001c-.201.52-.34 1.111-.378 1.975C.91 6.551.9 6.826.9 8.998c0 2.173.01 2.448.048 3.304.038.86.177 1.452.378 1.975a4 4 0 0 0 .946 1.45 4.06 4.06 0 0 0 1.45.947c.52.201 1.111.34 1.975.378.856.038 1.128.048 3.303.048s2.447-.01 3.303-.048c.86-.038 1.452-.177 1.974-.378.54-.208.996-.492 1.45-.946a4.06 4.06 0 0 0 .947-1.45v-.001c.201-.52.34-1.111.378-1.975.038-.856.048-1.128.048-3.304 0-2.175-.01-2.447-.048-3.303-.038-.86-.177-1.453-.378-1.975a4 4 0 0 0-.946-1.45 4.067 4.067 0 0 0-1.45-.947c-.52-.201-1.112-.34-1.975-.378C11.443.91 11.168.9 8.997.9S6.55.91 5.694.948zM8.997 4.79a4.21 4.21 0 0 0 0 8.418 4.211 4.211 0 0 0 4.208-4.21A4.211 4.211 0 0 0 8.997 4.79zm0 6.776a2.567 2.567 0 1 1 0-5.133 2.567 2.567 0 0 1 0 5.133zm4.27-5.78a1.059 1.059 0 1 0 0-2.117 1.059 1.059 0 0 0 0 2.118z" fill="#000" stroke="#000" stroke-width=".2"/></svg>