<svg width="14" height="12" viewBox="0 0 14 12" fill="none" xmlns="http://www.w3.org/2000/svg"><path d="M.86 5.226l8.338-3.562c.823-.37 3.615-1.558 3.615-1.558s1.288-.52 1.18.742c-.035.52-.321 2.337-.608 4.304l-.894 5.825s-.072.853-.681 1.002c-.61.148-1.611-.52-1.79-.668-.143-.111-2.684-1.781-3.615-2.597-.25-.223-.536-.668.036-1.188a138.73 138.73 0 0 0 3.758-3.71c.43-.445.859-1.484-.93-.222L4.222 7.117s-.572.371-1.646.037C1.502 6.822.25 6.376.25 6.376s-.86-.556.608-1.15H.86z" fill="#000"/></svg>