<svg width="14" height="12" viewBox="0 0 14 12" fill="none" xmlns="http://www.w3.org/2000/svg"><path d="M4.403 12c5.283 0 8.172-4.617 8.172-8.621 0-.131 0-.262-.008-.392A6.032 6.032 0 0 0 14 1.42a5.502 5.502 0 0 1-1.65.477A3.017 3.017 0 0 0 13.613.22a5.577 5.577 0 0 1-1.824.735A2.832 2.832 0 0 0 10.16.04a2.745 2.745 0 0 0-1.82.319A2.974 2.974 0 0 0 7.077 1.78a3.186 3.186 0 0 0-.182 1.939 7.825 7.825 0 0 1-3.279-.92A8.253 8.253 0 0 1 .975.554 3.177 3.177 0 0 0 .66 2.76a3.038 3.038 0 0 0 1.204 1.837 2.739 2.739 0 0 1-1.304-.38v.039c0 .7.23 1.377.65 1.919.42.54 1.004.912 1.654 1.05-.422.123-.866.14-1.297.053a3.041 3.041 0 0 0 1.022 1.506 2.78 2.78 0 0 0 1.662.598 5.576 5.576 0 0 1-3.567 1.3c-.229 0-.457-.015-.684-.044a7.826 7.826 0 0 0 4.403 1.359" fill="#000"/></svg>