<svg width="16" height="10" viewBox="0 0 16 10" fill="none" xmlns="http://www.w3.org/2000/svg"><path fill-rule="evenodd" clip-rule="evenodd" d="M7.772 9.488h.922s.346 0 .46-.228c.116-.113.116-.455.116-.455s0-1.251.576-1.479c.576-.227 1.383 1.252 2.19 1.82.576.456 1.037.342 1.037.342h2.19s1.152-.114.576-.91c0-.114-.346-.683-1.614-1.82-1.383-1.252-1.152-1.025.461-3.187 1.037-1.251 1.383-2.048 1.268-2.389-.115-.341-.807-.227-.807-.227h-2.765c-.116.113-.23.227-.23.227s-.347 1.024-.923 1.82c-.922 1.935-1.383 1.935-1.613 1.821-.346-.228-.23-1.024-.23-1.593 0-1.706.23-2.503-.577-2.617C8.58.5 8.35.5 7.657.5c-.807 0-1.613 0-1.96.227-.345.114-.46.455-.345.455.115 0 .576.114.692.342.23.34.23 1.023.23 1.023s.115 2.048-.346 2.276c-.345.228-.806-.114-1.728-1.707-.461-.91-.807-1.82-.807-1.82l-.23-.228a1.427 1.427 0 0 1-.346-.227H.512s-.346 0-.46.114c-.116.113 0 .455 0 .455s1.843 4.096 3.802 6.257c1.844 1.935 3.918 1.82 3.918 1.82z" fill="#000"/></svg>