<svg xmlns="http://www.w3.org/2000/svg" width="21" height="21" viewBox="0 0 21 21"><path fill="#4e342e" d="M6.25 13.537h12.433v2.072H6.25c-1.575 0-2.57-1.689-1.814-3.077l1.4-2.528L2.104 2.14H.033V.069H3.42l4.414 9.324h7.273l4-7.252 1.813.994-4 7.263a2.062 2.062 0 0 1-1.813 1.067H7.39zm12.433 5.18c0 1.14-.932 2.072-2.072 2.072a2.07 2.07 0 0 1-2.062-2.072 2.07 2.07 0 0 1 2.062-2.072c1.14 0 2.072.932 2.072 2.072zm-10.361 0c0 1.14-.933 2.072-2.072 2.072a2.07 2.07 0 0 1-2.062-2.072 2.07 2.07 0 0 1 2.062-2.072c1.14 0 2.072.932 2.072 2.072z"/></svg>