<svg xmlns="http://www.w3.org/2000/svg" width="25" height="26" viewBox="0 0 25 26"><path fill="#fff" d="M7.691 16.858H21.75v2.383H7.691c-1.78 0-2.905-1.942-2.05-3.538l1.582-2.906-4.218-9.041H.662V1.374h3.83l4.992 10.72h8.223l4.522-8.338 2.05 1.143-4.521 8.35a2.326 2.326 0 0 1-2.05 1.227H8.98zm14.058 5.956c0 1.31-1.054 2.382-2.343 2.382s-2.331-1.072-2.331-2.382 1.042-2.382 2.331-2.382 2.343 1.072 2.343 2.382zm-11.715 0c0 1.31-1.054 2.382-2.343 2.382S5.36 24.124 5.36 22.814s1.042-2.382 2.331-2.382 2.343 1.072 2.343 2.382zm2.343-16.676H8.863V3.756h3.514V.183h2.343v3.573h3.515v2.382H14.72v3.574h-2.343z"/></svg>