<svg xmlns="http://www.w3.org/2000/svg" width="106" height="103" viewBox="0 0 106 103"><defs><mask id="b" width="2" height="2" x="-1" y="-1"><path fill="#fff" d="M47 38h52v52H47z"/><path d="M72.632 86.171c-12.452 0-22.546-10.094-22.546-22.546S60.18 41.08 72.632 41.08c12.451 0 22.546 10.094 22.546 22.546-.014 12.446-10.1 22.532-22.546 22.546zm0-48.098c-14.112 0-25.552 11.44-25.552 25.552s11.44 25.552 25.552 25.552 25.552-11.44 25.552-25.552c-.016-14.105-11.447-25.537-25.552-25.552z"/></mask><filter id="a" width="92" height="98" x="27" y="18" filterUnits="userSpaceOnUse"><feOffset dy="6" in="SourceGraphic" result="FeOffset1511Out"/><feGaussianBlur in="FeOffset1511Out" result="FeGaussianBlur1512Out" stdDeviation="4 4"/></filter><mask id="d" width="2" height="2" x="-1" y="-1"><path fill="#fff" d="M62 50h16v19H62z"/><path d="M72.632 65.128a1.503 1.503 0 1 1 0-3.006 1.503 1.503 0 0 1 0 3.006zm1.503-5.735v-9.295h-3.006v9.295a4.505 4.505 0 0 0-2.73 2.73H62.11v3.005h6.29a4.499 4.499 0 1 0 5.735-5.735z"/></mask><filter id="c" width="56" height="65" x="42" y="30" filterUnits="userSpaceOnUse"><feOffset dy="6" in="SourceGraphic" result="FeOffset1527Out"/><feGaussianBlur in="FeOffset1527Out" result="FeGaussianBlur1528Out" stdDeviation="4 4"/></filter><mask id="f" width="2" height="2" x="-1" y="-1"><path fill="#fff" d="M53 62h4v4h-4z"/><path d="M53.092 62.122h3.006v3.006h-3.006z"/></mask><filter id="e" width="44" height="50" x="33" y="42" filterUnits="userSpaceOnUse"><feOffset dy="6" in="SourceGraphic" result="FeOffset1543Out"/><feGaussianBlur in="FeOffset1543Out" result="FeGaussianBlur1544Out" stdDeviation="4 4"/></filter><mask id="h" width="2" height="2" x="-1" y="-1"><path fill="#fff" d="M71 80h4v4h-4z"/><path d="M71.129 80.159h3.006v3.006h-3.006z"/></mask><filter id="g" width="44" height="50" x="51" y="60" filterUnits="userSpaceOnUse"><feOffset dy="6" in="SourceGraphic" result="FeOffset1559Out"/><feGaussianBlur in="FeOffset1559Out" result="FeGaussianBlur1560Out" stdDeviation="4 4"/></filter><mask id="j" width="2" height="2" x="-1" y="-1"><path fill="#fff" d="M89 62h4v4h-4z"/><path d="M89.165 62.122h3.007v3.006h-3.007z"/></mask><filter id="i" width="44" height="50" x="69" y="42" filterUnits="userSpaceOnUse"><feOffset dy="6" in="SourceGraphic" result="FeOffset1575Out"/><feGaussianBlur in="FeOffset1575Out" result="FeGaussianBlur1576Out" stdDeviation="4 4"/></filter><mask id="l" width="2" height="2" x="-1" y="-1"><path fill="#fff" d="M71 44h4v4h-4z"/><path d="M71.129 44.085h3.006v3.006h-3.006z"/></mask><filter id="k" width="44" height="50" x="51" y="24" filterUnits="userSpaceOnUse"><feOffset dy="6" in="SourceGraphic" result="FeOffset1591Out"/><feGaussianBlur in="FeOffset1591Out" result="FeGaussianBlur1592Out" stdDeviation="4 4"/></filter><mask id="n" width="2" height="2" x="-1" y="-1"><path fill="#fff" d="M8 2h76v73H8z"/><path d="M26.037 11.018v1.503a4.51 4.51 0 0 0 9.018 0v-1.503h21.043v1.503a4.51 4.51 0 0 0 9.018 0v-1.503h10.522a4.51 4.51 0 0 1 4.51 4.51v4.508H11.005v-4.509a4.51 4.51 0 0 1 4.51-4.51zm3.006-4.51a1.503 1.503 0 0 1 3.006 0v6.013a1.503 1.503 0 0 1-3.006 0zm30.061 0a1.503 1.503 0 0 1 3.006 0v6.013a1.503 1.503 0 0 1-3.006 0zM11.006 66.632v-43.59h69.141V36.57h3.006V15.527a7.524 7.524 0 0 0-7.515-7.515H65.116V6.509a4.51 4.51 0 0 0-9.018 0v1.503H35.055V6.509a4.51 4.51 0 0 0-9.018 0v1.503H15.515A7.524 7.524 0 0 0 8 15.527v51.104a7.524 7.524 0 0 0 7.515 7.516h30.062V71.14H15.515a4.51 4.51 0 0 1-4.509-4.509z"/></mask><filter id="m" width="116" height="119" x="-12" y="-18" filterUnits="userSpaceOnUse"><feOffset dy="6" in="SourceGraphic" result="FeOffset1607Out"/><feGaussianBlur in="FeOffset1607Out" result="FeGaussianBlur1608Out" stdDeviation="4 4"/></filter><mask id="p" width="2" height="2" x="-1" y="-1"><path fill="#fff" d="M17 32h12v13H17z"/><path d="M20.025 41.08v-6.013h6.012v6.012zm9.018-6.013a3.006 3.006 0 0 0-3.006-3.006h-6.012a3.006 3.006 0 0 0-3.007 3.006v6.012a3.006 3.006 0 0 0 3.007 3.006h6.012a3.006 3.006 0 0 0 3.006-3.006z"/></mask><filter id="o" width="52" height="59" x="-3" y="12" filterUnits="userSpaceOnUse"><feOffset dy="6" in="SourceGraphic" result="FeOffset1623Out"/><feGaussianBlur in="FeOffset1623Out" result="FeGaussianBlur1624Out" stdDeviation="4 4"/></filter><mask id="r" width="2" height="2" x="-1" y="-1"><path fill="#fff" d="M32 32h13v13H32z"/><path d="M35.055 41.08v-6.013h6.012v6.012zm9.019-6.013a3.006 3.006 0 0 0-3.007-3.006h-6.012a3.006 3.006 0 0 0-3.006 3.006v6.012a3.006 3.006 0 0 0 3.006 3.006h6.012a3.006 3.006 0 0 0 3.007-3.006z"/></mask><filter id="q" width="53" height="59" x="12" y="12" filterUnits="userSpaceOnUse"><feOffset dy="6" in="SourceGraphic" result="FeOffset1639Out"/><feGaussianBlur in="FeOffset1639Out" result="FeGaussianBlur1640Out" stdDeviation="4 4"/></filter><mask id="t" width="2" height="2" x="-1" y="-1"><path fill="#fff" d="M47 32h13v13H47z"/><path d="M59.104 39.576v-4.51a3.006 3.006 0 0 0-3.006-3.005h-6.012a3.006 3.006 0 0 0-3.006 3.006v6.012a3.006 3.006 0 0 0 3.006 3.006h3.006V41.08h-3.006v-6.012h6.012v4.51z"/></mask><filter id="s" width="53" height="59" x="27" y="12" filterUnits="userSpaceOnUse"><feOffset dy="6" in="SourceGraphic" result="FeOffset1655Out"/><feGaussianBlur in="FeOffset1655Out" result="FeGaussianBlur1656Out" stdDeviation="4 4"/></filter><mask id="v" width="2" height="2" x="-1" y="-1"><path fill="#fff" d="M17 50h12v13H17z"/><path d="M20.025 59.116v-6.012h6.012v6.012zm6.012-9.018h-6.012a3.006 3.006 0 0 0-3.007 3.006v6.012a3.006 3.006 0 0 0 3.007 3.006h6.012a3.006 3.006 0 0 0 3.006-3.006v-6.012a3.006 3.006 0 0 0-3.006-3.006z"/></mask><filter id="u" width="52" height="59" x="-3" y="30" filterUnits="userSpaceOnUse"><feOffset dy="6" in="SourceGraphic" result="FeOffset1671Out"/><feGaussianBlur in="FeOffset1671Out" result="FeGaussianBlur1672Out" stdDeviation="4 4"/></filter><mask id="x" width="2" height="2" x="-1" y="-1"><path fill="#fff" d="M32 50h13v13H32z"/><path d="M35.055 59.116v-6.012h6.012v6.012zm6.012-9.018h-6.012a3.006 3.006 0 0 0-3.006 3.006v6.012a3.006 3.006 0 0 0 3.006 3.006h6.012a3.006 3.006 0 0 0 3.007-3.006v-6.012a3.006 3.006 0 0 0-3.007-3.006z"/></mask><filter id="w" width="53" height="59" x="12" y="30" filterUnits="userSpaceOnUse"><feOffset dy="6" in="SourceGraphic" result="FeOffset1687Out"/><feGaussianBlur in="FeOffset1687Out" result="FeGaussianBlur1688Out" stdDeviation="4 4"/></filter><mask id="z" width="2" height="2" x="-1" y="-1"><path fill="#fff" d="M62 32h13v5H62z"/><path d="M74.135 36.57v-1.503a3.006 3.006 0 0 0-3.006-3.006h-6.013a3.006 3.006 0 0 0-3.006 3.006v1.503h3.006v-1.503h6.013v1.503z"/></mask><filter id="y" width="53" height="51" x="42" y="12" filterUnits="userSpaceOnUse"><feOffset dy="6" in="SourceGraphic" result="FeOffset1703Out"/><feGaussianBlur in="FeOffset1703Out" result="FeGaussianBlur1704Out" stdDeviation="4 4"/></filter></defs><g filter="url(#a)"><path fill="none" d="M72.632 86.171c-12.452 0-22.546-10.094-22.546-22.546S60.18 41.08 72.632 41.08c12.451 0 22.546 10.094 22.546 22.546-.014 12.446-10.1 22.532-22.546 22.546zm0-48.098c-14.112 0-25.552 11.44-25.552 25.552s11.44 25.552 25.552 25.552 25.552-11.44 25.552-25.552c-.016-14.105-11.447-25.537-25.552-25.552z" mask="url(&quot;#b&quot;)"/><path fill-opacity=".16" d="M72.632 86.171c-12.452 0-22.546-10.094-22.546-22.546S60.18 41.08 72.632 41.08c12.451 0 22.546 10.094 22.546 22.546-.014 12.446-10.1 22.532-22.546 22.546zm0-48.098c-14.112 0-25.552 11.44-25.552 25.552s11.44 25.552 25.552 25.552 25.552-11.44 25.552-25.552c-.016-14.105-11.447-25.537-25.552-25.552z"/></g><path fill="#4e342e" d="M72.632 86.171c-12.452 0-22.546-10.094-22.546-22.546S60.18 41.08 72.632 41.08c12.451 0 22.546 10.094 22.546 22.546-.014 12.446-10.1 22.532-22.546 22.546zm0-48.098c-14.112 0-25.552 11.44-25.552 25.552s11.44 25.552 25.552 25.552 25.552-11.44 25.552-25.552c-.016-14.105-11.447-25.537-25.552-25.552z"/><g filter="url(#c)"><path fill="none" d="M72.632 65.128a1.503 1.503 0 1 1 0-3.006 1.503 1.503 0 0 1 0 3.006zm1.503-5.735v-9.295h-3.006v9.295a4.505 4.505 0 0 0-2.73 2.73H62.11v3.005h6.29a4.499 4.499 0 1 0 5.735-5.735z" mask="url(&quot;#d&quot;)"/><path fill-opacity=".16" d="M72.632 65.128a1.503 1.503 0 1 1 0-3.006 1.503 1.503 0 0 1 0 3.006zm1.503-5.735v-9.295h-3.006v9.295a4.505 4.505 0 0 0-2.73 2.73H62.11v3.005h6.29a4.499 4.499 0 1 0 5.735-5.735z"/></g><path fill="#4e342e" d="M72.632 65.128a1.503 1.503 0 1 1 0-3.006 1.503 1.503 0 0 1 0 3.006zm1.503-5.735v-9.295h-3.006v9.295a4.505 4.505 0 0 0-2.73 2.73H62.11v3.005h6.29a4.499 4.499 0 1 0 5.735-5.735z"/><g filter="url(#e)"><path fill="none" d="M53.092 62.122h3.006v3.006h-3.006z" mask="url(&quot;#f&quot;)"/><path fill-opacity=".16" d="M53.092 62.122h3.006v3.006h-3.006z"/></g><path fill="#4e342e" d="M53.092 62.122h3.006v3.006h-3.006z"/><g filter="url(#g)"><path fill="none" d="M71.129 80.159h3.006v3.006h-3.006z" mask="url(&quot;#h&quot;)"/><path fill-opacity=".16" d="M71.129 80.159h3.006v3.006h-3.006z"/></g><path fill="#4e342e" d="M71.129 80.159h3.006v3.006h-3.006z"/><g filter="url(#i)"><path fill="none" d="M89.165 62.122h3.007v3.006h-3.007z" mask="url(&quot;#j&quot;)"/><path fill-opacity=".16" d="M89.165 62.122h3.007v3.006h-3.007z"/></g><path fill="#4e342e" d="M89.165 62.122h3.007v3.006h-3.007z"/><g filter="url(#k)"><path fill="none" d="M71.129 44.085h3.006v3.006h-3.006z" mask="url(&quot;#l&quot;)"/><path fill-opacity=".16" d="M71.129 44.085h3.006v3.006h-3.006z"/></g><path fill="#4e342e" d="M71.129 44.085h3.006v3.006h-3.006z"/><g filter="url(#m)"><path fill="none" d="M26.037 11.018v1.503a4.51 4.51 0 0 0 9.018 0v-1.503h21.043v1.503a4.51 4.51 0 0 0 9.018 0v-1.503h10.522a4.51 4.51 0 0 1 4.51 4.51v4.508H11.005v-4.509a4.51 4.51 0 0 1 4.51-4.51zm3.006-4.51a1.503 1.503 0 0 1 3.006 0v6.013a1.503 1.503 0 0 1-3.006 0zm30.061 0a1.503 1.503 0 0 1 3.006 0v6.013a1.503 1.503 0 0 1-3.006 0zM11.006 66.632v-43.59h69.141V36.57h3.006V15.527a7.524 7.524 0 0 0-7.515-7.515H65.116V6.509a4.51 4.51 0 0 0-9.018 0v1.503H35.055V6.509a4.51 4.51 0 0 0-9.018 0v1.503H15.515A7.524 7.524 0 0 0 8 15.527v51.104a7.524 7.524 0 0 0 7.515 7.516h30.062V71.14H15.515a4.51 4.51 0 0 1-4.509-4.509z" mask="url(&quot;#n&quot;)"/><path fill-opacity=".16" d="M26.037 11.018v1.503a4.51 4.51 0 0 0 9.018 0v-1.503h21.043v1.503a4.51 4.51 0 0 0 9.018 0v-1.503h10.522a4.51 4.51 0 0 1 4.51 4.51v4.508H11.005v-4.509a4.51 4.51 0 0 1 4.51-4.51zm3.006-4.51a1.503 1.503 0 0 1 3.006 0v6.013a1.503 1.503 0 0 1-3.006 0zm30.061 0a1.503 1.503 0 0 1 3.006 0v6.013a1.503 1.503 0 0 1-3.006 0zM11.006 66.632v-43.59h69.141V36.57h3.006V15.527a7.524 7.524 0 0 0-7.515-7.515H65.116V6.509a4.51 4.51 0 0 0-9.018 0v1.503H35.055V6.509a4.51 4.51 0 0 0-9.018 0v1.503H15.515A7.524 7.524 0 0 0 8 15.527v51.104a7.524 7.524 0 0 0 7.515 7.516h30.062V71.14H15.515a4.51 4.51 0 0 1-4.509-4.509z"/></g><path fill="#4e342e" d="M26.037 11.018v1.503a4.51 4.51 0 0 0 9.018 0v-1.503h21.043v1.503a4.51 4.51 0 0 0 9.018 0v-1.503h10.522a4.51 4.51 0 0 1 4.51 4.51v4.508H11.005v-4.509a4.51 4.51 0 0 1 4.51-4.51zm3.006-4.51a1.503 1.503 0 0 1 3.006 0v6.013a1.503 1.503 0 0 1-3.006 0zm30.061 0a1.503 1.503 0 0 1 3.006 0v6.013a1.503 1.503 0 0 1-3.006 0zM11.006 66.632v-43.59h69.141V36.57h3.006V15.527a7.524 7.524 0 0 0-7.515-7.515H65.116V6.509a4.51 4.51 0 0 0-9.018 0v1.503H35.055V6.509a4.51 4.51 0 0 0-9.018 0v1.503H15.515A7.524 7.524 0 0 0 8 15.527v51.104a7.524 7.524 0 0 0 7.515 7.516h30.062V71.14H15.515a4.51 4.51 0 0 1-4.509-4.509z"/><g filter="url(#o)"><path fill="none" d="M20.025 41.08v-6.013h6.012v6.012zm9.018-6.013a3.006 3.006 0 0 0-3.006-3.006h-6.012a3.006 3.006 0 0 0-3.007 3.006v6.012a3.006 3.006 0 0 0 3.007 3.006h6.012a3.006 3.006 0 0 0 3.006-3.006z" mask="url(&quot;#p&quot;)"/><path fill-opacity=".16" d="M20.025 41.08v-6.013h6.012v6.012zm9.018-6.013a3.006 3.006 0 0 0-3.006-3.006h-6.012a3.006 3.006 0 0 0-3.007 3.006v6.012a3.006 3.006 0 0 0 3.007 3.006h6.012a3.006 3.006 0 0 0 3.006-3.006z"/></g><path fill="#4e342e" d="M20.025 41.08v-6.013h6.012v6.012zm9.018-6.013a3.006 3.006 0 0 0-3.006-3.006h-6.012a3.006 3.006 0 0 0-3.007 3.006v6.012a3.006 3.006 0 0 0 3.007 3.006h6.012a3.006 3.006 0 0 0 3.006-3.006z"/><g filter="url(#q)"><path fill="none" d="M35.055 41.08v-6.013h6.012v6.012zm9.019-6.013a3.006 3.006 0 0 0-3.007-3.006h-6.012a3.006 3.006 0 0 0-3.006 3.006v6.012a3.006 3.006 0 0 0 3.006 3.006h6.012a3.006 3.006 0 0 0 3.007-3.006z" mask="url(&quot;#r&quot;)"/><path fill-opacity=".16" d="M35.055 41.08v-6.013h6.012v6.012zm9.019-6.013a3.006 3.006 0 0 0-3.007-3.006h-6.012a3.006 3.006 0 0 0-3.006 3.006v6.012a3.006 3.006 0 0 0 3.006 3.006h6.012a3.006 3.006 0 0 0 3.007-3.006z"/></g><path fill="#4e342e" d="M35.055 41.08v-6.013h6.012v6.012zm9.019-6.013a3.006 3.006 0 0 0-3.007-3.006h-6.012a3.006 3.006 0 0 0-3.006 3.006v6.012a3.006 3.006 0 0 0 3.006 3.006h6.012a3.006 3.006 0 0 0 3.007-3.006z"/><g filter="url(#s)"><path fill="none" d="M59.104 39.576v-4.51a3.006 3.006 0 0 0-3.006-3.005h-6.012a3.006 3.006 0 0 0-3.006 3.006v6.012a3.006 3.006 0 0 0 3.006 3.006h3.006V41.08h-3.006v-6.012h6.012v4.51z" mask="url(&quot;#t&quot;)"/><path fill-opacity=".16" d="M59.104 39.576v-4.51a3.006 3.006 0 0 0-3.006-3.005h-6.012a3.006 3.006 0 0 0-3.006 3.006v6.012a3.006 3.006 0 0 0 3.006 3.006h3.006V41.08h-3.006v-6.012h6.012v4.51z"/></g><path fill="#4e342e" d="M59.104 39.576v-4.51a3.006 3.006 0 0 0-3.006-3.005h-6.012a3.006 3.006 0 0 0-3.006 3.006v6.012a3.006 3.006 0 0 0 3.006 3.006h3.006V41.08h-3.006v-6.012h6.012v4.51z"/><g filter="url(#u)"><path fill="none" d="M20.025 59.116v-6.012h6.012v6.012zm6.012-9.018h-6.012a3.006 3.006 0 0 0-3.007 3.006v6.012a3.006 3.006 0 0 0 3.007 3.006h6.012a3.006 3.006 0 0 0 3.006-3.006v-6.012a3.006 3.006 0 0 0-3.006-3.006z" mask="url(&quot;#v&quot;)"/><path fill-opacity=".16" d="M20.025 59.116v-6.012h6.012v6.012zm6.012-9.018h-6.012a3.006 3.006 0 0 0-3.007 3.006v6.012a3.006 3.006 0 0 0 3.007 3.006h6.012a3.006 3.006 0 0 0 3.006-3.006v-6.012a3.006 3.006 0 0 0-3.006-3.006z"/></g><path fill="#4e342e" d="M20.025 59.116v-6.012h6.012v6.012zm6.012-9.018h-6.012a3.006 3.006 0 0 0-3.007 3.006v6.012a3.006 3.006 0 0 0 3.007 3.006h6.012a3.006 3.006 0 0 0 3.006-3.006v-6.012a3.006 3.006 0 0 0-3.006-3.006z"/><g filter="url(#w)"><path fill="none" d="M35.055 59.116v-6.012h6.012v6.012zm6.012-9.018h-6.012a3.006 3.006 0 0 0-3.006 3.006v6.012a3.006 3.006 0 0 0 3.006 3.006h6.012a3.006 3.006 0 0 0 3.007-3.006v-6.012a3.006 3.006 0 0 0-3.007-3.006z" mask="url(&quot;#x&quot;)"/><path fill-opacity=".16" d="M35.055 59.116v-6.012h6.012v6.012zm6.012-9.018h-6.012a3.006 3.006 0 0 0-3.006 3.006v6.012a3.006 3.006 0 0 0 3.006 3.006h6.012a3.006 3.006 0 0 0 3.007-3.006v-6.012a3.006 3.006 0 0 0-3.007-3.006z"/></g><path fill="#4e342e" d="M35.055 59.116v-6.012h6.012v6.012zm6.012-9.018h-6.012a3.006 3.006 0 0 0-3.006 3.006v6.012a3.006 3.006 0 0 0 3.006 3.006h6.012a3.006 3.006 0 0 0 3.007-3.006v-6.012a3.006 3.006 0 0 0-3.007-3.006z"/><g filter="url(#y)"><path fill="none" d="M74.135 36.57v-1.503a3.006 3.006 0 0 0-3.006-3.006h-6.013a3.006 3.006 0 0 0-3.006 3.006v1.503h3.006v-1.503h6.013v1.503z" mask="url(&quot;#z&quot;)"/><path fill-opacity=".16" d="M74.135 36.57v-1.503a3.006 3.006 0 0 0-3.006-3.006h-6.013a3.006 3.006 0 0 0-3.006 3.006v1.503h3.006v-1.503h6.013v1.503z"/></g><path fill="#4e342e" d="M74.135 36.57v-1.503a3.006 3.006 0 0 0-3.006-3.006h-6.013a3.006 3.006 0 0 0-3.006 3.006v1.503h3.006v-1.503h6.013v1.503z"/></svg>