<svg xmlns="http://www.w3.org/2000/svg" width="66" height="66" viewBox="0 0 66 66"><defs><mask id="b" width="2" height="2" x="-1" y="-1"><path fill="#fff" d="M8 2h51v50H8z"/><path d="M33.304 48.093C21.654 48.093 12.21 38.65 12.21 27S21.653 5.906 33.304 5.906c11.65 0 21.093 9.443 21.093 21.094 0 11.65-9.443 21.093-21.093 21.093zm0-46.093c-13.808 0-25 11.192-25 25 0 13.807 11.192 25 25 25 13.807 0 25-11.193 25-25 0-13.808-11.193-25-25-25z"/></mask><filter id="a" width="91" height="96" x="-12" y="-18" filterUnits="userSpaceOnUse"><feOffset dy="6" in="SourceGraphic" result="FeOffset1337Out"/><feGaussianBlur in="FeOffset1337Out" result="FeGaussianBlur1338Out" stdDeviation="4 4"/></filter><mask id="d" width="2" height="2" x="-1" y="-1"><path fill="#fff" d="M27 14h13v26H27z"/><path d="M39.364 23.09h-4.442v-3.242c0-.995 1.028-1.226 1.509-1.226h2.87v-4.375l-3.29-.018c-4.487 0-5.512 3.263-5.512 5.355v3.506h-3.256v4.508h3.256V39.77h4.423V27.598h3.756z"/></mask><filter id="c" width="53" height="72" x="7" y="-6" filterUnits="userSpaceOnUse"><feOffset dy="6" in="SourceGraphic" result="FeOffset1353Out"/><feGaussianBlur in="FeOffset1353Out" result="FeGaussianBlur1354Out" stdDeviation="4 4"/></filter></defs><g filter="url(#a)"><path fill="none" d="M33.304 48.093C21.654 48.093 12.21 38.65 12.21 27S21.653 5.906 33.304 5.906c11.65 0 21.093 9.443 21.093 21.094 0 11.65-9.443 21.093-21.093 21.093zm0-46.093c-13.808 0-25 11.192-25 25 0 13.807 11.192 25 25 25 13.807 0 25-11.193 25-25 0-13.808-11.193-25-25-25z" mask="url(&quot;#b&quot;)"/><path fill-opacity=".16" d="M33.304 48.093C21.654 48.093 12.21 38.65 12.21 27S21.653 5.906 33.304 5.906c11.65 0 21.093 9.443 21.093 21.094 0 11.65-9.443 21.093-21.093 21.093zm0-46.093c-13.808 0-25 11.192-25 25 0 13.807 11.192 25 25 25 13.807 0 25-11.193 25-25 0-13.808-11.193-25-25-25z"/></g><path fill="#4e342e" d="M33.304 48.093C21.654 48.093 12.21 38.65 12.21 27S21.653 5.906 33.304 5.906c11.65 0 21.093 9.443 21.093 21.094 0 11.65-9.443 21.093-21.093 21.093zm0-46.093c-13.808 0-25 11.192-25 25 0 13.807 11.192 25 25 25 13.807 0 25-11.193 25-25 0-13.808-11.193-25-25-25z"/><g filter="url(#c)"><path fill="none" d="M39.364 23.09h-4.442v-3.242c0-.995 1.028-1.226 1.509-1.226h2.87v-4.375l-3.29-.018c-4.487 0-5.512 3.263-5.512 5.355v3.506h-3.256v4.508h3.256V39.77h4.423V27.598h3.756z" mask="url(&quot;#d&quot;)"/><path fill-opacity=".16" d="M39.364 23.09h-4.442v-3.242c0-.995 1.028-1.226 1.509-1.226h2.87v-4.375l-3.29-.018c-4.487 0-5.512 3.263-5.512 5.355v3.506h-3.256v4.508h3.256V39.77h4.423V27.598h3.756z"/></g><path fill="#4e342e" d="M39.364 23.09h-4.442v-3.242c0-.995 1.028-1.226 1.509-1.226h2.87v-4.375l-3.29-.018c-4.487 0-5.512 3.263-5.512 5.355v3.506h-3.256v4.508h3.256V39.77h4.423V27.598h3.756z"/></svg>