<svg fill="#fff" xmlns="http://www.w3.org/2000/svg" width="36" height="35" viewBox="0 0 36 35"><path d="M-1.938-3h40v40h-40z"/><path fill="#adadad" d="M18.242 29.109l-.18.187-.18-.187C9.315 21.04 3.662 15.706 3.662 10.296c0-3.744 2.7-6.552 6.3-6.552 2.772 0 5.472 1.853 6.426 4.418h3.366c.936-2.565 3.636-4.418 6.408-4.418 3.6 0 6.3 2.808 6.3 6.552 0 5.41-5.652 10.745-14.22 18.813zM26.163 0c-3.131 0-6.137 1.516-8.1 3.912C16.1 1.516 13.095 0 9.963 0 4.42 0 .063 4.53.063 10.296c0 7.076 6.12 12.841 15.39 21.602l2.61 2.452 2.61-2.471c9.27-8.742 15.39-14.507 15.39-21.583C36.063 4.53 31.707 0 26.163 0z"/></svg>