<svg xmlns="http://www.w3.org/2000/svg" width="66" height="66" viewBox="0 0 66 66"><defs><mask id="b" width="2" height="2" x="-1" y="-1"><path fill="#fff" d="M20 14h26v27H20z"/><path d="M43.53 33.052a4.82 4.82 0 0 1-4.813 4.814h-11.52a4.82 4.82 0 0 1-4.815-4.814v-11.52a4.82 4.82 0 0 1 4.814-4.815h11.52a4.82 4.82 0 0 1 4.815 4.814v11.52zm-4.813-18.616h-11.52c-3.913 0-7.096 3.183-7.096 7.095v11.52a7.103 7.103 0 0 0 7.095 7.096h11.52a7.103 7.103 0 0 0 7.096-7.095v-11.52c0-3.913-3.183-7.096-7.095-7.096z"/></mask><filter id="a" width="66" height="73" x="0" y="-6" filterUnits="userSpaceOnUse"><feOffset dy="6" in="SourceGraphic" result="FeOffset1229Out"/><feGaussianBlur in="FeOffset1229Out" result="FeGaussianBlur1230Out" stdDeviation="4 4"/></filter><mask id="d" width="2" height="2" x="-1" y="-1"><path fill="#fff" d="M26 20h14v14H26z"/><path d="M32.956 31.635a4.349 4.349 0 0 1-4.343-4.343 4.349 4.349 0 0 1 4.343-4.344 4.349 4.349 0 0 1 4.344 4.344 4.349 4.349 0 0 1-4.343 4.343zm0-10.968a6.632 6.632 0 0 0-6.625 6.625 6.632 6.632 0 0 0 6.626 6.625 6.632 6.632 0 0 0 6.625-6.625 6.632 6.632 0 0 0-6.625-6.625z"/></mask><filter id="c" width="54" height="60" x="6" y="0" filterUnits="userSpaceOnUse"><feOffset dy="6" in="SourceGraphic" result="FeOffset1245Out"/><feGaussianBlur in="FeOffset1245Out" result="FeGaussianBlur1246Out" stdDeviation="4 4"/></filter><mask id="f" width="2" height="2" x="-1" y="-1"><path fill="#fff" d="M38 18h4v5h-4z"/><path d="M39.86 18.732c-.44 0-.872.178-1.182.49a1.68 1.68 0 0 0-.492 1.183c0 .44.18.872.492 1.183.31.31.742.49 1.181.49.441 0 .872-.18 1.184-.49.311-.311.49-.743.49-1.183a1.68 1.68 0 0 0-.49-1.183 1.68 1.68 0 0 0-1.184-.49z"/></mask><filter id="e" width="44" height="51" x="18" y="-2" filterUnits="userSpaceOnUse"><feOffset dy="6" in="SourceGraphic" result="FeOffset1261Out"/><feGaussianBlur in="FeOffset1261Out" result="FeGaussianBlur1262Out" stdDeviation="4 4"/></filter><mask id="h" width="2" height="2" x="-1" y="-1"><path fill="#fff" d="M7 2h51v50H7z"/><path d="M32.665 48.093C21.015 48.093 11.57 38.65 11.57 27S21.014 5.906 32.665 5.906c11.65 0 21.093 9.443 21.093 21.094 0 11.65-9.443 21.093-21.093 21.093zm0-46.093c-13.808 0-25 11.192-25 25 0 13.807 11.192 25 25 25 13.807 0 25-11.193 25-25 0-13.808-11.193-25-25-25z"/></mask><filter id="g" width="91" height="96" x="-13" y="-18" filterUnits="userSpaceOnUse"><feOffset dy="6" in="SourceGraphic" result="FeOffset1277Out"/><feGaussianBlur in="FeOffset1277Out" result="FeGaussianBlur1278Out" stdDeviation="4 4"/></filter></defs><g filter="url(#a)"><path fill="none" d="M43.53 33.052a4.82 4.82 0 0 1-4.813 4.814h-11.52a4.82 4.82 0 0 1-4.815-4.814v-11.52a4.82 4.82 0 0 1 4.814-4.815h11.52a4.82 4.82 0 0 1 4.815 4.814v11.52zm-4.813-18.616h-11.52c-3.913 0-7.096 3.183-7.096 7.095v11.52a7.103 7.103 0 0 0 7.095 7.096h11.52a7.103 7.103 0 0 0 7.096-7.095v-11.52c0-3.913-3.183-7.096-7.095-7.096z" mask="url(&quot;#b&quot;)"/><path fill-opacity=".16" d="M43.53 33.052a4.82 4.82 0 0 1-4.813 4.814h-11.52a4.82 4.82 0 0 1-4.815-4.814v-11.52a4.82 4.82 0 0 1 4.814-4.815h11.52a4.82 4.82 0 0 1 4.815 4.814v11.52zm-4.813-18.616h-11.52c-3.913 0-7.096 3.183-7.096 7.095v11.52a7.103 7.103 0 0 0 7.095 7.096h11.52a7.103 7.103 0 0 0 7.096-7.095v-11.52c0-3.913-3.183-7.096-7.095-7.096z"/></g><path fill="#4e342e" d="M43.53 33.052a4.82 4.82 0 0 1-4.813 4.814h-11.52a4.82 4.82 0 0 1-4.815-4.814v-11.52a4.82 4.82 0 0 1 4.814-4.815h11.52a4.82 4.82 0 0 1 4.815 4.814v11.52zm-4.813-18.616h-11.52c-3.913 0-7.096 3.183-7.096 7.095v11.52a7.103 7.103 0 0 0 7.095 7.096h11.52a7.103 7.103 0 0 0 7.096-7.095v-11.52c0-3.913-3.183-7.096-7.095-7.096z"/><g filter="url(#c)"><path fill="none" d="M32.956 31.635a4.349 4.349 0 0 1-4.343-4.343 4.349 4.349 0 0 1 4.343-4.344 4.349 4.349 0 0 1 4.344 4.344 4.349 4.349 0 0 1-4.343 4.343zm0-10.968a6.632 6.632 0 0 0-6.625 6.625 6.632 6.632 0 0 0 6.626 6.625 6.632 6.632 0 0 0 6.625-6.625 6.632 6.632 0 0 0-6.625-6.625z" mask="url(&quot;#d&quot;)"/><path fill-opacity=".16" d="M32.956 31.635a4.349 4.349 0 0 1-4.343-4.343 4.349 4.349 0 0 1 4.343-4.344 4.349 4.349 0 0 1 4.344 4.344 4.349 4.349 0 0 1-4.343 4.343zm0-10.968a6.632 6.632 0 0 0-6.625 6.625 6.632 6.632 0 0 0 6.626 6.625 6.632 6.632 0 0 0 6.625-6.625 6.632 6.632 0 0 0-6.625-6.625z"/></g><path fill="#4e342e" d="M32.956 31.635a4.349 4.349 0 0 1-4.343-4.343 4.349 4.349 0 0 1 4.343-4.344 4.349 4.349 0 0 1 4.344 4.344 4.349 4.349 0 0 1-4.343 4.343zm0-10.968a6.632 6.632 0 0 0-6.625 6.625 6.632 6.632 0 0 0 6.626 6.625 6.632 6.632 0 0 0 6.625-6.625 6.632 6.632 0 0 0-6.625-6.625z"/><g filter="url(#e)"><path fill="none" d="M39.86 18.732c-.44 0-.872.178-1.182.49a1.68 1.68 0 0 0-.492 1.183c0 .44.18.872.492 1.183.31.31.742.49 1.181.49.441 0 .872-.18 1.184-.49.311-.311.49-.743.49-1.183a1.68 1.68 0 0 0-.49-1.183 1.68 1.68 0 0 0-1.184-.49z" mask="url(&quot;#f&quot;)"/><path fill-opacity=".16" d="M39.86 18.732c-.44 0-.872.178-1.182.49a1.68 1.68 0 0 0-.492 1.183c0 .44.18.872.492 1.183.31.31.742.49 1.181.49.441 0 .872-.18 1.184-.49.311-.311.49-.743.49-1.183a1.68 1.68 0 0 0-.49-1.183 1.68 1.68 0 0 0-1.184-.49z"/></g><path fill="#4e342e" d="M39.86 18.732c-.44 0-.872.178-1.182.49a1.68 1.68 0 0 0-.492 1.183c0 .44.18.872.492 1.183.31.31.742.49 1.181.49.441 0 .872-.18 1.184-.49.311-.311.49-.743.49-1.183a1.68 1.68 0 0 0-.49-1.183 1.68 1.68 0 0 0-1.184-.49z"/><g filter="url(#g)"><path fill="none" d="M32.665 48.093C21.015 48.093 11.57 38.65 11.57 27S21.014 5.906 32.665 5.906c11.65 0 21.093 9.443 21.093 21.094 0 11.65-9.443 21.093-21.093 21.093zm0-46.093c-13.808 0-25 11.192-25 25 0 13.807 11.192 25 25 25 13.807 0 25-11.193 25-25 0-13.808-11.193-25-25-25z" mask="url(&quot;#h&quot;)"/><path fill-opacity=".16" d="M32.665 48.093C21.015 48.093 11.57 38.65 11.57 27S21.014 5.906 32.665 5.906c11.65 0 21.093 9.443 21.093 21.094 0 11.65-9.443 21.093-21.093 21.093zm0-46.093c-13.808 0-25 11.192-25 25 0 13.807 11.192 25 25 25 13.807 0 25-11.193 25-25 0-13.808-11.193-25-25-25z"/></g><path fill="#4e342e" d="M32.665 48.093C21.015 48.093 11.57 38.65 11.57 27S21.014 5.906 32.665 5.906c11.65 0 21.093 9.443 21.093 21.094 0 11.65-9.443 21.093-21.093 21.093zm0-46.093c-13.808 0-25 11.192-25 25 0 13.807 11.192 25 25 25 13.807 0 25-11.193 25-25 0-13.808-11.193-25-25-25z"/></svg>