<svg fill="#fff" xmlns="http://www.w3.org/2000/svg" width="21" height="20" viewBox="0 0 21 20"><path d="M-2-3h25v25H-2z"/><path fill="#ce6311" d="M10.605 16.397l-.105.106-.105-.106C5.397 11.853 2.1 8.847 2.1 5.8c0-2.11 1.575-3.691 3.675-3.691 1.617 0 3.192 1.044 3.748 2.489h1.964c.546-1.445 2.121-2.489 3.738-2.489 2.1 0 3.675 1.582 3.675 3.69 0 3.048-3.297 6.054-8.295 10.598zM15.225 0c-1.827 0-3.58.854-4.725 2.204C9.355.854 7.602 0 5.775 0 2.541 0 0 2.552 0 5.8c0 3.986 3.57 7.234 8.977 12.169L10.5 19.35l1.522-1.392C17.43 13.034 21 9.786 21 5.8 21 2.552 18.459 0 15.225 0z"/></svg>