<svg xmlns="http://www.w3.org/2000/svg" width="25" height="24" viewBox="0 0 25 24"><path fill="#4e342e" d="M12.566 20.12l-.125.129-.124-.13c-5.922-5.576-9.829-9.264-9.829-13.003 0-2.588 1.866-4.528 4.355-4.528 1.916 0 3.782 1.28 4.441 3.053h2.327c.647-1.772 2.513-3.053 4.429-3.053 2.488 0 4.354 1.94 4.354 4.528 0 3.74-3.906 7.427-9.828 13.003zM18.04 0c-2.165 0-4.243 1.048-5.599 2.704C11.085 1.048 9.008 0 6.843 0 3.01 0 0 3.131 0 7.116c0 4.891 4.23 8.876 10.637 14.931l1.804 1.695 1.804-1.708c6.408-6.042 10.638-10.027 10.638-14.918C24.883 3.131 21.872 0 18.04 0z"/></svg>