<svg xmlns="http://www.w3.org/2000/svg" width="63" height="41" viewBox="0 0 63 41"><path fill="#d2b773" d="M31.551 15.856c-1.852.23-4.173.328-5.517-.958-1.825-1.746-.308-6.11 1.15-7.425 1.83-1.638 3.788-2.826 6.483-2.826a12.32 12.32 0 0 1 2.046.163c-1.364 1.979-2.53 5.303-4.162 11.046zm.505 13.808c.26-1.358.677-4.092 1.592-7.868 1.844-7.623 3.949-12.716 5.289-15.605 1.34-2.89 3.27-4.128 4.358-3.099V.021c-2.42-.154-4.595.53-6.305 2.73-3.393-.47-5.975-.553-9.27.59-3.416 1.184-7.464 4.275-7.385 8.72.024 1.424.88 3.17 2.026 4.293a8.963 8.963 0 0 0 3.618 2.019c-1.068.886-2.562 2.509-5.742 6.308-4.17 4.975-6.865 7.587-8.899 9.071-1.6 1.18-3.689 2.81-5.935 2.438-.272-.044-.89-.756-1.265-1.266a3.148 3.148 0 0 0-2.294-1.188 1.75 1.75 0 0 0-1.303.487c-.35.335-.545.8-.541 1.286.01.913.479 1.758 1.245 2.248.88.503 1.545 1.073 3.602 1.01a13.32 13.32 0 0 0 4.611-.792 22.21 22.21 0 0 0 5.75-3.408 43.722 43.722 0 0 0 5.766-5.299 182.058 182.058 0 0 0 6.136-7.405c1.517-1.95 2.64-3.613 2.92-3.957.461-.032.603.031.855.031l-1.493 6.807a11.451 11.451 0 0 1-1.719 3.661c-.615.986-2.246 1.607-4.161 1.381l.043 1.916a19.169 19.169 0 0 1 4.504-.348c.789 0 3.2.075 4.45.221 1.034.133 2.075.195 3.117.186a10.356 10.356 0 0 0 2.912-.455l.473-1.979c-1.994.416-4.812.677-6.955.337z"/><path fill="#d2b773" d="M40.23 20.173l-2.88 11.853a6.97 6.97 0 0 0 4.406-.499l-.24 2.082c-1.64.69-4.584.396-5.912.246-2.711-.277-4.335-.337-6.995.241l.327-2.094c2.16.218 3.046-.483 3.547-.914.788-.673 1.111-2.376 1.576-4.066l3.37-12.76c.212-.791.614-2.315.563-2.573-.083-.396-.729-.518-1.458-.518l.445-1.9c1.805-.12 3.847-.365 6.22-.749-.194.602-.832 3.389-1.14 4.557l-1.32 5.035c.464.09.935.137 1.407.139 3.647.05 6.683-2.802 6.877-6.46.26-3.687-3.098-4.752-6.282-4.752-2.467 0-4.548.594-6.9 1.794-2.353 1.2-3.941 3.167-5.124 4.92-1.182 1.754-1.288 3.29-1.288 5.234 0 1.461 1.044 2.07 2.254 3.116.946.82 1.257 2.237.268 3.222-.706.697-2.144.856-3.5-1.187-2.7-4.09-1.667-9.466.646-12.205 1.604-1.9 3.358-3.833 6.066-5.206 2.707-1.374 5.458-1.833 8.453-1.833 2.79 0 5.655.182 7.456 1.235a5.547 5.547 0 0 1 2.861 4.89 9.044 9.044 0 0 1-2.431 6.076c-1.655 1.67-4.383 2.435-7.283 2.902 1.068 1.279 2.51 4.438 3.31 6.833 1.577 4.75 3.05 7.85 4.544 9.948 1.683 2.376 4.611 3.227 6.274.175.497-.903 1.017-1.98 2.077-2.201 1.06-.222 1.79.657 1.856 1.63.087 1.283-.555 1.77-1.62 2.657-2.482 2.059-5.576 2.751-8.575 1.152a13.647 13.647 0 0 1-4.28-3.614 24.572 24.572 0 0 1-3.547-6.18 34.305 34.305 0 0 1-2.16-6.45c-.456-1.947-.677-3.392-.815-3.772a7.185 7.185 0 0 0-1.052-.004z"/></svg>