<svg xmlns="http://www.w3.org/2000/svg" width="150" height="84" viewBox="0 0 150 84"><defs><mask id="b" width="2" height="2" x="-1" y="-1"><path fill="#fff" d="M25 2h117v69H25z"/><path d="M79.309 38.811c.208-.208.377-.44.509-.687l10.912 9.662a2.913 2.913 0 0 0 3.822.04l11.12-9.435c.102.148.216.289.347.42l25.553 25.553H53.756zm56.39 21.426zm-25.554-25.553c-.016-.016-.034-.03-.05-.045l19.21-16.299a2.918 2.918 0 0 0-3.775-4.449l-32.825 27.85L54.409 7.835h81.29v52.402zm29.04 35.459c.051-.01.1-.024.15-.037.043-.01.086-.02.127-.033.05-.014.097-.033.144-.05.042-.015.084-.029.126-.046.045-.019.088-.04.132-.061.042-.02.085-.04.127-.062.041-.022.08-.047.121-.071.042-.025.084-.049.124-.076.043-.029.083-.06.125-.092.035-.026.07-.05.105-.078a2.89 2.89 0 0 0 .181-.164l.033-.03.03-.033c.056-.058.11-.117.162-.18.03-.036.056-.074.084-.112.03-.039.06-.076.086-.117.029-.043.054-.088.08-.132.023-.037.047-.074.067-.112.024-.045.045-.092.066-.137.02-.04.04-.08.057-.122.019-.045.033-.09.05-.136.016-.044.033-.088.046-.133.014-.046.024-.093.036-.14.011-.046.025-.09.034-.137.01-.055.017-.11.025-.165.005-.04.013-.078.017-.117a2.91 2.91 0 0 0 .014-.291V4.917A2.917 2.917 0 0 0 138.617 2H46.712c-.025 0-.05.003-.076.003a2.95 2.95 0 0 0-.722.11 3.005 3.005 0 0 0-.532.21 2.896 2.896 0 0 0-.8.604c-.017.02-.037.037-.054.056l-.03.037c-.036.042-.07.086-.104.131-.025.033-.05.065-.074.099-.03.043-.058.088-.086.133-.023.037-.047.074-.068.112-.025.043-.046.088-.068.133-.02.04-.041.081-.06.123-.019.044-.035.09-.052.134a2.333 2.333 0 0 0-.087.268c-.012.046-.026.093-.036.14-.01.044-.016.088-.024.133-.009.05-.017.1-.024.152-.005.042-.007.084-.01.127a2.868 2.868 0 0 0-.008.164c0 .016-.003.031-.003.047V22.91a2.917 2.917 0 1 0 5.836 0V11.396l25.94 22.966a3.012 3.012 0 0 0-.388.322L49.63 60.237V41.063a2.917 2.917 0 1 0-5.835 0v3.565H28.72a2.917 2.917 0 1 0 0 5.836h15.074V67.28a2.917 2.917 0 0 0 2.918 2.918h91.904c.096 0 .192-.005.288-.015.045-.004.088-.013.132-.019.05-.007.1-.013.15-.022z"/></mask><filter id="a" width="157" height="115" x="5" y="-18" filterUnits="userSpaceOnUse"><feOffset dy="6" in="SourceGraphic" result="FeOffset1375Out"/><feGaussianBlur in="FeOffset1375Out" result="FeGaussianBlur1376Out" stdDeviation="4 4"/></filter><mask id="d" width="2" height="2" x="-1" y="-1"><path fill="#fff" d="M7 29h56v7H7z"/><path d="M9.918 35.227h49.275a2.917 2.917 0 1 0 0-5.835H9.918a2.917 2.917 0 1 0 0 5.835z"/></mask><filter id="c" width="96" height="53" x="-13" y="9" filterUnits="userSpaceOnUse"><feOffset dy="6" in="SourceGraphic" result="FeOffset1391Out"/><feGaussianBlur in="FeOffset1391Out" result="FeGaussianBlur1392Out" stdDeviation="4 4"/></filter><mask id="f" width="2" height="2" x="-1" y="-1"><path fill="#fff" d="M12 13h29v7H12z"/><path d="M15.023 19.15H37.15a2.917 2.917 0 1 0 0-5.836H15.023a2.917 2.917 0 1 0 0 5.835z"/></mask><filter id="e" width="69" height="53" x="-8" y="-7" filterUnits="userSpaceOnUse"><feOffset dy="6" in="SourceGraphic" result="FeOffset1407Out"/><feGaussianBlur in="FeOffset1407Out" result="FeGaussianBlur1408Out" stdDeviation="4 4"/></filter><mask id="h" width="2" height="2" x="-1" y="-1"><path fill="#fff" d="M7 56h28v7H7z"/><path d="M31.313 56.948H9.918a2.917 2.917 0 1 0 0 5.835h21.395a2.917 2.917 0 1 0 0-5.835z"/></mask><filter id="g" width="68" height="53" x="-13" y="36" filterUnits="userSpaceOnUse"><feOffset dy="6" in="SourceGraphic" result="FeOffset1423Out"/><feGaussianBlur in="FeOffset1423Out" result="FeGaussianBlur1424Out" stdDeviation="4 4"/></filter></defs><g filter="url(#a)"><path fill="none" d="M79.309 38.811c.208-.208.377-.44.509-.687l10.912 9.662a2.913 2.913 0 0 0 3.822.04l11.12-9.435c.102.148.216.289.347.42l25.553 25.553H53.756zm56.39 21.426zm-25.554-25.553c-.016-.016-.034-.03-.05-.045l19.21-16.299a2.918 2.918 0 0 0-3.775-4.449l-32.825 27.85L54.409 7.835h81.29v52.402zm29.04 35.459c.051-.01.1-.024.15-.037.043-.01.086-.02.127-.033.05-.014.097-.033.144-.05.042-.015.084-.029.126-.046.045-.019.088-.04.132-.061.042-.02.085-.04.127-.062.041-.022.08-.047.121-.071.042-.025.084-.049.124-.076.043-.029.083-.06.125-.092.035-.026.07-.05.105-.078a2.89 2.89 0 0 0 .181-.164l.033-.03.03-.033c.056-.058.11-.117.162-.18.03-.036.056-.074.084-.112.03-.039.06-.076.086-.117.029-.043.054-.088.08-.132.023-.037.047-.074.067-.112.024-.045.045-.092.066-.137.02-.04.04-.08.057-.122.019-.045.033-.09.05-.136.016-.044.033-.088.046-.133.014-.046.024-.093.036-.14.011-.046.025-.09.034-.137.01-.055.017-.11.025-.165.005-.04.013-.078.017-.117a2.91 2.91 0 0 0 .014-.291V4.917A2.917 2.917 0 0 0 138.617 2H46.712c-.025 0-.05.003-.076.003a2.95 2.95 0 0 0-.722.11 3.005 3.005 0 0 0-.532.21 2.896 2.896 0 0 0-.8.604c-.017.02-.037.037-.054.056l-.03.037c-.036.042-.07.086-.104.131-.025.033-.05.065-.074.099-.03.043-.058.088-.086.133-.023.037-.047.074-.068.112-.025.043-.046.088-.068.133-.02.04-.041.081-.06.123-.019.044-.035.09-.052.134a2.333 2.333 0 0 0-.087.268c-.012.046-.026.093-.036.14-.01.044-.016.088-.024.133-.009.05-.017.1-.024.152-.005.042-.007.084-.01.127a2.868 2.868 0 0 0-.008.164c0 .016-.003.031-.003.047V22.91a2.917 2.917 0 1 0 5.836 0V11.396l25.94 22.966a3.012 3.012 0 0 0-.388.322L49.63 60.237V41.063a2.917 2.917 0 1 0-5.835 0v3.565H28.72a2.917 2.917 0 1 0 0 5.836h15.074V67.28a2.917 2.917 0 0 0 2.918 2.918h91.904c.096 0 .192-.005.288-.015.045-.004.088-.013.132-.019.05-.007.1-.013.15-.022z" mask="url(&quot;#b&quot;)"/><path fill-opacity=".16" d="M79.309 38.811c.208-.208.377-.44.509-.687l10.912 9.662a2.913 2.913 0 0 0 3.822.04l11.12-9.435c.102.148.216.289.347.42l25.553 25.553H53.756zm56.39 21.426zm-25.554-25.553c-.016-.016-.034-.03-.05-.045l19.21-16.299a2.918 2.918 0 0 0-3.775-4.449l-32.825 27.85L54.409 7.835h81.29v52.402zm29.04 35.459c.051-.01.1-.024.15-.037.043-.01.086-.02.127-.033.05-.014.097-.033.144-.05.042-.015.084-.029.126-.046.045-.019.088-.04.132-.061.042-.02.085-.04.127-.062.041-.022.08-.047.121-.071.042-.025.084-.049.124-.076.043-.029.083-.06.125-.092.035-.026.07-.05.105-.078a2.89 2.89 0 0 0 .181-.164l.033-.03.03-.033c.056-.058.11-.117.162-.18.03-.036.056-.074.084-.112.03-.039.06-.076.086-.117.029-.043.054-.088.08-.132.023-.037.047-.074.067-.112.024-.045.045-.092.066-.137.02-.04.04-.08.057-.122.019-.045.033-.09.05-.136.016-.044.033-.088.046-.133.014-.046.024-.093.036-.14.011-.046.025-.09.034-.137.01-.055.017-.11.025-.165.005-.04.013-.078.017-.117a2.91 2.91 0 0 0 .014-.291V4.917A2.917 2.917 0 0 0 138.617 2H46.712c-.025 0-.05.003-.076.003a2.95 2.95 0 0 0-.722.11 3.005 3.005 0 0 0-.532.21 2.896 2.896 0 0 0-.8.604c-.017.02-.037.037-.054.056l-.03.037c-.036.042-.07.086-.104.131-.025.033-.05.065-.074.099-.03.043-.058.088-.086.133-.023.037-.047.074-.068.112-.025.043-.046.088-.068.133-.02.04-.041.081-.06.123-.019.044-.035.09-.052.134a2.333 2.333 0 0 0-.087.268c-.012.046-.026.093-.036.14-.01.044-.016.088-.024.133-.009.05-.017.1-.024.152-.005.042-.007.084-.01.127a2.868 2.868 0 0 0-.008.164c0 .016-.003.031-.003.047V22.91a2.917 2.917 0 1 0 5.836 0V11.396l25.94 22.966a3.012 3.012 0 0 0-.388.322L49.63 60.237V41.063a2.917 2.917 0 1 0-5.835 0v3.565H28.72a2.917 2.917 0 1 0 0 5.836h15.074V67.28a2.917 2.917 0 0 0 2.918 2.918h91.904c.096 0 .192-.005.288-.015.045-.004.088-.013.132-.019.05-.007.1-.013.15-.022z"/></g><path fill="#4e342e" d="M79.309 38.811c.208-.208.377-.44.509-.687l10.912 9.662a2.913 2.913 0 0 0 3.822.04l11.12-9.435c.102.148.216.289.347.42l25.553 25.553H53.756zm56.39 21.426zm-25.554-25.553c-.016-.016-.034-.03-.05-.045l19.21-16.299a2.918 2.918 0 0 0-3.775-4.449l-32.825 27.85L54.409 7.835h81.29v52.402zm29.04 35.459c.051-.01.1-.024.15-.037.043-.01.086-.02.127-.033.05-.014.097-.033.144-.05.042-.015.084-.029.126-.046.045-.019.088-.04.132-.061.042-.02.085-.04.127-.062.041-.022.08-.047.121-.071.042-.025.084-.049.124-.076.043-.029.083-.06.125-.092.035-.026.07-.05.105-.078a2.89 2.89 0 0 0 .181-.164l.033-.03.03-.033c.056-.058.11-.117.162-.18.03-.036.056-.074.084-.112.03-.039.06-.076.086-.117.029-.043.054-.088.08-.132.023-.037.047-.074.067-.112.024-.045.045-.092.066-.137.02-.04.04-.08.057-.122.019-.045.033-.09.05-.136.016-.044.033-.088.046-.133.014-.046.024-.093.036-.14.011-.046.025-.09.034-.137.01-.055.017-.11.025-.165.005-.04.013-.078.017-.117a2.91 2.91 0 0 0 .014-.291V4.917A2.917 2.917 0 0 0 138.617 2H46.712c-.025 0-.05.003-.076.003a2.95 2.95 0 0 0-.722.11 3.005 3.005 0 0 0-.532.21 2.896 2.896 0 0 0-.8.604c-.017.02-.037.037-.054.056l-.03.037c-.036.042-.07.086-.104.131-.025.033-.05.065-.074.099-.03.043-.058.088-.086.133-.023.037-.047.074-.068.112-.025.043-.046.088-.068.133-.02.04-.041.081-.06.123-.019.044-.035.09-.052.134a2.333 2.333 0 0 0-.087.268c-.012.046-.026.093-.036.14-.01.044-.016.088-.024.133-.009.05-.017.1-.024.152-.005.042-.007.084-.01.127a2.868 2.868 0 0 0-.008.164c0 .016-.003.031-.003.047V22.91a2.917 2.917 0 1 0 5.836 0V11.396l25.94 22.966a3.012 3.012 0 0 0-.388.322L49.63 60.237V41.063a2.917 2.917 0 1 0-5.835 0v3.565H28.72a2.917 2.917 0 1 0 0 5.836h15.074V67.28a2.917 2.917 0 0 0 2.918 2.918h91.904c.096 0 .192-.005.288-.015.045-.004.088-.013.132-.019.05-.007.1-.013.15-.022z"/><g filter="url(#c)"><path fill="none" d="M9.918 35.227h49.275a2.917 2.917 0 1 0 0-5.835H9.918a2.917 2.917 0 1 0 0 5.835z" mask="url(&quot;#d&quot;)"/><path fill-opacity=".16" d="M9.918 35.227h49.275a2.917 2.917 0 1 0 0-5.835H9.918a2.917 2.917 0 1 0 0 5.835z"/></g><path fill="#3e2723" d="M9.918 35.227h49.275a2.917 2.917 0 1 0 0-5.835H9.918a2.917 2.917 0 1 0 0 5.835z"/><g filter="url(#e)"><path fill="none" d="M15.023 19.15H37.15a2.917 2.917 0 1 0 0-5.836H15.023a2.917 2.917 0 1 0 0 5.835z" mask="url(&quot;#f&quot;)"/><path fill-opacity=".16" d="M15.023 19.15H37.15a2.917 2.917 0 1 0 0-5.836H15.023a2.917 2.917 0 1 0 0 5.835z"/></g><path fill="#3e2723" d="M15.023 19.15H37.15a2.917 2.917 0 1 0 0-5.836H15.023a2.917 2.917 0 1 0 0 5.835z"/><g filter="url(#g)"><path fill="none" d="M31.313 56.948H9.918a2.917 2.917 0 1 0 0 5.835h21.395a2.917 2.917 0 1 0 0-5.835z" mask="url(&quot;#h&quot;)"/><path fill-opacity=".16" d="M31.313 56.948H9.918a2.917 2.917 0 1 0 0 5.835h21.395a2.917 2.917 0 1 0 0-5.835z"/></g><path fill="#3e2723" d="M31.313 56.948H9.918a2.917 2.917 0 1 0 0 5.835h21.395a2.917 2.917 0 1 0 0-5.835z"/></svg>