<svg xmlns="http://www.w3.org/2000/svg" width="11" height="28" viewBox="0 0 11 28"><path fill="#4e342e" d="M3.134 8.95c-1.104 3.461-1.104 6.923 0 10.385h3.462c.491 0 .823.209.995.626a12.435 12.435 0 0 0 2.357 3.241c.22.221.331.479.331.773 0 .295-.11.553-.331.774L7.186 27.51a1.06 1.06 0 0 1-.774.331 1.06 1.06 0 0 1-.773-.331C1.956 23.828.102 19.37.078 14.142.102 8.912 1.956 4.456 5.638.773a1.06 1.06 0 0 1 .774-.331c.295 0 .553.11.774.331l2.762 2.763c.22.22.331.478.331.773 0 .295-.11.552-.331.773A12.435 12.435 0 0 0 7.59 8.323c-.221.418-.553.626-.995.626z" opacity=".87"/></svg>