<svg xmlns="http://www.w3.org/2000/svg" width="88" height="88" viewBox="0 0 88 88"><defs><mask id="b" width="2" height="2" x="-1" y="-1"><path fill="#fff" d="M19 3h50v50H19z"/><path d="M19 28C19 14.193 30.193 3 44 3s25 11.193 25 25-11.193 25-25 25-25-11.193-25-25z"/></mask><filter id="a" width="118" height="134" x="-15" y="-31" filterUnits="userSpaceOnUse"><feOffset dy="16" in="SourceGraphic" result="FeOffset1043Out"/><feGaussianBlur in="FeOffset1043Out" result="FeGaussianBlur1044Out" stdDeviation="9.6 9.6"/></filter></defs><g filter="url(#a)"><path fill="none" d="M19 28C19 14.193 30.193 3 44 3s25 11.193 25 25-11.193 25-25 25-25-11.193-25-25z" mask="url(&quot;#b&quot;)"/><path fill-opacity=".16" d="M19 28C19 14.193 30.193 3 44 3s25 11.193 25 25-11.193 25-25 25-25-11.193-25-25z"/></g><path fill="#4e342e" d="M19 28C19 14.193 30.193 3 44 3s25 11.193 25 25-11.193 25-25 25-25-11.193-25-25z"/><path fill="#fff" d="M24 28c0-11.046 8.954-20 20-20s20 8.954 20 20-8.954 20-20 20-20-8.954-20-20z"/><path fill="#4e342e" d="M34 28c0-5.523 4.477-10 10-10s10 4.477 10 10-4.477 10-10 10-10-4.477-10-10z"/></svg>