<svg xmlns="http://www.w3.org/2000/svg" width="103" height="104" viewBox="0 0 103 104"><defs><mask id="b" width="2" height="2" x="-1" y="-1"><path fill="#fff" d="M8 2h88v88H8z"/><path d="M90.252 84.484a1.005 1.005 0 0 1-1.08.25L70.59 78.35a2.605 2.605 0 0 0-2.062.161 37.787 37.787 0 0 1-17.549 4.357c-20.494.033-37.446-16.612-37.77-37.103-.164-10.309 3.758-19.998 11.041-27.282C31.534 11.2 41.22 7.278 51.532 7.441c20.49.325 37.135 17.269 37.103 37.77a37.791 37.791 0 0 1-4.357 17.55 2.602 2.602 0 0 0-.16 2.062l6.384 18.58c.185.539-.077.909-.25 1.081zm5.171-2.771l-6.025-17.535a43.05 43.05 0 0 0 4.44-18.959c.018-11.314-4.36-22.012-12.326-30.123C73.544 6.983 62.926 2.417 51.615 2.238a42.648 42.648 0 0 0-17.1 3.241 42.753 42.753 0 0 0-13.944 9.324 42.747 42.747 0 0 0-9.323 13.943c-2.245 5.424-3.336 11.178-3.242 17.1.179 11.312 4.745 21.93 12.858 29.898 8.095 7.951 18.766 12.327 30.056 12.327h.067a43.06 43.06 0 0 0 18.958-4.44l17.536 6.024a6.208 6.208 0 0 0 6.451-1.492 6.209 6.209 0 0 0 1.491-6.45z"/></mask><filter id="a" width="128" height="134" x="-12" y="-18" filterUnits="userSpaceOnUse"><feOffset dy="6" in="SourceGraphic" result="FeOffset1449Out"/><feGaussianBlur in="FeOffset1449Out" result="FeGaussianBlur1450Out" stdDeviation="4 4"/></filter><mask id="d" width="2" height="2" x="-1" y="-1"><path fill="#fff" d="M47 64h7v6h-7z"/><path d="M50.497 64.415c-1.361 0-2.665 1.197-2.602 2.602.063 1.41 1.143 2.602 2.602 2.602 1.36 0 2.665-1.197 2.602-2.602-.063-1.41-1.143-2.602-2.602-2.602z"/></mask><filter id="c" width="47" height="52" x="27" y="44" filterUnits="userSpaceOnUse"><feOffset dy="6" in="SourceGraphic" result="FeOffset1469Out"/><feGaussianBlur in="FeOffset1469Out" result="FeGaussianBlur1470Out" stdDeviation="4 4"/></filter><mask id="f" width="2" height="2" x="-1" y="-1"><path fill="#fff" d="M37 24h27v37H37z"/><path d="M50.497 24.118c-7.138 0-12.945 5.807-12.945 12.945a2.602 2.602 0 0 0 5.204 0c0-4.268 3.472-7.741 7.74-7.741 4.27 0 7.742 3.473 7.742 7.741s-3.473 7.741-7.741 7.741a2.602 2.602 0 0 0-2.602 2.602v10.612a2.602 2.602 0 0 0 5.204 0v-8.273c5.895-1.207 10.343-6.435 10.343-12.682 0-7.138-5.807-12.945-12.945-12.945z"/></mask><filter id="e" width="67" height="83" x="17" y="4" filterUnits="userSpaceOnUse"><feOffset dy="6" in="SourceGraphic" result="FeOffset1489Out"/><feGaussianBlur in="FeOffset1489Out" result="FeGaussianBlur1490Out" stdDeviation="4 4"/></filter></defs><g filter="url(#a)"><path fill="none" d="M90.252 84.484a1.005 1.005 0 0 1-1.08.25L70.59 78.35a2.605 2.605 0 0 0-2.062.161 37.787 37.787 0 0 1-17.549 4.357c-20.494.033-37.446-16.612-37.77-37.103-.164-10.309 3.758-19.998 11.041-27.282C31.534 11.2 41.22 7.278 51.532 7.441c20.49.325 37.135 17.269 37.103 37.77a37.791 37.791 0 0 1-4.357 17.55 2.602 2.602 0 0 0-.16 2.062l6.384 18.58c.185.539-.077.909-.25 1.081zm5.171-2.771l-6.025-17.535a43.05 43.05 0 0 0 4.44-18.959c.018-11.314-4.36-22.012-12.326-30.123C73.544 6.983 62.926 2.417 51.615 2.238a42.648 42.648 0 0 0-17.1 3.241 42.753 42.753 0 0 0-13.944 9.324 42.747 42.747 0 0 0-9.323 13.943c-2.245 5.424-3.336 11.178-3.242 17.1.179 11.312 4.745 21.93 12.858 29.898 8.095 7.951 18.766 12.327 30.056 12.327h.067a43.06 43.06 0 0 0 18.958-4.44l17.536 6.024a6.208 6.208 0 0 0 6.451-1.492 6.209 6.209 0 0 0 1.491-6.45z" mask="url(&quot;#b&quot;)"/><path fill-opacity=".16" d="M90.252 84.484a1.005 1.005 0 0 1-1.08.25L70.59 78.35a2.605 2.605 0 0 0-2.062.161 37.787 37.787 0 0 1-17.549 4.357c-20.494.033-37.446-16.612-37.77-37.103-.164-10.309 3.758-19.998 11.041-27.282C31.534 11.2 41.22 7.278 51.532 7.441c20.49.325 37.135 17.269 37.103 37.77a37.791 37.791 0 0 1-4.357 17.55 2.602 2.602 0 0 0-.16 2.062l6.384 18.58c.185.539-.077.909-.25 1.081zm5.171-2.771l-6.025-17.535a43.05 43.05 0 0 0 4.44-18.959c.018-11.314-4.36-22.012-12.326-30.123C73.544 6.983 62.926 2.417 51.615 2.238a42.648 42.648 0 0 0-17.1 3.241 42.753 42.753 0 0 0-13.944 9.324 42.747 42.747 0 0 0-9.323 13.943c-2.245 5.424-3.336 11.178-3.242 17.1.179 11.312 4.745 21.93 12.858 29.898 8.095 7.951 18.766 12.327 30.056 12.327h.067a43.06 43.06 0 0 0 18.958-4.44l17.536 6.024a6.208 6.208 0 0 0 6.451-1.492 6.209 6.209 0 0 0 1.491-6.45z"/></g><path fill="#4e342e" d="M90.252 84.484a1.005 1.005 0 0 1-1.08.25L70.59 78.35a2.605 2.605 0 0 0-2.062.161 37.787 37.787 0 0 1-17.549 4.357c-20.494.033-37.446-16.612-37.77-37.103-.164-10.309 3.758-19.998 11.041-27.282C31.534 11.2 41.22 7.278 51.532 7.441c20.49.325 37.135 17.269 37.103 37.77a37.791 37.791 0 0 1-4.357 17.55 2.602 2.602 0 0 0-.16 2.062l6.384 18.58c.185.539-.077.909-.25 1.081zm5.171-2.771l-6.025-17.535a43.05 43.05 0 0 0 4.44-18.959c.018-11.314-4.36-22.012-12.326-30.123C73.544 6.983 62.926 2.417 51.615 2.238a42.648 42.648 0 0 0-17.1 3.241 42.753 42.753 0 0 0-13.944 9.324 42.747 42.747 0 0 0-9.323 13.943c-2.245 5.424-3.336 11.178-3.242 17.1.179 11.312 4.745 21.93 12.858 29.898 8.095 7.951 18.766 12.327 30.056 12.327h.067a43.06 43.06 0 0 0 18.958-4.44l17.536 6.024a6.208 6.208 0 0 0 6.451-1.492 6.209 6.209 0 0 0 1.491-6.45z"/><g filter="url(#c)"><path fill="none" d="M50.497 64.415c-1.361 0-2.665 1.197-2.602 2.602.063 1.41 1.143 2.602 2.602 2.602 1.36 0 2.665-1.197 2.602-2.602-.063-1.41-1.143-2.602-2.602-2.602z" mask="url(&quot;#d&quot;)"/><path fill-opacity=".16" d="M50.497 64.415c-1.361 0-2.665 1.197-2.602 2.602.063 1.41 1.143 2.602 2.602 2.602 1.36 0 2.665-1.197 2.602-2.602-.063-1.41-1.143-2.602-2.602-2.602z"/></g><path fill="#4e342e" d="M50.497 64.415c-1.361 0-2.665 1.197-2.602 2.602.063 1.41 1.143 2.602 2.602 2.602 1.36 0 2.665-1.197 2.602-2.602-.063-1.41-1.143-2.602-2.602-2.602z"/><g filter="url(#e)"><path fill="none" d="M50.497 24.118c-7.138 0-12.945 5.807-12.945 12.945a2.602 2.602 0 0 0 5.204 0c0-4.268 3.472-7.741 7.74-7.741 4.27 0 7.742 3.473 7.742 7.741s-3.473 7.741-7.741 7.741a2.602 2.602 0 0 0-2.602 2.602v10.612a2.602 2.602 0 0 0 5.204 0v-8.273c5.895-1.207 10.343-6.435 10.343-12.682 0-7.138-5.807-12.945-12.945-12.945z" mask="url(&quot;#f&quot;)"/><path fill-opacity=".16" d="M50.497 24.118c-7.138 0-12.945 5.807-12.945 12.945a2.602 2.602 0 0 0 5.204 0c0-4.268 3.472-7.741 7.74-7.741 4.27 0 7.742 3.473 7.742 7.741s-3.473 7.741-7.741 7.741a2.602 2.602 0 0 0-2.602 2.602v10.612a2.602 2.602 0 0 0 5.204 0v-8.273c5.895-1.207 10.343-6.435 10.343-12.682 0-7.138-5.807-12.945-12.945-12.945z"/></g><path fill="#4e342e" d="M50.497 24.118c-7.138 0-12.945 5.807-12.945 12.945a2.602 2.602 0 0 0 5.204 0c0-4.268 3.472-7.741 7.74-7.741 4.27 0 7.742 3.473 7.742 7.741s-3.473 7.741-7.741 7.741a2.602 2.602 0 0 0-2.602 2.602v10.612a2.602 2.602 0 0 0 5.204 0v-8.273c5.895-1.207 10.343-6.435 10.343-12.682 0-7.138-5.807-12.945-12.945-12.945z"/></svg>