<svg xmlns="http://www.w3.org/2000/svg" width="34" height="36" viewBox="0 0 34 36"><path fill="#adadad" d="M28.233 25.3c3.022 0 5.29 2.7 5.29 5.58s-2.456 5.22-5.479 5.22c-3.022 0-5.477-2.34-5.477-5.22 0-.54.188-.9.188-1.26l-13.41-7.56c-.945.9-2.267 1.44-3.778 1.44C2.356 23.5-.1 21.16-.1 18.1c0-3.06 2.456-5.4 5.667-5.4 1.51 0 2.833.54 3.777 1.44l13.411-7.38c-.188-.36-.188-.9-.188-1.26 0-3.06 2.455-5.4 5.666-5.4C31.444.1 33.9 2.44 33.9 5.5c0 3.06-2.456 5.4-5.667 5.4-1.51 0-2.833-.54-3.778-1.44l-13.41 7.38c.188.36.188.9.188 1.26s0 .9-.189 1.26l13.411 7.38c1.134-.9 2.267-1.44 3.778-1.44zM26.344 5.32c0 1.08.756 1.8 1.89 1.8 1.133 0 1.888-.72 1.888-1.8s-.755-1.8-1.889-1.8c-.944 0-1.889.72-1.889 1.8zM7.455 17.92c0-.9-.944-1.8-1.888-1.8-.945 0-1.89.9-1.89 1.8s.945 1.8 1.89 1.8c1.133 0 1.888-.9 1.888-1.8zm22.667 12.6c0-.9-.755-1.8-1.889-1.8-1.133 0-1.889.9-1.889 1.8s.756 1.8 1.89 1.8c1.133 0 1.888-.9 1.888-1.8z"/></svg>