<svg xmlns="http://www.w3.org/2000/svg" width="25" height="25" viewBox="0 0 25 25"><path fill="#4e342e" d="M12.337 11.104a1.848 1.848 0 0 1-1.85-1.85c0-1.025.826-1.852 1.85-1.852s1.851.827 1.851 1.851-.827 1.85-1.85 1.85zm0-6.169A4.307 4.307 0 0 0 8.02 9.253a4.307 4.307 0 0 0 4.318 4.318 4.307 4.307 0 0 0 4.318-4.318 4.307 4.307 0 0 0-4.318-4.318zm7.847 13.361c-1.764-2.146-6.045-2.874-7.847-2.874-1.8 0-6.082.728-7.846 2.874a9.808 9.808 0 0 1-2.024-5.959c0-5.44 4.43-9.87 9.87-9.87 5.441 0 9.87 4.43 9.87 9.87a9.808 9.808 0 0 1-2.023 5.96zm-13.929 1.79c.53-1.111 3.763-2.197 6.082-2.197 2.32 0 5.565 1.086 6.083 2.196a9.738 9.738 0 0 1-6.083 2.122 9.738 9.738 0 0 1-6.082-2.122zM12.337 0C5.527 0 0 5.527 0 12.337s5.527 12.338 12.337 12.338 12.338-5.527 12.338-12.338C24.675 5.527 19.148 0 12.337 0z"/></svg>