<svg xmlns="http://www.w3.org/2000/svg" width="66" height="66" viewBox="0 0 66 66"><defs><mask id="b" width="2" height="2" x="-1" y="-1"><path fill="#fff" d="M16 21h32v15H16z"/><path d="M47.238 34.31a1.611 1.611 0 0 0-.104-.16c-.532-.773-1.548-1.721-3.048-2.846l-.032-.025-.016-.013-.016-.013h-.016c-.681-.523-1.112-.875-1.293-1.056-.33-.343-.404-.69-.224-1.043.128-.266.607-.827 1.437-1.686.436-.455.782-.82 1.037-1.094 1.841-1.974 2.64-3.235 2.395-3.785l-.095-.128c-.064-.077-.23-.148-.495-.213-.266-.064-.607-.075-1.022-.032l-4.597.026a.735.735 0 0 0-.32.006l-.207.04-.08.031-.063.04a.86.86 0 0 0-.335.36 19.548 19.548 0 0 1-1.708 2.896c-.394.532-.756.993-1.086 1.384-.33.39-.606.678-.83.862a5.555 5.555 0 0 1-.606.444c-.181.112-.32.16-.415.142a14.062 14.062 0 0 1-.272-.052.96.96 0 0 1-.359-.315 1.22 1.22 0 0 1-.183-.502 4.491 4.491 0 0 1-.056-.522 8.79 8.79 0 0 1 .008-.618c.011-.266.016-.446.016-.54 0-.326.008-.68.024-1.062s.029-.685.04-.908c.01-.223.016-.459.016-.708 0-.249-.02-.444-.056-.586a1.745 1.745 0 0 0-.167-.412.76.76 0 0 0-.328-.309 2.115 2.115 0 0 0-.534-.173c-.564-.103-1.283-.159-2.155-.168-1.98-.017-3.251.086-3.815.31a2.147 2.147 0 0 0-.607.385c-.191.19-.218.292-.08.31.639.077 1.091.261 1.357.553l.096.154c.074.112.149.31.223.593.075.283.123.596.144.94.053.626.053 1.162 0 1.608-.053.447-.104.794-.152 1.043-.048.25-.12.45-.215.605-.096.155-.16.25-.192.283a.257.257 0 0 1-.08.065 1.453 1.453 0 0 1-.43.064c-.15 0-.33-.06-.543-.18a3.65 3.65 0 0 1-.662-.496 6.86 6.86 0 0 1-.775-.882 14.738 14.738 0 0 1-.894-1.338l-.255-.374c-.16-.24-.378-.59-.654-1.049-.277-.46-.522-.903-.734-1.332a.895.895 0 0 0-.384-.412l-.08-.04a1.196 1.196 0 0 0-.255-.108 2.017 2.017 0 0 0-.367-.084l-4.373.026c-.447 0-.75.081-.91.244l-.064.077c-.032.043-.048.112-.048.206 0 .095.032.21.096.348a39.567 39.567 0 0 0 2.083 3.502c.75 1.124 1.402 2.03 1.955 2.716a33.06 33.06 0 0 0 1.692 1.944c.574.609.955 1 1.141 1.171.186.172.333.3.439.386l.4.31c.255.205.63.452 1.124.74.495.287 1.043.57 1.644.85.602.278 1.301.505 2.1.681a8.921 8.921 0 0 0 2.33.213h1.836c.372-.026.654-.12.846-.283l.063-.065a.772.772 0 0 0 .12-.238c.037-.107.056-.225.056-.354a3.462 3.462 0 0 1 .103-.997c.08-.296.17-.52.272-.67.101-.15.216-.277.343-.38.127-.102.218-.165.272-.186.053-.022.095-.036.127-.045.255-.069.556-.002.902.2.346.201.67.45.974.746.303.297.668.629 1.093.998.426.369.798.643 1.117.824l.32.154c.213.103.49.198.83.284.34.085.638.107.893.064l4.087-.051c.404 0 .718-.054.941-.161.224-.108.356-.226.4-.355a.81.81 0 0 0 .007-.437 1.38 1.38 0 0 0-.112-.341z"/></mask><filter id="a" width="72" height="61" x="-4" y="1" filterUnits="userSpaceOnUse"><feOffset dy="6" in="SourceGraphic" result="FeOffset1299Out"/><feGaussianBlur in="FeOffset1299Out" result="FeGaussianBlur1300Out" stdDeviation="4 4"/></filter><mask id="d" width="2" height="2" x="-1" y="-1"><path fill="#fff" d="M8 1h50v51H8z"/><path d="M33 47.79c-11.65 0-21.094-9.444-21.094-21.094S21.35 5.602 33 5.602s21.094 9.444 21.094 21.094S44.65 47.79 33 47.79zm0-46.094c-13.808 0-25 11.192-25 25s11.192 25 25 25 25-11.192 25-25-11.192-25-25-25z"/></mask><filter id="c" width="90" height="97" x="-12" y="-19" filterUnits="userSpaceOnUse"><feOffset dy="6" in="SourceGraphic" result="FeOffset1315Out"/><feGaussianBlur in="FeOffset1315Out" result="FeGaussianBlur1316Out" stdDeviation="4 4"/></filter></defs><g filter="url(#a)"><path fill="none" d="M47.238 34.31a1.611 1.611 0 0 0-.104-.16c-.532-.773-1.548-1.721-3.048-2.846l-.032-.025-.016-.013-.016-.013h-.016c-.681-.523-1.112-.875-1.293-1.056-.33-.343-.404-.69-.224-1.043.128-.266.607-.827 1.437-1.686.436-.455.782-.82 1.037-1.094 1.841-1.974 2.64-3.235 2.395-3.785l-.095-.128c-.064-.077-.23-.148-.495-.213-.266-.064-.607-.075-1.022-.032l-4.597.026a.735.735 0 0 0-.32.006l-.207.04-.08.031-.063.04a.86.86 0 0 0-.335.36 19.548 19.548 0 0 1-1.708 2.896c-.394.532-.756.993-1.086 1.384-.33.39-.606.678-.83.862a5.555 5.555 0 0 1-.606.444c-.181.112-.32.16-.415.142a14.062 14.062 0 0 1-.272-.052.96.96 0 0 1-.359-.315 1.22 1.22 0 0 1-.183-.502 4.491 4.491 0 0 1-.056-.522 8.79 8.79 0 0 1 .008-.618c.011-.266.016-.446.016-.54 0-.326.008-.68.024-1.062s.029-.685.04-.908c.01-.223.016-.459.016-.708 0-.249-.02-.444-.056-.586a1.745 1.745 0 0 0-.167-.412.76.76 0 0 0-.328-.309 2.115 2.115 0 0 0-.534-.173c-.564-.103-1.283-.159-2.155-.168-1.98-.017-3.251.086-3.815.31a2.147 2.147 0 0 0-.607.385c-.191.19-.218.292-.08.31.639.077 1.091.261 1.357.553l.096.154c.074.112.149.31.223.593.075.283.123.596.144.94.053.626.053 1.162 0 1.608-.053.447-.104.794-.152 1.043-.048.25-.12.45-.215.605-.096.155-.16.25-.192.283a.257.257 0 0 1-.08.065 1.453 1.453 0 0 1-.43.064c-.15 0-.33-.06-.543-.18a3.65 3.65 0 0 1-.662-.496 6.86 6.86 0 0 1-.775-.882 14.738 14.738 0 0 1-.894-1.338l-.255-.374c-.16-.24-.378-.59-.654-1.049-.277-.46-.522-.903-.734-1.332a.895.895 0 0 0-.384-.412l-.08-.04a1.196 1.196 0 0 0-.255-.108 2.017 2.017 0 0 0-.367-.084l-4.373.026c-.447 0-.75.081-.91.244l-.064.077c-.032.043-.048.112-.048.206 0 .095.032.21.096.348a39.567 39.567 0 0 0 2.083 3.502c.75 1.124 1.402 2.03 1.955 2.716a33.06 33.06 0 0 0 1.692 1.944c.574.609.955 1 1.141 1.171.186.172.333.3.439.386l.4.31c.255.205.63.452 1.124.74.495.287 1.043.57 1.644.85.602.278 1.301.505 2.1.681a8.921 8.921 0 0 0 2.33.213h1.836c.372-.026.654-.12.846-.283l.063-.065a.772.772 0 0 0 .12-.238c.037-.107.056-.225.056-.354a3.462 3.462 0 0 1 .103-.997c.08-.296.17-.52.272-.67.101-.15.216-.277.343-.38.127-.102.218-.165.272-.186.053-.022.095-.036.127-.045.255-.069.556-.002.902.2.346.201.67.45.974.746.303.297.668.629 1.093.998.426.369.798.643 1.117.824l.32.154c.213.103.49.198.83.284.34.085.638.107.893.064l4.087-.051c.404 0 .718-.054.941-.161.224-.108.356-.226.4-.355a.81.81 0 0 0 .007-.437 1.38 1.38 0 0 0-.112-.341z" mask="url(&quot;#b&quot;)"/><path fill-opacity=".16" d="M47.238 34.31a1.611 1.611 0 0 0-.104-.16c-.532-.773-1.548-1.721-3.048-2.846l-.032-.025-.016-.013-.016-.013h-.016c-.681-.523-1.112-.875-1.293-1.056-.33-.343-.404-.69-.224-1.043.128-.266.607-.827 1.437-1.686.436-.455.782-.82 1.037-1.094 1.841-1.974 2.64-3.235 2.395-3.785l-.095-.128c-.064-.077-.23-.148-.495-.213-.266-.064-.607-.075-1.022-.032l-4.597.026a.735.735 0 0 0-.32.006l-.207.04-.08.031-.063.04a.86.86 0 0 0-.335.36 19.548 19.548 0 0 1-1.708 2.896c-.394.532-.756.993-1.086 1.384-.33.39-.606.678-.83.862a5.555 5.555 0 0 1-.606.444c-.181.112-.32.16-.415.142a14.062 14.062 0 0 1-.272-.052.96.96 0 0 1-.359-.315 1.22 1.22 0 0 1-.183-.502 4.491 4.491 0 0 1-.056-.522 8.79 8.79 0 0 1 .008-.618c.011-.266.016-.446.016-.54 0-.326.008-.68.024-1.062s.029-.685.04-.908c.01-.223.016-.459.016-.708 0-.249-.02-.444-.056-.586a1.745 1.745 0 0 0-.167-.412.76.76 0 0 0-.328-.309 2.115 2.115 0 0 0-.534-.173c-.564-.103-1.283-.159-2.155-.168-1.98-.017-3.251.086-3.815.31a2.147 2.147 0 0 0-.607.385c-.191.19-.218.292-.08.31.639.077 1.091.261 1.357.553l.096.154c.074.112.149.31.223.593.075.283.123.596.144.94.053.626.053 1.162 0 1.608-.053.447-.104.794-.152 1.043-.048.25-.12.45-.215.605-.096.155-.16.25-.192.283a.257.257 0 0 1-.08.065 1.453 1.453 0 0 1-.43.064c-.15 0-.33-.06-.543-.18a3.65 3.65 0 0 1-.662-.496 6.86 6.86 0 0 1-.775-.882 14.738 14.738 0 0 1-.894-1.338l-.255-.374c-.16-.24-.378-.59-.654-1.049-.277-.46-.522-.903-.734-1.332a.895.895 0 0 0-.384-.412l-.08-.04a1.196 1.196 0 0 0-.255-.108 2.017 2.017 0 0 0-.367-.084l-4.373.026c-.447 0-.75.081-.91.244l-.064.077c-.032.043-.048.112-.048.206 0 .095.032.21.096.348a39.567 39.567 0 0 0 2.083 3.502c.75 1.124 1.402 2.03 1.955 2.716a33.06 33.06 0 0 0 1.692 1.944c.574.609.955 1 1.141 1.171.186.172.333.3.439.386l.4.31c.255.205.63.452 1.124.74.495.287 1.043.57 1.644.85.602.278 1.301.505 2.1.681a8.921 8.921 0 0 0 2.33.213h1.836c.372-.026.654-.12.846-.283l.063-.065a.772.772 0 0 0 .12-.238c.037-.107.056-.225.056-.354a3.462 3.462 0 0 1 .103-.997c.08-.296.17-.52.272-.67.101-.15.216-.277.343-.38.127-.102.218-.165.272-.186.053-.022.095-.036.127-.045.255-.069.556-.002.902.2.346.201.67.45.974.746.303.297.668.629 1.093.998.426.369.798.643 1.117.824l.32.154c.213.103.49.198.83.284.34.085.638.107.893.064l4.087-.051c.404 0 .718-.054.941-.161.224-.108.356-.226.4-.355a.81.81 0 0 0 .007-.437 1.38 1.38 0 0 0-.112-.341z"/></g><path fill="#4e342e" d="M47.238 34.31a1.611 1.611 0 0 0-.104-.16c-.532-.773-1.548-1.721-3.048-2.846l-.032-.025-.016-.013-.016-.013h-.016c-.681-.523-1.112-.875-1.293-1.056-.33-.343-.404-.69-.224-1.043.128-.266.607-.827 1.437-1.686.436-.455.782-.82 1.037-1.094 1.841-1.974 2.64-3.235 2.395-3.785l-.095-.128c-.064-.077-.23-.148-.495-.213-.266-.064-.607-.075-1.022-.032l-4.597.026a.735.735 0 0 0-.32.006l-.207.04-.08.031-.063.04a.86.86 0 0 0-.335.36 19.548 19.548 0 0 1-1.708 2.896c-.394.532-.756.993-1.086 1.384-.33.39-.606.678-.83.862a5.555 5.555 0 0 1-.606.444c-.181.112-.32.16-.415.142a14.062 14.062 0 0 1-.272-.052.96.96 0 0 1-.359-.315 1.22 1.22 0 0 1-.183-.502 4.491 4.491 0 0 1-.056-.522 8.79 8.79 0 0 1 .008-.618c.011-.266.016-.446.016-.54 0-.326.008-.68.024-1.062s.029-.685.04-.908c.01-.223.016-.459.016-.708 0-.249-.02-.444-.056-.586a1.745 1.745 0 0 0-.167-.412.76.76 0 0 0-.328-.309 2.115 2.115 0 0 0-.534-.173c-.564-.103-1.283-.159-2.155-.168-1.98-.017-3.251.086-3.815.31a2.147 2.147 0 0 0-.607.385c-.191.19-.218.292-.08.31.639.077 1.091.261 1.357.553l.096.154c.074.112.149.31.223.593.075.283.123.596.144.94.053.626.053 1.162 0 1.608-.053.447-.104.794-.152 1.043-.048.25-.12.45-.215.605-.096.155-.16.25-.192.283a.257.257 0 0 1-.08.065 1.453 1.453 0 0 1-.43.064c-.15 0-.33-.06-.543-.18a3.65 3.65 0 0 1-.662-.496 6.86 6.86 0 0 1-.775-.882 14.738 14.738 0 0 1-.894-1.338l-.255-.374c-.16-.24-.378-.59-.654-1.049-.277-.46-.522-.903-.734-1.332a.895.895 0 0 0-.384-.412l-.08-.04a1.196 1.196 0 0 0-.255-.108 2.017 2.017 0 0 0-.367-.084l-4.373.026c-.447 0-.75.081-.91.244l-.064.077c-.032.043-.048.112-.048.206 0 .095.032.21.096.348a39.567 39.567 0 0 0 2.083 3.502c.75 1.124 1.402 2.03 1.955 2.716a33.06 33.06 0 0 0 1.692 1.944c.574.609.955 1 1.141 1.171.186.172.333.3.439.386l.4.31c.255.205.63.452 1.124.74.495.287 1.043.57 1.644.85.602.278 1.301.505 2.1.681a8.921 8.921 0 0 0 2.33.213h1.836c.372-.026.654-.12.846-.283l.063-.065a.772.772 0 0 0 .12-.238c.037-.107.056-.225.056-.354a3.462 3.462 0 0 1 .103-.997c.08-.296.17-.52.272-.67.101-.15.216-.277.343-.38.127-.102.218-.165.272-.186.053-.022.095-.036.127-.045.255-.069.556-.002.902.2.346.201.67.45.974.746.303.297.668.629 1.093.998.426.369.798.643 1.117.824l.32.154c.213.103.49.198.83.284.34.085.638.107.893.064l4.087-.051c.404 0 .718-.054.941-.161.224-.108.356-.226.4-.355a.81.81 0 0 0 .007-.437 1.38 1.38 0 0 0-.112-.341z"/><g filter="url(#c)"><path fill="none" d="M33 47.79c-11.65 0-21.094-9.444-21.094-21.094S21.35 5.602 33 5.602s21.094 9.444 21.094 21.094S44.65 47.79 33 47.79zm0-46.094c-13.808 0-25 11.192-25 25s11.192 25 25 25 25-11.192 25-25-11.192-25-25-25z" mask="url(&quot;#d&quot;)"/><path fill-opacity=".16" d="M33 47.79c-11.65 0-21.094-9.444-21.094-21.094S21.35 5.602 33 5.602s21.094 9.444 21.094 21.094S44.65 47.79 33 47.79zm0-46.094c-13.808 0-25 11.192-25 25s11.192 25 25 25 25-11.192 25-25-11.192-25-25-25z"/></g><path fill="#4e342e" d="M33 47.79c-11.65 0-21.094-9.444-21.094-21.094S21.35 5.602 33 5.602s21.094 9.444 21.094 21.094S44.65 47.79 33 47.79zm0-46.094c-13.808 0-25 11.192-25 25s11.192 25 25 25 25-11.192 25-25-11.192-25-25-25z"/></svg>