<svg width="24" height="24" viewBox="0 0 24 24" fill="none" xmlns="http://www.w3.org/2000/svg"><rect width="24" height="24" rx="6" fill="#E1E1E1"/><path fill-rule="evenodd" clip-rule="evenodd" d="M11.636 16.53h.981s.297-.032.449-.195c.139-.15.134-.431.134-.431s-.019-1.317.592-1.511c.603-.191 1.377 1.273 2.197 1.836.62.426 1.092.333 1.092.333l2.193-.031s1.148-.071.604-.973c-.044-.074-.317-.667-1.63-1.887-1.377-1.277-1.192-1.07.465-3.278 1.008-1.345 1.412-2.166 1.286-2.518-.12-.334-.863-.246-.863-.246l-2.47.015s-.182-.025-.318.057c-.133.079-.218.265-.218.265s-.39 1.04-.912 1.925c-1.1 1.867-1.54 1.966-1.72 1.85-.417-.27-.313-1.085-.313-1.665 0-1.809.275-2.564-.535-2.759-.268-.065-.466-.108-1.152-.115-.882-.009-1.627.003-2.05.21-.28.137-.497.444-.365.461.163.022.533.1.728.367.254.344.245 1.117.245 1.117s.145 2.13-.34 2.395c-.333.182-.79-.189-1.77-1.883a15.798 15.798 0 0 1-.882-1.827s-.072-.179-.203-.275c-.158-.117-.38-.153-.38-.153l-2.346.015s-.352.01-.482.163c-.115.137-.01.418-.01.418s1.839 4.299 3.919 6.465c1.908 1.987 4.074 1.856 4.074 1.856z" fill="#F7F7F7"/></svg>