<svg height="512pt" fill="#075958" viewBox="0 0 512 512" width="512pt" xmlns="http://www.w3.org/2000/svg"><path d="M90 392h332V121H90zm30-30V211h272v151zm272-181h-61v-30h61zm-91-30v30H120v-30zm0 0"/><path d="M90 422H60v-91H30v91H0v90h90v-30h91v-30H90zm-30 60H30v-30h30zM422 30h-91v30h91v30h30v91h30V90h30V0h-90zm30 0h30v30h-30zM0 0v90h30v91h30V90h30V60h91V30H90V0zm60 60H30V30h30zM30 271h30v30H30zm181 181h30v30h-30zm60 0h30v30h-30zM30 211h30v30H30zm422 0h30v30h-30zm0 60h30v30h-30zM211 30h30v30h-30zm60 0h30v30h-30zm211 301h-30v91h-30v30h-91v30h91v30h90v-90h-30zm0 151h-30v-30h30zm0 0"/></svg>