<svg xmlns="http://www.w3.org/2000/svg" fill="#fff" viewBox="0 0 512 512" width="512" height="512"><path d="M76 169c5.522 0 10-4.478 10-10v-10h50c5.522 0 10-4.478 10-10s-4.478-10-10-10H86v-10c0-5.522-4.478-10-10-10s-10 4.478-10 10v40c0 5.522 4.478 10 10 10zm300-20h50v10c0 5.522 4.478 10 10 10s10-4.478 10-10v-40c0-5.522-4.478-10-10-10s-10 4.478-10 10v10h-50c-5.522 0-10 4.478-10 10s4.478 10 10 10z"/><path d="M512 320V30c0-5.522-4.478-10-10-10H10C4.478 20 0 24.478 0 30v290c0 5.522 4.478 10 10 10h26.125l-13.333 40H10c-5.522 0-10 4.478-10 10s4.478 10 10 10h100c5.522 0 10-4.478 10-10s-4.478-10-10-10H93.875l13.333-40H136v30c0 5.522 4.478 10 10 10v50c0 5.522 4.478 10 10 10h70v10c0 5.522 4.478 10 10 10h10v32c0 5.522 4.478 10 10 10s10-4.478 10-10v-32h10c5.522 0 10-4.478 10-10v-10h70c5.522 0 10-4.478 10-10v-50c5.522 0 10-4.478 10-10v-30h28.792l13.333 40H402c-5.522 0-10 4.478-10 10s4.478 10 10 10h100c5.522 0 10-4.478 10-10s-4.478-10-10-10h-12.792l-13.333-40H502c5.522 0 10-4.478 10-10zM72.792 370H43.874l13.334-40h28.918l-13.334 40zM136 310H20v-20h116v20zm130 120h-20v-20h20v20zm80-20h-60v-10c0-5.522-4.478-10-10-10h-40c-5.522 0-10 4.478-10 10v10h-60v-40h180v40zm-190-60v-80h20v80h-20zm100-170c5.51 0 10-4.49 10-10v-20h22.177L316 262.222V310H196v-48.273L223.815 150H246v20c0 5.51 4.49 10 10 10zm60 150v20H196v-20h120zm40 20h-20v-80h20v80zm83.208 20l-13.334-40h28.918l13.334 40h-28.918zM492 310H376v-20h116v20zm0-40H376v-10c0-5.522-4.478-10-10-10h-32.425l-27.869-112.406A10 10 0 0 0 296 130h-80a10 10 0 0 0-9.704 7.584L178.309 250H146c-5.522 0-10 4.478-10 10v10H20V40h472v230z"/><path d="M256 240c-5.51 0-10 4.49-10 10v30c0 5.51 4.49 10 10 10s10-4.49 10-10v-30c0-5.51-4.49-10-10-10zm0-20c5.51 0 10-4.49 10-10s-4.49-10-10-10-10 4.49-10 10 4.49 10 10 10zM80 200c0 5.51 4.49 10 10 10h60c5.51 0 10-4.49 10-10s-4.49-10-10-10H90c-5.51 0-10 4.49-10 10zm-30 10c5.51 0 10-4.49 10-10s-4.49-10-10-10-10 4.49-10 10 4.49 10 10 10zm0 40h60c5.522 0 10-4.478 10-10s-4.478-10-10-10H50c-5.522 0-10 4.478-10 10s4.478 10 10 10zm312-40h60c5.51 0 10-4.49 10-10 0-5.521-4.49-10-10-10h-60c-5.51 0-10 4.479-10 10 0 5.51 4.49 10 10 10zm100 0c5.51 0 10-4.49 10-10 0-5.521-4.49-10-10-10s-10 4.479-10 10c0 5.51 4.49 10 10 10zm0 20h-60c-5.522 0-10 4.478-10 10s4.478 10 10 10h60c5.522 0 10-4.478 10-10s-4.478-10-10-10z"/></svg>