<svg xmlns="http://www.w3.org/2000/svg" viewBox="0 0 512 512" fill="#075958"><circle cx="166" cy="316" r="15"/><circle cx="346" cy="316" r="15"/><path d="M256 0C115.041 0 0 115.049 0 256c0 140.959 115.049 256 256 256 140.959 0 256-115.049 256-256C512 115.041 396.951 0 256 0zm0 482C131.383 482 30 380.617 30 256S131.383 30 256 30s226 101.383 226 226-101.383 226-226 226z"/><path d="M256 61C148.355 61 61 148.546 61 256c0 55.287 23.688 108.221 64.99 145.23 6.169 5.528 15.653 5.009 21.182-1.161 5.528-6.17 5.008-15.653-1.161-21.181C114.809 350.929 95.498 312.244 91.703 271H106c8.284 0 15-6.716 15-15s-6.716-15-15-15H91.689c3.102-34.25 16.707-65.512 37.571-90.527l10.068 10.068c5.857 5.857 15.355 5.858 21.213 0 5.858-5.858 5.858-15.355 0-21.213l-10.068-10.068C175.488 108.396 206.75 94.79 241 91.689V106c0 8.284 6.716 15 15 15s15-6.716 15-15V91.689c34.25 3.101 65.512 16.707 90.527 37.571l-10.068 10.068c-5.858 5.858-5.858 15.355 0 21.213 5.857 5.857 15.355 5.858 21.213 0l10.068-10.068c20.864 25.015 34.469 56.277 37.571 90.527H406c-8.284 0-15 6.716-15 15s6.716 14.9 15 14.9h14.297c-3.795 41.244-23.106 80.029-54.307 107.987-6.169 5.529-6.689 15.012-1.161 21.181 5.535 6.176 15.017 6.684 21.182 1.161C427.312 364.221 451 311.287 451 256c0-107.411-87.401-195-195-195z"/><path d="M271 213.58V166c0-8.284-6.716-15-15-15s-15 6.716-15 15v47.58c-17.459 6.192-30 22.865-30 42.42 0 24.813 20.187 45 45 45s45-20.187 45-45c0-19.555-12.541-36.228-30-42.42zM256 271c-8.271 0-15-6.729-15-15s6.729-15 15-15 15 6.729 15 15-6.729 15-15 15zm60 60H196c-8.284 0-15 6.716-15 15v60c0 8.284 6.716 15 15 15h120c8.284 0 15-6.716 15-15v-60c0-8.284-6.716-15-15-15zm-15 60h-90v-30h90v30z"/></svg>