<svg height="682" viewBox="-21 -40 682.66535 682" width="682" xmlns="http://www.w3.org/2000/svg"><path fill="#fff" d="M393.238 511.277v-70.554c0-6.891-5.586-12.477-12.476-12.477-6.887 0-12.477 5.586-12.477 12.477v70.554c-19.101 5.442-33.133 23.04-33.133 43.864 0 25.152 20.457 45.617 45.61 45.617 25.156 0 45.613-20.465 45.613-45.617 0-20.825-14.031-38.422-33.137-43.864zm-12.476 64.528c-11.39 0-20.66-9.274-20.66-20.664s9.27-20.66 20.66-20.66c11.394 0 20.664 9.269 20.664 20.66s-9.27 20.664-20.664 20.664zm0 0"/><path fill="#fff" d="M594.383 390.078c-20.824 0-38.422 14.031-43.863 33.14h-33.208v-109.87h13.004c6.891 0 12.477-5.582 12.477-12.473v-1.328c0-26.598 21.64-48.238 48.234-48.238h2.692a12.48 12.48 0 0 0 12.227-14.965c-12.329-60.52-42.84-114.934-88.247-157.356a12.485 12.485 0 0 0-10.234-3.242 12.493 12.493 0 0 0-8.965 5.906c-3.652 6.055-8.457 11.106-14.273 15.028-.16.113-.247.172-.403.289-1.11.797-27.418 19.336-55.886-1.66-.618-.454-.958-.696-1.625-1.016-1.598-.922-19.118-11.773-18.29-42.707.164-6.098 2.278-12.715 6.348-19.758a12.473 12.473 0 0 0 .832-10.695 12.47 12.47 0 0 0-7.766-7.387C377.684 4.016 346.63-.918 315.133-.918c-29.043 0-57.79 4.211-85.442 12.504a12.482 12.482 0 0 0-7.855 6.988 12.46 12.46 0 0 0 .27 10.512c11.289 22.727 2.894 50.477-19.102 63.176l-1.145.664c-22.605 13.05-51.156 5.941-64.988-16.188A12.498 12.498 0 0 0 128.062 71c-3.64-.52-7.32.586-10.058 3.027-45.262 40.246-76.77 92.434-91.113 150.918a12.477 12.477 0 0 0 2.011 10.293 12.466 12.466 0 0 0 9.153 5.117c24.957 1.907 44.507 23.024 44.507 48.079v12.441c0 6.883 5.586 12.473 12.477 12.473h23.129V423.21H89.477c-5.446-19.102-23.043-33.137-43.868-33.137C20.457 390.078 0 410.535 0 435.688s20.457 45.617 45.613 45.617c20.828 0 38.426-14.035 43.864-33.14h41.168c6.882 0 12.476-5.587 12.476-12.477v-122.34h36.738v160.215l-34.195 40.37a45.378 45.378 0 0 0-19.543-4.402c-25.148 0-45.613 20.457-45.613 45.614 0 25.152 20.465 45.613 45.613 45.613 25.152 0 45.617-20.461 45.617-45.613 0-9.114-2.699-17.61-7.324-24.747l37.441-44.199c.02-.023.028-.043.047-.062.176-.211.332-.43.496-.649.082-.113.176-.226.258-.343.145-.22.281-.454.418-.684.074-.121.156-.242.223-.363.11-.207.207-.426.305-.637.074-.156.156-.309.226-.469.047-.113.082-.23.125-.34.106-.265.211-.527.293-.8.031-.098.05-.204.078-.301.086-.293.168-.586.23-.883.024-.113.036-.23.055-.34.047-.293.102-.582.133-.879.012-.129.012-.261.024-.386.02-.286.039-.567.043-.852V313.348h37.433v197.93c-19.101 5.445-33.137 23.038-33.137 43.867 0 25.148 20.461 45.613 45.61 45.613 25.156 0 45.617-20.461 45.617-45.613 0-20.829-14.035-38.422-33.14-43.868v-197.93h101.093v30.067c0 6.887 5.59 12.473 12.477 12.473 6.89 0 12.476-5.586 12.476-12.473v-30.066h37.43v164.785c0 .031.004.055.004.078.008.285.027.566.047.852.008.125.008.257.023.39.028.293.082.582.133.875.02.11.031.227.05.34.067.297.15.59.231.883.031.097.043.203.078.304.082.27.192.532.293.797.043.118.078.235.13.344.062.156.144.309.222.465.098.215.191.43.305.637.066.125.148.242.222.363.137.23.27.465.422.684.082.117.176.23.258.343.16.219.316.438.492.649.016.02.031.043.05.062l37.442 44.207a45.317 45.317 0 0 0-7.324 24.739c0 25.152 20.461 45.613 45.613 45.613s45.61-20.461 45.61-45.613c0-25.149-20.457-45.614-45.61-45.614a45.391 45.391 0 0 0-19.539 4.403l-34.195-40.371V313.348h36.738v122.34c0 6.89 5.586 12.476 12.473 12.476a12.3 12.3 0 0 0 2.262-.215 12.3 12.3 0 0 0 2.261.215h41.16c5.446 19.106 23.043 33.14 43.868 33.14 25.152 0 45.613-20.464 45.613-45.616s-20.46-45.61-45.617-45.61zm-548.77 66.274c-11.394 0-20.664-9.266-20.664-20.664 0-11.391 9.27-20.66 20.664-20.66s20.66 9.269 20.66 20.66c0 11.398-9.265 20.664-20.66 20.664zm80.508 119.453c-11.39 0-20.656-9.274-20.656-20.664s9.265-20.66 20.656-20.66c11.399 0 20.664 9.269 20.664 20.66s-9.265 20.664-20.664 20.664zM275.38 555.14c0 11.39-9.27 20.664-20.664 20.664-11.39 0-20.656-9.274-20.656-20.664s9.265-20.66 20.656-20.66c11.394 0 20.664 9.269 20.664 20.66zm254.64 0c0 11.39-9.269 20.664-20.664 20.664-11.39 0-20.66-9.274-20.66-20.664s9.27-20.66 20.66-20.66c11.395 0 20.665 9.269 20.665 20.66zM54.58 218.125c13.132-44.16 37.163-83.965 70.26-116.363 22.845 24.054 59.595 30.035 89.497 12.77l1.14-.66c28.973-16.724 42.383-50.665 34.22-81.895 21.34-5.274 43.288-7.938 65.429-7.938 24.172 0 48.047 3.164 71.168 9.422-1.98 5.879-3.063 11.719-3.211 17.46-1.168 43.536 24.793 61.434 30.645 64.903 34.476 24.977 70.261 11.973 84.68 1.395a73.123 73.123 0 0 0 12.109-10.324c32.855 33.898 56.035 75.132 67.777 120.57-30.691 5.406-54.856 30.015-59.602 60.933h-63.125c-.597-28.484-9.828-55.668-26.855-78.777-4.094-5.543-11.899-6.726-17.445-2.644-5.547 4.09-6.735 11.902-2.645 17.449 13.844 18.789 21.402 40.847 21.992 63.972H204.848c.742-29.613 12.773-57.207 34.078-77.968 4.48-4.371 9.36-8.395 14.496-11.957 18.937-13.145 41.172-20.094 64.316-20.094 5.352 0 10.758.39 16.07 1.156 6.837.988 13.145-3.742 14.13-10.566.988-6.817-3.743-13.145-10.56-14.13a137.86 137.86 0 0 0-19.64-1.41c-28.25 0-55.414 8.485-78.543 24.544a138.937 138.937 0 0 0-17.687 14.59c-26.16 25.5-40.867 59.433-41.617 95.832h-72.375c-.02-32.942-22.325-61.399-52.938-70.27zm539.804 238.227c-11.39 0-20.66-9.266-20.66-20.664 0-11.391 9.27-20.66 20.66-20.66 11.398 0 20.664 9.269 20.664 20.66 0 11.398-9.266 20.664-20.664 20.664zm0 0"/><path fill="#fff" d="M372.914 401.742l.316.246a12.42 12.42 0 0 0 7.555 2.551 12.45 12.45 0 0 0 9.934-4.91c4.18-5.48 3.125-13.305-2.36-17.484l-.316-.243c-5.484-4.183-13.313-3.125-17.488 2.356-4.172 5.484-3.117 13.308 2.36 17.484zm-.336-209.012l.317.243a12.411 12.411 0 0 0 7.558 2.554 12.45 12.45 0 0 0 9.934-4.91c4.172-5.48 3.117-13.308-2.36-17.488l-.316-.238c-5.484-4.184-13.313-3.125-17.488 2.355-4.18 5.48-3.125 13.309 2.355 17.484zm0 0"/></svg>