<svg xmlns="http://www.w3.org/2000/svg" viewBox="0 0 344.5 279.4"><path d="M0 159.7c38.4 40.1 76.4 79.7 114.7 119.7 76.8-80.1 153.1-159.8 229.8-239.8-12.8-13.4-25.2-26.3-37.9-39.6-4.7 4.9-159.5 166.4-188.1 196.2-2.2 2.3-3.9 4.2-7.2.8-22.2-23.4-71.1-74.3-73.4-76.8-12.7 13.3-25 26.1-37.9 39.5z"/><path d="M0 159.7c12.9-13.4 25.2-26.2 37.9-39.5 2.3 2.5 4.3 4.7 6.4 6.8 22.4 23.3 44.8 46.6 67.1 70 3.3 3.4 4.9 1.6 7.2-.8l85.8-89.4C234 75.9 263.6 44.9 293.2 14c4.4-4.5 8.7-9.1 13.4-14 12.8 13.3 25.1 26.2 37.9 39.5-76.7 80-153 159.7-229.8 239.8C76.4 239.4 38.4 199.8 0 159.7z"/></svg>