<svg xmlns="http://www.w3.org/2000/svg" viewBox="0 0 476 476.3"><path d="M231.7 476.3c-6.6-.6-13.2-1.3-19.8-1.9-34.3-3.4-66.4-13.9-95.9-31.6-56.6-34.1-93.7-83.4-108.8-147.6-17.7-75.9-3-145.9 45.7-207.3 35-44.1 81.2-71.2 136.4-82.8 20.1-4.2 40.5-6 60.9-4.8 62.5 3.9 116.4 27.4 160.1 72.8 33.3 34.6 54.3 75.8 61.9 123 12 74.2-5.3 141.2-54.7 198.7-35.2 41-80 66.1-133 76.4-11.2 2.2-22.7 2.8-34 4.2-2 .2-3.9.6-5.9.8-4.2.1-8.5.1-12.9.1zm6.5-15.7c121.9.4 224.6-102.2 222.6-226.4-2-117.6-99.7-218.9-223.2-218.8-122.5.1-226.8 104-222 231.5C20 361.3 116.5 460.7 238.2 460.6z"/><path d="M213.1 326.3c-35.7-35.4-71.7-71-107.6-106.7 3.8-3.7 7.5-7.5 11.2-11.1 32.1 31.7 64.1 63.4 96.6 95.5 48.9-49.1 97.8-98.2 146.5-147.2 4.3 4.2 8 7.8 11.1 10.8-52.6 53-105.4 106.1-157.8 158.7z"/></svg>