<svg width="24" height="21" viewBox="0 0 24 21" fill="none" xmlns="http://www.w3.org/2000/svg"><path fill-rule="evenodd" clip-rule="evenodd" d="M12.555 18.027l7.83-7.718-7.83-7.717c-.68-.61-.695-1.218-.042-1.826.652-.61 1.29-.61 1.915 0l8.851 8.63c.284.222.425.526.425.913 0 .388-.141.692-.425.913l-8.85 8.631c-.625.608-1.264.608-1.916 0-.653-.609-.639-1.217.042-1.826z" fill="#fff"/><path d="M.363 10.42c0-.675.575-1.222 1.284-1.222h19.607c.709 0 1.284.547 1.284 1.222 0 .675-.575 1.222-1.284 1.222H1.647c-.71 0-1.284-.547-1.284-1.222z" fill="#fff"/></svg>