<svg width="21" height="21" viewBox="0 0 21 21" fill="none" xmlns="http://www.w3.org/2000/svg"><path fill-rule="evenodd" clip-rule="evenodd" d="M.575 10.937c0 5.522 4.543 10 10.146 10 5.603 0 10.146-4.478 10.146-10 0-5.523-4.543-10-10.146-10-5.603 0-10.146 4.477-10.146 10zm10.146 9c5.043 0 9.131-4.03 9.131-9 0-4.971-4.088-9-9.131-9s-9.131 4.029-9.131 9c0 4.97 4.088 9 9.13 9zM9.799 7.205c0-.445.372-.815.93-.815.542 0 .914.356.914.815 0 .444-.355.8-.947.8-.542 0-.897-.356-.897-.8zm1.675 2.015v7.17h-1.49V9.22h1.49z" fill="#90BB5B"/></svg>