<svg width="113" height="60" viewBox="0 0 113 60" fill="none" xmlns="http://www.w3.org/2000/svg"><path d="M76.547 31.267v-.09h-.586c-.018.52.302.88.817.88.57 0 .924-.36.924-.933 0-.34-.124-.663-.48-.735v-.018c.303-.126.392-.448.392-.735 0-.502-.285-.825-.8-.825-.569 0-.746.412-.728.932h.533v-.071c0-.144.035-.323.213-.323s.213.18.213.323c0 .358-.142.412-.48.412v.538c.356-.018.462.09.462.448 0 .18-.017.448-.266.448-.16 0-.213-.143-.213-.25zm-.995-2.42h-1.688v.556h.836l-.978 2.6h.658l1.172-3.156zm-3.002 1.47c.284-.108.426-.377.426-.681 0-.466-.302-.825-.782-.825-.48 0-.782.359-.782.825 0 .305.143.573.427.663v.018c-.391.125-.55.43-.55.843 0 .52.372.914.905.914.516 0 .889-.394.889-.914.017-.413-.142-.718-.533-.843zm-.356-1.022c.16 0 .196.215.196.34 0 .108 0 .36-.196.36-.16 0-.177-.234-.177-.36 0-.125.017-.34.177-.34zm0 2.223c-.213 0-.266-.287-.266-.448 0-.161.053-.466.249-.466.195 0 .266.305.266.466.018.143-.035.448-.249.448zm-1.741-2.67h-.889v.556h.285v2.6h.604v-3.156zm-34.951 0h-1.368v3.156h1.368v-.574h-.693v-.717h.604v-.592h-.604v-.681h.693v-.592zm6.041 2.419a.385.385 0 0 0-.39.395c0 .215.177.394.39.394.214 0 .391-.18.391-.394a.396.396 0 0 0-.39-.395zm-.853-2.42h-1.74v.592h.533v2.563h.675V29.44h.533v-.592zm-2.683.717v-.61a1.423 1.423 0 0 0-.604-.143c-.586 0-.888.43-.888.932 0 .449.23.7.622.933.195.125.408.215.408.466 0 .215-.177.34-.39.34-.196 0-.356-.071-.516-.161v.592c.16.107.39.161.586.161.64 0 .995-.43.995-.986 0-.86-1.03-.879-1.03-1.399 0-.197.142-.304.338-.304.16-.018.337.071.48.179zm12.669-17.373c-3.074.036-8.6.215-11.07.305a25.24 25.24 0 0 0-1.243.054.69.69 0 0 0-.587.412 7.127 7.127 0 0 1-.106.27s-.054.125-.071.268c-.036.18 0 .502.248.681 0 0 .356.305.978.79 1.954 1.541 6.325 4.965 8.795 6.812-.924 2.958-2.452 8.319-3.145 10.721-.213.753-.32 1.22-.32 1.22a.747.747 0 0 0 .196.699c.106.107.23.179.23.179s.107.09.232.161c.16.09.462.144.71-.018 0 0 .391-.25 1.049-.68 2.043-1.4 6.627-4.537 9.133-6.33 2.505 1.793 7.09 4.93 9.133 6.33.64.447 1.048.68 1.048.68.25.162.569.126.711.018.125-.071.231-.161.231-.161s.107-.072.231-.18a.705.705 0 0 0 .196-.698s-.107-.467-.32-1.22c-.693-2.402-2.221-7.763-3.145-10.72 2.47-1.848 6.84-5.272 8.795-6.814.622-.484.978-.789.978-.789a.756.756 0 0 0 .248-.68 9.45 9.45 0 0 0-.07-.27s-.036-.125-.108-.269a.716.716 0 0 0-.586-.412s-.462-.036-1.244-.054c-2.47-.09-7.996-.269-11.07-.305-.977-2.94-2.86-8.193-3.695-10.542a47.1 47.1 0 0 0-.445-1.183.725.725 0 0 0-.568-.448C55.883 0 55.74 0 55.74 0s-.142 0-.284.018a.725.725 0 0 0-.569.448s-.177.43-.444 1.183c-.906 2.367-2.79 7.62-3.767 10.542z" fill="#fff"/><path d="M49.113 21.299l-3.945 12.245c0 .018 0 .036.018.054 0 0 .035.018.053.054l.071.035c.018.018.036.018.053 0l10.324-7.565 10.324 7.566c.017.017.035.017.053 0l.071-.036c.036-.018.053-.054.053-.054.018-.018.018-.036.018-.054L62.262 21.3l10.323-7.566c.018-.018.018-.036.018-.054 0 0 0-.036-.018-.071l-.035-.072c0-.018-.018-.036-.054-.036H59.738L55.812 1.255c0-.018-.018-.036-.054-.036h-.142c-.018 0-.035.018-.053.036L51.618 13.5H38.86c-.018 0-.035.018-.053.036l-.036.072c-.017.035-.017.071-.017.071 0 .018 0 .054.017.054L49.113 21.3z" fill="#E2000F"/><path d="M109.562 39.712c-1.439 0-2.612 1.183-2.612 2.635 0 1.452 1.173 2.636 2.612 2.636s2.612-1.184 2.612-2.636c0-1.452-1.173-2.635-2.612-2.635zm0 4.75a2.106 2.106 0 0 1-2.097-2.097c0-1.165.942-2.098 2.097-2.098a2.08 2.08 0 0 1 2.079 2.098c0 1.148-.924 2.098-2.079 2.098z" fill="#fff"/><path d="M110.255 42.347c.213-.072.426-.34.426-.717 0-.61-.533-.789-.853-.789h-1.35v2.833h.64v-1.112h.248c.32 0 .516.09.605.395.071.215.106.412.231.717h.693c-.071-.162-.214-.377-.267-.7-.035-.304-.124-.466-.373-.627zm-.604-.34h-.516v-.646h.462c.196 0 .427.09.427.305 0 .197-.16.34-.373.34zM28.75 55.345c-.747.753-1.706 1.488-2.648 1.793-.888.287-3.43.52-4.175-1.613-.16-.467-.036-.592.373-.718a48.283 48.283 0 0 0 3.856-1.29c1.51-.574 2.86-1.273 3.287-1.56.764-.502.87-1.201.533-1.972-1.066-2.403-3.465-4.93-7.463-4.16-3.18.61-5.455 3.496-5.455 6.795 0 4.088 2.434 6.472 5.544 7.207 2.878.682 6.254-.717 7.694-3.083.586-.879-1.013-1.955-1.546-1.399zm-7.179-3.209c-.32-.86-.07-3.514 1.386-4.016 1.528-.52 2.452.269 2.914 1.81.178.575.125 1.184-.053 1.417-.267.323-.746.52-1.19.681l-1.138.377c-1.137.359-1.67.448-1.919-.269zm44.386 3.209c-.746.753-1.705 1.488-2.647 1.793-.889.287-3.43.52-4.176-1.613-.16-.467-.035-.592.373-.718a48.147 48.147 0 0 0 3.856-1.29c1.51-.574 2.861-1.273 3.287-1.56.764-.502.871-1.201.533-1.972-1.066-2.403-3.464-4.93-7.462-4.16-3.181.61-5.455 3.496-5.455 6.795 0 4.088 2.434 6.472 5.544 7.207 2.878.682 6.254-.717 7.693-3.083.587-.879-1.03-1.955-1.546-1.399zm-7.196-3.209c-.178-.52-.178-1.667.178-2.635.23-.646.586-1.148 1.208-1.399.693-.287 1.297-.197 1.76.072.532.305.905.914 1.154 1.757.178.574.124 1.183-.053 1.416-.267.323-.693.502-1.19.681-.498.18-.925.323-1.138.395-1.137.323-1.652.43-1.919-.287zm35.538 3.209c-.747.753-1.706 1.488-2.648 1.793-.888.287-3.43.52-4.176-1.613-.16-.467-.035-.592.374-.718a48.299 48.299 0 0 0 3.855-1.29c1.51-.574 2.861-1.273 3.288-1.56.764-.502.87-1.201.533-1.972-1.067-2.403-3.465-4.93-7.463-4.16-3.18.61-5.455 3.496-5.455 6.795 0 4.088 2.434 6.472 5.543 7.207 2.88.682 6.255-.717 7.694-3.083.605-.879-1.012-1.955-1.545-1.399zm-7.179-3.209c-.178-.52-.178-1.667.178-2.635.23-.646.586-1.148 1.208-1.399.693-.287 1.297-.197 1.759.072.533.305.906.914 1.155 1.757.178.574.124 1.183-.053 1.416-.267.323-.693.502-1.19.681-.498.18-.925.323-1.138.395-1.137.323-1.67.43-1.919-.287zm-76.459 3.98c0 .556-.178 1.148-.586 1.345l-.906.412c-.16.072-.214.198-.214.377 0 .054 0 .072.018.143l.107 1.04c.053.287.23.323.604.323h6.557c.373 0 .568-.054.604-.323l.106-1.04c0-.054.018-.09.018-.143 0-.18-.053-.305-.213-.377l-.906-.412c-.427-.197-.587-.789-.587-1.345V44.642c0-.556.178-1.147.587-1.345l.906-.412c.16-.072.213-.197.213-.377 0-.053 0-.071-.018-.143l-.106-.77c-.054-.288-.231-.323-.604-.323H9.986c-.373 0-.569.053-.604.322l-.107.771c0 .054-.018.09-.018.143 0 .18.054.305.214.377l.746.412c.426.251.444.79.444 1.345v3.191a.396.396 0 0 1-.39.395H6.716a.396.396 0 0 1-.391-.395v-3.191c0-.556.035-1.094.444-1.345l.746-.412c.16-.072.213-.197.213-.377 0-.053 0-.071-.017-.143l-.107-.77c-.053-.288-.231-.323-.604-.323H.729c-.374 0-.57.053-.605.322l-.106.771c0 .054-.018.09-.018.143 0 .18.053.305.213.377l.906.412c.427.198.587.79.587 1.345v11.474c0 .556-.178 1.148-.587 1.345l-.906.412c-.16.072-.213.198-.213.377 0 .054 0 .072.018.143l.106 1.04c.054.287.231.323.605.323h6.556c.373 0 .569-.054.604-.323l.107-1.04c0-.054.018-.09.018-.143 0-.18-.054-.305-.214-.377l-.906-.412c-.426-.197-.586-.789-.586-1.345v-4.661c0-.215.178-.395.39-.395h3.555c.213 0 .39.18.39.395v4.661h.018zm25.854-12.908c0 1.273-1.066 2.313-2.364 2.313-1.314 0-2.363-1.04-2.363-2.313 0-1.273 1.066-2.313 2.363-2.313 1.298.018 2.364 1.04 2.364 2.313zm-4.958 16.548c-.355 0-.533-.036-.586-.323l-.107-1.04v-.125c0-.18.054-.287.196-.359l.71-.394c.391-.198.57-.753.57-1.291V49.68c0-.556-.09-1.255-.57-1.488l-.444-.27c-.16-.07-.213-.196-.213-.376 0-.053 0-.071.018-.143l.106-.771c.054-.287.231-.323.605-.323h4.424c.213 0 .39.18.39.395v9.52c0 .52.178 1.093.57 1.29l.71.395c.142.072.196.18.196.359v.125l-.107 1.04c-.053.269-.23.323-.586.323h-5.882zm13.416-12.747s.248-.126.693-.341c.888-.412 2.63-1.165 4.05-.717 1.245.394 2.31 1.309 2.31 3.711v7.243c0 .305.019.43.16.52.196.108.516-.215.836-.376.32-.162.497.035.693.25.178.198.373.467.213.825-.533 1.13-1.723 1.757-3.11 1.757-1.314 0-2.985-.753-2.985-2.743v-6.974c0-1.058-.764-1.434-1.368-1.363-.906.108-1.546.879-1.546 2.224v5.217c0 .52.178 1.093.569 1.29l.71.395c.143.072.196.18.196.359v.125l-.106 1.04c-.054.269-.231.323-.587.323h-5.864c-.355 0-.533-.036-.586-.323l-.106-1.04v-.125c0-.18.053-.287.195-.359l.71-.394c.392-.198.57-.753.57-1.291v-6.544c0-.556-.09-1.255-.57-1.488l-.444-.27c-.16-.07-.213-.196-.213-.376 0-.053 0-.071.018-.143l.107-.771c.053-.287.23-.323.604-.323h4.175c.338 0 .462.198.551.395l.125.287zm57.286 0s.249-.126.693-.341c.888-.412 2.63-1.165 4.051-.717 1.244.394 2.31 1.309 2.31 3.711v7.243c0 .305.018.43.16.52.195.108.515-.215.835-.376.32-.162.498.035.693.25.178.198.373.467.213.825-.533 1.13-1.723 1.757-3.109 1.757-1.315 0-2.985-.753-2.985-2.743v-6.974c0-1.058-.764-1.434-1.368-1.363-.907.108-1.546.879-1.546 2.224v5.217c0 .52.177 1.093.568 1.29l.711.395c.142.072.195.18.195.359v.125l-.106 1.04c-.053.269-.231.323-.587.323h-5.863c-.356 0-.533-.036-.587-.323l-.106-1.04v-.125c0-.18.053-.287.195-.359l.711-.394c.39-.198.569-.753.569-1.291v-6.544c0-.556-.09-1.255-.569-1.488l-.444-.27c-.16-.07-.213-.196-.213-.376 0-.053 0-.071.017-.143l.107-.771c.053-.287.23-.323.604-.323h4.176c.337 0 .462.198.551.395l.124.287z" fill="#fff"/><path d="M81.008 56.403c.32.502.693.914 1.084 1.094l.71.394c.142.072.196.18.196.359v.125l-.107 1.04c-.053.269-.23.323-.586.323h-3.536c-.604 0-.658-.18-.924-.682l-2.968-5.468-1.119 1.076v1.542c0 .52.249 1.075.657 1.29l.711.395c.142.072.196.18.196.359v.125l-.107 1.04c-.053.269-.231.323-.586.323h-5.864c-.355 0-.533-.036-.586-.323l-.107-1.04c-.018-.054 0-.09 0-.125 0-.18.053-.287.195-.359l.711-.394c.391-.197.569-.753.569-1.291V44.498c0-.52-.16-1.075-.569-1.272l-.71-.395c-.143-.09-.196-.18-.196-.358v-.126l.107-.735c.053-.269.23-.323.586-.323h4.247c.426 0 .764.34.764.771v8.893l1.883-1.721c.267-.233.711-.628.889-.807.177-.18.213-.43-.036-.538l-.675-.305c-.142-.072-.196-.18-.196-.34 0-.036 0-.072.018-.126l.09-.95c.035-.251.212-.305.55-.305h5.1c.337 0 .515.036.55.305l.09.95c0 .054.017.09.017.126.018.197-.231.304-.373.376 0 0-.356.108-.693.287-.338.197-.675.466-1.12.878l-1.972 1.9 3.11 5.72z" fill="#fff"/></svg>