<svg width="21" height="21" viewBox="0 0 21 21" fill="none" xmlns="http://www.w3.org/2000/svg"><path fill-rule="evenodd" clip-rule="evenodd" d="M20.325 19.212a.597.597 0 0 1 .175.44.597.597 0 0 1-.175.439.75.75 0 0 1-.166.127.474.474 0 0 1-.185.058.974.974 0 0 1-.195 0 .475.475 0 0 1-.185-.058.752.752 0 0 1-.165-.127l-5.492-5.549c-1.532 1.342-3.31 2.013-5.336 2.013a7.972 7.972 0 0 1-4.07-1.085 7.956 7.956 0 0 1-2.95-2.96A8.054 8.054 0 0 1 .5 8.419c0-1.478.36-2.842 1.08-4.093a7.956 7.956 0 0 1 2.951-2.96A7.971 7.971 0 0 1 8.601.281c1.104 0 2.155.215 3.155.645 1 .43 1.86 1.01 2.58 1.739a8.284 8.284 0 0 1 1.724 2.598 7.973 7.973 0 0 1 .643 3.165c0 1.966-.63 3.705-1.89 5.216l5.512 5.568zM8.6 15.285h.35c1.805-.104 3.337-.814 4.597-2.13 1.272-1.328 1.908-2.91 1.908-4.747a6.695 6.695 0 0 0-.925-3.438 6.914 6.914 0 0 0-2.502-2.51 6.658 6.658 0 0 0-3.437-.929c-1.24 0-2.386.31-3.438.928a6.838 6.838 0 0 0-2.492 2.51 6.749 6.749 0 0 0-.916 3.44c0 1.236.305 2.383.916 3.438a6.838 6.838 0 0 0 2.492 2.51c1.052.619 2.2.928 3.447.928zm3.116-7.502c.169 0 .315.062.438.186.124.123.185.27.185.44a.599.599 0 0 1-.185.439.598.598 0 0 1-.438.185H9.224v2.501a.6.6 0 0 1-.185.44.61.61 0 0 1-.447.185.578.578 0 0 1-.439-.185.619.619 0 0 1-.175-.44v-2.5H5.485a.619.619 0 0 1-.623-.625.619.619 0 0 1 .623-.626h2.493v-2.5c0-.17.059-.316.175-.44a.578.578 0 0 1 .439-.186.61.61 0 0 1 .447.186.6.6 0 0 1 .185.44v2.5h2.493z" fill="#90BB5B"/></svg>