<svg width="21" height="21" viewBox="0 0 21 21" fill="none" xmlns="http://www.w3.org/2000/svg"><path fill-rule="evenodd" clip-rule="evenodd" d="M10.5.28a9.69 9.69 0 0 1 5 1.352 10.11 10.11 0 0 1 3.65 3.649 9.694 9.694 0 0 1 1.35 5c0 1.8-.45 3.467-1.35 5a10.105 10.105 0 0 1-3.65 3.649 9.694 9.694 0 0 1-5 1.35 9.694 9.694 0 0 1-5-1.35 10.106 10.106 0 0 1-3.65-3.65 9.694 9.694 0 0 1-1.35-5c0-1.8.45-3.467 1.35-5A10.105 10.105 0 0 1 5.5 1.633a9.694 9.694 0 0 1 5-1.351zm0 1.936a7.825 7.825 0 0 0-4.032 1.089 8.132 8.132 0 0 0-2.944 2.944 7.826 7.826 0 0 0-1.089 4.032c0 1.451.363 2.796 1.09 4.032a8.133 8.133 0 0 0 2.943 2.944 7.825 7.825 0 0 0 4.032 1.088 7.825 7.825 0 0 0 4.032-1.088 8.133 8.133 0 0 0 2.944-2.944 7.826 7.826 0 0 0 1.088-4.032 7.826 7.826 0 0 0-1.088-4.032 8.133 8.133 0 0 0-2.944-2.944A7.826 7.826 0 0 0 10.5 2.216zm5.645 5.242a.502.502 0 0 1 .162.363.383.383 0 0 1-.162.323L9.21 15.039a.502.502 0 0 1-.363.161.383.383 0 0 1-.323-.161l-3.67-3.67a.502.502 0 0 1-.16-.362c0-.135.053-.242.16-.323l.928-.927a.436.436 0 0 1 .323-.121.59.59 0 0 1 .363.12l2.379 2.46 5.726-5.685a.436.436 0 0 1 .322-.121c.135 0 .255.054.363.161l.887.887z" fill="#90BB5B"/></svg>