<svg width="21" height="21" viewBox="0 0 21 21" fill="none" xmlns="http://www.w3.org/2000/svg"><path fill-rule="evenodd" clip-rule="evenodd" d="M20.174 12.365a.223.223 0 0 1-.012.09c-.556 2.327-1.72 4.213-3.49 5.658-1.771 1.446-3.846 2.168-6.224 2.168a9.755 9.755 0 0 1-3.678-.716 9.939 9.939 0 0 1-3.171-2.044l-1.68 1.68a.8.8 0 0 1-.586.247.8.8 0 0 1-.586-.247.8.8 0 0 1-.247-.586V12.78a.8.8 0 0 1 .247-.586.801.801 0 0 1 .586-.247h5.834c.225 0 .42.082.586.247A.8.8 0 0 1 8 12.78a.801.801 0 0 1-.247.586L5.969 15.15a6.718 6.718 0 0 0 2.096 1.328 6.498 6.498 0 0 0 2.435.469 6.552 6.552 0 0 0 3.255-.846 6.564 6.564 0 0 0 2.422-2.331c.096-.148.326-.655.69-1.524.07-.2.2-.299.39-.299h2.5a.4.4 0 0 1 .294.124.4.4 0 0 1 .123.293zM20.5 1.948V7.78a.801.801 0 0 1-.247.586.8.8 0 0 1-.586.247h-5.834a.8.8 0 0 1-.586-.247A.801.801 0 0 1 13 7.78c0-.226.082-.42.247-.586l1.797-1.797c-1.285-1.189-2.8-1.783-4.544-1.783a6.551 6.551 0 0 0-3.255.846 6.565 6.565 0 0 0-2.422 2.33c-.096.148-.326.656-.69 1.524-.07.2-.2.3-.39.3H1.15a.4.4 0 0 1-.293-.124.4.4 0 0 1-.124-.293v-.091C1.3 5.78 2.47 3.895 4.25 2.449 6.03 1.004 8.113.281 10.5.281c1.267 0 2.5.241 3.698.723a10.088 10.088 0 0 1 3.19 2.038l1.693-1.68a.801.801 0 0 1 .586-.247.8.8 0 0 1 .586.247.8.8 0 0 1 .247.586z" fill="#90BB5B"/></svg>