<svg width="25" height="25" viewBox="0 0 25 25" fill="none" xmlns="http://www.w3.org/2000/svg"><path d="M12.5.268c-6.628 0-12 5.372-12 12 0 6.627 5.372 12 12 12 6.627 0 12-5.373 12-12 0-6.628-5.373-12-12-12zm0 22.585c-5.845 0-10.586-4.737-10.586-10.585 0-5.849 4.741-10.586 10.585-10.586 5.844 0 10.586 4.737 10.586 10.586 0 5.848-4.742 10.585-10.586 10.585z" fill="#90BB5B"/><path d="M12.5 13.743a4.759 4.759 0 1 0 0-9.517 4.759 4.759 0 0 0 0 9.517z" fill="#fff"/><path d="M12.5 22.831c3.512 0 6.622-1.713 8.543-4.351a7.077 7.077 0 0 0-5.191-4.586 5.9 5.9 0 0 1-3.353 1.034 5.9 5.9 0 0 1-3.352-1.034 7.077 7.077 0 0 0-5.191 4.59 10.563 10.563 0 0 0 8.543 4.347z" fill="#90BB5B"/></svg>