<svg width="170" height="29" viewBox="0 0 170 29" xmlns="http://www.w3.org/2000/svg"><title>63B29375-81AC-48F2-A6A7-5A58046BEBE1</title><g fill="none" fill-rule="evenodd"><path d="M7.161 28.854c5.036 0 6.882-2.81 6.882-5.565 0-7.07-11.05-4.628-11.05-8.886 0-1.789 1.595-3.01 3.833-3.01 2.042 0 4 .71 5.399 2.271l1.398-1.731c-1.566-1.676-3.776-2.64-6.63-2.64-3.664 0-6.406 2.129-6.406 5.252 0 6.757 11.05 4.06 11.05 8.943 0 1.448-1.063 3.265-4.392 3.265-2.63 0-4.643-1.306-5.874-2.697L0 25.844c1.539 1.76 3.916 3.01 7.161 3.01zm28.674-.34v-9.91c0-2.753-1.315-4.145-3.776-4.145-1.959 0-3.777 1.306-4.532 2.556-.392-1.42-1.567-2.556-3.637-2.556-1.986 0-3.804 1.448-4.364 2.329V14.8h-2.098v13.713h2.098V18.491c.727-1.107 2.182-2.13 3.553-2.13 1.762 0 2.49 1.108 2.49 2.84v9.312h2.098v-10.05c.699-1.08 2.182-2.101 3.58-2.101 1.735 0 2.49 1.107 2.49 2.839v9.312h2.098zm14.743 0H48.48v-1.562c-1.12 1.249-2.658 1.902-4.476 1.902-2.294 0-4.728-1.562-4.728-4.543 0-3.066 2.434-4.514 4.728-4.514 1.846 0 3.385.596 4.476 1.874V19.2c0-1.846-1.455-2.896-3.413-2.896-1.623 0-2.938.596-4.14 1.902l-.98-1.476c1.455-1.533 3.19-2.272 5.4-2.272 2.853 0 5.23 1.306 5.23 4.628v9.426zm-5.82-1.193c1.484 0 2.91-.568 3.722-1.704v-2.583c-.812-1.136-2.238-1.704-3.721-1.704-1.958 0-3.329 1.25-3.329 3.01 0 1.732 1.37 2.98 3.329 2.98zm12.114 1.192v-9.71c.615-1.107 2.378-2.186 3.664-2.186.336 0 .588.029.84.085v-2.186c-1.847 0-3.413 1.05-4.504 2.499V14.8h-2.098v13.713h2.098zm10.546.341c-1.986 0-2.993-1.164-2.993-3.208v-8.972h-2.238V14.8h2.238v-3.748h2.098V14.8h2.741v1.874h-2.741v8.517c0 1.023.448 1.76 1.37 1.76.588 0 1.148-.255 1.427-.567l.616 1.59c-.532.51-1.287.88-2.518.88zm31.008-.34h-7.793l-1.319-3.894h-10.51l-1.32 3.893h-7.792L79.722 1.46h8.633l10.07 27.053zm-10.99-9.978l-3.397-10.18-3.397 10.18h6.794zm31.97 9.977V8.923h-6.154v12.655c-.72.932-1.918 1.906-3.677 1.906-1.998 0-3.197-.811-3.197-3.164V8.923h-6.154v13.953c0 3.61 1.958 6.124 6.354 6.124 3.237 0 5.475-1.46 6.674-2.84v2.353h6.154zm23.579 0h-6.115v-2.271c-1.598 1.866-3.556 2.758-5.714 2.758-4.756 0-8.553-3.65-8.553-10.302 0-6.408 3.717-10.262 8.553-10.262 2.118 0 4.156.852 5.714 2.799V1.46h6.115v27.053zm-9.831-5.03c1.319 0 2.917-.73 3.716-1.784v-6.002c-.799-1.055-2.397-1.745-3.716-1.745-2.438 0-4.236 1.826-4.236 4.746 0 2.92 1.798 4.786 4.236 4.786zm20.501 5.03V8.923h-6.154v19.59h6.154zm11.79.487c2.277 0 3.796-.568 4.555-1.298l-1.199-4.705c-.2.244-.88.487-1.558.487-1.08 0-1.719-.852-1.719-1.987v-7.139h3.917V8.923h-3.917V3.57h-6.114v5.354h-3.197v5.435h3.197v8.883c0 3.772 2.118 5.759 6.034 5.759z" fill="#FFF" opacity=".562"/><circle fill="#C2B48B" cx="150.5" cy="3.5" r="3.5"/></g></svg>