<svg width="260" height="116" viewBox="0 0 260 116" xmlns="http://www.w3.org/2000/svg" xmlns:xlink="http://www.w3.org/1999/xlink"><title>03E92933-3D8B-44E9-9A04-8A8F20D5C475</title><defs><filter x="-37.5%" y="-257.1%" width="175%" height="614.3%" filterUnits="objectBoundingBox" id="a"><feGaussianBlur stdDeviation="6" in="SourceGraphic"/></filter><path d="M57.971 58.017L44.988 71 32.005 58.017H0V0h212v58.017H57.971z" id="c"/><filter x="-19.8%" y="-42.3%" width="139.6%" height="218.3%" filterUnits="objectBoundingBox" id="b"><feOffset dy="12" in="SourceAlpha" result="shadowOffsetOuter1"/><feGaussianBlur stdDeviation="12" in="shadowOffsetOuter1" result="shadowBlurOuter1"/><feColorMatrix values="0 0 0 0 0 0 0 0 0 0 0 0 0 0 0 0 0 0 0.136945199 0" in="shadowBlurOuter1"/></filter></defs><g transform="translate(24 12)" fill="none" fill-rule="evenodd"><ellipse fill="#3B3B3B" opacity=".277" filter="url(#a)" cx="46" cy="76.5" rx="24" ry="3.5"/><use fill="#000" filter="url(#b)" xlink:href="#c"/><use fill="#FFF" xlink:href="#c"/><path d="M28.168 41.456c5.04 0 6.888-2.772 6.888-5.488 0-6.972-11.06-4.564-11.06-8.764 0-1.764 1.596-2.968 3.836-2.968 2.044 0 4.004.7 5.404 2.24l1.4-1.708c-1.568-1.652-3.78-2.604-6.636-2.604-3.668 0-6.412 2.1-6.412 5.18 0 6.664 11.06 4.004 11.06 8.82 0 1.428-1.064 3.22-4.396 3.22-2.632 0-4.648-1.288-5.88-2.66L21 38.488c1.54 1.736 3.92 2.968 7.168 2.968zm28.7-.336v-9.772c0-2.716-1.316-4.088-3.78-4.088-1.96 0-3.78 1.288-4.536 2.52-.392-1.4-1.568-2.52-3.64-2.52-1.988 0-3.808 1.428-4.368 2.296v-1.96h-2.1V41.12h2.1v-9.884c.728-1.092 2.184-2.1 3.556-2.1 1.764 0 2.492 1.092 2.492 2.8v9.184h2.1v-9.912c.7-1.064 2.184-2.072 3.584-2.072 1.736 0 2.492 1.092 2.492 2.8v9.184h2.1zm14.756 0h-2.1v-1.54c-1.12 1.232-2.66 1.876-4.48 1.876-2.296 0-4.732-1.54-4.732-4.48 0-3.024 2.436-4.452 4.732-4.452 1.848 0 3.388.588 4.48 1.848v-2.436c0-1.82-1.456-2.856-3.416-2.856-1.624 0-2.94.588-4.144 1.876l-.98-1.456c1.456-1.512 3.192-2.24 5.404-2.24 2.856 0 5.236 1.288 5.236 4.564v9.296zM65.8 39.944c1.484 0 2.912-.56 3.724-1.68v-2.548c-.812-1.12-2.24-1.68-3.724-1.68-1.96 0-3.332 1.232-3.332 2.968 0 1.708 1.372 2.94 3.332 2.94zm12.124 1.176v-9.576c.616-1.092 2.38-2.156 3.668-2.156.336 0 .588.028.84.084v-2.156c-1.848 0-3.416 1.036-4.508 2.464v-2.184h-2.1V41.12h2.1zm10.556.336c-1.988 0-2.996-1.148-2.996-3.164v-8.848h-2.24v-1.848h2.24V23.9h2.1v3.696h2.744v1.848h-2.744v8.4c0 1.008.448 1.736 1.372 1.736.588 0 1.148-.252 1.428-.56L91 40.588c-.532.504-1.288.868-2.52.868zm31.036-.336h-7.8l-1.32-3.84h-10.52l-1.32 3.84h-7.8l10.04-26.68h8.64l10.08 26.68zm-11-9.84l-3.4-10.04-3.4 10.04h6.8zm32 9.84V21.8h-6.16v12.48c-.72.92-1.92 1.88-3.68 1.88-2 0-3.2-.8-3.2-3.12V21.8h-6.16v13.76c0 3.56 1.96 6.04 6.36 6.04 3.24 0 5.48-1.44 6.68-2.8v2.32h6.16zm23.6 0h-6.12v-2.24c-1.6 1.84-3.56 2.72-5.72 2.72-4.76 0-8.56-3.6-8.56-10.16 0-6.32 3.72-10.12 8.56-10.12 2.12 0 4.16.84 5.72 2.76v-9.64h6.12v26.68zm-9.84-4.96c1.32 0 2.92-.72 3.72-1.76v-5.92c-.8-1.04-2.4-1.72-3.72-1.72-2.44 0-4.24 1.8-4.24 4.68s1.8 4.72 4.24 4.72zm17.44-16.08c1.96 0 3.52-1.6 3.52-3.56a3.5 3.5 0 0 0-3.52-3.52 3.5 3.5 0 0 0-3.52 3.52c0 1.96 1.56 3.56 3.52 3.56zm3.08 21.04V21.8h-6.16v19.32h6.16zm11.8.48c2.28 0 3.8-.56 4.56-1.28l-1.2-4.64c-.2.24-.88.48-1.56.48-1.08 0-1.72-.84-1.72-1.96v-7.04h3.92V21.8h-3.92v-5.28h-6.12v5.28h-3.2v5.36h3.2v8.76c0 3.72 2.12 5.68 6.04 5.68z" fill="#000"/><path d="M171.72 20.08c1.96 0 3.52-1.6 3.52-3.56a3.5 3.5 0 0 0-3.52-3.52 3.5 3.5 0 0 0-3.52 3.52c0 1.96 1.56 3.56 3.52 3.56z" fill="#53C3F9"/></g></svg>