<svg width="24" height="17" viewBox="0 0 24 17" xmlns="http://www.w3.org/2000/svg"><title>7B7D55B1-D298-4739-BD93-1C7B454238AF</title><path d="M22.838 3.851s.223 1.842.223 3.682V9.26c0 1.841-.223 3.682-.223 3.682s-.217 1.567-.885 2.258c-.846.906-1.795.91-2.23.964-3.115.23-7.793.237-7.793.237s-5.787-.054-7.568-.229c-.496-.094-1.608-.066-2.455-.972-.667-.69-.884-2.258-.884-2.258S.8 11.1.8 9.259V7.533c0-1.84.223-3.682.223-3.682s.217-1.567.884-2.257C2.754.687 3.702.683 4.137.63 7.254.4 11.927.4 11.927.4h.01s4.672 0 7.787.23c.435.053 1.384.057 2.23.964.668.69.885 2.257.885 2.257zm-13.206 7.5l6.014-3.185L9.63 4.959l.001 6.392z" fill="#A8A9AC" fill-rule="evenodd" opacity=".4"/></svg>