<svg xmlns="http://www.w3.org/2000/svg" xmlns:xlink="http://www.w3.org/1999/xlink" width="914" height="235" viewBox="0 0 914 235"><defs><rect id="a" width="914" height="235" rx="1"/></defs><g fill="none" fill-rule="evenodd"><mask id="b" fill="#fff"><use xlink:href="#a"/></mask><use fill="#F5F5F6" xlink:href="#a"/><g mask="url(#b)"><g fill-rule="nonzero" transform="rotate(21 513.574 1166.413)"><path d="M258.756 56.444l12.584 20.873-1.943 21.552L373.556.057zM95.47 275.049l27.451 46.996 83.552 1.274-18.963-4.856a31.073 31.073 0 0 1-19.344-14.805 18.407 18.407 0 0 1 3.817-22.85c9.343-8.265 21.141-20.891 22.298-32.75 1.94-19.898-55.02-.741-55.02-.741" fill="#EAEAEA"/><path fill="#333" d="M147.368 120.198a9.73 9.73 0 0 1-.742-1.496l-.762-1.578c-.155-.327-.081-.252-.207-.529l-1.053-2.28-.396-.926-.037-.087.061-.072c.334-.396.613-.744.999-1.24.254-.307.437-.505.646-.738l-.013.211a7.698 7.698 0 0 0-.304-.45 11.453 11.453 0 0 0-.884-1.034c-.281-.424-.695-.945-.934-1.301-.253-.308-.366-.397-.587-.637-.222-.253-.242-.343-.47-.59-.204-.213-.317-.302-.496-.466a22.787 22.787 0 0 0-2.258-2.068 21.764 21.764 0 0 0-3.675-2.541 5.393 5.393 0 0 0-.69-.33 10.446 10.446 0 0 0-3.86-1.242 6.806 6.806 0 0 0-.842-.098c-.505-.048-.677-.082-1.11-.111a5.617 5.617 0 0 1-.565.022 7.808 7.808 0 0 0-.857.153c-.844.14-1.67.376-2.46.703.004-.056.76-.315 1.071-.487.676-.177.951-.36 1.393-.43.29-.08.337-.26.454-.415.274-.013.543-.074.796-.18.324-.007.507-.054.612-.186.25-.044.214.122.508.05.427-.145 1.168.004 1.41-.334.18.119.392.178.607.17.275.018.55-.027.804-.131.279.056.554.127.824.214.395.17.481-.328.816-.303.83.419 1.598.725 2.307 1.084.722.32 1.38.767 1.945 1.319.84.297 1.164.803 1.924 1.096.546.386 1.009 1.235 1.545 1.375.231.836 1.062 1.468 1.844 2.056.19.56.732.874 1.137 1.433.54.75.983 1.843 1.57 2.529l.04.081.671 1.374-.803.709c-.2.176-.4.41-.614.39a5.112 5.112 0 0 1-1.228 1.42l.234-1.582c.19.736.333 1.503.542 2.224-.139.14-.018.46-.073.647.05.412.239.397.313.708-.276.21-.143.738-.096 1.165.16.49.353.968.576 1.433a.74.74 0 0 1 .038.39c.127.295.237.598.329.906z"/><path fill="#333" d="M132.59 114.96c1.188 11.974 1.879 40.665-23.061 15.462-5.806-5.867-15.16-20.329 11.692-31.648 2.92-1.329 6.487-1.817 10.49-1.28a6.998 6.998 0 0 1 5.118 3.47 6.98 6.98 0 0 1 .36 6.169c-1.142 2.692-2.676 5.616-4.6 7.827z"/><ellipse cx="103.317" cy="114.395" fill="#FFC346" rx="7.143" ry="7.134"/><path fill="#333" d="M138.937 112.487c-.426.173-.935-.092-1.139-.592-.203-.5-.023-1.046.402-1.219.426-.172.936.093 1.14.593.203.5.023 1.045-.403 1.218zm-44.962 25.297a52.466 52.466 0 0 1-14.21 4.596c-26.747 4.78-28.658-22.924-14.022-23.811 14.637-.887 10.425-23.532 23.626-25.722 3.576-.593 6.985.97 10.056 3.563 13.666 11.544 10.573 33.41-5.45 41.374z"/><path fill="#FFC346" d="M270.14 91.021l-21.99-5.518c-9.863 52.502-44.063 44.525-84.084 43.67-18.732-.401-31.923 2.537-41.004 6.2-10.945 4.421-17.657 15.526-16.476 27.26l4.321 43.117a40.848 40.848 0 0 1-14.283 35.127c-15.095 12.878-27.299 47.193 35.393 43.623 100.304-5.712 56.52-104.676 56.52-104.676 84.233-12.54 77.852-56.093 81.602-88.803z"/><path d="M270.14 91.021l-21.99-5.518c-5.057 26.92-16.515 37.938-31.873 42.17l-3.14 26.421 56.26-55.225c.218-2.669.449-5.291.742-7.848zm-1.184-2.235c.08-.391.193-.775.34-1.147l.357-1.058.316-1.105.215-.799.19-.88.2-.92.146-.942c.102-.74.14-.533.193-1.158l.107-1.304.014-1.176a14.926 14.926 0 0 0-.279-2.666 15.001 15.001 0 0 0-.359-1.42 9.623 9.623 0 0 0-.463-1.157 7.49 7.49 0 0 0-.595-1.064 9.396 9.396 0 0 0-.827-1.099 12.055 12.055 0 0 0-1.106-1.097 5.107 5.107 0 0 0-.562-.453 6.074 6.074 0 0 0-.697-.47c-.8-.479-1.66-.85-2.558-1.104a18.265 18.265 0 0 0-3.185-.848 14.166 14.166 0 0 0-1.783-.136c-.493-.02-.723-.041-1.06-.042h-.211l.053-.185a7.35 7.35 0 0 1 .156-.49c.215-.587.322-.866.525-1.33.429-.918.926-1.888 1.356-2.884.218-.489.402-.992.55-1.506.167-.45.186-.941.056-1.403a.72.72 0 0 0-.688-.356 3.44 3.44 0 0 0-1.028.152 5.165 5.165 0 0 0-2.014.978 11.956 11.956 0 0 0-2.705 3.91c-.23.48-.503 1.131-.624 1.467a45.723 45.723 0 0 0-2.49 8.168 29.912 29.912 0 0 0-.402 1.741c-.241 1.043-.362 1.386-.557 2.27-.101.498-.185.925-.243 1.153l-.283 1.797c-.313 1.61-.604 3.746-.823 5.284-.054-.062.208-1.697.248-2.426.232-1.428.233-2.078.382-2.978.06-.367.007-.744-.15-1.08a9.366 9.366 0 0 0 .18-1.6 2.35 2.35 0 0 0 .062-1.225c.053-.486.202-.39.245-.965-.005-.839.403-2.25.108-2.69a3.8 3.8 0 0 0 .346-1.154c.087-.486.107-.982.058-1.473.129-.525.27-1.05.418-1.574.268-.781-.24-.766-.15-1.378.629-1.647 1.166-3.162 1.843-4.634a10.664 10.664 0 0 1 3.098-4.178c.385-.399.83-.733 1.32-.99l.36-.186.28-.112c.189-.073.362-.146.569-.207.44-.15.89-.261 1.349-.333a4.87 4.87 0 0 1 .98-.057c.238.023.474.063.707.118.312.093.608.231.878.412.261.187.487.418.668.683.092.132.174.27.247.413a3.41 3.41 0 0 1 .297 1.676 6.155 6.155 0 0 1-.365 1.607 14.15 14.15 0 0 0-.707 2.031 9.648 9.648 0 0 0-1.231 1.903c-.177.348-.334.704-.471 1.069a2.947 2.947 0 0 0-.218.836l-2.105-2.454c.338-.035.568-.058.835-.076 1.194.258 2.485.174 3.962.532a18.835 18.835 0 0 1 5.89 2.862c.504.437 1.157 1.01 1.23 1.389a8.331 8.331 0 0 1 2.504 4.158c.384 1.547.532 3.142.439 4.732-.185.166-.217.91-.35 1.228-.176.846-.027.991-.142 1.661-.348.14-.621 1.244-.913 2.06-.168.689-.316 1.21-.45 1.687-.155.471-.282.905-.414 1.42-.07.255-.188.494-.346.705-.105.377-.477 1.235-.723 1.868zM7.774 249.544c-.195.35-.42.681-.674.99l-.662.9-.637.957-.449.695-.448.78-.471.817-.427.852c-.323.674-.294.465-.537 1.045l-.498 1.209-.372 1.116c-.26.857-.443 1.735-.546 2.624-.056.542-.09 1.02-.09 1.462.002.416.031.831.088 1.244.048.404.129.803.243 1.193.119.444.27.878.453 1.299.21.475.45.936.719 1.38.118.21.25.412.398.603.158.232.331.452.52.66.616.7 1.323 1.314 2.1 1.83.87.673 1.799 1.268 2.776 1.775.538.258 1.091.482 1.657.67.464.17.677.26.997.363l.2.065-.106.16a6.96 6.96 0 0 1-.298.419c-.383.493-.57.726-.905 1.108-.688.744-1.457 1.516-2.17 2.334-.357.4-.685.823-.983 1.268-.296.378-.464.84-.48 1.319.025.252.24.44.547.548a3.4 3.4 0 0 0 1.025.168 5.155 5.155 0 0 0 2.217-.32 11.936 11.936 0 0 0 3.768-2.902c.365-.388.823-.925 1.04-1.208a45.737 45.737 0 0 0 4.861-7.023c.34-.53.56-.915.913-1.537.547-.92.767-1.21 1.222-1.993.248-.444.458-.825.583-1.025l.817-1.626c.788-1.438 1.716-3.385 2.393-4.783.033.075-.715 1.554-.975 2.236-.656 1.29-.855 1.908-1.271 2.72a1.863 1.863 0 0 0-.186 1.076c-.262.47-.482.96-.659 1.468a2.355 2.355 0 0 0-.433 1.149c-.198.446-.31.31-.527.845-.25.8-1.07 2.02-.922 2.53a3.755 3.755 0 0 0-.681.993 5.4 5.4 0 0 0-.504 1.385c-.283.462-.578.918-.878 1.373-.493.663-.004.803-.277 1.357-1.1 1.379-2.073 2.659-3.166 3.855a10.672 10.672 0 0 1-4.225 3.039 5.166 5.166 0 0 1-1.56.542l-.398.067-.302.022c-.2.012-.388.029-.604.024a8.05 8.05 0 0 1-1.387-.092 4.873 4.873 0 0 1-.95-.244 5.121 5.121 0 0 1-.638-.328 3.18 3.18 0 0 1-.711-.659 2.739 2.739 0 0 1-.429-.853 3.561 3.561 0 0 1-.109-.47 3.405 3.405 0 0 1 .228-1.685c.214-.51.496-.987.838-1.42a14.33 14.33 0 0 0 1.292-1.72 9.687 9.687 0 0 0 1.752-1.44c.274-.277.532-.568.774-.874.189-.22.345-.465.462-.73l1.258 2.977a21.922 21.922 0 0 1-.819-.181c-1.058-.609-2.314-.92-3.611-1.711a18.834 18.834 0 0 1-4.74-4.517c-.347-.569-.794-1.314-.75-1.696a8.348 8.348 0 0 1-1.116-4.722c.106-1.59.45-3.155 1.024-4.642.227-.101.484-.8.708-1.063.424-.753.327-.936.64-1.539.375-.028.971-.996 1.497-1.684.37-.606.67-1.056.943-1.47.291-.403.544-.777.827-1.229.145-.22.33-.412.545-.565.215-.327.83-1.032 1.257-1.56z" fill="#333"/><path fill="#FFC346" d="M123.062 135.373S42.202 154.586 3.11 247.496l23.518 11.636s43.458-62.835 105.647-68.124l-9.213-55.634z"/><path fill="#333" d="M197.817 231.076c.053.037.21.165.453.374l1.197 1.053a196.75 196.75 0 0 1 3.965 3.668 300.044 300.044 0 0 1 10.209 10.2 293.168 293.168 0 0 1 15.337 17.294c3.003 3.719 2.172 2.736 4.633 5.907a216.469 216.469 0 0 1 9.25 12.94 186.162 186.162 0 0 1 4.196 6.666 154.183 154.183 0 0 1 4.601 8.17c1.617 3.124 2.955 5.906 4.079 8.53 1.134 2.617 2.103 5.056 2.956 7.505a84.744 84.744 0 0 1 4.108 16.302c.477 3.346.687 6.724.627 10.103a55.838 55.838 0 0 1-1.163 10.056 49.795 49.795 0 0 1-6.795 16.684 46.266 46.266 0 0 1-7.154 8.438 50.183 50.183 0 0 1-8.188 6.143l-1.582.94c-.492.281-.961.518-1.395.755-.438.23-.842.459-1.24.657l-1.16.56-1.122.542-1.164.503-1.252.54-1.424.547c-1.041.412-1.904.69-2.664.943-.756.261-1.419.465-2.087.652-1.328.4-2.666.761-4.837 1.294-3.807.9-5.675 1.233-8.85 1.731a135.19 135.19 0 0 1-20.283 1.334c-6.81-.047-13.614-.44-20.385-1.178a272.08 272.08 0 0 1-47.287-9.626l.186-.03-9.177 6.759-8.218 6.08-5.127 3.75-.447.328.136-.536a8850.936 8850.936 0 0 0 11.73-46.767l2.782-11.042 3.708-14.4.873-3.453.017-.066.067.001 3.942.065 11.587.098 34.034.43-1.6-1.879-1.747-1.982c-.363-.409-.245-.315-.546-.662l-2.51-2.84c-1.035-1.227-1.568-1.844-2.595-2.942-.613-.69-.875-1.075-1.486-1.769a21.42 21.42 0 0 0-1.474-1.455c-.46-.62-1.104-1.4-1.452-1.95-.378-.473-.568-.591-.895-.963-.327-.392-.339-.541-.662-.935-.293-.336-.482-.46-.74-.723-.97-1.1-2.063-2.408-3.116-3.457-1.245-1.521-2.985-3.342-4.494-5.126a7.468 7.468 0 0 0-.83-.829 24.114 24.114 0 0 0-4.139-4.67 4.373 4.373 0 0 0-.835-.999 11.068 11.068 0 0 1-.735-1.6 2.102 2.102 0 0 1-.44-.751c-.36-.267-.708-.552-1.04-.854-.573-1.076-1.783-2.107-2.28-3.165.382-.268 1.013.775 1.494 1.062.626.847 1.055 1.096 1.456 1.625.203.212.483.333.777.333.213.327.47.622.763.878.257.392.463.564.638.612.234.262.096.317.39.61.458.388 1.042 1.28 1.404 1.313.12.265.282.51.48.723.225.265.48.5.762.703l.705.92c.34.479.467.218.757.533 1.397 2.038 2.738 3.509 4.007 5.318.796.88 1.233 1.54 1.967 2.336.582.714 1.314 1.782 1.804 2.27a28.733 28.733 0 0 0 2.427 3.07c.444.64 1.019 1.271 1.629 2.04.81 1.022 1.82 2.355 2.613 3.291.255.33.596.74.698.919 1.3 1.51 2.606 3.242 3.915 4.856.05.103.377.501.508.686.37.473.449.53.746.9.291.43.605.843.94 1.24l1.49 1.793.351.439.896 1.081h.032l-.03.003.03.035-.03-.035c-.711.043-10.952-.118-15.494-.101-9.212-.124-13.298-.067-19.1-.13a61.528 61.528 0 0 0-6.609.26c-2.773-.011-6.098-.056-8.37-.041l.49-.378a50.209 50.209 0 0 0-.384 1.768c-1.011 3.945-1.509 6.203-1.702 7.496-.703 2.99-.767 2.562-1.573 6.084-1.088 5.06-3.426 14.018-3.592 16.3-.443 1.378-1.156 4.267-1.895 7.308a177.317 177.317 0 0 0-1.878 8.804l-2.43 9.826c-1.28 4.964-.552 4.08-1.366 7.723l-2.743 10.737-3.07-2.054 22.477-16.652.819-.607 1.007.307c5.94 1.811 12.049 3.38 18.332 4.89 5.06.999 9.271 1.793 13.384 2.486 4.112.694 8.13 1.282 12.807 1.71 3.97.45 8.733.97 13.259 1.254 3.92.292 7.854.355 11.782.191 2.267.103 4.776.073 7.446-.03 2.668-.128 5.49-.373 8.38-.743a84.242 84.242 0 0 0 17.247-4.099 51.253 51.253 0 0 0 9.597-4.02 51.977 51.977 0 0 0 9.528-6.615 45.586 45.586 0 0 0 10.834-14.054 46.087 46.087 0 0 0 4.6-16.763 53.46 53.46 0 0 0 .266-5.559l-.04-4.228a83.922 83.922 0 0 0-2.35-12.812 109.584 109.584 0 0 0-4.28-12.76 149.426 149.426 0 0 0-12.641-24.181 31.081 31.081 0 0 0-1.691-2.88l-2.208-3.441c-1.453-2.176-2.373-3.38-3.207-4.474-.839-1.091-1.607-2.063-2.847-3.72-.398-1.089-4.698-6.706-8.145-10.882-5.822-6.785-9.01-10.256-13.73-15.049-2.205-2.282-2.69-2.82-3.388-3.574-1.772-1.725-5.967-5.876-9.197-8.74l-.01.13c-20.833-13.862-51.812-18.233-47.102-31.494 5.756-16.205 37.831-19.892 37.831-19.892s11.25 25.43 9.281 51.251zm-76.55 87.266l-.397-.617-.765-1.163-1.286-1.825c-.267-.376-.151-.303-.367-.624-.682-.964-1.03-1.533-1.817-2.634a30.971 30.971 0 0 0-1.843-2.752c-.433-.648-.576-1.019-1.005-1.67-.34-.477-.713-.93-1.115-1.356-.278-.594-.703-1.334-.892-1.858-.248-.446-.41-.556-.635-.91-.218-.37-.187-.511-.404-.882a8.998 8.998 0 0 0-.54-.686c-.665-1.044-1.4-2.28-2.135-3.295-.826-1.44-2.006-3.203-2.993-4.91a9.064 9.064 0 0 0-.546-.821 39.091 39.091 0 0 0-2.667-4.54 9.008 9.008 0 0 0-.536-.96c-.304-.586-.342-.822-.595-1.319a6.426 6.426 0 0 1-.337-.642c-.18-.248-.41-.628-.608-.937-.476-.889-1.16-2.022-1.633-2.85.017.03.55.895.796 1.267.464.757.692 1.078.988 1.552.112.184.249.351.407.497.194.295.422.676.544.817.119.218.264.421.431.605.167.245.11.235.31.52.287.457.608.891.961 1.299.108.218.232.427.371.627.161.242.34.473.533.69l.524.825c.254.424.315.269.528.56 1.054 1.789 2.032 3.157 2.942 4.78.585.814.888 1.406 1.43 2.145.423.652.92 1.623 1.29 2.078a20.154 20.154 0 0 0 1.714 2.82c.29.592.717 1.173 1.143 1.883.565.944 1.235 2.187 1.805 3.052.175.274.328.562.458.86.95 1.39 1.787 3.021 2.673 4.535.089.225.19.444.303.658.24.447.321.49.518.838.14.42.331.82.568 1.193.448.737.673 1.132 1.022 1.68.155.264.181.33.226.418l.63 1.052z"/><path fill="#F5F5F6" d="M3.138 247.506a3.32 3.32 0 0 1 .154-.399l.44-1.03 1.525-3.479.977-2.209c.338-.77.685-1.565 1.086-2.344l2.28-4.618c.526-1.04 1.026-2.182 1.663-3.315l1.928-3.549c.669-1.214 1.325-2.472 2.037-3.708l2.2-3.676 1.475-2.43c.284-.467.538-.874 1.323-2.048l3.23-4.92c1.004-1.519 2.05-2.89 3.064-4.331 2.014-2.894 4.307-5.78 7.367-9.645l4.302-5.073 3.824-4.194c1.205-1.37 2.5-2.627 3.838-4.012l2.094-2.145c.741-.732 1.539-1.475 2.372-2.277l2.78-2.629 2.474-2.173 2.476-2.171 2.952-2.434c1.912-1.625 3.706-2.99 5.35-4.278 1.63-1.308 3.2-2.422 4.683-3.522 1.917-1.407 4.232-2.889 6.427-4.373l3.256-2.044 1.493-.93 1.374-.802c1.607-.942 2.675-1.608 3.696-2.19l3.304-1.863c1.377-.759 2.257-1.18 3.12-1.63.868-.444 1.732-.893 3.147-1.576a200.263 200.263 0 0 1 5.707-2.762 135.992 135.992 0 0 1 20.462-7.54l-.027.01a73.494 73.494 0 0 1 6.483-2.262 100.186 100.186 0 0 1 19.827-3.542c3.586-.295 7.254-.455 10.924-.46 3.67.001 7.338.117 10.935.252l7.19.27c6.254.284 13.084.601 19.73.408 6.64-.163 13.106-.928 18.413-2.472.339-.092.669-.168.983-.265l.915-.303c.598-.201 1.18-.388 1.767-.596 1.144-.494 2.374-.914 3.783-1.668.532-.271 1.035-.492 1.477-.745l1.226-.721 1.082-.638.95-.66a33.445 33.445 0 0 0 3.867-3.06l1.161-1.149c.355-.332.692-.683 1.01-1.05l1.427-1.643c.376-.41.7-.941 1.096-1.467.378-.538.806-1.088 1.194-1.684.372-.605.75-1.223 1.124-1.83l.551-.906.473-.909a59.468 59.468 0 0 0 4.657-11.145c.298-1.005.66-1.989.9-2.994l.767-2.954c.483-1.936.83-3.812 1.21-5.508-.002.125-.388 2-.854 4.241-.238 1.12-.58 2.312-.855 3.434l-.406 1.599-.393 1.336c-.483 1.546-.883 2.881-1.342 4.038-.446 1.161-.763 2.212-1.195 3.137l-1.149 2.673-1.337 2.588c-.3.626-.599 1.1-.826 1.514-.23.412-.407.75-.556 1.05-.303.597-.466 1.056-.784 1.585a37.973 37.973 0 0 1-2.466 3.25l-1.166 1.396c-.373.39-.686.728-.909.988-.527.5-.961.985-1.404 1.359l-1.153 1.012-.857.793c-.255.212-.466.396-.637.557-.56.427-1.142.824-1.742 1.19-.468.25-.973.524-2.066 1.221-.779.508-1.782.988-2.814 1.544-.53.248-1.085.476-1.634.717-.552.232-1.093.495-1.646.675-2.174.838-4.16 1.393-4.895 1.804-1.035.13-3.114.627-5.326.969l-6.358 1.026c-1.2.114-2.4.148-3.603.225-1.201.055-2.4.076-3.601.116-3.64-.017-2.907.481-5.56.541-7.636-.205-14.479-.562-21.106-.741-6.643-.212-12.971-.25-19.652.141-3.574.408-6.53.793-9.385 1.28a66.01 66.01 0 0 0-8.71 2.052c-2.4.676-5.213 1.528-7.862 2.55l-.165.065-.141.033a61.958 61.958 0 0 0-4.772 1.36c-1.487.492-2.82.98-3.868 1.448a78.52 78.52 0 0 0-10.468 3.907 139.073 139.073 0 0 0-11.256 5.716c-4.27 2.04-8.696 4.786-13.723 8.009-1.677 1.063-3.437 2.256-5.278 3.442-1.795 1.252-3.661 2.516-5.474 3.83-1.786 1.348-3.6 2.641-5.253 3.987-1.647 1.355-3.248 2.623-4.642 3.871l-3.045 2.604c-.491.416-.955.801-1.362 1.125-.398.334-.736.61-.993.787a282.57 282.57 0 0 1-3.301 3.22c-1.132 1.06-2.19 2.214-3.311 3.32-2.258 2.199-4.407 4.558-6.62 6.883a40.856 40.856 0 0 0-1.621 1.782l-1.596 1.812-1.599 1.812c-.538.6-1.066 1.208-1.565 1.84-2.017 2.507-4.11 4.95-5.958 7.54-.543.45-2.41 2.988-3.307 4.053-2.128 3.002-2.294 3.584-3.944 5.98-.373.223-1.206 1.396-2.21 2.91a299 299 0 0 0-3.214 4.967l-3.772 6.767c-1.042 1.942-1.898 3.762-2.943 5.884-1.008 1.99-1.301 2.413-1.633 3.055-.685 1.602-2.436 5.375-3.692 8.142z"/><path fill="#F5F5F6" d="M110.937 205.743a5.863 5.863 0 0 1-.379-1.24c-.118-.374-.25-.85-.38-1.307-.077-.27-.022-.206-.082-.434-.196-.735-.28-1.053-.503-1.883a23.841 23.841 0 0 0-.496-1.956c-.117-.46-.139-.7-.254-1.161-.113-.404-.224-.72-.334-1.011-.057-.394-.164-.903-.194-1.238-.06-.305-.117-.404-.177-.651-.056-.257-.031-.327-.087-.584-.054-.223-.106-.325-.159-.506-.178-.733-.37-1.588-.58-2.32l-.8-3.414c-.051-.194-.105-.455-.155-.581a28.895 28.895 0 0 0-.716-3.128 5.92 5.92 0 0 0-.14-.655c-.074-.394-.055-.537-.11-.872a3.606 3.606 0 0 1-.073-.436c-.06-.177-.125-.44-.186-.655-.1-.607-.309-1.386-.405-1.961.06.007.151.622.28.87.093.364.206.723.337 1.074.08.219.25.235.411.302.078.202.112.473.244.557.035.238.131.355.273.4.085.165-.083.18.038.37.244.255.28.806.694.845-.073.104-.02.272.045.445.095.189.246.343.433.442l.169.572c.037.3.5.129.645.32.111 1.274.726 2.18.693 3.351.375.539.274.978.649 1.461.161.45-.004 1.17.343 1.452-.316.629.01 1.344.353 1.984-.139.442.163.822.237 1.323.096.666-.008 1.573.24 2.163-.002.22.078.484-.085.63.505.934.24 2.14.341 3.215-.165.098-.12.36-.216.501-.044.328.142.334.143.584-.312.141-.302.566-.354.906.044.398.122.791.233 1.176a.491.491 0 0 1-.05.31c.057.243.095.49.114.74z"/><g fill="#333"><path d="M212.285 154.773c-.39-.61 9.284-10.008 16.22-17.013 4.886-5.115 11.2-11.477 17.253-17.61 3.586-3.62 2.79-2.474 5.825-5.492l25.004-24.99c10.772-10.434 16.164-15.79 26.004-25.76 6.125-6.065 9.336-8.96 15.462-15.028a727.513 727.513 0 0 0 13.39-13.828c5.26-4.915 12.038-11.48 16.507-15.533 4.058-3.916 5.359-5.425 8.65-8.672 3.408-3.321 4.366-3.976 7.773-7.296l.916-.912.678 1.215c-3.258.82-5.105 1.381-8.033 2.136-13.3 3.244-28.784 6.94-42.168 10.376-17.863 4.22-40.626 9.926-61.847 15-3.535.895-8.226 1.997-10.572 2.678-18.542 4.095-40.34 9.484-56.598 13.746-4.18.875-7.102 1.66-11.822 2.824-7.098 1.626-9.552 1.88-15.561 3.183-3.36.796-6.245 1.45-7.822 1.717-3.249.921-8.025 2.116-11.948 3.158-10.89 2.346-25.054 6.042-35.386 8.223.256-.54 11.228-3.003 15.978-4.35 9.563-2.247 13.753-3.448 19.773-4.874a55.762 55.762 0 0 0 6.747-2.068c3.789-.914 8.586-2.01 10.54-2.594 4.238-.968 6.622-1.605 7.944-2.05 3.182-.79 2.805-.53 6.542-1.486 5.336-1.425 14.972-3.623 17.235-4.497 1.52-.275 4.609-1.015 7.855-1.8 3.92-.963 6.714-1.725 9.289-2.447l10.509-2.51c5.33-1.243 4.173-1.32 8.036-2.3 22.38-5.171 40.38-9.727 60.415-14.354 10.733-2.723 17.893-4.331 27.683-6.84 8.356-2.046 20.091-4.698 26.312-6.361 7.28-1.567 16.869-3.895 26.467-6.288l3.867-.964-2.826 2.83-6.582 6.59c-5.249 4.993-10.829 10.669-17.353 17.086-8.675 8.531-19.889 19.365-27.97 27.476-2.784 2.711-6.31 6.231-7.74 7.47-13.065 13.24-27.643 27.252-41.445 40.87-.856.615-4.26 4.002-5.839 5.404-4.046 3.872-4.527 4.632-7.689 7.732-1.104.568-6.522 5.83-10.738 9.783-6.768 6.73-10.429 10.17-15.386 15.368a37.991 37.991 0 0 1-3.91 3.515c-1.796 1.943-6.362 6.302-9.64 9.537z"/><path d="M104.097 66.837c.12-.7 5.658-.154 9.721.054 2.925.022 6.619.223 10.172.39 2.1.11 1.515.32 3.276.443 5.371.276 8.4.599 14.556.932 6.156.629 9.284.852 15.059 1.126 3.546.266 5.307.601 8.854.867 3.13.175 5.634.206 7.95.192 2.943.431 6.816.827 9.275 1.277 2.313.247 3.143.152 5.044.303 1.955.186 2.407.43 4.361.614 1.712.135 2.552.067 3.963.132 5.628.439 12.165 1.028 17.859 1.303 3.15.301 6.673.582 10.402.869l1.123.086-.173 1.122c-.774 5.038-1.584 10.436-2.442 15.594-.2 1.489-.544 3.444-.593 4.454-1.609 7.661-2.957 16.811-3.732 23.696-.409 1.715-.53 2.957-.825 4.938-.56 2.947-1.046 3.89-1.59 6.367a26.157 26.157 0 0 1-.689 3.229c-.089 1.393-.37 3.401-.545 5.066-1 4.485-1.692 10.479-2.684 14.723-.435-.226.48-4.77.61-6.806.701-3.985.804-5.785 1.236-8.297.16-.97.173-1.957.038-2.93.256-1.586.639-3.577.663-4.422.255-1.101.393-2.226.41-3.356.193-1.337.328-1.137.529-2.713.229-2.267 1-6.265.842-7.294.263-1.076.47-2.164.62-3.262.247-1.644.353-2.834.431-3.936l.733-4.39c.4-2.218-.015-1.823.201-3.45 1.726-9.305 2.739-16.887 4.286-25.216l.326-2.34 1.046 1.33c-3.358-.237-5.98-.513-9.368-.681-3.538-.268-8.466-.856-11.124-.922-4.006-.579-9.766-.962-15.006-1.27-2.967-.369-6.25-.509-10.013-.823-5.002-.418-11.4-1.091-16.117-1.37-1.595-.151-3.647-.285-4.414-.47-7.669-.36-15.962-1.286-23.935-1.921-.415-.197-2.391-.334-3.25-.513-2.295-.27-2.672-.095-4.492-.255-.457-.408-3.558-.715-5.922-1.05-3.928-.276-5.984-.562-8.954-.58a6.638 6.638 0 0 1-2.14-.415c-1.097.035-3.684-.275-5.578-.425z"/></g></g></g></g></svg>