<svg xmlns="http://www.w3.org/2000/svg" xmlns:xlink="http://www.w3.org/1999/xlink" width="442" height="235" viewBox="0 0 442 235"><defs><rect id="a" width="442" height="235" rx="1"/></defs><g fill="none" fill-rule="evenodd"><mask id="b" fill="#fff"><use xlink:href="#a"/></mask><use fill="#F5F5F6" xlink:href="#a"/><g mask="url(#b)"><g fill-rule="nonzero" transform="rotate(2 444.475 7406.669)"><path d="M163.534 35.507l7.952 13.131-1.227 13.558L236.087.036zM60.337 173.026l17.35 29.564 52.804.801-11.985-3.054a19.627 19.627 0 0 1-12.225-9.314 11.542 11.542 0 0 1 2.412-14.374c5.905-5.2 13.361-13.142 14.092-20.603 1.227-12.517-34.772-.466-34.772-.466" fill="#EAEAEA"/><path fill="#333" d="M93.137 75.613a6.12 6.12 0 0 1-.47-.941l-.48-.992c-.099-.206-.053-.16-.132-.333l-.665-1.434-.25-.583-.024-.055.038-.045c.211-.25.388-.468.632-.78.16-.193.276-.318.408-.464l-.008.132a5.26 5.26 0 0 0-.193-.283 7.033 7.033 0 0 0-.558-.65c-.178-.267-.44-.595-.59-.819-.16-.194-.232-.25-.37-.4-.141-.16-.154-.216-.299-.372-.128-.134-.2-.19-.312-.293a14.42 14.42 0 0 0-1.428-1.3 13.764 13.764 0 0 0-2.322-1.6 3.624 3.624 0 0 0-.436-.207 6.645 6.645 0 0 0-2.44-.781 4.312 4.312 0 0 0-.532-.062c-.32-.03-.428-.051-.702-.07a3.552 3.552 0 0 1-.357.015 4.505 4.505 0 0 0-.541.096 7.117 7.117 0 0 0-1.555.442c.003-.036.48-.198.677-.307.427-.11.6-.226.88-.27.184-.05.213-.163.287-.261.173-.008.343-.046.503-.113.205-.005.32-.034.387-.118.158-.027.135.077.32.032.27-.091.739.003.892-.21a.654.654 0 0 0 .384.107c.173.011.347-.017.508-.083.176.036.35.08.52.135.25.107.305-.206.517-.19.524.263 1.009.456 1.457.682.456.201.873.482 1.23.83.53.186.735.504 1.216.689.344.242.637.777.976.865.146.526.671.923 1.166 1.293.12.352.462.55.718.901.34.473.621 1.16.993 1.591l.025.051.424.865-.508.446c-.126.11-.253.258-.388.245a3.225 3.225 0 0 1-.776.894l.148-.996c.12.463.21.946.342 1.399-.087.089-.011.29-.046.407.031.26.151.25.198.445-.174.133-.09.465-.06.733.1.308.222.61.363.902.03.078.039.163.024.245.081.186.15.376.208.57z"/><path fill="#333" d="M83.796 72.318c.752 7.533 1.188 25.582-14.574 9.727-3.669-3.69-9.581-12.788 7.39-19.91 1.845-.835 4.1-1.142 6.63-.804a4.421 4.421 0 0 1 3.234 2.183 4.375 4.375 0 0 1 .228 3.88c-.722 1.694-1.692 3.534-2.908 4.924z"/><ellipse cx="65.296" cy="71.963" fill="#FFC346" rx="4.514" ry="4.488"/><path fill="#333" d="M87.808 70.763c-.269.108-.591-.059-.72-.373-.128-.315-.014-.658.255-.766.269-.11.59.058.72.372.128.315.014.658-.255.767zM59.392 86.676a33.246 33.246 0 0 1-8.98 2.891C33.507 92.574 32.3 75.147 41.55 74.588c9.25-.557 6.588-14.803 14.932-16.18 2.26-.373 4.414.61 6.355 2.241 8.637 7.262 6.682 21.017-3.445 26.027z"/><path fill="#FFC346" d="M170.728 57.259l-13.897-3.471c-6.234 33.027-27.848 28.01-53.141 27.471-11.839-.252-20.175 1.597-25.915 3.901-6.917 2.781-11.16 9.767-10.413 17.148l2.731 27.124a25.636 25.636 0 0 1-9.027 22.097c-9.54 8.102-17.252 29.689 22.369 27.443 63.392-3.594 35.72-65.85 35.72-65.85 53.236-7.888 49.203-35.286 51.573-55.863z"/><path d="M170.728 57.258l-13.898-3.47c-3.196 16.934-10.437 23.865-20.144 26.527l-1.985 16.621 35.557-34.74c.138-1.68.284-3.33.469-4.937zm-.748-1.405a4.22 4.22 0 0 1 .215-.722l.226-.666.2-.695.135-.502.12-.554.126-.58.093-.592c.065-.465.088-.334.122-.728l.068-.82.009-.74a9.45 9.45 0 0 0-.177-1.677 9.164 9.164 0 0 0-.227-.893 5.95 5.95 0 0 0-.293-.728 4.68 4.68 0 0 0-.375-.67 5.93 5.93 0 0 0-.523-.69 7.342 7.342 0 0 0-.699-.69c-.111-.104-.23-.2-.355-.286a4.076 4.076 0 0 0-.44-.296 6.737 6.737 0 0 0-1.618-.694 11.54 11.54 0 0 0-2.012-.534 9.05 9.05 0 0 0-1.127-.085c-.312-.013-.457-.026-.67-.027h-.133l.033-.116c.025-.087.055-.186.099-.308.136-.37.203-.545.332-.837.27-.577.585-1.187.857-1.814.137-.307.253-.624.347-.948.105-.283.118-.591.036-.882a.458.458 0 0 0-.436-.224 2.173 2.173 0 0 0-.65.096c-.464.11-.898.32-1.272.615a7.52 7.52 0 0 0-1.71 2.46c-.145.302-.317.711-.394.923a28.757 28.757 0 0 0-1.574 5.137c-.102.382-.16.656-.254 1.096-.152.656-.228.872-.351 1.428-.065.313-.117.582-.154.725l-.179 1.13c-.198 1.014-.382 2.357-.52 3.325-.034-.04.131-1.068.157-1.526.146-.899.147-1.308.241-1.874.038-.23.004-.468-.095-.68a5.86 5.86 0 0 0 .114-1.006c.081-.249.095-.515.04-.77.033-.306.127-.246.154-.608-.003-.527.255-1.415.068-1.692.112-.229.186-.474.22-.726a3.42 3.42 0 0 0 .036-.926c.08-.33.17-.66.264-.99.169-.492-.152-.482-.095-.867.397-1.036.737-1.99 1.165-2.915a6.7 6.7 0 0 1 1.958-2.629c.243-.25.524-.46.834-.623l.227-.116.178-.07c.119-.047.228-.093.359-.131.277-.094.563-.164.852-.21.205-.033.413-.044.62-.035.15.014.3.039.447.074.197.058.384.145.555.259.165.117.308.263.422.43.058.083.11.17.156.26a2.14 2.14 0 0 1 .187 1.053c-.03.347-.108.687-.23 1.012-.182.414-.33.841-.447 1.278a6.039 6.039 0 0 0-.778 1.197c-.112.218-.21.443-.298.672a1.881 1.881 0 0 0-.137.526l-1.33-1.544c.213-.022.358-.036.527-.048.755.163 1.57.11 2.504.335 1.337.38 2.597.989 3.723 1.8.318.275.73.636.777.874a5.237 5.237 0 0 1 1.582 2.616c.243.973.336 1.976.278 2.977-.117.104-.137.572-.222.772-.11.533-.017.624-.09 1.045-.22.089-.392.782-.576 1.296-.106.433-.2.76-.285 1.061-.097.297-.178.57-.26.894-.046.16-.12.31-.22.443-.066.237-.301.777-.457 1.175zM4.913 156.981a4.26 4.26 0 0 1-.426.623l-.418.565-.403.603-.283.437-.284.491-.297.514-.27.536c-.204.424-.186.292-.34.657l-.315.76-.235.703a9.397 9.397 0 0 0-.345 1.65 9.408 9.408 0 0 0-.057.92c.002.262.02.523.056.782.03.254.082.506.154.751.075.28.17.552.286.817.132.299.284.59.454.869.075.132.16.259.252.379.1.145.21.284.328.415.39.44.837.827 1.328 1.15.55.425 1.137.799 1.754 1.118.34.162.69.303 1.048.422.293.107.427.163.63.228l.127.04-.068.1a4.07 4.07 0 0 1-.188.264c-.242.311-.36.458-.572.697-.435.468-.921.954-1.372 1.469a7.259 7.259 0 0 0-.621.798 1.423 1.423 0 0 0-.304.83c.017.158.153.276.346.344.21.068.428.104.649.106.476.035.954-.033 1.4-.201a7.532 7.532 0 0 0 2.381-1.826c.231-.244.52-.582.658-.76a28.728 28.728 0 0 0 3.072-4.418c.215-.333.354-.576.577-.967.346-.58.485-.761.772-1.254.157-.279.29-.519.369-.644l.516-1.023c.498-.905 1.085-2.13 1.513-3.01.02.048-.452.979-.616 1.407-.415.812-.54 1.201-.804 1.712a1.17 1.17 0 0 0-.118.676 5.936 5.936 0 0 0-.416.924 1.472 1.472 0 0 0-.273.723c-.126.28-.197.195-.333.531-.159.503-.676 1.272-.583 1.591a2.368 2.368 0 0 0-.43.625 3.359 3.359 0 0 0-.32.872c-.178.29-.364.577-.554.863-.312.417-.003.505-.175.854-.695.867-1.31 1.673-2.001 2.425a6.75 6.75 0 0 1-2.67 1.912c-.308.165-.641.28-.986.34-.085.015-.169.03-.252.043l-.19.014c-.128.007-.246.018-.382.015a5.143 5.143 0 0 1-.877-.058 3.019 3.019 0 0 1-.6-.153 3.256 3.256 0 0 1-.403-.207 2.013 2.013 0 0 1-.45-.414 1.707 1.707 0 0 1-.27-.537 2.143 2.143 0 0 1-.07-.295 2.11 2.11 0 0 1 .145-1.06 3.77 3.77 0 0 1 .529-.894c.299-.34.572-.702.816-1.082a6.104 6.104 0 0 0 1.108-.905c.173-.175.336-.358.489-.55.12-.139.218-.293.292-.46l.795 1.873a13.34 13.34 0 0 1-.517-.114c-.67-.383-1.463-.579-2.283-1.076a11.889 11.889 0 0 1-2.996-2.841c-.219-.359-.501-.827-.473-1.068a5.222 5.222 0 0 1-.706-2.97c.066-1 .284-1.985.646-2.92.144-.064.306-.504.448-.669.268-.473.207-.589.405-.968.237-.018.613-.627.946-1.06.234-.38.423-.664.596-.925.184-.253.343-.488.522-.772.092-.139.209-.26.345-.356.135-.206.524-.649.794-.98z" fill="#333"/><path fill="#FFC346" d="M77.775 85.16s-51.103 12.086-75.81 70.533l14.864 7.32s27.465-39.528 66.769-42.855L77.775 85.16z"/><path fill="#333" d="M125.02 145.364c.034.023.133.104.286.235l.757.663c.636.567 1.512 1.368 2.506 2.307 1.99 1.876 4.437 4.31 6.452 6.416a184.842 184.842 0 0 1 9.693 10.88c1.898 2.34 1.373 1.721 2.928 3.716a135.87 135.87 0 0 1 5.846 8.14 115.384 115.384 0 0 1 2.652 4.194 96.2 96.2 0 0 1 2.908 5.139c1.022 1.966 1.867 3.715 2.578 5.366a67.212 67.212 0 0 1 1.868 4.721 53.12 53.12 0 0 1 2.596 10.256c.302 2.104.435 4.23.397 6.355a35.052 35.052 0 0 1-.736 6.326 31.229 31.229 0 0 1-4.294 10.495 29.12 29.12 0 0 1-4.521 5.308 31.702 31.702 0 0 1-5.175 3.865l-1 .59c-.311.178-.607.327-.882.476-.276.145-.532.289-.783.413l-.734.353-.708.34-.736.317-.791.34-.9.344c-.659.26-1.204.434-1.684.593a22.48 22.48 0 0 1-1.319.41c-.84.252-1.685.48-3.057.814a63.175 63.175 0 0 1-5.593 1.09c-4.246.599-8.53.88-12.819.838a127.472 127.472 0 0 1-12.883-.74 172.666 172.666 0 0 1-29.886-6.056l.118-.02-5.8 4.253-5.194 3.825-3.24 2.359-.283.206.086-.337c2.534-9.92 5.297-20.929 7.413-29.42.62-2.444 1.056-4.169 1.759-6.946l2.344-9.06.551-2.171.01-.042.043.001 2.491.04c2.005.018 4.918.042 7.323.062l21.51.271-1.011-1.182-1.104-1.247c-.23-.257-.155-.198-.346-.416l-1.585-1.786a40.32 40.32 0 0 0-1.64-1.851c-.388-.435-.554-.677-.94-1.113-.35-.377-.646-.662-.932-.916-.29-.39-.697-.88-.917-1.227-.239-.297-.359-.371-.566-.605-.206-.247-.214-.34-.418-.588-.186-.212-.304-.29-.468-.455-.613-.692-1.304-1.515-1.969-2.175-.787-.957-1.886-2.102-2.84-3.225a4.687 4.687 0 0 0-.525-.52 15.176 15.176 0 0 0-2.616-2.939 2.733 2.733 0 0 0-.527-.628 6.952 6.952 0 0 1-.465-1.007 1.288 1.288 0 0 1-.277-.472 8.292 8.292 0 0 1-.658-.538c-.362-.676-1.127-1.325-1.441-1.99.241-.169.64.487.944.667.395.534.667.69.92 1.023.128.133.306.21.491.21.135.205.297.39.483.552.162.246.292.355.402.385.149.164.062.2.247.383.29.245.659.805.887.826.076.167.179.32.304.455.142.167.304.315.482.443l.445.578c.215.301.295.138.478.335.884 1.282 1.731 2.208 2.533 3.346.503.553.779.968 1.243 1.47.368.449.83 1.12 1.14 1.428.467.677.98 1.322 1.534 1.93.28.403.644.8 1.03 1.284.511.643 1.15 1.482 1.65 2.07.162.207.378.466.442.578.821.95 1.647 2.04 2.474 3.055.032.065.238.315.321.432.234.297.284.333.472.565.184.27.382.531.594.78l.941 1.129.222.276.567.68h.02l-.019.002.018.022-.018-.022c-.45.027-6.922-.074-9.792-.064-5.822-.077-8.404-.042-12.071-.08a38.827 38.827 0 0 0-4.177.162c-1.753-.007-3.854-.035-5.29-.026l.31-.237c-.105.447-.188.827-.243 1.112-.64 2.482-.954 3.902-1.076 4.716-.444 1.88-.485 1.61-.994 3.827-.687 3.183-2.165 8.818-2.27 10.254-.28.866-.73 2.684-1.198 4.596a112.121 112.121 0 0 0-1.187 5.54l-1.536 6.18c-.808 3.123-.348 2.567-.863 4.859L65 250.484l-1.94-1.292 14.205-10.475.517-.382.637.193c3.755 1.14 7.615 2.126 11.586 3.076a307.84 307.84 0 0 0 8.459 1.564c2.598.436 5.138.806 8.093 1.076 2.51.282 5.52.61 8.38.789 2.478.183 4.964.223 7.446.12 1.433.064 3.02.046 4.706-.02 1.686-.08 3.47-.234 5.296-.466a53.367 53.367 0 0 0 10.9-2.58 32.461 32.461 0 0 0 6.066-2.528 32.915 32.915 0 0 0 6.022-4.161 28.725 28.725 0 0 0 6.847-8.841 28.893 28.893 0 0 0 2.907-10.545c.117-1.162.173-2.33.168-3.497l-.025-2.66a52.54 52.54 0 0 0-1.486-8.06 68.816 68.816 0 0 0-2.704-8.027 93.832 93.832 0 0 0-7.99-15.212 19.584 19.584 0 0 0-1.068-1.811l-1.396-2.165c-.918-1.37-1.5-2.126-2.027-2.814-.53-.687-1.015-1.298-1.8-2.34-.25-.685-2.968-4.219-5.146-6.846-3.68-4.269-5.695-6.452-8.678-9.467-1.394-1.436-1.7-1.774-2.141-2.249-1.12-1.085-3.771-3.696-5.813-5.498l-.006.082c-13.167-8.72-32.745-11.47-29.768-19.812 3.637-10.194 23.909-12.513 23.909-12.513s7.11 15.997 5.866 32.24zM76.64 200.26l-.25-.388-.484-.731-.813-1.148c-.168-.237-.095-.19-.231-.393-.431-.606-.651-.964-1.149-1.657a19.165 19.165 0 0 0-1.165-1.73c-.273-.408-.363-.642-.635-1.052a7.98 7.98 0 0 0-.705-.853c-.175-.373-.444-.838-.563-1.168-.157-.28-.26-.35-.401-.572-.138-.233-.118-.322-.256-.556a5.245 5.245 0 0 0-.341-.431c-.42-.657-.885-1.435-1.35-2.073-.521-.905-1.267-2.015-1.89-3.09a5.935 5.935 0 0 0-.346-.515 24.65 24.65 0 0 0-1.685-2.856 5.43 5.43 0 0 0-.34-.604c-.191-.369-.215-.517-.375-.83a4.086 4.086 0 0 1-.214-.403c-.113-.156-.259-.396-.383-.59-.302-.56-.733-1.272-1.032-1.793.01.019.347.563.502.797.294.476.438.678.625.977.07.115.157.22.257.312.122.185.267.425.344.514.075.137.166.265.272.38.106.155.07.149.196.328.182.288.385.56.608.817.068.137.146.269.234.394.102.153.215.298.337.435l.331.518c.16.267.199.17.333.353.667 1.125 1.285 1.986 1.86 3.006.37.513.561.885.904 1.35.267.41.58 1.021.815 1.307.312.62.674 1.214 1.083 1.775.183.372.454.737.723 1.184.357.593.78 1.376 1.14 1.92.111.172.208.353.29.54.6.875 1.13 1.901 1.69 2.854.055.14.12.28.191.413.151.282.203.309.327.528.09.263.21.515.359.75.283.464.425.712.646 1.057.098.166.115.207.143.263l.398.661z"/><path fill="#F5F5F6" d="M1.983 155.7c.027-.086.06-.17.098-.251l.277-.649.965-2.188.617-1.39c.213-.483.433-.984.686-1.474l1.44-2.905c.333-.654.65-1.373 1.052-2.085l1.219-2.233c.422-.764.837-1.555 1.287-2.333l1.39-2.312.933-1.528c.18-.295.34-.55.836-1.29l2.041-3.094c.635-.955 1.295-1.818 1.937-2.725 1.272-1.82 2.722-3.635 4.656-6.067l2.718-3.192 2.417-2.638c.762-.861 1.58-1.652 2.426-2.523l1.324-1.35c.468-.46.972-.928 1.499-1.432l1.756-1.653 1.564-1.367 1.565-1.366 1.866-1.53c1.208-1.023 2.341-1.882 3.381-2.692 1.03-.823 2.022-1.523 2.959-2.216 1.212-.885 2.675-1.817 4.062-2.75l2.058-1.286.943-.585.87-.505c1.014-.592 1.69-1.011 2.335-1.377l2.088-1.173c.87-.477 1.426-.742 1.972-1.025.548-.28 1.094-.562 1.989-.991a127.903 127.903 0 0 1 3.606-1.738 86.183 86.183 0 0 1 12.932-4.743l-.017.006a47.147 47.147 0 0 1 4.098-1.423 63.564 63.564 0 0 1 12.53-2.228 86.976 86.976 0 0 1 6.904-.29c2.32.001 4.638.074 6.911.16 1.519.056 3.519.13 4.544.17 3.952.178 8.27.377 12.47.256 4.196-.103 8.282-.584 11.637-1.556.214-.057.422-.105.62-.166.198-.065.39-.129.58-.19.377-.127.745-.244 1.116-.376.723-.31 1.5-.575 2.39-1.05.337-.17.655-.309.934-.468l.775-.453.684-.402.6-.415a21 21 0 0 0 2.444-1.925l.734-.722c.224-.21.437-.43.638-.661l.902-1.033c.238-.258.443-.593.693-.923.239-.338.51-.685.754-1.06l.711-1.151.348-.57.3-.572a37.305 37.305 0 0 0 2.942-7.01c.189-.633.417-1.252.57-1.884l.483-1.858c.306-1.218.525-2.398.766-3.465-.002.078-.246 1.258-.54 2.668-.15.704-.367 1.454-.54 2.16l-.257 1.006-.249.84c-.305.972-.557 1.812-.848 2.54-.281.73-.482 1.392-.755 1.974l-.726 1.682-.845 1.628c-.19.393-.379.692-.522.952-.145.259-.257.472-.351.66-.192.376-.295.665-.496.997a23.818 23.818 0 0 1-1.559 2.045l-.736.878c-.236.245-.434.458-.575.621-.333.316-.608.62-.887.855l-.73.637-.54.499a8.382 8.382 0 0 0-.403.35c-.354.269-.722.519-1.101.75-.296.156-.615.329-1.306.767-.492.32-1.126.622-1.779.971-.334.156-.685.3-1.032.452-.349.146-.69.31-1.04.424-1.375.527-2.63.876-3.094 1.135-.654.082-1.968.394-3.366.61l-4.018.645c-.759.071-1.518.093-2.277.141-.76.035-1.518.048-2.276.073-2.3-.01-1.838.303-3.514.34-4.826-.129-9.15-.353-13.339-.466-4.198-.133-8.198-.157-12.42.09-2.259.256-4.127.498-5.932.804-1.862.306-3.7.738-5.504 1.291-1.517.426-3.295.961-4.969 1.605l-.105.04-.089.021c-1.013.241-2.083.55-3.015.856-.94.31-1.782.616-2.445.91a49.828 49.828 0 0 0-6.615 2.458 88.617 88.617 0 0 0-7.115 3.596c-2.698 1.284-5.495 3.01-8.673 5.038-1.06.669-2.172 1.42-3.335 2.166-1.135.787-2.314 1.583-3.46 2.408-1.128.849-2.274 1.662-3.32 2.51-1.04.851-2.052 1.649-2.933 2.434l-1.925 1.638c-.31.262-.603.504-.86.708a9.27 9.27 0 0 1-.628.495 176.09 176.09 0 0 1-2.086 2.025c-.716.668-1.385 1.394-2.093 2.09-1.427 1.382-2.785 2.866-4.184 4.329a25.85 25.85 0 0 0-1.024 1.121l-1.009 1.14-1.01 1.14c-.34.377-.674.76-.99 1.157-1.274 1.578-2.597 3.115-3.765 4.743-.343.283-1.523 1.88-2.09 2.55-1.345 1.889-1.45 2.255-2.492 3.762-.237.14-.762.878-1.397 1.83-.633.954-1.39 2.112-2.032 3.125l-2.383 4.257c-.66 1.222-1.2 2.367-1.86 3.701-.638 1.252-.823 1.518-1.032 1.922-.433 1.008-1.54 3.382-2.334 5.122z"/><path fill="#F5F5F6" d="M70.112 129.428a3.744 3.744 0 0 1-.24-.78c-.074-.235-.157-.535-.24-.822-.048-.17-.014-.13-.051-.274l-.318-1.184a15.098 15.098 0 0 0-.314-1.23c-.074-.29-.088-.44-.16-.731a7.63 7.63 0 0 0-.211-.636c-.037-.248-.104-.568-.123-.779-.038-.191-.074-.254-.112-.41-.035-.16-.02-.205-.055-.366-.034-.14-.067-.205-.1-.319-.113-.46-.234-1-.367-1.46l-.505-2.147c-.033-.122-.067-.286-.098-.365a18.445 18.445 0 0 0-.453-1.968 3.87 3.87 0 0 0-.088-.412c-.047-.248-.035-.338-.07-.549a2.304 2.304 0 0 1-.046-.274c-.038-.111-.08-.277-.118-.412-.063-.382-.195-.872-.255-1.234.037.005.095.392.177.548.058.229.13.454.212.675.051.138.159.148.26.19.05.127.071.297.154.35.022.15.083.224.173.252.053.104-.052.114.024.233.154.16.177.507.438.532-.045.065-.013.17.029.28.06.118.156.215.273.277l.107.36c.024.19.317.081.408.202.07.801.459 1.371.438 2.108.237.339.173.615.41.919.102.282-.002.735.217.913-.2.396.006.846.223 1.248-.088.279.103.517.15.832.06.42-.005.99.152 1.361-.001.14.049.305-.054.396.319.588.152 1.347.216 2.023-.105.062-.077.226-.137.315-.028.206.09.21.09.368-.197.088-.19.356-.223.57.027.25.076.497.147.74a.311.311 0 0 1-.031.194c.035.153.06.309.071.466z"/><g fill="#333"><path d="M134.164 97.364c-.246-.384 5.868-6.296 10.251-10.702 3.088-3.218 7.08-7.22 10.904-11.079 2.267-2.277 1.764-1.556 3.682-3.455l15.802-15.72c6.808-6.563 10.216-9.933 16.435-16.204 3.871-3.816 5.9-5.637 9.772-9.454a457.722 457.722 0 0 0 8.462-8.7c3.325-3.091 7.608-7.22 10.433-9.77 2.565-2.464 3.386-3.413 5.466-5.456 2.154-2.09 2.76-2.501 4.913-4.59l.58-.574.428.765c-2.06.516-3.227.869-5.077 1.344-8.406 2.04-18.192 4.365-26.65 6.527-11.29 2.654-25.676 6.244-39.088 9.437-2.234.562-5.199 1.255-6.681 1.684-11.719 2.576-25.495 5.966-35.77 8.647-2.642.55-4.489 1.044-7.472 1.776-4.486 1.023-6.037 1.183-9.834 2.003-2.124.5-3.947.911-4.944 1.08-2.053.58-5.071 1.331-7.55 1.986-6.884 1.476-15.835 3.801-22.365 5.173.162-.339 7.096-1.889 10.098-2.736 6.044-1.414 8.692-2.17 12.497-3.066a35.413 35.413 0 0 0 4.264-1.301c2.394-.575 5.426-1.264 6.661-1.632 2.679-.61 4.185-1.01 5.02-1.29 2.012-.497 1.774-.333 4.135-.934 3.372-.897 9.462-2.28 10.893-2.83.96-.172 2.913-.638 4.964-1.132a173.66 173.66 0 0 0 5.87-1.54l6.642-1.578c3.368-.782 2.638-.83 5.079-1.447 14.144-3.253 25.52-6.119 38.183-9.03 6.783-1.712 11.308-2.724 17.495-4.302 5.281-1.288 12.698-2.956 16.63-4.002 4.6-.986 10.66-2.45 16.727-3.956L233.463.7l-1.787 1.78-4.16 4.146c-3.317 3.14-6.843 6.711-10.967 10.748-5.482 5.367-12.57 12.182-17.677 17.285-1.759 1.705-3.987 3.92-4.891 4.7-8.257 8.328-17.47 17.142-26.194 25.71-.54.386-2.691 2.516-3.69 3.399-2.557 2.435-2.86 2.913-4.859 4.863-.698.358-4.122 3.668-6.787 6.155-4.277 4.233-6.59 6.398-9.724 9.667a23.997 23.997 0 0 1-2.47 2.212c-1.136 1.222-4.021 3.964-6.093 6z"/><path d="M65.79 42.046c.076-.44 3.576-.097 6.144.034 1.848.014 4.182.14 6.428.245 1.327.069.958.202 2.07.279 3.395.174 5.309.376 9.2.586 3.89.396 5.867.536 9.517.708 2.241.168 3.354.379 5.596.546 1.978.11 3.56.13 5.024.12 1.86.272 4.308.521 5.862.804 1.462.156 1.986.096 3.188.19 1.235.117 1.521.27 2.756.387 1.082.084 1.613.042 2.504.083 3.557.276 7.69.646 11.287.82 1.992.19 4.218.366 6.575.546l.71.054-.11.706c-.49 3.17-1.001 6.565-1.543 9.81-.126.937-.344 2.166-.375 2.801-1.017 4.82-1.869 10.576-2.359 14.907-.258 1.08-.335 1.86-.521 3.107-.355 1.854-.661 2.447-1.005 4.005a16.568 16.568 0 0 1-.435 2.031c-.057.877-.235 2.14-.345 3.187-.632 2.822-1.07 6.592-1.696 9.262-.275-.142.303-3 .385-4.281.443-2.507.509-3.64.781-5.22.101-.61.11-1.231.025-1.844.161-.997.403-2.25.419-2.781.16-.693.248-1.4.259-2.111.122-.841.207-.715.334-1.707.145-1.426.632-3.941.532-4.588a20.17 20.17 0 0 0 .392-2.052c.156-1.034.223-1.783.273-2.476l.463-2.762c.253-1.395-.01-1.147.127-2.17 1.09-5.854 1.73-10.623 2.708-15.863l.207-1.472.66.836c-2.122-.149-3.778-.322-5.92-.428-2.236-.168-5.35-.538-7.03-.58-2.532-.364-6.173-.605-9.484-.798-1.876-.233-3.95-.32-6.328-.518-3.162-.263-7.205-.687-10.186-.862-1.009-.095-2.305-.18-2.79-.295-4.847-.227-10.088-.81-15.127-1.21-.262-.123-1.511-.21-2.054-.322-1.45-.17-1.689-.06-2.839-.16-.289-.257-2.249-.45-3.743-.661-2.482-.174-3.781-.353-5.658-.365-.463-.012-.92-.1-1.353-.26-.693.02-2.328-.174-3.525-.268z"/></g></g></g></g></svg>