<svg xmlns="http://www.w3.org/2000/svg" width="20" height="15" viewBox="0 0 20 15"><path d="M15.135 12.124c-.188.144-.382.284-.583.418a9.057 9.057 0 0 1-2.044 1.03A7.62 7.62 0 0 1 10 14c-5.421 0-8.671-5.877-9-6.5 0 0 .81-1.61 2.33-3.227.455-.484.974-.968 1.552-1.41.202-.155.412-.304.628-.446m3.005-1.272a7.5 7.5 0 0 1 1.46-.143c5.422 0 8.672 5.877 9 6.5 0 0-.622 1.236-1.799 2.63M4 1l13 13M8.753 5.936a2 2 0 1 0 2.85 2.76" fill="none" stroke="#333" stroke-linecap="round" stroke-linejoin="round" stroke-width="1.5"/></svg>