<svg xmlns="http://www.w3.org/2000/svg" width="220" height="188" viewBox="0 0 220 188"><g fill="none"><path fill="#9C70C9" d="M262.128 77.15c-.098 1.08-.457-.567-.642.092.113.02.2.204-.036.2-.325-.444.01-.838.384-.97-.13-.325-.798-1.134-1.307-.683v.024c1.01-.098.168.988-.213 1.008.167-.309.24-.659.213-1.008l-.03.001c.01-.01.02-.016.03-.025.003-.298.018-.515.281-.543-.452-.351-1.06.273-1.007-.183.024-.388.308-.403.347-.768-.73-.587-1.971-1.07-2.583-.677.082-.475.455-.53.421-1.172-1.362.144-.835-1.953-1.905-.97.21.089.424.42.129.44.146-.453-.542-.33-.495-.713.742.065.83-.422.036-.202.472-.508.116-1.5.715-.494.06-.336.122-.671.183-1.007-.99-.445-.835.75-1.484.146.38-.111.714-.342.952-.658-.934 0 .32-1.512-.55-1.556a.913.913 0 0 1-.271.524c.02.03.044.056.066.083.137.044.284.08.26.235a.988.988 0 0 1-.26-.235.718.718 0 0 1-.106-.04l.04-.043c-.294-.427-.363-1.056-.022-1.202-.726-.716-.634.213-.916.459.005-.743-1.014-.776-1.063-1.025.393-.309.613.257 1.081-.22a.958.958 0 0 1-.311.567c.465.218.93-.822.586-.933-.38.366-1.05-.258-.495-.714-1.322-.26-.096-.168-.66-.952a1.272 1.272 0 0 1-1.007-.182c-.226.45-1.272 1.026-1.722.311 1.493-.298.839-1.358 1.777-1.758-.241.324-.788.501-.146.806.312-.743 2.166-.592 1.574-1.794-.088.21-.42.423-.44.128.3-.052.56-.233.715-.494-.384-.265-.97-.213-1.3-.86a6.591 6.591 0 0 1 2.984-1.539l.183-1.007c-.203-.072-.299-.077-.342-.05.443-.722-1.02-1.204-1.142-2.09-.013-.096.717-.247-.128-.44.444-.63 1.236-.758 1.868-1.117.39-1.181-.817-1.35-.312-1.72a1.973 1.973 0 0 0-1.74-.732c.286-.12 1.277-.497.787-.897-.345.605-.54-.299-.293-.678-.59-.106-.672-.946-1.136-.622-.094-.732.11-1.675-.495-.713l.183-1.007c-.506-.57-.853-.232-1.1-.824-.94 1.294-1.813.491-2.984 1.539.294.089.756.063.768.347a.563.563 0 0 1-.512.531c-.135-.682-.58-.144-.898-.787-.145.159-.767.772-.274.366.202.038.27-.12.439-.128 0 .674.355.454.495.714-.453.308-.343-.186-1.008-.183-.357.456.683.775.055.842-.008-.227-.244-.544-.366-.274.15.073.203.21.128.44-.456-.652-.242.26-.678.292.246-1.222-.978.672-.732-.549-1.392.39-2.93 1.573-3.7-.255.227.102.613.949.97.384-.312-.37-1.09-.419-1.3-.86.24.009.276-.279.31-.568-.409-.36-.851.382-.805-.146.24.009.276-.279.311-.567-.355-.146-.624-.444-1.007-.183.111.02.199.204-.037.201-.263-.46.064-.252.146-.805-1.243.52-2.69.811-3.022 1.74-.548-.606-1.296.2-1.758.512.02-.111-.122-.258-.202-.036.065.424 1.224.092.898.787-.6-.478-1.046.031-1.338-.659.112.021.259-.122.037-.202-.236.228-.5.425-.784.587.271-1.183.053-2.76 1.386-4.083-.501-2.07.227-4.789-.625-6.396.9-.624.778-2.458.281-3.61.553-.333.852-3.113-.029-3.042 1.222-1.257.401-2.591.872-3.876a2.779 2.779 0 0 0-1.597.084c.085-.142.292-.279.161-.428-.483-.013-.977.299-1.458.234.35-.331.682-.152 1.04-.685-.291-.5-.227-1.449.088-2.313a1.333 1.333 0 0 1-.545-.89c-.458.121-1.282-.151-1.33.674-.266-.963-1.697.04-2.455-.239-.24-.346.133-.67-.106-1.017-.39.107-.798.642-1.18.534.201-.234.604-.46.462-.707-.148.075-.3.271-.44.129.456-.574.862.19 1.32-.385-.204-.994.322-1.808-.342-2.474.187.167.375.314.579.022-.318-.254-.073-.486-.117-.728-.835.404-.83.694-.634 1.423.019.222.113.43.268.59-.305.396-.581.028-.89.545-.143-.247.26-.473.461-.706-.391.123-.773-.003-1.169.245-.142-.247.26-.473.462-.707.146.102.073.196-.011.29.28.256.594-.38.88-.257-.835-.879-.189.157-1.298-.194a3.052 3.052 0 0 1 1.202-1.113c-.315-.597-.66-.448-.996-.472 1.087-.29.318-1.402.227-2.164.46.95 1.414.328.963 1.34-.138-.908-.317.234-.31.568.312-.6.446-.594.577.022.43-1.287.118-2.602.294-3.899l-.3.278c-.094-.083-.188-.157-.29-.01.664.797.073 1.547.201 2.324-1.022-.974-.535-.567-1.091-1.78.215-.04 1.127.108.88-.256-1.028.012.089-2.047-.953-1.629.398-.51 1.055-.32.311-.567.3-.275.57.233.88-.256-.576-.601-.24-1.168.065-1.735.299.203.134.59.418.45-.275-.3.233-.57-.257-.879-.465.322-1.283-.1-1.33.674-.17-.2 0-.386-.267-.59a.962.962 0 0 1-.59.268c.165.344.5.695.396 1.028-.36-.707-.766-.191-1.147-.333.186-.224.45-.37.74-.406-1.886-.478-1.574-1.198-2.711-1.117.144-.378-.003-.882.612-.846a5.265 5.265 0 0 1 .432-3.748c-.5.06-.38.643-1.03.395.035.34.377.69.107 1.018-.775-.962.268-1.13.216-1.874.33.226.681-.127.997.471.438-.32.096-.671-.107-1.017-.595.657-2.217-.13-1.92.94.2-.152.398-.284.58.023-.385-.061-.789.401-1.158-.044.983-1.02-.41.317-.697-.75a.962.962 0 0 1-.59.266c.479.308-.04.578-.032.868-.275-.3.233-.57-.257-.878-.147.074-.3.27-.44.128-.172.396-.38.775-.622 1.134-.403-.828-.867-.08-1.297-.194.556-.633 1.078-.408 1.609-.373-.58-.879-2.399.18-3.474-.132.14.199.42.402.267.59-.32-.474-.69.378-1.018.106.186-.225.45-.37.74-.406-.408-.688-.859-.286-1.297-.195.18.313.58.179.418.45-.423-.317-.87.016-1.308.095.2-.233.604-.459.462-.706-.494.274-.962-.134-1.448-.055-.419.274-.072.577-.612.846-.021-.55-.384-.19-.406-.74-.325.57-1.412.144-1.308.096-1.63.76-1.453 3.012-.722 3.737-.31.977-2.26 1.155-3.217.747a.884.884 0 0 0 .273-.649.444.444 0 0 0 .112-.25.502.502 0 0 1 .377-.086c-.278-.397-.285-.783-.824-1.19-.238.42-.656.322-.947.29-.23-.11-.43-.158-.573-.027l-.077-.178a.638.638 0 0 1-.54.3.55.55 0 0 1-.038-.119c1.362-.39-.513.07-.225-.998a.97.97 0 0 1-.645-.065c.26.506-.326.48-.464.734-.087-.397.488-.377.219-.888-.165-.01-.395.083-.444-.11a7.18 7.18 0 0 1-1.109.669c.067-.918-.71-.503-1.024-.818.799-.27 1.138.187 1.579.484-.06-1.052-2.165-1.047-2.939-1.856.022.242.162.559-.064.644-.04-.57-.787-.02-.935-.42.274-.1.576-.093.845.02-.009-.799-.6-.677-1.025-.818 0 .362.412.445.135.599-.206-.486-.76-.423-1.178-.574.29-.101.753-.094.754-.379-.565-.011-.764-.598-1.225-.773-.5.026-.352.462-.954.424.258-.485-.237-.357.02-.843-.566.33-1.293-.584-1.18-.574-1.79-.16-2.769 1.877-2.5 2.871-.759.69-2.535-.134-3.158-.967.606-.09.513-.89 1.154-.47-.042-.483.146-.82-.116-1.442-.799.469-1.214-1.05-1.443.116.165.01.395-.084.444.109a.961.961 0 0 0-.554.335 7.13 7.13 0 0 1 .13-1.288c-.802.546-2.573-2.038-4.048-1.187.002-.284.199-.445.02-.844-.308-.144-.78-.03-1.089-.173-.439.346.58.661.025 1.043-.274-.73-.491-.874-.115-1.443-.611.853-1.367-.074-1.308.714-.24.02-.288-.266-.335-.553.421-.511.965 0 1.154-.47-.582.287-.508-.462-1.09-.174-.233.516-.428.621-.419.933-.305-.06-.203-.761-.58-.708.097.517-.715.461-.619.978a.56.56 0 0 1 .535.51c-.393.15-.442.52-.664.778-.47-1.103.614-.425.374-1.133-.69.472-1.517 1.117-.683 1.622-.928-.11-1.765 1.73-1.02 1.069-.242.303-.14.824-.373 1.133-.675-.017-.804-.898-1.315-1.172.87-1.448 2.202-2.604 2.831-4.204-1.645 1.3-2.15 3.32-3.54 4.783-.171-.264.67-.663.064-.644.015.164-.523.754-.553.335.286-.677-1.04-.453-.18-.799-1.415-.633-3.085-1.77-3.243.52-.448-.592-.394.525-.953.425.325-.49-.317-.409-.58-.709.144.743-.236.66-.554.335-.468.547-.998.36-.065.644-1.25.466-1.401 1.626-2.192 2.382.642.4.084-.358.754-.38.044.2.215.201.29.354-.55-.292-.211.1-.555.335-.257.047-.334-.194-.644-.065a2.815 2.815 0 0 0-.374 1.134c-.201.044-.201.215-.355.29.418-.772-.347-.135-.689-.265-1.172-.446-1.843-1.995-3.312-.722-.151.559.93.447.38.753-1.848-.19-1.666 3.258-3.386 4.538.849.073-.323.648-.774 1.224-.287-.581.462-.507.175-1.089-.415-.106-.533.749-.8.18.63-.233-.31-.806-.579-.708-.596-.736.92-.995.13-1.288-.054.587-.975-.19-.31.49a3.521 3.521 0 0 1-.934-.42c.31-.65.89-.917.084-1.487 1.101.408-.02-.562.664-.779.522.89-.463 1.903.45 1.996-.021-.241-.162-.558.065-.643.365 1.432.897.293 1.47.927-.15.248-.305.493-.465.734a.565.565 0 0 0-.535-.509c-.01.166-.115.27-.355.29.046.65.716.314.67 1.108.965-.217 1.578-2.129.839-1.868.367-.484.63-.513.728-1.422-.241.021-.559.162-.644-.065.111-.024.19-.213-.045-.2-.304.694.123.74.38.754-.262.784-.95.234-1.508.76.107-.415-.75-.533-.18-.8l.09.4c.664-.025.533-.514.999-.225-.04-.387-.325-.39-.38-.753a1.15 1.15 0 0 0-.754.379c.171-.517-.685-.634-.18-.798.606.507.228.111.554-.335.147.309.546.253 1.044-.025-.587-.261.327-.097.6-.135-.151-.963-1.358.09-.625-.908-.514-.34-.64.169-.954.424.462-1.023-1.45-.871-1.36-1.372-.193.375-1.134-.357-1.733-.239-.228.855.676 1.421-.44 1.777 1.37 1.495-.491 2.18-1.012 2.956.08.637.463-.638.644.064-.376.074-.388.249-.11.444-.397.087-.377-.487-.889-.219.377.44-.82.694-.02.843.196-.634.571.698.98.619-.512.269-.492-.306-.889-.219-.007.403.81.72-.02.843-.032-.404.132-1.078-.47-1.153-.068.35.014.712.225.999-.258.047-.334-.193-.644-.065.631 1.41-1.66 2.037-.613 2.866-.183-.369.307-1.143.464-.734-.624.525.105.5.425.953-.49-.528-.496.684-.8.18.207-.097.406-.437.11-.444.003.627-.47-.095-.799.18-.058 1.294-.843 1.453-.303 2.376-.342-.196-1.05.342-1.065.869.449-.224.862-.516 1.09.173-.56-.44-.677.096-1.29-.129.334.725-.446.745-.329 1.333.53.158 1.095.257 1.27.973-.473-.528-.91.151-1.29-.13.741.019.201-.736-.134-.598-.501 2.03-1.132 3.294-1.511 4.961.157-.14.599.081.594.28-.388.261-1.085.303-.265.69-.393.376-.867-.346-.8.18.834.267-.497.578-.173 1.087.555-.953 1.15.04 1.643-.16-.201.045-.202.215-.355.29-.263.171-.662-.669-.644-.065.164-.014.755.524.335.554-.485-.046-.609-.663-1.18-.574-.006.727.564.76.271 1.198.424.116.82.317 1.16.593-.354.04-.708-.059-.654-.096-1.198.805-1.095 2.38-.576 3.281a7.165 7.165 0 0 1-.737 1.02c.485-1.024-.879.351-.11.443 0-.22.153-.152.349.046-.444.193-.92.3-1.404.315a.442.442 0 0 0-.144-.09.57.57 0 0 1-.008.091c-.19 0-.38-.022-.565-.065.415-.452-.162-1.014.6-1.091-.337-.35-.403-.73-.999-1.048-.325.867-1.605-.051-1.048.998.134-.096.255-.313.414-.195a.98.98 0 0 0-.22.61 7.36 7.36 0 0 1-.71-1.082c-.279.928-3.283.036-3.892 1.626-.177-.222-.126-.471-.516-.669-.33.083-.625.469-.956.551-.122.546.868.15.678.794-.674-.394-.933-.37-1-1.047.063 1.046-1.108.802-.565 1.378-.175.166-.392-.026-.61-.22.006-.661.75-.607.6-1.09-.27.589-.685-.04-.955.55.144.547.059.752.263.989-.275.145-.638-.464-.897-.185.4.34-.265.808.136 1.149a.56.56 0 0 1 .736.059c-.21.364-.015.681-.025 1.022-1.06-.56.209-.716-.424-1.115-.238.8-.474 1.822.492 1.69-.79.499-.28 2.454-.117 1.471.002.389.41.729.423 1.116-.534.412-1.19-.192-1.76-.083-.237-1.672.069-3.409-.45-5.047-.459 2.046.423 3.933.265 5.943-.3-.097.102-.936-.356-.54.114.118.069.914-.22.608-.203-.706-1.092.303-.643-.507-1.497.399-3.512.566-2.19 2.445-.721-.178.025.656-.472.93-.057-.585-.504-.119-.898-.185.58.485.233.66-.219.609-.019.718-.547.907.356.54-.677 1.149-.063 2.145-.201 3.23.75-.093-.16-.331.346-.77.16.128.294.02.449.093-.612.119-.1.21-.22.609-.171.198-.382.06-.541.355.06.398.204.778.424 1.116-.128.16-.021.293-.093.448-.162-.862-.354.114-.702.228-1.191.391-2.69-.389-3.028 1.524.235.53 1.005-.238.77.346-1.554 1.016.76 3.58.232 5.656.705-.478.157.706.17 1.437-.59-.27.04-.685-.55-.955-.39.178.057.917-.508.643.342-.578-.749-.43-.897-.186-.927-.195.087-1.351-.711-1.081.329.49-.877.465.068.574a3.469 3.469 0 0 1-.99.263c-.168-.7.114-1.273-.872-1.208 1.113-.377-.369-.425.025-1.023.966.363.84 1.77 1.608 1.267-.17-.174-.478-.332-.355-.541 1.186.883.881-.336 1.725-.204.04.287.075.574.102.862a.564.564 0 0 0-.736-.058c.097.134.081.282-.093.448.446.476.754-.206 1.219.439.613-.775-.117-2.647-.526-1.979-.02-.607.166-.795-.331-1.563-.174.17-.332.478-.541.355.071-.088.013-.284-.16-.126.2.73.56.496.77.346.29.773-.59.78-.693 1.539-.179-.39-.918.058-.644-.507l.322.254c.5-.438.09-.735.634-.804-.276-.276-.498-.098-.77-.346a1.15 1.15 0 0 0-.347.77c-.192-.51-.931-.063-.643-.507.79.012.248-.058.22-.61.308.148.583-.147.794-.676-.62.167.193-.281.38-.482-.723-.653-.996.923-1.057-.312-.613.06-.39.534-.473.93-.286-1.086-1.675.235-1.92-.21.085.412-1.107.436-1.497.905.36.808 1.42.679.778 1.657 2.006.3.992 2.002 1.077 2.933.464.445-.042-.787.541-.356-.245.294-.144.438.195.414-.254.318-.6-.14-.829.39.57.105-.2 1.056.517.667-.249-.615.883.183 1.15-.136-.228.531-.575.072-.828.39.248.317 1.083.05.516.667-.28-.294-.577-.92-1.092-.6.407.503.22.357.804.634-.17.199-.381.06-.541.356 1.38.697-.006 2.626 1.33 2.61-.374-.17-.481-1.08-.102-.861-.153.8.397.322.93.473-.712-.102.047.843-.506.642.1-.205.04-.594-.195-.414.398.486-.425.222-.507.643.77 1.042.261 1.66 1.262 2.037-.388.063-.6.926-.279 1.344.208-.456.344-.942.956-.55-.714.01-.465.5-1.082.71.715.353.122.86.584 1.243.51-.21 1.012-.489 1.6-.043-.7-.112-.612.69-1.084.71.587-.451-.308-.697-.482-.38.891 1.893 1.198 3.271 1.954 4.805.033-.209.516-.314.638-.156-.136.447-.652.917.229.701-.068.54-.891.277-.507.643.816-.317-.022.763.55.955-.17-1.09.918-.693 1.176-1.16-.128.162-.021.295-.093.45-.097.298-.936-.103-.541.354.118-.113.916-.068.609.22-.405.27-.89-.132-1.278.296.454.57.917.235.966.76a2.902 2.902 0 0 1 2.174-.11c-.007.34-.32.717-.025 1.023a.566.566 0 0 1 .702-.23c-.47.267-.323.301-.922.838.354.86.514 1.786.468 2.714-.268-1.1-.46.826.195.413-.379-.462 1.456.003 1.794.371-.355-.12-.59.772-.956.55-.097-.133-.314-.254-.195-.414.377-.055.742.064.38-.482-.173.182-.348.343-.575.069-.276.275-.099.497-.346.769.792.947 1.347-.119 2.047.05-.173.171-.574.138-.38.481.259-.159.574-.196.863-.102-.063.153-.246.321-.093.449.34-.042.685-.034 1.024.024-.976.054.914.974-.313 1.057.375.7.528-.469.863-.102-.127.698-.483.904-.76.964.234.524 1.039.055.803.634-.685-.504-.116.08-.253.322-.206-.1-.595-.04-.415.194.483-.031.916-.475 1.439-.17-.5.62-.6-.156-1.497.906.631-.046.377.124 1.379.565-.282.226-.086.6-.38.482a.765.765 0 0 0-.805-.634c-.315.475.152.857.01 1.311 1.034-.314-.268.064.643.507.194-.646.208-1.11 1.014-1.286-.35.81.062 1.407-.819 1.7.416-1.074-.33.49-.414.195-.26-.358-.254-.747-.424-1.116-.644.465.402.73-.152 1.183.46.305 1.24.727 1.448 1.14-.558-.44-1.036.232-.795.678a1.46 1.46 0 0 1 .702-.229c-.29.424-.644.308-.99.263-.068-.39.495-1.6-.17-1.437.198.705-.206 1.481.111 2.173.336-.095.212.277.737.058-.163.262-.526.548-.347.77.404-.288.874-.01 1.278-.297-.91-.593.715-.138.22-.61-.07.09-.275.081-.162-.126.546-.077.737.402.678.794.349.038 1.377-.172 1.217-.833l-.02-.01c-.388.937-.953-.316-.792-.662.194.292.47.522.791.661l.013-.027c.004.013.005.025.008.038.262.142.447.258.348.503.523-.235.256-1.063.634-.804.332.204.212.461.516.668.861-.37 1.87-1.24 1.81-1.963.381.295.255.65.838.921.512-1.27 2.119.179 1.75-1.227-.176.145-.569.178-.448-.092.332.341.545-.324.863-.102-.406.624-.017.93.16.126.23.655 1.272.805.103.863l.804.633c.857-.664-.272-1.088.566-1.378-.08.388-.032.79.136 1.15.437-.825 1.187.99 1.633.244a.91.91 0 0 1-.336-.486c-.036.004-.07.013-.106.02-.102.1-.203.212-.328.12a.96.96 0 0 1 .328-.12.871.871 0 0 1 .086-.075l.02.055c.515-.059 1.104.176 1.072.544.975-.305.11-.66.025-1.023.654.352 1.161-.53 1.404-.457.089.491-.514.42-.312 1.057a.964.964 0 0 1-.356-.54c-.41.308.29 1.205.55.954a.437.437 0 0 1 .61-.478.436.436 0 0 1 .254.376c.85-1.045.193-.006 1.15-.136.278-.583.131-.397.634-.804-.292-.41-.311-1.603.532-1.665-.436 1.457.808 1.377.72 2.392-.172-.364-.073-.93-.643-.507.51.624-.492 2.19.848 2.231-.145-.176-.177-.569.093-.448a1.03 1.03 0 0 0 .102.862c.414-.214.642-.756 1.37-.744a6.582 6.582 0 0 1-.04 3.356l.804.633c.16-.145.209-.227.204-.278.431.73 1.544-.335 2.385-.028.09.033-.12.748.448.093.348.687.09 1.446.111 2.172.861.9 1.576-.088 1.668.532.096-.023.19-.052.283-.087.495.18 1.03.218 1.545.112-.103.129-.326.237-.216.403.477.077 1.008-.167 1.476-.039-.391.282-.696.06-1.122.54.223.535.034 1.467-.394 2.282.265.248.417.592.422.955.47-.06 1.25.319 1.408-.492.136.989 1.688.185 2.402.561.191.376-.221.647-.03 1.023.401-.054.876-.531 1.24-.373-.23.205-.66.375-.551.639.156-.055.333-.228.453-.07-.529.51-.83-.301-1.359.207.07 1.013-.56 1.75.01 2.498-.163-.19-.33-.36-.57-.099.28.294.007.491.019.738.881-.29.914-.579.817-1.327a.976.976 0 0 0-.187-.62c.355-.353.579.05.955-.422.108.263-.321.434-.552.638.404-.07.766.106 1.191-.088.109.264-.321.434-.551.64-.131-.121-.046-.204.049-.285-.244-.292-.639.296-.905.137.71.982.207-.13 1.26.364-.352.43-.815.757-1.34.944.234.633.595.532.925.6-1.116.143-.5 1.347-.512 2.115-.33-1.003-1.358-.513-.777-1.456.017.918.346-.19.384-.521-.39.551-.522.53-.57-.1-.598 1.22-.462 2.564-.809 3.826l.335-.236c.081.096.165.18.285.05-.552-.88.134-1.544.11-2.331.883 1.1.455.633.845 1.908-.219.011-1.103-.255-.906.138 1.02.124-.36 2.017.728 1.74-.462.453-1.088.177-.384.521-.334.233-.534-.306-.905.138.49.672.083 1.189-.295 1.711-.27-.24-.055-.603-.355-.502.233.334-.306.535.138.905.504-.257 1.258.27 1.407-.491.142.22-.05.382.187.62a.973.973 0 0 1 .62-.188c-.117-.362-.404-.754-.255-1.071.262.748.733.291 1.092.482a1.15 1.15 0 0 1-.787.305c1.805.723 1.4 1.396 2.539 1.466-.193.355-.115.874-.719.757a5.275 5.275 0 0 1-.926 3.658c.504.007.463-.587 1.073-.256.01-.34-.282-.733.03-1.022.64 1.056-.416 1.084-.464 1.829-.296-.269-.691.035-.925-.6-.477.26-.185.653-.03 1.023.678-.573 2.181.422 2.028-.678-.217.125-.431.229-.57-.1.372.112.834-.292 1.141.198-1.11.88.447-.26.59.836a.968.968 0 0 1 .62-.187c-.432-.368.118-.567.148-.855.233.334-.306.535.138.904.156-.053.333-.228.453-.068a7.12 7.12 0 0 1 .768-1.042c.29.874.848.194 1.26.364-.635.554-1.123.262-1.644.157.458.948 2.4.138 3.425.59-.113-.215-.364-.454-.187-.62.255.513.735-.282 1.024.03a1.15 1.15 0 0 1-.788.305c.314.735.814.397 1.26.365-.137-.335-.55-.254-.354-.502.377.37.864.1 1.309.08-.23.204-.66.374-.552.638.526-.205.935.26 1.427.246a.522.522 0 0 0 .218-.176c.1.282.278.552.388.833.234-.442-.016-.806-.223-1.178.08-.116.2-.2.336-.236a.668.668 0 0 0 .005.184.494.494 0 0 0-.135.207c.681.477.464 1.098.275 1.714-.333-.14-.247-.553-.497-.36.328.241-.117.605.423.812.393-.407 1.278-.153 1.172-.92.206.162.076.378.378.525a.97.97 0 0 1 .526-.378c-.229-.305-.627-.583-.59-.93.491.622.789.037 1.19.101-.139.257-.37.45-.646.544 1.943.098 1.779.866 2.878.564-.067.398.175.864-.434.949a5.265 5.265 0 0 1 .31 3.76c.48-.156.248-.705.933-.59-.1-.325-.504-.602-.304-.976.949.791-.042 1.16.156 1.88-.368-.158-.643.257-1.07-.267-.367.4.037.677.304.977.455-.762 2.2-.308 1.698-1.299-.166.189-.334.357-.572.092.388-.016.694-.548 1.143-.184-.763 1.193.34-.39.83.6a.969.969 0 0 1 .527-.378c-.53-.208-.073-.574-.138-.857.328.24-.117.605.424.81.13-.1.24-.322.405-.21.092-.423.222-.836.389-1.235.557.733.865-.092 1.31-.064-.421.73-.978.612-1.505.681.742.749 2.317-.647 3.432-.55-.176-.168-.491-.313-.378-.526.407.402.604-.506.978-.304-.138.257-.369.45-.646.543.536.594.898.112 1.31-.063-.238-.272-.603-.061-.497-.36.476.229.85-.185 1.263-.349-.15.269-.502.569-.314.783.43-.365.969-.056 1.43-.23.357-.35-.042-.579.434-.949.129.535.415.112.544.646.206-.622 1.356-.417 1.264-.35 1.449-1.063.834-3.238-.026-3.806.112-1.019 1.99-1.575 3.009-1.362-.396.468.204 1.006-.554 1.115.35.335.433.712 1.041 1.005.289-.88 1.606-.015 1.006-1.04-.13.101-.241.323-.406.211a.958.958 0 0 0 .194-.617c.283.327.536.678.756 1.05.24-.938 3.278-.172 3.82-1.785.187.214.146.465.544.646.327-.096.605-.494.932-.59.1-.55-.873-.113-.71-.765.69.366.948.33 1.042 1.005-.106-1.043 1.074-.847.508-1.4.168-.173.393.01.618.194.022.661-.724.638-.554 1.115.246-.6.686.01.932-.59-.167-.54-.09-.748-.304-.977.268-.156.657.437.904.148-.415-.324.231-.819-.184-1.143a.56.56 0 0 1-.738-.028c.195-.373-.013-.682-.017-1.023 1.082.516-.179.725.47 1.097.204-.81.397-1.84-.562-1.668.768-.532.177-2.464.056-1.475-.019-.388-.44-.711-.47-1.097.517-.434 1.197.142 1.762.01.307 1.66.073 3.408.66 5.024.373-2.063-.586-3.912-.512-5.927.303.084-.063.94.378.525-.119-.113-.106-.911.194-.617.233.697 1.079-.348.664.48 1.48-.46 3.486-.712 2.087-2.534.728.148-.052-.654.433-.948.081.581.508.097.905.147-.6-.46-.26-.65.193-.617-.01-.719.51-.93-.378-.525.63-1.176-.025-2.146.067-3.235-.746.123.174.323-.314.783-.166-.121-.294-.009-.452-.074.607-.145.092-.215.194-.618.163-.205.38-.075.527-.377-.013-.056-.028-.099-.042-.15a.983.983 0 0 0 .337-.123 2.067 2.067 0 0 0-.505-.935c.13-.038.274-.512.506-.598 1.173-.44 2.702.277 2.961-1.648-.256-.52-.993.28-.783-.314.177-.122.316-.291.402-.488.464-.353.962-.66 1.487-.913-.434-.62-.218.296-.843.055.038-.202-.12-.27-.128-.44.392.485.233-.01.641-.091.256.058.232.309.568.311a3.26 3.26 0 0 0 .471-.446c.292-.194.41-.623.484.198.321-.045.404-.196.422-.386.137 0 .27.043.381.121.904.868.917 2.556 2.767 1.958.358-.456-.682-.775-.055-.842 1.627.895 2.807-2.35 4.89-2.857-.752-.398.551-.47 1.191-.824.037.647-.623.287-.586.934.34.26.783-.48.806.146-.67-.03-.03.863.256.879.262.91-1.235.557-.622 1.135.279-.52.823.555.476-.33.268.215.502.467.696.75-.54.477-1.178.498-.658 1.337-.855-.806-.203.525-.916.458-.133-1.023 1.17-1.571.366-2.014-.075.231-.07.578-.312.568.224-1.462-.71-.62-.99-1.428.235-.17.473-.335.715-.494a.563.563 0 0 0 .293.677c.074-.149.212-.204.44-.128.212-.617-.536-.569-.184-1.281-.972-.178-2.284 1.343-1.502 1.391-.527.303-.78.227-1.226 1.025.23.075.578.07.567.311-.111-.02-.258.122-.036.202.551-.52.175-.729-.055-.842.547-.62.965.155 1.685-.11-.261.34.481.782-.146.805l.073-.403c-.621-.236-.692.265-1.008-.183-.114.373.147.486.055.842.278.09.58.07.843-.055-.36.409.382.851-.146.805-.36-.703-.168-.191-.641.092-.015-.341-.405-.445-.971-.384.437.47-.34-.038-.605-.11-.238.946 1.284.448.22 1.08.34.513.655.094 1.044-.018-.825.761.993 1.368.715 1.793.324-.27.904.772 1.502.897.544-.698-.066-1.572 1.1-1.464-.676-1.91 1.304-1.815 2.087-2.326.176-.618-.675.407-.568-.311.375.08.455-.077.275-.366.4.075.156.596.733.549-.175-.553 1.027-.319.347-.769-.427.508-.252-.865-.66-.951.577-.048.334.473.733.548.165-.368-.463-.98.348-.769-.128.386-.542.942-.017 1.246.199-.296.265-.66.183-1.007.255.057.232.308.568.31-.03-1.544 2.324-1.226 1.684-2.398.024.41-.73.932-.714.495.78-.24.098-.501-.019-1.044.244.677.724-.436.806.147-.228.008-.544.244-.274.366.242-.58.395.27.805.146.56-1.17 1.345-1.009 1.209-2.069.238.313 1.1.094 1.32-.384-.501.03-.995.138-.935-.586.343.625.66.177 1.136.622-.024-.796.702-.51.824-1.098-.425-.352-.907-.664-.788-1.391.229.67.896.216 1.136.622-.675-.305-.473.6-.11.604 1.255-1.673 2.33-2.591 3.33-3.977-.2.068-.52-.309-.437-.49.46-.09 1.117.145.513-.531.51-.193.663.657.806.146-.663-.571.684-.338.586-.933-.884.66-1.043-.486-1.576-.494.203.037.27-.12.44-.129.31-.055.349.875.568.312-.156-.052-.49-.777-.092-.641.429.231.302.848.861.988.29-.666-.221-.919.22-1.208a2.9 2.9 0 0 1-1.118-1.867c.304-.153.785-.054.916-.458a.563.563 0 0 1-.531-.512c.456.29.417.145 1.172.421a6.326 6.326 0 0 1 2.18-1.685c-.848.753.946.019.274-.366-.231.55-.68-1.286-.513-1.757.059.37.958.158.934.586-.073.148-.077.396-.275.366-.225-.307-.291-.686-.604-.11.242.068.466.147.33.476.372.114.486-.146.842-.055.466-1.144-.736-1.134-.916-1.83.234.072.392.441.605.109a1.034 1.034 0 0 1-.495-.713c.164-.017.399.066.44-.129a3.49 3.49 0 0 1-.459-.915c.505.836.433-1.263 1.081-.22.444-.658-.662-.245-.495-.713.677-.215 1.026.002 1.21.219.352-.452-.44-.943.182-1.007-.124.841.126.065.404.073.008.228.244.544.366.275-.254-.411-.85-.586-.825-1.19.783.15.143.602 1.503.897-.337-.536-.067-.391-.147-1.483.332.143.57-.205.604.11a.763.763 0 0 0-.183 1.007c.567.056.686-.536 1.154-.623-.763-.766.182.206.147-.805-.663.131-1.079.337-1.612-.293.88-.071 1.214-.714 1.886-.074-1.144.136.588.063.367.275-.195.397-.542.574-.788.897.713.35.457-.697 1.117-.421.054-.55.061-1.435.33-1.813a.529.529 0 0 0 .971.384 1.448 1.448 0 0 1-.531-.512c.51.058.574.424.696.75-.313.244-1.646.314-1.19.824.53-.505 1.405-.513 1.868-1.117-.242-.251.146-.316-.294-.677.308.02.73.207.843-.055-.443-.22-.418-.767-.861-.988zm-6.385-19.61c-.024.148.302.517-.306.3.117-.083.22-.185.306-.3zm-1.46.923c.688-.593.326.902-.476.33-.123-.407 1.176.086.476-.33zm-23.569-35.631c-.131.613.125.346.257.878-.453.245-.783-.684-.257-.878zm-101.58 50.437c-.138.113-.058.201.033.288-.494.529.012-.91-.482-.38-.047-.789.827-.211.897.185-.128.153-.296-.031-.449-.093zm2.866-1.65c.112.948-.695-.578-.229-.702-.117.031.238.778.23.701zm-.29-4.92c-.234.08-.501-.125-.703.228-.723.39.55-.62-.229-.701.378-.074.903.118.931.473zm-.279 1.344c.4.629-1.378.027-.356-.54.18.11-.221.949.356.54zm-.435-4.786c.102.062.189.12.178.154-.055.177-.117.056-.178-.154-.138-.084-.305-.176-.304-.227.018-1.292.157-.275.304.227zm-1.474-2.711c.446.478.797.157 1.253.726-.233.081-.501-.125-.702.229-.153-.128.03-.295.093-.448-.154-.073-.288.035-.448-.093-.183.503-.062.97-.398 1.491.006.095.007.116-.007.014l.007-.014c-.019-.317-.09-1.489.202-1.905zm.916 2.806c-.229.527-.667-.713-.897-.186-.34-.306.529-.24.634-.803.168.174-.095.4-.22.609.162.126.323.253.483.38zm-.253.32c-.128.154-.296-.03-.449-.091.34.517-.316.615-.186.896-.51.236-.087-.85-.423-1.116.324-.131.7.175 1.058.312zm-1.117.425l-.38.482c-.659-.054.247-.953-.356-.541-.166-.621.588-.483.736.059zm-.57-3.576c.657-.34-.125.674.103.862-.888.368.19-.682-.102-.862zm-.413.195c.158.174-.038.231-.127.16-.51.4.198.657-.313 1.057-.82-1.074-.188-.554-.492-1.69.592.288.643.536.932.473zm-.465 2.24c.282-.655-.345-.302-.39-.828.175-.158.232.038.162.127.327.302.522-.513.795-.677.332.3.026.677-.313 1.057.335.367.488-.803.863-.102-.405.315-.992.918-1.853.364.196-.401.472-.125.736.06zm-2.465-4.808c-.078.16-.182.101-.287.033l-.322-.253a1.15 1.15 0 0 0 .668-.516c.273.248.495.07.77.346.036-.77.073-.773.288-.034-.261.373-1.389-.388-1.117.424zm.477 4.023a.494.494 0 0 1 .862-.102c-.29.015-.517.554-.862.102zm.76-.964c-.129-.633-.144-1.129-.584-1.242a.719.719 0 0 1 .955-.55c.16.078.103.182.035.287l-.254.322c-.106-.134-.033-.288-.195-.415-.39.484.249.845.585 1.243a.962.962 0 0 0-.541.355zm.95 3.094c.028.658-.04.523-.6 1.09-.169-.368.201-.8-.136-1.15.546.1 1.03-.33 1.633.245-.219.611-.583.003-.896-.185zm.916 2.806c-.486.32-.594-.59-.103-.862.16.078.103.182.035.287.408.05.941-.783 1.023.025.4-1.06-.59-.701-.043-1.598.08.968 1.368.172 1.448 1.14-.351-.167-.524.169-.932-.472-.386.433.297.742-.439 1.217-.294-.21-1.033-.46-.99.263zm.61.22c.096-.3.935.1.54-.356.426-.01 1.144-.214 1.219.438-.258.184-.156-.225-.483-.38-.137.113-.056.201.034.288-.276-.368-.68.335-1.31.01zm.627 2.84c-.384-.366.439-.103.507-.644.153.128-.03.296-.093.448.114.138.202.057.288-.033-.346.477.816.777.297 1.276a.56.56 0 0 0 .736.059c.217.096-.607.748.068.574.193.344-.208.31-.38.483-.138.113-.057.2.034.287-.175.158-.232-.038-.16-.127-.439-.5-.736-.09-.805-.634.221-.178.508.184.77.347-.172-1.167-.46-1.283-1.262-2.037zm.554 5.908c-.168-.514-.418-1.02.244-1.632.26.31-.567.747.263.99.119-.16-.099-.28-.195-.415.079-.16.183-.102.288-.034l.322.253c-.296.382-.65.256-.922.838zm.229.701c-.467-.588.293-.41.6-1.09.152.127-.03.295-.093.448-.12.16.098.28.195.414-.234.08-.501-.126-.702.228zm.906 1.496c-.32-.156-.205-.364-.068-.574.113.137.201.056.288-.035.168.175-.096.4-.22.61zm-.102-.862c-.397-.338.092-.898.473-.93.063.288-.185.339-.473.93zm.65-3.137c-.16-.174.037-.231.126-.16.46-.346-.85-.483-.39-.828-.417-.707.71.83.414-.195.872-.54-.256 1.05.357.54.063.285-.173.448-.507.643zm2.61 7.27c.106.132.033.287.195.413.25-.32-.278-.55.185-.896.318.254-.141.6.39.828a.963.963 0 0 0-.541.356c-.367-.2-.478-.43-.23-.702zm.711 1.08c-.128.154-.295-.03-.448-.092-.313.425.555.711-.152 1.183a1.84 1.84 0 0 1-.136-1.149c.23-.53.575-.072.829-.39.207.256-.364.173-.093.449zm3.87 4.352c-.089-.358-.252-.477-.596-.229-.069.167-.144.245-.014.01l.014-.01c.075-.182.141-.47-.082-.565.179-.284 1.309.504.677.794zm.28 3.61c-.357-.509.01-.383.348-.77.178.222-.185.507-.347.77zm1.9-34.468c-.181-.28.121-.176.287-.034-.48-4.072-1.042-8.134-1.59-12.198-.355.607-.476-.012.059-.735-.401-.51-.658.197-1.058-.313.917-.899.433.428 1.116-.424.634 1.93.258 6.72 1.587 7.245-1.02 2.699 1.3 6.306.446 8.69.034-.911-.71-1.348-.239-2.012-.223-.25-.396-.066-.608-.22zm.432 2.426c.34-.38.582.382.644.507-.486.398-.223-.425-.644-.507zm2.435 36.578c-.24-.427-.901-1.187-.009-1.31.288.403.447.821.01 1.31zm23.74 10.14c-.238.237-.4.045-.62.186l.235.335c-.686-.32-.093-1.676.109-2.331.442.985.254 1.052.275 1.81zm3.118 4.062c.212-.59-.077-.36-.137-.905.48-.182.685.783.137.905zm31.974 19.112c-.476.34-.459-.59-.71-.766.246-.304.523.58.71.766zm32.642-20.143l-.073.402a1.15 1.15 0 0 0-.77-.347c.092-.357-.168-.47-.054-.842-.697.33-.718.298-.165-.238.452.055.308 1.407.898.787.178-.006.175.113.164.238zm5.574-59.307c.679-.06.323.598.696.75.154.695-.368-.505-.733-.549-.293.238-.081.003.037-.201zm.066 48.89c.368-.648.67 1.204-.31.568.013-.21.943-.25.31-.568zm-.183 1.007c.284.142-.126.243-.11.604.165.068.205-.044.239-.165-.196.417.615.444.623 1.153-.31.055-.35-.874-.568-.31-.208-.372-.725-.91-.184-1.282zm-.946-50.922c.251.12.252.412.531.512-.128.303-.322-.24-.44.129-.23-.076-.103-.398-.091-.641zm-.19 50.3c.182.168.125.5.532.513.683.455-.807-.195-.513.53-.242-.298-.318-.852-.019-1.043zm-.951 2.947c.448.34-.71.476-.788.897-.268-.225-.174-.7-.22-1.08.195.041.112.275.129.44.297-.543.692-.01.879-.257zm-1.155.623c-.11.444-.46-.354-1.007-.183.075-.23.399-.103.641-.092l.11-.604c.574-.045-.317.923.256.879zm-.78-48.396l.403.073c-.069.164.044.204.165.238.008.405-.971.128-.568-.311zm.18 47.069c.006-.12.017-.222.05-.229.183-.034.105.077-.05.229-.01.161-.014.352-.059.375-1.152.59-.316-.01.058-.375zm-2.7-49.457a.203.203 0 0 0-.137-.175.775.775 0 0 1-.017.173c-.072 0-.144 0-.216.005.114-.11.202-.243.26-.39a.454.454 0 0 1 .315.04c.03.09.083.17.154.234.067-.053.13-.11.188-.172-.02.08-.049.157-.085.231-.15.043-.306.061-.462.054zm.553-1.41a.99.99 0 0 1-.18.473c-.114.058-.228.116-.34.175.13-.371.25-.705.52-.647zm.023-23.458l-.279-.3c.723.226.316 1.649.202 2.324-.57-.918-.391-1.009-.513-1.757.203-.267.39-.097.59-.267zm-9.02 68.113c-.115.315.128.381.092.64a.291.291 0 0 1-.074.096c-.087-.389-.05-.811-.096-1.139a4.314 4.314 0 0 1 1.745-.75c-.821.397-.858 1.258-1.666 1.153zm-.95 1.02c.032-.237.176-.292.56-.715a.582.582 0 0 1 .057.281c-.207.143-.41.29-.617.434zm-1.45 1.02a.663.663 0 0 1-.26-.345l.015-.021c.174-.142.347-.286.519-.432.24.148-.102.611.015.595l-.289.203zm2.009-2.222a.117.117 0 0 1-.135.098c.045-.034.09-.065.135-.098zm-1.457 1.453c.14-.447.381-.262.625-.059l-.345.243a1.232 1.232 0 0 1-.28-.184zm-1.503.948l.045.02c-.01-.014-.011-.024-.02-.037.157-.114.313-.231.466-.354-.003.158.023.314.077.462l-.211.148a2.059 2.059 0 0 1-.462-.167l.105-.072zm5.385-3.098c-.496-.121.065-.692.146-.805.58.242-.271.395-.146.805zM184.504 59.75l.133.052a1.1 1.1 0 0 0-.147.343c.005-.087.015-.235.014-.395zm37.73 36.987c.101.084.209.207.308.28l-.157.11-.358-.26c.07-.042.138-.085.207-.13zM208.749 10.44l-.032.117-.047-.08a1.4 1.4 0 0 0 .079-.037zM179.654 59.7l-.399.09c0-.105-.044-.143-.103-.155-.03-.072-.064-.141-.098-.21.191-.181.754-.159.6.274zm-4.47-23.538c-.209-.418.318-.371.266-.69.515-.03.186.772-.265.69zm37.207 74.933l.038.21c-.112-.01-.156-.05-.038-.21zm9.057-13.91c.068-.034.138-.063.206-.099.012.012.023.024.023.034.007.246.006.408-.002.506l-.079.056c-.041-.102-.093-.302-.148-.498zm7.662-77.889c.137-.16.904.367.59-.267.513-.319-.014.448.267.59-.346.2-.678.026-1.03.395-.185.66.086-.497.173-.718zm-.37-5.516c.322.42-.45.033-.601.556-.33-.628.215-.442.6-.556zm-16.044-4.954c.535-.241.335.668.546.89-.3.25-.4-.67-.546-.89zM210.41 46.1c-.391-.257.088-.48-.117-.73.43-.284.548.575.117.73zm-1.068-35.141l.223-.163a.536.536 0 0 0-.407-.007.593.593 0 0 1 .642-.017c.008.059.012.119.01.179a.708.708 0 0 0 .136-.032.492.492 0 0 1 .058.12c-.232.281-.442-.028-.662-.08zm-.77-.903l.002.006a.642.642 0 0 1 .011.116.458.458 0 0 0-.1-.06c-.032-.075-.062-.155-.1-.253a.23.23 0 0 1 .187.191zm-12.687-4.99c.583.06-.046.746.025 1.043-.385.066-.008-.78-.025-1.043zm-3.441.565c-.448.165-.353-.526-.735-.464-.068-.381.866-.144.735.464zm-18.669 12.177c-.016-.335-.266-.302-.334-.554.036-.331.205-.06.244.155 2.195-3.465 4.319-6.974 6.455-10.475-.659.248-.362-.308.51-.534.01-.649-.635-.26-.625-.909 1.279-.12.067.605 1.134.374-.724 1.897-4.036 5.38-3.335 6.625-2.494 1.454-2.965 5.717-5.132 7.03.6-.686.299-1.494 1.083-1.712zm-1.528 1.602c.504-.081.211.663.18.799-.628.003.095-.47-.18-.799zm-13.837 1.02c-.086.74-1.088-.847.064-.644.07.199-.77.598-.064.644zm-.225-.999c-.317-.02.02-.272-.135-.598-.179.001-.171.12-.156.244.018-.459-.74-.168-1.024-.818.264-.171.663.668.644.065.337.26 1.024.553.67 1.107zm-1.588 4.134c-.51.807-.175-.886.265-.689-.111-.05-.306.754-.265.689zm2.451-4.957c.34.18.626.66.425.953-.232-.084-.31-.412-.69-.265-.806-.152.82-.136.265-.688zm-.52-3.24c.262-.586.76-.004.534.51l-.6.135c-.477-.457.794-.585.066-.644zm1.044-.025c.334.103.434.578.625.908-.196.039-.21-.209-.29-.354-.062.616-.634.28-.71.58-.545-.138.468-.716.375-1.134zm1.517 1.097c.04.112.07.211.042.23-.154.103-.126-.03-.042-.23-.054-.153-.126-.33-.094-.369.83-.993.296-.113.094.369zm-.628-.877l.135.598c-.51.266-.07-.973-.58-.708-.07-.452.562.146 1-.225.02.241-.327.25-.555.335zm1.193-2.157c.045.652.52.623.515 1.352-.232-.084-.31-.412-.69-.264-.038-.195.21-.21.355-.29-.074-.153-.246-.153-.29-.354-.458.276-.659.715-1.248.908-.056.078-.068.095-.015.006l.015-.006c.185-.258.868-1.213 1.358-1.352zm-.78-.664c.724.148-.523.445-.464.734-.922-.273.578-.41.464-.734zm-.444-.11c.013.236-.175.157-.2.046-.649-.01-.26.634-.91.624.042-1.35.204-.55.685-1.623.278.596.16.821.425.954zm-.147-4.372c.056.364.34.366.38.754.513-.575.545-.555.245.155-.438.125-.834-1.176-1.134-.374-.162.075-.206-.036-.245-.155l-.09-.4c.269.114.57.12.844.02zm-1.148 2.357a.719.719 0 0 1 1.089.173c.075.162-.035.207-.154.245l-.4.09c.002-.17.155-.243.11-.444-.608.13-.34.813-.33 1.333a.966.966 0 0 0-.644-.065c.299-.573.599-.968.329-1.332zm-1.528 1.602c.428-.134.673.02.735.464-.235-.17-.751.104-.735-.464zm1.05 1.862c.632-.332-.078-.452.22-.889.235-.013.156.175.045.2.064.44.728-.07 1.044-.026.069.443-.407.543-.91.625.03.496.886-.316.735.464-.513-.01-1.35.088-1.669-.883.405-.19.445.2.535.509zm-2.218 1.338c.102-.392.661-.495.62-.978.361.42 1.008.391 1.114 1.217-.555.337-.454-.365-.58-.708-.393.528-.361.38-1.154.47zm.56 1.553c.076.16-.035.205-.154.244.285.296 1.225-.016.78.664.977-.572-.017-.916.973-1.269-.548.803.953.995.405 1.797-.167-.35-.513-.198-.425-.953-.574.094-.238.763-1.109.67-.096-.35-.512-1.008-.934-.42-.58-.057-.09-.831.464-.733zm-2.115 5.51c.285.001.278.463.38.754.602-1.014.45-1.286.303-2.376-.068-.525.406.197.8-.18.037.196-.21.21-.355.29.002.178.12.17.245.155-.57.153.143 1.117-.574 1.177a.56.56 0 0 0 .535.51c.107.211-.944.199-.31.489-.067.388-.357.11-.6.135-.177.001-.17.12-.154.245-.235.012-.156-.175-.045-.2-.025-.664-.514-.533-.225-.999zm.03 2.93c.576.021-.355-.909.22-.888.121-.81.028 1.091.445.11 1.016.129-.861.653-.065.644-.13.26-.416.239-.799.18-.013-.236.175-.156.2-.045zm-1.874-2.724c.46-.642.776.358.58.709-.195.038-.21-.21-.29-.355-.178.002-.17.12-.155.245-.718.1.584-.699-.135-.599zm.45 1.996c.007.404-.91.224-.418.934.193-.05.1-.28.11-.445.161-.074.205.036.244.155l.09.4c-.47.11-.666-.212-1.244.07.194-.505.319-1.054 1.219-1.114zm-1.482 1.803c.009-.75.487-.135 1.154-.47.038.196-.21.21-.355.29-.193.05-.1.28-.11.445-.232-.085-.31-.414-.689-.265zm-.239 1.732c-.15-.323.07-.412.309-.49.002.179.12.171.245.155.02.241-.326.25-.554.335zm.464-.734c-.095-.512.638-.64.954-.425-.133.264-.357.147-.954.425zm-1.382 5.04c.394-.258.435.292.563.615-.029.065-.064.125-.095.189-.177-.158-.339-.663-.468-.804zm.28 1.408c.078.12.171.23.277.327-.056.158-.173.276-.53.243.051-.203.137-.396.253-.57zm-2.597 1.197c-.243.41-.606-.187-.863.102-.293-.253.582-.657.863-.102zm-2.365 58.858c-.64.2.331-.335.576-.068.036-.77.073-.774.287-.034a1.035 1.035 0 0 1-.863.102zm3.637-1.304c-.152-.128.03-.295.094-.448-.167-.174-.315-.19-.45-.093-.183-.259.227-.156.381-.482.125.325.32.642-.025 1.023zm.492 1.69c-.166-.223-.03-.482-.229-.701a.905.905 0 0 1 .898.185c-.28.081-.52.266-.669.516zm4.08-24.67c-.427-.193.012-.488-.23-.703.382-.348.632.482.23.702zm5.635 27.893c.418.083-.627.998.068.575.202.885-.95-.134-.068-.575zm.078 1.885c.018.143.06.282.122.412-.12-.091-.6.024-.122-.412zm11.238 13.746c-.55.249.073-.442-.186-.62.369-.152.674.064 1.073-.254.27-.63-.151.481-.266.688-.158.14-.848-.483-.621.186zm.255 5.33c-.264-.458.45.028.67-.471.244.666-.272.41-.67.472zm14.949 8.011c.068-.088.13-.182.185-.28.055.157-.036.229-.185.28zm18.476-.832c.226-.42.613.161.858-.138.303.241-.554.68-.858.138zm8.306-7.636c-.487-1.3-.559-3.958-.988-5.658.098-.053.188-.118.268-.194l.777 4.377c.33-.621.476-.008-.028.737.421.494.648-.224 1.07.269-.88.936-.451-.41-1.099.47zm17.964-40.723c-.487-.173.13-.783.513-.531.03.466-.437.217-.513.531zm3.892-26.973c.048-.086.09-.175.125-.267.208.024.419.05.556-.217-.04.32.485.25.293.677-.256.035-.689-.185-.974-.193zm.181 52.671c.214-.618-.234-.777.055-1.446.18.168.124.501.53.512-.04.195-.274.112-.438.129.008.17.165.237.127.439.53-.075.887-.4 1.505-.349.081-.05.1-.06.016 0h-.016c-.271.166-1.274.778-1.779.715zm.458.915c-.608-.419.655-.205.715-.494.741.61-.692.152-.715.494zm.77 2.636a.723.723 0 0 1-.934-.585c-.006-.179.113-.176.238-.166l.403.074c-.068.156-.238.163-.275.366.61.117.63-.616.825-1.099a.96.96 0 0 0 .567.311c-.499.412-.93.658-.824 1.099zm-.385-1.318c-.023-.657.173-.819-.019-1.044.08-.221.223-.075.202.037.593.263.488-.482 1.08-.22-.565 1.228-.401.427-1.263 1.227zm2.418.439c-.446-.043-.611-.281-.494-.714.149.249.732.198.494.714zm-.238-2.123c-.712.058-.105.445-.55.732-.222-.08-.075-.222.037-.202.113-.43-.698-.22-.971-.384.11-.435.586-.34 1.08-.22.168-.468-.938-.054-.494-.714.468.21 1.277.446 1.19 1.465-.446.016-.331-.358-.292-.677zm.622-1.136c-.47.438-.702-.293-.293-.677l.605.11c.26.606-.96.228-.312.567zm.99 1.428c-.169-.529-.776-.754-.55-1.556.643-.093.275.513.256.878.57-.332.482-.21 1.246.019-.247.322-.802.198-.953.659zm1.044-2.307c-.007-.178.113-.175.238-.165-.148-.383-1.134-.463-.459-.915-1.123.145-.343.85-1.392.788.818-.525-.489-1.288.33-1.813.016.389.394.384.018 1.044.565.138.518-.61 1.283-.183-.048.358.078 1.127.696.75.511.279-.243.8-.714.494zm4.274-51.015c.593.094.58-.686 1.318-.384-.075.228-.02.366.13.44-.44.123-1.026.035-1.191.823a.896.896 0 0 1-.257-.879zm-.275.367c-.168.849-.547.392-.843.055.23-.272.292.11.843-.055zm-1.052 44.736c.786-.544-.185.884-.512.53.082.09.575-.574.512-.53zm1.338.658c-.237.62.265.691-.183 1.007-.263-.112-.076-.535-.055-.842-.951.698-.918 1.007-1.209 2.069-.143.51-.297-.34-.806-.147.042-.194.275-.112.44-.128.068-.165-.044-.204-.165-.238.584.081.305-1.085.988-.86a.558.558 0 0 0-.293-.678c-.016-.237.947.185.476-.33.214-.33.373.038.605.11.165.069.204-.044.238-.165.222.08.075.223-.036.202zm.934-1.703c-.522-.243-.029.976-.55.733-.428.699.401-1.015-.366-.275-.885-.515 1.048-.265.31-.567.223-.19.477-.058.807.146-.08.222-.222.075-.201-.037zm.66 3.24c-.675.411-.574-.632-.257-.879.195.041.111.276.128.44.165.068.205-.044.239-.165.7.188-.81.416-.11.604zm.366-2.013c.151-.374.925.15.75-.696-.196-.03-.2.218-.274.366-.178.006-.176-.113-.165-.238l.073-.403c.476.082.53.455 1.173.421-.376.39-.706.846-1.557.55zm2.07-1.08c-.302.687-.501-.067-1.246-.019.041-.195.275-.111.44-.128.197.03.2-.218.274-.367.181.169.124.502.531.513zm-.862-.99c.225-.19.386.006 1.044-.018-.113.509-.836.34-1.044.019zm1.758-.512c.012.356-.226.351-.475.33.068-.165-.045-.205-.166-.238.076-.23.399-.104.641-.092zm4.007-23.192c-.041.194-.275.111-.44.128-.075.228-.02.366.129.44-.143.282-.244-.127-.605-.11.229-.264.418-.584.916-.458zm-2.596 18.872c.067-.156.238-.164.274-.366-.401-.07-.356.502-.88.256.076-.4.597-.156.55-.732a.966.966 0 0 0 .568.311c-.005.417-.156.622-.512.53zm.915-.458c-.576.047-.333-.474-.733-.549.129-.303.323.24.44-.128.195.041.111.275.128.44.523.076.369-.824 1.117-.422a1.852 1.852 0 0 1-.952.66zm1.83-5.492l-.014-.007c-.196.019-.482.095-.462.337-.334-.024-.167-1.391.385-.97-.275.245-.304.446.077.633.18-.018.284.012.014.007zM255 69.41a.898.898 0 0 1-.257-.879c.203.21.478.334.77.348-.12.251-.412.252-.513.531zm1.612 2.58c.262.154.443.415.495.714.478.472-.45-.135-.33-.476-.697.33-.718.298-.165-.237zm-.09 8.512c.113-.262.536-.075.844-.055-.282.554-.343.171-.843.055zm1.465-5.766c.221-.444.516-.78 1.154-.623-.265.412-.627 1.352-1.154.623z"/><path fill="#FFC346" d="M63.009 169.728c1.303 2.472 3.745 10.246 5.787 16.159 1.934 5.102 4.176 11.638 6.361 17.911 1.28 3.714.64 2.81 1.677 5.94 1.862 5.395 3.199 9.481 4.712 14.067l.055.165-.003.163c-.01.545-.054.987-.108 1.474-.046.481-.138.95-.207 1.439-.085.482-.193.965-.291 1.463-.103.495-.247.988-.373 1.499a44.144 44.144 0 0 1-2.318 6.517l-.467.99c-.153.324-.334.627-.496.936l-.967 1.784c-.668 1.132-1.332 2.183-1.956 3.202l-1.963 2.842c-.658.9-1.339 1.75-1.991 2.613-.638.876-1.359 1.674-2.06 2.508-.716.82-1.393 1.7-2.195 2.51l-2.428 2.593c-.865.88-1.81 1.756-2.79 2.714a24.6 24.6 0 0 1-3.623 2.932 26.439 26.439 0 0 1-3.566 1.902c-.594.269-1.202.497-1.818.739-.626.212-1.255.457-1.926.65-1.33.428-2.783.792-4.448 1.158a72.136 72.136 0 0 1-8.067 1.325c-2.474.271-4.76.437-6.956.541-2.824-.15-6.066-.413-9.173-.787-3.107-.37-6.076-.86-8.369-1.35-4.315-.718-5.865-.79-9.39-1.454-3.616-.748-4.425-1.194-8.01-2.035-3.14-.722-4.695-.93-7.277-1.529a269.123 269.123 0 0 1-18.567-5.491l1.02-.106a774.816 774.816 0 0 0-12.048 7.53l-5.69 3.416-2.794 1.679.812-3.144c3.2-12.396 6.814-27.218 10.428-41.089.649-2.732 1.608-6.318 1.937-8.174l.24-.825.388-1.339 1.28.214c14.246 2.386 31.009 4.507 43.654 5.811 3.238.61 5.562.826 9.28 1.302a93.31 93.31 0 0 1 5.159.942l.04.346-.863.847-.296-.04c-.073-1.993-.1-3.746-.296-6.353-.284-2.645-.49-4.914-.49-6.152-.466-2.562-.95-6.323-1.424-9.416-.627-8.563-2.255-19.723-2.793-27.845.454.158.977 4.744 1.49 8.68l-1.013-8.736 44.897-4.546.293.908zm-108.775 94.671l-1.316.8.944.698c.124-.504.248-1.003.372-1.498zm-1.692.522l.39-1.53c-.453.284-.898.561-1.335.832l.945.698z"/><path fill="#FFC346" d="M80.495 224.622c.028.339.028.68.002 1.02a21.053 21.053 0 0 1-.57 3.464l-.043.177-.187-.017-4.788-.428c-2.95-.165-6.677-.483-10.261-.772-2.12-.178-1.533-.285-3.311-.454-5.42-.453-8.478-.816-14.691-1.345-6.217-.721-9.374-1.025-15.202-1.497-3.191-.315-4.952-.592-7.897-.905l-.472-.05-.055-.47-.121-1.042c-.417-3.14-.819-5.636-1.216-7.937-.225-2.995-.628-6.908-.76-9.424-.233-2.34-.433-3.15-.658-5.065-.212-1.973-.135-2.46-.348-4.433-.204-1.724-.387-2.549-.583-3.962-.672-5.666-1.402-12.26-2.187-17.966l-.007-.071-.075-.695.685-.064c6.601-.61 14.773-1.521 22.704-2.32l.344-.035.237.248 2.518 2.64c1.068 1.082 2.443 2.547 3.197 3.233 5.297 5.886 11.822 12.6 16.815 17.519 1.17 1.344 2.077 2.221 3.488 3.676 2.058 2.233 2.61 3.115 4.314 5.031.987 1.048 1.82 1.958 2.229 2.488a75.854 75.854 0 0 1 1.718 1.663l.056.055.032.092.92 2.616c1.252 4.48 3.287 10.27 4.439 14.504-.249-.075-1.01-2.453-1.695-4.49l1.458 4.527a20.04 20.04 0 0 1-.03.489zM17.91 174.157l-.002-.011-.01.012h.012zm.69-.87h.01v-.012l-.01.012z"/><path fill="#FFC346" d="M122.247 306.897c-2.827.202-12.497.248-19.816.389-6.275.245-14.484.464-22.422.667-4.703.109-3.526-.218-7.468-.177-5.07.103-9.229.142-13.351.169l-1.268.008.24-1.258c1.043-5.481 2.093-10.924 3.482-18.63 2.79-13.332 4.084-20.113 6.292-32.643 1.484-7.687 2.482-11.489 3.966-19.178l.3-1.674.203.94c-3.67-4.93-6.747-8.87-9.642-12.505-3.609-5.456-8.517-12.483-11.448-17.12-2.921-4.208-4.142-5.553-6.592-8.964-2.491-3.533-2.88-4.53-5.37-8.063-2.208-3.07-3.416-4.457-5.278-6.946l-5.298-7.38-.865-1.206 1.375-.564 3.042-1.248.147-.06.163-.02a107.962 107.962 0 0 0 13.353-2.412 80.267 80.267 0 0 0 12.45-4.182 57.994 57.994 0 0 0 16.949-10.27l-.215 1.752c-.14-.21-.285-.432-.431-.653l-3.667-5.549 5.544 3.714c5.107 3.405 9.943 7.2 14.463 11.351 2.315 2.107 4.504 4.37 6.612 6.69 1.023 1.187 2.075 2.346 3.033 3.579.484.611.986 1.206 1.45 1.829l1.385 1.866c.525.657 1.024 1.417 1.56 2.171.264.38.53.763.796 1.143l.748 1.16c1.007 1.51 1.854 2.954 2.487 3.892a94.82 94.82 0 0 1 5.54 12.418 98.63 98.63 0 0 1 3.802 13.449 105.81 105.81 0 0 1 1.84 13.466c.295 4.139.367 8.29.217 12.437-.424 3.908-.613 6.682-1.25 11.107a66.81 66.81 0 0 1-1.748 7.478c-.589 2.018-1.198 3.892-2.021 6.576a58.82 58.82 0 0 1-2.323 6.929 110.203 110.203 0 0 1-3.683 10.663c-.978 2.058-2.012 4.236-3.235 6.49l-.115-.885c3.029 3.262 6.28 6.73 9.338 10.117 3.06 3.382 5.917 6.63 8.31 9.327-.388-.25-2.281-2.208-4.496-4.51-1.003-1.042-2.071-2.162-3.094-3.221l7.149 7.541h-1.14zm-61.85 0h-.234l.188.229.045-.229zm-1.02-.954l.044-.222-.231-.006.187.228zm-28.803-130.92l-.196-.273-.114.395.31-.121zm.185-1.596l.304-.124-.19-.27-.114.394zm44.582-17.04l-.301-.206 1-.978c.155.237.243.366.243.366-.31.277-.625.55-.942.819zm.787-1.27l1-.977.39.588.746 1.126-.48.403a119.94 119.94 0 0 0-1.656-1.14zM48.876 76.323c-3.22 2.064-8.725 4.997-12.687 3.965a.655.655 0 0 0-.693.26.662.662 0 0 1-1.198-.291c-.153-1.25-.642-2.756-2.038-3.397-2.381-1.093-4.46 2.096-2.429 4.588a.664.664 0 0 1-.236 1.026l-2.798 1.258a.66.66 0 0 1-.935-.57c-.135-2.955-.014-11.977 6.02-16.345 5.933-4.296 14.088-2.01 19.347 7.157a.664.664 0 0 1-.184.864c-.239.175-.561.407-.954.677.096.288.186.57.266.85.229.71.36 1.447.393 2.192.273.783.208 1.333.427 2.057.085.63-.093 1.513.083 1.981a5.712 5.712 0 0 0-.21 2.072l.009.816-1.026.316c-.194.06-.387.125-.575.19a4.63 4.63 0 0 0-1.37.23l1.002-.942c-.024.097-.05.198-.082.3-.255.811-.725 1.812-.864 2.601-.102.254-.18.592-.334.688-.162 1.3-.85 2.576-1.291 3.858-.132.04-.229.362-.345.483-.175.358-.078.447-.19.736-.232.025-.422.52-.605.888-.183.64-.317.967-.415 1.46a.992.992 0 0 1-.168.334c-.03.182-.184.597-.28.904.093-.539.216-1.073.368-1.598l.397-1.674c.084-.345.083-.246.156-.536l.597-2.393a60.33 60.33 0 0 0 .633-2.473l.397-1.451c.126-.515.213-.93.287-1.313l.356-1.18.025-.082.073-.01c.12-.018.235-.035.346-.05.388-.072.52-.12.836-.184.326-.063.41-.053.735-.116l.04-.008-.072.081c.019-.26.009-.4.013-.624.044-1.004.022-2.01-.064-3.011a22.68 22.68 0 0 0-.763-4.584zm-3.096 4.975c-.116.4-.487.645-.828.546-.34-.099-.523-.504-.406-.904.116-.401.487-.646.828-.547.34.099.523.504.406.905z"/><path fill="#FFC346" d="M13.079 104.857c.324-.773.697-1.526 1.118-2.253.136-.283.321-.541.545-.762.198-.183.37-.39.515-.618a19.793 19.793 0 0 1 2.33-2.843c.393-.428.843-.816 1.315-1.266.498-.42 1.028-.894 1.683-1.38.332-.238.66-.438.971-.626.31-.19.6-.377.894-.53l.837-.467.816-.41a28.664 28.664 0 0 1 3.605-1.512c.403-.127.813-.233 1.227-.316l.544-.115.53-.078c.697-.114 1.4-.182 2.334-.284 1.4-.17 2.807-.266 4.216-.288 1.573.247 3.601.711 4.8 1.28 1.152.413 1.6.47 2.518.833.939.398 1.113.615 2.04 1.03.817.351 1.245.449 1.924.723 1.334.594 2.75 1.33 4.169 1.945a34.594 34.594 0 0 0 4.257 1.617l1.416.441c.495.166.998.306 1.508.42.52.113 1.052.227 1.593.343l.407.087c.137.023.276.037.414.056l.836.108c1.134.147 2.274.23 3.417.247l1.717-.061c.285-.005.569-.029.85-.07l.842-.097.592-.084c.204-.031.407-.087.605-.129a9.7 9.7 0 0 0 .994-.265 18.656 18.656 0 0 0 5.783-2.097 20.401 20.401 0 0 0 4.618-3.576c.33-.235.636-.501.915-.795.271-.285.556-.577.894-.951 1.055-1.08 1.539-1.342 2.407-2.303a15.73 15.73 0 0 1 1.077-1.3c.339-.63.878-1.513 1.267-2.273 1.32-1.851 2.49-4.586 3.372-6.591.194-.71.26-1.152.449-1.7a1.49 1.49 0 0 0 0-.877c.164-.397.297-.807.397-1.226a2.25 2.25 0 0 0 .262-.942c.127-.37.203-.285.344-.723.157-.644.7-1.692.634-2.036.18-.268.334-.552.46-.85.158-.352.29-.715.397-1.087.196-.385.419-.759.629-1.138.355-.556.097-.552.317-.985a29.783 29.783 0 0 1 2.374-3.117 10.231 10.231 0 0 1 2.949-2.368c1.203-.765 2.255-.925 3.46-1.148a5.661 5.661 0 0 1 1.934.063c.192.047.38.111.56.192.098.053.193.108.284.163a1.785 1.785 0 0 1 .754 1.329 3.223 3.223 0 0 1-.358 1.223 9.423 9.423 0 0 1-.6 1.034c-.443.663-.92 1.303-1.428 1.917-.508.466-.98 1.003-1.577 1.584l-.077-1.171c.217.148.407.29.61.451a23.171 23.171 0 0 1 3.34 3.462c.279.353.508.743.68 1.159a6.976 6.976 0 0 1 1.231 3.47 5.95 5.95 0 0 1-.2 1.952 70.614 70.614 0 0 1-.507 1.693c-.133.09-.303.639-.45.855-.267.615-.185.756-.374 1.25-.272.05-.627.875-.977 1.47-.414 1.056-.736 1.561-.971 2.393a.934.934 0 0 1-.411.492 8.427 8.427 0 0 1-.164.39c-.002.983-.1 2.192-.169 3.22a42.343 42.343 0 0 1-.51 5.307c-.164 1.093-.274.768-.456 1.674-.118.695-.25 1.31-.387 1.891a30.449 30.449 0 0 1-.42 1.69 79.02 79.02 0 0 1-1.123 3.825c-.297.759-.543 1.427-.811 2.032-.264.605-.47 1.175-.724 1.72-.246.547-.483 1.09-.731 1.675l-.885 1.875c-.446.827-.839 1.416-1.212 2.013-.391.587-.814 1.153-1.32 1.944-.45.694-.876 1.305-1.244 1.894-.37.587-.76 1.094-1.099 1.612-.537.581-1.217 1.196-1.858 1.798a15.952 15.952 0 0 1-1.85 1.51c-.465.4-.76.694-1.06.942-.291.257-.559.501-.955.815-.82.643-1.127.642-1.989 1.213a13.87 13.87 0 0 0-.89.66c-.258.185-.502.353-.818.553l-.99.567-.509.29c-.173.09-.354.17-.533.256-.718.334-1.443.694-2.182 1.023l-2.247.885c-.366.162-.748.262-1.116.388l-1.092.366c-.957.302-2.011.494-3.1.738-1.088.275-2.236.401-3.401.595-1.167.176-2.353.396-3.558.465l-1.8.15-.895.07a8.01 8.01 0 0 1-.89.04c-.79.038-1.836.035-2.366.115-.515-.027-1.042-.03-1.576-.061l-1.62-.123c-1.09-.08-2.2-.106-3.286-.243l-1.619-.15c-.534-.045-1.061-.085-1.573-.164-1.024-.139-2.01-.25-2.919-.358a23.453 23.453 0 0 0-2.577-.593 7.05 7.05 0 0 1-.972-.312 16.534 16.534 0 0 1-.744-.31c-.46-.2-.887-.397-1.514-.62-.552-.174-1.09-.39-1.61-.646a26.294 26.294 0 0 1-2.567-.754c-2.174-1.044-5.123-2.23-6.951-3.676.123-.099.665.212 1.329.554.327.18.686.365 1.025.53.293.153.596.288.906.403.47.238.878.435 1.245.605.37.166.703.29 1.01.414.617.245 1.143.449 1.762.685.48.186.989.28 1.502.281.722.273 1.459.508 2.206.702a5.74 5.74 0 0 0 1.701.408c.677.173.562.25 1.363.438.581.1 1.384.267 2.107.414.362.073.703.137.989.177.215.036.435.038.652.007.552.15 1.114.263 1.68.34.425.065.791.109 1.122.14.332.02.63.018.917.018l2.28.262c.333.067.677.061 1.009-.016.25-.073.512-.106.774-.097l1.78.126c.29.017.578.043.863.049l.85-.004c1.121-.01 2.207-.015 3.276-.045 2.132-.184 4.209-.27 6.374-.582a43.766 43.766 0 0 0 5.897-1.242c.433-.133.911-.27 1.405-.409.504-.127 1-.28 1.486-.46l1.378-.515a6.91 6.91 0 0 0 1.099-.496c1.956-.672 4.532-2.164 6.638-3.808.62-.443 1.26-.924 1.906-1.475l.96-.897c.326-.311.683-.611 1.006-.968l1.414-1.456 1.409-1.63c.447-.566.872-1.146 1.285-1.696.406-.556.741-1.125 1.065-1.635l.359-.535.33-.559c.162-.284.344-.557.545-.816.237-.43.452-.88.669-1.332l.668-1.36c.413-.931.868-1.857 1.25-2.823.418-.95.768-1.935 1.136-2.91.329-.988.671-1.97.935-2.965.235-.516.433-1.048.592-1.592.344-1.143.251-1.357.457-2.275.293-.195.65-1.77.934-2.975.296-2.019.496-3.08.497-4.621.01-.382.093-.757.245-1.107a3.27 3.27 0 0 1-.006-.21c-.04.068-.082.137-.125.204-.204-.127-.07-.579.162-1.14.032-.567.074-1.213.07-1.747.158.007.254.359.299.903.105-.239.207-.478.293-.705.226-.81.59-1.795.888-2.758.177-.568.274-.359.442-.83l.571-1.894c.083-.3.176-.603.258-.941.095-.363.17-.73.226-1.1a4.19 4.19 0 0 0 .006-1.957 5.765 5.765 0 0 0-.774-1.78 11.38 11.38 0 0 0-1.27-2.046 7.96 7.96 0 0 0-1.707-1.38c-.47-.553-.97-1.08-1.497-1.579l-.61-.61.546-.366c.117-.08.23-.155.333-.216a9.15 9.15 0 0 0 .94-1.057c.382-.392.57-.401.934-.812.217-.294.405-.61.562-.94.218-.312.41-.642.571-.986.139-.249.192-.536.151-.818a.298.298 0 0 0-.17-.153.586.586 0 0 0-.186-.068.876.876 0 0 0-.237-.043 3.31 3.31 0 0 0-.536-.018c-.19.016-.377.035-.562.062-.253.024-.512.033-.786.082l-.413.065c-.137.024-.26.064-.394.096-.13.036-.265.06-.396.108l-.391.155c-.267.11-.526.238-.776.384a11.533 11.533 0 0 0-2.758 2.388c-.272.31-.51.649-.712 1.009-1.496 1.587-2.654 3.981-3.234 5.843-.24.406-.43.84-.566 1.292-.368.763-.664.956-1 1.6a3.775 3.775 0 0 1-.417.848c-.051.401-.208.957-.298 1.427-.57 1.19-.878 2.89-1.347 4.04-.158-.058-.098-.464-.005-.915-.216.547-.447 1.097-.579 1.478-.935 1.866-1.305 2.72-1.986 3.85a4.3 4.3 0 0 0-.568 1.419l-.75 1.078c-.204.27-.393.552-.566.843-.388.444-.73.926-1.024 1.438-.432.559-.46.413-.987 1.055-.454.563-.94 1.1-1.457 1.608-.417.375-.797.79-1.132 1.241-.275.193-.829.603-1.393 1.057-.332.285-.642.499-.907.714-.266.211-.499.407-.722.599-.328.214-.676.4-1.014.6-.343.192-.672.409-1.033.568-1.088.494-.762.617-1.557.99-.598.211-1.17.444-1.746.629l-1.71.491-1.683.349-.414.085-.417.05-.828.098-.821.097c-.274.022-.548.021-.821.032-.547.011-1.092.043-1.638.032a25.131 25.131 0 0 1-3.286-.325c-.597-.072-1.152-.107-1.663-.216l-1.468-.315-.712-.155c-.238-.05-.467-.131-.706-.195a59.645 59.645 0 0 0-1.499-.408c-.223-.068-.46-.131-.698-.216l-.723-.282c-.49-.195-.994-.396-1.486-.59-.497-.182-.954-.415-1.382-.603a19.58 19.58 0 0 0-1.141-.478c-.945-.502-2.03-1.098-3.25-1.65a58.747 58.747 0 0 0-3.768-1.563 21.608 21.608 0 0 0-4.785-1.561 22.71 22.71 0 0 0-4.047-.535 19.164 19.164 0 0 0-3.967.254c-.396.057-.843.15-1.243.215-.31.075-.625.13-.942.165a27.395 27.395 0 0 0-5.47 2.271 21.539 21.539 0 0 0-4.858 3.591 2.934 2.934 0 0 0-.586.461c-.246.221-.483.49-.657.628-.29.288-.548.608-.766.953l-.58.863c-.337.058-1.278 1.335-1.898 2.384-.38.731-.723 1.481-1.025 2.248a7.929 7.929 0 0 0-.339.972c-.103.341-.19.687-.258 1.037a2.737 2.737 0 0 1-.435 1.026c-.052.421-.126.84-.223 1.253-.102.513-.184 1.083-.256 1.562-.216-.039-.236-.774-.11-1.757.075-.537.177-1.07.308-1.595l.203-.83.047-.156c-.17.435-.308.809-.505 1.232-.149.338-.208.71-.172 1.077-.244.486-.45.99-.615 1.508-.208.36-.345.755-.403 1.165-.175.46-.249.36-.44.907-.235.798-.866 2.141-.804 2.553-.2.35-.368.72-.5 1.101a10.02 10.02 0 0 0-.395 1.388l-.583 1.51c-.311.758-.044.679-.217 1.25-1.297 3.184-2.034 5.864-3.01 8.776-.372 1.612-.721 2.652-.99 4.136-.145.624-.326 1.37-.501 2.077a15.84 15.84 0 0 0-.335 1.861c-.455 1.75-.7 3.548-.732 5.355a20.939 20.939 0 0 0-.093 3.576c.02.963.1 1.924.234 2.878.065.48.162.955.29 1.422.106.436.241.865.405 1.284.147.553.45 1.218.466 1.51a38.606 38.606 0 0 0 1.945 3.717 16.484 16.484 0 0 0 2.625 3.327c.222.317.477.611.76.876.203.202.435.373.688.508.189.104.358.196.628.368.005.301.936.912 1.68 1.344 1.295.551 2.007.82 3.069.913.08.01.16.026.24.048a10.242 10.242 0 0 1-.33-1.508c-.29-.688-.597-1.726-.875-2.576-.448-2.412-1.284-5.523-1.494-7.842.306.029.64 2.472.997 3.501.414 2.111.765 3.008 1.081 4.323.128.51.352.99.66 1.416.181.77.41 1.526.684 2.267.049.229.11.454.182.676.459.038 1.094.12 1.584.087.015.228-.512.358-1.22.346a4.87 4.87 0 0 1-.209-.01c.08.2.171.394.271.584.236.674.106.62.404 1.406.458 1.115 1.138 3.16 1.522 3.572.098.367.22.728.364 1.079l-.501-.353.607.02c.698.006 1.395-.032 2.087-.115.783 0 1.567-.01 2.352-.029 1.193-.01.943-.226 1.807-.294 2.5-.045 4.756-.224 6.938-.453 2.183-.234 4.296-.501 6.515-.804 2.364-.474 3.948-.7 6.076-1.264a56.877 56.877 0 0 0 5.703-1.446 43.647 43.647 0 0 0 7.52-2.51c.749-.246 1.505-.577 2.313-.919.805-.348 1.63-.773 2.536-1.179 1.182-.585 2.548-1.22 3.84-1.951l.972-.531c.316-.183.62-.377.922-.562.597-.377 1.181-.72 1.682-1.086a23.384 23.384 0 0 1 1.961-1.257 83.486 83.486 0 0 1 2.06-1.65c.676-.582 1.362-1.165 2.06-1.748l-.117.961a68.036 68.036 0 0 1-3.668-6.465c-.018-.249-.496-1.197-.628-1.65-.489-1.136-.659-1.273-1.056-2.17a3.29 3.29 0 0 0-.24-1.223c-.094-.292-.197-.61-.3-.934l-.277-.963c-.727-1.976-.923-3.069-1.44-4.576a2.797 2.797 0 0 1-.071-1.169 7.03 7.03 0 0 1-.26-1.308l-.169-1.651c.229.001.412.734.577 1.725.213.984.44 2.233.764 3.259.234.733.557 1.546.86 2.405.152.43.342.857.513 1.294.172.436.348.874.546 1.298.453 1.009.17.803.553 1.65.61 1.28 1.096 2.277 1.63 3.308a48.99 48.99 0 0 0 1.968 3.478c.66 1.197 1.222 2.137 1.773 2.957l.286.426-.376.319c-1.115.942-2.08 1.85-3.49 2.973-.631.488-1.29.938-1.975 1.348l-.932.594-1.094.671c-1.39.952-2.526 1.667-3.546 2.396-.741.307-1.584.685-2.398 1.044-.826.333-1.627.639-2.264.845-1.155.467-1.526.715-2.466 1.116-.983.374-1.272.327-2.257.686-.855.334-1.255.536-1.956.818-2.856.99-6.246 1.902-9.19 2.697a120.079 120.079 0 0 1-13.835 2.285c-.796.115-1.857.176-2.387.3-3.562.08-7.626.28-11.083.31l-.43.004-.2-.446-.727-1.624c-.257-.912-.533-1.521-.9-2.53-.423-1.38-.434-1.99-.657-3.05a12.158 12.158 0 0 1-1.215-.215 12.14 12.14 0 0 1-3.635-1.16c-.711-.362-.439-.398-1.003-.745a13.306 13.306 0 0 1-2.106-1.574 21.75 21.75 0 0 1-1.975-2.064 30.077 30.077 0 0 1-1.55-2.44 24.315 24.315 0 0 1-.635-1.13l-.335-.617-.343-.689c-.4-1.03-.741-2.084-1.021-3.154-.16-.569-.346-1.077-.484-1.554a32.66 32.66 0 0 0-.382-1.346l.012-1.836c.04-.62.082-1.215.158-1.675.073-.859-.025-1.166.008-1.872.078-.723.225-.885.303-1.603.062-.629.023-.941.053-1.462.258-2.065.743-4.428 1.098-6.493.684-2.693 1.54-6.14 2.6-9.262.146-.532.394-1.216.449-1.586a84.122 84.122 0 0 0 3.008-8.262 11.65 11.65 0 0 0 .705-1.693c.471-.994.805-1.255 1.252-2.072.15-.375.342-.733.572-1.066.125-.5.392-1.191.588-1.773.711-1.242 1.365-2.925 2.082-4.23z"/><path fill="#333" d="M57.81 306.982c-.879-.241.122-4.208.612-7.161.193-2.153.653-4.835 1.064-7.42.256-1.526.49-1.049.744-2.322.65-3.903 1.227-6.067 1.993-10.538a97.887 97.887 0 0 0 2.267-10.866c.536-2.56 1.058-3.785 1.593-6.344.337-1.928.567-3.872.688-5.825.71-2.078 1.428-4.85 2.134-6.565a10.8 10.8 0 0 0 .351-1.904c.067-.518.08-1.004.168-1.673.123-.684.22-1.107.332-1.532.15-.505.238-1.027.26-1.554a7.492 7.492 0 0 0-.082-1.496 43.575 43.575 0 0 1-.18-1.32 31.459 31.459 0 0 0-.966-6.251 25.44 25.44 0 0 0-2.333-5.89l-.203-.462-.232-.457-.482-.934c-.168-.313-.362-.617-.546-.931-.19-.311-.368-.635-.586-.938l-.636-.933c-.212-.313-.461-.642-.694-.965l-1.443-1.977c-1.949-2.664-3.98-5.43-5.873-8.143-.682-.871-1.498-2.084-2.044-2.603a115.282 115.282 0 0 0-10.32-14.327c-.614-1.152-1.226-1.841-2.105-3.025-1.19-1.862-1.277-2.712-2.208-4.337a11.363 11.363 0 0 1-1.232-2.103c-.732-.734-1.64-1.92-2.45-2.853-1.67-2.957-4.522-6.37-6.06-9.206.552-.254 2.34 2.658 3.41 3.732 1.665 2.47 2.622 3.409 3.682 4.957a4.469 4.469 0 0 0 1.684 1.42c.685.964 1.485 2.225 1.958 2.646.708 1.114 1.204 1.679 1.575 1.931.6.793.353.81 1.085 1.724 1.11 1.264 2.716 3.8 3.472 4.155a13.46 13.46 0 0 0 1.318 2.06c.577.787 1.211 1.53 1.896 2.224l1.872 2.689c.916 1.384 1.085.851 1.832 1.802 3.802 5.841 7.279 10.275 10.68 15.506.52.66.982 1.274 1.414 1.86l.628.863c.204.28.406.59.605.88.197.294.4.583.592.88l.563.912c.398.605.746 1.266 1.166 1.951.315.606.618 1.295.922 2.006.268.727.579 1.461.799 2.205l.354 1.084.295 1.032c.208.655.36 1.256.523 1.743.434 3.084.914 7.474.615 11.513a43.515 43.515 0 0 0-.306 1.74l-.337 1.833c-.24 1.215-.486 2.479-.789 3.836-.808 3.6-2.019 8.175-2.634 11.594-.282 1.145-.566 2.63-.842 3.155-.886 5.58-2.52 11.498-3.77 17.243-.273.264-.556 1.692-.831 2.286-.469 1.636-.27 1.952-.573 3.26-.543.248-1.104 2.47-1.66 4.14-.57 2.84-1.046 4.293-1.235 6.481a2.963 2.963 0 0 1-.644 1.489c-.018.817-.555 2.658-.85 4.023z"/><path fill="#FFC346" d="M125.11 96.79c.107-.092.23-.163.366-.207.335-.456.7-.89 1.095-1.296.332.314-.826 1.543-1.582 2.52-.485.751-1.183 1.631-1.844 2.484-.397.5-.395.275-.74.685-1.012 1.28-1.654 1.945-2.828 3.402a44.294 44.294 0 0 0-3.006 3.457c-.71.812-1.134 1.159-1.842 1.973a29.652 29.652 0 0 0-1.455 1.926c-.661.619-1.472 1.478-2.045 1.98-.485.513-.603.74-.986 1.173-.404.438-.555.496-.956.936-.343.392-.475.612-.746.943-1.132 1.285-2.464 2.765-3.572 4.092-1.547 1.696-3.464 3.92-5.292 5.946-.298.345-.704.791-.891 1.032-1.636 1.725-3.475 3.847-4.851 5.436-.367.388-.613.676-1.017 1.13l-1.355 1.453-.376.418c.085.02.17.042.256.064 1.401.261 2.28.862 3.313 1.52.532.373.996.834 1.371 1.364.109.166.202.34.279.523.035.105.067.21.096.313a1.79 1.79 0 0 1-.357 1.485c-.318.287-.69.508-1.096.65-.374.14-.756.256-1.145.348-.776.182-1.562.324-2.353.427-.69-.005-1.402.065-2.234.083l.743-.909c.057.257.1.49.137.746.194 1.595.22 3.207.079 4.808-.038.448-.137.89-.294 1.311a6.997 6.997 0 0 1-1.47 3.377 5.982 5.982 0 0 1-1.479 1.29 66.71 66.71 0 0 1-1.527.891 6.855 6.855 0 0 0-.913.319c-.615.267-.65.427-1.127.66-.232-.15-1.055.211-1.718.408-1.023.489-1.604.64-2.343 1.087a.944.944 0 0 1-.637.08 8.377 8.377 0 0 1-1.512.555c-.117-.432 1.395-.888 2.439-1.404.718-.438 1.656-.91 2.532-1.411.518-.294.446-.075.89-.306l1.711-.995c.265-.162.54-.32.831-.512.317-.2.623-.417.916-.65a4.186 4.186 0 0 0 1.34-1.426c.32-.57.54-1.188.65-1.83.24-.769.397-1.56.468-2.362 0-.734-.103-1.465-.305-2.172.034-.725.029-1.45-.016-2.175l-.028-.862.648.104c.14.023.274.045.391.07a9.382 9.382 0 0 0 1.41-.131c.545-.027.69.095 1.236.042.36-.067.712-.169 1.052-.304.373-.08.738-.19 1.092-.332.27-.087.506-.26.668-.494a.29.29 0 0 0-.02-.229.565.565 0 0 0-.09-.176.894.894 0 0 0-.143-.193 3.317 3.317 0 0 0-.38-.379c-.149-.117-.3-.23-.453-.337-.201-.155-.396-.325-.63-.476l-.347-.234c-.117-.076-.234-.131-.353-.199-.12-.062-.235-.136-.363-.19l-.392-.154a6.138 6.138 0 0 0-.83-.248 11.473 11.473 0 0 0-1.106-.164l-.193.223-3.01 3.404 1.359-1.562 1.667-1.926.124-.144a11.491 11.491 0 0 0-2.487.035 5.877 5.877 0 0 0-1.21.252c-2.177.14-4.66 1.1-6.354 2.067a5.83 5.83 0 0 0-1.296.558c-.79.307-1.139.247-1.824.488-.28.149-.576.262-.884.336-.31.259-.805.557-1.192.84-1.229.481-2.615 1.514-3.744 2.036-.137-.276 1.044-.9 1.478-1.302 1.012-.567 1.4-.92 2.047-1.264.26-.149.469-.372.599-.641a8.219 8.219 0 0 0 1.128-.626 2.25 2.25 0 0 0 .835-.51c.345-.184.343-.07.744-.294.556-.364 1.668-.761 1.854-1.057a4.94 4.94 0 0 0 .917-.307c.356-.15.701-.325 1.032-.525.407-.148.825-.268 1.237-.403.64-.164.448-.337.905-.503a29.564 29.564 0 0 1 3.864-.66 10.205 10.205 0 0 1 3.432.194c.099-.116.182-.215.237-.282.358-.41.556-.647.661-.785.266-.313.242-.263.553-.632.44-.532 1.255-1.46 1.423-1.714.133-.14.392-.44.664-.758.327-.385.554-.667.76-.93l.88-1.026c.45-.516.318-.447.635-.833 1.889-2.164 3.362-3.96 5.065-5.887.874-1.075 1.493-1.753 2.283-2.741.69-.826 1.708-1.935 2.193-2.58.854-.882 1.97-2.23 2.967-3.474.622-.66 1.231-1.45 1.974-2.322.986-1.16 2.3-2.602 3.193-3.725.282-.35.586-.681.91-.992 1.412-1.856 3.14-3.707 4.709-5.558.151-.041.531-.507.748-.668.298-.344.578-.705.839-1.079.255.026.895-.67 1.43-1.163a20.33 20.33 0 0 0 1.708-2.12c.042-.06.089-.114.14-.163a9.954 9.954 0 0 1-.25-.832c-.181-.638-.348-1.391-.479-1.845a36.392 36.392 0 0 1-.614-3.842 3.846 3.846 0 0 0-.346-1.34c-.046-.755.025-1.709-.028-2.11.033-.422.07-.752.08-1.014.008-.2-.002-.399-.03-.596.09-.642.171-.54.3-1.288.036-.314.097-.625.182-.929.084-.342.185-.68.303-1.01.205-.663.466-1.225.442-1.513.142-.181.274-.369.397-.563l.24-.39c.09-.135.192-.269.29-.408l.32-.482.303-.41c.194-.257.34-.514.524-.723.282-.243.544-.512.848-.728.304-.214.598-.443.914-.636.99-.525.639-.684 1.385-1.041a16.591 16.591 0 0 1 3.24-.888c1.002-.184 1.946-.344 2.89-.53 1.865-.384 3.701-.9 5.494-1.545.491-.183.926-.385 1.34-.573.414-.184.806-.36 1.175-.563.78-.386 1.523-.84 2.222-1.356.259-.184.539-.382.803-.612.134-.114.277-.222.408-.343l.386-.37a6.37 6.37 0 0 0 .665-.783c.09-.125.174-.256.249-.392.053-.1.097-.204.13-.312l.13-3.491.968 3.514.246.895c.387 2.344.64 4.708.76 7.08-.107 1.414-.101 2.983-.377 4.775a25.758 25.758 0 0 1-.948 3.823c-.192.654-.457 1.28-.682 1.891-.23.61-.506 1.171-.714 1.708-.18.346-.405.731-.602 1.074-.14.28-.328.533-.555.749a15.475 15.475 0 0 1-3.653 4.463c-.384.31-.744.65-1.15.93l-1.215.838c-.404.279-.844.497-1.26.747l-.63.363c-.21.12-.433.213-.648.32-.252-.034-1.095.393-1.506.489-1.047.334-1.146.538-1.963.831a2.45 2.45 0 0 0-1.116.067c-.531.093-1.146.28-1.7.356-.893.213-1.577.361-2.204.495-.635.097-1.211.198-1.887.334a3.455 3.455 0 0 1-1.01.047c-.5.078-1.707.147-2.583.22.012-.03.658-.122 1.53-.254.437-.068.932-.128 1.43-.215l1.454-.314 1.034-.275 1.103-.37 1.15-.383c.383-.143.757-.314 1.131-.47.244-.118.505-.196.774-.23.234-.013.463-.077.669-.188a77.083 77.083 0 0 1 1.498-.741c.459-.234.87-.496 1.303-.736.215-.125.434-.245.654-.379l.655-.46.709-.506c.258-.195.505-.404.74-.626l.787-.57c.24-.19.45-.39.659-.573l.597-.541c.194-.174.35-.377.521-.562.35-.374.671-.773.963-1.194.34-.467.65-.955.928-1.46.21-.33.41-.606.594-.865.169-.27.332-.515.497-.76a10.64 10.64 0 0 0 .958-1.72c.132-.323.218-.646.313-.947.092-.288.17-.58.231-.877.115-.532.2-1.07.253-1.611.584-1.196.972-2.9 1.343-3.984.19-1.038.071-1.42.149-2.277.071-.885.262-1.095.292-1.99a16.916 16.916 0 0 0-.138-1.799 31.998 31.998 0 0 0-.372-4.392l.868.018c-.07.19-.162.37-.272.54-.105.143-.2.299-.314.427-.215.262-.446.51-.69.746-.246.22-.49.44-.74.64-.257.19-.501.392-.755.567a33.55 33.55 0 0 1-5.25 2.677c-1.929.823-3.982 1.546-5.976 2.213-.664.23-1.553.495-1.986.705-.446.113-.85.236-1.288.359-.43.124-.841.315-1.269.471-.407.197-.82.395-1.21.623-.387.23-.757.488-1.108.77a9.253 9.253 0 0 0-1.79 1.87 9.57 9.57 0 0 0-.63 1.041c-.089.177-.18.347-.262.52l-.207.523a6.339 6.339 0 0 0-.808 1.984c-.1.31-.199.567-.297.795l-.255.632a6.795 6.795 0 0 0-.435 1.343c-.034.32-.073.617-.113.872a4.06 4.06 0 0 1-.109.618c.06.635.093 1.559.179 2.317-.012 1.16.082 2.32.28 3.463.149.992.343 1.977.58 2.952zm-44.024 51.612c.075-.085.145-.169.2-.249.071-.069.148-.17.21-.179.115-.147.235-.29.36-.428l.022-.04c.07-.118.133-.24.187-.367l.194-.37c.05-.115.083-.228.119-.337.038-.112.064-.227.078-.343.024-.131.039-.264.046-.397a6.03 6.03 0 0 0 .134-.897 2.412 2.412 0 0 0-.17-.794l.01-.122.012-.16a.405.405 0 0 1 .8-.036c.046.268.137.575.181.796.078.153.173.295.286.424.103.167.075.246.194.407a1.7 1.7 0 0 0 .31.258c.202.21.434.389.688.532.227.14.494.201.759.175a.692.692 0 0 0 .69-.55c.119-.42.155-.858.105-1.291a1.718 1.718 0 0 0-.093-.448 4.951 4.951 0 0 0-.697-2.36 1.317 1.317 0 0 0-.214-.456c-.122-.275-.09-.416-.203-.656a1.209 1.209 0 0 1-.17-.301c-.125-.083-.276-.227-.423-.318-.28-.4-.863-.65-1.243-.901.071-.136.502.117.715.184.26.155.508.33.74.524a.55.55 0 0 0 .323.13c.103.13.213.255.332.372.11.167.18.255.251.285.09.123.03.136.137.278.167.198.324.624.456.688.02.122.056.242.106.356.054.137.121.27.199.395.043.156.092.311.131.47.05.243.145.166.205.34.086.52.17.992.202 1.468.05.497-.018.999-.2 1.464a1.47 1.47 0 0 1-1.18 1.058 1.761 1.761 0 0 1-.79-.108c-.244-.087-.445-.203-.595-.267a8.482 8.482 0 0 1-.74-.678 7.277 7.277 0 0 1-.148.198l-.321.55c-.067.113-.087.05-.15.14-.172.288-.3.425-.497.756a3.223 3.223 0 0 0-.24.269l-.132.18a2.948 2.948 0 0 0-.181.3c-.133.175-.252.217-.39.387a1.88 1.88 0 0 0-.211.463 5.13 5.13 0 0 1-.52.31c-.11.094-.108.163-.188.248-.09.083-.154.065-.24.15-.05.066-.091.138-.127.212a9.53 9.53 0 0 0-.717.837c-.333.327-.707.79-1.097 1.185a1.626 1.626 0 0 0-.174.214 7.08 7.08 0 0 0-1.017 1.074c-.078.066-.151.14-.216.22-.136.127-.205.149-.321.254a1.168 1.168 0 0 1-.15.14c-.048.07-.13.165-.195.245-.206.195-.446.478-.636.668-.005-.017.188-.227.263-.328.166-.186.23-.277.333-.395a.46.46 0 0 0 .09-.158c.062-.068.12-.14.173-.215a.598.598 0 0 0 .122-.169c.051-.066.058-.046.116-.125.078-.118.25-.3.258-.374a1.224 1.224 0 0 0 .271-.358l.176-.21c.092-.104.033-.118.09-.202.393-.43.66-.822 1.023-1.198.157-.235.295-.362.434-.58.157-.167.303-.345.436-.532a2.67 2.67 0 0 0 .585-.718c.042-.045.083-.09.123-.137a2.15 2.15 0 0 0-.372.207.303.303 0 0 1-.253-.011c-.19.073-.386.127-.587.161-.017-.113.119-.199.307-.274.213-.063.42-.145.619-.243.126-.092.274-.178.425-.27l.423-.335a.342.342 0 0 1 .149-.087zm2.623-2.491a.325.325 0 0 0-.11.08c-.11.147-.208.23-.37.41-.067.05-.14.113-.207.154.089-.303.146-.616.169-.934.056-.158.086-.324.089-.492.018-.458.01-.915-.024-1.371l-.718.173c.053.154.097.307.158.443.164.347.347.685.55 1.012.147.181.301.356.463.525zm108.906-60.047c.005.539 0 1.118.195 1.634-.134.857.107 1.952.026 2.97.047.17.005.395.146.509a2.898 2.898 0 0 0 .047 2.717c-.172.2-.075.34-.05.568-.116.34-.541.453-.73.74a.457.457 0 0 1-.224.374c.137.176.248.37.33.576-.364.52-.032 1.203-.433 1.696-.597-.018-.355-.543-.6-.773.086-.458-.146-.662-.106-.95-.039-.196-.324-.243-.543-.329.005-.182.089-.411-.05-.506a.264.264 0 0 0-.157-.383c-.026-.153.186-.133.122-.313-.166-.258.004-.719-.403-.831.116-.072.127-.22.129-.376a.737.737 0 0 0-.247-.448l.043-.504c.061-.256-.386-.204-.44-.39.31-1.072.066-1.938.348-2.898-.154-.517.003-.859-.169-1.33-.028-.402.21-.963.015-1.264.09-.127.145-.269.176-.42l-.29-.02-1.183-.167c-.379-.06-.736-.144-1.068-.186a3.34 3.34 0 0 1-1.166-.491 7.633 7.633 0 0 1-2.929-1.49 12.63 12.63 0 0 1-2.29-2.37 1.103 1.103 0 0 0-.176-.367 4.107 4.107 0 0 1-.218-.435c-.31-.524-.422-.563-.64-.994.046-.102-.047-.32-.133-.607-.088-.286-.223-.613-.315-.905a13.741 13.741 0 0 1-.608-2.207 4.44 4.44 0 0 1-.037-.553c-.055-.47-.08-.943-.073-1.416l.014.246.046.6c.023.262.063.522.121.78.042.267.103.531.184.79.123.386.274.764.45 1.129.097.194.186.396.293.59l.355.562c.273.438.132.357.376.718l.287.375.292.321c.174.206.36.401.556.586.2.18.395.37.628.557.246.173.505.368.822.556a5.658 5.658 0 0 0 3.244 1.348c.795.149 1.154.405 1.974.432.336-.038.665-.12.978-.247.156-.068.306-.148.45-.238.047-.4.09-.813.004-1.148.027-.182-.016-.414.139-.502-.341-.869-.025-1.813-.047-2.718.209-.049.177-.273.317-.371.104-.262-.159-.303-.145-.51.476-.055.543-.407.725-.677-.058-.445.093-.68-.196-1.015-.002-.158.163-.194.307-.245-.159-.124-.033-.418-.04-.633.91.007.79.636.95 1.097.25.35.442.739.567 1.15.08.238-.252.174-.224.374.209.608.113.953.332 1.65a2.423 2.423 0 0 0 .136 1.71c.03.402-.214.603-.183 1.006.062.185.15.36.259.52.145-.126.258-.267.455-.373.376-.189.63.09 1.024-.117.311-.236.349-.525.528-.797.487-.414.927-.88 1.314-1.388l.273-.402c.083-.139.155-.283.216-.433.064-.147.123-.294.173-.44.036-.155.064-.312.083-.47.219-.336.39-.702.51-1.086a6.56 6.56 0 0 0 .212-1.283 14.48 14.48 0 0 0-.121-2.607 1.558 1.558 0 0 1-.082-.215l-.094-.218a.56.56 0 0 0-.324-.324 2.314 2.314 0 0 0-.31-2.25 2.578 2.578 0 0 0-2.062-1.025c.1-.49-.274-.432-.576-.567a1.86 1.86 0 0 1 .029-.99c.036-.195.078-.405.094-.6a1.586 1.586 0 0 0-.042-.545.889.889 0 0 1-.326-.83c-.482.285-.91.238-1.341.463a1.139 1.139 0 0 0-.564-.618 2.323 2.323 0 0 0-.764-.24 4.47 4.47 0 0 1-.78-.194 1.584 1.584 0 0 1-.608-.409 1.514 1.514 0 0 1-.592-.153c-.47-.057-.878.607-1.33 1.04-.213-.119-.43-.301-.639-.426-.21-.124-.4-.221-.604-.128a.743.743 0 0 0-1.079-.256c-.369-.217.003-.618-.47-.795-.402-.057-.74-.421-1.105-.678-.353-.272-.699-.485-1.18-.279a.78.78 0 0 0-.078-.519 3.263 3.263 0 0 0-.305-.544 1.973 1.973 0 0 0-.547-.47 3.394 3.394 0 0 0-.596-.3l-.292-.676-.235-.696c-.15-.73-1.022-.194-1.295-.704-.087-.847-.118-1.628-.187-2.36-.01-.743-.073-1.44-.021-2.127.02-.675.1-1.348.243-2.008.08-.329.178-.652.294-.97.057-.159.117-.317.18-.474.077-.155.157-.308.24-.46.036-.334.11-.664.22-.982.11-.294.232-.566.352-.832.11-.27.27-.513.394-.782.135-.263.235-.555.374-.855.169-.251.353-.492.553-.72.213-.236.462-.455.685-.677l.327-.325c.113-.1.218-.2.315-.297.177-.17.328-.366.447-.58.68-.276 1.328-.626 1.932-1.044.316-.226.667-.417 1.004-.634.332-.227.691-.406 1.036-.595.678-.106 1.335-.368 2.086-.556.023-.2.022-.385-.065-.518.322-.457.209-1.11.054-1.704.162-.338-.003-.71.005-1.137.01-.568.203-1.296.065-1.83.027-.182-.016-.415.139-.503-.341-.868-.025-1.812-.047-2.717.209-.049.177-.273.317-.372.104-.261-.159-.302-.145-.509.476-.055.543-.408.725-.677-.058-.446.093-.68-.196-1.016-.002-.158.163-.194.307-.245-.159-.123-.033-.418-.04-.633.91.007.79.637.95 1.097.25.35.442.74.567 1.15.08.239-.252.175-.224.375.209.608.113.952.332 1.65a2.42 2.42 0 0 0 .136 1.709c.03.402-.214.604-.183 1.006.116.345.318.654.587.899-.244.336-.345.776-.663 1.058-.075.263.135.356.14.572-.033.222-.297.275-.33.497.008.195.182.289.247.448.017.39-.002.818.036 1.24.164.011.328.024.49.034l1.183.166c.378.06.736.145 1.068.187.417.088.812.254 1.166.491a7.633 7.633 0 0 1 2.929 1.49 12.662 12.662 0 0 1 2.29 2.37c.035.132.095.256.176.367.081.14.154.285.218.435.31.524.422.563.64.994-.046.102.046.32.133.607.088.285.222.613.315.905.263.717.467 1.455.608 2.207.023.183.036.368.036.552.055.47.08.943.074 1.416l-.014-.245-.047-.6a5.879 5.879 0 0 0-.12-.78 5.39 5.39 0 0 0-.185-.79 8.441 8.441 0 0 0-.45-1.13c-.096-.194-.185-.395-.292-.589l-.355-.562c-.273-.438-.132-.357-.376-.718l-.287-.375-.292-.321a6.852 6.852 0 0 0-.557-.586c-.2-.18-.394-.37-.627-.557-.246-.173-.505-.368-.823-.557a5.66 5.66 0 0 0-3.243-1.347c-.795-.15-1.154-.406-1.974-.432-.336.038-.665.12-.978.246a3.4 3.4 0 0 0-.497.269c.004.204 0 .408-.016.61.047.17.005.394.146.508a2.9 2.9 0 0 0 .047 2.718c-.172.2-.075.34-.05.567-.116.34-.541.454-.73.74a.454.454 0 0 1-.224.374c.137.176.248.37.33.577-.364.52-.032 1.203-.433 1.695-.597-.017-.355-.542-.6-.772.086-.459-.146-.662-.106-.95-.039-.196-.324-.243-.543-.33.005-.181.089-.41-.05-.506a.27.27 0 0 0 .013-.229.268.268 0 0 0-.17-.154c-.026-.153.186-.133.122-.313-.166-.257.004-.718-.403-.83.116-.073.127-.22.129-.377a.737.737 0 0 0-.247-.448l.043-.504c.061-.255-.386-.204-.44-.39.164-.567.173-1.077.187-1.573-.09.086-.184.172-.314.241-.376.19-.631-.089-1.024.118-.312.236-.349.524-.528.797a8.892 8.892 0 0 0-1.314 1.387l-.274.402c-.082.14-.154.284-.215.434a6.368 6.368 0 0 0-.174.44 4.645 4.645 0 0 0-.082.469c-.22.337-.391.702-.51 1.086-.113.42-.185.85-.213 1.283-.038.871.003 1.744.122 2.607.033.07.06.142.082.216l.094.218a.562.562 0 0 0 .324.324 2.314 2.314 0 0 0 .309 2.249 2.579 2.579 0 0 0 2.063 1.025c-.1.49.274.433.575.568a1.84 1.84 0 0 1-.028.99c-.036.195-.078.405-.094.6-.018.183-.004.367.042.545.25.198.374.515.326.83.482-.286.91-.239 1.341-.463.103.27.304.491.564.618.239.124.498.205.764.24.265.04.526.106.779.193.233.088.441.228.61.41.203.01.404.062.59.153.47.056.878-.608 1.33-1.04.214.119.43.3.64.425.21.124.4.222.604.129a.744.744 0 0 0 1.078.255c.37.217-.002.619.471.795.401.058.74.422 1.105.679.352.272.699.485 1.18.279a.77.77 0 0 0 .078.518c.083.191.186.374.305.545.152.188.337.348.546.469.189.12.389.22.597.301l.292.675.235.697c.15.73 1.022.194 1.295.704.087.847.118 1.627.187 2.36.01.742.072 1.44.02 2.126-.018.676-.1 1.348-.242 2.01-.08.327-.178.65-.295.968-.056.16-.116.318-.18.475-.076.154-.156.308-.24.46a4.394 4.394 0 0 1-.219.981c-.11.295-.232.566-.352.832-.11.27-.27.514-.394.783-.135.263-.236.554-.374.854a7.16 7.16 0 0 1-.553.72c-.213.237-.463.456-.685.678l-.328.325c-.112.1-.218.199-.314.297-.177.17-.328.365-.448.58-.68.276-1.327.626-1.931 1.043-.317.227-.668.418-1.004.635-.332.226-.692.405-1.037.595-.777.121-1.528.448-2.424.633z"/><path fill="#9C70C9" d="M98.772 44.344a2.972 2.972 0 1 1 0-5.943 2.973 2.973 0 0 1 2.974 2.972 2.973 2.973 0 0 1-2.974 2.971zm9.967 9.415a1.943 1.943 0 1 1 0-3.885 1.943 1.943 0 0 1 0 3.885zm5.794-12.386zm34.775 75.895a2.394 2.394 0 1 1 2.396-2.394 2.395 2.395 0 0 1-2.396 2.394zm3.965-9.828a1.568 1.568 0 0 1 0-3.135 1.568 1.568 0 1 1-.001 3.135zm-30.868-64.437a.924.924 0 1 1 0-1.848.924.924 0 0 1 0 1.848zm10.33 76.968a2.549 2.549 0 1 1 0-5.097 2.549 2.549 0 1 1 0 5.097z"/></g></svg>