<svg xmlns="http://www.w3.org/2000/svg" width="365" height="215" viewBox="0 0 365 215"><g fill="none" fill-rule="evenodd"><path fill="#EAEAEA" fill-rule="nonzero" d="M4.316 203.855l57.331 8.885a63.795 63.795 0 0 1 20.407 6.948c9.463 5.087 26.552 9.762 41.299-10.371 0 0-25.962 9.073-33.769 3.155-7.807-5.917-16.32-21.593-16.38-39.38-.06-17.788-60.757-15.6-60.757-15.6"/><path fill="#FFC346" fill-rule="nonzero" d="M335.302 244.477H200.743c-3.756 0-7.32-1.661-9.73-4.537s-3.418-6.67-2.755-10.36l14.562-80.953c1.085-6.033 6.344-10.423 12.485-10.423h134.559c3.756 0 7.32 1.661 9.73 4.537s3.419 6.67 2.755 10.36l-14.562 80.953c-1.085 6.033-6.344 10.423-12.485 10.423z"/><path fill="#FFC346" d="M335.302 245.088c.043-.377.997-.577 2.436-1.038a14.871 14.871 0 0 0 5.154-2.813 12.474 12.474 0 0 0 3.958-6.348l.204-.971.173-1.04.34-2.068.642-4.003c.899-7.433 2.376-16.797 3.747-25.806.83-5.324 1.083-3.806 1.842-8.267 2.118-13.617 3.646-21.27 6.107-36.876l.554-2.832c.052-.242.071-.429.098-.624l.08-.581c.036-.19.051-.382.046-.575.005-.191.01-.381.013-.57a10.702 10.702 0 0 0-6.217-9.673 10.944 10.944 0 0 0-3.63-.924l-.952-.04-1.115.014-2.284.04-10.084.235c-9.131.047-13.706-.332-22.84-.284-8.046.162-14.462.508-20.384.912-7.623-.379-17.617-.536-24.003-1.03-5.973-.116-8.076.209-12.973.217-5.041-.05-6.25-.461-11.29-.512-4.409.012-6.545.283-10.168.383l-11.241.015-5.818.004-1.466.002c-.489.001-1.001-.003-1.39.026a10.653 10.653 0 0 0-9.554 6.906c-.143.382-.255.776-.363 1.166-.079.416-.171.751-.246 1.258l-.459 2.81-.867 5.503c-3.64 19.053-7.66 43.526-11.867 66.199-.32 1.895-.694 4.094-1.04 6.137a8.553 8.553 0 0 0 .327 4.278 9.756 9.756 0 0 0 1.082 2.895c.259.464.55.91.87 1.333a11.69 11.69 0 0 0 2.375 2.199c.225.155.471.277.706.42l.356.21.379.164c1.012.47 2.094.77 3.204.888l.844.062c.278.025.653.015.974.023l2.01.022 4.027.03 8.045.008a956.8 956.8 0 0 0 29.966-.561c4.52.267 7.722.117 12.87.077 7.708.182 10.296.841 16.804 1.136 3.656.036 6.786.124 8.476.346 3.573-.26 8.785-.335 13.082-.513 11.79.566 27.285.051 38.46.674-.398.927-12.302.551-17.525.93-10.4-.132-15.011.23-21.561.167a31.792 31.792 0 0 0-7.458.842c-4.126-.007-9.336-.137-11.492.08-4.602-.113-7.214.001-8.685.243-3.472.04-3.019-.29-7.101-.19-5.847.258-16.31-.007-18.856.626-1.632-.18-4.996-.197-8.532-.2a156.99 156.99 0 0 0-10.167.384l-11.44-.068c-5.793-.095-4.623.6-8.841.685-.76-.015-1.516-.03-2.267-.043l-.562-.01c-.197-.006-.444-.026-.662-.04-.45-.037-.9-.047-1.345-.116a15.664 15.664 0 0 1-5.048-1.629 14.901 14.901 0 0 1-4.1-3.145 14.287 14.287 0 0 1-2.783-4.215 14.465 14.465 0 0 1-1.245-4.81l-.059-.615c-.006-.206 0-.411 0-.617.008-.41 0-.821.03-1.228.095-.795.195-1.677.325-2.285l1.447-7.933c1.906-10.484 3.75-20.655 5.89-31.31 1.835-11.557 3.449-19.145 5.076-29.703.392-2.239.849-4.696 1.329-7.227l.73-3.836c.05-.293.16-.725.243-1.088a9.2 9.2 0 0 1 .323-1.117c.113-.37.249-.733.406-1.087.144-.357.305-.706.484-1.047a15.403 15.403 0 0 1 5.954-6.257 15.855 15.855 0 0 1 6.838-2.092l.583-.001.508.019 1.01.041 2.091.071 4.436.101c3.06.05 6.305.067 9.648.062 6.686-.012 13.76-.116 20.497-.236 7.671.251 16.102-.005 25.796.007 12.888.017 29.403.316 41.532.101 4.115.042 9.393-.024 11.394.217a702.17 702.17 0 0 1 15.057-.23l1.915-.01.48-.001c.155-.002.318-.002.517.01l1.13.061c1.516.131 3.002.5 4.403 1.095.704.293 1.386.637 2.04 1.03.32.203.629.43.942.646.155.111.314.218.465.334l.432.374a14.542 14.542 0 0 1 2.98 3.445 14.868 14.868 0 0 1 1.807 4.194c.368 1.487.514 3.02.433 4.55-.019.38-.084.757-.128 1.135-.048.379-.098.769-.161 1.065l-.359 1.916-.715 3.832c-.952 5.106-1.893 10.2-2.792 15.246-.515 1.026-1.365 6.03-1.975 8.187-1.207 5.799-.969 6.783-1.818 11.386-.95 1.103-2.467 8.944-3.828 14.905-1.697 9.949-2.868 15.133-3.77 22.683-.158.881-.3 1.59-.433 2.173a9.869 9.869 0 0 1-.48 1.502 8.918 8.918 0 0 1-1 1.73c-.132.34-.316.73-.531 1.162a12.379 12.379 0 0 1-3.612 4.016 13.326 13.326 0 0 1-3.803 1.875c-1.31.397-2.669.604-4.037.615z"/><path fill="#EAEAEA" fill-rule="nonzero" d="M113.634 68.653h29.6s7.195 29.03-9.455 95.4l-20.145-1.948s15.306-68.629 9.709-73.244c-5.598-4.615-5.598-6.154-5.598-6.154"/><g fill="#333" fill-rule="nonzero" transform="translate(61.6 -5)"><path d="M52.94 169.512c.106-1.06 9.441-.921 16.265-1.107 4.894-.324 11.099-.476 17.063-.66 3.527-.094 2.578.293 5.54.261 9.02-.244 14.129-.132 24.47-.387 10.382.187 15.643.139 25.339-.159 2.984-.017 5.223.045 7.462.107l3.453.084a9.547 9.547 0 0 0 3.463-.568 9.07 9.07 0 0 0 5.617-6.446l.124-.62c.03-.208.043-.416.066-.62l.03-.308.025-.368.047-.728c.983-4.883 2.02-11.32 2.974-15.391.636-3.845.587-5.238 1.031-8.4.502-3.25.919-3.988 1.42-7.237.396-2.849.391-4.256.65-6.606 1.3-9.365 2.93-20.237 3.993-29.723l.366-2.39.183-1.223.09-.618.048-.542a9.531 9.531 0 0 0-.626-4.379 9.715 9.715 0 0 0-6.94-5.868c-.401-.05-.796-.151-1.202-.17l-.61-.029-.311-.015-.356.002-2.86.014-5.754.022-11.463-.012c-2.523.055-5.856.005-7.545.169-13.135-.576-28.67-.417-40.297.055-2.953-.2-5.046-.087-8.41-.058-5.037-.136-6.729-.63-10.981-.852-1.85.017-3.7-.07-5.54-.26-2.334.196-5.74.252-8.548.386-7.705-.425-17.831-.039-25.134-.506.26-.695 8.039-.413 11.453-.698 6.796.1 9.81-.171 14.09-.124 1.645.01 3.285-.203 4.873-.632 2.697.005 6.101.102 7.51-.06 1.894.118 3.794.057 5.676-.182 2.269-.03 1.973.216 4.64.142 3.821-.193 10.658.005 12.323-.47 1.066.136 3.264.149 5.575.15a89.148 89.148 0 0 0 6.645-.287l7.475.05c3.786.071 3.022-.45 5.778-.513 7.946.181 15.13.2 22.107.216l10.377.039 5.201.054 2.626.042c.226.006.428.003.674.017l.759.053a9.846 9.846 0 0 1 1.509.215 12.312 12.312 0 0 1 5.583 2.406 12.962 12.962 0 0 1 3.539 4.175 13.149 13.149 0 0 1 1.507 5.126c.016.455.036.915.042 1.38l-.103 1.404-.3 2.521c-.805 5.886-2.25 14.072-2.652 18.505-1.326 6.646-2.559 16.235-3.619 24.961-.893 4.927-1.478 10.398-2.378 16.657l-.98 6.595-.527 3.473a13.392 13.392 0 0 1-1.218 3.87 13.038 13.038 0 0 1-2.323 3.297 13.356 13.356 0 0 1-3.139 2.37 12.76 12.76 0 0 1-3.536 1.313 8.582 8.582 0 0 1-.899.158 7.388 7.388 0 0 1-.89.1l-.875.048-.751.015c-2.69-.032-6.139.018-7.446-.163-12.875.398-26.87.03-40.292.055-.721-.243-4.044-.206-5.505-.37-3.876-.12-4.482.185-7.547.17-.82-.555-6.049-.633-10.048-.846-6.607.069-10.083-.107-15.053.23a12.4 12.4 0 0 1-3.636-.359c-1.83.186-6.198.04-9.386.047z"/><path d="M166.1 143.204l-2.307 16.189c-.789 5.542-5.543 9.66-11.152 9.66h-14.196l-2.934 16.316h34.35c5.608 0 10.363-4.119 11.152-9.662l4.63-32.503h-19.544zM23.886 43.017c.05-.044 1.414.823 2.495 1.297.896.39 1.84.658 2.807.796.596.082.435.07.94.112a8.751 8.751 0 0 0 1.991-.167 8.281 8.281 0 0 0 2.04-.708 7.997 7.997 0 0 0 1.812-1.224c.25-.215.481-.45.69-.705.25-.276.475-.575.671-.891a9.797 9.797 0 0 0 1.173-2.236c.128-.429.225-.817.312-1.18l.194-1.044c.235-.83.51-1.924.725-2.614l.092-.374.02-.084.085-.034 1.006-.397c.518-.186.669-.201 1.164-.377l-.091.115.007-.052c.053-.49.046-.734.067-1.14.13-1.72.151-3.445.064-5.167a39.178 39.178 0 0 0-.955-7.495 13.456 13.456 0 0 0-.341-1.248 18.772 18.772 0 0 0-2.782-6.28 9.502 9.502 0 0 0-.846-1.16 17.325 17.325 0 0 0-1.202-1.449c-.292-.287-.567-.508-.698-.648-.303-.265-.797-.582-1.195-.855a15.376 15.376 0 0 0-3.892-1.858c.64.17 1.267.376 1.882.62l.708.316.545.277c.326.14.639.31.932.511.264.175.58.255.896.228.343.293.711.554 1.102.78.214.282.509.492.845.603.324.263.162.335.525.656.604.403 1.233 1.475 1.732 1.516.099.33.261.639.478.908.239.35.527.662.857.928.23.4.404.824.608 1.238.242.652.63.344.91.79.436 1.421.846 2.682 1.156 3.925.345 1.224.531 2.487.555 3.759.398 1.353.28 2.285.585 3.533.105 1.08-.218 2.577.03 3.385a11.265 11.265 0 0 0-.453 3.65l-.026.983-1.261.633-.816.408a4.669 4.669 0 0 0-1.349.383l1.245-1.4c-.095.467-.175.966-.321 1.484-.198.701-.483 1.487-.743 2.267l-.097.292-.119.332-.226.654c-.133.431-.334.825-.453 1.208-.202.471-.508.89-.896 1.225a7.095 7.095 0 0 1-2.762 2.909 10.165 10.165 0 0 1-3.84 1.316c-.177-.16-.81-.057-1.097-.165-.736-.094-.846.125-1.425.018-.067-.176-.34-.293-.673-.412-.328-.145-.728-.26-1.057-.407a8.55 8.55 0 0 1-1.349-.504l-1.109-.495a1.733 1.733 0 0 1-.503-.402 11.665 11.665 0 0 1-1.37-.883z"/><ellipse cx="34.409" cy="27.138" rx="1.301" ry="1.107" transform="rotate(-71.803 34.409 27.138)"/><path d="M41.941 15.368l-9.04 2.875a14.586 14.586 0 0 0-10.092 12.374s.536-3.957-3.202-5.098c-2.803-.856-5.432 2.563-4.692 5.184a7.613 7.613 0 0 1-.875 6.387l-.178.263s-5.6 4.907-9.208.5C1.044 33.444-.572 19.72 1.313 14.681c5.97-15.96 24.574-18.44 41.145-7.284a4.61 4.61 0 0 1-.516 7.97z"/></g><path fill="#FFC346" fill-rule="nonzero" d="M6.129 93.888s4.11-65.652 73.588-50.06c53.528 12.014 43.99 52.522 41.112 64.011l-42.756-4.103s-5.364 41.794-5.756 71.807l-59.2-10.669s6.99-53.342 9.456-68.113L6.129 93.888z"/><g fill-rule="nonzero"><path fill="#FFC346" d="M5.648 94.267c.519-.339 2.881-.17 6.039.181 3.162.355 7.133.945 11.018 1.562a.75.75 0 0 1 .625.847l-.004.029c-.253 1.759-.504 3.498-.702 5.14-.557 6.56-1.515 14.84-2.367 22.813-.519 4.712-.86 3.378-1.355 7.328-1.307 12.054-2.367 18.839-3.845 32.66l-.045.295-1.555-2.125c13.532 2.685 20.507 3.875 33.324 5.785 7.916 1.379 11.811 2.467 19.73 3.845 2.195.344 4.252.645 6.17.905l-2.41 1.984c-.04-2.183-.11-4.229-.175-6.177a367.637 367.637 0 0 0-.174-5.598c.681-6.712 1.451-15.487 2.41-21.05.265-2.616.368-4.39.45-6.049.077-1.658.128-3.2.332-5.346.467-4.413.99-5.43 1.495-9.834.393-3.858.332-5.754.59-8.934.32-2.91.673-5.918 1.061-9.024a1.82 1.82 0 0 1 1.978-1.585h.01c10.333.986 21.365 2.041 31.268 2.698 3.61.391 7.438.777 11.51 1.17l-2.202 1.552a78.787 78.787 0 0 0 2.05-10.932c.428-3.81.457-7.656.084-11.473a41.173 41.173 0 0 0-2.675-11.219 37.828 37.828 0 0 0-5.751-9.835c-.264-.302-.508-.64-.809-.946l-.902-.946-.913-.967-.978-.888a24.718 24.718 0 0 0-3.478-2.723 49.062 49.062 0 0 0-11.234-6.873 70.228 70.228 0 0 0-13.087-4.391l-1.676-.41c-.56-.123-1.128-.216-1.69-.324l-3.355-.614c-.557-.091-1.107-.22-1.664-.278l-1.659-.189-3.27-.363c-.539-.074-1.077-.08-1.611-.103l-1.592-.06c-1.054-.03-2.094-.097-3.115-.088l-3.006.125-1.46.065c-.483.01-.952.105-1.42.153-1.751-.023-3.5.114-5.226.409l-2.595.457c-.898.208-1.838.485-2.886.749-.734.138-1.461.313-2.178.524a71.96 71.96 0 0 1-1.862.505c-1.184.262-2.17.628-3.155.932l-1.472.461c-.495.154-.961.385-1.468.589-1.139.447-2.24.982-3.295 1.602l-1.899 1.206-1.627 1.179c-.505.363-.978.685-1.398.97-.398.312-.755.575-1.06.78-.514.58-1.14 1.163-1.734 1.856l-1.865 2.16-1.8 2.358c-.587.79-1.09 1.624-1.6 2.388-.407.5-.79 1.018-1.144 1.556l-1.127 1.653-1.046 1.772-.525.906-.482.942a58.743 58.743 0 0 0-3.406 7.976 81.624 81.624 0 0 0-2.395 8.255 116.938 116.938 0 0 0-.85 3.972c-.125.645-.244 1.28-.35 1.902l-.156.924-.072.453-.034.224c-.01.082.003-.022-.03-.101a.388.388 0 0 0-.16-.193c-.013.05.067.185.013.312a1.273 1.273 0 0 1-.097-.38 7.83 7.83 0 0 1-.045-1.335c.069-1.396.227-2.788.472-4.165.529-3.189 1.53-6.816 2.064-9.058a91.18 91.18 0 0 1 4.06-9.969c.29-.66.646-1.26.953-1.87.328-.598.61-1.208.968-1.774a39.109 39.109 0 0 1 2.253-3.459c.57-.798.969-1.493 1.362-2.035a19.78 19.78 0 0 0 1.519-2.591c.204-.35.403-.694.642-1.073l.987-1.037c.333-.365.685-.71 1.056-1.037l2.176-1.962 2.03-1.623.816-.688.668-.532c.884-.55 1.665-1.049 2.356-1.502.7-.44 1.35-.766 1.894-1.1 1.1-.65 1.861-1.192 2.435-1.542a24.49 24.49 0 0 1 2.805-1.106c.717-.234 1.524-.41 3.25-1.063a48.251 48.251 0 0 1 9.343-2.28c.812-.171 1.613-.22 2.366-.308.752-.083 1.46-.168 2.101-.255 1.282-.206 2.298-.29 2.87-.453.74.084 1.868.125 3.208.143.672-.013 1.39.07 2.143.116l2.328.155c1.924.061 3.552.286 5.035.4 1.477.143 2.818.162 4.073.347l5.03 1.012c1.665.39 3.32.842 4.98 1.26 4.962 1.594 4.18.57 7.818 1.817a68.119 68.119 0 0 1 14.112 7.505 45.948 45.948 0 0 1 10.85 10.556c.692 1.038 1.448 2.029 2.038 3.122l.931 1.607.816 1.663.405.831c.125.282.236.57.354.854l.694 1.71c.206.579.39 1.165.586 1.747l.288.875c.087.294.159.592.239.888l.464 1.781.36 1.804c.13.6.217 1.207.299 1.815.078.608.187 1.215.237 1.827.25 2.456.328 4.926.233 7.393a59.193 59.193 0 0 1-.74 9.42c-.441 2.873-1.052 5.554-1.712 8.217a2.335 2.335 0 0 1-2.482 1.762l-.015-.001a362.332 362.332 0 0 0-9.176-.745c-7.983-.723-19.104-2.161-25.104-2.432-2.539-.385-5.39-.746-8.46-1.089l2.37-1.889c-1.087 7.708-1.946 16.79-2.594 25.252-.9 6.667-1.3 14.05-1.897 22.511-.507 7.262-1.096 15.845-1.234 23.796v.018a2.185 2.185 0 0 1-2.582 2.107c-4.422-.815-8.624-1.56-12.36-2.156-3.557-.684-8.14-1.442-9.83-1.991-11.927-1.775-24.485-4.166-37.01-6.523l-.029-.006a2.178 2.178 0 0 1-1.753-2.43l2.258-16.497c.45-.918.995-5.353 1.474-7.27.856-5.142.562-6.005 1.138-10.086.882-.993 1.938-7.943 2.966-13.229 1.151-8.811 2.035-13.397 2.644-20.083.057-.336.11-.644.14-.832l.831 1.17a15.413 15.413 0 0 1-4.002-1.184c-2.585-.21-8.473-1.508-12.747-2.312z"/><g fill="#333"><path d="M155.891 163.967c.165.065.174.451.076 1.06-.14.807-.343 1.6-.61 2.375-.573 1.883-1.561 4.163-2.383 6.092a69.925 69.925 0 0 1-4.656 9.422c-1.109 1.874-1.026 1.231-1.999 2.775-1.506 2.334-2.765 4.115-4.17 5.912l-1.07 1.373c-.38.458-.769.93-1.176 1.424-.8 1.001-1.74 2.034-2.785 3.246-1.15 1.121-2.126 2.136-3.1 3.003l-1.38 1.285-1.355 1.183c-1.775 1.569-3.578 3.032-6.01 4.824-.778.51-1.466.945-2.109 1.342-.66.37-1.28.695-1.896 1.024-.609.342-1.245.635-1.93.955-.69.316-1.405.705-2.272 1.052a57.32 57.32 0 0 1-7.82 3.023c-.789.096-1.63.229-2.498.328l-2.645.17c-.88 0-1.745-.03-2.55-.054a8.64 8.64 0 0 1-1.158-.107l-1.043-.15c-1.225-.073-2.04-.215-2.812-.29l-1.16-.126c-.4-.05-.818-.162-1.309-.274a13.628 13.628 0 0 1-2.21-.706c-.59-.26-1.175-.518-2.145-.858a20.549 20.549 0 0 1-3.874-1.729 21.918 21.918 0 0 1-6.515-6.896 43.168 43.168 0 0 1-3.949-8.556 79.366 79.366 0 0 1-2.643-12.81 115.35 115.35 0 0 1-.907-14.084c-.06-1.552-.016-3.601-.107-4.64.471-8.07 1.137-17.557 1.643-24.68.342-1.785.418-3.067.663-5.116.49-3.051.966-4.032 1.49-6.586.156-1.122.384-2.232.685-3.324.093-1.432.395-3.495.598-5.204 1.074-4.6 1.983-10.735 3.273-15.038.402.257-.771 4.864-.971 6.952-.855 4.065-.994 5.911-1.47 8.482a10.013 10.013 0 0 0-.075 3.003c-.27 1.623-.651 3.667-.672 4.533a16.071 16.071 0 0 0-.379 3.443c-.172 1.373-.31 1.172-.479 2.791-.188 2.325-.808 6.45-.594 7.494a30.574 30.574 0 0 0-.454 3.368 42.143 42.143 0 0 0-.175 4.047c-.139 1.51-.265 3.02-.377 4.535-.197 2.296.186 1.853.132 3.527-.368 4.814-.464 9.18-.396 13.41.073 4.228.291 8.323.696 12.602.328 2.292.645 4.184.995 6.017a46.314 46.314 0 0 0 1.415 5.585 49.5 49.5 0 0 0 1.97 5.558 20.855 20.855 0 0 0 2.531 4.499 16.786 16.786 0 0 0 4.588 5.059c.516.368 1.057.703 1.617 1.002a13.85 13.85 0 0 0 1.747.813c.598.245 1.264.416 1.889.625a15.78 15.78 0 0 0 1.9.53 27.897 27.897 0 0 0 9.853 1.06 36.199 36.199 0 0 0 8.026-1.31c.687-.157 1.34-.43 2.003-.639l.981-.333c.32-.123.632-.262.943-.391.62-.266 1.23-.513 1.81-.782l1.645-.85c.735-.327 1.518-.812 2.233-1.203.357-.198.693-.38.986-.532.23-.138.466-.265.708-.38a80.673 80.673 0 0 0 17.755-16.417 7.39 7.39 0 0 0 1.046-1.083c.42-.519.87-1.087 1.179-1.41.524-.637.998-1.314 1.417-2.025.315-.533.613-1.003 1.12-1.78a6.853 6.853 0 0 0 1.58-1.747c.662-.954 1.466-2.109 2.116-3.14 1.947-3.516 2.994-5.372 4.016-8.222.267-.695.63-1.35 1.08-1.944.338-1.064 1.317-3.533 1.883-5.387z"/><path d="M130.832 163.918c.136.327-2.059 1.39-3.619 2.254-1.09.675-2.512 1.455-3.873 2.215-.806.446-.644.219-1.329.579-2.063 1.14-3.269 1.711-5.638 3.011-1.79.86-2.923 1.43-4.272 2.162l-.809.438.132-.937.255-1.81c.258-1.535.487-2.286.744-3.821.198-1.358.302-2.45.377-3.461.318-1.263.652-2.934.962-3.985.205-.997.187-1.364.33-2.187.16-.844.297-1.029.459-1.873.127-.74.123-1.11.205-1.723.417-2.435.94-5.259 1.278-7.73.625-3.253 1.266-7.44 1.978-11.312.096-.651.263-1.504.285-1.948.782-3.34 1.432-7.34 1.801-10.353a21.04 21.04 0 0 0 .4-2.157c.271-1.286.51-1.692.775-2.772.078-.476.19-.947.335-1.407.042-.611.177-1.49.26-2.218.488-1.955.818-4.578 1.301-6.427.217.107-.227 2.089-.287 2.982-.34 1.74-.387 2.53-.596 3.626a3.815 3.815 0 0 0-.012 1.288c-.123.693-.309 1.562-.32 1.933a6.17 6.17 0 0 0-.196 1.468c-.092.585-.16.494-.256 1.184a27.84 27.84 0 0 0-.402 3.192c-.128.468-.229.943-.3 1.423-.12.719-.17 1.24-.206 1.724l-.354 1.917a9.94 9.94 0 0 0-.092 1.513c-.837 4.061-1.323 7.377-2.073 11.012-.287 1.978-.577 3.272-.827 5.079-.258 1.53-.724 3.653-.85 4.81-.43 1.72-.824 4.214-1.162 6.487-.289 1.276-.474 2.702-.763 4.33-.384 2.162-.946 4.92-1.25 6.966-.132.689-.271 1.578-.39 1.903a83.57 83.57 0 0 1-.385 2.526l-.82-.604c2.322-1.205 4.775-2.376 7.118-3.575.205-.013.973-.417 1.338-.542.92-.423 1.016-.585 1.732-.943.275.067 1.504-.528 2.467-.938 1.528-.803 2.364-1.162 3.47-1.85.277-.164.583-.274.9-.324.398-.272 1.438-.745 2.179-1.125zM5.829 93.825c.68.166.273 1.814.212 3.07.076.916.019 2.05.01 3.143-.013.645-.25.443-.292.982-.014 1.653-.185 2.572-.156 4.465a18.386 18.386 0 0 0-.146 4.61c-.009 1.086-.22 1.625-.205 2.713.057.822.21 1.635.453 2.422-.194.906-.226 2.093-.458 2.862.02.516.078 1.03.176 1.537.006.6-.203.755-.187 1.356.063.405.155.804.275 1.195.099 1.821.33 3.633.69 5.421.19 2.303.832 5.187 1.349 7.873.094.449.233.887.416 1.308.213 2.44.89 4.818 1.994 7.005.077.504.232.993.458 1.45.203.893.02 1.286.16 2.062.132.318.201.66.202 1.005.267.352.554.904.839 1.337.273 1.413 1.321 2.957 1.626 4.293-.434.168-.89-1.2-1.335-1.683-.493-1.148-.838-1.6-1.137-2.331a1.342 1.342 0 0 0-.747-.663 5.599 5.599 0 0 0-.543-1.28 1.648 1.648 0 0 0-.494-.939c-.17-.386-.001-.389-.207-.84-.353-.626-.64-1.866-1.042-2.06a3.384 3.384 0 0 0-.21-1.02 4.863 4.863 0 0 0-.544-1.127c-.13-.444-.24-.895-.347-1.346-.137-.692-.436-.465-.61-.951-.503-2.927-1.19-5.228-1.403-7.877-.372-1.382-.35-2.338-.674-3.605-.148-1.098-.156-2.65-.369-3.46a24.051 24.051 0 0 0-.3-4.681c.08-.935-.095-1.95-.11-3.125-.039-1.563.12-3.562.037-5.031a5.015 5.015 0 0 1 .146-1.376c-.194-2.395.209-4.975.423-7.448.176-.118.204-.733.343-.99.157-.704-.035-.837.037-1.4.39-.109.547-1.061.789-1.773.167-.913.25-1.84.25-2.769.012-.25.14-.48.346-.623.024-.58.12-1.155.285-1.711z"/></g></g><g fill="#FFC346" fill-rule="nonzero" transform="translate(157.183 107.019)"><ellipse cx="16.833" cy="16.977" rx="12.349" ry="11.245" transform="rotate(-48.714 16.833 16.977)"/><path d="M29.997 17.431l.012.031c-.045-.002-.036-.015-.012-.03a.863.863 0 0 1-.06-.228c.056.055.103.12.138.19a.463.463 0 0 0-.078.037zm-.07-.544a1.4 1.4 0 0 0 .01.317.23.23 0 0 1-.06-.291c-.01-.043.013-.04.05-.026.007-.179.04-.355.096-.525a.768.768 0 0 0 .128.453c.003.191-.144.102-.224.072zm.681-.324a.776.776 0 0 0-.193-.274c.055.097.12.19.193.274.156.156.258.356.293.573-.094-.144-.254.146-.418.003a.53.53 0 0 0 .125-.576zm-4.13 8.74c-.093.08.128.215.152.26.087-.198-.206-.3-.152-.26zm.713-1.924l.008-.29.06.376-.068-.086zm.906-1.56c-.238.187-.266.743-.41 1.121l-.236-.306.112.004c.291-.211.062-.866.534-.818zm1.27-.523a1.034 1.034 0 0 0-.086.177.4.4 0 0 0-.057.023c.092-.46-.04-.206.143-.2zm.164-.728c.205-.094.319-.12.312.175-.042-.11-.137.113-.251.13l-.06-.305zm-.228-.341l.02.149c.048-.009.073-.039-.02-.15zm.06.47c-.048-.15-.15-.244-.033-.179-.221-.172-.086-.128-.007-.142l.04.32zm-.12.13c-.146.102-.274.251-.316-.042-.134.475.179.53.316.041zm-1.513.715c.13.05-.171.206-.143.307l-.057-.204.2-.103zm2.476-2.52c-.138-.017-.237.158-.321.241l-.062-.216c.12.008.296-.062.383-.025zm-.383.025l-.095-.319c-.073.248-.01.311.095.319zm-.97.984l.022-.085.156.635-.178-.55zm1.575-2.132l-.093-.147.286.349-.193-.202zm-.55.357c.01-.037.018-.074.024-.112l.274-.072a.373.373 0 0 1-.298.184zm.015-.11l.054-.245-.045.243-.01.003zm-.022.138l.007-.028c-.028.006-.038.01-.007.028zm-.568 1.114c-.103-.202-.186-.567-.474-.304.15.159.317.005.474.304zm.214-1.037l.111.353c-.053-.096-.164-.063-.234-.072l.123-.28zm-.051-.159l.096.054-.045.105-.051-.159zm.521-3.46v.032l-.046-.002.046-.03zm.317 1.083c-.057.072-.107.15-.15.232.085-.067.218-.208.15-.232zm-.229 1.57l.01.02c.061-.036.033-.034-.01-.02zm-1.811-2.936c.048-.093.177.005.245-.009l-.207-.288c.43-.15.668.452.946.267-.112.2-.33.15-.18.514.237.227.38-.325.504-.446.164.28.263.275.37.275-.43.3-1.222.508-1.422.258a.334.334 0 0 0-.256-.571zm1.69.893l.04.041-.007-.619c.082.008.175.043.308.248-.136.124-.24.28-.303.454l-.038-.124zm.039.684a2.187 2.187 0 0 1 0-.56c.058.195.106.393.144.594l-.004.002c-.013-.002-.026-.004-.04-.008-.029-.054-.04-.199-.099-.028a.392.392 0 0 0 .1.028c0 .004.002.011.005.013-.02.029 0 .02.034-.005h.004v-.002l.016-.013c-.051.098-.095.2-.13.305a1.199 1.199 0 0 0-.06-.321c-.163.419-.356-.333-.307.247-.109-.216-.315-.114-.324-.463.292-.178.398.109.66.211zm-1.656 2.64c.02-.062.04-.045.063-.004a.097.097 0 0 0-.063.003zm.204-.182a2.35 2.35 0 0 1 .689-.137c-.028-.045-.415.176-.55.369l.026.046c-.178.21-.253-.01-.306-.1.087.014.11.134.21.043.055-.12-.042-.175-.07-.221zm.718-1.187c-.102-.044-.278-.006-.192-.26l-.14-.002.257-.213.075.475zm.856-2.634l-.13-.21.414.253-.284-.043zm-.109-.642l.073-.162.173.152-.246.01zM6.884 15.444l.043.128a.34.34 0 0 0-.043-.128zm.251-.792l-.108-.057c.051.057.093.087.108.057zm12.09-11.005a.381.381 0 0 0-.358-.074l-.048-.268c-.01-.274.218.08.406.342zm-9.12 4.357l.031-.255.061.282-.092-.027zm.602.94l-.284.018a.755.755 0 0 0 .284-.018zM7.004 19.863l.288.074c-.032-.193-.154-.083-.288-.074zM27.282 7.998a1.177 1.177 0 0 0-.174-.467c.03.279-.035.562.174.467zm-23.05 6.365c.02.097.062.146.12.16-.017-.098-.051-.16-.12-.16zM26.73 7.139a.369.369 0 0 1 .378.392.818.818 0 0 0-.352-.279c-.008-.04-.021-.071-.026-.113zm-7.686 19.635c.016.005.03.01.045.018-.008-.036-.024-.032-.045-.018zm5.917-.402c-.07.11-.125.159-.17.173.062-.052.119-.11.17-.173zm3.728-13.98a.188.188 0 0 0-.138-.01.24.24 0 0 1 .138.01zm-4.045-4.906l-.007-.007c-.005.063-.004.051.007.007zm4.8 4.193a.735.735 0 0 1 .012-.193c.005.065 0 .13-.012.193zm.11-.067l.018.123c.048.003.07-.021-.019-.123zm-.153-.348l.083.178c-.011-.004-.021.012-.028.044a.703.703 0 0 0-.055-.222zM10.363 26.489c.11-.011.162 0 .007.034l-.007-.034zm5.76-19.973l-.008-.021.018.006c-.004.004-.006.012-.01.015zm-.347.257c.015-.34.039-.675.07-1.015l.27.737c-.137-.05-.245-.076-.34.278z"/><path d="M6.653 17.407a2.75 2.75 0 0 1 .26-.246c.359.346.238.547.575.334-.865-.096.03-.977-.804-1.138.064-.05.13-.099.203-.146-.018.048.025.064.012.112.463-.26-.541-.358-.326-.789.096-.142.237-.219.31-.09a3.137 3.137 0 0 1-.11-.393.074.074 0 1 1 .133.063l.099-.53.022.01a2.488 2.488 0 0 1-.295-.463c.155-.093.062.098.171.099-.037-.121-.052-.236-.078-.356.256-.033.338.268.25.453.87.03-.103-.307.576-.674l-.009.294c.51.024.42-.24.817-.378-.178-.021-.916.247-.989-.132.095-.058.16-.156.097-.382.268.13.282-.05.367-.244l.342.198c.004-.25-.18-.332-.271-.539.15-.21.452-.09.7-.004.274-.298-.57-.025-.368-.463.325-.197.285-.5.368-.962.26-.107.166.18.31.18l-.115-.36c.04-.036.104.038.137.075.018-.218-.3-.257-.199-.554-.14-.168.071-.193.31-.229.243-.033.495-.087.442-.387.142.014.144.199.272.285.087-.345.129-.7.125-1.056l.436-.033c-.387-.057-.372-.533-.318-.958a2.734 2.734 0 0 0-.389-.098c.084-.16.16-.333.254-.486.09.015.13.152.166.329.007-.045.014-.09.016-.128.233.012.294.249.33.493l-.285-.083c.038.258.146.5.312.702a.311.311 0 0 1 .047-.181c.007.056.034.11.075.149.038.022.019-.077.013-.205l.353.282-.087-.152.639-.116a2.793 2.793 0 0 1 .608-1.875c-.002.373.217.481.389.823-.357-.26-.369.414-.705.514a.183.183 0 0 1 .235.196l.343-.625c.14.28.226.138.423.173-.398-.494.23-.558.384-.84.099.183.131.402-.166.485.496.284.097-.85.571-.625-.07.028-.118.022-.105.13.091-.247.564-.247.526-.046l-.069.029a4 4 0 0 0 .895-.338c.296-.15.53-.365.51-.63.038.246.063.494.074.742a13.09 13.09 0 0 1 .584-1.905c-.006.457.449 1.468.087 1.783a.415.415 0 0 0 .494-.1c-.083-.05-.286-.611-.179-.67.368.445.252.232.66.631-.128-.088-.054-.799.153-.79.017.257.015.515-.007.772.14-.24.29-.481.45-.723-.12.134-.005.584.099.78-.05-.137.398.027.522-.038l-.193-.166c.517.127.586-.978 1.16-.857-.09.133-.261.853-.01.975.152-.338.82-1.628 1.444-1.742l.054.221.471-.124-1.72 1.765c.166.189.018.229.3.273.058.21-.203.242-.286.252.207.064.4.175.598.257.066-.406.592-.295.666-.617-.28.067-.556.16-.817.24.043-.401.697-1.068 1.184-.823.071.2-.316.67-.343.806.098-.116.518-.106.526.004l-.266.141c.183.24.62-.39.757.126.093.075.068.624.19.41a5.709 5.709 0 0 1 .896-2.107c.205.299.35.634.427.987-.017.425-.688.611-.698.978a.539.539 0 0 1 .277-.177c.053.147-.217.277.026.368.255-.335.432.308.291-.237.284.04.194.209.45.368.075-.285.76-.576 1.068-.486a.63.63 0 0 0-.133.288c.44.366.487.758.865 1.109-.034.099.034.365-.17.409.101.005.25-.037.357.079-.088.466-.26-.23-.446.23.194-.146.504.087.767.168.256-.283-.278-.454-.528-.52a1.414 1.414 0 0 1 1.63-.065c.375.318-.16.363-.053.388.384.772 1.213.148 1.225 1.015-.162.414-.583.308-.767.475-.278-.263-.057-.608-.217-.81.015.113.023.227.025.34-.146-.052-.358-.203-.345-.367-.06.176.121.47.278.84.085.18.177.371.25.56.057.18.085.369.081.559.143.063.322.208.414.076l-.116-.175c.18-.276.486.238.508-.053.157.101.305.215.443.34a.697.697 0 0 1 .185.532l-.345.172a.254.254 0 0 0 .008-.393c.207.125-.335.721.192.781l.181-.338c.271.232.735.525.673.925.34-.235-.055-.076.33-.427-.252.169-.275-.077-.327-.298-.056-.222-.11-.422-.34-.172.42-.392.086-.513.401-.999-.12.05-.182.196-.231-.132a.537.537 0 0 1-.13-.032l.002-.024-.008.022c-.022-.007-.027-.007-.002.008a.403.403 0 0 1-.122.213c-.328-.06-.496-.526-.693-.627-.011-.195.16.019.247-.125l-.295-.15c.258-.132.205-.645.55-.3-.049-.129-.112-.251-.169-.377a.833.833 0 0 0-.267-.748c-.034-.21-.525-.265-.242-.235l-.496-.45.054-.044a2.663 2.663 0 0 0-.704-.696 1.552 1.552 0 0 1-.541-.918c-.253-.1-.47-.275-.621-.5l.11-.227c-.249-.132-.504-.715-.75-.599.166-.732-1.058-.898-1.419-1.244l-.166.265a2.982 2.982 0 0 0-1.051-.285l-.088.263c-.392.053-.76-.493-1.3-.66.067-.088.194-.015.268.078-.216-.42-.61-.378-.971-.33-.366.044-.708.133-.971-.121a.287.287 0 0 1-.358-.051.058.058 0 0 0 .038-.01.253.253 0 0 0-.06-.011c-.06-.056-.122-.12-.192-.173a.734.734 0 0 0 .159.17 1.294 1.294 0 0 0-.467.055l-.05-.299-.04.007c-.165-.115-.145.135-.07.361a.813.813 0 0 0-.232.17c-.116-.482-.438.148-.616-.368-.115.223-.847.23-.893.75-.01-.067-.06-.096.027-.106-.184-.047-.374-.096-.52.064l-.12-.363-.324.565c-.268-.19-.398-.304-.201-.63-.505.54-.454.226-.832.782l-.032-.243c-.172.054-.357.438-.51.27-.256-.188-.728-.043-1.265.143-.274.082-.55.204-.831.305-.274.098-.56.162-.85.192.513.531-.57-.042-.333.464-.135-.117-.31-.126-.24-.338-.373.402-.842.184-.871.79-.147-.104-.05-.27-.15-.321-.016.055-.055.22-.159.17-.104-.051-.019-.162.01-.273-.44.348-.166.796.101 1.208-.36-.037-.435.093-.374.46-.17-.065-.399-.091-.187-.35-.148.102-1.023.559-.748.87-.11-.031-.198.162-.199.228a3.932 3.932 0 0 0-.602.594l.125-.038c.241.425-.137.315-.295.603L7.604 9.5c-.724.367-.077.333-.821.689l.263.137c.487.416-.66.319-.694.812l.227-.038c.054.287-1.065.118-1.26.304-.074.022-.038-.116-.039-.201-.635.392.301.257.161.71-.228-.015-.42-.339-.608-.069-.236.084.251 1.129-.287 1.373.188-.033.373-.06.404.18-.046.32-.855.671-.458 1.1a.196.196 0 0 1-.14.024c.063.282.031.858.268 1.054-.262.007-.385.114-.433.266-.022.182-.006.366.048.54.089.377.194.707-.275.67l.025.785-.096-.022c-.087.34.08.693.398.841-.056.117-.15.039-.2.03-.142.736-.107.833.462 1.352l-.291.11c.105.067.017.346-.006.696-.04.378.063.758.291 1.064a.207.207 0 0 1-.151-.036c.237.394.351.85.327 1.31.081.438.238.792.795.66.158.12.324.228.496.324-.274-.612.464-.158.483-.482.188.171.07.725-.15.491l.02-.07c-.558.204.279.805-.052 1.018a14.132 14.132 0 0 0 2.66 3l.13-.449.36.254c.04.15-.054.382-.32.195.009.306.576.105.63.022.44.486-.477.324-.321.433l.246.111-.025-.077c.276-.045.38-.203.716-.022.178.185-.01.303.07.36-.015.029.009.057.13.076.168.092.334.193.508.277-.03-.133-.05-.281-.07-.42.29-.047.48.2.39-.25.056.344.53.585 1.01.734.368.044.727.146 1.063.3a1.512 1.512 0 0 1 1.125-.073c-.097-.09-.114-.485.224-.406-.19.818.62.38.914.982-.263-.372 1.044-.135.604-.677.3.048.034.307.277.486a1.43 1.43 0 0 1 .562-.144c.204-.024.41-.031.617-.022.214.004.439.02.663.004.224-.023.444-.074.655-.152-.015-.108-.2-.231-.058-.434.197.135.4.269.608.4.157-.109-.037-.648.385-.4-.073-.07-.18-.178-.081-.25a3.067 3.067 0 0 0 1.279-.33c.404-.184.79-.407 1.151-.667a11.8 11.8 0 0 1 .564-.353c.183-.125.372-.241.567-.348.202-.108.413-.2.63-.273.224-.093.457-.166.694-.216-.321 0-.21-.123-.077-.249-.123.04-.174-.203-.288-.298.268-.059.557-.107.823-.189-.192-.387.532-.59.3-.911l-.108.213c-.13-.527-1.027-.408-1.406-.865.079.295-.196.311-.482.327-.282.025-.548.073-.498.525-.159-.022-.05-.208-.18-.276.069.279-.018.421-.318.487l-.012-.068a2.285 2.285 0 0 1-.836.47c-.29.08-.598.146-1.007.28l.193.23a.557.557 0 0 1-.374-.05c.002.49.483-.2.532.315-.493-.422-1.222.576-1.635-.025-.265.09.196.288-.073.38l-.131-.146.009.246c-.191.028-.348-.158-.4-.303.047.002.104-.084.145-.113-.28-.109-.613.246-.71.207l.286.043c-.37.176-.767.29-1.174.336-.207.034-.41.088-.609.14-.2.042-.394.115-.573.215l.064.134c-.573.299-.466-.13-1.095-.028l.024-.032a.533.533 0 0 1-.483.166c.17-.139-.265-.352-.042-.5-.636.189-.316.173-.814.623l-.057-.237c-.177.173-.21.274-.545.256.302-.13-.12-.386.222-.57a.662.662 0 0 0-.736-.215c-.213.027-.39.037-.403-.354-.505.492.422.52.217.591.078.247-.392.363-.581.23-.103-.044-.12-.264-.169-.491a.72.72 0 0 0-.347-.597c.046.025.07-.017.114.008-.098-.23-.446.039-.529-.307-.3.262-.247-.18-.532.217.161.051.313.114.476.154-.294-.016-.822.315-1.083-.166.124-.063.259-.1.397-.108-.034-.191-.276-.054-.308-.254.307-.376.564.223.996.056-.008-.248-.642.018-.24-.355-.266.232-.366.145-.465.036-.1-.112-.179-.266-.475-.169l.196-.217c-.07.003-.245.041-.321-.027l.378-.185c-.42.078-.238-.527-.523-.583.393.37-.155.352-.116.666-.783-.2.223-.835-.388-1.253.085.053.139.386-.078.371a.746.746 0 0 1-.032-.53c-.357-.343-.183.251-.454.202.166-.359-.27-.1-.512-.215l.238-.178c-.175-.588-.596.226-.706-.359l.47-.034-.24-.173.317-.132c-.374-.11-.377-.226-.415-.53-.155.159-.493.22-.625-.02.076-.24.3-.034.091-.348.21 0 .459-.026.285.237.094-.029.203-.012.296-.04.102-.258-.175-.427-.223-.55a.285.285 0 0 1-.007.156c-.2-.099-.38-.217-.575-.336.074-.12.182-.087.287-.058-.068-.088-.222-.11-.304-.252.242-.041.476-.131.658.027-.139-.118-.287-.238-.426-.367.092-.066.213-.328.314-.292.084-.287-.65-.512-.507-.923a.23.23 0 0 1-.146-.11c0-.176.06-.348.07-.519a.588.588 0 0 0-.17-.54l.417-.248c-.12-.314-.525.337-.722-.2-.125-.39.375-.145.5-.277-.204-.18-.666-.552-.268-.88.065.124-.01.21.023.32zm.81-3.965c.025.1.142.32-.042.305-.279-.216-.1-.22.042-.305zm3.516-5.379c.007.116-.1.132-.258.107a.294.294 0 0 1 .258-.107zm17.674 2.075l-.018-.004c0-.254-.003-.161.018.004zm.093.472c.043.023.097.01.124-.031-.083.002-.134-.089-.17-.204-.054.064-.076.14.046.235zM10.55 28.874l-.047-.109c.218.01.134.055.047.109z"/><path d="M18.91 6.343a.31.31 0 0 1 .115-.08.762.762 0 0 1-.115.08c-.092.116.232.166.137.302-.28-.223-.08.333-.391.155-.063-.407.036-.336.254-.457zm-8.272 2.491a.109.109 0 0 1-.129-.101c.037.04.08.075.13.101zM6.951 19.848l.053.015a.254.254 0 0 1-.055-.003c.001-.004 0-.008.002-.012zM22.713 7.573a.149.149 0 0 1-.069-.095.158.158 0 0 1 .02-.116.387.387 0 0 0 .049.211zm7.32 5.227c-.03-.091-.113-.011-.179.011a.342.342 0 0 0 .025-.288l.153.277zm-1.491 2.683c.047-.172.166-.062.186.104l-.138.014c-.04-.037-.01-.081-.048-.118zm.594-2.202c-.241.075-.13.228-.052.414a.103.103 0 0 1-.006-.035c.355-.003.205-.196.058-.379zm-.036.457a.474.474 0 0 1 .035.178c.143 0 .017-.078-.035-.178zm.03-2.651c-.025.116.319-.06.245.031.335-.016-.598-.48-.246-.031zm-.776 2.513l.03-.18.261.053-.291.127zm-.165-1.48c.084-.036.105.173.136.358-.035-.039-.074-.067-.122-.047a2.152 2.152 0 0 0-.014-.311zm.136.358a.323.323 0 0 0 .112.22.704.704 0 0 0-.112-.22zm-.15.75l.009-.305.031.207-.04.098zm-1.419-4.015c-.051.1-.161.028-.27.013-.11-.068-.114-.176-.01-.216l.28.203zm-.181 1.27l-.205-.042.332-.192c-.061.093-.117.133-.127.235zm-.557-.693c-.102.033-.516-.151-.26.121.106-.042.338.163.26-.121zm-3.213-3.36l.355-.53-.28.561-.075-.03zm3.099 19.495l.009-.125.276.017-.285.108zm.017-.69c.099.028.154-.08.182-.134l.16.356-.342-.222zM8.45 13.263l-.278.042c.061-.08.092-.12.2-.1l.078.058zm-1.242 2.533l-.355-.034.373-.012-.018.046zm.199 2.35c.019-.091-.058-.2-.04-.294.059.2-.412.323.04.295z"/></g><g fill="#F5F5F6" fill-rule="nonzero" transform="translate(240.2 148.872)"><ellipse cx="35.104" cy="42.469" rx="25.731" ry="23.431" transform="rotate(-48.714 35.104 42.469)"/><path d="M63.849 37.767c.368.027.704.221.91.527-.544.459-.824.69-.933 1.006l-.107-.269.115.09.015-1.354-.137-.002.14-.069-.003.071zM56.24 60.716c-.217.16.425.597.504.72.156-.464-.665-.842-.504-.72zm1.146-4.449l-.093-.692.316.927-.223-.235zm1.946-3.338c-.605.351-.485 1.633-.758 2.474l-.764-.81.313.052c.744-.39-.14-1.988 1.21-1.716zm3.477-.818c-.082.12-.148.25-.196.387a.942.942 0 0 0-.157.037c.132-1.039-.178-.488.353-.424zm.28-1.63c.574-.16.902-.193.948.48-.147-.263-.374.224-.701.234l-.248-.714zm-.747-.828l.094.342c.137-.008.203-.07-.094-.342zm.287 1.078c-.177-.351-.495-.59-.141-.413-.685-.447-.279-.312-.052-.323l.193.736zm-.314.265c-.393.198-.716.501-.926-.18-.242 1.046.673 1.267.926.18zm-4.121 1.167c.383.16-.406.415-.288.659l-.24-.491.528-.168zm6.556-5.034c-.413-.06-.677.314-.913.483l-.22-.494a7.519 7.519 0 0 1 1.133.011zm-1.133-.01l-.335-.725c-.175.536.026.688.335.724zm-2.638 1.984l.045-.185c.208.476.41.963.609 1.464a41.293 41.293 0 0 0-.654-1.28zm4.27-4.454l-.293-.336c.297.263.593.533.887.81l-.594-.474zm.09-1.681c.515-.47.56-.884.349-1.27.392.372.874.813.9 1.29-.295-.327-.745.31-1.248-.02zm-.239-1.884c.174.224.371.43.588.613a1.853 1.853 0 0 0-.588-.613zm-1.455 4.287c.023-.08.041-.161.055-.243l.813-.124a1.122 1.122 0 0 1-.868.367zm.029-.239l.139-.532-.113.528-.026.004zm-.045.3l.016-.061c-.081.01-.11.02-.016.06zm-1.487 2.364c-.34-.471-.652-1.28-1.454-.766.468.378.934.074 1.454.766zm.45-2.245l.393.796c-.176-.222-.5-.167-.707-.198l.315-.598zm-.18-.355l.297.132-.116.223-.18-.355zm1.91-2.966c.013.42-.429.216-.67.146.018-.395.112-.782.276-1.142-.007.371.136.73.395.996zm-.37 1.412c-.015-.022-.02-.05-.036-.07-.072.032-.097.061.037.07zm-.451-1.214c-.031-.094.039-.084.15-.052a2.24 2.24 0 0 0 .06.692c-.223-.187-.396-.37-.21-.64zm1.257-2.367a3.535 3.535 0 0 0-.447.508c.254-.144.652-.454.447-.508zm-.613 3.438c.126-.026.21-.029.03.047a.466.466 0 0 0-.03-.047zm0 0a1.08 1.08 0 0 0-.23.073 1.605 1.605 0 0 1-.204-.504c.167.12.313.265.434.431zm-5.43-6.251c.16-.2.529-.011.734-.047l-.574-.58c1.298-.38 1.924.88 2.78.458-.349.441-1 .353-.568 1.115.696.471 1.153-.721 1.534-.999.475.595.77.58 1.09.57-1.304.689-3.69 1.157-4.273.648.748-.624.03-1.228-.723-1.165zm5.113 3.275a3.108 3.108 0 0 1-.003-1.223c.167.425.312.859.435 1.299l-.01.004c-.042-.002-.08-.012-.118-.017-.09-.12-.125-.435-.3-.063.098.03.198.052.3.063.003.007.006.023.016.027-.06.063.001.045.102-.01l.013.002-.003-.006.05-.03c-.15.208-.277.431-.382.665a2.004 2.004 0 0 0-.191-.702c-.478.908-1.074-.723-.911.532-.333-.47-.95-.253-.985-.998.873-.385 1.196.23 1.987.457zm-4.674 5.502a.412.412 0 0 1 .188.007c-.08-.093-.139-.134-.188-.007zm.57-.348a9.344 9.344 0 0 1 2.016-.18 2.92 2.92 0 0 0-1.564.704l.088.104c-.488.417-.75-.073-.922-.273.258.046.347.309.63.133.139-.248-.158-.385-.249-.488zm1.972-2.443c-.309-.105-.83-.04-.602-.575l-.415-.014c.247-.14.5-.285.744-.435l.273 1.024zm2.54-5.697l-.38-.451c.41.166.82.342 1.23.525l-.85-.074zm-.264-1.407l.235-.365.498.317-.733.048zm-48.298 3.468l.155.268a.728.728 0 0 0-.155-.268zm.51-1.552l-.33-.151c.166.135.296.21.33.151zM40.23 13.295a.674.674 0 0 0-.785-.193l-.092-.805c-.004-.82.482.243.877.998zm-19.11 10.52l-.034-.657.273.771-.24-.115zm1.9 2.74l-.68-.095c.219.074.45.106.68.095zM16.2 48.193l.84.085c-.06-.362-.441-.13-.84-.085zm41.716-25.284c-.598.322-.308-.416-.288-1.11.194.337.294.72.288 1.11zM7.635 36.682a.55.55 0 0 0 .39.382c-.074-.22-.189-.368-.39-.382zM56.793 20.93c.685-.094.867.344.833.867a1.45 1.45 0 0 0-.813-.582 2.73 2.73 0 0 1-.02-.285zm-17.52 40.626c.034.02.067.042.098.066-.028-.105-.06-.1-.098-.066zM52.76 62.84c-.13.26-.248.368-.355.388.135-.113.254-.243.355-.388zm7.593-30.088a.895.895 0 0 0-.402.008.714.714 0 0 1 .402-.008zM51.358 22.72l-.016-.015c-.04.168-.031.137.016.015zm11.375 8.248c.005-.152.035-.303.086-.447a1.339 1.339 0 0 1-.086.447zm.336-.181c.004.112.014.197.022.278.14-.005.208-.065-.022-.278zm-.35-.763c.09.193.15.308.195.389-.032-.006-.065.033-.095.108.003-.171-.03-.34-.1-.497zm-40.696 31.64c.002.03.002.06 0 .09.372-.162.259-.17 0-.09zM33.818 21.79l-.018-.064.036.022c-.008.011-.01.033-.018.042zm-.645.706c-.04-1-.057-1.996-.05-3.002.234.743.46 1.486.676 2.232-.28-.168-.51-.26-.626.77z"/><path d="M15.301 43.453c.237-.159.49-.311.758-.458 1.115.703.74 1.057 1.75.682a1.644 1.644 0 0 1-1.131-.394 1.038 1.038 0 0 1-.157-.682c-.002-.486-.012-.972-1.246-1.213.185-.088.374-.173.578-.253-.043.092.09.131.056.223 1.318-.425-1.679-.813-1.133-1.65.256-.27.653-.388.899-.11a7.912 7.912 0 0 1-.425-.83c.11-.183.514-.013.406.164l.132-1.068.068.03a7.114 7.114 0 0 1-.99-1.062c.423-.146.209.227.525.263-.14-.264-.232-.518-.345-.784.714.014 1.072.69.872 1.044 1.253.16 1.162.017.968-.27-.195-.279-.465-.708.43-.951l.086.617c1.454.243 1.107-.337 2.157-.46-.25-.049-.866-.033-1.468-.082-.605-.054-1.203-.18-1.365-.604.245-.09.4-.267.122-.79.803.39.764.005.915-.387l1.031.582c-.1-.54-.642-.803-.98-1.301.33-.399 1.197.004 1.911.312.588-.541-1.554-.316-1.22-1.216.32-.109.543-.4.564-.738a3.062 3.062 0 0 0-.006-.59l-.032-.724c.627-.13.522.503.9.574l-.48-.908c.084-.068.289.139.393.243-.06-.51-.908-.757-.786-1.424-.446-.475.102-.43.693-.403.603.03 1.208.027.927-.746.362.107.46.566.827.845.04-.871-.03-1.744-.212-2.597l1.047.123c-.971-.335-1.168-1.552-1.22-2.646a8.521 8.521 0 0 0-1.001-.434c.134-.385.254-.799.417-1.172.224.077.382.463.55.95a3.729 3.729 0 0 0-.02-.334c.57.129.82.79 1.023 1.454l-.73-.349a5.72 5.72 0 0 0 1.08 1.98.7.7 0 0 1 .028-.447c.05.16.137.305.254.425.102.076.008-.189-.064-.525l.978.909-.28-.442c.49-.01.969-.013 1.437-.01-.124-1.586-.466-3.609.59-4.859.14 1.037.685 1.427 1.206 2.447-.912-.87-.66.984-1.37 1.109.383-.074.598.431.623.636.15-.51.316-1.031.497-1.564.431.833.565.48 1.017.665-1.085-1.534.275-1.481.51-2.218.28.554.433 1.184-.181 1.304.606.486.558-.091.528-.706-.034-.607-.059-1.27.488-.85-.142.061-.25.021-.184.334.116-.664 1.127-.533 1.111.039l-.137.062a3.61 3.61 0 0 0 .87-.238c.314-.138.62-.296.914-.473a1.785 1.785 0 0 0 .917-1.733c.053.195.292 1.88.312 2.202.151-1.869.447-3.724.886-5.547.114.955.282 1.902.503 2.838.189 1.05.272 2.043-.056 2.481.262.153.561.333.976-.218-.17-.166-.66-1.868-.447-2.027.806 1.385.548.728 1.398 1.953-.262-.274-.174-2.397.255-2.357.05.769.061 1.54.033 2.31.262-.71.555-1.423.878-2.138-.243.394.006 1.754.21 2.342-.097-.41.784.07 1.03-.13l-.377-.494c1.014.36 1.226-2.929 2.42-2.643-.206.406-.625 2.58-.14 2.908.356-.998.775-1.974 1.255-2.92.612-1.192 1.39-2.22 2.075-2.49l.076.643 1.062-.457-2.1 2.837c-.766 1.053-1.452 2.086-1.886 2.711.299.535-.007.693.546.762a.707.707 0 0 1-.611.8c.39.166.748.425 1.112.623.228-1.214 1.255-1.002 1.504-1.976-.596.274-1.175.601-1.712.906a4.535 4.535 0 0 1 1.006-2.021c.51-.588 1.178-1 1.643-.692.093.557-.86 2.04-.95 2.446.233-.37 1.111-.472 1.091-.159l-.6.493c.164.306.497-.014.832-.239a.765.765 0 0 1 .466-.182c.127.033.22.18.244.52.176.174-.105 1.723.242 1.074.327-1.413 2.033-5.456 2.78-6.279.025.065.225.535.391 1.074.087.27.155.546.205.826.04.24.052.485.033.728a3.237 3.237 0 0 1-1.016 1.557 3.33 3.33 0 0 0-.975 1.443c.18-.257.42-.468.7-.614.059.378-.61.859-.102.994.729-1.029.843.645.768-.776.637-.02.346.491.868.796a3.274 3.274 0 0 1 1.235-1.234 2.9 2.9 0 0 1 1.558-.55 2.548 2.548 0 0 0-.454.822c.195.186.372.39.528.61.133.216.232.437.335.646.186.442.45.847.778 1.196a4.709 4.709 0 0 0-.16.572.79.79 0 0 1-.47.525c.256-.037.662-.214.89.016-.45 1.173-.57-.43-1.27.782.573-.454 1.266-.044 1.922.034.808-.798-.52-.978-1.136-1.012a4.235 4.235 0 0 1 4.333-.877c.894.619-.58.943-.298.96.39.848 1.178.813 1.877.837.708.01 1.262.116 1.142 1.109-.599 1.018-1.755.914-2.33 1.366-.682-.497.046-1.365-.303-1.791-.01.264-.032.528-.069.79-.392-.063-.9-.338-.798-.725a.93.93 0 0 0 .014.787c.114.298.248.667.427 1.04.184.383.347.775.49 1.175.109.39.13.8.06 1.2.393.093.864.36 1.171.044l-.282-.351c.603-.669 1.334.388 1.485-.268.415.179.811.396 1.185.648.353.261.521.704.431 1.133l-1.053.453c.317-.099.505-.726.109-.863.288.102.007.533-.16.916-.167.386-.219.727.556.753l.606-.775c.353.236.894.48 1.29.794.393.232.61.674.554 1.127 1.041-.566-.155-.156 1.033-.992-.764.412-.814-.127-.924-.61-.12-.488-.24-.924-.967-.324 1.32-.957.359-1.161 1.38-2.33-.359.14-.582.489-.643-.25a1.753 1.753 0 0 1-.368-.043.341.341 0 0 1 .01-.054l-.028.051c-.064-.01-.076-.01-.01.019-.086.208-.23.387-.414.517-.937-.061-1.292-1.072-1.834-1.243.022-.438.458-.004.75-.358l-.81-.253c.77-.373.791-1.563 1.667-.857-.106-.283-.242-.556-.363-.834a1.45 1.45 0 0 0-.521-1.69c-.035-.488-1.367-.462-.596-.483l-1.207-.92.165-.126a2.761 2.761 0 0 0-.711-.8c-.306-.22-.636-.424-.934-.655a2.723 2.723 0 0 1-.75-.831 2.436 2.436 0 0 1-.217-.577 2.769 2.769 0 0 1-.106-.712 2.254 2.254 0 0 1-1.41-1.059l.37-.639c-.591-.24-.997-1.734-1.664-1.321.318-.958-.216-1.578-.993-1.918-.762-.368-1.658-.573-2.053-1.01l-.486.8a5.074 5.074 0 0 0-2.386-.488l-.28.782c-.472.136-.857-.159-1.291-.542a3.971 3.971 0 0 0-1.498-1.026c.168-.276.441-.095.589.158-.399-1.16-1.3-.985-2.114-.774-.38.127-.773.208-1.173.241a1.012 1.012 0 0 1-.96-.455.498.498 0 0 1-.419.133.498.498 0 0 1-.363-.247.114.114 0 0 0 .085-.032.425.425 0 0 0-.132-.027 6.052 6.052 0 0 0-.405-.497c.085.18.197.345.334.49a2.246 2.246 0 0 0-1.027.21l-.092-.893a.982.982 0 0 0-.09.022c-.354-.342-.32.409-.172 1.083-.2.14-.373.316-.509.519-.238-1.445-.947.452-1.331-1.09-.25.692-1.84.653-1.902 2.217-.027-.203-.137-.293.05-.318-.397-.153-.813-.308-1.109.16l-.296-1.097c-.228.548-.44 1.095-.638 1.64-.598-.603-.905-.958-.517-1.902a3.993 3.993 0 0 1-.953 1.086c-.203.15-.385.33-.735 1.104l-.118-.725c-.368.123-.69 1.217-1.063.69a1.415 1.415 0 0 0-1.182-.326 9.097 9.097 0 0 0-1.599.422c-.289.1-.597.184-.894.301-.296.118-.6.23-.909.323a5.808 5.808 0 0 1-1.906.269c.689.844.358.757-.063.652-.42-.106-.942-.221-.56.522-.363-.377-.785-.464-.692-1.031-.315.369-.755.61-1.236.678-.371.142-.645.374-.565 1.177-.4-.342-.225-.756-.492-.937-.016.146-.049.578-.323.4-.274-.177-.11-.447-.082-.739-.952.783-.093 2.103.737 3.319-.89-.24-1.04.065-.73 1.06-.451-.247-1.034-.412-.612-1.002-.328.198-2.335 1.053-1.512 1.961-.293-.128-.44.33-.414.498a5.94 5.94 0 0 0-1.298 1.254l.308-.042c.823 1.179-.222.73-.52 1.373l-.1-.108c-.888.285-.904.503-.922.694-.011.205-.074.346-.986.656l.77.442c.737.613.331.718-.26.836-.59.114-1.375.26-1.31.826l.608-.004c.146.372-.595.305-1.41.242-.824-.074-1.763-.168-1.994.011-.201.024-.148-.287-.178-.49-1.658.713.935.713.7 1.726-.65-.111-1.307-.935-1.744-.358-.325.04-.055.749.1 1.448.158.707.226 1.41-.518 1.636.534-.026 1.058-.032 1.222.519-.034.36-.605.663-1.027 1.033-.418.366-.679.798-.04 1.308a.735.735 0 0 1-.405.024c.241.637.244 1.896.985 2.359-.777-.03-1.123.187-1.238.514-.047.404.022.813.2 1.179.303.823.653 1.534-.756 1.425l.095 1.702-.287-.05a1.3 1.3 0 0 0 .238 1.19c.274.265.596.475.95.619-.177.251-.452.088-.601.073-.468 1.592-.354 1.823 1.263 2.873l-.883.28c.299.131.012.747-.119 1.523a2.44 2.44 0 0 0 .637 2.306.702.702 0 0 1-.438-.044c.78.684.583 1.866.6 2.907.09.998.424 1.794 2.038 1.287.41.222.836.417 1.271.584-.287-.672.1-.818.504-.872.421-.06.937-.08 1.026-.448.442.322-.11 1.682-.616 1.215l.084-.176c-1.62.7.444 1.816-.54 2.467.466.567.902 1.16 1.303 1.774l.3.466.33.438.657.886.66.892c.237.28.492.54.744.806.489.535 1.03 1.022 1.614 1.452l.493-1.284.763.566c.042.396-.271 1.077-.844.655-.093.845 1.35.082 1.503-.17.429.584.133.864-.252 1.015-.382.153-.849.177-.671.305l.554.221-.034-.206c.678-.229.982-.715 1.699-.306.352.469-.125.864.043 1.002-.043.086.003.158.279.176.365.21.725.44 1.1.633-.026-.38-.032-.793-.04-1.184.686-.238 1.032.448.965-.84.018.985 1.031 1.551 2.068 1.873 1.055.264 2.099.349 2.29.69a2.53 2.53 0 0 1 2.447-.346c-.202-.256-.2-1.444.51-1.232-.46 2.457 1.298 1.122 1.933 2.917-.291-.611.283-.623.795-.81.52-.166.97-.392.493-1.202.646.16.085.923.62 1.472a2.31 2.31 0 0 1 1.207-.399c.447-.045.897-.04 1.342.015.483.06.968.093 1.454.101.49-.02.973-.128 1.426-.317-.057-.32-.49-.722-.22-1.29.461.44.94.874 1.438 1.302.331-.28-.241-1.9.77-1.063-.183-.225-.45-.568-.248-.75.488.03.978-.003 1.459-.095a5.815 5.815 0 0 0 1.342-.477 16.83 16.83 0 0 0 1.266-.67c.408-.249.788-.548 1.184-.815.393-.272.79-.535 1.202-.773a9.523 9.523 0 0 1 1.238-.716c.457-.216.935-.38 1.428-.49a7.504 7.504 0 0 1 1.656-.283c-.811-.134-.582-.412-.298-.688-.294.055-.524-.61-.852-.907.65-.037 1.349-.055 2-.149-.654-1.078 1.131-1.287.39-2.204l-.186.496c-.275-.708-.998-1.063-1.776-1.43a6.64 6.64 0 0 1-2.211-1.403c.338.78-.356.684-1.042.595-.682-.069-1.295-.083-.963 1.114-.394-.136-.218-.565-.567-.806.137.256.175.553.107.834-.085.18-.296.268-.626.295l-.06-.187a3.338 3.338 0 0 1-1.729.87c-.623.093-1.288.135-2.134.325l.519.72c-.392.058-.588-.158-.84-.282.202 1.374.977-.376 1.3 1.086-.645-.668-1.242-.411-1.837-.17a1.141 1.141 0 0 1-1.71-.505c-.523.175.509.893-.028 1.073l-.323-.466.096.715c-.395.02-.776-.57-.925-1.008.098.023.19-.208.265-.277-.315-.22-.595-.066-.843.095-.243.174-.443.394-.545.312l.592.197a5.646 5.646 0 0 1-2.294.739 7.545 7.545 0 0 0-1.194.323c-.412.124-.793.33-1.12.609l.135.405c-1.143.853-.935-.413-2.19-.09l.051-.096a.958.958 0 0 1-.98.523c.352-.439-.495-1.016-.036-1.492-.629.327-.809.467-.941.701a6 6 0 0 1-.782 1.266l-.075-.698c-.394.549-.482.857-1.179.875.655-.448-.161-1.111.582-1.733-.453-.893-.994-.584-1.452-.45-.45.148-.83.231-.726-.892-1.228 1.577.72 1.368.27 1.64.098.692-.94 1.17-1.31.84-.21-.096-.176-.726-.197-1.363-.013-.668-.065-1.346-.527-1.545.088.051.156-.075.242-.025-.115-.599-.98.278-1.014-.64-.786.858-.472-.373-1.291.84.341.07.663.165 1.005.211-.437.143-.867.308-1.288.493-.468.148-.927.123-1.108-.475.291-.21.618-.367.964-.463.011-.503-.608-.03-.588-.551.448-.566.742-.493 1.056-.34.343.26.813.276 1.173.038.1-.67-1.446.35-.37-.849-.702.75-.892.56-1.062.314-.171-.255-.283-.607-1.028-.205l.57-.668c-.165.046-.597.234-.742.093.335-.22.663-.445.985-.674-.505.22-.582-.107-.603-.46-.036-.343.035-.768-.322-.741.368.353.24.59 0 .838-.241.252-.607.513-.627.9-.914-.024-.664-.623-.351-1.24.318-.635.69-1.296.064-1.659.192.07.127.865-.395.94a1.776 1.776 0 0 1 .2-1.254c-.729-.61-.599.693-1.269.723.616-.936-.643-.099-1.218-.258l.715-.533c-.175-1.262-1.696.812-1.722-.483.433-.09.86-.19 1.282-.297l-.562-.277.92-.448c-.472-.033-.698-.122-.81-.272-.107-.153-.073-.387-.076-.7-.495.414-1.46.696-1.734.22.313-.554.854-.194.403-.795.586-.078 1.292-.239.695.4.275-.101.571-.111.84-.215.395-.59-.29-.833-.384-1.07a.49.49 0 0 1-.083.328c-.522-.13-1-.306-1.52-.49a.909.909 0 0 1 .843-.222c-.162-.158-.599-.15-.785-.42.713-.165 1.416-.425 1.88-.17-.356-.189-.733-.385-1.091-.604.283-.163.708-.72.995-.678.142-.3-.273-.494-.688-.74a1.935 1.935 0 0 1-.54-.41.47.47 0 0 1-.037-.536.612.612 0 0 1-.415-.192c.081-.346.18-.687.297-1.022.096-.34.054-.665-.47-1.031.423-.177.845-.343 1.268-.5-.17-.286-.568-.136-.995-.02-.424.112-.885.191-1.16-.346-.386-.77 1.12-.287 1.492-.542a4.351 4.351 0 0 1-1.087-.756c-.272-.31-.35-.67.238-.966.211.248-.004.41.096.63zm1.404-7.84c.109.225.522.736-.007.634-.872-.564-.364-.51.007-.634zm6.542-11.25c.069.313-.175.307-.563.169.089-.153.262-.235.563-.169zm37.66 3.256a.277.277 0 0 0-.05-.001c.085-.602.043-.382.05.001zm.11 1.08a.358.358 0 0 0 .362-.11c-.237.03-.353-.166-.413-.427-.177.168-.266.351.051.537zM21.543 68.242l-.074-.294c.503-.044.294.113.074.294z"/><path d="M22.801 26.237a2.126 2.126 0 0 1-.362-.328.436.436 0 0 0 .362.328zm-6.758 21.938l.156.018c-.054.006-.108.008-.162.006.004-.009 0-.016.006-.024zm30.758-24.34a1.102 1.102 0 0 1-.016-.553.424.424 0 0 0 .016.553zm17.425 9.549c-.068-.202-.328-.006-.528.056.097-.19.256-.35.13-.654l.398.598zm-4.749 5.971c.153-.359.503-.136.553.214l-.414.031c-.116-.076-.024-.169-.139-.245zm2.002-4.745c-.726.204-.416.514-.21.905a.158.158 0 0 1-.012-.074c1.055-.06.636-.46.222-.831zm-.17.996c.062.117.09.248.082.38.424-.017.061-.172-.081-.38zm.67-5.916c-.447-.46-.032-.501.377-.401.41.1.815.35.325.406.24-.231-.804.27-.702-.005zm-2.868 5.742l.118-.387.767.064-.885.323zm-.146-3.152c.254-.102.246.357.302.747a.323.323 0 0 0-.346-.07c.03-.225.045-.45.044-.677zm.302.747c.007.19.113.362.28.452a1.11 1.11 0 0 0-.28-.452zm-.61 1.65l.094-.656.047.436-.142.22zm-2.663-8.542c-.182.263-.443.135-.723.143-.26-.119-.223-.38.072-.522l.65.38zm-1.03 3.064l-.54-.013.99-.583c-.207.24-.377.357-.45.596zm-1.201-1.36c-.293.126-1.28-.12-.747.408.296-.15.833.217.747-.407zm-6.283-7.212l1.008-1.619-.85 1.678-.158-.06zm-8.692 2.155c-.089-1.225.095-.997.54-1.394-.194.36.442.463.237.883-.523-.632-.194 1.014-.777.511zm.54-1.394c.06-.1.14-.188.236-.256-.07.093-.15.178-.236.256zm15.67 40.688l-.027-.317.725.157-.698.16zm-.247-1.757c.269.11.365-.14.414-.268l.572.971-.986-.703zm-35.36-24.683l-.75-.031c.134-.145.2-.218.507-.128l.242.159zm-2.682 4.742l-1.055-.147 1.099.06-.044.087zm.878 4.512c.053-.171-.182-.376-.13-.55.184.372-1.226.606.13.55zm86.44-32.582c-2.201 2.501-5.835 2.908-8.116.908-2.282-2-2.347-5.648-.147-8.15 2.2-2.5 5.834-2.907 8.116-.908 2.281 2 2.347 5.649.146 8.15zm1.16.948c-.058.036.151.188.18.226.028-.125-.233-.267-.18-.226zm.159-1.185l-.057-.19.135.263-.078-.073zm.475-.812c-.177.07-.091.412-.146.626l-.268-.246.1.027c.218-.076-.12-.527.314-.407z"/><path d="M107.049 9.887l-.123-.19c-.048.132.02.175.123.19.125 0 .25.008.373.023-.137-.023-.218.068-.292.106l-.081-.13zm-.144 1.27a.305.305 0 0 0-.051.096.283.283 0 0 0-.05.005c.012-.27-.071-.133.101-.101zm.045-.419c.183-.027.29-.028.32.149-.054-.072-.117.049-.223.043l-.097-.192zm-.262-.233l.039.09c.044.002.064-.012-.04-.09zm.12.285c-.067-.095-.176-.165-.057-.11-.233-.133-.098-.087-.024-.084l.08.194zm-.095.06c-.12.042-.215.11-.304-.072-.044.264.255.35.304.073zm-1.28.17c.127.055-.111.092-.064.16l-.095-.136.159-.024zm.798-.69l.01-.045c.08.125.157.254.234.388l-.244-.343zm1.32-1.047l-.1-.089.302.217-.202-.128zm.014-.427c.165-.115.182-.221.11-.32.132.096.29.211.305.334-.102-.085-.245.074-.415-.014zm-.088-.477a.55.55 0 0 1 .197.157 1.414 1.414 0 0 1-.197-.157zm-.45 1.066l.015-.06.268-.02a.408.408 0 0 1-.283.08zm.006-.06c.024-.075.036-.115.04-.131l-.031.13-.009.001zm-.01.075l.004-.015c-.027.001-.036.003-.004.015zm-.447.568c-.12-.127-.238-.333-.492-.223.16.104.308.038.492.223zm.107-.554l.144.206c-.062-.059-.168-.05-.237-.062l.093-.144zm-.066-.09l.1.036-.034.054-.066-.09zm.604-.72c.005.105-.142.051-.223.032a.596.596 0 0 1 .089-.283c.002.1.052.193.134.251zm-.11.35l-.014-.017c-.023.007-.031.014.014.018zm-.043-1.483l-.001.018h-.046l.047-.018zm-.12 1.177c-.011-.023.013-.02.05-.012a.439.439 0 0 0 .026.173c-.076-.048-.135-.095-.076-.16zm.413-.587c-.053.038-.103.08-.148.127.084-.036.216-.113.148-.127zm-.188.86c.041-.005.07-.005.01.012l-.01-.012zm0 0a.489.489 0 0 0-.076.016.378.378 0 0 1-.073-.128c.055.03.105.068.149.112zm-1.809-1.51c.056-.048.175-.008.244-.02l-.18-.128c.435-.111.623.185.913.075-.12.111-.335.095-.196.275.23.11.388-.183.517-.256.09.1.225.15.36.133-.45.194-.944.259-1.427.187.253-.153.017-.29-.23-.265zm1.653.394l.037.022.013-.338a.43.43 0 0 1 .3.127c-.184.118-.278.177-.316.256l-.034-.067zm.035.371a.533.533 0 0 1-.001-.304c.059.106.097.213.145.323l-.003.002-.04-.005c-.03-.03-.042-.108-.1-.016a.693.693 0 0 0 .1.016s.002.006.005.007c-.02.016.001.011.035-.002h.004v-.002l.016-.007a.96.96 0 0 0-.126.165.402.402 0 0 0-.066-.175c-.156.224-.36-.18-.302.13-.112-.116-.317-.064-.33-.245.29-.094.398.055.663.113zm-1.492 1.291c.02-.001.042 0 .062.006-.028-.024-.049-.035-.062-.006zm.18-.072c.22-.02.44-.022.66-.008a1.05 1.05 0 0 0-.5.144l.03.027c-.152.092-.247-.034-.308-.085.086.016.12.082.21.045.04-.057-.06-.096-.092-.123zm.617-.563c-.104-.029-.277-.018-.207-.145l-.138-.007.243-.1.102.252zm.84-1.403l-.124-.11.407.123-.283-.013zm-.074-.352l.082-.095.161.075-.243.02zm-11.36.982l.057.063a.232.232 0 0 0-.058-.063zm.115-.331l-.112-.046c.058.036.103.058.112.046zm5.265-6.392a.141.141 0 0 0-.196-.058l-.018-.268c.003-.274.121.08.214.326zm-4.515 2.932l-.04-.194.112.24-.072-.046zm.655.896a.645.645 0 0 1-.188-.065l.188.065zm-1.31 4.712l.276-.002c-.013-.073-.143-.016-.275.002zm9.606-6.11a.488.488 0 0 0-.043-.305c-.032.2-.15.422.043.306zM93.063 7.222a.175.175 0 0 1 .137.105.206.206 0 0 1-.137-.105zm12.263-3.919c.205-.055.24.07.21.22a.308.308 0 0 0-.216-.137.58.58 0 0 1 .006-.083zm-4.595 9.431l.025.025c-.01-.035-.017-.034-.025-.025zm3.537.988c-.025.071-.054.098-.083.1a.379.379 0 0 0 .083-.1zm1.724-7.365zm-2.294-2.29l-.003-.003c-.02.051-.015.042.003.004zm3.112 1.776a.395.395 0 0 1 .04-.12.334.334 0 0 1-.04.12zm.114-.056v.073c.045-.005.069-.023 0-.073zm-.092-.191l.052.097c-.01 0-.022.01-.034.03a.231.231 0 0 0-.018-.127zm-9.873 7.39l-.005.027c.102-.067.074-.063.005-.027zm2.698-8.783l-.006-.022.009.008-.003.014zm-.126.221c-.033-.33-.058-.659-.076-.99l.196.748c-.065-.061-.12-.095-.12.242z"/><path d="M95.71 8.947c.078-.032.161-.062.247-.09.38.159.253.221.588.156-.848-.073-.04-.37-.871-.51l.185-.044c-.012.02.034.031.024.05.423-.062-.572-.212-.412-.39a.256.256 0 0 1 .291 0 2.795 2.795 0 0 1-.162-.198c.03-.038.166.013.137.05l.006-.239.023.01a2.8 2.8 0 0 1-.353-.28c.131-.02.074.06.177.08-.052-.067-.094-.13-.14-.198.226.03.371.204.319.277.818.18-.156-.177.392-.227l.054.146c.467.12.335-.026.653-.001-.153-.057-.773-.088-.915-.295.073-.01.115-.043.003-.183.268.13.236.037.263-.05l.346.19c-.059-.133-.237-.224-.365-.363.083-.08.363.063.594.178.144-.102-.482-.16-.433-.367.212-.037.113-.214.045-.497.175 0 .18.16.294.2l-.19-.265c.02-.013.09.053.127.086-.046-.138-.305-.25-.305-.422-.307-.321.65.216.397-.225.107.05.16.181.278.279-.043-.252-.11-.5-.203-.737l.291.09a1.153 1.153 0 0 1-.467-.83 3.036 3.036 0 0 0-.296-.176c.019-.107.034-.221.061-.326.09.084.158.19.195.308l-.021-.1c.16.063.259.272.348.48l-.215-.14c.1.228.232.441.392.632a.213.213 0 0 1-.015-.127c.022.05.053.096.09.136.031.028-.008-.054-.044-.155l.307.317-.098-.144.372.074c-.117-.471-.303-1.107-.08-1.448.1.287.238.56.41.81-.268-.31-.12.27-.29.272.093-.004.173.16.19.223.01-.146.026-.297.046-.451.146.276.163.175.282.254-.336-.523-.002-.45.025-.672.091.186.154.39.012.402.324.362-.123-.745.182-.447-.032.015-.06-.003-.032.099.003-.205.249-.131.265.052l-.03.015a.59.59 0 0 0 .56-.711c.016.065.112.623.125.729-.014-.606.019-1.211.1-1.812.036.45.326 1.488.191 1.767.061.055.128.12.211-.055a1.948 1.948 0 0 1-.129-.679c.202.473.136.25.336.664-.06-.093-.06-.799.04-.783-.008.107.048.695.023.77.051-.235.113-.47.185-.706-.03.261-.013.526.052.781-.022-.136.168.02.222-.047l-.08-.163c.217.114.288-.976.568-.898-.054.137-.173.864-.071.966.083-.347.515-1.66.884-1.845l.006.21.275-.172a21.417 21.417 0 0 0-1.065 1.907c.055.17-.016.232.103.24a.275.275 0 0 1-.148.278c.075.054.148.112.217.174.083-.404.3-.361.39-.687a4.88 4.88 0 0 0-.404.343c.06-.404.454-1.112.68-.958a5.239 5.239 0 0 1-.3.821c.065-.128.271-.192.255-.091l-.155.18c.039.184.377-.462.35-.03.035.047-.105.541.007.323.251-.722.568-1.42.946-2.084.072.26.093.533.064.801-.107.37-.554.695-.64 1.015a.88.88 0 0 1 .203-.223c-.003.112-.194.292-.074.306.234-.348.18.153.232-.273.164-.037.062.133.181.196.194-.313.49-.549.838-.668-.066.081-.12.17-.164.265.204.194.156.454.334.62-.054.085-.072.252-.238.337.075-.024.201-.094.256-.044-.192.34-.142-.085-.408.28.189-.154.367-.082.555-.094.279-.254-.103-.24-.278-.213a1.553 1.553 0 0 1 1.32-.446c.246.13-.216.281-.13.274.155.414 1.002-.148.858.401-.225.29-.586.303-.784.442-.193-.1.065-.352-.022-.453-.018.072-.03.139-.055.21-.12.001-.26-.05-.213-.156-.187.24.303.63.143 1.025.122.009.265.06.374-.027l-.08-.078c.215-.187.417.056.486-.114.232.068.572.15.479.406l-.355.136c.106-.03.181-.192.055-.216.187.046-.413.431.092.405l.216-.205c.23.097.662.221.575.449.352-.157-.049-.037.355-.266-.498.232-.095-.538-.607-.204.454-.27.143-.302.5-.627-.119.044-.201.14-.202-.05a.769.769 0 0 1-.118-.003l.004-.014-.01.014c-.02-.001-.025 0-.004.005a.411.411 0 0 1-.149.144c-.302.007-.387-.242-.556-.27.02-.113.147-.015.251-.115l-.253-.04c.257-.12.303-.438.56-.276-.026-.072-.06-.141-.089-.212.08-.188.045-.391-.11-.438.003-.131-.41-.08-.17-.111l-.339-.21.056-.041c-.078-.162-.281-.239-.444-.343a.52.52 0 0 1-.233-.564.447.447 0 0 1-.368-.253l.132-.204c-.162-.045-.216-.485-.423-.334.26-.636-.567-.562-.743-.795l-.16.269a1.015 1.015 0 0 0-.622-.08l-.098.258c-.25.126-.376-.352-.68-.43.05-.095.117-.043.149.036-.077-.364-.314-.295-.525-.21-.215.085-.409.204-.535-.037-.095.088-.147.047-.195-.03a.026.026 0 0 0 .021-.011.089.089 0 0 0-.032-.008 1.848 1.848 0 0 0-.098-.16c.019.056.046.11.08.159a.479.479 0 0 0-.259.08l-.017-.297-.023.007c-.087-.113-.082.137-.049.362a.627.627 0 0 0-.128.174c-.054-.481-.233.153-.327-.36-.062.236-.456.21-.46.731-.008-.067-.035-.098.01-.105-.097-.054-.2-.107-.268.047l-.084-.368a9.51 9.51 0 0 0-.137.534.609.609 0 0 1-.153-.637c-.233.492-.231.199-.382.695l-.044-.24c-.09.032-.144.383-.249.202-.342-.405-.97.251-1.636.12.432.58-.376-.154-.123.343-.111-.132-.228-.174-.225-.348-.158.282-.523-.002-.417.503-.124-.121-.092-.24-.173-.306.001.044.01.174-.074.109-.083-.065-.047-.141-.051-.23-.235.203.06.637.342 1.038-.253-.108-.286-.026-.154.282-.137-.094-.31-.168-.216-.324-.083.042-.613.211-.34.509-.09-.051-.112.074-.096.123-.163.135-.203.125-.319.3l.088.001c.297.372-.031.195-.091.36l-.035-.034c-.504.086.026.218-.51.289l.252.154c.505.388-.489.057-.409.38l.187.023c.122.198-.91-.153-1.05-.064-.063 0-.057-.082-.074-.138-.497.134.32.225.283.485-.21-.052-.446-.293-.564-.154-.2.02.42.736-.04.796.172.007.34.022.41.168.003.17-.726.269-.287.564a.3.3 0 0 1-.13-.002c.091.166.114.48.368.605-.519-.042-.435.196-.32.401.11.206.234.38-.236.345l.036.42-.096-.013c-.073.27.163.364.395.442-.06.062-.151.023-.201.02-.165.393-.125.456.393.692l-.296.082c.096.028-.005.184-.062.381a.47.47 0 0 0 .159.57.285.285 0 0 1-.142 0c.237.155.136.465.114.738-.005.261.076.467.601.273.123.043.248.08.375.107-.105-.338.441-.2.528-.411.12.065-.108.45-.243.347l.034-.05c-.528.252.06.47-.266.69a8.61 8.61 0 0 0 1.336 1.723l.187-.414.184.145c-.005.12-.116.343-.256.234-.058.265.365-.025.414-.11.195.333-.38.384-.3.445l.145.048-.003-.063c.193-.097.292-.262.466-.156.076.137-.063.278-.023.317-.014.028-.004.05.068.047.09.055.179.115.271.166l.025-.377c.187-.101.252.114.276-.3-.028.317.218.47.472.55.26.066.519.073.561.182a.518.518 0 0 1 .608-.143c-.048-.082-.035-.479.133-.415-.129.82.306.37.462.967-.14-.382.557-.117.312-.667.157.057.025.308.16.494a.683.683 0 0 1 .627-.102c.234.076.488.07.718-.02-.022-.107-.139-.248-.084-.428.125.154.256.306.393.456.078-.083-.11-.623.17-.324-.053-.077-.13-.196-.084-.249.48.042.954-.133 1.292-.476.186-.14.387-.26.599-.358a1.91 1.91 0 0 1 .828-.101c-.236-.074-.183-.148-.114-.217-.081.004-.175-.202-.281-.305.182.02.376.042.561.045-.236-.341.272-.32.015-.616l-.03.134c-.234-.421-.885-.557-1.278-.998.135.236-.066.171-.257.11-.19-.054-.353-.095-.2.269-.114-.061-.09-.175-.196-.264.12.233.097.322-.076.301l-.025-.058c-.246.26-.52.13-.913.161l.16.247c-.093 0-.15-.075-.216-.124.11.437.219-.075.366.393-.368-.482-.558.258-.877-.36-.114.037.152.305.034.343l-.092-.16.047.232c-.092-.008-.198-.211-.247-.358.024.011.037-.06.051-.079-.153-.163-.243.142-.296.088l.138.081c-.279.254-.692.09-.984.466l.033.136c-.251.275-.208-.142-.483-.03l.011-.034c-.06.134-.144.207-.22.18.081-.15-.098-.33.008-.494-.29.236-.145.197-.413.677l-.004-.23c-.1.19-.127.293-.29.316.162-.163-.01-.36.175-.582-.079-.28-.204-.168-.314-.107-.107.064-.2.104-.133-.26-.345.55.118.414.004.517.002.22-.26.41-.34.314-.1-.046.134-.806-.055-.89.018.013.04-.03.058-.018.002-.18-.246.129-.21-.15-.235.302-.096-.087-.361.322.082.005.159.015.24.014-.158.058-.565.47-.607.122.082-.073.173-.136.27-.185.03-.152-.152.02-.12-.137.29-.39.282.047.572-.207.061-.206-.374.183-.043-.234-.441.52-.121-.168-.533.15l.185-.225c-.045.023-.167.102-.197.07l.294-.251c-.291.18.015-.338-.163-.278.156.142-.205.298-.272.521-.488.077.396-.678.102-.773.05.003-.023.223-.169.274a.598.598 0 0 1 .135-.342c-.167-.109-.212.217-.403.267.231-.28-.177.013-.335.001l.239-.177c.02-.308-.545.3-.485-.027l.399-.144-.152-.038.3-.16c-.279.036-.25-.035-.215-.185-.172.124-.482.24-.546.136.123-.147.274-.086.163-.209.186-.043.412-.116.196.063.09-.037.182-.054.27-.092.15-.157-.045-.178-.065-.228a.12.12 0 0 1-.042.08 4.747 4.747 0 0 1-.46-.047.457.457 0 0 1 .277-.086c-.045-.028-.184-.01-.233-.064.192-.078.398-.116.605-.113a4.1 4.1 0 0 1-.322-.09c.097-.046.252-.18.344-.181.12-.128-.533-.126-.364-.319a.229.229 0 0 1-.133-.032c.025-.153.306-.291-.03-.433l.427-.11c-.108-.125-.537.15-.715-.07-.132-.167.372-.062.495-.116-.212-.069-.665-.246-.293-.368.074.055.005.088.038.135zm.237-1.702c.043.059.195.195.024.149-.299-.17-.136-.136-.024-.149zm1.28-2.65c.033.096-.031.082-.141.022.016-.041.057-.057.14-.022zm9.098.418h-.016c.047-.163.026-.103.016 0zm-.002.284a.154.154 0 0 0 .119-.04c-.077.015-.106-.034-.117-.101-.062.05-.096.102-.002.14zm-9.759 9.751l-.01-.09c.135-.031.074.025.01.09z"/><path d="M100.852 4.095a.282.282 0 0 1 .055-.089c-.017.03-.035.06-.055.089-.046.122.09.146.04.289-.104-.202-.054.34-.17.18-.007-.409.029-.33.13-.47zM97.207 5.12a1.032 1.032 0 0 1-.115-.114.208.208 0 0 0 .115.114zm-1.284 4.816h.05l-.053.005.003-.005zm6.535-5.305c-.03-.043-.013-.104.023-.167a.448.448 0 0 0-.023.167zm4.788 1.803c-.018-.05-.107.005-.174.024.036-.05.091-.095.056-.17l.118.146zm-1.645 1.524a.102.102 0 1 1 .183.048l-.138.009c-.038-.018-.007-.04-.045-.057zm.717-1.164c-.242.064-.144.134-.082.226-.003-.005-.004-.012-.003-.018.35-.031.217-.124.085-.208zm-.07.248c.019.027.026.06.022.092.14-.01.022-.043-.022-.092zm.353-1.514c-.04.075.31-.086.227-.018.317-.064-.491-.201-.227.018zm-1.077 1.51l.045-.095h.252l-.297.094zm.03-.761c.085-.033.066.082.077.176a.124.124 0 0 0-.111-.008 1.85 1.85 0 0 0 .034-.168zm.077.176c0 .049.033.091.08.103a.21.21 0 0 0-.08-.103zm-.24.414l.047-.16.004.104-.052.056zm-.53-2.059c-.066.08-.138.056-.221.071-.07-.02-.047-.093.047-.146l.175.075zm-.452.853l-.163.022.33-.196a.766.766 0 0 0-.167.174zm-.295-.29c-.094.047-.366.034-.242.145.094-.055.238.01.242-.146zm-1.34-1.761l.324-.546-.286.558-.037-.012zm2.107 9.985l-.022-.092.22.076-.198.016zm-.15-.515c.084.043.1-.025.109-.06l.212.303-.32-.243zM96.78 7.379l-.231-.045c.033-.028.05-.042.148-.005l.083.05zm-.66.938l-.349-.059.361.042-.011.017zm.356.933c.017-.034-.062-.074-.045-.109.063.073-.406.121.045.109z"/></g><g fill="#333" fill-rule="nonzero"><path d="M202.597 124.45l.012.03c-.045-.001-.036-.015-.012-.03a.863.863 0 0 1-.06-.228c.056.056.103.12.138.191a.347.347 0 0 0-.078.037zm-.07-.544c-.009.105-.005.211.01.316a.23.23 0 0 1-.06-.29c-.01-.044.013-.04.05-.026.007-.18.04-.356.096-.526-.006.16.039.32.128.453.003.191-.144.103-.224.073zm.681-.324a.77.77 0 0 0-.193-.275c.055.098.12.19.193.275.156.155.258.356.293.573-.094-.144-.254.146-.418.003a.53.53 0 0 0 .125-.576zm-4.13 8.74c-.093.079.128.215.152.26.087-.199-.206-.3-.152-.26zm.713-1.925l.008-.29.06.377-.068-.087zm.906-1.559c-.238.187-.266.742-.41 1.12l-.236-.306.112.004c.291-.21.062-.865.534-.818zm1.27-.524a1.07 1.07 0 0 0-.086.177.4.4 0 0 0-.057.023c.092-.46-.04-.206.143-.2zm.164-.728c.204-.093.319-.119.312.175-.042-.11-.137.114-.251.13l-.06-.305zm-.228-.34l.02.148c.048-.008.073-.038-.02-.149zm.06.469c-.048-.15-.15-.244-.033-.179-.221-.172-.086-.128-.007-.142l.04.32zm-.12.13c-.146.103-.274.252-.316-.042-.134.475.179.53.316.042zm-1.513.715c.13.05-.171.206-.143.308l-.057-.205.2-.103zm2.476-2.52c-.138-.016-.237.159-.321.242l-.062-.217c.12.009.296-.061.383-.025zm-.383.025l-.095-.318c-.073.247-.01.31.095.318zm-.97.985l.022-.085.156.635-.178-.55zm1.575-2.133l-.093-.147.286.35-.193-.203zm-.55.357c.01-.037.018-.074.024-.112l.274-.072a.373.373 0 0 1-.298.184zm.015-.109l.054-.245-.045.242-.01.003zm-.022.137l.007-.028c-.028.006-.038.011-.007.028zm-.568 1.115c-.103-.203-.186-.567-.474-.304.15.158.317.005.474.304zm.214-1.037l.111.353c-.053-.096-.164-.063-.234-.072l.123-.281zm-.051-.16l.096.054-.045.106-.051-.16zm.521-3.46v.033l-.046-.003.046-.03zm.317 1.083c-.057.073-.107.15-.15.232.085-.066.218-.207.15-.232zm-.229 1.57l.01.021c.061-.037.033-.034-.01-.02zm-1.811-2.935c.048-.093.177.004.245-.01l-.207-.288c.43-.15.668.453.946.267-.112.2-.33.151-.18.515.237.227.38-.325.504-.447.164.281.263.276.37.275-.43.3-1.222.509-1.422.259a.333.333 0 1 0-.256-.571zm1.69.892l.04.042-.007-.62c.082.009.175.043.308.249-.136.124-.24.28-.303.453l-.038-.124zm.039.685a2.195 2.195 0 0 1 0-.561c.058.196.106.394.144.594l-.004.003-.04-.008c-.029-.055-.04-.2-.099-.028a.392.392 0 0 0 .1.028c0 .003.002.01.005.012-.02.03 0 .021.034-.004h.004v-.002l.016-.014c-.051.098-.095.2-.13.305a1.214 1.214 0 0 0-.06-.321c-.163.42-.356-.332-.307.248-.109-.217-.315-.115-.324-.463.292-.179.398.108.66.21zm-1.656 2.639c.02-.062.04-.044.063-.003a.097.097 0 0 0-.063.003zm.203-.181c.222-.08.455-.127.69-.138-.028-.044-.415.176-.55.37l.026.045c-.178.21-.253-.01-.306-.1.087.014.11.135.21.044.055-.12-.042-.176-.07-.222zm.719-1.187c-.102-.045-.278-.007-.192-.261l-.14-.001.257-.214.075.476zm.856-2.634l-.13-.21.414.253-.284-.043zm-.109-.643l.073-.161.173.151-.246.01zm-23.122 1.413l.043.128a.347.347 0 0 0-.043-.128zm.251-.792l-.108-.057c.051.058.093.088.108.057zm12.09-11.004a.376.376 0 0 0-.358-.074l-.048-.269c-.01-.274.218.08.406.343zm-9.12 4.356l.031-.255.061.283-.092-.028zm.602.94l-.284.018a.755.755 0 0 0 .284-.018zm-3.703 10.919l.288.074c-.032-.192-.154-.083-.288-.074zm20.278-11.865a1.167 1.167 0 0 0-.174-.466c.03.278-.035.562.174.466zm-23.05 6.365c.02.097.062.147.12.16-.017-.097-.051-.16-.12-.16zm22.498-7.224a.367.367 0 0 1 .378.393.813.813 0 0 0-.352-.28c-.008-.039-.021-.07-.026-.113zm-7.686 19.636c.016.004.03.01.045.017-.008-.035-.024-.031-.045-.017zm5.917-.403a1.217 1.217 0 0 1-.17.174c.045-.015.1-.064.17-.174zm3.728-13.979a.194.194 0 0 0-.138-.011.241.241 0 0 1 .138.011zm-4.045-4.906l-.007-.007c-.005.062-.004.05.007.007zm4.8 4.193a.743.743 0 0 1 .012-.194c.005.065 0 .13-.012.194zm.11-.068l.018.124c.048.002.07-.022-.019-.124zm-.154-.347l.083.178c-.011-.003-.021.012-.028.044a.716.716 0 0 0-.055-.222zm-19.038 15.225l.007.034c.155-.034.104-.045-.007-.034zm5.76-19.972l-.008-.022.018.007c-.004.004-.006.011-.01.015zm-.347.257c.015-.34.039-.675.07-1.015l.27.736c-.137-.049-.245-.075-.34.279z"/><path d="M179.253 124.425c.081-.087.168-.169.26-.246.359.347.238.547.575.334-.865-.096.03-.977-.804-1.138.064-.05.13-.099.203-.145-.018.048.025.063.012.111.463-.259-.541-.358-.326-.788.096-.143.237-.22.31-.09a3.185 3.185 0 0 1-.11-.393.073.073 0 0 1 .06-.047.076.076 0 0 1 .07.033.074.074 0 0 1 .003.076l.099-.53.022.011a2.488 2.488 0 0 1-.295-.463c.155-.093.062.098.171.098-.037-.12-.052-.235-.078-.355.256-.033.338.268.25.453.87.03-.103-.308.576-.675l-.009.294c.51.025.42-.24.817-.378-.178-.02-.916.247-.989-.131.095-.058.16-.156.097-.383.268.13.282-.05.367-.244l.342.198c.004-.249-.18-.331-.271-.538.15-.211.452-.09.7-.005.274-.297-.57-.024-.368-.463.325-.196.285-.5.368-.962.26-.106.166.18.31.18l-.115-.359c.04-.036.104.037.137.074.018-.218-.3-.256-.199-.553-.14-.168.071-.194.31-.23.243-.033.495-.086.442-.387.141.015.144.2.272.286.087-.345.129-.7.125-1.056l.436-.034c-.387-.057-.372-.532-.318-.958a2.876 2.876 0 0 0-.389-.098c.084-.16.16-.333.254-.486.09.015.13.153.166.33.007-.046.014-.09.016-.128.233.012.294.248.33.492l-.285-.082c.038.257.146.5.312.701a.306.306 0 0 1 .047-.18.249.249 0 0 0 .075.148c.038.022.019-.076.013-.204l.353.282-.087-.152.639-.117a2.793 2.793 0 0 1 .608-1.875c-.002.373.217.482.389.823-.357-.26-.369.415-.705.514a.18.18 0 0 1 .17.035c.048.04.072.1.065.162l.343-.625c.14.28.226.138.423.173-.399-.494.23-.559.384-.84.099.183.131.401-.166.484.496.284.097-.85.571-.625-.07.028-.118.022-.105.13.091-.246.564-.246.526-.046l-.069.03c.31-.077.611-.19.895-.338.296-.151.53-.365.51-.63.038.245.063.493.074.742.146-.65.341-1.286.584-1.905-.006.456.449 1.468.087 1.783.168.082.371.04.494-.1-.083-.051-.286-.612-.179-.67.368.444.252.231.66.63-.128-.088-.054-.799.153-.79a5.1 5.1 0 0 1-.007.772c.14-.24.29-.481.45-.723-.12.135-.005.584.099.78-.05-.137.398.028.522-.037l-.193-.167c.517.128.586-.977 1.16-.856-.09.132-.262.853-.01.974.152-.338.82-1.627 1.444-1.741l.054.22.471-.123-1.72 1.764c.166.189.018.23.3.274.058.21-.203.241-.287.251.208.065.402.176.6.258.065-.407.591-.295.665-.618-.28.068-.556.16-.817.241.043-.401.697-1.068 1.184-.824.07.2-.316.67-.343.806.098-.116.518-.105.526.004l-.266.141c.183.241.62-.39.757.127.093.074.068.623.19.41a5.695 5.695 0 0 1 .896-2.107c.205.298.35.633.427.986-.017.425-.688.612-.698.979a.547.547 0 0 1 .277-.178c.053.148-.218.278.026.369.255-.335.432.308.29-.237.285.04.195.208.45.368.076-.285.76-.576 1.07-.487a.61.61 0 0 0-.134.289c.44.365.487.758.864 1.108-.033.1.035.366-.168.41.1.005.25-.037.356.078-.088.466-.26-.23-.446.231.194-.146.504.086.767.167.256-.282-.278-.453-.528-.52a1.416 1.416 0 0 1 1.63-.065c.375.318-.16.363-.053.388.384.773 1.213.149 1.225 1.015-.162.414-.583.308-.767.475-.278-.263-.057-.607-.217-.81.015.113.023.227.025.341-.146-.052-.358-.204-.345-.367-.06.175.121.47.278.839.085.18.177.372.25.56.057.18.085.37.081.56.143.062.322.208.414.076l-.116-.175c.18-.277.486.238.508-.054a3.5 3.5 0 0 1 .443.341.695.695 0 0 1 .185.532l-.345.172a.258.258 0 0 0 .097-.195.258.258 0 0 0-.089-.199c.207.125-.335.722.192.781l.181-.337c.271.231.735.524.673.924.34-.235-.055-.076.33-.427-.252.17-.275-.076-.327-.297-.056-.222-.11-.422-.34-.173.42-.392.086-.513.401-.998-.12.05-.182.196-.231-.132a.59.59 0 0 1-.13-.033l.002-.023-.008.021c-.022-.007-.027-.007-.002.008a.404.404 0 0 1-.123.214c-.327-.06-.495-.527-.692-.628-.012-.194.16.02.247-.125l-.295-.15c.258-.132.205-.645.55-.3-.049-.128-.112-.25-.169-.376a.835.835 0 0 0-.267-.749c-.034-.21-.525-.264-.242-.235l-.496-.45.054-.044a2.66 2.66 0 0 0-.704-.695 1.552 1.552 0 0 1-.541-.918c-.253-.1-.47-.276-.622-.501l.111-.226c-.249-.133-.504-.716-.75-.6.166-.731-1.058-.897-1.419-1.243l-.166.264a3.003 3.003 0 0 0-1.052-.285l-.087.264c-.392.052-.76-.493-1.3-.66.067-.089.194-.016.268.078-.216-.42-.61-.378-.971-.33-.366.044-.708.132-.971-.122a.287.287 0 0 1-.358-.05.072.072 0 0 0 .038-.01.253.253 0 0 0-.06-.011c-.06-.056-.122-.12-.192-.173a.776.776 0 0 0 .159.17 1.272 1.272 0 0 0-.467.054l-.05-.298-.04.007c-.165-.116-.145.135-.07.36a.816.816 0 0 0-.232.171c-.116-.482-.438.147-.616-.369-.115.224-.847.23-.893.751-.01-.067-.06-.097.027-.107-.184-.047-.374-.096-.52.064l-.12-.362-.324.564c-.268-.19-.398-.304-.201-.63-.505.54-.454.226-.832.783l-.033-.243c-.171.053-.356.438-.51.27-.255-.188-.727-.044-1.264.142-.274.082-.55.205-.831.305-.274.098-.56.163-.85.192.513.532-.57-.042-.333.465-.136-.118-.31-.127-.24-.339-.373.402-.842.184-.871.791-.147-.104-.05-.27-.15-.322-.016.056-.055.22-.159.17-.104-.05-.019-.162.01-.273-.44.348-.166.797.101 1.209-.36-.038-.435.093-.374.46-.17-.066-.399-.092-.187-.35-.148.102-1.023.558-.748.87-.11-.032-.198.162-.199.228a3.88 3.88 0 0 0-.602.593l.125-.037c.241.424-.137.315-.295.602l-.032-.038c-.724.367-.077.333-.821.689l.263.138c.487.416-.66.318-.694.812l.227-.039c.054.287-1.065.118-1.26.305-.074.021-.038-.116-.039-.202-.635.393.301.258.161.71-.228-.015-.42-.338-.608-.068-.236.083.251 1.128-.287 1.373.188-.033.373-.06.404.18-.046.319-.855.67-.458 1.1a.201.201 0 0 1-.14.024c.063.281.03.858.268 1.054-.262.006-.386.113-.433.266-.022.181-.006.366.048.54.089.376.194.706-.275.67l.025.785-.096-.022c-.087.34.08.692.398.84-.056.117-.15.039-.2.031-.142.735-.107.833.462 1.351l-.291.111c.105.067.017.346-.006.695-.04.379.063.759.291 1.064a.198.198 0 0 1-.151-.036c.237.395.351.851.327 1.311.081.438.238.791.795.66.158.119.324.227.496.324-.274-.613.464-.158.482-.483.19.171.071.725-.149.492l.02-.071c-.558.204.279.806-.052 1.019a14.181 14.181 0 0 0 2.66 3l.13-.45.36.255c.04.149-.054.382-.32.194.008.306.576.105.63.023.44.485-.477.324-.321.432l.246.112-.025-.077c.276-.046.38-.203.716-.023.178.186-.01.303.07.36-.015.03.009.057.13.077.168.092.334.193.508.276-.03-.132-.05-.281-.07-.42.29-.047.48.2.39-.25.056.345.53.585 1.01.734.368.044.727.146 1.063.301a1.512 1.512 0 0 1 1.125-.074c-.097-.09-.114-.485.224-.405-.19.818.62.38.914.981-.263-.371 1.044-.134.604-.677.3.048.034.308.277.487a1.43 1.43 0 0 1 .562-.144c.204-.025.41-.032.617-.023.214.004.439.02.663.005.224-.023.444-.074.655-.153-.015-.108-.2-.23-.058-.434.197.136.4.27.608.401.157-.11-.037-.649.385-.4-.073-.07-.18-.178-.081-.25a3.083 3.083 0 0 0 1.279-.33 6.84 6.84 0 0 0 1.151-.667c.185-.123.372-.242.564-.353a6.33 6.33 0 0 1 .567-.348c.202-.109.413-.2.63-.273.224-.094.457-.166.694-.217-.321 0-.21-.123-.077-.248-.123.04-.174-.204-.288-.299.268-.059.557-.106.823-.188-.192-.387.532-.59.3-.912l-.108.213c-.13-.527-1.027-.408-1.406-.865.079.295-.196.312-.482.328-.282.024-.548.072-.498.524-.159-.022-.05-.208-.181-.276.07.28-.017.422-.317.488l-.012-.069a2.287 2.287 0 0 1-.836.471c-.29.08-.598.145-1.007.28l.193.23a.569.569 0 0 1-.374-.05c.002.489.483-.2.532.315-.493-.423-1.222.575-1.635-.026-.265.091.196.288-.073.38l-.132-.146.01.247c-.191.027-.348-.158-.4-.304.047.003.104-.084.144-.112-.278-.11-.612.246-.71.207l.287.042a3.73 3.73 0 0 1-1.174.337c-.207.034-.41.087-.609.14a1.966 1.966 0 0 0-.573.215l.064.134c-.573.298-.466-.13-1.095-.028l.024-.032a.536.536 0 0 1-.483.166c.17-.14-.265-.352-.042-.501-.636.19-.317.174-.814.624l-.057-.237c-.177.173-.21.274-.545.256.302-.13-.12-.386.222-.571a.663.663 0 0 0-.736-.215c-.213.027-.39.038-.403-.354-.505.493.422.52.217.592.078.246-.392.362-.581.229-.103-.044-.12-.264-.169-.49a.72.72 0 0 0-.347-.597c.046.024.07-.017.114.007-.098-.229-.446.04-.529-.307-.3.262-.247-.18-.532.217.16.052.313.115.476.155-.294-.017-.822.314-1.083-.167.124-.063.259-.1.397-.108-.034-.191-.276-.054-.308-.254.307-.376.564.223.996.057-.008-.248-.642.018-.24-.355-.266.231-.366.144-.465.036-.1-.112-.179-.267-.475-.17l.196-.217c-.07.004-.245.042-.321-.027l.378-.185c-.42.079-.238-.527-.523-.583.393.37-.155.353-.116.666-.783-.2.223-.835-.388-1.253.085.054.139.386-.078.372a.749.749 0 0 1-.032-.531c-.357-.342-.183.252-.454.203.166-.36-.27-.101-.512-.215l.238-.178c-.175-.589-.596.226-.706-.36l.47-.033-.24-.173.317-.133c-.374-.11-.377-.225-.415-.53-.155.16-.493.22-.625-.02.076-.239.3-.033.091-.348.21 0 .459-.025.285.237.094-.028.203-.011.296-.04.102-.257-.175-.426-.223-.549a.286.286 0 0 1-.007.156c-.2-.1-.38-.218-.575-.336.074-.12.182-.088.287-.059-.068-.088-.222-.11-.304-.251.242-.042.476-.131.658.027-.139-.118-.287-.239-.426-.368.092-.065.213-.327.314-.291.084-.288-.65-.513-.507-.923a.231.231 0 0 1-.146-.111c0-.176.06-.348.07-.518a.588.588 0 0 0-.17-.54l.417-.249c-.12-.313-.525.338-.722-.2-.125-.39.375-.145.5-.277-.204-.18-.666-.552-.268-.879.065.124-.01.209.023.32zm.81-3.964c.025.1.142.32-.042.305-.279-.217-.1-.22.042-.305zm3.516-5.38c.007.117-.1.133-.258.107a.29.29 0 0 1 .258-.106zm17.674 2.075l-.018-.003c0-.255-.003-.162.018.003zm.093.472c.043.023.097.01.124-.03-.083.002-.134-.09-.17-.205-.054.064-.076.14.046.235zm-18.196 18.265l-.047-.108c.218.009.135.055.047.108z"/><path d="M191.51 113.361a.322.322 0 0 1 .115-.08.762.762 0 0 1-.115.08c-.092.117.232.166.137.303-.28-.224-.08.333-.391.155-.063-.408.036-.337.254-.458zm-8.272 2.492a.11.11 0 0 1-.129-.102c.037.041.08.075.13.102zm-3.687 11.014l.053.014a.253.253 0 0 1-.055-.002c.001-.004 0-.008.002-.012zm15.762-12.275a.153.153 0 0 1-.069-.096.155.155 0 0 1 .02-.115.386.386 0 0 0 .049.21zm7.32 5.227c-.03-.092-.113-.012-.179.011a.343.343 0 0 0 .025-.288l.153.277zm-1.491 2.682c.047-.171.166-.062.186.105l-.138.013c-.04-.037-.01-.08-.048-.118zm.594-2.201c-.241.074-.13.227-.052.413a.097.097 0 0 1-.006-.034c.355-.004.205-.196.058-.38zm-.036.457a.467.467 0 0 1 .035.178c.143 0 .017-.078-.035-.178zm.03-2.652c-.025.117.319-.06.245.032.335-.017-.598-.48-.246-.032zm-.776 2.514l.03-.18.261.053-.291.127zm-.165-1.48c.084-.036.105.173.136.357-.035-.039-.074-.066-.122-.047a2.145 2.145 0 0 0-.014-.31zm.136.357a.72.72 0 0 1 .112.221.325.325 0 0 1-.112-.22zm-.15.75l.009-.305.031.207-.04.099zm-1.419-4.014c-.051.099-.161.028-.27.012-.11-.068-.114-.176-.01-.215l.28.203zm-.181 1.27l-.205-.043.332-.192c-.061.093-.117.133-.127.235zm-.557-.694c-.102.033-.516-.15-.26.122.106-.043.338.163.26-.122zm-3.213-3.358l.355-.53-.28.56-.075-.03zm3.099 19.494l.009-.125.276.018-.285.107zm.017-.69c.099.028.154-.08.182-.134l.16.356-.342-.221zm-17.471-11.971l-.278.041c.061-.08.092-.119.2-.1l.078.059zm-1.242 2.533l-.355-.034.373-.012-.018.046zm.199 2.35c.019-.092-.058-.201-.04-.294.059.2-.412.322.04.294zM78 115c-16 22-37.444 38.658-64.332 49.973 8.888 1.351 28.438 4.874 58.65 10.57.264-20.314 4.066-46.047 5.682-60.543zm52.17 100.617a151.887 151.887 0 0 1 7.47 17.84c1.549 4.172 3.045 8.996 4.418 14.106 1.378 5.109 2.54 10.525 3.515 15.862.35 1.775.61 3.567.78 5.368.05.52.096 1.008.178 1.7.07.692.173 1.588.35 2.922 1.107 8.123 1.61 14.53 1.968 21.239.342 6.71.51 13.73.394 23.127-.276 9.429-.792 16.516-1.335 23.44-.573 6.923-1.206 13.686-2.288 22.426a316.855 316.855 0 0 1-2.072 13.394 1009.67 1009.67 0 0 1-2.433 13.332 968.063 968.063 0 0 1-4.644 23.75c-2.274 8.765-5.443 20.2-8.001 27.365l-.142.426-.138-.793c4.116 5.361 5.78 7.248 9.263 11.713l.84 1.096 1.203 1.569-1.962-.02c-4.874-.048-6.538-.223-12.014-.246-5.232.006-7.766.141-12.065.192-14.823.018-31.725-.019-47.134.092l-1.106.008.112-1.114.743-7.37c2.613-22.867 5.634-52.138 8.68-79.328.462-4.549 1.153-10.55 1.378-13.605l1.114-9.04.553-4.633.275-2.338.203-2.31a50.549 50.549 0 0 0-.2-9.327 53.388 53.388 0 0 0-1.946-9.136 52.501 52.501 0 0 0-3.56-8.5 50.045 50.045 0 0 0-4.883-7.505 55.12 55.12 0 0 0-5.825-6.29c-1.03-1.004-2.042-1.99-3.037-2.962-.985-.98-1.87-2.02-2.783-2.997a109.374 109.374 0 0 1-9.084-12.475c-.626-.972-1.117-1.911-1.587-2.775l-1.3-2.422c-.749-1.537-1.363-2.901-1.971-4.216-.583-1.326-1.085-2.638-1.674-4.044-.592-1.405-1.118-2.969-1.828-4.77-.409-1.01-.73-2.009-1.07-2.941-.322-.94-.66-1.813-.902-2.642-.504-1.652-.912-3.026-1.161-4a144.67 144.67 0 0 1-3.972-15.032 207.703 207.703 0 0 1-2.775-22.947c-.534-7.511-.48-15.052.164-22.554.094.125.621.248.621.748s.009 5.205 0 7.5c-.043 4.358.233 12.418.5 15.5.32 6.149 1.974 8.665 2.5 12.5.3 1.913-1.329 2.613-1 4.377.155.884.31 1.767.466 2.668l.536 2.765c.516 2.575.983 4.139 1.32 5.352.375 1.205.699 2.042 1.062 3.14 1.207 4.716 3.036 10.592 4.073 12.92.227.639.432 1.247.648 1.814l.641 1.594 1.091 2.641c.709 1.507 1.246 2.583 1.659 3.346.413.934.753 1.583 1.012 2.124l.663 1.407.73 1.527c.312.615.753 1.363 1.351 2.405a108.279 108.279 0 0 0 6.923 10.452l1.948 2.425.902 1.113.896.974c1.142 1.232 2.058 2.195 2.616 2.693.644.706 1.663 1.759 2.887 3.001 1.213 1.257 2.765 2.694 4.137 4.313a58.31 58.31 0 0 1 7.126 9.959 52.085 52.085 0 0 1 4.837 12.906l.475 2.208c.13.628.204 1.162.295 1.62.16.917.329 1.54.41 2.115.311 1.522.489 3.068.531 4.62a73.45 73.45 0 0 1-.724 10.706l-1.146 10.07-2.143 19.254c-1.388 12.567-2.733 24.76-4.247 37.561-1.395 13.814-2.52 22.946-3.768 35.557l-1.176 10.525-1.21-1.348c8.645.038 17.74.096 23.398-.01 12.31.25 29.896.162 45.884.042l1.931.022-.918 1.874c-3.085-4.047-6.411-8.288-10.014-12.88l-.372-.474.187-.59c1.16-3.661 2.292-7.62 3.448-11.772a516.457 516.457 0 0 0 6.065-24.123c1.89-8.365 3.518-16.675 4.688-23.746.867-4.786 1.783-10.955 2.232-13.279 3.107-23.057 5.281-48.36 4.161-72.6.067-.654-.014-2.479-.092-4.471-.079-1.993-.24-4.147-.273-5.468-.26-3.492-.469-5.508-.721-7.332l-.828-6.212c.103-.76-.182-3.48-.64-6.903a213.048 213.048 0 0 0-1.904-11.08c-1.286-5.837-2.453-10.249-3.663-14.26-1.176-4.02-2.467-7.621-4.126-11.794-.782-1.967-1.232-3.187-1.537-4.08a81.306 81.306 0 0 1-.724-2.096c-.364-.745-.802-1.77-1.353-2.943-.555-1.172-.984-.724-1.65-2.13-.706-1.384-4.272-7.57-5-9-.779-1.4 0-1 .376-1.09.326-.083 2.664 3.52 5.294 8.708z"/><path d="M65.583 299.709c-.19 1.574-.547 3.759-1.078 6.247-1.045 4.98-2.701 11.184-4.118 16.415-1.904 7.541-4.65 17.01-7.381 26.08-1.63 5.361-1.415 3.848-2.83 8.334-4.23 13.686-6.848 21.364-11.931 36.98-5.412 15.57-8.11 23.475-13.01 38.072-.837 2.4-1.577 4.472-2.27 6.376l-.06-.833c2.56 4.975 4.52 8.918 7.757 15.052l.422.784.724 1.344-1.549.017c-7.966.084-14.366.252-20.29.446-7.921-.189-18.306-.268-24.942-.515-6.207-.058-8.393.105-13.48.11-5.24-.026-6.496-.232-11.733-.257l-.796.003-.854.003.147-.846c.699-4.014.96-6.166 1.534-9.632 2.63-14.802 5.765-32 8.254-46.968 3.657-19.821 8.016-45.22 12.304-68.794.67-3.947 1.635-9.15 2-11.807 4.055-20.453 8.3-44.743 11.243-62.963.958-4.59 1.47-7.873 2.392-13.132 1.5-7.854 2.298-10.439 3.634-17.057.686-3.729.41-5.463.828-7.168.525-3.67 1.802-10.598 2.5-15 2.5-12.5 5-27 7.9-39.064.122.155.6.064.6.564 0 .5-2.976 16.336-3.5 20C6.033 193.107 5 198 4 205c-.378 2.646-1.332 8.921-1.5 11.5-.758 4.212-.933 2.646-1.22 4.867-.898 4.689-1.32 7.365-1.47 8.888-.615 3.548-.694 3.057-1.392 7.234-.942 5.991-2.986 16.65-3.14 19.306-.387 1.65-1.01 5.083-1.659 8.693a334.42 334.42 0 0 0-1.67 10.414l-2.126 11.673c-1.107 5.907-.55 4.774-1.28 9.088-4.686 24.785-8.095 44.888-12.292 67.074-2.026 11.99-3.567 19.899-5.393 30.846-1.644 9.303-4.156 22.273-5.253 29.259-1.66 8.166-3.608 19.09-5.492 30l-1.095-1.305 9.626-.073c7.971.126 16.732-.002 26.805.004l34.81.087-.969 1.599-3.905-7.364c-1.437-2.772-3.199-6.101-4.372-8.42l-.222-.44.16-.43c.338-.91.626-1.66.842-2.175 6.544-19.354 13.992-40.281 20.661-60.508.517-1.034 2.14-6.051 2.96-8.22 1.98-5.825 2.083-6.803 3.574-11.431.757-1.125 3.314-9.018 5.313-15.043 3.018-10.039 4.68-15.304 6.548-22.963a53.115 53.115 0 0 1 1.703-5.513c.589-2.839 2.378-9.548 3.02-14.542.17.062.155 1.022.011 2.604z"/></g></g></svg>