<svg xmlns="http://www.w3.org/2000/svg" width="126" height="40" viewBox="0 0 126 40"><g fill="none" fill-rule="evenodd"><path fill="#5C11A6" d="M8.238 16.192a12.678 12.678 0 0 1 6.444-1.748h.058c2.394 0 4.633.66 6.546 1.809L24.991 2.1A2.533 2.533 0 0 1 27.796.233a2.364 2.364 0 0 1 2.023 2.562l-2.342 24.912-.011.002c-.277 6.79-5.869 12.209-12.726 12.209h-.058c-6.858 0-12.45-5.42-12.726-12.21a6.5 6.5 0 0 1-.011-.001L.198 4.273a2.41 2.41 0 0 1 2.066-2.566 2.512 2.512 0 0 1 2.787 1.872l3.187 12.613z"/><ellipse cx="14.681" cy="26.737" fill="#FFC346" rx="10.213" ry="10.105"/><ellipse cx="14.681" cy="26.737" fill="#FFAD00" rx="7.66" ry="7.579"/><path fill="#5C11A6" d="M14.68 13.742a4.094 4.094 0 0 1 4.124-3.32 3.363 3.363 0 0 1 3.179 4.172l-1.378 5.542a3.428 3.428 0 0 1-3.327 2.6 2.678 2.678 0 0 1-2.597-2.025 2.678 2.678 0 0 1-2.597 2.026 3.428 3.428 0 0 1-3.327-2.601l-1.378-5.542a3.362 3.362 0 0 1 3.179-4.173 4.094 4.094 0 0 1 4.123 3.321zm1.827 13.897a2.8 2.8 0 0 1 3.32-1.246c4.87 1.651 7.056.994 6.556-1.972-.007-.044.555 2.178.213 4.632-.383 2.748-1.734 5.771-2.979 5.894-1.196.119-3.35-1.11-6.464-3.687a2.846 2.846 0 0 1-.646-3.621z"/><path d="M118.905 20.087c-3.255.374-6.08 3.335-5.728 7.077.319 3.384 3.258 6.23 7.056 5.791 3.21-.371 6.098-3.36 5.708-7.087-.213-2.03-1.137-3.34-2.163-4.256-1.077-.961-2.871-1.756-4.873-1.525m.312 2.463c2.258-.241 4.083 1.593 4.277 3.61.218 2.274-1.548 4.15-3.557 4.332-2.287.208-4.137-1.545-4.314-3.615-.2-2.346 1.54-4.108 3.594-4.327m-12.389-.932c-.034-.545.273-1.494-1.54-1.317-1.044.102-.992.893-.992 1.853v8.513c0 .927-.122 1.848.776 2.054.994.228 1.717-.135 1.746-1.061.052-1.628 0-3.966 0-5.678 0-.914.116-1.662.552-2.313.348-.518.91-.96 1.657-1.2 2.163-.694 2.793.823 3.372-.181.152-.265.336-.744.322-1.125-.033-.87-.915-1.011-1.756-1.106-2.658-.299-3.794 1.353-4.137 1.56M95.01 32.94c3.693.496 7.126-2.553 7.133-6.513.005-2.978-1.397-4.887-3.295-5.879-1.59-.83-3.835-.973-5.463.004-.694.416-1.159.943-1.317 1.026-.07-1.498.105-7.25-.066-7.84-.184-.637-.813-.823-1.577-.69-.753.13-.833.711-.832 1.518v15.04c0 1.837-.393 3.325 1.549 3.105.783-.09.896-.624.925-1.394.358.178.994 1.362 2.943 1.623zm.496-10.536c2.382-.18 4.07 1.36 4.232 3.617.17 2.366-1.467 4.206-3.485 4.431-2.26.253-4.043-1.538-4.25-3.62-.242-2.441 1.368-4.268 3.503-4.428M77.53 14.507c.001-1.095-.247-1.542-1.37-1.505-1.063.035-1.147.64-1.147 1.642v15.505c0 1.367-.327 2.9 1.64 2.6.423-.064.666-.269.79-.617.388-1.084-.428-5.948.584-7.928.606-1.184 1.902-1.985 3.75-1.761 1.619.196 2.662 1.186 2.725 2.92.069 1.867.031 3.78.03 5.651 0 .964.029 1.692 1.02 1.754 1.072.068 1.441-.329 1.441-1.39 0-1.88.022-3.77.011-5.649-.02-3.546-1.892-5.7-5.45-5.842-.944-.037-1.617.089-2.38.423-.916.401-1.454 1.093-1.643 1.166-.047-2.706-.007-4.214-.002-6.969zm-9.982 5.57c-3.32.495-4.04 3.577-2.952 5.146.57.823 1.737 1.218 2.842 1.687.99.42 2.499.834 2.653 1.854.282 1.862-2.668 2.615-4.035.949-.32-.39-.631-.947-1.457-.756-1.694.392-.847 1.848-.123 2.578.687.694 1.633 1.355 3.1 1.45 4.994.325 6.601-4.826 3.555-6.909-.778-.532-2.128-1.073-3.057-1.481-.473-.208-1.263-.471-1.325-.928-.147-1.075 1.77-1.798 2.78-.777.326.329.712.965 1.464.683.477-.178 1.115-.577.995-1.227-.081-.445-.75-1.137-.954-1.296-.867-.678-1.923-1.206-3.486-.973M58.855 31.54c.003.701-.142 1.244 1.297 1.195.895-.03 1.121-.47 1.12-1.37-.002-3.213.047-6.688 0-9.861-.012-.861-.391-1.223-1.254-1.21-.907.015-1.147.451-1.165 1.336-.19-.093-.429-.53-1.253-.99-.48-.268-1.065-.455-1.707-.552a6.328 6.328 0 0 0-3.77.624c-1.768.896-3.431 2.845-3.476 5.678-.045 2.862 1.611 4.916 3.328 5.832 1.76.94 4.453 1.196 6.233-.184.141-.11.514-.464.647-.498m-4.371-8.985c2.102-.348 4.095 1.136 4.34 3.43.266 2.488-1.176 4.29-3.355 4.488-2.32.212-4.083-1.45-4.344-3.483-.272-2.11 1.165-4.072 3.359-4.435M36 26.183v.751c.158.442-.018 1.539 1.073 3.222a6.199 6.199 0 0 0 2.288 2.075c3.827 2.017 7.698-.503 7.966-1.472.174-.63-.512-1.21-.778-1.402-1.02-.732-1.317.51-2.977.996-2.61.766-4.804-1.203-5.041-3.39-.268-2.469 1.78-4.625 4.228-4.417 1.78.15 2.397 1.29 3.248 1.078.368-.092.936-.727 1.047-1.11.2-.69-.453-1.124-.8-1.373-.85-.613-1.964-1.005-3.298-1.077-2.487-.135-4.54.99-5.85 2.892-1.09 1.58-.928 2.675-1.106 3.227" fill="#333"/></g></svg>