<svg xmlns="http://www.w3.org/2000/svg" width="72" height="64" viewBox="0 0 72 64"><g fill="none" fill-rule="evenodd"><g transform="translate(21)"><path fill="#5C11A6" d="M8.238 16.192a12.674 12.674 0 0 1 6.444-1.748h.058c2.394 0 4.633.66 6.546 1.809L24.991 2.1A2.532 2.532 0 0 1 27.796.233a2.365 2.365 0 0 1 2.023 2.562l-2.342 24.912-.011.002c-.277 6.79-5.869 12.209-12.726 12.209h-.058c-6.858 0-12.45-5.42-12.726-12.21l-.011-.001L.198 4.273a2.41 2.41 0 0 1 2.066-2.566 2.513 2.513 0 0 1 2.787 1.872l3.187 12.613z"/><ellipse cx="14.681" cy="26.737" fill="#FFC346" rx="10.213" ry="10.105"/><ellipse cx="14.681" cy="26.737" fill="#FFAD00" rx="7.66" ry="7.579"/><path fill="#5C11A6" d="M14.68 13.742a4.095 4.095 0 0 1 4.027-3.322l.097.001a3.363 3.363 0 0 1 3.179 4.173l-1.378 5.542a3.427 3.427 0 0 1-3.327 2.6 2.677 2.677 0 0 1-2.597-2.025 2.679 2.679 0 0 1-2.594 2.026h-.003a3.428 3.428 0 0 1-3.327-2.601l-1.378-5.542a3.363 3.363 0 0 1 3.179-4.173 4.094 4.094 0 0 1 4.123 3.321zm1.827 13.897a2.8 2.8 0 0 1 3.32-1.246c4.87 1.651 7.056.994 6.556-1.972-.007-.044.555 2.178.213 4.632-.383 2.748-1.734 5.771-2.979 5.894-1.196.119-3.35-1.11-6.464-3.687a2.845 2.845 0 0 1-.646-3.621z"/></g><path d="M66.324 53.67c-2.604.299-4.864 2.668-4.582 5.662.255 2.706 2.606 4.984 5.645 4.632 2.567-.297 4.878-2.688 4.566-5.67-.17-1.624-.91-2.672-1.73-3.404a5.1 5.1 0 0 0-3.899-1.22m.25 1.97c1.806-.193 3.266 1.274 3.421 2.887.175 1.82-1.238 3.32-2.845 3.467-1.83.166-3.31-1.236-3.452-2.892-.16-1.877 1.232-3.287 2.876-3.462m-9.911-.746c-.028-.435.217-1.195-1.233-1.053-.835.082-.793.714-.793 1.482v6.81c0 .742-.098 1.48.62 1.644.796.182 1.374-.108 1.398-.85.04-1.302 0-3.172 0-4.541 0-.732.092-1.33.441-1.85.278-.415.728-.769 1.326-.96 1.73-.556 2.234.658 2.697-.146.122-.212.269-.595.257-.9-.026-.696-.73-.808-1.404-.884-2.126-.24-3.035 1.082-3.31 1.248m-9.454 9.058c2.955.396 5.701-2.043 5.706-5.21.004-2.383-1.117-3.91-2.636-4.704-1.271-.664-3.067-.778-4.37.004-.555.332-.927.754-1.053.82-.056-1.198.083-5.8-.053-6.272-.148-.51-.65-.658-1.262-.552-.602.104-.667.57-.666 1.215v12.032c0 1.47-.314 2.66 1.24 2.483.626-.07.716-.498.74-1.114.286.142.795 1.09 2.354 1.298zm.397-8.43c1.905-.142 3.256 1.088 3.386 2.895.136 1.893-1.174 3.364-2.788 3.545-1.808.202-3.235-1.23-3.4-2.897-.194-1.953 1.094-3.414 2.802-3.542m-14.382-6.317c.002-.877-.196-1.234-1.095-1.204-.85.028-.918.512-.917 1.313V61.72c0 1.094-.262 2.32 1.312 2.08.338-.05.532-.215.632-.493.31-.868-.343-4.76.467-6.343.485-.947 1.52-1.588 3-1.409 1.295.158 2.13.949 2.18 2.336.054 1.494.024 3.024.024 4.521 0 .772.023 1.354.816 1.404.857.054 1.153-.264 1.153-1.112 0-1.504.017-3.017.008-4.52-.016-2.837-1.513-4.56-4.36-4.673-.755-.03-1.294.07-1.904.338-.733.32-1.163.874-1.314.933-.038-2.165-.005-3.371-.002-5.575zm-7.985 4.456c-2.655.396-3.232 2.861-2.361 4.116.456.659 1.389.975 2.273 1.35.793.335 2 .667 2.123 1.483.226 1.49-2.135 2.092-3.228.76-.257-.313-.505-.759-1.166-.606-1.355.314-.678 1.479-.098 2.063.55.555 1.307 1.084 2.48 1.16 3.995.26 5.28-3.861 2.844-5.527-.623-.426-1.703-.859-2.446-1.185-.378-.167-1.01-.377-1.06-.742-.117-.86 1.416-1.439 2.225-.622.26.263.569.772 1.17.547.382-.143.892-.462.797-.982-.066-.357-.6-.91-.764-1.037-.694-.542-1.538-.965-2.789-.778m-6.954 9.17c.002.56-.113.995 1.038.956.715-.024.897-.377.896-1.096-.002-2.57.037-5.35 0-7.889-.01-.689-.314-.978-1.004-.967-.725.011-.917.36-.931 1.068-.153-.074-.344-.424-1.003-.792a4.08 4.08 0 0 0-1.366-.442 5.057 5.057 0 0 0-3.016.5c-1.414.716-2.744 2.276-2.78 4.542-.036 2.29 1.289 3.933 2.662 4.666 1.409.751 3.562.956 4.986-.148.114-.087.412-.37.518-.398m-3.497-7.188c1.682-.278 3.276.91 3.472 2.744.213 1.99-.94 3.432-2.684 3.59-1.855.17-3.266-1.16-3.475-2.786-.217-1.688.932-3.258 2.687-3.548M0 58.546v.601c.126.354-.014 1.231.859 2.577a4.958 4.958 0 0 0 1.83 1.661c3.061 1.613 6.158-.403 6.372-1.178.14-.503-.409-.968-.622-1.121-.816-.586-1.054.407-2.382.797-2.088.612-3.843-.963-4.032-2.712-.214-1.976 1.424-3.7 3.382-3.535 1.424.121 1.918 1.033 2.599.863.294-.073.749-.582.838-.888.16-.552-.364-.899-.64-1.098-.68-.49-1.572-.804-2.639-.862-1.99-.108-3.631.793-4.68 2.313-.872 1.264-.743 2.14-.885 2.582" fill="#333"/></g></svg>