<svg xmlns="http://www.w3.org/2000/svg" width="87" height="218" viewBox="0 0 87 218"><g fill="none" fill-rule="evenodd"><path fill="#FFC346" fill-rule="nonzero" d="M178.574 176.017c0-1.464-.08-2.926-.237-4.381-3.145-29.037-37.285-51.902-78.938-51.902-43.727 0-79.175 25.199-79.175 56.283a97.475 97.475 0 0 0 1.079 15.255l-1.079-.411 6.608 51.49h25.093a20.276 20.276 0 0 1 19.954-11.926c.851.063 1.715.118 2.593.166 22.678 1.234 40.416.871 54.292-.764 5.672-.663 10.943 3.025 12.275 8.587l.947 3.937h25.093l4.99-31.339c6.869-9.839 6.505-22.265 6.505-34.995z"/><path fill="#FFC346" d="M177.75 176.017c.941.082 1.402 3.61 1.552 8.432.064 2.411.035 5.15-.17 7.936a58.328 58.328 0 0 1-1.177 8.184c-.128.91-.375 1.83-.596 2.786-.11.479-.279.949-.421 1.433-.156.48-.287.978-.49 1.456l-.576 1.467c-.2.493-.454.967-.684 1.46-.12.243-.239.489-.359.735-.12.247-.27.478-.407.719l-.847 1.443.309-.765-1.658 13.696c-.665 5.25-1.129 3.735-1.77 8.132a620.42 620.42 0 0 1-1.282 9.555 2.082 2.082 0 0 1-2.022 1.79h-.073c-7.905.134-14.726.124-25.093.401a2.438 2.438 0 0 1-2.414-1.791l-.038-.144-.509-1.859-.306-1.405-.15-.682-.14-.52-.065-.26-.092-.247-.179-.493c-.07-.158-.15-.31-.221-.466a3.463 3.463 0 0 0-.234-.453 8.64 8.64 0 0 0-7.579-4.41c-.285-.017-.568.037-.85.048-.126.005-.315.028-.497.05l-.54.063c-2.882.354-5.732.652-8.776.94-3.045.29-6.283.562-9.942.803-4.509.163-7.892.069-11.268-.05-3.376-.134-6.747-.285-11.237-.388-3.958-.02-7.519.012-10.82.048-.83.007-1.624.034-2.44.035l-1.205.011-.595.008c-.095.002-.205 0-.288.006l-.241.016-.95.06c-.312.03-.62.09-.923.132l-.454.067-.444.106c-.294.073-.587.133-.873.211a15.416 15.416 0 0 0-4.746 1.176 16.944 16.944 0 0 0-4.466 2.773 18.326 18.326 0 0 0-3.397 3.89c-.227.346-.423.705-.637 1.047l-.078.13-.04.063-.02.032-.004.008c-1.072.694 2.394-1.547-2.403 1.557h-.005l-.021-.002-.34-.025-.668-.052a99.41 99.41 0 0 1-2.497-.231c-5.844-.157-7.902.283-12.693.294-4.104-.057-5.613-.451-8.869-.621l-.212-.011a1.874 1.874 0 0 1-1.769-1.735 54.497 54.497 0 0 0-.207-2.173c-.567-4.284-1.195-6.314-1.781-9.819-1.645-12.406-3.361-26.612-5.33-39.407a2.674 2.674 0 0 1 3.517-2.937l.141.05 1.089.385-3.686 3c-.27-1.477-.49-2.867-.684-4.239a116.523 116.523 0 0 1-.426-7.576 131.349 131.349 0 0 1-.042-3.938l.075-2.094c.017-.35.018-.703.047-1.055l.111-1.056a43.769 43.769 0 0 1 1.669-8.5l.673-2.104c.25-.695.535-1.38.803-2.072.139-.344.267-.695.416-1.036l.474-1.011c.325-.67.614-1.365.975-2.02a57.067 57.067 0 0 1 4.82-7.625c.95-1.17 1.855-2.388 2.887-3.49.51-.556.993-1.14 1.527-1.673l1.595-1.606a66.72 66.72 0 0 1 6.863-5.822 75.592 75.592 0 0 1 7.422-4.864c.842-.499 1.759-1.026 2.694-1.56.954-.496 1.925-1 2.86-1.488.935-.488 1.86-.898 2.674-1.317l1.147-.59c.36-.175.687-.342.975-.5a123.973 123.973 0 0 1 15.124-4.352 130.26 130.26 0 0 1 15.918-2.487 136.59 136.59 0 0 1 30.018.499c1.104.303 2.13.556 3.13.78.995.245 1.96.481 2.949.698.992.204 1.989.479 3.064.735.535.136 1.093.258 1.665.421l1.792.519 1.324.46c.42.16.82.325 1.204.482.77.316 1.475.619 2.135.913a69.182 69.182 0 0 1 3.5 1.814c1.059.63 2.09 1.213 3.191 1.885 1.092.692 2.303 1.359 3.685 2.225 1.618.844 3.056 1.747 4.273 2.532a26.226 26.226 0 0 1 2.782 2.13c.784.425 1.638.935 2.544 1.483.897.562 1.81 1.215 2.756 1.862.923.679 1.849 1.396 2.764 2.101.882.748 1.776 1.458 2.593 2.172.854.984 1.78 1.952 2.642 3.027.435.534.905 1.045 1.33 1.607l1.305 1.683a60.314 60.314 0 0 1 4.763 7.386 48.451 48.451 0 0 1 3.442 8.174 40.91 40.91 0 0 1 1.548 8.282l.007.136-.007-.136c.104 1.504.1 3.013-.01 4.517-.482-.156-.672-1.97-1.056-4.401l.002.02-.002-.02-.28-1.538c-.102-.532-.164-1.089-.311-1.64-.264-1.11-.496-2.267-.861-3.364-.173-.55-.32-1.102-.51-1.625l-.584-1.507a19.673 19.673 0 0 0-1.187-2.503c-.12-.293-.23-.585-.353-.865l-.392-.813-.751-1.543c-.545-.962-1.047-1.867-1.563-2.692-.544-.809-1.04-1.578-1.55-2.283l-1.52-1.976a88.833 88.833 0 0 0-6.199-6.627 32.365 32.365 0 0 0-2.081-1.697 15.8 15.8 0 0 0-2.876-1.566c-.416-.162-.822-.315-1.265-.506l-1.206-.928-1.282-.913-1.288-.915c-.439-.283-.872-.562-1.294-.832l-1.226-.773c-.397-.24-.788-.445-1.149-.643a20.05 20.05 0 0 0-1.835-.894 95.435 95.435 0 0 0-2.6-1.429c-.782-.397-1.493-.701-2.115-.97a13.344 13.344 0 0 0-2.91-.926c-1.53-.645-2.177-.971-2.887-1.344a18.72 18.72 0 0 0-1.248-.597c-.516-.225-1.191-.443-2.127-.735-1.346-.4-2.975-.819-4.672-1.313-1.717-.425-3.507-.917-5.235-1.252-1.714-.388-3.36-.622-4.72-.796a12.124 12.124 0 0 0-3.092-.053 20.93 20.93 0 0 0-3.335-.668c-1.405-.232-3.054-.344-4.74-.5-1.02-.066-1.973-.077-2.865-.098-.447-.007-.878-.016-1.298-.013l-1.222.044c-.792.033-1.54.073-2.259.118-.718.054-1.406.141-2.08.214-3.636.02-7.27.231-10.884.63-1.024.09-2.041.246-3.045.47-.555.145-1.098.336-1.623.569-1.106.53-2.27.932-3.467 1.195a86.104 86.104 0 0 0-15.893 4.293A80.144 80.144 0 0 0 48.87 136.6l-.8.489c-.264.165-.517.346-.777.518l-1.545 1.04c-.524.336-1.003.726-1.505 1.087l-1.486 1.104a67.464 67.464 0 0 0-5.539 4.848 60.572 60.572 0 0 0-4.944 5.447l-1.107 1.478-.559.74-.514.77-1.04 1.546-.95 1.609c-.15.3-.315.59-.452.889l-.396.892c-.254.591-.541 1.155-.76 1.732-.43 1.16-.897 2.256-1.21 3.37a41.52 41.52 0 0 0-1.519 6.446c-.07.532-.115 1.065-.174 1.595-.046.532-.14 1.06-.136 1.596-.023 1.08-.09 2.11-.052 3.295.045 2.31.172 4.682.45 7.198.168 2.019.383 4.215.712 6.461l.012.084a3.286 3.286 0 0 1-2.77 3.729 3.325 3.325 0 0 1-1.684-.196l-1.073-.426 4.436-3.5c.842 7.332 1.67 15.213 2.582 19.992.53 8.612 2.104 20.241 3.79 31.528l-3.028-2.67 6.136-.14c3.753.17 7.691.169 11.877.127l6.472-.077.418-.005h.105l.052-.001h.033c-5.738 3.71-1.588 1.024-2.868 1.85l.006-.013.106-.219.427-.877c.27-.597.631-1.15.963-1.725a9.25 9.25 0 0 1 .547-.837l.581-.825c.404-.54.853-1.055 1.293-1.581a23.243 23.243 0 0 1 9.533-6.323 23.612 23.612 0 0 1 5.928-1.251l1.53-.056c.51-.023 1.02.028 1.53.042.244.013.535.022.74.039l.65.048 1.299.096c7.032.465 14.007.727 19.895.67 3.997.122 9.114-.005 11.059.286 6.988-.385 14.176-.797 21.393-1.56l1.353-.148.339-.036.169-.018.218-.017.88-.06a13.873 13.873 0 0 1 3.52.308 14.203 14.203 0 0 1 10.323 8.857c.214.55.392 1.113.534 1.685l.056.208.039.17.079.342.157.683.63 2.73-2.848-2.247c5.458.05 10.904.088 16.287.075 1.08.44 6.055.373 8.241.667l.565.02-2.142 1.83c.993-5.226.647-6.3 1.37-10.671 1.179-1.058 2.55-8.78 3.872-14.643.316-2.159.618-4.09.897-5.84.024-.147.08-.288.164-.41l.005-.008a28.221 28.221 0 0 0 3.698-7.374c.813-2.51 1.3-5.115 1.448-7.75.46-3.397.79-4.17 1.197-5.27-.09-1.37.017-3.666.061-6.235.058-2.566.109-5.397.1-7.79z"/><g fill="#DFDFDF" fill-rule="nonzero" transform="translate(55.393 1.55)"><ellipse cx="26.641" cy="26.613" rx="25.093" ry="25.138"/><path d="M47.365 11.896c-.318.191-1.068-.633-2.102-1.703a26.272 26.272 0 0 0-3.704-3.252 37.353 37.353 0 0 0-3.274-1.808 24.269 24.269 0 0 0-3.794-1.458c-.44-.11-.865-.27-1.27-.474a3.542 3.542 0 0 0-1.103-.39 27.46 27.46 0 0 0-5.314-.495c-.42.003-.844.008-1.28.043l-.664.045-.686.079a20.704 20.704 0 0 0-3.07.606 20.4 20.4 0 0 0-5.493 1.954 21.118 21.118 0 0 0-4.548 3.263c-1.006.888-1.753 1.566-2.449 2.301a16.69 16.69 0 0 0-2.11 2.629 17.601 17.601 0 0 0-2.231 5.545 19.748 19.748 0 0 0-1.162 3.453 43.22 43.22 0 0 0-.664 3.348 9.316 9.316 0 0 0-.03 1.145c.001.3.021.6.06.899.032.278.055.546.095.834.043.287.083.594.118.954.09.739.085 1.208.126 1.672.015.233.031.467.06.736.037.267.095.566.177.933.285.97.662 1.912 1.125 2.81.415 1.03.897 2.031 1.442 2.998.577 1 1.22 1.961 1.928 2.874a21.144 21.144 0 0 0 4.95 4.62 22.589 22.589 0 0 0 8.566 3.957c3.357.767 6.836.83 10.218.183 1.11-.21 2.193-.544 3.229-.997a20.846 20.846 0 0 0 13.271-11.544 12.955 12.955 0 0 0 1.503-3.445c.203-.526.36-.972.525-1.362.143-.396.288-.74.424-1.078l.374-1.036c.11-.368.22-.77.321-1.249.138-1.087.224-2.023.34-2.531a32.353 32.353 0 0 0-.516-3.899 18.489 18.489 0 0 0-1.368-5.655 39.157 39.157 0 0 0-2.58-5.107c.112-.043.312.12.568.41.128.145.272.32.419.52.14.205.289.431.441.669.318.468.589 1.017.876 1.511.252.512.519.973.708 1.33a38.459 38.459 0 0 1 1.239 3.562c.137.487.271.937.363 1.398l.146.694.102.73c.11.785.325 1.551.638 2.279.068 1.3-.07 2.934-.046 3.618a18.56 18.56 0 0 0-.278 2.733c-.054.348-.15.688-.287 1.012-.137.375-.252.756-.345 1.144a19.357 19.357 0 0 1-1.072 3.196c-.38.785-.702 1.597-.965 2.43-.337.408-.887 1.326-1.55 2.236-.773 1.12-1.363 1.9-1.896 2.642a26.221 26.221 0 0 1-2.693 2.48c-1.485 1.103-.983 1.157-2.09 1.96a27.994 27.994 0 0 1-10.168 3.805c-3.39.563-6.86.406-10.184-.462a22.555 22.555 0 0 1-4.726-1.512 32.498 32.498 0 0 1-4.171-2.234 23.893 23.893 0 0 1-3.729-3.16c-1.163-1.196-2.14-2.427-2.84-3.274a39.234 39.234 0 0 1-2.717-5.161 28.875 28.875 0 0 1-1.9-6.293c-.13-1.23-.225-2.52-.245-3.896-.03-1.466.074-2.932.311-4.38a25.868 25.868 0 0 1 2.02-6.442 29.628 29.628 0 0 1 1.617-3.024c.594-.936 1.185-1.82 1.78-2.591.413-.518.918-1.079 1.372-1.57A8.11 8.11 0 0 1 8.68 7.609a23.196 23.196 0 0 1 8.111-5.358 26.827 26.827 0 0 1 9.75-1.844c.353.154 1.973.17 2.666.38 1.853.298 2.176.162 3.632.508.161.17.36.299.58.378.294.15.676.31 1.103.479.92.376 1.82.799 2.698 1.267a22.212 22.212 0 0 1 3.398 1.867c.93.598 1.744 1.19 2.726 1.874.476.353.858.82 1.109 1.359.515.42.987.893 1.406 1.41.257.32.53.651.787.986l.719.981z"/><ellipse cx="49.77" cy="98.993" rx="25.093" ry="25.138"/><path d="M70.494 84.276c-.318.191-1.068-.633-2.102-1.703a26.272 26.272 0 0 0-3.704-3.252 37.083 37.083 0 0 0-3.274-1.807 24.277 24.277 0 0 0-3.794-1.46 6.122 6.122 0 0 1-1.27-.473 3.542 3.542 0 0 0-1.103-.39 27.46 27.46 0 0 0-5.314-.495c-.42.003-.844.008-1.28.044l-.664.044-.686.079a20.704 20.704 0 0 0-3.07.606 20.4 20.4 0 0 0-5.493 1.954 21.153 21.153 0 0 0-4.548 3.263c-1.006.888-1.753 1.566-2.449 2.301a16.69 16.69 0 0 0-2.11 2.629 17.601 17.601 0 0 0-2.231 5.545 19.748 19.748 0 0 0-1.162 3.453 43.145 43.145 0 0 0-.664 3.349c-.033.38-.044.763-.03 1.144.001.3.021.6.06.899.032.278.055.546.095.834.043.287.083.594.118.954.09.739.085 1.208.126 1.672.015.234.031.468.06.736.037.267.095.566.177.933.285.97.662 1.912 1.125 2.81.415 1.03.897 2.031 1.442 2.998.577 1 1.22 1.961 1.928 2.874a21.17 21.17 0 0 0 4.95 4.621 22.602 22.602 0 0 0 8.566 3.956c3.357.767 6.836.83 10.218.183 1.11-.21 2.193-.544 3.229-.997a20.844 20.844 0 0 0 13.271-11.544 12.955 12.955 0 0 0 1.503-3.445c.203-.526.36-.972.525-1.362.143-.396.288-.74.424-1.078l.374-1.036c.11-.368.22-.77.321-1.249.138-1.087.224-2.023.34-2.531a32.353 32.353 0 0 0-.516-3.899 18.489 18.489 0 0 0-1.368-5.655 39.157 39.157 0 0 0-2.58-5.107c.112-.043.312.12.568.41.128.145.272.32.419.52.14.205.289.431.441.669.318.468.589 1.018.876 1.511.252.512.519.973.708 1.331a38.256 38.256 0 0 1 1.239 3.562c.137.486.271.936.363 1.397l.146.694.102.73c.11.785.325 1.551.638 2.279.068 1.3-.07 2.934-.046 3.618a18.56 18.56 0 0 0-.278 2.733c-.054.348-.15.688-.287 1.012-.137.375-.252.756-.345 1.144a19.357 19.357 0 0 1-1.072 3.196c-.38.785-.702 1.597-.965 2.43-.337.408-.887 1.326-1.55 2.236-.773 1.12-1.363 1.9-1.896 2.642a26.118 26.118 0 0 1-2.693 2.48c-1.485 1.103-.983 1.157-2.09 1.96a27.994 27.994 0 0 1-10.168 3.805c-3.39.563-6.86.406-10.184-.462a22.555 22.555 0 0 1-4.726-1.512 32.486 32.486 0 0 1-4.17-2.234 23.854 23.854 0 0 1-3.73-3.16c-1.163-1.196-2.14-2.427-2.84-3.274a39.234 39.234 0 0 1-2.717-5.161 28.875 28.875 0 0 1-1.9-6.293c-.13-1.23-.225-2.52-.245-3.896a24.05 24.05 0 0 1 .311-4.379 25.903 25.903 0 0 1 2.02-6.443 29.628 29.628 0 0 1 1.617-3.024c.594-.936 1.185-1.82 1.781-2.591.412-.518.917-1.078 1.371-1.57a8.11 8.11 0 0 1 1.177-1.045 23.196 23.196 0 0 1 8.111-5.358 26.823 26.823 0 0 1 9.75-1.844c.353.154 1.973.17 2.666.38 1.853.298 2.176.162 3.632.508.161.17.36.299.58.378.294.15.676.31 1.103.479.92.376 1.82.799 2.698 1.267a22.212 22.212 0 0 1 3.398 1.867c.93.598 1.744 1.19 2.726 1.874.477.353.858.82 1.109 1.359.516.42.987.893 1.406 1.41.257.32.53.651.787.986l.719.981z"/></g><path fill="#333" d="M91.207 75.97c.035.249-1.018.601-2.402 1.158a25.786 25.786 0 0 0-4.409 2.251 32.897 32.897 0 0 0-2.938 2.353 24.302 24.302 0 0 0-2.803 3.005 10.92 10.92 0 0 1-.89 1.042 4.848 4.848 0 0 0-.74.92 26.507 26.507 0 0 0-2.444 4.815c-.153.397-.305.8-.433 1.224l-.205.642c-.059.222-.12.447-.18.677a28.459 28.459 0 0 0-.726 9.033c.218 1.888.673 3.74 1.355 5.514a31.225 31.225 0 0 0 1.299 3.153 18.592 18.592 0 0 0 1.729 2.947 19.525 19.525 0 0 0 4.308 4.262 21.057 21.057 0 0 0 2.893 2.306c.957.639 1.946 1.23 2.963 1.768.348.167.705.315 1.068.445.283.11.571.205.864.285.54.167 1.051.284 1.757.478.731.18 1.176.336 1.632.448l.719.185c.265.054.569.102.944.156a17.89 17.89 0 0 0 3.053.03c2.294-.02 4.573-.37 6.768-1.035a22.344 22.344 0 0 0 6.195-2.952 23.443 23.443 0 0 0 6.875-6.672 25.033 25.033 0 0 0 3.927-9.62c.207-1.13.301-2.277.281-3.426a22.203 22.203 0 0 0-6.044-16.855 15.418 15.418 0 0 0-2.719-2.684l-1.119-.968c-.331-.269-.614-.516-.893-.752l-.87-.683c-.316-.22-.661-.458-1.08-.716-.974-.52-1.827-.928-2.276-1.186a28.98 28.98 0 0 0-3.82-1.018 20.049 20.049 0 0 0-5.813-.716c-1.92.042-3.831.253-5.714.63.01-.082.241-.187.608-.305.184-.058.4-.123.64-.183l.785-.16c.552-.121 1.161-.174 1.725-.258l1.495-.15a31.622 31.622 0 0 1 3.757.137c.501.053.967.096 1.427.18.23.04.461.078.697.118l.715.167c.757.178 1.526.299 2.3.36 1.226.402 2.696 1.097 3.32 1.351 1.268.677 1.967 1.094 2.402 1.27.299.177.58.382.841.612.2.17.428.336.939.72.904.649 1.756 1.37 2.545 2.156.82.804 1.505 1.562 1.837 1.809.278.437.93 1.272 1.53 2.209.75 1.116 1.235 1.953 1.699 2.722a25.89 25.89 0 0 1 1.327 3.36c.5 1.759.619 1.345.947 2.65a27.018 27.018 0 0 1-.082 10.69 24.765 24.765 0 0 1-4.01 9.223 23.507 23.507 0 0 1-3.083 3.8 29.539 29.539 0 0 1-3.545 3.025 24.3 24.3 0 0 1-4.214 2.32 39.056 39.056 0 0 1-4.015 1.437 33.147 33.147 0 0 1-5.693.714 27.274 27.274 0 0 1-6.444-.528 33.809 33.809 0 0 1-3.665-1.146 24.093 24.093 0 0 1-3.899-1.857 25.671 25.671 0 0 1-5.204-4.134 28.572 28.572 0 0 1-2.204-2.561c-.647-.881-1.245-1.742-1.733-2.57a27.98 27.98 0 0 1-.957-1.818c-.224-.467-.414-.95-.567-1.445a23.844 23.844 0 0 1-1.995-9.387 26.288 26.288 0 0 1 1.756-9.64c.217-.29.817-1.777 1.226-2.358.915-1.62.963-1.934 1.796-3.154.19-.12.357-.27.496-.445.228-.23.502-.535.8-.879.66-.734 1.36-1.433 2.093-2.094.912-.91 1.9-1.742 2.953-2.485.889-.649 1.735-1.186 2.737-1.82a4.81 4.81 0 0 1 1.622-.613c.585-.31 1.194-.572 1.82-.782.389-.125.794-.263 1.196-.383l1.167-.32zM70.094 1.774c-.053-.229.88-.66 2.224-1.014a24.377 24.377 0 0 1 4.567-.672 23.125 23.125 0 0 1 7.42.552c.432.08.85.22 1.244.414.337.164.684.307 1.039.428a23.274 23.274 0 0 1 4.66 2.173 28.311 28.311 0 0 1 4.458 3.385 28.63 28.63 0 0 1 3.566 4.43 29.73 29.73 0 0 1 2.591 4.82c.22.623.426 1.164.558 1.686l.206.751.159.732c.21.968.358 1.946.517 3.253.256 1.955.348 3.93.274 5.9a32.296 32.296 0 0 1-.838 3.528 19.078 19.078 0 0 1-1.237 3.098 32.117 32.117 0 0 1-1.59 3.38c-.766 1.239-1.085 1.445-1.96 2.591-.396.493-.663.88-.944 1.222-.274.37-.568.724-.88 1.062a25.252 25.252 0 0 1-20.424 7.78 25.196 25.196 0 0 1-9.691-2.722c-1.021-.462-2.25-1.285-2.914-1.639a30.365 30.365 0 0 1-6.372-6.527 30.06 30.06 0 0 1-3.902-7.707c-.136-.644-.242-1.195-.387-1.76a56.611 56.611 0 0 1-.357-1.902 28.803 28.803 0 0 1-.08-1.439c-.01-.414.03-.778.05-1.129.03-.7.143-1.353.217-2.281.039-.808.161-1.61.366-2.393.036-.597.113-1.19.23-1.776l.184-.973.234-.932a33.275 33.275 0 0 1 2.257-5.077 19.868 19.868 0 0 1 3.222-4.334c.081.15-.466.823-1.068 1.666a37.568 37.568 0 0 0-2.475 4.212c-.22.516-.412.969-.593 1.391-.3.868-.57 1.6-.821 2.483-.083.3-.144.544-.183.751-.03.21-.043.383-.05.534-.013.302.005.52.001.796-.13.557-.215 1.199-.317 1.768-.062.458-.094.92-.096 1.383-.039.283-.06.568-.063.853-.007.253-.01.476-.007.67-.009.295.02.589.088.875.019.305.018.612-.004.917-.02.349 0 .698.063 1.042.11.8.29 1.912.524 2.894.13.488.243.952.373 1.323.097.28.22.55.371.805.18.761.432 1.503.75 2.217.257.528.487.976.702 1.375.228.393.463.724.676 1.047.238.464.532.895.814 1.333l.427.656.464.63c.253.384.566.724.927 1.008.286.204.552.433.795.685a22.717 22.717 0 0 0 7.292 5.47 25.717 25.717 0 0 0 8.317 2.335c1.402.088 2.809.073 4.209-.044a19.347 19.347 0 0 0 3.927-.721 27.5 27.5 0 0 0 3.9-1.333 17.548 17.548 0 0 0 3.198-1.78 18.585 18.585 0 0 0 3.925-3.005 22.761 22.761 0 0 0 3.44-4.389 17.516 17.516 0 0 0 1.595-2.893 25.29 25.29 0 0 0 1.253-3.501c.53-1.84.847-3.736.945-5.65a21.361 21.361 0 0 0-.422-5.56c-.087-.554-.247-1.175-.378-1.728-.148-.55-.28-1.028-.32-1.303a27.78 27.78 0 0 0-3.956-7.29 23.831 23.831 0 0 0-6.203-5.74c-.194-.256-1.402-.954-1.925-1.28-1.44-.772-1.743-.718-2.938-1.185a4.36 4.36 0 0 0-1.464-.72c-.385-.124-.809-.274-1.247-.388-.44-.107-.88-.234-1.297-.323-2.779-.39-4.285-.47-6.375-.158a6.314 6.314 0 0 1-1.554.025c-.76.185-2.596.499-3.887.939z"/><g fill-rule="nonzero"><path fill="#333" d="M70.436 129.263c-.502-1.838 1.096-2.036 2.143-2.636.666-.776 1.643-1.284 2.574-1.835.56-.295.548.421 1.033.257 1.428-.753 2.33-.72 4.007-1.487a7.966 7.966 0 0 0 4.29-.94c1.019-.198 1.593.249 2.608.075a6.12 6.12 0 0 0 2.18-1.455c.91.437 2.055.559 2.815 1.184.68.117.891-.336 1.443-.38.572.044.733.593 1.3.638.493-.038.72-.414 1.124-.558 1.633-.113 3.525.025 5.184-.468 2.185.31 5.014-.076 7.613.313.444-.062 1.01.076 1.33-.193 2.173 1.239 4.827 1.292 6.961.768.451.44.84.298 1.427.34.822.39.952 1.326 1.596 1.845.364.073.674.31.841.642.46-.27 1.052-.254 1.573-.386 1.13 1.012 2.975.744 3.982 1.864-.353 1.205-1.503.39-2.183.76-1.076-.434-1.677-.066-2.361-.296-.494-.023-.728.538-1.028.949-.437-.096-.96-.379-1.244-.136a.68.68 0 0 0-.985.153c-.378-.015-.253-.443-.711-.39-.683.241-1.744-.303-2.146.508-.137-.267-.493-.343-.87-.402a1.836 1.836 0 0 0-1.154.363c-.401-.082-.803-.173-1.206-.248-.604-.2-.589.748-1.048.81-2.512-.94-4.653-.587-6.947-1.29-1.27.268-2.091-.09-3.245.25-.973.041-2.34-.462-3.067-.04-1.12-.671-2.718-.386-4.142.006-.839-.297-1.724.095-2.758.159-1.376.071-3.182-.156-4.443.283-.446-.012-.994.156-1.249-.142-2 .976-4.356.676-6.52 1.141-.199-.408-.723-.236-1.018-.477-.672-.09-.658.474-1.156.554-.34-.946-1.223-.91-1.958-1.125-1.046.368-1.688.207-2.34.999-.377.1-.551-.214-.75-.472-.21.403-.983.34-1.495.495z"/><path fill="#FFC346" d="M39.19 155.497c-2.241 1.784-3.535-.41-5.083-1.524-1.509-.476-2.881-1.518-4.28-2.456-.795-.58.177-1.04-.393-1.606-2.042-1.476-2.675-2.738-4.966-4.473a19.348 19.348 0 0 0-.983-1.626 11.64 11.64 0 0 0-.486-.664l-.063-.077a.498.498 0 0 0-.047-.056l-.052-.05a.493.493 0 0 0-.108-.09.957.957 0 0 0-1.164.155c-.187.021-.31-.144-.512-.282a.84.84 0 0 0-.327-.146.623.623 0 0 0-.178.008c-.028.01-.057.023-.087.036l-.043.022-.193.107c-.916.683-1.9 1.27-2.935 1.753-1 .481-2.051.85-3.133 1.099a12.942 12.942 0 0 1-3.6-2.286c-1.02-.96-1.732-2.108-1.889-3.15a8.787 8.787 0 0 0-.602-.926 9.247 9.247 0 0 0-.549-.69l-.138-.16-.102-.094a4.286 4.286 0 0 1-.195-.188 1.818 1.818 0 0 1-.336-.478c-.273-.852.397-1.39.123-2.243-.343-.698-.997-.815-1.446-1.313-1.135-2.292-2.164-5.09-3.928-7.123a13.837 13.837 0 0 0-.21-.623l-.322-.87c-.136-.38-.252-.767-.348-1.16a11.498 11.498 0 0 1-.214-1.223 10.316 10.316 0 0 1 .671-5.114 9.703 9.703 0 0 1 3.363-4.266c.182-.127.4-.273.558-.374l.33-.204.666-.399c.446-.26.895-.51 1.348-.743.254-.238.591-.444.886-.666.142-.104.274-.223.393-.354.054-.063.104-.13.15-.2.062-.076.116-.16.16-.247a60.273 60.273 0 0 1 7.456-1.243 40.455 40.455 0 0 1 7.2-.032c.188.203.4.38.632.528.202.14.415.26.639.36.512.188 1.013.403 1.502.645.314.29.576.633.774 1.013.152.343.265.702.339 1.07l.205 1.04c.055.362.148.717.28 1.06.12.143.233.292.339.447.09.147.164.303.22.466.113.276.14.58.075.872.456.147.872.396 1.217.728.193.164.39.335.579.51.175.182.353.362.538.53.008.175.023.348.046.518l.038.254.023.126.006.032.003.015c.457-.776-3.976 6.772-2.1 3.576h-.005l-.007-.002-.053-.011a5.716 5.716 0 0 0-.865-.1 16.138 16.138 0 0 0-1.773.05c-1.187.075-2.36.134-3.401-.4-.11-1.878 2.05-1.32 2.891-2.176a5.413 5.413 0 0 0 2.132-.323l.408-.14.197-.064.098-.03.049-.015.012-.003.006-.002c.49-.833-.665 1.135-.546.932l-.001-.001-.002-.003-.015-.02a2.565 2.565 0 0 1-.383-.678.82.82 0 0 0-.397-.302 1.403 1.403 0 0 0-.524-.043c-.38.052-.756.126-1.127.222-.077-.124-.141-.269-.214-.41-.084-.132-.168-.266-.257-.385-.184-.234-.364-.43-.643-.374a1.027 1.027 0 0 0-.529-.557.818.818 0 0 0-.666.113c-.204-.11-.19-.288-.2-.464a.37.37 0 0 0-.335-.418 1.751 1.751 0 0 1-.703-.17l-.721-.237a1.184 1.184 0 0 0-.702-.02c-.254.077-.468.25-.597.482-.068-.411-.479-.547-.907-.661a1.534 1.534 0 0 0-.729.153 2.109 2.109 0 0 0-.578.473 8.387 8.387 0 0 0-1.315-.114c-.344-.035-.433.284-.47.643-.038.359-.036.743-.206.892a11.565 11.565 0 0 0-.464-.046 2.067 2.067 0 0 0-.451.032c-.148.02-.298.038-.446.064l-.416.147-.208.075c-.087.027-.17.064-.25.109l-.64.342-1.242.695c-.41.23-.817.46-1.222.689l-.614.333-.155.081c-.006.004-.014.006-.02.008a.146.146 0 0 1-.055.002c-.196.017-.391.05-.582.099a.95.95 0 0 1 .135.515c.018.061.017.125.079.173a.22.22 0 0 0 .11.06l.033.01.103.138c.07.093.146.186.225.28.742 1.427.989 3.783 2.043 4.624-.167 2.086 1.235 4.32 2.66 6.284.026.355.105.705.234 1.037.032.084.066.167.102.25l.052.115.019.02c.028.025.04.062.077.078.127.087.289.073.38.147.056.061.128.128.214.212.09.093.2.162.323.204.123.04.256.037.378-.008a.923.923 0 0 1 .082-.057l.492-.284c.222-.133.448-.252.676-.361.226-.112.446-.23.671-.325a10.175 10.175 0 0 1 2.04-.372 3.47 3.47 0 0 1 .91.048c.23.03.449.124.63.27a7.772 7.772 0 0 1 4.621.862 8.654 8.654 0 0 1 2.002 1.454c.3.289.579.597.837.922l.07.09.05.068.103.138.201.279c1.07 1.49 2.054 3.073 3.22 4.458-.387.566.254 1.2.16 1.784.405 1.019 1.148.626 1.637 1.294-1.024 1.117-.3 2.347-.068 3.548 1.266 1.269 1.487 2.297 3.036 2.767.403.487.09.927-.133 1.372.699.068 1.133 1.234 1.691 1.889z"/></g></g></svg>