<svg xmlns="http://www.w3.org/2000/svg" xmlns:xlink="http://www.w3.org/1999/xlink" width="1920" height="420" viewBox="0 0 1920 420"><defs><path id="a" d="M0 0h1920v420H0z"/></defs><g fill="none" fill-rule="evenodd"><mask id="b" fill="#fff"><use xlink:href="#a"/></mask><use fill="#EEE" xlink:href="#a"/><g mask="url(#b)"><g transform="translate(1035 -9)"><path fill="#FFC346" fill-rule="nonzero" d="M530.1 355.847c0-2.528-.138-5.054-.41-7.567-5.439-50.154-64.47-89.648-136.492-89.648-75.61 0-136.902 43.525-136.902 97.215-.071 8.82.552 17.63 1.864 26.35l-1.864-.71 11.425 88.937h43.39c6.04-13.432 19.82-21.66 34.501-20.599 1.472.109 2.966.204 4.483.287 39.213 2.131 69.885 1.505 93.877-1.32 9.807-1.145 18.922 5.225 21.226 14.833l1.636 6.8h43.39l8.626-54.13c11.878-16.996 11.25-38.459 11.25-60.448z"/><path fill="#FFC346" d="M528.673 355.847c1.629.142 2.426 6.235 2.685 14.565.11 4.165.061 8.895-.295 13.707a100.547 100.547 0 0 1-2.034 14.137c-.221 1.572-.65 3.16-1.03 4.812-.19.826-.483 1.638-.73 2.475-.268.83-.495 1.688-.845 2.515l-.997 2.534c-.345.85-.785 1.67-1.183 2.52l-.62 1.272c-.21.425-.469.824-.703 1.24l-1.466 2.494.534-1.323-2.866 23.658c-1.15 9.07-1.952 6.451-3.061 14.046a1059.96 1059.96 0 0 1-2.217 16.503 3.595 3.595 0 0 1-3.497 3.091l-.125.002c-13.669.231-25.463.214-43.389.693a4.21 4.21 0 0 1-4.173-3.095l-.067-.247-.879-3.211-.53-2.427-.26-1.179-.24-.898-.114-.448-.16-.427-.308-.851c-.12-.274-.258-.538-.382-.806a5.79 5.79 0 0 0-.405-.782 14.934 14.934 0 0 0-13.103-7.618c-.493-.029-.983.065-1.473.083-.216.009-.543.049-.857.086l-.935.11a545.69 545.69 0 0 1-15.175 1.624c-5.263.502-10.864.97-17.19 1.386-7.796.28-13.645.119-19.483-.085-5.837-.232-11.666-.493-19.43-.67-6.844-.035-13 .02-18.708.08-1.435.014-2.81.06-4.22.062l-2.083.02-1.03.012c-.165.004-.355.002-.498.01l-.417.028-1.641.105c-.54.051-1.072.156-1.598.227l-.784.115-.768.184c-.508.126-1.014.23-1.509.365a26.698 26.698 0 0 0-8.207 2.031 29.228 29.228 0 0 0-7.72 4.79 31.586 31.586 0 0 0-5.875 6.718c-.393.599-.732 1.219-1.101 1.81l-.136.222-.068.111-.034.056-.009.013c-1.852 1.199 4.14-2.672-4.154 2.689h-.01l-.036-.004-.588-.043-1.155-.09a162.492 162.492 0 0 1-4.318-.399c-10.104-.27-13.663.489-21.947.509-7.096-.099-9.704-.78-15.335-1.073l-.367-.02a3.236 3.236 0 0 1-3.058-2.996 93.68 93.68 0 0 0-.359-3.753c-.979-7.4-2.065-10.907-3.08-16.96-2.843-21.43-5.81-45.966-9.214-68.067a4.624 4.624 0 0 1 1.608-4.255 4.615 4.615 0 0 1 4.473-.817l.243.086 1.883.664-6.373 5.183c-.469-2.552-.85-4.953-1.182-7.322a200.016 200.016 0 0 1-.738-13.087 228.137 228.137 0 0 1-.072-6.802l.13-3.617c.028-.605.03-1.215.081-1.822l.192-1.825a75.592 75.592 0 0 1 2.885-14.68l1.165-3.636c.432-1.2.924-2.381 1.388-3.578.24-.595.46-1.2.72-1.789l.818-1.747c.563-1.158 1.063-2.357 1.686-3.488a98.608 98.608 0 0 1 8.334-13.172c1.643-2.019 3.209-4.123 4.993-6.026.881-.961 1.717-1.972 2.64-2.891l2.758-2.774a115.179 115.179 0 0 1 11.868-10.055 130.298 130.298 0 0 1 12.833-8.402c1.455-.862 3.04-1.772 4.658-2.694l4.945-2.57c1.616-.844 3.216-1.552 4.622-2.275l1.985-1.02c.62-.302 1.187-.592 1.686-.865a215.114 215.114 0 0 1 26.15-7.517 225.805 225.805 0 0 1 27.525-4.296 236.745 236.745 0 0 1 51.903.862c1.91.524 3.685.961 5.413 1.348 1.72.423 3.388.832 5.099 1.207 1.715.351 3.439.826 5.298 1.268.925.236 1.89.447 2.88.729l3.097.895 2.29.794c.727.276 1.417.562 2.082.833 1.33.546 2.55 1.07 3.69 1.577 2.253 1.097 4.2 2.098 6.052 3.134 1.832 1.087 3.616 2.095 5.52 3.255 1.887 1.195 3.98 2.348 6.37 3.844 2.799 1.457 5.285 3.017 7.39 4.373a45.49 45.49 0 0 1 4.81 3.679c1.355.734 2.832 1.615 4.398 2.562 1.55.97 3.129 2.098 4.766 3.216 1.596 1.172 3.197 2.411 4.78 3.63 1.523 1.29 3.069 2.517 4.483 3.75 1.476 1.7 3.077 3.372 4.568 5.23.752.922 1.565 1.805 2.3 2.775l2.256 2.907a104.164 104.164 0 0 1 8.236 12.758 83.714 83.714 0 0 1 5.951 14.118 70.492 70.492 0 0 1 2.676 14.305l.013.235-.013-.235c.18 2.598.175 5.205-.015 7.802-.835-.269-1.163-3.402-1.826-7.602l.001.035-.002-.035-.485-2.656c-.176-.918-.283-1.88-.538-2.834-.456-1.915-.856-3.914-1.488-5.808-.299-.952-.553-1.905-.882-2.807l-1.009-2.603a34.197 34.197 0 0 0-2.052-4.325c-.208-.506-.4-1.01-.612-1.493l-.676-1.405-1.3-2.665c-.943-1.662-1.81-3.224-2.703-4.65-.94-1.396-1.797-2.725-2.678-3.943l-2.63-3.414a153.949 153.949 0 0 0-10.718-11.446c-1.403-1.229-2.58-2.178-3.6-2.932a28.002 28.002 0 0 0-2.75-1.661 26.533 26.533 0 0 0-2.221-1.043c-.72-.28-1.423-.545-2.188-.875l-2.086-1.602-2.216-1.577-2.227-1.58-2.237-1.438-2.121-1.335c-.686-.414-1.363-.769-1.986-1.11a34.524 34.524 0 0 0-3.173-1.544 166.06 166.06 0 0 0-4.494-2.468c-1.354-.686-2.583-1.212-3.66-1.674a23.002 23.002 0 0 0-5.032-1.601c-2.643-1.115-3.763-1.678-4.99-2.322a31.915 31.915 0 0 0-2.158-1.03c-.893-.389-2.06-.766-3.678-1.271-2.328-.69-5.144-1.414-8.078-2.267-2.969-.734-6.065-1.585-9.052-2.163-2.965-.67-5.81-1.075-8.163-1.376a21.064 21.064 0 0 0-5.345-.09 36.183 36.183 0 0 0-5.766-1.154c-2.43-.402-5.282-.595-8.196-.864-1.765-.114-3.412-.134-4.955-.17-.772-.011-1.518-.027-2.243-.021l-2.115.075c-1.369.057-2.662.127-3.904.205-1.242.093-2.433.243-3.597.369-6.288.035-12.57.399-18.82 1.089a39.86 39.86 0 0 0-5.265.812c-.96.25-1.9.578-2.807.981a27.467 27.467 0 0 1-5.995 2.065 148.968 148.968 0 0 0-27.48 7.415 138.608 138.608 0 0 0-23.816 11.725l-1.383.844c-.458.285-.896.598-1.344.895l-2.673 1.798c-.905.578-1.734 1.253-2.6 1.877l-2.571 1.906a116.127 116.127 0 0 0-9.577 8.374 104.645 104.645 0 0 0-8.55 9.409l-1.913 2.553-.967 1.278-.889 1.33-1.796 2.67-1.643 2.778c-.262.519-.546 1.02-.784 1.536l-.684 1.54c-.44 1.022-.935 1.996-1.316 2.993-.74 2.002-1.55 3.897-2.089 5.82a71.58 71.58 0 0 0-2.627 11.135c-.123.918-.199 1.838-.302 2.755-.08.918-.24 1.83-.234 2.757-.04 1.866-.158 3.644-.09 5.69.077 3.99.296 8.088.78 12.434.288 3.487.66 7.28 1.228 11.16l.022.144a5.676 5.676 0 0 1-7.702 6.102l-1.855-.735 7.67-6.047c1.455 12.667 2.886 26.28 4.465 34.533.915 14.876 3.638 34.962 6.554 54.457l-5.237-4.61 10.61-.243c6.489.294 13.299.292 20.537.22l11.191-.133.723-.009.18-.001.091-.001h.056c-9.92 6.408-2.746 1.769-4.959 3.196l.011-.023.182-.378.739-1.516c.466-1.03 1.092-1.985 1.666-2.978.289-.5.604-.982.945-1.447l1.005-1.425c.699-.933 1.475-1.821 2.235-2.73a40.179 40.179 0 0 1 16.484-10.921 40.8 40.8 0 0 1 10.25-2.161l2.645-.097c.883-.04 1.765.049 2.647.073.422.021.925.037 1.28.067l1.123.083 2.245.166c12.16.802 24.221 1.256 34.402 1.156 6.911.212 15.759-.008 19.122.495 12.083-.666 24.511-1.377 36.99-2.695l2.34-.255.585-.063.293-.031.378-.03 1.522-.104a24.117 24.117 0 0 1 6.086.533 24.548 24.548 0 0 1 17.85 15.3c.368.95.676 1.92.922 2.91l.097.359.068.295.136.59.272 1.179 1.088 4.717-4.924-3.883c9.439.086 18.854.152 28.163.13 1.866.758 10.47.643 14.25 1.151l.976.036-3.703 3.161c1.716-9.028 1.118-10.882 2.368-18.433 2.038-1.827 4.41-15.165 6.695-25.292a768.15 768.15 0 0 1 1.552-10.088c.04-.254.137-.497.282-.71l.01-.012a48.692 48.692 0 0 0 6.394-12.737 53.057 53.057 0 0 0 2.503-13.387c.797-5.866 1.366-7.2 2.07-9.1-.155-2.367.029-6.334.106-10.77.1-4.433.188-9.322.173-13.457z"/><g fill="#333" fill-rule="nonzero"><path stroke="#333" stroke-linejoin="round" stroke-width="1.21" d="M444.993 378.974a67.354 67.354 0 0 0 19.707 47.61 67.25 67.25 0 0 0 49.371 19.697l4.78-29.987c11.877-16.995 11.249-38.458 11.249-60.447 0-2.527-.137-5.054-.41-7.567-1.42-13.088-6.495-25.447-14.491-36.57a67.544 67.544 0 0 0-2.924-.068c-37.159 0-67.282 30.146-67.282 67.332z"/><path d="M427.72 354.645c1.018-.004-.68 1.592.338 1.587-.931 1.03-1.357-1.36-.338-1.587zm1.61-3.331c.14-.267.443-.26.533-.612.267.14.258.443.611.533-.14.267-.443.26-.533.612-.267-.14-.258-.443-.611-.533zm-3.785 21.885c.012-1.377 2.017-.16 2.198.194-.864.828-1.006.092-2.198-.194zm-2.41 15.12c.25-.755 1.08-.526 1.937-.249-.433.446-1.262.216-1.937.249zm14.652-49.435c.396-.331.651-.801.715-1.314.648.048.117 2.13-.715 1.314zm-3.1 13.442c-.251-1.158 1.834-.619 1.053.273l-1.053-.273zm-1.296 7.91c.668-.342 2.29-.161 2.548.286-.855.544-1.707.31-2.548-.285zm-2.386 12.129c.658-.925 1.026.742.78 1.326-.837-.102-.127-1.116-.78-1.326zm.714-1.315c.21-.485 1.08.149 1.235-.43 1.025.689-.597.916-1.235.43zm-1.32 10.904c-.987-.624.645-.833.714-1.315.988.624-.645.833-.714 1.315zm2.737-12.036c.03-.792.674-.54 1.235-.43-.14.267-.443.259-.533.611l-.702-.181zm-4.5 23.2c.211-.486 1.08.148 1.236-.43 1.025.688-.598.915-1.235.43zm5.074-18.179c.13-.96 1.882.838 1.677-.69 1.033.991-.768 1.333-1.677.69zm2.35-7.638c.369-.838 1.366.331.871.975-.429-.243-.392-.761-.872-.975zm7.452-18.687c-.524.404-.6.76.079 1.145-.882.97-2.009-1.954-.079-1.145zm-6.345 23.097c-.717-.037-.1-1.733.624-.963l-.182.703c-.282-.142-.367.05-.442.26zm8.046-26.78c-.243.43-.76.393-.974.872-.838-.369.33-1.367.974-.872zm-.817 3.162c.21-.485 1.08.15 1.235-.43.873.571-.774.972-.545 2.108-1.252-.577.562-1.1-.69-1.678zm-8.913 35.926c.28-.86 1.215.205 1.404.363-.502.993-.663-.53-1.404-.363zm.236 3.434c1.095.249.772 1.332.508 2.381-.678-.493-1.017-1.187-.508-2.38zm5.685-17.644c-.649-.05-.117-2.131.714-1.315-.118.641-.62.63-.714 1.315zm6.436-23.449c.003-1.308 1.3-.303 1.495.012-.232.45-.954.064-1.495-.012zm3.499 2.405c.276 1.25-2.478.647-.714 1.315-.313.24-.534.58-.624.963-.992-.625-1.092-1.568-2.107-.546-.383-1.179 2.138-1.744 3.445-1.732zm-2.434-3.629c.027-.967.469-1.227 1.326-.78-.459.23-.444 1.267-1.326.78zm-5.849 26.974c-.952-.565.686-.766.454-1.756.597.244.645.811.34 1.587-.394-.163-.645-.084-.794.17zm6.619-24.15c1.023-.701 2.14-.134 2.808.726-.816.84-1.453-.902-2.808-.727zm2.506-5.35c-.698-.283.007-1.394-.69-1.677.185-.36.76-.058.883-.521-.203 1.43.813.458-.193 2.199zm-9.706 36.097c-.397-.163-.13-.717-.078-1.145.592.048.518.489.962.624-.186.359-.76.057-.884.52zm3.191-13.793c.435.438.977.814.69 1.678-.435-.438-.977-.814-.69-1.678zm11.812-35.549a1 1 0 0 1 .43 1.235c-.792-.03-.54-.674-.43-1.236zm-18.189 73.256c-.836-.369.149-1.679.975-.873-.32.299-.901.155-.975.873zm3.985-13.963c-.777-.138.162-1.287.102-1.847.777.138-.163 1.287-.102 1.847zm6.46-26.44c.503-.993.664.53 1.404.363-.186.36-.76.058-.884.521-.359-.185-.057-.76-.52-.884zm-10.131 44.983l-.182.703a1.71 1.71 0 0 0-.962-.624c.063-.736.355-1.08.974-.872-1.021 1.041.163.01.17.793zm4.474-20.207a1.595 1.595 0 0 1 1.586-.34c-.244.596-.81.645-1.586.34zm15.598-57.437a1 1 0 0 1 1.235-.43c-.048.594-.488.52-.624.964-.266-.14-.258-.443-.61-.534zm-13.83 56.395c-1.174-.943.913-.381.976-.872 1.174.942-.912.38-.975.872zm7.448-28.81c.304-.715 1.684.355 1.223 1.067-1.208.117-.71-.772-1.223-1.066zm-12.545 49.98c1.029-1.272 1.239 2.092 1.586-.339 1.358.472-.541 1.02.339 1.587a1.595 1.595 0 0 1-1.586.34c.305-.776.257-1.343-.34-1.588zm1.3 2.211c-.312.24-.532.58-.622.964-.939-.359-.426-1.412.623-.964zm.207-3.695c-.717-.037-.1-1.732.624-.963l-.182.703c-.282-.142-.367.051-.442.26zm18.178-71.76a2.09 2.09 0 0 0 1.688-2.188c1.256-.58-1.098 2.821-.375 2.902-.623.987-.832-.647-1.313-.715zm-.54 12.228c-1.004-.357-1.284.516-2.288.158.19-.732 3.228-.726 1.507-1.484 1.038-1.204 1.824.132.78 1.326zm-12.758 43.553c-.76-.84.864-1.863 1.858-1.393-.69.36-1.318.831-1.858 1.393zm1.998-7.73c.43.249.613.775.43 1.236-.792-.029-.54-.674-.43-1.235zm1.35-3.773c.244-.43.761-.392.975-.872.837.369-.331 1.367-.975.872zm9.433-35.042c1.302 1.278.971-1.157 1.599-1.835.725.781-.493 2.495-.818 3.162-.23-.46-1.267-.445-.78-1.327zm1.726-6.675c.004-.73 2.07-.813 1.404.364-.546-.766-.454-.084-1.404-.364zm-9.64 38.737c.049-.593.49-.519.624-.963.717.037.1 1.733-.624.963zm.806-1.666c-.797-.441.273-1.823 1.065-1.223.14 1.249-1.205-.026-1.065 1.223zm8.277-33.467c.037-.718 1.731-.099.962.624l-.702-.182c.142-.281-.051-.366-.26-.442zm-4.826 20.117c.297-.257.587-.519.182-.703.012-.315.222-.296.442-.26l.702.181-.273 1.054-1.053-.272zm-9.949 44.28c.611-.898 1.467.482 2.107.545-.709.955-1.109-.694-2.107-.546zm10.717-41.458c.798-.919 1.507.666 1.132 1.418-1.468.171.338-1.588-1.132-1.418zm4.438-15.717c-.717-.037-.099-1.733.624-.963l-.181.702c-.282-.142-.367.052-.443.26zm.188 9.42c.614 1.407-2.39.974-2.313 3.149-.124-.622-.978-.813-.69-1.678 1.146-.245 2.009-.97 3.003-1.472zm-.29-7.573c.448.232.063.955-.013 1.497-.788-.31-.564-1.148.013-1.497zm1.998-7.729c.477.492.565 1.147-.013 1.496-.788-.309-.564-1.147.013-1.496zm-12.818 51.032c-.397-.163-.13-.717-.079-1.144l1.404.363c-.163.397-.716.13-1.144.079l-.181.702zm9.433-35.041c-.485-.21.149-1.08-.43-1.236.186-.36.76-.058.884-.521.952.564-.502 1.077-.454 1.757zm1.247-1.927c.233-.997 1.97-.182 1.664.806-.45-.82-1.133.153-1.664-.806zm-8.459 34.17c.186-.359.76-.058.884-.52.316.012.296.222.26.441l-.182.703c-.592-.048-.518-.488-.962-.624zm.454-1.756c.048-.594.488-.52.624-.964.717.037.1 1.733-.624.964zm2.09-8.081c.036-.718 1.731-.1.961.624l-.701-.182c.141-.282-.051-.367-.26-.442zm2.766-4.906c.247.368.395.793.43 1.235.393.163.644.084.793-.17.734.485-.221 2.264-1.157 1.575 1.327-.816-1.187-1.05-.066-2.64zm-4.553 19.061c-.034-1.068.73-.782.804-1.666.59.087.116 2.482-.804 1.666zm5.812-22.485c.512.294.014 1.183 1.223 1.066a1 1 0 0 1-1.235.43 2.04 2.04 0 0 1 .012-1.496zm-.297 4.046c-.837-.369.332-1.367.975-.871-.243.429-.761.392-.975.871zm.739-4.306c.603-.715.168-.96 1.157-1.575 1.206.414-1.037 1.391-.013 1.496-.012.316-.223.296-.442.26l-.702-.181zm4.359-16.863c.386-.68.74-.603 1.144-.079l-.181.703c-.593-.048-.519-.489-.963-.624zm-7.744 32.855l.182-.702c.792.03.539.675.43 1.235-.268-.14-.26-.443-.612-.533zm-1.92 8.874c.46-.23.445-1.267 1.327-.78-.46.23-.445 1.267-1.326.78zm-4.746 21.262c-.567-.834.33-3.455 1.78-2.538-1.528.276-1.033 1.69-1.78 2.538zm3.735-15.9c.245-.597.812-.645 1.586-.34-.819.45.153 1.134-.804 1.666-.654-.21.056-1.225-.782-1.326zm.806-1.667c.048-.593.488-.519.624-.963.358.186.057.76.52.885-.164.397-.717.13-1.144.078zm-.66 5.452c-.91-.935 1.382-.637 1.246-1.926.73.004.813 2.07-.363 1.405-.162.394-.084.646.17.794-.382.537-.864.01-.612-.533-.281-.142-.366.05-.441.26zm2.965 3.017c-.32.298-.901.154-.974.872-.379-.688-1.468-.797-1.586.34-.878-.08.608-1.55-.781-1.327.172-.767 3.267.896 2.028-.6.623-.988.833.646 1.313.715zm-1.264-6.7c.434.439.976.814.69 1.678-.435-.438-.977-.814-.69-1.678zm.702.182c.063-.736.356-1.08.974-.872l-.272 1.054-.702-.182zm5.945-17.203c-.836-.368.149-1.678.975-.872-.321.298-.902.154-.975.872zm-3.917 16.603c.393.428.523 1.037.338 1.588-.595-.245-.644-.812-.338-1.588zm6.453-14.822c-1.555-.825-1.976.918-1.156 1.575.765-.547.084-.455.363-1.405.293-.008.695.17.793-.17zm-5.412 16.592c.232-.45.954-.065 1.495.011-.309.79-1.147.565-1.495-.011zm1.544-5.973c.522-1.19 1.984.08 1.132 1.417-1.207.017-.493-1.1-1.132-1.417zm-.116 3.343c.445.433.216 1.263.249 1.939-1.095-.706-.728-.632-.249-1.939zm7.811-30.214c.62.082.755.835 1.053.273.315.012.296.223.26.442l-.181.703c-.944-.139-1.477-.52-1.132-1.418zm-12.48 52.621c.244-.43.762-.393.975-.872.838.369-.33 1.367-.974.872zm6.086-23.54c1 1.118 1.386-.707 1.574 1.158-.485.735-2.262-.221-1.574-1.157zm5.177-20.025c.163-.397.716-.13 1.143-.079-.062.737-.355 1.081-.974.873.013-.316.223-.296.442-.26.079-.345-.36-.385-.611-.534zm-2.466 10.982c.23.46 1.267.445.781 1.327-.23-.46-1.267-.445-.78-1.327zm-1.023 6.857c.244-.596.81-.644 1.586-.339a1.595 1.595 0 0 1-1.586.34zm4.244-13.52c-.833-.651.45-1.872 1.416-1.132-.317.64-1.432-.075-1.416 1.132zm-4.723 18.27c.119-.643.622-.63.715-1.315.648.048.117 2.13-.715 1.314zm5.776-17.997c-.37 1.304-.652.9-.545 2.108-1.226.22-.42-2.896.545-2.108zm-6.89 25.205c.313-.24.533-.58.624-.963.216 1.026.979.974 2.015.896l-.363 1.406c-.718-1.785-1.117-.159-1.066 1.223-2.119-.457 1.174-2.262-1.21-2.562zm1.726-6.676c.861.743.663 2.109-.024 2.993-.465-.72-.352-1.778.024-2.993zm2.428-6.493c-.65-.049-.118-2.13.714-1.314-.042.772-.481.867-.714 1.314zm-1.479 8.614c.675-.37.775-1.719 1.078-2.72.394.163.645.084.793-.17.485.21-.148 1.08.43 1.236-1.095-.006-.979 2.045-2.3 1.654zm5.413-16.592c-.312.638-.215 1.4.248 1.939.277-.858.506-1.688-.248-1.939zm.69 1.678l.182-.702c.239.312.579.533.962.624-.385.679-.74.602-1.144.078zm-5.928 25.83c.628-.115.365-1.741 1.417-1.134-.627.115-.365 1.74-1.417 1.133zm6.049-19.051a.999.999 0 0 1 1.234-.43c-.047.593-.488.519-.623.963-.267-.14-.259-.443-.611-.533z"/><path d="M472.871 404.568c.299.321.155.902.872.976-.164.397-.717.13-1.144.078l.272-1.054zm-.412 7.39c.116 1.21-.772.712-1.065 1.224-.797-.441.273-1.823 1.065-1.223zm-45.454-55.997c-.37 1.304-.652.9-.544 2.108-.64-.318.074-1.434-1.133-1.418.622-.124.813-.979 1.677-.69zm-5.352 30.849c-.307-.86.318-1.445.636-2.46.449.233.064.956-.013 1.497.282.142.367-.051.442-.26.87.563-1.005.578-1.065 1.223zm10.953-38.022c.396.163.13.717.079 1.145-1.937.458-.731.144-.08-1.145zm-2.895 9.747c.83-.498.266-.872.454-1.756 1.338-.166-.19 2.854 1.04 1.768.536.925-.603.38-1.494-.012zm-5.85 26.974c.275-.642 1.95 1.012.781 1.327-.653-.211.057-1.225-.78-1.327zm10.36-29.93a1.16 1.16 0 0 1 .103-1.847c-.113.437.609 1.248-.103 1.848zm1.688-2.186c-.885.712.113-.594.273-1.054.495.39 1.132.555 1.755.454-.512.311-.718 1.14-.896 2.018-1.2-.429.688-2.34-1.132-1.418zm2.56-1.211c-.428-.244-.392-.762-.87-.976.21-.485 1.079.15 1.234-.43.883.32-.638.48-.363 1.406zm1.677-.69c-1.108-1.12 1.135-.712.897-2.017.339.097.16.5.169.793.36-.158.765-.185 1.144-.079-.14.267-.443.26-.533.612-.078.344.36.384.612.533a1.595 1.595 0 0 1-1.586.34c1.217-1.129-.412-1.55-.703-.183zm-5.316 26.36l.182-.702c.281.142.366-.05.441-.26.592 1.679.179.878 1.314.715l-.273 1.054-1.052-.273-.182.703a.37.37 0 0 1-.21-.43.37.37 0 0 1 .392-.273c.078-.344-.36-.384-.612-.533zm10.705-39.96l.272-1.053c.837.102.128 1.116.78 1.326-.287.482-.413-.255-1.052-.272zm2.96-7.104c.49.063.24 1.968.872.975.339.098.16.5.17.793-.282-.141-.368.052-.443.26-.273-.632-.792-1.12-.6-2.028zm-10.039 44.629c.402-.743.438.568 1.144-.078.082-.744-.772-.935-.69-1.678.682-.574.375 1.943 1.743 1.95a.368.368 0 0 1-.429.21.37.37 0 0 1-.273-.392c-.583.322-.962.878-1.495-.012zm1.622-4.827c-.842-.378.597-.917 1.235-.43.034 1.068-.73.782-.805 1.665-.942-.57-.259-.628.012-1.496-.281-.142-.366.051-.442.26zm-.412 7.39a.369.369 0 0 0 .181-.704c-1.16.553-.765 1.255-.193 2.2.25-.644-.195-.878.012-1.497zm-.163 9.328a.991.991 0 0 0 .429 1.236c.986.25-.588-1.175.884-.52-.119.64-.622.629-.715 1.313-.722-1.311-3.229.174-2.887-1.872 1.08 1.348 3.018-.08 1.677-.69.433-.445 1.262-.216 1.937-.248-.306.442-.79.728-1.325.781zm-3.3 5.518c-.14-1.249 1.206.026 1.065-1.223.716.303-.354 1.685-1.065 1.223zm7.605-26.519c.17-.381.402-.104.35.091.394.163.645.084.794-.17.38.17.103.404-.091.352-.142.282.05.367.26.442-.17.382-.403.104-.35-.09-.345-.08-.385.359-.534.611-.485-.21.15-1.08-.43-1.236zm8.603-30.384c-.995-1.188 1.697-2.06 2.119-.95-.243.394-1.833-.616-2.12.95zm-14.532 56.213c.622-.125.813-.979 1.677-.69-.438.435-.813.977-1.677.69zm5.492-15.446c-.38-.17-.104-.403.09-.352-1.458-.803.718-3.768 2.132-2.447-.317.22-.796.821-.273 1.054-.377.843-.916-.597-.43-1.235-.403-.012-.418.636-.883.52-.617 1.186.352 1.905-.636 2.46zm8.834-37.071c-.849-.99 1.81-.255 1.598-1.836.945 1.154-1.1 1.46-1.598 1.836zm-1.18 4.567c-.056-1.274 1.233-.264 1.936-.249-.158.491-.314.98.079 1.146-.78.608-.582-1.64-2.015-.897zm-14.102 57.448c-.008-1.025.88-.527 1.065-1.223.21.287.267 1.635-1.065 1.223zm7.9-30.565c1.322-.728-.248 1.334.34 1.587-1.222.895.041-1.689-.34-1.587zm1.26-3.423c.403.015.993-.36.533-.612-.542.423-1.614 1.16-.454 1.757.106-.38.079-.784-.078-1.145zm7.254-26.61c.266-.519.539.468.793-.17.86.28-.205 1.217-.364 1.406-.484-.21.149-1.08-.429-1.236zm1.635-6.324c.658-.747.749 1.317 1.483 1.509-.49.648-1.102-1.11-1.483-1.509zm.545-2.107c.943-1.043 1.968.983 2.118-.952.698-1.032.154 1.047-.012 1.497 1.426-.81-.316 1.178 1.053.273.987.622-.463 1.143-.714 1.314-.453-.193-.277-1.629-.702-.182-.363-1.27.225-2.213-1.743-1.95zm-13.751 57.538c.37.112.934.065.442-.26-1.047-.556-1.316 2.22-.273 1.054-.253-.149-.332-.4-.17-.794zm11.327-40.923c-.432.52-.297-1.788-.508-2.381.745.87 1.13.178.975-.872l2.106.545c-2.162 1.496-1.226.889-2.573 2.708zm-4.36 16.864c-.282.564.103.733.521.884-.313.24-.533.58-.623.963-.298-.32-.154-.901-.872-.975l.363-1.406c.316.013.296.223.26.443.354-.075.708-.146.885-.521.38.17.103.403-.091.351-.142.282.05.367.26.442-.288.47-.299-.115-.702-.181zm3.464-14.847c-.486-1.07 1.007.69 1.665.806-.21.485-1.08-.15-1.235.43-.381-.17-.104-.403.091-.351-.075-.354-.146-.709-.52-.885zm-12.804 49.537c.312-.24.532-.58.623-.963 1.363.468-.708 1.118.78 1.327-.502.992-.663-.53-1.403-.364zm9.372-27.56c.82 1.207-.276 2.19-.116 3.343-1.366-.655.557-1.4-.157-2.29-.504-.015-.519.804-.714 1.314-2.304-1.175-1.34-1.117.987-2.368zm3.033-16.083c-.256-.297-.518-.587-.702-.182-.952-1.008 1.451-.52 1.768-1.042.787.426-1.087.44-1.066 1.224zm-10.25 38.204c.308-.223 2.404.137 1.326-.782.459-.967.407.68.962.624-.48.535-1.397.324-2.028.6a1 1 0 0 0 .872.975c-.186.36-.76.058-.884.52-.445-.432-.216-1.262-.248-1.937zm9.07-33.637l.272-1.054c.027.878 1.462.925 1.392 1.86.59-.009.585-1.028 1.586-.34-1.483 1.217-1.357.062-3.25-.466zm9.62-25.622c-.64-.319.074-1.434-1.132-1.418 1.57-1.074-.109-2.14-.769-2.823.88-.784 1.023 1.359 2.718 1.079-1.255.483-.672 1.77-.817 3.162zm-1.465 7.117c.034-1.227.129 1.473-.013 1.496-.85 1.118-1.66-.831-2.119.95l-1.404-.363c1.587-.534 1.096-1.48 2.482-2.356.987.624-.645.833-.714 1.315a1.363 1.363 0 0 0 1.768-1.042zm-1.9-4.24c.169-.382.401-.104.35.09.426.05.462-.564.624-.963.45.82 1.133-.152 1.664.806.344.079.383-.36.533-.612.86.28-.205 1.217-.363 1.406a2.363 2.363 0 0 0-1.665-.806c-.208.619.238.852-.012 1.496-1.208.017-.182-1.283-1.132-1.417zm-7.2 30.747c-1.708.365 1.065-1.225.702.182-.15.58-.414-.244-.702-.182zm5.8-20.989c-.344-.079-.383.36-.532.612-.777-.138.162-1.287.102-1.848.838.102.128 1.116.78 1.327-.169.381-.401.104-.35-.091zm-13.702 51.554c.624-.988.833.647 1.314.715.362-.81-.444-.93.103-1.847.706.358.798-.33.974-.873 1.028 1.389-.695 1.816.236 3.435.795-.293 0-1.664.987-2.368.906 1.492.006 1.947-.025 2.992a1.709 1.709 0 0 1 1.145-.078c-1.052.212-1.152 1.252-1.508 1.483.202.395.502.731.872.976-1.141-.265-.791 1.105-2.56 1.211.54.246.525-1.899.453-1.757.2-.394 2.224-.99.896-2.017-1.224.744-2.52-.982-2.82.77-1.646-.692 1.773-1.62-.067-2.642zm17.802-68.86c.893-.375 1.357.15 2.016.897-.146.536-1.611-.605-2.016-.897zm-6.642 27.143c.059-.655 1.367.33.872.976-.829-.009-.327-.8-.872-.976zm3.348-11.503c-.987-.623.646-.833.715-1.314.804.313-.645.834-.715 1.314zm-10.209 43.838c-1.54-1.23-.798 1.874-1.078 2.72.381-.648 1.168-1.614.285-2.55.292-.01.695.169.793-.17zm14.156-53.311c.533.631-1.126-.05-1.405-.364.082-.62.834-.755.272-1.054 1.237-.529.287 1 1.133 1.418zm-9.058 32.14c-.663-.213.716-1.07.545-2.108 1.158.507-.148 1.411-.545 2.108zm4.976-6.209a24.218 24.218 0 0 1-2.796-2.223c-.092-1.503 1.242-.585 1.507-1.484.607.635 1.635 1.021 1.301 2.211-.272-.3-1.084-1.153-1.144.079-.083.582 1.816-.14 1.132 1.417zm-2.445-2.132a1.7 1.7 0 0 1 .962.624c.305-.775.257-1.342-.339-1.587-.075.209-.16.402-.442.26l-.181.703zm3.542-13.702c-.904-1.407 1.835-.267 1.755.455 1.07.391-.63-1.246.623-.963.593-1.157-.692 2.184.872.975 1.06 1.191-1.607.256-1.768 1.042-.155-.7-.524-1.99-1.313-.715-.559-.42.115-.652.273-1.054-.282-.142-.367.051-.442.26zm-12.455 49.628c.5.1.136 1.125.611.533-.595-1.003.837-1.145 1.768-1.041-.07.439-.11.859.52.884.382-1.619-2.589-1.812-2.899-.376zm2.543-9.837c.098-.339.5-.161.793-.17.006-.301-.262-.44-.17-.793.326-.493.373.073.26.442.394.163.645.084.793-.17.977.896-1.125.727-1.676.691zm8.434-31.177c.472.317.75.749 1.222 1.066 1.368-.657-.622-1.616.636-2.46.22.318.82.797 1.054.274.43 1.159-1.895 4.568-2.912 1.12zM442.4 409.424c.318-.472.748-.75 1.065-1.223.506-.054-.296 1.783-1.065 1.223zm11.849-40.039c-.37-.051-.318-1.7-.963-.624-1.248-1.358 1.556.005 1.677-.69.65 1.363.478 2.056.678 3.174 1.576.15 2.279-1.184 3.704-1.29-.607.485-1.082 1.194-2.118.95-.033.715 1.289.63.69 1.679-.654-.064-.635-.518-.26-.442-.492-1.572-1.077-.108-2.458-.637.495-.644-.503-1.813-.872-.975-.75-.512 1.191-.615.896-2.017-.394.202-.73.502-.974.872zm-.6-2.029c-.868-.564 1.007-.578 1.066-1.224.315.013.296.223.26.443l-.181.702c-.49-.16-.98-.315-1.144.079zm.104-1.848c.17-1.055 1.744-.94.454-1.756 1.513-1.251.579 1.417 1.04 1.768-.442.452-.5-.232-1.494-.012zm-10.015 41.639c-.09-1.668 2.412-.228 2.3-1.654.316.013.296.223.26.442.344.08.384-.36.533-.611.449.232.064.955-.012 1.496-1.664-.229-1.78-.446-3.081.327zm18.358-72.464c.17-.382.403-.104.35.09 2.028-.42 3.816-.9 1.315.715a2.358 2.358 0 0 1-1.665-.805zm.714-1.315c-1.14.862.647-.909-.169-.793.564-.886 1.213 1.187 1.326-.782.63.422.693 1.18.598 2.03-.608-.304-1.044-.866-1.755-.455zm-4.007 16.954c-.886.713.113-.594.272-1.054 1.706 1.16.338.212-.272 1.054zm-12.66 53.324c1.211.351 2.717-.41 3.534-2.084a15.893 15.893 0 0 1-3.535 2.084zm9.305-30.202c-.546.42-1.236.596-1.508 1.484-.358-.186-.057-.76-.52-.885.318-.64 1.433.075 1.416-1.132.783.134 1.043.576.781 1.327-.338-.099-.16-.501-.169-.794zm6.394-29.082c.075.353.146.708.52.885-.278.86-1.215-.206-1.404-.364.186-.697 1.074-.199 1.066-1.224a.367.367 0 1 1-.182.703zm-11.275 45.061c-.714-.3.684-1.125 1.325-.781.223 1.39-1.246-.097-1.325.781zm5.825-23.981c.163-.397.717-.13 1.144-.079-.533 1.009.338 1.19-.194 2.2-.626-.062-1.574.391-1.314-.716 1.178 1.588 1.35-1.014.364-1.405zm2.155-5.44c-.906-.771.884-.058.17.794.281.142.366-.051.441-.26.34.098.162.5.17.793-.282-.142-.367.051-.442.26-.596-.244-.644-.811-.339-1.587zm-9.864 55.547c-.07-.879-1.128-2.884-1.833-1.6-.653-.21.057-1.224-.781-1.326.207-.675 1.312 1.13 1.326-.781-1.05.375-1.223-.888-1.587.339-1.195-.42.276-.943-.429-1.236a3.585 3.585 0 0 1 2.457.636c-1.02 2.173 1.548 1.774 2.004 2.393-1.793.308-.241.232-.896 2.017l-.26-.442zm.147-17.955c.23.46 1.267.445.78 1.327-.266-.14-.258-.443-.61-.533-.007.302.261.441.169.793-.419.785-.685-.943-.339-1.587zm15.13-54.183c.106 1.232 1.09-.078.975-.872.182.687.905 1.056 1.483 1.509-1.145.153-2.12-.498-2.651 1.562-.339-.098-.162-.5-.17-.793-.36.157-.765.185-1.144.078a15.161 15.161 0 0 1 1.598-1.835c.382.17.104.403-.09.351zm-15.047 65.45c-.442-.632-.543-1.466-1.834-1.599.396-.331.652-.801.714-1.314.68.385.603.74.08 1.145a.99.99 0 0 0 1.234-.43c.559.419-.114.651-.273 1.054 1.186.675.772-1.768 1.586-.34.543-1.014-1.1-.741-.248-1.938-.88-.486-.866.55-1.325.781-.987-.623.645-.832.714-1.314 1.292.132.542 1.467 1.834 1.6-.205 1.842-2.059.883-2.482 2.355zm2.713-9.043c.318 1.246.205 2.193-1.339 2.277-.283.564.103.734.521.885-.185.36-.76.057-.884.52-.734-.484.221-2.263 1.157-1.574-.893-1.033-1.175-1.964-.757-4.32.95.28.858-.402 1.404.364.294-1.312-.282-1.016-1.222-1.066.744-.42 1.252-1.244 2.47-.86-.217.903-.372.36-.794.17-.207.618.239.852-.011 1.496.84.03 1.213-1.524 1.936-.249-.873.877-2.728.084-2.833 2.266.701-1.104.973-.148 1.417-1.133 1.309.765-.284 1.18-1.065 1.224zm.866-9.147c.075.353.146.708.52.884-.288.482-.413-.254-1.053-.272.048-.593.489-.519.624-.963.381.17.103.403-.091.351zm12.563-41.354c-1.084-.936-.924.011-2.197-.194 1.073-2.12 2.66.787 2.482-2.356.544.856.31 1.708-.285 2.55zm-6.115 16.41c.294-.513 1.182-.015 1.065-1.224l.703.182c-.142.282.05.367.26.442-.633.274-1.12.793-2.028.6zm-10.91 43.655a4.299 4.299 0 0 0 3.444-1.732c.784.332 1.586.653 1.04 1.769-.963-2.027-1.04 1.028-3.431.236-.287.864.255 1.24.69 1.678-1.046.788-.943-1.609-1.744-1.95zm10.957-27.9c-.079.344.36.384.612.533-1.11 1.149-1.049 2.185-2.404 3.502-.442-1.695-2.467-.66-1.912-2.745.198.777 1.49.909 1.834 1.6.673.132.543-1.099 1.326-.782-.763-1.403.278-2.028 1.168-3.07.717.036.1 1.732-.624.962zm-2.9-.376c.707.28-.302 1.569.25 1.939-.425.4-1.11-1.33-.25-1.939zm5.686-17.645c-.232.45-.954.064-1.495-.012.257-1.25 1.485-.848 1.949-1.744 1.036.38-1.618 1.157-.454 1.756zm-1.87 2.89c.775.305 1.341.257 1.585-.34.419.684 1.155 1.965.067 2.642-.54-.576.239-1.928-1.392-1.86-.043 1.695-.812 1.273-.26-.442zm-4.67 22.406c-.343-.079-.382.36-.532.612-.743-.35.207-1.935.545-2.108.24.313.58.533.963.624-.237.272-.471.548-.885.52.318.513-.092.927-.09.352zm-3.904 15.108c-.175.7.843.695.34 1.587l-1.054-.272c.82-.451-.152-1.134.805-1.666.382.17.104.403-.09.351zm1.83-8.523c.288-.69 1.127-.443 1.416-1.132.654.058-.33 1.368-.975.872a1.84 1.84 0 0 0 .78 1.327c-.82 1.022-.836-.854-1.222-1.067zm9.614-35.744a.367.367 0 1 0 .703.182c.518.266-.468.538.169.793-.232.449-.955.064-1.495-.012.04-.773.48-.868.714-1.315.38.17.104.403-.091.352zm-1.453 5.62a6.823 6.823 0 0 1 2.38-.508l-.364 1.406c-.668-.958-.619-.696-2.016-.897zm-10.803 51.931c.361-.229 1.015.04 1.235-.43.777.138-.164 1.287-.103 1.848-.485-.21.149-1.08-.43-1.236l-.702-.182z"/><path d="M439.531 369.577c-.508.231-.687-1.16.086-.887l.126.55c-.245.002-.234.166-.212.337zm-4.018-21.356c-.014.383-.384.543-.36.95-.71.045-.26-1.062.36-.95zm.566 2.474c-.028-.41.799-.284.699-.739.806.082-.187.948.377 1.65-1.07.049-.005-.96-1.076-.911zm10.024 42.547c-.028-.41.798-.284.698-.738.954.108-.085.845-.698.738zm-3.333-14.57c-.115-.693.911-.293 1.098-.251.008.864-.647-.129-1.098.251zm1.39 2.286c.844-.22 1.008.642 1.201 1.46-.644-.098-1.126-.454-1.201-1.46zm5.203 20.217c.093-.592.735-1.209 1.248-.865-.14.462-.793.6-1.248.865zm-7.587-34.426c-.465.198-.842-1.428.023-1.163.148.485-.203.657-.023 1.163zm-3.94-18.482c-.465-.904.79-.675 1.037-.527 0 .393-.636.386-1.036.527zm3.274.407c.638.764-1.478 1.333-.023 1.163-.13.277-.16.59-.086.887-.907-.076-1.313-.69-1.648.378-.686-.677.851-1.969 1.757-2.428zm-2.976-1.633c-.327-.676-.115-1.014.636-1.013-.234.323.147 1.033-.636 1.013zm5.605 20.704c-.86-.049.199-.773-.315-1.374.5-.045.735.33.802.974-.33.028-.475.172-.487.4zm-4.066-19.03a1.595 1.595 0 0 1 2.197-.504c-.262.872-1.324-.102-2.197.504zm-.183-4.587c-.582.054-.492-.965-1.075-.911 0-.314.503-.312.423-.676.371 1.06.725.025.652 1.587zm6.204 28.378c-.332.03-.346-.448-.463-.762.426-.18.532.152.887.086 0 .314-.504.312-.424.676zm-2.727-10.658c.456.146.964.212 1.075.91-.456-.147-.965-.212-1.075-.91zm-4.556-28.757c.385.017.7.314.738.698-.557.263-.613-.272-.738-.698zm14.93 63.99l-.126-.55c.556-.263.613.273.738.699-.234-.002-.337-.213-.612-.15zm-1.298-6.936c-.709.046-.498-1.21.36-.95-.114.32-.566.429-.36.95zm51.546-91.367s-2.688-38.364 46.281-44.104v31.714"/><path d="M551.296 286.388c-3.298-.032-2.866-2.883-3.446-4.966-1.005-1.495-1.48-3.39-2.051-5.21-.292-1.077.911-.787.812-1.692-.76-2.754-.411-4.314-1.205-7.471a13.474 13.474 0 0 0-.494-7.737c-.11-1.822.777-2.735.665-4.557l-.02-.08 4.815 4.287a9.113 9.113 0 0 0-3.416 2.617c-1.532-.649-3.414-.624-4.853-1.526-1.153.014-1.36.849-2.238 1.09-.941.117-1.426-.77-2.367-.586-.79.278-.984 1-1.554 1.424-.644.21-1.29.472-1.953.73-.66.263-1.345.511-2.001.815a11.852 11.852 0 0 0-3.5 2.4c-.877.31-1.713.725-2.489 1.237-.41.259-.824.532-1.24.813-.403.297-.792.624-1.192.942-1.621 1.26-3.08 2.764-4.633 4.056-.336.61-1.06 1.153-.987 1.815a8.47 8.47 0 0 0-4.215 3.727 9.628 9.628 0 0 0-1.315 5.21c-.882.463-.79 1.118-1 1.984a3.828 3.828 0 0 1-1.67 1.067 4.947 4.947 0 0 0-1.785.973 2.146 2.146 0 0 1-1.186 1.334c.426.799.401 1.784.667 2.637a6.167 6.167 0 0 0-1.194 3.479c-.147 1.236-.248 2.5-.926 3.456a1.347 1.347 0 0 1-1.582-1.263c-.158-.734-.109-1.584-.514-2.141.471-2.051-.192-3.078.172-4.379.035-.908-.943-1.33-1.628-1.904.211-.856.759-1.848.408-2.42.506-.876.42-1.474-.015-1.949.149-.743.83-.41.902-1.308a7.19 7.19 0 0 1 .45-2.288c.216-.769.3-1.502-.257-2.071.538-.15.901-.792 1.251-1.486.308-.763.41-1.594.3-2.41.45-.727.984-1.403 1.483-2.096.877-.966-.573-1.648-.166-2.564 2.088-1.963 3.821-3.759 5.574-5.449a21.1 21.1 0 0 1 5.886-4.154c.416-.452.866-.871 1.347-1.254.458-.335.915-.612 1.362-.893.448-.28.89-.557 1.326-.875.47-.32.918-.671 1.341-1.051 1.741-1.102 4.648-1.432 5.746-2.66a8.97 8.97 0 0 0 3.961-.676 19.77 19.77 0 0 0 2.043-.831c.679-.318 1.353-.674 2.02-.971 1.742.173 3.339-.894 5.384-1.224 2.185-.449 4.919-.323 7.158-.733a4.818 4.818 0 0 1 5.672 4.524l.02.544c.015.508.072 1.014.17 1.513-.098.82.058 1.874-.505 2.273 1.237 3.931.09 8.204.171 12.302-.757.22-.642 1.235-1.15 1.681-.376 1.184.575 1.369.528 2.304-1.725.25-1.97 1.847-2.631 3.068.213 2.018-.334 3.08.712 4.597.008.715-.592.878-1.113 1.11.576.558.12 1.892.145 2.866z"/></g><g fill="#DFDFDF" fill-rule="nonzero" transform="translate(56.01 132.224)"><path d="M57.762 265.896c10.92-2.526 19.178-5.643 21.526-9.46l.938-6.473a56.638 56.638 0 0 0-17.023-49.176c-19.723-18.75-47.788-52.206-61.128-99.873l-.002-.002 19.063 78.254a25.79 25.79 0 0 1 .276 10.998 233.987 233.987 0 0 0 20.04 21.64 56.634 56.634 0 0 1 17.023 49.176l-.713 4.916z"/><path d="M58.004 265.633c-.13.124-.12-.427-.07-1.526.029-.55.072-1.238.144-2.033l.124-1.254.11-1.311a58.822 58.822 0 0 0-.014-12.05 67.867 67.867 0 0 0-1.934-8.966 56.637 56.637 0 0 0-3.636-9.34c-.88-1.77-1.213-2.411-1.44-3.02a14.387 14.387 0 0 0-1.347-2.543 57.792 57.792 0 0 0-8.29-10.217c-3.005-2.912-6.257-5.975-10.37-10.234-4.456-4.886-7.552-8.555-10.679-12.314l-.306-.368.09-.491a23.846 23.846 0 0 0-.022-8.741 23.008 23.008 0 0 0-.356-1.6l-.458-1.734c-1.64-6.613-2.232-9.983-3.872-16.598a390.63 390.63 0 0 0-4.118-14.652c-1.131-5.58-2.807-12.846-3.655-17.544-.99-4.347-1.545-5.827-2.414-9.375-.862-3.663-.843-4.596-1.704-8.257-.786-3.195-1.316-4.705-2.013-7.318l-.732-2.983-.904-3.684 2.685 2.682.002.001.187.187.085.278 2.239 7.344c.357 1.256.814 2.489 1.255 3.732l1.328 3.733c.84 2.508 1.915 4.923 2.887 7.328.506 1.195.966 2.396 1.503 3.548l1.602 3.397c5.7 13.253 15.249 29.149 25.622 42.79l2.892 3.625c.96 1.208 1.864 2.31 2.54 2.995a173.614 173.614 0 0 0 15.622 17.57c1.426 1.395 2.837 2.707 4.251 4.12.694.713 1.438 1.37 2.077 2.112l1.945 2.169a65.47 65.47 0 0 1 6.282 8.926c.366.785.715 1.505 1.062 2.2.342.697.622 1.396.947 2.092.667 1.383 1.22 2.881 1.92 4.72.402 1.418.772 2.59.983 3.661.21 1.072.387 2.009.535 2.92l.321 2.771c.124.962.155 2.014.28 3.237.165 1.371.172 2.658.231 3.75.011.883-.023 1.764-.102 2.643l.06 1.064c.006.372-.008.759-.013 1.158-.019.798-.03 1.646-.07 2.509-.155 1.718-.306 3.521-.506 5.102a224.366 224.366 0 0 0-.802 4.693l-.026.164-.072.105a13.42 13.42 0 0 1-4.954 4.044 41.516 41.516 0 0 1-5.817 2.494 74.835 74.835 0 0 1-5.83 1.762 73.93 73.93 0 0 1-2.788.671l-.69.153c-.27.056-.544.106-.817.144-.546.078-1.067.107-1.526.142.17-.105.896-.257 1.876-.542l3.458-1a59.898 59.898 0 0 0 7.455-2.543 29.899 29.899 0 0 0 5.544-2.66 10.422 10.422 0 0 0 3.342-3.125l-.023.065c.226-1.75.439-3.365.715-5.177.17-1.146.254-2.303.25-3.462a18.644 18.644 0 0 0-.12-2.085 42.53 42.53 0 0 0-.102-8.457c-.018-.849-.14-1.597-.215-2.266a69.368 69.368 0 0 0-.243-1.77 22.685 22.685 0 0 0-.574-2.265c-.225-1.255-.367-1.791-.466-2.396-.056-.3-.116-.616-.21-1.036a12.756 12.756 0 0 0-.474-1.659c-.367-1.012-.726-2.249-1.251-3.5l-.752-1.922-.858-1.871a24.864 24.864 0 0 0-3.032-5.182 33.56 33.56 0 0 0-3.399-5.232l-1.367-1.714-1.308-1.415a30.062 30.062 0 0 0-2.382-2.313c-1.93-1.999-4.085-3.972-6.043-6.033-3.003-3.138-2.688-2.223-4.883-4.51-6.126-6.773-11.37-13.153-16.177-19.565-1.178-1.62-2.398-3.192-3.522-4.826l-3.37-4.899c-2.14-3.339-4.33-6.672-6.32-10.242-2.367-3.711-4.037-6.971-5.77-10.083-.833-1.574-1.593-3.16-2.421-4.774-.818-1.619-1.698-3.271-2.53-5.1l-2.258-5.05c-.779-1.775-1.457-3.657-2.184-5.459-1.487-3.592-2.616-7.087-3.569-9.467l-.82-2.572-.794-2.802-1.793-6.057.318.544-.002-.002 2.087-1.174c1.287 5.314 2.753 11.052 4.157 16.483 1.212 5.596 2.846 11.673 4.551 18.703 2.267 9.346 5.014 21.36 7.278 30.124.703 2.99 1.673 6.807 1.89 8.29l.99 3.775a30.01 30.01 0 0 1 .83 4.017 26.38 26.38 0 0 1-.254 8.406l-.277-1.097a236.956 236.956 0 0 0 20.286 22.024 23.79 23.79 0 0 0 1.909 2.165c.822.987 1.723 2.046 2.228 2.727 1.341 1.808 2.188 2.796 2.867 3.766l1.069 1.442c.375.516.73 1.135 1.194 1.896.132.515.326 1.012.578 1.48.298.72.709 1.622 1.179 2.62.46 1.001.89 2.143 1.37 3.272.435 1.148.82 2.33 1.196 3.415.583 1.808 1.117 3.398 1.448 4.897.404 1.48.634 2.854.88 4.163.14.652.223 1.299.306 1.94l.27 1.922c.14 1.29.27 2.609.398 4.038.097 1.402-.01 2.81-.316 4.182.008.526-.01 1.235-.044 2.058-.051.822-.182 1.754-.292 2.736a37.137 37.137 0 0 1-.434 2.856l-.534 2.715z"/><ellipse cx="221.21" cy="45.685" rx="43.388" ry="43.42"/><path d="M257.043 20.266c-.549.33-1.845-1.094-3.633-2.942a45.439 45.439 0 0 0-6.406-5.617 64.341 64.341 0 0 0-5.66-3.122 41.982 41.982 0 0 0-6.56-2.52c-.76-.19-1.496-.465-2.196-.818a6.068 6.068 0 0 0-1.908-.673 47.374 47.374 0 0 0-9.187-.855 29.2 29.2 0 0 0-2.214.074l-1.148.077-1.187.136a35.756 35.756 0 0 0-5.307 1.048 35.265 35.265 0 0 0-9.5 3.374 36.648 36.648 0 0 0-7.863 5.636c-1.739 1.534-3.032 2.706-4.234 3.975a28.769 28.769 0 0 0-3.648 4.54 30.426 30.426 0 0 0-3.859 9.579 34.152 34.152 0 0 0-2.009 5.964 74.836 74.836 0 0 0-1.148 5.784 16.117 16.117 0 0 0-.053 1.978c.003.518.038 1.036.104 1.551.056.48.096.944.165 1.44.074.496.144 1.028.204 1.65.157 1.275.148 2.085.218 2.887.027.403.054.807.102 1.271.065.46.166.978.308 1.612a27.587 27.587 0 0 0 1.944 4.854 44.632 44.632 0 0 0 2.494 5.177 43.736 43.736 0 0 0 3.334 4.965 36.588 36.588 0 0 0 8.56 7.981 39.062 39.062 0 0 0 14.81 6.833 43.08 43.08 0 0 0 17.669.317c1.92-.362 3.792-.94 5.582-1.722a36.028 36.028 0 0 0 22.948-19.94 22.408 22.408 0 0 0 2.599-5.95c.351-.91.623-1.679.907-2.353.248-.684.498-1.279.734-1.862l.647-1.79c.188-.635.38-1.329.555-2.156.238-1.878.387-3.495.587-4.373-.16-2.26-.458-4.51-.892-6.734a31.874 31.874 0 0 0-2.366-9.767 67.474 67.474 0 0 0-4.461-8.822c.194-.074.541.207.984.708.22.251.469.553.723.899.243.353.5.744.763 1.155.55.809 1.018 1.757 1.515 2.61.435.884.896 1.681 1.223 2.299 1.04 2.57 1.64 4.48 2.143 6.151.237.841.47 1.619.628 2.414l.252 1.199.177 1.26c.19 1.356.562 2.68 1.102 3.937.119 2.247-.121 5.068-.079 6.25a31.94 31.94 0 0 0-.48 4.72c-.094.6-.26 1.188-.497 1.749a18.327 18.327 0 0 0-.597 1.975 33.367 33.367 0 0 1-1.852 5.52 31.345 31.345 0 0 0-1.67 4.197c-.582.705-1.532 2.291-2.68 3.864-1.336 1.933-2.356 3.282-3.278 4.563a45.15 45.15 0 0 1-4.656 4.283c-2.568 1.906-1.7 1.998-3.615 3.386a48.4 48.4 0 0 1-17.581 6.572c-5.86.973-11.86.7-17.609-.798a39.136 39.136 0 0 1-8.172-2.61 56.348 56.348 0 0 1-7.212-3.86 41.246 41.246 0 0 1-6.447-5.46c-2.011-2.064-3.7-4.19-4.913-5.654a67.701 67.701 0 0 1-4.696-8.915 49.653 49.653 0 0 1-3.285-10.869 72.676 72.676 0 0 1-.424-6.73 41.46 41.46 0 0 1 .538-7.563 44.67 44.67 0 0 1 3.491-11.13 52.047 52.047 0 0 1 2.797-5.223c1.028-1.616 2.05-3.141 3.08-4.475.711-.894 1.585-1.862 2.37-2.712a14.25 14.25 0 0 1 2.036-1.805 40.131 40.131 0 0 1 14.025-9.254A46.394 46.394 0 0 1 221.037.422c.61.265 3.411.292 4.61.655 3.203.516 3.763.28 6.28.877.279.293.622.516 1.003.653.508.258 1.168.537 1.907.827 1.591.65 3.148 1.38 4.664 2.189a38.273 38.273 0 0 1 5.876 3.226c1.609 1.032 3.016 2.054 4.714 3.236a6.162 6.162 0 0 1 1.917 2.347 16.718 16.718 0 0 1 2.432 2.436c.444.552.916 1.125 1.36 1.704l1.243 1.694z"/><ellipse cx="347.153" cy="93.26" rx="43.388" ry="43.42"/><path d="M382.986 67.84c-.549.331-1.845-1.094-3.634-2.941a45.487 45.487 0 0 0-6.405-5.617 64.485 64.485 0 0 0-5.66-3.122 41.982 41.982 0 0 0-6.56-2.52 10.55 10.55 0 0 1-2.196-.818 6.068 6.068 0 0 0-1.908-.673 47.377 47.377 0 0 0-9.188-.855c-.726.004-1.46.013-2.213.074l-1.149.077-1.187.136a35.768 35.768 0 0 0-5.306 1.048 35.265 35.265 0 0 0-9.5 3.374 36.623 36.623 0 0 0-7.863 5.636c-1.739 1.534-3.032 2.706-4.234 3.975a28.712 28.712 0 0 0-3.648 4.54 30.379 30.379 0 0 0-3.859 9.579 34.239 34.239 0 0 0-2.01 5.964 74.79 74.79 0 0 0-1.147 5.784 16.106 16.106 0 0 0-.053 1.977c.003.52.038 1.037.103 1.552.057.48.097.944.166 1.44.074.496.143 1.028.204 1.65.156 1.275.148 2.085.218 2.887.027.403.054.807.102 1.271.065.46.165.978.308 1.612a27.587 27.587 0 0 0 1.944 4.854 44.47 44.47 0 0 0 2.494 5.177 43.736 43.736 0 0 0 3.334 4.965 36.568 36.568 0 0 0 8.56 7.981 39.062 39.062 0 0 0 14.81 6.833 43.079 43.079 0 0 0 17.669.317c1.92-.362 3.792-.94 5.582-1.722a36.028 36.028 0 0 0 22.948-19.94 22.408 22.408 0 0 0 2.599-5.95c.351-.91.623-1.679.907-2.353.248-.684.498-1.28.734-1.862l.647-1.79c.188-.635.38-1.329.554-2.156.239-1.878.388-3.495.588-4.373-.16-2.26-.459-4.51-.892-6.734a31.874 31.874 0 0 0-2.366-9.767 67.356 67.356 0 0 0-4.462-8.822c.195-.075.542.207.984.708.22.251.47.553.724.899.242.353.5.744.763 1.155.549.809 1.018 1.757 1.515 2.61.435.884.896 1.681 1.223 2.299 1.04 2.57 1.639 4.48 2.143 6.151.237.841.47 1.619.628 2.414l.252 1.199.177 1.26c.19 1.356.561 2.68 1.102 3.937.118 2.247-.122 5.068-.079 6.25a31.793 31.793 0 0 0-.48 4.72 7.511 7.511 0 0 1-.497 1.749 18.31 18.31 0 0 0-.597 1.974 33.49 33.49 0 0 1-1.852 5.52 31.224 31.224 0 0 0-1.67 4.198c-.582.705-1.533 2.291-2.68 3.863-1.337 1.934-2.356 3.282-3.278 4.564a45.262 45.262 0 0 1-4.656 4.283c-2.568 1.906-1.7 1.998-3.615 3.386a48.4 48.4 0 0 1-17.581 6.572c-5.86.972-11.86.7-17.609-.798a39.08 39.08 0 0 1-8.172-2.611 56.4 56.4 0 0 1-7.212-3.859 41.353 41.353 0 0 1-6.448-5.46c-2.01-2.064-3.699-4.19-4.912-5.654a67.701 67.701 0 0 1-4.696-8.915 49.653 49.653 0 0 1-3.285-10.869 72.699 72.699 0 0 1-.424-6.73 41.46 41.46 0 0 1 .538-7.563 44.67 44.67 0 0 1 3.491-11.13 51.844 51.844 0 0 1 2.797-5.223c1.027-1.616 2.05-3.141 3.08-4.475.711-.894 1.585-1.862 2.37-2.712.62-.665 1.3-1.27 2.036-1.805a40.131 40.131 0 0 1 14.025-9.254 46.394 46.394 0 0 1 16.858-3.184c.61.264 3.411.292 4.61.655 3.203.515 3.763.28 6.279.877.28.293.623.516 1.004.653.508.258 1.168.537 1.907.827 1.591.65 3.148 1.38 4.664 2.189a38.15 38.15 0 0 1 5.876 3.226c1.609 1.032 3.015 2.054 4.714 3.236a6.162 6.162 0 0 1 1.917 2.347 16.718 16.718 0 0 1 2.432 2.436c.444.551.916 1.125 1.36 1.703l1.243 1.695z"/></g><path fill="#333" d="M379.032 183.038c.062.431-1.76 1.04-4.154 2a44.62 44.62 0 0 0-7.622 3.89 56.553 56.553 0 0 0-5.081 4.064 41.979 41.979 0 0 0-4.847 5.19 18.582 18.582 0 0 1-1.54 1.8 8.524 8.524 0 0 0-1.28 1.59 45.815 45.815 0 0 0-4.224 8.316c-.264.686-.527 1.38-.749 2.113l-.354 1.11-.312 1.17a49.087 49.087 0 0 0-1.254 15.602 38.973 38.973 0 0 0 2.342 9.523 54.035 54.035 0 0 0 2.246 5.447 32.137 32.137 0 0 0 2.99 5.09 33.74 33.74 0 0 0 7.45 7.362 36.28 36.28 0 0 0 5.002 3.983 58.93 58.93 0 0 0 5.123 3.054 19.32 19.32 0 0 0 1.847.768c.489.19.987.355 1.493.492.934.29 1.818.492 3.038.826 1.264.312 2.033.581 2.822.774l1.243.32c.46.093.984.176 1.633.27 1.755.166 3.521.184 5.28.053a41.706 41.706 0 0 0 11.702-1.79 38.589 38.589 0 0 0 10.711-5.1 40.5 40.5 0 0 0 11.888-11.523 43.237 43.237 0 0 0 6.79-16.615c.357-1.952.52-3.935.486-5.919a38.335 38.335 0 0 0-10.45-29.114 26.72 26.72 0 0 0-4.702-4.635l-1.935-1.673c-.573-.463-1.062-.89-1.544-1.298l-1.505-1.18a37.792 37.792 0 0 0-1.867-1.236c-1.684-.899-3.16-1.604-3.935-2.05a50.597 50.597 0 0 0-6.604-1.758 34.787 34.787 0 0 0-10.053-1.237 56.84 56.84 0 0 0-9.88 1.09c.018-.143.417-.324 1.051-.527.318-.1.692-.213 1.108-.317l1.356-.276c.954-.21 2.009-.3 2.983-.447l2.585-.26a55.258 55.258 0 0 1 6.497.239c.866.091 1.672.165 2.467.31l1.204.204c.402.094.811.19 1.237.288 1.308.308 2.638.516 3.978.624 2.12.693 4.66 1.894 5.74 2.333 2.192 1.169 3.401 1.889 4.152 2.194.517.305 1.005.66 1.456 1.056.344.293.74.58 1.622 1.242a35.978 35.978 0 0 1 4.402 3.725c1.419 1.39 2.601 2.699 3.176 3.125.48.756 1.607 2.197 2.646 3.815 1.297 1.929 2.135 3.374 2.936 4.702a44.625 44.625 0 0 1 2.296 5.804c.863 3.038 1.07 2.323 1.637 4.576a46.593 46.593 0 0 1-.142 18.466 42.725 42.725 0 0 1-6.933 15.93 40.52 40.52 0 0 1-5.332 6.565 50.973 50.973 0 0 1-6.13 5.224 42 42 0 0 1-7.285 4.008 67.743 67.743 0 0 1-6.942 2.48 57.227 57.227 0 0 1-9.844 1.235 47.245 47.245 0 0 1-11.143-.912 58.48 58.48 0 0 1-6.337-1.98 41.651 41.651 0 0 1-6.741-3.207 44.394 44.394 0 0 1-9-7.14 49.215 49.215 0 0 1-3.81-4.425c-1.12-1.521-2.152-3.008-2.997-4.437-.573-.97-1.15-2.12-1.655-3.141a18.306 18.306 0 0 1-.98-2.496 41.169 41.169 0 0 1-3.45-16.215 45.42 45.42 0 0 1 3.036-16.65c.376-.5 1.414-3.069 2.121-4.073 1.582-2.797 1.664-3.34 3.106-5.448.327-.207.616-.466.858-.768.393-.397.867-.924 1.383-1.519a48.786 48.786 0 0 1 3.618-3.616 39.161 39.161 0 0 1 5.107-4.294c1.536-1.12 3-2.047 4.733-3.141a8.255 8.255 0 0 1 2.804-1.06 20.887 20.887 0 0 1 3.148-1.352c.67-.216 1.37-.453 2.066-.661l2.018-.552zm-122.457-50.711c-.091-.395 1.522-1.14 3.845-1.75a42.053 42.053 0 0 1 7.898-1.162c4.3-.376 8.633-.053 12.83.954.746.138 1.47.378 2.15.714.583.285 1.183.532 1.797.74 2.816.95 5.52 2.21 8.059 3.754a48.886 48.886 0 0 1 7.707 5.846 49.638 49.638 0 0 1 6.166 7.651 51.472 51.472 0 0 1 4.481 8.327c.38 1.076.736 2.01.965 2.911l.356 1.298.274 1.264c.362 1.672.62 3.362.894 5.618.443 3.379.602 6.788.474 10.193a55.795 55.795 0 0 1-1.45 6.093 32.856 32.856 0 0 1-2.138 5.35 55.3 55.3 0 0 1-2.75 5.84c-1.323 2.139-1.875 2.496-3.39 4.475-.683.851-1.145 1.52-1.63 2.11-.474.639-.982 1.25-1.522 1.835a43.692 43.692 0 0 1-35.314 13.439 43.64 43.64 0 0 1-16.759-4.703c-1.765-.797-3.889-2.22-5.038-2.83a52.484 52.484 0 0 1-11.018-11.276 51.922 51.922 0 0 1-6.747-13.312c-.235-1.112-.417-2.062-.669-3.038-.2-.985-.401-2.014-.618-3.286a51.092 51.092 0 0 1-.137-2.486c-.016-.715.053-1.344.086-1.949.052-1.211.247-2.338.376-3.94.066-1.397.278-2.782.632-4.134.063-1.03.195-2.055.397-3.067l.319-1.68.405-1.611a57.314 57.314 0 0 1 3.902-8.77 34.373 34.373 0 0 1 5.571-7.485c.141.257-.805 1.422-1.846 2.877a64.696 64.696 0 0 0-4.28 7.276l-1.024 2.403c-.52 1.498-.988 2.763-1.42 4.288-.144.517-.25.939-.318 1.298-.05.363-.074.66-.085.921-.023.522.008.9.002 1.376-.227.96-.372 2.07-.549 3.053-.107.792-.163 1.59-.165 2.39-.068.487-.105.98-.11 1.472-.012.437-.016.822-.012 1.16a5.767 5.767 0 0 0 .152 1.509c.033.528.03 1.057-.008 1.584a7.596 7.596 0 0 0 .11 1.8c.189 1.382.503 3.302.907 4.999.225.843.42 1.643.645 2.285.166.484.381.95.64 1.39a21.723 21.723 0 0 0 1.299 3.829c.443.912.841 1.686 1.212 2.376.394.678.8 1.25 1.17 1.808.411.801.92 1.546 1.407 2.303l.738 1.132.802 1.088a7.345 7.345 0 0 0 1.604 1.742c.493.352.953.748 1.374 1.183a39.232 39.232 0 0 0 12.61 9.447 44.44 44.44 0 0 0 14.379 4.034c2.424.152 4.857.127 7.278-.075 2.3-.18 4.576-.598 6.79-1.246a47.62 47.62 0 0 0 6.745-2.303 30.483 30.483 0 0 0 5.529-3.073 32.264 32.264 0 0 0 6.787-5.191 39.356 39.356 0 0 0 5.946-7.581c1.075-1.575 2-3.249 2.76-4.998.87-1.96 1.594-3.98 2.166-6.047a43.159 43.159 0 0 0 1.634-9.758 36.857 36.857 0 0 0-.729-9.603c-.152-.96-.428-2.03-.654-2.987-.255-.948-.484-1.775-.555-2.25a47.96 47.96 0 0 0-6.838-12.592 41.174 41.174 0 0 0-10.727-9.913c-.336-.444-2.424-1.649-3.329-2.212-2.488-1.333-3.014-1.241-5.078-2.046a7.603 7.603 0 0 0-2.533-1.246c-.666-.212-1.398-.472-2.155-.668-.76-.185-1.524-.405-2.244-.559-4.804-.672-7.408-.812-11.023-.272-.89.125-1.793.14-2.687.043-1.313.319-4.489.86-6.72 1.62z"/><path fill="#DFDFDF" fill-rule="nonzero" stroke="#DFDFDF" stroke-width=".525" d="M83.435 126.364s2.375 45.652 20.2 56.706c17.825 11.055 44.292 4.708 44.292 4.708s-4.435-12.217-2.397-15.371c0 0-22.07 6.169-32.104 3.377-20.165-5.61-29.991-49.42-29.991-49.42z"/><g fill="#333" fill-rule="nonzero" transform="translate(48.83 12.935)"><path d="M62.104 36.81c.818.491 1.61 1.025 2.37 1.6.859.497 1.78.877 2.738 1.13.59.15.429.125.932.227.67.098 1.35.12 2.026.064a8.276 8.276 0 0 0 2.135-.477c.7-.247 1.363-.59 1.97-1.019.276-.187.536-.398.777-.63.284-.25.544-.525.777-.822a9.983 9.983 0 0 0 1.449-2.114c.178-.419.32-.8.449-1.156l.313-1.036c.34-.81.75-1.883 1.057-2.553l.137-.366.035-.095.102-.027 1.063-.286c.544-.126.7-.118 1.22-.235l-.122.12.014-.052c.111-.49.13-.737.198-1.145.336-1.723.562-3.465.676-5.216.225-2.56.202-5.135-.068-7.69-.044-.437-.11-.871-.198-1.302a18.722 18.722 0 0 0-2.05-6.674 8.968 8.968 0 0 0-.713-1.273 18.13 18.13 0 0 0-1.026-1.616c-.26-.325-.51-.582-.623-.74-.276-.303-.737-.681-1.105-1.004a15.672 15.672 0 0 0-3.698-2.35c.626.245 1.236.526 1.828.844.255.157.477.289.678.402l.519.343c.315.177.612.385.885.623.256.21.58.317.911.303.376.32.76.81 1.034.915.332.442.575.647.806.699.303.302.11.37.45.735.585.468 1.085 1.641 1.637 1.72.049.351.175.688.37.986.207.387.478.736.801 1.034.188.437.315.89.474 1.335.164.696.661.41.906.898.263 1.508.534 2.843.705 4.148.212 1.288.246 2.6.1 3.898.275 1.426.014 2.36.21 3.67-.015 1.113-.568 2.593-.375 3.45a9.91 9.91 0 0 0-.93 3.663l-.148 1.102-1.562.596-.868.33a4.14 4.14 0 0 0-1.41.211l1.63-1.452c-.149.46-.284.958-.496 1.463-.287.684-.682 1.44-1.047 2.194l-.618 1.256c-.19.427-.445.81-.612 1.193-.33.46-.768 1.055-1.096 1.14a7.087 7.087 0 0 1-3.204 2.664 10.57 10.57 0 0 1-4.124.85c-.164-.21-.825-.184-1.104-.347-.74-.2-.88.034-1.458-.154-.044-.21-.304-.377-.625-.548-.315-.197-.704-.371-1.016-.567a8.38 8.38 0 0 1-1.301-.68c-.356-.218-.69-.399-1.049-.653a1.722 1.722 0 0 1-.44-.495c-.28-.168-.86-.682-1.296-1.032z"/><ellipse cx="74.618" cy="21.999" rx="1.324" ry="1.125" transform="rotate(-65.068 74.618 21.999)"/><path d="M175.072 110.457c-.042.414-4.557.463-7.855.61-2.364.18-5.363.307-8.246.444-1.705.076-1.25-.085-2.681-.04l-11.83.42c-5.022.041-7.565.118-12.251.34-2.886.08-4.334.001-7.22.081a139.24 139.24 0 0 0-6.436.413c-2.411-.056-5.57-.03-7.592-.128-1.888.009-2.55.119-4.098.156-1.593.022-1.978-.09-3.571-.068a18.88 18.88 0 0 1-3.303-.034 12.162 12.162 0 0 1-6.604-3.474 12.49 12.49 0 0 1-3.358-6.725c-.859-6.074-2.395-13.77-4.145-20.838-.315-1.175-.71-2.733-.988-3.5-1.44-6.164-3.969-13.274-6.692-18.135a17.25 17.25 0 0 0-.866-1.731 34.914 34.914 0 0 0-1.063-1.786c-.61-1.031-1-1.735-1.395-2.379a18.405 18.405 0 0 0-1.38-2.064c-.735-.873-1.416-1.568-1.75-1.983a26.583 26.583 0 0 0-3.311-2.368 18.615 18.615 0 0 0-5.457-2.56 30.256 30.256 0 0 0-5.836-1.029 5.432 5.432 0 0 1 2.196-.017c1.107.129 2.207.315 3.295.558 1.245.344 2.462.782 3.641 1.31a16.91 16.91 0 0 1 2.604 1.41c1.185.761 1.516.887 2.07 1.199a34.64 34.64 0 0 1 2.684 2.527c.49.552.842 1.01 1.135 1.355.298.341.512.589.675.761.661.895.507.826 1.242 1.902.64.937 1.234 1.906 1.776 2.903.57 1.02 1.058 1.935 1.316 2.261.176.493.64 1.46 1.087 2.494.551 1.244.969 2.127 1.345 2.947.441 1.13.853 2.274 1.25 3.42.58 1.748.644 1.334 1.088 2.602a176.933 176.933 0 0 1 4.946 20.278c.778 3.637 1.122 6.078 1.729 9.418l.175 1.113c.079.357.124.733.23 1.101.19.751.465 1.479.818 2.168a9.41 9.41 0 0 0 2.47 3.113c.293.28.6.543.922.79.358.257.732.492 1.12.703.84.468 1.747.808 2.688 1.008.493.11.994.185 1.498.225.518.018 1.006.036 1.564.01l3.244-.121c2.426.018 5.088-.117 8.152-.183 4.073-.088 9.294-.12 13.125-.27 1.3-.017 2.968-.074 3.602-.018 6.222-.296 12.994-.307 19.484-.465.35.087 1.957.036 2.665.084 1.875.004 2.166-.122 3.648-.15.402.207 2.93.18 4.867.22 3.194-.1 4.877-.07 7.277-.255a7.318 7.318 0 0 1 1.761.099c.883-.092 2.997-.083 4.539-.122z"/><path d="M28.295 71.063c.425.048.541 1.608.666 3.713.096 2.105.253 4.76.478 6.995.485 3.192 1.048 7.23 1.786 11.078.414 2.278.045 1.707.385 3.624.61 2.903 1.094 5.172 1.645 7.538a126.1 126.1 0 0 0 2.143 8.082c.836 3.303 1.538 5.776 2.342 8.154.784 2.385 1.663 4.68 2.89 7.611 1.426 3.637 1.997 5.523 3.652 9.064a54.69 54.69 0 0 0 4.468 7.459 84.869 84.869 0 0 0 5.174 8.756 31.505 31.505 0 0 0 3.746 3.966c.372.328.662.608.915.863.28.226.516.432.755.64.25.221.519.42.803.596.356.25.735.465 1.133.641 1.292.547 2.65.924 4.038 1.121 3.145.658 6.36.922 9.569.783a62.906 62.906 0 0 0 9.725-1.08c8.226-1.113 18.502-4.072 27.936-7.112 1.563-.555 3.65-1.226 4.657-1.708a170.34 170.34 0 0 0 24.714-9.578 51.126 51.126 0 0 0 5.11-2.131c3.084-1.223 4.257-1.326 6.888-2.311a29.144 29.144 0 0 1 3.411-1.322c1.338-.777 3.36-1.756 4.992-2.636 4.743-1.85 10.626-5.03 15.066-6.901.103.569-4.587 2.68-6.518 3.857-4.07 1.894-5.78 2.927-8.356 4.095a10.604 10.604 0 0 0-2.713 1.801c-1.62.743-3.7 1.604-4.499 2.1-1.179.43-2.308.986-3.368 1.659-1.364.624-1.26.375-2.854 1.131-2.254 1.153-6.475 2.776-7.352 3.534-1.173.375-2.325.81-3.453 1.302a55.896 55.896 0 0 0-3.995 1.85l-4.624 1.765c-2.358.849-1.746 1.038-3.437 1.731-9.97 3.394-18.005 6.28-27.223 8.43-4.904 1.39-8.236 1.985-12.817 2.908a105.37 105.37 0 0 1-12.526 1.144c-2.7-.11-5.387-.411-8.043-.9a26.397 26.397 0 0 1-4.47-1.27 18.401 18.401 0 0 1-4.195-2.314l-1.02-.94-.92-.968c-.641-.637-1.235-1.34-1.871-2.046-.639-.705-1.227-1.48-1.87-2.254-.597-.806-1.234-1.626-1.829-2.511-3.25-4.673-6.397-11.187-8.602-15.986a39.532 39.532 0 0 1-1.793-4.629c-3.452-7.867-5.881-16.905-7.84-25.603.067-.506-.412-2.662-.481-3.637-.4-2.544-.72-2.894-1.05-4.905.328-.61-.189-4.039-.346-6.69-.594-4.34-.662-6.643-1.118-9.918-.09-.81-.031-1.63.17-2.421a49.463 49.463 0 0 1-.074-6.22z"/><path d="M177.465 127.489c.147-.146.694.182 1.38.679.362.224.761.487 1.165.756.424.236.848.485 1.249.687a17.868 17.868 0 0 0 4.25 1.254c.902.108.639.227 1.404.297 1.013.047 2.029 0 3.033-.14a14.434 14.434 0 0 0 3.186-.827c1.073-.33 2.109-.77 3.092-1.312a18.517 18.517 0 0 0 2.684-1.812 22.965 22.965 0 0 0 2.928-2.388l.009-.009a.54.54 0 0 1 .764-.001l.022.023.063.07c.813.863 1.67 1.682 2.57 2.454.815 1.05 1.976 2.339 2.661 3.215.523.528 1.08 1.02 1.667 1.473.179.182.374.346.583.492.164.1.375.074.509-.063.176-.176.302-.396.363-.637.065-.238.112-.48.14-.725a9.48 9.48 0 0 0-.222-3.749 15.991 15.991 0 0 0-1.387-3.642 25.731 25.731 0 0 0-2.839-4.728c-.57-.8-1.214-1.545-1.923-2.225a15.467 15.467 0 0 0-2.318-1.784l-.922-.51a6.623 6.623 0 0 0-.821-.355c-2.973-1.707-7.095-2.503-10.143-2.658a13.486 13.486 0 0 0-2.204-.24c-1.322-.155-1.76-.363-2.886-.493a10.066 10.066 0 0 1-1.47-.134c-.622.07-1.527.092-2.272.159-2.052-.128-4.738.18-6.676.236.03-.289 2.113-.388 3.014-.547 1.815-.076 2.616-.199 3.762-.208a3.638 3.638 0 0 0 1.303-.257c.724 0 1.636.057 2.016.003.507.061 1.02.057 1.526-.012.61.025.525.114 1.243.13 1.031-.007 2.853.262 3.32.15.28.084.866.173 1.482.275.747.106 1.285.178 1.79.211.657.157 1.32.298 1.97.488.989.287.84.054 1.572.248a24.542 24.542 0 0 1 5.498 2.622c.408.262.8.547 1.175.855l.562.458.525.507c.683.69 1.299 1.445 1.838 2.254a31.963 31.963 0 0 1 2.884 4.55 24.521 24.521 0 0 1 1.711 4.888c.165 1.119.191 2.253.079 3.378a4.315 4.315 0 0 1-.695 1.974c-.274.39-.689.658-1.157.746a1.802 1.802 0 0 1-1.329-.361 58.338 58.338 0 0 1-3.345-3.184c-1.303-1.362-2.814-3.11-4.1-4.55l.947.015c-.316.334-.589.595-.857.855-.495.468-1.033.89-1.606 1.258a20 20 0 0 1-9.991 4.491c-.208-.047-1.124.039-1.528-.004-1.068-.022-1.237.066-2.087.007a2.61 2.61 0 0 0-1.015-.358 15.68 15.68 0 0 1-1.617-.504 22.127 22.127 0 0 1-3.757-1.575 1.863 1.863 0 0 1-.754-.645 7.127 7.127 0 0 1-.94-.624l-1.078-.897zM94.833 159.92l-.354.044h.002l.003.001.005.002.01.005c.008.005.015.01.022.017a.314.314 0 0 1 .045.057c.04.068.074.14.101.213.096.26.176.524.242.792.09.341.184.759.291 1.243l.41 1.637c.8 3.23 1.868 6.387 3.19 9.44a52.286 52.286 0 0 0 6.745 11.177 48.844 48.844 0 0 0 4.607 5.07c.795.808 1.67 1.51 2.487 2.256l2.469 2.185c5.155 4.521 9.87 9.52 14.084 14.93a122.567 122.567 0 0 1 12.152 19.044c.537.98.925 1.837 1.267 2.565l.857 1.859.598 1.355.414 1.09.847 2.222.642 1.583.847 2.231c1.077 2.641 1.921 5.203 2.78 7.643.757 2.473 1.546 4.824 2.151 7.16 1.324 4.643 2.29 9.111 3.214 13.69a231.558 231.558 0 0 1 3.734 31.916c.255 6.55.211 12.295.1 17.603-.107 5.31-.368 10.183-.674 14.996-.653 9.625-1.556 19.019-3.277 31.124-1.133 7.44-2.2 12.987-3.336 18.516-1.147 5.528-2.37 11.039-4.107 18.356-3.01 12.905-5.758 23.117-8.479 32.5-1.386 4.099-2.939 8.6-4.683 13.146l-.013-1.036 4.741 12.034.012.031a1.235 1.235 0 0 1-1.165 1.688c-4.71-.066-9.016-.142-12.622-.241-9.807-.068-13.261.122-21.301.127-8.278-.03-10.264-.27-18.538-.3-4.646.005-7.755.072-10.965.135a.952.952 0 0 1-.962-1.068l.005-.039.734-5.687c3.392-23.575 7.427-50.972 10.656-74.792l.893-6.023.454-3.083.364-3.08a55.337 55.337 0 0 0-10.294-37.608c-.693-.927-1.42-1.832-2.13-2.754l-2.313-2.62-2.483-2.49-2.603-2.514a236.281 236.281 0 0 1-10.058-10.502 229.57 229.57 0 0 1-17.966-22.706c-1.844-2.6-3.884-5.69-5.732-8.59a508.007 508.007 0 0 1-4.593-7.447 224.293 224.293 0 0 1-20.093-48.238 217.068 217.068 0 0 1-5.507-25.254 223.482 223.482 0 0 1-2.408-23.52c-.15-3.728-.143-6.915-.222-10.23l-.056-2.52c-.014-.856.006-1.73.007-2.634l.041-5.856c.112-3.18.304-5.83.446-8.183.154-2.353.423-4.403.62-6.394l.32-2.965.42-3.038c.302-2.088.532-4.354.982-7l.62-4.29c.186-1.362.462-2.631.668-3.809.445-2.35.8-4.303 1.174-5.649a178.39 178.39 0 0 1 5.038-20.962 184.187 184.187 0 0 1 5.491-14.525 143.345 143.345 0 0 1 7.308-14.879 113.253 113.253 0 0 1 9.024-13.684 82.74 82.74 0 0 1 4.995-5.923 51.309 51.309 0 0 1 5.257-5.01 28.934 28.934 0 0 1-2.463 2.646 98.15 98.15 0 0 0-5.19 5.905 103.016 103.016 0 0 0-9.752 14.344c-1.12 1.818-2.035 3.582-2.944 5.207-.851 1.656-1.646 3.202-2.361 4.678l-1.943 4.22-1.629 3.873c-.518 1.238-.949 2.459-1.41 3.64a78.381 78.381 0 0 0-1.29 3.528l-1.232 3.549-1.184 3.723a76.601 76.601 0 0 0-2.758 11.916l-.617 2.53c-.2.863-.374 1.748-.564 2.63-.359 1.77-.775 3.533-1.065 5.218-.577 3.37-1.123 6.339-1.264 8.103l-.726 5.012c-.188 1.487-.3 2.8-.416 3.95-.206 2.305-.374 3.968-.373 5.178-.198 2.835-.332 4.064-.47 5.42-.158 1.353-.255 2.837-.362 6.18l-.122 3.905-.03 4.375-.036 4.602.1 4.59c.04 1.5.076 2.958.112 4.335.05 1.375.15 2.667.221 3.836.156 2.34.307 4.187.45 5.223.044 2.673.467 8.156 1.16 13.897.506 3.457.916 6.43 1.459 9.08.257 1.326.48 2.585.742 3.785l.796 3.475c1.29 6.083 2.779 12.144 4.64 18.09.669 2.27 1.247 3.822 1.658 5.012a32.798 32.798 0 0 0 1.068 2.704c.314.719.603 1.36.963 2.226l1.436 3.547c1.722 4.649 3.683 9.076 5.64 13.394 2.04 4.28 4.096 8.45 6.328 12.44 1.079 2.016 2.25 3.959 3.368 5.911 1.176 1.919 2.304 3.85 3.52 5.709 2.364 3.761 4.861 7.373 7.398 10.914a235.128 235.128 0 0 0 16.318 20.13c2.892 3.2 5.884 6.332 8.976 9.395l2.341 2.289c.784.769 1.578 1.6 2.368 2.4a59.495 59.495 0 0 1 4.366 5.235 56.108 56.108 0 0 1 6.902 11.814 58.188 58.188 0 0 1 3.634 11.74 56.822 56.822 0 0 1 1.1 11.924 59.25 59.25 0 0 1-.402 6.201 72.46 72.46 0 0 1-.396 3.155l-.44 3.212c-2.122 14.816-5.337 35.496-6.77 46.605-1.724 10.617-3.712 24.136-5.707 38.179l-1.245-1.44 24.916-.122c11.549.134 24.145.02 38.51.005l-1.272 1.897-1.458-3.562-3.426-8.414a1.359 1.359 0 0 1-.018-.988l.005-.014a423.173 423.173 0 0 0 16.036-56.682c1.454-6.586 2.971-15.098 3.646-18.308a399.545 399.545 0 0 0 5.038-49.673c.533-16.97-.275-34.198-3.312-50.7-.04-.45-.135-1.305-.33-2.376l-.71-3.723c-.25-1.357-.607-2.749-.883-4.04a122.18 122.18 0 0 0-.768-3.351l-.835-3.17c-.253-.952-.536-1.79-.77-2.568-.49-1.548-.87-2.831-1.323-4.022l-1.311-3.622-1.738-4.486a21.914 21.914 0 0 0-1.06-3.218c-.303-.779-.62-1.68-1.04-2.634l-1.364-3.08a121.94 121.94 0 0 0-7.396-13.68 112.772 112.772 0 0 0-12.512-16.06c-.496-.529-.966-1.07-1.47-1.573l-1.514-1.489c-1.013-.977-1.98-1.99-3.06-2.902l-3.23-2.836-1.7-1.48c-.554-.524-1.118-1.057-1.69-1.6-1.02-1.087-1.831-1.974-2.446-2.757-.643-.76-1.096-1.407-1.479-1.947-.782-1.068-1.151-1.81-1.66-2.624a44.933 44.933 0 0 1-5.013-9.309 48.482 48.482 0 0 1-2.074-6.374l-.393-1.627-.314-1.616a21.45 21.45 0 0 1-.267-1.58l-.113-.773-.056-.38-.028-.19-.013-.093-.007-.047-.004-.024-.002-.011v-.006c.157-.021-.354.04.353-.05z"/></g><path fill="#FFC346" fill-rule="nonzero" d="M99.995 47.736l-16.56-3.851S72.191 32.397 63.341 32.959c0 0 .846 15.86 14.4 17.923-4.165-.296-16.202.262-17.6 16.368 0 0 15.69-5.304 21.464-11.683 0 0 22.47-1.696 32.072 2.261 0 0 2.763-.256 2.763-3.94 0 0-12.68-5.943-16.445-6.152z"/><path fill="#FFC346" d="M99.944 48.09c.042-.202.368-.312.898-.349.309.008.617.03.924.07.348.052.726.136 1.134.225 1.618.39 3.575 1.115 5.234 1.701 2.44.7 5.424 1.86 8.282 3.016.18.08.336.147.46.201.369.16.603.528.594.929v.004c.007.442-.072.881-.234 1.293-.126.292-.212.607-.563 1.36a3.943 3.943 0 0 1-2.004 1.936c-.29.126-.595.213-.908.258a.676.676 0 0 1-.293-.022l-.137-.043c-.7-.216-1.35-.452-2.02-.646l-2.086-.488-2.32-.379c-.837-.087-1.734-.199-2.737-.272-1.302-.163-2.446-.308-3.514-.377a47.63 47.63 0 0 0-3.02-.163c-1.946-.061-3.854-.015-6.322.108-3.038.058-4.571-.11-7.61.063-.71.064-1.388.136-2.009.22l.78-.381c-.641.71-1.222 1.418-1.836 1.981-.59.612-1.18 1.134-1.754 1.648a43.955 43.955 0 0 1-7.44 3.625c-1.85.832-2.424 1.29-3.942 1.97-1.585.643-2.053.582-3.648 1.181-1.386.552-2.007.945-3.153 1.416l-.221.077-.018.006a1.04 1.04 0 0 1-1.323-.637 1.069 1.069 0 0 1-.05-.463c.223-2.64.828-5.232 1.795-7.698a17.185 17.185 0 0 1 4.8-6.554 18.785 18.785 0 0 1 12.145-3.264l-.275 2.47a16.932 16.932 0 0 1-5.452-1.742 15.529 15.529 0 0 1-4.506-3.561 29.157 29.157 0 0 1-2.512-3.312 29.855 29.855 0 0 1-1.867-5.047 30.722 30.722 0 0 1-.983-5.432 1.075 1.075 0 0 1 .985-1.165l.033-.002h.02a17.377 17.377 0 0 1 5.762.824c.863.307 1.73.575 2.511.936.807.32 1.554.685 2.271 1.037 1.29.917 2.257 1.451 3.731 2.45 2.085 1.655 2.513 2.533 4.077 4.101a12.915 12.915 0 0 1 1.977 2.104l.236.189-.274-.154c1.159.139 2.72.456 4.035.664 3.775 1.217 8.873 2.096 12.46 3.304-.207.505-4.063-.617-5.807-.795-3.386-.867-4.934-1.011-7.07-1.545a6.447 6.447 0 0 0-2.547-.088l-1.352-.331-.014-.004a.665.665 0 0 1-.317-.183 12.564 12.564 0 0 0-1.807-1.619 8.824 8.824 0 0 0-2.275-1.763c-.919-.685-.665-.77-1.786-1.526-.817-.52-1.915-1.299-2.95-1.912a7.724 7.724 0 0 0-2.439-1.12 5.034 5.034 0 0 0-.982-.6 11.8 11.8 0 0 0-1.456-.666 9.116 9.116 0 0 0-1.712-.52c-.46-.111-.93-.18-1.404-.203-.455-.067-.914-.18-1.367-.218l-1.354-.041 1.136-1.278c.01.2.034.465.06.702.203 1.836.564 1.401.889 2.688a18.386 18.386 0 0 0 4.36 8.995 14.316 14.316 0 0 0 8.076 4.297l.053.01a1.32 1.32 0 0 1-.345 2.615l-.86-.07c-1.61.02-3.211.223-4.774.607a11.176 11.176 0 0 0-4.043 1.858c-.612.409-1.196.857-1.75 1.343a14.097 14.097 0 0 0-1.55 1.778c-.223.324-.472.625-.664.952l-.506.983a7.535 7.535 0 0 0-.666 1.758 18.242 18.242 0 0 0-1.454 5.947l-1.638-1.287c1.95-.689 4.003-1.56 5.907-2.437a55.654 55.654 0 0 0 7.664-3.687c2.46-1.358 5.347-3.133 7.348-5.235l.034-.036c.214-.225.505-.36.814-.38l4.49-.278c1.282-.08 2.57-.072 3.851.022 3.442-.2 6.894-.178 10.332.068a65.03 65.03 0 0 1 10.557 1.518c.389.215.804.379 1.235.486.512.19 1.014.405 1.505.646l.551.213-.438-.065c.098-.015.194-.04.287-.076a1.615 1.615 0 0 0 .666-.461c.238-.284.428-.606.56-.953.263-.042.598-.623.686-1.528l.374.59c-.844-.493-1.9-1.033-2.803-1.524-3.118-1.312-4.715-2.126-7.178-2.79a4.6 4.6 0 0 1-1.646-.9c-.932-.166-2.99-1.03-4.594-1.173z"/><path d="M134.994 388.473c.148.113-.039.772-.75 1.636a13.087 13.087 0 0 1-3.487 2.705c-3.088 1.774-7.33 3.206-10.919 4.283a150.373 150.373 0 0 1-18.215 4.468c-3.81.714-2.829.244-6.037.77-4.878.835-8.718 1.365-12.739 1.887-4.022.52-8.227 1.024-13.86 1.685-11.343.953-17.085 1.433-27.676 2.38-4.453.305-7.393.377-10.933.495l.827-.43a253.213 253.213 0 0 0-3.33 4.278 345.017 345.017 0 0 0-6.46 8.98 1.388 1.388 0 0 1-2.44-.315l-.049-.131-1.222-3.322c-1.408-5.277-3.443-12.137-4.525-16.588-1.204-4.104-1.832-5.486-2.876-8.832-1.043-3.455-1.071-4.353-2.113-7.807-.944-3.013-1.548-4.426-2.373-6.885L.679 361.266a1.077 1.077 0 0 1 .693-1.344l.005-.002c5.083-1.66 10.148-3.34 14.85-4.97 6.634-2.079 14.163-4.537 22.002-7.101l11.918-3.893 5.997-1.943 2.984-.96c.986-.324 1.872-.677 2.8-1.03.587-.295 1.22-.614 1.864-.94.627-.356 1.239-.764 1.842-1.132a17.39 17.39 0 0 0 2.761-2.288 23.457 23.457 0 0 0 6.32-8.433 24.505 24.505 0 0 0 2.032-10.726c-.075-.91-.15-1.82-.28-2.716-.194-.897-.326-1.755-.565-2.668l-1.374-5.35a784.078 784.078 0 0 0-2.644-9.904c-.615-3.18-1.242-5.387-2.137-8.962-1.203-5.387-1.268-7.279-2.204-11.847-.599-2.547-1.08-4.737-1.24-5.943-.753-2.45-1.679-6.064-2.508-9.028-1.677-8.28-4.594-18.987-6.135-26.846.593.148 2.397 8.48 3.497 12.061 1.688 7.253 2.674 10.41 3.748 14.975.415 1.743.998 3.44 1.741 5.07.695 2.872 1.505 6.514 1.993 7.984a46.345 46.345 0 0 0 1.609 6.007c.61 2.41.348 2.14 1.096 4.966 1.137 4.03 2.76 11.345 3.55 13.03.174 1.16.735 3.501 1.332 5.961.74 2.969 1.353 5.078 1.94 7.02.169.647.298 1.356.43 2.06.153.698.26 1.406.32 2.119.05.713.162 1.422.157 2.137l-.011 2.145a43.45 43.45 0 0 0-.193 2.417c-.052.576-.097.972-.11 1.337-.018.365-.027.695-.066 1.132-.086.589-.216 1.17-.386 1.74l-.253.826c-.093.271-.211.533-.315.798l-.64 1.576-.765 1.497-.382.74-.44.702-.879 1.389c-.32.44-.657.866-.983 1.295a28.294 28.294 0 0 1-2.107 2.416 27.641 27.641 0 0 1-10.353 6.56c-.96.382-1.832.615-2.745.922l-2.705.868-5.398 1.723c-3.604 1.144-7.23 2.28-10.954 3.416-7.938 2.71-13.27 4.284-20.507 6.786-5.117 1.675-11.97 3.738-16.752 5.335l.887-1.71c.336 1.048.645 1.974.925 2.776 1.925 7.178 5.17 17.28 8.167 26.45 1.49 5.288 3.423 11.008 5.475 17.637l3.949 12.95-2.28-.409c3.504-4.501 7.005-9.021 9.857-12.845l.176-.225.01-.014c.237-.3.592-.482.973-.498 2.875-.116 6.453-.36 7.84-.31 14.026-1.174 29.3-2.155 43.857-3.935.804.094 4.404-.382 6-.475 4.21-.477 4.831-.814 8.14-1.303.952.298 6.604-.539 10.924-1.22 3.537-.719 6.23-1.298 8.683-1.906a61.783 61.783 0 0 0 7.202-2.199 26.257 26.257 0 0 1 3.815-1.065c.89-.448 2.451-1.086 4.071-1.987a17.931 17.931 0 0 0 2.376-1.544 8.528 8.528 0 0 0 1.818-1.945zm-4.81-380.955C107.517-7.179 86.312 3.749 76.52 19.201c-9.79 15.45 10.733 32.974 21.089 33.748 6.574.491 10.72-7.32 12.872-13.09a11.046 11.046 0 0 1 7.822-6.838 59.073 59.073 0 0 0 14.516-5.906l.357 9.308.96-.264c10.357-2.826 8.946-20.277-3.953-28.641zm50.49 155.372c.362.198-.274 1.212-.64 2.007-.2.607-.541 1.33-.859 2.036-.19.415-.268.222-.468.545-.58 1.005-.99 1.52-1.667 2.673-.394.54-.735.912-1.043 1.296-.307.384-.589.776-.945 1.294-.492.592-.788.845-1.316 1.403-.377.44-.717.911-1.016 1.409-.524.436-1.073.84-1.646 1.209a9.384 9.384 0 0 0-.785.76c-.331.265-.486.24-.817.505a7.332 7.332 0 0 0-.576.644c-.929.791-2.12 1.563-3.041 2.397-.705.42-1.49.922-2.302 1.454-.809.541-1.716.993-2.572 1.455-.275.176-.662.363-.835.505-.847.28-1.677.61-2.486.987-.832.339-1.614.738-2.29 1.08a4.381 4.381 0 0 0-1.035.33 7.977 7.977 0 0 1-1.447.12 2.188 2.188 0 0 1-.71.102 7.491 7.491 0 0 1-1.019.433c-.997.087-2.235.511-3.207.46.004-.268.995-.314 1.398-.522.585-.12 1.163-.271 1.732-.451a.89.89 0 0 0 .533-.395c.311-.062.614-.158.904-.287a1.25 1.25 0 0 0 .665-.27c.267-.103.261 0 .571-.137.431-.227 1.273-.434 1.407-.675.233-.037.46-.106.672-.206.26-.11.506-.25.734-.415l.879-.332c.442-.176.273-.32.576-.489a45.293 45.293 0 0 0 4.841-2.351c.776-.573 1.353-.852 2.052-1.385.66-.42 1.294-.88 1.9-1.376a6.109 6.109 0 0 0 1.242-.828c.413-.36.834-.763 1.23-1.15.27-.19.529-.4.772-.627l.4-.366.399-.417c.737-.753 1.774-1.638 2.398-2.415.189-.25.405-.476.645-.677.48-.684.998-1.34 1.551-1.966.54-.658 1.025-1.372 1.511-2.06.13-.021.356-.373.513-.49.318-.376.262-.504.486-.817.256.041.613-.515.93-.916.337-.541.626-1.112.861-1.704a.626.626 0 0 1 .35-.335c.158-.365.348-.715.57-1.045zm7.491-28.385c-.428-.083.095-3.487.648-5.938a28.366 28.366 0 0 1 1.76-6.075 4.3 4.3 0 0 1 .539-.984c.193-.258.37-.528.53-.807a7.57 7.57 0 0 1 3.166-3.195 6.244 6.244 0 0 1 1.068-.377l.961-.314c.308-.172.64-.33.972-.532.34-.24.663-.502.968-.784a11.51 11.51 0 0 0 2.688-3.614 19.619 19.619 0 0 0 1.471-4.175c.137-.525.255-.997.342-1.405l.002-.009a.623.623 0 0 1 .867-.432c1.144.552 2.36.94 3.612 1.152 1.55.238 3.13.187 4.661-.149.459-.03.915-.086 1.368-.165.168-.025.33-.075.484-.148.105-.067.115-.07.14-.125a1.6 1.6 0 0 0-.324-.927 9.862 9.862 0 0 0-.704-.97 15.488 15.488 0 0 0-2.338-1.912c-.946-.713-1.118-.972-2.11-1.638-.884-.558-1.36-.75-2.118-1.154-2.971-1.675-6.643-3.466-9.981-4.043a5.27 5.27 0 0 0-1.611-.154 6.783 6.783 0 0 0-1.675.451 24.166 24.166 0 0 0-3.506 1.765c-2.346 1.383-4.691 3.016-6.933 4.61-.732.558-1.724 1.264-2.179 1.684a111.898 111.898 0 0 0-11.52 9.165c-.882.629-1.442 1.153-2.376 1.954-1.443 1.146-2.04 1.398-3.28 2.344-.51.444-1.047.86-1.604 1.243-.6.614-1.527 1.448-2.269 2.16-2.236 1.727-4.917 4.293-7.018 5.951-.114-.266 2.08-2.088 2.945-2.997 1.89-1.622 2.654-2.424 3.847-3.442a6.34 6.34 0 0 0 1.188-1.355c.75-.644 1.72-1.43 2.072-1.812a10.717 10.717 0 0 0 1.538-1.404c.627-.546.606-.403 1.334-1.057 1.021-.96 2.997-2.505 3.351-3.035.334-.21.962-.716 1.617-1.253a33.26 33.26 0 0 0 1.821-1.624l2.154-1.698c1.109-.839.764-.824 1.545-1.469 2.345-1.74 4.458-3.322 6.55-4.812a68.329 68.329 0 0 1 6.466-4.177 24.978 24.978 0 0 1 3.352-1.767c.271-.117.559-.21.838-.315.288-.114.585-.202.888-.265l.47-.113c.168-.028.355-.03.536-.044.349-.028.7-.017 1.045.034 2.313.305 5.154 1.577 6.693 2.182a79.564 79.564 0 0 1 8.13 4.674c.739.578 1.522 1.172 2.317 1.879.42.368.814.763 1.182 1.183.468.495.806 1.098.984 1.755a1.573 1.573 0 0 1-.774 1.732 2.981 2.981 0 0 1-.76.295c-.23.052-.437.085-.658.128-.887.165-1.787.252-2.689.26a19.592 19.592 0 0 1-5.031-.64 13.08 13.08 0 0 1-2.217-.82l.901-.459a3.885 3.885 0 0 1-.139.488 20.158 20.158 0 0 1-2.736 6.976 10.996 10.996 0 0 1-2.675 2.899c-.544.4-1.133.735-1.756.997l-.971.298-.42.125c-.129.03-.254.072-.374.126a1.94 1.94 0 0 0-.742.296 7.86 7.86 0 0 0-.83.586c-.356.31-.664.67-.915 1.07-.19.302-.356.576-.63 1.043-.354.12-1.257 1.783-1.814 3.131a26.977 26.977 0 0 0-1.415 5.291 4.69 4.69 0 0 1-.402 1.272c-.059.667-.39 2.232-.517 3.385z" fill="#333" fill-rule="nonzero"/><g fill="#FFC346" fill-rule="nonzero"><path d="M466.127 291.994s-3.058-43.663 52.675-50.196v36.095"/><path d="M515.453 263.997c-.642-2.898-.355-4.672-1.115-8.115a17.347 17.347 0 0 0-.494-8.805c-.109-2.074.777-3.113.665-5.187l-.02-.091 4.815 4.287a11.007 11.007 0 0 0-3.961 2.694c-1.74-.615-3.89-.533-5.502-1.402-1.313.054-1.576.903-2.585 1.178-1.075.15-1.594-.731-2.666-.503-.906.314-1.157 1.054-1.821 1.507-.74.237-1.482.538-2.245.834-.76.3-1.545.586-2.302.931a15.06 15.06 0 0 0-4.072 2.673c-.473.182-.953.392-1.44.622-.488.248-.962.523-1.42.824a69.3 69.3 0 0 0-1.434.933c-.469.34-.92.715-1.386 1.078-1.882 1.44-3.589 3.164-5.37 4.678-.409.688-1.23 1.332-1.205 2.047a10.79 10.79 0 0 0-4.74 4.424c-.543.928-.967 1.92-1.264 2.953a12.764 12.764 0 0 0-.44 2.984c-.932.577-.875 1.313-1.134 2.312a4.392 4.392 0 0 1-1.75 1.298 5.41 5.41 0 0 0-1.849 1.182 2.595 2.595 0 0 1-1.245 1.56c.1.243.18.492.239.747a82.49 82.49 0 0 1 7.935-6.31 71.42 71.42 0 0 1 14.086-7.634 66.496 66.496 0 0 1 14.393-3.998c1.197.015 2.302.13 3.367.135 1.066-.003 2.095.045 3.147.071l1.6.021 1.213.072zm-49.512 21.224c-.049-.782-.117-1.45.083-2.203.06-1.028-.914-1.48-1.588-2.106.237-.966.818-2.098.484-2.726.54-1 .475-1.666.054-2.18.178-.834.853-.49.963-1.494.058-.876.246-1.74.556-2.561.257-.862.376-1.677-.167-2.279.557-.191.962-.915 1.355-1.697.352-.838.5-1.748.434-2.655.499-.82 1.094-1.582 1.649-2.365.963-1.1-.501-1.753-.027-2.764l6.181-6.154 1.511-1.355.763-.658.808-.6a18.436 18.436 0 0 1 3.479-2.104c.477-.496.988-.959 1.53-1.384.516-.373 1.03-.684 1.533-1 .503-.314 1-.625 1.493-.978.53-.355 1.039-.739 1.525-1.151 1.959-1.226 5.188-1.696 6.459-2.998a11.313 11.313 0 0 0 4.43-.85c.767-.256 1.541-.57 2.311-.915.77-.347 1.534-.732 2.291-1.05 1.948.122 3.769-1.008 6.077-1.383 2.465-.511 5.548-.428 8.08-.88a4.833 4.833 0 0 1 5.676 4.568l.017.5c.015.577.072 1.152.17 1.72-.098.935.058 2.134-.505 2.588 1.237 4.474.09 9.338.171 14.002-.757.25-.642 1.405-1.15 1.913-.375 1.347.575 1.558.528 2.623a2.139 2.139 0 0 0-.939.385l.157.05c.823.265 1.577.522 2.275.796a34.504 34.504 0 0 1 3.656 1.825c1.089.668 2.15 1.258 3.242 2.007l3.677 2.33c.406.208.808.406 1.191.617l1.099.659c.705.44 1.382.835 1.96 1.271a14.407 14.407 0 0 1 2.62 2.324c.802.376 1.686.826 2.6 1.347a95.27 95.27 0 0 1 2.77 1.787l2.76 2.046c.885.72 1.763 1.426 2.61 2.09.45.586.915 1.175 1.393 1.765l.727.887.707.922 1.459 1.857.623.775c.227.244.446.499.682.74a16.536 16.536 0 0 0 7.042 4.184c1.33.394 2.702.63 4.087.704.643.04 1.48.045 2.246.066l2.307.07c3.044.112 5.951.31 8.602.673-.189 1.083-3.107 1.404-6.597 1.566-1.52.047-3.141.123-4.698.176h11.295c.422 0 .842.02 1.259.058l.132-.051c.335-.102.68-.171 1.028-.207 2.1-.143 4.192.362 5.995 1.449.573.327 1.124.69 1.65 1.09l.778.677.393.35.361.389a14.731 14.731 0 0 1 2.516 3.593 16.593 16.593 0 0 1 1.415 4.271c.119.732.192 1.47.221 2.211l.028 1.092-.012.942c.522 7.163.384 16.19.369 24.875-.056 5.133-1.163 3.675-1.355 7.976a47.619 47.619 0 0 1-.064 2.456c-.045.824-.066 1.633-.139 2.42-.168 1.572-.322 3.084-.609 4.535-.224 1.464-.592 2.858-.92 4.251-.173.694-.396 1.371-.594 2.056-.203.684-.403 1.37-.658 2.042a65.256 65.256 0 0 1-9.26 17.497 69.253 69.253 0 0 1-7.837 7.587l-1.899 1.498-1.703 1.322a71.04 71.04 0 0 0-3.121 2.593 63.167 63.167 0 0 0-5.706 5.689 57.04 57.04 0 0 0-2.724 3.328 52.89 52.89 0 0 0-1.344 1.842l-.694.996-.813 1.128a49.118 49.118 0 0 1-8.198 8.163 109.305 109.305 0 0 1-9.427 6.747 99.154 99.154 0 0 1-9.654 5.89l-2.31 1.152-1.134.563-1.14.502-2.248.993-2.246.867a67.538 67.538 0 0 1-13.176.191 38.803 38.803 0 0 1-11.66-2.738l-6.785-1.865a29.797 29.797 0 0 1-2.779-.841 48.27 48.27 0 0 1-1.484-.534c-.511-.207-1.035-.461-1.6-.732a36.034 36.034 0 0 1-1.55-.853c-.456-.287-.857-.576-1.232-.846-.742-.554-1.382-1.036-1.978-1.576-.596-.54-1.187-1.077-1.89-1.655-.71-.568-1.468-1.264-2.482-2.012-.915-.618-1.658-1.221-2.395-1.705-.731-.49-1.405-.924-2.035-1.373l-1.914-1.312a33.712 33.712 0 0 1-1.965-1.582 80.808 80.808 0 0 1-13.763-18.324 113.902 113.902 0 0 1-5.107-10.517c-1.458-3.565-2.803-7.115-3.912-10.606a116.45 116.45 0 0 1-3.03-31.955 93.466 93.466 0 0 1 7.915-33.975c.366-.898.784-1.86 1.216-2.837.434-.976.947-1.938 1.398-2.885.444-.951.925-1.84 1.324-2.661.406-.819.716-1.578.958-2.198 3.189-4.376 6.823-8.73 10.863-12.784z"/></g><ellipse cx="531.731" cy="297.924" fill="#333" fill-rule="nonzero" rx="4.143" ry="5.929" transform="rotate(-35.331 531.731 297.924)"/><g fill-rule="nonzero"><path fill="#333" d="M343.116 275.089c-.867-3.174 1.894-3.515 3.705-4.551 1.153-1.34 2.842-2.218 4.452-3.171.966-.509.946.728 1.785.444 2.47-1.3 4.029-1.244 6.929-2.569a13.79 13.79 0 0 0 7.419-1.623c1.76-.341 2.753.43 4.508.13a10.586 10.586 0 0 0 3.77-2.513c1.572.755 3.552.964 4.867 2.045 1.176.202 1.54-.58 2.495-.657.99.076 1.267 1.025 2.248 1.102.852-.066 1.245-.714 1.943-.963 2.824-.195 6.096.042 8.964-.81 3.78.538 8.67-.13 13.164.541.767-.106 1.748.133 2.3-.333 3.757 2.14 8.346 2.233 12.037 1.326.779.76 1.452.515 2.466.588 1.422.674 1.646 2.29 2.76 3.188a2.08 2.08 0 0 1 1.454 1.108c.795-.466 1.82-.44 2.72-.666 1.956 1.747 5.144 1.284 6.885 3.219-.61 2.082-2.599.673-3.775 1.314-1.859-.752-2.898-.116-4.082-.513-.853-.039-1.258.93-1.776 1.639-.756-.166-1.66-.653-2.152-.235a1.184 1.184 0 0 0-1.703.264c-.654-.024-.437-.764-1.23-.674-1.18.418-3.015-.521-3.71.879-.237-.461-.852-.592-1.503-.695a3.17 3.17 0 0 0-1.997.628c-.694-.143-1.388-.3-2.086-.43-1.044-.343-1.018 1.293-1.81 1.398-4.345-1.623-8.046-1.012-12.014-2.227-2.194.463-3.615-.153-5.61.432-1.682.072-4.046-.797-5.304-.069-1.935-1.16-4.7-.666-7.162.01-1.45-.512-2.981.165-4.77.275-2.378.124-5.5-.269-7.68.489-.772-.021-1.72.27-2.16-.245-3.46 1.686-7.533 1.167-11.274 1.97-.344-.703-1.25-.406-1.76-.823-1.163-.156-1.138.819-2 .956-.587-1.633-2.114-1.572-3.385-1.942-1.809.635-2.919.357-4.047 1.725-.652.172-.952-.37-1.298-.815-.362.696-1.698.587-2.583.854z"/><path fill="#FFC346" d="M289.087 320.405c-3.874 3.08-6.11-.71-8.788-2.634-2.609-.822-4.982-2.622-7.4-4.241-1.375-1.003.306-1.796-.68-2.775-3.531-2.55-4.625-4.73-8.586-7.726a33.85 33.85 0 0 0-1.7-2.809 20.007 20.007 0 0 0-.841-1.146l-.108-.134a.831.831 0 0 0-.082-.096l-.09-.085a.777.777 0 0 0-.187-.156 1.652 1.652 0 0 0-2.012.267c-.323.036-.538-.25-.885-.488a1.425 1.425 0 0 0-.565-.251.994.994 0 0 0-.308.013c-.05.018-.1.039-.15.062l-.076.038-.333.186a29.079 29.079 0 0 1-5.075 3.027 25.99 25.99 0 0 1-5.417 1.897 22.38 22.38 0 0 1-6.226-3.948c-1.763-1.658-2.994-3.641-3.265-5.441a15.577 15.577 0 0 0-1.04-1.599 17.195 17.195 0 0 0-.95-1.192l-.24-.275-.175-.163a6.049 6.049 0 0 1-.337-.325 3.133 3.133 0 0 1-.581-.825c-.473-1.472.685-2.403.212-3.875-.593-1.206-1.724-1.407-2.5-2.268-1.963-3.96-3.743-8.792-6.792-12.303a26.204 26.204 0 0 0-.363-1.076l-.558-1.503a20.3 20.3 0 0 1-.6-2.003 19.676 19.676 0 0 1-.37-2.114c-.37-2.995.03-6.034 1.16-8.832a16.74 16.74 0 0 1 5.815-7.369c.314-.219.692-.472.965-.646l.571-.353 1.15-.689c.77-.45 1.548-.88 2.331-1.283.44-.412 1.023-.766 1.531-1.15.247-.18.475-.385.68-.611.094-.11.18-.226.26-.347.107-.131.2-.274.276-.426a104.343 104.343 0 0 1 12.893-2.147 69.96 69.96 0 0 1 12.45-.054c.324.349.69.655 1.092.911.349.24.718.448 1.104.622.886.324 1.754.695 2.599 1.113a6.507 6.507 0 0 1 1.338 1.75c.262.593.459 1.214.585 1.85l.355 1.796a8.69 8.69 0 0 0 .483 1.828c.21.248.405.507.587.775.155.254.283.523.382.804.194.477.24 1.002.13 1.506a5.465 5.465 0 0 1 2.104 1.258c.332.283.674.578 1 .88.303.315.61.627.93.916.014.303.04.601.08.895l.066.439.04.217.01.055.005.027a4877.08 4877.08 0 0 1-3.632 6.177h-.002l-.006-.002-.012-.003-.092-.019a10.144 10.144 0 0 0-1.495-.174 28.513 28.513 0 0 0-3.066.089c-2.052.128-4.082.23-5.88-.693-.192-3.243 3.543-2.28 4.998-3.758a9.37 9.37 0 0 0 3.687-.557l.704-.24.341-.113.17-.052.084-.025.021-.006.011-.003h.001l-.946 1.61-.001-.003-.004-.004-.025-.033a4.383 4.383 0 0 1-.662-1.173c-.17-.24-.41-.422-.687-.521a2.413 2.413 0 0 0-.907-.074c-.656.09-1.307.217-1.948.383-.133-.214-.244-.465-.37-.708-.145-.228-.29-.46-.444-.666-.318-.403-.63-.742-1.112-.646a1.773 1.773 0 0 0-.914-.961 1.422 1.422 0 0 0-1.152.194c-.354-.19-.33-.497-.345-.8a.643.643 0 0 0-.58-.723 3.011 3.011 0 0 1-1.215-.294l-1.248-.41a2.06 2.06 0 0 0-1.214-.033 1.765 1.765 0 0 0-1.03.833c-.12-.71-.83-.946-1.57-1.142a2.64 2.64 0 0 0-1.26.264c-.379.21-.717.487-.999.816a14.564 14.564 0 0 0-2.274-.196c-.595-.06-.75.49-.812 1.11-.067.62-.063 1.285-.357 1.542a18.974 18.974 0 0 0-.803-.08 3.517 3.517 0 0 0-.78.056c-.256.034-.515.065-.77.11l-.72.254-.36.129c-.15.047-.295.11-.432.188l-1.105.59-2.15 1.202-2.113 1.19-1.061.575-.267.14a.235.235 0 0 1-.037.014.29.29 0 0 1-.093.004c-.34.028-.677.085-1.007.17.16.268.242.577.234.89.03.105.029.216.136.299a.378.378 0 0 0 .19.103l.058.018.177.237c.123.161.252.322.39.484 1.283 2.465 1.71 6.534 3.533 7.988-.29 3.602 2.135 7.462 4.598 10.853.046.614.183 1.218.406 1.792.054.144.113.288.175.43l.091.2.032.036c.049.042.07.105.134.133.218.15.499.127.656.254.097.106.221.222.37.367.156.16.348.28.559.352.213.07.443.065.654-.013.045-.036.093-.07.142-.1.287-.166.57-.33.85-.49.385-.229.775-.435 1.168-.624.392-.193.772-.398 1.162-.56 1.15-.334 2.332-.55 3.526-.644a6.099 6.099 0 0 1 1.573.083c.4.053.777.214 1.092.467 2.752-.34 5.542.18 7.989 1.488a14.991 14.991 0 0 1 3.461 2.513c.517.498 1 1.03 1.447 1.592l.121.154.088.12.176.238.349.48c1.85 2.574 3.551 5.309 5.568 7.701-.67.978.439 2.073.276 3.082.7 1.76 1.986 1.08 2.83 2.235-1.77 1.929-.519 4.053-.116 6.128 2.188 2.192 2.57 3.968 5.248 4.78.698.84.155 1.6-.23 2.37 1.209.117 1.96 2.13 2.925 3.262z"/></g></g></g></g></svg>