<svg xmlns="http://www.w3.org/2000/svg" width="206" height="138" viewBox="0 0 206 138"><g fill="none" transform="translate(0 -4)"><ellipse cx="29.768" cy="109.064" fill="#FFC346" stroke="#FFC346" stroke-linejoin="round" stroke-width=".55" rx="3.79" ry="3.476"/><path fill="#FFC346" d="M196.012 24.973c-7.89-7.874-20.683-7.874-28.573 0l-8.32 8.302-8.32-8.302c-7.89-7.874-20.682-7.874-28.572 0a20.134 20.134 0 0 0 0 28.513l8.32 8.302 28.572 28.513 28.573-28.513 8.32-8.302a20.141 20.141 0 0 0 5.917-14.257 20.139 20.139 0 0 0-5.917-14.256z"/><path fill="#FFC346" d="M194.85 26.131a2.274 2.274 0 0 1 2.353-.566c.92.22 1.82.94 2.752 1.888.421.503.862 1.058 1.277 1.661.365.63.757 1.283 1.094 1.97.292.703.635 1.404.882 2.124l.36 1.075c.129.346.24.697.333 1.054a16.58 16.58 0 0 1 1.495 7.012 22.477 22.477 0 0 1-1.455 8.063c-1.323 3.062-2.058 1.563-3.526 3.763-.27.432-.58.817-.865 1.21l-.436.575c-.145.189-.296.384-.412.52-.496.601-.98 1.168-1.457 1.714-.955 1.093-1.882 2.104-2.83 3.138-1.898 2.067-3.88 4.227-6.333 7.319-6.047 5.088-8.748 8.028-13.2 13.973-3.114 3.286-5.44 4.167-8.552 7.455a38.81 38.81 0 0 0-3.056 4.368l-2.206 3.671-6.104-3.67a45.283 45.283 0 0 0-4.506-2.358c-1.955-3.386-5.161-7.183-6.463-10.354-1.875-2.311-3.23-2.431-4.964-4.13-1.673-1.86-1.316-3.062-2.988-4.922-1.57-1.52-2.832-1.756-4.294-2.833-2.584-2.496-5.303-5.269-8.107-7.969a135.473 135.473 0 0 0-4.265-3.95l-.54-.473-.271-.234c-.09-.077-.21-.2-.313-.297l-1.288-1.238c-.445-.396-.8-.871-1.203-1.303-.383-.448-.808-.865-1.143-1.342a28.894 28.894 0 0 1-3.412-9.132c-.66-3.494-.62-7.084.12-10.562a25.398 25.398 0 0 1 4.613-10.075 24.272 24.272 0 0 1 8.562-7.086 28.89 28.89 0 0 1 1.743-.916c.304-.157.618-.294.941-.41l.95-.368.912-.366c.3-.1.591-.2.866-.303a8.15 8.15 0 0 0 1.416-.663 34.98 34.98 0 0 1 9.938 1.013 31.314 31.314 0 0 1 9.179 3.948l2.035 1.421 1.896 1.566 1.499 1.288 1.465 1.214a83.719 83.719 0 0 0 5.753 4.28c.158.307.333.604.523.891h-8.998c1.487-1.01 2.311-2.256 3.768-3.837a12.714 12.714 0 0 1 4.104-2.103c.638-.211 1.27-.403 1.92-.65.15-.054.353-.142.545-.226l.583-.266c.393-.187.793-.393 1.207-.63.424-.314.864-.578 1.275-.829a7.08 7.08 0 0 1 1.206-.62 5.145 5.145 0 0 1 2.031-.432 11.324 11.324 0 0 1 2.965-2.076c.296-.15.593-.317.901-.453l.938-.379.935-.38c.308-.129.622-.21.925-.321.445.03.892.052 1.34.064.45.018.906.08 1.363.107.457.044.917.038 1.38.106l1.395.166c.47.046.939.118 1.402.215l1.409.255 1.393.365.696.183.679.242 1.346.497c.439.187.86.408 1.284.615.832.412 1.625.895 2.372 1.444.369.255.716.54 1.04.85.327.296.641.594.942.895a16.007 16.007 0 0 1 1.464 1.972 1.706 1.706 0 0 1-1.743.169 6.978 6.978 0 0 1-1.033-.491c-.38-.18-.772-.396-1.17-.63l-.604-.36-.644-.317c-.433-.207-.85-.442-1.281-.607a6.365 6.365 0 0 0-2.382-.52 12.617 12.617 0 0 0-3.169-.95 13.07 13.07 0 0 0-2.608-.087c-.394.028-.772.046-1.14.084-.368.06-.727.116-1.084.164-.718.063-1.415.239-2.19.297a2.389 2.389 0 0 0-.68.241c-.184.092-.36.199-.525.32a2.885 2.885 0 0 0-.7.741c-.276.563-.51 1.144-.699 1.74-1.598.567-3.727 1.389-4.059 2.455-.214.11-.413.22-.598.329a4.92 4.92 0 0 0-.471.38c-.254.22-.485.467-.69.734a3.36 3.36 0 0 0-.25.394c-.073.13-.136.266-.19.406-.097.243-.154.5-.171.76-1.143 1.291-1.607.51-2.852 2.127-1.018 1.655-3.15 3.576-4.418 5.289l-2.093 2.826-3.823-2.826c-.919-.68-1.776-1.112-2.503-1.005-.23-.913-1.378-2.122-2.614-3.365a15.43 15.43 0 0 0-4.295-2.832l-.732-.714c-.122-.12-.238-.247-.364-.362l-.4-.315c-.27-.206-.523-.44-.802-.636l-.86-.557a1.491 1.491 0 0 0-.593-.311 1.452 1.452 0 0 0-1.3.216c-.483.326-.893.743-1.543.622a10.78 10.78 0 0 0-5.536-.976 12.175 12.175 0 0 0-5.113 1.646 15.235 15.235 0 0 0-4.007 3.458 18.63 18.63 0 0 0-2.806 4.697 24.417 24.417 0 0 0 .03 5.33 8.797 8.797 0 0 0 1.878 4.56c.213.314.404.659.6 1.018.24.333.47.687.693 1.06.26.346.54.69.802 1.053.036.048.06.086.106.141l.162.182.325.363.647.72c1.722 1.905 3.406 3.647 4.889 4.553 2.688 4.58 8.22 9.434 13.405 13.694 2.213 3.163 5.656 5.629 9.034 9.045 2.529 2.56 5.292 5.693 8.041 8.612h-8.372a72.308 72.308 0 0 0 6.13-6.323c1.524-1.36 3.249-3.334 4.408-3.578 5.904-7.9 14.35-14.466 21.49-21.722 1.002.23 2.693-1.644 3.89-2.014.49-.354.94-.764 1.336-1.22a6.49 6.49 0 0 0 .415-.55c.115-.16.213-.33.294-.51.123-.3.226-.591.373-.883.078-.154.166-.302.266-.442a5.34 5.34 0 0 1 .334-.498c.462.197.98.216 1.456.055a4.357 4.357 0 0 0 1.47-.93c.256-.221.489-.468.693-.737l.674-.84.587-.923c.194-.31.416-.61.573-.923.443-1.803.64-3.658.588-5.514-.03-.395-.048-.782-.107-1.161a15.76 15.76 0 0 0-.287-1.117c-.058-.184-.108-.37-.185-.55-.084-.18-.174-.358-.268-.536a8.096 8.096 0 0 0-.651-1.06 2.615 2.615 0 0 1-.141-1.642c.104-.384.253-.755.442-1.105a4.771 4.771 0 0 1-.822-.982c-.298-.4-.564-.896-.87-1.404-.34-.486-.66-1.025-1.017-1.529a30.868 30.868 0 0 0-1.153-1.355z"/><path fill="#333" d="M61.334 79.303c-1.535 2.099-3.712 4.329-6.612 5.644a4.249 4.249 0 0 0-2.338 5.06l.362 1.237a13.434 13.434 0 0 1-2.159 11.84 13.491 13.491 0 0 1-10.786 5.382H25.44c-.705 0-1.38-.289-1.868-.799a2.575 2.575 0 0 1-.71-1.9c.38-8.035 2.437-31.666 13.506-38.475 11.098-6.827 22.912 2.3 26.654 5.647.76.676.976 1.774.529 2.686a25.354 25.354 0 0 1-1.047 1.917c.161.22.317.44.468.66.567.77 1.021 1.617 1.349 2.515.66.837.79 1.536 1.36 2.323.358.73.473 1.884.892 2.376.012.932.213 1.852.592 2.703l.279.793-.865.957-.455.504a2.877 2.877 0 0 0-.855.597l.616-1.554c.055.349.132.716.16 1.116.036.54.022 1.162.029 1.774l.007 1.027c.015.344-.025.68-.007.987-.02.393-.14.776-.351 1.11a5.148 5.148 0 0 1-1.227 2.81 7.8 7.8 0 0 1-2.441 1.914c-.182-.088-.607.146-.847.128-.553.109-.566.315-1.007.38-.1-.129-.327-.155-.595-.164-.271-.029-.583-.016-.853-.044-.358.026-.718.02-1.075-.017-.304-.026-.582-.034-.9-.08a1.203 1.203 0 0 1-.451-.183c-.237-.017-.785-.163-1.186-.249.697.048 1.39.135 2.076.26.724.04 1.45-.016 2.159-.167.435-.096.321-.058.684-.157.47-.157.92-.367 1.342-.625a6.077 6.077 0 0 0 1.236-1.012c.376-.391.696-.832.95-1.31.12-.213.22-.436.3-.666.103-.256.182-.52.236-.79a7.284 7.284 0 0 0 .251-1.852c-.021-.33-.054-.625-.088-.9l-.14-.777c-.042-.639-.127-1.473-.145-2.01l-.031-.284-.009-.077.06-.054.6-.536c.315-.26.42-.305.722-.553l-.042.125-.009-.04c-.088-.355-.158-.521-.249-.81a29.75 29.75 0 0 0-1.276-3.618 29.097 29.097 0 0 0-2.435-4.769zm-2.86 7.825c-.455.014-.837-.407-.854-.94-.017-.534.337-.978.792-.992.454-.015.836.406.853.94.018.533-.337.977-.792.992zm-31.647 23.549c7.955.51 12.936 9.034 9.208 16.065-1.656 3.125-4.78 6.61-10.158 10.358-.772.534-1.79.55-2.578.04a2.309 2.309 0 0 1-1.016-2.365l4.539-24.098h.005z"/><path fill="#333" d="M79.766 190.798c-1.182.65-3.34 1.485-5.04 2.232-1.78.906-4.091 1.912-6.306 2.9-1.313.576-1.039.22-2.152.679-3.356 1.475-5.312 2.171-9.165 3.849-3.966 1.438-5.944 2.246-9.545 3.851-2.248.906-3.44 1.193-5.689 2.1a65.024 65.024 0 0 0-4.886 2.357l-1.316.413-.937.293-.41-.699a26.382 26.382 0 0 1-2.249-4.625c-.671-1.462-1.003-1.926-1.542-3.125-.497-1.254-.452-1.622-.927-2.877-.427-1.09-.753-1.577-1.132-2.461-1.387-3.587-2.847-7.81-4.614-11.208a32.612 32.612 0 0 0-4.176-7.203c-.484-.565-.913-1.108-1.461-1.712-.519-.596-1.066-1.177-1.55-1.807-.495-.622-1.004-1.233-1.457-1.882-.464-.64-.931-1.274-1.346-1.932-.622-.839-1.314-2.026-1.758-2.573a150.487 150.487 0 0 1-3.702-7.672 178.4 178.4 0 0 1-3.097-7.417c-.268-1.188-.576-1.99-.982-3.309-.479-2.012-.367-2.756-.642-4.472a12.157 12.157 0 0 1-.347-2.235c-.315-.905-.615-2.261-.897-3.374-.308-3.133-1.079-7.193-.955-10.206.21.05.314.858.43 1.827.09.93.226 1.856.409 2.773.286 2.74.657 3.92.926 5.63.116.665.368 1.3.74 1.864.157.998.382 1.985.673 2.953.103.76.322 1.501.65 2.195.247.88.066.805.4 1.828.5 1.458 1.235 4.114 1.717 4.657.168.73.388 1.445.66 2.141a18.76 18.76 0 0 0 1.127 2.423c.36.93.75 1.85 1.152 2.763.592 1.397.76.98 1.264 1.956a48.938 48.938 0 0 0 4.325 7.653c.394.57.806 1.122 1.204 1.68.403.556.84 1.082 1.256 1.627.859 1.075 1.756 2.07 2.69 3.312a23.487 23.487 0 0 1 2.41 3.492c.344.552.633 1.116.941 1.694.313.576.639 1.168.96 1.812 1.091 2.212 2.19 5.44 2.957 7.085a82.622 82.622 0 0 0 3.643 9.546 37.933 37.933 0 0 0 2.902 6.032c.35.62.771 1.234 1.18 1.907l-1.231-.37c2.73-1.035 5.774-2.16 8.099-3.155.93-.39 1.882-.728 2.85-1.016 4.78-2.132 10.152-4.007 15.22-6.015.73-.167 1.452-.371 2.162-.613 1.491-.509 1.654-.768 2.816-1.215.431.186 2.425-.548 3.983-1.024 2.483-1.019 3.836-1.438 5.64-2.363.455-.216.95-.332 1.454-.341.43-.248 1.312-.58 2.207-.914a57.457 57.457 0 0 1-1.681-1.089l-1.588-1.082-.763-.512-.714-.518-1.962-1.494c-.485-.388-.95-.802-1.39-1.24-5.956-4.548-11.425-10.64-16.156-16.78-.142-.417-1.31-1.941-1.736-2.674-1.244-1.861-1.603-2.036-2.59-3.507-.005-.57-1.632-3.104-2.731-5.13-2.025-3.22-2.9-5.02-4.428-7.447a6.486 6.486 0 0 1-.772-1.957 43.673 43.673 0 0 1-2.334-4.875c.305-.088.957 1.097 1.82 2.715.858 1.62 1.926 3.67 2.915 5.355 1.511 2.364 3.395 5.368 5.345 8.16 1.149 1.653.654 1.33 1.627 2.716 1.51 2.088 2.733 3.69 4.02 5.362 1.314 1.65 2.692 3.371 4.694 5.535a73.568 73.568 0 0 0 4.988 5.412c1.557 1.524 3.156 2.934 5.295 4.671l1.753 1.454c.522.45 1.006.863 1.51 1.253a41.98 41.98 0 0 0 3.395 2.539 45.313 45.313 0 0 0 6.64 3.596c.585.396 1.258.745 1.937 1.126.688.365 1.374.786 2.086 1.116 1.415.68 2.767 1.377 3.852 1.858.782.33 1.585.606 2.404.827.663.162 1.272.322 2.14.469 1.771.34 2.2.538 4.03.57a11.256 11.256 0 0 0 1.936-.237 20.104 20.104 0 0 0 1.686-.403 23.415 23.415 0 0 0 3.87-1.25 29.12 29.12 0 0 0 3.773-1.988 36.744 36.744 0 0 0 6.59-5.29 57.807 57.807 0 0 0 3.99-4.1 79.325 79.325 0 0 0 3.93-4.852c2.57-3.426 5.016-7.163 7.256-10.839.72-1.244 1.697-2.877 2.085-3.765a127.31 127.31 0 0 0 10.208-20.613 46.528 46.528 0 0 0 1.931-4.403c1.19-2.624 1.824-3.411 2.851-5.624a29.63 29.63 0 0 1 1.304-2.897c.372-1.291 1.038-3.125 1.518-4.662 1.775-4.05 3.465-9.607 4.964-13.511.369.266-1.166 4.464-1.653 6.365-1.327 3.667-1.774 5.344-2.65 7.64a10.417 10.417 0 0 0-.63 2.753c-.555 1.447-1.318 3.249-1.527 4.036a17.45 17.45 0 0 0-1.113 3.069c-.477 1.214-.55 1-1.095 2.435-.728 2.076-2.408 5.633-2.545 6.62-.322.528-.845 1.68-1.402 2.887a62.588 62.588 0 0 0-1.465 3.537 242.419 242.419 0 0 1-1.915 3.857c-1.017 1.93-.54 1.678-1.237 3.108-4.431 8.022-8.114 14.506-13.21 21.005a64.434 64.434 0 0 1-3.65 4.603 99.04 99.04 0 0 1-3.794 4.128 43.233 43.233 0 0 1-4.414 3.796c-1.575 1.22-3.186 2.212-4.294 2.936a32.79 32.79 0 0 1-6.59 2.577 22.042 22.042 0 0 1-8.018.589c-.378-.043-.749-.151-1.13-.23-.377-.09-.768-.15-1.15-.264-.757-.232-1.568-.434-2.317-.73l-2.377-.85c-.81-.312-1.626-.68-2.476-1.043-1.141-.462-2.293-1.102-3.505-1.703-.61-.293-1.198-.647-1.797-.988l-1.8-1.03c-.426-.273-.854-.541-1.28-.807zm63.556-88.333c.089-.287.171-.56.206-.768.591-1.284.728-1.914 1.164-2.698a1.83 1.83 0 0 0 .168-1.08c.302-.44.578-.899.826-1.372.288-.298.505-.656.636-1.049.301-.39.37-.248.716-.712.122-.17.284-.36.46-.556.182-.19.39-.378.577-.564.324-.248.605-.55.83-.89.25-.068.667-.337 1.15-.562.277-.162.54-.259.762-.383.223-.127.432-.22.636-.312.287-.077.58-.13.876-.154.294-.042.591-.058.888-.05.894.045.731-.24 1.407-.195a11.67 11.67 0 0 1 3.21 1.277c.477.249.885.562 1.32.834.408.301.797.614 1.19.92l-.967-.219a34.65 34.65 0 0 1 2.995-.574c1.554-.434 2.623-.524 4.056-.885 1.236-.23 3.002-.3 3.932-.522 1.468.094 3.483-.176 5.527.027a8.005 8.005 0 0 1 1.911.681c.433.238.789.595 1.026 1.028.25.49.328 1.05.219 1.59a4.694 4.694 0 0 1-.673 1.575 20.89 20.89 0 0 1-.804 1.299l-.417.638-.428.606c-.272.403-.543.78-.79 1.128a5.874 5.874 0 0 1-1.085 1.175c-1.614 2.265-4.022 4.1-6.254 5.83-.21-.023-.758.414-1.062.52-.43.31-.842.645-1.233 1.004-.327-.164-1.262.405-2.026.764-.9.538-1.765 1.136-2.585 1.79a1.055 1.055 0 0 1-.758.213c-.528.386-1.087.725-1.672 1.016-.3-.562 1.42-1.457 2.561-2.3.76-.697 1.792-1.46 2.746-2.241.571-.45.539-.152 1.027-.52 1.434-1.184 2.315-1.764 3.841-3.232a16.621 16.621 0 0 0 3.635-3.63c.77-.92 1.289-1.278 1.982-2.264a9.795 9.795 0 0 0 1.098-2.454c.156-.195.318-.41.48-.633.132-.17.248-.351.346-.542.145-.341.197-.407.13-.654a.894.894 0 0 0-.532-.296l-.673-.13a7.916 7.916 0 0 0-1.37-.405 6.93 6.93 0 0 0-1.332.147 29.458 29.458 0 0 0-6.075.761 67.077 67.077 0 0 0-7.237 1.498l-.445.11-.423-.308c-.43-.313-.83-.674-1.261-.952-.214-.118-.452-.27-.676-.406a2.62 2.62 0 0 0-.616-.238 5.5 5.5 0 0 0-3.597-1.044c-1.19.129-2.3.663-3.14 1.514a3.652 3.652 0 0 0-1.197 1.016c-.72.637-1.147.73-1.762 1.34a4.55 4.55 0 0 1-.75.848c-.158.46-.467 1.08-.662 1.62-.958 1.272-1.54 3.29-2.219 4.62-.06-.025-.095-.08-.113-.156-.1.243-.216.506-.345.785a69.984 69.984 0 0 1-.942 1.931l-.504 1.008-.535.946a58.665 58.665 0 0 1-3.426 6.114c-.775 1.227-.744.774-1.416 1.787-2.078 3.065-3.39 4.704-6.02 8.043-.69.813-1.353 1.474-1.933 2.114-.587.635-1.12 1.223-1.64 1.812-1.055 1.163-2.105 2.282-3.423 3.78-.872.862-1.563 1.473-2.25 2.086l-1.055.947c-.377.326-.778.682-1.227 1.098-1.534 1.521-2.748 2.75-3.84 3.927l-2.72 1.97a40.41 40.41 0 0 1-2.593 1.719c-1.316.919-1.676 1.38-2.75 2.148-.507.347-1.04.655-1.593.922l-.73.381-.278-.611c-.167-.365-.353-.72-.559-1.065-.619-.996-1.023-1.415-1.571-2.209-2.062-3.259-4.45-7.06-6.73-10.221-2.76-4.378-6.588-9.776-10.05-14.859-.615-.817-1.36-1.977-1.84-2.448a22.14 22.14 0 0 0-5.505-5.99 23.175 23.175 0 0 0-3.43-2.128 24.31 24.31 0 0 0-3.425-1.364 8.634 8.634 0 0 0-1.485-.59 22.28 22.28 0 0 0-1.663-.442c-1.91-.56-2.528-.952-4.206-1.31a20.417 20.417 0 0 1-2.21-.37c-.95.062-2.322.042-3.452.156a27.687 27.687 0 0 0-5.123.249c-1.763.232-3.503.555-4.942.815-.017-.213.76-.495 1.714-.725.954-.234 2.08-.428 2.76-.605a53.91 53.91 0 0 1 5.744-.528 6.148 6.148 0 0 0 2.01-.362c1.117.04 2.515.208 3.105.186.773.155 1.56.23 2.35.223.934.148.781.283 1.876.463.391.07.856.174 1.345.29.486.12.988.284 1.47.419.705.26 1.433.456 2.174.584.378.26 1.234.602 2.09 1.06l.742.353.644.33c.405.208.787.362 1.133.546l1.302.893 1.242.975c.336.322.717.595 1.13.809.339.134.648.332.91.583.57.627 1.163 1.204 1.659 1.842l.765.922c.241.312.465.633.696.944l.676.928.62.906 1.223 1.777c1.613 2.349 3.167 4.636 4.713 7.099 1.835 2.538 2.897 4.322 4.566 6.643 1.357 2.02 3.066 4.964 4.16 6.425 1.18 2.218 3.071 5.113 4.869 7.898l-1.447-.33.833-.607a64.687 64.687 0 0 0 5.449-4.086 110.195 110.195 0 0 0 8.334-7.168 28.064 28.064 0 0 1 2.238-2.027c3.555-3.82 7.521-7.873 10.879-12.151a21.67 21.67 0 0 0 1.524-1.64c.636-.8 1.215-1.641 1.734-2.52.457-.082 1.697-1.806 2.724-3.078.716-1.136 1.238-2.018 1.732-2.82.497-.794.944-1.619 1.338-2.47.203-.458.503-.868.879-1.2.251-.71 1.16-2.238 1.765-3.386.016.01.03.021.041.035zm-85.28-39.397c-.148-.057-.12-.624.032-1.546.075-.46.182-1.01.311-1.626.16-.608.367-1.276.584-1.994a44.154 44.154 0 0 1 4.112-9.089 46.33 46.33 0 0 1 10.324-12.262 17.785 17.785 0 0 1 2.261-1.684c.453-.3.887-.507 2.024-1.318a60.489 60.489 0 0 1 9.593-5.49 82.877 82.877 0 0 1 11.22-4.232 68.518 68.518 0 0 1 7.523-1.619l.04-.005.067-.002a13.726 13.726 0 0 0 3.62-.503 4.556 4.556 0 0 0 1.438-.68c.333-.211.54-.574.551-.969l.006-.085.013-.135c.01-.086.028-.17.057-.252.047-.146.113-.286.196-.415a2.62 2.62 0 0 1 .477-.531 5.36 5.36 0 0 1 .964-.643 16.01 16.01 0 0 1 1.96-.859c1.339-.495 2.755-.92 4.294-1.36 2.709-.72 4.75-1.158 6.755-1.667a28.587 28.587 0 0 0 2.994-.892c.239-.09.471-.193.697-.31.09-.046.178-.1.26-.162.062-.034.078-.11.008.057a.502.502 0 0 0 .014.318c.019.044.044.073.044.08.009.014.027.024.014.018-.01-.007.005.002-.023-.022l-.099-.079-.199-.159c-.268-.213-.546-.43-.812-.671-.967-.821-1.814-1.647-2.619-2.408-.805-.76-1.573-1.462-2.34-2.084a19.528 19.528 0 0 0-4.63-2.839 23.003 23.003 0 0 0-6.853-2.326 50.936 50.936 0 0 0-6.846-.762c-.897-.035-1.653.01-2.324.034-.67.026-1.258.057-1.825.12-1.134.11-2.185.207-3.656.378l-3.406.297c-.946.065-1.89.158-3.402.4a41.968 41.968 0 0 0-3.204.637c-.91.216-1.764.394-2.834.655-4.314.873-8.94 2.022-13.555 3.256l-3.45.952-3.407 1.006c-2.265.66-4.435 1.355-6.492 2.153a69.51 69.51 0 0 0-17.191 8.966 76.45 76.45 0 0 0-15.212 14.518 60.467 60.467 0 0 0-4.014 5.671 86.621 86.621 0 0 0-9.18 16.74A110.668 110.668 0 0 0 7.379 74.87a72.66 72.66 0 0 0-1.815 7.563c-1.007 4.55-1.545 6.05-2.265 9.936-.332 2.193-.597 4.075-.812 5.083-.136 2.169-.399 5.321-.493 7.927-.381 3.92-.56 7.855-.536 11.793.004 2.045.049 4.079.135 6.02.043.97.096 1.918.166 2.83.035.456.074.903.123 1.336.026.216.052.43.086.634.017.101.035.204.056.293.01.05.022.087.033.125 0 .03.05.06-.052-.018.004.016.017.036.024.067.005.032-.022.002-.036 0a.626.626 0 0 1-.125-.203 4.777 4.777 0 0 1-.248-.876 26.364 26.364 0 0 1-.374-2.881c-.194-2.231-.26-4.838-.359-6.427.001-3.167.041-5.452.082-7.445.048-1.992.107-3.692.26-5.682a30.63 30.63 0 0 0 .004-4.564c.24-2.509.69-5.657.779-6.974.436-2.777.654-4.357.696-5.262.346-2.094.436-1.796.863-4.254.284-1.764.81-4.202 1.313-6.385.505-2.184.985-4.115 1.059-4.904.343-.942.914-2.92 1.574-4.983l1.866-5.948a118.34 118.34 0 0 1 2.668-6.494 24.86 24.86 0 0 0 1.17-2.85c.225-.757.516-1.493.869-2.2a97.984 97.984 0 0 1 11.407-17.42A72.408 72.408 0 0 1 39.922 19.34a64.486 64.486 0 0 1 8.095-5.09 88.453 88.453 0 0 1 8.24-3.847 70.325 70.325 0 0 1 4.296-1.51c1.53-.482 3.096-.908 4.618-1.338 3.041-.876 5.938-1.624 7.935-2.234C79.306 3.94 88.124 1.77 96.358.664l3.626-.325c1.246-.075 2.521-.196 3.848-.225a47.803 47.803 0 0 1 8.49.318c2.138.279 4.24.796 6.262 1.543a22.123 22.123 0 0 1 5.994 3.389 62.305 62.305 0 0 1 4.83 4.517c.374.35.74.704 1.114 1.022.185.164.37.324.56.469l.28.222.14.11.07.055.143.121c.115.104.216.222.3.353.12.198.188.423.198.655.004.38-.14.748-.403 1.025-.25.255-.542.468-.862.63-.464.237-.944.443-1.437.615a59.498 59.498 0 0 1-6.812 1.767c-1.452.396-2.916.79-4.366 1.223a23.546 23.546 0 0 0-4.131 1.545 2.433 2.433 0 0 0-.627.457.124.124 0 0 1-.018.022.591.591 0 0 0-.163-.081.38.38 0 0 0-.15-.05.079.079 0 0 0-.026-.008l-.017-.001h-.014c.797.001.22.004.398.006v.007a2.977 2.977 0 0 1-.146.893 3.17 3.17 0 0 1-.985 1.409 5.131 5.131 0 0 1-1.262.756c-.81.334-1.66.566-2.528.69a17.59 17.59 0 0 1-2.531.212l.136-.01a67.571 67.571 0 0 0-9.08 2.117 71.887 71.887 0 0 0-8.727 3.26c-.673.123-3.43 1.465-4.648 2.047-.804.394-1.406.763-1.923 1.066-.515.308-.937.563-1.32.837-.77.54-1.478 1.001-2.627 1.817-.836.111-4.777 2.947-7.457 5.516l-1.497 1.567c-.467.498-.87 1.002-1.278 1.465-.83.915-1.464 1.84-2.124 2.685-.634.863-1.167 1.741-1.738 2.612-.508.911-1.029 1.838-1.526 2.87a30.61 30.61 0 0 1-1.632 2.945c-.26.81-.854 2.117-1.32 3.641-.56 1.493-.95 3.202-1.33 4.628z"/></g></svg>