<svg xmlns="http://www.w3.org/2000/svg" width="48" height="48" viewBox="0 0 48 48"><defs><linearGradient id="a" x1=".008%" y1="50%" y2="50%"><stop offset="30%" stop-color="#00B4E6"/><stop offset="100%" stop-color="#088CCB"/></linearGradient></defs><g fill="none" fill-rule="evenodd"><circle cx="24" cy="24" r="24" fill="#F5F5F6"/><path fill="#4DB45E" d="M18.545 19v.004c-.003 0-1.094-.004-1.384 1.179-.267 1.085-1.018 4.08-1.039 4.162h-.207s-.769-3.062-1.039-4.166C14.586 18.996 13.492 19 13.492 19H11v9h2.492v-5.345h.208L15.153 28h1.73l1.454-5.341h.208V28h2.492v-9h-2.492zm9.103 0s-.73.075-1.073.943l-1.765 4.402h-.208V19H22.11v9h2.354s.764-.079 1.107-.943l1.73-4.402h.208V28h2.492v-9h-2.353zm3.461 4.087V28H33.6v-2.869h2.7c1.176 0 2.173-.853 2.543-2.044H31.11z"/><path fill="url(#a)" d="M5.572 0H.032C.307 1.714 1.44 3.09 2.903 3.537c.332.102.682.157 1.042.157h4.27c.039-.204.056-.412.056-.628C8.272 1.372 7.064 0 5.572 0z" transform="translate(30.728 19)"/></g></svg>