<svg xmlns="http://www.w3.org/2000/svg" width="48" height="48" viewBox="0 0 48 48"><g fill="none" fill-rule="evenodd"><circle cx="24" cy="24" r="24" fill="#F5F5F6"/><path fill="#FACA22" d="M15 21.705c0-1.317.111-2.152 2.857-4.188 2.274-1.685 9.56-7.443 9.56-7.443v9.612h5.542v13.835H16.731A1.732 1.732 0 0 1 15 31.8V21.706"/><path fill="#C9A521" d="M27.418 19.686v5.57l-10.183 6.888 12.874-4.159v-8.299h-2.691"/><path fill="#6F8F9D" d="M22.764 19.398c.596-.704 1.466-.953 1.943-.555.478.398.382 1.292-.213 1.996-.595.705-1.465.953-1.943.555-.478-.398-.382-1.291.213-1.996"/></g></svg>