<svg xmlns="http://www.w3.org/2000/svg" width="48" height="48" viewBox="0 0 48 48"><g fill="none" fill-rule="evenodd"><circle cx="24" cy="24" r="24" fill="#F5F5F6"/><g fill-rule="nonzero"><path fill="#0057A4" d="M20.776 20.576h-2.05l1.282-8.47h2.05l-1.282 8.47zm7.361-8.214l-.275 1.838-.184-.09a3.21 3.21 0 0 0-1.509-.326c-.8 0-1.159.371-1.167.733 0 .398.434.66 1.143 1.05 1.167.606 1.709 1.348 1.7 2.317-.016 1.765-1.4 2.905-3.526 2.905-.91-.009-1.785-.217-2.26-.453l.283-1.91.267.137c.659.317 1.092.452 1.901.452.584 0 1.21-.262 1.217-.832 0-.371-.266-.643-1.05-1.06-.767-.407-1.793-1.086-1.776-2.308C22.91 13.158 24.319 12 26.32 12c.784 0 1.418.19 1.817.362zm2.736 5.214h1.68c-.082-.424-.465-2.451-.465-2.451l-.142-.73c-.1.315-.274.829-.266.81 0 0-.64 1.884-.807 2.37zm2.497-5.47l1.63 8.47h-1.872s-.183-.973-.241-1.27H30.29l-.424 1.27h-2.122l3.004-7.766c.208-.55.575-.703 1.057-.703h1.564zm-16.3 0h2.147l-3.19 8.47h-2.148l-1.819-7.415c1.286.731 2.438 2.201 2.806 3.554l.217 1.173 1.987-5.782z"/><path fill="#FFA200" d="M13.282 12.212h-3.249L10 12.38c2.534.695 4.212 2.37 4.902 4.384l-.706-3.849c-.117-.533-.474-.685-.914-.702z"/></g><g fill-rule="nonzero"><path fill="#FF5F00" d="M20.161 26.781h6.564v10.397h-6.564z"/><path fill="#EB001B" d="M20.837 31.98c-.002-2.029.959-3.945 2.604-5.198-2.795-2.13-6.81-1.82-9.222.713s-2.412 6.438 0 8.971c2.412 2.533 6.427 2.843 9.222.713-1.646-1.253-2.606-3.17-2.604-5.2z"/><path fill="#F79E1B" d="M34.473 31.98c0 2.531-1.49 4.84-3.838 5.947a6.993 6.993 0 0 1-7.194-.75c1.645-1.253 2.605-3.17 2.605-5.198 0-2.029-.96-3.945-2.605-5.198 2.052-1.565 4.846-1.856 7.194-.75s3.838 3.416 3.838 5.947v.002z"/></g></g></svg>