<svg xmlns="http://www.w3.org/2000/svg" width="48" height="48" viewBox="0 0 48 48"><g fill="none" fill-rule="evenodd"><circle cx="24" cy="24" r="24" fill="#F5F5F6"/><g fill-rule="nonzero"><path fill="#253B80" d="M20.442 32.938l.32-2.158-.712-.018h-3.401l2.363-15.922a.198.198 0 0 1 .192-.174h5.736c1.904 0 3.217.421 3.903 1.252.322.39.527.797.626 1.245.104.47.105 1.032.004 1.718l-.007.05v.439l.321.193c.246.132.466.311.651.528.275.333.453.756.529 1.259.077.516.052 1.13-.076 1.826-.146.8-.384 1.497-.704 2.068a4.19 4.19 0 0 1-1.116 1.299 4.41 4.41 0 0 1-1.502.72 7.053 7.053 0 0 1-1.879.23h-.446c-.319 0-.629.123-.872.342a1.461 1.461 0 0 0-.455.863l-.034.194-.565 3.803-.025.14c-.007.044-.019.066-.036.08a.091.091 0 0 1-.058.024h-2.757z"/><path fill="#179BD7" d="M30.09 18.98a8.833 8.833 0 0 1-.058.358c-.756 4.125-3.344 5.55-6.648 5.55h-1.682c-.405 0-.745.312-.808.735l-.861 5.805-.244 1.645a.48.48 0 0 0 .097.369c.082.101.202.16.328.16h2.984c.353 0 .653-.273.709-.643l.03-.161.56-3.788.037-.208c.055-.372.356-.645.71-.645h.445c2.892 0 5.155-1.247 5.816-4.856.277-1.507.134-2.766-.598-3.652a2.879 2.879 0 0 0-.816-.669z"/><path fill="#222D65" d="M29.3 18.645a5.695 5.695 0 0 0-.736-.173 8.773 8.773 0 0 0-1.483-.115h-4.495c-.353 0-.654.273-.708.644l-.957 6.435-.027.187c.062-.423.404-.735.808-.735h1.682c3.304 0 5.892-1.426 6.648-5.55.023-.123.042-.241.059-.358a4.018 4.018 0 0 0-.792-.335z"/><path fill="#253B80" d="M21.878 19.001c.053-.371.355-.645.708-.644h4.495c.532 0 1.03.037 1.483.115.307.052.61.128.906.23.223.078.43.171.621.278.225-1.524-.002-2.562-.777-3.502-.856-1.035-2.4-1.478-4.375-1.478h-5.734c-.404 0-.748.312-.81.736l-2.389 16.087a.546.546 0 0 0 .112.421c.093.117.23.184.374.184h3.54l.89-5.992.955-6.436z"/></g></g></svg>