<svg xmlns="http://www.w3.org/2000/svg" width="48" height="48" viewBox="0 0 48 48"><g fill="none" fill-rule="evenodd"><circle cx="24" cy="24" r="24" fill="#F5F5F6"/><path fill="#006CB4" fill-rule="nonzero" d="M24.777 13.34c1.707 0 3.331.39 4.788 1.09.229.102.459.226.687.35l-1 .885-1.497-1.544-2.581 2.264-1.52-1.626-4.747 4.22 3.04 3.313-1.187 1.028 2.998 3.313-1.187 1.029 4.29 4.713 2.538-2.306 2.208 2.47c-.438.33-.917.66-1.437.947a10.963 10.963 0 0 1-5.372 1.399c-6.016 0-10.908-4.835-10.908-10.782-.02-5.907 4.872-10.765 10.887-10.765v.001zm-1.999 10.103l2.603-2.305 2.332 2.573-2.604 2.304-2.33-2.572zm1.853 4.446l2.583-2.326 2.351 2.573-2.603 2.305-2.33-2.552h-.001zm-3.704-8.83l2.6-2.304 2.334 2.572-2.604 2.306-2.33-2.573zm4.767-1.233l1.935-1.73 1.749 1.914-1.937 1.75-1.749-1.934h.002zm3.455 7.922l1.935-1.728 1.75 1.934-1.937 1.73-1.749-1.936zm1.706 3.89l1.937-1.729 1.748 1.914-1.936 1.749-1.749-1.934zm.792-8.891l1.291-1.152 1.165 1.276-1.29 1.152-1.167-1.276zM29.98 16.94l1.292-1.172 1.166 1.296-1.291 1.153-1.166-1.276v-.001zm3.311 7.616l1.29-1.153 1.186 1.276-1.311 1.152-1.165-1.275zm-5.808-2.862l1.936-1.728 1.748 1.913-1.935 1.73-1.749-1.914v-.001z"/></g></svg>