<svg xmlns="http://www.w3.org/2000/svg" width="48" height="48" viewBox="0 0 48 48"><g fill="none" fill-rule="evenodd"><circle cx="24" cy="24" r="24" fill="#F5F5F6"/><path fill="#FF8C00" fill-rule="nonzero" d="M31.181 26.753c.398.151.55.742.581 1 .061.47-.076.65-.229.65-.153 0-.367-.18-.596-.544-.23-.364-.32-.773-.198-.985.076-.137.244-.197.443-.121zm-2.322 1.712c.245 0 .52.106.764.317.474.394.611.849.367 1.182-.138.167-.367.273-.627.273s-.534-.091-.718-.258c-.427-.363-.55-.97-.275-1.302.107-.137.275-.212.49-.212zm-5.347 4.377C17.706 32.842 13 28.177 13 22.421 13 16.665 17.706 12 23.512 12c5.805 0 10.511 4.665 10.511 10.42 0 1.955-.55 3.788-1.481 5.348-.031.045-.107.03-.123-.03-.366-2.56-1.94-3.97-4.232-4.393-.199-.03-.23-.152.03-.182.703-.06 1.696-.045 2.216.045.03-.257.046-.53.046-.802 0-3.802-3.117-6.893-6.952-6.893s-6.952 3.09-6.952 6.893c0 3.802 3.117 6.892 6.952 6.892h.32a9.31 9.31 0 0 1-.137-1.863c.016-.425.107-.485.29-.152.963 1.651 2.338 3.135 5.027 3.726 2.2.485 4.4 1.045 6.769 4.03.213.257-.107.53-.352.317-2.413-2.12-4.614-2.817-6.615-2.817-2.246.015-3.774.303-5.317.303z"/></g></svg>