<svg width="56" height="56" viewBox="0 0 56 56" xmlns="http://www.w3.org/2000/svg" xmlns:xlink="http://www.w3.org/1999/xlink"><title>status</title><defs><circle id="b" cx="16" cy="16" r="16"/><filter x="-65.6%" y="-46.9%" width="231.2%" height="231.2%" filterUnits="objectBoundingBox" id="a"><feOffset dy="6" in="SourceAlpha" result="shadowOffsetOuter1"/><feGaussianBlur stdDeviation="6" in="shadowOffsetOuter1" result="shadowBlurOuter1"/><feColorMatrix values="0 0 0 0 0.971524004 0 0 0 0 0.803662277 0 0 0 0 0.449514974 0 0 0 0.8 0" in="shadowBlurOuter1"/></filter></defs><g fill="none" fill-rule="evenodd"><g transform="translate(12 6)"><use fill="#000" filter="url(#a)" xlink:href="#b"/><use fill="#FFC346" xlink:href="#b"/></g><g transform="translate(20 12)"><path d="M4.119 8.096a6.339 6.339 0 0 1 3.222-.874h.029c1.197 0 2.317.33 3.273.904l1.852-7.076a1.267 1.267 0 0 1 1.403-.933c.625.088 1.07.652 1.011 1.28l-1.17 12.457h-.006A6.369 6.369 0 0 1 7.37 19.96h-.03a6.369 6.369 0 0 1-6.362-6.105H.972L.1 2.136A1.205 1.205 0 0 1 1.132.854a1.256 1.256 0 0 1 1.393.935L4.12 8.096z" fill="#D98538"/><ellipse fill="#FFD681" cx="7.34" cy="13.368" rx="5.106" ry="5.053"/><ellipse fill="#FFC346" cx="7.34" cy="13.368" rx="3.83" ry="3.789"/><path d="M7.34 6.871a2.047 2.047 0 0 1 2.062-1.66 1.681 1.681 0 0 1 1.59 2.086l-.69 2.77a1.713 1.713 0 0 1-1.663 1.301 1.339 1.339 0 0 1-1.299-1.012 1.339 1.339 0 0 1-1.298 1.012 1.714 1.714 0 0 1-1.664-1.3L3.69 7.297A1.681 1.681 0 0 1 5.28 5.21a2.047 2.047 0 0 1 2.06 1.66zm.913 6.948a1.4 1.4 0 0 1 1.66-.622c2.436.825 3.528.496 3.278-.986-.003-.023.278 1.089.107 2.315-.192 1.375-.867 2.886-1.49 2.948-.598.059-1.675-.556-3.231-1.844a1.423 1.423 0 0 1-.324-1.81z" fill="#D98538"/></g></g></svg>