<svg xmlns="http://www.w3.org/2000/svg" xmlns:xlink="http://www.w3.org/1999/xlink" width="56" height="56" viewBox="0 0 56 56"><defs><filter id="a" width="231.2%" height="231.2%" x="-65.6%" y="-46.9%" filterUnits="objectBoundingBox"><feOffset dy="6" in="SourceAlpha" result="shadowOffsetOuter1"/><feGaussianBlur in="shadowOffsetOuter1" result="shadowBlurOuter1" stdDeviation="6"/><feColorMatrix in="shadowBlurOuter1" values="0 0 0 0 0.819607843 0 0 0 0 0.48627451 0 0 0 0 0.294117647 0 0 0 0.4 0"/></filter><circle id="b" cx="16" cy="16" r="16"/></defs><g fill="none" fill-rule="evenodd" transform="translate(12 6)"><use fill="#000" filter="url(#a)" xlink:href="#b"/><use fill="#D17C4B" xlink:href="#b"/><g transform="translate(8 6)"><path fill="#A05B34" d="M4.119 8.096a6.332 6.332 0 0 1 3.222-.874h.029c1.197 0 2.317.33 3.273.904l1.852-7.076a1.267 1.267 0 0 1 1.403-.933c.625.088 1.07.652 1.011 1.28l-1.17 12.457h-.006a6.368 6.368 0 0 1-6.363 6.105h-.03a6.368 6.368 0 0 1-6.362-6.105H.972L.1 2.136A1.203 1.203 0 0 1 1.132.854a1.255 1.255 0 0 1 1.393.935L4.12 8.096z"/><ellipse cx="7.34" cy="13.368" fill="#ECC1A8" rx="5.106" ry="5.053"/><ellipse cx="7.34" cy="13.368" fill="#E3996E" rx="3.83" ry="3.789"/><path fill="#A05B34" d="M7.34 6.871A2.047 2.047 0 0 1 9.353 5.21h.049a1.683 1.683 0 0 1 1.589 2.087l-.689 2.77a1.713 1.713 0 0 1-1.663 1.301c-.627 0-1.153-.43-1.299-1.012a1.338 1.338 0 0 1-1.296 1.012h-.002a1.715 1.715 0 0 1-1.664-1.3L3.69 7.297A1.681 1.681 0 0 1 5.28 5.21a2.047 2.047 0 0 1 2.061 1.661zm.913 6.948a1.4 1.4 0 0 1 1.66-.622c2.436.825 3.528.496 3.278-.986-.003-.023.278 1.089.107 2.315-.192 1.375-.867 2.886-1.49 2.948-.598.059-1.675-.556-3.231-1.844a1.423 1.423 0 0 1-.324-1.81z"/></g></g></svg>