<svg width="45" height="45" viewBox="0 0 45 45" xmlns="http://www.w3.org/2000/svg"><title>top_icon</title><g fill="none" fill-rule="evenodd"><path d="M0 42h3v3H0v-3zM42 0h3v3h-3V0z" fill="#FFAD00"/><path fill="#FFC346" d="M0 22L22 0h23L0 45z"/><path d="M13.775 22.303l-2.772-2.771-.99.99-.693-.694 2.722-2.722.693.693-.99.99 2.772 2.772-.742.742zm1.32-4.784a1.568 1.568 0 0 0 2.227 0 1.568 1.568 0 0 0 0-2.228 1.568 1.568 0 0 0-2.227 0 1.568 1.568 0 0 0 0 2.228zm-.768.767c-.99-.99-.994-2.619.075-3.688s2.697-1.064 3.687-.074c.99.99.995 2.618-.074 3.688-1.07 1.069-2.698 1.064-3.688.074zm6.493-3.028l-3.465-3.465L20.3 8.848l3.465 3.465-.742.743-2.772-2.772-1.46 1.46 2.771 2.772-.742.742z" fill="#333" fill-rule="nonzero"/></g></svg>