<svg xmlns="http://www.w3.org/2000/svg" width="112" height="46" viewBox="0 0 112 46"><path fill-rule="evenodd" d="M106.255 44.639L89.662.029 89.65 0h-.327l-3.417 9.167-6.221 16.689-.015-.013c-2.156-1.858-5.197-3.02-9.028-3.452l-1.169-.117 1.16-.145c6.317-1.109 10.564-5.005 10.564-9.698 0-6.437-6.2-10.93-15.081-10.93H47.637v.326h5.37v33.259L39.967.029 39.954 0h-.328L36.21 9.167 23.03 44.524l-.08.01a14.544 14.544 0 0 1-1.66.105H7.971L33.286 1.827l.188-.322H2.514V14.75h.33C2.9 8.299 6.748 1.827 15.248 1.827h10.256L0 44.96h34.36V32.27h-.329c-.044 5.623-3.309 10.963-10.407 12.169l-.225.037 5.405-14.508h15.144l5.456 14.67h-5.382v.32h21.127v-.32h-5.406V22.51h6.237c6.348 0 9.989 2.77 9.989 7.595v3.925c0 .433.03 1.065.063 1.594v.02l-3.353 8.993H68.3v.32h9.067v-.32h-4.333l3.053-8.19.01.127.084.738.08.488c.51 3.02 1.693 5.24 3.515 6.598l.262.186c1.385.94 3.106 1.416 5.117 1.416 2.665 0 4.441-.649 5.908-2.175l-.192-.177c-1.352 1.218-2.486 1.711-3.907 1.711-2.421 0-3.688-2.867-3.688-5.695v-5.5a12.083 12.083 0 0 0-.648-4.016l-.06-.17v-.007h11.076l5.457 14.67h-5.383v.32H112v-.32l-5.745-.002zm-77.33-14.99l7.46-20.013 7.443 20.012H28.925zm30.821-7.46V1.826h4.761c6.36 0 9.718 3.692 9.718 10.673 0 7.424-1.927 9.688-8.245 9.688h-6.234zm22.692 7.46l-.032-.08a9.92 9.92 0 0 0-2.112-3.147l-.312-.304-.033-.03 6.127-16.452 7.444 20.012H82.438z"/></svg>