<svg width="45" height="45" viewBox="0 0 45 45" fill="none" xmlns="http://www.w3.org/2000/svg"><path d="M5.367 14.935a.885.885 0 0 0-.62-.257.886.886 0 0 0-.622.257.885.885 0 0 0-.258.622.88.88 0 0 0 .879.879.885.885 0 0 0 .621-.258.885.885 0 0 0 .258-.621.885.885 0 0 0-.258-.622zM38.496 0H20.713a.879.879 0 0 0 0 1.758h17.783a.88.88 0 0 1 .879.879v39.726a.88.88 0 0 1-.879.88H6.504a.88.88 0 0 1-.879-.88V18.838a.879.879 0 0 0-1.758 0v23.525A2.64 2.64 0 0 0 6.504 45h31.992a2.64 2.64 0 0 0 2.637-2.637V2.637A2.64 2.64 0 0 0 38.496 0z" fill="#0D6FE3"/><path d="M22.5 3.516c-.598 0-1.199.045-1.786.135a.879.879 0 0 0 .266 1.738c.5-.077 1.011-.116 1.52-.116 5.477 0 9.932 4.456 9.932 9.932 0 2.432-.88 4.662-2.336 6.39a8.789 8.789 0 0 0-4.588-3.839 4.293 4.293 0 0 0 1.299-3.078v-.857A4.312 4.312 0 0 0 22.5 9.514a4.311 4.311 0 0 0-4.306 4.307v.857c0 1.205.498 2.296 1.298 3.078a8.79 8.79 0 0 0-4.598 3.855 9.9 9.9 0 0 1-2.188-4.75.88.88 0 0 0-1.734.29A11.692 11.692 0 0 0 22.5 26.895c6.446 0 11.69-5.243 11.69-11.689 0-6.445-5.244-11.69-11.69-11.69zM19.951 13.82a2.552 2.552 0 0 1 2.55-2.549 2.552 2.552 0 0 1 2.548 2.549v.857a2.552 2.552 0 0 1-2.549 2.549 2.552 2.552 0 0 1-2.549-2.55v-.856zm2.55 11.316a9.92 9.92 0 0 1-6.302-2.24 6.988 6.988 0 0 1 6.301-3.912 6.987 6.987 0 0 1 6.294 3.897 9.886 9.886 0 0 1-6.294 2.255z" fill="#1F3E64"/><path d="M30.617 34.98h-12.48a.879.879 0 0 0 0 1.759h12.48a.879.879 0 1 0 0-1.758zm-15.613-4.664a.885.885 0 0 0-.622-.257.886.886 0 0 0-.621.257.886.886 0 0 0-.258.622.884.884 0 0 0 .879.878.881.881 0 0 0 .621-1.5zm0 4.922a.883.883 0 0 0-.622-.258.886.886 0 0 0-.621.258.886.886 0 0 0-.258.621c0 .232.095.458.258.622.163.163.39.257.621.257a.88.88 0 0 0 .621-1.5zm15.613-5.179h-12.48a.879.879 0 0 0 0 1.758h12.48a.879.879 0 0 0 0-1.758zM14.206 5.065a.88.88 0 0 0-1.244 0L10.1 7.927l-.978-.978a.88.88 0 0 0-1.243 1.243l1.6 1.6a.876.876 0 0 0 1.243 0l3.484-3.484a.88.88 0 0 0 0-1.243z" fill="#0D6FE3"/><path d="M11.074 0C7.1 0 3.867 3.233 3.867 7.207c0 3.974 3.233 7.207 7.207 7.207 3.974 0 7.207-3.233 7.207-7.207C18.281 3.233 15.048 0 11.074 0zm0 12.656a5.455 5.455 0 0 1-5.449-5.449 5.455 5.455 0 0 1 5.45-5.45 5.455 5.455 0 0 1 5.448 5.45 5.455 5.455 0 0 1-5.449 5.45z" fill="#0D6FE3"/></svg>