<svg width="45" height="45" viewBox="0 0 45 45" fill="none" xmlns="http://www.w3.org/2000/svg"><path d="M30.054 28.86c-1.066 0-1.933-.751-1.933-1.674 0-.923.867-1.674 1.933-1.674 1.067 0 1.934.751 1.934 1.674a.879.879 0 0 0 1.758 0c0-1.61-1.2-2.965-2.813-3.332v-.457a.879.879 0 0 0-1.758 0v.457c-1.612.367-2.812 1.722-2.812 3.332 0 1.892 1.656 3.431 3.691 3.431 1.067 0 1.934.751 1.934 1.674 0 .923-.867 1.674-1.934 1.674-1.066 0-1.933-.751-1.933-1.674a.879.879 0 0 0-1.758 0c0 1.61 1.2 2.965 2.813 3.332v.38a.879.879 0 0 0 1.757 0v-.38c1.613-.367 2.813-1.721 2.813-3.332 0-1.892-1.656-3.431-3.692-3.431z" fill="#1F3E64"/><path d="M39.68 23.632a11.452 11.452 0 0 0-4.677-4.14.879.879 0 1 0-.761 1.584 9.726 9.726 0 0 1 5.484 8.719c0 1.58-.39 3.149-1.127 4.534a.879.879 0 0 0 1.552.826 11.449 11.449 0 0 0 1.333-5.36c0-2.194-.623-4.325-1.803-6.163zm-8.244-5.262h-.059a.879.879 0 1 0 0 1.757h.055a.879.879 0 0 0 .004-1.758zm-5.56 20.144a9.726 9.726 0 0 1-5.485-8.719c0-1.581.39-3.149 1.127-4.534a.879.879 0 1 0-1.552-.826 11.45 11.45 0 0 0-1.333 5.36c0 2.194.624 4.325 1.803 6.163a11.452 11.452 0 0 0 4.678 4.14.88.88 0 0 0 .762-1.584zm2.864.949h-.05a.878.878 0 1 0-.009 1.758h.06a.88.88 0 0 0 0-1.758z" fill="#0D6FE3"/><path d="M34.05 15.396a4.035 4.035 0 0 0-.39-.718h2.287a4.048 4.048 0 0 0 4.043-4.043 4.048 4.048 0 0 0-4.043-4.043H28.91a4.02 4.02 0 0 0 .71-2.285A4.048 4.048 0 0 0 25.576.264H4.043A4.048 4.048 0 0 0 0 4.307 4.048 4.048 0 0 0 4.043 8.35h7.038a4.02 4.02 0 0 0-.71 2.285c0 .847.263 1.634.71 2.285H8.79a4.048 4.048 0 0 0-4.043 4.043c0 1.28.599 2.423 1.53 3.164a4.037 4.037 0 0 0 0 6.328 4.037 4.037 0 0 0 0 6.328 4.037 4.037 0 0 0-1.53 3.164A4.048 4.048 0 0 0 8.79 39.99h10.358a14.902 14.902 0 0 0 10.912 4.746c8.237 0 14.94-6.702 14.94-14.941 0-6.857-4.643-12.65-10.95-14.4zm1.897-7.046a2.288 2.288 0 0 1 2.285 2.285 2.288 2.288 0 0 1-2.285 2.285H14.414a2.288 2.288 0 0 1-2.285-2.285 2.288 2.288 0 0 1 2.285-2.285h21.533zM4.043 6.592a2.288 2.288 0 0 1-2.285-2.285A2.288 2.288 0 0 1 4.043 2.02h21.533a2.288 2.288 0 0 1 2.285 2.286 2.288 2.288 0 0 1-2.285 2.285H4.043zm4.746 8.086h21.533c.354 0 .693.082.997.23a14.895 14.895 0 0 0-11.834 4.34H8.79a2.288 2.288 0 0 1-2.285-2.285 2.288 2.288 0 0 1 2.285-2.285zm0 6.328h9.195a14.9 14.9 0 0 0-2.26 4.57H8.79a2.288 2.288 0 0 1-2.285-2.285 2.288 2.288 0 0 1 2.285-2.285zm0 6.328h6.532a14.97 14.97 0 0 0-.054 4.57H8.789a2.288 2.288 0 0 1-2.285-2.285 2.288 2.288 0 0 1 2.285-2.285zm0 10.898a2.288 2.288 0 0 1-2.285-2.285 2.288 2.288 0 0 1 2.285-2.285h6.837a14.882 14.882 0 0 0 2.108 4.57H8.79zm21.27 4.746c-7.27 0-13.184-5.914-13.184-13.183 0-7.27 5.914-13.184 13.184-13.184 7.269 0 13.183 5.915 13.183 13.184 0 7.27-5.914 13.183-13.183 13.183z" fill="#0D6FE3"/></svg>