<svg width="45" height="45" viewBox="0 0 45 45" fill="none" xmlns="http://www.w3.org/2000/svg"><g clip-path="url(#a)"><path d="M32.799 38.931l.231-.202a.439.439 0 0 0 .093-.092c.12-.138 2.823-3.232 3.85-5.61h.49c1.398 0 2.537-1.13 2.537-2.516v-3.976c0-1.386-1.139-2.515-2.536-2.515h-.546c-.843-2.176-2.277-4.141-4.184-5.739-.278-.982-.074-2.03.62-3.122a1.845 1.845 0 0 0-.009-2.001 1.876 1.876 0 0 0-1.823-.854c-2.675.33-4.277 1.533-5.211 2.653a17.776 17.776 0 0 0-2.703-.523.915.915 0 0 0-1.018.799.91.91 0 0 0 .805 1.01c1.018.12 2.027.34 2.99.642a.93.93 0 0 0 1.036-.358c.63-.927 1.898-2.102 4.323-2.405.018 0 .037 0 .055.027.019.028.01.046 0 .055-.962 1.524-1.25 3.113-.823 4.6.009.267.13.515.342.68 1.953 1.56 3.37 3.544 4.091 5.738.12.377.481.625.87.625h1.185a.7.7 0 0 1 .703.698v3.975a.7.7 0 0 1-.703.698h-1.12a.921.921 0 0 0-.88.643c-.518 1.68-2.795 4.527-3.683 5.546l-.204.174c-1.907 1.708-2.101 3.728-2.11 4.334v1.276h-5.285v-1.23a.92.92 0 0 0-1.018-.909c-1.352.138-2.713.12-4.027-.055a.901.901 0 0 0-.722.22.898.898 0 0 0-.314.689v1.276h-5.286v-.395c-.046-.964-.351-3.406-2.276-5.371-.908-.927-1.722-2.158-2.426-3.645-.009-.01-.009-.019-.018-.037a10.77 10.77 0 0 1-.944-2.507l-.01-.036c0-.01-.009-.019-.009-.028-.333-1.102-.296-2.488-.296-2.497v-.028c0-.606.056-1.221.148-1.818a.907.907 0 0 0-.75-1.047.913.913 0 0 0-1.055.744c-.12.689-.176 1.396-.176 2.103-.009.183-.027 1.726.37 3.057.241.983.612 1.947 1.084 2.865.777 1.671 1.712 3.058 2.758 4.132 1.472 1.506 1.722 3.397 1.758 4.168v.377c0 .037 0 .064.01.12A1.799 1.799 0 0 0 12.769 45h5.36a1.79 1.79 0 0 0 1.795-1.781v-.303c.805.064 1.601.073 2.416.037v.266A1.79 1.79 0 0 0 24.135 45h5.36a1.79 1.79 0 0 0 1.795-1.781v-1.295c.019-.284.12-1.754 1.509-2.993z" fill="#0D6FE3"/><path d="M5.078 17.574c0 4.123 3.378 7.483 7.543 7.483 4.156 0 7.544-3.351 7.544-7.483 0-4.123-3.379-7.483-7.544-7.483-4.156 0-7.543 3.351-7.543 7.483zm13.254 0c0 3.122-2.564 5.665-5.71 5.665-3.148 0-5.712-2.543-5.712-5.665s2.564-5.665 5.711-5.665c3.147 0 5.711 2.543 5.711 5.665zm8.164-12.359c0-2.874-2.36-5.215-5.258-5.215-2.897 0-5.257 2.341-5.257 5.215 0 2.874 2.36 5.216 5.257 5.216s5.258-2.342 5.258-5.216zm-8.692 0c0-1.873 1.537-3.397 3.425-3.397s3.425 1.524 3.425 3.397c0 1.873-1.537 3.398-3.425 3.398s-3.425-1.525-3.425-3.398z" fill="#1F3E64"/></g><defs><clipPath id="a"><path d="M0 0h45v45H0V0z" fill="#fff"/></clipPath></defs></svg>