<svg width="45" height="45" viewBox="0 0 45 45" fill="none" xmlns="http://www.w3.org/2000/svg"><path d="M24.498 8.133V.91a.92.92 0 0 0-.937-.91.92.92 0 0 0-.938.909v7.234a.92.92 0 0 0 .938.908c.52-.009.937-.413.937-.918zm-7.992 2.947a.963.963 0 0 0 .663-.266.884.884 0 0 0 0-1.285l-5.275-5.114a.953.953 0 0 0-1.326 0 .884.884 0 0 0 0 1.286l5.275 5.113c.18.174.426.266.663.266zm22.557 5.168H31.6a.92.92 0 0 0-.937.91.92.92 0 0 0 .937.908h7.462a.92.92 0 0 0 .938-.909.92.92 0 0 0-.938-.909zm-31.951.909a.92.92 0 0 0 .937.91h7.462a.92.92 0 0 0 .938-.91.92.92 0 0 0-.938-.909H8.05c-.511 0-.937.414-.937.91zm23.371-5.82l5.274-5.113a.884.884 0 0 0 0-1.285.953.953 0 0 0-1.325 0l-5.275 5.113a.884.884 0 0 0 0 1.285.96.96 0 0 0 .663.266.963.963 0 0 0 .663-.266z" fill="#1F3E64"/><path d="M5 26.943v15.744c0 .991.833 1.79 1.847 1.79h5.52a1.87 1.87 0 0 0 1.525-.771A4.975 4.975 0 0 0 17.244 45h14.792c3.314 0 5.426-1.69 5.805-4.627L39.83 28.11c.009-.046.009-.092.009-.138 0-2.616-2.197-4.746-4.896-4.746h-7.396v-5.15c0-2.23-.672-3.837-2.007-4.792-2.112-1.496-5-.642-5.123-.606a.91.91 0 0 0-.654.863v5.857c0 4.563-5.473 6.123-5.7 6.187a.765.765 0 0 0-.313.157 1.873 1.873 0 0 0-1.373-.597h-5.53c-1.023 0-1.847.808-1.847 1.799zm9.223.422c.114.01.228 0 .341-.027.294-.083 7.074-1.983 7.074-7.932v-5.131c.73-.11 1.932-.147 2.794.477.824.588 1.24 1.707 1.24 3.314v6.059a.92.92 0 0 0 .938.909h8.333c1.648 0 2.983 1.276 3.021 2.864l-1.98 12.2v.027c-.255 2.02-1.58 3.039-3.948 3.039H17.244c-1.666 0-3.02-1.313-3.02-2.928v-12.87zm-7.348-.404h5.473V42.66H6.875V26.961z" fill="#0D6FE3"/></svg>