<svg width="45" height="45" viewBox="0 0 45 45" fill="none" xmlns="http://www.w3.org/2000/svg"><g clip-path="url(#a)"><path d="M29.578 18.595v2.204c0 .495.404.891.909.891a.896.896 0 0 0 .908-.89v-2.205c0-.738-.33-1.431-.909-1.89-1.725-1.386-3.561-2.394-4.424-2.835v-2.24a2.308 2.308 0 0 0 .66-1.62V6.788C26.723 4.701 24.989 3 22.859 3h-.707c-2.13 0-3.865 1.7-3.865 3.788v3.222c0 .612.239 1.188.661 1.62v2.231c-.863.441-2.699 1.45-4.424 2.835a2.416 2.416 0 0 0-.91 1.89v2.204c0 .495.405.891.91.891a.896.896 0 0 0 .908-.89v-2.205c0-.198.092-.387.248-.513 1.965-1.584 4.085-2.637 4.498-2.826.358-.17.588-.54.588-.927v-3.104a.889.889 0 0 0-.404-.738.573.573 0 0 1-.257-.468V6.788c0-1.106.918-2.006 2.047-2.006h.707c1.13 0 2.047.9 2.047 2.006v3.222c0 .189-.092.36-.257.468a.867.867 0 0 0-.404.738v3.104c0 .396.23.756.588.927.403.198 2.533 1.242 4.498 2.826a.666.666 0 0 1 .248.522zm8.675 12.193a.867.867 0 0 0-.404.738v3.104c0 .396.23.756.588.927.404.198 2.533 1.25 4.498 2.825a.662.662 0 0 1 .248.513V41.1c0 .495.404.89.909.89A.896.896 0 0 0 45 41.1v-2.205c0-.738-.33-1.43-.908-1.89-1.726-1.385-3.562-2.393-4.425-2.834v-2.24a2.309 2.309 0 0 0 .66-1.62v-3.222c0-2.087-1.734-3.788-3.864-3.788h-.707c-2.13 0-3.865 1.7-3.865 3.788v3.222c0 .612.239 1.188.661 1.62v2.24c-.863.441-2.699 1.449-4.424 2.835a2.43 2.43 0 0 0-.91 1.89V41.1c0 .495.405.89.91.89a.896.896 0 0 0 .908-.89v-2.205c0-.198.092-.387.248-.513 1.965-1.583 4.085-2.636 4.498-2.825a1.04 1.04 0 0 0 .588-.927v-3.105a.889.889 0 0 0-.404-.737.573.573 0 0 1-.257-.468v-3.222c0-1.107.918-2.006 2.047-2.006h.707c1.13 0 2.047.9 2.047 2.006v3.222c0 .189-.092.36-.257.468zm-22.289 8.117v2.204c0 .495.404.891.909.891a.896.896 0 0 0 .909-.89v-2.205c0-.738-.331-1.431-.91-1.89-1.725-1.386-3.561-2.394-4.424-2.835v-2.24a2.31 2.31 0 0 0 .66-1.62v-3.221c0-2.088-1.734-3.789-3.864-3.789h-.707c-2.13 0-3.864 1.7-3.864 3.789v3.221c0 .612.238 1.188.66 1.62v2.24c-.862.441-2.698 1.45-4.424 2.835A2.416 2.416 0 0 0 0 38.905v2.204c0 .495.404.891.909.891a.896.896 0 0 0 .909-.89v-2.205c0-.198.091-.387.247-.513 1.965-1.584 4.086-2.637 4.499-2.826.367-.17.587-.53.587-.927v-3.104a.889.889 0 0 0-.404-.738.573.573 0 0 1-.257-.468v-3.221c0-1.107.918-2.007 2.047-2.007h.707c1.13 0 2.047.9 2.047 2.007v3.221a.55.55 0 0 1-.257.468.867.867 0 0 0-.404.738v3.104c0 .396.23.756.588.927.404.198 2.534 1.242 4.498 2.826a.648.648 0 0 1 .248.513z" fill="#0D6FE3"/><path d="M22.5 34.514a.896.896 0 0 0 .909-.891v-1.197h.1c1.717 0 3.122-1.368 3.122-3.06 0-1.691-1.396-3.06-3.121-3.06h-2.02c-.716 0-1.303-.575-1.303-1.277s.587-1.269 1.303-1.269h3.553a.896.896 0 0 0 .909-.89.896.896 0 0 0-.91-.892H23.4V20.8a.896.896 0 0 0-.908-.891.896.896 0 0 0-.91.89v1.18h-.09c-1.718 0-3.122 1.367-3.122 3.059 0 1.683 1.395 3.06 3.121 3.06h2.02c.716 0 1.303.576 1.303 1.277 0 .702-.587 1.278-1.303 1.278h-3.626a.896.896 0 0 0-.91.891c0 .495.405.89.91.89h1.707v1.198c0 .486.404.882.909.882z" fill="#1F3E64"/></g><defs><clipPath id="a"><path d="M0 0h45v45H0V0z" fill="#fff"/></clipPath></defs></svg>