<svg width="45" height="45" viewBox="0 0 45 45" fill="none" xmlns="http://www.w3.org/2000/svg"><path d="M22.5 31.833a.906.906 0 0 0-.91.91v4.055a4.15 4.15 0 0 0-3.246 4.046A4.164 4.164 0 0 0 22.5 45a4.164 4.164 0 0 0 4.156-4.156 4.15 4.15 0 0 0-3.246-4.046v-4.055a.906.906 0 0 0-.91-.91zm2.335 9.02A2.339 2.339 0 0 1 22.5 43.19a2.339 2.339 0 0 1-2.336-2.336 2.339 2.339 0 0 1 2.336-2.335 2.339 2.339 0 0 1 2.335 2.335zM22.5 13.167c.506 0 .91-.405.91-.91V8.202a4.15 4.15 0 0 0 3.246-4.046A4.164 4.164 0 0 0 22.5 0a4.164 4.164 0 0 0-4.156 4.156 4.15 4.15 0 0 0 3.246 4.046v4.055c0 .505.404.91.91.91zm-2.336-9.02A2.339 2.339 0 0 1 22.5 1.81a2.339 2.339 0 0 1 2.335 2.336A2.339 2.339 0 0 1 22.5 6.482a2.339 2.339 0 0 1-2.336-2.335zM36.798 23.41a4.15 4.15 0 0 0 4.046 3.246A4.164 4.164 0 0 0 45 22.5a4.164 4.164 0 0 0-4.156-4.156 4.15 4.15 0 0 0-4.046 3.246h-4.055a.906.906 0 0 0-.91.91c0 .506.404.91.91.91h4.055zm1.72-.91a2.339 2.339 0 0 1 2.335-2.336 2.339 2.339 0 0 1 2.335 2.336 2.339 2.339 0 0 1-2.335 2.335 2.339 2.339 0 0 1-2.336-2.335zM0 22.5a4.164 4.164 0 0 0 4.156 4.156 4.15 4.15 0 0 0 4.046-3.246h4.055c.505 0 .91-.404.91-.91a.906.906 0 0 0-.91-.91H8.202A4.15 4.15 0 0 0 0 22.5zm6.482 0a2.339 2.339 0 0 1-2.335 2.335A2.339 2.339 0 0 1 1.81 22.5a2.339 2.339 0 0 1 2.336-2.336A2.339 2.339 0 0 1 6.482 22.5zm22.62 6.602a.905.905 0 0 0 0 1.287l2.869 2.869a4.097 4.097 0 0 0-.644 2.216c0 1.112.432 2.151 1.214 2.933a4.132 4.132 0 0 0 2.933 1.214 4.117 4.117 0 0 0 2.933-1.214 4.162 4.162 0 0 0 0-5.875 4.132 4.132 0 0 0-2.933-1.214c-.8 0-1.563.23-2.216.643l-2.869-2.868a.913.913 0 0 0-1.287.009zm4.726 4.726a2.317 2.317 0 0 1 1.646-.68c.625 0 1.205.239 1.646.68.91.91.91 2.39 0 3.3a2.314 2.314 0 0 1-1.646.681 2.301 2.301 0 0 1-1.646-.68 2.317 2.317 0 0 1-.68-1.646 2.27 2.27 0 0 1 .68-1.655zM12.46 6.593a4.132 4.132 0 0 0-2.934-1.214 4.117 4.117 0 0 0-2.933 1.214 4.132 4.132 0 0 0-1.214 2.933c0 1.113.432 2.152 1.214 2.933a4.132 4.132 0 0 0 2.933 1.214c.8 0 1.563-.23 2.216-.644l2.869 2.87a.92.92 0 0 0 .643.266.92.92 0 0 0 .644-.267.905.905 0 0 0 0-1.287l-2.869-2.869a4.097 4.097 0 0 0 .644-2.216 4.042 4.042 0 0 0-1.214-2.933zm-1.288 4.579c-.441.441-1.03.68-1.646.68a2.3 2.3 0 0 1-1.646-.68 2.316 2.316 0 0 1-.68-1.646c0-.616.239-1.214.68-1.646a2.317 2.317 0 0 1 1.646-.68 2.3 2.3 0 0 1 1.646.68c.441.442.68 1.03.68 1.646a2.262 2.262 0 0 1-.68 1.646zm20.146-1.646c0 .8.23 1.563.643 2.216l-2.868 2.869a.905.905 0 0 0 0 1.287.92.92 0 0 0 .643.267.92.92 0 0 0 .644-.267l2.878-2.869a4.098 4.098 0 0 0 2.216.644 4.116 4.116 0 0 0 2.933-1.214 4.162 4.162 0 0 0 0-5.875 4.132 4.132 0 0 0-2.933-1.214 4.117 4.117 0 0 0-2.933 1.214 4.124 4.124 0 0 0-1.223 2.942zm2.51-1.646a2.317 2.317 0 0 1 1.646-.68 2.3 2.3 0 0 1 1.646.68c.91.91.91 2.39 0 3.301-.441.441-1.03.68-1.646.68a2.302 2.302 0 0 1-1.646-.68 2.317 2.317 0 0 1-.68-1.646 2.253 2.253 0 0 1 .68-1.655zm-17.93 21.222a.905.905 0 0 0-1.287 0l-2.869 2.869a4.097 4.097 0 0 0-2.216-.644 4.117 4.117 0 0 0-2.933 1.214 4.132 4.132 0 0 0-1.214 2.933c0 1.113.432 2.152 1.214 2.933a4.132 4.132 0 0 0 2.933 1.214 4.116 4.116 0 0 0 2.933-1.214 4.154 4.154 0 0 0 .57-5.158l2.87-2.869a.894.894 0 0 0 0-1.278zm-4.726 8.018c-.441.441-1.03.68-1.646.68a2.3 2.3 0 0 1-1.646-.68 2.317 2.317 0 0 1-.68-1.646c0-.625.239-1.204.68-1.646a2.317 2.317 0 0 1 1.646-.68 2.325 2.325 0 0 1 1.646 3.972z" fill="#0D6FE3"/><path d="M21.443 23.392h2.105c.773 0 1.398.625 1.398 1.407 0 .772-.625 1.397-1.398 1.397H19.76a.907.907 0 0 0-.91.91c0 .506.404.911.91.911h1.83v1.324c0 .506.404.91.91.91s.91-.404.91-.91v-1.324h.148a3.23 3.23 0 0 0 3.227-3.218 3.232 3.232 0 0 0-3.227-3.228h-2.106a1.397 1.397 0 1 1 0-2.795h3.715c.505 0 .91-.404.91-.91a.907.907 0 0 0-.91-.91H23.41v-1.297a.907.907 0 0 0-.91-.91.906.906 0 0 0-.91.91v1.296h-.147a3.232 3.232 0 0 0-3.228 3.228 3.234 3.234 0 0 0 3.228 3.209z" fill="#1F3E64"/></svg>