<svg width="45" height="45" viewBox="0 0 45 45" fill="none" xmlns="http://www.w3.org/2000/svg"><path d="M44.09 0H.91A.91.91 0 0 0 0 .918c0 .51.404.918.91.918h1.68v26.612c0 1.345 1.085 2.44 2.417 2.44h35.151c1.332 0 2.416-1.095 2.416-2.44V1.836h1.516A.91.91 0 0 0 45 .918.91.91 0 0 0 44.09 0zm-3.335 28.448a.599.599 0 0 1-.597.603H5.008a.599.599 0 0 1-.598-.603V1.836h36.345v26.612zm-16.822 8.503v-2.383h3.17a.91.91 0 0 0 .91-.918.91.91 0 0 0-.91-.918h-8.287a.91.91 0 0 0-.91.918c0 .51.404.918.91.918h3.298v2.383l-6.422 6.482A.918.918 0 0 0 16.335 45c.23 0 .468-.093.643-.269l5.136-5.183v4.534a.91.91 0 1 0 1.819 0v-4.534l5.108 5.155a.916.916 0 0 0 .643.27.918.918 0 0 0 .643-1.567l-6.394-6.455z" fill="#0D6FE3"/><path d="M25.936 13.482h6.946a.91.91 0 0 0 .91-.917 7.955 7.955 0 0 0-1.967-5.249 7.818 7.818 0 0 0-5.889-2.68.91.91 0 0 0-.91.918v7.01c0 .51.405.918.91.918zm.91-6.935a6 6 0 0 1 3.61 1.984 6.123 6.123 0 0 1 1.443 3.116h-5.053v-5.1z" fill="#0D6FE3"/><path d="M22.022 26.242c5.375 0 9.757-4.414 9.757-9.848a.91.91 0 0 0-.91-.918h-7.938V7.474a.91.91 0 0 0-.91-.918c-5.374 0-9.756 4.414-9.756 9.847 0 5.425 4.373 9.839 9.757 9.839zm-.919-17.804v7.956c0 .51.404.918.91.918h7.883c-.45 3.987-3.813 7.094-7.883 7.094-4.373 0-7.938-3.589-7.938-8.012.009-4.098 3.087-7.492 7.028-7.956z" fill="#1F3E64"/></svg>