<svg width="45" height="45" viewBox="0 0 45 45" fill="none" xmlns="http://www.w3.org/2000/svg"><path fill-rule="evenodd" clip-rule="evenodd" d="M22.5 43.5c11.598 0 21-9.402 21-21s-9.402-21-21-21-21 9.402-21 21 9.402 21 21 21zm0 1.5C34.926 45 45 34.926 45 22.5S34.926 0 22.5 0 0 10.074 0 22.5 10.074 45 22.5 45z" fill="#0D6FE3"/><circle cx="23" cy="4" r="1" fill="#0D6FE3"/><circle cx="31" cy="7" r="1" fill="#0D6FE3"/><circle cx="38" cy="13" r="1" fill="#0D6FE3"/><circle cx="41" cy="22" r="1" fill="#0D6FE3"/><circle r="1" transform="matrix(-1 0 0 1 14 7)" fill="#0D6FE3"/><circle r="1" transform="matrix(-1 0 0 1 7 13)" fill="#0D6FE3"/><circle r="1" transform="matrix(1 0 0 -1 23 40)" fill="#0D6FE3"/><circle r="1" transform="matrix(1 0 0 -1 31 37)" fill="#0D6FE3"/><circle r="1" transform="matrix(1 0 0 -1 38 31)" fill="#0D6FE3"/><circle cx="14" cy="37" r="1" transform="rotate(-180 14 37)" fill="#0D6FE3"/><circle cx="7" cy="31" r="1" transform="rotate(-180 7 31)" fill="#0D6FE3"/><circle r="1" transform="matrix(-1 0 0 1 4 22)" fill="#0D6FE3"/><path fill-rule="evenodd" clip-rule="evenodd" d="M23 8.5a.5.5 0 0 1 .5.5v13.5H34a.5.5 0 0 1 0 1H23a.5.5 0 0 1-.5-.5V9a.5.5 0 0 1 .5-.5z" fill="#3E465A"/><circle cx="23" cy="23" r="2" fill="#3E465A"/></svg>