<svg width="45" height="45" viewBox="0 0 45 45" fill="none" xmlns="http://www.w3.org/2000/svg"><path fill-rule="evenodd" clip-rule="evenodd" d="M4 6a2 2 0 0 0-2 2v33a2 2 0 0 0 2 2h37a2 2 0 0 0 2-2V11.825a1 1 0 1 1 2 0V41a4 4 0 0 1-4 4H4a4 4 0 0 1-4-4V8a4 4 0 0 1 4-4h34.136a1 1 0 0 1 0 2H4z" fill="#0D6FE3"/><circle cx="43.5" cy="5.5" r="1.5" fill="#3E465A"/><path fill-rule="evenodd" clip-rule="evenodd" d="M10 0a1 1 0 0 1 1 1v6a1 1 0 1 1-2 0V1a1 1 0 0 1 1-1zm8 0a1 1 0 0 1 1 1v6a1 1 0 1 1-2 0V1a1 1 0 0 1 1-1zm8 0a1 1 0 0 1 1 1v6a1 1 0 1 1-2 0V1a1 1 0 0 1 1-1zm8 0a1 1 0 0 1 1 1v6a1 1 0 1 1-2 0V1a1 1 0 0 1 1-1z" fill="#3E465A"/><rect x="6.75" y="14.75" width="1.5" height="1.5" rx=".75" stroke="#0D6FE3" stroke-width="1.5"/><rect x="6.75" y="21.75" width="1.5" height="1.5" rx=".75" stroke="#0D6FE3" stroke-width="1.5"/><rect x="6.75" y="28.75" width="1.5" height="1.5" rx=".75" stroke="#0D6FE3" stroke-width="1.5"/><rect x="6.75" y="35.75" width="1.5" height="1.5" rx=".75" stroke="#0D6FE3" stroke-width="1.5"/><rect x="16.75" y="35.75" width="1.5" height="1.5" rx=".75" stroke="#0D6FE3" stroke-width="1.5"/><rect x="16.75" y="28.75" width="1.5" height="1.5" rx=".75" stroke="#0D6FE3" stroke-width="1.5"/><rect x="16.75" y="21.75" width="1.5" height="1.5" rx=".75" stroke="#0D6FE3" stroke-width="1.5"/><rect x="16.75" y="14.75" width="1.5" height="1.5" rx=".75" stroke="#0D6FE3" stroke-width="1.5"/><rect x="26.75" y="35.75" width="1.5" height="1.5" rx=".75" stroke="#0D6FE3" stroke-width="1.5"/><rect x="26.75" y="28.75" width="1.5" height="1.5" rx=".75" stroke="#0D6FE3" stroke-width="1.5"/><rect x="26.75" y="21.75" width="1.5" height="1.5" rx=".75" stroke="#0D6FE3" stroke-width="1.5"/><rect x="26.75" y="14.75" width="1.5" height="1.5" rx=".75" stroke="#0D6FE3" stroke-width="1.5"/><rect x="36.75" y="35.75" width="1.5" height="1.5" rx=".75" stroke="#0D6FE3" stroke-width="1.5"/><rect x="36.75" y="28.75" width="1.5" height="1.5" rx=".75" stroke="#0D6FE3" stroke-width="1.5"/><rect x="36.75" y="21.75" width="1.5" height="1.5" rx=".75" stroke="#0D6FE3" stroke-width="1.5"/><rect x="36.75" y="14.75" width="1.5" height="1.5" rx=".75" stroke="#0D6FE3" stroke-width="1.5"/></svg>