<svg width="45" height="45" viewBox="0 0 45 45" fill="none" xmlns="http://www.w3.org/2000/svg"><path d="M4.344 5.95v23.794L.096 38.628a.987.987 0 0 0 .037.921.91.91 0 0 0 .774.451h43.18c.507 0 .913-.422.913-.95a.92.92 0 0 0-.138-.499l-4.175-8.807V5.95c0-.528-.405-.95-.912-.95H5.257c-.507 0-.913.422-.913.95zM17.08 37.745l.48-.997h9.896l.47.997H17.079zM6.17 6.9h32.71v22.114H6.17V6.9zm33.053 24.014l3.4 7.186H30.138l-1.29-2.724a.907.907 0 0 0-.82-.528h-11.03a.907.907 0 0 0-.82.528l-1.3 2.724H2.39l3.437-7.186h33.394z" fill="#0D6FE3"/><path d="M23.557 16.993h-2.092c-.765 0-1.382-.643-1.382-1.44 0-.796.617-1.439 1.382-1.439h3.695c.507 0 .913-.422.913-.95 0-.527-.406-.95-.913-.95h-1.74v-1.333c0-.527-.406-.95-.913-.95-.506 0-.912.423-.912.95v1.334h-.138c-1.77 0-3.207 1.497-3.207 3.339 0 1.842 1.438 3.338 3.207 3.338h2.092c.765 0 1.382.643 1.382 1.44 0 .796-.617 1.439-1.382 1.439h-3.77c-.506 0-.911.422-.911.95 0 .527.405.95.912.95h1.806v1.362c0 .527.405.95.912.95s.913-.422.913-.95V23.67h.138c1.769 0 3.207-1.496 3.207-3.338.009-1.833-1.429-3.34-3.198-3.34z" fill="#1F3E64"/></svg>