<svg width="121" height="25" viewBox="0 0 121 25" fill="none" xmlns="http://www.w3.org/2000/svg"><path fill-rule="evenodd" clip-rule="evenodd" d="M14.71 14.274a2.662 2.662 0 0 1-3.735.176 2.601 2.601 0 0 1-.178-3.7 2.662 2.662 0 0 1 3.729-.182 2.594 2.594 0 0 1 .2 3.688l-.016.018zM13.441 3.53c.223.218.427.439.612.656.63.759 1.149 1.602 1.54 2.505a8.11 8.11 0 0 0 1.924.13h.216a7.295 7.295 0 0 0 4.564-2.158l.158-.164a10.285 10.285 0 0 0-.77-.831C17.241-.727 10.217-1.233 5.177 2.478c3.892-1.868 6.59-.583 8.264 1.053z" fill="#fff"/><mask id="a" maskUnits="userSpaceOnUse" x="0" y="8" width="8" height="16"><path fill-rule="evenodd" clip-rule="evenodd" d="M.013 8.056h7.662v15.82H.013V8.056z" fill="#fff"/></mask><g mask="url(#a)"><path fill-rule="evenodd" clip-rule="evenodd" d="M4.476 16.267a10.256 10.256 0 0 1 1.674-3.446 7.952 7.952 0 0 0-.835-1.697c-.022-.03-.038-.06-.061-.095-.023-.034-.042-.053-.062-.084a7.24 7.24 0 0 0-4.164-2.832l-.235-.057c-.13.35-.25.701-.35 1.067-1.62 6.014 1.46 12.294 7.232 14.754-3.564-2.402-3.803-5.36-3.199-7.61z" fill="#fff"/></g><path fill-rule="evenodd" clip-rule="evenodd" d="M20.123 17.602c-.3.084-.593.145-.878.198a10.67 10.67 0 0 1-2.971.087 8.25 8.25 0 0 0-1.066 1.567c0 .035-.035.065-.05.1l-.043.091a7.112 7.112 0 0 0-.385 4.994c0 .072.043.145.066.217a14.68 14.68 0 0 0 1.104-.232c6.064-1.622 10.01-7.401 9.272-13.58-.311 4.266-2.786 5.936-5.05 6.558zM5.178 2.478a11.89 11.89 0 0 0-4.18 5.135 7.545 7.545 0 0 1 5.635 5.036c.35-.22 1.42-1.055 2.14-3.37.873-2.79 2.524-4.853 4.668-5.748 0 0-2.717-3.832-8.263-1.053z" fill="#fff"/><path fill-rule="evenodd" clip-rule="evenodd" d="M13.879 22.588a7.436 7.436 0 0 1 1.986-5.063l.02-.026c-.259-.275-1.155-.95-3.5-.423-2.878.648-6.054.572-7.909-.816 0 0-1.994 4.243 3.21 7.624a12.092 12.092 0 0 0 6.578 1.022 7.174 7.174 0 0 1-.385-2.318zm8.907-17.696a7.514 7.514 0 0 1-5.6 2.516 8.136 8.136 0 0 1-1.663-.176h-.027c-.108.382-.196 1.49 1.386 3.184 2.001 2.153 3.54 4.898 3.24 7.186 0 0 4.711-.412 5.05-6.561a11.798 11.798 0 0 0-2.386-6.15zm12.856 7.638a4.4 4.4 0 0 0 .98.074c1.573 0 2.538-.787 2.538-2.11 0-1.19-.832-1.896-2.3-1.896a4.907 4.907 0 0 0-1.218.117v3.815zm-2.968-5.88a24.36 24.36 0 0 1 3.992-.272c1.819 0 3.117.346 3.985 1.036a3.771 3.771 0 0 1 1.395 2.992 4.088 4.088 0 0 1-1.202 3.065 6.064 6.064 0 0 1-4.23 1.36 6.53 6.53 0 0 1-1.001-.06v4.624h-2.968l.03-12.745zm14.678 6.32c0 2.536 1.202 4.315 3.176 4.315 1.974 0 3.131-1.874 3.131-4.41 0-2.322-1.12-4.314-3.153-4.314-2.034 0-3.154 1.903-3.154 4.41zm9.424-.168c0 4.233-2.59 6.806-6.404 6.806s-6.137-2.896-6.137-6.615c0-3.874 2.494-6.762 6.352-6.762 4.007.037 6.189 3.006 6.189 6.57zm12.488 6.225a8.338 8.338 0 0 1-3.354.581c-4.504 0-6.826-2.8-6.826-6.482 0-4.41 3.176-6.858 7.123-6.858a7.654 7.654 0 0 1 3.206.573l-.594 2.316a6.416 6.416 0 0 0-2.478-.478c-2.345 0-4.163 1.396-4.163 4.277 0 2.588 1.55 4.22 4.185 4.22a7.538 7.538 0 0 0 2.456-.405l.445 2.256zM78.733 14l-1.277-3.72c-.29-.845-.482-1.61-.675-2.359h-.045c-.192.735-.4 1.55-.653 2.337L74.808 14h3.926zm-4.275 1.3L73.1 19.366h-1.743l4.452-12.921h2.026l4.452 12.921h-1.796l-1.395-4.064h-4.638zM86.16 7.892h-3.97V6.481h9.647v1.418h-3.984v11.496h-1.707l.015-11.503zm8.602 5.122c0 2.757 1.484 5.226 4.163 5.226 2.679 0 4.177-2.432 4.177-5.365 0-2.565-1.357-5.248-4.163-5.248-2.804 0-4.162 2.529-4.162 5.388h-.015zm10.121-.212c0 4.41-2.731 6.806-6.055 6.806-3.45 0-5.87-2.646-5.87-6.556 0-4.102 2.575-6.784 6.063-6.784 3.487 0 5.862 2.697 5.862 6.534z" fill="#fff"/><mask id="b" maskUnits="userSpaceOnUse" x="107" y="6" width="15" height="14"><path fill-rule="evenodd" clip-rule="evenodd" d="M107.732 6.481H121v12.921h-13.268V6.481z" fill="#fff"/></mask><g mask="url(#b)"><path fill-rule="evenodd" clip-rule="evenodd" d="M119.049 13.72c-.097-1.8-.215-3.968-.193-5.578h-.06a71.78 71.78 0 0 1-1.647 4.91l-2.3 6.27h-1.277l-2.107-6.16c-.623-1.816-1.143-3.484-1.484-5.02h-.037a163.07 163.07 0 0 1-.252 5.711l-.357 5.542h-1.603l.861-12.914h2.152l2.226 6.248c.535 1.594.987 3.013 1.314 4.358h.059c.327-1.308.794-2.727 1.373-4.358l2.323-6.248h2.144L121 19.402h-1.647l-.304-5.681z" fill="#fff"/></g></svg>