<svg width="160" height="25" viewBox="0 0 160 25" fill="none" xmlns="http://www.w3.org/2000/svg"><path d="M12.483 14.175a1.986 1.986 0 0 0 1.988-1.984c0-1.096-.89-1.985-1.988-1.985a1.986 1.986 0 0 0-1.988 1.985c0 1.096.89 1.984 1.988 1.984zm4.544-3.512a4.57 4.57 0 0 0 3.338 3.52 4.582 4.582 0 0 0 4.631-1.457v-.252a12.48 12.48 0 0 0-5.347-10.223A12.534 12.534 0 0 0 8.191.758c5.444.173 8.095 6.22 8.836 9.905z" fill="#fff"/><path d="M10.163 8.994c2.793-2.047.174-7.732-2.903-7.843A12.473 12.473 0 0 0 .037 11.52a12.464 12.464 0 0 0 5.55 11.348v-.158s-4.15-7.323 4.576-13.716z" fill="#fff"/><path d="M24.932 13.655a9.468 9.468 0 0 1-5.365 3.67c-2.509.584-5.138.38-7.526-.584-2.43-.929-7.78 0-5.65 6.504v.174a12.536 12.536 0 0 0 11.938.136 12.487 12.487 0 0 0 6.62-9.916l-.017.016z" fill="#fff"/><path fill-rule="evenodd" clip-rule="evenodd" d="M38.49 16.162h5.583l1.159 3.218h2.917L43.082 5.728h-3.546L34.414 19.38h2.903l1.172-3.218zm2.805-7.606l1.8 4.917h-3.6l1.8-4.917z" fill="#fff"/><path d="M57.697 11.286h-3.323v8.094h-2.791v-8.094h-3.309V8.653h9.422v2.633z" fill="#fff"/><path fill-rule="evenodd" clip-rule="evenodd" d="M64.55 19.589a5.578 5.578 0 0 0 5.584-5.572c0-3.078-2.5-5.573-5.584-5.573a5.578 5.578 0 0 0-5.583 5.573c0 3.077 2.5 5.572 5.584 5.572zm0-2.786a2.789 2.789 0 0 1-2.791-2.787 2.789 2.789 0 0 1 2.791-2.786 2.789 2.789 0 0 1 2.792 2.787 2.789 2.789 0 0 1-2.791 2.786z" fill="#fff"/><path d="M84.218 8.653v10.726h-2.792v-3.803l.224-3.663-3.337 4.792h-.083l-3.378-4.792.167 3.663v3.803h-2.791V8.653h3.224l2.792 3.817 2.791-3.817h3.183zm14.433-2.925V19.38H95.86v-5.712l.25-3.845-5.96 9.557h-3.21V5.728h2.792v5.711l-.252 3.845 5.96-9.556h3.211zm13.15 2.925v10.726h-2.792V15.2h-4.829v4.18h-2.792V8.652h2.792v3.956h4.829V8.653h2.792z" fill="#fff"/><path fill-rule="evenodd" clip-rule="evenodd" d="M123.987 16.259c0 2.201-1.703 3.093-3.909 3.093h-5.695v-10.7h5.207c2.15 0 3.853.572 3.853 2.787a2.495 2.495 0 0 1-1.396 2.215 2.606 2.606 0 0 1 1.94 2.605zm-4.648-5.419h-2.15v2.062h2.15c.963 0 1.27-.348 1.27-1.017 0-.669-.293-1.045-1.27-1.045zm.516 4.054c.935 0 1.284.376 1.284 1.128h.014c0 .78-.307 1.17-1.284 1.17h-2.68v-2.298h2.666zm8.557-.154h8.25c.265-3.538-1.969-6.324-5.528-6.31a5.451 5.451 0 0 0-3.991 1.59 5.43 5.43 0 0 0-1.593 3.982 5.415 5.415 0 0 0 1.617 4.02 5.436 5.436 0 0 0 4.051 1.553 5.178 5.178 0 0 0 5.262-3.65h-2.889a2.486 2.486 0 0 1-2.387 1.393 2.648 2.648 0 0 1-2.792-2.577zm5.276-2.047h-5.137a2.596 2.596 0 0 1 2.597-2.006 2.497 2.497 0 0 1 2.54 2.006z" fill="#fff"/><path d="M138.35 14.017a5.458 5.458 0 0 1 1.602-3.974 5.478 5.478 0 0 1 3.982-1.599 5.162 5.162 0 0 1 5.36 4.319h-2.876a2.428 2.428 0 0 0-2.484-1.742 2.794 2.794 0 0 0-2.063.898 2.781 2.781 0 0 0-.729 2.125 2.78 2.78 0 0 0 .729 2.125 2.793 2.793 0 0 0 2.063.898 2.456 2.456 0 0 0 2.498-1.755h2.876a5.149 5.149 0 0 1-5.374 4.333 5.463 5.463 0 0 1-4.007-1.613 5.44 5.44 0 0 1-1.577-4.015zM160 11.286h-3.322v8.094h-2.792v-8.094h-3.308V8.653H160v2.633z" fill="#fff"/></svg>