<svg width="20" height="20" viewBox="0 0 20 20" fill="none" xmlns="http://www.w3.org/2000/svg"><g clip-path="url(#a)" fill="#E4EDFF"><path d="M.054 15.104c.071-.112.268-.335.59-.67.323-.297.573-.557.753-.78.179-.187.376-.447.59-.781.251-.298.43-.595.538-.893a2.47 2.47 0 0 0 .16-.837c0-.409-.447-1.04-1.342-1.896C.448 8.355 0 7.387 0 6.347c0-.93.322-1.71.967-2.343A3.155 3.155 0 0 1 3.33 3c1.253 0 2.238.465 2.954 1.394.717.93 1.075 2.046 1.075 3.347 0 3.421-1.827 6.507-5.48 9.259a22.424 22.424 0 0 1-1.825-1.896zm12.641 0c.072-.112.269-.335.59-.67a7.43 7.43 0 0 0 .753-.78c.179-.187.376-.447.59-.781.251-.298.43-.595.538-.893.107-.297.161-.576.161-.837 0-.409-.448-1.04-1.343-1.896-.895-.892-1.343-1.86-1.343-2.9 0-.93.323-1.71.967-2.343A3.155 3.155 0 0 1 15.972 3c1.253 0 2.238.465 2.954 1.394C19.642 5.324 20 6.44 20 7.741c0 3.421-1.826 6.507-5.479 9.259a22.426 22.426 0 0 1-1.826-1.896z"/></g><defs><clipPath id="a"><path d="M0 0h20v20H0V0z" fill="#fff"/></clipPath></defs></svg>