<svg width="20" height="20" viewBox="0 0 20 20" fill="none" xmlns="http://www.w3.org/2000/svg"><g clip-path="url(#a)" fill="#0D6FE3"><path d="M.054 11.239c.071-.104.268-.31.59-.622.323-.276.573-.517.753-.725a4.86 4.86 0 0 0 .59-.725c.251-.276.43-.552.538-.828a2.15 2.15 0 0 0 .16-.777c0-.38-.447-.967-1.342-1.761C.448 4.972 0 4.074 0 3.108 0 2.244.322 1.519.967.932 1.61.311 2.399 0 3.33 0c1.253 0 2.238.432 2.954 1.295.717.863 1.075 1.899 1.075 3.107 0 3.177-1.827 6.043-5.48 8.598a21.591 21.591 0 0 1-1.825-1.761zm12.641 0c.072-.104.269-.31.59-.622.323-.276.574-.517.753-.725a4.86 4.86 0 0 0 .59-.725c.251-.276.43-.552.538-.828a2.15 2.15 0 0 0 .161-.777c0-.38-.448-.967-1.343-1.761-.895-.829-1.343-1.727-1.343-2.693 0-.864.323-1.589.967-2.176C14.253.311 15.04 0 15.972 0c1.253 0 2.238.432 2.954 1.295C19.642 2.158 20 3.194 20 4.402c0 3.177-1.826 6.043-5.479 8.598a21.593 21.593 0 0 1-1.826-1.761z"/></g><defs><clipPath id="a"><path fill="#fff" transform="rotate(-180 10 10)" d="M0 0h20v20H0z"/></clipPath></defs></svg>