<svg width="25" height="25" viewBox="0 0 25 25" fill="none" xmlns="http://www.w3.org/2000/svg"><path fill-rule="evenodd" clip-rule="evenodd" d="M12.232 19.937h1.494s.451-.052.682-.313c.212-.24.205-.69.205-.69s-.03-2.11.902-2.42c.917-.306 2.095 2.038 3.343 2.94.945.682 1.662.532 1.662.532l3.339-.049s1.746-.113.918-1.557c-.068-.118-.482-1.069-2.482-3.021-2.094-2.044-1.813-1.713.708-5.248 1.536-2.153 2.15-3.467 1.958-4.03-.182-.536-1.312-.394-1.312-.394l-3.76.024s-.278-.04-.484.09c-.202.128-.332.425-.332.425s-.595 1.666-1.389 3.082c-1.674 2.99-2.343 3.148-2.617 2.962-.636-.433-.477-1.738-.477-2.665 0-2.898.418-4.105-.814-4.418-.408-.104-.709-.173-1.754-.184-1.341-.014-2.476.005-3.12.336-.427.22-.757.711-.556.74.249.034.811.159 1.11.586.385.551.371 1.79.371 1.79s.222 3.41-.517 3.833c-.506.29-1.201-.303-2.694-3.015a25.82 25.82 0 0 1-1.342-2.925s-.111-.287-.31-.44c-.24-.186-.577-.245-.577-.245l-3.572.024s-.537.016-.733.261c-.176.218-.014.67-.014.67s2.796 6.88 5.963 10.349c2.903 3.179 6.2 2.97 6.2 2.97z" fill="#fff"/></svg>