<svg width="200" height="200" viewBox="0 0 200 200" fill="none" xmlns="http://www.w3.org/2000/svg"><path opacity=".7" d="M28.762 171.068s-18.205-18.601-12.745-38.289c5.46-19.689 20.175-19.705 44.134-38.154 23.959-18.45 30.261-36.91 67.663-34.395 37.402 2.516 62.203 65.821 56.321 83.01-5.881 17.19-10.929 30.187-10.929 30.187l-144.444-2.359z" fill="#EBF4FF"/><path d="M82.519 81.545h-62.74a2.725 2.725 0 0 0-2.728 2.722v42.744a2.724 2.724 0 0 0 2.728 2.721h62.74a2.724 2.724 0 0 0 2.728-2.721V84.267a2.725 2.725 0 0 0-2.728-2.722z" fill="#fff"/><path opacity=".7" d="M82.519 81.545h-62.74a2.725 2.725 0 0 0-2.728 2.722v42.744a2.724 2.724 0 0 0 2.728 2.721h62.74a2.724 2.724 0 0 0 2.728-2.721V84.267a2.725 2.725 0 0 0-2.728-2.722z" fill="#6BAFFF"/><path d="M183.064 167.717H25.583v3.356h157.481v-3.356zm-4.251 3.356H28.769V200h150.044v-28.927z" fill="#6BAFFF"/><path opacity=".23" d="M178.813 171.073H28.769v6.917h150.044v-6.917z" fill="url(#a)"/><path d="M76.856 157.181s.739-20.96 4.953-23.056c4.214-2.095 21.54-1.259 25.321-.21 3.78 1.05 6.806 16.008 7.776 18.342 1.787 4.295 8.51 6.707 8.51 6.707l-.631 8.803-39.924-.206s-4.742-.947-6.005-10.38z" fill="#6BAFFF"/><path d="M89.04 133.323a1.88 1.88 0 0 0-.289 1.346 6.45 6.45 0 0 0 1.552 3.553c.87.99 1.92 1.805 3.095 2.404.372-.914.67-2.511 1.44-2.791a24.15 24.15 0 0 1 2.506-.436c.05-.066-2.286-.412-2.365-.445-1.46-.358-2.497-1.264-3.492-2.392a4.119 4.119 0 0 1-.64-.873c-.201-.412-.028-.968-.606-.914a1.726 1.726 0 0 0-1.201.548z" fill="url(#b)"/><path d="M100.819 138.811c.12.14.297.296.462.218a.379.379 0 0 0 .137-.144c.375-.626.499-1.37.346-2.083a6.788 6.788 0 0 0-.784-2.014 8.02 8.02 0 0 0-1.143-1.68c-.215-.226-.578-.444-.826-.243a.663.663 0 0 0-.181.359c-.186.728-1.932 3.516-1.494 4.175.169.259 1.99.094 2.294.3.445.315.845.689 1.189 1.112z" fill="url(#c)"/><path d="M103.114 118.233c-.083-1.132-2.39-1.626-2.757-2.47l3.504-.14s.413 4.599-1.238 6.847l-.359-.873c.433-2.141 1.036-.729.85-3.364z" fill="#984E45"/><path d="M91.954 125.883l-1.288 7.847s2.89 4.224 6.546 3.594c3.657-.63 2.311-2.412 2.311-2.412l-.445-6.658s-2.894.688-7.124-2.371z" fill="#F7AD7E"/><path opacity=".52" d="M91.5 128.637l.454-2.754c4.23 3.059 6.418 1.758 6.418 1.758l1.023 3.561c-.619.605.136 2.792-2.315 2.545-2.022-.198-3.933-2.94-5.58-5.11z" fill="url(#d)"/><path d="M88.648 120.185c.31 4.356 4.783 12.047 9.15 11.734 4.367-.313 5.626-9.313 5.316-13.669-.309-4.356-2.761-6.835-7.14-6.526a7.933 7.933 0 0 0-5.421 2.716 7.885 7.885 0 0 0-1.905 5.745z" fill="#F7AD7E"/><path d="M92.26 111.835c.267-.07.35-.28.684-.564 1.3-1.112 3.133-1.326 4.776-1.149 4.102.449 5.047 3.335 6.129 2.882 1.081-.453 3.05 1.26 1.708 3.204-1.341 1.943-3.524 2.47-6.19 1.177-1.71-.823-4.074-1.478-5.973-1a1.08 1.08 0 0 0-.76.444c-.263.519-.135 1.536-.119 2.104.07 1.388.24 2.77.508 4.134-.22.02-.38-.194-.48-.391-.243-.47-.412-.976-.635-1.45-.264-.535-.755-1.383-1.432-.947a1.609 1.609 0 0 0-.615 1.079c-.194.931-.045 2.269.73 2.923.624.523.806 1.515.954 2.269.05.239.293.864.202 1.083-.165.387-.734.346-1.027.111a2.218 2.218 0 0 1-.607-1.235 30.106 30.106 0 0 0-2.419-6.37 8.188 8.188 0 0 1-.648-1.441 5.688 5.688 0 0 1 .236-3.359 6.05 6.05 0 0 1 1.787-2.882c.965-.778 1.787-.663 2.889-.61a.95.95 0 0 0 .301-.012z" fill="#984E45"/><path d="M95.26 137.695l.875 1.47 1.296 1.153 2.311 25.156 4.482-.14-5.568-25.296.665-2.471s-2.802-.358-4.061.128z" fill="url(#e)"/><path d="M93.213 161.97s5.605-4.472 7.565-3.916c1.96.556 4.065 2.656 4.206 3.356.14.7-.826 1.815-1.965 1.955-1.139.14-2.381 1.12-3.079.824-.697-.297-2.381 0-3.083.823-.702.824-3.925 1.956-3.925 1.956s-2.1-2.903.28-4.998z" fill="#F7AD7E"/><path d="M96.242 167.8h40.885a2.074 2.074 0 0 0 2.076-2.071 2.073 2.073 0 0 0-2.076-2.071H96.242a2.073 2.073 0 0 0-2.076 2.071c0 1.143.93 2.071 2.076 2.071z" fill="#000"/><path d="M96.242 167.8h40.885a2.074 2.074 0 0 0 2.076-2.071 2.073 2.073 0 0 0-2.076-2.071H96.242a2.073 2.073 0 0 0-2.076 2.071c0 1.143.93 2.071 2.076 2.071z" fill="url(#f)"/><path d="M112.07 163.827l.681 2.198 29.036 1.775 8.275-20.936a1.84 1.84 0 0 0-.19-1.709 1.853 1.853 0 0 0-1.523-.807H123.73a5.957 5.957 0 0 0-3.343 1.029 5.932 5.932 0 0 0-2.183 2.726l-6.134 15.724z" fill="#68E1FD"/><path d="M112.07 163.827l.681 2.198 29.036 1.775 8.275-20.936a1.84 1.84 0 0 0-.19-1.709 1.853 1.853 0 0 0-1.523-.807H123.73a5.957 5.957 0 0 0-3.343 1.029 5.932 5.932 0 0 0-2.183 2.726l-6.134 15.724z" fill="url(#g)"/><path d="M112.008 167.824h29.804l7.842-19.886a1.74 1.74 0 0 0-.808-2.184 1.743 1.743 0 0 0-.819-.203h-23.373a5.642 5.642 0 0 0-5.25 3.565l-7.396 18.708z" fill="#68E1FD"/><path d="M112.008 167.824h29.804l7.842-19.886a1.74 1.74 0 0 0-.808-2.184 1.743 1.743 0 0 0-.819-.203h-23.373a5.642 5.642 0 0 0-5.25 3.565l-7.396 18.708zm58.943-38.919a12.32 12.32 0 0 0 1.362-3.195l2.406-.461.025-2.656.024-2.655-2.398-.503a12.34 12.34 0 0 0-1.3-3.219l1.375-2.022-1.866-1.894-1.861-1.898-2.064 1.334a12.463 12.463 0 0 0-3.199-1.354l-.462-2.401-2.662-.028-2.662-.025-.5 2.375c-1.13.284-2.215.72-3.227 1.297l-2.027-1.371-1.898 1.861-1.899 1.861 1.337 2.059a12.306 12.306 0 0 0-1.362 3.195l-2.406.461-.025 2.655-.024 2.656 2.398.502a12.332 12.332 0 0 0 1.3 3.22l-1.358 2.026 1.865 1.893 1.866 1.898 2.064-1.333a12.542 12.542 0 0 0 3.198 1.354l.463 2.4 2.662.029 2.662.025.491-2.396a12.607 12.607 0 0 0 3.228-1.293l2.026 1.371 1.899-1.861 1.898-1.861-1.349-2.046zm-15.408-1.886a6.503 6.503 0 0 1 1.083-10.012 6.544 6.544 0 0 1 7.255.068 6.52 6.52 0 0 1 2.378 2.946 6.498 6.498 0 0 1-1.483 7.085 6.541 6.541 0 0 1-9.233-.087z" fill="#6BAFFF"/><path d="M146.926 114.771c.4-.664.704-1.381.903-2.129l1.602-.305v-3.536l-1.593-.338a8.333 8.333 0 0 0-.867-2.141l.916-1.346-1.238-1.264-1.238-1.26-1.366.885a8.33 8.33 0 0 0-2.13-.901l-.31-1.598h-3.545l-.334 1.593a8.228 8.228 0 0 0-2.151.861l-1.349-.91-1.263 1.235-1.267 1.235.891 1.363a8.43 8.43 0 0 0-.908 2.129l-1.601.304v3.537l1.597.338c.188.75.48 1.47.867 2.141l-.916 1.346 1.238 1.264 1.238 1.26 1.366-.89c.663.402 1.38.706 2.13.906l.309 1.598h3.542l.338-1.594a8.374 8.374 0 0 0 2.15-.86l1.346.91 1.267-1.235 1.263-1.236-.887-1.362zm-10.261-1.236a4.335 4.335 0 0 1-1.169-2.23 4.337 4.337 0 0 1 4.312-5.142 4.361 4.361 0 0 1 2.407.754 4.329 4.329 0 0 1 .596 6.676 4.355 4.355 0 0 1-6.146-.078v.02z" fill="#6BAFFF"/><path d="M19.309 122.918l-.466-.588 14.408-11.351 13.203 4.092 14.149-13.496 11.16 1.618 9.794-11.252.566.494-10.063 11.557-11.201-1.622-14.207 13.549-13.248-4.105-14.095 11.104z" fill="#fff"/><path d="M48.543 115.244a2 2 0 0 1-2.131 2.248 2.007 2.007 0 0 1-1.762-1.363 1.995 1.995 0 0 1 .588-2.144 2.007 2.007 0 0 1 3.305 1.259zm-13.265-3.924a1.999 1.999 0 0 1-1 1.988 2.017 2.017 0 0 1-2.222-.16 2.004 2.004 0 0 1-.703-2.109 1.998 1.998 0 0 1 1.683-1.456 2.014 2.014 0 0 1 2.242 1.737z" fill="#6BAFFF"/><path d="M46.859 117.854a2.39 2.39 0 0 1-2.375-1.179 2.374 2.374 0 0 1 1.316-3.438 2.383 2.383 0 0 1 3.122 1.962 2.38 2.38 0 0 1-.483 1.752 2.392 2.392 0 0 1-1.58.903zm-.504-3.973a1.657 1.657 0 0 0-1.404 1.19 1.644 1.644 0 0 0 .575 1.747 1.657 1.657 0 0 0 1.839.126 1.645 1.645 0 0 0 .185-2.729 1.656 1.656 0 0 0-1.203-.334h.008z" fill="#fff"/><path d="M62.704 101.847a1.995 1.995 0 0 1-.996 1.989 2.003 2.003 0 0 1-2.223-.156 1.996 1.996 0 0 1-.086-3.093c.3-.259.67-.424 1.063-.473a1.997 1.997 0 0 1 2.242 1.733z" fill="#6BAFFF"/><path d="M61.011 104.457a2.389 2.389 0 0 1-2.374-1.179 2.376 2.376 0 0 1 1.316-3.439 2.391 2.391 0 0 1 2.558.7 2.375 2.375 0 0 1 .08 3.015 2.392 2.392 0 0 1-1.58.903zm-.499-3.973a1.656 1.656 0 0 0-1.405 1.19 1.645 1.645 0 0 0 1.476 2.09 1.656 1.656 0 0 0 1.596-.919c.145-.294.198-.624.153-.949a1.624 1.624 0 0 0-1.185-1.366 1.637 1.637 0 0 0-.635-.046z" fill="#fff"/><path d="M73.798 103.271a1.998 1.998 0 0 1-.999 1.987 2.01 2.01 0 0 1-2.895-1.107 1.996 1.996 0 0 1 .59-2.144 2.006 2.006 0 0 1 2.542-.065c.42.325.694.803.762 1.329z" fill="#6BAFFF"/><path d="M72.106 105.878a2.386 2.386 0 0 1-2.368-1.18 2.37 2.37 0 0 1 1.314-3.43 2.384 2.384 0 0 1 2.553.695c.309.355.505.793.564 1.259a2.375 2.375 0 0 1-.481 1.753 2.39 2.39 0 0 1-1.582.903zm-.483-3.969a1.627 1.627 0 1 0 1.011 3.025 1.624 1.624 0 0 0-.377-2.981 1.616 1.616 0 0 0-.634-.044zm-38.026 12.03a2.39 2.39 0 0 1-2.374-1.179 2.377 2.377 0 0 1 1.316-3.439 2.387 2.387 0 0 1 3.122 1.962 2.382 2.382 0 0 1-2.064 2.656zm-.503-3.973a1.655 1.655 0 0 0-1.405 1.19 1.644 1.644 0 0 0 1.476 2.089 1.647 1.647 0 0 0 1.75-1.867 1.62 1.62 0 0 0-.618-1.082 1.642 1.642 0 0 0-1.203-.33z" fill="#fff"/><path opacity=".23" d="M93.984 167.141l.632-8.177-6.724-.943-2.104-11.425s7.776 7.127 14.313 6.938c6.538-.19 7.355-2.726 7.355-2.726l1.238 16.143-14.71.19z" fill="url(#h)"/><defs><linearGradient id="a" x1="103.213" y1="159.697" x2="104.823" y2="201.355" gradientUnits="userSpaceOnUse"><stop offset=".01"/><stop offset=".83" stop-opacity=".07"/><stop offset="1" stop-opacity="0"/></linearGradient><linearGradient id="b" x1="89.114" y1="144.217" x2="94.696" y2="131.978" gradientUnits="userSpaceOnUse"><stop offset=".01"/><stop offset=".12" stop-opacity=".75"/><stop offset="1" stop-opacity="0"/></linearGradient><linearGradient id="c" x1="1093.96" y1="1361.23" x2="1010.96" y2="1345.51" gradientUnits="userSpaceOnUse"><stop offset=".01"/><stop offset=".12" stop-opacity=".75"/><stop offset="1" stop-opacity="0"/></linearGradient><linearGradient id="d" x1="1582.97" y1="1340.68" x2="1697.2" y2="1752.19" gradientUnits="userSpaceOnUse"><stop offset=".01"/><stop offset=".83" stop-opacity=".07"/><stop offset="1" stop-opacity="0"/></linearGradient><linearGradient id="e" x1="1807.04" y1="6639.21" x2="2217.2" y2="6630.4" gradientUnits="userSpaceOnUse"><stop offset=".01"/><stop offset=".12" stop-opacity=".75"/><stop offset="1" stop-opacity="0"/></linearGradient><linearGradient id="f" x1="11216.6" y1="1304.25" x2="11216.7" y2="1217.27" gradientUnits="userSpaceOnUse"><stop offset=".01"/><stop offset=".12" stop-opacity=".75"/><stop offset="1" stop-opacity="0"/></linearGradient><linearGradient id="g" x1="10450.4" y1="4889.5" x2="10798.6" y2="6794.59" gradientUnits="userSpaceOnUse"><stop offset=".01"/><stop offset=".12" stop-opacity=".75"/><stop offset="1" stop-opacity="0"/></linearGradient><linearGradient id="h" x1="4688.87" y1="6633.98" x2="4660.86" y2="4070.96" gradientUnits="userSpaceOnUse"><stop offset=".578"/><stop offset=".885"/><stop offset="1" stop-opacity=".37"/></linearGradient></defs></svg>