<svg width="169" height="161" viewBox="0 0 169 161" fill="none" xmlns="http://www.w3.org/2000/svg"><path d="M165.877 95.713c-1.319 2.353-2.963 4.538-4.547 6.736-1.714 2.412-3.331 4.887-4.293 7.679-1.444 4.188-1.283 8.777-1.986 13.157-1.938 12.261-10.698 22.749-21.493 28.902-10.795 6.153-23.437 8.408-35.866 8.768-12.429.359-24.836-1.072-37.244-1.798-7.101-.419-14.482-.663-20.779-3.926-4.023-2.066-7.346-5.256-10.424-8.579C9.732 125.491-.985 96.516.074 67.796c.245-6.66 1.109-13.367 3.498-19.594 7.105-18.368 25.886-29.15 43.726-37.596 10.008-4.75 20.37-9.28 31.389-10.351 6.611-.639 13.275 0 19.827 1.071 13.667 2.24 27.523 6.708 37.591 16.212 10.659 10.058 15.556 24.2 20.145 37.718 2.407 7.137 4.548 14.585 7.924 21.342.419.838.815 1.65 1.196 2.443 2.641 5.535 4.079 10.324.507 16.672z" fill="#F1F7FF"/><path opacity=".51" d="M19.46 84.126c-2.267 0-4.803.07-6.391 1.69-1.588 1.619-1.606 4.247-.637 6.282.97 2.034 2.74 3.521 4.548 4.861 14.67 10.938 33.582 14.495 49.397 23.705 9.584 5.585 18.865 13.49 29.96 13.308 8.795-.143 16.564-5.43 23.736-10.516.64-.453 1.329-.984 1.465-1.745.2-1.109-.822-2.02-1.749-2.684L86.907 95.134c-3.967-2.883-7.972-5.787-12.45-7.793-16.283-7.33-37.618-3.086-54.997-3.215z" fill="#97C7FF"/><path d="M44.195 100.233s-9.553-8.607-.087-18.627l28.138-15.684a14.37 14.37 0 0 1 7.035 1.619c3.358 1.846 43.191 32.926 46.315 36.043 3.124 3.116 3.704 9.475 3.704 9.475s.235 2.094-.577 3.002c-.811.907-27.789 15.597-28.831 15.357-1.043-.241-4.632-1.62-4.632-1.62l-51.065-29.565zm35.02-55.765a1.564 1.564 0 0 1 .76-1.295 1.573 1.573 0 0 1 1.503-.063l28.153 13.629s1.868 1.17 1.805 3.312c-.063 2.143 0 19.217 0 19.217s.224 1.933-2.848.143c-3.071-1.79-28.366-16.522-28.366-16.522s-1.109-.458-1.273-3.292c-.13-2.195.126-10.864.266-15.13z" fill="#6BAFFF"/><path d="M79.215 44.468a1.564 1.564 0 0 1 .76-1.295 1.573 1.573 0 0 1 1.503-.063l28.153 13.629s1.868 1.17 1.805 3.312c-.063 2.143 0 19.217 0 19.217s.224 1.933-2.848.143c-3.071-1.79-28.366-16.522-28.366-16.522s-1.109-.458-1.273-3.292c-.13-2.195.126-10.864.266-15.13z" fill="url(#a)"/><path d="M78.777 45.32a1.568 1.568 0 0 1 1.505-1.516c.262-.011.523.043.759.158l28.156 13.643s1.868 1.169 1.801 3.315c-.066 2.147 0 19.213 0 19.213s.228 1.934-2.844.144c-3.071-1.79-28.366-16.52-28.366-16.52s-1.108-.456-1.276-3.294c-.13-2.192.129-10.861.265-15.144z" fill="#6BAFFF"/><path d="M78.41 54.833l32.305 17.329.717 7.106-32.92-18.801-.102-5.634z" fill="url(#b)"/><path d="M165.877 95.713c-1.319 2.353-2.963 4.538-4.548 6.736-2.739-.837-5.985-1.368-7.846-3.546-13.765-16.114-20.908-15.88-33.232-21.195-8.686-3.756-18.624-6.23-26.187-11.93-1.235-.92-2.494-2.376-1.938-3.804.556-1.427 2.358-1.661 3.848-1.647a50.62 50.62 0 0 1 12.002 1.535c.463.167.962.206 1.445.112.85-.244 1.245-1.256 1.21-2.14-.136-2.76-2.449-3.877-4.974-4.997-3.677-1.644-7.735-3.78-11.418-5.417 3.662.21 7.056-1.797 10.669-2.464a30.851 30.851 0 0 1 4.352-.394c3.663-.135 7.332-.267 11.005-.395 1.235-.049 2.504-.097 3.69.259 1.4.432 2.578 1.368 3.677 2.338 5.597 4.886 10.102 10.882 15.112 16.372 5.009 5.49 21.111 13.123 22.639 13.898 2.627 5.542 4.065 10.33.494 16.68z" fill="#F3A984"/><path d="M42.719 63.663c-4.898-6.467-14.28-8.473-18.736-15.244 7.713-4.464 16.55-6.53 25.239-8.537 2.382 3.287 5.842 5.584 9.067 8.065 3.225 2.482 6.39 5.347 7.755 9.169.847 2.373.934 4.942 1.011 7.458l.112 3.686a1.254 1.254 0 0 1-.805 1.438 67.061 67.061 0 0 1-6.82 3.62c-1.334.582-2.705 1.078-4.017 1.71-2.218 1.064-4.197 2.505-6.153 3.989-2.57 1.954-2.214-1.086-2.449-3.079-.545-4.317-1.532-8.75-4.204-12.275z" fill="#fff"/><path d="M44.108 81.606s27.442-15.51 28.138-15.684c.697-.175 5.472.432 8.858 3.294S102.9 86.545 102.9 86.545s.434 1.647-.266 2.596c-.699.95-22.58 13.343-24.836 12.736-2.256-.607-24.05-23.39-33.69-20.27z" fill="#68E1FD"/><path d="M44.108 81.606s27.442-15.51 28.138-15.684c.697-.175 5.472.432 8.858 3.294S102.9 86.545 102.9 86.545s.434 1.647-.266 2.596c-.699.95-22.58 13.343-24.836 12.736-2.256-.607-24.05-23.39-33.69-20.27z" fill="url(#c)"/><path d="M44.108 81.606s27.442-15.51 28.138-15.684c.697-.175 5.472.432 8.858 3.294S102.9 86.545 102.9 86.545s.434 1.647-.266 2.596c-.699.95-22.58 13.343-24.836 12.736-2.256-.607-24.05-23.39-33.69-20.27z" fill="url(#d)"/><path d="M44.02 83.425s.871-3.292 9.903 3.465 48.456 38.472 48.456 38.472l-1.049 5.371s-56.278-27.554-57.145-30.5c-.868-2.946-7.633-9.696-.165-16.808z" fill="url(#e)"/><path d="M44.02 83.425s.871-3.292 9.903 3.465 48.456 38.472 48.456 38.472l-1.049 5.371s-56.278-27.554-57.145-30.5c-.868-2.946-7.633-9.696-.165-16.808z" fill="url(#f)"/><path d="M103.768 124.671l24.144-13.863.811 5.256-25.823 13.113.868-4.506z" fill="#6BAFFF"/><path d="M93.739 105.245l-5.059 2.918-4.715-3.707 5.233-2.795 4.54 3.584z" fill="url(#g)"/><path d="M99.178 102.104l-5.44 3.141-4.54-3.584 5.625-2.991 4.355 3.434z" fill="url(#h)"/><path d="M99.178 102.104l-5.44 3.141-4.54-3.584 5.625-2.991 4.355 3.434z" fill="url(#i)"/><path d="M104.103 99.263l-4.925 2.841-4.355-3.434 5.083-2.709h.014l4.183 3.302z" fill="url(#j)"/><path d="M104.103 99.263l-4.925 2.841-4.355-3.434 5.083-2.709h.014l4.183 3.302z" fill="url(#k)"/><path d="M109.197 96.32l-5.093 2.943-4.184-3.302 5.181-2.767 4.096 3.127z" fill="url(#l)"/><path d="M109.197 96.32l-5.093 2.943-4.184-3.302 5.181-2.767 4.096 3.127z" fill="url(#m)"/><path d="M114.304 100.209l-5.205 3.005-4.995-3.951 5.093-2.942 5.107 3.888z" fill="url(#n)"/><path d="M114.304 100.209l-5.205 3.005-4.995-3.951 5.093-2.942 5.107 3.888z" fill="url(#o)"/><path d="M119.079 103.866l-5.293 3.051-4.687-3.703 5.205-3.005 4.775 3.657z" fill="url(#p)"/><path d="M119.079 103.866l-5.293 3.051-4.687-3.703 5.205-3.005 4.775 3.657z" fill="url(#q)"/><path d="M123.571 107.287l-5.356 3.127-4.429-3.497 5.293-3.051 4.492 3.421z" fill="url(#r)"/><path d="M123.571 107.287l-5.356 3.127-4.429-3.497 5.293-3.051 4.492 3.421z" fill="url(#s)"/><path d="M118.215 110.414l-4.897 2.855-4.443-3.508 4.911-2.844 4.429 3.497z" fill="url(#t)"/><path d="M118.215 110.414l-4.897 2.855-4.443-3.508 4.911-2.844 4.429 3.497z" fill="url(#u)"/><path d="M113.318 113.269l-5.415 3.165-4.467-3.532 5.439-3.141 4.443 3.508z" fill="url(#v)"/><path d="M113.318 113.269l-5.415 3.165-4.467-3.532 5.439-3.141 4.443 3.508z" fill="url(#w)"/><path d="M107.902 116.434l-4.998 2.918-4.502-3.546 5.033-2.904 4.467 3.532z" fill="url(#x)"/><path d="M107.902 116.434l-4.998 2.918-4.502-3.546 5.033-2.904 4.467 3.532z" fill="url(#y)"/><path d="M103.435 112.902l-5.033 2.904-4.702-3.692 5.048-2.918 4.687 3.706z" fill="url(#z)"/><path d="M103.435 112.902l-5.033 2.904-4.702-3.692 5.048-2.918 4.687 3.706z" fill="url(#A)"/><path d="M98.748 109.196l-5.048 2.918-5.02-3.951 5.059-2.918 5.009 3.951z" fill="url(#B)"/><path d="M98.748 109.196l-5.048 2.918-5.02-3.951 5.059-2.918 5.009 3.951z" fill="url(#C)"/><path d="M109.099 103.214l-4.922 2.844-4.999-3.954 4.926-2.841 4.995 3.951z" fill="url(#D)"/><path d="M109.099 103.214l-4.922 2.844-4.999-3.954 4.926-2.841 4.995 3.951z" fill="url(#E)"/><path d="M104.177 106.058l-5.429 3.138-5.01-3.951 5.44-3.141 4.999 3.954z" fill="url(#F)"/><path d="M104.177 106.058l-5.429 3.138-5.01-3.951 5.44-3.141 4.999 3.954z" fill="url(#G)"/><path d="M113.786 106.917l-4.911 2.844-4.698-3.703 4.922-2.844 4.687 3.703z" fill="url(#H)"/><path d="M113.786 106.917l-4.911 2.844-4.698-3.703 4.922-2.844 4.687 3.703z" fill="url(#I)"/><path d="M108.875 109.761l-5.439 3.141-4.688-3.706 5.429-3.138 4.698 3.703z" fill="url(#J)"/><path d="M108.875 109.761l-5.439 3.141-4.688-3.706 5.429-3.138 4.698 3.703z" fill="url(#K)"/><defs><linearGradient id="a" x1="78.91" y1="61.552" x2="111.439" y2="61.552" gradientUnits="userSpaceOnUse"><stop stop-color="#010101" stop-opacity="0"/><stop offset=".95" stop-color="#010101"/></linearGradient><linearGradient id="b" x1="9299.17" y1="4205.51" x2="8795.01" y2="6130.43" gradientUnits="userSpaceOnUse"><stop stop-color="#010101" stop-opacity="0"/><stop offset=".95" stop-color="#010101"/></linearGradient><linearGradient id="c" x1="10220" y1="8850.25" x2="20146.6" y2="8850.25" gradientUnits="userSpaceOnUse"><stop stop-color="#010101" stop-opacity="0"/><stop offset="1" stop-color="#010101"/></linearGradient><linearGradient id="d" x1="103.5" y1="87.5" x2="49" y2="79" gradientUnits="userSpaceOnUse"><stop offset=".109"/><stop offset="1" stop-opacity="0"/></linearGradient><linearGradient id="e" x1="16978.5" y1="12696.6" x2="12730.9" y2="25146" gradientUnits="userSpaceOnUse"><stop stop-color="#010101" stop-opacity="0"/><stop offset=".95" stop-color="#010101"/></linearGradient><linearGradient id="f" x1="135.5" y1="83" x2="30" y2="116" gradientUnits="userSpaceOnUse"><stop stop-color="#060B0D"/><stop offset="1" stop-color="#fff" stop-opacity="0"/></linearGradient><linearGradient id="g" x1="83.969" y1="104.913" x2="93.739" y2="104.913" gradientUnits="userSpaceOnUse"><stop stop-color="#fff" stop-opacity="0"/><stop offset=".66" stop-color="#fff"/></linearGradient><linearGradient id="h" x1="2634.02" y1="2019.55" x2="2918.76" y2="2019.55" gradientUnits="userSpaceOnUse"><stop stop-color="#fff" stop-opacity="0"/><stop offset=".66" stop-color="#fff"/></linearGradient><linearGradient id="i" x1="89.202" y1="101.959" x2="99.178" y2="101.959" gradientUnits="userSpaceOnUse"><stop stop-color="#fff" stop-opacity="0"/><stop offset=".66" stop-color="#fff"/></linearGradient><linearGradient id="j" x1="2610.48" y1="1838.93" x2="2856.6" y2="1838.93" gradientUnits="userSpaceOnUse"><stop stop-color="#fff" stop-opacity="0"/><stop offset=".66" stop-color="#fff"/></linearGradient><linearGradient id="k" x1="94.826" y1="99.034" x2="104.103" y2="99.034" gradientUnits="userSpaceOnUse"><stop stop-color="#fff" stop-opacity="0"/><stop offset=".66" stop-color="#fff"/></linearGradient><linearGradient id="l" x1="2749.79" y1="1766.58" x2="2995.82" y2="1766.58" gradientUnits="userSpaceOnUse"><stop stop-color="#fff" stop-opacity="0"/><stop offset=".66" stop-color="#fff"/></linearGradient><linearGradient id="m" x1="99.923" y1="96.23" x2="109.197" y2="96.23" gradientUnits="userSpaceOnUse"><stop stop-color="#fff" stop-opacity="0"/><stop offset=".66" stop-color="#fff"/></linearGradient><linearGradient id="n" x1="3139.66" y1="2066.69" x2="3437.21" y2="2066.69" gradientUnits="userSpaceOnUse"><stop stop-color="#fff" stop-opacity="0"/><stop offset=".66" stop-color="#fff"/></linearGradient><linearGradient id="o" x1="104.107" y1="99.769" x2="114.304" y2="99.769" gradientUnits="userSpaceOnUse"><stop stop-color="#fff" stop-opacity="0"/><stop offset=".66" stop-color="#fff"/></linearGradient><linearGradient id="p" x1="3221.69" y1="2090.68" x2="3506.42" y2="2090.68" gradientUnits="userSpaceOnUse"><stop stop-color="#fff" stop-opacity="0"/><stop offset=".66" stop-color="#fff"/></linearGradient><linearGradient id="q" x1="109.102" y1="103.565" x2="119.079" y2="103.565" gradientUnits="userSpaceOnUse"><stop stop-color="#fff" stop-opacity="0"/><stop offset=".66" stop-color="#fff"/></linearGradient><linearGradient id="r" x1="3296.39" y1="2113.81" x2="3570.05" y2="2113.81" gradientUnits="userSpaceOnUse"><stop stop-color="#fff" stop-opacity="0"/><stop offset=".66" stop-color="#fff"/></linearGradient><linearGradient id="s" x1="113.79" y1="107.142" x2="123.571" y2="107.142" gradientUnits="userSpaceOnUse"><stop stop-color="#fff" stop-opacity="0"/><stop offset=".66" stop-color="#fff"/></linearGradient><linearGradient id="t" x1="3015.84" y1="2110.61" x2="3265.22" y2="2110.61" gradientUnits="userSpaceOnUse"><stop stop-color="#fff" stop-opacity="0"/><stop offset=".66" stop-color="#fff"/></linearGradient><linearGradient id="u" x1="108.878" y1="110.094" x2="118.215" y2="110.094" gradientUnits="userSpaceOnUse"><stop stop-color="#fff" stop-opacity="0"/><stop offset=".66" stop-color="#fff"/></linearGradient><linearGradient id="v" x1="3025.49" y1="2272.19" x2="3304.66" y2="2272.19" gradientUnits="userSpaceOnUse"><stop stop-color="#fff" stop-opacity="0"/><stop offset=".66" stop-color="#fff"/></linearGradient><linearGradient id="w" x1="103.439" y1="113.1" x2="113.318" y2="113.1" gradientUnits="userSpaceOnUse"><stop stop-color="#fff" stop-opacity="0"/><stop offset=".66" stop-color="#fff"/></linearGradient><linearGradient id="x" x1="2770.99" y1="2258.94" x2="3029.04" y2="2258.94" gradientUnits="userSpaceOnUse"><stop stop-color="#fff" stop-opacity="0"/><stop offset=".66" stop-color="#fff"/></linearGradient><linearGradient id="y" x1="98.405" y1="116.129" x2="107.902" y2="116.129" gradientUnits="userSpaceOnUse"><stop stop-color="#fff" stop-opacity="0"/><stop offset=".66" stop-color="#fff"/></linearGradient><linearGradient id="z" x1="2701.38" y1="2239.97" x2="2972.31" y2="2239.97" gradientUnits="userSpaceOnUse"><stop stop-color="#fff" stop-opacity="0"/><stop offset=".66" stop-color="#fff"/></linearGradient><linearGradient id="A" x1="93.704" y1="112.503" x2="103.435" y2="112.503" gradientUnits="userSpaceOnUse"><stop stop-color="#fff" stop-opacity="0"/><stop offset=".66" stop-color="#fff"/></linearGradient><linearGradient id="B" x1="2640.9" y1="2244.06" x2="2930.65" y2="2244.06" gradientUnits="userSpaceOnUse"><stop stop-color="#fff" stop-opacity="0"/><stop offset=".66" stop-color="#fff"/></linearGradient><linearGradient id="C" x1="88.684" y1="108.681" x2="98.748" y2="108.681" gradientUnits="userSpaceOnUse"><stop stop-color="#fff" stop-opacity="0"/><stop offset=".66" stop-color="#fff"/></linearGradient><linearGradient id="D" x1="2911.88" y1="2098.03" x2="3193.23" y2="2098.03" gradientUnits="userSpaceOnUse"><stop stop-color="#fff" stop-opacity="0"/><stop offset=".66" stop-color="#fff"/></linearGradient><linearGradient id="E" x1="99.182" y1="102.662" x2="109.099" y2="102.662" gradientUnits="userSpaceOnUse"><stop stop-color="#fff" stop-opacity="0"/><stop offset=".66" stop-color="#fff"/></linearGradient><linearGradient id="F" x1="2890.9" y1="2248.91" x2="3202.38" y2="2248.91" gradientUnits="userSpaceOnUse"><stop stop-color="#fff" stop-opacity="0"/><stop offset=".66" stop-color="#fff"/></linearGradient><linearGradient id="G" x1="93.743" y1="105.652" x2="104.177" y2="105.652" gradientUnits="userSpaceOnUse"><stop stop-color="#fff" stop-opacity="0"/><stop offset=".66" stop-color="#fff"/></linearGradient><linearGradient id="H" x1="2965.92" y1="2100.92" x2="3229.89" y2="2100.92" gradientUnits="userSpaceOnUse"><stop stop-color="#fff" stop-opacity="0"/><stop offset=".66" stop-color="#fff"/></linearGradient><linearGradient id="I" x1="104.18" y1="106.489" x2="113.786" y2="106.489" gradientUnits="userSpaceOnUse"><stop stop-color="#fff" stop-opacity="0"/><stop offset=".66" stop-color="#fff"/></linearGradient><linearGradient id="J" x1="2957.5" y1="2252.93" x2="3250.68" y2="2252.93" gradientUnits="userSpaceOnUse"><stop stop-color="#fff" stop-opacity="0"/><stop offset=".66" stop-color="#fff"/></linearGradient><linearGradient id="K" x1="98.752" y1="109.482" x2="108.875" y2="109.482" gradientUnits="userSpaceOnUse"><stop stop-color="#fff" stop-opacity="0"/><stop offset=".66" stop-color="#fff"/></linearGradient></defs></svg>