<svg width="144" height="183" viewBox="0 0 144 183" fill="none" xmlns="http://www.w3.org/2000/svg"><path opacity=".7" d="M75.476.022C64.47-.3 52.847 2.954 45.452 11.102c-6.678 7.353-9.123 17.631-14.94 25.687-8.61 11.905-24.434 18.866-28.511 32.993-3.684 12.759 3.859 25.87 4.927 39.105.825 10.37-2.382 20.708-1.874 31.097a44.262 44.262 0 0 0 16.717 32.255c9.42 7.366 21.604 10.58 33.562 10.751 11.957.17 23.78-2.5 35.24-5.917a252.211 252.211 0 0 0 27.81-10.064c4.684-2.024 9.353-4.23 13.35-7.409 11.636-9.262 15.654-26.886 9.175-40.272-3.414-7.044-9.25-12.738-12.374-19.917-5.308-12.187-1.949-26.212-2.898-39.47-1.191-16.668-9.266-31.267-17.011-45.677C102.225 2.355 88.632.406 75.475.022z" fill="#EBF4FF"/><path d="M33.132 158.235c-.96.175-2.1.528-2.326 1.476-.314 1.338 1.421 2.143 2.779 2.381 18.472 3.235 37.389 2.354 56.114 1.381 2.978-.154 5.987-.317 8.861-1.131.7-.198 1.477-.519 1.707-1.21.231-.69-.214-1.44-.722-1.984-2.712-2.853-7.118-3.048-11.056-3.048-9.798 0-19.6.052-29.397-.024-4.038-.027-7.94-.091-11.998.262-4.632.409-9.357 1.711-13.962 1.897z" fill="url(#a)"/><path d="M53.82 89.621H32.763a3.75 3.75 0 0 0-3.751 3.75v15.485a3.75 3.75 0 0 0 3.751 3.75H53.82a3.75 3.75 0 0 0 3.751-3.75V93.371a3.75 3.75 0 0 0-3.751-3.75z" fill="#606161"/><path d="M86.496 51.143s-2.751 1.663-5.395-2.357c-2.644-4.02-9.925-16.374-9.925-16.374l4.482-.603s14.574 12.199 13.966 15.219a5.88 5.88 0 0 1-3.128 4.115z" fill="#F7AD7E"/><path d="M66.821 36.599s1.985-.73 3.609-.31c1.623.42 17.936 7.965 19.242 11.207 1.306 3.242-.683 6.115-1.886 6.223-1.203.107-5.955-.223-7.043-1.06-1.087-.837-7.99-2.694-7.99-2.694L66.82 36.599z" fill="#6BAFFF"/><path d="M66.46 36.36s1.985-.73 3.613-.309c1.627.42 17.936 7.96 19.242 11.203 1.306 3.242-.687 6.12-1.89 6.223-1.203.103-5.955-.219-7.039-1.056-1.083-.837-7.995-2.695-7.995-2.695L66.46 36.361z" fill="url(#b)"/><path d="M73.788 35.484c-.257.226-.434.53-.504.865-.002.196.034.39.107.571a36.62 36.62 0 0 0 6.134 11.175c1.564 1.945 5.82 6.148 8.261 5.624 1.779-.397 2.2-2.826 2.747-4.56a3.02 3.02 0 0 0 .092-1.984c-.203-.734-1.787-3.14-2.271-3.723-2.307-2.777-4.625-5.555-7.25-8.052-.892-.849-2.885-3.234-4.128-3.409-1.242-.174-2.374 2.596-3.188 3.493z" fill="#68E1FD"/><path d="M73.697 35.484c-.257.226-.434.53-.504.865-.003.196.035.39.11.571a36.539 36.539 0 0 0 6.134 11.175c1.565 1.945 5.816 6.148 8.258 5.624 1.778-.397 2.2-2.826 2.751-4.56a2.992 2.992 0 0 0 .087-1.984c-.198-.734-1.782-3.14-2.27-3.723-2.307-2.777-4.625-5.555-7.246-8.052-.897-.849-2.89-3.234-4.132-3.409-1.243-.174-2.374 2.596-3.188 3.493zm-18.15-.758s-6.916 2.996-7.73 3.675c-.726.607 1.243 42.136 1.398 44.164.154 2.028 11.222 2.357 16.014 1.445a51.975 51.975 0 0 0 9.337-2.858s-1.965-39.315-2.445-41.53c-.794-3.61-7.082-5.722-7.082-5.722l-9.492.826z" fill="#6BAFFF"/><path d="M74.618 81.156a.13.13 0 0 1-.048.024 52.027 52.027 0 0 1-9.277 2.834c-2.87.547-7.988.65-11.664.214-1.985-.242-3.521-.635-4.109-1.19a.742.742 0 0 1-.242-.457c-.091-1.238-.87-17.132-1.29-29.505-.266-7.937-.397-14.425-.115-14.656.818-.718 7.733-3.694 7.733-3.694l9.496-.83s5.348 2.112 5.9 5.62c1.155 7.44 3.616 41.64 3.616 41.64z" fill="url(#c)"/><path d="M64.578 35.36l2.513 2.755-.718 1.853 1.19 1.437-4.251 13.23s1.798-14.187 1.08-16.25a7.83 7.83 0 0 1-.453-3.572l.64.548z" fill="#6BAFFF"/><path d="M68.417 150.044s-.67 5.465-.306 6.088c.365.623 2.497.416 3.811.059 1.315-.357 1.632-2.444 1.632-2.444l.087-1.723-5.224-1.98zm-22.426-2.309s-1.008 6.488-.675 7.052c.334.563 2.807-.818 4.208-.993 1.402-.174 1.525-2.416 1.525-2.416l.238-1.453-5.296-2.19z" fill="#fff"/><path d="M55.241 30.65s.611 4.425.127 6.064c-.484 1.639 2.838 4.206 6.157 3.734 3.14-.448 2.78-2.254 2.85-2.92.072-.667-.912-1.092-.428-2.73.484-1.64-8.19-6.116-8.706-4.148z" fill="#F7AD7E"/><path d="M56.972 39.13s2.755 1.378 4.732.66a4.796 4.796 0 0 0 2.672-2.262l-.219 7.77-.794 9.817-2.215-2.936-4.176-13.048z" fill="#fff"/><path d="M63.947 34.797c-.373 1.266.119 1.806.337 2.294a4.217 4.217 0 0 1-2.846.968c-1.985-.182-4.855-2.119-5.92-5.242l-.05-.17c-.092-1.12-.215-1.985-.215-1.985.504-1.98 9.178 2.5 8.694 4.135z" fill="#A6634C"/><path d="M64.217 41.305a8.062 8.062 0 0 0 .298-6.004 1.148 1.148 0 0 0-.667.794c-.024.204-.034.41-.028.615a3.26 3.26 0 0 1-.858 1.885 7.597 7.597 0 0 1-.865.794c-.437.365-.453.444.087.662.768.25 1.465.68 2.033 1.254z" fill="#fff"/><path d="M49.548 82.585l-1.378 28.033-2.636 38.843s1.517 1.821 5.884 1.877l7.852-39.534 3.688-20.092 3.176 19.6 1.326 40.82s3.085.063 7.087.42l2.596-40.248-2.577-31.148-25.018 1.429z" fill="#68E1FD"/><path d="M77.135 112.297l-2.596 40.255c-.997-.087-1.938-.151-2.78-.214-2.564-.167-4.31-.206-4.31-.206l-1.326-40.816-3.176-19.608-3.689 20.092-7.848 39.542a10.93 10.93 0 0 1-4.212-.794 4.588 4.588 0 0 1-1.671-1.087l2.628-38.851 1.373-27.6.024-.421 4.224-.242 20.802-1.21v.02l2.557 31.14z" fill="url(#d)"/><path d="M67.123 21.971s-.115 8.73-.993 11.005c-.877 2.273-3.06 4.095-5.061 3.916-2.001-.178-4.856-2.119-5.92-5.242-1.063-3.123-1.067-10.516-.643-11.488.425-.973 2.72-3.941 8.004-2.977 3.64.667 4.732 3.453 4.613 4.786z" fill="#F7AD7E"/><path d="M54.661 25.892s-.15-2.032-1.548-1.484c-1.398.547-.056 4.365.58 4.762.283.211.62.34.972.373m16.527 2.869s-2.124-1.325-2.434-1.952c-.31-.627-1.905-5.755-.71-6.02 1.195-.266 5.482 1.805 5.784 1.936.302.131 1.842 5.433 1.842 5.433l-4.482.603z" fill="#F7AD7E"/><path d="M42.597 66.187l.774 13.66-3.192 5.04-4.037-18.973 6.455.273z" fill="#BA816C"/><path d="M48.15 38.182s-4.505 2.572-5.28 5.98c-.773 3.41-9.313 19.752-6.812 21.914l.842.746a3.236 3.236 0 0 0 3.883.306l1.877-1.19 1.79-4.79 5.364-10.902s.508-9.778-1.663-12.064z" fill="#68E1FD"/><path d="M46.575 87.41c-.513.358-2.57 1.354-3.09.945-.218-.167-.793-.754-1.377-1.389a17.45 17.45 0 0 1-.881-.944c-.587-.627-1.048-1.135-1.048-1.135s1.25-5.778 3.176-5.04a11.55 11.55 0 0 1 1.937.742c.322.202.945 2.726 1.227 4.655.07.435.117.873.139 1.313.055.46.016.778-.084.854z" fill="#BA816C"/><path d="M66.912 23.511l4.192 3.468a1.19 1.19 0 0 1 .298 1.02c-.06.719-.837 4.366-.837 4.366l-3.831-2.933.178-5.921zM41.227 86.022c.266.305.572.638.881.944a3.175 3.175 0 0 0-1.532 2.715h-1.278a4.44 4.44 0 0 1 1.929-3.66zm9.29 3.658h-1.279a3.174 3.174 0 0 0-2.564-3.123 11.81 11.81 0 0 0-.14-1.313 4.478 4.478 0 0 1 3.983 4.436z" fill="#606161"/><path d="M41.227 86.022c.266.305.572.638.881.944a3.175 3.175 0 0 0-1.532 2.715h-1.278a4.44 4.44 0 0 1 1.929-3.66z" fill="url(#e)"/><path d="M46.535 85.244a4.479 4.479 0 0 1 3.97 4.436" fill="url(#f)"/><path d="M38.714 81.394a.77.77 0 0 0 .187.453.735.735 0 0 0 .428.159 6.103 6.103 0 0 0 3.347-.52 2.239 2.239 0 0 0 1.135-.988c.27-.592.084-1.274-.067-1.91-1.064-4.464-.084-9.19-.846-13.718.04.258-5.832-1.663-6.284-1.615-1.985.214-.365 4.385-.103 5.845l2.203 12.294z" fill="#68E1FD"/><path d="M49.814 50.373l-5.36 10.91-1.504 4.04c.663 4.428-.242 9.02.794 13.38.155.64.346 1.326.076 1.914a2.252 2.252 0 0 1-1.136.984 6.112 6.112 0 0 1-3.354.524.69.69 0 0 1-.421-.155.742.742 0 0 1-.19-.46 8743.28 8743.28 0 0 0-2.208-12.303c-.155-.817-.715-2.476-.846-3.813 0-.14-.008-.273-.023-.397-.282-4.409 6.542-17.675 7.233-20.72.794-3.404 5.284-5.984 5.284-5.984 2.14 2.298 1.655 12.08 1.655 12.08z" fill="#6BAFFF"/><path d="M55.547 34.726l7.832 20.401-7.245-8.202.54-3.71-2.517-2.037-.595-5.746s1.58-1.964 1.985-.706z" fill="#68E1FD"/><path d="M55.503 34.67l7.876 20.445-7.245-8.202.496-3.754-2.517-2.036-.615-5.746s1.588-1.957 2.005-.707z" fill="#6BAFFF"/><path d="M60.044 39.908l-.135 1.933.941.762-.135 7.945 2.664 4.563.42-5.984-1.869-6.48.584-1.39-.81-1.468-1.66.12z" fill="#606161"/><path d="M60.044 39.908l-.135 1.933.941.762-.135 7.945 2.664 4.563.42-5.984-1.869-6.48.584-1.39-.81-1.468-1.66.12z" fill="url(#g)"/><path d="M60.866 39.94c-.643.032-2.068.953-2.477 1.449a7.004 7.004 0 0 0-.92 1.67c-1.093-1.698-1.379-3.774-1.633-5.778a17.515 17.515 0 0 1-.273-2.313c.396.139.607 1.071.793 1.448.294.544.631 1.063 1.009 1.552.373.492.788.95 1.238 1.373.255.234 1.93.62 2.263.6z" fill="#fff"/><path d="M67.103 16.896c.358.67.435 1.455.214 2.182a1.027 1.027 0 0 1-.619.71c-.256.042-.52.005-.754-.107l-1.287-.456a4.716 4.716 0 0 0-1.325-.333 3.7 3.7 0 0 0-1.342.23c-1.358.456-2.668 1.278-4.097 1.19-.508-.035-1.052-.186-1.513.04a1.68 1.68 0 0 0-.766 1.238c-.238 1.19 0 2.457-.159 3.675-.02.147-.075.33-.222.353a.349.349 0 0 1-.199-.043 9.967 9.967 0 0 1-1.19-.937.795.795 0 0 0-1.132.08c-.397-1.239-1.346-2.5-1.632-3.775-.285-1.273-.031-2.81 1.064-3.524a.839.839 0 0 0 .25-.206.753.753 0 0 0 .064-.48c-.083-1.663 1.19-3.175 2.696-3.853 1.504-.679 3.247-.699 4.91-.604 1.247.068 2.541.215 3.609.87.794.48 1.19 1.19 1.766 1.884.576.695 1.27 1.096 1.664 1.866z" fill="#606161"/><path d="M54.01 26.844c-.035-.325.199-.642.143-.964a.658.658 0 0 0-.703-.492.417.417 0 0 0-.17.044c-.195.099-.23.36-.227.58a3.488 3.488 0 0 0 .727 2.277.572.572 0 0 0 .397.246c.218 0 .373-.23.397-.448.024-.219.083-.584-.1-.719-.182-.135-.428-.182-.464-.524z" fill="#EF9760"/><path d="M72.248 110.487l-.489 41.851c-2.564-.167-4.31-.206-4.31-.206l-1.327-40.816-3.176-19.608s4.248.576 5.447 2.973c1.199 2.397 3.855 15.806 3.855 15.806z" fill="url(#h)"/><path d="M53.796 81.926s0 .14-.028.42c-.024.37-.075 1.009-.139 1.862-.842 11.532-4.657 62.987-6.42 66.344a4.588 4.588 0 0 1-1.67-1.087l2.627-38.851 1.362-27.604a.742.742 0 0 1-.242-.457c-.091-1.238-.87-17.132-1.29-29.505l1.826-2.679 3.974 31.557z" fill="url(#i)"/><path d="M63.38 55.111l1.198 26.879.957-.242-1.616-28.672-.54 2.035z" fill="url(#j)"/><path d="M58.85 89.621H37.792a3.75 3.75 0 0 0-3.752 3.75v15.485a3.75 3.75 0 0 0 3.752 3.75H58.85a3.75 3.75 0 0 0 3.752-3.75V93.371a3.75 3.75 0 0 0-3.752-3.75z" fill="#606161"/><path d="M72.581 35.09a.753.753 0 0 0-.115.267.793.793 0 0 0 .286.583c.223.242.56.504.842.338a.795.795 0 0 0 .234-.274 24.63 24.63 0 0 1 1.405-2.072c.397-.524 1.481-1.103 1.648-1.754.087-.33-.429-.675-.858-.595-.5.095-1.33 1.095-1.703 1.444a9.687 9.687 0 0 0-1.739 2.064zM39.699 82.68a5.092 5.092 0 0 0 1.925-.198c.266-.084.524-.183.794-.286.726-.29 1.489-.603 1.961-1.222a.305.305 0 0 0 .08-.179.313.313 0 0 0-.06-.163l-.397-.71a1.82 1.82 0 0 1-.929 1.115 5.445 5.445 0 0 1-1.417.464l-1.767.397c-.178.04-.42.056-.46.266-.04.21.095.516.27.516z" fill="#fff"/><path d="M68.107 159.56a27.47 27.47 0 0 1 4.411.881c-.04-.424.057-.849.278-1.214.397.794 1.469.917 2.362.941l6.352.178c.382.057.771-.028 1.096-.238a1.488 1.488 0 0 0 .397-1.099c.083-1.905-.616-4.068-2.382-4.834-1.025-.444-2.192-.325-3.307-.25-2.72.183-5.677-.718-8.297-.448-1.549.163-1.338-.024-1.426 1.714-.067 1.421.246 2.977.516 4.369zm-24.621-.996a3.46 3.46 0 0 0 .675 1.941c.58.698 1.508.992 2.382 1.171a15.56 15.56 0 0 0 3.93.285c1.111-.059 2.318-.293 3.045-1.139a2.853 2.853 0 0 0 .572-2.381 4.493 4.493 0 0 0-1.192-2.194c-.591-.631-1.385-1.278-1.385-2.135a4.01 4.01 0 0 0 .04-.841 1.144 1.144 0 0 0-1.191-.766 5.643 5.643 0 0 0-1.47.365 5.168 5.168 0 0 1-2.615.087c-.735-.179-1.072-.635-1.628-.04-.5.532-.699 1.985-.873 2.675a9.397 9.397 0 0 0-.29 2.972z" fill="#606161"/><path d="M68.107 159.56a27.47 27.47 0 0 1 4.411.881c-.04-.424.057-.849.278-1.214.397.794 1.469.917 2.362.941l6.352.178c.382.057.771-.028 1.096-.238a1.488 1.488 0 0 0 .397-1.099c.083-1.905-.616-4.068-2.382-4.834-1.025-.444-2.192-.325-3.307-.25-2.72.183-5.677-.718-8.297-.448-1.549.163-1.338-.024-1.426 1.714-.067 1.421.246 2.977.516 4.369z" fill="url(#k)"/><path d="M43.486 158.564a3.46 3.46 0 0 0 .675 1.941c.58.698 1.508.992 2.382 1.171a15.56 15.56 0 0 0 3.93.285c1.111-.059 2.318-.293 3.045-1.139a2.853 2.853 0 0 0 .572-2.381 4.493 4.493 0 0 0-1.192-2.194c-.591-.631-1.385-1.278-1.385-2.135a4.01 4.01 0 0 0 .04-.841 1.144 1.144 0 0 0-1.191-.766 5.643 5.643 0 0 0-1.47.365 5.168 5.168 0 0 1-2.615.087c-.735-.179-1.072-.635-1.628-.04-.5.532-.699 1.985-.873 2.675a9.397 9.397 0 0 0-.29 2.972z" fill="url(#l)"/><path d="M53.82 89.621H32.763a3.75 3.75 0 0 0-3.751 3.75v15.485a3.75 3.75 0 0 0 3.751 3.75H53.82a3.75 3.75 0 0 0 3.751-3.75V93.371a3.75 3.75 0 0 0-3.751-3.75z" fill="#606161"/><path d="M53.82 89.621H32.763a3.75 3.75 0 0 0-3.751 3.75v15.485a3.75 3.75 0 0 0 3.751 3.75H53.82a3.75 3.75 0 0 0 3.751-3.75V93.371a3.75 3.75 0 0 0-3.751-3.75z" fill="url(#m)"/><defs><linearGradient id="a" x1="64.542" y1="171.299" x2="74.115" y2="67.385" gradientUnits="userSpaceOnUse"><stop stop-color="#010101" stop-opacity="0"/><stop offset=".95" stop-color="#010101"/></linearGradient><linearGradient id="b" x1="68.064" y1="54.762" x2="85.33" y2="36.104" gradientUnits="userSpaceOnUse"><stop stop-color="#010101" stop-opacity="0"/><stop offset="1" stop-color="#010101"/></linearGradient><linearGradient id="c" x1="7015.09" y1="7367.79" x2="4460.04" y2="7657.93" gradientUnits="userSpaceOnUse"><stop stop-color="#010101" stop-opacity="0"/><stop offset="1" stop-color="#010101"/></linearGradient><linearGradient id="d" x1="6759.47" y1="27259.8" x2="12989.9" y2="14079.4" gradientUnits="userSpaceOnUse"><stop stop-color="#010101" stop-opacity="0"/><stop offset="1" stop-color="#010101"/></linearGradient><linearGradient id="e" x1="532.969" y1="860.206" x2="534.064" y2="945.489" gradientUnits="userSpaceOnUse"><stop stop-color="#010101" stop-opacity="0"/><stop offset="1" stop-color="#010101"/></linearGradient><linearGradient id="f" x1="822.096" y1="1023.16" x2="823.236" y2="1126.58" gradientUnits="userSpaceOnUse"><stop stop-color="#010101" stop-opacity="0"/><stop offset="1" stop-color="#010101"/></linearGradient><linearGradient id="g" x1="630.258" y1="1361.93" x2="1023.36" y2="1844.01" gradientUnits="userSpaceOnUse"><stop stop-color="#010101" stop-opacity="0"/><stop offset="1" stop-color="#010101"/></linearGradient><linearGradient id="h" x1="2465.24" y1="25892.6" x2="-9461.45" y2="7332.3" gradientUnits="userSpaceOnUse"><stop stop-color="#010101" stop-opacity="0"/><stop offset="1" stop-color="#010101"/></linearGradient><linearGradient id="i" x1="1805.6" y1="44546.6" x2="-32842.9" y2="15581.7" gradientUnits="userSpaceOnUse"><stop stop-color="#010101" stop-opacity="0"/><stop offset="1" stop-color="#010101"/></linearGradient><linearGradient id="j" x1="365.473" y1="4997.36" x2="562.881" y2="4996.73" gradientUnits="userSpaceOnUse"><stop stop-color="#010101" stop-opacity="0"/><stop offset="1" stop-color="#010101"/></linearGradient><linearGradient id="k" x1="3823.92" y1="2945.23" x2="4422.8" y2="2945.23" gradientUnits="userSpaceOnUse"><stop stop-color="#010101" stop-opacity="0"/><stop offset="1" stop-color="#010101"/></linearGradient><linearGradient id="l" x1="1995.54" y1="3934.52" x2="2283.22" y2="3934.52" gradientUnits="userSpaceOnUse"><stop stop-color="#010101" stop-opacity="0"/><stop offset="1" stop-color="#010101"/></linearGradient><linearGradient id="m" x1="3103.16" y1="4918.8" x2="3063.93" y2="6874.57" gradientUnits="userSpaceOnUse"><stop stop-color="#010101" stop-opacity="0"/><stop offset="1" stop-color="#010101"/></linearGradient></defs></svg>