<svg width="200" height="200" viewBox="0 0 200 200" fill="none" xmlns="http://www.w3.org/2000/svg"><g clip-path="url(#a)"><path d="M199.693 120.169c.078-.856.141-1.716.189-2.582a84.795 84.795 0 0 0-.114-10.741c-1.709-23.718-12.618-52.145-32.396-63.886-8.953-5.33-19.403-8.796-29.818-7.785-14.252 1.396-26.243 10.741-39.686 15.548-13.443 4.807-25.458 17.22-42.206 26.283-18.843 10.198-25.946-1.439-41.872 13.002-9.68 8.777-13.7 30.74-13.7 30.74a22.522 22.522 0 0 0 .436 6.854c.2.931.458 1.829.737 2.716 1.584 4.989 4.247 9.501 5.567 14.719.089.342.168.68.232 1.022.228 1.079.386 2.172.472 3.272.847 11.221 2.792 22.915 9.678 32.234 4.412 6.007 10.515 10.37 17.076 13.392a55.093 55.093 0 0 0 20.887 5.021c14.584.557 28.788-9.738 43.318-11.251 14.341-1.487 28.789.724 43.183.204 14.394-.52 29.607-4.305 39.586-15.41 8.28-9.232 11.755-22.111 14.798-34.474 1.53-6.217 3.028-12.49 3.633-18.878z" fill="#F1F7FF"/><path opacity=".26" d="M60.78 154.99c14.967 0 27.1-2.324 27.1-5.192 0-2.867-12.133-5.191-27.1-5.191-14.968 0-27.102 2.324-27.102 5.191 0 2.868 12.134 5.192 27.101 5.192z" fill="url(#b)"/><path opacity=".26" d="M139.535 154.99c18.599 0 33.677-2.976 33.677-6.646s-15.078-6.646-33.677-6.646-33.677 2.976-33.677 6.646 15.078 6.646 33.677 6.646z" fill="url(#c)"/><path d="M51.95 129.413a42.122 42.122 0 0 1-4.783-.454 4.577 4.577 0 0 0-1.22-.08c-.505.093-.995.26-1.45.498a14.856 14.856 0 0 1-8.812.953c-.566-.113-1.18-.299-1.48-.789a2.126 2.126 0 0 1-.244-.858 14.151 14.151 0 0 1-.061-2.854 3.81 3.81 0 0 1 .363-1.545c.301-.494.738-.89 1.259-1.142 1.898-1.018 4.188-.727 6.34-.662 2.54.091 5.17-.127 7.62.571 1.742.491 3.455 1.574 4.388 3.167 1.117 1.868.28 3.283-1.92 3.195z" fill="#FDB386"/><path d="M108.946 137.07l12.774 9.064 42.161.319-11.819-8.423-43.116-.96z" fill="#6BAFFF"/><path d="M113.737 137.419l9.83 6.977 32.436.247-9.094-6.482-33.172-.742z" fill="#fff"/><path d="M103.252 108.021s10.379-5.119 13.892-13.277l11.181 3.52s-11.976 15.996-16.61 16.476l-8.463-6.719zm10.699 9.42c.638-.4 10.059-3.519 13.975-10.957l9.5 5.038s-9.341 12.642-17.727 13.041l-5.748-7.122zm33.64 12.801l7.026 8.002-25.867 2.985-3.303-5.868 22.144-5.119z" fill="#6BAFFF"/><path d="M128.938 134.63l16.766-3.243s.78.728 2.392.728l2.964 3.443s-.881 1.185-.381 1.912l-18.569 2.628s-1.426-.872-2.664-.839l-2.177-3.174s1.971-.215 1.669-1.455z" fill="url(#d)"/><path d="M128.938 134.63l16.766-3.243s.78.728 2.392.728l2.964 3.443s-.881 1.185-.381 1.912l-18.569 2.628s-1.426-.872-2.664-.839l-2.177-3.174s1.971-.215 1.669-1.455z" fill="url(#e)"/><path d="M88.102 120.117l-.686-2.687c-.432-1.548-1.619-.2-3.063.498l-40.644 19.633a2.58 2.58 0 0 0-1.39 2.886l.522 2.324a2.56 2.56 0 0 0 .937 1.472l6.775 5.243a2.569 2.569 0 0 0 3.168-.022l33.499-26.642a2.573 2.573 0 0 0 .882-2.705z" fill="#68E1FD"/><path d="M88.102 120.117l-.686-2.687c-.432-1.548-1.619-.2-3.063.498l-40.644 19.633a2.58 2.58 0 0 0-1.39 2.886l.522 2.324a2.56 2.56 0 0 0 .937 1.472l6.775 5.243a2.569 2.569 0 0 0 3.168-.022l33.499-26.642a2.573 2.573 0 0 0 .882-2.705z" fill="#6BAFFF"/><path d="M43.212 137.357l30.037-24.678a1.332 1.332 0 0 1 1.259-.237l12.03 3.905a1.336 1.336 0 0 1 .834 1.752 1.344 1.344 0 0 1-.424.575L52.89 145.301c-.229.179-.51.278-.8.282a1.327 1.327 0 0 1-.808-.257l-8.02-5.853a1.338 1.338 0 0 1-.42-1.637c.086-.186.212-.35.37-.479z" fill="#68E1FD"/><path d="M43.212 137.357l30.037-24.678a1.332 1.332 0 0 1 1.259-.237l12.03 3.905a1.336 1.336 0 0 1 .834 1.752 1.344 1.344 0 0 1-.424.575L52.89 145.301c-.229.179-.51.278-.8.282a1.327 1.327 0 0 1-.808-.257l-8.02-5.853a1.338 1.338 0 0 1-.42-1.637c.086-.186.212-.35.37-.479z" fill="#6BAFFF"/><path d="M85.02 118.986l-.827.647-29.518 23.039-8.847-5.853-.544-.363 26.397-21.789 13.34 4.319z" fill="#fff"/><path opacity=".13" d="M84.193 119.633l-29.518 23.039-8.847-5.853L71.6 115.554l12.592 4.079z" fill="#68E1FD"/><path d="M62.688 135.987l-9.584-4.981 2.94-2.589 9.584 4.977-2.94 2.593z" fill="#68E1FD"/><path d="M62.688 135.987l-9.584-4.981 2.94-2.589 9.584 4.977-2.94 2.593z" fill="#6BAFFF"/><path d="M82.749 111.479l-1.045-.447c.324-.712.688-1.405 1.089-2.076l.983.57c-.38.631-.723 1.283-1.027 1.953zm3.223-5.221l-.893-.702a26.366 26.366 0 0 1 2.776-3.039l.773.833a24.97 24.97 0 0 0-2.656 2.908zm5.755-5.304l-.602-.964a18.273 18.273 0 0 1 3.734-1.817l.363 1.09a17.44 17.44 0 0 0-3.495 1.691zm11.185-2.447a17.487 17.487 0 0 0-3.89-.076l-.11-1.131a18.9 18.9 0 0 1 4.145.076l-.145 1.13zm5.922 1.647a25.948 25.948 0 0 0-2.083-.775l.363-1.09c.726.233 1.451.505 2.177.81l-.457 1.055z" fill="#68E1FD"/><path d="M109.266 140.695l-.32-3.625 12.774 9.064 42.161.319-.827 2.269-42.557.24-11.231-8.267z" fill="#6BAFFF"/><path d="M109.266 140.695l-.32-3.625 12.774 9.064 42.161.319-.827 2.269-42.557.24-11.231-8.267z" fill="url(#f)"/><path d="M182.233 113.907a143.321 143.321 0 0 1-.217 4.294 80.167 80.167 0 0 1-.171 2.443c-.043.604-.156 1.309-.678 1.593-.073.039-.149.07-.229.091a2.874 2.874 0 0 1-.769.032l-3.553-.236a17.594 17.594 0 0 0-3.48 0c-2.294.294-4.402 1.476-6.692 1.738-1.012.083-2.03.076-3.041-.022l-9.316-.614a6.793 6.793 0 0 1-2.333-.444 2.287 2.287 0 0 1-1.452-1.76c-.058-.56.156-1.116.113-1.683a.16.16 0 0 0 0-.069c-.16-1.512-2.145-2.738-1.543-4.137.135-.328.418-.611.429-.964a1.393 1.393 0 0 0-.305-.785c-.523-.84-1.02-1.818-.806-2.796.16-.694.657-1.32.635-2.021-.032-.807-.725-1.455-.816-2.251-.091-.796.533-1.647 1.303-2.014a6.151 6.151 0 0 1 2.496-.418l4.471-.138c.726-.022 1.553-.066 2.098-.578.657-.615.646-1.673.363-2.512-.283-.84-.817-1.593-1.089-2.444a4.454 4.454 0 0 1 .795-4.057c.149-.202.347-.363.577-.465.805-.295 1.477.658 1.814 1.454a26.31 26.31 0 0 0 5.309 7.864 20.863 20.863 0 0 0 10.209 5.453c1.121.247 2.754.091 4.049.273.378.04.746.144 1.089.305 1.488.731.784 3.56.74 4.868z" fill="#FDB386"/><path d="M199.816 117.576c0 .298-.037.592-.058.887-.033.567-.08 1.138-.135 1.694a4.051 4.051 0 0 1-.896 1.476c-1.023 1-2.54 1.091-3.916 1.091-4.4.058-8.801-.063-13.202-.364-.228 0-.453-.036-.671-.058a3.556 3.556 0 0 1-1.687-.567c-1.056-.764-1.34-2.24-1.532-3.57-.388-2.567-.773-5.228-.16-7.751.051-.265.139-.521.262-.76.105-.241.268-.453.475-.615a2.272 2.272 0 0 1 1.281-.305h.853c3.219-.036 6.441.284 9.664.214a25.886 25.886 0 0 0 5.378-.614c.86-.193 3.026-1.421 4.217-1.512.273 3.578.316 7.17.127 10.754z" fill="#FDB386"/><path d="M201.826 118.463c-.033.567-.08 1.138-.134 1.694a4.067 4.067 0 0 1-.897 1.476c-1.023 1-2.54 1.091-3.915 1.091-4.401.058-8.802-.063-13.203-.364-.228 0-.453-.036-.671-.058a2.833 2.833 0 0 1-.769.033l-3.553-.237a17.748 17.748 0 0 0-3.48 0c-2.294.295-4.402 1.477-6.692 1.738a16.88 16.88 0 0 1-3.041-.022l-9.316-.614a6.75 6.75 0 0 1-2.333-.444 2.279 2.279 0 0 1-1.452-1.759c-.058-.56.156-1.116.113-1.683a.165.165 0 0 0 0-.07c1.927 1.684 4.75 1.695 7.327 1.615 4.471-.135 8.974-.273 13.307-1.375a3.885 3.885 0 0 1 .635-3.999c.407-.465.929-.818 1.372-1.247.94-.934 1.473-2.181 2.337-3.206a3.729 3.729 0 0 1 2.428-1.375c.361-.027.724.04 1.052.193 1.365.658 1.499 2.523 1.419 4.036-.08 1.512-.033 3.341 1.281 4.101.14.08.288.145.443.192a5.57 5.57 0 0 0 1.52.193 233.8 233.8 0 0 0 12.364-.022 24.37 24.37 0 0 1 3.858.113z" fill="url(#g)"/><path d="M38.777 116.907a19.61 19.61 0 0 1 7.363.363 16.901 16.901 0 0 1 5.033 2.385 28.877 28.877 0 0 1 9.799 11.184c.33.676.57 1.636-.051 2.061-.534.363-1.241 0-1.771-.364-2.312-1.585-10.049-9.452-15.587-6.889-.152 1.192 1.387 3.552 1.572 4.726.163 1.065-.69 2.072-1.695 2.454-1.005.382-2.115.284-3.182.171-3.063-.32-6.115.022-9.196-.051-7.193-.163-11.667-5.351-11.25-8.056.381-2.236 6.031-6.381 18.965-7.984z" fill="#FDB386"/><path d="M121.082 130.991l19.803-6.508 6.387 7.999-22.514 5.442-3.676-6.933zm-95.398-1.81a10.001 10.001 0 0 1-1.655 3.806 5.868 5.868 0 0 0-2.805.113c-1.372.363-2.722 1.091-3.992 1.763a96.865 96.865 0 0 1-9.46 4.465c-.6.251-1.224.491-1.859.694-.806-3.181-2.134-6.093-3.404-9.013a60.138 60.138 0 0 1-2.235-5.704 29.854 29.854 0 0 1-.748-2.716c5.193-2.137 13.616-.556 18.025-1.479a34.167 34.167 0 0 0 3.673-1.055 27.676 27.676 0 0 1 3.926-1.09c.635 3.341 1.227 6.987.534 10.216z" fill="#6BAFFF"/><path d="M25.684 129.181a10.001 10.001 0 0 1-1.655 3.806c-2.348-.523-4.674.727-6.786 1.876a96.865 96.865 0 0 1-9.461 4.465c-.599.251-1.223.49-1.858.694-.806-3.181-2.134-6.093-3.404-9.013 2.01.706 4.141 1 6.267.866 3.063-.139 6.057-.887 9.073-1.455 2.594-.512 5.214-.876 7.824-1.239z" fill="url(#h)"/><path d="M118.795 96.271l5.469 1.84s-.726 1.72.16 2.519c0 0-6.267 9.238-11.537 11.478 0 0-.758-.84-3.153-.6l-3.756-2.84s1.401-.679 1.088-1.759c0 0 7.545-3.839 9.621-8.958-.007 0 2.108.32 2.108-1.68z" fill="url(#i)"/><path d="M118.795 96.271l5.469 1.84s-.726 1.72.16 2.519c0 0-6.267 9.238-11.537 11.478 0 0-.758-.84-3.153-.6l-3.756-2.84s1.401-.679 1.088-1.759c0 0 7.545-3.839 9.621-8.958-.007 0 2.108.32 2.108-1.68z" fill="url(#j)"/><path d="M129.37 108.778l4.616 2.228s-.824 1.454-.134 2.243c0 0-6.554 7.475-11.457 8.871 0 0-.58-.825-2.722-.876l-3.004-2.908s1.31-.448 1.146-1.455c0 0 7.088-2.545 9.487-6.853.014 0 1.847.516 2.068-1.25z" fill="url(#k)"/><path d="M129.37 108.778l4.616 2.228s-.824 1.454-.134 2.243c0 0-6.554 7.475-11.457 8.871 0 0-.58-.825-2.722-.876l-3.004-2.908s1.31-.448 1.146-1.455c0 0 7.088-2.545 9.487-6.853.014 0 1.847.516 2.068-1.25z" fill="url(#l)"/><path d="M124.623 130.828l13.896-4.4a2.736 2.736 0 0 0 2.075.48l2.795 3.12s-.639 1.279-.16 1.919l-15.463 3.974s-1.277-.727-2.319-.56l-2.101-2.934s1.637-.411 1.277-1.599z" fill="url(#m)"/><path d="M124.623 130.828l13.896-4.4a2.736 2.736 0 0 0 2.075.48l2.795 3.12s-.639 1.279-.16 1.919l-15.463 3.974s-1.277-.727-2.319-.56l-2.101-2.934s1.637-.411 1.277-1.599z" fill="url(#n)"/><path d="M25.684 129.181a10.001 10.001 0 0 1-1.655 3.806 5.868 5.868 0 0 0-2.805.113v-13.045a27.68 27.68 0 0 1 3.926-1.09c.635 3.341 1.227 6.987.534 10.216z" fill="url(#o)"/><path d="M179.308 107.979l-2.961-.213a1.35 1.35 0 0 0-1.444 1.251l-.88 12.242a1.353 1.353 0 0 0 1.25 1.447l2.96.213a1.351 1.351 0 0 0 1.444-1.252l.88-12.242a1.351 1.351 0 0 0-1.249-1.446z" fill="#6BAFFF"/><path d="M179.119 120.11a4.675 4.675 0 0 0 4.671-4.679 4.675 4.675 0 0 0-4.671-4.679 4.675 4.675 0 0 0-4.67 4.679 4.675 4.675 0 0 0 4.67 4.679z" fill="#6BAFFF"/><path d="M179.119 120.11a4.675 4.675 0 0 0 4.671-4.679 4.675 4.675 0 0 0-4.671-4.679 4.675 4.675 0 0 0-4.67 4.679 4.675 4.675 0 0 0 4.67 4.679z" fill="url(#p)"/><path d="M179.087 119.47a4.006 4.006 0 0 0 4.002-4.01 4.006 4.006 0 0 0-4.002-4.01 4.006 4.006 0 0 0-4.003 4.01 4.006 4.006 0 0 0 4.003 4.01z" fill="#6BAFFF"/><path d="M177.019 119.47a4.006 4.006 0 0 0 4.002-4.01 4.006 4.006 0 0 0-4.002-4.01 4.006 4.006 0 0 0-4.003 4.01 4.006 4.006 0 0 0 4.003 4.01z" fill="url(#q)"/><path d="M170.787 92.123V90.78a3.825 3.825 0 0 1-2.025-.581l.316-.888a3.55 3.55 0 0 0 1.924.568c.939 0 1.574-.542 1.574-1.298s-.518-1.182-1.495-1.578c-1.353-.53-2.177-1.142-2.177-2.294 0-1.153.78-1.938 1.996-2.138v-1.338h.824v1.287a3.518 3.518 0 0 1 1.72.462l-.33.876a3.197 3.197 0 0 0-1.67-.45c-1.019 0-1.404.61-1.404 1.14 0 .692.49 1.033 1.644 1.513 1.361.556 2.05 1.247 2.05 2.425 0 1.05-.726 2.029-2.09 2.254v1.382h-.857zm-25.598 6.9v-.727a2.06 2.06 0 0 1-1.089-.313l.171-.476c.304.199.66.305 1.023.306.504 0 .846-.291.846-.695 0-.403-.28-.636-.806-.847-.726-.287-1.169-.614-1.169-1.232a1.17 1.17 0 0 1 1.071-1.146v-.727h.439v.691c.325.004.643.09.925.25l-.177.47a1.692 1.692 0 0 0-.897-.244c-.544 0-.751.328-.751.615 0 .363.261.552.878.81.726.299 1.089.67 1.089 1.302a1.234 1.234 0 0 1-1.121 1.207v.727l-.432.03zm24.401 35.855v-.727a2.085 2.085 0 0 1-1.089-.313l.171-.476c.305.198.66.304 1.023.305.505 0 .846-.291.846-.698s-.28-.633-.802-.847c-.726-.284-1.172-.611-1.172-1.229a1.165 1.165 0 0 1 1.07-1.149v-.727h.443v.691c.323.003.64.088.922.247l-.178.469a1.742 1.742 0 0 0-.893-.24c-.548 0-.755.327-.755.611 0 .363.261.556.882.811.726.298 1.089.669 1.089 1.301a1.238 1.238 0 0 1-1.122 1.211v.727l-.435.033z" fill="#6BAFFF"/></g><defs><linearGradient id="b" x1="60.525" y1="127.068" x2="61.472" y2="211.887" gradientUnits="userSpaceOnUse"><stop stop-color="#010101" stop-opacity="0"/><stop offset=".95" stop-color="#010101"/></linearGradient><linearGradient id="c" x1="26129.2" y1="3221.95" x2="26137.9" y2="7191.49" gradientUnits="userSpaceOnUse"><stop stop-color="#010101" stop-opacity="0"/><stop offset=".95" stop-color="#010101"/></linearGradient><linearGradient id="d" x1="8097.15" y1="1958.77" x2="8312.1" y2="2955.39" gradientUnits="userSpaceOnUse"><stop stop-color="#010101" stop-opacity="0"/><stop offset=".95" stop-color="#010101"/><stop offset=".95" stop-color="#010101"/></linearGradient><linearGradient id="e" x1="139.165" y1="131.387" x2="139.165" y2="140.098" gradientUnits="userSpaceOnUse"><stop stop-color="#fff"/><stop offset="1" stop-color="#fff" stop-opacity="0"/></linearGradient><linearGradient id="f" x1="20976" y1="3554.27" x2="20946.8" y2="4268.53" gradientUnits="userSpaceOnUse"><stop stop-color="#010101" stop-opacity="0"/><stop offset=".95" stop-color="#010101"/></linearGradient><linearGradient id="g" x1="24548.2" y1="2996.03" x2="24560.2" y2="6280.68" gradientUnits="userSpaceOnUse"><stop stop-color="#010101" stop-opacity="0"/><stop offset=".95" stop-color="#010101"/></linearGradient><linearGradient id="h" x1="1025.19" y1="3127.7" x2="1095.78" y2="4090.32" gradientUnits="userSpaceOnUse"><stop stop-color="#010101" stop-opacity="0"/><stop offset=".95" stop-color="#010101"/></linearGradient><linearGradient id="i" x1="6285.19" y1="3418.51" x2="7048.82" y2="4928.5" gradientUnits="userSpaceOnUse"><stop stop-color="#010101" stop-opacity="0"/><stop offset=".95" stop-color="#010101"/><stop offset=".95" stop-color="#010101"/></linearGradient><linearGradient id="j" x1="115.201" y1="96.271" x2="115.201" y2="112.108" gradientUnits="userSpaceOnUse"><stop stop-color="#fff"/><stop offset="1" stop-color="#fff" stop-opacity="0"/></linearGradient><linearGradient id="k" x1="5917.81" y1="2907.81" x2="6519.02" y2="4232.51" gradientUnits="userSpaceOnUse"><stop stop-color="#010101" stop-opacity="0"/><stop offset=".95" stop-color="#010101"/><stop offset=".95" stop-color="#010101"/></linearGradient><linearGradient id="l" x1="125.327" y1="108.778" x2="125.327" y2="122.12" gradientUnits="userSpaceOnUse"><stop stop-color="#fff"/><stop offset="1" stop-color="#fff" stop-opacity="0"/></linearGradient><linearGradient id="m" x1="6837.45" y1="2117.79" x2="7131.63" y2="3172.28" gradientUnits="userSpaceOnUse"><stop stop-color="#010101" stop-opacity="0"/><stop offset=".95" stop-color="#010101"/><stop offset=".95" stop-color="#010101"/></linearGradient><linearGradient id="n" x1="133.367" y1="126.428" x2="133.367" y2="135.921" gradientUnits="userSpaceOnUse"><stop stop-color="#fff"/><stop offset="1" stop-color="#fff" stop-opacity="0"/></linearGradient><linearGradient id="o" x1="377.792" y1="3538.43" x2="-125.655" y2="4435.69" gradientUnits="userSpaceOnUse"><stop stop-color="#010101" stop-opacity="0"/><stop offset=".95" stop-color="#010101"/></linearGradient><linearGradient id="p" x1="4810.72" y1="1803.16" x2="4810.72" y2="2408.54" gradientUnits="userSpaceOnUse"><stop stop-color="#010101" stop-opacity="0"/><stop offset=".95" stop-color="#010101"/></linearGradient><linearGradient id="q" x1="173.019" y1="115.46" x2="181.021" y2="115.46" gradientUnits="userSpaceOnUse"><stop stop-color="#fff" stop-opacity="0"/><stop offset=".13" stop-color="#fff" stop-opacity=".23"/><stop offset=".23" stop-color="#fff" stop-opacity=".41"/><stop offset=".35" stop-color="#fff" stop-opacity=".59"/><stop offset=".48" stop-color="#fff" stop-opacity=".74"/><stop offset=".6" stop-color="#fff" stop-opacity=".85"/><stop offset=".72" stop-color="#fff" stop-opacity=".93"/><stop offset=".84" stop-color="#fff" stop-opacity=".98"/><stop offset=".95" stop-color="#fff"/></linearGradient><clipPath id="a"><path fill="#fff" d="M0 0h200v200H0z"/></clipPath></defs></svg>