<svg width="200" height="200" viewBox="0 0 200 200" fill="none" xmlns="http://www.w3.org/2000/svg"><g clip-path="url(#a)"><path d="M79.267 44.365c-9.191.564-18.51 1.809-26.883 5.658-7.487 3.436-13.932 8.819-19.664 14.737-5.258 5.426-10.07 11.474-12.817 18.514-2.207 5.719-2.99 11.908-5.066 17.696-3.782 10.491-11.74 19.317-14.07 30.216a41.076 41.076 0 0 0-.593 11.836c1.788 22.573 17.3 43.499 38.38 51.776 9.68 3.802 20.185 5.064 30.581 5.202 12.89.173 25.74-1.324 38.543-2.818 21.646-2.532 43.941-5.26 62.939-15.935 2.758-1.552 5.461-3.284 7.599-5.603 3.033-3.256 4.821-7.485 5.989-11.778a51.772 51.772 0 0 0-1.447-31.472c-2.674-7.148-6.984-13.89-7.531-21.501-.579-8.071 3.163-15.733 5.295-23.539 1.852-6.786 2.196-15.757-2.219-21.762-3.152-4.287-9.274-5.762-13.99-7.618a200.756 200.756 0 0 0-54.052-13.023 196.747 196.747 0 0 0-30.994-.586z" fill="#F1F7FF"/><path d="M90.742 183.027c20.413 0 36.961-2.478 36.961-5.534 0-3.057-16.548-5.535-36.961-5.535s-36.961 2.478-36.961 5.535c0 3.056 16.548 5.534 36.96 5.534z" fill="url(#b)"/><path d="M92.247 99.798h-3.434a38.726 38.726 0 0 0-27.379 11.337 38.7 38.7 0 0 0-11.34 27.369v3.433a38.7 38.7 0 0 0 11.34 27.37 38.73 38.73 0 0 0 27.38 11.336h3.433a38.729 38.729 0 0 0 27.379-11.336 38.698 38.698 0 0 0 11.341-27.37v-3.433a38.697 38.697 0 0 0-11.341-27.369 38.725 38.725 0 0 0-27.379-11.337zm36.487 41.759a36.395 36.395 0 0 1-10.665 25.745 36.43 36.43 0 0 1-25.753 10.664h-3.22a36.43 36.43 0 0 1-25.756-10.662 36.402 36.402 0 0 1-10.667-25.747v-3.23a36.391 36.391 0 0 1 10.67-25.74 36.422 36.422 0 0 1 25.752-10.658h3.221a36.42 36.42 0 0 1 25.75 10.659 36.395 36.395 0 0 1 10.668 25.739v3.23z" fill="#6BAFFF"/><path opacity=".24" d="M128.734 138.327v3.23a35.17 35.17 0 0 1-.144 3.285 36.403 36.403 0 0 1-11.709 23.597 36.43 36.43 0 0 1-24.565 9.528h-3.22a36.431 36.431 0 0 1-24.559-9.532 36.404 36.404 0 0 1-11.704-23.593 35.172 35.172 0 0 1-.145-3.285v-3.23a36.396 36.396 0 0 1 10.664-25.735 36.42 36.42 0 0 1 25.744-10.663h3.22a36.408 36.408 0 0 1 36.418 36.398z" fill="#92C4FF"/><path opacity=".24" d="M128.59 144.842a36.403 36.403 0 0 1-11.709 23.597 36.424 36.424 0 0 1-24.565 9.527h-3.22a36.426 36.426 0 0 1-24.559-9.531 36.403 36.403 0 0 1-11.704-23.593 36.399 36.399 0 0 1 11.709-23.598 36.43 36.43 0 0 1 24.568-9.523h3.22a36.42 36.42 0 0 1 24.557 9.53 36.396 36.396 0 0 1 11.703 23.591z" fill="#6BAFFF"/><path d="M90.662 155.166c5.039 0 9.123-4.083 9.123-9.119 0-5.037-4.084-9.12-9.123-9.12-5.038 0-9.122 4.083-9.122 9.12 0 5.036 4.084 9.119 9.122 9.119z" fill="#E8A825"/><path d="M89.772 154.678c5.038 0 9.123-4.083 9.123-9.12 0-5.036-4.085-9.119-9.123-9.119-5.038 0-9.123 4.083-9.123 9.119 0 5.037 4.085 9.12 9.123 9.12z" fill="#F8C244"/><path d="M89.772 153.328a7.77 7.77 0 1 0 0-15.54 7.77 7.77 0 0 0 0 15.54z" fill="#E8A825"/><path d="M86.787 149.505l.6-1.085a3.589 3.589 0 0 1-1.39-1.386l.656-.579c.3.554.752 1.011 1.302 1.317.768.423 1.528.264 1.868-.362.34-.625.108-1.193-.514-1.957-.865-1.038-1.274-1.91-.756-2.847.517-.936 1.505-1.229 2.59-.842l.601-1.086.67.362-.58 1.046a3.3 3.3 0 0 1 1.198 1.153l-.662.565a2.96 2.96 0 0 0-1.158-1.118c-.832-.456-1.422-.134-1.657.3-.311.561-.065 1.064.662 1.968.865 1.067 1.118 1.935.586 2.894-.466.854-1.501 1.328-2.717.897l-.615 1.125-.684-.365z" fill="#F8C244"/><path d="M74.874 158.783c5.038 0 9.123-4.082 9.123-9.119s-4.085-9.119-9.123-9.119c-5.038 0-9.123 4.082-9.123 9.119s4.085 9.119 9.123 9.119z" fill="#E8A825"/><path d="M74.129 158.096c5.038 0 9.122-4.083 9.122-9.119 0-5.037-4.084-9.12-9.123-9.12-5.038 0-9.122 4.083-9.122 9.12 0 5.036 4.084 9.119 9.123 9.119z" fill="#F8C244"/><path d="M74.129 156.747a7.771 7.771 0 0 0 0-15.54 7.771 7.771 0 1 0 0 15.54z" fill="#E8A825"/><path d="M70.293 152.102l.843-.915a3.582 3.582 0 0 1-1.024-1.675l.774-.409c.157.611.488 1.162.952 1.588.644.594 1.422.623 1.9.102.477-.521.387-1.133-.037-2.023-.593-1.211-.781-2.17-.057-2.948.723-.777 1.755-.832 2.717-.202l.84-.919.564.517-.81.883c.412.382.72.864.89 1.4l-.767.39a3.01 3.01 0 0 0-.865-1.356c-.698-.644-1.346-.467-1.68-.105-.433.474-.314 1.02.178 2.069.586 1.241.623 2.149-.12 2.956-.658.723-1.772.933-2.85.227l-.87.945-.578-.525z" fill="#F8C244"/><path d="M106.718 158.197c5.039 0 9.123-4.083 9.123-9.119 0-5.037-4.084-9.12-9.123-9.12-5.038 0-9.122 4.083-9.122 9.12 0 5.036 4.084 9.119 9.122 9.119z" fill="#E8A825"/><path d="M105.759 158.53c5.039 0 9.123-4.083 9.123-9.119 0-5.037-4.084-9.12-9.123-9.12-5.038 0-9.122 4.083-9.122 9.12 0 5.036 4.084 9.119 9.122 9.119z" fill="#F8C244"/><path d="M105.759 157.181a7.771 7.771 0 0 0 0-15.54 7.771 7.771 0 1 0 0 15.54z" fill="#E8A825"/><path d="M106.697 154.269l-.409-1.176a3.59 3.59 0 0 1-1.962.105v-.875a3.285 3.285 0 0 0 1.853-.083c.825-.29 1.22-.959.988-1.625-.232-.665-.814-.879-1.809-.926-1.35-.054-2.269-.332-2.624-1.349-.354-1.016.098-1.939 1.107-2.485l-.408-1.176.723-.249.395 1.128a3.296 3.296 0 0 1 1.657-.119l-.025.868a2.991 2.991 0 0 0-1.607.116c-.894.311-1.046.966-.883 1.447.21.608.746.759 1.904.828 1.371.069 2.171.467 2.533 1.501.322.919-.018 2.004-1.151 2.619l.423 1.212-.705.239z" fill="#F8C244"/><path d="M109.527 104.226c0 3.306-9.84 5.998-21.97 5.998-12.13 0-21.98-2.692-21.98-5.998 0-.724-.55-5.003.21-6.048-.138.255-.21.541-.21.832 0 3.32 9.84 6.001 21.98 6.001 11.982 0 21.713-2.616 21.959-5.878.267 1.776.011 4.467.011 5.093z" fill="#68E1FD"/><path d="M109.527 104.226c0 3.306-9.84 5.998-21.97 5.998-12.13 0-21.98-2.692-21.98-5.998 0-.724-.55-5.003.21-6.048-.138.255-.21.541-.21.832 0 3.32 9.84 6.001 21.98 6.001 11.982 0 21.713-2.616 21.959-5.878.267 1.776.011 4.467.011 5.093z" fill="#92C4FF"/><path d="M109.516 99.126c-.236 3.255-9.977 5.878-21.959 5.878-12.14 0-21.98-2.681-21.98-6.002 0-.29.072-.576.21-.831 1.52-2.927 10.683-5.159 21.785-5.159 10.458 0 19.208 1.997 21.408 4.677.086.077.158.167.214.268.171.369.28.764.322 1.169z" fill="#6BAFFF"/><path d="M109.527 99.002a.506.506 0 0 1 0 .123 3.703 3.703 0 0 0-.337-1.179c.22.308.338.678.337 1.056z" fill="#68E1FD"/><path opacity=".37" d="M95.692 97.693H79.054v1.367h16.638v-1.367z" fill="url(#c)"/><path d="M82.491 93.88c5.496 0 9.952-4.454 9.952-9.948 0-5.494-4.456-9.948-9.952-9.948-5.496 0-9.951 4.454-9.951 9.948 0 5.494 4.455 9.948 9.951 9.948z" fill="#E8A825"/><path d="M81.388 93.88c5.496 0 9.951-4.454 9.951-9.948 0-5.494-4.455-9.948-9.951-9.948s-9.952 4.454-9.952 9.948c0 5.494 4.456 9.948 9.952 9.948z" fill="#F8C244"/><path d="M81.388 92.408a8.477 8.477 0 0 0 8.478-8.476 8.477 8.477 0 0 0-8.478-8.475 8.477 8.477 0 0 0-8.479 8.475 8.477 8.477 0 0 0 8.479 8.476z" fill="#E8A825"/><path d="M80.61 89.272v-1.36a3.892 3.892 0 0 1-2.06-.59l.323-.9a3.594 3.594 0 0 0 1.94.574c.954 0 1.599-.55 1.599-1.316 0-.767-.525-1.198-1.52-1.603-1.372-.535-2.222-1.154-2.222-2.326 0-1.172.796-1.964 2.034-2.17v-1.357h.832v1.306a3.554 3.554 0 0 1 1.751.47l-.336.886a3.258 3.258 0 0 0-1.697-.455c-1.035 0-1.426.618-1.426 1.154 0 .702.5 1.052 1.668 1.534 1.386.567 2.088 1.266 2.088 2.463 0 1.063-.724 2.058-2.128 2.286v1.4l-.846.004z" fill="#F8C244"/><path d="M78.569 73.51c5.038 0 9.122-4.082 9.122-9.119 0-5.036-4.084-9.12-9.122-9.12-5.039 0-9.123 4.084-9.123 9.12 0 5.037 4.084 9.12 9.123 9.12z" fill="#E8A825"/><path d="M77.556 73.51c5.038 0 9.122-4.082 9.122-9.119 0-5.036-4.084-9.12-9.122-9.12-5.039 0-9.123 4.084-9.123 9.12 0 5.037 4.084 9.12 9.123 9.12z" fill="#F8C244"/><path d="M77.555 72.161a7.771 7.771 0 0 0 7.773-7.77c0-4.291-3.48-7.77-7.773-7.77a7.771 7.771 0 0 0-7.773 7.77c0 4.292 3.48 7.77 7.773 7.77z" fill="#E8A825"/><path d="M76.843 69.285v-1.233a3.599 3.599 0 0 1-1.89-.543l.297-.824c.53.341 1.147.524 1.777.528.876 0 1.47-.507 1.47-1.209 0-.701-.482-1.085-1.397-1.468-1.256-.492-2.034-1.06-2.034-2.13 0-1.072.724-1.81 1.863-1.987v-1.255h.764v1.194a3.287 3.287 0 0 1 1.603.434l-.308.814a2.975 2.975 0 0 0-1.548-.427c-.952 0-1.31.568-1.31 1.06 0 .64.456.962 1.53 1.403 1.27.521 1.911 1.162 1.911 2.258 0 .976-.677 1.888-1.947 2.098v1.28l-.781.007z" fill="#F8C244"/><path d="M62.614 63.404c5.038 0 9.123-4.083 9.123-9.12 0-5.036-4.085-9.12-9.123-9.12-5.038 0-9.123 4.084-9.123 9.12 0 5.037 4.085 9.12 9.123 9.12z" fill="#E8A825"/><path d="M61.6 63.404c5.039 0 9.123-4.083 9.123-9.12 0-5.036-4.084-9.12-9.122-9.12-5.039 0-9.123 4.084-9.123 9.12 0 5.037 4.084 9.12 9.123 9.12z" fill="#F8C244"/><path d="M61.6 62.054a7.772 7.772 0 0 0 7.774-7.77c0-4.291-3.48-7.77-7.773-7.77a7.772 7.772 0 0 0-7.773 7.77c0 4.291 3.48 7.77 7.773 7.77z" fill="#E8A825"/><path d="M60.888 59.179v-1.256a3.573 3.573 0 0 1-1.886-.542l.294-.825a3.284 3.284 0 0 0 1.776.528c.876 0 1.47-.503 1.47-1.208 0-.706-.482-1.085-1.394-1.447-1.259-.496-2.037-1.06-2.037-2.134 0-1.075.724-1.809 1.864-1.986v-1.252h.763v1.197a3.29 3.29 0 0 1 1.589.435l-.308.813a2.964 2.964 0 0 0-1.552-.42c-.952 0-1.31.569-1.31 1.06 0 .641.456.963 1.53 1.408 1.27.517 1.911 1.158 1.911 2.257 0 .973-.676 1.885-1.947 2.095v1.28l-.763-.003z" fill="#F8C244"/><path d="M102.611 175.923c-5.496-.08-9.926-1.961-9.893-4.2 0-.25-.188-1.65-.08-1.885.865-1.881 5.2-2.101 10.089-2.033 4.806.069 8.841 0 9.742 1.856.13.264.152 2.062.148 2.344-.029 2.243-4.513 3.994-10.006 3.918z" fill="#E8A825"/><path d="M112.545 170.134c.033-2.241-4.396-4.122-9.892-4.201-5.495-.078-9.976 1.675-10.008 3.916-.032 2.242 4.397 4.122 9.892 4.201 5.495.079 9.976-1.675 10.008-3.916z" fill="#F8C244"/><path d="M111.073 170.113c.027-1.91-3.746-3.512-8.428-3.579-4.682-.067-8.5 1.427-8.528 3.336-.027 1.91 3.746 3.513 8.429 3.58 4.682.067 8.499-1.427 8.527-3.337z" fill="#E8A825"/><path d="M97.248 169.589l1.361.018a1.106 1.106 0 0 1 .604-.832l.898.144a1.057 1.057 0 0 0-.597.782c0 .387.543.658 1.31.669a2.051 2.051 0 0 0 1.61-.597c.546-.553 1.172-.89 2.341-.872 1.169.018 1.962.362 2.153.861l1.361.018v.34l-1.306-.018a.97.97 0 0 1-.482.706l-.886-.149a.898.898 0 0 0 .467-.687c0-.42-.612-.59-1.147-.597a1.891 1.891 0 0 0-1.546.659c-.571.557-1.277.832-2.475.817-1.06-.018-2.052-.333-2.272-.901l-1.4-.021.006-.34z" fill="#F8C244"/><path d="M140.043 177.5c-5.497-.076-9.926-1.957-9.894-4.2 0-.25-.188-1.646-.079-1.881.868-1.881 5.203-2.105 10.088-2.037 4.81.069 8.845 0 9.746 1.856.126.268.152 2.066.148 2.344-.029 2.243-4.509 3.997-10.009 3.918z" fill="#E8A825"/><path d="M149.984 171.712c.033-2.241-4.396-4.122-9.892-4.2-5.495-.079-9.976 1.674-10.008 3.916-.032 2.241 4.397 4.122 9.892 4.2 5.495.079 9.976-1.674 10.008-3.916z" fill="#F8C244"/><path d="M148.512 171.691c.027-1.909-3.746-3.512-8.428-3.579-4.683-.067-8.5 1.427-8.528 3.337-.027 1.909 3.746 3.512 8.429 3.579 4.682.067 8.499-1.427 8.527-3.337z" fill="#E8A825"/><path d="M134.687 171.166l1.357.021c.027-.177.095-.345.201-.489.105-.145.243-.263.404-.343l.901.145a1.032 1.032 0 0 0-.59.782c0 .39.543.662 1.31.672a2.064 2.064 0 0 0 1.61-.597c.546-.553 1.169-.889 2.338-.875 1.169.015 1.961.362 2.171.861h1.357v.34h-1.306a.974.974 0 0 1-.482.724l-.883-.152a.904.904 0 0 0 .467-.684c0-.423-.611-.59-1.151-.597a1.884 1.884 0 0 0-1.541.658c-.576.557-1.278.832-2.475.814-1.064 0-2.056-.329-2.276-.9l-1.401-.018-.011-.362z" fill="#F8C244"/><path d="M141.548 173.948c-5.497-.08-9.926-1.957-9.893-4.2 0-.25-.189-1.646-.08-1.881.865-1.885 5.2-2.106 10.089-2.037 4.809.069 8.84 0 9.745 1.856.127.268.152 2.065.145 2.344-.029 2.243-4.513 4.012-10.006 3.918z" fill="#E8A825"/><path d="M151.486 168.156c.032-2.241-4.396-4.122-9.892-4.2-5.495-.079-9.976 1.674-10.008 3.916-.032 2.241 4.397 4.122 9.892 4.2 5.495.079 9.976-1.674 10.008-3.916z" fill="#F8C244"/><path d="M150.014 168.135c.027-1.909-3.746-3.512-8.429-3.579-4.682-.067-8.499 1.427-8.527 3.337-.027 1.909 3.746 3.512 8.428 3.579 4.683.067 8.5-1.427 8.528-3.337z" fill="#E8A825"/><path d="M136.189 167.614l1.357.021a1.087 1.087 0 0 1 .604-.832l.901.145a1.028 1.028 0 0 0-.59.781c0 .391.54.662 1.307.673a2.035 2.035 0 0 0 1.61-.6c.547-.55 1.173-.887 2.341-.872 1.169.014 1.962.362 2.172.861h1.357v.34h-1.307a.98.98 0 0 1-.481.723l-.887-.152a.895.895 0 0 0 .467-.683c0-.424-.608-.59-1.147-.601a1.893 1.893 0 0 0-1.545.662c-.572.557-1.274.832-2.472.814-1.063 0-2.055-.333-2.276-.901l-1.4-.018-.011-.361z" fill="#F8C244"/><path d="M139.019 170.71c-5.493-.076-9.923-1.957-9.89-4.2 0-.249-.188-1.646-.083-1.881.868-1.881 5.203-2.105 10.089-2.036 4.809.068 8.844 0 9.745 1.855.13.268.152 2.066.148 2.344-.032 2.243-4.512 3.994-10.009 3.918z" fill="#E8A825"/><path d="M148.957 164.923c.032-2.241-4.397-4.122-9.892-4.201-5.496-.078-9.977 1.675-10.009 3.916-.032 2.241 4.397 4.122 9.893 4.201 5.495.078 9.976-1.675 10.008-3.916z" fill="#F8C244"/><path d="M147.484 164.902c.028-1.91-3.746-3.512-8.428-3.579-4.682-.067-8.5 1.426-8.527 3.336-.027 1.91 3.746 3.512 8.428 3.579 4.682.067 8.5-1.426 8.527-3.336z" fill="#E8A825"/><path d="M133.659 164.376l1.361.022a1.11 1.11 0 0 1 .601-.832l.901.144a1.046 1.046 0 0 0-.59.782c0 .39.543.662 1.31.673a2.044 2.044 0 0 0 1.61-.597c.547-.554 1.169-.89 2.342-.876 1.114.018 1.957.362 2.153.861l1.36.018v.34l-1.302-.018a.98.98 0 0 1-.482.724l-.886-.152a.91.91 0 0 0 .466-.684c0-.423-.611-.59-1.147-.597a1.886 1.886 0 0 0-1.545.659c-.572.557-1.277.832-2.475.814-1.064 0-2.055-.33-2.276-.901l-1.397-.018-.004-.362z" fill="#F8C244"/><path d="M140.043 167.552c-5.497-.08-9.926-1.957-9.894-4.2 0-.249-.188-1.646-.079-1.881.868-1.885 5.203-2.105 10.088-2.036 4.81.068 8.845 0 9.746 1.855.126.268.152 2.066.148 2.344-.029 2.243-4.509 3.998-10.009 3.918z" fill="#E8A825"/><path d="M149.985 161.763c.032-2.241-4.396-4.122-9.892-4.2-5.495-.079-9.976 1.674-10.008 3.916-.032 2.241 4.397 4.122 9.892 4.2 5.495.079 9.976-1.674 10.008-3.916z" fill="#F8C244"/><path d="M148.513 161.742c.027-1.91-3.746-3.512-8.428-3.579-4.683-.067-8.5 1.427-8.528 3.337-.027 1.909 3.746 3.512 8.429 3.579 4.682.067 8.499-1.427 8.527-3.337z" fill="#E8A825"/><path d="M134.687 161.218l1.357.022a1.113 1.113 0 0 1 .605-.832l.901.144a1.041 1.041 0 0 0-.59.782c0 .39.543.662 1.31.673a2.064 2.064 0 0 0 1.61-.597c.546-.554 1.169-.89 2.338-.876 1.169.015 1.961.362 2.171.861h1.357v.348h-1.306a.975.975 0 0 1-.482.723l-.883-.152a.904.904 0 0 0 .467-.684c0-.423-.611-.589-1.151-.596a1.87 1.87 0 0 0-1.541.658c-.576.557-1.278.832-2.475.814-1.064 0-2.056-.329-2.276-.901l-1.401-.018-.011-.369z" fill="#F8C244"/><path d="M140.043 164.195c-5.497-.08-9.926-1.961-9.894-4.2 0-.249-.188-1.649-.079-1.884.868-1.881 5.203-2.102 10.088-2.033 4.81.068 8.845 0 9.746 1.855.126.264.152 2.062.148 2.344-.029 2.24-4.509 3.998-10.009 3.918z" fill="#E8A825"/><path d="M149.986 158.405c.032-2.241-4.397-4.122-9.893-4.2-5.495-.079-9.976 1.674-10.008 3.916-.032 2.241 4.397 4.122 9.892 4.2 5.496.079 9.977-1.674 10.009-3.916z" fill="#F8C244"/><path d="M148.513 158.384c.027-1.91-3.746-3.512-8.428-3.579-4.682-.067-8.5 1.427-8.527 3.337-.028 1.909 3.746 3.512 8.428 3.579 4.682.067 8.5-1.427 8.527-3.337z" fill="#E8A825"/><path d="M134.687 157.861l1.357.018a1.113 1.113 0 0 1 .605-.832l.901.145a1.035 1.035 0 0 0-.59.781c0 .391.543.662 1.31.673a2.047 2.047 0 0 0 1.61-.597c.546-.553 1.169-.89 2.338-.872 1.169.018 1.961.362 2.171.861l1.357.018v.34l-1.306-.018a.96.96 0 0 1-.482.706l-.883-.149a.909.909 0 0 0 .467-.687c0-.42-.611-.59-1.151-.597a1.884 1.884 0 0 0-1.541.659c-.576.557-1.278.832-2.475.817-1.064 0-2.056-.333-2.276-.901l-1.401-.021-.011-.344z" fill="#F8C244"/><path d="M160.532 176.516c-4.795-.069-8.66-1.711-8.634-3.665 0-.217-.163-1.447-.069-1.642.756-1.642 4.538-1.837 8.8-1.776 4.198.062 7.719 0 8.504 1.621.113.231.134 1.808.131 2.043-.029 1.957-3.937 3.477-8.732 3.419z" fill="#E8A825"/><path d="M168.513 170.838c.02-1.955-3.851-3.58-8.646-3.628-4.794-.048-8.697 1.499-8.716 3.455-.02 1.956 3.851 3.58 8.645 3.628 4.795.048 8.698-1.499 8.717-3.455z" fill="#F8C244"/><path d="M167.915 171.45c.024-1.666-3.268-3.064-7.352-3.122-4.085-.058-7.416 1.245-7.439 2.911-.024 1.666 3.268 3.064 7.352 3.122 4.085.059 7.415-1.245 7.439-2.911z" fill="#E8A825"/><path d="M155.853 170.988l1.187.019a.962.962 0 0 1 .524-.724l.786.127a.915.915 0 0 0-.514.683c0 .34.474.576 1.143.586a1.799 1.799 0 0 0 1.404-.521 2.516 2.516 0 0 1 2.041-.759c.977 0 1.712.304 1.882.749l1.187.018v.296l-1.136-.018a.885.885 0 0 1-.14.357.887.887 0 0 1-.28.262l-.774-.134a.785.785 0 0 0 .401-.6c0-.362-.535-.514-1.002-.521a1.621 1.621 0 0 0-1.346.575c-.503.485-1.115.723-2.171.723-.927 0-1.81-.286-1.987-.785h-1.22l.015-.333z" fill="#F8C244"/><path d="M161.426 173.759c-4.795-.068-8.66-1.707-8.631-3.664 0-.217-.163-1.447-.069-1.642.757-1.643 4.538-1.834 8.801-1.776 4.194.061 7.715 0 8.5 1.62.116.232.134 1.809.13 2.044-.025 1.957-3.937 3.487-8.731 3.418z" fill="#E8A825"/><path d="M170.096 168.709c.028-1.956-3.836-3.597-8.63-3.665-4.794-.069-8.703 1.461-8.731 3.417-.028 1.955 3.836 3.596 8.63 3.665 4.794.068 8.703-1.461 8.731-3.417z" fill="#F8C244"/><path d="M168.811 168.691c.024-1.666-3.268-3.064-7.352-3.123-4.085-.058-7.415 1.245-7.439 2.911-.024 1.666 3.268 3.064 7.352 3.123 4.085.058 7.416-1.245 7.439-2.911z" fill="#E8A825"/><path d="M156.75 168.254h1.183a.98.98 0 0 1 .529-.724l.785.127a.877.877 0 0 0-.343.275.885.885 0 0 0-.171.405c0 .34.474.579 1.14.586a1.777 1.777 0 0 0 1.408-.521 2.499 2.499 0 0 1 2.041-.76c.973 0 1.711.308 1.881.749l1.184.018v.297l-1.14-.018a.845.845 0 0 1-.42.618l-.771-.13a.8.8 0 0 0 .406-.6c0-.362-.532-.514-1.003-.521a1.672 1.672 0 0 0-1.342.56c-.5.485-1.115.724-2.172.724-.93 0-1.809-.289-1.986-.785l-1.22-.018.011-.282z" fill="#F8C244"/><path d="M161.426 170.829c-4.795-.068-8.66-1.707-8.631-3.664 0-.217-.163-1.447-.069-1.642.757-1.643 4.538-1.834 8.801-1.776 4.194.061 7.715-.001 8.5 1.62.116.232.134 1.809.13 2.044-.025 1.957-3.937 3.487-8.731 3.418z" fill="#E8A825"/><path d="M170.096 165.78c.028-1.955-3.835-3.596-8.629-3.665-4.794-.068-8.703 1.461-8.731 3.417-.028 1.956 3.835 3.597 8.629 3.665 4.794.069 8.703-1.461 8.731-3.417z" fill="#F8C244"/><path d="M168.812 165.762c.024-1.666-3.268-3.064-7.353-3.122-4.085-.059-7.415 1.245-7.439 2.911-.024 1.666 3.268 3.064 7.353 3.122 4.084.058 7.415-1.245 7.439-2.911z" fill="#E8A825"/><path d="M156.75 165.302l1.184.018a.967.967 0 0 1 .528-.723l.785.123a.906.906 0 0 0-.514.683c0 .34.474.579 1.14.586a1.78 1.78 0 0 0 1.408-.521 2.511 2.511 0 0 1 2.041-.759c.973 0 1.711.307 1.882.748l1.183.019v.296l-1.14-.018a.845.845 0 0 1-.42.619l-.771-.131a.798.798 0 0 0 .406-.6c0-.362-.532-.514-1.003-.521a1.65 1.65 0 0 0-1.346.575c-.499.485-1.114.724-2.171.724-.93 0-1.809-.29-1.987-.785l-1.219-.018.014-.315z" fill="#F8C244"/><path d="M114.227 167.729c-5.272 1.548-10.06 1.06-10.693-1.085-.069-.239-.666-1.519-.63-1.772.272-2.055 4.343-3.549 9.047-4.927 4.614-1.353 8.446-2.619 9.857-1.104.203.214.757 1.928.836 2.196.619 2.152-3.144 5.14-8.417 6.692z" fill="#E8A825"/><path d="M113.594 165.958c5.273-1.549 9.036-4.548 8.404-6.698-.632-2.151-5.419-2.639-10.692-1.091-5.274 1.549-9.036 4.547-8.404 6.698.632 2.151 5.419 2.639 10.692 1.091z" fill="#F8C244"/><path d="M113.251 165.661c4.496-1.311 7.706-3.86 7.171-5.693-.535-1.834-4.613-2.258-9.108-.947s-7.706 3.86-7.171 5.693c.535 1.834 4.613 2.258 9.108.947z" fill="#E8A825"/><path d="M107.236 163.262l1.303-.384a1.076 1.076 0 0 1 .332-.973l.902-.126a1.027 1.027 0 0 0-.333.918c.112.362.723.474 1.447.257a2.039 2.039 0 0 0 1.361-1.049c.362-.687.854-1.194 1.979-1.523 1.086-.314 1.976-.242 2.312.185l1.303-.384.098.326-1.252.362a1 1 0 0 1-.032.438.987.987 0 0 1-.221.379l-.891.12a.892.892 0 0 0 .223-.364.888.888 0 0 0 .031-.425c-.12-.405-.757-.383-1.274-.232a1.876 1.876 0 0 0-1.278 1.086c-.383.701-.977 1.172-2.124 1.508-1.02.3-2.059.29-2.439-.188l-1.342.394-.105-.325z" fill="#F8C244"/><path d="M80.939 174.812c-5.497-.08-9.926-1.961-9.893-4.2 0-.249-.189-1.649-.08-1.881.868-1.884 5.204-2.105 10.089-2.036 4.809.068 8.844 0 9.745 1.855.127.264.152 2.066.148 2.344-.032 2.243-4.512 3.994-10.01 3.918z" fill="#E8A825"/><path d="M90.874 169.024c.032-2.242-4.396-4.122-9.892-4.201-5.495-.079-9.976 1.675-10.008 3.916-.032 2.241 4.396 4.122 9.892 4.2 5.495.079 9.976-1.674 10.008-3.915z" fill="#F8C244"/><path d="M89.402 169.002c.027-1.909-3.746-3.512-8.428-3.579-4.682-.067-8.5 1.427-8.528 3.337-.027 1.91 3.747 3.512 8.429 3.579 4.682.067 8.5-1.427 8.527-3.337z" fill="#E8A825"/><path d="M75.58 168.478l1.357.018a1.088 1.088 0 0 1 .604-.828l.901.144a1.044 1.044 0 0 0-.59.782c0 .387.543.658 1.31.669a2.05 2.05 0 0 0 1.61-.597c.547-.55 1.17-.886 2.342-.872 1.114 0 1.957.362 2.153.861l1.357.018v.34l-1.303-.018a.986.986 0 0 1-.481.706l-.887-.149a.916.916 0 0 0 .467-.683c0-.424-.612-.594-1.15-.601a1.895 1.895 0 0 0-1.542.659c-.576.557-1.278.835-2.475.817-1.064 0-2.056-.333-2.277-.901l-1.396-.018v-.347z" fill="#F8C244"/><path d="M119.185 158.389c-5.023 2.232-9.836 2.377-10.744.329-.101-.228-.861-1.418-.861-1.675 0-2.072 3.843-4.091 8.323-6.073 4.396-1.95 8.029-3.708 9.625-2.391.232.184 1.006 1.808 1.118 2.065.894 2.055-2.439 5.517-7.461 7.745z" fill="#E8A825"/><path d="M118.328 156.705c5.023-2.229 8.357-5.697 7.447-7.746-.91-2.049-5.719-1.902-10.742.327-5.024 2.229-8.358 5.697-7.448 7.746.91 2.049 5.719 1.902 10.743-.327z" fill="#F8C244"/><path d="M118.084 156.156c4.28-1.899 7.12-4.854 6.345-6.6-.775-1.745-4.873-1.621-9.153.279-4.279 1.899-7.12 4.854-6.345 6.6.775 1.745 4.873 1.621 9.153-.279z" fill="#E8A825"/><path d="M111.665 154.869l1.241-.553a1.098 1.098 0 0 1-.027-.528 1.1 1.1 0 0 1 .226-.478l.88-.246a1.034 1.034 0 0 0-.21.955c.159.362.771.362 1.473.065a2.04 2.04 0 0 0 1.208-1.219c.268-.723.691-1.295 1.762-1.769 1.072-.473 1.926-.502 2.316-.123l1.242-.549.137.311-1.19.528a.989.989 0 0 1-.142.843l-.868.235a.9.9 0 0 0 .138-.818c-.171-.387-.8-.282-1.292-.061a1.87 1.87 0 0 0-1.126 1.244c-.289.745-.814 1.288-1.907 1.776-.973.431-2.005.557-2.442.134l-1.267.583-.152-.33z" fill="#F8C244"/><path d="M59.708 153.513c-4.082-3.675-6.177-8.005-4.679-9.673.167-.185.945-1.364 1.18-1.469 1.892-.846 5.301 1.842 8.934 5.112 3.572 3.216 6.659 5.813 6.112 7.81-.08.282-1.244 1.653-1.447 1.863-1.476 1.664-6.003.032-10.1-3.643z" fill="#E8A825"/><path d="M71.01 155.679c1.5-1.665-.594-5.996-4.679-9.672-4.084-3.676-8.611-5.306-10.112-3.64-1.5 1.665.594 5.996 4.679 9.672 4.084 3.676 8.611 5.306 10.112 3.64z" fill="#F8C244"/><path d="M69.915 154.694c1.279-1.419-.506-5.109-3.986-8.241-3.48-3.132-7.337-4.521-8.615-3.101-1.279 1.419.506 5.109 3.986 8.241 3.48 3.132 7.337 4.521 8.615 3.101z" fill="#E8A825"/><path d="M59.856 145.218l1.01.908a1.125 1.125 0 0 1 1.002-.228l.583.702a1.036 1.036 0 0 0-.959.203c-.26.289-.025.853.543 1.367a2.063 2.063 0 0 0 1.607.608c.774-.054 1.447.101 2.334.886.886.785 1.244 1.556 1.056 2.066l1.01.908-.228.253-.97-.872a.98.98 0 0 1-.829.213l-.568-.694a.92.92 0 0 0 .804-.21c.285-.315-.07-.846-.47-1.205a1.869 1.869 0 0 0-1.596-.52c-.797.039-1.51-.214-2.4-1.017-.789-.723-1.328-1.602-1.118-2.17l-1.039-.952.228-.246z" fill="#F8C244"/><path d="M88.871 161.558c-5.475.503-10.078-.897-10.284-3.129-.022-.246-.362-1.617-.279-1.863.662-1.964 4.95-2.644 9.818-3.093 4.787-.441 8.793-.944 9.886.814.156.25.362 2.037.394 2.315.207 2.247-4.063 4.45-9.535 4.956z" fill="#E8A825"/><path d="M88.597 159.692c5.473-.505 9.743-2.724 9.537-4.956-.206-2.232-4.81-3.632-10.283-3.127-5.472.504-9.742 2.723-9.536 4.955.206 2.232 4.81 3.632 10.282 3.128z" fill="#F8C244"/><path d="M88.542 159.094c4.663-.43 8.3-2.32 8.125-4.222-.175-1.902-4.098-3.095-8.76-2.665-4.663.429-8.3 2.32-8.125 4.222.175 1.901 4.097 3.095 8.76 2.665z" fill="#E8A825"/><path d="M82.868 155.828l1.353-.127a1.106 1.106 0 0 1 .514-.889l.908.05a1.045 1.045 0 0 0-.503.839c.036.387.612.601 1.375.529a2.07 2.07 0 0 0 1.538-.764c.485-.607 1.068-1.009 2.233-1.114 1.165-.105 1.987.141 2.236.626l1.354-.127.029.34-1.3.12a.98.98 0 0 1-.401.752l-.898-.054a.921.921 0 0 0 .391-.724c-.04-.419-.67-.52-1.205-.473a1.89 1.89 0 0 0-1.447.821c-.51.615-1.184.962-2.374 1.085-1.06.098-2.077-.112-2.36-.651l-1.393.126-.05-.365z" fill="#F8C244"/><path d="M63.812 165.722c-4.444-3.234-6.973-7.326-5.656-9.134.148-.203.8-1.447 1.02-1.585 1.81-1.038 5.465 1.281 9.409 4.157 3.886 2.832 7.237 5.097 6.875 7.137-.047.293-1.085 1.776-1.23 2-1.303 1.798-5.975.644-10.418-2.575z" fill="#E8A825"/><path d="M75.268 166.695c1.32-1.812-1.211-5.903-5.654-9.137-4.443-3.233-9.115-4.386-10.435-2.574-1.32 1.812 1.212 5.903 5.655 9.137 4.443 3.234 9.114 4.386 10.434 2.574z" fill="#F8C244"/><path d="M74.078 165.829c1.124-1.544-1.033-5.03-4.818-7.785-3.785-2.755-7.766-3.737-8.89-2.193-1.125 1.544 1.032 5.029 4.817 7.784 3.786 2.756 7.766 3.738 8.89 2.194z" fill="#E8A825"/><path d="M63.092 157.445l1.085.799a1.122 1.122 0 0 1 .974-.332l.651.64a1.039 1.039 0 0 0-.934.296c-.227.315.062.854.684 1.306a2.03 2.03 0 0 0 1.657.438c.768-.134 1.47-.051 2.418.64.948.691 1.397 1.418 1.263 1.943l1.086.799-.2.275-1.052-.767a.979.979 0 0 1-.804.301l-.637-.633a.926.926 0 0 0 .778-.29c.25-.343-.159-.835-.593-1.15a1.888 1.888 0 0 0-1.64-.362c-.792.123-1.526-.058-2.493-.76-.86-.625-1.487-1.446-1.339-2.047l-1.132-.825.228-.271z" fill="#F8C244"/><path d="M72.76 161.742c-4.827-2.622-7.877-6.341-6.806-8.32.12-.217.597-1.544.803-1.703 1.643-1.263 5.584.553 9.88 2.894 4.226 2.293 7.834 4.098 7.765 6.167 0 .297-.822 1.899-.955 2.145-1.072 1.957-5.855 1.429-10.686-1.183z" fill="#E8A825"/><path d="M84.248 161.215c1.07-1.97-1.979-5.692-6.809-8.313-4.83-2.622-9.612-3.15-10.682-1.18-1.07 1.97 1.978 5.692 6.808 8.314 4.83 2.621 9.613 3.149 10.683 1.179z" fill="#F8C244"/><path d="M82.953 160.513c.912-1.679-1.685-4.85-5.8-7.083-4.115-2.234-8.19-2.684-9.102-1.006-.912 1.679 1.685 4.85 5.8 7.084 4.116 2.233 8.19 2.683 9.102 1.005z" fill="#E8A825"/><path d="M70.959 153.636l1.194.647a1.093 1.093 0 0 1 .923-.455l.723.546a1.037 1.037 0 0 0-.883.416c-.188.362.17.839.847 1.204a2.024 2.024 0 0 0 1.7.217c.725-.235 1.448-.242 2.48.315 1.031.557 1.574 1.223 1.509 1.762l1.194.651-.163.297-1.147-.623a.973.973 0 0 1-.753.402l-.724-.543a.9.9 0 0 0 .724-.39c.203-.362-.264-.807-.724-1.064a1.894 1.894 0 0 0-1.671-.134c-.767.228-1.52.145-2.57-.427-.937-.506-1.668-1.244-1.6-1.852l-1.23-.665.17-.304z" fill="#F8C244"/><path d="M99.17 166.865c5.038 0 9.122-4.083 9.122-9.12 0-5.036-4.084-9.119-9.122-9.119s-9.123 4.083-9.123 9.119c0 5.037 4.085 9.12 9.123 9.12z" fill="#E8A825"/><path d="M98.157 166.865c5.038 0 9.122-4.083 9.122-9.12 0-5.036-4.084-9.119-9.122-9.119-5.039 0-9.123 4.083-9.123 9.119 0 5.037 4.084 9.12 9.123 9.12z" fill="#F8C244"/><path d="M98.157 165.515a7.771 7.771 0 1 0 0-15.54 7.77 7.77 0 0 0 0 15.54z" fill="#E8A825"/><path d="M97.444 162.64v-1.259a3.624 3.624 0 0 1-1.89-.543l.297-.828a3.287 3.287 0 0 0 1.777.531c.876 0 1.47-.506 1.47-1.208s-.482-1.085-1.397-1.468c-1.256-.492-2.034-1.06-2.034-2.131 0-1.071.724-1.809 1.864-1.986v-1.23h.763v1.194a3.28 3.28 0 0 1 1.603.434l-.308.814a2.975 2.975 0 0 0-1.552-.42c-.952 0-1.31.568-1.31 1.06 0 .64.456.962 1.53 1.404 1.271.521 1.911 1.161 1.911 2.257 0 .973-.676 1.888-1.946 2.098v1.281h-.778z" fill="#F8C244"/><path d="M77.91 167.476c5.038 0 9.123-4.083 9.123-9.119 0-5.037-4.085-9.12-9.123-9.12-5.038 0-9.123 4.083-9.123 9.12 0 5.036 4.085 9.119 9.123 9.119z" fill="#E8A825"/><path d="M76.897 167.476c5.038 0 9.122-4.083 9.122-9.119 0-5.037-4.084-9.12-9.122-9.12s-9.123 4.083-9.123 9.12c0 5.036 4.085 9.119 9.123 9.119z" fill="#F8C244"/><path d="M76.897 166.127a7.772 7.772 0 1 0 0-15.541 7.772 7.772 0 0 0 0 15.541z" fill="#E8A825"/><path d="M76.184 163.255v-1.248c-.667 0-1.32-.188-1.885-.543l.293-.825a3.288 3.288 0 0 0 1.776.532c.876 0 1.47-.506 1.47-1.208s-.482-1.085-1.393-1.469c-1.26-.492-2.038-1.06-2.038-2.134 0-1.075.724-1.809 1.864-1.982v-1.248h.763v1.197a3.289 3.289 0 0 1 1.603.43l-.307.814a2.965 2.965 0 0 0-1.553-.419c-.951 0-1.31.568-1.31 1.06 0 .643.46.962 1.531 1.407 1.27.517 1.91 1.157 1.91 2.257 0 .973-.676 1.885-1.946 2.094v1.285h-.778z" fill="#F8C244"/><path d="M89.168 177.406c5.038 0 9.122-4.083 9.122-9.12 0-5.036-4.084-9.119-9.122-9.119-5.039 0-9.123 4.083-9.123 9.119 0 5.037 4.084 9.12 9.123 9.12z" fill="#E8A825"/><path d="M88.281 176.917c5.038 0 9.123-4.082 9.123-9.119 0-5.036-4.084-9.119-9.123-9.119-5.038 0-9.123 4.083-9.123 9.119 0 5.037 4.085 9.119 9.123 9.119z" fill="#F8C244"/><path d="M88.281 175.568a7.772 7.772 0 0 0 7.773-7.77c0-4.291-3.48-7.77-7.773-7.77a7.772 7.772 0 0 0-7.773 7.77c0 4.291 3.48 7.77 7.773 7.77z" fill="#E8A825"/><path d="M85.296 171.745l.6-1.086a3.581 3.581 0 0 1-1.393-1.382l.659-.582a3.277 3.277 0 0 0 1.3 1.32c.77.424 1.53.264 1.87-.361.34-.626.109-1.194-.514-1.957-.865-1.039-1.274-1.91-.756-2.851.517-.94 1.505-1.226 2.59-.843l.598-1.085.67.362-.576 1.049c.49.275.903.671 1.198 1.15l-.663.565a2.97 2.97 0 0 0-1.161-1.115c-.832-.459-1.419-.133-1.654.297-.311.564-.065 1.064.662 1.968.862 1.067 1.115 1.939.587 2.894-.47.853-1.502 1.324-2.718.897l-.619 1.121-.68-.361z" fill="#F8C244"/></g><defs><linearGradient id="b" x1="90.456" y1="187.332" x2="92.749" y2="108.419" gradientUnits="userSpaceOnUse"><stop stop-color="#010101" stop-opacity="0"/><stop offset=".95" stop-color="#010101"/></linearGradient><linearGradient id="c" x1="4090.47" y1="293.707" x2="4090.53" y2="308.871" gradientUnits="userSpaceOnUse"><stop stop-color="#010101" stop-opacity="0"/><stop offset=".95" stop-color="#010101"/></linearGradient><clipPath id="a"><path fill="#fff" d="M0 0h200v200H0z"/></clipPath></defs></svg>