<svg width="25" height="25" viewBox="0 0 25 25" fill="none" xmlns="http://www.w3.org/2000/svg"><g clip-path="url(#a)" fill="#fff"><path d="M11.966 9.721c.703 0 1.253-.223 1.656-.541.4-.32.6-.755.6-1.314v-3.37c0-.497-.204-.907-.611-1.222-.41-.316-.934-.473-1.576-.473-.702 0-1.263.149-1.678.448-.417.3-.626.7-.626 1.207v3.382c0 .556.203.995.609 1.325.405.33.949.558 1.626.558zm-.735-5.1c0-.129.066-.231.198-.313a.997.997 0 0 1 .517-.118c.231 0 .417.039.558.118.142.082.21.185.21.312v3.205a.422.422 0 0 1-.208.373c-.139.09-.325.135-.56.135-.229 0-.407-.043-.53-.133a.435.435 0 0 1-.185-.375V4.62zm5.387 5.096c.247 0 .499-.142.76-.283.264-.145.516-.356.758-.631v.749h1.313v-6.76h-1.313v5.131a1.864 1.864 0 0 1-.405.363c-.148.094-.27.143-.367.143-.123 0-.214-.035-.266-.108-.056-.071-.086-.186-.086-.345V2.793h-1.31v5.649c0 .403.078.704.23.904.154.202.382.371.686.371zm3.819 2.795H4.567C2.045 12.512 0 14.478 0 16.9v3.71C0 23.034 2.044 25 4.568 25h15.868c2.523 0 4.568-1.966 4.568-4.39V16.9c0-2.422-2.045-4.388-4.567-4.388zM6.928 16.277H5.525v5.812H4.167v-5.811H2.764v-.991h4.165v.99zm4.189 5.892H9.653v-.603a3.127 3.127 0 0 1-.846.508 2.22 2.22 0 0 1-.849.176c-.339 0-.592-.082-.764-.247-.17-.163-.257-.407-.257-.734V16.68H8.4v4.209c0 .13.03.222.09.28.063.06.164.086.3.086.106 0 .245-.037.41-.115.165-.076.316-.174.454-.295V16.68h1.463v5.49zm5.538-1.045c0 .36-.114.634-.34.827-.224.193-.554.288-.981.288-.285 0-.538-.036-.757-.11a1.905 1.905 0 0 1-.619-.345v.39h-1.46v-6.887h1.46v2.219c.198-.153.405-.272.62-.353.22-.082.443-.12.667-.12.457 0 .806.106 1.046.322.244.216.364.535.364.95v2.82zm5.567-1.55h-2.696v.993c0 .277.045.468.138.577.094.107.254.16.478.16.236 0 .398-.046.492-.137.092-.091.142-.29.142-.601v-.24h1.449v.27c0 .54-.174.945-.532 1.219-.353.272-.881.408-1.583.408-.632 0-1.13-.144-1.492-.433-.362-.286-.545-.686-.545-1.192v-2.365c0-.455.2-.83.6-1.118.4-.286.91-.43 1.543-.43.644 0 1.14.134 1.488.4.346.265.518.649.518 1.146v1.344zM6.142 9.738H7.8v-4.04L9.73 0H8.044L7.02 3.894h-.106L5.838 0H4.166l1.976 5.88v3.857zm8.42 8.1l-.306.051-.3.154v3.166c.118.082.233.144.344.179l.349.054c.178 0 .307-.035.39-.108.082-.071.126-.188.126-.348V18.36c0-.173-.05-.303-.152-.39-.106-.087-.254-.132-.45-.132z"/><path d="M20.22 17.607c-.225 0-.385.047-.484.145-.097.093-.144.251-.144.472v.53h1.246v-.53c0-.221-.051-.378-.148-.473-.096-.097-.256-.144-.47-.144z"/></g><defs><clipPath id="a"><path d="M0 0h25v25H0V0z" fill="#fff"/></clipPath></defs></svg>