<svg width="41" height="46" viewBox="0 0 41 46" xmlns="http://www.w3.org/2000/svg"><title>84758E0A-96F1-4489-83B2-F814731C9604</title><g fill="none" fill-rule="evenodd"><path d="M23.889 20.027l-2.502-1.44c-.488-.28-1.286-.28-1.774 0l-2.502 1.44c-.488.281-.887.971-.887 1.533v2.803c0 .561.011 1.038.025 1.059l.011.02.01.019c.012.021.42.27.907.55l2.238 1.288c.487.282.946.505 1.018.497h.135c.071.008.53-.215 1.017-.497l2.106-1.212c.488-.28.911-.564.94-.63l.034-.057.033-.059c.043-.059.078-.566.078-1.129v-2.651c0-.563-.4-1.253-.887-1.534z"/><path d="M39.023 31.896l-3.675-2.116c-.488-.281-.442-.63.102-.775l2.018-.54c.544-.145 1.347-.553 1.784-.908 0 0 .511-.415.291-1.232a1.535 1.535 0 0 0-1.483-1.136h-.13a32.64 32.64 0 0 0-1.258.317l-4.986 1.332c-.544.146-1.388.035-1.876-.245l-1.075-.62c-.488-.28-.887-.97-.887-1.532V21.56c0-.562.4-1.252.887-1.533l.992-.571c.487-.28 1.333-.391 1.876-.246l5.069 1.354c.544.146 1.445.192 2 .103 0 0 .652-.105.871-.922.22-.817-.291-1.232-.291-1.232-.438-.355-1.24-.764-1.785-.909l-2.1-.561c-.544-.145-.59-.494-.102-.774l3.757-2.164c.488-.281 1.157-.884 1.487-1.338 0 0 .386-.534-.037-1.266a1.536 1.536 0 0 0-1.332-.767h-.261c-.279.113-.906.436-1.394.716l-3.705 2.134c-.487.28-.767.067-.622-.476l.541-2.012c.147-.543.193-1.441.103-1.995 0 0-.105-.65-.924-.868a1.535 1.535 0 0 0-.399-.053c-.678 0-.892.301-.892.301a6.848 6.848 0 0 0-.855 1.822l-1.337 4.973c-.146.542-.664 1.217-1.152 1.497l-1.044.602c-.489.28-1.286.28-1.774 0l-2.502-1.44c-.488-.281-.887-.97-.887-1.532v-1.156c0-.562.326-1.346.724-1.743l3.68-3.67c.399-.398.89-1.153 1.09-1.677 0 0 .234-.615-.365-1.213-.6-.598-1.217-.363-1.217-.363-.526.199-1.283.688-1.681 1.086L22.76 7.169c-.399.399-.725.264-.725-.298V2.557c0-.563-.188-1.442-.418-1.954C21.617.6 21.349 0 20.5 0s-1.118.6-1.118.6c-.23.513-.418 1.392-.418 1.955v4.313c0 .562-.326.697-.724.3l-1.508-1.504c-.398-.398-1.037-.924-1.417-1.17h-.394c-.393 0-.786.148-1.086.448-.6.598-.365 1.213-.365 1.213.2.524.69 1.279 1.09 1.676l3.68 3.67c.398.397.724 1.182.724 1.744V14.4c0 .562-.4 1.251-.888 1.532l-2.501 1.44c-.488.28-1.286.28-1.774 0l-1.045-.6c-.488-.282-1.006-.956-1.152-1.498L10.268 10.3a6.88 6.88 0 0 0-.856-1.821s-.214-.301-.892-.301c-.132 0-.266.017-.399.052-.82.22-.924.868-.924.868-.09.554-.043 1.453.103 1.995l.541 2.012c.146.543-.134.758-.622.477l-3.705-2.134c-.488-.28-1.115-.604-1.394-.716h-.26c-.531 0-1.048.274-1.332.766-.424.733-.038 1.266-.038 1.266.33.455 1 1.057 1.488 1.338l3.757 2.164c.488.28.442.63-.103.774l-2.1.562c-.545.145-1.347.554-1.784.908 0 0-.511.415-.291 1.233.219.816.87.921.87.921.556.09 1.456.044 2-.103l5.07-1.353c.543-.146 1.388-.035 1.876.245l.992.572c.488.28.887.97.887 1.532v2.881c0 .562-.399 1.252-.887 1.533l-1.075.619c-.487.28-1.332.391-1.876.245l-4.986-1.332a32.535 32.535 0 0 0-1.257-.316H2.94c-.679 0-1.3.451-1.483 1.135-.22.817.292 1.232.292 1.232.436.355 1.24.764 1.783.909l2.018.54c.545.145.59.493.103.775l-3.675 2.115c-.488.281-1.157.884-1.488 1.34 0 0-.386.532.038 1.264.425.733 1.08.665 1.08.665.56-.056 1.419-.334 1.907-.615l3.727-2.146c.488-.28.768-.067.622.476l-.563 2.094c-.145.543-.192 1.44-.102 1.996 0 0 .104.65.924.867.82.219 1.235-.29 1.235-.29.355-.436.766-1.237.911-1.78l1.359-5.054c.146-.544.664-1.217 1.152-1.498l1.022-.59c.488-.28 1.287-.28 1.774 0l2.501 1.441c.488.281.888.97.888 1.532v1.224c0 .563-.326 1.347-.724 1.745l-3.68 3.67c-.4.398-.889 1.152-1.09 1.677 0 0-.235.614.365 1.212.6.6 1.216.364 1.216.364.526-.2 1.283-.688 1.681-1.086l1.508-1.503c.398-.398.724-.263.724.3v4.244c0 .562.188 1.44.418 1.954 0 0 .27.6 1.118.6.849 0 1.118-.6 1.118-.6.23-.513.419-1.392.419-1.954v-4.244c0-.563.325-.698.724-.3l1.507 1.503c.398.398 1.155.886 1.68 1.086 0 0 .617.236 1.218-.364.6-.598.364-1.212.364-1.212-.2-.525-.69-1.28-1.089-1.677l-3.68-3.67c-.398-.398-.724-1.183-.724-1.744v-1.225c0-.561.4-1.25.887-1.532l2.501-1.44c.489-.281 1.287-.281 1.775 0l1.022.589c.488.28 1.006.954 1.152 1.498l1.359 5.054c.145.543.555 1.344.91 1.78 0 0 .417.51 1.236.29.82-.218.924-.867.924-.867.09-.555.043-1.453-.103-1.996l-.562-2.094c-.146-.543.134-.757.622-.476l3.727 2.146c.488.281 1.346.558 1.906.615 0 0 .655.068 1.08-.665.424-.732.038-1.265.038-1.265-.331-.452-1.001-1.055-1.49-1.336zM24.776 24.21c0 .563-.035 1.07-.078 1.13l-.033.058-.034.057c-.029.066-.452.35-.94.63l-2.106 1.212c-.487.282-.946.505-1.017.497h-.135c-.072.008-.53-.215-1.018-.497l-2.238-1.288c-.487-.28-.895-.529-.906-.55l-.01-.019-.012-.02c-.014-.02-.025-.498-.025-1.06v-2.8c0-.562.4-1.252.887-1.533l2.502-1.44c.488-.28 1.286-.28 1.774 0l2.502 1.44c.488.281.887.971.887 1.533v2.652z" fill="#53BDFF" fill-rule="nonzero"/></g></svg>