<svg width="35" height="48" viewBox="0 0 35 48" xmlns="http://www.w3.org/2000/svg"><title>4AC352C9-882A-4687-ACFA-5972733411CF</title><path d="M9.514 47.778C-4.325 46.064-.078 33.183 3.788 26.867c1.849-3.02 1.308-6.974-.266-9.726 2.952 2.306 3.868 4.356 4.176 7.487 2.558-4.039 1.939-11.792-.817-14.186 2.437 1.444 3.888 3.098 5.169 6.403C13.007 10.937 15.324 5.1 20.68 0c-5.03 9.18-2.238 28.583 5.99 30.732 2.867.75 5.666-1.687 2.998-8.665C38.023 32.875 37.374 46.609 21.861 48c6.367-2.41 9.74-5.384 9.131-12.796-6.54 3.18-16.5-5.987-15.863-18.24-3.283 7.677-4.791 17.773.274 22.145-3.834-1.164-6.993-4.29-6.344-10.442C6.38 35.5 6.665 39.994 11.5 44.17c-3.072-.238-8.518-2.354-8.288-8.728-1.97 6.056.554 10.128 6.303 12.336z" fill="#FF6E0A"/></svg>