<svg width="39" height="46" viewBox="0 0 39 46" xmlns="http://www.w3.org/2000/svg"><title>BF2C04C8-7261-4024-B481-66FE4608F80A</title><path d="M38.903 7.991c0-.648-.533-1.173-1.189-1.173-7.251 0-12.776-2.06-17.384-6.485a1.2 1.2 0 0 0-1.659 0C14.059 4.758 8.539 6.818 1.287 6.818c-.315 0-.617.124-.84.344-.223.22-.348.518-.348.83 0 1.163 0 2.346-.048 3.631-.228 11.661-.523 27.611 19.057 34.312.253.087.528.087.78 0 19.58-6.7 19.286-22.65 19.062-34.298a162.277 162.277 0 0 1-.047-3.646zM19.498 42.615C2.742 36.693 3.027 23.137 3.24 12.222c0-.827.032-1.623.04-2.4 6.59-.197 11.776-2.141 16.223-6.066 4.43 3.925 9.633 5.869 16.222 6.066 0 .777.023 1.573.041 2.4.204 10.915.49 24.47-16.268 30.393zm6.52-22.564l-8.003 8.663a.081.081 0 0 1-.043.023.081.081 0 0 1-.067-.023l-4.93-5.632a.079.079 0 0 1 0-.098l1.426-1.408a.077.077 0 0 1 .052 0 .077.077 0 0 1 .043 0l2.696 2.084a1.2 1.2 0 0 0 1.522-.043l5.81-5.068a.077.077 0 0 1 .1 0l1.426 1.408a.07.07 0 0 1-.033.099v-.005z" fill="#44D89C"/></svg>