<svg xmlns="http://www.w3.org/2000/svg" width="16" height="12" viewBox="0 0 16 12"><path fill="#fff" d="M0 6c0-.5.5-1 1-1h14c.5 0 1 .5 1 1s-.5 1-1 1H1c-.5 0-1-.5-1-1z"/><path fill="#fff" d="M9.572 11.364c-.354-.354-.354-1.06 0-1.414l4.243-4.243c.353-.353 1.06-.353 1.414 0 .353.354.353 1.06 0 1.414l-4.243 4.243c-.353.354-1.06.354-1.414 0z"/><path fill="#fff" d="M9.572.707c.353-.353 1.06-.353 1.414 0L15.23 4.95c.353.353.353 1.06 0 1.414-.354.354-1.06.354-1.414 0L9.572 2.121c-.354-.353-.354-1.06 0-1.414z"/></svg>