<svg xmlns="http://www.w3.org/2000/svg" width="176" height="167" viewBox="0 0 176 167"><defs><linearGradient id="a" x1="158.92" x2="31.81" y1="60.25" y2="87.61" gradientUnits="userSpaceOnUse"><stop offset="0" stop-color="#4ede9e"/><stop offset=".48" stop-color="#38a0f8"/><stop offset="1" stop-color="#5b40f2"/></linearGradient><linearGradient id="b" x1="176" x2="67.67" y1="83.07" y2="78.89" gradientUnits="userSpaceOnUse"><stop offset="0" stop-color="#4ede9e"/><stop offset=".48" stop-color="#38a0f8"/><stop offset="1" stop-color="#5b40f2"/></linearGradient></defs><path fill="url(#a)" d="M161.19 69.38c-3.926 0-7.109 3.158-7.109 7.054v7.106c-.01 18.535-7.295 35.956-20.51 49.054-13.207 13.09-30.756 20.296-49.42 20.296h-.04c-38.56-.022-69.914-31.168-69.892-69.43.01-18.535 7.295-35.956 20.511-49.055 13.206-13.089 30.756-20.296 49.42-20.296h.04a69.956 69.956 0 0 1 28.423 6.007c3.587 1.587 7.789-.014 9.387-3.572 1.598-3.559-.013-7.73-3.6-9.315-10.834-4.79-22.34-7.223-34.202-7.23h-.049C61.692 0 40.572 8.674 24.681 24.424 8.778 40.185.013 61.148 0 83.453c-.013 22.303 8.728 43.276 24.613 59.056 15.885 15.78 37.012 24.478 59.489 24.49h.05c22.457 0 43.577-8.672 59.467-24.422 15.903-15.762 24.668-36.726 24.681-59.033v-7.11c0-3.896-3.182-7.055-7.11-7.055z"/><path fill="url(#b)" d="M173.919 9.825a7.106 7.106 0 0 0-10.049 0l-79.671 79.67-18.074-18.074A7.105 7.105 0 1 0 56.076 81.47l23.1 23.099a7.083 7.083 0 0 0 5.024 2.08 7.083 7.083 0 0 0 5.024-2.08l84.695-84.696a7.105 7.105 0 0 0 0-10.048z"/></svg>