<svg xmlns="http://www.w3.org/2000/svg" width="18" height="16" viewBox="0 0 18 16"><path fill="#6f8dba" d="M17.75.8H6.664a.045.045 0 0 0-.044.044v1.038c0 .022.018.044.044.044H17.75a.045.045 0 0 0 .044-.044V.844A.042.042 0 0 0 17.75.8zM1.233 8.398a1.39 1.39 0 1 1 2.78 0 1.39 1.39 0 0 1-2.78 0zm-.008 6.098a1.398 1.398 0 1 1 2.796 0 1.398 1.398 0 0 1-2.796 0zM6.663 3.805h5.24a.045.045 0 0 0 .043-.044V2.722a.045.045 0 0 0-.044-.044h-5.24a.045.045 0 0 0-.043.044v1.039c.004.025.022.044.044.044zM17.75 6.898H6.664a.045.045 0 0 0-.044.044V7.98c0 .022.018.044.044.044H17.75a.045.045 0 0 0 .044-.044V6.942a.042.042 0 0 0-.044-.044zM6.663 9.903h5.24a.045.045 0 0 0 .043-.044V8.82a.045.045 0 0 0-.044-.044h-5.24a.045.045 0 0 0-.043.044v1.04c.004.022.022.044.044.044zm11.087 3.089H6.664a.045.045 0 0 0-.044.044v1.038c0 .022.018.044.044.044H17.75a.045.045 0 0 0 .044-.044v-1.038a.042.042 0 0 0-.044-.044zm-5.848 1.882h-5.24a.045.045 0 0 0-.043.044v1.038c0 .022.018.045.044.045h5.24a.045.045 0 0 0 .043-.045v-1.038a.042.042 0 0 0-.044-.044zM1.96 2.278l-.958-.965L0 2.311l.961.962.995 1.001.998-.994 2.293-2.278L4.252 0z"/></svg>