<svg xmlns="http://www.w3.org/2000/svg" width="24" height="24" viewBox="0 0 24 24"><path fill="#fbbb00" d="M5.305 14.264l-.821 3.068-3.003.063a11.75 11.75 0 0 1-1.407-5.593C.074 9.845.55 8 1.394 6.375l2.674.49 1.171 2.657a7.016 7.016 0 0 0-.379 2.28c0 .867.157 1.697.445 2.462z"/><path fill="#518ef8" d="M23.472 9.597a11.824 11.824 0 0 1-.052 4.669 11.8 11.8 0 0 1-4.155 6.74l-3.368-.172-.477-2.976a7.034 7.034 0 0 0 3.027-3.592h-6.311V9.597h11.336z"/><path fill="#28b446" d="M19.264 21.005l.001.001a11.753 11.753 0 0 1-7.389 2.598 11.8 11.8 0 0 1-10.395-6.209l3.824-3.13a7.018 7.018 0 0 0 10.115 3.593z"/><path fill="#f14336" d="M19.41 2.717l-3.824 3.13A7.02 7.02 0 0 0 5.24 9.522L1.394 6.374A11.8 11.8 0 0 1 11.876 0c2.864 0 5.49 1.02 7.534 2.717z"/></svg>