<svg xmlns="http://www.w3.org/2000/svg" width="48" height="46" viewBox="0 0 48 46"><defs><linearGradient id="a" x1="39.89" x2="20.84" y1="13.3" y2="28.52" gradientUnits="userSpaceOnUse"><stop offset="0" stop-color="#4ede9e"/><stop offset=".48" stop-color="#38a0f8"/><stop offset="1" stop-color="#5b40f2"/></linearGradient></defs><path fill="#6f8eba" d="M24 1.948c3.75 0 6.223.911 7.353 1.58-1.13.667-3.604 1.579-7.353 1.579-3.75 0-6.223-.912-7.353-1.58C17.777 2.86 20.25 1.948 24 1.948zm9.23 2.072l.393-.493-.393-.492C32.407 2.005 29.174.369 24 .369s-8.407 1.635-9.23 2.666l-.393.492.393.493c.823 1.03 4.056 2.666 9.23 2.666s8.407-1.635 9.23-2.666zm-3.815 21.55l1.388.755c.28-.515.502-1.06.66-1.622l-1.519-.43a6.333 6.333 0 0 1-.529 1.297zm1.826-5.998a7.915 7.915 0 0 0-.807-1.554l-1.312.88c.261.388.479.806.646 1.241zm-1.067 2.822v.17c0 .113-.003.227-.009.34l1.577.082a8.53 8.53 0 0 0 .011-.423v-.169c0-.381-.027-.765-.082-1.14l-1.563.228c.044.3.066.606.066.912zM18.796 25.94a6.305 6.305 0 0 1-.988-3.391v-.17h-1.58v.17c0 1.504.428 2.97 1.235 4.24l1.484 2.332 1.333-.848zm1.106 4.747l1.333-.848 1.005 1.58-1.333.848z"/><path fill="url(#a)" d="M24 19.23c.871 0 1.58.709 1.58 1.58h1.579a3.156 3.156 0 0 0-2.37-3.047v-1.691H23.21v1.58h-2.369v3.158A3.162 3.162 0 0 0 24 23.968c.871 0 1.58.709 1.58 1.58v1.579H24a1.58 1.58 0 0 1-1.58-1.58h-1.579a3.156 3.156 0 0 0 2.37 3.047v1.691h1.579v-1.579h2.369v-3.158A3.162 3.162 0 0 0 24 22.389a1.58 1.58 0 0 1-1.58-1.58V19.23z"/><path fill="#6f8eba" d="M39.484 20.068v1.571h3.097a5.32 5.32 0 0 0 1.492-.216c-.275 1.895-1.872 3.36-3.815 3.36h-3.87v1.571h3.87c.239 0 .47-.02.701-.05-.34 1.815-1.911 3.194-3.798 3.194H32.52l.626-.998a11.11 11.11 0 0 0 1.694-5.907v-.168c0-1.708-.397-3.32-1.084-4.764a3.801 3.801 0 0 1 2.233-.736h10.385c-.359 1.79-1.923 3.143-3.792 3.143zM19.682 33.427a5.355 5.355 0 0 0-.4-.795l-3.12-4.975a9.529 9.529 0 0 1-1.452-5.064v-.168c0-5.2 4.167-9.43 9.29-9.43 5.123 0 9.29 4.23 9.29 9.43v.168a9.518 9.518 0 0 1-1.452 5.063l-3.12 4.976a5.51 5.51 0 0 0-.401.795zm11.286 2.357a.781.781 0 0 1-.774.786H17.806a.781.781 0 0 1-.774-.786c0-.433.348-.786.774-.786h12.388c.426 0 .774.353.774.786zm-.774 3.93H17.806a.781.781 0 0 1-.774-.786c0-.433.348-.786.774-.786h12.388c.426 0 .774.353.774.786a.781.781 0 0 1-.774.785zM24 44.427c-1.987 0-3.729-1.302-4.375-3.143h8.75c-.646 1.841-2.388 3.143-4.375 3.143zm-13.161-14.93c-1.887 0-3.458-1.38-3.798-3.195.23.03.462.051.7.051h3.872v-1.571H7.742c-1.943 0-3.54-1.465-3.815-3.36a5.32 5.32 0 0 0 1.492.216h3.097v-1.571H5.42c-1.87 0-3.433-1.353-3.792-3.143h10.385c.812 0 1.583.265 2.234.736a11.041 11.041 0 0 0-1.085 4.764v.168c0 2.096.586 4.139 1.694 5.907l.626.998zm25.15-14.145c-1.082 0-2.12.326-3.004.926-1.95-2.928-5.25-4.855-8.985-4.855-3.735 0-7.036 1.927-8.985 4.855a5.334 5.334 0 0 0-3.003-.926H0v.786c0 1.864.92 3.512 2.323 4.507v.208a5.51 5.51 0 0 0 3.109 4.968c.132 2.915 2.503 5.247 5.407 5.247h5.627l1.478 2.358h-.138c-1.28 0-2.322 1.058-2.322 2.357 0 .606.233 1.154.604 1.572a2.358 2.358 0 0 0-.604 1.572c0 1.3 1.042 2.357 2.322 2.357h.2C18.702 44.015 21.167 46 24 46c2.833 0 5.297-1.985 5.994-4.715h.2c1.28 0 2.322-1.058 2.322-2.357 0-.606-.233-1.154-.604-1.572.372-.418.604-.966.604-1.572 0-1.3-1.042-2.357-2.322-2.357h-.138l1.478-2.358h5.627c2.904 0 5.275-2.332 5.407-5.247a5.51 5.51 0 0 0 3.11-4.968v-.208A5.52 5.52 0 0 0 48 16.14v-.786z"/></svg>