<svg xmlns="http://www.w3.org/2000/svg" width="42" height="46" viewBox="0 0 42 46"><path fill="#6f8eba" d="M4.8 24.8v.4a3.6 3.6 0 1 0 7.2 0v-.4h-1.6v.4a2 2 0 1 1-4 0v-.4z"/><path fill="#6f8eba" d="M10.48 37.6h3.92v3.2a4.007 4.007 0 0 1-3.92-3.2zM.8 46h9.6c3.091-.004 5.596-.509 5.6-3.6v-8h4a.8.8 0 0 0 .759-1.053l-3.466-10.4-1.518.506L18.89 32.8H15.2a.8.8 0 0 0-.8.8V36H9.6a.8.8 0 0 0-.8.8 5.606 5.606 0 0 0 5.6 5.6c-.003 2.208-1.792 1.997-4 2H1.6V24.274l3.831-4.926-1.262-.982L1.6 21.668V18.4H0v26.8a.8.8 0 0 0 .8.8z"/><path fill="#6f8eba" d="M4 17.6h8.8v4.8a.8.8 0 0 0 1.327.602L20.3 17.6h4.5a4.005 4.005 0 0 0 4-4V8h-1.6v5.6a2.403 2.403 0 0 1-2.4 2.4H20a.8.8 0 0 0-.527.198l-5.073 4.44V16.8a.8.8 0 0 0-.8-.8H4a2.403 2.403 0 0 1-2.4-2.4V4A2.403 2.403 0 0 1 4 1.6h20.8a2.398 2.398 0 0 1 2.324 1.8l1.55-.4A3.998 3.998 0 0 0 24.8 0H4a4.005 4.005 0 0 0-4 4v9.6a4.005 4.005 0 0 0 4 4z"/><path fill="#6f8eba" d="M4 4h7.2v1.6H4zm8.8 0h12v1.6h-12zM4 8h20.8v1.6H4zm11.2 4h9.6v1.6h-9.6zM4 12h9.6v1.6H4zm31.256 22.548l-.347.201v1.845h-1.39v-4.297a2.082 2.082 0 0 0 1.39-1.957c0-1.15-.935-2.085-2.085-2.085a2.088 2.088 0 0 0-2.085 2.085c0 .904.584 1.669 1.39 1.957v4.297h-1.39V34.75l-.346-.2a4.883 4.883 0 0 1-2.433-4.21 4.871 4.871 0 0 1 4.864-4.864 4.871 4.871 0 0 1 4.865 4.865 4.88 4.88 0 0 1-2.433 4.208zM32.13 30.34a.695.695 0 1 1 1.39 0 .695.695 0 0 1-1.39 0zm3.823 8.34h-6.255a.348.348 0 0 1-.347-.348c0-.191.156-.348.347-.348h6.255a.348.348 0 0 1 0 .695zm-.695 2.084h-4.865a.348.348 0 0 1-.347-.347c0-.191.156-.348.347-.348h4.865a.348.348 0 0 1 0 .695zM39.08 30.34a6.262 6.262 0 0 0-6.255-6.255 6.262 6.262 0 0 0-6.254 6.255 6.276 6.276 0 0 0 2.78 5.195v1.095a1.735 1.735 0 1 0-.576 3.168c-.074.193-.12.4-.12.619 0 .958.78 1.737 1.738 1.737h4.865c.958 0 1.737-.779 1.737-1.737 0-.22-.045-.426-.118-.619a1.734 1.734 0 0 0-.577-3.168v-1.095a6.276 6.276 0 0 0 2.78-5.195zm-6.95-6.95V22h1.39v1.39zm-4.077.075l1.204-.695.695 1.204-1.204.695zm-2.799 3.307l.695-1.204 1.204.695-.695 1.204zm-.769 4.263v-1.39h1.39v1.39z"/><path fill="#6f8eba" d="M27.153 34.417l-1.204.695-.695-1.204 1.204-.695zm13.24-.51L39.7 35.11l-1.204-.695.695-1.204zm-.619-2.872v-1.39h1.39v1.39zm-1.278-4.771l1.204-.695.695 1.204-1.204.695zm-2.799-2.291l.695-1.204 1.203.695-.694 1.204z"/></svg>