<svg xmlns="http://www.w3.org/2000/svg" width="51" height="49" viewBox="0 0 51 49"><path fill="#6f8eba" d="M27.938 31.599a15.853 15.853 0 0 0-3.387 2.987h-2.355l2.984-7.716 2.362.517a2.06 2.06 0 0 1 1.611 2.001V30.7c-.383.322-.789.623-1.215.9zm-6.724 14.894a2.65 2.65 0 0 1-2.471-1.701h4.942a2.65 2.65 0 0 1-2.471 1.7zM14.416 31.55a12.48 12.48 0 0 1-1.122-.837v-1.327c0-.955.677-1.797 1.61-2.002l2.34-.513 2.985 7.714h-2.353a16.684 16.684 0 0 0-3.46-3.035zm3.841-14.756a2.264 2.264 0 0 1 2.262-2.261h4.273v1.644c0 .82-.667 1.486-1.487 1.486h-5.048zm1.42 9.102a4.835 4.835 0 0 0 3.076.006c.16.197.36.363.587.486l-2.128 5.501-2.128-5.5c.23-.125.431-.293.593-.493zm3.628-6.342c.306 0 .602-.042.884-.119v1.86a2.97 2.97 0 0 1-2.966 2.965 2.97 2.97 0 0 1-2.966-2.966v-1.74zm1.829 22.895l-.452.452h-6.936l-.452-.452v-1.816h7.84zm0-5.974v2.268h-7.84v-2.268zm7.435-23.839a14.352 14.352 0 0 0-7.307-5.06.945.945 0 0 0-.537 1.812c5.206 1.54 8.842 6.412 8.842 11.847 0 2.78-.924 5.418-2.572 7.548a3.966 3.966 0 0 0-3.049-3.243l-3.37-.737a4.841 4.841 0 0 0 1.503-3.509v-3.196a3.357 3.357 0 0 0 .602-1.921v-2.59a.945.945 0 0 0-.945-.944H20.52a4.156 4.156 0 0 0-4.152 4.151v1.815c0 .043.004.086.01.128a.948.948 0 0 0-.01.127v2.43a4.84 4.84 0 0 0 1.501 3.505l-3.37.74a3.967 3.967 0 0 0-3.05 3.264 12.318 12.318 0 0 1-2.587-7.646c.034-5.502 3.586-10.234 8.839-11.774a.945.945 0 0 0-.532-1.814 14.097 14.097 0 0 0-7.29 5.017 14.148 14.148 0 0 0-2.907 8.56 14.208 14.208 0 0 0 6.403 11.98 14.994 14.994 0 0 1 2.241 1.81.94.94 0 0 0-.211.594v7.31c0 .251.1.491.277.669l1.005 1.005.048.043a4.543 4.543 0 0 0 4.48 3.825 4.543 4.543 0 0 0 4.48-3.825l.047-.043 1.006-1.005a.945.945 0 0 0 .277-.669v-7.31a.94.94 0 0 0-.215-.599 13.638 13.638 0 0 1 2.16-1.749 14.205 14.205 0 0 0 6.488-11.948c0-3.134-.999-6.107-2.888-8.598zM21.223 4.914a.945.945 0 0 0 .945-.945V.945a.945.945 0 0 0-1.89 0v3.024c0 .522.424.945.945.945zM3.969 20.303H.945a.945.945 0 0 0 0 1.89h3.024a.945.945 0 0 0 0-1.89zm45.557-.024H38.502a.945.945 0 0 0 0 1.89h11.024a.945.945 0 0 0 0-1.89zM8.35 9.703a.942.942 0 0 0 1.336 0 .945.945 0 0 0 0-1.337L7.548 6.228A.945.945 0 0 0 6.21 7.565zm25.771 23.065a.945.945 0 0 0-1.336 1.337l2.138 2.138a.942.942 0 0 0 1.337 0 .945.945 0 0 0 0-1.337zm-25.755.017l-2.138 2.138a.945.945 0 0 0 1.337 1.337l2.138-2.138a.945.945 0 0 0-1.337-1.337zm25.07-22.822a.942.942 0 0 0 .669-.277l2.138-2.138a.945.945 0 0 0-1.337-1.337L32.768 8.35a.945.945 0 0 0 .668 1.614z"/><path fill="#6f8eba" d="M21.125 8.883c.25 0 .493-.101.67-.277a.95.95 0 0 0 0-1.336.954.954 0 0 0-.67-.277.952.952 0 0 0-.668.277.952.952 0 0 0-.277.668c0 .248.101.492.277.668.177.176.42.277.668.277z"/></svg>