<svg xmlns="http://www.w3.org/2000/svg" width="31" height="24" viewBox="0 0 31 24"><path fill="#e2eeff" d="M.468 18.2v-.001a3.535 3.535 0 0 1 .072-2.725 3.545 3.545 0 0 1 1.98-1.877 3.554 3.554 0 0 1 2.628.027c.102.038.202.081.297.128.415.203 1.15.433 2.29.37.724-.04 1.335-.182 1.569-.268l.126-.044c.626-.214 2.53-.866 3.557-2.8.37-.607.646-1.528.912-2.418.232-.776.452-1.508.725-2.026.09-.17.18-.337.27-.495a8.477 8.477 0 0 1 1.442-2.111c.344-.394.597-.597.717-.683a8.464 8.464 0 0 1 2.44-1.441 8.44 8.44 0 0 1 6.479.167 8.43 8.43 0 0 1 4.459 4.695L.468 18.2zm0 0L30.43 6.698a8.432 8.432 0 0 1-.172 6.473 8.44 8.44 0 0 1-4.704 4.46 8.463 8.463 0 0 1-2.776.562c-.147.016-.47.034-.99-.028a8.478 8.478 0 0 1-2.485-.604 20.48 20.48 0 0 1-.532-.187c-.55-.202-1.202-.6-1.894-1.021-.793-.483-1.614-.983-2.296-1.186-2.057-.75-3.908.039-4.516.298-.049.02-.09.039-.124.052-.231.093-.78.396-1.345.85-.89.717-1.282 1.38-1.454 1.809a3.5 3.5 0 0 1-.135.293 3.554 3.554 0 0 1-1.935 1.778 3.546 3.546 0 0 1-2.728-.07 3.535 3.535 0 0 1-1.877-1.976z"/><path fill="#a6b7c6" d="M1.694 4.48a5.539 5.539 0 1 1 10.594 3.24A5.539 5.539 0 0 1 1.694 4.48zm7.585 15.51a3.194 3.194 0 1 1 6.11 1.869 3.194 3.194 0 0 1-6.11-1.868z"/></svg>