<svg xmlns="http://www.w3.org/2000/svg" width="180" height="84" viewBox="0 0 180 84"><defs><linearGradient id="a" x1="97.32" x2="19.48" y1="26.25" y2="38.16" gradientUnits="userSpaceOnUse"><stop offset="0" stop-color="#4ede9e"/><stop offset=".48" stop-color="#38a0f8"/><stop offset="1" stop-color="#5b40f2"/></linearGradient></defs><path fill="#1a051d" d="M92.736 83.227c-2.838-5.027-4.937-7.807-5.647-8.28.74-.621 2.632-2.928 5.204-6.861H87.06c-2.69 4.051-4.494 6.447-5.233 7.127V61.876h-4.553v21.351h4.553v-8.014c.68.355 2.513 3.016 5.647 8.014zM75.971 68.5c-1.42-.503-3.548-.828-5.174-.828-3.784 0-6.711 1.065-6.711 5.175 0 3.224 1.685 4.14 4.848 4.436 2.513.237 3.016.562 3.016 1.39 0 1.183-.828 1.33-2.602 1.33-1.478 0-3.163-.295-4.287-.62l-.887 3.43c1.39.503 3.755.828 5.381.828 3.814 0 6.77-1.094 6.77-5.205 0-3.105-1.566-4.17-5.085-4.613-2.335-.296-2.75-.503-2.75-1.301 0-1.183.71-1.301 2.13-1.301 1.537 0 3.281.325 4.464.65zm-22.854-1.745c.62 2.189 1.508 4.998 2.454 7.807h-5.913c.946-2.868 1.892-5.648 2.69-7.807zm5.558 16.472h5.263c-2.218-5.382-5.292-14.165-7.244-20.612h-7.361c-2.365 5.796-5.588 14.845-7.303 20.612h5.085c.355-1.272.799-2.839 1.33-4.554h8.486a98.49 98.49 0 0 0 1.744 4.554zm120.138-12.15a13.573 13.573 0 0 0-4.363-.772c-2.167 0-3.265.267-3.265 2.226 0 1.247.83 1.751 3.413 1.989 3.77.326 5.402 1.513 5.402 4.392 0 3.77-2.196 4.897-6.114 4.897-1.544 0-3.948-.296-5.402-.801l.682-2.374c1.069.445 3.117.801 4.66.801 2.197 0 3.325-.326 3.325-2.315 0-1.336-.713-1.959-3.473-2.196-3.473-.297-5.373-1.217-5.373-4.156 0-3.74 2.345-4.837 6.204-4.837 1.514 0 3.413.296 5.016.771zM154.86 83.394h-2.79V69.177c1.721-.742 4.482-1.246 6.589-1.246 4.304 0 6.025 1.573 6.025 7.034v8.429h-2.79V75.32c0-3.948-.801-4.808-3.799-4.808-1.217 0-2.196.118-3.235.415zm-6.797-19.56c0 1.425-.416 1.663-1.663 1.663-1.276 0-1.691-.238-1.691-1.662 0-1.306.415-1.484 1.691-1.484 1.247 0 1.663.178 1.663 1.484zm-.297 19.56h-2.79V68.346h2.79zm-9.795-7.064c-.95-.237-2.226-.326-3.503-.326-2.552 0-3.413.267-3.413 2.611 0 2.523.683 2.909 3.384 2.909 1.246 0 2.523-.237 3.532-.594zm2.73 6.292c-1.78.742-4.422 1.187-6.44 1.187-4.542 0-6.233-1.127-6.233-5.045 0-4.274 2.493-4.957 5.936-4.957 1.425 0 2.582.149 4.007.445 0-3.146-.802-3.858-4.096-3.858-1.544 0-3.235.237-4.452.712l-.594-2.433c1.336-.357 3.384-.742 5.491-.742 4.423 0 6.382 1.305 6.382 5.847zm-22.795-14.276h2.79v1.098c.564-.771 1.9-1.513 4.037-1.513.505 0 1.039.03 1.543.089v2.73a10.42 10.42 0 0 0-1.75-.148c-2.02 0-3.83.593-3.83 1.84v10.952h-2.79zm-8.786 4.007c3.918.178 4.69 2.315 4.69 5.283 0 3.947-1.93 5.758-5.254 5.758H97.782V62.707h10.537c4.126 0 4.987 2.107 4.987 4.927 0 2.582-.505 4.392-4.186 4.719zm-8.34-1.158h7.094c1.721 0 2.256-1.335 2.256-3.027 0-1.87-.505-2.909-2.256-2.909h-7.094zm7.331 9.646c1.81 0 2.464-1.335 2.464-3.472 0-2.226-.802-3.71-2.582-3.71h-7.213v7.182z"/><path fill="url(#a)" d="M40.793 9.521a6.347 6.347 0 1 1 10.993-6.347 6.347 6.347 0 0 1-10.993 6.347zm44.921 14.007A6.346 6.346 0 1 1 89 11.268a6.346 6.346 0 0 1-3.285 12.26zM4.317 30.581a6.347 6.347 0 1 1 10.992-6.347A6.347 6.347 0 0 1 4.317 30.58zm39.243 5.657a7.212 7.212 0 1 1 12.491-7.212 7.212 7.212 0 0 1-12.491 7.212zm25.83 9.199a7.212 7.212 0 1 1 3.734-13.933 7.212 7.212 0 0 1-3.733 13.933zm-12.508 3.219h-.001l-.002-.001a4.553 4.553 0 0 1-2.796-2.168 4.682 4.682 0 0 1-.45-3.547 4.695 4.695 0 0 1 2.041-2.772c.118-.08.239-.152.36-.218.532-.285 1.334-.89 2.143-2.151.512-.8.83-1.558.92-1.873l.05-.169c.255-.83 1.03-3.353-.208-5.93-.352-.86-1.105-1.86-1.832-2.825-.635-.842-1.234-1.638-1.567-2.325-.11-.227-.214-.451-.312-.667a11.133 11.133 0 0 1-1.105-3.154c-.149-.668-.168-1.093-.166-1.287a11.21 11.21 0 0 1 .36-3.699 11.172 11.172 0 0 1 5.135-6.76 10.914 10.914 0 0 1 3.982-1.4 10.756 10.756 0 0 1 4.348.262c1.43.383 2.74 1.038 3.895 1.947a10.922 10.922 0 0 1 2.75 3.203 11.083 11.083 0 0 1 1.355 4.021c.197 1.471.1 2.952-.288 4.402a11.237 11.237 0 0 1-1.538 3.383c-.095.168-.325.527-.787 1.03a11.12 11.12 0 0 1-2.535 2.18c-.192.138-.395.28-.603.422-.633.428-1.55.818-2.52 1.23-1.112.473-2.264.962-2.999 1.53-2.36 1.613-2.951 4.186-3.146 5.032a7.707 7.707 0 0 1-.04.17c-.08.318-.184 1.135-.14 2.083.07 1.497.463 2.422.78 2.934.072.118.141.242.203.37a4.689 4.689 0 0 1 .381 3.42 4.683 4.683 0 0 1-2.162 2.847 4.575 4.575 0 0 1-2.32.637 4.58 4.58 0 0 1-1.186-.157zm-31.1-35.132a10.76 10.76 0 0 1 4.132-1.377 11.083 11.083 0 0 1 8.01 2.205 11.184 11.184 0 0 1 2.909 3.316 11.234 11.234 0 0 1 1.305 3.48c.051.187.143.602.172 1.286.085 1.118 0 2.24-.251 3.333a28.2 28.2 0 0 1-.129.725c-.144.75-.517 1.673-.911 2.65-.453 1.122-.922 2.282-1.039 3.204-.529 2.81.873 5.047 1.333 5.782l.093.15c.167.281.672.931 1.373 1.571 1.108 1.01 2.04 1.386 2.626 1.524.135.031.271.07.405.117a4.694 4.694 0 0 1 2.689 2.15 4.682 4.682 0 0 1 .484 3.541A4.553 4.553 0 0 1 46.843 50h-.001zm17.547 36.921a4.681 4.681 0 0 1-2.825-2.19 4.696 4.696 0 0 1-.517-3.403c.027-.14.06-.277.1-.41.175-.576.314-1.571-.006-3.035-.203-.928-.514-1.69-.674-1.975l-.083-.155c-.406-.767-1.643-3.1-4.34-4.046-.858-.36-2.096-.534-3.294-.702-1.044-.147-2.03-.286-2.752-.536-.237-.083-.47-.168-.692-.251a11.126 11.126 0 0 1-3.012-1.45c-.577-.366-.891-.653-1.027-.791a11.236 11.236 0 0 1-2.362-2.87 11.172 11.172 0 0 1-1.148-8.412 10.912 10.912 0 0 1 1.826-3.805 10.763 10.763 0 0 1 3.259-2.89L46.842 50h-.002a4.538 4.538 0 0 1-2.276.613c-.411 0-.826-.055-1.235-.168zm-18.757-3.244a7.212 7.212 0 1 1 12.492-7.212A7.212 7.212 0 0 1 24.572 47.2zm43.38 9.704a4.552 4.552 0 0 1-2.819-2.14v-.001l-.001-.001a4.552 4.552 0 0 1-.445-3.511 4.68 4.68 0 0 1 2.19-2.826 4.695 4.695 0 0 1 3.404-.517c.139.027.276.06.409.1.577.174 1.572.314 3.036-.006.927-.203 1.689-.514 1.975-.674l.154-.083c.767-.406 3.1-1.643 4.046-4.34.36-.858.534-2.096.702-3.294.147-1.044.286-2.03.537-2.752.083-.238.167-.47.25-.692.33-1.073.817-2.086 1.45-3.012.367-.577.654-.891.792-1.027a11.237 11.237 0 0 1 2.87-2.362 11.172 11.172 0 0 1 8.411-1.148c1.388.361 2.668.976 3.805 1.826a10.75 10.75 0 0 1 2.89 3.259 10.761 10.761 0 0 1 1.377 4.132 11.081 11.081 0 0 1-2.206 8.01 11.18 11.18 0 0 1-3.315 2.91 11.24 11.24 0 0 1-3.48 1.304c-.186.051-.602.143-1.285.172-1.118.085-2.24 0-3.334-.251a27.693 27.693 0 0 1-.724-.13c-.75-.143-1.674-.516-2.651-.91-1.122-.453-2.282-.922-3.204-1.04-2.81-.528-5.047.874-5.782 1.334l-.15.093c-.28.168-.931.672-1.57 1.373-1.01 1.108-1.386 2.04-1.524 2.626a4.318 4.318 0 0 1-.117.405 4.695 4.695 0 0 1-2.15 2.689 4.703 4.703 0 0 1-3.542.484zM.371 47.48a10.76 10.76 0 0 1 1.948-3.896 11.095 11.095 0 0 1 7.223-4.104 11.174 11.174 0 0 1 4.402.287 11.26 11.26 0 0 1 3.383 1.538c.169.096.527.325 1.031.787.85.731 1.584 1.584 2.18 2.535.138.192.28.395.421.604.429.632.818 1.548 1.23 2.519.473 1.113.962 2.264 1.53 3 1.613 2.36 4.187 2.95 5.032 3.145l.171.04c.318.08 1.134.184 2.083.14 1.496-.07 2.421-.462 2.934-.78.117-.072.242-.14.369-.203a4.697 4.697 0 0 1 3.421-.381 4.684 4.684 0 0 1 2.847 2.162 4.554 4.554 0 0 1 .479 3.506v.001L.372 47.48zm40.684 10.9v.002a4.551 4.551 0 0 1-2.169 2.797 4.666 4.666 0 0 1-3.546.449 4.696 4.696 0 0 1-2.773-2.041 4.27 4.27 0 0 1-.217-.36c-.285-.531-.89-1.334-2.152-2.143-.8-.512-1.558-.83-1.873-.92a9.953 9.953 0 0 1-.168-.05c-.83-.255-3.354-1.03-5.93.208-.86.352-1.86 1.105-2.826 1.833-.842.634-1.637 1.233-2.325 1.566-.226.11-.45.214-.667.312-.991.526-2.052.898-3.154 1.106-.668.148-1.093.167-1.287.165a11.233 11.233 0 0 1-3.698-.359 11.177 11.177 0 0 1-3.956-1.952A11.088 11.088 0 0 1 .11 51.827a10.764 10.764 0 0 1 .26-4.348l40.685 10.902zm-17.98 14.11a7.213 7.213 0 1 1 3.734-13.933 7.213 7.213 0 0 1-3.735 13.933z"/></svg>