<svg xmlns="http://www.w3.org/2000/svg" width="165" height="143" viewBox="0 0 165 143"><path fill="#baf4ee" d="M42.201 114.88c-21.7-21.7-21.7-56.885 0-78.587 21.702-21.7 56.886-21.7 78.587 0 21.701 21.702 21.701 56.886 0 78.587-21.7 21.702-56.885 21.702-78.587 0z"/><path fill="#7fd6cb" d="M126.88 88.944v18.683a55.903 55.903 0 0 1-6.896 8.02V88.945h-.01v-.063c-.032-.139-3.384-2.918-5.963-5.03v-1.166l3.12-.807a5.934 5.934 0 0 1 3.83.297c.54.234 1.103.457 1.665.637v2.44c2.578 2.111 4.212 3.49 4.244 3.629v.063z" opacity=".73"/><path fill="#ffb031" d="M2.406 4.29l16.307 38.262 11.919-8.153 6.906 10.036 1.247-16.93 14.424-8.79z"/><path fill="#ff9433" d="M33.274 32.587l-14.561 9.965 11.919-8.153 6.907 10.036 1.246-16.93L15.8 13.816z"/><path fill="#f73" d="M38.48 31.654L15.8 13.816l22.985 13.688z"/><path fill="#00c8b7" d="M37.83 49.207a25.22 25.22 0 0 0-.484-2.211l1.119-.3c.201.756.372 1.534.507 2.313zm1.103 9.267l-1.14-.202c.265-1.496.403-3.022.41-4.533l1.159.006a27.997 27.997 0 0 1-.429 4.73zm-7.924.682a18.39 18.39 0 0 0-4.012-.443l-.47.005-.028-1.157a19.63 19.63 0 0 1 4.763.466zm-12.752 2.26l-.81-.827c1.02-.998 2.413-1.746 4.26-2.286l.39 1.092c-1.701.498-2.971 1.17-3.84 2.021zm20.814 1.741c-1.065-.776-2.209-1.59-3.447-2.267l-.387-.205.53-1.03c.139.07.276.145.413.22 1.298.71 2.525 1.583 3.573 2.347zm49.72 1.525zm-.356-1.101a163.92 163.92 0 0 0 4.391-1.493l.388 1.091c-1.466.52-2.94 1.023-4.422 1.503zm-8.638 3.665l-.272-1.125a113.55 113.55 0 0 0 4.477-1.186l.319 1.113c-1.54.44-3.06.843-4.524 1.198zm-44.08.129l-1.005-.577a25.994 25.994 0 0 0 1.91-4.128l1.088.392a27.258 27.258 0 0 1-1.994 4.313zm11.551.46a22.418 22.418 0 0 1-3.792-1.68 19.428 19.428 0 0 1-.54-.316l.598-.991c.168.101.338.201.51.298a21.267 21.267 0 0 0 3.597 1.594zm23.33 1.17l-.156-1.147a84.34 84.34 0 0 0 4.56-.752l.22 1.136c-1.558.3-3.114.558-4.624.763zm-14.05.527l-.739-.057a44.596 44.596 0 0 1-3.941-.492l.196-1.14c1.196.206 2.453.363 3.841.479l.724.054zm4.696.152l-.006-1.158a67.458 67.458 0 0 0 4.611-.183l.085 1.154c-1.578.117-3.156.18-4.69.187zm-44.786.264a9.544 9.544 0 0 1-.991-4.558l.014-.25 1.154.084-.011.21a8.372 8.372 0 0 0 .872 4zm12.678 4.303l-.51-1.038c1.204-.593 2.368-1.51 3.462-2.727l.861.773c-1.192 1.328-2.476 2.336-3.813 2.992zm-4.808.944a9.566 9.566 0 0 1-4.649-1.55l.64-.965a8.415 8.415 0 0 0 4.085 1.36zm73.316-13.648l-.411-1.082c.72-.275 1.44-.553 2.158-.835l.42 1.08c-.72.28-1.442.56-2.167.837zm36.442 28.211a1.158 1.158 0 0 1-.111-2.309c6.996-.678 13.431-4.018 18.122-9.404a1.157 1.157 0 1 1 1.745 1.52c-5.08 5.835-12.056 9.453-19.643 10.188a1.213 1.213 0 0 1-.113.005z"/><path fill="#7a4c08" d="M119.978 88.945l-40.327 23.781-40.327-23.781c0-.02 0-.046.006-.065.033-.151 2.26-2.01 5.654-4.768.032-.025.059-.051.092-.078 11.135-9.041 34.575-27.556 34.575-27.556s23.44 18.515 34.575 27.556c3.447 2.797 5.713 4.688 5.746 4.846.006.02.006.045.006.065z"/><path fill="#fff" d="M96.236 36.783h-43.51a6.758 6.758 0 0 0-6.758 6.757v65.787a6.757 6.757 0 0 0 6.758 6.757h54.52a6.757 6.757 0 0 0 6.757-6.757V54.55z"/><path fill="#e6e8e8" d="M96.236 47.793a6.757 6.757 0 0 0 6.758 6.757h11.009L96.236 36.783z"/><path fill="#82ebe3" d="M56.26 50.6c0-1.349 1.348-2.697 2.697-2.697h14.432c1.348 0 2.696 1.348 2.696 2.697v14.432c0 1.348-1.348 2.696-2.696 2.696H58.957c-1.349 0-2.697-1.348-2.697-2.696z"/><path fill="#d9dbdb" d="M94.242 73.238H58.223a1.94 1.94 0 0 0 0 3.88h36.019a1.94 1.94 0 0 0 0-3.88zm0 9.662H58.223a1.94 1.94 0 0 0 0 3.88h36.019a1.94 1.94 0 0 0 0-3.88zm-16.358 9.372H58.223a1.94 1.94 0 0 0 0 3.88h19.661a1.94 1.94 0 0 0 0-3.88z"/><path fill="#ffb031" d="M119.982 88.944v38.689a4.927 4.927 0 0 1-4.914 4.913H44.23c-2.705 0-4.901-2.21-4.901-4.913V88.944l40.326 23.777z"/><path fill="#ff9433" d="M118.62 131.007L92.663 105.05l-13.009 7.67-13.013-7.673-25.958 25.958a4.87 4.87 0 0 0 3.546 1.54h70.838a4.89 4.89 0 0 0 3.552-1.54z"/><path fill="#00c8b7" d="M128.127 35.834c-11.609 1.14-20.884 10.708-21.713 22.343a24.056 24.056 0 0 0 4.25 15.52c1.138 1.64 1.324 3.758.56 5.6l-1.915 4.61 7.825-2.029a5.899 5.899 0 0 1 3.831.297 24.175 24.175 0 0 0 12.006 1.875c11.395-1.103 20.615-10.305 21.715-21.7 1.477-15.286-11.267-28.017-26.559-26.516z"/><path fill="#fff" d="M131.176 72.182l1.332-1.33s-1.057-2.494 3.377-6.696c2.638-2.502 3.23-4.925 3.014-6.904-.34-3.153-2.916-5.727-6.068-6.07-1.98-.213-4.403.377-6.904 3.016-4.203 4.434-6.695 3.376-6.695 3.376l-1.332 1.332zm-10.272-8.132a3.672 3.672 0 0 0 .364 4.764 3.673 3.673 0 0 0 4.764.364zM139.83 52.8l-.83.829a8.017 8.017 0 0 0-2.555-2.543l.836-.836a1.805 1.805 0 0 1 2.555 0c.7.7.7 1.842-.006 2.55z"/><path fill="#08b29d" d="M129.925 35.73c8.629 2.583 14.922 10.576 14.922 20.046 0 11.56-9.372 20.932-20.932 20.932-6.09 0-11.555-2.617-15.38-6.768a24.208 24.208 0 0 0 2.129 3.758c1.138 1.638 1.324 3.757.56 5.6l-1.915 4.61 7.825-2.03a5.899 5.899 0 0 1 3.831.297 24.185 24.185 0 0 0 12.006 1.875c11.395-1.103 20.615-10.305 21.715-21.7 1.419-14.683-10.285-26.999-24.76-26.62z"/><path fill="#ffb031" d="M3.788 15.636l5.29 12.138a1.22 1.22 0 0 1-.636 1.605l-.188.082a1.22 1.22 0 0 1-1.608-.646l-5.1-12.22a1.219 1.219 0 1 1 2.242-.96z"/><path fill="#baf4ee" d="M24.51 106.517a1.574 1.574 0 1 1-.001-3.148 1.574 1.574 0 0 1 0 3.148zm0-5.462a3.888 3.888 0 1 0-.002 7.776 3.888 3.888 0 0 0 .002-7.776zm104.207 21.199a1.575 1.575 0 1 1 0-3.15 1.575 1.575 0 0 1 0 3.15zm0-5.463a3.888 3.888 0 1 0-.002 7.776 3.888 3.888 0 0 0 .002-7.776zm31.815-56.217a1.205 1.205 0 1 1 0-2.41 1.205 1.205 0 0 1 0 2.41zm0-4.183a2.977 2.977 0 1 0 .001 5.955 2.977 2.977 0 0 0 0-5.955zm-52.428-43.208a1.274 1.274 0 1 1-.001-2.548 1.274 1.274 0 0 1 0 2.548zm0-4.422a3.148 3.148 0 1 0 0 6.296 3.148 3.148 0 0 0 0-6.296zM7.402 82.113a3.31 3.31 0 1 0 0 6.62 3.31 3.31 0 0 0 0-6.62zM140.199 93.07a2.407 2.407 0 1 0 0 4.814 2.407 2.407 0 0 0 0-4.814zM60.476 9.75a3.519 3.519 0 1 0 0 7.038 3.519 3.519 0 0 0 0-7.038zm18.836 127.452a2.564 2.564 0 1 0 0 5.128 2.564 2.564 0 0 0 0-5.128zm49.629-113.881a3.01 3.01 0 1 0 .001 6.02 3.01 3.01 0 0 0 0-6.02zM20.637 48.43a1.713 1.713 0 1 1 3.426 0 1.713 1.713 0 0 1-3.426 0zm140.935-7.046a2.923 2.923 0 1 0 0 5.845 2.923 2.923 0 0 0 0-5.845zM3.896 58.713a1.865 1.865 0 1 1 3.73 0 1.865 1.865 0 0 1-3.73 0zM84.147 3.499l1.172-1.171a1.047 1.047 0 0 0 0-1.477 1.046 1.046 0 0 0-1.476 0l-1.171 1.171-1.171-1.17a1.047 1.047 0 0 0-1.476 0 1.047 1.047 0 0 0 0 1.476l1.17 1.17-1.17 1.172a1.047 1.047 0 0 0 0 1.476c.405.406 1.07.406 1.476 0l1.171-1.17 1.171 1.17c.405.406 1.07.406 1.476 0a1.047 1.047 0 0 0 0-1.476zM4.428 38.89L5.6 37.72a1.047 1.047 0 0 0 0-1.476 1.047 1.047 0 0 0-1.476 0l-1.171 1.17-1.171-1.17a1.047 1.047 0 0 0-1.477 0 1.047 1.047 0 0 0 0 1.476l1.172 1.171-1.172 1.171a1.047 1.047 0 0 0 0 1.477 1.05 1.05 0 0 0 1.477 0l1.17-1.172 1.172 1.172c.406.405 1.07.405 1.476 0a1.047 1.047 0 0 0 0-1.477zm138.126 71.512l.993-.992a.887.887 0 0 0 0-1.25.887.887 0 0 0-1.25 0l-.992.991-.992-.991a.887.887 0 0 0-1.25 0 .886.886 0 0 0 0 1.25l.991.992-.991.992a.886.886 0 0 0 0 1.25.887.887 0 0 0 1.25 0l.992-.991.991.991a.887.887 0 0 0 1.25 0 .887.887 0 0 0 0-1.25z"/></svg>