<svg xmlns="http://www.w3.org/2000/svg" width="1082" height="764" viewBox="0 0 1082 764"><path fill="#e2eeff" d="M428.147 100.738c-18.393-31.84-7.478-72.554 24.38-90.937 31.856-18.383 72.59-7.474 90.984 24.367 18.392 31.84 7.477 72.553-24.38 90.936-10.488 6.052-21.942 8.93-33.24 8.93-23.02.002-45.407-11.938-57.744-33.296zm471.43 146.923c-35.532-9.516-56.618-46.02-47.098-81.533 9.522-35.513 46.043-56.588 81.575-47.072 35.532 9.515 56.618 46.018 47.098 81.532-7.974 29.74-34.889 49.355-64.295 49.357a66.696 66.696 0 0 1-17.28-2.284zm-854.23 73.97c-18.393-31.84-7.478-72.554 24.38-90.937 31.856-18.383 72.59-7.474 90.984 24.366 18.392 31.841 7.478 72.554-24.38 90.937-10.488 6.052-21.942 8.93-33.24 8.93-23.02.001-45.407-11.939-57.744-33.297zm411.837 59.345c-20.9-36.182-8.497-82.448 27.704-103.338 36.201-20.889 82.49-8.492 103.392 27.69 20.9 36.182 8.497 82.447-27.704 103.337-11.919 6.878-24.934 10.147-37.774 10.148-26.159.001-51.598-13.567-65.618-37.837zm271.085 96.482c-40.378-10.813-64.34-52.295-53.52-92.65 10.82-40.356 52.322-64.304 92.699-53.491 40.377 10.813 64.339 52.294 53.52 92.65-9.061 33.796-39.646 56.085-73.063 56.087a75.793 75.793 0 0 1-19.636-2.596zm-131.275 33.76l-.007-.003-.002.003-.005-.002h-.005v-.004l-.01-.003c-12.491-3.344-22.912-11.421-29.347-22.741-6.438-11.322-8.112-24.532-4.717-37.198 3.25-12.125 10.858-22.453 21.419-29.08a44.735 44.735 0 0 1 3.782-2.283c5.572-2.99 13.995-9.333 22.482-22.566 5.376-8.385 8.72-16.342 9.656-19.648.135-.47.319-1.07.53-1.765 2.674-8.7 10.804-35.174-2.187-62.202-3.694-9.021-11.593-19.501-19.231-29.636-6.657-8.832-12.943-17.174-16.438-24.384a303.114 303.114 0 0 1-3.275-6.994 116.729 116.729 0 0 1-11.6-33.087c-1.558-7.007-1.76-11.463-1.743-13.493-.91-13.011.358-26.064 3.772-38.798 4.076-15.203 10.966-29.163 20.483-41.492a116.316 116.316 0 0 1 33.413-29.417c12.977-7.611 27.04-12.546 41.793-14.675 15.274-2.204 30.624-1.283 45.626 2.734 15.002 4.018 28.756 10.891 40.88 20.433 11.713 9.217 21.42 20.518 28.853 33.594a116.245 116.245 0 0 1 14.221 42.174c2.07 15.432 1.058 30.966-3.018 46.169-3.414 12.735-8.846 24.673-16.142 35.485-1.002 1.767-3.406 5.526-8.26 10.815a116.82 116.82 0 0 1-26.598 22.857 297.053 297.053 0 0 1-6.336 4.42c-6.633 4.499-16.253 8.58-26.436 12.902-11.682 4.96-23.766 10.09-31.478 16.057-24.772 16.915-30.975 43.904-33.015 52.774-.161.709-.302 1.32-.42 1.794-.843 3.33-1.929 11.893-1.467 21.84.727 15.702 4.85 25.404 8.18 30.778a45.031 45.031 0 0 1 2.134 3.867c5.832 11.018 7.252 23.764 4.001 35.889-3.395 12.665-11.456 23.267-22.693 29.858-7.533 4.416-15.892 6.675-24.346 6.675-4.156 0-8.333-.545-12.449-1.647zm-326.38-368.494c13.451-7.761 28.04-12.621 43.364-14.443 14.802-1.76 29.662-.63 44.169 3.363a116.346 116.346 0 0 1 39.892 19.772c12.382 9.449 22.656 21.149 30.53 34.779 6.595 11.417 11.2 23.698 13.69 36.5.542 1.958 1.501 6.314 1.811 13.484a116.666 116.666 0 0 1-2.637 34.961c-.403 2.45-.857 5.01-1.353 7.603-1.508 7.87-5.421 17.553-9.564 27.806-4.751 11.764-9.667 23.93-10.9 33.6-5.549 29.468 9.16 52.937 13.993 60.65.387.616.72 1.148.971 1.566 1.76 2.95 7.05 9.772 14.415 16.481 11.622 10.587 21.403 14.533 27.558 15.98 1.411.335 2.841.746 4.246 1.227 11.917 3.67 21.94 11.68 28.22 22.55 6.56 11.356 8.36 24.55 5.076 37.15-3.284 12.6-11.261 23.097-22.46 29.56l-.008.004.002.003-.005.002-221.01-382.598zm184.154 387.264c-12.563-3.457-23.092-11.614-29.652-22.97-6.28-10.87-8.208-23.55-5.43-35.7a44.764 44.764 0 0 1 1.06-4.288c1.825-6.052 3.294-16.49-.067-31.844-2.13-9.729-5.397-17.718-7.072-20.718-.238-.428-.533-.98-.874-1.622-4.265-8.042-17.246-32.507-45.554-42.438-8.995-3.768-21.994-5.597-34.566-7.365-10.955-1.54-21.3-2.995-28.873-5.625a297.178 297.178 0 0 1-7.265-2.63 116.809 116.809 0 0 1-31.612-15.199c-6.058-3.853-9.353-6.861-10.778-8.309-9.847-8.557-18.185-18.682-24.781-30.1-7.873-13.631-12.877-28.372-14.871-43.816a116.2 116.2 0 0 1 2.815-44.415c3.791-14.552 10.243-27.98 19.17-39.913 9.241-12.353 20.746-22.55 34.196-30.312l221.01 382.598-.004.003-.002-.003a.029.029 0 0 1-.01.005c-7.373 4.255-15.564 6.426-23.883 6.426-4.317 0-8.667-.584-12.957-1.765zm-196.85-34.027c-20.9-36.182-8.498-82.447 27.704-103.337 36.2-20.89 82.491-8.493 103.391 27.69 20.902 36.18 8.498 82.447-27.703 103.336-11.918 6.878-24.934 10.147-37.773 10.148-26.16.001-51.6-13.567-65.619-37.837zM713.16 597.743c-12.605-3.283-23.109-11.256-29.574-22.45l-.004-.007-.004.001-.002-.004-.003-.004.003-.003-.005-.008c-6.467-11.194-8.122-24.27-4.664-36.822 3.46-12.556 11.62-23.08 22.982-29.636 10.877-6.276 23.563-8.204 35.72-5.426 1.456.285 2.9.64 4.29 1.059 6.055 1.823 16.499 3.29 31.861-.068 9.733-2.13 17.728-5.393 20.728-7.068.428-.238.982-.532 1.624-.874 8.045-4.262 32.524-17.237 42.46-45.53 3.77-8.99 5.599-21.982 7.369-34.547 1.54-10.95 2.998-21.29 5.628-28.858a296.611 296.611 0 0 1 2.632-7.261 116.745 116.745 0 0 1 15.205-31.596c3.856-6.054 6.866-9.348 8.314-10.772 8.562-9.842 18.693-18.176 30.117-24.767 13.638-7.87 28.386-12.871 43.838-14.864a116.399 116.399 0 0 1 44.438 2.813c14.56 3.79 27.996 10.239 39.935 19.16 12.36 9.236 22.562 20.736 30.328 34.18 7.765 13.443 12.628 28.023 14.451 43.338 1.76 14.796.63 29.647-3.365 44.147a116.26 116.26 0 0 1-19.782 39.871c-9.455 12.377-21.16 22.644-34.798 30.514-11.424 6.592-23.71 11.195-36.52 13.683-1.957.542-6.316 1.5-13.49 1.81a116.892 116.892 0 0 1-34.98-2.635 300.405 300.405 0 0 1-7.607-1.352c-7.873-1.508-17.562-5.42-27.82-9.56-11.771-4.75-23.943-9.662-33.618-10.893-29.483-5.548-52.965 9.153-60.683 13.984-.615.387-1.147.719-1.567.97-2.951 1.76-9.776 7.048-16.489 14.409-10.592 11.616-14.541 21.391-15.989 27.543a45.36 45.36 0 0 1-1.227 4.243c-3.672 11.911-11.686 21.929-22.562 28.205-7.654 4.417-16.144 6.675-24.724 6.675a49.38 49.38 0 0 1-12.446-1.6zM3.95 498.88c4.02-14.993 10.897-28.74 20.443-40.858 9.222-11.706 20.529-21.408 33.612-28.838a116.395 116.395 0 0 1 42.196-14.213c15.441-2.07 30.984-1.056 46.193 3.016 12.742 3.414 24.687 8.842 35.505 16.135 1.768 1 5.528 3.403 10.82 8.254a116.774 116.774 0 0 1 22.87 26.585 296.772 296.772 0 0 1 4.422 6.333c4.5 6.63 8.585 16.244 12.908 26.422 4.964 11.676 10.095 23.752 16.065 31.46 16.924 24.76 43.93 30.96 52.804 32.998.708.161 1.32.302 1.794.422 3.332.841 11.9 1.925 21.853 1.465 15.708-.728 25.416-4.85 30.793-8.177a45.676 45.676 0 0 1 3.87-2.133c11.022-5.827 23.776-7.247 35.907-3.998 12.672 3.393 23.28 11.45 29.873 22.68 6.59 11.23 8.377 24.292 5.03 36.776 0 0 0 .005-.002.009h.003l-.002.005-74.46-19.941zm426.957 114.343v.006l-.004-.002-.002.011c-3.348 12.485-11.428 22.9-22.753 29.333-7.496 4.256-15.82 6.43-24.263 6.43-4.318 0-8.667-.568-12.955-1.717-12.131-3.248-22.465-10.852-29.097-21.407a44.818 44.818 0 0 1-2.284-3.78c-2.991-5.57-9.338-13.988-22.577-22.47-8.39-5.373-16.35-8.715-19.658-9.652-.47-.133-1.07-.317-1.765-.528-8.705-2.673-35.193-10.798-62.236 2.186-9.026 3.692-19.512 11.587-29.652 19.22-8.837 6.653-17.182 12.936-24.396 16.428-2.38 1.15-4.734 2.25-6.998 3.275a116.843 116.843 0 0 1-33.105 11.594c-7.01 1.556-11.468 1.759-13.501 1.741-13.017.91-26.076-.358-38.818-3.77-15.211-4.073-29.178-10.96-41.514-20.472a116.326 116.326 0 0 1-29.433-33.395c-7.613-12.97-12.551-27.025-14.682-41.772C-.991 529.216-.07 513.875 3.95 498.88l352.497 94.402 74.46 19.941zM242.214 761.215c-40.378-10.813-64.34-52.295-53.52-92.65 10.819-40.356 52.322-64.305 92.698-53.492 40.378 10.813 64.34 52.295 53.52 92.65-9.06 33.797-39.644 56.086-73.061 56.088a75.8 75.8 0 0 1-19.637-2.596z" opacity=".29"/></svg>