<svg xmlns="http://www.w3.org/2000/svg" width="14" height="15" viewBox="0 0 14 15"><path fill="#6f8eba" d="M8.38 9.563a.73.73 0 0 0-.55.25l-2.94 2.395v-1.922a.729.729 0 0 0-.73-.729H2.68A1.23 1.23 0 0 1 1.452 8.33V2.68A1.23 1.23 0 0 1 2.68 1.453h8.042a1.23 1.23 0 0 1 1.227 1.227v5.656a1.23 1.23 0 0 1-1.227 1.227H8.38zM13.4 2.68A2.684 2.684 0 0 0 10.72 0H2.68A2.684 2.684 0 0 0 0 2.68v5.656a2.684 2.684 0 0 0 2.679 2.68h.765v2.212a1.074 1.074 0 0 0 1.89.7l3.385-2.919h2.008A2.674 2.674 0 0 0 13.4 8.336z"/><path fill="#6f8eba" d="M5.835 5.263a.865.865 0 1 1 1.73 0 .865.865 0 0 1-1.73 0zm2.898 0a.865.865 0 1 1 1.73 0 .865.865 0 0 1-1.73 0zm-5.797 0a.865.865 0 1 1 1.731 0 .865.865 0 0 1-1.73 0z"/></svg>