<svg xmlns="http://www.w3.org/2000/svg" width="15" height="16" viewBox="0 0 15 16"><path fill="#6f8eba" d="M2.755 11.544V9.231c0-2.783 2.162-5.048 4.82-5.048 2.658 0 4.82 2.265 4.82 5.048v2.313h-9.64zm4.958 2.74h-.276c-.82 0-1.523-.54-1.8-1.298h3.877c-.278.759-.98 1.299-1.801 1.299zM6.955 2.092c0-.357.278-.649.62-.649.342 0 .62.292.62.65 0 .357-.278.649-.62.649-.342 0-.62-.292-.62-.65zm6.817 9.453V9.231c0-2.927-1.86-5.408-4.407-6.214.132-.28.207-.593.207-.926C9.572.938 8.676 0 7.575 0S5.578.938 5.578 2.091c0 .333.075.647.207.926-2.548.806-4.408 3.287-4.408 6.214v2.313H.69c-.38 0-.689.323-.689.721 0 .399.308.721.689.721h3.515c.318 1.564 1.647 2.74 3.233 2.74h.276c1.586 0 2.915-1.176 3.233-2.74h3.515c.38 0 .689-.322.689-.72 0-.4-.309-.722-.689-.722z"/></svg>