<svg xmlns="http://www.w3.org/2000/svg" width="10" height="15" viewBox="0 0 10 15"><path fill="#e2eeff" d="M6.62 10.632H2.649V7.974h3.973c.731 0 1.324.595 1.324 1.329s-.593 1.329-1.324 1.329zm.442-5.759c0 .734-.593 1.329-1.324 1.329h-3.09V3.544h3.09c.731 0 1.324.595 1.324 1.33zm1.18 1.802c.634-.875.763-2.02.34-3.015A3.068 3.068 0 0 0 6.18 1.818V.886A.884.884 0 0 0 5.297 0a.884.884 0 0 0-.883.886v.886H3.53V.886A.884.884 0 0 0 2.648 0a.884.884 0 0 0-.882.886v.886H.883A.884.884 0 0 0 0 2.658c0 .49.395.886.883.886v7.088a.884.884 0 0 0-.883.886c0 .489.395.885.883.885h.883v.886c0 .49.395.886.882.886a.884.884 0 0 0 .883-.886v-.886h.883v.886c0 .49.395.886.883.886a.884.884 0 0 0 .882-.886v-.886h.442a3.084 3.084 0 0 0 2.971-2.248 3.099 3.099 0 0 0-1.35-3.48z"/></svg>