<svg xmlns="http://www.w3.org/2000/svg" width="16" height="13" viewBox="0 0 16 13"><path fill="#6f8cba" d="M16.039 1.952a6.348 6.348 0 0 1-1.818.498A3.173 3.173 0 0 0 15.612.7a6.324 6.324 0 0 1-2.01.768A3.164 3.164 0 0 0 8.21 4.354a8.982 8.982 0 0 1-6.52-3.306 3.162 3.162 0 0 0 .979 4.223 3.138 3.138 0 0 1-1.433-.396v.04a3.164 3.164 0 0 0 2.538 3.102 3.16 3.16 0 0 1-1.43.054 3.17 3.17 0 0 0 2.957 2.198 6.357 6.357 0 0 1-4.686 1.31A8.954 8.954 0 0 0 5.466 13c5.82 0 9.003-4.82 9.003-9 0-.139-.004-.274-.01-.41a6.431 6.431 0 0 0 1.58-1.637v-.001z"/></svg>