<svg xmlns="http://www.w3.org/2000/svg" width="14" height="14" viewBox="0 0 14 14"><path fill="#6f8eba" d="M8.41 5.373a3.216 3.216 0 0 0-4.548 0L.94 8.297a3.216 3.216 0 0 0 4.545 4.55l2.412-2.412a.23.23 0 0 0-.163-.393h-.092a3.866 3.866 0 0 1-1.47-.284.23.23 0 0 0-.25.05l-1.734 1.737a1.379 1.379 0 0 1-1.95-1.95L5.17 6.664a1.378 1.378 0 0 1 1.947 0 .942.942 0 0 0 1.291 0 .919.919 0 0 0 .267-.584.919.919 0 0 0-.267-.707z"/><path fill="#6f8eba" d="M12.84.942a3.216 3.216 0 0 0-4.548 0l-2.41 2.407a.23.23 0 0 0-.048.253.23.23 0 0 0 .216.14h.085a3.866 3.866 0 0 1 1.468.287.23.23 0 0 0 .25-.05l1.73-1.728a1.379 1.379 0 0 1 1.95 1.95L9.38 6.354l-.019.02-.753.749a1.378 1.378 0 0 1-1.948 0 .942.942 0 0 0-1.29 0 .919.919 0 0 0 0 1.296c.265.266.576.484.918.643.048.023.096.041.145.062.048.02.098.036.147.055.048.018.098.034.147.048l.135.037a3.02 3.02 0 0 0 .62.089h.174l.138-.016c.05-.002.103-.013.163-.013h.078l.158-.023.074-.014.133-.028h.025a3.215 3.215 0 0 0 1.491-.845L12.84 5.49a3.216 3.216 0 0 0 0-4.548z"/></svg>