<svg xmlns="http://www.w3.org/2000/svg" width="110" height="116" viewBox="0 0 110 116"><defs><linearGradient id="a" x1="8.25" x2="24.46" y1="13.31" y2="13.31" gradientUnits="userSpaceOnUse"><stop offset="0" stop-color="#ff9f55"/><stop offset="1" stop-color="#ffd255"/></linearGradient></defs><path fill="url(#a)" d="M16.352 18.499a5.199 5.199 0 1 1 0-10.397 5.199 5.199 0 0 1 0 10.397zm6.766-6.952a6.934 6.934 0 0 0-.743-1.79l.757-1.138-1.05-1.05-1.049-1.048-1.137.756a6.954 6.954 0 0 0-1.79-.743l-.27-1.338h-2.967l-.27 1.338a6.95 6.95 0 0 0-1.79.743l-1.138-.756-1.05 1.049-1.048 1.049.756 1.137a6.935 6.935 0 0 0-.743 1.791l-1.338.27v2.967l1.338.27a6.97 6.97 0 0 0 .743 1.79l-.756 1.137 1.049 1.05 1.049 1.049 1.137-.756a6.949 6.949 0 0 0 1.79.742l.27 1.338h2.968l.27-1.338a6.953 6.953 0 0 0 1.79-.742l1.137.756 1.05-1.05 1.049-1.049-.757-1.137a6.93 6.93 0 0 0 .743-1.79l1.338-.27v-2.968z"/><path fill="#dfe1e8" d="M102.931 1.258a6.29 6.29 0 0 1 6.282 6.283v28.892a6.29 6.29 0 0 1-6.282 6.282H55.434a6.29 6.29 0 0 1-6.282-6.282V7.54a6.29 6.29 0 0 1 6.282-6.283zm7.183 35.175V7.54c0-3.96-3.223-7.183-7.183-7.183H55.434c-3.96 0-7.183 3.222-7.183 7.183v28.892c0 3.96 3.223 7.183 7.183 7.183h47.497c3.96 0 7.183-3.222 7.183-7.183z"/><path fill="#eef0f7" d="M87.925 63.437c-.075-5.693 4.48-10.37 10.173-10.444 5.693-.075 10.37 4.48 10.444 10.173.075 5.693-4.48 10.37-10.173 10.444-5.693.075-10.37-4.48-10.444-10.173z"/><path fill="#949494" d="M98.234 67.412a.52.52 0 0 1-.52-.52V59.71a.52.52 0 0 1 1.039 0v7.183a.52.52 0 0 1-.52.52z"/><path fill="#949494" d="M101.825 63.821h-7.183a.52.52 0 0 1 0-1.039h7.183a.519.519 0 1 1 0 1.039z"/><path fill="#ffbf55" d="M68.107 29.074c0-2.207 2.207-4.414 4.414-4.414h.843c2.206 0 4.413 2.207 4.413 4.413v.843c0 2.207-2.207 4.414-4.414 4.414h-.842c-2.207 0-4.414-2.207-4.414-4.414z"/><path fill="#f3f3f3" d="M72.636 31.625l-2.444-2.131a.481.481 0 1 1 .633-.726l1.728 1.507 2.465-2.75a.482.482 0 1 1 .717.644z"/><path fill="#131c24" d="M75.96 95.167s-.492 1.106-.907 1.544c-.415.438-2.002 1.221-2.01 2.523-.01 1.41 2.675 1.02 3.726.967 1.05-.05 1.13-.805 1.572-1.604.442-.799.888-.663.97-1.308.083-.644-.338-2.087-.338-2.087z"/><path fill="#4f4946" d="M75.914 94.76l-.077.668s1.652.554 3.213.058l-.087-.914z"/><path fill="#131c24" d="M95.324 95.167s.491 1.106.906 1.544c.415.438 2.003 1.221 2.011 2.523.01 1.41-2.676 1.02-3.727.967-1.05-.05-1.13-.805-1.571-1.604-.443-.799-.889-.663-.972-1.308-.082-.644.34-2.087.34-2.087z"/><path fill="#4f4946" d="M95.37 94.76l.077.668s-1.652.554-3.214.058l.087-.914z"/><path fill="#293e4f" d="M94.501 76.95c0 1.74 1.625 17.622 1.625 17.622-.187.58-4.174.509-4.795.22-.623-.29-2.43-16.03-2.545-17.785-.115-1.754-2.71-17.01-3.256-16.952-.545.059-3.13 16.407-3.565 17.74-.435 1.334-2.41 17.148-2.41 17.148-1.368.753-4.62-.19-4.62-.19s.682-16.235.76-16.726c.115-.726-.006-2.68.31-7.02.284-3.881 1.306-12.332 1.955-16.909l.067-.469.267-1.859.031-.208a7.34 7.34 0 0 1 .548-.208c4.555-1.526 13.225-1.428 13.225-1.428s.12 1.558.13 1.634c.01.092.029.236.052.423l.214 1.702.001.014.008.064c.306 2.482.74 6.116.699 6.494-.062.58 1.3 14.953 1.3 16.692z"/><path fill="#d9c7c1" d="M95.15 25.497l-2.238 8.028c-.077.26-.168.581-.265.953l-.004.015c-.001.003-.003.006-.003.01-.373 1.43-.835 3.612-.973 6.036-.093 1.652.213 8.294.213 8.294s-3.386 1.264-8.453.944c0 0-5.45-.128-5.006-3.47 1.176-8.844.026-12.49-.128-13.379 0 0-.644-4.075-1.174-7.674 1.534-.57 7.99-2.994 7.99-2.994l3.394.254s5.157 1.27 6.647 2.983z"/><path fill="#eea987" d="M86.811 10.91s3.313.56 2.751 5.746c-.562 5.186-3.486 4.728-3.682 4.72-.195-.006-2.94.063-3.086-6.278 0 0-.042-4.688 4.017-4.187z"/><path fill="#eea987" d="M88.262 19.873s-.114 2.135.088 2.6c.201.464-2.66 1.934-4.439.26 0 0 .36-2.333.248-3.157-.111-.824 4.103.297 4.103.297zm1.367-4.683s.368-.385.496.01c.13.394-.586 2.142-.542 2.222 0 0-.068.151-.154.067-.087-.086.2-2.3.2-2.3zm-6.797-.14s-.351-.4-.496-.01c-.146.388.384 2.134.45 2.242 0 0 .114.179.204.097.09-.08-.158-2.33-.158-2.33z"/><path fill="#e8734d" d="M89.84 14.749c-.113.71-.22 1.237-.22 1.237l-.483.63s.028-1.393-.045-1.611a4.155 4.155 0 0 1-.095-.389c-.055-.262-.112-.558-.15-.657-.063-.158-2.84-.969-5.313.17 0 0 .02.214.019.453 0 .278-.031.59-.159.636-.237.087-.138 1.63-.138 1.63l-.385-.445s-.112-.806-.222-1.732v-.007c-.025-.216-.051-.439-.075-.659-.055-.931.037-2.623 1.25-3.617.819-.35 3.055-.703 4.304.02 0 0 .67.415.81.55 1.356 1.493.903 3.791.903 3.791z"/><path fill="#c78d71" d="M84.387 20.683s.529.735 1.757.707c1.228-.028 1.762-.668 1.762-.668s-.582 1.216-1.768 1.203c-1.186-.013-1.75-1.242-1.75-1.242z"/><path fill="#eea987" d="M83.574 22.777s.888 1.546 2.572 1.692c1.069.092 1.985-1.266 2.42-1.93 0 0-2.385-1.021-4.992.238z"/><path fill="#eddad3" d="M88.266 22.053s-.677.887-2.12 1.837l.897 1.382 1.53-2.74zm-4.286.207s.861 1.08 2.166 1.63l-.984 1.423-1.711-2.431z"/><path fill="#5073ab" d="M86.146 23.89l.769 1.17s-.807.457-1.558-.03z"/><path fill="#1a2833" d="M78.236 50.378s4.156 1.533 13.556.09l-.125-1.703s-5.449 1.608-13.265.23z"/><path fill="#385369" d="M88.573 22.532s-.972 7.27-.838 13.533c.133 6.262 2.167 18.005 2.167 18.005s3.624-.355 4.524-1.488c0 0-2.08-11.302-2.02-12.977.059-1.675 2.665-14.272 2.665-14.272s-1.019-1.36-6.498-2.801zm-5.201.38s-.01 6.89-.142 13.153c-.134 6.262-.958 17.92-.958 17.92s-4.253-.606-5.153-1.738c0 0 1.5-10.967 1.44-12.642-.059-1.675-1.922-14.149-1.922-14.149s.644-.92 6.735-2.544z"/><path fill="#3e5e78" d="M83.904 51.188v-1.899h2.554v1.899z"/><path fill="#5073ab" d="M85.785 24.764s-1.14 3.893-1.24 11.625c-.1 7.732.14 9.949.14 9.949l.89 1.762 1.187-1.839s-.38-17.792-.16-21.362z"/><path fill="#eea886" d="M90.547 35.645s1.689-.849 1.922-.999c.235-.15 3.054-.567 3.41-.555.355.011.37.294.27.395-.1.1-2.919.563-2.967.63-.048.068.238.043.238.043s3.038-.047 3.25.157c.213.203-.031.396-.154.447 0 0 .276.318-.043.448-.32.131-.752.215-.752.215s.402.207.138.39c-.265.186-3.484 1.182-3.484 1.182s-1.197-2.288-1.828-2.353z"/><path fill="#385369" d="M96.348 41.463c-2.194.524-7.266-.326-9.198-.752-.41-.09-.872-.185-1.348-.278-.79-.155-1.616-.307-2.285-.426-.825-.147-1.415-.246-1.415-.246s10.644-2.39 11.037-2.39c.393 0-.983-6.223-.983-6.223s-1.37-5.21-.659-7.258c0 0 2.7.818 3.574 1.443.488.348.847 2.608 1.179 4.145.42 1.947 1.4 6.383 1.51 7.32.102.852.782 4.142-1.412 4.665z"/><path fill="#385369" d="M80.062 23.915s-3.269 1.117-3.425 1.541c-.661 1.796-.969 3.76-1.183 4.546-.26.961-.852 3.836-1.005 4.774-.193 1.195-.566 5.43-.403 6.084.204.825 2.148.765 3.196.602 1.048-.165 15.61-3.708 15.61-3.708s-.83-2.709-.873-2.948c0 0-11.225 1.283-12.655 1.588-.817.174-.993.24-.993.24s2.475-10.16 1.731-12.72z"/><path fill="#eea886" d="M81.996 36.042s-1.466-1.193-1.662-1.39c-.196-.197-2.86-1.211-3.21-1.277-.349-.066-.409.215-.382.352.046.244 2.762 1.154 2.795 1.23.033.077-.242-.009-.242-.009s-2.956-.7-3.208-.547c-.25.153-.054.393.055.47 0 0-.338.251-.055.447.284.197.688.371.688.371s-.436.116-.218.353 1.774.592 1.774.592 3.035-.666 3.665-.592z"/><path fill="#263947" d="M90.74 38.267l-4.938 2.166c-.79-.155-1.616-.307-2.285-.426z"/><path fill="#e8734d" d="M88.36 10.873s.821-.414 1.266.128c.444.543.492 3.495-.05 4.628-.543 1.132.086-4.023-1.216-4.756z"/><path fill="#706865" d="M55.605 106.947V40.134h1.47v66.813z"/><path fill="#bdafaa" d="M15.186 21.845c0-4.812 4.812-9.624 9.624-9.624h29.12c4.812 0 9.624 4.812 9.624 9.624v64.45c0 4.812-4.813 9.624-9.625 9.624H24.811c-4.812 0-9.625-4.812-9.625-9.625z"/><path fill="#fff" d="M16.513 20.569c0-3.5 3.5-7 7-7h31.712c3.5 0 7 3.5 7 7v65.08c0 3.5-3.5 7-7 7H23.513c-3.5 0-7-3.5-7-7z"/><path fill="#706865" d="M32.163 14.84v-3.254h14.413v3.255z"/><path fill="#b5deff" d="M53.425 64.788a3.75 3.75 0 0 1 3.745 3.745V85.19a3.749 3.749 0 0 1-3.745 3.744H24.166a3.749 3.749 0 0 1-3.745-3.744V68.533a3.75 3.75 0 0 1 3.745-3.745zm4.3 20.402V68.533a4.304 4.304 0 0 0-4.3-4.299H24.166a4.303 4.303 0 0 0-4.298 4.3V85.19a4.303 4.303 0 0 0 4.298 4.298h29.26a4.303 4.303 0 0 0 4.298-4.298z"/><path fill="#323657" d="M27.173 49.2c-.002-.001-.004-.002-.007 0"/><path fill="#b5deff" d="M56.797 42.631a4.219 4.219 0 0 1-4.214 4.215 4.219 4.219 0 0 1-4.214-4.215 4.219 4.219 0 0 1 4.214-4.214 4.219 4.219 0 0 1 4.214 4.214zm.554 0a4.774 4.774 0 0 0-4.768-4.768 4.774 4.774 0 0 0-4.768 4.769 4.774 4.774 0 0 0 4.768 4.768 4.774 4.774 0 0 0 4.768-4.768zm-.554 10.989a4.219 4.219 0 0 1-4.214 4.213 4.219 4.219 0 0 1-4.214-4.214 4.219 4.219 0 0 1 4.214-4.214 4.219 4.219 0 0 1 4.214 4.214zm.554 0a4.774 4.774 0 0 0-4.768-4.77 4.774 4.774 0 0 0-4.768 4.77 4.774 4.774 0 0 0 4.768 4.767c2.63 0 4.768-2.14 4.768-4.768zM31.092 42.844a12.62 12.62 0 0 1-2.47-.248 12.374 12.374 0 0 1-7.304-4.552 12.233 12.233 0 0 1-2.578-7.552c0-6.81 5.541-12.352 12.352-12.352v.555c-6.505 0-11.798 5.292-11.798 11.797 0 2.638.851 5.132 2.462 7.213a11.43 11.43 0 0 0 .963 1.1 11.812 11.812 0 0 0 7.24 3.432 12.136 12.136 0 0 0 1.52.047 11.783 11.783 0 0 0 8.646-4.201 11.811 11.811 0 0 0 2.638-9.322l.549-.08a12.364 12.364 0 0 1-5.084 11.895 12.343 12.343 0 0 1-7.136 2.268z"/><path fill="#b5deff" d="M39.71 37.032a1.033 1.033 0 0 0-.185-.185l-.01-.007-.001.001c-2.303-1.274-6.458-2.311-6.458-2.311-.12-.277-.111-1.239-.093-1.813.43-.5.821-1.283 1.04-2.503.07.051.123-.067.123-.067-.038-.069.583-1.586.47-1.928-.062-.194-.192-.171-.292-.116l.046-.276s.246-2.325-.931-3.621c-.122-.117-.555-.146-.555-.146-1.891-.579-3.025-.32-3.736-.016-1.052.862-1.132 2.33-1.084 3.138.02.192.043.385.064.572l.001.006.026.218c-.098-.06-.227-.09-.298.102-.126.337.334 1.852.391 1.946 0 0 .099.155.177.084.217 1.33.61 2.15 1.02 2.655a24.38 24.38 0 0 1-.211 1.928c-.966.305-5.807 1.593-7.272 2.555-.132.082-.269.3-.405.626A11.617 11.617 0 0 0 22.523 39c.381.385.788.743 1.22 1.073a12.01 12.01 0 0 0 7.745 2.488 12.01 12.01 0 0 0 7.499-2.932c.485-.42.936-.877 1.35-1.368-.228-.556-.441-.983-.628-1.228z"/><path fill="#323657" d="M34.003 51.169h-.006"/><path fill="#b5deff" d="M42.225 47.48c0 .665-.665 1.33-1.33 1.33H21.289c-.665 0-1.33-.665-1.33-1.33s.665-1.33 1.33-1.33h19.606c.665 0 1.33.665 1.33 1.33zm0 4.8c0 .665-.665 1.33-1.33 1.33H21.289c-.665 0-1.33-.665-1.33-1.33 0-.666.665-1.33 1.33-1.33h19.606c.665 0 1.33.664 1.33 1.33zm0 4.799c0 .665-.665 1.33-1.33 1.33H21.289c-.665 0-1.33-.665-1.33-1.33 0-.666.665-1.33 1.33-1.33h19.606c.665 0 1.33.665 1.33 1.33zM48.268 21.3c0-2.073 2.072-4.145 4.145-4.145h.342c2.072 0 4.144 2.072 4.144 4.144v10.446c0 2.072-2.072 4.144-4.145 4.144h-.342c-2.072 0-4.144-2.072-4.144-4.144z"/><path fill="#eea886" d="M3.055 69.422s.332.543.373.987c.033.35.329.875.457 1.165.127.29.538 1.601.553 1.942.006.14-.305 1.02-.261 1.3.044.282.205.839-.048.876-.252.038-.539-.42-.539-.42s.024.26-.19.358c-.415.193-.635.023-.635.023s-.154.285-.346.324c-.424.084-.632-.086-.632-.086s-.187.16-.48.154c-.375-.007-.533-.332-.533-.332s-.475.097-.612-.125c-.138-.221-.115-.458-.171-.658-.058-.201-.014-2.015.602-3.32.616-1.305-.157-2.58-.157-2.58z"/><path fill="#db9c7c" d="M3.657 75.102s.042-1.627-.386-1.973c-.428-.347-.477.241-.477.241s.059-.58-.41-.659c-.468-.078-.487.611-.487.611s-.077-.447-.568-.355c-.492.091-.375.663-.375.663s-.47-.56-.774-.022c-.514.908-.018 1.98-.018 1.98s.144.246.612.126c0 0 .313.63 1.013.177 0 0 .717.394.978-.238 0 0 .79.375.892-.55z"/><path fill="#323657" d="M8.575 45.985s-2.786 9.283-3.727 12.708c-.295 1.073-1.01 11.328-1.135 11.741-.126.413-3.66.979-3.66.979s.43-12.83.469-13.53c.04-.7 3.898-15.026 5.02-15.537.84-.383 1.284-.066 2.344.72 1.486 1.104.689 2.92.689 2.92z"/><path fill="#4da8f2" d="M36.045 33.455l-.31-.474 6.377-4.17.31.473z"/><path fill="#efaa88" d="M43.1 31.208s-.06.361-.164.506c0 0-.208.248-.346.434-.043.06-.08.112-.1.148-.084.152-.223.51-.527.819-.303.308-1.486 1.287-1.486 1.287l-1.013-.86-1.052-.472s.59-2.56.839-2.88a.952.952 0 0 1 .076-.086c.237-.25.52-.337.66-.454.05-.042.592-.433.785-.382.268.07.425.226.486.406 0 0 .518.159.72.463 0 0 .483.132.627.581 0 0 .474.189.496.49z"/><path fill="#424773" d="M6.315 109.366s-.254 1.762-.286 2.027c-.032.264-2.824-.156-2.824-.156l-.226-2.099s2.986-.02 3.336.228z"/><path fill="#292c47" d="M6.059 111.168s.884 1.063 1.74 1.525c.856.463 2.2.646 2.707 1.125.365.346 1.33 1.835-2.224 1.805-3.554-.03-5.268.21-5.649-.36-.38-.571.551-4.214.551-4.214s.842.303 2.875.12z"/><path fill="#424773" d="M26.323 109.366s-.254 1.762-.285 2.027c-.032.264-2.825-.156-2.825-.156l-.226-2.099s2.987-.02 3.336.228z"/><path fill="#292c47" d="M26.067 111.168s.885 1.063 1.741 1.525c.855.463 4.004.843 4.51 1.322.366.346.974 1.738-4.027 1.608-3.553-.093-5.268.21-5.649-.36-.38-.571.551-4.214.551-4.214s.793.324 2.874.12zM8.627 64.085s-2.624 4.169-2.428 7.937c.195 3.768-.952 7.882-1.346 11.819-.439 4.388-2.237 14.778-2.303 17.125-.065 2.348.28 9.844.28 9.844l3.6.082s3.023-18.163 3.806-20.016c.783-1.853 4.665-15.066 4.796-16.549.13-1.482-6.405-10.242-6.405-10.242z"/><path fill="#292c47" d="M22.44 64.65s1.977 10.328 2.238 12.634c.261 2.307.435 11.162.566 12.603.13 1.442 1.219 18.82 1.566 21.005h-4.603s-3.532-12.664-3.532-18.657c0-5.992-2.73-13.027-4.491-16.981-1.762-3.954-5.795-4.047-6.878-11.383 0 0 13.667-1.548 15.134.779z"/><path fill="#eea886" d="M13.005 29.035s3.522-1.315 5.146 1.366c1.624 2.68 1.468 8.048-.307 8.708-1.776.66-4.443.314-5.352-1.363-.908-1.677-1.729-4.102-1.69-5.723.04-1.621 1.279-2.52 2.203-2.988z"/><path fill="#eea886" d="M17.461 39.232s-.146.95.096 1.42c.242.468-4.563.48-4.563.48s-.39-2.548-1.13-4.701c-.74-2.153 5.597 2.8 5.597 2.8z"/><path fill="#d88a51" d="M11.864 36.43s.332.548 1.686.336c1.354-.212 3.005-2.013 3.57-2.212.565-.197.571-.53.571-.53l.354.518.6.038s-.547-1.611.279-2.268c.825-.657-.858-5.215-5.2-3.697 0 0-3.334.919-3.212 2.815.12 1.896.606 4.056 1.352 5z"/><path fill="#e2d2ca" d="M17.842 40.595s-.015-.895-.421-.981c-.405-.086-4.477-.478-4.975-.282v1.043s.96.59 5.396.22z"/><path fill="#eea886" d="M17.601 33.335c-.076-.318-.885-1.227-1.195-.253-.309.973.469 2.282.902 2.17.434-.112.486-1.11.293-1.917z"/><path fill="#323657" d="M24.578 41.95c-2.793-.368-6.736-1.356-6.736-1.356l-5.397-.22s-4.953 1.09-6.903 1.972c-.185.084-.186 4.419-.694 5.555l1.617 3.412s.935 6.759 1.129 9.765c.089 1.38-1.927 12.938-1.927 12.938s2.16.636 5.843 1.042 12.886-.147 12.944-.582c.058-.435-1.783-16.198-1.864-17.015-.125-1.253.432-7.91.432-7.91.85-.66 8.317-4.126 10.354-5.932.545-.484 2.846-2.724 3.5-3.497 2.316-2.739 4.215-5.088 4.446-5.595.262-.288-2.517-1.799-2.769-1.883-.22-.074-3.351 3.983-4.556 5.288-.537.582-2.771 2.207-2.771 2.207s-4.902 1.911-6.648 1.81z"/><path fill="#d88a51" d="M12.002 29.352s-4.49.351-.138 7.079"/><path fill="#dfe1e8" d="M42.42 29.283l.37-.562-.68.088z"/></svg>