<svg xmlns="http://www.w3.org/2000/svg" width="13" height="19" viewBox="0 0 13 19"><path fill="#6f8dba" d="M5.12 8.51V5.196l.404-.006.045-.001h.003l.503-.01h.061c.141 0 .32.009.53.027.252.022.457.05.628.087.169.035.358.095.561.177.203.083.368.184.49.303a1.493 1.493 0 0 1 .439 1.085c0 .2-.031.386-.092.55-.06.165-.154.305-.276.416-.12.11-.247.208-.377.292-.13.082-.296.15-.495.2a9.9 9.9 0 0 1-.525.118 4.107 4.107 0 0 1-.562.06c-.24.011-.422.018-.51.021a8.318 8.318 0 0 1-.474 0 54.867 54.867 0 0 0-.344-.006zm1.143 1.64c.174 0 .41.012.705.033.296.021.55.054.755.097.204.043.428.11.668.2.24.09.438.2.587.329.15.13.276.297.377.496.102.201.153.433.153.691a1.504 1.504 0 0 1-.347.983 1.44 1.44 0 0 1-.403.324 3.385 3.385 0 0 1-.484.226c-.155.057-.34.107-.567.152a7.229 7.229 0 0 1-1.178.134 12.156 12.156 0 0 1-1.03.011 33.163 33.163 0 0 0-.378-.005v-3.649c.05 0 .195-.003.484-.01.262-.008.483-.011.658-.011zm-1.173 8.4v-2.72c.281.006.7.01 1.245.01v2.71h1.571v-2.753a11.724 11.724 0 0 0 1.485-.162 5.81 5.81 0 0 0 1.24-.373c.392-.168.724-.38.989-.631.263-.25.485-.573.658-.961.172-.386.284-.84.332-1.35.088-.995-.066-1.773-.46-2.31-.391-.537-.992-.911-1.785-1.112 1.009-.544 1.459-1.481 1.337-2.785a2.885 2.885 0 0 0-.372-1.236 2.41 2.41 0 0 0-.842-.842 4.52 4.52 0 0 0-1.154-.486c-.41-.11-.89-.192-1.428-.243V.586H6.335V3.23c-.271 0-.667.006-1.245.022V.586H3.52v2.72c-.233.008-.565.011-.99.011l-2.163-.01v1.77h1.132c.515 0 .82.247.908.734v3.098c.071 0 .123.004.163.011h-.163v4.34c-.054.365-.253.55-.592.55H.682l-.316 1.976h2.04c.133 0 .322.002.562.005.3.005.46.006.54.006h.01v2.753H5.09z"/></svg>