<svg xmlns="http://www.w3.org/2000/svg" width="404" height="367" viewBox="0 0 404 367"><defs><linearGradient id="a" x1="72.21" x2="62.42" y1="237.45" y2="59.99" gradientUnits="userSpaceOnUse"><stop offset="0" stop-color="#d1d7e0"/><stop offset="1" stop-color="#ebebff"/></linearGradient><linearGradient id="b" x1="334.53" x2="334.53" y1="367.57" y2="241.6" gradientUnits="userSpaceOnUse"><stop offset="0" stop-color="#d1d7e0"/><stop offset="1" stop-color="#ebebff"/></linearGradient><linearGradient id="c" x1="9.58" x2="342.34" y1="356.53" y2="356.53" gradientUnits="userSpaceOnUse"><stop offset="0" stop-color="#1a2257"/><stop offset=".01" stop-color="#3e8ef7"/><stop offset="1" stop-color="#5e60f2"/></linearGradient><linearGradient id="d" x1="-891.1" x2="-863.66" y1="278.65" y2="278.65" gradientUnits="userSpaceOnUse"><stop offset="0" stop-color="#1a2257"/><stop offset="1" stop-color="#5e60f2"/></linearGradient><linearGradient id="e" x1="-869.86" x2="-819.97" y1="301.3" y2="301.3" gradientUnits="userSpaceOnUse"><stop offset="0" stop-color="#1a2257"/><stop offset="1" stop-color="#5e60f2"/></linearGradient><linearGradient id="f" x1="-865.46" x2="-828.02" y1="308.56" y2="308.56" gradientUnits="userSpaceOnUse"><stop offset=".01" stop-color="#1a2257"/><stop offset="1" stop-color="#5e60f2"/></linearGradient><linearGradient id="g" x1="-910.85" x2="-854.62" y1="270.52" y2="270.52" gradientUnits="userSpaceOnUse"><stop offset=".01" stop-color="#1a2257"/><stop offset="1" stop-color="#5e60f2"/></linearGradient><linearGradient id="h" x1="73.38" x2="40.63" y1="331.9" y2="233.69" gradientUnits="userSpaceOnUse"><stop offset=".01" stop-color="#1a2257"/><stop offset="1" stop-color="#5e60f2"/></linearGradient><linearGradient id="i" x1="48.04" x2="64.41" y1="396.04" y2="325.48" gradientUnits="userSpaceOnUse"><stop offset="0" stop-color="#c9c4c1"/><stop offset="1" stop-color="#fff6de"/></linearGradient><linearGradient id="j" x1="40.67" x2="80.91" y1="340.97" y2="340.97" gradientUnits="userSpaceOnUse"><stop offset="0" stop-color="#c9c4c1"/><stop offset="1" stop-color="#fff6de"/></linearGradient><linearGradient id="k" x1="292.08" x2="292.08" y1="103.79" y2="32.12" gradientUnits="userSpaceOnUse"><stop offset="0" stop-color="#d1d7e0"/><stop offset="1" stop-color="#ebebff"/></linearGradient><linearGradient id="l" x1="332.34" x2="332.34" y1="220.15" y2="271.75" gradientUnits="userSpaceOnUse"><stop offset="0" stop-color="#4bd7a8"/><stop offset="1" stop-color="#3e8ef7"/></linearGradient><linearGradient id="m" x1="63.15" x2="63.15" y1="43.55" y2="77.25" gradientUnits="userSpaceOnUse"><stop offset="0" stop-color="#4bd7a8"/><stop offset="1" stop-color="#3e8ef7"/></linearGradient><linearGradient id="n" x1="280.45" x2="284.55" y1="39.01" y2="53.8" gradientUnits="userSpaceOnUse"><stop offset="0" stop-color="#4bd7a8"/><stop offset="1" stop-color="#3e8ef7"/></linearGradient><linearGradient id="o" x1="300.68" x2="275.14" y1="39.47" y2="59.17" gradientUnits="userSpaceOnUse"><stop offset="0" stop-color="#4bd7a8"/><stop offset="1" stop-color="#3e8ef7"/></linearGradient><linearGradient id="p" x1="271.51" x2="287.67" y1="45.2" y2="70.98" gradientUnits="userSpaceOnUse"><stop offset="0" stop-color="#4bd7a8"/><stop offset="1" stop-color="#3f96ef"/><stop offset="1" stop-color="#3e8ef7"/></linearGradient><linearGradient id="q" x1="306.51" x2="306.51" y1="36.98" y2="68.59" gradientUnits="userSpaceOnUse"><stop offset="0" stop-color="#4bd7a8"/><stop offset="1" stop-color="#3e8ef7"/></linearGradient><linearGradient id="r" x1="167.55" x2="167.55" y1="145.3" y2="206.15" gradientUnits="userSpaceOnUse"><stop offset="0" stop-color="#3e8ef7"/><stop offset="1" stop-color="#4bd7a8"/></linearGradient><linearGradient id="s" x1="131.85" x2="147.08" y1="246" y2="246" gradientUnits="userSpaceOnUse"><stop offset="0" stop-color="#d1d7e0"/><stop offset="1" stop-color="#ebebff"/></linearGradient><linearGradient id="t" x1="126.4" x2="132.74" y1="246" y2="246" gradientUnits="userSpaceOnUse"><stop offset="0" stop-color="#d1d7e0"/><stop offset="1" stop-color="#ebebff"/></linearGradient></defs><path fill="url(#a)" d="M.563 71.117c0-29.335 29.335-58.67 58.67-58.67h8.044c29.335 0 58.67 29.336 58.67 58.67v8.046c0 29.335-29.335 58.67-58.67 58.67h-8.044c-29.335 0-58.67-29.335-58.67-58.67z" opacity=".95"/><path fill="#96bfe6" d="M34.23 110.991v-2.867h58.05v2.867zm8.222 8.94v-2.868h41.606v2.868z"/><path fill="url(#b)" d="M265.556 277.282c0-34.486 34.485-68.971 68.97-68.971h.002c34.485 0 68.97 34.485 68.97 68.97v.925c0 34.485-34.485 68.97-68.97 68.97h-.002c-34.485 0-68.97-34.485-68.97-68.97z" opacity=".95"/><path fill="#4598e6" d="M328.1 291.3v-2.026h10.94v2.026z"/><path fill="#96bfe6" d="M286.564 310.954v-3.923h63.662v3.923zm0 18.835v-3.923h51.48v3.923zm0-9.418v-3.923h30.18v3.923z"/><path fill="#4598e6" d="M289.641 290.493h11.666v1.982H287.66V279.54h1.981zm90.886-10.952v12.934H366.88v-1.982h11.667v-10.952zm-92.867-69.425h13.647v1.981H289.64v10.949h-1.981zm92.867 0v12.93h-1.98v-10.949H366.88v-1.981zm3.233 108.294c0 5.188-4.22 9.409-9.409 9.409-5.188 0-9.409-4.221-9.409-9.41 0-5.187 4.221-9.408 9.41-9.408 5.187 0 9.408 4.22 9.408 9.409zm2.258 0c0-6.433-5.233-11.667-11.667-11.667-6.433 0-11.666 5.234-11.666 11.667s5.233 11.667 11.666 11.667c6.434 0 11.667-5.234 11.667-11.667z"/><path fill="#4598e6" d="M373.607 323.002l-5.3-5.3 1.596-1.598 3.704 3.704 5.192-5.192 1.597 1.597z"/><path fill="url(#c)" d="M342.33 356.523c0 5.516-74.49 9.988-166.379 9.988s-166.38-4.472-166.38-9.988c0-5.517 74.491-9.988 166.38-9.988 91.89 0 166.38 4.471 166.38 9.988z"/><path fill="url(#d)" d="M60.34 330.286c6.375-4.484 13.838-35.732 14.283-54.345.228-9.534 3.046-13.506 5.533-17.01 2.376-3.35 4.429-6.243 3.233-12.886-2.285-12.694 3.723-18.174 3.784-18.228l-.695-.793c-.268.234-6.525 5.886-4.127 19.208 1.118 6.207-.724 8.803-3.056 12.089-2.446 3.448-5.49 7.74-5.726 17.595-.478 19.975-8.107 49.479-13.836 53.508z"/><path fill="url(#e)" d="M27.152 272.924c1.17.638 2.149 1.664 3.283 2.851 2.834 2.968 6.36 6.66 15.294 6.702 4.449.021 6.94.601 8.079 1.88 1.245 1.399.973 3.823.597 7.18-.142 1.265-.303 2.7-.4 4.263-.605 9.597 4.895 16.303 5.13 16.584 3.199 3.81 6.823 11.393 5.308 15.725-.589 1.684-1.935 2.75-4.003 3.168-7.211 1.458-9.202-3.055-12.5-10.53a166.836 166.836 0 0 0-1.942-4.29c-3.821-8.067-7.386-9.465-12.782-11.583-1.295-.508-2.763-1.084-4.365-1.804-6.82-3.065-5.59-7.273-4.286-11.73.186-.637.371-1.272.533-1.901.82-3.207-.798-4.858-2.848-6.95-1.474-1.504-3.144-3.208-4.465-5.97-.693-1.448-1.264-3.414-.053-4.562 1.594-1.511 5.643-1.095 9.42.967zm19.823 48.248c2.871 6.508 5.044 11.43 10.979 11.43.822 0 1.717-.094 2.696-.292 2.457-.496 4.068-1.793 4.789-3.854 1.719-4.915-2.263-12.9-5.496-16.75-.054-.064-5.464-6.675-4.887-15.84.097-1.536.257-2.958.397-4.212.407-3.627.7-6.248-.857-7.998-1.373-1.543-4.023-2.21-8.862-2.233-8.486-.04-11.84-3.553-14.537-6.376-1.145-1.2-2.226-2.331-3.54-3.049-4.229-2.309-8.708-2.648-10.65-.807-.923.875-1.702 2.588-.174 5.783 1.397 2.92 3.208 4.768 4.664 6.253 1.959 1.999 3.252 3.319 2.579 5.95-.158.618-.34 1.242-.524 1.868-1.308 4.474-2.79 9.546 4.867 12.987 1.625.73 3.106 1.31 4.412 1.824 5.345 2.097 8.572 3.364 12.214 11.052.705 1.489 1.328 2.9 1.93 4.264z"/><path fill="url(#f)" d="M60.536 338.69l1.053-.055c-.052-.99-1.38-24.31-10.744-31.135-10.272-7.488-13.511-15.534-15.053-20.936-1.818-6.364-11.07-8.065-11.462-8.134l-.183 1.038c.09.016 8.995 1.657 10.63 7.386 1.586 5.551 4.912 13.819 15.447 21.498 8.962 6.533 10.3 30.101 10.312 30.339z"/><path fill="url(#g)" d="M91.017 303.345c-13.032 8.573-25.4 35.021-26.445 37.294-2.609 2.03-4.408 2.82-5.348 2.352-1.607-.8-1.524-5.4-1.419-11.224.155-8.53.366-20.214-4.135-31.046-4.386-10.554-.692-13.467 3.219-16.55 4.675-3.687 9.51-7.5.872-23.52-3.618-6.709-4.798-11.165-3.713-14.023 1.016-2.678 3.985-3.765 7.423-5.023 6.118-2.239 13.732-5.026 12.786-18.702-.247-3.573.13-5.805 1.154-6.825 1.04-1.035 2.764-.909 4.948-.748 3.654.267 8.201.6 12.07-4.513l.056-.073.028-.088c.034-.11 3.454-10.925 7.18-12.547.557-.243 1.074-.244 1.58-.002 2.482 1.187 3.907 2.542 4.357 4.141.805 2.86-1.507 6.42-4.183 10.54-4.362 6.717-9.79 15.075-4.272 24.823 6.514 11.51 3.26 15.32-1.667 21.086-2.941 3.443-6.274 7.345-8.522 13.765-1.923 5.492 1.349 10.716 4.236 15.325 3.672 5.86 6.842 10.921-.205 15.558zm-32.264 40.59c.327.162.687.245 1.086.245 1.32 0 3.075-.902 5.483-2.79l.102-.08.053-.116c.129-.282 13.043-28.365 26.12-36.968 7.908-5.204 4.152-11.2.519-16.999-2.896-4.623-5.89-9.403-4.135-14.417 2.183-6.234 5.448-10.056 8.328-13.428 5.029-5.886 8.662-10.138 1.783-22.29-5.202-9.191-.186-16.915 4.24-23.729 2.816-4.336 5.247-8.08 4.313-11.4-.537-1.91-2.146-3.482-4.918-4.808-.786-.376-1.613-.38-2.456-.013-4.015 1.75-7.372 11.966-7.737 13.11-3.51 4.58-7.54 4.286-11.099 4.026-2.354-.172-4.388-.321-5.768 1.053-1.27 1.266-1.735 3.695-1.462 7.645.892 12.885-6.009 15.41-12.097 17.639-3.527 1.29-6.858 2.51-8.046 5.638-1.201 3.166-.003 7.9 3.77 14.9 8.218 15.239 3.937 18.615-.596 22.19-4.047 3.19-8.232 6.491-3.54 17.782 4.417 10.63 4.208 22.186 4.055 30.624-.12 6.677-.2 11.088 2.002 12.186z"/><path fill="url(#h)" d="M38.113 221.533c6.656-2.281 5.273 10.546 8.085 20.036 2.812 9.49 31.284 4.14 19.332 27.906-11.95 23.765 15.115 7.948 7.03 28.686-8.084 20.74-.702 42.92-9.49 37.278-8.788-5.642-4.937-31.758-14.076-34.861-9.14-3.103-10.63-6.722-1.582-15.158 9.049-8.437-23.71-16.812-15.626-33.846 8.085-17.035-1.362-27.404 6.327-30.04z"/><path fill="#fff" d="M60.007 334.076c.837-3.55 7.984-34.794 1.315-38.57-5.878-3.329-5.733-16.276-4.816-28.501.811-10.822-13.087-15.88-13.68-16.09l-.352.993c.137.049 13.732 5 12.98 15.018-.941 12.555-1.042 25.878 5.349 29.497 5.063 2.868.401 27.978-1.823 37.411z"/><path fill="url(#i)" d="M85.116 322.95L75.614 359H54.38l-9.502-36.05z"/><path fill="url(#j)" d="M85.116 322.95S64.198 326.879 64.198 359H54.38l-9.502-36.05z"/><path fill="url(#k)" d="M250.342 52.677c0-19.755 19.756-39.51 39.511-39.51h4.454c19.755 0 39.51 19.755 39.51 39.51s-19.755 39.51-39.51 39.51h-4.454c-19.755 0-39.51-19.755-39.51-39.51z" opacity=".95"/><path fill="#4598e6" d="M266.14 77.333h7.06v1.199h-8.26v-7.827h1.2zm55-6.628v7.827h-8.259v-1.2h7.06v-6.627zm-56.2-42.013h8.26v1.199h-7.06v6.626h-1.2zm56.2 0v7.825h-1.2V29.89h-7.059v-1.199zM58.376 96.074v-1.808h9.758v1.808zM23.603 97.17h10.406v1.768H21.836V87.4h1.767zm81.071-9.77v11.538H92.501V97.17h10.406V87.4zM21.836 25.473h12.173v1.767H23.603v9.766h-1.767zm82.838 0v11.533h-1.767V27.24H92.501v-1.767z"/><path fill="url(#l)" d="M376.184 271.748h-13.087a1547.03 1547.03 0 0 0-1.919-13.418s-.53 5.903-1.172 13.418H307.64c-.477-6.758-1.053-11.815-1.26-11.919-.301-.15-2.168 5.846-3.72 11.92h-14.175c3.647-15.706 10.447-40.904 14.378-42.413 5.596-2.152 28.419-9.186 28.419-9.186h13.023s23.144 6.603 25.296 13.782c1.712 5.72 5.488 24.585 6.583 37.816z"/><path fill="#eea987" d="M338.392 177.9s12.162 1.915 10.31 20.943c-1.852 19.027-12.585 17.467-13.303 17.448-.717-.02-10.775.347-11.559-22.884 0 0-.342-17.179 14.552-15.507z"/><path fill="#eea987" d="M344.07 210.687s-.334 7.826.423 9.52-10.035 7.136-16.618 1.072c0 0 1.59-8.505 1.147-11.52-.441-3.014 15.047.928 15.047.928zm4.82-17.219s1.332-1.422 1.82.018c.489 1.44-2.066 7.874-1.899 8.163 0 0-.243.558-.563.25-.32-.307.642-8.431.642-8.431zm-24.912-.241s-1.304-1.448-1.82-.017c-.517 1.43 1.913 7.912 1.74 8.198 0 0 .233.563.558.262.326-.302-.478-8.443-.478-8.443z"/><path fill="#d98b52" d="M348.884 196.386l-1.74 2.328s.048-5.103-.231-5.903c-.28-.8-.707-3.244-.94-3.82-.234-.577-10.444-3.438-19.462.835 0 0 .397 3.67-.467 3.996-.865.326-.441 5.976-.441 5.976l-1.431-1.616s-2.191-14.638-1.65-16.164c.54-1.526 2.265-10.699 20.766-5.253 0 0 5.768-1.222 6.926 2.76 1.157 3.982-1.33 16.861-1.33 16.861z"/><path fill="#eea987" d="M344.492 220.207s2.745.586-8.738 11.589c0 0-8.143-9.009-7.88-10.517.264-1.509 16.618-1.072 16.618-1.072z"/><path fill="#5b40f2" d="M335.755 231.796l3.133 5.358 9.295-15.782-4.025-2.807zm-.001 0l-7.603-12.1-4.311 2.771 7.728 14.687z"/><path fill="#5b40f2" d="M333.397 265.317c.094 1.784.135 3.973.14 6.431h-.43c-.005-2.448-.047-4.631-.14-6.41-.705-13.424 2.547-29.757 2.567-33.585l.42.083c-.02 3.828-3.262 20.115-2.557 33.48z"/><path fill="#c78d71" d="M330.155 214.052s2.888 3.054 6.97 2.24c4.081-.815 5.894-2.684 5.894-2.684s-1.612 4.04-6.33 4.41c-4.718.37-6.534-3.966-6.534-3.966z"/><path fill="#eea886" d="M50.132 17.53c.412 0 .875.475.958.564.321 2.934.756 7.66.567 7.917-.01.009-.013.008-.018.006-.2-.048-.646-1.177-.897-1.96-.025-.09-.079-.256-.153-.486-.384-1.186-1.403-4.339-1.03-5.475.108-.326.267-.512.473-.555a.51.51 0 0 1 .1-.01zm1.512 8.613a.141.141 0 0 0 .1-.044c.298-.296-.39-6.749-.532-8.039l-.002-.02-.013-.015c-.026-.03-.647-.719-1.19-.606-.253.052-.444.267-.566.638-.386 1.175.606 4.243 1.03 5.553.073.228.126.392.151.482.105.327.646 1.964.987 2.047a.157.157 0 0 0 .035.004z"/><path fill="#16202e" d="M62.89.418s8.328-.873 11.328 7.17c3 8.042 5.827 10.674 6.18 14.9 1.43 17.088 9.41 13.222 7.166 23.072-2.244 9.85-3.798 11.341-3.798 11.341l-19.078-3.74-19.327.062s7.561-3.776 5.878-11.819c-1.683-8.042-5.878-21.223-3.509-30.2C50.1 2.225 57.913 1.103 62.89.417z"/><path fill="#eea886" d="M73.614 18.094c.09-.097.625-.643 1.058-.554.207.044.365.23.473.556.374 1.136-.646 4.289-1.03 5.475-.074.23-.127.395-.152.483-.252.786-.696 1.915-.897 1.963-.005.002-.01.002-.017-.005-.19-.257.245-4.984.565-7.918zm-.554 8.049a.155.155 0 0 0 .035-.004c.342-.083.882-1.72.988-2.05.024-.087.077-.252.15-.48.425-1.31 1.417-4.377 1.03-5.552-.122-.371-.312-.586-.565-.638-.543-.114-1.164.577-1.19.606l-.014.015-.002.02c-.14 1.29-.83 7.743-.532 8.04a.142.142 0 0 0 .1.043z"/><path fill="url(#m)" d="M102.046 77.25H90.158c-2.465-4.492-4.468-8.006-4.468-8.006s-1.602 2.924-2.845 8.007h-40.02c-.612-3.171-.649-6.21-.52-8.374 0 0-2.14 3.865-4.621 8.374H24.239c3.568-6.681 10.253-18.846 11.773-20.432 1.907-1.999 12.965-9.642 20.86-12.136 7.9-2.494 12.388-.086 12.388-.086s8.11 1.461 15.609 4.434c2.948 1.169 11.09 16.208 17.177 28.22z"/><path fill="#8e4f3a" d="M63.988 5.122s11.03 1.591 9.415 17.873c-1.615 16.281-11.349 14.99-11.999 14.975-.65-.014-9.765.339-10.554-19.528 0 0-.368-14.692 13.138-13.32z"/><path fill="#8e4f3a" d="M68.889 35.082s-.683 8.47.948 11.007c1.631 2.537-1.395 5.98-7.63 4.803-6.235-1.179-5.873-4.713-5.873-4.713s1.746-5.226 1.236-9.41c-.51-4.183 11.319-1.687 11.319-1.687z"/><path fill="#16202e" d="M62.727 11.022s5.153 5.418 7.547 8.161c2.393 2.743 2.669 8.042 2.669 8.042s4.032-4.925 2.346-10.66C73.602 10.829 69.612-.33 59.513 3.099c-10.1 3.428-10.474 18.516-9.289 25.997 0 0 4.533-16.515 12.503-18.074z"/><path fill="#8e4f3a" d="M72.761 45.341s-7.649 19.373-12.298 22.74c0 0-6.106-19.76-5.68-22.652 0 0 9.212-3.61 17.978-.088z"/><path fill="#16202e" d="M56.597 40.656s-13.635 12.132-10.096 19.7c3.02 6.46 13.729 2.499 11.962-4.27-1.766-6.768-1.866-15.43-1.866-15.43z"/><path fill="#633029" d="M58.38 37.232s4.7 2.222 9.274-1.06c0 0-1.27 2.624-4.637 2.997-3.366.373-4.637-1.937-4.637-1.937z"/><path fill="url(#n)" d="M288.58 39.012s-4.098 15.422-4.953 18.897c-.254 1.046-1.076 2.855-2.12 4.92a3.926 3.926 0 0 0-.409 1.3c-.165 1.286.329 2.3-.526 3.825l-.155.641h-8.11c.947-2.811 2.148-6.39 3.11-9.271a364.287 364.287 0 0 0 1.614-4.927c.5-1.673 2.34-7.09 3.902-10.686.546-1.253 2.646-2.492 4.507-3.387a36.31 36.31 0 0 1 3.14-1.312z"/><path fill="#fccca2" d="M283.153 16.983S280.568.257 294.42.566c13.853.309 13.668 8.579 13.421 16.788-.247 8.208-5.555 7.591.432 19.01 5.987 11.417-5.184 11.417-5.184 11.417L294.42 35.87z"/><path fill="#eea886" d="M292.905 2.17s-9.382 1.482-9.752 14.813c-.37 13.332 2.53 16.17 10.74 13.394 8.208-2.778 10.8-16.726 10.986-18.887.185-2.16.678-10.924-11.974-9.32z"/><path fill="#e55353" d="M309.381 48.541c.033 4.588-5.24 15.562-6.054 18.952-.096.395-.2.76-.303 1.102h-25.603c-.132-1.58-.257-2.933-.32-3.696-.203-2.506-2.742-7.904-2.657-10.417.088-2.562 1.345-4.772 3.103-7.507.545-.847 1.12-1.71 1.69-2.55 1.866-2.734 3.726-5.217 4.64-6.072a14.893 14.893 0 0 1 1.868-1.49l.004-.003c1.15-.766 1.924-1.013 1.924-1.013l8.063-1.29s5.026 1.82 7.919 2.494c0 0 5.641.826 5.726 11.49z"/><path fill="#e55353" d="M285.75 36.86l-4.673 7.366-4.314 6.798c.01-.037.298-1.066.785-4.047.093-.566.192-1.202.299-1.915.031-.21.077-.42.135-.627 1.846-4.257 7.555-7.466 7.763-7.573l.006-.002z"/><path fill="#eea886" d="M299.17 24.372c-.813 1.535-1.672 11.068-1.672 11.068s-11.474 4.336-10.3 1.883c.533-1.113.69-2.558.7-3.803.01-.982-.07-1.84-.127-2.316-.03-.25-.053-.395-.053-.395s12.265-7.974 11.452-6.437z"/><path fill="#fccca2" d="M289.078 11.737s4.815 7.839 9.197 10.925c4.382 3.086 2.16 5.554 2.16 5.554s11.433-24.07.563-25.737C290.128.813 283.462.69 283.153 16.983c0 0 4.938-5.37 5.925-5.246z"/><path fill="#a77860" d="M294.313 30.223c-1.76 2.598-6.414 3.297-6.414 3.297h-.001c.01-.982-.07-1.84-.127-2.316 2.99.577 6.542-.981 6.542-.981z"/><path fill="#ebeeff" d="M278.002 44.385s-.25.516-.454 2.592l1.69-2.55s3.018-4.328 4.052-5.454c1.035-1.125 2.455-2.11 2.455-2.11s-5.938 2.853-7.743 7.522z"/><path fill="#e55353" d="M300.835 50.838s7.365-2.888 9.543-3.057c0 0-1.481-11.826-8.715-10.572-7.234 1.253-.828 13.629-.828 13.629z"/><path fill="#eea886" d="M287.672 35.846s-5.406 8.314-3.576 9.04c1.83.726 11.737-.97 15.95-8.866 0 0-6.299-3.23-12.374-.174z"/><path fill="url(#o)" d="M310.38 47.782c-.376 6.52-2.226 12.702-3.752 18.377-.22.822-.434 1.636-.633 2.436H291c-.036-2.248-.03-4.23.04-5.885.756-18.093 6.49-27.607 6.49-27.607s1.831.615 7.101 2.107c3.612 1.021 4.975 5.616 5.472 8.402a19.86 19.86 0 0 1 .276 2.17z"/><path fill="url(#p)" d="M287.67 35.85c-.06.104-1.047 1.762-2.23 4.474-1.776 4.072-3.995 10.52-4.183 17.625-.059 2.281-.512 5.977-1.201 10.646h-2.992a47.49 47.49 0 0 0-1.648-9.271c-.408-1.456-.784-2.543-.987-3.232-.954-3.247 2.097-7.57 3.118-9.117 1.024-1.544 3.47-8.648 10.122-11.125z"/><path fill="url(#q)" d="M315.155 68.595h-8.051c0-.523-.18-1.378-.476-2.436-1.463-5.2-5.792-15.322-5.792-15.322s-6.479-10.587-.34-13.284c6.14-2.698 8.782 4.842 9.607 8.059 0 0 .004.011.008.033.202.77 3.858 14.707 5.044 22.95z"/><path fill="#eea886" d="M228.038 192.682s3.432-.049 4.654-1.371c1.223-1.323 3.381-2.508 4.073-2.845.926-.45 3.487-2.94 3.808-1.725.322 1.216-4.077 4.3-4.915 5.133-.838.832 3.655 1.196 4.314 2.003.659.808-1.633 9.308-4.627 8.65-2.993-.658-5.444-3.677-6.01-3.67-.567.006-2.211-.379-2.211-.379z"/><path fill="#eea886" d="M239.335 193.53s8.935 2.73 9.303 3.503c.368.773.119 1.339-.733 1.125-.85-.214-8.746-2.34-8.746-2.34s9.765 5.339 10.204 5.873c.258.312-.17 1.429-.644 1.364-.473-.065-10.525-4.676-10.525-4.676s9.106 5.005 9.333 5.6c.198.52-.411 1.48-1.118 1.165-.707-.314-9.482-4.372-9.482-4.372s6.344 4.156 6.246 4.84c-.06.418-.393 1.394-1.99.258-1.598-1.136-5.694-3.318-5.694-3.318z"/><path fill="#353a3d" d="M209.243 343.407s2.867 4.288 6.887 5.214c4.02.927 7.981 2.4 8.011 4.937.03 2.538-11.624 4.051-16.225 1.493-6.867-3.817-7.565-2.666-8.326-4.575-.762-1.908.914-7.01.865-7.617-.061-.75 8.788.548 8.788.548z"/><path fill="#81807e" d="M208.798 341.291s.523 2.072.445 2.116c-.078.044-9.06 1.114-8.788-.549.22-1.348.534-2.813.534-2.813z"/><path fill="#353a3d" d="M152.838 343.122s2.045 4.102 5.538 5.5c3.734 1.493 6.728 3.21 6.66 5.682-.068 2.472-9.128 4.977-15.72.233-4.163-2.998-5.483-3.013-6.152-4.9-.668-1.888 1.16-6.794 1.136-7.386-.031-.733 8.538.87 8.538.87z"/><path fill="#81807e" d="M152.94 340.992s-.024 2.09-.102 2.13c-.077.04-8.76.755-8.538-.872.175-1.292.842-2.852.842-2.852z"/><path fill="#2d3133" d="M184.771 215.683s11.403 43.684 15.745 53.783c4.022 9.357 5.35 22.442 5.903 29.015.697 8.266 4.843 40.457 5.33 42.874.489 2.417-13.413 1.337-13.413 1.337s-9.585-55.659-13.565-63.781c-2.655-5.42-18.064-44.292-19.827-42.053-1.763 2.238-3.95 41.185-5.255 47.65-1.306 6.466-5.315 57.551-5.315 57.551s-8.963 1.323-11.356-.704c0 0-1.09-43.62-.258-55.741.317-4.62-5.413-55.387 1.934-75.825 3.883-10.802 40.077 5.895 40.077 5.895z"/><path fill="#decbc4" d="M121.26 184.357c0 .5.942 2.499 2.449 5.373 2.202-4.405 3.932-8.022 4.497-9.352 1.856-4.383 11.419-14.43 11.419-14.43s0 .007.004.02c0 .005.002.01.003.014a.028.028 0 0 1 .003.01c.004.015.008.029.01.043.008.023.015.051.025.085l.014.053c.004.014.008.027.01.04.522 1.94 3.719 14.065 3.837 20.038.13 6.501 1.826 18.53 1.826 18.53l.007.002 1.997.28 4.418.622.53.075 1.285.18 11.716 1.648 4.155.585.562.08 2.375.333 6.56.923 1.672.234.015.003 1.252.176 1.733.243.001-.001c.048-.064 1.686-2.306 1.432-7.284-.16-3.214-.547-9.253-.387-14.855 0-.029.003-.059.003-.086 0-.072.004-.141.006-.213.003-.025.003-.047.004-.07v-.014c.102-3.078.373-5.996.947-8.212.387-1.5.646-2.985.815-4.377l.025-.203c.03-.258.057-.514.081-.766.374-3.885.08-6.843.062-7.017l.007.014c.118.259.974 3.393 2.094 7.262 1.895 6.54 4.547 15.183 5.678 15.598 1.642.605 28.262 8.488 34.01 9.296.666.094 1.051.092 1.088-.025l.08-.26c.698-2.303 1.658-6.216 1.812-6.848l.022-.088-1.03-.309-28.964-8.68-13.24-38.182c-.277-.22-3.529-1.795-5.904-2.925-2.422-1.152-5.342-2.846-7.986-4.295-1.348-.738-2.624-1.411-3.726-1.917l-.17-.077v-.001c-1.824-.834-3.036-1.386-3.036-1.386h-.005l-.793-.076c-2.542-.241-10.446-.982-13.093-1.137a13.16 13.16 0 0 0-.542-.025 2.875 2.875 0 0 0-.267-.002c-.336.02-1.964.589-4.106 1.404h-.001c-.081.03-.162.06-.245.093a149.965 149.965 0 0 0-.869.333l-1.176.46-.418.165c-4.284 1.701-9.193 3.802-10.36 4.64-.77.553-3.17 5.077-5.953 10.672-3.584 11.481-8.127 29.056-8.268 33.39l-.003.196z"/><path fill="#495055" d="M183.635 210.164s.881 1.054 1.136 5.52c0 0-36.245-4.23-40.077-5.895 0 0-.15-4.921.663-5.007.893-.094 38.278 5.382 38.278 5.382z"/><path fill="#eea886" d="M152.725 131.775c.113 5.688 11.127 8.8 11.127 8.8s4.607-5.776 3.506-6.33c-.431-.216-.607-1.079-.66-2.045-.05-.92.008-1.936.062-2.58.032-.403.063-.661.063-.661s-1.573-1.66-3.575-3.639c-3.499-3.459-8.308-7.89-8.315-6.127 0 .093.012.204.04.334.845 3.967-2.248 12.248-2.248 12.248z"/><path fill="#353a3d" d="M153.639 205.654s-.791 4.989-.86 6.29l-1.677-.335s.462-5.278.734-6.163zm26.972 3.927s.635 4.535.65 6.248l-1.773-.23s-.364-5.664-.567-6.255z"/><path fill="#a77860" d="M156.967 123.44a28 28 0 0 0 1.287 1.736c1.69 2.127 4.87 5.62 8.443 7.024-.05-.92.009-1.936.063-2.58.365-.01.731-.052 1.093-.132-.98-1.711-2.394-3.506-2.394-3.506l-2.211-.662z"/><path fill="#eea886" d="M154.853 119.27c.953 2.072 1.857 3.575 2.114 4.17.168.388.623 1.02 1.287 1.736 1.815 1.955 5.19 4.534 8.506 4.444.366-.01.73-.052 1.094-.132 1.339-.293 2.92-.915 3.79-2.618 6.871-13.454 1.897-24.455 1.897-24.455s-18.788-5.313-21.728.344c-2.062 3.966.802 11.64 3.04 16.51z"/><path fill="#252e3b" d="M173.54 102.415s1.746-.096 2.177-3.404c.427-3.269-.435-4.174-.435-4.174s-7.757-3.247-10.542-3.67c-2.786-.422-9.635-.827-11.24 1.009 0 0-3.9-.907-4.963 5.569-1.686 10.272 5.745 20.247 5.745 20.247s-.064-6.71 1.416-7.6c1.48-.89 2.758 1.225 2.758 1.225l3.027.543s-4.598-9.93.918-10.297c5.516-.368 7.982 1.128 11.14.552z"/><path fill="#eea886" d="M158.372 108.942c-.288-2.957-5.635-4.085-5.276-.986.358 3.099 2.99 6.076 4.207 5.971 1.217-.105 1.289-2.731 1.07-4.985z"/><path fill="#3c4145" d="M141.327 187.57c0 2.157-.702 4.627-1.78 7.26l-.083.198a269.73 269.73 0 0 1-2.07-4.512.01.01 0 0 1-.003-.007c-1.726-3.862-2.91-6.874-2.976-8.066-.427-7.659 5.214-16.474 5.214-16.474l.003.013a.026.026 0 0 1 .003.01c.004.015.008.029.01.042.01.029.018.056.025.086l.014.053c.004.014.008.026.01.04 1.156 4.553 1.633 21.357 1.633 21.357zm-17.618 2.16c2.329 4.443 6.004 10.98 9.632 17.32-.477.892-.944 1.776-1.391 2.65-1.092 2.135-2.06 4.201-2.747 6.128-.827 2.317-1.977 8.251.223 9.354l11.595 6.4s.081-.227.235-.646a252.8 252.8 0 0 1 2.37-6.154c.037-.094.153-.369.325-.774.23-.544.563-1.32.943-2.208l.535-1.246.644-1.504.921-2.142 1.409-3.275.117-.255c.377-.815.764-1.634 1.158-2.45a134.699 134.699 0 0 1 2.073-4.13l.343-.646.214-.393.048-.088.086-.155c3.353-6.114 7.128-11.227 8.332-18.725a169.614 169.614 0 0 0 .814-5.674c.054-.436.109-.867.16-1.294.604-5.002.964-9.46 1.255-12.564.907-9.672-5.017-20.145-9.566-26.615-2.432-3.459-4.47-5.774-4.863-6.213l-.023-.024c-.081.03-.162.061-.245.094l-.303.114-.566.218c-.383.15-.777.303-1.176.461l-.418.165c-4.404 1.727-13.68 4.278-14.846 5.116-.674.482-2.18 4.896-3.92 10.47-3.585 11.482-5.712 28.793-5.815 33.116l-.003.196c0 .5.943 2.499 2.45 5.373z"/><path fill="#b3a5a0" d="M163.35 216.426l-33.05 14.71a3.705 3.705 0 0 1-4.891-1.878l-9.048-20.328a3.706 3.706 0 0 1 1.878-4.892l33.05-14.71a3.705 3.705 0 0 1 4.892 1.878l9.048 20.328a3.705 3.705 0 0 1-1.879 4.892z"/><path fill="#3c4145" d="M170.477 135.777s1.55 5.16 3.555 18.04l.001.004c.069.433.136.873.204 1.323l.024.157.136.905.016.108a331.24 331.24 0 0 1 .317 2.177c.895 6.27 2.15 16.939 3.355 27.71v.005c.953 8.49 3.125 17.202 3.815 23.703l.001.013c.137 1.274.463 2.972.903 4.888l.152.657c1.943 8.207 5.714 19.822 5.714 19.822l1.098-1.014 3.253-3.003a2.637 2.637 0 0 0 .73-2.72c-1.803-5.82-7.934-26.416-9.058-40.897l-.001-.013c.552-5.089 1.96-11.916 1.75-12.898a347.979 347.979 0 0 0 2.12 5.754v.001c1.935 5.103 3.915 9.832 4.74 10.133 1.834.675 34.788 10.397 35.027 9.04a34.404 34.404 0 0 1 .182-.912c.406-1.857 1.145-4.52 1.661-6.318l.212-.735c.217-.745.358-1.217.358-1.217l-27.867-9.147-14.061-36.77c-.277-.22-3.865-2.151-6.24-3.282a827.947 827.947 0 0 0-8.38-3.912c-1.326-.613-2.575-1.186-3.63-1.671z"/><path fill="#51565c" d="M151.61 148.524l5.357 3.022-2.289 2.334 6.096 32.912c1.242-7.714 1.808-15.04 2.23-19.533 1.4-14.952-13.524-31.82-14.452-32.853-.717.272-1.492.573-2.292.889zm18.784-12.892s2.002 6.538 4.336 22.859c.894 6.27 2.15 16.94 3.356 27.71l1.247-30.822-2.552-2.766 2.269-2.836-4.856-12.398c-1.326-.613-2.575-1.186-3.63-1.671z"/><path fill="#f5e2d9" d="M148.253 134.52l4.472-2.746s.125 2.437 11.127 8.8l-3.125 8.801zm18.526-1.518s-.173 2.63-2.927 7.573l6.098 7.95.444-12.893z"/><path fill="#963cce" d="M163.836 140.575s-1.182 4.727-.757 6.05c0 0 2.599.946 4.467-.236 0 0-1.323-3.309-3.71-5.814z"/><path fill="#ad9f99" d="M169.945 208.75c.66-3.335.031-13.33.004-13.753l-.565.036c.006.103.651 10.344.004 13.606z"/><path fill="#69737a" d="M165.317 207.212s5.334.637 7.097 1.077l-.23 5.978-6.985-.746z"/><path fill="url(#r)" d="M166.485 145.964s5.948 15.021 4.978 31.834c-1.006 17.433-2.656 23.753-2.656 23.753l-3.668 4.6-1.617-5.653s4.921-22.225 1.745-43.851c-.577-3.92-1.431-11.345-1.431-11.345z"/><path fill="#eea886" d="M148.61 216.903s1.277 2.553 2.554 2.978c1.276.426 3.137 2.5 3.137 2.5l-8.987 4.733s-2.393-4.68-2.5-7.658c-.106-2.979 5.797-2.553 5.797-2.553z"/><path fill="#decbc4" d="M149.464 217.143l.595 1.196s-5.708 4.174-7.246 4.44l-.528-1.595z"/><path fill="#3c4145" d="M150.06 217.195s-4.278 3.537-7.882 5.168l-16.148-28.315 10.307-5.635s13.438 26.655 13.722 28.782z"/><path fill="#2d3133" d="M186.272 167.124c.198 4.034.17 7.617.17 7.617v.003c0 .02.004.128.013.309l.025-.203a352.713 352.713 0 0 0 2.082 5.648c.168-2.202.211-4.255.162-6.155-.29-11.31-3.846-17.243-3.846-17.243.816 1.972 1.207 6.201 1.394 10.024z"/><path fill="url(#s)" d="M135.42 249.697h11.654l-3.567-7.399h-11.655z"/><path fill="url(#t)" d="M129.966 249.697h2.777l-3.567-7.399h-2.777z"/></svg>