<svg xmlns="http://www.w3.org/2000/svg" width="94" height="13" viewBox="0 0 94 13"><path fill="#ffcf5c" d="M7.453.274l1.89 3.723 4.224.599a.5.5 0 0 1 .408.334c.06.178.01.373-.128.504L10.79 8.33l.721 4.094a.486.486 0 0 1-.2.48.517.517 0 0 1-.533.038L7 11.012l-3.778 1.932a.518.518 0 0 1-.532-.038.486.486 0 0 1-.201-.481l.721-4.091L.153 5.437a.482.482 0 0 1-.128-.504.501.501 0 0 1 .408-.334l4.224-.601L6.547.274A.508.508 0 0 1 7 0c.192 0 .368.106.453.274zm20 0l1.89 3.723 4.224.599a.5.5 0 0 1 .408.334c.06.178.01.373-.128.504L30.79 8.33l.721 4.094a.486.486 0 0 1-.2.48.517.517 0 0 1-.533.038L27 11.012l-3.778 1.932a.518.518 0 0 1-.532-.038.486.486 0 0 1-.201-.481l.721-4.091-3.057-2.897a.482.482 0 0 1-.128-.504.501.501 0 0 1 .408-.334l4.224-.601 1.89-3.724A.508.508 0 0 1 27 0c.192 0 .368.106.453.274zm20 0l1.89 3.723 4.224.599a.5.5 0 0 1 .408.334c.06.178.01.373-.128.504L50.79 8.33l.721 4.094a.486.486 0 0 1-.2.48.517.517 0 0 1-.533.038L47 11.012l-3.778 1.932a.518.518 0 0 1-.532-.038.486.486 0 0 1-.201-.481l.721-4.091-3.057-2.897a.482.482 0 0 1-.128-.504.501.501 0 0 1 .408-.334l4.224-.601 1.89-3.724A.508.508 0 0 1 47 0a.51.51 0 0 1 .454.274z"/><path fill="#fff8e7" d="M67.453.274l1.89 3.723 4.224.599a.5.5 0 0 1 .408.334c.06.178.01.373-.128.504L70.79 8.33l.721 4.094a.486.486 0 0 1-.2.48.517.517 0 0 1-.533.038L67 11.012l-3.778 1.932a.518.518 0 0 1-.532-.038.486.486 0 0 1-.201-.481l.721-4.091-3.057-2.897a.482.482 0 0 1-.128-.504.501.501 0 0 1 .408-.334l4.224-.601 1.89-3.724A.508.508 0 0 1 67 0c.192 0 .368.106.453.274z"/><path fill="#ffcf5c" d="M62.987 12.999c.081 0 .163-.02.235-.057L67 11.012V0a.505.505 0 0 0-.454.273l-1.889 3.725-4.224.598a.503.503 0 0 0-.408.334.48.48 0 0 0 .128.504L63.21 8.33l-.722 4.094a.484.484 0 0 0 .202.481c.087.061.19.094.297.094z"/><path fill="#fff8e7" d="M87.453.274l1.89 3.723 4.224.599a.5.5 0 0 1 .408.334c.06.178.01.373-.128.504L90.79 8.33l.721 4.094a.486.486 0 0 1-.2.48.517.517 0 0 1-.533.038L87 11.012l-3.778 1.932a.518.518 0 0 1-.532-.038.486.486 0 0 1-.201-.481l.721-4.091-3.057-2.897a.482.482 0 0 1-.128-.504.501.501 0 0 1 .408-.334l4.224-.601 1.89-3.724A.508.508 0 0 1 87 0a.51.51 0 0 1 .454.274z"/></svg>