<svg xmlns="http://www.w3.org/2000/svg" width="25" height="20" viewBox="0 0 25 20"><path fill="#2aa3ef" d="M25.105 2.367a10.13 10.13 0 0 1-2.9.796A5.065 5.065 0 0 0 24.425.37c-.977.579-2.057.999-3.208 1.224A5.041 5.041 0 0 0 17.53 0a5.05 5.05 0 0 0-4.919 6.2A14.336 14.336 0 0 1 2.204.924a5.013 5.013 0 0 0-.683 2.54c0 1.75.892 3.296 2.246 4.2a5.008 5.008 0 0 1-2.287-.63v.064a5.051 5.051 0 0 0 4.05 4.95 5.042 5.042 0 0 1-2.28.086 5.058 5.058 0 0 0 4.718 3.507 10.146 10.146 0 0 1-6.273 2.16c-.407 0-.81-.023-1.205-.07A14.291 14.291 0 0 0 8.23 20c9.29 0 14.37-7.693 14.37-14.365 0-.22-.006-.436-.015-.653a10.264 10.264 0 0 0 2.52-2.613v-.002z"/></svg>