<svg xmlns="http://www.w3.org/2000/svg" width="176" height="155" viewBox="0 0 176 155"><defs><linearGradient id="a" x1="88" x2="88" y2="154.37" gradientUnits="userSpaceOnUse"><stop offset="0" stop-color="#f87223"/><stop offset="1" stop-color="#ff647c"/></linearGradient><linearGradient id="b" x1="88" x2="88" y1="45.49" y2="94.75" gradientUnits="userSpaceOnUse"><stop offset="0" stop-color="#f87223"/><stop offset="1" stop-color="#ff647c"/></linearGradient><linearGradient id="c" x1="88" x2="88" y1="108.19" y2="123.69" gradientUnits="userSpaceOnUse"><stop offset="0" stop-color="#f87223"/><stop offset="1" stop-color="#ff647c"/></linearGradient></defs><path fill="url(#a)" d="M22.478 140.156a8.386 8.386 0 0 1-4.064-1.122 8.318 8.318 0 0 1-3.9-5.084 8.318 8.318 0 0 1 .812-6.313L80.854 18.244a8.406 8.406 0 0 1 2.808-2.802 8.32 8.32 0 0 1 6.335-.974 8.318 8.318 0 0 1 5.16 3.776l65.526 109.392a8.388 8.388 0 0 1 1.098 4.054c.051 4.607-3.647 8.397-8.248 8.466zm150.494-19.67l-.057-.1-65.573-109.468-.02-.033A22.444 22.444 0 0 0 93.379.657a22.442 22.442 0 0 0-17.091 2.628 22.688 22.688 0 0 0-7.6 7.6l-.02.033L3.095 120.386l-.058.099A22.444 22.444 0 0 0 .78 137.628a22.444 22.444 0 0 0 10.526 13.72 22.646 22.646 0 0 0 11.128 3.026h131.223c12.456-.137 22.48-10.382 22.343-22.84a22.64 22.64 0 0 0-3.027-11.049z"/><path fill="url(#b)" d="M88.005 45.49a7.75 7.75 0 0 0-7.75 7.751v33.761a7.75 7.75 0 1 0 15.5 0V53.241a7.75 7.75 0 0 0-7.75-7.75z"/><path fill="url(#c)" d="M93.485 110.459a7.793 7.793 0 0 0-5.481-2.27c-2.04 0-4.037.827-5.48 2.27a7.819 7.819 0 0 0-2.27 5.48 7.81 7.81 0 0 0 2.27 5.481 7.804 7.804 0 0 0 5.48 2.27 7.8 7.8 0 0 0 5.48-2.27 7.797 7.797 0 0 0 2.27-5.48c0-2.04-.827-4.038-2.27-5.481z"/></svg>