<svg id="Слой_1" xmlns="http://www.w3.org/2000/svg" viewBox="0 0 200 90.5"><style>.st0{fill:#fff}</style><path class="st0" d="M38.4 0h3.1v90.5h-3.1zm34.5 0H76v90.5h-3.1zm29.4 0h3.1v90.5h-3.1zm29 0h3.1v90.5h-3.1zm34.5 0h3.1v90.5h-3.1zm31.1 0h3.1v90.5h-3.1z"/><path class="st0" d="M35.9 46.9V16.1h2.5v30.8h-2.5zm-15.9 0l-7.9-11.8H2.5v11.8H0V16.1h10.4c3.2 0 5.8 1 7.6 2.7 1.8 1.7 2.8 4.1 2.8 6.8 0 3.8-1.8 6.1-3.5 7.4-1 .8-2 1.2-2.7 1.4L23 46.9h-3zM2.5 33h7.9c5 0 7.8-3 7.9-7.3 0-4.3-2.9-7.3-7.9-7.3H2.5V33zm89.3 13.9V16.1h2.5v30.8h-2.5zm62.5 0l-7.9-11.8h-9.5v11.8h-2.5V16.1h10.4c3.2 0 5.8 1 7.6 2.7 1.8 1.7 2.8 4.1 2.8 6.8 0 3.8-1.8 6.1-3.5 7.4-1 .8-2 1.2-2.7 1.4l8.4 12.4h-3.1v.1zM136.9 33h7.9c5 0 7.8-3 7.9-7.3 0-4.3-2.9-7.3-7.9-7.3h-7.9V33zm54.2 13.9h3l-3-7.3-10-23.5h-1.9l-10.3 24.1V45l4.3-10.3h12.7l5.2 12.2zm-17-14.4l5.4-12.9 5.5 12.9h-10.9zM66.7 46.9L56.6 23.4l-3-7.3h3l11.6 27.3 4.7-10.8V37l-4.4 9.9h-1.8zm38.6 0V16.1h16.5v2.2h-14V30h12.8v2.2h-12.8v12.6h14v2.1h-16.5z"/></svg>