<svg width="85" height="25" viewBox="0 0 85 25" xmlns="http://www.w3.org/2000/svg"><title>42E5A653-B6E7-4035-8912-4005A8DFE4A8</title><g fill="none" fill-rule="evenodd"><rect fill="#000" width="85" height="25" rx="3"/><path d="M17.922 11.87c0-2.015 1.714-2.99 1.78-3.055-.989-1.365-2.438-1.56-2.966-1.625-1.252-.13-2.503.715-3.096.715-.66 0-1.648-.715-2.702-.715-1.384 0-2.636.78-3.36 2.015-1.45 2.47-.396 6.11.988 8.125.725.975 1.515 2.08 2.57 2.015 1.054-.065 1.45-.65 2.701-.65 1.252 0 1.582.65 2.702.65 1.12 0 1.845-.975 2.504-1.95.79-1.105 1.12-2.21 1.12-2.275-.066-.065-2.24-.845-2.24-3.25zM15.88 5.89c.527-.715.922-1.625.856-2.6-.79.065-1.845.52-2.372 1.235-.527.585-.988 1.56-.856 2.47.856.065 1.779-.455 2.372-1.105zm17.066 13.325h-1.45l-.79-2.47h-2.768l-.725 2.47H25.83l2.768-8.385h1.713l2.636 8.385zm-2.504-3.51l-.725-2.21c-.066-.195-.198-.78-.461-1.56-.066.325-.198.91-.396 1.56l-.724 2.21h2.306zm9.554.455c0 1.04-.263 1.82-.856 2.47-.528.52-1.12.78-1.911.78-.791 0-1.384-.26-1.713-.845v3.185h-1.384v-6.5c0-.65 0-1.3-.066-2.015h1.186l.066.975c.461-.715 1.12-1.105 2.042-1.105.725 0 1.318.26 1.78.845.593.52.856 1.235.856 2.21zm-1.384 0c0-.585-.131-1.105-.395-1.43-.264-.39-.659-.585-1.186-.585-.33 0-.659.13-.922.325-.264.195-.462.52-.528.845-.065.195-.065.325-.065.39v1.04c0 .455.131.78.395 1.105.263.325.659.455 1.054.455.527 0 .923-.195 1.186-.585.33-.39.461-.91.461-1.56zm8.435 0c0 1.04-.264 1.82-.857 2.47-.527.52-1.12.78-1.91.78-.792 0-1.385-.26-1.714-.845v3.185h-1.384v-6.5c0-.65 0-1.3-.066-2.015h1.186l.066.975c.461-.715 1.12-1.105 2.043-1.105.725 0 1.318.26 1.779.845.593.52.857 1.235.857 2.21zm-1.384 0c0-.585-.132-1.105-.396-1.43-.263-.39-.658-.585-1.186-.585-.33 0-.659.13-.922.325a1.44 1.44 0 0 0-.527.845c-.066.195-.066.325-.066.39v1.04c0 .455.132.78.395 1.105.264.325.66.455 1.055.455.527 0 .922-.195 1.186-.585.329-.39.46-.91.46-1.56zm9.29.715c0 .715-.263 1.3-.724 1.755-.527.52-1.318.715-2.307.715-.922 0-1.647-.195-2.174-.52l.33-1.105c.593.325 1.251.52 1.976.52.527 0 .923-.13 1.186-.325.264-.26.396-.52.396-.91 0-.325-.132-.65-.33-.845-.263-.26-.659-.455-1.186-.65-1.515-.52-2.24-1.365-2.24-2.405 0-.715.263-1.235.79-1.69.528-.455 1.187-.65 2.11-.65.79 0 1.383.13 1.91.39l-.33 1.105c-.46-.26-.988-.39-1.647-.39-.461 0-.856.13-1.12.325a1.07 1.07 0 0 0-.33.78c0 .325.132.585.396.845.198.195.659.39 1.252.65.725.26 1.252.65 1.647 1.04.198.325.395.78.395 1.365zm4.481-2.665H57.92v2.925c0 .715.263 1.105.79 1.105.264 0 .462 0 .593-.065l.066 1.04c-.263.13-.593.13-1.054.13-.527 0-.988-.13-1.252-.455-.33-.325-.461-.845-.461-1.625V14.21h-.923v-1.04h.923v-1.105l1.318-.39v1.495h1.515v1.04zm6.786 1.95c0 .91-.263 1.69-.79 2.275-.593.585-1.318.91-2.24.91-.923 0-1.647-.325-2.174-.91-.528-.585-.791-1.3-.791-2.21 0-.91.263-1.69.856-2.275.528-.585 1.318-.91 2.24-.91.923 0 1.648.325 2.175.91.461.585.725 1.3.725 2.21zm-1.449.065c0-.585-.131-1.04-.395-1.43a1.416 1.416 0 0 0-1.252-.715c-.527 0-.988.26-1.252.715-.263.39-.395.91-.395 1.43 0 .585.132 1.04.395 1.43.264.455.725.715 1.252.715s.923-.26 1.252-.715c.264-.39.395-.91.395-1.43zm5.865-1.885c-.132 0-.264-.065-.462-.065-.46 0-.856.195-1.12.52-.197.325-.33.715-.33 1.17v3.185h-1.383v-4.16c0-.715 0-1.3-.066-1.885h1.186l.066 1.17h.066c.132-.39.395-.715.659-.975.33-.195.659-.325.988-.325h.33v1.365h.066zm6.062 1.56c0 .26 0 .455-.066.585h-4.085c0 .585.197 1.04.593 1.365.329.26.79.455 1.317.455.593 0 1.186-.065 1.648-.26l.197.91c-.593.26-1.252.39-2.042.39-.923 0-1.713-.26-2.24-.845-.528-.52-.791-1.3-.791-2.21 0-.91.263-1.69.724-2.275.528-.65 1.252-.975 2.175-.975.856 0 1.581.325 1.977.975.46.52.593 1.17.593 1.885zm-1.252-.325c0-.39-.066-.715-.264-1.04-.263-.39-.593-.585-1.054-.585-.461 0-.79.195-1.054.52-.198.26-.33.65-.396 1.04h2.768v.065zM28.325 8.194c-.253 0-.486-.03-.7-.088a1.574 1.574 0 0 1-.554-.27 1.24 1.24 0 0 1-.365-.456 1.516 1.516 0 0 1-.13-.655h.54c.004.187.04.346.11.477a.9.9 0 0 0 .272.316c.113.08.244.137.395.173.15.035.31.052.48.052.146 0 .283-.02.41-.061a1 1 0 0 0 .328-.176.796.796 0 0 0 .3-.635.696.696 0 0 0-.09-.371.62.62 0 0 0-.234-.222 1.025 1.025 0 0 0-.338-.108 2.707 2.707 0 0 0-.406-.03 7.851 7.851 0 0 0-.38.012v-.456c.048.007.111.011.19.011h.19c.135 0 .258-.012.37-.038a.784.784 0 0 0 .291-.125.594.594 0 0 0 .19-.232.82.82 0 0 0 .068-.353.637.637 0 0 0-.074-.322.584.584 0 0 0-.201-.208.911.911 0 0 0-.29-.114 1.617 1.617 0 0 0-.342-.035c-.312 0-.557.067-.735.202-.178.134-.283.354-.315.658h-.54c.009-.222.055-.416.14-.582.085-.166.199-.302.341-.41.142-.107.31-.188.501-.242.192-.055.4-.082.626-.082.201 0 .39.022.566.067.176.045.33.114.46.208a1.002 1.002 0 0 1 .421.86c0 .113-.02.218-.06.315a.983.983 0 0 1-.157.264 1.051 1.051 0 0 1-.483.327v.018c.138.027.261.073.368.137a.95.95 0 0 1 .427.53c.035.109.053.22.053.333a1.247 1.247 0 0 1-.377.848 1.58 1.58 0 0 1-.51.331 1.94 1.94 0 0 1-.756.132zm3.138-.03a1.64 1.64 0 0 1-.392-.044.887.887 0 0 1-.323-.146.718.718 0 0 1-.22-.263.866.866 0 0 1-.08-.39c0-.17.03-.311.09-.42a.769.769 0 0 1 .234-.266 1.08 1.08 0 0 1 .332-.155c.124-.036.252-.065.382-.088.139-.028.27-.048.395-.062.124-.013.234-.033.329-.058a.551.551 0 0 0 .225-.111c.055-.049.083-.12.083-.214a.49.49 0 0 0-.062-.263.425.425 0 0 0-.16-.152.657.657 0 0 0-.22-.07 1.68 1.68 0 0 0-.24-.018c-.213 0-.391.04-.534.12-.142.08-.219.231-.23.453h-.505c.008-.187.047-.345.119-.473a.891.891 0 0 1 .284-.313c.119-.08.254-.138.407-.173.152-.035.315-.053.489-.053.138 0 .276.01.412.03.136.02.26.06.37.12a.7.7 0 0 1 .267.254c.068.11.101.252.101.427v1.556c0 .117.007.203.021.258.014.054.06.081.14.081.035 0 .086-.01.154-.029v.386a.721.721 0 0 1-.362.076.437.437 0 0 1-.312-.108c-.077-.072-.115-.19-.115-.354a1.21 1.21 0 0 1-.483.354 1.617 1.617 0 0 1-.596.108zm.112-.433c.166 0 .309-.022.427-.067a.9.9 0 0 0 .29-.17.67.67 0 0 0 .167-.222.556.556 0 0 0 .053-.225v-.509a.558.558 0 0 1-.249.105 6.57 6.57 0 0 1-.323.053l-.341.047a1.186 1.186 0 0 0-.308.082.56.56 0 0 0-.223.166.462.462 0 0 0-.086.296.4.4 0 0 0 .05.208.417.417 0 0 0 .131.137c.053.035.116.06.187.076s.146.023.225.023zm2.236-2.655h2.1v.438h-1.596V8.1h-.504V5.076zm2.52 0h.504v.41h.012a.75.75 0 0 1 .392-.367c.177-.076.373-.114.587-.114.237 0 .443.043.62.13.175.085.322.2.438.347.117.146.205.315.264.506.06.191.09.394.09.609 0 .218-.03.422-.087.61-.057.19-.144.356-.26.498a1.228 1.228 0 0 1-.44.336 1.44 1.44 0 0 1-.613.123 1.513 1.513 0 0 1-.528-.1 1.082 1.082 0 0 1-.258-.142.805.805 0 0 1-.205-.226h-.012v1.556h-.504V5.076zm1.453 2.655a.798.798 0 0 0 .718-.363c.07-.108.122-.233.154-.374.032-.14.047-.284.047-.433 0-.14-.018-.277-.056-.412a1.106 1.106 0 0 0-.172-.36.84.84 0 0 0-.296-.251.91.91 0 0 0-.425-.094.875.875 0 0 0-.432.1.864.864 0 0 0-.291.26 1.07 1.07 0 0 0-.163.365 1.731 1.731 0 0 0 .003.846c.035.138.092.26.169.365a.86.86 0 0 0 .3.255c.122.064.27.096.444.096zm2.36 1.574c-.059 0-.118-.004-.178-.012a.85.85 0 0 1-.172-.04v-.457l.146.047a.5.5 0 0 0 .151.023.409.409 0 0 0 .25-.07.594.594 0 0 0 .165-.205l.208-.509-1.216-3.006h.57l.895 2.474h.012l.86-2.474h.533l-1.334 3.422c-.06.148-.118.273-.175.374-.057.102-.12.184-.19.249a.646.646 0 0 1-.231.14.9.9 0 0 1-.294.044zm3.778-1.14c-.407 0-.726-.09-.955-.27-.23-.18-.354-.435-.373-.766h.51c.015.222.098.382.249.48.15.097.338.146.563.146.241 0 .427-.05.557-.152a.47.47 0 0 0 .196-.386.448.448 0 0 0-.148-.357c-.099-.086-.267-.129-.504-.129h-.41v-.404h.327c.178 0 .33-.036.456-.108.127-.072.19-.198.19-.377 0-.113-.054-.213-.163-.298-.109-.086-.27-.13-.483-.13-.091 0-.181.01-.27.03a.789.789 0 0 0-.24.094.564.564 0 0 0-.178.17.571.571 0 0 0-.09.257h-.51a.96.96 0 0 1 .137-.465.917.917 0 0 1 .297-.293c.118-.072.253-.124.403-.155a2.24 2.24 0 0 1 .901 0c.139.031.26.081.365.15a.789.789 0 0 1 .25.254.688.688 0 0 1 .091.362c0 .176-.05.318-.151.428a.647.647 0 0 1-.341.204v.012a.761.761 0 0 1 .213.07.639.639 0 0 1 .19.144.72.72 0 0 1 .137.222c.035.088.053.19.053.307a.827.827 0 0 1-.391.725 1.337 1.337 0 0 1-.407.176 1.887 1.887 0 0 1-.471.058zm1.874-3.09h.504v2.47l1.447-2.47h.646V8.1h-.504V5.631L46.442 8.1h-.646V5.076zm4.098.44h-1.097v-.44h2.698v.44h-1.097V8.1h-.504V5.514zm3.309 2.65c-.245 0-.46-.04-.644-.118a1.245 1.245 0 0 1-.46-.327 1.386 1.386 0 0 1-.275-.503 2.117 2.117 0 0 1-.092-.638c0-.226.036-.436.107-.629a1.5 1.5 0 0 1 .3-.5c.128-.14.28-.25.456-.328a1.41 1.41 0 0 1 .578-.117c.273 0 .5.056.68.167.179.111.323.253.432.424.109.172.184.359.225.562a2.3 2.3 0 0 1 .05.579h-2.294c-.004.133.012.258.047.377a.851.851 0 0 0 .172.316c.08.092.18.165.303.22.122.054.266.081.433.081a.881.881 0 0 0 .524-.146.706.706 0 0 0 .27-.444h.498c-.067.343-.215.6-.444.769-.23.17-.518.254-.866.254zm.824-1.867a1.006 1.006 0 0 0-.08-.333.852.852 0 0 0-.804-.52.888.888 0 0 0-.352.066.815.815 0 0 0-.27.185.88.88 0 0 0-.178.272.983.983 0 0 0-.077.33h1.761zm2.704-1.222h1.418c.134 0 .263.01.388.029.125.02.236.055.335.108a.608.608 0 0 1 .237.225c.06.098.09.223.09.375 0 .163-.04.296-.12.397a.884.884 0 0 1-.331.252v.006a.704.704 0 0 1 .424.246.762.762 0 0 1 .157.497.92.92 0 0 1-.069.357.804.804 0 0 1-.192.28.914.914 0 0 1-.297.185 1.01 1.01 0 0 1-.373.067H56.73V5.076zm1.572 2.603c.166 0 .291-.048.376-.144a.521.521 0 0 0 .128-.36.42.42 0 0 0-.137-.327c-.09-.082-.243-.123-.456-.123h-.985v.954h1.074zm-.208-1.363c.218 0 .369-.04.454-.117a.4.4 0 0 0 .127-.31.354.354 0 0 0-.124-.29c-.083-.068-.235-.102-.457-.102h-.866v.819h.866z" fill="#FFF"/></g></svg>