<svg fill="#fff" viewBox="0 0 512 512" xmlns="http://www.w3.org/2000/svg"><path d="M324.4 343.7l-19.9-19.9c-14 9.1-30.5 14-47.3 14-23.2 0-45-9.1-61.4-25.4-16.4-16.4-25.5-38.2-25.5-61.5 0-23.2 9-45 25.5-61.4 16.4-16.4 38.2-25.5 61.4-25.5 23.2 0 45 9.1 61.4 25.5 29.3 29.3 33.6 74.6 11.5 108.7l19.9 19.9 12.9-12.9 32.7 27.1V73.7l-109.4 30.4-5.7-1.6-99-27.5-4.8-1.3-109.3 30.4v279.5l109.4-30.3 6.4 1.8 103 28.6 36.6-13.3-11.4-13.8 13-12.9z"/><path d="M431.3 373.4l-67.8-56-13.5 13.5-31.3-31.3c-.1-.1-.3-.2-.5-.4 24.2-30.5 22.2-75-6-103.3-30.4-30.4-79.7-30.4-110.1 0-30.4 30.4-30.4 79.7 0 110.1 28.2 28.2 72.8 30.2 103.3 6 .1.1.2.3.4.5l31.3 31.3-13.5 13.5 56 67.8c13.8 16.6 38.8 17.8 54.1 2.6 15.4-15.4 14.2-40.5-2.4-54.3zm-135.9-84.3c-21.1 21.1-55.2 21.1-76.3 0-21.1-21.1-21.1-55.2 0-76.3 21.1-21.1 55.2-21.1 76.3 0 21 21.1 21 55.2 0 76.3z"/><path d="M238.4 206.6c-4.9.9-8.2 5.5-7.4 10.4.8 4.9 5.5 8.2 10.4 7.4 1.5-.2 37-5.8 47.5 22.6 1.4 3.7 4.8 5.9 8.5 5.9 1 0 2.1-.2 3.1-.6 4.7-1.7 7.1-7 5.3-11.6-12.5-34-49.5-37.2-67.4-34.1z"/></svg>