<svg fill="#fff" height="80" viewBox="0 0 48 48" width="80" xmlns="http://www.w3.org/2000/svg"><path d="M24 .017c-13.255 0-24 10.745-24 24s10.745 24.001 24 24.001 24-10.746 24-24.001-10.745-24-24-24zm0 44.126c-11.046 0-20-8.955-20-20.001s8.954-20 20-20 20 8.954 20 20-8.954 20.001-20 20.001z"/><path d="M22.782 31.945c-1.723 0-2.584.885-2.584 2.654 0 .855.223 1.52.668 1.994s1.084.713 1.916.713c.833 0 1.473-.244 1.924-.73s.678-1.145.678-1.977c0-.844-.223-1.498-.668-1.961s-1.09-.693-1.934-.693zm6.557-19.53c-1.348-1.125-3.17-1.688-5.466-1.688-2.283 0-4.443.473-6.486 1.406-1.146.516-.632 1.686-.63 1.692l.458.959s.541.917 1.707.466c.012-.004.016-.002.027-.007a22.096 22.096 0 0 1 1.532-.58c.949-.316 1.98-.475 3.094-.475 1.23 0 2.173.264 2.83.791s.984 1.283.984 2.268c0 .844-.203 1.57-.607 2.18s-1.303 1.465-2.697 2.566c-1.171.914-1.992 1.799-2.461 2.654-.469.856-.703 1.929-.703 3.218-.045.938 1.15 1.125 1.15 1.125h.722s1.374.008 1.584-1.176c.003-.016.008-.021.011-.037.048-.75.22-1.371.531-1.846.369-.563 1.1-1.272 2.189-2.128 1.277-.996 2.176-1.805 2.697-2.426s.912-1.274 1.17-1.96.387-1.468.387-2.347c-.002-1.977-.675-3.53-2.023-4.655z"/></svg>