<svg width="84" height="25" viewBox="0 0 84 25" xmlns="http://www.w3.org/2000/svg"><title>7A1A68A9-3852-4DC6-B327-760BE22EC0B7</title><defs><linearGradient x1="29.532%" y1="-6.096%" x2="55.094%" y2="92.156%" id="a"><stop stop-color="#006884" offset="0%"/><stop stop-color="#8AD1D0" offset="100%"/></linearGradient><linearGradient x1="-7.528%" y1="15.759%" x2="91.537%" y2="86.25%" id="b"><stop stop-color="#24BBB6" offset="0%"/><stop stop-color="#DBE692" offset="100%"/></linearGradient><linearGradient x1="49.94%" y1="105.755%" x2="49.94%" y2="-3.127%" id="c"><stop stop-color="#FCC072" offset="0%"/><stop stop-color="#F58A5B" offset="100%"/></linearGradient><linearGradient x1="11.149%" y1="117.837%" x2="90.437%" y2="12.103%" id="d"><stop stop-color="#712B8F" offset="0%"/><stop stop-color="#EA1D27" offset="100%"/></linearGradient></defs><g fill="none" fill-rule="evenodd"><rect fill="#000" width="84" height="25" rx="3"/><path d="M0 7V1c0-.68.32-1 1-1-.041 0 .087.064 0 0l13 7c-.128.115 0 .308 0 1 0-.308-.128-.115 0 0L1 15c.15-.128-.041 0 0 0-.68 0-1-.32-1-1V7z" fill="url(#a)" transform="translate(7 5)"/><path d="M7.67 7.81L.142.39H.27c.321 0 .45.064.643.19l9.136 4.947L7.67 7.81z" fill="url(#b)" transform="translate(7 5)"/><path d="M9.986 10.03L7.67 7.745 10.05 5.4l3.282 1.776c.257.126.386.317.386.507s-.129.38-.386.507l-3.346 1.84z" fill="url(#c)" transform="translate(7 5)"/><path d="M.206 15.102L7.67 7.746l2.316 2.283-9.072 4.883c-.193.127-.322.19-.708.19z" fill="url(#d)" transform="translate(7 5)"/><path d="M46.068 17.815c-.321-.254-.579-.698-.708-.952l1.03-.443c.064.126.193.317.322.507.257.253.643.507 1.03.507.385 0 .836-.19 1.093-.507.193-.317.322-.634.322-1.078v-.38c-.773.95-2.381.824-3.282-.191-.965-1.015-.965-2.727 0-3.741.965-.952 2.38-1.078 3.217-.19v-.445h1.094v4.757c0 1.204-.45 1.902-1.03 2.346-.385.317-.965.444-1.48.444-.578-.064-1.157-.254-1.608-.634zm26.96.253l1.093-2.536-1.93-4.376h1.093l1.352 3.107 1.35-3.107h1.095l-2.96 6.912h-1.094zm-5.212-2.41c-.322-.317-.45-.76-.45-1.204 0-.38.128-.761.385-1.015.45-.444 1.094-.634 1.802-.634.45 0 .836.063 1.158.254 0-.761-.644-1.079-1.158-1.079-.45 0-.901.254-1.094.698l-.965-.38c.193-.444.708-1.269 1.994-1.269.644 0 1.287.19 1.673.634.386.444.515.952.515 1.65v2.663h-1.094v-.444c-.129.19-.386.317-.579.444a2.08 2.08 0 0 1-.9.19c-.387-.064-.966-.19-1.287-.507zm-34.294-2.282c0-1.269.965-2.664 2.702-2.664 1.673 0 2.702 1.395 2.702 2.664 0 1.268-.965 2.663-2.702 2.663s-2.702-1.395-2.702-2.663zm5.79 0c0-1.269.966-2.664 2.703-2.664 1.673 0 2.702 1.395 2.702 2.664 0 1.268-.965 2.663-2.702 2.663-1.673 0-2.703-1.395-2.703-2.663zm-13.06 1.395c-1.61-1.586-1.545-4.186.064-5.834a4.116 4.116 0 0 1 2.96-1.205 4.02 4.02 0 0 1 2.83 1.141l-.772.825c-1.158-1.142-3.024-1.078-4.118.063a3.032 3.032 0 0 0 0 4.249c1.158 1.205 3.089 1.268 4.247.063.386-.38.515-.888.579-1.395H29.34v-1.141h3.796c.064.253.064.57.064.887 0 .952-.386 1.903-1.03 2.537-.707.698-1.737 1.078-2.766 1.078-1.158-.063-2.316-.444-3.153-1.268zm27.215.444c-.965-1.015-.965-2.727 0-3.805.966-1.015 2.574-1.015 3.475 0 .322.317.515.76.708 1.205l-3.54 1.458c.194.444.644.825 1.288.825.579 0 .965-.19 1.35-.761l.966.634c-.129.127-.257.253-.322.38-1.094 1.078-2.96 1.078-3.925.064zm6.692.76V8.938h2.316c1.351 0 2.445.95 2.445 2.092 0 1.142-.965 2.093-2.187 2.093h-1.416v2.79H60.16v.064zm5.405 0V8.938h1.093v7.039h-1.093zm-14.542-.126V7.985h1.159v7.864h-1.159zm19.625-1.966c-.258-.19-.644-.254-1.03-.254-.772 0-1.222.38-1.222.825 0 .444.45.697.9.697.644 0 1.352-.507 1.352-1.268zm-32.943-.507c0-.761-.515-1.586-1.48-1.586s-1.48.825-1.48 1.586c0 .76.515 1.585 1.48 1.585.9 0 1.48-.824 1.48-1.585zm5.79 0c0-.761-.514-1.586-1.48-1.586-.964 0-1.48.825-1.48 1.586 0 .76.516 1.585 1.48 1.585.966 0 1.48-.824 1.48-1.585zm5.727.444c0-.064 0-.127.064-.19v-.571c0-.064-.064-.19-.064-.254-.193-.634-.772-1.078-1.351-1.078-.772 0-1.416.76-1.416 1.585 0 .888.644 1.586 1.48 1.586.515.063 1.03-.38 1.287-1.078zm4.697-.571l2.38-1.015a1.077 1.077 0 0 0-.965-.57c-.965.063-1.544 1.077-1.415 1.585zm9.844-2.156c0-.634-.515-1.078-1.222-1.078h-1.287v2.22h1.35c.644 0 1.159-.508 1.159-1.142z" fill="#FFF"/></g></svg>