<svg viewBox="0 0 26 26" xmlns="http://www.w3.org/2000/svg"><g fill="#1D1D1B"><path d="M24.9 24.054a.719.719 0 0 0 .084-.276c.003-.027.016-.05.016-.078 0-.025-.012-.046-.014-.07-.003-.025.005-.048 0-.072l-1.83-9.482c-.006-.027-.023-.048-.03-.073a.72.72 0 0 0-.362-.44.723.723 0 0 0-.27-.08c-.026-.002-.049-.015-.075-.015h-4.083l.282-.383.022-.03c.682-.96 1.496-2.5 1.496-4.37 0-3.922-3.179-7.115-7.093-7.135h-.051c-3.915.02-7.094 3.213-7.094 7.134 0 1.855.8 3.383 1.48 4.347l.022.033.298.404H3.58c-.027 0-.05.013-.077.016a.725.725 0 0 0-.63.518c-.007.026-.024.047-.03.074l-1.83 9.482c-.005.024.003.047 0 .071-.002.025-.014.046-.014.071 0 .028.013.05.016.078a.723.723 0 0 0 .264.493.716.716 0 0 0 .255.136c.026.008.046.024.072.03a.781.781 0 0 0 .142.013H24.25a.769.769 0 0 0 .143-.013c.026-.006.046-.022.072-.03a.724.724 0 0 0 .434-.353zM7.397 8.684a5.64 5.64 0 0 1 5.62-5.634 5.639 5.639 0 0 1 5.618 5.634c0 1.464-.653 2.7-1.205 3.484l-.006.007-4.407 5.996-4.392-5.973-.008-.01c-.556-.785-1.22-2.029-1.22-3.504zm5.002 11.18c.142.193.392.306.63.306s.463-.114.605-.306l3.599-4.896H21.8l1.541 7.982H2.66l1.54-7.982h4.6l3.6 4.896z"/><path d="M13.03 11.847c1.741 0 3.158-1.419 3.158-3.163s-1.417-3.163-3.158-3.163c-1.742 0-3.159 1.419-3.159 3.163s1.417 3.163 3.16 3.163zm0-5.326a2.163 2.163 0 0 1 0 4.326 2.164 2.164 0 0 1 0-4.326z"/></g></svg>