<svg fill="#fff" viewBox="0 0 512 512" xmlns="http://www.w3.org/2000/svg"><path d="M189.2 181.3c10.5 11.5 30.1 35 40 59.8.4.8.6 1.6.9 2.4l.9-2.5c9.9-24.7 29.5-48.2 40-59.7l7-7.3c11.1-12.3 17.9-28.6 17.9-46.5 0-36.8-28.7-66.9-64.9-69.2-.3 0-.6-.1-.9-.1l-.9.1c-36.2 2.3-64.9 32.4-64.9 69.2 0 17.9 6.7 34.2 17.9 46.5l7 7.3zM229.4 99c17.4 0 31.5 14.1 31.5 31.5S246.8 162 229.4 162s-31.5-14.1-31.5-31.5S212 99 229.4 99zm123.1 92.8v120.9l79.1-8.9h1v-112h-80.1zm-196.5 0H79.3v151.5l76.7-8.6z"/><path d="M239.4 244.3L229.1 272l-7.7-26c-.1-.4-.2-.8-.4-1.1l-.2-.5c-8.1-20.4-23.7-40.4-34.3-52.6h-12.3v140.8l160.3-17.9V191.8h-60.7c-10.6 12-26.1 32-34.4 52.5zM79.3 361.4v92.4h135.9V346.3L80.4 361.4h-1.1zm154 92.4h199.4V321.9l-199.4 22.3z"/></svg>