<svg id="color_3_" xmlns="http://www.w3.org/2000/svg" viewBox="0 0 99.8 100"><style>.st0,.st1{fill-rule:evenodd;clip-rule:evenodd;fill:#38aae2}.st1{fill:#191919}</style><path class="st0" d="M51.6 16.1v32.3h11.3c3.6 0 6.5 2.9 6.5 6.5h24.2V16.1h-42z" id="color"/><path class="st1" d="M91.7 0H53c-4.4 0-8 3.6-8 8.1v12c-.8-.3-1.6-.5-2.5-.5-3.9 0-7 3.2-7 7v.3c0 8.3-4.1 16-11.1 20.5-4 2.6-8.7 4-13.5 4v3.2h.3c5.3 0 10.5-1.6 15-4.6 7.9-5.2 12.5-13.8 12.5-23.2v-.3c0-2.1 1.7-3.8 3.8-3.8 1.6 0 3 1 3.6 2.5 1.4 3.6 1.7 7.6 1.1 11.4L44.7 50l18.1.1c2.6 0 4.8 2.2 4.8 4.8 0 2.7-2.2 4.8-4.8 4.8h-3.3v3.2h3.2c2.7 0 4.8 2.2 4.8 4.8 0 2.7-2.2 4.8-4.8 4.8H60v3.2h2.7c2.7 0 4.8 2.2 4.8 4.8 0 2.7-2.2 4.8-4.8 4.8h-3.2v3.2h4c2.2 0 4 1.8 4 4s-1.8 4-4 4H32.4c-3 0-5.9-1-8.2-2.9C21.3 91.3 17.7 90 14 90h-2.9v3.2H14c3 0 5.9 1 8.2 2.9 2.9 2.3 6.5 3.6 10.2 3.6h31.1c.3 0 .5-.1.8-.1v.1h27.4c4.4 0 8.1-3.6 8.1-8.1V8.1c0-4.5-3.6-8.1-8.1-8.1zm4.9 91.9c0 2.7-2.2 4.8-4.8 4.8H69.6c.6-.9 1-2 1.1-3.2h9.8v-3.2H70.3c-.5-1.3-1.3-2.4-2.3-3.2h28.5v4.8zm0-8H70.1c.4-1 .7-2.1.7-3.2h16.1v-3.2H70.1c-.6-1.3-1.5-2.4-2.6-3.2h25.8V71H70.1c.4-1 .7-2.1.7-3.2h22.6v-3.2H70.1c-.6-1.3-1.5-2.4-2.6-3.2h25.8v-3.2H70.1c.4-1 .7-2.1.7-3.2 0-4.4-3.6-8-8-8l-14.3-.1 1.8-9.6c.8-4.4.4-8.9-1.2-13.1-.2-.6-.5-1.1-.9-1.6V13h48.4v70.9zm0-74.2H48.2V8.1c0-2.7 2.2-4.8 4.8-4.8h38.7c2.7 0 4.8 2.2 4.8 4.8v1.6z" id="icon"/><path class="st0" d="M0 48.4h12.9v48.4H0z" id="color_1_"/></svg>