<svg id="phone_1_" xmlns="http://www.w3.org/2000/svg" viewBox="0 0 29.9 30"><style>.st0{fill-rule:evenodd;clip-rule:evenodd;fill:#fff}</style><path class="st0" d="M21.2 0H8.7C7.5 0 6.5 1 6.5 2.2v25.6c0 1.2 1 2.2 2.2 2.2h12.5c1.2 0 2.2-1 2.2-2.2V2.2c0-1.2-1-2.2-2.2-2.2zm1.2 27.8c0 .7-.5 1.2-1.2 1.2H8.7c-.7 0-1.2-.5-1.2-1.2V24h14.9v3.8zm0-4.8H7.5V4h14.9v19zm0-20H7.5v-.8C7.5 1.5 8 1 8.7 1h12.5c.7 0 1.2.5 1.2 1.2V3zm-7.5 25.5c1.1 0 2-.9 2-2s-.9-2-2-2-2 .9-2 2 .9 2 2 2zm0-3c.5 0 1 .4 1 1s-.4 1-1 1-1-.4-1-1 .5-1 1-1zm0-24h-2c-.3 0-.5.2-.5.5s.2.5.5.5h2c.3 0 .5-.2.5-.5s-.2-.5-.5-.5zm2 0h-.5c-.3 0-.5.2-.5.5s.2.5.5.5h.5c.3 0 .5-.2.5-.5s-.2-.5-.5-.5zm11.3.8c-.2-.2-.5-.2-.7 0-.2.2-.2.5 0 .7 1.9 1.9 1.9 4.9 0 6.8-.2.2-.2.5 0 .7.1.1.2.1.4.1s.3 0 .4-.1c2.1-2.3 2.1-6-.1-8.2zm-2.1 1.1c-.2-.2-.5-.2-.7 0-.2.2-.2.5 0 .7.6.6 1 1.4 1 2.3 0 .9-.3 1.7-1 2.3-.2.2-.2.5 0 .7.1.1.2.1.4.1.1 0 .3 0 .4-.1.8-.8 1.2-1.9 1.2-3-.1-1.1-.5-2.2-1.3-3zM2.4 3c.2-.2.2-.5 0-.7-.2-.2-.5-.2-.7 0-2.2 2.3-2.2 5.9 0 8.2.1.1.2.1.4.1.1 0 .3 0 .4-.1.2-.2.2-.5 0-.7-2-1.9-2-4.9-.1-6.8zm1.1 3.3c0-.9.3-1.7 1-2.3.2-.2.2-.5 0-.7-.2-.2-.5-.2-.7 0-.8.8-1.3 1.9-1.3 3s.4 2.2 1.2 3c.2.1.3.2.4.2s.3 0 .4-.1c.2-.2.2-.5 0-.7-.6-.7-1-1.5-1-2.4z" id="phone"/></svg>