<svg id="user_1_" xmlns="http://www.w3.org/2000/svg" viewBox="0 0 30 30"><style>.st0{fill-rule:evenodd;clip-rule:evenodd;fill:#fff}</style><path class="st0" d="M25.6 4.4c-5.8-5.8-15.4-5.8-21.2 0C2.3 6.4.9 9 .3 11.8c-.6 2.8-.4 5.6.6 8.2.1.3.5.5.8.4.3-.1.5-.4.3-.7-.9-2.4-1.1-5-.5-7.6.6-2.6 1.8-5 3.7-6.8 5.4-5.4 14.1-5.4 19.5 0 2.6 2.6 4 6 4 9.6 0 3.6-1.3 7-3.8 9.7l-.1.1-.2.2c-5.4 5.4-14.1 5.4-19.5 0l-.1-.1v-3c0-.1 0-.1.1-.2v-.2c0-.1 0-.1.1-.2 0-.1 0-.1.1-.2 0-.1 0-.1.1-.2 0-.1 0-.1.1-.2 0-.1 0-.1.1-.2 0 0 0-.1.1-.1 0-.1.1-.1.1-.2 0 0 0-.1.1-.1 0-.1.1-.1.1-.2 0 0 0-.1.1-.1 0-.1.1-.1.1-.2l.1-.1c0-.1.1-.1.1-.2l.1-.1c0-.1.1-.1.1-.2l.1-.1c0-.1.1-.1.1-.2l.1-.1c0-.1.1-.1.1-.2l.1-.1c0-.1.1-.1.1-.1l.1-.1.1-.1.1-.1.1-.1.1-.1.1-.1.1-.1.1-.1.1-.1c.1 0 .1-.1.2-.1l.1-.1c.1 0 .1-.1.2-.1l.1-.1c.1 0 .1-.1.2-.1l.1-.1c.1 0 .1-.1.2-.1 0 0 .1 0 .1-.1.1-.1.2-.1.3-.2.1-.1.2-.1.3-.2 0 0 .1 0 .1-.1.1 0 .1-.1.2-.1 0 0 .1 0 .1-.1.1 0 .1-.1.2-.1 1.1 1.1 2.6 1.7 4.1 1.7 1.5 0 3-.6 4.1-1.7 2.2 1 3.9 2.8 4.9 5 .1.3.5.4.8.3.3-.1.4-.5.3-.8-1-2.4-2.9-4.3-5.2-5.4.7-1 1-2.1 1-3.3 0-3.3-2.7-6-6-6-.3 0-.6.3-.6.6s.3.6.6.6c2.6 0 4.7 2.1 4.7 4.7 0 1.2-.4 2.3-1.2 3.2-.9 1-2.2 1.6-3.5 1.6s-2.6-.6-3.5-1.6c-.8-.9-1.2-2-1.2-3.2 0-1.3.5-2.5 1.4-3.4.2-.2.2-.6 0-.9-.2-.2-.6-.2-.9 0C9.7 8.1 9 9.6 9 11.2c0 1.2.4 2.4 1 3.3 0 0-.1 0-.1.1-.1 0-.1.1-.2.1s-.1.1-.1.1c-.1 0-.1.1-.2.1s-.1.1-.2.1-.1.1-.2.1-.1.1-.2.1-.1.1-.2.1l-.1.1c-.1 0-.1.1-.2.1l-.1.1c-.1 0-.1.1-.2.1l-.1.1c-.1 0-.1.1-.2.1l-.1.1c-.1 0-.1.1-.2.1l-.1.1c-.1 0-.1.1-.2.1l-.1.1c0 .1-.1.1-.1.2l-.1.1c0 .1-.1.1-.1.2l-.1.1c0 .1-.1.1-.1.2l-.1.1c0 .1-.1.1-.1.2l-.1.1c-.1.1-.1.2-.2.3v.1c-.1.1-.1.2-.2.3 0 0 0 .1-.1.1 0 .1-.1.1-.1.2l-.1.1c0 .1-.1.1-.1.2s-.1.1-.1.2-.1.1-.1.2 0 .1-.1.2c0 .1-.1.1-.1.2s0 .1-.1.2c0 .1-.1.1-.1.2s0 .1-.1.2c0 .1 0 .1-.1.2 0 .1 0 .1-.1.2 0 .1 0 .1-.1.2 0 .1 0 .1-.1.2 0 .1 0 .1-.1.2v.2c0 .1 0 .1-.1.2v3L4 25v.2s0 .1.1.1l.1.1.2.2C7.3 28.5 11.2 30 15 30s7.7-1.5 10.6-4.4l.2-.2.1-.1c2.7-2.8 4.2-6.6 4.1-10.5-.1-3.9-1.6-7.6-4.4-10.4z" id="user"/></svg>