<svg id="Layer_1" xmlns="http://www.w3.org/2000/svg" viewBox="0 0 230.9 38.9"><style>.st0{fill:#fff}.st1{fill:#09f}</style><path class="st0" d="M113.4 30.8c0 2.4-.9 4.4-2.7 5.8-1.8 1.5-4.1 2.2-6.7 2.2-1.9 0-3.9-.4-5.9-1.1-.9-.3-1.7-.7-2.5-1.1-.9-.5-1.7-1-2.4-1.6-.1 0-.1-.1-.2-.1l-.3-.2.8-1c.2-.3.5-.5.9-.7.2-.1.5-.1.7-.1.3 0 .6.1.8.2.1.1.3.2.4.3 2.5 1.6 5.1 2.4 7.8 2.4 1.7 0 3.2-.4 4.3-1.3 1.1-.9 1.7-2 1.7-3.4 0-.5-.1-1-.4-1.5-.2-.5-.5-.8-.9-1.1-.4-.3-.8-.6-1.5-.9-.7-.3-1.3-.5-1.8-.7l-5-1.6c-.7-.2-1.1-.4-1.5-.5l-1.3-.6c-.6-.3-1-.5-1.3-.8-.3-.2-.6-.5-.9-.9-.4-.4-.7-.8-.9-1.2-.2-.4-.3-.8-.5-1.3-.1-.5-.2-1-.2-1.6 0-2.2.8-4.1 2.5-5.5 1.7-1.4 3.8-2.1 6.5-2.1 1.6 0 3.2.3 4.9.8.6.2 1.2.4 1.8.7.9.4 1.8.9 2.6 1.4.1 0 .1.1.1.1l.3.2-.6 1-.1.2c-.4.5-.9.8-1.6.8-.3 0-.5-.1-.8-.2-.1-.1-.2-.1-.3-.2-2.1-1.2-4.3-1.7-6.5-1.7-1.7 0-3.1.4-4.1 1.3-1 .8-1.5 1.9-1.5 3.2 0 .4.1.8.2 1.2.1.4.4.7.7 1 .4.3.7.6 1.1.8.3.2.8.4 1.5.6l5.7 1.8c.6.2 1.3.4 2 .7.8.3 1.4.7 1.9 1 .5.4 1 .8 1.5 1.3s.8 1.1 1.1 1.8c.4.6.6 1.4.6 2.2zm25.4 0c0 2.4-.9 4.4-2.7 5.8-1.8 1.5-4.1 2.2-6.7 2.2-1.9 0-3.9-.4-5.9-1.1-.9-.3-1.7-.7-2.5-1.1-.9-.5-1.7-1-2.4-1.6-.1 0-.1-.1-.2-.1l-.3-.2.8-1c.2-.3.5-.5.9-.7.2-.1.5-.1.7-.1.3 0 .6.1.8.2.1.1.3.2.4.3 2.5 1.6 5.1 2.4 7.8 2.4 1.7 0 3.2-.4 4.3-1.3 1.1-.9 1.7-2 1.7-3.4 0-.5-.1-1-.4-1.5-.2-.5-.5-.8-.9-1.1-.4-.3-.8-.6-1.5-.9-.7-.3-1.3-.5-1.8-.7l-5-1.6c-.7-.2-1.1-.4-1.5-.5l-1.3-.6c-.6-.3-1-.5-1.3-.8-.3-.2-.6-.5-.9-.9-.4-.4-.7-.8-.9-1.2-.2-.4-.3-.8-.5-1.3-.1-.5-.2-1-.2-1.6 0-2.2.8-4.1 2.5-5.5 1.7-1.4 3.8-2.1 6.5-2.1 1.6 0 3.2.3 4.9.8.6.2 1.2.4 1.8.7.9.4 1.8.9 2.6 1.4.1 0 .1.1.1.1l.3.2-.6 1-.1.2c-.4.5-.9.8-1.6.8-.3 0-.5-.1-.8-.2-.1-.1-.2-.1-.3-.2-2.1-1.2-4.3-1.7-6.5-1.7-1.7 0-3.1.4-4.1 1.3-1 .8-1.5 1.9-1.5 3.2 0 .4.1.8.2 1.2.1.4.4.7.7 1 .4.3.7.6 1.1.8.3.2.8.4 1.5.6l5.7 1.8c.6.2 1.3.4 2 .7.8.3 1.4.7 1.9 1 .5.4 1 .8 1.5 1.3s.8 1.1 1.1 1.8c.5.6.6 1.4.6 2.2zm25.3-16.9c-2-2-4.9-3-8.5-3-2.1 0-4.2.4-6.5 1.1-1 .3-2 .7-2.9 1.2l-.3.2.4 1c0 .1.1.1.1.2s.1.1.1.2c.4.6 1.2 1 2 .9.2 0 .3-.1.5-.1 2.2-.9 4.4-1.4 6.6-1.4 2.6 0 4.7.7 6.1 2 1.4 1.3 2.1 3.2 2.1 5.7v.7c-2.7-.7-5.5-1-8.3-1-3.5 0-6.4.8-8.5 2.3-2.2 1.6-3.3 3.8-3.3 6.6 0 1.4.3 2.7.9 3.8.6 1.1 1.4 2.1 2.5 2.8 1 .7 2.1 1.2 3.3 1.6 1.2.4 2.5.6 3.8.6 2.3 0 4.4-.5 6.1-1.5 1.4-.8 2.6-1.7 3.5-2.8v1.9c.1 1 .9 1.7 1.9 1.7h1.3v-17c-.1-3.3-1-5.8-2.9-7.7zM161 33.6c-1.9 1.5-4.2 2.2-6.8 2.2-2 0-3.8-.5-5.2-1.5-1.4-1-2.1-2.4-2.1-4.1 0-1.8.7-3.2 2.1-4.3 1.4-1.1 3.5-1.6 6.2-1.6 2.8 0 5.6.4 8.5 1.1v2.7c0 2.2-.9 4.1-2.7 5.5zM84.1 13.9c-2-2-4.9-3-8.5-3-2.1 0-4.2.4-6.5 1.1-1 .3-2 .7-2.9 1.2l-.3.2.4 1c0 .1.1.1.1.2s.1.1.1.2c.4.6 1.2 1 2 .9.2 0 .3-.1.5-.1 2.2-.9 4.4-1.4 6.6-1.4 2.6 0 4.7.7 6.1 2 1.4 1.3 2.1 3.2 2.1 5.7v.7c-2.7-.7-5.5-1-8.3-1-3.5 0-6.4.8-8.5 2.3-2.2 1.6-3.3 3.8-3.3 6.6 0 1.4.3 2.7.9 3.8.6 1.1 1.4 2.1 2.5 2.8 1 .7 2.1 1.2 3.3 1.6 1.2.4 2.5.6 3.8.6 2.3 0 4.4-.5 6.1-1.5 1.4-.8 2.6-1.7 3.5-2.8v1.9c.1 1 .9 1.7 1.9 1.7H87v-17c-.1-3.3-1-5.8-2.9-7.7zM81 33.6c-1.9 1.5-4.2 2.2-6.8 2.2-2 0-3.8-.5-5.2-1.5-1.4-1-2.1-2.4-2.1-4.1 0-1.8.7-3.2 2.1-4.3 1.4-1.1 3.5-1.6 6.2-1.6 2.8 0 5.6.4 8.5 1.1v2.7c0 2.2-.9 4.1-2.7 5.5zm117.4-11.7v16.4H197c-1 0-1.9-.8-1.9-1.9V22.3c0-2.6-.7-4.7-2.1-6.3-1.4-1.5-3.4-2.3-5.9-2.3-2.5 0-4.6.9-6.2 2.5-1.7 1.7-2.5 3.9-2.5 6.5v13.7c0 1-.9 1.8-1.9 1.8h-1.4v-27h1.4c1 0 1.9.8 1.9 1.9v2.1c2.1-3.1 5.2-4.6 9.1-4.6 3.3 0 6 1 7.9 3.1 2 2.2 3 4.9 3 8.2zm22.2-10.6v1.3c0 1-.8 1.7-1.8 1.8h-7.4v16.5c0 3.2 1.6 4.7 4.9 4.7 1.2 0 2.4-.3 3.7-.9l.5-.2v3.2l-.2.1c-1.3.6-2.8.9-4.4.9-2.3 0-4.1-.6-5.6-1.9-1.4-1.3-2.2-3.2-2.2-5.7V14.4h-3.8v-3h3.8V2.9h1.4c.5 0 1 .2 1.3.5s.6.8.6 1.3v6.6h9.2zm7.1 1.9v25.1h1.5c1 0 1.8-.9 1.8-1.9V11.3h-1.4c-.5 0-.9.2-1.3.5 0 0-.1 0-.1.1-.3.3-.5.8-.5 1.3zm-187.4 0v25.1h1.5c1 0 1.8-.9 1.8-1.9V11.3h-1.4c-.5 0-.9.2-1.3.5 0 0-.1 0-.1.1-.3.3-.5.8-.5 1.3zM53.1 1.9v36.4h1.5c1 0 1.8-.9 1.8-1.9V0H55c-.5 0-.9.2-1.3.5 0 0-.1 0-.1.1-.3.3-.5.8-.5 1.3z"/><path class="st1" d="M31.2 37.6l-.5-.7-2.3-3-1.1-1.4-7.4-9.5C28.8 21.3 30 14.9 30 12.3c0-2.8-1-5.2-2.8-7-1.1-1.1-2.6-2-4.4-2.7-1.8-.7-3.8-1-6-1H0v1.6c.2 1 1 1.6 1.9 1.6h14.8c3.1 0 5.6.7 7.4 2 1.8 1.3 2.6 3.1 2.6 5.5 0 2.5-.9 4.4-2.8 5.8-1.9 1.4-4.4 2.2-7.4 2.2H5.1v-3.5c0-.5-.2-1-.5-1.3 0 0 0-.1-.1-.1-.3-.3-.8-.5-1.3-.5H1.9v23.6h1.4c.5 0 .9-.2 1.3-.5l.1-.1c.3-.3.5-.8.5-1.3V23.5h10.9L26.5 37c.1.1.1.2.2.3.6.7 1.5 1.2 2.5 1.2h2.7l-.7-.9z"/></svg>