<svg width="32" height="33" viewBox="0 0 32 33" xmlns="http://www.w3.org/2000/svg" xmlns:xlink="http://www.w3.org/1999/xlink"><title>box</title><defs><path d="M563.863 265.023l-14.577 5.93a.383.383 0 0 0-.286.372v18.605c-.003.173.13.34.297.372l14.497 6.64c.17.097.323.06.446-.024l14.508-6.628a.383.383 0 0 0 .252-.36v-18.605a.384.384 0 0 0-.32-.384l-14.543-5.918c-.143-.046-.244-.01-.274 0zm.137.744l13.65 5.558-6.333 2.57-13.65-5.547 6.333-2.581zm-7.317 2.977l13.65 5.558-6.333 2.57-13.65-5.547 6.333-2.581zm-6.951 3.128l13.902 5.65v18.524l-13.902-6.36v-17.814zm21.95 2.68l6.586-2.68v17.814l-13.902 6.36v-18.523l6.585-2.675v5.407a.384.384 0 0 0 .366.378.384.384 0 0 0 .366-.378v-5.703z" id="a"/><filter x="-6.8%" y="-6.4%" width="113.7%" height="112.8%" filterUnits="objectBoundingBox" id="b"><feGaussianBlur stdDeviation="1.5" in="SourceAlpha" result="shadowBlurInner1"/><feOffset dy="1" in="shadowBlurInner1" result="shadowOffsetInner1"/><feComposite in="shadowOffsetInner1" in2="SourceAlpha" operator="arithmetic" k2="-1" k3="1" result="shadowInnerInner1"/><feColorMatrix values="0 0 0 0 0 0 0 0 0 0 0 0 0 0 0 0 0 0 0.5 0" in="shadowInnerInner1"/></filter></defs><g transform="translate(-548 -264)" fill="none" stroke-linejoin="round"><use fill="#929292" xlink:href="#a"/><use fill="#000" filter="url(#b)" xlink:href="#a"/><use stroke="#929292" stroke-width=".1" xlink:href="#a"/></g></svg>