<svg xmlns="http://www.w3.org/2000/svg" xmlns:xlink="http://www.w3.org/1999/xlink" width="24" height="24" viewBox="0 0 24 24"><defs><path id="a" d="M6.82 19.085c0 .513-.4.915-.91.915a.903.903 0 0 1-.91-.915V5.915C5 5.402 5.4 5 5.91 5s.91.402.91.915v13.17zm8.787 0c0 .513-.4.915-.91.915a.903.903 0 0 1-.91-.915V5.915c0-.513.4-.915.91-.915s.91.402.91.915v13.17zm4.393 0c0 .513-.4.915-.91.915a.903.903 0 0 1-.91-.915V12.5c0-.513.4-.915.91-.915s.91.402.91.915v6.585zm-8.787-.204c0 .628-.4 1.119-.91 1.119s-.91-.491-.91-1.119v-8.05c0-.628.4-1.12.91-1.12s.91.492.91 1.12v8.05z"/><path id="c" d="M0 0h24v24H0z"/></defs><g fill="none" fill-rule="evenodd"><mask id="b" fill="#fff"><use xlink:href="#a"/></mask><use fill="#929292" xlink:href="#a"/><g mask="url(#b)"><use fill="#3083E3" fill-rule="nonzero" xlink:href="#c"/></g></g></svg>