<svg width="25" height="25" viewBox="0 0 25 25" xmlns="http://www.w3.org/2000/svg"><title>?</title><path d="M0 12.5C0 5.596 5.596 0 12.5 0S25 5.596 25 12.5 19.404 25 12.5 25 0 19.404 0 12.5zm11.32 1.22c-.413-.507-.62-1.12-.62-1.84 0-.413.09-.79.27-1.13.18-.34.397-.617.65-.83.253-.213.507-.407.76-.58s.47-.35.65-.53c.18-.18.27-.357.27-.53 0-.52-.393-.78-1.18-.78-.8 0-1.5.347-2.1 1.04L8.1 6.34a5.168 5.168 0 0 1 1.97-1.4c.78-.32 1.59-.48 2.43-.48 1.307 0 2.347.293 3.12.88.773.587 1.16 1.36 1.16 2.32 0 .533-.107 1.007-.32 1.42-.213.413-.47.75-.77 1.01-.3.26-.603.497-.91.71-.307.213-.567.44-.78.68-.213.24-.32.493-.32.76 0 .333.1.6.3.8zm2.54 3.96c-.373.373-.813.56-1.32.56-.507 0-.947-.187-1.32-.56a1.806 1.806 0 0 1-.56-1.32c0-.507.187-.947.56-1.32.373-.373.813-.56 1.32-.56.507 0 .947.187 1.32.56.373.373.56.813.56 1.32 0 .507-.187.947-.56 1.32z" fill="#929292" fill-rule="evenodd"/></svg>