<svg xmlns="http://www.w3.org/2000/svg" width="90" height="29" viewBox="0 0 90 29"><path d="M8.58 22.249v-6.58H6.823c-.345 0-.662.026-.956.078-.293.053-.56.157-.804.313-.242.157-.46.387-.65.689-.193.304-.36.706-.5 1.206L2.729 22.25H0l1.487-5.045c.12-.376.242-.731.363-1.066.121-.333.272-.636.456-.909.18-.271.398-.5.65-.688.253-.189.552-.325.895-.408a2.439 2.439 0 0 1-1.364-1.019c-.344-.511-.627-1.144-.85-1.895L.274 6.707h2.668l1.335 4.48c.141.502.318.893.53 1.175.212.283.445.497.698.644.252.145.52.234.803.266.283.032.566.047.85.047H8.58V6.707h2.609v6.612h1.424c.284 0 .567-.015.85-.047.282-.032.55-.12.803-.266.253-.147.48-.361.682-.644.202-.282.384-.673.547-1.174l1.333-4.48h2.669l-1.365 4.51c-.223.752-.505 1.385-.849 1.896a2.437 2.437 0 0 1-1.364 1.02c.687.166 1.197.526 1.53 1.08.335.554.611 1.218.834 1.99l1.487 5.045h-2.73l-1.182-4.294c-.142-.5-.308-.902-.5-1.206a2.22 2.22 0 0 0-.653-.69 2.17 2.17 0 0 0-.803-.312 5.53 5.53 0 0 0-.954-.078h-1.76v6.58H8.58zm18.255-4.324l2.253-3.54 5.021-7.648h2.457V22.25h-2.668V11.031h-.152l-2.274 3.604-4.972 7.614h-2.396V6.737h2.609v11.188zm17.402 1.002c.926.398 1.711.658 2.354.783a9.91 9.91 0 0 0 1.903.19c.403 0 .78-.048 1.133-.143.35-.093.658-.26.92-.5.262-.241.468-.565.62-.973.15-.406.226-.912.226-1.519v-4.45c0-1.19-.242-2.01-.725-2.46-.483-.447-1.128-.673-1.932-.673a3.84 3.84 0 0 0-.997.157A11.633 11.633 0 0 0 44.237 11v7.928zm-.307-12.19l.307 1.63c1.19-.73 2.14-1.21 2.856-1.44.716-.23 1.345-.345 1.889-.345 1.471 0 2.676.449 3.613 1.347.936.898 1.406 2.297 1.406 4.199v4.762c0 1.776-.47 3.145-1.406 4.105-.937.962-2.224 1.442-3.854 1.442-.544 0-1.18-.059-1.904-.172-.726-.115-1.593-.382-2.6-.8v6.988h-2.608V6.738h2.301zm23.167 8.586h-3.972c-.322 0-.671.028-1.045.079a3.464 3.464 0 0 0-1.046.314 1.989 1.989 0 0 0-.804.72c-.212.324-.319.747-.319 1.27 0 .751.248 1.315.743 1.692.496.375 1.128.564 1.896.564a4.43 4.43 0 0 0 1.197-.173c.415-.114.82-.255 1.213-.422.394-.168.773-.35 1.138-.55.364-.198.696-.38 1-.548v-2.946zm-.09 5.423c-1.193.688-2.168 1.131-2.926 1.33-.757.2-1.44.297-2.046.297-1.456 0-2.618-.417-3.487-1.252-.87-.835-1.304-1.975-1.304-3.415 0-.858.186-1.577.561-2.164a4.727 4.727 0 0 1 1.395-1.425 5.787 5.787 0 0 1 1.788-.784c.638-.156 1.208-.234 1.713-.234h4.396v-1.191c0-1.086-.292-1.844-.878-2.271-.587-.428-1.425-.643-2.517-.643-.525 0-1.167.078-1.926.235-.756.157-1.521.56-2.289 1.207l-1.273-2.038c.97-.772 1.95-1.273 2.94-1.503.991-.23 1.912-.345 2.76-.345 1.96 0 3.416.444 4.366 1.331.95.889 1.425 2.251 1.425 4.09v10.278h-2.3l-.307-1.441-.092-.062zm16.169-.753c.783 0 1.445-.141 1.986-.424a3.809 3.809 0 0 0 1.31-1.08c.331-.44.568-.945.709-1.52a7.43 7.43 0 0 0 .21-1.77v-1.41c0-.607-.075-1.196-.226-1.771a4.147 4.147 0 0 0-.737-1.519 4.03 4.03 0 0 0-1.31-1.083c-.532-.28-1.179-.422-1.942-.422v10.999zm-2.606-11c-.748 0-1.391.143-1.926.423a4.047 4.047 0 0 0-1.32 1.083 4.34 4.34 0 0 0-.757 1.519 6.492 6.492 0 0 0-.242 1.77V15.2c0 .605.06 1.185.181 1.739.121.553.344 1.045.666 1.472.325.429.759.783 1.305 1.065.545.283 1.243.455 2.093.518v-11zm0 19.492v-6.048c-1.234-.064-2.285-.288-3.155-.674-.869-.386-1.575-.888-2.12-1.504a5.772 5.772 0 0 1-1.199-2.116 8.09 8.09 0 0 1-.38-2.474v-1.943c0-.919.138-1.807.41-2.664a6.433 6.433 0 0 1 1.258-2.271c.566-.659 1.278-1.186 2.138-1.583.859-.396 1.874-.616 3.048-.658V.659h2.606V6.55c1.148.042 2.148.246 3.003.611.857.366 1.565.856 2.13 1.472a6.078 6.078 0 0 1 1.266 2.164c.283.824.424 1.695.424 2.615v2.257a7.19 7.19 0 0 1-.424 2.46 6.183 6.183 0 0 1-1.266 2.098c-.565.617-1.273 1.124-2.13 1.52-.855.397-1.855.626-3.003.69v6.048H80.57z" fill="#2C232B" fill-rule="evenodd"/></svg>