<svg width="36" height="21" viewBox="0 0 36 21" xmlns="http://www.w3.org/2000/svg" xmlns:xlink="http://www.w3.org/1999/xlink"><title>Group</title><defs><path d="M.338 10.5c0 5.683 4.649 10.29 10.384 10.29 5.734 0 10.383-4.607 10.383-10.29 0-5.682-4.649-10.29-10.383-10.29C4.987.21.338 4.818.338 10.5z" id="a"/><path d="M3.69 2.874a10.66 10.66 0 0 0-1.048 1.088H4.74c.287.345.551.71.791 1.089h-3.68a10.38 10.38 0 0 0-.599 1.09h4.877c.167.354.314.718.439 1.091H.813c-.12.354-.221.718-.301 1.089h6.359c.152.701.234 1.431.234 2.179a10.17 10.17 0 0 1-.537 3.269H.813c.125.372.273.737.439 1.09h4.877c-.177.376-.377.739-.598 1.089h-3.68c.24.381.505.744.791 1.089H4.74c-.323.388-.674.753-1.049 1.09a10.394 10.394 0 0 0 6.97 2.663c5.734 0 10.383-4.607 10.383-10.29 0-5.682-4.649-10.29-10.383-10.29A10.395 10.395 0 0 0 3.69 2.874z" id="c"/><path d="M.66 1.237c0 .182.15.332.335.332a.333.333 0 0 0 0-.665.333.333 0 0 0-.335.333zm.081 0c0-.142.113-.253.254-.253.141 0 .255.111.255.253a.254.254 0 1 1-.509 0zm.14-.147v.292h.07v-.116H1l.045.116h.077l-.054-.129a.08.08 0 0 0 .05-.076.088.088 0 0 0-.037-.073c-.023-.014-.049-.014-.076-.014H.881zm.07.051h.036c.014 0 .034-.002.046.008.01.009.017.025.017.039a.065.065 0 0 1-.017.046c-.014.009-.029.007-.044.007H.951v-.1z" id="e"/><path d="M1.716.403l-.157.956a3.738 3.738 0 0 1 1.193-.192c.527 0 .723.105.723.385 0 .076-.009.136-.044.276a3.89 3.89 0 0 0-.459-.033c-1.251 0-1.979.602-1.979 1.637 0 .686.418 1.159 1.03 1.159.516 0 .896-.165 1.181-.513l-.021.44h.933c.029-.321.239-1.639.337-2.255.057-.353.093-.622.09-.84C4.545.609 4.032.178 3.065.178c-.418 0-.788.062-1.349.225zm.367 2.852c0-.428.323-.645.962-.645.082 0 .133.003.252.017-.02.628-.351 1.062-.81 1.062-.247 0-.404-.168-.404-.434z" id="g"/><path d="M1.473.403l-.157.956a3.75 3.75 0 0 1 1.193-.192c.527 0 .723.105.723.385 0 .076-.009.136-.044.276a3.862 3.862 0 0 0-.459-.033c-1.251 0-1.978.602-1.978 1.637 0 .686.417 1.159 1.029 1.159.516 0 .897-.165 1.181-.513l-.02.44h.933c.029-.321.238-1.639.336-2.255.057-.353.094-.622.091-.84C4.302.609 3.79.178 2.822.178c-.417 0-.787.062-1.349.225zm.367 2.852c0-.428.324-.645.963-.645.08 0 .132.003.251.017-.019.628-.35 1.062-.81 1.062-.246 0-.404-.168-.404-.434z" id="i"/><path d="M1.069.631S.645 3.131.58 3.527c-.072.451-.163.944-.155 1.132 0 .604.315.932.891.932a2.6 2.6 0 0 0 .81-.137l.15-.941a.909.909 0 0 1-.305.041c-.268 0-.386-.096-.386-.314.002-.133.188-1.14.318-1.947h.679l.153-1.021h-.677l.131-.641h-1.12z" id="k"/><path d="M.503 2.698c0 1.244.654 1.892 1.908 1.893.395.001.765-.055 1.151-.172l.186-1.055a2.691 2.691 0 0 1-1.166.267c-.651 0-1.049-.257-.973-.872H3.84c.098-.429.138-.732.138-1.045 0-.937-.59-1.536-1.514-1.536C1.335.178.503 1.247.503 2.698zM2.41 1.145c.64 0 .528.668.522.758H1.694c.104-.488.359-.758.716-.758z" id="m"/><path d="M.793 1.615c0 .538.263.907.857 1.185.458.213.528.276.528.469 0 .264-.202.384-.647.384-.337 0-.649-.052-1.01-.167l-.156.98c.257.054.485.107 1.174.125 1.189 0 1.739-.449 1.739-1.419 0-.583-.231-.925-.795-1.181-.473-.216-.527-.263-.527-.463 0-.23.187-.346.552-.346.221 0 .523.023.809.064l.161-.985a7.683 7.683 0 0 0-.992-.083C1.225.178.788.831.793 1.615z" id="o"/><path d="M4.156 1.982c-.654-.216-.923.219-1.254.65L2.61 2.7a2.12 2.12 0 0 0 .035-.428H1.61c-.141 1.315-.391 2.646-.588 3.961l-.051.285h1.128c.188-1.213.29-1.987.353-2.513l.425-.235c.064-.233.262-.312.661-.302-.052.277-.08.568-.08.87 0 1.39.756 2.253 1.969 2.253.312 0 .58-.041.996-.152l.198-1.19c-.373.182-.679.268-.957.268-.656 0-1.052-.479-1.052-1.272 0-1.149.59-1.955 1.431-1.955.314 0 .605.082 1.008.282l.184-1.134c-.166-.063-.746-.44-1.239-.44-.754 0-1.392.371-1.84.984z" id="q"/><path d="M5.587.298l-.25 1.508c-.308-.4-.64-.692-1.077-.692-.568 0-1.086.427-1.425 1.056-.465-.095-.943-.257-.96-.262v.004-.004a6.28 6.28 0 0 0 .05-.636H.889C.748 2.587.498 3.918.301 5.233l-.051.285h1.128c.152-.98.269-1.795.354-2.439.386-.345.578-.646.968-.626a3.598 3.598 0 0 0-.274 1.377c0 1.061.542 1.761 1.362 1.761.413 0 .73-.141 1.039-.468l-.054.394H5.84L6.699.298H5.587zM3.6 3.7c0-.834.363-1.425.874-1.425.388 0 .596.293.596.832 0 .841-.368 1.43-.893 1.43-.384 0-.577-.281-.577-.837z" id="s"/><path d="M1.04 1.093l-.156.955c.187-.06.642-.198 1.193-.191.527 0 .723.105.723.387 0 .075-.01.135-.045.275a3.856 3.856 0 0 0-.459-.032c-1.251 0-1.979.602-1.979 1.635 0 .687.419 1.16 1.031 1.16.515 0 .896-.166 1.18-.513l-.02.439h.933c.028-.32.238-1.639.336-2.254.057-.353.093-.622.091-.841.001-.814-.511-1.244-1.479-1.244-.417 0-.788.061-1.349.224zm.367 2.853c0-.43.324-.646.962-.646.081 0 .134.004.252.017-.02.628-.35 1.062-.81 1.062-.246 0-.404-.169-.404-.433z" id="u"/><path d="M.782 4.029c0 1.388.756 2.253 1.97 2.253.312 0 .58-.04.996-.153l.198-1.191c-.373.184-.68.269-.957.269-.656 0-1.053-.479-1.053-1.27 0-1.15.59-1.955 1.432-1.955.313 0 .605.08 1.007.281L4.56 1.13c-.166-.064-.747-.271-1.239-.271C1.827.859.782 2.163.782 4.029z" id="w"/><path d="M.798 1.093l-.157.955c.187-.06.642-.198 1.193-.191.527 0 .723.105.723.387 0 .075-.009.135-.044.275a3.856 3.856 0 0 0-.459-.032c-1.251 0-1.979.602-1.979 1.635 0 .687.418 1.16 1.029 1.16.516 0 .897-.166 1.181-.513l-.02.439h.933c.029-.32.239-1.639.336-2.254.058-.353.094-.622.092-.841.001-.814-.511-1.244-1.48-1.244-.416 0-.787.061-1.348.224zm.367 2.853c0-.43.323-.646.962-.646.081 0 .133.004.251.017-.019.628-.35 1.062-.809 1.062-.247 0-.404-.169-.404-.433z" id="y"/><path d="M1.393.321s-.424 2.5-.488 2.896c-.072.451-.163.944-.155 1.132 0 .605.314.933.89.933.261 0 .502-.041.81-.139l.15-.939a.88.88 0 0 1-.304.04c-.268 0-.387-.094-.387-.315.002-.133.189-1.138.318-1.945h.578l.153-1.02h-.575l.13-.643h-1.12z" id="A"/><path d="M.827 3.387c0 1.245.655 1.894 1.908 1.895.395.001.766-.055 1.151-.172l.186-1.057c-.402.187-.764.27-1.165.27-.651 0-1.049-.258-.973-.873h2.231c.097-.43.137-.733.137-1.044 0-.939-.589-1.537-1.514-1.537C1.66.869.827 1.937.827 3.387zm1.907-1.552c.641 0 .529.67.522.758H2.018c.104-.489.36-.758.716-.758z" id="C"/><path d="M1.117 2.306c0 .537.263.907.858 1.185.457.213.528.275.528.468 0 .265-.202.383-.648.383-.337 0-.649-.051-1.01-.166l-.155.98c.257.056.484.105 1.173.126 1.19 0 1.739-.449 1.739-1.418 0-.584-.23-.926-.795-1.184-.472-.215-.527-.262-.527-.462 0-.228.188-.346.552-.346.222 0 .523.023.81.065l.16-.985a7.668 7.668 0 0 0-.991-.083c-1.261 0-1.698.652-1.694 1.437z" id="E"/><path d="M3.911.989l-.25 1.508c-.308-.401-.639-.578-1.076-.578-.994 0-1.834 1.19-1.834 2.602 0 1.061.541 1.761 1.361 1.761.413 0 .73-.141 1.039-.469l-.053.395h1.067L5.023.989H3.911zM1.924 4.39c0-.833.364-1.425.875-1.425.387 0 .596.293.596.832 0 .841-.369 1.43-.893 1.43-.384 0-.578-.281-.578-.837z" id="G"/><path d="M2.182 1.607c.027-.218.077-.428.068-.643H1.214C1.073 2.279.822 3.608.626 4.923l-.051.285h1.127c.403-2.595.5-3.101 1.133-3.039.101-.531.288-.996.428-1.23a.882.882 0 0 0-.185-.021c-.362 0-.599.256-.896.689z" id="I"/><path d="M1.902 1.607c.028-.218.078-.428.068-.643H.935C.793 2.279.543 3.608.346 4.923l-.051.285h1.129c.402-2.595.499-3.101 1.131-3.039.101-.531.289-.996.428-1.23a.875.875 0 0 0-.185-.021c-.361 0-.599.256-.896.689z" id="K"/></defs><g fill="none" fill-rule="evenodd"><mask id="b" fill="#fff"><use xlink:href="#a"/></mask><path fill="#DFDFDF" mask="url(#b)" d="M-4.662 25.79h30.766V-4.79H-4.662z"/><g transform="translate(14)"><mask id="d" fill="#fff"><use xlink:href="#c"/></mask><path fill="#929292" mask="url(#d)" d="M-4.489 25.79h30.533V-4.79H-4.489z"/></g><g transform="translate(33 15)"><mask id="f" fill="#fff"><use xlink:href="#e"/></mask><path fill="#000" mask="url(#f)" d="M-4.34 6.568H6.33V-4.097H-4.34z"/></g><g transform="translate(5 9)"><mask id="h" fill="#fff"><use xlink:href="#g"/></mask><path fill="#000" mask="url(#h)" d="M-4.007 9.591H9.545V-4.822H-4.007z"/></g><path fill="#000" d="M4.59 8.298L3.6 11.22l-.097-2.922h-1.62L1 13.518h1.055l.678-3.99.096 3.99h.767L5.04 9.506l-.646 4.012H5.52l.872-5.22z"/><g transform="translate(23 9)"><mask id="j" fill="#fff"><use xlink:href="#i"/></mask><path fill="#000" mask="url(#j)" d="M-4.25 9.591H9.301V-4.822H-4.25z"/></g><g transform="translate(12 8)"><mask id="l" fill="#fff"><use xlink:href="#k"/></mask><path fill="#000" mask="url(#l)" d="M-4.575 10.591h12.31V-4.37h-12.31z"/></g><g transform="translate(14 9)"><mask id="n" fill="#fff"><use xlink:href="#m"/></mask><path fill="#000" mask="url(#n)" d="M-4.497 9.591H8.978V-4.822H-4.497z"/></g><g transform="translate(9 9)"><mask id="p" fill="#fff"><use xlink:href="#o"/></mask><path fill="#000" mask="url(#p)" d="M-4.634 9.591H8.478V-4.822H-4.634z"/></g><g transform="translate(17 7)"><mask id="r" fill="#fff"><use xlink:href="#q"/></mask><path fill="#000" mask="url(#r)" d="M-4.029 11.591h16.264V-4.003H-4.029z"/></g><path fill="#FFF" d="M4.966 7.99l-1.094 3.23-.045-3.23h-1.62l-.882 5.218H2.38l.68-3.99.093 3.99h.77l1.441-4.012-.646 4.012h1.127l.872-5.219z"/><g transform="translate(27 8)"><mask id="t" fill="#fff"><use xlink:href="#s"/></mask><path fill="#000" mask="url(#t)" d="M-4.75 10.591h16.449V-4.702H-4.75z"/></g><g transform="translate(6 8)"><mask id="v" fill="#fff"><use xlink:href="#u"/></mask><path fill="#FFF" mask="url(#v)" d="M-4.683 10.282H8.868V-4.131H-4.683z"/></g><g transform="translate(20 7)"><mask id="x" fill="#fff"><use xlink:href="#w"/></mask><path fill="#FFF" mask="url(#x)" d="M-4.218 11.282H9.559V-4.142H-4.218z"/></g><g transform="translate(24 8)"><mask id="z" fill="#fff"><use xlink:href="#y"/></mask><path fill="#FFF" mask="url(#z)" d="M-4.925 10.282H8.626V-4.131H-4.925z"/></g><g transform="translate(12 8)"><mask id="B" fill="#fff"><use xlink:href="#A"/></mask><path fill="#FFF" mask="url(#B)" d="M-4.25 10.282H7.958V-4.679H-4.25z"/></g><g transform="translate(14 8)"><mask id="D" fill="#fff"><use xlink:href="#C"/></mask><path fill="#FFF" mask="url(#D)" d="M-4.172 10.282H9.303V-4.131H-4.172z"/></g><g transform="translate(9 8)"><mask id="F" fill="#fff"><use xlink:href="#E"/></mask><path fill="#FFF" mask="url(#F)" d="M-4.31 10.282H8.802V-4.131H-4.31z"/></g><g transform="translate(29 7)"><mask id="H" fill="#fff"><use xlink:href="#G"/></mask><path fill="#FFF" mask="url(#H)" d="M-4.249 11.282h14.272V-4.011H-4.249z"/></g><g transform="translate(27 8)"><mask id="J" fill="#fff"><use xlink:href="#I"/></mask><path fill="#FFF" mask="url(#J)" d="M-4.425 10.208H8.263v-14.29H-4.425z"/></g><g transform="translate(18 8)"><mask id="L" fill="#fff"><use xlink:href="#K"/></mask><path fill="#FFF" mask="url(#L)" d="M-4.705 10.208H7.983v-14.29H-4.705z"/></g></g></svg>