<svg width="41" height="19" viewBox="0 0 41 19" xmlns="http://www.w3.org/2000/svg"><title>Pay</title><g fill="none" fill-rule="evenodd"><path d="M11.96 5.171c-.152.141-.306.28-.457.424-.533.507-.934 1.098-1.075 1.835-.195 1.02.013 1.955.627 2.793.307.42.674.768 1.161.968.057.023.115.044.185.071-.063.174-.12.345-.188.511-.397.97-.914 1.866-1.618 2.644a3.98 3.98 0 0 1-.431.4c-.515.42-1.092.58-1.742.39-.325-.095-.645-.202-.968-.303-.333-.104-.67-.187-1.021-.195-.434-.01-.837.12-1.238.27-.305.113-.611.23-.926.305-.496.119-.945-.035-1.356-.315-.415-.283-.743-.654-1.028-1.063a10.89 10.89 0 0 1-1.588-3.34 7.807 7.807 0 0 1-.212-3.269c.146-.974.507-1.852 1.188-2.578.705-.752 1.572-1.061 2.59-.96.507.051.99.199 1.477.341.202.06.409.104.613.156.293.075.582.04.864-.043.4-.117.793-.251 1.192-.37a3.724 3.724 0 0 1 1.804-.109c.79.154 1.415.583 1.938 1.181.066.075.13.152.194.228.006.006.009.016.015.028M9.494 0c.008.174.032.339.021.5-.06.885-.4 1.644-.997 2.284-.27.29-.567.543-.935.691-.313.127-.646.154-.978.179-.005 0-.01-.006-.016-.009C6.635 1.673 7.61.397 9.494 0" fill="#DFDFDF"/><path d="M18.528 8.376c.368.092.834.128 1.397.128 2.038 0 3.28-.933 3.28-2.634 0-1.629-1.223-2.415-3.086-2.415-.737 0-1.3.055-1.591.128v4.793zM16.839 2.43a20.73 20.73 0 0 1 3.241-.238c1.669 0 2.892.366 3.668 1.025.718.585 1.145 1.482 1.145 2.58 0 1.116-.35 1.994-1.01 2.634-.892.897-2.347 1.354-3.997 1.354-.504 0-.97-.018-1.358-.11v4.94h-1.689V2.43zm13.611 8.072c-1.82-.037-3.888.282-3.888 2.047 0 1.07.72 1.577 1.574 1.577 1.195 0 1.954-.751 2.22-1.52.056-.17.094-.358.094-.527v-1.577zm.247 4.638l-.133-1.146h-.057c-.512.714-1.498 1.352-2.807 1.352-1.859 0-2.807-1.295-2.807-2.61 0-2.196 1.972-3.398 5.52-3.379V9.17c0-.75-.21-2.102-2.087-2.102-.854 0-1.745.262-2.39.675l-.38-1.088c.76-.489 1.86-.808 3.016-.808 2.808 0 3.49 1.896 3.49 3.718v3.398c0 .788.039 1.558.152 2.178h-1.517zm3.38-9.235l2.036 5.312c.212.595.442 1.3.596 1.84h.039c.173-.54.365-1.227.595-1.877l1.845-5.275h1.787l-2.536 6.408c-1.211 3.084-2.037 4.662-3.19 5.628-.826.706-1.653.985-2.075 1.059l-.423-1.374c.423-.13.98-.39 1.48-.8.46-.352 1.037-.984 1.421-1.82.077-.167.135-.297.135-.39 0-.092-.039-.222-.115-.427l-3.44-8.284h1.845z" fill="#929292"/></g></svg>