<svg width="40" height="13" viewBox="0 0 40 13" xmlns="http://www.w3.org/2000/svg" xmlns:xlink="http://www.w3.org/1999/xlink"><title>Visa</title><defs><path d="M17.46 4.184c0 3.208 4.553 3.248 4.553 4.932 0 1.683-4.083 1.383-5.431.321l-.49 2.786s1.47.703 3.716.703c2.247 0 5.635-1.143 5.635-4.252 0-3.227-4.594-3.527-4.594-4.931s3.206-1.223 4.615-.46l.47-2.667s-1.45-.542-2.961-.542c-1.634 0-5.513.702-5.513 4.11zM31.635.297c-1.222 0-1.519.925-1.519.925l-4.91 11.49h3.432l.686-1.844h4.185l.386 1.844h3.022L34.282.297h-2.647zm.367 3.377l.973 4.646h-2.703l1.73-4.646zM12.829.297l-2.057 12.415h3.292L16.122.297h-3.293zm-4.826 0L4.865 8.836l-.372-1.839.001.001-.082-.413a10.313 10.313 0 0 0-2.921-3.634 13.066 13.066 0 0 0-1.465-.996l2.853 10.757h3.43L11.546.297H8.003z" id="a"/><path d="M-2.939.001l-.06.219s2.492.53 4.883 2.516C4.169 4.633 4.914 7 4.914 7L3.807 1.169S3.673.001 2.246.001h-5.185z" id="c"/></defs><g transform="translate(3)" fill="none" fill-rule="evenodd"><mask id="b" fill="#fff"><use xlink:href="#a"/></mask><path fill="#929292" mask="url(#b)" d="M-4.974 17.926h46.891V-4.925H-4.974z"/><mask id="d" fill="#fff"><use xlink:href="#c"/></mask><path fill="#F6F6F6" mask="url(#d)" d="M-7.999 12H9.914V-4.999H-7.999z"/></g></svg>