<svg width="25" height="25" viewBox="0 0 25 25" xmlns="http://www.w3.org/2000/svg"><title>Shape</title><path d="M0 12.5C0 5.596 5.596 0 12.5 0S25 5.596 25 12.5 19.404 25 12.5 25 0 19.404 0 12.5zm13.154 3.685s.24-.026.364-.156c.113-.119.109-.343.109-.343s-.015-1.05.481-1.205c.49-.152 1.117 1.015 1.784 1.464.503.339.885.265.885.265l1.781-.025s.931-.056.49-.775c-.037-.059-.258-.532-1.324-1.503-1.117-1.018-.967-.853.378-2.613.819-1.071 1.146-1.726 1.044-2.005-.097-.268-.7-.197-.7-.197l-2.005.012s-.148-.02-.259.045c-.107.063-.177.211-.177.211s-.317.83-.74 1.535c-.893 1.487-1.25 1.566-1.396 1.474-.34-.216-.255-.865-.255-1.327 0-1.442.223-2.043-.433-2.199-.218-.052-.379-.086-.936-.091-.716-.007-1.32.002-1.664.167-.228.11-.404.354-.297.368.133.017.433.08.592.292.205.274.198.89.198.89s.118 1.698-.276 1.908c-.27.145-.64-.15-1.436-1.5-.408-.692-.716-1.456-.716-1.456s-.059-.143-.165-.22a.83.83 0 0 0-.308-.121l-1.905.012s-.286.008-.391.13c-.094.108-.007.333-.007.333s1.491 3.425 3.18 5.152c1.549 1.582 3.307 1.478 3.307 1.478h.797z" fill="#929292" fill-rule="evenodd"/></svg>