<svg width="8" height="8" viewBox="0 0 8 8" xmlns="http://www.w3.org/2000/svg" xmlns:xlink="http://www.w3.org/1999/xlink"><title>Combined Shape</title><defs><path d="M10.455 9.344h3.893c.304 0 .551.247.551.555a.554.554 0 0 1-.551.556h-3.893v3.893a.56.56 0 0 1-.556.551.554.554 0 0 1-.555-.551v-3.893H5.45A.552.552 0 0 1 4.9 9.9c0-.306.248-.555.552-.555h3.893V5.45a.56.56 0 0 1 .555-.552c.307 0 .556.248.556.552v3.893z" id="a"/></defs><use fill="#929292" transform="rotate(45 14.142 -.343)" xlink:href="#a" fill-rule="evenodd"/></svg>