<svg width="18" height="18" viewBox="0 0 18 18" fill="none" xmlns="http://www.w3.org/2000/svg"><path d="M3.422 16.951c-.82 0-1.59-.319-2.169-.898a3.07 3.07 0 0 1 0-4.337l9.482-9.482a4.018 4.018 0 0 1 2.861-1.185c1.081 0 2.098.42 2.861 1.185a4.02 4.02 0 0 1 1.186 2.861c0 1.081-.42 2.097-1.185 2.861L8.994 15.42a.573.573 0 1 1-.81-.81l7.463-7.464a2.88 2.88 0 0 0 .85-2.05c0-.774-.303-1.502-.85-2.05a2.88 2.88 0 0 0-2.051-.85c-.774 0-1.503.302-2.05.85l-9.482 9.482a1.923 1.923 0 0 0 0 2.715c.726.725 1.99.725 2.716 0l6.366-6.367a.936.936 0 0 0 .272-.657.93.93 0 0 0-1.586-.657L5.484 11.91a.573.573 0 1 1-.81-.81L9.02 6.75a2.079 2.079 0 0 1 2.936 0c.392.393.608.914.608 1.468a2.09 2.09 0 0 1-.608 1.468L5.59 16.053a3.05 3.05 0 0 1-2.169.898z" fill="#676767"/></svg>