<svg width="15" height="15" viewBox="0 0 15 15" fill="none" xmlns="http://www.w3.org/2000/svg"><g clip-path="url(#a)"><path d="M14.633 1.367A1.203 1.203 0 0 0 13.75 1H1.25c-.344 0-.638.122-.883.367A1.204 1.204 0 0 0 0 2.25v8.5c0 .344.122.638.367.883s.54.367.883.367H5.5c0 .198-.042.401-.125.61-.083.208-.167.39-.25.546-.083.156-.125.27-.125.344 0 .135.05.253.149.351a.48.48 0 0 0 .351.15h4a.48.48 0 0 0 .352-.15A.48.48 0 0 0 10 13.5c0-.068-.042-.181-.125-.34a5.742 5.742 0 0 1-.25-.555A1.647 1.647 0 0 1 9.5 12h4.25c.344 0 .638-.122.883-.367s.367-.54.367-.883v-8.5c0-.344-.122-.638-.367-.883zM14 8.75a.24.24 0 0 1-.074.176.24.24 0 0 1-.176.074H1.25a.24.24 0 0 1-.176-.074A.24.24 0 0 1 1 8.75v-6.5a.24.24 0 0 1 .074-.176A.24.24 0 0 1 1.25 2h12.5a.24.24 0 0 1 .176.074.24.24 0 0 1 .074.176v6.5z" fill="#3D404C"/></g><defs><clipPath id="a"><path fill="#fff" d="M0 0h15v15H0z"/></clipPath></defs></svg>