<svg xmlns="http://www.w3.org/2000/svg" width="22" height="22" viewBox="0 0 22 22"><defs><style>.cls-1{fill:#c1c1c1;fill-rule:evenodd}</style></defs><path id="Right" class="cls-1" d="M503 1228a11 11 0 1 1 11-11 11 11 0 0 1-11 11zm0-19.94a8.94 8.94 0 1 0 8.938 8.94 8.948 8.948 0 0 0-8.938-8.94zm-1.022 13.48a1.014 1.014 0 0 1-.695.27 1.029 1.029 0 0 1-.695-1.79l3.3-3.02-3.3-3.02a1.029 1.029 0 0 1 .695-1.79 1.014 1.014 0 0 1 .695.27l4.125 3.78a1.03 1.03 0 0 1 0 1.52z" transform="translate(-492 -1206)"/></svg>