<svg xmlns="http://www.w3.org/2000/svg" width="16" height="14" viewBox="0 0 16 14"><defs><style>.cls-1{fill:#fff;fill-rule:evenodd}</style></defs><path id="BASKET" class="cls-1" d="M984.994 57.865v.032a.547.547 0 0 1 0 .057v.007a.764.764 0 0 1-.75.778h-.664l-1.608 6.67a.754.754 0 0 1-.725.59h-8.5a.754.754 0 0 1-.725-.59l-1.608-6.67h-.664a.778.778 0 0 1 0-1.556h14.564a.762.762 0 0 1 .676.649l.004.033zm-10.244 1.654a.75.75 0 1 0-1.5 0v4.148a.751.751 0 1 0 1.5 0v-4.148zm3 0a.75.75 0 1 0-1.5 0v4.148a.751.751 0 1 0 1.5 0v-4.148zm3 0a.75.75 0 1 0-1.5 0v4.148a.751.751 0 1 0 1.5 0v-4.148zm-2.9-6.36a.793.793 0 0 1-.1-.379.764.764 0 0 1 .75-.78.746.746 0 0 1 .669.432l2.03 3.977h-1.7zm-1.69 0l-1.66 3.249h-1.7l2.03-3.977a.744.744 0 0 1 .67-.431.764.764 0 0 1 .75.778.79.79 0 0 1-.1.379z" transform="translate(-969 -52)"/></svg>