<svg xmlns="http://www.w3.org/2000/svg" width="16" height="16" viewBox="0 0 16 16"><defs><style>.cls-1{fill:#929fac;fill-rule:evenodd}</style></defs><path id="Speech_bubble_-_right_tip_-_text" data-name="Speech bubble - right tip - text" class="cls-1" d="M663 1123l-2 3-2-3h-6a3 3 0 0 1-3-3v-7a3 3 0 0 1 3-3h10a3 3 0 0 1 3 3v7a3 3 0 0 1-3 3zm1-10a1 1 0 0 0-1-1h-10a1 1 0 0 0-1 1v7a1 1 0 0 0 1 1h6.667l1.333 2 1.333-2H663a1 1 0 0 0 1-1v-7zm-10 3h8v1h-8v-1zm0-2h8v1h-8v-1zm4 5h-4v-1h4v1z" transform="translate(-650 -1110)"/></svg>