<svg xmlns="http://www.w3.org/2000/svg" width="32.063" height="28.875" viewBox="0 0 32.063 28.875"><defs><style>.cls-1{fill:#fc0000;fill-rule:evenodd}</style></defs><path id="Heart" class="cls-1" d="M707.013 595.969c.98 0 2.753.469 5.628 3.3l1.425 1.4 1.4-1.425c2-2.028 4.12-3.288 5.543-3.288a6.525 6.525 0 0 1 4.906 2.128 7.333 7.333 0 0 1-.014 10.4c-.114.117-6.155 6.634-11.217 12.1a.945.945 0 0 1-.655.261.957.957 0 0 1-.65-.253c-1.234-1.372-10.173-11.313-11.213-12.351a7.33 7.33 0 0 1 0-10.387 6.436 6.436 0 0 1 4.842-1.884m0-2a8.434 8.434 0 0 0-6.256 2.469 9.331 9.331 0 0 0 0 13.217c1.045 1.044 11.184 12.323 11.184 12.323a2.957 2.957 0 0 0 4.182 0s11.09-11.969 11.208-12.089a9.332 9.332 0 0 0 0-13.218 8.543 8.543 0 0 0-6.318-2.712c-2.364 0-5 1.885-6.969 3.885-2.031-2-4.586-3.875-7.031-3.875z" transform="translate(-698.031 -593.969)"/></svg>