<svg xmlns="http://www.w3.org/2000/svg" width="19" height="9" viewBox="0 0 19 9"><defs><style>.cls-1{fill:#1c9def;fill-rule:evenodd}</style></defs><path id="ico-4" class="cls-1" d="M29.3 637.006c-4.645-.213-7.759 3.539-8.259 3.568s-3.29-2.712-3.754-2.712c-.918 0 .724 2.621.724 3.638s-1.475 3.956-.724 3.956c.277 0 3.531-2.99 3.811-2.99s3.5 3.539 8.677 3.539c3.808 0 6.227-2.961 6.227-4.607-.002-1.281-2.06-4.176-6.702-4.392zm4.018 4.71a1.106 1.106 0 0 1-.838-1.087.733.733 0 0 1 .838-.8 1.106 1.106 0 0 1 .838 1.087.732.732 0 0 1-.841.8z" transform="translate(-17 -637)"/></svg>