<svg xmlns="http://www.w3.org/2000/svg" width="11" height="19" viewBox="0 0 11 19"><defs><style>.cls-1{fill:#e1845f;fill-rule:evenodd}</style></defs><path id="ico-9" class="cls-1" d="M29.9 855.419v-1.729a2.687 2.687 0 0 0-.021-.331 2.49 2.49 0 0 0 .706-1.93 4.27 4.27 0 1 0-8.534 0 2.343 2.343 0 0 0 1.043 2.183v1.807A3.081 3.081 0 0 0 21 858.33v3.828A3.778 3.778 0 0 0 24.7 866h3.6a3.778 3.778 0 0 0 3.7-3.842v-3.828a3.081 3.081 0 0 0-2.1-2.911zm-.684-3.7a.672.672 0 1 1-.671-.694.686.686 0 0 1 .674.69zm-1.151-2.691a.544.544 0 1 1-.525.543.535.535 0 0 1 .528-.547zm-1.724-1.335a.389.389 0 1 1-.525.366.469.469 0 0 1 .528-.37zm0 1.729a.546.546 0 1 1-.525.545.537.537 0 0 1 .528-.549zm0 2.107a.7.7 0 1 1-.671.7.683.683 0 0 1 .674-.704zm-1.724-2.5a.544.544 0 1 1-.523.543.533.533 0 0 1 .526-.548zm-.478 2a.7.7 0 1 1-.671.694.682.682 0 0 1 .674-.702zm6.534 11.137a2.423 2.423 0 0 1-2.374 2.465H24.7a2.423 2.423 0 0 1-2.374-2.465v-3.836c0-1.068.658-1.46 1.639-1.793a.686.686 0 0 0 .459-.655v-1.807a11.391 11.391 0 0 0 1.9.13 9.831 9.831 0 0 0 2.255-.2v2.382l.459.154c.979.333 1.639.725 1.639 1.793v3.828zm-7.39-.246a1.85 1.85 0 0 0 1.813 1.882h2.748a1.849 1.849 0 0 0 1.811-1.882v-3.073h-6.369v3.073z" transform="translate(-21 -847)"/></svg>