<svg xmlns="http://www.w3.org/2000/svg" width="19.969" height="14" viewBox="0 0 19.969 14"><defs><style>.cls-1{fill:#fe6d6d;fill-rule:evenodd}</style></defs><path id="ico-3" class="cls-1" d="M16.023 274.211a1.61 1.61 0 0 0 1.1 1.919 5.894 5.894 0 0 1 2.034 0c1.029.3 6.034 4.189 8.663 3.962s2.651-1.867 2.788-1.867c.046 1.918-1.211 3.079-2.263 3.054a11.187 11.187 0 0 1-5.486-1.691c-2.309-1.414-3.406-1.767-3.794-1.464a2.654 2.654 0 0 0 .48 3.155c1.1 1.034 2.446 2.675 7.772 2.725S36 280.319 36 277.871 32.846 270 27.314 270a4.435 4.435 0 0 0-4.614 3.1 12.061 12.061 0 0 1 2.926-.051 2.569 2.569 0 0 1 2.057 1.843 5.161 5.161 0 0 0-3.543-.808c-1.51.068-3.614.538-4.666.361-.373-.063-1.7-1.191-2.269-1.2a1.491 1.491 0 0 0-1.182.966z" transform="translate(-16.031 -270)"/></svg>