<svg xmlns="http://www.w3.org/2000/svg" width="16" height="18" viewBox="0 0 16 18"><defs><style>.cls-1{fill:#ff2d2d;fill-rule:evenodd}</style></defs><path id="ico-10" class="cls-1" d="M33.225 898.357h-.138a1.831 1.831 0 0 0-1.125.481 3.683 3.683 0 0 1-4.7 0 1.88 1.88 0 0 0-2.518 0 3.683 3.683 0 0 1-4.7 0 1.82 1.82 0 0 0-1.117-.481h-.142a1.6 1.6 0 0 0-.79.171L20.56 907h10.549L34 898.524a1.562 1.562 0 0 0-.775-.167zm-10.825-.576a1.8 1.8 0 0 0 1.263-.488 3.688 3.688 0 0 1 4.694 0 1.873 1.873 0 0 0 2.522 0 3.68 3.68 0 0 1 1.859-.812 6.132 6.132 0 0 0-2.645-3 2.419 2.419 0 0 1-3.636.686 2.69 2.69 0 0 1-1.1-1.746 6.943 6.943 0 0 0-6.072 4.057 3.691 3.691 0 0 1 1.855.812 1.785 1.785 0 0 0 1.26.491zm4.578-4.381a1.381 1.381 0 0 0 2.071-.392.266.266 0 0 1 .011-.031c.544-1.338-.54-1.273-.76-1.429-.268-.191-.853-1.537-1.706-.271a1.564 1.564 0 0 0 .38 2.123zm1.943-2.458c.143.044 1.561-1.339 2.485-1.476a.833.833 0 0 0-.392-.466 9.691 9.691 0 0 0-2.212 1.826.105.105 0 0 0 .115.116z" transform="translate(-18 -889)"/></svg>