<svg xmlns="http://www.w3.org/2000/svg" width="18" height="18" viewBox="0 0 18 18"><defs><style>.cls-1{fill:#f3d652;fill-rule:evenodd}</style></defs><path id="ico-7" class="cls-1" d="M35 770.533a.141.141 0 0 0-.011-.017c-.113-1.289-1.546-2.249-3.524-2.851-.085.453-.2.968-.316 1.344 1.553.488 2.432 1.144 2.432 1.677 0 .722-1.645 1.689-4.4 2.132a19.418 19.418 0 0 1-2.4.228c-.206.007-.415.01-.628.014H26c-.592 0-1.156-.025-1.688-.066-3.645-.287-5.892-1.465-5.892-2.308a1.657 1.657 0 0 1 1.081-1.124l-.847-1.112a2.857 2.857 0 0 0-1.642 2.046.051.051 0 0 0-.011.027v.163c0 .038 0 .076.007.117.145 4.9 4.084 8.2 8.991 8.2s8.857-3.293 8.991-8.207a1.012 1.012 0 0 0 .01-.11v-.045c-.006-.035 0-.073 0-.108zm-14.366-5.363c.035-1.3 0-2.782-2.869-3.607.121 2.213 1.326 3.337 2.869 3.607zm-2.268.256a4.125 4.125 0 0 0 .968 1.386 2.552 2.552 0 0 0 2.329.438 2.728 2.728 0 0 0-.447-.829 3.079 3.079 0 0 0-2.85-.995zM28.569 761c-1.608 1.567-1.662 3.194-.833 4.491 1.017-.846 2.12-1.863.833-4.491zm-.914 5.989a2.9 2.9 0 0 0-.1.929 3.288 3.288 0 0 0 1.73-.739 2.629 2.629 0 0 0 .688-1.234 5.368 5.368 0 0 0 .174-1.133 4.073 4.073 0 0 0-1.727.916 2.606 2.606 0 0 0-.765 1.26zm-.815.643a2.82 2.82 0 0 0 .287-.674 2.4 2.4 0 0 0-.043-1.42 3.647 3.647 0 0 0-1.064-1.521 4.222 4.222 0 0 0-.4 1.5 1.982 1.982 0 0 0 .454 1.41 4.352 4.352 0 0 0 .765.704zm-4.471-.712a5.325 5.325 0 0 0 .425-.823c.319-.815.294-1.79-1.064-3.131a3.078 3.078 0 0 0 .046 3.342 2.969 2.969 0 0 0 .593.611zm-2.138 1.009a5.82 5.82 0 0 0 .638 1.071 2.754 2.754 0 0 0 3.053 1.019c.028 0 .053-.01.078-.014-.014-.041-.028-.083-.046-.124a2.9 2.9 0 0 0-1.017-1.351 3.9 3.9 0 0 0-2.706-.602zm3.6 2.737a4.876 4.876 0 0 0-2.379.19 6.453 6.453 0 0 0 1.092 1.137 12.486 12.486 0 0 0 1.386.207 16.683 16.683 0 0 0 2.1.083v.01a.257.257 0 0 0 .025-.01.127.127 0 0 1 .028-.014 4.1 4.1 0 0 0-.128-.2 3.291 3.291 0 0 0-2.126-1.404zm.489-1.331a6.406 6.406 0 0 0 .6-.826c.036-.059.067-.114.1-.173a2.421 2.421 0 0 0 .28-1.133 2.234 2.234 0 0 0-.018-.263 3.528 3.528 0 0 0-.425-1.265 7.11 7.11 0 0 0-.588-.9 5.3 5.3 0 0 0-.617 1.151 3.552 3.552 0 0 0-.234 1.161 2.886 2.886 0 0 0 .28 1.351 3.384 3.384 0 0 0 .621.896zm1.975 1.832a2.836 2.836 0 0 0 .082-2.855 4.082 4.082 0 0 0-.589-.839 5.067 5.067 0 0 0-.308.843 3.4 3.4 0 0 0 .1 2.232 6.567 6.567 0 0 0 .713.618zm.905 1.063a24.054 24.054 0 0 0 2.34-.28 6.8 6.8 0 0 0 .23-1.285 4.35 4.35 0 0 0-2.57 1.565zm3.269-4.375a4.942 4.942 0 0 0-1.879.612 3.077 3.077 0 0 0-1.262 1.351 3.206 3.206 0 0 0-.3 1.127h.057a2.991 2.991 0 0 0 3.141-2.184 7.3 7.3 0 0 0 .244-.906z" transform="translate(-17 -761)"/></svg>