<svg xmlns="http://www.w3.org/2000/svg" width="14" height="18" viewBox="0 0 14 18"><defs><style>.cls-1{fill:#f14444;fill-rule:evenodd}</style></defs><path id="ico-1" class="cls-1" d="M31.137 187.107a4.165 4.165 0 0 1-.7-.134 1.038 1.038 0 0 0 .166.833 10.037 10.037 0 0 1 1.368 2.63c-1.957-.259-4.346 1.411-5.812-.883a1.9 1.9 0 0 1-.763 1.335c-1.111.955-2.286.5-4.259 1.98-.219-2.4-.408-3.915.631-5.184a7.787 7.787 0 0 1-1.436.069A7.121 7.121 0 0 0 19 191.916a7 7 0 1 0 12.137-4.809zm-9.931-.348a6.163 6.163 0 0 0 2.434.023 4.307 4.307 0 0 0-1.7 4.106c1.274-.956 2.623-.692 3.118-1.5a9.8 9.8 0 0 0 .828-1.911c.54 1.862 2.834 1.816 4.391 1.709a5.025 5.025 0 0 0-2.222-2.355.557.557 0 0 1 0-.647 2.874 2.874 0 0 0 1.916-.1 3.1 3.1 0 0 0 1.512-1.212c-1.629.142-2.1-.7-2.812-.741a3.384 3.384 0 0 0-1.606.191 4.352 4.352 0 0 1 .926-1.044 4.265 4.265 0 0 1 2.642-1.059c-.246-.3-.472-.65-.669-.894a.653.653 0 0 0-.421-.325 5.473 5.473 0 0 0-3.091 2.626c-.215-1.338-1.489-.979-2.316-2.194a3.083 3.083 0 0 0-.253 2.618 1.18 1.18 0 0 0 .608.673c-1.984-.765-3.5 1.147-4.841.86a2.452 2.452 0 0 0 1.556 1.176z" transform="translate(-19 -181)"/></svg>