<svg xmlns="http://www.w3.org/2000/svg" viewBox="0 0 297 297" width="512" height="512"><path d="M190.999 116.626V9.884a9.883 9.883 0 0 0-15.814-7.907l-65.231 48.924a9.884 9.884 0 0 0-3.953 7.906v57.819h84.998zm6.425 13.837h-22.732v88.833c0 5.458-4.426 9.883-9.884 9.883s-9.883-4.425-9.883-9.883v-88.833H99.576c-5.458 0-9.883 4.425-9.883 9.883v146.771c0 5.458 4.425 9.884 9.883 9.884h97.848c5.458 0 9.883-4.426 9.883-9.884V140.346c0-5.458-4.425-9.883-9.883-9.883zm-25.632 131.026a9.958 9.958 0 0 1-6.987 2.896 9.979 9.979 0 0 1-6.987-2.896 9.956 9.956 0 0 1-2.896-6.987 9.96 9.96 0 0 1 2.896-6.988 9.956 9.956 0 0 1 6.987-2.896c2.6 0 5.149 1.057 6.987 2.896a9.916 9.916 0 0 1 2.896 6.988 9.91 9.91 0 0 1-2.896 6.987z" fill="#fa4f4f"/></svg>