<svg xmlns="http://www.w3.org/2000/svg" width="16" height="13" viewBox="0 0 16 13"><defs><style>.cls-1{fill:#a69c97;fill-rule:evenodd}</style></defs><path id="ico-8" class="cls-1" d="M30.041 810.1a8.123 8.123 0 0 0-4.041-.751 8.131 8.131 0 0 0-4.043.753l-.15.145a.359.359 0 0 0-.073.21c0 .611 1.91 1.105 4.266 1.105s4.262-.494 4.262-1.105a.358.358 0 0 0-.073-.21.982.982 0 0 0-.148-.147zm3.719 5.871a2.845 2.845 0 0 0-.356-.443 3.12 3.12 0 0 0-.35-.294V812.1a2.172 2.172 0 0 0 .946-1.691 1.91 1.91 0 0 0-.239-.909 2.977 2.977 0 0 0-.356-.476C32.253 807.791 29.349 807 26 807s-6.256.8-7.406 2.029l-.311.409-.072.115a1.869 1.869 0 0 0-.212.861 2.168 2.168 0 0 0 .946 1.69v3.137a3.1 3.1 0 0 0-.35.294l-.311.381-.072.107a1.65 1.65 0 0 0-.213.8c0 2.086 4.025 3.177 8 3.177s8-1.091 8-3.177a1.691 1.691 0 0 0-.24-.85zM26 812.163c-4.159 0-6.3-1.229-6.3-1.754a.237.237 0 0 1 .014-.076l.169-.226c.723-.73 3.037-1.458 6.121-1.458 3.122 0 5.453.748 6.135 1.478a1.717 1.717 0 0 1 .129.162.261.261 0 0 1 .033.12c-.001.509-2.207 1.754-6.301 1.754z" transform="translate(-18 -807)"/></svg>