<svg xmlns="http://www.w3.org/2000/svg" width="22" height="11" viewBox="0 0 22 11"><defs><style>.cls-1{fill:#f89d3c;fill-rule:evenodd}</style></defs><path id="ico-6" class="cls-1" d="M36.971 729.515c-.4 2.374-5.559 3.637-11.578 3.494-5.956-.138-10.522-1.4-10.391-4.194a5.293 5.293 0 0 1 1.862-3.486c2.934-.323 4.836 1.506 6.21 2.928a9.114 9.114 0 0 0-2.22-5.26 17.051 17.051 0 0 1 2.394-.654 10.416 10.416 0 0 1 4.824 5.134 19.644 19.644 0 0 0 .144-5.477 11.662 11.662 0 0 1 2.033.377 9.589 9.589 0 0 1 2.386 4.66 6.234 6.234 0 0 0 1.342-2.76c2.168 1.707 3.209 3.951 2.994 5.238z" transform="translate(-15 -722)"/></svg>