<svg xmlns="http://www.w3.org/2000/svg" width="18" height="17" viewBox="0 0 18 17"><defs><style>.cls-1{fill:#5fb929;fill-rule:evenodd}</style></defs><path id="ico-12" class="cls-1" d="M34.543 976.63l-4.32-1.591a.723.723 0 0 0-.815.224L26.435 979h-8.312A1.109 1.109 0 0 0 17 980.093v.918a2.413 2.413 0 0 0 1.243 2.1l5.634 3.172c.074.042.152.076.229.11v2.8l-4.538 2.556c-.127.07.09.246.23.246h10.648c.164 0 .357-.176.23-.246L26.14 989.2v-2.806c.077-.034.155-.068.229-.11L32 983.111a2.413 2.413 0 0 0 1.243-2.1v-.918a1.11 1.11 0 0 0-1.12-1.093h-3.885l1.651-2.074a.725.725 0 0 1 .811-.226l3.335 1.229a.719.719 0 0 0 .918-.4.689.689 0 0 0-.41-.899z" transform="translate(-17 -975)"/></svg>