<svg xmlns="http://www.w3.org/2000/svg" width="18" height="14" viewBox="0 0 18 14"><defs><style>.cls-1{fill:#c0a889;fill-rule:evenodd}</style></defs><path id="ico-11" class="cls-1" d="M34.428 939.344a3.058 3.058 0 0 0-2.511-1.432v-.352a1.564 1.564 0 0 0-1.566-1.56H19.505a1.564 1.564 0 0 0-1.567 1.561v5.139a4.292 4.292 0 0 0 4.3 4.284h5.378a4.3 4.3 0 0 0 3.668-2.056 3.884 3.884 0 0 0 3.326-1.983 3.633 3.633 0 0 0-.182-3.601zm-1.121 2.927a2.2 2.2 0 0 1-1.443 1.073 4.269 4.269 0 0 0 .054-.642v-3.326a1.618 1.618 0 0 1 1.276.761 2.183 2.183 0 0 1 .113 2.134zm-.694 5.4h-15.37a.248.248 0 0 0-.248.247v.117A1.976 1.976 0 0 0 18.976 950h11.9a1.976 1.976 0 0 0 1.98-1.972v-.117a.248.248 0 0 0-.244-.243z" transform="translate(-17 -936)"/></svg>