<svg xmlns="http://www.w3.org/2000/svg" width="20" height="13" viewBox="0 0 20 13"><defs><style>.cls-1{fill:#e1845f;fill-rule:evenodd}</style></defs><path id="ico-5" class="cls-1" d="M36 679.771c.034-.256-1.183-.553-1.325-.7s.572-1.292.323-1.549-1.221.368-1.221.368a2.366 2.366 0 0 0-.822-.885c-.254.04 0 2.031 0 2.031s-1.635-.682-2.512.221c-2.357 2.212-4.16 2.079-8.25 2.057a4.37 4.37 0 0 1 1.919 4.414A5.249 5.249 0 0 1 21.636 690c3.953.129 6.176-1.441 8.211-2.935 3.175-2.329 4.221-4.859 3.932-6.921 0-.001 2.19-.112 2.221-.373zm-16.588 1.287a2.776 2.776 0 0 0-.4-.089s-2.431-.725-2.906 3.039 1.287 5.391 3.124 5.447h.02c1.819.05 2.957-1.227 3.341-4.1.343-2.591-1.865-3.94-3.176-4.297zm-1.459 6.83a.919.919 0 0 1-.864-1.16c.109-.63.269-1.037.921-1.037a.927.927 0 0 1 .624.97c.004.639-.025 1.272-.677 1.227zm1.03-3.774a1.027 1.027 0 0 1-.612-.814.566.566 0 0 1 .652-.731.655.655 0 0 1 .435.686c.003.445-.014.892-.472.859zm2.082 2.28a1.308 1.308 0 0 1-1.024-.792.706.706 0 0 1 .538-1.109.842.842 0 0 1 .772.691c.158.552.29 1.098-.282 1.21z" transform="translate(-16 -677)"/></svg>