<svg xmlns="http://www.w3.org/2000/svg" width="16" height="16" viewBox="0 0 16 16"><defs><style>.cls-1{fill:#f9ce07;fill-rule:evenodd}</style></defs><path id="ico-2" class="cls-1" d="M26.361 225.157a2.5 2.5 0 0 0-2.023.155l-5.969 3.761a.143.143 0 0 0 .082.264l14.521-1.037a.154.154 0 0 0 .047-.294zm7.634 5.367a.781.781 0 0 0-.841-.795l-9.389.666a1.358 1.358 0 0 1 .053.389 1.449 1.449 0 1 1-2.9 0 1.436 1.436 0 0 1 .012-.188l-1.991.142-.1.008a.925.925 0 0 0-.837.917v8.536a.78.78 0 0 0 .841.8l9.141-.649a2.479 2.479 0 0 1-1.15-2.106 2.386 2.386 0 1 1 4.769 0 2.478 2.478 0 0 1-.882 1.909l2.43-.171a.928.928 0 0 0 .849-.921v-2.324zm-12.667 8.6a1.753 1.753 0 1 1 1.7-1.75 1.727 1.727 0 0 1-1.7 1.754zm4.217-3.978a1.124 1.124 0 1 1 1.093-1.121 1.106 1.106 0 0 1-1.093 1.125zm5.688-1.565a1.311 1.311 0 1 1 1.267-1.311 1.291 1.291 0 0 1-1.267 1.315z" transform="translate(-18 -225)"/></svg>