<svg xmlns="http://www.w3.org/2000/svg" width="17" height="15" viewBox="0 0 17 15"><defs><style>.cls-1{fill:#54c7f2;fill-rule:evenodd}</style></defs><path id="ico-13" class="cls-1" d="M34 1029.5l-.448-.79h-1.981l.864-1.53-.448-.79h-.9l-1.312 2.32h-2.93l1.467-2.59h2.624l.448-.79-.448-.79h-1.728l.991-1.75-.449-.79h-.9l-.99 1.75-.86-1.53h-.9l-.448.79 1.312 2.32-1.467 2.59-1.467-2.59 1.312-2.32-.448-.79H24l-.863 1.53-.991-1.75h-.9l-.448.79.991 1.75h-1.724l-.448.79.448.79h2.624l1.467 2.59h-2.934l-1.312-2.32h-.9l-.448.79.864 1.53h-1.978l-.448.79.448.79h1.981l-.864 1.53.448.79h.9l1.312-2.32h2.934l-1.467 2.59h-2.627l-.448.79.448.79h1.728l-.991 1.75.448.79h.9l.991-1.75.859 1.53h.9l.448-.79-1.312-2.32 1.467-2.59 1.467 2.59-1.312 2.32.448.79H27l.864-1.53.991 1.75h.9l.448-.79-.991-1.75h1.728l.448-.79-.448-.79h-2.628l-1.467-2.59h2.934l1.312 2.32h.9l.448-.79-.864-1.53h1.981z" transform="translate(-17 -1022)"/></svg>