<svg xmlns="http://www.w3.org/2000/svg" width="15" height="15" viewBox="0 0 15 15"><defs><style>.cls-1{fill:#c5c0b7;fill-rule:evenodd}</style></defs><path id="telephone_copy" data-name="telephone copy" class="cls-1" d="M778.667 59A13.592 13.592 0 0 0 782 56.5a16.089 16.089 0 0 0-3.646-2.4 11.506 11.506 0 0 0-1.527 1.3c-.263.13-1.9.083-3.732-1.745a8.715 8.715 0 0 1-2.454-4.262c0-.331 1.525-1.351 1.568-1.591S770.2 44 769.865 44A15.4 15.4 0 0 0 767 47.333c0 .256.232 3.554 4.407 7.729S778.333 59 778.667 59z" transform="translate(-767 -44)"/></svg>