<svg xmlns="http://www.w3.org/2000/svg" width="28" height="16.062" viewBox="0 0 28 16.062"><defs><style>.cls-1{fill:#bdbdbd;fill-rule:evenodd}</style></defs><path id="Color_Fill_2" data-name="Color Fill 2" class="cls-1" d="M1046.04 891.045c1.78-.073 3.95-.234 4.34 1.206a4.332 4.332 0 0 1 0 1.437c-.02 1.1-.03 2.2-.05 3.293 0 .814.03 1.767.75 1.855.39.211 1.3-1.025 1.49-1.3a22.067 22.067 0 0 0 2.34-3.942c.2-.458.46-1.6.93-1.716a3.613 3.613 0 0 1 1.54-.093 21.025 21.025 0 0 1 4.39.185c.07.109.15.217.23.325a3.249 3.249 0 0 1-.7 1.9c-.83 1.341-1.71 2.509-2.61 3.756-.31.429-1.51 1.531-1.26 2.365a3.393 3.393 0 0 0 1.3 1.484c.21.217.41.433.61.65a9.687 9.687 0 0 1 2.01 2.226 2.28 2.28 0 0 1 .65 1.53c-.11.114-.16.317-.28.418a3.813 3.813 0 0 1-2.15.324c-2.21 0-3.46.179-4.76-.788a4.987 4.987 0 0 1-.88-.974c-.27-.263-.53-.526-.8-.789a2.222 2.222 0 0 0-1.72-1.159 2.6 2.6 0 0 0-.56.417c-.47.68-.4 1.9-.61 2.829-1.68 1.137-5.09.125-6.58-.556-2.76-1.259-4.56-4.093-6.11-6.586-.25-.387-.57-.8-.8-1.205-.36-.652-.6-1.3-.98-1.948-.42-.715-.73-1.491-1.12-2.273a3.756 3.756 0 0 1-.65-1.716.813.813 0 0 1 .33-.278 2.535 2.535 0 0 1 1.26-.139 17.105 17.105 0 0 1 3.73.093c.62.263.97 1.579 1.26 2.226a20.263 20.263 0 0 0 2.24 3.664 2.548 2.548 0 0 0 1.17 1.113c1 .267.89-1.414 1.02-2.134a8.917 8.917 0 0 0-.37-3.895 3.467 3.467 0 0 0-1.26-.65.286.286 0 0 1-.05-.185 2.893 2.893 0 0 1 1.08-.742 6.968 6.968 0 0 1 1.63-.228z" transform="translate(-1034 -890.969)"/></svg>