<svg xmlns="http://www.w3.org/2000/svg" width="32" height="29.031" viewBox="0 0 32 29.031"><defs><style>.cls-1{fill:#fc0000;fill-rule:evenodd}</style></defs><path id="Wallet" class="cls-1" d="M985.994 598.562a2.964 2.964 0 0 0-2.433-3.064L961.194 591l-.208-.021a3 3 0 0 0-3 3V598h-1a3 3 0 0 0-2.986 3v15.994a3 3 0 0 0 3 3h26.014a3 3 0 0 0 3-3M960.9 592.982l22.063 4.465A.891.891 0 0 1 982 598h-22.014v-4.018a1 1 0 0 1 .914-1zm23.114 24.009a1 1 0 0 1-1 1H957a1 1 0 0 1-1-1V601a1 1 0 0 1 1-1h25c.981 0 2.013-.335 2.013-1v17.991zM960 607a2 2 0 1 1-2 2 2 2 0 0 1 2-2z" transform="translate(-954 -590.969)"/></svg>