<svg width="165" height="150" viewBox="0 0 165 150" fill="none" xmlns="http://www.w3.org/2000/svg">
<path d="M134.651 37.9938C102.4 66.8087 74.3402 53.4469 54.6635 22.6569C54.6635 22.6569 82.0246 72.9667 0.523438 80.0542C0.523438 80.0542 51.4035 92.0217 37.8975 131.294C37.8975 131.294 79.9289 102.246 89.5926 150C91.5719 136.754 106.941 110.031 148.39 129.551C138.61 106.081 140.24 88.1874 164.69 80.9837C147.808 81.0999 117.419 59.1402 134.651 37.9938Z" fill="#F7BC19"/>
<path d="M126.618 24.9806V130.713H106.708H38.5967V24.9806H126.618Z" fill="white"/>
<path d="M126.618 25.213H38.5967V42.0604H126.618V25.213Z" stroke="black" stroke-width="2" stroke-miterlimit="10"/>
<path d="M126.618 41.9442V130.713H106.708H38.5967V41.9442H126.618Z" stroke="black" stroke-width="2" stroke-miterlimit="10" stroke-linecap="round" stroke-linejoin="round"/>
<path d="M57.6907 17.8931H55.8278C55.0128 17.8931 54.4307 18.5902 54.4307 19.2873V30.4415C54.4307 31.2548 55.1292 31.8357 55.8278 31.8357H57.6907C58.5057 31.8357 59.0879 31.1386 59.0879 30.4415V19.2873C59.0879 18.5902 58.3893 17.8931 57.6907 17.8931Z" fill="white" stroke="black" stroke-width="2" stroke-miterlimit="10"/>
<path d="M113.345 17.8931H111.482C110.667 17.8931 110.085 18.5902 110.085 19.2873V30.4415C110.085 31.2548 110.784 31.8357 111.482 31.8357H113.345C114.16 31.8357 114.742 31.1386 114.742 30.4415V19.2873C114.742 18.5902 114.16 17.8931 113.345 17.8931Z" fill="white" stroke="black" stroke-width="2" stroke-miterlimit="10"/>
<path d="M53.6153 121.65C57.9236 121.65 61.4161 118.165 61.4161 113.865C61.4161 109.566 57.9236 106.081 53.6153 106.081C49.307 106.081 45.8145 109.566 45.8145 113.865C45.8145 118.165 49.307 121.65 53.6153 121.65Z" stroke="black" stroke-width="2" stroke-miterlimit="10"/>
<path d="M50.7041 113.517L53.1491 115.957L58.6214 110.612" stroke="black" stroke-width="2" stroke-miterlimit="10"/>
<path d="M108.687 66.4601C112.995 66.4601 116.487 62.9748 116.487 58.6754C116.487 54.3761 112.995 50.8907 108.687 50.8907C104.378 50.8907 100.886 54.3761 100.886 58.6754C100.886 62.9748 104.378 66.4601 108.687 66.4601Z" stroke="black" stroke-width="2" stroke-miterlimit="10"/>
<path d="M105.775 58.2106L108.22 60.6506L113.809 55.3059" stroke="black" stroke-width="2" stroke-miterlimit="10"/>
<path d="M68.1688 46.8241C67.9362 47.2889 68.1688 122.115 68.1688 122.115" stroke="black" stroke-width="2" stroke-miterlimit="10" stroke-linecap="round" stroke-linejoin="round"/>
<path d="M95.8798 46.8241C95.6471 47.2889 95.8798 122.115 95.8798 122.115" stroke="black" stroke-width="2" stroke-miterlimit="10" stroke-linecap="round" stroke-linejoin="round"/>
<path d="M44.418 71.9209H119.865" stroke="black" stroke-width="2" stroke-miterlimit="10" stroke-linecap="round" stroke-linejoin="round"/>
<path d="M44.418 98.6444H119.865" stroke="black" stroke-width="2" stroke-miterlimit="10" stroke-linecap="round" stroke-linejoin="round"/>
<path d="M143.849 57.9783L161.313 49.6127" stroke="black" stroke-width="2" stroke-miterlimit="10"/>
<path d="M30.562 58.6754L11.1182 52.866" stroke="black" stroke-width="2" stroke-miterlimit="10"/>
<path d="M16.5908 130.713L32.4253 118.048" stroke="black" stroke-width="2" stroke-miterlimit="10"/>
<path d="M82.1416 17.8931V0" stroke="black" stroke-width="2" stroke-miterlimit="10"/>
<path d="M134.302 106.081L161.314 117.351" stroke="black" stroke-width="2" stroke-miterlimit="10"/>
</svg>
