<svg width="162" height="159" viewBox="0 0 162 159" fill="none" xmlns="http://www.w3.org/2000/svg">
<path d="M90.4715 135.087C88.0917 111.467 100.747 91.6317 130.427 98.563C130.427 98.563 110.186 76.8235 132.819 44.9112C132.819 44.9112 101.295 59.225 80.7453 31.8428C80.7453 31.8428 76.5962 71.1156 35.9136 53.4163C44.3791 61.0702 54.6394 83.3712 15.3409 98.3552C38.2198 104.05 50.375 113.822 40.8996 131.86C50.9634 121.772 85.4433 114.544 90.4715 135.087Z" fill="#F7BC19"/>
<path d="M122.139 55.3402C115.544 35.5689 98.4984 24.3776 79.3374 24.3776C60.4252 24.3776 44.126 35.9419 37.4072 52.4802C36.9095 53.848 35.7897 57.2054 35.292 58.5732H46.6144C47.1121 56.708 47.8586 54.9671 48.7296 53.3506C54.3286 42.2837 65.7754 34.6984 78.9641 34.6984C92.4017 34.6984 104.471 42.1593 109.945 55.4645H96.632L117.037 75.8576L135.078 55.4645H122.139V55.3402Z" fill="white" stroke="black" stroke-width="2" stroke-miterlimit="10"/>
<path d="M38.9012 88.914C45.4956 108.685 62.5414 119.877 81.7024 119.877C100.615 119.877 116.914 108.312 123.633 91.774C124.13 90.4062 125.25 87.0488 125.748 85.681H114.425C113.928 87.5462 113.181 89.2871 112.31 90.9036C106.711 101.971 95.2644 109.556 82.0757 109.556C68.6381 109.556 56.5692 102.095 51.0946 88.7897H64.4077L43.8781 68.521L25.8369 88.914H38.9012Z" fill="white" stroke="black" stroke-width="2" stroke-miterlimit="10"/>
<path d="M123.507 38.5532L144.659 24.3776" stroke="black" stroke-width="2" stroke-miterlimit="10"/>
<path d="M28.4492 130.073C30.5644 127.959 40.8914 114.53 40.8914 114.53L28.4492 130.073Z" fill="white"/>
<path d="M28.4492 130.073C30.5644 127.959 40.8914 114.53 40.8914 114.53" stroke="black" stroke-width="2" stroke-miterlimit="10"/>
<path d="M25.8369 19.6523L35.293 31.4654" stroke="black" stroke-width="2" stroke-miterlimit="10" stroke-linecap="round" stroke-linejoin="round"/>
<path d="M85.1865 17.1653V1.00012" stroke="black" stroke-width="2" stroke-miterlimit="10" stroke-linecap="round" stroke-linejoin="round"/>
<path d="M130.973 107.939L144.659 121.866" stroke="black" stroke-width="2" stroke-miterlimit="10" stroke-linecap="round" stroke-linejoin="round"/>
<path d="M81.0791 130.073V144" stroke="black" stroke-width="2" stroke-miterlimit="10" stroke-linecap="round" stroke-linejoin="round"/>
</svg>
