<svg width="174" height="139" viewBox="0 0 174 139" fill="none" xmlns="http://www.w3.org/2000/svg">
<path d="M61.4187 114.055C75.313 89.1994 103.748 77.3635 132.937 102.004C132.937 102.004 124.966 68.3252 173.327 50.3562C173.327 50.3562 127.121 45.4067 122.812 5.81033C122.812 5.81033 90.4999 42.1787 56.141 0C60.4493 12.8043 56.5718 40.9951 0.886719 32.0644C23.29 51.6474 30.3987 68.7556 6.81067 80.8067C25.4442 76.9331 70.0353 90.5982 61.4187 114.055Z" fill="#F7BC19"/>
<path d="M137.461 115.687L122.274 42.3051L119.151 36.8176L112.581 32.1908L55.3875 30.6844L45.5861 36.6024L20.5978 113.751C20.3824 118.055 25.1215 120.314 40.9546 118.377C41.17 118.377 42.7857 118.377 45.1552 118.485V137.853H116.566C116.566 137.853 116.566 127.523 116.566 123.542C122.597 123.542 128.306 123.219 131.429 121.928C140.369 118.162 135.415 114.611 137.461 115.687Z" fill="white"/>
<path d="M60.5573 42.8431C60.2342 43.9191 55.1719 69.7428 55.1719 69.7428" stroke="black" stroke-width="2" stroke-miterlimit="10" stroke-linecap="round" stroke-linejoin="round"/>
<path d="M101.702 42.8431L105.257 75.6608" stroke="black" stroke-width="2" stroke-miterlimit="10" stroke-linecap="round" stroke-linejoin="round"/>
<path d="M80.8066 21.969L83.7148 4" stroke="black" stroke-width="2" stroke-miterlimit="10" stroke-linecap="round" stroke-linejoin="round"/>
<path d="M54.6335 26.1653L44.0781 5.93677" stroke="black" stroke-width="2" stroke-miterlimit="10" stroke-linecap="round" stroke-linejoin="round"/>
<path d="M109.564 21.969C109.564 21.1082 116.458 5.93677 116.458 5.93677" stroke="black" stroke-width="2" stroke-miterlimit="10" stroke-linecap="round" stroke-linejoin="round"/>
<path d="M128.736 39.6151L144.354 30.6844" stroke="black" stroke-width="2" stroke-miterlimit="10" stroke-linecap="round" stroke-linejoin="round"/>
<path d="M32.7686 40.6911L16.9355 30.6844" stroke="black" stroke-width="2" stroke-miterlimit="10" stroke-linecap="round" stroke-linejoin="round"/>
<path d="M51.7252 40.6912C51.7252 41.552 35.3535 110.63 35.3535 110.63" stroke="black" stroke-width="2" stroke-miterlimit="10" stroke-linecap="round" stroke-linejoin="round"/>
<path d="M57.8652 113.536L71.8673 42.8431" stroke="black" stroke-width="2" stroke-miterlimit="10" stroke-linecap="round" stroke-linejoin="round"/>
<path d="M88.3457 42.8431C88.3457 43.7039 95.1313 114.934 95.1313 114.934" stroke="black" stroke-width="2" stroke-miterlimit="10" stroke-linecap="round" stroke-linejoin="round"/>
<path d="M20.5978 113.751C20.3824 118.377 25.8755 120.745 45.0476 117.839V115.795" stroke="black" stroke-width="2" stroke-miterlimit="10" stroke-linecap="round" stroke-linejoin="round"/>
<path d="M137.461 115.688C137.461 115.688 140.262 118.055 131.322 121.821C122.382 125.587 116.458 123.757 116.458 123.757V110.738" stroke="black" stroke-width="2" stroke-miterlimit="10" stroke-linecap="round" stroke-linejoin="round"/>
<path d="M116.457 122.251C116.457 124.403 116.457 137.853 116.457 137.853H45.0469V116.979" stroke="black" stroke-width="2" stroke-miterlimit="10" stroke-linecap="round" stroke-linejoin="round"/>
<path d="M117.643 110.63C117.212 106.972 113.012 34.1277 113.012 34.1277" stroke="black" stroke-width="2" stroke-miterlimit="10" stroke-linecap="round" stroke-linejoin="round"/>
<path d="M116.458 111.276C112.904 108.694 101.379 111.384 95.024 114.934C90.3925 119.023 74.5594 124.08 57.5415 114.934C43.8626 119.023 39.2312 110.2 35.246 110.63C23.8289 108.586 20.5977 113.751 20.5977 113.751L45.6937 36.6024L55.4951 30.6844L112.688 32.1908L119.258 36.8176L122.382 42.3051L137.569 115.687C130.352 112.029 122.382 116.979 116.458 111.276Z" stroke="black" stroke-width="2" stroke-miterlimit="10" stroke-linecap="round" stroke-linejoin="round"/>
</svg>
