<svg width="186" height="153" viewBox="0 0 186 153" fill="none" xmlns="http://www.w3.org/2000/svg">
<path d="M151.334 17.2255C115.15 49.5886 83.6684 34.5816 61.5921 0C61.5921 0 92.29 56.505 0.849609 64.4652C0.849609 64.4652 57.9345 77.9064 42.7815 122.014C42.7815 122.014 89.9386 89.3901 100.781 143.024C103.002 128.148 120.245 98.1333 166.749 120.057C155.776 93.6964 157.604 73.6 185.037 65.5092C166.095 65.6397 132.001 40.9759 151.334 17.2255Z" fill="#F7BC19"/>
<path d="M158.52 80.9078L157.997 80.2553C157.997 80.1248 157.997 80.1248 157.867 79.9943C157.736 79.8638 157.736 79.7333 157.605 79.7333L156.952 78.9503C153.425 74.5135 148.2 71.773 142.583 71.2511L137.619 70.8596L108.358 38.6269C96.6015 26.0993 77.9216 23.4894 63.2911 31.9716L58.5885 25.3163C57.1515 23.2284 54.1471 22.7064 52.057 24.2723C49.9669 25.7078 49.4444 28.7092 51.012 30.7972L55.9759 37.7135C45.003 48.6752 41.2148 68.1191 48.3994 82.4738L68.5163 120.84L65.6424 127.626C63.0298 133.759 64.2055 138.587 67.7325 143.938V144.068C67.7325 144.068 67.7325 144.068 67.8631 144.068C67.9938 144.329 68.255 144.59 68.3856 144.851L68.7775 144.59C74.1333 145.504 94.6421 134.672 117.372 118.491C140.101 102.309 157.213 86.6496 157.997 81.2993L158.52 80.9078Z" fill="white"/>
<path d="M117.404 118.438C142.279 100.777 160.377 83.5557 157.827 79.9722C155.278 76.3887 133.047 87.8005 108.172 105.461C83.2976 123.122 65.1995 140.343 67.7489 143.927C70.2983 147.51 92.5297 136.099 117.404 118.438Z" stroke="black" stroke-width="2" stroke-miterlimit="10" stroke-linecap="round" stroke-linejoin="round"/>
<path d="M158.52 80.9078L156.952 78.9503C153.425 74.5135 148.2 71.773 142.583 71.251L137.619 70.8596L108.358 38.6269C96.6015 26.0993 77.9216 23.4894 63.2911 31.9716L58.5885 25.3163C57.1515 23.2284 54.1471 22.7064 52.057 24.2723C49.9669 25.7078 49.4444 28.7092 51.012 30.7972L55.9759 37.7135C45.003 48.6752 41.2148 68.1191 48.3994 82.4737L68.5163 120.84L65.6424 127.626C62.8992 134.15 64.3361 139.109 68.5163 144.982" stroke="black" stroke-width="2" stroke-miterlimit="10" stroke-linecap="round" stroke-linejoin="round"/>
<path d="M92.8135 117.055C92.8135 117.055 120.768 121.623 122.597 95.7844" stroke="black" stroke-width="2" stroke-miterlimit="10" stroke-linecap="round" stroke-linejoin="round"/>
<path d="M127.43 72.817L101.566 43.0638C101.566 43.0638 87.4576 27.5347 67.8633 38.7574" stroke="black" stroke-width="2" stroke-miterlimit="10" stroke-linecap="round" stroke-linejoin="round"/>
<path d="M63.291 31.9717L53.8857 39.8015" stroke="black" stroke-width="2" stroke-miterlimit="10" stroke-linecap="round" stroke-linejoin="round"/>
<path d="M118.285 30.0142L131.871 7.82981L122.727 3.91492L118.285 30.0142Z" fill="#F7BC19"/>
<path d="M40.0384 46.3263L22.0116 27.5348L15.8721 35.3646L40.0384 46.3263Z" fill="#F7BC19"/>
<path d="M41.475 90.0426L19.0068 97.8724" stroke="black" stroke-width="2" stroke-miterlimit="10"/>
<path d="M130.041 125.277L141.406 149.157" stroke="black" stroke-width="2" stroke-miterlimit="10"/>
<path d="M35.2051 151.767C35.2051 151.376 51.2725 130.888 51.2725 130.888" stroke="black" stroke-width="2" stroke-miterlimit="10"/>
<path d="M153.556 103.745L185.037 106.485" stroke="black" stroke-width="2" stroke-miterlimit="10"/>
<path d="M137.618 49.4581L163.352 35.8865" stroke="black" stroke-width="2" stroke-miterlimit="10"/>
</svg>
