<svg width="174" height="145" viewBox="0 0 174 145" fill="none" xmlns="http://www.w3.org/2000/svg">
<path d="M51.5891 136.107C67.1931 109.984 95.4956 95.578 121.323 117.831C121.323 117.831 116.696 84.72 164.691 62.5741C164.691 62.5741 120.785 61.6065 120.032 22.3673C120.032 22.3673 85.8103 61.6065 56.4317 22.3673C59.4449 34.7303 53.3109 63.3266 0.580078 59.3489C20.381 76.9797 25.7617 93.5354 1.97906 107.726C20.1658 102.028 61.92 111.919 51.5891 136.107Z" fill="#F7BC19"/>
<path d="M89.3621 114.929L96.6798 142.773L88.9316 144.923V116.111L89.3621 114.929Z" fill="#3DDCDC"/>
<path d="M34.8018 117.831L16.3998 139.977L10.1582 134.925L33.618 118.154L34.8018 117.831Z" fill="#FD02FB"/>
<path d="M143.707 91.2778L172.655 102.996" stroke="black" stroke-width="2" stroke-miterlimit="10"/>
<path d="M125.52 112.134L142.2 102.888L123.26 96.9755L134.236 53.2211C134.236 53.2211 135.528 49.781 136.711 46.1258H137.465C139.94 46.1258 141.985 44.0832 141.985 41.6106V37.7404C141.985 35.2678 139.94 33.2252 137.465 33.2252H112.283L87.5319 1.29634C86.4558 -0.20873 84.3035 -0.42374 82.9045 0.758812C81.6131 1.83386 81.3979 3.66144 82.4741 5.059L103.566 33.2252H45.132L66.2243 5.059C67.1929 3.76894 66.9776 1.83386 65.7939 0.758812C64.3949 -0.42374 62.3502 -0.20873 61.1665 1.29634L36.0924 33.2252H10.1575C7.68236 33.2252 5.6377 35.2678 5.6377 37.7404V41.6106C5.6377 44.0832 7.68236 46.1258 10.1575 46.1258H12.6326L12.7402 46.4483H12.4174L24.793 108.479H100.123L108.732 136.322L117.449 120.412L134.344 136.86L142.523 128.474L125.52 112.134ZM43.4102 90.8477H36.0924C35.7696 90.8477 35.4468 90.6327 35.4468 90.3102L31.465 47.6309C31.465 47.3083 31.6803 47.0933 32.0031 47.0933H39.3209C39.6437 47.0933 39.9665 47.3083 39.9665 47.6309L44.0559 90.3102C44.0559 90.6327 43.8406 90.8477 43.4102 90.8477ZM64.8254 90.0952C64.8254 90.5252 64.5025 90.8477 64.0721 90.8477H56.9695C56.5391 90.8477 56.2162 90.5252 56.2162 90.0952V47.8459C56.2162 47.4158 56.5391 47.0933 56.9695 47.0933H64.0721C64.5025 47.0933 64.8254 47.4158 64.8254 47.8459V90.0952ZM88.1776 90.0952C88.1776 90.5252 87.8548 90.8477 87.4243 90.8477H80.3218C79.8913 90.8477 79.5685 90.5252 79.5685 90.0952V47.8459C79.5685 47.4158 79.8913 47.0933 80.3218 47.0933H87.4243C87.8548 47.0933 88.1776 47.4158 88.1776 47.8459V90.0952ZM109.485 90.3102C109.485 90.6327 109.162 90.8477 108.839 90.8477H101.522C101.199 90.8477 100.984 90.6327 100.984 90.3102L105.934 47.6309C105.934 47.3083 106.257 47.0933 106.58 47.0933H113.897C114.22 47.0933 114.435 47.3083 114.435 47.6309L109.485 90.3102Z" fill="white"/>
<path d="M113.144 34.0852L89.6844 3.23139C88.6082 1.72633 86.456 1.51132 85.057 2.69387C83.7656 3.76892 83.5504 5.5965 84.6265 6.99406L105.826 35.2678" stroke="black" stroke-width="2" stroke-miterlimit="10" stroke-linecap="round" stroke-linejoin="round"/>
<path d="M39.8594 34.0852L63.3192 3.23139C64.3954 1.72633 66.5476 1.51132 67.9466 2.69387C69.238 3.76892 69.4532 5.5965 68.3771 6.99406L47.1771 35.3753" stroke="black" stroke-width="2" stroke-miterlimit="10" stroke-linecap="round" stroke-linejoin="round"/>
<path d="M102.383 111.059H27.0533L14.6777 48.9209H138.111L125.52 99.5556" stroke="black" stroke-width="2" stroke-miterlimit="10" stroke-linecap="round" stroke-linejoin="round"/>
<path d="M140.156 48.5984H11.8803C9.62045 48.5984 7.79102 46.7709 7.79102 44.5133V39.7831C7.79102 37.5255 9.62045 35.6979 11.8803 35.6979H140.049C142.308 35.6979 144.138 37.5255 144.138 39.7831V44.4058C144.245 46.7709 142.416 48.5984 140.156 48.5984Z" stroke="black" stroke-width="2" stroke-miterlimit="10" stroke-linecap="round" stroke-linejoin="round"/>
<path d="M45.6707 101.383H38.353C38.0301 101.383 37.7073 101.168 37.7073 100.846L33.7256 58.1663C33.7256 57.8438 33.9408 57.6288 34.2637 57.6288H41.5814C41.9042 57.6288 42.2271 57.8438 42.2271 58.1663L46.2088 100.846C46.2088 101.168 45.9936 101.383 45.6707 101.383Z" stroke="black" stroke-width="2" stroke-miterlimit="10" stroke-linecap="round" stroke-linejoin="round"/>
<path d="M104.105 91.8153L108.087 58.1663C108.087 57.8438 108.41 57.6288 108.733 57.6288H116.051C116.373 57.6288 116.589 57.8438 116.589 58.1663L112.284 95.3629" stroke="black" stroke-width="2" stroke-miterlimit="10" stroke-linecap="round" stroke-linejoin="round"/>
<path d="M89.6849 101.383H82.4748C82.1519 101.383 81.8291 101.061 81.8291 100.738V58.2738C81.8291 57.9513 82.1519 57.6288 82.4748 57.6288H89.6849C90.0078 57.6288 90.3306 57.9513 90.3306 58.2738V100.738C90.3306 101.061 90.0078 101.383 89.6849 101.383Z" stroke="black" stroke-width="2" stroke-miterlimit="10" stroke-linecap="round" stroke-linejoin="round"/>
<path d="M66.3324 101.383H59.1222C58.7994 101.383 58.4766 101.061 58.4766 100.738V58.2738C58.4766 57.9513 58.7994 57.6288 59.1222 57.6288H66.3324C66.6552 57.6288 66.9781 57.9513 66.9781 58.2738V100.738C66.9781 101.061 66.7628 101.383 66.3324 101.383Z" stroke="black" stroke-width="2" stroke-miterlimit="10" stroke-linecap="round" stroke-linejoin="round"/>
<path d="M110.884 138.902L96.0332 90.4177L144.459 105.361L127.779 114.606L144.675 131.055L136.496 139.44L119.601 122.992L110.884 138.902Z" stroke="black" stroke-width="2" stroke-miterlimit="10" stroke-linecap="round" stroke-linejoin="round"/>
<path d="M132.3 107.833L101.737 95.3629L127.134 110.199L132.3 107.833Z" fill="#F7BC19"/>
</svg>
