<svg width="216" height="194" viewBox="0 0 216 194" fill="none" xmlns="http://www.w3.org/2000/svg">
<path d="M119.804 47.7664C104.964 80.8481 78.9397 80.3044 53.3059 63.453C53.3059 63.453 91.6033 92.5545 31.5829 126.087C31.5829 126.087 74.7019 117.725 77.9019 152.535C77.9019 152.535 100.103 115.822 123.886 149.091C120.864 138.171 123.485 112.458 161.859 113.249C146.371 98.5711 141.335 84.2831 157.609 70.3055C144.843 76.2479 113.968 69.7614 119.804 47.7664Z" fill="#F7BC19"/>
<path d="M142.659 131.847C161.887 113.692 162.659 83.4879 144.513 64.4004C126.312 45.0719 96.0771 44.3004 76.9703 62.4282C58.665 79.6147 57.0395 107.731 72.422 126.936L67.2075 131.915L64.8906 129.524L29.8989 162.644L31.5695 164.421L28.7482 167.086L35.4031 174.072L38.2244 171.407L39.8949 173.183L74.8866 140.063L71.896 136.938L77.1105 131.958C95.4507 149.101 124.14 149.208 142.659 131.847ZM82.8451 122.553C68.8343 107.727 69.4843 84.2659 84.2989 70.1487C99.1408 56.1522 122.625 56.8015 136.757 71.601C150.768 86.4279 150.118 109.889 135.303 124.006C120.341 138.03 96.8559 137.38 82.8451 122.553Z" fill="white"/>
<path d="M72.3954 126.815L66.4454 132.467" stroke="black" stroke-width="2" stroke-miterlimit="10"/>
<path d="M77.205 131.81L71.255 137.463" stroke="black" stroke-width="2" stroke-miterlimit="10"/>
<path d="M134.832 123.653C149.726 109.586 150.385 86.12 136.303 71.2409C122.221 56.3618 98.7318 55.7039 83.8375 69.7714C68.9433 83.8388 68.2847 107.305 82.3665 122.184C96.4483 137.063 119.938 137.721 134.832 123.653Z" stroke="black" stroke-width="2" stroke-miterlimit="10"/>
<path d="M142.529 131.783C161.693 113.683 162.541 83.4901 144.422 64.3456C126.303 45.2012 96.08 44.3546 76.9161 62.4548C57.7522 80.5549 56.9048 110.748 75.0234 129.892C93.1419 149.037 123.365 149.883 142.529 131.783Z" stroke="black" stroke-width="2" stroke-miterlimit="10"/>
<path d="M140.073 68.3178C156.078 85.2284 155.413 111.987 138.365 128.002" stroke="black" stroke-miterlimit="10"/>
<path d="M74.8531 139.958L64.9092 129.451L29.9402 162.479L39.8841 172.986L74.8531 139.958Z" stroke="black" stroke-width="2" stroke-miterlimit="10"/>
<path d="M31.5425 164.3L28.8419 166.938L35.3762 173.951L37.676 171.784" stroke="black" stroke-width="2" stroke-miterlimit="10"/>
<path d="M69.3827 139.279L40.4344 166.6" stroke="black" stroke-miterlimit="10"/>
<path d="M66.5667 54.0087C66.6212 54.2498 47.8947 34.2798 47.8947 34.2798C47.8947 34.2798 51.0737 30.3939 52.4986 31.0856C53.8963 31.6568 66.5667 54.0087 66.5667 54.0087Z" fill="#F7BC19"/>
<path d="M160.183 60.2265L179.681 46.065" stroke="black" stroke-width="2" stroke-miterlimit="10"/>
<path d="M50.6511 92.9556L15.8701 92.8312" stroke="black" stroke-width="2" stroke-miterlimit="10"/>
<path d="M116.622 40.9258L119.902 13.9565" stroke="black" stroke-width="2" stroke-miterlimit="10"/>
<path d="M167.383 105.657L196.85 93.6941L198.439 103.535L167.383 105.657Z" fill="#F7BC19"/>
<path d="M128.897 172.461C125.572 158.895 123.985 150.764 123.985 150.764" stroke="black" stroke-width="2" stroke-miterlimit="10"/>
</svg>
