<svg width="170" height="155" viewBox="0 0 170 155" fill="none" xmlns="http://www.w3.org/2000/svg">
<path d="M51.74 151.481C72.7483 112.698 104.177 115.72 133.756 138.554C133.756 138.554 89.9751 99.7696 165.857 64.5955C165.857 64.5955 112.832 70.7237 112.16 28.2461C112.16 28.2461 81.9079 70.7237 56.0257 28.2461C58.7147 41.6777 53.2526 72.6545 6.69824 68.2892C24.1771 87.4293 28.883 105.31 7.95874 120.673C24.0931 114.628 60.8996 125.29 51.74 151.481Z" fill="#FCD421"/>
<path d="M121.153 66.2745C121.153 66.2745 124.682 64.2598 127.624 62.4968C127.792 62.9166 128.044 63.3363 128.212 63.6721C128.296 63.924 128.632 64.0079 128.884 63.924L134.682 60.3142C134.85 60.2303 134.934 59.9784 134.85 59.8105C134.01 56.9563 132.245 54.3539 129.892 51.8355C129.724 51.6676 129.472 51.6676 129.304 51.7515L123.506 55.3613C123.254 55.5292 123.254 55.781 123.422 56.0329C123.758 56.4526 124.01 56.8723 124.346 57.2081C122.582 58.2995 120.145 59.7266 118.128 60.9018C114.094 54.7737 108.548 49.5689 101.825 45.7073C101.993 45.2876 102.666 43.7765 103.506 41.8457L108.548 44.0283C114.935 42.937 120.985 38.152 124.094 31.9398C129.304 21.5303 124.682 9.69368 114.346 4.57286C104.01 -0.547957 91.6573 2.80996 86.5313 13.2195C82.8338 20.6069 83.8422 29.0856 88.4641 35.2978L94.0103 37.7322L95.1027 36.3051C93.9262 38.9915 93.0019 41.0902 92.7498 41.6778C69.3885 34.1225 43.6744 45.3715 33.5904 68.2893C22.9182 92.7181 34.0946 121.176 58.5483 131.838C83.0019 142.499 111.489 131.334 122.161 106.905C128.044 93.4736 127.203 78.6148 121.153 66.2745ZM91.6573 32.9472C87.8758 27.9104 87.0355 20.9427 90.0607 14.9824C94.2623 6.50366 104.262 3.73338 112.75 7.93077C121.237 12.1282 124.934 21.7822 120.649 30.1769C118.128 35.2138 113.17 39.0754 107.96 39.9988L104.851 38.6557C105.607 36.8088 106.447 34.962 107.203 33.1991C108.212 33.7867 109.304 34.2904 110.313 34.878C110.817 35.2138 111.489 34.962 111.657 34.4583L116.111 24.3845C116.279 23.9648 116.111 23.3772 115.691 23.1253C110.229 20.0193 104.682 17.5008 99.0522 15.8219C98.548 15.654 98.1279 15.9058 97.8758 16.4095L93.422 26.5672C93.1699 27.0709 93.5061 27.7425 94.0103 27.9104C95.3548 28.3301 96.7833 28.7498 98.0438 29.2535C97.2875 31.0164 96.4472 32.9472 95.6069 34.7101L91.6573 32.9472Z" fill="white"/>
<path d="M120.422 105.789C131.109 81.3613 119.951 52.9036 95.4988 42.2268C71.0465 31.5499 42.56 42.697 31.8723 67.1245C21.1846 91.5519 32.343 120.01 56.7952 130.686C81.2475 141.363 109.734 130.216 120.422 105.789Z" stroke="black" stroke-width="2" stroke-miterlimit="10"/>
<path d="M79.9187 88.092C80.8295 86.0104 79.8786 83.5853 77.7948 82.6754C75.7111 81.7656 73.2835 82.7155 72.3727 84.7971C71.462 86.8788 72.4128 89.3039 74.4966 90.2137C76.5804 91.1236 79.0079 90.1736 79.9187 88.092Z" fill="white" stroke="black" stroke-width="2" stroke-miterlimit="10"/>
<path d="M79.0376 89.3486C80.6477 87.7442 80.651 85.1397 79.0451 83.5313C77.4391 81.9229 74.832 81.9196 73.2219 83.5239C71.6119 85.1283 71.6085 87.7327 73.2145 89.3411C74.8205 90.9496 77.4276 90.9529 79.0376 89.3486Z" fill="white" stroke="black" stroke-width="2" stroke-miterlimit="10"/>
<path d="M66.6125 98.2214C67.2697 97.5666 67.271 96.5035 66.6155 95.847C65.96 95.1905 64.8959 95.1892 64.2387 95.844C63.5816 96.4988 63.5802 97.5619 64.2357 98.2184C64.8912 98.8749 65.9553 98.8762 66.6125 98.2214Z" fill="white" stroke="black" stroke-width="2" stroke-miterlimit="10"/>
<path d="M79.0518 83.4839L97.9592 64.6796" stroke="black" stroke-width="2" stroke-miterlimit="10"/>
<path d="M73.2539 89.2762L66.4473 96.076" stroke="black" stroke-width="2" stroke-miterlimit="10"/>
<path d="M90.9854 52.5911L87.54 60.3982" stroke="black" stroke-miterlimit="10"/>
<path d="M69.0527 50.1566L69.8931 54.1861" stroke="black" stroke-miterlimit="10"/>
<path d="M83.5903 50.2405L82.75 54.27" stroke="black" stroke-miterlimit="10"/>
<path d="M75.7754 49.485L75.8593 53.5984" stroke="black" stroke-miterlimit="10"/>
<path d="M96.7826 55.781L94.5137 59.1389" stroke="black" stroke-miterlimit="10"/>
<path d="M107.875 67.4498L104.346 69.5485" stroke="black" stroke-miterlimit="10"/>
<path d="M103.338 61.4055L100.312 64.1758" stroke="black" stroke-miterlimit="10"/>
<path d="M112.498 79.4543L108.38 80.2099" stroke="black" stroke-miterlimit="10"/>
<path d="M112.413 93.6415L108.38 92.802" stroke="black" stroke-miterlimit="10"/>
<path d="M113.085 86.0862L108.968 86.1701" stroke="black" stroke-miterlimit="10"/>
<path d="M107.119 106.653L103.674 104.387" stroke="black" stroke-miterlimit="10"/>
<path d="M102.75 112.026L99.8086 109.172" stroke="black" stroke-miterlimit="10"/>
<path d="M96.5316 117.231L94.2627 113.789" stroke="black" stroke-miterlimit="10"/>
<path d="M67.876 122.52L68.8844 118.574" stroke="black" stroke-miterlimit="10"/>
<path d="M83.4224 122.771L82.498 118.742" stroke="black" stroke-miterlimit="10"/>
<path d="M75.8594 123.359V119.246" stroke="black" stroke-miterlimit="10"/>
<path d="M41.5732 99.6019L45.4388 98.0908" stroke="black" stroke-miterlimit="10"/>
<path d="M110.061 101.197L102.834 98.0068" stroke="black" stroke-miterlimit="10"/>
<path d="M61.3213 120.253L64.0944 113.957" stroke="black" stroke-miterlimit="10"/>
<path d="M42.2461 71.6472L48.2124 74.2496" stroke="black" stroke-miterlimit="10"/>
<path d="M62.666 52.0034L65.3551 58.9711" stroke="black" stroke-miterlimit="10"/>
<path d="M110.565 72.9064L103.674 75.6767" stroke="black" stroke-miterlimit="10"/>
<path d="M57.0352 55.2773L59.22 58.7192" stroke="black" stroke-miterlimit="10"/>
<path d="M46.6152 64.9314L49.9766 67.3659" stroke="black" stroke-miterlimit="10"/>
<path d="M51.6582 59.3069L54.4313 62.329" stroke="black" stroke-miterlimit="10"/>
<path d="M89.641 120.841L87.2881 114.796" stroke="black" stroke-miterlimit="10"/>
<path d="M39.7246 77.2717L43.7582 78.1952" stroke="black" stroke-miterlimit="10"/>
<path d="M38.7158 84.0714L42.8334 84.3233" stroke="black" stroke-miterlimit="10"/>
<path d="M39.1367 92.2144L45.2711 91.207" stroke="black" stroke-miterlimit="10"/>
<path d="M47.876 110.431L51.2373 108.081" stroke="black" stroke-miterlimit="10"/>
<path d="M53.1699 115.888L55.859 112.782" stroke="black" stroke-miterlimit="10"/>
<path d="M44.5986 104.807L48.2121 102.96" stroke="black" stroke-miterlimit="10"/>
<path d="M108.632 33.7028C103.674 30.7646 98.2954 28.3302 92.4131 26.6512C91.8249 26.4833 91.5728 25.8957 91.8249 25.308L96.2786 15.1503C96.4467 14.7306 96.9509 14.4788 97.4551 14.5627C103.085 16.2417 108.632 18.7601 114.094 21.8662C114.514 22.118 114.682 22.6217 114.514 23.1254L110.06 33.1991C109.808 33.7868 109.136 34.0386 108.632 33.7028Z" stroke="black" stroke-width="2" stroke-miterlimit="10"/>
<path d="M100.061 44.6161C100.061 44.6161 104.346 34.7942 105.775 31.5203" stroke="black" stroke-width="2" stroke-miterlimit="10"/>
<path d="M90.9004 40.6706C90.9004 40.6706 95.1861 30.8487 96.6146 27.5747" stroke="black" stroke-width="2" stroke-miterlimit="10"/>
<path d="M119.472 65.0153C119.472 65.0153 123.673 62.4969 125.606 61.2377" stroke="black" stroke-width="2" stroke-miterlimit="10"/>
<path d="M116.783 58.9711C116.783 58.9711 120.145 56.9564 122.161 55.6971" stroke="black" stroke-width="2" stroke-miterlimit="10"/>
<path d="M111.993 21.1106L107.119 32.3596" stroke="black" stroke-miterlimit="10"/>
<path d="M109.557 20.1033L104.599 31.2683" stroke="black" stroke-miterlimit="10"/>
<path d="M108.128 19.4316L103.254 30.6806" stroke="black" stroke-miterlimit="10"/>
<path d="M106.699 18.844L101.825 30.093" stroke="black" stroke-miterlimit="10"/>
<path d="M101.405 40.5026L106.867 42.8531C113.254 41.7618 119.304 36.9768 122.413 30.7646C127.624 20.3551 123.002 8.51845 112.666 3.39763C102.246 -1.80714 89.9767 1.63473 84.8507 12.0443C81.1532 19.4317 82.1616 27.9104 86.7834 34.1225L92.3296 36.557" stroke="black" stroke-width="2" stroke-miterlimit="10"/>
<path d="M102.666 37.1446L106.363 38.7396C111.573 37.8162 116.531 33.9546 119.052 28.9177C123.254 20.439 119.557 10.869 111.153 6.67157C102.666 2.47418 92.7499 5.24445 88.4642 13.7232C85.439 19.6835 86.2794 26.6511 90.0609 31.688L94.5987 33.6188" stroke="black" stroke-width="2" stroke-miterlimit="10"/>
<path d="M101.489 30.5967L96.4473 42.0975" stroke="black" stroke-miterlimit="10"/>
<path d="M126.447 62.4968C125.439 60.0624 123.674 57.46 121.657 54.8576C121.489 54.6058 121.573 54.3539 121.741 54.186L127.539 50.5763C127.707 50.4923 127.96 50.4923 128.128 50.6602C130.481 53.0947 132.245 55.6971 133.086 58.6352C133.17 58.8031 133.086 59.055 132.917 59.1389L127.119 62.7487C126.867 62.8326 126.615 62.7487 126.447 62.4968Z" stroke="black" stroke-width="2" stroke-miterlimit="10"/>
<path d="M131.658 56.2008L125.691 59.8945" stroke="black" stroke-miterlimit="10"/>
<path d="M130.565 54.6058L124.683 58.2995" stroke="black" stroke-miterlimit="10"/>
<path d="M110.027 101.25C118.205 82.5575 109.667 60.7812 90.9554 52.6111C72.2441 44.441 50.4457 52.971 42.2673 71.6633C34.0889 90.3556 42.6275 112.132 61.3388 120.302C80.0501 128.472 101.849 119.942 110.027 101.25Z" stroke="black" stroke-width="2" stroke-miterlimit="10"/>
<path d="M29.9761 54.9415L11.9089 34.7941L10.6484 39.0754L29.9761 54.9415Z" fill="#FD02FB"/>
<path d="M136.278 49.9046L169.051 38.1519C169.051 38.1519 165.69 28.9177 164.85 30.5966C164.009 32.2756 136.278 49.9046 136.278 49.9046Z" fill="#F7BC19"/>
<path d="M28.7153 132.174L0.984375 154" stroke="black" stroke-width="2" stroke-miterlimit="10"/>
<path d="M135.438 107.829L165.689 127.137" stroke="black" stroke-width="2" stroke-miterlimit="10"/>
</svg>
