<svg width="152" height="144" viewBox="0 0 152 144" fill="none" xmlns="http://www.w3.org/2000/svg">
<path d="M43.0868 120.97C56.1796 99.0508 79.9271 86.9636 101.598 105.636C101.598 105.636 79.3853 80.92 151.441 53.6786C151.441 53.6786 101.056 58.4594 100.424 25.5353C100.424 25.5353 71.7103 58.4594 47.0598 25.5353C49.6784 35.9988 44.5316 59.9929 0.287109 56.5651C16.9013 71.3585 21.4161 85.2497 1.46094 97.1565C16.7208 92.466 51.7551 100.674 43.0868 120.97Z" fill="#F7BC19"/>
<path d="M28.008 43.3956L8.50436 21.7468L7.24023 26.4374L28.008 43.3956Z" fill="#FD02FB"/>
<path d="M82.4561 102.749L102.953 125.931C102.953 125.931 107.016 122.864 106.023 122.684C105.12 122.594 82.4561 102.749 82.4561 102.749Z" fill="#F7BC19"/>
<path d="M125.347 67.0287L148.011 81.1004C148.011 81.1004 150.629 77.5825 149.726 77.6727C149.004 77.7629 125.347 67.0287 125.347 67.0287Z" fill="black"/>
<path d="M127.784 96.6153L124.263 85.9713L97.9869 7.31421C97.9869 7.31421 89.8603 45.1995 59.6116 54.8512L56.2707 56.2043L55.3677 56.5651L53.7424 52.8668L10.0398 69.9152L2.27441 83.9868L9.498 102.93L24.8481 105.636C24.8481 105.636 27.9181 104.463 32.3426 102.749L34.6902 108.251C35.7738 110.777 38.6632 112.04 41.1915 110.958L45.6159 109.154L60.966 139.823L71.8014 139.823L84.4427 132.606L79.9279 119.978L72.2529 122.233L58.5281 92.5561C64.4875 90.3011 69.0023 88.497 69.0926 88.497L68.1896 86.4223L69.0926 86.0615C86.4291 79.5669 112.434 86.6929 127.784 96.6153Z" fill="white"/>
<path d="M66.835 56.4749C66.835 56.4749 88.8669 47.5448 94.3749 35.9086" stroke="black" stroke-width="2" stroke-miterlimit="10" stroke-linecap="round" stroke-linejoin="round"/>
<path d="M58.9795 53.4982L62.4107 52.1452C92.5692 42.4935 100.696 4.60815 100.696 4.60815L130.493 93.9092C115.143 83.9869 89.1379 76.8609 71.8013 83.3555" stroke="black" stroke-width="2" stroke-miterlimit="10" stroke-linecap="round" stroke-linejoin="round"/>
<path d="M71.8006 85.791C71.4394 85.8812 27.5561 102.93 27.5561 102.93L12.206 100.223L4.98242 81.2808L12.7478 67.2092L56.4504 50.1608L71.8006 85.791Z" stroke="black" stroke-width="2" stroke-miterlimit="10"/>
<path d="M13.1094 66.8483L27.5565 102.93" stroke="black" stroke-width="2" stroke-miterlimit="10"/>
<path d="M15.8176 75.8687L6.78809 83.9869" stroke="black" stroke-miterlimit="10"/>
<path d="M24.8479 96.6154L11.3037 96.6154" stroke="black" stroke-miterlimit="10"/>
<path d="M7.69141 87.595L19.1588 82.0024" stroke="black" stroke-miterlimit="10"/>
<path d="M34.7793 99.3214L37.3978 105.545C38.4814 108.071 41.3708 109.334 43.8991 108.251L48.3235 106.447L63.6736 137.116L74.509 137.116L87.1503 129.9L82.6355 117.272L74.9605 119.527L60.9648 89.399" stroke="black" stroke-width="2" stroke-miterlimit="10"/>
<path d="M126.881 83.2652C126.881 83.0848 107.919 71.3584 85.3457 74.0645" stroke="black" stroke-width="2" stroke-miterlimit="10"/>
<path d="M22.1387 71.3584L58.2566 56.9259" stroke="black" stroke-width="2" stroke-miterlimit="10" stroke-linecap="round" stroke-linejoin="round"/>
<path d="M62.0485 104.734L54.1025 108.883" stroke="black" stroke-width="2" stroke-miterlimit="10" stroke-linecap="round" stroke-linejoin="round"/>
<path d="M65.2092 110.867L57.3535 114.656" stroke="black" stroke-width="2" stroke-miterlimit="10" stroke-linecap="round" stroke-linejoin="round"/>
<path d="M71.2586 122.864L63.6738 126.833" stroke="black" stroke-width="2" stroke-miterlimit="10" stroke-linecap="round" stroke-linejoin="round"/>
<path d="M68.2799 117.001L60.334 121.151" stroke="black" stroke-width="2" stroke-miterlimit="10" stroke-linecap="round" stroke-linejoin="round"/>
<path d="M126.52 43.3954L145.481 32.8417" stroke="black" stroke-width="2" stroke-miterlimit="10" stroke-linecap="round" stroke-linejoin="round"/>
<path d="M115.865 28.6924L126.52 1" stroke="black" stroke-width="2" stroke-miterlimit="10" stroke-linecap="round" stroke-linejoin="round"/>
<path d="M19.7012 142.348L38.6631 114.385" stroke="black" stroke-width="2" stroke-miterlimit="10" stroke-linecap="round" stroke-linejoin="round"/>
</svg>
