<svg width="172" height="133" viewBox="0 0 172 133" fill="none" xmlns="http://www.w3.org/2000/svg">
<path d="M97.7551 30.4746C99.2117 37.8167 102.548 41.7871 107.686 42.2459C108.661 42.3329 109.677 42.2906 110.734 42.1189C115.997 42.1896 121.27 39.8129 125.499 37.13C123.884 40.8713 123.173 44.8263 124.971 48.0207C126.665 51.0461 130.288 52.8067 135.692 53.2893C138.675 53.5556 142.318 53.4285 146.531 52.9264C138.188 58.329 134.965 64.7476 137.547 71.1523L137.622 71.3186L137.728 71.4612C140.558 75.759 146.986 76.7854 151.563 77.1941C153.749 77.3892 155.916 77.4497 157.936 77.497C151.667 79.359 143.928 82.6864 141.918 88.1755C140.893 90.9847 141.401 93.9575 143.413 97.0911C141.842 96.6847 140.318 96.4156 138.871 96.2864C134.5 95.8961 130.732 96.7572 127.598 98.8459C121.87 102.646 121.527 107.805 122.504 111.857C118.131 108.832 111.61 105.189 105.202 104.617C103.4 104.456 101.664 104.567 100.086 104.905C90.9236 106.163 85.1885 112.038 81.881 117.065C81.1757 110.642 78.4208 102.838 69.1985 101.775C69.0804 101.764 68.9327 101.751 68.8146 101.741C63.5283 101.269 56.3331 103.5 47.4133 108.372C44.3786 110.018 41.4502 111.805 38.8243 113.54C43.2835 107.285 47.0553 100.064 45.3518 95.1481C44.5485 92.8143 42.6159 91.1248 39.7194 90.2275C37.3721 89.5122 34.7379 89.0109 31.9028 88.7578C26.7347 88.2963 21.4295 88.7008 16.7847 89.3772C25.1529 84.3494 34.0325 77.265 35.2255 69.2546L35.2302 69.2018L35.2349 69.149C36.057 59.9612 26.4294 53.1137 17.5213 47.874C20.4143 48.4783 23.5258 48.969 26.6857 49.2511C36.0474 50.087 43.2261 48.7055 47.9807 45.1381C50.8512 42.9993 52.8085 40.087 53.8185 36.4514C56.7788 40.6278 61.6682 45.5353 70.4983 46.3237C72.3884 46.4925 74.4155 46.4606 76.491 46.2201C88.1302 44.8908 94.4724 36.8879 97.7551 30.4746Z" fill="#F7BC19"/>
<path d="M82.9788 112.453C82.8241 111.854 82.6398 111.252 82.4236 110.674C79.6168 102.785 73.8048 100.536 69.414 100.038C69.2663 100.025 69.1186 100.011 68.971 99.9983C61.9423 99.3707 52.8831 103.139 44.6047 107.829C47.1503 103 48.4615 98.3266 47.2176 94.5962C46.5359 92.566 44.7817 89.8812 40.3483 88.5273C37.8581 87.7461 35.0762 87.2316 32.0935 86.9652C29.347 86.72 26.5497 86.7097 23.8268 86.8658C30.4172 82.0785 36.1912 76.1006 37.1727 69.4552L37.1798 69.376L37.1869 69.2968C37.8696 61.6667 32.3021 55.6873 25.5309 50.8513C25.8853 50.883 26.2102 50.912 26.5646 50.9436C36.4578 51.827 44.0936 50.3266 49.2629 46.4503C51.5274 44.763 53.2638 42.6559 54.5018 40.1318C57.7799 43.7511 62.7603 47.3095 70.3796 47.9898C72.4173 48.1718 74.5944 48.1266 76.8176 47.8993C86.8608 46.7735 93.2113 41.0068 97.119 35.2614C97.191 35.4541 97.2631 35.6468 97.3351 35.8396C99.9092 42.004 104.317 43.6483 107.536 43.9358C108.628 44.0333 109.762 44.0015 110.94 43.814C114.899 43.8215 118.786 42.625 122.271 40.9402C121.73 43.6597 121.905 46.3632 123.24 48.7444C125.27 52.3322 129.399 54.4306 135.542 54.9791C137.107 55.1189 138.8 55.1636 140.652 55.0894C135.167 60.1618 133.375 65.8832 135.746 71.6569L135.868 71.9605L136.051 72.243C138.961 76.6544 144.846 78.0847 149.645 78.6729C144.574 81.1209 141.33 84.1046 140.066 87.5845C139.207 89.8762 139.233 92.2471 140.088 94.6653C139.736 94.6073 139.352 94.573 138.997 94.5414C134.154 94.1089 129.899 95.0862 126.387 97.4073C122.336 100.106 120.212 103.882 120.122 108.211C115.881 105.704 110.617 103.318 105.331 102.846C103.323 102.666 101.409 102.762 99.6466 103.163C92.0191 104.238 86.6313 108.228 82.9788 112.453ZM31.0733 120.992C31.1619 120.999 31.2233 120.978 31.3166 120.933C38.461 115.61 57.4121 102.426 68.6639 103.43C68.782 103.441 68.8706 103.449 68.9887 103.46C79.9487 104.731 80.4096 117.546 80.0955 123.053C80.0789 123.238 80.2467 123.36 80.3943 123.373C80.542 123.386 80.6672 123.317 80.7381 123.191C82.7379 118.473 88.4517 108.178 100.474 106.564L100.503 106.566C101.963 106.218 103.486 106.167 105.051 106.307C112.995 107.016 121.705 113.143 125.747 116.538C125.802 116.596 125.89 116.604 125.949 116.609C126.186 116.63 126.414 116.411 126.285 116.187C124.128 112.348 121.601 104.99 128.787 100.203C131.825 98.1856 135.324 97.673 138.749 97.9789C142.057 98.2742 145.269 99.3062 147.906 100.446C147.933 100.475 147.992 100.481 148.021 100.483C148.317 100.51 148.527 100.156 148.248 99.9448C130.364 82.5666 166.955 77.1846 166.955 77.1846C167.141 76.4295 166.07 76.0943 164.239 75.9309C161.315 75.6698 156.447 75.8472 151.722 75.4253C146.524 74.9612 141.509 73.7948 139.388 70.545C135.239 60.3545 148.719 53.0952 155.437 50.2088C155.746 50.0768 155.634 49.6676 155.309 49.6386C155.28 49.6359 155.221 49.6307 155.189 49.6544C146.575 51.4401 140.31 51.9187 135.851 51.5205C119.933 50.0992 126.819 37.3544 130.685 31.7384C130.822 31.5377 130.634 31.3081 130.428 31.2896C130.339 31.2817 130.248 31.3002 130.182 31.3741C126.253 34.6959 118.259 40.5288 110.568 40.3211C110.538 40.3184 110.538 40.3184 110.509 40.3158C109.54 40.4954 108.674 40.5246 107.847 40.4507C100.937 39.8337 99.322 30.9339 98.938 24.2465C98.9226 24.0854 98.7844 23.9666 98.6368 23.9535C98.4891 23.9403 98.3343 24.0063 98.2906 24.1621C96.6121 29.2815 90.8807 42.768 76.2658 44.417C74.2518 44.6364 72.3747 44.6551 70.6914 44.5048C60.1484 43.5634 55.7563 36.0923 53.2932 32.0135C53.2436 31.9026 53.1279 31.8657 53.0393 31.8577C52.8621 31.8419 52.705 31.9343 52.6884 32.1192C51.4565 46.2203 38.8097 48.4975 26.9083 47.4348C18.8755 46.7176 11.1865 44.4875 7.54103 43.3104C7.51149 43.3077 7.48197 43.3051 7.45243 43.3025C7.12758 43.2735 6.94449 43.6563 7.25517 43.8437C16.1444 49.2947 34.4214 57.2871 33.3867 68.851C31.8193 79.3827 14.9152 88.6515 7.23101 92.3565C6.91916 92.5149 7.06327 92.9004 7.35859 92.9267C7.38813 92.9294 7.44719 92.9346 7.47909 92.9109C12.783 91.5216 22.5499 89.4929 31.7935 90.3182C34.3332 90.545 36.795 90.9777 39.1718 91.6956C51.3391 95.4433 36.8544 113.604 30.8571 120.413C30.6516 120.714 30.837 120.97 31.0733 120.992Z" fill="#F7BC19"/>
<g clip-path="url(#clip0)">
<path d="M82.4974 45.3C81.096 44.9 79.7946 44.6 78.3932 44.3L80.5955 44C80.5955 44 82.7977 23.2 76.9918 13.5C71.1859 3.79998 69.4842 -2.00002 62.5772 9.09998C55.6702 20.2 45.3597 37.4 49.1636 44C52.9674 50.6 62.1768 46.3 62.1768 46.3C64.0787 47.7 65.0797 48.7 63.6783 48.8C60.0746 49.1 50.7652 55.9 50.3648 55.8C49.9644 55.7 68.3831 55.8 68.3831 55.8C68.3831 55.8 64.9796 68.1 63.4781 67.6C62.6773 67.3 55.8704 66.9 49.6641 67C46.4608 64.1 38.8531 58.1 34.849 62.8C30.3445 69.6 36.751 75.8 35.85 75.9C35.7499 75.9 35.85 75.9 36.0502 75.9C35.0492 79.2 35.2494 82.7 39.754 84.9C48.5629 89.2 72.7875 98.7 75.5904 103.2C76.0909 104 76.3912 104.7 76.6915 105.4C74.4893 106.5 70.285 108.6 70.285 110.7C70.285 113.3 71.0858 126.8 71.0858 126.8L74.4893 115.6C74.9898 119.1 76.4913 125.7 80.7957 126.6C85.8007 127.6 100.015 124.6 107.022 115.3C107.022 115.3 107.923 108.2 106.522 106.6C112.328 106.6 119.835 109.5 119.835 109.5L103.319 95.6C97.3124 96 99.0142 105.5 105.421 106.6C94.8099 68.4 72.3871 76.5 75.0899 99C75.3902 101.7 77.9928 114.4 80.5955 111.5C79.9949 111.4 77.2921 111.5 75.6905 112.3L77.2921 106.9C77.8927 109.3 77.3922 110.7 77.3922 110.7L101.917 95.4C110.426 92.4 119.235 92.1 119.235 92.1L116.532 88.1L123.539 90.4C123.539 90.4 124.04 67.9 113.529 57.9C108.724 53.3 95.4105 48.8 82.4974 45.3Z" fill="white"/>
<path d="M100.516 43.3C107.523 45.2 119.835 31.5 119.935 33.8C120.035 36.1 112.027 55.6 112.027 55.6L116.432 58.1C116.432 58.1 133.549 24.3 128.344 12.8C123.138 1.29997 113.629 13 107.523 18.6C101.416 24.2 93.5084 41.4 100.516 43.3Z" fill="white"/>
<path d="M86.7013 69.2C86.7013 69.2 84.8995 77.2 79.2938 76.6C73.6881 76 74.9894 65.5 74.7892 65.8C74.589 66.1 73.1876 73.9 68.3827 72.8C63.5779 71.7 64.9793 62.5 64.9793 62.5" stroke="black" stroke-miterlimit="10"/>
<path d="M73.4884 108.8C73.4884 108.8 74.4894 105.8 71.6866 101.3C68.8838 96.8 44.6592 87.3 35.8502 83C27.0413 78.7 34.4488 69.5 35.9503 66.8C37.4518 64.1 58.0728 65.1 59.5743 65.6C61.0758 66.1 64.4793 53.8 64.4793 53.8C64.4793 53.8 46.0606 53.7 46.461 53.8C46.8614 53.9 56.0707 47.1 59.7745 46.8C63.6785 46.5 49.2638 39 48.463 37.5C48.0626 36.7 63.0779 39.2 78.4935 43.3C91.4066 46.7 104.72 51.2 109.525 55.8C120.036 65.8 119.535 88.3 119.535 88.3L112.528 86L115.331 90.3C115.331 90.3 106.522 90.5999 98.0133 93.5999" stroke="black" stroke-width="2" stroke-miterlimit="10"/>
<path d="M71.4863 94.8C72.7876 94.5 90.8059 90 92.0072 79.8" stroke="black" stroke-miterlimit="10"/>
<path d="M90.3047 79C90.3047 79 92.9073 79.8 93.3077 82.1" stroke="black" stroke-miterlimit="10"/>
<path d="M47.3619 66.3C47.3619 66.3 43.8583 74.1 43.4579 74.3C43.0575 74.5 31.1454 74.1 32.0463 74C32.9472 73.9 26.5407 67.6 31.0453 60.9C36.0504 55 46.461 65.4 47.3619 66.3Z" fill="black"/>
<path d="M69.4844 56.1C69.4844 56.1 76.992 52.7 78.4935 53.8" stroke="black" stroke-width="2" stroke-miterlimit="10"/>
<path d="M88.2031 57C88.8037 57.8 95.4104 60.6 96.6117 63" stroke="black" stroke-width="2" stroke-miterlimit="10"/>
<path d="M76.5908 42C76.5908 42 78.7931 21.3 72.9872 11.5C67.1813 1.69999 65.4796 -4.00001 58.6726 7.09999C51.8657 18.2 41.3551 35.3 45.259 42C49.163 48.7 58.2722 44.3 58.2722 44.3" stroke="black" stroke-width="2" stroke-miterlimit="10"/>
<path d="M61.376 37.4C61.376 37.4 67.6824 25.9 70.1849 27.4C72.6875 28.9 73.2881 42 73.2881 42" stroke="black" stroke-width="2" stroke-miterlimit="10"/>
<path d="M108.023 53.5C108.023 53.5 116.031 33.9 115.931 31.7C115.831 29.5 103.519 43.1 96.5116 41.2C89.5045 39.3 97.4125 22.2 103.519 16.6C109.625 11 119.034 -0.700027 124.34 10.8C129.645 22.3 112.428 56.1 112.428 56.1" stroke="black" stroke-width="2" stroke-miterlimit="10"/>
<path d="M99.4144 93.5C93.0079 93.9 95.3102 104.6 102.818 104.7C108.624 104.7 116.131 107.6 116.131 107.6" stroke="black" stroke-width="2" stroke-miterlimit="10"/>
<path d="M101.517 104.5C100.816 104.9 79.5947 115 76.9921 114.5C74.2893 114 73.989 112.3 76.5917 109.5C75.6908 109.3 70.1852 109.7 70.4855 112.2C70.7858 114.7 71.987 123.7 76.9921 124.7C81.9972 125.7 96.2116 122.7 103.219 113.4C103.219 113.3 104.52 103 101.517 104.5Z" stroke="black" stroke-width="2" stroke-miterlimit="10" stroke-linecap="round" stroke-linejoin="round"/>
<path d="M73.9891 102.8C72.8879 103.5 66.4814 106.2 66.4814 108.7C66.4814 111.3 67.2823 124.8 67.2823 124.8" stroke="black" stroke-width="2" stroke-miterlimit="10"/>
</g>
<defs>
<clipPath id="clip0">
<rect width="99.8013" height="129.8" fill="white" transform="translate(29.4434)"/>
</clipPath>
</defs>
</svg>
