<svg width="140" height="50" viewBox="0 0 140 50" fill="none" xmlns="http://www.w3.org/2000/svg">
<path d="M135.625 50H4.375C1.96875 50 0 47.75 0 45V5C0 2.25 1.96875 0 4.375 0H135.625C138.031 0 140 2.25 140 5V45C140 47.75 138.031 50 135.625 50Z" fill="black"/>
<path d="M28.7559 22.8C28.7559 19.7 31.3559 18.2 31.4559 18.1C29.9559 16 27.7559 15.7 26.9559 15.6C25.0559 15.4 23.1559 16.7 22.2559 16.7C21.2559 16.7 19.7559 15.6 18.1559 15.6C16.0559 15.6 14.1559 16.8 13.0559 18.7C10.8559 22.5 12.4559 28.1 14.5559 31.2C15.6559 32.7 16.8559 34.4 18.4559 34.3C20.0559 34.2 20.6559 33.3 22.5559 33.3C24.4559 33.3 24.9559 34.3 26.6559 34.3C28.3559 34.3 29.4559 32.8 30.4559 31.3C31.6559 29.6 32.1559 27.9 32.1559 27.8C32.0559 27.7 28.7559 26.5 28.7559 22.8Z" fill="white"/>
<path d="M26.656 13.6001C27.456 12.5001 28.056 11.1001 27.956 9.6001C26.756 9.7001 25.156 10.4001 24.356 11.5001C23.556 12.4001 22.856 13.9001 23.056 15.3001C24.356 15.4001 25.756 14.6001 26.656 13.6001Z" fill="white"/>
<path d="M55.1309 36L53.9189 32.6299H49.2788L48.0918 36H46L50.5405 23.8145H52.6987L57.2393 36H55.1309ZM53.396 30.9199L52.2588 27.6162C52.1758 27.3949 52.0596 27.0462 51.9102 26.5703C51.7663 26.0944 51.6667 25.7458 51.6113 25.5244C51.4619 26.2051 51.2433 26.9494 50.9556 27.7573L49.8599 30.9199H53.396ZM63.1205 36.166C61.9584 36.166 61.0564 35.7482 60.4145 34.9126H60.2983C60.3757 35.6873 60.4145 36.1577 60.4145 36.3237V40.084H58.4638V26.8193H60.0409C60.0852 26.9909 60.1765 27.4004 60.3149 28.0479H60.4145C61.0232 27.1182 61.9363 26.6533 63.1537 26.6533C64.2992 26.6533 65.1902 27.0684 65.8266 27.8984C66.4685 28.7285 66.7895 29.8934 66.7895 31.3931C66.7895 32.8927 66.463 34.0632 65.81 34.9043C65.1625 35.7454 64.266 36.166 63.1205 36.166ZM62.6474 28.2471C61.8726 28.2471 61.3054 28.474 60.9457 28.9277C60.5916 29.3815 60.4145 30.1064 60.4145 31.1025V31.3931C60.4145 32.5109 60.5916 33.3216 60.9457 33.8252C61.2999 34.3232 61.8782 34.5723 62.6806 34.5723C63.3557 34.5723 63.8759 34.2956 64.2411 33.7422C64.6064 33.1888 64.789 32.4002 64.789 31.3765C64.789 30.3472 64.6064 29.5697 64.2411 29.0439C63.8814 28.5127 63.3502 28.2471 62.6474 28.2471ZM73.5423 36.166C72.3802 36.166 71.4782 35.7482 70.8363 34.9126H70.7201C70.7975 35.6873 70.8363 36.1577 70.8363 36.3237V40.084H68.8856V26.8193H70.4627C70.507 26.9909 70.5983 27.4004 70.7367 28.0479H70.8363C71.445 27.1182 72.3581 26.6533 73.5755 26.6533C74.721 26.6533 75.612 27.0684 76.2484 27.8984C76.8903 28.7285 77.2113 29.8934 77.2113 31.3931C77.2113 32.8927 76.8848 34.0632 76.2318 34.9043C75.5843 35.7454 74.6878 36.166 73.5423 36.166ZM73.0692 28.2471C72.2944 28.2471 71.7272 28.474 71.3675 28.9277C71.0134 29.3815 70.8363 30.1064 70.8363 31.1025V31.3931C70.8363 32.5109 71.0134 33.3216 71.3675 33.8252C71.7217 34.3232 72.3 34.5723 73.1024 34.5723C73.7775 34.5723 74.2977 34.2956 74.6629 33.7422C75.0282 33.1888 75.2108 32.4002 75.2108 31.3765C75.2108 30.3472 75.0282 29.5697 74.6629 29.0439C74.3032 28.5127 73.772 28.2471 73.0692 28.2471ZM90.7585 32.7046C90.7585 33.7837 90.3683 34.6304 89.5881 35.2446C88.8078 35.8589 87.7315 36.166 86.3591 36.166C84.9867 36.166 83.8633 35.953 82.9889 35.5269V33.6509C83.5423 33.911 84.1289 34.1157 84.7487 34.2651C85.374 34.4146 85.9551 34.4893 86.4919 34.4893C87.2777 34.4893 87.856 34.3398 88.2267 34.041C88.603 33.7422 88.7912 33.341 88.7912 32.8374C88.7912 32.3836 88.6196 31.999 88.2765 31.6836C87.9334 31.3682 87.2251 30.9946 86.1515 30.563C85.0448 30.1147 84.2645 29.6029 83.8107 29.0273C83.3569 28.4518 83.1301 27.7601 83.1301 26.9521C83.1301 25.9395 83.4898 25.1426 84.2092 24.5615C84.9286 23.9805 85.8942 23.6899 87.1061 23.6899C88.2682 23.6899 89.4248 23.9445 90.5759 24.4536L89.945 26.0723C88.8659 25.6185 87.903 25.3916 87.0563 25.3916C86.4144 25.3916 85.9274 25.5327 85.5954 25.8149C85.2634 26.0916 85.0973 26.4596 85.0973 26.9189C85.0973 27.2344 85.1637 27.5055 85.2966 27.7324C85.4294 27.9538 85.648 28.1641 85.9523 28.3633C86.2567 28.5625 86.8045 28.8254 87.5959 29.1519C88.4868 29.5226 89.1398 29.8685 89.5549 30.1895C89.9699 30.5104 90.2743 30.8729 90.4679 31.2769C90.6616 31.6808 90.7585 32.1567 90.7585 32.7046ZM96.15 34.5889C96.6259 34.5889 97.1018 34.5142 97.5777 34.3647V35.834C97.3619 35.9281 97.0825 36.0055 96.7394 36.0664C96.4018 36.1328 96.0504 36.166 95.6852 36.166C93.8369 36.166 92.9127 35.1921 92.9127 33.2441V28.2969H91.6593V27.4336L93.004 26.7197L93.6681 24.7773H94.8717V26.8193H97.4864V28.2969H94.8717V33.2109C94.8717 33.6813 94.9879 34.0299 95.2203 34.2568C95.4583 34.4782 95.7682 34.5889 96.15 34.5889ZM107.394 31.3931C107.394 32.8927 107.009 34.0632 106.24 34.9043C105.471 35.7454 104.4 36.166 103.027 36.166C102.17 36.166 101.411 35.9723 100.753 35.585C100.094 35.1976 99.5881 34.6414 99.2339 33.9165C98.8797 33.1916 98.7027 32.3504 98.7027 31.3931C98.7027 29.9045 99.0845 28.7424 99.8482 27.9067C100.612 27.0711 101.688 26.6533 103.077 26.6533C104.405 26.6533 105.457 27.0822 106.231 27.9399C107.006 28.7922 107.394 29.9432 107.394 31.3931ZM100.711 31.3931C100.711 33.5125 101.494 34.5723 103.061 34.5723C104.61 34.5723 105.385 33.5125 105.385 31.3931C105.385 29.2957 104.605 28.2471 103.044 28.2471C102.225 28.2471 101.63 28.5182 101.259 29.0605C100.894 29.6029 100.711 30.3804 100.711 31.3931ZM114.13 26.6533C114.523 26.6533 114.846 26.681 115.101 26.7363L114.91 28.5542C114.633 28.4878 114.346 28.4546 114.047 28.4546C113.267 28.4546 112.633 28.7091 112.146 29.2183C111.664 29.7274 111.424 30.3887 111.424 31.2021V36H109.473V26.8193H111L111.258 28.438H111.357C111.662 27.8901 112.057 27.4557 112.544 27.1348C113.037 26.8138 113.565 26.6533 114.13 26.6533ZM120.65 36.166C119.223 36.166 118.105 35.751 117.297 34.9209C116.494 34.0853 116.093 32.937 116.093 31.4761C116.093 29.9764 116.467 28.7977 117.214 27.9399C117.961 27.0822 118.987 26.6533 120.293 26.6533C121.505 26.6533 122.463 27.0213 123.165 27.7573C123.868 28.4933 124.22 29.506 124.22 30.7954V31.8496H118.102C118.13 32.7406 118.37 33.4268 118.824 33.9082C119.278 34.3841 119.917 34.6221 120.742 34.6221C121.284 34.6221 121.787 34.5723 122.252 34.4727C122.723 34.3675 123.226 34.196 123.763 33.958V35.5435C123.287 35.7703 122.806 35.9308 122.319 36.0249C121.832 36.119 121.276 36.166 120.65 36.166ZM120.293 28.1309C119.674 28.1309 119.175 28.3273 118.799 28.7202C118.428 29.1131 118.207 29.6859 118.135 30.4385H122.302C122.291 29.6803 122.108 29.1076 121.754 28.7202C121.4 28.3273 120.913 28.1309 120.293 28.1309Z" fill="white"/>
<path d="M50.0586 15.999H50.6104C51.0824 15.1364 51.4779 14.168 51.7969 13.0938C52.1159 12.0195 52.321 10.9421 52.4121 9.86133H56.0986V15.999H57.0215V18.9678H55.8984V17H51.1816V18.9678H50.0586V15.999ZM53.3887 10.8721C53.3171 11.611 53.1348 12.4688 52.8418 13.4453C52.5488 14.4186 52.2152 15.2699 51.8408 15.999H54.9316V10.8721H53.3887ZM62.7467 14.29C62.7467 15.1722 62.5204 15.8607 62.068 16.3555C61.6155 16.8503 60.9856 17.0977 60.1783 17.0977C59.6738 17.0977 59.2278 16.9837 58.8404 16.7559C58.4531 16.528 58.1552 16.2008 57.9469 15.7744C57.7385 15.348 57.6344 14.8532 57.6344 14.29C57.6344 13.4144 57.859 12.7308 58.3082 12.2393C58.7574 11.7477 59.3906 11.502 60.2076 11.502C60.9889 11.502 61.6074 11.7542 62.0631 12.2588C62.5188 12.7601 62.7467 13.4372 62.7467 14.29ZM58.816 14.29C58.816 15.5368 59.2766 16.1602 60.1979 16.1602C61.1093 16.1602 61.565 15.5368 61.565 14.29C61.565 13.0563 61.1061 12.4395 60.1881 12.4395C59.7063 12.4395 59.3564 12.599 59.1383 12.918C58.9234 13.237 58.816 13.6943 58.816 14.29ZM66.1477 17.0977C65.3306 17.0977 64.7089 16.86 64.2824 16.3848C63.8592 15.9062 63.6477 15.221 63.6477 14.3291C63.6477 13.4209 63.869 12.7227 64.3117 12.2344C64.7577 11.7461 65.4006 11.502 66.2404 11.502C66.8101 11.502 67.3228 11.6077 67.7785 11.8193L67.4318 12.7422C66.9468 12.5534 66.5464 12.459 66.2307 12.459C65.2964 12.459 64.8293 13.0791 64.8293 14.3193C64.8293 14.9248 64.9449 15.3805 65.176 15.6865C65.4104 15.9893 65.7521 16.1406 66.2014 16.1406C66.7124 16.1406 67.1958 16.0137 67.6516 15.7598V16.7607C67.4465 16.8812 67.2268 16.9674 66.9924 17.0195C66.7613 17.0716 66.4797 17.0977 66.1477 17.0977ZM72.8787 11.5996V12.498H71.1209V17H69.9686V12.498H68.2107V11.5996H72.8787ZM72.9984 11.5996H74.2484L75.3471 14.6611C75.5131 15.0973 75.6238 15.5075 75.6791 15.8916H75.7182C75.7475 15.7126 75.8012 15.4961 75.8793 15.2422C75.9574 14.985 76.3708 13.7708 77.1195 11.5996H78.3598L76.0502 17.7178C75.6303 18.8408 74.9304 19.4023 73.9506 19.4023C73.6967 19.4023 73.4493 19.3747 73.2084 19.3193V18.4111C73.3809 18.4502 73.5779 18.4697 73.7992 18.4697C74.3526 18.4697 74.7416 18.1491 74.9662 17.5078L75.1664 17L72.9984 11.5996ZM83.8018 11.5996V17H82.6494V12.5078H80.2275V17H79.0801V11.5996H83.8018ZM86.4947 11.5996V13.7676H89.0387V11.5996H90.1861V17H89.0387V14.6709H86.4947V17H85.3473V11.5996H86.4947ZM96.5217 14.29C96.5217 15.1722 96.2954 15.8607 95.843 16.3555C95.3905 16.8503 94.7606 17.0977 93.9533 17.0977C93.4488 17.0977 93.0028 16.9837 92.6154 16.7559C92.2281 16.528 91.9302 16.2008 91.7219 15.7744C91.5135 15.348 91.4094 14.8532 91.4094 14.29C91.4094 13.4144 91.634 12.7308 92.0832 12.2393C92.5324 11.7477 93.1656 11.502 93.9826 11.502C94.7639 11.502 95.3824 11.7542 95.8381 12.2588C96.2938 12.7601 96.5217 13.4372 96.5217 14.29ZM92.591 14.29C92.591 15.5368 93.0516 16.1602 93.9729 16.1602C94.8843 16.1602 95.34 15.5368 95.34 14.29C95.34 13.0563 94.8811 12.4395 93.9631 12.4395C93.4813 12.4395 93.1314 12.599 92.9133 12.918C92.6984 13.237 92.591 13.6943 92.591 14.29ZM104.93 12.9814C104.93 13.6195 104.557 14.0052 103.812 14.1387V14.1777C104.229 14.2266 104.548 14.3584 104.769 14.5732C104.99 14.7881 105.101 15.0664 105.101 15.4082C105.101 15.9193 104.906 16.3132 104.515 16.5898C104.128 16.8633 103.563 17 102.821 17H100.243V11.5996H102.811C104.224 11.5996 104.93 12.0602 104.93 12.9814ZM103.924 15.3398C103.924 15.0794 103.823 14.8955 103.621 14.7881C103.42 14.6774 103.117 14.6221 102.713 14.6221H101.39V16.1504H102.743C103.53 16.1504 103.924 15.8802 103.924 15.3398ZM103.783 13.0791C103.783 12.8643 103.698 12.7096 103.529 12.6152C103.363 12.5176 103.114 12.4688 102.782 12.4688H101.39V13.7676H102.611C102.995 13.7676 103.286 13.7188 103.485 13.6211C103.683 13.5202 103.783 13.3395 103.783 13.0791Z" fill="white"/>
</svg>
