<svg width="85" height="127" viewBox="0 0 85 127" fill="none" xmlns="http://www.w3.org/2000/svg">
<path d="M1 99.5813V9.78099C1 4.98072 4.98072 1 9.78099 1H50.759C55.5592 1 59.5399 4.98072 59.5399 9.78099V99.5813C59.5399 104.382 55.5592 108.362 50.759 108.362H9.78099C4.98072 108.362 1 104.382 1 99.5813Z" fill="white" stroke="black" stroke-width="2" stroke-miterlimit="10" stroke-linecap="round" stroke-linejoin="round"/>
<path d="M16.8057 2.40476L19.1473 6.73672C19.9668 8.37584 21.6059 9.31248 23.4792 9.31248H38.2313C40.1046 9.31248 41.7437 8.25876 42.5632 6.73672L45.2561 1.58521" stroke="black" stroke-width="2" stroke-miterlimit="10" stroke-linecap="round" stroke-linejoin="round"/>
<path d="M44.2025 78.1555L40.3389 81.4338" stroke="black" stroke-width="2" stroke-miterlimit="10" stroke-linecap="round" stroke-linejoin="round"/>
<path d="M68.438 111.523C68.438 116.441 64.4573 120.421 59.54 120.421C58.3692 120.421 57.3154 120.187 56.2617 119.836" fill="white"/>
<path d="M68.438 111.523C68.438 116.441 64.4573 120.421 59.54 120.421C58.3692 120.421 57.3154 120.187 56.2617 119.836" stroke="black" stroke-width="2" stroke-miterlimit="10" stroke-linecap="round" stroke-linejoin="round"/>
<path d="M18.6787 51.9297L27.6939 60.4766L42.7972 41.6267" fill="white"/>
<path d="M18.6787 51.9297L27.6939 60.4766L42.7972 41.6267" stroke="black" stroke-width="2" stroke-miterlimit="10" stroke-linecap="round" stroke-linejoin="round"/>
<path d="M83.6587 98.2933L46.3102 125.339C46.3102 125.339 43.9686 120.89 45.1394 118.08L46.3102 115.27L37.8804 99.23C34.9534 93.2589 36.4755 85.0633 41.0416 80.4972L39.0512 77.5702C38.4658 76.6336 38.5829 75.4627 39.5196 74.8773C40.4562 74.2919 41.627 74.409 42.2124 75.3457L44.2028 78.1556C50.2909 74.6432 58.1353 75.6969 62.9355 80.9655L75.1118 94.4297L77.2193 94.6639C79.5609 94.898 81.7854 96.0688 83.1904 97.825L83.6587 98.2933Z" fill="white" stroke="black" stroke-width="2" stroke-miterlimit="10" stroke-linecap="round" stroke-linejoin="round"/>
</svg>
