<svg width="87" height="132" viewBox="0 0 87 132" fill="none" xmlns="http://www.w3.org/2000/svg">
<path d="M1 99.2827V9.75418C1 4.96843 4.99478 0.999756 9.81201 0.999756H50.9347C55.752 0.999756 59.7468 4.96843 59.7468 9.75418V99.2827C59.7468 104.068 55.752 108.037 50.9347 108.037H9.81201C4.99478 108.037 1 104.068 1 99.2827Z" fill="white" stroke="black" stroke-width="2" stroke-miterlimit="10" stroke-linecap="round" stroke-linejoin="round"/>
<path d="M56.0209 101.384V72.5527C40.0418 72.6695 27 85.626 27 101.501C27 117.492 40.0418 130.449 56.1384 130.449C72.235 130.449 85.2768 117.492 85.2768 101.501C85.2768 96.4815 83.9843 91.8125 81.752 87.7271L56.0209 101.384Z" fill="white" stroke="black" stroke-width="2" stroke-miterlimit="10" stroke-linecap="round" stroke-linejoin="round"/>
<path d="M81.7516 87.8438C76.8169 78.8559 67.1824 72.6694 56.138 72.6694C56.138 72.6694 56.138 72.6694 56.0205 72.6694V101.384L81.7516 87.8438Z" fill="white" stroke="black" stroke-width="2" stroke-miterlimit="10" stroke-linecap="round" stroke-linejoin="round"/>
<path d="M16.8613 2.40033L19.2112 6.71918C20.0337 8.35334 21.6786 9.28714 23.5585 9.28714H38.3626C40.2425 9.28714 41.8874 8.23661 42.7099 6.71918L45.4123 1.58325" stroke="black" stroke-width="2" stroke-miterlimit="10" stroke-linecap="round" stroke-linejoin="round"/>
<path d="M37.4225 26.7493H11.6914V35.0368H37.4225V26.7493Z" fill="white" stroke="black" stroke-width="2" stroke-miterlimit="10" stroke-linecap="round" stroke-linejoin="round"/>
<path d="M46.352 41.9998H11.6914V50.2873H46.352V41.9998Z" fill="white" stroke="black" stroke-width="2" stroke-miterlimit="10" stroke-linecap="round" stroke-linejoin="round"/>
<path d="M32.6052 57.9998H11.6914V66.2873H32.6052V57.9998Z" fill="white" stroke="black" stroke-width="2" stroke-miterlimit="10" stroke-linecap="round" stroke-linejoin="round"/>
<path d="M21.0909 72.9998H11.6914V81.2873H21.0909V72.9998Z" fill="white" stroke="black" stroke-width="2" stroke-miterlimit="10" stroke-linecap="round" stroke-linejoin="round"/>
<path d="M11.5742 20.5625V86.9794" stroke="black" stroke-width="2" stroke-miterlimit="10" stroke-linecap="round" stroke-linejoin="round"/>
</svg>
