<svg width="77" height="115" viewBox="0 0 77 115" fill="none" xmlns="http://www.w3.org/2000/svg">
<path d="M1.11914 95.6836V9.5459C1.11914 4.94141 4.92437 1.12305 9.51303 1.12305H48.6845C53.2732 1.12305 57.0784 4.94141 57.0784 9.5459V95.6836C57.0784 100.288 53.2732 104.106 48.6845 104.106H9.51303C4.92437 104.106 1.11914 100.288 1.11914 95.6836Z" fill="white" stroke="black" stroke-width="2" stroke-miterlimit="10" stroke-linecap="round" stroke-linejoin="round"/>
<path d="M16.2285 2.4707L18.4669 6.62598C19.2503 8.19824 20.8172 9.09668 22.6079 9.09668H36.7096C38.5003 9.09668 40.0672 8.08594 40.8506 6.62598L43.4247 1.68457" stroke="black" stroke-width="2" stroke-miterlimit="10" stroke-linecap="round" stroke-linejoin="round"/>
<path d="M75.8807 113.877H41.8574V67.9443H67.7106L75.8807 77.041V113.877Z" fill="white" stroke="black" stroke-width="2" stroke-miterlimit="10"/>
<path d="M67.0391 67.4951V77.041H75.6568" stroke="black" stroke-width="2" stroke-miterlimit="10"/>
<path d="M10.2969 35.2637H45.2155" stroke="black" stroke-width="2" stroke-miterlimit="10" stroke-linecap="round" stroke-linejoin="round"/>
<path d="M10.2969 23.6963H45.2155" stroke="black" stroke-width="2" stroke-miterlimit="10" stroke-linecap="round" stroke-linejoin="round"/>
<path d="M10.2969 69.7412H32.121" stroke="black" stroke-width="2" stroke-miterlimit="10" stroke-linecap="round" stroke-linejoin="round"/>
<path d="M10.2969 46.7188H45.2155" stroke="black" stroke-width="2" stroke-miterlimit="10" stroke-linecap="round" stroke-linejoin="round"/>
<path d="M10.2969 58.2861H45.2155" stroke="black" stroke-width="2" stroke-miterlimit="10" stroke-linecap="round" stroke-linejoin="round"/>
</svg>
