<svg width="91" height="129" viewBox="0 0 91 129" fill="none" xmlns="http://www.w3.org/2000/svg">
<path d="M1.16797 100.007V9.97704C1.16797 5.16448 5.13973 1.17358 9.9292 1.17358H50.8149C55.6044 1.17358 59.5762 5.16448 59.5762 9.97704V100.007C59.5762 104.82 55.6044 108.811 50.8149 108.811H9.9292C5.13973 108.811 1.16797 104.82 1.16797 100.007Z" fill="white" stroke="black" stroke-width="2" stroke-miterlimit="10" stroke-linecap="round" stroke-linejoin="round"/>
<path d="M16.9385 2.58215L19.2748 6.92519C20.0925 8.56851 21.728 9.50754 23.597 9.50754H38.3159C40.1849 9.50754 41.8204 8.45113 42.6381 6.92519L45.3249 1.7605" stroke="black" stroke-width="2" stroke-miterlimit="10" stroke-linecap="round" stroke-linejoin="round"/>
<path d="M16.0038 59.0415H13.2002V44.8386H16.0038V59.0415Z" fill="black"/>
<path d="M28.0362 53.8768C28.0362 55.5201 27.5689 56.8113 26.7512 57.7503C25.9335 58.6894 24.6485 59.1589 23.1299 59.1589C22.1954 59.1589 21.2609 58.9241 20.56 58.572C19.8591 58.1025 19.275 57.5156 18.8077 56.6939C18.4573 55.8723 18.2236 54.9332 18.2236 53.8768C18.2236 52.2335 18.6909 50.9423 19.5086 50.0033C20.3263 49.0642 21.6113 48.5947 23.1299 48.5947C24.0645 48.5947 24.999 48.8295 25.6999 49.1816C26.4008 49.5338 26.9849 50.238 27.4521 51.0597C27.9194 51.8813 28.0362 52.8204 28.0362 53.8768ZM21.0272 53.8768C21.0272 54.9332 21.144 55.6375 21.4945 56.107C21.8449 56.5765 22.3122 56.9287 23.1299 56.9287C23.8308 56.9287 24.4149 56.6939 24.7654 56.107C25.1158 55.5201 25.2326 54.8158 25.2326 53.7594C25.2326 52.703 25.1158 51.9987 24.7654 51.5292C24.4149 51.0597 23.9476 50.8249 23.1299 50.8249C22.429 50.8249 21.8449 51.0597 21.4945 51.5292C21.2609 52.1161 21.0272 52.9378 21.0272 53.8768Z" fill="black"/>
<path d="M39.2499 48.8296V50.2381L37.6145 50.5903C37.8482 51.0598 38.0818 51.5293 38.0818 52.1162C38.0818 53.1726 37.7313 54.1117 36.9136 54.6986C36.0959 55.2855 35.0446 55.6376 33.7596 55.6376H33.2923H32.9419C32.7082 55.8724 32.4746 56.1071 32.4746 56.3419C32.4746 56.694 32.9419 56.9288 33.9932 56.9288H35.7455C36.9136 56.9288 37.7313 57.1635 38.3154 57.633C38.8995 58.1026 39.2499 58.8068 39.2499 59.7459C39.2499 60.9197 38.7827 61.8587 37.7313 62.563C36.68 63.2673 35.2782 63.502 33.5259 63.502C32.1241 63.502 31.0728 63.2673 30.2551 62.7977C29.5542 62.3282 29.0869 61.624 29.0869 60.6849C29.0869 60.098 29.3205 59.5111 29.671 59.159C30.0214 58.8068 30.6055 58.4547 31.3064 58.2199C31.0728 58.1026 30.7223 57.8678 30.6055 57.633C30.3719 57.3983 30.2551 57.0462 30.2551 56.8114C30.2551 56.4593 30.3719 56.1071 30.6055 55.8724C30.8392 55.6376 31.1896 55.4028 31.5401 55.1681C30.956 54.9333 30.6055 54.5812 30.2551 54.1117C29.9046 53.6421 29.7878 53.0553 29.7878 52.351C29.7878 51.2946 30.1383 50.3555 30.8392 49.7686C31.5401 49.1817 32.5914 48.8296 33.8764 48.8296C34.11 48.8296 34.4605 48.8296 34.9277 48.947C35.395 49.0644 35.5118 49.0643 35.6286 49.0643H39.2499V48.8296ZM31.4232 60.4502C31.4232 60.8023 31.6569 61.1544 32.0073 61.3892C32.3578 61.624 32.9419 61.7413 33.5259 61.7413C34.4605 61.7413 35.2782 61.624 35.8623 61.3892C36.4464 61.1544 36.68 60.6849 36.68 60.2154C36.68 59.8633 36.5632 59.5111 36.2127 59.3937C35.8623 59.2764 35.395 59.159 34.6941 59.159H33.2923C32.825 59.159 32.3578 59.2764 32.0073 59.5111C31.5401 59.7459 31.4232 60.098 31.4232 60.4502ZM32.3578 52.1162C32.3578 52.7031 32.4746 53.0553 32.7082 53.4074C32.9419 53.7595 33.2923 53.8769 33.8764 53.8769C34.3437 53.8769 34.8109 53.7595 35.0446 53.4074C35.2782 53.0553 35.395 52.7031 35.395 52.1162C35.395 50.9424 34.9277 50.2381 33.8764 50.2381C32.9419 50.3555 32.3578 50.9424 32.3578 52.1162Z" fill="black"/>
<path d="M50.114 53.8768C50.114 55.5201 49.6467 56.8113 48.829 57.7503C47.8945 58.6894 46.7263 59.1589 45.0909 59.1589C44.1563 59.1589 43.2218 58.9241 42.5209 58.572C41.82 58.1025 41.2359 57.5156 40.7687 56.6939C40.4182 55.8723 40.1846 54.9332 40.1846 53.8768C40.1846 52.2335 40.6518 50.9423 41.4695 50.0033C42.2873 49.0642 43.5722 48.5947 45.0909 48.5947C46.0254 48.5947 46.9599 48.8295 47.6608 49.1816C48.3617 49.5338 48.9458 50.238 49.4131 51.0597C49.8803 51.8813 50.114 52.8204 50.114 53.8768ZM43.105 53.8768C43.105 54.9332 43.2218 55.6375 43.5722 56.107C43.9227 56.5765 44.39 56.9287 45.2077 56.9287C45.9086 56.9287 46.4927 56.6939 46.8431 56.107C47.1936 55.5201 47.3104 54.8158 47.3104 53.7594C47.3104 52.703 47.1936 51.9987 46.8431 51.5292C46.4927 51.0597 46.0254 50.8249 45.2077 50.8249C44.5068 50.8249 43.9227 51.0597 43.5722 51.5292C43.2218 52.1161 43.105 52.9378 43.105 53.8768Z" fill="black"/>
<path d="M42.5205 110.923L43.8055 113.975C44.2728 115.266 45.7914 115.853 47.0763 115.384L49.2959 114.562L53.9685 124.422C55.0199 126.535 57.1226 127.826 59.3421 127.826C60.3934 127.826 61.4448 127.591 62.3793 127.004L64.8324 125.596C66.2342 124.774 66.8183 123.131 66.2342 121.605L66.0006 120.783C65.4165 119.14 63.6643 118.201 62.0288 118.788L61.2111 119.023L55.4871 105.993" fill="white"/>
<path d="M42.5205 110.923L43.8055 113.975C44.2728 115.266 45.7914 115.853 47.0763 115.384L49.2959 114.562L53.9685 124.422C55.0199 126.535 57.1226 127.826 59.3421 127.826C60.3934 127.826 61.4448 127.591 62.3793 127.004L64.8324 125.596C66.2342 124.774 66.8183 123.131 66.2342 121.605L66.0006 120.783C65.4165 119.14 63.6643 118.201 62.0288 118.788L61.2111 119.023L55.4871 105.993" stroke="black" stroke-width="2" stroke-miterlimit="10"/>
<path d="M54.5527 88.1518L56.1882 87.4475C71.1407 82.635 75.1124 63.8542 75.1124 63.8542L89.8313 108.224C82.2382 103.294 69.5052 99.7724 60.8608 103.059" fill="white"/>
<path d="M54.5527 88.1518L56.1882 87.4475C71.1407 82.635 75.1124 63.8542 75.1124 63.8542L89.8313 108.224C82.2382 103.294 69.5052 99.7724 60.8608 103.059" stroke="black" stroke-width="2" stroke-miterlimit="10" stroke-linecap="round" stroke-linejoin="round"/>
<path d="M60.861 104.233C60.7442 104.35 39.0163 112.802 39.0163 112.802L35.2782 112.097C32.825 111.628 30.8392 109.984 30.0214 107.754L28.9701 105.055C28.2692 103.176 28.386 100.946 29.4374 99.1855L31.7737 94.9599L53.3847 86.5085L60.861 104.233Z" fill="white" stroke="black" stroke-width="2" stroke-miterlimit="10"/>
<path d="M31.8906 94.8423L39.0164 112.801" stroke="black" stroke-width="2" stroke-miterlimit="10"/>
</svg>
