<svg width="205" height="160" viewBox="0 0 205 160" fill="none" xmlns="http://www.w3.org/2000/svg">
<circle cx="95.501" cy="73.5" r="73.5" fill="#D771F1"/>
<path d="M146.246 24.6215C140.812 19.1599 131.907 23.4837 128.133 26.3283C127.756 31.638 127.001 42.8265 127.001 45.1021C127.001 47.9467 128.133 57.0493 132.095 70.7032C135.265 81.6264 150.02 77.9095 157.001 74.6856C152.473 72.9789 154.171 63.8763 153.605 46.2399C153.039 28.6036 153.039 31.4485 146.246 24.6215Z" fill="white"/>
<path d="M190.332 6.7214L190.879 17.1536L200.969 19.8574L191.216 23.6011L191.763 34.0333L185.189 25.9148L175.436 29.6585L181.126 20.8973L174.552 12.7788L184.642 15.4826L190.332 6.7214Z" fill="white"/>
<path d="M21.3318 127.721L21.8786 138.154L31.9691 140.857L22.2164 144.601L22.7632 155.033L16.189 146.915L6.43631 150.658L12.1259 141.897L5.55168 133.779L15.6422 136.483L21.3318 127.721Z" fill="#FCD421"/>
<path d="M120.628 98.19C127.905 96.85 128.567 89.4803 129.228 88.8103L117.32 88.14C117.1 82.3333 116.791 70.4519 117.32 69.3799C117.849 68.3079 102.545 69.8266 94.8268 70.7199V88.14L83.5801 88.81L90.8573 98.19C98.3551 98.6366 114.806 99.262 120.628 98.19Z" fill="white"/>
<path d="M147.714 98.0632C147.276 96.895 146.692 95.5807 146.108 94.1204C144.355 89.7396 140.121 86.8191 135.302 86.8191C130.192 86.8191 124.059 86.6731 120.847 86.6731C119.678 86.6731 118.656 85.6509 118.656 84.4827V73.9688" stroke="black" stroke-width="2" stroke-miterlimit="10" stroke-linecap="round" stroke-linejoin="round"/>
<path d="M97.1927 77.1816V84.483C97.1927 85.7972 96.1706 86.6734 95.0024 86.6734H75.144C70.4714 86.6734 66.3829 89.4479 64.4847 93.6827L62.4404 98.3555" stroke="black" stroke-width="2" stroke-miterlimit="10" stroke-linecap="round" stroke-linejoin="round"/>
<path d="M93.3952 98.6479C89.8908 96.0194 87.1164 92.2227 85.6562 87.2578" stroke="black" stroke-width="2" stroke-miterlimit="10" stroke-linecap="round" stroke-linejoin="round"/>
<path d="M172.454 103.405C173.584 101.146 49.8975 103.405 48.2031 103.405L61.193 149.152H157.77C159.464 149.152 171.325 105.664 172.454 103.405Z" fill="white"/>
<path d="M131.361 87.1118C130.193 91.2006 128.003 94.5592 125.229 97.1877" stroke="black" stroke-width="2" stroke-miterlimit="10" stroke-linecap="round" stroke-linejoin="round"/>
<path d="M29.1475 54.5476L67.1121 16.5806" stroke="black" stroke-width="2" stroke-miterlimit="10" stroke-linecap="round" stroke-linejoin="round"/>
<path d="M171.369 63.7475L187.139 47.8306" stroke="black" stroke-width="2" stroke-miterlimit="10" stroke-linecap="round" stroke-linejoin="round"/>
<path d="M29.001 84.9208L44.7709 69.0039" stroke="black" stroke-width="2" stroke-miterlimit="10" stroke-linecap="round" stroke-linejoin="round"/>
<path d="M123.328 98.6475H41.1201L57.9122 151.217H154.284L172.536 98.6475H123.328Z" stroke="black" stroke-width="2" stroke-miterlimit="10" stroke-linecap="round" stroke-linejoin="round"/>
<path d="M106.536 117.631C109.278 117.631 111.501 115.408 111.501 112.666C111.501 109.924 109.278 107.701 106.536 107.701C103.794 107.701 101.571 109.924 101.571 112.666C101.571 115.408 103.794 117.631 106.536 117.631Z" stroke="black" stroke-width="2" stroke-miterlimit="10" stroke-linecap="round" stroke-linejoin="round"/>
<path d="M135.01 23.8823C138.661 22.276 144.94 20.9617 149.904 26.8028C157.643 35.5644 145.962 66.8142 159.541 74.5536C159.541 74.5536 136.617 81.4168 132.528 71.0489C131.36 68.1284 130.776 63.1635 130.63 57.6145" stroke="black" stroke-width="2" stroke-miterlimit="10" stroke-linecap="round" stroke-linejoin="round"/>
<path d="M90.9135 64.6228C90.0374 63.0165 88.7233 60.388 87.2631 54.839C86.095 50.6042 85.0728 47.2456 85.3649 40.6744C85.2188 25.7797 92.9578 14.8276 107.706 14.8276H108.582C123.33 14.8276 131.069 25.7797 131.069 40.6744C131.215 47.3916 130.192 50.6042 129.17 54.839C122.599 79.2255 108.728 79.8096 108.728 79.8096H107.852C107.852 79.8096 102.595 80.2477 96.9003 74.2606" fill="white"/>
<path d="M90.9135 64.6228C90.0374 63.0165 88.7233 60.388 87.2631 54.839C86.095 50.6042 85.0728 47.2456 85.3649 40.6744C85.2188 25.7797 92.9578 14.8276 107.706 14.8276H108.582C123.33 14.8276 131.069 25.7797 131.069 40.6744C131.215 47.3916 130.192 50.6042 129.17 54.839C122.599 79.2255 108.728 79.8096 108.728 79.8096H107.852C107.852 79.8096 102.595 80.2477 96.9003 74.2606" stroke="black" stroke-width="2" stroke-miterlimit="10" stroke-linecap="round" stroke-linejoin="round"/>
<path d="M86.3857 44.034C86.3857 44.034 113.983 40.6754 118.948 24.1743L86.3857 44.034Z" fill="white"/>
<path d="M86.3857 44.034C86.3857 44.034 113.983 40.6754 118.948 24.1743" stroke="black" stroke-width="2" stroke-miterlimit="10" stroke-linecap="round" stroke-linejoin="round"/>
<path d="M113.838 32.4971C113.838 32.4971 117.634 41.8428 130.922 43.4491" stroke="black" stroke-width="2" stroke-miterlimit="10" stroke-linecap="round" stroke-linejoin="round"/>
<path d="M80.8379 37.0243C80.8379 35.71 80.8379 35.2719 80.8379 33.6656C80.8379 16.1424 89.891 3 107.413 3H108.435C125.957 3 135.011 15.9964 135.011 33.6656C135.011 34.9799 135.011 36.2941 135.011 37.6084" stroke="black" stroke-width="2" stroke-miterlimit="10" stroke-linecap="round" stroke-linejoin="round"/>
<path d="M86.3863 53.6713H80.1075C77.9173 53.6713 76.165 51.919 76.165 49.7286V41.5511C76.165 39.3607 77.9173 37.6084 80.1075 37.6084H85.0721" stroke="black" stroke-width="2" stroke-miterlimit="10" stroke-linecap="round" stroke-linejoin="round"/>
<path d="M131.36 37.6084H135.448C137.638 37.6084 139.39 39.3607 139.39 41.5511V49.7286C139.39 51.919 137.638 53.6713 135.448 53.6713H130.483" stroke="black" stroke-width="2" stroke-miterlimit="10" stroke-linecap="round" stroke-linejoin="round"/>
<path d="M80.9844 54.1099L84.3428 66.0841C84.9269 67.9824 86.6791 69.2966 88.5773 69.2966H99.6747" stroke="black" stroke-width="2" stroke-miterlimit="10" stroke-linecap="round" stroke-linejoin="round"/>
<path d="M106.975 71.7791H102.448C101.134 71.7791 99.9658 70.6108 99.9658 69.2966V68.4204C99.9658 67.1062 101.134 65.938 102.448 65.938H106.975C108.289 65.938 109.457 67.1062 109.457 68.4204V69.2966C109.457 70.7569 108.289 71.7791 106.975 71.7791Z" fill="white" stroke="black" stroke-width="2" stroke-miterlimit="10" stroke-linecap="round" stroke-linejoin="round"/>
<path d="M118.074 65.0615C118.074 65.0615 118.512 67.1059 115.737 68.4201" stroke="black" stroke-width="2" stroke-miterlimit="10" stroke-linecap="round" stroke-linejoin="round"/>
<path d="M111.647 59.8045C111.939 59.5124 112.816 50.6048 114.13 49.2906C115.298 48.1224 120.263 46.8081 123.329 48.2684" fill="white"/>
<path d="M111.647 59.8045C111.939 59.5124 112.816 50.6048 114.13 49.2906C115.298 48.1224 120.263 46.8081 123.329 48.2684" stroke="black" stroke-width="2" stroke-miterlimit="10" stroke-linecap="round" stroke-linejoin="round"/>
<path d="M104.347 49.8746C102.011 48.2683 98.9444 48.1223 95.002 49.5825L104.347 49.8746Z" fill="white"/>
<path d="M104.347 49.8746C102.011 48.2683 98.9444 48.1223 95.002 49.5825" stroke="black" stroke-width="2" stroke-miterlimit="10" stroke-linecap="round" stroke-linejoin="round"/>
<path d="M91.3516 32.3514C91.9356 31.3292 94.856 21.1073 108.144 21.5454" stroke="black" stroke-width="2" stroke-miterlimit="10" stroke-linecap="round" stroke-linejoin="round"/>
<path d="M68.1333 55.2773H65.2129C59.8102 55.2773 55.4297 59.6581 55.4297 65.0611V97.6251" stroke="black" stroke-width="2" stroke-miterlimit="10" stroke-linecap="round" stroke-linejoin="round"/>
<path d="M155.745 97.6257V75.7217" stroke="black" stroke-width="2" stroke-miterlimit="10" stroke-linecap="round" stroke-linejoin="round"/>
<path d="M188.419 122.972L193.537 124.684L196.747 120.345L196.701 125.742L201.819 127.454L196.672 129.078L196.625 134.474L193.491 130.081L188.343 131.704L191.553 127.365L188.419 122.972Z" fill="#3DDCDC"/>
</svg>
