<svg width="195" height="152" viewBox="0 0 195 152" fill="none" xmlns="http://www.w3.org/2000/svg">
<rect x="131.954" y="1.62207" width="106" height="106" transform="rotate(65.3347 131.954 1.62207)" fill="#3DDCDC"/>
<path d="M184.706 100.068L185.108 107.748L192.537 109.738L185.357 112.494L185.759 120.174L180.92 114.197L173.74 116.953L177.929 110.504L173.089 104.527L180.517 106.517L184.706 100.068Z" fill="white"/>
<path d="M163.877 4.11833L164.335 12.86L172.791 15.1256L164.618 18.2626L165.076 27.0042L159.568 20.2014L151.395 23.3384L156.163 15.997L150.654 9.19413L159.109 11.4597L163.877 4.11833Z" fill="#F7BC19"/>
<path d="M3.1404 105.633L11.8828 105.189L14.1623 96.7376L17.2858 104.915L26.0282 104.471L19.2163 109.969L22.3399 118.146L15.0063 113.367L8.19444 118.864L10.474 110.413L3.1404 105.633Z" fill="#D771F1"/>
<path d="M74.9393 116.082L75.2452 121.92L80.8914 123.433L75.4343 125.527L75.7402 131.365L72.0616 126.822L66.6045 128.917L69.7881 124.014L66.1095 119.472L71.7557 120.985L74.9393 116.082Z" fill="black"/>
<path d="M171.996 101.945C173.059 99.8188 56.5983 101.945 55.0029 101.945L67.234 145H158.169C159.765 145 170.932 104.071 171.996 101.945Z" fill="white"/>
<path d="M131.032 96.5427C136.93 95.5075 137.467 89.8138 138.003 89.2962L128.351 88.7783C128.172 84.2923 127.922 75.1131 128.351 74.2849C128.78 73.4567 116.375 74.6299 110.119 75.3201V88.7783L101.003 89.296L106.901 96.5427C112.979 96.8878 126.313 97.3709 131.032 96.5427Z" fill="white"/>
<path d="M167.439 33.3856L183.09 17.7056" stroke="black" stroke-width="2" stroke-miterlimit="10" stroke-linecap="round" stroke-linejoin="round"/>
<path d="M149.806 32.4402C144.71 27.3442 136.358 31.3785 132.819 34.0327C132.466 38.987 131.758 49.4266 131.758 51.5499C131.758 54.2041 132.819 62.6974 136.535 75.4374C139.508 85.6294 153.345 82.1613 159.892 79.1532C155.645 77.5607 157.238 69.0674 156.707 52.6116C156.176 36.1557 156.176 38.8102 149.806 32.4402Z" fill="white"/>
<path d="M98.2542 65.039C94.7437 56.8326 93.1348 47.0143 93.1348 40.713C93.1348 25.9121 100.741 14.7749 115.66 14.7749H116.538C131.311 14.7749 139.063 25.7656 139.063 40.713C139.21 47.4539 138.186 50.6779 137.162 54.9276C130.58 79.4002 116.538 80.1329 116.538 80.1329H115.66C107.469 80.1329 101.911 73.2454 98.2542 65.039Z" fill="white" stroke="black" stroke-width="2" stroke-miterlimit="10" stroke-linecap="round" stroke-linejoin="round"/>
<path d="M139.063 29.4296C142.72 27.8176 149.009 26.4987 153.982 32.3604C161.735 41.153 150.033 72.5131 163.636 80.2799C163.636 80.2799 140.672 87.1674 136.576 76.7628C135.406 73.832 134.821 68.8495 134.675 63.2809" stroke="black" stroke-width="2" stroke-miterlimit="10" stroke-linecap="round" stroke-linejoin="round"/>
<path d="M92.9883 46.1353C92.9883 46.1353 120.633 42.4717 125.606 24.0073L92.9883 46.1353Z" fill="white"/>
<path d="M92.9883 46.1353C92.9883 46.1353 120.633 42.4717 125.606 24.0073" stroke="black" stroke-width="2" stroke-miterlimit="10" stroke-linecap="round" stroke-linejoin="round"/>
<path d="M120.487 33.3857C120.487 33.3857 124.29 43.7903 137.601 45.5488" stroke="black" stroke-width="2" stroke-miterlimit="10" stroke-linecap="round" stroke-linejoin="round"/>
<path d="M108.64 68.7026C112.589 73.2455 118.586 72.9524 123.267 68.7026H108.64Z" fill="white"/>
<path d="M108.64 68.7026C112.589 73.2455 118.586 72.9524 123.267 68.7026" stroke="black" stroke-width="2" stroke-miterlimit="10" stroke-linecap="round" stroke-linejoin="round"/>
<path d="M118.292 60.6429C118.585 60.3499 119.608 51.4108 120.779 50.0919C122.095 48.9195 127.068 47.6006 130.286 49.0661" fill="white"/>
<path d="M118.292 60.6429C118.585 60.3499 119.608 51.4108 120.779 50.0919C122.095 48.9195 127.068 47.6006 130.286 49.0661" stroke="black" stroke-width="2" stroke-miterlimit="10" stroke-linecap="round" stroke-linejoin="round"/>
<path d="M110.686 50.8245C108.199 49.2125 105.128 49.066 101.032 50.5314L110.686 50.8245Z" fill="white"/>
<path d="M110.686 50.8245C108.199 49.2125 105.128 49.066 101.032 50.5314" stroke="black" stroke-width="2" stroke-miterlimit="10" stroke-linecap="round" stroke-linejoin="round"/>
<path d="M99.4248 31.9204C100.01 30.8946 102.935 20.6366 116.246 21.0762" stroke="black" stroke-width="2" stroke-miterlimit="10" stroke-linecap="round" stroke-linejoin="round"/>
<path d="M156.908 97.4247C156.47 96.2523 155.885 94.9334 155.299 93.468C153.544 89.0717 149.302 86.1409 144.476 86.1409C139.356 86.1409 133.213 85.9943 129.995 85.9943C128.825 85.9943 127.801 84.9685 127.801 83.7962V73.2451" stroke="black" stroke-width="2" stroke-miterlimit="10" stroke-linecap="round" stroke-linejoin="round"/>
<path d="M106.299 76.4692V83.7964C106.299 85.1153 105.276 85.9945 104.105 85.9945H84.2128C79.5321 85.9945 75.4366 88.7788 73.5351 93.0286L71.4873 97.7179" stroke="black" stroke-width="2" stroke-miterlimit="10" stroke-linecap="round" stroke-linejoin="round"/>
<path d="M102.496 97.8644C98.986 95.2266 96.2068 91.4165 94.7441 86.4341" stroke="black" stroke-width="2" stroke-miterlimit="10" stroke-linecap="round" stroke-linejoin="round"/>
<path d="M140.526 86.4341C139.356 90.5373 137.162 93.9078 134.383 96.5455" stroke="black" stroke-width="2" stroke-miterlimit="10" stroke-linecap="round" stroke-linejoin="round"/>
<path d="M171.827 84.8222L187.624 68.9956" stroke="black" stroke-width="2" stroke-miterlimit="10" stroke-linecap="round" stroke-linejoin="round"/>
<path d="M129.557 97.8647H47.0605L63.8816 150.62H160.42L178.703 97.8647H129.557Z" stroke="black" stroke-width="2" stroke-miterlimit="10" stroke-linecap="round" stroke-linejoin="round"/>
<path d="M112.735 116.915C115.481 116.915 117.708 114.684 117.708 111.933C117.708 109.181 115.481 106.95 112.735 106.95C109.988 106.95 107.762 109.181 107.762 111.933C107.762 114.684 109.988 116.915 112.735 116.915Z" stroke="black" stroke-width="2" stroke-miterlimit="10" stroke-linecap="round" stroke-linejoin="round"/>
<path d="M74.7047 8.47335C71.9256 5.68904 64.0271 10.0853 67.5375 15.0678C70.6092 19.3175 75.1436 7.30101 75.1436 7.30101C75.1436 7.30101 73.3883 16.5332 78.5078 15.8005C82.6033 15.2143 82.3108 8.6199 80.7018 5.98213C79.2391 3.63745 76.7525 2.17202 73.9734 1.87894C71.3405 1.58585 68.5614 2.17202 66.2211 3.63745C64.3196 4.66325 62.7106 6.27522 61.833 8.18027C60.0778 11.9904 61.6867 16.9728 64.9047 19.6106C67.6838 21.8087 73.8271 23.7138 77.1913 21.5157" stroke="black" stroke-width="2" stroke-miterlimit="10" stroke-linecap="round" stroke-linejoin="round"/>
<path d="M44.2815 74.1248H85.237C87.4311 74.1248 89.04 72.3663 89.04 70.3147V46.4283C89.04 44.2301 87.2848 42.6182 85.237 42.6182H44.2815C42.0875 42.6182 40.4785 44.2301 40.4785 46.4283V70.1682C40.4785 72.3663 42.0875 74.1248 44.2815 74.1248Z" fill="white" stroke="black" stroke-width="2" stroke-miterlimit="10" stroke-linecap="round" stroke-linejoin="round"/>
<path d="M88.894 45.8418L63.1505 57.5652L40.625 45.8418" fill="white"/>
<path d="M88.894 45.8418L63.1505 57.5652L40.625 45.8418" stroke="black" stroke-width="2" stroke-miterlimit="10" stroke-linecap="round" stroke-linejoin="round"/>
<path d="M48.9619 63.427L57.2993 55.5137" stroke="black" stroke-width="2" stroke-miterlimit="10" stroke-linecap="round" stroke-linejoin="round"/>
<path d="M50.1321 63.7201H61.8337C65.783 64.3062 64.3203 69.7283 61.1024 69.1421C63.2964 69.4352 62.4188 73.978 60.0785 74.1246C61.6874 75.4435 60.8098 78.6674 59.6397 78.8139C59.7859 78.9605 58.4695 78.814 58.4695 78.9605C59.9322 81.1586 58.177 83.6499 56.2754 83.3568H41.941C35.3589 83.3568 30.0932 78.0812 30.0932 71.4868C29.2156 63.427 34.9201 57.4187 39.3082 55.5137V63.7201H50.1321Z" fill="white" stroke="black" stroke-width="2" stroke-miterlimit="10" stroke-linecap="round" stroke-linejoin="round"/>
<path d="M61.2485 69.1421H50.2783" stroke="black" stroke-width="1.5" stroke-miterlimit="10" stroke-linecap="round" stroke-linejoin="round"/>
<path d="M61.8344 73.978H51.4492" stroke="black" stroke-width="1.5" stroke-miterlimit="10" stroke-linecap="round" stroke-linejoin="round"/>
<path d="M59.2014 78.5205H50.7178" stroke="black" stroke-width="1.5" stroke-miterlimit="10" stroke-linecap="round" stroke-linejoin="round"/>
<path d="M68.708 54.7812L80.9947 69.5821" stroke="black" stroke-width="2" stroke-miterlimit="10" stroke-linecap="round" stroke-linejoin="round"/>
</svg>
