<svg width="55" height="55" viewBox="0 0 55 55" fill="none" xmlns="http://www.w3.org/2000/svg">
<path d="M29.3234 18.5568L36.7497 11.2401C42.253 4.72171 52.9283 11.2401 48.088 17.8916L52 20.5522L45.0379 21.6164L43.977 22.5476C43.977 22.5476 43.9107 44.431 24.2179 43.0341L18.7145 53.5435L3 48.0227L16.5264 37.846" stroke="white" stroke-width="2" stroke-miterlimit="10"/>
<path d="M25.7766 36.3919C25.7766 36.3919 11.5182 38.8669 13.5741 23.8158C13.5741 23.8158 5.08539 20.0697 7.07493 13.5141C7.07493 13.5141 1.70318 12.0424 3.29481 2.54346L22.3944 14.2499C31.8778 18.9994 33.9337 20.8724 34 26.7591" stroke="white" stroke-width="2" stroke-miterlimit="10"/>
<path d="M17.2454 10.8675C16.9328 10.0249 16.8078 9.05272 17.5581 8.01568C17.5581 8.01568 16.3076 7.04346 18.1833 3.54346L30 17.5435" stroke="white" stroke-width="2" stroke-miterlimit="10"/>
</svg>
