<svg width="59" height="61" viewBox="0 0 59 61" fill="none" xmlns="http://www.w3.org/2000/svg">
<path d="M50.5111 22.732L24.1448 56.593C24.1448 56.593 20.8984 53.1536 21.2327 50.4052L21.5493 47.5955L9.8715 35.3834C5.70345 30.8175 4.94891 23.1454 7.86685 17.8614L5.28905 15.8204C4.56985 15.166 4.43566 14.0112 5.01124 13.2485C5.58683 12.4858 6.80275 12.3339 7.58315 12.9707L10.0644 14.907C14.5938 10.1527 21.854 9.11923 27.6205 12.561L41.9938 21.4761L43.9442 21.1123C46.0783 20.6957 48.3371 21.1712 50.1604 22.4354L50.5111 22.732Z" stroke="white" stroke-width="2" stroke-miterlimit="10" stroke-linecap="round" stroke-linejoin="round"/>
<path d="M10.065 14.9069L7.42368 18.8512" stroke="white" stroke-width="2" stroke-miterlimit="10" stroke-linecap="round" stroke-linejoin="round"/>
<path d="M41.9493 35.3528C43.2029 39.6986 40.677 44.2727 36.3312 45.5263C35.2907 45.8264 34.2584 45.9253 33.2955 45.8053" stroke="white" stroke-width="2" stroke-miterlimit="10" stroke-linecap="round" stroke-linejoin="round"/>
</svg>
