<svg width="65" height="72" viewBox="0 0 65 72" fill="none" xmlns="http://www.w3.org/2000/svg">
<path d="M39.8 6.84346L39 22.6435C38.7 26.1435 36.7 28.6435 33.6 28.6435H23.7C23.6 30.4435 24.7 36.7435 25.4 38.9435C22.9 38.9435 18.3 39.7435 14.5 28.6435H6.6C3.9 28.6435 1.2 26.3435 1 23.6435L1.2 7.64346C1.6 3.54346 3.8 1.54346 6.9 1.54346H34.4C37 1.54346 39.5 4.24346 39.8 6.84346Z" stroke="white" stroke-width="2" stroke-miterlimit="10"/>
<path d="M38.5 38.2435C38.5 34.2435 40.2 29.9435 42.9 27.2435C47.4 22.7435 53.7 20.5435 59.8 26.6435C65.5 32.3435 63.7 39.0435 59.2 43.5435C56.6 46.1435 52.5 47.8435 48.6 47.9435" stroke="white" stroke-width="2" stroke-miterlimit="10"/>
<path d="M38.6002 37.4435L17.2002 63.7435L23.3002 69.8435L49.0002 47.8435L38.6002 37.4435Z" stroke="white" stroke-width="2" stroke-miterlimit="10"/>
<path d="M43.7998 27.0435L59.3998 42.6435" stroke="white" stroke-width="2" stroke-miterlimit="10"/>
<path d="M15.5996 11.1435V9.64345C15.9996 8.24345 17.3996 7.24345 18.8996 7.24345H20.3996C21.8996 7.24345 23.2996 8.24345 23.6996 9.74345C24.0996 11.0435 23.5996 12.5435 22.4996 13.3435L20.2996 15.0435C19.4996 15.6435 18.9996 16.7435 18.9996 17.7435V19.5435" stroke="white" stroke-width="2" stroke-miterlimit="10"/>
<path d="M20.1998 21.1435H17.7998V23.5435H20.1998V21.1435Z" fill="white"/>
</svg>
