<svg width="57" height="50" viewBox="0 0 57 50" fill="none" xmlns="http://www.w3.org/2000/svg">
<g clip-path="url(#clip0)">
<path d="M28.6793 30.1608C32.7711 30.1608 36.0881 26.8438 36.0881 22.752C36.0881 18.6603 32.7711 15.3432 28.6793 15.3432C24.5875 15.3432 21.2705 18.6603 21.2705 22.752C21.2705 26.8438 24.5875 30.1608 28.6793 30.1608Z" stroke="white" stroke-width="2" stroke-miterlimit="10"/>
<path d="M15.0714 7.09744C15.4832 4.42325 13.6492 1.92154 10.975 1.50971C8.30083 1.09788 5.79912 2.93188 5.38729 5.60607C4.97546 8.28026 6.80946 10.782 9.48365 11.1938C12.1578 11.6056 14.6596 9.77163 15.0714 7.09744Z" stroke="white" stroke-width="2" stroke-miterlimit="10"/>
<path d="M49.9499 12.2363C52.7877 12.2363 55.0882 9.93577 55.0882 7.09793C55.0882 4.26009 52.7877 1.95956 49.9499 1.95956C47.112 1.95956 44.8115 4.26009 44.8115 7.09793C44.8115 9.93577 47.112 12.2363 49.9499 12.2363Z" stroke="white" stroke-width="2" stroke-miterlimit="10"/>
<path d="M50.6667 46.1734C53.5045 46.1734 55.8051 43.8729 55.8051 41.035C55.8051 38.1972 53.5045 35.8967 50.6667 35.8967C47.8288 35.8967 45.5283 38.1972 45.5283 41.035C45.5283 43.8729 47.8288 46.1734 50.6667 46.1734Z" stroke="white" stroke-width="2" stroke-miterlimit="10"/>
<path d="M6.33368 48.2049C9.17152 48.2049 11.472 45.9043 11.472 43.0665C11.472 40.2287 9.17152 37.9281 6.33368 37.9281C3.49584 37.9281 1.19531 40.2287 1.19531 43.0665C1.19531 45.9043 3.49584 48.2049 6.33368 48.2049Z" stroke="white" stroke-width="2" stroke-miterlimit="10"/>
<path d="M22.5852 16.8967L13.9814 9.48788" stroke="white" stroke-width="2" stroke-miterlimit="10"/>
<path d="M33.8174 18.8086L46.6035 8.6514" stroke="white" stroke-width="2" stroke-miterlimit="10"/>
<path d="M33.8174 28.0099L46.6035 39.3621" stroke="white" stroke-width="2" stroke-miterlimit="10"/>
<path d="M23.4212 28.0099L9.55957 40.4376" stroke="white" stroke-width="2" stroke-miterlimit="10"/>
</g>
<defs>
<clipPath id="clip0">
<rect width="57" height="49.1132" fill="white" transform="translate(0 0.286621)"/>
</clipPath>
</defs>
</svg>
