<svg width="65" height="72" viewBox="0 0 65 72" fill="none" xmlns="http://www.w3.org/2000/svg">
<path d="M39.8 6.84346L39 22.6435C38.7 26.1435 36.7 28.6435 33.6 28.6435H23.7C23.6 30.4435 24.7 36.7435 25.4 38.9435C22.9 38.9435 18.3 39.7435 14.5 28.6435H6.6C3.9 28.6435 1.2 26.3435 1 23.6435L1.2 7.64346C1.6 3.54346 3.8 1.54346 6.9 1.54346H34.4C37 1.54346 39.5 4.24346 39.8 6.84346Z" stroke="white" stroke-width="2" stroke-miterlimit="10"/>
<path d="M38.5 38.2435C38.5 34.2435 40.2 29.9435 42.9 27.2435C47.4 22.7435 53.7 20.5435 59.8 26.6435C65.5 32.3435 63.7 39.0435 59.2 43.5435C56.6 46.1435 52.5 47.8435 48.6 47.9435" stroke="white" stroke-width="2" stroke-miterlimit="10"/>
<path d="M38.6002 37.4435L17.2002 63.7435L23.3002 69.8435L49.0002 47.8435L38.6002 37.4435Z" stroke="white" stroke-width="2" stroke-miterlimit="10"/>
<path d="M43.7998 27.0435L59.3998 42.6435" stroke="white" stroke-width="2" stroke-miterlimit="10"/>
<path d="M20.1998 6.34344H17.7998V8.74344H20.1998V6.34344Z" fill="white"/>
<path d="M21.8004 18.2435L21.0004 20.0435C20.6004 20.9435 19.8004 21.4435 18.9004 21.4435C17.3004 21.4435 16.2004 19.8435 16.7004 18.3435L19.0004 11.4435H14.9004" stroke="white" stroke-width="2" stroke-miterlimit="10" stroke-linecap="round" stroke-linejoin="round"/>
</svg>
