<svg width="11" height="23" viewBox="0 0 11 23" fill="none" xmlns="http://www.w3.org/2000/svg">
<path d="M2.42463 22.2223C2.37487 22.2223 2.33322 22.1829 2.33322 22.1332C2.33322 19.8076 2.33322 17.482 2.33322 11.3468C2.33322 11.297 2.29283 11.2566 2.243 11.2566C1.90194 11.2566 1.56199 11.2566 1.22228 11.2566C0.608716 11.2566 0.111328 10.7592 0.111328 10.1457C0.111328 9.48246 0.111328 8.82047 0.111328 8.15644C0.111328 8.10946 0.148327 8.06787 0.195302 8.06787C0.879573 8.06787 1.56498 8.06787 2.24925 8.06787C2.33436 8.06787 2.33436 8.06787 2.33436 7.98211C2.33436 6.8494 2.32982 5.7178 2.33436 4.58508C2.33776 3.71745 2.64983 2.96676 3.2592 2.33859C3.84929 1.73046 4.57554 1.34732 5.39032 1.11566C5.72961 1.01876 6.07686 0.959727 6.4275 0.921859C6.86553 0.876194 7.30355 0.888445 7.74158 0.896242C7.99803 0.900697 8.25449 0.910721 8.51095 0.924086C8.78671 0.938566 9.06132 0.956386 9.33594 0.978662C9.61282 1.00094 9.88858 1.02655 10.1643 1.05885C10.3572 1.08113 10.5479 1.11677 10.7397 1.14573C10.7737 1.1513 10.7828 1.16466 10.7771 1.19808C10.692 1.72267 10.6069 2.24726 10.5229 2.77185C10.4458 3.25634 10.3697 3.74084 10.2926 4.22533C10.2778 4.32 10.2619 4.41579 10.246 4.51046C10.2418 4.53329 10.2157 4.54465 10.193 4.53962C10.0499 4.50784 9.90854 4.47545 9.76715 4.44586C9.3836 4.36567 8.99777 4.29884 8.60628 4.26877C8.38953 4.25206 8.17279 4.24092 7.95605 4.26988C7.21617 4.36901 6.83943 4.75104 6.69644 5.37809C6.64425 5.60865 6.62609 5.84365 6.62609 6.07866C6.62609 6.71686 6.62609 7.35617 6.62609 7.99436C6.62609 8.06676 6.62609 8.06676 6.70098 8.06676C7.84711 8.06676 8.99324 8.06676 10.1394 8.06676C10.193 8.06676 10.2346 8.11374 10.228 8.16699C10.1583 8.73105 10.089 9.29302 10.0198 9.85474C9.92139 10.6533 9.24319 11.2533 8.43863 11.2533C7.86444 11.2533 7.2898 11.2533 6.71297 11.2533C6.66499 11.2533 6.62609 11.2922 6.62609 11.3402C6.62609 17.4776 6.62609 19.8054 6.62609 22.1321C6.62609 22.1818 6.58446 22.2212 6.53468 22.2212C5.16535 22.2223 3.795 22.2223 2.42463 22.2223Z" fill="black"/>
</svg>
