<svg width="184" height="129" viewBox="0 0 184 129" fill="none" xmlns="http://www.w3.org/2000/svg">
<path d="M22.2 80.8117L1 102.112" stroke="black" stroke-width="2" stroke-miterlimit="10"/>
<path d="M77.2004 1.41156L55.9004 22.6116" stroke="black" stroke-width="2" stroke-miterlimit="10"/>
<path d="M183 59.9116L154.9 88.1116" stroke="black" stroke-width="2" stroke-miterlimit="10"/>
<path d="M140.5 35.8116C142.323 35.8116 143.8 34.3341 143.8 32.5116C143.8 30.6891 142.323 29.2116 140.5 29.2116C138.678 29.2116 137.2 30.6891 137.2 32.5116C137.2 34.3341 138.678 35.8116 140.5 35.8116Z" stroke="black" stroke-width="2" stroke-miterlimit="10"/>
<path d="M129.3 35.8116C131.123 35.8116 132.6 34.3341 132.6 32.5116C132.6 30.6891 131.123 29.2116 129.3 29.2116C127.477 29.2116 126 30.6891 126 32.5116C126 34.3341 127.477 35.8116 129.3 35.8116Z" stroke="black" stroke-width="2" stroke-miterlimit="10"/>
<path d="M117.5 35.8116C119.323 35.8116 120.8 34.3341 120.8 32.5116C120.8 30.6891 119.323 29.2116 117.5 29.2116C115.678 29.2116 114.2 30.6891 114.2 32.5116C114.2 34.3341 115.678 35.8116 117.5 35.8116Z" stroke="black" stroke-width="2" stroke-miterlimit="10"/>
<path d="M149.2 109.212H31.4998C28.3998 109.212 25.7998 106.712 25.7998 103.512V28.3115C25.7998 25.2115 28.2998 22.6115 31.4998 22.6115H149.2C152.3 22.6115 154.9 25.1115 154.9 28.3115V103.512C154.9 106.612 152.3 109.212 149.2 109.212Z" stroke="black" stroke-width="2" stroke-miterlimit="10"/>
<path d="M68.2001 109.912L60.1001 122.312C58.6001 124.512 60.2001 127.512 62.9001 127.512H117.6C120.3 127.512 121.9 124.512 120.4 122.312L112.3 109.912" stroke="black" stroke-width="2" stroke-miterlimit="10"/>
<path d="M152.8 42.3117H24.9004" stroke="black" stroke-width="2" stroke-miterlimit="10"/>
<path d="M108.7 29.2116H31.9004V37.1116H108.7V29.2116Z" stroke="black" stroke-width="2" stroke-miterlimit="10"/>
<path d="M32.2998 75.9116H148.9" stroke="black" stroke-width="2" stroke-miterlimit="10"/>
<path d="M125.6 49.6115V103.812" stroke="black" stroke-width="2" stroke-miterlimit="10"/>
<path d="M55.9004 49.6115V103.812" stroke="black" stroke-width="2" stroke-miterlimit="10"/>
<path d="M90.7998 49.6115V103.812" stroke="black" stroke-width="2" stroke-miterlimit="10"/>
<path d="M36.4004 63.7115L41.4004 67.7115L48.4004 59.6115" stroke="black" stroke-width="2" stroke-miterlimit="10"/>
<path d="M103 61.0117L108.1 65.1117L115 57.0117" stroke="black" stroke-width="2" stroke-miterlimit="10"/>
<path d="M103 91.5117L108.1 95.6117L115 87.5117" stroke="black" stroke-width="2" stroke-miterlimit="10"/>
</svg>
