<svg width="154" height="130" viewBox="0 0 154 130" fill="none" xmlns="http://www.w3.org/2000/svg">
<path d="M63.1053 73.3637H39.9789C32.2391 73.3637 25.9912 67.1158 25.9912 59.376V36.2496C25.9912 28.5097 32.2391 22.2618 39.9789 22.2618H63.1053C70.8452 22.2618 77.093 28.5097 77.093 36.2496V59.376C77.093 67.0226 70.8452 73.3637 63.1053 73.3637Z" stroke="black" stroke-width="2" stroke-miterlimit="10"/>
<path d="M47.8123 60.4016V47.3465H45.5742V43.4299H47.8123V42.7772C47.8123 40.7257 48.465 38.4877 49.957 37.0889C51.2626 35.8766 53.1276 35.4104 54.7129 35.4104C55.9252 35.4104 56.8577 35.5036 57.5104 35.7834L57.3239 39.7932C56.8577 39.6999 56.2982 39.5134 55.6454 39.5134C53.8736 39.5134 53.1276 40.8189 53.1276 42.4974V43.3367H56.5779V47.2532H53.2209V60.3084H47.8123V60.4016Z" stroke="black" stroke-width="2" stroke-miterlimit="10"/>
<path d="M63.1053 128.848H39.9789C32.2391 128.848 25.9912 122.601 25.9912 114.861V91.7342C25.9912 83.9943 32.2391 77.7465 39.9789 77.7465H63.1053C70.8452 77.7465 77.093 83.9943 77.093 91.7342V114.861C77.093 122.601 70.8452 128.848 63.1053 128.848Z" stroke="black" stroke-width="2" stroke-miterlimit="10"/>
<path d="M60.4005 95.1845C60.4005 100.034 56.4839 103.857 51.7281 103.857C46.879 103.857 43.0557 99.9403 43.0557 95.1845C43.0557 90.3354 46.9722 86.4188 51.7281 86.5121C56.4839 86.5121 60.4005 90.4286 60.4005 95.1845ZM51.7281 98.8213C53.6864 98.8213 55.3649 97.236 55.3649 95.1845C55.3649 93.2262 53.7796 91.6409 51.7281 91.6409C49.7698 91.6409 48.0913 93.2262 48.1845 95.2777C48.0913 97.236 49.7698 98.8213 51.7281 98.8213Z" stroke="black" stroke-width="2" stroke-miterlimit="10"/>
<path d="M54.8048 110.851C54.8048 110.944 54.8981 111.037 54.9913 111.037C56.6699 112.716 58.3484 114.394 60.0269 115.98C61.0527 117.005 60.9594 118.591 59.9337 119.523C59.0012 120.362 57.6024 120.269 56.6699 119.337C55.0846 117.751 53.4061 116.166 51.8208 114.581C51.6343 114.394 51.6343 114.394 51.3545 114.581C49.8625 116.166 48.4637 117.658 46.9717 119.243C45.6662 120.642 43.5214 120.176 42.9619 118.404C42.6821 117.472 42.8686 116.632 43.5214 115.98C44.3607 115.047 45.2932 114.115 46.1324 113.275C46.8785 112.529 47.5312 111.783 48.2772 111.037C48.3705 110.944 48.4637 110.851 48.184 110.851C46.2257 110.385 44.3607 109.732 42.6821 108.519C41.2834 107.587 41.2834 105.629 42.5889 104.603C43.3349 104.043 44.4539 104.043 45.2932 104.51C47.1582 105.815 49.2097 106.375 51.541 106.375C53.5926 106.375 55.4576 105.908 57.2294 104.789C57.6024 104.603 57.8821 104.323 58.3484 104.23C59.4674 103.95 60.5864 104.51 61.0527 105.535C61.5189 106.561 61.2392 107.773 60.3067 108.426C58.9079 109.452 57.4159 110.105 55.7374 110.571C55.4576 110.664 55.1778 110.758 54.8048 110.851Z" stroke="black" stroke-width="2" stroke-miterlimit="10"/>
<path d="M117.471 73.3637H96.2093C88.0032 73.3637 81.2891 66.6496 81.2891 58.4434V37.1821C81.2891 28.9759 88.0032 22.2618 96.2093 22.2618H117.471C125.677 22.2618 132.391 28.9759 132.391 37.1821V58.4434C132.391 66.6496 125.677 73.3637 117.471 73.3637Z" stroke="black" stroke-width="2" stroke-miterlimit="10"/>
<path d="M109.265 44.3624C109.265 45.3882 109.265 46.414 109.265 47.533C109.265 47.7195 109.265 47.906 109.358 48.0925C109.451 48.4655 109.731 48.5587 110.011 48.4655C110.197 48.3722 110.384 48.279 110.477 48.1857C110.943 47.8127 111.41 47.3465 111.783 46.787C112.715 45.5747 113.554 44.1759 114.3 42.7771C114.58 42.2176 114.86 41.6581 115.14 41.0986C115.419 40.5391 115.886 40.1661 116.538 40.1661C117.657 40.1661 118.683 40.1661 119.802 40.1661C119.989 40.1661 120.175 40.1661 120.362 40.2593C120.641 40.3526 120.735 40.5391 120.735 40.8188C120.735 41.0986 120.641 41.3784 120.548 41.6581C120.268 42.4041 119.895 43.0569 119.522 43.6164C118.59 45.2949 117.564 46.787 116.445 48.3722C116.352 48.5587 116.259 48.652 116.165 48.8385C115.979 49.1183 116.072 49.398 116.165 49.6778C116.259 49.8643 116.352 50.0508 116.538 50.144C116.818 50.517 117.191 50.7968 117.471 51.0766C118.59 52.1956 119.616 53.4078 120.548 54.6201C120.735 54.8999 120.921 55.2729 121.108 55.6459C121.201 55.9256 121.294 56.1122 121.294 56.3919C121.294 56.6717 121.108 56.9514 120.828 57.0447C120.548 57.1379 120.362 57.2312 120.082 57.2312C119.522 57.2312 118.963 57.2312 118.403 57.2312C117.937 57.2312 117.471 57.2312 117.005 57.2312C116.538 57.2312 116.165 57.0447 115.792 56.7649C115.513 56.4852 115.233 56.2054 114.953 55.9256C114.3 55.1796 113.648 54.5269 112.995 53.8741C112.435 53.3146 111.876 52.8483 111.223 52.4753C111.037 52.3821 110.757 52.1956 110.57 52.1956C110.291 52.1023 110.011 52.1023 109.824 52.1956C109.638 52.1956 109.545 52.3821 109.451 52.5686C109.358 52.7551 109.358 52.9416 109.358 53.1281C109.358 53.9674 109.358 54.8066 109.358 55.6459C109.358 55.9256 109.358 56.2054 109.358 56.3919C109.358 56.7649 109.172 56.9514 108.798 57.1379C108.519 57.2312 108.146 57.3244 107.866 57.3244C106.001 57.5109 104.229 57.0447 102.644 56.2054C101.152 55.4594 99.8464 54.3404 98.7273 53.1281C97.9813 52.3821 97.4218 51.4496 96.8623 50.6103C95.7433 48.9318 94.7175 47.2532 93.8783 45.3882C93.3188 44.2692 92.9457 43.0569 92.5727 41.8446C92.4795 41.6581 92.4795 41.3784 92.4795 41.1918C92.4795 41.0053 92.4795 40.9121 92.4795 40.7256C92.5727 40.4458 92.666 40.3526 92.8525 40.2593C93.039 40.1661 93.2255 40.1661 93.412 40.1661C94.531 40.1661 95.65 40.1661 96.6758 40.1661C97.2353 40.1661 97.6083 40.4458 97.7948 40.9121C97.8881 41.0986 97.9813 41.2851 98.0746 41.5649C98.8206 43.6164 99.6598 45.5747 100.779 47.3465C101.152 47.9992 101.618 48.652 102.178 49.2115C102.364 49.398 102.551 49.6778 102.83 49.771C103.017 49.8643 103.203 49.9575 103.39 49.9575C103.576 49.9575 103.67 49.8643 103.763 49.6778C103.856 49.4913 103.856 49.398 103.856 49.2115C103.856 49.1183 103.856 48.9318 103.856 48.8385C103.856 47.2532 103.856 45.7612 103.856 44.1759C103.856 43.5231 103.67 42.8704 103.39 42.3109C103.297 42.1244 103.11 41.9379 103.017 41.7514C102.924 41.6581 102.83 41.5649 102.737 41.4716C102.364 40.9121 102.737 40.2593 103.39 40.2593H103.483C105.068 40.2593 106.747 40.2593 108.332 40.2593C108.425 40.2593 108.519 40.2593 108.612 40.2593C108.892 40.3526 109.171 40.5391 109.171 40.8188C109.265 41.0053 109.265 41.1918 109.265 41.4716C109.265 42.3109 109.265 43.3366 109.265 44.3624Z" stroke="black" stroke-width="2" stroke-miterlimit="10"/>
<path d="M118.403 128.569H95.2768C87.5369 128.569 81.2891 122.321 81.2891 114.581V91.4544C81.2891 83.7145 87.5369 77.4667 95.2768 77.4667H118.403C126.143 77.4667 132.391 83.7145 132.391 91.4544V114.581C132.391 122.321 126.143 128.569 118.403 128.569Z" stroke="black" stroke-width="2" stroke-miterlimit="10"/>
<path d="M106.839 118.404C114.873 118.404 121.386 111.891 121.386 103.857C121.386 95.8226 114.873 89.3096 106.839 89.3096C98.805 89.3096 92.292 95.8226 92.292 103.857C92.292 111.891 98.805 118.404 106.839 118.404Z" stroke="black" stroke-width="2" stroke-miterlimit="10"/>
<path d="M123.065 89.6827C124.507 89.6827 125.676 88.5137 125.676 87.0716C125.676 85.6296 124.507 84.4605 123.065 84.4605C121.623 84.4605 120.454 85.6296 120.454 87.0716C120.454 88.5137 121.623 89.6827 123.065 89.6827Z" stroke="black" stroke-width="2" stroke-miterlimit="10"/>
<path d="M153 73.3637L131.552 94.9049" stroke="black" stroke-width="2" stroke-miterlimit="10"/>
<path d="M15.9203 75.6017L1 90.5219" stroke="black" stroke-width="2" stroke-miterlimit="10"/>
<path d="M97.6087 1.00043L82.6885 15.9207" stroke="black" stroke-width="2" stroke-miterlimit="10"/>
</svg>
