<svg width="141" height="136" viewBox="0 0 141 136" fill="none" xmlns="http://www.w3.org/2000/svg">
<path d="M90.8625 42.0883H30.2686V123.033H90.8625V42.0883Z" fill="white" stroke="black" stroke-width="2" stroke-miterlimit="10"/>
<path d="M90.8625 66.5542H30.2686" stroke="black" stroke-width="2" stroke-miterlimit="10"/>
<path d="M78.057 105.883H42.6152" stroke="black" stroke-width="2" stroke-miterlimit="10"/>
<path d="M77.8285 92.9641H42.3867" stroke="black" stroke-width="2" stroke-miterlimit="10"/>
<path d="M77.8285 80.045H42.3867" stroke="black" stroke-width="2" stroke-miterlimit="10"/>
<path d="M76.9138 29.7409C74.8559 33.7424 73.3696 37.9725 72.5693 42.0884" stroke="black" stroke-width="2" stroke-miterlimit="10"/>
<path d="M87.7754 27.9113C94.9781 33.2848 103.896 38.4295 113.156 38.4295C124.703 38.4295 139.223 24.5958 129.963 13.163C123.674 5.50302 111.899 9.27585 104.353 12.5914C98.2936 15.2209 90.9766 19.2224 87.7754 25.7391" stroke="black" stroke-width="2" stroke-miterlimit="10" stroke-linecap="round" stroke-linejoin="round"/>
<path d="M80.8008 23.1094C83.2017 24.4814 85.4882 26.1963 87.6605 27.9112" stroke="black" stroke-width="2" stroke-miterlimit="10"/>
<path d="M41.7012 42.0881C42.5015 32.5989 44.4451 19.7941 65.0241 19.1081C71.7695 18.8795 76.5713 20.5944 80.8014 22.9953" stroke="black" stroke-width="2" stroke-miterlimit="10"/>
<path d="M47.7607 41.2877C47.7607 41.2877 47.8751 30.6551 58.3933 26.768C65.1386 24.3671 73.8276 28.0256 80.0013 31.1124C92.3488 37.2862 102.181 48.4903 117.272 46.2038C131.335 44.0315 141.053 32.1414 139.909 17.8504C137.737 -8.90243 102.295 2.18741 89.6049 13.1629C85.9464 16.3641 83.7741 18.422 80.9159 22.8808" stroke="black" stroke-width="2" stroke-miterlimit="10"/>
<path d="M79.8867 42.0883C79.8867 42.0883 82.4019 35.5716 84.5742 33.7424" stroke="black" stroke-width="2" stroke-miterlimit="10"/>
<path d="M114.643 62.5527L90.4053 86.9046" stroke="black" stroke-width="2" stroke-miterlimit="10"/>
<path d="M30.0393 110.914L5.80176 135.151" stroke="black" stroke-width="2" stroke-miterlimit="10"/>
<path d="M37.0134 9.84741L1 45.8608" stroke="black" stroke-width="2" stroke-miterlimit="10"/>
</svg>
