<svg width="160" height="119" viewBox="0 0 160 119" fill="none" xmlns="http://www.w3.org/2000/svg">
<path d="M117.309 35.1179C117.497 29.5753 116.182 23.9388 113.176 18.5841C107.257 8.2504 95.9844 1.67444 84.0537 1.67444C59.0651 1.67444 42.0615 31.2663 55.7771 52.5912C64.6077 66.4007 74.5656 79.6466 83.7719 93.1742C83.2083 92.3288 93.0722 79.9284 93.8237 78.895C99.2724 71.1917 104.627 63.4885 110.076 55.7852C114.491 49.585 117.121 42.3515 117.309 35.1179Z" stroke="black" stroke-width="2" stroke-miterlimit="10"/>
<path d="M84.1483 50.6183C92.8128 50.6183 99.8367 43.5944 99.8367 34.9299C99.8367 26.2655 92.8128 19.2416 84.1483 19.2416C75.4839 19.2416 68.46 26.2655 68.46 34.9299C68.46 43.5944 75.4839 50.6183 84.1483 50.6183Z" stroke="black" stroke-width="2" stroke-miterlimit="10"/>
<path d="M51.1741 44.3242L32.9493 48.3637C32.9493 48.3637 1.76043 100.314 1.00889 100.783C0.25735 101.253 47.4164 89.8862 47.4164 89.8862L84.1478 106.326L121.631 89.8862L157.611 100.783L138.446 47.1424L116.558 44.3242" stroke="black" stroke-width="2" stroke-miterlimit="10"/>
<path d="M13.6914 80.2101C13.6914 80.2101 28.6282 63.8642 42.4377 71.9432C60.3807 82.3708 68.3658 71.2856 68.3658 71.2856" stroke="black" stroke-width="2" stroke-miterlimit="10"/>
<path d="M5.7998 93.1743C5.7998 93.1743 19.3275 74.3858 34.5461 75.8889C56.8105 79.2708 55.3074 94.1137 74.5656 78.2374" stroke="black" stroke-width="2" stroke-miterlimit="10"/>
<path d="M104.063 64.9915C104.063 64.9915 111.109 60.4823 118.155 65.4613C128.77 72.6948 134.689 84.7194 146.431 69.4068" stroke="black" stroke-width="2" stroke-miterlimit="10"/>
<path d="M148.686 75.7949C148.686 75.7949 140.513 90.4499 125.858 81.0556C111.203 71.6614 114.397 65.3673 95.6084 76.7343" stroke="black" stroke-width="2" stroke-miterlimit="10"/>
<path d="M37.5518 66.6824V57.1943L43.9398 50.9001L49.9521 56.9125V66.6824" stroke="black" stroke-width="2" stroke-miterlimit="10"/>
<path d="M101.339 90.0741V83.1223L106.036 78.4252L110.451 82.8405V90.0741" stroke="black" stroke-width="2" stroke-miterlimit="10"/>
<path d="M123.698 60.2004V53.2487L128.395 48.5516L132.811 52.9669V60.2004" stroke="black" stroke-width="2" stroke-miterlimit="10"/>
<path d="M136.943 8.81415L116.934 28.7299" stroke="black" stroke-width="2" stroke-miterlimit="10"/>
<path d="M62.4472 97.4015L42.4375 117.411" stroke="black" stroke-width="2" stroke-miterlimit="10"/>
<path d="M28.9099 21.5901L8.99414 41.5059" stroke="black" stroke-width="2" stroke-miterlimit="10"/>
</svg>
