<svg width="132" height="108" viewBox="0 0 132 108" fill="none" xmlns="http://www.w3.org/2000/svg">
<path d="M45.4681 5.07007L7.12695 43.3184" stroke="black" stroke-width="2" stroke-miterlimit="10"/>
<path d="M126.607 9.34033L111.382 24.5654" stroke="black" stroke-width="2" stroke-miterlimit="10"/>
<path d="M109.246 78.6888L81.1172 106.911" stroke="black" stroke-width="2" stroke-miterlimit="10"/>
<path d="M117.231 43.3182C115.56 40.8117 112.218 40.1618 109.711 41.74L94.9502 50.9308" stroke="black" stroke-width="2" stroke-miterlimit="10" stroke-linecap="round" stroke-linejoin="round"/>
<path d="M1 70.055L30.4289 44.4324C33.6782 40.9046 39.5268 40.2548 44.3543 40.2548C65.7993 40.1619 59.6722 48.9813 78.425 47.8673L90.0294 48.053C93.1859 48.053 95.7853 50.6524 95.7853 53.9016C95.7853 57.1509 93.1859 59.7503 89.9366 59.7503H51.2241H77.4966H92.6288L121.315 42.2043C124.193 40.3476 127.999 41.0903 129.949 43.9682C131.806 46.7533 131.156 50.5595 128.371 52.5091L104.419 68.1055C96.8065 73.5828 95.1354 76.4607 85.759 76.4607H48.1605C43.9829 76.4607 39.8982 77.8532 36.5561 80.3598L21.0525 92.2428L1 70.055Z" stroke="black" stroke-width="2" stroke-miterlimit="10" stroke-linecap="round" stroke-linejoin="round"/>
<path d="M76.104 40.9046C86.9736 40.9046 95.7852 32.093 95.7852 21.2234C95.7852 10.3538 86.9736 1.54224 76.104 1.54224C65.2344 1.54224 56.4229 10.3538 56.4229 21.2234C56.4229 32.093 65.2344 40.9046 76.104 40.9046Z" stroke="black" stroke-width="2" stroke-miterlimit="10" stroke-linecap="round" stroke-linejoin="round"/>
<path d="M71.7412 34.1276V11.1044H82.4173C85.5737 11.1044 88.1731 13.7038 88.1731 16.8602C88.1731 20.0166 85.5737 22.616 82.4173 22.616H72.6696" stroke="black" stroke-width="2" stroke-miterlimit="10" stroke-linecap="round" stroke-linejoin="round"/>
<path d="M68.2139 28.7432H82.2321" stroke="black" stroke-width="2" stroke-miterlimit="10" stroke-linecap="round" stroke-linejoin="round"/>
</svg>
