<svg width="131" height="103" viewBox="0 0 131 103" fill="none" xmlns="http://www.w3.org/2000/svg">
<path d="M24.1683 65.545L1 88.8226" stroke="black" stroke-width="2" stroke-miterlimit="10"/>
<path d="M24.4966 20.4104L8.65039 36.1474" stroke="black" stroke-width="2" stroke-miterlimit="10"/>
<path d="M129.3 25.6561L98.4814 56.3651" stroke="black" stroke-width="2" stroke-miterlimit="10"/>
<path d="M98.4814 101.39H24.168V1.39502H80.6681L98.4814 21.1755V101.39Z" stroke="black" stroke-width="2" stroke-miterlimit="10"/>
<path d="M47.7736 32.2134H36.2987C34.878 32.2134 33.7852 31.1205 33.7852 29.6998V18.2249C33.7852 16.8042 34.878 15.7114 36.2987 15.7114H47.7736C49.1943 15.7114 50.2871 16.8042 50.2871 18.2249V29.6998C50.3964 31.1205 49.1943 32.2134 47.7736 32.2134Z" stroke="black" stroke-width="2" stroke-miterlimit="10"/>
<path d="M39.3584 24.8912L41.4348 26.9676L46.4619 21.9406" stroke="black" stroke-width="2" stroke-miterlimit="10"/>
<path d="M47.7736 61.3922H36.2987C34.878 61.3922 33.7852 60.2993 33.7852 58.8786V47.2945C33.7852 45.8738 34.878 44.7809 36.2987 44.7809H47.7736C49.1943 44.7809 50.2871 45.8738 50.2871 47.2945V58.7693C50.3964 60.19 49.1943 61.3922 47.7736 61.3922Z" stroke="black" stroke-width="2" stroke-miterlimit="10"/>
<path d="M39.3584 53.9607L41.4348 56.0372L46.4619 51.0101" stroke="black" stroke-width="2" stroke-miterlimit="10"/>
<path d="M47.7736 90.6805H36.2987C34.878 90.6805 33.7852 89.5876 33.7852 88.1669V76.5828C33.7852 75.1621 34.878 74.0692 36.2987 74.0692H47.7736C49.1943 74.0692 50.2871 75.1621 50.2871 76.5828V88.0576C50.3964 89.4783 49.1943 90.6805 47.7736 90.6805Z" stroke="black" stroke-width="2" stroke-miterlimit="10"/>
<path d="M39.3584 83.2491L41.4348 85.3255L46.4619 80.2984" stroke="black" stroke-width="2" stroke-miterlimit="10"/>
<path d="M79.1387 0.41156V21.1756H97.9356" stroke="black" stroke-width="2" stroke-miterlimit="10"/>
<path d="M58.2646 19.7549H73.0181" stroke="black" stroke-width="2" stroke-miterlimit="10"/>
<path d="M58.2646 26.9678H67.6631" stroke="black" stroke-width="2" stroke-miterlimit="10"/>
<path d="M58.2646 49.2617H77.9359" stroke="black" stroke-width="2" stroke-miterlimit="10"/>
<path d="M58.2646 56.4746H70.8324" stroke="black" stroke-width="2" stroke-miterlimit="10"/>
<path d="M58.2646 79.2055H77.9359" stroke="black" stroke-width="2" stroke-miterlimit="10"/>
<path d="M58.2646 86.4184H70.8324" stroke="black" stroke-width="2" stroke-miterlimit="10"/>
</svg>
