<svg width="152" height="135" viewBox="0 0 152 135" fill="none" xmlns="http://www.w3.org/2000/svg">
<path d="M150.9 59.0114L129.7 80.2114" stroke="black" stroke-width="2" stroke-miterlimit="10"/>
<path d="M25.2004 112.611L3.90039 133.811" stroke="black" stroke-width="2" stroke-miterlimit="10"/>
<path d="M69.4 1.41125L49 21.8113" stroke="black" stroke-width="2" stroke-miterlimit="10"/>
<path d="M117.3 39.8113C119.123 39.8113 120.6 38.3338 120.6 36.5113C120.6 34.6888 119.123 33.2113 117.3 33.2113C115.477 33.2113 114 34.6888 114 36.5113C114 38.3338 115.477 39.8113 117.3 39.8113Z" stroke="black" stroke-width="2" stroke-miterlimit="10"/>
<path d="M106.2 39.8113C108.023 39.8113 109.5 38.3338 109.5 36.5113C109.5 34.6888 108.023 33.2113 106.2 33.2113C104.378 33.2113 102.9 34.6888 102.9 36.5113C102.9 38.3338 104.378 39.8113 106.2 39.8113Z" stroke="black" stroke-width="2" stroke-miterlimit="10"/>
<path d="M94.3996 39.8113C96.2222 39.8113 97.6996 38.3338 97.6996 36.5113C97.6996 34.6888 96.2222 33.2113 94.3996 33.2113C92.5771 33.2113 91.0996 34.6888 91.0996 36.5113C91.0996 38.3338 92.5771 39.8113 94.3996 39.8113Z" stroke="black" stroke-width="2" stroke-miterlimit="10"/>
<path d="M42.7002 89.9112L47.9002 82.7112L55.9002 88.4112" stroke="black" stroke-width="2" stroke-miterlimit="10"/>
<path d="M48.1006 83.2112C49.0006 92.9112 57.8006 99.9112 67.4006 100.611C77.0006 101.211 85.5006 95.4112 88.7006 86.9112" stroke="black" stroke-width="2" stroke-miterlimit="10"/>
<path d="M93.7996 68.3112L88.5996 75.6112L80.5996 69.9112" stroke="black" stroke-width="2" stroke-miterlimit="10"/>
<path d="M88.5998 75.6112C86.6998 64.9112 78.5998 58.4112 69.0998 57.7112C59.4998 57.1112 50.9998 62.9112 47.7998 71.4112" stroke="black" stroke-width="2" stroke-miterlimit="10"/>
<path d="M124.3 112.211H6.7C3.6 112.211 1 109.711 1 106.511V32.6113C1 29.5113 3.5 26.9113 6.7 26.9113H124.4C127.5 26.9113 130.1 29.4113 130.1 32.6113V106.511C130 109.711 127.5 112.211 124.3 112.211Z" stroke="black" stroke-width="2" stroke-miterlimit="10"/>
<path d="M44.1998 114.711L34.9998 126.911C33.2998 129.111 34.8998 132.311 37.6998 132.311H93.5998C96.2998 132.311 97.8998 129.311 96.3998 127.111L88.3998 114.711" stroke="black" stroke-width="2" stroke-miterlimit="10"/>
<path d="M129.7 46.2113H1.7002" stroke="black" stroke-width="2" stroke-miterlimit="10"/>
<path d="M85.5002 33.1112H8.7002V41.0112H85.5002V33.1112Z" stroke="black" stroke-width="2" stroke-miterlimit="10"/>
</svg>
