<svg width="140" height="50" viewBox="0 0 140 50" fill="none" xmlns="http://www.w3.org/2000/svg">
<path d="M135.625 50H4.375C1.96875 50 0 47.75 0 45V5C0 2.25 1.96875 0 4.375 0H135.625C138.031 0 140 2.25 140 5V45C140 47.75 138.031 50 135.625 50Z" fill="black"/>
<path d="M49.0586 16.999H49.6104C50.0824 16.1364 50.4779 15.168 50.7969 14.0938C51.1159 13.0195 51.321 11.9421 51.4121 10.8613H55.0986V16.999H56.0215V19.9678H54.8984V18H50.1816V19.9678H49.0586V16.999ZM52.3887 11.8721C52.3171 12.611 52.1348 13.4688 51.8418 14.4453C51.5488 15.4186 51.2152 16.2699 50.8408 16.999H53.9316V11.8721H52.3887ZM61.7467 15.29C61.7467 16.1722 61.5204 16.8607 61.068 17.3555C60.6155 17.8503 59.9856 18.0977 59.1783 18.0977C58.6738 18.0977 58.2278 17.9837 57.8404 17.7559C57.4531 17.528 57.1552 17.2008 56.9469 16.7744C56.7385 16.348 56.6344 15.8532 56.6344 15.29C56.6344 14.4144 56.859 13.7308 57.3082 13.2393C57.7574 12.7477 58.3906 12.502 59.2076 12.502C59.9889 12.502 60.6074 12.7542 61.0631 13.2588C61.5188 13.7601 61.7467 14.4372 61.7467 15.29ZM57.816 15.29C57.816 16.5368 58.2766 17.1602 59.1979 17.1602C60.1093 17.1602 60.565 16.5368 60.565 15.29C60.565 14.0563 60.1061 13.4395 59.1881 13.4395C58.7063 13.4395 58.3564 13.599 58.1383 13.918C57.9234 14.237 57.816 14.6943 57.816 15.29ZM65.1477 18.0977C64.3306 18.0977 63.7089 17.86 63.2824 17.3848C62.8592 16.9062 62.6477 16.221 62.6477 15.3291C62.6477 14.4209 62.869 13.7227 63.3117 13.2344C63.7577 12.7461 64.4006 12.502 65.2404 12.502C65.8101 12.502 66.3228 12.6077 66.7785 12.8193L66.4318 13.7422C65.9468 13.5534 65.5464 13.459 65.2307 13.459C64.2964 13.459 63.8293 14.0791 63.8293 15.3193C63.8293 15.9248 63.9449 16.3805 64.176 16.6865C64.4104 16.9893 64.7521 17.1406 65.2014 17.1406C65.7124 17.1406 66.1958 17.0137 66.6516 16.7598V17.7607C66.4465 17.8812 66.2268 17.9674 65.9924 18.0195C65.7613 18.0716 65.4797 18.0977 65.1477 18.0977ZM71.8787 12.5996V13.498H70.1209V18H68.9686V13.498H67.2107V12.5996H71.8787ZM71.9984 12.5996H73.2484L74.3471 15.6611C74.5131 16.0973 74.6238 16.5075 74.6791 16.8916H74.7182C74.7475 16.7126 74.8012 16.4961 74.8793 16.2422C74.9574 15.985 75.3708 14.7708 76.1195 12.5996H77.3598L75.0502 18.7178C74.6303 19.8408 73.9304 20.4023 72.9506 20.4023C72.6967 20.4023 72.4493 20.3747 72.2084 20.3193V19.4111C72.3809 19.4502 72.5779 19.4697 72.7992 19.4697C73.3526 19.4697 73.7416 19.1491 73.9662 18.5078L74.1664 18L71.9984 12.5996ZM82.8018 12.5996V18H81.6494V13.5078H79.2275V18H78.0801V12.5996H82.8018ZM85.4947 12.5996V14.7676H88.0387V12.5996H89.1861V18H88.0387V15.6709H85.4947V18H84.3473V12.5996H85.4947ZM95.5217 15.29C95.5217 16.1722 95.2954 16.8607 94.843 17.3555C94.3905 17.8503 93.7606 18.0977 92.9533 18.0977C92.4488 18.0977 92.0028 17.9837 91.6154 17.7559C91.2281 17.528 90.9302 17.2008 90.7219 16.7744C90.5135 16.348 90.4094 15.8532 90.4094 15.29C90.4094 14.4144 90.634 13.7308 91.0832 13.2393C91.5324 12.7477 92.1656 12.502 92.9826 12.502C93.7639 12.502 94.3824 12.7542 94.8381 13.2588C95.2938 13.7601 95.5217 14.4372 95.5217 15.29ZM91.591 15.29C91.591 16.5368 92.0516 17.1602 92.9729 17.1602C93.8843 17.1602 94.34 16.5368 94.34 15.29C94.34 14.0563 93.8811 13.4395 92.9631 13.4395C92.4813 13.4395 92.1314 13.599 91.9133 13.918C91.6984 14.237 91.591 14.6943 91.591 15.29ZM103.93 13.9814C103.93 14.6195 103.557 15.0052 102.812 15.1387V15.1777C103.229 15.2266 103.548 15.3584 103.769 15.5732C103.99 15.7881 104.101 16.0664 104.101 16.4082C104.101 16.9193 103.906 17.3132 103.515 17.5898C103.128 17.8633 102.563 18 101.821 18H99.2426V12.5996H101.811C103.224 12.5996 103.93 13.0602 103.93 13.9814ZM102.924 16.3398C102.924 16.0794 102.823 15.8955 102.621 15.7881C102.42 15.6774 102.117 15.6221 101.713 15.6221H100.39V17.1504H101.743C102.53 17.1504 102.924 16.8802 102.924 16.3398ZM102.783 14.0791C102.783 13.8643 102.698 13.7096 102.529 13.6152C102.363 13.5176 102.114 13.4688 101.782 13.4688H100.39V14.7676H101.611C101.995 14.7676 102.286 14.7188 102.485 14.6211C102.683 14.5202 102.783 14.3395 102.783 14.0791Z" fill="white"/>
<path fill-rule="evenodd" clip-rule="evenodd" d="M78.6 38.8C78.1 38.4 77.7 37.7 77.5 37.3L79.1 36.6C79.2 36.8 79.4 37.1 79.6 37.4C80 37.8 80.6 38.2 81.2 38.2C81.8 38.2 82.5 37.9 82.9 37.4C83.2 36.9 83.4 36.4 83.4 35.7V35C82.2 36.5 79.7 36.3 78.3 34.7C76.8 33.1 76.8 30.4 78.3 28.8C79.8 27.3 82 27.1 83.3 28.5V27.9H85V35.5C85 37.4 84.3 38.5 83.4 39.2C82.8 39.7 81.9 39.9 81.1 39.9C80.2 39.8 79.3 39.5 78.6 38.8ZM120.5 39.3L122.2 35.3L119.2 28.4H120.9L123 33.3L125.1 28.4H126.8L122.2 39.3H120.5ZM112.4 35.5C111.9 35 111.7 34.3 111.7 33.6C111.7 33 111.9 32.4 112.3 32C113 31.3 114 31 115.1 31C115.8 31 116.4 31.1 116.9 31.4C116.9 30.2 115.9 29.7 115.1 29.7C114.4 29.7 113.7 30.1 113.4 30.8L111.9 30.2C112.2 29.5 113 28.2 115 28.2C116 28.2 117 28.5 117.6 29.2C118.2 29.9 118.4 30.7 118.4 31.8V36H116.7V35.3C116.5 35.6 116.1 35.8 115.8 36C115.4 36.2 114.9 36.3 114.4 36.3C113.8 36.2 112.9 36 112.4 35.5ZM59.1 31.8C59.1 29.8 60.6 27.6 63.3 27.6C65.9 27.6 67.5 29.8 67.5 31.8C67.5 33.8 66 36 63.3 36C60.6 36 59.1 33.8 59.1 31.8ZM68.1 31.8C68.1 29.8 69.6 27.6 72.3 27.6C74.9 27.6 76.5 29.8 76.5 31.8C76.5 33.8 75 36 72.3 36C69.7 36 68.1 33.8 68.1 31.8ZM47.9 34.1C45.4 31.6 45.5 27.5 48 24.9C49.2 23.6 50.9 23 52.5 23C54.1 23 55.7 23.6 56.9 24.8L55.7 26.1C53.9 24.3 51 24.3 49.3 26.2C47.5 28 47.4 31 49.2 32.8C51 34.7 54 34.8 55.8 32.9C56.4 32.3 56.6 31.5 56.7 30.7H52.5V28.9H58.4C58.5 29.3 58.5 29.8 58.5 30.3C58.5 31.8 57.9 33.3 56.9 34.3C55.8 35.5 54.2 36 52.6 36C50.9 36 49.1 35.3 47.9 34.1ZM90.1 34.8C88.6 33.2 88.6 30.5 90.1 28.8C91.6 27.2 94.1 27.2 95.5 28.8C96 29.3 96.3 30 96.6 30.7L91.1 33C91.4 33.7 92.1 34.3 93.1 34.3C94 34.3 94.6 34 95.2 33.1L96.7 34.1C96.5 34.3 96.3 34.5 96.2 34.7C94.5 36.4 91.6 36.4 90.1 34.8ZM100.5 36V24.9H104.1C106.2 24.9 107.9 26.4 107.9 28.2C107.9 30 106.4 31.5 104.5 31.5H102.3V36H100.5ZM108.9 36V24.9H110.6V36H108.9ZM86.3 35.8V23.4H88.1V35.8H86.3ZM116.9 32.7C116.5 32.4 115.9 32.3 115.3 32.3C114.1 32.3 113.4 32.9 113.4 33.6C113.4 34.3 114.1 34.7 114.8 34.7C115.7 34.7 116.9 33.9 116.9 32.7ZM65.6 31.8C65.6 30.6 64.8 29.3 63.3 29.3C61.8 29.3 61 30.6 61 31.8C61 33 61.8 34.3 63.3 34.3C64.8 34.4 65.6 33 65.6 31.8ZM74.6 31.8C74.6 30.6 73.8 29.3 72.3 29.3C70.8 29.3 70 30.6 70 31.8C70 33 70.8 34.3 72.3 34.3C73.8 34.4 74.6 33 74.6 31.8ZM83.5 32.6C83.5 32.5 83.5 32.4 83.6 32.3C83.6 32.2 83.6 32 83.6 31.9C83.6 31.8 83.6 31.6 83.6 31.5V31.4C83.6 31.3 83.5 31.1 83.5 31C83.2 30 82.3 29.3 81.4 29.3C80.2 29.3 79.2 30.5 79.2 31.8C79.2 33.2 80.2 34.3 81.5 34.3C82.3 34.4 83.1 33.7 83.5 32.6ZM90.8 31.7L94.5 30.1C94.1 29.4 93.5 29.2 93 29.2C91.5 29.3 90.6 30.9 90.8 31.7ZM106.1 28.3C106.1 27.3 105.3 26.6 104.2 26.6H102.2V30.1H104.3C105.3 30.1 106.1 29.3 106.1 28.3Z" fill="white"/>
<path fill-rule="evenodd" clip-rule="evenodd" d="M16 24.6V14.1C16 13.5 16.5 13 17 13C17.5 13 17.7 13.1 18 13.3L37.3 23.9C37.7 24.1 37.9 24.4 37.9 24.7C37.9 25 37.7 25.3 37.3 25.5L18 36C17.8 36.1 17.5 36.3 17 36.3C16.5 36.3 16 35.8 16 35.2V24.6Z" fill="url(#paint0_linear)"/>
<path fill-rule="evenodd" clip-rule="evenodd" d="M28.5004 24.7L16.9004 13H17.0004C17.5004 13 17.7004 13.1 18.0004 13.3L32.2004 21L28.5004 24.7Z" fill="url(#paint1_linear)"/>
<path fill-rule="evenodd" clip-rule="evenodd" d="M32.1 28.3L28.5 24.7L32.2 21L37.3 23.8C37.7 24 37.9 24.3 37.9 24.6C37.9 24.9 37.7 25.2 37.3 25.4L32.1 28.3Z" fill="url(#paint2_linear)"/>
<path fill-rule="evenodd" clip-rule="evenodd" d="M17 36.3002L28.6 24.7002L32.2 28.3002L18 36.0002C17.7 36.1002 17.5 36.3002 17 36.3002Z" fill="url(#paint3_linear)"/>
<defs>
<linearGradient id="paint0_linear" x1="22.4933" y1="11.6095" x2="28.0915" y2="34.6004" gradientUnits="userSpaceOnUse">
<stop stop-color="#006884"/>
<stop offset="1" stop-color="#8AD1D0"/>
</linearGradient>
<linearGradient id="paint1_linear" x1="15.667" y1="14.8797" x2="30.923" y2="23.1272" gradientUnits="userSpaceOnUse">
<stop stop-color="#24BBB6"/>
<stop offset="1" stop-color="#DBE692"/>
</linearGradient>
<linearGradient id="paint2_linear" x1="33.2203" y1="28.656" x2="33.2203" y2="20.7076" gradientUnits="userSpaceOnUse">
<stop stop-color="#FCC072"/>
<stop offset="1" stop-color="#F58A5B"/>
</linearGradient>
<linearGradient id="paint3_linear" x1="18.6206" y1="38.3053" x2="30.6723" y2="26.04" gradientUnits="userSpaceOnUse">
<stop stop-color="#712B8F"/>
<stop offset="1" stop-color="#EA1D27"/>
</linearGradient>
</defs>
</svg>
