<svg width="19" height="19" viewBox="0 0 19 19" fill="none" xmlns="http://www.w3.org/2000/svg">
<path d="M9.44538 18.3332C8.12465 18.3332 6.80648 18.3332 5.48576 18.3332C3.15086 18.3332 1.18638 16.7724 0.67546 14.4962C0.601377 14.1718 0.563058 13.832 0.563058 13.4974C0.55284 10.7946 0.555394 8.08931 0.557949 5.38655C0.560504 3.06698 2.31295 1.00542 4.60442 0.632452C4.8982 0.583915 5.19709 0.558369 5.49342 0.558369C8.15275 0.55326 10.8146 0.555814 13.474 0.555814C15.8548 0.555814 17.9266 2.34403 18.2766 4.69936C18.3124 4.94716 18.3302 5.20006 18.3302 5.45041C18.3354 8.11996 18.3328 10.7895 18.3328 13.4565C18.3328 15.8502 16.5574 17.9168 14.1918 18.2745C13.944 18.3128 13.6911 18.3281 13.4408 18.3307C12.1098 18.3358 10.7789 18.3332 9.44538 18.3332ZM9.45049 1.88676C8.13998 1.88676 6.82692 1.88676 5.51641 1.88676C5.34526 1.88676 5.1741 1.89187 5.00805 1.91486C3.20962 2.14988 1.89145 3.64687 1.88889 5.46574C1.88378 8.11741 1.88378 10.7691 1.88889 13.4233C1.88889 13.643 1.90677 13.8678 1.9502 14.0824C2.28741 15.8195 3.73075 17.0048 5.50364 17.0048C8.13487 17.0048 10.7661 17.0048 13.3973 17.0048C13.5634 17.0048 13.7294 16.9972 13.8929 16.9767C15.7041 16.7289 17.0044 15.2396 17.007 13.408C17.0095 10.7691 17.007 8.13018 17.007 5.48873C17.007 5.1081 16.9559 4.73513 16.8384 4.36982C16.3556 2.88049 15.0042 1.89187 13.4382 1.88676C12.1073 1.88165 10.7789 1.88676 9.45049 1.88676Z" fill="black"/>
<path d="M14.1868 9.45157C14.1791 12.07 12.0409 14.2006 9.43267 14.1878C6.81677 14.175 4.69646 12.047 4.70412 9.44135C4.71179 6.82289 6.84998 4.69236 9.45822 4.70514C12.0741 4.71791 14.1944 6.84588 14.1868 9.45157ZM6.03762 9.44646C6.04017 11.3266 7.5576 12.8466 9.44034 12.8517C11.3205 12.8568 12.8533 11.3266 12.8533 9.4439C12.8533 7.56372 11.3333 6.04374 9.45056 6.03863C7.57038 6.03352 6.03762 7.56372 6.03762 9.44646Z" fill="black"/>
<path d="M14.3526 5.44011C13.8367 5.42989 13.4382 5.01356 13.4484 4.50018C13.4587 3.98168 13.8775 3.58323 14.4011 3.596C14.9069 3.60622 15.3053 4.03276 15.2925 4.54871C15.2849 5.05188 14.8634 5.45033 14.3526 5.44011Z" fill="black"/>
</svg>
