<svg width="346" height="320" viewBox="0 0 346 320" fill="none" xmlns="http://www.w3.org/2000/svg">
<path d="M87.7445 102.043L4.99935 291.368L98.3655 207.987L98.0806 277.217L269.113 146.111L214.132 58.9998L116.784 187.11L87.7445 102.043Z" fill="#FFB800"/>
<path d="M251.313 213.3C250.713 213 250.113 212.6 249.513 212C242.513 205.3 235.013 199.1 226.913 193.6C224.713 193.5 222.513 193.1 220.413 192.4C218.013 191.6 215.613 191 213.213 190.4C208.313 190 203.413 190 198.513 190.4C186.113 192.3 174.113 196 162.313 200.5C152.713 204.5 143.313 208.9 134.013 213.6C132.013 214.6 130.013 215.7 128.113 216.9C127.513 217.4 127.013 217.9 126.813 218C123.513 221 120.613 224.3 117.713 227.7C117.113 228.5 116.413 229.4 115.813 230.2C114.313 232.1 112.913 234.1 111.413 236C107.013 241.9 102.413 247.8 97.6127 253.4C89.8127 262.5 80.1127 270.7 69.3127 275.9C69.0127 276 68.8127 276.1 68.5127 276.3L82.0127 299.7C106.013 294.4 130.413 290.4 154.413 285C160.213 282.3 165.913 279.5 171.713 276.9C180.513 272.9 189.313 268.9 198.113 265.2C207.313 261.4 216.513 257.5 226.313 256C239.213 254 251.713 253.7 264.313 257.7C260.113 242.8 256.413 227.8 251.313 213.3ZM203.313 229.9C202.413 232.2 201.113 234.2 198.913 235.3C198.213 235.7 197.313 236 196.513 236.2C196.313 236.2 196.113 236.3 196.013 236.3C195.113 236.6 194.213 236.8 193.313 236.8C192.713 236.7 192.113 236.6 191.413 236.5C189.613 236.1 188.213 234.7 187.313 233.2C186.513 231.9 186.213 230 186.613 228.4C186.513 227.9 186.513 227.5 186.513 227C186.513 225.3 187.413 223.3 188.613 222.1C189.913 220.8 191.813 220.2 193.613 220.1C193.813 220.1 194.113 220.1 194.313 220.1C194.813 220 195.313 220 195.713 220C196.313 220 197.113 220.1 197.813 220.3C198.513 220.5 198.913 220.6 199.713 221.1C202.413 222.8 204.513 226.5 203.313 229.9Z" fill="#3DDCDC"/>
<path d="M257.412 223C262.712 219.7 268.212 215.3 269.912 210.8C273.412 201.7 283.012 220.5 278.612 233C276.512 239 269.812 245 263.412 249.6" fill="white"/>
<path d="M257.412 223C262.712 219.7 268.212 215.3 269.912 210.8C273.412 201.7 283.012 220.5 278.612 233C276.512 239 269.812 245 263.412 249.6" stroke="black" stroke-width="2" stroke-miterlimit="10"/>
<path d="M262.413 248.7C255.613 329.5 119.313 325.4 91.0126 308.9C48.6126 282.8 72.6126 249.9 69.7126 249.9L74.5126 249.8C74.5126 249.8 66.9126 265.4 85.7126 266.7C112.513 266 102.313 213.6 172.413 191.9C242.513 170.2 262.813 236.4 262.813 236.4L269.713 241.6L270.013 244.6L264.013 249C264.013 249 239.013 233.2 204.713 259.5C185.913 274.1 175.413 255.6 175.413 255.6" stroke="black" stroke-width="2" stroke-miterlimit="10"/>
<path d="M203.212 228.1C203.812 234.1 199.612 235 194.412 235.5C189.212 236.1 184.912 236.1 184.212 230.1C183.512 224.1 187.312 218.8 192.512 218.2C197.812 217.7 202.612 222.1 203.212 228.1Z" stroke="black" stroke-width="2" stroke-miterlimit="10"/>
<path d="M196.769 230.673C199.13 230.417 200.837 228.296 200.582 225.935C200.326 223.574 198.205 221.867 195.844 222.122C193.483 222.378 191.776 224.499 192.032 226.86C192.287 229.221 194.408 230.928 196.769 230.673Z" fill="black"/>
<path d="M193.649 228.19C194.857 228.059 195.731 226.974 195.6 225.766C195.47 224.558 194.384 223.685 193.176 223.815C191.969 223.946 191.095 225.031 191.226 226.239C191.356 227.447 192.442 228.32 193.649 228.19Z" fill="white"/>
<path d="M188.412 268.5C188.512 269.2 152.412 304.6 106.112 299.8C62.6123 291.6 69.5123 262.8 69.7123 249.9" stroke="black" stroke-width="2" stroke-miterlimit="10"/>
<path d="M199.212 211.8C199.212 211.8 192.712 204.5 181.412 212.2" stroke="black" stroke-width="2" stroke-miterlimit="10"/>
<path d="M73.3124 249.8C76.3124 249.8 91.8124 250.3 100.112 241.6C109.412 231.9 112.312 219.8 110.312 218.7C105.812 216.6 106.812 225.3 96.9124 223.4C88.4124 223.2 80.5124 218.1 75.7124 224.8C75.0124 216.5 65.6124 216.9 58.2124 212.8C48.7124 209.4 54.0124 202.4 49.1124 201.9C46.8124 201.9 42.7124 214 46.2124 226.9C49.9124 240.2 74.6124 253 69.4124 250.9" stroke="black" stroke-width="2" stroke-miterlimit="10" stroke-linecap="round" stroke-linejoin="round"/>
<path d="M148.312 267.8C148.312 267.8 123.512 264.5 113.212 255.2C102.912 245.9 105.712 266.4 112.012 274.7C118.312 283.1 130.112 289.2 130.112 289.2" stroke="black" stroke-width="2" stroke-miterlimit="10"/>
<path d="M246.912 257.2C246.912 257.2 240.112 308.9 163.412 318" stroke="black" stroke-width="2" stroke-miterlimit="10"/>
<path d="M227.413 261.4C227.413 261.4 212.213 310.3 148.013 318.5" stroke="black" stroke-width="2" stroke-miterlimit="10"/>
<path d="M198.712 274.4C198.712 274.4 171.612 317.2 123.612 317.3" stroke="black" stroke-width="2" stroke-miterlimit="10"/>
<path d="M254.812 220.3C252.712 221.6 247.212 225.2 245.112 221.3C243.012 217.5 244.312 207.3 247.512 209.6" fill="white"/>
<path d="M254.812 220.3C252.712 221.6 247.212 225.2 245.112 221.3C243.012 217.5 244.312 207.3 247.512 209.6" stroke="black" stroke-width="2" stroke-miterlimit="10"/>
<path d="M250.222 217.787C251.815 217.615 252.966 216.185 252.794 214.592C252.622 213 251.191 211.849 249.599 212.021C248.007 212.193 246.855 213.624 247.028 215.216C247.2 216.808 248.63 217.96 250.222 217.787Z" fill="black"/>
<path d="M248.474 214.79C249.298 214.701 249.893 213.961 249.804 213.138C249.715 212.314 248.975 211.718 248.151 211.807C247.328 211.897 246.732 212.636 246.821 213.46C246.91 214.284 247.65 214.879 248.474 214.79Z" fill="white"/>
<path d="M179.513 252.8C178.613 253.9 171.913 254.9 171.513 260L179.513 252.8Z" fill="white"/>
<path d="M179.513 252.8C178.613 253.9 171.913 254.9 171.513 260" stroke="black" stroke-width="2" stroke-miterlimit="10"/>
<path d="M189.497 174.995C192.901 174.626 195.363 171.568 194.995 168.164C194.626 164.76 191.568 162.298 188.164 162.667C184.76 163.035 182.298 166.093 182.666 169.497C183.035 172.901 186.093 175.363 189.497 174.995Z" fill="white" stroke="black" stroke-width="2" stroke-miterlimit="10" stroke-linejoin="round"/>
<path d="M264.539 203.169C267.23 202.878 269.175 200.461 268.884 197.77C268.593 195.08 266.176 193.135 263.486 193.426C260.795 193.717 258.85 196.133 259.141 198.824C259.432 201.514 261.849 203.46 264.539 203.169Z" fill="white" stroke="black" stroke-width="2" stroke-miterlimit="10" stroke-linejoin="round"/>
<path d="M58.812 213.1C58.812 213.1 58.412 227 64.512 234.5" stroke="black" stroke-width="2" stroke-miterlimit="10" stroke-linecap="round" stroke-linejoin="round"/>
<path d="M91.6127 222.8C91.6127 222.8 85.0127 238.3 77.0127 242.9" stroke="black" stroke-width="2" stroke-miterlimit="10" stroke-linecap="round" stroke-linejoin="round"/>
<path d="M275.412 241.9V252.7H298.812C298.712 253.2 298.712 253.8 298.712 254.3C298.712 260.4 303.712 265.4 309.812 265.4C315.912 265.4 320.912 260.4 320.912 254.3C320.912 253.7 320.812 253.2 320.812 252.7H344.212V233.3C338.612 232.7 334.312 228 334.312 222.3C334.312 216.6 338.712 211.9 344.212 211.3V191.9H320.812C320.812 191.5 320.912 191.2 320.912 190.8C320.912 184.7 315.912 179.7 309.812 179.7C303.712 179.7 298.712 184.7 298.712 190.8C298.712 191.2 298.712 191.5 298.812 191.9H275.412V206.6" stroke="black" stroke-width="2" stroke-miterlimit="10" stroke-linejoin="round"/>
<path d="M318.713 121.9C318.813 121.5 318.813 121.1 318.813 120.6C318.813 115.3 314.513 111 309.213 111C303.913 111 299.613 115.3 299.613 120.6C299.613 121 299.613 121.4 299.713 121.9H279.413V144.2H279.313C274.413 144.2 270.513 148.1 270.513 153C270.513 157.9 274.413 161.8 279.313 161.8H279.413V182.5H294.513C297.413 173.2 304.413 171.3 309.313 171.3C314.613 171.2 321.313 173.9 323.813 182.5H344.313V121.9H318.713Z" stroke="black" stroke-width="2" stroke-miterlimit="10" stroke-linejoin="round"/>
<path d="M212.812 144C212.412 143.9 212.012 143.9 211.512 143.9C206.212 143.9 201.912 148.2 201.912 153.5C201.912 158.8 206.212 163.1 211.512 163.1C211.912 163.1 212.312 163.1 212.812 163V182.6H235.112V182.7C235.112 187.6 239.012 191.5 243.912 191.5C248.812 191.5 252.712 187.6 252.712 182.7V182.6H273.412V164.4C268.212 163.2 264.312 157.7 264.412 152.7C264.312 146.7 268.212 142.5 273.412 141.1V122.9H212.812V144V144Z" stroke="black" stroke-width="2" stroke-miterlimit="10" stroke-linejoin="round"/>
<path d="M335.112 176.5V129.5" stroke="black" stroke-width="2" stroke-miterlimit="10" stroke-linejoin="round"/>
<path d="M94.7312 93.7453H17.1853C7.62484 93.7453 0.0371712 85.3976 1.09944 75.8356L4.58977 24.3832C5.34854 16.1872 12.3292 9.96436 20.6756 9.96436H229.792C239.352 9.96436 246.788 18.1603 245.878 27.5705L243.298 79.0229C242.539 87.3707 235.558 93.7453 227.212 93.7453H128.572H123.413C129.179 121.976 137.374 140.341 155.584 161.286C131.152 166.295 105.354 136.85 95.49 93.7453H94.7312Z" fill="black" stroke="black" stroke-width="2" stroke-miterlimit="10"/>
<path d="M95.7312 84.781H18.1853C8.62484 84.781 1.03717 76.4332 2.09944 66.8713L5.58977 15.4188C6.34854 7.22286 13.3292 1 21.6756 1H230.792C240.352 1 247.788 9.19597 246.878 18.6061L244.298 70.0586C243.539 78.4063 236.558 84.781 228.212 84.781H129.572H124.413C130.179 113.012 138.374 131.377 156.584 152.322C132.152 157.33 106.354 127.886 96.49 84.781H95.7312Z" fill="white" stroke="black" stroke-width="2" stroke-miterlimit="10"/>
<path d="M41.4502 54.0635L43.3789 40.5991H43.208C42.7523 41.0955 42.2559 41.6978 41.7188 42.4058C41.1816 43.1138 40.6201 43.8747 40.0342 44.6885C39.4564 45.5023 38.8623 46.3486 38.252 47.2275C37.6497 48.0983 37.0516 48.9528 36.4575 49.791C35.8634 50.6211 35.2816 51.4064 34.7119 52.147C34.1423 52.8794 33.6051 53.5182 33.1006 54.0635H30.1831L32.5757 37.0591H35.0293L33.0884 50.5967H33.2471C33.6377 50.1654 34.0934 49.5957 34.6143 48.8877C35.1432 48.1797 35.7048 47.4025 36.2988 46.5562C36.901 45.7017 37.5195 44.8146 38.1543 43.895C38.7972 42.9673 39.4238 42.0762 40.0342 41.2217C40.6527 40.359 41.2386 39.5656 41.792 38.8413C42.3535 38.117 42.854 37.5229 43.2935 37.0591H46.2842L43.8916 54.0635H41.4502ZM47.8589 54.0635L49.5923 41.7222H51.9482L51.228 46.8125H57.771L58.4912 41.7222H60.8472L59.1138 54.0635H56.7578L57.5024 48.7656H50.9595L50.2148 54.0635H47.8589ZM62.5317 43.6875L62.8125 41.7222H73.8232L73.5425 43.6875H69.209L67.7563 54.0635H65.4004L66.853 43.6875H62.5317ZM76.3257 48.9365C76.3175 49.4818 76.3745 49.966 76.4966 50.3892C76.6268 50.8123 76.8302 51.1704 77.1069 51.4634C77.3918 51.7563 77.758 51.9801 78.2056 52.1348C78.6613 52.2812 79.2065 52.3545 79.8413 52.3545C80.4272 52.3545 80.9969 52.265 81.5503 52.0859C82.1118 51.8988 82.6245 51.6872 83.0884 51.4512L83.5889 53.1113C83.2308 53.2985 82.8768 53.4653 82.5269 53.6118C82.1769 53.7502 81.8188 53.8722 81.4526 53.978C81.0946 54.0757 80.7243 54.1489 80.3418 54.1978C79.9674 54.2547 79.5687 54.2832 79.1455 54.2832C77.4609 54.2832 76.1914 53.8356 75.3369 52.9404C74.4824 52.0371 74.0552 50.7269 74.0552 49.0098C74.0552 47.8053 74.222 46.7352 74.5557 45.7993C74.8893 44.8553 75.3532 44.0618 75.9473 43.4189C76.5495 42.776 77.2616 42.2878 78.0835 41.9541C78.9054 41.6204 79.8047 41.4536 80.7812 41.4536C81.416 41.4536 82.002 41.5472 82.5391 41.7344C83.0762 41.9134 83.536 42.1657 83.9185 42.4912C84.3091 42.8167 84.6102 43.1992 84.8218 43.6387C85.0415 44.0781 85.1514 44.5583 85.1514 45.0791C85.1514 45.5592 85.0781 46.0312 84.9316 46.4951C84.7933 46.9508 84.5451 47.3618 84.187 47.728C83.8371 48.0861 83.361 48.3791 82.7588 48.6069C82.1566 48.8267 81.3916 48.9365 80.4639 48.9365H76.3257ZM80.415 43.4067C79.9186 43.4067 79.4629 43.5003 79.0479 43.6875C78.641 43.8665 78.2747 44.1188 77.9492 44.4443C77.6237 44.7617 77.347 45.1401 77.1191 45.5796C76.8913 46.019 76.7122 46.491 76.582 46.9956H80.3662C80.7568 46.9956 81.1027 46.9793 81.4038 46.9468C81.7049 46.9061 81.9613 46.8288 82.1729 46.7148C82.3844 46.6009 82.5431 46.4382 82.6489 46.2266C82.7629 46.015 82.8198 45.7342 82.8198 45.3843C82.8198 45.0343 82.7466 44.7373 82.6001 44.4932C82.4536 44.2409 82.2624 44.0374 82.0264 43.8828C81.7985 43.7201 81.5422 43.6021 81.2573 43.5288C80.9725 43.4474 80.6917 43.4067 80.415 43.4067ZM88.2642 43.3213C88.5164 43.1504 88.8542 42.9591 89.2773 42.7476C89.7005 42.536 90.1685 42.3366 90.6812 42.1494C91.1938 41.9622 91.7269 41.8035 92.2803 41.6733C92.8418 41.5431 93.3789 41.478 93.8916 41.478C94.6403 41.478 95.3076 41.5675 95.8936 41.7466C96.4795 41.9175 96.9759 42.1942 97.3828 42.5767C97.7897 42.9591 98.099 43.4596 98.3105 44.0781C98.5221 44.6885 98.6279 45.4331 98.6279 46.312C98.6279 46.9712 98.5669 47.6304 98.4448 48.2896C98.3309 48.9406 98.1559 49.5632 97.9199 50.1572C97.6839 50.7432 97.3828 51.2884 97.0166 51.793C96.6585 52.2975 96.2394 52.737 95.7593 53.1113C95.2791 53.4775 94.7339 53.7664 94.1235 53.978C93.5132 54.1815 92.8418 54.2832 92.1094 54.2832C91.6943 54.2832 91.3363 54.2669 91.0352 54.2344C90.734 54.2018 90.4696 54.1611 90.2417 54.1123C90.0138 54.0635 89.8145 54.0106 89.6436 53.9536C89.4727 53.8885 89.3058 53.8275 89.1431 53.7705L88.4473 58.7388H86.0913L88.2642 43.3213ZM89.4116 51.8662C89.55 51.915 89.6965 51.9679 89.8511 52.0249C90.0138 52.0819 90.1929 52.1307 90.3882 52.1714C90.5835 52.2121 90.8032 52.2487 91.0474 52.2812C91.2915 52.3057 91.5682 52.3179 91.8774 52.3179C92.4227 52.3179 92.911 52.2365 93.3423 52.0737C93.7736 51.9028 94.152 51.675 94.4775 51.3901C94.8112 51.1053 95.092 50.7757 95.3198 50.4014C95.5558 50.027 95.7471 49.6364 95.8936 49.2295C96.04 48.8145 96.1458 48.3953 96.2109 47.9722C96.2842 47.5409 96.3208 47.134 96.3208 46.7515C96.3208 46.1818 96.2557 45.6895 96.1255 45.2744C96.0034 44.8594 95.8244 44.5176 95.5884 44.249C95.3524 43.9805 95.0635 43.7852 94.7217 43.6631C94.388 43.5329 94.0096 43.4678 93.5864 43.4678C93.2772 43.4678 92.9679 43.5044 92.6587 43.5776C92.3494 43.6509 92.0565 43.7445 91.7798 43.8584C91.5031 43.9642 91.2508 44.0781 91.0229 44.2002C90.7951 44.3141 90.6038 44.4199 90.4492 44.5176L89.4116 51.8662ZM100.459 49.2295C100.459 47.9518 100.646 46.8288 101.021 45.8604C101.403 44.8919 101.92 44.0822 102.571 43.4312C103.222 42.7801 103.983 42.2878 104.854 41.9541C105.732 41.6204 106.668 41.4536 107.661 41.4536C108.133 41.4536 108.585 41.4862 109.016 41.5513C109.447 41.6164 109.85 41.7018 110.225 41.8076C110.607 41.9053 110.961 42.0233 111.287 42.1616C111.62 42.2918 111.925 42.4261 112.202 42.5645L110.591 54.0635H108.564L108.442 52.8672C108.166 53.0544 107.889 53.2334 107.612 53.4043C107.336 53.5752 107.039 53.7257 106.721 53.856C106.412 53.9862 106.074 54.0879 105.708 54.1611C105.35 54.2425 104.951 54.2832 104.512 54.2832C103.91 54.2832 103.356 54.1815 102.852 53.978C102.355 53.7664 101.928 53.4491 101.57 53.0259C101.22 52.6027 100.947 52.0778 100.752 51.4512C100.557 50.8164 100.459 50.0758 100.459 49.2295ZM102.791 48.8633C102.791 50.0433 103.031 50.9141 103.511 51.4756C103.999 52.0371 104.65 52.3179 105.464 52.3179C105.765 52.3179 106.066 52.2894 106.367 52.2324C106.668 52.1755 106.957 52.0981 107.234 52.0005C107.511 51.8947 107.771 51.7767 108.015 51.6465C108.259 51.5081 108.475 51.3576 108.662 51.1948L109.688 43.8828C109.622 43.8503 109.517 43.8096 109.37 43.7607C109.224 43.7038 109.049 43.6509 108.845 43.6021C108.642 43.5532 108.414 43.5125 108.162 43.48C107.917 43.4393 107.657 43.4189 107.38 43.4189C106.729 43.4189 106.123 43.5369 105.562 43.7729C105.008 44.009 104.524 44.3589 104.109 44.8228C103.702 45.2866 103.381 45.8563 103.145 46.5317C102.909 47.2072 102.791 47.9844 102.791 48.8633ZM114.241 54.0635L115.974 41.7222H118.33L117.573 47.1177C117.785 47.0363 118.009 46.9427 118.245 46.8369C118.481 46.7311 118.729 46.605 118.989 46.4585C119.258 46.3039 119.543 46.1208 119.844 45.9092C120.145 45.6976 120.466 45.4453 120.808 45.1523C121.117 44.8838 121.398 44.603 121.65 44.3101C121.903 44.009 122.135 43.7078 122.346 43.4067C122.566 43.1056 122.761 42.8127 122.932 42.5278C123.111 42.2349 123.274 41.9663 123.42 41.7222H125.972C125.638 42.3081 125.312 42.8452 124.995 43.3335C124.678 43.8218 124.348 44.2816 124.006 44.7129C123.665 45.1361 123.298 45.543 122.908 45.9336C122.525 46.3161 122.098 46.6986 121.626 47.0811C121.927 47.4229 122.232 47.8298 122.542 48.3018C122.851 48.7738 123.176 49.3394 123.518 49.9985C123.925 50.7961 124.234 51.5407 124.446 52.2324C124.666 52.9242 124.849 53.5345 124.995 54.0635H122.236C122.122 53.6159 121.988 53.1317 121.833 52.6108C121.679 52.09 121.447 51.4919 121.138 50.8164C120.853 50.1979 120.564 49.6893 120.271 49.2905C119.978 48.8836 119.734 48.5744 119.539 48.3628C119.132 48.5907 118.749 48.7819 118.391 48.9365C118.041 49.083 117.663 49.2254 117.256 49.3638L116.597 54.0635H114.241ZM127.229 43.6875L127.51 41.7222H138.521L138.24 43.6875H133.906L132.454 54.0635H130.098L131.55 43.6875H127.229ZM146.663 54.0635L147.932 45.189H147.81C147.501 45.5145 147.167 45.9092 146.809 46.373C146.459 46.8369 146.089 47.3374 145.698 47.8745C145.316 48.4116 144.921 48.9731 144.514 49.5591C144.115 50.1369 143.717 50.7025 143.318 51.2559C142.927 51.8011 142.541 52.3179 142.158 52.8062C141.776 53.2944 141.414 53.7135 141.072 54.0635H138.679L140.413 41.7222H142.671L141.353 50.7432H141.462C141.739 50.4421 142.056 50.0555 142.415 49.5835C142.773 49.1034 143.147 48.5825 143.538 48.021C143.936 47.4513 144.343 46.8613 144.758 46.251C145.181 45.6406 145.592 45.0506 145.991 44.481C146.398 43.9113 146.785 43.3864 147.151 42.9062C147.525 42.4261 147.863 42.0314 148.164 41.7222H150.618L148.884 54.0635H146.663ZM152.766 54.0635L154.5 41.7222H159.736C160.322 41.7222 160.851 41.7791 161.323 41.8931C161.803 42.007 162.21 42.1779 162.544 42.4058C162.878 42.6336 163.134 42.9225 163.313 43.2725C163.5 43.6143 163.594 44.013 163.594 44.4688C163.594 44.8675 163.537 45.2297 163.423 45.5552C163.309 45.8726 163.15 46.1615 162.947 46.4219C162.751 46.6742 162.511 46.8979 162.227 47.0933C161.95 47.2804 161.645 47.4351 161.311 47.5571L161.299 47.6548C161.901 47.8175 162.369 48.1105 162.703 48.5337C163.036 48.9569 163.203 49.494 163.203 50.145C163.203 50.7879 163.089 51.3535 162.861 51.8418C162.642 52.3301 162.324 52.741 161.909 53.0747C161.494 53.4002 160.986 53.6484 160.383 53.8193C159.789 53.9821 159.118 54.0635 158.369 54.0635H152.766ZM155.366 52.3179H158.125C158.556 52.3179 158.943 52.2812 159.285 52.208C159.626 52.1348 159.915 52.0168 160.151 51.854C160.396 51.6831 160.579 51.4593 160.701 51.1826C160.831 50.9059 160.896 50.5601 160.896 50.145C160.896 49.5754 160.697 49.1603 160.298 48.8999C159.907 48.6395 159.354 48.5093 158.638 48.5093H155.903L155.366 52.3179ZM156.135 46.8613H158.552C158.967 46.8613 159.346 46.8206 159.688 46.7393C160.029 46.6579 160.322 46.5317 160.566 46.3608C160.811 46.1899 160.998 45.9743 161.128 45.7139C161.266 45.4535 161.335 45.1442 161.335 44.7861C161.335 44.5013 161.274 44.2694 161.152 44.0903C161.038 43.9113 160.876 43.7729 160.664 43.6753C160.461 43.5776 160.216 43.5125 159.932 43.48C159.647 43.4393 159.342 43.4189 159.016 43.4189H156.624L156.135 46.8613ZM165.364 54.0635L167.097 41.7222H169.453L168.733 46.8125H175.276L175.996 41.7222H178.352L176.619 54.0635H174.263L175.007 48.7656H168.464L167.72 54.0635H165.364ZM180.342 48.9731C180.342 47.842 180.5 46.8125 180.818 45.8848C181.135 44.957 181.591 44.1676 182.185 43.5166C182.779 42.8574 183.499 42.3488 184.346 41.9907C185.192 41.6326 186.144 41.4536 187.202 41.4536C187.869 41.4536 188.508 41.5472 189.119 41.7344C189.729 41.9215 190.266 42.2227 190.73 42.6377C191.202 43.0527 191.576 43.5898 191.853 44.249C192.138 44.9082 192.28 45.7139 192.28 46.666C192.28 47.8542 192.118 48.9202 191.792 49.8643C191.475 50.8083 191.015 51.6099 190.413 52.269C189.819 52.9201 189.094 53.4206 188.24 53.7705C187.393 54.1123 186.445 54.2832 185.396 54.2832C184.598 54.2832 183.886 54.1693 183.259 53.9414C182.633 53.7135 182.104 53.3758 181.672 52.9282C181.241 52.4806 180.911 51.9272 180.684 51.2681C180.456 50.6089 180.342 49.8439 180.342 48.9731ZM182.649 48.79C182.649 49.4248 182.722 49.966 182.869 50.4136C183.015 50.853 183.219 51.2152 183.479 51.5C183.748 51.7848 184.069 51.9924 184.443 52.1226C184.818 52.2528 185.233 52.3179 185.688 52.3179C186.323 52.3179 186.901 52.208 187.422 51.9883C187.951 51.7686 188.403 51.4349 188.777 50.9873C189.151 50.5397 189.44 49.9782 189.644 49.3027C189.855 48.6191 189.961 47.8175 189.961 46.8979C189.961 46.3039 189.888 45.7912 189.741 45.3599C189.595 44.9204 189.387 44.5583 189.119 44.2734C188.858 43.9805 188.541 43.7648 188.167 43.6265C187.8 43.48 187.393 43.4067 186.946 43.4067C186.327 43.4067 185.754 43.5207 185.225 43.7485C184.704 43.9683 184.252 44.3019 183.87 44.7495C183.487 45.1971 183.186 45.7586 182.966 46.4341C182.755 47.1014 182.649 47.8867 182.649 48.79ZM194.319 49.0952C194.319 47.8013 194.486 46.6742 194.819 45.7139C195.161 44.7536 195.621 43.9601 196.199 43.3335C196.785 42.6987 197.472 42.2267 198.262 41.9175C199.051 41.6082 199.897 41.4536 200.801 41.4536C201.452 41.4536 202.099 41.5391 202.742 41.71C203.385 41.8727 204.019 42.1535 204.646 42.5522L203.706 44.1636C203.267 43.9113 202.807 43.7241 202.327 43.6021C201.855 43.4718 201.379 43.4067 200.898 43.4067C200.199 43.4067 199.58 43.5329 199.043 43.7852C198.514 44.0374 198.07 44.3996 197.712 44.8716C197.354 45.3354 197.082 45.9051 196.895 46.5806C196.715 47.2479 196.626 47.9966 196.626 48.8267C196.626 49.9334 196.874 50.792 197.371 51.4023C197.875 52.0127 198.648 52.3179 199.69 52.3179C200.219 52.3179 200.732 52.2487 201.228 52.1104C201.724 51.9639 202.205 51.7848 202.668 51.5732L203.157 53.1724C202.465 53.5386 201.773 53.8153 201.082 54.0024C200.398 54.1896 199.698 54.2832 198.982 54.2832C198.152 54.2832 197.44 54.1571 196.846 53.9048C196.26 53.6444 195.78 53.2863 195.405 52.8306C195.031 52.3748 194.754 51.8296 194.575 51.1948C194.404 50.5519 194.319 49.8521 194.319 49.0952ZM205.525 43.6875L205.806 41.7222H216.816L216.536 43.6875H212.202L210.75 54.0635H208.394L209.846 43.6875H205.525ZM219.636 52.3911H221.809C222.297 52.3911 222.712 52.3464 223.054 52.2568C223.396 52.1673 223.673 52.029 223.884 51.8418C224.104 51.6465 224.263 51.3983 224.36 51.0972C224.466 50.7961 224.519 50.4299 224.519 49.9985C224.519 49.4207 224.34 48.9894 223.982 48.7046C223.624 48.4116 223.05 48.2651 222.261 48.2651H220.222L219.636 52.3911ZM221.138 41.7222L220.454 46.6294H223.042C223.571 46.6294 224.063 46.7026 224.519 46.8491C224.975 46.9956 225.369 47.2113 225.703 47.4961C226.045 47.7728 226.309 48.1187 226.497 48.5337C226.692 48.9406 226.79 49.4045 226.79 49.9253C226.79 50.617 226.676 51.2233 226.448 51.7441C226.228 52.2568 225.911 52.6882 225.496 53.0381C225.081 53.3799 224.576 53.6362 223.982 53.8071C223.396 53.978 222.737 54.0635 222.004 54.0635H217.048L218.782 41.7222H221.138Z" fill="black"/>
</svg>
