<svg width="326" height="319" viewBox="0 0 326 319" fill="none" xmlns="http://www.w3.org/2000/svg">
<path d="M97.7445 118.043L14.9993 307.368L108.366 223.987L108.081 293.217L279.113 162.111L224.132 74.9998L126.784 203.11L97.7445 118.043Z" fill="#D771F1"/>
<path d="M94.7312 94.7824H17.1853C7.62484 94.7824 0.0371712 86.4347 1.09944 76.8727L4.58977 25.4203C5.34854 17.2243 12.3292 11.0015 20.6756 11.0015L182.5 11C192.06 11 199.496 19.196 198.586 28.6061L196.006 80.0586C195.247 88.4063 188.267 94.781 179.92 94.781L128.572 94.7824H123.413C129.179 123.013 137.374 141.378 155.584 162.323C131.152 167.332 105.354 137.887 95.49 94.7824H94.7312Z" fill="#1E1E1E"/>
<path d="M240.64 176.129C234.54 172.829 228.34 169.729 221.94 166.829C221.24 166.529 220.64 166.129 220.04 165.729L210.54 171.229C220.74 171.629 230.94 173.129 240.64 176.129Z" fill="#60B8B1"/>
<path d="M286.94 222.63C283.94 225.73 278.34 226.43 275.74 221.53C262.24 196.03 236.34 186.13 208.74 185.13C203.34 184.93 201.24 179.83 202.44 175.83L127.94 218.83C123.34 227.43 116.84 235.43 106.84 236.93C103.44 237.43 100.04 237.33 96.6401 236.83L84.6401 243.73C60.9401 249.23 74.9401 266.73 112.34 291.73C136.34 286.43 160.74 282.43 184.74 277.03C190.54 274.33 196.24 271.53 202.04 268.93C210.84 264.93 219.64 260.93 228.44 257.23C237.64 253.43 246.84 249.53 256.64 248.03C269.54 246.03 282.04 245.73 294.64 249.73C292.04 240.73 289.64 231.63 286.94 222.63ZM226.74 223.03C225.84 225.43 223.74 227.33 220.34 227.33C219.14 227.33 218.04 227.03 217.14 226.63C216.84 226.63 216.54 226.63 216.34 226.63C207.34 226.63 207.54 212.63 216.54 212.63C216.84 212.63 217.04 212.63 217.34 212.73C218.24 212.23 219.34 212.03 220.54 212.03C220.64 212.03 220.74 212.03 220.94 212.03C221.04 212.03 221.14 212.03 221.24 212.03C227.64 212.03 229.44 218.93 226.74 223.03Z" fill="#FF9900"/>
<path d="M279.74 220.829C285.34 218.029 291.34 214.329 293.54 210.029C298.04 201.329 305.44 221.029 299.74 233.029C297.04 238.729 289.74 244.029 282.84 247.929" fill="white"/>
<path d="M279.74 220.829C285.34 218.029 291.34 214.329 293.54 210.029C298.04 201.329 305.44 221.029 299.74 233.029C297.04 238.729 289.74 244.029 282.84 247.929" stroke="black" stroke-width="2" stroke-miterlimit="10"/>
<path d="M281.84 247.029C266.34 326.629 131.34 307.929 105.04 288.429C59.8401 261.929 73.4401 231.329 73.4401 231.329H76.5401C76.5401 231.329 80.4401 243.329 104.34 245.829C131.04 248.029 126.54 194.829 198.64 180.729C270.74 166.629 283.74 234.629 283.74 234.629L290.04 240.529V243.529L283.64 247.329C283.64 247.329 260.54 229.029 223.64 251.329C203.34 263.829 194.94 244.329 194.94 244.329" stroke="black" stroke-width="2" stroke-miterlimit="10"/>
<path d="M225.34 220.129C225.34 226.129 221.04 226.529 215.84 226.529C210.54 226.529 206.34 226.129 206.34 220.129C206.34 214.129 210.64 209.229 215.84 209.229C221.04 209.229 225.34 214.129 225.34 220.129Z" stroke="black" stroke-width="2" stroke-miterlimit="10"/>
<path d="M214.64 226.529C217.015 226.529 218.94 224.604 218.94 222.229C218.94 219.855 217.015 217.929 214.64 217.929C212.265 217.929 210.34 219.855 210.34 222.229C210.34 224.604 212.265 226.529 214.64 226.529Z" fill="black"/>
<path d="M210.34 223.23C211.555 223.23 212.54 222.245 212.54 221.03C212.54 219.815 211.555 218.83 210.34 218.83C209.125 218.83 208.14 219.815 208.14 221.03C208.14 222.245 209.125 223.23 210.34 223.23Z" fill="white"/>
<path d="M206.24 258.729C206.24 259.429 167.14 287.729 121.04 281.029C74.9404 274.329 71.4404 242.729 71.4404 242.729" stroke="black" stroke-width="2" stroke-miterlimit="10"/>
<path d="M223.04 203.529C223.04 203.529 217.34 195.629 205.34 202.029" stroke="black" stroke-width="2" stroke-miterlimit="10"/>
<path d="M79.84 236.129C83.34 235.229 101.74 231.529 108.74 220.529C116.54 208.329 116.04 195.429 113.34 194.829C107.34 193.929 111.44 202.429 99.14 203.229C89.14 205.429 78.14 202.429 74.64 210.529C71.14 202.429 60.24 205.429 50.14 203.229C37.84 202.429 41.94 193.929 35.94 194.829C33.24 195.429 32.24 208.729 40.54 220.529C49.14 232.829 76.64 238.029 69.94 237.429" stroke="black" stroke-width="2" stroke-miterlimit="10" stroke-linecap="round" stroke-linejoin="round"/>
<path d="M166.44 253.729C166.44 253.729 142.14 247.829 132.94 237.429C123.74 227.029 124.24 247.729 129.64 256.729C135.04 265.729 146.14 273.029 146.14 273.029" stroke="black" stroke-width="2" stroke-miterlimit="10"/>
<path d="M145.74 293.929C146.74 292.729 159.841 227.529 154.441 215.729C149.041 203.929 134.541 217.729 136.541 228.029L139.941 229.329C139.941 229.329 145.14 215.429 148.24 219.229C151.34 223.129 140.541 291.529 140.541 291.529L145.74 293.929Z" fill="white" stroke="black" stroke-width="2" stroke-miterlimit="10"/>
<path d="M247.44 228.93C247.44 228.93 230.14 220.33 223.54 233.73C216.94 247.03 212.14 246.63 210.34 244.83C210.34 244.83 215.74 254.13 227.74 242.73C239.74 231.33 241.84 230.13 247.04 233.03C252.24 235.93 247.44 228.93 247.44 228.93Z" fill="black"/>
<path d="M265.54 253.83C265.54 253.83 253.24 304.53 175.94 305.33" stroke="black" stroke-width="2" stroke-miterlimit="10"/>
<path d="M245.74 255.83C245.74 255.83 225.34 302.83 160.64 304.03" stroke="black" stroke-width="2" stroke-miterlimit="10"/>
<path d="M215.74 265.729C215.74 265.729 184.24 305.429 136.44 300.329" stroke="black" stroke-width="2" stroke-miterlimit="10"/>
<path d="M249.34 187.829C215.14 192.829 190.04 186.729 180.04 184.829L180.74 175.229C180.74 175.229 186.74 175.929 193.34 177.329C191.54 164.929 190.24 122.829 190.24 122.829C216.74 115.329 250.44 119.929 255.44 127.329L239.44 179.229L250.84 178.829L249.34 187.829Z" fill="white" stroke="black" stroke-width="2" stroke-miterlimit="10"/>
<path d="M269.94 230.329C269.94 230.329 275.74 223.129 283.34 227.929C290.24 231.029 289.64 247.229 302.54 244.329C302.54 244.329 300.54 249.729 291.34 248.329C282.14 246.929 281.44 230.629 275.34 232.629C272.44 234.329 267.04 234.929 267.04 234.929C267.04 233.129 267.74 231.529 269.94 230.329Z" fill="black"/>
<path d="M277.34 217.929C275.14 219.029 269.24 221.929 267.64 217.929C266.04 213.929 268.44 203.929 271.24 206.629" fill="white"/>
<path d="M277.34 217.929C275.14 219.029 269.24 221.929 267.64 217.929C266.04 213.929 268.44 203.929 271.24 206.629" stroke="black" stroke-width="2" stroke-miterlimit="10"/>
<path d="M270.24 217.729C271.841 217.729 273.14 216.431 273.14 214.829C273.14 213.228 271.841 211.929 270.24 211.929C268.638 211.929 267.34 213.228 267.34 214.829C267.34 216.431 268.638 217.729 270.24 217.729Z" fill="black"/>
<path d="M268.74 214.529C269.569 214.529 270.24 213.858 270.24 213.029C270.24 212.201 269.569 211.529 268.74 211.529C267.912 211.529 267.24 212.201 267.24 213.029C267.24 213.858 267.912 214.529 268.74 214.529Z" fill="white"/>
<path d="M192.14 144.429C192.14 144.429 200.24 148.629 249.44 146.429L192.14 144.429Z" fill="white"/>
<path d="M192.14 144.429C192.14 144.429 200.24 148.629 249.44 146.429" stroke="black" stroke-width="2" stroke-miterlimit="10"/>
<path d="M192.74 176.33C192.74 176.33 202.84 180.53 243.54 178.73L192.74 176.33Z" fill="white"/>
<path d="M192.74 176.33C192.74 176.33 202.84 180.53 243.54 178.73" stroke="black" stroke-width="2" stroke-miterlimit="10"/>
<path d="M199.04 242.129C198.04 243.129 191.24 243.429 190.24 248.429L199.04 242.129Z" fill="white"/>
<path d="M199.04 242.129C198.04 243.129 191.24 243.429 190.24 248.429" stroke="black" stroke-width="2" stroke-miterlimit="10"/>
<path d="M281.04 205.73C284.464 205.73 287.24 202.954 287.24 199.53C287.24 196.105 284.464 193.33 281.04 193.33C277.616 193.33 274.84 196.105 274.84 199.53C274.84 202.954 277.616 205.73 281.04 205.73Z" fill="white" stroke="black" stroke-width="2" stroke-miterlimit="10" stroke-linejoin="round"/>
<path d="M309.54 208.429C312.246 208.429 314.44 206.236 314.44 203.529C314.44 200.823 312.246 198.629 309.54 198.629C306.833 198.629 304.64 200.823 304.64 203.529C304.64 206.236 306.833 208.429 309.54 208.429Z" fill="white" stroke="black" stroke-width="2" stroke-miterlimit="10" stroke-linejoin="round"/>
<path d="M324.94 278.53L283.44 273.33L248.44 274.53C244.94 274.63 242.24 277.53 242.34 281.03V282.33C242.44 285.43 244.74 287.93 247.74 288.33L279.04 293.03" fill="white"/>
<path d="M324.94 278.53L283.44 273.33L248.44 274.53C244.94 274.63 242.24 277.53 242.34 281.03V282.33C242.44 285.43 244.74 287.93 247.74 288.33L279.04 293.03" stroke="black" stroke-width="2" stroke-miterlimit="10"/>
<path d="M325.34 291.53L280.54 292.93C274.64 293.13 274.24 280.13 280.14 279.93L324.94 278.53C319.14 278.73 319.54 291.73 325.34 291.53Z" fill="white" stroke="black" stroke-width="2" stroke-miterlimit="10"/>
<path d="M319.539 307.33L274.739 308.73C268.839 308.93 268.439 293.03 274.339 292.83L319.139 291.43C313.339 291.63 313.739 307.53 319.539 307.33Z" fill="white" stroke="black" stroke-width="2" stroke-miterlimit="10"/>
<path d="M282.94 279.93C282.34 279.93 250.24 276.33 250.24 276.33L282.94 279.93Z" fill="white"/>
<path d="M282.94 279.93C282.34 279.93 250.24 276.33 250.24 276.33" stroke="black" stroke-width="2" stroke-miterlimit="10"/>
<path d="M273.04 308.93C271.84 309.33 243.14 303.23 243.14 303.23C243.14 303.23 235.84 291.53 246.34 288.03" fill="white"/>
<path d="M273.04 308.93C271.84 309.33 243.14 303.23 243.14 303.23C243.14 303.23 235.84 291.53 246.34 288.03" stroke="black" stroke-width="2" stroke-miterlimit="10"/>
<path d="M322.64 316.43L277.84 317.83C271.94 318.03 271.74 309.13 277.64 308.93L322.44 307.53C316.64 307.73 316.84 316.63 322.64 316.43Z" fill="white" stroke="black" stroke-width="2" stroke-miterlimit="10"/>
<path d="M276.24 317.63C275.04 318.03 245.54 311.93 245.54 311.93C245.54 311.93 241.74 305.93 246.84 303.93" stroke="black" stroke-width="2" stroke-miterlimit="10"/>
<path d="M49.6396 202.83C49.6396 202.83 53.6396 216.83 63.2396 222.73" stroke="black" stroke-width="2" stroke-miterlimit="10" stroke-linecap="round" stroke-linejoin="round"/>
<path d="M92.5398 204.029C92.5398 204.029 89.8398 221.329 81.8398 228.129" stroke="black" stroke-width="2" stroke-miterlimit="10" stroke-linecap="round" stroke-linejoin="round"/>
<path d="M94.7312 84.7824H17.1853C7.62484 84.7824 0.0371712 76.4347 1.09944 66.8727L4.58977 15.4203C5.34854 7.22434 12.3292 1.00146 20.6756 1.00146L182.5 1C192.06 1 199.496 9.19597 198.586 18.6061L196.006 70.0586C195.247 78.4063 188.267 84.781 179.92 84.781L128.572 84.7824H123.413C129.179 113.013 137.374 131.378 155.584 152.323C131.152 157.332 105.354 127.887 95.49 84.7824H94.7312Z" fill="white" stroke="black" stroke-width="2" stroke-miterlimit="10"/>
<path d="M43.4785 52.9644H41.0127L43.1123 38.0229H34.6895L32.5898 52.9644H30.1362L32.5288 35.96H45.8711L43.4785 52.9644ZM47.5312 47.874C47.5312 46.7428 47.6899 45.7134 48.0073 44.7856C48.3247 43.8579 48.7804 43.0685 49.3745 42.4175C49.9686 41.7583 50.6888 41.2497 51.5352 40.8916C52.3815 40.5335 53.3337 40.3545 54.3916 40.3545C55.0589 40.3545 55.6978 40.4481 56.3081 40.6353C56.9185 40.8224 57.4556 41.1235 57.9194 41.5386C58.3914 41.9536 58.7658 42.4907 59.0425 43.1499C59.3273 43.8091 59.4697 44.6147 59.4697 45.5669C59.4697 46.755 59.307 47.8211 58.9814 48.7651C58.6641 49.7091 58.2043 50.5107 57.6021 51.1699C57.008 51.821 56.2837 52.3215 55.4292 52.6714C54.5828 53.0132 53.6348 53.1841 52.585 53.1841C51.7874 53.1841 51.0754 53.0701 50.4487 52.8423C49.8221 52.6144 49.2931 52.2767 48.8618 51.8291C48.4305 51.3815 48.1009 50.8281 47.873 50.1689C47.6452 49.5098 47.5312 48.7448 47.5312 47.874ZM49.8384 47.6909C49.8384 48.3257 49.9116 48.8669 50.0581 49.3145C50.2046 49.7539 50.408 50.116 50.6685 50.4009C50.937 50.6857 51.2585 50.8932 51.6328 51.0234C52.0072 51.1536 52.4222 51.2188 52.8779 51.2188C53.5127 51.2188 54.0905 51.1089 54.6113 50.8892C55.1403 50.6694 55.592 50.3358 55.9663 49.8882C56.3407 49.4406 56.6296 48.8791 56.833 48.2036C57.0446 47.52 57.1504 46.7184 57.1504 45.7988C57.1504 45.2048 57.0771 44.6921 56.9307 44.2607C56.7842 43.8213 56.5767 43.4591 56.3081 43.1743C56.0477 42.8813 55.7303 42.6657 55.356 42.5273C54.9897 42.3809 54.5828 42.3076 54.1353 42.3076C53.5168 42.3076 52.943 42.4215 52.4141 42.6494C51.8932 42.8691 51.4416 43.2028 51.0591 43.6504C50.6766 44.098 50.3755 44.6595 50.1558 45.335C49.9442 46.0023 49.8384 46.7876 49.8384 47.6909ZM71.6768 42.5884H66.5376L66.4155 43.4185C66.3586 43.8172 66.269 44.3381 66.147 44.981C66.033 45.6157 65.8825 46.2952 65.6953 47.0195C65.5081 47.7438 65.2843 48.4722 65.0239 49.2046C64.7635 49.937 64.4583 50.6003 64.1084 51.1943C63.7585 51.7803 63.3597 52.2604 62.9121 52.6348C62.4727 53.001 61.9803 53.1841 61.4351 53.1841C61.2397 53.1841 61.0444 53.1719 60.8491 53.1475C60.6619 53.1312 60.4829 53.1068 60.312 53.0742C60.1493 53.0417 60.0109 53.0132 59.897 52.9888C59.783 52.9644 59.7098 52.944 59.6772 52.9277L60.0557 51.0845C60.1208 51.0845 60.1899 51.0967 60.2632 51.1211C60.3364 51.1374 60.4178 51.1577 60.5073 51.1821C60.5968 51.2065 60.6904 51.2269 60.7881 51.2432C60.8939 51.2594 61.0119 51.2635 61.1421 51.2554C61.3862 51.2472 61.6182 51.1333 61.8379 50.9136C62.0576 50.6938 62.2611 50.409 62.4482 50.0591C62.6354 49.701 62.8063 49.2941 62.9609 48.8384C63.1237 48.3745 63.2702 47.8944 63.4004 47.3979C63.5306 46.9015 63.6486 46.4051 63.7544 45.9087C63.8602 45.4041 63.9497 44.9321 64.0229 44.4927C64.1043 44.0532 64.1694 43.6626 64.2183 43.3208C64.2752 42.979 64.3159 42.7186 64.3403 42.5396L64.6089 40.623H74.3013L72.5679 52.9644H70.2241L71.6768 42.5884ZM78.5737 47.8374C78.5656 48.3826 78.6226 48.8669 78.7446 49.29C78.8748 49.7132 79.0783 50.0713 79.355 50.3643C79.6398 50.6572 80.006 50.881 80.4536 51.0356C80.9093 51.1821 81.4546 51.2554 82.0894 51.2554C82.6753 51.2554 83.245 51.1659 83.7983 50.9868C84.3599 50.7996 84.8726 50.5881 85.3364 50.3521L85.8369 52.0122C85.4788 52.1994 85.1248 52.3662 84.7749 52.5127C84.425 52.651 84.0669 52.7731 83.7007 52.8789C83.3426 52.9766 82.9723 53.0498 82.5898 53.0986C82.2155 53.1556 81.8167 53.1841 81.3936 53.1841C79.709 53.1841 78.4395 52.7365 77.585 51.8413C76.7305 50.938 76.3032 49.6278 76.3032 47.9106C76.3032 46.7062 76.4701 45.6361 76.8037 44.7002C77.1374 43.7562 77.6012 42.9627 78.1953 42.3198C78.7975 41.6769 79.5096 41.1886 80.3315 40.855C81.1535 40.5213 82.0527 40.3545 83.0293 40.3545C83.6641 40.3545 84.25 40.4481 84.7871 40.6353C85.3242 40.8143 85.784 41.0666 86.1665 41.3921C86.5571 41.7176 86.8582 42.1001 87.0698 42.5396C87.2896 42.979 87.3994 43.4591 87.3994 43.98C87.3994 44.4601 87.3262 44.9321 87.1797 45.396C87.0413 45.8517 86.7931 46.2627 86.4351 46.6289C86.0851 46.987 85.609 47.2799 85.0068 47.5078C84.4046 47.7275 83.6396 47.8374 82.7119 47.8374H78.5737ZM82.6631 42.3076C82.1667 42.3076 81.7109 42.4012 81.2959 42.5884C80.889 42.7674 80.5228 43.0197 80.1973 43.3452C79.8717 43.6626 79.5951 44.041 79.3672 44.4805C79.1393 44.9199 78.9603 45.3919 78.8301 45.8965H82.6143C83.0049 45.8965 83.3507 45.8802 83.6519 45.8477C83.953 45.807 84.2093 45.7297 84.4209 45.6157C84.6325 45.5018 84.7912 45.339 84.897 45.1274C85.0109 44.9159 85.0679 44.6351 85.0679 44.2852C85.0679 43.9352 84.9946 43.6382 84.8481 43.394C84.7017 43.1418 84.5104 42.9383 84.2744 42.7837C84.0465 42.6209 83.7902 42.5029 83.5054 42.4297C83.2205 42.3483 82.9398 42.3076 82.6631 42.3076ZM89.2549 41.3188C89.5723 41.1398 89.8856 40.9893 90.1948 40.8672C90.5041 40.7451 90.8174 40.6475 91.1348 40.5742C91.4521 40.4928 91.7777 40.4359 92.1113 40.4033C92.4531 40.3708 92.8153 40.3545 93.1978 40.3545C94.4022 40.3545 95.3136 40.6027 95.9321 41.0991C96.5506 41.5955 96.8599 42.2873 96.8599 43.1743C96.8599 43.5161 96.8273 43.8416 96.7622 44.1509C96.6971 44.4601 96.5832 44.7531 96.4204 45.0298C96.2576 45.2983 96.042 45.5506 95.7734 45.7866C95.5049 46.0226 95.1712 46.2383 94.7725 46.4336C95.0003 46.5231 95.2119 46.6452 95.4072 46.7998C95.6107 46.9463 95.7856 47.1253 95.9321 47.3369C96.0786 47.5404 96.1925 47.7804 96.2739 48.0571C96.3553 48.3338 96.396 48.6471 96.396 48.9971C96.396 49.5098 96.3228 49.9696 96.1763 50.3765C96.0298 50.7834 95.8304 51.1414 95.5781 51.4507C95.3258 51.7599 95.0329 52.0244 94.6992 52.2441C94.3737 52.4557 94.0238 52.6307 93.6494 52.769C93.2751 52.8993 92.8926 52.9969 92.502 53.062C92.1113 53.1271 91.7329 53.1637 91.3667 53.1719C90.5854 53.1963 89.8571 53.1108 89.1816 52.9155C88.5143 52.7121 87.9487 52.4679 87.4849 52.1831L88.4004 50.4741C88.6201 50.5962 88.8276 50.7061 89.0229 50.8037C89.2264 50.8932 89.4339 50.9705 89.6455 51.0356C89.8652 51.0926 90.1053 51.1374 90.3657 51.1699C90.6261 51.2025 90.9354 51.2188 91.2935 51.2188C91.6108 51.2188 91.9323 51.1862 92.2578 51.1211C92.5915 51.0479 92.8926 50.9339 93.1611 50.7793C93.4378 50.6165 93.6616 50.4049 93.8325 50.1445C94.0034 49.876 94.0889 49.5464 94.0889 49.1558C94.0889 48.9767 94.0563 48.7896 93.9912 48.5942C93.9342 48.3989 93.8285 48.224 93.6738 48.0693C93.5273 47.9066 93.328 47.7764 93.0757 47.6787C92.8234 47.5729 92.506 47.52 92.1235 47.52H90.3657L90.6099 45.7134L92.3066 45.7012C92.5996 45.7012 92.8763 45.6768 93.1367 45.6279C93.4053 45.571 93.6413 45.4692 93.8447 45.3228C94.0482 45.1763 94.2069 44.9728 94.3208 44.7124C94.4429 44.4438 94.5039 44.1021 94.5039 43.687C94.5039 43.2476 94.3493 42.9098 94.04 42.6738C93.7389 42.4297 93.271 42.3076 92.6362 42.3076C92.4002 42.3076 92.1683 42.3198 91.9404 42.3442C91.7207 42.3605 91.4928 42.3971 91.2568 42.4541C91.0208 42.5111 90.7726 42.5884 90.5122 42.686C90.2599 42.7837 89.9873 42.9058 89.6943 43.0522L89.2549 41.3188ZM98.5688 52.9644L100.302 40.623H102.658L101.938 45.7134H108.481L109.201 40.623H111.557L109.824 52.9644H107.468L108.212 47.6665H101.669L100.925 52.9644H98.5688ZM113.547 47.874C113.547 46.7428 113.706 45.7134 114.023 44.7856C114.34 43.8579 114.796 43.0685 115.39 42.4175C115.984 41.7583 116.704 41.2497 117.551 40.8916C118.397 40.5335 119.349 40.3545 120.407 40.3545C121.075 40.3545 121.713 40.4481 122.324 40.6353C122.934 40.8224 123.471 41.1235 123.935 41.5386C124.407 41.9536 124.781 42.4907 125.058 43.1499C125.343 43.8091 125.485 44.6147 125.485 45.5669C125.485 46.755 125.323 47.8211 124.997 48.7651C124.68 49.7091 124.22 50.5107 123.618 51.1699C123.024 51.821 122.299 52.3215 121.445 52.6714C120.598 53.0132 119.65 53.1841 118.601 53.1841C117.803 53.1841 117.091 53.0701 116.464 52.8423C115.838 52.6144 115.309 52.2767 114.877 51.8291C114.446 51.3815 114.117 50.8281 113.889 50.1689C113.661 49.5098 113.547 48.7448 113.547 47.874ZM115.854 47.6909C115.854 48.3257 115.927 48.8669 116.074 49.3145C116.22 49.7539 116.424 50.116 116.684 50.4009C116.953 50.6857 117.274 50.8932 117.648 51.0234C118.023 51.1536 118.438 51.2188 118.894 51.2188C119.528 51.2188 120.106 51.1089 120.627 50.8892C121.156 50.6694 121.608 50.3358 121.982 49.8882C122.356 49.4406 122.645 48.8791 122.849 48.2036C123.06 47.52 123.166 46.7184 123.166 45.7988C123.166 45.2048 123.093 44.6921 122.946 44.2607C122.8 43.8213 122.592 43.4591 122.324 43.1743C122.063 42.8813 121.746 42.6657 121.372 42.5273C121.005 42.3809 120.598 42.3076 120.151 42.3076C119.532 42.3076 118.959 42.4215 118.43 42.6494C117.909 42.8691 117.457 43.2028 117.075 43.6504C116.692 44.098 116.391 44.6595 116.171 45.335C115.96 46.0023 115.854 46.7876 115.854 47.6909ZM127.524 47.9961C127.524 46.7021 127.691 45.575 128.024 44.6147C128.366 43.6545 128.826 42.861 129.404 42.2344C129.99 41.5996 130.677 41.1276 131.467 40.8184C132.256 40.5091 133.103 40.3545 134.006 40.3545C134.657 40.3545 135.304 40.4399 135.947 40.6108C136.59 40.7736 137.224 41.0544 137.851 41.4531L136.911 43.0645C136.472 42.8122 136.012 42.625 135.532 42.5029C135.06 42.3727 134.584 42.3076 134.104 42.3076C133.404 42.3076 132.785 42.4338 132.248 42.686C131.719 42.9383 131.276 43.3005 130.917 43.7725C130.559 44.2363 130.287 44.806 130.1 45.4814C129.921 46.1488 129.831 46.8975 129.831 47.7275C129.831 48.8343 130.079 49.6929 130.576 50.3032C131.08 50.9136 131.853 51.2188 132.895 51.2188C133.424 51.2188 133.937 51.1496 134.433 51.0112C134.93 50.8647 135.41 50.6857 135.874 50.4741L136.362 52.0732C135.67 52.4395 134.978 52.7161 134.287 52.9033C133.603 53.0905 132.903 53.1841 132.187 53.1841C131.357 53.1841 130.645 53.0579 130.051 52.8057C129.465 52.5452 128.985 52.1872 128.61 51.7314C128.236 51.2757 127.959 50.7305 127.78 50.0957C127.609 49.4528 127.524 48.7529 127.524 47.9961ZM138.73 42.5884L139.011 40.623H150.021L149.741 42.5884H145.407L143.955 52.9644H141.599L143.051 42.5884H138.73ZM152.841 51.292H155.014C155.502 51.292 155.917 51.2472 156.259 51.1577C156.601 51.0682 156.878 50.9299 157.089 50.7427C157.309 50.5474 157.468 50.2992 157.565 49.998C157.671 49.6969 157.724 49.3307 157.724 48.8994C157.724 48.3216 157.545 47.8903 157.187 47.6055C156.829 47.3125 156.255 47.166 155.466 47.166H153.427L152.841 51.292ZM154.343 40.623L153.659 45.5303H156.247C156.776 45.5303 157.268 45.6035 157.724 45.75C158.18 45.8965 158.575 46.1121 158.908 46.397C159.25 46.6737 159.514 47.0195 159.702 47.4346C159.897 47.8415 159.995 48.3053 159.995 48.8262C159.995 49.5179 159.881 50.1242 159.653 50.645C159.433 51.1577 159.116 51.589 158.701 51.939C158.286 52.2808 157.781 52.5371 157.187 52.708C156.601 52.8789 155.942 52.9644 155.209 52.9644H150.253L151.987 40.623H154.343Z" fill="black"/>
</svg>
