<svg width="311" height="328" viewBox="0 0 311 328" fill="none" xmlns="http://www.w3.org/2000/svg">
<path d="M113.745 99.0431L30.9993 288.368L124.366 204.987L124.081 274.217L295.113 143.111L240.132 55.9998L142.784 184.11L113.745 99.0431Z" fill="#3DDCDC"/>
<path d="M284.7 325.9C284.7 325.9 284.3 316.8 287.6 315.8C290.9 314.8 294.7 315 293.1 312.8C291.4 310.6 289.2 310.8 284.1 312.9C285.1 312.2 282.3 301.3 278.2 303.6C271.3 306.2 281.2 307.4 279.9 318.1C279.6 322.3 278.2 325.8 278.2 325.8" fill="#B4BA92"/>
<path d="M273 210.4C272.5 206.6 271.9 202.7 271 199C270.5 196.7 269.9 194.4 269.2 192.2C269 191.6 268.8 191.1 268.7 190.5C268.7 190.5 268.7 190.4 268.6 190.4C261.8 191.2 254.9 189.9 249.3 186.1C247.2 184.7 245.1 183.4 242.9 182.2C238.3 180.4 233.6 179.1 228.8 178.1C216.3 176.6 203.8 176.8 191.3 177.9C181 179.1 170.7 180.8 160.5 182.7C158.3 183.1 156.1 183.6 154 184.2C153.3 184.5 152.7 184.8 152.5 184.9C148.5 186.9 144.8 189.2 141.1 191.7C140.3 192.3 139.4 193 138.6 193.6C136.7 195.1 134.7 196.6 132.8 198C128.8 201 124.8 204 120.7 206.9C122.5 210.5 121.5 215.6 116.4 216.8C104.8 219.6 94.1 215.3 82.5 215C77.6 214.9 75.5 210.8 75.9 207C74.3 206.7 72.8 206.4 71.3 206.1C71.1 209 70.9 211.9 70.5 214.7C75.5 219.7 80.6 224.9 80.5 224.9L87.1 251.1C118 260.6 139.3 259.1 160.7 256.7C167 255.6 173.3 254.6 179.6 253.6C189.1 252.1 198.7 250.7 208.2 249.6C218.1 248.4 228 247.2 237.9 248.4C250.9 249.9 263 253.1 274 260.4C284 241.4 281.2 225.4 273 210.4ZM222.5 217.4C221 219.4 219.2 220.9 216.8 221.4C216 221.6 215.1 221.7 214.2 221.6C214 221.6 213.8 221.6 213.6 221.6C212.7 221.7 211.8 221.6 210.9 221.3C210.3 221 209.8 220.8 209.2 220.5C207.6 219.6 206.6 217.9 206.1 216.2C205.7 214.7 206 212.8 206.7 211.4C206.7 210.9 206.8 210.5 206.9 210C207.3 208.3 208.8 206.7 210.3 205.9C211.9 205 213.9 204.9 215.6 205.4C215.8 205.5 216.1 205.5 216.3 205.6C216.8 205.7 217.2 205.7 217.7 205.9C218.3 206.1 219.1 206.4 219.6 206.7C220.2 207.1 220.5 207.3 221.2 208C223.7 210.3 224.7 214.5 222.5 217.4Z" fill="#6CA5FC"/>
<path d="M275 255C278.4 260.9 283.3 268 288.4 270.1C297.4 273.8 278.5 283 266.1 278.4C264.4 277.8 262.6 276.7 260.9 275.4" fill="white"/>
<path d="M275 255C278.4 260.9 283.3 268 288.4 270.1C297.4 273.8 278.5 283 266.1 278.4C264.4 277.8 262.6 276.7 260.9 275.4" stroke="black" stroke-width="2" stroke-miterlimit="10"/>
<path d="M266 182.4C266 182.4 271.6 187 263.7 189.5C259.5 190.6 257.9 189.3 257.9 189.3" fill="white"/>
<path d="M266 182.4C266 182.4 271.6 187 263.7 189.5C259.5 190.6 257.9 189.3 257.9 189.3" stroke="black" stroke-width="2" stroke-miterlimit="10"/>
<path d="M258.6 327.5C258 323.5 257.2 319.3 259.1 315.5C262.1 309.3 267.9 306.9 272.4 302.1C273.7 300.7 275.4 297.9 273.8 296C272.6 294.6 269.5 295.9 268 296.4C264.4 298.2 257.9 307.3 259.2 305.5C260.2 304.1 259.1 300.9 259 299.4C258.7 294.8 261.1 285.4 257.2 281.9C254 279.1 250.5 283.5 250 286.4C249.4 289.6 250.3 293.1 250.4 296.3C250.9 306.7 253.3 312.3 250.3 311.2C247.3 310 242.2 302.6 239 301.6C235.8 300.7 230.4 302.6 239 309.1C247.1 315.2 250.5 319 250.2 320.8C249.9 322.6 250.2 327.6 250.2 327.6" fill="#B4BA92"/>
<path d="M276.701 250.9C249.401 327.2 118.701 288.4 95.6005 265.2C54.9005 232.1 77.6005 204 77.6005 204L80.7005 204.5C80.7005 204.5 78.9005 223.1 102.901 222.9C129.701 222.1 131.001 176 204.301 172.9C277.601 169.8 280.301 239.1 280.301 239.1L285.601 245.9L285.201 248.8L278.301 251.6C278.301 251.6 258.201 230 218.301 246.5C196.301 255.7 191.001 235.2 191.001 235.2" stroke="black" stroke-width="2" stroke-miterlimit="10"/>
<path d="M224.8 215.8C223.9 221.7 219.6 221.5 214.4 220.7C209.2 219.9 205 218.8 206 212.9C206.9 207 211.9 202.8 217.1 203.6C222.2 204.4 225.7 209.8 224.8 215.8Z" stroke="black" stroke-width="2" stroke-miterlimit="10"/>
<path d="M222.354 218.518C222.713 216.17 221.102 213.976 218.754 213.617C216.406 213.258 214.212 214.87 213.853 217.217C213.494 219.565 215.106 221.759 217.454 222.118C219.801 222.477 221.995 220.865 222.354 218.518Z" fill="black"/>
<path d="M217.248 216.601C217.432 215.4 216.607 214.278 215.406 214.094C214.205 213.91 213.083 214.735 212.899 215.936C212.715 217.137 213.54 218.26 214.741 218.443C215.942 218.627 217.065 217.802 217.248 216.601Z" fill="white"/>
<path d="M200.1 251.1C200 251.8 156.6 277.3 112.1 263.7C67.6003 250.1 74.3003 213.2 74.3003 213.2" stroke="black" stroke-width="2" stroke-miterlimit="10"/>
<path d="M224 202.1C224 202.1 219.6 193.4 206.7 198" stroke="black" stroke-width="2" stroke-miterlimit="10"/>
<path d="M83.2002 209.6C86.8002 209.3 105.6 208.4 114.2 198.6C123.7 187.7 125.3 174.9 122.7 173.9C116.9 172.1 119.6 181.1 107.4 180C97.2002 180.6 86.8002 176 82.1002 183.5C79.9002 175 68.6002 176.3 59.0002 172.6C47.0002 169.9 52.3002 162.2 46.2002 162.2C43.4002 162.4 40.5002 175.4 46.9002 188.4C53.6002 201.8 71.6002 204.5 75.7002 209.9" stroke="black" stroke-width="2" stroke-miterlimit="10"/>
<path d="M259.5 255.2C259.5 255.2 239.7 303.5 163.2 292.5" stroke="black" stroke-width="2" stroke-miterlimit="10"/>
<path d="M239.6 254.2C239.6 254.2 212.4 297.6 148.2 289" stroke="black" stroke-width="2" stroke-miterlimit="10"/>
<path d="M208.5 259.4C208.5 259.4 171.3 293.9 124.9 281.6" stroke="black" stroke-width="2" stroke-miterlimit="10"/>
<path d="M276.6 221.4C274.2 222.1 268 224.1 267 219.9C266 215.7 269.9 206.1 272.3 209.2" fill="white"/>
<path d="M276.6 221.4C274.2 222.1 268 224.1 267 219.9C266 215.7 269.9 206.1 272.3 209.2" stroke="black" stroke-width="2" stroke-miterlimit="10"/>
<path d="M273.961 220.156C274.203 218.572 273.116 217.093 271.533 216.85C269.949 216.608 268.47 217.695 268.228 219.279C267.985 220.862 269.072 222.342 270.656 222.584C272.239 222.826 273.719 221.739 273.961 220.156Z" fill="black"/>
<path d="M274.85 218.847C274.975 218.028 274.412 217.263 273.594 217.137C272.775 217.012 272.009 217.574 271.884 218.393C271.759 219.212 272.321 219.978 273.14 220.103C273.959 220.228 274.724 219.666 274.85 218.847Z" fill="white"/>
<path d="M195.5 233.5C194.4 234.3 187.6 233.6 185.9 238.4L195.5 233.5Z" fill="white"/>
<path d="M195.5 233.5C194.4 234.3 187.6 233.6 185.9 238.4" stroke="black" stroke-width="2" stroke-miterlimit="10"/>
<path d="M256 327.5C255.4 323.5 254.6 319.3 256.5 315.5C259.5 309.3 265.3 306.9 269.8 302.1C271.1 300.7 272.8 297.9 271.2 296C270 294.6 266.9 295.9 265.4 296.4C261.8 298.2 255.3 307.3 256.6 305.5C257.6 304.1 256.5 300.9 256.4 299.4C256.1 294.8 258.5 285.4 254.6 281.9C251.4 279.1 247.9 283.5 247.4 286.4C246.8 289.6 247.7 293.1 247.8 296.3C248.3 306.7 250.7 312.3 247.7 311.2C244.7 310 239.6 302.6 236.4 301.6C233.2 300.7 227.8 302.6 236.4 309.1C244.5 315.2 247.9 319 247.6 320.8C247.3 322.6 247.6 327.6 247.6 327.6" stroke="black" stroke-width="2" stroke-miterlimit="10"/>
<path d="M285.2 325.9C285.2 325.9 284.8 316.8 288.1 315.8C291.4 314.8 295.2 315 293.6 312.8C291.9 310.6 289.7 310.8 284.6 312.9C285.6 312.2 282.8 301.3 278.7 303.6C271.8 306.2 281.7 307.4 280.4 318.1C280.1 322.3 278.7 325.8 278.7 325.8" stroke="black" stroke-width="2" stroke-miterlimit="10" stroke-linejoin="round"/>
<path d="M183.6 262.5L144.2 276.9L146.8 284.2L186.3 269.8" fill="white"/>
<path d="M183.6 262.5L144.2 276.9L146.8 284.2L186.3 269.8" stroke="black" stroke-width="2" stroke-miterlimit="10"/>
<path d="M255.4 251.3L253.6 243.1C251.6 234.5 234.2 231.1 214.7 235.6C195.2 240.1 181 250.8 183 259.4L185.3 269" fill="white"/>
<path d="M255.4 251.3L253.6 243.1C251.6 234.5 234.2 231.1 214.7 235.6C195.2 240.1 181 250.8 183 259.4L185.3 269" stroke="black" stroke-width="2" stroke-miterlimit="10"/>
<path d="M224.203 276.374C243.682 271.871 257.859 261.242 255.869 252.632C253.879 244.023 236.475 240.694 216.996 245.196C197.517 249.698 183.34 260.327 185.33 268.937C187.32 277.546 204.724 280.876 224.203 276.374Z" fill="white" stroke="black" stroke-width="2" stroke-miterlimit="10"/>
<path d="M222.76 273.159C238.149 269.602 249.344 261.178 247.765 254.345C246.185 247.511 232.429 244.855 217.04 248.412C201.65 251.969 190.455 260.392 192.035 267.226C193.614 274.06 207.37 276.716 222.76 273.159Z" fill="white" stroke="black" stroke-width="2" stroke-miterlimit="10"/>
<path d="M163.201 228.9C163.201 228.9 163.701 260.1 181.101 267.9C198.501 275.7 171.301 283.6 157.401 280.3C143.401 277.1 119.101 249.9 119.101 249.9" fill="#6CA5FC"/>
<path d="M163.201 228.9C163.201 228.9 163.701 260.1 181.101 267.9C198.501 275.7 171.301 283.6 157.401 280.3C143.401 277.1 119.101 249.9 119.101 249.9" stroke="black" stroke-width="2" stroke-miterlimit="10"/>
<path d="M247.7 257.1C247.7 257.1 236.5 256 219.9 262.5C203.2 268.9 195.1 263.1 195.5 260.8" fill="white"/>
<path d="M247.7 257.1C247.7 257.1 236.5 256 219.9 262.5C203.2 268.9 195.1 263.1 195.5 260.8" stroke="black" stroke-width="2" stroke-miterlimit="10"/>
<path d="M303.4 304.8C306.824 304.8 309.6 302.024 309.6 298.6C309.6 295.176 306.824 292.4 303.4 292.4C299.976 292.4 297.2 295.176 297.2 298.6C297.2 302.024 299.976 304.8 303.4 304.8Z" fill="white" stroke="black" stroke-width="2" stroke-miterlimit="10" stroke-linejoin="round"/>
<path d="M276.6 172C278.312 172 279.7 170.612 279.7 168.9C279.7 167.188 278.312 165.8 276.6 165.8C274.888 165.8 273.5 167.188 273.5 168.9C273.5 170.612 274.888 172 276.6 172Z" fill="white" stroke="black" stroke-width="2" stroke-miterlimit="10" stroke-linejoin="round"/>
<path d="M219.9 322.9C220.9 322.9 246.8 322.1 247.7 322.9H219.9Z" fill="white"/>
<path d="M219.9 322.9C220.9 322.9 246.8 322.1 247.7 322.9" stroke="black" stroke-width="2" stroke-miterlimit="10"/>
<path d="M255.4 322.6C256.9 322 268.9 322 271.9 322.6H255.4Z" fill="white"/>
<path d="M255.4 322.6C256.9 322 268.9 322 271.9 322.6" stroke="black" stroke-width="2" stroke-miterlimit="10"/>
<path d="M245.4 178.3C248.7 181 223.7 188.5 210.8 184.6C198.3 183.4 181.3 178.6 178.6 174.3C178.6 174.3 175.7 143.4 217.2 145.2C249.1 144.2 245.6 172.1 245.6 172.1" fill="white"/>
<path d="M245.4 178.3C248.7 181 223.7 188.5 210.8 184.6C198.3 183.4 181.3 178.6 178.6 174.3C178.6 174.3 175.7 143.4 217.2 145.2C249.1 144.2 245.6 172.1 245.6 172.1" stroke="black" stroke-width="2" stroke-miterlimit="10"/>
<path d="M206.3 183.8L227.8 194.8C240.6 199.1 239.7 172.8 267.2 183.3C255.1 174.5 253.6 174.5 245.4 171C245.5 170.9 236.2 180.3 206.3 183.8Z" fill="white" stroke="black" stroke-width="2" stroke-miterlimit="10" stroke-linecap="round" stroke-linejoin="round"/>
<path d="M220.362 150.767C220.449 149.832 217.979 148.837 214.844 148.544C211.71 148.251 209.098 148.771 209.011 149.706C208.923 150.641 211.394 151.636 214.528 151.929C217.663 152.222 220.274 151.702 220.362 150.767Z" stroke="black" stroke-width="2" stroke-miterlimit="10"/>
<path d="M103.3 180C103.5 180.6 99.1998 192.1 96.2998 195.2L103.3 180Z" fill="white"/>
<path d="M103.3 180C103.5 180.6 99.1998 192.1 96.2998 195.2" stroke="black" stroke-width="2" stroke-miterlimit="10"/>
<path d="M94.7312 90.781H17.1853C7.62484 90.781 0.0371712 82.4332 1.09944 72.8713L4.58977 21.4188C5.34854 13.2229 12.3292 7 20.6756 7H229.792C239.352 7 246.788 15.196 245.878 24.6061L243.298 76.0586C242.539 84.4063 235.558 90.781 227.212 90.781H128.572H123.413C129.179 119.012 130.29 127.555 148.5 148.5C123.413 148.5 105.354 133.886 95.49 90.781H94.7312Z" fill="black" stroke="black" stroke-width="2" stroke-miterlimit="10"/>
<path d="M100.731 84.781H23.1853C13.6248 84.781 6.03717 76.4332 7.09944 66.8713L10.5898 15.4188C11.3485 7.22286 18.3292 1 26.6756 1H235.792C245.352 1 252.788 9.19597 251.878 18.6061L249.298 70.0586C248.539 78.4063 241.558 84.781 233.212 84.781H134.572H129.413C135.179 113.012 136.29 121.555 154.5 142.5C129.413 142.5 111.354 127.886 101.49 84.781H100.731Z" fill="white" stroke="black" stroke-width="2" stroke-miterlimit="10"/>
<path d="M47.1362 53L49.5288 35.9956H54.8511C55.6486 35.9956 56.3607 36.077 56.9873 36.2397C57.6139 36.3944 58.1429 36.6263 58.5742 36.9355C59.0137 37.2448 59.3473 37.6354 59.5752 38.1074C59.8112 38.5794 59.9292 39.1247 59.9292 39.7432C59.9292 40.2965 59.8519 40.8011 59.6973 41.2568C59.5508 41.7044 59.3351 42.1073 59.0503 42.4653C58.7736 42.8234 58.4399 43.1326 58.0493 43.3931C57.6587 43.6535 57.2274 43.8691 56.7554 44.04L56.7432 44.1743C57.5732 44.3859 58.2202 44.7847 58.6841 45.3706C59.1479 45.9565 59.3799 46.6971 59.3799 47.5923C59.3799 49.3582 58.8306 50.701 57.7319 51.6206C56.6414 52.5402 55.0464 53 52.9468 53H47.1362ZM49.8584 51.1079H52.9468C54.2489 51.1079 55.2539 50.8231 55.9619 50.2534C56.6781 49.6756 57.0361 48.8049 57.0361 47.6411C57.0361 46.8273 56.7594 46.2048 56.2061 45.7734C55.6608 45.3421 54.8633 45.1265 53.8135 45.1265H50.7007L49.8584 51.1079ZM50.957 43.2954H53.6792C54.2733 43.2954 54.8145 43.2222 55.3027 43.0757C55.7992 42.9292 56.2183 42.7176 56.5601 42.4409C56.91 42.1642 57.1785 41.8306 57.3657 41.4399C57.561 41.0412 57.6587 40.5895 57.6587 40.085C57.6587 39.6781 57.5814 39.3322 57.4268 39.0474C57.2721 38.7625 57.0483 38.5306 56.7554 38.3516C56.4705 38.1644 56.1287 38.0301 55.73 37.9487C55.3312 37.8592 54.8877 37.8145 54.3994 37.8145H51.7261L50.957 43.2954ZM61.9189 47.9097C61.9189 46.7785 62.0776 45.749 62.395 44.8213C62.7124 43.8936 63.1681 43.1042 63.7622 42.4531C64.3563 41.7939 65.0765 41.2853 65.9229 40.9272C66.7692 40.5692 67.7214 40.3901 68.7793 40.3901C69.4466 40.3901 70.0854 40.4837 70.6958 40.6709C71.3062 40.8581 71.8433 41.1592 72.3071 41.5742C72.7791 41.9893 73.1535 42.5264 73.4302 43.1855C73.715 43.8447 73.8574 44.6504 73.8574 45.6025C73.8574 46.7907 73.6947 47.8568 73.3691 48.8008C73.0518 49.7448 72.592 50.5464 71.9897 51.2056C71.3957 51.8566 70.6714 52.3571 69.8169 52.707C68.9705 53.0488 68.0225 53.2197 66.9727 53.2197C66.1751 53.2197 65.4631 53.1058 64.8364 52.8779C64.2098 52.6501 63.6808 52.3123 63.2495 51.8647C62.8182 51.4172 62.4886 50.8638 62.2607 50.2046C62.0329 49.5454 61.9189 48.7804 61.9189 47.9097ZM64.2261 47.7266C64.2261 48.3613 64.2993 48.9025 64.4458 49.3501C64.5923 49.7896 64.7957 50.1517 65.0562 50.4365C65.3247 50.7214 65.6462 50.9289 66.0205 51.0591C66.3949 51.1893 66.8099 51.2544 67.2656 51.2544C67.9004 51.2544 68.4782 51.1445 68.999 50.9248C69.528 50.7051 69.9797 50.3714 70.354 49.9238C70.7284 49.4762 71.0173 48.9147 71.2207 48.2393C71.4323 47.5557 71.5381 46.7541 71.5381 45.8345C71.5381 45.2404 71.4648 44.7277 71.3184 44.2964C71.1719 43.8569 70.9644 43.4948 70.6958 43.21C70.4354 42.917 70.118 42.7013 69.7437 42.563C69.3774 42.4165 68.9705 42.3433 68.5229 42.3433C67.9045 42.3433 67.3307 42.4572 66.8018 42.6851C66.2809 42.9048 65.8293 43.2384 65.4468 43.686C65.0643 44.1336 64.7632 44.6951 64.5435 45.3706C64.3319 46.0379 64.2261 46.8232 64.2261 47.7266ZM75.8228 53L77.5562 40.6587H82.793C83.3789 40.6587 83.9079 40.7157 84.3799 40.8296C84.86 40.9435 85.2669 41.1144 85.6006 41.3423C85.9342 41.5701 86.1906 41.859 86.3696 42.209C86.5568 42.5508 86.6504 42.9495 86.6504 43.4053C86.6504 43.804 86.5934 44.1662 86.4795 44.4917C86.3656 44.8091 86.2069 45.098 86.0034 45.3584C85.8081 45.6107 85.568 45.8345 85.2832 46.0298C85.0065 46.217 84.7013 46.3716 84.3677 46.4937L84.3555 46.5913C84.9577 46.7541 85.4256 47.047 85.7593 47.4702C86.0929 47.8934 86.2598 48.4305 86.2598 49.0815C86.2598 49.7244 86.1458 50.29 85.918 50.7783C85.6982 51.2666 85.3809 51.6776 84.9658 52.0112C84.5508 52.3368 84.0422 52.585 83.4399 52.7559C82.8459 52.9186 82.1745 53 81.4258 53H75.8228ZM78.4229 51.2544H81.1816C81.613 51.2544 81.9995 51.2178 82.3413 51.1445C82.6831 51.0713 82.972 50.9533 83.208 50.7905C83.4521 50.6196 83.6353 50.3958 83.7573 50.1191C83.8875 49.8424 83.9526 49.4966 83.9526 49.0815C83.9526 48.5119 83.7533 48.0968 83.3545 47.8364C82.9639 47.576 82.4105 47.4458 81.6943 47.4458H78.96L78.4229 51.2544ZM79.1919 45.7979H81.6089C82.0239 45.7979 82.4023 45.7572 82.7441 45.6758C83.0859 45.5944 83.3789 45.4683 83.623 45.2974C83.8672 45.1265 84.0544 44.9108 84.1846 44.6504C84.3229 44.39 84.3921 44.0807 84.3921 43.7227C84.3921 43.4378 84.3311 43.2059 84.209 43.0269C84.0951 42.8478 83.9323 42.7095 83.7207 42.6118C83.5173 42.5142 83.2731 42.4491 82.9883 42.4165C82.7035 42.3758 82.3983 42.3555 82.0728 42.3555H79.6802L79.1919 45.7979ZM98.6621 42.624H93.5229L93.4009 43.4541C93.3439 43.8529 93.2544 44.3737 93.1323 45.0166C93.0184 45.6514 92.8678 46.3309 92.6807 47.0552C92.4935 47.7795 92.2697 48.5078 92.0093 49.2402C91.7489 49.9727 91.4437 50.6359 91.0938 51.23C90.7438 51.8159 90.3451 52.2961 89.8975 52.6704C89.458 53.0366 88.9657 53.2197 88.4204 53.2197C88.2251 53.2197 88.0298 53.2075 87.8345 53.1831C87.6473 53.1668 87.4683 53.1424 87.2974 53.1099C87.1346 53.0773 86.9963 53.0488 86.8823 53.0244C86.7684 53 86.6951 52.9797 86.6626 52.9634L87.041 51.1201C87.1061 51.1201 87.1753 51.1323 87.2485 51.1567C87.3218 51.173 87.4032 51.1934 87.4927 51.2178C87.5822 51.2422 87.6758 51.2625 87.7734 51.2788C87.8792 51.2951 87.9972 51.2992 88.1274 51.291C88.3716 51.2829 88.6035 51.1689 88.8232 50.9492C89.043 50.7295 89.2464 50.4447 89.4336 50.0947C89.6208 49.7367 89.7917 49.3298 89.9463 48.874C90.109 48.4102 90.2555 47.93 90.3857 47.4336C90.516 46.9372 90.634 46.4408 90.7397 45.9443C90.8455 45.4398 90.9351 44.9678 91.0083 44.5283C91.0897 44.0889 91.1548 43.6982 91.2036 43.3564C91.2606 43.0146 91.3013 42.7542 91.3257 42.5752L91.5942 40.6587H101.287L99.5532 53H97.2095L98.6621 42.624ZM105.559 47.873C105.551 48.4183 105.608 48.9025 105.73 49.3257C105.86 49.7489 106.064 50.1069 106.34 50.3999C106.625 50.6929 106.991 50.9167 107.439 51.0713C107.895 51.2178 108.44 51.291 109.075 51.291C109.661 51.291 110.23 51.2015 110.784 51.0225C111.345 50.8353 111.858 50.6237 112.322 50.3877L112.822 52.0479C112.464 52.235 112.11 52.4019 111.76 52.5483C111.41 52.6867 111.052 52.8088 110.686 52.9146C110.328 53.0122 109.958 53.0854 109.575 53.1343C109.201 53.1912 108.802 53.2197 108.379 53.2197C106.694 53.2197 105.425 52.7721 104.57 51.877C103.716 50.9736 103.289 49.6634 103.289 47.9463C103.289 46.7419 103.455 45.6717 103.789 44.7358C104.123 43.7918 104.587 42.9984 105.181 42.3555C105.783 41.7126 106.495 41.2243 107.317 40.8906C108.139 40.557 109.038 40.3901 110.015 40.3901C110.649 40.3901 111.235 40.4837 111.772 40.6709C112.31 40.8499 112.769 41.1022 113.152 41.4277C113.542 41.7533 113.844 42.1357 114.055 42.5752C114.275 43.0146 114.385 43.4948 114.385 44.0156C114.385 44.4958 114.312 44.9678 114.165 45.4316C114.027 45.8874 113.778 46.2983 113.42 46.6646C113.07 47.0226 112.594 47.3156 111.992 47.5435C111.39 47.7632 110.625 47.873 109.697 47.873H105.559ZM109.648 42.3433C109.152 42.3433 108.696 42.4368 108.281 42.624C107.874 42.8031 107.508 43.0553 107.183 43.3809C106.857 43.6982 106.58 44.0767 106.353 44.5161C106.125 44.9556 105.946 45.4276 105.815 45.9321H109.6C109.99 45.9321 110.336 45.9159 110.637 45.8833C110.938 45.8426 111.195 45.7653 111.406 45.6514C111.618 45.5374 111.777 45.3747 111.882 45.1631C111.996 44.9515 112.053 44.6707 112.053 44.3208C112.053 43.9709 111.98 43.6738 111.833 43.4297C111.687 43.1774 111.496 42.974 111.26 42.8193C111.032 42.6566 110.776 42.5386 110.491 42.4653C110.206 42.384 109.925 42.3433 109.648 42.3433ZM123.125 53L123.796 48.2271C123.593 48.3735 123.369 48.52 123.125 48.6665C122.881 48.813 122.612 48.9473 122.319 49.0693C122.035 49.1833 121.725 49.2769 121.392 49.3501C121.058 49.4152 120.7 49.4478 120.317 49.4478C119.512 49.4478 118.84 49.3298 118.303 49.0938C117.766 48.8496 117.347 48.5119 117.046 48.0806C116.753 47.6411 116.566 47.1203 116.484 46.5181C116.411 45.9077 116.427 45.2363 116.533 44.5039L117.07 40.6587H119.426L118.926 44.2354C118.836 44.862 118.824 45.3828 118.889 45.7979C118.954 46.2129 119.08 46.5465 119.268 46.7988C119.463 47.0511 119.715 47.2301 120.024 47.3359C120.334 47.4336 120.692 47.4824 121.099 47.4824C121.693 47.4824 122.242 47.3848 122.747 47.1895C123.251 46.9941 123.687 46.7297 124.053 46.396L124.858 40.6587H127.202L125.469 53H123.125ZM131.487 47.873C131.479 48.4183 131.536 48.9025 131.658 49.3257C131.788 49.7489 131.991 50.1069 132.268 50.3999C132.553 50.6929 132.919 50.9167 133.367 51.0713C133.822 51.2178 134.368 51.291 135.002 51.291C135.588 51.291 136.158 51.2015 136.711 51.0225C137.273 50.8353 137.786 50.6237 138.25 50.3877L138.75 52.0479C138.392 52.235 138.038 52.4019 137.688 52.5483C137.338 52.6867 136.98 52.8088 136.614 52.9146C136.256 53.0122 135.885 53.0854 135.503 53.1343C135.129 53.1912 134.73 53.2197 134.307 53.2197C132.622 53.2197 131.353 52.7721 130.498 51.877C129.644 50.9736 129.216 49.6634 129.216 47.9463C129.216 46.7419 129.383 45.6717 129.717 44.7358C130.05 43.7918 130.514 42.9984 131.108 42.3555C131.711 41.7126 132.423 41.2243 133.245 40.8906C134.067 40.557 134.966 40.3901 135.942 40.3901C136.577 40.3901 137.163 40.4837 137.7 40.6709C138.237 40.8499 138.697 41.1022 139.08 41.4277C139.47 41.7533 139.771 42.1357 139.983 42.5752C140.203 43.0146 140.312 43.4948 140.312 44.0156C140.312 44.4958 140.239 44.9678 140.093 45.4316C139.954 45.8874 139.706 46.2983 139.348 46.6646C138.998 47.0226 138.522 47.3156 137.92 47.5435C137.318 47.7632 136.553 47.873 135.625 47.873H131.487ZM135.576 42.3433C135.08 42.3433 134.624 42.4368 134.209 42.624C133.802 42.8031 133.436 43.0553 133.11 43.3809C132.785 43.6982 132.508 44.0767 132.28 44.5161C132.052 44.9556 131.873 45.4276 131.743 45.9321H135.527C135.918 45.9321 136.264 45.9159 136.565 45.8833C136.866 45.8426 137.122 45.7653 137.334 45.6514C137.546 45.5374 137.704 45.3747 137.81 45.1631C137.924 44.9515 137.981 44.6707 137.981 44.3208C137.981 43.9709 137.908 43.6738 137.761 43.4297C137.615 43.1774 137.424 42.974 137.188 42.8193C136.96 42.6566 136.703 42.5386 136.418 42.4653C136.134 42.384 135.853 42.3433 135.576 42.3433ZM141.912 53L143.645 40.6587H146.001L145.281 45.749H151.824L152.544 40.6587H154.9L153.167 53H150.811L151.555 47.7021H145.012L144.268 53H141.912ZM156.804 53L158.538 40.6587H160.894L160.173 45.749H166.716L167.437 40.6587H169.792L168.059 53H165.703L166.448 47.7021H159.905L159.16 53H156.804ZM171.782 47.9097C171.782 46.7785 171.941 45.749 172.258 44.8213C172.576 43.8936 173.031 43.1042 173.625 42.4531C174.22 41.7939 174.94 41.2853 175.786 40.9272C176.632 40.5692 177.585 40.3901 178.643 40.3901C179.31 40.3901 179.949 40.4837 180.559 40.6709C181.169 40.8581 181.707 41.1592 182.17 41.5742C182.642 41.9893 183.017 42.5264 183.293 43.1855C183.578 43.8447 183.721 44.6504 183.721 45.6025C183.721 46.7907 183.558 47.8568 183.232 48.8008C182.915 49.7448 182.455 50.5464 181.853 51.2056C181.259 51.8566 180.535 52.3571 179.68 52.707C178.834 53.0488 177.886 53.2197 176.836 53.2197C176.038 53.2197 175.326 53.1058 174.7 52.8779C174.073 52.6501 173.544 52.3123 173.113 51.8647C172.681 51.4172 172.352 50.8638 172.124 50.2046C171.896 49.5454 171.782 48.7804 171.782 47.9097ZM174.089 47.7266C174.089 48.3613 174.163 48.9025 174.309 49.3501C174.456 49.7896 174.659 50.1517 174.919 50.4365C175.188 50.7214 175.509 50.9289 175.884 51.0591C176.258 51.1893 176.673 51.2544 177.129 51.2544C177.764 51.2544 178.341 51.1445 178.862 50.9248C179.391 50.7051 179.843 50.3714 180.217 49.9238C180.592 49.4762 180.881 48.9147 181.084 48.2393C181.296 47.5557 181.401 46.7541 181.401 45.8345C181.401 45.2404 181.328 44.7277 181.182 44.2964C181.035 43.8569 180.828 43.4948 180.559 43.21C180.299 42.917 179.981 42.7013 179.607 42.563C179.241 42.4165 178.834 42.3433 178.386 42.3433C177.768 42.3433 177.194 42.4572 176.665 42.6851C176.144 42.9048 175.693 43.2384 175.31 43.686C174.928 44.1336 174.626 44.6951 174.407 45.3706C174.195 46.0379 174.089 46.8232 174.089 47.7266ZM185.759 48.0317C185.759 46.7378 185.926 45.6107 186.26 44.6504C186.602 43.6901 187.061 42.8966 187.639 42.27C188.225 41.6353 188.913 41.1632 189.702 40.854C190.492 40.5448 191.338 40.3901 192.241 40.3901C192.892 40.3901 193.539 40.4756 194.182 40.6465C194.825 40.8092 195.46 41.09 196.086 41.4888L195.146 43.1001C194.707 42.8478 194.247 42.6606 193.767 42.5386C193.295 42.4084 192.819 42.3433 192.339 42.3433C191.639 42.3433 191.021 42.4694 190.483 42.7217C189.954 42.974 189.511 43.3361 189.153 43.8081C188.795 44.272 188.522 44.8416 188.335 45.5171C188.156 46.1844 188.066 46.9331 188.066 47.7632C188.066 48.87 188.315 49.7285 188.811 50.3389C189.316 50.9492 190.089 51.2544 191.13 51.2544C191.659 51.2544 192.172 51.1852 192.668 51.0469C193.165 50.9004 193.645 50.7214 194.109 50.5098L194.597 52.1089C193.905 52.4751 193.214 52.7518 192.522 52.939C191.838 53.1261 191.139 53.2197 190.422 53.2197C189.592 53.2197 188.88 53.0936 188.286 52.8413C187.7 52.5809 187.22 52.2228 186.846 51.7671C186.471 51.3114 186.195 50.7661 186.016 50.1313C185.845 49.4884 185.759 48.7886 185.759 48.0317ZM196.965 42.624L197.246 40.6587H208.257L207.976 42.624H203.643L202.19 53H199.834L201.287 42.624H196.965ZM211.077 51.3276H213.25C213.738 51.3276 214.153 51.2829 214.495 51.1934C214.836 51.1038 215.113 50.9655 215.325 50.7783C215.544 50.583 215.703 50.3348 215.801 50.0337C215.907 49.7326 215.959 49.3664 215.959 48.9351C215.959 48.3573 215.78 47.9259 215.422 47.6411C215.064 47.3481 214.491 47.2017 213.701 47.2017H211.663L211.077 51.3276ZM212.578 40.6587L211.895 45.5659H214.482C215.011 45.5659 215.504 45.6392 215.959 45.7856C216.415 45.9321 216.81 46.1478 217.144 46.4326C217.485 46.7093 217.75 47.0552 217.937 47.4702C218.132 47.8771 218.23 48.341 218.23 48.8618C218.23 49.5535 218.116 50.1598 217.888 50.6807C217.668 51.1934 217.351 51.6247 216.936 51.9746C216.521 52.3164 216.016 52.5728 215.422 52.7437C214.836 52.9146 214.177 53 213.445 53H208.489L210.222 40.6587H212.578Z" fill="black"/>
</svg>
