<svg width="206" height="25" viewBox="0 0 206 25" fill="none" xmlns="http://www.w3.org/2000/svg">
<path d="M18.7642 0.653809H18.9267V24.4283H16.1648V7.10806L0.243691 25.0002H0V1.2257H2.76183V18.546L18.7642 0.653809Z" fill="#9F9F9F"/>
<path d="M31.9236 1.22559C33.3858 1.22559 34.6855 1.38898 35.6602 1.79748C36.635 2.20598 37.4473 2.69617 38.0159 3.26807C38.5845 3.83997 38.9907 4.49356 39.2344 5.14715C39.478 5.80075 39.5593 6.45434 39.5593 7.02624C39.5593 7.92493 39.3156 8.82363 38.8282 9.72232C38.3408 10.621 37.5285 11.438 36.4725 11.9282V12.0099C37.2036 12.255 37.8534 12.5001 38.3408 12.9903C38.9094 13.3988 39.3156 13.889 39.6405 14.3792C39.9654 14.8694 40.2904 15.4413 40.4528 16.0132C40.6153 16.5851 40.6965 17.157 40.6965 17.7289C40.6965 18.3825 40.534 19.036 40.2904 19.853C40.0467 20.5883 39.6405 21.3236 38.9907 21.9772C38.3408 22.6308 37.5285 23.2027 36.4725 23.6112C35.4165 24.0197 34.0356 24.2648 32.3298 24.2648H23.8818V1.22559H31.9236ZM26.7249 11.1929H31.9236C32.7359 11.1929 33.467 11.1112 34.0356 10.8661C34.6042 10.621 35.0916 10.3759 35.4978 10.0491C35.9039 9.72232 36.1476 9.31382 36.3101 8.82363C36.4725 8.41513 36.5538 7.92493 36.5538 7.43474C36.5538 6.53604 36.2288 5.71905 35.4978 4.98376C34.9292 4.16676 33.8732 3.83996 32.4922 3.83996H26.7249V11.1929ZM26.7249 21.8138H32.5735C33.5482 21.8138 34.3605 21.7321 35.0104 21.487C35.6602 21.2419 36.2288 20.9968 36.635 20.5883C37.0411 20.1798 37.3661 19.7713 37.5285 19.2811C37.691 18.7909 37.7722 18.3007 37.7722 17.8106C37.7722 17.5655 37.691 17.157 37.6098 16.6668C37.5285 16.1766 37.2848 15.6864 36.8787 15.2779C36.4725 14.7877 35.9039 14.3792 35.1728 14.0524C34.4418 13.7256 33.3858 13.5622 32.0049 13.5622H26.6437V21.8138H26.7249Z" fill="#9F9F9F"/>
<path d="M63.197 10.2126C63.0346 9.23224 62.7097 8.25185 62.2223 7.43485C61.7349 6.61786 61.1663 5.88257 60.4352 5.22897C59.7041 4.57538 58.8106 4.08518 57.8358 3.75838C56.8611 3.43159 55.8051 3.26819 54.6679 3.26819C53.6119 3.26819 52.6371 3.43159 51.7436 3.75838C50.85 4.08518 50.0377 4.57538 49.3067 5.22897C48.5756 5.88257 48.007 6.61786 47.4384 7.43485C46.951 8.25185 46.5448 9.23224 46.2199 10.2126H63.197ZM55.074 22.3858C56.6174 22.3858 58.0795 21.9773 59.3792 21.242C60.6789 20.5068 61.7349 19.4447 62.6284 18.2192H65.8776C65.3903 19.1996 64.7404 20.0983 64.0093 20.9152C63.2783 21.7322 62.466 22.4675 61.4912 23.0394C60.5977 23.693 59.6229 24.1832 58.4857 24.51C57.4297 24.8368 56.2925 25.0002 55.074 25.0002C53.4494 25.0002 51.8248 24.6734 50.3627 24.0198C48.9005 23.3662 47.6008 22.5492 46.5448 21.4054C45.4888 20.2617 44.5953 19.0362 43.9455 17.5656C43.2956 16.095 42.9707 14.5427 42.9707 12.827C42.9707 11.1113 43.2956 9.55904 43.8642 8.08845C44.4328 6.61786 45.2451 5.31067 46.3011 4.24858C47.3571 3.18649 48.5756 2.2878 49.9565 1.6342C51.3374 0.980606 52.8808 0.653809 54.5866 0.653809C56.4549 0.653809 58.1608 0.980606 59.6229 1.6342C61.0851 2.2878 62.3035 3.10479 63.3595 4.24858C64.3343 5.31067 65.1466 6.61786 65.6339 8.08845C66.1213 9.55904 66.4463 11.1113 66.4463 12.827H45.9762C45.9762 14.1342 46.2199 15.3597 46.7073 16.5035C47.1947 17.6473 47.8445 18.7094 48.6568 19.5264C49.4691 20.425 50.4439 21.0786 51.5811 21.5688C52.6371 22.1407 53.8556 22.3858 55.074 22.3858Z" fill="#9F9F9F"/>
<path d="M72.7013 1.22559V11.3563H85.3732V1.22559H88.2163V24.4282H85.3732V13.9707H72.7013V24.4282H69.9395V1.22559H72.7013Z" fill="#9F9F9F"/>
<path d="M90.8965 3.83996V1.22559H106.818V3.83996H100.157V24.4282H97.3137V3.83996H90.8965Z" fill="#9F9F9F"/>
<path d="M157.1 24.4281H152.957H138.498H134.518V18.8725H149.22V4.90196H148.895C147.596 4.90196 146.621 4.98366 145.971 5.14706C144.915 5.39216 144.103 5.88235 143.453 6.53595C142.884 7.10784 142.559 7.76144 142.397 8.49673C142.234 9.23203 142.153 10.049 142.153 11.0294V17.402H136.711V11.0294C136.711 8.82353 137.036 7.02614 137.686 5.63726C138.173 4.49346 138.985 3.43137 140.122 2.53268C141.341 1.47059 142.884 0.816993 144.753 0.408497C145.971 0.163399 147.758 0 149.951 0H154.744V18.7908H157.1V24.4281Z" fill="#9F9F9F"/>
<path d="M180.656 24.4281H174.239V14.4608H165.953V24.4281H159.536V0H165.953V9.06863H174.239V0H180.656V24.4281Z" fill="#9F9F9F"/>
<path d="M206 0L203.076 6.45425C202.67 7.27124 202.345 8.00654 201.939 8.82353C201.451 9.64052 200.72 10.3758 199.908 10.9477C202.101 11.1928 203.644 12.3366 204.619 14.5425C205.188 15.8497 205.431 17.402 205.431 19.0359V24.4281H199.014V19.281C199.014 17.3203 198.527 16.0131 197.633 15.2778C196.983 14.7876 196.009 14.5425 194.628 14.5425H191.541V24.5098H185.205V0H191.622V9.06863H193.084C194.14 9.06863 194.953 8.82353 195.44 8.33333C195.927 7.84314 196.496 6.78105 197.227 4.98366L199.177 0H206Z" fill="#9F9F9F"/>
<path fill-rule="evenodd" clip-rule="evenodd" d="M119.896 24.4279C121.764 22.6305 122.17 21.8952 123.388 18.7907C124.607 15.7678 128.993 -2.04266 136.304 1.47041C131.43 4.41158 130.699 24.5096 121.764 24.7547C120.87 24.7547 120.464 24.7547 119.896 24.4279Z" fill="#9F9F9F"/>
<path fill-rule="evenodd" clip-rule="evenodd" d="M128.262 1.30713C129.318 1.79732 129.806 2.61432 130.212 3.43131C128.993 4.9836 128.587 5.63719 127.694 7.35288C127.775 6.20909 127.125 4.33 126.15 3.83981C126.8 2.69602 127.125 1.96072 128.262 1.30713Z" fill="#9F9F9F"/>
<path fill-rule="evenodd" clip-rule="evenodd" d="M119.895 24.4281C118.921 23.8562 118.596 23.5294 117.702 22.7941C118.758 21.5686 119.489 20.3431 120.22 18.8726C120.383 19.7713 120.951 21.732 122.007 21.8137C121.358 22.9575 120.789 23.4477 119.895 24.4281Z" fill="#9F9F9F"/>
<path fill-rule="evenodd" clip-rule="evenodd" d="M111.773 24.1828C113.642 22.3854 114.048 21.6501 115.266 18.5456C116.485 15.5227 120.871 -2.28778 128.182 1.22529C123.308 4.16647 122.577 24.2645 113.642 24.5096C112.748 24.5913 112.342 24.5913 111.773 24.1828Z" fill="#9F9F9F"/>
<path fill-rule="evenodd" clip-rule="evenodd" d="M119.814 1.38867C120.952 1.87887 121.683 2.77756 122.008 3.26776C120.789 4.82004 120.302 5.63704 119.408 7.35272C119.165 6.37233 118.515 4.41155 117.54 3.92135C118.109 2.94096 118.515 2.20567 119.327 1.55207C119.49 1.47037 119.733 1.47037 119.814 1.38867Z" fill="#9F9F9F"/>
<path fill-rule="evenodd" clip-rule="evenodd" d="M111.772 24.183C110.798 23.6111 110.473 23.2843 109.579 22.549C110.635 21.3235 111.366 20.098 112.097 18.6274C112.26 19.5261 112.828 21.4869 113.884 21.5686C113.234 22.7941 112.666 23.2843 111.772 24.183Z" fill="#9F9F9F"/>
<path fill-rule="evenodd" clip-rule="evenodd" d="M103.568 24.2647C105.437 22.4673 105.68 21.8137 106.899 18.7091C108.117 15.6863 112.504 -2.12421 119.814 1.38887C114.941 4.33004 114.21 24.4281 105.274 24.6732C104.381 24.7549 104.056 24.5915 103.568 24.2647Z" fill="#9F9F9F"/>
</svg>
