<svg width="206" height="25" viewBox="0 0 206 25" fill="none" xmlns="http://www.w3.org/2000/svg">
<path d="M18.7642 0.653564H18.9267V24.4281H16.1648V7.10781L0.243691 25H0V1.22546H2.76183V18.5457L18.7642 0.653564Z" fill="black"/>
<path d="M31.9236 1.22559C33.3858 1.22559 34.6855 1.38898 35.6602 1.79748C36.635 2.20598 37.4473 2.69617 38.0159 3.26807C38.5845 3.83997 38.9907 4.49356 39.2344 5.14715C39.478 5.80075 39.5593 6.45434 39.5593 7.02624C39.5593 7.92493 39.3156 8.82363 38.8282 9.72232C38.3408 10.621 37.5285 11.438 36.4725 11.9282V12.0099C37.2036 12.255 37.8534 12.5001 38.3408 12.9903C38.9094 13.3988 39.3156 13.889 39.6405 14.3792C39.9654 14.8694 40.2904 15.4413 40.4528 16.0132C40.6153 16.5851 40.6965 17.157 40.6965 17.7289C40.6965 18.3825 40.534 19.036 40.2904 19.853C40.0467 20.5883 39.6405 21.3236 38.9907 21.9772C38.3408 22.6308 37.5285 23.2027 36.4725 23.6112C35.4165 24.0197 34.0356 24.2648 32.3298 24.2648H23.8818V1.22559H31.9236ZM26.7249 11.1929H31.9236C32.7359 11.1929 33.467 11.1112 34.0356 10.8661C34.6042 10.621 35.0916 10.3759 35.4978 10.0491C35.9039 9.72232 36.1476 9.31382 36.3101 8.82363C36.4725 8.41513 36.5538 7.92493 36.5538 7.43474C36.5538 6.53604 36.2288 5.71905 35.4978 4.98376C34.9292 4.16676 33.8732 3.83996 32.4922 3.83996H26.7249V11.1929ZM26.7249 21.8138H32.5735C33.5482 21.8138 34.3605 21.7321 35.0104 21.487C35.6602 21.2419 36.2288 20.9968 36.635 20.5883C37.0411 20.1798 37.3661 19.7713 37.5285 19.2811C37.691 18.7909 37.7722 18.3007 37.7722 17.8106C37.7722 17.5655 37.691 17.157 37.6098 16.6668C37.5285 16.1766 37.2848 15.6864 36.8787 15.2779C36.4725 14.7877 35.9039 14.3792 35.1728 14.0524C34.4418 13.7256 33.3858 13.5622 32.0049 13.5622H26.6437V21.8138H26.7249Z" fill="black"/>
<path d="M63.197 10.2124C63.0346 9.232 62.7097 8.2516 62.2223 7.43461C61.7349 6.61762 61.1663 5.88232 60.4352 5.22873C59.7041 4.57513 58.8106 4.08494 57.8358 3.75814C56.8611 3.43134 55.8051 3.26794 54.6679 3.26794C53.6119 3.26794 52.6371 3.43134 51.7436 3.75814C50.85 4.08494 50.0377 4.57513 49.3067 5.22873C48.5756 5.88232 48.007 6.61762 47.4384 7.43461C46.951 8.2516 46.5448 9.232 46.2199 10.2124H63.197ZM55.074 22.3856C56.6174 22.3856 58.0795 21.9771 59.3792 21.2418C60.6789 20.5065 61.7349 19.4444 62.6284 18.2189H65.8776C65.3903 19.1993 64.7404 20.098 64.0093 20.915C63.2783 21.732 62.466 22.4673 61.4912 23.0392C60.5977 23.6928 59.6229 24.183 58.4857 24.5098C57.4297 24.8366 56.2925 25 55.074 25C53.4494 25 51.8248 24.6732 50.3627 24.0196C48.9005 23.366 47.6008 22.549 46.5448 21.4052C45.4888 20.2614 44.5953 19.0359 43.9455 17.5653C43.2956 16.0947 42.9707 14.5425 42.9707 12.8268C42.9707 11.1111 43.2956 9.55879 43.8642 8.0882C44.4328 6.61762 45.2451 5.31043 46.3011 4.24834C47.3571 3.18624 48.5756 2.28755 49.9565 1.63396C51.3374 0.980362 52.8808 0.653564 54.5866 0.653564C56.4549 0.653564 58.1608 0.980362 59.6229 1.63396C61.0851 2.28755 62.3035 3.10454 63.3595 4.24834C64.3343 5.31043 65.1466 6.61762 65.6339 8.0882C66.1213 9.55879 66.4463 11.1111 66.4463 12.8268H45.9762C45.9762 14.134 46.2199 15.3594 46.7073 16.5032C47.1947 17.647 47.8445 18.7091 48.6568 19.5261C49.4691 20.4248 50.4439 21.0784 51.5811 21.5686C52.6371 22.1405 53.8556 22.3856 55.074 22.3856Z" fill="black"/>
<path d="M72.7013 1.22559V11.3563H85.3732V1.22559H88.2163V24.4282H85.3732V13.9707H72.7013V24.4282H69.9395V1.22559H72.7013Z" fill="black"/>
<path d="M90.8965 3.83996V1.22559H106.818V3.83996H100.157V24.4282H97.3137V3.83996H90.8965Z" fill="black"/>
<path d="M157.1 24.4281H152.957H138.498H134.518V18.8725H149.22V4.90196H148.895C147.596 4.90196 146.621 4.98366 145.971 5.14706C144.915 5.39216 144.103 5.88235 143.453 6.53595C142.884 7.10784 142.559 7.76144 142.397 8.49673C142.234 9.23203 142.153 10.049 142.153 11.0294V17.402H136.711V11.0294C136.711 8.82353 137.036 7.02614 137.686 5.63726C138.173 4.49346 138.985 3.43137 140.122 2.53268C141.341 1.47059 142.884 0.816993 144.753 0.408497C145.971 0.163399 147.758 0 149.951 0H154.744V18.7908H157.1V24.4281Z" fill="black"/>
<path d="M180.656 24.4281H174.239V14.4608H165.953V24.4281H159.536V0H165.953V9.06863H174.239V0H180.656V24.4281Z" fill="black"/>
<path d="M206 0L203.076 6.45425C202.67 7.27124 202.345 8.00654 201.939 8.82353C201.451 9.64052 200.72 10.3758 199.908 10.9477C202.101 11.1928 203.644 12.3366 204.619 14.5425C205.188 15.8497 205.431 17.402 205.431 19.0359V24.4281H199.014V19.281C199.014 17.3203 198.527 16.0131 197.633 15.2778C196.983 14.7876 196.009 14.5425 194.628 14.5425H191.541V24.5098H185.205V0H191.622V9.06863H193.084C194.14 9.06863 194.953 8.82353 195.44 8.33333C195.927 7.84314 196.496 6.78105 197.227 4.98366L199.177 0H206Z" fill="black"/>
<path fill-rule="evenodd" clip-rule="evenodd" d="M119.896 24.4282C121.764 22.6308 122.17 21.8955 123.388 18.7909C124.607 15.768 128.993 -2.04242 136.304 1.47065C131.43 4.41183 130.699 24.5099 121.764 24.755C120.87 24.755 120.464 24.755 119.896 24.4282Z" fill="black"/>
<path fill-rule="evenodd" clip-rule="evenodd" d="M128.262 1.30713C129.318 1.79732 129.806 2.61432 130.212 3.43131C128.993 4.9836 128.587 5.63719 127.694 7.35288C127.775 6.20909 127.125 4.33 126.15 3.83981C126.8 2.69602 127.125 1.96072 128.262 1.30713Z" fill="#B52E18"/>
<path fill-rule="evenodd" clip-rule="evenodd" d="M119.895 24.4281C118.921 23.8562 118.596 23.5294 117.702 22.7941C118.758 21.5686 119.489 20.3431 120.22 18.8726C120.383 19.7713 120.951 21.732 122.007 21.8137C121.358 22.9575 120.789 23.4477 119.895 24.4281Z" fill="#979797"/>
<path fill-rule="evenodd" clip-rule="evenodd" d="M111.773 24.183C113.642 22.3857 114.048 21.6504 115.266 18.5458C116.485 15.5229 120.871 -2.28754 128.182 1.22554C123.308 4.16671 122.577 24.2647 113.642 24.5098C112.748 24.5915 112.342 24.5915 111.773 24.183Z" fill="#C53C19"/>
<path fill-rule="evenodd" clip-rule="evenodd" d="M119.814 1.38892C120.952 1.87911 121.683 2.7778 122.008 3.268C120.789 4.82029 120.302 5.63728 119.408 7.35297C119.165 6.37258 118.515 4.41179 117.54 3.9216C118.109 2.9412 118.515 2.20591 119.327 1.55231C119.49 1.47062 119.733 1.47062 119.814 1.38892Z" fill="#979797"/>
<path fill-rule="evenodd" clip-rule="evenodd" d="M111.772 24.183C110.798 23.6111 110.473 23.2843 109.579 22.549C110.635 21.3235 111.366 20.098 112.097 18.6274C112.26 19.5261 112.828 21.4869 113.884 21.5686C113.234 22.7941 112.666 23.2843 111.772 24.183Z" fill="#B52E18"/>
<path fill-rule="evenodd" clip-rule="evenodd" d="M103.568 24.2647C105.437 22.4673 105.68 21.8137 106.899 18.7091C108.117 15.6863 112.504 -2.12421 119.814 1.38887C114.941 4.33004 114.21 24.4281 105.274 24.6732C104.381 24.7549 104.056 24.5915 103.568 24.2647Z" fill="black"/>
</svg>
