<svg width="24" height="23" viewBox="0 0 24 23" fill="none" xmlns="http://www.w3.org/2000/svg">
<path d="M12.0957 23C18.4534 23 23.6074 17.8513 23.6074 11.5C23.6074 5.14873 18.4534 0 12.0957 0C5.73794 0 0.583984 5.14873 0.583984 11.5C0.583984 17.8513 5.73794 23 12.0957 23Z" fill="#F7BC19"/>
<path d="M8.54297 16.3C9.84429 18.3 14.1487 18.65 15.9505 16.3" stroke="black" stroke-width="1.5" stroke-miterlimit="10" stroke-linecap="round" stroke-linejoin="round"/>
<path d="M9.29276 11.75C9.81797 11.75 10.2437 11.1232 10.2437 10.35C10.2437 9.57675 9.81797 8.94995 9.29276 8.94995C8.76756 8.94995 8.3418 9.57675 8.3418 10.35C8.3418 11.1232 8.76756 11.75 9.29276 11.75Z" fill="black"/>
<path d="M15.7498 11.75C16.275 11.75 16.7008 11.1232 16.7008 10.35C16.7008 9.57675 16.275 8.94995 15.7498 8.94995C15.2246 8.94995 14.7988 9.57675 14.7988 10.35C14.7988 11.1232 15.2246 11.75 15.7498 11.75Z" fill="black"/>
</svg>
