<svg width="57" height="55" viewBox="0 0 57 55" fill="none" xmlns="http://www.w3.org/2000/svg">
<path d="M55.6033 8.81672L54.4857 30.9287C54.0666 35.8269 51.2725 39.3256 46.9416 39.3256H33.1107C32.971 41.8447 34.5078 50.6615 35.4857 53.7404C31.993 53.7404 25.5666 54.86 20.2578 39.3256H9.22099C5.44893 39.3256 1.67687 36.1068 1.39746 32.3282L1.67687 9.93631C2.2357 4.1984 5.30923 1.39941 9.64011 1.39941H48.0592C51.6916 1.39941 55.1842 5.17804 55.6033 8.81672Z" stroke="black" stroke-width="2" stroke-miterlimit="10"/>
<path d="M21.7939 14.8345V12.7352C22.3528 10.776 24.3086 9.37646 26.4042 9.37646H28.4998C30.5954 9.37646 32.5513 10.776 33.1101 12.8752C33.6689 14.6945 32.9704 16.7938 31.4336 17.9134L28.3601 20.2925C27.2425 21.1322 26.5439 22.6716 26.5439 24.0711V26.5902" stroke="black" stroke-width="2" stroke-miterlimit="10"/>
<path d="M28.2201 28.8296H24.8672V32.1884H28.2201V28.8296Z" fill="black"/>
</svg>
