<svg width="22" height="12" viewBox="0 0 22 12" fill="none" xmlns="http://www.w3.org/2000/svg">
<path d="M12.8417 2.99748C12.8417 3.65003 12.8417 4.29676 12.8417 4.94931C12.8417 5.06584 12.8417 5.18237 12.8601 5.29889C12.9153 5.67761 13.1608 5.79996 13.5105 5.61934C13.8418 5.45038 14.0934 5.19402 14.3327 4.93183C15.3942 3.75491 16.1551 2.40902 16.8362 1.01069C16.8853 0.905815 16.9344 0.795114 16.9835 0.690239C17.1675 0.311526 17.4805 0.113429 17.9284 0.113429C18.6954 0.113429 19.4624 0.107603 20.2294 0.113429C20.8246 0.119256 21.0086 0.375616 20.8491 0.92912C20.7141 1.40106 20.4748 1.83221 20.2232 2.2517C19.5851 3.34123 18.8672 4.3725 18.1247 5.39794C18.0695 5.47951 18.0082 5.55525 17.9468 5.63682C17.5173 6.23694 17.5173 6.42338 18.0695 6.94775C18.8304 7.67022 19.5728 8.40434 20.2478 9.19673C20.5116 9.50553 20.7693 9.82015 20.9841 10.1639C21.0761 10.3154 21.1682 10.4669 21.2357 10.63C21.4873 11.236 21.248 11.603 20.5607 11.6321C20.0392 11.6555 19.5115 11.5972 18.9961 11.6496C18.0573 11.7487 17.3762 11.4049 16.7932 10.7232C16.1306 9.94833 15.3881 9.23169 14.5291 8.6374C14.2161 8.42182 13.8909 8.2179 13.486 8.17712C13.0564 8.13633 12.8601 8.28199 12.854 8.68984C12.8355 9.35987 12.8478 10.0299 12.8417 10.6999C12.8355 11.3059 12.6392 11.5156 12.0011 11.5855C10.1909 11.7836 8.58946 11.2593 7.11683 10.3154C5.95713 9.56962 5.03673 8.60244 4.25133 7.51291C2.90142 5.66595 1.72945 3.7316 1.05449 1.55254C0.968588 1.28453 0.88882 1.01069 0.88882 0.725197C0.882684 0.358137 1.06676 0.136735 1.44719 0.130908C2.32464 0.113429 3.20822 0.107603 4.08566 0.130908C4.49677 0.142561 4.69312 0.445532 4.82197 0.783461C5.10423 1.51176 5.38648 2.24005 5.74237 2.93922C6.24552 3.94135 6.79162 4.91435 7.5218 5.78831C7.71815 6.02719 7.92677 6.24859 8.18448 6.43503C8.36243 6.56321 8.55878 6.66809 8.77967 6.56321C8.98216 6.46999 8.9883 6.26024 8.99443 6.07963C9.0067 5.58438 9.00057 5.08914 9.0067 4.5939C9.0067 3.98213 9.0067 3.37037 9.0067 2.7586C9.0067 2.15848 8.8349 1.6108 8.41765 1.1447C8.34402 1.06313 8.27652 0.975731 8.21516 0.888336C8.0004 0.538754 8.20289 0.136735 8.62627 0.130908C9.85347 0.113429 11.0807 0.119256 12.3079 0.130908C12.5778 0.130908 12.7435 0.28822 12.7987 0.532927C12.8294 0.696066 12.8417 0.859204 12.8478 1.02234C12.8417 1.68072 12.8417 2.3391 12.8417 2.99748Z" fill="black"/>
</svg>
