<svg width="57" height="32" viewBox="0 0 57 32" xmlns="http://www.w3.org/2000/svg"><title>D6A6B65F-8F7F-4257-ADE8-63A06044AD83</title><path d="M0 0h56.8v9.589h-4.154c-.333-1.25-.685-2.505-.994-3.77-.084-.348-.23-.436-.565-.43-1.24.018-2.48.007-3.748.007-.01.197-.022.348-.023.5 0 6.672.004 13.344-.011 20.017-.001.392.132.525.482.629 1.146.338 2.283.71 3.418 1.085.131.043.324.192.326.295.023 1.192.014 2.385.014 3.6H36.122v-3.8l4.201-1.333V5.398c-1.356 0-2.688-.008-4.02.015-.096.002-.237.21-.274.345-.35 1.272-.683 2.549-1.026 3.843h-4.148v-4.18h-4.892v4.173c-.196.013-.344.03-.492.031-1.088.003-2.178-.015-3.266.01-.37.01-.502-.12-.587-.466-.307-1.251-.648-2.493-.98-3.752h-4.216c-.01.169-.027.331-.027.494-.002 6.657.003 13.314-.012 19.971-.001.41.145.558.509.666 1.248.373 2.487.778 3.737 1.172v3.8H5.193v-.63c0-.933.01-1.867-.007-2.8-.005-.286.093-.398.365-.48 1.292-.392 2.575-.81 3.863-1.22V5.398c-1.342 0-2.66-.008-3.978.014-.103.001-.26.188-.296.315C4.783 7.01 4.446 8.3 4.1 9.605H0V0z" fill="#FFF" fill-rule="evenodd"/></svg>