<svg width="38" height="38" viewBox="0 0 38 38" xmlns="http://www.w3.org/2000/svg"><title>17E7D42C-1CBC-4957-8BF0-D1334FAE017F</title><g transform="translate(1 1)" fill="none" fill-rule="evenodd"><path d="M25.478 21.4l-3.17-.92a1.174 1.174 0 0 0-1.17.312l-.775.797a1.147 1.147 0 0 1-1.255.267c-1.5-.612-4.654-3.442-5.46-4.858a1.174 1.174 0 0 1 .092-1.292l.677-.883c.265-.346.32-.811.145-1.211l-1.333-3.044a1.177 1.177 0 0 0-1.846-.427c-.885.755-1.935 1.903-2.062 3.174-.225 2.241.727 5.066 4.33 8.459 4.16 3.919 7.493 4.437 9.662 3.906 1.23-.3 2.214-1.506 2.835-2.494a1.196 1.196 0 0 0-.67-1.787z" fill="#9BDD41"/><circle stroke="#9BDD41" stroke-width="2" cx="18" cy="18" r="18"/></g></svg>