<svg width="16" height="16" viewBox="0 0 16 16" fill="none" xmlns="http://www.w3.org/2000/svg"><g clip-path="url(#a)"><path fill-rule="evenodd" clip-rule="evenodd" d="M12.256 15.186c.215.152.491.19.738.097a.774.774 0 0 0 .483-.56C14.056 12 15.46 5.109 15.989 2.632a.52.52 0 0 0-.174-.505.534.534 0 0 0-.531-.094C12.489 3.068 3.88 6.298.361 7.6A.551.551 0 0 0 0 8.133c.008.236.167.44.395.509 1.578.472 3.65 1.129 3.65 1.129s.968 2.923 1.472 4.41c.064.186.21.333.402.384a.578.578 0 0 0 .541-.138l2.064-1.949s2.381 1.746 3.732 2.708zm-7.34-5.785l1.12 3.692.248-2.338 6.79-6.124a.185.185 0 0 0 .022-.251.19.19 0 0 0-.25-.043l-7.93 5.064z" fill="#1B1B1B"/></g><defs><clipPath id="a"><path fill="#fff" d="M0 0h16v16H0z"/></clipPath></defs></svg>